# Render LOD; unchanged CAD body-local coordinates in mm
v 35.0013164 50.0197449 8.1359798
v 35.3616249 44.9854082 15.1770468
v 35.0251583 29.5113829 20.6526346
v 35.3938210 17.8671213 16.0538320
v 35.3951948 14.3154733 -12.2470042
v 35.6267932 51.5165587 0.6992725
v 35.9653299 51.1423133 0.0003133
v 35.9756603 51.0846553 1.0052516
v 35.9756603 51.1097240 0.0003133
v 35.9837476 51.0520660 1.0039986
v 35.9837476 51.0771347 0.0003133
v 35.9895460 51.0182233 1.0021190
v 35.9895460 51.0432920 0.0003133
v 35.9930440 51.0069492 0.4953810
v 35.9942000 50.9749798 0.0003133
v 35.9942000 50.9499111 0.9989864
v 35.7849490 51.1768561 3.2761849
v 35.9592624 51.0290441 2.3296444
v 35.9756603 51.0100760 2.0083104
v 35.9837476 50.9768600 2.0051778
v 35.9895460 50.9430172 2.0014187
v 35.9930403 50.9098012 1.9982861
v 35.9528023 50.9480310 3.0157549
v 35.9756603 50.8847326 3.0063571
v 35.9837476 50.8521433 3.0013449
v 35.9895460 50.8189273 2.9963328
v 35.9930403 50.7850846 2.9913206
v 35.9942011 50.8224276 2.4972605
v 35.9942000 50.5776412 3.9699451
v 35.9528023 50.7731769 4.0094159
v 35.9653299 50.7418411 4.0031507
v 35.9756603 50.7098785 3.9968855
v 35.9837476 50.6772892 3.9899938
v 35.9895460 50.6446999 3.9837286
v 35.9930403 50.6114839 3.9768368
v 35.7534369 50.4502397 6.3601560
v 35.9528023 50.5488122 4.9930526
v 35.9653299 50.5181031 4.9855343
v 35.9756603 50.4861405 4.9773896
v 35.9837476 50.4541780 4.9692448
v 35.9895460 50.4215887 4.9611000
v 35.9930403 50.3883727 4.9523288
v 35.9942000 50.3557834 4.9441840
v 35.9381384 50.3050193 5.9735567
v 35.9528023 50.2755636 5.9641589
v 35.9653299 50.2448545 5.9547611
v 35.9756603 50.2141454 5.9453632
v 35.9837476 50.1821828 5.9359654
v 35.9895460 50.1502202 5.9259411
v 35.9930403 50.1176309 5.9159168
v 35.9942000 50.0850416 5.9058925
v 35.8974623 49.8622930 7.4559160
v 35.9215968 50.1820072 6.4633496
v 35.9381384 49.9828868 6.9315060
v 35.9528023 49.9540578 6.9208552
v 35.9653299 49.9239754 6.9102043
v 35.9756603 49.8932662 6.8989270
v 35.9837476 49.8625571 6.8876496
v 35.9895460 49.8305945 6.8757457
v 35.9930403 49.7986320 6.8644684
v 35.9942000 49.7666694 6.8525645
v 35.9214145 49.6413260 7.8838167
v 35.9381384 49.6137504 7.8719128
v 35.9528023 49.5855482 7.8600089
v 35.9653299 49.5560925 7.8474785
v 35.9756603 49.5260101 7.8349481
v 35.9837476 49.4953009 7.8224177
v 35.9895460 49.4645918 7.8092608
v 35.9930403 49.4332559 7.7961039
v 35.9942000 49.4019201 7.7829469
v 35.9942000 48.9907937 8.6932808
v 35.7932673 48.8661108 9.9345859
v 35.9214145 49.2251859 8.8060544
v 35.9381384 49.1982371 8.7928975
v 35.9528023 49.1706615 8.7797405
v 35.9653299 49.1418325 8.7659571
v 35.9756603 49.1123768 8.7515471
v 35.9837476 49.0822944 8.7371372
v 35.9895460 49.0522120 8.7227272
v 35.9930403 49.0215029 8.7083172
v 35.9381384 48.7369733 9.6919539
v 35.9528023 48.7100245 9.6775440
v 35.9653299 48.6824490 9.6625075
v 35.9756603 48.6536200 9.6468445
v 35.9837476 48.6247910 9.6311815
v 35.9895460 48.5947086 9.6148919
v 35.9930403 48.5652529 9.5986024
v 35.9942000 48.5351705 9.5823129
v 35.9653299 48.1785685 10.5346236
v 35.9756603 48.1509929 10.5177075
v 35.9837476 48.1221639 10.5001650
v 35.9895460 48.0939617 10.4826224
v 35.9930403 48.0645060 10.4650798
v 35.9942000 48.0356770 10.4475373
v 35.9653299 47.6320712 11.3810523
v 35.9756603 47.6051224 11.3628832
v 35.9837476 47.5775468 11.3440876
v 35.9895460 47.5499713 11.3246655
v 35.9930403 47.5217690 11.3058699
v 35.9942000 47.4935668 11.2864478
v 35.7693213 46.9139166 12.8767836
v 35.9756603 47.0178885 12.1792390
v 35.9837476 46.9915664 12.1591904
v 35.9895460 46.9646176 12.1391417
v 35.9930403 46.9376688 12.1184666
v 35.9942000 46.9107199 12.0977914
v 35.9381384 46.4638707 13.0269208
v 35.9528023 46.4400554 13.0068722
v 35.9653299 46.4156135 12.9861970
v 35.9756603 46.3911715 12.9655219
v 35.9837476 46.3654761 12.9442202
v 35.9895460 46.3397807 12.9222920
v 35.9930403 46.3134586 12.9009903
v 35.9381384 45.7951636 13.7843837
v 35.9528023 45.7726018 13.7630821
v 35.9653299 45.7494133 13.7417804
v 35.9756603 45.7255980 13.7198522
v 35.9837476 45.7011561 13.6972974
v 35.9895460 45.6767141 13.6741162
v 35.9930403 45.6516454 13.6509349
v 35.9941998 45.9716339 13.2521371
v 35.9942000 44.9290407 14.3432397
v 35.9214145 45.1101619 14.5286897
v 35.9381384 45.0894803 14.5073880
v 35.9528023 45.0681719 14.4854598
v 35.9653299 45.0456101 14.4629051
v 35.9756603 45.0230483 14.4397238
v 35.9837476 44.9998597 14.4159161
v 35.9895460 44.9766712 14.3914818
v 35.9214145 44.3687557 15.2172354
v 35.9381384 44.3487007 15.1953072
v 35.9528023 44.3286458 15.1721259
v 35.9653299 44.3073374 15.1483182
v 35.9756603 44.2860290 15.1238839
v 35.9837476 44.2640940 15.0988231
v 35.9895460 44.2415321 15.0737623
v 35.9930523 44.6021440 14.7061223
v 35.9942000 44.1964085 15.0223876
v 35.9026916 43.6110548 15.8901181
v 35.9214145 43.5935067 15.8675633
v 35.9381384 43.5747052 15.8443821
v 35.9528023 43.5552770 15.8205743
v 35.9653299 43.5358488 15.7955135
v 35.9756603 43.5151671 15.7704527
v 35.9837476 43.4944854 15.7441389
v 35.9895460 43.4738038 15.7178250
v 35.9930403 43.4524954 15.6915112
v 35.9942000 43.4311870 15.6645708
v 35.5308103 42.3698915 17.1752559
v 35.9026916 42.8032166 16.5022283
v 35.9214145 42.7869219 16.4790470
v 35.9381384 42.7693739 16.4546127
v 35.9528023 42.7511991 16.4295519
v 35.9653299 42.7330243 16.4038646
v 35.9756603 42.7135960 16.3775508
v 35.9837476 42.6941678 16.3506104
v 35.9895460 42.6747396 16.3230435
v 35.9930403 42.6546846 16.2954766
v 35.9942000 42.6352564 16.2679097
v 35.8013637 41.7250568 17.3601105
v 35.8820614 41.9809638 17.0955429
v 35.9026916 41.9659226 17.0729882
v 35.9214145 41.9502547 17.0491804
v 35.9381384 41.9345868 17.0241196
v 35.9528023 41.9176654 16.9978057
v 35.9653299 41.9001173 16.9714919
v 35.9756603 41.8825693 16.9439250
v 35.9837476 41.8650212 16.9163581
v 35.9895460 41.8462197 16.8881647
v 35.9930403 41.8280449 16.8593448
v 35.9942000 41.8098701 16.8305249
v 35.8354757 41.1399096 17.6681823
v 35.8596154 41.1280020 17.6468807
v 35.8820614 41.1148409 17.6249524
v 35.9026916 41.1010531 17.6011447
v 35.9214145 41.0872654 17.5767104
v 35.9381384 41.0722242 17.5510231
v 35.9528023 41.0565562 17.5240827
v 35.9653299 41.0408883 17.4965158
v 35.9756603 41.0245937 17.4683224
v 35.9837476 41.0082990 17.4395025
v 35.9895460 40.9913777 17.4106825
v 35.9930403 40.9744563 17.3812361
v 35.9942000 40.9569082 17.3517896
v 35.8075959 40.6369898 17.9831632
v 35.8354757 40.2462111 18.1543620
v 35.8596154 40.2355569 18.1330603
v 35.8820614 40.2236493 18.1098791
v 35.9026916 40.2111150 18.0860713
v 35.9214145 40.1985806 18.0603840
v 35.9381384 40.1847929 18.0340701
v 35.9528023 40.1703784 18.0065032
v 35.9756603 40.1415494 17.9494899
v 35.9837476 40.1258815 17.9200435
v 35.9895460 40.1108403 17.8899705
v 35.9930403 40.0951723 17.8598975
v 35.9942000 40.0795044 17.8291980
v 35.8354757 39.3299508 18.5960587
v 35.8596154 39.3199234 18.5741305
v 35.8820614 39.3092692 18.5503228
v 35.9026916 39.2979883 18.5258885
v 35.9214145 39.2867074 18.4995746
v 35.9381384 39.2741730 18.4726342
v 35.9528023 39.2616387 18.4444408
v 35.9652733 39.7025411 18.2081372
v 35.9756603 39.2353166 18.3855479
v 35.9837476 39.2215288 18.3554750
v 35.9895460 39.2077410 18.3247755
v 35.9930403 39.1939532 18.2940760
v 35.9942000 39.1795388 18.2627500
v 35.9942000 38.2588915 18.6505660
v 35.6791965 38.9355201 18.9032699
v 35.8596154 38.3836081 18.9688382
v 35.8820614 38.3742074 18.9444039
v 35.9026916 38.3641799 18.9193431
v 35.9214145 38.3541524 18.8924028
v 35.9381384 38.3428715 18.8648359
v 35.9528023 38.3315906 18.8360160
v 35.9653299 38.3203097 18.8065695
v 35.9756603 38.3084021 18.7764965
v 35.9837476 38.2964945 18.7457970
v 35.9895460 38.2839601 18.7144710
v 35.9930403 38.2714258 18.6825185
v 35.8596154 37.4291181 19.3159304
v 35.8820614 37.4209708 19.2914961
v 35.9026916 37.4121968 19.2658088
v 35.9214145 37.4027960 19.2388684
v 35.9381384 37.3933952 19.2106750
v 35.9528023 37.3839945 19.1812286
v 35.9653299 37.3739670 19.1511556
v 35.9756603 37.3633128 19.1204561
v 35.9837476 37.3526586 19.0891301
v 35.9895460 37.3420044 19.0571776
v 35.9930403 37.3313503 19.0245985
v 35.9942000 37.3200694 18.9926460
v 35.9942000 36.3655793 19.2871105
v 35.8820614 36.4514396 19.5909728
v 35.9026916 36.4439190 19.5646589
v 35.9214145 36.4357716 19.5370920
v 35.9381384 36.4282510 19.5082721
v 35.9528023 36.4194770 19.4788257
v 35.9653299 36.4113297 19.4481262
v 35.9756603 36.4019289 19.4168002
v 35.9837476 36.3931549 19.3848476
v 35.9895460 36.3843808 19.3522686
v 35.9930403 36.3749801 19.3196895
v 35.2925820 36.9079869 19.7978688
v 35.9026916 35.4618534 19.8146405
v 35.9214145 35.4555862 19.7870736
v 35.9381384 35.4486923 19.7576271
v 35.9528023 35.4417984 19.7275542
v 35.9653299 35.4349046 19.6968547
v 35.9756603 35.4273839 19.6649022
v 35.9837476 35.4204901 19.6329496
v 35.9895460 35.4129695 19.5997441
v 35.9930403 35.4054489 19.5665385
v 35.9942000 35.3973015 19.5333329
v 35.7313238 34.0218065 20.2797748
v 35.9214145 34.4634932 19.9875600
v 35.9381384 34.4584794 19.9581136
v 35.9528023 34.4528390 19.9274141
v 35.9653299 34.4471985 19.8960881
v 35.9756603 34.4415581 19.8641356
v 35.9837476 34.4359176 19.8315565
v 35.9895460 34.4302772 19.7983509
v 35.9930403 34.4240100 19.7651454
v 35.8354757 33.4757871 20.2431803
v 35.8596154 33.4726536 20.2187460
v 35.8820614 33.4695200 20.1936852
v 35.9026916 33.4663864 20.1667448
v 35.9381384 33.4588658 20.1084784
v 35.9528023 33.4551055 20.0777790
v 35.9653299 33.4513452 20.0464529
v 35.9756603 33.4469582 20.0145004
v 35.9837476 33.4431979 19.9812948
v 35.9895460 33.4388108 19.9480893
v 35.9930403 33.4344238 19.9142572
v 35.9942000 32.4366903 19.9800418
v 35.9942009 33.9225822 19.8161483
v 35.6508714 31.1211328 20.5478140
v 35.8354757 32.4636392 20.3440500
v 35.8596154 32.4617590 20.3202423
v 35.8820614 32.4598789 20.2945549
v 35.9026916 32.4579987 20.2676146
v 35.9233760 32.9547362 20.1956159
v 35.9381384 32.4536117 20.2093482
v 35.9528023 32.4511048 20.1786487
v 35.9653299 32.4492247 20.1466962
v 35.9756603 32.4467178 20.1141171
v 35.9837476 32.4442109 20.0815381
v 35.9895460 32.4417041 20.0477060
v 35.9930403 32.4391972 20.0138739
v 35.8354757 31.4477309 20.3947982
v 35.8596154 31.4471041 20.3709904
v 35.8820614 31.4464774 20.3453031
v 35.9026916 31.4458507 20.3177362
v 35.9214145 31.4452240 20.2895428
v 35.9381384 31.4445973 20.2594698
v 35.9528023 31.4433438 20.2287703
v 35.9653299 31.4427171 20.1968178
v 35.9756603 31.4420904 20.1642387
v 35.9837476 31.4414637 20.1316597
v 35.9895460 31.4402103 20.0978276
v 35.9930403 31.4395835 20.0639955
v 35.9942000 31.4389568 20.0295369
v 35.7242374 30.4286890 20.4737397
v 35.7539925 30.4286890 20.4568237
v 35.7825421 30.4293157 20.4380281
v 35.8097489 30.4299424 20.4173529
v 35.8596154 30.4311959 20.3709904
v 35.8820614 30.4318226 20.3453031
v 35.9026916 30.4324493 20.3177362
v 35.9381384 30.4337027 20.2594698
v 35.9528023 30.4349562 20.2287703
v 35.9653299 30.4355829 20.1968178
v 35.9756603 30.4362096 20.1642387
v 35.9837476 30.4368363 20.1316597
v 35.9895460 30.4380897 20.0978276
v 35.9930403 30.4387165 20.0639955
v 35.9942000 30.4393432 20.0295369
v 35.7242374 29.4083937 20.4223650
v 35.7539925 29.4096471 20.4060755
v 35.7847358 28.9008424 20.3448897
v 35.8097489 29.4127807 20.3666048
v 35.8354757 29.4146608 20.3440500
v 35.8405721 29.9314611 20.3750032
v 35.8820614 29.4184211 20.2945549
v 35.9026916 29.4203013 20.2676146
v 35.9227752 29.9306189 20.2721333
v 35.9381384 29.4246883 20.2093482
v 35.9528023 29.4271952 20.1786487
v 35.9653299 29.4290753 20.1466962
v 35.9756603 29.4315822 20.1141171
v 35.9837476 29.4340891 20.0815381
v 35.9895460 29.4365959 20.0477060
v 35.9930403 29.4391028 20.0138739
v 35.9942000 29.4416097 19.9800418
v 35.6933989 28.3906052 20.3352787
v 35.7242374 28.3924854 20.3208688
v 35.7539925 28.3949923 20.3045793
v 35.8097489 28.3993793 20.2651085
v 35.8354757 28.4025129 20.2431803
v 35.8596154 28.4056464 20.2187460
v 35.8820614 28.4087800 20.1936852
v 35.9026916 28.4119136 20.1667448
v 35.9214145 28.4156739 20.1379249
v 35.9381384 28.4194342 20.1084784
v 35.9528023 28.4231945 20.0777790
v 35.9653299 28.4269548 20.0464529
v 35.9756603 28.4313418 20.0145004
v 35.9837476 28.4351021 19.9812948
v 35.9895460 28.4394892 19.9480893
v 35.9930403 28.4438762 19.9142572
v 35.9942000 28.4476365 19.8804251
v 35.5778282 26.3965434 20.0331304
v 35.6616449 27.3778305 20.1955647
v 35.6933989 27.3803374 20.1830343
v 35.7539925 27.3859778 20.1523349
v 35.7825421 27.3891114 20.1335392
v 35.8097489 27.3928717 20.1134906
v 35.8354757 27.3966320 20.0915624
v 35.8596154 27.4003923 20.0677546
v 35.8820614 27.4054061 20.0420673
v 35.9026916 27.4097931 20.0157535
v 35.9214145 27.4148068 19.9875600
v 35.9381384 27.4198206 19.9581136
v 35.9528023 27.4254610 19.9274141
v 35.9653299 27.4311015 19.8960881
v 35.9756603 27.4367419 19.8641356
v 35.9837476 27.4423824 19.8315565
v 35.9895460 27.4480228 19.7983509
v 35.9930403 27.4542900 19.7651454
v 35.9942000 27.4599305 19.7313133
v 35.6290974 26.3738299 20.0032230
v 35.6616449 26.3757100 19.9925722
v 35.6933989 26.3788436 19.9806683
v 35.7233446 26.8817306 20.0781442
v 35.7539925 26.3857375 19.9499688
v 35.7825421 26.3901245 19.9317997
v 35.8097489 26.3945115 19.9117511
v 35.8354757 26.3995253 19.8898229
v 35.8596154 26.4045390 19.8660151
v 35.8820614 26.4108062 19.8409543
v 35.9026916 26.4164466 19.8146405
v 35.9214145 26.4227138 19.7870736
v 35.9381384 26.4296077 19.7576271
v 35.9528023 26.4365016 19.7275542
v 35.9653299 26.4433954 19.6968547
v 35.9756603 26.4509161 19.6649022
v 35.9837476 26.4578099 19.6329496
v 35.9895460 26.4653305 19.5997441
v 35.9930403 26.4728511 19.5665385
v 35.9942000 26.4809985 19.5333329
v 35.5959243 25.3798567 19.7582537
v 35.6290974 25.3823635 19.7507354
v 35.6616449 25.3848704 19.7407111
v 35.6933989 25.3886307 19.7281807
v 35.7242374 25.3923910 19.7143972
v 35.7539925 25.3967780 19.6981077
v 35.7825421 25.4017918 19.6799386
v 35.8097489 25.4074322 19.6605165
v 35.8354757 25.4136994 19.6385883
v 35.8596154 25.4199666 19.6154071
v 35.8820614 25.4268604 19.5909728
v 35.9026916 25.4343810 19.5646589
v 35.9214145 25.4425284 19.5370920
v 35.9381384 25.4500490 19.5082721
v 35.9528023 25.4588230 19.4788257
v 35.9653299 25.4669703 19.4481262
v 35.9756603 25.4763711 19.4168002
v 35.9837476 25.4851451 19.3848476
v 35.9895460 25.4939192 19.3522686
v 35.9930403 25.5033199 19.3196895
v 35.9942000 25.5127207 19.2871105
v 35.6290974 24.4046850 19.4487527
v 35.6616449 24.4078186 19.4393549
v 35.6933989 24.4122056 19.4274510
v 35.7242374 24.4165926 19.4136676
v 35.7539925 24.4216063 19.3973780
v 35.7825421 24.4278735 19.3798355
v 35.8097489 24.4341407 19.3604133
v 35.8354757 24.4416613 19.3391117
v 35.8596154 24.4491819 19.3159304
v 35.8820614 24.4573292 19.2914961
v 35.9026916 24.4661032 19.2658088
v 35.9214145 24.4755040 19.2388684
v 35.9381384 24.4849048 19.2106750
v 35.9528023 24.4943055 19.1812286
v 35.9653299 24.5043330 19.1511556
v 35.9756603 24.5149872 19.1204561
v 35.9837476 24.5256414 19.0891301
v 35.9895460 24.5362956 19.0571776
v 35.9930403 24.5469497 19.0245985
v 35.9942000 24.5582306 18.9926460
v 35.6616449 23.4470614 19.0891301
v 35.7242374 23.4570888 19.0640693
v 35.7539925 23.4633560 19.0484063
v 35.7825421 23.4702499 19.0308637
v 35.8097489 23.4777705 19.0120681
v 35.8354757 23.4859178 18.9907664
v 35.8596154 23.4946919 18.9688382
v 35.8820614 23.5040926 18.9444039
v 35.9026916 23.5141201 18.9193431
v 35.9214145 23.5241476 18.8924028
v 35.9381384 23.5354285 18.8648359
v 35.9528023 23.5467094 18.8360160
v 35.9653299 23.5579903 18.8065695
v 35.9756603 23.5698979 18.7764965
v 35.9837476 23.5818055 18.7457970
v 35.9895460 23.5943399 18.7144710
v 35.9930403 23.6068742 18.6825185
v 35.9942000 23.6194085 18.6505660
v 35.1198743 22.7670621 18.9537124
v 35.6900087 22.9040135 18.8594384
v 35.7242374 22.5157599 18.6674820
v 35.7539925 22.5226538 18.6524455
v 35.7825421 22.5308011 18.6349030
v 35.8097489 22.5389484 18.6161074
v 35.8354757 22.5483492 18.5960587
v 35.8596154 22.5583766 18.5741305
v 35.8820614 22.5690308 18.5503228
v 35.9026916 22.5803117 18.5258885
v 35.9214145 22.5915926 18.4995746
v 35.9381384 22.6041270 18.4726342
v 35.9528023 22.6166613 18.4444408
v 35.9653299 22.6298224 18.4156209
v 35.9756603 22.6429834 18.3855479
v 35.9837476 22.6567712 18.3554750
v 35.9895460 22.6705590 18.3247755
v 35.9930403 22.6843468 18.2940760
v 35.9942000 22.6987612 18.2627500
v 35.7224013 21.2015840 18.0225194
v 35.7539925 21.6038866 18.2094958
v 35.7825421 21.6120339 18.1925797
v 35.8097489 21.6214347 18.1744106
v 35.8354757 21.6320889 18.1543620
v 35.8596154 21.6427431 18.1330603
v 35.8820614 21.6546507 18.1098791
v 35.9026916 21.6671850 18.0860713
v 35.9214145 21.6797194 18.0603840
v 35.9381384 21.6935071 18.0340701
v 35.9528023 21.7079216 18.0065032
v 35.9653299 21.7223361 17.9783098
v 35.9756603 21.7367506 17.9494899
v 35.9837476 21.7524185 17.9200435
v 35.9895460 21.7674597 17.8899705
v 35.9930403 21.7831277 17.8598975
v 35.9942000 21.7987956 17.8291980
v 35.7934758 20.1828446 17.3906295
v 35.7825421 20.7170820 17.7051470
v 35.8097489 20.7271095 17.6876045
v 35.8354757 20.7383904 17.6681823
v 35.8596154 20.7502980 17.6468807
v 35.8820614 20.7634591 17.6249524
v 35.9026916 20.7772469 17.6011447
v 35.9214145 20.7910346 17.5767104
v 35.9381384 20.8060758 17.5510231
v 35.9528023 20.8217438 17.5240827
v 35.9653299 20.8374117 17.4965158
v 35.9756603 20.8537063 17.4683224
v 35.9837476 20.8700010 17.4395025
v 35.9895460 20.8869223 17.4106825
v 35.9930403 20.9038437 17.3812361
v 35.9942000 20.9213918 17.3517896
v 35.9026916 19.9123774 17.0729882
v 35.9214145 19.9280453 17.0491804
v 35.9381384 19.9437132 17.0241196
v 35.9528023 19.9606346 16.9978057
v 35.9653299 19.9781827 16.9714919
v 35.9756603 19.9957307 16.9439250
v 35.9837476 20.0132788 16.9163581
v 35.9895460 20.0320803 16.8881647
v 35.9930403 20.0502551 16.8593448
v 35.9942000 20.0684299 16.8305249
v 35.9214145 19.0913781 16.4790470
v 35.9381384 19.1089261 16.4546127
v 35.9528023 19.1271009 16.4295519
v 35.9653299 19.1452757 16.4038646
v 35.9756603 19.1647040 16.3775508
v 35.9837476 19.1841322 16.3506104
v 35.9895460 19.2035604 16.3230435
v 35.9930403 19.2236154 16.2954766
v 35.9942000 19.2430436 16.2679097
v 35.9214145 18.2847933 15.8675633
v 35.9381384 18.3035948 15.8443821
v 35.9653299 18.3424512 15.7955135
v 35.9756603 18.3631329 15.7704527
v 35.9837476 18.3838146 15.7441389
v 35.9895460 18.4044962 15.7178250
v 35.9930403 18.4258046 15.6915112
v 35.9942000 18.4471130 15.6645708
v 35.9026916 17.4907428 15.2385371
v 35.9214145 17.5095443 15.2172354
v 35.9381384 17.5295993 15.1953072
v 35.9528341 17.9241841 15.4992481
v 35.9653299 17.5709626 15.1483182
v 35.9756603 17.5922710 15.1238839
v 35.9837476 17.6142060 15.0988231
v 35.9895460 17.6367679 15.0737623
v 35.9930403 17.6593297 15.0480749
v 35.9942000 17.6818915 15.0223876
v 35.9026916 16.7480831 14.5493649
v 35.9214145 16.7681381 14.5286897
v 35.9381384 16.7888197 14.5073880
v 35.9528023 16.8101281 14.4854598
v 35.9653299 16.8326899 14.4629051
v 35.9756603 16.8552517 14.4397238
v 35.9837476 16.8784403 14.4159161
v 35.9895460 16.9016288 14.3914818
v 35.9930403 16.9254440 14.3676740
v 35.9942000 16.9492593 14.3432397
v 35.8338712 15.0005385 12.8675937
v 35.9214145 16.0612013 13.8044324
v 35.9381384 16.0831364 13.7843837
v 35.9528023 16.1056982 13.7630821
v 35.9653299 16.1288867 13.7417804
v 35.9756603 16.1527020 13.7198522
v 35.9837476 16.1771439 13.6972974
v 35.9895460 16.2015859 13.6741162
v 35.9930403 16.2266546 13.6509349
v 35.9942000 16.2517232 13.6277537
v 35.9214145 15.3918675 13.0457164
v 35.9381384 15.4144293 13.0269208
v 35.9528023 15.4382446 13.0068722
v 35.9653299 15.4626865 12.9861970
v 35.9756603 15.4871285 12.9655219
v 35.9837476 15.5128239 12.9442202
v 35.9895460 15.5385193 12.9222920
v 35.9930403 15.5648414 12.9009903
v 35.9942000 15.5905368 12.8790621
v 35.9930403 14.9406312 12.1184666
v 35.9942000 14.9675801 12.0977914
v 35.7229540 13.3814225 10.6789208
v 35.9923157 14.7778976 11.9263697
v 35.9936369 13.8749680 10.5504652
v 35.9942000 13.8426230 10.4475373
v 35.7873140 11.8687367 7.6097122
v 35.9937707 12.9057963 8.7887750
v 35.9942000 12.8875063 8.6932808
v 35.9767491 12.2206694 7.5390296
v 35.9930403 12.4450441 7.7961039
v 35.9936343 12.1238532 6.9637404
v 35.9756603 11.9850338 6.8989270
v 35.9837476 12.0157429 6.8876496
v 35.9895460 12.0477055 6.8757457
v 35.9937729 11.7958052 5.9983175
v 35.9756603 11.6641546 5.9453632
v 35.9837476 11.6961172 5.9359654
v 35.9895460 11.7280798 5.9259411
v 35.9937808 11.5235113 5.0456640
v 35.9756603 11.3921595 4.9773896
v 35.9837476 11.4241220 4.9692448
v 35.9895460 11.4567113 4.9611000
v 35.9942000 11.5225166 4.9441840
v 35.2207516 10.5252560 3.3402354
v 35.9123005 10.8747870 3.3945946
v 35.9837476 11.2010108 3.9899938
v 35.9895460 11.2336001 3.9837286
v 35.9930403 11.2668161 3.9768368
v 35.9942000 11.3006588 3.9699451
v 35.9381384 10.8995599 3.0207670
v 35.9528023 10.9302690 3.0157549
v 35.9653299 10.9616049 3.0113692
v 35.9756603 10.9935674 3.0063571
v 35.9837476 11.0261567 3.0013449
v 35.9895460 11.0593727 2.9963328
v 35.9930403 11.0932154 2.9913206
v 35.9942000 11.1270582 2.9863084
v 35.7587979 10.4361257 0.2045064
v 35.9214145 10.7441341 2.0208408
v 35.9381384 10.7735898 2.0177082
v 35.9528023 10.8042989 2.0145756
v 35.9756603 10.8682240 2.0083104
v 35.9837476 10.9014400 2.0051778
v 35.9895460 10.9352828 2.0014187
v 35.9930403 10.9684988 1.9982861
v 35.9942000 11.0029682 1.9951535
v 35.9381384 10.6983837 1.0102638
v 35.9528023 10.7290929 1.0083842
v 35.9654236 10.7891306 1.5127586
v 35.9756603 10.7936447 1.0052516
v 35.9837476 10.8262340 1.0039986
v 35.9895460 10.8600767 1.0021190
v 35.9930403 10.8939194 1.0002395
v 35.9942000 10.9283889 0.9989864
v 35.9026916 10.6150304 0.0003133
v 35.9214145 10.6432326 0.0003133
v 35.9381384 10.6733150 0.0003133
v 35.9528023 10.7040242 0.0003133
v 35.9653299 10.7359867 0.0003133
v 35.9756603 10.7685760 0.0003133
v 35.9837476 10.8011653 0.0003133
v 35.9895460 10.8350080 0.0003133
v 35.9930403 10.8688507 0.0003133
v 35.9942000 10.9033202 0.0003133
v 35.8820614 10.6131502 -1.0146494
v 35.8884519 10.5945257 -0.4229187
v 35.9214145 10.6689280 -1.0115168
v 35.9381384 10.6983837 -1.0102638
v 35.9528023 10.7290929 -1.0083842
v 35.9653299 10.7610554 -1.0071312
v 35.9756603 10.7936447 -1.0052516
v 35.9837476 10.8262340 -1.0039986
v 35.9895460 10.8600767 -1.0021190
v 35.9930403 10.8939194 -1.0002395
v 35.9942000 10.9283889 -0.9989864
v 35.9942000 11.0029682 -1.9951535
v 35.8820614 10.6889830 -2.0264795
v 35.9026916 10.7159318 -2.0233469
v 35.9214145 10.7441341 -2.0208408
v 35.9381384 10.7735898 -2.0177082
v 35.9528023 10.8042989 -2.0145756
v 35.9653299 10.8362615 -2.0114430
v 35.9756603 10.8682240 -2.0083104
v 35.9837476 10.9014400 -2.0051778
v 35.9895460 10.9352828 -2.0014187
v 35.9930403 10.9684988 -1.9982861
v 35.8820614 10.8149531 -3.0332975
v 35.9026916 10.8419019 -3.0289118
v 35.9214145 10.8701042 -3.0251527
v 35.9381384 10.8995599 -3.0207670
v 35.9528023 10.9302690 -3.0157549
v 35.9653299 10.9616049 -3.0113692
v 35.9756603 10.9935674 -3.0063571
v 35.9837476 11.0261567 -3.0013449
v 35.9895460 11.0593727 -2.9963328
v 35.9930403 11.0932154 -2.9913206
v 35.9942000 11.1270582 -2.9863084
v 35.9942000 11.3006588 -3.9699451
v 35.8397047 11.0313203 -4.4595192
v 35.4951205 10.5185827 -2.7403532
v 35.8820614 10.9910606 -4.0325971
v 35.9026916 11.0180094 -4.0269585
v 35.9381384 11.0750406 -4.0156811
v 35.9528023 11.1051231 -4.0094159
v 35.9653299 11.1364589 -4.0031507
v 35.9756603 11.1684215 -3.9968855
v 35.9837476 11.2010108 -3.9899938
v 35.9895460 11.2336001 -3.9837286
v 35.9930403 11.2668161 -3.9768368
v 35.8820614 11.2166787 -5.0218725
v 35.9026916 11.2436275 -5.0149808
v 35.9218179 11.1471031 -4.5077119
v 35.9381384 11.3000321 -5.0005708
v 35.9528023 11.3294878 -4.9930526
v 35.9653299 11.3601969 -4.9855343
v 35.9756603 11.3921595 -4.9773896
v 35.9837476 11.4241220 -4.9692448
v 35.9895460 11.4567113 -4.9611000
v 35.9930403 11.4899273 -4.9523288
v 35.0875525 11.5429511 -7.3335453
v 35.8354757 11.4441770 -6.0136539
v 35.8596154 11.4673655 -6.0061357
v 35.8820614 11.4918075 -5.9986175
v 35.9026916 11.5175029 -5.9904727
v 35.9214145 11.5450784 -5.9823279
v 35.9381384 11.5732807 -5.9735567
v 35.9528023 11.6027364 -5.9641589
v 35.9653299 11.6334455 -5.9547611
v 35.9756603 11.6641546 -5.9453632
v 35.9837476 11.6961172 -5.9359654
v 35.9895460 11.7280798 -5.9259411
v 35.9930403 11.7606691 -5.9159168
v 35.9941996 11.6461275 -5.4206304
v 35.9942000 12.1116306 -6.8525645
v 35.7559402 11.1803712 -5.4206868
v 35.8354757 11.7681897 -6.9778685
v 35.8596154 11.7907515 -6.9690972
v 35.8820614 11.8151934 -6.9603259
v 35.9026916 11.8402621 -6.9515547
v 35.9381384 11.8954132 -6.9315060
v 35.9528023 11.9242422 -6.9208552
v 35.9653299 11.9543246 -6.9102043
v 35.9756603 11.9850338 -6.8989270
v 35.9837476 12.0157429 -6.8876496
v 35.9895460 12.0477055 -6.8757457
v 35.9930403 12.0796680 -6.8644684
v 35.8596154 12.1617680 -7.9151427
v 35.8820614 12.1855832 -7.9051184
v 35.9026916 12.2106519 -7.8944675
v 35.9210451 12.0422714 -7.4170451
v 35.9381384 12.2645496 -7.8719128
v 35.9528023 12.2927518 -7.8600089
v 35.9653299 12.3222075 -7.8474785
v 35.9756603 12.3522899 -7.8349481
v 35.9837476 12.3829991 -7.8224177
v 35.9895460 12.4137082 -7.8092608
v 35.9930403 12.4450441 -7.7961039
v 35.9942000 12.4763799 -7.7829469
v 35.6330005 12.2914604 -8.6909755
v 35.8354757 12.5578531 -8.8517904
v 35.8596154 12.5797882 -8.8411395
v 35.8820614 12.6029767 -8.8298622
v 35.9214145 12.6531141 -8.8060544
v 35.9381384 12.6800629 -8.7928975
v 35.9528023 12.7076385 -8.7797405
v 35.9653299 12.7364675 -8.7659571
v 35.9756603 12.7659232 -8.7515471
v 35.9837476 12.7960056 -8.7371372
v 35.9895460 12.8260880 -8.7227272
v 35.9930403 12.8567971 -8.7083172
v 35.9942000 12.8875063 -8.6932808
v 35.8354757 13.0222504 -9.7571120
v 35.8596154 13.0435588 -9.7452081
v 35.8820614 13.0661206 -9.7333043
v 35.9047018 12.8477870 -9.2639669
v 35.9214145 13.1150046 -9.7063639
v 35.9381384 13.1413267 -9.6919539
v 35.9528023 13.1682755 -9.6775440
v 35.9653299 13.1958510 -9.6625075
v 35.9756603 13.2246800 -9.6468445
v 35.9837476 13.2535090 -9.6311815
v 35.9895460 13.2835914 -9.6148919
v 35.9930403 13.3130471 -9.5986024
v 35.9942000 13.3431295 -9.5823129
v 35.8596154 13.5511996 -10.6254690
v 35.8820614 13.5731347 -10.6116855
v 35.9026916 13.5963232 -10.5979021
v 35.9214145 13.6207652 -10.5828656
v 35.9381384 13.6464606 -10.5672026
v 35.9528023 13.6727827 -10.5515396
v 35.9653299 13.6997315 -10.5346236
v 35.9756603 13.7273071 -10.5177075
v 35.9837476 13.7561361 -10.5001650
v 35.9895460 13.7843383 -10.4826224
v 35.9930403 13.8137940 -10.4650798
v 35.9942000 13.8426230 -10.4475373
v 35.9942000 14.3847332 -11.2864478
v 35.8354757 14.0826556 -11.4925729
v 35.8427142 13.7624681 -11.0048302
v 35.8820614 14.1240190 -11.4643795
v 35.9026916 14.1465808 -11.4493430
v 35.9214145 14.1697693 -11.4330535
v 35.9381384 14.1948380 -11.4161375
v 35.9528023 14.2199067 -11.3985949
v 35.9653299 14.2462288 -11.3810523
v 35.9756603 14.2731776 -11.3628832
v 35.9837476 14.3007532 -11.3440876
v 35.9895460 14.3283287 -11.3246655
v 35.9930403 14.3565310 -11.3058699
v 35.8354757 14.6767834 -12.3183265
v 35.8596154 14.6955849 -12.3039166
v 35.8820614 14.7162665 -12.2882536
v 35.9026916 14.7382016 -12.2719640
v 35.9214145 14.7607635 -12.2544215
v 35.9381384 14.7845787 -12.2368789
v 35.9528023 14.8090207 -12.2180833
v 35.9653299 14.8340893 -12.1986612
v 35.9756603 14.8604115 -12.1792390
v 35.9837476 14.8867336 -12.1591904
v 35.9895460 14.9136824 -12.1391417
v 35.9930403 14.9406312 -12.1184666
v 35.9942000 14.9675801 -12.0977914
v 35.6425039 15.5311925 -13.5790149
v 35.8354757 15.3110210 -13.1140071
v 35.8596154 15.3291958 -13.0983441
v 35.8820614 15.3492507 -13.0814281
v 35.9026916 15.3699324 -13.0638855
v 35.9214145 15.3918675 -13.0457164
v 35.9381384 15.4144293 -13.0269208
v 35.9528023 15.4382446 -13.0068722
v 35.9653299 15.4626865 -12.9861970
v 35.9756603 15.4871285 -12.9655219
v 35.9837476 15.5128239 -12.9442202
v 35.9895460 15.5385193 -12.9222920
v 35.9930403 15.5648414 -12.9009903
v 35.9942000 15.5905368 -12.8790621
v 35.9942000 16.2517232 -13.6277537
v 35.7242374 15.9264571 -13.9297364
v 35.7539925 15.9383647 -13.9184591
v 35.7825421 15.9521525 -13.9059287
v 35.8133978 15.6216871 -13.5109851
v 35.8354757 15.9841151 -13.8764822
v 35.8596154 16.0016632 -13.8601927
v 35.8820614 16.0204647 -13.8426501
v 35.9026916 16.0405196 -13.8238545
v 35.9214145 16.0612013 -13.8044324
v 35.9381384 16.0831364 -13.7843837
v 35.9528023 16.1056982 -13.7630821
v 35.9653299 16.1288867 -13.7417804
v 35.9756603 16.1527020 -13.7198522
v 35.9837476 16.1771439 -13.6972974
v 35.9895460 16.2015859 -13.6741162
v 35.9930403 16.2266546 -13.6509349
v 35.9942000 16.9492593 -14.3432397
v 35.6933989 16.6290069 -14.6715363
v 35.7242374 16.6390344 -14.6608855
v 35.7539925 16.6509420 -14.6489816
v 35.7825421 16.6641030 -14.6351981
v 35.8097489 16.6785175 -14.6207882
v 35.8354757 16.6941855 -14.6044987
v 35.8596154 16.7111068 -14.5875826
v 35.8820614 16.7292816 -14.5687870
v 35.9026916 16.7480831 -14.5493649
v 35.9214145 16.7681381 -14.5286897
v 35.9381384 16.7888197 -14.5073880
v 35.9528023 16.8101281 -14.4854598
v 35.9653299 16.8326899 -14.4629051
v 35.9756603 16.8552517 -14.4397238
v 35.9837476 16.8784403 -14.4159161
v 35.9895460 16.9016288 -14.3914818
v 35.9930403 16.9254440 -14.3676740
v 35.7242374 17.3879612 -15.3556964
v 35.7539925 17.3992421 -15.3425394
v 35.7825421 17.4111497 -15.3287560
v 35.8097489 17.4249375 -15.3130930
v 35.8354757 17.4399787 -15.2968035
v 35.8596154 17.4556466 -15.2786344
v 35.8820614 17.4725680 -15.2592122
v 35.9026916 17.4907428 -15.2385371
v 35.9214145 17.5095443 -15.2172354
v 35.9381384 17.5295993 -15.1953072
v 35.9528023 17.5496542 -15.1721259
v 35.9653299 17.5709626 -15.1483182
v 35.9756603 17.5922710 -15.1238839
v 35.9837476 17.6142060 -15.0988231
v 35.9895460 17.6367679 -15.0737623
v 35.9930403 17.6593297 -15.0480749
v 35.9942000 17.6818915 -15.0223876
v 35.9942000 18.4471130 -15.6645708
v 35.6071853 17.5788460 -15.6059518
v 35.7825421 18.1920391 -15.9840961
v 35.8097489 18.2052002 -15.9678066
v 35.8354757 18.2189880 -15.9502640
v 35.8596154 18.2340292 -15.9314684
v 35.8820614 18.2503238 -15.9114198
v 35.9026916 18.2672452 -15.8901181
v 35.9214145 18.2847933 -15.8675633
v 35.9381384 18.3035948 -15.8443821
v 35.9528023 18.3230230 -15.8205743
v 35.9653299 18.3424512 -15.7955135
v 35.9756603 18.3631329 -15.7704527
v 35.9837476 18.3838146 -15.7441389
v 35.9895460 18.4044962 -15.7178250
v 35.9930403 18.4258046 -15.6915112
v 35.1887628 20.3008683 -17.7771025
v 35.8097489 19.0167987 -16.5830494
v 35.8354757 19.0299598 -16.5648803
v 35.8596154 19.0443743 -16.5448317
v 35.8820614 19.0587888 -16.5241565
v 35.9026916 19.0750834 -16.5022283
v 35.9214145 19.0913781 -16.4790470
v 35.9381384 19.1089261 -16.4546127
v 35.9528023 19.1271009 -16.4295519
v 35.9653299 19.1452757 -16.4038646
v 35.9756603 19.1647040 -16.3775508
v 35.9837476 19.1841322 -16.3506104
v 35.9895460 19.2035604 -16.3230435
v 35.9930403 19.2236154 -16.2954766
v 35.9942000 19.2430436 -16.2679097
v 35.8354757 19.8703873 -17.1375197
v 35.8596154 19.8835484 -17.1174711
v 35.8820614 19.8973362 -17.0955429
v 35.9026916 19.9123774 -17.0729882
v 35.9214145 19.9280453 -17.0491804
v 35.9381384 19.9437132 -17.0241196
v 35.9528023 19.9606346 -16.9978057
v 35.9653299 19.9781827 -16.9714919
v 35.9756603 19.9957307 -16.9439250
v 35.9837476 20.0132788 -16.9163581
v 35.9895460 20.0320803 -16.8881647
v 35.9930403 20.0502551 -16.8593448
v 35.9942000 20.0684299 -16.8305249
v 35.8596154 20.7502980 -17.6468807
v 35.8820614 20.7634591 -17.6249524
v 35.9026916 20.7772469 -17.6011447
v 35.9214145 20.7910346 -17.5767104
v 35.9381384 20.8060758 -17.5510231
v 35.9528023 20.8217438 -17.5240827
v 35.9653299 20.8374117 -17.4965158
v 35.9756603 20.8537063 -17.4683224
v 35.9837476 20.8700010 -17.4395025
v 35.9895460 20.8869223 -17.4106825
v 35.9930403 20.9038437 -17.3812361
v 35.9942000 20.9213918 -17.3517896
v 35.8820614 21.6546507 -18.1098791
v 35.9026916 21.6671850 -18.0860713
v 35.9214145 21.6797194 -18.0603840
v 35.9381384 21.6935071 -18.0340701
v 35.9528023 21.7079216 -18.0065032
v 35.9653299 21.7223361 -17.9783098
v 35.9756603 21.7367506 -17.9494899
v 35.9837476 21.7524185 -17.9200435
v 35.9895460 21.7674597 -17.8899705
v 35.9930403 21.7831277 -17.8598975
v 35.9026916 22.5803117 -18.5258885
v 35.9214145 22.5915926 -18.4995746
v 35.9381384 22.6041270 -18.4726342
v 35.9528023 22.6166613 -18.4444408
v 35.9653299 22.6298224 -18.4156209
v 35.9756603 22.6429834 -18.3855479
v 35.9837476 22.6567712 -18.3554750
v 35.9895460 22.6705590 -18.3247755
v 35.9930403 22.6843468 -18.2940760
v 35.9942004 22.6942200 -18.2742430
v 35.7180380 22.2563181 -18.6107368
v 35.9026916 23.5141201 -18.9193431
v 35.9381384 23.5354285 -18.8648359
v 35.9528023 23.5467094 -18.8360160
v 35.9653299 23.5579903 -18.8065695
v 35.9837476 23.5818055 -18.7457970
v 35.9895460 23.5943399 -18.7144710
v 35.9930403 23.6068742 -18.6825185
v 35.9942000 24.5582306 -18.9926460
v 35.6003535 25.5027639 -19.8710806
v 35.9227167 24.0033101 -19.0753334
v 35.9381384 24.4849048 -19.2106750
v 35.9528023 24.4943055 -19.1812286
v 35.9653299 24.5043330 -19.1511556
v 35.9757976 24.0376169 -18.9569013
v 35.9837476 24.5256414 -19.0891301
v 35.9895460 24.5362956 -19.0571776
v 35.9930403 24.5469497 -19.0245985
v 35.9942000 25.5127207 -19.2871105
v 35.9381384 25.4500490 -19.5082721
v 35.9528023 25.4588230 -19.4788257
v 35.9653299 25.4669703 -19.4481262
v 35.9756603 25.4763711 -19.4168002
v 35.9837476 25.4851451 -19.3848476
v 35.9895460 25.4939192 -19.3522686
v 35.9930403 25.5033199 -19.3196895
v 35.9214145 26.4227138 -19.7870736
v 35.9381384 26.4296077 -19.7576271
v 35.9653299 26.4433954 -19.6968547
v 35.9756603 26.4509161 -19.6649022
v 35.9895460 26.4653305 -19.5997441
v 35.9930403 26.4728511 -19.5665385
v 35.9942000 26.4809985 -19.5333329
v 35.9942000 27.4599305 -19.7313133
v 35.2755226 27.6666233 -20.4067719
v 35.9214145 27.4148068 -19.9875600
v 35.9381384 27.4198206 -19.9581136
v 35.9533076 26.9271960 -19.8357390
v 35.9653299 27.4311015 -19.8960881
v 35.9756603 27.4367419 -19.8641356
v 35.9839083 26.9370104 -19.7390576
v 35.9895460 27.4480228 -19.7983509
v 35.9930403 27.4542900 -19.7651454
v 35.9102681 28.9533721 -20.2237575
v 35.9381384 28.4194342 -20.1084784
v 35.9528023 28.4231945 -20.0777790
v 35.9756603 28.4313418 -20.0145004
v 35.9837476 28.4351021 -19.9812948
v 35.9895460 28.4394892 -19.9480893
v 35.9930403 28.4438762 -19.9142572
v 35.9942000 28.4476365 -19.8804251
v 35.9942000 29.4416097 -19.9800418
v 35.9381384 29.4246883 -20.2093482
v 35.9528023 29.4271952 -20.1786487
v 35.9662049 28.9216286 -20.1035805
v 35.9756603 29.4315822 -20.1141171
v 35.9837476 29.4340891 -20.0815381
v 35.9895460 29.4365959 -20.0477060
v 35.9942000 30.4393432 -20.0295369
v 35.7971099 31.0563316 -20.5238820
v 35.9528023 30.4349562 -20.2287703
v 35.9653299 30.4355829 -20.1968178
v 35.9756603 30.4362096 -20.1642387
v 35.9837476 30.4368363 -20.1316597
v 35.9895460 30.4380897 -20.0978276
v 35.9930392 29.9417962 -20.0490923
v 35.9653299 31.4427171 -20.1968178
v 35.9756603 31.4420904 -20.1642387
v 35.9837476 31.4414637 -20.1316597
v 35.9895460 31.4402103 -20.0978276
v 35.9930403 31.4395835 -20.0639955
v 35.9942000 31.4389568 -20.0295369
v 35.9756603 32.4467178 -20.1141171
v 35.9837476 32.4442109 -20.0815381
v 35.9895460 32.4417041 -20.0477060
v 35.9930403 32.4391972 -20.0138739
v 35.9942000 32.4366903 -19.9800418
v 35.9942000 33.4306635 -19.8804251
v 35.9653299 33.4513452 -20.0464529
v 35.9756603 33.4469582 -20.0145004
v 35.9837476 33.4431979 -19.9812948
v 35.9895460 33.4388108 -19.9480893
v 35.9930403 33.4344238 -19.9142572
v 35.8482336 35.6684420 -19.9246269
v 35.9756603 34.4415581 -19.8641356
v 35.9837476 34.4359176 -19.8315565
v 35.9895460 34.4302772 -19.7983509
v 35.9930403 34.4240100 -19.7651454
v 35.9942000 34.4183695 -19.7313133
v 35.0595018 34.5681019 -20.3782368
v 35.9837476 35.4204901 -19.6329496
v 35.9895460 35.4129695 -19.5997441
v 35.9930403 35.4054489 -19.5665385
v 35.9942000 35.3973015 -19.5333329
v 35.9942000 36.3655793 -19.2871105
v 35.9895460 36.3843808 -19.3522686
v 35.9930403 36.3749801 -19.3196895
v 35.8633911 38.7341519 -18.9283156
v 35.9930403 37.3313503 -19.0245985
v 35.9942000 37.3200694 -18.9926460
v 35.9930403 38.2714258 -18.6825185
v 35.9942000 38.2588915 -18.6505660
v 35.9942000 39.1795388 -18.2627500
v 35.9942000 40.0795044 -17.8291980
v 35.6044994 42.3143500 -17.2007075
v 35.9723265 40.5268776 -17.7792596
v 35.9756603 41.0245937 -17.4683224
v 35.9837476 41.0082990 -17.4395025
v 35.9895460 40.9913777 -17.4106825
v 35.9930406 40.5443161 -17.6267677
v 35.9942000 40.9569082 -17.3517896
v 35.9756603 41.8825693 -16.9439250
v 35.9837476 41.8650212 -16.9163581
v 35.9895460 41.8462197 -16.8881647
v 35.9930403 41.8280449 -16.8593448
v 35.9942000 41.8098701 -16.8305249
v 35.9756603 42.7135960 -16.3775508
v 35.9837476 42.6941678 -16.3506104
v 35.9895460 42.6747396 -16.3230435
v 35.9930403 42.6546846 -16.2954766
v 35.9942000 42.6352564 -16.2679097
v 35.9942000 43.4311870 -15.6645708
v 35.9653299 43.5358488 -15.7955135
v 35.9756603 43.5151671 -15.7704527
v 35.9837476 43.4944854 -15.7441389
v 35.9895460 43.4738038 -15.7178250
v 35.9930403 43.4524954 -15.6915112
v 35.9942000 44.1964085 -15.0223876
v 35.9653299 44.3073374 -15.1483182
v 35.9756603 44.2860290 -15.1238839
v 35.9837476 44.2640940 -15.0988231
v 35.9895460 44.2415321 -15.0737623
v 35.9942000 44.9290407 -14.3432397
v 35.9528023 45.0681719 -14.4854598
v 35.9653299 45.0456101 -14.4629051
v 35.9756603 45.0230483 -14.4397238
v 35.9837476 44.9998597 -14.4159161
v 35.9895460 44.9766712 -14.3914818
v 35.9930360 44.6022988 -14.7064417
v 35.9381384 45.7951636 -13.7843837
v 35.9445875 45.3723857 -14.2153795
v 35.9653299 45.7494133 -13.7417804
v 35.9756603 45.7255980 -13.7198522
v 35.9837476 45.7011561 -13.6972974
v 35.9895460 45.6767141 -13.6741162
v 35.9930403 45.6516454 -13.6509349
v 35.9942000 45.6265768 -13.6277537
v 35.9942000 46.2877632 -12.8790621
v 35.8090066 45.5849626 -14.3846989
v 35.9381384 46.4638707 -13.0269208
v 35.9528023 46.4400554 -13.0068722
v 35.9653299 46.4156135 -12.9861970
v 35.9756603 46.3911715 -12.9655219
v 35.9837476 46.3654761 -12.9442202
v 35.9895460 46.3397807 -12.9222920
v 35.9930422 46.6346034 -12.5143588
v 35.9528023 47.0692793 -12.2180833
v 35.9653299 47.0442107 -12.1986612
v 35.9756603 47.0178885 -12.1792390
v 35.9837476 46.9915664 -12.1591904
v 35.9895460 46.9646176 -12.1391417
v 35.9299742 47.4387978 -11.8063370
v 35.9653299 47.6320712 -11.3810523
v 35.9756603 47.6051224 -11.3628832
v 35.9837476 47.5775468 -11.3440876
v 35.9895460 47.5499713 -11.3246655
v 35.9930403 47.5217690 -11.3058699
v 35.9941994 47.1546760 -11.7782502
v 35.9942000 48.0356770 -10.4475373
v 35.5666633 48.4752891 -10.8577057
v 35.9528023 48.2055173 -10.5515396
v 35.9653299 48.1785685 -10.5346236
v 35.9756603 48.1509929 -10.5177075
v 35.9837476 48.1221639 -10.5001650
v 35.9895460 48.0939617 -10.4826224
v 35.9930403 48.0645060 -10.4650798
v 35.9528023 48.7100245 -9.6775440
v 35.9653299 48.6824490 -9.6625075
v 35.9756603 48.6536200 -9.6468445
v 35.9837476 48.6247910 -9.6311815
v 35.9895460 48.5947086 -9.6148919
v 35.9930403 48.5652529 -9.5986024
v 35.9942000 48.5351705 -9.5823129
v 35.9942000 48.9907937 -8.6932808
v 35.9653299 49.1418325 -8.7659571
v 35.9756603 49.1123768 -8.7515471
v 35.9837476 49.0822944 -8.7371372
v 35.9895460 49.0522120 -8.7227272
v 35.9942000 49.4019201 -7.7829469
v 35.6381238 50.2898081 -7.0677635
v 35.9653299 49.5560925 -7.8474785
v 35.9756603 49.5260101 -7.8349481
v 35.9837476 49.4953009 -7.8224177
v 35.9895460 49.4645918 -7.8092608
v 35.9930441 49.2385228 -8.2516693
v 35.9756603 49.8932662 -6.8989270
v 35.9837476 49.8625571 -6.8876496
v 35.9895460 49.8305945 -6.8757457
v 35.9930403 49.7986320 -6.8644684
v 35.9942000 49.7666694 -6.8525645
v 35.9942000 50.0850416 -5.9058925
v 35.9756603 50.2141454 -5.9453632
v 35.9837476 50.1821828 -5.9359654
v 35.9895460 50.1502202 -5.9259411
v 35.9930403 50.1176309 -5.9159168
v 35.9756603 50.4861405 -4.9773896
v 35.9837476 50.4541780 -4.9692448
v 35.9895460 50.4215887 -4.9611000
v 35.9930403 50.3883727 -4.9523288
v 35.9942015 50.4724566 -4.4757800
v 35.5794207 51.2576861 -3.5346720
v 35.9756603 50.7098785 -3.9968855
v 35.9837476 50.6772892 -3.9899938
v 35.9895460 50.6446999 -3.9837286
v 35.9930403 50.6114839 -3.9768368
v 35.9942000 50.7512418 -2.9863084
v 35.9756603 50.8847326 -3.0063571
v 35.9837476 50.8521433 -3.0013449
v 35.9895460 50.8189273 -2.9963328
v 35.9930403 50.7850846 -2.9913206
v 35.8716933 51.2643927 -1.7046468
v 35.9756603 51.0100760 -2.0083104
v 35.9837476 50.9768600 -2.0051778
v 35.9895460 50.9430172 -2.0014187
v 35.9930403 50.9098012 -1.9982861
v 35.9653299 51.1172446 -1.0071312
v 35.9756603 51.0846553 -1.0052516
v 35.9837476 51.0520660 -1.0039986
v 35.9895460 51.0182233 -1.0021190
v 35.9930403 50.9843806 -1.0002395
v 35.9942007 50.9224192 -1.4986241
f 6 1 17
f 1 2 101
f 149 247 212
f 247 3 258
f 595 671 609
f 5 876 861
f 936 876 945
f 1025 1040 1033
f 1040 1105 1084
f 8 9 7
f 8 7 6
f 10 11 9
f 10 9 8
f 12 11 10
f 12 13 11
f 14 13 12
f 14 16 15
f 18 6 17
f 19 6 18
f 19 8 6
f 20 10 8
f 20 8 19
f 21 10 20
f 21 12 10
f 22 14 12
f 22 28 16
f 22 16 14
f 22 12 21
f 23 18 17
f 24 19 18
f 25 19 24
f 25 20 19
f 26 20 25
f 26 21 20
f 27 28 22
f 27 22 21
f 27 29 28
f 27 21 26
f 30 23 17
f 31 24 18
f 31 18 23
f 31 23 30
f 32 24 31
f 32 25 24
f 33 25 32
f 34 26 25
f 34 27 26
f 34 25 33
f 35 27 34
f 35 29 27
f 1 36 17
f 37 30 17
f 38 31 30
f 38 30 37
f 39 32 31
f 39 31 38
f 40 33 32
f 40 32 39
f 41 33 40
f 41 34 33
f 42 34 41
f 42 35 34
f 42 43 29
f 42 29 35
f 44 36 53
f 44 37 17
f 44 17 36
f 45 37 44
f 46 38 37
f 46 37 45
f 46 39 38
f 47 39 46
f 48 40 39
f 48 39 47
f 49 41 40
f 49 42 41
f 49 40 48
f 50 43 42
f 50 42 49
f 50 51 43
f 53 36 52
f 54 44 53
f 55 44 54
f 55 45 44
f 56 46 45
f 56 45 55
f 57 46 56
f 57 47 46
f 58 48 47
f 58 47 57
f 59 48 58
f 59 49 48
f 60 49 59
f 60 61 51
f 60 50 49
f 60 51 50
f 62 53 52
f 62 54 53
f 63 54 62
f 63 55 54
f 64 55 63
f 65 56 55
f 65 57 56
f 65 55 64
f 66 57 65
f 66 58 57
f 67 58 66
f 68 58 67
f 68 59 58
f 69 59 68
f 69 60 59
f 69 61 60
f 69 70 61
f 69 71 70
f 72 36 1
f 72 52 36
f 73 52 72
f 73 62 52
f 74 63 62
f 74 62 73
f 75 63 74
f 75 64 63
f 76 64 75
f 76 65 64
f 77 65 76
f 77 66 65
f 78 66 77
f 78 67 66
f 79 67 78
f 79 68 67
f 80 68 79
f 80 69 68
f 80 71 69
f 81 73 72
f 81 74 73
f 82 74 81
f 82 75 74
f 83 76 75
f 83 75 82
f 84 76 83
f 84 77 76
f 85 77 84
f 85 78 77
f 86 78 85
f 86 79 78
f 87 79 86
f 87 80 79
f 87 71 80
f 87 88 71
f 72 82 81
f 89 83 82
f 89 84 83
f 89 82 72
f 90 84 89
f 91 85 84
f 91 84 90
f 92 86 85
f 92 85 91
f 93 86 92
f 93 87 86
f 93 88 87
f 93 94 88
f 72 1 101
f 95 89 72
f 95 90 89
f 96 90 95
f 97 91 90
f 97 90 96
f 98 92 91
f 98 91 97
f 99 94 93
f 99 93 92
f 99 92 98
f 99 100 94
f 101 95 72
f 102 95 101
f 102 96 95
f 103 97 96
f 103 96 102
f 103 98 97
f 104 98 103
f 104 99 98
f 105 99 104
f 105 100 99
f 105 106 100
f 108 101 107
f 109 101 108
f 110 102 101
f 110 101 109
f 111 103 102
f 111 102 110
f 112 103 111
f 112 104 103
f 113 105 104
f 113 106 105
f 113 104 112
f 113 121 106
f 114 107 101
f 115 107 114
f 115 108 107
f 116 109 108
f 116 108 115
f 117 109 116
f 117 110 109
f 118 110 117
f 118 111 110
f 119 112 111
f 119 111 118
f 120 113 112
f 120 121 113
f 120 112 119
f 120 122 121
f 123 114 101
f 124 114 123
f 125 114 124
f 125 115 114
f 125 116 115
f 126 116 125
f 126 117 116
f 127 117 126
f 128 118 117
f 128 117 127
f 129 118 128
f 129 119 118
f 129 120 119
f 137 120 129
f 137 122 120
f 2 123 101
f 130 123 2
f 131 124 123
f 131 123 130
f 132 125 124
f 132 126 125
f 132 124 131
f 133 127 126
f 133 126 132
f 134 127 133
f 135 127 134
f 135 128 127
f 136 128 135
f 136 129 128
f 137 129 136
f 137 138 122
f 139 2 149
f 139 130 2
f 140 130 139
f 141 131 130
f 141 130 140
f 142 131 141
f 142 132 131
f 142 133 132
f 143 133 142
f 144 134 133
f 144 133 143
f 145 134 144
f 145 135 134
f 145 136 135
f 146 136 145
f 147 136 146
f 147 148 138
f 147 137 136
f 147 138 137
f 150 139 149
f 151 139 150
f 151 140 139
f 152 141 140
f 152 140 151
f 153 141 152
f 153 142 141
f 154 142 153
f 154 143 142
f 155 143 154
f 155 144 143
f 156 144 155
f 156 145 144
f 157 145 156
f 157 146 145
f 158 146 157
f 158 147 146
f 158 148 147
f 158 159 148
f 161 150 149
f 161 149 160
f 162 151 150
f 162 150 161
f 163 151 162
f 164 152 151
f 164 151 163
f 165 153 152
f 165 152 164
f 166 154 153
f 166 153 165
f 167 155 154
f 167 154 166
f 168 156 155
f 168 155 167
f 169 157 156
f 169 156 168
f 170 158 157
f 170 159 158
f 170 157 169
f 170 171 159
f 172 160 185
f 173 160 172
f 174 160 173
f 174 161 160
f 175 162 161
f 175 161 174
f 176 162 175
f 176 163 162
f 177 164 163
f 177 163 176
f 178 164 177
f 178 165 164
f 179 165 178
f 179 166 165
f 180 167 166
f 180 166 179
f 181 167 180
f 181 168 167
f 182 169 168
f 182 168 181
f 183 169 182
f 183 184 171
f 183 170 169
f 183 171 170
f 212 160 149
f 185 160 212
f 186 172 185
f 187 173 172
f 187 172 186
f 188 174 173
f 188 173 187
f 189 175 174
f 189 174 188
f 190 175 189
f 190 176 175
f 191 177 176
f 191 176 190
f 192 177 191
f 192 178 177
f 192 179 178
f 205 179 192
f 193 179 205
f 193 180 179
f 194 180 193
f 194 181 180
f 195 181 194
f 195 182 181
f 196 182 195
f 196 183 182
f 196 184 183
f 196 197 184
f 198 185 212
f 198 186 185
f 199 187 186
f 199 186 198
f 200 189 188
f 200 187 199
f 200 188 187
f 201 189 200
f 202 190 189
f 202 189 201
f 203 191 190
f 203 190 202
f 204 192 191
f 204 191 203
f 205 192 204
f 206 193 205
f 207 194 193
f 207 193 206
f 208 195 194
f 208 194 207
f 209 196 195
f 209 197 196
f 209 195 208
f 209 210 197
f 209 211 210
f 247 198 212
f 213 198 247
f 213 199 198
f 214 200 199
f 214 199 213
f 215 200 214
f 215 201 200
f 215 202 201
f 216 202 215
f 217 202 216
f 217 204 203
f 217 203 202
f 218 204 217
f 219 204 218
f 219 205 204
f 219 206 205
f 220 206 219
f 221 207 206
f 221 206 220
f 222 207 221
f 222 208 207
f 222 209 208
f 223 209 222
f 223 211 209
f 224 213 247
f 224 214 213
f 225 214 224
f 226 215 214
f 226 214 225
f 227 215 226
f 227 216 215
f 228 217 216
f 228 218 217
f 228 216 227
f 229 218 228
f 230 218 229
f 230 219 218
f 231 219 230
f 231 220 219
f 232 220 231
f 232 221 220
f 233 221 232
f 233 222 221
f 234 222 233
f 234 223 222
f 234 211 223
f 234 235 211
f 234 236 235
f 237 224 247
f 237 225 224
f 237 226 225
f 238 226 237
f 239 227 226
f 239 226 238
f 240 227 239
f 240 228 227
f 241 229 228
f 241 228 240
f 242 230 229
f 242 229 241
f 243 231 230
f 243 230 242
f 244 232 231
f 244 231 243
f 245 233 232
f 245 232 244
f 246 236 234
f 246 234 233
f 246 233 245
f 258 237 247
f 248 237 258
f 248 238 237
f 249 238 248
f 249 239 238
f 250 240 239
f 250 239 249
f 250 241 240
f 251 241 250
f 252 241 251
f 252 242 241
f 252 243 242
f 253 243 252
f 254 243 253
f 254 244 243
f 254 245 244
f 255 245 254
f 256 236 246
f 256 245 255
f 256 246 245
f 256 257 236
f 259 249 248
f 259 248 258
f 260 250 249
f 260 249 259
f 261 251 250
f 261 250 260
f 262 252 251
f 262 251 261
f 263 253 252
f 263 252 262
f 264 253 263
f 264 254 253
f 265 254 264
f 265 255 254
f 266 255 265
f 266 257 256
f 266 256 255
f 266 279 257
f 268 258 267
f 269 258 268
f 270 258 269
f 270 259 258
f 285 259 270
f 271 259 285
f 271 260 259
f 272 261 260
f 272 260 271
f 273 261 272
f 273 262 261
f 274 263 262
f 274 262 273
f 275 264 263
f 275 263 274
f 276 264 275
f 276 265 264
f 277 278 279
f 277 266 265
f 277 279 266
f 277 265 276
f 281 267 258
f 281 258 280
f 282 267 281
f 282 268 267
f 283 270 269
f 283 268 282
f 283 269 268
f 284 270 283
f 284 285 270
f 286 271 285
f 287 271 286
f 287 272 271
f 288 272 287
f 288 273 272
f 288 274 273
f 289 274 288
f 290 274 289
f 290 275 274
f 291 275 290
f 291 276 275
f 292 276 291
f 292 278 277
f 292 277 276
f 280 258 3
f 293 281 280
f 294 281 293
f 294 282 281
f 295 282 294
f 295 283 282
f 296 283 295
f 296 284 283
f 297 285 284
f 297 286 285
f 297 284 296
f 298 287 286
f 298 286 297
f 299 287 298
f 300 288 287
f 300 287 299
f 301 289 288
f 301 288 300
f 302 290 289
f 302 289 301
f 303 291 290
f 303 290 302
f 304 305 278
f 304 291 303
f 304 278 292
f 304 292 291
f 306 280 3
f 307 280 306
f 308 280 307
f 309 280 308
f 309 293 280
f 326 293 309
f 310 293 326
f 310 294 293
f 311 296 295
f 311 294 310
f 311 295 294
f 312 296 311
f 312 297 296
f 329 297 312
f 313 297 329
f 313 298 297
f 314 298 313
f 314 299 298
f 315 300 299
f 315 301 300
f 315 299 314
f 316 301 315
f 317 302 301
f 317 301 316
f 317 303 302
f 318 303 317
f 319 320 305
f 319 305 304
f 319 304 303
f 319 303 318
f 321 306 3
f 322 307 306
f 322 308 307
f 322 306 321
f 323 308 322
f 324 308 323
f 324 309 308
f 325 309 324
f 325 326 309
f 326 311 310
f 327 311 326
f 328 311 327
f 328 312 311
f 329 312 328
f 330 313 329
f 330 314 313
f 331 314 330
f 332 314 331
f 332 315 314
f 332 316 315
f 333 316 332
f 333 317 316
f 334 317 333
f 335 317 334
f 335 318 317
f 336 337 320
f 336 318 335
f 336 320 319
f 336 319 318
f 338 321 3
f 339 321 338
f 340 322 321
f 340 323 322
f 340 321 339
f 341 324 323
f 342 324 341
f 342 325 324
f 343 326 325
f 343 327 326
f 343 325 342
f 344 327 343
f 344 328 327
f 345 328 344
f 346 328 345
f 346 329 328
f 346 330 329
f 347 331 330
f 347 330 346
f 348 331 347
f 349 332 331
f 349 333 332
f 349 331 348
f 350 334 333
f 350 333 349
f 351 334 350
f 352 334 351
f 352 335 334
f 353 354 337
f 353 335 352
f 353 337 336
f 353 336 335
f 356 3 355
f 356 338 3
f 357 339 338
f 357 338 356
f 377 339 357
f 358 339 377
f 358 340 339
f 359 340 358
f 359 323 340
f 359 341 323
f 360 341 359
f 361 342 341
f 361 341 360
f 362 343 342
f 362 342 361
f 363 344 343
f 363 343 362
f 363 345 344
f 364 345 363
f 365 345 364
f 365 346 345
f 366 346 365
f 366 347 346
f 367 347 366
f 367 348 347
f 368 348 367
f 368 349 348
f 369 350 349
f 369 349 368
f 370 351 350
f 370 350 369
f 371 352 351
f 371 351 370
f 372 352 371
f 372 373 354
f 372 353 352
f 372 354 353
f 375 356 355
f 375 355 374
f 376 357 356
f 376 377 357
f 376 356 375
f 378 359 358
f 378 358 377
f 379 359 378
f 379 360 359
f 380 360 379
f 381 361 360
f 381 360 380
f 382 361 381
f 382 362 361
f 382 363 362
f 383 363 382
f 384 364 363
f 384 363 383
f 385 364 384
f 385 365 364
f 385 366 365
f 386 366 385
f 386 367 366
f 387 367 386
f 388 367 387
f 388 368 367
f 388 369 368
f 389 369 388
f 389 370 369
f 390 370 389
f 390 371 370
f 391 371 390
f 392 373 372
f 392 393 373
f 392 371 391
f 392 372 371
f 355 3 453
f 394 374 355
f 395 374 394
f 396 374 395
f 396 375 374
f 396 376 375
f 397 376 396
f 398 376 397
f 398 377 376
f 398 378 377
f 399 378 398
f 400 380 379
f 400 378 399
f 400 379 378
f 401 380 400
f 402 381 380
f 402 380 401
f 403 382 381
f 403 381 402
f 404 383 382
f 404 384 383
f 404 382 403
f 405 384 404
f 406 385 384
f 406 384 405
f 407 386 385
f 407 385 406
f 408 387 386
f 408 386 407
f 409 388 387
f 409 387 408
f 410 389 388
f 410 388 409
f 411 390 389
f 411 389 410
f 412 391 390
f 412 390 411
f 413 414 393
f 413 392 391
f 413 393 392
f 413 391 412
f 453 394 355
f 415 395 394
f 415 394 453
f 416 395 415
f 416 396 395
f 417 396 416
f 417 397 396
f 418 397 417
f 418 398 397
f 418 399 398
f 419 399 418
f 419 400 399
f 420 400 419
f 421 400 420
f 421 401 400
f 422 401 421
f 422 402 401
f 423 404 403
f 423 402 422
f 423 403 402
f 424 404 423
f 425 404 424
f 425 405 404
f 426 406 405
f 426 405 425
f 426 407 406
f 427 407 426
f 427 408 407
f 428 408 427
f 429 408 428
f 429 409 408
f 430 409 429
f 430 410 409
f 430 411 410
f 431 411 430
f 432 412 411
f 432 411 431
f 433 414 413
f 433 413 412
f 433 434 414
f 433 412 432
f 435 416 415
f 435 415 453
f 435 417 416
f 454 417 435
f 436 418 417
f 436 417 454
f 437 419 418
f 437 418 436
f 438 420 419
f 438 421 420
f 438 419 437
f 439 421 438
f 440 421 439
f 440 422 421
f 441 423 422
f 441 422 440
f 442 423 441
f 442 424 423
f 443 425 424
f 443 424 442
f 444 426 425
f 444 425 443
f 445 427 426
f 445 426 444
f 446 427 445
f 446 428 427
f 447 428 446
f 447 429 428
f 447 430 429
f 448 430 447
f 449 430 448
f 449 431 430
f 450 431 449
f 450 432 431
f 451 452 434
f 451 432 450
f 451 434 433
f 451 433 432
f 454 435 453
f 455 454 453
f 455 436 454
f 455 437 436
f 456 437 455
f 456 438 437
f 457 439 438
f 457 438 456
f 458 439 457
f 459 439 458
f 459 440 439
f 460 442 441
f 460 441 440
f 460 440 459
f 461 442 460
f 462 443 442
f 462 442 461
f 463 444 443
f 463 445 444
f 463 443 462
f 464 446 445
f 464 445 463
f 465 446 464
f 466 447 446
f 466 446 465
f 467 449 448
f 467 448 447
f 467 447 466
f 468 449 467
f 469 450 449
f 469 449 468
f 470 471 452
f 470 452 451
f 470 451 450
f 470 450 469
f 472 455 453
f 473 455 472
f 473 456 455
f 474 457 456
f 474 456 473
f 475 457 474
f 475 458 457
f 476 458 475
f 476 459 458
f 477 459 476
f 477 460 459
f 478 460 477
f 478 461 460
f 479 461 478
f 479 462 461
f 480 462 479
f 480 463 462
f 481 463 480
f 481 464 463
f 482 464 481
f 482 465 464
f 483 465 482
f 483 466 465
f 484 466 483
f 484 467 466
f 485 467 484
f 485 468 467
f 486 468 485
f 486 469 468
f 487 470 469
f 487 488 471
f 487 471 470
f 487 469 486
f 489 472 453
f 489 453 4
f 472 474 473
f 490 475 474
f 490 474 472
f 491 475 490
f 492 475 491
f 492 476 475
f 493 477 476
f 493 476 492
f 493 478 477
f 494 479 478
f 494 478 493
f 495 479 494
f 496 480 479
f 496 481 480
f 496 479 495
f 497 481 496
f 497 482 481
f 498 482 497
f 499 483 482
f 499 484 483
f 499 482 498
f 500 484 499
f 500 485 484
f 501 485 500
f 502 485 501
f 502 486 485
f 503 504 488
f 503 486 502
f 503 487 486
f 503 488 487
f 489 490 472
f 489 491 490
f 489 492 491
f 489 493 492
f 489 494 493
f 505 495 494
f 505 494 489
f 506 496 495
f 506 495 505
f 506 497 496
f 507 498 497
f 507 497 506
f 508 498 507
f 509 499 498
f 509 498 508
f 510 499 509
f 510 501 500
f 510 500 499
f 511 501 510
f 512 501 511
f 512 502 501
f 513 514 504
f 513 504 503
f 513 503 502
f 513 502 512
f 4 505 489
f 515 505 4
f 515 506 505
f 516 506 515
f 516 507 506
f 517 507 516
f 517 508 507
f 518 510 509
f 518 508 517
f 518 509 508
f 519 510 518
f 520 510 519
f 520 511 510
f 521 511 520
f 521 512 511
f 522 523 514
f 522 514 513
f 522 512 521
f 522 513 512
f 524 516 515
f 524 515 4
f 525 516 524
f 525 517 516
f 535 517 525
f 526 517 535
f 526 518 517
f 527 518 526
f 527 519 518
f 528 519 527
f 528 520 519
f 529 520 528
f 529 521 520
f 530 531 523
f 530 521 529
f 530 523 522
f 530 522 521
f 532 524 4
f 533 524 532
f 534 525 524
f 534 524 533
f 535 525 534
f 536 526 535
f 536 527 526
f 537 527 536
f 538 528 527
f 538 527 537
f 539 529 528
f 539 528 538
f 540 541 531
f 540 531 530
f 540 530 529
f 540 529 539
f 542 532 4
f 543 532 542
f 543 533 532
f 543 534 533
f 544 534 543
f 545 534 544
f 545 536 535
f 545 535 534
f 546 536 545
f 546 537 536
f 547 537 546
f 548 537 547
f 548 538 537
f 548 539 538
f 549 539 548
f 550 551 541
f 550 539 549
f 550 541 540
f 550 540 539
f 552 542 4
f 553 542 552
f 553 543 542
f 554 544 543
f 554 543 553
f 555 544 554
f 555 545 544
f 555 546 545
f 556 546 555
f 557 546 556
f 557 547 546
f 558 547 557
f 558 548 547
f 558 549 548
f 559 549 558
f 560 561 551
f 560 549 559
f 560 551 550
f 560 550 549
f 562 553 552
f 563 554 553
f 563 553 562
f 564 555 554
f 564 554 563
f 565 556 555
f 565 557 556
f 565 555 564
f 566 557 565
f 567 557 566
f 567 558 557
f 568 559 558
f 568 558 567
f 569 570 561
f 569 561 560
f 569 560 559
f 569 559 568
f 552 4 573
f 552 563 562
f 552 564 563
f 552 565 564
f 552 566 565
f 552 567 566
f 552 568 567
f 574 568 552
f 571 572 570
f 571 568 574
f 571 570 569
f 571 569 568
f 573 574 552
f 574 575 572
f 574 572 571
f 575 574 573
f 573 578 576
f 573 576 575
f 578 573 577
f 581 578 577
f 581 579 578
f 581 582 579
f 581 577 580
f 584 580 583
f 585 580 584
f 582 580 585
f 582 581 580
f 577 583 580
f 587 583 577
f 588 583 587
f 588 584 583
f 588 585 584
f 589 585 588
f 586 585 589
f 586 582 585
f 591 587 577
f 591 577 596
f 592 588 587
f 592 589 588
f 592 587 591
f 593 589 592
f 590 589 593
f 590 586 589
f 595 596 577
f 597 591 596
f 597 592 591
f 597 593 592
f 598 593 597
f 599 600 594
f 599 593 598
f 599 590 593
f 599 594 590
f 602 596 601
f 603 596 602
f 604 596 603
f 605 597 596
f 605 596 604
f 606 598 597
f 606 597 605
f 607 608 600
f 607 600 599
f 607 599 598
f 607 598 606
f 610 596 609
f 610 601 596
f 611 601 610
f 612 601 611
f 612 602 601
f 612 603 602
f 620 603 612
f 613 603 620
f 613 604 603
f 614 605 604
f 614 606 605
f 614 604 613
f 615 606 614
f 616 607 606
f 616 617 608
f 616 606 615
f 616 608 607
f 609 596 595
f 618 610 609
f 618 611 610
f 619 612 611
f 619 611 618
f 619 620 612
f 621 613 620
f 622 613 621
f 622 614 613
f 623 614 622
f 623 615 614
f 624 617 616
f 624 625 617
f 624 615 623
f 624 616 615
f 626 609 637
f 627 609 626
f 628 618 609
f 628 609 627
f 629 619 618
f 629 618 628
f 630 619 629
f 630 620 619
f 630 621 620
f 631 621 630
f 632 622 621
f 632 621 631
f 633 623 622
f 633 622 632
f 634 623 633
f 634 635 625
f 634 625 624
f 634 624 623
f 636 637 609
f 638 626 637
f 638 627 626
f 639 627 638
f 639 628 627
f 640 629 628
f 640 628 639
f 641 630 629
f 641 629 640
f 642 630 641
f 642 631 630
f 643 631 642
f 643 632 631
f 644 633 632
f 644 632 643
f 645 635 634
f 645 646 635
f 645 647 646
f 645 633 644
f 645 634 633
f 671 636 609
f 648 636 671
f 649 638 637
f 649 637 636
f 649 636 648
f 650 638 649
f 651 639 638
f 651 638 650
f 652 639 651
f 652 640 639
f 653 640 652
f 653 642 641
f 653 641 640
f 654 642 653
f 655 642 654
f 655 643 642
f 656 643 655
f 656 644 643
f 657 644 656
f 657 647 645
f 657 645 644
f 658 648 671
f 659 649 648
f 659 648 658
f 660 650 649
f 660 651 650
f 660 649 659
f 661 652 651
f 661 651 660
f 662 652 661
f 663 652 662
f 663 653 652
f 664 653 663
f 664 655 654
f 664 654 653
f 665 655 664
f 666 656 655
f 666 655 665
f 667 656 666
f 667 657 656
f 667 647 657
f 667 668 647
f 667 669 668
f 672 658 671
f 673 658 672
f 673 659 658
f 673 660 659
f 683 660 673
f 674 660 683
f 674 661 660
f 675 661 674
f 675 662 661
f 676 663 662
f 676 662 675
f 677 663 676
f 677 664 663
f 678 664 677
f 678 665 664
f 679 665 678
f 679 666 665
f 680 669 667
f 680 666 679
f 680 667 666
f 691 706 671
f 706 670 671
f 670 672 671
f 681 672 670
f 682 672 681
f 682 673 672
f 682 683 673
f 684 674 683
f 684 675 674
f 685 675 684
f 686 675 685
f 686 677 676
f 686 676 675
f 687 678 677
f 687 677 686
f 688 678 687
f 688 679 678
f 689 679 688
f 690 679 689
f 690 704 669
f 690 669 680
f 690 680 679
f 693 670 706
f 693 681 670
f 693 706 692
f 694 681 693
f 695 682 681
f 695 681 694
f 696 683 682
f 696 684 683
f 696 682 695
f 697 685 684
f 697 684 696
f 698 685 697
f 699 686 685
f 699 685 698
f 700 687 686
f 700 688 687
f 700 686 699
f 701 688 700
f 702 688 701
f 702 689 688
f 703 690 689
f 703 705 704
f 703 704 690
f 703 689 702
f 707 692 706
f 708 693 692
f 708 692 707
f 709 694 693
f 709 693 708
f 710 694 709
f 710 695 694
f 710 696 695
f 721 696 710
f 711 696 721
f 711 697 696
f 711 698 697
f 712 698 711
f 713 698 712
f 713 699 698
f 714 699 713
f 714 700 699
f 715 700 714
f 715 701 700
f 716 701 715
f 716 702 701
f 717 702 716
f 717 705 703
f 717 703 702
f 730 706 691
f 730 707 706
f 718 708 707
f 718 707 730
f 719 709 708
f 719 708 718
f 720 710 709
f 720 709 719
f 721 710 720
f 722 711 721
f 723 711 722
f 723 712 711
f 724 712 723
f 724 713 712
f 725 713 724
f 725 714 713
f 726 714 725
f 726 715 714
f 727 715 726
f 727 716 715
f 728 716 727
f 728 729 705
f 728 705 717
f 728 717 716
f 732 730 731
f 732 718 730
f 732 719 718
f 733 720 719
f 733 719 732
f 746 720 733
f 734 721 720
f 734 722 721
f 734 720 746
f 735 723 722
f 735 722 734
f 736 723 735
f 737 724 723
f 737 725 724
f 737 723 736
f 738 726 725
f 738 725 737
f 739 726 738
f 740 727 726
f 740 726 739
f 741 728 727
f 741 742 729
f 741 729 728
f 741 727 740
f 743 731 730
f 744 732 731
f 744 731 743
f 745 732 744
f 745 733 732
f 746 733 745
f 747 734 746
f 748 734 747
f 748 735 734
f 749 736 735
f 749 735 748
f 750 736 749
f 750 737 736
f 751 737 750
f 751 738 737
f 752 738 751
f 752 739 738
f 753 739 752
f 753 740 739
f 754 742 741
f 754 755 742
f 754 740 753
f 754 741 740
f 730 691 5
f 770 743 730
f 770 730 5
f 756 744 743
f 756 743 770
f 757 745 744
f 757 744 756
f 758 746 745
f 758 747 746
f 758 745 757
f 759 747 758
f 760 748 747
f 760 747 759
f 761 749 748
f 761 748 760
f 762 749 761
f 762 750 749
f 762 751 750
f 763 751 762
f 764 751 763
f 764 752 751
f 765 752 764
f 765 753 752
f 766 753 765
f 766 767 755
f 766 768 767
f 766 754 753
f 766 755 754
f 769 770 5
f 771 756 770
f 771 757 756
f 772 757 771
f 772 758 757
f 773 759 758
f 773 758 772
f 774 759 773
f 774 760 759
f 775 761 760
f 775 760 774
f 776 761 775
f 776 762 761
f 777 763 762
f 777 762 776
f 778 764 763
f 778 763 777
f 779 764 778
f 779 765 764
f 780 768 766
f 780 766 765
f 780 765 779
f 781 769 5
f 782 769 781
f 782 770 769
f 782 771 770
f 783 771 782
f 784 771 783
f 784 772 771
f 784 773 772
f 785 773 784
f 786 773 785
f 786 774 773
f 786 775 774
f 787 775 786
f 788 775 787
f 788 776 775
f 788 777 776
f 789 777 788
f 789 778 777
f 790 778 789
f 791 778 790
f 791 779 778
f 792 793 768
f 792 779 791
f 792 768 780
f 792 780 779
f 812 5 794
f 795 781 5
f 795 5 812
f 796 782 781
f 796 781 795
f 797 783 782
f 797 782 796
f 798 784 783
f 798 783 797
f 799 785 784
f 799 784 798
f 800 786 785
f 800 785 799
f 801 787 786
f 801 786 800
f 802 787 801
f 802 788 787
f 803 788 802
f 803 789 788
f 804 789 803
f 804 790 789
f 805 790 804
f 805 791 790
f 806 791 805
f 806 807 793
f 806 808 807
f 806 793 792
f 806 792 791
f 810 794 809
f 811 794 810
f 812 794 811
f 813 795 812
f 814 795 813
f 814 796 795
f 815 796 814
f 815 797 796
f 816 797 815
f 816 798 797
f 816 799 798
f 817 799 816
f 818 800 799
f 818 801 800
f 818 799 817
f 819 801 818
f 820 802 801
f 820 801 819
f 821 803 802
f 821 802 820
f 822 804 803
f 822 803 821
f 823 805 804
f 823 804 822
f 824 808 806
f 824 806 805
f 824 805 823
f 824 825 808
f 861 794 5
f 826 794 861
f 826 809 794
f 827 810 809
f 827 809 826
f 828 810 827
f 828 811 810
f 829 811 828
f 830 811 829
f 830 813 812
f 830 812 811
f 831 813 830
f 832 813 831
f 832 814 813
f 832 815 814
f 833 815 832
f 834 816 815
f 834 817 816
f 834 815 833
f 835 817 834
f 836 817 835
f 836 818 817
f 836 819 818
f 837 819 836
f 838 819 837
f 838 820 819
f 839 820 838
f 839 821 820
f 839 822 821
f 840 822 839
f 841 822 840
f 841 823 822
f 842 823 841
f 842 824 823
f 842 825 824
f 843 827 826
f 843 826 861
f 844 828 827
f 844 827 843
f 845 829 828
f 845 828 844
f 846 830 829
f 846 829 845
f 847 831 830
f 847 830 846
f 848 832 831
f 848 831 847
f 849 833 832
f 849 832 848
f 850 834 833
f 850 833 849
f 851 835 834
f 851 834 850
f 852 836 835
f 852 835 851
f 853 837 836
f 853 836 852
f 854 838 837
f 854 837 853
f 855 839 838
f 855 838 854
f 856 839 855
f 856 840 839
f 857 840 856
f 857 841 840
f 858 841 857
f 858 842 841
f 858 825 842
f 858 859 825
f 858 860 859
f 861 844 843
f 862 845 844
f 862 844 861
f 863 846 845
f 863 845 862
f 864 846 863
f 864 847 846
f 865 847 864
f 865 848 847
f 866 848 865
f 866 849 848
f 867 849 866
f 867 851 850
f 867 850 849
f 868 851 867
f 869 851 868
f 869 852 851
f 870 853 852
f 870 852 869
f 871 854 853
f 871 853 870
f 872 855 854
f 872 854 871
f 873 856 855
f 873 855 872
f 874 857 856
f 874 856 873
f 875 858 857
f 875 860 858
f 875 857 874
f 876 862 861
f 877 862 876
f 877 864 863
f 877 863 862
f 878 864 877
f 879 864 878
f 879 865 864
f 879 866 865
f 880 866 879
f 881 866 880
f 881 867 866
f 882 868 867
f 882 867 881
f 882 869 868
f 883 869 882
f 883 870 869
f 884 870 883
f 885 870 884
f 885 871 870
f 886 871 885
f 886 872 871
f 886 873 872
f 887 873 886
f 888 873 887
f 888 874 873
f 889 874 888
f 889 890 860
f 889 860 875
f 889 875 874
f 891 878 877
f 891 877 876
f 892 879 878
f 892 878 891
f 893 880 879
f 893 879 892
f 894 880 893
f 894 881 880
f 894 882 881
f 895 882 894
f 896 883 882
f 896 882 895
f 897 884 883
f 897 883 896
f 898 885 884
f 898 886 885
f 898 884 897
f 899 887 886
f 899 886 898
f 900 887 899
f 901 887 900
f 901 888 887
f 902 888 901
f 902 889 888
f 902 903 890
f 902 890 889
f 904 892 891
f 904 893 892
f 904 891 876
f 905 893 904
f 906 893 905
f 906 894 893
f 907 895 894
f 907 894 906
f 908 895 907
f 908 896 895
f 909 896 908
f 909 897 896
f 910 897 909
f 910 898 897
f 911 899 898
f 911 898 910
f 912 900 899
f 912 899 911
f 913 901 900
f 913 900 912
f 914 902 901
f 914 903 902
f 914 915 903
f 914 901 913
f 936 904 876
f 916 904 936
f 916 905 904
f 917 907 906
f 917 905 916
f 917 906 905
f 918 907 917
f 919 908 907
f 919 907 918
f 920 908 919
f 920 909 908
f 921 909 920
f 921 910 909
f 921 911 910
f 922 911 921
f 923 911 922
f 923 912 911
f 924 912 923
f 924 913 912
f 925 913 924
f 925 935 915
f 925 915 914
f 925 914 913
f 926 917 916
f 926 916 936
f 927 918 917
f 927 917 926
f 928 919 918
f 928 920 919
f 928 918 927
f 929 920 928
f 930 921 920
f 930 920 929
f 931 922 921
f 931 923 922
f 931 921 930
f 932 923 931
f 933 924 923
f 933 923 932
f 934 924 933
f 934 925 924
f 934 935 925
f 937 927 926
f 937 926 936
f 946 927 937
f 938 927 946
f 938 928 927
f 939 928 938
f 939 929 928
f 940 930 929
f 940 929 939
f 940 931 930
f 950 931 940
f 941 932 931
f 941 931 950
f 942 932 941
f 942 933 932
f 943 933 942
f 943 934 933
f 943 935 934
f 943 944 935
f 945 946 937
f 945 937 936
f 947 938 946
f 948 939 938
f 948 938 947
f 949 939 948
f 949 940 939
f 950 940 949
f 951 941 950
f 952 941 951
f 952 942 941
f 953 942 952
f 953 954 944
f 953 943 942
f 953 944 943
f 945 947 946
f 955 948 947
f 955 947 945
f 956 948 955
f 957 949 948
f 957 948 956
f 958 949 957
f 958 950 949
f 958 951 950
f 959 951 958
f 960 952 951
f 960 951 959
f 961 954 953
f 961 953 952
f 961 952 960
f 962 955 945
f 963 955 962
f 963 956 955
f 973 956 963
f 964 958 957
f 964 956 973
f 964 957 956
f 965 958 964
f 965 959 958
f 976 959 965
f 966 960 959
f 966 959 976
f 967 961 960
f 967 954 961
f 967 968 954
f 967 969 968
f 967 960 966
f 971 962 945
f 972 962 971
f 972 963 962
f 973 963 972
f 974 964 973
f 975 964 974
f 975 965 964
f 976 965 975
f 977 966 976
f 978 966 977
f 978 969 967
f 978 967 966
f 995 945 970
f 979 971 945
f 979 945 995
f 980 972 971
f 980 971 979
f 981 973 972
f 981 974 973
f 981 972 980
f 990 974 981
f 982 975 974
f 982 974 990
f 983 975 982
f 983 976 975
f 983 977 976
f 984 978 977
f 984 977 983
f 985 969 978
f 985 986 969
f 985 987 986
f 985 978 984
f 988 980 979
f 989 980 988
f 989 981 980
f 990 981 989
f 991 982 990
f 992 982 991
f 992 983 982
f 992 984 983
f 993 984 992
f 993 985 984
f 1001 985 993
f 1001 994 987
f 1001 987 985
f 995 988 979
f 996 988 995
f 996 989 988
f 997 989 996
f 997 990 989
f 997 991 990
f 998 991 997
f 999 991 998
f 999 992 991
f 1000 993 992
f 1000 992 999
f 1001 993 1000
f 1025 995 970
f 1002 997 996
f 1002 996 995
f 1002 998 997
f 1003 998 1002
f 1003 999 998
f 1004 999 1003
f 1004 1000 999
f 1005 1000 1004
f 1006 1000 1005
f 1006 1001 1000
f 1006 994 1001
f 1006 1007 994
f 1008 1003 1002
f 1008 1002 995
f 1009 1003 1008
f 1009 1004 1003
f 1010 1004 1009
f 1010 1006 1005
f 1010 1005 1004
f 1011 1006 1010
f 1011 1012 1007
f 1011 1013 1012
f 1011 1007 1006
f 1014 1008 995
f 1015 1008 1014
f 1016 1008 1015
f 1016 1009 1008
f 1017 1010 1009
f 1017 1009 1016
f 1018 1010 1017
f 1018 1011 1010
f 1018 1013 1011
f 1025 1019 995
f 1019 1014 995
f 1020 1014 1019
f 1020 1015 1014
f 1021 1016 1015
f 1021 1015 1020
f 1022 1017 1016
f 1022 1016 1021
f 1023 1018 1017
f 1023 1013 1018
f 1023 1024 1013
f 1023 1017 1022
f 1026 1021 1020
f 1026 1020 1019
f 1026 1022 1021
f 1027 1022 1026
f 1027 1023 1022
f 1028 1023 1027
f 1028 1029 1024
f 1028 1030 1029
f 1028 1024 1023
f 1031 1026 1019
f 1031 1027 1026
f 1032 1027 1031
f 1032 1028 1027
f 1032 1030 1028
f 1019 1025 1033
f 1033 1031 1019
f 1034 1031 1033
f 1034 1032 1031
f 1034 1030 1032
f 1034 1035 1030
f 1036 1034 1033
f 1036 1037 1035
f 1036 1038 1037
f 1036 1035 1034
f 1033 1039 1038
f 1033 1038 1036
f 1041 1033 1040
f 1045 1039 1033
f 1045 1033 1041
f 1042 1041 1040
f 1043 1041 1042
f 1044 1041 1043
f 1044 1045 1041
f 1045 1046 1039
f 1047 1042 1040
f 1048 1043 1042
f 1048 1044 1043
f 1048 1042 1047
f 1049 1044 1048
f 1050 1044 1049
f 1050 1045 1044
f 1050 1046 1045
f 1050 1051 1046
f 1052 1047 1040
f 1053 1048 1047
f 1053 1047 1052
f 1054 1049 1048
f 1054 1048 1053
f 1055 1049 1054
f 1055 1050 1049
f 1055 1051 1050
f 1055 1056 1051
f 1055 1057 1056
f 1058 1052 1040
f 1059 1052 1058
f 1060 1052 1059
f 1060 1053 1052
f 1061 1054 1053
f 1061 1053 1060
f 1062 1054 1061
f 1062 1055 1054
f 1062 1063 1057
f 1062 1057 1055
f 1084 1058 1040
f 1064 1058 1084
f 1065 1059 1058
f 1065 1058 1064
f 1066 1059 1065
f 1066 1060 1059
f 1066 1061 1060
f 1067 1061 1066
f 1067 1062 1061
f 1074 1062 1067
f 1074 1063 1062
f 1074 1068 1063
f 1069 1084 1076
f 1069 1064 1084
f 1070 1065 1064
f 1070 1064 1069
f 1071 1065 1070
f 1072 1067 1066
f 1072 1066 1065
f 1072 1065 1071
f 1073 1067 1072
f 1074 1067 1073
f 1075 1076 1084
f 1077 1070 1069
f 1077 1069 1076
f 1078 1070 1077
f 1078 1071 1070
f 1079 1072 1071
f 1079 1071 1078
f 1080 1072 1079
f 1080 1073 1072
f 1081 1073 1080
f 1081 1068 1074
f 1081 1074 1073
f 1081 1082 1068
f 1081 1083 1082
f 1085 1075 1084
f 1086 1076 1075
f 1086 1077 1076
f 1086 1075 1085
f 1087 1077 1086
f 1087 1078 1077
f 1088 1078 1087
f 1089 1079 1078
f 1089 1080 1079
f 1089 1078 1088
f 1090 1081 1080
f 1090 1080 1089
f 1091 1083 1081
f 1091 1103 1083
f 1091 1081 1090
f 1097 1085 1084
f 1092 1085 1097
f 1092 1086 1085
f 1093 1086 1092
f 1093 1087 1086
f 1094 1087 1093
f 1094 1088 1087
f 1095 1089 1088
f 1095 1088 1094
f 1096 1090 1089
f 1096 1089 1095
f 1091 1090 1096
f 1098 1093 1092
f 1098 1092 1097
f 1098 1094 1093
f 1099 1094 1098
f 1100 1094 1099
f 1100 1095 1094
f 1101 1095 1100
f 1101 1096 1095
f 1102 1103 1091
f 1102 1096 1101
f 1102 1091 1096
f 1102 1104 1103
f 1105 1097 1084
f 1106 1098 1097
f 1106 1097 1105
f 1107 1099 1098
f 1107 1098 1106
f 1108 1099 1107
f 1109 1099 1108
f 1109 1100 1099
f 1109 1101 1100
f 1110 1101 1109
f 1110 1102 1101
f 1111 1104 1102
f 1111 1102 1110
f 1112 1106 1105
f 1113 1107 1106
f 1113 1106 1112
f 1114 1108 1107
f 1114 1107 1113
f 1115 1108 1114
f 1115 1109 1108
f 1116 1109 1115
f 1116 1110 1109
f 1117 1111 1110
f 1117 1110 1116
f 1117 1118 1104
f 1117 1119 1118
f 1117 1104 1111
f 1120 1113 1112
f 1120 1112 1105
f 1121 1113 1120
f 1121 1114 1113
f 1122 1115 1114
f 1122 1114 1121
f 1122 1116 1115
f 1123 1117 1116
f 1123 1116 1122
f 1130 1117 1123
f 1130 1119 1117
f 1130 1124 1119
f 1126 1105 1125
f 1126 1120 1105
f 1126 1121 1120
f 1127 1121 1126
f 1128 1122 1121
f 1128 1121 1127
f 1129 1123 1122
f 1129 1122 1128
f 1130 1123 1129
f 1131 1127 1126
f 1131 1126 1125
f 1132 1127 1131
f 1132 1128 1127
f 1133 1128 1132
f 1133 1129 1128
f 1134 1129 1133
f 1134 1135 1124
f 1134 1136 1135
f 1134 1124 1130
f 1134 1130 1129
f 1137 1131 1125
f 1138 1131 1137
f 1138 1132 1131
f 1138 1133 1132
f 1139 1133 1138
f 1139 1134 1133
f 1140 1134 1139
f 1140 1136 1134
f 1141 1137 1125
f 1142 1138 1137
f 1142 1137 1141
f 1143 1139 1138
f 1143 1138 1142
f 1144 1140 1139
f 1144 1136 1140
f 1144 1139 1143
f 1144 1145 1136
f 1146 1141 1125
f 1147 1141 1146
f 1148 1142 1141
f 1148 1141 1147
f 1149 1142 1148
f 1149 1143 1142
f 1150 1143 1149
f 1150 1144 1143
f 1150 1151 1145
f 1150 1145 1144
f 1152 1147 1146
f 1153 1147 1152
f 1153 1148 1147
f 1153 1149 1148
f 1154 1149 1153
f 1155 1149 1154
f 1155 1151 1150
f 1155 1150 1149
f 1157 1152 1146
f 1158 1153 1152
f 1158 1154 1153
f 1158 1152 1157
f 1159 1155 1154
f 1159 1154 1158
f 1160 1151 1155
f 1160 1155 1159
f 1160 1166 1151
f 1156 1146 6
f 1161 1156 6
f 1161 6 7
f 1161 1146 1156
f 1161 1157 1146
f 1162 1161 7
f 1162 7 9
f 1162 1157 1161
f 1163 1162 9
f 1163 9 11
f 1163 1157 1162
f 1163 1158 1157
f 1164 1163 11
f 1164 11 13
f 1164 1158 1163
f 1164 1159 1158
f 1165 1164 13
f 1165 1159 1164
f 1165 13 14
f 1165 14 15
f 1165 1160 1159
f 1165 1166 1160
f 1165 15 1166
f 1040 1125 1105
f 1025 1125 1040
f 1025 6 1125
f 1125 6 1146
f 1025 1 6
f 945 876 970
f 876 2 970
f 1025 2 1
f 970 2 1025
f 5 691 876
f 876 691 2
f 2 247 149
f 691 247 2
f 671 595 691
f 691 3 247
f 595 573 691
f 577 573 595
f 3 4 453
f 691 4 3
f 573 4 691
f 1057 1063 1068
f 1051 1056 1057
f 1051 1068 1082
f 1051 1057 1068
f 1104 1083 1103
f 1118 1082 1083
f 1118 1083 1104
f 1119 1046 1051
f 1119 1051 1082
f 1119 1082 1118
f 1037 1038 1039
f 1037 1039 1046
f 1135 1119 1124
f 1035 1037 1046
f 1029 1030 1035
f 15 1135 1136
f 15 1145 1151
f 15 1151 1166
f 15 1136 1145
f 994 1007 1012
f 16 1135 15
f 987 1029 1035
f 987 994 1012
f 987 1012 1013
f 987 1013 1024
f 987 1024 1029
f 969 986 987
f 29 16 28
f 43 16 29
f 954 969 987
f 954 968 969
f 944 954 987
f 61 43 51
f 61 16 43
f 61 1135 16
f 71 61 70
f 88 1135 61
f 88 61 71
f 915 944 987
f 915 935 944
f 100 88 94
f 106 1135 88
f 106 88 100
f 106 1119 1135
f 860 890 903
f 859 860 903
f 859 903 915
f 807 808 825
f 807 825 859
f 148 121 122
f 148 122 138
f 148 106 121
f 184 148 159
f 184 159 171
f 755 767 768
f 755 768 793
f 210 184 197
f 705 859 915
f 705 807 859
f 705 755 793
f 705 729 742
f 705 742 755
f 705 793 807
f 236 210 211
f 236 211 235
f 257 184 210
f 257 210 236
f 669 704 705
f 668 669 705
f 278 257 279
f 646 668 705
f 646 647 668
f 305 106 148
f 305 148 184
f 305 184 257
f 305 257 278
f 320 106 305
f 320 1119 106
f 320 1046 1119
f 320 1035 1046
f 320 987 1035
f 625 635 646
f 617 625 646
f 617 646 705
f 373 320 337
f 373 337 354
f 600 617 705
f 600 608 617
f 594 600 705
f 414 320 373
f 414 373 393
f 434 320 414
f 579 594 705
f 579 582 586
f 579 586 590
f 579 590 594
f 578 579 705
f 576 578 705
f 572 575 576
f 531 488 504
f 531 504 514
f 531 514 523
f 570 987 320
f 570 915 987
f 570 320 434
f 570 576 705
f 570 572 576
f 570 705 915
f 541 434 452
f 541 452 471
f 541 471 488
f 541 570 434
f 541 488 531
f 551 561 570
f 551 570 541
