# Render LOD; unchanged CAD body-local coordinates in mm
v 68.6762868 89.8545690 91.3611876
v 69.1602564 89.6676548 91.2465810
v 69.0134527 89.6235442 91.3749844
v 69.0591228 89.5811089 91.3749844
v 69.1026046 89.5365312 91.3749844
v 69.1438980 89.4898111 91.3750423
v 69.3211457 89.2581075 91.3639254
v 69.6646408 88.9713389 91.1224028
v 69.4571857 88.8720999 91.3443502
v 69.8189680 88.6764159 91.0028162
v 69.4685498 88.4449059 91.3254238
v 69.5934651 87.8234066 91.0002583
v 69.3510901 88.0615474 91.3074028
v 69.0992893 87.6993220 91.2892077
v 69.0845618 87.3249527 91.0000323
v 68.7957710 87.4759109 91.2722821
v 68.6333440 87.4021572 91.2652201
v 68.5883399 87.3713401 91.2500282
v 68.5166949 87.3620290 91.2601175
v 68.5225965 87.0885695 91.0000630
v 68.4564674 87.3381334 91.2500282
v 68.3855835 87.3303879 91.2545510
v 68.3220259 87.3180281 91.2500282
v 68.2536159 87.3119306 91.2490425
v 66.9721667 88.3115872 93.3073478
v 66.9526563 88.4118051 93.2369662
v 67.3360861 87.7567545 93.3565171
v 67.5421621 87.6015058 93.3076197
v 68.2602000 87.4332768 93.4275979
v 68.1932104 87.4184567 93.3606051
v 68.7494032 87.5570874 93.4641824
v 68.7312949 87.5553740 93.3968676
v 69.2482636 87.9936855 93.5119680
v 69.1908984 87.9131712 93.4409832
v 69.4415272 88.5981405 93.5560748
v 69.3875472 89.0503121 93.5890473
v 69.4502544 88.5958983 93.4884304
v 69.1846514 89.4518928 93.6206264
v 69.3534307 89.1487590 93.5304850
v 68.8209410 89.7720142 93.6557814
v 69.0562983 89.6038506 93.5713389
v 67.6470670 89.8153460 93.6932423
v 67.5720843 89.7749931 93.6999802
v 67.5247967 89.7468951 93.6905287
v 67.4705634 89.7110517 93.6951675
v 67.4623631 89.7044040 93.6994810
v 66.9401597 88.8622570 92.6410262
v 66.9682496 88.3712403 92.6768885
v 67.1801590 87.9289801 92.7775624
v 67.6162277 87.5603256 92.8218817
v 67.2161675 87.8792897 92.7167012
v 67.6983968 87.5251209 92.7596639
v 68.2704430 87.4212962 92.8660532
v 68.2119526 87.4271707 92.7983763
v 68.8108460 87.5974878 92.9059514
v 68.7072248 87.5420051 92.8319559
v 69.1705979 87.9006582 92.9400565
v 69.4101284 88.3884943 92.9813530
v 69.1830801 87.9028967 92.8765566
v 69.4221971 88.4563543 92.9199922
v 69.3486407 89.1716211 93.0392272
v 69.4207045 88.9241472 92.9537878
v 68.7656942 89.8044853 93.0977492
v 68.2715893 89.9405511 93.1335529
v 68.7670277 89.8135255 93.0309902
v 67.6781632 89.8386085 93.1143518
v 67.2014161 89.4835189 93.2208017
v 67.1980761 89.4751023 93.1596995
v 66.9533538 88.9334026 93.2642330
v 66.9574524 88.9525488 93.2000745
v 66.9362576 88.5702993 92.1014694
v 67.2335524 87.8546617 92.2216243
v 67.4087069 87.7010381 92.1742326
v 67.6696035 87.5423416 92.2588886
v 68.0921847 87.4327318 92.2905207
v 68.6286664 87.5042220 92.3326612
v 68.3541856 87.4380224 92.2430565
v 69.1657910 87.8812398 92.3743282
v 68.9466694 87.6717812 92.2913618
v 69.4230088 88.4589723 92.4220390
v 69.4202075 88.9287769 92.4562371
v 69.1890344 89.4622169 92.4958386
v 69.3537273 89.1587656 92.4091539
v 69.1163963 89.5267502 92.4400262
v 68.7363345 89.8146081 92.5377564
v 68.2094874 89.9508292 92.5760693
v 68.7398210 89.8203877 92.4769465
v 67.5670633 89.7890024 92.6226509
v 67.3577118 89.6376819 92.5798623
v 67.0793726 89.2762780 92.6092265
v 66.9289783 88.5215345 92.7296583
v 68.9981198 89.6374159 91.3839138
v 68.6887025 89.8302780 91.4074294
v 68.1754276 89.9462880 91.4542861
v 68.0461386 89.9429820 91.3977515
v 67.4962847 89.7399150 91.4396940
v 67.0625687 89.2690914 91.5502559
v 67.0652557 89.2795475 91.4867593
v 67.1539891 87.4220062 91.0000546
v 66.0108226 87.6923360 90.9999272
v 66.6134338 86.9043772 90.9999809
v 66.7316161 87.9316436 91.0001460
v 67.3371248 86.4606082 90.9999657
v 65.8022185 88.8326683 90.9998920
v 66.5543112 88.6827505 91.0000485
v 68.2943158 86.3057047 90.9999692
v 66.1485370 89.9314046 90.9999495
v 66.7134481 89.4022754 91.0000883
v 69.2918796 86.5684601 90.9999418
v 67.1391893 89.9383129 91.0000398
v 70.0564847 87.2093607 90.9999694
v 68.1266580 91.0813222 90.9998975
v 69.8692919 88.6862588 91.0000000
v 70.4980854 88.0993199 90.9999517
v 67.6621946 90.2353382 91.0000289
v 69.8606336 88.7614064 91.0000000
v 69.8485500 88.8360597 91.0000000
v 69.0874633 90.8841459 90.9999849
v 68.3507985 90.3171085 91.0000561
v 68.9385669 90.1331796 91.0000108
v 70.5130048 89.2068620 90.9999167
v 69.3571626 89.8038292 91.0131385
v 69.9479247 90.3076959 90.9998806
v 65.0686204 88.6864313 91.3754593
v 65.4754066 87.9818287 91.2087491
v 66.0487440 86.9890037 91.1702729
v 66.6365755 85.9837467 91.3596718
v 68.1538981 85.9864165 91.1578236
v 69.1244347 85.9863700 91.2404164
v 69.7535176 85.9965773 91.3625105
v 70.4225636 87.1597607 91.1618497
v 70.8685613 87.9321385 91.2059507
v 71.3039010 88.6864704 91.3726679
v 70.5325339 90.0218237 91.1480707
v 69.7460209 91.3854548 91.3694077
v 68.6059467 91.3862235 91.1759418
v 67.5753838 91.3861892 91.1914913
v 66.6273564 91.3861477 91.3721980
v 66.8884625 90.6948565 90.9998554
v 65.9260307 90.1710801 91.1557425
v 65.3906221 89.2439803 91.2354045
v 65.0693863 88.6822677 93.4353935
v 66.2722677 86.6015375 93.5776506
v 66.6469995 91.3877109 93.4473186
v 65.6428188 89.6806746 93.6407344
v 68.9280003 91.3863010 93.5859166
v 68.1281782 91.3862605 93.6404390
v 71.3036726 88.6849685 93.4333782
v 70.7755085 89.6016058 93.6195597
v 70.2381597 90.5323665 93.6117033
v 69.7257356 85.9849680 93.4429760
v 70.1516869 86.6904694 93.5917188
v 70.6866744 87.6170675 93.6321139
v 66.6652195 85.9836728 93.4491981
v 68.2568128 85.9863456 93.6413621
v 70.7145238 87.8368249 93.6595217
v 70.1879160 86.9236235 93.6587021
v 69.5209004 86.3893798 93.6583918
v 68.7241392 86.0739933 93.6592234
v 67.6716885 86.0693131 93.6588349
v 65.8449265 87.3851427 93.6520108
v 65.5875546 88.1353903 93.6591760
v 65.6318514 89.4388793 93.6587780
v 66.1163063 90.3753791 93.6592236
v 67.6789659 91.3005014 93.6584843
v 68.1863476 91.3362840 93.6588693
v 68.6932113 91.3004182 93.6584479
v 69.3695016 91.0619838 93.6591325
v 70.0215188 90.6212952 93.6591759
v 70.4947094 89.9959336 93.6587628
v 70.7497440 89.3941929 93.6587634
v 66.9326584 86.3469873 93.6589322
v 66.2922278 86.8085513 93.6585971
v 65.5323725 88.7141394 93.6592166
v 66.3134852 90.8425165 93.5611054
v 66.8786422 91.0020666 93.6574827
v 69.7448121 91.3864301 93.4275352
v 70.8427759 88.6832146 93.6576294
v 67.9042753 91.3172990 94.6830825
v 66.4300267 90.6735648 94.6320873
v 65.7999651 89.8450367 94.6645299
v 65.6141392 89.2944134 94.6800234
v 65.6600081 87.8990625 94.6716317
v 65.8379720 87.4800511 94.6888332
v 68.3793110 86.0413957 94.6335480
v 69.7201101 86.5341374 94.6857743
v 70.2887614 87.0701645 94.6376496
v 70.7513589 88.0207043 94.6502237
v 70.8288184 88.8226533 94.6715274
v 70.4543098 90.0548811 94.6572969
v 70.0500701 90.5793517 94.6426279
v 69.2923237 91.0959533 94.6404352
v 68.2013807 91.3362840 94.6000122
v 68.2013807 91.3332352 94.6347448
v 67.7505933 91.2337109 94.7632664
v 67.7869456 91.1584812 94.7988411
v 67.3105493 91.1874070 94.6525289
v 66.9683644 90.9874284 94.7422099
v 66.8260039 90.9619522 94.6447615
v 66.9323587 90.8601994 94.7954296
v 66.4850812 90.6457206 94.7474383
v 66.0986522 90.3013290 94.6963223
v 66.1974814 90.2286652 94.7983394
v 65.8153436 89.6127572 94.7863692
v 65.5940941 88.8808657 94.7431840
v 65.5363670 88.7796104 94.6428522
v 65.6676003 88.6062221 94.7950399
v 65.5574466 88.3537786 94.6374852
v 65.6201344 88.2723830 94.7436692
v 65.8366735 87.7737965 94.7964959
v 66.1003315 87.0529372 94.6584096
v 66.1276674 87.1196554 94.7556737
v 66.4802429 86.8139940 94.7924609
v 66.5249774 86.6140669 94.6454832
v 66.6989814 86.5277975 94.7125661
v 67.0904050 86.2721631 94.6419831
v 67.0805685 86.3370614 94.7464546
v 67.1125380 86.4307169 94.7980755
v 67.6478291 86.1641462 94.7626152
v 67.5760027 86.1081710 94.6550291
v 68.0376854 86.0536476 94.6943038
v 68.2950880 86.1628457 94.7942642
v 68.6252744 86.1163710 94.7360218
v 69.0573512 86.2429867 94.7463535
v 68.9376442 86.1437830 94.6454198
v 69.3515288 86.3123078 94.6718251
v 69.2036561 86.3697334 94.7933320
v 69.7348120 86.7031204 94.7960522
v 70.0384534 86.8128436 94.7011629
v 70.3059852 87.1706455 94.7383045
v 70.3919115 87.4649710 94.7950508
v 70.5730265 87.5456416 94.6766055
v 70.6725542 88.0297895 94.7674203
v 70.8121828 88.4133935 94.6838495
v 70.7082905 88.6112761 94.7963499
v 70.7304575 89.2034773 94.7447067
v 70.7214683 89.4684498 94.6635023
v 70.5171613 89.6398947 94.7967439
v 70.4195948 89.9579330 94.7691660
v 69.8655911 90.5877266 94.7903582
v 70.0996282 90.4600265 94.7357391
v 69.6131391 90.9036468 94.6940586
v 69.0980491 91.0414640 94.7952035
v 69.0919607 91.1223300 94.7452638
v 68.6541509 91.2994922 94.6565436
v 68.6331565 91.2362514 94.7564903
v 66.8335385 90.5024068 94.8000000
v 67.5375411 90.8491524 94.8000000
v 66.2342795 89.8343455 94.8000000
v 68.4312035 90.9460026 94.8000000
v 65.9416580 88.9862244 94.8000000
v 65.9810771 88.2005133 94.8000000
v 69.3665135 90.6176169 94.8000000
v 66.2742225 87.4728518 94.8000000
v 69.9522792 90.0949929 94.8000000
v 70.3386926 89.3902590 94.8000000
v 66.8959072 86.8253391 94.8000000
v 67.6291652 86.4970635 94.8000000
v 70.4393402 88.7270111 94.8000000
v 68.2991777 86.4319558 94.8000000
v 70.3731086 88.1114948 94.8000000
v 69.0493321 86.5926213 94.8000000
v 70.0738502 87.4468882 94.8000000
v 69.6658466 86.9839017 94.8000000
v 65.9136709 88.7246222 94.6999771
v 66.1722078 87.6328485 94.6999771
v 66.7486415 86.9450492 94.6999771
v 67.3250155 86.5989249 94.6999771
v 68.1479012 86.4180954 94.6999771
v 68.8658792 86.5378069 94.6999771
v 69.4279365 86.7966228 94.6999771
v 70.0709463 87.4235543 94.6999771
v 70.4195064 88.3104807 94.6999771
v 70.4201901 88.9824148 94.6999771
v 70.2492449 89.6175426 94.6999771
v 69.8865341 90.1652090 94.6999771
v 69.4135948 90.5866274 94.6999771
v 68.5071272 90.9364856 94.6999771
v 67.5013298 90.8448235 94.6999771
v 66.9033913 90.5388487 94.6999771
v 66.4167720 90.0975597 94.6999771
v 66.0879811 89.5094752 94.6999771
v 67.2746052 87.8941194 94.6999771
v 67.6276339 87.6175989 94.6999771
v 67.0383276 88.3109449 94.6999771
v 66.9888471 88.9073677 94.6999771
v 68.0556660 87.4855871 94.6999771
v 68.5325617 87.5292126 94.6999771
v 67.3217685 89.5438366 94.6999771
v 69.0508315 87.8287634 94.6999771
v 67.8400383 89.8433874 94.6999771
v 69.3464053 88.3503311 94.6999771
v 68.4071002 89.8809110 94.6999771
v 68.9976100 89.5905740 94.6999771
v 69.3717761 88.9778356 94.6999771
v 69.2036910 89.3553672 93.6999802
v 68.7807767 89.7355218 93.6999802
v 68.3572695 89.8819466 93.6999802
v 67.8793357 89.8544406 93.6999802
v 67.4891445 89.6704655 93.6993390
v 67.1488451 89.3087866 93.6999802
v 66.9767581 88.7674902 93.6999802
v 67.0853912 88.1789168 93.6999802
v 67.4852864 87.6940837 93.6999802
v 68.0153305 87.4906534 93.6999802
v 68.5527668 87.5307586 93.6999802
v 68.9914556 87.7885167 93.6999802
v 69.3096538 88.2238376 93.6999802
v 69.3899354 88.7865914 93.6999802
v 69.4339253 89.3893601 93.6998185
v 68.8588063 89.8408479 93.6999537
v 68.2293792 89.9556543 93.7000945
v 69.7070370 88.4394401 93.6996694
v 69.3109303 87.4953170 93.6998047
v 68.6913997 87.0754040 93.6987662
v 67.8903455 87.0696257 93.7003280
v 66.7532287 88.6836948 93.7003098
v 67.0212046 87.7098715 93.7001563
v 66.9341152 88.7476185 91.5269654
v 67.4091767 87.7026952 91.6744753
v 67.2744231 87.8202999 91.5991844
v 67.8638294 87.4633389 91.7105262
v 67.6989748 87.5250075 91.6362826
v 68.4317425 87.4531507 91.7545672
v 69.1245718 87.8422906 91.8130862
v 68.9140224 87.6581886 91.7229472
v 69.2178477 87.9739760 91.7579786
v 69.4289996 88.4352441 91.8578465
v 69.4167258 88.4061142 91.7950520
v 69.3935306 89.0370353 91.9010296
v 69.4252678 88.8794711 91.8237909
v 69.1396545 89.5133637 91.9437303
v 68.3502029 89.9352588 92.0079024
v 68.8689718 89.7546898 91.9010948
v 68.3614675 89.9275632 91.9399382
v 67.7647338 89.8787153 92.0438368
v 67.2919369 89.5686632 92.0870729
v 67.2794550 89.5680861 92.0248230
v 66.9347080 88.7373645 92.1529465
v 66.9779184 89.0411246 92.0672876
v 69.8564849 88.9069075 91.0041038
v 69.7491753 89.3517456 91.0362460
v 69.1872698 90.0641743 91.0828183
v 68.4011172 90.3677598 91.1281231
v 68.0770331 86.9921689 91.4171964
v 69.6660412 89.5300029 91.6084580
v 66.4973936 88.6829075 91.8432548
v 66.5930639 88.1189768 91.8724847
v 66.9127909 87.5739152 91.9092367
v 68.4843027 87.0109141 92.0000602
v 69.1351298 87.2861654 92.0371643
v 69.5758460 87.7205820 92.0694441
v 69.8268157 88.2770446 92.1037505
v 66.4985180 88.4444962 92.4189755
v 66.7986975 87.7205253 92.4618846
v 68.8921132 87.1376775 92.5859140
v 69.4477979 87.5624562 92.6224754
v 69.7613128 88.0784684 92.6542358
v 67.9330141 90.3728548 92.8414236
v 67.2309250 90.0776355 92.8824823
v 66.5080675 88.5334251 92.9777565
v 69.4424152 89.3879795 91.1925502
v 67.6254521 90.2879533 91.1702475
v 66.8918261 89.8004281 91.2182700
v 66.5443379 89.0941255 91.2589551
v 66.9937238 88.2737074 91.5579066
v 66.5151207 88.3769794 91.2978262
v 67.3819881 87.2000203 91.3765200
v 68.0788701 87.4383801 91.6622175
v 68.4622526 87.4596607 91.6897381
v 68.8570974 87.1261818 91.4587551
v 69.4114507 87.5260670 91.4942215
v 69.6920832 87.9140590 91.5198168
v 69.8846487 88.5915068 91.5576533
v 69.2962173 89.2816083 91.8541988
v 67.8824130 90.3569096 91.7197583
v 68.5971004 90.3286934 91.6805052
v 67.8472684 89.9047962 91.9763376
v 67.0339945 89.9302928 91.7702135
v 66.5793918 89.2316529 91.8151991
v 67.0871937 88.0655696 92.1391518
v 67.2900135 87.2615476 91.9339822
v 67.8328099 87.4774419 92.2071956
v 67.7330419 87.0522782 91.9610582
v 69.3420898 88.1859086 92.3372178
v 69.4435648 88.6744691 92.3721909
v 69.8662377 88.8621224 92.1354896
v 69.7297894 89.3569806 92.1618984
v 69.4791065 89.7806922 92.1866835
v 69.0078382 90.1622097 92.2198667
v 68.2853356 89.9363283 92.5054905
v 68.5458368 90.3369278 92.2466207
v 67.8604884 89.9029820 92.5350326
v 67.7648672 90.3349035 92.2907435
v 67.0110843 89.9087001 92.3349895
v 66.5639855 89.1709408 92.3800853
v 67.2254417 87.2980315 92.4923429
v 67.7693108 87.0500827 92.5252816
v 68.2865762 87.0055931 92.5524689
v 69.8780191 88.7144667 92.6882670
v 69.2304321 89.3906844 92.9883936
v 69.7242836 89.4077895 92.7271278
v 69.3982990 89.8646109 92.7568311
v 68.8546505 90.2454710 92.7922343
v 68.1683889 89.9432505 93.0834120
v 66.7419543 89.5828584 92.9180339
v 66.5352341 89.0469911 92.9490706
v 66.7677584 87.7438945 93.5835891
v 67.3840974 87.1909884 93.6277291
v 68.1594188 86.9872027 93.6722630
v 67.1874875 87.9259212 93.2752201
v 66.6784898 87.9161546 93.0125891
v 67.1861483 87.3148323 93.0544371
v 67.8415816 87.0257658 93.0903022
v 68.6009640 87.0414233 93.1313805
v 69.3147519 87.4248942 93.1763086
v 69.6695585 87.8777611 93.2050591
v 69.8580837 88.4345967 93.2368213
v 69.8439226 89.0451902 93.2686266
v 69.4415322 89.8374848 93.3156666
v 68.5433725 89.8920892 93.6132013
v 68.3233431 90.3676419 93.3842409
v 68.0164100 89.9351906 93.6524938
v 67.4424002 89.8657141 93.6076112
v 67.6670240 90.3005306 93.4182461
v 67.1371760 90.0101060 93.4523799
v 67.1450612 89.4722860 93.7000012
v 66.7635131 89.5951641 93.4808428
v 66.5592923 89.1254338 93.5080936
v 66.5039747 88.5080257 93.5418209
v 69.4345611 88.7890329 93.0097388
v 69.0951972 89.5500960 93.0712251
v 68.8452911 90.2400337 93.3548056
v 67.7527062 89.8714597 93.1740574
v 67.7729063 87.4966518 93.3911869
v 69.6263593 89.4350028 91.0037055
v 68.7513785 90.1702575 91.0471839
v 68.1519300 90.2505705 91.0690141
v 67.8287885 90.1881402 91.0811780
v 67.7585707 90.1668814 91.0839033
v 67.6893995 90.1422442 91.0866285
v 67.6228923 90.1149702 91.0892378
v 67.5577173 90.0846474 91.0919051
v 67.3220864 89.9475992 91.1018987
v 66.7161421 88.9211647 91.1454467
v 66.7818539 88.2833358 91.1718874
v 66.8639687 87.6260572 91.3420332
v 68.0183165 87.3071610 91.2389238
v 68.5799670 87.3486804 91.2808759
v 69.1513888 90.0714248 91.6500241
v 67.5571660 89.7862782 91.5019118
v 66.9292652 88.7050663 91.5953779
v 67.0547887 88.1135439 91.6359269
v 68.8067582 87.5976176 91.7829788
v 68.7604573 89.8008701 91.9752148
v 67.0258502 89.1784846 92.1203336
v 66.9696540 88.3692386 92.1803872
v 67.1513591 89.4007158 92.6677003
v 66.9825764 89.0357981 92.6963366
v 67.4929002 87.4439021 91.2182828
v 67.7921940 87.0918199 91.0001595
v 67.0086891 87.8609984 91.1915949
v 66.9285536 89.5220064 91.1226173
f 93 1 92
f 92 2 3
f 1 2 92
f 3 2 4
f 4 2 5
f 6 2 7
f 5 2 6
f 2 362 7
f 8 7 362
f 7 8 9
f 9 10 11
f 8 10 9
f 12 11 10
f 11 12 13
f 12 14 13
f 12 15 14
f 14 15 16
f 17 18 18
f 18 18 19
f 20 16 15
f 19 21 21
f 21 21 22
f 18 20 19
f 17 20 18
f 16 20 17
f 22 23 23
f 23 23 24
f 21 20 22
f 19 20 21
f 23 20 24
f 22 20 23
f 24 20 448
f 448 20 461
f 25 411 26
f 25 27 411
f 27 28 411
f 27 435 28
f 435 30 28
f 435 29 30
f 29 31 30
f 31 32 30
f 31 34 32
f 31 33 34
f 33 37 34
f 33 35 37
f 35 36 37
f 36 39 37
f 36 38 39
f 38 41 39
f 38 40 41
f 40 421 41
f 40 312 421
f 312 423 421
f 312 42 423
f 43 44 42
f 43 44 44
f 44 45 44
f 44 46 45
f 91 48 47
f 91 49 48
f 49 51 48
f 49 50 51
f 50 52 51
f 50 53 52
f 53 54 52
f 53 56 54
f 53 55 56
f 55 59 56
f 55 57 59
f 57 58 59
f 58 60 59
f 58 431 60
f 431 62 60
f 431 61 62
f 61 401 62
f 61 432 401
f 432 65 401
f 432 63 65
f 63 64 65
f 64 405 65
f 64 434 405
f 434 66 405
f 434 67 66
f 67 68 66
f 67 70 68
f 67 69 70
f 69 26 70
f 69 25 26
f 339 457 71
f 457 381 71
f 457 72 381
f 72 73 381
f 72 74 73
f 74 383 73
f 74 75 383
f 75 77 383
f 75 76 77
f 76 79 77
f 76 78 79
f 78 385 79
f 78 80 385
f 80 386 385
f 80 81 386
f 81 83 386
f 81 82 83
f 82 84 83
f 82 87 84
f 82 85 87
f 85 86 87
f 86 391 87
f 86 393 391
f 86 88 393
f 88 89 393
f 88 458 89
f 458 90 89
f 458 459 90
f 459 47 90
f 459 91 47
f 6 5 5
f 5 4 5
f 5 4 4
f 4 3 4
f 4 92 3
f 93 94 1
f 94 95 1
f 94 451 95
f 451 96 95
f 451 98 96
f 451 97 98
f 98 452 319
f 97 452 98
f 101 102 99
f 100 102 101
f 101 99 103
f 99 461 103
f 104 105 100
f 100 105 102
f 103 461 106
f 461 20 106
f 104 108 105
f 106 20 109
f 107 108 104
f 20 15 109
f 15 111 109
f 107 110 108
f 15 12 111
f 107 139 110
f 110 139 115
f 12 114 111
f 139 112 115
f 10 114 12
f 115 112 119
f 113 114 10
f 113 121 114
f 116 121 113
f 117 121 116
f 341 121 117
f 112 118 119
f 119 118 120
f 436 121 341
f 436 123 121
f 122 123 436
f 118 123 120
f 120 123 122
f 125 104 100
f 125 124 104
f 126 125 100
f 126 100 101
f 127 101 103
f 127 126 101
f 128 127 103
f 128 103 106
f 129 128 106
f 129 106 109
f 130 129 109
f 130 109 111
f 131 130 111
f 131 111 114
f 132 131 114
f 133 114 121
f 133 132 114
f 121 134 133
f 134 121 123
f 123 135 134
f 135 123 118
f 135 118 136
f 136 118 112
f 137 136 112
f 137 112 139
f 138 137 139
f 139 140 138
f 140 139 107
f 141 107 104
f 141 140 107
f 141 104 124
f 142 124 125
f 161 142 125
f 161 125 126
f 143 161 126
f 143 126 127
f 154 143 127
f 175 144 138
f 175 138 140
f 145 175 140
f 145 140 141
f 142 141 124
f 142 145 141
f 146 135 136
f 146 177 135
f 147 146 136
f 147 136 137
f 144 147 137
f 144 137 138
f 149 133 134
f 149 148 133
f 150 149 134
f 150 134 135
f 177 150 135
f 152 151 130
f 152 130 131
f 153 152 131
f 153 131 132
f 148 132 133
f 148 153 132
f 155 127 128
f 155 154 127
f 155 128 129
f 151 155 129
f 151 129 130
f 153 148 156
f 153 156 157
f 152 153 157
f 152 157 158
f 155 151 159
f 155 159 160
f 154 155 160
f 161 143 173
f 142 161 162
f 164 145 163
f 175 145 164
f 144 176 165
f 147 144 165
f 166 147 165
f 167 147 166
f 146 147 167
f 168 146 167
f 177 146 168
f 150 177 169
f 150 169 170
f 149 150 170
f 149 170 171
f 148 178 156
f 158 151 152
f 151 158 159
f 154 160 172
f 143 154 172
f 143 172 173
f 174 142 162
f 145 174 163
f 145 142 174
f 175 164 176
f 176 144 175
f 177 168 169
f 148 171 178
f 148 149 171
f 179 166 165
f 197 179 165
f 197 165 176
f 199 197 176
f 180 199 176
f 180 176 164
f 202 180 164
f 181 202 164
f 181 164 163
f 182 181 163
f 206 163 174
f 206 182 163
f 208 174 162
f 208 206 174
f 183 208 162
f 183 162 161
f 184 183 161
f 211 184 161
f 211 161 173
f 214 211 173
f 214 173 172
f 216 214 172
f 216 172 160
f 220 216 160
f 221 220 160
f 185 221 160
f 185 160 159
f 225 185 159
f 226 225 159
f 226 159 158
f 186 226 158
f 186 158 157
f 229 186 157
f 187 229 157
f 232 157 156
f 232 187 157
f 188 232 156
f 234 156 178
f 234 188 156
f 189 234 178
f 189 178 171
f 237 189 171
f 237 171 170
f 190 237 170
f 190 170 169
f 191 190 169
f 242 191 169
f 242 169 168
f 192 242 168
f 192 168 167
f 245 192 167
f 193 167 166
f 193 245 167
f 193 193 166
f 193 193 166
f 179 193 166
f 194 193 193
f 194 193 193
f 194 193 179
f 194 245 193
f 195 179 197
f 198 195 197
f 200 196 195
f 200 195 198
f 198 197 199
f 201 198 199
f 201 200 198
f 201 199 180
f 203 200 201
f 202 201 180
f 203 201 202
f 204 203 202
f 204 202 181
f 204 181 182
f 205 204 182
f 204 207 203
f 205 182 206
f 207 204 205
f 209 205 206
f 207 205 209
f 208 209 206
f 183 209 208
f 210 207 209
f 210 209 183
f 184 210 183
f 212 210 184
f 212 184 211
f 213 210 212
f 214 212 211
f 213 212 214
f 215 213 214
f 216 215 214
f 217 213 215
f 217 215 216
f 218 213 217
f 220 217 216
f 219 217 220
f 219 218 217
f 222 218 219
f 221 219 220
f 222 219 221
f 223 221 185
f 222 221 223
f 223 185 225
f 227 222 223
f 224 223 225
f 227 223 224
f 226 224 225
f 227 224 226
f 186 227 226
f 228 227 186
f 228 186 229
f 230 228 229
f 230 229 187
f 231 228 230
f 232 230 187
f 231 230 232
f 233 231 232
f 233 232 188
f 235 231 233
f 234 233 188
f 235 233 234
f 235 234 189
f 236 235 189
f 236 189 237
f 238 235 236
f 238 236 237
f 239 238 237
f 239 237 190
f 241 239 190
f 241 190 191
f 240 239 241
f 240 238 239
f 242 241 191
f 240 241 242
f 243 240 242
f 244 242 192
f 243 242 244
f 245 244 192
f 246 244 245
f 243 244 246
f 245 194 179
f 179 246 245
f 246 179 195
f 246 195 196
f 196 243 246
f 249 247 203
f 247 200 203
f 248 200 247
f 248 196 200
f 251 249 203
f 251 203 207
f 250 196 248
f 252 251 207
f 252 207 210
f 250 243 196
f 253 243 250
f 254 252 210
f 213 254 210
f 240 243 253
f 255 240 253
f 257 254 213
f 238 240 255
f 218 257 213
f 238 255 256
f 218 258 257
f 222 258 218
f 235 238 256
f 235 256 259
f 222 260 258
f 235 259 261
f 222 262 260
f 227 262 222
f 231 235 261
f 231 261 263
f 228 262 227
f 228 264 262
f 231 263 264
f 228 231 264
f 251 252 265
f 265 252 266
f 252 254 266
f 266 254 267
f 254 257 267
f 267 257 268
f 257 258 268
f 268 258 269
f 258 260 269
f 269 262 270
f 260 262 269
f 270 262 271
f 262 264 271
f 271 264 272
f 264 263 272
f 263 261 272
f 272 261 273
f 261 259 273
f 273 259 274
f 259 256 274
f 274 256 275
f 256 255 275
f 275 255 276
f 276 255 277
f 255 253 277
f 277 253 278
f 253 250 278
f 278 250 279
f 250 248 279
f 248 247 279
f 279 247 280
f 280 247 281
f 247 249 281
f 281 249 282
f 249 251 282
f 282 251 265
f 283 266 267
f 284 283 267
f 284 267 268
f 285 266 283
f 287 284 268
f 285 265 266
f 287 268 269
f 286 265 285
f 288 287 269
f 288 269 270
f 286 282 265
f 288 270 271
f 286 281 282
f 289 281 286
f 290 288 271
f 290 271 272
f 280 281 289
f 279 289 291
f 279 280 289
f 272 292 290
f 273 292 272
f 278 291 293
f 278 279 291
f 273 295 292
f 274 295 273
f 275 295 274
f 277 278 293
f 277 293 294
f 275 294 295
f 276 294 275
f 276 277 294
f 309 295 296
f 295 294 296
f 296 294 297
f 294 293 297
f 297 293 298
f 298 293 299
f 293 291 299
f 299 291 300
f 291 289 300
f 300 289 301
f 289 286 301
f 301 286 302
f 286 285 302
f 302 285 303
f 285 283 303
f 303 283 304
f 283 284 304
f 304 284 305
f 284 287 305
f 305 287 306
f 287 288 306
f 288 290 306
f 306 290 307
f 307 290 308
f 290 292 308
f 308 292 309
f 292 295 309
f 310 296 311
f 296 297 311
f 297 298 311
f 311 298 312
f 310 309 296
f 313 309 310
f 298 299 312
f 313 308 309
f 299 42 312
f 299 300 42
f 300 43 42
f 314 308 313
f 300 44 43
f 300 46 44
f 300 427 46
f 314 307 308
f 300 301 427
f 307 314 306
f 314 315 306
f 301 317 427
f 302 317 301
f 315 316 306
f 306 316 305
f 303 317 302
f 303 318 317
f 305 316 304
f 304 318 303
f 316 318 304
f 319 452 366
f 452 453 366
f 366 453 321
f 453 320 321
f 320 323 321
f 320 322 323
f 322 369 323
f 322 324 369
f 324 370 369
f 324 454 370
f 454 326 370
f 454 325 326
f 325 327 326
f 325 328 327
f 328 329 327
f 328 331 329
f 328 330 331
f 330 375 331
f 330 332 375
f 332 334 375
f 332 455 334
f 455 333 334
f 333 335 334
f 333 378 335
f 333 336 378
f 336 338 378
f 336 337 338
f 337 456 338
f 338 456 340
f 456 339 340
f 339 71 340
f 10 116 113
f 8 341 10
f 10 341 116
f 8 342 341
f 323 368 321
f 327 372 326
f 334 346 375
f 79 350 77
f 84 389 83
f 89 394 393
f 56 356 54
f 59 356 56
f 26 412 361
f 342 8 362
f 342 362 343
f 343 362 2
f 1 343 2
f 95 344 1
f 1 344 343
f 344 95 363
f 95 96 363
f 363 96 364
f 96 98 364
f 98 365 364
f 319 365 98
f 366 367 319
f 319 367 365
f 447 366 321
f 367 366 447
f 368 447 321
f 345 368 323
f 323 369 345
f 345 369 370
f 371 370 326
f 345 370 371
f 371 326 372
f 329 373 327
f 327 373 372
f 329 374 373
f 329 331 374
f 374 331 346
f 346 331 375
f 334 450 346
f 334 377 450
f 335 377 334
f 335 376 377
f 378 376 335
f 379 378 338
f 376 378 379
f 340 380 338
f 338 380 379
f 71 347 340
f 340 347 380
f 71 348 347
f 381 348 71
f 349 381 73
f 348 381 349
f 384 382 383
f 383 382 73
f 73 382 349
f 350 383 77
f 384 383 350
f 79 351 350
f 79 352 351
f 385 352 79
f 353 385 386
f 352 385 353
f 387 386 83
f 353 386 387
f 389 388 83
f 83 388 387
f 390 389 87
f 87 389 84
f 392 390 87
f 394 391 393
f 392 391 394
f 87 391 392
f 89 395 394
f 89 90 395
f 395 90 396
f 90 47 396
f 396 47 354
f 47 48 354
f 48 51 354
f 354 51 355
f 52 397 51
f 51 397 355
f 398 52 54
f 397 52 398
f 356 399 54
f 54 399 398
f 59 357 356
f 59 358 357
f 60 358 59
f 62 400 60
f 60 400 358
f 401 402 62
f 62 402 400
f 403 401 65
f 402 401 403
f 403 65 404
f 65 405 404
f 404 405 359
f 359 405 66
f 68 360 66
f 66 360 359
f 68 406 360
f 70 407 68
f 68 407 406
f 407 26 361
f 70 26 407
f 411 412 26
f 318 408 317
f 318 409 408
f 316 409 318
f 316 410 409
f 316 315 410
f 412 411 413
f 411 28 413
f 30 414 28
f 28 414 413
f 30 415 414
f 30 32 415
f 415 32 416
f 34 416 32
f 37 417 34
f 34 417 416
f 417 37 418
f 39 419 37
f 37 419 418
f 419 39 420
f 41 420 39
f 421 433 41
f 41 433 420
f 433 421 422
f 421 423 422
f 422 423 425
f 46 424 45
f 45 424 44
f 44 424 42
f 427 424 46
f 42 424 423
f 423 426 425
f 424 426 423
f 427 426 424
f 427 428 426
f 317 428 427
f 317 429 428
f 317 430 429
f 430 317 408
f 55 416 57
f 415 416 55
f 416 417 57
f 57 417 58
f 418 58 417
f 61 431 419
f 419 431 418
f 418 431 58
f 420 61 419
f 63 432 420
f 420 433 63
f 433 422 64
f 425 434 64
f 425 426 434
f 434 426 67
f 426 428 67
f 428 429 67
f 67 429 69
f 69 430 25
f 430 408 25
f 27 408 409
f 414 53 50
f 25 408 27
f 409 435 27
f 409 410 435
f 435 410 29
f 29 315 31
f 410 315 29
f 33 31 314
f 314 31 315
f 33 313 35
f 420 432 61
f 433 64 63
f 425 64 422
f 430 69 429
f 313 33 314
f 310 36 313
f 313 36 35
f 310 38 36
f 311 38 310
f 311 40 38
f 311 312 40
f 91 412 49
f 412 413 49
f 49 413 50
f 414 50 413
f 53 414 415
f 53 415 55
f 116 116 113
f 341 117 116
f 116 117 116
f 342 436 341
f 343 122 342
f 342 122 436
f 343 437 122
f 344 437 343
f 344 438 437
f 363 438 344
f 363 439 438
f 363 440 439
f 363 441 440
f 363 442 441
f 363 443 442
f 363 444 443
f 364 444 363
f 364 463 444
f 365 463 364
f 367 445 365
f 368 460 447
f 345 460 368
f 345 448 460
f 345 23 24
f 345 22 23
f 374 9 11
f 376 451 94
f 352 328 325
f 390 455 332
f 412 91 361
f 365 445 463
f 446 445 367
f 447 446 367
f 462 446 447
f 462 447 460
f 448 345 24
f 17 371 16
f 22 371 21
f 345 371 22
f 17 449 371
f 18 449 17
f 19 449 18
f 21 449 19
f 371 449 21
f 372 14 371
f 371 14 16
f 372 13 14
f 373 13 372
f 13 374 11
f 373 374 13
f 346 9 374
f 7 9 346
f 6 7 346
f 346 450 6
f 6 450 5
f 5 450 4
f 4 450 92
f 92 450 93
f 377 93 450
f 94 93 377
f 377 376 94
f 379 451 376
f 451 379 97
f 379 380 97
f 347 452 380
f 380 452 97
f 348 453 347
f 347 453 452
f 348 349 453
f 453 349 320
f 349 382 320
f 320 382 322
f 322 382 384
f 322 384 350
f 350 324 322
f 351 454 350
f 325 454 351
f 350 454 324
f 352 325 351
f 352 353 328
f 328 387 330
f 353 387 328
f 387 388 330
f 332 388 389
f 330 388 332
f 390 332 389
f 392 455 390
f 333 455 392
f 336 333 394
f 394 333 392
f 394 395 336
f 336 395 337
f 396 456 395
f 395 456 337
f 339 396 354
f 456 396 339
f 354 457 339
f 354 355 457
f 457 355 72
f 355 397 72
f 72 397 74
f 74 398 75
f 397 398 74
f 76 399 356
f 75 399 76
f 398 399 75
f 78 76 356
f 356 357 78
f 357 358 78
f 78 358 80
f 400 80 358
f 81 80 400
f 402 81 400
f 82 81 402
f 402 403 82
f 403 404 82
f 82 404 85
f 359 86 404
f 404 86 85
f 88 86 359
f 359 360 88
f 360 458 88
f 406 458 360
f 407 459 406
f 406 459 458
f 91 459 407
f 407 361 91
f 110 115 444
f 439 115 438
f 115 119 438
f 438 119 437
f 119 120 437
f 120 122 437
f 461 460 448
f 99 460 461
f 460 99 462
f 102 462 99
f 462 102 446
f 105 446 102
f 446 105 445
f 108 445 105
f 445 108 463
f 110 463 108
f 463 110 444
f 443 444 115
f 115 442 443
f 441 442 115
f 443 442 442
f 442 442 441
f 115 440 441
f 439 440 115
f 441 440 440
f 440 440 439
