# Render LOD; unchanged CAD body-local coordinates in mm
v 23.9903026 48.5259752 125.7626841
v 24.5262508 49.0619239 125.9889784
v 24.1797985 48.7154714 125.4877470
v 23.8103771 48.3460496 126.0505455
v 24.3539817 48.8896547 126.2387716
v 24.7061763 49.2418495 125.7514046
v 24.3788650 48.9145380 125.2266743
v 23.6419362 48.1776086 126.3506264
v 24.1912831 48.7269560 126.5005493
v 24.8956723 49.4313457 125.5272251
v 24.5875020 49.1231752 124.9799359
v 23.4830658 48.0187381 126.6624567
v 24.0362410 48.5719137 126.7733715
v 25.0928247 49.6284982 125.3164401
v 24.8037954 49.3394687 124.7480018
v 23.3356801 47.8713522 126.9848615
v 23.8926834 48.4283560 127.0567681
v 25.2976334 49.8313931 125.1197543
v 25.0277452 49.5634187 124.5318120
v 23.1997789 47.7354509 127.3173709
v 23.7586964 48.2943688 127.3500343
v 25.5081845 50.0438584 124.9378729
v 25.2593514 49.7950251 124.3316014
v 23.6361939 48.1699522 127.6522301
v 23.0772764 47.6129484 127.6590448
v 25.7244779 50.2601520 124.7707958
v 25.4986140 50.0342879 124.1478401
v 23.5232619 48.0589342 127.9628855
v 22.9643445 47.5000163 128.0089433
v 25.9465136 50.4821879 124.6194629
v 25.7436189 50.2792930 123.9814679
v 22.8667253 47.4004830 128.3663615
v 23.4218146 47.9574868 128.2808255
v 26.1742916 50.7099661 124.4838743
v 25.9924521 50.5281263 123.8322499
v 22.7786767 47.3143484 128.7303593
v 23.3318519 47.8656099 128.6058152
v 26.4058978 50.9415724 124.3644999
v 26.2489416 50.7846160 123.7008911
v 22.7059409 47.2416125 129.0999969
v 23.2514596 47.7871317 128.9366796
v 26.6413322 51.1770070 124.2615747
v 26.5073452 51.0430199 123.5878614
v 22.6446896 47.1803612 129.4743343
v 23.1863802 47.7201381 129.2727138
v 26.8805949 51.4162698 124.1755688
v 26.7714911 51.3071660 123.4929259
v 22.5987512 47.1344228 129.8524315
v 23.1308713 47.6665433 129.6129778
v 27.1217716 51.6574467 124.1062470
v 22.5642974 47.0999689 130.2333486
v 23.0868469 47.6225189 129.9567666
v 27.3667765 51.9024518 124.0543145
v 22.5451564 47.0789138 130.6161456
v 23.0562213 47.5918933 130.3029053
v 27.6117814 52.1474569 124.0195361
v 22.5375000 47.0731715 130.9998825
v 23.0389944 47.5746663 130.6511589
v 27.8587004 52.3943762 124.0021469
v 22.5451564 47.0789138 131.3838544
v 23.0332521 47.5689240 130.9998825
v 28.1056194 52.6412954 124.0021469
v 22.5642974 47.0999689 131.7666514
v 23.0389944 47.5746663 131.3488411
v 28.3525384 52.8882146 124.0195361
v 22.5987512 47.1344228 132.1475685
v 23.0562213 47.5918933 131.6968597
v 28.5975433 53.1332197 124.0543145
v 22.6446896 47.1803612 132.5256657
v 23.0868469 47.6225189 132.0432334
v 28.8425482 53.3782248 124.1062470
v 27.9723089 52.5082789 123.2457059
v 22.7059409 47.2416125 132.9000031
v 23.1308713 47.6665433 132.3870222
v 29.0837249 53.6194017 124.1755688
v 29.1947428 53.7285055 123.4929259
v 23.1863802 47.7201381 132.7272862
v 22.7786767 47.3143484 133.2696407
v 29.3229876 53.8586645 124.2615747
v 29.4569746 53.9926516 123.5878614
v 23.2514596 47.7871317 133.0633204
v 22.8667253 47.4004830 133.6336385
v 29.5584220 54.0940991 124.3644999
v 29.7153782 54.2510555 123.7008911
v 23.3318519 47.8656099 133.3941848
v 22.9643445 47.5000163 133.9910567
v 29.7900282 54.3257055 124.4838743
v 29.9718677 54.5075452 123.8322499
v 23.4218146 47.9574868 133.7189395
v 23.0772764 47.6129484 134.3409552
v 30.0178062 54.5534836 124.6194629
v 30.2207009 54.7563785 123.9814679
v 23.5232619 48.0589342 134.0371145
v 23.1997789 47.7354509 134.6826291
v 30.2398419 54.7755195 124.7707958
v 30.4657058 55.0013836 124.1478401
v 23.6361939 48.1699522 134.3477699
v 30.4580494 54.9918131 124.9378729
v 30.7049684 55.2406464 124.3316014
v 23.3356801 47.8713522 135.0151385
v 23.7586964 48.2943688 134.6499657
v 30.6686005 55.2023644 125.1197543
v 30.9365746 55.4722528 124.5318120
v 23.4830658 48.0187381 135.3375433
v 23.8926834 48.4283560 134.9432319
v 30.8714952 55.4071733 125.3164401
v 31.1605244 55.6962028 124.7480018
v 23.6419362 48.1776086 135.6493736
v 24.0362410 48.5719137 135.2266285
v 31.0686475 55.6043259 125.5272251
v 31.3768178 55.9124963 124.9799359
v 23.8103771 48.3460496 135.9494545
v 24.1912831 48.7269560 135.4994507
v 31.2581435 55.7938220 125.7514046
v 31.5854548 56.1211335 125.2266743
v 23.9903026 48.5259752 136.2373159
v 24.3539817 48.8896547 135.7612284
v 31.4380690 55.9737476 125.9889784
v 31.7845213 56.3202002 125.4877470
v 24.1797985 48.7154714 136.5122530
v 24.5262508 49.0619239 136.0110216
v 31.6103381 56.1460168 126.2387716
v 31.9740173 56.5096963 125.7626841
v 24.3788650 48.9145380 136.7733257
v 24.7061763 49.2418495 136.2483604
v 31.7730367 56.3087155 126.5005493
v 32.1539427 56.6896219 126.0505455
v 24.5875020 49.1231752 137.0200641
v 24.8956723 49.4313457 136.4727749
v 31.9280788 56.4637578 126.7733715
v 32.3223836 56.8580629 126.3506264
v 24.8037954 49.3394687 137.2519982
v 25.0928247 49.6284982 136.6835599
v 32.0716364 56.6073155 127.0567681
v 32.4812540 57.0169334 126.6624567
v 25.0277452 49.5634187 137.4681880
v 25.2976334 49.8313931 136.8802457
v 32.2056235 56.7413027 127.3500343
v 32.6286397 57.1643193 126.9848615
v 32.3300400 56.8638052 127.6522301
v 25.2593514 49.7950251 137.6683986
v 25.5081845 50.0438584 137.0621271
v 32.7645409 57.3002206 127.3173709
v 32.4410579 56.9767373 127.9628855
v 25.4986140 50.0342879 137.8519249
v 25.7244779 50.2601520 137.2292042
v 32.8870434 57.4227231 127.6590448
v 32.5425052 57.0781847 128.2808255
v 25.7436189 50.2792930 138.0185321
v 25.9465136 50.4821879 137.3805371
v 32.9999753 57.5356552 128.0089433
v 32.6343820 57.1681475 128.6058152
v 25.9924521 50.5281263 138.1677501
v 26.1742916 50.7099661 137.5161257
v 33.0995086 57.6332744 128.3663615
v 32.7128602 57.2485398 128.9366796
v 26.2489416 50.7846160 138.2991089
v 26.4058978 50.9415724 137.6355001
v 33.1856431 57.7213231 128.7303593
v 32.7798537 57.3136193 129.2727138
v 26.5073452 51.0430199 138.4121386
v 26.6413322 51.1770070 137.7384253
v 33.2583789 57.7940590 129.0999969
v 32.8334485 57.3691283 129.6129778
v 26.7714911 51.3071660 138.5068391
v 26.8805949 51.4162698 137.8244312
v 33.3196302 57.8553103 129.4743343
v 27.9791521 52.5151086 138.7541212
v 27.1217716 51.6574467 137.8937530
v 33.3655686 57.9012487 129.8524315
v 32.9080985 57.4437783 130.3029053
v 32.8774729 57.4131526 129.9567666
v 27.3667765 51.9024518 137.9456855
v 33.4000224 57.9357026 130.2333486
v 32.9253254 57.4610052 130.6511589
v 27.6117814 52.1474569 137.9804639
v 33.4210775 57.9548436 130.6161456
v 32.9310677 57.4667475 130.9998825
v 27.8587004 52.3943762 137.9978531
v 33.4268198 57.9625000 130.9998825
v 32.9253254 57.4610052 131.3488411
v 28.1056194 52.6412954 137.9978531
v 33.4210775 57.9548436 131.3838544
v 32.9080985 57.4437783 131.6968597
v 28.3525384 52.8882146 137.9804639
v 33.4000224 57.9357026 131.7666514
v 32.8774729 57.4131526 132.0432334
v 28.5975433 53.1332197 137.9456855
v 33.3655686 57.9012487 132.1475685
v 32.8334485 57.3691283 132.3870222
v 28.8425482 53.3782248 137.8937530
v 33.3196302 57.8553103 132.5256657
v 32.7798537 57.3136193 132.7272862
v 29.1947428 53.7285055 138.5068391
v 29.0837249 53.6194017 137.8244312
v 33.2583789 57.7940590 132.9000031
v 32.7128602 57.2485398 133.0633204
v 29.4569746 53.9926516 138.4121386
v 29.3229876 53.8586645 137.7384253
v 32.6343820 57.1681475 133.3941848
v 33.1856431 57.7213231 133.2696407
v 29.7153782 54.2510555 138.2991089
v 29.5584220 54.0940991 137.6355001
v 32.5425052 57.0781847 133.7189395
v 33.0995086 57.6332744 133.6336385
v 29.9718677 54.5075452 138.1677501
v 29.7900282 54.3257055 137.5161257
v 32.9999753 57.5356552 133.9910567
v 32.4410579 56.9767373 134.0371145
v 30.2207009 54.7563785 138.0185321
v 30.0178062 54.5534836 137.3805371
v 32.8870434 57.4227231 134.3409552
v 32.3300400 56.8638052 134.3477699
v 30.4657058 55.0013836 137.8519249
v 30.2398419 54.7755195 137.2292042
v 32.7645409 57.3002206 134.6826291
v 32.2056235 56.7413027 134.6499657
v 30.7049684 55.2406464 137.6683986
v 30.4580494 54.9918131 137.0621271
v 32.6286397 57.1643193 135.0151385
v 32.0716364 56.6073155 134.9432319
v 30.9365746 55.4722528 137.4681880
v 30.6686005 55.2023644 136.8802457
v 32.4812540 57.0169334 135.3375433
v 31.9280788 56.4637578 135.2266285
v 31.1605244 55.6962028 137.2519982
v 30.8714952 55.4071733 136.6835599
v 32.3223836 56.8580629 135.6493736
v 31.7730367 56.3087155 135.4994507
v 31.3768178 55.9124963 137.0200641
v 31.0686475 55.6043259 136.4727749
v 32.1539427 56.6896219 135.9494545
v 31.6103381 56.1460168 135.7612284
v 31.5854548 56.1211335 136.7733257
v 31.2581435 55.7938220 136.2483604
v 31.9740173 56.5096963 136.2373159
v 31.4380690 55.9737476 136.0110216
v 31.7845213 56.3202002 136.5122530
v 137.5902746 -66.9767052 130.6523339
v 137.5845323 -66.9824475 130.9998825
v 137.6075015 -66.9594783 130.3054902
v 137.6381271 -66.9288526 129.9602914
v 137.6821515 -66.8848283 129.6176776
v 137.7357463 -66.8312334 129.2785885
v 137.8027398 -66.7642398 128.9437293
v 137.8793039 -66.6876757 128.6138048
v 137.9692666 -66.5977129 128.2899901
v 138.0707139 -66.4962655 127.9727550
v 138.1817318 -66.3852475 127.6628046
v 138.3042342 -66.2627450 127.3613138
v 138.4382213 -66.1287578 127.0687526
v 138.5817789 -65.9852001 126.7860609
v 138.7349069 -65.8320719 126.5134737
v 138.8956914 -65.6712873 126.2521660
v 139.0679605 -65.4990181 126.0026078
v 139.2478860 -65.3190925 125.7652689
v 139.4354679 -65.1315105 125.5408545
v 139.6307061 -64.9362720 125.3298344
v 139.8336008 -64.7333772 125.1331487
v 140.0422378 -64.5247400 124.9505623
v 140.2585312 -64.3084464 124.7832502
v 140.4805669 -64.0864106 124.6309773
v 140.7064308 -63.8605465 124.4946838
v 33.6297145 44.0412333 124.2916533
v 33.2946543 44.4541432 124.2753030
v 33.1167355 44.9504320 124.2148119
v 140.9361229 -63.6308542 124.3741344
v 33.6813952 43.9914667 124.2914183
v 33.0634231 45.2072392 124.1793267
v 33.0535701 45.4614973 124.1419654
v 141.1715573 -63.3954196 124.2702693
v 34.0373346 43.7079586 124.2758869
v 34.4585202 43.5378244 124.2277363
v 33.0647998 45.6829682 124.1101151
v 33.1071650 45.9017409 124.0799283
v 34.7118632 43.4682918 123.8102629
v 141.4089058 -63.1580709 124.1828534
v 35.0442350 43.4459475 124.1457252
v 33.1525799 46.0771674 124.0574465
v 33.2277533 46.2615921 124.0364553
v 35.2732564 43.4563584 124.1123248
v 141.6500825 -62.9168940 124.1123568
v 35.4825641 43.4938000 124.0834531
v 33.3082277 46.4259860 124.0206445
v 33.4153352 46.5927318 124.0089616
v 35.6498033 43.5358971 124.0617148
v 141.8931734 -62.6738030 124.0587793
v 35.8443292 43.6105603 124.0390402
v 33.5216647 46.7343123 124.0018077
v 33.6526837 46.8741049 124.0000320
v 36.0078045 43.6873233 124.0228604
v 142.1381783 -62.4287979 124.0223560
v 36.1773827 43.7924000 124.0101366
v 33.7648552 46.9767643 124.0019912
v 33.8785476 47.0655151 124.0073167
v 142.3831832 -62.1837928 124.0030869
v 36.3447711 43.9179031 124.0015797
v 36.4625838 44.0278346 124.0000320
v 34.0487736 47.1777584 124.0185892
v 34.2058589 47.2588394 124.0331655
v 36.5587167 44.1299240 124.0010036
v 142.6301022 -61.9368736 124.0012070
v 36.6559080 44.2517846 124.0061418
v 34.3817647 47.3327776 124.0524283
v 34.5637957 47.3851702 124.0754635
v 36.7626489 44.4067594 124.0157962
v 142.8751071 -61.6918685 124.0167163
v 36.8530603 44.5752679 124.0308156
v 34.7895492 47.4309142 124.1061814
v 35.0040389 47.4464215 124.1372656
v 143.1201120 -61.4468634 124.0493797
v 36.9270455 44.7424056 124.0485508
v 36.9851333 44.9312909 124.0721736
v 35.2937562 47.4370152 124.1796051
v 35.5897538 47.3736856 124.2199817
v 37.0330009 45.1449250 124.1006981
v 143.3632028 -61.2037724 124.0989624
v 37.0521268 45.3715345 124.1335058
v 36.0435763 47.2033267 124.2743441
v 36.4243018 46.9028164 124.2914183
v 37.0496480 45.6162607 124.1689681
v 143.6043795 -60.9625955 124.1659342
v 37.0042743 45.8825998 124.2068223
v 36.4683261 46.8607061 124.2916533
v 143.8436421 -60.7233327 124.2495903
v 36.8474795 46.3740218 124.2687508
v 36.5295773 46.7956267 124.2911833
v 144.0790765 -60.4878981 124.3499306
v 144.3106827 -60.2562917 124.4667201
v 144.5384608 -60.0285135 124.5994888
v 144.7604965 -59.8064776 124.7482368
v 144.9767898 -59.5901841 124.9124941
v 145.1873409 -59.3796328 125.0915557
v 145.3921497 -59.1748238 125.2851865
v 145.5893021 -58.9776713 125.4931518
v 145.7787981 -58.7881752 125.7145113
v 145.9606377 -58.6063354 125.9490303
v 146.1329068 -58.4340662 126.1960037
v 146.2975194 -58.2694534 126.4549615
v 146.4525616 -58.1144111 126.7249638
v 146.5980333 -57.9689393 127.0055406
v 146.7339344 -57.8330381 127.2959869
v 146.8583510 -57.7086214 127.5955978
v 146.9731970 -57.5937753 127.9036683
v 147.0765585 -57.4904137 128.2192584
v 147.1684353 -57.3985368 128.5418982
v 147.2488276 -57.3181445 128.8704128
v 147.3177352 -57.2492368 129.2043320
v 147.3751582 -57.1918138 129.5424811
v 147.4191825 -57.1477894 129.8843900
v 147.4536364 -57.1133356 130.2291188
v 147.4746915 -57.0922804 130.5757275
v 147.4823479 -57.0846240 130.9232761
v 147.4804338 -57.0865381 131.2710597
v 147.4632069 -57.1037651 131.6181384
v 147.4364095 -57.1305625 131.9638071
v 147.3962133 -57.1707586 132.3068910
v 147.3445326 -57.2224394 132.6469200
v 147.2813673 -57.2856048 132.9827192
v 147.2048033 -57.3621689 133.3138186
v 147.1186687 -57.4483035 133.6390433
v 147.0191355 -57.5478368 133.9579232
v 146.9100317 -57.6569406 134.2695186
v 146.7894434 -57.7775291 134.5728893
v 146.6592845 -57.9076881 134.8673304
v 146.5176410 -58.0493316 135.1523720
v 146.3683412 -58.1986316 135.4273091
v 146.2075567 -58.3594162 135.6912016
v 146.0372017 -58.5297713 135.9433448
v 145.8591903 -58.7077829 136.1835035
v 145.6735226 -58.8934508 136.4107378
v 145.4801984 -59.0867751 136.6245777
v 145.2792178 -59.2877559 136.8247883
v 145.0705808 -59.4963930 137.0104295
v 144.8562015 -59.7107725 137.1812665
v 144.6360799 -59.9308943 137.3368292
v 144.4121301 -60.1548443 137.4766476
v 36.0474329 47.2063000 137.7255107
v 36.4683261 46.8607061 137.7081117
v 35.5629564 47.3794279 137.7833082
v 144.1824380 -60.3845365 137.6004868
v 35.2859864 47.4384389 137.8216104
v 142.5343971 -59.2054495 137.7081117
v 36.5142645 46.8128536 137.7085817
v 142.4693177 -59.1422841 137.7088167
v 36.5582888 46.7630869 137.7095216
v 34.9791556 47.4445074 137.8664942
v 142.4004101 -59.0829469 137.7106966
v 36.6061413 46.7056639 137.7116365
v 142.3276743 -59.0255239 137.7139864
v 36.6520798 46.6482408 137.7142214
v 36.6961041 46.5869895 137.7179812
v 142.2530243 -58.9719290 137.7184512
v 36.7382143 46.5238241 137.7222110
v 142.1745462 -58.9202482 137.7238560
v 36.7784104 46.4587446 137.7273808
v 142.0941539 -58.8723957 137.7306706
v 36.8147783 46.3936652 137.7330205
v 142.0099335 -58.8283713 137.7384253
v 36.8492321 46.3247575 137.7396002
v 34.7897736 47.4313273 137.8937740
v 141.9257131 -58.7881752 137.7473548
v 36.8817719 46.2558498 137.7468849
v 36.9123975 46.1850280 137.7548745
v 141.8472349 -58.7556354 137.7560494
v 36.9391949 46.1142062 137.7633341
v 141.7744991 -58.7307521 137.7647440
v 36.9621641 46.0414703 137.7722637
v 141.7017633 -58.7058688 137.7739086
v 36.9832192 45.9687344 137.7816632
v 141.6290274 -58.6867277 137.7833082
v 37.0023602 45.8959985 137.7915328
v 34.6116482 47.3966548 137.9181918
v 141.5562916 -58.6675867 137.7931777
v 37.0176730 45.8213486 137.8016373
v 141.4816417 -58.6522739 137.8032822
v 37.0291576 45.7486127 137.8119768
v 141.4089058 -58.6407893 137.8138567
v 37.0406422 45.6739627 137.8225513
v 141.3342559 -58.6312188 137.8241962
v 37.0463845 45.6012268 137.8331258
v 34.4206707 47.3457907 137.9428907
v 141.2615201 -58.6254765 137.8350057
v 37.0521268 45.5284909 137.8437003
v 141.1887842 -58.6197341 137.8455802
v 37.0540409 45.4557550 137.8542748
v 141.1179625 -58.6197341 137.8559197
v 37.0521268 45.3849332 137.8648493
v 34.2498832 47.2779805 137.9621347
v 141.0452267 -58.6216483 137.8664942
v 37.0482986 45.3121973 137.8751888
v 140.9724908 -58.6254765 137.8770687
v 37.0425563 45.2375473 137.8857633
v 140.8997550 -58.6312188 137.8874083
v 37.0329858 45.1648114 137.8963378
v 34.1000627 47.2061072 137.9771351
v 140.8251051 -58.6407893 137.8979828
v 37.0215012 45.0901614 137.9064424
v 140.7523692 -58.6541880 137.9080873
v 37.0061884 45.0174255 137.9165469
v 140.6777193 -58.6695008 137.9181918
v 36.9889615 44.9427756 137.9261814
v 33.9187437 47.0942266 137.9903334
v 140.6049835 -58.6867277 137.9278264
v 36.9679064 44.8700397 137.9355810
v 140.5303335 -58.7077829 137.9372259
v 36.9449372 44.7973038 137.9445106
v 140.4595118 -58.7307521 137.9459205
v 36.9181398 44.7264820 137.9529702
v 33.7861687 46.9961011 137.9976425
v 140.3867760 -58.7575495 137.9543801
v 36.8894283 44.6556602 137.9607248
v 140.3159542 -58.7881752 137.9621347
v 36.8588027 44.5867525 137.9680095
v 140.2470466 -58.8188008 137.9691844
v 36.8243488 44.5178448 137.9745892
v 33.6354568 46.8568779 137.9999680
v 140.1800531 -58.8532546 137.9755291
v 36.7879809 44.4508512 137.9802289
v 140.1130596 -58.8915367 137.9811688
v 36.7477848 44.3857718 137.9853986
v 33.5191955 46.7324524 137.9982447
v 140.0479801 -58.9317328 137.9861036
v 36.7075887 44.3226064 137.9896284
v 139.9848148 -58.9719290 137.9903334
v 36.6635644 44.2613551 137.9933883
v 139.9235636 -59.0159533 137.9938582
v 36.6176259 44.2020179 137.9962081
v 33.4000224 46.5716767 137.9896284
v 139.8642264 -59.0618918 137.9966781
v 36.5716875 44.1445949 137.9983230
v 33.3175393 46.4399419 137.9803551
v 139.8087175 -59.1097444 137.9985580
v 36.5219209 44.0890859 137.9994980
v 139.7532086 -59.1595110 137.9997330
v 36.4721543 44.0374051 137.9999680
v 139.7015279 -59.2092777 137.9999680
v 36.4185595 43.9857244 137.9997330
v 33.2488084 46.3075306 137.9680095
v 139.6498471 -59.2609584 137.9994980
v 36.3649646 43.9378718 137.9985580
v 139.6019946 -59.3164674 137.9983230
v 36.3075416 43.8900192 137.9966781
v 33.1758353 46.1438821 137.9505178
v 139.5541421 -59.3738905 137.9962081
v 36.2482045 43.8440808 137.9938582
v 139.5101178 -59.4332277 137.9933883
v 36.1869532 43.8000564 137.9903334
v 33.1186496 45.9495934 137.9261814
v 139.4660935 -59.4944789 137.9896284
v 36.1237879 43.7579462 137.9861036
v 139.4239832 -59.5595584 137.9853986
v 36.0587085 43.7196641 137.9811688
v 139.3857012 -59.6246379 137.9802289
v 35.9936291 43.6813821 137.9755291
v 33.0727789 45.7369974 137.8975279
v 139.3493333 -59.6897174 137.9745892
v 35.9247214 43.6469282 137.9691844
v 139.3148795 -59.7586251 137.9680095
v 35.8558138 43.6143885 137.9621347
v 33.0535701 45.5093499 137.8648493
v 139.2823398 -59.8275328 137.9607248
v 35.7849921 43.5856770 137.9543801
v 139.2536283 -59.8983545 137.9529702
v 35.7141703 43.5588795 137.9459205
v 139.2268309 -59.9710904 137.9445106
v 35.6414345 43.5359103 137.9372259
v 33.0606357 45.2289569 137.8236305
v 139.2038616 -60.0438263 137.9355810
v 35.5686987 43.5148552 137.9278264
v 139.1847206 -60.1165622 137.9261814
v 35.4940487 43.4957142 137.9181918
v 139.1674937 -60.1892981 137.9165469
v 35.4213129 43.4823154 137.9080873
v 33.1224778 44.9236345 137.7816632
v 139.1521809 -60.2639481 137.9064424
v 35.3466630 43.4689167 137.8979828
v 139.1406963 -60.3366840 137.8963378
v 35.2739271 43.4593462 137.8874083
v 33.2874806 44.4731063 137.7272017
v 139.1311258 -60.4113340 137.8857633
v 35.2011913 43.4516898 137.8770687
v 139.1234694 -60.4840699 137.8751888
v 35.1284555 43.4478616 137.8664942
v 139.1196412 -60.5568058 137.8648493
v 35.0557196 43.4459475 137.8559197
v 33.5933466 44.0795154 137.7085817
v 139.1196412 -60.6295417 137.8542748
v 34.9829838 43.4478616 137.8455802
v 139.1215553 -60.7003634 137.8437003
v 34.9102480 43.4516898 137.8350057
v 139.1253835 -60.7730993 137.8331258
v 34.8375121 43.4593462 137.8241962
v 139.1330399 -60.8477493 137.8225513
v 34.7647763 43.4689167 137.8138567
v 33.6392850 44.0316628 137.7081117
v 139.1426104 -60.9204852 137.8119768
v 34.6901264 43.4804013 137.8032822
v 139.1560091 -60.9951352 137.8016373
v 34.6173905 43.4957142 137.7931777
v 139.1713219 -61.0678711 137.7915328
v 34.5427406 43.5129411 137.7833082
v 139.1885488 -61.1406070 137.7816632
v 34.4700048 43.5339962 137.7739086
v 139.2096040 -61.2152570 137.7722637
v 34.3972689 43.5569654 137.7647440
v 139.2344873 -61.2860788 137.7633341
v 34.3264472 43.5837629 137.7560494
v 139.2612847 -61.3588147 137.7548745
v 34.2479691 43.6163026 137.7473548
v 139.2899962 -61.4277224 137.7468849
v 139.3225359 -61.4966300 137.7396002
v 34.1618345 43.6564988 137.7384253
v 139.3569897 -61.5655377 137.7330205
v 34.0795282 43.7005231 137.7306706
v 139.3952717 -61.6325313 137.7273808
v 33.9991360 43.7483757 137.7238560
v 139.4354679 -61.6956967 137.7222110
v 33.9206578 43.8000564 137.7184512
v 139.4775781 -61.7588621 137.7179812
v 33.8440938 43.8536513 137.7139864
v 139.5196883 -61.8201133 137.7142214
v 139.5656267 -61.8794505 137.7116365
v 33.7732721 43.9110744 137.7106966
v 139.6134792 -61.9368736 137.7095216
v 33.7043644 43.9704115 137.7088167
v 139.6594177 -61.9866402 137.7085817
v 139.7053561 -62.0325787 137.7081117
v 140.8882704 -63.6787068 137.6016617
v 140.6585783 -63.9083990 137.4789975
v 140.4365426 -64.1304349 137.3405890
v 140.2183351 -64.3486426 137.1866712
v 140.0058699 -64.5611080 137.0179492
v 139.7991470 -64.7678310 136.8344228
v 139.5981664 -64.9688118 136.6370321
v 139.4067563 -65.1602220 136.4257771
v 139.2210886 -65.3458899 136.2013626
v 139.0430772 -65.5239015 135.9642588
v 138.8746363 -65.6923425 135.7151705
v 138.7157659 -65.8512130 135.4545678
v 138.5645520 -66.0024271 135.1833906
v 138.4248226 -66.1421565 134.9018738
v 138.2927496 -66.2742296 134.6107225
v 138.1721613 -66.3948180 134.3111116
v 138.0630575 -66.5039219 134.0032761
v 137.9635243 -66.6034552 133.6881559
v 137.8754756 -66.6915039 133.3666911
v 137.7989116 -66.7680680 133.0393515
v 137.7338322 -66.8331475 132.7070771
v 137.6802374 -66.8867424 132.3705730
v 137.6381271 -66.9288526 132.0310140
v 137.6075015 -66.9594783 131.6886351
v 137.5902746 -66.9767052 131.3448463
v 139.7053561 -62.0325787 138.4356374
v 141.1221999 -63.4447771 138.0759507
v 138.5492392 -66.0177399 125.7516396
v 138.7406492 -65.8263296 125.4767025
v 138.3693137 -66.1976655 126.0397360
v 138.9397157 -65.6272630 125.2153948
v 138.1989587 -66.3680206 126.3402869
v 139.1483527 -65.4186258 124.9686564
v 138.0400883 -66.5268911 126.6525872
v 139.3665602 -65.2004182 124.7369574
v 137.8907885 -66.6761911 126.9754620
v 139.5905100 -64.9764682 124.5210025
v 137.7548873 -66.8120924 127.3086763
v 139.8240303 -64.7429477 124.3210269
v 137.6304707 -66.9365090 127.6510552
v 140.0632929 -64.5036849 124.1379706
v 137.5194529 -67.0475270 128.0016587
v 140.3082978 -64.2586798 123.9720684
v 137.4180055 -67.1489744 128.3597818
v 140.5609592 -64.0060183 123.8235554
v 137.3318710 -67.2351090 128.7247196
v 140.8155346 -63.7514427 123.6931365
v 137.2572211 -67.3097590 129.0950622
v 141.0758523 -63.4911247 123.5808118
v 137.1978839 -67.3690962 129.4703395
v 141.3399982 -63.2269786 123.4870512
v 137.1500314 -67.4169487 129.8493767
v 141.6079723 -62.9590043 123.4120897
v 137.1155776 -67.4514026 130.2312337
v 141.8759465 -62.6910299 123.3561624
v 137.0964366 -67.4705436 130.6152056
v 142.1477488 -62.4192274 123.3192691
v 137.0887802 -67.4782000 130.9998825
v 142.4195511 -62.1474248 123.3016449
v 137.0945225 -67.4724577 131.3728099
v 142.6913534 -61.8756223 123.3032898
v 137.1136635 -67.4533167 131.7447974
v 142.9631557 -61.6038198 123.3239689
v 137.1462032 -67.4207769 132.1151400
v 143.2349581 -61.3320172 123.3639170
v 137.1902275 -67.3767526 132.4828977
v 143.5029322 -61.0640429 123.4231342
v 137.2476506 -67.3193295 132.8468956
v 143.7689922 -60.7979827 123.5011505
v 137.3165582 -67.2504218 133.2068986
v 144.0331381 -60.5338365 123.5977310
v 137.3988645 -67.1681154 133.5614969
v 144.2934558 -60.2735186 123.7131106
v 137.4926555 -67.0743244 133.9102205
v 144.5480313 -60.0189430 123.8465843
v 137.5979310 -66.9690488 134.2518944
v 144.7987785 -59.7681956 123.9979171
v 137.7146912 -66.8522885 134.5860487
v 145.0437834 -59.5231905 124.1666392
v 137.8429359 -66.7240437 134.9119783
v 145.2811319 -59.2858418 124.3525154
v 137.9826653 -66.5843142 135.2285084
v 145.5127381 -59.0542354 124.5550759
v 138.1338793 -66.4331001 135.5351690
v 145.7366879 -58.8302854 124.7736156
v 138.2946637 -66.2723155 135.8312551
v 145.9529813 -58.6139918 125.0078996
v 138.4650187 -66.1019604 136.1158267
v 146.1597042 -58.4072688 125.2569879
v 138.6449442 -65.9220348 136.3886488
v 146.3587707 -58.2082021 125.5206455
v 138.8325261 -65.7344527 136.6485466
v 146.5482667 -58.0187060 125.7976974
v 139.0315926 -65.5353861 136.8952850
v 146.7262780 -57.8406945 126.0879088
v 139.2364014 -65.3305771 137.1283940
v 146.8947189 -57.6722535 126.3905745
v 139.4507807 -65.1161977 137.3469337
v 147.0516752 -57.5152971 126.7045197
v 139.6709023 -64.8960759 137.5506691
v 147.1990609 -57.3679112 127.0292744
v 139.8986803 -64.6682977 137.7388952
v 147.3330480 -57.2339240 127.3638987
v 140.1341147 -64.4328631 137.9113771
v 147.4555505 -57.1114215 127.7076875
v 140.3733773 -64.1936003 138.0676448
v 147.5665683 -57.0023176 128.0597009
v 140.6164681 -63.9505093 138.2074632
v 147.6641875 -56.9046984 128.4189990
v 140.8672153 -63.6997619 138.3301274
v 147.7484079 -56.8185638 128.7846418
v 147.8192296 -56.7477420 129.1559243
v 147.8785668 -56.6884048 129.5319066
v 147.9245052 -56.6443805 129.9114137
v 147.9551308 -56.6118407 130.2937407
v 147.9742718 -56.5926997 130.6779477
v 147.9781000 -56.5888715 131.0626246
v 147.9685295 -56.5984420 131.4475364
v 147.9455603 -56.6214113 131.8310384
v 147.9111065 -56.6558651 132.2126604
v 147.8613398 -56.7056318 132.5909926
v 147.7981745 -56.7687971 132.9655650
v 147.7216105 -56.8453612 133.3352026
v 144.2092354 -60.3577391 138.3263676
v 143.9458534 -60.6211038 138.2565085
v 147.6335618 -56.9334099 133.6989654
v 144.4657249 -60.1012494 138.1990036
v 147.5302004 -57.0367715 134.0559136
v 144.7183862 -59.8485879 138.0533104
v 147.4172684 -57.1497035 134.4053422
v 144.9633911 -59.6035828 137.8902281
v 147.2909378 -57.2760343 134.7463111
v 145.2045679 -59.3624059 137.7097566
v 147.1512084 -57.4157637 135.0776455
v 145.4380882 -59.1288854 137.5126009
v 147.0019086 -57.5650637 135.3991104
v 145.6639521 -58.9030213 137.2992309
v 146.8411241 -57.7258483 135.7092958
v 145.8840737 -58.6828995 137.0701167
v 146.6688550 -57.8981175 136.0079667
v 146.0946248 -58.4723483 136.8257282
v 146.4870154 -58.0799573 136.2939483
v 146.2956053 -58.2713675 136.5667704
v 142.4980292 -59.1690815 138.4358724
v 142.4597472 -59.1346277 138.4365774
v 142.4042383 -59.0867751 138.4379873
v 142.3449012 -59.0389226 138.4401022
v 142.2855640 -58.9948982 138.4431571
v 142.2223987 -58.9508739 138.4466819
v 142.1573193 -58.9106777 138.4509117
v 142.0922398 -58.8723957 138.4560815
v 142.0252463 -58.8360277 138.4617212
v 141.9563387 -58.8015739 138.4680659
v 141.8855170 -58.7709482 138.4748806
v 141.8146952 -58.7441508 138.4824002
v 141.7419594 -58.7192675 138.4906249
v 141.6692236 -58.6962982 138.4990845
v 141.5945736 -58.6771572 138.5077790
v 141.5199237 -58.6599303 138.5169436
v 141.4471879 -58.6465316 138.5263432
v 141.3725379 -58.6350470 138.5357427
v 141.2978880 -58.6273906 138.5453773
v 141.2251522 -58.6216483 138.5550118
v 141.1524163 -58.6197341 138.5646464
v 141.0796805 -58.6197341 138.5742809
v 141.0069447 -58.6216483 138.5839155
v 140.9342088 -58.6273906 138.5933150
v 140.8595589 -58.6369611 138.6029496
v 140.7849090 -58.6484457 138.6123491
v 140.7102590 -58.6618444 138.6215137
v 140.6375232 -58.6790713 138.6304433
v 140.5628733 -58.6982123 138.6391379
v 140.4901374 -58.7211816 138.6473625
v 140.4174016 -58.7460649 138.6553521
v 140.3465799 -58.7747764 138.6626368
v 140.2757581 -58.8054021 138.6692164
v 140.2068505 -58.8398559 138.6753262
v 140.1398570 -58.8762239 138.6807309
v 140.0747775 -58.9145059 138.6856657
v 140.0096981 -58.9547021 138.6896605
v 139.9484469 -58.9987264 138.6931853
v 139.8871957 -59.0446649 138.6960052
v 139.8297726 -59.0906033 138.6981201
v 139.7742637 -59.1403700 138.6992950
v 139.7206689 -59.1901367 138.7000000
v 139.6689882 -59.2418174 138.6997650
v 139.6192215 -59.2954123 138.6988251
v 139.5713690 -59.3528354 138.6971801
v 139.5254306 -59.4121725 138.6950652
v 139.4814063 -59.4734238 138.6920104
v 139.4392961 -59.5365892 138.6882506
v 139.3990999 -59.6016687 138.6837858
v 139.3608179 -59.6667482 138.6786160
v 139.3263641 -59.7356558 138.6729763
v 139.2919103 -59.8045635 138.6666316
v 139.2631988 -59.8753853 138.6595819
v 139.2364014 -59.9481212 138.6520623
v 139.2115181 -60.0189430 138.6440726
v 139.1904629 -60.0935930 138.6358480
v 139.1713219 -60.1663289 138.6269184
v 139.1560091 -60.2409789 138.6177539
v 139.1426104 -60.3156289 138.6085893
v 139.1330399 -60.3902789 138.5991897
v 139.1253835 -60.4630147 138.5895552
v 139.1215553 -60.5357506 138.5799207
v 139.1196412 -60.6084865 138.5702861
v 139.1196412 -60.6812224 138.5608865
v 139.1234694 -60.7539583 138.5512520
v 139.1311258 -60.8286083 138.5416175
v 139.1406963 -60.9013442 138.5319829
v 139.1521809 -60.9759942 138.5223484
v 139.1674937 -61.0506442 138.5131838
v 139.1847206 -61.1252942 138.5042542
v 139.2057757 -61.1980301 138.4955596
v 139.2287450 -61.2707660 138.4871000
v 139.2555424 -61.3435018 138.4793454
v 139.2880821 -61.4219800 138.4713558
v 139.3282782 -61.5081147 138.4631312
v 139.3723025 -61.5904211 138.4560815
v 139.4201550 -61.6727275 138.4499718
v 139.4718358 -61.7512057 138.4450370
v 139.5254306 -61.8258556 138.4410422
v 139.5828536 -61.8985915 138.4379873
v 139.6421907 -61.9674992 138.4363424
v 33.6392850 44.0316628 123.5641276
v 33.4358799 44.2588575 123.5596244
v 33.2698635 44.5408141 123.5382788
v 33.9367538 43.7775626 123.5563324
v 34.2517973 43.6143885 123.5286442
v 34.9179044 43.4516898 123.4487480
v 33.0132752 45.2958021 123.4517835
v 35.1634606 43.4458888 123.4163429
v 35.4308834 43.4842295 123.3820111
v 35.6557970 43.5363410 123.3550700
v 35.8672984 43.6201308 123.3333684
v 36.0495651 43.7109670 123.3174429
v 36.2003520 43.8077128 123.3079896
v 36.3594442 43.9315342 123.3009381
v 36.4836389 44.0469756 123.3000000
v 36.6101058 44.1895630 123.3026185
v 36.7171592 44.3379192 123.3101045
v 33.6724403 47.0260397 123.2766586
v 36.8355354 44.5330182 123.3239443
v 36.9257962 44.7456230 123.3446479
v 36.9890499 44.9394786 123.3662604
v 37.0253294 45.1131307 123.3876509
v 35.3070726 47.4599963 123.4655939
v 35.9419483 47.2377843 123.5368688
v 36.4683261 46.8607061 123.5641276
v 36.2305691 47.0692461 123.5589696
v 37.0579893 45.4044108 123.4253185
v 37.0368140 45.6988460 123.4642573
v 36.9591940 46.0856834 123.5124779
v 36.7994655 46.4185485 123.5439185
v 36.6520170 46.6564514 123.5605365
v 36.4683261 46.8607061 138.4356374
v 36.2324010 47.0712980 138.4407856
v 35.9323778 47.2435266 138.4640711
v 36.5295773 46.7956267 138.4363424
v 36.5889144 46.7267190 138.4379873
v 36.6463375 46.6539831 138.4410422
v 36.7018464 46.5774190 138.4450370
v 36.7535271 46.4989408 138.4499718
v 36.8013796 46.4185485 138.4560815
v 36.8454039 46.3343280 138.4631312
v 36.8856001 46.2481934 138.4713558
v 36.9181398 46.1697152 138.4793454
v 36.9449372 46.0988934 138.4871000
v 36.9679064 46.0261575 138.4955596
v 36.9870474 45.9515075 138.5042542
v 37.0061884 45.8787716 138.5131838
v 35.2046136 47.4804487 138.5482403
v 37.0215012 45.8041216 138.5223484
v 37.0329858 45.7294716 138.5319829
v 37.0425563 45.6548216 138.5416175
v 37.0482986 45.5820858 138.5512520
v 37.0521268 45.5093499 138.5608865
v 37.0540409 45.4366140 138.5702861
v 37.0521268 45.3638781 138.5799207
v 37.0463845 45.2911422 138.5895552
v 37.0387281 45.2164922 138.5991897
v 37.0291576 45.1437563 138.6085893
v 37.0157589 45.0691063 138.6177539
v 37.0004461 44.9944563 138.6269184
v 36.9832192 44.9198063 138.6358480
v 36.9602500 44.8470704 138.6440726
v 36.9372808 44.7743345 138.6520623
v 36.9104834 44.7035128 138.6595819
v 36.8798578 44.6326910 138.6666316
v 36.8473180 44.5637833 138.6729763
v 36.8109501 44.4948756 138.6786160
v 36.7745822 44.4278820 138.6837858
v 36.7343861 44.3628025 138.6882506
v 36.6922759 44.2996372 138.6920104
v 36.6463375 44.2403000 138.6950652
v 36.6003990 44.1809628 138.6971801
v 36.5525465 44.1235397 138.6988251
v 36.5027799 44.0699449 138.6997650
v 36.4530133 44.0182641 138.7000000
v 36.3994184 43.9665833 138.6992950
v 36.3419954 43.9187308 138.6981201
v 36.2845724 43.8708782 138.6960052
v 33.6055889 46.9411581 138.7195640
v 36.2252353 43.8268539 138.6931853
v 36.1620699 43.7828295 138.6896605
v 36.0989046 43.7426334 138.6856657
v 36.0319111 43.7024372 138.6807309
v 35.9649175 43.6660693 138.6753262
v 35.8960099 43.6335295 138.6692164
v 35.8251882 43.6029039 138.6626368
v 35.7543665 43.5741923 138.6553521
v 35.6816306 43.5493090 138.6473625
v 35.6088948 43.5263398 138.6391379
v 35.5361590 43.5052847 138.6304433
v 35.4615090 43.4899718 138.6215137
v 35.3868591 43.4746590 138.6123491
v 33.0126596 45.3031776 138.5492897
v 35.3122092 43.4631744 138.6029496
v 33.2622071 44.5561269 138.4628962
v 35.2394733 43.4555180 138.5933150
v 35.1648234 43.4497757 138.5839155
v 33.6603401 44.0125218 138.4358724
v 33.4447963 44.2470555 138.4398863
v 35.0920876 43.4478616 138.5742809
v 35.0212658 43.4478616 138.5646464
v 34.9485300 43.4497757 138.5550118
v 34.8738801 43.4555180 138.5453773
v 34.8011442 43.4631744 138.5357427
v 34.7264943 43.4746590 138.5263432
v 34.6518444 43.4880577 138.5169436
v 34.5771944 43.5052847 138.5077790
v 34.5044586 43.5244257 138.4990845
v 34.4317228 43.5454808 138.4906249
v 34.3589869 43.5703641 138.4824002
v 34.2881652 43.5990757 138.4748806
v 34.2173435 43.6297013 138.4680659
v 34.1484358 43.6641552 138.4617212
v 34.0814423 43.7005231 138.4560815
v 34.0144488 43.7388052 138.4509117
v 33.9512834 43.7790013 138.4466819
v 33.8881181 43.8211116 138.4431571
v 33.8268669 43.8670500 138.4401022
v 33.7694439 43.9129885 138.4379873
v 33.7139349 43.9627551 138.4365774
f 1 2 3
f 4 5 1
f 1 5 2
f 3 6 7
f 2 6 3
f 8 9 4
f 4 9 5
f 7 10 11
f 6 10 7
f 12 13 8
f 8 13 9
f 11 14 15
f 10 14 11
f 16 17 12
f 12 17 13
f 15 18 19
f 14 18 15
f 20 21 16
f 16 21 17
f 19 22 23
f 18 22 19
f 20 24 21
f 25 24 20
f 23 26 27
f 22 26 23
f 25 28 24
f 29 28 25
f 26 30 27
f 27 30 31
f 32 33 29
f 29 33 28
f 31 34 35
f 30 34 31
f 36 37 32
f 32 37 33
f 35 38 39
f 34 38 35
f 40 41 36
f 36 41 37
f 39 42 43
f 38 42 39
f 44 45 40
f 40 45 41
f 43 46 47
f 42 46 43
f 48 49 44
f 44 49 45
f 47 50 72
f 46 50 47
f 51 52 48
f 48 52 49
f 50 53 72
f 54 55 51
f 51 55 52
f 53 56 72
f 57 58 54
f 54 58 55
f 56 59 72
f 60 61 57
f 57 61 58
f 59 62 72
f 63 64 60
f 60 64 61
f 62 65 72
f 66 67 63
f 63 67 64
f 65 68 72
f 69 70 66
f 66 70 67
f 68 71 72
f 73 74 69
f 69 74 70
f 72 75 76
f 71 75 72
f 73 77 74
f 78 77 73
f 75 79 76
f 76 79 80
f 78 81 77
f 78 82 81
f 79 83 80
f 80 83 84
f 82 85 81
f 82 86 85
f 83 87 84
f 84 87 88
f 86 89 85
f 86 90 89
f 87 91 88
f 88 91 92
f 90 93 89
f 90 94 93
f 92 95 96
f 91 95 92
f 94 97 93
f 95 98 96
f 96 98 99
f 94 100 97
f 100 101 97
f 98 102 99
f 99 102 103
f 100 104 101
f 104 105 101
f 103 106 107
f 102 106 103
f 104 108 105
f 108 109 105
f 107 110 111
f 106 110 107
f 108 112 109
f 112 113 109
f 111 114 115
f 110 114 111
f 112 116 113
f 116 117 113
f 115 118 119
f 114 118 115
f 116 120 117
f 117 120 121
f 118 122 119
f 122 123 119
f 120 124 121
f 121 124 125
f 122 126 123
f 126 127 123
f 125 128 129
f 124 128 125
f 126 130 127
f 130 131 127
f 128 132 129
f 129 132 133
f 130 134 131
f 134 135 131
f 132 136 133
f 133 136 137
f 134 138 135
f 138 139 135
f 138 140 139
f 136 141 137
f 137 141 142
f 140 143 139
f 140 144 143
f 142 145 146
f 141 145 142
f 144 147 143
f 144 148 147
f 146 149 150
f 145 149 146
f 148 151 147
f 148 152 151
f 150 153 154
f 149 153 150
f 152 155 151
f 152 156 155
f 154 157 158
f 153 157 154
f 156 159 155
f 160 159 156
f 158 161 162
f 157 161 158
f 160 163 159
f 164 163 160
f 162 165 166
f 161 165 162
f 164 167 163
f 166 168 169
f 165 168 166
f 164 170 167
f 171 170 172
f 172 170 164
f 169 168 173
f 171 174 170
f 175 174 171
f 173 168 176
f 175 177 174
f 178 177 175
f 176 168 179
f 178 180 177
f 181 180 178
f 179 168 182
f 181 183 180
f 184 183 181
f 182 168 185
f 184 186 183
f 187 186 184
f 185 168 188
f 187 189 186
f 190 189 187
f 188 168 191
f 190 192 189
f 193 192 190
f 191 194 195
f 168 194 191
f 193 196 192
f 197 196 193
f 194 198 195
f 195 198 199
f 200 201 197
f 197 201 196
f 199 202 203
f 198 202 199
f 204 205 200
f 200 205 201
f 203 206 207
f 202 206 203
f 204 208 205
f 209 208 204
f 206 210 207
f 207 210 211
f 209 212 208
f 213 212 209
f 210 214 211
f 211 214 215
f 213 216 212
f 217 216 213
f 214 218 215
f 215 218 219
f 217 220 216
f 221 220 217
f 219 222 223
f 218 222 219
f 221 224 220
f 225 224 221
f 223 226 227
f 222 226 223
f 225 228 224
f 229 228 225
f 227 230 231
f 226 230 227
f 229 232 228
f 233 232 229
f 230 234 231
f 231 234 235
f 233 236 232
f 237 236 233
f 234 238 235
f 237 238 236
f 235 238 237
f 61 239 58
f 240 239 61
f 58 241 55
f 239 241 58
f 55 242 52
f 241 242 55
f 52 243 49
f 242 243 52
f 49 244 45
f 243 244 49
f 45 245 41
f 244 245 45
f 41 246 37
f 245 246 41
f 37 247 33
f 246 247 37
f 33 248 28
f 247 248 33
f 28 249 24
f 248 249 28
f 24 250 21
f 249 250 24
f 21 251 17
f 250 251 21
f 251 252 17
f 17 252 13
f 13 253 9
f 252 253 13
f 253 254 9
f 9 254 5
f 5 255 2
f 254 255 5
f 2 256 6
f 255 256 2
f 6 257 10
f 256 257 6
f 10 258 14
f 257 258 10
f 14 259 18
f 258 259 14
f 18 260 22
f 259 260 18
f 22 261 26
f 260 261 22
f 26 262 30
f 261 262 26
f 30 263 34
f 262 263 30
f 264 42 38
f 265 42 264
f 265 266 42
f 34 267 38
f 38 267 264
f 264 267 268
f 263 267 34
f 266 46 42
f 269 46 266
f 269 270 46
f 267 271 268
f 272 271 273
f 268 271 272
f 270 50 46
f 274 50 270
f 274 275 50
f 276 277 278
f 273 277 276
f 271 277 273
f 275 53 50
f 279 53 275
f 279 280 53
f 281 282 283
f 277 282 278
f 278 282 281
f 284 56 280
f 280 56 53
f 284 285 56
f 286 287 288
f 283 287 286
f 282 287 283
f 289 59 285
f 285 59 56
f 289 290 59
f 291 292 293
f 288 292 291
f 287 292 288
f 294 62 290
f 290 62 59
f 294 295 62
f 292 296 293
f 297 296 298
f 293 296 297
f 299 65 295
f 295 65 62
f 299 300 65
f 301 302 303
f 298 302 301
f 296 302 298
f 304 68 300
f 300 68 65
f 304 305 68
f 306 307 308
f 303 307 306
f 302 307 303
f 305 71 68
f 309 71 305
f 309 310 71
f 307 311 308
f 312 311 313
f 308 311 312
f 314 75 310
f 310 75 71
f 314 315 75
f 316 317 318
f 313 317 316
f 311 317 313
f 319 79 315
f 315 79 75
f 319 320 79
f 321 322 323
f 318 322 321
f 317 322 318
f 320 83 79
f 324 83 320
f 322 325 323
f 326 325 327
f 323 325 326
f 324 328 83
f 327 328 324
f 325 328 327
f 328 329 83
f 83 329 87
f 329 330 87
f 87 330 91
f 330 331 91
f 91 331 95
f 331 332 95
f 95 332 98
f 332 333 98
f 98 333 102
f 333 334 102
f 102 334 106
f 334 335 106
f 106 335 110
f 110 336 114
f 335 336 110
f 114 337 118
f 336 337 114
f 118 338 122
f 337 338 118
f 122 339 126
f 338 339 122
f 126 340 130
f 339 340 126
f 130 341 134
f 340 341 130
f 341 342 134
f 134 342 138
f 342 343 138
f 138 343 140
f 343 344 140
f 140 344 144
f 344 345 144
f 144 345 148
f 345 346 148
f 148 346 152
f 346 347 152
f 152 347 156
f 347 348 156
f 156 348 160
f 348 349 160
f 160 349 164
f 349 350 164
f 164 350 172
f 350 351 172
f 172 351 171
f 351 352 171
f 171 352 175
f 352 353 175
f 175 353 178
f 353 354 178
f 178 354 181
f 354 355 181
f 181 355 184
f 355 356 184
f 184 356 187
f 187 357 190
f 356 357 187
f 190 358 193
f 357 358 190
f 193 359 197
f 358 359 193
f 197 360 200
f 359 360 197
f 200 361 204
f 360 361 200
f 204 362 209
f 361 362 204
f 209 363 213
f 362 363 209
f 213 364 217
f 363 364 213
f 217 365 221
f 364 365 217
f 221 366 225
f 365 366 221
f 366 367 225
f 225 367 229
f 367 368 229
f 229 368 233
f 368 369 233
f 233 369 237
f 369 370 237
f 237 370 235
f 370 371 235
f 235 371 231
f 371 372 231
f 231 372 227
f 372 373 227
f 227 373 223
f 373 374 223
f 223 374 219
f 374 375 219
f 219 375 215
f 375 376 215
f 215 376 211
f 211 377 207
f 376 377 211
f 378 199 379
f 379 199 203
f 378 380 199
f 207 381 203
f 377 381 207
f 203 381 379
f 382 195 380
f 380 195 199
f 381 383 379
f 379 383 384
f 383 385 384
f 384 385 386
f 382 387 195
f 385 388 386
f 386 388 389
f 381 693 383
f 388 390 389
f 391 390 392
f 389 390 391
f 390 393 392
f 392 393 394
f 393 395 394
f 394 395 396
f 395 397 396
f 396 397 398
f 397 399 398
f 398 399 400
f 387 191 195
f 401 191 387
f 399 402 400
f 403 402 404
f 400 402 403
f 402 405 404
f 404 405 406
f 405 407 406
f 406 407 408
f 408 409 410
f 407 409 408
f 410 411 412
f 409 411 410
f 401 413 191
f 412 414 415
f 411 414 412
f 415 416 417
f 414 416 415
f 417 418 419
f 416 418 417
f 419 420 421
f 418 420 419
f 422 188 413
f 413 188 191
f 420 423 421
f 421 423 424
f 423 425 424
f 424 425 426
f 425 427 426
f 426 427 428
f 422 429 188
f 427 430 428
f 428 430 431
f 430 432 431
f 431 432 433
f 432 434 433
f 433 434 435
f 429 185 188
f 436 185 429
f 434 437 435
f 435 437 438
f 437 439 438
f 438 439 440
f 439 441 440
f 440 441 442
f 436 443 185
f 441 444 442
f 442 444 445
f 445 446 447
f 444 446 445
f 447 448 449
f 446 448 447
f 443 182 185
f 450 182 443
f 449 451 452
f 448 451 449
f 452 453 454
f 451 453 452
f 453 455 454
f 454 455 456
f 450 457 182
f 455 458 456
f 456 458 459
f 458 460 459
f 459 460 461
f 462 179 457
f 457 179 182
f 461 463 464
f 460 463 461
f 463 465 464
f 464 465 466
f 465 467 466
f 466 467 468
f 462 469 179
f 467 470 468
f 468 470 471
f 469 176 179
f 472 176 469
f 470 473 471
f 471 473 474
f 473 475 474
f 474 475 476
f 475 477 476
f 476 477 478
f 472 479 176
f 478 480 481
f 477 480 478
f 480 482 481
f 481 482 483
f 479 173 176
f 484 173 479
f 483 485 486
f 482 485 483
f 486 487 488
f 485 487 486
f 484 489 173
f 487 490 488
f 488 490 491
f 490 492 491
f 491 492 493
f 492 494 493
f 493 494 495
f 489 169 173
f 496 169 489
f 495 497 498
f 494 497 495
f 498 499 500
f 497 499 498
f 496 501 169
f 499 502 500
f 500 502 503
f 502 504 503
f 503 504 505
f 504 506 505
f 505 506 507
f 501 166 169
f 508 166 501
f 507 509 510
f 506 509 507
f 510 511 512
f 509 511 510
f 511 513 512
f 512 513 514
f 508 515 166
f 514 516 517
f 513 516 514
f 517 518 519
f 516 518 517
f 515 162 166
f 520 162 515
f 518 521 519
f 519 521 522
f 522 523 524
f 521 523 522
f 523 525 524
f 524 525 526
f 520 527 162
f 525 528 526
f 526 528 529
f 529 530 531
f 528 530 529
f 531 532 533
f 530 532 531
f 533 534 535
f 532 534 533
f 536 158 527
f 527 158 162
f 535 537 538
f 534 537 535
f 538 539 540
f 537 539 538
f 540 541 542
f 539 541 540
f 542 543 544
f 541 543 542
f 544 545 546
f 543 545 544
f 545 547 546
f 546 547 548
f 548 549 550
f 547 549 548
f 549 551 550
f 550 552 553
f 551 552 550
f 553 554 555
f 552 554 553
f 555 556 557
f 554 556 555
f 557 558 559
f 556 558 557
f 559 560 561
f 558 560 559
f 560 562 561
f 561 563 564
f 562 563 561
f 564 565 566
f 563 565 564
f 566 567 536
f 565 567 566
f 567 568 536
f 158 569 154
f 536 569 158
f 595 569 568
f 568 569 536
f 154 570 150
f 569 570 154
f 150 571 146
f 570 571 150
f 146 572 142
f 571 572 146
f 142 573 137
f 572 573 142
f 137 574 133
f 573 574 137
f 133 575 129
f 574 575 133
f 575 576 129
f 129 576 125
f 576 577 125
f 125 577 121
f 577 578 121
f 121 578 117
f 117 579 113
f 578 579 117
f 113 580 109
f 579 580 113
f 109 581 105
f 580 581 109
f 105 582 101
f 581 582 105
f 101 583 97
f 582 583 101
f 97 584 93
f 583 584 97
f 93 585 89
f 584 585 93
f 89 586 85
f 585 586 89
f 85 587 81
f 586 587 85
f 81 588 77
f 587 588 81
f 77 589 74
f 588 589 77
f 74 590 70
f 589 590 74
f 70 591 67
f 590 591 70
f 67 592 64
f 591 592 67
f 64 593 61
f 592 593 64
f 593 240 61
f 594 595 568
f 255 596 597
f 254 598 596
f 254 596 255
f 256 597 599
f 256 255 597
f 253 600 598
f 253 598 254
f 257 599 601
f 257 256 599
f 252 602 600
f 252 600 253
f 258 601 603
f 258 257 601
f 251 604 602
f 251 602 252
f 259 603 605
f 259 258 603
f 250 606 604
f 250 604 251
f 260 605 607
f 260 259 605
f 249 608 606
f 249 606 250
f 261 607 609
f 261 260 607
f 248 610 608
f 248 608 249
f 262 261 609
f 262 609 611
f 247 610 248
f 247 612 610
f 263 262 611
f 263 611 613
f 246 614 612
f 246 612 247
f 267 263 613
f 267 613 615
f 245 614 246
f 245 616 614
f 271 267 615
f 271 615 617
f 244 616 245
f 244 618 616
f 277 271 617
f 277 617 619
f 243 620 618
f 243 618 244
f 282 277 619
f 282 619 621
f 242 620 243
f 242 622 620
f 287 282 621
f 287 621 623
f 241 622 242
f 241 624 622
f 292 287 623
f 292 623 625
f 239 626 624
f 239 624 241
f 296 292 625
f 296 625 627
f 240 628 626
f 240 626 239
f 302 627 629
f 302 296 627
f 593 630 628
f 593 628 240
f 307 302 629
f 307 629 631
f 592 632 630
f 592 630 593
f 311 631 633
f 311 307 631
f 591 634 632
f 591 632 592
f 317 633 635
f 317 311 633
f 590 636 634
f 590 634 591
f 322 635 637
f 322 317 635
f 589 638 636
f 589 636 590
f 325 637 639
f 325 322 637
f 588 638 589
f 588 640 638
f 328 639 641
f 328 325 639
f 587 640 588
f 642 640 587
f 329 328 641
f 329 641 643
f 586 642 587
f 644 642 586
f 330 329 643
f 330 643 645
f 585 644 586
f 646 644 585
f 331 330 645
f 331 645 647
f 584 646 585
f 648 646 584
f 332 331 647
f 332 647 649
f 583 648 584
f 650 648 583
f 333 332 649
f 333 649 651
f 582 650 583
f 652 650 582
f 334 333 651
f 334 651 653
f 581 652 582
f 335 334 653
f 654 652 581
f 655 335 653
f 580 654 581
f 336 335 655
f 656 654 580
f 657 336 655
f 579 656 580
f 337 336 657
f 658 656 579
f 659 337 657
f 578 658 579
f 338 337 659
f 660 658 578
f 661 338 659
f 577 660 578
f 339 338 661
f 662 660 577
f 576 662 577
f 663 339 661
f 340 339 663
f 664 662 576
f 575 664 576
f 665 340 663
f 341 340 665
f 666 664 575
f 666 575 574
f 667 341 665
f 342 341 667
f 668 666 574
f 668 574 573
f 669 342 667
f 343 342 669
f 670 573 572
f 670 668 573
f 671 343 669
f 344 343 671
f 672 670 572
f 672 572 571
f 673 344 671
f 673 345 344
f 674 571 570
f 674 672 571
f 675 345 673
f 675 346 345
f 676 570 569
f 676 674 570
f 677 347 346
f 677 346 675
f 678 569 595
f 678 676 569
f 679 348 347
f 679 347 677
f 680 349 348
f 680 348 679
f 681 350 349
f 681 349 680
f 682 351 350
f 682 350 681
f 683 352 351
f 683 351 682
f 684 353 352
f 684 352 683
f 685 354 353
f 685 353 684
f 686 355 354
f 686 354 685
f 687 355 686
f 687 356 355
f 688 356 687
f 688 357 356
f 689 357 688
f 689 358 357
f 690 358 689
f 690 359 358
f 691 359 690
f 691 360 359
f 692 693 381
f 694 361 360
f 694 360 691
f 695 381 377
f 695 692 381
f 696 362 361
f 696 361 694
f 697 377 376
f 697 695 377
f 698 363 362
f 698 362 696
f 699 376 375
f 699 697 376
f 700 363 698
f 700 364 363
f 701 375 374
f 701 699 375
f 702 364 700
f 702 365 364
f 703 374 373
f 703 701 374
f 704 366 365
f 704 365 702
f 705 373 372
f 705 703 373
f 706 367 366
f 706 366 704
f 707 372 371
f 707 705 372
f 708 368 367
f 708 367 706
f 709 371 370
f 709 707 371
f 710 369 368
f 710 368 708
f 711 370 369
f 711 709 370
f 711 369 710
f 693 712 383
f 383 712 385
f 712 713 385
f 385 713 388
f 713 714 388
f 714 715 388
f 388 715 390
f 390 716 393
f 715 716 390
f 393 717 395
f 716 717 393
f 395 718 397
f 717 718 395
f 718 719 397
f 719 720 397
f 397 720 399
f 720 721 399
f 399 721 402
f 721 722 402
f 402 722 405
f 722 723 405
f 405 723 407
f 723 724 407
f 407 724 409
f 724 725 409
f 409 725 411
f 725 726 411
f 411 726 414
f 726 727 414
f 414 727 416
f 727 728 416
f 416 728 418
f 728 729 418
f 418 729 420
f 420 730 423
f 729 730 420
f 423 731 425
f 730 731 423
f 425 732 427
f 731 732 425
f 427 733 430
f 732 733 427
f 430 734 432
f 733 734 430
f 432 735 434
f 734 735 432
f 434 736 437
f 735 736 434
f 437 737 439
f 736 737 437
f 439 738 441
f 737 738 439
f 441 739 444
f 738 739 441
f 444 740 446
f 739 740 444
f 446 741 448
f 740 741 446
f 448 742 451
f 741 742 448
f 451 743 453
f 742 743 451
f 453 744 455
f 743 744 453
f 455 745 458
f 744 745 455
f 745 746 458
f 458 746 460
f 746 747 460
f 460 747 463
f 747 748 463
f 463 748 465
f 748 749 465
f 465 749 467
f 467 750 470
f 749 750 467
f 470 751 473
f 750 751 470
f 473 752 475
f 751 752 473
f 475 753 477
f 752 753 475
f 477 754 480
f 753 754 477
f 480 755 482
f 754 755 480
f 482 756 485
f 755 756 482
f 485 757 487
f 756 757 485
f 757 758 487
f 487 758 490
f 490 759 492
f 758 759 490
f 492 760 494
f 759 760 492
f 760 761 494
f 494 761 497
f 497 762 499
f 761 762 497
f 499 763 502
f 762 763 499
f 502 764 504
f 763 764 502
f 504 765 506
f 764 765 504
f 506 766 509
f 765 766 506
f 509 767 511
f 766 767 509
f 511 768 513
f 767 768 511
f 513 769 516
f 768 769 513
f 516 770 518
f 769 770 516
f 518 771 521
f 770 771 518
f 771 772 521
f 521 772 523
f 772 773 523
f 523 773 525
f 773 774 525
f 525 774 528
f 774 775 528
f 528 775 530
f 775 776 530
f 530 776 532
f 776 777 532
f 532 777 534
f 777 778 534
f 534 778 537
f 778 779 537
f 537 779 539
f 779 780 539
f 539 780 541
f 780 781 541
f 541 781 543
f 781 782 543
f 543 782 545
f 782 783 545
f 545 783 547
f 783 784 547
f 547 784 549
f 549 785 551
f 784 785 549
f 551 786 552
f 552 786 554
f 785 786 551
f 786 787 554
f 554 787 556
f 556 788 558
f 787 788 556
f 558 789 560
f 788 789 558
f 560 790 562
f 562 790 563
f 789 790 560
f 563 791 565
f 790 791 563
f 565 792 567
f 791 792 565
f 567 594 568
f 792 594 567
f 626 57 54
f 624 54 51
f 624 626 54
f 622 51 48
f 622 624 51
f 620 48 44
f 620 622 48
f 618 44 40
f 618 620 44
f 616 40 36
f 616 618 40
f 614 36 32
f 614 616 36
f 612 32 29
f 612 614 32
f 610 29 25
f 610 612 29
f 608 25 20
f 608 610 25
f 606 20 16
f 606 608 20
f 604 16 12
f 604 606 16
f 602 604 12
f 602 12 8
f 600 602 8
f 600 8 4
f 598 4 1
f 598 600 4
f 596 1 3
f 596 598 1
f 597 3 7
f 597 596 3
f 599 7 11
f 599 597 7
f 601 11 15
f 601 599 11
f 603 15 19
f 603 601 15
f 605 19 23
f 605 603 19
f 607 23 27
f 607 605 23
f 609 27 31
f 609 607 27
f 611 31 35
f 611 609 31
f 613 35 39
f 613 611 35
f 794 793 43
f 795 794 43
f 47 799 795
f 47 795 43
f 615 39 43
f 615 613 39
f 72 799 47
f 617 793 796
f 617 796 797
f 617 43 793
f 617 615 43
f 619 617 797
f 619 797 276
f 619 276 798
f 621 798 800
f 621 800 801
f 621 619 798
f 623 621 801
f 623 801 802
f 623 802 803
f 625 803 804
f 625 804 805
f 625 623 803
f 627 625 805
f 627 805 806
f 627 806 807
f 629 627 807
f 629 807 808
f 629 808 809
f 72 815 810
f 631 629 809
f 631 809 811
f 631 811 812
f 76 815 72
f 633 631 812
f 633 812 813
f 633 813 814
f 816 815 76
f 80 817 818
f 80 818 816
f 80 816 76
f 635 633 814
f 635 814 819
f 635 819 820
f 637 635 820
f 637 820 821
f 637 821 822
f 639 823 817
f 639 817 80
f 639 80 84
f 639 637 822
f 639 822 823
f 641 639 84
f 641 84 88
f 643 88 92
f 643 641 88
f 645 92 96
f 645 643 92
f 647 96 99
f 647 645 96
f 649 99 103
f 649 647 99
f 651 103 107
f 651 649 103
f 653 107 111
f 653 651 107
f 655 111 115
f 655 653 111
f 657 115 119
f 657 655 115
f 659 119 123
f 659 657 119
f 661 123 127
f 661 659 123
f 663 127 131
f 663 661 127
f 665 131 135
f 665 663 131
f 667 135 139
f 667 665 135
f 669 139 143
f 669 667 139
f 671 143 147
f 671 669 143
f 673 671 147
f 673 147 151
f 675 673 151
f 675 151 155
f 677 675 155
f 677 155 159
f 679 677 159
f 679 159 163
f 680 679 163
f 680 163 167
f 681 680 167
f 681 167 170
f 682 681 170
f 682 170 174
f 683 682 174
f 683 174 177
f 684 683 177
f 684 177 180
f 685 684 180
f 685 180 183
f 686 685 183
f 686 183 186
f 687 686 186
f 687 186 189
f 688 687 189
f 688 189 192
f 689 688 192
f 689 192 196
f 690 689 196
f 690 196 201
f 691 690 201
f 691 201 205
f 694 205 208
f 694 691 205
f 696 208 212
f 696 694 208
f 698 212 216
f 698 696 212
f 700 216 220
f 700 698 216
f 702 220 224
f 702 700 220
f 704 224 228
f 704 702 224
f 706 228 232
f 706 704 228
f 708 232 236
f 708 706 232
f 710 236 238
f 710 708 236
f 711 710 238
f 711 238 234
f 709 711 234
f 709 234 230
f 707 709 230
f 707 230 226
f 705 707 226
f 705 226 222
f 703 705 222
f 703 222 218
f 701 703 218
f 701 218 214
f 699 701 214
f 699 214 210
f 697 699 210
f 697 210 206
f 695 697 206
f 695 206 202
f 825 824 198
f 826 825 198
f 194 840 826
f 194 826 198
f 692 695 202
f 692 198 824
f 692 202 198
f 168 840 194
f 693 692 824
f 712 693 824
f 712 824 827
f 713 712 827
f 713 827 828
f 714 713 828
f 715 714 828
f 715 828 829
f 716 715 829
f 716 829 830
f 717 716 830
f 717 830 831
f 718 717 831
f 718 831 832
f 719 718 832
f 720 719 832
f 720 832 833
f 721 720 833
f 721 833 834
f 722 721 834
f 722 834 835
f 723 722 835
f 723 835 836
f 724 723 836
f 724 836 837
f 725 724 837
f 725 837 838
f 726 838 839
f 726 725 838
f 727 839 841
f 727 726 839
f 728 841 842
f 728 727 841
f 729 842 843
f 729 728 842
f 730 843 844
f 730 729 843
f 731 844 845
f 731 730 844
f 732 845 846
f 732 731 845
f 733 846 847
f 733 732 846
f 734 847 848
f 734 733 847
f 735 848 849
f 735 734 848
f 736 849 850
f 736 735 849
f 737 850 851
f 737 736 850
f 738 851 852
f 738 737 851
f 739 852 853
f 739 738 852
f 740 853 854
f 740 739 853
f 741 854 855
f 741 740 854
f 742 855 856
f 742 741 855
f 743 856 857
f 743 742 856
f 744 857 858
f 744 743 857
f 745 858 859
f 745 744 858
f 746 859 860
f 746 745 859
f 747 860 861
f 747 746 860
f 748 861 862
f 748 747 861
f 749 862 863
f 749 748 862
f 750 749 863
f 750 863 864
f 751 750 864
f 751 864 865
f 752 751 865
f 752 865 866
f 753 866 867
f 753 752 866
f 754 867 868
f 754 753 867
f 755 868 869
f 755 754 868
f 756 869 870
f 756 755 869
f 885 871 168
f 757 870 872
f 757 756 870
f 758 872 873
f 758 757 872
f 759 873 874
f 759 758 873
f 760 874 875
f 760 759 874
f 761 875 876
f 761 760 875
f 762 761 876
f 762 876 877
f 763 762 877
f 763 877 878
f 764 763 878
f 764 878 879
f 765 879 880
f 765 764 879
f 766 765 880
f 766 880 881
f 165 885 168
f 767 766 881
f 767 881 882
f 768 882 883
f 768 767 882
f 769 883 884
f 769 768 883
f 770 884 886
f 770 769 884
f 887 885 165
f 771 886 888
f 771 770 886
f 772 888 889
f 772 771 888
f 161 890 891
f 161 891 887
f 161 887 165
f 773 889 892
f 773 772 889
f 774 892 893
f 774 773 892
f 775 893 894
f 775 774 893
f 776 775 894
f 776 894 895
f 777 895 896
f 777 776 895
f 778 777 896
f 778 896 897
f 779 897 898
f 779 778 897
f 780 898 899
f 780 779 898
f 781 899 900
f 781 780 899
f 782 900 901
f 782 781 900
f 783 901 902
f 783 782 901
f 784 783 902
f 784 902 903
f 785 903 904
f 785 784 903
f 786 904 905
f 786 785 904
f 787 786 905
f 787 905 906
f 787 906 907
f 788 787 907
f 788 907 908
f 789 788 908
f 789 908 909
f 790 909 910
f 790 789 909
f 791 790 910
f 791 910 911
f 791 911 912
f 792 791 912
f 792 912 890
f 594 792 890
f 678 890 161
f 678 595 594
f 678 594 890
f 678 161 157
f 676 157 153
f 676 678 157
f 674 153 149
f 674 676 153
f 672 149 145
f 672 674 149
f 670 145 141
f 670 672 145
f 668 141 136
f 668 670 141
f 666 136 132
f 666 668 136
f 664 132 128
f 664 666 132
f 662 128 124
f 662 664 128
f 660 662 124
f 660 124 120
f 658 660 120
f 658 120 116
f 656 116 112
f 656 658 116
f 654 112 108
f 654 656 112
f 652 108 104
f 652 654 108
f 650 104 100
f 650 652 104
f 648 100 94
f 648 650 100
f 646 94 90
f 646 648 94
f 644 90 86
f 644 646 90
f 642 86 82
f 642 644 86
f 640 82 78
f 640 642 82
f 638 78 73
f 638 640 78
f 636 73 69
f 636 638 73
f 634 69 66
f 634 636 69
f 632 66 63
f 632 634 66
f 630 63 60
f 630 632 63
f 628 60 57
f 628 630 60
f 626 628 57
f 810 799 72
f 871 840 168
f 824 825 379
f 379 825 378
f 825 826 378
f 826 840 378
f 378 840 380
f 380 840 382
f 382 840 387
f 387 840 401
f 401 840 413
f 413 840 422
f 840 871 422
f 422 871 429
f 429 871 436
f 436 871 443
f 443 871 450
f 450 871 457
f 457 871 462
f 462 871 469
f 469 871 472
f 472 871 479
f 479 871 484
f 484 885 489
f 871 885 484
f 489 885 496
f 496 885 501
f 501 885 508
f 508 885 515
f 515 885 520
f 885 887 520
f 887 891 520
f 520 891 527
f 527 891 536
f 536 890 566
f 891 890 536
f 566 912 564
f 890 912 566
f 912 911 564
f 564 910 561
f 911 910 564
f 561 909 559
f 910 909 561
f 559 908 557
f 909 908 559
f 557 907 555
f 908 907 557
f 907 906 555
f 555 905 553
f 906 905 555
f 553 904 550
f 905 904 553
f 550 903 548
f 904 903 550
f 903 902 548
f 548 902 546
f 902 901 546
f 546 901 544
f 901 900 544
f 544 900 542
f 900 899 542
f 542 899 540
f 899 898 540
f 540 898 538
f 898 897 538
f 538 897 535
f 897 896 535
f 535 896 533
f 896 895 533
f 533 895 531
f 895 894 531
f 531 894 529
f 894 893 529
f 529 893 526
f 893 892 526
f 526 892 524
f 892 889 524
f 524 889 522
f 889 888 522
f 522 888 519
f 888 886 519
f 519 886 517
f 886 884 517
f 517 884 514
f 884 883 514
f 514 883 512
f 883 882 512
f 512 882 510
f 882 881 510
f 510 881 507
f 507 880 505
f 881 880 507
f 505 879 503
f 880 879 505
f 503 878 500
f 879 878 503
f 500 877 498
f 878 877 500
f 498 876 495
f 877 876 498
f 495 875 493
f 876 875 495
f 493 874 491
f 875 874 493
f 874 873 491
f 491 873 488
f 873 872 488
f 488 872 486
f 872 870 486
f 486 870 483
f 870 869 483
f 483 869 481
f 869 868 481
f 481 868 478
f 868 867 478
f 478 867 476
f 867 866 476
f 476 866 474
f 866 865 474
f 474 865 471
f 865 864 471
f 471 864 468
f 864 863 468
f 468 863 466
f 863 862 466
f 466 862 464
f 862 861 464
f 464 861 461
f 861 860 461
f 461 860 459
f 860 859 459
f 459 859 456
f 859 858 456
f 456 858 454
f 858 857 454
f 454 857 452
f 857 856 452
f 452 856 449
f 856 855 449
f 449 855 447
f 855 854 447
f 447 854 445
f 445 853 442
f 854 853 445
f 442 852 440
f 853 852 442
f 440 851 438
f 852 851 440
f 438 850 435
f 851 850 438
f 435 849 433
f 850 849 435
f 433 848 431
f 849 848 433
f 848 847 431
f 431 847 428
f 847 846 428
f 428 846 426
f 426 845 424
f 846 845 426
f 424 844 421
f 845 844 424
f 421 843 419
f 844 843 421
f 419 842 417
f 843 842 419
f 417 841 415
f 842 841 417
f 415 839 412
f 841 839 415
f 839 838 412
f 412 838 410
f 410 837 408
f 838 837 410
f 408 836 406
f 837 836 408
f 836 835 406
f 406 835 404
f 404 834 403
f 835 834 404
f 403 833 400
f 400 833 398
f 834 833 403
f 398 832 396
f 833 832 398
f 396 831 394
f 832 831 396
f 394 830 392
f 831 830 394
f 392 829 391
f 391 829 389
f 830 829 392
f 389 828 386
f 829 828 389
f 386 827 384
f 828 827 386
f 384 824 379
f 827 824 384
f 324 320 817
f 817 320 818
f 320 319 818
f 818 319 816
f 816 319 815
f 319 315 815
f 315 314 815
f 314 310 815
f 310 309 815
f 815 309 810
f 309 305 810
f 305 304 810
f 304 300 810
f 300 299 810
f 299 295 810
f 295 294 810
f 294 290 810
f 290 289 810
f 289 285 810
f 285 284 810
f 284 280 810
f 280 279 810
f 810 279 799
f 279 275 799
f 275 274 799
f 274 270 799
f 270 269 799
f 269 266 799
f 266 265 799
f 799 265 795
f 795 265 794
f 794 264 793
f 265 264 794
f 793 268 796
f 264 268 793
f 268 272 796
f 796 272 797
f 797 272 276
f 272 273 276
f 798 276 800
f 276 278 800
f 278 281 800
f 800 281 801
f 281 283 801
f 801 283 802
f 283 286 802
f 802 288 803
f 286 288 802
f 803 291 804
f 288 291 803
f 291 293 804
f 804 293 805
f 293 297 805
f 805 297 806
f 297 298 806
f 806 298 807
f 298 301 807
f 807 301 808
f 301 303 808
f 303 306 808
f 808 306 809
f 809 306 811
f 306 308 811
f 308 312 811
f 811 312 812
f 812 312 813
f 312 313 813
f 313 316 813
f 813 316 814
f 814 316 819
f 316 318 819
f 318 321 819
f 819 321 820
f 820 321 821
f 321 323 821
f 323 326 821
f 821 326 822
f 822 326 823
f 326 327 823
f 823 324 817
f 327 324 823
