# Render LOD; unchanged CAD body-local coordinates in mm
v -84.6914788 151.0129153 114.7534637
v -84.8265507 150.9398822 114.6249943
v -84.8242315 151.0021533 114.6249943
v -84.8249272 151.0645402 114.6249943
v -84.9315498 152.1621132 114.9866892
v -84.8288699 151.1266953 114.6249943
v -84.8672269 151.4155483 114.6360673
v -84.8269526 151.8609505 114.8774846
v -85.0437671 151.7845987 114.6556301
v -85.3628028 152.4942350 114.9999110
v -85.6800952 152.2799117 114.6919062
v -86.0263734 152.6502352 114.9999706
v -86.5582741 152.5755302 114.9999721
v -86.1382331 152.3602978 114.7114727
v -86.6303330 152.2672042 114.7331095
v -87.1866437 152.2215785 114.9998845
v -87.0128184 152.0306440 114.7517477
v -87.0334642 150.2010289 111.6493350
v -87.2765638 150.6480177 111.5468671
v -87.3278418 151.0310568 111.5228488
v -87.2890970 150.6871061 111.6092512
v -87.2391954 151.5024941 111.4885232
v -87.3187068 151.2237506 111.5710056
v -86.9530761 151.9138515 111.4521706
v -87.1482504 151.6681089 111.5405991
v -86.6263522 152.1449438 111.4238082
v -86.8134842 152.0407749 111.5042480
v -86.1053356 152.2821515 111.3853730
v -86.2001835 152.2767936 111.4597979
v -85.4336013 152.1111601 111.3355304
v -85.5628546 152.1715215 111.4115098
v -85.1423082 151.8509873 111.3075120
v -85.1083320 151.8113287 111.3037034
v -85.0758634 151.7700466 111.2999680
v -84.8981352 151.4771929 111.2999675
v -84.8606456 151.3451825 111.3285264
v -84.8300295 151.1391031 111.2999680
v -84.8258549 151.0844855 111.3097093
v -84.8241155 151.0158366 111.3047288
v -84.8258549 150.9522901 111.3000412
v -87.3368053 150.9134738 112.0895275
v -87.1451811 150.3451025 112.2036897
v -87.2258084 151.5273914 112.0486357
v -86.9540010 151.9129484 112.0150075
v -87.2392018 151.5182104 112.1172041
v -86.6255896 152.1453382 111.9863837
v -86.8108359 152.0423216 112.0633334
v -85.7109889 152.2192799 111.9189027
v -85.4224302 152.0910732 111.9616522
v -84.8790552 151.4412456 111.8359389
v -85.0627619 151.7725390 111.9246166
v -84.9761486 150.3958230 111.7575663
v -84.8568595 150.6837158 111.8484397
v -85.4485858 149.9148413 111.7053553
v -85.1993050 150.0998202 111.7999602
v -85.9933409 149.7650428 111.6667944
v -85.7242738 149.8102369 111.7522242
v -86.4526054 149.8158524 111.6364717
v -86.1922382 149.7661792 111.7186172
v -86.9757357 150.1311989 111.5930693
v -86.6424467 149.8968799 111.6843874
v -87.2804185 150.6715676 112.6727769
v -87.1790448 150.3927168 112.7584581
v -87.3286040 151.1054595 112.6416345
v -87.1770444 151.6308282 112.6002825
v -87.2338437 151.4949428 112.6791276
v -86.7773038 152.0658580 112.5563979
v -86.3118602 152.2505423 112.5217783
v -86.6971450 152.1151797 112.6162217
v -86.1269568 152.2787476 112.5753603
v -85.6145467 152.1862274 112.5402039
v -85.2050970 151.9411553 112.4362032
v -84.8639914 151.3757177 112.3925752
v -84.9895961 151.6635224 112.4835816
v -84.8297034 151.1822038 112.4417224
v -84.8222812 150.9412446 112.3610790
v -84.9065016 150.5562666 112.3312706
v -85.0516342 150.2897027 112.3745146
v -86.0539350 149.7526522 112.2280460
v -85.4632952 149.9065455 112.3389252
v -86.0536559 149.7610397 112.2902918
v -86.6488976 149.8980181 112.1810576
v -86.5105446 149.8382753 112.2572904
v -87.0861039 150.2611099 112.1443840
v -87.2602291 150.5830893 113.2424683
v -87.3269198 151.1034083 113.2044479
v -87.3282553 151.0366294 113.2722495
v -87.1805308 151.6305121 113.1619541
v -87.2402115 151.4937278 113.2403800
v -86.8180749 152.0287360 113.1271000
v -87.0130851 151.8482361 113.2091928
v -86.4302240 152.2234203 113.0959999
v -86.6133468 152.1617652 113.1716591
v -86.0205521 152.2762103 113.1325888
v -85.2516139 151.9787399 113.0037725
v -85.2010800 151.9289664 113.0627225
v -84.9225326 151.5221519 112.9662136
v -84.8920381 151.4522116 113.0244521
v -84.8796139 150.6320864 112.9019139
v -84.8185523 150.9556268 112.9885398
v -84.9068303 150.5606081 112.9591697
v -85.1021972 150.2200631 112.9329781
v -85.4630612 149.9189260 112.8988907
v -86.1354758 149.7575744 112.7861746
v -86.0151370 149.7542123 112.8566686
v -87.1589238 150.3821776 113.8195993
v -87.0400715 150.2158787 113.8985471
v -87.3358118 150.9319009 113.7784091
v -87.3206776 151.1645297 113.8257864
v -87.2480606 151.4619162 113.7410444
v -87.0270007 151.8377244 113.7094637
v -86.5422979 152.1960636 113.6673562
v -86.7600813 152.0841609 113.7511221
v -86.1836125 152.2701072 113.7038206
v -85.5811575 152.1721869 113.5968475
v -85.2135115 151.9344595 113.5633843
v -84.9143490 151.5088201 113.5908361
v -84.8229383 150.8741255 113.4816981
v -84.8221586 151.0819142 113.5600389
v -85.0137531 150.3331902 113.4377663
v -84.8806877 150.6075770 113.5230673
v -85.3416258 150.0010581 113.4050449
v -85.7320027 149.8002423 113.3773636
v -86.3008045 149.7807881 113.3322986
v -85.9876170 149.7590568 113.4200869
v -84.8275373 150.9194276 114.6160771
v -84.9098234 150.5642936 114.5925796
v -85.1908532 150.1191174 114.5457501
v -85.2844621 150.0301189 114.6022128
v -85.8169511 149.7848065 114.5603139
v -86.4567853 149.8111354 114.4497327
v -86.5757247 149.8648196 114.5021408
v -87.6283079 151.5486550 114.9999141
v -89.7569004 150.0579687 115.0000000
v -89.8940627 151.1601218 115.0000000
v -87.7002380 150.8961907 114.9999856
v -89.4429259 149.2367648 115.0000000
v -89.6753320 152.2486440 115.0000000
v -88.7089949 148.2483236 115.0000000
v -89.3146149 153.0202562 115.0000000
v -88.5878315 153.8925221 115.0000000
v -87.7925762 147.6220170 115.0000000
v -87.1348748 149.7667200 114.9998944
v -87.7065343 154.4556540 115.0000000
v -86.9964493 147.3217176 115.0000000
v -86.4739953 149.4298937 114.9999495
v -86.8763324 154.7429830 115.0000000
v -85.7717290 147.2050551 115.0000000
v -85.6464909 154.8164282 115.0000000
v -84.6644477 147.4826334 115.0000000
v -85.7590332 149.4040296 114.9998955
v -83.8332576 147.9319066 115.0000000
v -84.4635764 154.4713588 115.0000000
v -85.0998687 149.7065492 114.9999768
v -82.9633082 148.8028719 115.0000000
v -83.4158189 153.7675493 115.0000000
v -82.7420063 152.8565408 115.0000000
v -82.4905546 149.7363130 115.0000000
v -84.6835721 150.1568381 114.9999701
v -82.2647407 150.7504487 115.0000000
v -82.3830588 151.9770672 115.0000000
v -84.4501131 150.8024442 114.9999547
v -88.0768635 147.7723183 114.2995075
v -87.2140327 147.3865894 114.2997701
v -86.4712161 147.2326925 114.2997682
v -85.3333496 147.2655113 114.3008802
v -84.0182217 147.7996320 114.2998520
v -83.1035705 148.6260927 114.3006042
v -82.3017292 151.5380047 114.2999818
v -82.6127196 152.6351417 114.2999756
v -83.3121920 153.6453920 114.3003932
v -84.2638490 154.3802019 114.2998512
v -85.5268872 154.7971415 114.2995934
v -86.7545066 154.7702052 114.3005673
v -87.9169810 154.3624143 114.2998535
v -89.5133353 152.6473142 114.2995454
v -89.8161306 151.7530920 114.2989855
v -89.8735423 150.7805558 114.3001452
v -89.6953990 149.8217361 114.2999922
v -89.0762480 148.6481432 114.3001819
v -83.8703304 153.2258426 114.1949317
v -85.4524164 154.0914144 114.2000102
v -86.8804717 154.0305319 114.1986317
v -88.3852285 153.2162956 114.1995379
v -88.9517926 153.5281266 114.2995923
v -89.0855282 151.8246972 114.1997378
v -89.2169968 151.0651902 114.1999946
v -88.8539244 149.5391838 114.1999684
v -88.2786853 148.8130895 114.1995434
v -86.7628166 147.8871956 114.1992687
v -85.2669818 148.0060646 114.1993105
v -84.0863149 148.5829112 114.1999768
v -83.0613520 150.2076246 114.1958734
v -82.6136911 149.4336261 114.3003129
v -82.9281745 151.5759908 114.1996443
v -82.3003681 150.4334659 114.2997895
v -83.8620987 153.2093648 111.5552660
v -83.0625744 150.2217435 111.5618342
v -84.8868372 153.4060959 111.3404845
v -84.8116972 153.4747661 111.3894892
v -85.9057886 153.6796308 111.3413150
v -85.8245768 153.7460797 111.3779561
v -86.7548596 153.5855912 111.3416283
v -87.5430464 153.2438915 111.3407846
v -87.7485703 153.1615924 111.3683510
v -88.2896891 152.5025308 111.3411557
v -88.6574224 150.3185782 111.3476389
v -88.1587758 149.3468134 111.3426241
v -88.4541207 149.4682185 111.4314230
v -87.3467512 148.6785632 111.3411867
v -87.5096189 148.6071062 111.4125959
v -86.7042703 148.4187433 111.3465463
v -85.7414649 148.3714991 111.3399622
v -84.1045552 149.2365317 111.3405458
v -83.9989973 149.2747604 111.3526883
v -83.6413741 149.9250651 111.3414409
v -83.4081847 150.9450558 111.3408217
v -83.4827837 151.6777471 111.3473440
v -83.7602277 152.3286579 111.3412468
v -86.8832770 154.0281628 111.5664902
v -88.5491966 152.3610325 111.4143393
v -88.6149795 151.7844729 111.3410594
v -89.0810273 151.7963597 111.5561997
v -88.7411392 151.0040368 111.3413855
v -88.2772319 148.8124026 111.5722886
v -85.2633373 148.0080835 111.5567374
v -84.7499114 148.7026454 111.3412842
v -84.1977967 152.8983102 111.3423820
v -84.3004745 149.0580541 110.3123075
v -84.7804901 148.7093959 110.3283714
v -85.3711889 148.4577534 110.3433716
v -86.0321955 148.3665786 110.3598084
v -87.2340342 148.6397894 110.3402983
v -87.6387947 148.8806893 110.3258341
v -88.0234959 149.2268366 110.3403752
v -88.2799561 149.5492192 110.3510027
v -88.4777156 149.9143697 110.3280071
v -88.6341585 150.3691900 110.3064080
v -88.6989073 151.3438427 110.3373274
v -88.4515838 152.1877382 110.3495744
v -88.2061559 152.5779831 110.3169570
v -87.9161583 152.9317114 110.3554567
v -87.3980043 153.3096087 110.3314109
v -87.0130303 153.4855579 110.3016794
v -85.4848006 153.5953955 110.3181109
v -84.1345145 152.8183371 110.3298038
v -83.8361458 152.4250513 110.3098877
v -87.7813414 152.9744010 110.2546207
v -87.4800782 153.1116479 110.2050130
v -86.9053696 153.4889937 110.2646955
v -86.3925774 153.5756732 110.2365636
v -86.6588084 153.4529998 110.2021229
v -86.5318511 153.6277272 110.3480385
v -86.0207642 153.6667346 110.3424879
v -85.8371730 153.5739882 110.2292835
v -85.0803693 153.3575601 110.2079487
v -85.4171980 153.4321443 110.2018027
v -85.0042668 153.4404046 110.3347322
v -84.5622440 153.1319112 110.2557404
v -84.5115418 153.1593850 110.3562174
v -83.7208728 152.1342874 110.2594133
v -84.1172958 152.6156950 110.2044110
v -83.5662336 151.8600051 110.3235207
v -83.5887550 151.5397665 110.2101098
v -83.4498757 151.3812345 110.3450822
v -83.4390691 150.9890785 110.3004321
v -83.5679769 151.0579868 110.2033074
v -83.4599492 150.5857045 110.3473598
v -83.5466847 150.5657227 110.2312227
v -83.5582474 150.2107637 110.3242660
v -83.6725359 150.0505225 110.2490171
v -83.7678455 150.0240256 110.2033990
v -83.8784978 149.5983894 110.2744896
v -83.6928820 149.8500221 110.3671513
v -83.9744985 149.4009828 110.3513767
v -84.1963793 149.3396934 110.2041375
v -84.6565508 148.9098883 110.2085011
v -85.2983060 148.5529181 110.2398640
v -85.8967804 148.4273904 110.2530866
v -85.8372100 148.5322328 110.2014857
v -86.4868489 148.4094584 110.3154975
v -86.3982858 148.4835317 110.2250154
v -86.8582136 148.4874842 110.3385358
v -87.0038768 148.6871367 110.2025870
v -87.1518389 148.6587024 110.2440377
v -87.6166249 149.0213536 110.2071368
v -88.1049355 149.4093059 110.2454394
v -88.2846445 149.7871413 110.2057708
v -88.5211861 150.4437689 110.2039405
v -88.7217027 150.9205319 110.3457051
v -88.6903922 150.9780375 110.2712083
v -88.5890682 151.1569417 110.2061964
v -88.5253083 151.6937263 110.2094864
v -88.6220262 151.7433706 110.3417249
v -88.3830393 152.1958610 110.2521335
v -88.0911607 152.5393391 110.2073429
v -85.9147890 148.7622602 110.2000000
v -86.5479578 148.8140172 110.2000000
v -85.2068043 148.9328323 110.2000000
v -87.1809137 149.0434391 110.2000000
v -84.5413638 149.3506810 110.2000000
v -84.1290231 149.8798762 110.2000000
v -87.8505492 149.6132172 110.2000000
v -83.8738194 150.4868122 110.2000000
v -88.2568371 150.4142141 110.2000000
v -83.8241743 151.1426720 110.2000000
v -83.9240104 151.7108396 110.2000000
v -88.3107347 151.4225316 110.2000000
v -84.2976508 152.4222828 110.2000000
v -87.9069237 152.3478573 110.2000000
v -84.9824152 153.0018308 110.2000000
v -87.3370997 152.8896086 110.2000000
v -85.7822694 153.2599804 110.2000000
v -86.6228701 153.2149149 110.2000000
v -87.9036216 149.6890811 110.2999771
v -88.2286289 150.3417302 110.2999771
v -88.3346857 151.0640650 110.2999771
v -88.1326460 151.9779730 110.2999771
v -87.5221306 152.7589430 110.2999771
v -86.7147868 153.1911978 110.2999771
v -85.8020060 153.2659675 110.2999771
v -84.9510429 152.9842385 110.2999771
v -84.2754748 152.3937342 110.2999771
v -83.9257550 151.7102838 110.2999771
v -83.8153151 151.0460798 110.2999771
v -83.9425866 150.2528259 110.2999771
v -84.3373877 149.5745718 110.2999771
v -84.8862540 149.0937771 110.2999771
v -85.6710732 148.7892747 110.2999771
v -86.5116899 148.7993319 110.2999771
v -87.2940693 149.1098714 110.2999771
v -87.2317758 150.6661849 110.2999771
v -87.2718032 151.1731428 110.2999771
v -86.9061752 150.1286372 110.2999771
v -87.0895110 151.6798792 110.2999771
v -86.7476946 152.0160626 110.2999771
v -86.3771024 149.8485842 110.2999771
v -86.3383202 152.1984350 110.2999771
v -85.8691013 149.8253765 110.2999771
v -85.2954355 150.0815915 110.2999771
v -85.7403321 152.1858770 110.2999771
v -85.2723173 151.9185705 110.2999771
v -84.9186797 150.6454742 110.2999771
v -85.0285072 151.6153394 110.2999771
v -84.8813840 151.2121484 110.2999771
v -85.1847160 151.8495077 111.3001997
v -84.8875726 151.2619773 111.3001050
v -84.9169599 150.6448714 111.2999500
v -85.2892694 150.0904520 111.2999680
v -85.7706247 149.8506602 111.2999680
v -86.2190603 149.8186488 111.2999680
v -86.6459824 149.9560157 111.2999680
v -87.0574563 150.3043654 111.2999680
v -87.2609152 150.8038090 111.2999680
v -87.2547694 151.2819739 111.2999680
v -87.0723993 151.6913536 111.2999680
v -86.7362201 152.0331747 111.2999680
v -86.2294906 152.2154689 111.2999680
v -85.7225398 152.1754411 111.2999680
v -84.8278269 150.6830466 111.2998932
v -85.1737167 151.9185636 111.2996962
v -85.6157204 152.3061074 111.3001613
v -86.4741570 152.4159744 111.3000764
v -85.9874491 149.5260773 111.2998620
v -87.1514120 152.0959590 111.3000453
v -86.9377921 149.6625863 111.2996970
v -87.5734601 150.2421829 111.3104789
v -87.6520177 150.4545857 111.2999680
v -87.6834427 150.5261336 111.2999680
v -86.9152408 150.0880555 114.4731480
v -87.2521851 150.5635926 114.3673142
v -87.3211085 151.2458291 114.3211628
v -87.3381234 151.0819898 114.3971386
v -87.0847657 151.7621977 114.2796709
v -86.7726513 152.0632053 114.2454129
v -86.0068558 152.2780240 114.1868292
v -86.2862105 152.2592042 114.2732433
v -85.8489939 152.2510083 114.2420764
v -85.3731338 152.0741728 114.1421645
v -85.4027460 152.0862946 114.2049774
v -84.9727161 151.6238563 114.0990090
v -85.0614983 151.7572717 114.1762147
v -84.8152041 151.1072575 114.0562802
v -84.9380500 150.4549069 114.0139679
v -84.8360040 150.7447120 114.0988737
v -85.3370134 149.9994021 113.9697951
v -85.6978392 149.8219720 113.9408140
v -86.0830220 149.7613872 113.9128990
v -86.0918762 149.7530272 113.9751766
v -86.9234415 150.0969752 113.8469938
v -86.6771641 149.9121238 113.9327481
v -84.8454536 152.1992254 115.0015125
v -87.7095334 150.6070903 114.6702491
v -87.3530142 152.1339958 114.5830533
v -84.4311741 151.4674137 114.3915501
v -84.4122847 150.7202174 114.3499388
v -87.2703957 149.8255157 114.1568061
v -87.6016397 150.2918730 114.1275051
v -87.7611977 150.9045081 114.0907350
v -86.5431541 152.6521902 113.9718904
v -85.7745670 152.6831282 113.9305941
v -85.2027833 152.4667591 113.8962017
v -84.3879905 150.9036827 113.7987163
v -87.4386424 149.9954842 113.5810117
v -87.7381745 150.7195418 113.5381139
v -84.9807486 152.3189392 113.3223202
v -85.0608187 149.6459165 113.1585547
v -85.7656413 149.3584155 113.1175168
v -87.6859805 150.4797742 112.9910408
v -84.6898058 151.4102370 114.8075069
v -84.4726804 151.5657460 114.9594409
v -84.3846689 150.9630816 114.9270305
v -84.9062005 150.5288534 114.6384189
v -84.4887694 150.4110675 114.8959435
v -84.8397936 149.8662308 114.8626160
v -85.3386623 149.4883658 114.8297177
v -86.2074956 149.7724010 114.5319437
v -86.2016979 149.3145413 114.7817480
v -86.9470660 149.5684836 114.7409955
v -87.2091991 150.4663321 114.4421246
v -87.4540265 150.0302823 114.7041912
v -87.6543005 151.5989809 114.6170633
v -87.7671776 151.1382921 114.6424743
v -87.1282500 151.7114974 114.3472306
v -86.7468046 152.0799979 114.3102606
v -86.8193894 152.5332378 114.5480695
v -86.1935018 152.7064113 114.5144214
v -85.5639231 152.6295029 114.4797970
v -84.9311281 152.2777065 114.4413814
v -84.8682022 151.3811522 114.1457523
v -85.1391950 150.1738310 114.0525626
v -84.6223842 150.1467585 114.3194967
v -85.5419780 149.8785395 114.0176778
v -85.1276449 149.6070704 114.2791549
v -86.0092631 149.3233283 114.2297961
v -86.8245369 149.4957843 114.1848313
v -87.2901669 150.6793427 113.8608825
v -87.6886855 151.5159081 114.0590169
v -87.1787891 151.6227733 113.7928023
v -87.3239071 152.1663198 114.0190246
v -85.6399040 152.2026887 113.6648079
v -85.1935321 151.9152024 113.6278146
v -84.7615916 152.0809567 113.8644872
v -84.4642396 151.5307253 113.8317295
v -85.1201345 150.2038858 113.4945440
v -84.5349995 150.3214657 113.7664992
v -85.4440504 149.9270568 113.4649786
v -84.9484899 149.7502744 113.7287219
v -85.3802890 149.4802630 113.7014320
v -86.0407355 149.3223444 113.6650149
v -86.5765377 149.8618155 113.3754247
v -86.8784822 149.5279240 113.6199364
v -86.9939908 150.1598447 113.3394026
v -87.2616971 150.5945219 113.3057085
v -87.7351931 151.3197059 113.5076879
v -87.5257952 151.8800355 113.4747059
v -87.1921620 152.2766681 113.4475496
v -86.7623206 152.5588635 113.4202232
v -86.2745730 152.6943612 113.3935775
v -85.6100862 152.1825761 113.1013839
v -84.5252115 151.6980126 113.2799889
v -84.3840537 151.0908649 113.2457360
v -84.4895911 150.4128461 113.2088995
v -86.6699754 149.9018597 112.8115947
v -86.3986881 149.3544134 113.0855528
v -87.2040748 149.7478124 113.0369855
v -86.6514383 149.4258384 111.3819126
v -87.1923600 149.7522823 111.3496249
v -87.6338121 150.3859368 111.3079515
v -87.3342273 151.0556195 112.7113839
v -87.7603154 151.1745719 112.9523562
v -87.0569537 151.7987365 112.6499969
v -87.5123023 151.9314370 112.9107012
v -87.0288200 152.4059491 112.8744948
v -86.2218584 152.7003065 112.8279943
v -85.5838798 152.6382637 112.7941734
v -85.2847271 151.9923833 112.5126365
v -85.0979932 152.3970656 112.7648104
v -84.6464826 151.9281198 112.7307213
v -84.4406100 151.4364658 112.7030614
v -84.3916697 150.9373689 112.6765888
v -84.8568682 150.6939871 112.4050769
v -84.4757791 150.4675182 112.6496837
v -84.7646288 149.9534234 112.6196749
v -85.1804136 149.5849066 112.5888894
v -85.5850505 149.4079250 112.5661761
v -86.0508596 149.3290281 112.5418563
v -86.8246551 150.0149706 112.2345049
v -86.7411415 149.4524498 112.5054341
v -87.3749651 149.9370260 112.4608774
v -87.6676907 150.4606255 112.4302644
v -87.3295028 150.9299928 112.1582675
v -87.7693494 151.0763943 112.3943731
v -87.6702553 151.5640666 112.3686699
v -87.4536046 151.9846225 112.3450332
v -86.3931143 152.2329589 112.0341704
v -86.9960125 152.4463533 112.3113180
v -86.2543481 152.6996073 112.2673672
v -85.8933303 152.2643774 111.9946022
v -84.8283059 152.1694719 112.1861055
v -84.8379936 151.2602153 111.8843776
v -84.4422001 151.4817398 112.1409373
v -84.4055321 150.7402422 112.1020229
v -84.6168588 150.1698778 112.0707737
v -84.8969328 149.8038960 112.0454777
v -85.3977997 149.4719343 112.0149680
v -85.9469114 149.3341471 111.9848111
v -86.4083176 149.3686424 111.9588189
v -86.8974043 149.5474499 111.9318546
v -87.3013394 149.8600496 111.9049434
v -87.6869646 150.4843077 111.8623850
v -87.7228494 151.4251657 111.8155084
v -87.3108259 152.1781173 111.7672819
v -86.8469856 152.5117736 111.7386129
v -86.3288290 152.6984191 111.7097371
v -85.5744973 152.6399991 111.6669949
v -85.0735907 151.7870939 111.3639325
v -84.8308375 152.1677414 111.6214444
v -84.3988496 151.2228456 111.5667190
v -84.4461950 150.5264921 111.5275686
v -85.1584228 149.9495651 111.2996681
v -85.8569886 149.3261679 111.4257126
v -86.7126116 152.5824926 112.8545553
v -85.8711320 152.2661185 113.0544176
v -84.8182090 151.0793298 112.9315952
v -85.0635832 150.2728500 112.8707857
v -85.4774467 149.8990338 112.8307711
v -86.6891787 149.9182347 112.7411119
v -87.0915852 150.2765812 112.7071757
v -85.8125583 152.2523772 112.4868515
v -85.5017876 152.6179395 112.2271327
v -85.1751824 150.1320120 112.2945729
v -85.5260503 149.8889830 112.2665992
v -86.1816577 152.2727300 111.9495524
v -85.2761706 151.9954734 111.8830084
v -84.5038301 151.6444924 111.5884319
v -84.8271151 150.8729032 111.7933192
v -84.9499423 149.7421629 111.4771433
v -87.7303777 150.9686681 111.3000412
v -87.5659883 151.5769383 111.3000467
v -84.5075673 151.4473857 114.9958542
v -84.4584613 150.9338721 114.9735056
v -84.7343293 150.1710568 114.9451211
v -85.3959114 149.6369451 114.9134264
v -85.4622402 149.6091145 114.9107164
v -85.5298445 149.5845308 114.9080797
v -86.4631327 149.5670411 114.8733104
v -86.8869377 149.7732532 114.8555733
v -87.4531920 150.5810778 114.8155486
v -85.9265661 149.4905971 114.8935158
v -87.5000102 151.1527248 114.7919250
v -87.3048369 151.6863974 114.7700170
v -85.3313755 152.0879705 114.6735113
v -85.7411138 149.7950719 114.4980774
v -86.9496288 150.1155196 114.4046469
v -86.4051715 152.2263270 114.2170560
v -86.5469408 149.8492924 113.8796715
v -85.9829917 152.2697939 113.6251441
v -85.6316331 152.6514289 113.3593804
v -84.8960470 151.4780406 113.5229512
v -86.8520858 150.0173417 113.2921785
v -87.5663184 150.3549165 114.9999314
v -87.2331240 150.1196746 114.8361753
v -85.1752821 149.7509773 114.9220902
f 127 413 126
f 126 1 2
f 413 1 126
f 2 1 3
f 3 1 4
f 6 1 7
f 4 1 6
f 1 410 7
f 8 7 410
f 7 8 9
f 9 5 553
f 8 5 9
f 10 553 5
f 553 10 11
f 12 11 10
f 11 12 14
f 13 14 12
f 14 13 15
f 16 15 13
f 15 16 17
f 18 19 21
f 60 19 18
f 19 20 21
f 20 23 21
f 20 22 23
f 22 25 23
f 22 24 25
f 24 27 25
f 24 26 27
f 26 29 27
f 26 28 29
f 28 31 29
f 28 30 31
f 30 517 31
f 30 32 517
f 32 33 517
f 33 34 517
f 34 35 517
f 35 36 517
f 35 37 36
f 37 38 36
f 37 38 38
f 38 39 38
f 38 39 39
f 39 40 39
f 84 41 42
f 41 492 42
f 41 45 492
f 41 43 45
f 43 44 45
f 44 47 45
f 44 46 47
f 46 496 47
f 46 534 496
f 534 499 496
f 534 48 499
f 48 49 499
f 48 535 49
f 535 51 49
f 535 50 51
f 50 501 51
f 50 537 501
f 537 53 501
f 537 52 53
f 52 55 53
f 52 54 55
f 54 57 55
f 54 56 57
f 56 59 57
f 56 58 59
f 59 58 61
f 58 60 61
f 60 18 61
f 529 62 63
f 62 470 63
f 62 64 470
f 64 66 470
f 64 65 66
f 65 472 66
f 65 67 472
f 67 69 472
f 67 68 69
f 68 70 69
f 68 530 70
f 530 71 70
f 530 72 71
f 72 477 71
f 72 74 477
f 72 73 74
f 73 75 74
f 73 76 75
f 76 482 75
f 76 77 482
f 77 78 482
f 77 532 78
f 532 80 78
f 532 533 80
f 533 79 80
f 79 81 80
f 79 83 81
f 79 82 83
f 82 488 83
f 82 84 488
f 84 42 488
f 561 85 453
f 85 454 453
f 454 85 87
f 85 86 87
f 86 89 87
f 86 88 89
f 88 91 89
f 88 90 91
f 90 93 91
f 90 92 93
f 92 94 93
f 92 524 94
f 524 460 94
f 524 95 460
f 95 96 460
f 95 97 96
f 97 98 96
f 97 525 98
f 525 100 98
f 525 99 100
f 99 101 100
f 99 526 101
f 526 102 101
f 526 527 102
f 527 103 102
f 527 105 103
f 527 104 105
f 104 464 105
f 104 528 464
f 528 529 464
f 529 63 464
f 390 106 107
f 106 437 107
f 106 108 437
f 108 109 437
f 108 110 109
f 110 439 109
f 110 111 439
f 111 113 439
f 111 112 113
f 112 114 113
f 112 558 114
f 558 441 114
f 558 115 441
f 115 116 441
f 116 442 441
f 116 560 442
f 560 117 442
f 560 119 117
f 560 118 119
f 118 121 119
f 118 120 121
f 120 445 121
f 120 122 445
f 122 447 445
f 122 123 447
f 123 125 447
f 123 124 125
f 124 451 125
f 124 561 451
f 561 453 451
f 6 4 4
f 4 3 4
f 4 3 3
f 3 2 3
f 3 126 2
f 127 128 413
f 128 129 413
f 128 554 129
f 554 130 129
f 554 417 130
f 554 131 417
f 131 132 417
f 132 555 370
f 131 555 132
f 136 133 135
f 134 136 135
f 135 133 138
f 134 562 136
f 137 562 134
f 138 133 140
f 133 16 140
f 139 562 137
f 139 143 562
f 140 16 141
f 142 143 139
f 141 16 144
f 16 13 144
f 142 146 143
f 145 146 142
f 144 13 147
f 148 146 145
f 147 12 149
f 13 12 147
f 148 151 146
f 10 149 12
f 148 150 151
f 5 392 10
f 10 153 149
f 151 150 154
f 150 152 154
f 10 156 153
f 392 156 10
f 154 155 159
f 152 155 154
f 392 157 156
f 155 158 159
f 392 161 157
f 541 161 392
f 159 158 162
f 158 160 162
f 541 160 161
f 162 160 541
f 139 180 163
f 142 139 163
f 142 163 164
f 145 142 164
f 145 164 165
f 148 145 165
f 148 165 166
f 150 148 166
f 150 166 167
f 152 150 167
f 152 167 168
f 155 152 168
f 155 168 194
f 158 155 194
f 158 194 196
f 160 158 196
f 160 196 169
f 161 160 169
f 161 169 170
f 157 161 170
f 156 170 171
f 156 157 170
f 156 171 172
f 153 156 172
f 153 172 173
f 149 153 173
f 149 173 174
f 147 149 174
f 147 174 175
f 144 147 175
f 141 144 175
f 141 175 185
f 140 141 185
f 140 185 176
f 138 140 176
f 138 176 177
f 135 138 177
f 135 177 178
f 134 178 179
f 134 135 178
f 137 134 179
f 137 179 180
f 139 137 180
f 181 172 171
f 172 181 182
f 182 173 172
f 173 182 183
f 183 174 173
f 183 175 174
f 175 183 184
f 184 185 175
f 184 176 185
f 176 184 186
f 186 177 176
f 187 177 186
f 187 178 177
f 187 179 178
f 179 187 188
f 188 180 179
f 180 188 189
f 189 163 180
f 163 189 190
f 190 164 163
f 190 165 164
f 190 166 165
f 191 166 190
f 191 167 166
f 167 191 192
f 192 168 167
f 168 192 193
f 193 194 168
f 193 196 194
f 196 193 195
f 195 169 196
f 195 170 169
f 170 195 181
f 181 171 170
f 193 181 195
f 191 193 192
f 190 189 191
f 188 187 189
f 187 186 189
f 184 183 186
f 181 183 182
f 218 197 181
f 218 181 193
f 198 218 193
f 202 199 201
f 202 200 199
f 220 201 203
f 220 202 201
f 205 220 204
f 205 204 206
f 221 205 206
f 207 223 224
f 209 207 208
f 212 211 210
f 226 212 213
f 215 226 227
f 215 227 214
f 215 214 216
f 198 215 216
f 218 198 217
f 197 218 219
f 197 199 200
f 197 228 199
f 220 203 204
f 221 206 222
f 223 221 222
f 223 222 224
f 208 225 209
f 211 208 210
f 211 225 208
f 226 213 227
f 198 216 217
f 197 219 228
f 202 220 183
f 202 183 181
f 200 202 181
f 197 200 181
f 221 223 186
f 205 186 183
f 205 221 186
f 220 205 183
f 209 225 189
f 207 209 189
f 207 189 186
f 223 207 186
f 212 226 191
f 212 191 189
f 211 212 189
f 225 211 189
f 215 198 193
f 215 193 191
f 226 215 191
f 229 214 227
f 230 229 227
f 231 230 227
f 231 227 213
f 232 231 213
f 232 213 212
f 281 232 212
f 283 281 212
f 283 212 210
f 233 283 210
f 234 233 210
f 234 210 208
f 235 234 208
f 236 235 208
f 237 236 208
f 237 208 207
f 238 237 207
f 238 207 224
f 290 238 224
f 239 290 224
f 294 239 224
f 294 224 222
f 240 294 222
f 240 222 206
f 241 240 206
f 242 241 206
f 242 206 204
f 243 242 204
f 244 243 204
f 244 204 203
f 253 244 203
f 253 203 201
f 254 253 201
f 245 254 201
f 245 201 199
f 258 245 199
f 260 258 199
f 260 199 228
f 246 260 228
f 246 228 219
f 247 246 219
f 263 247 219
f 263 219 218
f 265 263 218
f 265 218 217
f 266 265 217
f 268 266 217
f 268 217 216
f 270 268 216
f 274 270 216
f 275 274 216
f 275 216 214
f 229 275 214
f 243 248 242
f 249 248 243
f 244 249 243
f 250 249 244
f 252 249 250
f 253 250 244
f 252 250 251
f 251 250 253
f 251 253 254
f 255 251 254
f 252 251 255
f 257 252 255
f 245 255 254
f 256 255 245
f 256 245 258
f 257 255 256
f 259 256 258
f 259 258 260
f 262 256 259
f 246 259 260
f 262 259 246
f 262 246 247
f 263 261 247
f 261 262 247
f 264 262 261
f 264 261 263
f 264 263 265
f 266 264 265
f 267 264 266
f 269 267 266
f 268 269 266
f 272 267 269
f 270 269 268
f 272 269 271
f 271 269 270
f 271 270 274
f 273 271 274
f 273 272 271
f 273 274 275
f 276 272 273
f 229 273 275
f 276 273 229
f 276 229 277
f 277 229 230
f 278 277 230
f 278 230 231
f 280 277 278
f 279 278 231
f 279 231 232
f 280 278 279
f 281 279 232
f 282 280 279
f 281 282 279
f 284 280 282
f 285 282 281
f 284 282 285
f 285 281 283
f 285 283 233
f 285 233 234
f 286 284 285
f 286 285 234
f 287 286 234
f 287 234 235
f 288 286 287
f 287 235 236
f 287 236 237
f 288 287 237
f 288 237 238
f 289 288 238
f 291 238 290
f 289 238 291
f 292 289 291
f 291 290 239
f 293 291 239
f 292 291 293
f 293 239 294
f 295 293 294
f 240 295 294
f 295 240 241
f 296 293 295
f 241 296 295
f 241 242 248
f 296 241 248
f 296 248 249
f 297 280 284
f 298 297 284
f 299 280 297
f 300 298 284
f 299 277 280
f 300 284 286
f 301 277 299
f 301 276 277
f 303 300 286
f 303 286 288
f 302 272 276
f 302 276 301
f 305 288 289
f 305 303 288
f 304 272 302
f 267 272 304
f 308 305 289
f 292 308 289
f 306 267 304
f 307 267 306
f 293 308 292
f 264 267 307
f 262 264 307
f 293 310 308
f 262 307 309
f 296 310 293
f 249 310 296
f 249 312 310
f 262 309 311
f 256 262 311
f 249 314 312
f 252 314 249
f 257 256 311
f 257 311 313
f 252 313 314
f 257 313 252
f 315 305 316
f 303 305 315
f 316 305 317
f 305 308 317
f 317 308 318
f 308 310 318
f 318 310 319
f 310 312 319
f 319 312 320
f 312 314 320
f 320 314 321
f 314 313 321
f 313 311 321
f 321 311 322
f 311 309 322
f 322 309 323
f 309 307 323
f 323 307 324
f 324 307 325
f 307 306 325
f 306 304 325
f 325 304 326
f 304 302 326
f 326 302 327
f 302 301 327
f 327 301 328
f 301 299 328
f 328 299 329
f 299 297 329
f 329 297 330
f 297 298 330
f 298 300 330
f 330 300 331
f 300 303 331
f 331 303 315
f 332 317 333
f 332 316 317
f 333 317 318
f 335 333 318
f 332 315 316
f 334 315 332
f 335 318 319
f 334 331 315
f 336 335 319
f 336 319 320
f 337 331 334
f 338 336 320
f 337 330 331
f 338 320 321
f 339 330 337
f 329 330 339
f 341 338 321
f 322 341 321
f 328 339 340
f 328 329 339
f 322 342 341
f 323 342 322
f 327 328 340
f 323 344 342
f 327 340 343
f 326 327 343
f 324 344 323
f 324 345 344
f 325 345 324
f 325 326 343
f 325 343 345
f 342 344 346
f 346 344 347
f 344 345 347
f 347 345 348
f 345 343 348
f 348 340 349
f 343 340 348
f 349 340 350
f 340 339 350
f 350 339 351
f 339 337 351
f 351 337 352
f 337 334 352
f 352 334 353
f 334 332 353
f 353 332 354
f 332 333 354
f 354 333 355
f 333 335 355
f 355 335 356
f 356 335 357
f 335 336 357
f 336 338 357
f 357 338 358
f 338 341 358
f 358 341 359
f 359 341 346
f 341 342 346
f 39 347 40
f 38 347 39
f 40 348 360
f 347 348 40
f 37 347 38
f 35 347 37
f 360 348 521
f 35 346 347
f 348 349 521
f 34 346 35
f 33 346 34
f 361 346 33
f 362 346 361
f 362 359 346
f 349 350 521
f 521 350 364
f 350 351 364
f 362 358 359
f 362 363 358
f 351 366 364
f 352 366 351
f 358 363 357
f 363 365 357
f 353 366 352
f 357 365 356
f 365 540 356
f 353 367 366
f 356 540 355
f 354 367 353
f 354 368 367
f 354 369 368
f 540 539 355
f 354 539 369
f 355 539 354
f 370 555 420
f 555 371 420
f 420 371 373
f 371 372 373
f 372 424 373
f 372 374 424
f 374 375 424
f 375 425 424
f 375 556 425
f 556 377 425
f 556 376 377
f 376 378 377
f 376 379 378
f 379 380 378
f 379 382 380
f 379 381 382
f 381 430 382
f 381 383 430
f 383 385 430
f 383 384 385
f 384 431 385
f 384 386 431
f 386 433 431
f 386 387 433
f 387 389 433
f 387 388 389
f 388 557 389
f 389 557 391
f 557 390 391
f 390 107 391
f 8 392 5
f 378 427 377
f 385 395 430
f 119 444 117
f 125 449 447
f 94 459 93
f 392 8 411
f 411 8 410
f 411 410 412
f 412 410 1
f 413 414 1
f 1 414 412
f 414 413 415
f 415 413 129
f 415 129 416
f 129 130 416
f 416 130 418
f 130 417 418
f 418 417 132
f 132 419 418
f 370 419 132
f 420 421 370
f 370 421 419
f 393 420 373
f 421 420 393
f 393 373 423
f 424 422 373
f 373 422 423
f 394 422 424
f 394 424 425
f 426 425 377
f 394 425 426
f 377 427 426
f 380 428 378
f 378 428 427
f 380 429 428
f 380 382 429
f 429 382 395
f 395 382 430
f 385 396 395
f 385 432 396
f 431 432 385
f 434 431 433
f 432 431 434
f 435 433 389
f 434 433 435
f 391 436 389
f 389 436 435
f 107 397 391
f 391 397 436
f 107 398 397
f 437 398 107
f 399 437 109
f 398 437 399
f 439 438 109
f 109 438 399
f 440 439 113
f 438 439 440
f 440 113 400
f 114 400 113
f 114 401 400
f 441 401 114
f 402 441 442
f 401 441 402
f 443 442 117
f 402 442 443
f 117 444 443
f 121 403 119
f 119 403 444
f 121 446 403
f 448 445 447
f 446 445 448
f 121 445 446
f 448 447 449
f 125 450 449
f 125 451 450
f 450 451 452
f 404 451 453
f 452 451 404
f 404 453 454
f 405 454 87
f 404 454 405
f 89 455 87
f 87 455 405
f 456 89 91
f 455 89 456
f 458 457 93
f 93 457 91
f 91 457 456
f 459 458 93
f 459 94 559
f 94 460 559
f 406 460 96
f 559 460 406
f 98 461 96
f 96 461 406
f 98 462 461
f 100 462 98
f 100 463 462
f 101 463 100
f 101 102 463
f 463 102 407
f 102 103 407
f 105 408 103
f 103 408 407
f 464 465 105
f 105 465 408
f 465 464 466
f 63 466 464
f 409 466 63
f 364 522 521
f 366 467 364
f 366 468 467
f 366 367 468
f 367 368 469
f 368 368 469
f 368 369 368
f 470 409 63
f 409 470 471
f 471 66 473
f 470 66 471
f 472 473 66
f 69 474 472
f 472 474 473
f 69 70 474
f 523 70 475
f 474 70 523
f 475 70 476
f 476 71 478
f 70 71 476
f 71 477 478
f 478 477 479
f 477 74 479
f 479 74 480
f 75 480 74
f 482 481 75
f 75 481 480
f 482 483 481
f 80 484 78
f 78 484 482
f 482 484 483
f 484 80 485
f 81 486 80
f 80 486 485
f 83 487 81
f 81 487 486
f 83 489 487
f 83 488 489
f 489 488 490
f 488 42 490
f 490 42 491
f 492 491 42
f 491 492 493
f 493 45 494
f 492 45 493
f 47 495 45
f 45 495 494
f 47 497 495
f 47 496 497
f 497 496 498
f 496 499 498
f 498 499 531
f 531 49 500
f 499 49 531
f 51 500 49
f 51 501 500
f 500 501 502
f 502 501 503
f 503 53 504
f 501 53 503
f 55 504 53
f 504 55 505
f 505 55 506
f 57 506 55
f 57 507 506
f 59 507 57
f 59 508 507
f 61 508 59
f 61 509 508
f 18 509 61
f 18 510 509
f 18 21 510
f 510 21 511
f 511 21 512
f 23 512 21
f 23 25 512
f 512 25 513
f 25 27 513
f 29 514 27
f 27 514 513
f 514 29 515
f 31 516 29
f 29 516 515
f 516 31 518
f 31 517 518
f 518 517 536
f 39 519 38
f 38 519 36
f 36 519 517
f 517 519 536
f 40 520 39
f 39 520 519
f 360 520 40
f 521 520 360
f 538 520 521
f 538 521 522
f 522 364 467
f 509 82 508
f 365 24 22
f 365 26 24
f 363 26 365
f 363 28 26
f 362 28 363
f 362 30 28
f 362 361 30
f 361 32 30
f 361 33 32
f 33 33 32
f 33 34 33
f 85 409 86
f 86 409 471
f 88 471 473
f 86 471 88
f 90 474 523
f 473 474 88
f 88 474 90
f 92 523 475
f 90 523 92
f 476 524 475
f 475 524 92
f 95 476 478
f 524 476 95
f 479 95 478
f 97 479 480
f 95 479 97
f 481 525 480
f 480 525 97
f 525 483 99
f 481 483 525
f 484 526 483
f 483 526 99
f 484 527 526
f 485 527 484
f 104 486 487
f 485 486 527
f 527 486 104
f 104 487 489
f 489 528 104
f 489 529 528
f 490 529 489
f 491 529 490
f 62 529 491
f 62 493 64
f 491 493 62
f 64 494 65
f 493 494 64
f 495 65 494
f 497 65 495
f 67 65 497
f 498 68 497
f 497 68 67
f 531 530 498
f 498 530 68
f 72 531 500
f 530 531 72
f 500 502 72
f 72 502 73
f 503 76 502
f 502 76 73
f 504 77 503
f 503 77 76
f 505 532 504
f 504 532 77
f 506 533 505
f 505 533 532
f 507 79 506
f 506 79 533
f 79 508 82
f 507 508 79
f 510 82 509
f 84 82 510
f 84 510 511
f 84 511 41
f 512 41 511
f 43 512 513
f 41 512 43
f 43 513 44
f 513 514 44
f 44 514 46
f 46 514 515
f 515 534 46
f 534 516 48
f 515 516 534
f 518 535 516
f 516 535 48
f 50 518 536
f 535 518 50
f 50 536 519
f 520 537 519
f 519 537 50
f 52 520 538
f 537 520 52
f 52 538 54
f 522 54 538
f 522 56 54
f 56 467 58
f 522 467 56
f 468 60 467
f 467 60 58
f 367 60 468
f 19 60 367
f 539 19 369
f 469 19 367
f 368 19 469
f 369 19 368
f 20 19 539
f 20 539 22
f 22 539 540
f 22 540 365
f 411 541 392
f 411 542 541
f 412 542 411
f 414 542 412
f 414 543 542
f 415 543 414
f 415 564 543
f 416 564 415
f 416 544 564
f 416 545 544
f 416 546 545
f 416 550 546
f 418 550 416
f 419 547 418
f 421 548 419
f 421 549 563
f 423 549 393
f 423 551 549
f 394 552 422
f 427 15 426
f 429 9 553
f 434 554 128
f 401 379 376
f 403 384 383
f 547 550 418
f 419 548 547
f 421 563 548
f 393 549 421
f 551 422 552
f 423 422 551
f 552 394 17
f 17 426 15
f 394 426 17
f 427 14 15
f 427 428 14
f 14 428 11
f 429 553 428
f 428 553 11
f 7 9 395
f 395 9 429
f 6 7 395
f 395 396 6
f 6 396 4
f 4 396 3
f 3 396 126
f 126 396 127
f 432 127 396
f 128 127 432
f 432 434 128
f 435 554 434
f 554 435 131
f 435 436 131
f 397 555 436
f 436 555 131
f 398 371 397
f 397 371 555
f 398 399 371
f 371 399 372
f 399 438 372
f 438 440 372
f 372 440 374
f 400 375 440
f 440 375 374
f 376 556 400
f 400 556 375
f 401 376 400
f 401 402 379
f 379 443 381
f 402 443 379
f 443 444 381
f 381 444 383
f 403 383 444
f 403 446 384
f 446 448 384
f 384 448 386
f 448 449 386
f 386 449 387
f 449 450 387
f 387 450 388
f 452 557 450
f 450 557 388
f 390 452 404
f 557 452 390
f 404 106 390
f 404 405 106
f 106 405 108
f 405 455 108
f 108 455 110
f 110 456 111
f 455 456 110
f 112 457 458
f 111 457 112
f 456 457 111
f 112 458 459
f 559 558 459
f 459 558 112
f 115 559 406
f 558 559 115
f 406 116 115
f 461 560 406
f 406 560 116
f 461 462 560
f 560 462 118
f 462 463 118
f 118 463 120
f 407 120 463
f 407 122 120
f 123 122 407
f 407 408 123
f 465 124 408
f 408 124 123
f 466 561 465
f 465 561 124
f 561 466 85
f 85 466 409
f 151 154 544
f 564 154 543
f 154 159 543
f 159 162 543
f 162 542 543
f 162 541 542
f 17 16 552
f 133 552 16
f 133 551 552
f 136 551 133
f 136 549 551
f 562 549 136
f 549 562 563
f 143 563 562
f 563 143 548
f 146 548 143
f 548 146 547
f 146 550 547
f 146 151 550
f 546 550 151
f 151 545 546
f 544 545 151
f 546 545 545
f 545 545 544
f 154 564 544
