# Render LOD; unchanged CAD body-local coordinates in mm
v 91.0228119 109.9045556 87.0000328
v 90.7513513 109.9096199 87.4558763
v 91.6948977 110.2139696 87.0000337
v 91.2757963 109.9806843 87.4945674
v 92.1722464 110.8615303 87.0000326
v 92.2101308 111.1230800 87.6039249
v 92.1648752 111.7316298 87.0000330
v 92.1868692 111.6137112 87.6402144
v 91.8655144 112.2484388 87.0000335
v 91.4265367 112.5845577 87.0000337
v 91.9020333 112.2309848 87.6890893
v 90.8173880 112.7254314 87.0000338
v 91.1657888 112.6869414 87.7509236
v 90.8116026 112.7163841 87.6487227
v 90.7731728 112.7262616 87.1525280
v 90.1302004 112.5556696 87.0000339
v 90.4113829 112.6726965 87.8049926
v 89.5052979 111.8958037 87.0000343
v 89.8882995 112.3715777 87.8446693
v 89.6297044 112.0851369 87.2519773
v 89.4008138 111.3813441 87.8009851
v 89.4284433 111.0286478 87.0000333
v 89.4988117 110.8160198 87.8425881
v 89.6914781 110.4620918 87.0000329
v 89.4130492 111.0409833 87.9512293
v 89.7802337 110.3505283 87.8814121
v 90.1941171 110.0389850 87.0000330
v 90.2576895 110.0203953 87.9241758
v 90.2246158 110.0308170 87.4193237
v 91.0077329 109.8987553 87.9792979
v 90.2814039 110.0058681 88.0513022
v 90.8698684 109.9064698 88.0901579
v 91.6947426 110.2165151 88.0272378
v 91.3927986 110.0296553 88.1278576
v 91.9334641 110.4382470 88.1781728
v 92.2013236 111.0978156 88.1016809
v 92.1794582 111.7022480 88.1461082
v 92.2054853 111.1044315 88.2272131
v 92.1896095 111.6096841 88.2626613
v 91.8102642 112.3136096 88.2004230
v 91.2364432 112.6634705 88.2455364
v 90.5877238 112.7093072 88.2880572
v 90.8162550 112.7304280 88.4013826
v 89.8148984 112.3323982 88.3474454
v 90.2401460 112.5970883 88.4408379
v 89.8357080 112.3258559 88.4749160
v 89.3952237 111.4673150 88.4152359
v 89.5430899 110.6981739 88.4797005
v 89.4289894 111.0381583 88.5789727
v 90.2306249 110.0292429 88.6691941
v 90.8934267 109.9026457 88.5933976
v 90.8559826 109.9016260 88.7132130
v 91.5031490 110.0809874 88.6369472
v 91.9384044 110.4702002 88.6790670
v 92.1868375 110.9750934 88.7228795
v 92.0195985 110.5835365 88.8147244
v 92.1902119 111.6149538 88.7651418
v 92.2134472 111.1471447 88.8551614
v 92.1209473 111.8796891 88.9067473
v 91.3424756 112.6282393 88.8653764
v 91.4847303 112.5725994 88.9730128
v 90.7973519 112.7175632 88.9043592
v 89.9073432 112.3943308 89.0950891
v 89.4195680 111.0754071 89.0730271
v 89.4134929 111.1134586 89.1949113
v 89.6504047 110.5176530 89.2373765
v 90.4729881 109.9453728 89.1918024
v 90.0539263 110.1268572 89.2785925
v 91.2655123 109.9586001 89.2459992
v 90.6451553 109.9117648 89.3231970
v 91.2436289 109.9710022 89.3655456
v 91.6848583 110.2106864 89.4035050
v 92.0118372 110.5750640 89.4372477
v 92.2125770 111.5562038 89.3907496
v 92.2370625 111.2504130 89.4893864
v 91.8846802 112.2376634 89.4412607
v 91.2479551 112.6658152 89.4936333
v 91.4102372 112.5960701 89.6086079
v 90.5067204 112.6943648 89.5459671
v 90.8891927 112.7157585 89.6423484
v 90.3699288 112.6539108 89.6788942
v 89.8755608 112.3697325 89.6002124
v 89.9040255 112.3860897 89.7191239
v 89.4098654 111.4406728 89.6728862
v 89.4118118 111.1535133 89.8170028
v 89.9589796 110.1719555 89.7721332
v 90.7436278 109.9000025 89.8365823
v 90.6397473 109.9071277 89.9468560
v 91.8582813 110.3513903 89.9218597
v 91.4763515 110.0502873 90.0081386
v 92.0298074 110.6007224 90.0652794
v 92.2173572 111.0967797 89.9793148
v 92.1252194 111.8374191 90.0315477
v 92.2369720 111.2838891 90.1156531
v 92.0350809 112.0172409 90.1683937
v 91.7049513 112.4006753 90.2056694
v 90.7146296 112.7159908 90.1582149
v 91.0807670 112.7150063 90.2552661
v 90.1922993 112.5815863 90.1969130
v 90.3138595 112.6315235 90.3092474
v 89.6314438 112.1009988 90.2464121
v 89.8817541 112.3662003 90.3459677
v 89.4408464 110.9625376 90.3328836
v 89.7728839 110.3627695 90.3817288
v 89.6210497 110.5637031 90.4843310
v 90.2836934 110.0029303 90.4225226
v 89.9589799 110.1977547 90.5224875
v 90.4159437 109.9610780 90.5566352
v 91.1222590 109.9180092 90.4924166
v 92.1723226 110.9297882 90.5903571
v 92.1718688 110.9446888 90.7157354
v 92.2117311 111.4447872 90.6296933
v 92.0706324 111.9622284 90.6657693
v 92.2072136 111.5541560 90.7560569
v 91.8706329 112.2685607 90.8174358
v 91.2434097 112.6539656 90.8678065
v 90.6545117 112.7191516 90.9086449
v 89.8412327 112.3445974 90.8533365
v 89.9368984 112.4306744 90.9608726
v 89.4851978 111.7802429 90.8974176
v 89.4065502 111.2736639 90.9332976
v 89.4441690 111.7057196 91.0296638
v 89.5022942 110.8022432 90.9697360
v 89.4502259 110.9475776 91.0798683
v 89.9067059 110.2158797 91.0249538
v 90.1592096 110.0672649 91.1630420
v 90.6236343 109.9154829 91.0754435
v 91.2382562 109.9674445 91.1150097
v 91.7549339 110.2648736 91.1621693
v 91.2699658 109.9727445 91.2409928
v 92.1389581 110.8120492 91.2069258
v 91.8349744 110.3385692 91.2909040
v 92.2093765 111.5429221 91.2595297
v 92.1986133 110.9850537 91.3485842
v 91.9105279 112.2117397 91.3142826
v 92.1583914 111.7367528 91.3977442
v 91.8435188 112.2800495 91.4428753
v 91.4164981 112.5838904 91.3553773
v 91.3825538 112.6002751 91.4825083
v 90.7980154 112.7339480 91.4003003
v 90.9079471 112.7167528 91.5166665
v 90.0561055 112.5116161 91.4521890
v 90.2151121 112.6088411 91.5668719
v 89.3947463 111.1623743 91.6915207
v 90.3574163 109.9610769 91.6884880
v 89.7541645 110.3739369 91.7495370
v 90.2522716 110.0248387 91.7948292
v 91.1452653 109.9434300 91.7368958
v 90.8122347 109.8981467 91.8346639
v 91.5948340 110.1448893 91.7717543
v 92.0487157 110.6107418 91.8235441
v 91.5494644 110.1023281 91.8884893
v 92.2266400 111.3476679 91.8736847
v 92.2264284 111.4159280 91.9970507
v 92.0801067 111.9295217 91.9134650
v 91.6920065 112.4231047 91.9587360
v 91.1926225 112.6661168 91.9984537
v 90.6750277 112.7187905 92.0357877
v 90.9739179 112.7165875 92.1402570
v 90.0546550 112.5059271 92.0856055
v 89.6169368 112.0585508 92.1257828
v 89.6654828 112.1397024 92.2464573
v 89.3947891 111.3811266 92.1793961
v 89.4313976 111.5788159 92.2852673
v 89.6180463 110.5575693 92.3595950
v 90.0888262 110.1073250 92.2844431
v 90.6074338 109.9191192 92.3247246
v 90.6285565 109.9111781 92.4455056
v 91.6218580 110.1538046 92.5207618
v 92.1257395 110.7616533 92.5771340
v 92.2086515 111.5285424 92.6305635
v 91.8409180 112.2899337 92.5679765
v 91.9362500 112.1836924 92.6858833
v 91.3196380 112.6269586 92.6148610
v 91.3244365 112.6298084 92.7350176
v 89.7848269 112.2842891 92.7315945
v 89.8908545 112.3763266 92.8444357
v 89.4614927 111.7197885 92.7772845
v 89.4980997 111.8483081 92.8933992
v 89.4418283 110.9231626 92.8350967
v 89.4326844 110.9740128 92.9593772
v 89.9223661 110.2124505 92.8989308
v 89.8308949 110.2967622 93.0081223
v 90.3726823 109.9747244 93.0530670
v 90.8901154 109.9091302 93.0928780
v 91.6390545 110.1546049 93.0293514
v 91.3511287 110.0145651 93.1252405
v 92.0963675 110.7287629 93.0779414
v 91.8596928 110.3583343 93.1676321
v 92.1571320 110.8997392 93.2143391
v 92.2233979 111.3030974 93.1190896
v 92.1281920 111.8172471 93.1555910
v 92.2201215 111.4853184 93.2507239
v 91.7356697 112.3978797 93.2114204
v 91.9712575 112.1219442 93.3032484
v 91.0608877 112.7019436 93.2594370
v 90.5054117 112.6869913 93.2977646
v 89.9790844 112.4524220 93.3352808
v 89.5536635 111.9557515 93.3874483
v 89.8718437 112.3763590 93.4665350
v 89.4605118 111.7248842 93.5233819
v 89.4048032 111.3749156 93.4244854
v 89.4951052 110.8258229 93.4673790
v 89.8973892 110.2155801 93.5265848
v 90.6397335 109.9151244 93.5761961
v 90.0703522 110.1044840 93.6553551
v 91.3877784 110.0109047 93.6278520
v 90.8077609 109.8976851 93.7119006
v 91.4818196 110.0697041 93.7615809
v 91.9845643 110.5191405 93.6871902
v 91.8882606 110.4098762 93.7966500
v 92.1423824 110.8435381 93.8354768
v 92.2193076 111.3358702 93.8702898
v 92.1166470 111.8572960 93.9052070
v 91.7202397 112.4107334 93.8384230
v 91.7148036 112.4037101 93.9512795
v 91.0007461 112.7138223 93.8891086
v 90.3626689 112.6516287 93.9280028
v 90.9502969 112.7340558 94.0087890
v 89.7265733 112.2327738 93.9884229
v 90.2196258 112.5918835 94.0690276
v 89.7266244 112.2145566 94.1094530
v 89.3930673 111.3849157 94.0476106
v 89.5969288 110.5822828 94.1129762
v 89.4559323 110.9424133 94.2078548
v 89.6591269 110.5080163 94.2412178
v 90.7341480 109.8946557 94.2059573
v 90.1576313 110.0622544 94.2901998
v 91.4863072 110.0720590 94.2631028
v 91.3726723 110.0041087 94.3732949
v 91.9246464 110.4448116 94.4311040
v 92.2274425 111.2706004 94.3646621
v 92.1770508 110.9639225 94.4664890
v 92.2019959 111.5847099 94.5126689
v 91.2811114 112.6581775 94.4919492
v 91.8149020 112.3305424 94.5710871
v 90.5010727 112.6903964 94.5506791
v 91.0624478 112.7090366 94.6331873
v 90.4082901 112.6613548 94.6818406
v 89.9479309 112.4289313 94.5928991
v 89.6002436 112.0201486 94.6287941
v 89.4239312 111.5617423 94.6676151
v 89.6042782 112.0523824 94.7517897
v 89.4524297 110.9485431 94.7112695
v 89.3969548 111.3115672 94.8039802
v 89.7515064 110.3793462 94.7553096
v 89.5248396 110.7572375 94.8446002
v 89.8219638 110.3057564 94.8837148
v 90.9836051 109.9145597 94.8498454
v 90.4666368 109.9389258 94.9350675
v 88.7660868 113.2436994 87.0000336
v 88.2296747 112.4274181 87.0000336
v 89.2140308 113.6476795 86.9923285
v 87.9855687 111.2660019 87.0000336
v 90.2560404 114.0745712 87.0000336
v 88.3831121 109.8551256 87.0000336
v 91.5589026 114.0485837 87.0000336
v 92.5643414 113.5089308 87.0000336
v 89.5000032 108.8018919 87.0000336
v 93.1376063 112.8979559 87.0000336
v 90.7213136 108.5014040 87.0000336
v 93.5761830 111.8954035 87.0000336
v 91.7564463 108.6579801 87.0000336
v 93.5922136 110.9159531 87.0000336
v 93.3582336 110.1125120 87.0000336
v 92.7318436 109.2469389 87.0000336
v 87.9973426 111.2245133 86.7942152
v 88.1464718 112.1977620 86.7956545
v 88.3546476 112.6528345 86.7999908
v 88.5364335 112.9489142 86.7980764
v 88.7611357 113.2181643 86.7999908
v 88.8586348 113.3181093 86.7999908
v 89.0205332 113.3962309 86.6373177
v 89.0679031 113.5027940 86.7999908
v 89.2946033 113.6657811 86.7999908
v 89.6573246 113.8702407 86.7963894
v 90.4633642 114.1055989 86.8015179
v 91.0475602 114.1034649 86.7663381
v 91.9739202 113.8852045 86.7928100
v 92.8769280 113.2270437 86.8009579
v 93.3372728 112.5425674 86.7982041
v 93.6099091 111.6644596 86.8013794
v 93.5523828 110.6793552 86.8033103
v 93.2733107 109.9613550 86.7977719
v 92.8661876 109.3990396 86.8002367
v 92.1526923 108.8358213 86.7969605
v 91.3123973 108.5515338 86.8027482
v 90.6157292 108.5138427 86.7982741
v 89.7303907 108.7122574 86.7980195
v 88.8041498 109.3380803 86.7974509
v 88.2270900 110.2061863 86.7998359
v 89.0911469 111.7062292 85.5321594
v 88.5399532 111.1708131 85.9324821
v 88.2838202 111.8370197 86.3197182
v 89.7507382 113.6693689 86.3596811
v 90.3533464 113.9638712 86.5249775
v 90.7338934 113.8247717 86.2390926
v 90.4944995 113.5176556 85.8886350
v 89.8765214 113.3906335 85.9636027
v 91.5737342 113.8580339 86.4514818
v 90.1329725 113.1304475 85.6472941
v 90.6843456 113.1021815 85.5607531
v 91.5002035 113.6117246 86.0786615
v 92.4836207 113.3958054 86.4707309
v 91.3608046 113.1507155 85.6342109
v 91.5968113 113.0434742 85.6379553
v 92.3434071 113.1619600 86.0782633
v 90.7888665 112.8219662 85.3990916
v 91.4183906 112.6537742 85.4000000
v 93.1662219 112.5751335 86.4718024
v 91.4901691 112.8610960 85.5072648
v 92.0948448 112.8598112 85.7047264
v 91.6472212 112.5636523 85.4042172
v 92.9491202 112.4063112 86.0783441
v 92.0035910 112.2551021 85.4063243
v 93.4708843 111.5732892 86.4744063
v 92.5402754 112.1510231 85.6348810
v 93.1937066 111.5373316 86.0720645
v 92.8003932 111.5035802 85.6977545
v 93.0270275 110.6964060 85.9546500
v 93.3701241 110.5427468 86.4736313
v 92.7223739 109.8240105 86.1072892
v 92.3252212 111.3258832 85.4031441
v 92.8669416 109.6085421 86.4706354
v 92.5323667 110.7969585 85.5596243
v 92.1464723 109.3298178 86.0822548
v 92.0347267 108.9398047 86.4720783
v 91.9577319 110.3178628 85.4054991
v 92.3399850 109.9639900 85.7212908
v 91.8482068 109.7214569 85.6379553
v 91.4931858 109.0052719 86.0882767
v 91.7557982 109.4468666 85.7699756
v 91.0704277 108.6603294 86.4717766
v 91.7493405 109.9078500 85.5072648
v 91.6113379 110.0786962 85.4000000
v 90.3464833 108.6961651 86.4771038
v 91.3960525 109.9232084 85.4047699
v 90.5881271 108.9217286 86.0843174
v 90.9508728 109.3544670 85.6647639
v 90.8886583 109.7988818 85.4063832
v 89.6247747 108.9376939 86.4526506
v 89.6873491 109.1958068 86.0783026
v 89.0151299 109.3399903 86.4915452
v 90.2468770 109.5009026 85.6201930
v 88.9849889 109.8875169 85.9782547
v 89.6420052 109.7090532 85.6945365
v 88.4612012 110.0525765 86.4714266
v 89.4794328 109.9627771 85.6379553
v 89.4137214 110.0309447 85.6379553
v 88.5845570 110.4529923 86.0818504
v 89.3168137 109.9099654 85.7497618
v 89.9811612 110.0615314 85.4038209
v 88.1545932 111.0108705 86.4865181
v 89.3929100 110.2431029 85.5558769
v 89.2345316 110.2593659 85.6379553
v 89.7871401 110.2612452 85.4000000
v 89.6458904 110.0938160 85.5072648
v 89.6158118 110.1232870 85.5072648
v 89.7359553 110.3136950 85.4000000
v 89.5865023 110.1535268 85.5072648
v 89.6622080 110.3989823 85.3999997
v 89.5989781 110.4855662 85.4000000
v 89.4255990 110.3517937 85.5072648
v 89.0780780 110.6409335 85.5974856
v 89.4417713 110.7611085 85.3999574
v 88.4852160 112.4351766 86.3596811
v 88.4426111 112.4996110 86.4667815
v 88.4309549 112.5920988 86.5762142
v 88.5440059 112.5498143 86.3596811
v 88.5185563 112.6614394 86.4867313
v 88.6084356 112.6612914 86.3596811
v 88.7535306 112.8741657 86.3596811
v 88.7858890 112.0762024 85.8400107
v 88.7607939 112.3024292 85.9636027
v 88.6135627 112.3733303 86.1543984
v 88.8338541 112.9748795 86.3596811
v 88.6958290 112.9135743 86.4680425
v 88.8761085 113.0242628 86.3598362
v 88.7854827 112.4337791 85.9905960
v 88.8125769 112.4034846 85.9636027
v 88.9191337 113.0714929 86.3596811
v 88.8313761 113.1529011 86.5762142
v 88.9330670 113.1622648 86.4421839
v 88.8694015 112.5018920 85.9636027
v 88.7219994 112.5740745 86.1543984
v 88.9134940 113.2375554 86.5762142
v 89.0091131 113.1637498 86.3596811
v 88.8520619 112.6903620 86.0920821
v 88.9992030 112.4832509 85.8428454
v 88.9310114 112.5972241 85.9636027
v 88.9973210 112.6894810 85.9636027
v 88.8578657 112.7760146 86.1543984
v 89.1146445 113.4172855 86.5762142
v 89.2024022 113.3343397 86.3596811
v 89.2628305 113.4575714 86.4572783
v 88.9489905 112.7836465 86.0648672
v 89.0681594 112.7783210 85.9636027
v 88.9331476 112.8716884 86.1543984
v 89.1496078 112.7045992 85.8504570
v 89.1432705 112.8634878 85.9636027
v 89.1461758 112.2218752 85.6379553
v 88.9725403 112.3164385 85.7906844
v 89.1575407 112.2424622 85.6379553
v 89.3327143 113.5761724 86.5762142
v 89.4116706 113.4847697 86.3596811
v 89.0758263 112.9718612 86.0995597
v 89.1812105 112.2834652 85.6379553
v 89.2226540 112.9448106 85.9636027
v 89.0179145 112.3957111 85.7906844
v 89.1935154 112.3037959 85.6379553
v 89.0976399 113.0511623 86.1543984
v 89.2638411 112.9840197 85.9636027
v 89.5962338 113.6007019 86.3506428
v 89.2978584 112.3189591 85.5810122
v 89.3059683 113.0221184 85.9636027
v 89.2448711 112.3833248 85.6379553
v 89.0814043 112.4947165 85.7906844
v 89.2791575 113.2166836 86.1533150
v 89.2795664 112.4500859 85.6355973
v 89.3348358 111.5423316 85.3997417
v 89.1992406 112.6512115 85.7906844
v 89.3591185 112.5341819 85.6379553
v 89.5225853 112.0167745 85.4000000
v 89.3878707 112.5675154 85.6378559
v 89.5382995 112.9716941 85.7751786
v 89.5776155 113.2279026 85.9636027
v 89.4217537 112.6051685 85.6379553
v 89.3356196 112.1306434 85.5072648
v 89.2767442 112.7396244 85.7906844
v 89.4761857 113.3568914 86.1543984
v 89.5592436 112.0803292 85.4000000
v 89.6258096 113.2581423 85.9636027
v 89.3672363 112.1853142 85.5072648
v 89.3727051 112.1942836 85.5072648
v 89.6746018 113.2871007 85.9636027
v 89.4878924 112.6729090 85.6379553
v 89.5989781 112.1418338 85.4000000
v 89.5194980 112.7030347 85.6378501
v 89.7904906 113.1245460 85.7693671
v 89.3591114 112.7321075 85.7334491
v 89.4124396 112.2563007 85.5072648
v 89.7743226 113.3414298 85.9636027
v 89.4167121 112.8769846 85.7906844
v 89.5572782 112.7373179 85.6379553
v 89.5901930 112.7656218 85.6378364
v 89.6417888 112.2013737 85.4000000
v 89.6298257 112.7982246 85.6379553
v 89.7955143 113.5333754 86.1543984
v 89.6875048 112.2586926 85.4000000
v 89.5131858 112.3910983 85.5072648
v 89.7053640 112.8554580 85.6379553
v 89.7359553 112.3137050 85.4000000
v 89.8142936 112.8070942 85.5673894
v 89.7836367 112.9088474 85.6379553
v 89.5857124 112.4736360 85.5072511
v 89.6763963 113.0749099 85.7906844
v 89.7871401 112.3661548 85.4000000
v 89.7202229 113.1026606 85.7907511
v 89.8757571 112.8724042 85.5812307
v 89.6345255 112.5226498 85.5072648
v 89.7543271 113.1229176 85.7906844
v 89.8644729 112.9581365 85.6379553
v 89.6747840 112.5607413 85.5072798
v 89.8408885 112.4160418 85.4000000
v 89.6962208 112.5798833 85.5072648
v 89.9475308 113.0034108 85.6379553
v 89.8573805 113.1793823 85.7906844
v 89.7397026 112.6170080 85.5072689
v 89.8970295 112.4631099 85.4000000
v 89.7608214 112.6340415 85.5072648
v 89.9554777 112.5073591 85.4000000
v 89.8194404 112.6788032 85.5072648
v 90.0160621 112.5487038 85.4000000
v 89.8975422 112.7323634 85.5072648
v 90.0786119 112.5868879 85.4000000
v 89.9603484 112.7710601 85.5072648
v 89.9887005 112.7873204 85.5072862
v 90.1429561 112.6219968 85.4000000
v 90.0340067 112.8117214 85.5072648
v 91.7879641 111.8761681 85.4000000
v 90.8137427 112.4386789 85.4000000
v 91.7879641 110.7512319 85.4000000
v 89.8394359 111.8761681 85.4000000
v 90.8137427 110.1887211 85.4000000
v 89.8394359 110.7512319 85.4000000
v 89.8394359 111.8761681 86.2000168
v 90.8137427 112.4386789 86.2000168
v 89.8394359 110.7512319 86.2000168
v 90.8137427 110.1887211 86.2000168
v 91.7879641 110.7512319 86.2000168
v 91.7879641 111.8761681 86.2000168
v 91.6359013 110.1514858 94.8981661
v 91.1728423 109.9505193 94.9873368
v 91.7993635 110.2861543 95.0375402
v 92.1844142 110.9728423 95.0908925
v 92.1545971 111.7553917 95.0273184
v 91.8733517 112.2370425 95.0650280
v 92.1202807 111.8365460 95.1333294
v 91.7092884 112.4178070 95.1204767
v 91.4100165 112.5803104 95.1063874
v 91.3562681 112.6043142 95.1250355
v 91.2933765 112.6290015 95.1250355
v 91.2292886 112.6505281 95.1250355
v 91.1643462 112.6690649 95.1250355
v 90.8109868 112.4205879 87.4006636
v 90.7307571 110.2050257 87.7082141
v 91.3460875 110.3294962 87.7639844
v 91.7161019 112.0050076 87.9326580
v 89.8930394 111.9502748 88.1212316
v 89.6894246 111.2925634 88.1803487
v 91.7798465 110.7579977 88.4436618
v 91.9255914 111.4443071 88.5090754
v 91.5882187 112.1232011 88.5745291
v 90.0932982 110.4626014 88.8926346
v 91.2692793 110.2845340 89.0082647
v 91.8814527 111.6993280 89.1548020
v 90.3911679 112.3432136 89.3173167
v 90.4441633 110.2686313 89.5538611
v 90.3666806 112.3346798 87.4402947
v 90.0949089 112.5290038 87.1997713
v 89.9426154 111.9971788 87.4885717
v 89.4302389 111.5612303 87.2878890
v 89.7035779 111.4750785 87.5443360
v 89.4423387 110.9676073 87.3332402
v 89.7396859 110.3995997 87.3747866
v 89.8240206 110.7993277 87.6046634
v 90.2078145 110.3792915 87.6550816
v 91.7212763 110.2407805 87.5322922
v 92.0344448 110.6118504 87.5640318
v 91.7853254 110.7748533 87.8185578
v 91.9264069 111.2535358 87.8623784
v 91.0933765 112.3909962 87.9999995
v 89.5172133 111.8858264 87.8903412
v 89.7881048 110.3463899 88.0045182
v 89.8963260 110.6925105 88.2389041
v 90.4728156 110.2396500 88.3007447
v 91.2857787 110.2936136 88.3798654
v 91.9356367 112.1749184 88.3111836
v 91.4461004 112.5733598 88.3521600
v 90.8978590 112.4357417 88.6385713
v 90.1170804 112.1914053 88.7160751
v 89.4708427 111.7752614 88.5235349
v 89.7785816 111.7206852 88.7685039
v 89.7279742 111.0462654 88.8283034
v 89.7249686 110.4108092 88.6275658
v 90.5934696 110.2235304 88.9400452
v 91.5493542 110.1021413 88.7670030
v 91.8284771 110.8470345 89.0722437
v 91.4328395 112.2336948 89.2174807
v 90.9640083 112.4185898 89.2605951
v 90.5563976 112.7134265 89.0431919
v 89.8802502 111.9400094 89.3712679
v 89.4891119 111.8180467 89.1495491
v 89.6990059 111.2497069 89.4359449
v 89.9593341 110.5840377 89.5032896
v 90.3887419 112.6553143 87.6827646
v 89.9137880 112.3984307 87.7217534
v 89.5807012 111.9925175 87.7573338
v 92.0415898 110.6204208 88.0706047
v 90.3880857 112.3463934 88.0606519
v 90.0814294 110.0877479 88.5369530
v 91.9195270 112.1952478 88.8075353
v 90.2464768 112.6093128 88.9450307
v 89.6543283 112.1339072 88.9870538
v 89.4370620 111.5830264 89.0389005
v 89.6530171 110.5176089 89.1190176
v 89.9929775 110.1723492 89.1516532
v 91.8162635 110.3305670 89.2909943
v 92.1411339 110.8252043 89.3311935
v 89.5535989 111.9363325 89.6377355
v 89.4819188 110.8411436 89.7174961
v 91.4699313 110.4192201 89.6528063
v 91.9196393 111.3727987 89.7512023
v 91.7611251 111.9013674 89.8005001
v 90.5195309 112.3861329 89.9295327
v 89.7149777 111.1543130 90.0706932
v 91.9214261 111.2069881 90.3580413
v 91.5433450 112.1500959 90.4532989
v 90.4126282 112.3680254 90.5587312
v 90.5875027 110.2021764 90.8191969
v 90.4433888 112.3620014 91.1807818
v 91.8549951 110.8906507 91.5798794
v 91.8741226 111.6873454 91.6543260
v 91.5415493 112.1495130 91.7036483
v 90.9739401 110.2132608 89.6025694
v 91.3055145 109.9966183 89.8725544
v 91.8208541 110.8323244 89.6992592
v 91.7530529 112.3674323 90.0824350
v 91.1914387 112.3709626 89.8621025
v 91.2465602 112.6552468 90.1185819
v 90.0992075 112.1602901 89.9706902
v 89.7849786 111.7513880 90.0147842
v 89.4295001 111.5501174 90.2903984
v 89.9070390 110.6621426 90.1179450
v 90.3020469 110.3351904 90.1658889
v 90.8179939 110.1925452 90.2165180
v 91.6243266 110.5210171 90.2898898
v 91.8431869 110.3450986 90.5402678
v 91.8438391 111.7338793 90.4082347
v 91.5256121 112.5460530 90.7222121
v 91.0885780 112.3932995 90.4990135
v 90.6094499 112.7255556 90.7906622
v 89.9401673 111.9932289 90.6162233
v 89.7038816 111.4915987 90.6655156
v 89.8689225 110.7106754 90.7408567
v 91.3004927 110.3133780 90.8829812
v 91.8609033 110.8701142 90.9540448
v 91.8966162 111.5457945 91.0166149
v 91.6860599 112.0069156 91.0593701
v 91.1073825 112.3995729 91.1242687
v 89.9363501 112.0095191 91.2370177
v 89.5772457 111.9901532 91.5083996
v 89.3883055 111.2527584 91.5618111
v 89.8418828 110.7572612 91.3577560
v 89.6781490 110.4694972 91.6236680
v 90.2703946 110.3401045 91.4108331
v 90.8248035 110.2011366 91.4671662
v 91.3953325 110.3622902 91.5181314
v 90.6460656 112.4076171 91.7915819
v 90.2120290 112.2520558 91.8311541
v 90.6340812 110.2175485 92.0711710
v 89.6859347 111.4100813 92.5513635
v 90.2719463 110.3498555 92.6625332
v 91.4389341 112.2539108 92.9663420
v 91.3135018 110.3006352 93.3812141
v 90.2877801 112.2977131 93.6986173
v 89.8819131 110.7163259 93.8622926
v 91.1530719 112.3735066 91.7426493
v 89.7765922 111.7510154 91.8935104
v 89.7353129 111.0430599 91.9573474
v 89.6085841 110.5617474 92.2376537
v 90.0709476 110.4682606 92.0158316
v 91.1433908 110.2542026 92.1153693
v 91.1711956 109.9523347 92.3662661
v 91.6553571 110.1836160 92.4029483
v 91.6917588 110.6130640 92.1769661
v 92.0001531 110.5598875 92.4388167
v 92.1866940 111.0044907 92.4730603
v 91.9406868 111.4602634 92.2548047
v 92.1971908 111.6168652 92.5185584
v 91.5215770 112.1834044 92.3362827
v 90.7241625 112.4438074 92.4040002
v 90.8176653 112.7210263 92.6520604
v 90.3195235 112.6316804 92.6868101
v 90.0241743 112.1045424 92.4780307
v 89.9004377 110.6699432 92.6175680
v 90.7390092 109.8869941 92.9651796
v 90.7499939 110.1973726 92.7068342
v 91.2160481 110.2827154 92.7498520
v 91.6967337 110.6302276 92.8064606
v 91.9050700 111.1282947 92.8533645
v 91.8753166 111.6473819 92.8998646
v 90.7865349 112.4208994 93.0288422
v 90.1321965 112.2089213 93.0943113
v 89.7307002 111.5658643 93.1553303
v 89.7438178 110.9991187 93.2093425
v 90.0553063 110.4963683 93.2631534
v 90.5577796 110.2278272 93.3147340
v 91.9219007 111.4725229 93.5075386
v 92.2025066 111.0861626 93.7292886
v 92.1731824 111.7135170 93.7758112
v 91.6790761 112.0158760 93.5612156
v 91.2141237 112.3517339 93.6172200
v 89.6901540 111.2530894 93.8104554
v 89.5802644 110.9502676 95.2390814
v 89.5600981 111.0151037 95.2363073
v 90.7565960 110.0771926 95.3078873
v 91.5359475 110.4587072 95.2815342
v 91.4012890 110.2648655 95.3358704
v 91.7742774 110.6426352 95.3605231
v 91.9193298 111.0934338 95.3512505
v 91.9533942 111.1471555 95.3860071
v 91.8772709 111.6473678 95.4050805
v 91.8333384 111.7318886 95.4075303
v 91.8207771 111.7762231 95.4167773
v 91.7900149 111.8314064 95.4198596
v 91.7844607 111.8351650 95.4178561
v 91.7561765 111.8847958 95.4229419
v 90.0856153 110.1093552 94.1564260
v 90.7970379 110.2031066 93.9620507
v 91.2877203 110.3096093 94.0077067
v 91.8065137 110.7766424 94.0693905
v 92.0131816 110.5539347 94.3164564
v 92.1193511 111.8346848 94.4090616
v 91.7118436 111.9718417 94.1783865
v 91.8686610 112.2450761 94.4383603
v 90.6536698 112.4258611 94.2924670
v 90.0383924 112.1076312 94.3548771
v 89.7167414 111.1314355 94.4457376
v 90.0267655 110.5085637 94.5050433
v 90.3053587 109.9933630 94.7990254
v 90.6984611 110.2042980 94.5791486
v 91.4386243 110.3833111 94.6505617
v 92.1042213 110.7408277 94.9493434
v 92.2166720 111.2577537 94.9922304
v 91.2827209 112.3271841 94.8575901
v 91.2433880 112.5412720 95.0333364
v 90.7273276 112.7101937 95.1399270
v 89.9925773 112.0688868 94.9817081
v 89.7558380 110.9644893 95.0881438
v 89.5047540 111.3297547 95.2220114
v 89.6037633 110.8867983 95.2420096
v 90.0851461 110.4698049 95.1417146
v 90.1266689 110.2574699 95.2768135
v 90.7654028 110.1862986 95.2059584
v 91.8153198 110.9519317 95.5009561
v 92.2093537 111.4565550 95.1261888
v 90.1061074 110.5614600 95.5000652
v 89.7161666 110.6548199 95.2535773
v 89.8322512 110.9902284 95.4999046
v 89.8444949 111.7510304 95.5004716
v 89.5794355 111.8078282 95.2034320
v 89.9400737 112.3725944 95.1726722
v 90.3852138 112.2519544 95.5000545
v 90.9856840 112.3353536 95.5001944
v 91.1282861 112.5493018 95.2500237
v 91.4256667 112.1408813 95.5000136
v 91.7371362 111.8021080 95.5001756
v 91.3255066 110.4179749 95.5000254
v 90.7024816 110.2701847 95.5004699
v 89.5806802 110.6274783 93.6071916
v 90.2382079 110.3572567 93.9063148
v 91.9140426 111.4250894 94.1286288
v 91.2448394 112.3358517 94.2330621
v 89.7658472 111.6957008 94.3953686
v 89.4172407 111.5512054 94.1626938
v 90.6831544 109.9112448 94.3254884
v 91.8117742 110.8330227 94.6982644
v 91.9258011 111.3685176 94.7468935
v 91.7421316 111.9265503 94.8018017
v 90.5911845 112.4132502 94.9257415
v 89.9779717 112.4423242 94.7111273
v 89.7257895 111.5489554 95.0347925
v 89.5748974 112.0016890 91.6317858
v 92.0780933 110.6725367 91.9478632
v 91.9840980 112.1088412 92.0539806
v 91.5206911 112.5308966 92.0983269
v 90.2506179 112.6162620 92.1913187
v 89.4244203 111.0982511 92.3210863
v 90.0763809 110.1148155 92.4071091
v 91.1655514 109.9556740 92.4851527
v 90.5536166 112.7162556 92.7928542
v 91.8101171 110.8237312 93.4468756
v 91.4517389 112.5758115 93.3501615
v 90.7668392 112.4186708 93.6523974
v 90.6638636 112.7295982 93.4153551
v 89.8574361 111.8744560 93.7533373
v 89.4168687 111.1581410 93.5665740
v 91.9913377 112.1067451 89.5523437
v 89.5115945 111.8801017 89.7654704
v 89.6518426 110.5063906 89.8691793
v 90.0952596 110.1052320 89.9083946
v 89.5224611 111.8909810 90.3921980
v 89.4033024 111.1772037 90.4377520
v 91.0361554 109.9176899 90.6064869
v 91.5965632 110.1461808 90.6454584
v 91.9494690 110.4810310 90.6787896
v 89.7068522 111.4027350 91.2967666
v 89.7346808 110.4068071 91.1296942
v 90.6737140 109.9134473 91.2024240
f 4 2 1
f 4 1 3
f 528 4 3
f 529 3 5
f 529 528 3
f 6 529 5
f 6 5 7
f 8 6 7
f 11 8 7
f 11 7 9
f 11 9 10
f 13 11 10
f 13 10 12
f 13 12 15
f 14 13 15
f 17 13 14
f 17 14 556
f 16 15 12
f 520 15 16
f 17 556 557
f 19 17 557
f 20 16 18
f 20 520 16
f 533 19 557
f 533 557 558
f 522 20 18
f 533 558 21
f 25 533 21
f 522 18 22
f 524 522 22
f 25 21 23
f 524 22 24
f 525 524 24
f 534 25 26
f 525 24 27
f 29 525 27
f 31 534 26
f 28 31 26
f 2 27 1
f 2 29 27
f 30 31 28
f 32 31 30
f 23 26 25
f 34 32 30
f 34 30 33
f 35 34 33
f 559 35 33
f 38 35 559
f 36 38 559
f 37 38 36
f 39 38 37
f 538 39 37
f 40 538 37
f 539 538 40
f 41 539 40
f 43 539 41
f 42 43 41
f 45 43 42
f 44 45 42
f 46 45 44
f 542 46 44
f 47 542 44
f 49 542 47
f 48 49 47
f 545 49 48
f 561 545 48
f 50 545 561
f 52 50 561
f 51 52 561
f 547 52 51
f 53 547 51
f 54 547 53
f 56 547 54
f 56 54 55
f 58 56 55
f 58 55 57
f 59 58 57
f 562 59 57
f 61 59 562
f 60 61 562
f 551 61 60
f 62 551 60
f 563 551 62
f 63 551 563
f 564 63 563
f 553 63 564
f 565 553 564
f 65 553 565
f 64 65 565
f 66 65 64
f 566 66 64
f 567 66 566
f 68 66 567
f 67 68 567
f 70 68 67
f 69 70 67
f 71 70 69
f 72 71 69
f 72 69 568
f 73 72 568
f 73 568 569
f 75 73 569
f 75 569 74
f 749 75 74
f 76 749 74
f 78 749 76
f 77 78 76
f 80 78 77
f 79 80 77
f 81 80 79
f 82 81 79
f 83 81 82
f 750 83 82
f 570 750 82
f 84 750 570
f 85 750 84
f 571 85 84
f 751 85 571
f 751 571 86
f 752 751 86
f 88 752 86
f 87 88 86
f 90 88 87
f 90 87 586
f 90 586 89
f 91 90 89
f 91 89 92
f 94 91 92
f 93 94 92
f 95 94 93
f 588 95 93
f 96 95 588
f 98 96 588
f 590 98 588
f 97 98 590
f 100 98 97
f 99 100 97
f 102 100 99
f 101 102 99
f 753 102 101
f 593 753 101
f 754 753 593
f 103 754 593
f 105 754 103
f 104 105 103
f 107 105 104
f 106 107 104
f 108 107 106
f 109 108 106
f 755 108 109
f 756 755 109
f 756 109 598
f 757 756 598
f 110 757 598
f 111 757 110
f 114 111 110
f 112 114 110
f 113 114 112
f 115 114 113
f 600 115 113
f 116 115 600
f 602 116 600
f 117 116 602
f 119 117 602
f 118 119 602
f 122 119 118
f 120 122 118
f 122 120 121
f 124 122 121
f 124 121 123
f 759 124 123
f 759 123 125
f 126 759 125
f 127 126 125
f 760 126 127
f 130 127 128
f 130 760 127
f 129 130 128
f 132 130 129
f 131 132 129
f 134 132 131
f 133 134 131
f 136 134 133
f 135 136 133
f 137 136 135
f 138 137 135
f 139 137 138
f 139 138 140
f 141 139 140
f 143 141 140
f 142 143 140
f 734 143 142
f 612 734 142
f 613 734 612
f 144 734 613
f 615 144 613
f 146 144 615
f 145 146 615
f 147 146 145
f 149 147 145
f 148 149 145
f 152 149 148
f 150 152 148
f 151 152 150
f 735 152 151
f 153 735 151
f 154 735 153
f 154 153 155
f 736 154 155
f 156 736 155
f 737 736 156
f 157 737 156
f 159 737 157
f 158 159 157
f 738 159 158
f 160 738 158
f 162 738 160
f 162 160 161
f 164 161 163
f 164 162 161
f 739 164 163
f 631 739 163
f 165 739 631
f 740 165 631
f 166 740 631
f 168 740 166
f 167 168 166
f 634 168 167
f 741 168 634
f 169 741 634
f 635 169 634
f 637 169 635
f 170 169 637
f 638 170 637
f 171 170 638
f 640 171 638
f 173 171 640
f 173 640 172
f 175 173 172
f 175 172 174
f 175 174 643
f 742 175 643
f 742 643 644
f 177 644 176
f 177 742 644
f 179 177 176
f 179 176 178
f 181 178 180
f 181 179 178
f 183 181 180
f 182 183 180
f 184 183 182
f 647 184 182
f 185 184 647
f 187 185 647
f 186 187 647
f 189 187 186
f 188 189 186
f 190 189 188
f 191 190 188
f 193 190 191
f 192 193 191
f 195 193 192
f 194 195 192
f 744 195 194
f 196 744 194
f 746 744 196
f 746 196 197
f 746 197 198
f 200 746 198
f 200 198 199
f 201 200 199
f 201 199 202
f 748 201 202
f 748 202 203
f 721 748 203
f 204 721 203
f 206 721 204
f 206 204 205
f 208 206 205
f 207 208 205
f 209 208 207
f 210 209 207
f 211 209 210
f 212 211 210
f 660 212 210
f 213 212 660
f 661 213 660
f 214 213 661
f 215 214 661
f 216 214 215
f 219 216 215
f 217 219 215
f 218 219 217
f 221 219 218
f 220 221 218
f 222 221 220
f 726 222 220
f 223 726 220
f 225 726 223
f 224 225 223
f 226 225 224
f 228 226 224
f 679 228 224
f 227 228 679
f 727 228 227
f 230 727 227
f 229 230 227
f 683 230 229
f 231 230 683
f 233 231 683
f 233 683 232
f 234 233 232
f 234 232 684
f 236 234 684
f 236 684 686
f 236 686 235
f 238 236 235
f 238 235 237
f 239 238 237
f 239 237 240
f 732 239 240
f 243 732 240
f 243 240 241
f 243 241 242
f 245 243 242
f 245 242 244
f 247 245 244
f 247 244 246
f 248 247 246
f 248 246 691
f 250 248 691
f 249 250 691
f 18 16 251
f 251 16 253
f 252 18 251
f 253 16 255
f 254 18 252
f 16 12 255
f 254 22 18
f 255 12 257
f 12 10 257
f 256 22 254
f 256 24 22
f 257 10 258
f 10 9 258
f 9 260 258
f 24 259 27
f 256 259 24
f 7 260 9
f 7 262 260
f 27 261 1
f 259 261 27
f 5 262 7
f 5 264 262
f 261 263 1
f 5 265 264
f 1 263 3
f 263 266 3
f 5 266 265
f 3 266 5
f 268 267 254
f 268 254 252
f 269 268 252
f 270 269 252
f 270 252 251
f 271 270 251
f 272 271 251
f 273 272 251
f 274 273 251
f 253 274 251
f 276 275 253
f 276 253 255
f 277 276 255
f 277 255 257
f 278 277 257
f 279 278 257
f 279 257 258
f 280 279 258
f 280 258 260
f 281 280 260
f 281 260 262
f 282 281 262
f 282 262 264
f 283 282 264
f 283 264 265
f 284 283 265
f 284 265 266
f 285 284 266
f 286 285 266
f 286 266 263
f 287 286 263
f 287 263 261
f 288 287 261
f 289 261 259
f 289 288 261
f 290 289 259
f 290 259 256
f 291 290 256
f 291 256 254
f 267 291 254
f 267 294 353
f 268 294 267
f 292 364 293
f 353 294 293
f 277 296 276
f 296 298 295
f 296 278 297
f 277 278 296
f 297 278 300
f 296 297 298
f 298 301 299
f 279 300 278
f 298 297 303
f 301 298 302
f 300 303 297
f 301 302 308
f 279 304 300
f 302 298 305
f 303 305 298
f 280 304 279
f 304 303 300
f 304 307 303
f 302 305 308
f 280 310 304
f 306 305 312
f 307 305 303
f 281 310 280
f 307 312 305
f 310 307 304
f 308 305 309
f 306 311 305
f 305 311 309
f 306 311 311
f 311 311 309
f 306 313 311
f 311 313 309
f 310 314 307
f 312 313 306
f 282 310 281
f 282 316 310
f 314 312 307
f 312 315 313
f 314 317 312
f 316 314 310
f 316 318 314
f 317 315 312
f 283 316 282
f 283 321 316
f 318 317 314
f 318 319 317
f 315 317 323
f 316 320 318
f 321 320 316
f 284 321 283
f 319 323 317
f 284 324 321
f 319 320 325
f 318 320 319
f 285 324 284
f 324 322 321
f 321 322 320
f 325 323 319
f 286 324 285
f 286 327 324
f 322 329 320
f 320 329 325
f 323 325 328
f 324 326 322
f 322 326 329
f 327 326 324
f 329 328 325
f 287 327 286
f 287 333 327
f 327 331 326
f 326 331 332
f 326 332 329
f 329 332 330
f 288 333 287
f 333 331 327
f 328 334 335
f 330 334 329
f 329 334 328
f 330 334 334
f 334 334 335
f 288 336 333
f 332 337 330
f 334 337 335
f 330 337 334
f 333 338 331
f 331 339 332
f 289 336 288
f 336 338 333
f 339 337 332
f 289 341 336
f 338 339 331
f 339 340 337
f 341 338 336
f 341 342 338
f 290 341 289
f 290 343 341
f 338 344 339
f 342 344 338
f 339 344 340
f 343 342 341
f 290 347 343
f 291 347 290
f 343 345 342
f 340 344 352
f 342 346 344
f 347 345 343
f 345 346 342
f 345 351 346
f 346 351 348
f 346 352 344
f 291 353 347
f 349 351 354
f 267 353 291
f 347 350 345
f 351 345 354
f 354 345 355
f 355 345 364
f 348 357 346
f 346 357 352
f 352 357 356
f 357 357 356
f 348 357 357
f 351 358 348
f 357 358 356
f 356 358 359
f 348 358 357
f 353 350 347
f 351 360 358
f 358 360 359
f 349 360 351
f 349 360 360
f 360 360 359
f 349 354 360
f 360 354 359
f 359 354 361
f 353 293 350
f 350 364 345
f 361 354 362
f 354 363 362
f 355 363 354
f 363 363 362
f 355 363 363
f 363 364 362
f 355 364 363
f 362 364 365
f 293 364 350
f 420 364 292
f 365 364 420
f 294 367 366
f 268 367 294
f 269 367 268
f 269 368 367
f 367 368 369
f 368 368 369
f 269 368 368
f 368 370 369
f 269 370 368
f 270 370 269
f 371 370 377
f 270 377 370
f 294 373 293
f 293 373 292
f 373 375 374
f 366 375 294
f 294 375 373
f 375 375 374
f 367 375 366
f 366 375 375
f 376 377 378
f 375 379 374
f 374 379 373
f 367 379 375
f 271 377 270
f 373 379 380
f 369 379 367
f 378 377 381
f 370 379 369
f 377 382 381
f 271 382 377
f 381 382 383
f 382 382 381
f 271 382 382
f 272 383 271
f 271 383 382
f 371 385 370
f 370 385 379
f 379 385 384
f 371 385 385
f 385 385 384
f 383 386 387
f 272 386 383
f 371 388 385
f 385 388 384
f 377 388 371
f 386 386 387
f 272 386 386
f 386 273 387
f 272 273 386
f 384 388 389
f 389 388 390
f 372 392 377
f 388 392 391
f 377 392 388
f 392 392 391
f 372 392 392
f 273 393 394
f 274 393 273
f 377 396 372
f 372 396 392
f 392 396 391
f 274 393 393
f 393 393 394
f 274 395 393
f 393 395 394
f 253 395 274
f 396 398 397
f 377 398 396
f 376 398 377
f 376 398 398
f 398 398 397
f 378 406 376
f 376 406 398
f 397 406 399
f 398 406 397
f 275 395 253
f 399 406 400
f 292 373 401
f 380 402 373
f 373 402 401
f 381 406 378
f 379 402 380
f 380 402 402
f 401 402 403
f 402 402 401
f 275 404 395
f 395 404 405
f 383 406 381
f 402 379 403
f 275 404 404
f 404 404 405
f 275 413 404
f 404 413 405
f 403 379 407
f 276 413 275
f 379 409 407
f 407 409 410
f 384 409 379
f 384 409 409
f 409 409 410
f 406 411 408
f 387 411 383
f 383 411 406
f 384 389 409
f 410 389 414
f 409 389 410
f 411 411 408
f 387 411 411
f 408 418 412
f 387 418 411
f 273 418 387
f 411 418 408
f 412 418 415
f 414 389 416
f 390 417 389
f 389 417 416
f 390 417 417
f 417 417 416
f 416 417 419
f 388 417 390
f 415 418 425
f 388 419 417
f 391 419 388
f 394 418 273
f 396 419 391
f 395 418 394
f 296 413 276
f 295 413 296
f 396 421 419
f 419 421 422
f 397 421 396
f 421 421 422
f 397 421 421
f 397 399 421
f 421 399 422
f 422 399 424
f 420 292 423
f 425 418 426
f 424 399 427
f 292 428 423
f 401 428 292
f 403 428 401
f 400 429 399
f 399 429 427
f 418 430 426
f 395 430 418
f 405 430 395
f 427 429 440
f 400 429 429
f 429 429 427
f 428 428 423
f 423 428 431
f 407 428 403
f 403 428 428
f 405 430 430
f 430 430 426
f 405 413 430
f 430 413 426
f 406 440 400
f 400 440 429
f 426 413 432
f 428 433 431
f 407 433 428
f 410 433 407
f 433 434 431
f 410 434 433
f 432 413 435
f 408 440 406
f 414 434 410
f 434 434 431
f 410 434 434
f 436 440 438
f 431 414 437
f 434 414 431
f 412 440 408
f 435 413 439
f 416 441 414
f 414 441 437
f 416 441 441
f 441 441 437
f 439 413 442
f 415 443 412
f 412 443 440
f 440 443 438
f 438 443 444
f 416 419 441
f 441 419 437
f 415 443 443
f 443 443 444
f 415 425 443
f 443 425 444
f 444 425 445
f 437 419 446
f 442 413 301
f 301 413 299
f 445 425 447
f 295 448 413
f 413 448 299
f 446 419 449
f 448 448 299
f 298 448 295
f 299 448 298
f 295 448 448
f 422 450 419
f 419 450 449
f 450 450 449
f 422 450 450
f 450 450 449
f 424 450 422
f 422 450 450
f 451 425 453
f 450 455 449
f 449 455 452
f 424 455 450
f 427 455 424
f 453 425 454
f 440 455 427
f 425 456 454
f 426 456 425
f 426 456 456
f 456 456 454
f 432 456 426
f 454 456 459
f 432 458 456
f 456 458 459
f 452 455 457
f 436 455 440
f 436 460 455
f 455 460 457
f 432 461 458
f 459 461 462
f 458 461 459
f 435 461 432
f 436 460 460
f 460 460 457
f 438 460 436
f 461 461 462
f 435 461 461
f 461 439 462
f 435 439 461
f 457 463 464
f 438 463 460
f 460 463 457
f 444 463 438
f 463 465 464
f 444 465 463
f 444 465 465
f 465 465 464
f 445 465 444
f 439 467 466
f 442 467 439
f 467 467 466
f 466 467 301
f 442 467 467
f 442 301 467
f 445 468 465
f 465 468 464
f 464 468 469
f 447 468 445
f 468 470 469
f 447 470 468
f 470 470 469
f 425 470 447
f 447 470 470
f 469 425 471
f 470 425 469
f 451 472 425
f 425 472 471
f 472 472 471
f 451 472 472
f 472 453 471
f 451 453 472
f 471 453 473
f 453 474 473
f 454 474 453
f 454 474 474
f 459 474 454
f 474 474 473
f 473 459 475
f 474 459 473
f 462 476 459
f 459 476 475
f 462 476 476
f 476 476 475
f 462 477 476
f 439 477 462
f 476 477 475
f 475 477 478
f 477 479 478
f 439 479 477
f 466 479 439
f 479 479 478
f 466 479 479
f 479 301 478
f 466 301 479
f 478 301 308
f 323 480 315
f 315 480 313
f 480 481 313
f 313 481 309
f 309 481 308
f 481 478 308
f 481 475 478
f 323 482 480
f 328 482 323
f 475 483 473
f 473 483 471
f 471 483 469
f 469 483 464
f 464 483 457
f 457 483 452
f 452 483 449
f 449 483 446
f 446 483 437
f 481 483 475
f 328 335 482
f 483 431 437
f 335 337 482
f 483 423 431
f 483 420 423
f 337 484 482
f 337 340 484
f 483 485 420
f 485 365 420
f 340 352 484
f 484 352 485
f 485 362 365
f 485 361 362
f 485 359 361
f 352 356 485
f 485 356 359
f 483 481 486
f 486 481 487
f 485 483 488
f 488 483 486
f 484 485 489
f 489 485 488
f 482 484 490
f 490 484 489
f 480 482 491
f 491 482 490
f 481 480 487
f 487 480 491
f 489 487 491
f 489 491 490
f 488 486 487
f 488 487 489
f 493 250 249
f 492 493 249
f 494 493 492
f 494 492 694
f 495 494 694
f 495 694 695
f 707 495 695
f 707 695 496
f 498 707 496
f 497 498 496
f 499 498 497
f 501 499 500
f 501 500 501
f 502 501 501
f 502 501 502
f 503 502 502
f 503 502 503
f 504 503 503
f 4 506 2
f 528 530 507
f 38 511 35
f 58 548 56
f 61 516 59
f 551 550 61
f 553 552 63
f 66 555 65
f 520 519 15
f 15 519 505
f 521 520 20
f 519 520 521
f 523 521 20
f 20 522 523
f 523 524 526
f 522 524 523
f 526 524 525
f 526 525 527
f 527 525 29
f 506 527 29
f 29 2 506
f 4 507 506
f 4 528 507
f 528 529 530
f 529 6 530
f 530 6 531
f 531 8 508
f 6 8 531
f 8 11 508
f 508 13 532
f 11 13 508
f 560 13 17
f 532 13 560
f 17 19 560
f 560 19 509
f 19 533 509
f 533 510 509
f 25 510 533
f 534 535 25
f 25 535 510
f 535 534 536
f 536 534 31
f 536 32 537
f 31 32 536
f 32 34 537
f 34 35 537
f 537 35 511
f 511 38 512
f 38 39 512
f 39 538 512
f 512 538 513
f 513 538 539
f 540 539 43
f 513 539 540
f 43 45 540
f 540 45 541
f 45 46 541
f 46 542 541
f 541 542 543
f 543 542 544
f 544 542 49
f 544 545 514
f 49 545 544
f 514 545 50
f 52 546 50
f 50 546 514
f 546 52 515
f 52 547 515
f 548 547 56
f 515 547 548
f 548 58 516
f 58 59 516
f 516 61 549
f 549 61 550
f 517 550 551
f 517 551 63
f 63 552 517
f 554 553 65
f 552 553 554
f 555 554 65
f 66 68 555
f 555 68 518
f 505 14 15
f 527 28 26
f 506 30 28
f 507 33 30
f 530 33 507
f 508 41 40
f 535 561 48
f 536 51 561
f 512 57 55
f 540 563 62
f 552 84 570
f 519 556 505
f 505 556 14
f 521 557 519
f 519 557 556
f 521 558 557
f 523 558 521
f 558 523 21
f 526 21 523
f 23 21 526
f 26 23 526
f 526 527 26
f 28 527 506
f 507 30 506
f 530 559 33
f 530 531 559
f 559 531 36
f 531 37 36
f 508 37 531
f 40 37 508
f 508 532 41
f 532 42 41
f 560 42 532
f 42 560 44
f 44 560 509
f 47 44 509
f 509 510 47
f 48 47 510
f 535 48 510
f 536 561 535
f 51 536 537
f 537 53 51
f 54 537 511
f 53 537 54
f 55 54 511
f 512 55 511
f 512 562 57
f 513 562 512
f 60 562 513
f 540 60 513
f 540 62 60
f 541 563 540
f 541 564 563
f 541 543 564
f 543 565 564
f 64 565 544
f 544 565 543
f 514 566 544
f 544 566 64
f 514 567 566
f 514 67 567
f 546 67 514
f 69 546 515
f 67 546 69
f 548 568 515
f 515 568 69
f 548 569 568
f 516 569 548
f 74 569 516
f 74 516 76
f 516 549 76
f 76 549 77
f 549 550 77
f 517 79 550
f 550 79 77
f 79 517 82
f 552 82 517
f 552 570 82
f 552 554 84
f 555 571 554
f 554 571 84
f 571 555 86
f 86 555 518
f 518 87 86
f 572 586 585
f 587 92 89
f 574 93 573
f 574 588 93
f 576 593 592
f 577 112 110
f 578 113 599
f 579 118 602
f 611 612 142
f 758 612 611
f 585 87 518
f 585 586 87
f 586 572 89
f 572 587 89
f 92 587 573
f 92 573 93
f 589 588 574
f 589 590 588
f 97 589 575
f 590 589 97
f 97 575 99
f 575 591 99
f 99 591 101
f 591 592 101
f 592 593 101
f 576 103 593
f 576 594 103
f 103 594 104
f 595 104 594
f 106 104 595
f 106 595 596
f 106 596 109
f 597 109 596
f 597 598 109
f 110 598 597
f 597 577 110
f 113 577 599
f 113 112 577
f 578 600 113
f 601 600 578
f 602 601 579
f 601 602 600
f 118 579 603
f 120 603 604
f 118 603 120
f 121 120 604
f 123 121 605
f 605 121 604
f 123 605 125
f 580 125 605
f 125 580 127
f 128 127 580
f 580 606 128
f 607 129 606
f 606 129 128
f 607 131 129
f 133 131 607
f 607 608 133
f 608 609 133
f 133 609 135
f 138 609 610
f 135 609 138
f 140 138 610
f 140 610 581
f 581 142 140
f 581 611 142
f 758 613 612
f 614 613 758
f 614 615 613
f 614 616 615
f 615 616 145
f 617 145 616
f 145 617 148
f 618 148 617
f 150 148 618
f 151 618 582
f 150 618 151
f 153 582 583
f 151 582 153
f 153 583 155
f 156 583 584
f 155 583 156
f 633 167 621
f 633 634 167
f 622 180 178
f 646 182 180
f 743 210 625
f 747 223 220
f 627 224 664
f 584 628 156
f 156 628 157
f 158 628 619
f 157 628 158
f 160 619 620
f 158 619 160
f 620 629 160
f 160 629 161
f 161 629 163
f 630 163 629
f 632 631 630
f 630 631 163
f 166 631 632
f 167 632 621
f 166 632 167
f 636 635 633
f 633 635 634
f 636 637 635
f 636 638 637
f 639 638 636
f 639 640 638
f 172 639 641
f 640 639 172
f 642 174 641
f 641 174 172
f 642 643 174
f 642 644 643
f 642 645 644
f 644 645 176
f 622 176 645
f 178 176 622
f 622 646 180
f 623 182 646
f 647 623 648
f 182 623 647
f 648 649 647
f 647 649 186
f 650 186 649
f 186 650 188
f 650 651 188
f 188 651 191
f 192 191 652
f 652 191 651
f 194 652 624
f 192 652 194
f 194 624 196
f 624 653 196
f 196 653 197
f 198 197 654
f 654 197 653
f 654 199 198
f 655 199 654
f 655 202 199
f 655 656 202
f 202 656 203
f 204 656 657
f 203 656 204
f 657 658 204
f 204 658 205
f 625 205 658
f 207 205 625
f 210 207 625
f 743 660 210
f 659 660 743
f 659 661 660
f 659 662 661
f 661 662 215
f 663 215 662
f 215 663 217
f 745 217 663
f 218 217 745
f 745 626 218
f 747 220 626
f 626 220 218
f 747 664 223
f 224 223 664
f 700 665 666
f 705 669 667
f 668 669 705
f 668 670 669
f 671 670 668
f 671 672 670
f 671 673 672
f 674 675 673
f 674 675 675
f 675 676 675
f 675 677 676
f 677 678 676
f 722 224 627
f 722 679 224
f 722 680 679
f 679 680 227
f 227 681 229
f 680 681 227
f 682 229 681
f 682 683 229
f 682 232 683
f 723 232 682
f 685 684 723
f 723 684 232
f 685 686 684
f 724 686 685
f 724 235 686
f 724 687 235
f 235 687 237
f 688 240 687
f 687 240 237
f 240 688 241
f 725 241 688
f 725 242 241
f 725 689 242
f 242 689 244
f 689 690 244
f 244 690 246
f 690 691 246
f 690 692 691
f 691 692 249
f 693 249 692
f 249 693 492
f 728 694 693
f 693 694 492
f 729 695 728
f 728 695 694
f 730 496 729
f 729 496 695
f 496 730 497
f 497 696 499
f 730 696 497
f 499 697 500
f 500 697 501
f 501 697 502
f 502 697 503
f 503 697 504
f 504 697 504
f 504 697 698
f 696 697 499
f 696 698 697
f 731 698 696
f 731 713 698
f 731 699 713
f 712 713 699
f 699 733 712
f 712 733 701
f 733 700 701
f 701 700 666
f 702 700 709
f 665 700 702
f 704 709 703
f 703 709 700
f 667 704 705
f 705 704 703
f 676 678 718
f 675 676 718
f 673 675 718
f 673 718 706
f 672 673 706
f 670 672 706
f 704 667 720
f 704 720 708
f 708 709 704
f 709 708 710
f 710 702 709
f 665 702 710
f 665 665 702
f 665 666 665
f 701 710 711
f 710 666 665
f 710 701 666
f 712 701 711
f 713 712 711
f 713 711 714
f 714 698 713
f 698 714 715
f 716 504 698
f 716 698 715
f 716 503 504
f 716 504 504
f 499 715 717
f 715 503 716
f 715 501 502
f 715 502 503
f 499 501 715
f 718 499 717
f 499 718 678
f 498 499 678
f 669 706 719
f 669 670 706
f 669 719 720
f 667 669 720
f 498 675 674
f 498 677 675
f 498 678 677
f 627 721 722
f 206 722 721
f 206 208 722
f 722 208 680
f 680 209 681
f 208 209 680
f 681 209 682
f 209 211 682
f 211 212 682
f 682 212 723
f 213 723 212
f 214 723 213
f 723 214 685
f 216 685 214
f 685 216 724
f 219 724 216
f 724 219 687
f 219 221 687
f 687 221 688
f 221 222 688
f 726 725 222
f 222 725 688
f 725 726 689
f 225 689 726
f 225 226 689
f 689 226 690
f 228 690 226
f 690 228 692
f 228 727 692
f 692 230 693
f 727 230 692
f 230 231 693
f 231 728 693
f 231 233 728
f 728 233 729
f 234 729 233
f 236 730 234
f 234 730 729
f 730 236 696
f 236 238 696
f 238 731 696
f 238 239 731
f 731 732 699
f 239 732 731
f 243 699 732
f 243 733 699
f 245 733 243
f 733 245 700
f 245 247 700
f 700 248 703
f 247 248 700
f 248 250 703
f 703 250 705
f 493 705 250
f 705 493 668
f 494 668 493
f 495 671 494
f 494 671 668
f 707 671 495
f 498 671 707
f 673 671 498
f 673 498 674
f 149 633 621
f 741 648 168
f 171 651 170
f 175 624 173
f 189 743 625
f 721 627 664
f 137 139 584
f 584 139 628
f 139 141 628
f 628 141 619
f 141 143 619
f 619 143 620
f 143 734 620
f 620 734 629
f 629 734 144
f 144 630 629
f 146 630 144
f 632 630 146
f 146 147 632
f 632 147 621
f 147 149 621
f 152 633 149
f 633 152 636
f 152 735 636
f 639 735 154
f 636 735 639
f 639 736 641
f 154 736 639
f 641 736 737
f 642 641 159
f 159 641 737
f 159 738 642
f 642 738 645
f 645 738 162
f 622 645 162
f 162 164 622
f 164 739 622
f 739 165 622
f 622 165 646
f 740 646 165
f 623 646 740
f 648 740 168
f 623 740 648
f 649 741 169
f 648 741 649
f 649 169 650
f 169 170 650
f 650 170 651
f 651 171 652
f 652 173 624
f 171 173 652
f 624 742 653
f 175 742 624
f 653 742 654
f 742 177 654
f 654 179 655
f 177 179 654
f 181 655 179
f 181 656 655
f 657 181 183
f 656 181 657
f 183 184 657
f 657 184 658
f 658 185 625
f 184 185 658
f 185 187 625
f 189 625 187
f 190 743 189
f 659 190 193
f 743 190 659
f 659 195 662
f 193 195 659
f 744 662 195
f 663 662 744
f 663 744 746
f 746 745 663
f 626 746 200
f 745 746 626
f 626 200 747
f 201 747 200
f 747 201 664
f 664 201 748
f 664 748 721
f 70 518 68
f 71 572 585
f 75 574 573
f 81 575 80
f 85 576 592
f 91 597 90
f 95 599 94
f 95 578 599
f 122 758 611
f 518 70 585
f 70 71 585
f 71 72 572
f 72 73 572
f 572 73 587
f 587 75 573
f 73 75 587
f 75 749 574
f 574 749 589
f 589 749 78
f 78 80 589
f 589 80 575
f 81 83 575
f 575 83 591
f 591 750 592
f 83 750 591
f 592 750 85
f 85 751 576
f 576 751 594
f 594 751 595
f 595 751 752
f 595 752 596
f 596 752 88
f 596 90 597
f 88 90 596
f 597 94 577
f 91 94 597
f 577 94 599
f 95 96 578
f 96 98 578
f 578 98 601
f 601 98 579
f 98 100 579
f 100 102 579
f 579 102 603
f 102 753 603
f 603 753 604
f 604 753 754
f 604 754 605
f 754 105 605
f 105 107 605
f 605 107 580
f 107 108 580
f 108 755 580
f 580 755 606
f 606 755 756
f 607 756 757
f 606 756 607
f 607 757 111
f 607 111 114
f 607 114 608
f 608 115 609
f 114 115 608
f 609 115 610
f 115 116 610
f 610 117 581
f 116 117 610
f 119 581 117
f 581 119 611
f 122 611 119
f 122 124 758
f 758 124 614
f 124 759 614
f 614 759 616
f 616 759 126
f 760 616 126
f 617 616 760
f 617 760 130
f 617 130 618
f 618 132 582
f 130 132 618
f 132 134 582
f 582 134 583
f 134 136 583
f 137 583 136
f 584 583 137
f 710 720 719
f 710 719 706
f 710 708 720
f 711 706 718
f 711 710 706
f 711 717 715
f 711 715 714
f 711 718 717
