# Render LOD; unchanged CAD body-local coordinates in mm
v 178.1940613 277.5827401 137.0000163
v 178.1826583 277.5979198 136.0540953
v 178.4112173 277.0414454 137.0000164
v 178.4049909 276.9734941 136.0045194
v 178.4018376 276.7137522 135.9853851
v 178.3526021 276.4949640 137.0000166
v 178.2595759 276.2734515 135.9514295
v 178.1200524 276.0706218 137.0000163
v 178.0340785 275.9896650 135.9277296
v 177.7572014 275.7854360 137.0000163
v 177.3479523 275.6490432 137.0000166
v 177.4193389 275.6592865 135.8761554
v 176.8559989 275.6780524 137.0000162
v 176.4589841 275.8687729 137.0000166
v 176.1583097 276.1681550 137.0000165
v 176.2966974 276.0059447 135.9013639
v 176.4478453 275.8733854 135.8070566
v 176.3034603 276.0052195 136.3403729
v 176.1194886 276.2328854 136.3188772
v 175.9398853 276.7069682 137.0000160
v 176.0928035 276.2850047 135.8738046
v 176.0951399 276.2656472 135.7696452
v 175.9672974 276.6251491 135.7391410
v 175.9659990 276.6134115 136.2927527
v 176.0054912 277.2857446 137.0000170
v 175.9432836 277.0255667 135.7107119
v 176.1819653 277.6080017 137.0000163
v 176.0460600 277.3739088 135.6870437
v 176.1249741 277.5261152 136.2244398
v 176.4379649 277.8726018 137.0000168
v 176.4161586 277.8493937 135.6433667
v 176.3368352 277.7916633 136.1998470
v 176.5822729 277.9619138 135.7375257
v 176.7644808 278.0396938 137.0000163
v 177.1251762 278.1148170 137.0000165
v 176.7260986 278.0332665 135.6162543
v 177.0487282 278.1130442 135.7029188
v 177.0472524 278.1108892 136.1464230
v 177.6121022 278.0371251 137.0000160
v 177.4038299 278.0888867 135.5690928
v 177.3892361 278.0928489 136.1199585
v 177.7040423 277.9945726 135.5452662
v 177.9377198 277.8463220 137.0000164
v 177.9389908 277.8452872 136.0766017
v 178.0528076 277.7502835 135.5176633
v 178.1931800 277.5737878 135.6070672
v 178.3597410 277.2399861 135.5831273
v 178.4083305 276.7350692 135.5469566
v 178.4097379 276.8960912 135.4495203
v 178.3574225 276.4901128 135.4210080
v 178.0378908 275.9805174 135.3760736
v 176.6363324 275.7556600 135.3794074
v 177.0286884 275.6486042 135.3015255
v 176.2427149 276.0639790 135.3450525
v 176.4545087 275.8715930 135.2578285
v 176.1253661 276.2103722 135.2243198
v 175.9498459 276.7037590 135.1875471
v 176.0012559 277.2863061 135.2525199
v 175.9370868 276.9916778 135.1630877
v 176.3273936 277.7861130 135.2093714
v 176.0815220 277.4533175 135.1315829
v 176.4880968 277.9047715 135.0856453
v 177.1476885 278.1135255 135.1436522
v 177.6414757 278.0268585 135.1088343
v 177.4836203 278.0724512 135.0140845
v 178.0684672 277.7377725 135.0740924
v 177.8391989 277.9220621 134.9876451
v 178.1196287 277.6736109 134.9596284
v 178.3658856 277.1989095 135.0280424
v 178.3833524 277.1329825 134.9170210
v 178.4083308 276.8035338 134.8912687
v 178.3691497 276.5525874 134.9835473
v 178.3110656 276.3702732 134.8635366
v 178.1444952 276.1088178 134.8401988
v 176.8883538 275.6663443 134.8484432
v 177.2904297 275.6448889 134.7666537
v 176.3575336 275.9394918 134.8066042
v 176.7013087 275.7339634 134.7248327
v 176.3874325 275.9264721 134.7009053
v 176.0601850 276.3411898 134.7706455
v 176.1561622 276.1637785 134.6750739
v 175.9333135 276.8187319 134.7308053
v 176.1643327 277.6004923 134.6761776
v 175.9850054 277.2114504 134.6000706
v 176.2121707 277.6631158 134.5622720
v 176.9013425 278.0844119 134.6107526
v 176.6804292 278.0170576 134.5232545
v 177.2804910 278.1151495 134.4765285
v 177.6418046 278.0203663 134.4518108
v 178.1629915 277.6206229 134.5131669
v 178.3463460 277.2747920 134.4852312
v 178.3389452 277.3065850 134.3804362
v 178.4121319 276.8837251 134.4572400
v 178.4118691 276.8574112 134.3458109
v 178.3312196 276.4230277 134.4239548
v 178.0034619 275.9490506 134.3801248
v 178.3081646 276.3621724 134.3143735
v 178.0930639 276.0535231 134.2844706
v 177.5808673 275.7078417 134.3486161
v 177.8505162 275.8400904 134.2591655
v 176.9854488 275.6542148 134.3065950
v 177.2665892 275.6429037 134.2183225
v 176.5252027 275.8163209 134.2707344
v 176.7995924 275.6911662 134.1861753
v 176.5124869 275.8338194 134.1618760
v 175.9405213 277.0243400 134.1710452
v 175.9416255 276.7198288 134.0824869
v 176.1051529 277.4965319 134.1366946
v 176.2069940 277.6562804 134.0163800
v 176.4301082 277.8633510 133.9939023
v 176.9174948 278.0880961 134.0632479
v 176.7869996 278.0508027 133.9626867
v 177.0741949 278.1067064 133.9410959
v 177.3896388 278.0926108 133.9213559
v 177.7990255 277.9493380 133.8901660
v 178.2153229 277.5514838 133.9557343
v 178.1872424 277.5918705 133.8545697
v 178.3807380 277.1467118 133.9261155
v 178.4094112 276.7929896 133.9006400
v 178.4067919 276.9654231 133.8055535
v 178.3104398 276.3851992 133.8688739
v 178.3948909 276.6430936 133.7847999
v 178.0460322 275.9884819 133.8377061
v 178.2185253 276.2117986 133.7473422
v 177.8744829 275.8479571 133.7112422
v 177.2383934 275.6427567 133.7721255
v 177.4283268 275.6659018 133.6798291
v 176.9007208 275.6704082 133.7499276
v 177.0332959 275.6475706 133.6497563
v 176.4525718 275.8647042 133.7119700
v 176.5357302 275.8102300 133.6161892
v 176.1127346 276.2433586 133.6789697
v 176.1855881 276.1345419 133.5786270
v 175.9749836 276.5890456 133.6513845
v 175.9384533 276.8797285 133.6317158
v 175.9621291 276.6034606 133.5420742
v 176.0330991 277.3680350 133.5967202
v 175.9580396 277.0954600 133.5064592
v 176.3249933 277.7746389 133.5606502
v 176.4927770 277.9078414 133.4349176
v 177.2792904 278.1096616 133.4856253
v 177.0532706 278.1071129 133.3930067
v 177.4203229 278.0864839 133.3686068
v 177.8631758 277.9045014 133.4427213
v 178.2013757 277.5748224 133.4045521
v 178.0329651 277.7676056 133.3167101
v 178.2571924 277.4734494 133.2909126
v 178.3795616 277.1504538 133.2687394
v 178.4077881 276.7316689 133.2389457
v 178.2467534 276.2673876 133.3104013
v 178.0719447 276.0243376 133.2902523
v 178.2566935 276.2757456 133.2028426
v 177.6784420 275.7390906 133.2564494
v 177.9373035 275.8935378 133.1671218
v 177.1881994 275.6395307 133.2204289
v 177.4862254 275.6791321 133.1321283
v 176.5143727 275.8232673 133.1662952
v 176.9928983 275.6465016 133.1013444
v 176.6787121 275.7460842 133.0751604
v 176.0935863 276.2631910 133.1251602
v 175.9480085 276.7230443 133.0937785
v 176.0208111 276.4326644 133.0035120
v 175.9563342 277.1225988 132.9546449
v 176.2787615 277.7382010 133.0154252
v 176.2170834 277.6687574 132.9154530
v 176.6939910 278.0158297 132.9794337
v 176.6029694 277.9728988 132.8769335
v 177.0683172 278.1063642 132.9513963
v 176.9104499 278.0832885 132.8550087
v 177.4069180 278.0950791 132.9285054
v 177.2193341 278.1095238 132.8305955
v 177.8071870 277.9382795 132.8980234
v 177.5642223 278.0507672 132.8091911
v 177.8736540 277.8951226 132.7833709
v 178.2479661 277.4962829 132.8535117
v 178.1437186 277.6442544 132.7561586
v 178.4106958 276.8184162 132.8040067
v 178.3904971 277.0975127 132.7152150
v 178.4046699 276.7776040 132.6912916
v 178.2318893 276.2334015 132.7572435
v 178.3377507 276.4352107 132.6705699
v 178.0039530 275.9610565 132.7319337
v 177.7385244 275.7679244 132.7064408
v 177.9985468 275.9442464 132.6227065
v 177.2598083 275.6423436 132.6755128
v 177.5798352 275.7077469 132.5916066
v 176.6729339 275.7461889 132.6334039
v 177.0885818 275.6358420 132.5518521
v 176.6431134 275.7640456 132.5215973
v 176.3436645 275.9518363 132.4956102
v 176.0055764 276.4551408 132.4570053
v 175.9394105 276.9256422 132.4189234
v 176.0719617 277.4357125 132.4918234
v 176.2847225 277.7323286 132.4658170
v 176.5457210 277.9469160 132.3340876
v 177.1100219 278.1165151 132.3969933
v 176.9342846 278.0876774 132.3022024
v 177.2818277 278.1068917 132.2784952
v 177.8824548 277.8954912 132.3382388
v 177.6414112 278.0221942 132.2530530
v 177.9241170 277.8566465 132.2290857
v 178.2182202 277.5453033 132.3068184
v 178.1751357 277.6072965 132.2041920
v 178.3631025 277.2106367 132.2812948
v 178.3640253 277.2192945 132.1732028
v 178.4154951 276.8180251 132.2533414
v 178.4124385 276.7816456 132.1428794
v 178.3335502 276.4534234 132.1162016
v 178.1236303 276.0822418 132.1963335
v 178.1790119 276.1537126 132.0944761
v 177.8223671 275.8221523 132.1677370
v 177.8581865 275.8401033 132.0627801
v 177.4855073 275.6806625 132.1418119
v 177.1218263 275.6405971 132.1157690
v 176.7623680 275.7121422 132.0897860
v 176.9507328 275.6558030 131.9931372
v 176.4390774 275.8824195 132.0637529
v 176.5171432 275.8293916 131.9625693
v 176.1610280 276.1685210 132.0355467
v 176.1824044 276.1320185 131.9309068
v 175.9745282 276.5691723 132.0048814
v 176.0285570 277.3575633 131.9477536
v 175.9467894 277.0045084 131.8637698
v 176.0377889 277.3626882 131.8388353
v 176.2831942 277.7305577 131.9144383
v 176.5518048 277.9492413 131.7842490
v 176.9862074 278.0985433 131.7500019
v 177.2785416 278.1060820 131.8365455
v 177.5868831 278.0408238 131.8133454
v 177.3519109 278.0989241 131.7234533
v 177.8995536 277.8783145 131.7888596
v 177.7090497 277.9919606 131.6974436
v 174.9231890 276.9996628 137.0000164
v 175.0705430 277.6555546 137.0000164
v 175.3234263 278.1525250 137.0000165
v 175.0520820 276.1153581 137.0000163
v 175.5907501 278.4609791 137.0000164
v 175.9642108 278.7791691 137.0000164
v 175.5141131 275.3507282 137.0000163
v 176.7981935 279.1001844 137.0000163
v 176.2370097 274.8253353 137.0000164
v 177.6914973 279.0720583 137.0000164
v 177.1073195 274.6219118 137.0000163
v 178.5034503 278.6994802 137.0000164
v 177.9878445 274.7722829 137.0000164
v 179.1072102 278.0406296 137.0000164
v 178.7411930 275.2529872 137.0000163
v 179.1396316 275.7905253 137.0000164
v 179.3826699 277.3077880 137.0000163
v 179.3341597 276.2548141 137.0000163
v 179.4162179 276.7502350 137.0000163
v 175.5907501 278.4609791 138.8260263
v 175.4341480 278.2846792 138.9159429
v 175.1434769 277.8296492 138.8820204
v 174.9936059 277.3661068 138.9406059
v 174.9512397 277.1302388 138.9085887
v 174.9917488 276.3598643 138.8514035
v 175.1441292 275.9261911 138.8742696
v 175.3361837 275.6024586 138.9150508
v 175.5070203 275.3863768 138.9117201
v 177.7573051 274.7107868 138.8744292
v 178.0469665 274.8148377 138.8940501
v 178.3691309 274.9797067 138.8924171
v 178.6526244 275.1946473 138.9039771
v 178.9337308 275.4854714 138.8836009
v 179.1197802 275.7660169 138.8850062
v 179.2639291 276.0614000 138.8829996
v 179.3956236 276.5473867 138.8773523
v 179.3367327 277.4650242 138.9081857
v 178.9952421 278.1771668 138.9063559
v 178.3904638 278.7571129 138.8969249
v 178.0415545 278.9435208 138.8905631
v 177.3756732 279.1090286 138.8850451
v 176.9607925 279.1060254 138.9035940
v 175.8302062 278.6752644 138.8654169
v 175.6032651 278.4714420 138.8602302
v 175.7072266 278.3068418 139.1828920
v 175.4943371 278.2528370 139.0688202
v 175.5477314 278.0360503 139.2107653
v 175.1825609 277.8399334 138.9950840
v 175.3001416 277.8839453 139.1170434
v 175.6012295 277.9171979 139.2400434
v 175.2016465 277.5322237 139.1638101
v 175.3625699 277.4952558 139.2343270
v 175.1219499 277.3353756 139.1392156
v 175.1790243 276.9769719 139.2100122
v 175.0319467 277.0807250 139.0919491
v 174.9404263 276.7985151 138.9251727
v 174.9874648 276.4901431 138.9702482
v 175.0457551 276.6717558 139.1072016
v 175.1520560 276.2648278 139.1320599
v 175.0655742 276.1966027 138.9814654
v 175.2021670 276.4960747 139.2018082
v 175.2109638 275.9216229 139.0491444
v 175.3045060 276.5656954 139.2396933
v 175.3302557 276.0672969 139.1991569
v 175.4350264 275.7721004 139.1755948
v 175.4822775 275.5066655 139.0554759
v 175.5712423 275.8527827 139.2379694
v 175.6839935 275.2147178 138.9393025
v 175.6604659 275.3764909 139.1159655
v 175.9711565 274.9904866 138.9242291
v 175.9801664 275.0923433 139.0965526
v 175.8455708 275.4460545 139.2257837
v 175.8540094 275.3075031 139.1806369
v 176.2634287 274.8342682 138.9146053
v 176.2701742 274.9288236 139.0956918
v 176.5288299 274.7296303 138.8834327
v 176.4487352 274.9655601 139.1859987
v 176.6081864 274.7451348 139.0096987
v 176.2823957 275.1828174 139.2367452
v 177.0140128 274.6441176 138.9222694
v 176.9050175 274.7224246 139.0623351
v 176.7521207 274.8269912 139.1538977
v 176.8341330 274.9952532 139.2360872
v 177.3955407 274.6473048 138.8940857
v 177.2334251 274.7415195 139.1088503
v 177.4234493 274.6946147 139.0239389
v 177.2900678 274.8671384 139.2035292
v 177.8324794 274.7797301 139.0225946
v 177.7019118 274.8255162 139.1300230
v 177.6420174 275.0004554 139.2339700
v 178.0957665 274.9782043 139.1340765
v 178.2760138 274.9740511 139.0267989
v 178.1061866 275.1313995 139.2170234
v 178.4547738 275.2154573 139.1477333
v 178.6888825 275.2765153 139.0119092
v 178.9680292 275.5905085 139.0033227
v 178.6293564 275.4425403 139.1873775
v 178.8261687 275.5109707 139.1023418
v 178.5212023 275.5262021 139.2387108
v 178.8453718 275.8490328 139.2222246
v 179.1665130 275.9870650 139.0577793
v 178.9866155 275.8271285 139.1471618
v 179.0637128 276.1497808 139.1963969
v 179.3055287 276.3037968 139.0124898
v 179.2259520 276.5388966 139.1655226
v 179.0215773 276.4493895 139.2392005
v 179.3698581 276.7930832 139.0295330
v 179.4102244 277.0508243 138.8868903
v 179.3149190 277.1493332 139.0928946
v 179.1439858 277.1292787 139.2169521
v 179.2606494 277.5407018 139.0340098
v 179.2313757 277.3114004 139.1428991
v 179.1619408 277.9114048 138.9036508
v 179.0568563 277.7428659 139.1674553
v 178.9458178 277.5936695 139.2375810
v 179.1032118 277.9114994 139.0417612
v 178.8050263 278.2553023 139.1159102
v 178.8173860 278.3713623 138.9706949
v 178.7304598 278.4933110 138.8987685
v 178.7404426 278.1370997 139.2036331
v 178.5011974 278.5971124 139.0645132
v 178.4340325 278.4510458 139.2027899
v 178.2355393 278.8016338 139.0190547
v 178.1926076 278.7250347 139.1340885
v 177.9299471 278.7372187 139.2021145
v 177.9399268 278.9193128 139.0515161
v 177.7100778 279.0460944 138.9269988
v 177.7130995 278.8928480 139.1588626
v 178.4188989 278.3178175 139.2398180
v 177.6607380 278.7096730 139.2387126
v 177.1195886 279.0780204 139.0162367
v 177.5026319 279.0258397 139.0588643
v 177.1167784 278.9789513 139.1435926
v 177.2687978 278.8214967 139.2271715
v 176.7560388 278.9745999 139.1048124
v 176.8868434 278.8696763 139.1988381
v 176.6179406 279.0146262 139.0018720
v 176.4916715 279.0127629 138.8645392
v 176.6551472 278.7021229 139.2383922
v 176.1815889 278.8785134 138.9234862
v 176.2372242 278.8427174 139.0527138
v 176.4492812 278.8145921 139.1693441
v 175.8541777 278.6422688 139.0083712
v 176.1138635 278.6594014 139.1635374
v 175.8719913 278.5665038 139.1096907
v 176.1448043 278.5112153 139.2311499
v 175.9856218 277.1951759 139.2410000
v 176.3043777 276.0054850 139.2410000
v 176.8565415 278.0661251 139.2410000
v 177.4941217 275.6866749 139.2410000
v 178.0463539 277.7473150 139.2410000
v 178.3651098 276.5576241 139.2410000
v 175.9856218 277.1951759 137.8113528
v 176.3043777 276.0054850 137.8113528
v 176.8565415 278.0661251 137.8113528
v 178.0463539 277.7473150 137.8113528
v 178.3651098 276.5576241 137.8113528
v 177.4941217 275.6866749 137.8113528
v 178.0660776 277.7370343 131.6648009
v 178.3699934 277.1947456 131.7291569
v 178.2873736 277.4122798 131.6372607
v 178.3884980 277.1112503 131.6145612
v 178.4115567 276.7732281 131.6977314
v 178.3153831 276.4067040 131.6733557
v 178.1630641 276.1290007 131.6482530
v 177.8695606 275.8476483 131.5109060
v 177.4068330 275.6592718 131.5894930
v 177.3357022 275.6432183 131.4730087
v 176.9115772 275.6659906 131.5523472
v 176.5129102 275.8321534 131.5187054
v 176.8156657 275.6911755 131.4358228
v 176.2628857 276.0460932 131.4957081
v 176.4285174 275.8905037 131.4045360
v 176.0544217 276.3489915 131.4719517
v 176.1604211 276.1697602 131.3773971
v 175.9840057 276.5437130 131.3469909
v 175.9516466 277.0699162 131.4191314
v 175.9373703 276.9274488 131.3257754
v 176.1200080 277.5293496 131.3814620
v 176.0908383 277.4848965 131.3289159
v 176.5960655 277.9684915 131.3336152
v 176.4839272 276.1890070 136.1197133
v 175.9439207 276.9451761 136.2681074
v 176.2494613 276.5459260 136.0830285
v 175.9977320 277.2450848 136.2464813
v 176.2137763 277.0410438 136.0365893
v 176.3576739 277.4102219 136.0008941
v 176.6724240 278.0026613 136.1721293
v 177.6805471 278.0016776 136.0984910
v 177.3140325 277.8470406 135.9015879
v 177.8549907 277.5934954 135.8475865
v 178.3451656 277.2690474 136.0264428
v 178.1284790 276.6863288 135.7607961
v 178.0179057 276.3807197 135.7330660
v 177.7960712 275.8105179 135.9070833
v 177.6587189 276.0281618 135.6816809
v 177.2630953 275.9044446 135.6469008
v 176.8746014 275.6730810 135.8412376
v 176.8703667 275.9507755 135.6091315
v 176.4438599 276.2405056 135.5641780
v 176.2877814 276.4689988 135.5392604
v 176.2165067 276.7345834 135.5145773
v 176.2012161 277.6332094 135.6653166
v 176.5987680 277.6582042 135.4179001
v 177.0996263 278.1077314 135.5908923
v 176.9257750 277.8225420 135.3898158
v 177.4803326 277.8078388 135.3347971
v 177.8234736 277.5998526 135.2982639
v 177.9940437 277.3995374 135.2782556
v 178.3399523 277.3054789 135.4798065
v 178.1283811 277.1090178 135.2476082
v 178.1167794 276.6352584 135.2027145
v 178.0059014 276.3710641 135.1807208
v 177.8351134 276.1654563 135.1545212
v 177.5071978 275.6780484 135.3360191
v 177.5678872 275.9816629 135.1282863
v 177.0979476 275.9049147 135.0800759
v 176.7253571 275.7286774 135.2751396
v 176.8178130 275.9741525 135.0544405
v 176.5703059 276.1123805 135.0284536
v 176.3866413 276.3101592 135.0041796
v 176.2716044 276.5264849 134.9840449
v 176.2020166 276.7973195 134.9588199
v 176.2256962 277.0768905 134.9348008
v 176.2647563 277.7068039 135.1084538
v 176.3233466 277.3500921 134.9053599
v 176.6559860 277.7045177 134.8663219
v 176.8449683 278.0680503 135.0601944
v 177.1720278 278.1098869 135.0358462
v 177.0942131 277.8485373 134.8215550
v 177.5454831 277.7843611 134.7794537
v 178.2800314 277.4239944 134.9380304
v 178.0324172 277.3335316 134.7175734
v 178.1312585 276.6778380 134.6585144
v 177.8055202 276.1352971 134.6027220
v 177.7547265 275.7761545 134.8047705
v 177.5820331 275.9930706 134.5748759
v 177.3254111 275.9149865 134.5544411
v 176.9740633 275.6604970 134.7465203
v 177.0198992 275.9144344 134.5230848
v 176.7530135 276.0027434 134.5014067
v 176.5169425 276.1578062 134.4722848
v 176.2830779 276.4809013 134.4383570
v 175.9399049 276.7359810 134.6355424
v 176.2007687 276.8705686 134.4002906
v 176.3391794 277.3666662 134.3553946
v 176.4854785 277.5614090 134.3353212
v 176.6924823 277.7201447 134.3075940
v 177.2044407 277.8488162 134.2638586
v 177.4565230 277.8070883 134.2367900
v 177.9039200 277.8718540 134.4306107
v 177.7213159 277.6867783 134.2125017
v 178.1305030 277.6585100 134.4084678
v 177.9671728 277.4417578 134.1811076
v 178.1158646 277.1442600 134.1507251
v 176.2701991 277.2439331 132.1681568
v 178.1338121 276.7187354 134.1121660
v 177.6804681 276.0470932 134.0388676
v 177.9570084 276.2833949 134.0672361
v 177.5524975 275.7027092 134.2376780
v 177.3682800 275.9202033 134.0068553
v 176.9120468 275.9351118 133.9622015
v 176.1470013 276.1773645 134.1272876
v 176.4700480 276.2046891 133.9185895
v 176.2167956 276.7160551 133.8685617
v 176.2948725 276.4607035 133.8883951
v 176.2093083 276.9503945 133.8453602
v 175.9923086 277.2370039 134.0483938
v 176.2561551 277.1897959 133.8213474
v 176.3730537 277.4243028 133.7976904
v 176.7853249 277.7688049 133.7532836
v 177.1110335 277.8484417 133.7186956
v 177.5535184 277.7767658 133.6796683
v 177.8011555 277.6159649 133.6529845
v 178.3462924 277.2644852 133.8266155
v 178.0075649 277.3903439 133.6254727
v 178.1451891 276.9848564 133.5868082
v 178.0057851 276.3719427 133.5308873
v 178.1133740 276.6043214 133.5523454
v 177.8523694 276.1811767 133.5086614
v 177.4241886 275.9369211 133.4602917
v 176.8971392 275.9445933 133.4159586
v 176.6394854 276.0600177 133.3887019
v 176.4311739 276.2547301 133.3606697
v 176.2942871 276.4604389 133.3430257
v 176.2132433 276.7439247 133.3123626
v 176.2134461 277.0049430 133.2921305
v 176.2743425 277.2485999 133.2704364
v 176.1444304 277.5715172 133.4732219
v 176.4323362 277.5022267 133.2389301
v 176.6255367 277.6748064 133.2174186
v 176.7720409 278.0408437 133.4151389
v 176.8631053 277.7960738 133.1915792
v 177.1358023 277.8485457 133.1704207
v 177.4053864 277.8201689 133.1418013
v 177.7403250 277.9750723 133.3453179
v 177.8711472 277.5541575 133.0963052
v 177.6749752 277.7114305 133.1153507
v 178.1269894 277.0959035 133.0469996
v 178.1369043 276.7024671 133.0118704
v 177.9849293 276.3345199 132.9780269
v 177.6978005 276.0519112 132.9389109
v 177.3131966 275.9128848 132.9022097
v 176.4478151 276.2267190 132.8141847
v 176.8064434 275.9714384 132.8523786
v 176.2749542 276.0185123 133.0379632
v 175.9465513 276.7712340 132.9806342
v 176.2247073 276.6385332 132.7769018
v 176.2222539 277.0565791 132.7357574
v 176.4516718 277.5252332 132.6861554
v 176.6507379 277.6953014 132.6665432
v 176.9025777 277.8115082 132.6370694
v 177.2550875 277.8488172 132.6076062
v 177.9016845 277.5179358 132.5402849
v 177.6837201 277.7121125 132.5669459
v 178.2903448 277.4038588 132.7372442
v 178.0397313 277.3182468 132.5170361
v 178.1331114 277.0567590 132.4913994
v 178.1404427 276.7761951 132.4668190
v 177.9341035 276.2722044 132.4185430
v 178.0708347 276.4865761 132.4413837
v 177.7503959 276.0968286 132.3954138
v 177.5031554 275.9585799 132.3674161
v 177.0068520 275.9220908 132.3247554
v 176.7588298 275.9988999 132.2991232
v 176.5339054 276.1493587 132.2764119
v 176.2398457 276.6081663 132.2245512
v 175.9930415 277.2244403 132.3979188
v 176.2025402 276.9086303 132.1993972
v 177.7993416 275.8096119 133.8133941
v 177.5297171 275.6960043 133.7941744
v 176.5464959 277.6174808 133.7739080
v 176.7386802 278.0403933 133.5215911
v 177.6424704 278.0197899 133.4592455
v 178.3566544 277.2318851 133.3814352
v 178.4097421 276.9177186 133.3574647
v 178.3706653 276.5594567 133.3319186
v 177.6530716 276.0325189 133.4846234
v 177.1506321 275.9049101 133.4355179
v 176.8140440 275.6954815 133.1918085
v 175.9548867 277.0498172 133.0684271
v 176.0255230 277.3318089 133.0465907
v 178.0405098 277.7547653 132.8746661
v 178.0159084 277.3609394 133.0709483
v 178.3770538 277.1557518 132.8248673
v 178.3504974 276.5045018 132.7787285
v 177.0122210 275.6539513 132.6569826
v 176.2781070 276.0154420 132.5972203
v 176.0105988 276.4610825 132.5600108
v 175.9334067 276.9410283 132.5281930
v 176.3111746 277.3160602 132.7109513
v 176.5917575 277.9693372 132.4344877
v 177.5258157 278.0601854 132.3678073
v 178.3144808 276.3994137 132.2206092
v 177.2597056 275.9098159 132.3455152
v 176.3602455 276.3514092 132.2523194
v 175.9420136 276.9082903 131.9788656
v 175.9785545 276.5748953 135.8516284
v 175.9359206 276.9339546 135.8229220
v 176.0158799 277.2980393 135.7996342
v 176.2111807 277.6576146 135.7689444
v 176.6378310 277.6918620 135.9643476
v 176.9847994 277.8298191 135.9293922
v 177.3955645 278.0905596 135.6774000
v 177.7293558 277.9820109 135.6506085
v 177.9925112 277.8014892 135.6292760
v 178.1313776 277.0892271 135.7945488
v 178.2687489 276.2986885 135.5118704
v 177.9724418 275.9220349 135.4769378
v 177.4264904 275.6586700 135.4318792
v 177.0900152 275.6450934 135.4112790
v 176.6260959 276.0755206 135.5848102
v 175.9969140 276.4796002 135.3072279
v 175.9441601 276.9860809 135.2717816
v 176.2219300 277.0894563 135.4848137
v 176.3821272 277.4416407 135.4453107
v 176.7565464 278.0399118 135.1721401
v 178.2547114 277.4733712 135.0496398
v 178.4107224 276.8953229 135.0060827
v 178.1577346 276.1141737 134.9451688
v 177.6800902 275.7400435 134.9010702
v 177.3506357 275.6549266 134.8803398
v 175.9699758 277.1435913 134.7099338
v 176.5179735 277.9237811 134.6411070
v 177.3664869 278.1024447 134.5817457
v 177.8615868 277.9078146 134.5425176
v 177.8758904 277.5493620 134.7420288
v 178.1316693 277.0570999 134.6910191
v 177.9815432 276.3332800 134.6229117
v 177.2950968 275.6497702 134.3266439
v 176.1040112 276.2453961 134.2235226
v 175.9823195 276.5605664 134.2028568
v 176.2407217 277.1402828 134.3761650
v 176.4189360 277.8633196 134.0988122
v 176.9454581 277.8185543 134.2846953
v 177.3906715 278.0979475 134.0271074
v 177.8881610 277.8914250 133.9867545
v 175.9555101 276.6923107 131.4446793
v 176.2366586 277.1355392 131.6292668
v 176.4648678 277.5574660 131.5855549
v 177.0107596 277.8479783 131.5297757
v 176.9594358 278.0850861 131.3181763
v 177.4801729 277.7997299 131.4875807
v 177.7596207 277.6557028 131.4588547
v 177.4000438 278.0641193 131.3015837
v 177.8615796 277.8539544 131.2835511
v 178.1360824 277.0407676 131.3925663
v 178.1221886 276.6137336 131.3544694
v 178.2899087 276.6432708 131.2262732
v 177.9119753 276.2396287 131.3151283
v 177.2793102 275.9070434 131.2499309
v 178.1836917 277.4666082 131.2605797
v 176.8403300 275.9548443 131.2095072
v 176.8244866 275.8854643 131.1454517
v 176.4765290 276.1975107 131.1704273
v 176.2928566 276.3687217 131.1108911
v 176.2086888 276.7482243 131.1142309
v 176.2404177 277.1587463 131.0754982
v 176.1750273 276.7942027 131.0909545
v 176.5047000 277.5858668 132.1310350
v 176.9522215 277.8343074 132.0851334
v 176.5269171 277.9261213 131.8921038
v 176.8853688 278.0828653 131.8632843
v 177.5263537 277.7931586 132.0327171
v 177.8740161 277.5529933 131.9947359
v 178.1873412 277.5917473 131.7595565
v 178.1040678 277.1954940 131.9563052
v 178.1250780 276.6296006 131.9026855
v 177.8096655 276.1238400 131.8511447
v 177.8330972 275.8265052 131.6177897
v 177.2612334 275.8964687 131.7975678
v 176.5699112 276.1152585 131.7310903
v 176.3228264 276.4034256 131.6965820
v 176.2014341 276.7867840 131.6605518
v 177.7352419 277.5886552 130.9999738
v 176.2603970 276.8645136 130.9999321
v 176.3842686 276.4314712 130.9999854
v 177.4212725 277.7495876 130.9999752
v 177.0314090 277.7732483 130.9999780
v 176.6311459 277.6046755 130.9999406
v 176.3915870 277.8390741 131.3436194
v 176.3916926 277.3323526 130.9999516
v 176.5122914 276.0794004 131.1283399
v 176.6707999 276.1160643 130.9999503
v 177.0511064 275.9784438 130.9999898
v 177.1779936 275.8070482 131.1619936
v 177.6540749 275.8903915 131.1836873
v 177.4479990 276.0077527 130.9999429
v 177.8349299 276.2488276 130.9999650
v 178.0661808 276.2063583 131.2044627
v 178.0337804 276.5864994 130.9999784
v 178.0832403 276.9673224 130.9998719
v 178.3079967 277.0817433 131.2447362
v 177.9489269 277.3525264 130.9999588
v 177.4413842 275.6685552 132.0242129
v 176.8732391 275.9515989 131.7625448
v 175.9665573 276.6045044 131.8931018
v 176.2384530 277.6815357 131.8107971
v 177.9971861 277.4016766 131.4278565
v 178.4063450 276.7955862 131.5931153
v 178.3347425 276.4405195 131.5683409
v 178.1553817 276.1268824 131.5423130
v 177.6094982 276.0009772 131.2796654
v 176.2900716 276.4728812 131.1405645
v 176.1518592 277.5770167 132.3703490
f 424 2 1
f 424 1 3
f 4 424 3
f 5 4 3
f 5 3 6
f 7 5 6
f 7 6 8
f 9 7 8
f 9 8 10
f 427 9 10
f 12 427 10
f 12 10 11
f 430 12 11
f 430 11 13
f 17 13 14
f 17 430 13
f 18 17 14
f 18 14 15
f 16 17 18
f 22 17 16
f 19 18 15
f 19 15 20
f 24 19 20
f 23 22 590
f 26 23 591
f 415 24 20
f 415 20 25
f 417 415 25
f 28 26 592
f 29 417 25
f 29 25 27
f 435 28 593
f 32 29 27
f 32 27 30
f 31 435 593
f 36 31 33
f 420 32 30
f 420 30 34
f 38 420 34
f 38 34 35
f 437 36 37
f 40 437 37
f 41 38 35
f 41 35 39
f 42 40 596
f 421 41 39
f 44 39 43
f 44 421 39
f 45 42 597
f 2 44 43
f 2 43 1
f 16 21 22
f 21 590 22
f 590 591 23
f 591 592 26
f 592 593 28
f 593 33 31
f 33 37 36
f 37 596 40
f 596 597 42
f 597 598 45
f 46 45 598
f 442 45 46
f 442 46 47
f 49 442 47
f 49 47 48
f 50 49 48
f 600 50 48
f 51 50 600
f 601 51 600
f 447 51 601
f 602 447 601
f 53 447 602
f 603 53 602
f 52 53 603
f 450 53 52
f 55 450 52
f 54 55 52
f 56 55 54
f 605 56 54
f 57 56 605
f 59 57 605
f 606 59 605
f 58 59 606
f 61 59 58
f 60 61 58
f 457 61 60
f 62 457 60
f 609 62 60
f 460 62 609
f 63 460 609
f 461 460 63
f 65 461 63
f 64 65 63
f 67 65 64
f 66 67 64
f 68 67 66
f 610 68 66
f 464 68 610
f 69 464 610
f 70 464 69
f 611 70 69
f 71 70 611
f 72 71 611
f 73 71 72
f 612 73 72
f 74 73 612
f 468 74 612
f 613 468 612
f 76 468 613
f 614 76 613
f 75 76 614
f 471 76 75
f 78 471 75
f 77 78 75
f 79 78 77
f 81 79 77
f 80 81 77
f 476 81 80
f 82 476 80
f 84 476 82
f 615 84 82
f 83 84 615
f 85 84 83
f 616 85 83
f 87 85 616
f 86 87 616
f 88 87 86
f 617 88 86
f 89 88 617
f 618 89 617
f 483 89 618
f 485 483 618
f 485 618 90
f 92 485 90
f 91 92 90
f 93 92 91
f 94 92 93
f 95 94 93
f 97 94 95
f 97 95 96
f 98 97 96
f 100 98 96
f 99 100 96
f 492 100 99
f 102 492 99
f 622 102 99
f 101 102 622
f 104 102 101
f 103 104 101
f 105 104 103
f 495 105 103
f 623 495 103
f 107 495 623
f 624 107 623
f 106 107 624
f 500 107 106
f 108 500 106
f 109 500 108
f 626 109 108
f 110 109 626
f 112 110 626
f 111 112 626
f 113 112 111
f 628 113 111
f 114 113 628
f 115 114 628
f 629 115 628
f 117 115 629
f 117 629 116
f 507 117 116
f 118 507 116
f 120 507 118
f 119 120 118
f 122 120 119
f 121 122 119
f 124 122 121
f 123 124 121
f 125 124 123
f 562 125 123
f 563 125 562
f 127 125 563
f 126 127 563
f 129 127 126
f 128 129 126
f 131 129 128
f 130 131 128
f 133 131 130
f 132 133 130
f 136 133 132
f 134 136 132
f 135 136 134
f 138 136 135
f 137 138 135
f 521 138 137
f 139 521 137
f 140 521 139
f 565 140 139
f 524 140 565
f 142 524 565
f 141 142 565
f 143 142 141
f 143 141 566
f 528 143 566
f 144 528 566
f 146 528 144
f 145 146 144
f 147 146 145
f 567 147 145
f 148 147 567
f 568 148 567
f 149 148 568
f 569 149 568
f 152 149 569
f 150 152 569
f 151 152 150
f 154 152 151
f 153 154 151
f 156 154 153
f 155 156 153
f 158 156 155
f 572 158 155
f 157 158 572
f 159 158 157
f 538 159 157
f 160 538 157
f 162 538 160
f 161 162 160
f 539 162 161
f 163 539 161
f 573 163 161
f 574 163 573
f 165 163 574
f 164 165 574
f 167 165 164
f 166 167 164
f 169 167 166
f 168 169 166
f 171 169 168
f 170 171 168
f 173 171 170
f 173 170 172
f 174 173 172
f 575 174 172
f 176 174 575
f 175 176 575
f 548 176 175
f 577 548 175
f 178 548 577
f 177 178 577
f 179 178 177
f 181 179 177
f 578 181 177
f 180 181 578
f 184 181 180
f 182 184 180
f 183 184 182
f 186 184 183
f 185 186 183
f 188 186 185
f 579 188 185
f 187 188 579
f 189 188 187
f 190 189 187
f 580 190 187
f 191 190 580
f 581 191 580
f 582 191 581
f 192 191 582
f 560 192 582
f 193 560 582
f 697 560 193
f 194 697 193
f 195 697 194
f 584 195 194
f 197 195 584
f 196 197 584
f 198 197 196
f 585 198 196
f 200 198 585
f 199 200 585
f 201 200 199
f 203 201 199
f 202 203 199
f 205 203 202
f 204 205 202
f 206 205 204
f 207 205 206
f 586 207 206
f 208 207 586
f 210 208 586
f 209 210 586
f 212 210 209
f 211 212 209
f 213 212 211
f 687 212 213
f 214 687 213
f 216 687 214
f 215 216 214
f 218 216 215
f 217 218 215
f 220 218 217
f 219 220 217
f 221 220 219
f 689 220 221
f 589 689 221
f 223 689 589
f 222 223 589
f 224 223 222
f 690 224 222
f 225 690 222
f 226 690 225
f 654 226 225
f 655 226 654
f 227 226 655
f 228 227 655
f 230 227 228
f 229 230 228
f 232 230 229
f 231 232 229
f 391 232 231
f 391 231 658
f 233 20 236
f 233 25 20
f 234 25 233
f 20 15 236
f 235 25 234
f 236 15 239
f 235 27 25
f 237 30 235
f 235 30 27
f 238 30 237
f 15 14 239
f 239 14 241
f 14 13 241
f 238 34 30
f 240 34 238
f 241 13 243
f 240 35 34
f 13 11 243
f 240 242 35
f 35 242 39
f 11 245 243
f 10 245 11
f 242 244 39
f 39 244 43
f 10 247 245
f 8 247 10
f 43 244 1
f 244 246 1
f 8 248 247
f 6 248 8
f 1 246 3
f 6 250 248
f 246 249 3
f 6 251 250
f 3 251 6
f 249 251 3
f 253 252 237
f 253 237 235
f 254 253 235
f 254 235 234
f 255 254 234
f 255 234 233
f 256 255 233
f 288 256 233
f 257 288 233
f 257 233 236
f 258 257 236
f 259 236 239
f 259 258 236
f 260 259 239
f 300 260 239
f 302 300 239
f 302 239 241
f 306 302 241
f 308 306 241
f 308 241 243
f 312 308 243
f 316 312 243
f 261 316 243
f 261 243 245
f 262 261 245
f 263 262 245
f 263 245 247
f 264 263 247
f 265 264 247
f 265 247 248
f 266 265 248
f 267 266 248
f 267 248 250
f 268 267 250
f 268 250 251
f 340 268 251
f 340 251 249
f 269 340 249
f 269 249 246
f 345 269 246
f 270 345 246
f 351 270 246
f 351 246 244
f 271 351 244
f 272 271 244
f 272 244 242
f 359 272 242
f 273 359 242
f 273 242 240
f 274 273 240
f 370 274 240
f 370 240 238
f 372 370 238
f 275 372 238
f 275 238 237
f 252 275 237
f 252 252 237
f 252 252 237
f 276 275 252
f 276 252 252
f 276 252 252
f 253 276 252
f 280 253 254
f 280 278 253
f 281 277 278
f 279 277 281
f 281 278 280
f 283 279 281
f 255 280 254
f 283 281 280
f 282 279 284
f 283 280 255
f 284 279 283
f 285 283 255
f 287 285 255
f 287 255 256
f 286 283 285
f 288 287 256
f 286 284 283
f 286 285 287
f 295 282 284
f 290 287 288
f 289 288 257
f 295 284 286
f 289 290 288
f 290 286 287
f 293 286 290
f 292 289 257
f 291 290 289
f 292 291 289
f 292 257 258
f 295 286 293
f 293 290 291
f 294 291 292
f 294 292 258
f 296 293 291
f 259 294 258
f 297 291 294
f 295 293 296
f 296 291 297
f 298 294 259
f 299 295 296
f 298 297 294
f 260 298 259
f 297 299 296
f 301 297 298
f 300 298 260
f 301 298 300
f 305 297 301
f 304 299 297
f 304 297 305
f 303 301 300
f 303 300 302
f 311 299 304
f 305 301 303
f 307 303 302
f 311 304 305
f 307 302 306
f 309 305 303
f 309 303 307
f 311 305 309
f 310 307 306
f 310 306 308
f 314 307 310
f 309 307 314
f 310 308 312
f 312 313 310
f 313 314 310
f 315 311 309
f 315 309 314
f 317 314 313
f 317 313 312
f 318 317 312
f 318 312 316
f 319 314 317
f 319 315 314
f 320 318 316
f 320 316 261
f 321 317 318
f 322 315 319
f 321 318 320
f 321 319 317
f 262 320 261
f 321 322 319
f 324 320 262
f 324 262 263
f 323 321 320
f 323 320 324
f 325 322 321
f 325 321 323
f 326 323 324
f 325 323 326
f 264 324 263
f 327 324 264
f 326 324 327
f 331 322 325
f 329 325 326
f 265 327 264
f 330 326 327
f 328 327 265
f 331 325 329
f 328 330 327
f 329 326 330
f 266 328 265
f 333 328 266
f 333 330 328
f 334 329 330
f 332 331 329
f 334 330 333
f 333 266 267
f 332 329 334
f 336 333 267
f 335 332 334
f 338 331 332
f 333 335 334
f 268 336 267
f 337 335 333
f 337 333 336
f 338 332 335
f 339 336 268
f 337 336 339
f 340 339 268
f 338 335 337
f 341 337 339
f 342 338 337
f 341 339 340
f 341 340 269
f 342 337 341
f 344 342 341
f 343 341 269
f 347 338 342
f 344 341 343
f 348 269 345
f 348 343 269
f 346 344 343
f 348 346 343
f 346 342 344
f 347 342 346
f 270 348 345
f 349 346 348
f 350 348 270
f 350 270 351
f 349 348 350
f 352 347 346
f 352 346 349
f 361 347 352
f 353 350 351
f 353 349 350
f 354 352 349
f 271 353 351
f 353 354 349
f 354 361 352
f 355 353 271
f 356 353 355
f 272 355 271
f 356 354 353
f 356 355 358
f 358 355 272
f 357 354 356
f 359 358 272
f 360 356 358
f 361 354 357
f 357 356 360
f 362 361 357
f 364 358 359
f 360 358 364
f 364 359 273
f 362 357 360
f 363 364 273
f 366 362 360
f 274 363 273
f 365 360 364
f 365 364 363
f 366 360 365
f 369 274 370
f 369 363 274
f 367 363 369
f 367 365 363
f 366 365 368
f 368 365 367
f 371 362 366
f 371 366 368
f 372 369 370
f 374 368 367
f 373 369 372
f 374 367 369
f 374 369 373
f 371 368 374
f 375 373 372
f 375 372 275
f 376 374 373
f 378 371 374
f 377 373 375
f 378 374 376
f 377 376 373
f 275 276 253
f 375 275 253
f 375 253 278
f 377 375 278
f 277 376 377
f 377 278 277
f 277 378 376
f 378 282 371
f 378 277 279
f 378 279 282
f 379 282 295
f 380 379 295
f 380 295 299
f 380 299 311
f 381 282 379
f 381 371 282
f 362 371 381
f 382 311 315
f 382 380 311
f 382 315 322
f 331 382 322
f 383 361 362
f 383 362 381
f 331 384 382
f 338 384 331
f 347 361 383
f 347 383 384
f 338 347 384
f 379 380 385
f 385 380 386
f 381 379 387
f 387 379 385
f 383 381 388
f 388 381 387
f 384 383 389
f 389 383 388
f 382 384 390
f 390 384 389
f 380 382 386
f 386 382 390
f 385 386 390
f 387 390 389
f 387 389 388
f 387 385 390
f 393 391 658
f 393 658 392
f 394 393 392
f 394 392 395
f 692 394 395
f 693 692 395
f 693 395 396
f 693 396 397
f 694 693 397
f 398 694 397
f 398 397 662
f 400 398 662
f 400 662 399
f 400 399 401
f 403 400 401
f 403 401 402
f 405 403 402
f 405 402 404
f 407 405 404
f 407 404 406
f 408 407 406
f 408 406 630
f 410 408 630
f 410 630 409
f 412 410 409
f 412 409 411
f 673 412 411
f 19 414 18
f 94 487 92
f 24 416 19
f 19 416 414
f 24 415 416
f 416 415 418
f 415 417 418
f 418 417 419
f 417 29 419
f 32 594 29
f 29 594 419
f 594 420 595
f 32 420 594
f 595 38 422
f 420 38 595
f 38 41 422
f 422 421 423
f 41 421 422
f 421 44 423
f 44 2 423
f 423 2 599
f 2 424 599
f 424 4 599
f 599 4 425
f 5 425 4
f 7 425 5
f 7 426 425
f 7 9 426
f 426 9 428
f 9 427 428
f 12 429 427
f 427 429 428
f 430 429 12
f 429 430 431
f 430 17 431
f 431 17 604
f 22 432 17
f 17 432 604
f 432 22 433
f 23 434 22
f 26 434 23
f 22 434 433
f 26 607 434
f 26 28 607
f 607 28 608
f 28 435 608
f 608 435 436
f 436 31 438
f 435 31 436
f 36 438 31
f 36 437 438
f 438 437 439
f 437 40 439
f 45 439 42
f 42 439 40
f 439 45 440
f 440 45 441
f 442 441 45
f 441 442 443
f 442 49 443
f 443 49 444
f 50 444 49
f 51 445 50
f 50 445 444
f 51 446 445
f 447 448 51
f 51 448 446
f 448 447 449
f 447 53 449
f 53 451 449
f 450 451 53
f 450 55 451
f 451 55 452
f 452 56 453
f 55 56 452
f 57 454 56
f 56 454 453
f 454 57 455
f 59 456 57
f 57 456 455
f 59 61 456
f 456 61 458
f 61 457 458
f 458 457 459
f 460 459 62
f 62 459 457
f 459 460 462
f 460 461 462
f 462 461 463
f 461 65 463
f 65 67 463
f 463 67 619
f 619 68 465
f 67 68 619
f 68 464 465
f 465 464 620
f 464 70 620
f 70 466 620
f 71 466 70
f 466 73 621
f 71 73 466
f 621 74 467
f 73 74 621
f 468 467 74
f 469 468 470
f 467 468 469
f 76 470 468
f 76 471 470
f 470 471 472
f 78 473 471
f 79 473 78
f 471 473 472
f 473 79 474
f 81 475 79
f 79 475 474
f 476 475 81
f 475 476 477
f 477 84 625
f 476 84 477
f 85 478 84
f 84 478 625
f 85 479 478
f 87 479 85
f 479 87 480
f 480 87 627
f 88 627 87
f 88 481 627
f 88 89 481
f 481 89 482
f 482 89 484
f 89 483 484
f 483 485 484
f 484 485 486
f 486 92 487
f 485 92 486
f 414 16 18
f 94 489 487
f 97 489 94
f 489 97 491
f 97 98 491
f 100 490 98
f 98 490 491
f 100 492 490
f 490 492 493
f 493 102 494
f 492 102 493
f 102 104 494
f 494 105 496
f 104 105 494
f 495 496 105
f 496 495 498
f 107 497 495
f 495 497 498
f 500 499 107
f 107 499 497
f 501 500 502
f 499 500 501
f 502 109 564
f 500 109 502
f 109 110 564
f 564 110 503
f 112 503 110
f 112 113 503
f 113 504 503
f 504 114 505
f 113 114 504
f 114 115 505
f 117 506 115
f 115 506 505
f 506 117 508
f 508 507 509
f 117 507 508
f 509 120 511
f 507 120 509
f 120 122 511
f 124 510 122
f 122 510 511
f 124 512 510
f 125 512 124
f 125 570 512
f 125 127 570
f 570 127 513
f 513 127 571
f 129 571 127
f 131 514 129
f 129 514 571
f 514 131 515
f 131 516 515
f 133 516 131
f 136 517 133
f 133 517 516
f 136 518 517
f 138 519 136
f 136 519 518
f 138 520 519
f 521 520 138
f 520 521 522
f 140 523 521
f 521 523 522
f 140 524 523
f 523 524 525
f 525 524 526
f 142 526 524
f 143 526 142
f 526 143 527
f 143 528 527
f 527 528 530
f 146 529 528
f 528 529 530
f 146 147 529
f 147 576 529
f 147 148 576
f 576 148 531
f 531 149 532
f 148 149 531
f 152 532 149
f 152 533 532
f 154 533 152
f 154 534 533
f 156 534 154
f 156 535 534
f 158 535 156
f 535 158 537
f 158 159 537
f 538 536 159
f 159 536 537
f 162 540 538
f 538 540 536
f 162 539 540
f 540 539 541
f 163 541 539
f 163 583 541
f 165 583 163
f 542 165 543
f 583 165 542
f 167 543 165
f 167 169 543
f 543 169 544
f 171 545 169
f 169 545 544
f 171 173 545
f 545 173 547
f 173 174 547
f 176 546 174
f 174 546 547
f 176 548 546
f 549 548 550
f 546 548 549
f 548 178 550
f 178 179 550
f 550 179 551
f 551 179 553
f 179 181 553
f 184 552 181
f 181 552 553
f 184 554 552
f 184 186 554
f 554 186 555
f 188 587 186
f 186 587 555
f 189 556 188
f 188 556 587
f 556 189 557
f 557 189 558
f 190 558 189
f 191 588 190
f 190 588 558
f 588 191 559
f 191 561 559
f 192 561 191
f 488 560 697
f 192 560 561
f 561 560 488
f 487 119 118
f 489 119 487
f 119 489 121
f 491 121 489
f 121 491 123
f 490 562 491
f 491 562 123
f 490 563 562
f 493 563 490
f 493 126 563
f 494 126 493
f 128 494 130
f 126 494 128
f 496 130 494
f 130 496 132
f 496 498 132
f 132 498 134
f 497 134 498
f 497 499 134
f 135 499 137
f 134 499 135
f 499 501 137
f 137 502 139
f 501 502 137
f 502 564 139
f 139 564 565
f 503 565 564
f 503 504 565
f 565 504 141
f 505 141 504
f 505 566 141
f 505 506 566
f 144 506 145
f 566 506 144
f 508 145 506
f 509 567 508
f 508 567 145
f 511 568 509
f 509 568 567
f 511 569 568
f 510 150 511
f 511 150 569
f 510 512 150
f 512 151 150
f 151 570 153
f 512 570 151
f 570 513 153
f 153 513 155
f 513 571 155
f 155 571 572
f 514 572 571
f 515 572 514
f 515 157 572
f 515 516 157
f 157 516 160
f 517 160 516
f 517 518 160
f 160 518 161
f 519 573 518
f 520 573 519
f 518 573 161
f 520 574 573
f 520 522 574
f 574 522 164
f 522 523 164
f 164 523 166
f 166 525 168
f 523 525 166
f 526 168 525
f 526 527 168
f 168 527 170
f 170 530 172
f 527 530 170
f 529 575 530
f 530 575 172
f 529 576 575
f 575 576 175
f 531 577 576
f 576 577 175
f 531 532 577
f 577 532 177
f 533 578 532
f 532 578 177
f 533 180 578
f 534 182 533
f 533 182 180
f 534 183 182
f 535 183 534
f 183 535 185
f 537 579 535
f 535 579 185
f 579 537 187
f 536 580 537
f 537 580 187
f 580 536 581
f 540 581 536
f 540 582 581
f 540 541 582
f 582 541 193
f 541 583 193
f 193 542 194
f 583 542 193
f 544 584 543
f 543 584 542
f 542 584 194
f 584 544 196
f 545 196 544
f 547 585 545
f 545 585 196
f 547 199 585
f 547 546 199
f 199 546 202
f 546 549 202
f 202 549 204
f 204 550 206
f 549 550 204
f 550 551 206
f 553 586 551
f 551 586 206
f 553 552 586
f 586 552 209
f 552 554 209
f 209 554 211
f 554 555 211
f 211 555 213
f 213 587 214
f 555 587 213
f 587 556 214
f 214 556 215
f 556 557 215
f 215 557 217
f 557 558 217
f 217 558 219
f 219 588 221
f 558 588 219
f 588 559 221
f 561 589 559
f 559 589 221
f 561 488 589
f 589 488 222
f 416 21 414
f 414 21 16
f 416 590 21
f 416 591 590
f 418 591 416
f 419 592 418
f 418 592 591
f 419 593 592
f 419 594 593
f 593 594 33
f 33 594 37
f 594 595 37
f 422 596 595
f 595 596 37
f 423 597 422
f 422 597 596
f 423 598 597
f 423 46 598
f 599 46 423
f 46 599 47
f 47 599 48
f 425 48 599
f 426 600 425
f 425 600 48
f 426 601 600
f 428 601 426
f 601 428 602
f 429 602 428
f 429 603 602
f 431 603 429
f 603 431 52
f 431 604 52
f 52 604 54
f 604 432 54
f 433 605 432
f 432 605 54
f 433 434 605
f 605 434 606
f 607 606 434
f 606 607 58
f 607 608 58
f 58 608 60
f 60 436 609
f 608 436 60
f 438 609 436
f 439 63 438
f 438 63 609
f 63 439 64
f 440 64 439
f 64 440 66
f 443 610 441
f 441 610 440
f 440 610 66
f 443 69 610
f 443 611 69
f 444 611 443
f 72 444 612
f 611 444 72
f 445 612 444
f 446 612 445
f 612 446 613
f 448 613 446
f 448 614 613
f 449 614 448
f 614 449 75
f 75 451 77
f 449 451 75
f 451 452 77
f 452 453 77
f 77 453 80
f 80 454 82
f 453 454 80
f 455 82 454
f 456 615 455
f 458 615 456
f 455 615 82
f 615 458 83
f 459 83 458
f 459 616 83
f 462 86 459
f 459 86 616
f 462 617 86
f 463 617 462
f 617 463 618
f 618 619 90
f 463 619 618
f 90 465 91
f 619 465 90
f 465 620 91
f 91 620 93
f 620 466 93
f 93 466 95
f 95 621 96
f 466 621 95
f 467 96 621
f 469 96 467
f 96 469 99
f 472 622 470
f 470 622 469
f 469 622 99
f 622 472 101
f 472 103 101
f 473 103 472
f 473 474 103
f 103 474 623
f 475 623 474
f 477 624 475
f 475 624 623
f 624 477 106
f 477 625 106
f 106 625 108
f 625 478 108
f 480 626 479
f 479 626 478
f 478 626 108
f 626 480 111
f 480 627 111
f 482 628 481
f 481 628 627
f 627 628 111
f 628 482 629
f 484 629 482
f 486 116 484
f 484 116 629
f 486 487 116
f 116 487 118
f 666 631 409
f 631 411 409
f 632 411 631
f 632 673 411
f 413 673 632
f 633 413 632
f 634 413 633
f 635 637 633
f 633 637 634
f 638 635 636
f 635 638 637
f 638 636 691
f 685 640 641
f 639 640 685
f 682 641 640
f 643 679 695
f 691 644 638
f 691 685 644
f 639 685 691
f 642 682 640
f 642 679 682
f 695 679 642
f 643 678 679
f 645 678 643
f 645 646 678
f 645 675 646
f 647 675 645
f 647 648 675
f 696 648 647
f 649 651 696
f 696 651 648
f 650 651 649
f 652 225 488
f 488 225 222
f 653 654 652
f 655 654 653
f 652 654 225
f 653 228 655
f 656 228 653
f 231 229 656
f 656 229 228
f 658 231 657
f 657 231 656
f 659 658 657
f 659 392 658
f 659 395 392
f 660 395 659
f 395 660 396
f 660 397 396
f 661 397 660
f 661 662 397
f 663 399 661
f 661 399 662
f 401 399 663
f 663 688 401
f 664 402 688
f 688 402 401
f 665 404 664
f 664 404 402
f 406 404 665
f 406 665 666
f 409 630 666
f 666 630 406
f 650 674 668
f 651 650 668
f 651 668 669
f 648 651 669
f 638 667 670
f 670 637 638
f 637 670 671
f 634 637 671
f 413 671 672
f 634 671 413
f 673 413 672
f 672 412 673
f 674 412 672
f 412 674 650
f 650 410 412
f 675 648 669
f 675 669 676
f 646 675 676
f 646 676 677
f 678 646 677
f 678 677 680
f 679 678 680
f 679 680 681
f 682 679 681
f 682 681 683
f 683 641 682
f 684 641 683
f 685 641 684
f 644 684 686
f 644 685 684
f 686 667 638
f 644 686 638
f 671 667 686
f 671 686 684
f 671 670 667
f 676 680 677
f 672 684 683
f 672 671 684
f 674 672 683
f 668 674 683
f 668 683 681
f 668 676 669
f 668 681 680
f 668 680 676
f 657 201 203
f 656 201 657
f 200 201 656
f 657 203 659
f 203 205 659
f 205 207 659
f 659 207 660
f 207 208 660
f 660 210 661
f 208 210 660
f 210 212 661
f 212 687 661
f 661 687 663
f 663 687 216
f 216 688 663
f 216 218 688
f 688 218 664
f 218 220 664
f 664 220 665
f 689 665 220
f 666 665 689
f 666 689 223
f 631 223 224
f 666 223 631
f 632 224 690
f 631 224 632
f 632 690 226
f 632 226 633
f 226 227 633
f 633 230 635
f 227 230 633
f 230 232 635
f 635 232 636
f 391 636 232
f 393 691 391
f 391 691 636
f 393 394 691
f 691 394 639
f 640 692 693
f 394 692 639
f 639 692 640
f 693 694 640
f 642 694 398
f 640 694 642
f 398 695 642
f 643 695 400
f 400 695 398
f 643 400 645
f 645 400 403
f 403 405 645
f 645 405 647
f 647 407 696
f 405 407 647
f 408 696 407
f 649 696 408
f 408 410 649
f 410 650 649
f 652 697 195
f 488 697 652
f 652 195 653
f 195 197 653
f 197 198 653
f 653 198 656
f 198 200 656
