# Render LOD; unchanged CAD body-local coordinates in mm
v 97.9642525 64.3811526 92.9000000
v 98.0075159 64.3569853 92.9000000
v 98.0494572 64.3307612 92.9000000
v 98.0420099 64.3395688 92.8970046
v 98.0900764 64.3024068 92.9000000
v 98.1163723 64.2900660 92.8939681
v 98.1292265 64.2720691 92.9000000
v 98.1688908 64.2490771 92.8917174
v 98.2028258 64.2057375 92.9000000
v 98.3395743 64.0709590 92.8920366
v 98.5441358 63.3683395 92.8758386
v 98.4466184 63.8247153 92.8455975
v 98.2077517 62.6849316 92.8513774
v 97.6429061 62.4893681 92.9003931
v 96.9526569 62.6488246 92.9001389
v 97.3464292 62.3916198 92.8047765
v 96.5364661 63.1677115 92.9003761
v 96.5440697 62.8463876 92.7787427
v 96.3601056 63.6993993 92.7519025
v 96.3380174 63.5000367 88.3000076
v 96.3394864 63.4420792 88.3000076
v 96.3437467 63.3842686 88.3000076
v 96.3510185 63.3268253 88.3000076
v 96.3610814 63.2697492 88.3000076
v 96.3739356 63.2132609 88.3000076
v 96.3896544 63.1575071 88.3000076
v 96.4080909 63.1025613 88.3000076
v 96.4292452 63.0486439 88.3000076
v 96.4531172 62.9958284 88.3000076
v 96.4794866 62.9442616 88.3000076
v 96.5085003 62.8940905 88.3000076
v 96.5399379 62.8453886 88.3000076
v 96.5737260 62.7983761 88.3000076
v 96.6098646 62.7530532 88.3000076
v 96.6482067 62.7096401 88.3000076
v 96.6886789 62.6681370 88.3000076
v 96.7311344 62.6287641 88.3000076
v 96.7304642 62.6225505 88.3007689
v 96.7884916 62.5807645 88.5943391
v 96.8695921 62.5238676 88.3000076
v 96.9190255 62.4936768 88.3000076
v 96.9699280 62.4659835 88.3000076
v 97.0220792 62.4408612 88.3000076
v 97.0754790 62.4183100 88.3000076
v 97.1299072 62.3984766 88.3000076
v 97.1852903 62.3814346 88.3000076
v 97.2414079 62.3671105 88.3000076
v 97.2982600 62.3556512 88.3000076
v 97.3555529 62.3469833 88.3000076
v 97.4132129 62.3412536 88.3000076
v 97.1202615 62.3853199 88.6101934
v 97.4710200 62.3383888 88.3000076
v 97.5289739 62.3383888 88.3000076
v 97.5868543 62.3412536 88.3000076
v 97.6445144 62.3469833 88.3000076
v 97.7018072 62.3556512 88.3000076
v 97.7585859 62.3671105 88.3000076
v 97.8147035 62.3814346 88.3000076
v 97.8700866 62.3984766 88.3000076
v 97.9245148 62.4183100 88.3000076
v 97.9779146 62.4408612 88.3000076
v 98.0301393 62.4659835 88.3000076
v 98.0810417 62.4936768 88.3000076
v 98.1304752 62.5238676 88.3000076
v 97.8423279 62.3680025 88.6461540
v 98.1782927 62.5565559 88.3000076
v 98.2490713 62.6111526 88.3000076
v 98.3113883 62.6681370 88.3000076
v 98.3518606 62.7096401 88.3000076
v 98.4262678 62.7983761 88.3000076
v 98.4203190 62.7943302 88.5627903
v 98.3901293 62.7530532 88.3000076
v 98.4601293 62.8453886 88.3000076
v 98.4915670 62.8940905 88.3000076
v 98.5205072 62.9442616 88.3000076
v 98.5469500 62.9958284 88.3000076
v 98.5707486 63.0486439 88.3000076
v 98.5919763 63.1025613 88.3000076
v 98.6104129 63.1575071 88.3000076
v 98.4452025 62.7936259 88.6777984
v 98.6260582 63.2132609 88.3000076
v 98.5540453 62.9940475 88.3561178
v 98.6389858 63.2697492 88.3000076
v 98.6490488 63.3268253 88.3000076
v 98.6562471 63.3842686 88.3000076
v 98.6605808 63.4420792 88.3000076
v 98.6620499 63.5000367 88.3000076
v 98.6605808 63.5579208 88.3000076
v 98.6654515 63.4219496 88.3749406
v 98.6562471 63.6157314 88.3000076
v 98.6490488 63.6731747 88.3000076
v 98.6389858 63.7302508 88.3000076
v 98.6260582 63.7867391 88.3000076
v 98.6104129 63.8424929 88.3000076
v 98.5919763 63.8974387 88.3000076
v 98.5707486 63.9513561 88.3000076
v 98.5469500 64.0041716 88.3000076
v 98.6891106 63.5652055 88.7138164
v 98.5205072 64.0557384 88.3000076
v 98.6112723 63.8705401 88.3988694
v 98.4915670 64.1059095 88.3000076
v 98.4601293 64.1546114 88.3000076
v 98.4262678 64.2016239 88.3000076
v 98.3901293 64.2469468 88.3000076
v 98.3518606 64.2903599 88.3000076
v 98.3113883 64.3318630 88.3000076
v 98.2689329 64.3712359 88.3000076
v 98.3738286 64.2740730 88.4181748
v 98.2041783 64.4247733 88.3000078
v 98.2685610 64.3995061 88.6692901
v 98.1304752 64.4761324 88.3000076
v 98.0810417 64.5063232 88.3000076
v 98.0301393 64.5340165 88.3000076
v 97.9779146 64.5591388 88.3000076
v 98.3434277 64.3297912 88.7546102
v 97.9245148 64.5816900 88.3000076
v 97.8700866 64.6015234 88.3000076
v 97.8147035 64.6185654 88.3000076
v 97.7117479 64.6498156 88.6944327
v 97.7585859 64.6328895 88.3000076
v 97.7018072 64.6443488 88.3000076
v 97.6445144 64.6530167 88.3000076
v 97.5868543 64.6587464 88.3000076
v 97.5289739 64.6616112 88.3000076
v 97.4710200 64.6616112 88.3000076
v 97.4132129 64.6587464 88.3000076
v 97.3555529 64.6530167 88.3000076
v 97.2982600 64.6443488 88.3000076
v 97.0934385 64.6111091 88.7249700
v 97.2414079 64.6328895 88.3000076
v 97.1852903 64.6185654 88.3000076
v 97.1299072 64.6015234 88.3000076
v 97.0754790 64.5816900 88.3000076
v 97.0220792 64.5591388 88.3000076
v 97.5459810 64.6941228 88.7873071
v 96.9699280 64.5340165 88.3000076
v 96.9190255 64.5063232 88.3000076
v 96.8695921 64.4761324 88.3000076
v 96.8217011 64.4434441 88.3000076
v 96.6886789 64.3318630 88.3000076
v 96.6482067 64.2903599 88.3000076
v 96.6098646 64.2469468 88.3000076
v 96.5737260 64.2016239 88.3000076
v 96.5399379 64.1546114 88.3000076
v 96.5085003 64.1059095 88.3000076
v 96.7086520 64.3996656 88.7874630
v 96.4794866 64.0557384 88.3000076
v 96.4531172 64.0041716 88.3000076
v 96.4292452 63.9513561 88.3000076
v 96.4080909 63.8974387 88.3000076
v 96.3896544 63.8424929 88.3000076
v 96.3739356 63.7867391 88.3000076
v 96.3610814 63.7302508 88.3000076
v 96.3510185 63.6731747 88.3000076
v 96.3387266 63.8003554 88.8110683
v 96.3437467 63.6157314 88.3000076
v 96.4141696 63.9871201 88.5197164
v 96.3394864 63.5579208 88.3000076
v 96.3852906 63.1132365 88.8087591
v 96.3275272 63.3552176 88.8800544
v 97.3057548 62.3364154 88.8637761
v 97.0672282 62.4001396 88.9380357
v 97.8115044 62.3429229 88.9271501
v 98.3660883 62.7076269 88.9176815
v 98.1256686 62.5034641 88.9898905
v 98.6769245 63.3462901 88.9478553
v 98.6257190 63.1116810 89.0308435
v 98.6048023 63.9540031 89.0136361
v 98.1011880 64.5232849 89.0103217
v 98.2949857 64.3602826 89.0877505
v 96.9234783 64.5274906 89.0652589
v 96.4473967 64.0327600 89.0972613
v 96.5609597 64.2403523 89.1757520
v 96.3236986 63.4358687 89.2106956
v 96.7412016 62.6000324 89.1671082
v 96.5173255 62.8624206 89.2384949
v 96.9474382 62.4607016 89.2683085
v 97.3366104 62.3347682 89.1967260
v 98.0647105 62.4435987 89.2763439
v 98.4430045 62.7595663 89.2889090
v 98.6708184 63.3831468 89.2818870
v 98.6864942 63.5313968 89.3786532
v 98.4463773 64.1945414 89.4084367
v 97.8608545 64.6231995 89.3543822
v 97.8554598 64.6364563 89.4385619
v 96.9151279 64.5429424 89.4884393
v 96.3843996 63.8867527 89.5240262
v 96.3196803 63.3163972 89.5117869
v 97.0133335 62.4047758 89.5594824
v 97.5302402 62.3173122 89.5386225
v 98.5481555 62.9236645 89.6260578
v 97.9641321 62.3938044 89.6462990
v 98.6817400 63.6091177 89.6260017
v 98.6821127 63.5497217 89.7128217
v 98.4029055 64.2595598 89.7475797
v 97.7869009 64.6478856 89.7794845
v 97.0958656 64.6006114 89.7190041
v 96.5302442 64.1856965 89.7534918
v 96.9813977 64.5681291 89.8131255
v 96.3749542 63.9014160 89.8564064
v 96.5699718 62.7797000 89.8186030
v 96.4001858 63.0755221 89.8922070
v 96.8232257 62.5144975 89.8709286
v 97.4359979 62.3279230 89.8648831
v 98.1638970 62.5115211 89.8938839
v 98.6281302 63.1548615 89.9370922
v 98.6417005 63.1613443 90.0243230
v 98.6391367 63.8671162 90.0044120
v 98.1798035 64.4681550 89.9990246
v 98.2298488 64.4360456 90.0869827
v 97.4691254 64.6793193 90.0362525
v 96.7832972 64.4400248 90.0693209
v 97.2942793 64.6866099 90.1277751
v 96.4755318 64.1064241 90.1784292
v 96.3277709 63.3968766 90.1219946
v 96.3363140 63.2686118 90.2210201
v 96.6410413 62.6757952 90.1566589
v 97.3615654 62.3284428 90.1923475
v 96.8094608 62.5281402 90.2514422
v 97.5686489 62.3253457 90.2924307
v 98.6842143 63.6546177 90.3357840
v 98.5712270 62.9797371 90.3477421
v 98.5360025 64.0713220 90.3108974
v 98.4126113 64.2476093 90.4103976
v 96.5792123 64.2698619 90.4988146
v 96.4988156 62.8920028 90.4752342
v 96.3224823 63.3125527 90.5464153
v 96.9619696 62.4461643 90.5077774
v 96.8788046 62.4643538 90.5920975
v 97.8283846 62.3633092 90.6364356
v 98.4531485 62.7746914 90.6252497
v 98.6597185 63.2848921 90.6035474
v 98.5815389 64.0207038 90.6778427
v 98.6916960 63.5308494 90.7042966
v 97.6876952 64.6615616 90.6883771
v 97.9757036 64.5833321 90.7659631
v 97.2733383 64.6722526 90.7576647
v 96.8396761 64.4823713 90.8140630
v 96.4092293 63.9825761 90.8028590
v 96.3400109 63.2793294 90.7918537
v 96.6485886 62.6919857 90.8204443
v 97.1842188 62.3503872 90.8939599
v 96.8129454 62.5411744 90.9189108
v 98.0889025 62.4855879 90.8909853
v 98.5686371 62.9644732 90.9554183
v 98.0264029 62.4230794 90.9736015
v 98.6714304 63.5763044 90.9494929
v 98.4766973 64.1562954 90.9783930
v 98.6545046 63.7591836 91.0474060
v 97.8416025 64.6449938 91.0152396
v 98.2886461 64.3733369 91.0808062
v 97.0608199 64.5886138 91.0501774
v 97.5817470 64.6880292 91.1095506
v 96.5550810 64.2043693 91.0781126
v 96.8112445 64.4575489 91.1518927
v 96.3333211 63.7704033 91.1952693
v 96.6858336 62.6502712 91.1522111
v 96.5151076 62.8282504 91.2412210
v 97.2141953 62.3553022 91.2714921
v 98.4914632 62.8605865 91.2499087
v 97.9861746 62.4173318 91.3053238
v 98.6816417 63.6787907 91.2844624
v 98.5813673 63.0106803 91.3444910
v 98.6493333 63.7521105 91.3781282
v 98.2609670 64.4015272 91.3261324
v 98.2561100 64.4199936 91.4092853
v 97.1806680 64.6392972 91.3792854
v 96.5773984 64.2614188 91.4526128
v 96.3311087 63.7241680 91.4355682
v 96.4259844 63.0318365 91.4654106
v 96.3096986 63.4408715 91.5370230
v 96.9236609 62.4517820 91.5034997
v 96.6737179 62.6532127 91.5770774
v 97.3160259 62.3377743 91.6098556
v 98.6689631 63.3170947 91.6016218
v 98.6886695 63.4276083 91.7026658
v 97.9936529 64.5882178 91.6746351
v 98.4343398 64.2258880 91.7359805
v 97.8167554 64.6364764 91.7672158
v 97.2360947 64.6412067 91.7047631
v 96.5501939 64.2375740 91.7380827
v 97.0047644 64.5841990 91.8025279
v 96.3601550 63.8682656 91.8453116
v 97.2133329 62.3588111 91.8469554
v 97.0001140 62.4119563 91.9217710
v 98.0160114 62.4223310 91.8836559
v 97.9555163 62.3998259 91.9676462
v 98.5558839 62.9870810 91.9180671
v 98.4413629 62.8098881 91.9989825
v 98.6731001 63.7044935 91.9554279
v 98.6668675 63.3260385 92.0201532
v 98.5856047 63.9399384 92.0510145
v 98.1501682 64.5023642 91.9944671
v 98.2006133 64.4535009 92.0803967
v 97.4672590 64.6686108 92.0274997
v 96.9321998 64.5321063 92.0530707
v 97.3597646 64.6869133 92.1207665
v 96.6939907 64.3501177 92.1541137
v 96.3350665 63.3593047 92.1168416
v 96.5706977 62.7523574 92.1841808
v 96.3591192 63.2015944 92.2120034
v 97.0654468 62.4029903 92.1665239
v 97.1227636 62.3853993 92.2643721
v 97.8584041 62.3645321 92.2104917
v 97.6672488 62.3429733 92.2870068
v 98.5514248 62.9409194 92.2485571
v 98.2805376 62.6009560 92.3217175
v 98.6541481 63.7445576 92.2862425
v 98.3510049 64.3086221 92.3150746
v 98.6058195 63.9417093 92.3820716
v 97.6900852 64.6753919 92.3481598
v 98.0830937 64.5220822 92.4202046
v 96.7509638 64.4375963 92.3941096
v 96.3448590 63.7126048 92.4329961
v 96.4084038 63.9650966 92.5068972
v 98.3965196 64.2522357 88.3000076
v 98.1831405 64.4502021 88.3000076
v 98.4986184 64.1102435 88.3000076
v 98.0851551 64.5135220 88.3000076
v 98.5544422 64.0077710 88.3000076
v 98.6341380 63.7887959 88.3000076
v 97.7032028 64.6525025 88.3000076
v 98.6572755 63.6744235 88.3000076
v 98.6703500 63.5000367 88.3000076
v 98.6572755 63.3255765 88.3000076
v 97.2967910 64.6525025 88.3000076
v 98.6341380 63.2112041 88.3000076
v 98.5544422 62.9922290 88.3000076
v 96.9148387 64.5135220 88.3000076
v 98.4986184 62.8897565 88.3000076
v 96.8091464 64.4405767 88.3013839
v 98.3965196 62.7477643 88.3000076
v 96.7256255 64.3774798 88.3000076
v 98.2743683 62.6225202 88.3000076
v 96.6034742 64.2522357 88.3000076
v 96.5436309 64.1729286 88.2999191
v 98.1894145 62.5541602 88.2999956
v 96.5013754 64.1102435 88.3000076
v 96.4456251 64.0077710 88.3000076
v 97.7032028 62.3474975 88.3000076
v 96.3427918 63.6744235 88.3000076
v 96.3297173 63.5000367 88.3000076
v 96.3427918 63.3255765 88.3000076
v 96.3659293 63.2112041 88.3000076
v 96.4456251 62.9922290 88.3000076
v 96.9148387 62.4864780 88.3000076
v 96.5013754 62.8897565 88.3000076
v 96.8168533 62.5497979 88.3000076
v 96.5915914 62.7626041 88.3000100
v 96.4059693 63.0583909 92.4596493
v 96.3547912 63.2372444 92.5409879
v 96.9723025 62.4280344 92.4994936
v 96.6726229 62.6590259 92.5696393
v 97.8375667 62.3660673 92.5355957
v 97.3554586 62.3219654 92.6095149
v 98.4076830 62.7243014 92.6147934
v 98.0340823 62.4575261 92.6375024
v 98.6900464 63.3908425 92.6019648
v 98.4262630 64.2365034 92.6431119
v 98.6901337 63.5123064 92.6936856
v 98.3802487 64.2862527 92.7324835
v 97.1751298 64.6447396 92.7112986
v 97.7458052 64.4437379 92.9000000
v 97.7945041 64.4344824 92.9000000
v 97.8522377 64.4200848 92.9000000
v 97.9073269 64.4028224 92.9000000
v 97.7141176 64.4333200 92.8893506
v 97.9319335 64.3480235 92.8751522
v 98.1979686 64.1673703 92.8565400
v 96.9257612 62.7206790 92.7002950
v 98.2360383 64.1302015 92.5211285
v 98.4637204 63.5656763 92.4896858
v 97.2178090 62.5713899 92.3845713
v 96.5849086 63.7838072 92.3021835
v 97.5585781 62.5333036 92.0713804
v 96.8689276 62.7568675 92.0312010
v 98.3577845 63.0283928 92.7891782
v 97.6448993 62.5306451 92.7418526
v 96.5442371 63.2805078 92.6635928
v 96.6633985 64.3200644 92.7323057
v 96.6871406 64.0198113 92.6194134
v 97.1749829 64.4093710 92.5855103
v 97.7476804 64.4314469 92.5533831
v 97.8778371 64.6088801 92.6711416
v 98.3026719 62.9651266 92.4541015
v 97.8152072 62.5894063 92.4197617
v 96.5947102 63.1049243 92.3398276
v 96.9262292 64.3027086 92.2677440
v 97.6805009 64.4499162 92.2247420
v 98.2582585 64.1152191 92.1907544
v 98.4623557 63.4457041 92.1503886
v 98.2226857 62.8396496 92.1171635
v 96.5415910 63.3690502 91.9933073
v 97.1522874 64.4631023 92.9001089
v 96.5684808 63.8830075 92.9001862
v 97.9037344 64.5971383 92.7523525
v 96.9245217 64.5304051 92.4748086
v 97.5205028 64.6711821 92.4454443
v 98.6428484 63.2430279 92.3526959
v 96.3806927 63.8608436 92.1830286
v 96.4211071 63.0248451 91.8887208
v 96.7875640 64.1988474 91.9458695
v 97.5769867 64.4641125 91.8984687
v 98.4587354 63.3699019 91.8124105
v 98.1230664 62.7601154 91.4422471
v 96.5633050 63.7924739 91.3065039
v 98.4892708 63.5474640 91.1634668
v 98.1735705 62.8033779 91.1138842
v 96.5565145 63.2839909 91.0016728
v 96.6871612 64.0492025 90.9590206
v 97.3484746 64.4539496 90.9151865
v 98.0513797 64.3089585 90.8760757
v 98.2428895 64.1449024 91.8590356
v 98.1343935 62.7554232 91.7757795
v 97.8974174 62.3981258 91.6346795
v 97.3952021 62.5260217 91.7320558
v 96.6367378 63.0025627 91.6836007
v 96.5723455 63.7618168 91.6397638
v 96.9346609 64.3008375 91.6024651
v 96.9556693 64.5440272 91.4768574
v 97.6997872 64.4545171 91.5624834
v 98.4735914 63.3711785 91.4816511
v 97.4779819 62.5213696 91.4043151
v 96.7344420 62.8874847 91.3600484
v 97.1103251 64.3921258 91.2632355
v 97.6705708 62.5525269 91.0833671
v 96.3207026 63.2660323 90.8923411
v 98.4669109 63.5959214 90.8300027
v 98.1687744 62.7665481 90.7788058
v 96.5908146 63.1316253 90.6807300
v 98.1650032 62.7914618 90.4500284
v 97.4346503 62.5155387 90.4047832
v 96.7805875 62.8393827 90.0335381
v 97.9412662 64.3632709 89.8860461
v 98.0875126 62.7162064 89.7806750
v 96.7734272 64.1573810 89.6260092
v 97.2437444 62.5491476 90.7313956
v 97.0526241 64.3593518 90.6009145
v 97.3910276 64.6781682 90.4606764
v 97.7595306 64.4445647 90.5617975
v 98.3552748 63.9640377 90.5211540
v 98.4453773 63.3264331 90.4838810
v 96.7981948 62.8461149 90.3658059
v 96.6831505 64.0078387 90.2977228
v 97.1766909 64.4229668 90.2644552
v 98.0869726 64.3065581 90.2107421
v 98.4755454 63.3152068 90.1486123
v 98.0823580 62.4612370 89.9892584
v 97.9161124 62.6203393 90.0994042
v 97.2989423 62.5634803 90.0672795
v 97.2538982 62.3426900 89.9454774
v 97.1814642 64.4310236 89.9324958
v 98.3537674 63.9460778 89.8551016
v 98.4594969 63.4030943 89.8253958
v 97.1337381 62.5673941 89.7253077
v 96.5221002 63.3610290 89.6723057
v 97.5182106 64.4850347 89.5768704
v 98.4544569 63.6188568 89.5034389
v 98.3640189 63.0620186 89.4712953
v 98.0721058 62.7283898 89.1157953
v 96.8755521 62.7608440 89.0446343
v 96.7938083 64.1634424 88.9578572
v 96.7316713 64.1223220 88.6321989
v 97.4585778 64.4719406 88.5870057
v 98.4776834 63.4482230 88.5010282
v 98.2188261 64.1558152 89.5359726
v 97.9543496 62.6487391 89.4395942
v 97.5163244 62.3287975 89.2931792
v 97.1528036 62.5771504 89.3950035
v 96.5697569 63.2095743 89.3448752
v 97.0962717 64.4093931 89.2741644
v 97.2241792 64.6384777 89.1398139
v 97.9997946 64.3388128 89.2201484
v 98.4077607 63.8261691 89.1827503
v 98.4090133 63.1631985 89.1465389
v 98.2809007 64.0929923 88.8655908
v 98.4634547 63.4440003 88.8301347
v 97.7500826 62.5519697 88.7621038
v 97.0663935 62.6393670 88.7265763
v 96.4011728 63.0167821 88.5684763
v 96.5602670 63.2087583 88.6820587
v 96.8878136 64.4986480 88.4928131
v 97.4561469 64.6756610 88.4643913
v 98.0151025 64.5520857 88.4376354
v 98.2009940 64.1778870 88.5428990
v 98.2589286 62.9118630 88.4662985
v 97.8320600 64.6435218 89.6865222
v 98.4209565 64.2238603 89.6539088
v 98.1194570 62.5085214 89.5636973
v 96.4976986 62.8453439 89.5193556
v 96.5941805 63.8239045 89.3129025
v 96.4350491 64.0259975 89.4277782
v 97.0693512 64.6083542 89.3840634
v 98.5058885 64.1371607 89.3160159
v 97.5370933 62.5297270 89.0827205
v 96.5183669 63.4022733 89.0053857
v 96.3340431 63.2626852 89.1278933
v 97.6879388 64.6838038 89.0755691
v 97.5238653 64.4930546 88.9196351
v 98.2757930 62.9295878 88.7989325
v 96.6405044 62.6691167 88.8713285
v 98.6062775 63.8783889 88.6388328
v 98.6636817 63.3247446 88.6140359
v 97.5228218 62.3262865 90.8652107
v 96.5997720 63.8601725 90.6392465
v 96.6977286 64.3575441 90.7375131
v 98.2176296 64.4258179 90.6618910
v 97.7818160 62.3430672 90.5455223
v 96.5355948 63.3556901 90.3349711
v 96.3141694 63.5950026 90.4456582
v 96.6502869 64.3180810 90.4079897
v 97.2200738 64.6399895 90.3794827
v 97.9407422 64.6107229 90.3611445
v 98.5484614 62.9521047 90.2547705
v 98.0486195 62.4390588 90.2563666
v 96.5184833 63.7146478 89.9786667
v 96.4221483 63.9562727 90.0950793
v 96.3227722 63.4265349 89.7840538
v 96.4398161 64.0239462 92.0842679
v 96.5993264 62.7316293 91.8080848
v 96.3269201 63.4046197 91.7800361
v 98.2585573 64.0945684 91.5222952
v 98.5583124 64.0142313 91.6350190
v 98.3469110 62.6542334 91.6015891
v 97.7251724 62.3451834 91.5380014
v 97.9945879 64.3598653 91.2068054
v 97.6515002 64.6842172 91.3942060
v 98.0633962 62.4756274 91.2208624
v 97.0190470 62.6426265 91.0462272
v 97.3795099 62.3152648 91.1869302
v 96.3077421 63.3882902 91.1181522
v 96.0292011 63.5551932 87.9999739
v 95.9947404 63.8045082 87.9341600
v 96.3260044 64.0717672 88.1651156
v 96.3685815 63.7994025 88.2999434
v 95.0678786 63.3384518 87.0328285
v 96.6966454 64.7440261 87.9894678
v 96.3598383 64.5384849 87.9291219
v 95.2733148 64.5050731 87.0243360
v 95.9131775 65.3412900 87.0243617
v 97.2167141 64.8192324 88.1221687
v 96.8795092 64.8640230 87.9732726
v 97.4592518 64.9206072 88.0501831
v 96.5926921 65.7628359 87.0271970
v 98.0216000 64.8125965 88.0587692
v 97.7196707 64.7429578 88.2089323
v 98.1729130 64.5503453 88.2233615
v 98.2687905 64.3825028 88.2999957
v 98.4303268 64.2097734 88.2999712
v 98.7318844 64.0382813 88.1270346
v 98.6176002 64.5483915 87.9376041
v 99.2789000 65.1581073 87.0272707
v 98.6864280 63.7373068 88.2606377
v 98.8222214 64.3094198 87.9196889
v 99.7592939 64.3945537 87.0158145
v 98.7706680 63.5001999 88.2001938
v 98.9641562 63.2793014 87.9896838
v 99.9080363 63.8560931 87.0295041
v 98.7955336 63.1225572 88.1216699
v 98.4300520 62.7901795 88.2999722
v 99.8523702 62.8780522 87.0267248
v 98.5676665 62.9197460 88.2555224
v 98.5697417 62.3943445 87.9328553
v 98.0143183 62.1743360 88.0493770
v 98.8243717 61.4492600 87.0189398
v 98.0850249 62.4879035 88.2999124
v 97.4667053 62.0724002 88.0434791
v 97.7170968 62.2526953 88.2049583
v 98.3020480 61.2140733 87.0621577
v 97.0532822 62.1524795 88.0515921
v 97.2973590 62.3487271 88.2999130
v 97.5653855 61.0710395 87.0202176
v 96.8480576 62.3787838 88.1741610
v 96.5488618 61.2535997 87.0300916
v 96.4663756 62.4402788 87.9900175
v 96.3371171 62.7908352 88.1093077
v 96.2159469 63.3021252 88.1719749
v 95.9722058 62.9515047 87.8486439
v 95.3575618 62.3456108 87.0259122
v 97.4708435 65.9333233 87.0333301
v 98.4549512 65.7393161 87.0289674
v 99.4444270 62.0372375 87.0227210
v 95.9015416 61.6700608 87.0235659
v 98.0187542 64.3984885 87.0000000
v 98.5375481 63.5000367 87.0000000
v 96.9812397 64.3984885 87.0000000
v 98.0187542 62.6015115 87.0000000
v 96.4625191 63.5000367 87.0000000
v 96.9812397 62.6015115 87.0000000
v 98.0187542 64.3984885 87.9959823
v 98.5375481 63.5000367 87.9959823
v 96.9812397 64.3984885 87.9959823
v 96.4625191 63.5000367 87.9959823
v 96.9812397 62.6015115 87.9959823
v 98.0187542 62.6015115 87.9959823
f 4 1 2
f 3 4 2
f 5 4 3
f 6 4 5
f 7 6 5
f 8 7 8
f 8 6 7
f 9 8 8
f 10 8 9
f 12 10 11
f 16 13 14
f 16 14 15
f 18 16 15
f 18 15 17
f 19 18 17
f 480 20 21
f 480 21 22
f 480 22 23
f 480 23 24
f 480 24 25
f 480 25 26
f 480 26 27
f 480 27 28
f 480 28 29
f 480 29 30
f 480 30 31
f 480 31 32
f 480 32 33
f 480 33 34
f 480 34 35
f 480 35 36
f 480 36 37
f 39 37 38
f 39 480 37
f 51 38 40
f 51 40 41
f 51 39 38
f 51 41 42
f 51 42 43
f 51 43 44
f 51 44 45
f 51 45 46
f 51 46 47
f 51 47 48
f 51 48 49
f 51 49 50
f 51 50 52
f 65 51 52
f 65 52 53
f 65 53 54
f 65 54 55
f 65 55 56
f 65 56 57
f 65 57 58
f 65 58 59
f 65 59 60
f 65 60 61
f 65 61 62
f 65 62 63
f 65 63 64
f 65 64 66
f 80 65 66
f 80 66 67
f 80 67 68
f 80 68 69
f 70 71 72
f 80 69 72
f 71 80 72
f 73 82 70
f 74 82 73
f 82 74 75
f 82 75 76
f 77 82 76
f 78 82 77
f 503 80 71
f 79 82 78
f 81 82 79
f 98 80 503
f 83 89 81
f 84 89 83
f 89 84 85
f 89 85 86
f 89 86 87
f 89 87 88
f 89 88 90
f 100 90 91
f 100 89 90
f 100 91 92
f 100 92 93
f 94 100 93
f 95 100 94
f 96 100 95
f 97 100 96
f 99 100 97
f 115 98 502
f 101 100 99
f 108 100 101
f 108 101 102
f 110 115 502
f 108 102 103
f 108 103 104
f 108 104 105
f 106 108 105
f 107 108 106
f 109 108 107
f 484 108 109
f 111 484 109
f 484 111 112
f 484 112 113
f 484 113 114
f 484 114 116
f 135 115 110
f 484 116 117
f 118 484 117
f 119 135 110
f 120 484 118
f 483 484 120
f 121 483 120
f 122 483 121
f 483 122 123
f 483 123 124
f 483 124 125
f 483 125 126
f 483 126 127
f 483 127 128
f 130 483 128
f 131 483 130
f 132 483 131
f 482 132 133
f 482 483 132
f 482 133 134
f 482 134 136
f 146 135 129
f 482 136 137
f 482 137 138
f 482 138 139
f 331 482 139
f 140 482 331
f 157 140 141
f 157 482 140
f 157 141 142
f 157 142 143
f 157 143 144
f 157 144 145
f 157 145 147
f 157 147 148
f 149 157 148
f 150 157 149
f 157 150 151
f 157 151 152
f 157 152 153
f 157 153 154
f 157 154 156
f 157 156 158
f 480 158 20
f 480 157 158
f 89 82 81
f 82 71 70
f 503 502 98
f 119 129 135
f 159 160 155
f 501 160 159
f 162 501 161
f 163 162 161
f 165 163 164
f 167 165 164
f 167 164 166
f 168 167 166
f 170 168 169
f 498 170 169
f 472 498 171
f 173 472 171
f 172 173 171
f 174 173 172
f 497 174 172
f 176 174 497
f 176 497 175
f 177 176 175
f 177 175 178
f 468 177 178
f 468 178 179
f 182 180 181
f 182 181 494
f 183 182 494
f 185 183 494
f 185 494 184
f 185 184 493
f 186 185 493
f 492 186 493
f 187 186 492
f 188 187 492
f 192 189 190
f 192 190 489
f 192 489 191
f 194 191 193
f 195 194 193
f 195 193 488
f 195 488 487
f 196 195 487
f 199 487 197
f 199 196 487
f 198 199 197
f 200 199 198
f 200 198 518
f 202 200 518
f 202 518 201
f 203 202 201
f 451 203 204
f 448 451 204
f 448 204 205
f 207 448 205
f 207 205 206
f 207 206 208
f 210 208 209
f 213 210 209
f 213 209 211
f 213 211 212
f 214 213 212
f 517 214 212
f 214 517 215
f 216 214 215
f 216 215 217
f 219 216 217
f 219 217 218
f 220 219 218
f 220 218 515
f 222 515 514
f 222 514 221
f 224 221 223
f 224 223 513
f 439 513 512
f 225 439 512
f 225 512 511
f 225 511 510
f 227 225 510
f 226 227 510
f 229 227 226
f 229 226 228
f 229 228 508
f 230 229 508
f 231 230 508
f 234 231 232
f 234 232 233
f 236 233 507
f 236 507 235
f 237 236 235
f 238 237 506
f 239 238 506
f 427 239 240
f 241 427 240
f 243 427 241
f 242 243 241
f 246 242 504
f 244 246 504
f 245 246 244
f 249 245 247
f 248 249 247
f 251 249 248
f 250 251 248
f 253 251 250
f 252 253 250
f 255 253 252
f 254 255 252
f 256 255 254
f 531 256 254
f 258 256 531
f 258 531 257
f 259 258 257
f 259 257 530
f 261 259 530
f 261 530 528
f 261 528 260
f 263 261 260
f 263 260 262
f 264 263 262
f 266 264 262
f 266 262 265
f 266 265 527
f 420 527 267
f 420 267 268
f 271 268 269
f 270 271 269
f 273 271 270
f 272 273 270
f 274 273 272
f 274 272 525
f 415 274 525
f 415 525 524
f 276 524 275
f 276 275 523
f 278 276 523
f 278 523 277
f 279 278 277
f 279 277 280
f 282 279 280
f 282 280 281
f 283 282 281
f 521 283 281
f 401 283 521
f 520 401 521
f 285 401 520
f 285 520 284
f 287 284 286
f 287 285 284
f 289 287 286
f 289 286 288
f 291 289 288
f 291 288 290
f 292 291 290
f 292 290 293
f 294 292 293
f 297 294 293
f 297 293 295
f 297 295 296
f 298 297 296
f 519 298 296
f 400 298 519
f 400 519 299
f 301 400 299
f 301 299 300
f 303 300 302
f 303 302 304
f 305 303 304
f 307 305 304
f 307 304 306
f 399 307 306
f 399 306 308
f 310 399 308
f 310 308 309
f 312 310 309
f 312 309 311
f 398 312 311
f 397 311 313
f 397 398 311
f 315 397 313
f 314 315 313
f 351 315 314
f 106 105 106
f 105 105 316
f 106 105 105
f 106 107 106
f 548 107 106
f 105 104 316
f 548 109 107
f 104 103 316
f 316 103 549
f 103 102 549
f 317 109 548
f 103 102 102
f 102 318 102
f 111 111 317
f 317 111 109
f 102 101 318
f 101 99 318
f 111 112 111
f 319 112 111
f 101 99 99
f 113 113 319
f 319 113 112
f 99 97 99
f 99 97 320
f 113 114 113
f 114 114 113
f 97 96 320
f 320 96 96
f 114 116 114
f 116 116 114
f 96 95 95
f 96 95 96
f 116 117 116
f 117 117 116
f 95 94 94
f 95 94 95
f 117 118 117
f 118 118 117
f 94 93 94
f 94 93 321
f 118 120 118
f 120 120 118
f 93 92 321
f 321 92 92
f 120 121 120
f 322 121 120
f 92 91 92
f 92 91 323
f 322 122 121
f 122 122 322
f 91 90 323
f 323 90 90
f 122 123 122
f 123 123 122
f 90 88 90
f 90 88 88
f 123 124 123
f 124 124 123
f 88 87 88
f 88 87 324
f 124 125 124
f 125 125 124
f 87 86 324
f 324 86 86
f 125 126 125
f 126 126 125
f 86 85 86
f 86 85 85
f 126 127 126
f 127 127 126
f 85 84 85
f 85 84 325
f 127 326 127
f 326 128 127
f 84 83 325
f 325 83 83
f 326 130 128
f 130 130 326
f 83 327 83
f 83 81 327
f 130 131 130
f 131 131 130
f 327 79 79
f 81 79 327
f 132 132 131
f 131 132 131
f 79 78 79
f 79 78 78
f 132 133 132
f 133 133 132
f 78 77 78
f 78 77 77
f 134 134 133
f 133 134 133
f 77 76 328
f 77 76 77
f 136 136 134
f 134 136 134
f 76 75 328
f 328 75 75
f 329 137 136
f 136 137 136
f 75 74 75
f 75 74 330
f 138 138 329
f 329 138 137
f 74 73 330
f 330 73 73
f 331 139 138
f 138 139 138
f 73 70 560
f 73 70 73
f 70 332 560
f 70 72 332
f 332 69 69
f 72 69 332
f 140 140 333
f 333 140 331
f 68 68 69
f 69 68 69
f 140 141 140
f 140 141 141
f 68 334 68
f 67 334 68
f 141 335 141
f 141 335 142
f 67 337 334
f 142 336 143
f 335 336 142
f 67 66 337
f 143 144 144
f 336 144 143
f 66 64 337
f 64 64 66
f 144 338 144
f 144 338 145
f 64 63 64
f 63 566 64
f 145 147 147
f 338 147 145
f 63 62 566
f 62 62 63
f 147 339 148
f 147 339 147
f 62 61 62
f 61 61 62
f 339 149 148
f 339 149 149
f 61 60 61
f 60 60 61
f 149 150 150
f 149 150 149
f 60 59 60
f 59 59 60
f 150 151 150
f 150 151 151
f 59 58 59
f 58 58 59
f 151 152 151
f 151 535 152
f 58 57 58
f 57 57 58
f 152 153 153
f 535 153 152
f 56 340 57
f 57 340 57
f 153 154 153
f 153 341 154
f 56 55 340
f 55 55 340
f 341 156 154
f 341 156 156
f 54 54 55
f 55 54 55
f 156 158 156
f 156 158 158
f 54 53 54
f 53 53 54
f 158 342 158
f 158 342 20
f 53 52 53
f 52 52 53
f 20 21 21
f 342 21 20
f 52 50 52
f 50 50 52
f 21 22 22
f 21 22 21
f 50 49 50
f 49 49 50
f 22 343 22
f 22 343 23
f 49 48 49
f 48 571 49
f 343 24 23
f 343 24 24
f 47 47 48
f 48 47 571
f 24 344 25
f 24 344 24
f 46 46 47
f 47 46 47
f 25 26 26
f 344 26 25
f 45 45 46
f 46 45 46
f 26 27 27
f 26 27 26
f 45 44 45
f 44 44 45
f 27 28 28
f 27 28 27
f 43 43 44
f 44 43 44
f 28 345 28
f 28 345 29
f 42 42 43
f 43 42 43
f 345 30 29
f 345 30 30
f 41 346 42
f 42 346 42
f 30 347 30
f 30 347 31
f 40 40 41
f 41 40 346
f 347 32 31
f 31 32 32
f 32 33 32
f 40 348 40
f 38 348 40
f 32 349 33
f 33 349 34
f 34 35 35
f 349 35 34
f 35 36 36
f 36 36 37
f 37 36 38
f 35 36 35
f 350 351 314
f 353 351 350
f 352 353 350
f 355 353 352
f 354 355 352
f 357 355 354
f 356 357 354
f 360 356 358
f 359 360 358
f 361 360 359
f 361 359 384
f 396 361 384
f 396 384 362
f 363 364 367
f 364 365 367
f 366 367 365
f 1 368 1
f 1 368 366
f 366 368 367
f 4 369 1
f 1 369 368
f 6 369 4
f 8 369 6
f 10 369 8
f 12 369 10
f 13 377 11
f 16 378 13
f 16 370 378
f 19 379 18
f 350 387 352
f 313 374 314
f 309 390 311
f 306 391 308
f 519 393 299
f 12 11 377
f 377 13 378
f 370 16 18
f 18 379 370
f 379 19 381
f 19 380 381
f 381 380 382
f 382 380 362
f 383 382 362
f 362 384 383
f 371 384 359
f 383 384 371
f 358 372 359
f 359 372 371
f 372 358 385
f 356 385 358
f 386 356 354
f 385 356 386
f 373 386 354
f 354 352 373
f 373 352 387
f 314 387 350
f 374 387 314
f 313 388 374
f 388 311 389
f 313 311 388
f 390 389 311
f 308 390 309
f 390 308 391
f 392 391 306
f 304 392 306
f 392 304 375
f 304 302 375
f 302 376 375
f 300 376 302
f 299 393 300
f 300 393 376
f 394 395 17
f 394 17 15
f 394 15 14
f 394 14 13
f 394 13 11
f 10 394 11
f 2 1 1
f 2 1 366
f 3 366 365
f 3 2 366
f 5 365 364
f 5 3 365
f 7 364 363
f 7 5 364
f 8 363 367
f 8 7 363
f 9 367 394
f 9 8 367
f 9 394 10
f 19 17 395
f 395 380 19
f 380 395 394
f 394 362 380
f 394 396 362
f 367 396 394
f 368 396 367
f 369 396 368
f 377 360 12
f 377 356 360
f 378 357 377
f 379 351 353
f 383 398 382
f 372 310 371
f 387 300 373
f 389 297 388
f 392 291 391
f 375 287 392
f 361 396 369
f 369 12 361
f 361 12 360
f 357 356 377
f 357 378 355
f 353 355 370
f 370 355 378
f 370 379 353
f 351 379 315
f 381 315 379
f 381 397 315
f 382 397 381
f 382 398 397
f 398 383 312
f 312 383 371
f 312 371 310
f 372 399 310
f 385 399 372
f 307 399 385
f 386 307 385
f 305 307 386
f 373 305 386
f 303 305 373
f 300 303 373
f 300 387 301
f 387 400 301
f 374 400 387
f 400 374 388
f 400 388 298
f 298 388 297
f 297 389 294
f 389 390 294
f 294 390 292
f 390 391 292
f 292 391 291
f 291 392 289
f 287 289 392
f 287 375 285
f 376 285 375
f 376 401 285
f 376 393 401
f 401 393 283
f 402 283 393
f 421 266 527
f 422 263 264
f 425 253 255
f 407 249 251
f 529 243 242
f 410 427 409
f 410 238 239
f 412 236 411
f 429 234 428
f 283 402 282
f 282 402 403
f 282 403 279
f 403 413 279
f 279 413 278
f 404 276 413
f 413 276 278
f 404 414 276
f 276 414 524
f 414 415 524
f 414 416 415
f 415 416 274
f 273 274 416
f 416 417 273
f 273 417 271
f 417 418 271
f 271 418 268
f 419 268 418
f 419 420 268
f 419 421 420
f 420 421 527
f 522 266 421
f 266 522 264
f 422 264 522
f 263 422 405
f 263 405 261
f 405 423 261
f 261 423 259
f 423 424 259
f 259 424 258
f 256 258 406
f 406 258 424
f 255 256 406
f 406 425 255
f 526 253 425
f 253 526 251
f 251 526 407
f 249 407 245
f 245 407 408
f 245 408 246
f 408 426 246
f 246 426 242
f 426 529 242
f 409 427 529
f 529 427 243
f 239 427 410
f 411 238 410
f 238 411 237
f 236 237 411
f 236 412 233
f 234 233 428
f 428 233 412
f 429 231 234
f 432 220 515
f 443 216 219
f 446 210 213
f 433 202 203
f 455 189 192
f 231 429 230
f 429 437 230
f 230 437 229
f 229 437 430
f 229 430 227
f 430 505 227
f 227 505 225
f 438 225 505
f 438 439 225
f 438 440 439
f 439 440 513
f 513 440 224
f 440 441 224
f 441 221 224
f 221 442 222
f 441 442 221
f 442 431 222
f 222 431 515
f 432 515 431
f 220 432 219
f 443 219 432
f 443 509 216
f 214 216 509
f 509 444 214
f 444 445 214
f 214 445 213
f 445 446 213
f 210 446 208
f 447 208 446
f 208 447 207
f 449 448 447
f 447 448 207
f 449 451 448
f 450 451 449
f 450 433 451
f 451 433 203
f 433 516 202
f 202 516 200
f 200 452 199
f 516 452 200
f 199 452 196
f 196 452 434
f 434 195 196
f 434 453 195
f 195 453 194
f 453 454 194
f 435 191 454
f 454 191 194
f 191 435 192
f 435 455 192
f 189 455 490
f 456 490 455
f 456 188 490
f 187 188 456
f 187 456 436
f 436 186 187
f 466 183 185
f 459 179 180
f 469 176 177
f 471 472 173
f 461 501 162
f 477 80 98
f 463 157 481
f 485 100 108
f 465 82 89
f 486 71 82
f 186 436 457
f 186 457 185
f 457 466 185
f 182 466 458
f 183 466 182
f 182 458 459
f 182 459 180
f 459 467 179
f 467 468 179
f 469 468 467
f 468 469 177
f 470 176 469
f 176 470 174
f 174 491 173
f 470 491 174
f 491 471 173
f 498 472 471
f 471 473 498
f 498 473 170
f 473 474 170
f 170 474 168
f 475 167 474
f 474 167 168
f 475 460 167
f 167 460 165
f 165 460 495
f 495 163 165
f 163 495 162
f 461 162 495
f 501 496 160
f 461 496 501
f 160 496 155
f 462 155 496
f 155 462 146
f 462 499 146
f 146 499 135
f 115 499 476
f 135 499 115
f 98 476 477
f 115 476 98
f 477 500 80
f 478 65 500
f 500 65 80
f 51 65 478
f 479 51 478
f 39 51 479
f 481 480 479
f 479 480 39
f 480 481 157
f 463 482 157
f 464 482 463
f 464 483 482
f 485 484 464
f 464 484 483
f 484 485 108
f 100 485 465
f 89 100 465
f 82 465 486
f 488 466 487
f 494 473 184
f 180 475 181
f 175 461 178
f 497 461 175
f 171 462 172
f 166 477 168
f 159 481 501
f 155 463 481
f 198 197 436
f 436 197 457
f 197 487 457
f 457 487 466
f 458 466 193
f 193 466 488
f 458 193 459
f 193 191 459
f 459 489 467
f 191 489 459
f 467 489 190
f 467 190 469
f 189 469 190
f 469 189 490
f 469 490 470
f 470 490 188
f 492 491 188
f 188 491 470
f 471 492 493
f 491 492 471
f 471 493 184
f 471 184 473
f 473 494 474
f 474 494 181
f 474 181 475
f 475 180 460
f 180 179 460
f 460 179 495
f 178 495 179
f 495 178 461
f 497 496 461
f 496 497 172
f 496 172 462
f 462 171 499
f 498 499 171
f 169 499 498
f 476 499 169
f 169 168 476
f 477 476 168
f 164 500 166
f 166 500 477
f 163 478 164
f 164 478 500
f 163 161 478
f 478 161 479
f 501 479 161
f 479 501 481
f 159 155 481
f 146 463 155
f 463 146 129
f 463 129 464
f 129 119 464
f 485 119 110
f 464 119 485
f 110 502 485
f 485 502 465
f 465 502 503
f 465 503 486
f 486 503 71
f 504 429 244
f 240 430 241
f 506 505 239
f 233 441 507
f 508 431 231
f 510 509 226
f 513 445 512
f 215 433 217
f 211 452 212
f 206 454 208
f 203 455 204
f 245 244 429
f 429 504 437
f 437 504 242
f 242 241 437
f 437 241 430
f 239 505 240
f 240 505 430
f 505 506 438
f 438 506 237
f 237 235 438
f 438 235 440
f 235 507 440
f 440 507 441
f 233 232 441
f 441 232 442
f 442 231 431
f 232 231 442
f 432 431 508
f 432 508 228
f 432 228 443
f 228 226 443
f 226 509 443
f 444 510 511
f 509 510 444
f 444 511 445
f 512 445 511
f 445 513 446
f 446 513 223
f 446 223 447
f 223 221 447
f 221 514 447
f 449 514 515
f 447 514 449
f 449 515 218
f 449 218 450
f 450 217 433
f 218 217 450
f 215 516 433
f 215 517 516
f 212 516 517
f 516 212 452
f 452 211 434
f 211 209 434
f 434 209 453
f 453 209 208
f 453 208 454
f 454 206 435
f 206 205 435
f 205 204 435
f 435 204 455
f 203 201 455
f 455 201 456
f 201 518 456
f 456 518 436
f 436 518 198
f 519 402 393
f 277 421 280
f 270 424 272
f 267 425 268
f 262 407 265
f 260 407 262
f 531 410 409
f 250 411 252
f 250 412 411
f 245 428 247
f 245 429 428
f 402 519 296
f 403 296 295
f 402 296 403
f 295 293 403
f 403 293 413
f 290 413 293
f 413 290 404
f 290 288 404
f 404 288 414
f 288 286 414
f 414 286 416
f 286 284 416
f 284 520 416
f 416 520 417
f 417 520 521
f 418 521 281
f 417 521 418
f 281 419 418
f 281 280 419
f 419 280 421
f 277 522 421
f 277 523 522
f 522 523 422
f 275 422 523
f 524 422 275
f 405 422 524
f 405 524 525
f 405 525 423
f 423 525 272
f 423 272 424
f 406 270 269
f 424 270 406
f 268 406 269
f 406 268 425
f 267 526 425
f 527 526 267
f 526 527 265
f 407 526 265
f 407 260 408
f 260 528 408
f 426 528 530
f 408 528 426
f 530 529 426
f 529 530 257
f 529 257 409
f 409 257 531
f 410 531 254
f 410 252 411
f 254 252 410
f 250 248 412
f 412 248 428
f 248 247 428
f 535 151 150
f 534 535 150
f 532 342 158
f 534 149 339
f 534 150 149
f 534 147 338
f 534 339 147
f 336 338 144
f 336 534 338
f 533 539 536
f 533 536 532
f 538 335 141
f 538 336 335
f 539 533 535
f 538 140 333
f 538 141 140
f 534 539 535
f 331 538 333
f 537 138 329
f 537 331 138
f 539 534 336
f 542 136 134
f 542 329 136
f 542 537 329
f 540 538 331
f 538 539 336
f 538 540 539
f 542 133 132
f 542 134 133
f 537 540 331
f 541 131 130
f 541 132 131
f 541 542 132
f 541 326 127
f 541 130 326
f 544 540 537
f 543 126 125
f 543 127 126
f 543 541 127
f 542 544 537
f 543 124 123
f 543 125 124
f 546 122 322
f 546 123 122
f 546 543 123
f 541 544 542
f 546 120 118
f 546 322 120
f 580 544 541
f 545 117 116
f 545 118 117
f 545 546 118
f 543 580 541
f 545 114 113
f 545 116 114
f 580 543 546
f 547 319 111
f 547 113 319
f 547 545 113
f 547 317 548
f 547 111 317
f 546 581 580
f 581 546 545
f 551 105 316
f 551 106 105
f 551 548 106
f 549 551 316
f 581 545 547
f 554 318 99
f 554 102 318
f 554 549 102
f 547 552 581
f 550 320 96
f 550 99 320
f 550 554 99
f 552 547 548
f 550 95 94
f 550 96 95
f 551 552 548
f 553 321 92
f 553 94 321
f 553 550 94
f 552 551 549
f 553 323 90
f 553 92 323
f 554 552 549
f 554 555 552
f 556 90 88
f 556 553 90
f 556 88 324
f 555 554 550
f 556 86 85
f 556 324 86
f 550 558 555
f 557 556 85
f 557 325 83
f 557 85 325
f 558 550 553
f 559 557 83
f 559 327 79
f 559 83 327
f 559 78 77
f 559 79 78
f 556 558 553
f 562 559 77
f 562 328 75
f 562 77 328
f 556 561 558
f 562 330 73
f 562 75 330
f 561 556 557
f 560 562 73
f 559 561 557
f 563 560 332
f 563 69 68
f 563 332 69
f 563 334 337
f 563 68 334
f 582 562 560
f 562 582 561
f 562 561 559
f 563 582 560
f 566 337 64
f 564 566 62
f 564 61 60
f 564 62 61
f 563 565 582
f 564 59 58
f 564 60 59
f 568 564 58
f 568 57 340
f 568 58 57
f 565 563 337
f 568 55 54
f 568 340 55
f 566 569 565
f 566 565 337
f 567 568 54
f 567 53 52
f 567 54 53
f 569 566 564
f 567 50 49
f 567 52 50
f 571 567 49
f 569 564 568
f 570 46 45
f 570 47 46
f 570 571 47
f 568 572 569
f 570 44 43
f 570 45 44
f 567 572 568
f 573 42 346
f 573 43 42
f 573 570 43
f 573 40 348
f 573 346 40
f 571 572 567
f 571 574 572
f 583 573 348
f 583 348 38
f 570 574 571
f 575 583 38
f 575 36 35
f 575 38 36
f 574 570 573
f 349 575 35
f 576 32 347
f 576 349 32
f 574 573 583
f 576 30 345
f 576 347 30
f 578 28 27
f 578 345 28
f 578 576 345
f 578 26 344
f 578 27 26
f 349 583 575
f 349 579 583
f 577 578 344
f 577 24 343
f 577 344 24
f 579 349 576
f 577 22 21
f 577 343 22
f 577 21 532
f 579 576 578
f 577 532 536
f 578 536 579
f 536 578 577
f 532 21 342
f 532 156 341
f 532 158 156
f 533 153 535
f 533 341 153
f 533 532 341
f 572 565 569
f 584 580 581
f 584 581 552
f 584 552 555
f 585 555 558
f 585 558 561
f 585 584 555
f 582 585 561
f 586 540 544
f 586 580 584
f 586 544 580
f 587 585 582
f 539 540 586
f 565 587 582
f 588 539 586
f 572 587 565
f 536 539 588
f 572 589 587
f 574 589 572
f 579 536 588
f 579 588 589
f 583 589 574
f 583 579 589
f 584 585 590
f 590 585 591
f 586 584 592
f 592 584 590
f 588 586 593
f 593 586 592
f 589 588 594
f 594 588 593
f 587 589 595
f 595 589 594
f 585 587 591
f 591 587 595
f 593 591 595
f 593 595 594
f 592 590 591
f 592 591 593
