# Render LOD; unchanged CAD body-local coordinates in mm
v 31.5129153 165.1914788 114.7534637
v 31.4398822 165.3265507 114.6249943
v 31.5021533 165.3242315 114.6249943
v 31.5645402 165.3249272 114.6249943
v 32.6621132 165.4315498 114.9866892
v 31.6266953 165.3288699 114.6249943
v 31.9155483 165.3672269 114.6360673
v 32.3609505 165.3269526 114.8774846
v 32.2845987 165.5437671 114.6556301
v 32.9942350 165.8628028 114.9999110
v 32.7799117 166.1800952 114.6919062
v 33.1502352 166.5263734 114.9999706
v 33.0755302 167.0582741 114.9999721
v 32.8602978 166.6382331 114.7114727
v 32.7672042 167.1303330 114.7331095
v 32.7215785 167.6866437 114.9998845
v 32.5306440 167.5128184 114.7517477
v 30.7010289 167.5334642 111.6493350
v 31.1480177 167.7765638 111.5468671
v 31.5310568 167.8278418 111.5228488
v 31.1871061 167.7890970 111.6092512
v 32.0024941 167.7391954 111.4885232
v 31.7237506 167.8187068 111.5710056
v 32.4138515 167.4530761 111.4521706
v 32.1681089 167.6482504 111.5405991
v 32.6449438 167.1263522 111.4238082
v 32.5407749 167.3134842 111.5042480
v 32.7821515 166.6053356 111.3853730
v 32.7767936 166.7001835 111.4597979
v 32.6111601 165.9336013 111.3355304
v 32.6715215 166.0628546 111.4115098
v 32.3509873 165.6423082 111.3075120
v 32.3113287 165.6083320 111.3037034
v 32.2700466 165.5758634 111.2999680
v 31.9771929 165.3981352 111.2999675
v 31.8451825 165.3606456 111.3285264
v 31.6391031 165.3300295 111.2999680
v 31.5844855 165.3258549 111.3097093
v 31.5158366 165.3241155 111.3047288
v 31.4522901 165.3258549 111.3000412
v 31.4134738 167.8368053 112.0895275
v 30.8451025 167.6451811 112.2036897
v 32.0273914 167.7258084 112.0486357
v 32.4129484 167.4540010 112.0150075
v 32.0182104 167.7392018 112.1172041
v 32.6453382 167.1255896 111.9863837
v 32.5423216 167.3108359 112.0633334
v 32.7192799 166.2109889 111.9189027
v 32.5910732 165.9224302 111.9616522
v 31.9412456 165.3790552 111.8359389
v 32.2725390 165.5627619 111.9246166
v 30.8958230 165.4761486 111.7575663
v 31.1837158 165.3568595 111.8484397
v 30.4148413 165.9485858 111.7053553
v 30.5998202 165.6993050 111.7999602
v 30.2650428 166.4933409 111.6667944
v 30.3102369 166.2242738 111.7522242
v 30.3158524 166.9526054 111.6364717
v 30.2661792 166.6922382 111.7186172
v 30.6311989 167.4757357 111.5930693
v 30.3968799 167.1424467 111.6843874
v 31.1715676 167.7804185 112.6727769
v 30.8927168 167.6790448 112.7584581
v 31.6054595 167.8286040 112.6416345
v 32.1308282 167.6770444 112.6002825
v 31.9949428 167.7338437 112.6791276
v 32.5658580 167.2773038 112.5563979
v 32.7505423 166.8118602 112.5217783
v 32.6151797 167.1971450 112.6162217
v 32.7787476 166.6269568 112.5753603
v 32.6862274 166.1145467 112.5402039
v 32.4411553 165.7050970 112.4362032
v 31.8757177 165.3639914 112.3925752
v 32.1635224 165.4895961 112.4835816
v 31.6822038 165.3297034 112.4417224
v 31.4412446 165.3222812 112.3610790
v 31.0562666 165.4065016 112.3312706
v 30.7897027 165.5516342 112.3745146
v 30.2526522 166.5539350 112.2280460
v 30.4065455 165.9632952 112.3389252
v 30.2610397 166.5536559 112.2902918
v 30.3980181 167.1488976 112.1810576
v 30.3382753 167.0105446 112.2572904
v 30.7611099 167.5861039 112.1443840
v 31.0830893 167.7602291 113.2424683
v 31.6034083 167.8269198 113.2044479
v 31.5366294 167.8282553 113.2722495
v 32.1305121 167.6805308 113.1619541
v 31.9937278 167.7402115 113.2403800
v 32.5287360 167.3180749 113.1271000
v 32.3482361 167.5130851 113.2091928
v 32.7234203 166.9302240 113.0959999
v 32.6617652 167.1133468 113.1716591
v 32.7762103 166.5205521 113.1325888
v 32.4787399 165.7516139 113.0037725
v 32.4289664 165.7010800 113.0627225
v 32.0221519 165.4225326 112.9662136
v 31.9522116 165.3920381 113.0244521
v 31.1320864 165.3796139 112.9019139
v 31.4556268 165.3185523 112.9885398
v 31.0606081 165.4068303 112.9591697
v 30.7200631 165.6021972 112.9329781
v 30.4189260 165.9630612 112.8988907
v 30.2575744 166.6354758 112.7861746
v 30.2542123 166.5151370 112.8566686
v 30.8821776 167.6589238 113.8195993
v 30.7158787 167.5400715 113.8985471
v 31.4319009 167.8358118 113.7784091
v 31.6645297 167.8206776 113.8257864
v 31.9619162 167.7480606 113.7410444
v 32.3377244 167.5270007 113.7094637
v 32.6960636 167.0422979 113.6673562
v 32.5841609 167.2600813 113.7511221
v 32.7701072 166.6836125 113.7038206
v 32.6721869 166.0811575 113.5968475
v 32.4344595 165.7135115 113.5633843
v 32.0088201 165.4143490 113.5908361
v 31.3741255 165.3229383 113.4816981
v 31.5819142 165.3221586 113.5600389
v 30.8331902 165.5137531 113.4377663
v 31.1075770 165.3806877 113.5230673
v 30.5010581 165.8416258 113.4050449
v 30.3002423 166.2320027 113.3773636
v 30.2807881 166.8008045 113.3322986
v 30.2590568 166.4876170 113.4200869
v 31.4194276 165.3275373 114.6160771
v 31.0642936 165.4098234 114.5925796
v 30.6191174 165.6908532 114.5457501
v 30.5301189 165.7844621 114.6022128
v 30.2848065 166.3169511 114.5603139
v 30.3111354 166.9567853 114.4497327
v 30.3648196 167.0757247 114.5021408
v 32.0486550 168.1283079 114.9999141
v 30.5579687 170.2569004 115.0000000
v 31.6601218 170.3940627 115.0000000
v 31.3961907 168.2002380 114.9999856
v 29.7367648 169.9429259 115.0000000
v 32.7486440 170.1753320 115.0000000
v 28.7483236 169.2089949 115.0000000
v 33.5202562 169.8146149 115.0000000
v 34.3925221 169.0878315 115.0000000
v 28.1220170 168.2925762 115.0000000
v 30.2667200 167.6348748 114.9998944
v 34.9556540 168.2065343 115.0000000
v 27.8217176 167.4964493 115.0000000
v 29.9298937 166.9739953 114.9999495
v 35.2429830 167.3763324 115.0000000
v 27.7050551 166.2717290 115.0000000
v 35.3164282 166.1464909 115.0000000
v 27.9826334 165.1644477 115.0000000
v 29.9040296 166.2590332 114.9998955
v 28.4319066 164.3332576 115.0000000
v 34.9713588 164.9635764 115.0000000
v 30.2065492 165.5998687 114.9999768
v 29.3028719 163.4633082 115.0000000
v 34.2675493 163.9158189 115.0000000
v 33.3565408 163.2420063 115.0000000
v 30.2363130 162.9905546 115.0000000
v 30.6568381 165.1835721 114.9999701
v 31.2504487 162.7647407 115.0000000
v 32.4770672 162.8830588 115.0000000
v 31.3024442 164.9501131 114.9999547
v 28.2723183 168.5768635 114.2995075
v 27.8865894 167.7140327 114.2997701
v 27.7326925 166.9712161 114.2997682
v 27.7655113 165.8333496 114.3008802
v 28.2996320 164.5182217 114.2998520
v 29.1260927 163.6035705 114.3006042
v 32.0380047 162.8017292 114.2999818
v 33.1351417 163.1127196 114.2999756
v 34.1453920 163.8121920 114.3003932
v 34.8802019 164.7638490 114.2998512
v 35.2971415 166.0268872 114.2995934
v 35.2702052 167.2545066 114.3005673
v 34.8624143 168.4169810 114.2998535
v 33.1473142 170.0133353 114.2995454
v 32.2530920 170.3161306 114.2989855
v 31.2805558 170.3735423 114.3001452
v 30.3217361 170.1953990 114.2999922
v 29.1481432 169.5762480 114.3001819
v 33.7258426 164.3703304 114.1949317
v 34.5914144 165.9524164 114.2000102
v 34.5305319 167.3804717 114.1986317
v 33.7162956 168.8852285 114.1995379
v 34.0281266 169.4517926 114.2995923
v 32.3246972 169.5855282 114.1997378
v 31.5651902 169.7169968 114.1999946
v 30.0391838 169.3539244 114.1999684
v 29.3130895 168.7786853 114.1995434
v 28.3871956 167.2628166 114.1992687
v 28.5060646 165.7669818 114.1993105
v 29.0829112 164.5863149 114.1999768
v 30.7076246 163.5613520 114.1958734
v 29.9336261 163.1136911 114.3003129
v 32.0759908 163.4281745 114.1996443
v 30.9334659 162.8003681 114.2997895
v 33.7093648 164.3620987 111.5552660
v 30.7217435 163.5625744 111.5618342
v 33.9060959 165.3868372 111.3404845
v 33.9747661 165.3116972 111.3894892
v 34.1796308 166.4057886 111.3413150
v 34.2460797 166.3245768 111.3779561
v 34.0855912 167.2548596 111.3416283
v 33.7438915 168.0430464 111.3407846
v 33.6615924 168.2485703 111.3683510
v 33.0025308 168.7896891 111.3411557
v 30.8185782 169.1574224 111.3476389
v 29.8468134 168.6587758 111.3426241
v 29.9682185 168.9541207 111.4314230
v 29.1785632 167.8467512 111.3411867
v 29.1071062 168.0096189 111.4125959
v 28.9187433 167.2042703 111.3465463
v 28.8714991 166.2414649 111.3399622
v 29.7365317 164.6045552 111.3405458
v 29.7747604 164.4989973 111.3526883
v 30.4250651 164.1413741 111.3414409
v 31.4450558 163.9081847 111.3408217
v 32.1777471 163.9827837 111.3473440
v 32.8286579 164.2602277 111.3412468
v 34.5281628 167.3832770 111.5664902
v 32.8610325 169.0491966 111.4143393
v 32.2844729 169.1149795 111.3410594
v 32.2963597 169.5810273 111.5561997
v 31.5040368 169.2411392 111.3413855
v 29.3124026 168.7772319 111.5722886
v 28.5080835 165.7633373 111.5567374
v 29.2026454 165.2499114 111.3412842
v 33.3983102 164.6977967 111.3423820
v 29.5580541 164.8004745 110.3123075
v 29.2093959 165.2804901 110.3283714
v 28.9577534 165.8711889 110.3433716
v 28.8665786 166.5321955 110.3598084
v 29.1397894 167.7340342 110.3402983
v 29.3806893 168.1387947 110.3258341
v 29.7268366 168.5234959 110.3403752
v 30.0492192 168.7799561 110.3510027
v 30.4143697 168.9777156 110.3280071
v 30.8691900 169.1341585 110.3064080
v 31.8438427 169.1989073 110.3373274
v 32.6877382 168.9515838 110.3495744
v 33.0779831 168.7061559 110.3169570
v 33.4317114 168.4161583 110.3554567
v 33.8096087 167.8980043 110.3314109
v 33.9855579 167.5130303 110.3016794
v 34.0953955 165.9848006 110.3181109
v 33.3183371 164.6345145 110.3298038
v 32.9250513 164.3361458 110.3098877
v 33.4744010 168.2813414 110.2546207
v 33.6116479 167.9800782 110.2050130
v 33.9889937 167.4053696 110.2646955
v 34.0756732 166.8925774 110.2365636
v 33.9529998 167.1588084 110.2021229
v 34.1277272 167.0318511 110.3480385
v 34.1667346 166.5207642 110.3424879
v 34.0739882 166.3371730 110.2292835
v 33.8575601 165.5803693 110.2079487
v 33.9321443 165.9171980 110.2018027
v 33.9404046 165.5042668 110.3347322
v 33.6319112 165.0622440 110.2557404
v 33.6593850 165.0115418 110.3562174
v 32.6342874 164.2208728 110.2594133
v 33.1156950 164.6172958 110.2044110
v 32.3600051 164.0662336 110.3235207
v 32.0397665 164.0887550 110.2101098
v 31.8812345 163.9498757 110.3450822
v 31.4890785 163.9390691 110.3004321
v 31.5579868 164.0679769 110.2033074
v 31.0857045 163.9599492 110.3473598
v 31.0657227 164.0466847 110.2312227
v 30.7107637 164.0582474 110.3242660
v 30.5505225 164.1725359 110.2490171
v 30.5240256 164.2678455 110.2033990
v 30.0983894 164.3784978 110.2744896
v 30.3500221 164.1928820 110.3671513
v 29.9009828 164.4744985 110.3513767
v 29.8396934 164.6963793 110.2041375
v 29.4098883 165.1565508 110.2085011
v 29.0529181 165.7983060 110.2398640
v 28.9273904 166.3967804 110.2530866
v 29.0322328 166.3372100 110.2014857
v 28.9094584 166.9868489 110.3154975
v 28.9835317 166.8982858 110.2250154
v 28.9874842 167.3582136 110.3385358
v 29.1871367 167.5038768 110.2025870
v 29.1587024 167.6518389 110.2440377
v 29.5213536 168.1166249 110.2071368
v 29.9093059 168.6049355 110.2454394
v 30.2871413 168.7846445 110.2057708
v 30.9437689 169.0211861 110.2039405
v 31.4205319 169.2217027 110.3457051
v 31.4780375 169.1903922 110.2712083
v 31.6569417 169.0890682 110.2061964
v 32.1937263 169.0253083 110.2094864
v 32.2433706 169.1220262 110.3417249
v 32.6958610 168.8830393 110.2521335
v 33.0393391 168.5911607 110.2073429
v 29.2622602 166.4147890 110.2000000
v 29.3140172 167.0479578 110.2000000
v 29.4328323 165.7068043 110.2000000
v 29.5434391 167.6809137 110.2000000
v 29.8506810 165.0413638 110.2000000
v 30.3798762 164.6290231 110.2000000
v 30.1132172 168.3505492 110.2000000
v 30.9868122 164.3738194 110.2000000
v 30.9142141 168.7568371 110.2000000
v 31.6426720 164.3241743 110.2000000
v 32.2108396 164.4240104 110.2000000
v 31.9225316 168.8107347 110.2000000
v 32.9222828 164.7976508 110.2000000
v 32.8478573 168.4069237 110.2000000
v 33.5018308 165.4824152 110.2000000
v 33.3896086 167.8370997 110.2000000
v 33.7599804 166.2822694 110.2000000
v 33.7149149 167.1228701 110.2000000
v 30.1890811 168.4036216 110.2999771
v 30.8417302 168.7286289 110.2999771
v 31.5640650 168.8346857 110.2999771
v 32.4779730 168.6326460 110.2999771
v 33.2589430 168.0221306 110.2999771
v 33.6911978 167.2147868 110.2999771
v 33.7659675 166.3020060 110.2999771
v 33.4842385 165.4510429 110.2999771
v 32.8937342 164.7754748 110.2999771
v 32.2102838 164.4257550 110.2999771
v 31.5460798 164.3153151 110.2999771
v 30.7528259 164.4425866 110.2999771
v 30.0745718 164.8373877 110.2999771
v 29.5937771 165.3862540 110.2999771
v 29.2892747 166.1710732 110.2999771
v 29.2993319 167.0116899 110.2999771
v 29.6098714 167.7940693 110.2999771
v 31.1661849 167.7317758 110.2999771
v 31.6731428 167.7718032 110.2999771
v 30.6286372 167.4061752 110.2999771
v 32.1798792 167.5895110 110.2999771
v 32.5160626 167.2476946 110.2999771
v 30.3485842 166.8771024 110.2999771
v 32.6984350 166.8383202 110.2999771
v 30.3253765 166.3691013 110.2999771
v 30.5815915 165.7954355 110.2999771
v 32.6858770 166.2403321 110.2999771
v 32.4185705 165.7723173 110.2999771
v 31.1454742 165.4186797 110.2999771
v 32.1153394 165.5285072 110.2999771
v 31.7121484 165.3813840 110.2999771
v 32.3495077 165.6847160 111.3001997
v 31.7619773 165.3875726 111.3001050
v 31.1448714 165.4169599 111.2999500
v 30.5904520 165.7892694 111.2999680
v 30.3506602 166.2706247 111.2999680
v 30.3186488 166.7190603 111.2999680
v 30.4560157 167.1459824 111.2999680
v 30.8043654 167.5574563 111.2999680
v 31.3038090 167.7609152 111.2999680
v 31.7819739 167.7547694 111.2999680
v 32.1913536 167.5723993 111.2999680
v 32.5331747 167.2362201 111.2999680
v 32.7154689 166.7294906 111.2999680
v 32.6754411 166.2225398 111.2999680
v 31.1830466 165.3278269 111.2998932
v 32.4185636 165.6737167 111.2996962
v 32.8061074 166.1157204 111.3001613
v 32.9159744 166.9741570 111.3000764
v 30.0260773 166.4874491 111.2998620
v 32.5959590 167.6514120 111.3000453
v 30.1625863 167.4377921 111.2996970
v 30.7421829 168.0734601 111.3104789
v 30.9545857 168.1520177 111.2999680
v 31.0261336 168.1834427 111.2999680
v 30.5880555 167.4152408 114.4731480
v 31.0635926 167.7521851 114.3673142
v 31.7458291 167.8211085 114.3211628
v 31.5819898 167.8381234 114.3971386
v 32.2621977 167.5847657 114.2796709
v 32.5632053 167.2726513 114.2454129
v 32.7780240 166.5068558 114.1868292
v 32.7592042 166.7862105 114.2732433
v 32.7510083 166.3489939 114.2420764
v 32.5741728 165.8731338 114.1421645
v 32.5862946 165.9027460 114.2049774
v 32.1238563 165.4727161 114.0990090
v 32.2572717 165.5614983 114.1762147
v 31.6072575 165.3152041 114.0562802
v 30.9549069 165.4380500 114.0139679
v 31.2447120 165.3360040 114.0988737
v 30.4994021 165.8370134 113.9697951
v 30.3219720 166.1978392 113.9408140
v 30.2613872 166.5830220 113.9128990
v 30.2530272 166.5918762 113.9751766
v 30.5969752 167.4234415 113.8469938
v 30.4121238 167.1771641 113.9327481
v 32.6992254 165.3454536 115.0015125
v 31.1070903 168.2095334 114.6702491
v 32.6339958 167.8530142 114.5830533
v 31.9674137 164.9311741 114.3915501
v 31.2202174 164.9122847 114.3499388
v 30.3255157 167.7703957 114.1568061
v 30.7918730 168.1016397 114.1275051
v 31.4045081 168.2611977 114.0907350
v 33.1521902 167.0431541 113.9718904
v 33.1831282 166.2745670 113.9305941
v 32.9667591 165.7027833 113.8962017
v 31.4036827 164.8879905 113.7987163
v 30.4954842 167.9386424 113.5810117
v 31.2195418 168.2381745 113.5381139
v 32.8189392 165.4807486 113.3223202
v 30.1459165 165.5608187 113.1585547
v 29.8584155 166.2656413 113.1175168
v 30.9797742 168.1859805 112.9910408
v 31.9102370 165.1898058 114.8075069
v 32.0657460 164.9726804 114.9594409
v 31.4630816 164.8846689 114.9270305
v 31.0288534 165.4062005 114.6384189
v 30.9110675 164.9887694 114.8959435
v 30.3662308 165.3397936 114.8626160
v 29.9883658 165.8386623 114.8297177
v 30.2724010 166.7074956 114.5319437
v 29.8145413 166.7016979 114.7817480
v 30.0684836 167.4470660 114.7409955
v 30.9663321 167.7091991 114.4421246
v 30.5302823 167.9540265 114.7041912
v 32.0989809 168.1543005 114.6170633
v 31.6382921 168.2671776 114.6424743
v 32.2114974 167.6282500 114.3472306
v 32.5799979 167.2468046 114.3102606
v 33.0332378 167.3193894 114.5480695
v 33.2064113 166.6935018 114.5144214
v 33.1295029 166.0639231 114.4797970
v 32.7777065 165.4311281 114.4413814
v 31.8811522 165.3682022 114.1457523
v 30.6738310 165.6391950 114.0525626
v 30.6467585 165.1223842 114.3194967
v 30.3785395 166.0419780 114.0176778
v 30.1070704 165.6276449 114.2791549
v 29.8233283 166.5092631 114.2297961
v 29.9957843 167.3245369 114.1848313
v 31.1793427 167.7901669 113.8608825
v 32.0159081 168.1886855 114.0590169
v 32.1227733 167.6787891 113.7928023
v 32.6663198 167.8239071 114.0190246
v 32.7026887 166.1399040 113.6648079
v 32.4152024 165.6935321 113.6278146
v 32.5809567 165.2615916 113.8644872
v 32.0307253 164.9642396 113.8317295
v 30.7038858 165.6201345 113.4945440
v 30.8214657 165.0349995 113.7664992
v 30.4270568 165.9440504 113.4649786
v 30.2502744 165.4484899 113.7287219
v 29.9802630 165.8802890 113.7014320
v 29.8223444 166.5407355 113.6650149
v 30.3618155 167.0765377 113.3754247
v 30.0279240 167.3784822 113.6199364
v 30.6598447 167.4939908 113.3394026
v 31.0945219 167.7616971 113.3057085
v 31.8197059 168.2351931 113.5076879
v 32.3800355 168.0257952 113.4747059
v 32.7766681 167.6921620 113.4475496
v 33.0588635 167.2623206 113.4202232
v 33.1943612 166.7745730 113.3935775
v 32.6825761 166.1100862 113.1013839
v 32.1980126 165.0252115 113.2799889
v 31.5908649 164.8840537 113.2457360
v 30.9128461 164.9895911 113.2088995
v 30.4018597 167.1699754 112.8115947
v 29.8544134 166.8986881 113.0855528
v 30.2478124 167.7040748 113.0369855
v 29.9258384 167.1514383 111.3819126
v 30.2522823 167.6923600 111.3496249
v 30.8859368 168.1338121 111.3079515
v 31.5556195 167.8342273 112.7113839
v 31.6745719 168.2603154 112.9523562
v 32.2987365 167.5569537 112.6499969
v 32.4314370 168.0123023 112.9107012
v 32.9059491 167.5288200 112.8744948
v 33.2003065 166.7218584 112.8279943
v 33.1382637 166.0838798 112.7941734
v 32.4923833 165.7847271 112.5126365
v 32.8970656 165.5979932 112.7648104
v 32.4281198 165.1464826 112.7307213
v 31.9364658 164.9406100 112.7030614
v 31.4373689 164.8916697 112.6765888
v 31.1939871 165.3568682 112.4050769
v 30.9675182 164.9757791 112.6496837
v 30.4534234 165.2646288 112.6196749
v 30.0849066 165.6804136 112.5888894
v 29.9079250 166.0850505 112.5661761
v 29.8290281 166.5508596 112.5418563
v 30.5149706 167.3246551 112.2345049
v 29.9524498 167.2411415 112.5054341
v 30.4370260 167.8749651 112.4608774
v 30.9606255 168.1676907 112.4302644
v 31.4299928 167.8295028 112.1582675
v 31.5763943 168.2693494 112.3943731
v 32.0640666 168.1702553 112.3686699
v 32.4846225 167.9536046 112.3450332
v 32.7329589 166.8931143 112.0341704
v 32.9463533 167.4960125 112.3113180
v 33.1996073 166.7543481 112.2673672
v 32.7643774 166.3933303 111.9946022
v 32.6694719 165.3283059 112.1861055
v 31.7602153 165.3379936 111.8843776
v 31.9817398 164.9422001 112.1409373
v 31.2402422 164.9055321 112.1020229
v 30.6698778 165.1168588 112.0707737
v 30.3038960 165.3969328 112.0454777
v 29.9719343 165.8977997 112.0149680
v 29.8341471 166.4469114 111.9848111
v 29.8686424 166.9083176 111.9588189
v 30.0474499 167.3974043 111.9318546
v 30.3600496 167.8013394 111.9049434
v 30.9843077 168.1869646 111.8623850
v 31.9251657 168.2228494 111.8155084
v 32.6781173 167.8108259 111.7672819
v 33.0117736 167.3469856 111.7386129
v 33.1984191 166.8288290 111.7097371
v 33.1399991 166.0744973 111.6669949
v 32.2870939 165.5735907 111.3639325
v 32.6677414 165.3308375 111.6214444
v 31.7228456 164.8988496 111.5667190
v 31.0264921 164.9461950 111.5275686
v 30.4495651 165.6584228 111.2996681
v 29.8261679 166.3569886 111.4257126
v 33.0824926 167.2126116 112.8545553
v 32.7661185 166.3711320 113.0544176
v 31.5793298 165.3182090 112.9315952
v 30.7728500 165.5635832 112.8707857
v 30.3990338 165.9774467 112.8307711
v 30.4182347 167.1891787 112.7411119
v 30.7765812 167.5915852 112.7071757
v 32.7523772 166.3125583 112.4868515
v 33.1179395 166.0017876 112.2271327
v 30.6320120 165.6751824 112.2945729
v 30.3889830 166.0260503 112.2665992
v 32.7727300 166.6816577 111.9495524
v 32.4954734 165.7761706 111.8830084
v 32.1444924 165.0038301 111.5884319
v 31.3729032 165.3271151 111.7933192
v 30.2421629 165.4499423 111.4771433
v 31.4686681 168.2303777 111.3000412
v 32.0769383 168.0659883 111.3000467
v 31.9473857 165.0075673 114.9958542
v 31.4338721 164.9584613 114.9735056
v 30.6710568 165.2343293 114.9451211
v 30.1369451 165.8959114 114.9134264
v 30.1091145 165.9622402 114.9107164
v 30.0845308 166.0298445 114.9080797
v 30.0670411 166.9631327 114.8733104
v 30.2732532 167.3869377 114.8555733
v 31.0810778 167.9531920 114.8155486
v 29.9905971 166.4265661 114.8935158
v 31.6527248 168.0000102 114.7919250
v 32.1863974 167.8048369 114.7700170
v 32.5879705 165.8313755 114.6735113
v 30.2950719 166.2411138 114.4980774
v 30.6155196 167.4496288 114.4046469
v 32.7263270 166.9051715 114.2170560
v 30.3492924 167.0469408 113.8796715
v 32.7697939 166.4829917 113.6251441
v 33.1514289 166.1316331 113.3593804
v 31.9780406 165.3960470 113.5229512
v 30.5173417 167.3520858 113.2921785
v 30.8549165 168.0663184 114.9999314
v 30.6196746 167.7331240 114.8361753
v 30.2509773 165.6752821 114.9220902
f 127 413 126
f 126 1 2
f 413 1 126
f 2 1 3
f 3 1 4
f 6 1 7
f 4 1 6
f 1 410 7
f 8 7 410
f 7 8 9
f 9 5 553
f 8 5 9
f 10 553 5
f 553 10 11
f 12 11 10
f 11 12 14
f 13 14 12
f 14 13 15
f 16 15 13
f 15 16 17
f 18 19 21
f 60 19 18
f 19 20 21
f 20 23 21
f 20 22 23
f 22 25 23
f 22 24 25
f 24 27 25
f 24 26 27
f 26 29 27
f 26 28 29
f 28 31 29
f 28 30 31
f 30 517 31
f 30 32 517
f 32 33 517
f 33 34 517
f 34 35 517
f 35 36 517
f 35 37 36
f 37 38 36
f 37 38 38
f 38 39 38
f 38 39 39
f 39 40 39
f 84 41 42
f 41 492 42
f 41 45 492
f 41 43 45
f 43 44 45
f 44 47 45
f 44 46 47
f 46 496 47
f 46 534 496
f 534 499 496
f 534 48 499
f 48 49 499
f 48 535 49
f 535 51 49
f 535 50 51
f 50 501 51
f 50 537 501
f 537 53 501
f 537 52 53
f 52 55 53
f 52 54 55
f 54 57 55
f 54 56 57
f 56 59 57
f 56 58 59
f 59 58 61
f 58 60 61
f 60 18 61
f 529 62 63
f 62 470 63
f 62 64 470
f 64 66 470
f 64 65 66
f 65 472 66
f 65 67 472
f 67 69 472
f 67 68 69
f 68 70 69
f 68 530 70
f 530 71 70
f 530 72 71
f 72 477 71
f 72 74 477
f 72 73 74
f 73 75 74
f 73 76 75
f 76 482 75
f 76 77 482
f 77 78 482
f 77 532 78
f 532 80 78
f 532 533 80
f 533 79 80
f 79 81 80
f 79 83 81
f 79 82 83
f 82 488 83
f 82 84 488
f 84 42 488
f 561 85 453
f 85 454 453
f 454 85 87
f 85 86 87
f 86 89 87
f 86 88 89
f 88 91 89
f 88 90 91
f 90 93 91
f 90 92 93
f 92 94 93
f 92 524 94
f 524 460 94
f 524 95 460
f 95 96 460
f 95 97 96
f 97 98 96
f 97 525 98
f 525 100 98
f 525 99 100
f 99 101 100
f 99 526 101
f 526 102 101
f 526 527 102
f 527 103 102
f 527 105 103
f 527 104 105
f 104 464 105
f 104 528 464
f 528 529 464
f 529 63 464
f 390 106 107
f 106 437 107
f 106 108 437
f 108 109 437
f 108 110 109
f 110 439 109
f 110 111 439
f 111 113 439
f 111 112 113
f 112 114 113
f 112 558 114
f 558 441 114
f 558 115 441
f 115 116 441
f 116 442 441
f 116 560 442
f 560 117 442
f 560 119 117
f 560 118 119
f 118 121 119
f 118 120 121
f 120 445 121
f 120 122 445
f 122 447 445
f 122 123 447
f 123 125 447
f 123 124 125
f 124 451 125
f 124 561 451
f 561 453 451
f 6 4 4
f 4 3 4
f 4 3 3
f 3 2 3
f 3 126 2
f 127 128 413
f 128 129 413
f 128 554 129
f 554 130 129
f 554 417 130
f 554 131 417
f 131 132 417
f 132 555 370
f 131 555 132
f 136 133 135
f 134 136 135
f 135 133 138
f 134 562 136
f 137 562 134
f 138 133 140
f 133 16 140
f 139 562 137
f 139 143 562
f 140 16 141
f 142 143 139
f 141 16 144
f 16 13 144
f 142 146 143
f 145 146 142
f 144 13 147
f 148 146 145
f 147 12 149
f 13 12 147
f 148 151 146
f 10 149 12
f 148 150 151
f 5 392 10
f 10 153 149
f 151 150 154
f 150 152 154
f 10 156 153
f 392 156 10
f 154 155 159
f 152 155 154
f 392 157 156
f 155 158 159
f 392 161 157
f 541 161 392
f 159 158 162
f 158 160 162
f 541 160 161
f 162 160 541
f 139 180 163
f 142 139 163
f 142 163 164
f 145 142 164
f 145 164 165
f 148 145 165
f 148 165 166
f 150 148 166
f 150 166 167
f 152 150 167
f 152 167 168
f 155 152 168
f 155 168 194
f 158 155 194
f 158 194 196
f 160 158 196
f 160 196 169
f 161 160 169
f 161 169 170
f 157 161 170
f 156 170 171
f 156 157 170
f 156 171 172
f 153 156 172
f 153 172 173
f 149 153 173
f 149 173 174
f 147 149 174
f 147 174 175
f 144 147 175
f 141 144 175
f 141 175 185
f 140 141 185
f 140 185 176
f 138 140 176
f 138 176 177
f 135 138 177
f 135 177 178
f 134 178 179
f 134 135 178
f 137 134 179
f 137 179 180
f 139 137 180
f 181 172 171
f 172 181 182
f 182 173 172
f 173 182 183
f 183 174 173
f 183 175 174
f 175 183 184
f 184 185 175
f 184 176 185
f 176 184 186
f 186 177 176
f 187 177 186
f 187 178 177
f 187 179 178
f 179 187 188
f 188 180 179
f 180 188 189
f 189 163 180
f 163 189 190
f 190 164 163
f 190 165 164
f 190 166 165
f 191 166 190
f 191 167 166
f 167 191 192
f 192 168 167
f 168 192 193
f 193 194 168
f 193 196 194
f 196 193 195
f 195 169 196
f 195 170 169
f 170 195 181
f 181 171 170
f 193 181 195
f 191 193 192
f 190 189 191
f 188 187 189
f 187 186 189
f 184 183 186
f 181 183 182
f 218 197 181
f 218 181 193
f 198 218 193
f 202 199 201
f 202 200 199
f 220 201 203
f 220 202 201
f 205 220 204
f 205 204 206
f 221 205 206
f 207 223 224
f 209 207 208
f 212 211 210
f 226 212 213
f 215 226 227
f 215 227 214
f 215 214 216
f 198 215 216
f 218 198 217
f 197 218 219
f 197 199 200
f 197 228 199
f 220 203 204
f 221 206 222
f 223 221 222
f 223 222 224
f 208 225 209
f 211 208 210
f 211 225 208
f 226 213 227
f 198 216 217
f 197 219 228
f 202 220 183
f 202 183 181
f 200 202 181
f 197 200 181
f 221 223 186
f 205 186 183
f 205 221 186
f 220 205 183
f 209 225 189
f 207 209 189
f 207 189 186
f 223 207 186
f 212 226 191
f 212 191 189
f 211 212 189
f 225 211 189
f 215 198 193
f 215 193 191
f 226 215 191
f 229 214 227
f 230 229 227
f 231 230 227
f 231 227 213
f 232 231 213
f 232 213 212
f 281 232 212
f 283 281 212
f 283 212 210
f 233 283 210
f 234 233 210
f 234 210 208
f 235 234 208
f 236 235 208
f 237 236 208
f 237 208 207
f 238 237 207
f 238 207 224
f 290 238 224
f 239 290 224
f 294 239 224
f 294 224 222
f 240 294 222
f 240 222 206
f 241 240 206
f 242 241 206
f 242 206 204
f 243 242 204
f 244 243 204
f 244 204 203
f 253 244 203
f 253 203 201
f 254 253 201
f 245 254 201
f 245 201 199
f 258 245 199
f 260 258 199
f 260 199 228
f 246 260 228
f 246 228 219
f 247 246 219
f 263 247 219
f 263 219 218
f 265 263 218
f 265 218 217
f 266 265 217
f 268 266 217
f 268 217 216
f 270 268 216
f 274 270 216
f 275 274 216
f 275 216 214
f 229 275 214
f 243 248 242
f 249 248 243
f 244 249 243
f 250 249 244
f 252 249 250
f 253 250 244
f 252 250 251
f 251 250 253
f 251 253 254
f 255 251 254
f 252 251 255
f 257 252 255
f 245 255 254
f 256 255 245
f 256 245 258
f 257 255 256
f 259 256 258
f 259 258 260
f 262 256 259
f 246 259 260
f 262 259 246
f 262 246 247
f 263 261 247
f 261 262 247
f 264 262 261
f 264 261 263
f 264 263 265
f 266 264 265
f 267 264 266
f 269 267 266
f 268 269 266
f 272 267 269
f 270 269 268
f 272 269 271
f 271 269 270
f 271 270 274
f 273 271 274
f 273 272 271
f 273 274 275
f 276 272 273
f 229 273 275
f 276 273 229
f 276 229 277
f 277 229 230
f 278 277 230
f 278 230 231
f 280 277 278
f 279 278 231
f 279 231 232
f 280 278 279
f 281 279 232
f 282 280 279
f 281 282 279
f 284 280 282
f 285 282 281
f 284 282 285
f 285 281 283
f 285 283 233
f 285 233 234
f 286 284 285
f 286 285 234
f 287 286 234
f 287 234 235
f 288 286 287
f 287 235 236
f 287 236 237
f 288 287 237
f 288 237 238
f 289 288 238
f 291 238 290
f 289 238 291
f 292 289 291
f 291 290 239
f 293 291 239
f 292 291 293
f 293 239 294
f 295 293 294
f 240 295 294
f 295 240 241
f 296 293 295
f 241 296 295
f 241 242 248
f 296 241 248
f 296 248 249
f 297 280 284
f 298 297 284
f 299 280 297
f 300 298 284
f 299 277 280
f 300 284 286
f 301 277 299
f 301 276 277
f 303 300 286
f 303 286 288
f 302 272 276
f 302 276 301
f 305 288 289
f 305 303 288
f 304 272 302
f 267 272 304
f 308 305 289
f 292 308 289
f 306 267 304
f 307 267 306
f 293 308 292
f 264 267 307
f 262 264 307
f 293 310 308
f 262 307 309
f 296 310 293
f 249 310 296
f 249 312 310
f 262 309 311
f 256 262 311
f 249 314 312
f 252 314 249
f 257 256 311
f 257 311 313
f 252 313 314
f 257 313 252
f 315 305 316
f 303 305 315
f 316 305 317
f 305 308 317
f 317 308 318
f 308 310 318
f 318 310 319
f 310 312 319
f 319 312 320
f 312 314 320
f 320 314 321
f 314 313 321
f 313 311 321
f 321 311 322
f 311 309 322
f 322 309 323
f 309 307 323
f 323 307 324
f 324 307 325
f 307 306 325
f 306 304 325
f 325 304 326
f 304 302 326
f 326 302 327
f 302 301 327
f 327 301 328
f 301 299 328
f 328 299 329
f 299 297 329
f 329 297 330
f 297 298 330
f 298 300 330
f 330 300 331
f 300 303 331
f 331 303 315
f 332 317 333
f 332 316 317
f 333 317 318
f 335 333 318
f 332 315 316
f 334 315 332
f 335 318 319
f 334 331 315
f 336 335 319
f 336 319 320
f 337 331 334
f 338 336 320
f 337 330 331
f 338 320 321
f 339 330 337
f 329 330 339
f 341 338 321
f 322 341 321
f 328 339 340
f 328 329 339
f 322 342 341
f 323 342 322
f 327 328 340
f 323 344 342
f 327 340 343
f 326 327 343
f 324 344 323
f 324 345 344
f 325 345 324
f 325 326 343
f 325 343 345
f 342 344 346
f 346 344 347
f 344 345 347
f 347 345 348
f 345 343 348
f 348 340 349
f 343 340 348
f 349 340 350
f 340 339 350
f 350 339 351
f 339 337 351
f 351 337 352
f 337 334 352
f 352 334 353
f 334 332 353
f 353 332 354
f 332 333 354
f 354 333 355
f 333 335 355
f 355 335 356
f 356 335 357
f 335 336 357
f 336 338 357
f 357 338 358
f 338 341 358
f 358 341 359
f 359 341 346
f 341 342 346
f 39 347 40
f 38 347 39
f 40 348 360
f 347 348 40
f 37 347 38
f 35 347 37
f 360 348 521
f 35 346 347
f 348 349 521
f 34 346 35
f 33 346 34
f 361 346 33
f 362 346 361
f 362 359 346
f 349 350 521
f 521 350 364
f 350 351 364
f 362 358 359
f 362 363 358
f 351 366 364
f 352 366 351
f 358 363 357
f 363 365 357
f 353 366 352
f 357 365 356
f 365 540 356
f 353 367 366
f 356 540 355
f 354 367 353
f 354 368 367
f 354 369 368
f 540 539 355
f 354 539 369
f 355 539 354
f 370 555 420
f 555 371 420
f 420 371 373
f 371 372 373
f 372 424 373
f 372 374 424
f 374 375 424
f 375 425 424
f 375 556 425
f 556 377 425
f 556 376 377
f 376 378 377
f 376 379 378
f 379 380 378
f 379 382 380
f 379 381 382
f 381 430 382
f 381 383 430
f 383 385 430
f 383 384 385
f 384 431 385
f 384 386 431
f 386 433 431
f 386 387 433
f 387 389 433
f 387 388 389
f 388 557 389
f 389 557 391
f 557 390 391
f 390 107 391
f 8 392 5
f 378 427 377
f 385 395 430
f 119 444 117
f 125 449 447
f 94 459 93
f 392 8 411
f 411 8 410
f 411 410 412
f 412 410 1
f 413 414 1
f 1 414 412
f 414 413 415
f 415 413 129
f 415 129 416
f 129 130 416
f 416 130 418
f 130 417 418
f 418 417 132
f 132 419 418
f 370 419 132
f 420 421 370
f 370 421 419
f 393 420 373
f 421 420 393
f 393 373 423
f 424 422 373
f 373 422 423
f 394 422 424
f 394 424 425
f 426 425 377
f 394 425 426
f 377 427 426
f 380 428 378
f 378 428 427
f 380 429 428
f 380 382 429
f 429 382 395
f 395 382 430
f 385 396 395
f 385 432 396
f 431 432 385
f 434 431 433
f 432 431 434
f 435 433 389
f 434 433 435
f 391 436 389
f 389 436 435
f 107 397 391
f 391 397 436
f 107 398 397
f 437 398 107
f 399 437 109
f 398 437 399
f 439 438 109
f 109 438 399
f 440 439 113
f 438 439 440
f 440 113 400
f 114 400 113
f 114 401 400
f 441 401 114
f 402 441 442
f 401 441 402
f 443 442 117
f 402 442 443
f 117 444 443
f 121 403 119
f 119 403 444
f 121 446 403
f 448 445 447
f 446 445 448
f 121 445 446
f 448 447 449
f 125 450 449
f 125 451 450
f 450 451 452
f 404 451 453
f 452 451 404
f 404 453 454
f 405 454 87
f 404 454 405
f 89 455 87
f 87 455 405
f 456 89 91
f 455 89 456
f 458 457 93
f 93 457 91
f 91 457 456
f 459 458 93
f 459 94 559
f 94 460 559
f 406 460 96
f 559 460 406
f 98 461 96
f 96 461 406
f 98 462 461
f 100 462 98
f 100 463 462
f 101 463 100
f 101 102 463
f 463 102 407
f 102 103 407
f 105 408 103
f 103 408 407
f 464 465 105
f 105 465 408
f 465 464 466
f 63 466 464
f 409 466 63
f 364 522 521
f 366 467 364
f 366 468 467
f 366 367 468
f 367 368 469
f 368 368 469
f 368 369 368
f 470 409 63
f 409 470 471
f 471 66 473
f 470 66 471
f 472 473 66
f 69 474 472
f 472 474 473
f 69 70 474
f 523 70 475
f 474 70 523
f 475 70 476
f 476 71 478
f 70 71 476
f 71 477 478
f 478 477 479
f 477 74 479
f 479 74 480
f 75 480 74
f 482 481 75
f 75 481 480
f 482 483 481
f 80 484 78
f 78 484 482
f 482 484 483
f 484 80 485
f 81 486 80
f 80 486 485
f 83 487 81
f 81 487 486
f 83 489 487
f 83 488 489
f 489 488 490
f 488 42 490
f 490 42 491
f 492 491 42
f 491 492 493
f 493 45 494
f 492 45 493
f 47 495 45
f 45 495 494
f 47 497 495
f 47 496 497
f 497 496 498
f 496 499 498
f 498 499 531
f 531 49 500
f 499 49 531
f 51 500 49
f 51 501 500
f 500 501 502
f 502 501 503
f 503 53 504
f 501 53 503
f 55 504 53
f 504 55 505
f 505 55 506
f 57 506 55
f 57 507 506
f 59 507 57
f 59 508 507
f 61 508 59
f 61 509 508
f 18 509 61
f 18 510 509
f 18 21 510
f 510 21 511
f 511 21 512
f 23 512 21
f 23 25 512
f 512 25 513
f 25 27 513
f 29 514 27
f 27 514 513
f 514 29 515
f 31 516 29
f 29 516 515
f 516 31 518
f 31 517 518
f 518 517 536
f 39 519 38
f 38 519 36
f 36 519 517
f 517 519 536
f 40 520 39
f 39 520 519
f 360 520 40
f 521 520 360
f 538 520 521
f 538 521 522
f 522 364 467
f 509 82 508
f 365 24 22
f 365 26 24
f 363 26 365
f 363 28 26
f 362 28 363
f 362 30 28
f 362 361 30
f 361 32 30
f 361 33 32
f 33 33 32
f 33 34 33
f 85 409 86
f 86 409 471
f 88 471 473
f 86 471 88
f 90 474 523
f 473 474 88
f 88 474 90
f 92 523 475
f 90 523 92
f 476 524 475
f 475 524 92
f 95 476 478
f 524 476 95
f 479 95 478
f 97 479 480
f 95 479 97
f 481 525 480
f 480 525 97
f 525 483 99
f 481 483 525
f 484 526 483
f 483 526 99
f 484 527 526
f 485 527 484
f 104 486 487
f 485 486 527
f 527 486 104
f 104 487 489
f 489 528 104
f 489 529 528
f 490 529 489
f 491 529 490
f 62 529 491
f 62 493 64
f 491 493 62
f 64 494 65
f 493 494 64
f 495 65 494
f 497 65 495
f 67 65 497
f 498 68 497
f 497 68 67
f 531 530 498
f 498 530 68
f 72 531 500
f 530 531 72
f 500 502 72
f 72 502 73
f 503 76 502
f 502 76 73
f 504 77 503
f 503 77 76
f 505 532 504
f 504 532 77
f 506 533 505
f 505 533 532
f 507 79 506
f 506 79 533
f 79 508 82
f 507 508 79
f 510 82 509
f 84 82 510
f 84 510 511
f 84 511 41
f 512 41 511
f 43 512 513
f 41 512 43
f 43 513 44
f 513 514 44
f 44 514 46
f 46 514 515
f 515 534 46
f 534 516 48
f 515 516 534
f 518 535 516
f 516 535 48
f 50 518 536
f 535 518 50
f 50 536 519
f 520 537 519
f 519 537 50
f 52 520 538
f 537 520 52
f 52 538 54
f 522 54 538
f 522 56 54
f 56 467 58
f 522 467 56
f 468 60 467
f 467 60 58
f 367 60 468
f 19 60 367
f 539 19 369
f 469 19 367
f 368 19 469
f 369 19 368
f 20 19 539
f 20 539 22
f 22 539 540
f 22 540 365
f 411 541 392
f 411 542 541
f 412 542 411
f 414 542 412
f 414 543 542
f 415 543 414
f 415 564 543
f 416 564 415
f 416 544 564
f 416 545 544
f 416 546 545
f 416 550 546
f 418 550 416
f 419 547 418
f 421 548 419
f 421 549 563
f 423 549 393
f 423 551 549
f 394 552 422
f 427 15 426
f 429 9 553
f 434 554 128
f 401 379 376
f 403 384 383
f 547 550 418
f 419 548 547
f 421 563 548
f 393 549 421
f 551 422 552
f 423 422 551
f 552 394 17
f 17 426 15
f 394 426 17
f 427 14 15
f 427 428 14
f 14 428 11
f 429 553 428
f 428 553 11
f 7 9 395
f 395 9 429
f 6 7 395
f 395 396 6
f 6 396 4
f 4 396 3
f 3 396 126
f 126 396 127
f 432 127 396
f 128 127 432
f 432 434 128
f 435 554 434
f 554 435 131
f 435 436 131
f 397 555 436
f 436 555 131
f 398 371 397
f 397 371 555
f 398 399 371
f 371 399 372
f 399 438 372
f 438 440 372
f 372 440 374
f 400 375 440
f 440 375 374
f 376 556 400
f 400 556 375
f 401 376 400
f 401 402 379
f 379 443 381
f 402 443 379
f 443 444 381
f 381 444 383
f 403 383 444
f 403 446 384
f 446 448 384
f 384 448 386
f 448 449 386
f 386 449 387
f 449 450 387
f 387 450 388
f 452 557 450
f 450 557 388
f 390 452 404
f 557 452 390
f 404 106 390
f 404 405 106
f 106 405 108
f 405 455 108
f 108 455 110
f 110 456 111
f 455 456 110
f 112 457 458
f 111 457 112
f 456 457 111
f 112 458 459
f 559 558 459
f 459 558 112
f 115 559 406
f 558 559 115
f 406 116 115
f 461 560 406
f 406 560 116
f 461 462 560
f 560 462 118
f 462 463 118
f 118 463 120
f 407 120 463
f 407 122 120
f 123 122 407
f 407 408 123
f 465 124 408
f 408 124 123
f 466 561 465
f 465 561 124
f 561 466 85
f 85 466 409
f 151 154 544
f 564 154 543
f 154 159 543
f 159 162 543
f 162 542 543
f 162 541 542
f 17 16 552
f 133 552 16
f 133 551 552
f 136 551 133
f 136 549 551
f 562 549 136
f 549 562 563
f 143 563 562
f 563 143 548
f 146 548 143
f 548 146 547
f 146 550 547
f 146 151 550
f 546 550 151
f 151 545 546
f 544 545 151
f 546 545 545
f 545 545 544
f 154 564 544
