# Render LOD; unchanged CAD body-local coordinates in mm
v 47.3131975 149.6104240 114.7856084
v 47.0585035 149.7678650 114.6249943
v 47.1208896 149.7685608 114.6249943
v 47.1830439 149.7725035 114.6249943
v 47.5794517 149.8392102 114.6446013
v 47.9172894 149.7705862 114.8774846
v 48.2194122 149.8731133 114.9892161
v 48.5261111 150.2455455 114.9998082
v 48.3362451 150.6237400 114.6919062
v 48.7065637 150.9700227 114.9999706
v 48.6318597 151.5019306 114.9999721
v 48.4166301 151.0818840 114.7114727
v 48.3235377 151.5739905 114.7331095
v 48.2779123 152.1303086 114.9998845
v 48.0869806 151.9564809 114.7517477
v 46.2573899 151.9771271 111.6493350
v 46.7043725 152.2202296 111.5468671
v 47.0874068 152.2715083 111.5228488
v 46.7434606 152.2327630 111.6092512
v 47.5588374 152.1828608 111.4885232
v 47.2800977 152.2623732 111.5710056
v 47.9701896 151.8967379 111.4521706
v 47.7244503 152.0919145 111.5405991
v 48.2012789 151.5700096 111.4238082
v 48.0971111 151.7571444 111.5042480
v 48.3384849 151.0489861 111.3853730
v 48.3331270 151.1438353 111.4597980
v 48.2305776 150.5301019 111.3470405
v 47.9805003 150.1421874 111.3071038
v 48.2278561 150.5064975 111.4115098
v 47.5335365 149.8417696 111.2999675
v 47.4015281 149.8042796 111.3285264
v 47.1954515 149.7736631 111.2999680
v 47.1408346 149.7694885 111.3097093
v 47.0721867 149.7677491 111.3047288
v 47.0086409 149.7694885 111.3000412
v 46.9698252 152.2804719 112.0895275
v 46.4014617 152.0888455 112.2036897
v 47.5837344 152.1694737 112.0486358
v 47.9692864 151.8976628 112.0150075
v 47.5745534 152.1828672 112.1172041
v 48.2016733 151.5692469 111.9863837
v 48.0986579 151.7544959 112.0633335
v 48.2756141 150.6546340 111.9189027
v 48.1474089 150.3660714 111.9616522
v 47.4975896 149.8226894 111.8359389
v 47.8288787 150.0063984 111.9246166
v 46.4521815 149.9197840 111.7575663
v 46.7400703 149.8004935 111.8484397
v 46.0983802 150.2307091 111.7245026
v 45.9135032 150.5393196 111.6976001
v 46.1561827 150.1429430 111.7999603
v 45.8214092 150.9369898 111.6667944
v 45.8666029 150.6679191 111.7522242
v 45.8722183 151.3962606 111.6364717
v 45.8225457 151.1358898 111.7186172
v 46.1875609 151.9193979 111.5930693
v 45.9532448 151.5861044 111.6843874
v 46.7279222 152.2240844 112.6727769
v 46.4490755 152.1227096 112.7584580
v 47.1618083 152.2722705 112.6416345
v 47.6871697 152.1207091 112.6002826
v 47.5512863 152.1775090 112.6791276
v 48.1221940 151.7209634 112.5563980
v 48.3068761 151.2555134 112.5217783
v 48.1715151 151.6408035 112.6162218
v 48.3350810 151.0706076 112.5753603
v 48.2425619 150.5581905 112.5402039
v 48.1165285 150.3215770 112.4545354
v 47.8725058 150.0488770 112.4271935
v 47.4320628 149.8076254 112.3925752
v 47.7198636 149.9332316 112.4835816
v 47.2385515 149.7733370 112.4417224
v 46.9975953 149.7659147 112.3610790
v 46.6126228 149.8501362 112.3312706
v 46.3460625 149.9952706 112.3745146
v 45.8090189 150.9975846 112.2280460
v 45.9629104 150.4069367 112.3389252
v 45.8174063 150.9973056 112.2902918
v 45.9543830 151.5925554 112.1810576
v 45.8946409 151.4542005 112.2572904
v 46.3174702 152.0297675 112.1443840
v 46.6394454 152.2038948 113.2424683
v 47.1597572 152.2705863 113.2044479
v 47.0929792 152.2719218 113.2722495
v 47.6868536 152.1241955 113.1619542
v 47.5500712 152.1838769 113.2403801
v 48.0850726 151.7617348 113.1271000
v 47.9045751 151.9567476 113.2091928
v 48.2797544 151.3738788 113.0959999
v 48.2181000 151.5570042 113.1716591
v 48.3325437 150.9642013 113.1325888
v 48.0350769 150.1952526 113.0037725
v 47.9853041 150.1447182 113.0627225
v 47.5784951 149.8661673 112.9662135
v 47.5085557 149.8356725 113.0244521
v 46.6884416 149.8232481 112.9019139
v 47.0119777 149.7621857 112.9885398
v 46.6169643 149.8504649 112.9591697
v 46.2764238 150.0458343 112.9329781
v 45.9752906 150.4067029 112.8988907
v 45.8139409 151.0791266 112.7861745
v 45.8105789 150.9587862 112.8566686
v 46.4385362 152.1025882 113.8195992
v 46.2722394 151.9837343 113.8985471
v 46.9882521 152.2794783 113.7784091
v 47.2208777 152.2643440 113.8257864
v 47.5182602 152.1917260 113.7410444
v 47.8940634 151.9706634 113.7094637
v 48.2523979 151.4859545 113.6673562
v 48.1404966 151.7037408 113.7511221
v 48.3264407 151.1272640 113.7038206
v 48.2285216 150.5248008 113.5968475
v 47.9907972 150.1571500 113.5633842
v 47.5651633 149.8579836 113.5908361
v 46.9304774 149.7665719 113.4816981
v 47.1382634 149.7657921 113.5600389
v 46.3895495 149.9573890 113.4377663
v 46.6639327 149.8243219 113.5230673
v 46.0574215 150.2852661 113.4050449
v 45.8566083 150.6756480 113.3773636
v 45.8371543 151.2444576 113.3322986
v 45.8154234 150.9312658 113.4200869
v 46.1947952 151.9141624 113.2806319
v 46.9746298 149.7720087 114.6166357
v 46.6206500 149.8534578 114.5925797
v 46.1754795 150.1344913 114.5457501
v 46.0864822 150.2281013 114.6022128
v 45.8411727 150.7605976 114.5603139
v 45.8675014 151.4004407 114.4497326
v 45.9211848 151.5193814 114.5021407
v 47.6049978 152.5719784 114.9999141
v 46.1143315 154.7005989 115.0000000
v 47.2164699 154.8377630 115.0000000
v 46.9525423 152.6439094 114.9999856
v 45.2931386 154.3866205 115.0000000
v 48.3049776 154.6190294 115.0000000
v 44.3047108 153.6526803 115.0000000
v 49.0765795 154.2583078 115.0000000
v 49.9488337 153.5315152 115.0000000
v 43.6784118 152.7362491 115.0000000
v 45.8230867 152.0785390 114.9998944
v 50.5119587 152.6502060 115.0000000
v 43.3781163 151.9401117 115.0000000
v 45.4862646 151.4176507 114.9999495
v 50.7992840 151.8199932 115.0000000
v 43.2614553 150.7153748 115.0000000
v 50.8727282 150.5901350 115.0000000
v 43.5390300 149.6080789 115.0000000
v 48.2641335 149.8277009 115.0000000
v 45.4603276 150.7034344 114.9998958
v 43.9882976 148.7768776 115.0000000
v 50.5276631 149.4072048 115.0000000
v 45.7629718 150.0434434 114.9999769
v 50.0213110 148.6062183 115.0000000
v 44.8592517 147.9069168 115.0000000
v 48.2048782 149.7807367 115.0000000
v 49.6238735 148.2000732 115.0000000
v 48.1436516 149.7364396 115.0000000
v 49.4801998 148.0765748 115.0000000
v 49.1569586 147.8357761 115.0000000
v 46.1468305 147.3072152 115.0000000
v 46.2131996 149.6272037 114.9999701
v 48.5088575 147.4902203 115.0000000
v 46.8587971 149.3937417 114.9999547
v 47.5008249 147.2264279 115.0000000
v 43.8287113 153.0205404 114.2995075
v 43.4429872 152.1576979 114.2997701
v 43.2890923 151.4148714 114.2997682
v 43.3219108 150.2769895 114.3008802
v 43.8560248 148.9618440 114.2998520
v 44.6824746 148.0471810 114.3006042
v 47.5943477 147.2453295 114.2999818
v 48.4205764 147.4569368 114.3004244
v 50.2392309 148.8811995 114.3006948
v 50.8709645 150.7569678 114.2995428
v 50.8265058 151.6981658 114.3005674
v 50.4187199 152.8606559 114.2998535
v 48.7036426 154.4570307 114.2995454
v 47.8094322 154.7598298 114.2989855
v 46.8369090 154.8172423 114.3001452
v 45.8781022 154.6390967 114.2999922
v 44.7045253 154.0199382 114.3001819
v 49.2821637 148.8139514 114.1949317
v 50.7201710 149.9143330 114.2991986
v 50.1477240 150.3960582 114.2000102
v 50.0868423 151.8241323 114.1986317
v 49.2726167 153.3289090 114.1995379
v 49.5844430 153.8954811 114.2995923
v 47.8810366 154.0292179 114.1997378
v 47.1215396 154.1606881 114.1999946
v 45.5955532 153.7976110 114.1999684
v 44.8694685 153.2223643 114.1995434
v 43.9435868 151.7064757 114.1992687
v 44.0624543 150.2106211 114.1993105
v 44.6392932 149.0299387 114.1999768
v 46.2639853 148.0049624 114.1958734
v 45.4899971 147.5572954 114.3003129
v 46.4898238 147.2439685 114.2997895
v 47.6323334 147.8717831 114.1996443
v 49.3437534 147.9488359 114.2994562
v 49.2656857 148.8057196 111.5552659
v 46.2781039 148.0061848 111.5618342
v 49.4624142 149.8304711 111.3404845
v 49.5310838 149.7553305 111.3894892
v 49.7359457 150.8494363 111.3413150
v 49.8023938 150.7682235 111.3779560
v 49.6419074 151.6985187 111.3416283
v 49.3002119 152.4867163 111.3407846
v 49.2179141 152.6922424 111.3683510
v 48.5588607 153.2333686 111.3411557
v 46.3749375 153.6011065 111.3476389
v 45.4031860 153.1024538 111.3426241
v 45.5245890 153.3978021 111.4314230
v 44.7349442 152.2904184 111.3411867
v 44.6634879 152.4532879 111.4125959
v 44.4751273 151.6479278 111.3465463
v 44.4278839 150.6851102 111.3399622
v 45.2929054 149.0481791 111.3405458
v 45.3311336 148.9426198 111.3526883
v 45.9814299 148.5849919 111.3414409
v 47.0014067 148.3517997 111.3408217
v 47.7340887 148.4263997 111.3473440
v 48.3849904 148.7038471 111.3412468
v 50.0844732 151.8269376 111.5664902
v 48.4173647 153.4928793 111.4143394
v 47.8408127 153.5586630 111.3410594
v 47.8526994 154.0247168 111.5561996
v 47.0603869 153.6848243 111.3413855
v 44.8687816 153.2209110 111.5722886
v 44.0644732 150.2069766 111.5567373
v 44.7590261 149.6935434 111.3412842
v 48.9546353 149.1414218 111.3423820
v 45.1144301 149.2441010 110.3123074
v 44.7657764 149.7241229 110.3283713
v 44.5141372 150.3148295 110.3433715
v 44.4229635 150.9758450 110.3598084
v 44.6961707 152.1776996 110.3402983
v 44.9370677 152.5824656 110.3258341
v 45.2832103 152.9671716 110.3403751
v 45.6055887 153.2236353 110.3510027
v 45.9707344 153.4213973 110.3280072
v 46.4255487 153.5778423 110.3064081
v 47.4001884 153.6425918 110.3373275
v 48.2440726 153.3952652 110.3495744
v 48.6343124 153.1498341 110.3169571
v 48.9880359 152.8598329 110.3554567
v 49.3659284 152.3416719 110.3314108
v 49.5418753 151.9566930 110.3016793
v 49.6517115 150.4284427 110.3181108
v 48.8746632 149.0781388 110.3298039
v 48.4813824 148.7797661 110.3098877
v 49.0307251 152.7250140 110.2546207
v 49.1679703 152.4237468 110.2050130
v 49.5453111 151.8490305 110.2646954
v 49.6319894 151.3362316 110.2365635
v 49.5093178 151.6024661 110.2021229
v 49.6840428 151.4755072 110.3480384
v 49.7230498 150.9644135 110.3424879
v 49.6303045 150.7808197 110.2292834
v 49.4138791 150.0240060 110.2079487
v 49.4884625 150.3608394 110.2018027
v 49.4967226 149.9479025 110.3347322
v 49.1882332 149.5058739 110.2557404
v 49.2157067 149.4551710 110.3562174
v 48.1906228 148.6644918 110.2594133
v 48.6720239 149.0609199 110.2044110
v 47.9163440 148.5098505 110.3235208
v 47.5961092 148.5323721 110.2101099
v 47.4375797 148.3934911 110.3450822
v 47.0454288 148.3826844 110.3004322
v 47.1143363 148.5115939 110.2033074
v 46.6420603 148.4035648 110.3473599
v 46.6220787 148.4903014 110.2312228
v 46.2671244 148.5018643 110.3242661
v 46.1068851 148.6161542 110.2490172
v 46.0803886 148.7114651 110.2033990
v 45.6547583 148.8221187 110.2744896
v 45.9063876 148.6365006 110.3671513
v 45.4573542 148.9181207 110.3513767
v 45.3960656 149.1400044 110.2041375
v 44.9662661 149.6001821 110.2085011
v 44.6093007 150.2419457 110.2398639
v 44.4837746 150.8404280 110.2530866
v 44.5886155 150.7808568 110.2014857
v 44.4658428 151.4305045 110.3154974
v 44.5399151 151.3419401 110.2250153
v 44.5438675 151.8018741 110.3385358
v 44.7435173 151.9475389 110.2025870
v 44.7150835 152.0955032 110.2440376
v 45.0777299 152.5602953 110.2071368
v 45.4656773 153.0486124 110.2454394
v 45.8435077 153.2283237 110.2057708
v 46.5001266 153.4648683 110.2039405
v 46.9768832 153.6653876 110.3457052
v 47.0343878 153.6340767 110.2712083
v 47.2132898 153.5327514 110.2061964
v 47.7500670 153.4689908 110.2094864
v 47.7997108 153.5657098 110.3417249
v 48.2521954 153.3267198 110.2521335
v 48.5956689 153.0348373 110.2073429
v 44.8186399 150.8584368 110.2000000
v 44.8703962 151.4916142 110.2000000
v 44.9892099 150.1504426 110.2000000
v 45.0998153 152.1245787 110.2000000
v 45.4070534 149.4849931 110.2000000
v 45.9362413 149.0726474 110.2000000
v 45.6695862 152.7942230 110.2000000
v 46.5431695 148.8174404 110.2000000
v 46.4705724 153.2005159 110.2000000
v 47.1990203 148.7677947 110.2000000
v 47.7671803 148.8676321 110.2000000
v 47.4788759 153.2544141 110.2000000
v 48.4786138 149.2412770 110.2000000
v 48.4041893 152.8505982 110.2000000
v 49.0581544 149.9260503 110.2000000
v 48.9459338 152.2807666 110.2000000
v 49.3163009 150.7259154 110.2000000
v 49.2712359 151.5665277 110.2000000
v 45.7454490 152.8472960 110.2999771
v 46.3980894 153.1723073 110.2999771
v 47.1204143 153.2783654 110.2999771
v 48.0343097 153.0763234 110.2999771
v 48.8152696 152.4658002 110.2999771
v 49.2475191 151.6584457 110.2999771
v 49.3222879 150.7456522 110.2999771
v 49.0405623 149.8946776 110.2999771
v 48.4500656 149.2191007 110.2999771
v 47.7666244 148.8693767 110.2999771
v 47.1024294 148.7589354 110.2999771
v 46.3091863 148.8862084 110.2999771
v 45.6309411 149.2810146 110.2999771
v 45.1501527 149.8298880 110.2999771
v 44.8456541 150.6147176 110.2999771
v 44.8557112 151.4553459 110.2999771
v 45.1662469 152.2377359 110.2999771
v 46.7225398 152.1754411 110.2999771
v 47.2294906 152.2154689 110.2999771
v 46.1849994 151.8498367 110.2999771
v 47.7362201 152.0331747 110.2999771
v 48.0723993 151.6913536 110.2999771
v 45.9049496 151.3207565 110.2999771
v 48.2547694 151.2819739 110.2999771
v 45.8817422 150.8127484 110.2999771
v 46.1379543 150.2390747 110.2999771
v 48.2422116 150.6839774 110.2999771
v 47.9749085 150.2159565 110.2999771
v 46.7018294 149.8623144 110.2999771
v 47.6716813 149.9721433 110.2999771
v 47.2684957 149.8250182 110.2999771
v 47.8325205 150.0750377 111.2999680
v 47.3183241 149.8312070 111.3001050
v 46.7012267 149.8605946 111.2999500
v 46.1468147 150.2329085 111.2999680
v 45.9070256 150.7142706 111.2999680
v 45.8750146 151.1627123 111.2999680
v 46.0123798 151.5896402 111.2999680
v 46.3607253 152.0011196 111.2999680
v 46.8601619 152.2045808 111.2999680
v 47.3383202 152.1984350 111.2999680
v 47.7476946 152.0160626 111.2999680
v 48.0895110 151.6798792 111.2999680
v 48.2718032 151.1731428 111.2999680
v 48.2094497 150.5776020 111.2999680
v 46.7394011 149.7714605 111.2998932
v 48.2921396 150.4562938 111.3000259
v 48.5040269 151.2912677 111.3002838
v 45.5824469 150.9310979 111.2998620
v 48.1522947 152.0950763 111.3000453
v 45.7189543 151.8814538 111.2996970
v 46.2985431 152.5171299 111.3104789
v 46.5109431 152.5956884 111.2999680
v 46.5824901 152.6271139 111.2999680
v 46.1444178 151.8589020 114.4731480
v 46.6199490 152.1958508 114.3673142
v 47.3021758 152.2647750 114.3211629
v 47.1383390 152.2817901 114.3971386
v 47.8185377 152.0284291 114.2796710
v 48.1195414 151.7163106 114.2454129
v 48.3343574 150.9505048 114.1868292
v 48.3155379 151.2298634 114.2732433
v 48.3073421 150.7926409 114.2420764
v 48.1305085 150.3167740 114.1421645
v 48.1426303 150.3463868 114.2049774
v 47.6801981 149.9163515 114.0990090
v 47.8136120 150.0051350 114.1762147
v 47.1636063 149.7588375 114.0562803
v 46.5112647 149.8816848 114.0139680
v 46.8010659 149.7796377 114.0988737
v 46.0557657 150.2806535 113.9697951
v 45.8783378 150.6414842 113.9408140
v 45.8177537 151.0266722 113.9128990
v 45.8093938 151.0355264 113.9751766
v 46.1533374 151.8671028 113.8469938
v 45.9684885 151.6208223 113.9327480
v 47.4427999 149.3609601 114.9490392
v 46.6634457 152.6532049 114.6702491
v 48.1903309 152.2966812 114.5830533
v 47.5237576 149.3748025 114.3915501
v 46.7879086 149.3533955 114.3510203
v 45.8818815 152.2140616 114.1568061
v 46.3482326 152.5453099 114.1275051
v 46.9608596 152.7048699 114.0907350
v 48.7085187 151.4868105 113.9718904
v 48.7394563 150.7182130 113.9305941
v 48.5230900 150.1464217 113.8962017
v 46.9600343 149.3316183 113.7987163
v 46.0518478 152.3823105 113.5810116
v 46.7758958 152.6818464 113.5381139
v 48.3752719 149.9243840 113.3223202
v 45.7022847 150.0044552 113.1585548
v 45.4147873 150.7092872 113.1175168
v 46.5361314 152.6296518 112.9910408
v 48.0765267 149.6578687 114.9916577
v 46.7650719 149.3571287 114.9141136
v 46.5852100 149.8498351 114.6384188
v 46.0968853 149.6197449 114.8740178
v 45.5447359 150.2823025 114.8297177
v 45.8287674 151.1511473 114.5319437
v 45.3709137 151.1453496 114.7817480
v 45.6248527 151.8907276 114.7409955
v 46.5226896 152.1528641 114.4421245
v 46.0866455 152.3976948 114.7041912
v 47.6553232 152.5979713 114.6170633
v 47.1946405 152.7108499 114.6424743
v 47.7678379 152.0719142 114.3472306
v 48.1363338 151.6904636 114.3102606
v 48.5895678 151.7630492 114.5480696
v 48.7627391 151.1371534 114.5144214
v 48.6858317 150.5075663 114.4797970
v 48.3340398 149.8747629 114.4413813
v 47.4374972 149.8118362 114.1457522
v 46.2301923 150.0828325 114.0525627
v 46.2031201 149.5660150 114.3194967
v 45.9349045 150.4856209 114.0176778
v 45.6634390 150.0712823 114.2791549
v 45.3797006 150.9529122 114.2297961
v 45.5521544 151.7681969 114.1848313
v 46.7356972 152.2338329 113.8608824
v 47.5722514 152.6323568 114.0590169
v 47.6791150 152.1224538 113.7928023
v 48.2226545 152.2675736 114.0190246
v 48.2590229 150.5835480 113.6648079
v 47.9715404 150.1371704 113.6278146
v 48.1372927 149.7052243 113.8644872
v 47.5870685 149.4078684 113.8317295
v 46.2602466 150.0637719 113.4945440
v 46.3778249 149.4786292 113.7664992
v 45.9834213 150.3876918 113.4649786
v 45.8066412 149.8921249 113.7287219
v 45.5366332 150.3239298 113.7014320
v 45.3787167 150.9843850 113.6650149
v 45.9181808 151.5201947 113.3754247
v 45.5842937 151.8221430 113.6199364
v 46.2162062 151.9376531 113.3394026
v 46.6508776 152.2053627 113.3057085
v 47.3760519 152.6788650 113.5076879
v 47.9363740 152.4694643 113.4747059
v 48.3330015 152.1358267 113.4475496
v 48.6151932 151.7059798 113.4202232
v 48.7506892 151.2182257 113.3935775
v 48.2389108 150.5537301 113.1013840
v 47.7543536 149.4688410 113.2799889
v 47.1472139 149.3276814 113.2457360
v 46.4692042 149.4332202 113.2088996
v 45.9582246 151.6136337 112.8115947
v 45.4107853 151.3423424 113.0855528
v 45.8041793 152.1477398 113.0369855
v 45.4822094 151.5950960 111.3819126
v 45.8086490 152.1360248 111.3496249
v 46.4422951 152.5774826 111.3079515
v 47.1119688 152.2778939 112.7113839
v 47.2309198 152.7039875 112.9523562
v 47.8550760 152.0006168 112.6499969
v 47.9877748 152.4559713 112.9107012
v 48.4622809 151.9724825 112.8744948
v 48.7566344 151.1655104 112.8279943
v 48.6945924 150.5275232 112.7941734
v 48.0487203 150.2283667 112.5126365
v 48.4533974 150.0416302 112.7648104
v 47.9844577 149.5901137 112.7307213
v 47.4928103 149.3842385 112.7030614
v 46.9937199 149.3352975 112.6765888
v 46.7503417 149.8005020 112.4050769
v 46.5238755 149.4194080 112.6496837
v 46.0097875 149.7082615 112.6196749
v 45.6412755 150.1240517 112.5888894
v 45.4642962 150.5286941 112.5661761
v 45.3854003 150.9945093 112.5418563
v 46.0713339 151.7683150 112.2345049
v 45.5088204 151.6848005 112.5054341
v 45.9933903 152.3186323 112.4608774
v 46.5169829 152.6113617 112.4302644
v 46.9863437 152.2731693 112.1582675
v 47.1327435 152.7130217 112.3943731
v 47.6204094 152.6139264 112.3686699
v 48.0409598 152.3972727 112.3450332
v 48.2892928 151.3367690 112.0341704
v 48.5026844 151.9396748 112.3113180
v 48.7559351 151.1980005 112.2673672
v 48.3207110 150.8369779 111.9946022
v 48.2258066 149.7719394 112.1861055
v 47.3165618 149.7816273 111.8843776
v 47.5380836 149.3858286 112.1409373
v 46.7965959 149.3491601 112.1020229
v 46.2262390 149.5604897 112.0707737
v 45.8602620 149.8405672 112.0454777
v 45.5283047 150.3414408 112.0149680
v 45.3905192 150.8905598 111.9848111
v 45.4250141 151.3519720 111.9588189
v 45.6038193 151.8410651 111.9318546
v 45.9164149 152.2450056 111.9049434
v 46.5406648 152.6306359 111.8623850
v 47.4815102 152.6665211 111.8155084
v 48.2344519 152.2544923 111.7672820
v 48.5681040 151.7906457 111.7386129
v 48.7547470 151.2724824 111.7097371
v 48.6963277 150.5181405 111.6669949
v 47.8434335 150.0172274 111.3639325
v 48.2240761 149.7744711 111.6214444
v 47.2791929 149.3424775 111.5667190
v 46.5828487 149.3898235 111.5275686
v 46.0059294 150.1020605 111.2996681
v 45.3825402 150.8006357 111.4257126
v 48.6388219 151.6562701 112.8545553
v 48.3224521 150.8147792 113.0544176
v 47.1356789 149.7618424 112.9315952
v 46.3292100 150.0072198 112.8707857
v 45.9553988 150.4210884 112.8307711
v 45.9745993 151.6328371 112.7411119
v 46.3329411 152.0352488 112.7071757
v 48.3087109 150.7562047 112.4868515
v 48.6742684 150.4454299 112.2271327
v 46.1883740 150.1188203 112.2945729
v 45.9453480 150.4696928 112.2665992
v 48.3290635 151.1253092 111.9495524
v 48.0518103 150.2198098 111.8830084
v 47.7008341 149.4474594 111.5884318
v 46.9292552 149.7707487 111.7933192
v 45.7985299 149.8935773 111.4771434
v 47.0250187 152.6740495 111.3000412
v 47.6332808 152.5096580 111.3000467
v 47.3338339 149.4084720 114.9910580
v 46.4928483 149.5308204 114.9555751
v 45.9435884 149.9360689 114.9309833
v 45.7592942 150.2086326 114.9187732
v 45.7247383 150.2733388 114.9160632
v 45.6933133 150.3395525 114.9134264
v 45.6064116 150.5723717 114.9037150
v 45.5613170 151.1960819 114.8811094
v 45.8296196 151.8305985 114.8555733
v 46.6374337 152.3968602 114.8155486
v 47.2090730 152.4436790 114.7919250
v 47.7427385 152.2485032 114.7700170
v 48.0770424 150.1815490 114.6681934
v 45.8514380 150.6847590 114.4980774
v 46.1718817 151.8932905 114.4046469
v 48.2826612 151.3488257 114.2170560
v 45.9056578 151.4905971 113.8796715
v 48.3261274 150.9266406 113.6251441
v 48.7077574 150.5752771 113.3593804
v 47.5343842 149.8396814 113.5229512
v 45.9757605 151.6217017 113.3036460
v 46.4112754 152.5099881 114.9999314
v 46.1760365 152.1767893 114.8361753
f 126 416 125
f 416 1 125
f 125 1 2
f 2 1 3
f 4 1 5
f 3 1 4
f 6 5 1
f 6 555 5
f 6 7 555
f 7 8 555
f 555 8 9
f 10 9 8
f 9 10 12
f 11 12 10
f 12 11 13
f 14 13 11
f 13 14 15
f 16 17 19
f 57 17 16
f 17 18 19
f 18 21 19
f 18 20 21
f 20 23 21
f 20 22 23
f 22 25 23
f 22 24 25
f 24 27 25
f 24 26 27
f 26 30 27
f 26 28 30
f 28 29 30
f 29 519 30
f 29 31 519
f 31 32 519
f 31 33 32
f 33 34 32
f 33 34 34
f 34 35 34
f 34 35 35
f 35 36 35
f 82 37 38
f 37 494 38
f 37 41 494
f 37 39 41
f 39 40 41
f 40 43 41
f 40 42 43
f 42 498 43
f 42 536 498
f 536 501 498
f 536 44 501
f 44 45 501
f 44 537 45
f 537 47 45
f 537 46 47
f 46 503 47
f 46 539 503
f 539 49 503
f 539 48 49
f 48 52 49
f 48 50 52
f 50 51 52
f 51 54 52
f 51 53 54
f 53 56 54
f 53 55 56
f 56 55 58
f 55 57 58
f 57 16 58
f 531 59 60
f 59 472 60
f 59 61 472
f 61 63 472
f 61 62 63
f 62 474 63
f 62 64 474
f 64 66 474
f 64 65 66
f 65 67 66
f 65 532 67
f 532 68 67
f 532 69 68
f 69 479 68
f 69 70 479
f 70 72 479
f 70 71 72
f 71 73 72
f 71 74 73
f 74 484 73
f 74 75 484
f 75 76 484
f 75 534 76
f 534 78 76
f 534 535 78
f 535 77 78
f 77 79 78
f 77 81 79
f 77 80 81
f 80 490 81
f 80 82 490
f 82 38 490
f 124 83 455
f 83 456 455
f 456 83 85
f 83 84 85
f 84 87 85
f 84 86 87
f 86 89 87
f 86 88 89
f 88 91 89
f 88 90 91
f 90 92 91
f 90 526 92
f 526 462 92
f 526 93 462
f 93 94 462
f 93 95 94
f 95 96 94
f 95 527 96
f 527 98 96
f 527 97 98
f 97 99 98
f 97 528 99
f 528 100 99
f 528 529 100
f 529 101 100
f 529 103 101
f 529 102 103
f 102 466 103
f 102 530 466
f 530 531 466
f 531 60 466
f 394 104 105
f 104 439 105
f 104 106 439
f 106 107 439
f 106 108 107
f 108 441 107
f 108 109 441
f 109 111 441
f 109 110 111
f 110 112 111
f 110 560 112
f 560 443 112
f 560 113 443
f 113 114 443
f 114 444 443
f 114 562 444
f 562 115 444
f 562 117 115
f 562 116 117
f 116 119 117
f 116 118 119
f 118 447 119
f 118 120 447
f 120 449 447
f 120 121 449
f 121 123 449
f 121 122 123
f 122 453 123
f 122 563 453
f 563 455 453
f 563 124 455
f 4 3 3
f 3 2 3
f 3 125 2
f 126 127 416
f 127 128 416
f 127 556 128
f 556 129 128
f 556 419 129
f 556 130 419
f 130 131 419
f 131 557 374
f 130 557 131
f 135 132 134
f 133 135 134
f 134 132 137
f 133 564 135
f 136 564 133
f 137 132 139
f 132 14 139
f 138 564 136
f 138 142 564
f 139 14 140
f 141 142 138
f 140 14 143
f 14 11 143
f 141 145 142
f 144 145 141
f 143 11 146
f 147 145 144
f 146 10 148
f 11 10 146
f 147 151 145
f 8 148 10
f 147 149 151
f 7 150 8
f 8 153 148
f 151 149 154
f 149 152 154
f 8 155 153
f 150 155 8
f 154 156 163
f 152 156 154
f 157 158 150
f 150 158 155
f 159 160 157
f 157 160 158
f 414 161 159
f 159 161 160
f 414 164 161
f 156 162 163
f 543 164 414
f 163 162 165
f 543 166 164
f 165 166 543
f 162 166 165
f 138 183 167
f 141 138 167
f 141 167 168
f 144 141 168
f 144 168 169
f 147 144 169
f 147 169 170
f 149 147 170
f 149 170 171
f 152 149 171
f 152 171 172
f 156 152 172
f 156 172 198
f 162 156 198
f 162 198 199
f 166 162 199
f 166 199 173
f 166 173 174
f 164 166 174
f 164 174 201
f 161 164 201
f 160 161 201
f 158 160 201
f 155 158 201
f 155 201 175
f 153 155 175
f 153 175 185
f 148 153 185
f 148 185 176
f 148 176 177
f 146 148 177
f 146 177 178
f 143 146 178
f 140 143 178
f 140 178 189
f 139 140 189
f 139 189 179
f 137 139 179
f 137 179 180
f 134 137 180
f 134 180 181
f 133 181 182
f 133 134 181
f 136 133 182
f 136 182 183
f 138 136 183
f 184 175 201
f 185 175 184
f 185 184 186
f 186 176 185
f 176 186 187
f 187 177 176
f 187 178 177
f 178 187 188
f 188 189 178
f 188 179 189
f 179 188 190
f 190 180 179
f 191 180 190
f 191 181 180
f 191 182 181
f 182 191 192
f 192 183 182
f 183 192 193
f 193 167 183
f 167 193 194
f 194 168 167
f 194 169 168
f 194 170 169
f 195 170 194
f 195 171 170
f 171 195 196
f 196 172 171
f 172 196 197
f 197 198 172
f 197 199 198
f 199 197 200
f 200 173 199
f 200 174 173
f 200 201 174
f 201 200 184
f 197 184 200
f 195 197 196
f 194 193 195
f 192 191 193
f 191 190 193
f 188 187 190
f 184 187 186
f 223 202 184
f 223 184 197
f 203 223 197
f 207 204 206
f 207 205 204
f 225 206 208
f 225 207 206
f 210 225 209
f 210 209 211
f 226 210 211
f 212 228 229
f 214 212 213
f 217 216 215
f 231 217 218
f 220 231 232
f 220 232 219
f 220 219 221
f 203 220 221
f 223 203 222
f 202 223 224
f 202 204 205
f 202 233 204
f 225 208 209
f 226 211 227
f 228 226 227
f 228 227 229
f 213 230 214
f 216 213 215
f 216 230 213
f 231 218 232
f 203 221 222
f 202 224 233
f 207 225 187
f 207 187 184
f 205 207 184
f 202 205 184
f 226 228 190
f 210 190 187
f 210 226 190
f 225 210 187
f 214 230 193
f 212 214 193
f 212 193 190
f 228 212 190
f 217 231 195
f 217 195 193
f 216 217 193
f 230 216 193
f 220 203 197
f 220 197 195
f 231 220 195
f 234 219 232
f 235 234 232
f 236 235 232
f 236 232 218
f 237 236 218
f 237 218 217
f 286 237 217
f 288 286 217
f 288 217 215
f 238 288 215
f 239 238 215
f 239 215 213
f 240 239 213
f 241 240 213
f 242 241 213
f 242 213 212
f 243 242 212
f 243 212 229
f 295 243 229
f 244 295 229
f 299 244 229
f 299 229 227
f 245 299 227
f 245 227 211
f 246 245 211
f 247 246 211
f 247 211 209
f 248 247 209
f 249 248 209
f 249 209 208
f 258 249 208
f 258 208 206
f 259 258 206
f 250 259 206
f 250 206 204
f 263 250 204
f 265 263 204
f 265 204 233
f 251 265 233
f 251 233 224
f 252 251 224
f 268 252 224
f 268 224 223
f 270 268 223
f 270 223 222
f 271 270 222
f 273 271 222
f 273 222 221
f 275 273 221
f 279 275 221
f 280 279 221
f 280 221 219
f 234 280 219
f 248 253 247
f 254 253 248
f 249 254 248
f 255 254 249
f 257 254 255
f 258 255 249
f 257 255 256
f 256 255 258
f 256 258 259
f 260 256 259
f 257 256 260
f 262 257 260
f 250 260 259
f 261 260 250
f 261 250 263
f 262 260 261
f 264 261 263
f 264 263 265
f 267 261 264
f 251 264 265
f 267 264 251
f 267 251 252
f 268 266 252
f 266 267 252
f 269 267 266
f 269 266 268
f 269 268 270
f 271 269 270
f 272 269 271
f 274 272 271
f 273 274 271
f 277 272 274
f 275 274 273
f 277 274 276
f 276 274 275
f 276 275 279
f 278 276 279
f 278 277 276
f 278 279 280
f 281 277 278
f 234 278 280
f 281 278 234
f 281 234 282
f 282 234 235
f 283 282 235
f 283 235 236
f 285 282 283
f 284 283 236
f 284 236 237
f 285 283 284
f 286 284 237
f 287 285 284
f 286 287 284
f 289 285 287
f 290 287 286
f 289 287 290
f 290 286 288
f 290 288 238
f 290 238 239
f 291 289 290
f 291 290 239
f 292 291 239
f 292 239 240
f 293 291 292
f 292 240 241
f 292 241 242
f 293 292 242
f 293 242 243
f 294 293 243
f 296 243 295
f 294 243 296
f 297 294 296
f 296 295 244
f 298 296 244
f 297 296 298
f 298 244 299
f 300 298 299
f 245 300 299
f 300 245 246
f 301 298 300
f 246 301 300
f 246 247 253
f 301 246 253
f 301 253 254
f 302 285 289
f 303 302 289
f 304 285 302
f 305 303 289
f 304 282 285
f 305 289 291
f 306 282 304
f 306 281 282
f 308 305 291
f 308 291 293
f 307 277 281
f 307 281 306
f 310 293 294
f 310 308 293
f 309 277 307
f 272 277 309
f 313 310 294
f 297 313 294
f 311 272 309
f 312 272 311
f 298 313 297
f 269 272 312
f 267 269 312
f 298 315 313
f 267 312 314
f 301 315 298
f 254 315 301
f 254 317 315
f 267 314 316
f 261 267 316
f 254 319 317
f 257 319 254
f 262 261 316
f 262 316 318
f 257 318 319
f 262 318 257
f 320 310 321
f 308 310 320
f 321 310 322
f 310 313 322
f 322 313 323
f 313 315 323
f 323 315 324
f 315 317 324
f 324 317 325
f 317 319 325
f 325 319 326
f 319 318 326
f 318 316 326
f 326 316 327
f 316 314 327
f 327 314 328
f 314 312 328
f 328 312 329
f 329 312 330
f 312 311 330
f 311 309 330
f 330 309 331
f 309 307 331
f 331 307 332
f 307 306 332
f 332 306 333
f 306 304 333
f 333 304 334
f 304 302 334
f 334 302 335
f 302 303 335
f 303 305 335
f 335 305 336
f 305 308 336
f 336 308 320
f 337 322 338
f 337 321 322
f 338 322 323
f 340 338 323
f 337 320 321
f 339 320 337
f 340 323 324
f 339 336 320
f 341 340 324
f 341 324 325
f 342 336 339
f 343 341 325
f 342 335 336
f 343 325 326
f 344 335 342
f 334 335 344
f 346 343 326
f 327 346 326
f 333 344 345
f 333 334 344
f 327 347 346
f 328 347 327
f 332 333 345
f 328 349 347
f 332 345 348
f 331 332 348
f 329 349 328
f 329 350 349
f 330 350 329
f 330 331 348
f 330 348 350
f 347 349 351
f 351 349 352
f 349 350 352
f 352 350 353
f 350 348 353
f 353 345 354
f 348 345 353
f 354 345 355
f 345 344 355
f 355 344 356
f 344 342 356
f 356 342 357
f 342 339 357
f 357 339 358
f 339 337 358
f 358 337 359
f 337 338 359
f 359 338 360
f 338 340 360
f 360 340 361
f 361 340 362
f 340 341 362
f 341 343 362
f 362 343 363
f 343 346 363
f 363 346 364
f 346 347 364
f 364 347 351
f 35 352 36
f 34 352 35
f 36 353 365
f 352 353 36
f 33 352 34
f 31 352 33
f 365 353 523
f 31 351 352
f 353 354 523
f 29 351 31
f 366 351 29
f 366 364 351
f 354 355 523
f 523 355 368
f 366 367 364
f 355 356 368
f 367 363 364
f 356 370 368
f 357 370 356
f 363 367 362
f 367 369 362
f 358 370 357
f 362 369 361
f 369 542 361
f 358 371 370
f 361 542 360
f 359 371 358
f 359 372 371
f 359 373 372
f 542 541 360
f 359 541 373
f 360 541 359
f 374 557 422
f 557 375 422
f 422 375 377
f 375 376 377
f 376 426 377
f 376 378 426
f 378 379 426
f 379 427 426
f 379 558 427
f 558 381 427
f 558 380 381
f 380 382 381
f 380 383 382
f 383 384 382
f 383 386 384
f 383 385 386
f 385 432 386
f 385 387 432
f 387 389 432
f 387 388 389
f 388 433 389
f 388 390 433
f 390 435 433
f 390 391 435
f 391 393 435
f 391 392 393
f 392 559 393
f 393 559 395
f 559 394 395
f 394 105 395
f 7 157 150
f 6 414 7
f 7 414 157
f 1 415 396
f 382 429 381
f 389 399 432
f 117 446 115
f 123 451 449
f 92 461 91
f 414 6 396
f 396 6 1
f 417 415 416
f 416 415 1
f 417 416 128
f 417 128 418
f 128 129 418
f 418 129 420
f 129 419 420
f 420 419 131
f 131 421 420
f 374 421 131
f 422 423 374
f 374 423 421
f 397 422 377
f 423 422 397
f 397 377 425
f 426 424 377
f 377 424 425
f 398 424 426
f 398 426 427
f 428 427 381
f 398 427 428
f 381 429 428
f 384 430 382
f 382 430 429
f 384 431 430
f 384 386 431
f 431 386 399
f 399 386 432
f 389 400 399
f 389 434 400
f 433 434 389
f 436 433 435
f 434 433 436
f 437 435 393
f 436 435 437
f 395 438 393
f 393 438 437
f 105 401 395
f 395 401 438
f 105 402 401
f 439 402 105
f 403 439 107
f 402 439 403
f 441 440 107
f 107 440 403
f 442 441 111
f 440 441 442
f 442 111 404
f 112 404 111
f 112 405 404
f 443 405 112
f 406 443 444
f 405 443 406
f 445 444 115
f 406 444 445
f 115 446 445
f 119 407 117
f 117 407 446
f 119 448 407
f 450 447 449
f 448 447 450
f 119 447 448
f 450 449 451
f 123 452 451
f 123 453 452
f 452 453 454
f 408 453 455
f 454 453 408
f 408 455 456
f 409 456 85
f 408 456 409
f 87 457 85
f 85 457 409
f 458 87 89
f 457 87 458
f 460 459 91
f 91 459 89
f 89 459 458
f 461 460 91
f 461 92 561
f 92 462 561
f 410 462 94
f 561 462 410
f 96 463 94
f 94 463 410
f 96 464 463
f 98 464 96
f 98 465 464
f 99 465 98
f 99 100 465
f 465 100 411
f 100 101 411
f 103 412 101
f 101 412 411
f 466 467 103
f 103 467 412
f 467 466 468
f 60 468 466
f 413 468 60
f 368 524 523
f 370 469 368
f 370 470 469
f 370 371 470
f 371 372 471
f 372 372 471
f 372 373 372
f 472 413 60
f 413 472 473
f 473 63 475
f 472 63 473
f 474 475 63
f 66 476 474
f 474 476 475
f 66 67 476
f 525 67 477
f 476 67 525
f 477 67 478
f 478 68 480
f 67 68 478
f 68 479 480
f 480 479 481
f 479 72 481
f 481 72 482
f 73 482 72
f 484 483 73
f 73 483 482
f 484 485 483
f 78 486 76
f 76 486 484
f 484 486 485
f 486 78 487
f 79 488 78
f 78 488 487
f 81 489 79
f 79 489 488
f 81 491 489
f 81 490 491
f 491 490 492
f 490 38 492
f 492 38 493
f 494 493 38
f 493 494 495
f 495 41 496
f 494 41 495
f 43 497 41
f 41 497 496
f 43 499 497
f 43 498 499
f 499 498 500
f 498 501 500
f 500 501 533
f 533 45 502
f 501 45 533
f 47 502 45
f 47 503 502
f 502 503 504
f 504 503 505
f 505 49 506
f 503 49 505
f 52 506 49
f 506 52 507
f 507 52 508
f 54 508 52
f 54 509 508
f 56 509 54
f 56 510 509
f 58 510 56
f 58 511 510
f 16 511 58
f 16 512 511
f 16 19 512
f 512 19 513
f 513 19 514
f 21 514 19
f 21 23 514
f 514 23 515
f 23 25 515
f 27 516 25
f 25 516 515
f 516 27 517
f 30 518 27
f 27 518 517
f 518 30 520
f 30 519 520
f 520 519 538
f 35 521 34
f 34 521 32
f 32 521 519
f 519 521 538
f 36 522 35
f 35 522 521
f 365 522 36
f 523 522 365
f 540 522 523
f 540 523 524
f 524 368 469
f 511 80 510
f 369 22 20
f 369 24 22
f 367 24 369
f 367 26 24
f 366 26 367
f 366 28 26
f 366 29 28
f 83 413 84
f 84 413 473
f 86 473 475
f 84 473 86
f 88 476 525
f 475 476 86
f 86 476 88
f 90 525 477
f 88 525 90
f 478 526 477
f 477 526 90
f 93 478 480
f 526 478 93
f 481 93 480
f 95 481 482
f 93 481 95
f 483 527 482
f 482 527 95
f 527 485 97
f 483 485 527
f 486 528 485
f 485 528 97
f 486 529 528
f 487 529 486
f 102 488 489
f 487 488 529
f 529 488 102
f 102 489 491
f 491 530 102
f 491 531 530
f 492 531 491
f 493 531 492
f 59 531 493
f 59 495 61
f 493 495 59
f 61 496 62
f 495 496 61
f 497 62 496
f 499 62 497
f 64 62 499
f 500 65 499
f 499 65 64
f 533 532 500
f 500 532 65
f 69 533 502
f 532 533 69
f 502 70 69
f 502 504 70
f 70 504 71
f 505 74 504
f 504 74 71
f 506 75 505
f 505 75 74
f 507 534 506
f 506 534 75
f 508 535 507
f 507 535 534
f 509 77 508
f 508 77 535
f 77 510 80
f 509 510 77
f 512 80 511
f 82 80 512
f 82 512 513
f 82 513 37
f 514 37 513
f 39 514 515
f 37 514 39
f 39 515 40
f 515 516 40
f 40 516 42
f 42 516 517
f 517 536 42
f 536 518 44
f 517 518 536
f 520 537 518
f 518 537 44
f 46 520 538
f 537 520 46
f 46 538 521
f 522 539 521
f 521 539 46
f 48 522 540
f 539 522 48
f 48 540 50
f 524 51 540
f 540 51 50
f 524 53 51
f 53 469 55
f 524 469 53
f 470 57 469
f 469 57 55
f 371 57 470
f 17 57 371
f 541 17 373
f 471 17 371
f 372 17 471
f 373 17 372
f 18 17 541
f 18 541 20
f 20 541 542
f 20 542 369
f 157 157 150
f 414 159 157
f 157 159 157
f 396 543 414
f 415 543 396
f 415 544 543
f 417 544 415
f 417 545 544
f 418 545 417
f 418 546 545
f 418 547 546
f 418 548 547
f 418 549 548
f 420 549 418
f 420 550 549
f 421 550 420
f 423 551 421
f 423 552 565
f 425 552 397
f 425 553 552
f 398 554 424
f 429 13 428
f 436 556 127
f 405 383 380
f 407 388 387
f 421 551 550
f 423 565 551
f 397 552 423
f 553 424 554
f 425 424 553
f 554 398 15
f 15 428 13
f 398 428 15
f 429 12 13
f 429 430 12
f 12 430 9
f 431 555 430
f 430 555 9
f 399 5 431
f 431 5 555
f 4 5 399
f 399 400 4
f 4 400 3
f 3 400 125
f 125 400 126
f 434 126 400
f 127 126 434
f 434 436 127
f 437 556 436
f 556 437 130
f 437 438 130
f 401 557 438
f 438 557 130
f 402 375 401
f 401 375 557
f 402 403 375
f 375 403 376
f 403 440 376
f 440 442 376
f 376 442 378
f 404 379 442
f 442 379 378
f 380 558 404
f 404 558 379
f 405 380 404
f 405 406 383
f 383 445 385
f 406 445 383
f 445 446 385
f 385 446 387
f 407 387 446
f 407 448 388
f 448 450 388
f 388 450 390
f 450 451 390
f 390 451 391
f 451 452 391
f 391 452 392
f 454 559 452
f 452 559 392
f 394 454 408
f 559 454 394
f 408 104 394
f 408 409 104
f 104 409 106
f 409 457 106
f 106 457 108
f 108 458 109
f 457 458 108
f 110 459 460
f 109 459 110
f 458 459 109
f 110 460 461
f 561 560 461
f 461 560 110
f 113 561 410
f 560 561 113
f 410 114 113
f 463 562 410
f 410 562 114
f 463 464 562
f 562 464 116
f 464 465 116
f 116 465 118
f 411 118 465
f 411 120 118
f 121 120 411
f 411 412 121
f 467 122 412
f 412 122 121
f 468 563 467
f 467 563 122
f 124 563 468
f 124 468 83
f 83 468 413
f 151 154 548
f 546 154 545
f 154 163 545
f 545 163 544
f 163 165 544
f 165 543 544
f 15 14 554
f 132 554 14
f 132 553 554
f 135 553 132
f 135 552 553
f 564 552 135
f 552 564 565
f 142 565 564
f 565 142 551
f 145 551 142
f 551 145 550
f 145 151 550
f 549 550 151
f 548 549 151
f 154 547 548
f 546 547 154
f 548 547 547
f 547 547 546
