# Render LOD; unchanged CAD body-local coordinates in mm
v -24.9413672 151.1949492 106.6752964
v -24.5111849 152.1254131 106.9706737
v -25.2270161 151.4596501 106.7609558
v -24.6422904 150.9428531 106.5955445
v -24.2611810 151.8927971 106.8968294
v -24.7484932 152.3694880 107.0474718
v -25.4982605 151.7381018 106.8495690
v -24.3305180 150.7056535 106.5217002
v -23.9994583 151.6727860 106.8288926
v -24.9728618 152.6238759 107.1301774
v -25.7546120 152.0303041 106.9411360
v -24.0065385 150.4833506 106.4508097
v -23.7267491 151.4653796 106.7609558
v -25.1835584 152.8897228 107.2128831
v -25.9955825 152.3328195 107.0386105
v -23.6715724 150.2770901 106.3858267
v -23.4432975 151.2717239 106.7018804
v -25.3800946 153.1647367 107.3014962
v -26.2201953 152.6467938 107.1360850
v -23.3261082 150.0868721 106.3237974
v -23.1500801 151.0906731 106.6428049
v -25.5622263 153.4477719 107.3901094
v -26.4282063 152.9710810 107.2394670
v -22.9711223 149.9138425 106.2706295
v -22.8478294 150.9245188 106.5896370
v -25.7292210 153.7399743 107.4846302
v -26.6188830 153.3056814 107.3458028
v -22.6075914 149.7580013 106.2204154
v -22.5372778 150.7732611 106.5423766
v -25.8805905 154.0401978 107.5791509
v -26.7919814 153.6483029 107.4550924
v -22.2362478 149.6182025 106.1761088
v -22.2191577 150.6357542 106.4980700
v -26.0160906 154.3472967 107.6766254
v -26.9470130 153.9989457 107.5643820
v -21.8942016 150.5142897 106.4596710
v -21.8580682 149.4978839 106.1377098
v -26.1354772 154.6589792 107.7740999
v -27.0834897 154.3553180 107.6795792
v -21.4740291 149.3947537 106.1052183
v -21.5633860 150.4088676 106.4271795
v -26.2382620 154.9775371 107.8745282
v -27.2009232 154.7197115 107.7947763
v -21.0851072 149.3099577 106.0786343
v -21.2271992 150.3183422 106.3976418
v -26.3244450 155.2995326 107.9779102
v -27.2993133 155.0875427 107.9099734
v -20.6922789 149.2434960 106.0579579
v -20.8871061 150.2438593 106.3740116
v -26.5513002 156.7826812 108.4478012
v -20.2965209 149.1965144 106.0431890
v -20.5433509 150.1865647 106.3562889
v -19.8988098 149.1678671 106.0343277
v -20.1969100 150.1453126 106.3444739
v -19.8490043 150.1201030 106.3356125
v -19.5001221 149.1587000 106.0313739
v -19.1011902 149.1678671 106.0343277
v -19.5001221 150.1120817 106.3326588
v -18.7034791 149.1965144 106.0431890
v -19.1509957 150.1201030 106.3356125
v -18.3077211 149.2434960 106.0579579
v -18.8030900 150.1453126 106.3444739
v -18.4566491 150.1865647 106.3562889
v -17.9148928 149.3099577 106.0786343
v -27.5682031 156.7562956 108.4400340
v -17.5259709 149.3947537 106.1052183
v -18.1128939 150.2438593 106.3740116
v -26.3244450 158.2696834 108.9201637
v -27.2993133 158.4816733 108.9881005
v -17.7728008 150.3183422 106.3976418
v -26.2382620 158.5916789 109.0205920
v -27.2009232 158.8495045 109.1032976
v -16.7637522 149.6182025 106.1761088
v -17.5259599 149.8839547 106.2603414
v -26.1354772 158.9102367 109.1239741
v -27.0834897 159.2127521 109.2184948
v -16.3924086 149.7580013 106.2204154
v -17.1057984 150.5142897 106.4596710
v -26.0160906 159.2219192 109.2214486
v -26.9470130 159.5702702 109.3307381
v -16.7808423 150.6357542 106.4980700
v -16.0288777 149.9138425 106.2706295
v -25.8805905 159.5290182 109.3189231
v -26.7919814 159.9209130 109.4429815
v -16.4627222 150.7732611 106.5423766
v -15.6738918 150.0868721 106.3237974
v -25.7292210 159.8280958 109.4134438
v -26.6188830 160.2635346 109.5522711
v -16.1521706 150.9245188 106.5896370
v -15.7980890 150.5620603 106.4751838
v -25.5622263 160.1202982 109.5079645
v -26.4282063 160.5969890 109.6586069
v -14.9934615 150.4833506 106.4508097
v -25.3800946 160.4044793 109.5965777
v -26.2201953 160.9224222 109.7619890
v -15.5567025 151.2717239 106.7018804
v -25.1835584 160.6794932 109.6851909
v -25.9955825 161.2363965 109.8594635
v -14.6694820 150.7056535 106.5217002
v -15.2732509 151.4653796 106.7609558
v -25.3601835 161.2464726 109.8634881
v -14.3577096 150.9428531 106.5955445
v -15.0005417 151.6727860 106.8288926
v -24.7484932 161.1997280 109.8476484
v -25.4982605 161.8299683 110.0485049
v -14.0586328 151.1949492 106.6752964
v -14.7388190 151.8927971 106.8968294
v -24.5111849 161.4438029 109.9274003
v -25.2270161 162.1095658 110.1371181
v -13.7729839 151.4596501 106.7609558
v -14.4888151 152.1254131 106.9706737
v -24.2611810 161.6764188 109.9982908
v -24.9413672 162.3742668 110.2198238
v -13.5017395 151.7381018 106.8495690
v -14.2515068 152.3694880 107.0474718
v -23.9994583 161.8964300 110.0691813
v -24.6422904 162.6263629 110.2995756
v -13.2453880 152.0303041 106.9411360
v -14.0271382 152.6238759 107.1301774
v -23.7267491 162.1038364 110.1341643
v -24.3305180 162.8635624 110.3763737
v -13.0044175 152.3328195 107.0386105
v -13.8164416 152.8897228 107.2128831
v -23.4432975 162.2974920 110.1961936
v -24.0065385 163.0858654 110.4472643
v -23.1500801 162.4785429 110.2552690
v -12.7798047 152.6467938 107.1360850
v -13.6199054 153.1647367 107.3014962
v -23.6715724 163.2921259 110.5122473
v -22.8478294 162.6446972 110.3054832
v -12.5717937 152.9710810 107.2394670
v -13.4377737 153.4477719 107.3901094
v -23.3261082 163.4811980 110.5713227
v -22.5372778 162.7959548 110.3556973
v -12.8081301 153.5559788 107.4257910
v -22.9711223 163.6553735 110.6274444
v -22.2191577 162.9334618 110.3970501
v -12.2080186 153.6483029 107.4550924
v -13.1194095 154.0401978 107.5791509
v -22.6075914 163.8112147 110.6776585
v -21.8942016 163.0549263 110.4354492
v -12.0529870 153.9989457 107.5643820
v -12.9839094 154.3472967 107.6766254
v -22.2362478 163.9510135 110.7219651
v -21.5633860 163.1603483 110.4708944
v -11.9165103 154.3553180 107.6795792
v -12.8645228 154.6589792 107.7740999
v -21.8580682 164.0713321 110.7603642
v -21.2271992 163.2508738 110.5004322
v -11.7990768 154.7197115 107.7947763
v -12.7617380 154.9775371 107.8745282
v -21.4740291 164.1744623 110.7928557
v -20.8871061 163.3253567 110.5211086
v -11.7006867 155.0875427 107.9099734
v -21.0851072 164.2592583 110.8194396
v -11.4315408 156.7987472 108.4534253
v -20.6922789 164.3257200 110.8401160
v -20.1969100 163.4239034 110.5536001
v -20.5433509 163.3826513 110.5417850
v -20.2965209 164.3727016 110.8548849
v -19.8490043 163.4491130 110.5624614
v -19.8988098 164.4013488 110.8637462
v -19.5001221 163.4571342 110.5654152
v -19.5001221 164.4105160 110.8667000
v -19.1509957 163.4491130 110.5624614
v -19.1011902 164.4013488 110.8637462
v -18.8030900 163.4239034 110.5536001
v -18.7034791 164.3727016 110.8548849
v -18.2505288 163.8353939 110.6846623
v -18.1128939 163.3253567 110.5211086
v -12.4361517 156.5270307 108.3668970
v -17.9148928 164.2592583 110.8194396
v -17.7728008 163.2508738 110.5004322
v -11.7006867 158.4816733 108.9881005
v -12.6755550 158.2696834 108.9201637
v -17.4366140 163.1603483 110.4708944
v -17.5259709 164.1744623 110.7928557
v -11.7990768 158.8495045 109.1032976
v -12.7617380 158.5916789 109.0205920
v -17.1057984 163.0549263 110.4354492
v -17.1419318 164.0713321 110.7603642
v -11.9165103 159.2127521 109.2184948
v -12.8645228 158.9102367 109.1239741
v -16.7637522 163.9510135 110.7219651
v -16.7808423 162.9334618 110.3970501
v -12.0529870 159.5702702 109.3307381
v -12.9839094 159.2219192 109.2214486
v -16.3924086 163.8112147 110.6776585
v -16.4627222 162.7959548 110.3556973
v -12.2080186 159.9209130 109.4429815
v -13.1194095 159.5290182 109.3189231
v -16.0288777 163.6553735 110.6274444
v -16.1521706 162.6446972 110.3054832
v -12.3811170 160.2635346 109.5522711
v -13.2707790 159.8280958 109.4134438
v -15.6738918 163.4811980 110.5713227
v -15.8499199 162.4785429 110.2552690
v -12.5717937 160.5969890 109.6586069
v -13.4377737 160.1202982 109.5079645
v -15.3284276 163.2921259 110.5122473
v -15.5567025 162.2974920 110.1961936
v -12.7798047 160.9224222 109.7619890
v -13.6199054 160.4044793 109.5965777
v -14.9934615 163.0858654 110.4472643
v -15.2732509 162.1038364 110.1341643
v -13.0044175 161.2363965 109.8594635
v -13.8164416 160.6794932 109.6851909
v -14.6694820 162.8635624 110.3763737
v -15.0005417 161.8964300 110.0691813
v -13.2453880 161.5389119 109.9569380
v -14.0271382 160.9453401 109.7678965
v -14.3577096 162.6263629 110.2995756
v -14.7388190 161.6764188 109.9982908
v -13.5017395 161.8299683 110.0485049
v -14.2515068 161.1997280 109.8476484
v -14.0586328 162.3742668 110.2198238
v -14.4888151 161.4438029 109.9274003
v -13.7729839 162.1095658 110.1371181
v -19.5001221 209.9562658 -82.4075152
v -19.8490043 209.9642870 -82.4045614
v -20.1969100 209.9894966 -82.3957001
v -20.5433509 210.0307487 -82.3838850
v -20.8871061 210.0880433 -82.3632086
v -21.2271992 210.1625262 -82.3425322
v -21.5633860 210.2530517 -82.3129944
v -21.8942016 210.3584737 -82.2775492
v -22.2191577 210.4799382 -82.2391501
v -22.5372778 210.6174452 -82.1977973
v -22.8478294 210.7687028 -82.1475832
v -23.1500801 210.9348571 -82.0973690
v -23.4432975 211.1159080 -82.0382936
v -23.7267491 211.3095636 -81.9762643
v -23.9994583 211.5169700 -81.9112813
v -24.2611810 211.7369812 -81.8403908
v -24.5111849 211.9695971 -81.7695003
v -24.7484932 212.2136720 -81.6897484
v -24.9728618 212.4680599 -81.6099965
v -25.1835584 212.7339068 -81.5272909
v -25.3800946 213.0089207 -81.4386777
v -25.5622263 213.2931018 -81.3500645
v -25.7292210 213.5853042 -81.2555438
v -25.8805905 213.8843818 -81.1610231
v -26.0160906 214.1914808 -81.0635486
v -26.1354772 214.5031633 -80.9660741
v -26.3261540 157.2716119 101.7838487
v -26.3609326 157.1712092 102.5704947
v -26.2382620 214.8217211 -80.8626920
v -26.3332536 157.4061911 101.4569946
v -26.3244450 215.1437166 -80.7622637
v -26.3610666 157.6348595 101.1753715
v -26.5212655 158.3557858 103.8627310
v -26.3935378 215.4702957 -80.6588817
v -26.3900502 157.8532458 100.9787828
v -26.4243000 158.1218634 100.8356876
v -26.4457847 215.7991666 -80.5525459
v -26.9942940 158.1995683 100.7982939
v -26.4626307 158.4747980 100.7263980
v -26.4804532 216.1303292 -80.4491638
v -26.4784220 158.6598648 100.7028586
v -26.4892424 158.8368997 100.7057216
v -26.4977874 216.4626377 -80.3428280
v -26.4969617 159.0038794 100.7224517
v -26.4999847 159.1978555 100.7677508
v -26.4977874 216.7949463 -80.2394459
v -26.4983485 159.3787922 100.8330088
v -26.4919280 159.5255805 100.9124857
v -26.3531240 159.9139847 103.3367724
v -26.4824047 159.6711850 101.0049632
v -26.4804532 217.1272548 -80.1331101
v -26.4680018 159.8097616 101.1222036
v -26.4457847 217.4584175 -80.0267743
v -26.9874695 160.0178498 101.3524356
v -26.4240558 160.0801920 101.4589337
v -26.3261540 160.2234284 102.7320097
v -26.3935378 217.7872883 -79.9233923
v -26.3906945 160.2131695 101.7227234
v -26.3610666 160.2807230 102.0142429
v -26.3329616 160.3044902 102.3811525
v -26.3244450 218.1138674 -79.8200102
v -26.2382620 218.4358629 -79.7166282
v -26.1354772 218.7544208 -79.6161999
v -26.0160906 219.0661033 -79.5187254
v -25.8805905 219.3732022 -79.4212509
v -25.7292210 219.6734257 -79.3267302
v -25.5622263 219.9656281 -79.2322094
v -25.3800946 220.2486633 -79.1435962
v -25.1835584 220.5236772 -79.0549831
v -24.9728618 220.7895241 -78.9722774
v -24.5111849 221.2879869 -78.8127737
v -24.2611810 221.5206029 -78.7389294
v -23.9994583 221.7406140 -78.6709926
v -23.7267491 221.9480204 -78.6030558
v -23.4432975 222.1416761 -78.5439804
v -23.1500801 222.3227269 -78.4849049
v -22.8478294 222.4888812 -78.4317370
v -22.5372778 222.6401389 -78.3844766
v -22.2191577 222.7776458 -78.3401700
v -21.8942016 222.8991103 -78.3017710
v -21.5633860 223.0045324 -78.2692795
v -21.2271992 223.0950578 -78.2397418
v -20.8871061 223.1695407 -78.2161116
v -20.5433509 223.2268353 -78.1983889
v -19.8490043 223.2932970 -78.1777125
v -19.5001221 223.3013183 -78.1747588
v -19.1509957 223.2932970 -78.1777125
v -18.8030900 223.2680874 -78.1865739
v -18.4566491 223.2268353 -78.1983889
v -18.1128939 223.1695407 -78.2161116
v -17.7728008 223.0950578 -78.2397418
v -17.4366140 223.0045324 -78.2692795
v -17.1057984 222.8991103 -78.3017710
v -16.7808423 222.7776458 -78.3401700
v -16.4627222 222.6401389 -78.3844766
v -16.1521706 222.4888812 -78.4317370
v -15.8499199 222.3227269 -78.4849049
v -15.5567025 222.1416761 -78.5439804
v -15.2732509 221.9480204 -78.6030558
v -15.0005417 221.7406140 -78.6709926
v -14.7388190 221.5206029 -78.7389294
v -14.4888151 221.2879869 -78.8127737
v -14.2515068 221.0439120 -78.8895718
v -14.0271382 220.7895241 -78.9722774
v -13.8164416 220.5236772 -79.0549831
v -13.6199054 220.2486633 -79.1435962
v -13.4377737 219.9656281 -79.2322094
v -13.2707790 219.6734257 -79.3267302
v -13.1194095 219.3732022 -79.4212509
v -12.9839094 219.0661033 -79.5187254
v -12.8645228 218.7544208 -79.6161999
v -12.6738460 160.2268661 102.7201946
v -12.6156950 159.7114864 103.5901382
v -12.7617380 218.4358629 -79.7166282
v -12.6665248 160.3075277 102.3689043
v -12.6755550 218.1138674 -79.8200102
v -12.6369802 160.2772853 101.9906128
v -12.6103406 160.2147064 101.7323373
v -12.6064622 217.7872883 -79.9233923
v -12.5808270 160.1019639 101.4973327
v -12.5416982 157.3274646 103.3069413
v -12.5542153 217.4584175 -80.0267743
v -12.5349279 159.8326794 101.1458337
v -12.5195468 217.1272548 -80.1331101
v -12.5092927 159.5439147 100.9213470
v -12.5022126 216.7949463 -80.2394459
v -12.5000153 159.2150439 100.7736584
v -12.5022126 216.4626377 -80.3428280
v -12.5097810 158.8552339 100.7057216
v -12.5195468 216.1303292 -80.4491638
v -12.5197307 158.6830815 100.7016632
v -12.5354162 158.4965699 100.7234442
v -12.5542153 215.7991666 -80.5525459
v -12.5532032 158.3157379 100.7625996
v -12.5742351 158.1344682 100.8297800
v -12.6738460 157.2716119 101.7838487
v -12.6064622 215.4702957 -80.6588817
v -12.6064636 157.8781661 100.9626535
v -12.6372244 157.6486102 101.1606026
v -12.6755550 215.1437166 -80.7622637
v -12.6657908 157.4154702 101.4422668
v -12.7617380 214.8217211 -80.8626920
v -12.8645228 214.5031633 -80.9660741
v -12.9839094 214.1914808 -81.0635486
v -13.1194095 213.8843818 -81.1610231
v -13.2707790 213.5853042 -81.2555438
v -13.4377737 213.2931018 -81.3500645
v -13.2129886 212.7306306 -81.5276179
v -13.8164416 212.7339068 -81.5272909
v -14.0271382 212.4680599 -81.6099965
v -14.2515068 212.2136720 -81.6897484
v -14.4888151 211.9695971 -81.7695003
v -14.4617140 211.3323521 -81.9686376
v -15.0005417 211.5169700 -81.9112813
v -15.2732509 211.3095636 -81.9762643
v -15.4276764 210.6226321 -82.1958207
v -15.8499199 210.9348571 -82.0973690
v -16.1521706 210.7687028 -82.1475832
v -16.4627222 210.6174452 -82.1977973
v -16.7808423 210.4799382 -82.2391501
v -17.1057984 210.3584737 -82.2775492
v -17.4366140 210.2530517 -82.3129944
v -17.6976998 209.6888980 -82.4922350
v -18.1128939 210.0880433 -82.3632086
v -18.4566491 210.0307487 -82.3838850
v -18.8030900 209.9894966 -82.3957001
v -19.1509957 209.9642870 -82.4045614
v -24.9413672 211.0391332 -82.0619238
v -25.2270161 211.3038342 -81.9792181
v -24.6422904 210.7870371 -82.1416756
v -25.4982605 211.5834317 -81.8906049
v -24.3305180 210.5498376 -82.2184737
v -25.7546120 211.8744881 -81.7990380
v -24.0065385 210.3275346 -82.2893643
v -25.9955825 212.1770035 -81.7015635
v -23.6715724 210.1212741 -82.3543473
v -26.2201953 212.4909778 -81.6040890
v -23.3261082 209.9322020 -82.4134227
v -26.4282063 212.8164110 -81.5007069
v -22.9711223 209.7580265 -82.4695444
v -26.6188830 213.1498654 -81.3943711
v -22.6075914 209.6021853 -82.5197585
v -26.7919814 213.4924870 -81.2850815
v -22.2362478 209.4623865 -82.5640651
v -26.9470130 213.8431298 -81.1728381
v -21.8580682 209.3420679 -82.6024642
v -27.0834897 214.2006479 -81.0605948
v -21.4740291 209.2389377 -82.6349557
v -27.2009232 214.5638955 -80.9453976
v -21.0851072 209.1541417 -82.6615396
v -27.2993133 214.9317267 -80.8302005
v -20.6922789 209.0876800 -82.6822160
v -27.3784161 215.3041414 -80.7120496
v -20.2965209 209.0406984 -82.6969849
v -27.4379873 215.6811397 -80.5909449
v -19.8988098 209.0120512 -82.7058462
v -27.4775387 216.0592839 -80.4727940
v -19.5001221 209.0028840 -82.7088000
v -27.4975586 216.4385740 -80.3516893
v -19.1011902 209.0120512 -82.7058462
v -27.4975586 216.8190100 -80.2305846
v -18.7034791 209.0406984 -82.6969849
v -27.4775387 217.1983001 -80.1094799
v -18.3077211 209.0876800 -82.6822160
v -27.4379873 217.5775902 -79.9913290
v -17.9148928 209.1541417 -82.6615396
v -27.3784161 217.9534426 -79.8702243
v -27.2993133 218.3258573 -79.7520734
v -17.1419318 209.3420679 -82.6024642
v -27.2009232 218.6936885 -79.6368763
v -16.7637522 209.4623865 -82.5640651
v -27.0834897 219.0580820 -79.5216792
v -16.3924086 209.6021853 -82.5197585
v -26.9470130 219.4144543 -79.4064820
v -16.0288777 209.7580265 -82.4695444
v -26.7919814 219.7650971 -79.2971924
v -15.6738918 209.9322020 -82.4134227
v -26.6188830 220.1077186 -79.1879028
v -15.3284276 210.1212741 -82.3543473
v -26.4282063 220.4423190 -79.0815670
v -26.2201953 220.7666062 -78.9781850
v -25.9955825 221.0805805 -78.8807105
v -14.6694820 210.5498376 -82.2184737
v -25.7546120 221.3830959 -78.7832360
v -14.3577096 210.7870371 -82.1416756
v -25.1929679 221.2843010 -78.8142462
v -25.2270161 221.9537499 -78.6030558
v -13.7729839 211.3038342 -81.9792181
v -24.9413672 222.2184508 -78.5173964
v -13.5017395 211.5834317 -81.8906049
v -24.6422904 222.4705469 -78.4376445
v -13.2453880 211.8744881 -81.7990380
v -24.3305180 222.7077465 -78.3638002
v -13.0044175 212.1770035 -81.7015635
v -24.0065385 222.9300494 -78.2929097
v -23.6715724 223.1363099 -78.2279267
v -12.5717937 212.8164110 -81.5007069
v -23.3261082 223.3265279 -78.1658974
v -12.3811170 213.1498654 -81.3943711
v -22.9711223 223.4995575 -78.1127295
v -12.2080186 213.4924870 -81.2850815
v -22.6075914 223.6553987 -78.0625154
v -12.0529870 213.8431298 -81.1728381
v -22.2362478 223.7951975 -78.0182088
v -11.9165103 214.2006479 -81.0605948
v -21.8580682 223.9155161 -77.9798098
v -11.7990768 214.5638955 -80.9453976
v -21.4740291 224.0186463 -77.9473183
v -11.7006867 214.9317267 -80.8302005
v -21.0851072 224.1034423 -77.9207343
v -11.6215839 215.3041414 -80.7120496
v -20.6922789 224.1699040 -77.9000579
v -11.5620127 215.6811397 -80.5909449
v -20.0834098 223.7581327 -78.0312604
v -11.5224613 216.0592839 -80.4727940
v -19.8988098 224.2455329 -77.8764277
v -11.5024414 216.4385740 -80.3516893
v -19.5001221 224.2547000 -77.8734739
v -11.5024414 216.8190100 -80.2305846
v -19.1011902 224.2455329 -77.8764277
v -11.5224613 217.1983001 -80.1094799
v -18.7034791 224.2168856 -77.8852890
v -11.5620127 217.5775902 -79.9913290
v -18.3077211 224.1699040 -77.9000579
v -11.6215839 217.9534426 -79.8702243
v -17.9148928 224.1034423 -77.9207343
v -11.7006867 218.3258573 -79.7520734
v -17.5259709 224.0186463 -77.9473183
v -11.7990768 218.6936885 -79.6368763
v -17.1419318 223.9155161 -77.9798098
v -11.9165103 219.0580820 -79.5216792
v -16.7637522 223.7951975 -78.0182088
v -12.0529870 219.4144543 -79.4064820
v -16.3924086 223.6553987 -78.0625154
v -12.2080186 219.7650971 -79.2971924
v -16.0288777 223.4995575 -78.1127295
v -12.3811170 220.1077186 -79.1879028
v -15.6738918 223.3265279 -78.1658974
v -12.5717937 220.4423190 -79.0815670
v -15.3284276 223.1363099 -78.2279267
v -12.7798047 220.7666062 -78.9781850
v -14.9934615 222.9300494 -78.2929097
v -13.0044175 221.0805805 -78.8807105
v -14.6694820 222.7077465 -78.3638002
v -13.2453880 221.3830959 -78.7832360
v -14.3577096 222.4705469 -78.4376445
v -13.5017395 221.6752982 -78.6916690
v -14.0586328 222.2184508 -78.5173964
v -13.7729839 221.9537499 -78.6030558
v -27.3483864 157.2716119 101.7838487
v -27.3488746 157.2956756 101.7159119
v -27.3668120 157.5386533 101.2467346
v -27.4138170 157.9396666 100.9302083
v -27.4575189 158.3613547 100.7529820
v -27.4784258 158.6131624 100.7039597
v -27.4916991 158.8586716 100.7057216
v -27.4733397 157.3584217 103.3800588
v -27.4983278 159.0442041 100.7290828
v -27.5000000 159.2184816 100.7766121
v -27.4977931 159.4137088 100.8488339
v -27.4882811 159.6103764 100.9656536
v -27.4776572 159.7559178 101.0703467
v -27.4631342 159.8876822 101.2019554
v -27.3483864 160.2268661 102.7201946
v -27.3914341 159.7632392 103.5340103
v -27.4145495 160.1695715 101.6332062
v -27.3640029 160.3236209 102.1611310
v -27.3486305 160.2394709 102.6788418
v -11.6516136 160.2211366 102.7379173
v -11.6513695 160.2417627 102.6699805
v -11.6352090 160.3201663 102.1601823
v -11.5883803 160.1810304 101.6597902
v -12.0127190 160.0196182 101.3548280
v -11.5395514 159.9083082 101.2226318
v -11.5809180 159.5736555 103.7150391
v -11.9677755 159.7547768 101.0689849
v -11.5102541 159.5863127 100.9479310
v -11.9446989 159.3335276 100.8134698
v -11.5000000 159.1967096 100.7677508
v -12.0013746 159.0606621 100.7327054
v -11.5092775 158.8357538 100.7057216
v -11.5220068 158.6085384 100.7049544
v -11.5390631 158.4003150 100.7441206
v -11.6516136 157.2716119 101.7838487
v -11.5581379 157.2777052 103.1480325
v -11.5876478 157.9259159 100.9390696
v -11.5626246 158.1512383 100.8173887
v -11.6353735 157.5177234 101.2741736
v -11.6513695 157.2933838 101.7188657
f 1 2 3
f 4 5 1
f 1 5 2
f 3 6 7
f 2 6 3
f 8 9 4
f 4 9 5
f 7 10 11
f 6 10 7
f 12 13 8
f 8 13 9
f 11 14 15
f 10 14 11
f 16 17 12
f 12 17 13
f 15 18 19
f 14 18 15
f 20 21 16
f 16 21 17
f 18 22 19
f 19 22 23
f 24 25 20
f 20 25 21
f 22 26 23
f 23 26 27
f 28 29 24
f 24 29 25
f 27 30 31
f 26 30 27
f 32 33 28
f 28 33 29
f 31 34 35
f 30 34 31
f 32 36 33
f 37 36 32
f 35 38 39
f 34 38 35
f 40 41 37
f 37 41 36
f 38 42 39
f 39 42 43
f 44 45 40
f 40 45 41
f 43 46 47
f 42 46 43
f 48 49 44
f 44 49 45
f 47 50 65
f 46 50 47
f 51 52 48
f 48 52 49
f 53 54 51
f 51 54 52
f 53 55 54
f 56 55 53
f 57 58 56
f 56 58 55
f 59 60 57
f 57 60 58
f 61 62 59
f 59 62 60
f 61 63 62
f 64 63 61
f 66 67 64
f 64 67 63
f 50 68 65
f 65 68 69
f 66 70 67
f 74 70 66
f 68 71 69
f 69 71 72
f 71 75 72
f 72 75 76
f 77 78 73
f 73 78 74
f 76 79 80
f 75 79 76
f 77 81 78
f 82 81 77
f 79 83 80
f 80 83 84
f 82 85 81
f 82 86 85
f 84 87 88
f 83 87 84
f 86 89 85
f 86 90 89
f 87 91 88
f 88 91 92
f 92 94 95
f 91 94 92
f 93 96 90
f 95 97 98
f 94 97 95
f 93 99 96
f 99 100 96
f 97 101 98
f 99 102 100
f 102 103 100
f 101 104 105
f 102 106 103
f 106 107 103
f 105 108 109
f 104 108 105
f 106 110 107
f 107 110 111
f 108 112 109
f 112 113 109
f 110 114 111
f 111 114 115
f 116 117 112
f 112 117 113
f 114 118 115
f 115 118 119
f 116 120 117
f 120 121 117
f 118 122 119
f 119 122 123
f 120 124 121
f 124 125 121
f 124 126 125
f 122 127 123
f 123 127 128
f 126 129 125
f 126 130 129
f 127 131 128
f 128 131 132
f 130 133 129
f 130 134 133
f 131 135 132
f 134 136 133
f 137 136 134
f 135 138 139
f 137 140 136
f 141 140 137
f 139 142 143
f 138 142 139
f 141 144 140
f 145 144 141
f 143 146 147
f 142 146 143
f 145 148 144
f 149 148 145
f 147 150 151
f 146 150 147
f 149 152 148
f 153 152 149
f 151 154 171
f 150 154 151
f 153 155 152
f 154 156 171
f 153 157 155
f 158 157 159
f 159 157 153
f 158 160 157
f 161 160 158
f 161 162 160
f 163 162 161
f 163 164 162
f 165 164 163
f 165 166 164
f 167 166 165
f 167 168 166
f 169 168 167
f 170 172 169
f 173 172 170
f 171 174 175
f 156 174 171
f 176 177 173
f 173 177 172
f 174 178 175
f 175 178 179
f 180 181 176
f 176 181 177
f 179 182 183
f 178 182 179
f 180 184 181
f 185 184 180
f 182 186 183
f 183 186 187
f 185 188 184
f 189 188 185
f 187 190 191
f 186 190 187
f 189 192 188
f 193 192 189
f 190 194 191
f 191 194 195
f 193 196 192
f 197 196 193
f 195 198 199
f 194 198 195
f 197 200 196
f 201 200 197
f 199 202 203
f 198 202 199
f 201 204 200
f 205 204 201
f 202 206 203
f 203 206 207
f 205 208 204
f 209 208 205
f 206 210 207
f 207 210 211
f 209 212 208
f 213 212 209
f 210 214 211
f 211 214 215
f 213 216 212
f 217 216 213
f 217 218 216
f 214 218 215
f 215 218 217
f 58 219 55
f 219 220 55
f 220 221 55
f 54 221 52
f 55 221 54
f 221 222 52
f 52 222 49
f 222 223 49
f 223 224 49
f 45 224 41
f 49 224 45
f 224 225 41
f 36 226 33
f 41 226 36
f 225 226 41
f 226 227 33
f 33 228 29
f 227 228 33
f 25 229 21
f 29 229 25
f 228 229 29
f 229 230 21
f 17 231 13
f 21 231 17
f 230 231 21
f 231 232 13
f 13 233 9
f 232 233 13
f 5 234 2
f 9 234 5
f 233 234 9
f 2 235 6
f 234 235 2
f 235 236 6
f 6 237 10
f 236 237 6
f 10 238 14
f 237 238 10
f 238 239 14
f 14 239 18
f 239 240 18
f 18 240 22
f 240 241 22
f 22 241 26
f 241 242 26
f 30 242 34
f 26 242 30
f 242 243 34
f 243 244 34
f 34 244 38
f 42 245 46
f 245 246 46
f 246 50 46
f 38 247 42
f 244 247 38
f 42 247 245
f 248 249 250
f 245 249 248
f 247 249 245
f 250 252 253
f 249 252 250
f 253 252 254
f 252 255 254
f 256 255 257
f 254 255 256
f 255 258 257
f 259 258 260
f 257 258 259
f 258 261 260
f 262 261 263
f 260 261 262
f 261 264 263
f 265 264 266
f 263 264 265
f 251 267 50
f 268 269 270
f 266 269 268
f 264 269 266
f 267 68 50
f 269 271 270
f 272 271 273
f 270 271 272
f 267 274 68
f 274 71 68
f 271 275 273
f 276 275 277
f 273 275 276
f 278 279 274
f 277 279 278
f 275 279 277
f 71 280 75
f 279 280 274
f 274 280 71
f 280 281 75
f 75 282 79
f 281 282 75
f 83 283 87
f 79 283 83
f 282 283 79
f 283 284 87
f 87 285 91
f 284 285 87
f 94 286 97
f 91 286 94
f 285 286 91
f 286 287 97
f 101 288 104
f 97 288 101
f 287 288 97
f 288 444 104
f 104 289 108
f 444 289 104
f 112 290 116
f 108 290 112
f 289 290 108
f 116 291 120
f 290 291 116
f 291 292 120
f 124 293 126
f 120 293 124
f 292 293 120
f 293 294 126
f 126 295 130
f 294 295 126
f 295 296 130
f 130 296 134
f 296 297 134
f 137 297 141
f 134 297 137
f 297 298 141
f 298 299 141
f 141 299 145
f 299 300 145
f 145 300 149
f 300 301 149
f 153 301 159
f 149 301 153
f 301 302 159
f 159 302 158
f 302 472 158
f 472 303 158
f 161 303 163
f 158 303 161
f 303 304 163
f 304 305 163
f 163 305 165
f 305 306 165
f 165 306 167
f 306 307 167
f 169 307 170
f 167 307 169
f 307 308 170
f 308 309 170
f 170 309 173
f 309 310 173
f 176 310 180
f 173 310 176
f 310 311 180
f 311 312 180
f 185 312 189
f 180 312 185
f 312 313 189
f 189 314 193
f 313 314 189
f 193 315 197
f 314 315 193
f 201 316 205
f 197 316 201
f 315 316 197
f 205 317 209
f 316 317 205
f 317 318 209
f 318 319 209
f 209 319 213
f 319 320 213
f 213 320 217
f 320 321 217
f 217 321 215
f 321 322 215
f 211 322 207
f 215 322 211
f 322 323 207
f 323 324 207
f 207 324 203
f 324 325 203
f 203 325 199
f 325 326 199
f 199 326 195
f 326 327 195
f 191 327 187
f 195 327 191
f 327 328 187
f 328 329 187
f 187 329 183
f 179 330 175
f 330 331 175
f 331 171 175
f 329 332 183
f 179 332 330
f 183 332 179
f 333 334 335
f 330 334 333
f 332 334 330
f 336 337 338
f 335 337 336
f 334 337 335
f 331 339 171
f 338 340 531
f 337 340 338
f 531 340 341
f 340 342 341
f 534 342 343
f 341 342 534
f 342 344 343
f 536 344 345
f 343 344 536
f 344 346 345
f 538 346 347
f 345 346 538
f 346 348 347
f 349 348 350
f 347 348 349
f 348 351 350
f 352 351 353
f 350 351 352
f 339 354 171
f 354 151 171
f 351 355 353
f 356 355 357
f 353 355 356
f 355 358 357
f 359 358 354
f 357 358 359
f 358 360 354
f 354 360 151
f 151 361 147
f 360 361 151
f 147 362 143
f 361 362 147
f 143 363 139
f 362 363 143
f 135 364 132
f 139 364 135
f 363 364 139
f 364 365 132
f 132 365 128
f 365 366 128
f 128 367 123
f 366 367 128
f 123 368 119
f 367 368 123
f 368 369 119
f 119 369 115
f 369 370 115
f 111 370 107
f 115 370 111
f 370 371 107
f 371 372 107
f 107 372 103
f 372 373 103
f 100 373 96
f 103 373 100
f 373 374 96
f 374 375 96
f 90 375 89
f 96 375 90
f 375 376 89
f 376 377 89
f 89 377 85
f 81 378 78
f 85 378 81
f 377 378 85
f 378 379 78
f 74 380 70
f 78 380 74
f 379 380 78
f 380 381 70
f 70 382 67
f 381 382 70
f 67 383 63
f 382 383 67
f 63 384 62
f 383 384 63
f 62 385 60
f 384 385 62
f 60 219 58
f 385 219 60
f 246 251 50
f 235 386 387
f 234 388 386
f 234 386 235
f 236 387 389
f 236 235 387
f 233 390 388
f 233 388 234
f 237 389 391
f 237 236 389
f 232 392 390
f 232 390 233
f 238 391 393
f 238 237 391
f 231 392 232
f 231 394 392
f 239 393 395
f 239 238 393
f 230 396 394
f 230 394 231
f 240 395 397
f 240 239 395
f 229 396 230
f 229 398 396
f 241 240 397
f 241 397 399
f 228 400 398
f 228 398 229
f 242 241 399
f 242 399 401
f 227 402 400
f 227 400 228
f 243 242 401
f 243 401 403
f 226 404 402
f 226 402 227
f 244 243 403
f 244 403 405
f 225 406 404
f 225 404 226
f 247 405 407
f 247 244 405
f 224 408 406
f 224 406 225
f 249 247 407
f 249 407 409
f 223 410 408
f 223 408 224
f 252 409 411
f 252 249 409
f 222 412 410
f 222 410 223
f 255 411 413
f 255 252 411
f 221 414 412
f 221 412 222
f 258 413 415
f 258 255 413
f 220 416 414
f 220 414 221
f 261 415 417
f 261 258 415
f 219 418 416
f 219 416 220
f 264 417 419
f 264 261 417
f 385 420 418
f 385 418 219
f 269 419 421
f 269 264 419
f 384 422 420
f 384 420 385
f 271 421 423
f 271 269 421
f 383 424 422
f 383 422 384
f 275 271 423
f 275 423 425
f 382 424 383
f 382 381 424
f 279 275 425
f 279 425 426
f 280 426 428
f 280 279 426
f 380 427 381
f 380 429 427
f 281 280 428
f 281 428 430
f 379 431 429
f 379 429 380
f 282 281 430
f 282 430 432
f 378 433 431
f 378 431 379
f 283 282 432
f 283 432 434
f 377 433 378
f 435 433 377
f 284 283 434
f 284 434 436
f 376 435 377
f 437 435 376
f 285 284 436
f 285 436 438
f 375 437 376
f 374 437 375
f 286 438 439
f 286 285 438
f 287 439 440
f 287 286 439
f 373 441 374
f 288 440 442
f 288 287 440
f 443 441 373
f 372 443 373
f 444 288 442
f 371 443 372
f 289 444 445
f 446 371 370
f 290 289 445
f 447 290 445
f 448 446 370
f 448 370 369
f 291 290 447
f 449 291 447
f 450 448 369
f 450 369 368
f 292 291 449
f 451 292 449
f 452 450 368
f 452 368 367
f 293 292 451
f 453 293 451
f 294 293 453
f 366 452 367
f 454 294 453
f 295 294 454
f 455 366 365
f 456 295 454
f 296 295 456
f 457 455 365
f 457 365 364
f 458 296 456
f 458 297 296
f 459 364 363
f 459 457 364
f 460 297 458
f 461 363 362
f 461 459 363
f 462 297 460
f 462 299 298
f 462 298 297
f 463 362 361
f 463 461 362
f 464 299 462
f 464 300 299
f 465 361 360
f 465 463 361
f 466 300 464
f 466 301 300
f 467 360 358
f 467 465 360
f 468 302 301
f 468 301 466
f 469 358 355
f 469 467 358
f 470 302 468
f 470 472 302
f 471 469 355
f 471 355 351
f 473 471 351
f 473 351 348
f 474 304 303
f 474 303 472
f 475 473 348
f 475 348 346
f 476 304 474
f 476 305 304
f 477 475 346
f 477 346 344
f 478 305 476
f 478 306 305
f 479 477 344
f 479 344 342
f 480 306 478
f 480 307 306
f 481 479 342
f 481 342 340
f 482 307 480
f 482 308 307
f 483 481 340
f 483 340 337
f 484 308 482
f 484 309 308
f 485 337 334
f 485 483 337
f 486 310 309
f 486 309 484
f 487 485 334
f 487 334 332
f 488 311 310
f 488 310 486
f 489 332 329
f 489 487 332
f 490 311 488
f 490 312 311
f 491 489 329
f 491 329 328
f 492 312 490
f 492 313 312
f 493 328 327
f 493 491 328
f 494 313 492
f 494 314 313
f 495 493 327
f 495 327 326
f 496 314 494
f 496 315 314
f 497 495 326
f 497 326 325
f 498 315 496
f 498 316 315
f 499 325 324
f 499 497 325
f 500 316 498
f 500 317 316
f 501 499 324
f 501 324 323
f 502 317 500
f 502 318 317
f 503 501 323
f 503 323 322
f 504 318 502
f 504 319 318
f 505 503 322
f 505 322 321
f 506 319 504
f 506 320 319
f 507 505 321
f 507 320 506
f 507 321 320
f 416 56 53
f 414 53 51
f 414 416 53
f 412 414 51
f 410 51 48
f 410 412 51
f 408 48 44
f 408 44 40
f 408 410 48
f 406 408 40
f 404 40 37
f 404 406 40
f 402 37 32
f 402 32 28
f 402 404 37
f 400 402 28
f 398 28 24
f 398 24 20
f 398 400 28
f 396 398 20
f 394 20 16
f 394 396 20
f 392 16 12
f 392 394 16
f 390 12 8
f 390 392 12
f 388 8 4
f 388 4 1
f 388 390 8
f 386 388 1
f 387 1 3
f 387 386 1
f 389 3 7
f 389 387 3
f 391 7 11
f 391 11 15
f 391 389 7
f 393 15 19
f 393 391 15
f 395 393 19
f 397 395 19
f 397 19 23
f 399 397 23
f 399 23 27
f 399 27 31
f 401 399 31
f 403 401 31
f 403 31 35
f 405 403 35
f 405 35 39
f 515 508 47
f 65 515 47
f 407 405 39
f 407 39 43
f 407 43 47
f 409 508 509
f 409 407 47
f 409 47 508
f 411 509 510
f 411 510 511
f 411 409 509
f 413 411 511
f 413 511 256
f 413 256 512
f 415 512 513
f 415 413 512
f 415 513 514
f 417 514 516
f 417 516 517
f 417 415 514
f 419 517 518
f 419 518 519
f 419 417 517
f 421 419 519
f 421 519 520
f 421 520 521
f 69 523 65
f 69 522 523
f 423 521 272
f 423 421 521
f 423 272 524
f 425 524 525
f 425 525 526
f 425 423 524
f 426 522 69
f 426 425 526
f 426 69 72
f 426 526 522
f 428 426 72
f 430 428 72
f 430 72 76
f 432 430 76
f 432 76 80
f 434 432 80
f 434 80 84
f 436 434 84
f 436 84 88
f 438 436 88
f 438 88 92
f 439 438 92
f 439 92 95
f 440 439 95
f 440 95 98
f 442 440 98
f 442 98 101
f 442 101 105
f 444 442 105
f 445 105 109
f 445 109 113
f 445 444 105
f 447 113 117
f 447 445 113
f 449 447 117
f 451 117 121
f 451 121 125
f 451 449 117
f 453 451 125
f 454 125 129
f 454 129 133
f 454 453 125
f 456 454 133
f 458 456 133
f 458 133 136
f 460 458 136
f 460 136 140
f 462 460 140
f 462 140 144
f 464 462 144
f 464 144 148
f 466 464 148
f 466 148 152
f 468 466 152
f 468 152 155
f 470 468 155
f 470 155 157
f 470 157 160
f 472 470 160
f 474 472 160
f 474 160 162
f 476 474 162
f 476 162 164
f 478 476 164
f 478 164 166
f 480 478 166
f 480 166 168
f 482 480 168
f 482 168 169
f 482 169 172
f 484 482 172
f 486 484 172
f 486 172 177
f 488 486 177
f 488 177 181
f 490 488 181
f 490 181 184
f 492 490 184
f 492 184 188
f 494 492 188
f 494 188 192
f 496 494 192
f 496 192 196
f 498 496 196
f 498 196 200
f 500 200 204
f 500 498 200
f 502 204 208
f 502 500 204
f 504 208 212
f 504 502 208
f 506 212 216
f 506 504 212
f 507 506 216
f 507 216 218
f 505 218 214
f 505 507 218
f 503 214 210
f 503 505 214
f 501 210 206
f 501 503 210
f 499 206 202
f 499 501 206
f 497 202 198
f 497 499 202
f 495 198 194
f 495 497 198
f 493 194 190
f 493 495 194
f 491 190 186
f 491 493 190
f 489 186 182
f 489 491 186
f 533 527 174
f 156 533 174
f 487 182 178
f 487 489 182
f 485 178 174
f 485 174 527
f 485 527 528
f 485 487 178
f 483 485 528
f 483 528 529
f 483 529 530
f 481 483 530
f 481 530 531
f 481 531 532
f 479 481 532
f 479 532 534
f 479 534 535
f 477 535 536
f 477 536 537
f 477 479 535
f 475 537 538
f 475 538 539
f 475 477 537
f 473 475 539
f 473 539 540
f 473 540 541
f 154 543 156
f 154 542 543
f 471 545 544
f 471 473 541
f 471 541 545
f 469 544 546
f 469 546 547
f 469 471 544
f 467 547 542
f 467 469 547
f 467 542 154
f 465 154 150
f 465 150 146
f 465 467 154
f 463 465 146
f 461 146 142
f 461 463 146
f 459 142 138
f 459 461 142
f 457 138 135
f 457 135 131
f 457 459 138
f 455 131 127
f 455 457 131
f 366 455 127
f 452 127 122
f 452 366 127
f 450 122 118
f 450 452 122
f 448 118 114
f 448 450 118
f 446 448 114
f 446 114 110
f 446 110 106
f 371 446 106
f 443 371 106
f 443 106 102
f 443 102 99
f 441 443 99
f 441 99 93
f 374 441 93
f 437 374 93
f 437 93 90
f 437 90 86
f 435 437 86
f 433 435 86
f 433 86 82
f 433 82 77
f 431 433 77
f 429 431 77
f 429 77 73
f 427 429 73
f 427 73 74
f 427 74 66
f 381 427 66
f 424 66 64
f 424 381 66
f 424 64 61
f 422 424 61
f 420 61 59
f 420 59 57
f 420 422 61
f 418 57 56
f 418 420 57
f 416 418 56
f 523 515 65
f 543 533 156
f 245 248 508
f 508 248 509
f 509 248 510
f 248 250 510
f 250 253 510
f 510 253 511
f 511 253 256
f 253 254 256
f 512 256 513
f 256 257 513
f 257 259 513
f 513 260 514
f 259 260 513
f 514 262 516
f 260 262 514
f 262 263 516
f 516 263 517
f 263 265 517
f 517 265 518
f 265 266 518
f 266 268 518
f 518 268 519
f 519 268 520
f 268 270 520
f 270 272 520
f 520 272 521
f 273 276 272
f 272 276 524
f 524 276 525
f 276 277 525
f 277 278 525
f 525 278 526
f 526 274 522
f 522 274 523
f 278 274 526
f 274 267 523
f 267 251 523
f 523 251 515
f 251 246 515
f 246 245 515
f 515 245 508
f 542 547 354
f 354 547 359
f 547 546 359
f 359 546 357
f 357 546 356
f 546 544 356
f 544 545 356
f 356 545 353
f 353 545 352
f 545 541 352
f 541 540 352
f 352 540 350
f 350 540 349
f 349 539 347
f 540 539 349
f 539 538 347
f 538 537 345
f 537 536 345
f 536 535 343
f 343 535 534
f 341 534 531
f 534 532 531
f 338 531 336
f 531 530 336
f 530 529 336
f 336 529 335
f 335 529 333
f 333 528 330
f 529 528 333
f 330 527 331
f 528 527 330
f 527 533 331
f 331 533 339
f 533 543 339
f 339 542 354
f 543 542 339
