# Render LOD; unchanged CAD body-local coordinates in mm
v -60.6406000 84.3652925 140.7500000
v -60.8406127 84.3652925 140.7500000
v -60.6406000 84.9653142 140.7500000
v -60.8406127 84.9653142 140.7500000
v -60.8406127 84.9653142 141.0500220
v -60.8406127 84.3652925 141.6000151
v -60.8406127 85.1653000 141.6000151
v -60.8406127 85.1653000 141.2999931
v -60.6406000 84.9653142 141.0500220
v -60.6406000 85.1653000 141.6000151
v -60.6406000 84.3652925 141.6000151
v -60.6406000 85.1653000 141.2999931
v -62.0406122 84.3652925 141.9349924
v -62.2235764 84.3661845 141.9145087
v -62.1693867 84.3652927 141.8461472
v -62.0900591 84.3652920 141.8034759
v -61.0405998 84.3652925 141.7999826
v -61.0405998 84.3652925 141.9999972
v -62.0406122 84.3652925 141.9999972
v -61.0057397 84.3652925 141.9984877
v -61.0058671 84.3652925 141.7969635
v -60.6421290 84.3652925 141.6348761
v -60.8436451 84.3652925 141.6347346
v -60.9711344 84.3652925 141.9939119
v -60.6466649 84.3652925 141.6694541
v -60.9370642 84.3652925 141.9863641
v -60.9722046 84.3652925 141.7879534
v -60.6542332 84.3652925 141.7035132
v -60.8526659 84.3652925 141.6684163
v -60.9037839 84.3652925 141.9758917
v -60.6647320 84.3652925 141.7368176
v -60.8715485 84.3652925 141.9624945
v -60.9406063 84.3652925 141.7731881
v -60.6780849 84.3652925 141.7690369
v -60.8673948 84.3652925 141.6999752
v -60.8406127 84.3652925 141.9464084
v -60.6941898 84.3652925 141.7999826
v -60.8111803 84.3652925 141.9276334
v -60.9120403 84.3652925 141.7531867
v -60.7129450 84.3652925 141.8294187
v -60.8873987 84.3652925 141.7285622
v -60.7834808 84.3652925 141.9064054
v -60.7341720 84.3652925 141.8571094
v -60.7577688 84.3652925 141.8828188
v -60.8436451 85.1653000 141.6347346
v -60.8526659 85.1653000 141.6684163
v -60.8673948 85.1653000 141.6999752
v -60.8873987 85.1653000 141.7285622
v -60.9120403 85.1653000 141.7531867
v -60.9406063 85.1653000 141.7731881
v -60.9722046 85.1653000 141.7879534
v -61.0058671 85.1653000 141.7969635
v -61.2382024 85.1655002 141.8042524
v -61.2393893 85.1653000 141.9999972
v -61.0405998 85.1653000 141.9999972
v -61.0057397 85.1653000 141.9984877
v -60.6421290 85.1653000 141.6348761
v -60.9711344 85.1653000 141.9939119
v -60.6466649 85.1653000 141.6694541
v -60.9370642 85.1653000 141.9863641
v -60.6542332 85.1653000 141.7035132
v -60.9037839 85.1653000 141.9758917
v -60.6647320 85.1653000 141.7368176
v -60.8715485 85.1653000 141.9624945
v -60.6780849 85.1653000 141.7690369
v -60.8406127 85.1653000 141.9464084
v -60.6941898 85.1653000 141.7999826
v -60.8111803 85.1653000 141.9276334
v -60.7129450 85.1653000 141.8294187
v -60.7834808 85.1653000 141.9064054
v -60.7341720 85.1653000 141.8571094
v -60.7577688 85.1653000 141.8828188
v -61.5990503 84.7653285 141.9999972
v -62.0406122 84.7653285 141.9999972
v -62.0406122 83.1941138 140.8218370
v -62.0406122 81.2417569 142.7804870
v -62.0406122 83.3119825 141.1963944
v -62.0406122 81.3592497 143.1506950
v -62.0406122 83.2470690 141.2970600
v -62.0406122 82.9544783 141.0628994
v -62.0406122 81.3635338 142.7332862
v -62.0406122 82.9039135 141.1645096
v -62.0406122 81.3011488 143.2550992
v -62.0406122 80.9577649 143.0911347
v -62.0406122 81.0099178 143.0079401
v -62.0406122 83.2754621 140.7763391
v -62.0406122 83.3910327 140.7571322
v -62.0406122 81.4986368 142.7435866
v -62.0406122 82.8991092 141.2994635
v -62.0406122 80.9377648 143.2417047
v -62.0406122 83.3986054 141.1415707
v -62.0406122 83.5326174 140.7974987
v -62.0406122 81.4555200 143.0874322
v -62.0406122 81.6203793 142.8155645
v -62.0406122 80.9901785 143.3729755
v -62.0406122 83.2423560 141.4455303
v -62.0406122 82.9673530 141.4435370
v -62.0406122 81.2991536 143.3913632
v -62.0406122 81.7328911 142.9755426
v -62.0406122 83.4998087 141.1259406
v -62.0406122 81.5567971 143.0717903
v -62.0406122 83.5839120 141.1460634
v -62.0406122 81.6597468 143.0994200
v -62.0406122 83.1335089 141.5621446
v -62.0406122 83.3235069 141.5699860
v -62.0406122 81.3803195 143.5158763
v -62.0406122 81.8746559 143.1196719
v -62.0406122 83.4523063 141.6280354
v -62.0406122 81.7530609 143.1812295
v -62.0406122 83.2741570 141.6964912
v -62.0406122 82.0353644 143.2289038
v -62.0406122 81.5090864 143.5738797
v -62.0406122 81.7962663 143.3106396
v -62.0406122 84.0285379 141.2933989
v -62.0406122 83.7333995 141.3209082
v -62.0406122 83.6684271 141.2010862
v -62.0406122 83.5751028 141.6125663
v -62.0406122 81.4549160 143.8332262
v -62.0406122 81.6320407 143.5584036
v -62.0406122 81.7039981 143.5154656
v -62.0406122 83.7302012 141.4406352
v -62.0406122 83.3986040 141.8762344
v -62.0406122 82.2145719 143.3052085
v -62.0406122 81.7677533 143.4390593
v -62.0406122 82.4058139 143.3454580
v -62.0406120 84.0420254 141.9919727
v -62.0406122 83.6751105 141.5458817
v -62.0406122 83.4863535 142.1016041
v -62.0406122 82.7818598 143.3891773
v -62.0406122 82.7143298 143.3300003
v -62.0406121 84.1270329 142.0876984
v -62.0406122 83.3360672 142.9237405
v -62.0406120 83.2673173 143.0123200
v -62.0406122 84.3616810 141.9692874
v -62.0406122 84.3338210 142.0319807
v -62.0406122 83.5166997 142.3254148
v -62.0406122 84.0390462 142.6641703
v -62.0406122 82.9139286 143.8415000
v -62.0406122 82.6009788 143.3477843
v -62.0406121 82.9095936 143.4356497
v -62.0406122 84.1232788 142.6043573
v -62.0406119 84.2648295 142.0915962
v -62.0406122 83.9655911 142.8993706
v -62.0406122 83.4975818 142.5493786
v -62.0406122 82.9567505 143.8352731
v -62.0406122 82.9426915 143.8387168
v -62.0406122 83.0449720 143.4261836
v -62.0406122 83.4307157 142.7559805
v -62.0406122 83.8345023 143.1661036
v -62.0406122 83.1486467 143.7665224
v -62.0406123 83.1648718 143.3626346
v -62.0406122 83.3474781 143.6572469
v -62.0406121 83.2397851 143.2706673
v -62.0406122 83.6952824 143.3542128
v -62.0406124 83.2788568 143.1582081
v -62.0406122 83.5367856 143.5177053
v -62.0406122 84.7653285 142.5999940
v -62.1105873 83.7333973 141.4332291
v -62.1105873 83.6603254 141.5625714
v -62.1105873 83.5381167 141.6236654
v -62.1105873 83.4358190 141.6229813
v -62.1105873 83.3311925 141.5762357
v -62.1105873 83.2559333 141.4774715
v -62.1105873 83.2357390 141.3770272
v -62.1105873 83.4314100 141.1317784
v -62.1105873 83.5339269 141.1300240
v -62.1105873 83.6145070 141.1614537
v -62.1105873 83.6907138 141.2274303
v -62.1105873 83.3277183 141.1812573
v -62.1105873 83.7324301 141.3262361
v -62.1105873 83.2559613 141.2765746
v -62.1105873 81.7686077 143.4395416
v -62.1105873 81.6883686 143.5282598
v -62.1105873 81.5949313 143.5695170
v -62.1105873 81.4925297 143.5688120
v -62.1105873 81.3879877 143.5221144
v -62.1105873 81.3126305 143.4230875
v -62.1105873 81.2925817 143.3229243
v -62.1105873 81.4883963 143.0776040
v -62.1105873 81.5905617 143.0758463
v -62.1105873 81.6711923 143.1072675
v -62.1105873 81.7473320 143.1731174
v -62.1105873 81.3843254 143.1272792
v -62.1105873 81.7955920 143.3008278
v -62.1105873 81.3126054 143.2228323
v -62.2405994 82.5873625 143.3488511
v -62.2405994 82.3675985 143.3413991
v -62.2405994 82.1558560 143.2847099
v -62.2405994 81.9808565 143.1969198
v -62.2405994 81.8272411 143.0775893
v -62.2405994 81.7145750 142.9502117
v -62.2405994 84.0276639 141.2937749
v -62.2405994 83.5635948 140.8215641
v -62.2405994 83.7234063 141.2877255
v -62.2405994 83.6425023 141.1778106
v -62.2405994 83.5515870 141.1350242
v -62.2405994 83.7365860 141.4070274
v -62.2405994 83.4668937 140.7699401
v -62.2399944 84.7653289 141.9782735
v -62.2410905 84.3485315 142.0166887
v -62.2405994 83.4653495 141.1265301
v -62.2405994 83.3327404 140.7604430
v -62.2405994 83.2118157 140.8076541
v -62.2405994 83.7039233 141.5041350
v -62.2405994 84.7653285 142.5999940
v -62.2405994 84.2415699 142.0992718
v -62.2405994 83.3516095 141.1634807
v -62.2405994 83.6353316 141.5800409
v -62.2405994 83.2698799 141.2499348
v -62.2405994 82.9483831 141.0697287
v -62.2405994 82.8985620 141.1883557
v -62.2405994 82.9046862 141.3232576
v -62.2405994 83.3023434 141.5491871
v -62.2405994 83.2509034 141.6704306
v -62.2405994 83.4026623 141.6144176
v -62.2405994 83.2403957 141.4332291
v -62.2405994 83.2409764 141.3292621
v -62.2405994 83.3683775 141.8254770
v -62.2405994 83.1242502 141.5558293
v -62.2405994 82.9774622 141.4532142
v -62.2405995 84.1210641 142.0823518
v -62.2405994 83.4713300 142.0453000
v -62.2405994 83.5262605 141.6268140
v -62.2405994 84.1295462 142.6028204
v -62.2405991 84.0414563 141.9938451
v -62.2405994 83.5138516 142.2768763
v -62.2405994 83.5102642 142.4636910
v -62.2405994 84.0428092 142.6582831
v -62.2405994 83.4700687 142.6520522
v -62.2405994 83.9895734 142.8268713
v -62.2405994 83.3721133 142.8721496
v -62.2405994 83.8994751 143.0502338
v -62.2405994 83.2679621 143.0108929
v -62.2405995 83.2788196 143.1508601
v -62.2405994 83.7338430 143.3101114
v -62.2405993 83.2441401 143.2647777
v -62.2405994 83.5493997 143.5050517
v -62.2405994 83.3333957 143.6683495
v -62.2405995 83.1572148 143.3688945
v -62.2405994 83.0354353 143.4287650
v -62.2405994 82.7118653 143.3315914
v -62.2405994 83.0936099 143.7887016
v -62.2405993 82.8998133 143.4341123
v -62.2405994 82.9567505 143.8352731
v -62.2405994 82.9283745 143.8407924
v -62.2405994 82.9426915 143.8387168
v -62.2405994 82.8055910 143.4006956
v -62.2405994 81.7802786 143.2337318
v -62.2405994 81.6993717 143.1237057
v -62.2405994 81.7922183 143.3695351
v -62.2405994 81.5733421 143.0718450
v -62.2405994 81.6120462 142.8079444
v -62.2405994 81.4892498 142.7408355
v -62.2405994 81.3539452 142.7348907
v -62.2405994 81.2356541 142.7848105
v -62.2405994 81.7317878 143.4918644
v -62.2405994 81.4386677 143.0929874
v -62.2405994 80.9996110 143.0200852
v -62.2405994 81.3586604 143.1540335
v -62.2405994 80.9497317 143.1141644
v -62.2405994 81.3112424 143.2270134
v -62.2405994 80.9401601 143.2485247
v -62.2405994 81.6167045 143.5650011
v -62.2405994 81.4966960 143.5699745
v -62.2405994 80.9888707 143.3721458
v -62.2406003 81.4600434 143.8353469
v -62.2405994 81.3879877 143.5221144
v -62.2405994 81.3228640 143.4411845
v -62.2405994 81.2918886 143.3454280
v -62.3106000 83.2350340 141.3549976
v -62.3106000 83.2830792 141.2274303
v -62.3106000 83.3906545 141.1432441
v -62.3106000 83.5084435 141.1265301
v -62.3106000 83.6178289 141.1613193
v -62.3106000 83.7116989 141.2602063
v -62.3106000 83.7383474 141.3813676
v -62.3106000 83.7089926 141.4978855
v -62.3106000 83.2545847 141.4733365
v -62.3106000 83.3235069 141.5699860
v -62.3106000 83.4475325 141.6268140
v -62.3106000 83.5513532 141.6191669
v -62.3106000 83.6282739 141.5850217
v -62.3106000 81.2918886 143.3004205
v -62.3106000 81.3312066 143.1884828
v -62.3106000 81.3877422 143.1268853
v -62.3106000 81.4803034 143.0781838
v -62.3106000 81.6116696 143.0798987
v -62.3106000 81.7287405 143.1499257
v -62.3106000 81.7807190 143.2417269
v -62.3106000 81.7951800 143.3272745
v -62.3106000 81.3112598 143.4188831
v -62.3106000 81.7658534 143.4436386
v -62.3106000 81.3803195 143.5158763
v -62.3106000 81.5042933 143.5726559
v -62.3106000 81.6082327 143.5650106
v -62.3106000 81.6850189 143.5309817
v -62.1003463 84.7653280 141.8058971
v -62.2064050 84.7653286 141.8820574
v -61.5990503 84.7653285 141.7999826
f 1 2 3
f 3 2 4
f 2 5 4
f 6 7 8
f 6 8 5
f 6 5 2
f 5 9 3
f 5 3 4
f 9 1 3
f 10 11 12
f 12 11 9
f 9 11 1
f 13 14 15
f 13 15 16
f 17 13 16
f 18 19 13
f 18 13 17
f 11 6 2
f 11 2 1
f 20 17 21
f 20 18 17
f 22 23 6
f 22 6 11
f 24 20 21
f 25 23 22
f 26 21 27
f 26 24 21
f 28 23 25
f 28 29 23
f 30 26 27
f 31 29 28
f 32 27 33
f 32 30 27
f 34 29 31
f 34 35 29
f 36 32 33
f 37 35 34
f 38 36 33
f 38 33 39
f 40 35 37
f 40 41 35
f 42 38 39
f 43 41 40
f 44 42 39
f 44 41 43
f 44 39 41
f 6 23 7
f 7 23 45
f 45 29 46
f 23 29 45
f 46 35 47
f 29 35 46
f 47 41 48
f 35 41 47
f 48 39 49
f 41 39 48
f 49 33 50
f 39 33 49
f 50 27 51
f 33 27 50
f 51 21 52
f 27 21 51
f 52 17 53
f 21 17 52
f 54 55 53
f 7 10 8
f 8 10 12
f 53 56 52
f 55 56 53
f 45 57 7
f 7 57 10
f 56 58 52
f 45 59 57
f 52 60 51
f 58 60 52
f 46 61 45
f 45 61 59
f 60 62 51
f 46 63 61
f 51 64 50
f 62 64 51
f 47 65 46
f 46 65 63
f 64 66 50
f 47 67 65
f 50 68 49
f 66 68 50
f 48 69 47
f 47 69 67
f 68 70 49
f 48 71 69
f 49 72 48
f 48 72 71
f 70 72 49
f 19 73 74
f 73 18 54
f 54 18 55
f 19 18 73
f 77 80 75
f 78 85 76
f 79 80 77
f 91 77 75
f 93 78 76
f 93 76 81
f 79 82 80
f 83 85 78
f 83 84 85
f 91 75 86
f 91 86 87
f 93 81 88
f 79 89 82
f 83 90 84
f 91 87 92
f 93 88 94
f 79 97 89
f 83 95 90
f 100 91 92
f 101 93 94
f 96 97 79
f 98 95 83
f 101 94 99
f 96 104 97
f 102 100 92
f 103 101 99
f 116 102 92
f 105 104 96
f 106 95 98
f 109 103 99
f 110 104 105
f 107 109 99
f 108 110 105
f 107 113 109
f 122 110 108
f 111 113 107
f 118 95 106
f 118 106 112
f 114 116 92
f 114 115 116
f 122 108 117
f 111 124 113
f 118 112 119
f 118 119 120
f 114 127 121
f 114 121 115
f 123 124 111
f 123 120 124
f 125 118 120
f 125 120 123
f 126 128 122
f 126 127 114
f 126 122 117
f 126 117 127
f 129 139 130
f 126 136 128
f 131 136 126
f 19 19 134
f 19 134 13
f 135 19 19
f 155 133 132
f 137 144 136
f 137 136 131
f 141 137 131
f 138 125 139
f 138 129 140
f 138 139 129
f 138 118 125
f 74 142 135
f 74 135 19
f 141 131 142
f 143 144 137
f 145 138 140
f 145 146 138
f 145 138 138
f 143 148 144
f 150 145 140
f 150 140 147
f 149 132 148
f 149 148 143
f 150 147 151
f 152 150 151
f 149 155 132
f 156 151 153
f 156 152 151
f 154 155 149
f 156 153 155
f 156 155 154
f 157 142 74
f 157 141 142
f 115 121 158
f 158 127 159
f 121 127 158
f 159 117 160
f 127 117 159
f 117 108 160
f 160 108 161
f 161 108 162
f 108 105 162
f 162 105 163
f 105 96 163
f 163 96 164
f 168 165 166
f 168 166 167
f 168 169 165
f 170 171 169
f 170 169 168
f 158 164 171
f 158 171 170
f 158 163 164
f 159 160 161
f 159 161 162
f 159 162 163
f 159 163 158
f 164 79 171
f 96 79 164
f 171 77 169
f 79 77 171
f 169 91 165
f 77 91 169
f 165 100 166
f 91 100 165
f 100 102 166
f 166 102 167
f 102 116 167
f 167 116 168
f 168 115 170
f 116 115 168
f 170 115 158
f 184 113 172
f 113 124 172
f 172 120 173
f 124 120 172
f 173 119 174
f 120 119 173
f 119 112 174
f 174 112 175
f 175 112 176
f 112 106 176
f 176 106 177
f 106 98 177
f 177 98 178
f 182 179 180
f 182 180 181
f 182 183 179
f 184 185 183
f 184 183 182
f 184 178 185
f 172 178 184
f 172 177 178
f 173 174 175
f 173 175 176
f 173 176 177
f 173 177 172
f 178 83 185
f 98 83 178
f 83 78 185
f 185 78 183
f 183 93 179
f 78 93 183
f 179 101 180
f 93 101 179
f 101 103 180
f 180 103 181
f 181 103 182
f 103 109 182
f 182 109 184
f 109 113 184
f 241 139 186
f 130 139 241
f 186 125 187
f 139 125 186
f 125 123 187
f 187 123 188
f 123 111 188
f 188 111 189
f 111 107 189
f 189 107 190
f 107 99 190
f 190 99 191
f 99 94 191
f 195 192 193
f 194 192 195
f 196 195 193
f 201 196 193
f 197 192 194
f 201 193 198
f 201 198 202
f 207 201 202
f 207 202 203
f 204 192 197
f 205 200 206
f 205 199 200
f 225 192 204
f 208 225 204
f 210 209 207
f 210 207 203
f 211 209 210
f 211 217 209
f 212 217 211
f 214 215 213
f 219 213 216
f 219 214 213
f 224 205 206
f 218 215 214
f 218 223 215
f 220 219 216
f 220 217 212
f 224 206 221
f 220 216 217
f 222 223 218
f 222 225 208
f 222 208 223
f 228 224 221
f 226 225 222
f 226 221 225
f 226 228 221
f 227 228 226
f 229 230 228
f 229 228 227
f 229 232 230
f 231 232 229
f 231 235 232
f 234 235 231
f 234 231 233
f 236 235 234
f 236 237 235
f 238 237 236
f 238 236 239
f 238 239 240
f 242 238 240
f 186 247 241
f 242 240 243
f 244 242 243
f 245 246 244
f 245 247 186
f 245 243 247
f 245 186 187
f 245 244 243
f 245 245 244
f 249 190 191
f 248 190 249
f 248 189 190
f 251 249 191
f 250 189 248
f 251 191 252
f 257 251 252
f 257 252 253
f 250 188 189
f 257 253 254
f 257 254 255
f 256 188 250
f 256 187 188
f 259 257 255
f 258 261 259
f 258 259 255
f 260 261 258
f 262 261 260
f 266 187 256
f 266 256 263
f 266 263 264
f 266 245 187
f 262 269 261
f 265 269 262
f 266 264 267
f 265 266 267
f 265 267 268
f 265 268 269
f 217 216 270
f 209 270 271
f 209 217 270
f 207 209 271
f 207 271 272
f 201 207 272
f 201 272 273
f 196 201 273
f 196 273 274
f 195 196 274
f 195 274 275
f 194 195 275
f 194 275 276
f 197 194 276
f 273 275 274
f 272 275 273
f 271 275 272
f 270 276 271
f 271 276 275
f 270 277 276
f 278 277 270
f 279 282 278
f 280 282 279
f 281 282 280
f 278 282 277
f 197 276 277
f 204 197 277
f 208 277 282
f 208 204 277
f 223 282 281
f 223 208 282
f 223 281 280
f 215 223 280
f 215 280 279
f 213 215 279
f 213 279 278
f 216 213 278
f 216 278 270
f 261 269 283
f 261 283 284
f 259 261 284
f 259 284 285
f 257 259 285
f 257 285 286
f 251 257 286
f 251 286 287
f 249 251 287
f 249 287 288
f 248 249 288
f 248 288 289
f 248 289 290
f 250 248 290
f 286 288 287
f 285 288 286
f 284 289 285
f 285 289 288
f 283 290 284
f 284 290 289
f 283 292 290
f 291 292 283
f 293 296 291
f 294 296 293
f 295 296 294
f 291 296 292
f 250 290 292
f 256 250 292
f 256 292 296
f 263 256 296
f 263 296 295
f 263 295 294
f 264 263 294
f 267 264 294
f 267 294 293
f 268 267 293
f 268 293 291
f 269 268 291
f 269 291 283
f 97 104 220
f 220 104 219
f 219 104 214
f 104 110 214
f 214 110 218
f 110 122 218
f 218 122 222
f 122 128 222
f 222 128 226
f 128 136 226
f 226 136 227
f 136 144 227
f 227 144 229
f 144 148 229
f 229 148 231
f 148 132 231
f 231 132 233
f 132 133 233
f 97 220 212
f 89 97 212
f 89 212 211
f 82 89 211
f 82 211 210
f 80 82 210
f 210 203 75
f 210 75 80
f 86 75 203
f 86 203 202
f 87 86 202
f 87 202 198
f 92 87 198
f 92 198 193
f 193 192 114
f 193 114 92
f 225 114 192
f 225 126 114
f 13 134 14
f 14 134 200
f 134 19 200
f 19 135 200
f 200 142 206
f 135 142 200
f 206 131 221
f 142 131 206
f 221 131 225
f 131 126 225
f 297 16 15
f 298 297 15
f 298 15 14
f 199 14 200
f 199 298 14
f 299 16 297
f 17 299 53
f 17 16 299
f 73 54 53
f 73 53 299
f 74 297 298
f 74 73 299
f 74 299 297
f 199 74 298
f 157 74 199
f 205 157 199
f 224 157 205
f 224 141 157
f 228 141 224
f 137 141 228
f 137 228 230
f 143 137 230
f 143 230 232
f 149 143 232
f 149 232 235
f 154 149 235
f 156 235 237
f 156 154 235
f 156 237 238
f 152 156 238
f 150 152 238
f 150 238 242
f 145 242 244
f 145 150 242
f 145 244 246
f 146 246 245
f 146 145 246
f 138 245 245
f 138 146 245
f 138 138 245
f 266 138 245
f 266 118 138
f 118 265 95
f 266 265 118
f 90 265 262
f 90 95 265
f 90 262 260
f 84 90 260
f 84 260 258
f 85 84 258
f 85 255 76
f 258 255 85
f 76 255 254
f 81 76 254
f 81 254 253
f 88 81 253
f 88 253 252
f 94 88 252
f 94 252 191
f 233 155 234
f 133 155 233
f 234 155 236
f 155 153 236
f 236 151 239
f 153 151 236
f 239 147 240
f 151 147 239
f 240 140 243
f 147 140 240
f 243 129 247
f 140 129 243
f 247 129 241
f 129 130 241
f 55 18 20
f 56 55 20
f 58 20 24
f 58 56 20
f 60 24 26
f 60 58 24
f 62 26 30
f 62 60 26
f 64 30 32
f 64 62 30
f 66 32 36
f 66 64 32
f 68 36 38
f 68 66 36
f 70 38 42
f 70 68 38
f 72 42 44
f 72 70 42
f 71 44 43
f 71 72 44
f 69 43 40
f 69 71 43
f 67 40 37
f 67 69 40
f 65 37 34
f 65 67 37
f 63 34 31
f 63 65 34
f 61 63 31
f 61 31 28
f 59 61 28
f 59 28 25
f 57 59 25
f 57 25 22
f 10 57 22
f 10 22 11
f 9 8 12
f 5 8 9
