# Render LOD; unchanged CAD body-local coordinates in mm
v -5.9048273 166.5096434 115.8839396
v -6.5396069 166.6118650 116.9999787
v -6.4290372 166.5738504 115.8430427
v -7.0701855 166.9457479 116.9999786
v -6.8277627 166.7619559 115.8120090
v -7.4106236 167.5161867 116.9999787
v -7.3528237 167.3674544 115.7535437
v -7.4924886 168.0748125 116.9999786
v -7.4830684 167.8651257 115.7173704
v -7.3685607 168.5874799 116.9999787
v -7.4588414 168.2950157 115.6887545
v -7.1125523 168.9929973 116.9999787
v -7.3148521 168.6992676 115.6566527
v -7.0297870 169.0777333 115.6258956
v -6.5784343 169.3864522 116.9999786
v -6.6666096 169.3298618 115.5915693
v -5.9181709 169.4892015 116.9999787
v -6.0000412 169.4840242 116.2050095
v -5.9929779 169.4899365 115.6776066
v -5.2755167 169.3159507 116.9999785
v -5.7598899 169.4697375 116.1878265
v -5.7708408 169.4714712 115.5256782
v -5.4709845 169.3962522 115.6328352
v -5.3377639 169.3339779 116.1568698
v -5.2984403 169.3178156 115.4948375
v -4.8106947 168.8963988 116.9999786
v -4.9781860 169.0834640 116.1256066
v -4.9183440 169.0238722 115.4585410
v -4.7875118 168.8613032 116.1061791
v -4.5594309 168.4040986 116.9999788
v -4.5481661 168.3297481 115.4030183
v -4.5228497 167.7790990 116.9999786
v -4.5221185 168.1840389 116.0526016
v -4.5556106 167.6387887 115.4815088
v -4.5158125 167.8350778 115.3644524
v -4.6901692 167.2911788 116.9999786
v -4.7250328 167.2268608 115.4520470
v -4.7399931 167.2102563 115.9828794
v -5.0331504 166.8582567 116.9999788
v -4.8173446 167.0950044 115.3079159
v -5.0145695 166.8814411 115.9532103
v -5.2739159 166.6997339 115.3971278
v -5.5169440 166.5912278 116.9999787
v -5.7189381 166.5355626 115.3632817
v -5.4009491 166.6366458 115.9169881
v -6.0292532 166.5066730 116.9999787
v -5.5585850 166.5794767 115.2428182
v -6.3040305 166.5361173 115.3174202
v -6.7994900 166.7436356 115.2844223
v -7.3269760 167.3103108 115.2245887
v -6.9709227 166.8625722 115.1410387
v -7.4777300 167.8200792 115.1882456
v -7.4416372 167.6028631 115.0792338
v -7.4853984 168.1079541 115.0399365
v -7.0607047 169.0447461 115.0935800
v -7.2173636 168.8686150 114.9851816
v -6.7009061 169.3160580 115.0642057
v -6.8191792 169.2436738 114.9413683
v -6.2536016 169.4674140 115.0309394
v -6.3868834 169.4401336 114.9078130
v -5.8144205 169.4775700 114.9996541
v -5.9583368 169.4886643 114.8796641
v -5.3283285 169.3331267 114.9588722
v -5.5197947 169.4096179 114.8474212
v -4.7807444 168.8582120 114.7824197
v -4.5943594 168.4863174 114.7516026
v -4.5389032 168.2700242 114.8645744
v -4.5191113 167.8123778 114.8292165
v -4.5068988 167.9997263 114.7175223
v -4.5742575 167.5732596 114.6852240
v -4.7522882 167.1906200 114.6545146
v -5.2754080 166.6989710 114.7346338
v -5.4752111 166.5997041 114.5911443
v -6.9033025 166.8078371 114.6078203
v -6.7006033 166.6842972 114.5010563
v -7.0693610 166.9644918 114.4674182
v -7.3196283 167.3137035 114.4356103
v -7.4735225 167.7574869 114.5303274
v -7.4392913 167.6240518 114.4102156
v -7.4446830 168.3874644 114.4829296
v -7.2083572 168.8704325 114.4495266
v -7.3534813 168.6206434 114.3407876
v -6.8155169 169.2540278 114.4116314
v -7.0668418 169.0484900 114.3007936
v -6.6225321 169.3525986 114.2623697
v -6.1950860 169.4764131 114.2309737
v -5.5556251 169.4284919 114.3199269
v -5.7549948 169.4689464 114.2004749
v -4.8264837 168.9270049 114.2501530
v -5.0510044 169.1561234 114.1504562
v -4.7075278 168.7396468 114.1071482
v -4.5415940 167.6691310 114.1563968
v -4.5223225 168.2316255 114.0693944
v -4.7613116 167.1734116 114.1226992
v -4.6458399 167.3645990 114.0048491
v -4.9712668 166.9231592 113.9669598
v -5.6390701 166.5550974 114.0441753
v -5.5317959 166.5863132 113.9198817
v -5.9138904 166.5155661 113.8922636
v -6.7119580 166.6850321 113.9616005
v -7.1151233 167.0137577 113.9261689
v -7.4699549 167.7250018 113.8683189
v -7.2556424 167.1877697 113.7852978
v -7.4660492 168.2581802 113.8323676
v -7.4871620 167.9224872 113.7260136
v -7.3256471 168.6784400 113.8032482
v -7.4273694 168.4379906 113.6934883
v -7.1975148 168.8851504 113.6531231
v -6.2975881 169.4587621 113.7063785
v -5.7612160 169.4773174 113.6706413
v -6.1689486 169.4872727 113.5673223
v -5.2417804 169.2818303 113.6309493
v -5.1218754 169.2104985 113.4934315
v -4.7447174 168.8009844 113.5792893
v -4.5408662 168.3295774 113.5457800
v -4.5067077 168.0797281 113.3997613
v -4.6050670 167.4596742 113.4834071
v -5.4374135 166.6210569 113.3968520
v -5.4460834 166.6181004 113.2667578
v -5.8174829 166.5239754 113.3689200
v -5.8662986 166.5180399 113.2351179
v -6.1871748 166.5229665 113.3430356
v -6.6027601 166.6382409 113.3124206
v -6.8987587 166.8187206 113.2861950
v -7.2058268 167.1154986 113.2531050
v -6.8832161 166.8008631 113.1572151
v -7.4638468 167.7271938 113.0804283
v -7.4761665 168.2430304 113.0384046
v -6.9078944 169.1804645 113.0940095
v -7.0709396 169.0442125 112.9806947
v -6.5590892 169.3785262 113.0659639
v -6.6262761 169.3511710 112.9383705
v -6.1682172 169.4796382 113.0373168
v -6.2522458 169.4661875 112.9115594
v -5.6147417 169.4451267 112.9942521
v -5.8765646 169.4845724 112.8839773
v -5.1216173 169.2025659 112.9587790
v -4.6325089 168.6053117 112.8988596
v -4.9615822 169.0762209 112.8156493
v -4.7197771 168.7522693 112.7845827
v -4.5130248 168.0805889 112.8657025
v -4.5616499 168.3845635 112.7565827
v -4.6664296 167.3226566 112.8048330
v -4.5106660 167.8653937 112.7225718
v -4.9977737 166.8987616 112.7698314
v -4.8407883 167.0553396 112.6601507
v -5.3567325 166.6569093 112.7410987
v -5.6744169 166.5451063 112.5870217
v -6.0919482 166.5122479 112.6868331
v -6.0941512 166.5157111 112.5561769
v -6.6816175 166.6653829 112.6443907
v -7.2624677 167.2101597 112.5867440
v -7.4612415 167.6929482 112.5462189
v -7.4921671 167.9569277 112.4024376
v -7.4668471 168.2798301 112.5064596
v -7.3035259 168.7198166 112.4718423
v -7.4200491 168.4462923 112.3665038
v -6.8523277 169.2212411 112.4264609
v -7.1756492 168.9243573 112.3289794
v -6.3545116 169.4532462 112.3884700
v -6.1541457 169.4818322 112.2446020
v -5.8065322 169.4765162 112.3494835
v -5.0600542 169.1599915 112.2874563
v -5.2247382 169.2763182 112.1702215
v -4.7155803 168.7572314 112.2540866
v -4.5068358 167.9844865 112.0649789
v -4.5645836 167.6108747 112.0389052
v -4.6116464 167.4689479 112.1570232
v -4.7664204 167.1622205 112.1337084
v -5.1051193 166.8111200 112.1009396
v -4.8924198 167.0069859 111.9873065
v -5.4078529 166.6335470 112.0739672
v -5.1671366 166.7674763 111.9627217
v -5.7924594 166.5269747 112.0458303
v -5.4997441 166.5972355 111.9346841
v -6.1855481 166.5226355 112.0181312
v -5.9091203 166.5156166 111.9051494
v -6.5002548 166.6026396 111.9934852
v -6.8932523 166.8001218 111.9642727
v -6.3777838 166.5527471 111.8746692
v -6.7154200 166.6964645 111.8480218
v -7.2609378 167.2077466 111.9249487
v -7.4787304 167.8229423 111.8778554
v -7.3622218 167.3826634 111.7818510
v -7.4458951 168.3818012 111.8339810
v -7.4953503 168.0404478 111.7333924
v -7.2149524 168.8602986 111.7980887
v -7.3656466 168.5934276 111.6931058
v -6.6268301 169.3583751 111.7452408
v -6.9932623 169.1097068 111.6447027
v -6.0868199 169.4861140 111.7031819
v -6.3151098 169.4623673 111.5893711
v -5.6412489 169.4451544 111.6717275
v -5.7655209 169.4707101 111.5508393
v -5.3760165 169.3518949 111.5245975
v -4.8364062 168.9403064 111.6078540
v -4.6145167 168.5463147 111.4418543
v -4.5044413 167.9969123 111.4061631
v -4.6686266 167.3187039 111.4805883
v -4.9983036 166.8980560 111.4464267
v -5.5677586 166.5747995 111.3995331
v -5.7442386 166.5328839 111.2547153
v -6.1208091 166.5103000 111.3596536
v -6.0666397 166.5139499 111.2334238
v -6.5740452 166.6276251 111.3268901
v -6.5587928 166.6153234 111.1987265
v -7.0096684 166.8965962 111.2880560
v -7.3342756 167.3385886 111.2514348
v -7.4897236 167.8642213 111.2100851
v -7.4476837 167.6504593 111.0959220
v -7.4316904 168.4102869 111.1733770
v -7.0453405 169.0699995 111.1198632
v -7.2602958 168.8052597 111.0152362
v -6.5862860 169.3690386 111.0798833
v -6.9006127 169.1858598 110.9754243
v -6.1930126 169.4769690 111.0522965
v -6.1948637 169.4809281 110.9186729
v -5.4409861 169.3802776 110.9973553
v -5.7530549 169.4672683 110.8885266
v -5.4617125 169.3840595 110.8674058
v -4.9814513 169.0953283 110.9530333
v -5.1466965 169.2204506 110.8400318
v -4.5732212 168.4257995 110.9018847
v -4.7709593 168.8528110 110.8037427
v -4.5107776 168.0058654 110.8721954
v -4.5499537 168.3381966 110.7658975
v -4.5760309 167.5689864 110.8424736
v -4.7216406 167.2359329 110.8147007
v -4.5588909 167.6089368 110.7151921
v -4.9994896 166.8968311 110.7836162
v -5.3644746 166.6531557 110.7528293
v -5.1668686 166.7577560 110.6406432
v -5.7771216 166.5278072 110.7216929
v -5.6747970 166.5467186 110.5972556
v -6.1826357 166.5225080 110.6932879
v -6.6116664 166.6416234 110.6603298
v -6.5370074 166.6074535 110.5340956
v -7.0929045 166.9743864 110.6196433
v -7.4251376 167.5542893 110.5743751
v -7.3464307 167.3488615 110.4603896
v -7.4497073 168.3406041 110.5166554
v -7.4925531 167.9591267 110.4152000
v -7.2793091 168.7660887 110.4840922
v -7.4064352 168.4892751 110.3698564
v -7.2039113 168.8771172 110.3404800
v -6.9491468 169.1454322 110.3157021
v -6.4645125 169.4235835 110.4103765
v -6.6093261 169.3573506 110.2886245
v -5.8930843 169.4854063 110.3662568
v -6.2579144 169.4669530 110.2612212
v -5.4849244 169.3972707 110.3382186
v -5.8168888 169.4778863 110.2288010
v -5.3142544 169.3295793 110.1921844
v -4.6808029 168.6908524 110.2608921
v -4.5636932 168.3932717 110.1045915
v -4.5583083 167.6272985 110.1832178
v -4.5110534 167.9788266 110.0776858
v -4.8584783 167.0436567 110.1363171
v -4.6709901 167.3286026 110.0298520
v -5.1760796 166.7597952 110.1031888
v -5.4661086 166.6098386 109.9493836
v -6.0555522 166.5132045 110.0396309
v -3.9763359 169.8137257 116.9999788
v -3.5429724 169.1292696 116.9999786
v -3.3351544 168.4908637 116.9999786
v -4.8394484 170.4572265 116.9999787
v -3.3000000 168.0000236 116.9999786
v -3.3472430 167.4102002 116.9999786
v -5.8843799 170.7150320 116.9999787
v -3.7844129 166.4263881 116.9999786
v -6.9474279 170.5470030 116.9999786
v -4.5693758 165.6895406 116.9999785
v -7.8625302 169.9788525 116.9999786
v -5.5787974 165.3153219 116.9999786
v -8.4846630 169.1006531 116.9999787
v -6.6540431 165.3623712 116.9999786
v -8.7170640 168.0491920 116.9999787
v -7.5122874 165.7515567 116.9999787
v -8.5229978 166.9902892 116.9999786
v -8.0627413 166.2475405 116.9999786
v -3.3000000 168.0000236 119.2000626
v -3.3828927 168.6468014 119.3013664
v -3.8280354 169.6012935 119.2790761
v -4.0943707 169.9121157 119.2671222
v -6.1764875 170.6992826 119.2500755
v -8.4482125 169.1406515 119.2720611
v -8.6006388 168.7022639 119.3172036
v -8.6817025 168.2968549 119.2824461
v -8.6944545 167.9623618 119.3002060
v -8.6705508 167.6063751 119.2680617
v -7.6566796 165.8653801 119.2563937
v -7.0032156 165.4965230 119.2869176
v -5.4122979 165.3666140 119.2743293
v -4.7806076 165.5927410 119.2777493
v -4.3995266 165.8270354 119.2940596
v -4.0004959 166.1898067 119.3057093
v -3.5069995 166.9907708 119.3351604
v -3.3000824 167.9795108 119.2000626
v -3.3012360 167.9795108 119.2341863
v -3.4242294 167.9359544 119.5369363
v -3.3358432 167.9703515 119.3963209
v -3.3416136 168.3264516 119.3580346
v -3.3130027 168.2809493 119.2874133
v -3.6510729 167.9501651 119.6829138
v -3.5214444 168.1867788 119.6162674
v -3.7651064 168.4250446 119.6974114
v -3.4852782 168.9717026 119.2987706
v -3.6139655 168.5766250 119.6372715
v -3.5527291 169.0020812 119.4455721
v -3.4434971 168.5378599 119.4967335
v -3.6759307 168.8764719 119.6204585
v -3.6554033 169.3275530 119.3183261
v -3.7835215 169.2907745 119.5487528
v -3.9808628 169.0670288 119.6972954
v -3.9280819 169.6453877 119.4386808
v -3.9665901 169.3078666 119.6543560
v -4.0537802 169.6419145 119.5688218
v -4.1785603 169.9467624 119.3966223
v -4.4744398 169.7358315 119.6949426
v -4.3422451 169.8286088 119.6286385
v -4.4643915 170.2231784 119.2601711
v -4.4594665 170.0966235 119.5086567
v -4.5967113 170.2527478 119.4237084
v -4.8317084 170.4283535 119.3015579
v -4.7779873 170.1779468 119.6103080
v -5.2026019 170.5811625 119.2653888
v -5.0929433 170.3111518 119.6198947
v -5.0719218 170.4584340 119.4709243
v -5.3240581 170.5795821 119.3948771
v -5.6683604 170.6744446 119.3094140
v -5.6224715 170.3999281 119.6505197
v -5.1866000 170.1820563 119.6870667
v -5.6589133 170.5625666 119.5311511
v -6.0944414 170.6671648 119.3891828
v -6.5000970 170.6210964 119.3843930
v -5.7880734 170.2690450 119.6984649
v -6.2326571 170.5885047 119.5104101
v -6.2799250 170.4532942 119.6304549
v -6.6780890 170.4547405 119.5683553
v -6.7908208 170.5809546 119.2878372
v -6.6196642 170.2835221 119.6763984
v -6.9439018 170.4834834 119.4227831
v -7.2723032 170.3808005 119.2863408
v -7.0760204 170.2812737 119.5934586
v -7.4786780 170.2156406 119.4029276
v -7.6833972 170.1105444 119.2645945
v -7.3529390 170.1804110 119.5468628
v -7.0752627 170.0309829 119.6964754
v -7.9236199 169.8843757 119.3144049
v -7.7265741 169.9752627 119.4777763
v -7.4745248 169.9771789 119.6265041
v -7.7944942 169.7633284 119.5937881
v -7.5752457 169.6960232 119.6938825
v -8.1871661 169.5816909 119.2904168
v -8.0519478 169.6530142 119.4566965
v -8.0631840 169.2299799 119.6649856
v -8.1751363 169.3263331 119.5700300
v -8.4077155 169.1553119 119.3929202
v -8.4176098 168.9464317 119.5119453
v -8.5687122 168.4403300 119.5041689
v -8.3764138 168.7289642 119.6159132
v -8.6343465 168.1642418 119.4486827
v -8.4494245 168.2068119 119.6318879
v -8.5070583 167.8251177 119.5995294
v -8.2193618 168.6088726 119.6962984
v -8.6380964 167.7004527 119.4208154
v -8.6023014 167.2993793 119.2981752
v -8.5538410 167.4709360 119.4961495
v -8.3029064 167.8785393 119.6953199
v -8.4552263 167.0203921 119.4475041
v -8.4622798 166.8920799 119.2820454
v -8.4288755 167.2532726 119.5728703
v -8.2499493 166.6125347 119.4398669
v -8.2585321 167.2712901 119.6763342
v -8.2085071 166.4469140 119.2834507
v -8.1511205 166.7228811 119.6086919
v -8.0681328 166.3862901 119.4779453
v -7.9503291 166.1378334 119.2839146
v -7.5382775 166.3266022 119.6998949
v -7.8099618 166.0573818 119.4186056
v -7.8809746 166.6016884 119.6842142
v -7.7623658 166.1643413 119.5709913
v -7.4060408 165.7017315 119.3162518
v -7.3618720 166.0873110 119.6807075
v -7.5690781 166.0977998 119.6301500
v -7.1613638 165.6056296 119.4072447
v -7.4291019 165.8355846 119.5192818
v -7.0292303 165.7905306 119.6457372
v -6.6784317 165.3844435 119.2558135
v -6.7064649 165.4416799 119.4274357
v -6.8254825 165.5547679 119.5351598
v -6.2224999 165.3428798 119.3915658
v -6.5827066 165.7840214 119.6972456
v -6.3552081 165.4361360 119.5207949
v -6.5330169 165.5675162 119.6144508
v -6.1057409 165.2977295 119.2541954
v -5.9336494 165.3773565 119.4796734
v -6.1539034 165.5568829 119.6399043
v -6.1458980 165.6927815 119.6899787
v -5.6026945 165.3360252 119.3231064
v -5.6666658 165.4598620 119.5555501
v -5.0791419 165.4692475 119.3162828
v -5.3384368 165.5113848 119.5369818
v -5.6458355 165.6110422 119.6570765
v -5.1760976 165.5033906 119.4721204
v -5.0848756 165.7094053 119.6296493
v -4.8007942 165.7710302 119.5801988
v -5.2432869 165.8349327 119.6967855
v -4.6063338 165.7531674 119.4461210
v -4.3843264 166.0287389 119.5643196
v -4.5682378 166.0703632 119.6617754
v -4.2319677 166.0426028 119.4508823
v -3.9314643 166.3896936 119.4792510
v -4.1409049 166.3175777 119.6021310
v -4.3286077 166.4029057 119.6938922
v -3.6727502 166.6271345 119.2605380
v -3.7132554 166.6347768 119.4031202
v -3.8222237 166.6236956 119.5352114
v -3.9035631 166.7614624 119.6455209
v -3.6506278 166.9624732 119.5462148
v -3.3724567 167.3688493 119.2502404
v -3.8667790 167.1332797 119.6958322
v -3.5683985 167.3425394 119.5954367
v -3.4102717 167.4590120 119.4457972
v -3.3268496 167.6468336 119.3037161
v -3.5949587 167.6685585 119.6502063
v -4.7147860 168.7420239 119.7000000
v -6.0000412 169.4840242 119.7000000
v -4.7147860 167.2580232 119.7000000
v -7.2852140 168.7420239 119.7000000
v -6.0000412 166.5160229 119.7000000
v -7.2852140 167.2580232 119.7000000
v -4.7147860 168.7420239 117.9774853
v -6.0000412 169.4840242 117.9774853
v -4.7147860 167.2580232 117.9774853
v -6.0000412 166.5160229 117.9774853
v -7.2852140 167.2580232 117.9774853
v -7.2852140 168.7420239 117.9774853
v -6.5087906 166.5978682 110.0034491
v -6.5324511 166.6099110 109.8715086
v -6.9088781 166.8203416 109.8422916
v -7.3337715 167.3377098 109.9272089
v -7.2380411 167.1713491 109.8091843
v -7.4690261 167.7555631 109.8953292
v -7.4185365 167.5466969 109.7807662
v -7.4694384 168.2529729 109.8582087
v -7.4944556 168.0628611 109.7409465
v -7.3246717 168.6802556 109.8286320
v -7.3583447 168.6102049 109.7036106
v -7.0939478 169.0079707 109.7999638
v -6.7867869 169.2643971 109.7710591
v -7.0723638 169.0427140 109.6671006
v -6.6753043 169.3239405 109.6298712
v -6.3183375 169.4569288 109.7348328
v -6.2595385 169.4704452 109.6023867
v -5.8665141 169.4830165 109.7008734
v -5.8600257 169.4782953 109.5712364
v -5.3510935 169.3478074 109.6656147
v -5.5316399 169.4133578 109.5490490
v -4.8862397 168.9913939 109.6237585
v -5.1601661 169.2295037 109.5195910
v -4.8040136 168.8899295 109.4801786
v -4.6262222 167.4294805 109.5052041
v -4.8561939 167.0428670 109.4694163
v -4.6552804 167.3575275 109.3966026
v -4.8804093 167.0226283 109.3968300
v -5.4427272 166.6152634 109.4084791
v -5.1514404 166.7762337 109.3958391
v -5.5789837 166.5769844 109.4114443
v -5.6317189 166.5624031 109.3975662
v -5.7015930 166.5463389 109.3975662
v -5.7273146 166.5399344 109.3997144
v -5.9998661 169.1694341 115.9397601
v -6.1915416 169.1578692 113.3068512
v -5.6903469 169.1301629 115.9135558
v -5.3071002 168.9497917 115.8770712
v -4.6068730 168.5162192 116.0791508
v -4.9523114 168.5366902 115.8243100
v -4.8227301 168.0026896 115.7783509
v -4.5466521 167.6580862 116.0189773
v -4.9706824 167.4353128 115.7191573
v -5.5879706 166.9065430 115.6468912
v -5.2667068 167.0749292 115.6794128
v -6.2986443 166.8679389 115.5840793
v -6.6023347 167.0000509 115.5515560
v -7.0974597 166.9982512 115.7872462
v -6.8284651 167.1695935 115.5264924
v -7.0636002 167.5071367 115.4915450
v -7.1614432 167.8536502 115.4590609
v -7.0357804 168.5436653 115.3937148
v -6.5100096 169.0499299 115.3247774
v -6.8058600 168.8581531 115.3570713
v -5.4590803 169.0465839 115.2272055
v -4.6936209 168.7074042 115.4311873
v -5.0611486 168.7091764 115.1801353
v -4.8873876 168.3622560 115.1450467
v -4.8265267 167.9514458 115.1098112
v -4.6378749 167.4071934 115.3346239
v -4.8983585 167.5959015 115.0749596
v -5.0979098 167.2531607 115.0411384
v -5.1779838 166.7562993 115.2761258
v -5.2915534 167.0652494 115.0143610
v -5.7087246 166.8590771 114.9764397
v -6.0297153 166.5084921 115.2127240
v -6.5119383 166.6021877 115.1773928
v -6.2755281 166.8556257 114.9213475
v -7.2400213 167.1837761 115.1073259
v -6.7944323 167.1247006 114.8670079
v -7.0885826 167.5667529 114.8204221
v -7.4070913 168.4721808 115.0129390
v -7.1796260 168.0247109 114.7751178
v -6.9909892 168.6377688 114.7177623
v -6.6823450 168.9470976 114.6817502
v -6.4187723 169.0944859 114.6563037
v -6.1018949 169.1729137 114.6242451
v -5.2997919 168.9384230 114.5488640
v -5.0032869 168.6255382 114.5082352
v -4.8124261 168.0228321 114.4513958
v -5.0175607 166.8811908 114.6270762
v -5.0116356 167.3594667 114.3852933
v -5.4624468 166.9554580 114.3305722
v -5.8545187 166.8288937 114.2989432
v -6.1516801 166.5124345 114.5373269
v -6.2774137 166.8610869 114.2584599
v -6.6466340 167.0164525 114.2223309
v -7.0091530 167.3945017 114.1751403
v -7.1544543 167.8078313 114.1382277
v -7.4890402 168.1121816 114.3746553
v -7.0425898 168.5386027 114.0643805
v -6.8277564 168.8255759 114.0376679
v -6.5453934 169.0420543 114.0036209
v -6.1929549 169.1548986 113.9724110
v -5.8540522 169.1582057 113.9388037
v -5.4124799 169.3638063 114.1753932
v -5.2801506 168.9293410 113.8828648
v -4.9868134 168.5979830 113.8433763
v -4.5205138 167.8569613 114.0439004
v -4.8408763 167.8341729 113.7718056
v -4.9198924 167.5563859 113.7455273
v -5.0626272 167.2944969 113.7196269
v -5.2026434 166.7477731 113.9472442
v -5.3913340 166.9909240 113.6785259
v -5.7138134 166.8679487 113.6474883
v -6.4114741 166.5621908 113.8608918
v -6.4034021 166.8991800 113.5812961
v -6.8883950 166.8055972 113.8219670
v -6.7901656 167.1276337 113.5435976
v -7.4192029 167.5643084 113.7530323
v -7.0894257 167.5549069 113.4965213
v -7.1702846 167.9724346 113.4606361
v -6.9651810 168.6616279 113.3935785
v -6.8189106 169.2515762 113.6190912
v -7.1554074 168.2317570 115.4215169
v -6.2190868 169.4753383 115.5591764
v -6.1737105 169.1596764 115.2904223
v -5.0871776 169.1767956 114.8105679
v -7.1695379 168.1037712 114.1096365
v -4.8446009 168.1992097 113.8025105
v -7.1279865 168.3430207 113.4234551
v -5.0610431 169.1561880 115.6000468
v -4.7626524 168.8288598 115.5690778
v -4.5957258 168.4849568 115.5419927
v -4.5138008 168.0870326 115.5133096
v -5.0310348 166.8722950 115.4171859
v -5.9650262 166.8272289 115.6089165
v -7.0970750 166.9980886 115.2546897
v -7.4532511 168.3527361 115.1484404
v -7.2978033 168.7222178 115.1230936
v -5.8273496 169.1545841 115.2612181
v -4.9713441 169.0717719 114.9309092
v -4.6789155 168.7005389 114.8928918
v -4.6471351 167.3855911 114.8009102
v -5.6399412 166.5569852 114.7048708
v -6.0876147 166.5123248 114.6722817
v -6.5184956 166.6073635 114.6420388
v -7.2850453 167.2436142 114.5697705
v -6.2138989 169.4805430 114.3656358
v -5.6119702 169.1090207 114.5761413
v -5.1621966 169.2252147 114.2852699
v -4.5873666 168.4706518 114.2153088
v -4.5182009 168.0886865 114.1903415
v -5.1231437 166.7882926 114.0811296
v -5.9216864 166.5133076 114.0218369
v -6.3062678 166.5474478 113.9960547
v -7.3355850 167.3502054 113.8995648
v -7.0054628 169.1070553 113.7608891
v -6.6779899 169.3214490 113.7353819
v -5.5475055 169.0798532 113.9079967
v -4.9968050 169.0941701 113.6089114
v -4.5208858 167.8739742 113.5118991
v -4.8847566 167.0137331 113.4434745
v -5.1914015 166.7544451 113.4150132
v -6.0507221 166.8335025 113.6166175
v -7.4318484 167.5927184 113.2166800
v -7.4883438 168.0324041 113.1857301
v -7.3855643 168.5632936 113.1462095
v -7.1969337 168.8813097 113.1211018
v -6.7384350 168.9087887 113.3588506
v -6.4337089 169.0841445 113.3305556
v -4.8791664 167.0133383 114.7712628
v -5.7848072 169.1543972 113.2709419
v -5.2886572 168.9418620 113.2182102
v -4.9088614 168.4457543 113.1652709
v -4.8468318 168.9362687 112.9298287
v -4.8299947 168.0476818 113.1262131
v -4.8688233 167.6909523 113.0961567
v -4.5519195 167.6614285 112.8331979
v -5.2918342 167.0620924 113.0269781
v -5.5539190 166.9168884 112.9973186
v -5.9591962 166.8256450 112.9623776
v -5.7958819 166.5258114 112.7064235
v -6.2540493 166.8565523 112.9329583
v -6.6643346 167.0274794 112.8935537
v -7.0304404 167.4416009 112.8428764
v -7.0727241 166.9739778 112.6084585
v -7.1400497 167.7208826 112.8183915
v -7.1665483 168.1439090 112.7818530
v -7.0027209 168.6147367 112.7352952
v -7.0649810 169.0347357 112.4456256
v -6.6135413 169.0007119 112.6843652
v -6.2247388 169.1493273 112.6452629
v -5.7839341 169.1562391 112.6065866
v -5.4110440 169.3643436 112.3179573
v -5.2550162 168.9128364 112.5552763
v -4.9589700 168.5457065 112.5101895
v -4.5278072 168.2487349 112.2131267
v -4.8677411 167.6942585 112.4340664
v -4.5206612 167.8540539 112.1838528
v -5.0743112 167.2760961 112.3887892
v -5.4307610 166.9716547 112.3496781
v -5.7093219 166.8653331 112.3193029
v -6.0999666 166.8304015 112.2846288
v -6.6599598 167.0245540 112.2298929
v -6.9518861 167.3210533 112.1936649
v -7.1187665 167.6352132 112.1639474
v -7.4117953 167.5410523 111.8976123
v -7.1726598 168.0538889 112.1231766
v -7.0291326 168.5715172 112.0772011
v -6.7122247 168.9364866 112.0335972
v -6.9331786 169.1564103 111.7692454
v -6.3985496 169.0987469 111.9989709
v -5.9184984 169.1843387 111.9577056
v -5.1123235 168.7615583 111.8728171
v -4.9092795 168.4397796 111.8400605
v -4.5869308 168.4700133 111.5692408
v -4.5075927 167.9442942 111.5299650
v -4.8241173 167.8975651 111.7886630
v -5.0034672 167.3688217 111.7398158
v -5.3056075 167.0468383 111.7010761
v -5.8321518 166.8407796 111.6485087
v -6.2397798 166.8524268 111.6120854
v -6.6063913 166.9924781 111.5751865
v -7.0620481 168.5049848 111.4216890
v -7.1586851 168.1462233 111.4543960
v -7.3341596 168.6536424 111.1526316
v -6.8023225 168.8579799 111.3807271
v -6.5405161 169.0387762 111.3507123
v -5.8295717 169.4765989 111.0233487
v -5.8713100 169.1635928 111.2934412
v -5.4716860 169.0511937 111.2518885
v -5.0161472 168.6542488 111.1992907
v -4.7249026 168.7610290 110.9279869
v -4.8320598 167.9398862 111.1300593
v -5.1164304 167.2271885 111.0586156
v -5.3906574 166.9989513 111.0285521
v -6.0363595 166.8249914 110.9649403
v -5.6433461 166.8863486 111.0021296
v -6.5336329 166.9470432 110.9245278
v -6.9142462 167.2672881 110.8741450
v -7.1085614 167.6154719 110.8386583
v -7.1736973 168.0623039 110.8007543
v -7.4854077 167.9568214 110.5422677
v -7.1007599 168.4078042 110.7688249
v -6.9568317 168.6750336 110.7381825
v -6.9538102 169.1430849 110.4461037
v -6.6421021 168.9848277 110.7009069
v -6.3544751 169.1200246 110.6711995
v -4.8313500 168.0848059 112.4685766
v -5.2598414 169.2923610 111.6442308
v -5.3722613 168.9906123 111.9074437
v -5.3028259 166.6886708 111.4235059
v -7.0292778 167.4265391 111.5191290
v -4.8993842 167.5851298 111.0985508
v -5.9870721 169.1702723 110.6390876
v -7.0372944 168.5542837 109.4277377
v -6.8961984 169.0003760 109.2513481
v -6.1361800 169.1702238 109.3272875
v -6.4998750 169.2229477 109.2303904
v -6.1035340 169.2993642 109.2136209
v -5.6268848 169.1147112 109.2811410
v -5.7631279 169.2649498 109.1983095
v -5.1965363 168.8609646 109.2355771
v -5.1822115 168.9539988 109.1679155
v -4.8640235 168.3413224 109.1808250
v -4.9514161 168.6712243 109.1512299
v -4.8589019 167.6799625 109.1134329
v -4.7845505 168.1470280 109.1251808
v -5.0004444 167.3808122 109.0871841
v -5.6060682 169.1050696 110.6014861
v -5.2112267 168.8740115 110.5637397
v -5.1149377 169.1974768 110.3053939
v -4.8776075 168.9722467 110.2836420
v -4.5407983 168.2969381 110.2279824
v -4.8366147 168.1864157 110.4911906
v -4.5150983 167.9783131 110.2067905
v -4.8623993 167.7178342 110.4464837
v -4.6863619 167.3076338 110.1568657
v -5.1669370 167.1744830 110.3908101
v -5.5863588 166.5673300 110.0720354
v -6.1701379 166.8418729 110.2915415
v -6.5562458 166.9654380 110.2572359
v -6.8455843 167.1918519 110.2219152
v -7.0008023 166.8881819 109.9675392
v -7.0350984 167.4496178 110.1927964
v -7.1710248 168.0572057 110.1366044
v -7.0458544 168.5346424 110.0906574
v -6.6533542 168.9685029 110.0401907
v -6.4006352 169.0994929 110.0124805
v -5.4536573 169.0415415 109.9263197
v -4.9477126 168.5242142 109.8606074
v -5.1390556 168.7891476 109.8897739
v -4.6889185 168.6971230 109.5975939
v -4.5604544 168.3800635 109.5712724
v -4.5106209 167.9023398 109.5374722
v -4.9571851 167.4592733 109.7588528
v -4.8444434 167.8077577 109.7926814
v -5.2569732 167.0922879 109.7189428
v -5.1410432 166.7885142 109.4476098
v -5.5082079 166.9398196 109.6911472
v -5.8413790 166.8332228 109.6604883
v -5.8481882 166.5243098 109.3928244
v -6.3213034 166.8660075 109.6202508
v -6.6757869 167.0454552 109.5827026
v -6.8794102 167.2290766 109.5577357
v -7.1119063 167.6134890 109.5147381
v -7.3569569 167.6357266 109.3130166
v -6.7287706 168.9171489 109.3872244
v -6.4765895 169.0697618 109.3610435
v -4.9331883 167.7499953 108.9999599
v -4.5280613 167.7663660 109.3997200
v -4.9442356 168.3178865 108.9999108
v -5.8240112 166.9215980 108.9999477
v -5.3914605 167.0945402 108.9999682
v -5.1253850 167.3457991 108.9999843
v -5.2036257 168.7448988 108.9999951
v -5.5579585 169.0016820 108.9999609
v -5.4464809 169.1485653 109.1824391
v -6.1606285 169.0920718 108.9998793
v -6.6945884 168.8474423 108.9999784
v -6.9408831 168.5502637 108.9999920
v -7.2158400 168.6254402 109.2705069
v -7.0831212 168.1654384 108.9999406
v -7.3839441 168.1169879 109.2934747
v -7.0612673 167.7568370 108.9999941
v -6.9002296 167.3766117 108.9999224
v -7.1963060 167.2254249 109.3318100
v -6.9690212 166.9424552 109.3460658
v -6.5809654 167.0784365 108.9999898
v -6.7019430 166.7294417 109.3594366
v -6.2411858 166.9338290 108.9999732
v -6.3256211 166.5669575 109.3773205
v -4.9682444 168.5470576 110.5257489
v -4.5151435 168.0053804 110.7410054
v -4.9777267 167.4316407 110.4223092
v -4.8062157 167.1089470 110.6732503
v -5.5366192 166.9245634 110.3534908
v -5.8459594 166.8384819 110.3223990
v -6.1085701 166.5162061 110.5678665
v -7.0212261 166.9131093 110.4963061
v -7.1385212 167.7398204 110.1670286
v -6.8607827 168.7930591 110.0630919
v -5.9794934 169.1767489 109.9769380
v -4.7868556 168.8749027 110.1435940
v -4.8546996 168.2432333 109.8357241
v -4.5535204 167.6632764 110.0539773
v -4.8682659 167.0385696 110.0042959
v -5.0970437 166.8160546 109.9823043
v -5.8049649 166.5269384 109.9269386
v -6.1459109 166.5194819 109.9031380
v -7.1685210 168.1223886 109.4695499
v -4.5824946 168.4561623 109.4501972
v -4.5158678 168.0847662 109.4220581
v -5.6056598 169.4357668 113.5293657
v -4.8398784 168.9271988 113.4617925
v -4.6308125 168.5844939 113.4346173
v -4.5587412 167.6446719 113.3647757
v -5.0175673 167.3606009 113.0654762
v -5.0663075 166.8399407 113.2979360
v -6.2892352 166.5398550 113.2063501
v -6.6791193 166.6774538 113.1760907
v -7.0813060 166.9812502 113.1392756
v -7.3188751 167.3096198 113.1122440
v -7.3282339 168.6627879 113.0101849
v -5.4159060 169.3695545 112.8527643
v -4.6230390 167.4456294 112.6873998
v -5.2329800 166.7236765 112.6201713
v -6.4769472 166.5929916 112.5291903
v -6.8209736 166.7575877 112.5019445
v -7.1581779 167.0538889 112.4720580
v -7.4054455 167.5139690 112.4333168
v -6.8970568 169.1843657 112.3006881
v -6.5543609 169.3800911 112.2720716
v -5.7790550 169.4794241 112.2186185
v -4.8715268 168.9663514 112.1405714
v -4.7103739 167.2624347 112.0113839
v -7.0500754 166.9448918 111.8192197
v -7.1621534 167.8491045 111.4831451
v -7.1571670 168.9342414 111.6594978
v -6.7388410 169.2873460 111.6240337
v -6.2198308 169.1493627 111.3245908
v -5.0054261 169.1080281 111.4923554
v -4.7512681 168.8031183 111.4638294
v -4.8594704 168.2642758 111.1635569
v -4.6027790 167.4913617 111.3674071
v -4.7966997 167.1230986 111.3378572
v -5.1078090 166.8080005 111.3069408
v -5.4947933 166.5990053 111.2753967
v -6.8755559 166.8001196 111.1717856
v -7.1690741 167.0779425 111.1438937
v -7.3682900 167.4181539 111.1108951
v -7.4845517 167.9751722 111.0725578
v -7.4566761 168.3094178 111.0497781
v -6.5414679 169.3829975 110.9450782
v -4.7222182 167.2221507 113.3304910
v -4.6143375 168.5632373 112.1082110
f 3 1 46
f 3 46 2
f 5 3 2
f 5 2 4
f 486 5 4
f 7 486 4
f 7 4 6
f 9 7 6
f 9 6 8
f 11 9 8
f 11 8 10
f 13 11 10
f 13 10 12
f 14 13 12
f 14 12 15
f 16 14 15
f 554 16 15
f 554 15 17
f 18 554 17
f 19 554 18
f 21 18 17
f 22 554 19
f 21 17 20
f 24 21 20
f 25 22 23
f 27 24 20
f 28 25 560
f 27 20 26
f 29 27 26
f 494 28 561
f 29 26 30
f 477 29 30
f 31 494 562
f 33 477 30
f 33 30 32
f 35 31 563
f 480 33 32
f 480 32 36
f 498 35 34
f 38 480 36
f 40 498 37
f 38 36 39
f 41 38 39
f 40 37 564
f 501 40 564
f 501 564 42
f 45 41 39
f 45 39 43
f 47 501 42
f 47 42 44
f 1 45 43
f 1 43 46
f 504 47 44
f 504 44 48
f 19 23 22
f 23 560 25
f 560 561 28
f 561 562 494
f 562 563 31
f 563 34 35
f 34 37 498
f 505 504 48
f 49 505 48
f 51 505 49
f 566 51 49
f 50 51 566
f 507 51 50
f 53 507 50
f 52 53 50
f 54 53 52
f 567 54 52
f 510 54 567
f 56 510 567
f 568 56 567
f 55 56 568
f 58 56 55
f 57 58 55
f 60 58 57
f 60 57 59
f 62 60 59
f 62 59 61
f 64 62 61
f 64 61 63
f 556 64 63
f 556 63 570
f 65 556 570
f 65 570 571
f 66 65 571
f 66 571 67
f 69 66 67
f 69 67 68
f 70 69 68
f 70 68 572
f 71 70 572
f 71 572 600
f 519 71 600
f 519 600 72
f 73 519 72
f 73 72 573
f 523 573 574
f 523 73 573
f 523 574 575
f 75 523 575
f 75 575 74
f 76 75 74
f 76 74 576
f 77 76 576
f 79 576 78
f 79 77 576
f 528 79 78
f 528 78 80
f 82 528 80
f 82 80 81
f 84 82 81
f 84 81 83
f 85 84 83
f 577 85 83
f 86 85 577
f 88 86 577
f 87 88 577
f 534 88 87
f 90 534 87
f 579 90 87
f 89 90 579
f 91 90 89
f 580 91 89
f 93 91 580
f 581 93 580
f 92 93 581
f 537 93 92
f 95 537 92
f 94 95 92
f 96 95 94
f 582 96 94
f 541 96 582
f 98 541 582
f 97 98 582
f 99 98 97
f 583 99 97
f 544 99 583
f 584 544 583
f 100 544 584
f 546 544 100
f 101 546 100
f 103 546 101
f 585 103 101
f 102 103 585
f 548 103 102
f 105 548 102
f 104 105 102
f 107 105 104
f 106 107 104
f 108 107 106
f 586 108 106
f 552 108 586
f 587 552 586
f 109 552 587
f 111 552 109
f 110 111 109
f 783 111 110
f 112 783 110
f 113 783 112
f 589 113 112
f 114 113 589
f 784 113 114
f 785 784 114
f 115 785 114
f 116 785 115
f 590 116 115
f 117 116 590
f 786 116 117
f 824 786 117
f 591 824 117
f 788 824 591
f 592 788 591
f 118 788 592
f 119 788 118
f 120 119 118
f 121 119 120
f 121 120 122
f 789 121 122
f 123 789 122
f 790 789 123
f 126 790 123
f 124 126 123
f 125 126 124
f 791 126 125
f 792 791 125
f 594 792 125
f 127 792 594
f 595 127 594
f 128 127 595
f 596 128 595
f 793 128 596
f 130 793 596
f 597 130 596
f 129 130 597
f 132 130 129
f 131 132 129
f 134 132 131
f 133 134 131
f 136 134 133
f 135 136 133
f 794 136 135
f 137 794 135
f 139 794 137
f 604 139 137
f 138 139 604
f 140 139 138
f 142 140 138
f 141 142 138
f 144 142 141
f 607 144 141
f 143 144 607
f 795 144 143
f 146 795 143
f 145 146 143
f 796 146 145
f 147 796 145
f 148 796 147
f 611 148 147
f 149 148 611
f 150 148 149
f 797 149 151
f 797 150 149
f 798 797 151
f 799 798 151
f 799 151 615
f 799 615 152
f 800 799 152
f 800 152 153
f 154 800 153
f 154 153 155
f 157 154 155
f 157 155 156
f 159 157 156
f 159 156 619
f 159 619 158
f 801 159 158
f 802 801 158
f 802 158 160
f 161 802 160
f 803 161 160
f 803 160 162
f 803 162 623
f 164 803 623
f 164 623 163
f 804 164 163
f 804 163 165
f 825 804 165
f 825 165 626
f 166 825 626
f 166 626 628
f 167 628 168
f 167 166 628
f 805 168 169
f 805 167 168
f 171 805 169
f 171 169 170
f 173 171 170
f 173 170 172
f 175 173 172
f 175 172 174
f 177 175 174
f 177 174 176
f 180 177 176
f 178 180 176
f 179 180 178
f 181 180 179
f 806 181 179
f 182 806 179
f 184 806 182
f 636 184 182
f 183 184 636
f 186 184 183
f 185 186 183
f 188 186 185
f 187 188 185
f 808 188 187
f 190 808 187
f 640 190 187
f 189 190 640
f 809 190 189
f 192 809 189
f 191 192 189
f 194 192 191
f 193 194 191
f 195 194 193
f 679 195 193
f 811 195 679
f 196 811 679
f 812 811 196
f 197 812 196
f 645 197 196
f 198 197 645
f 646 198 645
f 814 198 646
f 199 814 646
f 815 814 199
f 200 815 199
f 816 815 200
f 681 816 200
f 817 816 681
f 201 817 681
f 202 817 201
f 203 202 201
f 204 202 203
f 206 204 203
f 206 203 205
f 206 205 207
f 818 206 207
f 819 818 207
f 208 819 207
f 820 819 208
f 210 820 208
f 209 210 208
f 821 210 209
f 822 821 209
f 211 822 209
f 213 822 211
f 655 213 211
f 212 213 655
f 215 213 212
f 214 215 212
f 823 215 214
f 217 823 214
f 216 217 214
f 217 216 658
f 219 217 658
f 219 658 218
f 220 219 218
f 222 220 218
f 221 222 218
f 224 222 221
f 662 224 221
f 223 224 662
f 226 224 223
f 225 226 223
f 763 226 225
f 229 763 225
f 227 229 225
f 228 229 227
f 765 229 228
f 230 765 228
f 232 765 230
f 231 232 230
f 234 232 231
f 233 234 231
f 768 234 233
f 768 233 235
f 237 768 235
f 236 237 235
f 769 236 238
f 769 237 236
f 240 769 238
f 240 238 239
f 242 240 239
f 242 239 672
f 242 672 241
f 244 242 241
f 244 241 243
f 245 244 243
f 245 243 675
f 246 245 675
f 248 675 247
f 248 246 675
f 250 248 247
f 249 250 247
f 252 250 249
f 251 252 249
f 253 252 251
f 701 253 251
f 773 253 701
f 702 773 701
f 254 773 702
f 255 773 254
f 703 255 254
f 257 255 703
f 705 257 703
f 256 257 705
f 775 257 256
f 259 775 256
f 707 259 256
f 258 259 707
f 776 259 258
f 777 776 258
f 260 777 258
f 261 777 260
f 709 261 260
f 778 261 709
f 262 778 709
f 779 778 262
f 26 20 263
f 263 20 266
f 264 26 263
f 264 30 26
f 265 30 264
f 266 20 269
f 20 17 269
f 267 32 265
f 265 32 30
f 268 32 267
f 269 15 271
f 17 15 269
f 268 36 32
f 270 36 268
f 271 15 273
f 270 39 36
f 15 12 273
f 270 272 39
f 12 275 273
f 10 275 12
f 39 272 43
f 272 274 43
f 8 275 10
f 8 277 275
f 43 274 46
f 274 276 46
f 6 277 8
f 6 279 277
f 46 276 2
f 276 278 2
f 4 279 6
f 2 278 4
f 4 280 279
f 278 280 4
f 303 281 267
f 303 267 265
f 282 303 265
f 307 265 264
f 307 282 265
f 312 307 264
f 312 264 263
f 283 312 263
f 284 283 263
f 321 284 263
f 321 263 266
f 324 321 266
f 326 324 266
f 326 266 269
f 330 326 269
f 285 330 269
f 285 269 271
f 340 285 271
f 343 340 271
f 343 271 273
f 346 343 273
f 349 346 273
f 354 349 273
f 354 273 275
f 286 354 275
f 287 286 275
f 287 275 277
f 288 287 277
f 289 288 277
f 290 289 277
f 290 277 279
f 367 290 279
f 371 367 279
f 375 371 279
f 375 279 280
f 378 375 280
f 291 280 278
f 291 378 280
f 383 291 278
f 292 278 276
f 292 383 278
f 389 292 276
f 396 389 276
f 396 276 274
f 400 396 274
f 293 400 274
f 402 293 274
f 402 274 272
f 294 402 272
f 295 294 272
f 296 272 270
f 296 295 272
f 416 296 270
f 297 416 270
f 297 270 268
f 421 297 268
f 425 421 268
f 298 268 267
f 298 425 268
f 298 298 267
f 281 298 267
f 281 281 267
f 299 298 298
f 299 298 281
f 299 281 281
f 299 425 298
f 303 299 281
f 302 301 303
f 310 300 301
f 310 301 302
f 282 302 303
f 305 300 310
f 310 302 282
f 308 305 310
f 309 282 307
f 309 310 282
f 308 304 305
f 306 304 308
f 311 308 310
f 311 310 309
f 309 307 312
f 314 306 308
f 313 309 312
f 314 308 311
f 313 311 309
f 316 311 313
f 315 313 312
f 315 312 283
f 314 311 316
f 317 313 315
f 284 315 283
f 316 313 317
f 318 315 284
f 319 314 316
f 320 319 316
f 317 315 318
f 321 318 284
f 320 316 317
f 322 317 318
f 320 317 322
f 323 318 321
f 322 318 323
f 324 323 321
f 325 319 320
f 325 320 322
f 325 322 323
f 328 323 324
f 328 325 323
f 329 324 326
f 329 328 324
f 332 319 325
f 332 325 327
f 327 325 328
f 329 326 330
f 333 328 329
f 336 319 332
f 333 327 328
f 330 333 329
f 331 332 327
f 331 327 333
f 334 330 285
f 334 333 330
f 337 333 334
f 336 332 331
f 338 331 333
f 338 333 337
f 335 334 285
f 340 335 285
f 335 337 334
f 336 331 338
f 342 335 340
f 339 337 335
f 342 339 335
f 341 336 338
f 338 337 339
f 342 340 343
f 344 339 342
f 348 336 341
f 341 338 339
f 341 339 344
f 345 342 343
f 345 344 342
f 347 344 345
f 345 343 346
f 348 341 344
f 351 344 347
f 350 345 346
f 350 347 345
f 348 344 351
f 349 350 346
f 351 347 350
f 353 348 351
f 352 351 350
f 355 349 354
f 355 350 349
f 353 351 352
f 355 352 350
f 357 352 355
f 356 353 352
f 358 355 354
f 356 352 357
f 357 355 358
f 358 354 286
f 359 357 358
f 365 353 356
f 287 358 286
f 287 359 358
f 361 356 357
f 361 357 359
f 360 359 287
f 361 359 360
f 360 287 288
f 365 356 361
f 362 360 288
f 363 361 360
f 289 362 288
f 363 365 361
f 364 363 360
f 366 362 289
f 369 365 363
f 364 360 362
f 366 289 290
f 364 362 366
f 369 363 364
f 368 364 366
f 367 366 290
f 368 366 367
f 372 364 368
f 370 368 367
f 370 367 371
f 374 369 364
f 374 364 372
f 370 372 368
f 373 370 371
f 376 372 370
f 376 374 372
f 373 371 375
f 373 376 370
f 377 373 375
f 381 374 376
f 377 376 373
f 379 369 374
f 378 377 375
f 380 377 378
f 381 379 374
f 382 376 377
f 380 378 291
f 382 377 380
f 385 376 382
f 381 376 385
f 383 380 291
f 382 380 387
f 387 380 383
f 384 381 385
f 387 383 386
f 384 379 381
f 385 382 387
f 386 383 292
f 388 385 387
f 388 384 385
f 391 387 386
f 391 388 387
f 390 386 292
f 391 386 390
f 390 292 389
f 393 384 388
f 393 379 384
f 395 388 391
f 392 389 396
f 392 390 389
f 394 391 390
f 394 390 392
f 395 391 394
f 393 388 395
f 398 393 395
f 397 392 396
f 397 394 392
f 399 393 398
f 397 396 400
f 398 394 397
f 398 395 394
f 401 397 400
f 401 398 397
f 404 399 398
f 404 398 401
f 405 401 400
f 402 400 293
f 405 400 402
f 408 393 399
f 403 401 405
f 408 399 404
f 403 404 401
f 406 404 403
f 405 406 403
f 409 402 294
f 409 405 402
f 408 404 406
f 407 406 405
f 407 405 409
f 295 409 294
f 411 408 406
f 410 407 409
f 412 409 295
f 411 406 407
f 410 409 412
f 411 407 410
f 296 412 295
f 415 408 411
f 414 411 410
f 414 410 412
f 413 412 296
f 413 414 412
f 417 296 416
f 417 413 296
f 415 411 414
f 418 413 417
f 418 414 413
f 419 415 414
f 297 417 416
f 419 414 418
f 420 418 417
f 420 419 418
f 422 415 419
f 420 417 297
f 423 419 420
f 424 420 297
f 424 297 421
f 422 419 423
f 423 420 424
f 425 424 421
f 425 299 303
f 426 422 423
f 301 425 303
f 301 424 425
f 300 423 424
f 300 424 301
f 426 423 300
f 304 422 426
f 426 300 305
f 426 305 304
f 422 304 306
f 427 306 314
f 427 314 319
f 428 319 336
f 428 336 348
f 428 427 319
f 429 415 422
f 429 422 306
f 429 306 427
f 430 348 353
f 430 428 348
f 365 430 353
f 408 415 429
f 431 408 429
f 393 408 431
f 369 430 365
f 369 432 430
f 379 432 369
f 379 393 431
f 379 431 432
f 427 428 433
f 433 428 434
f 429 427 435
f 435 427 433
f 431 429 436
f 436 429 435
f 432 431 437
f 437 431 436
f 430 432 438
f 438 432 437
f 428 430 434
f 434 430 438
f 433 434 438
f 435 438 437
f 435 437 436
f 435 433 438
f 439 779 262
f 440 779 439
f 441 439 713
f 441 440 439
f 443 441 713
f 443 713 442
f 445 443 442
f 445 442 444
f 447 445 444
f 447 444 446
f 449 447 446
f 449 446 448
f 452 449 448
f 452 448 450
f 452 450 451
f 453 452 451
f 453 451 454
f 455 453 454
f 455 454 456
f 457 455 456
f 459 457 456
f 459 456 458
f 461 459 458
f 461 458 460
f 462 461 460
f 462 460 722
f 781 462 722
f 781 722 723
f 782 781 723
f 782 723 724
f 740 782 724
f 463 740 724
f 465 740 463
f 464 465 463
f 466 465 464
f 468 466 464
f 468 464 728
f 467 468 728
f 470 467 469
f 470 470 469
f 471 470 470
f 472 471 470
f 21 473 18
f 21 475 473
f 24 475 21
f 24 476 475
f 27 476 24
f 27 29 476
f 476 29 478
f 478 477 479
f 29 477 478
f 33 479 477
f 480 479 33
f 479 480 481
f 481 38 483
f 480 38 481
f 38 41 483
f 45 482 41
f 1 482 45
f 41 482 483
f 482 1 565
f 3 484 1
f 1 484 565
f 5 485 3
f 3 485 484
f 487 486 488
f 7 488 486
f 9 489 7
f 7 489 488
f 9 11 489
f 489 11 553
f 14 490 13
f 490 14 492
f 554 491 16
f 16 491 14
f 14 491 492
f 491 554 555
f 22 25 569
f 569 25 493
f 493 28 495
f 25 28 493
f 495 494 496
f 28 494 495
f 496 31 497
f 494 31 496
f 35 497 31
f 35 498 497
f 497 498 499
f 499 498 500
f 501 500 40
f 40 500 498
f 502 501 503
f 500 501 502
f 504 503 47
f 47 503 501
f 503 504 506
f 504 505 506
f 506 505 508
f 505 51 508
f 51 507 508
f 508 507 509
f 507 53 509
f 509 53 511
f 53 54 511
f 511 510 512
f 54 510 511
f 510 56 512
f 58 513 56
f 56 513 512
f 58 514 513
f 60 514 58
f 60 62 514
f 514 62 515
f 515 62 578
f 62 64 578
f 556 516 64
f 64 516 578
f 517 66 518
f 65 66 517
f 66 69 518
f 69 70 518
f 518 70 520
f 70 71 520
f 520 519 521
f 519 73 521
f 521 73 522
f 523 522 73
f 523 75 524
f 524 75 525
f 75 76 525
f 525 76 526
f 526 77 527
f 76 77 526
f 79 527 77
f 528 527 79
f 557 528 529
f 528 82 529
f 84 530 82
f 82 530 529
f 84 85 530
f 530 85 531
f 88 533 86
f 86 533 532
f 588 534 535
f 534 90 535
f 536 93 558
f 91 93 536
f 558 537 538
f 95 539 537
f 537 539 538
f 96 540 95
f 96 541 540
f 540 541 542
f 98 543 541
f 99 543 98
f 541 543 542
f 99 593 543
f 544 593 99
f 593 544 545
f 545 546 547
f 544 546 545
f 547 103 549
f 546 103 547
f 549 548 550
f 103 548 549
f 107 550 105
f 105 550 548
f 550 107 559
f 108 552 551
f 551 552 598
f 598 552 599
f 111 599 552
f 474 599 111
f 486 487 5
f 5 487 485
f 13 553 11
f 490 553 13
f 555 554 569
f 569 554 22
f 516 556 517
f 517 556 65
f 519 520 71
f 524 522 523
f 528 557 527
f 531 85 532
f 532 85 86
f 534 588 88
f 88 588 533
f 91 536 90
f 90 536 535
f 537 558 93
f 95 540 539
f 108 559 107
f 551 559 108
f 473 19 18
f 475 19 473
f 476 23 475
f 475 23 19
f 476 560 23
f 478 561 476
f 476 561 560
f 479 562 478
f 478 562 561
f 479 563 562
f 479 34 563
f 481 34 479
f 34 481 37
f 37 481 564
f 483 564 481
f 483 482 564
f 564 482 42
f 42 482 44
f 44 565 48
f 482 565 44
f 484 48 565
f 484 485 48
f 48 485 49
f 487 566 485
f 488 566 487
f 485 566 49
f 488 50 566
f 489 50 488
f 489 52 50
f 553 52 489
f 553 567 52
f 553 568 567
f 490 568 553
f 492 568 490
f 492 55 568
f 492 491 55
f 57 491 59
f 55 491 57
f 59 555 61
f 491 555 59
f 555 569 61
f 61 569 63
f 493 63 569
f 495 570 493
f 493 570 63
f 496 571 495
f 495 571 570
f 496 67 571
f 497 67 496
f 497 68 67
f 499 68 497
f 499 572 68
f 502 600 500
f 503 574 573
f 506 574 503
f 506 575 574
f 508 575 506
f 508 74 575
f 509 576 508
f 576 509 78
f 78 511 80
f 512 80 511
f 81 512 83
f 512 513 83
f 515 577 514
f 516 579 578
f 578 579 87
f 517 89 516
f 516 89 579
f 518 580 517
f 517 580 89
f 518 581 580
f 518 92 581
f 520 92 518
f 92 520 94
f 521 582 520
f 520 582 94
f 582 521 97
f 522 583 521
f 521 583 97
f 522 584 583
f 524 584 522
f 524 100 584
f 525 100 524
f 526 101 525
f 525 101 100
f 526 585 101
f 527 585 526
f 557 102 527
f 527 102 585
f 529 104 557
f 557 104 102
f 106 529 586
f 104 529 106
f 530 586 529
f 531 586 530
f 531 587 586
f 532 109 531
f 531 109 587
f 532 533 109
f 109 533 110
f 533 588 110
f 110 588 112
f 536 589 535
f 535 589 588
f 588 589 112
f 536 114 589
f 536 558 114
f 114 558 115
f 538 590 558
f 558 590 115
f 538 539 590
f 590 539 117
f 542 591 540
f 540 591 539
f 539 591 117
f 542 592 591
f 542 543 592
f 592 543 118
f 118 543 120
f 543 593 120
f 120 593 122
f 593 545 122
f 122 545 123
f 547 124 545
f 545 124 123
f 549 125 547
f 547 125 124
f 549 594 125
f 550 594 549
f 559 595 550
f 550 595 594
f 559 596 595
f 551 597 559
f 598 597 551
f 559 597 596
f 597 598 129
f 129 598 131
f 133 599 474
f 131 599 133
f 598 599 131
f 499 600 572
f 500 600 499
f 72 600 502
f 72 503 573
f 502 503 72
f 74 508 576
f 511 78 509
f 80 512 81
f 513 514 83
f 83 514 577
f 578 87 515
f 515 87 577
f 601 133 474
f 601 135 133
f 684 247 677
f 684 249 247
f 602 135 601
f 135 602 137
f 603 604 602
f 602 604 137
f 603 138 604
f 603 605 138
f 138 605 141
f 606 607 605
f 605 607 141
f 606 143 607
f 787 143 606
f 608 609 145
f 145 609 147
f 147 609 611
f 610 611 609
f 610 612 611
f 611 612 149
f 149 612 151
f 612 613 151
f 614 615 613
f 613 615 151
f 615 614 152
f 152 614 153
f 616 153 614
f 617 153 616
f 620 619 618
f 618 619 156
f 619 620 158
f 158 620 160
f 620 621 160
f 160 622 162
f 621 622 160
f 624 623 622
f 622 623 162
f 624 163 623
f 624 625 163
f 163 625 165
f 678 626 625
f 625 626 165
f 627 628 678
f 627 168 628
f 629 168 627
f 168 629 169
f 169 629 170
f 630 631 170
f 170 631 172
f 172 631 174
f 631 632 174
f 174 632 176
f 633 178 632
f 632 178 176
f 178 633 179
f 179 634 182
f 633 634 179
f 635 636 634
f 634 636 182
f 635 637 636
f 183 637 185
f 636 637 183
f 638 185 637
f 639 187 638
f 638 187 185
f 639 640 187
f 639 641 640
f 189 641 191
f 640 641 189
f 642 191 641
f 642 193 191
f 644 645 643
f 643 645 196
f 646 647 199
f 648 199 647
f 648 649 199
f 199 649 200
f 650 681 649
f 201 650 203
f 681 650 201
f 651 652 203
f 205 652 207
f 203 652 205
f 682 207 652
f 207 682 208
f 209 654 211
f 653 655 654
f 654 655 211
f 653 656 655
f 655 656 212
f 212 657 214
f 810 216 657
f 657 216 214
f 659 660 658
f 658 660 218
f 661 221 660
f 661 662 221
f 813 663 223
f 225 663 227
f 223 663 225
f 683 664 227
f 228 664 230
f 227 664 228
f 664 665 230
f 230 665 231
f 231 667 233
f 233 666 235
f 667 666 233
f 666 668 235
f 235 668 236
f 236 668 238
f 238 669 239
f 668 669 238
f 669 670 239
f 671 673 672
f 672 673 241
f 243 674 675
f 676 675 674
f 676 677 675
f 675 677 247
f 143 787 145
f 145 787 608
f 153 617 155
f 156 155 618
f 618 155 617
f 626 678 628
f 630 170 629
f 642 679 193
f 680 679 642
f 643 196 680
f 680 196 679
f 646 644 647
f 645 644 646
f 649 681 200
f 651 203 650
f 209 682 807
f 208 682 209
f 209 807 654
f 212 656 657
f 658 216 659
f 659 216 810
f 218 660 221
f 662 661 223
f 223 661 813
f 683 227 663
f 231 665 667
f 671 239 670
f 672 239 671
f 674 243 673
f 673 243 241
f 738 688 686
f 687 689 688
f 690 747 691
f 692 747 690
f 692 693 747
f 692 695 693
f 694 695 692
f 694 697 695
f 696 697 694
f 699 249 684
f 249 699 251
f 700 701 699
f 699 701 251
f 700 702 701
f 700 762 702
f 702 762 254
f 704 703 762
f 762 703 254
f 706 705 704
f 704 705 703
f 705 706 256
f 764 707 706
f 706 707 256
f 764 708 707
f 707 708 258
f 766 260 708
f 708 260 258
f 766 709 260
f 767 709 766
f 709 767 262
f 767 710 262
f 262 710 439
f 711 439 710
f 711 713 439
f 713 712 442
f 711 712 713
f 712 714 442
f 714 770 442
f 442 770 444
f 770 715 444
f 444 715 446
f 716 446 715
f 446 716 448
f 448 771 450
f 716 771 448
f 450 717 451
f 771 717 450
f 451 718 454
f 717 718 451
f 772 454 718
f 772 456 454
f 772 719 456
f 456 719 458
f 458 719 460
f 719 721 460
f 720 722 721
f 721 722 460
f 720 723 722
f 774 723 720
f 774 724 723
f 726 724 774
f 724 726 463
f 726 725 463
f 463 725 464
f 727 464 725
f 727 728 464
f 727 729 728
f 728 729 467
f 467 729 469
f 469 729 470
f 730 731 729
f 729 731 470
f 470 731 472
f 730 732 731
f 731 732 761
f 732 733 761
f 761 733 759
f 757 759 733
f 733 734 757
f 734 756 757
f 735 756 734
f 736 756 735
f 735 753 736
f 780 753 735
f 753 780 751
f 751 780 685
f 737 686 685
f 685 686 751
f 738 686 737
f 687 688 738
f 690 691 687
f 687 691 689
f 698 744 739
f 696 698 739
f 697 696 739
f 465 698 740
f 697 739 741
f 695 697 741
f 742 470 471
f 742 471 472
f 742 472 731
f 467 742 743
f 467 470 742
f 468 467 743
f 466 468 743
f 466 743 744
f 698 466 744
f 698 465 466
f 695 741 745
f 693 695 745
f 693 745 746
f 747 693 746
f 691 747 746
f 691 746 748
f 748 689 691
f 748 688 689
f 688 748 749
f 749 686 688
f 751 749 750
f 751 686 749
f 751 750 752
f 753 751 752
f 753 752 754
f 736 753 754
f 736 754 755
f 756 736 755
f 757 756 755
f 757 755 758
f 759 757 758
f 759 758 760
f 761 759 760
f 760 742 731
f 761 760 731
f 749 758 755
f 749 755 754
f 749 754 752
f 749 752 750
f 748 758 749
f 748 742 760
f 748 760 758
f 741 739 744
f 746 742 748
f 745 743 742
f 745 742 746
f 745 741 744
f 745 744 743
f 684 219 699
f 217 219 684
f 219 220 699
f 222 700 220
f 220 700 699
f 222 224 700
f 226 762 224
f 224 762 700
f 762 226 704
f 704 763 706
f 226 763 704
f 763 229 706
f 765 764 229
f 229 764 706
f 764 765 708
f 765 232 708
f 708 232 766
f 234 766 232
f 234 767 766
f 768 767 234
f 767 768 710
f 237 711 768
f 768 711 710
f 769 711 237
f 712 769 714
f 711 769 712
f 769 240 714
f 242 770 240
f 240 770 714
f 770 242 715
f 242 244 715
f 715 244 716
f 245 771 244
f 244 771 716
f 246 717 245
f 248 717 246
f 245 717 771
f 717 248 718
f 250 772 248
f 252 772 250
f 248 772 718
f 252 253 772
f 772 253 719
f 773 719 253
f 773 721 719
f 721 773 720
f 255 774 773
f 773 774 720
f 255 257 774
f 774 257 726
f 726 775 725
f 257 775 726
f 775 259 725
f 259 776 725
f 725 776 727
f 727 777 729
f 776 777 727
f 261 729 777
f 261 778 729
f 729 778 730
f 778 779 730
f 730 779 732
f 440 732 779
f 441 733 440
f 440 733 732
f 441 734 733
f 443 734 441
f 734 443 735
f 443 445 735
f 447 780 445
f 445 780 735
f 449 780 447
f 780 449 685
f 685 452 737
f 449 452 685
f 453 737 452
f 453 738 737
f 455 738 453
f 738 455 687
f 687 457 690
f 455 457 687
f 457 459 690
f 459 461 690
f 690 461 692
f 461 462 692
f 692 462 694
f 462 781 694
f 781 782 694
f 694 782 696
f 782 740 696
f 696 740 698
f 111 601 474
f 783 601 111
f 217 684 677
f 601 783 602
f 783 113 602
f 602 784 603
f 113 784 602
f 784 785 603
f 603 116 605
f 785 116 603
f 605 786 606
f 116 786 605
f 824 787 786
f 786 787 606
f 788 119 608
f 608 119 609
f 119 121 609
f 609 121 610
f 121 789 610
f 610 789 612
f 789 790 612
f 612 790 613
f 126 791 790
f 790 791 613
f 613 791 614
f 791 792 614
f 614 792 616
f 792 127 616
f 616 127 617
f 128 793 617
f 617 793 618
f 793 130 618
f 618 130 620
f 132 620 130
f 132 134 620
f 620 134 621
f 622 794 624
f 794 139 624
f 139 140 624
f 624 140 625
f 140 142 625
f 625 142 678
f 142 144 678
f 678 144 627
f 627 795 629
f 144 795 627
f 795 146 629
f 629 796 630
f 146 796 629
f 630 148 631
f 796 148 630
f 631 150 632
f 148 150 631
f 150 797 632
f 632 797 633
f 797 798 633
f 633 799 634
f 798 799 633
f 634 799 635
f 799 800 635
f 800 154 635
f 635 154 637
f 154 157 637
f 637 157 638
f 157 159 638
f 638 159 639
f 159 801 639
f 639 802 641
f 641 802 642
f 801 802 639
f 802 161 642
f 161 803 642
f 164 804 680
f 680 804 643
f 643 804 644
f 804 825 644
f 647 167 648
f 167 805 648
f 173 649 171
f 171 649 805
f 805 649 648
f 649 175 650
f 177 650 175
f 177 180 650
f 650 180 651
f 180 181 651
f 651 181 652
f 181 806 652
f 652 806 682
f 806 184 682
f 186 807 184
f 184 807 682
f 188 654 186
f 654 188 653
f 190 809 808
f 808 809 656
f 656 809 657
f 192 810 809
f 809 810 657
f 192 659 810
f 194 659 192
f 194 195 659
f 659 195 660
f 195 811 660
f 660 811 661
f 811 812 661
f 198 813 197
f 197 813 812
f 812 813 661
f 813 198 663
f 663 198 683
f 198 814 683
f 683 815 664
f 814 815 683
f 815 816 664
f 664 816 665
f 816 817 665
f 665 817 667
f 667 817 666
f 202 204 817
f 817 204 666
f 204 206 666
f 666 206 668
f 668 818 669
f 206 818 668
f 818 819 669
f 210 821 820
f 670 821 671
f 820 821 670
f 671 822 673
f 673 213 674
f 213 215 674
f 674 215 676
f 676 823 677
f 215 823 676
f 677 823 217
f 608 824 788
f 787 824 608
f 127 128 617
f 621 136 622
f 134 136 621
f 794 622 136
f 642 164 680
f 803 164 642
f 644 825 647
f 647 825 166
f 647 166 167
f 649 173 175
f 807 186 654
f 653 808 656
f 188 808 653
f 669 820 670
f 819 820 669
f 822 671 821
f 213 673 822
