# Render LOD; unchanged CAD body-local coordinates in mm
v -18.0071327 -13.0420333 -85.1171383
v -18.3379359 -11.6837457 -84.5463711
v -18.8856125 -11.5529462 -84.1340156
v -19.6481371 -11.5164983 -84.0187612
v -19.2703746 -12.7369714 -83.6509308
v -20.4036406 -11.6033266 -84.2926587
v -19.8942058 -12.7895732 -83.6630963
v -20.8623244 -11.7817225 -84.8552440
v -20.5411298 -12.9455595 -83.9995508
v -20.8703074 -13.1368017 -84.4550070
v -20.9978982 -11.9817159 -85.4863476
v -20.9902012 -13.2302034 -85.0489405
v -20.9858326 -12.7248843 -85.2023043
v -20.8252898 -12.1754121 -86.0971659
v -20.9004121 -12.9238421 -85.6974673
v -20.8004242 -13.6265845 -85.6759247
v -20.4652685 -13.6621405 -86.1024556
v -20.4826932 -12.3063873 -86.5098927
v -20.5177729 -13.1380349 -86.2195424
v -20.0087249 -12.3917551 -86.7792788
v -20.4928730 -13.7776695 -86.0367674
v -19.9250089 -13.7921688 -86.3615032
v -20.0256054 -13.2680427 -86.4901595
v -19.9919555 -13.9070358 -86.3046750
v -19.3909076 -13.8467192 -86.4061272
v -19.4637299 -12.4178817 -86.8618050
v -19.5170779 -13.9600430 -86.3695321
v -19.5044516 -13.3303336 -86.5775690
v -18.8884014 -12.3798954 -86.7422562
v -18.9132248 -13.8433601 -86.2813788
v -18.4115116 -12.2754498 -86.4123367
v -18.4956099 -13.7979719 -86.0184535
v -18.4678231 -13.2818394 -86.1557664
v -18.0973778 -12.1247130 -85.9369611
v -18.1293826 -13.6861031 -85.5271343
v -18.1324379 -13.1783581 -85.6854299
v -18.1641813 -13.8329862 -85.5631392
v -18.0161300 -11.8880137 -85.1906761
v -18.0118798 -13.6856824 -84.9740302
v -18.1107064 -13.4208879 -84.4061923
v -18.4751960 -13.2994859 -83.8710787
v -18.1054780 -13.5447421 -84.3559698
v -18.4840813 -13.4228583 -83.8343397
v -19.1384798 -13.2385702 -83.5116173
v -19.7272889 -13.2755107 -83.4798360
v -19.4063639 -13.3676487 -83.4308419
v -20.1499160 -13.3454951 -83.5999130
v -20.3175241 -13.5101755 -83.6431216
v -20.8373256 -13.6194996 -84.2337590
v -20.7417041 -13.6737736 -84.0231356
v -20.9912160 -13.8082703 -84.7045816
v -20.9747100 -14.0680519 -85.0058319
v -20.7300918 -14.1779143 -85.6278353
v -20.8423755 -14.2271183 -85.4005884
v -20.4804126 -14.4127548 -85.8539558
v -20.0577322 -14.5227706 -86.0753674
v -19.6928914 -14.4556305 -86.2039796
v -19.1177630 -14.4820510 -86.1572917
v -19.1194368 -14.6083623 -86.1137282
v -18.6006837 -14.4461289 -85.9049114
v -18.1628652 -14.3348701 -85.4059454
v -18.5812278 -14.5687445 -85.8576340
v -18.1169403 -14.4444299 -85.2683854
v -18.0726706 -14.0782440 -84.3198650
v -18.0105110 -14.2711492 -84.5822515
v -18.3184708 -13.9687186 -83.8488613
v -18.7696349 -13.8912527 -83.4620153
v -19.3369458 -13.8775225 -83.2781445
v -19.1819840 -14.0001105 -83.2701173
v -19.8961898 -13.9267204 -83.3117436
v -19.6994672 -14.0266484 -83.2330796
v -20.2694266 -14.0061819 -83.4588285
v -20.2243215 -14.1201014 -83.3910469
v -20.5973146 -14.2372582 -83.6654382
v -20.8590075 -14.3923889 -84.0288798
v -20.9855790 -14.5391015 -84.7566771
v -20.9722858 -14.5415153 -84.4022990
v -20.9687093 -14.7174076 -84.8499132
v -20.8043201 -14.8886779 -85.2676007
v -20.4746595 -15.0443248 -85.6521521
v -19.2860986 -15.1159678 -85.9976723
v -18.7493577 -15.0938700 -85.7982458
v -18.3709379 -15.0354764 -85.4919131
v -18.2123161 -15.1080720 -85.2329841
v -18.0720782 -15.0329679 -84.9107256
v -18.0173438 -14.7619491 -84.3338964
v -18.0132651 -14.8914066 -84.3240045
v -18.1747528 -14.6539474 -83.8831032
v -18.4259795 -14.5774253 -83.5248596
v -18.2204434 -14.7576367 -83.7486719
v -18.9779818 -14.5038414 -83.1627716
v -19.5766388 -14.5232706 -83.0681006
v -19.1895664 -14.6290879 -83.0588364
v -20.1083812 -14.5967257 -83.1763574
v -19.7685834 -14.6682749 -83.0491786
v -20.1566337 -14.7320438 -83.1600286
v -20.5895902 -14.7422456 -83.4884928
v -20.5425533 -14.8510614 -83.4117981
v -20.8822219 -14.9180312 -83.9185790
v -20.8458800 -15.0062722 -83.7936299
v -20.9976428 -15.1456436 -84.4919283
v -20.9881979 -15.2151704 -84.3149650
v -20.9328884 -15.4003120 -84.7839026
v -20.7251576 -15.5643524 -85.1855142
v -20.4551838 -15.6840510 -85.4634371
v -20.0679058 -15.7847490 -85.6726256
v -19.5841567 -15.8525017 -85.7754088
v -19.0886547 -15.7461082 -85.7485030
v -18.9810932 -15.8666490 -85.6730532
v -18.6834480 -15.7167586 -85.5545761
v -18.5331251 -15.8199561 -85.4072168
v -18.2076041 -15.7403495 -85.0291759
v -18.0139660 -15.4022077 -84.1597093
v -18.0077776 -15.5970768 -84.4221390
v -18.2346766 -15.2575553 -83.5659757
v -18.0954662 -15.4475931 -83.8064755
v -18.4496665 -15.3193610 -83.2527581
v -19.1230982 -15.1349559 -82.9229137
v -18.8824668 -15.2722846 -82.9720783
v -19.3501677 -15.2643997 -82.8391054
v -19.9829782 -15.2043959 -82.9344332
v -19.9215570 -15.3203812 -82.8722341
v -20.4002590 -15.3054779 -83.1356685
v -20.8309725 -15.4965622 -83.5926507
v -20.9658694 -15.9987558 -84.5000666
v -20.6194025 -16.1286794 -85.1613014
v -20.1307418 -16.2778827 -85.4934941
v -20.6005385 -16.2656933 -85.1487054
v -19.5703024 -16.3595104 -85.6128474
v -20.0462558 -16.4231834 -85.4853675
v -19.0491868 -16.3755199 -85.5338314
v -19.4489243 -16.4930005 -85.5737294
v -18.1547986 -16.2202296 -84.7613346
v -18.1674397 -16.3551379 -84.7661671
v -18.0124190 -16.0438567 -84.0157523
v -18.0079123 -16.2047166 -84.1413237
v -18.1988243 -15.9016842 -83.4130890
v -18.0997978 -16.0738822 -83.5951133
v -18.6779056 -15.7959171 -82.9160460
v -18.4772423 -15.9461667 -83.0257295
v -19.2176870 -15.7690789 -82.6993126
v -19.0044968 -15.8986002 -82.7184824
v -19.7719567 -15.8042834 -82.6839610
v -19.5076175 -15.9049496 -82.6299769
v -19.9346555 -15.9549299 -82.6822103
v -20.3513599 -15.9196915 -82.8941046
v -20.8466892 -16.1458527 -83.4205077
v -20.6676062 -16.1672524 -83.1422005
v -20.8818144 -16.3057078 -83.4780627
v -20.9065698 -16.5799600 -84.5254892
v -20.3003530 -16.9956568 -85.1637798
v -19.7798575 -16.9691184 -85.3910811
v -19.1602809 -17.0139942 -85.3742739
v -19.7151155 -17.1052868 -85.3703610
v -19.1010928 -17.1325453 -85.3079453
v -18.6131155 -16.9731176 -85.1082072
v -18.2369905 -16.8895338 -84.7194980
v -18.3057143 -17.0334075 -84.7646662
v -18.0821496 -16.9395327 -84.3548900
v -19.4799564 -16.5335524 -82.4175093
v -20.0562425 -16.4841895 -82.5616218
v -20.1469072 -16.6246594 -82.5522476
v -20.4214510 -16.5771327 -82.7536679
v -20.7280546 -16.7027430 -83.0476592
v -20.6395817 -16.7792212 -82.8986203
v -20.9531811 -16.8839610 -83.5209833
v -20.9399557 -16.9967059 -83.4203189
v -20.9763842 -17.0918203 -84.0193611
v -20.9857648 -17.1771030 -83.8766530
v -20.8686956 -17.3639195 -84.3576084
v -20.3880354 -17.4837256 -84.9655087
v -20.6004233 -17.5206267 -84.7297629
v -20.2694495 -17.6347475 -84.9834310
v -19.7281116 -17.6077959 -85.1979526
v -19.7264842 -17.7341090 -85.1631030
v -19.3223740 -17.6362552 -85.1924104
v -19.2178532 -17.7638867 -85.1348223
v -18.7928424 -17.7495650 -84.9851097
v -18.2172355 -17.5100520 -84.4805208
v -18.3991339 -17.6867576 -84.6818049
v -18.0206551 -17.3910968 -83.9602401
v -18.1054645 -17.5857159 -84.2191668
v -18.0392919 -17.2697342 -83.4618117
v -18.0069988 -17.4313893 -83.5904825
v -18.1749002 -17.1750888 -83.0720978
v -18.5048799 -17.0850006 -82.6534208
v -19.0039864 -17.0315007 -82.3546733
v -19.5306996 -17.0475275 -82.2680338
v -19.2867888 -17.1575761 -82.2443031
v -19.9850322 -17.1001729 -82.3345159
v -19.8669956 -17.2039463 -82.2624613
v -20.4315249 -17.2080856 -82.5561050
v -20.7922396 -17.3719109 -82.9467840
v -20.6929797 -17.4409106 -82.7638665
v -20.9754471 -17.5653202 -83.4248758
v -20.9413170 -17.8091189 -84.0286675
v -20.6184312 -18.0250232 -84.5533786
v -20.1661011 -18.1711654 -84.8797718
v -20.3298228 -18.2497637 -84.7617457
v -19.5819596 -18.2574915 -85.0077332
v -19.7797801 -18.3558362 -84.9475082
v -18.9447496 -18.2664280 -84.9068300
v -19.3538631 -18.3933101 -84.9597896
v -18.3888025 -18.1986408 -84.5106980
v -18.7278520 -18.3729071 -84.7602135
v -18.0239146 -18.0164394 -83.7398288
v -18.1756915 -18.2535951 -84.1893332
v -18.0572742 -17.8730756 -83.1492947
v -18.0122631 -18.1130533 -83.5858018
v -18.0791410 -17.9838670 -83.0494971
v -18.3538708 -17.7497129 -82.6032733
v -18.7999101 -17.6774100 -82.2465582
v -19.4452807 -17.6679186 -82.0587622
v -20.0936487 -17.7535827 -82.1709596
v -20.9851750 -18.2157191 -83.2716332
v -20.9861014 -18.4321485 -83.4612433
v -20.7897049 -18.5621465 -84.1347932
v -20.9013079 -18.5991660 -83.8791729
v -20.4344394 -18.7220861 -84.5192354
v -20.5957684 -18.7874754 -84.3422237
v -20.0940198 -18.8106609 -84.7017106
v -19.6168494 -18.8847440 -84.8113879
v -20.1257920 -18.9312514 -84.6548170
v -19.5869069 -19.0078931 -84.7695284
v -18.6132208 -18.8686028 -84.5144579
v -18.3697452 -18.9453156 -84.2452228
v -18.0274594 -18.6720188 -83.6341112
v -18.0862881 -18.8418045 -83.7824792
v -18.0550508 -18.5129782 -82.9789827
v -18.2253879 -18.4228726 -82.5891414
v -18.5891719 -18.3322666 -82.1738984
v -18.6836593 -18.4401976 -82.0700335
v -19.2017198 -18.2965815 -81.8961932
v -19.7927233 -18.3354718 -81.8886937
v -20.2609888 -18.4218515 -82.0489052
v -20.5842594 -18.5306182 -82.2912812
v -20.3720035 -18.5741970 -82.0711246
v -20.8521095 -18.7950933 -82.5911537
v -20.9914907 -19.0368930 -83.1912373
v -20.8856148 -19.1141504 -83.7464106
v -20.6788681 -19.3787358 -84.0515951
v -20.1494574 -19.4323565 -84.4839171
v -20.1853697 -19.5562418 -84.4321722
v -19.6882306 -19.5064636 -84.5989546
v -19.2480560 -19.5328204 -84.5833991
v -19.5420305 -19.6420536 -84.5734920
v -19.0616052 -19.6556054 -84.4935982
v -18.7163092 -19.5111130 -84.3818518
v -18.2792783 -19.4292936 -83.9805322
v -18.0574925 -19.3180210 -83.5021195
v -18.0136706 -19.2130331 -83.0655204
v -18.1134621 -19.0992243 -82.5979377
v -18.3738931 -19.0090913 -82.1857712
v -18.1943648 -19.1894240 -82.3996678
v -18.7331007 -18.9471623 -81.8860515
v -18.4894015 -19.1061423 -82.0243118
v -19.3090355 -18.9243932 -81.6756218
v -18.9445673 -19.0566660 -81.7415636
v -19.4840899 -19.0577107 -81.6264626
v -20.0051837 -19.1229398 -81.7012865
v -20.3340654 -19.0776209 -81.8940796
v -20.7055033 -19.2134314 -82.2181085
v -20.9176362 -19.3767205 -82.6128245
v -20.7696400 -19.3804389 -82.2703701
v -20.9367182 -19.5285311 -82.6389298
v -20.9915078 -19.6953754 -83.0609253
v -20.8672939 -19.8917895 -83.5510610
v -20.4367587 -19.9874284 -84.1154948
v -20.0488204 -20.0837053 -84.3176181
v -19.6278043 -20.1462018 -84.4057705
v -19.1566550 -20.1660428 -84.3612121
v -18.6581441 -20.1387134 -84.1468589
v -18.6623532 -20.2617403 -84.1024487
v -18.2487299 -20.0466350 -83.7266956
v -18.0672260 -19.9590232 -83.3401981
v -18.0099474 -20.0226705 -83.0674238
v -18.2336436 -19.6757395 -82.1608020
v -18.1029516 -19.8622055 -82.3757484
v -18.3762979 -19.7652153 -81.9459467
v -18.6090180 -19.5945844 -81.7679482
v -18.7248636 -19.7035821 -81.6489579
v -19.2146689 -19.5577878 -81.4863642
v -19.9334219 -19.6136080 -81.5144109
v -20.4824744 -19.7559644 -81.7915153
v -20.8365639 -19.9288473 -82.2177598
v -20.6235115 -19.9364607 -81.8911789
v -20.9992755 -20.1715161 -82.8213027
v -20.8761059 -20.0866156 -82.2585535
v -20.9832208 -20.2614716 -82.6926752
v -20.9496155 -20.4367098 -83.1363759
v -20.5167140 -20.5899881 -83.8480456
v -20.7317981 -20.6131097 -83.5764791
v -19.9983378 -20.7296394 -84.1482441
v -20.3525845 -20.7667358 -83.9391945
v -19.7178572 -20.8930589 -84.1655118
v -19.3020822 -20.7977078 -84.1942048
v -18.8001504 -20.7808850 -84.0250290
v -18.7049816 -20.8939394 -83.9308482
v -18.0970975 -20.6128413 -83.2356840
v -18.3020886 -20.8251193 -83.5718294
v -18.0119688 -20.5010944 -82.7657645
v -18.0188790 -20.6735485 -82.9315371
v -18.1095680 -20.3649095 -82.1840317
v -18.0517407 -20.5381869 -82.3561454
v -18.2339900 -20.4332570 -81.9337138
v -18.4949000 -20.2440849 -81.6577185
v -18.8961858 -20.1981634 -81.4046526
v -18.5718709 -20.3554388 -81.5537024
v -19.3273845 -20.1909548 -81.2793948
v -19.2001950 -20.3115021 -81.2512618
v -19.9935971 -20.2567377 -81.3212860
v -19.8160490 -20.3578074 -81.2536767
v -20.4939807 -20.3900195 -81.6108986
v -20.3565227 -20.4620164 -81.4574468
v -20.8499881 -20.6883180 -81.9854463
v -20.9891961 -20.8447348 -82.7277738
v -20.8479569 -21.0492852 -83.2343964
v -20.9959347 -20.9669973 -82.6906823
v -20.5064784 -21.2251717 -83.6623051
v -20.7496844 -21.2451152 -83.3722388
v -19.9995816 -21.3586160 -83.9387943
v -20.3511111 -21.3982937 -83.7301403
v -19.3750853 -21.4258911 -84.0079744
v -19.9096094 -21.4969515 -83.9254070
v -19.3294649 -21.5512158 -83.9580460
v -18.7664976 -21.4124379 -83.8091024
v -18.3845383 -21.3508775 -83.5001789
v -18.0874998 -21.2437057 -83.0230147
v -18.3659982 -21.4711085 -83.4542918
v -18.0118582 -21.1045888 -82.4577558
v -18.1423598 -20.9806352 -81.9308779
v -18.0991486 -21.1285577 -81.9939813
v -18.3951397 -20.8972706 -81.5647746
v -18.4659274 -20.9995991 -81.4367157
v -19.5105410 -20.8299028 -81.0645439
v -19.9725554 -20.8881612 -81.1314770
v -19.6084912 -20.9600354 -81.0223824
v -20.4048992 -20.9889584 -81.3347383
v -20.2601310 -21.0697926 -81.2030391
v -20.8837240 -21.3587907 -81.8749601
v -20.9895585 -21.4051119 -82.3445810
v -20.8921749 -21.6504264 -82.9583075
v -20.9960566 -21.6096461 -82.5089395
v -20.4171008 -21.8938083 -83.5390007
v -20.7414256 -21.8769406 -83.1684581
v -20.0586312 -22.1028653 -83.6768321
v -19.3262582 -22.0563343 -83.7923205
v -19.5435891 -22.1713165 -83.7718483
v -18.8338557 -22.0495554 -83.6483055
v -19.0949814 -22.1935992 -83.6983231
v -18.4035466 -21.9869669 -83.3205873
v -18.5720152 -22.1449205 -83.4478518
v -18.1350174 -21.8977803 -82.9244182
v -18.0184931 -21.7893727 -82.4727368
v -18.0917955 -21.7604976 -81.7942506
v -18.3323355 -21.6653940 -81.3948839
v -18.7296980 -21.6025779 -81.0467328
v -19.0775542 -21.4549393 -80.9323624
v -18.9560750 -21.5846637 -80.9359606
v -19.6904470 -21.4725120 -80.8676697
v -19.3670152 -21.5773819 -80.8240161
v -20.3385523 -21.6003720 -81.0870648
v -19.9235866 -21.6340168 -80.8778447
v -20.3868131 -21.7466351 -81.0830471
v -20.4596763 -21.7677059 -81.1456052
v -20.7514439 -21.7671290 -81.4816712
v -20.7783678 -21.9041279 -81.4650655
v -20.9719234 -21.9735974 -81.9887990
v -20.9723545 -22.1126201 -81.9844556
v -20.9763125 -22.1409722 -82.0559267
v -20.9242628 -22.2476284 -82.6825023
v -20.9865639 -22.1877813 -82.1582296
v -20.9467144 -22.3248495 -82.5167909
v -20.9253986 -22.3502420 -82.5816438
v -20.7898197 -22.3500663 -82.9291007
v -20.9040357 -22.3783653 -82.6516097
v -20.7169363 -22.5184895 -82.9958691
v -20.6668745 -22.5411492 -83.0499436
v -20.6210546 -22.5635136 -83.1023220
v -20.0913359 -22.6030047 -83.5063682
v -20.2779433 -22.6890162 -83.3792111
v -20.0868065 -22.7310182 -83.4696062
v -19.5590182 -22.6774653 -83.6099821
v -19.7019816 -22.7855611 -83.5528761
v -19.6312129 -22.7928428 -83.5588001
v -19.0561487 -22.6826890 -83.5402542
v -19.1897496 -22.8234916 -83.5344193
v -18.9341059 -22.8086133 -83.4532133
v -18.5012938 -22.6394078 -83.2250577
v -18.6234797 -22.7801790 -83.2683722
v -18.5669636 -22.7719475 -83.2253852
v -18.4104508 -22.7480275 -83.0868443
v -18.1721400 -22.5398526 -82.7900842
v -18.2191535 -22.6879037 -82.8275563
v -18.1301128 -22.6422448 -82.6802981
v -18.0130184 -22.3669486 -82.0581097
v -18.0133344 -22.5319169 -82.1736842
v -18.0701671 -22.2869833 -81.7134771
v -18.0667341 -22.4140836 -81.6780571
v -18.3336105 -22.1754642 -81.2218230
v -18.3440987 -22.2965247 -81.1805832
v -18.8236155 -22.0951696 -80.8223140
v -18.8132628 -22.2181371 -80.7893331
v -19.3082524 -22.0900710 -80.6818649
v -19.8541974 -22.1335572 -80.6944691
v -19.5923068 -22.2233589 -80.6166813
v -20.3322238 -22.2291961 -80.8906103
v -20.4232621 -22.2622284 -80.9575561
v -20.5077156 -22.2883459 -81.0198149
v -20.3209892 -22.3460666 -80.8349344
v -20.8431370 -22.4566059 -81.4139264
v -20.7407755 -22.5175776 -81.2282862
v -20.9711045 -22.6299422 -81.8502696
v -20.9786193 -22.6567067 -81.9183076
v -20.9835412 -22.7463792 -82.1472194
v -20.9401455 -22.8362164 -82.3702025
v -20.9007272 -22.8875279 -82.4958282
v -20.9737625 -22.9097941 -82.2109345
v -20.7389487 -23.0092208 -82.8058696
v -20.8417139 -23.0666237 -82.5949329
v -20.6246110 -23.0676479 -82.9367800
v -20.3186963 -23.1760437 -83.1986316
v -20.6010141 -23.2065417 -82.9316348
v -20.0567213 -23.2385011 -83.3195617
v -20.1402107 -23.3498309 -83.2497039
v -19.7000867 -23.2924308 -83.3923205
v -19.6315424 -23.2993960 -83.3982445
v -19.1932832 -23.3208159 -83.3772459
v -19.6297982 -23.4259666 -83.3621341
v -18.9041377 -23.3163939 -83.2759531
v -19.1583305 -23.4484825 -83.3257985
v -18.6264456 -23.2876819 -83.1097912
v -18.5677051 -23.2788172 -83.0652853
v -18.5154730 -23.2699525 -83.0216907
v -18.6265428 -23.4140302 -83.0814189
v -18.2102567 -23.1954818 -82.6610488
v -18.1483825 -23.1731328 -82.5362432
v -18.0493157 -23.0948218 -82.2540836
v -18.0888137 -23.2572044 -82.3666610
v -18.0128678 -22.9973456 -81.8435549
v -18.1380791 -22.8772039 -81.3405858
v -18.1086283 -23.0192401 -81.3762093
v -18.4742083 -22.7713458 -80.8770533
v -18.3123484 -22.9372076 -81.0201606
v -19.0198372 -22.7163107 -80.5407974
v -18.7563364 -22.8553164 -80.6242726
v -19.2471856 -22.8403271 -80.4555443
v -19.7748552 -22.7480612 -80.4776367
v -20.3245390 -22.8615180 -80.6835067
v -20.7298763 -23.0175474 -81.0448827
v -20.9950272 -23.2771504 -81.6858484
v -20.9398587 -23.3047136 -81.4158639
v -20.9126453 -23.5092437 -82.2744926
v -20.9724891 -23.5565774 -82.0391590
v -20.7083969 -23.7867878 -82.6210985
v -20.0577756 -23.8748342 -83.1232436
v -20.2031249 -23.9667338 -83.0200059
v -19.4501977 -23.9478612 -83.2072815
v -19.7058268 -24.0474090 -83.1574227
v -18.8322346 -23.9470025 -83.0476976
v -19.0988393 -24.0828203 -83.1146197
v -18.3765321 -23.8718109 -82.6914354
v -18.1654331 -23.8024610 -82.3772297
v -18.4513706 -24.0223923 -82.7455868
v -18.0243675 -23.7053320 -81.9539691
v -18.2603608 -23.4569338 -80.9195259
v -18.4454874 -23.5384463 -80.6729862
v -19.1751315 -23.3475184 -80.3024754
v -18.7816037 -23.4876412 -80.4148897
v -19.8751032 -23.3941779 -80.2921766
v -19.4197628 -23.4742352 -80.2203574
v -20.4592520 -23.5342313 -80.5754549
v -20.0893175 -23.5590363 -80.3258608
v -20.4159630 -23.6444788 -80.5096100
v -20.8062240 -23.6961762 -80.9625520
v -20.7460349 -23.7836273 -80.8307948
v -20.9911095 -24.0265185 -81.4321335
v -20.9190136 -24.2613059 -82.0220056
v -20.8520717 -24.2055031 -82.2313501
v -20.5514660 -24.3632588 -82.6138893
v -20.2003266 -24.4709989 -82.8567611
v -19.8536021 -24.6623672 -82.9456967
v -18.4984504 -24.5390226 -82.6321560
v -19.0913537 -24.7151887 -82.9107086
v -18.5920436 -24.6685761 -82.6512679
v -18.0799439 -24.3950339 -81.9981184
v -18.2421675 -24.5900702 -82.2819698
v -18.0576102 -24.4915220 -81.8527371
v -18.0130347 -24.2688810 -81.4790513
v -18.0113617 -24.3919006 -81.4321495
v -18.1505011 -24.1296991 -80.8929263
v -18.1057030 -24.2867641 -80.9796111
v -18.5770297 -24.0182919 -80.3911691
v -18.3824402 -24.1818991 -80.5323907
v -19.0781989 -23.9780855 -80.1253634
v -18.8206978 -24.1150923 -80.1932598
v -19.6297843 -23.9997770 -80.0691949
v -19.3900320 -24.1059807 -80.0296930
v -20.1635672 -24.0825600 -80.1928673
v -20.0217366 -24.1748259 -80.0963065
v -20.6661670 -24.2474262 -80.5686247
v -20.5031582 -24.3079599 -80.3732930
v -20.8820206 -24.3938432 -80.9229804
v -20.8274089 -24.4669297 -80.7603025
v -20.9924718 -24.6848079 -81.3098372
v -20.7752262 -24.8853565 -82.1480363
v -20.4033364 -25.0550811 -82.5475366
v -20.6162631 -25.0940734 -82.3239335
v -19.7838756 -25.1839846 -82.7877021
v -20.0864658 -25.2558111 -82.6706502
v -19.2483298 -25.2152979 -82.7799039
v -19.5659900 -25.3244613 -82.7662835
v -18.7345988 -25.2014497 -82.5958938
v -18.7662109 -25.3255621 -82.5700574
v -18.2885083 -25.1131321 -82.1836745
v -18.3282825 -25.2491092 -82.1994986
v -18.0429019 -24.9941232 -81.6692683
v -18.0735513 -25.1369362 -81.7224599
v -18.0247375 -24.8622530 -81.1255696
v -18.0143764 -24.9932054 -81.1157962
v -18.1568823 -24.7651031 -80.7120499
v -18.4281039 -24.6774147 -80.3197424
v -18.2322631 -24.8539142 -80.5271390
v -19.2147624 -24.6116369 -79.8959827
v -19.4051245 -24.7417715 -79.8328311
v -19.7195794 -24.6406473 -79.8749249
v -19.7892028 -24.7764171 -79.8468222
v -20.2740791 -24.7411638 -80.0475783
v -20.6512699 -24.8758578 -80.3592671
v -20.8973082 -25.0345012 -80.7445525
v -20.7178719 -25.0304186 -80.3923225
v -20.9891846 -25.2241879 -81.2219587
v -20.9826824 -25.2631894 -80.9748757
v -20.9088231 -25.4112357 -81.6975680
v -20.9221964 -25.5224542 -81.6207679
v -20.6897826 -25.6891904 -82.0268478
v -20.3562010 -25.8201246 -82.3316726
v -19.8388871 -25.9254855 -82.5404045
v -19.1471866 -25.9750227 -82.5304913
v -18.4265251 -25.7861071 -82.1553589
v -18.4978965 -25.9204387 -82.1825452
v -18.1460589 -25.6890253 -81.7365383
v -18.0107288 -25.5758854 -81.2549019
v -18.0155288 -25.6967092 -81.2045157
v -18.1020916 -25.4206772 -80.6079498
v -18.0518859 -25.5858561 -80.7402444
v -18.4164616 -25.3120087 -80.1375306
v -18.3032005 -25.4648169 -80.2240227
v -18.8016024 -25.2566565 -79.8447892
v -18.7350185 -25.3876563 -79.8399993
v -19.3257834 -25.2441947 -79.6748986
v -19.2035204 -25.3641483 -79.6619179
v -19.8489972 -25.2881604 -79.6981066
v -20.3187472 -25.3827824 -79.8767511
v -19.8082923 -25.4037692 -79.6419615
v -20.6595421 -25.5129831 -80.1686863
v -20.6120835 -25.6130884 -80.0682754
v -20.8796792 -25.6523814 -80.5079437
v -20.9918836 -25.8573810 -81.0312017
v -20.9236351 -26.0264726 -81.4485258
v -20.7009347 -26.1902886 -81.8549063
v -20.8596932 -26.2151824 -81.5709313
v -20.3354385 -26.3309241 -82.1848847
v -20.5862333 -26.3692536 -81.9429098
v -20.2319235 -26.4859958 -82.1978972
v -19.6957583 -26.5769950 -82.3668063
v -19.0954727 -26.6064864 -82.3026341
v -18.2377856 -26.4850451 -81.6754390
v -18.0767595 -26.2802868 -81.3560308
v -18.0085597 -26.1698227 -80.9175276
v -18.0165338 -26.3462139 -81.0901121
v -18.0944571 -26.0613615 -80.4497753
v -18.0583055 -26.2142506 -80.5253155
v -18.2949449 -26.0970439 -80.0357737
v -18.7353555 -26.0171869 -79.6387212
v -19.4365065 -25.8798265 -79.4615295
v -19.3369498 -25.9972508 -79.4325151
v -19.9540094 -25.9368792 -79.5250829
v -20.3785773 -26.0322151 -79.7142650
v -20.0314168 -26.0731678 -79.4947556
v -20.9434925 -26.3436643 -80.4606716
v -20.8324453 -26.7518496 -81.4780168
v -20.9750374 -26.7127961 -81.0399392
v -20.3054679 -26.9747309 -82.0108021
v -20.6719550 -26.9678314 -81.6632269
v -20.1654024 -27.1334078 -82.0338259
v -19.6858069 -27.0841416 -82.1995284
v -19.6292660 -27.2161440 -82.1661007
v -19.0757192 -27.2371540 -82.0990064
v -18.6401346 -27.2035882 -81.8850613
v -18.3639517 -27.0283815 -81.6725209
v -18.1046931 -26.9358758 -81.2582572
v -18.2793786 -27.1318505 -81.5347974
v -18.0088335 -26.7839531 -80.6304552
v -18.0194490 -26.8826906 -80.4915492
v -18.1847819 -26.6465046 -80.0393143
v -18.6572775 -26.5250072 -79.5228666
v -19.3048818 -26.5051102 -79.2782056
v -19.5724687 -26.6454946 -79.2242212
v -20.2078341 -26.6208338 -79.4154671
v -20.0089992 -26.7041354 -79.3016297
v -20.6406030 -26.7617819 -79.7388007
v -20.9212806 -26.9550235 -80.2113121
v -20.7988549 -26.9738037 -79.9100480
v -20.9905074 -27.1567808 -80.7160703
v -20.9748897 -27.1633124 -80.3897647
v -20.8162631 -27.3937052 -81.2998260
v -20.9566951 -27.3716477 -80.9007056
v -20.6761835 -27.5978491 -81.4586157
v -20.3397257 -27.5980212 -81.7861827
v -20.2418645 -27.7436048 -81.7926762
v -19.5902048 -27.7314556 -82.0174855
v -19.3270964 -27.8661843 -81.9507775
v -18.9265476 -27.7381506 -81.8837384
v -18.9219101 -27.8605859 -81.8406047
v -18.5256410 -27.6944450 -81.6351293
v -18.1913089 -27.7285512 -81.1960503
v -18.0151875 -27.4760797 -80.6786656
v -18.0166773 -27.6092136 -80.6767251
v -18.0877205 -27.4471188 -80.0068637
v -18.5188046 -27.1826885 -79.4343624
v -18.4428444 -27.3289095 -79.4632082
v -18.9710416 -27.1405747 -79.1644627
v -19.0036719 -27.2627556 -79.1074493
v -19.4565599 -27.1449522 -79.0682445
v -19.9192502 -27.1918353 -79.1097738
v -19.7183575 -27.2871640 -79.0308245
v -20.2032435 -27.3749078 -79.1781669
v -20.6310749 -27.5115992 -79.4891649
v -20.9848259 -27.6968099 -80.2865449
v -20.7978399 -28.0283757 -81.1185079
v -20.8212889 -28.1356081 -81.0387711
v -20.3841672 -28.2191448 -81.5608072
v -19.7364295 -28.3429662 -81.7939877
v -19.9724506 -28.4353279 -81.7116642
v -19.2691393 -28.3729778 -81.7819897
v -18.2683397 -28.3886410 -81.1149590
v -18.0620801 -28.1636446 -80.7240971
v -18.1070293 -28.3173149 -80.8011553
v -18.0167481 -28.0309847 -80.1594713
v -18.2150958 -27.8947475 -79.5878290
v -18.1774483 -28.0326625 -79.6199974
v -18.5622338 -27.9329036 -79.1536750
v -19.6288760 -27.7883504 -78.8583020
v -19.2079418 -27.8878621 -78.8538420
v -20.1683827 -27.8759099 -79.0005613
v -20.6194493 -28.0175113 -79.3109758
v -20.4306632 -28.0642766 -79.1006427
v -20.8534760 -28.1604675 -79.6623850
v -20.9464978 -28.6551635 -80.5489297
v -20.5450929 -28.7912526 -81.2285694
v -20.6430695 -28.8759182 -81.0914209
v -19.5581058 -28.9948873 -81.6095800
v -18.8748150 -29.1228517 -81.4236802
v -18.0330932 -28.7747503 -80.4162666
v -18.0487547 -28.8451196 -80.4361972
v -21.3129926 -12.5791657 -87.3703392
v -20.6279574 -12.7102580 -87.7832915
v -19.9901981 -12.7726980 -87.9810206
v -21.9568456 -12.3182337 -86.5476955
v -19.4999736 -12.7833528 -88.0144083
v -18.9061477 -12.7687162 -87.9685474
v -22.2150439 -12.0025044 -85.5516410
v -22.0840880 -11.7207973 -84.6632685
v -17.9229181 -12.6361662 -87.5502965
v -21.6554139 -11.4671150 -83.8629674
v -17.1873557 -12.3986987 -86.8011168
v -20.8440654 -11.2535272 -83.1891950
v -16.8147370 -12.0936334 -85.8390079
v -19.8215477 -11.1518260 -82.8683849
v -16.8629992 -11.7687983 -84.8147136
v -18.7489147 -11.1778878 -82.9511357
v -17.3627525 -11.4577005 -83.8333970
v -18.0218263 -11.2829107 -83.2821399
v -19.7262756 -10.5867184 -88.6980817
v -21.3402721 -10.3431306 -88.0152042
v -21.5873812 -10.2350003 -87.7635200
v -21.7634331 -10.2251094 -87.5314016
v -21.9569902 -10.1334793 -87.1914694
v -22.0751187 -9.9738277 -86.8846646
v -22.1488234 -9.8837368 -86.5956426
v -22.1864632 -9.7910823 -86.2810957
v -22.1904595 -9.7261267 -85.9692210
v -20.7646101 -9.0378830 -83.8762519
v -20.3844580 -8.9948578 -83.7106213
v -19.9157769 -8.9302390 -83.6162940
v -18.9776987 -8.9657605 -83.6160898
v -17.8290991 -9.1597517 -84.1048208
v -17.4084634 -9.2533617 -84.5101876
v -17.0851708 -9.4268417 -84.9789285
v -16.7997172 -9.7721515 -86.0915702
v -16.8535885 -9.9331429 -86.6382269
v -16.9981318 -10.1210065 -87.0967640
v -17.5019362 -10.3646686 -87.8568410
v -19.4771529 -10.6862228 -88.6792635
v -19.4657838 -10.6532968 -88.6883773
v -19.3896513 -10.4219975 -88.6949225
v -19.5663638 -10.1693185 -88.5518036
v -20.2694308 -10.5386938 -88.6037459
v -19.8548089 -10.4052427 -88.6715408
v -19.8396330 -10.2691948 -88.6207968
v -20.4982236 -10.2421878 -88.4655102
v -20.7119218 -10.3242096 -88.4120439
v -20.6654424 -10.5415168 -88.4464167
v -20.0063389 -10.0901388 -88.4270792
v -21.0421565 -10.4493908 -88.2448599
v -20.5608571 -10.0288738 -88.2295364
v -21.0996579 -10.2066824 -88.1630509
v -20.9669776 -9.9282683 -87.9331151
v -21.4139775 -10.0655788 -87.8487696
v -21.1087607 -10.0346895 -88.0288567
v -21.4122749 -9.7888312 -87.4908980
v -21.7158000 -10.0193546 -87.5215617
v -21.8975379 -9.9314588 -87.2143616
v -21.6139390 -9.8647707 -87.4743069
v -21.7050769 -9.6927478 -87.1052816
v -21.9715810 -9.6965963 -86.7983261
v -21.8041009 -9.4447758 -86.4022622
v -21.9391701 -9.4472073 -86.2523652
v -22.1314795 -9.5811988 -85.6035592
v -22.1094025 -9.5469322 -86.0890976
v -22.0425098 -9.4807640 -85.2976283
v -21.9548598 -9.3060125 -85.4858604
v -22.0019580 -9.3854798 -85.8441243
v -21.7429176 -9.2071135 -85.6345501
v -21.8833092 -9.3986806 -84.9265138
v -21.8043542 -9.2197013 -85.0070757
v -21.6246989 -9.0806019 -85.0526611
v -21.4742145 -9.0276057 -84.7104969
v -21.5583899 -9.2370108 -84.4747544
v -21.3565766 -9.0333754 -84.4367190
v -21.3013749 -8.9545397 -84.8224366
v -21.2065953 -9.0578310 -84.2183238
v -20.8600173 -8.9299157 -84.0493675
v -21.0971201 -9.1631515 -84.0426585
v -21.0412897 -8.8910225 -84.3333799
v -20.9450182 -8.8567716 -84.5542092
v -20.6395638 -8.7906472 -84.2143896
v -20.3010354 -8.8713780 -83.7810199
v -20.4756484 -8.7945790 -84.0046346
v -20.0544676 -8.7202184 -84.0996331
v -19.9918680 -8.7420198 -83.8811000
v -19.4774804 -8.8476693 -83.6505101
v -19.4763181 -8.9688585 -83.5597600
v -19.5324556 -8.7650885 -83.7569755
v -19.5099442 -8.7030440 -84.0641711
v -19.0327801 -8.8031232 -83.7625927
v -18.7440344 -8.8860685 -83.7484851
v -18.3599281 -9.0628478 -83.7899315
v -19.1297126 -8.7173210 -83.9263358
v -18.0372258 -8.9587085 -84.0897081
v -18.3458428 -8.9100980 -83.9237850
v -18.4509921 -8.7979163 -84.0470897
v -18.7696590 -8.7406866 -84.1875947
v -18.0968078 -8.8380477 -84.3678149
v -17.7282928 -8.9537092 -84.5253740
v -17.6294177 -9.0676458 -84.4036311
v -17.6626628 -8.9664379 -84.8881914
v -17.3374140 -9.1277642 -84.8443008
v -17.0746040 -9.3360646 -85.1421817
v -17.2107494 -9.1766682 -85.2429995
v -17.4464399 -9.0763371 -85.2332607
v -16.9811246 -9.3761575 -85.5273851
v -16.8726136 -9.5844757 -85.5417695
v -16.9522230 -9.4596122 -85.9777538
v -17.1068003 -9.3204871 -85.8810656
v -16.8409761 -9.6533680 -86.1624501
v -17.2137122 -9.3772018 -86.1959045
v -16.9292204 -9.7873950 -86.7206271
v -17.0806669 -9.5377397 -86.5290951
v -17.0018902 -9.6215086 -86.6087865
v -17.0640494 -10.0101244 -87.2017963
v -17.1409646 -9.8670082 -87.2018464
v -17.2913548 -9.6846312 -87.0940384
v -17.2435057 -10.2232759 -87.5446554
v -17.4385169 -9.8677354 -87.5227654
v -17.3738060 -10.1178085 -87.6867025
v -17.6796993 -9.8010144 -87.5421956
v -17.8239446 -10.3717797 -88.1522230
v -17.9433816 -9.9333678 -87.9181946
v -17.7504500 -10.1718828 -88.0396186
v -17.7450422 -10.0209941 -87.9286118
v -18.1155036 -10.5142981 -88.3354629
v -18.2094978 -10.1324523 -88.2773301
v -18.3012884 -10.3717677 -88.4324324
v -18.6186164 -10.5545835 -88.5648583
v -18.9098446 -10.1288921 -88.4651601
v -18.7652011 -10.3099923 -88.5741799
v -19.1294531 -10.5818539 -88.6842216
v -18.6326644 -10.0420147 -88.2876756
v -19.1663249 -10.2549598 -88.6038381
v -20.2420151 -9.7820254 -87.4817039
v -20.9840567 -9.3935625 -86.2566509
v -18.7580144 -9.7820254 -87.4817039
v -20.2420151 -9.0050995 -85.0315979
v -18.0159728 -9.3935625 -86.2566509
v -18.7580144 -9.0050995 -85.0315979
v -20.2420151 -11.4238908 -86.9611513
v -20.9840567 -11.0354278 -85.7360983
v -18.7580144 -11.4238908 -86.9611513
v -18.0159728 -11.0354278 -85.7360983
v -18.7580144 -10.6469649 -84.5110453
v -20.2420151 -10.6469649 -84.5110453
v -18.0074844 -28.6938789 -80.0174625
v -18.1557802 -28.5564678 -79.5210619
v -20.6746147 -12.9799262 -85.1251660
v -20.1581856 -13.3715656 -86.0198231
v -18.4332854 -13.1889060 -84.5401819
v -19.0580744 -13.0854785 -83.9462666
v -19.4965315 -13.0949700 -83.8526270
v -20.2939890 -13.2594630 -84.1084811
v -19.9719770 -14.0567176 -85.9249780
v -19.3296987 -14.1327053 -85.9726334
v -18.3173259 -13.9346090 -84.8568682
v -18.4423832 -13.8155276 -84.3193275
v -19.1392279 -13.7144020 -83.7158105
v -20.5562422 -14.0323464 -84.2335349
v -20.6738604 -14.2870588 -84.8250741
v -20.4334989 -14.5251106 -85.3875563
v -19.9409316 -14.6916242 -85.7260934
v -19.4473237 -14.7599049 -85.7853755
v -18.5993991 -14.7128322 -85.3581261
v -18.3826617 -14.6340184 -84.9796184
v -18.3300204 -14.5349993 -84.5163480
v -19.4840551 -14.3585451 -83.4407663
v -20.0458604 -14.4501648 -83.5635888
v -20.3993435 -14.5758470 -83.8209669
v -20.6196935 -14.7347776 -84.1925182
v -18.3898470 -15.2807644 -84.8387269
v -18.3352004 -15.1550601 -84.2768593
v -18.4565562 -15.0754618 -83.8922006
v -18.7803877 -14.9985207 -83.5010483
v -20.5707283 -13.1681919 -85.5739537
v -19.7032686 -13.4685494 -86.1766517
v -18.9418828 -13.3379997 -86.4565018
v -18.8281301 -13.4880718 -85.9670281
v -18.4961183 -13.4248111 -85.6197361
v -18.0848347 -12.9329436 -84.6563754
v -18.3176848 -13.3080923 -85.0857621
v -18.3002186 -12.8305097 -84.2303615
v -18.7636079 -12.7517349 -83.8294917
v -18.6830264 -13.1204309 -84.1886351
v -19.8678687 -13.1489805 -83.9026908
v -20.9805561 -13.2999719 -84.8655844
v -20.6184874 -13.4651261 -84.5759233
v -20.9595349 -13.4713896 -85.2852462
v -20.6710308 -13.6519805 -85.0248500
v -20.4801446 -13.8657053 -85.5237854
v -19.0813170 -13.9733766 -86.3037354
v -18.6123177 -13.9395856 -86.0776020
v -18.8169072 -14.1200813 -85.7681415
v -18.4607724 -14.0407634 -85.3534058
v -18.8862383 -13.3751318 -83.5712649
v -18.7606142 -13.7387518 -83.9221180
v -19.9593463 -13.4326038 -83.4914412
v -19.6223072 -13.7392709 -83.6472450
v -20.1969180 -13.8600193 -83.8474658
v -20.9720510 -13.9001714 -84.5749030
v -19.6198275 -14.5844015 -86.1726562
v -18.9821524 -14.7631851 -85.6604385
v -18.1250349 -14.1713556 -84.1514267
v -18.3601599 -14.0789667 -83.7560805
v -18.4715954 -14.4347269 -84.0523358
v -18.7949120 -14.0174577 -83.4148216
v -18.9070899 -14.3541373 -83.6180188
v -20.6619123 -14.9559949 -84.7197257
v -20.4408116 -15.1473978 -85.1652655
v -19.9114435 -15.1828908 -85.9318495
v -20.1020076 -15.2813860 -85.4500538
v -19.6045770 -15.3743852 -85.5881000
v -19.1467591 -15.2431968 -85.9323476
v -19.1302023 -15.4005148 -85.5216054
v -18.5400665 -15.1918556 -85.6174294
v -18.7601050 -15.3742459 -85.3168507
v -18.6103786 -14.6657513 -83.3271242
v -19.2462884 -14.9771035 -83.2806211
v -19.8009409 -15.0273668 -83.2718036
v -20.2988459 -15.1605481 -83.5237829
v -19.6511518 -16.0044525 -85.3870275
v -18.5257908 -15.9574512 -84.8643700
v -18.9230970 -15.6127807 -83.1939970
v -19.9238701 -15.6812420 -83.1125722
v -20.3202183 -16.4703724 -84.9016539
v -19.6440475 -16.6386924 -85.1995906
v -19.0319326 -16.6605740 -85.0845745
v -18.9625151 -16.2417327 -82.9765562
v -19.4970446 -16.2529533 -82.8513809
v -20.0037187 -16.3287188 -82.9387471
v -20.6612137 -16.8333974 -84.0776142
v -20.4421358 -17.0497267 -84.5753189
v -19.4484072 -17.2819699 -84.9843267
v -18.4040630 -17.1773993 -84.2686739
v -18.5887426 -16.9238249 -83.0767853
v -20.5605030 -17.1972116 -83.2387876
v -20.3949900 -17.7016684 -84.4357890
v -18.9782135 -17.5065603 -82.5753111
v -19.4493149 -17.5131063 -82.4525887
v -20.5861292 -15.3258374 -83.8950636
v -20.6704178 -15.5568937 -84.4468321
v -20.4872249 -15.7533810 -84.9048403
v -20.1533790 -15.8965085 -85.2167338
v -18.9795984 -16.0313250 -85.2705145
v -18.3529511 -15.8728840 -84.4664506
v -18.3444093 -15.7748918 -84.0136273
v -18.5084681 -15.6872457 -83.6023796
v -19.4538392 -15.6186675 -83.0558229
v -20.4104579 -15.4320228 -83.1063092
v -20.7419345 -15.5743780 -83.4314183
v -20.4104339 -15.8356914 -83.4187860
v -20.9554091 -15.7588390 -83.8886812
v -20.6331385 -16.0201722 -83.8452612
v -19.0114299 -16.4973017 -85.4768176
v -18.5870297 -16.4594232 -85.2563490
v -18.5899222 -16.6103358 -84.7626862
v -18.3152531 -16.4656503 -84.0846151
v -18.4908805 -16.3214604 -83.4166089
v -20.3703244 -16.0520437 -82.8756048
v -20.4401315 -16.4899927 -83.2692527
v -20.9825413 -16.4671613 -83.8881853
v -20.6373781 -16.6538798 -83.6494594
v -20.9549983 -16.6367221 -84.3045625
v -20.7126027 -16.8390011 -84.8187986
v -19.9440813 -17.2149615 -84.9189659
v -18.6319784 -17.1003795 -85.0874919
v -18.9260850 -17.2877239 -84.8397922
v -18.0128758 -16.8316876 -83.9162977
v -18.0667263 -16.7357997 -83.5051533
v -18.3444023 -17.0347453 -83.6023885
v -18.3104575 -16.6160404 -83.0108545
v -18.8095963 -16.5395717 -82.6018579
v -19.4571379 -16.8844457 -82.6591885
v -19.8079736 -16.9251960 -82.6795997
v -20.2235104 -17.0290097 -82.8667301
v -20.6754525 -17.4414003 -83.8230281
v -19.7702341 -17.8831687 -84.7763560
v -19.1590706 -17.9256412 -84.7302973
v -18.7777702 -17.9020600 -84.5293608
v -18.3991565 -17.8049589 -84.0525155
v -18.1336892 -17.3244912 -83.1291391
v -18.3336985 -17.6837977 -83.4809765
v -18.3467043 -17.2439523 -82.7764256
v -18.5426202 -17.5674232 -82.9383407
v -18.7647894 -17.1747154 -82.4261083
v -20.9888208 -15.7303175 -84.1676884
v -20.9242840 -15.9251245 -84.6537746
v -18.4929378 -16.3293301 -85.2234604
v -18.0304097 -16.1289182 -84.3619112
v -20.9862484 -16.3585533 -83.9567585
v -20.6533600 -16.2387159 -84.3601648
v -20.5524516 -16.7869863 -85.0202892
v -20.1974201 -16.8950767 -85.2562984
v -18.0051193 -16.7397150 -84.0684767
v -18.1100549 -16.5790622 -83.4067719
v -18.4276044 -16.4710417 -82.9229407
v -18.9049805 -16.4090343 -82.5958416
v -19.5809180 -16.4183270 -82.4563612
v -20.8412958 -17.2624725 -84.4478095
v -18.8839967 -17.6334053 -85.0704734
v -18.5057972 -17.5877523 -84.8180289
v -19.0860369 -16.8739467 -82.7319820
v -18.1344936 -18.1051435 -84.1125276
v -20.8690349 -13.4587957 -85.6069727
v -19.2369010 -13.5052745 -86.1529924
v -18.0085128 -13.5518726 -84.9500392
v -20.5672163 -13.4704921 -83.8662762
v -20.9234598 -14.0231458 -85.2426184
v -20.2823784 -14.3521862 -86.0248301
v -18.0111609 -14.1977841 -84.8013810
v -20.5907788 -14.1145937 -83.6939945
v -20.9164258 -14.3157200 -84.1854065
v -20.8538360 -14.7286263 -85.2245404
v -20.5335274 -14.9034845 -85.6384301
v -19.9926773 -15.0476993 -85.9476879
v -18.0744574 -14.9174458 -84.9777565
v -20.8225822 -15.3836548 -85.0844461
v -20.4550660 -15.5621457 -85.5048872
v -19.9470568 -15.6839496 -85.7566883
v -19.4827787 -15.7359438 -85.8047698
v -18.3520970 -15.6626175 -85.2704281
v -18.0776732 -15.5491048 -84.7805215
v -18.6194844 -15.1704547 -83.1601739
v -19.5401569 -15.1545663 -82.8704359
v -19.0214091 -18.1350772 -82.3517890
v -20.6370916 -18.7986210 -83.6451376
v -18.4736941 -19.1058710 -83.8066468
v -20.2507835 -18.9349386 -82.2895375
v -20.5576487 -19.0884414 -82.6337882
v -20.6196170 -19.4425365 -83.4748225
v -20.2278556 -19.6660391 -83.9805023
v -18.7861124 -19.7992439 -83.9340153
v -18.4008771 -19.7050173 -83.4558518
v -20.5982231 -20.0937850 -83.3222082
v -18.7405364 -20.4226796 -83.7042039
v -18.3825301 -20.3230702 -83.1968449
v -18.5668956 -20.0892570 -82.1147367
v -19.8976058 -17.5715835 -82.4998293
v -20.4779096 -17.7631206 -82.8895069
v -20.4831557 -17.8583390 -82.3994983
v -20.7852937 -18.0041927 -82.7337832
v -20.6832651 -18.0320720 -83.5228755
v -20.9524566 -18.4024992 -83.7355971
v -20.5252858 -18.2531297 -84.0468121
v -20.2252462 -18.3997427 -84.3706490
v -19.7877614 -18.5068173 -84.5592838
v -19.2403869 -18.5566976 -84.5594220
v -19.1009546 -18.9012419 -84.7469263
v -18.7305014 -18.5296060 -84.2918425
v -18.2548282 -18.7877442 -84.1320481
v -18.4399095 -18.4538483 -83.9124554
v -18.3275679 -18.3652403 -83.4990323
v -18.4036857 -18.2523718 -82.9927839
v -18.6163951 -18.1861473 -82.6641174
v -19.5757431 -18.1557708 -82.2490998
v -20.0115640 -18.2294468 -82.3465529
v -20.3820517 -18.3547428 -82.6022619
v -20.6317657 -18.5343875 -83.0161317
v -20.8459485 -18.6748040 -82.6365035
v -20.9997619 -18.9130778 -83.2257268
v -20.6056300 -19.2941098 -84.1694589
v -20.3000184 -19.0026903 -84.1074456
v -19.9910957 -19.1003914 -84.2991284
v -19.5238612 -19.1741107 -84.3888501
v -19.0160545 -19.1867133 -84.2790368
v -18.3955652 -18.8925388 -82.8237159
v -18.6350364 -18.8134121 -82.4376940
v -19.0159378 -18.7697547 -82.1590526
v -19.4144852 -18.7767951 -82.0581667
v -19.9409099 -18.9902822 -81.7190543
v -19.8462136 -18.8243028 -82.0840942
v -20.6660182 -19.2501359 -83.0153854
v -20.9909091 -19.5497902 -83.0468866
v -20.8587489 -19.7852274 -83.6319470
v -19.7109335 -19.7825040 -84.1738104
v -19.2159651 -19.8217093 -84.1474675
v -18.3466078 -19.5593909 -82.7865533
v -18.0104982 -19.8310184 -82.8132946
v -18.5908350 -19.4479232 -82.2708699
v -19.0937917 -19.3978002 -81.9232315
v -19.6089089 -19.4233987 -81.8528563
v -20.0139444 -19.4918457 -81.9407641
v -20.4751122 -19.6655586 -82.3088388
v -20.6658626 -19.8633609 -82.7660612
v -20.8490911 -20.4192878 -83.4377997
v -20.3045720 -20.2670060 -83.7079571
v -19.9018479 -20.3820347 -83.9312498
v -19.3344265 -20.4500335 -83.9813712
v -18.3977664 -20.7249119 -83.7204890
v -18.3358321 -20.1907575 -82.6027724
v -19.7809131 -20.0789283 -81.6736294
v -18.6705501 -22.3052780 -83.0278194
v -18.3542332 -22.1849033 -82.4453429
v -18.4216365 -22.2302522 -82.6547064
v -18.3324148 -22.1195519 -82.1476590
v -18.3985687 -22.0516922 -81.8376500
v -18.3785492 -22.0649893 -81.8981052
v -18.7271200 -21.9551306 -81.3547680
v -18.6796663 -21.9630454 -81.3989702
v -18.9956951 -21.9294863 -81.1775037
v -18.9379432 -21.9326523 -81.2072756
v -19.3111472 -21.9279033 -81.0740615
v -19.3778790 -21.9310693 -81.0632768
v -20.2407794 -22.0887339 -81.2845914
v -20.1865700 -22.0703714 -81.2469208
v -20.2914461 -22.1077297 -81.3243885
v -20.6679635 -22.4326294 -82.0741910
v -20.3150906 -22.7836615 -82.8887804
v -20.2678016 -22.8023407 -82.9287295
v -20.2185354 -22.8200700 -82.9656405
v -20.1674567 -22.8368496 -82.9996656
v -20.1138241 -22.8529960 -83.0312603
v -18.6882577 -22.9442048 -82.8552651
v -18.3539587 -22.8299579 -82.3028084
v -18.8936316 -20.0407894 -81.8268528
v -19.3271063 -20.0333437 -81.6638220
v -20.1843721 -20.1741627 -81.8376303
v -20.7696818 -20.5173012 -81.9060873
v -20.9457119 -20.6825787 -82.3112932
v -20.6459360 -20.6576258 -82.9544663
v -20.3828781 -20.8669507 -83.4479220
v -19.7957452 -21.0307558 -83.7661348
v -19.2424612 -21.0841909 -83.7527748
v -18.8224418 -21.0670883 -83.5608471
v -18.3407978 -20.9095664 -82.7898289
v -18.3645000 -20.8053352 -82.3144267
v -18.7367119 -20.6816020 -81.7235089
v -18.7128485 -20.8443388 -81.2981810
v -19.1059200 -20.8244514 -81.1291163
v -20.1622876 -20.7985562 -81.6236283
v -20.8093090 -21.1709792 -81.7593446
v -20.6512915 -21.2808234 -82.7351381
v -20.1104671 -21.5938015 -83.4401270
v -19.8171077 -22.0220398 -83.7826282
v -18.5292366 -21.6450678 -83.0656737
v -18.3246446 -21.5332756 -82.5498227
v -18.0387083 -21.6873836 -82.0499607
v -18.4256476 -21.4013181 -81.9523166
v -18.2449764 -21.5720259 -81.5470962
v -18.7532685 -21.3142543 -81.5106200
v -18.6134498 -21.4904398 -81.1631198
v -19.1721185 -21.2957495 -81.3069404
v -19.6161410 -21.3194008 -81.2413526
v -20.4885792 -21.5677035 -81.7222061
v -20.4948037 -22.0698235 -82.9073038
v -20.2054345 -22.1996035 -83.1921411
v -20.5092730 -22.4855306 -83.2537582
v -19.5912792 -22.3230848 -83.3868632
v -19.2127390 -22.3522723 -83.3463562
v -18.9231019 -22.3372559 -83.2247564
v -18.5118902 -22.3934209 -82.9752081
v -18.2800167 -22.2995867 -82.5438213
v -18.0268281 -22.4407888 -82.3741024
v -18.2328925 -22.1900446 -82.0616988
v -18.5273734 -22.2662125 -82.8282447
v -18.3805871 -22.0874102 -81.6029788
v -18.6931225 -22.0112627 -81.2260323
v -19.1293847 -21.9801888 -80.9916148
v -19.6207840 -22.0041326 -80.9309142
v -20.0742720 -22.0929787 -81.0153198
v -18.5561811 -22.0148467 -81.6292706
v -20.4767955 -22.2200092 -81.3379941
v -20.7155640 -22.3910829 -81.7407394
v -20.7686200 -22.5791407 -82.1973432
v -18.8433340 -21.9402851 -81.2634887
v -19.1602533 -21.9247839 -81.1097474
v -20.6506053 -22.7731225 -82.6219116
v -19.7940371 -21.9887171 -81.1055892
v -20.3171616 -22.9162371 -82.9887961
v -19.9083357 -23.0428309 -83.2072073
v -20.6511688 -22.3529260 -81.8762132
v -19.3866742 -23.0892469 -83.2450833
v -20.4447722 -22.7522901 -82.8232102
v -18.9107110 -23.0850404 -83.0981947
v -19.6925088 -22.9453327 -83.1856761
v -18.5285722 -23.0290232 -82.7977939
v -19.0557401 -22.9768380 -83.0883279
v -18.3168829 -23.2082359 -82.8197982
v -18.3618838 -22.7009553 -81.7162006
v -18.8999311 -23.1950371 -80.8155845
v -18.3728103 -24.1013308 -81.9376723
v -18.3343107 -23.9995055 -81.4729580
v -18.4436157 -23.9207341 -81.1192920
v -19.2335413 -23.8202422 -80.4802567
v -20.4380395 -24.0651386 -80.8615866
v -20.2381259 -24.7099501 -82.3572125
v -19.1547710 -24.8708806 -82.5265605
v -20.4624122 -25.2448399 -81.9471158
v -19.9077238 -25.4373733 -82.3425736
v -19.2592275 -25.5035911 -82.3581293
v -18.6641878 -25.4685254 -82.0485058
v -18.6442571 -22.5986305 -81.2152060
v -19.1254935 -22.5564545 -80.9183473
v -19.5810524 -22.5778416 -80.8469848
v -20.0078643 -22.6503621 -80.9439826
v -20.3776598 -22.7742956 -81.1957486
v -20.6054980 -22.9297423 -81.5528985
v -20.6709529 -23.1490001 -82.0675505
v -20.6538405 -23.6950553 -82.7237401
v -19.6747235 -23.5735363 -82.9747027
v -19.1772942 -23.6122449 -82.9391439
v -18.6825522 -23.5721449 -82.6453513
v -18.4255439 -23.4990178 -82.2801453
v -18.3258030 -23.4019412 -81.8352309
v -18.0373010 -23.5852162 -81.4550181
v -18.4566661 -23.2826815 -81.2723545
v -18.6675222 -23.3770505 -80.5255233
v -19.3066358 -23.1917244 -80.6699670
v -19.7880243 -23.2368436 -80.6699855
v -20.2423512 -23.3497460 -80.8745645
v -20.5504616 -23.5063396 -81.2250145
v -20.9996178 -23.9421225 -81.5656918
v -20.6694564 -23.6898601 -81.6596235
v -20.3937181 -24.0153300 -82.4194350
v -19.9814621 -24.1546384 -82.7080139
v -19.6718945 -24.5656989 -83.0040738
v -19.2764483 -24.2380963 -82.7681909
v -19.1158903 -24.5878619 -82.9499666
v -18.7811592 -24.2193133 -82.5289803
v -18.7355729 -23.8445248 -80.7326853
v -20.0888880 -23.9336568 -80.5801681
v -20.6349116 -24.2265734 -81.2359627
v -20.6662306 -24.4004435 -81.6486433
v -20.9842420 -24.5495241 -81.3062453
v -20.5123608 -24.5787092 -82.0641638
v -20.9470461 -24.7334768 -81.7684376
v -19.7390472 -24.8333459 -82.5771274
v -18.7073194 -24.8413673 -82.2717289
v -18.4202063 -24.7585703 -81.8638084
v -18.6788413 -24.4844845 -80.5812365
v -19.2917189 -24.4522840 -80.2617597
v -18.7850035 -24.6284916 -80.0576372
v -19.8698839 -24.5155709 -80.2907750
v -20.2871067 -24.6300616 -80.5105960
v -20.5671292 -24.7854652 -80.8603037
v -20.6728717 -24.9582965 -81.2668836
v -20.6320632 -25.0923452 -81.5854743
v -20.6181173 -25.6040311 -82.1549416
v -20.1471156 -25.7494588 -82.4822748
v -19.5232201 -25.8423820 -82.6130235
v -18.9498110 -25.8419175 -82.4945345
v -19.9039852 -26.0640139 -82.1279193
v -19.3869263 -26.1308967 -82.1837350
v -18.4925056 -26.0525933 -81.6185917
v -19.7352987 -25.7552594 -79.8593895
v -18.7918224 -26.7463937 -81.7414871
v -19.3928144 -26.3503090 -79.6515775
v -20.6681115 -26.9132366 -80.8146281
v -20.1643480 -27.2617403 -81.6142785
v -18.3375504 -27.1403534 -80.3966729
v -20.0780661 -27.0879744 -79.5761626
v -20.6337321 -27.3873048 -80.2363865
v -20.6630431 -27.5665284 -80.6703682
v -20.4801210 -27.7560735 -81.1173219
v -20.0045686 -27.9401488 -81.4996672
v -18.3484875 -25.3466819 -81.4532853
v -18.3482213 -25.2440712 -80.9936590
v -18.5164494 -25.1578805 -80.5861391
v -18.8324308 -25.0985910 -80.2627477
v -19.2565067 -25.0834282 -80.0771648
v -19.7114212 -25.1204253 -80.0574521
v -20.2297537 -25.2359878 -80.2564113
v -20.5882505 -25.4379995 -80.7096468
v -20.3068684 -25.9499715 -81.9043223
v -19.7996680 -26.4403852 -82.3862793
v -19.2196050 -26.4817573 -82.3769478
v -18.6826014 -26.4573772 -82.1569745
v -18.2821968 -26.3769663 -81.7760114
v -18.3281149 -25.9388118 -81.0831049
v -18.3886278 -25.8427277 -80.6453223
v -18.3331267 -25.9627234 -80.0279253
v -18.6220209 -25.7611655 -80.2493704
v -18.7874924 -25.8869445 -79.6472196
v -19.1138747 -25.7135427 -79.9096584
v -20.1838110 -25.8569820 -80.0354853
v -20.6984516 -26.1618746 -80.0155698
v -20.6644618 -26.1826927 -80.7788056
v -20.9770429 -26.5591958 -80.9997648
v -20.6316670 -26.3600109 -81.2012141
v -20.4496573 -26.5126507 -81.5529163
v -19.8884046 -26.6993443 -81.9313264
v -20.1965339 -26.6160378 -81.7791929
v -19.3672600 -26.7602874 -81.9808594
v -19.1498955 -27.1135361 -82.1605868
v -18.6796875 -27.0879547 -81.9512484
v -18.4569173 -26.6737351 -81.3544894
v -18.3266030 -26.5721208 -80.8945883
v -18.4648052 -26.4310069 -80.2432835
v -18.9042452 -26.3550227 -79.8133928
v -19.8733963 -26.4103596 -79.6957101
v -19.7634774 -26.5431781 -79.2835985
v -20.5771770 -26.6791654 -80.2576742
v -20.5426355 -27.0832719 -81.2201329
v -19.6036542 -27.3752444 -81.7849827
v -19.1630654 -27.3984801 -81.7273108
v -18.5816371 -27.3393315 -81.3334821
v -18.8416610 -27.3806275 -81.5636055
v -18.3791456 -27.2636911 -80.9655673
v -18.1897819 -27.6057500 -81.2374378
v -18.0871122 -27.3217993 -80.0382265
v -18.6362789 -27.0191661 -79.8210289
v -19.1698947 -26.9766815 -79.5000055
v -19.6647035 -27.0076264 -79.4517355
v -20.4232620 -27.2154939 -79.8434210
v -20.4303233 -27.3159268 -79.3489834
v -20.8083481 -27.4889480 -79.7645310
v -20.9545568 -27.8709805 -80.7236492
v -20.5079373 -28.5293356 -79.5549498
v -20.6207500 -28.6191014 -79.3256555
v -20.6710000 -28.7186775 -80.0022170
v -20.8287728 -28.8119779 -79.8492669
v -20.5960790 -28.9338674 -80.5176263
v -19.7801167 -29.2444632 -81.1604601
v -19.7836368 -29.3378867 -81.2161289
v -19.2461806 -29.2945397 -81.1553952
v -19.3967875 -29.3577181 -81.2237398
v -18.7681505 -29.2680873 -80.9217916
v -18.8347664 -29.3219706 -81.0152844
v -18.4917058 -29.2142251 -80.6088375
v -18.4427271 -29.1959911 -80.5149269
v -18.4267444 -29.1798447 -80.4667754
v -18.4114208 -29.1719298 -80.4297125
v -18.4060124 -29.1696177 -80.1444189
v -19.4112625 -28.0218987 -81.5765794
v -18.9418454 -28.0248688 -81.4424569
v -18.8755416 -28.3672688 -81.6587105
v -18.5015751 -28.3186448 -81.4144949
v -18.4578285 -27.9373186 -80.9684514
v -18.2289937 -28.2510223 -81.0888130
v -18.3263336 -27.8311395 -80.4621113
v -18.4572945 -27.6973734 -79.8612246
v -18.5743714 -27.8091298 -79.1939353
v -18.9899034 -27.7696738 -78.9598099
v -19.2986368 -27.6068543 -79.2639544
v -19.7659663 -27.6521645 -79.2634475
v -20.2356236 -27.7686824 -79.4737885
v -20.5626152 -27.9360560 -79.8458700
v -20.6816260 -28.1848496 -80.4362277
v -20.9888273 -28.3356612 -80.1028977
v -20.3638593 -28.4560312 -81.0661950
v -20.9042283 -28.5785302 -80.7134941
v -19.8524883 -28.6007187 -81.3424965
v -20.0986009 -28.9153870 -81.4972234
v -19.4394711 -28.6524724 -81.3840676
v -18.8177634 -28.6496268 -81.1683723
v -19.0448068 -29.0067755 -81.5252798
v -18.6076986 -28.9689998 -81.3063077
v -18.2506267 -28.8912721 -80.9243885
v -18.4133176 -28.5482837 -80.6530665
v -18.3284721 -28.4152336 -80.0520210
v -18.0707657 -28.6105915 -79.7156069
v -18.5855111 -28.2908355 -79.4753042
v -18.3044027 -28.4630720 -79.4900748
v -18.3621880 -28.4771440 -79.2110500
v -18.7494528 -28.4030447 -78.9249038
v -19.1336427 -28.2346611 -79.1089431
v -19.6273299 -28.2656970 -79.0505716
v -19.1745571 -28.3708208 -78.7657649
v -19.8251731 -28.4048215 -78.7818386
v -20.1809486 -28.3780075 -79.2230015
v -18.7228628 -29.3630586 -80.7496589
v -18.4196380 -29.0611092 -81.0962558
v -19.2042557 -29.4433121 -81.0024361
v -18.2227707 -28.9886036 -80.8448852
v -19.6675006 -29.4531961 -81.0343484
v -20.2022017 -29.2715421 -81.0794102
v -20.1874560 -29.3848415 -80.8179137
v -20.5771000 -29.1494036 -80.7611795
v -20.4822568 -29.2695743 -80.4548614
v -20.7842496 -29.0010893 -80.3687321
v -20.5958663 -29.1276170 -80.0071117
v -20.4247073 -28.9410376 -79.4174677
v -20.2895077 -28.4967285 -79.0010988
v -19.7827905 -28.8020642 -78.9790239
v -19.0117462 -28.8229322 -79.0448680
v -18.4941622 -28.9904511 -79.5739699
v -18.2546421 -28.7141324 -79.5799981
v -19.7596864 -27.8335608 -81.9500753
v -18.5210541 -27.8209961 -81.5927841
v -18.7892176 -27.6278579 -79.4982725
v -20.9230609 -27.7101057 -79.9662108
v -20.9830040 -27.9454269 -80.5564271
v -20.5248896 -28.2913249 -81.4006676
v -19.2819724 -28.5001370 -81.7504857
v -18.6661755 -28.4728655 -81.5093123
v -18.0135138 -28.2217744 -80.3891882
v -18.0537712 -28.1136316 -79.9542228
v -19.8311046 -27.9355147 -78.8500069
v -20.8475418 -28.2741873 -79.5958566
v -20.9821911 -28.4583286 -80.0627551
v -20.2282999 -29.1350086 -80.9690848
v -20.0937781 -29.0423861 -81.4666198
v -19.4667774 -29.1237365 -81.5692142
v -18.5490963 -24.7803289 -80.1782978
v -18.9507876 -24.7374902 -79.9349946
v -20.2944935 -24.8685207 -80.0237810
v -20.6769639 -25.6463863 -81.2171416
v -20.5249173 -25.8260201 -81.6293372
v -18.8876499 -26.1213093 -82.0007488
v -18.1243155 -25.8069243 -81.6618971
v -20.2678277 -25.4958302 -79.8164995
v -20.5047452 -25.9995393 -80.3520565
v -20.9123800 -25.8058595 -80.5445143
v -20.9885940 -26.0186976 -81.0770072
v -18.6375202 -26.5724011 -82.0885429
v -20.2228735 -26.4987308 -79.8632284
v -20.6623154 -26.2612441 -79.9170610
v -20.9444948 -26.4758373 -80.4447966
v -18.0537280 -27.0154699 -81.0490375
v -18.2314347 -26.7480360 -79.9282878
v -18.6159857 -26.6632303 -79.5210048
v -19.0936614 -26.6289682 -79.2870421
v -20.4161773 -26.7981817 -79.5016245
v -20.9581037 -22.7054666 -81.6998978
v -20.4470408 -23.3541241 -82.5593812
v -20.0875583 -23.4945465 -82.8533812
v -18.2985638 -23.3454281 -82.7527034
v -18.0086340 -23.1321584 -81.8399778
v -19.6845859 -22.8676937 -80.4342749
v -20.1996447 -22.9477388 -80.5696079
v -20.6640920 -23.1111960 -80.9305833
v -20.6264878 -23.8418735 -82.0238695
v -18.5260423 -24.1657577 -82.2506981
v -18.0791371 -23.8826490 -82.1440390
v -18.0120671 -23.7363116 -81.5398426
v -18.1947319 -23.6086579 -80.9937016
v -19.7157847 -23.8584099 -80.4652674
v -20.7136203 -24.4112468 -82.3969081
v -20.4097760 -24.5420148 -82.6925607
v -18.3282698 -24.6743672 -81.4769382
v -18.3908268 -24.5784341 -81.0361796
v -20.9114107 -24.9014112 -81.8433933
v -19.1421610 -25.3412195 -82.7137432
v -19.1703822 -19.6812883 -81.4734014
v -19.6218779 -19.7025321 -81.4280824
v -20.2158500 -19.7917980 -81.5793581
v -20.4944545 -20.3094227 -82.1405105
v -20.6570564 -20.4796561 -82.5389537
v -19.1322631 -20.9233851 -84.1156790
v -18.5042349 -21.0037377 -83.2272495
v -19.3371898 -20.6618773 -81.4611252
v -19.7545671 -20.7044832 -81.4694375
v -20.4814195 -20.9328743 -81.9216508
v -20.6521037 -21.1035243 -82.3177966
v -20.4629146 -21.4507987 -83.1365219
v -19.7091315 -21.6750241 -83.5748262
v -19.2672687 -21.7149089 -83.5581151
v -18.8246038 -21.5399756 -83.7983363
v -18.8473712 -21.7007866 -83.3775111
v -18.0464989 -21.3293515 -82.8409572
v -18.0209438 -21.2135326 -82.3519325
v -19.0253072 -20.9451687 -81.1117511
v -20.1315514 -21.4211509 -81.4062784
v -20.6727308 -21.2207177 -81.5466653
v -20.6539858 -21.7332237 -82.1144127
v -20.6611141 -21.9051150 -82.5203862
v -20.8863070 -21.7722669 -82.8728478
v -20.4678430 -21.9925542 -83.4466382
v -18.5105600 -22.2227753 -83.0284302
v -18.1597512 -22.0384778 -82.9400224
v -18.2800167 -22.1305246 -82.5974411
v -18.0040327 -21.9064716 -82.3908509
v -18.2328925 -22.0209825 -82.1153186
v -18.3810171 -21.9178833 -81.6562096
v -18.6931124 -21.8419679 -81.2791511
v -19.1297884 -21.8109233 -81.0448795
v -19.6200816 -21.8349311 -80.9848784
v -20.0968528 -21.9174557 -81.1067194
v -20.4782814 -22.0503857 -81.3923995
v -20.7276755 -22.2163185 -81.8070090
v -20.7686200 -22.4100786 -82.2509630
v -20.6256188 -22.5918978 -82.6890206
v -20.3170647 -22.7472317 -83.0431176
v -19.8837834 -22.8581797 -83.2566531
v -19.3797777 -22.9113151 -83.3034434
v -18.9056915 -22.9085045 -83.1529417
v -18.4479997 -22.7960088 -82.9434635
v -18.5285722 -22.8599611 -82.8514137
v -20.3323476 -17.3012287 -82.4536912
v -20.9456825 -17.6370555 -83.2526844
v -20.9782707 -17.8533488 -83.7931405
v -20.7891545 -18.0556428 -84.2997958
v -18.3678846 -17.8680307 -82.5483855
v -18.8234682 -17.8007619 -82.1946586
v -19.2783653 -17.7883902 -82.0519375
v -19.7272218 -17.8213978 -82.0384747
v -20.2321991 -17.9105148 -82.1928290
v -20.7025108 -18.0689260 -82.5624203
v -20.9525600 -18.2875679 -83.0930941
v -19.1539376 -19.0250716 -84.7198149
v -18.7187498 -19.0064679 -84.5417611
v -18.3290130 -18.9871261 -83.2648493
v -18.0230282 -18.6634020 -83.0560846
v -18.2519837 -18.5347096 -82.5027608
v -19.2638378 -18.4179650 -81.8509620
v -19.8069219 -18.4598219 -81.8484209
v -20.9138321 -19.2106913 -83.6334012
v -18.6149316 -19.6228135 -84.2777495
v -18.2274702 -19.5359101 -83.8554415
v -18.0201448 -19.4041063 -83.3150173
v -18.0479070 -19.2804785 -82.7758887
v -20.4394389 -19.2285468 -81.9239433
v -20.6067841 -20.0422277 -83.9248186
v -20.2332439 -20.1696372 -84.2030216
v -19.6961796 -20.2609639 -84.3635376
v -19.1118751 -20.2903739 -84.3141433
v -18.2501768 -20.1770833 -83.6999512
f 838 1 38
f 840 838 38
f 840 38 2
f 841 2 3
f 841 840 2
f 5 841 3
f 5 3 4
f 7 5 4
f 7 4 6
f 9 7 6
f 9 6 8
f 10 9 8
f 844 10 8
f 844 8 11
f 13 844 11
f 844 13 12
f 846 844 12
f 15 13 11
f 846 12 962
f 15 11 14
f 16 846 962
f 19 15 14
f 19 14 18
f 21 962 17
f 21 16 962
f 19 18 20
f 23 19 20
f 24 21 17
f 24 17 22
f 28 23 20
f 28 20 26
f 27 22 25
f 27 24 22
f 849 27 25
f 28 26 29
f 835 28 29
f 30 849 25
f 850 849 30
f 33 835 29
f 33 29 31
f 37 850 32
f 36 31 34
f 36 33 31
f 1 36 34
f 39 37 35
f 1 34 38
f 30 32 850
f 32 35 37
f 35 964 39
f 42 39 964
f 42 964 40
f 42 40 41
f 43 42 41
f 853 43 41
f 853 41 44
f 46 853 44
f 46 44 45
f 855 46 45
f 855 45 47
f 48 855 47
f 48 47 965
f 50 48 965
f 49 50 965
f 858 50 49
f 51 858 49
f 52 858 51
f 966 52 51
f 54 52 966
f 53 54 966
f 55 54 53
f 55 53 967
f 56 55 967
f 56 967 57
f 859 56 57
f 58 859 57
f 59 859 58
f 62 59 58
f 60 62 58
f 61 62 60
f 63 62 61
f 63 61 968
f 65 63 968
f 64 65 968
f 861 65 64
f 861 64 66
f 862 861 66
f 862 66 67
f 864 862 67
f 69 864 67
f 69 67 68
f 71 69 68
f 71 68 70
f 73 71 70
f 73 70 72
f 73 72 969
f 74 73 969
f 75 74 969
f 75 969 970
f 77 75 970
f 77 970 76
f 78 77 76
f 78 76 971
f 79 78 971
f 79 971 972
f 80 79 972
f 973 80 972
f 868 80 973
f 81 868 973
f 871 868 81
f 82 871 81
f 873 871 82
f 83 873 82
f 84 873 83
f 974 84 83
f 85 84 974
f 87 85 974
f 86 87 974
f 90 86 88
f 90 87 86
f 90 88 89
f 875 90 89
f 91 875 89
f 93 875 91
f 92 93 91
f 95 93 92
f 94 95 92
f 96 95 94
f 97 96 94
f 98 96 97
f 100 98 97
f 100 97 99
f 102 99 101
f 102 100 99
f 103 102 101
f 103 101 975
f 104 103 975
f 104 975 976
f 105 104 976
f 106 105 976
f 106 976 977
f 107 106 977
f 107 977 978
f 107 978 108
f 109 107 108
f 109 108 110
f 111 109 110
f 111 110 979
f 112 111 979
f 112 979 980
f 114 112 980
f 114 980 113
f 116 114 113
f 115 116 113
f 117 116 115
f 981 117 115
f 119 117 981
f 118 119 981
f 120 119 118
f 982 120 118
f 122 120 982
f 121 122 982
f 122 121 123
f 907 122 123
f 908 907 123
f 124 908 123
f 910 908 124
f 944 910 124
f 125 910 944
f 945 125 944
f 128 945 126
f 128 125 945
f 128 126 127
f 130 128 127
f 130 127 129
f 132 130 129
f 132 129 131
f 912 132 131
f 913 131 946
f 913 912 131
f 134 913 946
f 133 134 946
f 947 134 133
f 136 134 947
f 136 947 135
f 138 136 135
f 138 135 137
f 140 138 137
f 140 137 139
f 142 140 139
f 141 142 139
f 144 142 141
f 143 144 141
f 145 144 143
f 146 145 143
f 917 145 146
f 148 917 146
f 147 148 146
f 149 148 147
f 919 149 147
f 919 147 948
f 921 919 948
f 921 948 150
f 922 921 150
f 950 922 150
f 151 922 950
f 951 151 950
f 154 151 951
f 152 154 951
f 153 154 152
f 155 154 153
f 924 155 153
f 156 924 153
f 157 924 156
f 158 924 157
f 159 158 157
f 159 157 952
f 926 159 952
f 927 926 952
f 927 952 953
f 929 927 953
f 929 953 954
f 930 929 954
f 930 954 955
f 160 930 955
f 160 955 956
f 162 160 956
f 162 956 161
f 162 161 163
f 165 162 163
f 165 163 164
f 167 165 164
f 167 164 166
f 169 167 166
f 169 166 168
f 170 169 168
f 170 168 957
f 172 170 957
f 171 172 957
f 173 172 171
f 175 173 171
f 174 175 171
f 176 175 174
f 177 175 176
f 177 176 958
f 178 177 958
f 178 958 959
f 180 178 959
f 179 180 959
f 182 180 179
f 181 182 179
f 184 182 181
f 183 184 181
f 939 183 185
f 939 184 183
f 941 939 185
f 941 185 186
f 943 941 186
f 187 943 186
f 189 943 187
f 188 189 187
f 191 189 188
f 191 188 190
f 1437 191 190
f 1437 190 192
f 194 1437 192
f 193 194 192
f 1438 194 193
f 195 1438 193
f 1439 1438 195
f 196 1439 195
f 1440 1439 196
f 197 1440 196
f 199 1440 197
f 199 197 198
f 201 199 198
f 200 201 198
f 203 201 200
f 202 203 200
f 205 203 202
f 204 205 202
f 207 205 204
f 961 207 204
f 206 207 961
f 209 207 206
f 209 206 208
f 210 209 208
f 211 210 208
f 1441 210 211
f 212 1441 211
f 1442 1441 212
f 213 1442 212
f 1443 1442 213
f 1444 1443 213
f 214 1444 213
f 1445 1444 214
f 998 1445 214
f 1446 1445 998
f 999 1446 998
f 1447 1446 999
f 215 1447 999
f 216 1447 215
f 1001 216 215
f 218 216 1001
f 217 218 1001
f 220 218 217
f 219 220 217
f 223 220 219
f 221 223 219
f 222 223 221
f 224 223 222
f 1448 224 222
f 1448 222 1006
f 1449 1448 1006
f 1449 1006 225
f 226 1449 225
f 1008 226 225
f 228 226 1008
f 227 228 1008
f 1451 228 227
f 1451 227 229
f 1452 229 230
f 1452 1451 229
f 1452 230 231
f 232 1452 231
f 232 231 233
f 1453 232 233
f 1454 233 234
f 1454 1453 233
f 235 1454 234
f 237 1454 235
f 236 237 235
f 238 237 236
f 1017 238 236
f 238 1017 1018
f 239 238 1018
f 1455 239 1018
f 240 1455 1018
f 241 1455 240
f 1019 241 240
f 243 241 1019
f 243 1019 242
f 243 242 244
f 246 243 244
f 245 246 244
f 247 246 245
f 248 247 245
f 1456 247 248
f 249 1456 248
f 1457 1456 249
f 1457 249 250
f 1458 1457 250
f 251 1458 250
f 1459 1458 251
f 1459 251 252
f 254 1459 252
f 253 254 252
f 256 254 253
f 255 256 253
f 258 256 255
f 257 258 255
f 259 258 257
f 1028 259 257
f 260 259 1028
f 260 1028 261
f 1460 260 261
f 1460 261 262
f 264 1460 262
f 263 264 262
f 265 264 263
f 1031 265 263
f 266 265 1031
f 1032 266 1031
f 267 266 1032
f 1461 267 1032
f 268 1461 1032
f 1462 1461 268
f 1462 268 269
f 1463 1462 269
f 1463 269 270
f 1464 270 271
f 1464 1463 270
f 1464 271 272
f 273 1464 272
f 1465 273 272
f 1465 272 274
f 1465 274 275
f 276 1465 275
f 276 275 1036
f 278 276 1036
f 277 278 1036
f 279 278 277
f 280 279 277
f 281 279 280
f 282 281 280
f 1392 281 282
f 1393 1392 282
f 1393 282 283
f 1394 1393 283
f 284 1394 283
f 286 1394 284
f 285 286 284
f 288 286 285
f 287 288 285
f 289 288 287
f 290 289 287
f 290 287 1043
f 292 290 1043
f 291 292 1043
f 294 292 291
f 293 294 291
f 295 294 293
f 296 295 293
f 1397 295 296
f 1397 296 297
f 298 1397 297
f 298 297 1047
f 300 298 1047
f 300 1047 299
f 302 300 299
f 302 299 301
f 304 302 301
f 303 304 301
f 305 304 303
f 306 305 303
f 308 305 306
f 307 308 306
f 310 308 307
f 309 310 307
f 311 310 309
f 312 310 311
f 314 312 311
f 314 311 313
f 314 313 1076
f 315 314 1076
f 315 1076 1077
f 318 315 1077
f 318 1077 316
f 317 318 316
f 320 318 317
f 319 320 317
f 322 320 319
f 321 322 319
f 324 322 321
f 324 321 323
f 325 324 323
f 1406 325 323
f 1406 323 326
f 329 1406 326
f 327 329 326
f 328 329 327
f 1408 329 328
f 330 1408 328
f 1409 1408 330
f 332 1409 330
f 332 330 331
f 334 332 331
f 334 331 333
f 1086 334 333
f 1410 334 1086
f 1410 1086 1087
f 1410 1087 335
f 337 1410 335
f 337 335 336
f 339 337 336
f 338 339 336
f 1412 339 338
f 1089 1412 338
f 340 1412 1089
f 341 340 1089
f 343 340 341
f 342 343 341
f 1415 343 342
f 345 1415 342
f 344 345 342
f 1416 345 344
f 346 1416 344
f 346 344 1092
f 348 346 1092
f 348 1092 347
f 350 348 347
f 349 350 347
f 352 350 349
f 351 352 349
f 1418 352 351
f 1418 351 353
f 1420 1418 353
f 354 1420 353
f 1420 354 1095
f 355 1420 1095
f 1097 355 1095
f 356 355 1097
f 1099 356 1097
f 357 356 1099
f 359 1099 358
f 359 357 1099
f 361 359 358
f 361 358 360
f 363 361 360
f 362 363 360
f 364 363 362
f 365 364 362
f 367 365 362
f 366 367 362
f 367 366 368
f 369 367 368
f 370 369 368
f 372 370 368
f 372 368 371
f 373 372 371
f 374 373 371
f 376 374 371
f 375 376 371
f 377 376 375
f 378 377 375
f 1105 378 375
f 379 378 1105
f 381 379 1105
f 380 381 1105
f 382 381 380
f 383 382 380
f 384 382 383
f 385 384 383
f 387 385 383
f 386 387 383
f 388 387 386
f 389 388 386
f 390 388 389
f 391 390 389
f 392 391 389
f 393 392 389
f 394 392 393
f 395 394 393
f 1111 395 393
f 397 395 1111
f 396 397 1111
f 399 397 396
f 398 399 396
f 400 399 398
f 401 399 400
f 403 401 400
f 402 403 400
f 406 403 402
f 404 406 402
f 405 406 404
f 410 406 405
f 407 410 405
f 408 410 407
f 409 410 408
f 412 410 409
f 411 412 409
f 1372 412 411
f 1372 411 413
f 1372 413 414
f 1372 414 415
f 418 1372 415
f 416 418 415
f 417 418 416
f 420 418 417
f 419 420 417
f 423 420 419
f 421 423 419
f 423 421 422
f 425 423 422
f 425 422 424
f 429 425 424
f 429 424 426
f 429 426 427
f 429 427 428
f 431 429 428
f 430 431 428
f 435 431 430
f 432 435 430
f 433 435 432
f 434 435 433
f 1136 435 434
f 1375 435 1136
f 436 1375 1136
f 439 1375 436
f 437 439 436
f 438 439 437
f 1376 439 438
f 440 1376 438
f 442 440 441
f 442 1376 440
f 444 442 441
f 443 444 441
f 446 444 443
f 445 446 443
f 447 446 445
f 448 447 445
f 1377 447 448
f 1378 1377 448
f 449 1378 448
f 1379 1378 449
f 450 1379 449
f 452 1379 450
f 451 452 450
f 454 452 451
f 453 454 451
f 455 454 453
f 1157 455 453
f 457 455 1157
f 457 1157 456
f 459 457 456
f 459 456 458
f 461 459 458
f 461 458 460
f 464 461 460
f 462 464 460
f 463 464 462
f 1382 464 463
f 1382 463 465
f 1383 1382 465
f 1383 465 1163
f 1384 1383 1163
f 466 1384 1163
f 467 1384 466
f 1165 467 466
f 469 467 1165
f 468 469 1165
f 471 469 468
f 471 468 470
f 473 471 470
f 473 470 472
f 474 473 472
f 476 474 472
f 475 476 472
f 477 476 475
f 1170 477 475
f 478 477 1170
f 479 478 1170
f 1386 478 479
f 480 1386 479
f 1387 1386 480
f 481 1387 480
f 482 1387 481
f 1174 482 481
f 484 482 1174
f 1176 484 1174
f 483 484 1176
f 485 484 483
f 487 485 483
f 487 483 486
f 488 487 486
f 490 488 486
f 489 490 486
f 490 489 491
f 492 490 491
f 494 492 491
f 494 491 493
f 496 494 493
f 496 493 495
f 498 496 495
f 497 498 495
f 500 498 497
f 499 500 497
f 502 500 499
f 501 502 499
f 504 502 501
f 503 504 501
f 505 504 503
f 1182 505 503
f 505 1182 1184
f 1390 505 1184
f 1390 1184 506
f 508 1390 506
f 508 506 507
f 510 508 507
f 509 510 507
f 512 510 509
f 511 512 509
f 1391 512 511
f 513 1391 511
f 514 1391 513
f 516 514 513
f 516 513 515
f 518 515 517
f 518 516 515
f 520 518 517
f 520 517 519
f 520 519 521
f 523 520 521
f 523 521 522
f 1352 523 522
f 1352 522 1190
f 1353 1352 1190
f 1353 1190 524
f 525 1353 524
f 525 524 526
f 527 525 526
f 527 526 528
f 1354 527 528
f 531 1354 528
f 531 528 529
f 531 529 530
f 533 531 530
f 533 530 532
f 535 532 534
f 535 533 532
f 536 534 1196
f 536 535 534
f 537 536 1196
f 537 1196 1197
f 538 537 1197
f 538 1197 1198
f 539 538 1198
f 539 1198 1199
f 541 539 1199
f 540 541 1199
f 1358 541 540
f 542 1358 540
f 543 1358 542
f 544 1358 543
f 546 544 543
f 546 543 545
f 548 546 545
f 548 545 547
f 550 548 547
f 550 547 549
f 552 549 551
f 552 550 549
f 555 552 551
f 555 551 553
f 555 553 554
f 1359 555 554
f 557 1359 554
f 557 554 556
f 557 556 558
f 1361 557 558
f 1361 558 559
f 1362 1361 559
f 1362 559 560
f 562 1362 560
f 562 560 561
f 564 562 561
f 564 561 563
f 565 564 563
f 565 563 1223
f 566 565 1223
f 566 1223 1224
f 567 566 1224
f 567 1224 1225
f 1363 567 1225
f 1363 1225 1226
f 568 1363 1226
f 569 568 1226
f 571 568 569
f 570 571 569
f 573 571 570
f 572 573 570
f 574 573 572
f 1229 574 572
f 575 574 1229
f 575 1229 1231
f 577 575 1231
f 577 1231 576
f 580 577 576
f 580 576 578
f 579 580 578
f 1365 580 579
f 1234 1365 579
f 581 1365 1234
f 1366 1365 581
f 583 1366 581
f 1236 583 581
f 582 583 1236
f 585 583 582
f 585 582 584
f 586 585 584
f 586 584 587
f 588 586 587
f 588 587 1242
f 589 588 1242
f 589 1242 1243
f 590 589 1243
f 591 590 1243
f 593 590 591
f 592 593 591
f 1367 593 592
f 594 1367 592
f 595 1367 594
f 595 594 596
f 1368 595 596
f 1368 596 597
f 1369 1368 597
f 1370 1369 597
f 598 1370 597
f 599 1370 598
f 1249 599 598
f 601 599 1249
f 600 601 1249
f 1371 601 600
f 602 1371 600
f 604 1371 602
f 604 602 603
f 606 604 603
f 605 606 603
f 608 606 605
f 607 608 605
f 609 608 607
f 610 609 607
f 611 609 610
f 1336 611 610
f 612 1336 610
f 613 1336 612
f 613 612 614
f 615 613 614
f 1337 614 616
f 1337 615 614
f 1337 616 1257
f 617 1337 1257
f 619 1257 618
f 619 617 1257
f 619 618 1258
f 620 619 1258
f 622 620 1258
f 622 1258 621
f 624 622 621
f 624 621 623
f 624 623 625
f 627 624 625
f 627 625 626
f 628 627 626
f 628 626 1263
f 629 628 1263
f 629 1263 1264
f 1339 629 1264
f 1339 1264 630
f 1340 1339 630
f 1340 630 1265
f 632 1265 631
f 632 1340 1265
f 1341 631 633
f 1341 632 631
f 635 1341 633
f 635 633 634
f 1342 635 634
f 636 1342 634
f 1284 1342 636
f 1343 1342 1284
f 1285 1343 1284
f 637 1343 1285
f 637 1285 1287
f 637 1287 638
f 639 637 638
f 1344 639 638
f 640 1344 638
f 1345 1344 640
f 642 1345 640
f 641 642 640
f 643 642 641
f 1290 643 641
f 1291 643 1290
f 645 643 1291
f 645 1291 644
f 1346 645 644
f 1346 644 646
f 648 1346 646
f 648 646 647
f 1347 648 647
f 1347 647 649
f 1347 649 1297
f 1348 1347 1297
f 650 1348 1297
f 1299 650 1297
f 652 650 1299
f 651 652 1299
f 1350 652 651
f 1301 1350 651
f 653 1350 1301
f 1351 1350 653
f 1304 1351 653
f 654 1351 1304
f 1305 654 1304
f 1320 654 1305
f 1306 1320 1305
f 1322 1320 1306
f 655 1322 1306
f 656 1322 655
f 804 656 655
f 657 14 660
f 18 14 657
f 657 20 18
f 658 20 657
f 659 20 658
f 660 11 663
f 14 11 660
f 659 26 20
f 661 26 659
f 662 26 661
f 663 11 664
f 662 29 26
f 11 8 664
f 665 29 662
f 664 8 666
f 8 6 666
f 665 31 29
f 665 667 31
f 6 668 666
f 31 667 34
f 4 668 6
f 667 669 34
f 4 670 668
f 34 669 38
f 669 671 38
f 4 672 670
f 3 672 4
f 671 673 38
f 38 673 2
f 3 674 672
f 3 673 674
f 2 673 3
f 675 661 659
f 699 675 659
f 699 659 658
f 704 699 658
f 706 704 658
f 706 658 657
f 676 706 657
f 677 676 657
f 678 677 657
f 678 657 660
f 679 678 660
f 680 679 660
f 681 660 663
f 681 680 660
f 682 681 663
f 683 682 663
f 720 663 664
f 720 683 663
f 722 720 664
f 726 722 664
f 726 664 666
f 730 726 666
f 735 730 666
f 735 666 668
f 684 735 668
f 685 684 668
f 685 668 670
f 686 685 670
f 744 686 670
f 744 670 672
f 687 744 672
f 749 687 672
f 749 672 674
f 688 749 674
f 688 674 673
f 689 688 673
f 690 689 673
f 690 673 671
f 764 690 671
f 691 764 671
f 691 671 669
f 692 691 669
f 693 692 669
f 693 669 667
f 775 693 667
f 694 775 667
f 694 667 665
f 779 694 665
f 783 779 665
f 786 783 665
f 786 665 662
f 789 786 662
f 789 662 661
f 695 789 661
f 695 695 661
f 675 695 661
f 696 789 695
f 696 695 695
f 696 695 675
f 700 697 675
f 701 697 700
f 699 700 675
f 705 698 701
f 702 700 699
f 702 701 700
f 703 699 704
f 703 702 699
f 705 701 702
f 706 703 704
f 707 705 702
f 708 703 706
f 708 702 703
f 676 708 706
f 711 702 708
f 711 707 702
f 709 707 711
f 710 708 676
f 710 676 677
f 710 711 708
f 712 709 711
f 713 677 678
f 713 710 677
f 715 711 710
f 712 711 715
f 713 715 710
f 714 713 678
f 714 678 679
f 715 713 714
f 716 712 715
f 680 714 679
f 717 715 714
f 716 715 717
f 717 714 680
f 681 717 680
f 712 716 718
f 721 681 682
f 721 717 681
f 718 716 717
f 719 718 717
f 719 717 721
f 721 682 683
f 724 719 721
f 721 683 720
f 723 721 720
f 723 724 721
f 723 720 722
f 725 719 724
f 725 718 719
f 725 724 723
f 727 723 722
f 727 722 726
f 728 725 723
f 728 723 727
f 730 727 726
f 731 727 730
f 732 725 728
f 728 727 729
f 731 729 727
f 737 725 732
f 733 731 730
f 733 730 735
f 732 728 729
f 736 729 731
f 736 732 729
f 684 733 735
f 734 731 733
f 734 733 684
f 737 732 736
f 736 731 734
f 738 737 736
f 740 736 734
f 740 738 736
f 739 684 685
f 739 734 684
f 740 734 739
f 742 740 739
f 741 737 738
f 739 685 686
f 741 738 740
f 742 741 740
f 742 739 686
f 743 686 744
f 745 742 686
f 741 746 737
f 743 745 686
f 687 743 744
f 746 741 742
f 750 742 745
f 746 742 750
f 747 743 687
f 747 745 743
f 750 745 747
f 748 747 687
f 749 748 687
f 753 747 748
f 753 750 747
f 754 746 750
f 752 748 749
f 752 753 748
f 753 754 750
f 751 752 749
f 751 749 688
f 755 754 753
f 751 753 752
f 757 751 688
f 755 753 751
f 689 757 688
f 755 751 756
f 757 756 751
f 758 754 755
f 759 756 757
f 759 757 689
f 758 755 756
f 759 689 690
f 758 756 759
f 760 759 690
f 761 758 759
f 761 759 760
f 764 760 690
f 762 758 761
f 763 761 760
f 763 760 764
f 766 762 761
f 766 761 763
f 767 763 764
f 765 763 767
f 767 764 691
f 768 762 766
f 765 766 763
f 692 767 691
f 771 765 767
f 771 766 765
f 769 767 692
f 770 766 771
f 768 766 770
f 769 771 767
f 772 769 692
f 772 692 693
f 773 771 769
f 773 769 772
f 774 768 770
f 774 770 771
f 774 771 773
f 778 768 774
f 772 693 775
f 777 772 775
f 777 773 772
f 776 774 773
f 776 773 777
f 777 775 694
f 782 776 777
f 780 774 776
f 780 778 774
f 779 777 694
f 781 782 777
f 781 777 779
f 780 776 782
f 785 779 783
f 784 781 779
f 784 782 781
f 785 784 779
f 780 782 784
f 786 785 783
f 788 784 785
f 788 785 786
f 790 780 784
f 790 778 780
f 787 784 788
f 789 788 786
f 790 784 787
f 789 696 675
f 787 788 791
f 697 788 789
f 697 789 675
f 791 788 697
f 698 787 791
f 791 697 701
f 698 791 701
f 705 790 787
f 705 787 698
f 792 705 707
f 792 707 709
f 792 709 712
f 793 712 718
f 793 718 725
f 793 792 712
f 737 793 725
f 794 705 792
f 794 778 790
f 794 790 705
f 795 793 737
f 796 778 794
f 746 795 737
f 768 778 796
f 746 797 795
f 754 797 746
f 762 768 796
f 762 796 797
f 758 797 754
f 758 762 797
f 792 793 798
f 798 793 799
f 794 792 800
f 800 792 798
f 796 794 801
f 801 794 800
f 797 796 802
f 802 796 801
f 795 797 803
f 803 797 802
f 793 795 799
f 799 795 803
f 798 799 803
f 800 803 802
f 800 802 801
f 800 798 803
f 15 806 13
f 9 811 7
f 844 845 10
f 849 813 27
f 39 814 37
f 855 856 46
f 858 818 817
f 55 819 54
f 55 820 819
f 75 827 74
f 87 829 85
f 90 832 831
f 98 878 96
f 15 833 806
f 833 19 807
f 15 19 833
f 23 807 19
f 834 807 23
f 23 28 834
f 834 28 963
f 28 835 963
f 963 835 836
f 835 33 836
f 836 33 837
f 33 36 837
f 837 36 839
f 36 1 839
f 808 838 840
f 839 838 808
f 1 838 839
f 842 840 841
f 808 840 842
f 809 841 5
f 842 841 809
f 7 810 5
f 5 810 809
f 7 843 810
f 811 843 7
f 9 10 811
f 811 10 845
f 845 844 847
f 847 844 846
f 847 846 848
f 848 846 16
f 848 21 812
f 16 21 848
f 21 24 812
f 24 27 812
f 812 27 813
f 813 849 851
f 851 849 850
f 852 850 37
f 851 850 852
f 814 852 37
f 814 39 42
f 42 815 814
f 42 43 815
f 815 43 854
f 43 853 854
f 816 853 46
f 854 853 816
f 816 46 856
f 857 855 48
f 856 855 857
f 817 857 50
f 50 857 48
f 858 817 50
f 818 858 52
f 52 54 818
f 818 54 819
f 55 56 820
f 820 56 859
f 821 859 59
f 820 859 821
f 62 860 59
f 59 860 821
f 63 822 62
f 62 822 860
f 63 823 822
f 63 65 823
f 823 65 824
f 65 861 824
f 824 861 863
f 863 861 862
f 865 862 864
f 863 862 865
f 825 864 69
f 865 864 825
f 69 71 825
f 825 73 826
f 71 73 825
f 73 74 826
f 826 74 827
f 77 828 75
f 75 828 827
f 78 866 77
f 77 866 828
f 866 79 867
f 78 79 866
f 79 80 867
f 867 80 869
f 80 868 869
f 869 868 870
f 872 870 871
f 871 870 868
f 874 871 873
f 874 872 871
f 829 873 84
f 874 873 829
f 84 85 829
f 87 830 829
f 87 90 830
f 830 90 831
f 90 875 832
f 832 93 876
f 875 93 832
f 95 877 93
f 93 877 876
f 877 96 878
f 95 96 877
f 806 12 13
f 104 900 103
f 112 880 111
f 114 903 112
f 120 881 119
f 122 906 120
f 122 882 906
f 907 882 122
f 128 949 125
f 128 883 949
f 140 916 138
f 145 887 144
f 151 923 890
f 155 891 154
f 930 960 893
f 167 934 894
f 170 934 169
f 172 895 170
f 182 938 180
f 184 938 182
f 189 897 896
f 878 100 898
f 98 100 878
f 100 102 898
f 898 102 899
f 102 103 899
f 899 103 900
f 900 104 901
f 901 104 105
f 106 901 105
f 879 901 106
f 106 107 879
f 107 109 879
f 879 109 902
f 111 902 109
f 880 902 111
f 903 880 112
f 904 903 114
f 114 116 904
f 904 116 905
f 116 117 905
f 905 117 881
f 117 119 881
f 120 906 881
f 909 907 908
f 882 907 909
f 909 908 911
f 911 908 910
f 911 910 949
f 949 910 125
f 128 130 883
f 883 130 884
f 130 132 884
f 132 912 884
f 885 912 913
f 884 912 885
f 885 913 914
f 914 913 134
f 914 134 915
f 134 136 915
f 136 138 915
f 915 138 916
f 886 916 140
f 140 142 886
f 144 887 142
f 142 887 886
f 917 888 145
f 145 888 887
f 918 917 148
f 888 917 918
f 148 149 918
f 918 149 920
f 149 919 920
f 920 919 889
f 889 919 921
f 890 921 922
f 889 921 890
f 890 922 151
f 154 923 151
f 154 891 923
f 924 925 155
f 155 925 891
f 892 924 158
f 925 924 892
f 159 892 158
f 928 926 927
f 159 926 892
f 892 926 928
f 893 927 929
f 928 927 893
f 893 929 930
f 960 930 160
f 160 931 960
f 932 931 160
f 160 162 932
f 932 162 933
f 162 165 933
f 933 165 894
f 165 167 894
f 167 169 934
f 934 170 895
f 173 895 172
f 175 935 173
f 173 935 895
f 177 935 175
f 936 935 177
f 178 936 177
f 937 936 178
f 178 180 937
f 937 180 938
f 938 184 940
f 942 939 941
f 940 939 942
f 184 939 940
f 896 941 943
f 942 941 896
f 896 943 189
f 878 124 123
f 900 126 945
f 902 946 131
f 903 947 133
f 882 143 906
f 909 147 146
f 949 150 948
f 883 150 949
f 885 156 153
f 888 163 161
f 923 171 890
f 960 186 893
f 932 190 188
f 934 195 894
f 895 197 196
f 935 200 198
f 897 213 896
f 878 898 124
f 899 944 898
f 898 944 124
f 900 945 899
f 899 945 944
f 126 900 901
f 127 901 879
f 126 901 127
f 127 879 129
f 879 902 129
f 129 902 131
f 880 946 902
f 903 133 880
f 880 133 946
f 135 947 904
f 904 947 903
f 137 904 905
f 135 904 137
f 139 905 881
f 137 905 139
f 141 139 881
f 143 141 906
f 906 141 881
f 146 143 882
f 882 909 146
f 911 147 909
f 949 948 911
f 911 948 147
f 883 950 150
f 884 951 883
f 883 951 950
f 152 951 884
f 153 152 884
f 885 153 884
f 156 914 157
f 885 914 156
f 915 157 914
f 952 157 915
f 916 953 915
f 915 953 952
f 886 954 916
f 916 954 953
f 886 955 954
f 887 956 886
f 886 956 955
f 888 161 887
f 887 161 956
f 164 163 918
f 918 163 888
f 920 166 918
f 918 166 164
f 889 166 920
f 168 166 889
f 889 957 168
f 890 957 889
f 957 890 171
f 171 923 174
f 891 174 923
f 176 174 891
f 925 958 891
f 891 958 176
f 179 959 892
f 892 959 925
f 925 959 958
f 181 179 892
f 928 181 892
f 183 181 928
f 928 185 183
f 893 185 928
f 893 186 185
f 186 960 187
f 960 931 187
f 188 931 932
f 187 931 188
f 192 932 933
f 190 932 192
f 193 933 894
f 192 933 193
f 195 193 894
f 196 195 934
f 895 196 934
f 198 197 895
f 935 198 895
f 936 200 935
f 202 200 936
f 202 936 937
f 938 204 937
f 937 204 202
f 206 961 938
f 938 961 204
f 938 940 206
f 206 940 208
f 942 208 940
f 211 208 942
f 896 211 942
f 212 211 896
f 213 212 896
f 836 32 30
f 837 35 32
f 811 965 47
f 847 966 51
f 814 968 61
f 814 64 968
f 817 970 969
f 818 970 817
f 820 972 819
f 820 973 972
f 863 89 88
f 865 91 89
f 825 94 92
f 826 97 94
f 827 99 97
f 828 101 99
f 832 115 831
f 833 962 806
f 806 962 12
f 807 17 833
f 833 17 962
f 22 807 834
f 17 807 22
f 25 834 963
f 22 834 25
f 30 963 836
f 25 963 30
f 32 836 837
f 35 837 839
f 839 964 35
f 808 40 839
f 839 40 964
f 40 842 41
f 808 842 40
f 41 809 44
f 842 809 41
f 810 44 809
f 45 44 810
f 810 843 45
f 47 843 811
f 45 843 47
f 811 845 965
f 965 845 49
f 49 845 51
f 845 847 51
f 848 966 847
f 53 966 848
f 812 53 848
f 967 53 812
f 57 967 812
f 58 57 813
f 813 57 812
f 851 58 813
f 60 58 851
f 61 60 852
f 852 60 851
f 61 852 814
f 814 815 64
f 64 815 66
f 67 66 854
f 854 66 815
f 816 67 854
f 68 67 816
f 816 856 68
f 68 856 70
f 857 70 856
f 72 70 857
f 817 969 857
f 857 969 72
f 970 818 76
f 818 971 76
f 819 971 818
f 819 972 971
f 820 821 973
f 973 821 81
f 821 860 81
f 81 860 82
f 822 83 860
f 860 83 82
f 823 974 822
f 822 974 83
f 823 824 974
f 974 824 86
f 86 863 88
f 824 863 86
f 865 89 863
f 91 865 825
f 91 825 92
f 825 826 94
f 826 827 97
f 827 828 99
f 828 866 101
f 867 975 866
f 866 975 101
f 867 976 975
f 869 976 867
f 870 977 869
f 869 977 976
f 872 978 870
f 870 978 977
f 108 978 872
f 110 872 874
f 108 872 110
f 829 979 874
f 874 979 110
f 829 980 979
f 830 113 829
f 829 113 980
f 830 831 113
f 113 831 115
f 832 981 115
f 832 876 981
f 981 876 118
f 877 982 876
f 876 982 118
f 121 982 877
f 123 121 878
f 878 121 877
f 997 215 999
f 1005 225 1006
f 1007 1008 225
f 1010 229 227
f 1011 230 229
f 983 231 1012
f 1013 234 233
f 1025 255 253
f 1029 257 1027
f 1029 1028 257
f 986 261 1029
f 1029 261 1028
f 987 262 986
f 988 1031 1030
f 1033 270 269
f 1034 271 270
f 991 274 990
f 1040 284 283
f 1041 285 284
f 1042 287 285
f 992 287 1042
f 1044 293 291
f 994 1047 993
f 1048 303 301
f 995 306 303
f 897 996 213
f 213 996 214
f 997 998 996
f 996 998 214
f 997 999 998
f 997 1000 215
f 1002 1001 1000
f 217 1001 1002
f 1000 1001 215
f 219 217 1003
f 1003 217 1002
f 1004 219 1003
f 221 219 1004
f 222 1004 1005
f 221 1004 222
f 1005 1006 222
f 1005 1007 225
f 1009 1008 1007
f 227 1008 1009
f 1009 1010 227
f 1010 1011 229
f 1011 1012 230
f 230 1012 231
f 233 231 983
f 1013 233 983
f 1014 234 1013
f 235 234 1014
f 1015 235 1014
f 236 235 1015
f 1016 1017 1015
f 1015 1017 236
f 1016 1018 1017
f 984 1018 1016
f 984 240 1018
f 1020 1019 984
f 984 1019 240
f 1020 1021 1019
f 1019 1021 242
f 242 1022 244
f 244 1022 245
f 1021 1022 242
f 1022 1023 245
f 245 1023 248
f 249 248 985
f 985 248 1023
f 250 249 985
f 985 1450 250
f 250 1450 251
f 251 1024 252
f 1450 1024 251
f 1024 1025 252
f 252 1025 253
f 1025 1026 255
f 255 1026 257
f 1026 1027 257
f 261 986 262
f 263 262 987
f 987 1031 263
f 1030 1031 987
f 988 1032 1031
f 988 989 1032
f 1032 989 268
f 269 989 1033
f 268 989 269
f 270 1033 1034
f 272 1034 990
f 271 1034 272
f 272 990 274
f 275 274 991
f 1035 1036 991
f 991 1036 275
f 277 1035 1037
f 1036 1035 277
f 280 277 1037
f 280 1038 282
f 1037 1038 280
f 1039 282 1038
f 283 282 1039
f 1039 1040 283
f 1041 284 1040
f 285 1041 1042
f 992 1043 287
f 992 1044 1043
f 1043 1044 291
f 1044 1045 293
f 293 1046 296
f 1045 1046 293
f 297 1046 993
f 296 1046 297
f 993 1047 297
f 994 299 1047
f 994 1048 299
f 299 1048 301
f 995 303 1048
f 1081 326 323
f 1082 327 326
f 1404 347 1092
f 1407 351 349
f 1098 358 1099
f 1104 1105 375
f 1108 396 1111
f 1051 402 1052
f 1054 408 1055
f 1055 408 407
f 1054 409 408
f 1056 414 1057
f 1057 414 413
f 1058 416 1059
f 1058 417 416
f 1060 421 419
f 1061 421 1060
f 1126 424 422
f 1062 426 1063
f 1062 427 426
f 1064 427 1062
f 1129 430 428
f 1065 430 1129
f 1066 432 1131
f 1066 433 432
f 1067 433 1066
f 1068 433 1067
f 1069 433 1068
f 1070 434 1069
f 1069 434 433
f 1071 437 1135
f 1135 437 436
f 1072 437 1071
f 1072 438 437
f 995 1073 306
f 306 1073 307
f 1073 1074 307
f 307 1074 309
f 1074 1049 309
f 309 1049 311
f 1049 1075 311
f 311 1075 313
f 1395 1076 1075
f 1075 1076 313
f 1395 1077 1076
f 1396 1077 1395
f 316 1077 1396
f 1396 1078 316
f 316 1078 317
f 1078 1079 317
f 317 1079 319
f 321 1079 1080
f 319 1079 321
f 323 321 1080
f 1080 1081 323
f 1081 1082 326
f 1082 1398 327
f 327 1398 328
f 1398 1083 328
f 328 1083 330
f 1083 1084 330
f 330 1084 331
f 1085 331 1084
f 333 331 1085
f 1085 1086 333
f 1399 1087 1085
f 1085 1087 1086
f 335 1087 1399
f 336 335 1400
f 1400 335 1399
f 1400 1088 336
f 336 1088 338
f 1401 1089 1088
f 1088 1089 338
f 1401 1402 1089
f 1089 1402 341
f 1402 1090 341
f 341 1090 342
f 1090 1403 342
f 342 1403 344
f 1091 344 1403
f 1091 1092 344
f 1404 1092 1091
f 347 1405 349
f 1404 1405 347
f 1405 1407 349
f 1407 1093 351
f 351 1093 353
f 1093 1094 353
f 353 1094 354
f 1096 1095 1094
f 1094 1095 354
f 1098 1097 1096
f 1096 1097 1095
f 1098 1099 1097
f 1098 1100 358
f 360 1100 1101
f 358 1100 360
f 1101 1411 360
f 360 1411 362
f 1411 1102 362
f 362 1102 366
f 1102 1413 366
f 1414 368 1413
f 1413 368 366
f 371 1414 1103
f 368 1414 371
f 375 371 1104
f 1104 371 1103
f 380 1105 1104
f 383 380 1106
f 1106 380 1104
f 1106 386 383
f 1106 1107 386
f 389 386 1107
f 1108 1109 1107
f 1107 1109 389
f 393 1109 1108
f 389 1109 393
f 1111 1110 1108
f 1108 1110 393
f 1110 1111 393
f 1108 1112 396
f 1050 1112 1108
f 398 1112 1050
f 398 396 1112
f 1113 1114 1050
f 1050 1114 398
f 400 1114 1113
f 398 1114 400
f 1052 1115 1113
f 1113 1115 400
f 402 1115 1052
f 400 1115 402
f 1051 1116 402
f 404 1116 1051
f 402 1116 404
f 405 1117 1053
f 1053 1117 1051
f 1051 1117 404
f 404 1117 405
f 1053 1118 405
f 1055 1118 1053
f 405 1118 407
f 407 1118 1055
f 1119 1120 1054
f 1054 1120 409
f 411 1120 1119
f 409 1120 411
f 1057 1121 1119
f 1119 1121 411
f 413 1121 1057
f 413 411 1121
f 416 1122 1059
f 1123 1122 1056
f 1059 1122 1123
f 1056 1122 414
f 416 415 1122
f 1122 415 414
f 1058 1125 417
f 1124 1125 1058
f 1060 1125 1124
f 417 1125 419
f 419 1125 1060
f 1126 1127 1061
f 1061 1127 421
f 422 1127 1126
f 421 1127 422
f 1063 1128 1126
f 1126 1128 424
f 426 1128 1063
f 424 1128 426
f 1129 1130 1064
f 428 1130 1129
f 1064 1130 427
f 427 1130 428
f 432 1132 1131
f 1131 1132 1065
f 1065 1132 430
f 430 1132 432
f 1133 1134 1070
f 1135 1134 1133
f 1135 1136 1134
f 1070 1136 434
f 1134 1136 1070
f 436 1136 1135
f 1072 440 438
f 1152 448 445
f 1154 450 449
f 1155 451 450
f 1164 466 1163
f 1138 466 1164
f 1138 468 1165
f 1167 470 1166
f 1166 470 468
f 1175 483 1176
f 1385 497 1142
f 1183 506 1184
f 1185 509 507
f 1185 511 509
f 1145 511 1185
f 1189 524 1190
f 1147 1196 1146
f 1149 1199 1148
f 1149 540 1199
f 1072 1137 440
f 440 1137 441
f 443 441 1150
f 1150 441 1137
f 1151 443 1150
f 445 443 1151
f 445 1151 1152
f 448 1152 1153
f 449 1153 1154
f 448 1153 449
f 450 1154 1155
f 451 1155 1156
f 451 1156 453
f 1156 1157 453
f 1373 1157 1156
f 1373 1374 1157
f 1157 1374 456
f 1158 456 1374
f 458 456 1158
f 1158 1159 458
f 458 1159 460
f 462 460 1160
f 1160 460 1159
f 1161 462 1160
f 463 462 1161
f 1161 465 463
f 1162 465 1161
f 1164 1163 1162
f 1162 1163 465
f 1138 1165 466
f 1138 1166 468
f 470 1168 472
f 1167 1168 470
f 472 1169 475
f 1168 1169 472
f 1171 1170 1169
f 1169 1170 475
f 1171 1380 1170
f 1170 1380 479
f 1380 1172 479
f 479 1172 480
f 1172 1173 480
f 480 1173 481
f 1173 1174 481
f 1175 1174 1173
f 1175 1176 1174
f 1175 1177 483
f 1177 1381 483
f 483 1381 486
f 486 1381 1139
f 489 1139 1140
f 486 1139 489
f 491 1140 1141
f 489 1140 491
f 1178 491 1141
f 493 491 1178
f 495 493 1142
f 1142 493 1178
f 495 1142 497
f 499 1385 1179
f 497 1385 499
f 499 1179 501
f 501 1179 1143
f 1180 501 1143
f 503 501 1180
f 1181 1182 1180
f 1180 1182 503
f 1183 1184 1181
f 1181 1184 1182
f 507 1183 1144
f 506 1183 507
f 1185 507 1144
f 513 511 1145
f 1145 1186 513
f 513 1186 515
f 1187 515 1186
f 517 515 1187
f 517 1388 519
f 1187 1388 517
f 1388 1389 519
f 519 1389 521
f 1389 1188 521
f 521 1188 522
f 1189 1190 1188
f 1188 1190 522
f 524 1189 526
f 1189 1191 526
f 526 1191 528
f 1191 1192 528
f 528 1192 529
f 1192 1193 529
f 529 1193 530
f 1193 1194 530
f 530 1194 532
f 534 1195 1146
f 1194 1195 532
f 532 1195 534
f 1146 1196 534
f 1147 1197 1196
f 1148 1198 1147
f 1147 1198 1197
f 1148 1199 1198
f 1214 542 1149
f 1357 1224 1201
f 1202 1225 1357
f 1202 569 1226
f 1203 576 1232
f 1235 1236 581
f 1238 584 582
f 1204 1242 1241
f 1204 591 1243
f 1207 612 610
f 1213 633 1212
f 1213 634 633
f 542 540 1149
f 542 1214 543
f 1214 1215 543
f 543 1215 545
f 1215 1216 545
f 545 1216 547
f 1216 1217 547
f 547 1217 549
f 1217 1218 549
f 549 1218 551
f 1218 1219 551
f 551 1219 553
f 1219 1220 553
f 553 1220 554
f 1221 556 1220
f 1220 556 554
f 558 556 1221
f 558 1221 559
f 559 1221 1355
f 560 559 1355
f 1355 1356 560
f 561 1356 1222
f 560 1356 561
f 563 1222 1200
f 561 1222 563
f 1223 1200 1201
f 1200 1223 563
f 1201 1224 1223
f 1357 1225 1224
f 1202 1226 1225
f 1227 569 1202
f 570 569 1227
f 572 570 1228
f 1228 570 1227
f 1228 1229 572
f 1230 1229 1228
f 1232 1231 1230
f 1230 1231 1229
f 1231 1232 576
f 576 1203 578
f 1203 1233 578
f 578 1233 579
f 1233 1360 579
f 1360 1234 579
f 581 1234 1360
f 1360 1235 581
f 1237 1236 1235
f 582 1236 1237
f 1237 1238 582
f 584 1240 1239
f 1238 1240 584
f 587 1239 1241
f 584 1239 587
f 1241 1242 587
f 1204 1243 1242
f 1204 1244 591
f 591 1244 592
f 1244 1245 592
f 592 1245 594
f 1246 594 1245
f 596 594 1246
f 597 596 1246
f 1246 1247 597
f 1247 1205 597
f 597 1205 598
f 1248 1249 1205
f 1205 1249 598
f 600 1249 1248
f 602 600 1364
f 1364 600 1248
f 1364 1250 602
f 602 1250 603
f 605 603 1206
f 1206 603 1250
f 607 1206 1251
f 605 1206 607
f 1207 607 1251
f 610 607 1207
f 1207 1252 612
f 1252 1253 612
f 612 1253 614
f 1253 1255 614
f 616 1255 1254
f 614 1255 616
f 1257 1254 1256
f 1254 1257 616
f 1256 618 1257
f 1208 618 1256
f 1208 1258 618
f 1208 1259 1258
f 1258 1259 621
f 1260 621 1259
f 623 621 1260
f 623 1260 625
f 625 1260 1261
f 626 1261 1209
f 625 1261 626
f 1262 1263 1209
f 1209 1263 626
f 1210 1264 1262
f 1262 1264 1263
f 630 1210 1211
f 1264 1210 630
f 1212 1265 1211
f 631 1265 1212
f 1211 1265 630
f 633 631 1212
f 1349 1326 1270
f 1271 1324 1349
f 1271 1272 1324
f 1271 1274 1272
f 1273 1274 1271
f 1273 1276 1274
f 1275 1276 1273
f 1275 1277 1276
f 1277 1279 1278
f 1279 1279 1278
f 1279 1280 1279
f 1280 1281 1279
f 1282 634 1213
f 634 1282 636
f 1283 1284 1282
f 1282 1284 636
f 1283 1285 1284
f 1286 1285 1283
f 1286 1287 1285
f 1287 1286 638
f 1286 1288 638
f 638 1288 640
f 1289 640 1288
f 1289 641 640
f 1289 1338 641
f 1338 1290 641
f 1292 1291 1338
f 1338 1291 1290
f 1292 644 1291
f 1293 644 1292
f 1293 646 644
f 1294 646 1293
f 646 1294 647
f 1295 647 1294
f 1295 649 647
f 1295 1297 649
f 1296 1297 1295
f 1296 1299 1297
f 1298 1299 1296
f 1298 651 1299
f 1298 1300 651
f 1300 1301 651
f 1301 1300 653
f 1302 653 1300
f 1303 1304 1302
f 1302 1304 653
f 1303 1305 1304
f 1307 1306 1303
f 1303 1306 1305
f 1306 1307 655
f 1308 655 1307
f 1308 804 655
f 1308 1309 804
f 1308 1310 1309
f 1310 1311 1309
f 1309 1311 805
f 805 1311 805
f 805 1311 1312
f 1310 1312 1311
f 1310 1313 1312
f 1314 1313 1310
f 1314 1316 1313
f 1316 1315 1317
f 1314 1315 1316
f 1318 1317 1315
f 1318 1331 1317
f 1267 1318 1266
f 1331 1318 1267
f 1266 1269 1267
f 1268 1269 1266
f 1268 1328 1269
f 1270 1328 1268
f 1326 1328 1270
f 1349 1324 1326
f 1278 1279 1281
f 1278 1281 1319
f 1277 1278 1319
f 1276 1277 1319
f 1276 1319 1321
f 1274 1276 1321
f 1281 656 804
f 656 1281 1322
f 1274 1321 1323
f 1272 1274 1323
f 1324 1323 1325
f 1324 1272 1323
f 1326 1324 1325
f 1326 1325 1327
f 1328 1326 1327
f 1328 1327 1329
f 1329 1269 1328
f 1269 1329 1330
f 1267 1269 1330
f 1331 1267 1330
f 1331 1330 1332
f 1317 1331 1332
f 1316 1332 1333
f 1316 1317 1332
f 1313 1316 1333
f 1312 1313 1333
f 1312 1333 1334
f 1335 1312 1334
f 1335 1309 805
f 1335 805 805
f 1335 805 1312
f 1334 1309 1335
f 1281 804 1309
f 1281 1309 1334
f 1319 1281 1334
f 1319 1334 1333
f 1321 1319 1333
f 1329 1332 1330
f 1323 1333 1332
f 1323 1321 1333
f 1325 1329 1327
f 1325 1323 1332
f 1325 1332 1329
f 1322 1277 1320
f 1322 1279 1277
f 1322 1280 1279
f 1322 1281 1280
f 1213 1336 1282
f 615 1282 613
f 613 1282 1336
f 1282 615 1283
f 615 1337 1283
f 1283 1337 1286
f 1337 617 1286
f 1286 619 1288
f 617 619 1286
f 619 620 1288
f 1288 620 1289
f 622 1289 620
f 622 1338 1289
f 622 624 1338
f 1338 624 1292
f 627 1292 624
f 1292 627 1293
f 1293 628 1294
f 627 628 1293
f 629 1294 628
f 1294 629 1295
f 629 1339 1295
f 1295 1339 1296
f 1339 1340 1296
f 1340 632 1296
f 1296 632 1298
f 632 1341 1298
f 1341 635 1298
f 1298 635 1300
f 1300 1342 1302
f 635 1342 1300
f 1302 1342 1303
f 1342 1343 1303
f 1303 637 1307
f 1343 637 1303
f 637 639 1307
f 1307 1344 1308
f 639 1344 1307
f 1344 1345 1308
f 1308 642 1310
f 1345 642 1308
f 642 643 1310
f 1310 643 1314
f 645 1314 643
f 1314 645 1315
f 1346 1315 645
f 1315 1346 1318
f 1346 648 1318
f 648 1347 1318
f 1318 1347 1266
f 1266 1347 1268
f 1347 1348 1268
f 1348 650 1268
f 1268 650 1270
f 650 652 1270
f 1270 652 1349
f 1350 1349 652
f 1349 1350 1271
f 1271 1351 1273
f 1350 1351 1271
f 654 1273 1351
f 1320 1275 654
f 654 1275 1273
f 1277 1275 1320
f 516 1149 514
f 518 1149 516
f 518 1214 1149
f 520 1214 518
f 539 1201 538
f 539 1357 1201
f 541 1202 1357
f 555 1232 552
f 555 1203 1232
f 567 1204 1241
f 585 1251 583
f 593 1254 590
f 1367 1256 593
f 608 1211 606
f 609 1212 608
f 609 1213 1212
f 1336 1213 611
f 1214 520 1215
f 520 523 1215
f 1215 523 1216
f 1216 1352 1217
f 523 1352 1216
f 1217 1352 1353
f 1218 1353 525
f 1217 1353 1218
f 1218 527 1219
f 525 527 1218
f 1219 1354 1220
f 527 1354 1219
f 1354 531 1220
f 1220 531 1221
f 531 533 1221
f 1221 533 1355
f 535 1355 533
f 536 1356 535
f 1222 1356 536
f 535 1356 1355
f 536 537 1222
f 1222 537 1200
f 537 538 1200
f 1200 538 1201
f 541 1357 539
f 1358 1202 541
f 1202 1358 1227
f 1227 1358 544
f 1227 546 1228
f 544 546 1227
f 546 548 1228
f 1228 548 1230
f 548 550 1230
f 1230 550 1232
f 550 552 1232
f 555 1359 1203
f 1203 1359 1233
f 1233 1359 557
f 1361 1360 557
f 557 1360 1233
f 1235 1361 1362
f 1360 1361 1235
f 1237 1362 562
f 1235 1362 1237
f 1238 562 564
f 1237 562 1238
f 1239 1240 565
f 565 1240 564
f 564 1240 1238
f 1239 566 1241
f 565 566 1239
f 567 1241 566
f 567 1363 1204
f 1363 568 1204
f 1204 568 1244
f 568 571 1244
f 1244 571 1245
f 1245 573 1246
f 571 573 1245
f 573 574 1246
f 574 575 1246
f 1246 575 1247
f 575 577 1247
f 1247 577 1205
f 1205 580 1248
f 577 580 1205
f 1365 1364 580
f 580 1364 1248
f 1250 1365 1366
f 1364 1365 1250
f 1206 1366 583
f 1250 1366 1206
f 1206 583 1251
f 1207 1251 585
f 586 1207 585
f 1207 588 1252
f 586 588 1207
f 1252 589 1253
f 588 589 1252
f 590 1255 589
f 589 1255 1253
f 1254 1255 590
f 1256 1254 593
f 1208 1367 595
f 1256 1367 1208
f 1208 595 1368
f 1259 1368 1369
f 1208 1368 1259
f 1260 1369 1370
f 1259 1369 1260
f 1261 1370 599
f 1260 1370 1261
f 601 1261 599
f 1209 1261 601
f 601 1371 1209
f 1209 1371 1262
f 1371 604 1262
f 1262 604 1210
f 604 606 1210
f 1210 606 1211
f 1212 1211 608
f 609 611 1213
f 410 1153 406
f 1372 1155 412
f 418 1156 1372
f 420 1156 418
f 446 1138 444
f 444 1138 1164
f 1377 1166 447
f 1377 1167 1166
f 454 1171 452
f 455 1380 454
f 461 1175 459
f 471 1385 1142
f 476 1143 474
f 477 1180 476
f 484 1185 482
f 484 1145 1185
f 487 1186 485
f 488 1187 487
f 508 1147 1146
f 1391 1148 512
f 514 1149 1148
f 1072 399 1137
f 397 399 1072
f 401 1150 399
f 399 1150 1137
f 403 1150 401
f 1151 1150 403
f 406 1151 403
f 1152 1151 406
f 1153 1152 406
f 1153 410 1154
f 410 412 1154
f 1154 412 1155
f 1155 1372 1156
f 423 1373 420
f 420 1373 1156
f 425 1374 423
f 423 1374 1373
f 429 1158 425
f 425 1158 1374
f 429 431 1158
f 1158 431 1159
f 431 435 1159
f 1159 435 1160
f 1160 1375 1161
f 435 1375 1160
f 1161 1375 439
f 1161 439 1162
f 1162 439 1376
f 1162 1376 1164
f 1164 1376 442
f 442 444 1164
f 446 447 1138
f 1138 447 1166
f 1167 1377 1378
f 1168 1378 1379
f 1167 1378 1168
f 1169 1379 452
f 1168 1379 1169
f 1169 452 1171
f 454 1380 1171
f 1380 455 1172
f 455 457 1172
f 1172 457 1173
f 457 459 1173
f 1173 459 1175
f 1175 464 1177
f 461 464 1175
f 1382 1381 464
f 1139 1381 1382
f 464 1381 1177
f 1140 1382 1383
f 1139 1382 1140
f 1140 1383 1141
f 1141 1383 1384
f 1178 1384 467
f 1141 1384 1178
f 1178 469 1142
f 467 469 1178
f 469 471 1142
f 473 1385 471
f 1179 1385 473
f 473 474 1179
f 1179 474 1143
f 1180 1143 476
f 1181 1180 477
f 477 478 1181
f 1181 478 1183
f 1144 1386 1387
f 1183 1386 1144
f 478 1386 1183
f 1185 1387 482
f 1144 1387 1185
f 484 485 1145
f 1145 485 1186
f 1186 487 1187
f 490 1388 488
f 488 1388 1187
f 490 492 1388
f 492 1389 1388
f 492 494 1389
f 1389 494 1188
f 494 496 1188
f 1188 496 1189
f 496 498 1189
f 498 500 1189
f 1189 500 1191
f 500 502 1191
f 1191 502 1192
f 502 504 1192
f 1192 504 1193
f 504 505 1193
f 1193 505 1194
f 505 1390 1194
f 1194 1390 1195
f 1195 1390 1146
f 1390 508 1146
f 508 510 1147
f 510 512 1147
f 1147 512 1148
f 1148 1391 514
f 286 1075 1394
f 294 1079 292
f 295 1080 294
f 300 1082 298
f 302 1398 300
f 308 1085 305
f 310 1085 308
f 314 1400 312
f 320 1090 318
f 324 1091 322
f 325 1404 324
f 1406 1405 325
f 1408 1093 329
f 1410 1098 334
f 339 1101 337
f 1415 1103 343
f 357 1051 1052
f 359 1051 357
f 365 1055 364
f 365 1054 1055
f 370 1057 369
f 370 1056 1057
f 372 1056 370
f 374 1059 373
f 374 1058 1059
f 376 1058 374
f 378 1060 377
f 378 1061 1060
f 379 1061 378
f 382 1126 381
f 384 1062 1063
f 385 1062 384
f 385 1064 1062
f 388 1129 387
f 388 1065 1129
f 390 1066 1131
f 390 1067 1066
f 391 1067 390
f 391 1068 1067
f 392 1069 391
f 391 1069 1068
f 395 1135 394
f 395 1071 1135
f 395 1072 1071
f 397 1072 395
f 995 281 1073
f 279 281 995
f 1074 1392 1393
f 1073 1392 1074
f 281 1392 1073
f 1049 1393 1394
f 1074 1393 1049
f 1049 1394 1075
f 288 1395 286
f 286 1395 1075
f 289 1396 288
f 288 1396 1395
f 289 290 1396
f 1396 290 1078
f 1078 292 1079
f 290 292 1078
f 1079 294 1080
f 295 1397 1080
f 1080 1397 1081
f 1397 298 1081
f 1081 298 1082
f 300 1398 1082
f 302 1083 1398
f 1083 304 1084
f 302 304 1083
f 1084 305 1085
f 304 305 1084
f 310 1399 1085
f 312 1400 310
f 310 1400 1399
f 1400 314 1088
f 315 1401 314
f 314 1401 1088
f 318 1402 315
f 315 1402 1401
f 1402 318 1090
f 320 1403 1090
f 320 322 1403
f 1403 322 1091
f 324 1404 1091
f 325 1405 1404
f 329 1407 1406
f 1406 1407 1405
f 1407 329 1093
f 1093 1408 1094
f 1094 1409 1096
f 1408 1409 1094
f 1096 1409 332
f 334 1096 332
f 1098 1096 334
f 1101 1410 337
f 1098 1410 1100
f 1100 1410 1101
f 339 1411 1101
f 339 1412 1411
f 1102 1412 340
f 1411 1412 1102
f 343 1413 340
f 340 1413 1102
f 1414 1413 343
f 1103 1414 343
f 1104 1415 345
f 1103 1415 1104
f 1104 1416 346
f 345 1416 1104
f 1106 346 348
f 1104 346 1106
f 348 350 1106
f 352 1107 350
f 350 1107 1106
f 1418 1417 352
f 352 1417 1107
f 1108 1417 1418
f 1107 1417 1108
f 1108 1419 1420
f 1420 1419 1418
f 1418 1419 1108
f 1108 1421 1050
f 1420 1421 1108
f 1050 1421 355
f 355 1421 1420
f 356 1422 355
f 1050 1422 1113
f 355 1422 1050
f 1113 1422 356
f 357 1423 356
f 356 1423 1113
f 1113 1423 1052
f 1052 1423 357
f 361 1424 359
f 359 1424 1051
f 1051 1424 361
f 363 1425 361
f 1053 1425 363
f 1051 1425 1053
f 361 1425 1051
f 1055 1426 364
f 363 1426 1053
f 364 1426 363
f 1053 1426 1055
f 367 1427 365
f 1054 1427 1119
f 365 1427 1054
f 1119 1427 367
f 369 1428 367
f 367 1428 1119
f 1119 1428 1057
f 1057 1428 369
f 373 1429 372
f 1059 1429 373
f 1056 1429 1123
f 1123 1429 1059
f 372 1429 1056
f 377 1430 376
f 376 1430 1058
f 1058 1430 1124
f 1124 1430 1060
f 1060 1430 377
f 381 1431 379
f 1061 1431 1126
f 379 1431 1061
f 1126 1431 381
f 384 1432 382
f 1063 1432 384
f 1126 1432 1063
f 382 1432 1126
f 385 1433 1064
f 387 1433 385
f 1129 1433 387
f 1064 1433 1129
f 390 1434 388
f 388 1434 1065
f 1065 1434 1131
f 1131 1434 390
f 392 1435 1069
f 394 1435 392
f 1069 1435 1070
f 1133 1436 1135
f 394 1436 1435
f 1435 1436 1070
f 1135 1436 394
f 1070 1436 1133
f 191 897 189
f 1437 996 191
f 201 1004 199
f 207 1007 205
f 1441 983 1012
f 1453 1026 232
f 1454 1029 1027
f 237 986 1029
f 238 986 237
f 238 987 986
f 239 988 1030
f 241 988 1455
f 1457 991 990
f 1460 1040 260
f 266 992 1042
f 1465 994 993
f 278 1048 276
f 279 995 278
f 897 191 996
f 997 1437 194
f 996 1437 997
f 997 194 1438
f 997 1438 1000
f 1000 1438 1439
f 1002 1439 1440
f 1000 1439 1002
f 1003 1440 199
f 1002 1440 1003
f 1003 199 1004
f 203 1004 201
f 1005 1004 203
f 205 1005 203
f 1005 205 1007
f 1007 207 1009
f 207 209 1009
f 1009 209 1010
f 209 210 1010
f 1010 210 1011
f 210 1441 1011
f 1011 1441 1012
f 1441 1442 983
f 1442 1443 983
f 983 1443 1013
f 1013 1443 1444
f 1013 1444 1014
f 1014 1444 1445
f 1014 1445 1015
f 1015 1445 1446
f 1016 1446 1447
f 1015 1446 1016
f 1016 1447 984
f 984 1447 216
f 216 218 984
f 218 220 984
f 984 220 1020
f 220 223 1020
f 1020 223 1021
f 223 224 1021
f 1021 224 1022
f 224 1448 1022
f 1023 1448 1449
f 1022 1448 1023
f 985 1449 226
f 1023 1449 985
f 226 228 985
f 1451 1450 228
f 228 1450 985
f 1024 1451 1452
f 1450 1451 1024
f 1025 1452 232
f 1024 1452 1025
f 1025 232 1026
f 1027 1453 1454
f 1026 1453 1027
f 1029 1454 237
f 238 239 987
f 987 239 1030
f 239 1455 988
f 989 241 243
f 988 241 989
f 1033 989 243
f 243 246 1033
f 1033 246 1034
f 246 247 1034
f 990 247 1456
f 1034 247 990
f 990 1456 1457
f 991 1457 1458
f 1035 1458 1459
f 991 1458 1035
f 254 1035 1459
f 1037 1035 254
f 254 256 1037
f 1037 258 1038
f 256 258 1037
f 258 259 1038
f 1038 259 1039
f 259 260 1039
f 1039 260 1040
f 1041 1460 264
f 1040 1460 1041
f 1042 264 265
f 1041 264 1042
f 265 266 1042
f 266 267 992
f 267 1461 992
f 1044 1461 1462
f 992 1461 1044
f 1044 1462 1045
f 1045 1462 1463
f 1046 1463 1464
f 1045 1463 1046
f 993 1464 273
f 1046 1464 993
f 1465 993 273
f 994 1465 276
f 994 276 1048
f 995 1048 278
