# Render LOD; unchanged CAD body-local coordinates in mm
v -62.4905908 104.8352771 143.0750065
v -63.1406092 104.8352771 142.4249935
v -62.4905908 104.8352771 142.4249935
v -63.1406092 104.8350084 143.3745854
v -62.4859915 104.8352771 143.3816599
v -61.8656000 104.8352771 143.0750065
v -61.8656000 104.8352771 143.4750065
v -62.3989179 104.8362947 143.4664224
v -63.1406092 104.1582129 143.9749805
v -63.1406092 104.1541861 143.8986097
v -63.1406092 104.6602866 143.9749805
v -63.1406092 104.0714542 143.8073836
v -63.1406092 104.7402326 143.3896982
v -63.1406092 104.7528546 142.4216777
v -63.1406092 103.9509136 143.1435872
v -63.1406092 103.8141288 143.8118821
v -63.1406092 104.6673699 143.4696002
v -63.1406092 103.8538026 143.2205647
v -63.1406092 104.7025792 142.3795218
v -63.1406092 104.8861858 142.0009454
v -63.1406092 105.4103256 141.4249935
v -63.1406092 105.4852550 141.9999870
v -63.1406092 105.4852550 141.4249935
v -63.1406092 103.1888771 143.2287792
v -63.1406092 103.7847572 143.8995947
v -63.1406092 102.9364785 143.3665930
v -63.1406092 105.4011565 140.9008734
v -63.1406092 102.6672670 143.4231507
v -63.1406092 105.2863021 140.7834740
v -63.1406092 103.9603248 141.6249935
v -63.1406092 104.7432305 142.0761366
v -63.1406092 104.8138687 142.0231777
v -63.1406092 104.7004981 142.1728430
v -63.1406092 103.9565085 141.5916342
v -63.1406092 104.4883159 140.8615147
v -63.1406092 104.8446782 142.0104150
v -63.1406092 104.4253526 140.9101297
v -63.1406092 104.3937054 140.9212322
v -63.1406092 101.3855787 143.8996727
v -63.1406092 102.3611411 143.4067969
v -63.1406092 104.3602897 140.9250195
v -63.1406092 103.9395636 141.5472653
v -63.1406092 103.8673669 141.4813588
v -63.1406092 104.5103347 140.7749805
v -63.1406092 101.9759422 143.2291225
v -63.1406092 101.3608063 143.8137847
v -63.1406092 103.1875519 141.4734041
v -63.1406092 101.0991458 143.8073836
v -63.1406092 101.3203789 143.2210972
v -63.1406092 100.5103134 143.9749805
v -63.1406092 101.0123871 143.9749805
v -63.1406092 102.9189609 141.3271509
v -63.1406092 103.8043665 140.9105591
v -63.1406092 103.7853343 140.7999870
v -63.1406092 100.5047727 143.4724115
v -63.1406092 101.0184740 143.8947942
v -63.1406092 102.5523370 141.2691399
v -63.1406092 101.2210692 143.1485595
v -63.1406092 100.4705146 142.3679310
v -63.1406092 100.4303674 143.3896982
v -63.1406092 100.4296160 142.4185359
v -63.1406092 100.3355916 143.3745854
v -63.1406092 101.2102752 141.6249935
v -63.1406092 100.3353229 142.4249935
v -63.1406092 100.4679955 142.1576122
v -63.1406092 100.4147163 142.0641259
v -63.1406092 100.3567313 142.0231777
v -63.1406092 101.2140915 141.5916342
v -63.1406092 101.3167974 141.4794353
v -63.1406092 101.9825640 141.4744829
v -63.1406092 101.3859152 140.8007574
v -63.1406092 102.2140669 141.3426568
v -63.1406092 101.3588452 140.9138735
v -63.1406092 101.2385140 141.5334386
v -63.1406092 100.8103103 140.9250195
v -63.1406092 100.7768946 140.9212322
v -63.1406092 100.3259218 142.0104150
v -63.1406092 100.7452474 140.9101297
v -63.1406092 99.7602744 141.4249935
v -63.1406092 99.6853450 141.9999870
v -63.1406092 100.2844142 142.0009454
v -63.1406092 99.6853450 141.4249935
v -63.1406092 100.6822841 140.8615147
v -63.1406092 100.6602653 140.7749805
v -63.1406092 99.7706503 140.8957964
v -63.1406092 99.8863244 140.7840987
v -63.2906000 103.1880360 141.4744829
v -63.2906000 103.8502211 141.4789028
v -63.2906000 105.4092114 140.9497664
v -63.2906000 105.3741424 140.8539799
v -63.2906000 105.2677524 140.7806234
v -63.2906000 105.4103256 141.4249935
v -63.2906000 104.5155469 140.7787910
v -63.2906000 104.4689959 140.8795997
v -63.2825577 105.5451686 141.4249935
v -63.2906000 104.9102996 141.9999870
v -63.2906000 104.8770700 142.0026329
v -63.2906000 104.4253526 140.9101297
v -63.2906000 104.8446782 142.0104150
v -63.2906000 104.3937054 140.9212322
v -63.2906000 104.8138687 142.0231777
v -63.2906000 103.9266861 141.5266662
v -63.2906000 104.3602897 140.9250195
v -63.2906000 103.7996965 140.9058782
v -63.2906000 103.9565085 141.5916342
v -63.2906000 103.9603248 141.6249935
v -63.2906000 104.7021419 142.1560501
v -63.2906000 104.7619162 142.0580949
v -63.2906000 103.7853343 140.7999870
v -63.2906000 102.9338556 141.3325319
v -63.2913965 104.7923783 142.4255572
v -63.2917674 104.7461430 143.3814853
v -63.2906000 104.7114951 142.4003790
v -63.2906000 103.9472658 143.1513031
v -63.2906000 104.6636748 143.4840467
v -63.2908718 101.3858083 140.8365683
v -63.2906000 102.5930740 141.2701647
v -63.2906000 102.2516391 141.3271509
v -63.2906000 101.3564712 140.9131244
v -63.2906000 101.9830481 141.4734041
v -63.2906000 104.1531363 143.8987815
v -63.2906000 104.6602866 143.9749805
v -63.2906000 103.8475036 143.2221231
v -63.2906000 104.0784052 143.8102679
v -63.2906000 104.1582129 143.9749805
v -63.2906000 103.1872664 143.2297922
v -63.2906000 103.8117548 143.8111330
v -63.2906000 101.3230964 141.4778769
v -63.2906000 103.0376152 143.3172096
v -63.2906000 103.7853343 143.8799870
v -63.2906000 100.8103103 140.9250195
v -63.2906000 101.2439139 141.5266662
v -63.2906000 102.9738626 143.3463943
v -63.2906000 103.7853343 143.9000130
v -63.2906000 101.2140915 141.5916342
v -63.2906000 100.7768946 140.9212322
v -63.2906000 102.8500340 143.3909275
v -63.2906000 102.5852976 143.4294520
v -63.2906000 99.9178389 140.7776854
v -63.2906000 100.6586532 140.7762005
v -63.2906000 99.8270424 140.8232887
v -63.2906000 99.7646975 140.9205092
v -63.2906000 101.9833336 143.2297922
v -63.2906000 101.2102752 141.6249935
v -63.2906000 100.4086838 142.0580949
v -63.2906000 99.7602744 141.4249935
v -63.2906000 100.6885367 140.8666012
v -63.2906000 100.4684581 142.1560501
v -63.2906000 100.3567313 142.0231777
v -63.2906000 100.3259218 142.0104150
v -63.2906000 100.7452474 140.9101297
v -63.2906000 100.2851225 142.0013031
v -63.2906000 100.4610132 142.3960253
v -63.2842093 99.6281297 141.9999870
v -63.2908824 101.3815881 143.8442513
v -63.2906000 101.3193627 143.2216668
v -63.2906000 101.3260212 143.8020678
v -63.2906000 102.2490614 143.3720303
v -63.2906000 101.2217914 143.1463933
v -63.2906000 100.4518202 143.4031848
v -63.2906000 100.5057946 143.4814085
v -63.2906000 101.0921948 143.8102679
v -63.2910655 100.3113798 143.3717165
v -63.2906000 100.5103134 143.9749805
v -63.2906000 101.0123871 143.9749805
v -63.2906000 101.0156376 143.9025054
v -63.1739864 104.9815058 142.4249935
v -63.1406092 104.9853221 142.4249935
v -63.2056893 104.9704293 142.4249935
v -63.2341306 104.9525580 142.4249935
v -63.2578751 104.9288225 142.4249935
v -63.2757488 104.9003401 142.4249935
v -63.2868383 104.8686928 142.4249935
v -62.4905908 104.9853221 142.4249935
v -62.4905908 104.9853221 143.0750065
v -61.8656000 104.9853221 143.0750065
v -61.8656003 104.9787015 143.4728267
v -61.8656000 104.6079757 143.9408949
v -61.8656000 104.4927426 143.8980415
v -62.4928847 104.9853224 143.3794984
v -63.1406092 104.9853221 143.3749805
v -62.3997008 104.9835314 143.4630516
v -62.3991786 104.4927426 143.8980415
v -62.3991786 104.6079757 143.9408949
v -63.1739864 104.9815058 143.3749805
v -63.2868383 104.8686928 143.3749805
v -63.2757488 104.9003401 143.3749805
v -63.2056893 104.9704293 143.3749805
v -63.2341306 104.9525580 143.3749805
v -63.2578751 104.9288225 143.3749805
v -63.1406092 103.7853343 144.0500000
v -62.6379950 103.7797873 143.9000130
v -63.1739864 103.7853343 144.0462646
v -63.2868383 103.7853343 143.9333722
v -63.2056893 103.7853343 144.0351621
v -63.2757488 103.7853343 143.9650713
v -63.2341306 103.7853343 144.0172633
v -63.2578751 103.7853343 143.9935019
v -62.5486513 103.6951585 143.9000130
v -62.5499418 101.4667691 143.9000130
v -62.6496601 101.3886530 143.9000130
v -63.2868383 101.3852657 143.9333722
v -63.2757488 101.3852657 143.9650713
v -63.2578751 101.3852657 143.9935019
v -63.2341306 101.3852657 144.0172633
v -63.2056893 101.3852657 144.0351621
v -63.1739864 101.3852657 144.0462646
v -63.1406092 101.3852657 144.0500000
v -63.2341306 100.2180420 143.3749805
v -63.2056893 100.2001707 143.3749805
v -63.1739864 100.1890942 143.3749805
v -63.1406092 100.1852779 143.3749805
v -63.2578751 100.2417775 143.3749805
v -63.1406092 100.1852779 142.4249935
v -62.4905908 100.1852779 142.4249935
v -62.4905908 100.1852779 143.0750065
v -62.4677303 100.1842855 143.3860728
v -61.8656000 100.1852779 143.0750065
v -61.8656000 100.3353229 143.0750065
v -61.8656000 100.3353229 143.4750065
v -61.8656000 100.2186936 143.5163035
v -61.8656000 100.2004499 143.4876135
v -61.8656000 100.1869091 143.4464702
v -61.8656000 100.5626243 143.9408949
v -61.8656000 100.6778574 143.8980415
v -62.3991786 100.5626243 143.9408949
v -62.3991786 100.2014738 143.4895850
v -62.3991786 100.3353229 143.4750065
v -62.3991786 100.2124784 143.5082705
v -62.3991786 100.6778574 143.8980415
v -62.4187184 100.3353097 143.4358355
v -62.4859915 100.3353229 143.3816599
v -62.4905908 100.3353229 143.0750065
v -62.4905908 100.3353229 142.4249935
v -63.2887950 100.2931662 142.4281913
v -63.2341306 100.2180420 142.4249935
v -63.2056893 100.2001707 142.4249935
v -63.1739864 100.1890942 142.4249935
v -61.8656000 99.5353000 141.9999870
v -61.8656000 99.6853450 141.9999870
v -63.1930608 99.5407485 141.9999870
v -62.4985996 99.5353012 141.4214952
v -63.2003024 99.5432843 141.4249935
v -61.8655985 99.5404308 141.2786084
v -62.4133069 99.5343694 141.3594957
v -62.4687440 99.6853476 141.4135155
v -62.3883611 99.6829992 141.2893283
v -62.3901291 99.5520744 141.2617363
v -62.3905897 99.9195344 140.8629183
v -62.3905897 100.0100082 140.9268353
v -61.8656000 99.9195344 140.8629183
v -61.8656000 99.6853450 141.2750065
v -61.8656000 100.0100082 140.9268353
v -63.2835745 99.6298923 141.4249935
v -63.1739864 101.3852657 140.6537354
v -63.1406092 101.3852657 140.6500000
v -63.2056893 101.3852657 140.6648379
v -63.2341306 101.3852657 140.6827367
v -63.2578751 101.3852657 140.7064981
v -63.2757488 101.3852657 140.7349287
v -63.2868383 101.3852657 140.7666278
v -62.6351801 101.3923571 140.7999870
v -62.6306952 103.7772168 140.7999870
v -62.5476239 103.6906570 140.7999870
v -62.5469968 101.4781475 140.7999870
v -62.6379950 103.7797873 140.6500000
v -63.1406092 103.7853343 140.6500000
v -63.2056893 103.7853343 140.6648379
v -63.2341306 103.7853343 140.6827367
v -63.1739864 103.7853343 140.6537354
v -63.2578751 103.7853343 140.7064981
v -63.2757488 103.7853343 140.7349287
v -63.2868383 103.7853343 140.7666278
v -63.1958083 105.6283405 141.4249935
v -62.3912838 105.6366614 141.3110450
v -62.4820642 105.6352983 141.4183235
v -61.8656000 105.6353000 141.9999870
v -63.1976207 105.6289570 141.9999870
v -61.8656000 105.5949963 141.2317899
v -61.8656000 105.4852550 141.2750065
v -61.8656000 105.2510656 140.8629183
v -61.8656000 105.1605918 140.9268353
v -61.8655985 105.6318916 141.2883606
v -61.8656000 105.4852550 141.9999870
v -62.3905897 105.5949963 141.2317899
v -62.3905897 105.2510656 140.8629183
v -62.3905897 105.1605918 140.9268353
v -62.3905897 105.4852550 141.2750065
v -62.4100550 105.4852721 141.3587778
v -62.5005340 105.4852539 141.4211088
v -63.2850985 105.5379359 141.9999870
v -62.5469968 103.6924525 140.6500000
v -62.5476239 101.4799430 140.6500000
v -62.6334333 101.3917106 140.6500000
v -62.5460986 103.6878793 144.0500000
v -62.6306952 103.7772168 144.0500000
v -62.6351801 101.3923571 144.0500000
v -62.5486513 101.4754415 144.0500000
f 1 2 3
f 1 4 2
f 5 4 1
f 8 5 1
f 6 8 1
f 7 8 6
f 9 10 11
f 11 10 17
f 10 12 17
f 13 14 4
f 4 14 2
f 12 15 17
f 12 18 15
f 16 18 12
f 14 15 19
f 17 15 13
f 13 15 14
f 20 21 22
f 22 21 23
f 16 24 18
f 25 26 16
f 16 26 24
f 25 28 26
f 21 29 27
f 15 30 19
f 19 30 33
f 31 30 32
f 33 30 31
f 30 34 32
f 21 35 29
f 20 35 21
f 36 37 20
f 20 37 35
f 32 38 36
f 34 38 32
f 36 38 37
f 25 39 28
f 28 39 40
f 34 41 38
f 42 41 34
f 43 41 42
f 35 44 29
f 40 39 45
f 39 46 45
f 43 53 41
f 43 47 53
f 46 49 45
f 48 49 46
f 51 50 56
f 48 58 49
f 47 52 53
f 53 52 54
f 56 55 48
f 50 55 56
f 52 57 54
f 48 55 58
f 55 60 58
f 61 59 58
f 60 61 58
f 62 61 60
f 58 59 63
f 62 64 61
f 59 65 63
f 65 66 63
f 66 67 63
f 63 67 68
f 69 73 70
f 70 73 72
f 73 71 72
f 74 73 69
f 72 71 57
f 57 71 54
f 74 75 73
f 68 75 74
f 67 76 68
f 68 76 75
f 77 76 67
f 77 78 76
f 81 78 77
f 81 83 78
f 81 79 83
f 80 79 81
f 80 82 79
f 83 86 84
f 79 86 83
f 85 86 79
f 87 47 43
f 87 43 88
f 91 89 90
f 92 89 91
f 94 92 91
f 94 91 93
f 291 95 92
f 96 291 92
f 97 94 98
f 97 92 94
f 97 96 92
f 99 98 100
f 99 97 98
f 101 99 100
f 102 103 104
f 88 102 104
f 105 103 102
f 105 100 103
f 105 101 100
f 106 107 108
f 106 108 101
f 106 113 107
f 106 101 105
f 87 88 104
f 110 87 104
f 110 104 109
f 117 110 109
f 112 111 113
f 114 113 106
f 114 112 113
f 114 115 112
f 116 117 109
f 116 118 117
f 119 118 116
f 119 120 118
f 121 115 124
f 124 115 114
f 121 122 115
f 124 114 123
f 125 122 121
f 127 124 123
f 127 123 126
f 128 120 119
f 129 130 127
f 129 127 126
f 132 119 131
f 132 128 119
f 133 134 130
f 133 130 129
f 135 131 136
f 135 132 131
f 137 134 133
f 138 134 137
f 139 147 140
f 142 139 141
f 146 139 142
f 146 147 139
f 148 144 145
f 149 144 135
f 149 145 144
f 149 135 136
f 150 136 151
f 150 149 136
f 152 151 147
f 152 147 146
f 152 150 151
f 153 144 148
f 153 159 144
f 154 146 254
f 154 152 146
f 155 143 156
f 155 158 143
f 157 155 156
f 155 134 138
f 155 138 158
f 162 157 156
f 162 156 159
f 161 159 160
f 160 159 153
f 161 162 159
f 163 160 153
f 163 153 235
f 161 166 162
f 164 166 161
f 164 165 166
f 69 132 74
f 128 132 69
f 74 135 68
f 132 135 74
f 68 144 63
f 135 144 68
f 70 128 69
f 120 128 70
f 47 110 52
f 87 110 47
f 52 117 57
f 110 117 52
f 117 118 57
f 57 118 72
f 72 120 70
f 118 120 72
f 144 159 58
f 144 58 63
f 58 156 49
f 159 156 58
f 156 143 45
f 156 45 49
f 143 158 45
f 45 158 40
f 158 138 40
f 40 138 28
f 138 137 28
f 28 137 26
f 137 133 26
f 133 129 26
f 129 126 26
f 26 126 24
f 24 123 18
f 126 123 24
f 18 114 15
f 123 114 18
f 15 106 30
f 114 106 15
f 30 106 34
f 34 105 42
f 106 105 34
f 105 102 42
f 42 102 43
f 102 88 43
f 113 19 107
f 19 33 107
f 19 113 14
f 113 111 14
f 2 167 168
f 2 169 167
f 2 170 169
f 2 171 170
f 2 172 171
f 2 173 172
f 2 111 173
f 14 111 2
f 174 2 168
f 3 2 174
f 175 1 174
f 174 1 3
f 6 1 176
f 176 1 175
f 177 7 6
f 177 6 176
f 178 179 7
f 178 7 177
f 182 177 176
f 175 180 182
f 175 182 176
f 181 180 175
f 168 175 174
f 168 181 175
f 8 182 5
f 182 180 5
f 183 184 8
f 8 184 182
f 182 184 178
f 182 178 177
f 183 179 178
f 184 183 178
f 179 8 7
f 183 8 179
f 4 5 180
f 181 4 180
f 185 4 181
f 186 112 4
f 187 186 4
f 188 4 185
f 189 4 188
f 190 187 4
f 190 4 189
f 115 17 112
f 17 13 112
f 13 4 112
f 122 11 115
f 115 11 17
f 125 9 122
f 122 9 11
f 9 125 10
f 10 125 121
f 124 10 121
f 12 10 124
f 127 16 12
f 127 12 124
f 130 25 127
f 25 16 127
f 191 296 192
f 191 192 25
f 134 25 130
f 193 191 25
f 194 25 134
f 195 193 25
f 196 25 194
f 197 195 25
f 198 25 196
f 198 197 25
f 199 25 192
f 199 200 25
f 200 39 25
f 201 39 200
f 39 202 155
f 39 203 202
f 39 204 203
f 205 204 39
f 206 205 39
f 207 206 39
f 208 207 39
f 201 208 39
f 297 208 201
f 157 46 155
f 46 39 155
f 157 48 46
f 162 48 157
f 166 56 162
f 56 48 162
f 165 51 166
f 166 51 56
f 165 50 51
f 164 50 165
f 50 164 55
f 55 164 161
f 163 60 160
f 62 60 163
f 160 55 161
f 60 55 160
f 62 217 232
f 62 209 210
f 62 210 211
f 62 211 212
f 62 212 217
f 213 209 62
f 163 213 62
f 214 215 216
f 217 216 218
f 217 218 223
f 212 214 216
f 212 216 217
f 223 218 219
f 220 221 222
f 220 222 223
f 220 223 219
f 224 221 220
f 225 224 220
f 224 229 221
f 226 229 224
f 227 228 227
f 229 228 227
f 229 226 228
f 226 230 228
f 228 231 227
f 227 231 217
f 231 232 217
f 233 234 64
f 231 219 233
f 232 231 233
f 231 220 219
f 228 220 231
f 62 233 64
f 62 232 233
f 64 235 61
f 236 235 64
f 237 236 64
f 238 237 64
f 214 238 64
f 234 214 64
f 215 214 234
f 235 153 61
f 61 153 59
f 65 59 148
f 148 59 153
f 65 148 66
f 148 145 66
f 66 145 67
f 67 149 77
f 145 149 67
f 77 150 81
f 149 150 77
f 150 152 81
f 80 239 240
f 80 241 239
f 154 241 80
f 81 154 80
f 152 154 81
f 242 241 243
f 239 242 245
f 239 241 242
f 239 245 244
f 242 246 245
f 246 247 245
f 247 248 245
f 248 247 249
f 249 247 250
f 249 251 244
f 248 249 244
f 252 244 251
f 252 251 253
f 240 239 244
f 240 244 252
f 80 246 82
f 246 252 247
f 80 240 246
f 246 240 252
f 247 252 253
f 250 247 253
f 250 253 251
f 249 250 251
f 82 254 146
f 82 146 79
f 243 254 82
f 242 82 246
f 242 243 82
f 79 142 85
f 146 142 79
f 85 142 141
f 86 85 141
f 86 141 139
f 139 140 84
f 86 139 84
f 75 76 131
f 131 76 136
f 136 78 151
f 76 78 136
f 151 83 147
f 78 83 151
f 147 83 140
f 83 84 140
f 131 73 75
f 131 119 73
f 71 73 116
f 116 73 119
f 71 255 256
f 71 257 255
f 71 258 257
f 71 259 258
f 71 260 259
f 71 261 260
f 71 116 261
f 294 71 256
f 262 71 294
f 54 264 263
f 71 265 54
f 54 265 264
f 71 262 265
f 54 263 266
f 54 266 267
f 54 268 269
f 54 270 268
f 54 267 270
f 271 54 269
f 272 54 271
f 273 54 272
f 109 54 273
f 104 53 54
f 104 54 109
f 53 103 41
f 104 103 53
f 44 35 93
f 93 35 94
f 94 35 98
f 98 37 100
f 35 37 98
f 100 38 103
f 37 38 100
f 38 41 103
f 93 91 29
f 44 93 29
f 29 91 90
f 27 29 90
f 27 90 89
f 89 92 21
f 89 21 27
f 23 95 274
f 21 92 95
f 21 95 23
f 276 23 274
f 290 23 276
f 276 283 275
f 277 283 276
f 278 276 274
f 278 277 276
f 279 280 281
f 281 280 282
f 283 280 279
f 277 284 283
f 283 284 280
f 285 279 281
f 286 285 281
f 287 288 286
f 288 285 286
f 288 285 285
f 288 275 285
f 288 289 275
f 275 289 276
f 289 290 276
f 280 289 288
f 280 284 289
f 284 290 289
f 290 22 23
f 284 22 290
f 288 287 282
f 288 282 280
f 287 286 281
f 287 281 282
f 22 284 277
f 291 96 20
f 291 20 22
f 278 22 277
f 278 291 22
f 278 274 95
f 291 278 95
f 96 97 20
f 20 99 36
f 97 99 20
f 36 101 32
f 99 101 36
f 32 108 31
f 101 108 32
f 108 107 31
f 31 107 33
f 279 285 285
f 283 285 275
f 283 279 285
f 270 267 256
f 270 256 255
f 268 255 257
f 268 270 255
f 269 257 258
f 269 268 257
f 271 258 259
f 271 269 258
f 272 259 260
f 272 271 259
f 273 260 261
f 273 272 260
f 109 261 116
f 109 273 261
f 267 266 292
f 293 267 292
f 256 267 293
f 256 293 294
f 264 265 292
f 292 265 293
f 292 263 264
f 292 266 263
f 294 265 262
f 294 293 265
f 243 241 154
f 254 243 154
f 245 248 244
f 214 212 211
f 238 211 210
f 238 214 211
f 237 210 209
f 237 238 210
f 236 209 213
f 236 237 209
f 235 213 163
f 235 236 213
f 234 233 215
f 233 216 215
f 219 216 233
f 218 216 219
f 228 230 225
f 228 225 220
f 230 226 224
f 230 224 225
f 227 223 222
f 227 217 223
f 227 227 222
f 229 222 221
f 229 227 222
f 134 155 202
f 194 202 203
f 194 134 202
f 196 203 204
f 196 194 203
f 198 204 205
f 198 196 204
f 197 205 206
f 197 198 205
f 195 206 207
f 195 197 206
f 193 207 208
f 193 195 207
f 191 193 208
f 191 295 296
f 298 295 191
f 208 298 191
f 208 297 298
f 295 298 200
f 295 200 199
f 200 298 297
f 201 200 297
f 199 296 295
f 199 192 296
f 173 111 112
f 173 112 186
f 172 186 187
f 172 173 186
f 171 187 190
f 171 172 187
f 170 190 189
f 170 171 190
f 169 189 188
f 169 170 189
f 167 188 185
f 167 169 188
f 168 185 181
f 168 167 185
