# Render LOD; unchanged CAD body-local coordinates in mm
v 106.8441978 -24.6947375 -90.7764806
v 107.2583695 -19.0690589 -93.1386549
v 107.3466981 -17.8766450 -90.3739786
v 106.5776182 -18.7920672 -84.5718053
v 106.4993889 -22.4158084 -84.9475815
v 106.4991796 -24.2843748 -86.1407212
v 107.2600819 -21.5693391 -88.8153868
v 107.3444800 -21.5422229 -90.7764806
v 107.1258793 -23.1234787 -90.7764806
v 106.5659124 -24.4974696 -95.1902083
v 106.5007890 -22.7289233 -96.4593058
v 106.5351362 -20.7587624 -97.0627326
v 106.5000311 -18.6835000 -96.9575837
v 107.5091494 -20.0014135 -90.9175358
v 94.4999959 -20.9184800 -84.8205513
v 106.5005526 -20.5432272 -84.4839393
v 94.4999556 -23.1132817 -85.6242494
v 94.4999947 -24.7112934 -87.0831979
v 94.4999877 -25.6792925 -88.8609040
v 94.4999744 -25.9773072 -91.1931864
v 94.4999601 -25.3111926 -93.5723838
v 106.5006355 -26.2876516 -90.4907040
v 106.5005613 -25.7707290 -88.2743214
v 106.5146920 -25.8638442 -93.0759194
v 94.4999943 -22.2618917 -96.3502912
v 94.4999945 -24.0197959 -95.2194289
v 94.5000127 -20.5694038 -96.7529976
v 94.4999961 -19.0706768 -96.7342452
v 94.4999912 -17.3252501 -96.1976511
v 94.4999568 -15.6061048 -94.9729476
v 94.5000093 -14.5933279 -93.4911268
v 94.4999831 -13.9853833 -91.6897541
v 94.4999904 -14.0311886 -89.6745712
v 106.5010034 -15.4308406 -95.1764954
v 106.5017350 -16.8540913 -96.3008302
v 94.4999787 -14.7169680 -87.7723413
v 94.5000055 -16.0845490 -86.1661984
v 106.4997714 -14.2286967 -93.5064902
v 106.4987270 -13.5861154 -90.8040323
v 106.5008261 -14.1204513 -88.3436134
v 94.4999941 -17.6063086 -85.2295584
v 94.5000120 -19.1166866 -84.8270903
v 106.4992999 -15.5196335 -86.2098571
v 106.5011766 -17.6155371 -84.9072197
v 94.5000000 -23.6044880 -94.3373623
v 94.5000000 -23.4224273 -94.5150027
v 94.5000000 -23.7773207 -94.1510707
v 94.5000000 -23.2317154 -94.6832227
v 94.5000000 -23.9409254 -93.9563199
v 94.5000000 -23.0329290 -94.8418302
v 94.5000000 -24.0943409 -93.7534946
v 94.5000000 -22.8264525 -94.9902483
v 94.5000000 -24.2375671 -93.5433638
v 94.5000000 -22.6128628 -95.1282849
v 94.5000000 -24.3702196 -93.3265041
v 94.5000000 -22.3925444 -95.2553631
v 94.5000000 -24.4919138 -93.1031079
v 94.5000000 -22.1662662 -95.3714830
v 94.5000000 -24.6022652 -92.8739442
v 94.5000000 -21.9346050 -95.4760678
v 94.5000000 -24.7008895 -92.6395896
v 94.5000000 -21.6977531 -95.5689252
v 94.5000000 -24.7879787 -92.4008133
v 94.5000000 -21.4566717 -95.6498631
v 94.5000000 -24.8629562 -92.1578074
v 94.5000000 -21.2119375 -95.7186891
v 94.5000000 -24.9256296 -91.9113410
v 94.5000000 -20.9641273 -95.7754033
v 94.5000000 -24.9759991 -91.6619909
v 94.5000000 -20.7136256 -95.8194289
v 94.5000000 -25.0138724 -91.4105260
v 94.5000000 -20.4613937 -95.8511504
v 94.5000000 -25.0392494 -91.1575230
v 94.5000000 -20.2078160 -95.8701833
v 94.5000000 -25.0519379 -90.9035588
v 94.5000000 -19.9534694 -95.8765276
v 94.5000000 -25.0519379 -90.6492102
v 94.5000000 -19.6993150 -95.8701833
v 94.5000000 -25.0392494 -90.3952460
v 94.5000000 -19.4457373 -95.8511504
v 94.5000000 -25.0138724 -90.1422430
v 94.5000000 -19.1933131 -95.8194289
v 94.5000000 -24.9759991 -89.8907781
v 94.5000000 -18.9430037 -95.7754033
v 94.5000000 -24.9256296 -89.6416202
v 94.5000000 -18.6950012 -95.7186891
v 94.5000000 -24.8629562 -89.3951538
v 94.5000000 -18.4502671 -95.6498631
v 94.5000000 -24.7879787 -89.1521480
v 94.5000000 -18.2091856 -95.5689252
v 94.5000000 -24.7008895 -88.9131794
v 94.5000000 -17.9725260 -95.4760678
v 94.5000000 -24.6022652 -88.6788249
v 94.5000000 -17.7406725 -95.3714830
v 94.5000000 -24.4919138 -88.4496611
v 94.5000000 -17.5143944 -95.2553631
v 94.5000000 -24.3702196 -88.2264571
v 94.5000000 -17.2942682 -95.1282849
v 94.5000000 -24.2375671 -88.0094052
v 94.5000000 -17.0806785 -94.9902483
v 94.5000000 -24.0943409 -87.7992744
v 94.5000000 -16.8742020 -94.8418302
v 94.5000000 -23.9409254 -87.5966413
v 94.5000000 -16.6752234 -94.6832227
v 94.5000000 -23.7773207 -87.4018906
v 94.5000000 -16.4847037 -94.5150027
v 94.5000000 -23.6044880 -87.2154067
v 94.5000000 -16.3026430 -94.3373623
v 94.5000000 -23.4224273 -87.0377663
v 94.5000000 -16.1296180 -94.1510707
v 94.5000000 -23.2317154 -86.8695463
v 94.5000000 -15.9662056 -93.9563199
v 94.5000000 -23.0329290 -86.7111311
v 94.5000000 -15.8125979 -93.7534946
v 94.5000000 -15.6693717 -93.5433638
v 94.5000000 -22.8264525 -86.5625207
v 94.5000000 -15.5367192 -93.3265041
v 94.5000000 -22.6128628 -86.4246764
v 94.5000000 -15.4152172 -93.1031079
v 94.5000000 -22.3925444 -86.2974059
v 94.5000000 -15.3048658 -92.8739442
v 94.5000000 -22.1662662 -86.1814783
v 94.5000000 -15.2060493 -92.6395896
v 94.5000000 -21.9346050 -86.0768935
v 94.5000000 -15.1191523 -92.4008133
v 94.5000000 -21.6977531 -85.9840360
v 94.5000000 -15.0441748 -92.1578074
v 94.5000000 -21.4566717 -85.9029059
v 94.5000000 -21.2119375 -85.8340799
v 94.5000000 -14.9813091 -91.9113410
v 94.5000000 -14.9309396 -91.6619909
v 94.5000000 -20.9641273 -85.7775579
v 94.5000000 -14.8930664 -91.4105260
v 94.5000000 -20.7136256 -85.7333401
v 94.5000000 -20.4613937 -85.7018109
v 94.5000000 -14.8678816 -91.1575230
v 94.5000000 -20.2078160 -85.6827780
v 94.5000000 -14.8551931 -90.9035588
v 94.5000000 -14.8551931 -90.6492102
v 94.5000000 -19.9534694 -85.6764337
v 94.5000000 -14.8678816 -90.3952460
v 94.5000000 -19.6993150 -85.6827780
v 94.5000000 -14.8930664 -90.1422430
v 94.5000000 -19.4457373 -85.7018109
v 94.5000000 -14.9309396 -89.8907781
v 94.5000000 -19.1933131 -85.7333401
v 94.5000000 -14.9813091 -89.6416202
v 94.5000000 -18.9430037 -85.7775579
v 94.5000000 -18.6950012 -85.8340799
v 94.5000000 -15.0441748 -89.3951538
v 94.5000000 -15.1191523 -89.1521480
v 94.5000000 -18.4502671 -85.9029059
v 94.5000000 -15.2060493 -88.9131794
v 94.5000000 -18.2091856 -85.9840360
v 94.5000000 -15.3048658 -88.6788249
v 94.5000000 -17.9725260 -86.0768935
v 94.5000000 -17.7406725 -86.1814783
v 94.5000000 -15.4152172 -88.4496611
v 94.5000000 -15.5367192 -88.2264571
v 94.5000000 -17.5143944 -86.2974059
v 94.5000000 -15.6693717 -88.0094052
v 94.5000000 -17.2942682 -86.4246764
v 94.5000000 -15.8125979 -87.7992744
v 94.5000000 -17.0806785 -86.5625207
v 94.5000000 -15.9662056 -87.5966413
v 94.5000000 -16.8742020 -86.7111311
v 94.5000000 -16.6752234 -86.8695463
v 94.5000000 -16.1296180 -87.4018906
v 94.5000000 -16.3026430 -87.2154067
v 94.5000000 -16.4847037 -87.0377663
v 105.7484169 -19.9534694 -95.8765276
v 105.7484169 -20.2037788 -95.8703755
v 105.7484169 -20.4533192 -95.8519194
v 105.7484169 -20.7018984 -95.8211592
v 105.7484169 -20.9485551 -95.7784793
v 105.7484169 -21.1927125 -95.7236877
v 105.7484169 -21.4339862 -95.6567842
v 105.7484169 -21.6716071 -95.5783456
v 105.7484169 -21.9051908 -95.4881796
v 105.7484169 -22.1339682 -95.3868631
v 105.7484169 -22.3575549 -95.2742037
v 105.7484169 -22.5753741 -95.1507783
v 105.7484169 -22.7868490 -95.0169713
v 105.7484169 -22.9915952 -94.8727827
v 105.7484169 -23.1888437 -94.7187892
v 105.7484169 -23.3784021 -94.5553755
v 105.7484169 -23.5596938 -94.3827337
v 105.7484169 -23.7323343 -94.2014405
v 105.7484169 -23.8959390 -94.0118806
v 105.7484169 -24.0499312 -93.8144383
v 105.7484169 -24.1939264 -93.6098828
v 105.7484169 -24.3279246 -93.3984062
v 105.7484169 -24.4513490 -93.1805852
v 105.7484169 -24.5638153 -92.9569968
v 105.7484169 -24.6653232 -92.7282175
v 105.7484169 -24.7552962 -92.4946320
v 105.7484169 -24.8339264 -92.2568169
v 105.7484169 -24.9006372 -92.0155413
v 105.7484169 -24.9554284 -91.7713820
v 105.7484169 -24.9983001 -91.5247233
v 105.7484169 -25.0288679 -91.2763344
v 105.7484169 -25.0473239 -91.0265998
v 105.7484169 -25.0534759 -90.7764806
v 105.7484169 -25.0473239 -90.5234777
v 105.7484169 -25.0284834 -90.2712438
v 105.7484169 -24.9971466 -90.0203556
v 105.7484169 -24.9535059 -89.7711977
v 105.7484169 -24.8973689 -89.5245391
v 105.7484169 -24.8293124 -89.2807642
v 105.7484169 -24.7491442 -89.0408344
v 105.7484169 -24.6572487 -88.8053263
v 105.7484169 -24.5536260 -88.5744323
v 105.7484169 -24.4388528 -88.3491136
v 105.7484169 -24.3129291 -88.1297547
v 105.7484169 -24.1764316 -87.9167400
v 105.7484169 -24.0293604 -87.7108387
v 105.7484169 -23.8722922 -87.5126274
v 105.7484169 -23.7056115 -87.3222985
v 105.7484169 -23.5298951 -87.1404286
v 105.7484169 -23.3451429 -86.9675945
v 105.7484169 -23.1521239 -86.8041808
v 105.7484169 -22.9512227 -86.6503796
v 105.7484169 -22.7430160 -86.5067678
v 105.7484169 -22.5278884 -86.3737297
v 105.7484169 -22.3064164 -86.2516501
v 105.7484169 -22.0791770 -86.1405287
v 105.7484169 -21.8465546 -86.0407502
v 105.7484169 -21.6095104 -85.9526990
v 105.7484169 -21.3682367 -85.8765674
v 105.7484169 -21.1235025 -85.8123555
v 105.7484169 -20.8760769 -85.7604476
v 105.7484169 -20.6261519 -85.7210360
v 105.7484169 -20.3746890 -85.6937363
v 105.7484169 -20.1220726 -85.6791252
v 105.7484169 -19.8692639 -85.6770104
v 105.7484169 -19.6164552 -85.6875843
v 105.7484169 -19.3646078 -85.7104622
v 105.7484169 -19.1141061 -85.7460287
v 105.7484169 -18.8657192 -85.7937071
v 105.7484169 -18.6200238 -85.8538818
v 105.7484169 -18.3775966 -85.9259761
v 105.7484169 -18.1390144 -86.0101822
v 105.7484169 -17.9048540 -86.1059234
v 105.7484169 -17.6758843 -86.2131998
v 105.7484169 -17.4522976 -86.3318189
v 105.7484169 -17.2350552 -86.4613964
v 105.7484169 -17.0245415 -86.6013555
v 105.7484169 -16.8209488 -86.7518884
v 105.7484169 -16.6254306 -86.9120339
v 105.7484169 -16.4377947 -87.0817919
v 105.7484169 -16.2590022 -87.2607780
v 105.7484169 -16.0892455 -87.4482232
v 105.7484169 -15.9289091 -87.6439352
v 105.7484169 -15.7785696 -87.8473373
v 105.7484169 -15.6384194 -88.0580449
v 105.7484169 -15.5090352 -88.2752890
v 105.7484169 -15.3904170 -88.4986852
v 105.7484169 -15.2831415 -88.7278490
v 105.7484169 -15.1872088 -88.9618190
v 105.7484169 -15.1031956 -89.2004031
v 105.7484169 -15.0309096 -89.4428322
v 105.7484169 -14.9709276 -89.6885296
v 105.7484169 -14.9230574 -89.9369185
v 105.7484169 -14.8876834 -90.1874221
v 105.7484169 -14.8646134 -90.4392716
v 105.7484169 -14.8542319 -90.6920822
v 105.7484169 -14.8563466 -90.9450852
v 105.7484169 -14.8709576 -91.1975113
v 105.7484169 -14.8980649 -91.4491685
v 105.7484169 -14.9376684 -91.6989032
v 105.7484169 -14.9895759 -91.9465231
v 105.7484169 -15.0535951 -92.1912592
v 105.7484169 -15.1299183 -92.4323425
v 105.7484169 -15.2179688 -92.6695808
v 105.7484169 -15.3175543 -92.9020129
v 105.7484169 -15.4286747 -93.1292541
v 105.7484169 -15.5509457 -93.3507278
v 105.7484169 -15.6839826 -93.5658572
v 105.7484169 -15.8275934 -93.7740655
v 105.7484169 -15.9812011 -93.9749683
v 105.7484169 -16.1448058 -94.1679888
v 105.7484169 -16.3176385 -94.3527424
v 105.7484169 -16.4993147 -94.5286525
v 105.7484169 -16.6896421 -94.6953346
v 105.7484169 -16.8880440 -94.8524040
v 105.7484169 -17.0939437 -94.9992841
v 105.7484169 -17.3067644 -95.1359749
v 105.7484169 -17.5261216 -95.2617074
v 105.7484169 -17.7516308 -95.3766738
v 105.7484169 -17.9823307 -95.4801051
v 105.7484169 -18.2180291 -95.5720013
v 105.7484169 -18.4579571 -95.6521701
v 105.7484169 -18.7015377 -95.7204194
v 105.7484169 -18.9481944 -95.7763646
v 105.7484169 -19.1973504 -95.8200057
v 105.7484169 -19.4484288 -95.8513426
v 105.7484169 -19.7006607 -95.8701833
v 106.5138673 -19.9559946 -90.8046552
v 106.3244662 -18.0415368 -90.1564956
v 106.5058629 -20.5921660 -90.1333233
v 106.4310965 -19.8896338 -92.1220688
f 22 1 23
f 35 2 13
f 34 2 35
f 34 3 2
f 38 3 34
f 39 3 38
f 40 3 39
f 43 3 40
f 44 4 43
f 43 4 3
f 5 7 16
f 16 7 4
f 6 7 5
f 23 7 6
f 1 7 23
f 8 9 9
f 9 9 1
f 1 9 7
f 7 9 8
f 22 24 1
f 1 24 9
f 2 10 12
f 24 10 9
f 2 12 13
f 9 10 8
f 2 14 10
f 12 10 11
f 10 14 8
f 7 3 4
f 8 14 7
f 7 14 3
f 3 14 2
f 17 5 15
f 5 17 6
f 5 16 15
f 6 17 18
f 23 18 19
f 20 22 19
f 22 23 19
f 23 6 18
f 21 24 20
f 22 20 24
f 10 21 26
f 11 26 25
f 10 24 21
f 12 25 27
f 10 26 11
f 12 27 28
f 12 11 25
f 29 13 28
f 35 13 29
f 13 12 28
f 30 35 29
f 38 31 32
f 35 30 34
f 38 30 31
f 38 34 30
f 39 38 32
f 39 32 33
f 37 43 36
f 40 33 36
f 40 39 33
f 41 43 37
f 42 15 16
f 43 40 36
f 4 41 42
f 44 41 4
f 44 43 41
f 4 42 16
f 46 26 45
f 47 26 21
f 47 45 26
f 48 26 46
f 49 47 21
f 50 26 48
f 51 49 21
f 52 26 50
f 53 51 21
f 54 26 52
f 54 25 26
f 55 53 21
f 56 25 54
f 57 55 21
f 58 25 56
f 59 57 21
f 60 25 58
f 61 59 21
f 62 25 60
f 63 21 20
f 63 61 21
f 64 25 62
f 65 63 20
f 66 25 64
f 67 65 20
f 68 25 66
f 69 67 20
f 70 25 68
f 70 27 25
f 71 69 20
f 72 27 70
f 73 71 20
f 74 27 72
f 75 73 20
f 76 27 74
f 77 75 20
f 78 27 76
f 78 28 27
f 79 20 19
f 79 77 20
f 80 28 78
f 81 79 19
f 82 28 80
f 83 81 19
f 84 28 82
f 85 83 19
f 86 28 84
f 87 85 19
f 88 28 86
f 89 87 19
f 90 28 88
f 90 29 28
f 91 89 19
f 92 29 90
f 93 91 19
f 94 29 92
f 95 93 19
f 18 95 19
f 96 29 94
f 97 95 18
f 98 29 96
f 99 97 18
f 100 29 98
f 101 99 18
f 102 30 29
f 102 29 100
f 103 101 18
f 104 30 102
f 105 103 18
f 106 30 104
f 107 105 18
f 108 30 106
f 17 107 18
f 17 109 107
f 110 30 108
f 17 111 109
f 112 30 110
f 17 113 111
f 114 30 112
f 115 30 114
f 17 116 113
f 117 30 115
f 17 118 116
f 31 30 117
f 119 31 117
f 17 120 118
f 31 119 121
f 17 122 120
f 31 121 123
f 17 124 122
f 31 123 125
f 15 124 17
f 15 126 124
f 32 125 127
f 32 31 125
f 15 128 126
f 15 129 128
f 32 127 130
f 32 130 131
f 15 132 129
f 32 131 133
f 15 134 132
f 15 135 134
f 32 133 136
f 15 137 135
f 32 136 138
f 32 138 139
f 15 140 137
f 32 139 141
f 42 140 15
f 42 142 140
f 33 32 141
f 33 141 143
f 42 144 142
f 33 143 145
f 42 146 144
f 33 145 147
f 42 148 146
f 41 148 42
f 41 149 148
f 33 150 151
f 33 147 150
f 41 152 149
f 33 151 153
f 41 154 152
f 36 153 155
f 36 33 153
f 41 156 154
f 41 157 156
f 36 158 159
f 36 155 158
f 41 160 157
f 36 159 161
f 37 160 41
f 37 162 160
f 36 161 163
f 37 164 162
f 36 163 165
f 37 166 164
f 37 167 166
f 36 168 169
f 36 165 168
f 37 170 167
f 37 169 170
f 37 36 169
f 171 76 172
f 172 74 173
f 76 74 172
f 173 72 174
f 74 72 173
f 174 70 175
f 72 70 174
f 175 68 176
f 70 68 175
f 176 66 177
f 68 66 176
f 177 64 178
f 66 64 177
f 178 62 179
f 64 62 178
f 179 60 180
f 62 60 179
f 180 58 181
f 60 58 180
f 181 56 182
f 58 56 181
f 182 54 183
f 56 54 182
f 54 52 183
f 183 52 184
f 52 50 184
f 184 50 185
f 50 48 185
f 185 48 186
f 48 46 186
f 186 46 187
f 46 45 187
f 187 45 188
f 45 47 188
f 188 47 189
f 47 49 189
f 189 49 190
f 49 51 190
f 190 51 191
f 191 53 192
f 51 53 191
f 53 55 192
f 192 55 193
f 193 57 194
f 55 57 193
f 194 59 195
f 57 59 194
f 195 61 196
f 59 61 195
f 196 63 197
f 61 63 196
f 197 65 198
f 63 65 197
f 198 67 199
f 65 67 198
f 199 69 200
f 67 69 199
f 200 71 201
f 69 71 200
f 201 73 202
f 71 73 201
f 202 75 203
f 73 75 202
f 75 77 203
f 203 77 204
f 204 79 205
f 77 79 204
f 205 81 206
f 79 81 205
f 206 83 207
f 81 83 206
f 83 85 207
f 207 85 208
f 85 87 208
f 208 87 209
f 87 89 209
f 209 89 210
f 89 91 210
f 210 91 211
f 91 93 211
f 211 93 212
f 93 95 212
f 212 95 213
f 95 97 213
f 213 97 214
f 97 99 214
f 214 99 215
f 99 101 215
f 215 101 216
f 101 103 216
f 216 103 217
f 217 105 218
f 103 105 217
f 105 107 218
f 218 107 219
f 219 109 220
f 107 109 219
f 220 111 221
f 109 111 220
f 221 113 222
f 111 113 221
f 222 116 223
f 113 116 222
f 223 118 224
f 116 118 223
f 224 120 225
f 118 120 224
f 225 122 226
f 120 122 225
f 226 124 227
f 122 124 226
f 227 126 228
f 124 126 227
f 228 128 229
f 126 128 228
f 229 129 230
f 128 129 229
f 230 132 231
f 129 132 230
f 231 134 232
f 132 134 231
f 134 135 232
f 232 135 233
f 135 137 233
f 233 137 234
f 137 140 234
f 234 140 235
f 140 142 235
f 235 142 236
f 142 144 236
f 236 144 237
f 237 146 238
f 144 146 237
f 238 148 239
f 146 148 238
f 239 149 240
f 148 149 239
f 240 152 241
f 149 152 240
f 241 154 242
f 152 154 241
f 242 156 243
f 154 156 242
f 243 157 244
f 156 157 243
f 244 160 245
f 157 160 244
f 245 162 246
f 160 162 245
f 246 164 247
f 162 164 246
f 247 166 248
f 164 166 247
f 248 167 249
f 166 167 248
f 249 170 250
f 167 170 249
f 250 169 251
f 170 169 250
f 251 168 252
f 169 168 251
f 252 165 253
f 168 165 252
f 253 163 254
f 165 163 253
f 254 161 255
f 163 161 254
f 255 159 256
f 161 159 255
f 256 158 257
f 159 158 256
f 158 155 257
f 257 155 258
f 155 153 258
f 258 153 259
f 153 151 259
f 259 151 260
f 151 150 260
f 260 150 261
f 150 147 261
f 261 147 262
f 147 145 262
f 262 145 263
f 145 143 263
f 263 143 264
f 143 141 264
f 264 141 265
f 141 139 265
f 265 139 266
f 139 138 266
f 266 138 267
f 138 136 267
f 267 136 268
f 136 133 268
f 268 133 269
f 133 131 269
f 269 131 270
f 131 130 270
f 270 130 271
f 130 127 271
f 271 127 272
f 127 125 272
f 272 125 273
f 125 123 273
f 273 123 274
f 123 121 274
f 274 121 275
f 121 119 275
f 275 119 276
f 119 117 276
f 276 117 277
f 277 115 278
f 117 115 277
f 278 114 279
f 115 114 278
f 279 112 280
f 114 112 279
f 280 110 281
f 112 110 280
f 281 108 282
f 110 108 281
f 282 106 283
f 108 106 282
f 106 104 283
f 283 104 284
f 104 102 284
f 284 102 285
f 102 100 285
f 285 100 286
f 100 98 286
f 286 98 287
f 98 96 287
f 287 96 288
f 96 94 288
f 288 94 289
f 94 92 289
f 289 92 290
f 92 90 290
f 290 90 291
f 90 88 291
f 291 88 292
f 88 86 292
f 292 86 293
f 86 84 293
f 293 84 294
f 84 82 294
f 294 82 295
f 82 80 295
f 295 80 296
f 80 78 296
f 296 78 297
f 297 76 171
f 78 76 297
f 298 300 299
f 300 197 198
f 300 196 197
f 300 195 196
f 300 194 195
f 300 193 194
f 300 202 203
f 300 201 202
f 300 200 201
f 300 199 200
f 300 198 199
f 300 211 212
f 300 210 211
f 300 209 210
f 300 208 209
f 300 207 208
f 300 206 207
f 300 205 206
f 300 204 205
f 300 203 204
f 301 192 193
f 301 191 192
f 301 190 191
f 301 189 190
f 301 193 300
f 301 188 189
f 301 187 188
f 301 186 187
f 301 185 186
f 301 184 185
f 301 183 184
f 301 182 183
f 301 181 182
f 301 180 181
f 301 179 180
f 301 178 179
f 301 177 178
f 301 176 177
f 301 175 176
f 301 174 175
f 301 173 174
f 301 297 171
f 301 296 297
f 301 172 173
f 301 171 172
f 301 295 296
f 301 294 295
f 301 293 294
f 301 292 293
f 301 291 292
f 301 290 291
f 301 289 290
f 301 288 289
f 301 287 288
f 301 286 287
f 301 285 286
f 301 284 285
f 301 283 284
f 301 282 283
f 301 281 282
f 301 280 281
f 301 279 280
f 301 278 279
f 301 277 278
f 301 276 277
f 299 275 276
f 299 274 275
f 299 273 274
f 299 272 273
f 299 276 301
f 299 271 272
f 299 270 271
f 299 269 270
f 299 268 269
f 299 267 268
f 299 266 267
f 299 265 266
f 299 264 265
f 299 263 264
f 299 262 263
f 299 261 262
f 299 260 261
f 299 259 260
f 299 258 259
f 299 257 258
f 299 256 257
f 299 255 256
f 299 254 255
f 299 253 254
f 299 252 253
f 299 251 252
f 299 250 251
f 299 249 250
f 299 248 249
f 299 247 248
f 299 246 247
f 299 245 246
f 299 244 245
f 300 243 244
f 300 242 243
f 300 241 242
f 300 240 241
f 300 244 299
f 300 239 240
f 300 238 239
f 300 237 238
f 300 236 237
f 300 235 236
f 300 234 235
f 300 233 234
f 300 232 233
f 300 231 232
f 300 230 231
f 300 229 230
f 300 228 229
f 300 227 228
f 300 226 227
f 300 225 226
f 300 224 225
f 300 223 224
f 300 222 223
f 300 221 222
f 300 220 221
f 300 219 220
f 300 218 219
f 300 217 218
f 300 216 217
f 300 215 216
f 300 214 215
f 300 213 214
f 300 212 213
f 301 300 298
f 298 299 301
