# Render LOD; unchanged CAD body-local coordinates in mm
v -151.5641843 249.7550410 134.9999454
v -151.8981320 249.5529050 134.0579429
v -151.5072644 249.7724336 134.0261839
v -150.9549665 249.8251202 134.9999457
v -151.0308019 249.8259286 133.9930433
v -150.4351272 249.6250537 134.9999449
v -150.5462506 249.6938394 133.9575969
v -150.1466343 249.3494454 134.9999455
v -150.1861445 249.3993666 133.9219354
v -149.9760349 249.0625676 133.8967959
v -149.9507437 249.0012182 134.9999449
v -149.8858036 248.5760011 134.9999455
v -149.8823675 248.5935077 133.8578566
v -149.9622489 248.1515672 134.9999450
v -149.9422828 248.2292917 133.8346258
v -150.2479855 247.7103050 134.9999447
v -150.2504946 247.7178708 133.9019622
v -150.2608560 247.6997515 134.3384205
v -150.6042977 247.4709984 134.9999452
v -150.8284371 247.3885419 133.8510836
v -150.9872235 247.3600364 134.9999451
v -150.5229359 247.5023868 133.7676939
v -150.8027188 247.3868911 134.2958860
v -151.3451165 247.3688132 133.8164705
v -151.5938689 247.4350715 134.9999465
v -151.0665077 247.3524005 133.7270452
v -151.4975103 247.4154403 133.6966249
v -151.8953144 247.6186100 133.7721096
v -152.0786818 247.8046674 134.9999456
v -151.8639761 247.6003802 133.6652797
v -152.2725608 248.1138392 133.7260567
v -152.3106054 248.2396484 134.9999449
v -152.1905345 247.9619611 133.6335763
v -152.3550064 248.6688954 134.9999456
v -152.3362081 248.3673329 133.6010129
v -152.3569864 248.6523023 133.6908850
v -152.2583447 249.0879138 134.9999448
v -152.3507034 248.7302568 133.5748625
v -152.3365405 248.8345103 134.1187026
v -152.2688626 249.0599938 133.6592481
v -151.9950265 249.4686015 134.9999455
v -152.0517993 249.4054817 133.6307498
v -152.1603134 249.2663866 134.0853996
v -151.5393789 249.7601986 133.4794710
v -151.1250147 249.8273290 133.4486808
v -150.8296994 249.7924871 133.5352210
v -150.6335774 249.7390557 133.4084243
v -150.0425463 249.2008457 133.4633343
v -150.2102081 249.4284204 133.3760194
v -149.8974334 248.7717710 133.4327471
v -149.9898371 249.0914136 133.3459387
v -149.9074584 248.3444279 133.4023900
v -149.8753492 248.5719768 133.3124554
v -150.0404798 247.9943811 133.3742987
v -149.9866578 248.1044511 133.2723376
v -150.2847589 247.6785652 133.3457833
v -150.2322176 247.7266762 133.2445274
v -150.6502044 247.4485254 133.3152489
v -150.6588627 247.4404585 133.2052245
v -151.1697372 247.3541847 133.1699492
v -151.5920366 247.4481609 133.1381403
v -151.9177198 247.6454619 133.1108968
v -152.3161878 248.2370900 133.1658008
v -152.2153088 248.0057937 133.0777055
v -152.3436754 248.4124240 133.0466725
v -152.2483140 249.1023339 133.1077713
v -152.3330271 248.8603257 133.0172591
v -152.0129790 249.4510216 133.0776833
v -152.1735384 249.2394012 132.9886757
v -151.7491760 249.6550438 133.0531880
v -151.9009128 249.5544110 132.9597854
v -150.1165039 249.3246554 132.9222285
v -150.2608072 249.4862723 132.8271457
v -149.9244693 248.8971811 132.8904399
v -149.9750298 249.0612100 132.7973080
v -149.8855521 248.6400146 132.7634797
v -149.9821245 248.1149837 132.8343663
v -149.9554482 248.1677999 132.7319630
v -150.1909203 247.7743822 132.8050790
v -150.2154049 247.7475595 132.6949108
v -150.5867807 247.4724062 132.7674496
v -150.5893691 247.4735629 132.6629832
v -151.0708113 247.3520850 132.6253193
v -151.7067120 247.5021103 132.6893137
v -151.4730512 247.4079059 132.5987235
v -152.0746689 247.7933425 132.6542425
v -151.8632732 247.5997606 132.5637839
v -152.2897387 248.1900629 132.6231252
v -152.1874026 247.9568082 132.5351106
v -152.3615052 248.6460032 132.5889021
v -152.3424472 248.3947773 132.4986304
v -152.1932693 249.2310544 132.5481862
v -152.3226990 248.9252273 132.4634193
v -151.8023569 249.6247453 132.5084375
v -152.0029651 249.4680202 132.4185382
v -151.4068269 249.7976712 132.4774343
v -151.6370177 249.7147091 132.3837112
v -151.2344432 249.8257894 132.3548709
v -150.7073542 249.7593379 132.4272301
v -150.4900519 249.6576619 132.3011105
v -150.2474806 249.4770345 132.3924608
v -150.0793053 249.2757579 132.2582694
v -149.8914060 248.7049254 132.3265666
v -149.8983852 248.7750523 132.2234213
v -149.9146300 248.3124349 132.2984591
v -149.9094221 248.3370932 132.1929686
v -150.1239505 247.8540273 132.2606991
v -150.4569963 247.5507503 132.2302388
v -150.9127927 247.3635173 132.1939802
v -151.1730352 247.3496362 132.0652792
v -152.0544891 247.7772580 131.9986722
v -152.2994464 248.2015949 131.9653206
v -152.3555850 248.7448520 132.0338450
v -152.3570067 248.6839083 131.9281548
v -152.2177756 249.1574957 132.0015075
v -152.0038901 249.4616792 131.9756459
v -152.0719799 249.3821273 131.8739388
v -151.6914937 249.6876844 131.9484641
v -151.4911974 249.7706572 131.8241791
v -150.7982236 249.7958733 131.8851787
v -151.1344767 249.8298672 131.7965767
v -150.3512128 249.5652326 131.7383259
v -150.0699372 247.9376104 131.7174001
v -150.0129033 248.0288281 131.6177108
v -150.8342953 247.3892382 131.6515913
v -150.6688262 247.4366170 131.5545474
v -151.0955129 247.3571232 131.5246605
v -151.5097867 247.4156962 131.4951453
v -151.7149709 247.5048422 131.5860118
v -151.8454422 247.5911470 131.4680256
v -152.0939768 247.8274350 131.4421563
v -152.2824993 248.1654291 131.5238602
v -152.3618045 248.6341938 131.4920868
v -152.3445672 248.7651263 131.3730658
v -152.1091974 249.3380552 131.4366783
v -152.2379285 249.1300444 131.3451962
v -151.7080390 249.6914827 131.3967197
v -152.0162106 249.4427488 131.3198235
v -151.6951073 249.6898958 131.2926265
v -151.1907131 249.8338133 131.2526884
v -150.6952953 249.7553905 131.3256716
v -150.7516857 249.7707395 131.2211736
v -150.3493164 249.5637069 131.1895884
v -149.9443491 248.9848832 131.2468348
v -149.8897268 248.4023891 131.2064376
v -149.8885723 248.6682745 131.1158922
v -149.9207948 248.2872780 131.0881127
v -150.1339659 247.8404157 131.0536694
v -150.9661245 247.3554009 131.0906671
v -150.7835016 247.4002479 130.9962797
v -151.5268369 247.4232455 131.0533664
v -151.2661277 247.3598142 130.9648406
v -151.8256675 247.5771406 131.0284996
v -151.7313847 247.5139809 130.9285770
v -152.1051016 247.8388663 131.0005714
v -152.2981759 248.2157130 130.9721391
v -152.1363122 247.8731254 130.8905431
v -152.3601295 248.5925918 130.9427037
v -152.3229029 248.3044625 130.8561114
v -152.3570627 248.6772577 130.8291614
v -152.2501835 249.1175253 130.9065509
v -152.2488032 249.1022976 130.7987386
v -151.9075909 249.5500145 130.8665834
v -152.0338320 249.4250848 130.7716448
v -151.4480997 249.7897347 130.8305025
v -151.7587182 249.6509677 130.7460818
v -151.0367721 249.8244785 130.8004383
v -151.2905797 249.8250515 130.7122370
v -150.6896755 249.7500619 130.7760613
v -150.6711319 249.7530817 130.6670706
v -150.3422423 249.5547964 130.7453384
v -150.2121855 249.4334632 130.6265226
v -149.9438526 248.9702033 130.6974172
v -149.8830446 248.5279079 130.6639289
v -149.9255239 248.9430143 130.5843921
v -150.0276782 248.0006566 130.6287971
v -149.8977163 248.4095331 130.5514103
v -150.0383260 247.9910825 130.5156420
v -150.3380597 247.6325945 130.4835367
v -151.1033840 247.3555981 130.5330015
v -151.5592283 247.4302007 130.4972273
v -151.0768448 247.3495741 130.4287596
v -151.5126718 247.4208494 130.3928298
v -151.9741779 247.6942583 130.4673738
v -151.8987070 247.6255570 130.3629286
v -152.2224586 248.0317837 130.4350946
v -152.1854392 247.9612098 130.3327227
v -152.3446917 248.3948338 130.4080654
v -152.3395105 248.3666748 130.3046808
v -152.3276249 248.8742534 130.3736550
v -152.3363912 248.8339636 130.2698688
v -152.1434099 249.2918788 130.3417780
v -152.1612774 249.2652067 130.2367034
v -151.9308918 249.5220699 130.3203934
v -151.5807129 249.7396338 130.1814317
v -150.8271689 249.8002295 130.2339799
v -151.2218210 249.8244689 130.1547527
v -150.7286394 249.7719524 130.1224039
v -150.2057416 249.4375593 130.0724696
v -149.9252432 248.9001141 130.1410558
v -149.9437562 248.9696287 130.0376675
v -149.8860659 248.5017013 130.1113029
v -150.0349192 247.9873932 130.0797487
v -150.1127108 247.8784963 129.9562675
v -150.3099999 247.6607916 129.9356255
v -150.6082754 247.4669998 129.9118111
v -151.1034382 247.3509813 129.9827230
v -151.6007442 247.4503925 129.9448573
v -152.0268691 247.7393824 129.9109943
v -151.6163006 247.4515276 129.8367273
v -152.2584072 248.1123639 129.8795749
v -152.1185683 247.8445155 129.7958793
v -152.3311027 248.3338865 129.7564450
v -152.3417825 248.8311857 129.7178112
v -152.1421361 249.2944368 129.7928147
v -152.1645543 249.2541256 129.6871668
v -151.5746658 249.7429227 129.7393663
v -151.1592975 249.8283945 129.7113759
v -151.1470509 249.8281002 129.6001637
v -150.8478699 249.7954819 129.6878505
v -150.8020036 249.7854494 129.5753108
v -150.0959259 249.3004654 129.6215978
v -150.1655440 249.3768184 129.5208677
v -149.8930155 248.7524157 129.5812168
v -149.9498876 248.9942512 129.4901102
v -149.9187645 248.2952578 129.5480611
v -149.8834600 248.5065978 129.4563175
v -150.1142592 247.8710778 129.5150802
v -149.9941913 248.0871272 129.4237115
v -150.4622736 247.5406457 129.4803780
v -150.2150979 247.7476936 129.3952815
v -151.0018362 247.3543458 129.4451466
v -150.6120377 247.4607149 129.3619405
v -151.0907829 247.3537438 129.3258467
v -151.5748685 247.4367354 129.2898452
v -152.2218021 248.0227727 129.3357217
v -152.3310072 248.3327501 129.2050305
v -152.3524510 248.6960490 129.1778122
v -151.9956509 249.4661527 129.1160903
v -151.6784974 249.6984126 129.1973269
v -151.8028269 249.6233371 129.0975178
v -151.3131638 249.8113046 129.1713046
v -151.3755341 249.8072396 129.0680231
v -151.0004289 249.8205167 129.0404047
v -150.5453289 249.6941823 129.0053895
v -150.2086332 249.4242977 129.0835952
v -149.9574093 249.0295315 129.0522755
v -150.1677585 249.3794042 128.9710604
v -149.9500108 248.9945220 128.9414138
v -150.1230894 247.8550414 128.9629405
v -150.4299918 247.5684405 128.9349336
v -150.1775239 247.7783725 128.8453168
v -150.8311514 247.3876073 128.9042039
v -150.6343268 247.4532555 128.8097414
v -151.2681931 247.3619716 128.8711144
v -151.0879715 247.3538123 128.7755096
v -151.7245262 247.5098789 128.8379498
v -151.5763847 247.4373892 128.7407963
v -152.0826467 247.8104708 128.8042714
v -151.9523229 247.6751407 128.7068900
v -152.3102525 248.2357211 128.7680666
v -152.3554059 248.6533776 128.7408190
v -152.3474597 248.3994364 128.6516826
v -152.2617879 249.0765973 128.7108449
v -152.3254566 248.8833050 128.6161068
v -152.0702041 249.3825506 128.6836418
v -152.1465530 249.2840209 128.5833333
v -151.8093110 249.6202200 128.6601891
v -151.3902298 249.8041768 128.6260038
v -151.5086868 249.7746372 128.5278769
v -150.9562880 249.8219964 128.4891112
v -150.4989519 249.6629937 128.4528435
v -150.1404746 249.3454625 128.5275134
v -150.1260438 249.3332501 128.4178581
v -149.9330798 248.9292796 128.3851470
v -149.8838461 248.5332478 128.3569762
v -149.9827409 248.1039342 128.4342449
v -149.9586007 248.1797582 128.3306834
v -150.1086989 247.8823156 128.3075682
v -150.4185629 247.5723045 128.2769776
v -150.9002784 247.3709635 128.3484010
v -151.4412905 247.3929550 128.3107898
v -151.5923110 247.4382771 128.1937093
v -152.0685647 247.7933509 128.2551652
v -152.0550011 247.7775677 128.1478026
v -152.3028460 248.2190896 128.2215361
v -152.2906184 248.1826517 128.1170106
v -152.3566215 248.5901752 128.1944589
v -152.2746664 249.0602439 128.1617219
v -152.3603285 248.6663475 128.0822398
v -151.9774822 249.4857874 128.1243749
v -152.2203938 249.1697658 128.0435723
v -151.9314049 249.5252703 128.0109743
v -151.6110691 249.7305277 128.0925919
v -151.6471654 249.7103845 127.9885388
v -151.1455427 249.8302755 128.0588471
v -151.2034865 249.8295526 127.9529201
v -150.6908280 249.7536590 128.0254178
v -150.7276159 249.7665454 127.9220299
v -150.3543840 249.5604794 127.9983330
v -150.0499832 249.2181080 127.9669307
v -150.3226724 249.5389072 127.8880276
v -150.0522913 249.2136896 127.8590180
v -149.8968959 248.7742975 127.9336824
v -149.8940985 248.7725265 127.8240187
v -149.9942184 248.0783648 127.8818163
v -149.9106014 248.3481407 127.7946422
v -150.2189346 247.7487517 127.8539255
v -150.0479876 247.9743507 127.7678546
v -150.3852548 247.5932698 127.7313591
v -150.5931477 247.4663508 127.8191473
v -151.1093648 247.3533635 127.7834440
v -150.7930967 247.3998415 127.6987156
v -151.5030203 247.4172431 127.7545092
v -151.2291416 247.3580133 127.6666404
v -151.9073029 247.6313189 127.7235044
v -151.9260543 247.6471682 127.6123631
v -152.1541413 247.9165740 127.6957703
v -152.2633333 248.0995039 127.5684253
v -152.3596128 248.6365546 127.5346471
v -152.1952302 249.2011280 127.5998677
v -151.9727510 249.4896076 127.5755982
v -151.8749990 249.5704997 127.4560706
v -151.5828762 249.7404069 127.4321912
v -150.9622671 249.8207678 127.4949575
v -151.1376810 249.8308066 127.4000316
v -150.5029386 249.6655744 127.4625345
v -150.6553201 249.7423955 127.3644752
v -150.2311083 249.4464351 127.4370574
v -150.2767441 249.4961080 127.3317974
v -149.8935437 248.7711271 127.2767435
v -149.9904267 248.0862001 127.3345901
v -149.9211031 248.2864703 127.2395018
v -150.2547921 247.7038541 127.2987696
v -150.1191991 247.8643203 127.2070270
v -150.7438950 247.4073229 127.2634854
v -150.3963643 247.5921832 127.1798562
v -150.8362816 247.3817142 127.1438167
v -151.3504104 247.3745628 127.1069041
v -151.8708532 247.5995345 127.0661116
v -152.1874560 247.9607066 127.1410504
v -152.3586928 248.4644553 127.1031042
v -152.3281471 248.3337129 127.0043884
v -152.3028248 248.9584257 127.0686912
v -152.3564161 248.6595550 126.9813732
v -152.0982125 249.3550268 127.0348059
v -152.2559746 249.0894650 126.9517178
v -151.6883526 249.6990690 127.0028434
v -151.1936036 249.8274475 126.9618796
v -151.3978710 249.7986479 126.8677705
v -150.7526492 249.7747321 126.9312168
v -150.1294663 249.3416544 126.7724634
v -149.8838241 248.5345802 126.8171336
v -149.8870260 248.7628075 126.7261861
v -149.9957915 248.0698580 126.7812704
v -149.9344372 248.2501424 126.6865999
v -150.2607972 247.7038318 126.7500761
v -150.0976407 247.8949915 126.6597881
v -150.6316748 247.4541987 126.7181547
v -150.4446438 247.5520793 126.6266011
v -151.0346748 247.3582195 126.6884373
v -151.3856145 247.3867086 126.6644098
v -151.1774540 247.3545705 126.5708476
v -151.8836343 247.6178313 126.5160855
v -152.3548864 248.4761884 126.5521671
v -152.3562525 248.4442564 126.4492903
v -152.2906713 249.0172786 126.5176318
v -152.2854223 249.0302012 126.4069047
v -152.0637254 249.3890734 126.4831507
v -151.7944193 249.6299687 126.4589069
v -151.4840547 249.7729152 126.4335945
v -151.7197718 249.6789513 126.3440236
v -151.0655473 249.8324303 126.4030164
v -150.5100788 249.6750180 126.3616638
v -150.6349814 249.7336507 126.2657428
v -150.0775830 249.2678737 126.3238165
v -150.0654701 249.2397921 126.2075424
v -149.9081091 248.8311690 126.1795466
v -150.0393229 247.9965410 126.2258297
v -149.9530336 248.1739380 126.1301566
v -150.3346473 247.6291858 126.1945017
v -150.5128926 247.5076999 126.0680020
v -150.9672801 247.3665366 126.0350851
v -151.3343335 247.3736185 126.0091770
v -151.9276339 247.6513578 126.0699936
v -152.2239308 248.0272600 126.0366411
v -152.3503304 248.4491602 126.0062732
v -152.2815856 248.1522429 125.9202095
v -152.3184480 248.9316419 125.9702682
v -152.3582598 248.6068206 125.8861549
v -152.2911263 248.9948505 125.8585505
v -152.0669679 249.3912804 125.9339925
v -152.0969161 249.3542119 125.8286894
v -151.7618661 249.6504813 125.9062184
v -151.8382323 249.5980355 125.8026420
v -151.3620575 249.8073422 125.8732901
v -151.4698831 249.7817356 125.7746255
v -151.0990736 249.8272487 125.7462851
v -150.7608686 249.7734314 125.7230755
v -150.3524628 249.5633464 125.7982351
v -150.0361062 249.1938675 125.7667447
v -149.8797610 248.6413005 125.7240062
v -149.8955416 248.7843561 125.6232146
v -149.9453620 248.2147438 125.6933372
v -150.1129736 247.8763720 125.6662857
v -149.9369497 248.2059162 125.5855162
v -150.3793406 247.6037073 125.6397851
v -150.2082522 247.7601441 125.5474017
v -150.7179579 247.4231570 125.6116875
v -150.5438958 247.4941133 125.5183388
v -151.0935350 247.3562774 125.5843615
v -151.5068337 247.4149100 125.5541705
v -151.9404886 247.6626450 125.4102033
v -152.2341188 248.0552096 125.4843887
v -152.2110662 248.0069178 125.3806846
v -152.3623822 248.5111598 125.4532723
v -152.2909379 248.9950700 125.4149390
v -152.3514266 248.7479941 125.3298594
v -152.2053257 249.1889172 125.3305244
v -152.1215077 249.3166993 125.3897319
v -151.9049018 249.5609470 125.3466638
v -151.2448485 246.3400252 134.9999454
v -151.9010218 246.4874710 134.9999453
v -152.3976806 246.7402239 134.9999454
v -150.3607872 246.4687882 134.9999453
v -149.7305716 246.8280587 134.9999453
v -152.7061645 247.0075501 134.9999453
v -153.0251942 247.3822994 134.9999453
v -149.2333307 247.3584206 134.9999453
v -153.3456613 248.2165353 134.9999454
v -148.9025187 248.1879429 134.9999454
v -153.3170139 249.1093500 134.9999453
v -148.9197144 249.0815909 134.9999454
v -152.9438834 249.9213286 134.9999454
v -149.2532277 249.8496186 134.9999453
v -152.2846211 250.5247248 134.9999454
v -149.8394476 250.4478801 134.9999452
v -151.5524782 250.7995621 134.9999453
v -150.7151730 250.8147912 134.9999453
v -152.5455158 246.8616208 136.9077365
v -151.4230994 246.3710062 136.9066685
v -150.5962022 246.4186875 136.9363172
v -150.0728991 246.6054088 136.8758638
v -149.6540716 246.9025648 136.9116293
v -148.9819798 247.9246721 136.8922764
v -148.9079984 248.3175652 136.9550976
v -149.0197074 249.3681166 136.8997990
v -149.2385642 249.8109567 136.8952012
v -149.6039095 250.2446570 136.8877477
v -149.9914437 250.5291919 136.8737292
v -150.2654609 250.6581771 136.9138991
v -150.6405535 250.7734390 136.9445106
v -150.8712074 250.8182047 136.8949803
v -151.6106057 250.7705363 136.9450019
v -151.9022792 250.6923580 136.8802001
v -152.2832273 250.5121109 136.8785328
v -152.5582668 250.3000080 136.9471359
v -152.8530336 250.0122319 136.9092797
v -153.0764118 249.6852857 136.9122881
v -153.3532171 248.8071414 136.8837921
v -153.3561177 248.4252043 136.8784061
v -153.0568031 247.4654013 136.9260669
v -152.7212779 247.0228006 136.8259622
v -152.7202521 247.0237581 136.8603308
v -152.5420005 246.9172357 137.0236036
v -152.5978252 247.0902235 137.1420732
v -152.1231366 246.6477445 137.0475725
v -152.5510526 247.3164933 137.2371116
v -152.1356094 246.5923625 136.8812697
v -152.2375907 246.8088912 137.1409507
v -151.8147484 246.4729706 136.9565972
v -152.1136099 246.9310223 137.2340347
v -151.8476928 246.7117349 137.2019973
v -151.5462204 246.4905585 137.1046811
v -151.0349386 246.4477427 137.1039608
v -150.9879509 246.3587209 136.9119876
v -151.3337591 246.6992692 137.2371576
v -151.1899614 246.5583091 137.1930174
v -150.5983471 246.5524121 137.1405707
v -150.5803578 246.7422338 137.2352057
v -150.2167290 246.6060961 137.0537664
v -150.2614754 246.7311861 137.1815954
v -149.8352574 246.8044286 137.0110993
v -149.9956876 247.0039085 137.2299171
v -149.9172203 246.8742352 137.1450244
v -149.6036407 247.0900737 137.1119862
v -149.4195235 247.2004299 137.0216757
v -149.3820974 247.1816857 136.9071295
v -149.1549854 247.5162756 136.8880663
v -149.5417037 247.3157363 137.1910681
v -149.1649437 247.5690128 137.0002106
v -149.2657150 247.5504602 137.1178312
v -149.0237837 247.9801173 137.0473701
v -149.1039165 247.9510439 137.1277605
v -149.5883452 247.4678880 137.2403681
v -149.3214477 247.7696897 137.2194142
v -149.0762875 248.2781328 137.1682575
v -148.8830957 248.7056552 136.8917372
v -148.9224134 248.7286516 137.0085234
v -149.1283557 248.5221953 137.2107460
v -148.9314908 249.0428590 136.9146680
v -148.9888414 248.6861127 137.1120299
v -149.0596795 249.3458972 137.0241437
v -149.0382377 249.0918095 137.1039332
v -149.2309160 249.5506989 137.1277017
v -149.1754626 249.0610640 137.2082629
v -149.2343294 249.6732266 137.0601466
v -149.2354309 248.9028113 137.2392959
v -149.4503694 250.0071918 137.0419644
v -149.4673464 249.9360135 137.1140500
v -149.4176987 249.6366124 137.2094554
v -149.7084481 249.8549243 137.2389632
v -149.7050336 250.0880346 137.1741278
v -149.7188998 250.2577632 137.0537330
v -149.9664759 250.4756212 136.9981830
v -150.0423746 250.4169799 137.1275342
v -150.1817789 250.3786278 137.1971822
v -150.3706363 250.6385834 137.0500212
v -150.0472784 250.1825500 137.2363982
v -150.5559875 250.6309584 137.1327681
v -150.6988767 250.4782371 137.2340625
v -151.2474898 250.8267499 136.9053889
v -151.1054494 250.7740732 137.0536041
v -150.9585122 250.6362116 137.1829044
v -151.3986126 250.7412447 137.0728836
v -151.3477409 250.6355484 137.1778103
v -151.5680620 250.4740279 137.2318286
v -151.8607890 250.6003929 137.1064524
v -152.0643969 250.5844643 137.0112058
v -152.2872660 250.3889117 137.1009053
v -152.0454137 250.4193723 137.1856260
v -152.0945552 250.2344731 137.2381044
v -152.7296402 250.0657017 137.0478293
v -152.5571253 250.1437295 137.1328825
v -152.4074536 250.0277135 137.2358592
v -152.7412628 249.8738344 137.1705720
v -153.0108141 249.6866835 137.0494010
v -153.2167726 249.2409494 137.0273650
v -153.2632039 249.2519673 136.8949031
v -152.9128999 249.5429642 137.1946459
v -153.0485054 249.5029722 137.1160108
v -152.9268525 249.2177234 137.2385368
v -153.1247715 249.0225771 137.1815710
v -153.3207668 248.7881931 137.0089283
v -153.2287308 248.8728770 137.1229345
v -153.3002224 248.2557940 137.0093444
v -153.1279792 248.5954274 137.2050780
v -153.2822689 247.9853327 136.8848568
v -153.2397509 248.1990336 137.0956938
v -153.2084169 247.8416246 136.9777325
v -153.1237300 248.1370128 137.1788854
v -152.9695686 247.8031607 137.2021474
v -153.0725863 247.7185667 137.1060495
v -152.9734968 248.1131691 137.2370500
v -152.8992727 247.2294622 136.9011468
v -152.8632813 247.2631566 137.0348157
v -152.8975955 247.4418318 137.1296455
v -152.7394304 247.4067040 137.2049967
v -151.4403330 247.4024218 137.2410000
v -150.2506155 247.7211777 137.2410000
v -152.3113017 248.2733415 137.2410000
v -149.9317983 248.9109217 137.2410000
v -151.9924845 249.4630855 137.2410000
v -150.8027670 249.7819098 137.2410000
v -151.4403330 247.4024218 135.8113424
v -150.2506155 247.7211777 135.8113424
v -152.3113017 248.2733415 135.8113424
v -151.9924845 249.4630855 135.8113424
v -150.8027670 249.7819098 135.8113424
v -149.9317983 248.9109217 135.8113424
v -150.4346396 247.9019044 134.1201680
v -151.8950527 248.0011743 133.9697889
v -150.7202041 249.4874106 133.7404045
v -150.1863243 248.2941950 133.6117586
v -150.4036471 247.9329086 133.5722751
v -151.7266587 247.8289614 133.4427380
v -151.9629279 248.1005079 133.4085296
v -152.0857458 248.4553414 133.3773189
v -150.4181003 249.2765762 133.1548141
v -150.1495805 248.5537207 133.0858967
v -150.2162299 248.2294313 133.0544132
v -150.6432497 247.7345741 132.9967349
v -151.4398920 247.6716083 132.9232439
v -152.1011260 248.6918806 132.8053231
v -151.9235198 249.1479267 132.7603231
v -151.6840964 249.3867728 132.7297235
v -150.9273252 249.5443873 132.6591139
v -150.7665944 247.6871911 132.4345035
v -152.0865772 248.4054264 132.2810630
v -151.6530239 249.4090530 132.1770468
v -151.3312532 249.5436966 132.1463826
v -150.6892988 247.7194368 134.0930637
v -151.3690866 247.3783345 134.2562199
v -151.0635631 247.6187815 134.0586719
v -151.7473623 247.5275336 134.2259312
v -151.5323668 247.6994775 134.0146872
v -152.0618580 247.7851671 134.1967058
v -152.3257852 248.2742507 134.1591760
v -152.0545271 248.3120965 133.9383175
v -152.0899642 248.7574879 133.8994549
v -151.8855966 249.2059533 133.8552591
v -151.5486634 249.4665992 133.8163142
v -151.1549258 249.5674721 133.7786627
v -150.3712730 249.2161535 133.7012910
v -150.1580005 248.7574950 133.6539117
v -150.1068475 247.8772781 133.8083299
v -150.7412080 247.6920837 133.5356435
v -151.2998520 247.6243851 133.4881112
v -152.2414115 249.1169430 133.5462493
v -152.0502498 248.9140327 133.3352903
v -151.9750149 249.4911951 133.5160519
v -151.7368844 249.3589216 133.2856322
v -151.2286442 249.5649951 133.2358134
v -150.7994026 249.5112533 133.1975743
v -150.1968681 248.8995004 133.1171334
v -150.3805926 247.9656299 133.0266806
v -151.0799307 247.6189580 132.9568626
v -151.8454446 247.9380328 132.8783943
v -151.5582102 249.7465772 132.9304461
v -151.2171348 249.8267331 132.9029309
v -151.3150736 249.5500313 132.6932264
v -150.7312379 249.7728492 132.8704744
v -150.6377123 249.4389713 132.6308044
v -150.1576726 248.7400052 132.5521038
v -150.1745315 248.3621337 132.5171937
v -150.3841965 247.9415091 132.4762530
v -151.0704481 247.6175821 132.4079531
v -151.5783825 247.7264578 132.3601107
v -151.8940491 247.9981736 132.3195892
v -151.9236046 249.1419176 132.2123485
v -152.0609439 248.8546936 132.2409352
v -150.8787213 249.5383327 132.1027352
v -150.2648783 249.0532241 132.0327205
v -152.0515986 248.3059774 131.7410951
v -151.9873559 249.0337602 131.6731778
v -151.2989549 249.5592890 131.5941102
v -150.4905553 249.3323244 131.5152038
v -150.9106232 247.6418076 131.3211370
v -152.0854892 248.3988179 131.1836982
v -151.8034086 249.2854614 131.0949662
v -150.8835738 249.5422292 131.0023974
v -150.5122542 247.8235257 130.8105287
v -151.6067103 247.7464845 130.7065981
v -152.0008811 249.0332361 130.5740921
v -150.1508068 248.4406064 130.3260556
v -150.8226971 247.6571706 130.2294055
v -151.7716436 247.8634562 130.1389499
v -150.8357495 249.7931042 132.3285985
v -150.4814549 249.3304214 132.0657424
v -150.1467690 248.6694833 131.9963404
v -150.2038794 248.2673644 131.9595612
v -150.0437971 247.9916543 132.1671689
v -150.2528240 247.7116092 132.1396437
v -150.6178604 247.4579831 132.1113104
v -150.4951736 247.8293884 131.9117256
v -151.0309264 247.6169916 131.8598352
v -151.6932647 247.4932584 132.0323907
v -151.4032187 247.6605429 131.8263141
v -151.8327392 247.9101600 131.7811105
v -152.2628216 249.0645699 131.9022032
v -152.0965887 248.6455241 131.7081944
v -151.8054991 249.6225278 131.8489580
v -151.8000769 249.2932814 131.6455981
v -150.7531742 249.7711610 131.7723958
v -150.7875231 249.5104540 131.5454847
v -150.0379486 249.1923267 131.7052265
v -149.9160717 248.8499710 131.6789912
v -150.2670347 249.0617676 131.4835513
v -149.8844141 248.5296379 131.6567132
v -150.2424900 248.1714692 131.4016343
v -150.3162715 247.6556284 131.5869617
v -150.5132022 247.8178871 131.3601620
v -151.2856129 247.6310715 131.2873027
v -151.6419228 247.7706370 131.2524653
v -152.2567170 248.1122013 131.4210486
v -151.8973269 248.0001865 131.2216655
v -152.3465376 248.4204108 131.3972054
v -152.0247094 248.9681257 131.1280732
v -151.4393645 249.5256696 131.0547890
v -150.4342604 249.2906533 130.9595771
v -149.9921645 249.1123566 131.1435407
v -150.1949268 248.8956296 130.9175314
v -150.1487041 248.5614874 130.8870684
v -150.2361741 248.1836289 130.8501323
v -150.4023678 247.5886097 131.0274454
v -150.8326023 247.6655241 130.7798938
v -151.1924917 247.6139851 130.7454219
v -151.9303240 248.0370683 130.6674940
v -151.6589505 249.4056160 130.5296366
v -151.2212374 249.5702876 130.4859676
v -150.6727335 249.4607048 130.4354542
v -150.3554492 249.1965620 130.3996431
v -150.1870441 248.8641731 130.3643856
v -150.3639221 247.9654660 130.2792637
v -150.6876875 247.4369641 130.4552709
v -151.3745180 247.6425370 130.1801269
v -150.3310009 249.5432375 131.8453266
v -150.0485819 249.2110553 131.8138201
v -149.8961303 248.7723215 131.7799039
v -149.9072479 248.3578478 131.7501198
v -150.4019933 247.5813782 131.6831230
v -151.2690350 247.3623187 131.6199393
v -152.0704685 247.7960361 131.5541121
v -152.2816590 249.0142018 131.4618172
v -151.1674686 249.8299975 131.3594458
v -150.3961985 249.5902089 131.3003595
v -150.1528143 249.3585890 131.2785233
v -150.1414242 248.5996890 131.4397473
v -150.0993634 247.8926388 131.1652569
v -150.4330123 247.5625627 131.1319025
v -150.1014387 249.2858628 130.7207429
v -150.3866599 247.5951460 130.5862693
v -150.7318413 247.4202343 130.5574489
v -152.0951955 248.4994953 130.6211437
v -151.6670132 249.7046283 130.2936480
v -151.2900671 249.8153106 130.2676555
v -150.3464025 249.5582619 130.1966660
v -150.0707665 249.2443569 130.1651546
v -150.3552365 247.6213400 130.0375713
v -150.6896031 247.4350754 130.0120914
v -150.4922726 247.5310179 133.8769235
v -151.8075522 249.6198315 133.6084170
v -151.3305620 249.8201277 133.5693690
v -150.3978204 249.6032681 133.5048202
v -151.0564496 247.3552049 133.2845784
v -151.5203107 247.4194564 133.2509785
v -151.9722830 247.6850562 133.2146816
v -152.3480522 248.7378840 133.1314104
v -151.3951985 249.8021694 133.0238717
v -150.9384330 249.8154076 132.9926343
v -150.5296322 249.6801168 132.9610511
v -149.8854130 248.5098064 132.8632842
v -151.1571286 247.3463754 132.7274102
v -152.0384255 248.2646529 132.8439447
v -151.0738740 249.8251453 132.4515592
v -150.3631692 249.2051758 132.5993897
v -149.9791164 249.0658435 132.3501095
v -151.4722425 247.4042071 132.1543497
v -151.9558934 247.6663872 132.1146089
v -152.2941494 248.1856696 132.0731123
v -151.3699558 249.8050212 131.9241920
v -150.2625557 249.0519974 129.8323597
v -150.1377469 248.5940526 129.7907273
v -151.0418775 247.6153583 129.6569386
v -150.3382142 248.0165129 129.1848847
v -151.9441252 248.0552986 129.0150036
v -150.4656292 249.3102420 128.7622315
v -151.4490078 247.6707548 128.5216294
v -151.9612327 249.1054143 128.3673661
v -151.0078615 249.5696218 128.2675951
v -152.3482501 248.4349119 129.8550899
v -152.0998369 248.7098658 130.0542339
v -152.3297281 248.8643578 129.8239648
v -151.8968209 249.1875052 130.0069933
v -151.4415644 249.5254882 129.9555200
v -151.8986940 249.5518540 129.7650980
v -150.9648362 249.5544382 129.9139596
v -150.5172343 249.6734363 129.6602131
v -150.5162814 249.3612180 129.8686687
v -150.2710823 248.1177612 129.7454680
v -150.5637875 247.7877413 129.7043868
v -151.5258323 247.4212547 129.4008813
v -151.9271041 247.6512335 129.3696628
v -151.7410371 247.8420371 129.5932171
v -151.9921728 248.1482522 129.5554938
v -152.3474376 248.4291439 129.3059998
v -152.1002096 248.6975613 129.5084849
v -152.3299790 248.8632101 129.2730574
v -151.9146560 249.1567537 129.4605827
v -152.1063774 249.3539916 129.2345908
v -151.6758646 249.3937195 129.4289851
v -151.3232232 249.5464972 129.3946132
v -150.9537253 249.8193780 129.1433892
v -150.8747973 249.5366851 129.3551516
v -150.5212730 249.6756202 129.1110208
v -150.5048851 249.3462115 129.3175179
v -150.2188786 248.9769802 129.2734243
v -149.8856529 248.5086375 129.0127886
v -150.1600413 248.3900017 129.2225809
v -149.9590609 248.1827237 128.9890054
v -150.6639296 247.7226714 129.1420337
v -151.2164452 247.6198097 129.0942634
v -151.6050948 247.7438451 129.0572480
v -152.0659055 248.8342959 128.9432287
v -151.7725645 249.3270477 128.8880641
v -151.3131253 249.5502008 128.8439828
v -150.9335943 249.8145443 128.5938077
v -150.8116971 249.5201732 128.8006398
v -150.4903210 249.6604835 128.5578370
v -150.2008739 248.9558276 128.7232118
v -149.9521528 248.9943181 128.4979762
v -149.8833063 248.5630693 128.4664450
v -150.1875294 248.2719032 128.6591763
v -150.4648360 247.8706688 128.6173084
v -150.2394014 247.7230341 128.4002804
v -150.5357134 247.5063580 128.3738426
v -150.9673767 247.6231068 128.5647060
v -151.8026263 247.8961637 128.4849379
v -151.8101922 247.5684017 128.2798463
v -151.9967465 248.1629562 128.4552613
v -152.0998577 248.6272303 128.4109949
v -151.5151511 249.4875729 128.3129197
v -150.5006619 249.3481972 128.2161543
v -150.1543613 248.7205638 128.1520639
v -151.5669950 249.4651030 127.7688901
v -150.6215874 249.4275240 127.6808891
v -150.1900783 248.8771588 127.6160966
v -150.2820292 248.0862600 127.5430148
v -151.5496582 247.7085345 127.4127957
v -150.1570579 248.3863656 127.0214754
v -151.1903896 247.6163375 126.8944102
v -152.0867738 248.4740120 126.7763746
v -151.8475821 249.2512610 126.7012058
v -150.1529324 248.7600711 126.5059603
v -150.8568453 247.6446539 126.3775396
v -151.9050102 248.0132657 126.2719317
v -149.9008291 248.4144326 127.9060767
v -150.3253179 248.0279563 128.0848296
v -150.5500050 247.8070920 128.0568429
v -150.8881497 247.6443698 128.0219413
v -151.2893321 247.6318237 127.9865622
v -151.6261500 247.7594642 127.9549864
v -152.1049481 248.5662463 127.8676445
v -152.3092031 248.2404449 127.6692429
v -152.3533241 248.7606152 127.6329766
v -152.0029347 249.0094139 127.8257723
v -151.7020766 249.6809690 127.5488056
v -151.3598381 249.8059977 127.5251952
v -150.9419012 249.5511641 127.7106057
v -150.3572964 249.1975481 127.6494095
v -150.0196490 249.1580189 127.4106022
v -150.1509218 248.5118805 127.5827716
v -149.8794662 248.6544620 127.3741172
v -150.5844547 247.7788217 127.5027517
v -151.0153762 247.6142627 127.4631573
v -151.3055179 247.3650283 127.2170932
v -151.7359246 247.5189090 127.1868491
v -151.9964877 247.7234753 127.1625232
v -152.0444777 248.9257232 127.2833591
v -151.7699039 249.3213496 127.2414929
v -151.4939698 249.4920297 127.2114480
v -151.0788989 249.5714001 127.1753976
v -150.5540574 249.4008718 127.1244404
v -150.3412345 249.5540989 126.8960907
v -150.1998482 248.9217252 127.0698236
v -149.9958586 249.1269987 126.8566768
v -150.4717491 247.8598551 126.9646012
v -151.7228998 247.5093376 126.6365351
v -152.0769421 247.8038975 126.6043325
v -151.9749391 248.1124379 126.8106686
v -152.2601996 248.1173920 126.5781189
v -152.0645132 248.8450022 126.7414557
v -151.4696038 249.5040048 126.6599837
v -151.1337668 249.5668083 126.6290114
v -150.7167446 249.4836883 126.5917307
v -150.3511480 249.1891740 126.5467415
v -149.8948421 248.7637656 126.2813894
v -150.2089230 248.2381646 126.4578814
v -149.9096639 248.3452542 126.2499658
v -150.4605845 247.8746619 126.4172582
v -150.8159088 247.3918197 126.1535533
v -151.2246581 247.3597062 126.1222965
v -151.6039899 247.4550772 126.0966558
v -151.6778933 247.7929125 126.2999213
v -152.0912574 248.4528599 126.2282733
v -152.0152959 249.0090515 126.1762518
v -151.5964508 249.4406591 125.5730679
v -151.2132575 249.5640418 125.5341087
v -150.7022468 249.4805167 125.4867710
v -150.2693774 249.0865653 125.4357656
v -150.0581097 249.0869692 125.2624008
v -150.2332431 248.1736554 125.3552193
v -150.0748626 248.1739055 125.2254503
v -150.1334013 248.0612023 125.2200335
v -150.1024907 248.1166648 125.2226485
v -150.4985090 247.6762864 125.1982142
v -150.5487820 247.8060335 125.3087096
v -150.9793757 247.6165191 125.2665589
v -150.2370942 247.9102733 125.2122314
v -151.6236468 247.7425631 125.2081128
v -151.2972310 247.5401436 125.1607483
v -151.6413975 247.6769767 125.1440751
v -151.9755791 248.1188163 125.1598110
v -151.9522428 247.9756122 125.1251842
v -152.0990063 248.5622622 125.1197546
v -152.1315528 248.4876663 125.0989446
v -152.0340072 248.9442921 125.0803150
v -152.0154623 248.9676837 125.0812518
v -152.0004857 249.0015357 125.0778896
v -151.9842097 249.0347722 125.0745275
v -151.9665660 249.0674616 125.0711653
v -151.7641825 249.2407268 125.0021695
v -151.5766459 249.4616374 126.1193180
v -151.1314780 249.5647124 126.0791791
v -150.8374860 249.8027178 125.8352866
v -150.7237724 249.4849804 126.0388669
v -150.4321703 249.2786875 126.0092174
v -150.1557344 248.7147221 125.9516903
v -150.1933270 248.2938730 125.9134356
v -150.4444518 247.8749424 125.8697206
v -151.6266144 247.7580441 125.7556429
v -151.9594817 248.0778624 125.7131976
v -151.9598693 247.6736520 125.5170810
v -152.0999894 248.5840476 125.6640600
v -151.9415410 249.1354274 125.6146351
v -151.9649395 248.9279417 124.9999099
v -152.0282255 248.4691449 124.9999104
v -151.8541834 248.0564711 124.9999897
v -152.0866814 249.0091747 125.1467575
v -151.5510973 247.7888306 124.9999744
v -150.9421605 247.5231694 125.1761480
v -151.1146547 247.6816425 124.9999756
v -150.5818982 247.8391125 124.9997737
v -150.2732541 248.2619540 124.9999352
v -150.0110724 248.3414162 125.2328315
v -150.2215752 248.7833350 124.9998418
v -149.9714540 248.6867451 125.2481726
v -150.4575200 249.2104042 124.9999697
v -150.3481924 249.5078266 125.2858166
v -150.7499295 249.4198314 124.9999730
v -150.7581614 249.7456734 125.3032067
v -151.1019268 249.4984162 124.9999696
v -151.0610934 249.8112844 125.3163258
v -151.4316956 249.4441461 124.9999410
v -151.5387942 249.7619226 125.3339832
v -149.8914461 248.5069565 126.1558497
v -150.1683417 247.8067658 126.1027568
v -150.8994539 247.6405624 125.8250175
v -151.2555716 247.6284690 125.7919995
v -151.7161080 247.5050395 125.9758665
v -152.0650729 247.7945980 125.9471348
v -150.3302913 249.5513596 125.6874150
v -150.0369832 249.1833891 125.6550665
v -150.1489128 248.6466790 125.3965699
v -151.0899385 247.3497625 125.4748978
v -151.5761647 247.4418542 125.4399027
v -152.3326141 248.3496062 125.3550388
v -152.0248411 249.4334783 126.3715439
v -151.1822956 249.8337772 126.3019916
v -150.2939022 249.5073058 126.2348807
v -150.2492707 249.0244988 125.9810518
v -150.1701639 248.3839520 128.1228054
v -150.7473738 247.4165347 128.2519670
v -151.0920810 247.3555179 128.2242258
v -151.9192331 248.0264594 127.9198785
v -151.8426892 249.2388286 127.8014481
v -151.2425886 249.5551978 127.7397581
v -151.6123817 247.4597918 127.6383829
v -151.8932382 247.9963945 127.3741524
v -152.0764785 248.3768659 127.3360756
v -152.2861188 248.9996913 127.5074206
v -152.1222575 249.3222557 127.4823853
v -150.0429207 249.1941803 127.3056593
v -150.8235111 247.6691279 126.9318518
v -151.6375255 247.7628917 126.8554255
v -152.2094393 247.9996205 127.0304094
v -152.0616890 249.3903867 126.9247816
v -151.8069981 249.6233315 126.9001545
v -150.9383896 249.8194470 126.8369550
v -150.4933808 249.6576716 126.8025013
v -150.7967218 247.4017849 126.5981105
v -151.3309710 247.6406108 126.3342107
v -151.5871564 247.4479955 126.5408869
v -152.1943627 247.9719013 126.4810403
v -151.9837881 248.1390418 130.1078292
v -151.8996712 249.5519348 130.2092545
v -149.8882967 248.6280354 130.0138188
v -149.9258930 248.2685660 129.9886612
v -151.0688485 247.3522369 129.8783291
v -151.5303902 247.7047540 129.6136411
v -151.9166053 249.5388967 129.6620986
v -151.5687342 249.7472022 129.6311838
v -150.4909761 249.6565431 129.5505383
v -151.9557449 247.6784634 129.2568911
v -152.1927100 247.9769614 129.2315221
v -152.0880563 248.4741231 128.9764464
v -152.2475015 249.1135504 129.1494967
v -149.8867187 248.6163532 128.9140788
v -149.9336857 248.2477674 128.8864078
v -152.1906574 247.9732835 128.6831479
v -151.9129112 249.5392328 128.5607156
v -150.2529585 249.0310774 128.1821373
f 2 41 1
f 3 2 1
f 3 1 4
f 5 3 4
f 7 5 4
f 7 4 6
f 9 7 6
f 9 6 8
f 10 9 8
f 10 8 11
f 13 10 11
f 13 11 12
f 13 12 14
f 15 13 14
f 606 15 14
f 606 14 16
f 18 606 16
f 17 606 18
f 22 606 17
f 18 16 19
f 23 18 19
f 23 19 21
f 26 22 20
f 593 23 21
f 593 21 25
f 27 26 24
f 595 593 25
f 30 27 28
f 597 25 29
f 597 595 25
f 33 30 28
f 598 29 32
f 598 597 29
f 35 33 31
f 598 32 34
f 38 35 36
f 39 598 34
f 39 34 37
f 609 38 40
f 43 39 37
f 43 37 41
f 611 609 42
f 2 43 41
f 17 721 22
f 721 20 22
f 20 24 26
f 24 28 27
f 28 31 33
f 31 36 35
f 36 40 38
f 40 42 609
f 722 611 42
f 44 611 722
f 44 722 723
f 45 44 723
f 46 45 723
f 47 45 46
f 724 47 46
f 49 47 724
f 48 49 724
f 51 49 48
f 50 51 48
f 53 51 50
f 52 53 50
f 55 53 52
f 54 55 52
f 57 55 54
f 56 57 54
f 59 57 56
f 58 59 56
f 725 59 58
f 60 59 725
f 726 60 725
f 61 60 726
f 727 61 726
f 62 61 727
f 64 62 727
f 63 64 727
f 65 64 63
f 728 65 63
f 67 65 728
f 66 67 728
f 69 67 66
f 68 69 66
f 71 69 68
f 70 71 68
f 619 71 70
f 619 70 729
f 620 619 729
f 730 620 729
f 622 620 730
f 731 622 730
f 73 622 731
f 72 73 731
f 75 73 72
f 74 75 72
f 76 75 74
f 732 76 74
f 78 76 732
f 77 78 732
f 79 78 77
f 80 78 79
f 81 80 79
f 82 80 81
f 83 82 81
f 733 83 81
f 85 83 733
f 84 85 733
f 87 85 84
f 86 87 84
f 89 87 86
f 88 89 86
f 91 89 88
f 90 91 88
f 93 91 90
f 92 93 90
f 95 93 92
f 95 92 94
f 97 95 94
f 97 94 96
f 98 97 96
f 98 96 735
f 648 98 735
f 648 735 99
f 100 648 99
f 101 100 99
f 102 100 101
f 737 102 101
f 104 102 737
f 103 104 737
f 106 104 103
f 105 106 103
f 652 106 105
f 107 652 105
f 653 652 107
f 108 653 107
f 654 653 108
f 109 654 108
f 110 654 109
f 738 110 109
f 657 110 738
f 739 657 738
f 111 657 739
f 740 111 739
f 112 111 740
f 113 112 740
f 114 112 113
f 660 114 113
f 115 660 113
f 117 660 115
f 116 117 115
f 662 117 116
f 118 662 116
f 119 662 118
f 741 119 118
f 121 119 741
f 120 121 741
f 664 121 120
f 122 664 120
f 697 122 120
f 698 122 697
f 666 122 698
f 699 666 698
f 667 666 699
f 669 667 699
f 700 669 699
f 124 669 700
f 123 124 700
f 671 124 123
f 701 671 123
f 126 671 701
f 125 126 701
f 127 126 125
f 702 127 125
f 128 127 702
f 129 128 702
f 130 128 129
f 703 130 129
f 131 130 703
f 132 131 703
f 675 131 132
f 677 675 132
f 133 677 132
f 134 677 133
f 704 134 133
f 136 134 704
f 135 136 704
f 138 136 135
f 138 135 137
f 139 138 137
f 140 139 137
f 705 140 137
f 141 140 705
f 142 140 141
f 143 142 141
f 706 143 141
f 707 143 706
f 681 143 707
f 144 681 707
f 146 681 144
f 145 146 144
f 147 146 145
f 709 147 145
f 148 147 709
f 710 148 709
f 685 148 710
f 150 685 710
f 149 150 710
f 152 150 149
f 151 152 149
f 154 152 151
f 153 154 151
f 157 154 153
f 155 157 153
f 156 157 155
f 159 157 156
f 158 159 156
f 160 159 158
f 160 158 161
f 162 160 161
f 164 162 161
f 163 164 161
f 166 164 163
f 165 166 163
f 168 166 165
f 167 168 165
f 170 168 167
f 169 170 167
f 170 169 171
f 172 170 171
f 172 171 711
f 175 172 711
f 175 711 173
f 175 173 174
f 177 175 174
f 176 177 174
f 178 177 176
f 179 178 176
f 712 179 176
f 695 179 712
f 713 695 712
f 182 695 713
f 180 182 713
f 181 182 180
f 183 182 181
f 185 183 181
f 185 181 184
f 187 185 184
f 186 187 184
f 189 187 186
f 188 189 186
f 191 189 188
f 190 191 188
f 193 191 190
f 192 193 190
f 966 192 194
f 966 193 192
f 715 966 194
f 195 966 715
f 195 715 716
f 197 195 716
f 196 197 716
f 198 197 196
f 717 198 196
f 199 198 717
f 718 199 717
f 201 199 718
f 200 201 718
f 967 201 200
f 202 967 200
f 968 967 202
f 203 968 202
f 204 968 203
f 205 204 203
f 719 205 203
f 206 205 719
f 720 206 719
f 969 206 720
f 207 969 720
f 210 969 207
f 208 210 207
f 209 210 208
f 212 210 209
f 211 212 209
f 213 212 211
f 751 213 211
f 214 213 751
f 753 214 751
f 214 753 215
f 216 214 215
f 971 216 215
f 971 215 756
f 972 756 217
f 972 971 756
f 972 217 218
f 219 972 218
f 220 219 218
f 221 219 220
f 758 221 220
f 973 221 758
f 222 973 758
f 223 973 222
f 225 223 222
f 224 225 222
f 227 225 224
f 226 227 224
f 229 227 226
f 228 229 226
f 231 229 228
f 230 231 228
f 233 231 230
f 232 233 230
f 234 233 232
f 762 234 232
f 235 234 762
f 763 235 762
f 974 235 763
f 236 974 763
f 975 974 236
f 237 975 236
f 766 237 236
f 238 237 766
f 768 238 766
f 977 238 768
f 770 977 768
f 239 977 770
f 240 239 770
f 241 239 240
f 243 241 240
f 242 243 240
f 773 243 242
f 244 243 773
f 245 244 773
f 775 245 773
f 246 245 775
f 248 245 246
f 247 248 246
f 249 248 247
f 978 249 247
f 778 978 247
f 979 978 778
f 780 979 778
f 250 979 780
f 252 979 250
f 251 252 250
f 254 252 251
f 253 254 251
f 256 254 253
f 255 256 253
f 258 256 255
f 257 258 255
f 260 258 257
f 259 260 257
f 980 260 259
f 261 980 259
f 263 980 261
f 262 263 261
f 265 263 262
f 264 265 262
f 267 265 264
f 266 267 264
f 981 267 266
f 268 981 266
f 270 981 268
f 269 270 268
f 271 270 269
f 787 271 269
f 789 271 787
f 272 271 789
f 274 272 789
f 273 274 789
f 791 274 273
f 275 274 791
f 792 275 791
f 276 275 792
f 277 276 792
f 278 276 277
f 279 278 277
f 279 277 795
f 280 279 795
f 796 280 795
f 943 280 796
f 281 943 796
f 944 943 281
f 282 944 281
f 283 944 282
f 799 283 282
f 285 283 799
f 284 285 799
f 287 285 284
f 286 287 284
f 290 287 286
f 288 290 286
f 290 288 289
f 292 290 289
f 291 292 289
f 293 292 291
f 294 293 291
f 295 293 294
f 297 295 294
f 297 294 296
f 299 297 296
f 298 299 296
f 302 299 298
f 300 302 298
f 301 302 300
f 303 302 301
f 305 303 301
f 304 305 301
f 305 304 817
f 307 305 817
f 307 817 306
f 309 307 306
f 309 306 308
f 310 309 308
f 310 308 311
f 313 310 311
f 313 311 312
f 315 313 312
f 315 312 314
f 948 315 314
f 948 314 316
f 317 948 316
f 317 316 318
f 319 317 318
f 319 318 824
f 320 319 824
f 320 824 825
f 951 320 825
f 951 825 321
f 952 951 321
f 322 952 321
f 323 952 322
f 827 323 322
f 324 323 827
f 828 324 827
f 326 324 828
f 325 326 828
f 328 326 325
f 327 328 325
f 330 328 327
f 329 330 327
f 831 330 329
f 953 330 831
f 331 953 831
f 833 331 831
f 333 331 833
f 332 333 833
f 335 333 332
f 334 335 332
f 337 335 334
f 336 337 334
f 338 337 336
f 836 338 336
f 339 338 836
f 837 339 836
f 340 339 837
f 838 340 837
f 341 340 838
f 956 340 341
f 342 956 341
f 343 956 342
f 345 343 342
f 344 345 342
f 347 345 344
f 346 347 344
f 957 347 346
f 958 957 346
f 348 958 346
f 350 958 348
f 349 350 348
f 959 350 349
f 959 349 351
f 960 959 351
f 960 351 844
f 352 960 844
f 352 844 846
f 354 352 846
f 354 846 353
f 356 354 353
f 356 353 355
f 358 356 355
f 358 355 357
f 360 358 357
f 360 357 359
f 961 360 359
f 961 359 361
f 363 961 361
f 363 361 362
f 963 363 362
f 963 362 848
f 364 963 848
f 364 848 849
f 964 364 849
f 964 849 851
f 366 964 851
f 366 851 365
f 367 366 365
f 368 366 367
f 369 368 367
f 938 368 369
f 938 369 370
f 372 938 370
f 371 372 370
f 939 372 371
f 373 939 371
f 375 939 373
f 374 375 373
f 940 375 374
f 376 940 374
f 377 940 376
f 378 377 376
f 857 378 376
f 926 378 857
f 859 926 857
f 380 926 859
f 379 380 859
f 927 380 379
f 381 927 379
f 382 927 381
f 861 382 381
f 383 382 861
f 862 383 861
f 384 383 862
f 863 384 862
f 930 384 863
f 385 930 863
f 931 930 385
f 386 931 385
f 388 931 386
f 387 388 386
f 390 388 387
f 390 387 389
f 391 390 389
f 393 391 389
f 392 393 389
f 395 393 392
f 394 395 392
f 397 395 394
f 396 397 394
f 398 397 396
f 895 398 396
f 399 398 895
f 932 399 895
f 400 932 895
f 401 932 400
f 933 932 401
f 403 933 401
f 402 403 401
f 406 403 402
f 406 402 404
f 406 404 405
f 408 406 405
f 408 405 407
f 410 408 407
f 409 410 407
f 935 410 409
f 411 935 409
f 935 411 412
f 936 935 412
f 936 412 903
f 413 936 903
f 415 413 903
f 415 903 414
f 937 415 414
f 937 414 416
f 418 937 416
f 417 418 416
f 419 418 417
f 420 419 417
f 421 419 420
f 422 25 21
f 422 21 425
f 423 25 422
f 21 19 425
f 424 25 423
f 425 19 426
f 19 16 426
f 424 29 25
f 427 29 424
f 426 16 429
f 428 29 427
f 16 14 429
f 428 32 29
f 429 14 431
f 430 32 428
f 14 12 431
f 430 34 32
f 12 433 431
f 430 432 34
f 11 433 12
f 34 432 37
f 11 435 433
f 432 434 37
f 8 435 11
f 37 434 41
f 6 437 8
f 8 437 435
f 434 436 41
f 41 436 1
f 6 439 437
f 4 439 6
f 436 438 1
f 1 438 4
f 438 439 4
f 440 427 424
f 469 440 424
f 469 424 423
f 471 469 423
f 441 471 423
f 441 423 422
f 476 441 422
f 442 476 422
f 442 422 425
f 443 442 425
f 443 425 426
f 444 443 426
f 488 426 429
f 488 444 426
f 489 488 429
f 445 489 429
f 445 429 431
f 446 445 431
f 498 446 431
f 498 431 433
f 501 498 433
f 447 501 433
f 447 433 435
f 448 447 435
f 449 448 435
f 449 435 437
f 450 449 437
f 451 450 437
f 451 437 439
f 452 451 439
f 453 452 439
f 522 453 439
f 522 439 438
f 454 522 438
f 455 454 438
f 455 438 436
f 456 455 436
f 457 456 436
f 457 436 434
f 458 457 434
f 459 458 434
f 459 434 432
f 539 459 432
f 460 539 432
f 460 432 430
f 461 460 430
f 548 461 430
f 548 430 428
f 462 548 428
f 555 462 428
f 463 428 427
f 463 555 428
f 463 463 427
f 463 463 427
f 440 463 427
f 464 463 463
f 464 463 463
f 464 463 440
f 464 555 463
f 467 465 440
f 470 466 465
f 467 440 469
f 470 465 467
f 472 468 466
f 471 467 469
f 472 466 470
f 473 472 470
f 473 470 467
f 474 473 467
f 474 467 471
f 474 471 441
f 477 472 473
f 478 473 474
f 475 474 441
f 477 473 478
f 475 441 476
f 478 474 475
f 442 475 476
f 479 475 442
f 479 478 475
f 480 477 478
f 481 479 442
f 480 478 479
f 481 442 443
f 482 479 481
f 482 480 479
f 483 481 443
f 485 482 481
f 444 483 443
f 484 480 482
f 485 481 483
f 484 495 480
f 484 482 485
f 486 485 483
f 486 483 444
f 487 486 444
f 487 444 488
f 484 485 486
f 490 484 486
f 491 488 489
f 491 487 488
f 492 486 487
f 495 484 490
f 490 486 492
f 491 492 487
f 496 495 490
f 445 491 489
f 496 490 492
f 493 491 445
f 493 492 491
f 494 492 493
f 494 496 492
f 446 493 445
f 497 494 493
f 497 496 494
f 497 493 446
f 500 496 497
f 499 446 498
f 502 497 446
f 502 446 499
f 508 495 496
f 508 496 500
f 500 497 502
f 501 499 498
f 504 499 501
f 504 502 499
f 506 500 502
f 506 508 500
f 503 504 501
f 503 501 447
f 506 502 504
f 505 504 503
f 507 503 447
f 507 447 448
f 506 504 505
f 505 503 507
f 511 506 505
f 508 506 511
f 509 507 448
f 510 507 509
f 505 507 510
f 509 448 449
f 512 508 511
f 511 505 510
f 514 509 449
f 513 511 510
f 513 510 509
f 512 511 513
f 515 514 449
f 514 513 509
f 515 449 450
f 519 512 513
f 516 513 514
f 516 514 515
f 451 515 450
f 517 513 516
f 517 519 513
f 518 515 451
f 518 516 515
f 520 516 518
f 518 451 452
f 520 517 516
f 520 518 452
f 521 519 517
f 521 517 520
f 523 452 453
f 521 520 524
f 523 520 452
f 524 520 523
f 523 453 522
f 525 523 522
f 526 524 523
f 525 522 454
f 525 526 523
f 527 521 524
f 527 524 526
f 528 525 454
f 527 532 521
f 529 454 455
f 528 526 525
f 529 528 454
f 531 526 528
f 529 455 456
f 527 526 531
f 530 528 529
f 457 529 456
f 531 528 530
f 532 527 531
f 530 529 457
f 534 530 457
f 534 531 530
f 533 534 457
f 535 531 534
f 458 533 457
f 535 532 531
f 536 535 534
f 537 533 458
f 536 534 533
f 459 537 458
f 537 536 533
f 541 536 537
f 540 535 536
f 541 540 536
f 542 535 540
f 538 459 539
f 538 537 459
f 541 537 538
f 544 538 539
f 543 540 541
f 545 541 538
f 544 539 460
f 543 541 545
f 542 540 543
f 545 538 544
f 544 460 461
f 547 543 545
f 547 542 543
f 546 544 461
f 549 545 544
f 549 544 546
f 548 546 461
f 549 547 545
f 554 542 547
f 550 546 548
f 551 547 549
f 549 546 550
f 554 547 551
f 462 550 548
f 553 549 550
f 554 551 552
f 553 551 549
f 552 551 553
f 553 550 462
f 556 462 555
f 557 553 462
f 552 553 557
f 556 557 462
f 558 552 557
f 555 464 440
f 556 555 440
f 468 554 552
f 556 440 465
f 556 465 466
f 468 552 558
f 466 557 556
f 558 557 466
f 558 466 468
f 559 468 472
f 559 472 477
f 559 477 480
f 560 480 495
f 560 559 480
f 508 560 495
f 561 554 468
f 561 468 559
f 542 554 561
f 562 560 508
f 512 562 508
f 563 542 561
f 535 542 563
f 512 564 562
f 519 564 512
f 532 535 563
f 521 564 519
f 532 563 564
f 521 532 564
f 559 560 565
f 565 560 566
f 561 559 567
f 567 559 565
f 563 561 568
f 568 561 567
f 564 563 569
f 569 563 568
f 562 564 570
f 570 564 569
f 560 562 566
f 566 562 570
f 565 566 570
f 567 570 569
f 567 569 568
f 567 565 570
f 7 573 5
f 10 604 9
f 13 605 10
f 30 608 27
f 38 578 35
f 45 613 44
f 51 579 49
f 53 615 51
f 71 585 69
f 619 586 71
f 75 736 73
f 76 624 75
f 78 625 76
f 87 628 85
f 23 592 18
f 18 592 571
f 593 594 23
f 23 594 592
f 596 593 595
f 594 593 596
f 596 595 572
f 572 595 597
f 572 597 599
f 599 597 598
f 599 598 600
f 598 39 600
f 39 43 600
f 600 43 601
f 602 2 3
f 43 2 601
f 601 2 602
f 602 3 603
f 3 5 603
f 603 5 573
f 9 604 7
f 7 604 573
f 604 10 605
f 574 605 13
f 13 15 574
f 574 15 606
f 574 606 575
f 575 606 22
f 575 22 607
f 22 26 607
f 607 26 608
f 27 608 26
f 30 576 608
f 30 33 576
f 576 33 577
f 33 578 577
f 35 578 33
f 609 610 38
f 38 610 578
f 612 609 611
f 610 609 612
f 612 611 44
f 612 44 613
f 47 613 45
f 614 613 47
f 579 614 47
f 49 579 47
f 51 615 579
f 615 53 580
f 580 55 581
f 53 55 580
f 55 57 581
f 581 57 616
f 616 57 582
f 57 59 582
f 60 617 59
f 59 617 582
f 61 583 60
f 60 583 617
f 61 62 583
f 583 62 618
f 62 64 618
f 618 64 734
f 734 65 584
f 64 65 734
f 65 67 584
f 67 69 584
f 584 69 585
f 585 71 586
f 621 619 620
f 586 619 621
f 621 620 587
f 587 620 622
f 73 623 622
f 622 623 587
f 73 736 623
f 736 75 624
f 625 624 76
f 625 78 626
f 78 80 626
f 80 82 626
f 626 82 588
f 83 627 82
f 82 627 588
f 83 85 627
f 627 85 628
f 629 628 87
f 87 89 629
f 629 89 589
f 89 91 589
f 91 93 589
f 589 93 631
f 95 630 93
f 93 630 631
f 630 95 590
f 590 95 97
f 98 591 97
f 97 591 590
f 571 17 18
f 98 632 591
f 117 635 660
f 122 665 664
f 671 672 124
f 127 638 126
f 134 678 639
f 139 640 138
f 140 679 139
f 143 641 142
f 150 642 685
f 160 644 714
f 166 689 164
f 177 645 175
f 178 645 177
f 179 694 178
f 695 646 179
f 98 648 632
f 632 648 100
f 102 649 100
f 100 649 632
f 102 633 649
f 102 104 633
f 633 104 650
f 650 106 651
f 104 106 650
f 651 652 655
f 106 652 651
f 655 652 653
f 655 653 654
f 656 654 110
f 655 654 656
f 658 656 110
f 658 657 659
f 110 657 658
f 657 111 659
f 111 112 659
f 659 112 634
f 112 114 634
f 634 114 661
f 114 660 661
f 661 660 635
f 662 663 117
f 117 663 635
f 663 662 636
f 636 662 119
f 121 636 119
f 121 664 636
f 636 664 665
f 122 637 665
f 122 666 637
f 637 666 668
f 708 667 669
f 668 667 708
f 666 667 668
f 670 669 124
f 708 669 670
f 672 670 124
f 672 671 126
f 126 638 672
f 127 673 638
f 128 673 127
f 674 128 130
f 673 128 674
f 130 131 674
f 674 131 676
f 639 675 677
f 131 675 676
f 676 675 639
f 639 677 134
f 134 136 678
f 136 138 678
f 678 138 640
f 640 139 679
f 641 679 140
f 140 142 641
f 143 680 641
f 143 681 680
f 680 681 682
f 682 681 683
f 683 681 146
f 683 147 684
f 146 147 683
f 684 148 642
f 147 148 684
f 148 685 642
f 150 686 642
f 687 686 150
f 150 152 687
f 152 154 687
f 687 154 643
f 157 688 154
f 154 688 643
f 159 688 157
f 714 688 159
f 159 160 714
f 160 162 644
f 162 164 644
f 644 164 689
f 168 689 166
f 690 689 168
f 168 170 690
f 690 170 691
f 172 691 170
f 692 691 172
f 175 692 172
f 693 692 175
f 645 693 175
f 178 694 645
f 646 694 179
f 646 695 182
f 696 182 183
f 646 182 696
f 185 696 183
f 647 696 185
f 632 120 591
f 591 120 741
f 651 123 700
f 634 133 132
f 678 158 639
f 678 161 158
f 688 186 184
f 644 190 714
f 693 200 718
f 646 720 719
f 696 208 207
f 649 697 632
f 632 697 120
f 649 698 697
f 633 698 649
f 633 699 698
f 650 699 633
f 651 700 650
f 650 700 699
f 655 123 651
f 655 701 123
f 656 125 655
f 655 125 701
f 656 702 125
f 658 702 656
f 659 129 658
f 658 129 702
f 659 703 129
f 659 634 703
f 634 132 703
f 634 661 133
f 135 704 635
f 635 704 661
f 661 704 133
f 137 135 663
f 663 135 635
f 636 137 663
f 636 705 137
f 636 665 705
f 705 665 141
f 637 706 665
f 665 706 141
f 707 706 637
f 668 707 637
f 144 707 668
f 708 144 668
f 145 144 708
f 145 708 670
f 672 709 670
f 670 709 145
f 672 710 709
f 672 638 710
f 710 638 149
f 638 673 149
f 149 673 151
f 674 151 673
f 153 151 674
f 674 155 153
f 676 155 674
f 676 639 155
f 155 639 156
f 639 158 156
f 161 640 163
f 678 640 161
f 163 679 165
f 640 679 163
f 641 165 679
f 167 165 641
f 167 641 169
f 680 171 641
f 641 171 169
f 680 711 171
f 173 711 682
f 682 711 680
f 683 173 682
f 174 173 683
f 684 174 683
f 176 174 684
f 176 684 642
f 642 712 176
f 642 713 712
f 180 713 687
f 686 713 642
f 687 713 686
f 181 180 687
f 184 181 643
f 643 181 687
f 643 688 184
f 188 688 714
f 188 186 688
f 188 714 190
f 192 190 644
f 689 192 644
f 194 192 689
f 690 715 689
f 689 715 194
f 196 716 690
f 690 716 715
f 691 196 690
f 691 717 196
f 692 717 691
f 693 718 692
f 692 718 717
f 202 693 645
f 200 693 202
f 203 202 645
f 645 694 203
f 694 719 203
f 646 719 694
f 207 720 646
f 646 696 207
f 647 208 696
f 209 208 647
f 596 28 24
f 578 728 63
f 581 79 77
f 582 81 79
f 624 103 737
f 626 108 107
f 592 721 571
f 20 721 592
f 571 721 17
f 594 20 592
f 24 20 594
f 594 596 24
f 28 596 572
f 31 572 599
f 28 572 31
f 36 599 600
f 31 599 36
f 40 36 600
f 600 601 40
f 40 601 42
f 602 722 601
f 601 722 42
f 603 723 602
f 602 723 722
f 46 603 573
f 723 603 46
f 573 724 46
f 604 724 573
f 48 724 604
f 50 48 605
f 605 48 604
f 52 50 574
f 574 50 605
f 54 52 574
f 574 575 54
f 54 575 56
f 575 607 56
f 56 607 58
f 608 725 607
f 607 725 58
f 608 726 725
f 576 727 608
f 608 727 726
f 576 577 727
f 727 577 63
f 578 63 577
f 610 728 578
f 66 728 610
f 612 66 610
f 68 66 612
f 70 68 612
f 612 729 70
f 613 729 612
f 614 730 613
f 613 730 729
f 579 731 614
f 614 731 730
f 731 579 72
f 579 615 72
f 72 615 74
f 615 580 74
f 580 732 74
f 580 581 732
f 732 581 77
f 581 616 79
f 79 616 582
f 617 733 582
f 582 733 81
f 617 583 733
f 733 583 84
f 618 84 583
f 86 84 618
f 88 618 734
f 86 618 88
f 90 734 584
f 88 734 90
f 92 90 584
f 584 585 92
f 585 586 92
f 92 586 94
f 586 621 94
f 94 621 96
f 621 735 96
f 99 735 587
f 587 735 621
f 99 623 101
f 587 623 99
f 623 736 101
f 624 737 736
f 736 737 101
f 105 624 625
f 103 624 105
f 105 625 107
f 107 625 626
f 588 108 626
f 109 108 588
f 627 109 588
f 628 738 627
f 627 738 109
f 629 739 628
f 628 739 738
f 740 629 589
f 739 629 740
f 113 740 589
f 589 631 113
f 116 115 630
f 630 115 631
f 631 115 113
f 118 116 590
f 590 116 630
f 590 741 118
f 591 741 590
f 777 247 246
f 797 282 281
f 209 965 211
f 647 965 209
f 752 751 965
f 965 751 211
f 752 753 751
f 752 754 753
f 753 754 215
f 755 756 754
f 754 756 215
f 217 756 755
f 218 217 755
f 220 218 757
f 757 218 755
f 757 758 220
f 759 758 757
f 758 759 222
f 222 759 742
f 224 742 743
f 222 742 224
f 226 224 743
f 228 226 760
f 760 226 743
f 761 228 760
f 230 228 761
f 232 761 744
f 230 761 232
f 970 762 744
f 744 762 232
f 764 763 970
f 970 763 762
f 764 765 763
f 763 765 236
f 767 766 765
f 765 766 236
f 767 768 766
f 769 770 767
f 767 770 768
f 769 771 770
f 770 771 240
f 771 772 240
f 240 772 242
f 772 773 242
f 774 773 772
f 776 775 774
f 774 775 773
f 246 776 777
f 775 776 246
f 779 778 777
f 777 778 247
f 250 780 745
f 779 780 778
f 745 780 779
f 251 745 781
f 251 250 745
f 251 781 253
f 782 253 781
f 255 253 782
f 257 782 783
f 255 782 257
f 746 257 783
f 259 257 746
f 261 259 746
f 976 261 746
f 262 261 976
f 976 784 262
f 262 784 264
f 785 264 784
f 266 264 785
f 266 785 268
f 785 786 268
f 268 786 269
f 786 787 269
f 788 787 786
f 788 789 787
f 747 789 788
f 273 747 790
f 789 747 273
f 790 791 273
f 790 792 791
f 793 792 790
f 793 277 792
f 793 795 277
f 794 795 793
f 797 796 794
f 794 796 795
f 281 796 797
f 797 748 282
f 798 799 748
f 284 799 798
f 748 799 282
f 798 800 284
f 284 800 286
f 801 286 800
f 288 286 801
f 288 801 289
f 289 801 749
f 291 289 749
f 294 291 802
f 802 291 749
f 296 802 750
f 294 802 296
f 298 296 750
f 803 298 750
f 300 298 803
f 301 803 982
f 300 803 301
f 804 301 982
f 304 301 804
f 820 311 819
f 839 344 342
f 842 351 349
f 954 359 847
f 858 379 859
f 962 863 862
f 866 392 389
f 942 817 804
f 306 817 942
f 804 817 304
f 942 818 306
f 306 818 308
f 818 819 308
f 308 819 311
f 311 820 312
f 820 821 312
f 312 821 314
f 821 822 314
f 314 822 316
f 318 316 945
f 945 316 822
f 823 824 945
f 945 824 318
f 823 825 824
f 823 826 825
f 825 826 321
f 322 946 805
f 826 946 321
f 321 946 322
f 805 827 322
f 828 827 805
f 947 828 805
f 829 828 947
f 325 828 829
f 327 829 806
f 325 829 327
f 329 327 830
f 830 327 806
f 807 831 830
f 830 831 329
f 832 833 807
f 807 833 831
f 332 832 808
f 833 832 332
f 334 332 808
f 808 834 334
f 334 834 336
f 834 835 336
f 809 836 835
f 835 836 336
f 809 837 836
f 949 838 809
f 809 838 837
f 341 838 949
f 949 950 341
f 341 950 342
f 342 950 839
f 344 839 346
f 840 346 839
f 348 346 840
f 840 841 348
f 348 842 349
f 841 842 348
f 843 351 842
f 843 844 351
f 845 846 843
f 843 846 844
f 353 845 810
f 846 845 353
f 355 353 810
f 847 355 810
f 357 355 847
f 357 847 359
f 811 359 954
f 361 359 811
f 361 811 362
f 811 848 362
f 955 848 811
f 955 849 848
f 850 849 955
f 850 851 849
f 365 851 812
f 812 851 850
f 852 365 812
f 367 365 852
f 367 852 813
f 813 369 367
f 370 369 813
f 371 370 853
f 853 370 813
f 853 854 371
f 371 854 373
f 854 855 373
f 373 855 374
f 856 374 855
f 376 374 856
f 376 856 814
f 814 857 376
f 814 859 857
f 858 859 814
f 381 858 860
f 379 858 381
f 381 860 815
f 815 861 381
f 815 862 861
f 962 862 815
f 385 863 864
f 864 863 962
f 864 816 385
f 385 816 386
f 387 386 865
f 865 386 816
f 389 387 866
f 866 387 865
f 905 420 417
f 867 421 905
f 905 421 420
f 925 421 867
f 868 925 867
f 925 868 923
f 869 921 868
f 868 921 923
f 921 869 919
f 871 919 870
f 934 872 915
f 874 872 879
f 875 872 874
f 873 872 875
f 872 876 879
f 877 876 872
f 878 876 877
f 870 919 869
f 934 917 870
f 870 917 871
f 934 915 917
f 872 873 915
f 878 911 876
f 878 881 911
f 880 881 878
f 880 882 881
f 880 884 882
f 883 884 880
f 883 886 884
f 885 886 883
f 885 887 886
f 889 889 888
f 888 889 887
f 889 890 889
f 890 890 889
f 890 891 890
f 891 892 890
f 394 392 893
f 893 392 866
f 396 394 893
f 894 396 893
f 896 895 894
f 894 895 396
f 895 896 400
f 897 400 896
f 401 400 897
f 897 941 401
f 401 898 402
f 941 898 401
f 899 402 898
f 404 402 899
f 404 899 405
f 405 899 900
f 407 405 900
f 409 407 928
f 928 407 900
f 411 409 928
f 412 411 929
f 929 411 928
f 901 412 929
f 903 901 902
f 901 903 412
f 903 902 414
f 416 902 904
f 414 902 416
f 904 417 416
f 905 417 904
f 890 892 906
f 889 890 906
f 887 889 906
f 886 887 906
f 886 906 907
f 884 907 908
f 884 886 907
f 419 892 909
f 892 419 421
f 909 418 419
f 884 908 910
f 882 884 910
f 881 910 912
f 881 882 910
f 911 881 912
f 911 912 913
f 913 876 911
f 879 876 913
f 914 874 879
f 914 879 913
f 915 873 914
f 875 875 874
f 875 873 875
f 875 914 873
f 875 874 914
f 915 914 916
f 917 915 916
f 871 917 916
f 871 916 918
f 919 871 918
f 919 918 920
f 921 919 920
f 921 920 922
f 923 921 922
f 922 925 923
f 925 922 924
f 924 421 925
f 421 924 892
f 908 892 924
f 908 907 906
f 908 906 892
f 908 924 922
f 910 908 922
f 910 922 920
f 912 920 918
f 912 910 920
f 912 918 916
f 912 914 913
f 912 916 914
f 941 378 898
f 899 926 380
f 378 926 898
f 898 926 899
f 900 899 380
f 380 927 900
f 900 927 382
f 928 900 382
f 383 928 382
f 384 929 383
f 383 929 928
f 929 930 901
f 384 930 929
f 902 901 931
f 931 901 930
f 902 931 388
f 902 388 904
f 388 390 904
f 904 391 905
f 390 391 904
f 391 393 905
f 393 395 905
f 905 395 867
f 395 397 867
f 867 397 868
f 397 398 868
f 868 399 869
f 398 399 868
f 399 932 869
f 870 932 933
f 869 932 870
f 870 933 403
f 403 934 870
f 403 406 934
f 934 406 872
f 408 872 406
f 872 408 877
f 877 408 410
f 877 410 878
f 410 935 878
f 878 935 880
f 880 935 936
f 413 880 936
f 883 880 413
f 413 415 883
f 885 937 418
f 883 937 885
f 415 937 883
f 909 887 418
f 418 887 885
f 909 888 887
f 909 889 888
f 909 890 889
f 909 891 890
f 909 892 891
f 866 938 893
f 893 938 372
f 372 939 893
f 893 939 894
f 896 939 375
f 894 939 896
f 375 940 896
f 896 940 897
f 897 940 377
f 377 941 897
f 377 378 941
f 280 820 819
f 285 822 283
f 297 805 295
f 305 807 303
f 309 808 307
f 310 808 309
f 315 835 313
f 948 809 315
f 331 845 953
f 338 847 337
f 338 954 847
f 354 814 352
f 363 815 961
f 963 962 363
f 938 866 368
f 278 942 276
f 276 942 804
f 942 279 818
f 278 279 942
f 279 280 818
f 818 280 819
f 820 943 944
f 280 943 820
f 820 944 821
f 821 944 283
f 821 283 822
f 285 945 822
f 285 287 945
f 945 287 823
f 287 290 823
f 823 292 826
f 290 292 823
f 293 946 292
f 292 946 826
f 805 946 293
f 293 295 805
f 829 947 297
f 297 947 805
f 829 299 806
f 297 299 829
f 299 302 806
f 806 302 830
f 830 303 807
f 302 303 830
f 832 807 305
f 307 832 305
f 808 832 307
f 808 310 834
f 834 313 835
f 310 313 834
f 809 835 315
f 809 948 317
f 319 949 317
f 317 949 809
f 319 950 949
f 319 320 950
f 950 320 839
f 839 951 952
f 320 951 839
f 840 952 323
f 839 952 840
f 840 324 841
f 323 324 840
f 324 326 841
f 841 326 842
f 326 328 842
f 842 328 843
f 328 330 843
f 330 953 843
f 843 953 845
f 845 331 810
f 331 333 810
f 333 335 810
f 810 335 847
f 335 337 847
f 811 954 338
f 338 339 811
f 340 955 339
f 339 955 811
f 850 340 956
f 955 340 850
f 812 956 343
f 850 956 812
f 343 345 812
f 812 345 852
f 852 347 813
f 345 347 852
f 813 957 958
f 347 957 813
f 853 958 350
f 813 958 853
f 854 350 959
f 853 350 854
f 855 959 960
f 854 959 855
f 856 960 352
f 855 960 856
f 856 352 814
f 356 858 354
f 354 858 814
f 858 358 860
f 356 358 858
f 860 360 815
f 358 360 860
f 360 961 815
f 363 962 815
f 864 963 364
f 962 963 864
f 964 816 364
f 364 816 864
f 816 964 865
f 865 964 366
f 866 366 368
f 865 366 866
f 189 965 187
f 191 752 189
f 213 765 212
f 214 767 213
f 971 769 216
f 231 745 229
f 237 746 975
f 238 976 237
f 245 788 244
f 263 800 980
f 276 804 275
f 187 965 185
f 185 965 647
f 965 189 752
f 191 193 752
f 752 193 754
f 193 966 754
f 754 966 755
f 755 966 195
f 755 195 197
f 197 757 755
f 198 757 197
f 757 198 759
f 759 198 199
f 742 759 199
f 199 201 742
f 742 201 743
f 743 967 968
f 201 967 743
f 760 968 204
f 743 968 760
f 761 204 205
f 760 204 761
f 205 206 761
f 761 206 744
f 206 969 744
f 210 970 969
f 969 970 744
f 212 764 210
f 210 764 970
f 764 212 765
f 765 213 767
f 767 216 769
f 214 216 767
f 771 971 972
f 769 971 771
f 771 972 772
f 772 972 219
f 772 219 774
f 774 219 221
f 774 973 776
f 221 973 774
f 973 223 776
f 776 223 777
f 223 225 777
f 225 227 777
f 777 227 779
f 745 779 229
f 229 779 227
f 781 745 231
f 231 233 781
f 233 234 781
f 781 234 782
f 234 235 782
f 782 235 783
f 783 974 746
f 235 974 783
f 974 975 746
f 237 976 746
f 238 784 976
f 977 784 238
f 784 977 785
f 785 977 239
f 239 241 785
f 785 243 786
f 241 243 785
f 243 244 786
f 786 244 788
f 747 788 245
f 245 248 747
f 747 248 790
f 248 249 790
f 793 978 979
f 790 978 793
f 249 978 790
f 793 979 252
f 252 794 793
f 252 254 794
f 794 254 797
f 254 256 797
f 797 258 748
f 256 258 797
f 748 260 798
f 258 260 748
f 260 980 798
f 798 980 800
f 800 263 801
f 263 265 801
f 801 265 749
f 265 267 749
f 802 981 270
f 267 981 749
f 749 981 802
f 802 270 750
f 270 271 750
f 271 272 750
f 750 272 803
f 272 274 803
f 803 274 982
f 275 982 274
f 804 982 275
