# Render LOD; unchanged CAD body-local coordinates in mm
v 31.9740248 143.4903026 125.7626841
v 31.4380761 144.0262508 125.9889784
v 31.7845286 143.6797985 125.4877470
v 32.1539504 143.3103771 126.0505455
v 31.6103453 143.8539817 126.2387716
v 31.2581505 144.2061763 125.7514046
v 31.5854620 143.8788650 125.2266743
v 32.3223914 143.1419362 126.3506264
v 31.7730440 143.6912831 126.5005493
v 31.0686543 144.3956723 125.5272251
v 31.3768248 144.0875020 124.9799359
v 32.4812619 142.9830658 126.6624567
v 31.9280863 143.5362410 126.7733715
v 30.8715018 144.5928247 125.3164401
v 31.1605313 144.3037954 124.7480018
v 32.6286478 142.8356801 126.9848615
v 32.0716440 143.3926834 127.0567681
v 30.6686069 144.7976334 125.1197543
v 30.9365813 144.5277452 124.5318120
v 32.7645491 142.6997789 127.3173709
v 32.2056312 143.2586964 127.3500343
v 30.4561416 145.0081845 124.9378729
v 30.7049749 144.7593514 124.3316014
v 32.3300478 143.1361939 127.6522301
v 32.8870516 142.5772764 127.6590448
v 30.2398480 145.2244779 124.7707958
v 30.4657121 144.9986140 124.1478401
v 32.4410658 143.0232619 127.9628855
v 32.9999837 142.4643445 128.0089433
v 30.0178121 145.4465136 124.6194629
v 30.2207070 145.2436189 123.9814679
v 33.0995170 142.3667253 128.3663615
v 32.5425132 142.9218146 128.2808255
v 29.7900339 145.6742916 124.4838743
v 29.9718737 145.4924521 123.8322499
v 33.1856516 142.2786767 128.7303593
v 32.6343901 142.8318519 128.6058152
v 29.5584276 145.9058978 124.3644999
v 29.7153840 145.7489416 123.7008911
v 33.2583875 142.2059409 129.0999969
v 32.7128683 142.7514596 128.9366796
v 29.3229930 146.1413322 124.2615747
v 29.4569801 146.0073452 123.5878614
v 33.3196388 142.1446896 129.4743343
v 32.7798619 142.6863802 129.2727138
v 29.0837302 146.3805949 124.1755688
v 29.1928340 146.2714911 123.4929259
v 33.3655772 142.0987512 129.8524315
v 32.8334567 142.6308713 129.6129778
v 28.8425533 146.6217716 124.1062470
v 33.4000311 142.0642974 130.2333486
v 32.8774811 142.5868469 129.9567666
v 28.5975482 146.8667765 124.0543145
v 33.4210862 142.0451564 130.6161456
v 32.9081067 142.5562213 130.3029053
v 28.3525431 147.1117814 124.0195361
v 33.4268285 142.0375000 130.9998825
v 32.9253337 142.5389944 130.6511589
v 28.1056238 147.3587004 124.0021469
v 33.4210862 142.0451564 131.3838544
v 32.9310760 142.5332521 130.9998825
v 27.8587046 147.6056194 124.0021469
v 33.4000311 142.0642974 131.7666514
v 32.9253337 142.5389944 131.3488411
v 27.6117854 147.8525384 124.0195361
v 33.3655772 142.0987512 132.1475685
v 32.9081067 142.5562213 131.6968597
v 27.3667803 148.0975433 124.0543145
v 33.3196388 142.1446896 132.5256657
v 32.8774811 142.5868469 132.0432334
v 27.1217752 148.3425482 124.1062470
v 27.9917211 147.4723089 123.2457059
v 33.2583875 142.2059409 132.9000031
v 32.8334567 142.6308713 132.3870222
v 26.8805983 148.5837249 124.1755688
v 26.7714945 148.6947428 123.4929259
v 32.7798619 142.6863802 132.7272862
v 33.1856516 142.2786767 133.2696407
v 26.6413355 148.8229876 124.2615747
v 26.5073484 148.9569746 123.5878614
v 32.7128683 142.7514596 133.0633204
v 33.0995170 142.3667253 133.6336385
v 26.4059009 149.0584220 124.3644999
v 26.2489445 149.2153782 123.7008911
v 32.6343901 142.8318519 133.3941848
v 32.9999837 142.4643445 133.9910567
v 26.1742945 149.2900282 124.4838743
v 25.9924548 149.4718677 123.8322499
v 32.5425132 142.9218146 133.7189395
v 32.8870516 142.5772764 134.3409552
v 25.9465164 149.5178062 124.6194629
v 25.7436215 149.7207009 123.9814679
v 32.4410658 143.0232619 134.0371145
v 32.7645491 142.6997789 134.6826291
v 25.7244805 149.7398419 124.7707958
v 25.4986164 149.9657058 124.1478401
v 32.3300478 143.1361939 134.3477699
v 25.5081869 149.9580494 124.9378729
v 25.2593536 150.2049684 124.3316014
v 32.6286478 142.8356801 135.0151385
v 32.2056312 143.2586964 134.6499657
v 25.2976356 150.1686005 125.1197543
v 25.0277472 150.4365746 124.5318120
v 32.4812619 142.9830658 135.3375433
v 32.0716440 143.3926834 134.9432319
v 25.0928267 150.3714952 125.3164401
v 24.8037972 150.6605244 124.7480018
v 32.3223914 143.1419362 135.6493736
v 31.9280863 143.5362410 135.2266285
v 24.8956741 150.5686475 125.5272251
v 24.5875037 150.8768178 124.9799359
v 32.1539504 143.3103771 135.9494545
v 31.7730440 143.6912831 135.4994507
v 24.7061780 150.7581435 125.7514046
v 24.3788665 151.0854548 125.2266743
v 31.9740248 143.4903026 136.2373159
v 31.6103453 143.8539817 135.7612284
v 24.5262524 150.9380690 125.9889784
v 24.1797998 151.2845213 125.4877470
v 31.7845286 143.6797985 136.5122530
v 31.4380761 144.0262508 136.0110216
v 24.3539832 151.1103381 126.2387716
v 23.9903037 151.4740173 125.7626841
v 31.5854620 143.8788650 136.7733257
v 31.2581505 144.2061763 136.2483604
v 24.1912845 151.2730367 126.5005493
v 23.8103781 151.6539427 126.0505455
v 31.3768248 144.0875020 137.0200641
v 31.0686543 144.3956723 136.4727749
v 24.0362422 151.4280788 126.7733715
v 23.6419371 151.8223836 126.3506264
v 31.1605313 144.3037954 137.2519982
v 30.8715018 144.5928247 136.6835599
v 23.8926845 151.5716364 127.0567681
v 23.4830666 151.9812540 126.6624567
v 30.9365813 144.5277452 137.4681880
v 30.6686069 144.7976334 136.8802457
v 23.7586973 151.7056235 127.3500343
v 23.3356807 152.1286397 126.9848615
v 23.6361948 151.8300400 127.6522301
v 30.7049749 144.7593514 137.6683986
v 30.4561416 145.0081845 137.0621271
v 23.1997794 152.2645409 127.3173709
v 23.5232627 151.9410579 127.9628855
v 30.4657121 144.9986140 137.8519249
v 30.2398480 145.2244779 137.2292042
v 23.0772769 152.3870434 127.6590448
v 23.4218153 152.0425052 128.2808255
v 30.2207070 145.2436189 138.0185321
v 30.0178121 145.4465136 137.3805371
v 22.9643448 152.4999753 128.0089433
v 23.3318525 152.1343820 128.6058152
v 29.9718737 145.4924521 138.1677501
v 29.7900339 145.6742916 137.5161257
v 22.8667256 152.5995086 128.3663615
v 23.2514602 152.2128602 128.9366796
v 29.7153840 145.7489416 138.2991089
v 29.5584276 145.9058978 137.6355001
v 22.7786769 152.6856431 128.7303593
v 23.1863807 152.2798537 129.2727138
v 29.4569801 146.0073452 138.4121386
v 29.3229930 146.1413322 137.7384253
v 22.7059410 152.7583789 129.0999969
v 23.1308717 152.3334485 129.6129778
v 29.1928340 146.2714911 138.5068391
v 29.0837302 146.3805949 137.8244312
v 22.6446897 152.8196302 129.4743343
v 27.9848914 147.4791521 138.7541212
v 28.8425533 146.6217716 137.8937530
v 22.5987513 152.8655686 129.8524315
v 23.0562217 152.4080985 130.3029053
v 23.0868474 152.3774729 129.9567666
v 28.5975482 146.8667765 137.9456855
v 22.5642974 152.9000224 130.2333486
v 23.0389948 152.4253254 130.6511589
v 28.3525431 147.1117814 137.9804639
v 22.5451564 152.9210775 130.6161456
v 23.0332525 152.4310677 130.9998825
v 28.1056238 147.3587004 137.9978531
v 22.5375000 152.9268198 130.9998825
v 23.0389948 152.4253254 131.3488411
v 27.8587046 147.6056194 137.9978531
v 22.5451564 152.9210775 131.3838544
v 23.0562217 152.4080985 131.6968597
v 27.6117854 147.8525384 137.9804639
v 22.5642974 152.9000224 131.7666514
v 23.0868474 152.3774729 132.0432334
v 27.3667803 148.0975433 137.9456855
v 22.5987513 152.8655686 132.1475685
v 23.1308717 152.3334485 132.3870222
v 27.1217752 148.3425482 137.8937530
v 22.6446897 152.8196302 132.5256657
v 23.1863807 152.2798537 132.7272862
v 26.7714945 148.6947428 138.5068391
v 26.8805983 148.5837249 137.8244312
v 22.7059410 152.7583789 132.9000031
v 23.2514602 152.2128602 133.0633204
v 26.5073484 148.9569746 138.4121386
v 26.6413355 148.8229876 137.7384253
v 23.3318525 152.1343820 133.3941848
v 22.7786769 152.6856431 133.2696407
v 26.2489445 149.2153782 138.2991089
v 26.4059009 149.0584220 137.6355001
v 23.4218153 152.0425052 133.7189395
v 22.8667256 152.5995086 133.6336385
v 25.9924548 149.4718677 138.1677501
v 26.1742945 149.2900282 137.5161257
v 22.9643448 152.4999753 133.9910567
v 23.5232627 151.9410579 134.0371145
v 25.7436215 149.7207009 138.0185321
v 25.9465164 149.5178062 137.3805371
v 23.0772769 152.3870434 134.3409552
v 23.6361948 151.8300400 134.3477699
v 25.4986164 149.9657058 137.8519249
v 25.7244805 149.7398419 137.2292042
v 23.1997794 152.2645409 134.6826291
v 23.7586973 151.7056235 134.6499657
v 25.2593536 150.2049684 137.6683986
v 25.5081869 149.9580494 137.0621271
v 23.3356807 152.1286397 135.0151385
v 23.8926845 151.5716364 134.9432319
v 25.0277472 150.4365746 137.4681880
v 25.2976356 150.1686005 136.8802457
v 23.4830666 151.9812540 135.3375433
v 24.0362422 151.4280788 135.2266285
v 24.8037972 150.6605244 137.2519982
v 25.0928267 150.3714952 136.6835599
v 23.6419371 151.8223836 135.6493736
v 24.1912845 151.2730367 135.4994507
v 24.5875037 150.8768178 137.0200641
v 24.8956741 150.5686475 136.4727749
v 23.8103781 151.6539427 135.9494545
v 24.3539832 151.1103381 135.7612284
v 24.3788665 151.0854548 136.7733257
v 24.7061780 150.7581435 136.2483604
v 23.9903037 151.4740173 136.2373159
v 24.5262524 150.9380690 136.0110216
v 24.1797998 151.2845213 136.5122530
v 147.4767052 257.0902746 130.6523339
v 147.4824475 257.0845323 130.9998825
v 147.4594783 257.1075015 130.3054902
v 147.4288526 257.1381271 129.9602914
v 147.3848283 257.1821515 129.6176776
v 147.3312334 257.2357463 129.2785885
v 147.2642398 257.3027398 128.9437293
v 147.1876757 257.3793039 128.6138048
v 147.0977129 257.4692666 128.2899901
v 146.9962655 257.5707139 127.9727550
v 146.8852475 257.6817318 127.6628046
v 146.7627450 257.8042342 127.3613138
v 146.6287578 257.9382213 127.0687526
v 146.4852001 258.0817789 126.7860609
v 146.3320719 258.2349069 126.5134737
v 146.1712873 258.3956914 126.2521660
v 145.9990181 258.5679605 126.0026078
v 145.8190925 258.7478860 125.7652689
v 145.6315105 258.9354679 125.5408545
v 145.4362720 259.1307061 125.3298344
v 145.2333772 259.3336008 125.1331487
v 145.0247400 259.5422378 124.9505623
v 144.8084464 259.7585312 124.7832502
v 144.5864106 259.9805669 124.6309773
v 144.3605465 260.2064308 124.4946838
v 36.4587667 153.1297145 124.2916533
v 36.0458568 152.7946543 124.2753030
v 35.5495680 152.6167355 124.2148119
v 144.1308542 260.4361229 124.3741344
v 36.5085333 153.1813952 124.2914183
v 35.2927608 152.5634231 124.1793267
v 35.0385027 152.5535701 124.1419654
v 143.8954196 260.6715573 124.2702693
v 36.7920414 153.5373346 124.2758869
v 36.9621756 153.9585202 124.2277363
v 34.8170318 152.5647998 124.1101151
v 34.5982591 152.6071650 124.0799283
v 37.0317082 154.2118632 123.8102629
v 143.6580709 260.9089058 124.1828534
v 37.0540525 154.5442350 124.1457252
v 34.4228326 152.6525799 124.0574465
v 34.2384079 152.7277533 124.0364553
v 37.0436416 154.7732564 124.1123248
v 143.4168940 261.1500825 124.1123568
v 37.0062000 154.9825641 124.0834531
v 34.0740140 152.8082277 124.0206445
v 33.9072682 152.9153352 124.0089616
v 36.9641029 155.1498033 124.0617148
v 143.1738030 261.3931734 124.0587793
v 36.8894397 155.3443292 124.0390402
v 33.7656877 153.0216647 124.0018077
v 33.6258951 153.1526837 124.0000320
v 36.8126767 155.5078045 124.0228604
v 142.9287979 261.6381783 124.0223560
v 36.7076000 155.6773827 124.0101366
v 33.5232357 153.2648552 124.0019912
v 33.4344849 153.3785476 124.0073167
v 142.6837928 261.8831832 124.0030869
v 36.5820969 155.8447711 124.0015797
v 36.4721654 155.9625838 124.0000320
v 33.3222416 153.5487736 124.0185892
v 33.2411606 153.7058589 124.0331655
v 36.3700760 156.0587167 124.0010036
v 142.4368736 262.1301022 124.0012070
v 36.2482154 156.1559080 124.0061418
v 33.1672224 153.8817647 124.0524283
v 33.1148298 154.0637957 124.0754635
v 36.0932406 156.2626489 124.0157962
v 142.1918685 262.3751071 124.0167163
v 35.9247321 156.3530603 124.0308156
v 33.0690858 154.2895492 124.1061814
v 33.0535785 154.5040389 124.1372656
v 141.9468634 262.6201120 124.0493797
v 35.7575944 156.4270455 124.0485508
v 35.5687091 156.4851333 124.0721736
v 33.0629848 154.7937562 124.1796051
v 33.1263144 155.0897538 124.2199817
v 35.3550750 156.5330009 124.1006981
v 141.7037724 262.8632028 124.0989624
v 35.1284655 156.5521268 124.1335058
v 33.2966733 155.5435763 124.2743441
v 33.5971836 155.9243018 124.2914183
v 34.8837393 156.5496480 124.1689681
v 141.4625955 263.1043795 124.1659342
v 34.6174002 156.5042743 124.2068223
v 33.6392939 155.9683261 124.2916533
v 141.2233327 263.3436421 124.2495903
v 34.1259782 156.3474795 124.2687508
v 33.7043733 156.0295773 124.2911833
v 140.9878981 263.5790765 124.3499306
v 140.7562917 263.8106827 124.4667201
v 140.5285135 264.0384608 124.5994888
v 140.3064776 264.2604965 124.7482368
v 140.0901841 264.4767898 124.9124941
v 139.8796328 264.6873409 125.0915557
v 139.6748238 264.8921497 125.2851865
v 139.4776713 265.0893021 125.4931518
v 139.2881752 265.2787981 125.7145113
v 139.1063354 265.4606377 125.9490303
v 138.9340662 265.6329068 126.1960037
v 138.7694534 265.7975194 126.4549615
v 138.6144111 265.9525616 126.7249638
v 138.4689393 266.0980333 127.0055406
v 138.3330381 266.2339344 127.2959869
v 138.2086214 266.3583510 127.5955978
v 138.0937753 266.4731970 127.9036683
v 137.9904137 266.5765585 128.2192584
v 137.8985368 266.6684353 128.5418982
v 137.8181445 266.7488276 128.8704128
v 137.7492368 266.8177352 129.2043320
v 137.6918138 266.8751582 129.5424811
v 137.6477894 266.9191825 129.8843900
v 137.6133356 266.9536364 130.2291188
v 137.5922804 266.9746915 130.5757275
v 137.5846240 266.9823479 130.9232761
v 137.5865381 266.9804338 131.2710597
v 137.6037651 266.9632069 131.6181384
v 137.6305625 266.9364095 131.9638071
v 137.6707586 266.8962133 132.3068910
v 137.7224394 266.8445326 132.6469200
v 137.7856048 266.7813673 132.9827192
v 137.8621689 266.7048033 133.3138186
v 137.9483035 266.6186687 133.6390433
v 138.0478368 266.5191355 133.9579232
v 138.1569406 266.4100317 134.2695186
v 138.2775291 266.2894434 134.5728893
v 138.4076881 266.1592845 134.8673304
v 138.5493316 266.0176410 135.1523720
v 138.6986316 265.8683412 135.4273091
v 138.8594162 265.7075567 135.6912016
v 139.0297713 265.5372017 135.9433448
v 139.2077829 265.3591903 136.1835035
v 139.3934508 265.1735226 136.4107378
v 139.5867751 264.9801984 136.6245777
v 139.7877559 264.7792178 136.8247883
v 139.9963930 264.5705808 137.0104295
v 140.2107725 264.3562015 137.1812665
v 140.4308943 264.1360799 137.3368292
v 140.6548443 263.9121301 137.4766476
v 33.2937000 155.5474329 137.7255107
v 33.6392939 155.9683261 137.7081117
v 33.1205721 155.0629564 137.7833082
v 140.8845365 263.6824380 137.6004868
v 33.0615611 154.7859864 137.8216104
v 139.7054495 262.0343971 137.7081117
v 33.6871464 156.0142645 137.7085817
v 139.6422841 261.9693177 137.7088167
v 33.7369131 156.0582888 137.7095216
v 33.0554926 154.4791556 137.8664942
v 139.5829469 261.9004101 137.7106966
v 33.7943361 156.1061413 137.7116365
v 139.5255239 261.8276743 137.7139864
v 33.8517592 156.1520798 137.7142214
v 33.9130105 156.1961041 137.7179812
v 139.4719290 261.7530243 137.7184512
v 33.9761759 156.2382143 137.7222110
v 139.4202482 261.6745462 137.7238560
v 34.0412554 156.2784104 137.7273808
v 139.3723957 261.5941539 137.7306706
v 34.1063348 156.3147783 137.7330205
v 139.3283713 261.5099335 137.7384253
v 34.1752425 156.3492321 137.7396002
v 33.0686727 154.2897736 137.8937740
v 139.2881752 261.4257131 137.7473548
v 34.2441502 156.3817719 137.7468849
v 34.3149720 156.4123975 137.7548745
v 139.2556354 261.3472349 137.7560494
v 34.3857938 156.4391949 137.7633341
v 139.2307521 261.2744991 137.7647440
v 34.4585297 156.4621641 137.7722637
v 139.2058688 261.2017633 137.7739086
v 34.5312656 156.4832192 137.7816632
v 139.1867277 261.1290274 137.7833082
v 34.6040015 156.5023602 137.7915328
v 33.1033452 154.1116482 137.9181918
v 139.1675867 261.0562916 137.7931777
v 34.6786514 156.5176730 137.8016373
v 139.1522739 260.9816417 137.8032822
v 34.7513873 156.5291576 137.8119768
v 139.1407893 260.9089058 137.8138567
v 34.8260373 156.5406422 137.8225513
v 139.1312188 260.8342559 137.8241962
v 34.8987732 156.5463845 137.8331258
v 33.1542093 153.9206707 137.9428907
v 139.1254765 260.7615201 137.8350057
v 34.9715091 156.5521268 137.8437003
v 139.1197341 260.6887842 137.8455802
v 35.0442450 156.5540409 137.8542748
v 139.1197341 260.6179625 137.8559197
v 35.1150668 156.5521268 137.8648493
v 33.2220195 153.7498832 137.9621347
v 139.1216483 260.5452267 137.8664942
v 35.1878027 156.5482986 137.8751888
v 139.1254765 260.4724908 137.8770687
v 35.2624527 156.5425563 137.8857633
v 139.1312188 260.3997550 137.8874083
v 35.3351886 156.5329858 137.8963378
v 33.2938928 153.6000627 137.9771351
v 139.1407893 260.3251051 137.8979828
v 35.4098386 156.5215012 137.9064424
v 139.1541880 260.2523692 137.9080873
v 35.4825745 156.5061884 137.9165469
v 139.1695008 260.1777193 137.9181918
v 35.5572244 156.4889615 137.9261814
v 33.4057734 153.4187437 137.9903334
v 139.1867277 260.1049835 137.9278264
v 35.6299603 156.4679064 137.9355810
v 139.2077829 260.0303335 137.9372259
v 35.7026962 156.4449372 137.9445106
v 139.2307521 259.9595118 137.9459205
v 35.7735180 156.4181398 137.9529702
v 33.5038989 153.2861687 137.9976425
v 139.2575495 259.8867760 137.9543801
v 35.8443398 156.3894283 137.9607248
v 139.2881752 259.8159542 137.9621347
v 35.9132475 156.3588027 137.9680095
v 139.3188008 259.7470466 137.9691844
v 35.9821552 156.3243488 137.9745892
v 33.6431221 153.1354568 137.9999680
v 139.3532546 259.6800531 137.9755291
v 36.0491488 156.2879809 137.9802289
v 139.3915367 259.6130596 137.9811688
v 36.1142282 156.2477848 137.9853986
v 33.7675476 153.0191955 137.9982447
v 139.4317328 259.5479801 137.9861036
v 36.1773936 156.2075887 137.9896284
v 139.4719290 259.4848148 137.9903334
v 36.2386449 156.1635644 137.9933883
v 139.5159533 259.4235636 137.9938582
v 36.2979821 156.1176259 137.9962081
v 33.9283233 152.9000224 137.9896284
v 139.5618918 259.3642264 137.9966781
v 36.3554051 156.0716875 137.9983230
v 34.0600581 152.8175393 137.9803551
v 139.6097444 259.3087175 137.9985580
v 36.4109141 156.0219209 137.9994980
v 139.6595110 259.2532086 137.9997330
v 36.4625949 155.9721543 137.9999680
v 139.7092777 259.2015279 137.9999680
v 36.5142756 155.9185595 137.9997330
v 34.1924694 152.7488084 137.9680095
v 139.7609584 259.1498471 137.9994980
v 36.5621282 155.8649646 137.9985580
v 139.8164674 259.1019946 137.9983230
v 36.6099808 155.8075416 137.9966781
v 34.3561179 152.6758353 137.9505178
v 139.8738905 259.0541421 137.9962081
v 36.6559192 155.7482045 137.9938582
v 139.9332277 259.0101178 137.9933883
v 36.6999436 155.6869532 137.9903334
v 34.5504066 152.6186496 137.9261814
v 139.9944789 258.9660935 137.9896284
v 36.7420538 155.6237879 137.9861036
v 140.0595584 258.9239832 137.9853986
v 36.7803359 155.5587085 137.9811688
v 140.1246379 258.8857012 137.9802289
v 36.8186179 155.4936291 137.9755291
v 34.7630026 152.5727789 137.8975279
v 140.1897174 258.8493333 137.9745892
v 36.8530718 155.4247214 137.9691844
v 140.2586251 258.8148795 137.9680095
v 36.8856115 155.3558138 137.9621347
v 34.9906501 152.5535701 137.8648493
v 140.3275328 258.7823398 137.9607248
v 36.9143230 155.2849921 137.9543801
v 140.3983545 258.7536283 137.9529702
v 36.9411205 155.2141703 137.9459205
v 140.4710904 258.7268309 137.9445106
v 36.9640897 155.1414345 137.9372259
v 35.2710431 152.5606357 137.8236305
v 140.5438263 258.7038616 137.9355810
v 36.9851448 155.0686987 137.9278264
v 140.6165622 258.6847206 137.9261814
v 37.0042858 154.9940487 137.9181918
v 140.6892981 258.6674937 137.9165469
v 37.0176846 154.9213129 137.9080873
v 35.5763655 152.6224778 137.7816632
v 140.7639481 258.6521809 137.9064424
v 37.0310833 154.8466630 137.8979828
v 140.8366840 258.6406963 137.8963378
v 37.0406538 154.7739271 137.8874083
v 36.0268937 152.7874806 137.7272017
v 140.9113340 258.6311258 137.8857633
v 37.0483102 154.7011913 137.8770687
v 140.9840699 258.6234694 137.8751888
v 37.0521384 154.6284555 137.8664942
v 141.0568058 258.6196412 137.8648493
v 37.0540525 154.5557196 137.8559197
v 36.4204846 153.0933466 137.7085817
v 141.1295417 258.6196412 137.8542748
v 37.0521384 154.4829838 137.8455802
v 141.2003634 258.6215553 137.8437003
v 37.0483102 154.4102480 137.8350057
v 141.2730993 258.6253835 137.8331258
v 37.0406538 154.3375121 137.8241962
v 141.3477493 258.6330399 137.8225513
v 37.0310833 154.2647763 137.8138567
v 36.4683372 153.1392850 137.7081117
v 141.4204852 258.6426104 137.8119768
v 37.0195987 154.1901264 137.8032822
v 141.4951352 258.6560091 137.8016373
v 37.0042858 154.1173905 137.7931777
v 141.5678711 258.6713219 137.7915328
v 36.9870589 154.0427406 137.7833082
v 141.6406070 258.6885488 137.7816632
v 36.9660038 153.9700048 137.7739086
v 141.7152570 258.7096040 137.7722637
v 36.9430346 153.8972689 137.7647440
v 141.7860788 258.7344873 137.7633341
v 36.9162371 153.8264472 137.7560494
v 141.8588147 258.7612847 137.7548745
v 36.8836974 153.7479691 137.7473548
v 141.9277224 258.7899962 137.7468849
v 141.9966300 258.8225359 137.7396002
v 36.8435012 153.6618345 137.7384253
v 142.0655377 258.8569897 137.7330205
v 36.7994769 153.5795282 137.7306706
v 142.1325313 258.8952717 137.7273808
v 36.7516243 153.4991360 137.7238560
v 142.1956967 258.9354679 137.7222110
v 36.6999436 153.4206578 137.7184512
v 142.2588621 258.9775781 137.7179812
v 36.6463487 153.3440938 137.7139864
v 142.3201133 259.0196883 137.7142214
v 142.3794505 259.0656267 137.7116365
v 36.5889256 153.2732721 137.7106966
v 142.4368736 259.1134792 137.7095216
v 36.5295885 153.2043644 137.7088167
v 142.4866402 259.1594177 137.7085817
v 142.5325787 259.2053561 137.7081117
v 144.1787068 260.3882704 137.6016617
v 144.4083990 260.1585783 137.4789975
v 144.6304349 259.9365426 137.3405890
v 144.8486426 259.7183351 137.1866712
v 145.0611080 259.5058699 137.0179492
v 145.2678310 259.2991470 136.8344228
v 145.4688118 259.0981664 136.6370321
v 145.6602220 258.9067563 136.4257771
v 145.8458899 258.7210886 136.2013626
v 146.0239015 258.5430772 135.9642588
v 146.1923425 258.3746363 135.7151705
v 146.3512130 258.2157659 135.4545678
v 146.5024271 258.0645520 135.1833906
v 146.6421565 257.9248226 134.9018738
v 146.7742296 257.7927496 134.6107225
v 146.8948180 257.6721613 134.3111116
v 147.0039219 257.5630575 134.0032761
v 147.1034552 257.4635243 133.6881559
v 147.1915039 257.3754756 133.3666911
v 147.2680680 257.2989116 133.0393515
v 147.3331475 257.2338322 132.7070771
v 147.3867424 257.1802374 132.3705730
v 147.4288526 257.1381271 132.0310140
v 147.4594783 257.1075015 131.6886351
v 147.4767052 257.0902746 131.3448463
v 142.5325787 259.2053561 138.4356374
v 143.9447771 260.6221999 138.0759507
v 146.5177399 258.0492392 125.7516396
v 146.3263296 258.2406492 125.4767025
v 146.6976655 257.8693137 126.0397360
v 146.1272630 258.4397157 125.2153948
v 146.8680206 257.6989587 126.3402869
v 145.9186258 258.6483527 124.9686564
v 147.0268911 257.5400883 126.6525872
v 145.7004182 258.8665602 124.7369574
v 147.1761911 257.3907885 126.9754620
v 145.4764682 259.0905100 124.5210025
v 147.3120924 257.2548873 127.3086763
v 145.2429477 259.3240303 124.3210269
v 147.4365090 257.1304707 127.6510552
v 145.0036849 259.5632929 124.1379706
v 147.5475270 257.0194529 128.0016587
v 144.7586798 259.8082978 123.9720684
v 147.6489744 256.9180055 128.3597818
v 144.5060183 260.0609592 123.8235554
v 147.7351090 256.8318710 128.7247196
v 144.2514427 260.3155346 123.6931365
v 147.8097590 256.7572211 129.0950622
v 143.9911247 260.5758523 123.5808118
v 147.8690962 256.6978839 129.4703395
v 143.7269786 260.8399982 123.4870512
v 147.9169487 256.6500314 129.8493767
v 143.4590043 261.1079723 123.4120897
v 147.9514026 256.6155776 130.2312337
v 143.1910299 261.3759465 123.3561624
v 147.9705436 256.5964366 130.6152056
v 142.9192274 261.6477488 123.3192691
v 147.9782000 256.5887802 130.9998825
v 142.6474248 261.9195511 123.3016449
v 147.9724577 256.5945225 131.3728099
v 142.3756223 262.1913534 123.3032898
v 147.9533167 256.6136635 131.7447974
v 142.1038198 262.4631557 123.3239689
v 147.9207769 256.6462032 132.1151400
v 141.8320172 262.7349581 123.3639170
v 147.8767526 256.6902275 132.4828977
v 141.5640429 263.0029322 123.4231342
v 147.8193295 256.7476506 132.8468956
v 141.2979827 263.2689922 123.5011505
v 147.7504218 256.8165582 133.2068986
v 141.0338365 263.5331381 123.5977310
v 147.6681154 256.8988645 133.5614969
v 140.7735186 263.7934558 123.7131106
v 147.5743244 256.9926555 133.9102205
v 140.5189430 264.0480313 123.8465843
v 147.4690488 257.0979310 134.2518944
v 140.2681956 264.2987785 123.9979171
v 147.3522885 257.2146912 134.5860487
v 140.0231905 264.5437834 124.1666392
v 147.2240437 257.3429359 134.9119783
v 139.7858418 264.7811319 124.3525154
v 147.0843142 257.4826653 135.2285084
v 139.5542354 265.0127381 124.5550759
v 146.9331001 257.6338793 135.5351690
v 139.3302854 265.2366879 124.7736156
v 146.7723155 257.7946637 135.8312551
v 139.1139918 265.4529813 125.0078996
v 146.6019604 257.9650187 136.1158267
v 138.9072688 265.6597042 125.2569879
v 146.4220348 258.1449442 136.3886488
v 138.7082021 265.8587707 125.5206455
v 146.2344527 258.3325261 136.6485466
v 138.5187060 266.0482667 125.7976974
v 146.0353861 258.5315926 136.8952850
v 138.3406945 266.2262780 126.0879088
v 145.8305771 258.7364014 137.1283940
v 138.1722535 266.3947189 126.3905745
v 145.6161977 258.9507807 137.3469337
v 138.0152971 266.5516752 126.7045197
v 145.3960759 259.1709023 137.5506691
v 137.8679112 266.6990609 127.0292744
v 145.1682977 259.3986803 137.7388952
v 137.7339240 266.8330480 127.3638987
v 144.9328631 259.6341147 137.9113771
v 137.6114215 266.9555505 127.7076875
v 144.6936003 259.8733773 138.0676448
v 137.5023176 267.0665683 128.0597009
v 144.4505093 260.1164681 138.2074632
v 137.4046984 267.1641875 128.4189990
v 144.1997619 260.3672153 138.3301274
v 137.3185638 267.2484079 128.7846418
v 137.2477420 267.3192296 129.1559243
v 137.1884048 267.3785668 129.5319066
v 137.1443805 267.4245052 129.9114137
v 137.1118407 267.4551308 130.2937407
v 137.0926997 267.4742718 130.6779477
v 137.0888715 267.4781000 131.0626246
v 137.0984420 267.4685295 131.4475364
v 137.1214113 267.4455603 131.8310384
v 137.1558651 267.4111065 132.2126604
v 137.2056318 267.3613398 132.5909926
v 137.2687971 267.2981745 132.9655650
v 137.3453612 267.2216105 133.3352026
v 140.8577391 263.7092354 138.3263676
v 141.1211038 263.4458534 138.2565085
v 137.4334099 267.1335618 133.6989654
v 140.6012494 263.9657249 138.1990036
v 137.5367715 267.0302004 134.0559136
v 140.3485879 264.2183862 138.0533104
v 137.6497035 266.9172684 134.4053422
v 140.1035828 264.4633911 137.8902281
v 137.7760343 266.7909378 134.7463111
v 139.8624059 264.7045679 137.7097566
v 137.9157637 266.6512084 135.0776455
v 139.6288854 264.9380882 137.5126009
v 138.0650637 266.5019086 135.3991104
v 139.4030213 265.1639521 137.2992309
v 138.2258483 266.3411241 135.7092958
v 139.1828995 265.3840737 137.0701167
v 138.3981175 266.1688550 136.0079667
v 138.9723483 265.5946248 136.8257282
v 138.5799573 265.9870154 136.2939483
v 138.7713675 265.7956053 136.5667704
v 139.6690815 261.9980292 138.4358724
v 139.6346277 261.9597472 138.4365774
v 139.5867751 261.9042383 138.4379873
v 139.5389226 261.8449012 138.4401022
v 139.4948982 261.7855640 138.4431571
v 139.4508739 261.7223987 138.4466819
v 139.4106777 261.6573193 138.4509117
v 139.3723957 261.5922398 138.4560815
v 139.3360277 261.5252463 138.4617212
v 139.3015739 261.4563387 138.4680659
v 139.2709482 261.3855170 138.4748806
v 139.2441508 261.3146952 138.4824002
v 139.2192675 261.2419594 138.4906249
v 139.1962982 261.1692236 138.4990845
v 139.1771572 261.0945736 138.5077790
v 139.1599303 261.0199237 138.5169436
v 139.1465316 260.9471879 138.5263432
v 139.1350470 260.8725379 138.5357427
v 139.1273906 260.7978880 138.5453773
v 139.1216483 260.7251522 138.5550118
v 139.1197341 260.6524163 138.5646464
v 139.1197341 260.5796805 138.5742809
v 139.1216483 260.5069447 138.5839155
v 139.1273906 260.4342088 138.5933150
v 139.1369611 260.3595589 138.6029496
v 139.1484457 260.2849090 138.6123491
v 139.1618444 260.2102590 138.6215137
v 139.1790713 260.1375232 138.6304433
v 139.1982123 260.0628733 138.6391379
v 139.2211816 259.9901374 138.6473625
v 139.2460649 259.9174016 138.6553521
v 139.2747764 259.8465799 138.6626368
v 139.3054021 259.7757581 138.6692164
v 139.3398559 259.7068505 138.6753262
v 139.3762239 259.6398570 138.6807309
v 139.4145059 259.5747775 138.6856657
v 139.4547021 259.5096981 138.6896605
v 139.4987264 259.4484469 138.6931853
v 139.5446649 259.3871957 138.6960052
v 139.5906033 259.3297726 138.6981201
v 139.6403700 259.2742637 138.6992950
v 139.6901367 259.2206689 138.7000000
v 139.7418174 259.1689882 138.6997650
v 139.7954123 259.1192215 138.6988251
v 139.8528354 259.0713690 138.6971801
v 139.9121725 259.0254306 138.6950652
v 139.9734238 258.9814063 138.6920104
v 140.0365892 258.9392961 138.6882506
v 140.1016687 258.8990999 138.6837858
v 140.1667482 258.8608179 138.6786160
v 140.2356558 258.8263641 138.6729763
v 140.3045635 258.7919103 138.6666316
v 140.3753853 258.7631988 138.6595819
v 140.4481212 258.7364014 138.6520623
v 140.5189430 258.7115181 138.6440726
v 140.5935930 258.6904629 138.6358480
v 140.6663289 258.6713219 138.6269184
v 140.7409789 258.6560091 138.6177539
v 140.8156289 258.6426104 138.6085893
v 140.8902789 258.6330399 138.5991897
v 140.9630147 258.6253835 138.5895552
v 141.0357506 258.6215553 138.5799207
v 141.1084865 258.6196412 138.5702861
v 141.1812224 258.6196412 138.5608865
v 141.2539583 258.6234694 138.5512520
v 141.3286083 258.6311258 138.5416175
v 141.4013442 258.6406963 138.5319829
v 141.4759942 258.6521809 138.5223484
v 141.5506442 258.6674937 138.5131838
v 141.6252942 258.6847206 138.5042542
v 141.6980301 258.7057757 138.4955596
v 141.7707660 258.7287450 138.4871000
v 141.8435018 258.7555424 138.4793454
v 141.9219800 258.7880821 138.4713558
v 142.0081147 258.8282782 138.4631312
v 142.0904211 258.8723025 138.4560815
v 142.1727275 258.9201550 138.4499718
v 142.2512057 258.9718358 138.4450370
v 142.3258556 259.0254306 138.4410422
v 142.3985915 259.0828536 138.4379873
v 142.4674992 259.1421907 138.4363424
v 36.4683372 153.1392850 123.5641276
v 36.2411425 152.9358799 123.5596244
v 35.9591859 152.7698635 123.5382788
v 36.7224374 153.4367538 123.5563324
v 36.8856115 153.7517973 123.5286442
v 37.0483102 154.4179044 123.4487480
v 35.2041979 152.5132752 123.4517835
v 37.0541112 154.6634606 123.4163429
v 37.0157705 154.9308834 123.3820111
v 36.9636590 155.1557970 123.3550700
v 36.8798692 155.3672984 123.3333684
v 36.7890330 155.5495651 123.3174429
v 36.6922872 155.7003520 123.3079896
v 36.5684658 155.8594442 123.3009381
v 36.4530244 155.9836389 123.3000000
v 36.3104370 156.1101058 123.3026185
v 36.1620808 156.2171592 123.3101045
v 33.4739603 153.1724403 123.2766586
v 35.9669818 156.3355354 123.3239443
v 35.7543770 156.4257962 123.3446479
v 35.5605214 156.4890499 123.3662604
v 35.3868693 156.5253294 123.3876509
v 33.0400037 154.8070726 123.4655939
v 33.2622157 155.4419483 123.5368688
v 33.6392939 155.9683261 123.5641276
v 33.4307539 155.7305691 123.5589696
v 35.0955892 156.5579893 123.4253185
v 34.8011540 156.5368140 123.4642573
v 34.4143166 156.4591940 123.5124779
v 34.0814515 156.2994655 123.5439185
v 33.8435486 156.1520170 123.5605365
v 33.6392939 155.9683261 138.4356374
v 33.4287020 155.7324010 138.4407856
v 33.2564734 155.4323778 138.4640711
v 33.7043733 156.0295773 138.4363424
v 33.7732810 156.0889144 138.4379873
v 33.8460169 156.1463375 138.4410422
v 33.9225810 156.2018464 138.4450370
v 34.0010592 156.2535271 138.4499718
v 34.0814515 156.3013796 138.4560815
v 34.1656720 156.3454039 138.4631312
v 34.2518066 156.3856001 138.4713558
v 34.3302848 156.4181398 138.4793454
v 34.4011066 156.4449372 138.4871000
v 34.4738425 156.4679064 138.4955596
v 34.5484925 156.4870474 138.5042542
v 34.6212284 156.5061884 138.5131838
v 33.0195513 154.7046136 138.5482403
v 34.6958784 156.5215012 138.5223484
v 34.7705284 156.5329858 138.5319829
v 34.8451784 156.5425563 138.5416175
v 34.9179142 156.5482986 138.5512520
v 34.9906501 156.5521268 138.5608865
v 35.0633860 156.5540409 138.5702861
v 35.1361219 156.5521268 138.5799207
v 35.2088578 156.5463845 138.5895552
v 35.2835078 156.5387281 138.5991897
v 35.3562437 156.5291576 138.6085893
v 35.4308937 156.5157589 138.6177539
v 35.5055437 156.5004461 138.6269184
v 35.5801937 156.4832192 138.6358480
v 35.6529296 156.4602500 138.6440726
v 35.7256655 156.4372808 138.6520623
v 35.7964872 156.4104834 138.6595819
v 35.8673090 156.3798578 138.6666316
v 35.9362167 156.3473180 138.6729763
v 36.0051244 156.3109501 138.6786160
v 36.0721180 156.2745822 138.6837858
v 36.1371975 156.2343861 138.6882506
v 36.2003628 156.1922759 138.6920104
v 36.2597000 156.1463375 138.6950652
v 36.3190372 156.1003990 138.6971801
v 36.3764603 156.0525465 138.6988251
v 36.4300551 156.0027799 138.6997650
v 36.4817359 155.9530133 138.7000000
v 36.5334167 155.8994184 138.6992950
v 36.5812692 155.8419954 138.6981201
v 36.6291218 155.7845724 138.6960052
v 33.5588419 153.1055889 138.7195640
v 36.6731461 155.7252353 138.6931853
v 36.7171705 155.6620699 138.6896605
v 36.7573666 155.5989046 138.6856657
v 36.7975628 155.5319111 138.6807309
v 36.8339307 155.4649175 138.6753262
v 36.8664705 155.3960099 138.6692164
v 36.8970961 155.3251882 138.6626368
v 36.9258077 155.2543665 138.6553521
v 36.9506910 155.1816306 138.6473625
v 36.9736602 155.1088948 138.6391379
v 36.9947153 155.0361590 138.6304433
v 37.0100282 154.9615090 138.6215137
v 37.0253410 154.8868591 138.6123491
v 35.1968224 152.5126596 138.5492897
v 37.0368256 154.8122092 138.6029496
v 35.9438731 152.7622071 138.4628962
v 37.0444820 154.7394733 138.5933150
v 37.0502243 154.6648234 138.5839155
v 36.4874782 153.1603401 138.4358724
v 36.2529445 152.9447963 138.4398863
v 37.0521384 154.5920876 138.5742809
v 37.0521384 154.5212658 138.5646464
v 37.0502243 154.4485300 138.5550118
v 37.0444820 154.3738801 138.5453773
v 37.0368256 154.3011442 138.5357427
v 37.0253410 154.2264943 138.5263432
v 37.0119423 154.1518444 138.5169436
v 36.9947153 154.0771944 138.5077790
v 36.9755743 154.0044586 138.4990845
v 36.9545192 153.9317228 138.4906249
v 36.9296359 153.8589869 138.4824002
v 36.9009243 153.7881652 138.4748806
v 36.8702987 153.7173435 138.4680659
v 36.8358448 153.6484358 138.4617212
v 36.7994769 153.5814423 138.4560815
v 36.7611948 153.5144488 138.4509117
v 36.7209987 153.4512834 138.4466819
v 36.6788884 153.3881181 138.4431571
v 36.6329500 153.3268669 138.4401022
v 36.5870115 153.2694439 138.4379873
v 36.5372449 153.2139349 138.4365774
f 1 2 3
f 4 5 1
f 1 5 2
f 3 6 7
f 2 6 3
f 8 9 4
f 4 9 5
f 7 10 11
f 6 10 7
f 12 13 8
f 8 13 9
f 11 14 15
f 10 14 11
f 16 17 12
f 12 17 13
f 15 18 19
f 14 18 15
f 20 21 16
f 16 21 17
f 19 22 23
f 18 22 19
f 20 24 21
f 25 24 20
f 23 26 27
f 22 26 23
f 25 28 24
f 29 28 25
f 26 30 27
f 27 30 31
f 32 33 29
f 29 33 28
f 31 34 35
f 30 34 31
f 36 37 32
f 32 37 33
f 35 38 39
f 34 38 35
f 40 41 36
f 36 41 37
f 39 42 43
f 38 42 39
f 44 45 40
f 40 45 41
f 43 46 47
f 42 46 43
f 48 49 44
f 44 49 45
f 47 50 72
f 46 50 47
f 51 52 48
f 48 52 49
f 50 53 72
f 54 55 51
f 51 55 52
f 53 56 72
f 57 58 54
f 54 58 55
f 56 59 72
f 60 61 57
f 57 61 58
f 59 62 72
f 63 64 60
f 60 64 61
f 62 65 72
f 66 67 63
f 63 67 64
f 65 68 72
f 69 70 66
f 66 70 67
f 68 71 72
f 73 74 69
f 69 74 70
f 72 75 76
f 71 75 72
f 73 77 74
f 78 77 73
f 75 79 76
f 76 79 80
f 78 81 77
f 78 82 81
f 79 83 80
f 80 83 84
f 82 85 81
f 82 86 85
f 83 87 84
f 84 87 88
f 86 89 85
f 86 90 89
f 87 91 88
f 88 91 92
f 90 93 89
f 90 94 93
f 92 95 96
f 91 95 92
f 94 97 93
f 95 98 96
f 96 98 99
f 94 100 97
f 100 101 97
f 98 102 99
f 99 102 103
f 100 104 101
f 104 105 101
f 103 106 107
f 102 106 103
f 104 108 105
f 108 109 105
f 107 110 111
f 106 110 107
f 108 112 109
f 112 113 109
f 111 114 115
f 110 114 111
f 112 116 113
f 116 117 113
f 115 118 119
f 114 118 115
f 116 120 117
f 117 120 121
f 118 122 119
f 122 123 119
f 120 124 121
f 121 124 125
f 122 126 123
f 126 127 123
f 125 128 129
f 124 128 125
f 126 130 127
f 130 131 127
f 128 132 129
f 129 132 133
f 130 134 131
f 134 135 131
f 132 136 133
f 133 136 137
f 134 138 135
f 138 139 135
f 138 140 139
f 136 141 137
f 137 141 142
f 140 143 139
f 140 144 143
f 142 145 146
f 141 145 142
f 144 147 143
f 144 148 147
f 146 149 150
f 145 149 146
f 148 151 147
f 148 152 151
f 150 153 154
f 149 153 150
f 152 155 151
f 152 156 155
f 154 157 158
f 153 157 154
f 156 159 155
f 160 159 156
f 158 161 162
f 157 161 158
f 160 163 159
f 164 163 160
f 162 165 166
f 161 165 162
f 164 167 163
f 166 168 169
f 165 168 166
f 164 170 167
f 171 170 172
f 172 170 164
f 169 168 173
f 171 174 170
f 175 174 171
f 173 168 176
f 175 177 174
f 178 177 175
f 176 168 179
f 178 180 177
f 181 180 178
f 179 168 182
f 181 183 180
f 184 183 181
f 182 168 185
f 184 186 183
f 187 186 184
f 185 168 188
f 187 189 186
f 190 189 187
f 188 168 191
f 190 192 189
f 193 192 190
f 191 194 195
f 168 194 191
f 193 196 192
f 197 196 193
f 194 198 195
f 195 198 199
f 200 201 197
f 197 201 196
f 199 202 203
f 198 202 199
f 204 205 200
f 200 205 201
f 203 206 207
f 202 206 203
f 204 208 205
f 209 208 204
f 206 210 207
f 207 210 211
f 209 212 208
f 213 212 209
f 210 214 211
f 211 214 215
f 213 216 212
f 217 216 213
f 214 218 215
f 215 218 219
f 217 220 216
f 221 220 217
f 219 222 223
f 218 222 219
f 221 224 220
f 225 224 221
f 223 226 227
f 222 226 223
f 225 228 224
f 229 228 225
f 227 230 231
f 226 230 227
f 229 232 228
f 233 232 229
f 230 234 231
f 231 234 235
f 233 236 232
f 237 236 233
f 234 238 235
f 237 238 236
f 235 238 237
f 61 239 58
f 240 239 61
f 58 241 55
f 239 241 58
f 55 242 52
f 241 242 55
f 52 243 49
f 242 243 52
f 49 244 45
f 243 244 49
f 45 245 41
f 244 245 45
f 41 246 37
f 245 246 41
f 37 247 33
f 246 247 37
f 33 248 28
f 247 248 33
f 28 249 24
f 248 249 28
f 24 250 21
f 249 250 24
f 21 251 17
f 250 251 21
f 251 252 17
f 17 252 13
f 13 253 9
f 252 253 13
f 253 254 9
f 9 254 5
f 5 255 2
f 254 255 5
f 2 256 6
f 255 256 2
f 6 257 10
f 256 257 6
f 10 258 14
f 257 258 10
f 14 259 18
f 258 259 14
f 18 260 22
f 259 260 18
f 22 261 26
f 260 261 22
f 26 262 30
f 261 262 26
f 30 263 34
f 262 263 30
f 264 42 38
f 265 42 264
f 265 266 42
f 34 267 38
f 38 267 264
f 264 267 268
f 263 267 34
f 266 46 42
f 269 46 266
f 269 270 46
f 267 271 268
f 272 271 273
f 268 271 272
f 270 50 46
f 274 50 270
f 274 275 50
f 276 277 278
f 273 277 276
f 271 277 273
f 275 53 50
f 279 53 275
f 279 280 53
f 281 282 283
f 277 282 278
f 278 282 281
f 284 56 280
f 280 56 53
f 284 285 56
f 286 287 288
f 283 287 286
f 282 287 283
f 289 59 285
f 285 59 56
f 289 290 59
f 291 292 293
f 288 292 291
f 287 292 288
f 294 62 290
f 290 62 59
f 294 295 62
f 292 296 293
f 297 296 298
f 293 296 297
f 299 65 295
f 295 65 62
f 299 300 65
f 301 302 303
f 298 302 301
f 296 302 298
f 304 68 300
f 300 68 65
f 304 305 68
f 306 307 308
f 303 307 306
f 302 307 303
f 305 71 68
f 309 71 305
f 309 310 71
f 307 311 308
f 312 311 313
f 308 311 312
f 314 75 310
f 310 75 71
f 314 315 75
f 316 317 318
f 313 317 316
f 311 317 313
f 319 79 315
f 315 79 75
f 319 320 79
f 321 322 323
f 318 322 321
f 317 322 318
f 320 83 79
f 324 83 320
f 322 325 323
f 326 325 327
f 323 325 326
f 324 328 83
f 327 328 324
f 325 328 327
f 328 329 83
f 83 329 87
f 329 330 87
f 87 330 91
f 330 331 91
f 91 331 95
f 331 332 95
f 95 332 98
f 332 333 98
f 98 333 102
f 333 334 102
f 102 334 106
f 334 335 106
f 106 335 110
f 110 336 114
f 335 336 110
f 114 337 118
f 336 337 114
f 118 338 122
f 337 338 118
f 122 339 126
f 338 339 122
f 126 340 130
f 339 340 126
f 130 341 134
f 340 341 130
f 341 342 134
f 134 342 138
f 342 343 138
f 138 343 140
f 343 344 140
f 140 344 144
f 344 345 144
f 144 345 148
f 345 346 148
f 148 346 152
f 346 347 152
f 152 347 156
f 347 348 156
f 156 348 160
f 348 349 160
f 160 349 164
f 349 350 164
f 164 350 172
f 350 351 172
f 172 351 171
f 351 352 171
f 171 352 175
f 352 353 175
f 175 353 178
f 353 354 178
f 178 354 181
f 354 355 181
f 181 355 184
f 355 356 184
f 184 356 187
f 187 357 190
f 356 357 187
f 190 358 193
f 357 358 190
f 193 359 197
f 358 359 193
f 197 360 200
f 359 360 197
f 200 361 204
f 360 361 200
f 204 362 209
f 361 362 204
f 209 363 213
f 362 363 209
f 213 364 217
f 363 364 213
f 217 365 221
f 364 365 217
f 221 366 225
f 365 366 221
f 366 367 225
f 225 367 229
f 367 368 229
f 229 368 233
f 368 369 233
f 233 369 237
f 369 370 237
f 237 370 235
f 370 371 235
f 235 371 231
f 371 372 231
f 231 372 227
f 372 373 227
f 227 373 223
f 373 374 223
f 223 374 219
f 374 375 219
f 219 375 215
f 375 376 215
f 215 376 211
f 211 377 207
f 376 377 211
f 378 199 379
f 379 199 203
f 378 380 199
f 207 381 203
f 377 381 207
f 203 381 379
f 382 195 380
f 380 195 199
f 381 383 379
f 379 383 384
f 383 385 384
f 384 385 386
f 382 387 195
f 385 388 386
f 386 388 389
f 381 693 383
f 388 390 389
f 391 390 392
f 389 390 391
f 390 393 392
f 392 393 394
f 393 395 394
f 394 395 396
f 395 397 396
f 396 397 398
f 397 399 398
f 398 399 400
f 387 191 195
f 401 191 387
f 399 402 400
f 403 402 404
f 400 402 403
f 402 405 404
f 404 405 406
f 405 407 406
f 406 407 408
f 408 409 410
f 407 409 408
f 410 411 412
f 409 411 410
f 401 413 191
f 412 414 415
f 411 414 412
f 415 416 417
f 414 416 415
f 417 418 419
f 416 418 417
f 419 420 421
f 418 420 419
f 422 188 413
f 413 188 191
f 420 423 421
f 421 423 424
f 423 425 424
f 424 425 426
f 425 427 426
f 426 427 428
f 422 429 188
f 427 430 428
f 428 430 431
f 430 432 431
f 431 432 433
f 432 434 433
f 433 434 435
f 429 185 188
f 436 185 429
f 434 437 435
f 435 437 438
f 437 439 438
f 438 439 440
f 439 441 440
f 440 441 442
f 436 443 185
f 441 444 442
f 442 444 445
f 445 446 447
f 444 446 445
f 447 448 449
f 446 448 447
f 443 182 185
f 450 182 443
f 449 451 452
f 448 451 449
f 452 453 454
f 451 453 452
f 453 455 454
f 454 455 456
f 450 457 182
f 455 458 456
f 456 458 459
f 458 460 459
f 459 460 461
f 462 179 457
f 457 179 182
f 461 463 464
f 460 463 461
f 463 465 464
f 464 465 466
f 465 467 466
f 466 467 468
f 462 469 179
f 467 470 468
f 468 470 471
f 469 176 179
f 472 176 469
f 470 473 471
f 471 473 474
f 473 475 474
f 474 475 476
f 475 477 476
f 476 477 478
f 472 479 176
f 478 480 481
f 477 480 478
f 480 482 481
f 481 482 483
f 479 173 176
f 484 173 479
f 483 485 486
f 482 485 483
f 486 487 488
f 485 487 486
f 484 489 173
f 487 490 488
f 488 490 491
f 490 492 491
f 491 492 493
f 492 494 493
f 493 494 495
f 489 169 173
f 496 169 489
f 495 497 498
f 494 497 495
f 498 499 500
f 497 499 498
f 496 501 169
f 499 502 500
f 500 502 503
f 502 504 503
f 503 504 505
f 504 506 505
f 505 506 507
f 501 166 169
f 508 166 501
f 507 509 510
f 506 509 507
f 510 511 512
f 509 511 510
f 511 513 512
f 512 513 514
f 508 515 166
f 514 516 517
f 513 516 514
f 517 518 519
f 516 518 517
f 515 162 166
f 520 162 515
f 518 521 519
f 519 521 522
f 522 523 524
f 521 523 522
f 523 525 524
f 524 525 526
f 520 527 162
f 525 528 526
f 526 528 529
f 529 530 531
f 528 530 529
f 531 532 533
f 530 532 531
f 533 534 535
f 532 534 533
f 536 158 527
f 527 158 162
f 535 537 538
f 534 537 535
f 538 539 540
f 537 539 538
f 540 541 542
f 539 541 540
f 542 543 544
f 541 543 542
f 544 545 546
f 543 545 544
f 545 547 546
f 546 547 548
f 548 549 550
f 547 549 548
f 549 551 550
f 550 552 553
f 551 552 550
f 553 554 555
f 552 554 553
f 555 556 557
f 554 556 555
f 557 558 559
f 556 558 557
f 559 560 561
f 558 560 559
f 560 562 561
f 561 563 564
f 562 563 561
f 564 565 566
f 563 565 564
f 566 567 536
f 565 567 566
f 567 568 536
f 158 569 154
f 536 569 158
f 595 569 568
f 568 569 536
f 154 570 150
f 569 570 154
f 150 571 146
f 570 571 150
f 146 572 142
f 571 572 146
f 142 573 137
f 572 573 142
f 137 574 133
f 573 574 137
f 133 575 129
f 574 575 133
f 575 576 129
f 129 576 125
f 576 577 125
f 125 577 121
f 577 578 121
f 121 578 117
f 117 579 113
f 578 579 117
f 113 580 109
f 579 580 113
f 109 581 105
f 580 581 109
f 105 582 101
f 581 582 105
f 101 583 97
f 582 583 101
f 97 584 93
f 583 584 97
f 93 585 89
f 584 585 93
f 89 586 85
f 585 586 89
f 85 587 81
f 586 587 85
f 81 588 77
f 587 588 81
f 77 589 74
f 588 589 77
f 74 590 70
f 589 590 74
f 70 591 67
f 590 591 70
f 67 592 64
f 591 592 67
f 64 593 61
f 592 593 64
f 593 240 61
f 594 595 568
f 255 596 597
f 254 598 596
f 254 596 255
f 256 597 599
f 256 255 597
f 253 600 598
f 253 598 254
f 257 599 601
f 257 256 599
f 252 602 600
f 252 600 253
f 258 601 603
f 258 257 601
f 251 604 602
f 251 602 252
f 259 603 605
f 259 258 603
f 250 606 604
f 250 604 251
f 260 605 607
f 260 259 605
f 249 608 606
f 249 606 250
f 261 607 609
f 261 260 607
f 248 610 608
f 248 608 249
f 262 261 609
f 262 609 611
f 247 610 248
f 247 612 610
f 263 262 611
f 263 611 613
f 246 614 612
f 246 612 247
f 267 263 613
f 267 613 615
f 245 614 246
f 245 616 614
f 271 267 615
f 271 615 617
f 244 616 245
f 244 618 616
f 277 271 617
f 277 617 619
f 243 620 618
f 243 618 244
f 282 277 619
f 282 619 621
f 242 620 243
f 242 622 620
f 287 282 621
f 287 621 623
f 241 622 242
f 241 624 622
f 292 287 623
f 292 623 625
f 239 626 624
f 239 624 241
f 296 292 625
f 296 625 627
f 240 628 626
f 240 626 239
f 302 627 629
f 302 296 627
f 593 630 628
f 593 628 240
f 307 302 629
f 307 629 631
f 592 632 630
f 592 630 593
f 311 631 633
f 311 307 631
f 591 634 632
f 591 632 592
f 317 633 635
f 317 311 633
f 590 636 634
f 590 634 591
f 322 635 637
f 322 317 635
f 589 638 636
f 589 636 590
f 325 637 639
f 325 322 637
f 588 638 589
f 588 640 638
f 328 639 641
f 328 325 639
f 587 640 588
f 642 640 587
f 329 328 641
f 329 641 643
f 586 642 587
f 644 642 586
f 330 329 643
f 330 643 645
f 585 644 586
f 646 644 585
f 331 330 645
f 331 645 647
f 584 646 585
f 648 646 584
f 332 331 647
f 332 647 649
f 583 648 584
f 650 648 583
f 333 332 649
f 333 649 651
f 582 650 583
f 652 650 582
f 334 333 651
f 334 651 653
f 581 652 582
f 335 334 653
f 654 652 581
f 655 335 653
f 580 654 581
f 336 335 655
f 656 654 580
f 657 336 655
f 579 656 580
f 337 336 657
f 658 656 579
f 659 337 657
f 578 658 579
f 338 337 659
f 660 658 578
f 661 338 659
f 577 660 578
f 339 338 661
f 662 660 577
f 576 662 577
f 663 339 661
f 340 339 663
f 664 662 576
f 575 664 576
f 665 340 663
f 341 340 665
f 666 664 575
f 666 575 574
f 667 341 665
f 342 341 667
f 668 666 574
f 668 574 573
f 669 342 667
f 343 342 669
f 670 573 572
f 670 668 573
f 671 343 669
f 344 343 671
f 672 670 572
f 672 572 571
f 673 344 671
f 673 345 344
f 674 571 570
f 674 672 571
f 675 345 673
f 675 346 345
f 676 570 569
f 676 674 570
f 677 347 346
f 677 346 675
f 678 569 595
f 678 676 569
f 679 348 347
f 679 347 677
f 680 349 348
f 680 348 679
f 681 350 349
f 681 349 680
f 682 351 350
f 682 350 681
f 683 352 351
f 683 351 682
f 684 353 352
f 684 352 683
f 685 354 353
f 685 353 684
f 686 355 354
f 686 354 685
f 687 355 686
f 687 356 355
f 688 356 687
f 688 357 356
f 689 357 688
f 689 358 357
f 690 358 689
f 690 359 358
f 691 359 690
f 691 360 359
f 692 693 381
f 694 361 360
f 694 360 691
f 695 381 377
f 695 692 381
f 696 362 361
f 696 361 694
f 697 377 376
f 697 695 377
f 698 363 362
f 698 362 696
f 699 376 375
f 699 697 376
f 700 363 698
f 700 364 363
f 701 375 374
f 701 699 375
f 702 364 700
f 702 365 364
f 703 374 373
f 703 701 374
f 704 366 365
f 704 365 702
f 705 373 372
f 705 703 373
f 706 367 366
f 706 366 704
f 707 372 371
f 707 705 372
f 708 368 367
f 708 367 706
f 709 371 370
f 709 707 371
f 710 369 368
f 710 368 708
f 711 370 369
f 711 709 370
f 711 369 710
f 693 712 383
f 383 712 385
f 712 713 385
f 385 713 388
f 713 714 388
f 714 715 388
f 388 715 390
f 390 716 393
f 715 716 390
f 393 717 395
f 716 717 393
f 395 718 397
f 717 718 395
f 718 719 397
f 719 720 397
f 397 720 399
f 720 721 399
f 399 721 402
f 721 722 402
f 402 722 405
f 722 723 405
f 405 723 407
f 723 724 407
f 407 724 409
f 724 725 409
f 409 725 411
f 725 726 411
f 411 726 414
f 726 727 414
f 414 727 416
f 727 728 416
f 416 728 418
f 728 729 418
f 418 729 420
f 420 730 423
f 729 730 420
f 423 731 425
f 730 731 423
f 425 732 427
f 731 732 425
f 427 733 430
f 732 733 427
f 430 734 432
f 733 734 430
f 432 735 434
f 734 735 432
f 434 736 437
f 735 736 434
f 437 737 439
f 736 737 437
f 439 738 441
f 737 738 439
f 441 739 444
f 738 739 441
f 444 740 446
f 739 740 444
f 446 741 448
f 740 741 446
f 448 742 451
f 741 742 448
f 451 743 453
f 742 743 451
f 453 744 455
f 743 744 453
f 455 745 458
f 744 745 455
f 745 746 458
f 458 746 460
f 746 747 460
f 460 747 463
f 747 748 463
f 463 748 465
f 748 749 465
f 465 749 467
f 467 750 470
f 749 750 467
f 470 751 473
f 750 751 470
f 473 752 475
f 751 752 473
f 475 753 477
f 752 753 475
f 477 754 480
f 753 754 477
f 480 755 482
f 754 755 480
f 482 756 485
f 755 756 482
f 485 757 487
f 756 757 485
f 757 758 487
f 487 758 490
f 490 759 492
f 758 759 490
f 492 760 494
f 759 760 492
f 760 761 494
f 494 761 497
f 497 762 499
f 761 762 497
f 499 763 502
f 762 763 499
f 502 764 504
f 763 764 502
f 504 765 506
f 764 765 504
f 506 766 509
f 765 766 506
f 509 767 511
f 766 767 509
f 511 768 513
f 767 768 511
f 513 769 516
f 768 769 513
f 516 770 518
f 769 770 516
f 518 771 521
f 770 771 518
f 771 772 521
f 521 772 523
f 772 773 523
f 523 773 525
f 773 774 525
f 525 774 528
f 774 775 528
f 528 775 530
f 775 776 530
f 530 776 532
f 776 777 532
f 532 777 534
f 777 778 534
f 534 778 537
f 778 779 537
f 537 779 539
f 779 780 539
f 539 780 541
f 780 781 541
f 541 781 543
f 781 782 543
f 543 782 545
f 782 783 545
f 545 783 547
f 783 784 547
f 547 784 549
f 549 785 551
f 784 785 549
f 551 786 552
f 552 786 554
f 785 786 551
f 786 787 554
f 554 787 556
f 556 788 558
f 787 788 556
f 558 789 560
f 788 789 558
f 560 790 562
f 562 790 563
f 789 790 560
f 563 791 565
f 790 791 563
f 565 792 567
f 791 792 565
f 567 594 568
f 792 594 567
f 626 57 54
f 624 54 51
f 624 626 54
f 622 51 48
f 622 624 51
f 620 48 44
f 620 622 48
f 618 44 40
f 618 620 44
f 616 40 36
f 616 618 40
f 614 36 32
f 614 616 36
f 612 32 29
f 612 614 32
f 610 29 25
f 610 612 29
f 608 25 20
f 608 610 25
f 606 20 16
f 606 608 20
f 604 16 12
f 604 606 16
f 602 604 12
f 602 12 8
f 600 602 8
f 600 8 4
f 598 4 1
f 598 600 4
f 596 1 3
f 596 598 1
f 597 3 7
f 597 596 3
f 599 7 11
f 599 597 7
f 601 11 15
f 601 599 11
f 603 15 19
f 603 601 15
f 605 19 23
f 605 603 19
f 607 23 27
f 607 605 23
f 609 27 31
f 609 607 27
f 611 31 35
f 611 609 31
f 613 35 39
f 613 611 35
f 794 793 43
f 795 794 43
f 47 799 795
f 47 795 43
f 615 39 43
f 615 613 39
f 72 799 47
f 617 793 796
f 617 796 797
f 617 43 793
f 617 615 43
f 619 617 797
f 619 797 276
f 619 276 798
f 621 798 800
f 621 800 801
f 621 619 798
f 623 621 801
f 623 801 802
f 623 802 803
f 625 803 804
f 625 804 805
f 625 623 803
f 627 625 805
f 627 805 806
f 627 806 807
f 629 627 807
f 629 807 808
f 629 808 809
f 72 815 810
f 631 629 809
f 631 809 811
f 631 811 812
f 76 815 72
f 633 631 812
f 633 812 813
f 633 813 814
f 816 815 76
f 80 817 818
f 80 818 816
f 80 816 76
f 635 633 814
f 635 814 819
f 635 819 820
f 637 635 820
f 637 820 821
f 637 821 822
f 639 823 817
f 639 817 80
f 639 80 84
f 639 637 822
f 639 822 823
f 641 639 84
f 641 84 88
f 643 88 92
f 643 641 88
f 645 92 96
f 645 643 92
f 647 96 99
f 647 645 96
f 649 99 103
f 649 647 99
f 651 103 107
f 651 649 103
f 653 107 111
f 653 651 107
f 655 111 115
f 655 653 111
f 657 115 119
f 657 655 115
f 659 119 123
f 659 657 119
f 661 123 127
f 661 659 123
f 663 127 131
f 663 661 127
f 665 131 135
f 665 663 131
f 667 135 139
f 667 665 135
f 669 139 143
f 669 667 139
f 671 143 147
f 671 669 143
f 673 671 147
f 673 147 151
f 675 673 151
f 675 151 155
f 677 675 155
f 677 155 159
f 679 677 159
f 679 159 163
f 680 679 163
f 680 163 167
f 681 680 167
f 681 167 170
f 682 681 170
f 682 170 174
f 683 682 174
f 683 174 177
f 684 683 177
f 684 177 180
f 685 684 180
f 685 180 183
f 686 685 183
f 686 183 186
f 687 686 186
f 687 186 189
f 688 687 189
f 688 189 192
f 689 688 192
f 689 192 196
f 690 689 196
f 690 196 201
f 691 690 201
f 691 201 205
f 694 205 208
f 694 691 205
f 696 208 212
f 696 694 208
f 698 212 216
f 698 696 212
f 700 216 220
f 700 698 216
f 702 220 224
f 702 700 220
f 704 224 228
f 704 702 224
f 706 228 232
f 706 704 228
f 708 232 236
f 708 706 232
f 710 236 238
f 710 708 236
f 711 710 238
f 711 238 234
f 709 711 234
f 709 234 230
f 707 709 230
f 707 230 226
f 705 707 226
f 705 226 222
f 703 705 222
f 703 222 218
f 701 703 218
f 701 218 214
f 699 701 214
f 699 214 210
f 697 699 210
f 697 210 206
f 695 697 206
f 695 206 202
f 825 824 198
f 826 825 198
f 194 840 826
f 194 826 198
f 692 695 202
f 692 198 824
f 692 202 198
f 168 840 194
f 693 692 824
f 712 693 824
f 712 824 827
f 713 712 827
f 713 827 828
f 714 713 828
f 715 714 828
f 715 828 829
f 716 715 829
f 716 829 830
f 717 716 830
f 717 830 831
f 718 717 831
f 718 831 832
f 719 718 832
f 720 719 832
f 720 832 833
f 721 720 833
f 721 833 834
f 722 721 834
f 722 834 835
f 723 722 835
f 723 835 836
f 724 723 836
f 724 836 837
f 725 724 837
f 725 837 838
f 726 838 839
f 726 725 838
f 727 839 841
f 727 726 839
f 728 841 842
f 728 727 841
f 729 842 843
f 729 728 842
f 730 843 844
f 730 729 843
f 731 844 845
f 731 730 844
f 732 845 846
f 732 731 845
f 733 846 847
f 733 732 846
f 734 847 848
f 734 733 847
f 735 848 849
f 735 734 848
f 736 849 850
f 736 735 849
f 737 850 851
f 737 736 850
f 738 851 852
f 738 737 851
f 739 852 853
f 739 738 852
f 740 853 854
f 740 739 853
f 741 854 855
f 741 740 854
f 742 855 856
f 742 741 855
f 743 856 857
f 743 742 856
f 744 857 858
f 744 743 857
f 745 858 859
f 745 744 858
f 746 859 860
f 746 745 859
f 747 860 861
f 747 746 860
f 748 861 862
f 748 747 861
f 749 862 863
f 749 748 862
f 750 749 863
f 750 863 864
f 751 750 864
f 751 864 865
f 752 751 865
f 752 865 866
f 753 866 867
f 753 752 866
f 754 867 868
f 754 753 867
f 755 868 869
f 755 754 868
f 756 869 870
f 756 755 869
f 885 871 168
f 757 870 872
f 757 756 870
f 758 872 873
f 758 757 872
f 759 873 874
f 759 758 873
f 760 874 875
f 760 759 874
f 761 875 876
f 761 760 875
f 762 761 876
f 762 876 877
f 763 762 877
f 763 877 878
f 764 763 878
f 764 878 879
f 765 879 880
f 765 764 879
f 766 765 880
f 766 880 881
f 165 885 168
f 767 766 881
f 767 881 882
f 768 882 883
f 768 767 882
f 769 883 884
f 769 768 883
f 770 884 886
f 770 769 884
f 887 885 165
f 771 886 888
f 771 770 886
f 772 888 889
f 772 771 888
f 161 890 891
f 161 891 887
f 161 887 165
f 773 889 892
f 773 772 889
f 774 892 893
f 774 773 892
f 775 893 894
f 775 774 893
f 776 775 894
f 776 894 895
f 777 895 896
f 777 776 895
f 778 777 896
f 778 896 897
f 779 897 898
f 779 778 897
f 780 898 899
f 780 779 898
f 781 899 900
f 781 780 899
f 782 900 901
f 782 781 900
f 783 901 902
f 783 782 901
f 784 783 902
f 784 902 903
f 785 903 904
f 785 784 903
f 786 904 905
f 786 785 904
f 787 786 905
f 787 905 906
f 787 906 907
f 788 787 907
f 788 907 908
f 789 788 908
f 789 908 909
f 790 909 910
f 790 789 909
f 791 790 910
f 791 910 911
f 791 911 912
f 792 791 912
f 792 912 890
f 594 792 890
f 678 890 161
f 678 595 594
f 678 594 890
f 678 161 157
f 676 157 153
f 676 678 157
f 674 153 149
f 674 676 153
f 672 149 145
f 672 674 149
f 670 145 141
f 670 672 145
f 668 141 136
f 668 670 141
f 666 136 132
f 666 668 136
f 664 132 128
f 664 666 132
f 662 128 124
f 662 664 128
f 660 662 124
f 660 124 120
f 658 660 120
f 658 120 116
f 656 116 112
f 656 658 116
f 654 112 108
f 654 656 112
f 652 108 104
f 652 654 108
f 650 104 100
f 650 652 104
f 648 100 94
f 648 650 100
f 646 94 90
f 646 648 94
f 644 90 86
f 644 646 90
f 642 86 82
f 642 644 86
f 640 82 78
f 640 642 82
f 638 78 73
f 638 640 78
f 636 73 69
f 636 638 73
f 634 69 66
f 634 636 69
f 632 66 63
f 632 634 66
f 630 63 60
f 630 632 63
f 628 60 57
f 628 630 60
f 626 628 57
f 810 799 72
f 871 840 168
f 824 825 379
f 379 825 378
f 825 826 378
f 826 840 378
f 378 840 380
f 380 840 382
f 382 840 387
f 387 840 401
f 401 840 413
f 413 840 422
f 840 871 422
f 422 871 429
f 429 871 436
f 436 871 443
f 443 871 450
f 450 871 457
f 457 871 462
f 462 871 469
f 469 871 472
f 472 871 479
f 479 871 484
f 484 885 489
f 871 885 484
f 489 885 496
f 496 885 501
f 501 885 508
f 508 885 515
f 515 885 520
f 885 887 520
f 887 891 520
f 520 891 527
f 527 891 536
f 536 890 566
f 891 890 536
f 566 912 564
f 890 912 566
f 912 911 564
f 564 910 561
f 911 910 564
f 561 909 559
f 910 909 561
f 559 908 557
f 909 908 559
f 557 907 555
f 908 907 557
f 907 906 555
f 555 905 553
f 906 905 555
f 553 904 550
f 905 904 553
f 550 903 548
f 904 903 550
f 903 902 548
f 548 902 546
f 902 901 546
f 546 901 544
f 901 900 544
f 544 900 542
f 900 899 542
f 542 899 540
f 899 898 540
f 540 898 538
f 898 897 538
f 538 897 535
f 897 896 535
f 535 896 533
f 896 895 533
f 533 895 531
f 895 894 531
f 531 894 529
f 894 893 529
f 529 893 526
f 893 892 526
f 526 892 524
f 892 889 524
f 524 889 522
f 889 888 522
f 522 888 519
f 888 886 519
f 519 886 517
f 886 884 517
f 517 884 514
f 884 883 514
f 514 883 512
f 883 882 512
f 512 882 510
f 882 881 510
f 510 881 507
f 507 880 505
f 881 880 507
f 505 879 503
f 880 879 505
f 503 878 500
f 879 878 503
f 500 877 498
f 878 877 500
f 498 876 495
f 877 876 498
f 495 875 493
f 876 875 495
f 493 874 491
f 875 874 493
f 874 873 491
f 491 873 488
f 873 872 488
f 488 872 486
f 872 870 486
f 486 870 483
f 870 869 483
f 483 869 481
f 869 868 481
f 481 868 478
f 868 867 478
f 478 867 476
f 867 866 476
f 476 866 474
f 866 865 474
f 474 865 471
f 865 864 471
f 471 864 468
f 864 863 468
f 468 863 466
f 863 862 466
f 466 862 464
f 862 861 464
f 464 861 461
f 861 860 461
f 461 860 459
f 860 859 459
f 459 859 456
f 859 858 456
f 456 858 454
f 858 857 454
f 454 857 452
f 857 856 452
f 452 856 449
f 856 855 449
f 449 855 447
f 855 854 447
f 447 854 445
f 445 853 442
f 854 853 445
f 442 852 440
f 853 852 442
f 440 851 438
f 852 851 440
f 438 850 435
f 851 850 438
f 435 849 433
f 850 849 435
f 433 848 431
f 849 848 433
f 848 847 431
f 431 847 428
f 847 846 428
f 428 846 426
f 426 845 424
f 846 845 426
f 424 844 421
f 845 844 424
f 421 843 419
f 844 843 421
f 419 842 417
f 843 842 419
f 417 841 415
f 842 841 417
f 415 839 412
f 841 839 415
f 839 838 412
f 412 838 410
f 410 837 408
f 838 837 410
f 408 836 406
f 837 836 408
f 836 835 406
f 406 835 404
f 404 834 403
f 835 834 404
f 403 833 400
f 400 833 398
f 834 833 403
f 398 832 396
f 833 832 398
f 396 831 394
f 832 831 396
f 394 830 392
f 831 830 394
f 392 829 391
f 391 829 389
f 830 829 392
f 389 828 386
f 829 828 389
f 386 827 384
f 828 827 386
f 384 824 379
f 827 824 384
f 324 320 817
f 817 320 818
f 320 319 818
f 818 319 816
f 816 319 815
f 319 315 815
f 315 314 815
f 314 310 815
f 310 309 815
f 815 309 810
f 309 305 810
f 305 304 810
f 304 300 810
f 300 299 810
f 299 295 810
f 295 294 810
f 294 290 810
f 290 289 810
f 289 285 810
f 285 284 810
f 284 280 810
f 280 279 810
f 810 279 799
f 279 275 799
f 275 274 799
f 274 270 799
f 270 269 799
f 269 266 799
f 266 265 799
f 799 265 795
f 795 265 794
f 794 264 793
f 265 264 794
f 793 268 796
f 264 268 793
f 268 272 796
f 796 272 797
f 797 272 276
f 272 273 276
f 798 276 800
f 276 278 800
f 278 281 800
f 800 281 801
f 281 283 801
f 801 283 802
f 283 286 802
f 802 288 803
f 286 288 802
f 803 291 804
f 288 291 803
f 291 293 804
f 804 293 805
f 293 297 805
f 805 297 806
f 297 298 806
f 806 298 807
f 298 301 807
f 807 301 808
f 301 303 808
f 303 306 808
f 808 306 809
f 809 306 811
f 306 308 811
f 308 312 811
f 811 312 812
f 812 312 813
f 312 313 813
f 313 316 813
f 813 316 814
f 814 316 819
f 316 318 819
f 318 321 819
f 819 321 820
f 820 321 821
f 321 323 821
f 323 326 821
f 821 326 822
f 822 326 823
f 326 327 823
f 823 324 817
f 327 324 823
