# Render LOD; unchanged CAD body-local coordinates in mm
v 158.3950613 297.3817401 137.0000163
v 158.3836583 297.3969198 136.0540953
v 158.6122173 296.8404454 137.0000164
v 158.6059909 296.7724941 136.0045194
v 158.6028376 296.5127522 135.9853851
v 158.5536021 296.2939640 137.0000166
v 158.4605759 296.0724515 135.9514295
v 158.3210524 295.8696218 137.0000163
v 158.2350785 295.7886650 135.9277296
v 157.9582014 295.5844360 137.0000163
v 157.5489523 295.4480432 137.0000166
v 157.6203389 295.4582865 135.8761554
v 157.0569989 295.4770524 137.0000162
v 156.6599841 295.6677729 137.0000166
v 156.3593097 295.9671550 137.0000165
v 156.4976974 295.8049447 135.9013639
v 156.6488453 295.6723854 135.8070566
v 156.5044603 295.8042195 136.3403729
v 156.3204886 296.0318854 136.3188772
v 156.1408853 296.5059682 137.0000160
v 156.2938035 296.0840047 135.8738046
v 156.2961399 296.0646472 135.7696452
v 156.1682974 296.4241491 135.7391410
v 156.1669990 296.4124115 136.2927527
v 156.2064912 297.0847446 137.0000170
v 156.1442836 296.8245667 135.7107119
v 156.3829653 297.4070017 137.0000163
v 156.2470600 297.1729088 135.6870437
v 156.3259741 297.3251152 136.2244398
v 156.6389649 297.6716018 137.0000168
v 156.6171586 297.6483937 135.6433667
v 156.5378352 297.5906633 136.1998470
v 156.7832729 297.7609138 135.7375257
v 156.9654808 297.8386938 137.0000163
v 157.3261762 297.9138170 137.0000165
v 156.9270986 297.8322665 135.6162543
v 157.2497282 297.9120442 135.7029188
v 157.2482524 297.9098892 136.1464230
v 157.8131022 297.8361251 137.0000160
v 157.6048299 297.8878867 135.5690928
v 157.5902361 297.8918489 136.1199585
v 157.9050423 297.7935726 135.5452662
v 158.1387198 297.6453220 137.0000164
v 158.1399908 297.6442872 136.0766017
v 158.2538076 297.5492835 135.5176633
v 158.3941800 297.3727878 135.6070672
v 158.5607410 297.0389861 135.5831273
v 158.6093305 296.5340692 135.5469566
v 158.6107379 296.6950912 135.4495203
v 158.5584225 296.2891128 135.4210080
v 158.2388908 295.7795174 135.3760736
v 156.8373324 295.5546600 135.3794074
v 157.2296884 295.4476042 135.3015255
v 156.4437149 295.8629790 135.3450525
v 156.6555087 295.6705930 135.2578285
v 156.3263661 296.0093722 135.2243198
v 156.1508459 296.5027590 135.1875471
v 156.2022559 297.0853061 135.2525199
v 156.1380868 296.7906778 135.1630877
v 156.5283936 297.5851130 135.2093714
v 156.2825220 297.2523175 135.1315829
v 156.6890968 297.7037715 135.0856453
v 157.3486885 297.9125255 135.1436522
v 157.8424757 297.8258585 135.1088343
v 157.6846203 297.8714512 135.0140845
v 158.2694672 297.5367725 135.0740924
v 158.0401989 297.7210621 134.9876451
v 158.3206287 297.4726109 134.9596284
v 158.5668856 296.9979095 135.0280424
v 158.5843524 296.9319825 134.9170210
v 158.6093308 296.6025338 134.8912687
v 158.5701497 296.3515874 134.9835473
v 158.5120656 296.1692732 134.8635366
v 158.3454952 295.9078178 134.8401988
v 157.0893538 295.4653443 134.8484432
v 157.4914297 295.4438889 134.7666537
v 156.5585336 295.7384918 134.8066042
v 156.9023087 295.5329634 134.7248327
v 156.5884325 295.7254721 134.7009053
v 156.2611850 296.1401898 134.7706455
v 156.3571622 295.9627785 134.6750739
v 156.1343135 296.6177319 134.7308053
v 156.3653327 297.3994923 134.6761776
v 156.1860054 297.0104504 134.6000706
v 156.4131707 297.4621158 134.5622720
v 157.1023425 297.8834119 134.6107526
v 156.8814292 297.8160576 134.5232545
v 157.4814910 297.9141495 134.4765285
v 157.8428046 297.8193663 134.4518108
v 158.3639915 297.4196229 134.5131669
v 158.5473460 297.0737920 134.4852312
v 158.5399452 297.1055850 134.3804362
v 158.6131319 296.6827251 134.4572400
v 158.6128691 296.6564112 134.3458109
v 158.5322196 296.2220277 134.4239548
v 158.2044619 295.7480506 134.3801248
v 158.5091646 296.1611724 134.3143735
v 158.2940639 295.8525231 134.2844706
v 157.7818673 295.5068417 134.3486161
v 158.0515162 295.6390904 134.2591655
v 157.1864488 295.4532148 134.3065950
v 157.4675892 295.4419037 134.2183225
v 156.7262027 295.6153209 134.2707344
v 157.0005924 295.4901662 134.1861753
v 156.7134869 295.6328194 134.1618760
v 156.1415213 296.8233400 134.1710452
v 156.1426255 296.5188288 134.0824869
v 156.3061529 297.2955319 134.1366946
v 156.4079940 297.4552804 134.0163800
v 156.6311082 297.6623510 133.9939023
v 157.1184948 297.8870961 134.0632479
v 156.9879996 297.8498027 133.9626867
v 157.2751949 297.9057064 133.9410959
v 157.5906388 297.8916108 133.9213559
v 158.0000255 297.7483380 133.8901660
v 158.4163229 297.3504838 133.9557343
v 158.3882424 297.3908705 133.8545697
v 158.5817380 296.9457118 133.9261155
v 158.6104112 296.5919896 133.9006400
v 158.6077919 296.7644231 133.8055535
v 158.5114398 296.1841992 133.8688739
v 158.5958909 296.4420936 133.7847999
v 158.2470322 295.7874819 133.8377061
v 158.4195253 296.0107986 133.7473422
v 158.0754829 295.6469571 133.7112422
v 157.4393934 295.4417567 133.7721255
v 157.6293268 295.4649018 133.6798291
v 157.1017208 295.4694082 133.7499276
v 157.2342959 295.4465706 133.6497563
v 156.6535718 295.6637042 133.7119700
v 156.7367302 295.6092300 133.6161892
v 156.3137346 296.0423586 133.6789697
v 156.3865881 295.9335419 133.5786270
v 156.1759836 296.3880456 133.6513845
v 156.1394533 296.6787285 133.6317158
v 156.1631291 296.4024606 133.5420742
v 156.2340991 297.1670350 133.5967202
v 156.1590396 296.8944600 133.5064592
v 156.5259933 297.5736389 133.5606502
v 156.6937770 297.7068414 133.4349176
v 157.4802904 297.9086616 133.4856253
v 157.2542706 297.9061129 133.3930067
v 157.6213229 297.8854839 133.3686068
v 158.0641758 297.7035014 133.4427213
v 158.4023757 297.3738224 133.4045521
v 158.2339651 297.5666056 133.3167101
v 158.4581924 297.2724494 133.2909126
v 158.5805616 296.9494538 133.2687394
v 158.6087881 296.5306689 133.2389457
v 158.4477534 296.0663876 133.3104013
v 158.2729447 295.8233376 133.2902523
v 158.4576935 296.0747456 133.2028426
v 157.8794420 295.5380906 133.2564494
v 158.1383035 295.6925378 133.1671218
v 157.3891994 295.4385307 133.2204289
v 157.6872254 295.4781321 133.1321283
v 156.7153727 295.6222673 133.1662952
v 157.1938983 295.4455016 133.1013444
v 156.8797121 295.5450842 133.0751604
v 156.2945863 296.0621910 133.1251602
v 156.1490085 296.5220443 133.0937785
v 156.2218111 296.2316644 133.0035120
v 156.1573342 296.9215988 132.9546449
v 156.4797615 297.5372010 133.0154252
v 156.4180834 297.4677574 132.9154530
v 156.8949910 297.8148297 132.9794337
v 156.8039694 297.7718988 132.8769335
v 157.2693172 297.9053642 132.9513963
v 157.1114499 297.8822885 132.8550087
v 157.6079180 297.8940791 132.9285054
v 157.4203341 297.9085238 132.8305955
v 158.0081870 297.7372795 132.8980234
v 157.7652223 297.8497672 132.8091911
v 158.0746540 297.6941226 132.7833709
v 158.4489661 297.2952829 132.8535117
v 158.3447186 297.4432544 132.7561586
v 158.6116958 296.6174162 132.8040067
v 158.5914971 296.8965127 132.7152150
v 158.6056699 296.5766040 132.6912916
v 158.4328893 296.0324015 132.7572435
v 158.5387507 296.2342107 132.6705699
v 158.2049530 295.7600565 132.7319337
v 157.9395244 295.5669244 132.7064408
v 158.1995468 295.7432464 132.6227065
v 157.4608083 295.4413436 132.6755128
v 157.7808352 295.5067469 132.5916066
v 156.8739339 295.5451889 132.6334039
v 157.2895818 295.4348420 132.5518521
v 156.8441134 295.5630456 132.5215973
v 156.5446645 295.7508363 132.4956102
v 156.2065764 296.2541408 132.4570053
v 156.1404105 296.7246422 132.4189234
v 156.2729617 297.2347125 132.4918234
v 156.4857225 297.5313286 132.4658170
v 156.7467210 297.7459160 132.3340876
v 157.3110219 297.9155151 132.3969933
v 157.1352846 297.8866774 132.3022024
v 157.4828277 297.9058917 132.2784952
v 158.0834548 297.6944912 132.3382388
v 157.8424112 297.8211942 132.2530530
v 158.1251170 297.6556465 132.2290857
v 158.4192202 297.3443033 132.3068184
v 158.3761357 297.4062965 132.2041920
v 158.5641025 297.0096367 132.2812948
v 158.5650253 297.0182945 132.1732028
v 158.6164951 296.6170251 132.2533414
v 158.6134385 296.5806456 132.1428794
v 158.5345502 296.2524234 132.1162016
v 158.3246303 295.8812418 132.1963335
v 158.3800119 295.9527126 132.0944761
v 158.0233671 295.6211523 132.1677370
v 158.0591865 295.6391033 132.0627801
v 157.6865073 295.4796625 132.1418119
v 157.3228263 295.4395971 132.1157690
v 156.9633680 295.5111422 132.0897860
v 157.1517328 295.4548030 131.9931372
v 156.6400774 295.6814195 132.0637529
v 156.7181432 295.6283916 131.9625693
v 156.3620280 295.9675210 132.0355467
v 156.3834044 295.9310185 131.9309068
v 156.1755282 296.3681723 132.0048814
v 156.2295570 297.1565633 131.9477536
v 156.1477894 296.8035084 131.8637698
v 156.2387889 297.1616882 131.8388353
v 156.4841942 297.5295577 131.9144383
v 156.7528048 297.7482413 131.7842490
v 157.1872074 297.8975433 131.7500019
v 157.4795416 297.9050820 131.8365455
v 157.7878831 297.8398238 131.8133454
v 157.5529109 297.8979241 131.7234533
v 158.1005536 297.6773145 131.7888596
v 157.9100497 297.7909606 131.6974436
v 155.1241890 296.7986628 137.0000164
v 155.2715430 297.4545546 137.0000164
v 155.5244263 297.9515250 137.0000165
v 155.2530820 295.9143581 137.0000163
v 155.7917501 298.2599791 137.0000164
v 156.1652108 298.5781691 137.0000164
v 155.7151131 295.1497282 137.0000163
v 156.9991935 298.8991844 137.0000163
v 156.4380097 294.6243353 137.0000164
v 157.8924973 298.8710583 137.0000164
v 157.3083195 294.4209118 137.0000163
v 158.7044503 298.4984802 137.0000164
v 158.1888445 294.5712829 137.0000164
v 159.3082102 297.8396296 137.0000164
v 158.9421930 295.0519872 137.0000163
v 159.3406316 295.5895253 137.0000164
v 159.5836699 297.1067880 137.0000163
v 159.5351597 296.0538141 137.0000163
v 159.6172179 296.5492350 137.0000163
v 155.7917501 298.2599791 138.8260263
v 155.6351480 298.0836792 138.9159429
v 155.3444769 297.6286492 138.8820204
v 155.1946059 297.1651068 138.9406059
v 155.1522397 296.9292388 138.9085887
v 155.1927488 296.1588643 138.8514035
v 155.3451292 295.7251911 138.8742696
v 155.5371837 295.4014586 138.9150508
v 155.7080203 295.1853768 138.9117201
v 157.9583051 294.5097868 138.8744292
v 158.2479665 294.6138377 138.8940501
v 158.5701309 294.7787067 138.8924171
v 158.8536244 294.9936473 138.9039771
v 159.1347308 295.2844714 138.8836009
v 159.3207802 295.5650169 138.8850062
v 159.4649291 295.8604000 138.8829996
v 159.5966236 296.3463867 138.8773523
v 159.5377327 297.2640242 138.9081857
v 159.1962421 297.9761668 138.9063559
v 158.5914638 298.5561129 138.8969249
v 158.2425545 298.7425208 138.8905631
v 157.5766732 298.9080286 138.8850451
v 157.1617925 298.9050254 138.9035940
v 156.0312062 298.4742644 138.8654169
v 155.8042651 298.2704420 138.8602302
v 155.9082266 298.1058418 139.1828920
v 155.6953371 298.0518370 139.0688202
v 155.7487314 297.8350503 139.2107653
v 155.3835609 297.6389334 138.9950840
v 155.5011416 297.6829453 139.1170434
v 155.8022295 297.7161979 139.2400434
v 155.4026465 297.3312237 139.1638101
v 155.5635699 297.2942558 139.2343270
v 155.3229499 297.1343756 139.1392156
v 155.3800243 296.7759719 139.2100122
v 155.2329467 296.8797250 139.0919491
v 155.1414263 296.5975151 138.9251727
v 155.1884648 296.2891431 138.9702482
v 155.2467551 296.4707558 139.1072016
v 155.3530560 296.0638278 139.1320599
v 155.2665742 295.9956027 138.9814654
v 155.4031670 296.2950747 139.2018082
v 155.4119638 295.7206229 139.0491444
v 155.5055060 296.3646954 139.2396933
v 155.5312557 295.8662969 139.1991569
v 155.6360264 295.5711004 139.1755948
v 155.6832775 295.3056655 139.0554759
v 155.7722423 295.6517827 139.2379694
v 155.8849935 295.0137178 138.9393025
v 155.8614659 295.1754909 139.1159655
v 156.1721565 294.7894866 138.9242291
v 156.1811664 294.8913433 139.0965526
v 156.0465708 295.2450545 139.2257837
v 156.0550094 295.1065031 139.1806369
v 156.4644287 294.6332682 138.9146053
v 156.4711742 294.7278236 139.0956918
v 156.7298299 294.5286303 138.8834327
v 156.6497352 294.7645601 139.1859987
v 156.8091864 294.5441348 139.0096987
v 156.4833957 294.9818174 139.2367452
v 157.2150128 294.4431176 138.9222694
v 157.1060175 294.5214246 139.0623351
v 156.9531207 294.6259912 139.1538977
v 157.0351330 294.7942532 139.2360872
v 157.5965407 294.4463048 138.8940857
v 157.4344251 294.5405195 139.1088503
v 157.6244493 294.4936147 139.0239389
v 157.4910678 294.6661384 139.2035292
v 158.0334794 294.5787301 139.0225946
v 157.9029118 294.6245162 139.1300230
v 157.8430174 294.7994554 139.2339700
v 158.2967665 294.7772043 139.1340765
v 158.4770138 294.7730511 139.0267989
v 158.3071866 294.9303995 139.2170234
v 158.6557738 295.0144573 139.1477333
v 158.8898825 295.0755153 139.0119092
v 159.1690292 295.3895085 139.0033227
v 158.8303564 295.2415403 139.1873775
v 159.0271687 295.3099707 139.1023418
v 158.7222023 295.3252021 139.2387108
v 159.0463718 295.6480328 139.2222246
v 159.3675130 295.7860650 139.0577793
v 159.1876155 295.6261285 139.1471618
v 159.2647128 295.9487808 139.1963969
v 159.5065287 296.1027968 139.0124898
v 159.4269520 296.3378966 139.1655226
v 159.2225773 296.2483895 139.2392005
v 159.5708581 296.5920832 139.0295330
v 159.6112244 296.8498243 138.8868903
v 159.5159190 296.9483332 139.0928946
v 159.3449858 296.9282787 139.2169521
v 159.4616494 297.3397018 139.0340098
v 159.4323757 297.1104004 139.1428991
v 159.3629408 297.7104048 138.9036508
v 159.2578563 297.5418659 139.1674553
v 159.1468178 297.3926695 139.2375810
v 159.3042118 297.7104994 139.0417612
v 159.0060263 298.0543023 139.1159102
v 159.0183860 298.1703623 138.9706949
v 158.9314598 298.2923110 138.8987685
v 158.9414426 297.9360997 139.2036331
v 158.7021974 298.3961124 139.0645132
v 158.6350325 298.2500458 139.2027899
v 158.4365393 298.6006338 139.0190547
v 158.3936076 298.5240347 139.1340885
v 158.1309471 298.5362187 139.2021145
v 158.1409268 298.7183128 139.0515161
v 157.9110778 298.8450944 138.9269988
v 157.9140995 298.6918480 139.1588626
v 158.6198989 298.1168175 139.2398180
v 157.8617380 298.5086730 139.2387126
v 157.3205886 298.8770204 139.0162367
v 157.7036319 298.8248397 139.0588643
v 157.3177784 298.7779513 139.1435926
v 157.4697978 298.6204967 139.2271715
v 156.9570388 298.7735999 139.1048124
v 157.0878434 298.6686763 139.1988381
v 156.8189406 298.8136262 139.0018720
v 156.6926715 298.8117629 138.8645392
v 156.8561472 298.5011229 139.2383922
v 156.3825889 298.6775134 138.9234862
v 156.4382242 298.6417174 139.0527138
v 156.6502812 298.6135921 139.1693441
v 156.0551777 298.4412688 139.0083712
v 156.3148635 298.4584014 139.1635374
v 156.0729913 298.3655038 139.1096907
v 156.3458043 298.3102153 139.2311499
v 156.1866218 296.9941759 139.2410000
v 156.5053777 295.8044850 139.2410000
v 157.0575415 297.8651251 139.2410000
v 157.6951217 295.4856749 139.2410000
v 158.2473539 297.5463150 139.2410000
v 158.5661098 296.3566241 139.2410000
v 156.1866218 296.9941759 137.8113528
v 156.5053777 295.8044850 137.8113528
v 157.0575415 297.8651251 137.8113528
v 158.2473539 297.5463150 137.8113528
v 158.5661098 296.3566241 137.8113528
v 157.6951217 295.4856749 137.8113528
v 158.2670776 297.5360343 131.6648009
v 158.5709934 296.9937456 131.7291569
v 158.4883736 297.2112798 131.6372607
v 158.5894980 296.9102503 131.6145612
v 158.6125567 296.5722281 131.6977314
v 158.5163831 296.2057040 131.6733557
v 158.3640641 295.9280007 131.6482530
v 158.0705606 295.6466483 131.5109060
v 157.6078330 295.4582718 131.5894930
v 157.5367022 295.4422183 131.4730087
v 157.1125772 295.4649906 131.5523472
v 156.7139102 295.6311534 131.5187054
v 157.0166657 295.4901755 131.4358228
v 156.4638857 295.8450932 131.4957081
v 156.6295174 295.6895037 131.4045360
v 156.2554217 296.1479915 131.4719517
v 156.3614211 295.9687602 131.3773971
v 156.1850057 296.3427130 131.3469909
v 156.1526466 296.8689162 131.4191314
v 156.1383703 296.7264488 131.3257754
v 156.3210080 297.3283496 131.3814620
v 156.2918383 297.2838965 131.3289159
v 156.7970655 297.7674915 131.3336152
v 156.6849272 295.9880070 136.1197133
v 156.1449207 296.7441761 136.2681074
v 156.4504613 296.3449260 136.0830285
v 156.1987320 297.0440848 136.2464813
v 156.4147763 296.8400438 136.0365893
v 156.5586739 297.2092219 136.0008941
v 156.8734240 297.8016613 136.1721293
v 157.8815471 297.8006776 136.0984910
v 157.5150325 297.6460406 135.9015879
v 158.0559907 297.3924954 135.8475865
v 158.5461656 297.0680474 136.0264428
v 158.3294790 296.4853288 135.7607961
v 158.2189057 296.1797197 135.7330660
v 157.9970712 295.6095179 135.9070833
v 157.8597189 295.8271618 135.6816809
v 157.4640953 295.7034446 135.6469008
v 157.0756014 295.4720810 135.8412376
v 157.0713667 295.7497755 135.6091315
v 156.6448599 296.0395056 135.5641780
v 156.4887814 296.2679988 135.5392604
v 156.4175067 296.5335834 135.5145773
v 156.4022161 297.4322094 135.6653166
v 156.7997680 297.4572042 135.4179001
v 157.3006263 297.9067314 135.5908923
v 157.1267750 297.6215420 135.3898158
v 157.6813326 297.6068388 135.3347971
v 158.0244736 297.3988526 135.2982639
v 158.1950437 297.1985374 135.2782556
v 158.5409523 297.1044789 135.4798065
v 158.3293811 296.9080178 135.2476082
v 158.3177794 296.4342584 135.2027145
v 158.2069014 296.1700641 135.1807208
v 158.0361134 295.9644563 135.1545212
v 157.7081978 295.4770484 135.3360191
v 157.7688872 295.7806629 135.1282863
v 157.2989476 295.7039147 135.0800759
v 156.9263571 295.5276774 135.2751396
v 157.0188130 295.7731525 135.0544405
v 156.7713059 295.9113805 135.0284536
v 156.5876413 296.1091592 135.0041796
v 156.4726044 296.3254849 134.9840449
v 156.4030166 296.5963195 134.9588199
v 156.4266962 296.8758905 134.9348008
v 156.4657563 297.5058039 135.1084538
v 156.5243466 297.1490921 134.9053599
v 156.8569860 297.5035177 134.8663219
v 157.0459683 297.8670503 135.0601944
v 157.3730278 297.9088869 135.0358462
v 157.2952131 297.6475373 134.8215550
v 157.7464831 297.5833611 134.7794537
v 158.4810314 297.2229944 134.9380304
v 158.2334172 297.1325316 134.7175734
v 158.3322585 296.4768380 134.6585144
v 158.0065202 295.9342971 134.6027220
v 157.9557265 295.5751545 134.8047705
v 157.7830331 295.7920706 134.5748759
v 157.5264111 295.7139865 134.5544411
v 157.1750633 295.4594970 134.7465203
v 157.2208992 295.7134344 134.5230848
v 156.9540135 295.8017434 134.5014067
v 156.7179425 295.9568062 134.4722848
v 156.4840779 296.2799013 134.4383570
v 156.1409049 296.5349810 134.6355424
v 156.4017687 296.6695686 134.4002906
v 156.5401794 297.1656662 134.3553946
v 156.6864785 297.3604090 134.3353212
v 156.8934823 297.5191447 134.3075940
v 157.4054407 297.6478162 134.2638586
v 157.6575230 297.6060883 134.2367900
v 158.1049200 297.6708540 134.4306107
v 157.9223159 297.4857783 134.2125017
v 158.3315030 297.4575100 134.4084678
v 158.1681728 297.2407578 134.1811076
v 158.3168646 296.9432600 134.1507251
v 156.4711991 297.0429331 132.1681568
v 158.3348121 296.5177354 134.1121660
v 157.8814681 295.8460932 134.0388676
v 158.1580084 296.0823949 134.0672361
v 157.7534975 295.5017092 134.2376780
v 157.5692800 295.7192033 134.0068553
v 157.1130468 295.7341118 133.9622015
v 156.3480013 295.9763645 134.1272876
v 156.6710480 296.0036891 133.9185895
v 156.4177956 296.5150551 133.8685617
v 156.4958725 296.2597035 133.8883951
v 156.4103083 296.7493945 133.8453602
v 156.1933086 297.0360039 134.0483938
v 156.4571551 296.9887959 133.8213474
v 156.5740537 297.2233028 133.7976904
v 156.9863249 297.5678049 133.7532836
v 157.3120335 297.6474417 133.7186956
v 157.7545184 297.5757658 133.6796683
v 158.0021555 297.4149649 133.6529845
v 158.5472924 297.0634852 133.8266155
v 158.2085649 297.1893439 133.6254727
v 158.3461891 296.7838564 133.5868082
v 158.2067851 296.1709427 133.5308873
v 158.3143740 296.4033214 133.5523454
v 158.0533694 295.9801767 133.5086614
v 157.6251886 295.7359211 133.4602917
v 157.0981392 295.7435933 133.4159586
v 156.8404854 295.8590177 133.3887019
v 156.6321739 296.0537301 133.3606697
v 156.4952871 296.2594389 133.3430257
v 156.4142433 296.5429247 133.3123626
v 156.4144461 296.8039430 133.2921305
v 156.4753425 297.0475999 133.2704364
v 156.3454304 297.3705172 133.4732219
v 156.6333362 297.3012267 133.2389301
v 156.8265367 297.4738064 133.2174186
v 156.9730409 297.8398437 133.4151389
v 157.0641053 297.5950738 133.1915792
v 157.3368023 297.6475457 133.1704207
v 157.6063864 297.6191689 133.1418013
v 157.9413250 297.7740723 133.3453179
v 158.0721472 297.3531575 133.0963052
v 157.8759752 297.5104305 133.1153507
v 158.3279894 296.8949035 133.0469996
v 158.3379043 296.5014671 133.0118704
v 158.1859293 296.1335199 132.9780269
v 157.8988005 295.8509112 132.9389109
v 157.5141966 295.7118848 132.9022097
v 156.6488151 296.0257190 132.8141847
v 157.0074434 295.7704384 132.8523786
v 156.4759542 295.8175123 133.0379632
v 156.1475513 296.5702340 132.9806342
v 156.4257073 296.4375332 132.7769018
v 156.4232539 296.8555791 132.7357574
v 156.6526718 297.3242332 132.6861554
v 156.8517379 297.4943014 132.6665432
v 157.1035777 297.6105082 132.6370694
v 157.4560875 297.6478172 132.6076062
v 158.1026845 297.3169358 132.5402849
v 157.8847201 297.5111125 132.5669459
v 158.4913448 297.2028588 132.7372442
v 158.2407313 297.1172468 132.5170361
v 158.3341114 296.8557590 132.4913994
v 158.3414427 296.5751951 132.4668190
v 158.1351035 296.0712044 132.4185430
v 158.2718347 296.2855761 132.4413837
v 157.9513959 295.8958286 132.3954138
v 157.7041554 295.7575799 132.3674161
v 157.2078520 295.7210908 132.3247554
v 156.9598298 295.7978999 132.2991232
v 156.7349054 295.9483587 132.2764119
v 156.4408457 296.4071663 132.2245512
v 156.1940415 297.0234403 132.3979188
v 156.4035402 296.7076303 132.1993972
v 158.0003416 295.6086119 133.8133941
v 157.7307171 295.4950043 133.7941744
v 156.7474959 297.4164808 133.7739080
v 156.9396802 297.8393933 133.5215911
v 157.8434704 297.8187899 133.4592455
v 158.5576544 297.0308851 133.3814352
v 158.6107421 296.7167186 133.3574647
v 158.5716653 296.3584567 133.3319186
v 157.8540716 295.8315189 133.4846234
v 157.3516321 295.7039101 133.4355179
v 157.0150440 295.4944815 133.1918085
v 156.1558867 296.8488172 133.0684271
v 156.2265230 297.1308089 133.0465907
v 158.2415098 297.5537653 132.8746661
v 158.2169084 297.1599394 133.0709483
v 158.5780538 296.9547518 132.8248673
v 158.5514974 296.3035018 132.7787285
v 157.2132210 295.4529513 132.6569826
v 156.4791070 295.8144420 132.5972203
v 156.2115988 296.2600825 132.5600108
v 156.1344067 296.7400283 132.5281930
v 156.5121746 297.1150602 132.7109513
v 156.7927575 297.7683372 132.4344877
v 157.7268157 297.8591854 132.3678073
v 158.5154808 296.1984137 132.2206092
v 157.4607056 295.7088159 132.3455152
v 156.5612455 296.1504092 132.2523194
v 156.1430136 296.7072903 131.9788656
v 156.1795545 296.3738953 135.8516284
v 156.1369206 296.7329546 135.8229220
v 156.2168799 297.0970393 135.7996342
v 156.4121807 297.4566146 135.7689444
v 156.8388310 297.4908620 135.9643476
v 157.1857994 297.6288191 135.9293922
v 157.5965645 297.8895596 135.6774000
v 157.9303558 297.7810109 135.6506085
v 158.1935112 297.6004892 135.6292760
v 158.3323776 296.8882271 135.7945488
v 158.4697489 296.0976885 135.5118704
v 158.1734418 295.7210349 135.4769378
v 157.6274904 295.4576700 135.4318792
v 157.2910152 295.4440934 135.4112790
v 156.8270959 295.8745206 135.5848102
v 156.1979140 296.2786002 135.3072279
v 156.1451601 296.7850809 135.2717816
v 156.4229300 296.8884563 135.4848137
v 156.5831272 297.2406407 135.4453107
v 156.9575464 297.8389118 135.1721401
v 158.4557114 297.2723712 135.0496398
v 158.6117224 296.6943229 135.0060827
v 158.3587346 295.9131737 134.9451688
v 157.8810902 295.5390435 134.9010702
v 157.5516357 295.4539266 134.8803398
v 156.1709758 296.9425913 134.7099338
v 156.7189735 297.7227811 134.6411070
v 157.5674869 297.9014447 134.5817457
v 158.0625868 297.7068146 134.5425176
v 158.0768904 297.3483620 134.7420288
v 158.3326693 296.8560999 134.6910191
v 158.1825432 296.1322800 134.6229117
v 157.4960968 295.4487702 134.3266439
v 156.3050112 296.0443961 134.2235226
v 156.1833195 296.3595664 134.2028568
v 156.4417217 296.9392828 134.3761650
v 156.6199360 297.6623196 134.0988122
v 157.1464581 297.6175543 134.2846953
v 157.5916715 297.8969475 134.0271074
v 158.0891610 297.6904250 133.9867545
v 156.1565101 296.4913107 131.4446793
v 156.4376586 296.9345392 131.6292668
v 156.6658678 297.3564660 131.5855549
v 157.2117596 297.6469783 131.5297757
v 157.1604358 297.8840861 131.3181763
v 157.6811729 297.5987299 131.4875807
v 157.9606207 297.4547028 131.4588547
v 157.6010438 297.8631193 131.3015837
v 158.0625796 297.6529544 131.2835511
v 158.3370824 296.8397676 131.3925663
v 158.3231886 296.4127336 131.3544694
v 158.4909087 296.4422708 131.2262732
v 158.1129753 296.0386287 131.3151283
v 157.4803102 295.7060434 131.2499309
v 158.3846917 297.2656082 131.2605797
v 157.0413300 295.7538443 131.2095072
v 157.0254866 295.6844643 131.1454517
v 156.6775290 295.9965107 131.1704273
v 156.4938566 296.1677217 131.1108911
v 156.4096888 296.5472243 131.1142309
v 156.4414177 296.9577463 131.0754982
v 156.3760273 296.5932027 131.0909545
v 156.7057000 297.3848668 132.1310350
v 157.1532215 297.6333074 132.0851334
v 156.7279171 297.7251213 131.8921038
v 157.0863688 297.8818653 131.8632843
v 157.7273537 297.5921586 132.0327171
v 158.0750161 297.3519933 131.9947359
v 158.3883412 297.3907473 131.7595565
v 158.3050678 296.9944940 131.9563052
v 158.3260780 296.4286006 131.9026855
v 158.0106655 295.9228400 131.8511447
v 158.0340972 295.6255052 131.6177897
v 157.4622334 295.6954687 131.7975678
v 156.7709112 295.9142585 131.7310903
v 156.5238264 296.2024256 131.6965820
v 156.4024341 296.5857840 131.6605518
v 157.9362419 297.3876552 130.9999738
v 156.4613970 296.6635136 130.9999321
v 156.5852686 296.2304712 130.9999854
v 157.6222725 297.5485876 130.9999752
v 157.2324090 297.5722483 130.9999780
v 156.8321459 297.4036755 130.9999406
v 156.5925870 297.6380741 131.3436194
v 156.5926926 297.1313526 130.9999516
v 156.7132914 295.8784004 131.1283399
v 156.8717999 295.9150643 130.9999503
v 157.2521064 295.7774438 130.9999898
v 157.3789936 295.6060482 131.1619936
v 157.8550749 295.6893915 131.1836873
v 157.6489990 295.8067527 130.9999429
v 158.0359299 296.0478276 130.9999650
v 158.2671808 296.0053583 131.2044627
v 158.2347804 296.3854994 130.9999784
v 158.2842403 296.7663224 130.9998719
v 158.5089967 296.8807433 131.2447362
v 158.1499269 297.1515264 130.9999588
v 157.6423842 295.4675552 132.0242129
v 157.0742391 295.7505989 131.7625448
v 156.1675573 296.4035044 131.8931018
v 156.4394530 297.4805357 131.8107971
v 158.1981861 297.2006766 131.4278565
v 158.6073450 296.5945862 131.5931153
v 158.5357425 296.2395195 131.5683409
v 158.3563817 295.9258824 131.5423130
v 157.8104982 295.7999772 131.2796654
v 156.4910716 296.2718812 131.1405645
v 156.3528592 297.3760167 132.3703490
f 424 2 1
f 424 1 3
f 4 424 3
f 5 4 3
f 5 3 6
f 7 5 6
f 7 6 8
f 9 7 8
f 9 8 10
f 427 9 10
f 12 427 10
f 12 10 11
f 430 12 11
f 430 11 13
f 17 13 14
f 17 430 13
f 18 17 14
f 18 14 15
f 16 17 18
f 22 17 16
f 19 18 15
f 19 15 20
f 24 19 20
f 23 22 590
f 26 23 591
f 415 24 20
f 415 20 25
f 417 415 25
f 28 26 592
f 29 417 25
f 29 25 27
f 435 28 593
f 32 29 27
f 32 27 30
f 31 435 593
f 36 31 33
f 420 32 30
f 420 30 34
f 38 420 34
f 38 34 35
f 437 36 37
f 40 437 37
f 41 38 35
f 41 35 39
f 42 40 596
f 421 41 39
f 44 39 43
f 44 421 39
f 45 42 597
f 2 44 43
f 2 43 1
f 16 21 22
f 21 590 22
f 590 591 23
f 591 592 26
f 592 593 28
f 593 33 31
f 33 37 36
f 37 596 40
f 596 597 42
f 597 598 45
f 46 45 598
f 442 45 46
f 442 46 47
f 49 442 47
f 49 47 48
f 50 49 48
f 600 50 48
f 51 50 600
f 601 51 600
f 447 51 601
f 602 447 601
f 53 447 602
f 603 53 602
f 52 53 603
f 450 53 52
f 55 450 52
f 54 55 52
f 56 55 54
f 605 56 54
f 57 56 605
f 59 57 605
f 606 59 605
f 58 59 606
f 61 59 58
f 60 61 58
f 457 61 60
f 62 457 60
f 609 62 60
f 460 62 609
f 63 460 609
f 461 460 63
f 65 461 63
f 64 65 63
f 67 65 64
f 66 67 64
f 68 67 66
f 610 68 66
f 464 68 610
f 69 464 610
f 70 464 69
f 611 70 69
f 71 70 611
f 72 71 611
f 73 71 72
f 612 73 72
f 74 73 612
f 468 74 612
f 613 468 612
f 76 468 613
f 614 76 613
f 75 76 614
f 471 76 75
f 78 471 75
f 77 78 75
f 79 78 77
f 81 79 77
f 80 81 77
f 476 81 80
f 82 476 80
f 84 476 82
f 615 84 82
f 83 84 615
f 85 84 83
f 616 85 83
f 87 85 616
f 86 87 616
f 88 87 86
f 617 88 86
f 89 88 617
f 618 89 617
f 483 89 618
f 485 483 618
f 485 618 90
f 92 485 90
f 91 92 90
f 93 92 91
f 94 92 93
f 95 94 93
f 97 94 95
f 97 95 96
f 98 97 96
f 100 98 96
f 99 100 96
f 492 100 99
f 102 492 99
f 622 102 99
f 101 102 622
f 104 102 101
f 103 104 101
f 105 104 103
f 495 105 103
f 623 495 103
f 107 495 623
f 624 107 623
f 106 107 624
f 500 107 106
f 108 500 106
f 109 500 108
f 626 109 108
f 110 109 626
f 112 110 626
f 111 112 626
f 113 112 111
f 628 113 111
f 114 113 628
f 115 114 628
f 629 115 628
f 117 115 629
f 117 629 116
f 507 117 116
f 118 507 116
f 120 507 118
f 119 120 118
f 122 120 119
f 121 122 119
f 124 122 121
f 123 124 121
f 125 124 123
f 562 125 123
f 563 125 562
f 127 125 563
f 126 127 563
f 129 127 126
f 128 129 126
f 131 129 128
f 130 131 128
f 133 131 130
f 132 133 130
f 136 133 132
f 134 136 132
f 135 136 134
f 138 136 135
f 137 138 135
f 521 138 137
f 139 521 137
f 140 521 139
f 565 140 139
f 524 140 565
f 142 524 565
f 141 142 565
f 143 142 141
f 143 141 566
f 528 143 566
f 144 528 566
f 146 528 144
f 145 146 144
f 147 146 145
f 567 147 145
f 148 147 567
f 568 148 567
f 149 148 568
f 569 149 568
f 152 149 569
f 150 152 569
f 151 152 150
f 154 152 151
f 153 154 151
f 156 154 153
f 155 156 153
f 158 156 155
f 572 158 155
f 157 158 572
f 159 158 157
f 538 159 157
f 160 538 157
f 162 538 160
f 161 162 160
f 539 162 161
f 163 539 161
f 573 163 161
f 574 163 573
f 165 163 574
f 164 165 574
f 167 165 164
f 166 167 164
f 169 167 166
f 168 169 166
f 171 169 168
f 170 171 168
f 173 171 170
f 173 170 172
f 174 173 172
f 575 174 172
f 176 174 575
f 175 176 575
f 548 176 175
f 577 548 175
f 178 548 577
f 177 178 577
f 179 178 177
f 181 179 177
f 578 181 177
f 180 181 578
f 184 181 180
f 182 184 180
f 183 184 182
f 186 184 183
f 185 186 183
f 188 186 185
f 579 188 185
f 187 188 579
f 189 188 187
f 190 189 187
f 580 190 187
f 191 190 580
f 581 191 580
f 582 191 581
f 192 191 582
f 560 192 582
f 193 560 582
f 697 560 193
f 194 697 193
f 195 697 194
f 584 195 194
f 197 195 584
f 196 197 584
f 198 197 196
f 585 198 196
f 200 198 585
f 199 200 585
f 201 200 199
f 203 201 199
f 202 203 199
f 205 203 202
f 204 205 202
f 206 205 204
f 207 205 206
f 586 207 206
f 208 207 586
f 210 208 586
f 209 210 586
f 212 210 209
f 211 212 209
f 213 212 211
f 687 212 213
f 214 687 213
f 216 687 214
f 215 216 214
f 218 216 215
f 217 218 215
f 220 218 217
f 219 220 217
f 221 220 219
f 689 220 221
f 589 689 221
f 223 689 589
f 222 223 589
f 224 223 222
f 690 224 222
f 225 690 222
f 226 690 225
f 654 226 225
f 655 226 654
f 227 226 655
f 228 227 655
f 230 227 228
f 229 230 228
f 232 230 229
f 231 232 229
f 391 232 231
f 391 231 658
f 233 20 236
f 233 25 20
f 234 25 233
f 20 15 236
f 235 25 234
f 236 15 239
f 235 27 25
f 237 30 235
f 235 30 27
f 238 30 237
f 15 14 239
f 239 14 241
f 14 13 241
f 238 34 30
f 240 34 238
f 241 13 243
f 240 35 34
f 13 11 243
f 240 242 35
f 35 242 39
f 11 245 243
f 10 245 11
f 242 244 39
f 39 244 43
f 10 247 245
f 8 247 10
f 43 244 1
f 244 246 1
f 8 248 247
f 6 248 8
f 1 246 3
f 6 250 248
f 246 249 3
f 6 251 250
f 3 251 6
f 249 251 3
f 253 252 237
f 253 237 235
f 254 253 235
f 254 235 234
f 255 254 234
f 255 234 233
f 256 255 233
f 288 256 233
f 257 288 233
f 257 233 236
f 258 257 236
f 259 236 239
f 259 258 236
f 260 259 239
f 300 260 239
f 302 300 239
f 302 239 241
f 306 302 241
f 308 306 241
f 308 241 243
f 312 308 243
f 316 312 243
f 261 316 243
f 261 243 245
f 262 261 245
f 263 262 245
f 263 245 247
f 264 263 247
f 265 264 247
f 265 247 248
f 266 265 248
f 267 266 248
f 267 248 250
f 268 267 250
f 268 250 251
f 340 268 251
f 340 251 249
f 269 340 249
f 269 249 246
f 345 269 246
f 270 345 246
f 351 270 246
f 351 246 244
f 271 351 244
f 272 271 244
f 272 244 242
f 359 272 242
f 273 359 242
f 273 242 240
f 274 273 240
f 370 274 240
f 370 240 238
f 372 370 238
f 275 372 238
f 275 238 237
f 252 275 237
f 252 252 237
f 252 252 237
f 276 275 252
f 276 252 252
f 276 252 252
f 253 276 252
f 280 253 254
f 280 278 253
f 281 277 278
f 279 277 281
f 281 278 280
f 283 279 281
f 255 280 254
f 283 281 280
f 282 279 284
f 283 280 255
f 284 279 283
f 285 283 255
f 287 285 255
f 287 255 256
f 286 283 285
f 288 287 256
f 286 284 283
f 286 285 287
f 295 282 284
f 290 287 288
f 289 288 257
f 295 284 286
f 289 290 288
f 290 286 287
f 293 286 290
f 292 289 257
f 291 290 289
f 292 291 289
f 292 257 258
f 295 286 293
f 293 290 291
f 294 291 292
f 294 292 258
f 296 293 291
f 259 294 258
f 297 291 294
f 295 293 296
f 296 291 297
f 298 294 259
f 299 295 296
f 298 297 294
f 260 298 259
f 297 299 296
f 301 297 298
f 300 298 260
f 301 298 300
f 305 297 301
f 304 299 297
f 304 297 305
f 303 301 300
f 303 300 302
f 311 299 304
f 305 301 303
f 307 303 302
f 311 304 305
f 307 302 306
f 309 305 303
f 309 303 307
f 311 305 309
f 310 307 306
f 310 306 308
f 314 307 310
f 309 307 314
f 310 308 312
f 312 313 310
f 313 314 310
f 315 311 309
f 315 309 314
f 317 314 313
f 317 313 312
f 318 317 312
f 318 312 316
f 319 314 317
f 319 315 314
f 320 318 316
f 320 316 261
f 321 317 318
f 322 315 319
f 321 318 320
f 321 319 317
f 262 320 261
f 321 322 319
f 324 320 262
f 324 262 263
f 323 321 320
f 323 320 324
f 325 322 321
f 325 321 323
f 326 323 324
f 325 323 326
f 264 324 263
f 327 324 264
f 326 324 327
f 331 322 325
f 329 325 326
f 265 327 264
f 330 326 327
f 328 327 265
f 331 325 329
f 328 330 327
f 329 326 330
f 266 328 265
f 333 328 266
f 333 330 328
f 334 329 330
f 332 331 329
f 334 330 333
f 333 266 267
f 332 329 334
f 336 333 267
f 335 332 334
f 338 331 332
f 333 335 334
f 268 336 267
f 337 335 333
f 337 333 336
f 338 332 335
f 339 336 268
f 337 336 339
f 340 339 268
f 338 335 337
f 341 337 339
f 342 338 337
f 341 339 340
f 341 340 269
f 342 337 341
f 344 342 341
f 343 341 269
f 347 338 342
f 344 341 343
f 348 269 345
f 348 343 269
f 346 344 343
f 348 346 343
f 346 342 344
f 347 342 346
f 270 348 345
f 349 346 348
f 350 348 270
f 350 270 351
f 349 348 350
f 352 347 346
f 352 346 349
f 361 347 352
f 353 350 351
f 353 349 350
f 354 352 349
f 271 353 351
f 353 354 349
f 354 361 352
f 355 353 271
f 356 353 355
f 272 355 271
f 356 354 353
f 356 355 358
f 358 355 272
f 357 354 356
f 359 358 272
f 360 356 358
f 361 354 357
f 357 356 360
f 362 361 357
f 364 358 359
f 360 358 364
f 364 359 273
f 362 357 360
f 363 364 273
f 366 362 360
f 274 363 273
f 365 360 364
f 365 364 363
f 366 360 365
f 369 274 370
f 369 363 274
f 367 363 369
f 367 365 363
f 366 365 368
f 368 365 367
f 371 362 366
f 371 366 368
f 372 369 370
f 374 368 367
f 373 369 372
f 374 367 369
f 374 369 373
f 371 368 374
f 375 373 372
f 375 372 275
f 376 374 373
f 378 371 374
f 377 373 375
f 378 374 376
f 377 376 373
f 275 276 253
f 375 275 253
f 375 253 278
f 377 375 278
f 277 376 377
f 377 278 277
f 277 378 376
f 378 282 371
f 378 277 279
f 378 279 282
f 379 282 295
f 380 379 295
f 380 295 299
f 380 299 311
f 381 282 379
f 381 371 282
f 362 371 381
f 382 311 315
f 382 380 311
f 382 315 322
f 331 382 322
f 383 361 362
f 383 362 381
f 331 384 382
f 338 384 331
f 347 361 383
f 347 383 384
f 338 347 384
f 379 380 385
f 385 380 386
f 381 379 387
f 387 379 385
f 383 381 388
f 388 381 387
f 384 383 389
f 389 383 388
f 382 384 390
f 390 384 389
f 380 382 386
f 386 382 390
f 385 386 390
f 387 390 389
f 387 389 388
f 387 385 390
f 393 391 658
f 393 658 392
f 394 393 392
f 394 392 395
f 692 394 395
f 693 692 395
f 693 395 396
f 693 396 397
f 694 693 397
f 398 694 397
f 398 397 662
f 400 398 662
f 400 662 399
f 400 399 401
f 403 400 401
f 403 401 402
f 405 403 402
f 405 402 404
f 407 405 404
f 407 404 406
f 408 407 406
f 408 406 630
f 410 408 630
f 410 630 409
f 412 410 409
f 412 409 411
f 673 412 411
f 19 414 18
f 94 487 92
f 24 416 19
f 19 416 414
f 24 415 416
f 416 415 418
f 415 417 418
f 418 417 419
f 417 29 419
f 32 594 29
f 29 594 419
f 594 420 595
f 32 420 594
f 595 38 422
f 420 38 595
f 38 41 422
f 422 421 423
f 41 421 422
f 421 44 423
f 44 2 423
f 423 2 599
f 2 424 599
f 424 4 599
f 599 4 425
f 5 425 4
f 7 425 5
f 7 426 425
f 7 9 426
f 426 9 428
f 9 427 428
f 12 429 427
f 427 429 428
f 430 429 12
f 429 430 431
f 430 17 431
f 431 17 604
f 22 432 17
f 17 432 604
f 432 22 433
f 23 434 22
f 26 434 23
f 22 434 433
f 26 607 434
f 26 28 607
f 607 28 608
f 28 435 608
f 608 435 436
f 436 31 438
f 435 31 436
f 36 438 31
f 36 437 438
f 438 437 439
f 437 40 439
f 45 439 42
f 42 439 40
f 439 45 440
f 440 45 441
f 442 441 45
f 441 442 443
f 442 49 443
f 443 49 444
f 50 444 49
f 51 445 50
f 50 445 444
f 51 446 445
f 447 448 51
f 51 448 446
f 448 447 449
f 447 53 449
f 53 451 449
f 450 451 53
f 450 55 451
f 451 55 452
f 452 56 453
f 55 56 452
f 57 454 56
f 56 454 453
f 454 57 455
f 59 456 57
f 57 456 455
f 59 61 456
f 456 61 458
f 61 457 458
f 458 457 459
f 460 459 62
f 62 459 457
f 459 460 462
f 460 461 462
f 462 461 463
f 461 65 463
f 65 67 463
f 463 67 619
f 619 68 465
f 67 68 619
f 68 464 465
f 465 464 620
f 464 70 620
f 70 466 620
f 71 466 70
f 466 73 621
f 71 73 466
f 621 74 467
f 73 74 621
f 468 467 74
f 469 468 470
f 467 468 469
f 76 470 468
f 76 471 470
f 470 471 472
f 78 473 471
f 79 473 78
f 471 473 472
f 473 79 474
f 81 475 79
f 79 475 474
f 476 475 81
f 475 476 477
f 477 84 625
f 476 84 477
f 85 478 84
f 84 478 625
f 85 479 478
f 87 479 85
f 479 87 480
f 480 87 627
f 88 627 87
f 88 481 627
f 88 89 481
f 481 89 482
f 482 89 484
f 89 483 484
f 483 485 484
f 484 485 486
f 486 92 487
f 485 92 486
f 414 16 18
f 94 489 487
f 97 489 94
f 489 97 491
f 97 98 491
f 100 490 98
f 98 490 491
f 100 492 490
f 490 492 493
f 493 102 494
f 492 102 493
f 102 104 494
f 494 105 496
f 104 105 494
f 495 496 105
f 496 495 498
f 107 497 495
f 495 497 498
f 500 499 107
f 107 499 497
f 501 500 502
f 499 500 501
f 502 109 564
f 500 109 502
f 109 110 564
f 564 110 503
f 112 503 110
f 112 113 503
f 113 504 503
f 504 114 505
f 113 114 504
f 114 115 505
f 117 506 115
f 115 506 505
f 506 117 508
f 508 507 509
f 117 507 508
f 509 120 511
f 507 120 509
f 120 122 511
f 124 510 122
f 122 510 511
f 124 512 510
f 125 512 124
f 125 570 512
f 125 127 570
f 570 127 513
f 513 127 571
f 129 571 127
f 131 514 129
f 129 514 571
f 514 131 515
f 131 516 515
f 133 516 131
f 136 517 133
f 133 517 516
f 136 518 517
f 138 519 136
f 136 519 518
f 138 520 519
f 521 520 138
f 520 521 522
f 140 523 521
f 521 523 522
f 140 524 523
f 523 524 525
f 525 524 526
f 142 526 524
f 143 526 142
f 526 143 527
f 143 528 527
f 527 528 530
f 146 529 528
f 528 529 530
f 146 147 529
f 147 576 529
f 147 148 576
f 576 148 531
f 531 149 532
f 148 149 531
f 152 532 149
f 152 533 532
f 154 533 152
f 154 534 533
f 156 534 154
f 156 535 534
f 158 535 156
f 535 158 537
f 158 159 537
f 538 536 159
f 159 536 537
f 162 540 538
f 538 540 536
f 162 539 540
f 540 539 541
f 163 541 539
f 163 583 541
f 165 583 163
f 542 165 543
f 583 165 542
f 167 543 165
f 167 169 543
f 543 169 544
f 171 545 169
f 169 545 544
f 171 173 545
f 545 173 547
f 173 174 547
f 176 546 174
f 174 546 547
f 176 548 546
f 549 548 550
f 546 548 549
f 548 178 550
f 178 179 550
f 550 179 551
f 551 179 553
f 179 181 553
f 184 552 181
f 181 552 553
f 184 554 552
f 184 186 554
f 554 186 555
f 188 587 186
f 186 587 555
f 189 556 188
f 188 556 587
f 556 189 557
f 557 189 558
f 190 558 189
f 191 588 190
f 190 588 558
f 588 191 559
f 191 561 559
f 192 561 191
f 488 560 697
f 192 560 561
f 561 560 488
f 487 119 118
f 489 119 487
f 119 489 121
f 491 121 489
f 121 491 123
f 490 562 491
f 491 562 123
f 490 563 562
f 493 563 490
f 493 126 563
f 494 126 493
f 128 494 130
f 126 494 128
f 496 130 494
f 130 496 132
f 496 498 132
f 132 498 134
f 497 134 498
f 497 499 134
f 135 499 137
f 134 499 135
f 499 501 137
f 137 502 139
f 501 502 137
f 502 564 139
f 139 564 565
f 503 565 564
f 503 504 565
f 565 504 141
f 505 141 504
f 505 566 141
f 505 506 566
f 144 506 145
f 566 506 144
f 508 145 506
f 509 567 508
f 508 567 145
f 511 568 509
f 509 568 567
f 511 569 568
f 510 150 511
f 511 150 569
f 510 512 150
f 512 151 150
f 151 570 153
f 512 570 151
f 570 513 153
f 153 513 155
f 513 571 155
f 155 571 572
f 514 572 571
f 515 572 514
f 515 157 572
f 515 516 157
f 157 516 160
f 517 160 516
f 517 518 160
f 160 518 161
f 519 573 518
f 520 573 519
f 518 573 161
f 520 574 573
f 520 522 574
f 574 522 164
f 522 523 164
f 164 523 166
f 166 525 168
f 523 525 166
f 526 168 525
f 526 527 168
f 168 527 170
f 170 530 172
f 527 530 170
f 529 575 530
f 530 575 172
f 529 576 575
f 575 576 175
f 531 577 576
f 576 577 175
f 531 532 577
f 577 532 177
f 533 578 532
f 532 578 177
f 533 180 578
f 534 182 533
f 533 182 180
f 534 183 182
f 535 183 534
f 183 535 185
f 537 579 535
f 535 579 185
f 579 537 187
f 536 580 537
f 537 580 187
f 580 536 581
f 540 581 536
f 540 582 581
f 540 541 582
f 582 541 193
f 541 583 193
f 193 542 194
f 583 542 193
f 544 584 543
f 543 584 542
f 542 584 194
f 584 544 196
f 545 196 544
f 547 585 545
f 545 585 196
f 547 199 585
f 547 546 199
f 199 546 202
f 546 549 202
f 202 549 204
f 204 550 206
f 549 550 204
f 550 551 206
f 553 586 551
f 551 586 206
f 553 552 586
f 586 552 209
f 552 554 209
f 209 554 211
f 554 555 211
f 211 555 213
f 213 587 214
f 555 587 213
f 587 556 214
f 214 556 215
f 556 557 215
f 215 557 217
f 557 558 217
f 217 558 219
f 219 588 221
f 558 588 219
f 588 559 221
f 561 589 559
f 559 589 221
f 561 488 589
f 589 488 222
f 416 21 414
f 414 21 16
f 416 590 21
f 416 591 590
f 418 591 416
f 419 592 418
f 418 592 591
f 419 593 592
f 419 594 593
f 593 594 33
f 33 594 37
f 594 595 37
f 422 596 595
f 595 596 37
f 423 597 422
f 422 597 596
f 423 598 597
f 423 46 598
f 599 46 423
f 46 599 47
f 47 599 48
f 425 48 599
f 426 600 425
f 425 600 48
f 426 601 600
f 428 601 426
f 601 428 602
f 429 602 428
f 429 603 602
f 431 603 429
f 603 431 52
f 431 604 52
f 52 604 54
f 604 432 54
f 433 605 432
f 432 605 54
f 433 434 605
f 605 434 606
f 607 606 434
f 606 607 58
f 607 608 58
f 58 608 60
f 60 436 609
f 608 436 60
f 438 609 436
f 439 63 438
f 438 63 609
f 63 439 64
f 440 64 439
f 64 440 66
f 443 610 441
f 441 610 440
f 440 610 66
f 443 69 610
f 443 611 69
f 444 611 443
f 72 444 612
f 611 444 72
f 445 612 444
f 446 612 445
f 612 446 613
f 448 613 446
f 448 614 613
f 449 614 448
f 614 449 75
f 75 451 77
f 449 451 75
f 451 452 77
f 452 453 77
f 77 453 80
f 80 454 82
f 453 454 80
f 455 82 454
f 456 615 455
f 458 615 456
f 455 615 82
f 615 458 83
f 459 83 458
f 459 616 83
f 462 86 459
f 459 86 616
f 462 617 86
f 463 617 462
f 617 463 618
f 618 619 90
f 463 619 618
f 90 465 91
f 619 465 90
f 465 620 91
f 91 620 93
f 620 466 93
f 93 466 95
f 95 621 96
f 466 621 95
f 467 96 621
f 469 96 467
f 96 469 99
f 472 622 470
f 470 622 469
f 469 622 99
f 622 472 101
f 472 103 101
f 473 103 472
f 473 474 103
f 103 474 623
f 475 623 474
f 477 624 475
f 475 624 623
f 624 477 106
f 477 625 106
f 106 625 108
f 625 478 108
f 480 626 479
f 479 626 478
f 478 626 108
f 626 480 111
f 480 627 111
f 482 628 481
f 481 628 627
f 627 628 111
f 628 482 629
f 484 629 482
f 486 116 484
f 484 116 629
f 486 487 116
f 116 487 118
f 666 631 409
f 631 411 409
f 632 411 631
f 632 673 411
f 413 673 632
f 633 413 632
f 634 413 633
f 635 637 633
f 633 637 634
f 638 635 636
f 635 638 637
f 638 636 691
f 685 640 641
f 639 640 685
f 682 641 640
f 643 679 695
f 691 644 638
f 691 685 644
f 639 685 691
f 642 682 640
f 642 679 682
f 695 679 642
f 643 678 679
f 645 678 643
f 645 646 678
f 645 675 646
f 647 675 645
f 647 648 675
f 696 648 647
f 649 651 696
f 696 651 648
f 650 651 649
f 652 225 488
f 488 225 222
f 653 654 652
f 655 654 653
f 652 654 225
f 653 228 655
f 656 228 653
f 231 229 656
f 656 229 228
f 658 231 657
f 657 231 656
f 659 658 657
f 659 392 658
f 659 395 392
f 660 395 659
f 395 660 396
f 660 397 396
f 661 397 660
f 661 662 397
f 663 399 661
f 661 399 662
f 401 399 663
f 663 688 401
f 664 402 688
f 688 402 401
f 665 404 664
f 664 404 402
f 406 404 665
f 406 665 666
f 409 630 666
f 666 630 406
f 650 674 668
f 651 650 668
f 651 668 669
f 648 651 669
f 638 667 670
f 670 637 638
f 637 670 671
f 634 637 671
f 413 671 672
f 634 671 413
f 673 413 672
f 672 412 673
f 674 412 672
f 412 674 650
f 650 410 412
f 675 648 669
f 675 669 676
f 646 675 676
f 646 676 677
f 678 646 677
f 678 677 680
f 679 678 680
f 679 680 681
f 682 679 681
f 682 681 683
f 683 641 682
f 684 641 683
f 685 641 684
f 644 684 686
f 644 685 684
f 686 667 638
f 644 686 638
f 671 667 686
f 671 686 684
f 671 670 667
f 676 680 677
f 672 684 683
f 672 671 684
f 674 672 683
f 668 674 683
f 668 683 681
f 668 676 669
f 668 681 680
f 668 680 676
f 657 201 203
f 656 201 657
f 200 201 656
f 657 203 659
f 203 205 659
f 205 207 659
f 659 207 660
f 207 208 660
f 660 210 661
f 208 210 660
f 210 212 661
f 212 687 661
f 661 687 663
f 663 687 216
f 216 688 663
f 216 218 688
f 688 218 664
f 218 220 664
f 664 220 665
f 689 665 220
f 666 665 689
f 666 689 223
f 631 223 224
f 666 223 631
f 632 224 690
f 631 224 632
f 632 690 226
f 632 226 633
f 226 227 633
f 633 230 635
f 227 230 633
f 230 232 635
f 635 232 636
f 391 636 232
f 393 691 391
f 391 691 636
f 393 394 691
f 691 394 639
f 640 692 693
f 394 692 639
f 639 692 640
f 693 694 640
f 642 694 398
f 640 694 642
f 398 695 642
f 643 695 400
f 400 695 398
f 643 400 645
f 645 400 403
f 403 405 645
f 645 405 647
f 647 407 696
f 405 407 647
f 408 696 407
f 649 696 408
f 408 410 649
f 410 650 649
f 652 697 195
f 488 697 652
f 652 195 653
f 195 197 653
f 197 198 653
f 653 198 656
f 198 200 656
