# Render LOD; unchanged CAD body-local coordinates in mm
v 178.1940613 -77.5827401 123.4999837
v 178.1826583 -77.5979198 124.4459047
v 178.4112173 -77.0414454 123.4999836
v 178.4049909 -76.9734941 124.4954806
v 178.4018376 -76.7137522 124.5146149
v 178.3526021 -76.4949640 123.4999834
v 178.2595759 -76.2734515 124.5485705
v 178.1200524 -76.0706218 123.4999837
v 178.0340785 -75.9896650 124.5722704
v 177.7572014 -75.7854360 123.4999837
v 177.3479523 -75.6490432 123.4999834
v 177.4193389 -75.6592865 124.6238446
v 176.8559989 -75.6780524 123.4999838
v 176.4589841 -75.8687729 123.4999834
v 176.1583097 -76.1681550 123.4999835
v 176.2966974 -76.0059447 124.5986361
v 176.4478453 -75.8733854 124.6929434
v 176.3034603 -76.0052195 124.1596271
v 176.1194886 -76.2328854 124.1811228
v 175.9398853 -76.7069682 123.4999840
v 176.0928035 -76.2850047 124.6261954
v 176.0951399 -76.2656472 124.7303548
v 175.9672974 -76.6251491 124.7608590
v 175.9659990 -76.6134115 124.2072473
v 176.0054912 -77.2857446 123.4999830
v 175.9432836 -77.0255667 124.7892881
v 176.1819653 -77.6080017 123.4999837
v 176.0460600 -77.3739088 124.8129563
v 176.1249741 -77.5261152 124.2755602
v 176.4379649 -77.8726018 123.4999832
v 176.4161586 -77.8493937 124.8566333
v 176.3368352 -77.7916633 124.3001530
v 176.5822729 -77.9619138 124.7624743
v 176.7644808 -78.0396938 123.4999837
v 177.1251762 -78.1148170 123.4999835
v 176.7260986 -78.0332665 124.8837457
v 177.0487282 -78.1130442 124.7970812
v 177.0472524 -78.1108892 124.3535770
v 177.6121022 -78.0371251 123.4999840
v 177.4038299 -78.0888867 124.9309072
v 177.3892361 -78.0928489 124.3800415
v 177.7040423 -77.9945726 124.9547338
v 177.9377198 -77.8463220 123.4999836
v 177.9389908 -77.8452872 124.4233983
v 178.0528076 -77.7502835 124.9823367
v 178.1931800 -77.5737878 124.8929328
v 178.3597410 -77.2399861 124.9168727
v 178.4083305 -76.7350692 124.9530434
v 178.4097379 -76.8960912 125.0504797
v 178.3574225 -76.4901128 125.0789920
v 178.0378908 -75.9805174 125.1239264
v 176.6363324 -75.7556600 125.1205926
v 177.0286884 -75.6486042 125.1984745
v 176.2427149 -76.0639790 125.1549475
v 176.4545087 -75.8715930 125.2421715
v 176.1253661 -76.2103722 125.2756802
v 175.9498459 -76.7037590 125.3124529
v 176.0012559 -77.2863061 125.2474801
v 175.9370868 -76.9916778 125.3369123
v 176.3273936 -77.7861130 125.2906286
v 176.0815220 -77.4533175 125.3684171
v 176.4880968 -77.9047715 125.4143547
v 177.1476885 -78.1135255 125.3563478
v 177.6414757 -78.0268585 125.3911657
v 177.4836203 -78.0724512 125.4859155
v 178.0684672 -77.7377725 125.4259076
v 177.8391989 -77.9220621 125.5123549
v 178.1196287 -77.6736109 125.5403716
v 178.3658856 -77.1989095 125.4719576
v 178.3833524 -77.1329825 125.5829790
v 178.4083308 -76.8035338 125.6087313
v 178.3691497 -76.5525874 125.5164527
v 178.3110656 -76.3702732 125.6364634
v 178.1444952 -76.1088178 125.6598012
v 176.8883538 -75.6663443 125.6515568
v 177.2904297 -75.6448889 125.7333463
v 176.3575336 -75.9394918 125.6933958
v 176.7013087 -75.7339634 125.7751673
v 176.3874325 -75.9264721 125.7990947
v 176.0601850 -76.3411898 125.7293545
v 176.1561622 -76.1637785 125.8249261
v 175.9333135 -76.8187319 125.7691947
v 176.1643327 -77.6004923 125.8238224
v 175.9850054 -77.2114504 125.8999294
v 176.2121707 -77.6631158 125.9377280
v 176.9013425 -78.0844119 125.8892474
v 176.6804292 -78.0170576 125.9767455
v 177.2804910 -78.1151495 126.0234715
v 177.6418046 -78.0203663 126.0481892
v 178.1629915 -77.6206229 125.9868331
v 178.3463460 -77.2747920 126.0147688
v 178.3389452 -77.3065850 126.1195638
v 178.4121319 -76.8837251 126.0427600
v 178.4118691 -76.8574112 126.1541891
v 178.3312196 -76.4230277 126.0760452
v 178.0034619 -75.9490506 126.1198752
v 178.3081646 -76.3621724 126.1856265
v 178.0930639 -76.0535231 126.2155294
v 177.5808673 -75.7078417 126.1513839
v 177.8505162 -75.8400904 126.2408345
v 176.9854488 -75.6542148 126.1934050
v 177.2665892 -75.6429037 126.2816775
v 176.5252027 -75.8163209 126.2292656
v 176.7995924 -75.6911662 126.3138247
v 176.5124869 -75.8338194 126.3381240
v 175.9405213 -77.0243400 126.3289548
v 175.9416255 -76.7198288 126.4175131
v 176.1051529 -77.4965319 126.3633054
v 176.2069940 -77.6562804 126.4836200
v 176.4301082 -77.8633510 126.5060977
v 176.9174948 -78.0880961 126.4367521
v 176.7869996 -78.0508027 126.5373133
v 177.0741949 -78.1067064 126.5589041
v 177.3896388 -78.0926108 126.5786441
v 177.7990255 -77.9493380 126.6098340
v 178.2153229 -77.5514838 126.5442657
v 178.1872424 -77.5918705 126.6454303
v 178.3807380 -77.1467118 126.5738845
v 178.4094112 -76.7929896 126.5993600
v 178.4067919 -76.9654231 126.6944465
v 178.3104398 -76.3851992 126.6311261
v 178.3948909 -76.6430936 126.7152001
v 178.0460322 -75.9884819 126.6622939
v 178.2185253 -76.2117986 126.7526578
v 177.8744829 -75.8479571 126.7887578
v 177.2383934 -75.6427567 126.7278745
v 177.4283268 -75.6659018 126.8201709
v 176.9007208 -75.6704082 126.7500724
v 177.0332959 -75.6475706 126.8502437
v 176.4525718 -75.8647042 126.7880300
v 176.5357302 -75.8102300 126.8838108
v 176.1127346 -76.2433586 126.8210303
v 176.1855881 -76.1345419 126.9213730
v 175.9749836 -76.5890456 126.8486155
v 175.9384533 -76.8797285 126.8682842
v 175.9621291 -76.6034606 126.9579258
v 176.0330991 -77.3680350 126.9032798
v 175.9580396 -77.0954600 126.9935408
v 176.3249933 -77.7746389 126.9393498
v 176.4927770 -77.9078414 127.0650824
v 177.2792904 -78.1096616 127.0143747
v 177.0532706 -78.1071129 127.1069933
v 177.4203229 -78.0864839 127.1313932
v 177.8631758 -77.9045014 127.0572787
v 178.2013757 -77.5748224 127.0954479
v 178.0329651 -77.7676056 127.1832899
v 178.2571924 -77.4734494 127.2090874
v 178.3795616 -77.1504538 127.2312606
v 178.4077881 -76.7316689 127.2610543
v 178.2467534 -76.2673876 127.1895987
v 178.0719447 -76.0243376 127.2097477
v 178.2566935 -76.2757456 127.2971574
v 177.6784420 -75.7390906 127.2435506
v 177.9373035 -75.8935378 127.3328782
v 177.1881994 -75.6395307 127.2795711
v 177.4862254 -75.6791321 127.3678717
v 176.5143727 -75.8232673 127.3337048
v 176.9928983 -75.6465016 127.3986556
v 176.6787121 -75.7460842 127.4248396
v 176.0935863 -76.2631910 127.3748398
v 175.9480085 -76.7230443 127.4062215
v 176.0208111 -76.4326644 127.4964880
v 175.9563342 -77.1225988 127.5453551
v 176.2787615 -77.7382010 127.4845748
v 176.2170834 -77.6687574 127.5845470
v 176.6939910 -78.0158297 127.5205663
v 176.6029694 -77.9728988 127.6230665
v 177.0683172 -78.1063642 127.5486037
v 176.9104499 -78.0832885 127.6449913
v 177.4069180 -78.0950791 127.5714946
v 177.2193341 -78.1095238 127.6694045
v 177.8071870 -77.9382795 127.6019766
v 177.5642223 -78.0507672 127.6908089
v 177.8736540 -77.8951226 127.7166291
v 178.2479661 -77.4962829 127.6464883
v 178.1437186 -77.6442544 127.7438414
v 178.4106958 -76.8184162 127.6959933
v 178.3904971 -77.0975127 127.7847850
v 178.4046699 -76.7776040 127.8087084
v 178.2318893 -76.2334015 127.7427565
v 178.3377507 -76.4352107 127.8294301
v 178.0039530 -75.9610565 127.7680663
v 177.7385244 -75.7679244 127.7935592
v 177.9985468 -75.9442464 127.8772935
v 177.2598083 -75.6423436 127.8244872
v 177.5798352 -75.7077469 127.9083934
v 176.6729339 -75.7461889 127.8665961
v 177.0885818 -75.6358420 127.9481479
v 176.6431134 -75.7640456 127.9784027
v 176.3436645 -75.9518363 128.0043898
v 176.0055764 -76.4551408 128.0429947
v 175.9394105 -76.9256422 128.0810766
v 176.0719617 -77.4357125 128.0081766
v 176.2847225 -77.7323286 128.0341830
v 176.5457210 -77.9469160 128.1659124
v 177.1100219 -78.1165151 128.1030067
v 176.9342846 -78.0876774 128.1977976
v 177.2818277 -78.1068917 128.2215048
v 177.8824548 -77.8954912 128.1617612
v 177.6414112 -78.0221942 128.2469470
v 177.9241170 -77.8566465 128.2709143
v 178.2182202 -77.5453033 128.1931816
v 178.1751357 -77.6072965 128.2958080
v 178.3631025 -77.2106367 128.2187052
v 178.3640253 -77.2192945 128.3267972
v 178.4154951 -76.8180251 128.2466586
v 178.4124385 -76.7816456 128.3571206
v 178.3335502 -76.4534234 128.3837984
v 178.1236303 -76.0822418 128.3036665
v 178.1790119 -76.1537126 128.4055239
v 177.8223671 -75.8221523 128.3322630
v 177.8581865 -75.8401033 128.4372199
v 177.4855073 -75.6806625 128.3581881
v 177.1218263 -75.6405971 128.3842310
v 176.7623680 -75.7121422 128.4102140
v 176.9507328 -75.6558030 128.5068628
v 176.4390774 -75.8824195 128.4362471
v 176.5171432 -75.8293916 128.5374307
v 176.1610280 -76.1685210 128.4644533
v 176.1824044 -76.1320185 128.5690932
v 175.9745282 -76.5691723 128.4951186
v 176.0285570 -77.3575633 128.5522464
v 175.9467894 -77.0045084 128.6362302
v 176.0377889 -77.3626882 128.6611647
v 176.2831942 -77.7305577 128.5855617
v 176.5518048 -77.9492413 128.7157510
v 176.9862074 -78.0985433 128.7499981
v 177.2785416 -78.1060820 128.6634545
v 177.5868831 -78.0408238 128.6866546
v 177.3519109 -78.0989241 128.7765467
v 177.8995536 -77.8783145 128.7111404
v 177.7090497 -77.9919606 128.8025564
v 174.9231890 -76.9996628 123.4999836
v 175.0705430 -77.6555546 123.4999836
v 175.3234263 -78.1525250 123.4999835
v 175.0520820 -76.1153581 123.4999837
v 175.5907501 -78.4609791 123.4999836
v 175.9642108 -78.7791691 123.4999836
v 175.5141131 -75.3507282 123.4999837
v 176.7981935 -79.1001844 123.4999837
v 176.2370097 -74.8253353 123.4999836
v 177.6914973 -79.0720583 123.4999836
v 177.1073195 -74.6219118 123.4999837
v 178.5034503 -78.6994802 123.4999836
v 177.9878445 -74.7722829 123.4999836
v 179.1072102 -78.0406296 123.4999836
v 178.7411930 -75.2529872 123.4999837
v 179.1396316 -75.7905253 123.4999836
v 179.3826699 -77.3077880 123.4999837
v 179.3341597 -76.2548141 123.4999837
v 179.4162179 -76.7502350 123.4999837
v 175.5907501 -78.4609791 121.6739737
v 175.4341480 -78.2846792 121.5840571
v 175.1434769 -77.8296492 121.6179796
v 174.9936059 -77.3661068 121.5593941
v 174.9512397 -77.1302388 121.5914113
v 174.9917488 -76.3598643 121.6485965
v 175.1441292 -75.9261911 121.6257304
v 175.3361837 -75.6024586 121.5849492
v 175.5070203 -75.3863768 121.5882799
v 177.7573051 -74.7107868 121.6255708
v 178.0469665 -74.8148377 121.6059499
v 178.3691309 -74.9797067 121.6075829
v 178.6526244 -75.1946473 121.5960229
v 178.9337308 -75.4854714 121.6163991
v 179.1197802 -75.7660169 121.6149938
v 179.2639291 -76.0614000 121.6170004
v 179.3956236 -76.5473867 121.6226477
v 179.3367327 -77.4650242 121.5918143
v 178.9952421 -78.1771668 121.5936441
v 178.3904638 -78.7571129 121.6030751
v 178.0415545 -78.9435208 121.6094369
v 177.3756732 -79.1090286 121.6149549
v 176.9607925 -79.1060254 121.5964060
v 175.8302062 -78.6752644 121.6345831
v 175.6032651 -78.4714420 121.6397698
v 175.7072266 -78.3068418 121.3171080
v 175.4943371 -78.2528370 121.4311798
v 175.5477314 -78.0360503 121.2892347
v 175.1825609 -77.8399334 121.5049160
v 175.3001416 -77.8839453 121.3829566
v 175.6012295 -77.9171979 121.2599566
v 175.2016465 -77.5322237 121.3361899
v 175.3625699 -77.4952558 121.2656730
v 175.1219499 -77.3353756 121.3607844
v 175.1790243 -76.9769719 121.2899878
v 175.0319467 -77.0807250 121.4080509
v 174.9404263 -76.7985151 121.5748273
v 174.9874648 -76.4901431 121.5297518
v 175.0457551 -76.6717558 121.3927984
v 175.1520560 -76.2648278 121.3679401
v 175.0655742 -76.1966027 121.5185346
v 175.2021670 -76.4960747 121.2981918
v 175.2109638 -75.9216229 121.4508556
v 175.3045060 -76.5656954 121.2603067
v 175.3302557 -76.0672969 121.3008431
v 175.4350264 -75.7721004 121.3244052
v 175.4822775 -75.5066655 121.4445241
v 175.5712423 -75.8527827 121.2620306
v 175.6839935 -75.2147178 121.5606975
v 175.6604659 -75.3764909 121.3840345
v 175.9711565 -74.9904866 121.5757709
v 175.9801664 -75.0923433 121.4034474
v 175.8455708 -75.4460545 121.2742163
v 175.8540094 -75.3075031 121.3193631
v 176.2634287 -74.8342682 121.5853947
v 176.2701742 -74.9288236 121.4043082
v 176.5288299 -74.7296303 121.6165673
v 176.4487352 -74.9655601 121.3140013
v 176.6081864 -74.7451348 121.4903013
v 176.2823957 -75.1828174 121.2632548
v 177.0140128 -74.6441176 121.5777306
v 176.9050175 -74.7224246 121.4376649
v 176.7521207 -74.8269912 121.3461023
v 176.8341330 -74.9952532 121.2639128
v 177.3955407 -74.6473048 121.6059143
v 177.2334251 -74.7415195 121.3911497
v 177.4234493 -74.6946147 121.4760611
v 177.2900678 -74.8671384 121.2964708
v 177.8324794 -74.7797301 121.4774054
v 177.7019118 -74.8255162 121.3699770
v 177.6420174 -75.0004554 121.2660300
v 178.0957665 -74.9782043 121.3659235
v 178.2760138 -74.9740511 121.4732011
v 178.1061866 -75.1313995 121.2829766
v 178.4547738 -75.2154573 121.3522667
v 178.6888825 -75.2765153 121.4880908
v 178.9680292 -75.5905085 121.4966773
v 178.6293564 -75.4425403 121.3126225
v 178.8261687 -75.5109707 121.3976582
v 178.5212023 -75.5262021 121.2612892
v 178.8453718 -75.8490328 121.2777754
v 179.1665130 -75.9870650 121.4422207
v 178.9866155 -75.8271285 121.3528382
v 179.0637128 -76.1497808 121.3036031
v 179.3055287 -76.3037968 121.4875102
v 179.2259520 -76.5388966 121.3344774
v 179.0215773 -76.4493895 121.2607995
v 179.3698581 -76.7930832 121.4704670
v 179.4102244 -77.0508243 121.6131097
v 179.3149190 -77.1493332 121.4071054
v 179.1439858 -77.1292787 121.2830479
v 179.2606494 -77.5407018 121.4659902
v 179.2313757 -77.3114004 121.3571009
v 179.1619408 -77.9114048 121.5963492
v 179.0568563 -77.7428659 121.3325447
v 178.9458178 -77.5936695 121.2624190
v 179.1032118 -77.9114994 121.4582388
v 178.8050263 -78.2553023 121.3840898
v 178.8173860 -78.3713623 121.5293051
v 178.7304598 -78.4933110 121.6012315
v 178.7404426 -78.1370997 121.2963669
v 178.5011974 -78.5971124 121.4354868
v 178.4340325 -78.4510458 121.2972101
v 178.2355393 -78.8016338 121.4809453
v 178.1926076 -78.7250347 121.3659115
v 177.9299471 -78.7372187 121.2978855
v 177.9399268 -78.9193128 121.4484839
v 177.7100778 -79.0460944 121.5730012
v 177.7130995 -78.8928480 121.3411374
v 178.4188989 -78.3178175 121.2601820
v 177.6607380 -78.7096730 121.2612874
v 177.1195886 -79.0780204 121.4837633
v 177.5026319 -79.0258397 121.4411357
v 177.1167784 -78.9789513 121.3564074
v 177.2687978 -78.8214967 121.2728285
v 176.7560388 -78.9745999 121.3951876
v 176.8868434 -78.8696763 121.3011619
v 176.6179406 -79.0146262 121.4981280
v 176.4916715 -79.0127629 121.6354608
v 176.6551472 -78.7021229 121.2616078
v 176.1815889 -78.8785134 121.5765138
v 176.2372242 -78.8427174 121.4472862
v 176.4492812 -78.8145921 121.3306559
v 175.8541777 -78.6422688 121.4916288
v 176.1138635 -78.6594014 121.3364626
v 175.8719913 -78.5665038 121.3903093
v 176.1448043 -78.5112153 121.2688501
v 175.9856218 -77.1951759 121.2590000
v 176.3043777 -76.0054850 121.2590000
v 176.8565415 -78.0661251 121.2590000
v 177.4941217 -75.6866749 121.2590000
v 178.0463539 -77.7473150 121.2590000
v 178.3651098 -76.5576241 121.2590000
v 175.9856218 -77.1951759 122.6886472
v 176.3043777 -76.0054850 122.6886472
v 176.8565415 -78.0661251 122.6886472
v 178.0463539 -77.7473150 122.6886472
v 178.3651098 -76.5576241 122.6886472
v 177.4941217 -75.6866749 122.6886472
v 178.0660776 -77.7370343 128.8351991
v 178.3699934 -77.1947456 128.7708431
v 178.2873736 -77.4122798 128.8627393
v 178.3884980 -77.1112503 128.8854388
v 178.4115567 -76.7732281 128.8022686
v 178.3153831 -76.4067040 128.8266443
v 178.1630641 -76.1290007 128.8517470
v 177.8695606 -75.8476483 128.9890940
v 177.4068330 -75.6592718 128.9105070
v 177.3357022 -75.6432183 129.0269913
v 176.9115772 -75.6659906 128.9476528
v 176.5129102 -75.8321534 128.9812946
v 176.8156657 -75.6911755 129.0641772
v 176.2628857 -76.0460932 129.0042919
v 176.4285174 -75.8905037 129.0954640
v 176.0544217 -76.3489915 129.0280483
v 176.1604211 -76.1697602 129.1226029
v 175.9840057 -76.5437130 129.1530091
v 175.9516466 -77.0699162 129.0808686
v 175.9373703 -76.9274488 129.1742246
v 176.1200080 -77.5293496 129.1185380
v 176.0908383 -77.4848965 129.1710841
v 176.5960655 -77.9684915 129.1663848
v 176.4839272 -76.1890070 124.3802867
v 175.9439207 -76.9451761 124.2318926
v 176.2494613 -76.5459260 124.4169715
v 175.9977320 -77.2450848 124.2535187
v 176.2137763 -77.0410438 124.4634107
v 176.3576739 -77.4102219 124.4991059
v 176.6724240 -78.0026613 124.3278707
v 177.6805471 -78.0016776 124.4015090
v 177.3140325 -77.8470406 124.5984121
v 177.8549907 -77.5934954 124.6524135
v 178.3451656 -77.2690474 124.4735572
v 178.1284790 -76.6863288 124.7392039
v 178.0179057 -76.3807197 124.7669340
v 177.7960712 -75.8105179 124.5929167
v 177.6587189 -76.0281618 124.8183191
v 177.2630953 -75.9044446 124.8530992
v 176.8746014 -75.6730810 124.6587624
v 176.8703667 -75.9507755 124.8908685
v 176.4438599 -76.2405056 124.9358220
v 176.2877814 -76.4689988 124.9607396
v 176.2165067 -76.7345834 124.9854227
v 176.2012161 -77.6332094 124.8346834
v 176.5987680 -77.6582042 125.0820999
v 177.0996263 -78.1077314 124.9091077
v 176.9257750 -77.8225420 125.1101842
v 177.4803326 -77.8078388 125.1652029
v 177.8234736 -77.5998526 125.2017361
v 177.9940437 -77.3995374 125.2217444
v 178.3399523 -77.3054789 125.0201935
v 178.1283811 -77.1090178 125.2523918
v 178.1167794 -76.6352584 125.2972855
v 178.0059014 -76.3710641 125.3192792
v 177.8351134 -76.1654563 125.3454788
v 177.5071978 -75.6780484 125.1639809
v 177.5678872 -75.9816629 125.3717137
v 177.0979476 -75.9049147 125.4199241
v 176.7253571 -75.7286774 125.2248604
v 176.8178130 -75.9741525 125.4455595
v 176.5703059 -76.1123805 125.4715464
v 176.3866413 -76.3101592 125.4958204
v 176.2716044 -76.5264849 125.5159551
v 176.2020166 -76.7973195 125.5411801
v 176.2256962 -77.0768905 125.5651992
v 176.2647563 -77.7068039 125.3915462
v 176.3233466 -77.3500921 125.5946401
v 176.6559860 -77.7045177 125.6336781
v 176.8449683 -78.0680503 125.4398056
v 177.1720278 -78.1098869 125.4641538
v 177.0942131 -77.8485373 125.6784450
v 177.5454831 -77.7843611 125.7205463
v 178.2800314 -77.4239944 125.5619696
v 178.0324172 -77.3335316 125.7824266
v 178.1312585 -76.6778380 125.8414856
v 177.8055202 -76.1352971 125.8972780
v 177.7547265 -75.7761545 125.6952295
v 177.5820331 -75.9930706 125.9251241
v 177.3254111 -75.9149865 125.9455589
v 176.9740633 -75.6604970 125.7534797
v 177.0198992 -75.9144344 125.9769152
v 176.7530135 -76.0027434 125.9985933
v 176.5169425 -76.1578062 126.0277152
v 176.2830779 -76.4809013 126.0616430
v 175.9399049 -76.7359810 125.8644576
v 176.2007687 -76.8705686 126.0997094
v 176.3391794 -77.3666662 126.1446054
v 176.4854785 -77.5614090 126.1646788
v 176.6924823 -77.7201447 126.1924060
v 177.2044407 -77.8488162 126.2361414
v 177.4565230 -77.8070883 126.2632100
v 177.9039200 -77.8718540 126.0693893
v 177.7213159 -77.6867783 126.2874983
v 178.1305030 -77.6585100 126.0915322
v 177.9671728 -77.4417578 126.3188924
v 178.1158646 -77.1442600 126.3492749
v 176.2701991 -77.2439331 128.3318432
v 178.1338121 -76.7187354 126.3878340
v 177.6804681 -76.0470932 126.4611324
v 177.9570084 -76.2833949 126.4327639
v 177.5524975 -75.7027092 126.2623220
v 177.3682800 -75.9202033 126.4931447
v 176.9120468 -75.9351118 126.5377985
v 176.1470013 -76.1773645 126.3727124
v 176.4700480 -76.2046891 126.5814105
v 176.2167956 -76.7160551 126.6314383
v 176.2948725 -76.4607035 126.6116049
v 176.2093083 -76.9503945 126.6546398
v 175.9923086 -77.2370039 126.4516062
v 176.2561551 -77.1897959 126.6786526
v 176.3730537 -77.4243028 126.7023096
v 176.7853249 -77.7688049 126.7467164
v 177.1110335 -77.8484417 126.7813044
v 177.5535184 -77.7767658 126.8203317
v 177.8011555 -77.6159649 126.8470155
v 178.3462924 -77.2644852 126.6733845
v 178.0075649 -77.3903439 126.8745273
v 178.1451891 -76.9848564 126.9131918
v 178.0057851 -76.3719427 126.9691127
v 178.1133740 -76.6043214 126.9476546
v 177.8523694 -76.1811767 126.9913386
v 177.4241886 -75.9369211 127.0397083
v 176.8971392 -75.9445933 127.0840414
v 176.6394854 -76.0600177 127.1112981
v 176.4311739 -76.2547301 127.1393303
v 176.2942871 -76.4604389 127.1569743
v 176.2132433 -76.7439247 127.1876374
v 176.2134461 -77.0049430 127.2078695
v 176.2743425 -77.2485999 127.2295636
v 176.1444304 -77.5715172 127.0267781
v 176.4323362 -77.5022267 127.2610699
v 176.6255367 -77.6748064 127.2825814
v 176.7720409 -78.0408437 127.0848611
v 176.8631053 -77.7960738 127.3084208
v 177.1358023 -77.8485457 127.3295793
v 177.4053864 -77.8201689 127.3581987
v 177.7403250 -77.9750723 127.1546821
v 177.8711472 -77.5541575 127.4036948
v 177.6749752 -77.7114305 127.3846493
v 178.1269894 -77.0959035 127.4530004
v 178.1369043 -76.7024671 127.4881296
v 177.9849293 -76.3345199 127.5219731
v 177.6978005 -76.0519112 127.5610891
v 177.3131966 -75.9128848 127.5977903
v 176.4478151 -76.2267190 127.6858153
v 176.8064434 -75.9714384 127.6476214
v 176.2749542 -76.0185123 127.4620368
v 175.9465513 -76.7712340 127.5193658
v 176.2247073 -76.6385332 127.7230982
v 176.2222539 -77.0565791 127.7642426
v 176.4516718 -77.5252332 127.8138446
v 176.6507379 -77.6953014 127.8334568
v 176.9025777 -77.8115082 127.8629306
v 177.2550875 -77.8488172 127.8923938
v 177.9016845 -77.5179358 127.9597151
v 177.6837201 -77.7121125 127.9330541
v 178.2903448 -77.4038588 127.7627558
v 178.0397313 -77.3182468 127.9829639
v 178.1331114 -77.0567590 128.0086006
v 178.1404427 -76.7761951 128.0331810
v 177.9341035 -76.2722044 128.0814570
v 178.0708347 -76.4865761 128.0586163
v 177.7503959 -76.0968286 128.1045862
v 177.5031554 -75.9585799 128.1325839
v 177.0068520 -75.9220908 128.1752446
v 176.7588298 -75.9988999 128.2008768
v 176.5339054 -76.1493587 128.2235881
v 176.2398457 -76.6081663 128.2754488
v 175.9930415 -77.2244403 128.1020812
v 176.2025402 -76.9086303 128.3006028
v 177.7993416 -75.8096119 126.6866059
v 177.5297171 -75.6960043 126.7058256
v 176.5464959 -77.6174808 126.7260920
v 176.7386802 -78.0403933 126.9784089
v 177.6424704 -78.0197899 127.0407545
v 178.3566544 -77.2318851 127.1185648
v 178.4097421 -76.9177186 127.1425353
v 178.3706653 -76.5594567 127.1680814
v 177.6530716 -76.0325189 127.0153766
v 177.1506321 -75.9049101 127.0644821
v 176.8140440 -75.6954815 127.3081915
v 175.9548867 -77.0498172 127.4315729
v 176.0255230 -77.3318089 127.4534093
v 178.0405098 -77.7547653 127.6253339
v 178.0159084 -77.3609394 127.4290517
v 178.3770538 -77.1557518 127.6751327
v 178.3504974 -76.5045018 127.7212715
v 177.0122210 -75.6539513 127.8430174
v 176.2781070 -76.0154420 127.9027797
v 176.0105988 -76.4610825 127.9399892
v 175.9334067 -76.9410283 127.9718070
v 176.3111746 -77.3160602 127.7890487
v 176.5917575 -77.9693372 128.0655123
v 177.5258157 -78.0601854 128.1321927
v 178.3144808 -76.3994137 128.2793908
v 177.2597056 -75.9098159 128.1544848
v 176.3602455 -76.3514092 128.2476806
v 175.9420136 -76.9082903 128.5211344
v 175.9785545 -76.5748953 124.6483716
v 175.9359206 -76.9339546 124.6770780
v 176.0158799 -77.2980393 124.7003658
v 176.2111807 -77.6576146 124.7310556
v 176.6378310 -77.6918620 124.5356524
v 176.9847994 -77.8298191 124.5706078
v 177.3955645 -78.0905596 124.8226000
v 177.7293558 -77.9820109 124.8493915
v 177.9925112 -77.8014892 124.8707240
v 178.1313776 -77.0892271 124.7054512
v 178.2687489 -76.2986885 124.9881296
v 177.9724418 -75.9220349 125.0230622
v 177.4264904 -75.6586700 125.0681208
v 177.0900152 -75.6450934 125.0887210
v 176.6260959 -76.0755206 124.9151898
v 175.9969140 -76.4796002 125.1927721
v 175.9441601 -76.9860809 125.2282184
v 176.2219300 -77.0894563 125.0151863
v 176.3821272 -77.4416407 125.0546893
v 176.7565464 -78.0399118 125.3278599
v 178.2547114 -77.4733712 125.4503602
v 178.4107224 -76.8953229 125.4939173
v 178.1577346 -76.1141737 125.5548312
v 177.6800902 -75.7400435 125.5989298
v 177.3506357 -75.6549266 125.6196602
v 175.9699758 -77.1435913 125.7900662
v 176.5179735 -77.9237811 125.8588930
v 177.3664869 -78.1024447 125.9182543
v 177.8615868 -77.9078146 125.9574824
v 177.8758904 -77.5493620 125.7579712
v 178.1316693 -77.0570999 125.8089809
v 177.9815432 -76.3332800 125.8770883
v 177.2950968 -75.6497702 126.1733561
v 176.1040112 -76.2453961 126.2764774
v 175.9823195 -76.5605664 126.2971432
v 176.2407217 -77.1402828 126.1238350
v 176.4189360 -77.8633196 126.4011878
v 176.9454581 -77.8185543 126.2153047
v 177.3906715 -78.0979475 126.4728926
v 177.8881610 -77.8914250 126.5132455
v 175.9555101 -76.6923107 129.0553207
v 176.2366586 -77.1355392 128.8707332
v 176.4648678 -77.5574660 128.9144451
v 177.0107596 -77.8479783 128.9702243
v 176.9594358 -78.0850861 129.1818237
v 177.4801729 -77.7997299 129.0124193
v 177.7596207 -77.6557028 129.0411453
v 177.4000438 -78.0641193 129.1984163
v 177.8615796 -77.8539544 129.2164489
v 178.1360824 -77.0407676 129.1074337
v 178.1221886 -76.6137336 129.1455306
v 178.2899087 -76.6432708 129.2737268
v 177.9119753 -76.2396287 129.1848717
v 177.2793102 -75.9070434 129.2500691
v 178.1836917 -77.4666082 129.2394203
v 176.8403300 -75.9548443 129.2904928
v 176.8244866 -75.8854643 129.3545483
v 176.4765290 -76.1975107 129.3295727
v 176.2928566 -76.3687217 129.3891089
v 176.2086888 -76.7482243 129.3857691
v 176.2404177 -77.1587463 129.4245018
v 176.1750273 -76.7942027 129.4090455
v 176.5047000 -77.5858668 128.3689650
v 176.9522215 -77.8343074 128.4148666
v 176.5269171 -77.9261213 128.6078962
v 176.8853688 -78.0828653 128.6367157
v 177.5263537 -77.7931586 128.4672829
v 177.8740161 -77.5529933 128.5052641
v 178.1873412 -77.5917473 128.7404435
v 178.1040678 -77.1954940 128.5436948
v 178.1250780 -76.6296006 128.5973145
v 177.8096655 -76.1238400 128.6488553
v 177.8330972 -75.8265052 128.8822103
v 177.2612334 -75.8964687 128.7024322
v 176.5699112 -76.1152585 128.7689097
v 176.3228264 -76.4034256 128.8034180
v 176.2014341 -76.7867840 128.8394482
v 177.7352419 -77.5886552 129.5000262
v 176.2603970 -76.8645136 129.5000679
v 176.3842686 -76.4314712 129.5000146
v 177.4212725 -77.7495876 129.5000248
v 177.0314090 -77.7732483 129.5000220
v 176.6311459 -77.6046755 129.5000594
v 176.3915870 -77.8390741 129.1563806
v 176.3916926 -77.3323526 129.5000484
v 176.5122914 -76.0794004 129.3716601
v 176.6707999 -76.1160643 129.5000497
v 177.0511064 -75.9784438 129.5000102
v 177.1779936 -75.8070482 129.3380064
v 177.6540749 -75.8903915 129.3163127
v 177.4479990 -76.0077527 129.5000571
v 177.8349299 -76.2488276 129.5000350
v 178.0661808 -76.2063583 129.2955373
v 178.0337804 -76.5864994 129.5000216
v 178.0832403 -76.9673224 129.5001281
v 178.3079967 -77.0817433 129.2552638
v 177.9489269 -77.3525264 129.5000412
v 177.4413842 -75.6685552 128.4757871
v 176.8732391 -75.9515989 128.7374552
v 175.9665573 -76.6045044 128.6068982
v 176.2384530 -77.6815357 128.6892029
v 177.9971861 -77.4016766 129.0721435
v 178.4063450 -76.7955862 128.9068847
v 178.3347425 -76.4405195 128.9316591
v 178.1553817 -76.1268824 128.9576870
v 177.6094982 -76.0009772 129.2203346
v 176.2900716 -76.4728812 129.3594355
v 176.1518592 -77.5770167 128.1296510
f 424 2 1
f 424 1 3
f 4 424 3
f 5 4 3
f 5 3 6
f 7 5 6
f 7 6 8
f 9 7 8
f 9 8 10
f 427 9 10
f 12 427 10
f 12 10 11
f 430 12 11
f 430 11 13
f 17 13 14
f 17 430 13
f 18 17 14
f 18 14 15
f 16 17 18
f 22 17 16
f 19 18 15
f 19 15 20
f 24 19 20
f 23 22 590
f 26 23 591
f 415 24 20
f 415 20 25
f 417 415 25
f 28 26 592
f 29 417 25
f 29 25 27
f 435 28 593
f 32 29 27
f 32 27 30
f 31 435 593
f 36 31 33
f 420 32 30
f 420 30 34
f 38 420 34
f 38 34 35
f 437 36 37
f 40 437 37
f 41 38 35
f 41 35 39
f 42 40 596
f 421 41 39
f 44 39 43
f 44 421 39
f 45 42 597
f 2 44 43
f 2 43 1
f 16 21 22
f 21 590 22
f 590 591 23
f 591 592 26
f 592 593 28
f 593 33 31
f 33 37 36
f 37 596 40
f 596 597 42
f 597 598 45
f 46 45 598
f 442 45 46
f 442 46 47
f 49 442 47
f 49 47 48
f 50 49 48
f 600 50 48
f 51 50 600
f 601 51 600
f 447 51 601
f 602 447 601
f 53 447 602
f 603 53 602
f 52 53 603
f 450 53 52
f 55 450 52
f 54 55 52
f 56 55 54
f 605 56 54
f 57 56 605
f 59 57 605
f 606 59 605
f 58 59 606
f 61 59 58
f 60 61 58
f 457 61 60
f 62 457 60
f 609 62 60
f 460 62 609
f 63 460 609
f 461 460 63
f 65 461 63
f 64 65 63
f 67 65 64
f 66 67 64
f 68 67 66
f 610 68 66
f 464 68 610
f 69 464 610
f 70 464 69
f 611 70 69
f 71 70 611
f 72 71 611
f 73 71 72
f 612 73 72
f 74 73 612
f 468 74 612
f 613 468 612
f 76 468 613
f 614 76 613
f 75 76 614
f 471 76 75
f 78 471 75
f 77 78 75
f 79 78 77
f 81 79 77
f 80 81 77
f 476 81 80
f 82 476 80
f 84 476 82
f 615 84 82
f 83 84 615
f 85 84 83
f 616 85 83
f 87 85 616
f 86 87 616
f 88 87 86
f 617 88 86
f 89 88 617
f 618 89 617
f 483 89 618
f 485 483 618
f 485 618 90
f 92 485 90
f 91 92 90
f 93 92 91
f 94 92 93
f 95 94 93
f 97 94 95
f 97 95 96
f 98 97 96
f 100 98 96
f 99 100 96
f 492 100 99
f 102 492 99
f 622 102 99
f 101 102 622
f 104 102 101
f 103 104 101
f 105 104 103
f 495 105 103
f 623 495 103
f 107 495 623
f 624 107 623
f 106 107 624
f 500 107 106
f 108 500 106
f 109 500 108
f 626 109 108
f 110 109 626
f 112 110 626
f 111 112 626
f 113 112 111
f 628 113 111
f 114 113 628
f 115 114 628
f 629 115 628
f 117 115 629
f 117 629 116
f 507 117 116
f 118 507 116
f 120 507 118
f 119 120 118
f 122 120 119
f 121 122 119
f 124 122 121
f 123 124 121
f 125 124 123
f 562 125 123
f 563 125 562
f 127 125 563
f 126 127 563
f 129 127 126
f 128 129 126
f 131 129 128
f 130 131 128
f 133 131 130
f 132 133 130
f 136 133 132
f 134 136 132
f 135 136 134
f 138 136 135
f 137 138 135
f 521 138 137
f 139 521 137
f 140 521 139
f 565 140 139
f 524 140 565
f 142 524 565
f 141 142 565
f 143 142 141
f 143 141 566
f 528 143 566
f 144 528 566
f 146 528 144
f 145 146 144
f 147 146 145
f 567 147 145
f 148 147 567
f 568 148 567
f 149 148 568
f 569 149 568
f 152 149 569
f 150 152 569
f 151 152 150
f 154 152 151
f 153 154 151
f 156 154 153
f 155 156 153
f 158 156 155
f 572 158 155
f 157 158 572
f 159 158 157
f 538 159 157
f 160 538 157
f 162 538 160
f 161 162 160
f 539 162 161
f 163 539 161
f 573 163 161
f 574 163 573
f 165 163 574
f 164 165 574
f 167 165 164
f 166 167 164
f 169 167 166
f 168 169 166
f 171 169 168
f 170 171 168
f 173 171 170
f 173 170 172
f 174 173 172
f 575 174 172
f 176 174 575
f 175 176 575
f 548 176 175
f 577 548 175
f 178 548 577
f 177 178 577
f 179 178 177
f 181 179 177
f 578 181 177
f 180 181 578
f 184 181 180
f 182 184 180
f 183 184 182
f 186 184 183
f 185 186 183
f 188 186 185
f 579 188 185
f 187 188 579
f 189 188 187
f 190 189 187
f 580 190 187
f 191 190 580
f 581 191 580
f 582 191 581
f 192 191 582
f 560 192 582
f 193 560 582
f 697 560 193
f 194 697 193
f 195 697 194
f 584 195 194
f 197 195 584
f 196 197 584
f 198 197 196
f 585 198 196
f 200 198 585
f 199 200 585
f 201 200 199
f 203 201 199
f 202 203 199
f 205 203 202
f 204 205 202
f 206 205 204
f 207 205 206
f 586 207 206
f 208 207 586
f 210 208 586
f 209 210 586
f 212 210 209
f 211 212 209
f 213 212 211
f 687 212 213
f 214 687 213
f 216 687 214
f 215 216 214
f 218 216 215
f 217 218 215
f 220 218 217
f 219 220 217
f 221 220 219
f 689 220 221
f 589 689 221
f 223 689 589
f 222 223 589
f 224 223 222
f 690 224 222
f 225 690 222
f 226 690 225
f 654 226 225
f 655 226 654
f 227 226 655
f 228 227 655
f 230 227 228
f 229 230 228
f 232 230 229
f 231 232 229
f 391 232 231
f 391 231 658
f 233 20 236
f 233 25 20
f 234 25 233
f 20 15 236
f 235 25 234
f 236 15 239
f 235 27 25
f 237 30 235
f 235 30 27
f 238 30 237
f 15 14 239
f 239 14 241
f 14 13 241
f 238 34 30
f 240 34 238
f 241 13 243
f 240 35 34
f 13 11 243
f 240 242 35
f 35 242 39
f 11 245 243
f 10 245 11
f 242 244 39
f 39 244 43
f 10 247 245
f 8 247 10
f 43 244 1
f 244 246 1
f 8 248 247
f 6 248 8
f 1 246 3
f 6 250 248
f 246 249 3
f 6 251 250
f 3 251 6
f 249 251 3
f 253 252 237
f 253 237 235
f 254 253 235
f 254 235 234
f 255 254 234
f 255 234 233
f 256 255 233
f 288 256 233
f 257 288 233
f 257 233 236
f 258 257 236
f 259 236 239
f 259 258 236
f 260 259 239
f 300 260 239
f 302 300 239
f 302 239 241
f 306 302 241
f 308 306 241
f 308 241 243
f 312 308 243
f 316 312 243
f 261 316 243
f 261 243 245
f 262 261 245
f 263 262 245
f 263 245 247
f 264 263 247
f 265 264 247
f 265 247 248
f 266 265 248
f 267 266 248
f 267 248 250
f 268 267 250
f 268 250 251
f 340 268 251
f 340 251 249
f 269 340 249
f 269 249 246
f 345 269 246
f 270 345 246
f 351 270 246
f 351 246 244
f 271 351 244
f 272 271 244
f 272 244 242
f 359 272 242
f 273 359 242
f 273 242 240
f 274 273 240
f 370 274 240
f 370 240 238
f 372 370 238
f 275 372 238
f 275 238 237
f 252 275 237
f 252 252 237
f 252 252 237
f 276 275 252
f 276 252 252
f 276 252 252
f 253 276 252
f 280 253 254
f 280 278 253
f 281 277 278
f 279 277 281
f 281 278 280
f 283 279 281
f 255 280 254
f 283 281 280
f 282 279 284
f 283 280 255
f 284 279 283
f 285 283 255
f 287 285 255
f 287 255 256
f 286 283 285
f 288 287 256
f 286 284 283
f 286 285 287
f 295 282 284
f 290 287 288
f 289 288 257
f 295 284 286
f 289 290 288
f 290 286 287
f 293 286 290
f 292 289 257
f 291 290 289
f 292 291 289
f 292 257 258
f 295 286 293
f 293 290 291
f 294 291 292
f 294 292 258
f 296 293 291
f 259 294 258
f 297 291 294
f 295 293 296
f 296 291 297
f 298 294 259
f 299 295 296
f 298 297 294
f 260 298 259
f 297 299 296
f 301 297 298
f 300 298 260
f 301 298 300
f 305 297 301
f 304 299 297
f 304 297 305
f 303 301 300
f 303 300 302
f 311 299 304
f 305 301 303
f 307 303 302
f 311 304 305
f 307 302 306
f 309 305 303
f 309 303 307
f 311 305 309
f 310 307 306
f 310 306 308
f 314 307 310
f 309 307 314
f 310 308 312
f 312 313 310
f 313 314 310
f 315 311 309
f 315 309 314
f 317 314 313
f 317 313 312
f 318 317 312
f 318 312 316
f 319 314 317
f 319 315 314
f 320 318 316
f 320 316 261
f 321 317 318
f 322 315 319
f 321 318 320
f 321 319 317
f 262 320 261
f 321 322 319
f 324 320 262
f 324 262 263
f 323 321 320
f 323 320 324
f 325 322 321
f 325 321 323
f 326 323 324
f 325 323 326
f 264 324 263
f 327 324 264
f 326 324 327
f 331 322 325
f 329 325 326
f 265 327 264
f 330 326 327
f 328 327 265
f 331 325 329
f 328 330 327
f 329 326 330
f 266 328 265
f 333 328 266
f 333 330 328
f 334 329 330
f 332 331 329
f 334 330 333
f 333 266 267
f 332 329 334
f 336 333 267
f 335 332 334
f 338 331 332
f 333 335 334
f 268 336 267
f 337 335 333
f 337 333 336
f 338 332 335
f 339 336 268
f 337 336 339
f 340 339 268
f 338 335 337
f 341 337 339
f 342 338 337
f 341 339 340
f 341 340 269
f 342 337 341
f 344 342 341
f 343 341 269
f 347 338 342
f 344 341 343
f 348 269 345
f 348 343 269
f 346 344 343
f 348 346 343
f 346 342 344
f 347 342 346
f 270 348 345
f 349 346 348
f 350 348 270
f 350 270 351
f 349 348 350
f 352 347 346
f 352 346 349
f 361 347 352
f 353 350 351
f 353 349 350
f 354 352 349
f 271 353 351
f 353 354 349
f 354 361 352
f 355 353 271
f 356 353 355
f 272 355 271
f 356 354 353
f 356 355 358
f 358 355 272
f 357 354 356
f 359 358 272
f 360 356 358
f 361 354 357
f 357 356 360
f 362 361 357
f 364 358 359
f 360 358 364
f 364 359 273
f 362 357 360
f 363 364 273
f 366 362 360
f 274 363 273
f 365 360 364
f 365 364 363
f 366 360 365
f 369 274 370
f 369 363 274
f 367 363 369
f 367 365 363
f 366 365 368
f 368 365 367
f 371 362 366
f 371 366 368
f 372 369 370
f 374 368 367
f 373 369 372
f 374 367 369
f 374 369 373
f 371 368 374
f 375 373 372
f 375 372 275
f 376 374 373
f 378 371 374
f 377 373 375
f 378 374 376
f 377 376 373
f 275 276 253
f 375 275 253
f 375 253 278
f 377 375 278
f 277 376 377
f 377 278 277
f 277 378 376
f 378 282 371
f 378 277 279
f 378 279 282
f 379 282 295
f 380 379 295
f 380 295 299
f 380 299 311
f 381 282 379
f 381 371 282
f 362 371 381
f 382 311 315
f 382 380 311
f 382 315 322
f 331 382 322
f 383 361 362
f 383 362 381
f 331 384 382
f 338 384 331
f 347 361 383
f 347 383 384
f 338 347 384
f 379 380 385
f 385 380 386
f 381 379 387
f 387 379 385
f 383 381 388
f 388 381 387
f 384 383 389
f 389 383 388
f 382 384 390
f 390 384 389
f 380 382 386
f 386 382 390
f 385 386 390
f 387 390 389
f 387 389 388
f 387 385 390
f 393 391 658
f 393 658 392
f 394 393 392
f 394 392 395
f 692 394 395
f 693 692 395
f 693 395 396
f 693 396 397
f 694 693 397
f 398 694 397
f 398 397 662
f 400 398 662
f 400 662 399
f 400 399 401
f 403 400 401
f 403 401 402
f 405 403 402
f 405 402 404
f 407 405 404
f 407 404 406
f 408 407 406
f 408 406 630
f 410 408 630
f 410 630 409
f 412 410 409
f 412 409 411
f 673 412 411
f 19 414 18
f 94 487 92
f 24 416 19
f 19 416 414
f 24 415 416
f 416 415 418
f 415 417 418
f 418 417 419
f 417 29 419
f 32 594 29
f 29 594 419
f 594 420 595
f 32 420 594
f 595 38 422
f 420 38 595
f 38 41 422
f 422 421 423
f 41 421 422
f 421 44 423
f 44 2 423
f 423 2 599
f 2 424 599
f 424 4 599
f 599 4 425
f 5 425 4
f 7 425 5
f 7 426 425
f 7 9 426
f 426 9 428
f 9 427 428
f 12 429 427
f 427 429 428
f 430 429 12
f 429 430 431
f 430 17 431
f 431 17 604
f 22 432 17
f 17 432 604
f 432 22 433
f 23 434 22
f 26 434 23
f 22 434 433
f 26 607 434
f 26 28 607
f 607 28 608
f 28 435 608
f 608 435 436
f 436 31 438
f 435 31 436
f 36 438 31
f 36 437 438
f 438 437 439
f 437 40 439
f 45 439 42
f 42 439 40
f 439 45 440
f 440 45 441
f 442 441 45
f 441 442 443
f 442 49 443
f 443 49 444
f 50 444 49
f 51 445 50
f 50 445 444
f 51 446 445
f 447 448 51
f 51 448 446
f 448 447 449
f 447 53 449
f 53 451 449
f 450 451 53
f 450 55 451
f 451 55 452
f 452 56 453
f 55 56 452
f 57 454 56
f 56 454 453
f 454 57 455
f 59 456 57
f 57 456 455
f 59 61 456
f 456 61 458
f 61 457 458
f 458 457 459
f 460 459 62
f 62 459 457
f 459 460 462
f 460 461 462
f 462 461 463
f 461 65 463
f 65 67 463
f 463 67 619
f 619 68 465
f 67 68 619
f 68 464 465
f 465 464 620
f 464 70 620
f 70 466 620
f 71 466 70
f 466 73 621
f 71 73 466
f 621 74 467
f 73 74 621
f 468 467 74
f 469 468 470
f 467 468 469
f 76 470 468
f 76 471 470
f 470 471 472
f 78 473 471
f 79 473 78
f 471 473 472
f 473 79 474
f 81 475 79
f 79 475 474
f 476 475 81
f 475 476 477
f 477 84 625
f 476 84 477
f 85 478 84
f 84 478 625
f 85 479 478
f 87 479 85
f 479 87 480
f 480 87 627
f 88 627 87
f 88 481 627
f 88 89 481
f 481 89 482
f 482 89 484
f 89 483 484
f 483 485 484
f 484 485 486
f 486 92 487
f 485 92 486
f 414 16 18
f 94 489 487
f 97 489 94
f 489 97 491
f 97 98 491
f 100 490 98
f 98 490 491
f 100 492 490
f 490 492 493
f 493 102 494
f 492 102 493
f 102 104 494
f 494 105 496
f 104 105 494
f 495 496 105
f 496 495 498
f 107 497 495
f 495 497 498
f 500 499 107
f 107 499 497
f 501 500 502
f 499 500 501
f 502 109 564
f 500 109 502
f 109 110 564
f 564 110 503
f 112 503 110
f 112 113 503
f 113 504 503
f 504 114 505
f 113 114 504
f 114 115 505
f 117 506 115
f 115 506 505
f 506 117 508
f 508 507 509
f 117 507 508
f 509 120 511
f 507 120 509
f 120 122 511
f 124 510 122
f 122 510 511
f 124 512 510
f 125 512 124
f 125 570 512
f 125 127 570
f 570 127 513
f 513 127 571
f 129 571 127
f 131 514 129
f 129 514 571
f 514 131 515
f 131 516 515
f 133 516 131
f 136 517 133
f 133 517 516
f 136 518 517
f 138 519 136
f 136 519 518
f 138 520 519
f 521 520 138
f 520 521 522
f 140 523 521
f 521 523 522
f 140 524 523
f 523 524 525
f 525 524 526
f 142 526 524
f 143 526 142
f 526 143 527
f 143 528 527
f 527 528 530
f 146 529 528
f 528 529 530
f 146 147 529
f 147 576 529
f 147 148 576
f 576 148 531
f 531 149 532
f 148 149 531
f 152 532 149
f 152 533 532
f 154 533 152
f 154 534 533
f 156 534 154
f 156 535 534
f 158 535 156
f 535 158 537
f 158 159 537
f 538 536 159
f 159 536 537
f 162 540 538
f 538 540 536
f 162 539 540
f 540 539 541
f 163 541 539
f 163 583 541
f 165 583 163
f 542 165 543
f 583 165 542
f 167 543 165
f 167 169 543
f 543 169 544
f 171 545 169
f 169 545 544
f 171 173 545
f 545 173 547
f 173 174 547
f 176 546 174
f 174 546 547
f 176 548 546
f 549 548 550
f 546 548 549
f 548 178 550
f 178 179 550
f 550 179 551
f 551 179 553
f 179 181 553
f 184 552 181
f 181 552 553
f 184 554 552
f 184 186 554
f 554 186 555
f 188 587 186
f 186 587 555
f 189 556 188
f 188 556 587
f 556 189 557
f 557 189 558
f 190 558 189
f 191 588 190
f 190 588 558
f 588 191 559
f 191 561 559
f 192 561 191
f 488 560 697
f 192 560 561
f 561 560 488
f 487 119 118
f 489 119 487
f 119 489 121
f 491 121 489
f 121 491 123
f 490 562 491
f 491 562 123
f 490 563 562
f 493 563 490
f 493 126 563
f 494 126 493
f 128 494 130
f 126 494 128
f 496 130 494
f 130 496 132
f 496 498 132
f 132 498 134
f 497 134 498
f 497 499 134
f 135 499 137
f 134 499 135
f 499 501 137
f 137 502 139
f 501 502 137
f 502 564 139
f 139 564 565
f 503 565 564
f 503 504 565
f 565 504 141
f 505 141 504
f 505 566 141
f 505 506 566
f 144 506 145
f 566 506 144
f 508 145 506
f 509 567 508
f 508 567 145
f 511 568 509
f 509 568 567
f 511 569 568
f 510 150 511
f 511 150 569
f 510 512 150
f 512 151 150
f 151 570 153
f 512 570 151
f 570 513 153
f 153 513 155
f 513 571 155
f 155 571 572
f 514 572 571
f 515 572 514
f 515 157 572
f 515 516 157
f 157 516 160
f 517 160 516
f 517 518 160
f 160 518 161
f 519 573 518
f 520 573 519
f 518 573 161
f 520 574 573
f 520 522 574
f 574 522 164
f 522 523 164
f 164 523 166
f 166 525 168
f 523 525 166
f 526 168 525
f 526 527 168
f 168 527 170
f 170 530 172
f 527 530 170
f 529 575 530
f 530 575 172
f 529 576 575
f 575 576 175
f 531 577 576
f 576 577 175
f 531 532 577
f 577 532 177
f 533 578 532
f 532 578 177
f 533 180 578
f 534 182 533
f 533 182 180
f 534 183 182
f 535 183 534
f 183 535 185
f 537 579 535
f 535 579 185
f 579 537 187
f 536 580 537
f 537 580 187
f 580 536 581
f 540 581 536
f 540 582 581
f 540 541 582
f 582 541 193
f 541 583 193
f 193 542 194
f 583 542 193
f 544 584 543
f 543 584 542
f 542 584 194
f 584 544 196
f 545 196 544
f 547 585 545
f 545 585 196
f 547 199 585
f 547 546 199
f 199 546 202
f 546 549 202
f 202 549 204
f 204 550 206
f 549 550 204
f 550 551 206
f 553 586 551
f 551 586 206
f 553 552 586
f 586 552 209
f 552 554 209
f 209 554 211
f 554 555 211
f 211 555 213
f 213 587 214
f 555 587 213
f 587 556 214
f 214 556 215
f 556 557 215
f 215 557 217
f 557 558 217
f 217 558 219
f 219 588 221
f 558 588 219
f 588 559 221
f 561 589 559
f 559 589 221
f 561 488 589
f 589 488 222
f 416 21 414
f 414 21 16
f 416 590 21
f 416 591 590
f 418 591 416
f 419 592 418
f 418 592 591
f 419 593 592
f 419 594 593
f 593 594 33
f 33 594 37
f 594 595 37
f 422 596 595
f 595 596 37
f 423 597 422
f 422 597 596
f 423 598 597
f 423 46 598
f 599 46 423
f 46 599 47
f 47 599 48
f 425 48 599
f 426 600 425
f 425 600 48
f 426 601 600
f 428 601 426
f 601 428 602
f 429 602 428
f 429 603 602
f 431 603 429
f 603 431 52
f 431 604 52
f 52 604 54
f 604 432 54
f 433 605 432
f 432 605 54
f 433 434 605
f 605 434 606
f 607 606 434
f 606 607 58
f 607 608 58
f 58 608 60
f 60 436 609
f 608 436 60
f 438 609 436
f 439 63 438
f 438 63 609
f 63 439 64
f 440 64 439
f 64 440 66
f 443 610 441
f 441 610 440
f 440 610 66
f 443 69 610
f 443 611 69
f 444 611 443
f 72 444 612
f 611 444 72
f 445 612 444
f 446 612 445
f 612 446 613
f 448 613 446
f 448 614 613
f 449 614 448
f 614 449 75
f 75 451 77
f 449 451 75
f 451 452 77
f 452 453 77
f 77 453 80
f 80 454 82
f 453 454 80
f 455 82 454
f 456 615 455
f 458 615 456
f 455 615 82
f 615 458 83
f 459 83 458
f 459 616 83
f 462 86 459
f 459 86 616
f 462 617 86
f 463 617 462
f 617 463 618
f 618 619 90
f 463 619 618
f 90 465 91
f 619 465 90
f 465 620 91
f 91 620 93
f 620 466 93
f 93 466 95
f 95 621 96
f 466 621 95
f 467 96 621
f 469 96 467
f 96 469 99
f 472 622 470
f 470 622 469
f 469 622 99
f 622 472 101
f 472 103 101
f 473 103 472
f 473 474 103
f 103 474 623
f 475 623 474
f 477 624 475
f 475 624 623
f 624 477 106
f 477 625 106
f 106 625 108
f 625 478 108
f 480 626 479
f 479 626 478
f 478 626 108
f 626 480 111
f 480 627 111
f 482 628 481
f 481 628 627
f 627 628 111
f 628 482 629
f 484 629 482
f 486 116 484
f 484 116 629
f 486 487 116
f 116 487 118
f 666 631 409
f 631 411 409
f 632 411 631
f 632 673 411
f 413 673 632
f 633 413 632
f 634 413 633
f 635 637 633
f 633 637 634
f 638 635 636
f 635 638 637
f 638 636 691
f 685 640 641
f 639 640 685
f 682 641 640
f 643 679 695
f 691 644 638
f 691 685 644
f 639 685 691
f 642 682 640
f 642 679 682
f 695 679 642
f 643 678 679
f 645 678 643
f 645 646 678
f 645 675 646
f 647 675 645
f 647 648 675
f 696 648 647
f 649 651 696
f 696 651 648
f 650 651 649
f 652 225 488
f 488 225 222
f 653 654 652
f 655 654 653
f 652 654 225
f 653 228 655
f 656 228 653
f 231 229 656
f 656 229 228
f 658 231 657
f 657 231 656
f 659 658 657
f 659 392 658
f 659 395 392
f 660 395 659
f 395 660 396
f 660 397 396
f 661 397 660
f 661 662 397
f 663 399 661
f 661 399 662
f 401 399 663
f 663 688 401
f 664 402 688
f 688 402 401
f 665 404 664
f 664 404 402
f 406 404 665
f 406 665 666
f 409 630 666
f 666 630 406
f 650 674 668
f 651 650 668
f 651 668 669
f 648 651 669
f 638 667 670
f 670 637 638
f 637 670 671
f 634 637 671
f 413 671 672
f 634 671 413
f 673 413 672
f 672 412 673
f 674 412 672
f 412 674 650
f 650 410 412
f 675 648 669
f 675 669 676
f 646 675 676
f 646 676 677
f 678 646 677
f 678 677 680
f 679 678 680
f 679 680 681
f 682 679 681
f 682 681 683
f 683 641 682
f 684 641 683
f 685 641 684
f 644 684 686
f 644 685 684
f 686 667 638
f 644 686 638
f 671 667 686
f 671 686 684
f 671 670 667
f 676 680 677
f 672 684 683
f 672 671 684
f 674 672 683
f 668 674 683
f 668 683 681
f 668 676 669
f 668 681 680
f 668 680 676
f 657 201 203
f 656 201 657
f 200 201 656
f 657 203 659
f 203 205 659
f 205 207 659
f 659 207 660
f 207 208 660
f 660 210 661
f 208 210 660
f 210 212 661
f 212 687 661
f 661 687 663
f 663 687 216
f 216 688 663
f 216 218 688
f 688 218 664
f 218 220 664
f 664 220 665
f 689 665 220
f 666 665 689
f 666 689 223
f 631 223 224
f 666 223 631
f 632 224 690
f 631 224 632
f 632 690 226
f 632 226 633
f 226 227 633
f 633 230 635
f 227 230 633
f 230 232 635
f 635 232 636
f 391 636 232
f 393 691 391
f 391 691 636
f 393 394 691
f 691 394 639
f 640 692 693
f 394 692 639
f 639 692 640
f 693 694 640
f 642 694 398
f 640 694 642
f 398 695 642
f 643 695 400
f 400 695 398
f 643 400 645
f 645 400 403
f 403 405 645
f 645 405 647
f 647 407 696
f 405 407 647
f 408 696 407
f 649 696 408
f 408 410 649
f 410 650 649
f 652 697 195
f 488 697 652
f 652 195 653
f 195 197 653
f 197 198 653
f 653 198 656
f 198 200 656
