# Render LOD; unchanged CAD body-local coordinates in mm
v -60.6406000 90.1003092 140.7500000
v -60.8406064 90.1003092 140.7500000
v -60.6406000 90.7002863 140.7500000
v -60.8406064 90.7002863 140.7500000
v -60.8406064 90.1003092 141.0500000
v -60.8406064 90.7002863 141.6000114
v -60.8406064 89.9003000 141.3000114
v -60.8406064 89.9003000 141.6000114
v -60.6421326 90.7002863 141.6348592
v -60.6406000 90.7002863 141.6000114
v -60.8436469 90.7002863 141.6347219
v -60.6542205 90.7002863 141.7035248
v -60.6466810 90.7002863 141.6694667
v -60.8526696 90.7002863 141.6684024
v -60.6780749 90.7002863 141.7690661
v -60.6647263 90.7002863 141.7368276
v -60.8674025 90.7002863 141.7000229
v -60.7129296 90.7002863 141.8294232
v -60.6941921 90.7002863 141.8000000
v -60.8874006 90.7002863 141.7285534
v -60.7341885 90.7002863 141.8571298
v -60.7577463 90.7002863 141.8828450
v -60.9120461 90.7002863 141.7532044
v -60.7834794 90.7002863 141.9064317
v -60.8111653 90.7002863 141.9276837
v -60.9405973 90.7002863 141.7732204
v -60.8406064 90.7002863 141.9464294
v -60.8715554 90.7002863 141.9625315
v -60.9721889 90.7002863 141.7879492
v -60.9037897 90.7002863 141.9758869
v -60.9370623 90.7002863 141.9863928
v -61.0058818 90.7002863 141.7969787
v -60.9711507 90.7002863 141.9939460
v -61.0057334 90.7002863 141.9984779
v -61.0405881 90.7002863 141.8000000
v -61.0405881 90.7002863 142.0000229
v -62.0950840 90.7002863 141.8044062
v -62.0405954 90.7002863 142.0000229
v -62.1802656 90.7002863 141.8558882
v -62.2341699 90.7002698 141.9379010
v -62.0406201 90.7005380 142.1000000
v -62.2406018 90.7002863 142.1000000
v -60.6406000 90.1003092 141.0500000
v -60.6373142 89.9001645 141.3007363
v -61.2394080 89.9003000 142.0000229
v -61.2394080 89.9003000 141.8000000
v -61.0405881 89.9003000 141.8000000
v -61.0405881 89.9003000 142.0000229
v -61.0057334 89.9003000 141.9984779
v -61.0058818 89.9003000 141.7969787
v -60.6421326 89.9003000 141.6348592
v -60.8436469 89.9003000 141.6347219
v -60.9711507 89.9003000 141.9939460
v -60.6466810 89.9003000 141.6694667
v -60.9370623 89.9003000 141.9863928
v -60.9721889 89.9003000 141.7879492
v -60.6542205 89.9003000 141.7035248
v -60.8526696 89.9003000 141.6684024
v -60.9037897 89.9003000 141.9758869
v -60.6647263 89.9003000 141.7368276
v -60.8715554 89.9003000 141.9625315
v -60.9405973 89.9003000 141.7732204
v -60.6780749 89.9003000 141.7690661
v -60.8674025 89.9003000 141.7000229
v -60.8406064 89.9003000 141.9464294
v -60.6941921 89.9003000 141.8000000
v -60.8111653 89.9003000 141.9276837
v -60.9120461 89.9003000 141.7532044
v -60.7129296 89.9003000 141.8294232
v -60.8874006 89.9003000 141.7285534
v -60.7834794 89.9003000 141.9064317
v -60.7341885 89.9003000 141.8571298
v -60.7577463 89.9003000 141.8828450
v -61.5990289 90.3003183 141.8000000
v -62.0405954 90.3003183 142.0000229
v -62.1582716 90.3003183 141.8374356
v -62.0857407 90.3003183 141.8035931
v -61.5990289 90.3003183 142.0000229
v -62.2067560 90.3003183 141.8874612
v -62.2382775 90.3003183 141.9613917
v -62.2406018 90.3003183 142.6000229
v -62.0405954 90.3003183 142.6000229
v -62.2406018 90.8112682 142.6000229
v -62.2335700 90.8511587 142.1000000
v -61.9075776 90.8482284 142.6000229
v -61.8905968 90.9058848 142.6000229
v -62.1107697 90.9539387 142.6004333
v -61.9926888 90.7863426 142.6000229
v -62.2236115 90.8689955 142.6000229
v -62.0335931 90.7408159 142.6000229
v -61.8905986 91.0142790 142.5953622
v -61.8905968 90.9058848 142.1000000
v -61.8905968 91.1183327 142.5344803
v -61.8905967 91.2364729 142.4843486
v -61.8905968 91.3612321 142.4564479
v -61.8905994 91.9008561 142.0955468
v -61.8905967 91.4891174 142.4493502
v -61.8905967 91.6335950 142.4687828
v -61.8905967 91.7716745 142.5161800
v -61.8905970 91.8866535 142.5822604
v -61.8905968 91.9702336 142.0487068
v -61.8905968 91.9533648 142.6346647
v -61.8905968 91.9703343 142.6512131
v -62.0906033 91.1237883 142.5310845
v -62.0906031 91.2745328 142.4725992
v -62.0906034 91.4347690 142.4494585
v -62.0906031 91.5784669 142.4579650
v -62.0906032 91.7180893 142.4941747
v -62.0902043 91.8534358 142.5600941
v -62.1058088 91.9127342 142.6021859
v -62.0903014 91.0229880 142.5908087
v -62.0906032 91.0162121 142.1000000
v -62.0905290 91.8582446 142.1000000
v -62.1075328 90.9585540 142.0999995
v -62.1926952 90.8966699 142.1000000
v -62.0237062 90.7585483 142.1000000
v -61.9118268 90.8425342 142.1000000
v -61.8920800 91.9874046 142.0250172
v -62.1654789 91.9660542 142.0534791
v -62.1073491 91.9160956 142.0901854
v -62.1907736 92.0293297 142.7414857
v -62.1910279 92.0697852 141.9094232
v -62.1843404 91.9963212 142.0109139
v -62.1799152 91.9874046 142.6750057
v -62.1653059 91.9658528 142.6462692
v -61.9077431 92.0251773 141.9650390
v -61.9779065 92.0947106 141.8863813
v -62.1905940 92.2252289 141.7840611
v -61.9907700 92.1493306 141.8369599
v -61.9906123 92.2738243 141.7604658
v -62.1905941 92.3853148 141.7201139
v -61.9906123 92.4047319 141.7153316
v -62.1905941 92.5392027 141.6982894
v -61.9906124 92.5251259 141.6999066
v -61.9906123 92.6458906 141.7059083
v -62.1905940 92.6936996 141.7148652
v -62.1905940 92.8083831 141.7527920
v -62.1905939 92.9437917 141.8293089
v -61.9906123 92.8125722 141.7523345
v -61.9906123 92.9464204 141.8338983
v -62.1905940 93.0762354 141.9649384
v -61.9906124 93.0235228 141.9035494
v -61.9906123 93.0980499 141.9979109
v -62.1905941 93.1658097 142.1329607
v -61.9906123 93.1600618 142.1216374
v -62.1905940 93.1975291 142.2837343
v -62.1905941 93.1966286 142.4405813
v -61.9906123 93.2002169 142.2900606
v -61.9906123 93.1937197 142.4463453
v -62.1905941 93.1551415 142.5896537
v -62.1905941 93.1095798 142.6823783
v -61.9906124 93.1545765 142.5966167
v -62.1905942 93.0319488 142.7887303
v -61.9906123 93.0767785 142.7322371
v -61.9906124 93.0295973 142.7890936
v -62.1905940 92.3405757 142.0989098
v -62.1905940 92.2565926 142.2058595
v -62.1905940 92.4308593 142.0473036
v -62.1905940 92.5120847 142.0261357
v -62.1905940 92.2261925 142.3160319
v -62.1905940 92.6303732 142.0328012
v -62.1905940 92.2287905 142.4012871
v -62.1905940 92.7524079 142.0927458
v -62.1905940 92.2610002 142.5028142
v -62.1905943 92.1393146 142.8550178
v -62.1905940 92.8395907 142.1972087
v -62.1905941 92.2515319 142.9285146
v -62.1905940 92.3481830 142.6072770
v -62.1905941 92.3774038 142.9777264
v -62.1905940 92.8711421 142.2957499
v -62.1905941 92.5106184 142.9998953
v -62.1905940 92.4702272 142.6672247
v -62.1905940 92.8741781 142.3963119
v -62.1905941 92.6870589 142.9884378
v -62.1905940 92.7605858 142.8808847
v -62.1905940 92.6062631 142.6723433
v -62.1905940 92.8150328 142.8373102
v -62.1905940 92.7147637 142.9377426
v -62.1905940 92.7324548 142.6217764
v -62.1905940 92.8950661 142.7996062
v -62.1905940 92.8273280 142.5240564
v -62.1905940 92.9802729 142.7863693
v -62.2606000 92.2251723 142.3635950
v -62.2606000 92.2322289 142.2778850
v -62.2606000 92.2616937 142.1996779
v -62.2606000 92.3223336 142.1153435
v -62.2606000 92.4374516 142.0429066
v -62.2606000 92.5545721 142.0239103
v -62.2606000 92.6722081 142.0463864
v -62.2606000 92.7850931 142.1221787
v -62.2606000 92.8416374 142.2050562
v -62.2606000 92.8741742 142.3036968
v -62.2606000 92.8650053 142.4394777
v -62.2606000 92.8013954 142.5597454
v -62.2606000 92.6943839 142.6437615
v -62.2606000 92.5624760 142.6769418
v -62.2606000 92.4283828 142.6536365
v -62.2606000 92.3154977 142.5778442
v -62.2606000 92.2430910 142.4625974
v -62.2606000 92.4522367 142.2709925
v -62.2606000 92.5048456 142.2325403
v -62.2606000 92.4295699 142.3176699
v -62.2606000 92.5503206 142.2250057
v -62.2606000 92.4250635 142.3634051
v -62.2606000 92.6012497 142.2348223
v -62.2606000 92.6519707 142.2757079
v -62.2606000 92.4486725 142.4244098
v -62.2606000 92.6755273 142.3366178
v -62.2606000 92.4993858 142.4652181
v -62.2606000 92.6654763 142.4008992
v -62.2606000 92.5638062 142.4752388
v -62.2606000 92.6246795 142.4516678
v -62.1905940 92.4258382 142.3692992
v -62.1905940 92.4328495 142.3045875
v -62.1905940 92.4618976 142.2616388
v -62.1905940 92.4993492 142.2348179
v -62.1905940 92.5638062 142.2247841
v -62.1905940 92.6128109 142.2417601
v -62.1905940 92.6483542 142.2709925
v -62.1905940 92.6747527 142.3307237
v -62.1905940 92.4759113 142.4516678
v -62.1905940 92.4420578 142.4124971
v -62.1905940 92.5368051 142.4752417
v -62.1905940 92.6012131 142.4652136
v -62.1905940 92.6519183 142.4244098
v -62.1905940 92.6710210 142.3823529
v -61.9906123 92.6884575 142.9870088
v -61.9906124 92.7534117 142.8855338
v -61.9906124 92.8542817 142.8150634
v -61.9906124 92.9555421 142.7872912
v -61.9906124 92.2930647 142.1478467
v -61.9906124 92.2346377 142.2653213
v -61.9906124 92.3975893 142.0606539
v -61.9906124 92.4965002 142.0291001
v -61.9906124 92.2251481 142.3666282
v -61.9906124 92.5966001 142.0261512
v -61.9906124 92.6953843 142.0587232
v -61.9906124 92.7654556 142.1049269
v -61.9906124 92.2465910 142.4717114
v -61.9906124 92.3223336 142.5846794
v -61.9907348 92.1520522 142.8649466
v -61.9906124 92.4374516 142.6571163
v -61.9906124 92.8395907 142.1972087
v -61.9906124 92.2707452 142.9380470
v -61.9906124 92.3991172 142.9833193
v -61.9906124 92.5363408 142.6751099
v -61.9906124 92.8767202 142.3279932
v -61.9906124 92.5339962 143.0008985
v -61.9906124 92.6223567 142.6680750
v -61.9906124 92.7168863 142.6303955
v -61.9906124 92.7825016 142.5779820
v -61.9906124 92.8654405 142.4311378
v -61.9906124 92.8349049 142.5092695
v -62.0605936 92.8726400 142.4060005
v -62.0605936 92.8220038 142.5322538
v -62.0605936 92.7384450 142.6163941
v -62.0605936 92.6640952 142.6548813
v -62.0605936 92.5800024 142.6747792
v -62.0605936 92.4965002 142.6709228
v -62.0605936 92.3975893 142.6393690
v -62.0605936 92.2930647 142.5521762
v -62.0605936 92.2387726 142.4465975
v -62.0605936 92.2254515 142.3665609
v -62.0605936 92.4522367 142.2709925
v -62.0605936 92.3223336 142.1153435
v -62.0605936 92.2616937 142.1996779
v -62.0605936 92.4374516 142.0429066
v -62.0605936 92.4295699 142.3176699
v -62.0605936 92.2310506 142.2819433
v -62.0605936 92.5048456 142.2325403
v -62.0605936 92.5721630 142.0235881
v -62.0605936 92.4257530 142.3663042
v -62.0605936 92.5696967 142.2255603
v -62.0605936 92.6985637 142.0587512
v -62.0605936 92.4486725 142.4244098
v -62.0605936 92.6293110 142.2519309
v -62.0605936 92.7804949 142.1197788
v -62.0605936 92.8439983 142.2058595
v -62.0605936 92.4993858 142.4652181
v -62.0605936 92.6677413 142.3045875
v -62.0605936 92.8720886 142.3017066
v -62.0605936 92.5503206 142.4750172
v -62.0605936 92.6747527 142.3692992
v -62.0605936 92.5957168 142.4674893
v -62.0605936 92.6482972 142.4291281
v -61.9906124 92.6755273 142.3634051
v -61.9906124 92.6585330 142.4124971
v -61.9906124 92.6293927 142.4480470
v -61.9906124 92.5826484 142.4707599
v -61.9906124 92.5368051 142.4752417
v -61.9906124 92.4759113 142.4516678
v -61.9906124 92.4351146 142.4008992
v -61.9906124 92.4250635 142.3366178
v -61.9906124 92.4486202 142.2757079
v -61.9906124 92.4993492 142.2348179
v -61.9906124 92.5503206 142.2250057
v -61.9906124 92.5957537 142.2325443
v -61.9906124 92.6483542 142.2709925
v -61.9906124 92.6710210 142.3176699
v -61.9763989 92.0920496 142.8126041
v -61.8989257 92.0122773 142.7139007
f 1 2 3
f 3 2 4
f 5 6 4
f 5 4 2
f 7 6 5
f 8 6 7
f 6 9 10
f 6 10 3
f 6 3 4
f 11 12 13
f 11 13 9
f 11 9 6
f 14 15 16
f 14 16 12
f 14 12 11
f 17 18 19
f 17 19 15
f 17 15 14
f 20 21 18
f 20 18 17
f 22 21 20
f 23 22 20
f 24 22 23
f 25 23 26
f 25 24 23
f 27 25 26
f 28 26 29
f 28 27 26
f 30 28 29
f 31 29 32
f 31 30 29
f 33 31 32
f 34 33 32
f 34 32 35
f 36 34 35
f 37 36 35
f 38 36 37
f 38 37 39
f 40 38 39
f 40 41 38
f 42 41 40
f 10 43 3
f 3 43 1
f 10 44 43
f 43 5 2
f 43 2 1
f 44 5 43
f 7 5 44
f 45 46 47
f 48 45 47
f 44 8 7
f 49 47 50
f 49 48 47
f 51 52 8
f 51 8 44
f 53 49 50
f 54 52 51
f 55 50 56
f 55 53 50
f 57 58 52
f 57 52 54
f 59 55 56
f 60 58 57
f 61 56 62
f 61 59 56
f 63 64 58
f 63 58 60
f 65 61 62
f 66 64 63
f 67 62 68
f 67 65 62
f 69 70 64
f 69 64 66
f 71 67 68
f 72 70 69
f 73 68 70
f 73 70 72
f 73 71 68
f 47 32 50
f 35 32 47
f 50 29 56
f 32 29 50
f 56 26 62
f 29 26 56
f 62 23 68
f 26 23 62
f 68 20 70
f 23 20 68
f 70 17 64
f 20 17 70
f 64 14 58
f 17 14 64
f 58 11 52
f 52 11 8
f 14 11 58
f 11 6 8
f 74 77 37
f 35 74 37
f 46 74 35
f 47 46 35
f 75 76 77
f 75 77 74
f 75 74 78
f 79 76 75
f 80 79 75
f 81 75 82
f 81 80 75
f 80 42 40
f 80 81 42
f 42 83 84
f 81 83 42
f 87 86 91
f 87 85 86
f 88 85 87
f 90 88 87
f 89 90 87
f 83 90 89
f 81 82 90
f 81 90 83
f 93 91 86
f 93 86 92
f 94 93 92
f 95 94 92
f 96 97 95
f 96 95 92
f 98 97 96
f 99 98 96
f 100 99 96
f 100 96 101
f 102 100 101
f 102 102 101
f 103 102 101
f 111 91 104
f 91 93 104
f 104 94 105
f 93 94 104
f 94 95 105
f 105 95 106
f 95 97 106
f 106 97 107
f 97 98 107
f 107 98 108
f 98 99 108
f 108 99 109
f 99 100 109
f 109 100 110
f 111 104 112
f 104 105 112
f 105 106 112
f 106 113 112
f 106 107 113
f 107 108 113
f 108 109 113
f 114 111 112
f 87 111 114
f 89 87 115
f 115 87 114
f 84 89 115
f 83 89 84
f 112 113 96
f 92 114 112
f 92 112 96
f 116 42 84
f 116 115 114
f 116 84 115
f 117 114 92
f 117 116 114
f 41 42 116
f 118 101 123
f 123 101 119
f 101 120 119
f 101 96 120
f 120 96 113
f 120 109 110
f 120 113 109
f 121 122 123
f 124 121 123
f 119 124 123
f 125 124 119
f 120 125 119
f 110 125 120
f 126 118 123
f 126 123 122
f 127 126 122
f 129 122 128
f 129 127 122
f 130 129 128
f 130 128 131
f 132 130 131
f 132 131 133
f 134 132 133
f 135 134 133
f 135 133 136
f 139 135 136
f 139 136 137
f 139 137 138
f 140 139 138
f 142 140 138
f 142 138 141
f 143 142 141
f 143 141 144
f 145 143 144
f 148 145 144
f 148 144 146
f 148 146 147
f 149 148 147
f 152 149 147
f 152 147 150
f 152 150 151
f 154 152 151
f 154 151 153
f 155 154 153
f 122 156 128
f 122 157 156
f 156 158 128
f 128 158 131
f 158 159 131
f 122 160 157
f 131 159 133
f 159 161 133
f 133 161 136
f 136 161 137
f 122 121 160
f 162 121 164
f 160 121 162
f 161 163 137
f 137 163 138
f 121 168 164
f 121 165 168
f 163 141 138
f 166 141 163
f 165 167 168
f 166 144 141
f 168 167 172
f 167 169 172
f 170 144 166
f 170 146 144
f 169 171 172
f 173 146 170
f 172 171 176
f 173 147 146
f 171 174 176
f 175 177 176
f 176 177 179
f 174 178 176
f 176 178 175
f 177 180 179
f 179 180 181
f 173 150 147
f 181 150 173
f 180 182 181
f 181 151 150
f 182 151 181
f 182 153 151
f 160 183 184
f 157 160 184
f 157 184 185
f 157 185 186
f 156 157 186
f 156 186 187
f 158 156 187
f 159 158 187
f 159 187 188
f 161 159 188
f 161 188 189
f 163 161 189
f 163 189 190
f 166 163 190
f 166 190 191
f 166 191 192
f 170 166 192
f 173 170 192
f 173 192 193
f 181 173 193
f 181 193 194
f 179 181 194
f 179 194 195
f 176 179 195
f 176 195 196
f 172 176 196
f 172 196 197
f 168 172 197
f 168 197 198
f 164 168 198
f 164 198 199
f 162 164 199
f 162 199 183
f 160 162 183
f 185 200 186
f 200 201 186
f 186 201 187
f 185 202 200
f 184 202 185
f 187 201 188
f 201 203 188
f 184 204 202
f 183 204 184
f 199 204 183
f 203 205 188
f 188 205 189
f 189 205 190
f 198 207 199
f 199 207 204
f 205 206 190
f 207 198 209
f 206 191 190
f 198 197 209
f 208 191 206
f 208 192 191
f 197 196 209
f 209 196 211
f 208 193 192
f 210 193 208
f 196 195 211
f 211 195 212
f 210 194 193
f 212 194 210
f 195 194 212
f 213 214 204
f 204 214 202
f 202 214 200
f 214 215 200
f 200 216 201
f 215 216 200
f 201 217 203
f 216 217 201
f 203 217 205
f 217 218 205
f 205 219 206
f 218 219 205
f 206 220 208
f 219 220 206
f 221 220 219
f 221 219 218
f 221 218 217
f 221 217 216
f 221 216 215
f 221 215 214
f 221 214 213
f 221 213 222
f 221 223 224
f 221 224 225
f 221 225 226
f 221 226 220
f 220 226 208
f 208 226 210
f 226 225 210
f 210 225 212
f 225 224 212
f 212 224 211
f 224 223 211
f 211 223 209
f 223 221 209
f 209 221 207
f 221 222 207
f 207 213 204
f 222 213 207
f 174 227 178
f 227 228 178
f 178 228 175
f 175 228 177
f 228 229 177
f 177 229 180
f 229 230 180
f 180 230 182
f 182 155 153
f 230 155 182
f 233 231 129
f 233 129 130
f 232 129 231
f 233 130 132
f 234 233 132
f 234 132 134
f 235 129 232
f 236 134 135
f 236 234 134
f 236 135 139
f 237 236 139
f 238 237 139
f 238 139 140
f 142 238 140
f 142 243 238
f 241 235 239
f 241 239 240
f 241 129 235
f 143 243 142
f 241 240 242
f 244 241 242
f 145 243 143
f 245 244 242
f 145 247 243
f 148 247 145
f 245 242 246
f 248 245 246
f 248 246 249
f 149 247 148
f 149 252 247
f 228 249 250
f 228 227 248
f 228 248 249
f 229 228 250
f 229 250 251
f 152 252 149
f 230 251 253
f 230 229 251
f 152 253 252
f 154 230 253
f 154 253 152
f 155 230 154
f 247 252 254
f 254 253 255
f 252 253 254
f 253 251 255
f 255 251 256
f 251 250 256
f 256 250 257
f 250 249 257
f 257 249 258
f 249 246 258
f 258 246 259
f 246 242 259
f 259 242 260
f 242 240 260
f 260 240 261
f 240 239 261
f 261 239 262
f 262 235 263
f 239 235 262
f 264 266 265
f 270 264 265
f 270 265 267
f 268 269 266
f 268 266 264
f 270 267 271
f 272 269 268
f 272 263 269
f 273 270 271
f 273 271 274
f 272 262 263
f 275 262 272
f 275 261 262
f 276 273 274
f 276 274 277
f 278 276 277
f 278 280 276
f 260 275 279
f 260 261 275
f 259 260 279
f 281 280 278
f 259 279 282
f 281 283 280
f 254 283 281
f 258 259 282
f 258 282 284
f 257 258 284
f 255 283 254
f 255 285 283
f 256 257 284
f 256 284 285
f 256 285 255
f 263 235 269
f 235 232 269
f 269 232 266
f 232 231 266
f 266 231 265
f 231 233 265
f 265 233 267
f 233 234 267
f 267 234 271
f 234 236 271
f 271 236 274
f 236 237 274
f 274 238 277
f 237 238 274
f 277 243 278
f 238 243 277
f 278 247 281
f 243 247 278
f 281 247 254
f 287 283 285
f 287 286 283
f 288 287 285
f 288 285 284
f 289 288 284
f 290 284 282
f 290 289 284
f 290 282 279
f 291 290 279
f 291 279 275
f 292 291 275
f 292 275 272
f 293 292 272
f 293 272 268
f 294 268 264
f 294 293 268
f 295 264 270
f 295 294 264
f 296 270 273
f 296 295 270
f 297 296 273
f 297 273 276
f 298 297 276
f 298 276 280
f 299 298 280
f 286 280 283
f 286 299 280
f 297 295 296
f 298 295 297
f 298 293 294
f 298 294 295
f 299 293 298
f 286 292 293
f 286 293 299
f 289 290 291
f 287 291 292
f 287 292 286
f 288 289 291
f 288 291 287
f 241 300 129
f 129 300 127
f 127 300 126
f 248 174 171
f 248 227 174
f 245 171 169
f 245 248 171
f 244 169 167
f 244 245 169
f 241 167 165
f 241 244 167
f 300 165 121
f 300 241 165
f 301 300 121
f 301 121 124
f 126 300 301
f 118 301 103
f 118 126 301
f 101 118 103
f 100 102 110
f 110 102 125
f 102 102 125
f 125 103 124
f 102 103 125
f 103 301 124
f 88 90 116
f 116 90 41
f 88 116 117
f 85 88 117
f 85 92 86
f 117 92 85
f 41 75 38
f 82 75 41
f 90 82 41
f 45 48 36
f 45 36 78
f 38 78 36
f 75 78 38
f 46 78 74
f 45 78 46
f 51 44 10
f 51 10 9
f 54 9 13
f 54 51 9
f 57 13 12
f 57 54 13
f 60 12 16
f 60 57 12
f 63 16 15
f 63 60 16
f 66 15 19
f 66 63 15
f 69 19 18
f 69 66 19
f 72 18 21
f 72 69 18
f 73 21 22
f 73 72 21
f 71 22 24
f 71 73 22
f 67 24 25
f 67 71 24
f 65 25 27
f 65 67 25
f 61 27 28
f 61 65 27
f 59 28 30
f 59 61 28
f 55 59 30
f 55 30 31
f 53 55 31
f 53 31 33
f 49 53 33
f 49 33 34
f 48 49 34
f 48 34 36
f 91 111 87
f 37 77 76
f 39 37 76
f 39 76 79
f 40 39 79
f 40 79 80
