# Render LOD; unchanged CAD body-local coordinates in mm
v 91.0228119 87.2771556 87.0000328
v 90.7513513 87.2822199 87.4558763
v 91.6948977 87.5865696 87.0000337
v 91.2757963 87.3532843 87.4945674
v 92.1722464 88.2341303 87.0000326
v 92.2101308 88.4956800 87.6039249
v 92.1648752 89.1042298 87.0000330
v 92.1868692 88.9863112 87.6402144
v 91.8655144 89.6210388 87.0000335
v 92.0023636 89.4409817 87.6739967
v 91.4265367 89.9571577 87.0000337
v 91.6932942 89.7804060 87.7075910
v 90.8173880 90.0980314 87.0000338
v 91.1657888 90.0595414 87.7509236
v 90.8116026 90.0889841 87.6487227
v 90.7731728 90.0988616 87.1525280
v 90.1302004 89.9282696 87.0000339
v 90.4113829 90.0452965 87.8049926
v 89.6691973 89.5042175 87.0000336
v 89.8882995 89.7441777 87.8446693
v 89.4474668 89.0318436 87.0000333
v 89.6297044 89.4577369 87.2519773
v 89.4008138 88.7539441 87.8009851
v 89.4284433 88.4012478 87.0000333
v 89.4095088 88.7007446 87.9298990
v 89.4988117 88.1886198 87.8425881
v 89.6914781 87.8346918 87.0000329
v 89.4818183 88.2242665 87.9626451
v 89.7802337 87.7231283 87.8814121
v 90.1941171 87.4115850 87.0000330
v 90.2576895 87.3929953 87.9241758
v 90.2246158 87.4034170 87.4193237
v 90.7873148 87.2785751 87.9598384
v 90.2814039 87.3784681 88.0513022
v 90.8698684 87.2790698 88.0901579
v 91.6947426 87.5891151 88.0272378
v 91.3927986 87.4022553 88.1278576
v 91.9334641 87.8108470 88.1781728
v 92.2013236 88.4704156 88.1016809
v 92.1794582 89.0748480 88.1461082
v 92.2054853 88.4770315 88.2272131
v 92.1896095 88.9822841 88.2626613
v 91.8102642 89.6862096 88.2004230
v 91.2364432 90.0360705 88.2455364
v 90.5877238 90.0819072 88.2880572
v 90.8162550 90.1030280 88.4013826
v 89.9878932 89.8287515 88.3374069
v 90.2401460 89.9696883 88.4408379
v 89.8357080 89.6984559 88.4749160
v 89.4389401 89.0078526 88.4073600
v 89.5430899 88.0707739 88.4797005
v 89.4289894 88.4107583 88.5789727
v 90.2306249 87.4018429 88.6691941
v 90.8934267 87.2752457 88.5933976
v 90.8559826 87.2742260 88.7132130
v 91.5031490 87.4535874 88.6369472
v 91.9384044 87.8428002 88.6790670
v 92.1868375 88.3476934 88.7228795
v 92.0195985 87.9561365 88.8147244
v 92.1902119 88.9875538 88.7651418
v 92.2134472 88.5197447 88.8551614
v 92.1209473 89.2522891 88.9067473
v 91.3424756 90.0008393 88.8653764
v 91.6337820 89.8325266 88.9597063
v 91.2187822 90.0305310 88.9936871
v 90.7973519 90.0901632 88.9043592
v 89.9073432 89.7669308 89.0950891
v 89.4195680 88.4480071 89.0730271
v 89.4134929 88.4860586 89.1949113
v 89.6504047 87.8902530 89.2373765
v 90.4729881 87.3179728 89.1918024
v 90.0539263 87.4994572 89.2785925
v 90.9800298 87.2914858 89.2248583
v 90.6451553 87.2843648 89.3231970
v 91.4457688 87.4262442 89.2601009
v 91.2436289 87.3436022 89.3655456
v 91.6848583 87.5832864 89.4035050
v 92.0118372 87.9476640 89.4372477
v 92.2125770 88.9288038 89.3907496
v 92.1890932 88.3965623 89.4727830
v 92.2089625 88.8662143 89.5040939
v 91.8846802 89.6102634 89.4412607
v 91.2479551 90.0384152 89.4936333
v 91.4102372 89.9686701 89.6086079
v 90.5067204 90.0669648 89.5459671
v 90.8891927 90.0883585 89.6423484
v 90.3699288 90.0265108 89.6788942
v 89.8755608 89.7423325 89.6002124
v 89.9040255 89.7586897 89.7191239
v 89.4098654 88.8132728 89.6728862
v 89.4118118 88.5261133 89.8170028
v 89.9589796 87.5445555 89.7721332
v 90.7436278 87.2726025 89.8365823
v 90.6397473 87.2797277 89.9468560
v 91.2997011 87.3631747 89.9941552
v 91.8582813 87.7239903 89.9218597
v 91.7010825 87.5983156 90.0291942
v 92.0298074 87.9733224 90.0652794
v 92.2173572 88.4693797 89.9793148
v 92.1252194 89.2100191 90.0315477
v 92.2369720 88.6564891 90.1156531
v 92.0350809 89.3898409 90.1683937
v 91.7049513 89.7732753 90.2056694
v 91.2856093 90.0122673 90.2396768
v 90.7146296 90.0885908 90.1582149
v 90.8089107 90.0919944 90.2736991
v 90.1922993 89.9541863 90.1969130
v 90.3138595 90.0041235 90.3092474
v 89.6314438 89.4735988 90.2464121
v 89.8817541 89.7388003 90.3459677
v 89.4408464 88.3351376 90.3328836
v 89.7728839 87.7353695 90.3817288
v 89.6210497 87.9363031 90.4843310
v 90.2836934 87.3755303 90.4225226
v 89.9589799 87.5703547 90.5224875
v 90.4159437 87.3336780 90.5566352
v 90.8709477 87.2807307 90.4667909
v 92.1723226 88.3023882 90.5903571
v 92.1718688 88.3172888 90.7157354
v 92.2117311 88.8173872 90.6296933
v 92.0706324 89.3348284 90.6657693
v 92.2072136 88.9267560 90.7560569
v 92.0139954 89.4147497 90.7958846
v 91.6965098 89.7828860 90.8293124
v 91.2434097 90.0265656 90.8678065
v 90.3318065 90.0038257 90.8106357
v 90.6545117 90.0917516 90.9086449
v 89.8412327 89.7171974 90.8533365
v 89.9368984 89.8032744 90.9608726
v 89.4851978 89.1528429 90.8974176
v 89.4065502 88.6462639 90.9332976
v 89.4441690 89.0783196 91.0296638
v 89.5022942 88.1748432 90.9697360
v 89.4502259 88.3201776 91.0798683
v 89.9067059 87.5884797 91.0249538
v 90.1592096 87.4398649 91.1630420
v 90.6236343 87.2880829 91.0754435
v 91.2382562 87.3400445 91.1150097
v 91.7549339 87.6374736 91.1621693
v 91.2699658 87.3453445 91.2409928
v 92.1389581 88.1846492 91.2069258
v 91.8349744 87.7111692 91.2909040
v 92.0987928 88.1195104 91.3275772
v 92.2093765 88.9155221 91.2595297
v 92.2166519 88.5737409 91.3599806
v 91.9105279 89.5843397 91.3142826
v 92.1583914 89.1093528 91.3977442
v 91.8435188 89.6526495 91.4428753
v 91.4164981 89.9564904 91.3553773
v 91.3825538 89.9728751 91.4825083
v 90.7980154 90.1065480 91.4003003
v 90.9079471 90.0893528 91.5166665
v 90.0561055 89.8842161 91.4521890
v 90.4258294 90.0394180 91.5513726
v 89.9924432 89.8271357 91.5851539
v 89.3947463 88.5349743 91.6915207
v 90.2034652 87.4143476 91.6699169
v 89.7541645 87.7465369 91.7495370
v 90.2522716 87.3974387 91.7948292
v 90.6561896 87.2915473 91.7014253
v 91.1452653 87.3160300 91.7368958
v 90.8122347 87.2707467 91.8346639
v 91.5948340 87.5174893 91.7717543
v 92.0487157 87.9833418 91.8235441
v 91.5494644 87.4749281 91.8884893
v 92.2266400 88.7202679 91.8736847
v 92.2264284 88.7885280 91.9970507
v 92.0801067 89.3021217 91.9134650
v 91.6920065 89.7957047 91.9587360
v 91.1926225 90.0387168 91.9984537
v 90.6750277 90.0913905 92.0357877
v 90.9739179 90.0891875 92.1402570
v 90.0546550 89.8785271 92.0856055
v 89.6169368 89.4311508 92.1257828
v 89.6654828 89.5123024 92.2464573
v 89.3947891 88.7537266 92.1793961
v 89.4313976 88.9514159 92.2852673
v 89.6180463 87.9301693 92.3595950
v 90.0888262 87.4799250 92.2844431
v 90.6074338 87.2917192 92.3247246
v 90.6285565 87.2837781 92.4455056
v 91.6218580 87.5264046 92.5207618
v 92.1257395 88.1342533 92.5771340
v 92.2086515 88.9011424 92.6305635
v 91.8409180 89.6625337 92.5679765
v 91.9362500 89.5562924 92.6858833
v 91.3196380 89.9995586 92.6148610
v 91.3244365 90.0024084 92.7350176
v 90.7963995 90.0918543 92.7751543
v 89.7848269 89.6568891 92.7315945
v 89.8908545 89.7489266 92.8444357
v 89.4614927 89.0923885 92.7772845
v 89.4980997 89.2209081 92.8933992
v 89.4148104 88.5484544 92.8189699
v 89.5400330 88.0877611 92.8507937
v 89.4326844 88.3466128 92.9593772
v 89.9223661 87.5850505 92.8989308
v 89.8308949 87.6693622 93.0081223
v 90.3726823 87.3473244 93.0530670
v 91.0037909 87.2927698 92.9775303
v 90.8901154 87.2817302 93.0928780
v 91.6390545 87.5272049 93.0293514
v 91.3511287 87.3871651 93.1252405
v 92.0963675 88.1013629 93.0779414
v 91.8596928 87.7309343 93.1676321
v 92.1571320 88.2723392 93.2143391
v 92.2233979 88.6756974 93.1190896
v 92.1281920 89.1898471 93.1555910
v 92.2201215 88.8579184 93.2507239
v 91.7356697 89.7704797 93.2114204
v 91.9712575 89.4945442 93.3032484
v 91.0608877 90.0745436 93.2594370
v 90.5054117 90.0595913 93.2977646
v 90.8755522 90.0931554 93.3971206
v 89.9790844 89.8250220 93.3352808
v 89.5536635 89.3283515 93.3874483
v 89.8718437 89.7489590 93.4665350
v 89.4605118 89.0974842 93.5233819
v 89.4048032 88.7475156 93.4244854
v 89.4951052 88.1984229 93.4673790
v 89.7554410 87.7571046 93.5033227
v 90.1290877 87.4575558 93.5382435
v 90.6397335 87.2877244 93.5761961
v 90.0703522 87.4770840 93.6553551
v 91.1341977 87.3189073 93.6105405
v 90.8077609 87.2702851 93.7119006
v 91.5487311 87.4855399 93.6414484
v 91.4818196 87.4423041 93.7615809
v 91.9845643 87.8917405 93.6871902
v 91.8882606 87.7824762 93.7966500
v 92.1423824 88.2161381 93.8354768
v 92.2193076 88.7084702 93.8702898
v 92.1166470 89.2298960 93.9052070
v 91.7202397 89.7833334 93.8384230
v 91.7148036 89.7763101 93.9512795
v 91.0007461 90.0864223 93.8891086
v 90.3626689 90.0242287 93.9280028
v 90.7852097 90.0979354 94.0223305
v 89.7265733 89.6053738 93.9884229
v 90.2196258 89.9644835 94.0690276
v 89.7266244 89.5871566 94.1094530
v 89.3930673 88.7575157 94.0476106
v 89.5969288 87.9548828 94.1129762
v 89.4559323 88.3150133 94.2078548
v 89.6591269 87.8806163 94.2412178
v 90.7341480 87.2672557 94.2059573
v 90.1576313 87.4348544 94.2901998
v 91.4863072 87.4446590 94.2631028
v 91.3726723 87.3767087 94.3732949
v 91.9246464 87.8174116 94.4311040
v 92.2274425 88.6432004 94.3646621
v 92.1770508 88.3365225 94.4664890
v 92.2019959 88.9573099 94.5126689
v 91.9882025 89.4560251 94.5510399
v 91.2811114 90.0307775 94.4919492
v 91.6556903 89.8168940 94.5827591
v 90.5010727 90.0629964 94.5506791
v 91.0624478 90.0816366 94.6331873
v 90.4082901 90.0339548 94.6818406
v 89.9479309 89.8015313 94.5928991
v 89.6002436 89.3927486 94.6287941
v 89.4239312 88.9343423 94.6676151
v 89.6042782 89.4249824 94.7517897
v 89.4524297 88.3211431 94.7112695
v 89.3969548 88.6841672 94.8039802
v 89.7515064 87.7519462 94.7553096
v 89.5248396 88.1298375 94.8446002
v 89.8219638 87.6783564 94.8837148
v 90.9836051 87.2871597 94.8498454
v 90.4666368 87.3115258 94.9350675
v 88.7528104 90.6178570 86.9940108
v 88.2296747 89.8000181 87.0000336
v 89.5497092 91.2001933 87.0000336
v 87.9855687 88.6386019 87.0000336
v 90.5556099 91.4925843 87.0000336
v 88.3831121 87.2277256 87.0000336
v 91.7123311 91.3606763 87.0000336
v 92.5643414 90.8815308 87.0000336
v 89.5000032 86.1744919 87.0000336
v 93.1376063 90.2705559 87.0000336
v 90.7213136 85.8740040 87.0000336
v 93.5761830 89.2680035 87.0000336
v 91.7564463 86.0305801 87.0000336
v 93.5922136 88.2885531 87.0000336
v 93.3582336 87.4851120 87.0000336
v 92.7318436 86.6195389 87.0000336
v 88.0400649 89.1774574 86.8013099
v 88.3164721 89.9622045 86.8002800
v 88.5002553 90.2635940 86.7999908
v 88.5816896 90.3769504 86.7999908
v 88.6687637 90.4861211 86.7999908
v 88.8586348 90.6907093 86.7999908
v 89.2688207 91.0379321 86.8019846
v 90.0618699 91.3915003 86.8015584
v 90.5645914 91.4727925 86.7590886
v 91.5684246 91.4064339 86.8039978
v 92.5043894 90.9308326 86.7987079
v 93.2183211 90.1650198 86.7962950
v 93.6099091 89.0370596 86.8013794
v 93.5523828 88.0519552 86.8033103
v 93.2733107 87.3339550 86.7977719
v 92.8661876 86.7716396 86.8002367
v 92.1526923 86.2084213 86.7969605
v 91.3123973 85.9241338 86.8027482
v 90.6157292 85.8864427 86.7982741
v 89.7303907 86.0848574 86.7980195
v 88.8041498 86.7106803 86.7974509
v 88.2270900 87.5787863 86.7998359
v 88.0140959 88.5209199 86.7612355
v 88.1852479 89.2510460 86.5208537
v 89.0737587 89.0814245 85.5560354
v 88.5399532 88.5434131 85.9324821
v 89.3006623 88.7783277 85.4032176
v 89.7221597 90.9549400 86.2502710
v 90.2120517 91.2749033 86.4728203
v 90.8596504 91.2661605 86.3265832
v 90.9460409 90.7662794 85.7607427
v 91.5737342 91.2306339 86.4514818
v 90.1786270 90.3404175 85.5487816
v 90.6843456 90.4747815 85.5607531
v 91.5002035 90.9843246 86.0786615
v 92.4836207 90.7684054 86.4707309
v 90.6765910 90.1768711 85.3995626
v 92.3434071 90.5345600 86.0782633
v 91.8188221 90.5385889 85.7891682
v 91.2102204 90.1450380 85.4063448
v 93.1662219 89.9477335 86.4718024
v 91.5859231 90.3252573 85.5736302
v 91.8482068 90.2785431 85.6379553
v 91.6113379 89.9213038 85.4000000
v 92.0036211 90.0295388 85.5627072
v 91.7318231 90.1036821 85.5072648
v 92.9491202 89.7789112 86.0783441
v 91.8396568 89.7494628 85.3999688
v 93.4708843 88.9458892 86.4744063
v 92.4059132 89.5543475 85.5716803
v 92.5838654 89.8174885 85.7683755
v 93.1937066 88.9099316 86.0720645
v 92.8003932 88.8761802 85.6977545
v 93.1502925 88.0568740 86.1070221
v 92.2545563 89.1452244 85.4057102
v 93.3701241 87.9153468 86.4736313
v 92.7223739 87.1966105 86.1072892
v 92.3074918 88.4389920 85.4028714
v 92.8669416 86.9811421 86.4706354
v 92.7812731 88.0863413 85.7402893
v 92.1464723 86.7024178 86.0822548
v 92.0347267 86.3124047 86.4720783
v 92.3048365 87.8787619 85.5052966
v 92.3944248 87.3664574 85.7414125
v 91.4931858 86.3778719 86.0882767
v 91.7649567 87.5090712 85.4054274
v 91.5968113 86.9565258 85.6379553
v 91.0704277 86.0329294 86.4717766
v 91.7767886 86.8401532 85.7609597
v 90.3464833 86.0687651 86.4771038
v 91.4183906 87.3462258 85.4000000
v 91.5092245 87.1473609 85.5072648
v 91.0127268 86.5842310 85.7927580
v 91.2693521 86.9469929 85.5631189
v 90.5881271 86.2943286 86.0843174
v 89.6247747 86.3102939 86.4526506
v 90.6242165 86.9160158 85.5515768
v 89.6873491 86.5684068 86.0783026
v 89.0151299 86.7125903 86.4915452
v 88.6086438 87.2009918 86.4765223
v 90.2027533 86.7523940 85.7225007
v 90.8951189 87.1902111 85.3996002
v 90.0639112 87.3695263 85.4074975
v 88.9411741 87.1867758 86.0780212
v 88.5845570 87.8255922 86.0818504
v 89.5325352 87.1399440 85.7048843
v 88.2833221 87.8604811 86.4659786
v 89.3154583 87.5494686 85.6104960
v 89.0469025 88.0706871 85.6056370
v 89.5244161 87.9240197 85.3996175
v 88.5081166 89.1836301 86.0254844
v 88.4921024 89.9574971 86.4548724
v 88.5699829 90.1955118 86.5762142
v 88.6783342 90.1421224 86.3596811
v 88.7000212 90.2780100 86.4571908
v 88.7313989 90.4113759 86.5762142
v 88.8338541 90.3474795 86.3596811
v 88.8692038 90.4862389 86.4636297
v 88.8032581 89.7525765 85.9449107
v 88.9191337 90.4440929 86.3596811
v 88.8515236 90.1446025 86.1531083
v 88.9134940 90.6101554 86.5762142
v 89.0091131 90.5363498 86.3596811
v 89.0529999 90.5783660 86.3598222
v 88.9310114 89.9698241 85.9636027
v 89.1036214 90.6240793 86.3596811
v 89.1070349 89.9803720 85.8222204
v 89.2024022 90.7069397 86.3596811
v 89.2485338 90.7429640 86.3595687
v 89.1613813 90.7276369 86.4106715
v 89.1030233 89.5102481 85.6379553
v 89.3051992 90.7847601 86.3596811
v 89.2001734 89.4973682 85.5728250
v 89.1432705 90.2360878 85.9636027
v 89.1461758 89.5944752 85.6379553
v 89.0131293 90.3360328 86.1543984
v 89.1183488 90.3908255 86.1023544
v 89.5137140 91.0049922 86.4730434
v 89.2226540 90.3174106 85.9636027
v 89.5216454 90.9245976 86.3596811
v 89.2638411 90.3566197 85.9636027
v 89.3887869 89.4988709 85.4671891
v 89.3059683 90.3947184 85.9636027
v 89.0741410 89.8564677 85.7906844
v 89.2448711 89.7559248 85.6379553
v 89.1977879 90.5173005 86.1543984
v 89.4256899 90.3288655 85.8344510
v 89.3930423 90.4678406 85.9636027
v 89.3000722 89.8327201 85.6379553
v 89.2911853 90.5956334 86.1543984
v 89.4231855 89.8243731 85.5672871
v 89.2922107 89.4191017 85.5072648
v 89.4890887 89.3241967 85.4000000
v 89.4192401 90.6031435 86.0603754
v 89.4837053 90.5364353 85.9636027
v 89.3591185 89.9067819 85.6379553
v 89.3759522 90.6602987 86.1543984
v 89.3744141 89.9248062 85.6379553
v 89.5225853 89.3893745 85.4000000
v 89.4057745 89.9602568 85.6379553
v 89.3305780 89.4940177 85.5072648
v 89.4217537 89.9777685 85.6379553
v 89.2767442 90.1122244 85.7906844
v 89.4379893 89.9950239 85.6379553
v 89.3134097 90.1510288 85.7908078
v 89.4709732 90.0289369 85.6379553
v 89.5297557 90.6889555 86.0700503
v 89.6746018 90.6597007 85.9636027
v 89.3404903 90.1779147 85.7906844
v 89.4878924 90.0455090 85.6379553
v 89.5048971 90.0619956 85.6379553
v 89.5989781 89.5144338 85.4000000
v 89.5928257 90.8012467 86.1543984
v 89.5396754 90.0942001 85.6379553
v 89.7904906 90.4971460 85.7693671
v 89.4183357 89.6376139 85.5072648
v 89.7743226 90.7140298 85.9636027
v 89.5572782 90.1099179 85.6379553
v 89.4363658 89.6634971 85.5072648
v 89.6417888 89.5739737 85.4000000
v 89.6269431 90.0649757 85.5811690
v 89.4611464 89.6974954 85.5072648
v 89.4963520 90.3173251 85.7906844
v 89.6298257 90.1708246 85.6379553
v 89.6875048 89.6312926 85.4000000
v 89.6057656 90.2879972 85.7133883
v 89.5199364 89.7718135 85.5072648
v 89.5794099 90.3809653 85.7906844
v 89.7053640 90.2280580 85.6379553
v 89.7271075 90.2639127 85.6394145
v 89.5544584 89.8115352 85.5072648
v 89.7359553 89.6863050 85.4000000
v 89.5756501 89.8349411 85.5072648
v 89.6120520 89.8729544 85.5072648
v 89.7871401 89.7387548 85.4000000
v 89.6345255 89.8952498 85.5072648
v 89.7543271 90.4955176 85.7906844
v 89.8644729 90.3307365 85.6379553
v 89.6727219 89.9313838 85.5072648
v 89.8408885 89.7886418 85.4000000
v 89.6962208 89.9524833 85.5072648
v 89.9475308 90.3760108 85.6379553
v 89.8573805 90.5519823 85.7906844
v 89.8970295 89.8357099 85.4000000
v 90.1112069 90.8138210 85.9058988
v 89.7526181 90.0000639 85.5072648
v 89.7797790 90.0216836 85.5072716
v 89.9554777 89.8799591 85.4000000
v 89.8194404 90.0514032 85.5072648
v 90.0160621 89.9213038 85.4000000
v 90.0786119 89.9594879 85.4000000
v 89.9603484 90.1436601 85.5072648
v 89.9887005 90.1599204 85.5072862
v 90.1429561 89.9945968 85.4000000
v 90.0340067 90.1843214 85.5072648
v 91.7879641 89.2487681 85.4000000
v 90.8137427 89.8112789 85.4000000
v 91.7879641 88.1238319 85.4000000
v 89.8394359 89.2487681 85.4000000
v 90.8137427 87.5613211 85.4000000
v 89.8394359 88.1238319 85.4000000
v 89.8394359 89.2487681 86.2000168
v 90.8137427 89.8112789 86.2000168
v 89.8394359 88.1238319 86.2000168
v 90.8137427 87.5613211 86.2000168
v 91.7879641 88.1238319 86.2000168
v 91.7879641 89.2487681 86.2000168
v 91.6359013 87.5240858 94.8981661
v 91.1728423 87.3231193 94.9873368
v 91.7993635 87.6587543 95.0375402
v 92.1844142 88.3454423 95.0908925
v 92.1545971 89.1279917 95.0273184
v 92.2073841 88.8773935 95.1266256
v 91.8251656 89.6771165 95.0983953
v 92.0615842 89.3312191 95.1250488
v 91.5281274 89.9013840 95.1148565
v 91.4100165 89.9529104 95.1063874
v 91.3562681 89.9769142 95.1250355
v 91.2933765 90.0016015 95.1250355
v 91.2292886 90.0231281 95.1250355
v 91.1643462 90.0416649 95.1250355
v 90.8109868 89.7931879 87.4006636
v 90.7307571 87.5776257 87.7082141
v 91.3460875 87.7020962 87.7639844
v 91.7161019 89.3776076 87.9326580
v 89.8930394 89.3228748 88.1212316
v 89.6894246 88.6651634 88.1803487
v 91.7798465 88.1305977 88.4436618
v 91.9255914 88.8169071 88.5090754
v 91.5882187 89.4958011 88.5745291
v 90.0932982 87.8352014 88.8926346
v 91.2692793 87.6571340 89.0082647
v 91.7615747 89.2643155 89.1762181
v 90.3911679 89.7158136 89.3173167
v 90.4441633 87.6412313 89.5538611
v 90.3666806 89.7072798 87.4402947
v 90.0949089 89.9016038 87.1997713
v 89.9426154 89.3697788 87.4885717
v 89.4302389 88.9338303 87.2878890
v 89.7035779 88.8476785 87.5443360
v 89.4423387 88.3402073 87.3332402
v 89.7396859 87.7721997 87.3747866
v 89.8240206 88.1719277 87.6046634
v 90.2078145 87.7518915 87.6550816
v 91.7212763 87.6133805 87.5322922
v 92.0344448 87.9844504 87.5640318
v 91.7853254 88.1474533 87.8185578
v 91.9264069 88.6261358 87.8623784
v 91.0933765 89.7635962 87.9999995
v 89.5172133 89.2584264 87.8903412
v 89.7881048 87.7189899 88.0045182
v 89.8963260 88.0651105 88.2389041
v 90.4728156 87.6122500 88.3007447
v 91.2857787 87.6662136 88.3798654
v 91.9356367 89.5475184 88.3111836
v 91.4461004 89.9459598 88.3521600
v 90.8978590 89.8083417 88.6385713
v 90.1170804 89.5640053 88.7160751
v 89.4708427 89.1478614 88.5235349
v 89.7785816 89.0932852 88.7685039
v 89.7279742 88.4188654 88.8283034
v 89.7249686 87.7834092 88.6275658
v 90.5934696 87.5961304 88.9400452
v 91.5493542 87.4747413 88.7670030
v 91.8284771 88.2196345 89.0722437
v 91.9160250 88.8101118 89.1294074
v 91.4328395 89.6062948 89.2174807
v 90.9640083 89.7911898 89.2605951
v 90.5563976 90.0860265 89.0431919
v 89.8802502 89.3126094 89.3712679
v 89.4891119 89.1906467 89.1495491
v 89.6990059 88.6223069 89.4359449
v 89.9593341 87.9566377 89.5032896
v 90.3887419 90.0279143 87.6827646
v 89.9137880 89.7710307 87.7217534
v 89.5807012 89.3651175 87.7573338
v 91.2616358 87.3538683 87.9980402
v 92.0415898 87.9930208 88.0706047
v 90.3880857 89.7189934 88.0606519
v 89.6419217 89.4599098 88.3751759
v 89.4208730 88.5199784 88.4440729
v 89.9156047 87.6024230 88.5205355
v 90.3264771 87.3676095 88.5555324
v 91.9195270 89.5678478 88.8075353
v 90.2464768 89.9819128 88.9450307
v 89.6543283 89.5065072 88.9870538
v 89.4370620 88.9556264 89.0389005
v 89.6530171 87.8902089 89.1190176
v 89.9929775 87.5449492 89.1516532
v 91.8162635 87.7031670 89.2909943
v 92.1411339 88.1978043 89.3311935
v 89.5535989 89.3089325 89.6377355
v 89.4819188 88.2137436 89.7174961
v 91.4699313 87.7918201 89.6528063
v 91.9196393 88.7453987 89.7512023
v 91.7611251 89.2739674 89.8005001
v 90.5195309 89.7587329 89.9295327
v 89.7149777 88.5269130 90.0706932
v 91.9214261 88.5795881 90.3580413
v 91.5433450 89.5226959 90.4532989
v 90.4126282 89.7406254 90.5587312
v 90.3340310 87.6898967 90.7940647
v 90.4433888 89.7346014 91.1807818
v 91.8549951 88.2632507 91.5798794
v 91.8741226 89.0599454 91.6543260
v 91.5415493 89.5221130 91.7036483
v 90.9739401 87.5858608 89.6025694
v 91.3055145 87.3692183 89.8725544
v 91.8208541 88.2049244 89.6992592
v 91.7530529 89.7400323 90.0824350
v 91.1914387 89.7435626 89.8621025
v 91.2465602 90.0278468 90.1185819
v 90.0992075 89.5328901 89.9706902
v 89.7849786 89.1239880 90.0147842
v 89.4295001 88.9227174 90.2903984
v 89.9070390 88.0347426 90.1179450
v 90.3020469 87.7077904 90.1658889
v 90.8179939 87.5651452 90.2165180
v 91.3376718 87.3798886 90.5034365
v 91.6243266 87.8936171 90.2898898
v 91.8431869 87.7176986 90.5402678
v 91.8438391 89.1064793 90.4082347
v 91.5256121 89.9186530 90.7222121
v 91.0885780 89.7658995 90.4990135
v 90.7745750 90.0975499 90.7793903
v 89.9401673 89.3658289 90.6162233
v 89.7038816 88.8641987 90.6655156
v 89.8689225 88.0832754 90.7408567
v 90.7815384 87.5712295 90.8340985
v 91.3004927 87.6859780 90.8829812
v 91.8609033 88.2427142 90.9540448
v 91.8966162 88.9183945 91.0166149
v 91.6860599 89.3795156 91.0593701
v 91.1073825 89.7721729 91.1242687
v 89.9363501 89.3821191 91.2370177
v 89.5772457 89.3627532 91.5083996
v 89.4228559 88.8903900 91.5449581
v 89.4364019 88.3967103 91.5790652
v 89.8418828 88.1298612 91.3577560
v 89.6781490 87.8420972 91.6236680
v 90.2703946 87.7127045 91.4108331
v 90.8248035 87.5737366 91.4671662
v 91.3953325 87.7348902 91.5181314
v 90.6460656 89.7802171 91.7915819
v 90.2120290 89.6246558 91.8311541
v 90.6340812 87.5901485 92.0711710
v 89.7679459 89.0446919 92.5249592
v 89.7029321 88.5935129 92.5644949
v 90.2719463 87.7224555 92.6625332
v 91.6278177 89.4358551 92.9418422
v 91.3135018 87.6732352 93.3812141
v 90.2877801 89.6703131 93.6986173
v 89.8819131 88.0889259 93.8622926
v 91.1530719 89.7461066 91.7426493
v 89.7765922 89.1236154 91.8935104
v 89.7353129 88.4156599 91.9573474
v 89.6085841 87.9343474 92.2376537
v 90.0709476 87.8408606 92.0158316
v 91.1433908 87.6268026 92.1153693
v 91.1711956 87.3249347 92.3662661
v 91.6553571 87.5562160 92.4029483
v 91.6917588 87.9856640 92.1769661
v 92.0001531 87.9324875 92.4388167
v 92.1866940 88.3770907 92.4730603
v 91.9127074 88.5456872 92.2312830
v 92.1971908 88.9894652 92.5185584
v 91.8644181 89.0439752 92.2781168
v 91.5215770 89.5560044 92.3362827
v 90.9923153 89.7786736 92.3829123
v 90.8176653 90.0936263 92.6520604
v 90.5305144 89.7647077 92.4254046
v 90.3195235 90.0042804 92.6868101
v 90.0241743 89.4771424 92.4780307
v 89.9004377 88.0425432 92.6175680
v 90.5414000 87.3046886 92.9425943
v 90.7499939 87.5699726 92.7068342
v 91.2160481 87.6553154 92.7498520
v 91.6967337 88.0028276 92.8064606
v 91.9050700 88.5008947 92.8533645
v 91.8753166 89.0199819 92.8998646
v 91.2580528 89.7054567 92.9870801
v 90.7865349 89.7934994 93.0288422
v 90.1321965 89.5815213 93.0943113
v 89.7307002 88.9384643 93.1553303
v 89.7438178 88.3717187 93.2093425
v 90.0553063 87.8689683 93.2631534
v 90.5577796 87.6004272 93.3147340
v 91.9219007 88.8451229 93.5075386
v 92.2025066 88.4587626 93.7292886
v 92.1731824 89.0861170 93.7758112
v 91.6790761 89.3884760 93.5612156
v 91.2141237 89.7243339 93.6172200
v 89.6901540 88.6256894 93.8104554
v 90.3403941 87.6714783 95.1692374
v 90.9504901 87.5863096 95.2220853
v 90.9532312 87.4804883 95.3156845
v 91.5359475 87.8313072 95.2815342
v 91.4012890 87.6374655 95.3358704
v 91.8562808 88.3062588 95.3310856
v 91.8456728 88.1208999 95.3661502
v 91.9353030 88.8100330 95.3928002
v 91.8197003 89.1567975 95.4155125
v 90.0856153 87.4819552 94.1564260
v 90.7970379 87.5757066 93.9620507
v 91.2877203 87.6822093 94.0077067
v 91.8065137 88.1492424 94.0693905
v 92.0131816 87.9265347 94.3164564
v 92.1193511 89.2072848 94.4090616
v 91.7118436 89.3444417 94.1783865
v 91.8686610 89.6176761 94.4383603
v 90.6536698 89.7984611 94.2924670
v 90.0383924 89.4802312 94.3548771
v 89.7167414 88.5040355 94.4457376
v 89.9306651 88.0137305 94.4955376
v 90.2281375 87.7427175 94.5322898
v 90.3053587 87.3659630 94.7990254
v 90.6984611 87.5768980 94.5791486
v 91.4386243 87.7559111 94.6505617
v 92.1042213 88.1134277 94.9493434
v 92.2166720 88.6303537 94.9922304
v 91.2827209 89.6997841 94.8575901
v 91.2433880 89.9138720 95.0333364
v 90.7273276 90.0827937 95.1399270
v 89.9925773 89.4414868 94.9817081
v 89.7029913 88.6035572 95.0638823
v 89.8774084 88.0850082 95.1123575
v 89.5084430 88.5032255 95.2289095
v 89.8768977 87.8266530 95.2636574
v 91.8662404 88.7600876 95.5004288
v 91.5537203 87.9282291 95.5006108
v 90.4321682 87.4975154 95.2909453
v 90.1061074 87.9340600 95.5000652
v 89.8319849 88.3610081 95.5000304
v 89.8444949 89.1236304 95.5004716
v 89.5794355 89.1804282 95.2034320
v 89.9400737 89.7451944 95.1726722
v 90.3852138 89.6245544 95.5000545
v 90.9856840 89.7079536 95.5001944
v 91.1282861 89.9219018 95.2500237
v 91.5272657 89.4418251 95.5001737
v 90.7024816 87.6427847 95.5004699
v 89.5806802 88.0000783 93.6071916
v 90.2382079 87.7298567 93.9063148
v 91.9140426 88.7976894 94.1286288
v 91.2448394 89.7084517 94.2330621
v 91.2003455 90.0360832 93.9951434
v 89.7658472 89.0683008 94.3953686
v 89.4172407 88.9238054 94.1626938
v 90.6831544 87.2838448 94.3254884
v 91.8117742 88.2056227 94.6982644
v 91.9258011 88.7411176 94.7468935
v 91.7421316 89.2991503 94.8018017
v 90.5911845 89.7858502 94.9257415
v 89.9779717 89.8149242 94.7111273
v 89.7714631 89.0480724 95.0219333
v 89.5748974 89.3742890 91.6317858
v 92.0780933 88.0451367 91.9478632
v 91.9840980 89.4814412 92.0539806
v 91.5206911 89.9034966 92.0983269
v 90.2506179 89.9888620 92.1913187
v 89.4244203 88.4708511 92.3210863
v 90.0763809 87.4874155 92.4071091
v 91.1655514 87.3282740 92.4851527
v 90.3273955 90.0070651 92.8084098
v 91.8101171 88.1963312 93.4468756
v 91.4517389 89.9484115 93.3501615
v 90.7668392 89.7912708 93.6523974
v 90.3899351 90.0249504 93.4286013
v 89.8574361 89.2470560 93.7533373
v 89.4168687 88.5307410 93.5665740
v 91.9913377 89.4793451 89.5523437
v 89.5115945 89.2527017 89.7654704
v 89.6518426 87.8789906 89.8691793
v 90.0952596 87.4778320 89.9083946
v 89.5224611 89.2635810 90.3921980
v 89.4033024 88.5498037 90.4377520
v 91.0361554 87.2902899 90.6064869
v 91.5965632 87.5187808 90.6454584
v 91.9494690 87.8536310 90.6787896
v 89.7068522 88.7753350 91.2967666
v 89.7346808 87.7794071 91.1296942
v 90.6737140 87.2860473 91.2024240
f 4 2 1
f 4 1 3
f 531 4 3
f 532 3 5
f 532 531 3
f 6 532 5
f 6 5 7
f 8 6 7
f 10 8 7
f 10 7 9
f 12 10 9
f 12 9 11
f 14 12 11
f 14 11 13
f 14 13 16
f 15 14 16
f 18 14 15
f 18 15 560
f 17 16 13
f 523 16 17
f 18 560 561
f 20 18 561
f 22 17 19
f 22 523 17
f 536 20 561
f 536 561 562
f 21 22 19
f 525 22 21
f 536 562 23
f 25 536 23
f 525 21 24
f 527 525 24
f 28 25 23
f 28 23 26
f 527 24 27
f 528 527 27
f 537 28 29
f 528 27 30
f 32 528 30
f 34 537 29
f 31 34 29
f 2 30 1
f 2 32 30
f 33 34 31
f 35 34 33
f 26 29 28
f 563 35 33
f 37 35 563
f 37 563 36
f 38 37 36
f 564 38 36
f 41 38 564
f 39 41 564
f 40 41 39
f 42 41 40
f 541 42 40
f 43 541 40
f 542 541 43
f 44 542 43
f 46 542 44
f 45 46 44
f 48 46 45
f 47 48 45
f 49 48 47
f 566 49 47
f 545 49 566
f 50 545 566
f 52 545 50
f 567 52 50
f 51 52 567
f 548 52 51
f 568 548 51
f 53 548 568
f 569 53 568
f 55 53 569
f 54 55 569
f 550 55 54
f 56 550 54
f 57 550 56
f 59 550 57
f 59 57 58
f 61 59 58
f 61 58 60
f 62 61 60
f 570 62 60
f 64 62 570
f 63 64 570
f 65 64 63
f 555 65 63
f 66 555 63
f 571 555 66
f 67 555 571
f 572 67 571
f 557 67 572
f 573 557 572
f 69 557 573
f 68 69 573
f 70 69 68
f 574 70 68
f 575 70 574
f 72 70 575
f 71 72 575
f 74 72 71
f 73 74 71
f 76 74 73
f 76 73 75
f 77 76 75
f 77 75 576
f 78 77 576
f 78 576 577
f 80 78 577
f 80 577 79
f 81 80 79
f 757 81 79
f 82 757 79
f 84 757 82
f 83 84 82
f 86 84 83
f 85 86 83
f 87 86 85
f 88 87 85
f 89 87 88
f 758 89 88
f 578 758 88
f 90 758 578
f 91 758 90
f 579 91 90
f 759 91 579
f 759 579 92
f 760 759 92
f 94 760 92
f 93 94 92
f 95 94 93
f 95 93 594
f 95 594 96
f 97 95 96
f 98 97 96
f 98 96 99
f 101 98 99
f 100 101 99
f 102 101 100
f 596 102 100
f 103 102 596
f 104 103 596
f 598 104 596
f 106 104 598
f 105 106 598
f 108 106 105
f 107 108 105
f 110 108 107
f 109 110 107
f 761 110 109
f 601 761 109
f 762 761 601
f 111 762 601
f 113 762 111
f 112 113 111
f 115 113 112
f 114 115 112
f 116 115 114
f 117 116 114
f 763 116 117
f 763 117 605
f 764 763 605
f 764 605 607
f 765 764 607
f 118 765 607
f 119 765 118
f 122 119 118
f 120 122 118
f 121 122 120
f 123 122 121
f 124 123 121
f 609 124 121
f 125 124 609
f 611 125 609
f 127 125 611
f 126 127 611
f 129 127 126
f 128 129 126
f 132 129 128
f 130 132 128
f 132 130 131
f 134 132 131
f 134 131 133
f 767 134 133
f 767 133 135
f 136 767 135
f 137 136 135
f 768 136 137
f 140 137 138
f 140 768 137
f 139 140 138
f 142 140 139
f 141 142 139
f 143 142 141
f 145 143 141
f 144 145 141
f 147 145 144
f 146 147 144
f 148 147 146
f 149 148 146
f 150 148 149
f 150 149 151
f 152 150 151
f 154 152 151
f 153 154 151
f 155 154 153
f 742 155 153
f 622 742 153
f 623 742 622
f 156 742 623
f 624 156 623
f 626 156 624
f 158 156 626
f 157 158 626
f 159 158 157
f 162 159 157
f 162 157 160
f 161 162 160
f 165 162 161
f 163 165 161
f 164 165 163
f 743 165 164
f 166 743 164
f 167 743 166
f 167 166 168
f 744 167 168
f 169 744 168
f 745 744 169
f 170 745 169
f 172 745 170
f 171 172 170
f 746 172 171
f 173 746 171
f 175 746 173
f 175 173 174
f 177 174 176
f 177 175 174
f 747 177 176
f 643 747 176
f 178 747 643
f 748 178 643
f 179 748 643
f 181 748 179
f 180 181 179
f 646 181 180
f 749 181 646
f 182 749 646
f 647 182 646
f 649 182 647
f 183 182 649
f 650 183 649
f 184 183 650
f 652 184 650
f 186 184 652
f 186 652 185
f 188 186 185
f 188 185 187
f 188 187 656
f 189 188 656
f 750 656 658
f 750 189 656
f 191 658 190
f 191 750 658
f 193 191 190
f 193 190 192
f 196 192 194
f 196 193 192
f 196 194 195
f 198 196 195
f 197 198 195
f 199 198 197
f 661 199 197
f 201 199 661
f 200 201 661
f 203 201 200
f 202 203 200
f 205 203 202
f 204 205 202
f 206 205 204
f 207 206 204
f 209 206 207
f 208 209 207
f 211 209 208
f 210 211 208
f 752 211 210
f 212 752 210
f 214 752 212
f 214 212 213
f 754 214 213
f 754 213 215
f 217 754 215
f 217 215 216
f 218 217 216
f 218 216 219
f 756 218 219
f 756 219 220
f 728 756 220
f 221 728 220
f 224 728 221
f 222 224 221
f 224 222 223
f 226 224 223
f 225 226 223
f 228 226 225
f 227 228 225
f 229 228 227
f 230 228 229
f 231 230 229
f 675 231 229
f 232 231 675
f 676 232 675
f 233 232 676
f 234 233 676
f 235 233 234
f 732 235 234
f 236 732 234
f 238 732 236
f 237 238 236
f 240 238 237
f 239 240 237
f 241 240 239
f 734 241 239
f 242 734 239
f 244 734 242
f 243 244 242
f 245 244 243
f 247 245 243
f 689 247 243
f 246 247 689
f 735 247 246
f 249 735 246
f 248 249 246
f 693 249 248
f 250 249 693
f 252 250 693
f 252 693 251
f 253 252 251
f 253 251 694
f 254 253 694
f 254 694 696
f 256 254 696
f 256 696 255
f 258 256 255
f 258 255 257
f 259 258 257
f 259 257 260
f 740 259 260
f 263 740 260
f 263 260 261
f 263 261 262
f 265 263 262
f 265 262 264
f 267 265 264
f 267 264 266
f 268 267 266
f 268 266 702
f 270 268 702
f 269 270 702
f 19 17 271
f 271 17 273
f 272 19 271
f 272 21 19
f 273 17 275
f 274 21 272
f 17 13 275
f 274 24 21
f 275 13 277
f 13 11 277
f 276 24 274
f 276 27 24
f 277 11 278
f 11 9 278
f 9 280 278
f 27 279 30
f 276 279 27
f 7 280 9
f 7 282 280
f 30 281 1
f 279 281 30
f 5 282 7
f 5 284 282
f 281 283 1
f 5 285 284
f 1 283 3
f 283 286 3
f 5 286 285
f 3 286 5
f 287 274 272
f 288 287 272
f 289 288 272
f 289 272 271
f 290 289 271
f 291 290 271
f 293 292 271
f 293 271 273
f 294 293 273
f 294 273 275
f 295 294 275
f 296 295 275
f 296 275 277
f 297 296 277
f 297 277 278
f 298 297 278
f 298 278 280
f 298 280 282
f 299 298 282
f 299 282 284
f 300 299 284
f 300 284 285
f 301 300 285
f 301 285 286
f 302 301 286
f 303 302 286
f 303 286 283
f 304 303 283
f 304 283 281
f 305 304 281
f 306 281 279
f 306 305 281
f 307 306 279
f 307 279 276
f 308 307 276
f 308 276 274
f 309 308 274
f 287 309 274
f 287 310 309
f 309 312 373
f 313 375 312
f 310 377 309
f 309 377 312
f 288 310 287
f 313 312 311
f 294 295 315
f 315 295 316
f 315 471 314
f 296 316 295
f 315 316 471
f 317 471 316
f 320 319 471
f 296 318 316
f 317 316 321
f 471 317 320
f 318 321 316
f 319 320 323
f 296 322 318
f 297 322 296
f 322 321 318
f 298 322 297
f 322 324 321
f 321 325 317
f 317 325 328
f 320 326 323
f 317 326 320
f 298 327 322
f 324 325 321
f 328 326 317
f 328 325 329
f 329 325 331
f 327 324 322
f 327 333 324
f 325 337 331
f 324 337 325
f 326 328 330
f 299 327 298
f 328 332 330
f 329 332 328
f 332 332 330
f 329 332 332
f 330 332 334
f 331 332 329
f 299 335 327
f 332 331 334
f 333 337 324
f 331 337 336
f 335 333 327
f 335 338 333
f 331 336 334
f 334 336 341
f 300 335 299
f 300 342 335
f 336 337 339
f 338 337 333
f 338 339 337
f 335 340 338
f 342 340 335
f 301 342 300
f 339 341 336
f 301 345 342
f 340 346 338
f 338 346 339
f 339 344 341
f 302 345 301
f 345 343 342
f 342 343 340
f 340 343 346
f 346 344 339
f 303 345 302
f 303 348 345
f 343 350 346
f 346 349 344
f 345 347 343
f 343 347 350
f 348 347 345
f 350 349 346
f 304 348 303
f 344 349 352
f 304 354 348
f 348 351 347
f 347 351 355
f 347 355 350
f 350 352 349
f 305 354 304
f 354 351 348
f 355 352 350
f 353 355 360
f 305 356 354
f 354 361 351
f 353 352 355
f 355 359 360
f 351 359 355
f 306 356 305
f 352 358 357
f 353 358 352
f 353 358 358
f 358 358 357
f 360 358 353
f 358 360 357
f 357 360 368
f 356 361 354
f 306 362 356
f 360 359 363
f 361 359 351
f 362 361 356
f 362 364 361
f 307 362 306
f 307 365 362
f 360 363 368
f 359 367 363
f 361 367 359
f 364 367 361
f 365 364 362
f 307 366 365
f 308 366 307
f 365 370 364
f 368 363 369
f 364 372 367
f 367 369 363
f 366 370 365
f 308 373 366
f 370 372 364
f 372 369 367
f 373 370 366
f 309 373 308
f 373 371 370
f 370 374 372
f 372 374 369
f 369 374 376
f 371 374 370
f 373 312 371
f 371 375 374
f 312 375 371
f 374 375 376
f 376 375 313
f 377 310 378
f 288 378 310
f 289 378 288
f 289 379 378
f 378 379 380
f 289 379 379
f 379 379 380
f 289 381 379
f 379 381 380
f 290 381 289
f 291 381 290
f 312 377 311
f 378 385 377
f 381 382 383
f 291 382 381
f 291 382 382
f 382 382 383
f 382 384 383
f 291 384 382
f 271 384 291
f 292 384 271
f 378 387 385
f 384 388 389
f 292 388 384
f 388 388 389
f 292 388 388
f 389 396 390
f 388 396 389
f 292 396 388
f 293 396 292
f 385 387 391
f 380 387 378
f 390 396 392
f 381 387 380
f 391 387 393
f 394 396 395
f 377 385 311
f 311 385 397
f 383 387 381
f 397 385 399
f 395 396 398
f 384 387 383
f 398 396 404
f 393 387 400
f 399 385 401
f 384 402 387
f 386 402 384
f 387 402 400
f 401 385 408
f 386 402 402
f 402 402 400
f 293 404 396
f 384 403 386
f 386 403 402
f 402 403 400
f 389 403 384
f 405 403 407
f 390 403 389
f 406 404 314
f 407 403 409
f 408 410 411
f 391 410 385
f 385 410 408
f 391 410 410
f 410 410 411
f 392 403 390
f 391 393 410
f 410 393 411
f 392 412 403
f 403 412 409
f 392 412 412
f 396 412 392
f 409 412 413
f 412 412 409
f 412 396 413
f 413 396 414
f 415 393 417
f 396 416 414
f 394 416 396
f 395 416 394
f 416 416 414
f 394 416 416
f 315 404 294
f 314 404 315
f 294 404 293
f 395 420 416
f 416 420 414
f 311 418 313
f 313 418 419
f 397 418 311
f 417 393 422
f 397 418 418
f 418 418 419
f 399 418 397
f 420 423 421
f 398 423 395
f 395 423 420
f 422 393 424
f 418 399 419
f 419 399 425
f 423 423 421
f 398 423 423
f 398 433 423
f 423 433 421
f 404 433 398
f 424 393 426
f 399 427 425
f 401 427 399
f 426 393 428
f 427 427 425
f 401 427 427
f 408 427 401
f 400 429 393
f 393 429 428
f 428 429 430
f 400 429 429
f 429 429 428
f 427 408 425
f 403 431 400
f 429 431 430
f 400 431 429
f 430 431 432
f 405 435 403
f 432 435 436
f 431 435 432
f 403 435 431
f 405 435 435
f 435 435 436
f 406 433 404
f 405 413 435
f 435 413 436
f 436 413 437
f 433 439 434
f 406 439 433
f 439 439 434
f 406 439 439
f 314 439 406
f 407 413 405
f 437 413 440
f 434 314 441
f 439 314 434
f 411 442 408
f 408 442 438
f 441 314 443
f 409 413 407
f 440 413 444
f 411 442 442
f 442 442 438
f 393 442 411
f 444 413 447
f 442 445 438
f 393 445 442
f 438 445 446
f 443 314 471
f 415 448 393
f 393 448 445
f 445 448 446
f 415 448 448
f 448 448 446
f 447 449 450
f 413 449 447
f 414 449 413
f 415 417 448
f 448 417 446
f 449 449 450
f 414 449 449
f 449 452 450
f 414 452 449
f 446 417 451
f 420 452 414
f 417 453 451
f 422 453 417
f 452 454 455
f 420 454 452
f 421 454 420
f 453 453 451
f 424 453 422
f 422 453 453
f 421 454 454
f 454 454 455
f 421 456 454
f 454 456 455
f 433 456 421
f 453 457 451
f 426 457 424
f 451 457 458
f 424 457 453
f 457 457 458
f 428 457 426
f 426 457 457
f 428 459 457
f 457 459 458
f 428 459 459
f 459 459 458
f 430 459 428
f 459 460 458
f 430 460 459
f 458 460 461
f 432 460 430
f 432 460 460
f 436 460 432
f 460 460 461
f 436 462 460
f 460 462 461
f 433 463 456
f 456 463 464
f 434 463 433
f 436 462 462
f 462 462 461
f 437 462 436
f 463 463 464
f 434 463 463
f 463 441 464
f 434 441 463
f 440 465 437
f 461 465 466
f 437 465 462
f 462 465 461
f 465 465 466
f 444 465 440
f 440 465 465
f 465 467 466
f 444 467 465
f 444 467 467
f 467 467 466
f 447 467 444
f 441 469 468
f 443 469 441
f 469 469 468
f 468 469 319
f 443 469 469
f 443 471 469
f 469 471 319
f 467 447 466
f 466 447 470
f 450 472 447
f 447 472 470
f 472 472 470
f 450 472 472
f 472 473 470
f 452 473 450
f 450 473 472
f 470 473 474
f 455 475 452
f 452 475 473
f 473 475 474
f 475 475 474
f 455 475 475
f 475 456 474
f 455 456 475
f 474 456 476
f 476 456 477
f 464 478 456
f 456 478 477
f 464 478 478
f 478 478 477
f 464 479 478
f 441 479 464
f 478 479 477
f 477 479 480
f 479 481 480
f 441 481 479
f 468 481 441
f 481 481 480
f 468 481 481
f 481 319 480
f 468 319 481
f 480 319 323
f 344 482 341
f 341 482 334
f 334 482 330
f 330 482 326
f 482 483 326
f 326 483 323
f 483 480 323
f 483 477 480
f 344 484 482
f 344 352 484
f 477 485 476
f 476 485 474
f 474 485 470
f 470 485 466
f 466 485 461
f 461 485 458
f 458 485 451
f 451 485 446
f 446 485 438
f 483 485 477
f 485 408 438
f 485 425 408
f 485 419 425
f 485 313 419
f 368 486 357
f 357 486 352
f 352 486 484
f 485 487 313
f 487 376 313
f 368 369 486
f 486 369 487
f 369 376 487
f 485 483 488
f 488 483 489
f 487 485 490
f 490 485 488
f 486 487 491
f 491 487 490
f 484 486 492
f 492 486 491
f 482 484 493
f 493 484 492
f 483 482 489
f 489 482 493
f 491 489 493
f 491 493 492
f 490 488 489
f 490 489 491
f 495 270 269
f 494 495 269
f 496 495 494
f 496 494 705
f 497 496 705
f 497 705 706
f 499 497 706
f 499 706 498
f 501 499 498
f 500 501 498
f 504 502 503
f 504 503 504
f 505 504 504
f 505 504 505
f 506 505 505
f 506 505 506
f 507 506 506
f 4 509 2
f 531 533 510
f 41 514 38
f 61 551 59
f 64 519 62
f 555 554 65
f 557 556 67
f 70 559 69
f 523 522 16
f 16 522 508
f 524 523 22
f 522 523 524
f 526 524 22
f 22 525 526
f 526 527 529
f 525 527 526
f 529 527 528
f 529 528 530
f 530 528 32
f 509 530 32
f 32 2 509
f 4 510 509
f 4 531 510
f 531 532 533
f 532 6 533
f 533 6 534
f 534 8 511
f 6 8 534
f 8 10 511
f 10 12 511
f 511 14 535
f 12 14 511
f 565 14 18
f 535 14 565
f 18 20 565
f 565 20 512
f 20 536 512
f 536 513 512
f 25 513 536
f 28 513 25
f 537 538 28
f 28 538 513
f 538 537 539
f 539 537 34
f 539 35 540
f 34 35 539
f 35 37 540
f 37 38 540
f 540 38 514
f 514 41 515
f 41 42 515
f 42 541 515
f 515 541 516
f 516 541 542
f 543 542 46
f 516 542 543
f 46 48 543
f 543 48 544
f 48 49 544
f 49 545 544
f 544 545 546
f 546 545 547
f 547 545 52
f 547 548 517
f 52 548 547
f 517 548 53
f 55 549 53
f 53 549 517
f 549 55 518
f 55 550 518
f 551 550 59
f 518 550 551
f 551 61 552
f 552 62 519
f 61 62 552
f 519 64 553
f 64 65 553
f 553 65 554
f 520 554 555
f 520 555 67
f 67 556 520
f 558 557 69
f 556 557 558
f 559 558 69
f 70 72 559
f 559 72 521
f 508 15 16
f 530 31 29
f 509 33 31
f 510 36 563
f 533 36 510
f 511 44 43
f 512 566 47
f 538 568 51
f 539 54 569
f 515 60 58
f 543 571 66
f 556 90 578
f 522 560 508
f 508 560 15
f 524 561 522
f 522 561 560
f 524 562 561
f 526 562 524
f 562 526 23
f 529 23 526
f 26 23 529
f 29 26 529
f 529 530 29
f 31 530 509
f 509 563 33
f 510 563 509
f 533 564 36
f 533 534 564
f 564 534 39
f 534 40 39
f 511 40 534
f 43 40 511
f 511 535 44
f 535 45 44
f 565 45 535
f 45 565 47
f 47 565 512
f 50 566 512
f 512 513 50
f 51 567 513
f 513 567 50
f 538 51 513
f 539 568 538
f 539 569 568
f 54 539 540
f 540 56 54
f 57 540 514
f 56 540 57
f 58 57 514
f 515 58 514
f 515 570 60
f 516 570 515
f 63 570 516
f 543 63 516
f 543 66 63
f 544 571 543
f 544 572 571
f 544 546 572
f 546 573 572
f 68 573 547
f 547 573 546
f 517 574 547
f 547 574 68
f 517 575 574
f 517 71 575
f 549 71 517
f 73 549 518
f 71 549 73
f 73 518 75
f 551 576 518
f 518 576 75
f 551 577 576
f 552 577 551
f 79 577 552
f 519 79 552
f 79 519 82
f 519 553 82
f 82 553 83
f 553 554 83
f 520 85 554
f 554 85 83
f 85 520 88
f 556 88 520
f 556 578 88
f 556 558 90
f 559 579 558
f 558 579 90
f 579 559 92
f 92 559 521
f 521 93 92
f 580 594 593
f 595 99 96
f 582 100 581
f 582 596 100
f 584 601 600
f 585 120 118
f 586 121 608
f 587 128 126
f 621 622 153
f 766 622 621
f 766 624 623
f 593 93 521
f 593 594 93
f 594 580 96
f 580 595 96
f 99 595 581
f 99 581 100
f 597 596 582
f 597 598 596
f 105 597 583
f 598 597 105
f 105 583 107
f 583 599 107
f 107 599 109
f 599 600 109
f 600 601 109
f 584 111 601
f 584 602 111
f 111 602 112
f 603 112 602
f 114 112 603
f 114 603 604
f 114 604 117
f 606 605 604
f 604 605 117
f 606 607 605
f 118 607 606
f 606 585 118
f 121 585 608
f 121 120 585
f 586 609 121
f 610 609 586
f 611 610 587
f 610 611 609
f 587 126 611
f 128 587 612
f 130 612 613
f 128 612 130
f 131 130 613
f 133 131 614
f 614 131 613
f 133 614 135
f 588 135 614
f 137 588 615
f 135 588 137
f 138 137 615
f 615 616 138
f 617 139 616
f 616 139 138
f 617 141 139
f 144 141 617
f 617 618 144
f 618 619 144
f 144 619 146
f 149 619 620
f 146 619 149
f 151 149 620
f 151 620 589
f 589 153 151
f 589 621 153
f 766 623 622
f 625 624 766
f 625 626 624
f 625 627 626
f 626 627 157
f 160 157 628
f 628 157 627
f 160 628 161
f 629 161 628
f 163 161 629
f 164 629 590
f 163 629 164
f 166 590 591
f 164 590 166
f 166 591 168
f 169 591 592
f 168 591 169
f 645 180 632
f 645 646 180
f 634 194 192
f 634 195 194
f 660 197 195
f 751 229 637
f 755 242 239
f 639 243 679
f 592 640 169
f 169 640 170
f 171 640 630
f 170 640 171
f 173 630 631
f 171 630 173
f 631 641 173
f 173 641 174
f 174 641 176
f 642 176 641
f 644 643 642
f 642 643 176
f 179 643 644
f 180 644 632
f 179 644 180
f 648 647 645
f 645 647 646
f 648 649 647
f 648 650 649
f 651 650 648
f 651 652 650
f 653 652 651
f 185 653 654
f 652 653 185
f 655 187 654
f 654 187 185
f 657 656 655
f 655 656 187
f 657 658 656
f 657 659 658
f 658 659 190
f 633 190 659
f 192 190 633
f 192 633 634
f 634 660 195
f 635 197 660
f 661 635 662
f 197 635 661
f 200 661 662
f 662 663 200
f 200 663 202
f 664 202 663
f 202 664 204
f 664 665 204
f 204 665 207
f 208 207 666
f 666 207 665
f 210 666 636
f 208 666 210
f 667 210 636
f 210 667 212
f 667 668 212
f 212 668 213
f 215 213 669
f 669 213 668
f 669 216 215
f 670 216 669
f 670 219 216
f 670 671 219
f 219 671 220
f 221 671 672
f 220 671 221
f 222 221 672
f 672 673 222
f 222 673 223
f 637 223 673
f 225 223 637
f 227 225 637
f 229 227 637
f 751 675 229
f 674 675 751
f 674 676 675
f 674 677 676
f 676 677 234
f 678 234 677
f 234 678 236
f 753 236 678
f 237 236 753
f 753 638 237
f 755 239 638
f 638 239 237
f 755 679 242
f 243 242 679
f 712 714 713
f 680 714 712
f 681 682 717
f 681 684 682
f 683 684 681
f 683 686 684
f 685 686 683
f 685 687 686
f 729 243 639
f 729 689 243
f 729 690 689
f 689 690 246
f 246 691 248
f 690 691 246
f 692 248 691
f 692 693 248
f 692 251 693
f 730 251 692
f 695 694 730
f 730 694 251
f 695 696 694
f 731 696 695
f 731 255 696
f 731 697 255
f 255 697 257
f 698 260 697
f 697 260 257
f 260 698 261
f 733 261 698
f 733 262 261
f 733 699 262
f 262 699 264
f 699 700 264
f 264 700 266
f 701 702 700
f 700 702 266
f 701 703 702
f 702 703 269
f 704 269 703
f 269 704 494
f 736 705 704
f 704 705 494
f 737 706 736
f 736 706 705
f 738 498 737
f 737 498 706
f 498 738 500
f 500 707 502
f 738 707 500
f 502 708 503
f 503 708 504
f 504 708 505
f 505 708 506
f 506 708 507
f 507 708 507
f 507 708 709
f 707 708 502
f 707 709 708
f 739 709 707
f 739 722 709
f 739 710 722
f 721 722 710
f 710 741 721
f 741 711 721
f 721 711 713
f 711 712 713
f 717 714 680
f 681 717 680
f 688 726 715
f 687 688 715
f 686 687 715
f 686 715 716
f 717 682 727
f 717 727 718
f 718 714 717
f 714 718 719
f 719 713 714
f 713 719 720
f 721 713 720
f 722 721 720
f 722 720 723
f 723 709 722
f 709 723 724
f 725 507 709
f 725 709 724
f 725 506 507
f 725 507 507
f 502 724 726
f 724 506 725
f 724 504 505
f 724 505 506
f 502 504 724
f 500 502 726
f 726 501 500
f 688 501 726
f 688 499 501
f 684 686 716
f 684 716 727
f 682 684 727
f 639 728 729
f 224 729 728
f 224 226 729
f 729 226 690
f 690 228 691
f 226 228 690
f 691 228 692
f 228 230 692
f 230 231 692
f 692 231 730
f 232 730 231
f 233 730 232
f 730 233 695
f 235 695 233
f 695 235 731
f 732 731 235
f 731 732 697
f 732 238 697
f 238 240 697
f 697 240 698
f 240 241 698
f 734 733 241
f 241 733 698
f 733 734 699
f 244 699 734
f 244 245 699
f 699 245 700
f 247 700 245
f 700 247 701
f 701 247 703
f 247 735 703
f 703 249 704
f 735 249 703
f 249 250 704
f 250 736 704
f 250 252 736
f 736 252 737
f 253 737 252
f 254 738 253
f 253 738 737
f 256 738 254
f 738 256 707
f 256 258 707
f 258 739 707
f 258 259 739
f 739 740 710
f 259 740 739
f 263 710 740
f 263 741 710
f 265 741 263
f 741 265 711
f 711 267 712
f 265 267 711
f 267 268 712
f 712 268 680
f 268 270 680
f 680 270 681
f 495 681 270
f 681 495 683
f 496 683 495
f 497 685 496
f 496 685 683
f 685 497 687
f 687 499 688
f 497 499 687
f 162 645 632
f 749 662 181
f 184 665 183
f 188 667 186
f 205 751 637
f 754 753 214
f 728 639 679
f 148 150 592
f 592 150 640
f 150 152 640
f 640 152 630
f 152 154 630
f 630 154 631
f 154 155 631
f 155 742 631
f 631 742 641
f 641 742 156
f 156 642 641
f 158 642 156
f 644 642 158
f 158 159 644
f 644 159 632
f 159 162 632
f 165 645 162
f 645 165 648
f 165 743 648
f 651 743 167
f 648 743 651
f 651 167 653
f 653 744 654
f 167 744 653
f 654 744 745
f 655 654 172
f 172 654 745
f 657 655 172
f 172 746 657
f 657 746 659
f 659 746 175
f 633 659 175
f 175 177 633
f 633 177 634
f 177 747 634
f 747 178 634
f 634 178 660
f 748 660 178
f 635 660 748
f 662 748 181
f 635 748 662
f 663 749 182
f 662 749 663
f 663 182 664
f 182 183 664
f 664 183 665
f 665 184 666
f 666 186 636
f 184 186 666
f 667 636 186
f 667 189 668
f 188 189 667
f 668 750 669
f 189 750 668
f 750 191 669
f 669 193 670
f 191 193 669
f 196 670 193
f 196 671 670
f 672 196 198
f 671 196 672
f 198 199 672
f 672 199 673
f 673 201 637
f 199 201 673
f 201 203 637
f 205 637 203
f 206 751 205
f 674 206 209
f 751 206 674
f 674 211 677
f 209 211 674
f 752 677 211
f 678 677 752
f 678 752 214
f 214 753 678
f 638 754 217
f 753 754 638
f 638 217 755
f 218 755 217
f 755 218 679
f 679 218 756
f 679 756 728
f 74 521 72
f 76 580 593
f 81 582 581
f 87 583 86
f 91 584 600
f 98 606 97
f 102 608 101
f 102 586 608
f 124 619 123
f 132 766 621
f 521 74 593
f 74 76 593
f 76 77 580
f 77 78 580
f 580 78 595
f 595 80 581
f 78 80 595
f 80 81 581
f 81 757 582
f 582 757 597
f 597 757 84
f 84 86 597
f 597 86 583
f 87 89 583
f 583 89 599
f 599 758 600
f 89 758 599
f 600 758 91
f 91 759 584
f 584 759 602
f 602 759 603
f 603 759 760
f 603 760 604
f 604 760 94
f 604 95 606
f 94 95 604
f 95 97 606
f 606 101 585
f 98 101 606
f 585 101 608
f 102 103 586
f 103 104 586
f 586 104 610
f 610 106 587
f 104 106 610
f 106 108 587
f 108 110 587
f 587 110 612
f 110 761 612
f 612 761 613
f 613 761 762
f 613 762 614
f 762 113 614
f 113 115 614
f 614 115 588
f 115 116 588
f 588 116 615
f 116 763 615
f 615 763 616
f 616 763 764
f 617 764 765
f 616 764 617
f 617 765 119
f 617 119 122
f 617 122 618
f 618 123 619
f 122 123 618
f 619 124 620
f 124 125 620
f 620 127 589
f 125 127 620
f 129 589 127
f 589 129 621
f 132 621 129
f 132 134 766
f 766 134 625
f 134 767 625
f 625 767 627
f 627 767 136
f 768 627 136
f 628 627 768
f 628 768 140
f 628 140 629
f 629 142 590
f 140 142 629
f 142 143 590
f 143 145 590
f 590 145 591
f 145 147 591
f 148 591 147
f 592 591 148
f 719 727 716
f 719 718 727
f 719 716 715
f 720 719 715
f 720 726 724
f 720 724 723
f 720 715 726
