# Render LOD; unchanged CAD body-local coordinates in mm
v 18.7499313 48.0000137 99.4000000
v 17.7498627 49.0000320 99.4000000
v 18.7499313 57.9999863 99.4000000
v 17.7498627 56.9999680 99.4000000
v 4.2499771 56.9999680 99.4000000
v 2.9068322 56.4819547 99.4000000
v 1.2500687 57.9999863 99.4000000
v 2.9812200 56.5459693 99.4000000
v 3.0585832 56.6064042 99.4000000
v 3.1389220 56.6628382 99.4000000
v 3.2219387 56.7154818 99.4000000
v 3.3073358 56.7639139 99.4000000
v 3.3948157 56.8079240 99.4000000
v 3.4846761 56.8477226 99.4000000
v 3.5763218 56.8830991 99.4000000
v 3.6694553 56.9138430 99.4000000
v 3.7640764 56.9401648 99.4000000
v 3.8598878 56.9616434 99.4000000
v 3.9565919 56.9782788 99.4000000
v 4.0538911 56.9902815 99.4000000
v 4.1517853 56.9976516 99.4000000
v 2.8357176 56.4141497 99.4000000
v 2.7681735 56.3431861 99.4000000
v 2.7039025 56.2688533 99.4000000
v 2.6434997 56.1913619 99.4000000
v 2.5869650 56.1111330 99.4000000
v 2.5345960 56.0281666 99.4000000
v 2.4860952 55.9428840 99.4000000
v 2.4420577 55.8550744 99.4000000
v 2.4021859 55.7653696 99.4000000
v 2.3667773 55.6737697 99.4000000
v 2.3361295 55.5804852 99.4000000
v 2.3099451 55.4859373 99.4000000
v 2.2885214 55.3901259 99.4000000
v 2.2715610 55.2934722 99.4000000
v 2.2596590 55.1959762 99.4000000
v 2.2525177 55.0980591 99.4000000
v 2.2501373 54.9999313 99.4000000
v 4.2499771 49.0000320 99.4000000
v 1.2500687 48.0000137 99.4000000
v 4.1517853 49.0023484 99.4000000
v 4.0538911 49.0097185 99.4000000
v 3.9565919 49.0217212 99.4000000
v 3.8598878 49.0383566 99.4000000
v 3.7640764 49.0598352 99.4000000
v 3.6694553 49.0861570 99.4000000
v 3.5763218 49.1169009 99.4000000
v 3.4846761 49.1522774 99.4000000
v 3.3948157 49.1920760 99.4000000
v 3.3073358 49.2360861 99.4000000
v 3.2219387 49.2845182 99.4000000
v 3.1389220 49.3371618 99.4000000
v 3.0585832 49.3935958 99.4000000
v 2.9812200 49.4540307 99.4000000
v 2.9068322 49.5180453 99.4000000
v 2.8357176 49.5858503 99.4000000
v 2.7681735 49.6568139 99.4000000
v 2.7039025 49.7311467 99.4000000
v 2.6434997 49.8086381 99.4000000
v 2.5869650 49.8888670 99.4000000
v 2.5345960 49.9718334 99.4000000
v 2.4860952 50.0571160 99.4000000
v 2.4420577 50.1449256 99.4000000
v 2.4021859 50.2346304 99.4000000
v 2.3667773 50.3262303 99.4000000
v 2.3361295 50.4195148 99.4000000
v 2.3099451 50.5140627 99.4000000
v 2.2885214 50.6098741 99.4000000
v 2.2715610 50.7065278 99.4000000
v 2.2596590 50.8040238 99.4000000
v 2.2525177 50.9019409 99.4000000
v 2.2501373 51.0000687 99.4000000
v 4.2499771 49.0000320 102.2000000
v 17.7498627 49.0000320 102.2000000
v 4.2499771 48.7999863 102.3999542
v 17.7498627 48.7999863 102.3999542
v 6.7500000 57.6001053 102.3999542
v 13.2500000 57.6001053 102.3999542
v 13.2500000 59.0000046 102.3999542
v 6.7500000 59.0000046 102.3999542
v 1.6499771 57.6001053 102.3999542
v 3.8209087 57.1576883 102.3999542
v 3.9271344 57.1762188 102.3999542
v 3.7155756 57.1341039 102.3999542
v 3.6114328 57.1052552 102.3999542
v 3.5087778 57.0713527 102.3999542
v 3.4082055 57.0326070 102.3999542
v 3.3094186 56.9888075 102.3999542
v 3.2130121 56.9401648 102.3999542
v 3.1189860 56.8871000 102.3999542
v 3.0276379 56.8291920 102.3999542
v 2.9395628 56.7670726 102.3999542
v 2.8544633 56.7005310 102.3999542
v 2.7726368 56.6299886 102.3999542
v 2.6943809 56.5556558 102.3999542
v 2.6199931 56.4775326 102.3999542
v 2.5494736 56.3956191 102.3999542
v 2.4828222 56.3105470 102.3999542
v 2.4206340 56.2223163 102.3999542
v 2.3629091 56.1309270 102.3999542
v 2.3096475 56.0370108 102.3999542
v 2.2611467 55.9405676 102.3999542
v 2.2174067 55.8418082 102.3999542
v 2.1787251 55.7411536 102.3999542
v 2.1448043 55.6386038 102.3999542
v 2.1159419 55.5345800 102.3999542
v 2.0921378 55.4292927 102.3999542
v 2.0736896 55.3227420 102.3999542
v 2.0605974 55.2155596 102.3999542
v 2.0525635 55.1079561 102.3999542
v 2.0498856 54.9999313 102.3999542
v 6.7500000 48.3998947 102.3999542
v 13.2500000 46.9999954 102.3999542
v 13.2500000 48.3998947 102.3999542
v 6.7500000 46.9999954 102.3999542
v 1.6499771 48.3998947 102.3999542
v 2.0525635 50.8920439 102.3999542
v 2.0498856 51.0000687 102.3999542
v 2.0605974 50.7844404 102.3999542
v 2.0736896 50.6772580 102.3999542
v 2.0921378 50.5707073 102.3999542
v 2.1159419 50.4654200 102.3999542
v 2.1448043 50.3613962 102.3999542
v 2.1787251 50.2588464 102.3999542
v 2.2174067 50.1581918 102.3999542
v 2.2611467 50.0594324 102.3999542
v 2.3096475 49.9629892 102.3999542
v 2.3629091 49.8690730 102.3999542
v 2.4206340 49.7776837 102.3999542
v 2.4828222 49.6894530 102.3999542
v 2.5494736 49.6043809 102.3999542
v 2.6199931 49.5224674 102.3999542
v 2.6943809 49.4443442 102.3999542
v 2.7726368 49.3700114 102.3999542
v 2.8544633 49.2994690 102.3999542
v 2.9395628 49.2329274 102.3999542
v 3.0276379 49.1708080 102.3999542
v 3.1189860 49.1129000 102.3999542
v 3.2130121 49.0598352 102.3999542
v 3.3094186 49.0111925 102.3999542
v 3.4082055 48.9673930 102.3999542
v 3.5087778 48.9286473 102.3999542
v 3.6114328 48.8947448 102.3999542
v 3.7155756 48.8658961 102.3999542
v 3.8209087 48.8423117 102.3999542
v 3.9271344 48.8237812 102.3999542
v 18.3500229 48.3998947 102.3999542
v 18.3500229 57.6001053 102.3999542
v 17.7498627 57.2000137 102.3999542
v 4.2499771 57.2000137 102.3999542
v 4.1419661 57.1972763 102.3999542
v 4.0342527 57.1894850 102.3999542
v 4.1419661 48.8027237 102.3999542
v 4.0342527 48.8105150 102.3999542
v 6.7500000 48.3998947 105.0000000
v 1.6499771 48.3998947 113.4000000
v 13.2500000 48.3998947 105.0000000
v 18.3500229 48.3998947 113.4000000
v 6.7500000 59.0000046 104.1998627
v 6.7500000 57.6001053 105.0000000
v 6.7500000 59.9000000 103.3000687
v 6.7500000 59.0000046 105.0000000
v 6.7500000 46.9999954 104.1998627
v 6.7500000 46.1000000 103.3000687
v 6.7500000 46.9999954 105.0000000
v 18.2500458 59.0000046 104.1998627
v 18.7499313 59.0000046 100.4000916
v 18.2500458 59.0000046 102.3999542
v 13.2500000 59.0000046 105.0000000
v 13.2500000 59.0000046 104.1998627
v 18.2500458 59.0000046 107.2001373
v 1.2500687 59.0000046 100.4000916
v 2.2501373 59.0000046 102.3999542
v 2.2501373 59.0000046 104.1998627
v 2.2501373 59.0000046 107.2001373
v 1.2500687 59.0000046 114.9999542
v 2.2501373 59.0000046 109.0000458
v 18.7499313 59.0000046 114.9999542
v 18.2500458 59.0000046 109.0000458
v 1.2500687 59.0000046 118.9000229
v 17.0000343 59.0000046 118.9000229
v 17.0000343 59.0000046 117.4000458
v 1.2500687 59.0000046 117.4000458
v 2.2501373 59.9000000 108.0999313
v 18.2500458 59.9000000 108.0999313
v 2.2501373 59.9000000 103.3000687
v 13.2500000 59.9000000 103.3000687
v 18.2500458 59.9000000 103.3000687
v 13.2500000 57.6001053 105.0000000
v 13.2500000 46.9999954 105.0000000
v 13.2500000 46.9999954 104.1998627
v 13.2500000 46.1000000 103.3000687
v 18.3500229 57.6001053 113.4000000
v 1.6499771 57.6001053 113.4000000
v 1.6499771 53.7000549 108.3998627
v 1.6499771 52.2999451 108.3998627
v 1.6499771 53.7000549 113.4000000
v 1.6499771 52.2999451 113.4000000
v 0.2500000 52.2999451 108.3998627
v 0.2500000 53.7000549 108.3998627
v 19.7500000 53.7000549 108.3998627
v 18.3500229 53.7000549 108.3998627
v 18.3500229 52.2999451 108.3998627
v 19.7500000 52.2999451 108.3998627
v 0.2500000 52.2999451 114.9999542
v 2.9999657 52.2999451 114.9999542
v 4.8590639 52.2999451 113.4000000
v 2.9999657 52.2999451 117.4000458
v 0.2500000 52.2999451 117.4000458
v 0.2500000 52.2999451 120.4000000
v 4.8590639 52.2999451 120.4000000
v 14.7392424 54.5608835 120.4000000
v 17.0000343 57.5000824 120.4000000
v 14.6615816 54.6411124 120.4000000
v 14.5800526 54.7173404 120.4000000
v 14.8130350 54.4770748 120.4000000
v 14.4949531 54.7893568 120.4000000
v 14.8826619 54.3898970 120.4000000
v 17.0000343 53.7000549 120.4000000
v 14.4065805 54.8573724 120.4000000
v 14.9478256 54.2993500 120.4000000
v 14.3146372 54.9209659 120.4000000
v 15.0085260 54.2058549 120.4000000
v 14.2200160 54.9801373 120.4000000
v 15.0647631 54.1094118 120.4000000
v 14.1227169 55.0344656 120.4000000
v 15.1162394 54.0104417 120.4000000
v 14.0227398 55.0841611 120.4000000
v 15.1626574 53.9089448 120.4000000
v 13.9206798 55.1288029 120.4000000
v 15.2043145 53.8053422 120.4000000
v 13.8162394 55.1686015 120.4000000
v 15.2409133 53.7000549 120.4000000
v 13.7103113 55.2031357 120.4000000
v 13.6025978 55.2326162 120.4000000
v 13.4936942 55.2568322 120.4000000
v 13.3836004 55.2755734 120.4000000
v 13.2729114 55.2892607 120.4000000
v 13.1616274 55.2972625 120.4000000
v 13.0500458 55.3000000 120.4000000
v 7.0499313 55.3000000 120.4000000
v 0.2500000 57.5000824 120.4000000
v 5.0352140 54.1094118 120.4000000
v 5.0914511 54.2058549 120.4000000
v 5.1521515 54.2993500 120.4000000
v 5.2176127 54.3898970 120.4000000
v 5.2869421 54.4770748 120.4000000
v 5.3607347 54.5608835 120.4000000
v 5.4383955 54.6411124 120.4000000
v 5.5199245 54.7173404 120.4000000
v 5.6050240 54.7893568 120.4000000
v 5.6933967 54.8573724 120.4000000
v 5.7853399 54.9209659 120.4000000
v 5.8799611 54.9801373 120.4000000
v 5.9772602 55.0344656 120.4000000
v 6.0772374 55.0841611 120.4000000
v 6.1795949 55.1288029 120.4000000
v 6.2837377 55.1686015 120.4000000
v 6.3899634 55.2031357 120.4000000
v 6.4973793 55.2326162 120.4000000
v 6.6062829 55.2568322 120.4000000
v 6.7163767 55.2755734 120.4000000
v 6.8270657 55.2892607 120.4000000
v 6.9383497 55.2972625 120.4000000
v 0.2500000 53.7000549 120.4000000
v 4.8590639 53.7000549 120.4000000
v 4.8956626 53.8053422 120.4000000
v 4.9373198 53.9089448 120.4000000
v 4.9837377 54.0104417 120.4000000
v 15.2043145 52.1946578 120.4000000
v 17.0000343 52.2999451 120.4000000
v 15.2409133 52.2999451 120.4000000
v 15.1626574 52.0910552 120.4000000
v 15.1162394 51.9895583 120.4000000
v 15.0647631 51.8905882 120.4000000
v 15.0085260 51.7941451 120.4000000
v 14.9478256 51.7006500 120.4000000
v 14.8826619 51.6101030 120.4000000
v 17.0000343 48.4999176 120.4000000
v 14.8130350 51.5229252 120.4000000
v 14.7392424 51.4391165 120.4000000
v 14.6615816 51.3588876 120.4000000
v 14.5800526 51.2826596 120.4000000
v 14.4949531 51.2106432 120.4000000
v 14.4065805 51.1426276 120.4000000
v 14.3146372 51.0790341 120.4000000
v 14.2200160 51.0198627 120.4000000
v 14.1227169 50.9655344 120.4000000
v 14.0227398 50.9158389 120.4000000
v 13.9206798 50.8711971 120.4000000
v 13.8162394 50.8313985 120.4000000
v 13.7103113 50.7968643 120.4000000
v 13.6025978 50.7673838 120.4000000
v 13.4936942 50.7431678 120.4000000
v 13.3836004 50.7244266 120.4000000
v 13.2729114 50.7107393 120.4000000
v 13.1616274 50.7027375 120.4000000
v 13.0500458 50.7000000 120.4000000
v 5.0352140 51.8905882 120.4000000
v 4.9837377 51.9895583 120.4000000
v 4.9373198 52.0910552 120.4000000
v 4.8956626 52.1946578 120.4000000
v 0.2500000 48.4999176 120.4000000
v 6.9383497 50.7027375 120.4000000
v 6.8270657 50.7107393 120.4000000
v 6.7163767 50.7244266 120.4000000
v 6.6062829 50.7431678 120.4000000
v 6.4973793 50.7673838 120.4000000
v 6.3899634 50.7968643 120.4000000
v 6.2837377 50.8313985 120.4000000
v 6.1795949 50.8711971 120.4000000
v 6.0772374 50.9158389 120.4000000
v 5.9772602 50.9655344 120.4000000
v 5.8799611 51.0198627 120.4000000
v 5.7853399 51.0790341 120.4000000
v 5.6933967 51.1426276 120.4000000
v 5.6050240 51.2106432 120.4000000
v 5.5199245 51.2826596 120.4000000
v 5.4383955 51.3588876 120.4000000
v 5.3607347 51.4391165 120.4000000
v 5.2869421 51.5229252 120.4000000
v 5.2176127 51.6101030 120.4000000
v 5.1521515 51.7006500 120.4000000
v 5.0914511 51.7941451 120.4000000
v 7.0499313 50.7000000 120.4000000
v 17.0000343 46.9999954 117.4000458
v 17.0000343 49.0000320 117.4000458
v 17.0000343 46.9999954 118.9000229
v 17.0000343 49.0000320 114.9999542
v 17.0000343 52.2999451 114.9999542
v 17.0000343 56.9999680 114.9999542
v 17.0000343 56.9999680 117.4000458
v 17.0000343 53.7000549 114.9999542
v 2.9999657 49.0000320 117.4000458
v 2.9999657 49.0000320 114.9999542
v 0.4466812 47.4042985 114.9999542
v 0.4770314 47.3655528 114.9999542
v 0.5091669 47.3284916 114.9999542
v 0.4184138 47.4445182 114.9999542
v 0.6945411 47.1684550 114.9999542
v 0.5784962 47.2590021 114.9999542
v 0.6156901 47.2269947 114.9999542
v 0.6543717 47.1968826 114.9999542
v 0.7359007 47.1423438 114.9999542
v 0.5427901 47.2929046 114.9999542
v 0.3261730 47.6173999 114.9999542
v 0.3461089 47.5725475 114.9999542
v 0.3681277 47.5285374 114.9999542
v 0.3922293 47.4860014 114.9999542
v 0.8674182 47.0762234 114.9999542
v 0.7787480 47.1181277 114.9999542
v 0.8224880 47.0960174 114.9999542
v 1.0069696 47.0298970 114.9999542
v 0.9132410 47.0585351 114.9999542
v 0.9596590 47.0431632 114.9999542
v 1.1033761 47.0107347 114.9999542
v 1.0548753 47.0191577 114.9999542
v 0.2547608 47.9018860 114.9999542
v 0.2607118 47.8532433 114.9999542
v 0.2693408 47.8048112 114.9999542
v 0.2800526 47.7570108 114.9999542
v 0.2931449 47.7096315 114.9999542
v 0.3083200 47.6630945 114.9999542
v 0.2500000 48.0000137 114.9999542
v 0.2511902 47.9509499 114.9999542
v 1.2500687 46.9999954 114.9999542
v 1.1518769 47.0048386 114.9999542
v 1.2009728 47.0012589 114.9999542
v 18.7499313 46.9999954 114.9999542
v 18.9930304 47.0298970 114.9999542
v 18.7990272 47.0012589 114.9999542
v 18.8481231 47.0048386 114.9999542
v 18.8966239 47.0107347 114.9999542
v 18.9451247 47.0191577 114.9999542
v 19.0403410 47.0431632 114.9999542
v 19.0867590 47.0585351 114.9999542
v 19.1325818 47.0762234 114.9999542
v 19.1775120 47.0960174 114.9999542
v 19.2640993 47.1423438 114.9999542
v 19.2212520 47.1181277 114.9999542
v 19.3456283 47.1968826 114.9999542
v 19.3054589 47.1684550 114.9999542
v 19.4572099 47.2929046 114.9999542
v 19.3843099 47.2269947 114.9999542
v 19.4215038 47.2590021 114.9999542
v 19.5229686 47.3655528 114.9999542
v 19.4908331 47.3284916 114.9999542
v 19.5533188 47.4042985 114.9999542
v 19.5815862 47.4445182 114.9999542
v 19.6077707 47.4860014 114.9999542
v 19.6538911 47.5725475 114.9999542
v 19.6318723 47.5285374 114.9999542
v 19.7068551 47.7096315 114.9999542
v 19.6738270 47.6173999 114.9999542
v 19.6916800 47.6630945 114.9999542
v 19.7392882 47.8532433 114.9999542
v 19.7199474 47.7570108 114.9999542
v 19.7306592 47.8048112 114.9999542
v 19.7488098 47.9509499 114.9999542
v 19.7452392 47.9018860 114.9999542
v 19.7500000 48.0000137 114.9999542
v 19.7500000 52.2999451 114.9999542
v 0.2547608 58.0981140 114.9999542
v 0.2511902 58.0490501 114.9999542
v 0.2500000 57.9999863 114.9999542
v 0.2800526 58.2429892 114.9999542
v 0.2693408 58.1951888 114.9999542
v 0.2607118 58.1467567 114.9999542
v 0.3083200 58.3369055 114.9999542
v 0.2931449 58.2903685 114.9999542
v 0.3261730 58.3826001 114.9999542
v 0.3461089 58.4274525 114.9999542
v 0.3922293 58.5139986 114.9999542
v 0.3681277 58.4714626 114.9999542
v 0.4184138 58.5554818 114.9999542
v 0.5427901 58.7070954 114.9999542
v 0.5091669 58.6715084 114.9999542
v 0.4770314 58.6344472 114.9999542
v 0.4466812 58.5957015 114.9999542
v 0.6156901 58.7730053 114.9999542
v 0.5784962 58.7409979 114.9999542
v 0.6945411 58.8315450 114.9999542
v 0.6543717 58.8031174 114.9999542
v 0.7359007 58.8576562 114.9999542
v 0.8224880 58.9039826 114.9999542
v 0.7787480 58.8818723 114.9999542
v 0.9596590 58.9568368 114.9999542
v 0.9132410 58.9414649 114.9999542
v 0.8674182 58.9237766 114.9999542
v 1.0069696 58.9701030 114.9999542
v 2.9999657 56.9999680 114.9999542
v 0.2500000 53.7000549 114.9999542
v 2.9999657 53.7000549 114.9999542
v 1.1033761 58.9892653 114.9999542
v 1.0548753 58.9808423 114.9999542
v 1.2009728 58.9987411 114.9999542
v 1.1518769 58.9951614 114.9999542
v 19.7500000 53.7000549 114.9999542
v 19.7500000 57.9999863 114.9999542
v 19.7452392 58.0981140 114.9999542
v 19.7488098 58.0490501 114.9999542
v 19.7392882 58.1467567 114.9999542
v 18.9451247 58.9808423 114.9999542
v 18.8966239 58.9892653 114.9999542
v 18.8481231 58.9951614 114.9999542
v 19.0867590 58.9414649 114.9999542
v 19.0403410 58.9568368 114.9999542
v 18.9930304 58.9701030 114.9999542
v 19.6738270 58.3826001 114.9999542
v 19.7306592 58.1951888 114.9999542
v 19.7199474 58.2429892 114.9999542
v 19.7068551 58.2903685 114.9999542
v 19.6916800 58.3369055 114.9999542
v 18.7990272 58.9987411 114.9999542
v 19.6538911 58.4274525 114.9999542
v 19.1775120 58.9039826 114.9999542
v 19.1325818 58.9237766 114.9999542
v 19.2212520 58.8818723 114.9999542
v 19.2640993 58.8576562 114.9999542
v 19.6077707 58.5139986 114.9999542
v 19.6318723 58.4714626 114.9999542
v 19.3054589 58.8315450 114.9999542
v 19.5815862 58.5554818 114.9999542
v 19.5533188 58.5957015 114.9999542
v 19.3456283 58.8031174 114.9999542
v 19.5229686 58.6344472 114.9999542
v 19.3843099 58.7730053 114.9999542
v 19.4572099 58.7070954 114.9999542
v 19.4908331 58.6715084 114.9999542
v 19.4215038 58.7409979 114.9999542
v 1.2009728 47.0012589 100.4000916
v 1.2500687 46.9999954 100.4000916
v 1.1518769 47.0048386 100.4000916
v 1.1033761 47.0107347 100.4000916
v 1.0548753 47.0191577 100.4000916
v 1.0069696 47.0298970 100.4000916
v 0.9596590 47.0431632 100.4000916
v 0.9132410 47.0585351 100.4000916
v 0.8674182 47.0762234 100.4000916
v 0.8224880 47.0960174 100.4000916
v 0.7787480 47.1181277 100.4000916
v 0.7359007 47.1423438 100.4000916
v 0.6945411 47.1684550 100.4000916
v 0.6543717 47.1968826 100.4000916
v 0.6156901 47.2269947 100.4000916
v 0.5784962 47.2590021 100.4000916
v 0.5427901 47.2929046 100.4000916
v 0.5091669 47.3284916 100.4000916
v 0.4770314 47.3655528 100.4000916
v 0.4466812 47.4042985 100.4000916
v 0.4184138 47.4445182 100.4000916
v 0.3922293 47.4860014 100.4000916
v 0.3681277 47.5285374 100.4000916
v 0.3461089 47.5725475 100.4000916
v 0.3261730 47.6173999 100.4000916
v 0.3083200 47.6630945 100.4000916
v 0.2931449 47.7096315 100.4000916
v 0.2800526 47.7570108 100.4000916
v 0.2693408 47.8048112 100.4000916
v 0.2607118 47.8532433 100.4000916
v 0.2547608 47.9018860 100.4000916
v 0.2511902 47.9509499 100.4000916
v 0.2500000 48.0000137 100.4000916
v 1.1099222 47.9722179 99.5429160
v 0.9868345 47.9204651 99.6750218
v 1.1179561 47.9452644 99.5429160
v 0.9656100 47.9720073 99.6858320
v 1.0294002 47.8524791 99.6654806
v 0.9697757 47.9442115 99.6858320
v 1.1396773 47.9094667 99.5429160
v 0.9861410 47.8907256 99.6858320
v 1.0678604 47.7780678 99.6872731
v 0.9980430 47.8652461 99.6858320
v 0.8233806 47.9578988 99.8284276
v 1.1706226 47.8812497 99.5429160
v 0.7974703 47.9104190 99.8611142
v 1.1953193 47.8679835 99.5429160
v 1.0480316 47.7980728 99.6858320
v 0.8540284 47.8359762 99.8284276
v 0.7971548 47.7586313 99.9130926
v 0.6841608 47.9440904 99.9686233
v 1.1977319 47.7380036 99.6672958
v 1.2360838 47.8578759 99.5429160
v 1.1152781 47.7479561 99.6858320
v 0.9645058 47.7649314 99.7697869
v 0.8378155 47.8751580 99.8304228
v 1.1403739 47.7346967 99.6870619
v 0.9468643 47.6969970 99.8284276
v 1.1670520 47.7266880 99.6858320
v 0.9198555 47.5984037 99.9196603
v 1.0426887 47.6891181 99.7736892
v 0.8778670 47.7509212 99.8475929
v 1.2220989 47.7157382 99.6858320
v 0.8459945 47.5959213 99.9713436
v 0.6775210 47.7631400 100.0195787
v 1.1256924 47.5898146 99.8284276
v 0.3969902 47.9159945 100.2571756
v 1.1543945 47.5214357 99.8878614
v 0.4085438 47.8324014 100.2578609
v 1.2081140 47.5733898 99.8284276
v 1.0499718 47.6259524 99.8240317
v 0.7811951 47.6148281 100.0065398
v 0.4424912 47.7549586 100.2439090
v 0.7448272 47.4948455 100.1142596
v 0.4579881 47.6719387 100.2571756
v 0.7162521 47.3495881 100.2413629
v 0.5051444 47.6017247 100.2446666
v 0.8576955 47.4132653 100.1058468
v 0.5382707 47.5247748 100.2558710
v 1.1931738 47.4222429 99.9804006
v 0.8445612 47.2422938 100.2593191
v 0.5874228 47.4563104 100.2571756
v 0.9865600 47.3637040 100.0885367
v 0.6439574 47.3939803 100.2571756
v 1.0737605 47.4187677 100.0073038
v 0.7736896 47.2872190 100.2571756
v 0.9218700 47.2080430 100.2571756
v 1.0013161 47.1798260 100.2571756
v 1.0823772 47.1563602 100.2602203
v 1.1658618 47.1469764 100.2571756
v 18.7499313 46.9999954 100.4000916
v 2.2501373 46.9999954 104.1998627
v 2.2501373 46.9999954 102.3999542
v 2.2501373 46.9999954 107.2001373
v 2.2501373 46.9999954 109.0000458
v 18.2500458 46.9999954 102.3999542
v 18.2500458 46.9999954 104.1998627
v 18.2500458 46.9999954 107.2001373
v 18.2500458 46.9999954 109.0000458
v 1.2500687 46.9999954 118.9000229
v 1.2500687 46.9999954 117.4000458
v 18.2500458 46.1000000 108.0999313
v 2.2501373 46.1000000 108.0999313
v 2.2501373 46.1000000 103.3000687
v 18.2500458 46.1000000 103.3000687
v 19.7488098 47.9509499 100.4000916
v 19.7500000 48.0000137 100.4000916
v 19.7452392 47.9018860 100.4000916
v 19.7392882 47.8532433 100.4000916
v 19.7306592 47.8048112 100.4000916
v 19.7199474 47.7570108 100.4000916
v 19.7068551 47.7096315 100.4000916
v 19.6916800 47.6630945 100.4000916
v 19.6738270 47.6173999 100.4000916
v 19.6538911 47.5725475 100.4000916
v 19.6318723 47.5285374 100.4000916
v 19.6077707 47.4860014 100.4000916
v 19.5815862 47.4445182 100.4000916
v 19.5533188 47.4042985 100.4000916
v 19.5229686 47.3655528 100.4000916
v 19.4908331 47.3284916 100.4000916
v 19.4572099 47.2929046 100.4000916
v 19.4215038 47.2590021 100.4000916
v 19.3843099 47.2269947 100.4000916
v 19.3456283 47.1968826 100.4000916
v 19.3054589 47.1684550 100.4000916
v 19.2640993 47.1423438 100.4000916
v 19.2212520 47.1181277 100.4000916
v 19.1775120 47.0960174 100.4000916
v 19.1325818 47.0762234 100.4000916
v 19.0867590 47.0585351 100.4000916
v 19.0403410 47.0431632 100.4000916
v 18.9930304 47.0298970 100.4000916
v 18.9451247 47.0191577 100.4000916
v 18.8966239 47.0107347 100.4000916
v 18.8481231 47.0048386 100.4000916
v 18.7990272 47.0012589 100.4000916
v 18.7920927 47.7859441 99.6183008
v 18.7639162 47.8578759 99.5429160
v 18.7915885 47.8633509 99.5429160
v 18.8174754 47.8740902 99.5429160
v 18.7779011 47.7157382 99.6858320
v 18.9239933 47.7874699 99.6748829
v 18.8510986 47.8989380 99.5429160
v 18.8594301 47.7359533 99.6858320
v 18.8895378 47.7388883 99.6960349
v 18.7918860 47.5733898 99.8284276
v 18.9533683 47.8642208 99.6446761
v 18.9088235 47.7624857 99.6858320
v 18.8469640 47.5104126 99.8989218
v 18.8760929 47.9326299 99.5429160
v 18.8445011 47.6888084 99.7252837
v 18.8868048 47.9585306 99.5429160
v 18.9707141 47.8187091 99.6858320
v 18.8157758 47.3326754 100.0704570
v 18.8900778 47.9722179 99.5429160
v 19.0138590 47.8907256 99.6858320
v 18.9848109 47.7662060 99.7314174
v 18.9183469 47.5929312 99.8404617
v 19.0954921 47.8957147 99.7607919
v 19.0302243 47.9442115 99.6858320
v 19.0277707 47.5845487 99.8997058
v 19.0343900 47.9720073 99.6858320
v 19.0397883 47.8457753 99.7283394
v 19.0800502 47.5973989 99.9204007
v 18.9217883 47.4332709 99.9920766
v 19.0974968 47.7146903 99.8493706
v 19.0852616 47.3727803 100.1111041
v 18.8341382 47.1469764 100.2571756
v 19.1063646 47.7620657 99.8282836
v 19.1468643 47.4061936 100.1142596
v 18.9177181 47.1567099 100.2598990
v 19.1766194 47.9578988 99.8284276
v 19.2767689 47.3572189 100.2310848
v 18.9986839 47.1798260 100.2571756
v 19.1522055 47.8337482 99.8350928
v 19.2355825 47.5138764 100.0869879
v 19.0760711 47.2126456 100.2521643
v 19.3021859 47.5468574 100.1142596
v 19.1540055 47.2440513 100.2571756
v 19.1840412 47.9132827 99.8424494
v 19.4626709 47.5242637 100.2569314
v 19.2263104 47.2872190 100.2571756
v 19.3229159 47.6938083 100.0496047
v 19.4098993 47.7266880 100.1142596
v 19.3560426 47.3939803 100.2571756
v 19.4222387 47.7962996 100.1024801
v 19.4125772 47.4563104 100.2571756
v 19.3142570 47.9443064 99.9670304
v 19.5060082 47.5959213 100.2571756
v 19.5420119 47.6719387 100.2571756
v 19.5702792 47.7511147 100.2571756
v 19.5905861 47.8330989 100.2568970
v 19.6030098 47.9159945 100.2571756
v 19.7500000 57.9999863 100.4000916
v 18.3500229 52.2999451 113.4000000
v 15.2409133 52.2999451 113.4000000
v 15.2409133 53.7000549 113.4000000
v 15.2043145 53.8053422 113.4000000
v 15.1626574 53.9089448 113.4000000
v 15.1162394 54.0104417 113.4000000
v 15.0647631 54.1094118 113.4000000
v 15.0085260 54.2058549 113.4000000
v 14.9478256 54.2993500 113.4000000
v 14.8826619 54.3898970 113.4000000
v 14.8130350 54.4770748 113.4000000
v 14.7392424 54.5608835 113.4000000
v 14.6615816 54.6411124 113.4000000
v 14.5800526 54.7173404 113.4000000
v 14.4949531 54.7893568 113.4000000
v 14.4065805 54.8573724 113.4000000
v 14.3146372 54.9209659 113.4000000
v 14.2200160 54.9801373 113.4000000
v 14.1227169 55.0344656 113.4000000
v 14.0227398 55.0841611 113.4000000
v 13.9206798 55.1288029 113.4000000
v 13.8162394 55.1686015 113.4000000
v 13.7103113 55.2031357 113.4000000
v 13.6025978 55.2326162 113.4000000
v 13.4936942 55.2568322 113.4000000
v 13.3836004 55.2755734 113.4000000
v 13.2729114 55.2892607 113.4000000
v 13.1616274 55.2972625 113.4000000
v 13.0500458 55.3000000 113.4000000
v 13.0500458 50.7000000 113.4000000
v 13.1616274 50.7027375 113.4000000
v 13.2729114 50.7107393 113.4000000
v 13.3836004 50.7244266 113.4000000
v 13.4936942 50.7431678 113.4000000
v 13.6025978 50.7673838 113.4000000
v 13.7103113 50.7968643 113.4000000
v 13.8162394 50.8313985 113.4000000
v 13.9206798 50.8711971 113.4000000
v 14.0227398 50.9158389 113.4000000
v 14.1227169 50.9655344 113.4000000
v 14.2200160 51.0198627 113.4000000
v 14.3146372 51.0790341 113.4000000
v 14.4065805 51.1426276 113.4000000
v 14.4949531 51.2106432 113.4000000
v 14.5800526 51.2826596 113.4000000
v 14.6615816 51.3588876 113.4000000
v 14.7392424 51.4391165 113.4000000
v 14.8130350 51.5229252 113.4000000
v 14.8826619 51.6101030 113.4000000
v 14.9478256 51.7006500 113.4000000
v 15.0085260 51.7941451 113.4000000
v 15.0647631 51.8905882 113.4000000
v 15.1162394 51.9895583 113.4000000
v 15.1626574 52.0910552 113.4000000
v 15.2043145 52.1946578 113.4000000
v 18.3500229 53.7000549 113.4000000
v 5.3607347 51.4391165 113.4000000
v 5.4383955 51.3588876 113.4000000
v 5.5199245 51.2826596 113.4000000
v 5.2869421 51.5229252 113.4000000
v 5.6050240 51.2106432 113.4000000
v 5.2176127 51.6101030 113.4000000
v 5.6933967 51.1426276 113.4000000
v 5.1521515 51.7006500 113.4000000
v 5.7853399 51.0790341 113.4000000
v 5.0914511 51.7941451 113.4000000
v 5.8799611 51.0198627 113.4000000
v 5.0352140 51.8905882 113.4000000
v 5.9772602 50.9655344 113.4000000
v 4.9837377 51.9895583 113.4000000
v 6.0772374 50.9158389 113.4000000
v 4.9373198 52.0910552 113.4000000
v 6.1795949 50.8711971 113.4000000
v 4.8956626 52.1946578 113.4000000
v 6.2837377 50.8313985 113.4000000
v 6.3899634 50.7968643 113.4000000
v 6.4973793 50.7673838 113.4000000
v 6.6062829 50.7431678 113.4000000
v 6.7163767 50.7244266 113.4000000
v 6.8270657 50.7107393 113.4000000
v 6.9383497 50.7027375 113.4000000
v 7.0499313 50.7000000 113.4000000
v 4.8956626 53.8053422 113.4000000
v 4.8590639 53.7000549 113.4000000
v 4.9373198 53.9089448 113.4000000
v 4.9837377 54.0104417 113.4000000
v 5.0352140 54.1094118 113.4000000
v 5.0914511 54.2058549 113.4000000
v 5.1521515 54.2993500 113.4000000
v 5.2176127 54.3898970 113.4000000
v 5.2869421 54.4770748 113.4000000
v 5.3607347 54.5608835 113.4000000
v 5.4383955 54.6411124 113.4000000
v 5.5199245 54.7173404 113.4000000
v 5.6050240 54.7893568 113.4000000
v 5.6933967 54.8573724 113.4000000
v 5.7853399 54.9209659 113.4000000
v 5.8799611 54.9801373 113.4000000
v 5.9772602 55.0344656 113.4000000
v 6.0772374 55.0841611 113.4000000
v 6.1795949 55.1288029 113.4000000
v 6.2837377 55.1686015 113.4000000
v 6.3899634 55.2031357 113.4000000
v 6.4973793 55.2326162 113.4000000
v 6.6062829 55.2568322 113.4000000
v 6.7163767 55.2755734 113.4000000
v 6.8270657 55.2892607 113.4000000
v 6.9383497 55.2972625 113.4000000
v 7.0499313 55.3000000 113.4000000
v 2.9999657 53.7000549 117.4000458
v 0.2500000 53.7000549 117.4000458
v 0.2500000 57.9999863 119.9001144
v 0.2500000 57.9999863 117.4000458
v 0.2500000 48.0000137 117.4000458
v 0.2500000 48.0000137 119.9001144
v 0.2500000 57.9999863 100.4000916
v 0.2511902 58.0490501 117.4000458
v 0.2517853 58.0608423 119.8392309
v 0.2547608 58.0981140 117.4000458
v 0.2574388 58.1212772 119.7786679
v 0.2607118 58.1467567 117.4000458
v 0.2675555 58.1863447 119.7136187
v 0.2693408 58.1951888 117.4000458
v 0.2791600 58.2394095 119.6607462
v 0.2800526 58.2429892 117.4000458
v 0.2931449 58.2903685 117.4000458
v 0.2967155 58.3021607 119.5979400
v 0.3083200 58.3369055 117.4000458
v 0.3178416 58.3617533 119.5383383
v 0.3261730 58.3826001 117.4000458
v 0.3428359 58.4209247 119.4790570
v 0.3461089 58.4274525 117.4000458
v 0.3708057 58.4767269 119.4233005
v 0.3681277 58.4714626 117.4000458
v 0.3922293 58.5139986 117.4000458
v 0.3996681 58.5262119 119.3739528
v 0.4184138 58.5554818 117.4000458
v 0.4300183 58.5725383 119.3274891
v 0.4466812 58.5957015 117.4000458
v 0.4624514 58.6163378 119.2835889
v 0.4770314 58.6344472 117.4000458
v 0.4969673 58.6578210 119.2422522
v 0.5091669 58.6715084 117.4000458
v 0.5320783 58.6961456 119.2037995
v 0.5427901 58.7070954 117.4000458
v 0.5719501 58.7348913 119.1650263
v 0.5784962 58.7409979 117.4000458
v 0.6121195 58.7700572 119.1297780
v 0.6156901 58.7730053 117.4000458
v 0.6418746 58.7938521 119.1060655
v 0.6543717 58.8031174 117.4000458
v 0.6862097 58.8260700 119.0740215
v 0.6945411 58.8315450 117.4000458
v 0.7350080 58.8572351 119.0426184
v 0.7359007 58.8576562 117.4000458
v 0.7787480 58.8818723 117.4000458
v 0.7861868 58.8860838 119.0140993
v 0.8224880 58.9039826 117.4000458
v 0.8248684 58.9052461 118.9948730
v 0.8641451 58.9225132 118.9772488
v 0.8674182 58.9237766 117.4000458
v 0.9040169 58.9383062 118.9618677
v 0.9132410 58.9414649 117.4000458
v 0.9438888 58.9519936 118.9480888
v 0.9596590 58.9568368 117.4000458
v 0.9843557 58.9639963 118.9359121
v 1.0069696 58.9701030 117.4000458
v 1.0251202 58.9743145 118.9256580
v 1.0548753 58.9808423 117.4000458
v 1.0658846 58.9829480 118.9170062
v 1.1033761 58.9892653 117.4000458
v 1.1072442 58.9896864 118.9102770
v 1.1483062 58.9947402 118.9051499
v 1.1518769 58.9951614 117.4000458
v 1.1991875 58.9987411 118.9013046
v 1.2009728 58.9987411 117.4000458
v 0.5091669 47.3284916 117.4000458
v 0.4770314 47.3655528 117.4000458
v 0.5427901 47.2929046 117.4000458
v 0.4466812 47.4042985 117.4000458
v 0.4184138 47.4445182 117.4000458
v 0.6156901 47.2269947 117.4000458
v 0.6945411 47.1684550 117.4000458
v 0.6543717 47.1968826 117.4000458
v 0.5784962 47.2590021 117.4000458
v 0.7359007 47.1423438 117.4000458
v 0.8224880 47.0960174 117.4000458
v 0.7787480 47.1181277 117.4000458
v 0.3922293 47.4860014 117.4000458
v 0.3261730 47.6173999 117.4000458
v 0.3681277 47.5285374 117.4000458
v 0.3461089 47.5725475 117.4000458
v 0.3083200 47.6630945 117.4000458
v 0.9132410 47.0585351 117.4000458
v 0.8674182 47.0762234 117.4000458
v 0.9596590 47.0431632 117.4000458
v 1.0548753 47.0191577 117.4000458
v 1.0069696 47.0298970 117.4000458
v 0.2931449 47.7096315 117.4000458
v 0.2547608 47.9018860 117.4000458
v 0.2800526 47.7570108 117.4000458
v 0.2693408 47.8048112 117.4000458
v 0.2607118 47.8532433 117.4000458
v 0.2511902 47.9509499 117.4000458
v 1.1518769 47.0048386 117.4000458
v 1.2009728 47.0012589 117.4000458
v 1.1033761 47.0107347 117.4000458
v 2.9999657 56.9999680 117.4000458
v 1.1899634 47.0018906 118.9019455
v 1.1301556 47.0071550 118.9070726
v 1.0706455 47.0162097 118.9163653
v 1.0352369 47.0233692 118.9234150
v 0.9932822 47.0334768 118.9336690
v 0.9432937 47.0482170 118.9480888
v 0.8846761 47.0690639 118.9692378
v 0.8534333 47.0821195 118.9820554
v 0.8195125 47.0972808 118.9974365
v 0.7835088 47.1156008 119.0153811
v 0.7448272 47.1368688 119.0368505
v 0.7037652 47.1623484 119.0621653
v 0.6606203 47.1920394 119.0919661
v 0.6153925 47.2272053 119.1272145
v 0.5734379 47.2636347 119.1637446
v 0.5347562 47.3011170 119.2012360
v 0.4996452 47.3390204 119.2390478
v 0.4672122 47.3777661 119.2778210
v 0.4347791 47.4209339 119.3210803
v 0.4038338 47.4672602 119.3672236
v 0.3746738 47.5165347 119.4165713
v 0.3502747 47.5634928 119.4636759
v 0.3261730 47.6173999 119.5171893
v 0.3029641 47.6784665 119.5787137
v 0.2842184 47.7412177 119.6411994
v 0.2693408 47.8048112 119.7049668
v 0.2586290 47.8694575 119.7693751
v 0.2520829 47.9345251 119.8347448
v 1.2079077 58.2140559 99.6182998
v 1.2360838 58.1421241 99.5429160
v 1.2084115 58.1366491 99.5429160
v 1.1825246 58.1259098 99.5429160
v 1.2220989 58.2842618 99.6858320
v 1.0760071 58.2125306 99.6748832
v 1.1489014 58.1010620 99.5429160
v 1.1405699 58.2640467 99.6858320
v 1.1104616 58.2611122 99.6960344
v 1.2081140 58.4266102 99.8284276
v 1.0466315 58.1357799 99.6446764
v 1.0911765 58.2375143 99.6858320
v 1.1530304 58.4895872 99.8989224
v 1.1239071 58.0673701 99.5429160
v 1.1554962 58.3111912 99.7252848
v 0.9716838 58.0840460 99.6907859
v 1.0292859 58.1812909 99.6858320
v 1.1842742 58.6673233 100.0704576
v 1.1099222 58.0277821 99.5429160
v 0.9861410 58.1092744 99.6858320
v 1.0151869 58.2337953 99.7314196
v 1.0816607 58.4070653 99.8404729
v 0.9804875 58.5038911 99.9713436
v 0.9727814 58.4145361 99.8986537
v 0.9656100 58.0279927 99.6858320
v 0.9940098 58.1367675 99.6903471
v 0.9199501 58.4026058 99.9204027
v 1.0782213 58.5667313 99.9920767
v 0.8546017 58.1637891 99.8278369
v 0.9025040 58.2853098 99.8493720
v 1.1658618 58.8530236 100.2571756
v 1.1033761 58.9892653 100.4000916
v 1.1518769 58.9951614 100.4000916
v 1.2009728 58.9987411 100.4000916
v 0.8759562 58.0734302 99.7811253
v 0.8936361 58.2379302 99.8282811
v 0.8531357 58.5938064 100.1142596
v 1.0822817 58.8432901 100.2598989
v 1.0069696 58.9701030 100.4000916
v 1.0548753 58.9808423 100.4000916
v 0.8233806 58.0421012 99.8284276
v 0.7232297 58.6427803 100.2310855
v 1.0013161 58.8201740 100.2571756
v 0.9132410 58.9414649 100.4000916
v 0.9596590 58.9568368 100.4000916
v 0.7644166 58.4861207 100.0869943
v 0.9239295 58.7873544 100.2521643
v 0.8224880 58.9039826 100.4000916
v 0.8674182 58.9237766 100.4000916
v 0.8394357 58.1248036 99.8288491
v 0.8446241 58.7573689 100.2589961
v 0.7359007 58.8576562 100.4000916
v 0.7787480 58.8818723 100.4000916
v 0.7736896 58.7127810 100.2571756
v 0.6543717 58.8031174 100.4000916
v 0.6945411 58.8315450 100.4000916
v 0.6869223 58.3007816 100.0383610
v 0.5784962 58.7409979 100.4000916
v 0.6156901 58.7730053 100.4000916
v 0.4628907 58.3256615 100.2517576
v 0.6439574 58.6060197 100.2571756
v 0.5091669 58.6715084 100.4000916
v 0.5427901 58.7070954 100.4000916
v 0.5872306 58.5441635 100.2576044
v 0.4466812 58.5957015 100.4000916
v 0.4770314 58.6344472 100.4000916
v 0.6461353 58.1201479 100.0155654
v 0.5373293 58.4757369 100.2569317
v 0.3922293 58.5139986 100.4000916
v 0.4184138 58.5554818 100.4000916
v 0.6857430 58.0556988 99.9670310
v 0.4939918 58.4040787 100.2571756
v 0.3461089 58.4274525 100.4000916
v 0.3681277 58.4714626 100.4000916
v 0.3083200 58.3369055 100.4000916
v 0.3261730 58.3826001 100.4000916
v 0.4443709 58.2446539 100.2420101
v 0.2800526 58.2429892 100.4000916
v 0.2931449 58.2903685 100.4000916
v 0.4091897 58.1671824 100.2571756
v 0.2607118 58.1467567 100.4000916
v 0.2693408 58.1951888 100.4000916
v 0.3969902 58.0840055 100.2571756
v 0.2511902 58.0490501 100.4000916
v 0.2547608 58.0981140 100.4000916
v 18.8900778 58.0277821 99.5429160
v 19.0131653 58.0795344 99.6750220
v 18.8820439 58.0547356 99.5429160
v 19.0343900 58.0279927 99.6858320
v 18.9705999 58.1475205 99.6654806
v 19.0302243 58.0557885 99.6858320
v 18.8603227 58.0905333 99.5429160
v 19.0138590 58.1092744 99.6858320
v 18.9321393 58.2219323 99.6872725
v 19.0019570 58.1347539 99.6858320
v 19.1766194 58.0421012 99.8284276
v 18.8293774 58.1187503 99.5429160
v 19.2025299 58.0895815 99.8611146
v 18.8046807 58.1320165 99.5429160
v 18.9519684 58.2019272 99.6858320
v 19.1459716 58.1640238 99.8284276
v 19.2028453 58.2413612 99.9130866
v 19.3158391 58.0559078 99.9686237
v 18.8024255 58.2626922 99.6680097
v 18.7639162 58.1421241 99.5429160
v 18.8847219 58.2520439 99.6858320
v 19.0354895 58.2350715 99.7697878
v 19.1621840 58.1248408 99.8304224
v 18.8596257 58.2653033 99.6870620
v 19.0531357 58.3030030 99.8284276
v 18.8329480 58.2733120 99.6858320
v 19.0796067 58.4007398 99.9186507
v 18.9573135 58.3108761 99.7736990
v 19.1221298 58.2490859 99.8475995
v 18.7779011 58.2842618 99.6858320
v 19.3224781 58.2368625 100.0195813
v 18.8743076 58.4101854 99.8284276
v 19.3798466 58.3366949 100.1142596
v 19.6030098 58.0840055 100.2571756
v 19.7392882 58.1467567 100.4000916
v 19.7452392 58.0981140 100.4000916
v 19.7488098 58.0490501 100.4000916
v 18.8423256 58.4631188 99.8720734
v 19.4616311 58.4756210 100.2560254
v 19.5914562 58.1675987 100.2578609
v 19.7199474 58.2429892 100.4000916
v 19.7306592 58.1951888 100.4000916
v 18.7918860 58.4266102 99.8284276
v 18.9500196 58.3740148 99.8240347
v 19.2187775 58.3851696 100.0065483
v 19.5575089 58.2450406 100.2439091
v 19.6916800 58.3369055 100.4000916
v 19.7068551 58.2903685 100.4000916
v 18.9686313 58.5278965 99.9713436
v 19.2173170 58.4667438 100.0603894
v 19.5420119 58.3280613 100.2571756
v 19.6538911 58.4274525 100.4000916
v 19.6738270 58.3826001 100.4000916
v 18.9159648 58.5468482 99.9713436
v 19.2031014 58.5521126 100.1142596
v 19.5060082 58.4040787 100.2571756
v 19.6077707 58.5139986 100.4000916
v 19.6318723 58.4714626 100.4000916
v 19.1429914 58.5878186 100.1071188
v 19.5533188 58.5957015 100.4000916
v 19.5815862 58.5554818 100.4000916
v 18.8058709 58.5687480 99.9713436
v 19.0867590 58.6300252 100.1142596
v 19.4125772 58.5436896 100.2571756
v 19.4908331 58.6715084 100.4000916
v 19.5229686 58.6344472 100.4000916
v 19.0233806 58.6599268 100.1142596
v 19.3560426 58.6060197 100.2571756
v 19.4215038 58.7409979 100.4000916
v 19.4572099 58.7070954 100.4000916
v 18.9573243 58.6835111 100.1142596
v 19.2938544 58.6626642 100.2571756
v 19.3456283 58.8031174 100.4000916
v 19.3843099 58.7730053 100.4000916
v 18.8894827 58.7005676 100.1142596
v 19.2263104 58.7127810 100.2571756
v 19.2640993 58.8576562 100.4000916
v 19.3054589 58.8315450 100.4000916
v 18.8201534 58.7108858 100.1142596
v 19.1540055 58.7559487 100.2571756
v 19.1775120 58.9039826 100.4000916
v 19.2212520 58.8818723 100.4000916
v 19.0781300 58.7919570 100.2571756
v 19.0867590 58.9414649 100.4000916
v 19.1325818 58.9237766 100.4000916
v 18.9986839 58.8201740 100.2571756
v 18.9930304 58.9701030 100.4000916
v 19.0403410 58.9568368 100.4000916
v 18.9171550 58.8405997 100.2571756
v 18.8966239 58.9892653 100.4000916
v 18.9451247 58.9808423 100.4000916
v 18.8341382 58.8530236 100.2571756
v 18.7990272 58.9987411 100.4000916
v 18.8481231 58.9951614 100.4000916
v 17.7498627 56.9999680 102.2000000
v 4.2499771 56.9999680 102.2000000
v 4.1517853 56.9976516 102.2000000
v 2.2525177 55.0980591 102.2000000
v 2.2501373 54.9999313 102.2000000
v 4.0440719 57.0898833 102.2999771
v 4.0538911 56.9902815 102.2000000
v 3.9565919 56.9782788 102.2000000
v 3.8402495 57.0595605 102.2999771
v 3.8598878 56.9616434 102.2000000
v 3.7640764 56.9401648 102.2000000
v 3.6402953 57.0096544 102.2999771
v 3.6694553 56.9138430 102.2000000
v 3.5763218 56.8830991 102.2000000
v 3.4462921 56.9401648 102.2999771
v 3.4846761 56.8477226 102.2000000
v 3.3948157 56.8079240 102.2000000
v 3.2600252 56.8519341 102.2999771
v 3.3073358 56.7639139 102.2000000
v 3.2219387 56.7154818 102.2000000
v 3.0832799 56.7460151 102.2999771
v 3.1389220 56.6628382 102.2000000
v 3.0585832 56.6064042 102.2000000
v 2.9178416 56.6232502 102.2999771
v 2.9812200 56.5459693 102.2000000
v 2.9068322 56.4819547 102.2000000
v 2.7651980 56.4849027 102.2999771
v 2.8357176 56.4141497 102.2000000
v 2.7681735 56.3431861 102.2000000
v 2.6265393 56.3322362 102.2999771
v 2.7039025 56.2688533 102.2000000
v 2.6434997 56.1913619 102.2000000
v 2.5039483 56.1667247 102.2999771
v 2.5869650 56.1111330 102.2000000
v 2.5345960 56.0281666 102.2000000
v 2.3980201 55.9898421 102.2999771
v 2.4860952 55.9428840 102.2000000
v 2.4420577 55.8550744 102.2000000
v 2.3099451 55.8036942 102.2999771
v 2.4021859 55.7653696 102.2000000
v 2.3667773 55.6737697 102.2000000
v 2.2403182 55.6095445 102.2999771
v 2.3361295 55.5804852 102.2000000
v 2.3099451 55.4859373 102.2000000
v 2.1903296 55.4097093 102.2999771
v 2.2885214 55.3901259 102.2000000
v 2.2715610 55.2934722 102.2000000
v 2.1599794 55.2058732 102.2999771
v 2.2596590 55.1959762 102.2000000
v 2.2501373 51.0000687 102.2000000
v 2.2525177 50.9019409 102.2000000
v 4.1517853 49.0023484 102.2000000
v 2.1599794 50.7941268 102.2999771
v 2.2596590 50.8040238 102.2000000
v 2.2715610 50.7065278 102.2000000
v 2.1903296 50.5902907 102.2999771
v 2.2885214 50.6098741 102.2000000
v 2.3099451 50.5140627 102.2000000
v 2.2403182 50.3904555 102.2999771
v 2.3361295 50.4195148 102.2000000
v 2.3667773 50.3262303 102.2000000
v 2.3099451 50.1963058 102.2999771
v 2.4021859 50.2346304 102.2000000
v 2.4420577 50.1449256 102.2000000
v 2.3980201 50.0101579 102.2999771
v 2.4860952 50.0571160 102.2000000
v 2.5345960 49.9718334 102.2000000
v 2.5039483 49.8332753 102.2999771
v 2.5869650 49.8888670 102.2000000
v 2.6434997 49.8086381 102.2000000
v 2.6265393 49.6677638 102.2999771
v 2.7039025 49.7311467 102.2000000
v 2.7681735 49.6568139 102.2000000
v 2.7651980 49.5150973 102.2999771
v 2.8357176 49.5858503 102.2000000
v 2.9068322 49.5180453 102.2000000
v 2.9178416 49.3767498 102.2999771
v 2.9812200 49.4540307 102.2000000
v 3.0585832 49.3935958 102.2000000
v 3.0832799 49.2539849 102.2999771
v 3.1389220 49.3371618 102.2000000
v 3.2219387 49.2845182 102.2000000
v 3.2600252 49.1480659 102.2999771
v 3.3073358 49.2360861 102.2000000
v 3.3948157 49.1920760 102.2000000
v 3.4462921 49.0598352 102.2999771
v 3.4846761 49.1522774 102.2000000
v 3.5763218 49.1169009 102.2000000
v 3.6402953 48.9903456 102.2999771
v 3.6694553 49.0861570 102.2000000
v 3.7640764 49.0598352 102.2000000
v 3.8402495 48.9404395 102.2999771
v 3.8598878 49.0383566 102.2000000
v 3.9565919 49.0217212 102.2000000
v 4.0440719 48.9101167 102.2999771
v 4.0538911 49.0097185 102.2000000
f 1 2 3
f 3 2 4
f 4 5 3
f 6 7 8
f 8 7 9
f 9 7 10
f 10 7 11
f 11 7 12
f 12 7 13
f 13 7 14
f 14 7 15
f 15 7 16
f 16 7 17
f 17 7 18
f 18 7 19
f 19 7 20
f 20 7 21
f 21 7 5
f 5 7 3
f 6 22 7
f 22 23 7
f 23 24 7
f 24 25 7
f 25 26 7
f 26 27 7
f 27 28 7
f 28 29 7
f 29 30 7
f 30 31 7
f 31 32 7
f 32 33 7
f 33 34 7
f 34 35 7
f 35 36 7
f 36 37 7
f 37 38 7
f 1 39 2
f 39 40 41
f 41 40 42
f 42 40 43
f 43 40 44
f 44 40 45
f 45 40 46
f 46 40 47
f 47 40 48
f 48 40 49
f 49 40 50
f 50 40 51
f 51 40 52
f 52 40 53
f 53 40 54
f 54 40 55
f 55 40 56
f 56 40 57
f 57 40 58
f 58 40 59
f 59 40 60
f 60 40 61
f 61 40 62
f 62 40 63
f 63 40 64
f 64 40 65
f 65 40 66
f 66 40 67
f 67 40 68
f 68 40 69
f 69 40 70
f 70 40 71
f 71 40 72
f 72 40 38
f 38 40 7
f 1 40 39
f 73 74 2
f 73 2 39
f 74 73 75
f 76 74 75
f 77 78 79
f 77 79 80
f 81 82 83
f 81 84 82
f 81 85 84
f 81 86 85
f 81 87 86
f 81 88 87
f 81 89 88
f 81 90 89
f 81 91 90
f 81 92 91
f 81 93 92
f 81 94 93
f 95 94 81
f 96 95 81
f 97 96 81
f 98 97 81
f 99 98 81
f 100 99 81
f 101 100 81
f 102 101 81
f 103 102 81
f 104 103 81
f 105 104 81
f 106 105 81
f 107 106 81
f 108 107 81
f 109 108 81
f 110 109 81
f 111 110 81
f 112 113 114
f 115 113 112
f 116 117 118
f 116 119 117
f 116 120 119
f 116 121 120
f 116 122 121
f 116 123 122
f 116 124 123
f 116 125 124
f 116 126 125
f 116 127 126
f 116 128 127
f 116 129 128
f 116 130 129
f 116 131 130
f 116 132 131
f 116 133 132
f 116 134 133
f 116 135 134
f 116 136 135
f 116 137 136
f 116 138 137
f 116 139 138
f 116 140 139
f 116 141 140
f 116 142 141
f 116 143 142
f 116 144 143
f 116 145 144
f 116 146 145
f 114 147 76
f 114 76 112
f 112 76 75
f 148 78 149
f 77 81 150
f 150 81 151
f 151 81 152
f 152 81 83
f 81 116 111
f 111 116 118
f 116 112 75
f 116 75 153
f 116 153 154
f 116 154 146
f 150 149 78
f 150 78 77
f 149 76 147
f 149 147 148
f 116 155 112
f 116 156 155
f 156 157 155
f 157 147 114
f 157 158 147
f 156 158 157
f 80 159 77
f 77 159 160
f 80 161 159
f 159 162 160
f 112 163 115
f 115 163 164
f 163 155 165
f 112 155 163
f 166 167 168
f 79 168 167
f 169 166 170
f 169 171 166
f 80 79 167
f 172 80 167
f 173 80 172
f 174 162 159
f 174 173 172
f 175 162 174
f 175 174 172
f 176 177 175
f 176 178 177
f 172 176 175
f 178 167 166
f 178 166 171
f 178 171 179
f 175 171 169
f 175 169 162
f 179 177 178
f 180 181 182
f 180 182 183
f 175 184 185
f 175 185 171
f 177 184 175
f 179 185 184
f 179 184 177
f 171 185 179
f 173 161 80
f 173 186 161
f 79 187 188
f 79 188 168
f 159 161 186
f 159 186 174
f 166 187 170
f 166 188 187
f 174 186 173
f 169 170 189
f 170 78 189
f 170 79 78
f 170 187 79
f 190 157 191
f 191 113 192
f 157 114 191
f 191 114 113
f 162 169 160
f 160 169 189
f 155 157 165
f 165 157 190
f 148 189 78
f 148 193 189
f 193 160 189
f 160 81 77
f 160 194 81
f 193 194 160
f 81 194 195
f 81 196 116
f 195 196 81
f 194 197 195
f 198 156 196
f 196 156 116
f 195 199 196
f 195 200 199
f 201 202 203
f 201 203 204
f 199 198 196
f 199 205 198
f 205 206 198
f 206 207 198
f 206 208 207
f 209 210 208
f 210 211 208
f 208 211 207
f 212 213 214
f 215 214 213
f 216 213 212
f 217 215 213
f 218 219 213
f 218 213 216
f 220 217 213
f 221 219 218
f 222 220 213
f 223 219 221
f 224 222 213
f 225 219 223
f 226 224 213
f 227 219 225
f 228 226 213
f 229 219 227
f 230 228 213
f 231 219 229
f 232 230 213
f 233 219 231
f 234 232 213
f 235 234 213
f 236 235 213
f 237 236 213
f 238 237 213
f 239 238 213
f 240 239 213
f 241 240 213
f 242 243 244
f 242 244 245
f 242 245 246
f 242 246 247
f 242 247 248
f 242 248 249
f 242 249 250
f 242 250 251
f 242 251 252
f 242 252 253
f 242 253 254
f 242 241 213
f 242 254 255
f 242 255 256
f 242 256 257
f 242 257 258
f 242 258 259
f 242 259 260
f 242 260 261
f 242 261 262
f 242 262 263
f 242 263 264
f 242 264 241
f 265 266 267
f 265 267 268
f 265 268 269
f 265 269 243
f 265 243 242
f 270 271 272
f 273 271 270
f 274 271 273
f 275 271 274
f 276 271 275
f 277 271 276
f 278 271 277
f 279 278 280
f 279 280 281
f 279 281 282
f 279 282 283
f 279 283 284
f 279 284 285
f 279 271 278
f 286 279 285
f 287 279 286
f 288 279 287
f 289 279 288
f 290 279 289
f 291 279 290
f 292 279 291
f 293 279 292
f 294 279 293
f 295 279 294
f 296 279 295
f 297 279 296
f 298 279 297
f 210 299 300
f 210 300 301
f 210 301 302
f 210 302 211
f 303 304 305
f 303 305 306
f 303 306 307
f 303 307 308
f 303 308 309
f 303 309 310
f 303 310 311
f 303 311 312
f 303 312 313
f 303 313 314
f 303 314 315
f 303 315 316
f 303 316 317
f 303 299 210
f 303 317 318
f 303 318 319
f 303 319 320
f 303 320 321
f 303 321 322
f 303 322 323
f 303 323 324
f 303 324 299
f 303 279 298
f 303 298 325
f 303 325 304
f 326 327 328
f 329 330 327
f 327 279 328
f 330 271 327
f 327 271 279
f 331 332 333
f 333 332 219
f 182 181 332
f 332 213 219
f 181 213 332
f 329 334 335
f 327 334 329
f 336 337 338
f 339 336 338
f 340 341 342
f 340 342 343
f 344 338 345
f 344 345 341
f 344 341 340
f 346 347 348
f 346 348 349
f 346 349 339
f 346 339 338
f 350 344 351
f 350 351 352
f 353 354 355
f 356 354 353
f 356 350 354
f 356 353 357
f 358 359 360
f 358 360 361
f 358 361 362
f 358 362 363
f 358 346 338
f 358 363 346
f 364 365 358
f 366 358 338
f 366 350 356
f 366 356 367
f 366 367 368
f 366 364 358
f 366 344 350
f 366 338 344
f 335 364 366
f 205 364 335
f 206 205 335
f 329 366 369
f 329 335 366
f 370 371 372
f 370 372 373
f 370 373 374
f 375 371 370
f 376 371 375
f 377 371 376
f 378 369 371
f 378 371 377
f 379 378 380
f 381 379 382
f 383 381 384
f 383 384 385
f 383 378 379
f 383 379 381
f 386 383 387
f 386 378 383
f 388 369 378
f 388 378 386
f 389 369 388
f 390 369 389
f 391 390 392
f 393 391 394
f 393 394 395
f 393 390 391
f 396 390 393
f 396 393 397
f 396 397 398
f 396 369 390
f 399 369 396
f 399 396 400
f 401 369 399
f 401 329 369
f 402 329 401
f 402 330 329
f 403 404 405
f 406 407 408
f 406 408 403
f 409 410 406
f 409 403 405
f 409 406 403
f 411 409 405
f 412 411 405
f 413 414 412
f 415 413 412
f 416 415 412
f 416 417 418
f 416 418 419
f 416 419 415
f 416 412 405
f 420 421 416
f 422 423 420
f 422 420 416
f 424 422 416
f 425 426 424
f 425 424 416
f 427 428 429
f 427 429 425
f 427 425 416
f 430 427 416
f 431 405 432
f 431 432 433
f 434 435 430
f 434 430 416
f 436 437 434
f 176 416 405
f 176 434 416
f 176 436 434
f 176 405 431
f 331 333 438
f 178 431 331
f 178 176 431
f 439 178 331
f 439 331 438
f 440 439 441
f 442 178 439
f 442 439 440
f 443 444 445
f 446 447 448
f 446 448 443
f 449 442 450
f 449 450 451
f 449 451 452
f 449 452 453
f 449 178 442
f 449 454 178
f 455 454 449
f 456 457 446
f 456 445 454
f 456 443 445
f 456 446 443
f 458 456 454
f 459 458 454
f 460 455 461
f 462 459 454
f 463 455 460
f 464 455 463
f 465 462 454
f 466 455 464
f 467 465 454
f 468 455 466
f 468 467 454
f 468 466 469
f 468 470 467
f 468 454 455
f 471 472 366
f 471 368 367
f 471 366 368
f 473 367 356
f 473 471 367
f 474 356 357
f 474 473 356
f 475 357 353
f 475 474 357
f 476 353 355
f 476 475 353
f 477 355 354
f 477 476 355
f 478 354 350
f 478 477 354
f 479 350 352
f 479 478 350
f 480 479 352
f 480 352 351
f 481 480 351
f 481 351 344
f 482 481 344
f 482 344 340
f 483 482 340
f 483 340 343
f 484 483 343
f 484 343 342
f 485 484 342
f 485 342 341
f 486 485 341
f 486 341 345
f 487 486 345
f 487 345 338
f 488 487 338
f 488 338 337
f 489 488 337
f 489 337 336
f 490 336 339
f 490 489 336
f 491 490 339
f 491 339 349
f 492 349 348
f 492 491 349
f 493 348 347
f 493 492 348
f 494 347 346
f 494 493 347
f 495 346 363
f 495 494 346
f 496 363 362
f 496 495 363
f 497 362 361
f 497 496 362
f 498 361 360
f 498 497 361
f 499 360 359
f 499 498 360
f 500 359 358
f 500 499 359
f 501 358 365
f 501 500 358
f 502 365 364
f 502 501 365
f 503 502 364
f 504 504 40
f 505 504 40
f 506 505 40
f 506 506 40
f 507 40 504
f 508 506 40
f 509 504 504
f 509 507 504
f 510 508 40
f 505 509 504
f 510 510 40
f 511 505 506
f 512 510 40
f 513 511 506
f 513 506 506
f 514 503 40
f 514 40 507
f 515 512 40
f 508 513 506
f 516 514 507
f 516 507 509
f 515 515 40
f 525 508 510
f 526 516 509
f 526 509 505
f 517 515 40
f 518 510 510
f 518 525 510
f 519 526 505
f 519 505 511
f 517 517 40
f 512 518 510
f 520 511 513
f 520 519 511
f 521 503 514
f 522 517 40
f 531 512 515
f 532 513 508
f 532 520 513
f 516 521 514
f 523 522 40
f 524 531 515
f 524 515 515
f 525 532 508
f 527 515 517
f 527 524 515
f 528 525 518
f 535 526 519
f 529 517 517
f 529 527 517
f 530 528 518
f 530 518 512
f 520 535 519
f 522 529 517
f 531 530 512
f 539 521 516
f 533 523 40
f 533 522 523
f 541 531 524
f 542 532 525
f 543 539 516
f 543 516 526
f 527 541 524
f 534 525 528
f 534 542 525
f 535 543 526
f 536 527 529
f 530 534 528
f 547 535 520
f 537 500 501
f 537 501 502
f 537 502 503
f 537 503 521
f 538 536 529
f 538 529 522
f 548 530 531
f 549 520 532
f 549 547 520
f 539 500 537
f 539 498 499
f 539 499 500
f 539 537 521
f 540 538 522
f 540 522 533
f 540 40 472
f 540 533 40
f 541 548 531
f 542 549 532
f 543 496 497
f 543 497 498
f 543 498 539
f 553 541 527
f 544 534 530
f 544 542 534
f 545 543 535
f 545 494 495
f 545 495 496
f 545 496 543
f 555 553 527
f 555 527 536
f 546 544 530
f 547 492 493
f 547 494 545
f 547 493 494
f 547 545 535
f 538 555 536
f 548 546 530
f 549 490 491
f 549 491 492
f 549 492 547
f 550 540 472
f 550 538 540
f 551 548 541
f 552 549 542
f 552 488 489
f 552 489 490
f 552 490 549
f 553 551 541
f 554 486 487
f 554 487 488
f 554 488 552
f 554 542 544
f 554 552 542
f 546 484 485
f 546 485 486
f 546 486 554
f 546 554 544
f 559 538 550
f 559 555 538
f 556 482 483
f 556 483 484
f 556 548 551
f 556 546 548
f 556 484 546
f 551 480 481
f 551 481 482
f 551 482 556
f 557 478 479
f 557 479 480
f 557 553 555
f 557 551 553
f 557 480 551
f 558 478 557
f 558 476 477
f 558 477 478
f 558 557 555
f 559 474 475
f 559 475 476
f 559 476 558
f 559 558 555
f 560 472 471
f 560 550 472
f 560 471 473
f 560 473 474
f 560 559 550
f 560 474 559
f 472 40 1
f 472 1 561
f 562 472 563
f 115 563 472
f 564 472 562
f 165 562 163
f 165 564 562
f 113 115 472
f 366 564 565
f 561 113 472
f 566 113 561
f 567 190 191
f 567 566 561
f 568 190 567
f 369 366 565
f 561 369 567
f 567 369 568
f 568 369 569
f 366 472 564
f 568 564 165
f 568 165 190
f 565 569 369
f 328 570 571
f 328 571 326
f 568 572 573
f 568 573 564
f 569 572 568
f 565 573 572
f 565 572 569
f 564 573 565
f 115 164 574
f 115 574 563
f 566 192 113
f 566 575 192
f 563 574 562
f 562 164 163
f 562 574 164
f 191 192 575
f 191 575 567
f 567 575 566
f 576 577 401
f 576 399 400
f 576 401 399
f 578 400 396
f 578 576 400
f 579 396 398
f 579 578 396
f 580 398 397
f 580 579 398
f 581 397 393
f 581 580 397
f 582 393 395
f 582 581 393
f 583 395 394
f 583 582 395
f 584 394 391
f 584 583 394
f 585 584 391
f 585 391 392
f 586 585 392
f 586 392 390
f 587 586 390
f 587 390 389
f 588 587 389
f 588 389 388
f 589 588 388
f 589 388 386
f 590 589 386
f 590 386 387
f 591 590 387
f 591 387 383
f 592 591 383
f 592 383 385
f 593 592 385
f 593 385 384
f 594 593 384
f 594 384 381
f 595 381 382
f 595 594 381
f 596 595 382
f 596 382 379
f 597 379 380
f 597 596 379
f 598 380 378
f 598 597 380
f 599 378 377
f 599 598 378
f 600 377 376
f 600 599 377
f 601 376 375
f 601 600 376
f 602 375 370
f 602 601 375
f 603 370 374
f 603 602 370
f 604 374 373
f 604 603 374
f 605 373 372
f 605 604 373
f 606 372 371
f 606 605 372
f 607 371 369
f 607 606 371
f 561 607 369
f 608 609 1
f 610 608 1
f 610 610 1
f 611 610 1
f 612 1 609
f 611 611 1
f 608 612 609
f 613 611 1
f 622 608 610
f 614 613 1
f 615 622 610
f 615 610 610
f 614 614 1
f 616 615 610
f 616 610 611
f 617 561 1
f 617 1 612
f 618 614 1
f 619 611 611
f 619 616 611
f 620 617 612
f 620 612 608
f 621 618 1
f 613 619 611
f 622 620 608
f 621 621 1
f 628 613 614
f 629 622 615
f 623 621 1
f 624 628 614
f 624 614 614
f 616 629 615
f 625 561 617
f 626 623 1
f 618 624 614
f 632 616 619
f 620 625 617
f 626 626 1
f 634 618 621
f 635 619 613
f 635 632 619
f 636 620 622
f 627 621 621
f 627 621 623
f 627 634 621
f 628 635 613
f 629 636 622
f 630 627 623
f 637 628 624
f 638 629 616
f 631 623 626
f 631 626 626
f 631 630 623
f 640 624 618
f 640 637 624
f 632 638 616
f 642 625 620
f 633 626 1
f 633 631 626
f 634 640 618
f 636 642 620
f 646 634 627
f 647 635 628
f 648 636 629
f 630 646 627
f 637 647 628
f 638 648 629
f 639 605 606
f 639 606 607
f 639 607 561
f 639 561 625
f 651 630 631
f 641 638 632
f 642 605 639
f 642 603 604
f 642 604 605
f 642 639 625
f 643 633 1
f 643 1 577
f 643 651 631
f 643 631 633
f 654 640 634
f 644 641 632
f 644 632 635
f 645 642 636
f 645 601 602
f 645 602 603
f 645 603 642
f 646 654 634
f 647 644 635
f 648 599 600
f 648 600 601
f 648 601 645
f 648 645 636
f 657 646 630
f 649 647 637
f 650 597 598
f 650 599 648
f 650 598 599
f 650 648 638
f 651 657 630
f 652 637 640
f 652 649 637
f 653 595 596
f 653 596 597
f 653 638 641
f 653 597 650
f 653 650 638
f 659 643 577
f 659 651 643
f 654 652 640
f 644 593 594
f 644 594 595
f 644 595 653
f 644 653 641
f 655 654 646
f 656 591 592
f 656 592 593
f 656 593 644
f 656 644 647
f 657 655 646
f 658 589 590
f 658 590 591
f 658 647 649
f 658 591 656
f 658 656 647
f 663 657 651
f 652 587 588
f 652 588 589
f 652 589 658
f 652 658 649
f 659 663 651
f 660 585 586
f 660 586 587
f 660 652 654
f 660 587 652
f 661 660 654
f 661 583 584
f 661 584 585
f 661 654 655
f 661 655 657
f 661 585 660
f 662 581 582
f 662 582 583
f 662 583 661
f 662 661 657
f 663 579 580
f 663 580 581
f 663 662 657
f 663 581 662
f 664 577 576
f 664 576 578
f 664 579 663
f 664 578 579
f 664 659 577
f 664 663 659
f 577 1 3
f 577 3 665
f 201 577 665
f 201 204 577
f 401 577 204
f 402 401 204
f 439 438 201
f 439 201 665
f 203 666 204
f 667 330 666
f 666 402 204
f 330 402 666
f 667 272 330
f 272 271 330
f 668 231 669
f 233 231 668
f 670 229 671
f 669 229 670
f 231 229 669
f 229 227 671
f 671 225 672
f 227 225 671
f 672 223 673
f 225 223 672
f 673 221 674
f 223 221 673
f 674 218 675
f 221 218 674
f 676 216 677
f 675 216 676
f 218 216 675
f 216 212 677
f 212 214 677
f 677 214 678
f 214 215 678
f 678 215 679
f 215 217 679
f 679 217 680
f 217 220 680
f 680 220 681
f 682 222 683
f 681 222 682
f 220 222 681
f 222 224 683
f 683 226 684
f 224 226 683
f 685 228 686
f 684 228 685
f 226 228 684
f 228 230 686
f 687 232 688
f 686 232 687
f 230 232 686
f 232 234 688
f 689 235 690
f 688 235 689
f 234 235 688
f 235 236 690
f 690 237 691
f 236 237 690
f 691 238 692
f 237 238 691
f 692 239 693
f 238 239 692
f 693 240 694
f 239 240 693
f 695 298 696
f 298 297 696
f 696 296 697
f 297 296 696
f 697 295 698
f 296 295 697
f 699 294 700
f 698 294 699
f 295 294 698
f 294 293 700
f 700 292 701
f 293 292 700
f 702 291 703
f 701 291 702
f 292 291 701
f 291 290 703
f 703 289 704
f 290 289 703
f 704 288 705
f 289 288 704
f 288 287 705
f 705 287 706
f 287 286 706
f 706 286 707
f 286 285 707
f 707 285 708
f 285 284 708
f 708 284 709
f 284 283 709
f 709 283 710
f 283 282 710
f 710 282 711
f 282 281 711
f 712 281 713
f 711 281 712
f 281 280 713
f 280 278 713
f 713 278 714
f 714 277 715
f 278 277 714
f 715 276 716
f 277 276 715
f 717 275 718
f 716 275 717
f 276 275 716
f 275 274 718
f 718 273 719
f 274 273 718
f 719 270 720
f 273 270 719
f 720 272 667
f 270 272 720
f 201 721 202
f 201 438 721
f 438 333 721
f 333 668 721
f 219 233 333
f 333 233 668
f 147 158 203
f 147 202 148
f 203 202 147
f 158 666 203
f 721 193 202
f 202 193 148
f 156 722 723
f 723 724 156
f 156 725 722
f 724 726 156
f 156 727 725
f 726 728 156
f 198 729 156
f 156 729 727
f 728 730 156
f 198 731 729
f 730 732 156
f 198 733 731
f 732 734 156
f 198 735 733
f 734 736 156
f 198 737 735
f 736 738 156
f 198 739 737
f 738 740 156
f 198 207 739
f 740 741 156
f 741 742 156
f 742 743 156
f 743 744 156
f 744 745 156
f 745 746 156
f 746 747 156
f 715 158 714
f 714 158 713
f 713 158 712
f 712 158 711
f 711 158 710
f 710 158 709
f 747 158 156
f 709 158 708
f 708 158 707
f 707 158 706
f 706 158 705
f 705 158 704
f 704 158 703
f 703 158 702
f 702 158 701
f 701 158 700
f 700 158 699
f 699 158 698
f 698 158 697
f 697 158 696
f 696 158 695
f 695 158 747
f 667 666 720
f 720 666 719
f 719 666 718
f 718 666 717
f 717 666 716
f 716 666 715
f 715 666 158
f 197 748 749
f 197 750 748
f 197 751 750
f 197 752 751
f 197 753 752
f 194 754 197
f 197 754 753
f 194 755 754
f 194 756 755
f 194 757 756
f 194 758 757
f 194 759 758
f 194 760 759
f 194 761 760
f 194 762 761
f 194 763 762
f 194 764 763
f 194 765 764
f 194 766 765
f 194 767 766
f 194 768 767
f 194 769 768
f 194 770 769
f 194 771 770
f 194 772 771
f 194 773 772
f 194 774 773
f 674 721 673
f 673 721 672
f 672 721 671
f 671 721 670
f 670 721 669
f 669 721 668
f 694 193 693
f 693 193 692
f 692 193 691
f 691 193 690
f 690 193 689
f 689 193 688
f 688 193 687
f 687 193 686
f 686 193 685
f 685 193 684
f 684 193 683
f 683 193 682
f 682 193 681
f 681 193 680
f 680 193 679
f 679 193 678
f 678 193 677
f 677 193 676
f 676 193 675
f 675 193 674
f 674 193 721
f 194 193 774
f 774 193 694
f 325 298 695
f 325 695 747
f 207 302 739
f 211 302 207
f 737 301 735
f 739 301 737
f 302 301 739
f 301 300 735
f 735 299 733
f 300 299 735
f 733 324 731
f 299 324 733
f 731 323 729
f 324 323 731
f 729 322 727
f 323 322 729
f 727 321 725
f 322 321 727
f 722 320 723
f 725 320 722
f 321 320 725
f 320 319 723
f 319 318 723
f 724 318 726
f 723 318 724
f 318 317 726
f 317 316 726
f 726 316 728
f 728 315 730
f 316 315 728
f 315 314 730
f 730 314 732
f 734 313 736
f 732 313 734
f 314 313 732
f 313 312 736
f 736 311 738
f 312 311 736
f 738 310 740
f 311 310 738
f 740 309 741
f 310 309 740
f 741 308 742
f 309 308 741
f 742 307 743
f 308 307 742
f 743 306 744
f 307 306 743
f 745 305 746
f 744 305 745
f 306 305 744
f 305 304 746
f 746 325 747
f 304 325 746
f 774 241 773
f 773 264 772
f 241 264 773
f 264 263 772
f 772 262 771
f 263 262 772
f 770 261 769
f 771 261 770
f 262 261 771
f 769 260 768
f 261 260 769
f 260 259 768
f 768 258 767
f 259 258 768
f 766 257 765
f 767 257 766
f 258 257 767
f 257 256 765
f 256 255 765
f 765 255 764
f 255 254 764
f 764 254 763
f 254 253 763
f 763 253 762
f 253 252 762
f 762 252 761
f 252 251 761
f 760 251 759
f 761 251 760
f 251 250 759
f 250 249 759
f 759 249 758
f 249 248 758
f 758 248 757
f 248 247 757
f 756 247 755
f 757 247 756
f 247 246 755
f 755 245 754
f 246 245 755
f 754 244 753
f 245 244 754
f 753 243 752
f 244 243 753
f 752 269 751
f 243 269 752
f 751 268 750
f 269 268 751
f 750 267 748
f 268 267 750
f 748 266 749
f 267 266 748
f 195 197 200
f 749 433 197
f 749 775 433
f 197 432 200
f 433 432 197
f 749 266 775
f 775 265 776
f 266 265 775
f 242 777 778
f 776 242 778
f 265 242 776
f 303 210 209
f 303 209 779
f 780 303 779
f 199 781 503
f 199 200 781
f 405 781 200
f 432 405 200
f 364 205 199
f 364 199 503
f 782 778 777
f 782 777 783
f 784 783 785
f 784 782 783
f 786 785 787
f 786 784 785
f 788 787 789
f 788 786 787
f 790 788 789
f 791 789 792
f 791 790 789
f 793 792 794
f 793 791 792
f 795 794 796
f 795 793 794
f 797 795 796
f 797 796 798
f 799 797 798
f 800 799 798
f 800 798 801
f 802 800 801
f 802 801 803
f 804 802 803
f 804 803 805
f 806 804 805
f 806 805 807
f 808 806 807
f 808 807 809
f 810 808 809
f 810 809 811
f 812 810 811
f 812 811 813
f 814 812 813
f 814 813 815
f 816 814 815
f 816 815 817
f 818 816 817
f 818 817 819
f 820 818 819
f 821 819 822
f 821 820 819
f 823 824 825
f 823 822 824
f 823 821 822
f 826 825 827
f 826 823 825
f 828 827 829
f 828 826 827
f 830 829 831
f 830 828 829
f 832 831 833
f 832 830 831
f 834 833 835
f 834 832 833
f 836 837 838
f 836 835 837
f 836 834 835
f 839 838 840
f 839 836 838
f 841 840 180
f 841 839 840
f 183 841 180
f 842 843 844
f 845 846 843
f 843 846 844
f 847 848 849
f 850 848 847
f 844 848 850
f 851 852 853
f 854 855 846
f 856 855 854
f 857 855 856
f 846 858 844
f 855 858 846
f 852 859 860
f 848 861 851
f 851 861 852
f 852 861 859
f 861 862 863
f 864 865 858
f 866 865 864
f 867 865 866
f 868 865 867
f 858 865 844
f 869 779 865
f 870 571 871
f 872 571 870
f 862 571 872
f 844 571 848
f 779 571 865
f 848 571 861
f 861 571 862
f 865 571 844
f 779 334 571
f 779 209 334
f 209 208 334
f 334 326 571
f 334 327 326
f 782 786 778
f 784 786 782
f 788 791 786
f 790 791 788
f 786 793 778
f 791 793 786
f 797 799 795
f 795 800 793
f 799 800 795
f 800 802 793
f 802 804 793
f 804 806 793
f 808 810 806
f 806 810 793
f 812 814 810
f 810 814 793
f 816 818 814
f 818 820 814
f 821 823 820
f 820 823 814
f 823 826 814
f 828 830 826
f 830 832 826
f 778 873 776
f 776 873 775
f 832 834 826
f 834 836 826
f 839 841 836
f 836 183 826
f 841 183 836
f 793 183 778
f 778 183 873
f 814 183 793
f 826 183 814
f 873 182 332
f 183 182 873
f 775 431 433
f 873 431 775
f 334 206 335
f 208 206 334
f 873 332 431
f 431 332 331
f 871 571 570
f 871 570 874
f 870 874 875
f 870 871 874
f 872 875 876
f 872 870 875
f 862 876 877
f 862 872 876
f 863 877 878
f 863 862 877
f 861 878 879
f 861 863 878
f 859 879 880
f 859 861 879
f 860 880 881
f 860 859 880
f 852 860 881
f 852 882 883
f 852 881 882
f 853 883 884
f 853 852 883
f 851 853 884
f 851 884 885
f 848 851 885
f 848 885 886
f 849 848 886
f 849 886 887
f 847 849 887
f 850 847 887
f 850 887 888
f 844 850 888
f 844 888 889
f 842 844 889
f 842 889 890
f 843 842 890
f 843 890 891
f 845 891 892
f 845 843 891
f 846 892 893
f 846 845 892
f 854 893 894
f 854 846 893
f 856 894 895
f 856 854 894
f 857 895 896
f 857 856 895
f 855 857 896
f 858 896 897
f 858 855 896
f 864 897 898
f 864 858 897
f 866 898 899
f 866 864 898
f 867 866 899
f 868 899 900
f 868 867 899
f 865 900 901
f 865 868 900
f 869 901 780
f 869 865 901
f 779 869 780
f 570 303 780
f 570 780 901
f 570 901 900
f 570 900 899
f 570 899 898
f 570 898 897
f 570 897 896
f 570 896 895
f 570 895 894
f 570 894 893
f 570 893 892
f 570 892 891
f 570 891 890
f 570 890 889
f 570 889 888
f 570 888 887
f 570 887 886
f 570 886 885
f 570 885 884
f 570 884 883
f 570 883 882
f 570 882 881
f 570 881 880
f 570 880 879
f 570 879 878
f 570 878 877
f 570 877 876
f 570 876 875
f 570 875 874
f 279 303 570
f 328 279 570
f 180 213 181
f 180 792 789
f 180 789 787
f 180 787 785
f 180 785 783
f 180 783 777
f 180 777 242
f 180 242 213
f 794 792 180
f 796 794 180
f 838 180 840
f 837 180 838
f 798 796 180
f 835 180 837
f 801 798 180
f 833 180 835
f 831 180 833
f 803 801 180
f 829 180 831
f 805 803 180
f 827 180 829
f 807 805 180
f 825 180 827
f 809 807 180
f 824 180 825
f 822 180 824
f 811 809 180
f 813 811 180
f 819 180 822
f 815 813 180
f 817 180 819
f 817 815 180
f 781 7 40
f 781 40 503
f 902 903 7
f 904 902 7
f 904 904 7
f 905 904 7
f 906 7 903
f 905 905 7
f 902 906 903
f 907 905 7
f 916 902 904
f 908 907 7
f 909 916 904
f 909 904 904
f 908 908 7
f 910 909 904
f 910 904 905
f 911 172 7
f 911 7 906
f 912 908 7
f 913 905 905
f 913 910 905
f 914 911 906
f 914 906 902
f 915 912 7
f 907 913 905
f 916 914 902
f 915 915 7
f 922 907 908
f 923 916 909
f 917 915 7
f 918 922 908
f 918 908 908
f 910 923 909
f 919 172 911
f 920 917 7
f 912 918 908
f 925 910 913
f 914 919 911
f 920 920 7
f 927 912 915
f 928 925 913
f 928 913 907
f 929 914 916
f 921 927 915
f 921 915 915
f 922 928 907
f 923 929 916
f 917 921 915
f 931 922 918
f 924 923 910
f 936 917 920
f 937 931 918
f 937 918 912
f 925 924 910
f 939 919 914
f 926 920 7
f 926 920 920
f 926 936 920
f 927 937 912
f 929 939 914
f 930 921 917
f 930 927 921
f 947 928 922
f 948 929 923
f 951 930 917
f 931 947 922
f 952 924 925
f 952 948 923
f 952 923 924
f 932 933 934
f 932 934 935
f 932 935 172
f 932 172 919
f 936 951 917
f 938 952 925
f 939 940 941
f 939 941 933
f 939 933 932
f 939 932 919
f 942 7 781
f 942 926 7
f 942 936 926
f 958 937 927
f 958 927 930
f 943 925 928
f 943 938 925
f 944 945 946
f 944 946 940
f 944 939 929
f 944 940 939
f 947 943 928
f 948 945 944
f 948 944 929
f 948 949 950
f 948 950 945
f 965 947 931
f 952 953 954
f 952 954 949
f 952 949 948
f 968 951 936
f 969 931 937
f 969 965 931
f 955 956 957
f 955 957 953
f 955 953 952
f 955 952 938
f 972 968 936
f 972 936 942
f 972 942 781
f 958 969 937
f 943 959 960
f 943 960 956
f 943 956 955
f 943 955 938
f 961 958 930
f 962 963 964
f 962 964 959
f 962 959 943
f 962 943 947
f 978 930 951
f 978 961 930
f 965 966 967
f 965 967 963
f 965 963 962
f 965 962 947
f 968 978 951
f 969 970 971
f 969 971 966
f 969 966 965
f 973 958 961
f 973 974 975
f 973 975 970
f 973 970 969
f 973 969 958
f 961 976 977
f 961 977 974
f 961 974 973
f 978 979 980
f 978 980 976
f 978 976 961
f 981 982 983
f 981 983 979
f 981 979 978
f 981 978 968
f 984 781 985
f 984 985 986
f 984 986 982
f 984 972 781
f 984 968 972
f 984 982 981
f 984 981 968
f 985 781 405
f 985 404 403
f 985 405 404
f 986 403 408
f 986 985 403
f 982 408 407
f 982 986 408
f 983 407 406
f 983 982 407
f 979 406 410
f 979 983 406
f 980 410 409
f 980 979 410
f 976 409 411
f 976 980 409
f 977 411 412
f 977 976 411
f 974 977 412
f 974 412 414
f 975 974 414
f 975 414 413
f 970 975 413
f 970 413 415
f 971 970 415
f 971 415 419
f 966 971 419
f 966 419 418
f 967 966 418
f 967 418 417
f 963 967 417
f 963 417 416
f 964 963 416
f 964 416 421
f 959 964 421
f 959 421 420
f 960 959 420
f 960 420 423
f 956 423 422
f 956 960 423
f 957 956 422
f 957 422 424
f 953 424 426
f 953 957 424
f 954 426 425
f 954 953 426
f 949 425 429
f 949 954 425
f 950 429 428
f 950 949 429
f 945 428 427
f 945 950 428
f 946 427 430
f 946 945 427
f 940 430 435
f 940 946 430
f 941 435 434
f 941 940 435
f 933 434 437
f 933 941 434
f 934 437 436
f 934 933 437
f 935 436 176
f 935 934 436
f 172 935 176
f 167 3 7
f 167 7 172
f 987 987 3
f 988 987 3
f 989 988 3
f 989 989 3
f 990 3 987
f 991 989 3
f 992 987 987
f 992 990 987
f 993 991 3
f 988 992 987
f 993 993 3
f 994 988 989
f 995 993 3
f 996 994 989
f 996 989 989
f 997 665 3
f 997 3 990
f 998 995 3
f 991 996 989
f 999 997 990
f 999 990 992
f 998 998 3
f 1008 991 993
f 1009 999 992
f 1009 992 988
f 1000 998 3
f 1001 993 993
f 1001 1008 993
f 1002 1009 988
f 1002 988 994
f 1000 1000 3
f 995 1001 993
f 1003 994 996
f 1003 1002 994
f 1004 665 997
f 1005 1000 3
f 1014 995 998
f 1015 996 991
f 1015 1003 996
f 999 1004 997
f 1006 1005 3
f 1007 1014 998
f 1007 998 998
f 1008 1015 991
f 1010 998 1000
f 1010 1007 998
f 1011 1008 1001
f 1017 1009 1002
f 1012 1000 1000
f 1012 1010 1000
f 1013 1011 1001
f 1013 1001 995
f 1003 1017 1002
f 1005 1012 1000
f 1014 1013 995
f 1026 1004 999
f 1016 1006 3
f 1016 1005 1006
f 1030 1014 1007
f 1031 1015 1008
f 1032 1026 999
f 1032 999 1009
f 1010 1030 1007
f 1036 1008 1011
f 1036 1031 1008
f 1017 1032 1009
f 1018 1010 1012
f 1013 1036 1011
f 1019 1017 1003
f 1020 1021 1022
f 1020 1022 1023
f 1020 1023 665
f 1020 665 1004
f 1024 1005 1016
f 1024 1018 1012
f 1024 1012 1005
f 1045 1013 1014
f 1025 1003 1015
f 1025 1019 1003
f 1026 1021 1020
f 1026 1027 1028
f 1026 1028 1021
f 1026 1020 1004
f 1029 3 167
f 1029 1016 3
f 1029 1024 1016
f 1030 1045 1014
f 1031 1025 1015
f 1032 1033 1034
f 1032 1034 1027
f 1032 1027 1026
f 1035 1030 1010
f 1037 1032 1017
f 1037 1038 1039
f 1037 1039 1033
f 1037 1033 1032
f 1040 1010 1018
f 1040 1035 1010
f 1041 1036 1013
f 1042 1043 1044
f 1042 1038 1037
f 1042 1044 1038
f 1042 1017 1019
f 1042 1037 1017
f 1024 1040 1018
f 1045 1041 1013
f 1025 1046 1047
f 1025 1047 1043
f 1025 1043 1042
f 1025 1042 1019
f 1048 1029 167
f 1048 1024 1029
f 1049 1045 1030
f 1050 1025 1031
f 1050 1051 1052
f 1050 1052 1046
f 1050 1046 1025
f 1053 1049 1030
f 1053 1030 1035
f 1054 1055 1056
f 1054 1056 1051
f 1054 1031 1036
f 1054 1051 1050
f 1054 1050 1031
f 1057 1035 1040
f 1057 1053 1035
f 1058 1059 1060
f 1058 1060 1055
f 1058 1036 1041
f 1058 1055 1054
f 1058 1054 1036
f 1061 1057 1040
f 1061 1040 1024
f 1061 1024 1048
f 1062 1059 1058
f 1062 1063 1064
f 1062 1064 1059
f 1062 1041 1045
f 1062 1058 1041
f 1065 1061 1048
f 1065 1048 167
f 1066 1067 1068
f 1066 1068 1063
f 1066 1062 1045
f 1066 1045 1049
f 1066 1063 1062
f 1069 1067 1066
f 1069 1070 1071
f 1069 1071 1067
f 1069 1066 1049
f 1069 1049 1053
f 1072 1073 1074
f 1072 1074 1070
f 1072 1053 1057
f 1072 1069 1053
f 1072 1070 1069
f 1075 1076 1077
f 1075 1077 1073
f 1075 1072 1057
f 1075 1073 1072
f 1075 1057 1061
f 1078 167 1079
f 1078 1079 1080
f 1078 1080 1076
f 1078 1061 1065
f 1078 1065 167
f 1078 1075 1061
f 1078 1076 1075
f 1079 167 178
f 1079 454 445
f 1079 178 454
f 1080 445 444
f 1080 1079 445
f 1076 444 443
f 1076 1080 444
f 1077 443 448
f 1077 1076 443
f 1073 448 447
f 1073 1077 448
f 1074 447 446
f 1074 1073 447
f 1070 446 457
f 1070 1074 446
f 1071 457 456
f 1071 1070 457
f 1067 1071 456
f 1067 456 458
f 1068 1067 458
f 1068 458 459
f 1063 1068 459
f 1063 459 462
f 1064 1063 462
f 1064 462 465
f 1059 1064 465
f 1059 465 467
f 1060 1059 467
f 1060 467 470
f 1055 1060 470
f 1055 470 468
f 1056 1055 468
f 1056 468 469
f 1051 1056 469
f 1051 469 466
f 1052 1051 466
f 1052 466 464
f 1046 464 463
f 1046 1052 464
f 1047 1046 463
f 1047 463 460
f 1043 460 461
f 1043 1047 460
f 1044 461 455
f 1044 1043 461
f 1038 455 449
f 1038 1044 455
f 1039 449 453
f 1039 1038 449
f 1033 453 452
f 1033 1039 453
f 1034 452 451
f 1034 1033 452
f 1027 451 450
f 1027 1034 451
f 1028 450 442
f 1028 1027 450
f 1021 442 440
f 1021 1028 442
f 1022 440 441
f 1022 1021 440
f 1023 441 439
f 1023 1022 441
f 665 1023 439
f 240 241 774
f 240 774 694
f 168 188 166
f 74 1081 4
f 74 4 2
f 76 149 1081
f 76 1081 74
f 4 1082 5
f 1081 1082 4
f 150 1082 1081
f 150 1081 149
f 150 151 1082
f 1082 151 1083
f 1084 110 1085
f 110 111 1085
f 152 1086 151
f 83 1086 152
f 1083 1086 1087
f 1087 1086 1088
f 151 1086 1083
f 1086 1089 1088
f 82 1089 83
f 84 1089 82
f 1088 1089 1090
f 1090 1089 1091
f 83 1089 1086
f 84 1092 1089
f 85 1092 84
f 86 1092 85
f 1089 1092 1091
f 1091 1092 1093
f 1093 1092 1094
f 87 1095 86
f 88 1095 87
f 1092 1095 1094
f 86 1095 1092
f 1094 1095 1096
f 1096 1095 1097
f 89 1098 88
f 90 1098 89
f 1097 1098 1099
f 1099 1098 1100
f 88 1098 1095
f 1095 1098 1097
f 91 1101 90
f 92 1101 91
f 1100 1101 1102
f 1102 1101 1103
f 90 1101 1098
f 1098 1101 1100
f 93 1104 92
f 94 1104 93
f 1103 1104 1105
f 1105 1104 1106
f 92 1104 1101
f 1101 1104 1103
f 94 1107 1104
f 95 1107 94
f 96 1107 95
f 1106 1107 1108
f 1108 1107 1109
f 1104 1107 1106
f 97 1110 96
f 98 1110 97
f 96 1110 1107
f 1109 1110 1111
f 1111 1110 1112
f 1107 1110 1109
f 99 1113 98
f 100 1113 99
f 1112 1113 1114
f 1114 1113 1115
f 98 1113 1110
f 1110 1113 1112
f 101 1116 100
f 102 1116 101
f 100 1116 1113
f 1115 1116 1117
f 1117 1116 1118
f 1113 1116 1115
f 103 1119 102
f 104 1119 103
f 1118 1119 1120
f 1120 1119 1121
f 1116 1119 1118
f 102 1119 1116
f 105 1122 104
f 106 1122 105
f 1121 1122 1123
f 1123 1122 1124
f 104 1122 1119
f 1119 1122 1121
f 106 1125 1122
f 1122 1125 1124
f 107 1125 106
f 108 1125 107
f 1124 1125 1126
f 1126 1125 1127
f 108 1128 1125
f 109 1128 108
f 110 1128 109
f 1125 1128 1127
f 1127 1128 1129
f 1129 1128 1084
f 1084 1128 110
f 5 1082 21
f 21 1083 20
f 1082 1083 21
f 20 1087 19
f 1083 1087 20
f 19 1088 18
f 1087 1088 19
f 18 1090 17
f 1088 1090 18
f 17 1091 16
f 1090 1091 17
f 16 1093 15
f 1091 1093 16
f 15 1094 14
f 1093 1094 15
f 14 1096 13
f 1094 1096 14
f 1096 1097 13
f 13 1097 12
f 1097 1099 12
f 12 1099 11
f 1099 1100 11
f 11 1100 10
f 10 1102 9
f 1100 1102 10
f 9 1103 8
f 1102 1103 9
f 1103 1105 8
f 8 1105 6
f 6 1106 22
f 1105 1106 6
f 22 1108 23
f 1106 1108 22
f 23 1109 24
f 1108 1109 23
f 24 1111 25
f 1109 1111 24
f 25 1112 26
f 1111 1112 25
f 26 1114 27
f 1112 1114 26
f 27 1115 28
f 1114 1115 27
f 28 1117 29
f 1115 1117 28
f 29 1118 30
f 1117 1118 29
f 30 1120 31
f 1118 1120 30
f 31 1121 32
f 1120 1121 31
f 32 1123 33
f 1121 1123 32
f 33 1124 34
f 1123 1124 33
f 34 1126 35
f 1124 1126 34
f 35 1127 36
f 1126 1127 35
f 36 1129 37
f 1127 1129 36
f 37 1084 38
f 1129 1084 37
f 1084 1085 38
f 1085 1130 72
f 1085 72 38
f 1130 1085 111
f 118 1130 111
f 118 117 1130
f 1130 117 1131
f 1132 153 73
f 153 75 73
f 119 1133 117
f 120 1133 119
f 1131 1133 1134
f 1134 1133 1135
f 117 1133 1131
f 1133 1136 1135
f 121 1136 120
f 122 1136 121
f 1135 1136 1137
f 1137 1136 1138
f 120 1136 1133
f 122 1139 1136
f 123 1139 122
f 124 1139 123
f 1136 1139 1138
f 1138 1139 1140
f 1140 1139 1141
f 125 1142 124
f 126 1142 125
f 1139 1142 1141
f 124 1142 1139
f 1141 1142 1143
f 1143 1142 1144
f 127 1145 126
f 128 1145 127
f 1144 1145 1146
f 1146 1145 1147
f 126 1145 1142
f 1142 1145 1144
f 129 1148 128
f 130 1148 129
f 1147 1148 1149
f 1149 1148 1150
f 128 1148 1145
f 1145 1148 1147
f 131 1151 130
f 132 1151 131
f 1150 1151 1152
f 1152 1151 1153
f 130 1151 1148
f 1148 1151 1150
f 132 1154 1151
f 133 1154 132
f 134 1154 133
f 1153 1154 1155
f 1155 1154 1156
f 1151 1154 1153
f 135 1157 134
f 136 1157 135
f 134 1157 1154
f 1156 1157 1158
f 1158 1157 1159
f 1154 1157 1156
f 137 1160 136
f 138 1160 137
f 1159 1160 1161
f 1161 1160 1162
f 136 1160 1157
f 1157 1160 1159
f 139 1163 138
f 140 1163 139
f 138 1163 1160
f 1162 1163 1164
f 1164 1163 1165
f 1160 1163 1162
f 141 1166 140
f 142 1166 141
f 1165 1166 1167
f 1167 1166 1168
f 1163 1166 1165
f 140 1166 1163
f 143 1169 142
f 144 1169 143
f 1168 1169 1170
f 1170 1169 1171
f 142 1169 1166
f 1166 1169 1168
f 144 1172 1169
f 1169 1172 1171
f 145 1172 144
f 146 1172 145
f 1171 1172 1173
f 1173 1172 1174
f 146 1175 1172
f 154 1175 146
f 153 1175 154
f 1172 1175 1174
f 1174 1175 1176
f 1176 1175 1132
f 1132 1175 153
f 72 1130 71
f 71 1131 70
f 1130 1131 71
f 70 1134 69
f 1131 1134 70
f 69 1135 68
f 1134 1135 69
f 68 1137 67
f 1135 1137 68
f 67 1138 66
f 1137 1138 67
f 66 1140 65
f 1138 1140 66
f 65 1141 64
f 1140 1141 65
f 64 1143 63
f 1141 1143 64
f 1143 1144 63
f 63 1144 62
f 1144 1146 62
f 62 1146 61
f 1146 1147 61
f 61 1147 60
f 60 1149 59
f 1147 1149 60
f 59 1150 58
f 1149 1150 59
f 1150 1152 58
f 58 1152 57
f 57 1153 56
f 1152 1153 57
f 56 1155 55
f 1153 1155 56
f 55 1156 54
f 1155 1156 55
f 54 1158 53
f 1156 1158 54
f 53 1159 52
f 1158 1159 53
f 52 1161 51
f 1159 1161 52
f 51 1162 50
f 1161 1162 51
f 50 1164 49
f 1162 1164 50
f 49 1165 48
f 1164 1165 49
f 48 1167 47
f 1165 1167 48
f 47 1168 46
f 1167 1168 47
f 46 1170 45
f 1168 1170 46
f 45 1171 44
f 1170 1171 45
f 44 1173 43
f 1171 1173 44
f 43 1174 42
f 1173 1174 43
f 42 1176 41
f 1174 1176 42
f 41 1132 39
f 1176 1132 41
f 1132 73 39
