# Render LOD; unchanged CAD body-local coordinates in mm
v -62.4905908 84.7652771 143.0750065
v -63.1406092 84.7652771 142.4249935
v -62.4905908 84.7652771 142.4249935
v -63.1406092 84.7650084 143.3745854
v -62.4859915 84.7652771 143.3816599
v -61.8656000 84.7652771 143.0750065
v -61.8656000 84.7652771 143.4750065
v -62.3989179 84.7662947 143.4664224
v -63.1406092 84.0882129 143.9749805
v -63.1406092 84.0841861 143.8986097
v -63.1406092 84.5902866 143.9749805
v -63.1406092 84.0014542 143.8073836
v -63.1406092 84.6702326 143.3896982
v -63.1406092 84.6828546 142.4216777
v -63.1406092 83.8809136 143.1435872
v -63.1406092 83.7441288 143.8118821
v -63.1406092 84.5973699 143.4696002
v -63.1406092 83.7838026 143.2205647
v -63.1406092 84.6325792 142.3795218
v -63.1406092 84.8161858 142.0009454
v -63.1406092 85.3403256 141.4249935
v -63.1406092 85.4152550 141.9999870
v -63.1406092 85.4152550 141.4249935
v -63.1406092 83.1188771 143.2287792
v -63.1406092 83.7147572 143.8995947
v -63.1406092 82.8664785 143.3665930
v -63.1406092 85.3311565 140.9008734
v -63.1406092 82.5972670 143.4231507
v -63.1406092 85.2163021 140.7834740
v -63.1406092 83.8903248 141.6249935
v -63.1406092 84.6732305 142.0761366
v -63.1406092 84.7438687 142.0231777
v -63.1406092 84.6304981 142.1728430
v -63.1406092 83.8865085 141.5916342
v -63.1406092 84.4183159 140.8615147
v -63.1406092 84.7746782 142.0104150
v -63.1406092 84.3553526 140.9101297
v -63.1406092 84.3237054 140.9212322
v -63.1406092 81.3155787 143.8996727
v -63.1406092 82.3156006 143.4104200
v -63.1406092 82.1267374 143.3463943
v -63.1406092 84.2902897 140.9250195
v -63.1406092 83.8695636 141.5472653
v -63.1406092 83.7973669 141.4813588
v -63.1406092 84.4403347 140.7749805
v -63.1406092 81.9059422 143.2291225
v -63.1406092 81.2908063 143.8137847
v -63.1406092 83.7745788 140.9229387
v -63.1406092 83.1175519 141.4734041
v -63.1406092 81.0291458 143.8073836
v -63.1406092 81.2503789 143.2210972
v -63.1406092 80.4403134 143.9749805
v -63.1406092 80.9423871 143.9749805
v -63.1406092 82.8489609 141.3271509
v -63.1406092 83.7227611 140.8854899
v -63.1406092 83.7153343 140.7999870
v -63.1406092 80.4347727 143.4724115
v -63.1406092 80.9484740 143.8947942
v -63.1406092 82.4823370 141.2691399
v -63.1406092 81.1510692 143.1485595
v -63.1406092 80.4005146 142.3679310
v -63.1406092 80.3603674 143.3896982
v -63.1406092 80.3596160 142.4185359
v -63.1406092 80.2655916 143.3745854
v -63.1406092 81.1402752 141.6249935
v -63.1406092 80.2653229 142.4249935
v -63.1406092 80.3979955 142.1576122
v -63.1406092 80.3447163 142.0641259
v -63.1406092 80.2867313 142.0231777
v -63.1406092 81.1440915 141.5916342
v -63.1406092 81.2467974 141.4794353
v -63.1406092 81.9125640 141.4744829
v -63.1406092 81.3159152 140.8007574
v -63.1406092 82.1440669 141.3426568
v -63.1406092 81.2888452 140.9138735
v -63.1406092 81.1685140 141.5334386
v -63.1406092 80.7403103 140.9250195
v -63.1406092 80.7068946 140.9212322
v -63.1406092 80.2559218 142.0104150
v -63.1406092 80.6752474 140.9101297
v -63.1406092 79.6902744 141.4249935
v -63.1406092 79.6153450 141.9999870
v -63.1406092 80.2144142 142.0009454
v -63.1406092 79.6153450 141.4249935
v -63.1406092 80.6122841 140.8615147
v -63.1406092 80.5902653 140.7749805
v -63.1406092 79.7006503 140.8957964
v -63.1406092 79.8163244 140.7840987
v -63.2906000 83.1180360 141.4744829
v -63.2906000 83.7802211 141.4789028
v -63.2906000 85.3392114 140.9497664
v -63.2906000 85.3041424 140.8539799
v -63.2906000 85.1977524 140.7806234
v -63.2906000 85.3403256 141.4249935
v -63.2906000 84.4455469 140.7787910
v -63.2906000 84.3989959 140.8795997
v -63.2825577 85.4751686 141.4249935
v -63.2906000 84.8402996 141.9999870
v -63.2906000 84.8070700 142.0026329
v -63.2906000 84.3553526 140.9101297
v -63.2906000 84.7746782 142.0104150
v -63.2906000 84.3237054 140.9212322
v -63.2906000 84.7438687 142.0231777
v -63.2906000 83.8566861 141.5266662
v -63.2906000 84.2902897 140.9250195
v -63.2906000 83.7703944 140.9216903
v -63.2906000 83.8865085 141.5916342
v -63.2906000 83.8903248 141.6249935
v -63.2906000 84.6321419 142.1560501
v -63.2906000 84.6919162 142.0580949
v -63.2906000 83.7201445 140.8796527
v -63.2906000 83.7153343 140.7999870
v -63.2906000 82.8638556 141.3325319
v -63.2906000 84.7652771 143.3749805
v -63.2913965 84.7223783 142.4255572
v -63.2906000 84.6689800 143.3864321
v -63.2906000 84.6414951 142.4003790
v -63.2906000 83.8772658 143.1513031
v -63.2906000 84.5936748 143.4840467
v -63.2908718 81.3158083 140.8365683
v -63.2906000 82.5230740 141.2701647
v -63.2906000 82.1816391 141.3271509
v -63.2906000 81.2864712 140.9131244
v -63.2906000 81.9130481 141.4734041
v -63.2906000 84.0831363 143.8987815
v -63.2906000 84.5902866 143.9749805
v -63.2906000 83.7775036 143.2221231
v -63.2906000 84.0084052 143.8102679
v -63.2906000 84.0882129 143.9749805
v -63.2906000 83.1172664 143.2297922
v -63.2906000 83.7417548 143.8111330
v -63.2906000 81.2530964 141.4778769
v -63.2906000 82.9676152 143.3172096
v -63.2906000 83.7153343 143.8799870
v -63.2906000 80.7403103 140.9250195
v -63.2906000 81.1739139 141.5266662
v -63.2906000 82.9038626 143.3463943
v -63.2906000 83.7153343 143.9000130
v -63.2906000 81.1440915 141.5916342
v -63.2906000 80.7068946 140.9212322
v -63.2906000 82.7800340 143.3909275
v -63.2906000 82.5152976 143.4294520
v -63.2906000 79.8478389 140.7776854
v -63.2906000 80.5886532 140.7762005
v -63.2906000 79.7570424 140.8232887
v -63.2906000 79.6946975 140.9205092
v -63.2906000 81.9133336 143.2297922
v -63.2906000 81.1402752 141.6249935
v -63.2906000 80.3386838 142.0580949
v -63.2906000 79.6902744 141.4249935
v -63.2906000 80.6185367 140.8666012
v -63.2906000 80.3984581 142.1560501
v -63.2906000 80.2867313 142.0231777
v -63.2906000 80.2559218 142.0104150
v -63.2906000 80.6752474 140.9101297
v -63.2906000 80.2151225 142.0013031
v -63.2906000 80.3910132 142.3960253
v -63.2842093 79.5581297 141.9999870
v -63.2908824 81.3115881 143.8442513
v -63.2906000 81.2493627 143.2216668
v -63.2906000 81.2560212 143.8020678
v -63.2906000 82.1790614 143.3720303
v -63.2906000 81.1517914 143.1463933
v -63.2906000 80.3818202 143.4031848
v -63.2906000 80.4357946 143.4814085
v -63.2906000 81.0221948 143.8102679
v -63.2910655 80.2413798 143.3717165
v -63.2906000 80.4403134 143.9749805
v -63.2906000 80.9423871 143.9749805
v -63.2906000 80.9456376 143.9025054
v -63.1739864 84.9115058 142.4249935
v -63.1406092 84.9153221 142.4249935
v -63.2056893 84.9004293 142.4249935
v -63.2341306 84.8825580 142.4249935
v -63.2578751 84.8588225 142.4249935
v -63.2757488 84.8303401 142.4249935
v -63.2868383 84.7986928 142.4249935
v -62.4905908 84.9153221 142.4249935
v -62.4905908 84.9153221 143.0750065
v -61.8656000 84.9153221 143.0750065
v -61.8656003 84.9087015 143.4728267
v -61.8656000 84.5379757 143.9408949
v -61.8656000 84.4227426 143.8980415
v -62.4928847 84.9153224 143.3794984
v -63.1406092 84.9153221 143.3749805
v -62.3997008 84.9135314 143.4630516
v -62.3991786 84.4227426 143.8980415
v -62.3991786 84.5379757 143.9408949
v -63.1739864 84.9115058 143.3749805
v -63.2868383 84.7986928 143.3749805
v -63.2757488 84.8303401 143.3749805
v -63.2056893 84.9004293 143.3749805
v -63.2341306 84.8825580 143.3749805
v -63.2578751 84.8588225 143.3749805
v -63.1406092 83.7153343 144.0500000
v -62.6379950 83.7097873 143.9000130
v -63.1739864 83.7153343 144.0462646
v -63.2868383 83.7153343 143.9333722
v -63.2056893 83.7153343 144.0351621
v -63.2757488 83.7153343 143.9650713
v -63.2341306 83.7153343 144.0172633
v -63.2578751 83.7153343 143.9935019
v -62.5486513 83.6251585 143.9000130
v -62.5499418 81.3967691 143.9000130
v -62.6496601 81.3186530 143.9000130
v -63.2868383 81.3152657 143.9333722
v -63.2757488 81.3152657 143.9650713
v -63.2578751 81.3152657 143.9935019
v -63.2341306 81.3152657 144.0172633
v -63.2056893 81.3152657 144.0351621
v -63.1739864 81.3152657 144.0462646
v -63.1406092 81.3152657 144.0500000
v -63.2341306 80.1480420 143.3749805
v -63.2056893 80.1301707 143.3749805
v -63.1739864 80.1190942 143.3749805
v -63.1406092 80.1152779 143.3749805
v -63.2578751 80.1717775 143.3749805
v -63.1406092 80.1152779 142.4249935
v -62.4905908 80.1152779 142.4249935
v -62.4905908 80.1152779 143.0750065
v -62.4706369 80.1144257 143.3849626
v -61.8656000 80.1152779 143.0750065
v -61.8656000 80.2653229 143.0750065
v -61.8656000 80.2653229 143.4750065
v -61.8656011 80.1214911 143.4741854
v -61.8656000 80.4926243 143.9408949
v -61.8656000 80.6078574 143.8980415
v -62.3991786 80.4926243 143.9408949
v -62.3990004 80.2642951 143.4663377
v -62.3984715 80.1258922 143.4822663
v -62.3991786 80.6078574 143.8980415
v -62.4859915 80.2653229 143.3816599
v -62.4905908 80.2653229 143.0750065
v -62.4905908 80.2653229 142.4249935
v -63.2887950 80.2231662 142.4281913
v -63.2341306 80.1480420 142.4249935
v -63.2056893 80.1301707 142.4249935
v -63.1739864 80.1190942 142.4249935
v -61.8656000 79.4653000 141.9999870
v -61.8656000 79.6153450 141.9999870
v -63.1930608 79.4707485 141.9999870
v -62.4985996 79.4653012 141.4214952
v -63.2003024 79.4732843 141.4249935
v -61.8655985 79.4687084 141.2883606
v -62.4133069 79.4643694 141.3594957
v -62.4687440 79.6153476 141.4135155
v -62.3981866 79.6153393 141.3258018
v -62.3905897 79.6153450 141.2750065
v -62.3905897 79.5056037 141.2317899
v -62.3905897 79.8495344 140.8629183
v -62.3905897 79.9400082 140.9268353
v -62.3903299 79.4787018 141.2708522
v -61.8656000 79.8495344 140.8629183
v -61.8656000 79.5056037 141.2317899
v -61.8656000 79.6153450 141.2750065
v -61.8656000 79.9400082 140.9268353
v -63.2835745 79.5598923 141.4249935
v -63.1739864 81.3152657 140.6537354
v -63.1406092 81.3152657 140.6500000
v -63.2056893 81.3152657 140.6648379
v -63.2341306 81.3152657 140.6827367
v -63.2578751 81.3152657 140.7064981
v -63.2757488 81.3152657 140.7349287
v -63.2868383 81.3152657 140.7666278
v -62.6351801 81.3223571 140.7999870
v -62.6306952 83.7072168 140.7999870
v -62.5476239 83.6206570 140.7999870
v -62.5469968 81.4081475 140.7999870
v -62.6379950 83.7097873 140.6500000
v -63.1406092 83.7153343 140.6500000
v -63.2056893 83.7153343 140.6648379
v -63.2341306 83.7153343 140.6827367
v -63.1739864 83.7153343 140.6537354
v -63.2578751 83.7153343 140.7064981
v -63.2757488 83.7153343 140.7349287
v -63.2868383 83.7153343 140.7666278
v -63.1958083 85.5583405 141.4249935
v -62.4064372 85.5659099 141.3444733
v -62.4820642 85.5652983 141.4183235
v -61.8656000 85.5653000 141.9999870
v -63.1976207 85.5589570 141.9999870
v -61.8656000 85.4152550 141.2750065
v -61.8656000 85.1810656 140.8629183
v -61.8656000 85.0905918 140.9268353
v -61.8655981 85.5605997 141.2808653
v -61.8656000 85.4152550 141.9999870
v -62.3905897 85.1810656 140.8629183
v -62.3905897 85.0905918 140.9268353
v -62.3883611 85.4176008 141.2893283
v -62.3900740 85.5478667 141.2601519
v -62.4687440 85.4152524 141.4135155
v -63.2850985 85.4679359 141.9999870
v -62.5469968 83.6224525 140.6500000
v -62.5476239 81.4099430 140.6500000
v -62.6334333 81.3217106 140.6500000
v -62.5460986 83.6178793 144.0500000
v -62.6306952 83.7072168 144.0500000
v -62.6351801 81.3223571 144.0500000
v -62.5486513 81.4054415 144.0500000
f 1 2 3
f 1 4 2
f 5 4 1
f 8 5 1
f 6 8 1
f 7 8 6
f 9 10 11
f 11 10 17
f 10 12 17
f 13 14 4
f 4 14 2
f 12 15 17
f 12 18 15
f 16 18 12
f 14 15 19
f 17 15 13
f 13 15 14
f 20 21 22
f 22 21 23
f 16 24 18
f 25 26 16
f 16 26 24
f 25 28 26
f 21 29 27
f 15 30 19
f 19 30 33
f 31 30 32
f 33 30 31
f 30 34 32
f 21 35 29
f 20 35 21
f 36 37 20
f 20 37 35
f 32 38 36
f 34 38 32
f 36 38 37
f 25 39 28
f 40 39 41
f 28 39 40
f 34 42 38
f 43 42 34
f 44 42 43
f 35 45 29
f 41 39 46
f 39 47 46
f 44 48 42
f 44 55 48
f 44 49 55
f 47 51 46
f 50 51 47
f 53 52 58
f 50 60 51
f 49 54 55
f 55 54 56
f 58 57 50
f 52 57 58
f 54 59 56
f 50 57 60
f 57 62 60
f 63 61 60
f 62 63 60
f 64 63 62
f 60 61 65
f 64 66 63
f 61 67 65
f 67 68 65
f 68 69 65
f 65 69 70
f 71 75 72
f 72 75 74
f 75 73 74
f 76 75 71
f 74 73 59
f 59 73 56
f 76 77 75
f 70 77 76
f 69 78 70
f 70 78 77
f 79 78 69
f 79 80 78
f 83 80 79
f 83 85 80
f 83 81 85
f 82 81 83
f 82 84 81
f 85 88 86
f 81 88 85
f 87 88 81
f 89 49 44
f 89 44 90
f 93 91 92
f 94 91 93
f 96 94 93
f 96 93 95
f 292 97 94
f 98 292 94
f 99 96 100
f 99 94 96
f 99 98 94
f 101 100 102
f 101 99 100
f 103 101 102
f 104 105 106
f 90 104 106
f 107 105 104
f 107 102 105
f 107 103 102
f 108 109 110
f 108 110 103
f 108 117 109
f 108 103 107
f 90 106 111
f 89 90 111
f 113 89 111
f 113 111 112
f 121 113 112
f 116 114 115
f 116 115 117
f 118 117 108
f 118 116 117
f 118 119 116
f 120 121 112
f 120 122 121
f 123 122 120
f 123 124 122
f 125 119 128
f 128 119 118
f 125 126 119
f 128 118 127
f 129 126 125
f 131 128 127
f 131 127 130
f 132 124 123
f 133 134 131
f 133 131 130
f 136 123 135
f 136 132 123
f 137 138 134
f 137 134 133
f 139 135 140
f 139 136 135
f 141 138 137
f 142 138 141
f 143 151 144
f 146 143 145
f 150 143 146
f 150 151 143
f 152 148 149
f 153 148 139
f 153 149 148
f 153 139 140
f 154 140 155
f 154 153 140
f 156 155 151
f 156 151 150
f 156 154 155
f 157 148 152
f 157 163 148
f 158 150 257
f 158 156 150
f 159 147 160
f 159 162 147
f 161 159 160
f 159 138 142
f 159 142 162
f 166 161 160
f 166 160 163
f 165 163 164
f 164 163 157
f 165 166 163
f 167 164 157
f 167 157 235
f 165 170 166
f 168 170 165
f 168 169 170
f 71 136 76
f 132 136 71
f 76 139 70
f 136 139 76
f 70 148 65
f 139 148 70
f 72 132 71
f 124 132 72
f 49 113 54
f 89 113 49
f 54 121 59
f 113 121 54
f 121 122 59
f 59 122 74
f 74 124 72
f 122 124 74
f 148 163 60
f 148 60 65
f 60 160 51
f 163 160 60
f 160 147 46
f 160 46 51
f 147 162 46
f 46 162 41
f 41 162 40
f 162 142 40
f 40 142 28
f 142 141 28
f 28 141 26
f 141 137 26
f 137 133 26
f 133 130 26
f 26 130 24
f 24 127 18
f 130 127 24
f 18 118 15
f 127 118 18
f 15 108 30
f 118 108 15
f 30 108 34
f 34 107 43
f 108 107 34
f 107 104 43
f 43 104 44
f 104 90 44
f 117 19 109
f 19 33 109
f 19 117 14
f 117 115 14
f 2 171 172
f 2 173 171
f 2 174 173
f 2 175 174
f 2 176 175
f 2 177 176
f 2 115 177
f 14 115 2
f 178 2 172
f 3 2 178
f 179 1 178
f 178 1 3
f 6 1 180
f 180 1 179
f 181 7 6
f 181 6 180
f 182 183 7
f 182 7 181
f 186 181 180
f 179 184 186
f 179 186 180
f 185 184 179
f 172 179 178
f 172 185 179
f 8 186 5
f 186 184 5
f 187 188 8
f 8 188 186
f 186 188 182
f 186 182 181
f 187 183 182
f 188 187 182
f 183 8 7
f 187 8 183
f 4 5 184
f 114 116 4
f 185 4 184
f 189 4 185
f 190 114 4
f 191 190 4
f 192 4 189
f 193 4 192
f 194 191 4
f 194 4 193
f 119 17 116
f 17 13 116
f 13 4 116
f 126 11 119
f 119 11 17
f 129 9 126
f 126 9 11
f 9 129 10
f 10 129 125
f 128 10 125
f 12 10 128
f 131 16 12
f 131 12 128
f 134 25 131
f 25 16 131
f 195 297 196
f 195 196 25
f 138 25 134
f 197 195 25
f 198 25 138
f 199 197 25
f 200 25 198
f 201 199 25
f 202 25 200
f 202 201 25
f 203 25 196
f 203 204 25
f 204 39 25
f 205 39 204
f 39 206 159
f 39 207 206
f 39 208 207
f 209 208 39
f 210 209 39
f 211 210 39
f 212 211 39
f 205 212 39
f 298 212 205
f 161 47 159
f 47 39 159
f 161 50 47
f 166 50 161
f 170 58 166
f 58 50 166
f 169 53 170
f 170 53 58
f 169 52 53
f 168 52 169
f 52 168 57
f 57 168 165
f 167 62 164
f 64 62 167
f 164 57 165
f 62 57 164
f 64 221 232
f 64 213 214
f 64 214 215
f 64 215 216
f 64 216 221
f 217 213 64
f 167 217 64
f 218 219 220
f 221 220 222
f 221 222 225
f 216 218 220
f 216 220 221
f 225 222 223
f 224 225 223
f 226 225 224
f 227 226 224
f 226 230 225
f 228 230 226
f 230 228 229
f 228 231 229
f 230 229 221
f 229 232 221
f 233 234 66
f 229 223 233
f 232 229 233
f 229 224 223
f 64 233 66
f 64 232 233
f 66 235 63
f 236 235 66
f 237 236 66
f 238 237 66
f 218 238 66
f 234 218 66
f 219 218 234
f 235 157 63
f 63 157 61
f 67 61 152
f 152 61 157
f 67 152 68
f 152 149 68
f 68 149 69
f 69 153 79
f 149 153 69
f 79 154 83
f 153 154 79
f 154 156 83
f 82 239 240
f 82 241 239
f 158 241 82
f 83 158 82
f 156 158 83
f 242 241 243
f 239 242 245
f 239 241 242
f 239 245 244
f 242 246 245
f 246 247 245
f 247 252 245
f 247 248 252
f 249 248 250
f 250 248 251
f 249 248 249
f 252 248 249
f 250 253 254
f 249 250 254
f 255 244 254
f 255 254 253
f 255 253 256
f 240 239 244
f 240 244 255
f 82 246 84
f 247 255 248
f 246 255 247
f 82 240 246
f 246 240 255
f 248 255 256
f 251 248 256
f 251 256 253
f 250 251 253
f 84 257 150
f 84 150 81
f 243 257 84
f 242 84 246
f 242 243 84
f 81 146 87
f 150 146 81
f 87 146 145
f 88 87 145
f 88 145 143
f 143 144 86
f 88 143 86
f 77 78 135
f 135 78 140
f 140 80 155
f 78 80 140
f 155 85 151
f 80 85 155
f 151 85 144
f 85 86 144
f 135 75 77
f 135 123 75
f 73 75 120
f 120 75 123
f 73 258 259
f 73 260 258
f 73 261 260
f 73 262 261
f 73 263 262
f 73 264 263
f 73 120 264
f 295 73 259
f 265 73 295
f 56 267 266
f 73 268 56
f 56 268 267
f 73 265 268
f 56 266 269
f 56 269 270
f 56 271 272
f 56 273 271
f 56 270 273
f 274 56 272
f 275 56 274
f 276 56 275
f 112 56 276
f 111 55 56
f 111 56 112
f 55 106 48
f 111 106 55
f 48 105 42
f 106 105 48
f 45 35 95
f 95 35 96
f 96 35 100
f 100 37 102
f 35 37 100
f 102 38 105
f 37 38 102
f 38 42 105
f 95 93 29
f 45 95 29
f 29 93 92
f 27 29 92
f 27 92 91
f 91 94 21
f 91 21 27
f 23 97 277
f 21 94 97
f 21 97 23
f 279 23 277
f 291 23 279
f 279 285 278
f 280 285 279
f 281 279 277
f 281 280 279
f 285 282 283
f 283 282 284
f 280 286 285
f 285 286 282
f 290 285 283
f 287 290 283
f 288 289 287
f 289 290 287
f 290 289 278
f 278 291 279
f 289 291 278
f 282 291 289
f 282 286 291
f 291 22 23
f 286 22 291
f 289 288 284
f 289 284 282
f 288 287 283
f 288 283 284
f 22 286 280
f 292 98 20
f 292 20 22
f 281 22 280
f 281 292 22
f 281 277 97
f 292 281 97
f 98 99 20
f 20 101 36
f 99 101 20
f 36 103 32
f 101 103 36
f 32 110 31
f 103 110 32
f 110 109 31
f 31 109 33
f 285 290 278
f 273 270 259
f 273 259 258
f 271 258 260
f 271 273 258
f 272 260 261
f 272 271 260
f 274 261 262
f 274 272 261
f 275 262 263
f 275 274 262
f 276 263 264
f 276 275 263
f 112 264 120
f 112 276 264
f 270 269 293
f 294 270 293
f 259 270 294
f 259 294 295
f 267 268 293
f 293 268 294
f 293 266 267
f 293 269 266
f 295 268 265
f 295 294 268
f 243 241 158
f 257 243 158
f 249 249 254
f 249 254 244
f 252 249 244
f 245 252 244
f 218 216 215
f 238 215 214
f 238 218 215
f 237 214 213
f 237 238 214
f 236 213 217
f 236 237 213
f 235 217 167
f 235 236 217
f 234 233 219
f 233 220 219
f 223 220 233
f 222 220 223
f 229 231 227
f 229 227 224
f 231 228 226
f 231 226 227
f 230 221 225
f 138 159 206
f 198 206 207
f 198 138 206
f 200 207 208
f 200 198 207
f 202 208 209
f 202 200 208
f 201 209 210
f 201 202 209
f 199 210 211
f 199 201 210
f 197 211 212
f 197 199 211
f 195 197 212
f 195 296 297
f 299 296 195
f 212 299 195
f 212 298 299
f 296 299 204
f 296 204 203
f 204 299 298
f 205 204 298
f 203 297 296
f 203 196 297
f 177 115 114
f 177 114 190
f 176 190 191
f 176 177 190
f 175 191 194
f 175 176 191
f 174 194 193
f 174 175 194
f 173 193 192
f 173 174 193
f 171 192 189
f 171 173 192
f 172 189 185
f 172 171 189
