# Render LOD; unchanged CAD body-local coordinates in mm
v -68.2801638 76.7793340 117.0000163
v -68.4759992 76.2975696 117.0000168
v -68.4121733 76.3957723 116.0205992
v -68.9064424 75.9066309 117.0000171
v -68.7479667 76.0175759 115.9853611
v -69.4336658 75.7623083 117.0000164
v -69.1596305 75.8069896 115.9514466
v -69.5196682 75.7657943 115.9277338
v -69.9214775 75.8336173 117.0000161
v -70.3428670 76.0913518 117.0000168
v -70.1882469 75.9669556 115.8761274
v -70.6556857 76.5392625 117.0000161
v -70.7329374 76.9615770 117.0000164
v -70.7368300 77.0058029 115.9013557
v -70.7236702 76.8051106 115.8070734
v -70.7325426 77.0004811 116.3403709
v -70.6948401 77.3318857 117.0000164
v -70.7017583 77.2910678 116.3189245
v -70.6835906 77.3476112 115.8737849
v -70.4495324 77.8003219 117.0000163
v -70.6957419 77.3318260 115.7696625
v -70.5313692 77.6773857 115.7390700
v -70.5412839 77.6689269 116.2927901
v -70.0378965 78.1166292 117.0000171
v -70.2664171 77.9757842 115.7153068
v -69.6853132 78.2197494 117.0000163
v -69.9466589 78.1503665 115.6870589
v -69.7830599 78.2021795 116.2244193
v -69.3175499 78.2259367 117.0000168
v -69.3489693 78.2248608 115.6433513
v -69.4456609 78.2401167 116.1998410
v -69.1518934 78.1869694 115.7375310
v -68.9678381 78.1130779 117.0000163
v -68.6595734 77.9110055 117.0000164
v -68.9994824 78.1356450 115.6162458
v -68.7148604 77.9638604 115.7029074
v -68.7177240 77.9635568 116.1464448
v -68.3704246 77.5120570 117.0000160
v -68.4810715 77.6957989 115.5690968
v -68.4883594 77.7086598 116.1199465
v -68.2749625 77.1460650 117.0000164
v -68.3354804 77.4168536 115.5452665
v -68.2749112 77.1451944 116.0766045
v -68.2616291 76.9974684 115.5176404
v -68.2871449 76.7732971 115.6070735
v -68.4031041 76.4244095 115.5799497
v -68.3358640 76.5855817 115.4854825
v -68.7279301 76.0283441 115.5469743
v -68.5041908 76.2630387 115.4599911
v -68.9374149 75.8909269 115.4210052
v -69.5236484 75.7566135 115.3760761
v -70.6736274 76.5885643 115.3794079
v -70.4717954 76.2354115 115.3015314
v -70.7339384 77.0851216 115.3450372
v -70.7202261 76.7990915 115.2578354
v -70.5523297 77.6501301 115.3017454
v -70.7134425 77.2713389 115.2243461
v -70.4886385 77.7444932 115.1875149
v -70.2939692 77.9571862 115.1630817
v -69.4563137 78.2428762 115.2093593
v -69.8655444 78.1813807 115.1315704
v -69.2590868 78.2132222 115.0856763
v -68.8913485 78.0764619 115.0602420
v -68.6449747 77.8945783 115.1436559
v -68.3568405 77.4838157 115.1088316
v -68.4361910 77.6275716 115.0140622
v -68.2593743 76.9776872 115.0741062
v -68.2911808 77.2700706 114.9876469
v -68.2685873 76.8960016 114.9596328
v -68.4642173 76.3274756 114.9170297
v -68.8848893 75.9268712 114.9835545
v -69.0550296 75.8389356 114.8635306
v -69.3576688 75.7719592 114.8401653
v -70.5585442 76.3472096 114.8484420
v -70.2891338 76.0475697 114.7666843
v -70.7407492 76.9157878 114.8066070
v -70.6431373 76.5276003 114.7248162
v -70.7288563 76.8855694 114.7009006
v -70.6669146 77.4103340 114.7706376
v -70.7245434 77.2169551 114.6750434
v -70.4192178 77.8372581 114.7308498
v -69.7029394 78.2268852 114.6762073
v -70.1049390 78.0785236 114.6001082
v -69.6250701 78.2373614 114.5622873
v -68.8397030 78.0480809 114.6107376
v -69.0429547 78.1563677 114.5232164
v -68.5496864 77.8016084 114.4765271
v -68.3611772 77.4789190 114.4518047
v -68.2753889 76.8278974 114.5131677
v -68.3903432 76.4535180 114.4852246
v -68.3731103 76.4811652 114.3804093
v -68.6206346 76.1302996 114.4572154
v -68.6389973 76.1123051 114.3458337
v -69.0032883 75.8620749 114.4239637
v -69.5701906 75.7587309 114.3801387
v -69.0625373 75.8353904 114.3143887
v -69.4328238 75.7692328 114.2844765
v -70.0394929 75.8869479 114.3486276
v -69.7553848 75.7897964 114.2591608
v -70.4979348 76.2692173 114.3066652
v -70.3074898 76.0630919 114.2183050
v -70.7093838 76.7102393 114.2707241
v -70.6038541 76.4277116 114.1861775
v -70.7058597 76.7310487 114.1619170
v -70.2687444 77.9776232 114.1710723
v -70.4830539 77.7616428 114.0824788
v -69.8185826 78.1951499 114.1367092
v -69.6335443 78.2361682 114.0164017
v -69.3292272 78.2248901 113.9939213
v -68.8255779 78.0392025 114.0632564
v -68.9436952 78.1048246 113.9626550
v -68.7014004 77.9413729 113.9410828
v -68.4883104 77.7082865 113.9213514
v -68.3002466 77.3175258 113.8901261
v -68.2871927 76.7422999 113.9557297
v -68.2785195 76.7905129 113.8545783
v -68.4561810 76.3393693 113.9261521
v -68.6861283 76.0685924 113.9006458
v -68.5662738 76.1922679 113.8055793
v -69.0447119 75.8500238 113.8688795
v -68.8025845 75.9727212 113.7848102
v -69.5121980 75.7564840 113.8377187
v -69.2320405 75.7924827 113.7473612
v -69.7331421 75.7784961 113.7112202
v -70.3278576 76.0831963 113.7721379
v -70.1771608 75.9652121 113.6798319
v -70.5665159 76.3698275 113.7479238
v -70.4692419 76.2314097 113.6497718
v -70.7160754 76.7741282 113.7167686
v -70.7105224 77.2837517 113.6770152
v -70.5023054 77.7247509 113.6461069
v -70.6530992 77.4464612 113.5605626
v -70.1918348 78.0303472 113.6136620
v -70.3960850 77.8622473 113.5238838
v -69.9817921 78.1370990 113.4902944
v -69.7298265 78.2153091 113.5804737
v -69.3330578 78.2255282 113.5516713
v -69.5509726 78.2425177 113.4566259
v -69.0588071 78.1555692 113.4215478
v -68.7826133 78.0074490 113.5091685
v -68.7077113 77.9493723 113.3946535
v -68.4709386 77.6822008 113.3686155
v -68.2866903 77.2407968 113.4427333
v -68.2806755 76.7679761 113.4045129
v -68.2634141 77.0238121 113.3167195
v -68.3127839 76.6573186 113.2909214
v -68.4546460 76.3423453 113.2687580
v -68.7308793 76.0261922 113.2389444
v -69.1730625 75.8117288 113.3103609
v -69.4688793 75.7634834 113.2902336
v -69.1601540 75.8106423 113.2028530
v -69.9484252 75.8400326 113.2564435
v -69.6563139 75.7662375 113.1671304
v -70.3656836 76.1164787 113.2204224
v -70.1268280 75.9336225 113.1321357
v -70.7113077 76.7184155 113.1710398
v -70.4984821 76.2590845 113.1013667
v -70.6504935 76.5519594 113.0751719
v -70.6985560 77.3312471 113.1251607
v -70.4763951 77.7592773 113.0937845
v -70.6300080 77.5029274 113.0034919
v -70.1879327 78.0360366 112.9546573
v -69.6170698 78.2378813 112.9154240
v -69.0344153 78.1459832 112.9794175
v -69.1293786 78.1801235 112.8769252
v -68.6478001 77.9015183 112.9472329
v -68.8337785 78.0406065 112.8549767
v -68.3330987 77.4308556 112.9073313
v -68.2905759 77.2674319 112.7881474
v -68.3032233 76.6799048 112.8535127
v -68.2722698 76.8584508 112.7561766
v -68.6676774 76.0852821 112.8039775
v -68.7004947 76.0609300 112.6913625
v -69.2071460 75.7983520 112.7572721
v -68.9901320 75.8660775 112.6705362
v -69.5608536 75.7668336 112.7319467
v -69.8855322 75.8179227 112.7064439
v -69.5773834 75.7588056 112.6226800
v -70.3128258 76.0676110 112.6755139
v -70.0403717 75.8876128 112.5916053
v -70.6545164 76.5562161 112.6333895
v -70.4385892 76.1841862 112.5518414
v -70.6630488 76.5901576 112.5215870
v -70.7418743 76.9344262 112.4955988
v -70.6249644 77.5294340 112.4569842
v -70.3389598 77.9089430 112.4189017
v -69.9071603 78.1653703 112.4914392
v -69.6284005 78.2303273 112.4723653
v -69.9751933 78.1453323 112.3863908
v -69.1904194 78.1997702 112.4381411
v -69.5384243 78.2360730 112.3573789
v -68.6114946 77.8588793 112.3942803
v -68.6106425 77.8655594 112.2860762
v -68.2794266 77.2208958 112.3382417
v -68.3603037 77.4808122 112.2530319
v -68.2774450 77.1640471 112.2291151
v -68.2762762 76.8081466 112.2006976
v -68.6642083 76.0819104 112.2533591
v -68.4501040 76.3349990 112.1693316
v -68.8653287 75.9335963 112.1284126
v -69.3911866 75.7678798 112.1963216
v -69.3018952 75.7791879 112.0944429
v -69.7881815 75.7970987 112.1677208
v -69.7498909 75.7843963 112.0627860
v -70.1260698 75.9350488 112.1418322
v -70.4118036 76.1641198 112.1157556
v -70.6152539 76.4687066 112.0897933
v -70.5220529 76.2959592 111.9931202
v -70.7234667 76.8175569 112.0637698
v -70.7058431 76.7253368 111.9625550
v -70.7179096 77.2161164 112.0355824
v -70.7284895 77.1758478 111.9309041
v -70.5662149 77.6320995 112.0048664
v -69.9707708 78.1511146 111.9477621
v -70.2784316 77.9590735 111.8638043
v -69.9602293 78.1483276 111.8387985
v -69.3965517 78.2392818 111.9058305
v -68.8518537 78.0581071 111.8632989
v -69.1823860 78.1995675 111.7842577
v -68.7691163 77.9975957 111.7499488
v -68.5569520 77.7959542 111.8364890
v -68.3829264 77.5271403 111.8148411
v -68.5110120 77.7400760 111.7235050
v -68.2794811 77.1968772 111.7888792
v -68.3338827 77.4117539 111.6974635
v -68.2677832 77.0747715 111.6714026
v -71.0054597 78.6795720 117.0000165
v -70.4373365 79.0393163 117.0000164
v -69.9075895 79.2117949 117.0000164
v -71.5394479 77.9633226 117.0000165
v -69.5000026 79.2410000 117.0000164
v -69.0107284 79.2018509 117.0000163
v -71.7534969 77.0957406 117.0000164
v -68.1939722 78.8390181 117.0000164
v -71.6139376 76.2134414 117.0000165
v -67.5825038 78.1877509 117.0000165
v -71.1424315 75.4540968 117.0000165
v -67.2717369 77.3498890 117.0000164
v -70.4134334 74.9376879 117.0000164
v -67.3106886 76.4573164 117.0000164
v -69.5407703 74.7448396 117.0000164
v -67.6055566 75.7925675 117.0000164
v -68.6618695 74.9059406 117.0000164
v -68.0012749 75.3230337 117.0000163
v -69.5000026 79.2410000 118.8260263
v -69.7231665 79.2291913 118.9089758
v -70.1153432 79.1502583 118.9214686
v -70.5147192 78.9974731 118.8987077
v -71.4099273 78.1760669 118.8649539
v -71.5857986 77.8197480 118.9014649
v -71.7011217 77.4005662 118.9150381
v -70.5348361 75.0228528 118.9441894
v -70.2465161 74.8864612 118.8891743
v -69.9011582 74.8030203 118.9340574
v -69.6064212 74.7643964 118.9059838
v -69.2404031 74.7730810 118.8837319
v -68.9098511 74.8400611 118.8849948
v -68.2764648 75.1258901 118.8986017
v -68.0613266 75.2876083 118.9201092
v -67.5392148 75.9160250 118.8998489
v -67.4055733 76.2247842 118.9327860
v -67.3105284 76.5284874 118.9064853
v -67.2684153 76.9071167 118.9405481
v -67.2826892 77.3161624 118.9059433
v -67.6001905 78.1865870 118.9126066
v -68.2084881 78.8262936 118.9090403
v -69.4837975 79.2409316 118.8260263
v -69.4837975 79.2394954 118.8602302
v -69.5622478 79.0250863 119.1983534
v -69.7154762 79.1620575 119.0686855
v -70.0292774 78.9798838 119.1821953
v -70.5349059 78.9529513 119.0006779
v -70.1578097 79.0717890 119.0592674
v -70.5567470 78.8363522 119.1304228
v -70.2230468 78.7644345 119.2373490
v -70.8884334 78.7603856 118.8833591
v -70.3680810 78.8424240 119.1873691
v -70.8068509 78.6926027 119.1103623
v -70.7926135 78.4131494 119.2361263
v -70.9961202 78.6339469 118.9844166
v -71.2009905 78.4578000 118.8935034
v -70.8495986 78.5157136 119.1929411
v -71.3521886 78.1712470 119.0394191
v -71.1506230 78.3609845 119.1072600
v -71.2316117 78.0244563 119.2034181
v -71.4132473 77.8620592 119.1456459
v -71.5901617 77.6569187 119.0380190
v -71.1429191 77.9333281 119.2387421
v -71.3867372 77.3736736 119.2354433
v -71.5284943 77.5025276 119.1546708
v -71.7399692 77.0588028 118.9027320
v -71.6743686 77.0537122 119.0624857
v -71.5644749 76.9211022 119.1751756
v -71.4712167 76.9388509 119.2178144
v -71.7026128 76.6060481 118.9387428
v -71.6067071 76.5836106 119.0965100
v -71.6585687 76.4780652 118.9670533
v -71.5886304 76.2002727 118.9146114
v -71.5172724 76.2637209 119.0959753
v -71.4749089 75.9386798 118.8835341
v -71.3648663 76.1627077 119.1860688
v -71.4079499 75.8938049 119.0097269
v -71.3288259 76.4334419 119.2367490
v -71.2486087 75.8505690 119.1539995
v -71.1917214 75.5245001 118.8732257
v -71.1309145 75.4951273 118.9711034
v -71.0713458 75.9108643 119.2360812
v -71.1298009 75.5750385 119.0773471
v -70.7425523 75.3288213 119.1573580
v -70.8261934 75.1927509 118.8856943
v -70.8651597 75.2815581 119.0245747
v -70.8926458 75.5575830 119.2056684
v -70.5648328 75.1281838 119.0893690
v -70.4311928 75.2081440 119.2003976
v -70.1708804 74.9000735 119.0057248
v -70.0744138 74.9608031 119.1310264
v -70.3777558 75.3098385 119.2385891
v -69.6796970 74.8296312 119.0528224
v -69.7817679 75.0132447 119.2039807
v -69.2937457 74.8039982 119.0001540
v -69.4410525 74.8989400 119.1458336
v -69.0506020 74.9290242 119.1274386
v -69.5307422 75.0830464 119.2365523
v -68.9201490 74.8776053 119.0172825
v -68.5524321 75.0654998 119.0927575
v -68.5997773 74.9466929 118.8827376
v -68.8777795 75.1045359 119.2117510
v -68.3503697 75.1066241 118.9873703
v -68.4237802 75.2924965 119.1978540
v -68.6485397 75.3027050 119.2379349
v -67.8172992 75.5660653 118.9942302
v -68.1648460 75.3443224 119.1212499
v -67.7985669 75.5395028 118.8798421
v -68.1193703 75.5679023 119.2127378
v -67.6042199 75.9065893 119.0393930
v -67.8560859 75.6513642 119.1203566
v -67.8252440 75.8598471 119.1942190
v -67.9385415 75.9058162 119.2386140
v -67.5524232 76.1520493 119.1245968
v -67.5689332 76.3394365 119.1864414
v -67.4270142 76.7122539 119.1523331
v -67.3780439 76.4938838 119.0450522
v -67.3672602 76.8450075 119.1055336
v -67.6060965 76.6837215 119.2358855
v -67.3343486 77.2707353 119.0494619
v -67.3524188 77.6261418 118.9064317
v -67.6031973 77.2317884 119.2366243
v -67.4425857 77.3127233 119.1628612
v -67.4303954 77.7372865 119.0232957
v -67.5545455 77.6802360 119.1751227
v -67.4747876 77.9556725 118.9050203
v -67.6074147 78.0188809 119.0962258
v -67.8062474 77.8976257 119.2375435
v -67.8823465 78.5563901 118.8718764
v -67.9812219 78.6029817 119.0038029
v -67.7486831 78.2885185 119.0588556
v -67.7885332 78.0531135 119.2017713
v -67.9402110 78.4119643 119.1430522
v -68.0891293 78.4361014 119.2031423
v -68.2202991 78.7065179 119.1116797
v -68.3067589 78.5991297 119.2092174
v -68.4081521 78.9028594 119.0317576
v -68.6017441 78.8923907 119.1473441
v -68.5663321 79.0430499 118.8728433
v -68.9799948 79.1740284 118.9235593
v -68.8190311 79.0761366 119.0452066
v -68.5474199 78.6183626 119.2399761
v -69.2583588 79.2195568 118.9469570
v -68.9901641 79.0114264 119.1635581
v -69.2267058 79.1168401 119.1095885
v -68.8479617 78.8742338 119.2164673
v -69.3370274 78.8813387 119.2393179
v -70.1158623 78.0667276 119.2410000
v -70.7317220 77.0000342 119.2410000
v -68.8841428 78.0667276 119.2410000
v -70.1158623 75.9332724 119.2410000
v -68.2682831 77.0000342 119.2410000
v -68.8841428 75.9332724 119.2410000
v -70.1158623 78.0667276 117.8113528
v -70.7317220 77.0000342 117.8113528
v -68.8841428 78.0667276 117.8113528
v -68.2682831 77.0000342 117.8113528
v -68.8841428 75.9332724 117.8113528
v -70.1158623 75.9332724 117.8113528
v -68.2871478 76.7604167 111.6483174
v -68.4301281 76.3803867 111.7291085
v -68.6990568 76.0527327 111.6977251
v -69.0260153 75.8617553 111.6733561
v -69.3065286 75.7785374 111.6506814
v -69.4063562 75.7666426 111.5354336
v -69.8520022 75.8099688 111.5049026
v -70.1969714 75.9756996 111.5894965
v -70.3077919 76.0608187 111.4686681
v -70.5422698 76.3304695 111.5523667
v -70.7068193 76.7300186 111.5187055
v -70.5925110 76.4164633 111.4358138
v -70.7323433 77.0580835 111.4957048
v -70.7253052 76.8311853 111.4035258
v -70.6655246 77.4197870 111.4719422
v -70.7145827 77.2340752 111.3749428
v -70.5775035 77.6074379 111.3469692
v -70.2283008 78.0022106 111.4191163
v -70.3394701 77.9113040 111.3257886
v -69.8760644 78.1762188 111.3892571
v -69.5293179 78.2365334 111.3641941
v -69.8348722 78.1976117 111.3288082
v -70.4749842 77.0029103 116.1197110
v -70.4344163 77.2631459 116.0976301
v -70.3218149 77.9196924 116.2680901
v -70.3313081 77.5124102 116.0718468
v -70.0720861 78.0933856 116.2465058
v -70.0634482 77.7963647 116.0365827
v -69.7011560 77.9555825 116.0009323
v -69.0597003 78.1522029 116.1721805
v -68.3470457 77.4384497 116.0984906
v -68.7156916 77.5884328 115.9016020
v -68.5569905 77.2348540 115.8665513
v -68.2750553 76.8362007 116.0554075
v -68.5286522 76.8980424 115.8361038
v -68.6211111 76.5864238 115.8085431
v -68.9605008 76.1916203 115.7607821
v -69.2546972 76.0537446 115.7330817
v -69.8147658 75.8073828 115.9071054
v -69.7578058 76.0583699 115.6816965
v -70.1251842 76.2506447 115.6469039
v -70.5635936 76.3618293 115.8412400
v -70.3701472 76.5610117 115.6091388
v -70.4668924 77.0673306 115.5642082
v -70.4158169 77.3391374 115.5392994
v -70.2782112 77.5777812 115.5145681
v -70.0645525 77.7970271 115.4868512
v -69.6535524 78.2239903 115.6653026
v -69.3550120 77.9605507 115.4179214
v -68.6827495 77.9241477 115.5908764
v -69.0075614 77.8455930 115.3898297
v -68.6947032 77.5431028 115.3452379
v -68.5788797 77.3093429 115.3255804
v -68.5301229 77.0531474 115.2982524
v -68.5535913 76.7746745 115.2770626
v -68.6665606 76.4989816 115.2461211
v -68.8460169 76.2804062 115.2244699
v -69.0393611 76.1467766 115.1989786
v -69.2701741 76.0553366 115.1807102
v -69.5361545 76.0307297 115.1545130
v -70.1127371 75.9180033 115.3360213
v -69.8550865 76.0897610 115.1282875
v -70.2417120 76.3678292 115.0800726
v -70.6295869 76.5061960 115.2751747
v -70.3907046 76.6146058 115.0544605
v -70.4680934 76.8875969 115.0284487
v -70.4581034 77.1572120 115.0041950
v -70.3865369 77.3914736 114.9840588
v -70.2439485 77.6326102 114.9587893
v -70.0295552 77.8133948 114.9347940
v -69.5566324 78.2310812 115.1084141
v -69.7674333 77.9374514 114.9053611
v -69.2815325 77.9528401 114.8663076
v -68.6299247 77.8744319 115.0358389
v -68.8518075 77.7267325 114.8168824
v -68.5914358 77.3732976 114.7803305
v -68.3315964 76.6062890 114.9380324
v -68.5707372 76.7170927 114.7175763
v -68.6798045 76.0765031 114.8912839
v -68.9644619 76.1837073 114.6585091
v -69.5785798 76.0303850 114.6027081
v -69.8684448 75.8123690 114.8047520
v -69.8373945 76.0879672 114.5748475
v -70.0736688 76.2140217 114.5544502
v -70.5020691 76.2824776 114.7465361
v -70.2899472 76.4294500 114.5230993
v -70.4163963 76.6808378 114.5014184
v -70.4737339 76.9576122 114.4722698
v -70.4105729 77.3513014 114.4383424
v -70.4728706 77.7742849 114.6355483
v -70.1933666 77.6848994 114.4003004
v -69.7444331 77.9379332 114.3553881
v -69.5031793 77.9722250 114.3352875
v -69.2448724 77.9380764 114.3075923
v -68.7486524 77.6255375 114.2595449
v -68.2808628 77.1885076 114.4305840
v -68.5409104 77.1868852 114.2124952
v -68.2715809 76.8773323 114.4084574
v -68.5402293 76.8403229 114.1811469
v -68.6455122 76.5244177 114.1507322
v -69.6273328 77.9741871 112.1450395
v -68.9337055 76.2108176 114.1121737
v -69.7292755 76.0564425 114.0388770
v -69.3667332 76.0279459 114.0672240
v -70.0630016 75.9032528 114.2377375
v -70.0398718 76.1875827 114.0068331
v -70.4257978 76.7027668 113.9460098
v -70.7214251 77.2329377 114.1272859
v -70.4736765 77.0239227 113.9185729
v -70.3251667 77.5165749 113.8716630
v -70.0813766 78.0916239 114.0483739
v -69.6799573 77.9547285 113.7977059
v -69.1447844 77.9068501 113.7533015
v -68.8581398 77.7328348 113.7186961
v -68.5958700 77.3690974 113.6796523
v -68.5344881 77.0804042 113.6529808
v -68.3975957 76.4464723 113.8266237
v -68.5480220 76.7753769 113.6255110
v -68.7375481 76.3908953 113.5868045
v -69.2694332 76.0561549 113.5308928
v -69.0292382 76.1442305 113.5523314
v -69.5128073 76.0296780 113.5086466
v -69.9884536 76.1598205 113.4602868
v -70.3557838 76.5381410 113.4159240
v -70.6903868 76.6567545 113.6166148
v -70.4554370 76.8099674 113.3854457
v -70.7350998 77.0652663 113.5859693
v -70.4657969 77.0866603 113.3606662
v -70.4221634 77.3211021 113.3414729
v -70.2741466 77.5864555 113.3123858
v -70.0894765 77.7709599 113.2921486
v -69.8740776 77.9004115 113.2653507
v -69.5842935 77.9676435 113.2428368
v -69.3240185 77.9533045 113.2174003
v -69.0720904 77.8699264 113.1933407
v -68.8416733 77.7161861 113.1657418
v -68.6699705 77.5047056 113.1418042
v -68.3236089 77.3774674 113.3453219
v -68.5287351 76.9869799 113.0962749
v -68.5561917 77.2371584 113.1153440
v -68.6716000 76.4827568 113.0470462
v -68.9429647 76.1971592 113.0118745
v -69.3107834 76.0443450 112.9780178
v -69.7136828 76.0475850 112.9389178
v -70.0836624 76.2210961 112.9022241
v -70.4738598 77.0551395 112.8141862
v -70.4007671 76.6209817 112.8523745
v -70.7433057 77.0298857 113.0379685
v -70.4430931 77.7947321 112.9806142
v -70.3403050 77.5041497 112.7768787
v -70.0464508 77.8013837 112.7357591
v -69.8057027 77.9221179 112.7131487
v -69.2918510 77.9499855 112.6665535
v -69.0330406 77.8575480 112.6398222
v -68.4914248 77.7220379 112.8196046
v -68.7674768 77.6419756 112.6074426
v -68.5314961 76.9355974 112.5414211
v -68.5495647 77.2314443 112.5669408
v -68.5916442 76.6472708 112.5160046
v -68.4174023 76.3880162 112.7242875
v -68.7888692 76.3303239 112.4799219
v -69.3907483 76.0362821 112.4185398
v -69.1426031 76.0910647 112.4413683
v -69.6446935 76.0421840 112.3954153
v -69.9171007 76.1191275 112.3674268
v -70.2939507 76.4442626 112.3247558
v -70.4150305 76.6740954 112.2991201
v -70.4676781 76.9395582 112.2764055
v -70.3511006 77.4719952 112.2245431
v -70.0717119 77.7937070 112.1855925
v -69.8133046 75.8045389 113.8134002
v -70.0840699 75.9147635 113.7941589
v -70.3133653 76.4678624 113.9689887
v -70.0274101 77.8199021 113.8325745
v -69.4207284 77.9687241 113.7739199
v -69.0365120 78.1419597 113.5290705
v -68.5209764 77.7516223 113.4815572
v -68.3608400 77.4774159 113.4591847
v -68.4132919 76.4161494 113.3814402
v -68.5977366 76.1565581 113.3574487
v -68.8789920 75.9306481 113.3319051
v -69.7589965 76.0654744 113.4846209
v -70.2044566 76.3305278 113.4355159
v -70.5904914 76.4204113 113.1918339
v -70.1170020 78.0797226 113.0570178
v -69.5319716 78.2429948 113.0119382
v -68.2671478 77.0096584 112.8747008
v -68.5629532 76.7483648 113.0709653
v -68.4526274 76.3479364 112.8248719
v -68.9320817 75.9060520 112.7787414
v -70.4795951 76.2506659 112.6570038
v -70.7432371 77.0258553 112.5972201
v -70.6173133 77.5298401 112.5600282
v -70.3325771 77.9237707 112.5282072
v -69.5530627 77.9705152 112.6861720
v -68.8639488 78.0569204 112.4146511
v -68.4153403 77.5897331 112.3678455
v -68.2712470 76.8858174 112.3162230
v -68.3643974 76.5046009 112.2871234
v -69.0317626 75.8572512 112.2206324
v -70.1238810 76.2569231 112.3455243
v -70.4476064 77.2050132 112.2523313
v -70.3495792 77.8946518 111.9788481
v -70.5592490 77.6334349 115.8515808
v -70.3717803 77.8763935 115.8288229
v -70.1104757 78.0803150 115.8047843
v -69.6290517 78.2342067 115.7689316
v -69.3036798 77.9567635 115.9643801
v -68.9608419 77.8091036 115.9294199
v -68.4855866 77.7026102 115.6773981
v -68.3263325 77.3897244 115.6505861
v -68.2680604 77.0764006 115.6292891
v -68.7676994 76.3644512 115.7827170
v -69.1352135 75.8184339 115.5118768
v -69.6109030 75.7614944 115.4769591
v -70.1835870 75.9613839 115.4318638
v -70.4309412 76.1896219 115.4112991
v -70.4546530 76.8220477 115.5848103
v -70.6616145 77.4135239 115.3192162
v -70.2201827 78.0135424 115.2624266
v -69.9278370 78.1583802 115.2413467
v -69.6616896 77.9604941 115.4453683
v -68.9732816 78.1188225 115.1721221
v -68.3520073 76.5320709 115.0423652
v -68.6134346 76.1394938 115.0060507
v -69.3442551 75.7663919 114.9451835
v -69.9466670 75.8396263 114.9010665
v -70.2395903 76.0121836 114.8803548
v -70.1635789 78.0411536 114.7099370
v -69.2239467 78.2053903 114.6411046
v -68.4637147 77.6816935 114.5743167
v -68.2853975 77.2440149 114.5425130
v -68.5287629 76.9806212 114.7420235
v -68.6960443 76.4514650 114.6910225
v -69.3139343 76.0458744 114.6228968
v -70.2826532 76.0479578 114.3266569
v -70.7037652 77.3114208 114.2235145
v -70.5670079 77.6201189 114.2028709
v -69.9741587 77.8475455 114.3761392
v -69.3370736 78.2327481 114.0988307
v -68.9963106 77.8287858 114.2846901
v -68.5421583 77.7795830 114.0338342
v -68.3847726 77.5250706 114.0129990
v -68.2782385 77.2137872 113.9867766
v -70.4925488 77.7325869 111.4446770
v -69.9809433 77.8467827 111.6293074
v -69.6696744 77.9581082 111.5990915
v -68.9294039 77.8034239 111.5297803
v -69.3172165 77.9558251 111.5672472
v -68.7542983 77.9679657 111.3166046
v -69.0961227 78.1702330 111.3346114
v -68.6314394 77.4371302 111.4875570
v -68.5357882 77.1375905 111.4588246
v -68.5015016 77.6813227 111.3016000
v -68.3234802 77.2058082 111.2835537
v -68.7044032 76.4369237 111.3925684
v -69.0159141 76.1449404 111.3544885
v -68.8769670 76.0469271 111.2262623
v -69.5014950 76.0216977 111.3102679
v -68.3697747 76.7051727 111.2609237
v -69.7471343 75.9349523 111.1883810
v -70.3638481 76.5440272 111.2129428
v -70.4098374 76.4501877 111.1502029
v -70.2740517 77.5930647 111.1142127
v -70.4464276 77.3901922 111.1043464
v -69.9607109 77.8612044 111.0757212
v -70.1371927 77.7562207 111.0825625
v -69.2002652 77.9274613 112.1055626
v -68.8750139 77.7455670 112.0728446
v -68.6378973 77.4540331 112.0369513
v -68.5438051 77.1772826 112.0122603
v -68.2785070 76.7905598 111.7595772
v -69.1032808 76.1109607 111.8951763
v -69.5838129 76.0193758 111.8511256
v -69.7563493 75.7857917 111.6177347
v -70.1322371 76.2464340 111.7975582
v -70.4664098 76.8900531 111.7310766
v -70.4372645 77.2685131 111.6965720
v -70.2522229 77.6250433 111.6605789
v -68.6004069 77.1075128 110.9999735
v -69.9268597 77.8057936 110.9999493
v -70.2236884 77.5452585 110.9999931
v -70.3740563 77.2445305 110.9999857
v -68.7084026 77.4431047 110.9999745
v -68.9713787 77.7410425 110.9999786
v -69.3263688 77.8894137 110.9999826
v -69.3704792 78.2280671 111.3301686
v -69.6063798 77.8990427 110.9999783
v -70.5324280 76.9057083 111.1283181
v -70.3944384 76.8193992 110.9999503
v -70.2226131 76.4526784 110.9999899
v -70.0903983 76.0956239 111.1705910
v -69.9162163 76.1881697 110.9999456
v -69.3528906 75.8957919 111.2043963
v -69.5222169 76.0938496 110.9999894
v -69.1797545 76.1523049 110.9999770
v -68.8523307 76.3582674 110.9998701
v -68.5540331 76.3441526 111.2447209
v -68.6232084 76.7454532 110.9999094
v -68.5433165 76.7983080 111.9802662
v -68.7851643 76.3304464 111.9326352
v -70.1660805 75.9578585 112.0242299
v -70.3675478 76.5596907 111.7625431
v -70.5470218 77.6624377 111.8930909
v -69.5924432 78.2318640 111.8107308
v -68.5474947 76.7901044 111.4278299
v -68.4399207 76.3575687 111.6199791
v -68.6867034 76.0724386 111.5931060
v -68.9884390 75.8719694 111.5683236
v -70.0238590 76.1705188 111.2621460
v -70.4794846 76.9737313 111.1737070
v -70.4113570 77.3405530 111.1405776
v -69.0547852 78.1585264 112.3197349
f 3 418 1
f 3 1 2
f 5 3 2
f 5 2 4
f 7 5 4
f 7 4 6
f 8 7 6
f 8 6 9
f 423 8 9
f 11 423 9
f 11 9 10
f 426 11 10
f 426 10 12
f 15 426 12
f 15 12 13
f 16 15 13
f 14 15 16
f 17 16 13
f 21 15 14
f 18 16 17
f 23 18 17
f 23 17 20
f 22 21 588
f 25 22 589
f 409 23 20
f 409 20 24
f 411 409 24
f 27 25 590
f 28 411 24
f 28 24 26
f 432 27 591
f 31 28 26
f 31 26 29
f 30 432 591
f 35 30 32
f 414 31 29
f 414 29 33
f 37 414 33
f 37 33 34
f 434 35 36
f 39 434 36
f 40 37 34
f 40 34 38
f 42 39 594
f 415 40 38
f 43 38 41
f 43 415 38
f 44 42 595
f 418 43 41
f 418 41 1
f 14 19 21
f 19 588 21
f 588 589 22
f 589 590 25
f 590 591 27
f 591 32 30
f 32 36 35
f 36 594 39
f 594 595 42
f 595 596 44
f 45 44 596
f 47 44 45
f 47 45 46
f 49 47 46
f 49 46 48
f 50 49 48
f 598 50 48
f 51 50 598
f 599 51 598
f 445 51 599
f 600 445 599
f 53 445 600
f 601 53 600
f 52 53 601
f 448 53 52
f 55 448 52
f 54 55 52
f 57 55 54
f 603 57 54
f 56 57 603
f 58 57 56
f 59 58 56
f 604 59 56
f 61 59 604
f 605 61 604
f 60 61 605
f 455 61 60
f 62 455 60
f 607 62 60
f 63 62 607
f 64 63 607
f 458 63 64
f 66 458 64
f 65 66 64
f 68 66 65
f 67 68 65
f 69 68 67
f 608 69 67
f 461 69 608
f 70 461 608
f 609 70 608
f 463 70 609
f 71 463 609
f 72 463 71
f 610 72 71
f 73 72 610
f 466 73 610
f 611 466 610
f 75 466 611
f 612 75 611
f 74 75 612
f 469 75 74
f 77 469 74
f 76 77 74
f 78 77 76
f 80 78 76
f 79 80 76
f 474 80 79
f 81 474 79
f 83 474 81
f 613 83 81
f 82 83 613
f 84 83 82
f 614 84 82
f 86 84 614
f 85 86 614
f 87 86 85
f 615 87 85
f 88 87 615
f 616 88 615
f 480 88 616
f 482 480 616
f 482 616 89
f 91 482 89
f 90 91 89
f 92 91 90
f 93 91 92
f 94 93 92
f 96 93 94
f 96 94 95
f 97 96 95
f 99 97 95
f 98 99 95
f 489 99 98
f 101 489 98
f 620 101 98
f 100 101 620
f 103 101 100
f 102 103 100
f 104 103 102
f 492 104 102
f 621 492 102
f 106 492 621
f 622 106 621
f 105 106 622
f 495 106 105
f 107 495 105
f 108 495 107
f 624 108 107
f 109 108 624
f 111 109 624
f 110 111 624
f 112 111 110
f 626 112 110
f 113 112 626
f 627 113 626
f 114 113 627
f 628 114 627
f 116 114 628
f 116 628 115
f 501 116 115
f 117 501 115
f 119 501 117
f 118 119 117
f 121 119 118
f 120 121 118
f 123 121 120
f 122 123 120
f 124 123 122
f 555 124 122
f 556 124 555
f 126 124 556
f 125 126 556
f 128 126 125
f 127 128 125
f 509 128 127
f 129 509 127
f 511 509 129
f 130 511 129
f 132 511 130
f 131 132 130
f 134 132 131
f 133 134 131
f 135 134 133
f 136 135 133
f 138 135 136
f 137 138 136
f 139 138 137
f 560 139 137
f 140 139 560
f 141 139 140
f 561 141 140
f 142 141 561
f 142 561 562
f 522 142 562
f 143 522 562
f 145 522 143
f 144 145 143
f 146 145 144
f 563 146 144
f 147 146 563
f 564 147 563
f 148 147 564
f 565 148 564
f 151 148 565
f 149 151 565
f 150 151 149
f 153 151 150
f 152 153 150
f 155 153 152
f 154 155 152
f 157 155 154
f 568 157 154
f 156 157 568
f 158 157 156
f 532 158 156
f 159 532 156
f 161 532 159
f 160 161 159
f 533 161 160
f 162 533 160
f 569 162 160
f 163 162 569
f 570 163 569
f 165 163 570
f 164 165 570
f 167 165 164
f 166 167 164
f 539 167 166
f 539 166 168
f 169 539 168
f 571 169 168
f 171 169 571
f 170 171 571
f 544 171 170
f 573 544 170
f 172 544 573
f 173 544 172
f 175 173 172
f 574 175 172
f 174 175 574
f 178 175 174
f 176 178 174
f 177 178 176
f 180 178 177
f 179 180 177
f 182 180 179
f 575 182 179
f 181 182 575
f 183 182 181
f 184 183 181
f 576 184 181
f 185 184 576
f 577 185 576
f 578 185 577
f 186 185 578
f 189 186 578
f 187 189 578
f 188 189 187
f 191 189 188
f 190 191 188
f 697 191 190
f 697 190 580
f 193 697 580
f 192 193 580
f 581 193 192
f 195 193 581
f 194 195 581
f 196 195 194
f 197 196 194
f 582 197 194
f 583 197 582
f 199 197 583
f 198 199 583
f 200 199 198
f 584 200 198
f 202 200 584
f 201 202 584
f 204 202 201
f 203 204 201
f 205 204 203
f 686 204 205
f 206 686 205
f 208 686 206
f 207 208 206
f 210 208 207
f 209 210 207
f 212 210 209
f 211 212 209
f 213 212 211
f 688 212 213
f 587 688 213
f 215 688 587
f 214 215 587
f 216 215 214
f 689 216 214
f 217 689 214
f 219 689 217
f 218 219 217
f 220 219 218
f 221 220 218
f 223 220 221
f 222 223 221
f 225 223 222
f 224 225 222
f 226 225 224
f 226 224 656
f 227 20 230
f 227 24 20
f 228 24 227
f 20 17 230
f 229 24 228
f 230 17 233
f 229 26 24
f 17 13 233
f 231 29 229
f 229 29 26
f 232 29 231
f 233 12 235
f 13 12 233
f 232 33 29
f 234 33 232
f 235 12 237
f 234 34 33
f 12 10 237
f 234 236 34
f 34 236 38
f 10 239 237
f 9 239 10
f 236 238 38
f 38 238 41
f 9 241 239
f 6 241 9
f 41 238 1
f 238 240 1
f 6 243 241
f 4 243 6
f 1 240 2
f 240 242 2
f 4 244 243
f 242 244 2
f 2 244 4
f 246 245 231
f 246 231 229
f 247 246 229
f 247 229 228
f 248 247 228
f 248 228 227
f 276 248 227
f 281 276 227
f 249 281 227
f 249 227 230
f 250 249 230
f 251 230 233
f 251 250 230
f 291 251 233
f 295 291 233
f 295 233 235
f 298 295 235
f 300 298 235
f 300 235 237
f 305 300 237
f 310 305 237
f 310 237 239
f 252 310 239
f 253 252 239
f 254 239 241
f 254 253 239
f 255 254 241
f 256 255 241
f 256 241 243
f 257 256 243
f 326 257 243
f 258 326 243
f 258 243 244
f 259 258 244
f 333 259 244
f 333 244 242
f 260 333 242
f 260 242 240
f 261 260 240
f 262 261 240
f 263 262 240
f 263 240 238
f 264 263 238
f 346 264 238
f 351 238 236
f 351 346 238
f 265 351 236
f 354 265 236
f 354 236 234
f 266 354 234
f 364 266 234
f 364 234 232
f 365 364 232
f 368 365 232
f 267 232 231
f 267 368 232
f 267 267 231
f 245 267 231
f 245 245 231
f 268 267 267
f 268 267 245
f 268 245 245
f 268 368 267
f 246 268 245
f 270 246 247
f 273 270 247
f 271 269 270
f 272 247 248
f 271 270 273
f 275 372 269
f 272 273 247
f 275 269 271
f 274 271 273
f 274 273 272
f 277 271 274
f 275 271 277
f 272 248 276
f 278 274 272
f 280 272 276
f 278 272 280
f 282 277 274
f 280 276 281
f 279 277 282
f 279 275 277
f 282 274 278
f 284 278 280
f 283 280 281
f 283 284 280
f 284 282 278
f 283 281 249
f 285 282 284
f 279 282 285
f 283 249 250
f 288 279 285
f 286 284 283
f 287 283 250
f 285 284 286
f 286 283 287
f 251 287 250
f 285 286 290
f 287 290 286
f 289 288 285
f 289 285 290
f 292 287 251
f 291 292 251
f 292 290 287
f 293 290 292
f 293 289 290
f 295 292 291
f 294 289 293
f 296 292 295
f 296 295 297
f 293 292 296
f 298 297 295
f 299 296 297
f 303 289 294
f 303 294 293
f 299 297 298
f 301 293 296
f 301 296 299
f 303 293 301
f 302 299 298
f 302 298 300
f 304 299 302
f 301 299 304
f 302 300 305
f 306 302 305
f 306 308 302
f 308 304 302
f 307 303 301
f 307 301 304
f 310 306 305
f 311 306 310
f 311 308 306
f 312 304 308
f 312 307 304
f 309 308 311
f 309 312 308
f 252 311 310
f 313 309 311
f 317 307 312
f 313 311 252
f 309 314 312
f 317 312 314
f 314 309 313
f 315 252 253
f 315 313 252
f 316 314 313
f 316 313 315
f 254 315 253
f 316 315 254
f 318 316 254
f 319 314 316
f 319 317 314
f 323 317 319
f 318 254 255
f 321 316 318
f 319 316 321
f 320 255 256
f 320 318 255
f 321 318 320
f 324 320 256
f 322 321 320
f 323 319 321
f 257 324 256
f 324 322 320
f 327 323 321
f 324 257 326
f 327 321 322
f 325 324 326
f 325 322 324
f 328 325 326
f 330 323 327
f 325 327 322
f 258 328 326
f 329 327 325
f 330 327 329
f 259 328 258
f 332 325 328
f 332 328 259
f 332 329 325
f 334 330 329
f 331 259 333
f 331 332 259
f 336 332 331
f 338 330 334
f 334 329 332
f 334 332 336
f 260 331 333
f 335 336 331
f 335 331 260
f 337 334 336
f 337 338 334
f 339 336 335
f 339 337 336
f 261 335 260
f 339 335 261
f 340 337 339
f 342 261 262
f 338 337 340
f 342 339 261
f 341 339 342
f 341 340 339
f 344 338 340
f 263 342 262
f 343 342 263
f 343 341 342
f 344 340 341
f 345 343 263
f 264 345 263
f 348 341 343
f 348 343 345
f 348 344 341
f 347 344 348
f 346 345 264
f 349 345 346
f 349 348 345
f 349 346 351
f 350 347 348
f 350 348 349
f 353 347 350
f 352 349 351
f 352 350 349
f 265 352 351
f 356 352 265
f 353 350 357
f 357 350 352
f 355 265 354
f 358 352 356
f 355 356 265
f 358 357 352
f 358 356 355
f 359 357 358
f 266 355 354
f 359 353 357
f 360 358 355
f 362 355 266
f 362 360 355
f 360 359 358
f 362 266 364
f 361 359 360
f 367 353 359
f 367 359 361
f 363 361 360
f 363 360 362
f 366 362 364
f 371 361 363
f 363 362 366
f 365 366 364
f 371 367 361
f 369 363 366
f 371 363 369
f 368 366 365
f 370 369 366
f 368 268 246
f 370 366 368
f 372 367 371
f 368 246 270
f 370 368 270
f 269 369 370
f 370 270 269
f 269 371 369
f 372 371 269
f 373 372 275
f 373 275 279
f 373 279 288
f 374 373 288
f 374 288 289
f 374 289 303
f 375 372 373
f 375 367 372
f 353 367 375
f 376 303 307
f 376 374 303
f 376 307 317
f 377 347 353
f 377 353 375
f 323 376 317
f 323 378 376
f 344 347 377
f 330 378 323
f 338 344 377
f 338 377 378
f 338 378 330
f 373 374 379
f 379 374 380
f 375 373 381
f 381 373 379
f 377 375 382
f 382 375 381
f 378 377 383
f 383 377 382
f 376 378 384
f 384 378 383
f 374 376 380
f 380 376 384
f 379 380 384
f 381 384 383
f 381 383 382
f 381 379 384
f 385 226 656
f 691 385 656
f 691 656 386
f 691 386 387
f 692 691 387
f 693 692 387
f 693 387 388
f 693 388 389
f 390 693 389
f 390 389 659
f 391 390 659
f 391 659 392
f 393 391 392
f 393 392 394
f 396 393 394
f 396 394 395
f 398 396 395
f 398 395 397
f 400 398 397
f 400 397 399
f 401 400 399
f 401 399 629
f 403 401 629
f 403 629 402
f 406 403 402
f 406 402 404
f 405 406 404
f 671 406 405
f 635 671 405
f 18 407 16
f 93 484 91
f 23 408 18
f 18 408 407
f 408 23 410
f 23 409 410
f 410 409 412
f 409 411 412
f 412 411 413
f 411 28 413
f 31 592 28
f 28 592 413
f 592 414 593
f 31 414 592
f 593 37 416
f 414 37 593
f 37 40 416
f 416 415 417
f 40 415 416
f 415 43 417
f 417 43 419
f 43 418 419
f 419 418 420
f 3 420 418
f 3 597 420
f 5 597 3
f 5 421 597
f 7 421 5
f 7 422 421
f 7 8 422
f 422 8 424
f 8 423 424
f 11 425 423
f 423 425 424
f 426 425 11
f 425 426 427
f 426 15 427
f 427 15 602
f 21 428 15
f 15 428 602
f 428 21 429
f 22 430 21
f 25 430 22
f 21 430 429
f 430 25 431
f 25 27 431
f 431 27 606
f 27 432 606
f 606 432 433
f 433 30 435
f 432 30 433
f 35 435 30
f 35 434 435
f 435 434 436
f 434 39 436
f 436 39 437
f 44 437 42
f 42 437 39
f 437 44 438
f 438 44 439
f 47 439 44
f 47 49 439
f 439 49 440
f 50 441 49
f 49 441 440
f 50 442 441
f 51 443 50
f 50 443 442
f 51 444 443
f 445 446 51
f 51 446 444
f 446 445 447
f 445 53 447
f 53 449 447
f 448 449 53
f 448 55 449
f 449 55 450
f 450 57 451
f 55 57 450
f 58 452 57
f 57 452 451
f 452 58 453
f 59 454 58
f 58 454 453
f 59 61 454
f 454 61 456
f 61 455 456
f 456 455 457
f 63 457 62
f 62 457 455
f 457 63 459
f 63 458 459
f 459 458 460
f 458 66 460
f 66 68 460
f 460 68 617
f 617 69 462
f 68 69 617
f 69 461 462
f 462 461 618
f 461 70 618
f 70 464 618
f 463 464 70
f 464 72 619
f 463 72 464
f 619 73 465
f 72 73 619
f 466 465 73
f 467 466 468
f 465 466 467
f 75 468 466
f 75 469 468
f 468 469 470
f 77 471 469
f 78 471 77
f 469 471 470
f 471 78 472
f 80 473 78
f 78 473 472
f 474 473 80
f 473 474 475
f 475 83 623
f 474 83 475
f 84 476 83
f 83 476 623
f 84 477 476
f 86 477 84
f 477 86 478
f 478 86 625
f 87 625 86
f 87 479 625
f 87 88 479
f 479 88 481
f 88 480 481
f 480 482 481
f 481 482 483
f 483 91 484
f 482 91 483
f 407 14 16
f 93 486 484
f 96 486 93
f 486 96 488
f 96 97 488
f 99 487 97
f 97 487 488
f 99 489 487
f 487 489 490
f 490 101 557
f 489 101 490
f 557 103 491
f 101 103 557
f 491 104 493
f 103 104 491
f 492 493 104
f 493 492 494
f 106 494 492
f 495 558 106
f 106 558 494
f 558 495 496
f 496 108 559
f 495 108 496
f 108 109 559
f 559 109 497
f 111 497 109
f 111 112 497
f 112 498 497
f 498 113 499
f 112 113 498
f 113 114 499
f 116 500 114
f 114 500 499
f 500 116 502
f 502 501 503
f 116 501 502
f 503 119 505
f 501 119 503
f 119 121 505
f 123 504 121
f 121 504 505
f 123 506 504
f 124 506 123
f 124 566 506
f 124 126 566
f 566 126 507
f 507 126 567
f 128 567 126
f 509 508 128
f 128 508 567
f 508 509 510
f 509 512 510
f 511 512 509
f 511 132 512
f 512 132 513
f 132 514 513
f 134 514 132
f 135 515 134
f 134 515 514
f 515 135 516
f 138 517 135
f 135 517 516
f 139 518 138
f 138 518 517
f 141 519 139
f 139 519 518
f 519 141 520
f 141 142 520
f 520 142 521
f 142 522 521
f 521 522 524
f 145 523 522
f 522 523 524
f 145 146 523
f 146 572 523
f 146 147 572
f 572 147 525
f 525 148 526
f 147 148 525
f 151 526 148
f 151 527 526
f 153 527 151
f 153 528 527
f 155 528 153
f 155 529 528
f 157 529 155
f 529 157 531
f 157 158 531
f 532 530 158
f 158 530 531
f 161 534 532
f 532 534 530
f 161 533 534
f 534 533 535
f 162 535 533
f 162 536 535
f 163 536 162
f 579 163 537
f 536 163 579
f 165 537 163
f 165 167 537
f 537 167 538
f 539 540 167
f 167 540 538
f 540 539 542
f 539 169 542
f 171 541 169
f 169 541 542
f 171 543 541
f 544 543 171
f 543 544 545
f 544 173 545
f 545 173 547
f 173 175 547
f 178 546 175
f 175 546 547
f 178 548 546
f 178 180 548
f 548 180 549
f 182 585 180
f 180 585 549
f 183 550 182
f 182 550 585
f 550 183 551
f 551 183 552
f 184 552 183
f 185 586 184
f 184 586 552
f 586 185 553
f 185 554 553
f 186 554 185
f 186 189 554
f 554 189 485
f 484 118 117
f 486 118 484
f 118 486 120
f 488 120 486
f 120 488 122
f 487 555 488
f 488 555 122
f 487 556 555
f 490 556 487
f 490 125 556
f 557 125 490
f 125 557 127
f 127 491 129
f 557 491 127
f 491 493 129
f 129 493 130
f 494 130 493
f 130 494 131
f 558 133 494
f 494 133 131
f 133 558 136
f 558 496 136
f 136 559 137
f 496 559 136
f 497 560 559
f 559 560 137
f 497 498 560
f 560 498 140
f 140 498 561
f 499 561 498
f 499 562 561
f 499 500 562
f 143 500 144
f 562 500 143
f 502 144 500
f 503 563 502
f 502 563 144
f 505 564 503
f 503 564 563
f 505 565 564
f 504 149 505
f 505 149 565
f 504 506 149
f 506 150 149
f 150 566 152
f 506 566 150
f 566 507 152
f 152 507 154
f 507 567 154
f 154 567 568
f 508 568 567
f 510 568 508
f 568 510 156
f 510 512 156
f 156 512 159
f 513 159 512
f 513 514 159
f 159 514 160
f 515 569 514
f 516 569 515
f 514 569 160
f 569 516 570
f 517 570 516
f 517 518 570
f 570 518 164
f 164 519 166
f 518 519 164
f 519 520 166
f 166 521 168
f 520 521 166
f 521 524 168
f 523 571 524
f 524 571 168
f 523 572 571
f 571 572 170
f 525 573 572
f 572 573 170
f 525 526 573
f 573 526 172
f 527 574 526
f 526 574 172
f 527 174 574
f 528 176 527
f 527 176 174
f 528 177 176
f 529 177 528
f 177 529 179
f 531 575 529
f 529 575 179
f 575 531 181
f 530 576 531
f 531 576 181
f 576 530 577
f 534 577 530
f 534 578 577
f 534 535 578
f 578 535 187
f 536 187 535
f 579 187 536
f 188 579 190
f 187 579 188
f 538 190 537
f 537 190 579
f 538 580 190
f 538 540 580
f 580 540 192
f 542 581 540
f 540 581 192
f 542 194 581
f 541 582 542
f 543 582 541
f 542 582 194
f 543 583 582
f 543 545 583
f 583 545 198
f 547 584 545
f 545 584 198
f 547 546 584
f 584 546 201
f 546 548 201
f 201 548 203
f 548 549 203
f 203 549 205
f 205 585 206
f 549 585 205
f 585 550 206
f 206 550 207
f 550 551 207
f 207 551 209
f 551 552 209
f 209 552 211
f 211 586 213
f 552 586 211
f 586 553 213
f 554 587 553
f 553 587 213
f 587 554 214
f 214 554 485
f 408 19 407
f 410 19 408
f 407 19 14
f 410 588 19
f 410 589 588
f 412 589 410
f 413 590 412
f 412 590 589
f 413 591 590
f 413 592 591
f 591 592 32
f 32 592 36
f 592 593 36
f 416 594 593
f 593 594 36
f 417 595 416
f 416 595 594
f 417 596 595
f 419 596 417
f 419 45 596
f 420 45 419
f 597 46 420
f 420 46 45
f 46 597 48
f 421 48 597
f 422 598 421
f 421 598 48
f 422 599 598
f 424 599 422
f 599 424 600
f 425 600 424
f 425 601 600
f 427 601 425
f 601 427 52
f 427 602 52
f 52 602 54
f 602 428 54
f 429 603 428
f 428 603 54
f 429 430 603
f 56 430 604
f 603 430 56
f 431 604 430
f 606 605 431
f 431 605 604
f 605 606 60
f 60 433 607
f 606 433 60
f 435 607 433
f 436 64 435
f 435 64 607
f 64 436 65
f 437 65 436
f 438 65 437
f 65 438 67
f 439 608 438
f 438 608 67
f 439 440 608
f 608 440 609
f 441 609 440
f 441 442 609
f 71 442 610
f 609 442 71
f 443 610 442
f 444 610 443
f 610 444 611
f 446 611 444
f 446 612 611
f 447 612 446
f 612 447 74
f 74 449 76
f 447 449 74
f 449 450 76
f 450 451 76
f 76 451 79
f 79 452 81
f 451 452 79
f 453 81 452
f 454 613 453
f 456 613 454
f 453 613 81
f 613 456 82
f 457 82 456
f 457 614 82
f 459 85 457
f 457 85 614
f 85 459 615
f 460 615 459
f 460 616 615
f 616 617 89
f 460 617 616
f 89 462 90
f 617 462 89
f 462 618 90
f 90 618 92
f 618 464 92
f 92 464 94
f 94 619 95
f 464 619 94
f 465 95 619
f 467 95 465
f 95 467 98
f 470 620 468
f 468 620 467
f 467 620 98
f 620 470 100
f 470 102 100
f 471 102 470
f 471 472 102
f 102 472 621
f 473 621 472
f 475 622 473
f 473 622 621
f 622 475 105
f 475 623 105
f 105 623 107
f 623 476 107
f 478 624 477
f 477 624 476
f 476 624 107
f 624 478 110
f 478 625 110
f 479 626 625
f 625 626 110
f 479 627 626
f 481 627 479
f 481 628 627
f 483 115 481
f 481 115 628
f 483 484 115
f 115 484 117
f 663 630 402
f 630 404 402
f 405 404 631
f 631 404 630
f 633 405 631
f 635 405 633
f 635 633 632
f 632 634 635
f 636 638 632
f 632 638 634
f 639 636 637
f 636 639 638
f 639 637 690
f 682 641 642
f 640 641 682
f 678 642 641
f 690 644 639
f 690 682 644
f 640 682 690
f 643 678 641
f 643 645 678
f 694 645 643
f 694 676 645
f 694 647 676
f 646 647 694
f 695 647 646
f 695 673 647
f 695 649 673
f 696 649 695
f 648 649 696
f 648 651 649
f 650 651 648
f 485 217 214
f 217 652 218
f 485 652 217
f 653 218 652
f 653 221 218
f 654 221 653
f 224 654 655
f 221 654 222
f 222 654 224
f 656 224 684
f 684 224 655
f 684 386 656
f 685 386 684
f 685 387 386
f 685 657 387
f 387 657 388
f 657 389 388
f 658 389 657
f 658 659 389
f 660 392 658
f 658 392 659
f 394 392 660
f 660 687 394
f 661 395 687
f 687 395 394
f 662 397 661
f 661 397 395
f 399 397 662
f 399 662 663
f 402 629 663
f 663 629 399
f 651 650 665
f 651 665 666
f 649 651 666
f 649 666 667
f 639 664 668
f 668 638 639
f 638 668 669
f 634 638 669
f 635 669 670
f 669 635 634
f 671 635 670
f 672 671 670
f 672 406 671
f 665 406 672
f 406 665 650
f 650 403 406
f 673 649 667
f 673 667 674
f 647 673 674
f 647 674 675
f 676 647 675
f 676 675 677
f 677 645 676
f 645 677 679
f 678 645 679
f 678 679 680
f 680 642 678
f 681 642 680
f 682 642 681
f 682 681 683
f 644 682 683
f 683 664 639
f 644 683 639
f 669 664 683
f 669 683 681
f 669 668 664
f 674 677 675
f 670 681 680
f 670 669 681
f 672 670 680
f 665 672 680
f 665 680 679
f 666 674 667
f 666 679 677
f 666 665 679
f 666 677 674
f 684 196 197
f 655 196 684
f 195 196 655
f 197 199 684
f 684 199 685
f 200 685 199
f 685 200 657
f 657 202 658
f 200 202 657
f 202 204 658
f 204 686 658
f 658 686 660
f 660 686 208
f 208 687 660
f 208 210 687
f 687 210 661
f 210 212 661
f 661 212 662
f 688 662 212
f 663 662 688
f 663 688 215
f 630 215 216
f 663 215 630
f 631 216 689
f 630 216 631
f 633 689 219
f 631 689 633
f 633 219 632
f 219 220 632
f 632 223 636
f 220 223 632
f 223 225 636
f 636 225 637
f 385 637 226
f 226 637 225
f 691 690 385
f 385 690 637
f 690 691 640
f 641 692 693
f 691 692 640
f 640 692 641
f 390 643 693
f 693 643 641
f 390 391 643
f 643 391 694
f 393 694 391
f 694 393 646
f 646 393 396
f 396 398 646
f 398 695 646
f 400 695 398
f 696 695 400
f 401 696 400
f 648 696 401
f 401 403 648
f 403 650 648
f 189 191 485
f 191 697 485
f 485 697 652
f 653 697 193
f 652 697 653
f 653 193 654
f 193 195 654
f 654 195 655
