# Render LOD; unchanged CAD body-local coordinates in mm
v 50.9432111 143.9520624 82.3773483
v 51.1890065 143.7807244 82.3904784
v 51.2270490 143.7453758 82.3904784
v 51.6121356 143.6066375 82.1908917
v 51.3248288 143.6409998 82.3883197
v 51.9474017 143.0044346 82.0000791
v 51.8617873 142.5227388 82.0000936
v 51.5171625 141.9721790 82.0002291
v 51.3901639 142.2777739 82.3079750
v 50.8361984 141.5816387 82.0004024
v 50.8770034 141.8988346 82.2750095
v 50.1845233 141.8340587 82.2393838
v 49.4821195 142.7274206 86.6081644
v 49.4538147 143.0671751 86.0567844
v 49.5211317 142.6192749 85.5817067
v 49.7052366 142.3176818 86.6090614
v 49.8868926 142.1336763 85.6345985
v 50.0450083 142.0540985 86.6077026
v 50.4372736 141.9535435 85.6882898
v 50.6452541 141.9478347 86.6122614
v 50.9506058 142.0451149 85.7337490
v 50.4369489 141.9437252 85.6233789
v 50.6089783 141.9579804 86.2234502
v 51.2877145 142.2874969 86.6122281
v 50.9938875 142.0771690 86.2559600
v 51.0332379 142.0882116 85.6761944
v 51.5206679 142.7433181 85.8161568
v 51.5358734 142.8205606 86.6049336
v 51.4399698 142.5228401 85.7244566
v 51.5089959 142.7008152 86.3340948
v 51.5049691 143.2969238 86.6093614
v 51.2824221 143.6779399 85.8631360
v 51.5248291 143.2557701 86.3807559
v 51.4171579 143.5033789 85.8170464
v 51.3008095 143.6693357 86.4258251
v 50.8826698 143.9755720 86.6103488
v 50.4360873 144.0493201 86.6088241
v 50.8463574 144.0009900 85.8901644
v 49.8376442 143.8304938 86.6083513
v 50.1620070 144.0042172 85.9457219
v 49.4882800 142.6758445 84.9899739
v 49.4511120 143.0517219 84.8908324
v 49.5809679 142.4673837 84.9376189
v 50.3778665 141.9594654 85.0961735
v 50.7798875 141.9905026 85.1371185
v 51.1889730 142.2022023 85.1785443
v 50.6715283 141.9490687 85.0502308
v 51.5163025 142.7124025 85.2339836
v 51.4141254 142.4796802 85.1418983
v 51.5081330 143.3137716 85.2823491
v 51.2359973 143.7455453 85.3277009
v 50.8119992 144.0076377 85.3713666
v 51.1145197 143.8524615 85.2764669
v 50.6751751 144.0358932 85.3139439
v 49.7420821 143.7249323 85.4071234
v 49.4906771 142.7032179 84.4022502
v 49.4750497 142.7500839 84.3319501
v 49.7916214 142.2169254 84.4597932
v 50.1870241 141.9986994 84.4260288
v 50.8852655 142.0168770 84.5562689
v 50.6444052 141.9576438 84.4640451
v 51.2948902 142.3176362 84.6022346
v 51.5309309 142.7753887 84.6529473
v 51.4980087 142.6603060 84.5656951
v 51.4864172 143.3868042 84.7077334
v 51.5136344 143.3206686 84.6302821
v 51.0622520 143.8954401 84.7688448
v 50.5651425 144.0455780 84.8090836
v 50.1125128 143.9771193 84.8497594
v 50.2036575 144.0086786 84.7709919
v 49.6951106 143.6807236 84.8949573
v 49.8509214 143.8199500 84.8074086
v 49.4826244 143.2506634 84.9385127
v 49.5875010 143.5196091 84.8422772
v 49.5299747 142.5996382 83.8264668
v 49.4427770 143.0722159 83.7126601
v 49.7593274 142.2616981 83.8631053
v 49.5985865 142.4513626 83.7696315
v 50.1652950 141.9973555 83.9118472
v 49.9687992 142.0963779 83.8213872
v 50.4807572 141.9438176 83.8641492
v 51.2909480 142.3003824 84.0147424
v 51.5480680 142.8699044 84.0751021
v 51.4616295 142.5637655 83.9780044
v 51.4324916 143.4968646 84.1245554
v 51.0358783 143.9098788 84.1789353
v 50.4959832 144.0401732 84.1966429
v 50.9515348 143.9548417 84.1172869
v 49.9960700 143.9321746 84.2802924
v 49.8879657 143.8687013 84.2214643
v 49.6056913 143.5461061 84.3240398
v 49.5865779 143.5170059 84.2583393
v 49.4795805 143.2378766 84.2844664
v 49.4636672 142.8580681 83.2211420
v 49.5702561 142.5158643 83.2533231
v 49.4626645 142.7701004 83.1533287
v 49.8109883 142.2121945 83.2879547
v 50.1760596 142.0095659 83.2894566
v 50.5635691 141.9542256 83.3549819
v 50.7450577 141.9725450 83.3011444
v 51.4400646 142.5182690 83.4592566
v 51.2794027 142.2887650 83.3587127
v 51.5475687 143.0086270 83.4975421
v 51.5100444 142.7217581 83.4071054
v 51.5417636 143.1149387 83.4374071
v 50.6381225 144.0427436 83.5671578
v 49.9823784 143.9216766 83.6967190
v 50.1733107 143.9966841 83.6028860
v 49.5608345 143.4814832 83.7465735
v 51.2552640 143.7167537 82.3962005
v 51.1390992 143.8218690 82.4014853
v 50.6773477 144.0310900 82.3874894
v 50.1563664 143.9974227 82.5078958
v 50.2827360 144.0263204 82.4220565
v 49.8874604 143.8499392 82.4650179
v 49.5390040 143.4248986 82.5787004
v 49.2015198 140.7509000 82.0000000
v 49.5650564 141.9042897 82.0000542
v 47.9030000 143.0000343 82.0000000
v 50.0496275 141.6326507 82.0000427
v 49.1429717 142.5002479 82.0002665
v 49.0687615 143.1237318 82.0000242
v 51.7984802 140.7509000 82.0000000
v 49.2015198 145.2491000 82.0000000
v 49.7186202 144.2238501 82.0002023
v 49.2129908 143.6542511 82.0000679
v 53.0970000 143.0000343 82.0000000
v 51.9705436 143.1375165 82.0000000
v 51.9548510 143.2059487 82.0000000
v 51.9073469 143.3630029 81.9999988
v 51.8326392 143.5231942 82.0000000
v 51.8048999 143.5890181 82.0000000
v 51.7229446 143.7486880 81.9999963
v 51.7984802 145.2491000 82.0000000
v 51.6171276 143.8823034 82.0138616
v 51.1017635 144.3220597 82.0002044
v 50.3978021 144.4375319 82.0000408
v 47.9030000 143.0000343 87.0000000
v 49.2015198 145.2491000 87.0000000
v 51.7984802 145.2491000 87.0000000
v 53.0970000 143.0000343 87.0000000
v 51.7984802 140.7509000 87.0000000
v 49.2015198 140.7509000 87.0000000
v 50.7715261 141.5861616 86.9999335
v 51.3646795 141.8436151 86.9998174
v 51.7435407 142.2816482 86.9999714
v 51.8848688 143.4023209 86.9997996
v 51.1381436 144.2905027 86.9999285
v 51.5711024 143.9600484 86.9999560
v 49.0717801 142.8106854 86.9998146
v 49.3764040 142.0906815 86.9996430
v 50.0619964 141.6174702 86.9996318
v 51.9277972 142.8089821 86.9998194
v 51.2822339 143.7037352 86.6090428
v 50.5866643 144.4351974 86.9999144
v 50.0666807 144.3738506 86.9998178
v 49.5337348 144.0646535 86.9999074
v 49.4958027 143.3214409 86.6103076
v 49.1256902 143.4566360 86.9996978
v 49.4471103 142.9967882 82.5546041
v 49.6573687 142.3797306 82.6815285
v 49.5476543 142.5686839 82.5933448
v 49.7994615 142.2123779 82.6259920
v 50.6241624 141.9510808 82.7816732
v 50.3450828 141.9562727 82.6818653
v 51.0920520 142.1356814 82.8206279
v 50.8335414 142.0067955 82.7302487
v 51.2348300 142.2442102 82.7654857
v 51.5531659 143.0013425 82.9167206
v 51.5408825 142.8014112 82.8207836
v 51.4895437 143.3438410 82.8769307
v 50.9913704 143.9345743 83.0120072
v 51.2156131 143.7753982 82.9187459
v 50.1533892 143.9888746 83.0211853
v 49.6159412 143.5622957 83.1550648
v 49.4749848 143.2112882 83.1892854
v 49.5332280 143.4182315 83.0945596
v 51.9902782 143.0732026 82.0045777
v 51.9463779 143.4140616 82.0263935
v 51.6307968 143.9882154 82.0667226
v 51.0782936 144.3991008 82.1105948
v 50.2701867 144.4884173 82.1609527
v 49.7538012 144.2948787 82.1939781
v 49.5766170 143.5044806 82.5070501
v 49.1653783 143.7445662 82.2462378
v 49.0040532 142.9227480 82.2957370
v 49.2147974 142.1942059 82.3446732
v 49.8837714 141.6339090 82.3987385
v 50.7071609 141.5026004 82.4508071
v 51.3633167 141.7714412 82.4972474
v 51.8001270 142.2556423 82.5374778
v 52.0074799 143.1534065 82.5914611
v 51.7502571 143.8299379 82.6393115
v 51.3250296 144.2504336 82.6791396
v 50.6600940 144.0443229 82.9765971
v 50.4520660 144.5189547 82.7388775
v 49.8229199 143.8022048 83.0540170
v 49.6476198 144.2355042 82.7884205
v 49.1869618 143.7292516 82.8325055
v 49.0162502 143.2171920 82.8634852
v 49.0404919 142.6521711 82.9014995
v 49.3835037 141.9578501 82.9485874
v 49.8020619 142.2105088 83.2174131
v 50.1884803 141.5371488 83.0053353
v 50.6970581 141.5119001 83.0373090
v 51.6767855 142.0663820 83.1088749
v 51.9528060 142.6268729 83.1484783
v 51.3615466 143.6127413 83.4869342
v 51.8877219 143.6406232 83.2117203
v 50.9724205 143.9329801 83.5315969
v 50.6887219 144.4874026 83.3046636
v 50.1936472 144.4695993 83.3370461
v 49.7014758 143.6973953 83.6541114
v 49.4656334 144.1091426 83.3913136
v 49.0512127 143.3911165 83.4397145
v 49.0225738 142.7189892 83.4793950
v 49.4313746 141.9320938 83.5353203
v 50.5637656 141.5030695 83.6159538
v 51.1004097 141.6287129 83.6476030
v 51.0854088 142.1206290 83.9275039
v 51.8758876 142.4097353 83.7177447
v 51.9943126 142.9458176 83.7538762
v 51.5398095 143.1849672 84.0314149
v 51.3310484 143.6388914 84.0738319
v 51.9081958 143.5080226 83.7910344
v 51.6029713 144.0177219 83.8265277
v 50.9624215 144.4371883 83.8729329
v 49.6259033 144.2318109 83.9585013
v 49.0192285 143.3778355 84.0267001
v 51.7788249 143.6323288 82.0050355
v 51.1456043 144.2431467 82.0424864
v 50.4719093 144.3766448 82.0717706
v 49.3209028 143.5528172 82.1367784
v 49.6032147 142.1515361 82.2086223
v 51.5965029 142.9355263 82.3454560
v 51.4647172 143.4414952 82.3764320
v 50.7664692 144.0214168 82.4531525
v 49.7816442 143.7606876 82.5466686
v 49.4482905 142.8717475 82.6292380
v 50.0064893 142.0658870 82.7248462
v 51.2550991 141.7097617 83.0743348
v 51.3980835 142.4515014 82.8613604
v 51.4004065 143.5482615 82.9633948
v 51.2123011 144.3208848 83.2730535
v 50.5153212 144.0482009 83.0604918
v 50.0137296 143.9384002 83.1016599
v 50.0339721 141.5820594 83.5808801
v 51.0173968 142.0815840 83.4030559
v 51.5668463 141.9481480 83.6861878
v 51.3990201 143.5657245 83.5554029
v 51.0339676 143.8977100 83.5970835
v 50.6171194 144.0508637 83.6390056
v 50.2510523 144.4744445 83.9189687
v 49.4531611 142.9743823 83.7958237
v 49.3140924 142.5883698 82.1834112
v 49.2221308 143.0699511 82.1607278
v 49.7156900 144.0930988 82.1071337
v 49.0887895 142.4830852 84.0824257
v 49.3743325 142.0097000 84.1188099
v 49.8022714 141.6703041 84.1528731
v 50.7584525 141.4944576 84.2122000
v 50.7905448 141.9843985 83.9634369
v 51.6463830 142.0173361 84.2795910
v 51.9473220 142.6095543 84.3199018
v 51.1441607 144.3521338 84.4490701
v 50.6106849 144.4930625 84.4839159
v 50.0521495 144.4289679 84.5191021
v 49.5285788 144.1439455 84.5548201
v 49.2048086 143.7512376 84.5884791
v 49.4666532 143.1742599 84.3633133
v 49.1790211 142.2967228 84.6828397
v 49.6042854 141.7802204 84.7199355
v 50.3189513 141.9626416 84.5063745
v 50.5362808 141.4845221 84.7842905
v 51.5370037 141.9194756 84.8551980
v 51.9164198 143.4957378 84.9598531
v 51.6590080 143.9496788 84.9938599
v 50.7136658 144.4840564 85.0629585
v 50.1506683 144.4579793 85.0984207
v 49.7432772 144.2862127 85.1254453
v 49.3590987 143.9685310 85.1569449
v 49.0915294 143.5083508 85.1908071
v 49.1224514 142.4107782 85.2605794
v 49.0028024 142.9633400 85.2251016
v 49.4393216 141.9376492 85.2945673
v 49.8742138 142.1489232 85.0487671
v 49.8956077 141.6295617 85.3303510
v 51.0296202 141.5957396 85.4013368
v 51.6775462 142.0500400 85.4522294
v 51.9731486 143.2658180 85.5323624
v 51.7724037 143.7899760 85.5672825
v 51.3968842 144.1989015 85.6024885
v 50.3347528 144.5077555 85.6677337
v 50.3390134 144.0368038 85.4166356
v 50.0086035 143.9249705 85.4484470
v 49.3485773 144.0044421 85.7402213
v 49.7400095 143.7195770 85.4798447
v 49.5405041 143.4174175 85.5118716
v 49.0142395 143.2134773 85.7938122
v 49.4539534 143.0565481 85.5457389
v 49.0538417 142.6092196 85.8329868
v 49.2953459 142.1097026 85.8678001
v 49.7010497 141.7337178 85.9026351
v 50.2211341 141.5279024 85.9376925
v 50.7733160 141.5305361 85.9709864
v 51.2991976 141.7337062 86.0072618
v 51.7239504 142.1311902 86.0423436
v 51.3144117 142.3433613 85.7804066
v 51.5211537 143.2514680 85.8618485
v 51.6591404 143.9630399 86.1648080
v 49.7678609 142.2433327 84.3850195
v 51.1741998 142.1869359 84.5200223
v 51.9932320 143.1537435 84.3510280
v 51.8769215 143.5819958 84.3822522
v 51.5960334 144.0203738 84.4108385
v 51.0997297 143.8681236 84.6913275
v 50.6370207 144.0392924 84.7328909
v 49.0190059 143.2333315 84.6195494
v 49.0279146 142.7620518 84.6509106
v 50.0583556 142.0448196 84.9995965
v 51.0897320 141.6289592 84.8201120
v 51.1885770 142.2127683 85.1063997
v 51.8551477 142.3681837 84.8879112
v 51.9948249 142.9078152 84.9213230
v 51.5546333 143.0658294 85.1982291
v 51.3935745 143.5491541 85.2370962
v 51.2432365 144.3012332 85.0250926
v 50.1477794 143.9922385 85.3665687
v 49.5173890 143.3708079 85.4439273
v 49.4527056 142.9389726 85.4824059
v 49.6125145 142.4292473 85.5339940
v 49.9737492 142.0939754 85.5763660
v 50.4276590 141.5077226 85.3634753
v 51.9682633 142.7020496 85.4939322
v 51.5496341 143.0840536 85.7777560
v 50.9692055 144.4145077 85.6307074
v 49.7683642 143.7459718 85.9884259
v 49.5584273 143.4606066 86.0209260
v 49.5547070 142.5208373 86.1084594
v 49.9127187 142.1351116 86.1549499
v 50.2311754 141.9866196 86.1867958
v 51.2843719 142.3046898 86.2891478
v 51.9250186 142.5585346 86.0719117
v 51.9864936 143.2909554 86.1181845
f 111 1 2
f 2 4 3
f 1 4 2
f 3 4 5
f 5 4 236
f 236 4 235
f 4 6 235
f 7 235 6
f 235 7 9
f 7 8 9
f 9 10 11
f 8 10 9
f 11 10 12
f 14 13 339
f 15 331 330
f 13 16 339
f 17 332 331
f 16 340 339
f 16 18 340
f 18 341 340
f 332 17 22
f 17 19 22
f 18 20 341
f 20 23 341
f 19 21 22
f 21 26 22
f 20 25 23
f 20 24 25
f 25 24 342
f 21 308 26
f 308 29 26
f 308 27 29
f 342 24 30
f 24 28 30
f 27 335 29
f 28 33 30
f 28 31 33
f 309 34 335
f 31 154 33
f 35 154 32
f 32 154 38
f 154 36 38
f 36 37 38
f 38 37 40
f 37 39 40
f 40 39 337
f 337 39 338
f 39 158 338
f 338 158 14
f 158 13 14
f 35 33 154
f 300 15 330
f 15 17 331
f 27 309 335
f 309 32 34
f 41 43 42
f 41 286 43
f 286 320 43
f 286 44 320
f 44 47 320
f 44 45 47
f 45 46 47
f 47 46 322
f 322 46 49
f 46 48 49
f 48 325 49
f 48 50 325
f 50 326 325
f 50 51 326
f 51 53 326
f 51 52 53
f 53 52 54
f 52 294 54
f 54 294 328
f 294 295 328
f 295 55 328
f 295 297 55
f 297 329 55
f 297 298 329
f 298 300 329
f 300 330 329
f 270 56 57
f 56 311 57
f 56 58 311
f 58 59 311
f 58 273 59
f 59 273 61
f 273 60 61
f 60 312 61
f 60 62 312
f 62 64 312
f 62 63 64
f 64 63 66
f 63 65 66
f 66 65 316
f 65 67 316
f 67 317 316
f 67 68 317
f 68 70 317
f 68 69 70
f 70 69 72
f 69 71 72
f 71 74 72
f 71 73 74
f 73 42 74
f 73 41 42
f 254 75 76
f 75 78 76
f 75 77 78
f 77 80 78
f 77 79 80
f 79 81 80
f 79 262 81
f 262 220 81
f 262 82 220
f 82 84 220
f 82 83 84
f 83 223 84
f 83 85 223
f 85 224 223
f 85 86 224
f 86 88 224
f 86 87 88
f 89 90 87
f 89 91 90
f 91 92 90
f 91 270 92
f 270 93 92
f 270 57 93
f 94 95 96
f 95 203 96
f 95 97 203
f 97 98 203
f 98 99 100
f 99 248 100
f 100 248 102
f 248 101 102
f 101 104 102
f 101 103 104
f 103 105 104
f 103 250 105
f 250 208 105
f 208 251 210
f 250 251 208
f 210 252 106
f 251 252 210
f 252 108 106
f 252 107 108
f 108 107 213
f 107 109 213
f 213 109 76
f 109 254 76
f 110 3 5
f 110 3 3
f 3 2 3
f 3 111 2
f 237 1 111
f 237 112 1
f 237 114 112
f 237 113 114
f 113 115 114
f 113 238 115
f 115 238 184
f 238 116 184
f 184 116 160
f 116 239 160
f 117 121 118
f 119 121 117
f 118 120 117
f 120 10 117
f 119 122 121
f 119 126 122
f 10 123 117
f 10 8 123
f 8 7 123
f 119 124 126
f 126 124 125
f 124 137 125
f 6 127 7
f 128 127 6
f 129 127 128
f 130 127 129
f 131 127 130
f 132 127 131
f 133 127 132
f 7 127 123
f 133 134 127
f 124 134 137
f 135 134 133
f 136 134 135
f 137 134 136
f 138 124 119
f 138 139 124
f 139 134 124
f 139 140 134
f 140 127 134
f 140 141 127
f 141 123 127
f 141 142 123
f 142 117 123
f 142 143 117
f 143 119 117
f 143 138 119
f 152 151 143
f 151 138 143
f 150 138 151
f 144 152 143
f 159 138 150
f 142 144 143
f 145 144 142
f 146 145 142
f 139 138 159
f 139 159 157
f 139 157 156
f 155 139 156
f 141 153 146
f 141 146 142
f 141 147 153
f 140 147 141
f 140 139 155
f 140 155 148
f 140 148 149
f 140 149 147
f 151 13 150
f 13 151 16
f 16 151 18
f 152 18 151
f 18 152 20
f 152 144 20
f 20 145 24
f 145 20 144
f 146 24 145
f 153 28 146
f 146 28 24
f 28 147 31
f 153 147 28
f 147 154 31
f 149 154 147
f 154 148 36
f 148 154 149
f 36 155 37
f 155 36 148
f 155 156 37
f 37 156 39
f 157 39 156
f 159 39 157
f 159 158 39
f 159 150 158
f 158 150 13
f 239 162 160
f 239 161 162
f 161 163 162
f 161 240 163
f 163 240 165
f 240 164 165
f 164 167 165
f 164 166 167
f 166 168 167
f 166 242 168
f 168 242 170
f 242 169 170
f 170 169 171
f 169 243 171
f 171 243 173
f 243 172 173
f 172 195 173
f 172 245 195
f 245 174 195
f 245 246 174
f 174 246 197
f 246 175 197
f 175 177 197
f 175 176 177
f 176 96 177
f 176 94 96
f 6 128 178
f 6 179 128
f 4 179 6
f 4 180 179
f 1 181 4
f 4 181 180
f 1 112 181
f 181 112 182
f 112 114 182
f 115 183 114
f 114 183 182
f 115 184 183
f 183 184 185
f 160 186 184
f 184 186 185
f 162 187 160
f 160 187 186
f 162 163 187
f 187 163 188
f 165 188 163
f 188 165 189
f 167 189 165
f 167 168 189
f 189 168 190
f 190 168 191
f 170 191 168
f 191 170 192
f 171 192 170
f 173 193 171
f 171 193 192
f 193 173 194
f 194 195 196
f 173 195 194
f 195 174 196
f 196 174 198
f 174 197 198
f 198 197 199
f 199 177 200
f 197 177 199
f 96 200 177
f 200 96 201
f 201 96 202
f 96 203 202
f 202 203 204
f 98 204 203
f 100 204 98
f 204 100 205
f 205 100 241
f 102 241 100
f 241 102 206
f 104 207 102
f 102 207 206
f 104 105 207
f 207 105 209
f 105 208 209
f 209 208 244
f 208 210 244
f 244 210 211
f 106 211 210
f 106 108 211
f 211 108 212
f 212 108 214
f 108 213 214
f 214 213 215
f 213 76 215
f 215 76 216
f 78 216 76
f 216 78 217
f 80 217 78
f 80 247 217
f 81 247 80
f 218 81 219
f 247 81 218
f 220 219 81
f 219 220 249
f 84 221 220
f 220 221 249
f 223 222 84
f 84 222 221
f 222 223 225
f 225 224 226
f 223 224 225
f 224 88 226
f 226 88 227
f 87 227 88
f 90 253 87
f 87 253 227
f 90 228 253
f 90 92 228
f 228 92 229
f 92 93 229
f 229 57 258
f 93 57 229
f 178 128 6
f 128 128 178
f 128 129 128
f 179 129 128
f 179 130 129
f 179 131 130
f 179 132 131
f 179 230 132
f 180 135 179
f 179 135 230
f 180 231 135
f 181 231 180
f 181 232 231
f 182 232 181
f 182 257 232
f 183 257 182
f 185 257 183
f 186 256 185
f 187 255 186
f 188 234 187
f 189 11 12
f 191 9 190
f 233 257 185
f 256 233 185
f 255 256 186
f 234 255 187
f 234 188 12
f 189 12 188
f 11 189 190
f 190 9 11
f 191 235 9
f 192 235 191
f 193 236 192
f 192 236 235
f 193 194 236
f 5 194 110
f 110 194 3
f 3 194 111
f 111 194 237
f 236 194 5
f 196 237 194
f 237 196 113
f 198 113 196
f 199 238 198
f 198 238 113
f 238 199 116
f 200 239 199
f 201 239 200
f 199 239 116
f 239 201 161
f 202 161 201
f 202 240 161
f 204 240 202
f 240 204 164
f 241 164 205
f 205 164 204
f 164 241 166
f 206 242 241
f 241 242 166
f 206 207 242
f 242 207 169
f 209 169 207
f 209 243 169
f 244 243 209
f 243 244 172
f 212 245 211
f 211 245 244
f 244 245 172
f 212 246 245
f 214 246 212
f 246 214 175
f 215 175 214
f 215 176 175
f 216 176 215
f 216 94 176
f 217 95 216
f 216 95 94
f 247 97 217
f 217 97 95
f 97 247 98
f 98 247 99
f 247 218 99
f 249 248 219
f 219 248 218
f 218 248 99
f 248 249 101
f 221 101 249
f 221 222 101
f 101 222 103
f 103 225 250
f 222 225 103
f 226 250 225
f 226 251 250
f 227 251 226
f 227 252 251
f 253 252 227
f 252 253 107
f 228 107 253
f 229 109 228
f 228 109 107
f 258 254 229
f 229 254 109
f 75 254 258
f 257 125 232
f 125 137 232
f 137 136 232
f 232 136 231
f 136 135 231
f 133 230 135
f 133 132 230
f 132 132 230
f 132 131 132
f 120 12 10
f 118 12 120
f 12 118 234
f 121 234 118
f 234 121 255
f 121 256 255
f 122 256 121
f 126 256 122
f 126 233 256
f 125 257 126
f 126 257 233
f 258 259 75
f 75 259 77
f 77 260 79
f 259 260 77
f 261 79 260
f 261 262 79
f 263 262 261
f 262 263 82
f 82 264 83
f 263 264 82
f 313 83 264
f 313 314 83
f 83 314 85
f 315 85 314
f 315 265 85
f 85 265 86
f 265 266 86
f 86 266 87
f 266 267 87
f 87 267 89
f 268 89 267
f 268 269 89
f 89 269 91
f 318 270 269
f 269 270 91
f 318 319 270
f 270 319 56
f 56 271 58
f 319 271 56
f 272 58 271
f 274 273 272
f 272 273 58
f 274 321 273
f 273 321 60
f 60 275 62
f 321 275 60
f 62 323 63
f 275 323 62
f 324 63 323
f 276 65 324
f 324 65 63
f 276 277 65
f 65 277 67
f 327 67 277
f 327 278 67
f 67 278 68
f 278 279 68
f 68 279 69
f 279 280 69
f 69 280 71
f 280 281 71
f 281 282 71
f 71 282 73
f 282 284 73
f 73 284 41
f 284 283 41
f 285 286 283
f 283 286 41
f 285 287 286
f 286 287 44
f 44 333 45
f 287 333 44
f 288 45 333
f 289 46 288
f 288 46 45
f 46 289 48
f 334 48 289
f 334 290 48
f 48 290 50
f 290 291 50
f 50 291 51
f 291 292 51
f 51 292 52
f 292 336 52
f 293 294 336
f 336 294 52
f 293 295 294
f 296 295 293
f 296 297 295
f 296 298 297
f 299 298 296
f 299 300 298
f 301 300 299
f 300 301 15
f 15 302 17
f 301 302 15
f 302 303 17
f 17 304 19
f 303 304 17
f 304 305 19
f 19 305 21
f 305 306 21
f 307 308 306
f 306 308 21
f 307 343 308
f 308 343 27
f 344 309 343
f 343 309 27
f 310 309 344
f 32 309 310
f 310 35 32
f 258 311 259
f 57 311 258
f 259 311 260
f 311 59 260
f 260 59 261
f 59 61 261
f 261 312 263
f 61 312 261
f 312 64 263
f 263 64 264
f 66 313 64
f 64 313 264
f 66 314 313
f 316 315 66
f 66 315 314
f 315 316 265
f 316 317 265
f 265 317 266
f 317 70 266
f 266 70 267
f 267 72 268
f 70 72 267
f 268 74 269
f 72 74 268
f 42 318 74
f 74 318 269
f 43 319 42
f 42 319 318
f 319 43 271
f 271 43 272
f 320 272 43
f 272 320 274
f 320 47 274
f 322 321 47
f 47 321 274
f 321 322 275
f 49 323 322
f 322 323 275
f 49 324 323
f 325 324 49
f 324 325 276
f 325 326 276
f 276 326 277
f 53 327 326
f 54 327 53
f 326 327 277
f 327 54 278
f 278 328 279
f 54 328 278
f 279 328 280
f 280 328 281
f 281 55 282
f 328 55 281
f 282 329 284
f 55 329 282
f 284 330 283
f 329 330 284
f 330 331 283
f 283 331 285
f 331 332 285
f 285 332 287
f 22 333 332
f 332 333 287
f 22 26 333
f 333 26 288
f 288 26 289
f 289 29 334
f 26 29 289
f 335 334 29
f 334 335 290
f 290 34 291
f 335 34 290
f 291 32 292
f 34 32 291
f 38 336 32
f 32 336 292
f 40 293 38
f 38 293 336
f 293 40 296
f 40 337 296
f 337 338 296
f 296 338 299
f 338 14 299
f 299 14 301
f 14 339 301
f 301 339 302
f 302 339 303
f 303 340 304
f 339 340 303
f 340 341 304
f 23 305 341
f 25 305 23
f 341 305 304
f 305 25 306
f 25 342 306
f 306 342 307
f 30 343 342
f 342 343 307
f 30 33 343
f 343 33 344
f 35 344 33
f 310 344 35
