# Render LOD; unchanged CAD body-local coordinates in mm
v 108.1978866 57.9998191 80.0915430
v 107.7022126 57.8462970 80.1930334
v 107.8109935 57.7807244 80.0876380
v 107.7729510 57.7453758 80.0876380
v 107.6787416 57.6451099 80.0889470
v 107.3611022 57.4555811 80.2673423
v 107.5062776 57.3790317 80.1032745
v 107.1565817 57.0019733 80.3798472
v 107.4179692 56.9449433 80.1234394
v 107.1889640 56.6001496 80.3998553
v 107.4787583 56.6069413 80.1371866
v 107.4895616 56.0871180 80.3999498
v 107.6672077 56.2577579 80.1554022
v 107.8556338 55.8029272 80.3999709
v 108.0149495 55.9722738 80.1739786
v 108.3271644 55.6497109 80.3999758
v 108.3693186 55.8613970 80.1896165
v 109.5307060 56.8068360 78.4862660
v 109.4641670 56.5841770 78.5216929
v 109.3518747 56.3864967 78.4524728
v 108.4453566 55.9413903 78.3790913
v 108.6727981 55.9572547 78.4476482
v 107.9016014 56.1385816 78.3358243
v 108.1391502 56.0163047 78.4110864
v 107.7245662 56.2822506 78.3754869
v 107.4565630 56.8411925 78.3308338
v 107.4514738 56.8836707 78.2733894
v 107.5339859 57.4085072 78.2344135
v 107.7961733 57.7818237 78.2030762
v 107.8355503 57.8131239 78.2515587
v 108.3115730 58.0418891 78.1556886
v 108.2947974 58.0323724 78.2151391
v 108.8010613 57.9998521 78.1576926
v 109.0170050 57.9068404 78.1533488
v 109.4703933 56.6001397 78.9381992
v 109.5386935 56.8802070 79.0146708
v 109.1530553 56.1706591 78.9010716
v 109.0508439 56.0993031 78.9444669
v 108.2661845 55.9787193 78.8346079
v 108.5654546 55.9543306 78.9079374
v 107.8926695 56.1463085 78.8047846
v 108.1898918 55.9988348 78.8817267
v 107.5577696 56.5231366 78.7671916
v 107.7310279 56.2761422 78.8456138
v 107.4596676 56.8185183 78.8013506
v 107.6431949 57.6028944 78.6880288
v 107.5065002 57.3325365 78.7622292
v 108.0162396 57.9386766 78.6511869
v 107.7133322 57.6922816 78.7349513
v 108.6118845 58.0419280 78.6636683
v 109.0489663 57.8950659 78.6277267
v 109.3449552 57.6154946 78.5988029
v 109.5296232 57.1845116 78.5127073
v 109.5191690 57.2520140 78.5731738
v 109.5335279 56.8344408 79.4249031
v 109.5540580 56.9965804 79.4904232
v 109.3835108 56.4332559 79.3947913
v 109.4611302 56.5909852 79.4588706
v 108.6642853 55.9679222 79.3319123
v 108.8516146 56.0108032 79.3970960
v 108.5629322 55.9579236 79.3789717
v 107.8554542 56.1663705 79.2700321
v 108.2314337 55.9870979 79.3553393
v 107.5219786 56.6100978 79.2265011
v 107.7785979 56.2303248 79.3203735
v 107.4940999 56.6958698 79.2768916
v 107.4625726 57.1456726 79.2444408
v 107.6717063 57.6418349 79.1510316
v 108.0207526 57.9373418 79.1208582
v 108.0314055 57.9372574 79.1752940
v 108.4853582 58.0475419 79.0867781
v 109.0063165 57.9288891 79.0477044
v 108.5046225 58.0528873 79.1414778
v 108.8350591 57.9885006 79.1157930
v 109.4436425 57.4719815 79.0025175
v 109.1912562 57.7932693 79.0840218
v 109.5463629 57.0026693 78.9682336
v 109.5054202 57.3196030 79.0441909
v 107.7447360 57.7167537 80.0830494
v 107.8797861 57.8382663 80.0688442
v 107.9661081 57.8955520 80.0782546
v 108.6020083 58.0432722 80.0124703
v 108.5116202 58.0485149 80.0732326
v 109.1069678 57.8647453 79.9759202
v 109.0233475 57.9183236 80.0372151
v 109.4613702 57.4239050 79.9366075
v 109.4195632 57.5107822 79.9975945
v 110.1566761 55.8705041 80.4001633
v 109.3721526 55.9527299 80.3999624
v 109.3961971 55.2323136 80.4000155
v 108.8299087 55.6742549 80.3999129
v 110.4904991 56.9424472 80.4000681
v 109.7752143 56.4932744 80.3998590
v 110.2555922 57.9463780 80.4000879
v 109.8544521 57.1406546 80.3999695
v 108.3856368 54.9984561 80.4002538
v 109.6327630 57.7773511 80.3999045
v 107.2534658 55.4333869 80.4002471
v 109.1211852 58.2129011 80.3999724
v 107.0980916 56.9999657 80.4000000
v 108.4907278 58.9850391 80.4000257
v 106.6001513 56.3944505 80.4000656
v 107.1062549 57.0694961 80.4000000
v 107.5329636 58.7524251 80.4001346
v 108.5000106 58.3698325 80.3999261
v 106.5470003 57.3941931 80.4001113
v 107.9464720 58.2405767 80.3999900
v 107.5309120 57.9383166 80.3889548
v 106.9195466 58.1970318 80.4000150
v 111.0962320 56.9974054 80.0905016
v 110.6481287 56.2226852 80.2509752
v 110.1932131 55.4347495 80.2404818
v 109.7963549 54.7501507 80.0918940
v 108.8581885 54.7509480 80.2514048
v 107.9003557 54.7509931 80.2303783
v 107.1955886 54.7581817 80.1000436
v 106.6925249 55.6325429 80.2564736
v 106.3263253 56.2668739 80.2445131
v 105.9032816 56.9992323 80.0894502
v 106.1821342 57.4834580 80.2050331
v 106.6180245 58.2382307 80.2668100
v 107.1982608 59.2459049 80.0949666
v 108.0991104 59.2490162 80.2509805
v 109.0088845 59.2490077 80.2404877
v 109.8001830 59.2476467 80.0934589
v 109.4987991 58.7310094 80.4002518
v 110.3637237 58.2700148 80.2644089
v 110.7668574 57.5716634 80.2241099
v 111.0882052 57.0179575 78.3630572
v 110.5952306 56.1313004 78.1955426
v 109.8116523 54.7702903 78.3640641
v 110.3472100 58.2984142 78.1949939
v 107.2051454 59.2503644 78.3710612
v 106.2135398 57.5378809 78.2479183
v 106.7347108 58.4404817 78.2101931
v 107.2029961 54.7503698 78.3729179
v 106.8596368 55.3430335 78.2458821
v 106.4201215 56.1044991 78.1984577
v 109.1671317 54.7508935 78.2461680
v 108.2235792 54.7509245 78.2078514
v 106.2860640 56.7735330 78.1856783
v 106.5755863 55.8898457 78.1853320
v 107.1963603 55.1962559 78.1865124
v 108.0519877 54.8239485 78.1848669
v 108.9286639 54.8200499 78.1851905
v 110.0777351 55.4358351 78.1853886
v 110.5837018 56.2183457 78.1849558
v 110.7126862 56.9748970 78.1855993
v 110.6278195 57.6268987 78.1852379
v 110.3450013 58.2216866 78.1850583
v 109.8629814 58.7544309 78.1841970
v 108.5000396 59.2074367 78.1851619
v 108.4142032 59.2350727 78.1917216
v 107.6534939 59.0444782 78.1844531
v 106.5677636 58.0961315 78.1854083
v 106.3426854 57.4832778 78.1852265
v 105.9034229 56.9988148 78.3757239
v 109.5442656 55.0513525 78.1851094
v 109.7999256 59.2472508 78.3746893
v 109.2147737 59.2490648 78.2541479
v 109.0315113 59.1610817 78.1856380
v 107.0968714 58.7179753 78.1847804
v 108.5000396 59.2074367 77.4011898
v 108.7514277 59.1846157 77.3191351
v 109.2441313 59.0738635 77.3268799
v 109.6061934 58.9116640 77.3696705
v 110.1715039 58.4329671 77.3321249
v 110.4198937 58.0850363 77.3451145
v 110.7083119 57.1176396 77.3580783
v 110.6659009 56.5631242 77.3771228
v 110.1926438 55.5851109 77.3518120
v 108.2273636 54.8104681 77.3527379
v 107.8339967 54.8977152 77.3450805
v 106.9987937 55.3830717 77.3450787
v 106.7418190 55.6618342 77.3771417
v 106.5175450 56.0322264 77.3517187
v 106.3649118 56.4365511 77.3637269
v 106.2928373 56.9429637 77.3505764
v 106.8005735 58.4090600 77.3603527
v 107.1511911 58.7413017 77.3330803
v 108.4874380 59.2042107 77.3686833
v 109.0800634 59.0980068 77.2936037
v 108.9806394 59.0327218 77.2361472
v 109.5126410 58.8485837 77.2411343
v 109.7775156 58.7580930 77.2914777
v 109.9628927 58.6547097 77.3696149
v 109.9782536 58.4993957 77.2437010
v 110.3194754 58.1358370 77.2635019
v 110.5970792 57.6820846 77.3446770
v 110.4929257 57.6900277 77.2385814
v 110.6440425 57.2942423 77.2819779
v 110.6568833 56.7164316 77.2910479
v 110.5851089 56.8197486 77.2372917
v 110.5747573 56.2958325 77.3078796
v 110.4252932 55.9246001 77.3460997
v 110.3635382 56.0106558 77.2406907
v 110.1360524 55.6661402 77.2398575
v 109.7697794 55.2818858 77.2540453
v 109.8474010 55.2548716 77.3343330
v 109.3312292 54.9895914 77.2917800
v 109.5100578 55.0348665 77.3772906
v 109.1011220 54.8737913 77.3772998
v 108.9164394 54.8634406 77.2931920
v 108.6680104 54.7968550 77.3772980
v 109.0155337 54.9716804 77.2371026
v 108.4804774 54.8239022 77.2928050
v 108.1134314 54.9261319 77.2391249
v 107.4295014 55.0720671 77.3446949
v 107.6342696 55.0717321 77.2430856
v 107.2074974 55.3100252 77.2464981
v 106.7449209 55.7225309 77.2878377
v 106.5135841 56.1465139 77.2785283
v 106.6733813 55.9771877 77.2375646
v 106.3850863 56.5569564 77.2742249
v 106.3956606 56.8443907 77.2405379
v 106.4208997 57.3974013 77.2428568
v 106.3499745 57.5132985 77.3518167
v 106.4733525 57.7909454 77.2920459
v 106.5747431 58.0689615 77.3299598
v 106.6986777 58.0716282 77.2384259
v 106.8994366 58.4554143 77.2817519
v 107.1916874 58.6481603 77.2376329
v 107.5669076 58.9338790 77.2660761
v 107.4801329 58.9582338 77.3629259
v 107.8704313 59.1113833 77.3367173
v 108.0139402 59.0372788 77.2385035
v 108.2670599 59.1371772 77.2656932
v 108.2981927 59.1972731 77.3581509
v 109.5904692 58.5432794 77.2346000
v 110.1260053 57.9563222 77.2346000
v 108.8131915 58.8635595 77.2346000
v 110.3497879 57.3410355 77.2346000
v 108.0665941 58.8329574 77.2346000
v 110.3602293 56.6869424 77.2346000
v 107.5910419 58.6423318 77.2346000
v 110.1362930 56.0723259 77.2346000
v 107.2098521 58.3687605 77.2346000
v 106.8145697 57.8471978 77.2346000
v 109.7901479 55.6312395 77.2346000
v 109.2466437 55.2676622 77.2346000
v 106.6085221 57.0473599 77.2346000
v 108.5620847 55.1175519 77.2346000
v 106.7589091 56.2816341 77.2346000
v 107.9140670 55.2099739 77.2346000
v 107.0323113 55.8289806 77.2346000
v 107.3755959 55.4921392 77.2346000
v 110.3818052 57.0788290 77.3179191
v 110.2833306 56.3850375 77.3179191
v 109.9613656 55.8157698 77.3179191
v 109.4707938 55.3825950 77.3179191
v 108.9039725 55.1650984 77.3179191
v 108.3440900 55.1229766 77.3179191
v 107.6820725 55.3012610 77.3179191
v 107.1982053 55.6452740 77.3179191
v 106.8530356 56.0862354 77.3179191
v 106.6695542 56.5818641 77.3179191
v 106.6196839 57.1087679 77.3179191
v 106.7393136 57.6556254 77.3179191
v 107.0077320 58.1491744 77.3179191
v 107.5684463 58.6441146 77.3179191
v 108.1416128 58.8425743 77.3179191
v 108.6559100 58.8770234 77.3179191
v 109.2741761 58.7160759 77.3179191
v 109.7067767 58.4383993 77.3179191
v 110.0647013 58.0484760 77.3179191
v 110.2835701 57.5849930 77.3179191
v 109.3753239 56.5040681 77.3179191
v 109.1137943 56.2028321 77.3179191
v 109.4891972 56.8330302 77.3179191
v 109.4838500 57.2243239 77.3179191
v 108.7080476 56.0118566 77.3179191
v 108.2599022 56.0229744 77.3179191
v 109.3146440 57.5860955 77.3179191
v 108.9779966 57.8946365 77.3179191
v 107.8989049 56.1932147 77.3179191
v 107.6469358 56.4695980 77.3179191
v 108.3906686 58.0084185 77.3179191
v 107.4891711 56.9157624 77.3179191
v 107.8625338 57.7859687 77.3179191
v 107.5797725 57.4065618 77.3179191
v 107.4912013 57.0253772 78.1509165
v 107.6250116 57.5053832 78.1509165
v 107.9398881 57.8357593 78.1509165
v 108.2605573 57.9742077 78.1509165
v 108.6337016 57.9989391 78.1509165
v 109.0973551 57.8168699 78.1509165
v 109.4114600 57.4299674 78.1509165
v 109.5108289 56.9157624 78.1509165
v 109.3650840 56.4921040 78.1509165
v 109.1464122 56.2297517 78.1509165
v 108.7251702 56.0126260 78.1509165
v 108.2443032 56.0269389 78.1509165
v 107.8241905 56.2467395 78.1509165
v 107.5714749 56.6167797 78.1509165
v 107.5754151 57.7052261 78.1509371
v 107.3140858 57.2803120 78.1509380
v 108.0830432 58.0258532 78.1510112
v 107.2554889 56.6784637 78.1510289
v 107.5323195 56.0509874 78.1510730
v 108.1121434 55.6416337 78.1532979
v 109.6377109 57.1820372 78.1508295
v 108.7290283 55.6626506 78.1508216
v 109.6366233 56.5806159 78.1508943
v 109.3527006 56.0407211 78.1508430
v 109.3799227 56.4274620 79.8596126
v 109.4625718 56.5943628 79.9277089
v 109.0252843 56.0903612 79.8260738
v 108.6213945 55.9593952 79.7972618
v 108.8881008 56.0278228 79.8678634
v 108.5141208 55.9522999 79.8441601
v 108.1362306 56.0197444 79.8140264
v 107.8082587 56.2141529 79.7351634
v 107.7798144 56.2346963 79.7844127
v 107.5298753 56.5912035 79.7010807
v 107.4544474 56.9773192 79.7275409
v 107.5173134 57.3675217 79.6962842
v 107.9805881 57.9098223 79.5929885
v 108.2818417 58.0246893 79.6213633
v 108.8976379 57.9808477 79.5259547
v 109.1037390 57.8530241 79.5592047
v 109.4304089 57.4848512 79.4725941
v 109.4013814 57.5427301 79.5283180
v 107.1044320 57.1329864 80.3928998
v 109.8962048 56.8525170 78.7519532
v 107.1604691 57.4454006 80.3762277
v 107.4558083 57.9541741 80.3444543
v 108.0536828 58.3460038 80.3074135
v 108.8160764 58.3847363 80.2661819
v 109.4476285 58.0458627 80.2269443
v 109.7804428 57.6010486 80.1987302
v 109.5527606 56.9908332 79.9579149
v 109.9191265 56.9603293 80.1624551
v 109.7189278 56.2910372 80.1253119
v 109.2367913 56.2504223 79.8971206
v 109.3815024 55.8982825 80.0985574
v 108.2287044 55.6244457 80.0344989
v 108.7797658 55.6050861 80.0638853
v 107.8762814 55.7415665 80.0148853
v 107.5302635 55.9818977 79.9927542
v 107.5333079 56.5957500 79.7529889
v 107.2280746 56.3874833 79.9650003
v 107.0913017 56.9733241 79.9314294
v 107.1920457 57.5288349 79.9016081
v 107.8320661 57.8179368 79.6557881
v 107.8687389 58.2581265 79.8476548
v 108.3617087 58.4037384 79.8205857
v 108.7440188 58.0223299 79.5914822
v 108.8921073 58.3502419 79.7923275
v 109.2409668 58.1956276 79.7730557
v 109.5842794 57.8947388 79.7477119
v 109.8377127 57.4482296 79.7199324
v 109.9027013 56.9002122 79.6907888
v 109.8061554 56.4807027 79.6691156
v 109.2366647 56.2502473 79.4297261
v 109.0711625 55.7155170 79.6120799
v 107.8864816 55.7385538 79.5466917
v 108.2777760 55.6036459 79.5682678
v 107.5520497 55.9600079 79.5234826
v 107.3256829 56.2344369 79.5060351
v 107.1521644 56.6022925 79.4841572
v 107.0982332 57.1638866 79.4537847
v 107.2566666 57.6596203 79.4278497
v 107.6508694 57.6277170 79.2082627
v 108.0835627 58.3436123 79.3692163
v 108.4855203 58.4129844 79.3448471
v 108.9797580 58.3213798 79.3188621
v 109.4001468 58.0858411 79.2929377
v 109.7662436 57.6102860 79.2619218
v 109.9139044 56.9411509 79.2234523
v 109.4211662 56.4972504 78.9838734
v 109.7218095 56.2874659 79.1890067
v 109.2183935 55.7762459 79.1514403
v 108.6737509 55.6094389 79.1209316
v 108.3138697 55.6021587 79.1016162
v 107.9235142 55.7222463 79.0798351
v 107.6022650 55.9159426 79.0586415
v 107.3396893 56.2138146 79.0386835
v 107.1567426 56.5652768 79.0176529
v 107.0926220 57.1306062 78.9872033
v 107.2991472 57.7369571 78.9529043
v 108.1141597 57.9830240 78.6984208
v 107.7556073 58.1956053 78.9173587
v 108.1288467 58.3506898 78.8972845
v 108.8969252 58.3446977 78.8557721
v 108.5204358 58.4081811 78.8746718
v 109.2268232 58.1989071 78.8365746
v 109.5167852 57.9682427 78.8167126
v 109.5404507 56.9231132 78.5487544
v 109.8823443 57.2782293 78.7731648
v 109.3558438 55.8837953 78.2234240
v 108.8202841 55.6188546 78.1901830
v 109.7412205 56.3184605 78.7224254
v 109.1849446 56.2039656 78.4893349
v 109.2868602 55.8310325 78.6856719
v 108.8017005 55.6189562 78.6590173
v 108.2067044 55.6251191 78.6268592
v 107.8462140 55.7589599 78.6062533
v 107.4879332 56.0200125 78.5820795
v 107.1596233 56.5576799 78.5480345
v 107.1016017 57.1707235 78.5181023
v 107.5422315 57.4369603 78.2867293
v 107.2408214 57.6218523 78.4909495
v 107.5011792 57.9898198 78.4674406
v 108.0168357 58.3258905 78.4334344
v 108.7358231 58.3931196 78.3948617
v 109.4075573 58.0891558 78.3570668
v 109.3703348 57.6460144 78.1508631
v 109.8073224 57.5309615 78.3195597
v 109.9013543 57.0933552 78.2957905
v 109.6481315 56.1822232 78.2448277
v 109.3990408 57.5383442 78.5395995
v 109.8554391 56.6112114 78.2712352
v 109.0085700 56.0808120 78.4187460
v 107.6272878 56.4232624 78.3089724
v 108.6903766 55.9694880 78.8643482
v 107.4499287 57.1129385 78.7234661
v 108.5742014 58.0503555 78.6120026
v 109.0680256 57.8831921 78.5732357
v 107.2266827 57.4949154 80.4009436
v 107.9414091 58.1983739 80.3639634
v 108.4318137 58.3098277 80.3456703
v 108.9698179 58.1977935 80.3256954
v 109.3071562 57.9781872 80.3105158
v 109.6750003 56.7061945 80.2575606
v 109.6917232 56.7699593 80.2601206
v 109.7050381 56.8345478 80.2626805
v 109.5569939 56.4089115 80.2444949
v 108.7457043 55.8630897 80.2065121
v 107.5010226 57.9869737 79.8728686
v 108.2769868 58.0198691 80.0364343
v 109.5514821 56.9477395 79.9049909
v 109.4988994 56.0007019 79.6388358
v 108.6786343 55.6058944 79.5886705
v 108.1875961 55.9973784 79.7644187
v 107.4547358 57.1494347 79.6612870
v 107.6508050 57.6154069 79.6238812
v 107.6322046 58.1148738 79.3955582
v 108.3453571 58.0365238 79.5635839
v 109.2620545 57.7134304 79.4909045
v 109.5306766 57.1650702 79.4468361
v 109.0402372 56.0994486 79.3589775
v 108.3067097 55.9701645 79.3029028
v 107.4552579 57.1476326 79.1901909
v 109.7414354 57.6508535 78.7960482
v 109.1646561 56.0184957 80.2221773
v 109.7288805 57.0468320 80.2715302
v 109.6102500 57.5947737 80.2927477
f 1 2 81
f 81 2 3
f 3 2 4
f 4 2 5
f 5 2 7
f 2 6 7
f 8 7 6
f 7 8 9
f 8 10 9
f 9 10 11
f 11 10 13
f 10 12 13
f 13 14 15
f 12 14 13
f 16 15 14
f 16 17 15
f 18 19 388
f 18 20 19
f 20 393 19
f 20 413 393
f 413 22 393
f 413 21 22
f 22 21 24
f 21 23 24
f 23 25 24
f 23 414 25
f 414 26 25
f 414 27 26
f 26 27 401
f 27 28 401
f 28 29 401
f 29 30 401
f 29 31 30
f 31 32 30
f 31 33 32
f 77 35 36
f 35 370 36
f 35 37 370
f 37 38 370
f 37 415 38
f 415 40 38
f 415 39 40
f 39 42 40
f 39 41 42
f 41 44 42
f 41 43 44
f 43 45 44
f 43 416 45
f 416 47 45
f 416 46 47
f 46 49 47
f 46 48 49
f 48 381 49
f 48 417 381
f 417 50 381
f 417 51 50
f 417 418 51
f 418 52 51
f 418 411 52
f 411 54 52
f 411 53 54
f 53 388 54
f 53 18 388
f 55 58 56
f 55 57 58
f 58 57 354
f 57 441 354
f 354 441 60
f 441 59 60
f 60 59 61
f 59 442 61
f 61 442 63
f 442 62 63
f 63 62 65
f 62 64 65
f 64 66 65
f 64 443 66
f 66 443 67
f 67 443 363
f 443 68 363
f 68 69 363
f 363 69 70
f 70 69 73
f 69 71 73
f 71 72 73
f 73 72 74
f 74 72 76
f 72 75 76
f 75 78 76
f 75 77 78
f 77 36 78
f 79 4 5
f 79 4 4
f 4 3 4
f 4 80 3
f 80 81 3
f 81 430 1
f 1 430 83
f 430 82 83
f 82 85 83
f 82 84 85
f 85 84 87
f 84 86 87
f 87 86 331
f 86 431 331
f 88 89 90
f 88 93 89
f 89 91 90
f 90 91 96
f 92 93 88
f 92 95 93
f 91 16 96
f 94 95 92
f 94 97 95
f 16 14 96
f 96 14 98
f 14 12 98
f 94 126 97
f 97 126 99
f 12 102 98
f 10 102 12
f 99 126 105
f 8 100 10
f 126 101 105
f 100 102 10
f 100 106 102
f 103 106 100
f 419 106 103
f 101 104 105
f 105 104 107
f 419 109 106
f 108 109 419
f 107 104 108
f 104 109 108
f 111 110 92
f 111 92 88
f 112 111 88
f 112 88 90
f 113 112 90
f 114 90 96
f 114 113 90
f 96 115 114
f 98 115 96
f 116 115 98
f 117 116 98
f 117 98 102
f 118 117 102
f 119 102 106
f 119 118 102
f 106 120 119
f 106 121 120
f 121 106 109
f 104 122 121
f 104 121 109
f 123 122 104
f 123 104 101
f 124 123 101
f 124 101 126
f 125 124 126
f 126 127 125
f 127 126 94
f 128 127 94
f 128 94 92
f 128 92 110
f 130 129 110
f 130 110 111
f 130 111 112
f 131 130 112
f 131 112 113
f 132 159 125
f 132 125 127
f 132 127 128
f 129 132 128
f 129 128 110
f 133 122 123
f 153 133 123
f 153 123 124
f 160 153 124
f 160 124 125
f 159 160 125
f 134 119 120
f 134 157 119
f 134 120 121
f 135 134 121
f 135 121 122
f 133 135 122
f 137 136 116
f 137 116 117
f 138 137 117
f 138 117 118
f 138 118 119
f 157 138 119
f 139 131 113
f 139 113 114
f 140 114 115
f 140 139 114
f 136 140 115
f 136 115 116
f 138 141 142
f 137 142 143
f 137 138 142
f 136 137 143
f 140 136 144
f 140 144 145
f 139 140 145
f 130 131 146
f 147 130 146
f 130 147 148
f 132 129 149
f 150 132 149
f 132 150 151
f 153 160 161
f 152 153 161
f 133 153 154
f 135 133 162
f 135 162 155
f 134 135 155
f 134 155 156
f 157 134 141
f 157 141 138
f 136 143 144
f 139 145 158
f 131 139 158
f 131 158 146
f 148 129 130
f 129 148 149
f 159 132 151
f 151 160 159
f 160 151 161
f 133 154 162
f 134 156 141
f 163 152 161
f 164 163 161
f 165 164 161
f 166 161 151
f 166 165 161
f 186 166 151
f 167 186 151
f 167 151 150
f 168 167 150
f 168 150 149
f 189 168 149
f 169 189 149
f 169 149 148
f 170 148 147
f 170 169 148
f 194 170 147
f 195 194 147
f 195 147 146
f 171 195 146
f 199 171 146
f 199 146 158
f 201 199 158
f 201 158 145
f 202 201 145
f 204 202 145
f 204 145 144
f 172 204 144
f 173 172 144
f 173 144 143
f 208 173 143
f 174 208 143
f 175 143 142
f 175 174 143
f 176 175 142
f 177 176 142
f 177 142 141
f 178 177 141
f 217 141 156
f 217 178 141
f 217 156 155
f 219 217 155
f 179 219 155
f 179 155 162
f 180 179 162
f 224 180 162
f 224 162 154
f 225 224 154
f 225 154 153
f 228 225 153
f 228 153 152
f 163 228 152
f 163 163 152
f 163 163 152
f 181 228 163
f 181 163 163
f 181 163 163
f 164 181 163
f 183 227 164
f 182 164 165
f 183 164 182
f 184 182 165
f 183 182 184
f 185 165 166
f 184 165 185
f 185 166 186
f 187 184 185
f 167 185 186
f 187 185 167
f 187 190 184
f 188 187 167
f 188 167 168
f 190 187 188
f 188 168 189
f 190 188 189
f 190 189 191
f 191 189 169
f 193 190 191
f 192 191 169
f 192 193 191
f 192 169 170
f 194 192 170
f 193 192 194
f 196 193 194
f 195 196 194
f 197 196 195
f 171 197 195
f 197 171 199
f 198 197 199
f 198 205 197
f 198 199 200
f 200 199 201
f 200 201 202
f 205 198 200
f 203 200 202
f 205 200 203
f 203 202 204
f 206 203 204
f 205 203 206
f 206 204 172
f 207 205 206
f 207 206 172
f 207 172 173
f 209 207 173
f 209 173 208
f 210 209 208
f 210 208 174
f 211 210 174
f 211 174 175
f 213 210 211
f 176 211 175
f 213 211 212
f 176 212 211
f 177 212 176
f 213 212 214
f 214 212 177
f 215 213 214
f 178 214 177
f 215 214 178
f 216 215 178
f 217 216 178
f 218 216 217
f 219 218 217
f 220 218 219
f 220 216 218
f 221 219 179
f 221 220 219
f 222 220 221
f 221 179 180
f 222 221 180
f 223 180 224
f 223 222 180
f 225 223 224
f 226 223 225
f 226 222 223
f 227 226 225
f 227 225 228
f 228 181 164
f 227 228 164
f 226 227 183
f 229 184 190
f 230 229 190
f 229 183 184
f 231 183 229
f 232 230 190
f 232 190 193
f 234 232 193
f 231 226 183
f 233 226 231
f 234 193 196
f 233 222 226
f 236 234 196
f 235 222 233
f 197 236 196
f 237 222 235
f 239 236 197
f 238 222 237
f 220 222 238
f 240 239 197
f 205 240 197
f 220 238 241
f 216 220 241
f 205 242 240
f 207 242 205
f 215 216 241
f 207 244 242
f 215 241 243
f 213 215 243
f 209 244 207
f 209 246 244
f 213 243 245
f 210 246 209
f 210 213 245
f 210 245 246
f 247 234 248
f 234 236 248
f 248 236 249
f 236 239 249
f 249 239 250
f 239 240 250
f 250 240 251
f 240 242 251
f 251 242 252
f 242 244 252
f 252 244 253
f 244 246 253
f 253 246 254
f 246 245 254
f 254 245 255
f 245 243 255
f 255 243 256
f 243 241 256
f 256 241 257
f 257 241 258
f 241 238 258
f 258 238 259
f 238 237 259
f 259 237 260
f 237 235 260
f 235 233 260
f 260 233 261
f 261 233 262
f 233 231 262
f 262 231 263
f 231 229 263
f 263 229 264
f 264 229 265
f 229 230 265
f 265 230 266
f 230 232 266
f 266 232 247
f 232 234 247
f 268 249 250
f 267 249 268
f 267 248 249
f 271 268 250
f 271 250 251
f 269 248 267
f 269 247 248
f 271 251 252
f 270 247 269
f 272 271 252
f 270 266 247
f 272 252 253
f 270 265 266
f 275 272 253
f 273 265 270
f 275 253 254
f 264 273 274
f 264 265 273
f 276 275 254
f 255 276 254
f 263 264 274
f 255 278 276
f 256 278 255
f 262 263 274
f 262 274 277
f 257 278 256
f 261 262 277
f 257 280 278
f 258 280 257
f 260 261 277
f 260 277 279
f 259 280 258
f 259 279 280
f 259 260 279
f 281 280 282
f 278 280 281
f 280 279 282
f 282 279 283
f 283 277 284
f 279 277 283
f 284 277 285
f 277 274 285
f 285 274 286
f 274 273 286
f 286 273 287
f 273 270 287
f 287 270 288
f 270 269 288
f 269 267 288
f 288 267 289
f 289 267 290
f 267 268 290
f 290 268 291
f 268 271 291
f 271 272 291
f 291 272 292
f 292 275 293
f 272 275 292
f 275 276 293
f 293 276 294
f 276 278 294
f 294 278 281
f 295 282 283
f 295 283 297
f 296 282 295
f 283 284 297
f 296 281 282
f 284 285 297
f 297 285 31
f 298 281 296
f 285 33 31
f 298 294 281
f 285 286 33
f 286 34 33
f 299 294 298
f 299 293 294
f 286 407 34
f 286 287 407
f 299 300 293
f 287 301 407
f 293 300 292
f 288 301 287
f 300 302 292
f 292 302 291
f 288 303 301
f 289 303 288
f 289 304 303
f 290 304 289
f 302 304 291
f 291 304 290
f 431 306 331
f 431 305 306
f 306 305 334
f 305 307 334
f 334 307 309
f 307 308 309
f 308 310 309
f 308 434 310
f 434 311 310
f 434 313 311
f 434 312 313
f 312 314 313
f 313 314 340
f 340 314 315
f 314 435 315
f 315 435 316
f 435 436 316
f 436 344 316
f 436 317 344
f 317 318 344
f 317 438 318
f 438 347 318
f 438 319 347
f 347 319 320
f 319 439 320
f 439 322 320
f 439 321 322
f 321 56 322
f 321 440 56
f 440 55 56
f 8 103 100
f 8 323 103
f 8 325 323
f 6 325 8
f 19 392 324
f 2 326 6
f 6 326 325
f 1 327 2
f 2 327 326
f 83 327 1
f 83 328 327
f 83 85 328
f 85 329 328
f 87 329 85
f 329 87 330
f 331 332 87
f 87 332 330
f 306 333 331
f 334 333 306
f 331 333 332
f 333 334 335
f 309 337 334
f 334 337 335
f 309 310 337
f 311 336 310
f 310 336 337
f 311 338 336
f 313 338 311
f 313 339 338
f 313 340 339
f 339 340 341
f 341 340 342
f 340 315 342
f 316 343 315
f 315 343 342
f 344 343 316
f 344 429 343
f 429 344 345
f 318 346 344
f 344 346 345
f 347 346 318
f 348 347 349
f 346 347 348
f 320 349 347
f 320 322 349
f 322 350 349
f 322 351 350
f 56 351 322
f 352 56 353
f 351 56 352
f 58 353 56
f 58 432 353
f 354 432 58
f 432 354 355
f 60 355 354
f 60 61 355
f 355 61 433
f 433 61 357
f 61 63 357
f 65 356 63
f 63 356 357
f 356 65 358
f 66 359 65
f 65 359 358
f 66 360 359
f 67 361 66
f 66 361 360
f 363 361 67
f 363 362 361
f 362 363 437
f 363 70 437
f 437 70 364
f 73 364 70
f 364 73 365
f 365 74 366
f 73 74 365
f 76 367 74
f 74 367 366
f 78 367 76
f 78 368 367
f 368 78 369
f 78 36 369
f 369 370 371
f 36 370 369
f 38 372 370
f 370 372 371
f 40 373 38
f 38 373 372
f 40 42 373
f 373 42 374
f 44 375 42
f 42 375 374
f 375 44 376
f 44 377 376
f 44 45 377
f 377 45 378
f 45 379 378
f 47 379 45
f 47 380 379
f 49 380 47
f 380 49 382
f 49 381 382
f 381 383 382
f 381 50 383
f 383 50 385
f 51 384 50
f 50 384 385
f 51 386 384
f 51 387 386
f 52 387 51
f 54 444 52
f 52 444 387
f 444 54 389
f 324 388 19
f 389 388 324
f 54 388 389
f 303 412 301
f 303 410 412
f 304 391 390
f 302 391 304
f 302 300 391
f 19 393 392
f 392 393 394
f 22 395 393
f 393 395 394
f 22 396 395
f 24 396 22
f 396 24 397
f 397 25 398
f 24 25 397
f 25 399 398
f 26 399 25
f 401 400 26
f 26 400 399
f 400 401 402
f 402 401 403
f 30 403 401
f 32 404 30
f 30 404 403
f 33 405 32
f 32 405 404
f 34 405 33
f 34 406 405
f 34 407 406
f 407 408 406
f 301 408 407
f 409 408 301
f 412 409 301
f 304 410 303
f 390 410 304
f 406 411 418
f 411 409 53
f 408 409 411
f 53 409 18
f 409 412 18
f 18 412 20
f 410 20 412
f 390 413 410
f 410 413 20
f 391 413 390
f 413 391 21
f 391 300 21
f 21 300 23
f 299 23 300
f 299 414 23
f 299 298 414
f 414 298 27
f 296 27 298
f 296 28 27
f 295 28 296
f 295 29 28
f 297 29 295
f 297 31 29
f 394 37 392
f 392 37 35
f 395 415 394
f 394 415 37
f 396 415 395
f 415 396 39
f 39 397 41
f 396 397 39
f 41 398 43
f 397 398 41
f 399 43 398
f 400 416 399
f 399 416 43
f 400 402 416
f 416 402 46
f 46 403 48
f 402 403 46
f 404 48 403
f 405 417 404
f 404 417 48
f 406 418 405
f 405 418 417
f 408 411 406
f 103 103 100
f 103 323 103
f 323 419 103
f 323 325 419
f 326 419 325
f 326 108 419
f 327 108 326
f 327 420 108
f 327 421 420
f 328 421 327
f 328 422 421
f 329 422 328
f 329 423 422
f 329 447 423
f 332 427 424
f 337 445 335
f 392 35 324
f 330 447 329
f 330 446 447
f 332 446 330
f 425 332 424
f 426 332 425
f 446 332 426
f 333 427 332
f 335 427 333
f 445 427 335
f 337 428 445
f 17 428 337
f 337 336 17
f 15 336 338
f 15 17 336
f 338 13 15
f 339 13 338
f 339 341 13
f 11 13 341
f 342 11 341
f 11 342 9
f 343 7 342
f 342 7 9
f 429 7 343
f 7 429 5
f 5 429 79
f 79 429 4
f 4 429 80
f 429 345 80
f 80 345 81
f 346 430 345
f 345 430 81
f 346 82 430
f 348 82 346
f 82 348 84
f 348 349 84
f 349 350 84
f 84 350 86
f 350 351 86
f 352 431 351
f 351 431 86
f 352 353 431
f 431 353 305
f 432 305 353
f 305 432 307
f 355 307 432
f 433 307 355
f 307 433 308
f 357 434 433
f 433 434 308
f 356 434 357
f 358 434 356
f 434 358 312
f 312 359 314
f 358 359 312
f 359 360 314
f 361 435 360
f 360 435 314
f 362 436 361
f 361 436 435
f 362 437 436
f 436 437 317
f 364 438 437
f 365 438 364
f 437 438 317
f 438 365 319
f 365 366 319
f 366 367 319
f 319 367 439
f 368 439 367
f 439 368 321
f 369 440 368
f 368 440 321
f 440 369 55
f 369 371 55
f 55 371 57
f 372 441 371
f 371 441 57
f 372 373 441
f 441 373 59
f 59 373 442
f 374 442 373
f 374 375 442
f 442 375 62
f 375 376 62
f 62 377 64
f 376 377 62
f 378 64 377
f 378 443 64
f 379 443 378
f 380 443 379
f 443 380 68
f 382 68 380
f 68 382 69
f 69 383 71
f 382 383 69
f 383 385 71
f 71 384 72
f 385 384 71
f 384 386 72
f 72 387 75
f 386 387 72
f 387 444 75
f 75 389 77
f 444 389 75
f 389 324 77
f 77 324 35
f 99 105 422
f 422 105 421
f 105 107 421
f 421 107 420
f 107 108 420
f 16 91 17
f 17 91 428
f 428 91 445
f 89 445 91
f 89 427 445
f 93 427 89
f 424 425 425
f 425 425 426
f 427 93 424
f 425 93 426
f 424 93 425
f 93 446 426
f 95 446 93
f 446 95 447
f 97 447 95
f 97 423 447
f 99 423 97
f 422 423 99
