# Render LOD; unchanged CAD body-local coordinates in mm
v 14.6288474 112.9642525 74.3855000
v 14.6530147 113.0075159 74.3855000
v 14.6792388 113.0494572 74.3855000
v 14.6704312 113.0420099 74.3825046
v 14.7075932 113.0900764 74.3855000
v 14.7379309 113.1292265 74.3855000
v 14.7701785 113.1668341 74.3855000
v 14.8042625 113.2028258 74.3855000
v 14.8400361 113.2370545 74.3855000
v 15.1894522 113.4826092 74.3730270
v 14.8041632 113.1880743 74.3518390
v 15.7312414 113.5247102 74.3520297
v 16.3250684 113.2077517 74.3368774
v 16.5206319 112.6429061 74.3858931
v 16.3611754 111.9526569 74.3856389
v 16.6183802 112.3464292 74.2902765
v 15.8422885 111.5364661 74.3858761
v 16.3049520 111.7035814 74.2691181
v 15.6399274 111.3474234 74.2494416
v 15.5099633 111.3380174 69.7855076
v 15.5679208 111.3394864 69.7855076
v 15.6257314 111.3437467 69.7855076
v 15.6831747 111.3510185 69.7855076
v 15.7402508 111.3610814 69.7855076
v 15.7967391 111.3739356 69.7855076
v 15.8524929 111.3896544 69.7855076
v 15.9074387 111.4080909 69.7855076
v 15.9613561 111.4292452 69.7855076
v 15.7555699 111.3521758 70.0424420
v 16.0141716 111.4531172 69.7855076
v 16.0657384 111.4794866 69.7855076
v 16.1159095 111.5085003 69.7855076
v 16.1646114 111.5399379 69.7855076
v 16.2116239 111.5737260 69.7855076
v 16.2569468 111.6098646 69.7855076
v 16.3003599 111.6482067 69.7855076
v 16.3418630 111.6886789 69.7855076
v 16.3812359 111.7311344 69.7855076
v 16.4184786 111.7754996 69.7855076
v 16.2704510 111.6062911 70.0685723
v 16.4534441 111.8217011 69.7855076
v 16.4861324 111.8695921 69.7855076
v 16.5163232 111.9190255 69.7855076
v 16.5440165 111.9699280 69.7855076
v 16.5691388 112.0220792 69.7855076
v 16.5916900 112.0754790 69.7855076
v 16.6115234 112.1299072 69.7855076
v 16.6285654 112.1852903 69.7855076
v 16.6428895 112.2414079 69.7855076
v 16.6543488 112.2982600 69.7855076
v 16.6663841 112.3834864 69.7855075
v 16.6246801 112.1202615 70.0956934
v 16.6716112 112.4710200 69.7855076
v 16.6716112 112.5289739 69.7855076
v 16.6687464 112.5868543 69.7855076
v 16.6630167 112.6445144 69.7855076
v 16.6543488 112.7018072 69.7855076
v 16.6428895 112.7585859 69.7855076
v 16.6285654 112.8147035 69.7855076
v 16.6115234 112.8700866 69.7855076
v 16.5916900 112.9245148 69.7855076
v 16.5691388 112.9779146 69.7855076
v 16.5440165 113.0301393 69.7855076
v 16.5163232 113.0810417 69.7855076
v 16.4861324 113.1304752 69.7855076
v 16.6419975 112.8423279 70.1316540
v 16.4534441 113.1782927 69.7855076
v 16.4184786 113.2244942 69.7855076
v 16.3812359 113.2689329 69.7855076
v 16.3418630 113.3113883 69.7855076
v 16.3003599 113.3518606 69.7855076
v 16.2116239 113.4262678 69.7855076
v 16.2156698 113.4203190 70.0482903
v 16.2569468 113.3901293 69.7855076
v 16.1646114 113.4601293 69.7855076
v 16.1159095 113.4915670 69.7855076
v 16.0657384 113.5205072 69.7855076
v 16.0141716 113.5469500 69.7855076
v 15.9613561 113.5707486 69.7855076
v 15.9074387 113.5919763 69.7855076
v 15.8524929 113.6104129 69.7855076
v 16.2163741 113.4452025 70.1632984
v 15.7967391 113.6260582 69.7855076
v 16.0159525 113.5540453 69.8416178
v 15.7402508 113.6389858 69.7855076
v 15.6831747 113.6490488 69.7855076
v 15.6257314 113.6562471 69.7855076
v 15.5679208 113.6605808 69.7855076
v 15.5099633 113.6620499 69.7855076
v 15.4520792 113.6605808 69.7855076
v 15.5880504 113.6654515 69.8604406
v 15.3942686 113.6562471 69.7855076
v 15.3368253 113.6490488 69.7855076
v 15.2797492 113.6389858 69.7855076
v 15.2232609 113.6260582 69.7855076
v 15.1675071 113.6104129 69.7855076
v 15.1125613 113.5919763 69.7855076
v 15.0586439 113.5707486 69.7855076
v 15.0058284 113.5469500 69.7855076
v 15.4447945 113.6891106 70.1993164
v 14.9542616 113.5205072 69.7855076
v 15.1394599 113.6112723 69.8843694
v 14.9040905 113.4915670 69.7855076
v 14.8553886 113.4601293 69.7855076
v 14.8083761 113.4262678 69.7855076
v 14.7630532 113.3901293 69.7855076
v 14.7196401 113.3518606 69.7855076
v 14.6781370 113.3113883 69.7855076
v 14.6387641 113.2689329 69.7855076
v 14.7359270 113.3738286 69.9036748
v 14.6015214 113.2244942 69.7855076
v 14.5665559 113.1782927 69.7855076
v 14.6104939 113.2685610 70.1547901
v 14.5338676 113.1304752 69.7855076
v 14.5036768 113.0810417 69.7855076
v 14.4759835 113.0301393 69.7855076
v 14.4508612 112.9779146 69.7855076
v 14.6802088 113.3434277 70.2401102
v 14.4283100 112.9245148 69.7855076
v 14.4084766 112.8700866 69.7855076
v 14.3914346 112.8147035 69.7855076
v 14.3601844 112.7117479 70.1799327
v 14.3771105 112.7585859 69.7855076
v 14.3656512 112.7018072 69.7855076
v 14.3569833 112.6445144 69.7855076
v 14.3512536 112.5868543 69.7855076
v 14.3483888 112.5289739 69.7855076
v 14.3483888 112.4710200 69.7855076
v 14.3512536 112.4132129 69.7855076
v 14.3569833 112.3555529 69.7855076
v 14.3656512 112.2982600 69.7855076
v 14.3988909 112.0934385 70.2104700
v 14.3771105 112.2414079 69.7855076
v 14.3914346 112.1852903 69.7855076
v 14.4084766 112.1299072 69.7855076
v 14.4283100 112.0754790 69.7855076
v 14.4508612 112.0220792 69.7855076
v 14.3158772 112.5459810 70.2728071
v 14.4759835 111.9699280 69.7855076
v 14.5036768 111.9190255 69.7855076
v 14.5338676 111.8695921 69.7855076
v 14.5665559 111.8217011 69.7855076
v 14.6015214 111.7754996 69.7855076
v 14.6387641 111.7311344 69.7855076
v 14.6781370 111.6886789 69.7855076
v 14.7196401 111.6482067 69.7855076
v 14.7630532 111.6098646 69.7855076
v 14.8083761 111.5737260 69.7855076
v 14.5637267 111.7906370 69.9810622
v 14.8553886 111.5399379 69.7855076
v 14.9040905 111.5085003 69.7855076
v 14.6103344 111.7086520 70.2729630
v 14.9542616 111.4794866 69.7855076
v 15.0058284 111.4531172 69.7855076
v 15.0586439 111.4292452 69.7855076
v 15.1125613 111.4080909 69.7855076
v 15.1675071 111.3896544 69.7855076
v 15.2232609 111.3739356 69.7855076
v 15.2797492 111.3610814 69.7855076
v 15.3368253 111.3510185 69.7855076
v 15.2096446 111.3387266 70.2965683
v 15.3942686 111.3437467 69.7855076
v 15.1307449 111.3861575 70.0144348
v 15.4520792 111.3394864 69.7855076
v 15.8967635 111.3852906 70.2942591
v 15.6547824 111.3275272 70.3655544
v 16.6735846 112.3057548 70.3492761
v 16.6098604 112.0672282 70.4235357
v 16.6670771 112.8115044 70.4126501
v 16.4425406 113.2583137 70.4316901
v 15.6637099 113.6769245 70.4333553
v 15.8983190 113.6257190 70.5163435
v 15.0559969 113.6048023 70.4991361
v 14.5055266 113.1618553 70.5243181
v 14.4825094 111.9234783 70.5507589
v 14.9772400 111.4473967 70.5827613
v 14.7696477 111.5609597 70.6612520
v 15.5741313 111.3236986 70.6961956
v 16.5094514 111.8347891 70.6980257
v 16.1475794 111.5173255 70.7239949
v 16.5664013 113.0647105 70.7618439
v 16.2504337 113.4430045 70.7744090
v 15.6268532 113.6708184 70.7673870
v 15.4786032 113.6864942 70.8641532
v 14.8154586 113.4463773 70.8939367
v 14.3868005 112.8608545 70.8398822
v 14.3735437 112.8554598 70.9240619
v 14.4670576 111.9151279 70.9739393
v 15.1232473 111.3843996 71.0095262
v 15.6936028 111.3196803 70.9972869
v 16.6052242 112.0133335 71.0449824
v 16.6926878 112.5302402 71.0241225
v 16.0863355 113.5481555 71.1115578
v 16.6161956 112.9641321 71.1317990
v 15.4008823 113.6817400 71.1115017
v 15.4602783 113.6821127 71.1983217
v 14.3621144 112.7869009 71.2649845
v 14.4093886 112.0958656 71.2045041
v 14.8243035 111.5302442 71.2389918
v 14.4418709 111.9813977 71.2986255
v 15.1085840 111.3749542 71.3419064
v 16.2303000 111.5699718 71.3041030
v 15.9344779 111.4001858 71.3777070
v 16.4955025 111.8232257 71.3564286
v 16.6820770 112.4359979 71.3503831
v 16.4984789 113.1638970 71.3793839
v 15.8551385 113.6281302 71.4225922
v 15.8486557 113.6417005 71.5098230
v 15.1428838 113.6391367 71.4899120
v 14.5418450 113.1798035 71.4845246
v 14.5739544 113.2298488 71.5724827
v 14.3306807 112.4691254 71.5217525
v 14.5699752 111.7832972 71.5548209
v 14.3233901 112.2942793 71.6132751
v 14.9035759 111.4755318 71.6639292
v 15.6131234 111.3277709 71.6074946
v 15.7413882 111.3363140 71.7065201
v 16.3342048 111.6410413 71.6421589
v 16.7082062 112.4526693 71.7188175
v 16.4818598 111.8094608 71.7369422
v 15.3553823 113.6842143 71.8212840
v 16.0302629 113.5712270 71.8332421
v 14.9386780 113.5360025 71.7963974
v 14.7623907 113.4126113 71.8958976
v 14.7401381 111.5792123 71.9843146
v 16.1179972 111.4988156 71.9607342
v 15.6974473 111.3224823 72.0319153
v 16.5638357 111.9619696 71.9932774
v 16.5456462 111.8788046 72.0775975
v 16.6466908 112.8283846 72.1219356
v 16.2353086 113.4531485 72.1107497
v 15.7251079 113.6597185 72.0890474
v 14.9892962 113.5815389 72.1633427
v 15.4791506 113.6916960 72.1897966
v 14.3484384 112.6876952 72.1738771
v 14.4266679 112.9757036 72.2514631
v 14.3377474 112.2733383 72.2431647
v 14.5276287 111.8396761 72.2995630
v 15.0274239 111.4092293 72.2883590
v 15.7306706 111.3400109 72.2773537
v 16.4314420 111.7290647 72.3551384
v 16.6596128 112.1842188 72.3794599
v 16.5244121 113.0889025 72.3764853
v 16.0455268 113.5686371 72.4409183
v 16.5869206 113.0264029 72.4591015
v 15.4336956 113.6714304 72.4349929
v 14.8537046 113.4766973 72.4638930
v 15.2508164 113.6545046 72.5329060
v 14.3650062 112.8416025 72.5007396
v 14.6366631 113.2886461 72.5663062
v 14.4213862 112.0608199 72.5356774
v 14.3219708 112.5817470 72.5950506
v 14.8056307 111.5550810 72.5636126
v 14.5524511 111.8112445 72.6373927
v 15.2395967 111.3333211 72.6807693
v 16.3597288 111.6858336 72.6377111
v 16.1817496 111.5151076 72.7267210
v 16.6546978 112.2141953 72.7569921
v 16.1494135 113.4914632 72.7354087
v 16.5926682 112.9861746 72.7908238
v 15.3312093 113.6816417 72.7699624
v 15.9993197 113.5813673 72.8299910
v 15.2578895 113.6493333 72.8636282
v 14.6084728 113.2609670 72.8116324
v 14.5900064 113.2561100 72.8947853
v 14.3707028 112.1806680 72.8647854
v 14.7485812 111.5773984 72.9381128
v 15.2858320 111.3311087 72.9210682
v 15.9781635 111.4259844 72.9509106
v 15.5691285 111.3096986 73.0225230
v 16.5582180 111.9236609 72.9889997
v 16.3567873 111.6737179 73.0625774
v 16.6722257 112.3160259 73.0953556
v 15.6929053 113.6689631 73.0871218
v 15.5823917 113.6886695 73.1881658
v 14.4217822 112.9936529 73.1601351
v 14.7841120 113.4343398 73.2214805
v 14.3735236 112.8167554 73.2527158
v 14.3687933 112.2360947 73.1902631
v 14.7724260 111.5501939 73.2235827
v 14.4258010 112.0047644 73.2880279
v 15.1417344 111.3601550 73.3308116
v 16.6511889 112.2133329 73.3324554
v 16.5980437 112.0001140 73.4072710
v 16.5876690 113.0160114 73.3691559
v 16.6101741 112.9555163 73.4531462
v 16.1015053 113.5447010 73.4377181
v 15.3055065 113.6731001 73.4409279
v 15.6839615 113.6668675 73.5056532
v 15.0700616 113.5856047 73.5365145
v 14.5076358 113.1501682 73.4799671
v 14.5564991 113.2006133 73.5658967
v 14.3413892 112.4672590 73.5129997
v 14.5126291 111.8332943 73.5703405
v 14.3230867 112.3597646 73.6062665
v 15.7415531 111.3266376 73.6479166
v 16.2576426 111.5706977 73.6696808
v 16.6070097 112.0654468 73.6520239
v 16.6454679 112.8584041 73.6959917
v 16.7026934 112.3332387 73.7586153
v 16.0690806 113.5514248 73.7340571
v 16.4090440 113.2805376 73.8072175
v 15.2654424 113.6541481 73.7717425
v 14.7013779 113.3510049 73.8005746
v 15.0682907 113.6058195 73.8675716
v 14.3346081 112.6900852 73.8336598
v 14.4879178 113.0830937 73.9057046
v 14.5724037 111.7509638 73.8796096
v 15.2973952 111.3448590 73.9184961
v 15.0449034 111.4084038 73.9923972
v 14.6325202 113.2743683 69.7855076
v 14.5268892 113.1349558 69.7855076
v 15.0022290 113.5544422 69.7855076
v 14.4432952 112.9813669 69.7855076
v 15.1097699 113.5997623 69.7855076
v 15.2212041 113.6341380 69.7855076
v 14.3690302 112.7604222 69.7855076
v 15.3355765 113.6572755 69.7855076
v 14.3429530 112.5874419 69.7855076
v 15.5099633 113.6703500 69.7855076
v 15.6844235 113.6572755 69.7855076
v 15.7987959 113.6341380 69.7855076
v 14.3834278 112.1830133 69.7855076
v 15.9102301 113.5997623 69.7855076
v 14.4365518 112.0346583 69.7854464
v 16.0177710 113.5544422 69.7855076
v 14.4685644 111.9661085 69.7855076
v 14.5268892 111.8650380 69.7855076
v 14.6325202 111.7256255 69.7855076
v 16.3874798 113.2743683 69.7855076
v 14.8033810 111.5671153 69.7855076
v 16.4931108 113.1349558 69.7855076
v 16.5514356 113.0338853 69.7855076
v 15.0022290 111.4456251 69.7855076
v 15.1097699 111.4003050 69.7855076
v 16.6465574 112.7815883 69.7855197
v 15.3355765 111.3427918 69.7855076
v 16.6770470 112.5874419 69.7855076
v 15.5099633 111.3297173 69.7855076
v 16.6770470 112.4125519 69.7855076
v 16.6712439 112.3545245 69.7855076
v 15.6844235 111.3427918 69.7855076
v 16.6509698 112.2395716 69.7855076
v 15.7987959 111.3659293 69.7855076
v 15.9102301 111.4003050 69.7855076
v 16.5767048 112.0187004 69.7855076
v 16.0177710 111.4456251 69.7855076
v 16.4931108 111.8650380 69.7855076
v 16.3880241 111.7258193 69.7853985
v 15.8974386 111.3681629 73.9770474
v 16.5819656 111.9723025 73.9849936
v 16.3509741 111.6726229 74.0551393
v 16.6439327 112.8375667 74.0210957
v 16.6880346 112.3554586 74.0950149
v 16.2856986 113.4076830 74.1002934
v 16.5524739 113.0340823 74.1230024
v 15.6191575 113.6900464 74.0874648
v 14.7734966 113.4262630 74.1286119
v 15.4976936 113.6901337 74.1791856
v 14.7237473 113.3802487 74.2179835
v 14.4658367 111.9644044 74.2067914
v 14.3280209 112.4296621 74.2024988
v 14.5819084 111.8007672 74.2194879
v 14.6173881 111.7561082 74.2116555
v 14.6559530 111.7121102 74.2194879
v 14.5583287 112.4999602 74.3855000
v 14.5541417 112.5681240 74.3855000
v 14.5649398 112.6127095 74.3791980
v 14.5548762 112.6365816 74.3855000
v 14.5886455 112.7513306 74.3721714
v 14.5662621 112.7458052 74.3855000
v 14.5755176 112.7945041 74.3855000
v 14.5899152 112.8522377 74.3855000
v 14.6071776 112.9073269 74.3855000
v 14.6619765 112.9319335 74.3606522
v 15.3227592 113.4452075 74.3128430
v 14.7689105 113.1518618 74.0138535
v 15.4443237 113.4637204 73.9751858
v 16.4386101 112.2178090 73.8700713
v 15.2261928 111.5849086 73.7876835
v 16.4766964 112.5585781 73.5568804
v 16.2531325 111.8689276 73.5167010
v 15.9816072 113.3577845 74.2746782
v 16.4793549 112.6448993 74.2273526
v 16.1399065 111.7302987 74.1723373
v 15.0136173 111.4492017 74.2286091
v 15.2740174 111.5489846 74.1250410
v 14.7763951 111.8808728 74.0916313
v 14.5453628 112.3684007 74.0635947
v 14.4011199 112.8778371 74.1566416
v 16.0448734 113.3026719 73.9396015
v 16.4205937 112.8152072 73.9052617
v 15.9050757 111.5947102 73.8253276
v 14.7072914 111.9262292 73.7532440
v 14.5600838 112.6805009 73.7102420
v 14.8947809 113.2582585 73.6762544
v 15.5642959 113.4623557 73.6358886
v 16.1703504 113.2226857 73.6026635
v 15.6409498 111.5415910 73.4788073
v 14.5955547 112.0585025 74.3865480
v 15.1163953 111.5725261 74.3857017
v 14.7308127 111.6355920 74.2190245
v 14.4064124 112.8363998 74.2607503
v 14.4795949 111.9245217 73.9603086
v 14.3388179 112.5205028 73.9309443
v 15.7669721 113.6428484 73.8381959
v 15.1491564 111.3806927 73.6685286
v 15.9851549 111.4211071 73.3742208
v 14.8111526 111.7875640 73.4313695
v 14.5458875 112.5769867 73.3839687
v 15.6400981 113.4587354 73.2979105
v 16.2498846 113.1230664 72.9277471
v 15.2175261 111.5633050 72.7920039
v 15.4625360 113.4892708 72.6489668
v 16.2066221 113.1735705 72.5993842
v 15.7260091 111.5565145 72.4871728
v 14.9607975 111.6871612 72.4445206
v 14.5560504 112.3484746 72.4006865
v 14.7010415 113.0513797 72.3615757
v 14.8650976 113.2428895 73.3445356
v 16.2545768 113.1343935 73.2612795
v 16.6118742 112.8974174 73.1201795
v 16.4839783 112.3952021 73.2175558
v 16.0074373 111.6367378 73.1691007
v 15.2481832 111.5723455 73.1252638
v 14.7091625 111.9346609 73.0879651
v 14.4659728 111.9556693 72.9623574
v 14.5554829 112.6997872 73.0479834
v 15.6388215 113.4735914 72.9671511
v 16.4886304 112.4779819 72.8898151
v 16.1225153 111.7344420 72.8455484
v 14.6178742 112.1103251 72.7487355
v 16.4574731 112.6705708 72.5688671
v 15.7439677 111.3207026 72.3778411
v 15.4140786 113.4669109 72.3155027
v 16.2434519 113.1687744 72.2643058
v 15.8783747 111.5908146 72.1662300
v 16.2185382 113.1650032 71.9355284
v 16.4944613 112.4346503 71.8902832
v 16.1706173 111.7805875 71.5190381
v 14.6467291 112.9412662 71.3715461
v 16.2937936 113.0875126 71.2661750
v 14.8526190 111.7734272 71.1115092
v 16.4608524 112.2437444 72.2168956
v 14.6506482 112.0526241 72.0864145
v 14.5654353 112.7595306 72.0472975
v 15.0459623 113.3552748 72.0066540
v 15.6835669 113.4453773 71.9693810
v 16.1638851 111.7981948 71.8513059
v 15.0021613 111.6831505 71.7832228
v 14.5870332 112.1766909 71.7499552
v 14.7034419 113.0869726 71.6962421
v 15.6947932 113.4755454 71.6341123
v 16.5487630 113.0823580 71.4747584
v 16.3896607 112.9161124 71.5849042
v 16.4465197 112.2989423 71.5527795
v 16.6673100 112.2538982 71.4309774
v 14.5789764 112.1814642 71.4179958
v 15.0639222 113.3537674 71.3406016
v 15.6069057 113.4594969 71.3108958
v 16.4426059 112.1337381 71.2108077
v 15.6489710 111.5221002 71.1578057
v 14.5249653 112.5182106 71.0623704
v 15.3911432 113.4544569 70.9889389
v 15.9479814 113.3640189 70.9567953
v 16.2816102 113.0721058 70.6012953
v 16.2491560 111.8755521 70.5301343
v 14.8465576 111.7938083 70.4433572
v 14.8876780 111.7316713 70.1176989
v 14.5380594 112.4585778 70.0725057
v 15.5617770 113.4776834 69.9865282
v 14.8541848 113.2188261 71.0214726
v 16.3612609 112.9543496 70.9250942
v 16.7074072 112.4180585 70.7231995
v 16.4328496 112.1528036 70.8805035
v 15.8004257 111.5697569 70.8303752
v 14.6006069 112.0962717 70.7596644
v 14.3715223 112.2241792 70.6253139
v 14.6711872 112.9997946 70.7056484
v 15.1838309 113.4077607 70.6682503
v 15.8468015 113.4090133 70.6320389
v 14.9170077 113.2809007 70.3510908
v 15.5659997 113.4634547 70.3156347
v 16.4580303 112.7500826 70.2476038
v 16.3706330 112.0663935 70.2120763
v 15.8012417 111.5602670 70.1675587
v 14.3343390 112.4561469 69.9498913
v 14.4579143 113.0151025 69.9231354
v 14.8321130 113.2009940 70.0283990
v 16.0981370 113.2589286 69.9517985
v 14.3664782 112.8320600 71.1720222
v 14.7258151 113.4067951 71.1904766
v 16.5014786 113.1194570 71.0491973
v 16.1646561 111.4976986 71.0048556
v 15.1860955 111.5941805 70.7984025
v 14.9840025 111.4350491 70.9132782
v 14.4016458 112.0693512 70.8695634
v 14.8728393 113.5058885 70.8015159
v 16.4802730 112.5370933 70.5682205
v 15.6077267 111.5183669 70.4908857
v 15.7473148 111.3340431 70.6133933
v 14.3261962 112.6879388 70.5610691
v 14.5169454 112.5238653 70.4051351
v 16.0804122 113.2757930 70.2844325
v 16.3408833 111.6405044 70.3568285
v 15.1316111 113.6062775 70.1243328
v 15.6852554 113.6636817 70.0995359
v 16.6837135 112.5228218 72.3507107
v 15.1498275 111.5997720 72.1247465
v 14.6524559 111.6977286 72.2230131
v 14.5841821 113.2176296 72.1473910
v 16.6669328 112.7818160 72.0310223
v 15.6543099 111.5355948 71.8204711
v 15.4149974 111.3141694 71.9311582
v 14.6919190 111.6502869 71.8934897
v 14.3206221 112.3330763 71.9093910
v 14.3992771 112.9407422 71.8466445
v 16.0578953 113.5484614 71.7402705
v 16.5709412 113.0486195 71.7418666
v 15.2953522 111.5184833 71.4641667
v 15.0537273 111.4221483 71.5805793
v 15.5834651 111.3227722 71.2695538
v 14.9860538 111.4398161 73.5697679
v 16.2783707 111.5993264 73.2935848
v 15.6053803 111.3269201 73.2655361
v 14.9154316 113.2585573 73.0077952
v 14.9957687 113.5583124 73.1205190
v 16.3557666 113.3469110 73.0870891
v 16.6648166 112.7251724 73.0235014
v 14.6501347 112.9945879 72.6923054
v 14.3257828 112.6515002 72.8797060
v 16.5343726 113.0633962 72.7063624
v 16.3673735 112.0190470 72.5317272
v 16.6947352 112.3795099 72.6724302
v 15.6217098 111.3077421 72.6036522
v 15.5147414 111.1044818 69.5638715
v 15.2217246 111.3654019 69.7853586
v 14.9482851 111.3203833 69.6499096
v 15.6715482 110.0678786 68.5183285
v 14.5603483 111.6661873 69.6926595
v 14.7472298 111.4988043 69.6976465
v 14.5049269 110.2733148 68.5098360
v 13.9511587 112.0596567 69.3356289
v 14.4295438 111.8712216 69.7059795
v 14.3610866 112.2815141 69.7854164
v 13.5891244 111.0013106 68.5154867
v 14.0290715 112.5368081 69.4744832
v 14.3484506 112.6415457 69.7854831
v 14.3446984 112.3954613 69.7855126
v 13.1494837 111.9108200 68.5130550
v 14.0297371 113.1621459 69.3338719
v 14.4894235 113.0711806 69.7854163
v 14.3884990 112.8333372 69.7854468
v 13.9277467 112.8557033 69.3337474
v 13.2480370 113.3915466 68.5057278
v 14.5658069 113.3241231 69.7045982
v 14.8031508 113.4311235 69.7854149
v 13.6736985 114.1087900 68.5145854
v 14.8825608 113.6890299 69.6122935
v 15.2772467 114.0373534 69.4006240
v 15.1521895 113.6567123 69.7453460
v 14.5186383 114.7243882 68.5037279
v 15.5098001 113.7706680 69.6856938
v 15.7521280 113.6857031 69.7458937
v 15.1539069 114.9080363 68.5150041
v 16.0162297 113.8907686 69.4758139
v 16.2153102 113.4322759 69.7854126
v 16.1376769 113.6968954 69.6050906
v 16.1319478 114.8523702 68.5122248
v 16.4925456 113.4248918 69.6070677
v 16.5946030 113.1882046 69.6719677
v 16.9966962 114.4266882 68.5117383
v 16.5973758 112.9317410 69.7854033
v 17.0418212 112.4580123 69.4246163
v 16.6715665 112.6415124 69.7854708
v 16.6371253 112.1866342 69.7854840
v 17.9220738 112.8175471 68.5071758
v 16.8878142 111.9592547 69.4757140
v 17.0206370 112.2341821 69.4215340
v 16.5526227 111.9694558 69.7854839
v 17.8929677 111.9729961 68.5108804
v 16.7539715 111.6965641 69.4749550
v 16.4983597 111.3315141 69.4249998
v 16.2088590 111.5615184 69.7854546
v 17.5140947 111.0995369 68.5204503
v 15.8496018 111.1807924 69.5944881
v 16.0693443 111.3286893 69.6586515
v 16.6643892 110.3575618 68.5114122
v 13.0917589 112.6747705 68.5093716
v 17.6269597 113.6999520 68.5126374
v 14.6115115 113.0187542 68.4855000
v 15.5099633 113.5375481 68.4855000
v 14.6115115 111.9812397 68.4855000
v 16.4084885 113.0187542 68.4855000
v 15.5099633 111.4625191 68.4855000
v 16.4084885 111.9812397 68.4855000
v 14.6115115 113.0187542 69.4814823
v 15.5099633 113.5375481 69.4814823
v 14.6115115 111.9812397 69.4814823
v 15.5099633 111.4625191 69.4814823
v 16.4084885 111.9812397 69.4814823
v 16.4084885 113.0187542 69.4814823
f 4 1 2
f 3 4 2
f 5 4 3
f 11 4 5
f 6 11 5
f 11 6 7
f 8 11 7
f 9 11 8
f 10 11 9
f 16 13 14
f 16 14 15
f 18 16 15
f 18 15 17
f 17 19 18
f 29 20 21
f 29 21 22
f 29 22 23
f 29 23 24
f 29 24 25
f 29 25 26
f 29 26 27
f 29 27 28
f 29 28 30
f 40 29 30
f 40 30 31
f 40 31 32
f 40 32 33
f 40 33 34
f 40 34 35
f 40 35 36
f 40 36 37
f 40 37 38
f 40 38 39
f 40 39 41
f 52 41 42
f 52 42 43
f 52 40 41
f 52 43 44
f 52 44 45
f 52 45 46
f 52 46 47
f 52 47 48
f 52 48 49
f 52 49 50
f 52 50 51
f 52 51 53
f 66 52 53
f 66 53 54
f 66 54 55
f 66 55 56
f 66 56 57
f 66 57 58
f 66 58 59
f 66 59 60
f 66 60 61
f 66 61 62
f 66 62 63
f 66 63 64
f 66 64 65
f 66 65 67
f 82 66 67
f 82 67 68
f 82 68 69
f 82 69 70
f 82 70 71
f 72 73 74
f 82 71 74
f 73 82 74
f 75 84 72
f 76 84 75
f 84 76 77
f 84 77 78
f 79 84 78
f 80 84 79
f 507 82 73
f 81 84 80
f 83 84 81
f 100 82 507
f 85 91 83
f 86 91 85
f 91 86 87
f 91 87 88
f 91 88 89
f 91 89 90
f 91 90 92
f 102 92 93
f 102 91 92
f 102 93 94
f 102 94 95
f 96 102 95
f 97 102 96
f 98 102 97
f 99 102 98
f 101 102 99
f 118 100 506
f 103 102 101
f 110 102 103
f 110 103 104
f 113 118 506
f 110 104 105
f 110 105 106
f 110 106 107
f 108 110 107
f 109 110 108
f 111 110 109
f 488 110 111
f 112 488 111
f 114 488 112
f 488 114 115
f 488 115 116
f 488 116 117
f 488 117 119
f 138 118 113
f 488 119 120
f 121 488 120
f 122 138 113
f 123 488 121
f 487 488 123
f 124 487 123
f 125 487 124
f 487 125 126
f 487 126 127
f 487 127 128
f 487 128 129
f 487 129 130
f 487 130 131
f 133 487 131
f 134 487 133
f 135 487 134
f 149 135 136
f 149 487 135
f 149 136 137
f 149 137 139
f 152 138 132
f 149 139 140
f 149 140 141
f 149 141 142
f 143 149 142
f 144 149 143
f 145 149 144
f 149 145 146
f 149 146 147
f 149 147 148
f 149 148 150
f 163 150 151
f 163 149 150
f 163 151 153
f 163 153 154
f 155 163 154
f 156 163 155
f 163 156 157
f 163 157 158
f 163 158 159
f 163 159 160
f 163 160 162
f 163 162 164
f 29 164 20
f 29 163 164
f 91 84 83
f 84 73 72
f 507 506 100
f 122 132 138
f 165 166 161
f 505 166 165
f 168 505 167
f 169 168 167
f 172 170 171
f 173 172 171
f 478 502 175
f 177 478 175
f 176 177 175
f 178 177 176
f 501 178 176
f 180 178 501
f 180 501 179
f 184 182 183
f 184 183 498
f 185 184 498
f 187 185 498
f 187 498 186
f 187 186 497
f 188 187 497
f 496 188 497
f 189 188 496
f 190 189 496
f 194 191 192
f 194 192 493
f 194 493 193
f 196 193 195
f 492 196 195
f 197 492 491
f 200 491 198
f 200 197 491
f 199 200 198
f 201 200 199
f 201 199 522
f 203 201 522
f 203 522 202
f 204 203 202
f 457 204 205
f 454 457 205
f 454 205 206
f 208 454 206
f 208 206 207
f 208 207 209
f 211 209 210
f 214 211 210
f 214 210 212
f 214 212 213
f 215 214 213
f 521 215 213
f 215 521 216
f 217 215 216
f 217 216 218
f 220 217 218
f 220 218 219
f 222 519 518
f 222 518 221
f 224 221 223
f 224 223 517
f 225 516 515
f 225 515 514
f 227 225 514
f 226 227 514
f 229 227 226
f 229 226 228
f 229 228 512
f 230 229 512
f 231 230 512
f 234 231 232
f 234 232 233
f 236 233 511
f 236 511 235
f 237 236 235
f 238 237 510
f 239 238 510
f 434 239 240
f 241 434 240
f 245 242 508
f 243 245 508
f 244 245 243
f 248 244 246
f 247 248 246
f 250 248 247
f 249 250 247
f 252 250 249
f 251 252 249
f 254 252 251
f 253 254 251
f 255 254 253
f 535 255 253
f 257 255 535
f 257 535 256
f 258 257 256
f 258 256 534
f 260 258 534
f 260 534 532
f 260 532 259
f 262 260 259
f 262 259 261
f 263 262 261
f 265 263 261
f 265 261 264
f 265 264 531
f 427 531 266
f 427 266 267
f 270 267 268
f 269 270 268
f 272 270 269
f 271 272 269
f 273 272 271
f 273 271 529
f 422 273 529
f 422 529 528
f 275 528 274
f 275 274 527
f 277 275 527
f 277 527 276
f 278 277 276
f 278 276 279
f 281 278 279
f 281 279 280
f 282 281 280
f 525 282 280
f 408 282 525
f 524 408 525
f 284 408 524
f 284 524 283
f 286 283 285
f 286 284 283
f 287 286 285
f 289 287 288
f 290 289 288
f 290 288 291
f 292 290 291
f 295 292 291
f 295 291 293
f 295 293 294
f 407 294 523
f 407 523 296
f 300 297 298
f 300 298 299
f 302 300 299
f 302 299 301
f 406 302 301
f 406 301 303
f 305 406 303
f 305 303 304
f 307 305 304
f 307 304 306
f 405 307 306
f 404 306 308
f 404 405 306
f 310 404 308
f 309 310 308
f 350 310 309
f 108 107 108
f 107 107 106
f 108 107 107
f 108 109 108
f 311 109 108
f 107 106 106
f 311 111 109
f 111 111 311
f 106 105 106
f 106 105 557
f 105 104 557
f 111 112 111
f 112 112 111
f 105 104 104
f 104 103 104
f 312 114 112
f 112 114 112
f 104 103 103
f 103 101 103
f 312 115 114
f 115 115 312
f 103 101 101
f 552 116 115
f 115 116 115
f 101 99 101
f 101 99 313
f 552 117 116
f 314 117 552
f 99 98 313
f 313 98 98
f 314 119 117
f 119 119 314
f 98 97 315
f 98 97 98
f 119 120 119
f 120 120 119
f 315 96 96
f 97 96 315
f 120 121 120
f 553 121 120
f 96 95 96
f 96 95 316
f 553 123 121
f 317 123 553
f 95 94 316
f 316 94 94
f 317 124 123
f 124 124 317
f 94 93 94
f 94 93 318
f 124 125 124
f 548 125 124
f 93 92 318
f 318 92 92
f 548 126 125
f 319 126 548
f 92 90 92
f 92 90 90
f 319 127 126
f 127 127 319
f 90 89 90
f 90 89 320
f 127 128 127
f 128 128 127
f 89 88 320
f 320 88 88
f 128 129 128
f 549 129 128
f 88 87 88
f 88 87 87
f 549 130 129
f 87 86 87
f 87 86 321
f 549 131 130
f 131 131 130
f 86 85 321
f 321 85 85
f 131 133 131
f 545 133 131
f 85 322 85
f 85 83 322
f 545 134 133
f 323 134 545
f 322 81 81
f 83 81 322
f 135 135 323
f 323 135 134
f 81 80 81
f 81 80 324
f 135 136 135
f 136 136 135
f 80 79 324
f 324 79 79
f 325 137 136
f 136 137 136
f 79 78 326
f 79 78 79
f 327 139 325
f 325 139 137
f 78 77 326
f 326 77 77
f 140 140 327
f 327 140 139
f 77 76 77
f 77 76 76
f 328 141 140
f 140 141 140
f 76 75 76
f 76 75 75
f 142 142 328
f 328 142 141
f 75 72 567
f 75 72 75
f 143 143 142
f 142 143 142
f 72 74 567
f 72 74 74
f 329 144 143
f 143 144 143
f 74 71 71
f 74 71 74
f 145 145 329
f 329 145 144
f 70 70 71
f 71 70 71
f 145 146 145
f 145 146 146
f 70 330 70
f 69 330 70
f 146 147 146
f 146 147 147
f 69 68 330
f 68 68 69
f 147 331 148
f 147 331 147
f 68 67 68
f 67 67 68
f 148 150 150
f 331 150 148
f 67 332 67
f 65 332 67
f 150 151 150
f 150 151 151
f 65 64 332
f 64 64 332
f 151 153 153
f 151 153 151
f 64 333 64
f 63 333 64
f 153 334 154
f 153 334 153
f 63 573 333
f 62 573 63
f 334 155 154
f 334 155 155
f 62 61 573
f 61 61 62
f 155 335 156
f 155 335 155
f 61 60 61
f 60 60 61
f 335 157 156
f 335 157 157
f 60 59 60
f 59 336 60
f 157 158 157
f 157 537 158
f 59 58 336
f 158 159 159
f 537 159 158
f 57 57 58
f 58 57 336
f 159 160 159
f 159 337 160
f 57 56 57
f 56 575 57
f 337 162 160
f 337 162 162
f 55 338 56
f 56 338 575
f 162 164 162
f 162 164 164
f 55 54 338
f 54 54 338
f 164 339 164
f 164 339 20
f 54 53 54
f 53 53 54
f 20 21 21
f 339 21 20
f 53 340 53
f 51 340 53
f 21 22 22
f 21 22 21
f 51 341 340
f 22 342 22
f 22 342 23
f 51 50 341
f 50 50 341
f 342 24 23
f 342 24 24
f 49 343 50
f 50 343 50
f 24 344 25
f 24 344 24
f 48 576 49
f 49 576 343
f 25 26 26
f 344 26 25
f 47 47 48
f 48 47 576
f 26 345 27
f 26 345 26
f 47 46 47
f 46 46 47
f 27 28 28
f 345 28 27
f 45 346 46
f 46 346 46
f 28 347 28
f 28 347 30
f 44 580 45
f 45 580 346
f 347 31 30
f 347 31 31
f 43 43 44
f 44 43 580
f 31 32 31
f 31 32 32
f 42 348 43
f 43 348 43
f 32 33 32
f 32 33 33
f 33 34 33
f 42 41 348
f 39 41 41
f 41 41 42
f 33 584 34
f 39 39 41
f 38 39 39
f 584 35 34
f 34 35 35
f 38 349 39
f 35 36 36
f 35 36 35
f 36 37 37
f 37 37 38
f 38 37 349
f 36 37 36
f 351 352 350
f 354 352 351
f 353 354 351
f 356 354 353
f 355 356 353
f 359 355 357
f 358 359 357
f 360 359 358
f 360 358 390
f 403 360 390
f 362 403 390
f 364 363 361
f 364 363 364
f 365 364 364
f 402 365 364
f 366 367 367
f 367 368 367
f 367 369 368
f 369 370 368
f 371 372 370
f 372 373 370
f 374 370 373
f 1 375 1
f 1 375 374
f 374 375 370
f 4 11 1
f 1 11 375
f 10 376 11
f 12 376 10
f 13 383 12
f 16 384 13
f 16 385 384
f 362 389 361
f 350 393 351
f 308 380 309
f 304 396 306
f 301 397 303
f 523 399 296
f 376 12 383
f 383 13 384
f 385 16 18
f 19 385 18
f 387 385 19
f 19 386 387
f 388 386 402
f 387 386 388
f 361 388 364
f 364 388 402
f 361 389 388
f 362 390 389
f 389 390 377
f 377 390 358
f 357 378 358
f 358 378 377
f 378 357 391
f 355 391 357
f 392 355 353
f 391 355 392
f 379 392 353
f 353 351 379
f 379 351 393
f 309 393 350
f 380 393 309
f 308 394 380
f 394 306 395
f 308 306 394
f 396 395 306
f 303 396 304
f 396 303 397
f 398 397 301
f 299 398 301
f 398 299 381
f 299 298 381
f 298 382 381
f 297 382 298
f 296 399 297
f 297 399 382
f 366 400 401
f 366 401 17
f 366 17 15
f 366 15 14
f 366 14 13
f 366 13 12
f 366 12 10
f 2 1 1
f 2 1 374
f 3 374 373
f 3 2 374
f 5 373 372
f 5 3 373
f 6 372 371
f 6 5 372
f 7 371 370
f 7 370 369
f 7 6 371
f 9 367 366
f 9 366 10
f 8 369 367
f 8 7 369
f 8 367 9
f 19 17 401
f 386 19 401
f 402 401 400
f 402 386 401
f 400 365 402
f 400 363 364
f 400 364 365
f 361 363 400
f 400 362 361
f 362 400 403
f 366 403 400
f 370 403 368
f 375 403 370
f 11 403 375
f 383 359 376
f 383 355 359
f 384 356 383
f 385 350 352
f 387 350 385
f 378 305 377
f 393 297 379
f 395 295 394
f 398 289 397
f 381 286 398
f 367 403 366
f 368 403 367
f 360 403 11
f 11 376 360
f 360 376 359
f 356 355 383
f 356 384 354
f 352 354 385
f 385 354 384
f 350 387 310
f 310 387 388
f 388 404 310
f 388 389 404
f 389 405 404
f 307 389 377
f 405 389 307
f 307 377 305
f 378 406 305
f 391 406 378
f 302 406 391
f 392 302 391
f 300 302 392
f 379 300 392
f 297 300 379
f 297 393 296
f 393 407 296
f 380 407 393
f 407 380 394
f 407 394 294
f 294 394 295
f 295 395 292
f 395 396 292
f 292 396 290
f 396 397 290
f 290 397 289
f 289 398 287
f 286 287 398
f 286 381 284
f 382 284 381
f 382 408 284
f 382 399 408
f 408 399 282
f 409 282 399
f 428 265 531
f 429 262 263
f 432 252 254
f 414 248 250
f 533 241 242
f 417 434 416
f 417 238 239
f 419 236 418
f 436 234 435
f 282 409 281
f 281 409 410
f 281 410 278
f 410 420 278
f 278 420 277
f 411 275 420
f 420 275 277
f 411 421 275
f 275 421 528
f 421 422 528
f 421 423 422
f 422 423 273
f 272 273 423
f 423 424 272
f 272 424 270
f 424 425 270
f 270 425 267
f 426 267 425
f 426 427 267
f 426 428 427
f 427 428 531
f 526 265 428
f 265 526 263
f 429 263 526
f 262 429 412
f 262 412 260
f 412 430 260
f 260 430 258
f 430 431 258
f 258 431 257
f 255 257 413
f 413 257 431
f 254 255 413
f 413 432 254
f 530 252 432
f 252 530 250
f 250 530 414
f 248 414 244
f 244 414 415
f 244 415 245
f 415 433 245
f 245 433 242
f 433 533 242
f 416 434 533
f 533 434 241
f 239 434 417
f 418 238 417
f 238 418 237
f 236 237 418
f 236 419 233
f 234 233 435
f 435 233 419
f 436 231 234
f 439 219 519
f 449 217 220
f 452 211 214
f 440 203 204
f 461 191 194
f 231 436 230
f 436 444 230
f 230 444 229
f 229 444 437
f 229 437 227
f 437 509 227
f 227 509 225
f 445 225 509
f 445 516 225
f 445 446 516
f 516 446 517
f 517 446 224
f 446 447 224
f 447 221 224
f 221 448 222
f 447 448 221
f 448 438 222
f 222 438 519
f 439 519 438
f 219 439 220
f 449 220 439
f 449 513 217
f 215 217 513
f 513 450 215
f 450 451 215
f 215 451 214
f 451 452 214
f 211 452 209
f 453 209 452
f 209 453 208
f 455 454 453
f 453 454 208
f 455 457 454
f 456 457 455
f 456 440 457
f 457 440 204
f 440 520 203
f 203 520 201
f 201 458 200
f 520 458 201
f 200 458 197
f 197 458 441
f 441 492 197
f 441 459 492
f 492 459 196
f 459 460 196
f 442 193 460
f 460 193 196
f 193 442 194
f 442 461 194
f 191 461 494
f 462 494 461
f 462 190 494
f 189 190 462
f 189 462 443
f 443 188 189
f 472 185 187
f 465 181 182
f 475 180 179
f 477 478 177
f 467 505 168
f 483 82 100
f 469 163 486
f 489 102 110
f 471 84 91
f 490 73 84
f 188 443 463
f 188 463 187
f 463 472 187
f 184 472 464
f 185 472 184
f 184 464 465
f 184 465 182
f 465 473 181
f 473 474 181
f 475 474 473
f 474 475 179
f 476 180 475
f 180 476 178
f 178 495 177
f 476 495 178
f 495 477 177
f 502 478 477
f 477 479 502
f 502 479 174
f 479 480 174
f 174 480 173
f 481 172 480
f 480 172 173
f 481 466 172
f 172 466 170
f 170 466 499
f 499 169 170
f 169 499 168
f 467 168 499
f 505 500 166
f 467 500 505
f 166 500 161
f 468 161 500
f 161 468 152
f 468 503 152
f 152 503 138
f 118 503 482
f 138 503 118
f 100 482 483
f 118 482 100
f 483 504 82
f 484 66 504
f 504 66 82
f 52 66 484
f 485 52 484
f 40 52 485
f 486 40 485
f 29 40 486
f 29 486 163
f 149 163 469
f 470 149 469
f 470 487 149
f 489 488 470
f 470 488 487
f 488 489 110
f 102 489 471
f 91 102 471
f 84 471 490
f 492 472 491
f 498 479 186
f 182 481 183
f 179 467 474
f 501 467 179
f 175 468 176
f 171 483 173
f 165 486 505
f 161 469 486
f 199 198 443
f 443 198 463
f 198 491 463
f 463 491 472
f 464 472 195
f 195 472 492
f 464 195 465
f 195 193 465
f 465 493 473
f 193 493 465
f 473 493 192
f 473 192 475
f 191 475 192
f 475 191 494
f 475 494 476
f 476 494 190
f 496 495 190
f 190 495 476
f 477 496 497
f 495 496 477
f 477 497 186
f 477 186 479
f 479 498 480
f 480 498 183
f 480 183 481
f 481 182 466
f 182 181 466
f 466 181 499
f 474 499 181
f 499 474 467
f 501 500 467
f 500 501 176
f 500 176 468
f 468 175 503
f 502 503 175
f 174 503 502
f 482 503 174
f 174 173 482
f 483 482 173
f 170 504 171
f 171 504 483
f 169 484 170
f 170 484 504
f 169 167 484
f 484 167 485
f 505 485 167
f 485 505 486
f 165 161 486
f 152 469 161
f 469 152 132
f 469 132 470
f 132 122 470
f 489 122 113
f 470 122 489
f 113 506 489
f 489 506 471
f 471 506 507
f 471 507 490
f 490 507 73
f 508 436 243
f 240 437 241
f 510 509 239
f 233 447 511
f 512 438 231
f 514 513 226
f 517 451 516
f 216 440 218
f 212 458 213
f 207 460 209
f 204 461 205
f 244 243 436
f 436 508 444
f 444 508 242
f 242 241 444
f 444 241 437
f 239 509 240
f 240 509 437
f 509 510 445
f 445 510 237
f 237 235 445
f 445 235 446
f 235 511 446
f 446 511 447
f 233 232 447
f 447 232 448
f 448 231 438
f 232 231 448
f 439 438 512
f 439 512 228
f 439 228 449
f 228 226 449
f 226 513 449
f 450 514 515
f 513 514 450
f 450 515 451
f 516 451 515
f 451 517 452
f 452 517 223
f 452 223 453
f 223 221 453
f 221 518 453
f 455 518 519
f 453 518 455
f 455 519 219
f 455 219 456
f 456 218 440
f 219 218 456
f 216 520 440
f 216 521 520
f 213 520 521
f 520 213 458
f 458 212 441
f 212 210 441
f 441 210 459
f 459 210 209
f 459 209 460
f 460 207 442
f 207 206 442
f 206 205 442
f 442 205 461
f 204 202 461
f 461 202 462
f 202 522 462
f 462 522 443
f 443 522 199
f 523 409 399
f 276 428 279
f 269 431 271
f 266 432 267
f 261 414 264
f 259 414 261
f 535 417 416
f 249 418 251
f 249 419 418
f 244 435 246
f 244 436 435
f 409 523 294
f 410 294 293
f 409 294 410
f 293 291 410
f 410 291 420
f 288 420 291
f 420 288 411
f 288 287 411
f 411 287 421
f 287 285 421
f 421 285 423
f 285 283 423
f 283 524 423
f 423 524 424
f 424 524 525
f 425 525 280
f 424 525 425
f 280 426 425
f 280 279 426
f 426 279 428
f 276 526 428
f 276 527 526
f 526 527 429
f 274 429 527
f 528 429 274
f 412 429 528
f 412 528 529
f 412 529 430
f 430 529 271
f 430 271 431
f 413 269 268
f 431 269 413
f 267 413 268
f 413 267 432
f 266 530 432
f 531 530 266
f 530 531 264
f 414 530 264
f 414 259 415
f 259 532 415
f 433 532 534
f 415 532 433
f 534 533 433
f 533 534 256
f 533 256 416
f 416 256 535
f 417 535 253
f 417 251 418
f 253 251 417
f 249 247 419
f 419 247 435
f 247 246 435
f 537 157 335
f 538 537 335
f 536 339 164
f 538 155 334
f 538 335 155
f 538 153 151
f 538 334 153
f 541 150 331
f 541 151 150
f 541 538 151
f 537 542 539
f 537 539 536
f 541 147 146
f 541 331 147
f 540 145 329
f 540 146 145
f 540 541 146
f 538 542 537
f 540 143 142
f 540 329 143
f 544 328 140
f 544 142 328
f 544 540 142
f 542 538 541
f 544 327 325
f 544 140 327
f 541 546 542
f 325 136 135
f 546 541 540
f 543 323 545
f 543 135 323
f 543 325 135
f 545 131 549
f 546 540 544
f 547 127 319
f 547 128 127
f 547 549 128
f 550 544 325
f 550 546 544
f 548 547 319
f 543 550 325
f 554 317 553
f 554 124 317
f 554 548 124
f 550 543 545
f 553 120 119
f 549 550 545
f 551 314 552
f 551 119 314
f 551 553 119
f 589 547 548
f 589 549 547
f 589 550 549
f 552 115 312
f 556 112 111
f 556 312 112
f 556 552 312
f 554 555 589
f 554 589 548
f 556 311 108
f 556 111 311
f 555 554 553
f 556 107 106
f 556 108 107
f 551 558 555
f 551 555 553
f 557 556 106
f 558 551 552
f 559 103 101
f 559 104 103
f 559 557 104
f 556 558 552
f 559 313 98
f 559 101 313
f 561 315 96
f 561 98 315
f 561 559 98
f 561 316 94
f 561 96 316
f 557 562 558
f 557 558 556
f 560 318 92
f 560 94 318
f 560 561 94
f 559 562 557
f 563 92 90
f 563 560 92
f 563 90 320
f 563 88 87
f 563 320 88
f 561 562 559
f 561 565 562
f 564 563 87
f 564 321 85
f 564 87 321
f 564 322 81
f 564 85 322
f 560 565 561
f 566 324 79
f 566 81 324
f 566 564 81
f 563 565 560
f 568 566 79
f 568 326 77
f 568 79 326
f 563 569 565
f 568 76 75
f 568 77 76
f 569 563 564
f 567 568 75
f 570 567 74
f 570 71 70
f 570 74 71
f 569 564 566
f 570 330 68
f 570 70 330
f 568 572 569
f 568 569 566
f 571 570 68
f 571 67 332
f 571 68 67
f 571 64 333
f 571 332 64
f 567 572 568
f 573 571 333
f 572 567 570
f 573 60 336
f 573 61 60
f 570 590 572
f 590 570 571
f 575 336 57
f 574 575 338
f 574 54 53
f 574 338 54
f 590 571 573
f 574 340 341
f 574 53 340
f 573 577 590
f 579 574 341
f 579 50 343
f 579 341 50
f 577 573 336
f 577 336 575
f 576 579 343
f 578 46 346
f 578 47 46
f 578 576 47
f 574 577 575
f 574 581 577
f 580 578 346
f 581 579 576
f 582 580 43
f 582 348 41
f 582 43 348
f 578 581 576
f 579 581 574
f 349 582 41
f 349 41 39
f 585 578 580
f 349 37 36
f 582 585 580
f 585 581 578
f 583 349 36
f 583 35 584
f 583 36 35
f 584 33 32
f 585 582 349
f 587 31 347
f 587 32 31
f 587 584 32
f 587 28 345
f 587 347 28
f 586 587 345
f 586 26 344
f 586 345 26
f 583 585 349
f 583 588 585
f 586 24 342
f 586 344 24
f 588 584 587
f 588 583 584
f 536 586 342
f 536 22 21
f 536 342 22
f 588 587 586
f 586 539 588
f 539 586 536
f 536 21 339
f 536 162 337
f 536 164 162
f 537 337 159
f 537 536 337
f 591 589 555
f 591 555 558
f 591 558 562
f 592 562 565
f 592 565 569
f 592 591 562
f 572 592 569
f 593 546 550
f 593 589 591
f 593 550 589
f 594 592 572
f 542 546 593
f 590 594 572
f 595 542 593
f 577 594 590
f 539 542 595
f 577 596 594
f 581 596 577
f 588 539 595
f 588 595 596
f 585 596 581
f 585 588 596
f 591 592 597
f 597 592 598
f 593 591 599
f 599 591 597
f 595 593 600
f 600 593 599
f 596 595 601
f 601 595 600
f 594 596 602
f 602 596 601
f 592 594 598
f 598 594 602
f 600 598 602
f 600 602 601
f 599 597 598
f 599 598 600
