# Render LOD; unchanged CAD body-local coordinates in mm
v 19.0739269 5.9000372 25.2666937
v 18.2090528 4.3745344 24.3759727
v 17.8733594 2.9698829 23.0795875
v 21.7865071 1.3195489 17.4378282
v 21.7218036 6.4579269 25.0423186
v 35.0969009 5.8155263 21.9128649
v 35.0968122 4.2476842 19.7867044
v 35.0966936 8.4998435 23.5278137
v 21.6857065 8.8056735 25.8952747
v 32.2869569 7.2219716 23.4593894
v 25.0596543 1.6457096 13.1631347
v 35.0968000 2.7825468 0.0018311
v 28.4234256 1.6500539 0.2196002
v 35.0968593 3.5338891 17.5221944
v 27.9695112 1.8014518 -6.2735666
v 23.1514316 1.3301666 -15.3743513
v 20.8096259 3.4845617 -21.0838562
v 21.2702436 4.9339090 -22.3700234
v 35.0966493 3.4023931 -15.6922324
v 35.0967869 4.1159903 -17.7279548
v 35.0968365 5.2510161 -19.4719282
v 35.0968185 9.1622774 -22.0878030
v 35.0968169 6.5769052 -20.7251501
v 24.2145080 9.1071547 -23.9717776
v 27.8851008 14.3772084 -24.1180402
v 35.0968183 21.7779803 -23.6913685
v 29.8412227 19.8290405 -24.3404148
v 20.9530927 2.3152208 -19.3744624
v 23.8923203 9.5493473 -24.2725303
v 22.7465657 0.9939731 -14.8108680
v 22.0708069 6.5452426 -23.3232670
v 21.6340427 1.5371543 -17.4020811
v -36.5050836 16.9961841 11.7436763
v -18.1193681 17.4267372 33.6546883
v -15.6590366 23.9348550 36.5856437
v -38.0604330 20.1262812 9.8878533
v -36.0330423 43.8153552 12.3124934
v -32.7215262 47.2667552 16.4408869
v -26.1307131 59.4996943 8.7420264
v -18.9120840 43.6575430 32.8256349
v -17.4693916 48.9955222 30.9325872
v -33.0882088 50.1647676 11.6712688
v -29.7424237 48.5343009 20.1667374
v -26.2207323 48.6627227 24.4988542
v -25.4496283 55.6674567 17.0839122
v -22.7039756 59.4986446 14.2505720
v -21.5514780 50.1227325 27.4204623
v -16.5304722 53.5298770 28.1424149
v -20.8777425 55.8407206 22.5136880
v -14.9207753 57.1154313 25.6988900
v -17.9463042 55.7895877 25.1325049
v -17.3659843 59.5000402 20.9548517
v -28.5593334 52.0622258 17.8226553
v -17.4553852 41.4301727 34.4435473
v -22.7719735 47.2456066 28.5845539
v -29.7914403 38.9336768 19.8316443
v -39.6947836 27.0173882 7.9410805
v -15.7518224 36.4206377 36.4673199
v -15.0443520 30.6996127 37.3196541
v -38.4427064 38.7830920 9.4346550
v -4.0792040 59.4988002 26.8754340
v -11.7540842 59.5003012 24.6895835
v -0.9007705 57.2521832 29.3263481
v -6.1706334 55.2571524 30.5459192
v -11.0821097 56.8284956 27.8251352
v -1.3380571 53.9304297 32.1122888
v -10.1097620 54.2724088 30.3721045
v -13.6128255 52.3023250 30.5658480
v -6.6659917 50.7199223 33.7295078
v -0.7347426 49.3988126 35.0380624
v -11.8188448 48.2262312 33.8395742
v -0.9282579 45.9287266 36.7118206
v -5.3070656 46.2166944 36.3014000
v -14.8058946 47.5744364 33.0210448
v -9.9384032 45.4677470 35.6959933
v -0.8345468 40.7151981 38.5586237
v -3.4417257 42.7947804 37.8340375
v -8.6013520 41.9855914 37.3405559
v 0.6966683 38.1118216 39.2012417
v -15.0351684 42.2252408 35.2926632
v -4.8820258 38.0905707 38.9775372
v -11.5336594 39.3676220 37.3404916
v -1.7662458 35.2945845 39.6446626
v -9.0078379 36.4281321 38.5958553
v -12.7490365 34.8474587 37.7994517
v -11.0603005 30.6602760 38.6292607
v -4.8324835 33.2612214 39.6428067
v -2.8961833 29.3545295 39.9500608
v -19.0761170 15.5410000 32.6478663
v -20.2265837 14.1697321 31.4279126
v -20.9837880 13.2313812 30.6260112
v -22.2175160 12.0442573 29.2215192
v -25.3848457 10.5509403 25.5098998
v -27.7951491 10.4813351 22.5632117
v -29.8406215 10.9628725 20.0351633
v -13.8243895 0.5150755 23.5699619
v -0.5284603 28.6266205 40.0050221
v 0.0191726 21.7667667 39.1729590
v -0.0030056 24.4816083 39.6441776
v -0.7924878 15.4549428 37.2909878
v 0.1897917 19.2156554 38.5596503
v -1.1290146 10.8958523 35.1878058
v -4.1390632 24.3091406 39.4668712
v -5.3130733 13.7845679 36.3009170
v -4.9069747 17.6163096 37.8391421
v -5.7434191 20.7296040 38.5964937
v -11.0232511 20.1145883 37.3603867
v -9.8019526 24.7872528 38.5965435
v -6.6708382 9.2776624 33.7274726
v -9.5077014 15.6742876 36.3013298
v -5.9054195 29.3411900 39.6644526
v -4.8315707 4.5563609 30.6452850
v -7.9263251 26.8029754 39.2129809
v -7.9218647 32.5350462 39.2746129
v -2.7987188 0.5002707 26.9613930
v -12.5070319 24.7849778 37.8620377
v -12.0337643 11.7034933 33.7282137
v -15.6151348 14.4444971 33.6601894
v -14.1193616 18.1727740 35.7575849
v -11.8396977 6.9170571 30.7301978
v -16.3767703 17.1098335 34.3920043
v -18.1620676 17.3448104 33.6009766
v -18.2013049 17.2619833 33.5497063
v -18.2347720 17.1782559 33.4996567
v -17.6322103 10.6313780 30.5928644
v -17.3183022 9.0472496 29.6909618
v -18.1724539 13.7526353 32.0128176
v -18.2913198 15.0886724 32.5926604
v -17.1907273 19.2562022 34.7606056
v -18.3778781 16.7503254 33.2699772
v -18.3582541 16.4085041 33.1297780
v -18.1401228 12.8544180 31.5413582
v -7.0056168 0.5016239 26.3463047
v -11.0167926 3.3927968 28.0818916
v -14.5240026 1.8934022 24.8250375
v -40.3543124 31.8358994 4.1749304
v -28.9636944 3.6635640 10.0848043
v -26.2823929 0.5028591 8.5453683
v -31.7616479 7.4240095 10.9186884
v -29.6972484 2.9795003 4.6933656
v -33.6883892 10.8362752 11.6612824
v -32.6004763 6.5421135 5.0618798
v -35.0886054 11.3251995 7.8368889
v -34.8034487 14.4917593 13.7852572
v -27.5907686 0.5037108 1.1432010
v -32.4179857 5.8255468 0.9150047
v -31.9341389 5.3471988 -3.2315307
v -27.4086835 0.5016929 -3.3286647
v -36.7638855 13.5702936 4.9833660
v -35.1048496 9.7809326 -0.4662179
v -38.9944608 20.0583358 5.1456586
v -29.3705355 2.9328462 -6.2462820
v -37.5334992 14.6697886 -0.4668507
v -32.0890587 6.9303237 -8.7270026
v -25.3585658 0.4999137 -10.9278747
v -35.0923381 10.5806445 -5.6126752
v -40.2483530 25.3197687 2.2972261
v -39.5998887 21.1798168 -0.4594866
v -26.6301706 3.0155345 -13.8989124
v -40.5839638 31.1889935 -0.2796167
v -22.0211009 0.5013592 -16.4782367
v -36.6432195 15.0308926 -8.7258530
v 1.9329815 2.3068639 -28.8369167
v -29.0439710 4.2527881 -11.4782092
v -27.5989555 5.6000238 -16.6110484
v -38.1443881 16.7396302 -3.8896080
v -10.2803946 0.5001028 -25.2439147
v -23.5178766 3.5101190 -19.3116034
v -34.9233048 12.8710073 -11.4630538
v -17.3034885 0.5005051 -21.3485603
v -8.7305041 2.7433376 -28.1524022
v -4.2658915 2.6298806 -28.9718816
v -32.2531424 9.9829248 -14.0415511
v -40.1032957 30.5380637 -6.1845951
v -13.3603234 2.4588008 -26.0738397
v -18.6668140 3.3324586 -23.7389221
v -39.9773685 24.7843446 -4.9061335
v -38.3393598 20.0733809 -8.7324795
v -22.1554672 6.1023872 -23.7659422
v -2.5119663 5.4686118 -31.5937688
v -33.1781629 13.8133191 -16.6171574
v -28.2686712 8.3033908 -19.1467828
v -38.8269708 30.4759083 -11.7275141
v -11.6091270 5.7875053 -29.9005020
v -25.2049584 9.2631097 -23.7646944
v -37.0746756 19.7736416 -12.7207319
v -16.3575140 5.8845961 -27.7815339
v -29.0824405 11.9207303 -21.4863227
v -38.6638632 25.5090078 -11.4065396
v -7.7076361 6.9287807 -31.9464120
v -3.8434459 10.3518537 -34.7556045
v -19.7447304 8.7825304 -27.9967577
v -35.0831732 18.4005283 -16.6015247
v -31.2845797 15.9788064 -21.4787430
v -36.3373244 23.2150642 -16.6102118
v -14.3711577 9.7577328 -31.6919865
v -22.4643606 11.5999505 -27.9921927
v -2.0431527 13.8783375 -36.6409339
v -27.8830758 14.6191869 -24.9228210
v -8.9036586 11.9872346 -34.7954099
v -36.6633029 28.3949181 -17.2041966
v -34.0776268 21.8315787 -20.3709933
v -25.3358413 15.5030849 -27.9181990
v -34.1923028 29.9058297 -21.7153129
v -2.9355989 16.6405351 -37.6556525
v -31.4218330 20.8113765 -23.7676584
v -1.3739845 19.1133909 -38.5106151
v -0.0660400 21.6198847 -39.1399793
v -7.5449008 16.8495236 -37.1639830
v -19.3191022 14.2410650 -31.6915056
v -32.3858660 25.1160012 -23.7697096
v -13.4546728 14.9091212 -34.7932357
v -0.5329785 30.0002501 -40.0000000
v -31.0272920 29.0465204 -25.9404527
v -27.6480703 20.8278325 -27.9951844
v -24.5845608 19.3925044 -30.2296021
v -27.2771464 29.3115026 -29.8012809
v -28.6513981 24.6060823 -27.9885203
v -21.6498386 19.9509121 -32.5010046
v -17.0480911 18.9562154 -34.7929412
v -24.4358465 24.6802124 -31.6730168
v -10.8373379 19.2315211 -37.1635304
v -1.3432988 24.4777000 -39.6313829
v -22.6819943 29.7945649 -33.3856629
v -5.8678482 21.9085552 -38.8654164
v -19.4128994 23.8218177 -34.7943303
v -13.3585097 22.4123657 -37.1645850
v -18.0035347 29.0304351 -36.0306433
v -14.8854633 26.5059307 -37.2234879
v -6.1033207 25.9430309 -39.4401450
v -10.4614105 25.2749943 -38.4878586
v -13.8917398 32.5914986 -37.6511363
v -10.0820691 29.7552144 -38.8951653
v -5.9717874 29.8604753 -39.6455540
v -3.1156270 29.3785694 -39.9337851
v -0.5995390 57.6851681 -28.8949547
v -0.0607855 35.5903541 -39.6360796
v -1.4087978 38.2228641 -39.1566567
v -1.1725796 41.9708947 -38.2043257
v -1.0318308 47.2295623 -36.1585526
v -5.7602740 41.0630350 -38.1413128
v -0.2762078 52.5673348 -33.1021279
v -5.5558501 36.6199912 -39.1431221
v -5.5402346 51.6505518 -33.3519136
v -5.6841755 46.6443584 -36.0681641
v -1.1135528 32.5631006 -39.9379882
v -2.1450800 59.5002076 -27.0396173
v -10.9451120 40.6634797 -37.1640548
v -4.9440916 56.1287422 -30.0524352
v -9.9834088 44.6380263 -36.0681673
v -9.9146480 35.7041124 -38.5116314
v -5.0060172 33.3923468 -39.6426276
v -9.5922796 57.1021427 -28.0444387
v -7.2631161 59.4999980 -26.2101576
v -11.2239856 49.4850247 -33.3480739
v -11.5176555 53.0931714 -30.8196433
v -8.1628807 33.3139406 -39.1463859
v -16.6507830 41.5975105 -34.7989435
v -13.4315220 37.4662938 -37.1641479
v -13.2241126 55.6723317 -27.9821765
v -13.5634521 59.4940389 -23.7901240
v -16.0834619 45.8745548 -33.3505588
v -17.3402174 49.2722049 -30.8204110
v -16.5987773 53.7046734 -27.9838064
v -17.4771785 33.5963130 -36.1048354
v -19.6724370 51.3005106 -27.9838450
v -18.6549117 56.6165939 -23.8022467
v -16.3198569 59.4996017 -21.9700416
v -22.9079751 48.2074020 -27.7789348
v -21.2981640 40.7513535 -32.5023171
v -21.9166881 44.0235922 -30.8201098
v -19.1851247 36.8130118 -34.7986983
v -22.1018101 53.9515909 -23.7603501
v -25.2716753 44.4178637 -27.9862885
v -25.1533324 50.7991670 -23.7628188
v -25.0200258 55.2926094 -19.0881947
v -23.4282515 34.7470350 -32.5029813
v -24.9063832 37.7411353 -30.8186519
v -20.5513174 59.4940331 -18.2987198
v -27.7594362 47.2441413 -23.7663916
v -27.0089376 40.9236161 -27.9793006
v -29.8537370 43.3884936 -23.7589264
v -26.9195709 33.1641106 -29.9472862
v -28.2463705 37.2062004 -27.9845802
v -28.2338033 51.7315926 -19.0821614
v -28.3946982 55.1131631 -14.0356204
v -32.3752572 38.9236803 -22.6558049
v -24.5044178 59.4991096 -12.7260415
v -30.7835461 33.6099392 -25.9882033
v -30.9355121 47.7564919 -19.0812232
v -31.5521658 51.0897096 -14.0351966
v -33.9349151 35.1408874 -21.4824223
v -33.0678788 43.4495148 -19.0866938
v -29.6145881 55.9368367 -9.3729073
v -34.1378631 46.6586070 -14.0406403
v -32.0274877 53.8806173 -6.3832716
v -36.0861364 38.0045480 -16.6057802
v -27.0145074 59.5001595 -5.7058535
v -33.8464396 50.2597979 -9.0926985
v -30.1643872 56.7528942 -3.2548514
v -36.0920544 41.9247877 -14.0467023
v -36.9206355 32.5573616 -16.5571945
v -36.1107187 46.1946631 -8.7249766
v -38.4760086 35.8490221 -11.4108302
v -34.2751912 51.3346599 -3.2449405
v -29.7977078 57.2509090 2.0023481
v -37.9828042 41.1990903 -8.7323166
v -32.8027016 53.6138662 2.2960951
v -39.6676118 36.0552927 -5.9992999
v -27.6219163 59.5004005 1.9152802
v -36.8700207 46.5359294 -3.2310825
v -36.0540278 48.4201735 0.9224266
v -29.3910242 56.9596857 6.5091040
v -29.6531624 55.5215969 10.2264771
v -38.7833496 41.4301703 -3.2435872
v -37.9784232 44.0267935 2.3132944
v -35.4889009 48.8822405 5.0773592
v -39.8772678 37.4888059 -0.4684204
v -33.0466227 52.0884536 7.6739901
v -37.6019554 43.1873724 7.4123721
v -35.7515528 46.6108383 9.2700199
v -39.1755075 39.3333697 4.7933108
v -39.4798179 34.4988519 8.1934848
v 26.4683991 59.5002153 -2.0598340
v 4.8843863 59.4991181 -26.5213746
v 15.2768670 59.5003506 -21.9895097
v 18.8476679 59.5001263 -18.8867523
v 22.1710461 59.5000428 -14.6964453
v 25.0341486 59.5003878 -8.9716544
v 26.0833901 59.5003433 5.1167730
v 24.0922240 59.5002399 11.1955830
v 16.8719412 59.4997820 20.7638234
v 7.7989719 59.4984768 25.7703293
v 2.9081264 59.5004476 26.8385250
v 21.4523802 59.5001817 15.7656278
v 21.5301656 58.6069740 -17.2628204
v 25.2476330 58.8476929 -10.3652909
v 26.8690484 58.6509022 -5.8722463
v 27.3272585 58.7081094 -2.3543911
v 26.6466154 58.7525989 6.1860961
v 23.7475908 58.7669613 13.7508788
v 21.0260018 58.9923994 17.2745360
v 11.5774734 31.4742075 -38.1469840
v 7.4319413 32.0320393 -39.1822428
v 10.6149534 35.3228858 -38.0877512
v 3.7060876 33.6938407 -39.6123781
v 1.9740445 30.8758433 -39.9331684
v 15.6620103 31.5506412 -36.5889941
v 7.8105509 37.2772877 -38.4593130
v 14.8101845 38.4775041 -36.0170209
v 19.0440014 34.3238353 -34.6883645
v 10.6684789 40.0052307 -37.1179950
v 3.8089288 37.1404060 -39.1662169
v 23.9117361 32.9021460 -31.5709277
v 7.5519819 42.6595905 -37.1172874
v 18.6347975 39.1070376 -33.9453078
v 3.5031235 40.2974414 -38.4802346
v 22.8743141 37.8221517 -31.5685684
v 13.9637555 43.7858333 -34.7145874
v 3.3318737 44.3382887 -37.1969780
v 30.8607673 33.4553125 -24.6805341
v 26.9987533 37.6454922 -28.0914295
v 30.3487225 36.6475203 -24.6515145
v 9.7041610 47.1870999 -34.7144673
v 19.9006523 43.8430526 -31.5676325
v 25.3467025 42.6050139 -27.8317591
v 14.3138849 48.2567715 -32.3958510
v 2.8287273 48.5073271 -35.3423425
v 22.7994263 46.7803631 -27.9091180
v 5.8868371 50.2287357 -33.9443004
v 16.9588856 50.0515984 -29.9522933
v 27.8931007 44.1358237 -24.4735312
v 9.7300993 52.4460312 -31.5676369
v 20.7475480 51.4112163 -26.3567284
v 3.8762126 54.6814552 -31.2406383
v 14.8955495 54.3220674 -27.8117638
v 9.6738407 55.8678654 -28.7933647
v 13.3119270 57.4249541 -25.6695033
v 17.7512865 56.8176398 -23.4429587
v 3.9503464 57.5022306 -28.7482934
v 21.4851460 54.5635867 -22.7208776
v 8.7990690 59.4994784 -25.4320076
v 27.9132698 39.6922221 26.4635361
v 25.6038248 35.9847107 29.7351692
v 26.4946617 30.9728012 29.5531505
v 24.5769473 41.9483150 28.8302277
v 21.2863180 51.0938871 26.1071589
v 15.0519241 56.6044522 25.5422446
v 21.0484055 45.8544285 29.7629754
v 21.2930256 34.9275606 33.2433620
v 17.2905582 52.4344946 27.9637526
v 21.9546514 40.1714612 31.5675167
v 12.3711857 59.5000164 23.7921069
v 17.6273986 49.2338395 30.0854121
v 18.9782973 29.7314530 34.9803641
v 10.1376627 56.9580756 27.6253925
v 12.9358106 53.1477426 29.7611568
v 16.7410146 33.2348284 35.9847361
v 17.2021046 45.4671702 32.3954218
v 17.6000865 41.0238050 33.9452503
v 14.2196646 46.6393940 33.3252528
v 14.3776315 29.7498109 37.1582851
v 4.9005886 57.1957238 28.8731739
v 8.0850732 54.2459060 30.6880029
v 15.2331908 37.7572944 35.9867313
v 9.3895025 50.0967482 33.2065556
v 11.8286102 35.8786408 37.6458508
v 3.6862691 54.1433192 31.6785222
v 10.4593453 30.8439033 38.4869839
v 7.8679609 30.9806898 39.1243593
v 12.5483592 41.7260531 35.9885068
v 4.2650611 49.4207704 34.7181031
v 8.9063611 44.8207012 35.9868373
v 6.9699976 41.4480842 37.6458959
v 5.1103308 29.9228723 39.6242460
v 8.5165402 36.3833064 38.4756089
v 2.7691703 44.8143900 37.0635718
v 5.7801599 35.5090555 39.1343960
v 3.8797451 40.1566740 38.4756932
v 1.6499597 31.9033580 39.9050761
v 2.7499919 34.6482629 39.6313161
v -1.3555871 32.4031297 39.9471152
v 4.2811559 0.5006264 26.6539952
v 21.4365004 0.4990968 15.9706266
v 25.0440123 0.5000916 8.8557496
v 24.8349434 1.1586876 11.2835327
v 26.2015911 1.4128010 8.6656249
v 26.2894699 0.5022873 3.3657560
v 26.4767907 0.5004470 -1.6418667
v 25.4930296 0.4992895 -7.4521051
v 22.4994428 0.5008567 -14.3173266
v 30.7973389 27.4044336 -24.8205533
v 17.1245246 0.5002009 -20.5778068
v -2.9147078 0.5002211 -27.0177741
v 8.4489414 26.2016738 38.8413922
v 4.0456862 24.7481213 39.4330097
v 2.0578027 29.2464323 39.9333203
v 12.3398125 25.4623085 37.6613769
v 16.1004786 24.3402503 35.9875618
v 20.3270575 26.2965754 33.9630600
v 6.1578329 21.1758964 38.4755969
v 22.6757591 28.6999411 32.5991967
v 8.1045837 19.3790887 37.6451976
v 13.9508367 20.0530217 35.9870501
v 20.1840660 21.5901134 33.2603795
v 25.7344251 25.5634540 29.9276457
v 4.9597213 16.1147726 37.1742099
v 10.7371178 16.5180155 35.9862832
v 17.1452799 16.3161897 33.2627122
v 23.9539766 19.1576251 29.8296639
v 29.1183319 25.0669410 26.4582765
v 7.1822044 11.8588705 34.8540030
v 2.6158079 13.0052067 36.1134583
v 11.1029793 12.2520716 33.9445476
v 14.3228534 11.7502719 32.3956266
v 19.1301929 11.9820348 29.9117473
v 23.2248008 15.5542982 28.8330156
v 8.8408447 8.4142315 32.3946020
v 3.5291522 8.3539129 33.4432650
v 13.5786287 8.4827708 30.6875732
v 16.5727302 6.8882737 27.8641077
v 10.6594243 5.6940841 29.8092761
v -0.5822321 6.9063470 32.6996918
v 4.8377540 3.9751407 29.9558439
v 8.5758752 2.7981017 27.9275428
v 13.9110616 3.0003334 25.8210158
v 11.7633349 0.5016347 24.1515909
v 0.2768006 3.0114031 29.5712794
v 16.1266693 0.5004028 21.3013471
v 27.9632418 29.6976541 -28.1611501
v 27.3486837 25.0984530 -28.3284219
v 29.2916472 19.8092519 -24.6863874
v 26.7478921 20.8543987 -27.8419604
v 23.8271946 29.3235694 -31.7792736
v 17.5903013 3.0291663 -23.4038237
v 11.3903306 0.5010421 -24.3414511
v 23.2409507 13.6732860 -27.7772569
v 24.2452608 23.0591902 -30.6877522
v 22.2747489 7.1445930 -23.6903764
v 25.2307729 17.1535996 -27.8268151
v 20.8240186 10.6707888 -27.8100200
v 21.2983244 25.0658025 -33.2387959
v 19.3480859 29.7086598 -34.7451595
v 21.4536496 16.6282024 -30.6862777
v 17.9752037 7.9393295 -27.8190492
v 13.4248056 4.8944996 -27.9446924
v 20.7171380 19.8929904 -32.3958693
v 17.7030224 13.9066138 -31.8248790
v 8.7108097 2.7838036 -27.8692732
v 4.7364943 0.5008067 -26.5443947
v 16.7328250 26.8154302 -35.9947475
v 13.3924104 9.6257870 -31.5696883
v 16.9942789 20.3562453 -34.7144028
v 12.9794253 27.8722710 -37.6267458
v 12.7170495 22.9298953 -37.1183254
v 13.7484966 15.9837087 -34.7114571
v 2.2445221 5.3575989 -31.4325015
v 7.3813282 6.6225378 -31.5677577
v 9.4321350 12.6494432 -34.7125825
v 8.6650259 26.6611042 -38.8409965
v 3.6526561 9.1972671 -33.9503061
v 10.3225271 19.6140976 -37.1163918
v 4.5591703 13.1858951 -35.9883584
v 0.1706820 9.8922840 -34.6235312
v 7.1131460 17.0717552 -37.1176416
v 0.3000284 27.5714449 -39.9493509
v 5.0118091 29.4250887 -39.6502433
v 6.4553194 21.4102643 -38.4758764
v 2.2373627 17.8384112 -38.0488035
v 3.4437925 24.3665219 -39.4454016
v -16.5438352 0.5031944 21.6198684
v -19.2411911 0.5021619 18.8726000
v -22.5963905 0.5048613 14.2460632
v 26.8035200 1.3590143 -6.2684193
v 24.8112572 1.1496970 -11.4032678
v 27.3472737 1.3014743 -2.2824113
v 25.8858762 1.5970392 -11.0360790
v 27.5625050 1.8266156 7.5834261
v 27.3495677 1.2325490 1.2402548
v 27.1258164 1.4268865 5.2164045
v 23.5837652 1.2252844 13.9655121
v 20.8986626 1.0079345 17.4616363
v 20.4430091 1.3065165 18.7618174
v 22.2038841 9.6193833 26.0093080
v 22.2650481 9.5671662 25.9641413
v 22.3285202 9.5122482 25.9238575
v 18.6265201 1.7013919 20.8733972
v 20.5384994 7.8542074 25.8782982
v 26.2112710 14.4508463 25.9508982
v 23.3116610 10.4647995 25.8861353
v 24.7736383 13.4419540 26.2543076
v 29.5353016 23.0236182 26.1491207
v 22.6620744 10.5191752 26.1889461
v 27.1719947 17.9921005 26.3416740
v 28.9290200 23.1227439 26.3243250
v 29.4807439 28.3478187 26.4827969
v 35.0966890 19.4417963 24.9955624
v 35.0968835 54.1861546 21.9063747
v 35.0968095 55.7414840 19.8031353
v 35.0966862 51.5014864 23.5274097
v 35.0967999 57.2168513 -0.0039053
v 35.0967243 34.1380336 25.3525043
v 35.0967750 39.8006421 -23.5369361
v 35.0968092 50.7232257 -22.1167709
v 35.0970398 56.6508131 -15.4966670
v 35.0968530 53.2974686 -20.8292021
v 35.0967491 55.8647419 -17.7652628
v 35.0968182 54.8062777 -19.4013311
v 22.3285202 50.4873518 25.9238575
v 22.2650481 50.4333341 25.9641413
v 26.1671751 44.6851943 26.1067185
v 29.5126577 31.2075475 26.4718124
v 30.0560557 29.6704500 26.2273932
v 22.1128769 50.0869669 26.1903767
v 22.2038841 50.3802167 26.0093080
v 22.4904398 50.5401929 25.8625772
v 24.0865022 47.9522125 26.0511939
v 29.5152294 35.5795675 26.2204836
v 29.0920761 35.1846292 26.4579119
v 26.5364544 43.4164750 26.2932948
v 28.3980700 39.8205278 26.1541861
v 35.0963581 45.7650594 24.4060488
v 18.9455263 58.4788767 20.3422474
v 18.0075034 57.5205417 22.3885276
v 17.9467859 56.4516397 23.6737818
v 19.4163992 53.8351022 25.3303138
v 18.4504254 55.1490016 24.7058420
v 19.8939831 52.7513797 25.8313184
v 20.4936346 58.7422121 18.5384264
v 21.8257673 58.6828075 17.3664418
v 35.0968540 56.4647217 17.5280634
v 22.3895299 52.8532323 25.2121412
v 32.2955887 52.7793936 23.4570587
v 21.1434274 51.9455802 25.7778433
v 28.1427112 58.0619365 7.4707020
v 27.1655895 58.8989897 1.5488382
v 27.7817201 58.3463786 4.2188614
v 26.8587935 58.3148343 8.4369373
v 24.7478794 58.3866790 13.5856703
v 25.4221213 58.6214893 10.6546910
v 28.6077418 58.3001051 -0.6002314
v 27.9475450 58.4833543 0.1925050
v 24.1565729 58.5954398 -13.9172700
v 27.0089304 58.2961869 -8.6529600
v 20.9363234 56.0131144 -21.5792538
v 20.8141345 57.0270440 -20.4169132
v 23.5500825 51.4633912 -23.9119415
v 21.9879143 58.3526938 -17.4627971
v 22.9640745 58.6088170 -15.8004256
v 23.9297960 50.4102972 -24.2764445
v 23.0502782 58.9541966 -14.4520942
v 21.0006630 57.7998528 -19.1379454
v 22.1486920 53.3064103 -23.3908654
v 31.5088963 29.6874871 -24.4513925
v 30.8031114 24.7171025 -24.5345304
v 28.3522340 16.9315522 -24.4990403
v 27.1545045 14.3459597 -24.3767666
v 25.4318488 11.6210005 -24.3452574
v 30.5615214 22.3646898 -24.3938871
v 27.6331949 45.4568505 -24.2005464
v 25.1680484 49.0849676 -24.1715804
v 30.9459083 30.7969165 -24.7467555
v 31.1952658 35.1475583 -24.4065505
v 29.4889247 40.0395608 -24.5640818
v 29.9893205 40.4441330 -24.2702032
v -25.3935512 9.9086778 22.2156138
v -25.1147162 7.9946577 18.6277607
v -21.3272360 7.1632306 21.8156609
v -21.6823909 10.1929325 25.4006953
v -18.1574514 17.1233379 33.0907149
v -18.1747620 17.0801238 33.0846113
v -19.5431019 14.4713251 32.2077526
v -18.5128952 15.4604940 32.8856336
v -18.8152816 14.8435618 32.5986972
v -18.7916272 13.6435977 31.9053604
v -17.7353467 11.0252282 29.9462241
v -17.9658810 17.4591478 33.2323186
v -17.9681891 17.4573472 33.2298772
v -18.5663045 16.2662760 32.9060400
v -18.1597595 17.1215373 33.0894942
v -18.4713498 15.4496905 32.9088273
v -18.4482691 14.0785419 32.3741512
v -18.4609635 15.4469896 32.9149310
v -18.4159560 14.0767413 32.3912413
v -18.3986454 15.9394507 33.0125887
v -18.4678877 14.5142845 32.6060883
v -18.4078777 14.0758410 32.3949035
v -18.1966887 17.0315079 33.0736248
v -31.5641464 10.7915888 14.8678770
v -30.6447391 9.7960334 14.7536774
v -26.5806312 5.7302778 14.7120942
v -23.2634058 10.3947711 25.1688217
v -20.6208918 13.4752553 31.4501820
v -18.1767168 7.6467661 26.7527028
v -17.6461355 9.7844356 29.2561148
v -17.1153327 7.4783806 28.6343961
v -16.5509655 6.1537776 27.8585232
v -16.0512664 0.8646433 22.5241385
v -33.7923240 12.8352334 13.5578903
v -30.1641685 10.6651742 17.2370702
v -31.6800127 11.9085981 17.7229290
v -28.1163042 10.2028890 19.8449994
v -28.5838252 9.7440634 17.5020316
v -25.7747636 8.9605726 19.3997866
v -21.2432690 12.1562644 29.5402832
v -21.3398756 9.1952752 24.1254470
v -19.2391067 12.3248831 30.0459677
v -20.5065005 12.9117276 30.8410756
v -19.0524970 11.0866138 28.3425604
v -18.2882180 10.6451316 28.7824085
v -16.4669461 4.1304893 24.7914884
v -14.4162330 0.7430734 23.8375692
f 2 5 1
f 2 10 5
f 6 2 3
f 3 7 6
f 7 3 527
f 7 527 523
f 523 14 7
f 14 523 4
f 5 528 1
f 5 9 528
f 10 6 8
f 8 9 10
f 10 2 6
f 10 9 5
f 14 4 11
f 14 11 518
f 14 518 13
f 14 13 12
f 15 19 12
f 15 12 13
f 517 16 19
f 517 19 15
f 20 16 32
f 20 19 16
f 20 32 28
f 20 28 17
f 18 21 17
f 21 20 17
f 23 21 18
f 23 18 31
f 31 22 23
f 22 31 24
f 22 24 25
f 26 599 595
f 26 595 594
f 26 22 25
f 27 26 25
f 599 26 27
f 24 31 479
f 29 24 479
f 16 30 32
f 129 33 34
f 129 59 33
f 129 35 59
f 59 57 33
f 33 57 36
f 42 37 38
f 46 39 314
f 41 55 40
f 53 43 44
f 53 38 43
f 45 46 314
f 45 52 46
f 47 41 48
f 47 44 55
f 49 44 47
f 49 45 53
f 49 53 44
f 41 47 55
f 49 52 45
f 51 47 48
f 51 49 47
f 51 48 50
f 51 52 49
f 51 50 62
f 51 62 52
f 53 314 42
f 53 45 314
f 53 42 38
f 54 55 58
f 40 55 54
f 44 56 55
f 43 56 44
f 38 56 43
f 323 56 60
f 57 56 323
f 55 59 58
f 56 59 55
f 57 59 56
f 56 37 60
f 38 37 56
f 65 61 62
f 64 63 61
f 64 61 65
f 65 62 50
f 66 63 64
f 67 64 65
f 48 65 50
f 69 66 64
f 68 65 48
f 68 67 65
f 70 66 69
f 69 64 67
f 41 68 48
f 71 67 68
f 71 69 67
f 73 70 69
f 74 68 41
f 74 71 68
f 72 70 73
f 75 69 71
f 75 73 69
f 77 72 73
f 40 74 41
f 80 71 74
f 78 73 75
f 80 74 40
f 80 75 71
f 80 40 54
f 81 76 77
f 77 73 78
f 78 75 80
f 79 76 81
f 82 78 80
f 81 77 78
f 80 54 58
f 83 79 81
f 84 81 78
f 58 82 80
f 84 78 82
f 85 82 58
f 87 83 81
f 114 81 84
f 84 82 85
f 85 58 59
f 422 83 87
f 87 81 114
f 86 84 85
f 114 84 86
f 86 85 59
f 111 87 114
f 422 87 111
f 88 97 422
f 88 422 111
f 89 130 34
f 90 89 34
f 91 90 34
f 92 91 34
f 93 92 34
f 94 93 34
f 33 94 34
f 33 95 94
f 33 641 95
f 33 144 641
f 99 97 88
f 103 99 88
f 103 98 99
f 105 100 101
f 106 98 103
f 106 101 98
f 105 101 106
f 104 100 105
f 111 103 88
f 104 102 100
f 113 103 111
f 110 104 105
f 107 105 106
f 108 106 103
f 108 103 113
f 109 102 104
f 110 105 107
f 107 106 108
f 109 463 102
f 112 468 463
f 109 104 110
f 116 107 108
f 112 463 109
f 117 109 110
f 119 110 107
f 120 112 109
f 113 111 114
f 117 110 119
f 35 107 116
f 115 468 112
f 86 108 113
f 120 109 117
f 114 86 113
f 118 117 119
f 133 115 112
f 134 112 120
f 119 107 35
f 116 108 86
f 121 129 34
f 121 118 119
f 121 34 122
f 121 122 123
f 121 123 124
f 121 124 130
f 35 129 119
f 134 133 112
f 116 59 35
f 125 120 117
f 118 128 127
f 129 121 119
f 59 116 86
f 120 636 637
f 125 117 118
f 118 130 131
f 118 131 128
f 118 121 130
f 126 120 125
f 126 636 120
f 132 118 127
f 132 125 118
f 134 637 135
f 134 96 133
f 134 135 96
f 637 134 120
f 140 138 137
f 142 137 139
f 142 140 137
f 140 145 138
f 143 139 141
f 143 141 144
f 143 142 139
f 33 143 144
f 146 140 142
f 146 145 140
f 149 143 33
f 149 142 143
f 147 148 145
f 147 145 146
f 149 33 36
f 150 146 142
f 150 142 149
f 152 148 147
f 151 149 36
f 150 147 146
f 151 36 57
f 152 155 148
f 153 150 149
f 164 155 152
f 153 149 151
f 156 147 150
f 154 152 147
f 157 151 57
f 158 153 151
f 156 150 153
f 154 147 156
f 154 164 152
f 158 151 157
f 159 155 164
f 166 153 158
f 166 156 153
f 136 157 57
f 159 161 155
f 162 156 166
f 172 163 434
f 169 154 156
f 157 136 160
f 165 159 164
f 171 434 167
f 168 161 159
f 169 156 162
f 180 163 172
f 173 154 169
f 173 164 154
f 177 158 157
f 175 167 170
f 177 166 158
f 165 168 159
f 178 162 166
f 172 434 171
f 168 170 161
f 160 177 157
f 173 165 164
f 175 171 167
f 178 166 177
f 176 170 168
f 176 175 170
f 177 160 174
f 182 165 173
f 182 168 165
f 190 172 171
f 190 180 172
f 179 176 168
f 181 173 169
f 187 175 176
f 184 171 175
f 179 168 182
f 186 169 162
f 186 162 178
f 191 504 180
f 181 182 173
f 184 175 187
f 189 178 177
f 184 190 171
f 185 179 182
f 193 169 186
f 193 181 169
f 191 180 190
f 187 176 179
f 188 182 181
f 189 177 174
f 189 174 183
f 185 182 188
f 189 186 178
f 192 187 179
f 194 188 181
f 196 184 187
f 195 186 189
f 195 193 186
f 192 179 185
f 194 181 193
f 196 190 184
f 199 185 188
f 200 191 190
f 197 192 185
f 202 194 193
f 196 187 192
f 201 189 183
f 201 183 302
f 201 195 189
f 200 190 196
f 197 185 199
f 202 193 195
f 198 191 200
f 199 188 194
f 203 197 199
f 210 196 192
f 210 192 197
f 206 194 202
f 202 195 201
f 209 198 200
f 206 199 194
f 212 200 196
f 204 202 201
f 210 197 203
f 211 206 202
f 205 198 209
f 212 196 210
f 215 203 199
f 215 199 206
f 209 200 212
f 211 202 204
f 216 203 215
f 216 210 203
f 225 207 205
f 225 205 209
f 218 206 211
f 218 215 206
f 225 208 207
f 222 209 212
f 219 210 216
f 214 211 204
f 220 212 210
f 223 208 225
f 220 210 219
f 214 218 211
f 222 212 220
f 221 216 215
f 221 215 218
f 225 209 222
f 217 218 214
f 227 222 220
f 221 219 216
f 226 220 219
f 217 221 218
f 235 213 506
f 235 506 223
f 226 219 221
f 227 220 226
f 224 221 217
f 230 223 225
f 231 222 227
f 231 225 222
f 226 221 224
f 229 227 226
f 235 223 230
f 230 225 231
f 228 226 224
f 229 226 228
f 231 227 229
f 233 230 231
f 229 232 233
f 229 228 232
f 233 231 229
f 234 230 233
f 235 230 234
f 252 237 246
f 238 237 252
f 241 239 238
f 243 238 252
f 245 240 239
f 241 238 243
f 245 239 241
f 244 242 240
f 250 245 241
f 244 240 245
f 251 241 243
f 249 236 242
f 257 243 252
f 255 244 245
f 248 241 251
f 249 242 244
f 250 241 248
f 251 243 257
f 235 246 213
f 249 247 236
f 255 245 250
f 252 246 235
f 259 248 251
f 256 249 244
f 262 255 250
f 256 244 255
f 253 249 256
f 258 250 248
f 254 247 249
f 253 254 249
f 262 250 258
f 234 252 235
f 260 253 256
f 258 248 259
f 253 261 254
f 232 259 251
f 263 256 255
f 233 252 234
f 233 257 252
f 233 251 257
f 263 255 262
f 264 256 263
f 264 260 256
f 272 258 259
f 261 253 260
f 232 251 233
f 265 259 232
f 266 264 263
f 272 259 265
f 261 260 264
f 270 262 258
f 271 263 262
f 267 261 264
f 271 262 270
f 269 266 263
f 269 263 271
f 267 264 266
f 270 258 272
f 267 268 261
f 228 265 232
f 273 267 266
f 274 269 271
f 273 266 269
f 277 270 272
f 278 271 270
f 279 268 267
f 224 272 265
f 275 273 269
f 278 270 277
f 279 267 273
f 281 274 271
f 281 271 278
f 224 265 228
f 277 272 224
f 276 279 273
f 280 269 274
f 280 275 269
f 276 273 275
f 284 281 278
f 283 278 277
f 285 276 275
f 282 274 281
f 282 280 274
f 283 224 217
f 283 277 224
f 285 275 280
f 283 284 278
f 288 279 276
f 290 285 280
f 286 288 276
f 287 282 281
f 287 281 284
f 290 280 282
f 289 284 283
f 286 276 285
f 293 290 282
f 289 283 217
f 289 217 214
f 291 286 285
f 289 287 284
f 293 282 287
f 291 285 290
f 292 287 289
f 294 298 288
f 294 288 286
f 295 291 290
f 295 290 293
f 204 289 214
f 204 292 289
f 294 286 291
f 297 293 287
f 301 295 293
f 299 294 291
f 297 287 292
f 300 298 294
f 301 293 297
f 299 291 295
f 296 294 299
f 302 297 292
f 300 294 296
f 303 299 295
f 302 204 201
f 302 292 204
f 300 310 298
f 303 295 301
f 305 296 299
f 304 301 297
f 306 310 300
f 307 303 301
f 305 299 303
f 305 300 296
f 304 297 302
f 307 301 304
f 311 305 303
f 183 304 302
f 308 300 305
f 308 306 300
f 311 303 307
f 309 307 304
f 313 39 310
f 313 310 306
f 315 311 307
f 312 305 311
f 312 308 305
f 313 306 308
f 315 307 309
f 317 308 312
f 174 309 304
f 174 304 183
f 319 313 308
f 314 39 313
f 316 311 315
f 316 312 311
f 319 308 317
f 314 313 319
f 318 315 309
f 316 317 312
f 319 42 314
f 318 316 315
f 160 318 309
f 160 309 174
f 322 316 318
f 320 317 316
f 321 37 42
f 321 319 317
f 321 42 319
f 320 316 322
f 321 317 320
f 136 318 160
f 136 322 318
f 320 37 321
f 320 60 37
f 323 60 322
f 323 322 136
f 60 320 322
f 136 57 323
f 39 61 310
f 46 61 39
f 62 61 46
f 62 46 52
f 247 254 261
f 247 382 325
f 247 326 382
f 247 327 326
f 247 279 288
f 247 328 327
f 247 329 328
f 247 288 298
f 247 298 310
f 247 324 329
f 247 330 324
f 247 331 330
f 247 335 331
f 393 310 61
f 393 247 310
f 393 61 334
f 393 334 333
f 247 261 268
f 247 268 279
f 247 393 332
f 247 332 335
f 326 586 585
f 327 336 592
f 328 336 327
f 328 591 336
f 337 591 328
f 329 337 328
f 329 338 337
f 324 338 329
f 324 339 338
f 576 339 324
f 330 576 324
f 340 576 330
f 580 340 330
f 331 580 330
f 341 580 331
f 335 341 331
f 335 342 341
f 385 536 552
f 332 342 335
f 332 563 342
f 332 564 563
f 63 334 61
f 346 507 347
f 344 507 346
f 345 343 344
f 343 348 494
f 353 344 346
f 349 345 344
f 237 346 347
f 349 344 353
f 246 347 213
f 350 348 343
f 350 343 345
f 353 346 237
f 351 483 348
f 237 347 246
f 352 345 349
f 351 474 483
f 351 348 350
f 357 349 353
f 352 350 345
f 355 352 349
f 355 349 357
f 354 474 351
f 356 351 350
f 238 353 237
f 358 354 351
f 354 470 474
f 359 350 352
f 358 351 356
f 360 355 357
f 357 238 239
f 357 353 238
f 359 356 350
f 359 352 355
f 365 358 356
f 364 359 355
f 365 356 359
f 362 354 358
f 362 470 354
f 360 357 239
f 361 602 470
f 239 240 360
f 364 355 360
f 361 470 362
f 367 365 359
f 362 363 361
f 368 364 360
f 367 359 364
f 366 358 365
f 366 362 358
f 362 604 363
f 371 365 367
f 368 360 240
f 369 366 365
f 370 364 368
f 366 372 604
f 366 604 362
f 373 367 364
f 368 240 242
f 373 364 370
f 369 365 371
f 369 601 372
f 369 372 366
f 242 370 368
f 373 371 367
f 369 590 601
f 374 590 369
f 375 373 370
f 374 369 371
f 375 370 242
f 376 371 373
f 377 376 373
f 376 374 371
f 593 590 374
f 377 373 375
f 375 242 236
f 378 376 377
f 380 377 375
f 379 374 376
f 379 381 593
f 379 593 374
f 382 378 377
f 380 247 325
f 380 236 247
f 380 375 236
f 378 379 376
f 382 377 380
f 378 382 326
f 325 382 380
f 379 585 381
f 379 326 585
f 379 378 326
f 327 586 326
f 327 592 586
f 385 552 559
f 384 385 559
f 384 559 383
f 386 384 383
f 386 383 560
f 332 393 564
f 390 442 385
f 392 384 386
f 386 560 551
f 390 385 384
f 388 567 565
f 389 386 551
f 389 551 557
f 391 387 568
f 388 564 393
f 388 565 564
f 389 557 554
f 390 384 392
f 391 568 567
f 395 442 390
f 394 554 387
f 394 389 554
f 388 391 567
f 389 392 386
f 394 387 391
f 396 388 393
f 396 393 333
f 398 395 390
f 397 391 388
f 399 392 389
f 400 390 392
f 397 388 396
f 399 389 394
f 398 402 395
f 405 398 390
f 397 394 391
f 400 392 399
f 405 390 400
f 403 396 333
f 401 399 394
f 404 397 396
f 401 400 399
f 403 333 334
f 401 394 397
f 406 401 397
f 411 405 400
f 407 402 398
f 404 396 403
f 63 403 334
f 406 397 404
f 411 400 401
f 407 398 405
f 408 404 403
f 409 402 407
f 408 403 63
f 408 406 404
f 413 411 401
f 66 408 63
f 413 401 406
f 416 409 407
f 407 405 411
f 412 406 408
f 412 413 406
f 414 407 411
f 410 409 416
f 412 408 66
f 414 411 413
f 418 410 416
f 70 412 66
f 416 407 414
f 417 413 412
f 420 97 437
f 420 437 415
f 421 410 418
f 421 415 410
f 419 416 414
f 414 413 417
f 417 412 70
f 420 415 421
f 417 70 72
f 418 416 419
f 79 418 419
f 419 414 417
f 417 72 77
f 417 77 76
f 421 418 79
f 76 419 417
f 79 419 76
f 422 420 421
f 422 97 420
f 83 422 421
f 83 421 79
f 115 423 468
f 469 527 3
f 522 527 424
f 521 522 424
f 426 521 424
f 425 426 424
f 428 427 425
f 429 519 428
f 516 519 429
f 514 516 429
f 430 514 429
f 515 514 430
f 431 515 430
f 30 515 431
f 470 602 432
f 431 32 30
f 433 28 32
f 433 32 431
f 433 17 28
f 435 410 415
f 436 415 437
f 409 410 435
f 435 415 436
f 438 402 409
f 438 409 435
f 99 436 437
f 439 402 438
f 441 435 436
f 395 402 439
f 99 437 97
f 443 438 435
f 443 435 441
f 444 439 438
f 440 442 395
f 98 436 99
f 444 438 443
f 440 395 439
f 441 436 98
f 448 444 443
f 445 440 439
f 101 441 98
f 445 442 440
f 445 439 444
f 446 385 442
f 447 443 441
f 447 441 101
f 447 448 443
f 449 445 444
f 446 442 445
f 446 451 536
f 446 536 385
f 449 444 448
f 450 446 445
f 100 447 101
f 452 448 447
f 454 449 448
f 450 445 449
f 450 535 446
f 453 447 100
f 454 448 452
f 456 450 449
f 451 446 535
f 452 447 453
f 455 449 454
f 453 100 102
f 456 449 455
f 534 535 450
f 457 450 456
f 534 450 457
f 458 455 454
f 459 452 453
f 460 456 455
f 458 454 452
f 531 534 457
f 459 453 102
f 460 455 458
f 458 452 459
f 459 102 463
f 533 531 457
f 533 457 456
f 461 456 460
f 462 460 458
f 528 533 456
f 462 461 460
f 464 462 458
f 464 458 459
f 461 1 528
f 461 528 456
f 464 459 463
f 466 461 462
f 466 1 461
f 465 462 464
f 468 464 463
f 466 462 465
f 2 1 466
f 465 467 466
f 465 423 467
f 466 3 2
f 466 467 3
f 423 465 464
f 423 464 468
f 3 467 469
f 527 469 424
f 426 425 427
f 471 432 595
f 471 470 432
f 473 595 472
f 473 471 595
f 473 472 596
f 480 596 597
f 480 473 596
f 475 31 18
f 475 18 17
f 474 470 471
f 475 17 433
f 477 597 598
f 477 480 597
f 478 474 471
f 477 598 29
f 478 471 473
f 481 477 29
f 475 479 31
f 482 474 478
f 481 29 479
f 478 473 480
f 475 433 476
f 485 481 479
f 484 478 480
f 485 479 475
f 484 480 477
f 483 474 482
f 487 482 478
f 486 485 475
f 487 478 484
f 486 475 476
f 484 477 481
f 491 348 483
f 488 484 481
f 491 483 482
f 489 486 476
f 488 481 485
f 488 487 484
f 489 476 490
f 492 488 485
f 493 482 487
f 492 485 486
f 493 491 482
f 493 487 488
f 494 348 491
f 498 492 486
f 496 493 488
f 163 489 490
f 498 486 489
f 495 491 493
f 496 488 492
f 163 490 434
f 498 489 163
f 500 343 494
f 494 491 495
f 497 498 163
f 499 496 492
f 495 493 496
f 502 495 496
f 497 163 180
f 499 492 498
f 500 344 343
f 500 494 495
f 501 499 498
f 502 496 499
f 497 180 504
f 505 502 499
f 507 344 500
f 501 498 497
f 503 499 501
f 501 497 504
f 508 495 502
f 508 500 495
f 505 499 503
f 504 503 501
f 506 347 507
f 506 213 347
f 504 191 198
f 510 500 508
f 508 502 505
f 509 505 503
f 198 503 504
f 507 500 510
f 509 508 505
f 509 503 198
f 509 198 205
f 509 205 207
f 506 507 510
f 510 508 509
f 208 510 509
f 208 509 207
f 223 510 208
f 506 510 223
f 423 115 467
f 467 115 469
f 469 115 424
f 425 424 428
f 429 424 430
f 428 424 429
f 155 115 148
f 148 115 145
f 430 424 431
f 424 115 431
f 161 115 155
f 170 115 161
f 431 115 433
f 115 167 433
f 167 115 170
f 434 433 167
f 476 433 490
f 490 433 434
f 511 133 96
f 133 511 115
f 115 513 145
f 511 513 115
f 512 513 511
f 145 513 138
f 16 515 30
f 16 517 515
f 15 514 517
f 15 516 514
f 13 519 516
f 515 517 514
f 13 516 15
f 520 518 427
f 427 521 426
f 427 11 521
f 519 520 428
f 519 13 520
f 13 518 520
f 428 520 427
f 518 11 427
f 521 11 522
f 522 11 4
f 524 533 9
f 524 9 525
f 525 9 526
f 4 523 522
f 522 523 527
f 9 533 528
f 525 525 524
f 526 525 525
f 525 530 524
f 526 530 525
f 9 530 526
f 530 533 524
f 530 529 533
f 533 529 531
f 534 531 529
f 534 529 532
f 534 532 535
f 532 451 535
f 451 532 536
f 532 553 536
f 536 553 552
f 537 542 553
f 8 530 9
f 8 529 530
f 537 553 532
f 529 8 537
f 529 537 532
f 6 14 8
f 7 14 6
f 14 537 8
f 14 12 537
f 21 23 20
f 23 22 20
f 20 22 19
f 22 26 19
f 19 26 12
f 540 571 538
f 538 571 539
f 562 571 540
f 12 26 537
f 537 26 542
f 562 541 571
f 542 541 562
f 26 543 542
f 542 543 541
f 543 545 541
f 543 544 545
f 545 544 547
f 544 546 547
f 546 548 547
f 556 549 550
f 554 550 555
f 554 556 550
f 556 554 557
f 551 560 561
f 383 561 560
f 553 558 552
f 561 383 559
f 561 559 558
f 559 552 558
f 553 542 558
f 558 542 561
f 542 562 561
f 557 540 556
f 551 562 557
f 561 562 551
f 557 562 540
f 550 555 550
f 550 550 549
f 568 387 574
f 569 570 342
f 563 569 342
f 568 566 567
f 574 566 568
f 556 574 387
f 387 554 555
f 387 550 549
f 387 549 556
f 387 555 550
f 564 539 563
f 566 538 567
f 573 538 566
f 567 538 565
f 539 564 538
f 538 564 565
f 563 539 569
f 571 569 539
f 569 571 570
f 574 572 566
f 538 573 540
f 540 574 556
f 574 540 573
f 574 573 572
f 572 573 566
f 577 340 578
f 579 578 580
f 578 579 575
f 579 580 341
f 576 577 582
f 577 575 581
f 577 581 582
f 577 576 340
f 578 575 577
f 578 340 580
f 570 579 341
f 341 342 570
f 570 571 579
f 575 541 581
f 579 571 575
f 571 541 575
f 584 583 337
f 338 584 337
f 591 337 583
f 338 581 584
f 339 581 338
f 339 582 581
f 582 339 576
f 581 545 584
f 541 545 581
f 584 545 583
f 336 588 592
f 593 587 590
f 590 587 601
f 589 591 583
f 591 589 588
f 591 588 336
f 583 545 589
f 545 588 589
f 588 547 592
f 547 586 592
f 545 547 588
f 547 548 586
f 586 548 585
f 585 546 381
f 548 546 585
f 601 587 544
f 544 593 546
f 546 593 381
f 593 544 587
f 594 432 602
f 599 472 595
f 27 25 596
f 597 25 598
f 29 598 24
f 24 598 25
f 594 595 432
f 599 27 472
f 472 27 596
f 597 596 25
f 603 594 361
f 605 603 604
f 600 605 372
f 601 600 372
f 602 361 594
f 363 603 361
f 363 604 603
f 604 372 605
f 601 544 600
f 603 26 594
f 543 26 603
f 544 543 600
f 543 605 600
f 543 603 605
f 124 610 610
f 123 610 124
f 610 610 611
f 90 612 89
f 128 613 614
f 617 618 123
f 34 618 617
f 613 619 614
f 615 614 612
f 123 620 610
f 610 620 611
f 128 621 613
f 127 622 615
f 615 622 614
f 615 132 127
f 34 618 618
f 618 618 123
f 620 620 611
f 128 623 621
f 127 624 622
f 34 618 618
f 618 618 123
f 613 625 619
f 619 625 131
f 622 626 614
f 614 626 128
f 620 620 611
f 128 623 623
f 127 627 624
f 620 618 620
f 34 618 618
f 123 618 620
f 618 618 123
f 620 618 620
f 623 625 623
f 625 625 131
f 623 625 621
f 613 625 625
f 621 625 613
f 627 626 624
f 624 626 622
f 622 626 626
f 626 626 128
f 620 620 611
f 130 620 34
f 618 620 620
f 628 620 130
f 611 620 628
f 34 620 618
f 623 623 625
f 131 623 128
f 128 623 623
f 625 623 131
f 627 627 626
f 128 627 127
f 626 627 128
f 127 627 627
f 141 629 639
f 141 139 630
f 139 631 630
f 137 631 139
f 94 606 93
f 606 632 93
f 644 646 606
f 137 513 631
f 607 646 644
f 93 632 92
f 606 609 632
f 606 646 609
f 91 633 90
f 607 608 646
f 513 512 631
f 631 512 608
f 608 634 646
f 646 634 650
f 634 635 650
f 634 636 635
f 635 636 126
f 637 636 634
f 511 638 512
f 141 639 144
f 144 639 641
f 639 629 641
f 641 629 640
f 141 630 629
f 641 640 95
f 95 640 642
f 640 643 642
f 629 643 640
f 630 643 629
f 95 642 94
f 94 642 606
f 643 606 642
f 643 644 606
f 137 138 513
f 645 632 647
f 92 632 645
f 645 648 92
f 647 648 645
f 92 648 91
f 646 649 609
f 124 610 130
f 610 611 130
f 611 628 130
f 91 648 633
f 89 619 130
f 130 619 131
f 612 614 89
f 609 649 647
f 646 650 649
f 649 650 132
f 635 616 650
f 616 635 125
f 125 635 126
f 638 651 512
f 512 651 608
f 608 651 634
f 634 651 637
f 637 651 135
f 638 135 651
f 638 652 135
f 135 652 96
f 607 630 631
f 644 630 607
f 643 630 644
f 632 609 647
f 34 617 122
f 122 617 123
f 633 612 90
f 615 612 633
f 89 614 619
f 633 647 615
f 648 647 633
f 649 132 647
f 647 132 615
f 132 650 616
f 132 616 125
f 96 652 511
f 511 652 638
f 608 607 631
