# Full FreeCAD instance transform baked; body-local coordinates in mm
v -24.190000000 115.385000000 140.350000000
v -24.190000000 115.385000000 141.500000000
v -24.190000000 115.155000000 140.350000000
v -24.190000000 115.155000000 141.500000000
v -24.440000000 115.635000000 139.950000000
v -24.440000000 114.905000000 139.950000000
v -23.660000000 115.635000000 139.950000000
v -23.910000000 115.385000000 140.350000000
v -16.825000000 117.570000000 139.950000000
v -16.825000000 116.735000000 139.950000000
v -17.160000000 117.185000000 139.950000000
v -17.160000000 116.455000000 139.950000000
v -17.940000000 117.185000000 139.950000000
v -18.160000000 117.185000000 139.950000000
v -16.225000000 115.535000000 139.950000000
v -16.825000000 115.535000000 139.950000000
v -16.225000000 116.735000000 139.950000000
v -17.940000000 116.455000000 139.950000000
v -18.160000000 116.455000000 139.950000000
v -18.940000000 117.185000000 139.950000000
v -19.160000000 117.185000000 139.950000000
v -17.660000000 115.635000000 139.950000000
v -19.160000000 116.455000000 139.950000000
v -18.940000000 116.455000000 139.950000000
v -19.940000000 117.185000000 139.950000000
v -16.825000000 114.700000000 139.950000000
v -17.660000000 114.905000000 139.950000000
v -18.440000000 115.635000000 139.950000000
v -20.160000000 117.185000000 139.950000000
v -18.660000000 115.635000000 139.950000000
v -18.440000000 114.905000000 139.950000000
v -20.160000000 116.455000000 139.950000000
v -19.940000000 116.455000000 139.950000000
v -20.940000000 117.185000000 139.950000000
v -18.660000000 114.905000000 139.950000000
v -19.440000000 115.635000000 139.950000000
v -21.160000000 117.185000000 139.950000000
v -19.660000000 115.635000000 139.950000000
v -20.940000000 116.455000000 139.950000000
v -21.160000000 116.455000000 139.950000000
v -21.940000000 117.185000000 139.950000000
v -19.660000000 114.905000000 139.950000000
v -19.440000000 114.905000000 139.950000000
v -20.440000000 115.635000000 139.950000000
v -22.160000000 117.185000000 139.950000000
v -20.660000000 115.635000000 139.950000000
v -21.940000000 116.455000000 139.950000000
v -22.160000000 116.455000000 139.950000000
v -20.440000000 114.905000000 139.950000000
v -20.660000000 114.905000000 139.950000000
v -21.440000000 115.635000000 139.950000000
v -21.660000000 115.635000000 139.950000000
v -21.440000000 114.905000000 139.950000000
v -22.940000000 116.455000000 139.950000000
v -23.160000000 116.455000000 139.950000000
v -22.940000000 117.185000000 139.950000000
v -23.160000000 117.185000000 139.950000000
v -21.660000000 114.905000000 139.950000000
v -22.440000000 115.635000000 139.950000000
v -22.660000000 115.635000000 139.950000000
v -22.440000000 114.905000000 139.950000000
v -23.940000000 116.455000000 139.950000000
v -24.160000000 116.455000000 139.950000000
v -23.940000000 117.185000000 139.950000000
v -24.160000000 117.185000000 139.950000000
v -22.660000000 114.905000000 139.950000000
v -23.440000000 115.635000000 139.950000000
v -24.940000000 117.185000000 139.950000000
v -25.160000000 116.455000000 139.950000000
v -25.160000000 117.185000000 139.950000000
v -24.940000000 116.455000000 139.950000000
v -23.660000000 114.905000000 139.950000000
v -23.440000000 114.905000000 139.950000000
v -24.660000000 115.635000000 139.950000000
v -25.940000000 117.185000000 139.950000000
v -27.275000000 117.570000000 139.950000000
v -26.160000000 117.185000000 139.950000000
v -25.940000000 116.455000000 139.950000000
v -26.160000000 116.455000000 139.950000000
v -26.940000000 117.185000000 139.950000000
v -24.660000000 114.905000000 139.950000000
v -25.440000000 115.635000000 139.950000000
v -25.660000000 115.635000000 139.950000000
v -27.275000000 116.735000000 139.950000000
v -26.940000000 116.455000000 139.950000000
v -25.660000000 114.905000000 139.950000000
v -25.440000000 114.905000000 139.950000000
v -26.440000000 115.635000000 139.950000000
v -27.275000000 115.535000000 139.950000000
v -27.875000000 116.735000000 139.950000000
v -26.440000000 114.905000000 139.950000000
v -27.875000000 115.535000000 139.950000000
v -27.275000000 114.700000000 139.950000000
v -28.075000000 116.735000000 140.550000000
v -28.075000000 115.535000000 140.550000000
v -27.275000000 116.735000000 140.350000000
v -27.475000000 116.735000000 140.700000000
v -27.475000000 116.735000000 141.000000000
v -27.275000000 116.735000000 141.500000000
v -27.275000000 116.735000000 141.000000000
v -28.075000000 116.735000000 141.500000000
v -27.275000000 117.570000000 140.350000000
v -27.475000000 117.570000000 140.700000000
v -27.475000000 117.570000000 141.000000000
v -27.275000000 117.570000000 141.000000000
v -16.825000000 117.570000000 141.500000000
v -27.275000000 117.570000000 141.500000000
v -16.825000000 117.570000000 141.000000000
v -16.625000000 117.570000000 140.700000000
v -16.625000000 117.570000000 141.000000000
v -16.825000000 117.570000000 140.350000000
v -17.410000000 116.935000000 141.500000000
v -16.825000000 116.735000000 141.500000000
v -17.410000000 116.705000000 141.500000000
v -17.690000000 116.935000000 141.500000000
v -16.825000000 115.535000000 141.500000000
v -16.025000000 115.535000000 141.500000000
v -16.025000000 116.735000000 141.500000000
v -18.410000000 116.935000000 141.500000000
v -18.410000000 116.705000000 141.500000000
v -17.690000000 116.705000000 141.500000000
v -18.690000000 116.935000000 141.500000000
v -19.410000000 116.935000000 141.500000000
v -18.690000000 116.705000000 141.500000000
v -17.910000000 115.385000000 141.500000000
v -19.410000000 116.705000000 141.500000000
v -17.910000000 115.155000000 141.500000000
v -16.825000000 114.200000000 141.500000000
v -19.690000000 116.935000000 141.500000000
v -18.190000000 115.385000000 141.500000000
v -18.190000000 115.155000000 141.500000000
v -20.410000000 116.935000000 141.500000000
v -18.910000000 115.385000000 141.500000000
v -20.410000000 116.705000000 141.500000000
v -19.690000000 116.705000000 141.500000000
v -20.690000000 116.935000000 141.500000000
v -18.910000000 115.155000000 141.500000000
v -19.190000000 115.385000000 141.500000000
v -19.190000000 115.155000000 141.500000000
v -21.410000000 116.935000000 141.500000000
v -19.910000000 115.385000000 141.500000000
v -21.410000000 116.705000000 141.500000000
v -20.690000000 116.705000000 141.500000000
v -19.910000000 115.155000000 141.500000000
v -21.690000000 116.935000000 141.500000000
v -20.190000000 115.385000000 141.500000000
v -20.190000000 115.155000000 141.500000000
v -22.410000000 116.935000000 141.500000000
v -21.690000000 116.705000000 141.500000000
v -20.910000000 115.385000000 141.500000000
v -22.410000000 116.705000000 141.500000000
v -20.910000000 115.155000000 141.500000000
v -21.190000000 115.385000000 141.500000000
v -21.910000000 115.385000000 141.500000000
v -23.410000000 116.705000000 141.500000000
v -22.690000000 116.705000000 141.500000000
v -22.690000000 116.935000000 141.500000000
v -23.410000000 116.935000000 141.500000000
v -21.910000000 115.155000000 141.500000000
v -21.190000000 115.155000000 141.500000000
v -22.190000000 115.385000000 141.500000000
v -22.910000000 115.385000000 141.500000000
v -24.410000000 116.705000000 141.500000000
v -23.690000000 116.705000000 141.500000000
v -23.690000000 116.935000000 141.500000000
v -24.410000000 116.935000000 141.500000000
v -22.910000000 115.155000000 141.500000000
v -22.190000000 115.155000000 141.500000000
v -23.190000000 115.385000000 141.500000000
v -23.910000000 115.385000000 141.500000000
v -25.410000000 116.705000000 141.500000000
v -24.690000000 116.935000000 141.500000000
v -25.410000000 116.935000000 141.500000000
v -24.690000000 116.705000000 141.500000000
v -23.910000000 115.155000000 141.500000000
v -23.190000000 115.155000000 141.500000000
v -24.910000000 115.385000000 141.500000000
v -25.690000000 116.935000000 141.500000000
v -26.410000000 116.935000000 141.500000000
v -26.410000000 116.705000000 141.500000000
v -25.690000000 116.705000000 141.500000000
v -26.690000000 116.935000000 141.500000000
v -24.910000000 115.155000000 141.500000000
v -25.190000000 115.385000000 141.500000000
v -25.910000000 115.385000000 141.500000000
v -26.690000000 116.705000000 141.500000000
v -25.910000000 115.155000000 141.500000000
v -25.190000000 115.155000000 141.500000000
v -26.190000000 115.385000000 141.500000000
v -27.275000000 115.535000000 141.500000000
v -26.190000000 115.155000000 141.500000000
v -28.075000000 115.535000000 141.500000000
v -27.275000000 114.200000000 141.500000000
v -27.275000000 114.700000000 141.000000000
v -27.275000000 114.700000000 140.350000000
v -27.275000000 115.535000000 141.000000000
v -27.275000000 114.200000000 139.060000000
v -27.275000000 115.535000000 140.350000000
v -27.275000000 114.700000000 139.060000000
v -27.475000000 114.700000000 140.700000000
v -27.475000000 114.700000000 141.000000000
v -27.475000000 115.535000000 140.700000000
v -27.475000000 115.535000000 141.000000000
v -16.825000000 114.200000000 139.060000000
v -16.825000000 115.535000000 140.350000000
v -16.825000000 114.700000000 139.060000000
v -16.825000000 114.700000000 140.350000000
v -16.825000000 114.700000000 141.000000000
v -16.825000000 115.535000000 141.000000000
v -16.625000000 114.700000000 140.700000000
v -16.625000000 114.700000000 141.000000000
v -16.625000000 115.535000000 141.000000000
v -16.625000000 115.535000000 140.700000000
v -16.025000000 115.535000000 140.550000000
v -16.025000000 116.735000000 140.550000000
v -16.825000000 116.735000000 140.350000000
v -16.625000000 116.735000000 140.700000000
v -16.625000000 116.735000000 141.000000000
v -16.825000000 116.735000000 141.000000000
v -25.690000000 116.935000000 140.350000000
v -25.690000000 116.705000000 140.350000000
v -25.410000000 116.935000000 140.350000000
v -25.410000000 116.705000000 140.350000000
v -24.690000000 116.935000000 140.350000000
v -24.690000000 116.705000000 140.350000000
v -24.410000000 116.935000000 140.350000000
v -24.410000000 116.705000000 140.350000000
v -23.690000000 116.935000000 140.350000000
v -23.690000000 116.705000000 140.350000000
v -23.410000000 116.935000000 140.350000000
v -23.410000000 116.705000000 140.350000000
v -22.690000000 116.935000000 140.350000000
v -22.690000000 116.705000000 140.350000000
v -22.410000000 116.935000000 140.350000000
v -22.410000000 116.705000000 140.350000000
v -21.690000000 116.935000000 140.350000000
v -21.690000000 116.705000000 140.350000000
v -21.410000000 116.935000000 140.350000000
v -21.410000000 116.705000000 140.350000000
v -20.690000000 116.935000000 140.350000000
v -20.690000000 116.705000000 140.350000000
v -20.410000000 116.935000000 140.350000000
v -20.410000000 116.705000000 140.350000000
v -19.690000000 116.935000000 140.350000000
v -19.690000000 116.705000000 140.350000000
v -19.410000000 116.935000000 140.350000000
v -19.410000000 116.705000000 140.350000000
v -18.690000000 116.935000000 140.350000000
v -18.690000000 116.705000000 140.350000000
v -18.410000000 116.935000000 140.350000000
v -18.410000000 116.705000000 140.350000000
v -17.690000000 116.935000000 140.350000000
v -17.690000000 116.705000000 140.350000000
v -17.410000000 116.935000000 140.350000000
v -17.410000000 116.705000000 140.350000000
v -26.190000000 115.385000000 140.350000000
v -26.190000000 115.155000000 140.350000000
v -25.910000000 115.385000000 140.350000000
v -25.910000000 115.155000000 140.350000000
v -25.190000000 115.385000000 140.350000000
v -25.190000000 115.155000000 140.350000000
v -24.910000000 115.385000000 140.350000000
v -24.910000000 115.155000000 140.350000000
v -23.910000000 115.155000000 140.350000000
v -23.190000000 115.385000000 140.350000000
v -23.190000000 115.155000000 140.350000000
v -22.910000000 115.385000000 140.350000000
v -22.910000000 115.155000000 140.350000000
v -22.190000000 115.385000000 140.350000000
v -22.190000000 115.155000000 140.350000000
v -21.910000000 115.385000000 140.350000000
v -21.910000000 115.155000000 140.350000000
v -21.190000000 115.385000000 140.350000000
v -21.190000000 115.155000000 140.350000000
v -20.910000000 115.385000000 140.350000000
v -20.910000000 115.155000000 140.350000000
v -20.190000000 115.385000000 140.350000000
v -20.190000000 115.155000000 140.350000000
v -19.910000000 115.385000000 140.350000000
v -19.910000000 115.155000000 140.350000000
v -19.190000000 115.385000000 140.350000000
v -19.190000000 115.155000000 140.350000000
v -18.910000000 115.385000000 140.350000000
v -18.910000000 115.155000000 140.350000000
v -18.190000000 115.385000000 140.350000000
v -18.190000000 115.155000000 140.350000000
v -17.910000000 115.385000000 140.350000000
v -17.910000000 115.155000000 140.350000000
v -26.690000000 116.935000000 140.350000000
v -26.690000000 116.705000000 140.350000000
v -26.410000000 116.935000000 140.350000000
v -26.410000000 116.705000000 140.350000000
f 1 2 3
f 2 4 3
f 5 1 6
f 6 1 3
f 7 8 5
f 5 8 1
f 9 10 11
f 10 12 11
f 11 13 9
f 13 14 9
f 15 16 17
f 17 16 10
f 10 16 12
f 18 19 13
f 13 19 14
f 14 20 9
f 20 21 9
f 16 22 12
f 18 22 19
f 12 22 18
f 20 23 21
f 24 23 20
f 21 25 9
f 26 27 16
f 16 27 22
f 22 28 19
f 19 28 24
f 25 29 9
f 28 30 24
f 26 31 27
f 25 32 29
f 33 32 25
f 29 34 9
f 28 35 30
f 31 35 28
f 30 36 24
f 24 36 23
f 34 37 9
f 33 38 32
f 23 38 33
f 36 38 23
f 34 39 37
f 39 40 37
f 37 41 9
f 36 42 38
f 43 42 36
f 38 44 32
f 41 45 9
f 32 46 39
f 44 46 32
f 47 48 41
f 41 48 45
f 49 50 44
f 44 50 46
f 40 51 47
f 39 51 40
f 46 51 39
f 47 52 48
f 51 52 47
f 51 53 52
f 54 55 56
f 56 55 57
f 53 58 52
f 48 59 54
f 52 59 48
f 59 60 54
f 54 60 55
f 59 61 60
f 62 63 64
f 64 63 65
f 61 66 60
f 60 67 55
f 67 7 55
f 55 7 62
f 62 7 63
f 68 69 70
f 71 69 68
f 67 72 7
f 73 72 67
f 7 5 63
f 63 74 71
f 71 74 69
f 5 74 63
f 75 76 70
f 70 76 68
f 68 76 65
f 64 76 57
f 56 76 45
f 77 76 75
f 45 76 9
f 57 76 56
f 65 76 64
f 78 79 75
f 75 79 77
f 77 80 76
f 5 81 74
f 6 81 5
f 74 82 69
f 69 83 78
f 82 83 69
f 78 83 79
f 80 84 76
f 85 84 80
f 82 86 83
f 87 86 82
f 83 88 79
f 79 88 85
f 84 89 90
f 85 89 84
f 88 89 85
f 91 89 88
f 89 92 90
f 91 93 89
f 86 93 91
f 26 93 31
f 31 93 35
f 35 93 43
f 43 93 42
f 42 93 49
f 49 93 50
f 50 93 53
f 53 93 58
f 58 93 61
f 61 93 66
f 66 93 73
f 73 93 72
f 72 93 6
f 6 93 81
f 81 93 87
f 87 93 86
f 94 90 92
f 94 92 95
f 90 96 84
f 97 96 90
f 94 98 97
f 94 97 90
f 99 100 98
f 101 99 98
f 101 98 94
f 76 84 96
f 76 96 102
f 102 96 97
f 103 102 97
f 103 104 105
f 102 103 105
f 106 105 107
f 108 105 106
f 109 108 110
f 111 102 105
f 111 105 108
f 111 108 109
f 9 76 102
f 9 102 111
f 105 100 99
f 105 99 107
f 105 104 98
f 105 98 100
f 104 103 97
f 104 97 98
f 112 113 106
f 114 113 112
f 115 112 106
f 116 113 114
f 116 117 118
f 116 118 113
f 119 115 106
f 120 115 119
f 120 121 115
f 122 119 106
f 123 122 106
f 123 124 122
f 125 114 121
f 125 116 114
f 126 124 123
f 127 128 116
f 127 116 125
f 129 123 106
f 130 125 121
f 130 121 120
f 131 128 127
f 132 129 106
f 133 130 120
f 133 120 124
f 133 131 130
f 134 129 132
f 134 135 129
f 136 132 106
f 137 128 131
f 137 131 133
f 138 124 126
f 138 133 124
f 138 126 135
f 139 128 137
f 140 136 106
f 141 138 135
f 142 143 136
f 142 136 140
f 144 128 139
f 144 138 141
f 144 139 138
f 145 140 106
f 146 135 134
f 146 141 135
f 147 128 144
f 148 149 145
f 148 145 106
f 150 134 143
f 150 146 134
f 151 149 148
f 152 146 150
f 152 147 146
f 153 143 142
f 153 150 143
f 154 142 149
f 154 153 142
f 155 156 157
f 155 157 158
f 159 160 153
f 159 153 154
f 161 151 156
f 161 149 151
f 161 154 149
f 162 161 156
f 163 164 165
f 163 165 166
f 167 168 161
f 167 161 162
f 169 162 156
f 169 155 164
f 169 156 155
f 170 169 164
f 171 172 173
f 171 174 172
f 175 169 170
f 175 176 169
f 2 164 163
f 2 170 164
f 177 163 174
f 177 2 163
f 107 178 173
f 107 173 172
f 107 172 166
f 107 165 158
f 107 157 148
f 107 179 178
f 107 148 106
f 107 158 157
f 107 166 165
f 180 181 178
f 180 178 179
f 182 179 107
f 183 2 177
f 183 4 2
f 184 171 181
f 184 177 174
f 184 174 171
f 185 184 181
f 99 182 107
f 99 186 182
f 187 184 185
f 187 188 184
f 189 181 180
f 189 185 181
f 189 180 186
f 190 191 189
f 190 186 99
f 190 189 186
f 192 99 101
f 192 190 99
f 193 4 183
f 193 187 191
f 193 188 187
f 193 183 188
f 193 175 4
f 193 191 190
f 193 128 147
f 193 147 152
f 193 152 160
f 193 160 159
f 193 159 168
f 193 168 167
f 193 167 176
f 193 176 175
f 190 194 193
f 195 193 194
f 196 194 190
f 197 193 195
f 197 195 93
f 89 195 198
f 89 93 195
f 199 197 93
f 195 194 200
f 200 194 201
f 198 195 200
f 202 198 200
f 95 203 192
f 192 203 190
f 203 196 190
f 95 202 203
f 95 92 202
f 92 198 202
f 92 89 198
f 95 101 94
f 192 101 95
f 196 203 201
f 196 201 194
f 203 202 200
f 203 200 201
f 128 193 204
f 204 193 197
f 205 26 16
f 206 26 204
f 26 207 204
f 205 207 26
f 116 208 209
f 208 128 207
f 116 128 208
f 207 128 204
f 210 208 207
f 210 211 208
f 209 208 211
f 212 209 211
f 209 212 116
f 212 117 116
f 213 214 212
f 212 214 117
f 16 15 205
f 205 15 213
f 213 15 214
f 15 17 214
f 17 215 214
f 214 215 117
f 117 215 118
f 216 17 10
f 217 215 17
f 217 17 216
f 218 118 215
f 218 215 217
f 113 218 219
f 113 118 218
f 108 113 219
f 106 113 108
f 110 219 218
f 110 108 219
f 218 217 110
f 110 217 109
f 217 216 109
f 109 216 111
f 111 216 9
f 9 216 10
f 210 207 213
f 213 207 205
f 212 210 213
f 211 210 212
f 26 206 199
f 26 199 93
f 197 206 204
f 199 206 197
f 220 178 221
f 178 181 221
f 75 220 78
f 78 220 221
f 70 222 75
f 75 222 220
f 222 173 220
f 173 178 220
f 222 223 171
f 222 171 173
f 222 70 69
f 222 69 223
f 223 69 78
f 223 78 221
f 223 221 181
f 223 181 171
f 224 172 225
f 172 174 225
f 68 224 71
f 71 224 225
f 65 226 68
f 68 226 224
f 226 166 224
f 166 172 224
f 226 227 163
f 226 163 166
f 226 65 63
f 226 63 227
f 227 63 71
f 227 71 225
f 227 225 174
f 227 174 163
f 228 165 229
f 165 164 229
f 64 228 62
f 62 228 229
f 57 230 64
f 64 230 228
f 230 158 228
f 158 165 228
f 230 231 155
f 230 155 158
f 230 57 55
f 230 55 231
f 231 55 62
f 231 62 229
f 231 229 164
f 231 164 155
f 232 157 233
f 157 156 233
f 56 232 54
f 54 232 233
f 45 234 56
f 56 234 232
f 234 157 232
f 148 157 234
f 234 235 151
f 234 151 148
f 45 48 235
f 234 45 235
f 235 48 54
f 235 54 233
f 235 233 156
f 235 156 151
f 236 145 237
f 145 149 237
f 41 236 47
f 47 236 237
f 37 238 41
f 41 238 236
f 238 145 236
f 140 145 238
f 238 239 142
f 238 142 140
f 238 37 40
f 238 40 239
f 239 40 47
f 239 47 237
f 239 237 149
f 239 149 142
f 240 136 241
f 136 143 241
f 34 240 39
f 39 240 241
f 34 29 240
f 29 242 240
f 242 132 240
f 132 136 240
f 242 243 134
f 242 134 132
f 29 32 243
f 242 29 243
f 32 39 241
f 243 32 241
f 243 241 143
f 243 143 134
f 244 129 245
f 129 135 245
f 25 244 33
f 33 244 245
f 21 246 25
f 25 246 244
f 246 123 244
f 123 129 244
f 246 247 126
f 246 126 123
f 21 23 247
f 246 21 247
f 247 23 33
f 247 33 245
f 247 245 135
f 247 135 126
f 248 122 249
f 122 124 249
f 20 248 24
f 24 248 249
f 14 250 20
f 20 250 248
f 250 119 248
f 119 122 248
f 250 251 120
f 250 120 119
f 250 14 19
f 250 19 251
f 251 19 24
f 251 24 249
f 251 249 124
f 251 124 120
f 252 115 253
f 115 121 253
f 13 252 18
f 18 252 253
f 13 11 252
f 11 254 252
f 254 112 252
f 112 115 252
f 254 255 114
f 254 114 112
f 11 12 255
f 254 11 255
f 12 18 253
f 255 12 253
f 255 253 121
f 255 121 114
f 256 189 257
f 189 191 257
f 88 256 91
f 91 256 257
f 83 258 88
f 88 258 256
f 258 185 256
f 185 189 256
f 258 259 187
f 258 187 185
f 83 86 259
f 258 83 259
f 259 86 91
f 259 91 257
f 259 257 191
f 259 191 187
f 260 184 261
f 184 188 261
f 82 260 87
f 87 260 261
f 74 262 82
f 82 262 260
f 262 177 260
f 177 184 260
f 262 263 183
f 262 183 177
f 74 81 263
f 262 74 263
f 263 81 87
f 263 87 261
f 263 261 188
f 263 188 183
f 264 3 4
f 264 4 175
f 264 72 6
f 264 6 3
f 7 72 264
f 8 7 264
f 8 264 175
f 8 175 170
f 8 170 1
f 170 2 1
f 265 176 266
f 169 176 265
f 67 265 73
f 73 265 266
f 60 267 67
f 67 267 265
f 267 162 265
f 162 169 265
f 267 268 167
f 267 167 162
f 60 66 268
f 267 60 268
f 268 66 73
f 268 73 266
f 266 176 167
f 268 266 167
f 269 161 270
f 161 168 270
f 59 269 61
f 61 269 270
f 52 271 59
f 59 271 269
f 271 161 269
f 154 161 271
f 271 272 159
f 271 159 154
f 271 52 58
f 271 58 272
f 272 58 61
f 272 61 270
f 272 270 168
f 272 168 159
f 273 153 274
f 153 160 274
f 51 273 53
f 53 273 274
f 51 46 273
f 46 275 273
f 275 150 273
f 150 153 273
f 276 152 150
f 275 276 150
f 275 46 50
f 275 50 276
f 50 53 274
f 276 50 274
f 276 274 160
f 276 160 152
f 277 146 278
f 146 147 278
f 44 277 49
f 49 277 278
f 38 279 44
f 44 279 277
f 279 141 277
f 141 146 277
f 279 280 144
f 279 144 141
f 279 38 42
f 279 42 280
f 280 42 49
f 280 49 278
f 280 278 147
f 280 147 144
f 281 138 282
f 138 139 282
f 36 281 43
f 43 281 282
f 30 283 36
f 36 283 281
f 283 133 281
f 133 138 281
f 283 284 137
f 283 137 133
f 30 35 284
f 283 30 284
f 284 35 43
f 284 43 282
f 284 282 139
f 284 139 137
f 285 130 286
f 130 131 286
f 28 285 31
f 31 285 286
f 22 287 28
f 28 287 285
f 287 125 285
f 125 130 285
f 287 288 127
f 287 127 125
f 287 22 27
f 287 27 288
f 288 27 31
f 288 31 286
f 286 131 127
f 288 286 127
f 289 182 290
f 182 186 290
f 80 289 85
f 85 289 290
f 77 291 80
f 80 291 289
f 291 179 289
f 179 182 289
f 291 292 180
f 291 180 179
f 77 79 292
f 291 77 292
f 292 79 85
f 292 85 290
f 292 290 186
f 292 186 180
