# Full FreeCAD instance transform baked; body-local coordinates in mm
v 15.410398390 110.704992795 141.100000000
v 15.410398391 110.464992795 141.100000000
v 15.410398390 110.704992795 140.500000000
v 15.410398391 110.464992795 140.500000000
v 15.410398409 107.064992795 140.500000000
v 15.410398391 110.464992795 140.300000000
v 15.410398409 107.064992795 140.300000000
v 15.410398409 107.064992795 141.100000000
v 15.410398411 106.824992795 141.100000000
v 15.410398411 106.824992795 140.500000000
v 15.410398391 110.464992795 141.550000000
v 15.410398409 107.064992795 141.550000000
v 17.110398409 107.064992804 141.550000000
v 17.110398409 107.064992804 141.100000000
v 17.110398386 111.464992804 140.050000000
v 17.110398390 110.704992804 140.500000000
v 17.110398389 110.914992804 140.050000000
v 17.110398391 110.464992804 140.300000000
v 17.110398389 110.864992804 140.000000000
v 17.110398391 110.464992804 140.500000000
v 17.110398390 110.704992804 141.100000000
v 17.110398386 111.464992804 142.000000000
v 17.110398391 110.464992804 141.550000000
v 17.110398391 110.464992804 141.100000000
v 17.110398409 107.064992804 140.300000000
v 17.110398409 107.064992804 140.500000000
v 17.110398411 106.824992804 140.500000000
v 17.110398415 106.064992804 140.000000000
v 17.110398411 106.824992804 141.100000000
v 17.110398415 106.064992804 142.000000000
v 16.310398389 110.864992800 140.000000000
v 15.360398388 110.964992795 140.000000000
v 16.310398386 111.464992800 140.000000000
v 15.360398386 111.464992795 140.000000000
v 14.710398390 110.664992791 140.000000000
v 14.710398388 110.964992791 140.000000000
v 15.360398412 106.564992795 140.000000000
v 14.710398411 106.864992791 140.000000000
v 15.360398415 106.064992795 140.000000000
v 14.710398412 106.564992791 140.000000000
v 14.410398411 106.864992790 140.000000000
v 14.410398390 110.664992790 140.000000000
v 15.360398387 111.164992795 140.050000000
v 15.360398388 110.964992795 140.050000000
v 15.360398386 111.464992795 140.750000000
v 15.360398387 111.164992795 140.750000000
v 14.710398388 110.964992791 140.050000000
v 14.360398388 110.964992790 140.050000000
v 14.360398387 111.164992790 140.050000000
v 14.710398388 110.964992791 141.050000000
v 14.360398388 110.964992790 141.050000000
v 14.710398387 111.164992791 141.050000000
v 14.710398386 111.464992791 140.750000000
v 14.710398387 111.164992791 140.750000000
v 14.710398390 110.664992791 141.570000000
v 14.710398386 111.464992791 141.570000000
v 14.360398387 111.164992790 141.050000000
v 14.810398386 111.464992792 141.570000000
v 14.810398386 111.464992792 142.000000000
v 16.310398386 111.464992800 140.050000000
v 16.310398389 110.914992800 140.050000000
v 14.810398415 106.064992792 142.000000000
v 14.810398415 106.064992792 141.570000000
v 15.360398415 106.064992795 140.750000000
v 14.710398415 106.064992791 141.570000000
v 14.710398415 106.064992791 140.750000000
v 14.710398412 106.564992791 140.050000000
v 14.710398413 106.364992791 141.050000000
v 14.710398413 106.364992791 140.750000000
v 14.710398412 106.564992791 141.050000000
v 14.710398411 106.864992791 141.570000000
v 15.360398413 106.364992795 140.050000000
v 15.360398413 106.364992795 140.750000000
v 14.360398413 106.364992790 141.050000000
v 14.360398413 106.364992790 140.050000000
v 15.360398412 106.564992795 140.050000000
v 14.360398412 106.564992790 140.050000000
v 14.360398412 106.564992790 141.050000000
v 14.410398411 106.864992790 141.570000000
v 14.410398390 110.664992790 141.570000000
v 14.440398408 107.389992790 141.570000000
v 14.760398408 107.389992792 141.570000000
v 14.440398406 107.739992790 141.570000000
v 14.440398403 108.189992790 141.570000000
v 14.760398406 107.739992792 141.570000000
v 14.760398403 108.189992792 141.570000000
v 14.440398401 108.539992790 141.570000000
v 14.760398401 108.539992792 141.570000000
v 14.760398399 108.989992792 141.570000000
v 14.440398399 108.989992790 141.570000000
v 14.760398397 109.339992792 141.570000000
v 14.760398395 109.789992792 141.570000000
v 14.440398397 109.339992790 141.570000000
v 14.440398395 109.789992790 141.570000000
v 14.440398393 110.139992790 141.570000000
v 14.760398393 110.139992792 141.570000000
v 14.360398408 107.389992790 141.650000000
v 14.360398406 107.739992790 141.650000000
v 14.560398408 107.389992791 142.000000000
v 14.360398408 107.389992790 141.800000000
v 14.560398408 107.389992791 141.800000000
v 14.760398408 107.389992792 141.684529946
v 13.860398408 107.389992787 142.000000000
v 13.860398408 107.389992787 141.800000000
v 14.560398406 107.739992791 142.000000000
v 13.860398406 107.739992787 142.000000000
v 14.560398403 108.189992791 142.000000000
v 14.560398401 108.539992791 142.000000000
v 13.860398403 108.189992787 142.000000000
v 13.860398401 108.539992787 142.000000000
v 14.560398399 108.989992791 142.000000000
v 14.560398397 109.339992791 142.000000000
v 13.860398399 108.989992787 142.000000000
v 13.860398397 109.339992787 142.000000000
v 14.560398395 109.789992791 142.000000000
v 14.560398393 110.139992791 142.000000000
v 13.860398395 109.789992787 142.000000000
v 13.860398393 110.139992787 142.000000000
v 14.360398406 107.739992790 141.800000000
v 14.560398406 107.739992791 141.800000000
v 14.760398406 107.739992792 141.684529946
v 13.860398406 107.739992787 141.800000000
v 14.360398401 108.539992790 141.800000000
v 14.360398403 108.189992790 141.800000000
v 13.860398403 108.189992787 141.800000000
v 13.860398401 108.539992787 141.800000000
v 14.360398397 109.339992790 141.800000000
v 14.360398399 108.989992790 141.800000000
v 13.860398399 108.989992787 141.800000000
v 13.860398397 109.339992787 141.800000000
v 14.360398393 110.139992790 141.800000000
v 14.360398395 109.789992790 141.800000000
v 13.860398395 109.789992787 141.800000000
v 13.860398393 110.139992787 141.800000000
v 14.360398403 108.189992790 141.650000000
v 14.360398401 108.539992790 141.650000000
v 14.560398403 108.189992791 141.800000000
v 14.760398403 108.189992792 141.684529946
v 14.560398401 108.539992791 141.800000000
v 14.760398401 108.539992792 141.684529946
v 14.360398399 108.989992790 141.650000000
v 14.360398397 109.339992790 141.650000000
v 14.560398399 108.989992791 141.800000000
v 14.760398399 108.989992792 141.684529946
v 14.560398397 109.339992791 141.800000000
v 14.760398397 109.339992792 141.684529946
v 14.360398395 109.789992790 141.650000000
v 14.360398393 110.139992790 141.650000000
v 14.560398395 109.789992791 141.800000000
v 14.760398395 109.789992792 141.684529946
v 14.560398393 110.139992791 141.800000000
v 14.760398393 110.139992792 141.684529946
f 1 2 3
f 3 2 4
f 4 5 6
f 6 5 7
f 2 8 4
f 4 8 5
f 5 9 10
f 8 9 5
f 11 12 2
f 2 12 8
f 13 14 12
f 12 14 8
f 15 16 17
f 17 18 19
f 16 18 17
f 16 20 18
f 15 21 16
f 15 22 21
f 21 23 24
f 22 23 21
f 18 25 19
f 26 27 25
f 27 28 25
f 25 28 19
f 27 29 28
f 14 13 29
f 13 30 29
f 29 30 28
f 22 30 23
f 23 30 13
f 31 32 33
f 33 32 34
f 32 35 36
f 31 35 32
f 28 37 19
f 19 37 31
f 31 38 35
f 37 38 31
f 28 39 37
f 37 40 38
f 35 41 42
f 38 41 35
f 32 43 34
f 44 43 32
f 45 34 43
f 46 45 43
f 47 48 49
f 43 44 47
f 43 47 49
f 47 50 51
f 47 51 48
f 35 47 36
f 52 53 54
f 35 55 50
f 50 56 52
f 52 56 53
f 55 56 50
f 50 47 35
f 52 54 57
f 54 49 57
f 46 43 54
f 54 43 49
f 51 52 57
f 51 50 52
f 51 57 49
f 51 49 48
f 45 46 54
f 45 54 53
f 58 59 22
f 60 22 15
f 45 58 22
f 45 22 60
f 53 56 58
f 53 58 45
f 34 60 33
f 34 45 60
f 33 61 31
f 60 61 33
f 17 19 61
f 61 19 31
f 17 61 15
f 15 61 60
f 30 22 62
f 62 22 59
f 62 63 30
f 30 64 28
f 63 64 30
f 65 66 63
f 63 66 64
f 64 39 28
f 67 38 40
f 66 68 69
f 68 65 70
f 66 65 68
f 65 71 70
f 70 71 38
f 67 70 38
f 69 72 73
f 68 74 69
f 69 75 72
f 74 75 69
f 73 66 69
f 64 66 73
f 72 37 39
f 72 76 37
f 39 64 72
f 64 73 72
f 72 67 76
f 67 75 77
f 72 75 67
f 77 78 70
f 77 70 67
f 68 70 74
f 74 70 78
f 74 78 75
f 75 78 77
f 37 76 67
f 37 67 40
f 79 41 71
f 71 41 38
f 79 80 41
f 41 80 42
f 63 71 65
f 71 81 79
f 71 82 81
f 63 82 71
f 81 83 79
f 83 84 79
f 85 86 83
f 83 86 84
f 84 87 79
f 88 89 87
f 87 89 90
f 91 92 93
f 93 92 94
f 93 80 90
f 95 80 94
f 90 80 87
f 87 80 79
f 94 80 93
f 96 55 95
f 95 55 80
f 55 58 56
f 96 58 55
f 63 58 82
f 82 58 85
f 85 58 86
f 86 58 88
f 88 58 89
f 89 58 91
f 91 58 92
f 92 58 96
f 62 59 63
f 63 59 58
f 55 35 80
f 80 35 42
f 83 97 98
f 83 81 97
f 99 100 101
f 100 97 101
f 101 81 102
f 102 81 82
f 97 81 101
f 99 103 100
f 103 104 100
f 99 105 103
f 103 105 106
f 107 108 109
f 109 108 110
f 111 112 113
f 113 112 114
f 115 116 117
f 117 116 118
f 119 105 120
f 83 120 121
f 83 121 85
f 98 119 120
f 98 120 83
f 106 105 119
f 122 106 119
f 122 104 103
f 122 103 106
f 119 100 104
f 119 104 122
f 123 124 125
f 123 125 126
f 127 128 129
f 127 129 130
f 131 132 133
f 131 133 134
f 100 119 97
f 97 119 98
f 124 123 135
f 135 123 136
f 107 124 137
f 124 135 137
f 137 84 138
f 138 84 86
f 135 84 137
f 107 109 124
f 109 125 124
f 108 107 139
f 139 107 137
f 123 108 139
f 87 139 140
f 87 140 88
f 136 123 139
f 136 139 87
f 110 108 123
f 126 110 123
f 126 125 109
f 126 109 110
f 87 135 136
f 87 84 135
f 140 138 88
f 88 138 86
f 139 137 140
f 140 137 138
f 128 127 141
f 141 127 142
f 111 128 143
f 128 141 143
f 143 90 144
f 144 90 89
f 141 90 143
f 111 113 128
f 113 129 128
f 112 111 145
f 145 111 143
f 127 112 145
f 93 145 146
f 93 146 91
f 142 127 145
f 142 145 93
f 114 112 127
f 130 114 127
f 130 129 113
f 130 113 114
f 93 141 142
f 93 90 141
f 146 144 91
f 91 144 89
f 145 143 146
f 146 143 144
f 132 131 147
f 147 131 148
f 115 132 149
f 132 147 149
f 149 94 150
f 150 94 92
f 147 94 149
f 115 117 132
f 117 133 132
f 116 115 151
f 151 115 149
f 131 116 151
f 95 151 152
f 95 152 96
f 148 131 151
f 148 151 95
f 118 116 131
f 134 118 131
f 134 133 117
f 134 117 118
f 95 147 148
f 95 94 147
f 152 150 96
f 96 150 92
f 151 149 152
f 152 149 150
f 121 102 85
f 85 102 82
f 120 101 121
f 121 101 102
f 105 99 120
f 120 99 101
f 36 44 32
f 36 47 44
f 11 2 23
f 23 2 24
f 13 12 23
f 23 12 11
f 21 2 1
f 24 2 21
f 1 3 21
f 21 3 16
f 20 16 4
f 4 16 3
f 20 6 18
f 4 6 20
f 25 18 7
f 7 18 6
f 5 25 7
f 26 25 5
f 27 26 10
f 10 26 5
f 29 27 9
f 9 27 10
f 14 9 8
f 29 9 14
