# Full FreeCAD instance transform baked; body-local coordinates in mm
v -62.990956545 151.473484168 125.762669919
v -63.526124434 150.938316279 125.988932055
v -63.180514842 151.283925872 125.487825261
v -62.811321159 151.653119554 126.050535405
v -63.353798710 151.110642003 126.238790836
v -63.707042557 150.757398156 125.751531579
v -63.379524777 151.084915936 125.226684737
v -62.642055286 151.822385427 126.350706040
v -63.190493814 151.273946900 126.500486732
v -63.896103288 150.568337425 125.527179623
v -63.587491582 150.876949132 124.979897585
v -62.483579747 151.980860966 126.662435553
v -63.036615747 151.427824966 126.773369128
v -64.092836593 150.371604120 125.316433960
v -63.803898217 150.660542497 124.748077356
v -62.336288537 152.128152176 126.984948934
v -62.892547075 151.571893638 127.056759594
v -64.296753361 150.167687353 125.119818538
v -64.028206661 150.436234052 124.531800392
v -62.200547846 152.263892867 127.317444365
v -62.758645976 151.705794738 127.349953576
v -64.507346623 149.957094091 124.937822174
v -64.259859249 150.204581464 124.331604391
v -62.635245347 151.829195366 127.652222150
v -62.076695146 152.387745567 127.659095209
v -64.724092810 149.740347903 124.770897338
v -64.498280056 149.966160658 124.147987072
v -62.522651984 151.941788730 127.962813826
v -61.965038355 152.499402358 128.009052069
v -64.946453059 149.517987654 124.619459034
v -64.742876329 149.721564384 123.981404937
v -61.865855069 152.598585644 128.366444896
v -62.421145810 152.043294903 128.280956426
v -65.173874546 149.290566167 124.483883759
v -64.993039965 149.471400748 123.832272135
v -61.779391873 152.685048841 128.730385157
v -62.330979186 152.133461527 128.605858997
v -65.405791866 149.058648847 124.364508577
v -65.248149017 149.216291697 123.700959435
v -61.705863728 152.758576985 129.099968038
v -62.252376280 152.212064433 128.936713779
v -65.641628435 148.822812278 124.261630271
v -65.507569243 148.956871470 123.587793298
v -61.645453437 152.818987276 129.474274697
v -62.185532513 152.278908201 129.272698216
v -65.880797927 148.583642786 124.175504615
v -65.770655684 148.693785029 123.493055076
v -61.598311190 152.866129523 129.852374550
v -62.130614066 152.333826647 129.612976998
v -66.122705729 148.341734984 124.106345729
v -66.036754266 148.427686447 123.416980302
v -61.564554189 152.899886524 130.233327581
v -62.087757478 152.376683235 129.956704137
v -66.366750419 148.097690294 124.054325554
v -66.305203426 148.159237288 123.359758109
v -61.544266360 152.920174353 130.616186680
v -62.057069295 152.407371418 130.303025074
v -66.612325265 147.852115448 124.019573420
v -66.575335756 147.889104957 123.321530762
v -61.537498142 152.926942572 131.000000000
v -62.038625814 152.425814899 130.651078800
v -66.858819728 147.605620985 124.002175726
v -66.846479666 147.617961048 123.302393299
v -61.544266360 152.920174353 131.383813320
v -62.032472888 152.431967825 131.000000000
v -67.105620985 147.358819728 124.002175726
v -67.117961048 147.346479666 123.302393299
v -61.564554189 152.899886524 131.766672419
v -62.038625814 152.425814899 131.348921200
v -67.352115448 147.112325265 124.019573420
v -67.389104957 147.075335756 123.321530762
v -61.598311190 152.866129523 132.147625450
v -62.057069295 152.407371418 131.696974926
v -67.597690294 146.866750419 124.054325554
v -67.659237288 146.805203426 123.359758109
v -61.645453437 152.818987276 132.525725303
v -62.087757478 152.376683235 132.043295863
v -67.841734984 146.622705729 124.106345729
v -67.927686447 146.536754266 123.416980302
v -61.705863728 152.758576985 132.900031962
v -62.130614066 152.333826647 132.387023002
v -68.083642786 146.380797927 124.175504615
v -68.193785029 146.270655684 123.493055076
v -62.185532513 152.278908201 132.727301784
v -61.779391873 152.685048841 133.269614843
v -68.322812278 146.141628435 124.261630271
v -68.456871470 146.007569243 123.587793298
v -62.252376280 152.212064433 133.063286221
v -61.865855069 152.598585644 133.633555104
v -68.558648847 145.905791866 124.364508577
v -68.716291697 145.748149017 123.700959435
v -62.330979186 152.133461527 133.394141003
v -61.965038355 152.499402358 133.990947931
v -68.790566167 145.673874546 124.483883759
v -68.971400748 145.493039965 123.832272135
v -62.421145810 152.043294903 133.719043574
v -62.076695146 152.387745567 134.340904791
v -69.017987654 145.446453059 124.619459034
v -69.221564384 145.242876329 123.981404937
v -62.522651984 151.941788730 134.037186174
v -62.200547846 152.263892867 134.682555635
v -69.240347903 145.224092810 124.770897338
v -69.466160658 144.998280056 124.147987072
v -62.635245347 151.829195366 134.347777850
v -69.457094091 145.007346623 124.937822174
v -69.704581464 144.759859249 124.331604391
v -62.336288537 152.128152176 135.015051066
v -62.758645976 151.705794738 134.650046424
v -69.667687353 144.796753361 125.119818538
v -69.936234052 144.528206661 124.531800392
v -62.483579747 151.980860966 135.337564447
v -62.892547075 151.571893638 134.943240406
v -69.871604120 144.592836593 125.316433960
v -70.160542497 144.303898217 124.748077356
v -62.642055286 151.822385427 135.649293960
v -63.036615747 151.427824966 135.226630872
v -70.068337425 144.396103288 125.527179623
v -70.376949132 144.087491582 124.979897585
v -62.811321159 151.653119554 135.949464595
v -63.190493814 151.273946900 135.499513268
v -70.257398156 144.207042557 125.751531579
v -70.584915936 143.879524777 125.226684737
v -62.990956545 151.473484168 136.237330081
v -63.353798710 151.110642003 135.761209164
v -70.438316279 144.026124434 125.988932055
v -70.783925872 143.680514842 125.487825261
v -63.180514842 151.283925872 136.512174739
v -63.526124434 150.938316279 136.011067945
v -70.610642003 143.853798710 126.238790836
v -70.973484168 143.490956545 125.762669919
v -63.379524777 151.084915936 136.773315263
v -63.707042557 150.757398156 136.248468421
v -70.773946900 143.690493814 126.500486732
v -71.153119554 143.311321159 126.050535405
v -63.587491582 150.876949132 137.020102415
v -63.896103288 150.568337425 136.472820377
v -70.927824966 143.536615747 126.773369128
v -71.322385427 143.142055286 126.350706040
v -63.803898217 150.660542497 137.251922644
v -64.092836593 150.371604120 136.683566040
v -71.071893638 143.392547075 127.056759594
v -71.480860966 142.983579747 126.662435553
v -64.028206661 150.436234052 137.468199608
v -64.296753361 150.167687353 136.880181462
v -71.205794738 143.258645976 127.349953576
v -71.628152176 142.836288537 126.984948934
v -71.329195366 143.135245347 127.652222150
v -64.259859249 150.204581464 137.668395609
v -64.507346623 149.957094091 137.062177826
v -71.763892867 142.700547846 127.317444365
v -71.441788730 143.022651984 127.962813826
v -64.498280056 149.966160658 137.852012928
v -64.724092810 149.740347903 137.229102662
v -71.887745567 142.576695146 127.659095209
v -71.543294903 142.921145810 128.280956426
v -64.742876329 149.721564384 138.018595063
v -64.946453059 149.517987654 137.380540966
v -71.999402358 142.465038355 128.009052069
v -71.633461527 142.830979186 128.605858997
v -64.993039965 149.471400748 138.167727865
v -65.173874546 149.290566167 137.516116241
v -72.098585644 142.365855069 128.366444896
v -71.712064433 142.752376280 128.936713779
v -65.248149017 149.216291697 138.299040565
v -65.405791866 149.058648847 137.635491423
v -72.185048841 142.279391873 128.730385157
v -71.778908201 142.685532513 129.272698216
v -65.507569243 148.956871470 138.412206702
v -65.641628435 148.822812278 137.738369729
v -72.258576985 142.205863728 129.099968038
v -71.833826647 142.630614066 129.612976998
v -65.770655684 148.693785029 138.506944924
v -65.880797927 148.583642786 137.824495385
v -72.318987276 142.145453437 129.474274697
v -66.036754266 148.427686447 138.583019698
v -66.122705729 148.341734984 137.893654271
v -72.366129523 142.098311190 129.852374550
v -71.907371418 142.557069295 130.303025074
v -71.876683235 142.587757478 129.956704137
v -66.305203426 148.159237288 138.640241891
v -66.366750419 148.097690294 137.945674446
v -72.399886524 142.064554189 130.233327581
v -71.925814899 142.538625814 130.651078800
v -66.575335756 147.889104957 138.678469238
v -66.612325265 147.852115448 137.980426580
v -72.420174353 142.044266360 130.616186680
v -71.931967825 142.532472888 131.000000000
v -66.846479666 147.617961048 138.697606701
v -66.858819728 147.605620985 137.997824274
v -72.426942572 142.037498142 131.000000000
v -71.925814899 142.538625814 131.348921200
v -67.117961048 147.346479666 138.697606701
v -67.105620985 147.358819728 137.997824274
v -72.420174353 142.044266360 131.383813320
v -71.907371418 142.557069295 131.696974926
v -67.389104957 147.075335756 138.678469238
v -67.352115448 147.112325265 137.980426580
v -72.399886524 142.064554189 131.766672419
v -71.876683235 142.587757478 132.043295863
v -67.659237288 146.805203426 138.640241891
v -67.597690294 146.866750419 137.945674446
v -72.366129523 142.098311190 132.147625450
v -71.833826647 142.630614066 132.387023002
v -67.927686447 146.536754266 138.583019698
v -67.841734984 146.622705729 137.893654271
v -72.318987276 142.145453437 132.525725303
v -71.778908201 142.685532513 132.727301784
v -68.193785029 146.270655684 138.506944924
v -68.083642786 146.380797927 137.824495385
v -72.258576985 142.205863728 132.900031962
v -71.712064433 142.752376280 133.063286221
v -68.456871470 146.007569243 138.412206702
v -68.322812278 146.141628435 137.738369729
v -71.633461527 142.830979186 133.394141003
v -72.185048841 142.279391873 133.269614843
v -68.716291697 145.748149017 138.299040565
v -68.558648847 145.905791866 137.635491423
v -71.543294903 142.921145810 133.719043574
v -72.098585644 142.365855069 133.633555104
v -68.971400748 145.493039965 138.167727865
v -68.790566167 145.673874546 137.516116241
v -71.999402358 142.465038355 133.990947931
v -71.441788730 143.022651984 134.037186174
v -69.221564384 145.242876329 138.018595063
v -69.017987654 145.446453059 137.380540966
v -71.887745567 142.576695146 134.340904791
v -71.329195366 143.135245347 134.347777850
v -69.466160658 144.998280056 137.852012928
v -69.240347903 145.224092810 137.229102662
v -71.763892867 142.700547846 134.682555635
v -71.205794738 143.258645976 134.650046424
v -69.704581464 144.759859249 137.668395609
v -69.457094091 145.007346623 137.062177826
v -71.628152176 142.836288537 135.015051066
v -71.071893638 143.392547075 134.943240406
v -69.936234052 144.528206661 137.468199608
v -69.667687353 144.796753361 136.880181462
v -71.480860966 142.983579747 135.337564447
v -70.927824966 143.536615747 135.226630872
v -70.160542497 144.303898217 137.251922644
v -69.871604120 144.592836593 136.683566040
v -71.322385427 143.142055286 135.649293960
v -70.773946900 143.690493814 135.499513268
v -70.376949132 144.087491582 137.020102415
v -70.068337425 144.396103288 136.472820377
v -71.153119554 143.311321159 135.949464595
v -70.610642003 143.853798710 135.761209164
v -70.584915936 143.879524777 136.773315263
v -70.257398156 144.207042557 136.248468421
v -70.973484168 143.490956545 136.237330081
v -70.438316279 144.026124434 136.011067945
v -70.783925872 143.680514842 136.512174739
v -176.589881512 266.977156305 130.652295266
v -176.583771441 266.983266377 131.000000000
v -176.608196643 266.958841175 130.305448960
v -176.638671614 266.928366203 129.960317391
v -176.681231190 266.885806628 129.617752634
v -176.735770296 266.831267522 129.278600426
v -176.802154284 266.764883534 128.943698082
v -176.880219263 266.686818554 128.613872422
v -176.969772503 266.597265315 128.289937734
v -177.070592911 266.496444907 127.972693760
v -177.182431577 266.384606241 127.662923727
v -177.305012389 266.262025429 127.361392407
v -177.438032714 266.129005103 127.068844234
v -177.581164148 265.985873670 126.786001462
v -177.734053319 265.832984498 126.513562386
v -177.896322771 265.670715047 126.252199614
v -178.067571884 265.499465934 126.002558411
v -178.247377872 265.319659946 125.765255100
v -178.435296822 265.131740996 125.540875546
v -178.630864792 264.936173025 125.329973707
v -178.833598957 264.733438861 125.133070266
v -179.042998796 264.524039022 124.950651346
v -179.258547336 264.308490482 124.783167311
v -179.479712420 264.087325397 124.631031652
v -179.705948028 263.861089790 124.494619969
v -72.630183556 155.958551116 124.291783007
v -72.579976761 155.905696502 124.291206983
v -72.531289870 155.850430534 124.289790995
v -72.484266122 155.792891373 124.287553636
v -72.439048756 155.733217186 124.284513499
v -72.395781012 155.671546136 124.280689175
v -72.354606127 155.608016389 124.276099257
v -72.315667341 155.542766107 124.270762336
v -72.279107893 155.475933456 124.264697006
v -72.245071022 155.407656601 124.257921857
v -72.213699966 155.338073704 124.250455483
v -72.185127323 155.267325610 124.242331677
v -72.159390491 155.195586189 124.233639961
v -72.136477508 155.123051292 124.224455833
v -72.116376046 155.049917155 124.214852740
v -179.936695619 263.630342198 124.374269039
v -72.682184115 156.009272355 124.291503967
v -72.099073777 154.976380011 124.204904129
v -72.084558373 154.902636096 124.194683448
v -72.072817506 154.828881644 124.184264145
v -72.063838849 154.755312890 124.173719668
v -72.057610072 154.682126068 124.163123463
v -72.054118848 154.609517413 124.152548980
v -72.053352909 154.537638812 124.142063301
v -180.171385515 263.395652303 124.270275991
v -73.385895271 156.438540098 124.236727864
v -73.458175293 156.462435533 124.227706959
v -73.314479095 156.411816519 124.245230766
v -73.244119797 156.382257999 124.253134125
v -73.174976252 156.349941894 124.260361781
v -73.107186886 156.315009878 124.266891734
v -73.040889862 156.277605191 124.272705391
v -72.976223344 156.237871072 124.277784161
v -72.913325499 156.195950760 124.282109450
v -72.852334488 156.151987493 124.285662668
v -72.793388478 156.106124511 124.288425221
v -72.736625632 156.058505052 124.290378518
v -72.055307766 154.465438405 124.131560045
v -72.059994181 154.392544348 124.121028354
v -72.067424680 154.319153549 124.110538649
v -72.077611788 154.245462916 124.100161350
v -72.090568031 154.171669360 124.089966880
v -72.106305933 154.097969788 124.080025659
v -73.971839395 156.551551088 124.156226157
v -180.409438302 263.157599516 124.182897567
v -74.043965731 156.553265177 124.145705346
v -73.899007028 156.547107479 124.166816545
v -73.825664863 156.539922022 124.177403064
v -73.752009136 156.529982389 124.187912267
v -73.678236081 156.517276251 124.198270705
v -73.604541932 156.501791281 124.208404932
v -73.531122924 156.483515151 124.218241499
v -72.124838020 154.024561108 124.070408108
v -72.146176817 153.951640231 124.061184649
v -72.170334850 153.879404063 124.052425702
v -72.197324642 153.808049514 124.044201689
v -72.227150018 153.737769129 124.036590025
v -74.409197351 156.520837469 124.093493559
v -180.650266266 262.916771552 124.112349491
v -74.482952019 156.506070140 124.083456111
v -74.335417303 156.532827502 124.103759722
v -74.261808784 156.542052764 124.114184177
v -74.188568703 156.548525781 124.124696504
v -74.115893967 156.552259078 124.135226282
v -72.259722578 153.668719263 124.029650701
v -72.294899221 153.601038431 124.023400390
v -72.332536166 153.534865022 124.017854317
v -72.372489634 153.470337430 124.013027708
v -72.414615843 153.407594046 124.008935790
v -74.773778722 156.418977364 124.047001878
v -180.893274841 262.673762976 124.058805934
v -74.844453563 156.390136720 124.039166787
v -74.702094659 156.444979127 124.055420260
v -74.629597582 156.468153494 124.064349040
v -74.556484399 156.488512990 124.073717797
v -72.458771013 153.346773260 124.005593787
v -72.504811365 153.288013465 124.003016926
v -72.552593116 153.231453053 124.001220432
v -72.601972488 153.177230414 124.000219533
v -72.652849681 153.125439993 124.000029355
v -75.113952457 156.248260765 124.014626718
v -181.137864078 262.429173740 124.022399086
v -75.177333183 156.206875235 124.010277100
v -75.048835741 156.287423459 124.019705722
v -74.982121426 156.324219536 124.025498886
v -74.913947903 156.358505216 124.031990983
v -72.705938012 153.075366639 124.000655083
v -72.819182677 152.979955980 124.004299336
v -72.879062228 152.934906235 124.007287409
v -181.383430124 262.183607694 124.003218832
v -75.410728343 156.021980366 124.000476995
v -75.463353241 155.971637364 124.000002690
v -75.355675497 156.070819435 124.001756814
v -75.298333094 156.118010790 124.003826921
v -75.238839525 156.163410650 124.006672092
v -72.940928736 152.891818588 124.011032479
v -73.004643810 152.850836818 124.015519320
v -73.070069058 152.812104706 124.020732705
v -73.137066088 152.775766033 124.026657409
v -73.205496510 152.741964579 124.033278207
v -75.610490222 155.807763982 124.003438885
v -181.629366715 261.937671102 124.001312523
v -75.656189803 155.748609210 124.006159638
v -75.563022419 155.864745188 124.001495659
v -75.513930173 155.919414438 124.000345187
v -73.275221931 152.710844124 124.040579871
v -73.346099528 152.682533254 124.048530368
v -73.417950198 152.657059891 124.057049307
v -73.490577150 152.634411587 124.066065508
v -73.563783474 152.614575818 124.075508549
v -75.818430292 155.493022299 124.024513406
v -181.875066674 261.691971144 124.016684867
v -75.853132054 155.425075573 124.030893408
v -75.781241406 155.559487417 124.018834803
v -75.741709175 155.624332536 124.013872823
v -75.699977381 155.687419264 124.009642693
v -73.637372262 152.597540058 124.085308009
v -73.711146605 152.583291783 124.095393467
v -73.858464322 152.563107585 124.116140693
v -73.931613879 152.557146612 124.126661619
v -74.004161356 152.553923022 124.137186858
v -182.119923404 261.447114413 124.049297911
v -75.964593795 155.141378792 124.062872150
v -75.985408051 155.068351974 124.072174470
v -75.940962640 155.213757632 124.054021205
v -75.914502061 155.285291587 124.045692058
v -75.885202910 155.355785631 124.037959581
v -74.076003172 152.553424387 124.147659351
v -74.148276107 152.555646731 124.158198714
v -74.221218466 152.560600896 124.168793953
v -74.294634015 152.568299208 124.179371622
v -74.368326519 152.578753996 124.189858272
v -74.442099743 152.591977588 124.200180457
v -74.515757454 152.607982312 124.210264728
v -74.589103416 152.626780497 124.220037638
v -76.047664235 154.700390036 124.122991964
v -182.363332395 261.203705423 124.099071138
v -76.051840129 154.627610438 124.133523694
v -76.040746594 154.773703108 124.112489083
v -76.031074680 154.847352747 124.102085472
v -76.018635969 154.921142043 124.091851552
v -76.003417934 154.994874089 124.081857744
v -74.661941394 152.648384469 124.229425739
v -74.734075155 152.672806558 124.238355584
v -74.805308463 152.700059090 124.246753724
v -74.875451649 152.730141843 124.254534526
v -74.944353055 152.762956813 124.261633437
v -75.011874509 152.798360973 124.268031175
v -75.077877846 152.836211082 124.273709150
v -75.142224901 152.876363903 124.278648769
v -75.204777511 152.918676196 124.282831440
v -75.265397511 152.963004722 124.286238570
v -75.323946736 153.009206243 124.288851568
v -75.380287022 153.057137518 124.290651841
v -75.424720785 153.097612600 124.291508305
v -76.019521008 154.190176658 124.196607386
v -182.604692708 260.962345110 124.165881667
v -76.004486651 154.116456427 124.206782885
v -76.031778528 154.263944033 124.186219563
v -76.041271539 154.337562318 124.175692864
v -76.048012370 154.410835279 124.165100737
v -76.052013347 154.483566680 124.154516628
v -76.053286800 154.555561224 124.144013852
v -75.467501731 153.139074606 124.291796068
v -182.843408462 260.723629356 124.249564554
v -75.589334623 153.272885788 124.289215693
v -75.529583053 153.204148909 124.291145143
v -75.646486911 153.345025260 124.286042701
v -75.700770387 153.420307347 124.281661153
v -75.751915523 153.498472066 124.276106032
v -75.799652789 153.579259438 124.269412323
v -75.843712656 153.662409482 124.261615011
v -75.883825594 153.747662217 124.252749080
v -75.916334295 153.825971639 124.243892690
v -75.942599279 153.897540946 124.235300963
v -75.966038115 153.969942336 124.226203121
v -75.986663130 154.042979575 124.216672612
v -183.078890306 260.488147512 124.349913197
v -183.310556873 260.256480945 124.466679852
v -183.537836213 260.029201604 124.599576242
v -183.760167212 259.806870606 124.748274265
v -183.977000968 259.590036850 124.912406810
v -184.187802154 259.379235664 125.091568659
v -184.392050334 259.174987484 125.285317490
v -184.589241252 258.977796566 125.493174969
v -184.778888075 258.788149742 125.714627927
v -184.960522596 258.606515222 125.949129633
v -185.133696386 258.433341432 126.196101139
v -185.297981908 258.269055910 126.454932711
v -185.452973566 258.114064252 126.724985335
v -185.598288710 257.968749108 127.005592294
v -185.733568581 257.833469236 127.296060813
v -185.858479194 257.708558624 127.595673773
v -185.972712164 257.594325653 127.903691475
v -186.075985469 257.491052349 128.219353473
v -186.168044142 257.398993676 128.541880448
v -186.248660905 257.318376913 128.870476131
v -186.317636729 257.249401089 129.204329271
v -186.374801323 257.192236495 129.542615639
v -186.420013556 257.147024262 129.884500057
v -186.453161808 257.113876010 130.229138469
v -186.474164239 257.092873579 130.575680016
v -186.482968998 257.084068819 130.923269142
v -186.479554349 257.087483469 131.271047704
v -186.463928720 257.103109098 131.618157092
v -186.436130689 257.130907128 131.963740348
v -186.396228886 257.170808932 132.306944282
v -186.344321821 257.222715997 132.646921577
v -186.280537645 257.286500173 132.982832883
v -186.205033830 257.362003987 133.313848888
v -186.117996785 257.449041033 133.639152367
v -186.019641388 257.547396430 133.957940196
v -185.910210465 257.656827353 134.269425338
v -185.789974183 257.777063635 134.572838787
v -185.659229386 257.907808432 134.867431462
v -185.518298863 258.048738955 135.152476061
v -185.367530549 258.199507269 135.427268853
v -185.207296666 258.359741152 135.691131418
v -185.037992807 258.529045011 135.943412323
v -184.860036957 258.707000861 136.183488724
v -184.673868460 258.893169358 136.410767912
v -184.479946936 259.087090882 136.624688770
v -184.278751148 259.288286670 136.824723161
v -184.070777816 259.496260002 137.010377232
v -183.856540393 259.710497425 137.181192633
v -183.636567798 259.930470020 137.336747647
v -183.411403107 260.155634711 137.476658234
v -75.402427428 153.076993284 137.708854857
v -75.467501731 153.139074606 137.708203932
v -75.333690549 153.017241714 137.710784307
v -75.261551077 152.960089426 137.713957299
v -75.186268990 152.905805950 137.718338847
v -75.108104271 152.854660814 137.723893968
v -75.027316899 152.806923548 137.730587677
v -74.944166855 152.762863681 137.738384989
v -74.858914120 152.722750743 137.747250920
v -74.780604699 152.690242043 137.756107310
v -74.709035391 152.663977058 137.764699037
v -74.636634001 152.640538222 137.773796879
v -74.563596762 152.619913208 137.783327388
v -183.181602218 260.385435600 137.600578976
v -74.490119910 152.602089686 137.793217115
v -74.416399679 152.587055329 137.803392614
v -74.342632304 152.574797809 137.813780437
v -74.269014019 152.565304798 137.824307136
v -74.195741058 152.558563967 137.834899263
v -74.123009658 152.554562990 137.845483372
v -74.051015113 152.553289537 137.855986148
v -181.533518909 259.205091784 137.708203932
v -75.513621126 153.186830284 137.708560677
v -181.468444606 259.143010462 137.708854857
v -75.558505052 153.236625632 137.709621482
v -73.978965899 152.554736209 137.866476306
v -181.399707727 259.083258892 137.710784307
v -75.606124511 153.293388478 137.711574779
v -182.947732471 260.619305347 137.708203932
v -181.327568255 259.026106604 137.713957299
v -75.651987493 153.352334488 137.714337332
v -75.695950760 153.413325499 137.717890550
v -181.252286168 258.971823128 137.718338847
v -75.737871072 153.476223344 137.722215839
v -181.174121449 258.920677992 137.723893968
v -75.777605191 153.540889862 137.727294609
v -181.093334077 258.872940726 137.730587677
v -75.815009878 153.607186886 137.733108266
v -181.010184033 258.828880859 137.738384989
v -75.849941894 153.674976252 137.739638219
v -73.906186301 152.558912102 137.877008036
v -73.832873229 152.565829743 137.887510917
v -180.924931298 258.788767921 137.747250920
v -75.882257999 153.744119797 137.746865875
v -75.911816519 153.814479095 137.754769234
v -180.846621877 258.756259220 137.756107310
v -75.938540098 153.885895271 137.763272136
v -180.775052569 258.729994236 137.764699037
v -75.962435533 153.958175293 137.772293041
v -73.759223590 152.575501657 137.897914528
v -73.685434294 152.587940369 137.908148448
v -180.702651179 258.706555400 137.773796879
v -75.983515151 154.031122924 137.781758501
v -180.629613940 258.685930386 137.783327388
v -76.001791281 154.104541932 137.791595068
v -73.611702248 152.603158403 137.918142256
v -180.556137088 258.668106864 137.793217115
v -76.017276251 154.178236081 137.801729295
v -180.482416857 258.653072507 137.803392614
v -76.029982389 154.252009136 137.812087733
v -180.408649482 258.640814987 137.813780437
v -76.039922022 154.325664863 137.822596936
v -180.335031197 258.631321976 137.824307136
v -76.047107479 154.399007028 137.833183455
v -73.538224363 152.621168286 137.927825530
v -73.465197546 152.641982542 137.937127850
v -180.261758236 258.624581145 137.834899263
v -76.051551088 154.471839395 137.843773843
v -73.392818705 152.665613697 137.945978795
v -180.189026835 258.620580168 137.845483372
v -76.053265177 154.543965731 137.854294654
v -73.321284750 152.692074276 137.954307942
v -180.117032291 258.619306715 137.855986148
v -76.052259078 154.615893967 137.864773718
v -73.250790706 152.721373427 137.962040419
v -180.044983077 258.620753387 137.866476306
v -76.048525781 154.688568703 137.875303496
v -179.972203479 258.624929280 137.877008036
v -76.042052764 154.761808784 137.885815823
v -179.898890407 258.631846921 137.887510917
v -76.032827502 154.835417303 137.896240278
v -73.181500764 152.753444283 137.969106592
v -73.113554038 152.788146045 137.975486594
v -179.825240768 258.641518835 137.897914528
v -76.020837469 154.909197351 137.906506441
v -179.751451472 258.653957547 137.908148448
v -76.006070140 154.982952019 137.916543889
v -73.047088920 152.825334931 137.981165197
v -72.982243802 152.864867162 137.986127177
v -179.677719426 258.669175581 137.918142256
v -75.988512990 155.056484399 137.926282203
v -72.919157073 152.906598956 137.990357307
v -179.604241541 258.687185464 137.927825530
v -75.968153494 155.129597582 137.935650960
v -179.531214724 258.707999720 137.937127850
v -75.944979127 155.202094659 137.944579740
v -179.458835883 258.731630875 137.945978795
v -75.918977364 155.273778722 137.952998122
v -72.857967128 152.950386534 137.993840362
v -72.798812356 152.996086115 137.996561115
v -179.387301928 258.758091454 137.954307942
v -75.890136720 155.344453563 137.960833213
v -179.316807884 258.787390605 137.962040419
v -75.858505216 155.413947903 137.968009017
v -72.741831149 153.043553918 137.998504341
v -72.687161899 153.092646164 137.999654813
v -179.247517942 258.819461461 137.969106592
v -75.824219536 155.482121426 137.974501114
v -72.634938973 153.143223096 137.999997310
v -179.179571216 258.854163223 137.975486594
v -75.787423459 155.548835741 137.980294278
v -179.113106098 258.891352109 137.981165197
v -75.748260765 155.613952457 137.985373282
v -72.584595971 153.195847994 137.999523005
v -72.535756902 153.250900840 137.998243186
v -179.048260979 258.930884340 137.986127177
v -75.706875235 155.677333183 137.989722900
v -178.985174251 258.972616134 137.990357307
v -75.663410650 155.738839525 137.993327908
v -72.488565547 153.308243243 137.996173079
v -72.443165687 153.367736812 137.993327908
v -178.923984306 259.016403712 137.993840362
v -75.618010790 155.798333094 137.996173079
v -72.399701102 153.429243154 137.989722900
v -178.864829534 259.062103293 137.996561115
v -75.570819435 155.855675497 137.998243186
v -72.358315572 153.492623880 137.985373282
v -178.807848327 259.109571096 137.998504341
v -75.521980366 155.910728343 137.999523005
v -72.319152879 153.557740596 137.980294278
v -178.753179077 259.158663342 137.999654813
v -75.471637364 155.963353241 137.999997310
v -72.282356801 153.624454911 137.974501114
v -178.700956151 259.209240274 137.999997310
v -75.419414438 156.013930173 137.999654813
v -72.248071121 153.692628434 137.968009017
v -178.650613149 259.261865172 137.999523005
v -75.364745188 156.063022419 137.998504341
v -178.601774080 259.316918018 137.998243186
v -75.307763982 156.110490222 137.996561115
v -72.216439617 153.762122774 137.960833213
v -72.187598973 153.832797615 137.952998122
v -178.554582725 259.374260421 137.996173079
v -75.248609210 156.156189803 137.993840362
v -178.509182865 259.433753990 137.993327908
v -75.187419264 156.199977381 137.990357307
v -72.161597210 153.904481678 137.944579740
v -72.138422843 153.976978755 137.935650960
v -72.118063347 154.050091938 137.926282203
v -178.465718280 259.495260332 137.989722900
v -75.124332536 156.241709175 137.986127177
v -178.424332750 259.558641058 137.985373282
v -75.059487417 156.281241406 137.981165197
v -178.385170057 259.623757774 137.980294278
v -74.993022299 156.318430292 137.975486594
v -72.100506197 154.123624318 137.916543889
v -72.085738868 154.197378986 137.906506441
v -72.073748835 154.271159034 137.896240278
v -178.348373979 259.690472089 137.974501114
v -74.925075573 156.353132054 137.969106592
v -178.314088299 259.758645612 137.968009017
v -74.855785631 156.385202910 137.962040419
v -72.064523573 154.344767553 137.885815823
v -72.058050556 154.418007634 137.875303496
v -72.054317259 154.490682370 137.864773718
v -178.282456795 259.828139952 137.960833213
v -74.785291587 156.414502061 137.954307942
v -178.253616151 259.898814793 137.952998122
v -74.713757632 156.440962640 137.945978795
v -178.227614388 259.970498856 137.944579740
v -74.641378792 156.464593795 137.937127850
v -72.053311160 154.562610606 137.854294654
v -72.055025249 154.634736942 137.843773843
v -72.059468858 154.707569309 137.833183455
v -72.066654315 154.780911474 137.822596936
v -178.204440021 260.042995933 137.935650960
v -74.568351974 156.485408051 137.927825530
v -72.076593948 154.854567201 137.812087733
v -178.184080525 260.116109116 137.926282203
v -74.494874089 156.503417934 137.918142256
v -72.089300086 154.928340256 137.801729295
v -72.104785056 155.002034405 137.791595068
v -178.166523375 260.189641496 137.916543889
v -74.421142043 156.518635969 137.908148448
v -72.123061186 155.075453413 137.781758501
v -178.151756046 260.263396164 137.906506441
v -74.347352747 156.531074680 137.897914528
v -178.139766013 260.337176212 137.896240278
v -74.273703108 156.540746594 137.887510917
v -72.144140805 155.148401044 137.772293041
v -72.168036239 155.220681066 137.763272136
v -72.194759819 155.292097242 137.754769234
v -72.224318338 155.362456540 137.746865875
v -178.130540751 260.410784731 137.885815823
v -74.200390036 156.547664235 137.877008036
v -72.256634443 155.431600085 137.739638219
v -72.291566459 155.499389451 137.733108266
v -72.328971146 155.565686475 137.727294609
v -178.124067734 260.484024812 137.875303496
v -74.127610438 156.551840129 137.866476306
v -72.368705265 155.630352993 137.722215839
v -72.410625577 155.693250839 137.717890550
v -72.454588844 155.754241849 137.714337332
v -72.500451827 155.813187859 137.711574779
v -178.120334437 260.556699548 137.864773718
v -74.055561224 156.553286800 137.855986148
v -72.548071285 155.869950705 137.709621482
v -72.592955211 155.919746053 137.708560677
v -178.119328338 260.628627784 137.854294654
v -73.983566680 156.552013347 137.845483372
v -178.121042427 260.700754120 137.843773843
v -73.910835279 156.548012370 137.834899263
v -178.125486036 260.773586487 137.833183455
v -73.837562318 156.541271539 137.824307136
v -178.132671493 260.846928652 137.822596936
v -73.763944033 156.531778528 137.813780437
v -72.639074606 155.967501731 137.708203932
v -178.142611126 260.920584379 137.812087733
v -73.690176658 156.519521008 137.803392614
v -178.155317264 260.994357434 137.801729295
v -73.616456427 156.504486651 137.793217115
v -178.170802234 261.068051583 137.791595068
v -73.542979575 156.486663130 137.783327388
v -178.189078364 261.141470591 137.781758501
v -73.469942336 156.466038115 137.773796879
v -178.210157983 261.214418222 137.772293041
v -73.397540946 156.442599279 137.764699037
v -178.234053417 261.286698244 137.763272136
v -73.325971639 156.416334295 137.756107310
v -178.260776997 261.358114420 137.754769234
v -73.247662217 156.383825594 137.747250920
v -178.290335516 261.428473718 137.746865875
v -178.322651621 261.497617263 137.739638219
v -73.162409482 156.343712656 137.738384989
v -178.357583637 261.565406629 137.733108266
v -73.079259438 156.299652789 137.730587677
v -178.394988324 261.631703653 137.727294609
v -72.998472066 156.251915523 137.723893968
v -178.434722443 261.696370171 137.722215839
v -72.920307347 156.200770387 137.718338847
v -178.476642755 261.759268017 137.717890550
v -72.845025260 156.146486911 137.713957299
v -178.520606022 261.820259027 137.714337332
v -178.566469005 261.879205037 137.711574779
v -72.772885788 156.089334623 137.710784307
v -178.614088463 261.935967883 137.709621482
v -72.704148909 156.029583053 137.708854857
v -178.658972389 261.985763231 137.708560677
v -178.705091784 262.033518909 137.708203932
v -179.887403517 263.679634301 137.601561045
v -180.119305347 263.447732471 137.708203932
v -179.659497032 263.907540786 137.478895277
v -179.436139051 264.130898767 137.340504354
v -179.217871694 264.349166123 137.186724170
v -179.005224727 264.561813091 137.017927971
v -178.798714271 264.768323547 136.834525446
v -178.598841555 264.968196262 136.636961740
v -178.406091699 265.160946119 136.425716366
v -178.220932530 265.346105288 136.201302045
v -178.043813457 265.523224361 135.964263462
v -177.875164370 265.691873448 135.715175939
v -177.715394604 265.851643213 135.454644047
v -177.564891942 266.002145875 135.183300133
v -177.424021674 266.143016144 134.901802783
v -177.293125712 266.273912106 134.610835231
v -177.172521756 266.394516062 134.311103693
v -177.062502530 266.504535288 134.003335659
v -176.963335065 266.603702752 133.688278124
v -176.875260054 266.691777763 133.366695775
v -176.798491267 266.768546550 133.039369135
v -176.733215032 266.833822786 132.707092670
v -176.679589783 266.887448034 132.370672861
v -176.637745677 266.929292141 132.030926243
v -176.607784273 266.959253544 131.688677428
v -176.589778294 266.977259524 131.344757100
v -72.761428474 153.026824041 124.002083486
v -73.784909594 152.571818467 124.105694502
v -178.705091784 262.033518909 138.435724578
v -180.119305347 263.447732471 138.435724578
v -177.549448443 266.017589375 125.751727423
v -177.739888661 265.827149157 125.476709397
v -177.368964696 266.198073122 126.039861251
v -177.939809428 265.627228390 125.215494461
v -177.198888462 266.368149356 126.340390813
v -178.148711126 265.418326691 124.968735410
v -177.039644773 266.527393044 126.652565066
v -178.366071697 265.200966121 124.737048913
v -176.891631592 266.675406226 126.975603863
v -178.591347940 264.975689877 124.521013969
v -176.755218812 266.811819006 127.308699908
v -178.823976875 264.743060942 124.321170467
v -176.630747339 266.936290479 127.651020772
v -179.063377146 264.503660672 124.138017827
v -176.518528237 267.048509581 128.001710969
v -179.308950474 264.258087344 123.972013762
v -176.418841947 267.148195870 128.359894101
v -179.560083155 264.006954663 123.823573128
v -176.331937595 267.235100223 128.724675042
v -179.816147590 263.750890228 123.693066888
v -176.258032358 267.309005459 129.095142181
v -180.076503856 263.490533962 123.580821186
v -176.197310933 267.369726885 129.470369692
v -180.340501305 263.226536513 123.487116533
v -176.149925066 267.417112752 129.849419857
v -180.607480189 262.959557629 123.412187102
v -176.115993177 267.451044641 130.231345403
v -180.876773309 262.690264509 123.356220148
v -176.095600065 267.471437753 130.615191870
v -181.147707682 262.419330136 123.319355535
v -176.088796694 267.478241124 131.000000000
v -181.419606224 262.147431594 123.301685392
v -176.095184877 267.471852941 131.372888613
v -181.691789442 261.875248376 123.303253877
v -176.114334437 267.452703381 131.744902220
v -181.963577131 261.603460687 123.324057071
v -176.146200438 267.420837380 132.115167869
v -182.234290074 261.332747744 123.364042984
v -176.190708104 267.376329714 132.482816710
v -182.503251741 261.063786077 123.423111690
v -176.247752995 267.319284823 132.846986033
v -182.769789977 260.797247841 123.501115570
v -176.317201253 267.249836565 133.206821293
v -183.033238686 260.533799132 123.597859689
v -176.398889912 267.168147906 133.561478114
v -183.292939489 260.274098329 123.713102276
v -176.492627286 267.074410532 133.910124274
v -183.548243377 260.018794441 123.846555331
v -176.598193414 266.968844404 134.251941653
v -183.798512328 259.768525490 123.997885346
v -176.715340578 266.851697239 134.586128156
v -184.043120900 259.523916917 124.166714137
v -176.843793887 266.723243931 134.911899594
v -184.281457802 259.285580016 124.352619788
v -176.983251916 266.583785902 135.228491526
v -184.512927411 259.054110406 124.555137709
v -177.133387419 266.433650399 135.535161050
v -184.736951270 258.830086548 124.773761793
v -177.293848094 266.273189724 135.831188546
v -184.952969527 258.614068291 125.007945682
v -177.464257411 266.102780407 136.115879369
v -185.160442336 258.406595482 125.257104136
v -177.644215493 265.922822325 136.388565475
v -185.358851210 258.208186608 125.520614489
v -177.833300059 265.733737759 136.648606989
v -185.547700310 258.019337508 125.797818211
v -178.031067409 265.535970408 136.895393709
v -185.726517689 257.840520129 126.088022550
v -178.237053472 265.329984346 137.128346535
v -185.894856470 257.672181348 126.390502265
v -178.450774889 265.116262929 137.346918828
v -186.052295962 257.514741856 126.704501439
v -178.671730149 264.895307669 137.550597697
v -186.198442714 257.368595104 127.029235364
v -178.899400767 264.667637051 137.738905195
v -186.332931494 257.234106324 127.363892509
v -179.133252502 264.433785316 137.911399449
v -186.455426205 257.111611613 127.707636542
v -179.372736605 264.194301213 138.067675691
v -186.565620725 257.001417093 128.059608422
v -179.617291113 263.949746705 138.207367208
v -186.663239669 256.903798149 128.418928546
v -179.866342165 263.700695653 138.330146206
v -186.748039081 256.818998737 128.784698949
v -186.819807042 256.747230776 129.156005545
v -186.878364198 256.688673620 129.531920412
v -186.923564210 256.643473607 129.911504113
v -186.955294122 256.611743696 130.293808042
v -186.973474637 256.593563181 130.677876794
v -186.978060321 256.588977497 131.062750555
v -186.969039714 256.597998104 131.447467497
v -186.946435359 256.620602459 131.831066187
v -186.910303747 256.656734071 132.212587984
v -186.860735172 256.706302646 132.591079438
v -186.797853510 256.769184308 132.965594674
v -186.721815906 256.845221912 133.335197750
v -183.208726909 260.358310909 138.326483216
v -182.947732471 260.619305347 138.435724578
v -186.632812385 256.934225433 133.698965004
v -183.465534885 260.101502933 138.198932458
v -186.531065371 257.035972447 134.055987355
v -183.717514617 259.849523201 138.053391063
v -186.416829139 257.150208679 134.405372579
v -183.964036391 259.603001427 137.890222750
v -186.290389171 257.276648647 134.746247538
v -184.204484131 259.362553687 137.709835286
v -186.152061451 257.414976366 135.077760362
v -184.438256942 259.128780876 137.512679473
v -186.002191670 257.564846148 135.399082576
v -184.664770608 258.902267210 137.299248018
v -185.841154361 257.725883456 135.709411175
v -184.883459057 258.683578761 137.070074300
v -185.669351970 257.897685848 136.007970625
v -185.093775771 258.473262047 136.825731041
v -185.487213842 258.079823976 136.294014805
v -185.295195153 258.271842665 136.566828871
v -181.533518909 259.205091784 138.435724578
v -181.497095255 259.169629749 138.435913970
v -181.459454457 259.134875276 138.436478412
v -181.403414896 259.086343545 138.437932227
v -181.345106712 259.039516696 138.440130110
v -181.284669659 258.994540991 138.443055525
v -181.222243490 258.951562693 138.446691936
v -181.157967958 258.910728064 138.451022806
v -181.091982815 258.872183366 138.456031599
v -181.024427814 258.836074862 138.461701778
v -180.955442708 258.802548814 138.468016807
v -180.885167250 258.771751485 138.474960149
v -180.813749467 258.743802013 138.482486510
v -180.741377346 258.718713856 138.490514137
v -180.668250818 258.696475112 138.498975600
v -180.594569818 258.677073881 138.507803490
v -180.520534277 258.660498262 138.516930397
v -180.446344131 258.646736354 138.526288911
v -180.372199312 258.635776256 138.535811622
v -180.298299753 258.627606068 138.545431121
v -180.224845388 258.622213890 138.555079996
v -180.152036150 258.619587820 138.564690839
v -180.079791642 258.619716683 138.574232634
v -180.006909708 258.622601751 138.583820945
v -179.933398158 258.628254738 138.593415597
v -179.859457389 258.636687678 138.602951492
v -179.785287797 258.647912606 138.612363534
v -179.711089780 258.661941556 138.621586624
v -179.637063734 258.678786564 138.630555665
v -179.563410056 258.698459664 138.639205560
v -179.490329143 258.720972891 138.647471211
v -179.418021391 258.746338280 138.655287522
v -179.346687169 258.774567861 138.662589127
v -179.276511887 258.805639843 138.669300855
v -179.207641770 258.839427617 138.675389074
v -179.140216726 258.875784552 138.680839770
v -179.074376659 258.914564016 138.685638929
v -179.010261475 258.955619377 138.689772538
v -178.948011080 258.998804004 138.693226583
v -178.887765380 259.043971264 138.695987049
v -178.829664280 259.090974528 138.698039924
v -178.773847687 259.139667162 138.699371193
v -178.720455506 259.189902535 138.699966842
v -178.669318236 259.241844202 138.699814482
v -178.619691901 259.296238150 138.698918304
v -178.571667873 259.352999675 138.697292200
v -178.525392784 259.411988871 138.694950183
v -178.481013264 259.473065832 138.691906267
v -178.438675947 259.536090653 138.688174466
v -178.398527462 259.600923427 138.683768793
v -178.360714443 259.667424249 138.678703263
v -178.325383520 259.735453213 138.672991890
v -178.292681326 259.804870414 138.666648686
v -178.262753664 259.875535765 138.659689294
v -178.235689082 259.947289626 138.652170585
v -178.211483808 260.019935636 138.644163883
v -178.190125806 260.093273399 138.635734285
v -178.171603042 260.167102516 138.626946889
v -178.155903482 260.241222593 138.617866792
v -178.143015090 260.315433231 138.608559091
v -178.132925832 260.389534034 138.599088885
v -178.125623673 260.463324606 138.589521269
v -178.121096577 260.536604549 138.579921342
v -178.119332512 260.609173467 138.570354201
v -178.120321792 260.681523580 138.560795433
v -178.124070132 260.754619008 138.551161010
v -178.130589414 260.828278341 138.541515939
v -178.139891540 260.902301648 138.531927630
v -178.151988411 260.976488993 138.522463492
v -178.166891927 261.050640446 138.513190936
v -178.184613988 261.124556070 138.504177372
v -178.205166496 261.198035935 138.495490209
v -178.228561351 261.270880105 138.487196858
v -178.254810453 261.342888648 138.479364727
v -178.287334823 261.421676833 138.471290577
v -178.327511160 261.507441901 138.463208912
v -178.371678872 261.591080106 138.456103848
v -178.419562741 261.672328478 138.450006500
v -178.470887547 261.750924048 138.444947985
v -178.525378073 261.826603845 138.440959419
v -178.582759100 261.899104901 138.438071918
v -178.642755410 261.968164245 138.436316599
v -72.603612571 155.931078077 123.564086030
v -72.639074606 155.967501731 123.564275422
v -72.568858098 155.893437279 123.563521588
v -72.520326367 155.837397718 123.562067773
v -72.473499518 155.779089534 123.559869890
v -72.428523813 155.718652481 123.556944475
v -72.385545515 155.656226312 123.553308064
v -72.344710886 155.591950780 123.548977194
v -72.306166188 155.525965637 123.543968401
v -72.270057684 155.458410636 123.538298222
v -72.152696678 155.175360168 123.509485863
v -72.177784835 155.247732289 123.517513490
v -72.205734307 155.319150072 123.525039851
v -72.236531636 155.389425530 123.531983193
v -72.130457934 155.102233640 123.501024400
v -72.111056703 155.028552640 123.492196510
v -72.094481084 154.954517099 123.483069603
v -72.080719176 154.880326953 123.473711089
v -72.069759078 154.806182134 123.464188378
v -72.061588890 154.732282575 123.454568879
v -72.053699505 154.513774464 123.425767366
v -72.053570642 154.586018972 123.435309161
v -72.056196712 154.658828210 123.444920004
v -72.704429270 156.029838105 123.563683401
v -72.773488614 156.089834415 123.561928082
v -72.845989670 156.147215442 123.559040581
v -72.921669468 156.201705968 123.555052015
v -73.000265037 156.253030774 123.549993500
v -73.081513409 156.300914643 123.543896152
v -73.165151614 156.345082355 123.536791088
v -73.250916682 156.385258692 123.528709423
v -72.062237560 154.367380980 123.406584403
v -72.056584574 154.440892530 123.416179055
v -72.070670500 154.293440211 123.397048508
v -72.081895428 154.219270619 123.387636466
v -72.112769386 154.071046556 123.369444335
v -72.095924378 154.145072602 123.378413376
v -73.329704867 156.417783062 123.520635273
v -73.401713410 156.444032164 123.512803142
v -73.474557581 156.467427019 123.504509791
v -73.548037445 156.487979527 123.495822628
v -73.621953070 156.505701588 123.486809064
v -73.696104522 156.520605104 123.477536508
v -73.770291868 156.532701975 123.468072370
v -73.844315174 156.542004101 123.458484061
v -73.917974508 156.548523383 123.448838990
v -72.132442486 153.997392878 123.360794440
v -72.180321102 153.852004213 123.344712478
v -72.154955713 153.924311965 123.352528789
v -72.208550683 153.780669991 123.337410873
v -72.273410439 153.641624592 123.324610926
v -72.239622665 153.710494709 123.330699145
v -73.991069935 156.552271723 123.439204567
v -74.063420048 156.553261004 123.429645799
v -74.135988966 156.551496938 123.420078658
v -74.209268909 156.546969843 123.410478731
v -74.283059481 156.539667683 123.400911115
v -74.357160284 156.529578425 123.391440909
v -74.431370923 156.516690033 123.382133208
v -72.348546838 153.508359481 123.314361071
v -72.309767374 153.574199548 123.319160230
v -72.389602199 153.444244297 123.310227462
v -72.477954086 153.321748202 123.304012951
v -72.432786826 153.381993902 123.306773417
v -74.505490999 156.500990473 123.373053111
v -74.579320116 156.482467709 123.364265715
v -74.652657879 156.461109707 123.355836117
v -74.725303889 156.436904433 123.347829415
v -74.797057750 156.409839851 123.340310706
v -74.867723101 156.379912189 123.333351314
v -72.573649984 153.207830509 123.300628807
v -72.524957350 153.263647102 123.301960076
v -72.623885357 153.154438328 123.300033158
v -72.730220972 153.053674723 123.301081696
v -72.675827024 153.103301058 123.300185518
v -74.937140302 156.347209995 123.327008110
v -75.005169266 156.311879072 123.321296737
v -75.071670088 156.274066053 123.316231207
v -75.136502862 156.233917568 123.311825534
v -75.199527683 156.191580251 123.308093733
v -72.845971693 152.959375606 123.305049817
v -72.786982497 153.005650695 123.302707800
v -72.907048654 152.914996086 123.308093733
v -73.034906249 152.832510284 123.316231207
v -72.970073475 152.872658769 123.311825534
v -75.260604644 156.147200731 123.305049817
v -75.319593840 156.100925642 123.302707800
v -75.376355365 156.052901614 123.301081696
v -75.430749313 156.003275279 123.300185518
v -75.482690980 155.952138009 123.300033158
v -73.238853236 152.726664148 123.333351314
v -73.169436035 152.759366342 123.327008110
v -73.309518587 152.696736486 123.340310706
v -73.381272448 152.669671904 123.347829415
v -73.453918458 152.645466630 123.355836117
v -75.532926353 155.898745828 123.300628807
v -75.581618987 155.842929235 123.301960076
v -75.628622251 155.784828135 123.304012951
v -75.673789511 155.724582435 123.306773417
v -75.716974138 155.662332040 123.310227462
v -73.601085338 152.605585865 123.373053111
v -73.527256221 152.624108628 123.364265715
v -73.675205415 152.589886304 123.382133208
v -73.823516856 152.566908654 123.400911115
v -73.749416053 152.576997912 123.391440909
v -73.897307428 152.559606495 123.410478731
v -75.758029499 155.598216856 123.314361071
v -75.796808963 155.532376789 123.319160230
v -75.833165898 155.464951745 123.324610926
v -75.866953672 155.396081628 123.330699145
v -75.898025654 155.325906346 123.337410873
v -75.926255235 155.254572124 123.344712478
v -74.043156289 152.553315334 123.429645799
v -73.970587371 152.555079399 123.420078658
v -74.115506402 152.554304614 123.439204567
v -74.188601830 152.558052954 123.448838990
v -74.410471815 152.585971233 123.477536508
v -74.336284470 152.573874362 123.468072370
v -74.262261163 152.564572236 123.458484061
v -74.484623268 152.600874749 123.486809064
v -75.951620624 155.182264372 123.352528789
v -75.974133851 155.109183459 123.360794440
v -75.993806951 155.035529781 123.369444335
v -76.010651959 154.961503735 123.378413376
v -76.024680910 154.887305718 123.387636466
v -74.558538892 152.618596810 123.495822628
v -74.632018757 152.639149318 123.504509791
v -74.704862927 152.662544173 123.512803142
v -74.776871470 152.688793275 123.520635273
v -74.855659655 152.721317645 123.528709423
v -74.941424723 152.761493982 123.536791088
v -75.467501731 153.139074606 123.564275422
v -75.402147067 153.076738232 123.563683401
v -75.333087723 153.016741922 123.561928082
v -75.260586667 152.959360895 123.559040581
v -75.184906870 152.904870369 123.555052015
v -75.106311300 152.853545563 123.549993500
v -75.025062928 152.805661694 123.543896152
v -76.035905837 154.813136126 123.397048508
v -76.044338777 154.739195357 123.406584403
v -76.049991764 154.665683807 123.416179055
v -76.052876832 154.592801873 123.425767366
v -76.053005695 154.520557365 123.435309161
v -76.050379625 154.447748127 123.444920004
v -76.044987447 154.374293762 123.454568879
v -76.036817259 154.300394203 123.464188378
v -76.025857162 154.226249384 123.473711089
v -76.012095253 154.152059238 123.483069603
v -75.995519634 154.078023697 123.492196510
v -75.976118403 154.004342697 123.501024400
v -75.953879659 153.931216169 123.509485863
v -75.928791502 153.858844048 123.517513490
v -75.900842030 153.787426265 123.525039851
v -75.870044701 153.717150807 123.531983193
v -75.836518653 153.648165701 123.538298222
v -75.800410149 153.580610700 123.543968401
v -75.761865451 153.514625557 123.548977194
v -75.721030822 153.450350025 123.553308064
v -75.678052524 153.387923856 123.556944475
v -75.633076819 153.327486803 123.559869890
v -75.586249970 153.269178620 123.562067773
v -75.537718239 153.213139058 123.563521588
v -75.502963766 153.175498260 123.564086030
v -75.420893699 153.094026853 138.436031430
v -75.467501731 153.139074606 138.435724578
v -75.372332003 153.050149028 138.436944272
v -75.315410362 153.002250536 138.438683937
v -75.256273422 152.956112732 138.441161360
v -75.195060935 152.911881879 138.444360006
v -75.131912655 152.869704239 138.448263338
v -75.066968334 152.829726074 138.452854820
v -75.000367724 152.792093647 138.458117915
v -74.932250580 152.756953219 138.464036087
v -74.647536965 152.643875969 138.493695076
v -74.720220518 152.667875531 138.485493965
v -74.792026016 152.694731866 138.477768381
v -74.862756653 152.724451054 138.470592799
v -74.574175290 152.622721279 138.502304302
v -74.500335426 152.604399561 138.511254235
v -74.426217307 152.588898914 138.520477465
v -74.352020866 152.576207438 138.529906582
v -74.277946036 152.566313231 138.539474175
v -74.204192751 152.559204394 138.549112835
v -74.058450550 152.553295225 138.568333718
v -74.130960945 152.554869026 138.558755153
v -73.986053481 152.554474494 138.577886152
v -75.529838105 153.204429270 138.436316599
v -75.589834415 153.273488614 138.438071918
v -75.647215442 153.345989670 138.440959419
v -75.701705968 153.421669468 138.444947985
v -75.753030774 153.500265037 138.450006500
v -73.839208712 152.565126493 138.597064477
v -73.912907673 152.558414239 138.587484563
v -75.800914643 153.581513409 138.456103848
v -75.845082355 153.665151614 138.463208912
v -73.765156992 152.574623293 138.606560796
v -75.885258692 153.750916682 138.471290577
v -75.917783062 153.829704867 138.479364727
v -73.690952911 152.586916673 138.615908424
v -75.944032164 153.901713410 138.487196858
v -75.967427019 153.974557581 138.495490209
v -75.987979527 154.048037445 138.504177372
v -76.005701588 154.121953070 138.513190936
v -73.542889253 152.619941311 138.633897214
v -73.616796866 152.602018667 138.625042262
v -76.020605104 154.196104522 138.522463492
v -76.032701975 154.270291868 138.531927630
v -76.042004101 154.344315174 138.541515939
v -73.396620910 152.664296685 138.650510068
v -73.469430469 152.640696638 138.642408182
v -76.048523383 154.417974508 138.551161010
v -73.324660975 152.690753485 138.658137776
v -76.052271723 154.491069935 138.560795433
v -73.253749603 152.720076409 138.665222652
v -76.053261004 154.563420048 138.570354201
v -76.051496938 154.635988966 138.579921342
v -76.046969843 154.709268909 138.589521269
v -73.184055798 152.752201899 138.671698134
v -73.115720541 152.786987234 138.677544760
v -76.039667683 154.783059481 138.599088885
v -76.029578425 154.857160284 138.608559091
v -76.016690033 154.931370923 138.617866792
v -72.983685290 152.863950913 138.687295389
v -73.048883736 152.824285783 138.682748517
v -76.000990473 155.005490999 138.626946889
v -72.920265107 152.905835993 138.691171365
v -75.982467709 155.079320116 138.635734285
v -75.961109707 155.152657879 138.644163883
v -72.858763095 152.949794392 138.694362429
v -72.799319158 152.995679478 138.696854568
v -75.936904433 155.225303889 138.652170585
v -75.909839851 155.297057750 138.659689294
v -72.687165135 153.092643184 138.699686015
v -72.742073203 153.043344619 138.698633768
v -75.879912189 155.367723101 138.666648686
v -72.634730368 153.143433034 138.699997300
v -75.847209995 155.437140302 138.672991890
v -75.811879072 155.505169266 138.678703263
v -72.535154192 153.251606535 138.698383225
v -72.584186469 153.196292734 138.699559559
v -75.774066053 155.571670088 138.683768793
v -75.733917568 155.636502862 138.688174466
v -72.442211032 153.369036819 138.693870832
v -72.487780169 153.309234532 138.696482311
v -75.691580251 155.699527683 138.691906267
v -72.398593413 153.430873491 138.690562801
v -75.647200731 155.760604644 138.694950183
v -75.600925642 155.819593840 138.697292200
v -72.317799251 153.560090364 138.681913138
v -72.357073942 153.494604641 138.686572231
v -75.552901614 155.876355365 138.698918304
v -75.503275279 155.930749313 138.699814482
v -72.246570738 153.695765905 138.670645432
v -72.280915973 153.627190754 138.676599533
v -75.452138009 155.982690980 138.699966842
v -72.214910179 153.765675911 138.664064848
v -75.398745828 156.032926353 138.699371193
v -75.342929235 156.081618987 138.698039924
v -75.284828135 156.128622251 138.695987049
v -72.160099707 153.908896084 138.649169675
v -72.186071904 153.836778181 138.656882258
v -72.136982227 153.981829675 138.640993937
v -75.224582435 156.173789511 138.693226583
v -72.116707427 154.055378557 138.632420141
v -75.162332040 156.216974138 138.689772538
v -72.099263273 154.129342334 138.623513385
v -75.098216856 156.258029499 138.685638929
v -72.084637731 154.203520607 138.614338766
v -75.032376789 156.296808963 138.680839770
v -74.964951745 156.333165898 138.675389074
v -72.063794342 154.351719061 138.595446327
v -72.072818766 154.277712982 138.604961380
v -72.057552425 154.425338446 138.585858702
v -74.896081628 156.366953672 138.669300855
v -72.054080981 154.498370743 138.576263604
v -74.825906346 156.398025654 138.662589127
v -72.053368015 154.570670007 138.566719078
v -72.055408618 154.643316626 138.557124977
v -74.754572124 156.426255235 138.655287522
v -72.060212803 154.716650800 138.547478537
v -74.682264372 156.451620624 138.647471211
v -74.609183459 156.474133851 138.639205560
v -72.091325866 154.938779321 138.518899292
v -72.078159527 154.864582081 138.528298285
v -72.067792473 154.790472596 138.537847170
v -74.535529781 156.493806951 138.630555665
v -72.107303391 155.012864382 138.509717601
v -72.126104002 155.086637332 138.500820621
v -74.461503735 156.510651959 138.621586624
v -72.147739600 155.159898237 138.492275763
v -72.172222086 155.232447164 138.484150437
v -74.387305718 156.524680910 138.612363534
v -72.199563360 155.304084179 138.476512052
v -72.229763081 155.374615458 138.469438297
v -74.313136126 156.535905837 138.602951492
v -72.262722291 155.443886073 138.462988552
v -74.239195357 156.544338777 138.593415597
v -74.165683807 156.549991764 138.583820945
v -72.659507871 155.987627888 138.435785203
v -72.608195739 155.935895624 138.435867908
v -72.558423918 155.881741672 138.436723908
v -72.510241756 155.825209003 138.438337004
v -72.463795513 155.766437369 138.440690660
v -72.419231454 155.705566522 138.443768338
v -72.376695840 155.642736217 138.447553503
v -72.336334933 155.578086205 138.452029618
v -72.298294996 155.511756239 138.457180146
v -74.092801873 156.552876832 138.574232634
v -74.020557365 156.553005695 138.564690839
v -73.947748127 156.550379625 138.555079996
v -73.874293762 156.544987447 138.545431121
v -73.800394203 156.536817259 138.535811622
v -73.726249384 156.525857162 138.526288911
v -73.652059238 156.512095253 138.516930397
v -73.578023697 156.495519634 138.507803490
v -73.504342697 156.476118403 138.498975600
v -73.431216169 156.453879659 138.490514137
v -73.358844048 156.428791502 138.482486510
v -73.287426265 156.400842030 138.474960149
v -73.217150807 156.370044701 138.468016807
v -73.148165701 156.336518653 138.461701778
v -73.080610700 156.300410149 138.456031599
v -73.014625557 156.261865451 138.451022806
v -72.950350025 156.221030822 138.446691936
v -72.887923856 156.178052524 138.443055525
v -72.827486803 156.133076819 138.440130110
v -72.769178620 156.086249970 138.437932227
v -72.713139058 156.037718239 138.436478412
v -73.101407071 152.794697265 123.321296737
f 1 2 3
f 4 5 1
f 1 5 2
f 3 6 7
f 2 6 3
f 8 9 4
f 4 9 5
f 7 10 11
f 6 10 7
f 12 13 8
f 8 13 9
f 11 14 15
f 10 14 11
f 16 17 12
f 12 17 13
f 15 18 19
f 14 18 15
f 20 21 16
f 16 21 17
f 19 22 23
f 18 22 19
f 20 24 21
f 25 24 20
f 23 26 27
f 22 26 23
f 25 28 24
f 29 28 25
f 26 30 27
f 27 30 31
f 32 33 29
f 29 33 28
f 31 34 35
f 30 34 31
f 36 37 32
f 32 37 33
f 35 38 39
f 34 38 35
f 40 41 36
f 36 41 37
f 39 42 43
f 38 42 39
f 44 45 40
f 40 45 41
f 43 46 47
f 42 46 43
f 48 49 44
f 44 49 45
f 47 50 51
f 46 50 47
f 52 53 48
f 48 53 49
f 51 54 55
f 50 54 51
f 56 57 52
f 52 57 53
f 55 58 59
f 54 58 55
f 60 61 56
f 56 61 57
f 59 62 63
f 58 62 59
f 64 65 60
f 60 65 61
f 63 66 67
f 62 66 63
f 68 69 64
f 64 69 65
f 67 70 71
f 66 70 67
f 72 73 68
f 68 73 69
f 71 74 75
f 70 74 71
f 76 77 72
f 72 77 73
f 75 78 79
f 74 78 75
f 80 81 76
f 76 81 77
f 79 82 83
f 78 82 79
f 80 84 81
f 85 84 80
f 82 86 83
f 83 86 87
f 85 88 84
f 85 89 88
f 86 90 87
f 87 90 91
f 89 92 88
f 89 93 92
f 90 94 91
f 91 94 95
f 93 96 92
f 93 97 96
f 94 98 95
f 95 98 99
f 97 100 96
f 97 101 100
f 99 102 103
f 98 102 99
f 101 104 100
f 102 105 103
f 103 105 106
f 101 107 104
f 107 108 104
f 105 109 106
f 106 109 110
f 107 111 108
f 111 112 108
f 110 113 114
f 109 113 110
f 111 115 112
f 115 116 112
f 114 117 118
f 113 117 114
f 115 119 116
f 119 120 116
f 118 121 122
f 117 121 118
f 119 123 120
f 123 124 120
f 122 125 126
f 121 125 122
f 123 127 124
f 124 127 128
f 125 129 126
f 129 130 126
f 127 131 128
f 128 131 132
f 129 133 130
f 133 134 130
f 132 135 136
f 131 135 132
f 133 137 134
f 137 138 134
f 135 139 136
f 136 139 140
f 137 141 138
f 141 142 138
f 139 143 140
f 140 143 144
f 141 145 142
f 145 146 142
f 145 147 146
f 143 148 144
f 144 148 149
f 147 150 146
f 147 151 150
f 149 152 153
f 148 152 149
f 151 154 150
f 151 155 154
f 153 156 157
f 152 156 153
f 155 158 154
f 155 159 158
f 157 160 161
f 156 160 157
f 159 162 158
f 159 163 162
f 161 164 165
f 160 164 161
f 163 166 162
f 167 166 163
f 165 168 169
f 164 168 165
f 167 170 166
f 171 170 167
f 169 172 173
f 168 172 169
f 171 174 170
f 173 175 176
f 172 175 173
f 171 177 174
f 178 177 179
f 179 177 171
f 175 180 176
f 176 180 181
f 178 182 177
f 183 182 178
f 180 184 181
f 181 184 185
f 183 186 182
f 187 186 183
f 184 188 185
f 185 188 189
f 187 190 186
f 191 190 187
f 188 192 189
f 189 192 193
f 191 194 190
f 195 194 191
f 192 196 193
f 193 196 197
f 195 198 194
f 199 198 195
f 196 200 197
f 197 200 201
f 199 202 198
f 203 202 199
f 201 204 205
f 200 204 201
f 203 206 202
f 207 206 203
f 205 208 209
f 204 208 205
f 207 210 206
f 211 210 207
f 208 212 209
f 209 212 213
f 214 215 211
f 211 215 210
f 213 216 217
f 212 216 213
f 218 219 214
f 214 219 215
f 217 220 221
f 216 220 217
f 218 222 219
f 223 222 218
f 220 224 221
f 221 224 225
f 223 226 222
f 227 226 223
f 224 228 225
f 225 228 229
f 227 230 226
f 231 230 227
f 228 232 229
f 229 232 233
f 231 234 230
f 235 234 231
f 233 236 237
f 232 236 233
f 235 238 234
f 239 238 235
f 237 240 241
f 236 240 237
f 239 242 238
f 243 242 239
f 241 244 245
f 240 244 241
f 243 246 242
f 247 246 243
f 244 248 245
f 245 248 249
f 247 250 246
f 251 250 247
f 248 252 249
f 251 252 250
f 249 252 251
f 65 253 61
f 254 253 65
f 61 255 57
f 253 255 61
f 57 256 53
f 255 256 57
f 53 257 49
f 256 257 53
f 49 258 45
f 257 258 49
f 45 259 41
f 258 259 45
f 41 260 37
f 259 260 41
f 37 261 33
f 260 261 37
f 33 262 28
f 261 262 33
f 28 263 24
f 262 263 28
f 24 264 21
f 263 264 24
f 21 265 17
f 264 265 21
f 265 266 17
f 17 266 13
f 13 267 9
f 266 267 13
f 267 268 9
f 9 268 5
f 5 269 2
f 268 269 5
f 2 270 6
f 269 270 2
f 6 271 10
f 270 271 6
f 10 272 14
f 271 272 10
f 14 273 18
f 272 273 14
f 18 274 22
f 273 274 18
f 22 275 26
f 274 275 22
f 26 276 30
f 275 276 26
f 30 277 34
f 276 277 30
f 278 42 38
f 279 42 278
f 280 42 279
f 281 42 280
f 282 42 281
f 283 42 282
f 284 42 283
f 284 285 42
f 285 286 42
f 286 287 42
f 287 288 42
f 288 289 42
f 289 290 42
f 290 291 42
f 291 292 42
f 34 293 38
f 38 293 278
f 278 293 294
f 277 293 34
f 292 46 42
f 295 46 292
f 296 46 295
f 297 46 296
f 298 299 46
f 299 300 46
f 300 301 46
f 293 302 294
f 303 302 304
f 305 302 303
f 306 302 305
f 307 302 306
f 308 302 307
f 309 302 308
f 310 302 309
f 311 302 310
f 312 302 311
f 313 302 312
f 314 302 313
f 294 302 314
f 301 50 46
f 315 50 301
f 316 50 315
f 316 317 50
f 318 319 50
f 319 320 50
f 321 322 323
f 324 322 321
f 325 322 324
f 326 322 325
f 327 322 326
f 328 322 327
f 329 322 328
f 304 322 329
f 302 322 304
f 320 54 50
f 330 54 320
f 331 54 330
f 332 333 54
f 333 334 54
f 335 336 337
f 322 336 323
f 338 336 335
f 339 336 338
f 340 336 339
f 341 336 340
f 323 336 341
f 342 58 334
f 343 58 342
f 334 58 54
f 344 345 58
f 345 346 58
f 347 348 349
f 350 348 347
f 351 348 350
f 352 348 351
f 337 348 352
f 336 348 337
f 353 62 346
f 346 62 58
f 353 354 62
f 355 356 62
f 356 357 62
f 358 359 360
f 361 359 358
f 362 359 361
f 363 359 362
f 349 359 363
f 348 359 349
f 364 66 357
f 357 66 62
f 365 366 66
f 359 367 360
f 368 367 369
f 370 367 368
f 371 367 370
f 372 367 371
f 360 367 372
f 373 70 366
f 374 70 373
f 366 70 66
f 375 376 70
f 376 377 70
f 378 379 380
f 381 379 378
f 382 379 381
f 369 379 382
f 367 379 369
f 383 74 377
f 384 74 383
f 377 74 70
f 385 386 74
f 386 387 74
f 388 389 390
f 391 389 388
f 392 389 391
f 393 389 392
f 380 389 393
f 379 389 380
f 387 78 74
f 394 78 387
f 395 78 394
f 396 397 78
f 397 398 78
f 389 399 390
f 400 399 401
f 402 399 400
f 403 399 402
f 404 399 403
f 390 399 404
f 405 82 398
f 406 82 405
f 398 82 78
f 406 407 82
f 408 409 82
f 409 410 82
f 410 411 82
f 411 412 82
f 413 414 415
f 416 414 413
f 417 414 416
f 418 414 417
f 419 414 418
f 401 414 419
f 399 414 401
f 420 86 412
f 421 86 420
f 422 86 421
f 412 86 82
f 422 423 86
f 423 424 86
f 424 425 86
f 425 426 86
f 426 427 86
f 427 428 86
f 428 429 86
f 429 430 86
f 430 431 86
f 431 432 86
f 433 434 435
f 436 434 433
f 437 434 436
f 438 434 437
f 439 434 438
f 440 434 439
f 415 434 440
f 414 434 415
f 432 90 86
f 441 90 432
f 434 442 435
f 443 442 444
f 445 442 443
f 446 442 445
f 447 442 446
f 448 442 447
f 449 442 448
f 450 442 449
f 451 442 450
f 452 442 451
f 453 442 452
f 454 442 453
f 435 442 454
f 441 455 90
f 444 455 441
f 442 455 444
f 455 456 90
f 90 456 94
f 456 457 94
f 94 457 98
f 457 458 98
f 98 458 102
f 458 459 102
f 102 459 105
f 459 460 105
f 105 460 109
f 460 461 109
f 109 461 113
f 461 462 113
f 113 462 117
f 117 463 121
f 462 463 117
f 121 464 125
f 463 464 121
f 125 465 129
f 464 465 125
f 129 466 133
f 465 466 129
f 133 467 137
f 466 467 133
f 137 468 141
f 467 468 137
f 468 469 141
f 141 469 145
f 469 470 145
f 145 470 147
f 470 471 147
f 147 471 151
f 471 472 151
f 151 472 155
f 472 473 155
f 155 473 159
f 473 474 159
f 159 474 163
f 474 475 163
f 163 475 167
f 475 476 167
f 167 476 171
f 476 477 171
f 171 477 179
f 477 478 179
f 179 478 178
f 478 479 178
f 178 479 183
f 479 480 183
f 183 480 187
f 480 481 187
f 187 481 191
f 481 482 191
f 191 482 195
f 482 483 195
f 195 483 199
f 199 484 203
f 483 484 199
f 203 485 207
f 484 485 203
f 207 486 211
f 485 486 207
f 211 487 214
f 486 487 211
f 214 488 218
f 487 488 214
f 218 489 223
f 488 489 218
f 223 490 227
f 489 490 223
f 227 491 231
f 490 491 227
f 231 492 235
f 491 492 231
f 235 493 239
f 492 493 235
f 493 494 239
f 239 494 243
f 494 495 243
f 243 495 247
f 495 496 247
f 247 496 251
f 496 497 251
f 251 497 249
f 497 498 249
f 249 498 245
f 498 499 245
f 245 499 241
f 499 500 241
f 241 500 237
f 500 501 237
f 237 501 233
f 501 502 233
f 233 502 229
f 502 503 229
f 229 503 225
f 225 504 221
f 503 504 225
f 505 213 506
f 507 213 505
f 508 213 507
f 509 213 508
f 510 213 509
f 506 213 217
f 510 511 213
f 511 512 213
f 512 513 213
f 513 514 213
f 514 515 213
f 515 516 213
f 516 517 213
f 221 518 217
f 504 518 221
f 217 518 506
f 519 209 517
f 520 209 519
f 521 209 520
f 517 209 213
f 521 522 209
f 522 523 209
f 523 524 209
f 524 525 209
f 518 526 506
f 506 526 527
f 526 528 527
f 527 528 529
f 525 530 209
f 528 531 529
f 529 531 532
f 518 533 526
f 531 534 532
f 535 534 536
f 532 534 535
f 534 537 536
f 536 537 538
f 537 539 538
f 538 539 540
f 539 541 540
f 540 541 542
f 541 543 542
f 542 543 544
f 530 205 209
f 545 205 530
f 545 546 205
f 543 547 544
f 548 547 549
f 544 547 548
f 547 550 549
f 549 550 551
f 550 552 551
f 551 552 553
f 554 555 205
f 553 556 557
f 552 556 553
f 557 558 559
f 556 558 557
f 555 560 205
f 559 561 562
f 558 561 559
f 562 563 564
f 561 563 562
f 564 565 566
f 563 565 564
f 566 567 568
f 565 567 566
f 569 201 560
f 570 201 569
f 560 201 205
f 567 571 568
f 568 571 572
f 570 573 201
f 571 574 572
f 572 574 575
f 573 576 201
f 574 577 575
f 575 577 578
f 576 579 201
f 577 580 578
f 578 580 581
f 580 582 581
f 581 582 583
f 582 584 583
f 583 584 585
f 579 197 201
f 586 197 579
f 587 197 586
f 584 588 585
f 585 588 589
f 588 590 589
f 589 590 591
f 592 593 197
f 590 594 591
f 591 594 595
f 593 596 197
f 594 597 595
f 595 597 598
f 598 599 600
f 597 599 598
f 600 601 602
f 599 601 600
f 596 193 197
f 603 193 596
f 604 193 603
f 602 605 606
f 601 605 602
f 606 607 608
f 605 607 606
f 609 610 193
f 607 611 608
f 608 611 612
f 610 613 193
f 611 614 612
f 612 614 615
f 614 616 615
f 615 616 617
f 618 189 613
f 613 189 193
f 618 619 189
f 617 620 621
f 616 620 617
f 620 622 621
f 621 622 623
f 624 625 189
f 622 626 623
f 623 626 627
f 625 628 189
f 626 629 627
f 627 629 630
f 628 185 189
f 631 185 628
f 629 632 630
f 630 632 633
f 631 634 185
f 632 635 633
f 633 635 636
f 634 637 185
f 635 638 636
f 636 638 639
f 637 640 185
f 639 641 642
f 638 641 639
f 641 643 642
f 642 643 644
f 640 181 185
f 645 181 640
f 646 181 645
f 644 647 648
f 643 647 644
f 648 649 650
f 647 649 648
f 651 652 181
f 652 653 181
f 649 654 650
f 650 654 655
f 654 656 655
f 655 656 657
f 656 658 657
f 657 658 659
f 653 176 181
f 660 176 653
f 661 176 660
f 661 662 176
f 659 663 664
f 658 663 659
f 664 665 666
f 663 665 664
f 667 668 176
f 668 669 176
f 665 670 666
f 666 670 671
f 670 672 671
f 671 672 673
f 672 674 673
f 673 674 675
f 669 173 176
f 676 173 669
f 677 173 676
f 678 173 677
f 678 679 173
f 675 680 681
f 674 680 675
f 679 682 173
f 681 683 684
f 680 683 681
f 682 685 173
f 685 686 173
f 683 687 684
f 684 687 688
f 686 689 173
f 688 690 691
f 687 690 688
f 691 692 693
f 690 692 691
f 689 169 173
f 694 169 689
f 695 169 694
f 696 169 695
f 696 697 169
f 692 698 693
f 693 698 699
f 697 700 169
f 700 701 169
f 701 702 169
f 699 703 704
f 698 703 699
f 702 705 169
f 705 706 169
f 706 707 169
f 707 708 169
f 703 709 704
f 704 709 710
f 708 711 169
f 711 712 169
f 709 713 710
f 710 713 714
f 714 715 716
f 713 715 714
f 716 717 718
f 715 717 716
f 718 719 720
f 717 719 718
f 721 165 712
f 712 165 169
f 720 722 723
f 719 722 720
f 723 724 725
f 722 724 723
f 725 726 727
f 724 726 725
f 727 728 729
f 726 728 727
f 729 730 731
f 728 730 729
f 730 732 731
f 731 732 733
f 733 734 735
f 732 734 733
f 734 736 735
f 735 737 738
f 736 737 735
f 738 739 740
f 737 739 738
f 740 741 742
f 739 741 740
f 742 743 744
f 741 743 742
f 744 745 746
f 743 745 744
f 745 747 746
f 746 748 749
f 747 748 746
f 749 750 751
f 748 750 749
f 751 752 721
f 750 752 751
f 752 753 721
f 165 754 161
f 721 754 165
f 755 754 753
f 753 754 721
f 161 756 157
f 754 756 161
f 157 757 153
f 756 757 157
f 153 758 149
f 757 758 153
f 149 759 144
f 758 759 149
f 144 760 140
f 759 760 144
f 140 761 136
f 760 761 140
f 761 762 136
f 136 762 132
f 762 763 132
f 132 763 128
f 763 764 128
f 128 764 124
f 124 765 120
f 764 765 124
f 120 766 116
f 765 766 120
f 116 767 112
f 766 767 116
f 112 768 108
f 767 768 112
f 108 769 104
f 768 769 108
f 104 770 100
f 769 770 104
f 100 771 96
f 770 771 100
f 96 772 92
f 771 772 96
f 92 773 88
f 772 773 92
f 88 774 84
f 773 774 88
f 84 775 81
f 774 775 84
f 81 776 77
f 775 776 81
f 77 777 73
f 776 777 77
f 73 778 69
f 777 778 73
f 69 779 65
f 778 779 69
f 779 254 65
f 546 554 205
f 587 592 197
f 604 609 193
f 619 624 189
f 646 651 181
f 662 667 176
f 297 298 46
f 317 318 50
f 331 332 54
f 343 344 58
f 354 355 62
f 364 780 66
f 780 365 66
f 374 375 70
f 384 385 74
f 395 781 78
f 781 396 78
f 407 408 82
f 782 783 753
f 753 783 755
f 269 784 785
f 268 786 784
f 268 784 269
f 270 785 787
f 270 269 785
f 267 788 786
f 267 786 268
f 271 787 789
f 271 270 787
f 266 790 788
f 266 788 267
f 272 789 791
f 272 271 789
f 265 792 790
f 265 790 266
f 273 791 793
f 273 272 791
f 264 794 792
f 264 792 265
f 274 793 795
f 274 273 793
f 263 796 794
f 263 794 264
f 275 795 797
f 275 274 795
f 262 798 796
f 262 796 263
f 276 275 797
f 276 797 799
f 261 798 262
f 261 800 798
f 277 276 799
f 277 799 801
f 260 802 800
f 260 800 261
f 293 277 801
f 293 801 803
f 259 802 260
f 259 804 802
f 302 293 803
f 302 803 805
f 258 804 259
f 258 806 804
f 322 302 805
f 322 805 807
f 257 808 806
f 257 806 258
f 336 322 807
f 336 807 809
f 256 808 257
f 256 810 808
f 348 336 809
f 348 809 811
f 255 810 256
f 255 812 810
f 359 348 811
f 359 811 813
f 253 814 812
f 253 812 255
f 367 359 813
f 367 813 815
f 254 816 814
f 254 814 253
f 379 815 817
f 379 367 815
f 779 818 816
f 779 816 254
f 389 379 817
f 389 817 819
f 778 820 818
f 778 818 779
f 399 819 821
f 399 389 819
f 777 822 820
f 777 820 778
f 414 821 823
f 414 399 821
f 776 824 822
f 776 822 777
f 434 823 825
f 434 414 823
f 775 826 824
f 775 824 776
f 442 825 827
f 442 434 825
f 774 826 775
f 774 828 826
f 455 827 829
f 455 442 827
f 773 828 774
f 830 828 773
f 456 455 829
f 456 829 831
f 772 830 773
f 832 830 772
f 457 456 831
f 457 831 833
f 771 832 772
f 834 832 771
f 458 457 833
f 458 833 835
f 770 834 771
f 836 834 770
f 459 458 835
f 459 835 837
f 769 836 770
f 838 836 769
f 460 459 837
f 460 837 839
f 768 838 769
f 840 838 768
f 461 460 839
f 461 839 841
f 767 840 768
f 462 461 841
f 842 840 767
f 843 462 841
f 766 842 767
f 463 462 843
f 844 842 766
f 845 463 843
f 765 844 766
f 464 463 845
f 846 844 765
f 847 464 845
f 764 846 765
f 465 464 847
f 848 846 764
f 849 465 847
f 763 848 764
f 466 465 849
f 850 848 763
f 762 850 763
f 851 466 849
f 467 466 851
f 852 850 762
f 761 852 762
f 853 467 851
f 468 467 853
f 854 852 761
f 854 761 760
f 855 468 853
f 469 468 855
f 856 854 760
f 856 760 759
f 857 469 855
f 470 469 857
f 858 759 758
f 858 856 759
f 859 470 857
f 471 470 859
f 860 858 758
f 860 758 757
f 861 471 859
f 861 472 471
f 862 757 756
f 862 860 757
f 863 472 861
f 863 473 472
f 864 756 754
f 864 862 756
f 865 474 473
f 865 473 863
f 866 754 755
f 866 864 754
f 867 475 474
f 867 474 865
f 783 866 755
f 868 476 475
f 868 475 867
f 869 477 476
f 869 476 868
f 870 478 477
f 870 477 869
f 871 479 478
f 871 478 870
f 872 480 479
f 872 479 871
f 873 481 480
f 873 480 872
f 874 482 481
f 874 481 873
f 875 482 874
f 875 483 482
f 876 483 875
f 876 484 483
f 877 484 876
f 877 485 484
f 878 485 877
f 878 486 485
f 879 486 878
f 879 487 486
f 880 881 533
f 880 533 518
f 882 488 487
f 882 487 879
f 883 518 504
f 883 880 518
f 884 489 488
f 884 488 882
f 885 504 503
f 885 883 504
f 886 490 489
f 886 489 884
f 887 503 502
f 887 885 503
f 888 490 886
f 888 491 490
f 889 502 501
f 889 887 502
f 890 491 888
f 890 492 491
f 891 501 500
f 891 889 501
f 892 493 492
f 892 492 890
f 893 500 499
f 893 891 500
f 894 494 493
f 894 493 892
f 895 499 498
f 895 893 499
f 896 495 494
f 896 494 894
f 897 498 497
f 897 895 498
f 898 496 495
f 898 495 896
f 899 497 496
f 899 897 497
f 899 496 898
f 881 900 533
f 533 900 526
f 900 901 526
f 526 901 528
f 901 902 528
f 528 902 531
f 902 903 531
f 903 904 531
f 531 904 534
f 534 905 537
f 904 905 534
f 537 906 539
f 905 906 537
f 539 907 541
f 906 907 539
f 907 908 541
f 908 909 541
f 541 909 543
f 909 910 543
f 543 910 547
f 910 911 547
f 547 911 550
f 911 912 550
f 550 912 552
f 912 913 552
f 552 913 556
f 913 914 556
f 556 914 558
f 914 915 558
f 558 915 561
f 915 916 561
f 561 916 563
f 916 917 563
f 563 917 565
f 917 918 565
f 565 918 567
f 567 919 571
f 918 919 567
f 571 920 574
f 919 920 571
f 574 921 577
f 920 921 574
f 577 922 580
f 921 922 577
f 580 923 582
f 922 923 580
f 582 924 584
f 923 924 582
f 584 925 588
f 924 925 584
f 588 926 590
f 925 926 588
f 590 927 594
f 926 927 590
f 594 928 597
f 927 928 594
f 597 929 599
f 928 929 597
f 599 930 601
f 929 930 599
f 601 931 605
f 930 931 601
f 605 932 607
f 931 932 605
f 607 933 611
f 932 933 607
f 611 934 614
f 933 934 611
f 934 935 614
f 614 935 616
f 935 936 616
f 616 936 620
f 936 937 620
f 620 937 622
f 937 938 622
f 622 938 626
f 626 939 629
f 938 939 626
f 629 940 632
f 939 940 629
f 632 941 635
f 940 941 632
f 635 942 638
f 941 942 635
f 638 943 641
f 942 943 638
f 641 944 643
f 943 944 641
f 643 945 647
f 944 945 643
f 647 946 649
f 945 946 647
f 946 947 649
f 649 947 654
f 654 948 656
f 947 948 654
f 656 949 658
f 948 949 656
f 949 950 658
f 658 950 663
f 663 951 665
f 950 951 663
f 665 952 670
f 951 952 665
f 670 953 672
f 952 953 670
f 672 954 674
f 953 954 672
f 674 955 680
f 954 955 674
f 680 956 683
f 955 956 680
f 683 957 687
f 956 957 683
f 687 958 690
f 957 958 687
f 690 959 692
f 958 959 690
f 692 960 698
f 959 960 692
f 960 961 698
f 698 961 703
f 961 962 703
f 703 962 709
f 962 963 709
f 709 963 713
f 963 964 713
f 713 964 715
f 964 965 715
f 715 965 717
f 965 966 717
f 717 966 719
f 966 967 719
f 719 967 722
f 967 968 722
f 722 968 724
f 968 969 724
f 724 969 726
f 969 970 726
f 726 970 728
f 970 971 728
f 728 971 730
f 971 972 730
f 730 972 732
f 972 973 732
f 732 973 734
f 734 974 736
f 973 974 734
f 736 975 737
f 737 975 739
f 974 975 736
f 975 976 739
f 739 976 741
f 741 977 743
f 976 977 741
f 743 978 745
f 977 978 743
f 745 979 747
f 747 979 748
f 978 979 745
f 748 980 750
f 979 980 748
f 750 981 752
f 980 981 750
f 752 782 753
f 981 782 752
f 814 60 56
f 812 56 52
f 812 814 56
f 810 52 48
f 810 812 52
f 808 48 44
f 808 810 48
f 806 44 40
f 806 808 44
f 804 40 36
f 804 806 40
f 802 36 32
f 802 804 36
f 800 32 29
f 800 802 32
f 798 29 25
f 798 800 29
f 796 25 20
f 796 798 25
f 794 20 16
f 794 796 20
f 792 16 12
f 792 794 16
f 790 792 12
f 790 12 8
f 788 790 8
f 788 8 4
f 786 4 1
f 786 788 4
f 784 1 3
f 784 786 1
f 785 3 7
f 785 784 3
f 787 7 11
f 787 785 7
f 789 11 15
f 789 787 11
f 791 15 19
f 791 789 15
f 793 19 23
f 793 791 19
f 795 23 27
f 795 793 23
f 797 27 31
f 797 795 27
f 799 31 35
f 799 797 31
f 801 35 39
f 801 799 35
f 982 983 43
f 984 982 43
f 985 984 43
f 986 985 43
f 987 986 43
f 988 987 43
f 989 988 43
f 990 989 43
f 991 990 43
f 47 992 993
f 47 993 994
f 47 994 995
f 47 995 991
f 47 991 43
f 996 992 47
f 803 39 43
f 803 801 39
f 997 996 47
f 998 997 47
f 999 998 47
f 1000 999 47
f 1001 1000 47
f 51 1001 47
f 51 1002 1003
f 51 1003 1004
f 51 1004 1001
f 805 983 1005
f 805 1005 1006
f 805 1006 1007
f 805 1007 1008
f 805 1008 1009
f 805 1009 1010
f 805 1010 1011
f 805 1011 1012
f 805 43 983
f 805 803 43
f 1013 1014 51
f 1015 1013 51
f 1016 1015 51
f 55 1016 51
f 55 1017 1018
f 55 1018 1016
f 807 805 1012
f 807 1012 1019
f 807 1019 1020
f 807 1020 1021
f 807 1021 1022
f 807 1022 1023
f 807 1023 1024
f 807 1024 1025
f 807 1025 1026
f 807 1026 1027
f 1028 1017 55
f 1029 1030 55
f 1031 1029 55
f 59 1032 1033
f 59 1033 1031
f 59 1031 55
f 809 1027 1034
f 809 1034 1035
f 809 1035 1036
f 809 1036 1037
f 809 1037 1038
f 809 1038 1039
f 809 1039 1040
f 809 807 1027
f 1041 1042 59
f 1043 1041 59
f 63 1043 59
f 63 1044 1045
f 63 1045 1043
f 811 809 1040
f 811 1040 1046
f 811 1046 1047
f 811 1047 1048
f 811 1048 1049
f 811 1049 1050
f 811 1050 1051
f 1052 1053 63
f 1054 1052 63
f 67 1054 63
f 67 1055 1056
f 67 1056 1054
f 813 1051 1057
f 813 1057 1058
f 813 1058 1059
f 813 1059 1060
f 813 1060 1061
f 813 811 1051
f 1062 1063 67
f 1064 1062 67
f 71 1065 1066
f 71 1066 1064
f 71 1064 67
f 815 813 1061
f 815 1061 1067
f 815 1067 1068
f 815 1068 1069
f 815 1069 1070
f 815 1070 1071
f 1072 1073 71
f 1074 1072 71
f 75 1075 1074
f 75 1074 71
f 1076 1075 75
f 817 815 1071
f 817 1071 1077
f 817 1077 1078
f 817 1078 1079
f 817 1079 1080
f 817 1080 1081
f 1082 1083 75
f 1084 1082 75
f 79 1084 75
f 79 1085 1086
f 79 1086 1084
f 1087 1085 79
f 819 817 1081
f 819 1081 1088
f 819 1088 1089
f 819 1089 1090
f 819 1090 1091
f 819 1091 1092
f 819 1092 1093
f 1094 1095 79
f 1096 1094 79
f 1097 1096 79
f 83 1098 1099
f 83 1099 1100
f 83 1100 1097
f 83 1097 79
f 1101 1098 83
f 821 819 1093
f 821 1093 1102
f 821 1102 1103
f 821 1103 1104
f 821 1104 1105
f 821 1105 1106
f 1107 1101 83
f 1108 1107 83
f 1109 1108 83
f 1110 1109 83
f 1111 1110 83
f 1112 1111 83
f 87 1113 1114
f 87 1114 1115
f 87 1115 1116
f 87 1116 1117
f 87 1117 1118
f 87 1118 1119
f 87 1119 1112
f 87 1112 83
f 823 821 1106
f 823 1106 1120
f 823 1120 1121
f 823 1121 1122
f 823 1122 1123
f 823 1123 1124
f 823 1124 1125
f 823 1125 1126
f 823 1126 1127
f 825 823 1127
f 825 1127 1128
f 825 1128 1129
f 825 1129 1130
f 825 1130 1131
f 825 1131 1132
f 825 1132 1133
f 825 1133 1134
f 825 1134 1135
f 825 1135 1136
f 825 1136 1137
f 827 1138 1139
f 827 1139 1140
f 827 1140 1141
f 827 1141 1142
f 827 1142 1143
f 827 1143 1144
f 827 1144 1113
f 827 1113 87
f 827 87 91
f 827 825 1137
f 827 1137 1138
f 829 827 91
f 829 91 95
f 831 95 99
f 831 829 95
f 833 99 103
f 833 831 99
f 835 103 106
f 835 833 103
f 837 106 110
f 837 835 106
f 839 110 114
f 839 837 110
f 841 114 118
f 841 839 114
f 843 118 122
f 843 841 118
f 845 122 126
f 845 843 122
f 847 126 130
f 847 845 126
f 849 130 134
f 849 847 130
f 851 134 138
f 851 849 134
f 853 138 142
f 853 851 138
f 855 142 146
f 855 853 142
f 857 146 150
f 857 855 146
f 859 150 154
f 859 857 150
f 861 859 154
f 861 154 158
f 863 861 158
f 863 158 162
f 865 863 162
f 865 162 166
f 867 865 166
f 867 166 170
f 868 867 170
f 868 170 174
f 869 868 174
f 869 174 177
f 870 869 177
f 870 177 182
f 871 870 182
f 871 182 186
f 872 871 186
f 872 186 190
f 873 872 190
f 873 190 194
f 874 873 194
f 874 194 198
f 875 874 198
f 875 198 202
f 876 875 202
f 876 202 206
f 877 876 206
f 877 206 210
f 878 877 210
f 878 210 215
f 879 878 215
f 879 215 219
f 882 219 222
f 882 879 219
f 884 222 226
f 884 882 222
f 886 226 230
f 886 884 226
f 888 230 234
f 888 886 230
f 890 234 238
f 890 888 234
f 892 238 242
f 892 890 238
f 894 242 246
f 894 892 242
f 896 246 250
f 896 894 246
f 898 250 252
f 898 896 250
f 899 898 252
f 899 252 248
f 897 899 248
f 897 248 244
f 895 897 244
f 895 244 240
f 893 895 240
f 893 240 236
f 891 893 236
f 891 236 232
f 889 891 232
f 889 232 228
f 887 889 228
f 887 228 224
f 885 887 224
f 885 224 220
f 883 885 220
f 883 220 216
f 1145 1146 212
f 1147 1145 212
f 1148 1147 212
f 1149 1148 212
f 1150 1149 212
f 1151 1150 212
f 1152 1151 212
f 1153 1152 212
f 1154 1153 212
f 208 1155 1156
f 208 1156 1157
f 208 1157 1158
f 208 1158 1154
f 208 1154 212
f 1159 1155 208
f 1160 1159 208
f 880 883 216
f 880 212 1146
f 880 216 212
f 1161 1160 208
f 1162 1161 208
f 1163 1162 208
f 1164 1163 208
f 204 1164 208
f 204 1165 1166
f 204 1166 1164
f 1167 1165 204
f 900 880 1146
f 901 900 1146
f 901 1146 1168
f 902 901 1168
f 902 1168 1169
f 903 902 1169
f 881 880 900
f 904 903 1169
f 904 1169 1170
f 905 904 1170
f 905 1170 1171
f 906 905 1171
f 906 1171 1172
f 1173 1174 204
f 907 906 1172
f 907 1172 1175
f 908 907 1175
f 909 908 1175
f 909 1175 1176
f 1177 1173 204
f 910 909 1176
f 910 1176 1178
f 911 910 1178
f 911 1178 1179
f 1180 1177 204
f 912 911 1179
f 912 1179 1181
f 913 912 1181
f 913 1181 1182
f 914 913 1182
f 914 1182 1183
f 915 1183 1184
f 915 914 1183
f 200 1185 1186
f 200 1186 1180
f 200 1180 204
f 916 1184 1187
f 916 915 1184
f 917 1187 1188
f 917 916 1187
f 918 1188 1189
f 918 917 1188
f 1190 1191 200
f 919 1189 1192
f 919 918 1189
f 1193 1190 200
f 920 1192 1194
f 920 919 1192
f 1195 1193 200
f 921 1194 1196
f 921 920 1194
f 922 1196 1197
f 922 921 1196
f 923 1197 1198
f 923 922 1197
f 196 1195 200
f 196 1199 1195
f 1200 1199 196
f 924 1198 1201
f 924 923 1198
f 925 1201 1202
f 925 924 1201
f 926 1202 1203
f 926 925 1202
f 1204 1205 196
f 927 1203 1206
f 927 926 1203
f 1207 1204 196
f 928 1206 1208
f 928 927 1206
f 929 1208 1209
f 929 928 1208
f 192 1210 1207
f 192 1207 196
f 1211 1210 192
f 930 1209 1212
f 930 929 1209
f 931 1212 1213
f 931 930 1212
f 1214 1215 192
f 932 1213 1216
f 932 931 1213
f 1217 1214 192
f 933 1216 1218
f 933 932 1216
f 934 1218 1219
f 934 933 1218
f 188 1220 1221
f 188 1221 1217
f 188 1217 192
f 935 1219 1222
f 935 934 1219
f 936 1222 1223
f 936 935 1222
f 1224 1225 188
f 937 1223 1226
f 937 936 1223
f 1227 1224 188
f 938 1226 1228
f 938 937 1226
f 939 938 1228
f 939 1228 1229
f 184 1230 1231
f 184 1231 1227
f 184 1227 188
f 940 939 1229
f 940 1229 1232
f 941 940 1232
f 941 1232 1233
f 1234 1235 184
f 942 1233 1236
f 942 941 1233
f 1237 1234 184
f 943 1236 1238
f 943 942 1236
f 944 1238 1239
f 944 943 1238
f 945 1239 1240
f 945 944 1239
f 180 1237 184
f 180 1241 1242
f 180 1242 1237
f 1243 1241 180
f 946 1240 1244
f 946 945 1240
f 1245 1243 180
f 947 1244 1246
f 947 946 1244
f 1247 1245 180
f 948 1246 1248
f 948 947 1246
f 1249 1247 180
f 949 1248 1250
f 949 948 1248
f 950 1250 1251
f 950 949 1250
f 175 1249 180
f 175 1252 1253
f 175 1253 1249
f 1254 1252 175
f 951 950 1251
f 951 1251 1255
f 1256 1254 175
f 952 951 1255
f 952 1255 1257
f 1258 1256 175
f 1259 1258 175
f 953 952 1257
f 953 1257 1260
f 1261 1259 175
f 954 1260 1262
f 954 953 1260
f 955 954 1262
f 955 1262 1263
f 172 1261 175
f 172 1264 1265
f 172 1265 1266
f 172 1266 1261
f 956 955 1263
f 956 1263 1267
f 1268 1264 172
f 1269 1268 172
f 957 1267 1270
f 957 956 1267
f 1271 1269 172
f 1272 1271 172
f 958 1270 1273
f 958 957 1270
f 1274 1272 172
f 1275 1274 172
f 959 1273 1276
f 959 958 1273
f 1277 1275 172
f 960 1276 1278
f 960 959 1276
f 961 1278 1279
f 961 960 1278
f 168 1280 1281
f 168 1281 1282
f 168 1282 1283
f 168 1283 1284
f 168 1284 1285
f 168 1285 1286
f 168 1286 1287
f 168 1287 1288
f 168 1288 1277
f 168 1277 172
f 962 1279 1289
f 962 961 1279
f 963 1289 1290
f 963 962 1289
f 964 1290 1291
f 964 963 1290
f 965 964 1291
f 965 1291 1292
f 966 1292 1293
f 966 965 1292
f 967 966 1293
f 967 1293 1294
f 968 1294 1295
f 968 967 1294
f 969 1295 1296
f 969 968 1295
f 970 1296 1297
f 970 969 1296
f 971 1297 1298
f 971 970 1297
f 972 1298 1299
f 972 971 1298
f 973 972 1299
f 973 1299 1300
f 974 1300 1301
f 974 973 1300
f 975 1301 1302
f 975 974 1301
f 976 975 1302
f 976 1302 1303
f 976 1303 1304
f 977 976 1304
f 977 1304 1305
f 978 977 1305
f 978 1305 1306
f 979 1306 1307
f 979 978 1306
f 980 979 1307
f 980 1307 1308
f 980 1308 1309
f 981 980 1309
f 981 1309 1280
f 782 981 1280
f 866 1280 168
f 866 783 782
f 866 782 1280
f 866 168 164
f 864 164 160
f 864 866 164
f 862 160 156
f 862 864 160
f 860 156 152
f 860 862 156
f 858 152 148
f 858 860 152
f 856 148 143
f 856 858 148
f 854 143 139
f 854 856 143
f 852 139 135
f 852 854 139
f 850 135 131
f 850 852 135
f 848 850 131
f 848 131 127
f 846 848 127
f 846 127 123
f 844 123 119
f 844 846 123
f 842 119 115
f 842 844 119
f 840 115 111
f 840 842 115
f 838 111 107
f 838 840 111
f 836 107 101
f 836 838 107
f 834 101 97
f 834 836 101
f 832 97 93
f 832 834 97
f 830 93 89
f 830 832 93
f 828 89 85
f 828 830 89
f 826 85 80
f 826 828 85
f 824 80 76
f 824 826 80
f 822 76 72
f 822 824 76
f 820 72 68
f 820 822 72
f 818 68 64
f 818 820 68
f 816 64 60
f 816 818 64
f 814 816 60
f 1095 1087 79
f 1083 1076 75
f 1073 1310 71
f 1310 1065 71
f 1063 1055 67
f 1053 1044 63
f 1042 1032 59
f 1030 1028 55
f 1014 1002 51
f 1235 1230 184
f 1225 1220 188
f 1215 1211 192
f 1205 1200 196
f 1191 1185 200
f 1174 1167 204
f 1146 1145 506
f 506 1145 505
f 1145 1147 505
f 505 1147 507
f 1147 1148 507
f 507 1148 508
f 1148 1149 508
f 1149 1150 508
f 508 1150 509
f 1150 1151 509
f 509 1151 510
f 1151 1152 510
f 510 1152 511
f 1152 1153 511
f 511 1153 512
f 1153 1154 512
f 512 1154 513
f 1154 1158 513
f 1158 1157 513
f 513 1157 514
f 514 1156 515
f 1157 1156 514
f 515 1155 516
f 1156 1155 515
f 516 1159 517
f 1155 1159 516
f 517 1160 519
f 1159 1160 517
f 519 1161 520
f 1160 1161 519
f 520 1162 521
f 1161 1162 520
f 521 1163 522
f 1162 1163 521
f 1163 1164 522
f 522 1164 523
f 1164 1166 523
f 523 1166 524
f 1166 1165 524
f 524 1165 525
f 1165 1167 525
f 525 1167 530
f 1167 1174 530
f 530 1174 545
f 1174 1173 545
f 545 1173 546
f 1173 1177 546
f 546 1177 554
f 1177 1180 554
f 554 1180 555
f 1180 1186 555
f 555 1186 560
f 1186 1185 560
f 560 1185 569
f 1185 1191 569
f 569 1191 570
f 1191 1190 570
f 570 1190 573
f 1190 1193 573
f 573 1193 576
f 1193 1195 576
f 576 1195 579
f 1195 1199 579
f 579 1199 586
f 1199 1200 586
f 586 1200 587
f 1200 1205 587
f 587 1205 592
f 593 1204 596
f 1205 1204 592
f 592 1204 593
f 596 1207 603
f 1204 1207 596
f 603 1210 604
f 1207 1210 603
f 1210 1211 604
f 604 1215 609
f 1211 1215 604
f 609 1214 610
f 610 1214 613
f 1215 1214 609
f 613 1217 618
f 1214 1217 613
f 618 1221 619
f 1217 1221 618
f 1221 1220 619
f 619 1220 624
f 1220 1225 624
f 624 1225 625
f 625 1224 628
f 1225 1224 625
f 628 1227 631
f 1224 1227 628
f 631 1231 634
f 1227 1231 631
f 634 1230 637
f 1231 1230 634
f 637 1235 640
f 1230 1235 637
f 640 1234 645
f 1235 1234 640
f 645 1237 646
f 1234 1237 645
f 646 1242 651
f 1237 1242 646
f 651 1241 652
f 1242 1241 651
f 652 1243 653
f 1241 1243 652
f 653 1245 660
f 1243 1245 653
f 660 1247 661
f 1245 1247 660
f 661 1249 662
f 1247 1249 661
f 662 1253 667
f 1249 1253 662
f 667 1252 668
f 1253 1252 667
f 668 1254 669
f 1252 1254 668
f 669 1256 676
f 1254 1256 669
f 676 1258 677
f 1256 1258 676
f 677 1259 678
f 1258 1259 677
f 678 1261 679
f 1259 1261 678
f 679 1266 682
f 1261 1266 679
f 682 1265 685
f 1266 1265 682
f 685 1264 686
f 1265 1264 685
f 1264 1268 686
f 686 1268 689
f 1268 1269 689
f 689 1269 694
f 1269 1271 694
f 694 1271 695
f 1271 1272 695
f 695 1272 696
f 1272 1274 696
f 696 1274 697
f 1274 1275 697
f 697 1275 700
f 1275 1277 700
f 700 1277 701
f 1277 1288 701
f 701 1288 702
f 1288 1287 702
f 702 1287 705
f 1287 1286 705
f 705 1286 706
f 706 1285 707
f 1286 1285 706
f 707 1284 708
f 1285 1284 707
f 708 1283 711
f 1284 1283 708
f 711 1282 712
f 1283 1282 711
f 712 1281 721
f 1282 1281 712
f 721 1280 751
f 1281 1280 721
f 751 1309 749
f 1280 1309 751
f 1309 1308 749
f 749 1307 746
f 1308 1307 749
f 746 1306 744
f 1307 1306 746
f 744 1305 742
f 1306 1305 744
f 742 1304 740
f 1305 1304 742
f 1304 1303 740
f 740 1302 738
f 1303 1302 740
f 738 1301 735
f 1302 1301 738
f 735 1300 733
f 1301 1300 735
f 1300 1299 733
f 733 1299 731
f 1299 1298 731
f 731 1298 729
f 1298 1297 729
f 729 1297 727
f 1297 1296 727
f 727 1296 725
f 1296 1295 725
f 725 1295 723
f 1295 1294 723
f 723 1294 720
f 1294 1293 720
f 720 1293 718
f 1293 1292 718
f 718 1292 716
f 1292 1291 716
f 716 1291 714
f 1291 1290 714
f 714 1290 710
f 1290 1289 710
f 710 1289 704
f 1289 1279 704
f 704 1279 699
f 1279 1278 699
f 699 1278 693
f 1278 1276 693
f 693 1276 691
f 1276 1273 691
f 691 1273 688
f 1273 1270 688
f 688 1270 684
f 1270 1267 684
f 684 1267 681
f 1267 1263 681
f 681 1263 675
f 675 1262 673
f 1263 1262 675
f 673 1260 671
f 1262 1260 673
f 671 1257 666
f 1260 1257 671
f 666 1255 664
f 1257 1255 666
f 664 1251 659
f 1255 1251 664
f 659 1250 657
f 1251 1250 659
f 657 1248 655
f 1250 1248 657
f 1248 1246 655
f 655 1246 650
f 1246 1244 650
f 650 1244 648
f 1244 1240 648
f 648 1240 644
f 1240 1239 644
f 644 1239 642
f 1239 1238 642
f 642 1238 639
f 1238 1236 639
f 639 1236 636
f 1236 1233 636
f 636 1233 633
f 1233 1232 633
f 633 1232 630
f 1232 1229 630
f 630 1229 627
f 1229 1228 627
f 627 1228 623
f 1228 1226 623
f 623 1226 621
f 1226 1223 621
f 621 1223 617
f 1223 1222 617
f 617 1222 615
f 1222 1219 615
f 615 1219 612
f 1219 1218 612
f 612 1218 608
f 1218 1216 608
f 608 1216 606
f 1216 1213 606
f 606 1213 602
f 1213 1212 602
f 602 1212 600
f 1212 1209 600
f 600 1209 598
f 598 1208 595
f 1209 1208 598
f 595 1206 591
f 1208 1206 595
f 591 1203 589
f 1206 1203 591
f 589 1202 585
f 1203 1202 589
f 585 1201 583
f 1202 1201 585
f 583 1198 581
f 1201 1198 583
f 1198 1197 581
f 581 1197 578
f 1197 1196 578
f 578 1196 575
f 575 1194 572
f 1196 1194 575
f 572 1192 568
f 1194 1192 572
f 568 1189 566
f 1192 1189 568
f 566 1188 564
f 1189 1188 566
f 564 1187 562
f 1188 1187 564
f 562 1184 559
f 1187 1184 562
f 1184 1183 559
f 559 1183 557
f 557 1182 553
f 1183 1182 557
f 553 1181 551
f 1182 1181 553
f 1181 1179 551
f 551 1179 549
f 549 1178 548
f 1179 1178 549
f 548 1176 544
f 544 1176 542
f 1178 1176 548
f 542 1175 540
f 1176 1175 542
f 540 1172 538
f 1175 1172 540
f 538 1171 536
f 1172 1171 538
f 536 1170 535
f 535 1170 532
f 1171 1170 536
f 532 1169 529
f 1170 1169 532
f 529 1168 527
f 1169 1168 529
f 527 1146 506
f 1168 1146 527
f 441 432 1113
f 1113 432 1114
f 432 431 1114
f 1114 431 1115
f 431 430 1115
f 1115 430 1116
f 430 429 1116
f 429 428 1116
f 1116 428 1117
f 428 427 1117
f 1117 427 1118
f 427 426 1118
f 1118 426 1119
f 426 425 1119
f 1119 425 1112
f 425 424 1112
f 424 423 1112
f 1112 423 1111
f 423 422 1111
f 1111 422 1110
f 1110 421 1109
f 422 421 1110
f 1109 420 1108
f 421 420 1109
f 1108 412 1107
f 420 412 1108
f 1107 411 1101
f 412 411 1107
f 1101 410 1098
f 411 410 1101
f 1098 409 1099
f 410 409 1098
f 409 408 1099
f 1099 408 1100
f 408 407 1100
f 1100 407 1097
f 407 406 1097
f 1097 406 1096
f 406 405 1096
f 1096 405 1094
f 405 398 1094
f 1094 398 1095
f 398 397 1095
f 1095 397 1087
f 397 396 1087
f 1087 396 1085
f 396 781 1085
f 1085 781 1086
f 781 395 1086
f 1086 395 1084
f 395 394 1084
f 1084 394 1082
f 394 387 1082
f 1082 387 1083
f 387 386 1083
f 1083 386 1076
f 386 385 1076
f 1076 385 1075
f 385 384 1075
f 1075 384 1074
f 384 383 1074
f 1074 383 1072
f 383 377 1072
f 1072 377 1073
f 377 376 1073
f 1073 376 1310
f 376 375 1310
f 1310 375 1065
f 1065 374 1066
f 375 374 1065
f 1066 373 1064
f 374 373 1066
f 1064 366 1062
f 373 366 1064
f 1062 365 1063
f 366 365 1062
f 1063 780 1055
f 365 780 1063
f 1055 364 1056
f 780 364 1055
f 1056 357 1054
f 364 357 1056
f 1054 356 1052
f 357 356 1054
f 356 355 1052
f 1052 355 1053
f 1053 354 1044
f 355 354 1053
f 1044 353 1045
f 354 353 1044
f 1045 346 1043
f 353 346 1045
f 1043 345 1041
f 346 345 1043
f 1041 344 1042
f 345 344 1041
f 1042 343 1032
f 344 343 1042
f 1032 342 1033
f 343 342 1032
f 1033 334 1031
f 342 334 1033
f 1031 333 1029
f 334 333 1031
f 1029 332 1030
f 333 332 1029
f 1030 331 1028
f 332 331 1030
f 1028 330 1017
f 331 330 1028
f 1017 320 1018
f 330 320 1017
f 1018 319 1016
f 320 319 1018
f 1016 318 1015
f 319 318 1016
f 1015 317 1013
f 318 317 1015
f 1013 316 1014
f 317 316 1013
f 1014 315 1002
f 316 315 1014
f 1002 301 1003
f 315 301 1002
f 1003 300 1004
f 301 300 1003
f 1004 299 1001
f 300 299 1004
f 1001 298 1000
f 299 298 1001
f 1000 297 999
f 298 297 1000
f 999 296 998
f 297 296 999
f 296 295 998
f 998 295 997
f 295 292 997
f 997 292 996
f 292 291 996
f 996 291 992
f 291 290 992
f 992 290 993
f 290 289 993
f 993 289 994
f 289 288 994
f 994 288 995
f 288 287 995
f 995 287 991
f 287 286 991
f 991 286 990
f 286 285 990
f 990 285 989
f 285 284 989
f 989 284 988
f 988 283 987
f 284 283 988
f 987 282 986
f 283 282 987
f 986 281 985
f 282 281 986
f 985 280 984
f 281 280 985
f 984 279 982
f 280 279 984
f 982 278 983
f 279 278 982
f 983 294 1005
f 278 294 983
f 1005 314 1006
f 294 314 1005
f 1006 313 1007
f 314 313 1006
f 313 312 1007
f 1007 311 1008
f 312 311 1007
f 1008 310 1009
f 311 310 1008
f 1009 309 1010
f 310 309 1009
f 1010 308 1011
f 309 308 1010
f 308 307 1011
f 1011 306 1012
f 307 306 1011
f 306 305 1012
f 1012 305 1019
f 305 303 1019
f 1019 303 1020
f 303 304 1020
f 1020 304 1021
f 304 329 1021
f 1021 329 1022
f 329 328 1022
f 1022 328 1023
f 328 327 1023
f 1023 327 1024
f 327 326 1024
f 1024 326 1025
f 326 325 1025
f 1025 325 1026
f 325 324 1026
f 1026 324 1027
f 324 321 1027
f 1027 321 1034
f 321 323 1034
f 1034 323 1035
f 323 341 1035
f 1035 341 1036
f 341 340 1036
f 1036 340 1037
f 340 339 1037
f 1037 339 1038
f 339 338 1038
f 1038 338 1039
f 338 335 1039
f 1039 335 1040
f 335 337 1040
f 1040 337 1046
f 337 352 1046
f 1046 352 1047
f 1047 351 1048
f 352 351 1047
f 1048 350 1049
f 351 350 1048
f 1049 347 1050
f 350 347 1049
f 1050 349 1051
f 347 349 1050
f 1051 363 1057
f 349 363 1051
f 1057 362 1058
f 363 362 1057
f 1058 361 1059
f 362 361 1058
f 361 358 1059
f 1059 358 1060
f 358 360 1060
f 1060 360 1061
f 360 372 1061
f 1061 372 1067
f 372 371 1067
f 1067 371 1068
f 371 370 1068
f 1068 370 1069
f 370 368 1069
f 1069 368 1070
f 368 369 1070
f 1070 369 1071
f 369 382 1071
f 1071 382 1077
f 382 381 1077
f 1077 381 1078
f 381 378 1078
f 1078 378 1079
f 378 380 1079
f 1079 380 1080
f 380 393 1080
f 1080 393 1081
f 393 392 1081
f 1081 392 1088
f 392 391 1088
f 1088 391 1089
f 391 388 1089
f 1089 388 1090
f 388 390 1090
f 1090 390 1091
f 390 404 1091
f 1091 404 1092
f 404 403 1092
f 1092 403 1093
f 403 402 1093
f 1093 402 1102
f 1102 400 1103
f 402 400 1102
f 1103 401 1104
f 400 401 1103
f 1104 419 1105
f 401 419 1104
f 1105 418 1106
f 419 418 1105
f 1106 417 1120
f 418 417 1106
f 1120 416 1121
f 417 416 1120
f 1121 413 1122
f 416 413 1121
f 413 415 1122
f 1122 415 1123
f 1123 440 1124
f 415 440 1123
f 1124 439 1125
f 440 439 1124
f 1125 438 1126
f 439 438 1125
f 1126 437 1127
f 438 437 1126
f 1127 436 1128
f 437 436 1127
f 1128 433 1129
f 436 433 1128
f 1129 435 1130
f 433 435 1129
f 1130 454 1131
f 435 454 1130
f 1131 453 1132
f 454 453 1131
f 1132 452 1133
f 453 452 1132
f 1133 451 1134
f 452 451 1133
f 1134 450 1135
f 451 450 1134
f 1135 449 1136
f 450 449 1135
f 1136 448 1137
f 1137 448 1138
f 449 448 1136
f 448 447 1138
f 1138 447 1139
f 1139 446 1140
f 447 446 1139
f 1140 445 1141
f 446 445 1140
f 1141 443 1142
f 1142 443 1143
f 445 443 1141
f 1143 444 1144
f 443 444 1143
f 1144 441 1113
f 444 441 1144
