# smartdrone2 body-local mesh, millimetres
v 70.180798 -32.609532 -44.025434
v 70.440801 -32.662473 -44.001564
v 70.412412 -32.609531 -43.956095
v 70.621792 -32.609531 -43.835210
v 70.679452 -32.711342 -43.919422
v 70.843889 -32.747020 -43.823096
v 70.797644 -32.609515 -43.669293
v 70.986364 -32.780582 -43.705001
v 70.938321 -32.622782 -43.481171
v 71.112864 -32.814476 -43.561156
v 71.431720 -33.000000 -43.000000
v 71.395823 -33.000000 -42.681412
v 71.349248 -32.917528 -43.000000
v 70.892663 -33.000000 -41.880637
v 70.621200 -33.000000 -41.710065
v 70.599098 -32.710995 -42.026926
v 70.201049 -32.733361 -41.852398
v 70.000000 -33.000000 -41.568280
v 70.000000 -32.743610 -41.824671
v 70.318588 -33.000000 -41.604177
v 71.187084 -32.804765 -43.346014
v 71.033940 -32.635896 -43.266030
v 71.079933 -32.648821 -43.035829
v 71.208355 -32.844993 -43.412195
v 71.285882 -32.876481 -43.241673
v 71.231780 -32.804765 -42.892241
v 71.075104 -32.661586 -42.801351
v 71.108972 -32.804765 -42.453122
v 71.020484 -32.674158 -42.573919
v 70.919230 -32.686601 -42.363105
v 71.119363 -33.000000 -42.107337
v 71.289935 -33.000000 -42.378800
v 70.835360 -32.804765 -42.088371
v 70.776690 -32.698861 -42.178456
v 70.448151 -32.804765 -41.847587
v 70.394486 -32.723009 -41.914744
v 68.958750 -29.453231 -43.000000
v 68.980927 -29.499070 -42.786243
v 68.958750 -29.518325 -43.000000
v 68.985206 -29.432176 -42.766772
v 69.046325 -29.479826 -42.582022
v 68.958750 -28.932628 -43.000000
v 68.958750 -28.390468 -43.000000
v 68.965687 -28.921879 -42.880011
v 69.063235 -29.411098 -42.545388
v 69.164108 -29.458789 -42.379124
v 68.984856 -28.390468 -42.768300
v 68.986393 -28.911098 -42.761666
v 69.061866 -28.390468 -42.548219
v 69.065424 -28.890080 -42.540904
v 69.188880 -29.390063 -42.347094
v 69.324424 -29.437726 -42.207662
v 69.185918 -28.390468 -42.350791
v 69.191860 -28.869017 -42.343410
v 69.355754 -29.368983 -42.181985
v 69.519088 -29.416652 -42.076461
v 69.350791 -28.390468 -42.185918
v 69.359277 -28.847998 -42.179222
v 69.555308 -29.347936 -42.058485
v 69.738201 -29.395614 -41.992199
v 69.548219 -28.390468 -42.061866
v 69.559124 -28.826959 -42.056692
v 69.776730 -29.326959 -41.982969
v 69.970605 -29.374531 -41.959165
v 69.768300 -28.390468 -41.984856
v 69.780604 -28.805982 -41.982126
v 70.009879 -29.305910 -41.958797
v 70.204492 -29.353482 -41.979028
v 70.000000 -28.390469 -41.958749
v 70.013595 -28.784994 -41.958839
v 70.242123 -29.284928 -41.987292
v 70.427986 -29.332431 -42.050774
v 70.245509 -28.764015 -41.988107
v 70.255612 -28.390468 -41.990612
v 70.462805 -29.263870 -42.067255
v 70.629734 -29.311352 -42.170761
v 70.465704 -28.742979 -42.068699
v 70.495580 -28.390468 -42.084248
v 70.659996 -29.242794 -42.194639
v 70.799238 -29.290334 -42.332602
v 70.662299 -28.721955 -42.196532
v 70.705219 -28.390468 -42.233927
v 70.823628 -29.221759 -42.362946
v 70.928179 -29.269328 -42.528104
v 70.825292 -28.700894 -42.365102
v 70.871700 -28.390468 -42.430490
v 70.945395 -29.200682 -42.563616
v 71.010142 -29.248325 -42.747385
v 70.946427 -28.679877 -42.565860
v 71.019118 -29.179628 -42.786458
v 71.041054 -29.227305 -42.979775
v 70.984832 -28.390468 -42.661907
v 71.019570 -28.658838 -42.788625
v 71.041055 -29.158583 -43.020154
v 71.019132 -29.206228 -43.213477
v 71.037694 -28.390468 -42.914014
v 71.041015 -28.637789 -43.022114
v 71.010070 -29.137493 -43.252903
v 70.945418 -29.185178 -43.436333
v 71.027049 -28.390468 -43.171384
v 71.009654 -28.616770 -43.254560
v 70.927796 -29.116463 -43.472648
v 70.868310 -29.105869 -43.574665
v 70.823657 -29.164126 -43.637016
v 70.953549 -28.390468 -43.418265
v 70.927134 -28.595721 -43.473945
v 70.797644 -29.095299 -43.669303
v 70.660025 -29.143042 -43.805337
v 70.797644 -28.574703 -43.669303
v 70.821693 -28.390468 -43.639549
v 70.639549 -28.390468 -43.821693
v 70.462844 -29.122007 -43.932726
v 70.418265 -28.390468 -43.953549
v 70.242151 -29.100933 -44.012702
v 70.171384 -28.390468 -44.027049
v 70.009161 -29.079873 -44.041210
v 69.914014 -28.390468 -44.037694
v 69.775884 -29.058833 -44.016845
v 69.661907 -28.390468 -43.984832
v 69.554485 -29.037833 -43.941126
v 69.430490 -28.390468 -43.871700
v 69.355328 -29.016824 -43.817679
v 69.233927 -28.390468 -43.705219
v 69.188877 -28.995816 -43.652903
v 69.084248 -28.390468 -43.495580
v 69.063235 -28.974739 -43.454612
v 68.990612 -28.390468 -43.255612
v 68.985206 -28.953700 -43.233228
v 68.958750 -30.038941 -43.000000
v 68.979213 -30.085516 -42.794586
v 68.958750 -30.104050 -43.000000
v 68.985288 -30.017830 -42.766418
v 69.039796 -30.067023 -42.597246
v 69.063349 -29.996791 -42.545152
v 69.154798 -30.045900 -42.391859
v 69.189437 -29.975674 -42.346403
v 69.312989 -30.024772 -42.217557
v 69.356997 -29.954540 -42.181008
v 69.506294 -30.003673 -42.083236
v 69.557430 -29.933442 -42.057486
v 69.724497 -29.982574 -41.995859
v 69.780471 -29.912299 -41.982155
v 69.956488 -29.961507 -41.959660
v 70.014723 -29.891187 -41.958854
v 70.190681 -29.940442 -41.976359
v 70.248224 -29.870077 -41.988770
v 70.415427 -29.919345 -42.045211
v 70.469044 -29.848933 -42.070377
v 70.619273 -29.898244 -42.162920
v 70.665902 -29.827832 -42.199515
v 70.791466 -29.877123 -42.323404
v 70.828357 -29.806762 -42.369108
v 70.923218 -29.855990 -42.518471
v 70.948744 -29.785662 -42.570947
v 71.007790 -29.834895 -42.738160
v 71.020724 -29.764621 -42.794276
v 71.040853 -29.813753 -42.971243
v 71.040855 -29.743504 -43.028667
v 71.020714 -29.792643 -43.205778
v 71.007813 -29.722390 -43.261754
v 70.948410 -29.771532 -43.429791
v 70.923250 -29.701279 -43.481468
v 70.827748 -29.750420 -43.631691
v 70.791480 -29.680134 -43.676580
v 70.665294 -29.729379 -43.800990
v 70.619257 -29.659037 -43.837091
v 70.468755 -29.708285 -43.929768
v 70.415389 -29.637905 -43.954806
v 70.248453 -29.687210 -44.011174
v 70.190293 -29.616778 -44.023714
v 70.014961 -29.666112 -44.041143
v 69.955465 -29.595677 -44.040297
v 69.780719 -29.644973 -44.017899
v 69.723266 -29.574582 -44.003802
v 69.557689 -29.623862 -43.942636
v 69.505347 -29.553508 -43.916253
v 69.357262 -29.602755 -43.819200
v 69.312640 -29.532445 -43.782136
v 69.189673 -29.581612 -43.653889
v 69.154694 -29.511341 -43.607996
v 69.063491 -29.560515 -43.455141
v 69.039719 -29.490239 -43.402570
v 68.985190 -29.539386 -43.233158
v 68.979193 -29.471723 -43.205316
v 68.958750 -30.624622 -43.000000
v 68.963648 -30.680686 -42.899123
v 68.958750 -30.689738 -43.000000
v 68.985181 -30.603590 -42.766881
v 68.978261 -30.671668 -42.799373
v 69.021545 -30.657202 -42.643871
v 69.063131 -30.582543 -42.545602
v 69.083932 -30.643567 -42.505003
v 69.188641 -30.561479 -42.347392
v 69.165935 -30.629902 -42.376673
v 69.326609 -30.608880 -42.205805
v 69.355348 -30.540452 -42.182305
v 69.521529 -30.587824 -42.075194
v 69.554797 -30.519386 -42.058727
v 69.740722 -30.566762 -41.991548
v 69.776300 -30.498389 -41.983064
v 69.973089 -30.545738 -41.959098
v 70.009252 -30.477391 -41.958791
v 70.206840 -30.524666 -41.979501
v 70.241389 -30.456401 -41.987117
v 70.430076 -30.503626 -42.051719
v 70.461878 -30.435370 -42.066796
v 70.631469 -30.482584 -42.172082
v 70.659082 -30.414322 -42.193891
v 70.800705 -30.461535 -42.334363
v 70.822832 -30.393257 -42.361918
v 70.929052 -30.440568 -42.529825
v 70.944812 -30.372233 -42.562355
v 71.010641 -30.419538 -42.749388
v 71.018813 -30.351161 -42.785008
v 71.041084 -30.398545 -42.981412
v 71.041085 -30.330118 -43.018562
v 71.018813 -30.377516 -43.214990
v 71.010502 -30.309080 -43.251171
v 70.944816 -30.356444 -43.437635
v 70.928619 -30.288013 -43.471028
v 70.822856 -30.335407 -43.638051
v 70.799791 -30.267005 -43.666734
v 70.659124 -30.314366 -43.806075
v 70.630708 -30.246011 -43.828498
v 70.461924 -30.293297 -43.933182
v 70.429722 -30.225017 -43.948441
v 70.241257 -30.272272 -44.012915
v 70.206822 -30.204008 -44.020503
v 70.008326 -30.251208 -44.041217
v 69.973097 -30.182940 -44.040902
v 69.775018 -30.230160 -44.016654
v 69.740741 -30.161899 -44.008457
v 69.553805 -30.209190 -43.940803
v 69.521545 -30.140862 -43.924815
v 69.354757 -30.188151 -43.817228
v 69.326629 -30.119789 -43.794212
v 69.188658 -30.167183 -43.652629
v 69.165894 -30.098761 -43.623273
v 69.063154 -30.146146 -43.454446
v 69.047520 -30.077699 -43.420693
v 68.985186 -30.125074 -43.233138
v 68.981113 -30.058283 -43.214643
v 68.958750 -31.210341 -43.000000
v 68.971261 -31.195874 -42.839074
v 68.958750 -31.275458 -43.000000
v 68.972611 -31.260211 -42.830665
v 68.991660 -31.186829 -42.740284
v 69.013973 -31.244956 -42.665406
v 69.021545 -31.177798 -42.643873
v 69.101387 -31.226073 -42.473981
v 69.125978 -31.156780 -42.434061
v 69.225865 -31.207168 -42.303641
v 69.274695 -31.135732 -42.252916
v 69.382267 -31.188213 -42.161783
v 69.460298 -31.114716 -42.109537
v 69.564074 -31.169293 -42.054394
v 69.673206 -31.093668 -42.011361
v 69.763803 -31.150346 -41.985893
v 69.902677 -31.072631 -41.963308
v 69.973247 -31.131413 -41.959094
v 70.137087 -31.051615 -41.967814
v 70.183788 -31.112482 -41.975098
v 70.364557 -31.030557 -42.024654
v 70.386774 -31.093533 -42.033249
v 70.573558 -31.009534 -42.130959
v 70.573856 -31.074617 -42.131156
v 70.737341 -31.055658 -42.264793
v 70.753459 -30.988500 -42.281320
v 70.870342 -31.036756 -42.428418
v 70.894784 -30.967522 -42.467495
v 70.967522 -31.017873 -42.615158
v 70.991142 -30.946536 -42.680879
v 71.025203 -30.998982 -42.817903
v 71.037348 -30.925561 -42.909942
v 71.040877 -30.980096 -43.027881
v 71.031209 -30.904523 -43.144258
v 71.013849 -30.961159 -43.237299
v 70.972786 -30.883506 -43.371335
v 70.945127 -30.942232 -43.436963
v 70.865030 -30.862444 -43.579590
v 70.837535 -30.923276 -43.618657
v 70.713420 -30.841429 -43.758441
v 70.695501 -30.904364 -43.774906
v 70.525645 -30.820390 -43.898832
v 70.524866 -30.885400 -43.899287
v 70.332649 -30.866490 -43.986685
v 70.311223 -30.799344 -43.993651
v 70.126752 -30.847534 -44.033506
v 70.081015 -30.778330 -44.038093
v 69.915643 -30.828612 -44.037827
v 69.846690 -30.757277 -44.029902
v 69.708032 -30.809670 -43.999478
v 69.620600 -30.736292 -43.969668
v 69.513008 -30.790786 -43.920348
v 69.413632 -30.715309 -43.860450
v 69.337569 -30.771894 -43.803360
v 69.236475 -30.694333 -43.707976
v 69.189568 -30.753012 -43.653759
v 69.097535 -30.673320 -43.519383
v 69.074426 -30.734109 -43.476984
v 69.004209 -30.652282 -43.304304
v 68.991189 -30.713060 -43.257880
v 68.970177 -30.638463 -43.153835
v 68.958750 -31.796027 -43.000000
v 68.979044 -31.842713 -42.795424
v 68.958750 -31.861143 -43.000000
v 68.985202 -31.774990 -42.766790
v 69.039136 -31.824280 -42.598825
v 69.063213 -31.753928 -42.545433
v 69.153821 -31.803146 -42.393220
v 69.188824 -31.732861 -42.347164
v 69.311773 -31.782047 -42.218627
v 69.355660 -31.711827 -42.182059
v 69.504927 -31.760902 -42.083974
v 69.555245 -31.690743 -42.058515
v 69.723388 -31.739787 -41.996164
v 69.777413 -31.669698 -41.982819
v 69.955261 -31.718737 -41.959712
v 70.010886 -31.648646 -41.958807
v 70.189778 -31.697626 -41.976191
v 70.243619 -31.627600 -41.987651
v 70.414203 -31.676587 -42.044679
v 70.463491 -31.606620 -42.067596
v 70.618180 -31.655472 -42.162113
v 70.660217 -31.585588 -42.194820
v 70.790628 -31.634335 -42.322424
v 70.823459 -31.564575 -42.362727
v 70.922652 -31.613234 -42.517388
v 70.945276 -31.543537 -42.563361
v 71.007492 -31.592088 -42.737015
v 71.019057 -31.522459 -42.786167
v 71.040820 -31.570974 -42.970076
v 71.041061 -31.501415 -43.019833
v 71.020937 -31.549862 -43.204666
v 71.010173 -31.480364 -43.252490
v 70.948859 -31.528719 -43.428798
v 70.927959 -31.459287 -43.472329
v 70.828504 -31.507638 -43.630699
v 70.798584 -31.438254 -43.668181
v 70.666041 -31.486569 -43.800369
v 70.628628 -31.417178 -43.830078
v 70.469790 -31.465503 -43.929246
v 70.426794 -31.396131 -43.949762
v 70.249292 -31.444418 -44.010967
v 70.204009 -31.375158 -44.021069
v 70.015803 -31.423279 -44.041130
v 69.970471 -31.354111 -44.040831
v 69.781502 -31.402162 -44.018067
v 69.738828 -31.333130 -44.007964
v 69.558366 -31.381050 -43.942954
v 69.519712 -31.312077 -43.923864
v 69.357796 -31.359901 -43.819619
v 69.324975 -31.291002 -43.792807
v 69.190068 -31.338801 -43.654379
v 69.164553 -31.269969 -43.621474
v 69.063759 -31.317668 -43.455691
v 69.046587 -31.248895 -43.418575
v 68.985318 -31.296540 -43.233714
v 68.980939 -31.229616 -43.213812
v 70.627738 -32.588501 -43.830751
v 70.426013 -32.567456 -43.950113
v 70.203199 -32.546475 -44.021230
v 69.979556 -32.591456 -44.041049
v 69.969956 -32.525491 -44.040816
v 69.779216 -32.573356 -44.017574
v 69.738594 -32.504516 -44.007903
v 69.556706 -32.552281 -43.942174
v 69.519860 -32.483497 -43.923941
v 69.356687 -32.531205 -43.818749
v 69.325316 -32.462466 -43.793097
v 69.189446 -32.510096 -43.653609
v 69.164971 -32.441413 -43.622036
v 69.063496 -32.489031 -43.455150
v 69.046959 -32.420403 -43.419422
v 68.985267 -32.467934 -43.233493
v 68.981041 -32.401056 -43.214297
v 68.958750 -32.446841 -43.000000
v 68.958750 -32.381747 -43.000000
v 67.402963 -33.000000 -43.000000
v 68.823821 -33.000000 -42.183652
v 68.701482 -33.000000 -40.750900
v 69.052671 -33.000000 -41.926506
v 69.336284 -33.000000 -41.731418
v 68.662964 -33.000000 -42.487988
v 69.658264 -33.000000 -41.609663
v 68.579398 -33.000000 -42.821923
v 68.577954 -33.000000 -43.166152
v 71.298518 -33.000000 -40.750900
v 68.658716 -33.000000 -43.500776
v 68.817014 -33.000000 -43.806452
v 69.043698 -33.000000 -44.065508
v 68.701482 -33.000000 -45.249100
v 69.325664 -33.000000 -44.262969
v 69.646612 -33.000000 -44.387421
v 69.987988 -33.000000 -44.431669
v 71.492088 -33.000000 -43.000000
v 71.445693 -33.000000 -43.240120
v 72.597037 -33.000000 -43.000000
v 71.396698 -33.000000 -43.384740
v 71.332675 -33.000000 -43.523205
v 71.169288 -33.000000 -43.826188
v 70.938289 -33.000000 -44.081404
v 71.298518 -33.000000 -45.249100
v 70.653050 -33.000000 -44.274106
v 70.330059 -33.000000 -44.393155
v 67.402963 -28.000000 -43.000000
v 68.701482 -28.000000 -45.249100
v 71.298518 -28.000000 -45.249100
v 72.597037 -28.000000 -43.000000
v 71.298518 -28.000000 -40.750900
v 68.701482 -28.000000 -40.750900
v 68.821719 -28.000001 -42.186691
v 69.050595 -28.000001 -41.928343
v 69.334647 -28.000001 -41.732276
v 68.661320 -28.000001 -42.492306
v 69.657367 -28.000001 -41.609884
v 68.578720 -28.000001 -42.827425
v 70.000000 -28.000001 -41.568281
v 68.578720 -28.000001 -43.172575
v 70.342633 -28.000001 -41.609884
v 68.661320 -28.000001 -43.507694
v 70.665353 -28.000001 -41.732276
v 68.821719 -28.000001 -43.813309
v 70.949405 -28.000001 -41.928343
v 71.178281 -28.000001 -42.186691
v 69.050595 -28.000001 -44.071657
v 69.334647 -28.000001 -44.267724
v 69.657367 -28.000001 -44.390116
v 70.000000 -28.000001 -44.431719
v 71.178281 -28.000001 -43.813309
v 71.338680 -28.000001 -43.507694
v 71.421280 -28.000001 -43.172575
v 71.421280 -28.000001 -42.827425
v 71.338680 -28.000001 -42.492306
v 70.342633 -28.000001 -44.390116
v 70.665353 -28.000001 -44.267724
v 70.949405 -28.000001 -44.071657
v 70.000000 -28.195235 -41.763515
v 70.446670 -28.195235 -41.847012
v 70.833014 -28.195235 -42.086227
v 71.106856 -28.195235 -42.448851
v 71.231210 -28.195235 -42.885912
v 71.189283 -28.195235 -43.338380
v 70.986736 -28.195235 -43.745148
v 70.650925 -28.195235 -44.051280
v 70.227203 -28.195235 -44.215431
v 69.772797 -28.195235 -44.215431
v 69.349075 -28.195235 -44.051280
v 69.013264 -28.195235 -43.745148
v 68.810717 -28.195235 -43.338380
v 68.768790 -28.195235 -42.885912
v 68.893144 -28.195235 -42.448851
v 69.166986 -28.195235 -42.086227
v 69.553330 -28.195235 -41.847012
v 68.980922 -32.427581 -42.786269
v 68.985184 -32.360696 -42.766869
v 69.046670 -32.408256 -42.581237
v 69.063140 -32.339635 -42.545584
v 69.164217 -32.387281 -42.378978
v 69.188536 -32.318618 -42.347522
v 69.324489 -32.366233 -42.207607
v 69.354642 -32.297627 -42.182862
v 69.519153 -32.345161 -42.076426
v 69.553583 -32.276629 -42.059302
v 69.738268 -32.324124 -41.992182
v 69.775044 -32.255628 -41.983341
v 69.970677 -32.303040 -41.959163
v 70.008387 -32.234555 -41.958784
v 70.204562 -32.281992 -41.979042
v 70.241292 -32.213524 -41.987093
v 70.428049 -32.260941 -42.050803
v 70.461941 -32.192474 -42.066827
v 70.629785 -32.239864 -42.170800
v 70.659140 -32.171410 -42.193938
v 70.799523 -32.218825 -42.332944
v 70.822883 -32.150385 -42.361983
v 70.928420 -32.197799 -42.528580
v 70.944851 -32.129311 -42.562440
v 71.010308 -32.176774 -42.748048
v 71.018834 -32.108267 -42.785107
v 71.041058 -32.155784 -42.980047
v 71.041084 -32.087229 -43.018614
v 71.019126 -32.134740 -43.213503
v 71.010676 -32.066238 -43.250469
v 70.945408 -32.113691 -43.436354
v 70.929088 -32.045237 -43.470102
v 70.823646 -32.092639 -43.637031
v 70.800714 -32.024245 -43.665626
v 70.660016 -32.071557 -43.805345
v 70.631354 -32.003182 -43.828006
v 70.462832 -32.050522 -43.932732
v 70.429919 -31.982156 -43.948352
v 70.242132 -32.029447 -44.012706
v 70.206670 -31.961083 -44.020534
v 70.009139 -32.008388 -44.041210
v 69.972939 -31.940044 -44.040898
v 69.775681 -31.987343 -44.016800
v 69.740583 -31.919003 -44.008417
v 69.553843 -31.966294 -43.940821
v 69.521393 -31.897933 -43.924736
v 69.354998 -31.945304 -43.817419
v 69.326489 -31.876904 -43.794094
v 69.188590 -31.924279 -43.652545
v 69.166113 -31.855899 -43.623565
v 69.063239 -31.903254 -43.454621
v 69.047843 -31.834875 -43.421425
v 68.985207 -31.882217 -43.233231
v 68.981314 -31.815482 -43.215593
v 71.451605 -32.978233 -43.345262
v 71.331568 -32.956367 -43.673168
v 70.883244 -32.912625 -44.202620
v 71.138611 -32.934494 -43.964352
v 71.289886 -32.887218 -43.369869
v 71.074476 -32.853377 -43.803810
v 70.638470 -32.732757 -44.006068
v 70.719009 -32.819537 -44.132976
v 70.569095 -32.890067 -44.379291
v 70.239597 -32.698916 -44.167224
v 70.269820 -32.785696 -44.314460
v 70.218682 -32.867285 -44.475994
v 69.876065 -32.845843 -44.486967
v 69.809492 -32.665076 -44.176233
v 69.785461 -32.751855 -44.324606
v 69.669077 -32.832727 -44.454942
v 69.445811 -32.818124 -44.385346
v 69.404219 -32.631235 -44.031922
v 69.329066 -32.718015 -44.162092
v 69.223870 -32.802590 -44.274378
v 69.043932 -32.788748 -44.145513
v 69.076606 -32.597395 -43.753101
v 68.960127 -32.684174 -43.848100
v 68.883339 -32.774766 -43.989701
v 68.738108 -32.759617 -43.796179
v 68.869356 -32.563554 -43.376115
v 68.726734 -32.650334 -43.423559
v 68.636952 -32.746202 -43.606985
v 68.554273 -32.730447 -43.369054
v 68.510495 -32.712615 -43.087446
v 68.809484 -32.529713 -42.950103
v 68.659309 -32.616493 -42.943808
v 68.520932 -32.694832 -42.803441
v 68.904794 -32.495873 -42.530594
v 68.766642 -32.582652 -42.471382
v 68.585355 -32.676985 -42.525571
v 68.700774 -32.659228 -42.266310
v 69.142863 -32.462032 -42.172272
v 69.034741 -32.548812 -42.067860
v 68.862446 -32.641536 -42.034429
v 69.051301 -32.624944 -41.848360
v 69.492658 -32.428191 -41.921843
v 69.428661 -32.514971 -41.785842
v 69.252848 -32.609610 -41.708454
v 69.455413 -32.595527 -41.610825
v 69.713126 -32.578756 -41.535765
v 69.908585 -32.394351 -41.811951
v 69.897053 -32.481130 -41.662087
v 69.975604 -32.562226 -41.508075
v 70.211170 -32.547473 -41.522947
v 70.336427 -32.360510 -41.856919
v 70.378865 -32.447290 -41.712728
v 70.414996 -32.534446 -41.566739
v 70.651918 -32.518556 -41.657839
v 70.720417 -32.326670 -42.050886
v 70.811292 -32.413449 -41.931162
v 70.874262 -32.502367 -41.790831
v 71.055661 -32.487445 -41.945519
v 71.010501 -32.292829 -42.368569
v 71.137968 -32.379609 -42.288918
v 71.201975 -32.473409 -42.115912
v 71.315397 -32.460124 -42.295639
v 71.401523 -32.446941 -42.488094
v 71.168868 -32.258988 -42.768558
v 71.316312 -32.345768 -42.739363
v 71.459732 -32.433756 -42.690780
v 71.489023 -32.420299 -42.904138
v 71.174874 -32.225148 -43.198715
v 71.323076 -32.311927 -43.223782
v 71.486334 -32.406082 -43.131465
v 71.445817 -32.391022 -43.368739
v 71.357898 -32.374471 -43.618530
v 71.027738 -32.191307 -43.602970
v 71.157379 -32.278087 -43.679030
v 71.260536 -32.361666 -43.798414
v 71.126154 -32.347618 -43.978809
v 70.746637 -32.157466 -43.928629
v 70.840819 -32.244246 -44.045768
v 70.953748 -32.332526 -44.147525
v 70.776636 -32.318906 -44.274009
v 70.368213 -32.123626 -44.133242
v 70.414660 -32.210405 -44.276192
v 70.577607 -32.304947 -44.375764
v 70.342144 -32.289440 -44.452332
v 70.120914 -32.275444 -44.487164
v 69.941793 -32.089785 -44.190138
v 69.934450 -32.176565 -44.340266
v 69.905006 -32.261943 -44.489081
v 69.700739 -32.249047 -44.461739
v 69.522960 -32.055945 -44.091902
v 69.462785 -32.142724 -44.229638
v 69.458011 -32.233218 -44.390174
v 69.203885 -32.215407 -44.261919
v 69.166308 -32.022104 -43.851338
v 69.061144 -32.108884 -43.958728
v 68.978204 -32.197553 -44.087316
v 68.790359 -32.179745 -43.873498
v 68.918328 -31.988263 -43.499803
v 68.781883 -32.075043 -43.562849
v 68.648524 -32.162234 -43.632401
v 68.558459 -32.145769 -43.384984
v 68.811342 -31.954423 -43.083119
v 68.661401 -32.041202 -43.093604
v 68.514595 -32.130285 -43.141438
v 68.510462 -32.115972 -42.912690
v 68.859295 -31.920582 -42.655601
v 68.715404 -32.007362 -42.612158
v 68.537660 -32.102802 -42.703562
v 68.609512 -32.086819 -42.458757
v 68.721835 -32.070910 -42.230207
v 69.055939 -31.886741 -42.272975
v 68.936852 -31.973521 -42.181266
v 68.850903 -32.056945 -42.048143
v 68.991805 -32.044158 -41.900066
v 69.375639 -31.852901 -41.985115
v 69.296880 -31.939680 -41.857095
v 69.184532 -32.028918 -41.750427
v 69.402939 -32.013379 -41.632567
v 69.776724 -31.819060 -41.829545
v 69.748559 -31.905840 -41.681900
v 69.620084 -31.999016 -41.557077
v 69.831363 -31.985577 -41.517443
v 70.044411 -31.972244 -41.508561
v 70.206912 -31.785220 -41.826541
v 70.233013 -31.871999 -41.678518
v 70.256364 -31.958924 -41.530064
v 70.463085 -31.945603 -41.581580
v 70.610130 -31.751379 -41.976497
v 70.687094 -31.838159 -41.847389
v 70.660536 -31.932272 -41.662053
v 70.845782 -31.918843 -41.770764
v 71.024216 -31.904511 -41.914950
v 70.933819 -31.717538 -42.259865
v 71.051613 -31.804318 -42.166502
v 71.189624 -31.889003 -42.099323
v 71.309397 -31.875224 -42.284616
v 71.135785 -31.683698 -42.639708
v 71.279056 -31.770477 -42.594260
v 71.403170 -31.860959 -42.492487
v 71.461278 -31.847570 -42.698390
v 71.489208 -31.834418 -42.907229
v 71.189703 -31.649857 -43.066515
v 71.339775 -31.736637 -43.074905
v 71.485312 -31.819695 -43.142302
v 71.447307 -31.805711 -43.362753
v 71.088545 -31.616016 -43.484652
v 71.225857 -31.702796 -43.545787
v 71.381530 -31.792493 -43.563765
v 71.279414 -31.778214 -43.767704
v 70.845497 -31.582176 -43.839615
v 70.952150 -31.668955 -43.945526
v 71.152511 -31.764455 -43.947665
v 71.008738 -31.751378 -44.099471
v 70.848350 -31.738544 -44.227408
v 70.492239 -31.548335 -44.085135
v 70.554331 -31.635115 -44.222017
v 70.623415 -31.722348 -44.355610
v 70.347843 -31.704102 -44.450942
v 70.074819 -31.514495 -44.189210
v 70.084257 -31.601274 -44.339220
v 70.059247 -31.685870 -44.490916
v 69.768670 -31.667657 -44.474019
v 69.647646 -31.480654 -44.138272
v 69.603199 -31.567434 -44.281857
v 69.496759 -31.650085 -44.404678
v 69.260300 -31.633815 -44.295797
v 69.266402 -31.446813 -43.938963
v 69.173864 -31.533593 -44.057406
v 69.062204 -31.618798 -44.160582
v 68.902658 -31.605123 -44.010989
v 68.980781 -31.412973 -43.617261
v 68.852214 -31.499752 -43.695124
v 68.744284 -31.588928 -43.805977
v 68.623704 -31.572685 -43.576308
v 68.828015 -31.379132 -43.215100
v 68.551662 -31.558376 -43.358732
v 68.680177 -31.465912 -43.242233
v 68.516022 -31.545482 -43.155864
v 68.511096 -31.529638 -42.902498
v 68.828015 -31.345291 -42.784900
v 68.680177 -31.432071 -42.757767
v 68.550153 -31.513489 -42.647267
v 68.626265 -31.498351 -42.417562
v 68.980781 -31.311451 -42.382739
v 68.852214 -31.398230 -42.304876
v 68.731290 -31.484072 -42.214628
v 68.862616 -31.470120 -42.034252
v 69.266402 -31.277610 -42.061037
v 69.173864 -31.364390 -41.942594
v 69.019302 -31.456170 -41.875439
v 69.200340 -31.442048 -41.740288
v 69.412849 -31.427028 -41.628271
v 69.647646 -31.243770 -41.861728
v 69.603199 -31.330549 -41.718143
v 69.656052 -31.411001 -41.548081
v 69.936267 -31.393317 -41.509228
v 70.074819 -31.209929 -41.810790
v 70.084257 -31.296709 -41.660780
v 70.139794 -31.380571 -41.514443
v 70.360320 -31.366600 -41.552085
v 70.492239 -31.176088 -41.914865
v 70.554331 -31.262868 -41.777983
v 70.571063 -31.352723 -41.621473
v 70.762994 -31.339281 -41.717765
v 70.845497 -31.142248 -42.160385
v 70.952150 -31.229027 -42.054474
v 70.936128 -31.326119 -41.838110
v 71.106081 -31.311487 -41.998517
v 71.241455 -31.297711 -42.172329
v 71.088545 -31.108407 -42.515348
v 71.225857 -31.195187 -42.454213
v 71.343340 -31.284886 -42.350514
v 71.423683 -31.271224 -42.553451
v 71.189703 -31.074566 -42.933485
v 71.339775 -31.161346 -42.925095
v 71.472512 -31.258003 -42.759169
v 71.491950 -31.241641 -43.020000
v 71.458705 -31.223140 -43.313775
v 71.135785 -31.040726 -43.360292
v 71.279056 -31.127505 -43.405740
v 71.368612 -31.204703 -43.594282
v 70.933819 -31.006885 -43.740135
v 71.051613 -31.093665 -43.833498
v 71.224738 -31.186219 -43.852264
v 71.034126 -31.167846 -44.075580
v 70.610130 -30.973045 -44.023503
v 70.687094 -31.059824 -44.152611
v 70.805687 -31.149626 -44.255900
v 70.567261 -31.132806 -44.380045
v 70.206912 -30.939204 -44.173459
v 70.233013 -31.025984 -44.321482
v 70.334077 -31.117510 -44.454227
v 70.114223 -31.103583 -44.487725
v 69.776724 -30.905363 -44.170455
v 69.748559 -30.992143 -44.318100
v 69.850863 -31.087132 -44.484615
v 69.596567 -31.070923 -44.436546
v 69.377508 -31.056338 -44.356024
v 69.375639 -30.871523 -44.014885
v 69.296880 -30.958302 -44.142905
v 69.194553 -31.043308 -44.256068
v 68.991161 -31.027236 -44.099343
v 69.055939 -30.837682 -43.727025
v 68.936852 -30.924462 -43.818734
v 68.812760 -31.010694 -43.903825
v 68.676557 -30.994788 -43.689095
v 68.859295 -30.803841 -43.344399
v 68.715404 -30.890621 -43.387842
v 68.578871 -30.978910 -43.454780
v 68.522385 -30.963020 -43.207107
v 68.597889 -30.917500 -42.489673
v 68.811342 -30.770001 -42.916881
v 68.661401 -30.856780 -42.906396
v 68.508612 -30.947130 -42.953432
v 68.534905 -30.932289 -42.717606
v 71.259743 -32.993344 -43.666211
v 71.171232 -32.986690 -43.800063
v 70.979291 -32.974777 -44.009561
v 70.749567 -32.962805 -44.175961
v 70.492313 -32.950777 -44.291877
v 70.216670 -32.938659 -44.353152
v 69.935589 -32.926463 -44.356658
v 69.659751 -32.914177 -44.302182
v 69.402161 -32.901802 -44.192002
v 69.173142 -32.889289 -44.030228
v 68.842335 -32.863954 -43.581877
v 68.756462 -32.851109 -43.315035
v 68.730677 -32.838132 -43.036078
v 68.766959 -32.824952 -42.757454
v 69.017088 -32.798315 -42.260493
v 69.218665 -32.784826 -42.067512
v 68.983512 -32.876700 -43.823841
v 68.960124 -32.857674 -43.848102
v 68.726730 -32.823833 -43.423560
v 68.659306 -32.789992 -42.943808
v 68.864115 -32.811679 -42.494192
v 68.766638 -32.756152 -42.471381
v 69.034738 -32.722311 -42.067858
v 69.458387 -32.771218 -41.925888
v 69.428659 -32.688470 -41.785838
v 69.723286 -32.757491 -41.843426
v 69.897053 -32.654630 -41.662083
v 70.378866 -32.620789 -41.712724
v 70.811294 -32.586949 -41.931159
v 70.720422 -32.673725 -42.050879
v 71.137972 -32.553108 -42.288916
v 71.010509 -32.639885 -42.368564
v 71.316316 -32.519267 -42.739362
v 71.168877 -32.606044 -42.768556
v 71.323080 -32.485427 -43.223782
v 71.174883 -32.572203 -43.198717
v 71.157383 -32.451586 -43.679032
v 71.027745 -32.538363 -43.602975
v 70.840822 -32.417745 -44.045771
v 70.746642 -32.504522 -43.928636
v 70.414661 -32.383905 -44.276196
v 70.368215 -32.470681 -44.133250
v 69.934450 -32.350064 -44.340270
v 69.941792 -32.436841 -44.190147
v 69.462783 -32.316224 -44.229641
v 69.522956 -32.403000 -44.091910
v 69.061142 -32.282383 -43.958731
v 69.166302 -32.369160 -43.851344
v 68.781879 -32.248542 -43.562851
v 68.918320 -32.335319 -43.499807
v 68.661397 -32.214702 -43.093604
v 68.811333 -32.301478 -43.083120
v 68.715400 -32.180861 -42.612156
v 68.859287 -32.267638 -42.655598
v 68.936849 -32.147020 -42.181264
v 69.055931 -32.233797 -42.272969
v 69.296878 -32.113180 -41.857092
v 69.375634 -32.199956 -41.985108
v 69.748558 -32.079339 -41.681897
v 69.776722 -32.166116 -41.829536
v 70.233014 -32.045499 -41.678515
v 70.206914 -32.132275 -41.826533
v 70.687096 -32.011658 -41.847386
v 70.610135 -32.098435 -41.976489
v 71.051616 -31.977817 -42.166499
v 70.933826 -32.064594 -42.259859
v 71.279059 -31.943977 -42.594258
v 71.135793 -32.030753 -42.639705
v 71.339779 -31.910136 -43.074905
v 71.189712 -31.996913 -43.066515
v 71.225861 -31.876295 -43.545788
v 71.088553 -31.963072 -43.484655
v 70.952153 -31.842455 -43.945529
v 70.845503 -31.929231 -43.839621
v 70.554333 -31.808614 -44.222020
v 70.492243 -31.895391 -44.085143
v 70.084257 -31.774774 -44.339224
v 70.074819 -31.861550 -44.189219
v 69.603198 -31.740933 -44.281861
v 69.647643 -31.827710 -44.138281
v 69.173861 -31.707092 -44.057409
v 69.266396 -31.793869 -43.938970
v 68.852211 -31.673252 -43.695126
v 68.980774 -31.760028 -43.617265
v 68.680173 -31.639411 -43.242233
v 68.828006 -31.726188 -43.215101
v 68.680173 -31.605570 -42.757767
v 68.828006 -31.692347 -42.784899
v 68.852211 -31.571730 -42.304874
v 68.980774 -31.658506 -42.382735
v 69.173861 -31.537889 -41.942591
v 69.266396 -31.624666 -42.061030
v 69.603198 -31.504049 -41.718139
v 69.647643 -31.590825 -41.861719
v 70.084257 -31.470208 -41.660776
v 70.074819 -31.556985 -41.810781
v 70.554333 -31.436367 -41.777980
v 70.492243 -31.523144 -41.914857
v 70.952153 -31.402527 -42.054471
v 70.845503 -31.489303 -42.160379
v 71.225861 -31.368686 -42.454212
v 71.088553 -31.455463 -42.515345
v 71.339779 -31.334845 -42.925095
v 71.189712 -31.421622 -42.933485
v 71.279059 -31.301005 -43.405742
v 71.135793 -31.387781 -43.360295
v 71.051616 -31.267164 -43.833501
v 70.933826 -31.353941 -43.740141
v 70.687096 -31.233324 -44.152614
v 70.610135 -31.320100 -44.023511
v 70.233014 -31.199483 -44.321485
v 70.206914 -31.286260 -44.173467
v 69.748558 -31.165642 -44.318103
v 69.776722 -31.252419 -44.170464
v 69.296878 -31.131802 -44.142908
v 69.375634 -31.218578 -44.014892
v 68.936849 -31.097961 -43.818736
v 69.055931 -31.184738 -43.727031
v 68.715400 -31.064120 -43.387844
v 68.859287 -31.150897 -43.344402
v 68.661397 -31.030280 -42.906396
v 68.811333 -31.117056 -42.916880
v 71.143006 -28.835001 -43.959096
v 68.754024 -30.895733 -42.179081
v 68.914406 -30.978219 -42.211270
v 68.978972 -30.873867 -41.912006
v 69.036005 -31.064998 -42.299617
v 69.259883 -30.851994 -41.704378
v 69.265242 -30.944379 -41.877173
v 69.581342 -30.830125 -41.567820
v 69.347544 -31.031157 -42.002943
v 69.936971 -30.807567 -41.509249
v 69.711854 -30.910538 -41.689435
v 69.744129 -30.997317 -41.836233
v 70.299325 -30.784785 -41.538226
v 70.196024 -30.876697 -41.672527
v 70.625033 -30.763343 -41.645096
v 70.174067 -30.963476 -41.821220
v 70.808585 -30.750227 -41.745984
v 70.654643 -30.842857 -41.828654
v 70.994583 -30.735624 -41.887744
v 70.581316 -30.929635 -41.959858
v 71.027931 -30.809016 -42.137464
v 71.165187 -30.720090 -42.067928
v 71.290198 -30.706248 -42.250564
v 70.912790 -30.895795 -42.234078
v 71.387816 -30.692266 -42.451905
v 71.267228 -30.775176 -42.558704
v 71.458099 -30.677117 -42.683428
v 71.125284 -30.861954 -42.608135
v 71.488447 -30.663702 -42.895810
v 71.341345 -30.741335 -43.037467
v 71.484763 -30.647947 -43.147670
v 71.429585 -30.630115 -43.427267
v 71.191098 -30.828114 -43.033270
v 71.322643 -30.612332 -43.690575
v 71.240619 -30.707494 -43.511346
v 71.101655 -30.794273 -43.454069
v 71.167068 -30.594485 -43.929654
v 70.978180 -30.673654 -43.918572
v 70.969937 -30.576728 -44.133804
v 70.868612 -30.760432 -43.815681
v 70.738707 -30.559036 -44.296406
v 70.588236 -30.639813 -44.206063
v 70.497602 -30.542444 -44.406662
v 70.522347 -30.726592 -44.070970
v 70.260359 -30.527110 -44.469198
v 70.121617 -30.605972 -44.336345
v 70.036619 -30.513027 -44.491657
v 69.768776 -30.496256 -44.474047
v 70.107994 -30.692751 -44.186659
v 69.512657 -30.479726 -44.410295
v 69.639145 -30.572132 -44.292437
v 69.296384 -30.464973 -44.315751
v 69.679565 -30.658910 -44.147669
v 69.119827 -30.451946 -44.204888
v 69.203710 -30.538291 -44.080061
v 68.928352 -30.436056 -44.038250
v 69.292904 -30.625070 -43.959082
v 68.764903 -30.419867 -43.837233
v 68.872071 -30.504451 -43.726901
v 68.647350 -30.404945 -43.629831
v 68.998412 -30.591229 -43.645479
v 68.568137 -30.390909 -43.419672
v 68.687455 -30.470610 -43.278990
v 68.523026 -30.377624 -43.211991
v 68.507917 -30.364441 -43.001686
v 68.834475 -30.557389 -43.247740
v 68.522541 -30.351256 -42.791315
v 68.673928 -30.436769 -42.794713
v 68.567989 -30.337799 -42.580805
v 68.822464 -30.523548 -42.817708
v 68.648266 -30.323582 -42.368108
v 68.833253 -30.402929 -42.337195
v 68.767492 -30.308522 -42.159001
v 68.935543 -30.291971 -41.954344
v 68.963942 -30.489707 -42.411437
v 69.088557 -30.279166 -41.818608
v 69.144661 -30.369088 -41.966073
v 69.276533 -30.265118 -41.695053
v 69.240469 -30.455867 -42.081885
v 69.496246 -30.250026 -41.595478
v 69.567562 -30.335247 -41.729722
v 69.705936 -30.236406 -41.537198
v 69.616000 -30.422026 -41.872008
v 69.927765 -30.222448 -41.509652
v 70.046831 -30.301407 -41.658949
v 70.175215 -30.206940 -41.518234
v 70.395017 -30.192944 -41.561168
v 70.041585 -30.388185 -41.809163
v 70.598560 -30.179443 -41.633211
v 70.519995 -30.267566 -41.762981
v 70.781156 -30.166547 -41.728767
v 70.461749 -30.354345 -41.901542
v 70.984769 -30.150718 -41.879034
v 70.925378 -30.233726 -42.028257
v 71.179704 -30.132907 -42.086470
v 70.821725 -30.320504 -42.137104
v 71.210140 -30.199885 -42.420198
v 71.332057 -30.115053 -42.327731
v 71.435444 -30.097245 -42.592900
v 71.074590 -30.286664 -42.485143
v 71.337162 -30.166044 -42.887715
v 71.486266 -30.079734 -42.867968
v 71.486278 -30.063269 -43.131268
v 71.187384 -30.252823 -42.900293
v 71.444199 -30.047785 -43.375128
v 71.289886 -30.132204 -43.369869
v 71.369847 -30.033472 -43.591496
v 71.145404 -30.218982 -43.328439
v 71.074476 -30.098363 -43.803811
v 71.272763 -30.020302 -43.778710
v 71.121517 -30.004319 -43.984176
v 70.937798 -29.988410 -44.160527
v 70.954122 -30.185142 -43.713774
v 70.754245 -29.974445 -44.287467
v 70.719009 -30.064522 -44.132977
v 70.571195 -29.961658 -44.378423
v 70.638471 -30.151301 -44.006070
v 70.269820 -30.030682 -44.314461
v 70.338911 -29.946418 -44.453121
v 70.093365 -29.930879 -44.489174
v 70.239597 -30.117460 -44.167226
v 69.863497 -29.916516 -44.485843
v 69.785461 -29.996841 -44.324607
v 69.651403 -29.903077 -44.450825
v 69.448166 -29.889745 -44.386305
v 69.809491 -30.083620 -44.176235
v 69.329066 -29.963001 -44.162092
v 69.256350 -29.876424 -44.293607
v 69.079715 -29.863103 -44.174495
v 69.404218 -30.049779 -44.031924
v 68.960127 -29.929160 -43.848100
v 68.921695 -29.849772 -44.031343
v 68.784802 -29.836343 -43.865830
v 68.666443 -29.822011 -43.669311
v 69.076605 -30.015939 -43.753103
v 68.726734 -29.895319 -43.423559
v 68.574069 -29.806503 -43.439485
v 68.524893 -29.792724 -43.224402
v 68.869354 -29.982098 -43.376116
v 68.659309 -29.861479 -42.943808
v 68.507872 -29.778459 -42.996995
v 68.523691 -29.765070 -42.783636
v 68.568872 -29.751918 -42.577839
v 68.809482 -29.948257 -42.950103
v 68.766642 -29.827638 -42.471382
v 68.652933 -29.737196 -42.358275
v 68.764044 -29.723211 -42.164117
v 68.904792 -29.914417 -42.530593
v 69.034741 -29.793797 -42.067860
v 68.894604 -29.709993 -41.997725
v 69.060312 -29.695714 -41.841010
v 69.142861 -29.880576 -42.172271
v 69.428660 -29.759957 -41.785841
v 69.241112 -29.681955 -41.715306
v 69.428135 -29.668879 -41.621827
v 69.622607 -29.656044 -41.556462
v 69.492657 -29.846735 -41.921842
v 69.877824 -29.639849 -41.512923
v 69.897053 -29.726116 -41.662087
v 70.169384 -29.621602 -41.517591
v 69.908584 -29.812895 -41.811949
v 70.378865 -29.692276 -41.712727
v 70.454247 -29.603370 -41.578733
v 70.721521 -29.585157 -41.693994
v 70.336428 -29.779054 -41.856917
v 70.811292 -29.658435 -41.931162
v 70.953318 -29.567586 -41.852152
v 71.138278 -29.551315 -42.035339
v 70.720418 -29.745214 -42.050884
v 71.137969 -29.624594 -42.288918
v 71.278181 -29.536298 -42.230153
v 71.376942 -29.522623 -42.425293
v 71.010503 -29.711373 -42.368568
v 71.316312 -29.590754 -42.739363
v 71.455647 -29.506428 -42.672108
v 71.490405 -29.490185 -42.929167
v 71.168870 -29.677532 -42.768558
v 71.323077 -29.556913 -43.223782
v 71.483686 -29.475876 -43.158262
v 71.447792 -29.462982 -43.361085
v 71.365765 -29.447138 -43.600855
v 71.174876 -29.643692 -43.198715
v 71.157380 -29.523072 -43.679031
v 71.241769 -29.430989 -43.827337
v 71.091684 -29.415851 -44.017157
v 71.027739 -29.609851 -43.602971
v 70.738487 -29.387620 -44.296514
v 70.840820 -29.489232 -44.045769
v 70.923585 -29.401572 -44.171932
v 70.746638 -29.576010 -43.928630
v 70.536934 -29.373670 -44.392160
v 70.414660 -29.455391 -44.276192
v 70.320589 -29.359548 -44.457242
v 70.082584 -29.344529 -44.489821
v 70.368213 -29.542170 -44.133244
v 69.826622 -29.328501 -44.481995
v 69.934450 -29.421551 -44.340266
v 69.550017 -29.310817 -44.422666
v 69.941792 -29.508329 -44.190140
v 69.462784 -29.387710 -44.229638
v 69.360548 -29.298071 -44.348155
v 69.166195 -29.284100 -44.237360
v 69.522959 -29.474489 -44.091904
v 68.991894 -29.270223 -44.100078
v 69.061144 -29.353869 -43.958728
v 68.844471 -29.256781 -43.943950
v 69.166307 -29.440648 -43.851339
v 68.722939 -29.243619 -43.771647
v 68.781882 -29.320029 -43.562849
v 68.618097 -29.228988 -43.562787
v 68.550334 -29.215211 -43.353157
v 68.918326 -29.406807 -43.499804
v 68.661401 -29.286188 -43.093604
v 68.515537 -29.202386 -43.150871
v 68.509446 -29.188724 -42.932695
v 68.811340 -29.372967 -43.083119
v 68.533921 -29.175503 -42.722682
v 68.715404 -29.252347 -42.612157
v 68.604864 -29.159141 -42.470933
v 68.736581 -29.140640 -42.206245
v 68.859293 -29.339126 -42.655600
v 68.917180 -29.122204 -41.973467
v 68.936852 -29.218507 -42.181266
v 69.055937 -29.305285 -42.272974
v 69.140611 -29.103719 -41.780251
v 69.296880 -29.184666 -41.857095
v 69.396106 -29.085346 -41.635595
v 69.375638 -29.271445 -41.985114
v 69.672442 -29.067127 -41.544279
v 69.748559 -29.150826 -41.681900
v 69.938949 -29.050306 -41.509168
v 69.776723 -29.237604 -41.829543
v 70.183442 -29.035011 -41.519212
v 70.233013 -29.116985 -41.678518
v 70.401495 -29.021083 -41.562929
v 70.206913 -29.203764 -41.826539
v 70.647909 -29.004632 -41.655925
v 70.687094 -29.083144 -41.847389
v 70.870429 -28.988423 -41.788069
v 71.048737 -28.973838 -41.938658
v 70.610131 -29.169923 -41.976495
v 71.186472 -28.960808 -42.095160
v 71.051613 -29.049304 -42.166502
v 71.323995 -28.944736 -42.311997
v 70.933820 -29.136082 -42.259863
v 71.279056 -29.015463 -42.594260
v 71.424767 -28.928194 -42.556741
v 71.479314 -28.912289 -42.805105
v 71.135787 -29.102242 -42.639707
v 71.339776 -28.981622 -43.074905
v 71.490969 -28.896410 -43.058700
v 71.459338 -28.880520 -43.310756
v 71.189705 -29.068401 -43.066515
v 71.225857 -28.947782 -43.545787
v 71.385520 -28.864630 -43.553843
v 71.280155 -28.849789 -43.766455
v 71.088547 -29.034560 -43.484652
v 69.036005 -30.717940 -42.299617
v 68.914405 -30.804719 -42.211269
v 69.347544 -30.684099 -42.002942
v 69.265242 -30.770878 -41.877172
v 69.744129 -30.650259 -41.836233
v 69.711853 -30.737037 -41.689434
v 70.174067 -30.616418 -41.821219
v 70.196024 -30.703197 -41.672526
v 70.581316 -30.582577 -41.959858
v 70.654644 -30.669356 -41.828653
v 70.912791 -30.548737 -42.234078
v 71.027931 -30.635516 -42.137463
v 71.125284 -30.514896 -42.608135
v 71.267229 -30.601675 -42.558704
v 71.191099 -30.481055 -43.033270
v 71.341346 -30.567834 -43.037467
v 71.101655 -30.447215 -43.454070
v 71.240620 -30.533994 -43.511346
v 70.868612 -30.413374 -43.815681
v 70.978180 -30.500153 -43.918572
v 70.522347 -30.379534 -44.070970
v 70.588237 -30.466312 -44.206064
v 70.107994 -30.345693 -44.186659
v 70.121617 -30.432472 -44.336346
v 69.679565 -30.311852 -44.147669
v 69.639145 -30.398631 -44.292438
v 69.292904 -30.278012 -43.959082
v 69.203710 -30.364791 -44.080062
v 68.998412 -30.244171 -43.645480
v 68.872070 -30.330950 -43.726901
v 68.834475 -30.210330 -43.247740
v 68.687454 -30.297109 -43.278990
v 68.822463 -30.176490 -42.817708
v 68.673927 -30.263269 -42.794713
v 68.963942 -30.142649 -42.411437
v 68.833252 -30.229428 -42.337195
v 69.240469 -30.108809 -42.081885
v 69.144661 -30.195587 -41.966072
v 69.616000 -30.074968 -41.872007
v 69.567562 -30.161747 -41.729721
v 70.041585 -30.041127 -41.809162
v 70.046831 -30.127906 -41.658949
v 70.461749 -30.007287 -41.901542
v 70.519995 -30.094066 -41.762980
v 70.821725 -29.973446 -42.137103
v 70.925379 -30.060225 -42.028256
v 71.074591 -29.939605 -42.485142
v 71.210141 -30.026384 -42.420198
v 71.187385 -29.905765 -42.900293
v 71.337163 -29.992544 -42.887715
v 71.145404 -29.871924 -43.328439
v 71.289887 -29.958703 -43.369869
v 70.954122 -29.838084 -43.713775
v 71.074477 -29.924862 -43.803811
v 70.638472 -29.804243 -44.006070
v 70.719009 -29.891022 -44.132977
v 70.239597 -29.770402 -44.167226
v 70.269820 -29.857181 -44.314462
v 69.809491 -29.736562 -44.176236
v 69.785460 -29.823341 -44.324607
v 69.404218 -29.702721 -44.031924
v 69.329066 -29.789500 -44.162093
v 69.076604 -29.668880 -43.753103
v 68.960126 -29.755659 -43.848100
v 68.869354 -29.635040 -43.376116
v 68.726733 -29.721819 -43.423560
v 68.809482 -29.601199 -42.950102
v 68.659308 -29.687978 -42.943808
v 68.904792 -29.567359 -42.530593
v 68.766641 -29.654137 -42.471382
v 69.142861 -29.533518 -42.172270
v 69.034740 -29.620297 -42.067860
v 69.492657 -29.499677 -41.921841
v 69.428660 -29.586456 -41.785841
v 69.908584 -29.465837 -41.811948
v 69.897053 -29.552616 -41.662086
v 70.336428 -29.431996 -41.856916
v 70.378865 -29.518775 -41.712726
v 70.720418 -29.398155 -42.050884
v 70.811293 -29.484934 -41.931161
v 71.010503 -29.364315 -42.368568
v 71.137969 -29.451094 -42.288918
v 71.168870 -29.330474 -42.768557
v 71.316313 -29.417253 -42.739363
v 71.174877 -29.296634 -43.198716
v 71.323077 -29.383412 -43.223782
v 71.027740 -29.262793 -43.602971
v 71.157380 -29.349572 -43.679031
v 70.746638 -29.228952 -43.928631
v 70.840820 -29.315731 -44.045769
v 70.368213 -29.195112 -44.133244
v 70.414660 -29.281891 -44.276193
v 69.941792 -29.161271 -44.190141
v 69.934450 -29.248050 -44.340267
v 69.522959 -29.127430 -44.091904
v 69.462784 -29.214209 -44.229639
v 69.166307 -29.093590 -43.851340
v 69.061144 -29.180369 -43.958729
v 68.918326 -29.059749 -43.499804
v 68.781882 -29.146528 -43.562850
v 68.811339 -29.025909 -43.083119
v 68.661400 -29.112687 -43.093604
v 68.859293 -28.992068 -42.655600
v 68.715403 -29.078847 -42.612157
v 69.055937 -28.958227 -42.272973
v 68.936851 -29.045006 -42.181265
v 69.375638 -28.924387 -41.985113
v 69.296880 -29.011166 -41.857094
v 69.776723 -28.890546 -41.829542
v 69.748559 -28.977325 -41.681899
v 70.206913 -28.856705 -41.826539
v 70.233013 -28.943484 -41.678517
v 70.610132 -28.822865 -41.976495
v 70.687094 -28.909644 -41.847388
v 70.933821 -28.789024 -42.259863
v 71.051614 -28.875803 -42.166501
v 71.135787 -28.755184 -42.639707
v 71.279057 -28.841962 -42.594259
v 71.189706 -28.721343 -43.066515
v 71.339777 -28.808122 -43.074905
v 71.088547 -28.687502 -43.484653
v 71.225858 -28.774281 -43.545787
f 1 2 3
f 2 4 3
f 2 5 4
f 4 6 7
f 5 6 4
f 7 8 9
f 6 8 7
f 8 10 9
f 11 12 13
f 14 15 16
f 17 18 19
f 20 18 17
f 9 21 22
f 22 21 23
f 24 21 10
f 25 21 24
f 10 21 9
f 23 21 25
f 23 26 27
f 13 26 25
f 12 26 13
f 25 26 23
f 27 28 29
f 29 28 30
f 31 28 32
f 32 28 12
f 30 28 31
f 26 28 27
f 12 28 26
f 30 33 34
f 34 33 16
f 14 33 31
f 31 33 30
f 16 33 14
f 16 35 36
f 36 35 17
f 20 35 15
f 15 35 16
f 17 35 20
f 37 38 39
f 37 40 38
f 40 41 38
f 42 43 44
f 45 46 41
f 43 47 44
f 44 47 48
f 47 49 48
f 48 49 50
f 51 52 46
f 49 53 50
f 50 53 54
f 55 56 52
f 53 57 54
f 54 57 58
f 59 60 56
f 57 61 58
f 58 61 62
f 63 64 60
f 61 65 62
f 62 65 66
f 67 68 64
f 65 69 66
f 66 69 70
f 71 72 68
f 69 73 70
f 69 74 73
f 75 76 72
f 74 77 73
f 74 78 77
f 79 80 76
f 78 81 77
f 78 82 81
f 83 84 80
f 82 85 81
f 82 86 85
f 87 88 84
f 86 89 85
f 90 91 88
f 86 92 89
f 92 93 89
f 94 95 91
f 92 96 93
f 96 97 93
f 98 99 95
f 96 100 97
f 97 100 101
f 102 103 99
f 103 104 99
f 100 105 101
f 101 105 106
f 103 107 104
f 107 108 104
f 107 109 108
f 105 110 106
f 106 110 109
f 108 111 112
f 109 111 108
f 110 111 109
f 112 113 114
f 111 113 112
f 114 115 116
f 113 115 114
f 116 117 118
f 115 117 116
f 118 119 120
f 117 119 118
f 120 121 122
f 119 121 120
f 122 123 124
f 121 123 122
f 124 125 126
f 123 125 124
f 126 127 128
f 125 127 126
f 128 43 42
f 127 43 128
f 40 45 41
f 45 51 46
f 51 55 52
f 55 59 56
f 59 63 60
f 63 67 64
f 67 71 68
f 71 75 72
f 75 79 76
f 79 83 80
f 83 87 84
f 87 90 88
f 90 94 91
f 94 98 95
f 98 102 99
f 129 130 131
f 129 132 130
f 132 133 130
f 132 134 133
f 134 135 133
f 134 136 135
f 136 137 135
f 136 138 137
f 138 139 137
f 138 140 139
f 140 141 139
f 140 142 141
f 142 143 141
f 142 144 143
f 144 145 143
f 144 146 145
f 146 147 145
f 146 148 147
f 148 149 147
f 148 150 149
f 150 151 149
f 150 152 151
f 152 153 151
f 152 154 153
f 154 155 153
f 154 156 155
f 156 157 155
f 156 158 157
f 158 159 157
f 158 160 159
f 160 161 159
f 160 162 161
f 162 163 161
f 162 164 163
f 164 165 163
f 164 166 165
f 166 167 165
f 166 168 167
f 168 169 167
f 168 170 169
f 170 171 169
f 170 172 171
f 172 173 171
f 172 174 173
f 174 175 173
f 174 176 175
f 176 177 175
f 176 178 177
f 178 179 177
f 178 180 179
f 180 181 179
f 180 182 181
f 182 183 181
f 182 184 183
f 184 39 183
f 184 37 39
f 185 186 187
f 186 188 189
f 185 188 186
f 188 190 189
f 188 191 190
f 191 192 190
f 192 193 194
f 191 193 192
f 193 195 194
f 193 196 195
f 196 197 195
f 196 198 197
f 198 199 197
f 198 200 199
f 200 201 199
f 200 202 201
f 202 203 201
f 202 204 203
f 204 205 203
f 204 206 205
f 206 207 205
f 206 208 207
f 208 209 207
f 208 210 209
f 210 211 209
f 210 212 211
f 212 213 211
f 212 214 213
f 214 215 213
f 214 216 215
f 216 217 215
f 216 218 217
f 218 219 217
f 218 220 219
f 220 221 219
f 220 222 221
f 222 223 221
f 222 224 223
f 224 225 223
f 224 226 225
f 226 227 225
f 226 228 227
f 228 229 227
f 228 230 229
f 230 231 229
f 230 232 231
f 232 233 231
f 232 234 233
f 234 235 233
f 234 236 235
f 236 237 235
f 236 238 237
f 238 239 237
f 238 240 239
f 240 241 239
f 240 242 241
f 242 131 241
f 242 129 131
f 243 244 245
f 245 244 246
f 244 247 246
f 247 248 246
f 247 249 248
f 249 250 248
f 249 251 250
f 251 252 250
f 251 253 252
f 253 254 252
f 253 255 254
f 255 256 254
f 255 257 256
f 257 258 256
f 257 259 258
f 259 260 258
f 259 261 260
f 261 262 260
f 261 263 262
f 262 263 264
f 263 265 264
f 264 265 266
f 265 267 266
f 265 268 267
f 268 269 267
f 268 270 269
f 270 271 269
f 270 272 271
f 272 273 271
f 272 274 273
f 274 275 273
f 274 276 275
f 276 277 275
f 276 278 277
f 278 279 277
f 278 280 279
f 280 281 279
f 281 282 283
f 280 282 281
f 283 284 285
f 282 284 283
f 284 286 285
f 284 287 286
f 287 288 286
f 287 289 288
f 289 290 288
f 289 291 290
f 291 292 290
f 291 293 292
f 293 294 292
f 293 295 294
f 295 296 294
f 295 297 296
f 297 298 296
f 297 299 298
f 299 300 298
f 299 301 300
f 301 302 300
f 301 303 302
f 303 187 302
f 303 185 187
f 304 305 306
f 304 307 305
f 307 308 305
f 307 309 308
f 309 310 308
f 309 311 310
f 311 312 310
f 311 313 312
f 313 314 312
f 313 315 314
f 315 316 314
f 315 317 316
f 317 318 316
f 317 319 318
f 319 320 318
f 319 321 320
f 321 322 320
f 321 323 322
f 323 324 322
f 323 325 324
f 325 326 324
f 325 327 326
f 327 328 326
f 327 329 328
f 329 330 328
f 329 331 330
f 331 332 330
f 331 333 332
f 333 334 332
f 333 335 334
f 335 336 334
f 335 337 336
f 337 338 336
f 337 339 338
f 339 340 338
f 339 341 340
f 341 342 340
f 341 343 342
f 343 344 342
f 343 345 344
f 345 346 344
f 345 347 346
f 347 348 346
f 347 349 348
f 349 350 348
f 349 351 350
f 351 352 350
f 351 353 352
f 353 354 352
f 353 355 354
f 355 356 354
f 355 357 356
f 357 358 356
f 357 359 358
f 359 245 358
f 359 243 245
f 7 360 4
f 4 361 3
f 360 361 4
f 3 362 1
f 361 362 3
f 362 363 1
f 362 364 363
f 364 365 363
f 364 366 365
f 366 367 365
f 366 368 367
f 368 369 367
f 368 370 369
f 370 371 369
f 370 372 371
f 372 373 371
f 372 374 373
f 374 375 373
f 374 376 375
f 376 377 375
f 376 378 377
f 379 380 381
f 381 380 382
f 382 383 381
f 379 384 380
f 383 385 381
f 379 386 384
f 385 18 381
f 379 387 386
f 20 388 18
f 18 388 381
f 379 389 387
f 20 15 388
f 379 390 389
f 15 14 388
f 14 31 388
f 31 32 388
f 391 392 393
f 390 392 391
f 379 392 390
f 392 394 393
f 392 395 394
f 11 396 12
f 397 398 396
f 399 398 397
f 400 398 399
f 12 398 32
f 401 398 400
f 32 398 388
f 396 398 12
f 402 403 401
f 404 403 402
f 405 403 404
f 395 403 405
f 392 403 395
f 401 403 398
f 406 392 379
f 406 407 392
f 407 403 392
f 407 408 403
f 408 398 403
f 408 409 398
f 409 388 398
f 409 410 388
f 410 381 388
f 410 411 381
f 411 379 381
f 411 406 379
f 412 406 411
f 412 411 413
f 414 413 411
f 415 406 412
f 416 414 411
f 417 406 415
f 418 416 411
f 419 406 417
f 410 420 418
f 410 418 411
f 421 406 419
f 422 420 410
f 423 406 421
f 424 422 410
f 425 424 410
f 407 423 426
f 407 426 427
f 407 406 423
f 428 407 427
f 429 407 428
f 409 430 431
f 409 431 432
f 409 432 433
f 409 433 434
f 409 434 425
f 409 425 410
f 408 429 435
f 408 435 436
f 408 436 437
f 408 437 430
f 408 407 429
f 408 430 409
f 438 74 69
f 418 420 438
f 65 438 69
f 416 418 438
f 422 439 420
f 74 439 78
f 438 439 74
f 420 439 438
f 425 440 424
f 424 440 422
f 439 440 78
f 82 440 86
f 78 440 82
f 422 440 439
f 434 441 425
f 440 441 86
f 86 441 92
f 425 441 440
f 441 442 92
f 432 442 433
f 433 442 434
f 434 442 441
f 96 442 100
f 92 442 96
f 432 443 442
f 431 443 432
f 100 443 105
f 442 443 100
f 437 444 430
f 430 444 431
f 110 444 111
f 105 444 110
f 431 444 443
f 443 444 105
f 436 445 437
f 437 445 444
f 111 445 113
f 444 445 111
f 445 446 113
f 429 446 435
f 435 446 436
f 115 446 117
f 113 446 115
f 436 446 445
f 427 447 428
f 428 447 429
f 117 447 119
f 429 447 446
f 446 447 117
f 447 448 119
f 427 448 447
f 426 448 427
f 121 448 123
f 119 448 121
f 421 449 423
f 423 449 426
f 123 449 125
f 426 449 448
f 448 449 123
f 419 450 421
f 127 450 43
f 125 450 127
f 449 450 125
f 421 450 449
f 43 451 47
f 415 451 417
f 417 451 419
f 419 451 450
f 450 451 43
f 49 452 53
f 47 452 49
f 412 452 415
f 415 452 451
f 451 452 47
f 57 453 61
f 53 453 57
f 412 453 452
f 452 453 53
f 414 453 413
f 413 453 412
f 61 454 65
f 416 454 414
f 414 454 453
f 65 454 438
f 453 454 61
f 438 454 416
f 378 455 377
f 378 456 455
f 456 457 455
f 456 458 457
f 458 459 457
f 458 460 459
f 460 461 459
f 460 462 461
f 462 463 461
f 462 464 463
f 464 465 463
f 464 466 465
f 466 467 465
f 466 468 467
f 468 469 467
f 468 470 469
f 470 471 469
f 470 472 471
f 472 473 471
f 472 474 473
f 474 475 473
f 474 476 475
f 476 477 475
f 476 478 477
f 478 479 477
f 478 480 479
f 480 481 479
f 480 482 481
f 482 483 481
f 482 484 483
f 484 485 483
f 484 486 485
f 486 487 485
f 486 488 487
f 488 489 487
f 488 490 489
f 490 491 489
f 490 492 491
f 492 493 491
f 492 494 493
f 494 495 493
f 494 496 495
f 496 497 495
f 496 498 497
f 498 499 497
f 498 500 499
f 500 501 499
f 500 502 501
f 502 503 501
f 502 504 503
f 504 505 503
f 504 506 505
f 506 507 505
f 506 508 507
f 508 306 507
f 508 304 306
f 13 25 396
f 25 509 396
f 10 510 24
f 6 511 512
f 24 513 25
f 509 513 510
f 25 513 509
f 510 513 24
f 6 514 8
f 8 514 10
f 510 514 512
f 10 514 510
f 512 514 6
f 2 515 5
f 5 516 6
f 511 516 517
f 6 516 511
f 515 516 5
f 2 516 515
f 363 518 1
f 1 518 2
f 518 519 2
f 517 519 520
f 520 519 521
f 2 519 516
f 516 519 517
f 363 522 518
f 367 522 365
f 365 522 363
f 521 523 524
f 524 523 525
f 522 523 518
f 519 523 521
f 518 523 519
f 367 526 522
f 369 526 367
f 525 527 528
f 528 527 529
f 523 527 525
f 522 527 523
f 526 527 522
f 369 530 526
f 373 530 371
f 371 530 369
f 530 531 526
f 529 531 532
f 532 531 533
f 526 531 527
f 527 531 529
f 373 534 530
f 375 534 373
f 533 535 536
f 536 535 537
f 537 535 538
f 534 535 530
f 531 535 533
f 530 535 531
f 534 539 535
f 375 539 534
f 455 539 377
f 377 539 375
f 538 540 541
f 539 540 535
f 535 540 538
f 539 542 540
f 455 542 539
f 459 542 457
f 457 542 455
f 541 543 544
f 544 543 545
f 540 543 541
f 542 543 540
f 459 546 542
f 461 546 459
f 546 547 542
f 542 547 543
f 545 547 548
f 548 547 549
f 543 547 545
f 461 550 546
f 465 550 463
f 463 550 461
f 549 551 552
f 552 551 553
f 553 551 554
f 546 551 547
f 547 551 549
f 550 551 546
f 469 555 467
f 467 555 465
f 465 555 550
f 551 556 554
f 550 556 551
f 555 556 550
f 554 556 557
f 557 556 558
f 469 559 555
f 471 559 469
f 558 560 561
f 561 560 562
f 555 560 556
f 556 560 558
f 559 560 555
f 475 563 473
f 473 563 471
f 471 563 559
f 563 564 559
f 559 564 560
f 562 564 565
f 565 564 566
f 560 564 562
f 475 567 563
f 477 567 475
f 563 568 564
f 566 568 569
f 569 568 570
f 570 568 571
f 564 568 566
f 567 568 563
f 477 572 567
f 481 572 479
f 479 572 477
f 568 573 571
f 567 573 568
f 572 573 567
f 571 573 574
f 574 573 575
f 481 576 572
f 485 576 483
f 483 576 481
f 576 577 572
f 575 577 578
f 578 577 579
f 579 577 580
f 572 577 573
f 573 577 575
f 485 581 576
f 487 581 485
f 576 582 577
f 577 582 580
f 581 582 576
f 580 582 583
f 583 582 584
f 487 585 581
f 491 585 489
f 489 585 487
f 584 586 587
f 587 586 588
f 581 586 582
f 585 586 581
f 582 586 584
f 491 589 585
f 585 589 586
f 493 589 491
f 589 590 586
f 588 590 591
f 591 590 592
f 592 590 593
f 586 590 588
f 589 594 590
f 497 594 495
f 495 594 493
f 493 594 589
f 594 595 590
f 590 595 593
f 593 595 596
f 596 595 597
f 497 598 594
f 501 598 499
f 499 598 497
f 595 599 597
f 594 599 595
f 597 599 600
f 600 599 601
f 598 599 594
f 501 602 598
f 598 602 599
f 503 602 501
f 599 603 601
f 602 603 599
f 601 603 604
f 604 603 605
f 503 606 602
f 507 606 505
f 505 606 503
f 603 607 605
f 602 607 603
f 605 607 608
f 608 607 609
f 606 607 602
f 507 610 606
f 305 610 306
f 306 610 507
f 606 611 607
f 607 611 609
f 610 611 606
f 609 611 612
f 612 611 613
f 308 614 305
f 305 614 610
f 610 614 611
f 613 615 616
f 616 615 617
f 617 615 618
f 611 615 613
f 614 615 611
f 312 619 310
f 310 619 308
f 614 619 615
f 308 619 614
f 618 620 621
f 621 620 622
f 615 620 618
f 619 620 615
f 312 623 619
f 316 623 314
f 314 623 312
f 622 624 625
f 625 624 626
f 619 624 620
f 623 624 619
f 620 624 622
f 623 627 624
f 318 627 316
f 316 627 623
f 627 628 624
f 626 628 629
f 629 628 630
f 630 628 631
f 624 628 626
f 322 632 320
f 320 632 318
f 318 632 627
f 628 633 631
f 632 633 627
f 631 633 634
f 634 633 635
f 627 633 628
f 324 636 322
f 322 636 632
f 632 637 633
f 633 637 635
f 636 637 632
f 635 637 638
f 638 637 639
f 639 637 640
f 324 641 636
f 328 641 326
f 326 641 324
f 636 641 637
f 641 642 637
f 637 642 640
f 640 642 643
f 643 642 644
f 328 645 641
f 332 645 330
f 330 645 328
f 641 646 642
f 642 646 644
f 644 646 647
f 647 646 648
f 648 646 649
f 645 646 641
f 332 650 645
f 334 650 332
f 646 651 649
f 649 651 652
f 645 651 646
f 652 651 653
f 650 651 645
f 338 654 336
f 336 654 334
f 334 654 650
f 650 654 651
f 654 655 651
f 651 655 653
f 653 655 656
f 656 655 657
f 654 658 655
f 340 658 338
f 338 658 654
f 655 659 657
f 658 659 655
f 657 659 660
f 660 659 661
f 661 659 662
f 340 663 658
f 344 663 342
f 342 663 340
f 663 664 658
f 658 664 659
f 662 664 665
f 659 664 662
f 665 664 666
f 348 667 346
f 346 667 344
f 344 667 663
f 663 668 664
f 664 668 666
f 667 668 663
f 666 668 669
f 669 668 670
f 348 671 667
f 350 671 348
f 668 672 670
f 667 672 668
f 670 672 673
f 673 672 674
f 671 672 667
f 350 675 671
f 354 675 352
f 352 675 350
f 672 676 674
f 675 676 671
f 671 676 672
f 674 676 677
f 677 676 678
f 354 679 675
f 356 679 354
f 675 680 676
f 676 680 678
f 679 680 675
f 678 680 681
f 681 680 682
f 356 683 679
f 245 683 358
f 358 683 356
f 684 685 686
f 686 685 687
f 679 685 680
f 680 685 682
f 683 685 679
f 682 685 684
f 248 688 246
f 246 688 245
f 245 688 683
f 687 689 690
f 690 689 691
f 685 689 687
f 688 689 683
f 683 689 685
f 248 692 688
f 252 692 250
f 250 692 248
f 691 693 694
f 694 693 695
f 688 693 689
f 692 693 688
f 689 693 691
f 256 696 254
f 254 696 252
f 252 696 692
f 695 697 698
f 698 697 699
f 699 697 700
f 692 697 693
f 696 697 692
f 693 697 695
f 260 701 258
f 258 701 256
f 256 701 696
f 697 702 700
f 700 702 703
f 703 702 704
f 696 702 697
f 701 702 696
f 260 705 701
f 262 705 260
f 704 706 707
f 707 706 708
f 702 706 704
f 701 706 702
f 705 706 701
f 266 709 264
f 264 709 262
f 262 709 705
f 708 710 711
f 711 710 712
f 706 710 708
f 705 710 706
f 709 710 705
f 269 713 267
f 267 713 266
f 266 713 709
f 712 714 715
f 715 714 716
f 716 714 717
f 710 714 712
f 709 714 710
f 713 714 709
f 273 718 271
f 271 718 269
f 269 718 713
f 717 719 720
f 720 719 721
f 714 719 717
f 713 719 714
f 718 719 713
f 275 722 273
f 273 722 718
f 721 723 724
f 724 723 725
f 725 723 726
f 719 723 721
f 718 723 719
f 722 723 718
f 279 727 277
f 277 727 275
f 275 727 722
f 726 728 729
f 723 728 726
f 722 728 723
f 727 728 722
f 283 730 281
f 281 730 279
f 279 730 727
f 729 731 732
f 732 731 733
f 728 731 729
f 727 731 728
f 730 731 727
f 286 734 285
f 285 734 283
f 283 734 730
f 733 735 736
f 736 735 737
f 731 735 733
f 730 735 731
f 734 735 730
f 290 738 288
f 288 738 286
f 286 738 734
f 738 739 734
f 737 739 740
f 740 739 741
f 735 739 737
f 734 739 735
f 292 742 290
f 290 742 738
f 739 743 741
f 742 743 738
f 741 743 744
f 744 743 745
f 745 743 746
f 738 743 739
f 296 747 294
f 294 747 292
f 292 747 742
f 742 748 743
f 746 748 749
f 749 748 750
f 743 748 746
f 747 748 742
f 300 751 298
f 298 751 296
f 296 751 747
f 751 752 747
f 747 752 748
f 750 752 753
f 753 752 754
f 748 752 750
f 300 755 751
f 187 755 302
f 302 755 300
f 755 756 751
f 752 756 754
f 751 756 752
f 754 756 757
f 757 756 758
f 759 760 190
f 190 760 189
f 189 760 186
f 186 760 187
f 187 760 755
f 759 761 760
f 755 761 756
f 756 761 758
f 758 761 762
f 762 761 763
f 763 761 759
f 760 761 755
f 396 509 397
f 509 399 397
f 509 400 399
f 509 510 400
f 510 764 400
f 510 765 764
f 510 512 765
f 512 766 765
f 512 511 766
f 511 767 766
f 511 517 767
f 517 768 767
f 517 520 768
f 520 769 768
f 521 770 520
f 520 770 769
f 521 524 770
f 525 771 524
f 524 771 770
f 528 772 525
f 525 772 771
f 529 773 528
f 528 773 772
f 529 532 773
f 536 774 533
f 538 775 537
f 538 776 775
f 544 777 541
f 548 778 545
f 552 779 549
f 558 17 19
f 759 249 247
f 780 781 774
f 773 781 780
f 533 781 532
f 532 781 773
f 774 781 533
f 536 782 774
f 775 782 537
f 774 782 775
f 537 782 536
f 538 783 776
f 776 783 777
f 777 783 541
f 541 783 538
f 784 785 778
f 777 785 784
f 544 785 777
f 778 785 545
f 545 785 544
f 778 786 779
f 549 786 548
f 779 786 549
f 548 786 778
f 787 788 789
f 779 788 787
f 553 788 552
f 554 788 553
f 552 788 779
f 789 788 554
f 789 790 19
f 557 790 554
f 558 790 557
f 554 790 789
f 19 790 558
f 561 791 558
f 36 791 16
f 562 791 561
f 17 791 36
f 558 791 17
f 16 791 562
f 565 792 562
f 566 792 565
f 562 792 16
f 34 792 566
f 34 793 792
f 792 793 16
f 16 793 34
f 569 794 566
f 570 794 569
f 571 794 570
f 566 794 34
f 30 795 29
f 34 795 30
f 794 795 34
f 29 795 794
f 574 796 571
f 575 796 574
f 794 796 29
f 571 796 794
f 27 797 23
f 29 797 27
f 796 797 29
f 23 797 796
f 796 798 23
f 575 798 796
f 578 798 575
f 579 798 578
f 580 798 579
f 23 799 22
f 798 799 23
f 580 800 798
f 798 800 799
f 583 800 580
f 584 800 583
f 9 801 7
f 22 801 9
f 799 801 22
f 800 801 799
f 587 802 584
f 588 802 587
f 584 802 800
f 7 803 360
f 360 803 361
f 802 803 800
f 801 803 7
f 800 803 801
f 591 804 588
f 592 804 591
f 593 804 592
f 588 804 802
f 804 805 802
f 361 805 362
f 803 805 361
f 802 805 803
f 596 806 593
f 597 806 596
f 593 806 804
f 804 807 805
f 805 807 362
f 362 807 364
f 806 807 804
f 364 807 366
f 597 808 806
f 600 808 597
f 601 808 600
f 366 809 368
f 368 809 370
f 806 809 807
f 807 809 366
f 808 809 806
f 604 810 601
f 605 810 604
f 601 810 808
f 809 811 370
f 808 811 809
f 370 811 372
f 810 811 808
f 605 812 810
f 608 812 605
f 609 812 608
f 372 813 374
f 374 813 376
f 811 813 372
f 810 813 811
f 812 813 810
f 612 814 609
f 613 814 612
f 609 814 812
f 813 815 376
f 812 815 813
f 814 815 812
f 376 815 378
f 613 816 814
f 616 816 613
f 617 816 616
f 618 816 617
f 378 817 456
f 456 817 458
f 814 817 815
f 815 817 378
f 816 817 814
f 621 818 618
f 622 818 621
f 618 818 816
f 817 819 458
f 816 819 817
f 818 819 816
f 458 819 460
f 460 819 462
f 622 820 818
f 625 820 622
f 626 820 625
f 462 821 464
f 818 821 819
f 819 821 462
f 820 821 818
f 626 822 820
f 629 822 626
f 630 822 629
f 631 822 630
f 821 823 464
f 822 823 820
f 464 823 466
f 466 823 468
f 820 823 821
f 631 824 822
f 634 824 631
f 635 824 634
f 822 825 823
f 823 825 468
f 824 825 822
f 468 825 470
f 470 825 472
f 638 826 635
f 635 826 824
f 639 826 638
f 640 826 639
f 472 827 474
f 825 827 472
f 824 827 825
f 826 827 824
f 643 828 640
f 644 828 643
f 640 828 826
f 827 829 474
f 826 829 827
f 474 829 476
f 476 829 478
f 828 829 826
f 647 830 644
f 648 830 647
f 649 830 648
f 644 830 828
f 829 831 478
f 828 831 829
f 830 831 828
f 478 831 480
f 649 832 830
f 830 832 831
f 652 832 649
f 653 832 652
f 831 833 480
f 832 833 831
f 480 833 482
f 482 833 484
f 653 834 832
f 656 834 653
f 657 834 656
f 832 835 833
f 834 835 832
f 833 835 484
f 484 835 486
f 486 835 488
f 657 836 834
f 660 836 657
f 661 836 660
f 662 836 661
f 834 837 835
f 836 837 834
f 835 837 488
f 488 837 490
f 836 838 837
f 662 838 836
f 665 838 662
f 666 838 665
f 838 839 837
f 490 839 492
f 492 839 494
f 837 839 490
f 666 840 838
f 669 840 666
f 670 840 669
f 840 841 838
f 838 841 839
f 494 841 496
f 839 841 494
f 670 842 840
f 673 842 670
f 674 842 673
f 842 843 840
f 496 843 498
f 498 843 500
f 840 843 841
f 841 843 496
f 674 844 842
f 842 844 843
f 677 844 674
f 678 844 677
f 844 845 843
f 500 845 502
f 502 845 504
f 843 845 500
f 681 846 678
f 682 846 681
f 678 846 844
f 844 847 845
f 846 847 844
f 845 847 504
f 504 847 506
f 682 848 846
f 846 848 847
f 684 848 682
f 686 848 684
f 687 848 686
f 847 849 506
f 848 849 847
f 506 849 508
f 508 849 304
f 687 850 848
f 690 850 687
f 691 850 690
f 850 851 848
f 848 851 849
f 849 851 304
f 304 851 307
f 307 851 309
f 695 852 694
f 691 852 850
f 694 852 691
f 850 853 851
f 852 853 850
f 309 853 311
f 851 853 309
f 698 854 695
f 699 854 698
f 700 854 699
f 852 854 853
f 695 854 852
f 853 855 311
f 311 855 313
f 313 855 315
f 854 855 853
f 703 856 700
f 704 856 703
f 700 856 854
f 855 857 315
f 856 857 854
f 315 857 317
f 854 857 855
f 707 858 704
f 708 858 707
f 856 858 857
f 704 858 856
f 857 859 317
f 858 859 857
f 317 859 319
f 319 859 321
f 711 860 708
f 712 860 711
f 858 860 859
f 708 860 858
f 321 861 323
f 323 861 325
f 860 861 859
f 859 861 321
f 715 862 712
f 716 862 715
f 717 862 716
f 712 862 860
f 860 863 861
f 862 863 860
f 861 863 325
f 325 863 327
f 720 864 717
f 721 864 720
f 717 864 862
f 862 865 863
f 864 865 862
f 863 865 327
f 327 865 329
f 329 865 331
f 724 866 721
f 721 866 864
f 725 866 724
f 726 866 725
f 864 866 865
f 866 867 865
f 331 867 333
f 865 867 331
f 729 868 726
f 726 868 866
f 866 869 867
f 867 869 333
f 868 869 866
f 333 869 335
f 335 869 337
f 732 870 729
f 733 870 732
f 868 870 869
f 729 870 868
f 870 871 869
f 869 871 337
f 337 871 339
f 339 871 341
f 736 872 733
f 737 872 736
f 870 872 871
f 733 872 870
f 871 873 341
f 872 873 871
f 341 873 343
f 740 874 737
f 741 874 740
f 737 874 872
f 872 874 873
f 874 875 873
f 873 875 343
f 343 875 345
f 345 875 347
f 744 876 741
f 745 876 744
f 746 876 745
f 741 876 874
f 874 877 875
f 875 877 347
f 876 877 874
f 347 877 349
f 349 877 351
f 749 878 746
f 750 878 749
f 746 878 876
f 878 879 876
f 876 879 877
f 877 879 351
f 351 879 353
f 753 880 750
f 754 880 753
f 878 880 879
f 750 880 878
f 879 881 353
f 880 881 879
f 353 881 355
f 355 881 357
f 757 882 754
f 758 882 757
f 754 882 880
f 881 883 357
f 880 883 881
f 882 883 880
f 357 883 359
f 247 884 759
f 762 884 758
f 763 884 762
f 759 884 763
f 882 884 883
f 758 884 882
f 244 885 247
f 247 885 884
f 883 885 359
f 884 885 883
f 359 885 243
f 243 885 244
f 19 18 789
f 789 385 787
f 18 385 789
f 787 383 779
f 385 383 787
f 779 382 778
f 383 382 779
f 778 380 784
f 382 380 778
f 784 384 777
f 380 384 784
f 777 386 776
f 384 386 777
f 776 387 775
f 386 387 776
f 775 389 774
f 387 389 775
f 774 390 780
f 389 390 774
f 780 391 773
f 390 391 780
f 773 393 772
f 391 393 773
f 772 394 771
f 393 394 772
f 394 770 771
f 394 395 770
f 395 769 770
f 395 405 769
f 405 768 769
f 405 404 768
f 404 767 768
f 404 402 767
f 402 766 767
f 402 401 766
f 401 765 766
f 401 764 765
f 401 400 764
f 13 396 11
f 886 107 103
f 887 888 759
f 889 888 887
f 759 890 249
f 249 890 251
f 251 890 253
f 888 890 759
f 891 892 889
f 893 892 891
f 889 892 888
f 253 894 255
f 255 894 257
f 892 894 888
f 890 894 253
f 888 894 890
f 895 896 893
f 893 896 892
f 257 897 259
f 894 897 257
f 892 897 894
f 896 897 892
f 898 899 895
f 900 899 898
f 895 899 896
f 897 901 259
f 896 901 897
f 259 901 261
f 261 901 263
f 899 901 896
f 902 903 900
f 904 903 902
f 900 903 899
f 903 905 899
f 263 905 265
f 899 905 901
f 901 905 263
f 904 906 903
f 907 906 904
f 908 906 907
f 265 909 268
f 268 909 270
f 903 909 905
f 905 909 265
f 906 909 903
f 910 911 908
f 912 911 910
f 906 911 909
f 908 911 906
f 909 913 270
f 270 913 272
f 272 913 274
f 911 913 909
f 914 915 912
f 916 915 914
f 917 915 916
f 912 915 911
f 274 918 276
f 915 918 911
f 913 918 274
f 911 918 913
f 919 920 917
f 917 920 915
f 276 921 278
f 278 921 280
f 918 921 276
f 915 921 918
f 920 921 915
f 922 923 919
f 924 923 922
f 919 923 920
f 921 925 280
f 280 925 282
f 282 925 284
f 920 925 921
f 923 925 920
f 926 927 924
f 928 927 926
f 924 927 923
f 284 929 287
f 925 929 284
f 923 929 925
f 927 929 923
f 930 931 928
f 932 931 930
f 933 931 932
f 928 931 927
f 927 934 929
f 287 934 289
f 931 934 927
f 289 934 291
f 929 934 287
f 935 936 933
f 937 936 935
f 933 936 931
f 931 936 934
f 291 938 293
f 934 938 291
f 936 938 934
f 939 940 937
f 941 940 939
f 937 940 936
f 938 942 293
f 936 942 938
f 293 942 295
f 295 942 297
f 940 942 936
f 943 944 941
f 945 944 943
f 941 944 940
f 940 944 942
f 297 946 299
f 299 946 301
f 942 946 297
f 944 946 942
f 947 948 945
f 949 948 947
f 950 948 949
f 945 948 944
f 946 951 301
f 944 951 946
f 948 951 944
f 301 951 303
f 303 951 185
f 952 953 950
f 954 953 952
f 950 953 948
f 948 953 951
f 185 955 188
f 951 955 185
f 953 955 951
f 956 957 954
f 958 957 956
f 959 957 958
f 954 957 953
f 955 960 188
f 188 960 191
f 191 960 193
f 953 960 955
f 957 960 953
f 961 962 959
f 963 962 961
f 959 962 957
f 962 964 957
f 193 964 196
f 196 964 198
f 957 964 960
f 960 964 193
f 965 966 963
f 967 966 965
f 963 966 962
f 198 968 200
f 964 968 198
f 962 968 964
f 966 968 962
f 969 970 967
f 971 970 969
f 972 970 971
f 967 970 966
f 966 973 968
f 200 973 202
f 202 973 204
f 970 973 966
f 968 973 200
f 974 975 972
f 976 975 974
f 972 975 970
f 975 977 970
f 970 977 973
f 204 977 206
f 206 977 208
f 973 977 204
f 978 979 976
f 980 979 978
f 976 979 975
f 977 981 208
f 979 981 975
f 208 981 210
f 975 981 977
f 980 982 979
f 983 982 980
f 984 982 983
f 979 985 981
f 981 985 210
f 210 985 212
f 212 985 214
f 982 985 979
f 984 986 982
f 987 986 984
f 988 986 987
f 986 989 982
f 982 989 985
f 985 989 214
f 214 989 216
f 990 991 988
f 992 991 990
f 988 991 986
f 986 993 989
f 216 993 218
f 218 993 220
f 989 993 216
f 991 993 986
f 992 994 991
f 991 994 993
f 995 994 992
f 996 994 995
f 997 994 996
f 220 998 222
f 222 998 224
f 993 998 220
f 994 998 993
f 999 1000 997
f 1001 1000 999
f 997 1000 994
f 224 1002 226
f 994 1002 998
f 998 1002 224
f 1000 1002 994
f 1001 1003 1000
f 1004 1003 1001
f 1005 1003 1004
f 1003 1006 1000
f 1002 1006 226
f 226 1006 228
f 228 1006 230
f 1000 1006 1002
f 1007 1008 1005
f 1009 1008 1007
f 1010 1008 1009
f 1005 1008 1003
f 1008 1011 1003
f 230 1011 232
f 1003 1011 1006
f 1006 1011 230
f 1010 1012 1008
f 1013 1012 1010
f 1014 1012 1013
f 1012 1015 1008
f 1011 1015 232
f 1008 1015 1011
f 232 1015 234
f 234 1015 236
f 1014 1016 1012
f 1017 1016 1014
f 1018 1016 1017
f 1019 1016 1018
f 1012 1020 1015
f 1015 1020 236
f 236 1020 238
f 238 1020 240
f 1016 1020 1012
f 1019 1021 1016
f 1022 1021 1019
f 1023 1021 1022
f 1021 1024 1016
f 1016 1024 1020
f 1020 1024 240
f 240 1024 242
f 1023 1025 1021
f 1026 1025 1023
f 1027 1025 1026
f 1028 1025 1027
f 1021 1029 1024
f 242 1029 129
f 129 1029 132
f 1025 1029 1021
f 1024 1029 242
f 1028 1030 1025
f 1031 1030 1028
f 1032 1030 1031
f 132 1033 134
f 134 1033 136
f 1029 1033 132
f 1030 1033 1025
f 1025 1033 1029
f 1032 1034 1030
f 1035 1034 1032
f 1036 1034 1035
f 1030 1037 1033
f 1034 1037 1030
f 1033 1037 136
f 136 1037 138
f 1036 1038 1034
f 1039 1038 1036
f 1040 1038 1039
f 1041 1038 1040
f 1037 1042 138
f 138 1042 140
f 140 1042 142
f 1034 1042 1037
f 1038 1042 1034
f 1043 1044 1041
f 1045 1044 1043
f 1041 1044 1038
f 1044 1046 1038
f 1038 1046 1042
f 142 1046 144
f 1042 1046 142
f 1045 1047 1044
f 1048 1047 1045
f 1049 1047 1048
f 1046 1050 144
f 1047 1050 1044
f 144 1050 146
f 146 1050 148
f 1044 1050 1046
f 1049 1051 1047
f 1052 1051 1049
f 1053 1051 1052
f 1050 1054 148
f 1047 1054 1050
f 1051 1054 1047
f 148 1054 150
f 150 1054 152
f 1053 1055 1051
f 1056 1055 1053
f 1057 1055 1056
f 1055 1058 1051
f 1054 1058 152
f 1051 1058 1054
f 152 1058 154
f 1057 1059 1055
f 1060 1059 1057
f 1061 1059 1060
f 1058 1062 154
f 1055 1062 1058
f 1059 1062 1055
f 154 1062 156
f 156 1062 158
f 1061 1063 1059
f 1059 1063 1062
f 1064 1063 1061
f 1065 1063 1064
f 1066 1063 1065
f 1062 1067 158
f 1063 1067 1062
f 158 1067 160
f 1066 1068 1063
f 1069 1068 1066
f 1070 1068 1069
f 1063 1071 1067
f 1067 1071 160
f 1068 1071 1063
f 160 1071 162
f 162 1071 164
f 1072 1073 1074
f 1070 1073 1068
f 1074 1073 1070
f 1068 1075 1071
f 1071 1075 164
f 164 1075 166
f 166 1075 168
f 1073 1075 1068
f 1076 1077 1072
f 1078 1077 1076
f 1079 1077 1078
f 1072 1077 1073
f 1075 1080 168
f 1073 1080 1075
f 1077 1080 1073
f 168 1080 170
f 1081 1082 1079
f 1083 1082 1081
f 1079 1082 1077
f 1077 1084 1080
f 1080 1084 170
f 170 1084 172
f 172 1084 174
f 1082 1084 1077
f 1083 1085 1082
f 1086 1085 1083
f 1087 1085 1086
f 1085 1088 1082
f 1084 1088 174
f 1082 1088 1084
f 174 1088 176
f 1089 1090 1087
f 1091 1090 1089
f 1087 1090 1085
f 1085 1092 1088
f 1088 1092 176
f 1090 1092 1085
f 176 1092 178
f 178 1092 180
f 1093 1094 1091
f 1095 1094 1093
f 1096 1094 1095
f 1091 1094 1090
f 1094 1097 1090
f 1090 1097 1092
f 1092 1097 180
f 180 1097 182
f 182 1097 184
f 1096 1098 1094
f 1099 1098 1096
f 1100 1098 1099
f 1094 1098 1097
f 1098 1101 1097
f 1097 1101 184
f 184 1101 37
f 1102 1103 1100
f 1104 1103 1102
f 1105 1103 1104
f 1100 1103 1098
f 1103 1106 1098
f 1098 1106 1101
f 1101 1106 37
f 37 1106 40
f 40 1106 45
f 1107 1108 1105
f 1105 1108 1103
f 1103 1108 1106
f 1106 1109 45
f 1108 1109 1106
f 45 1109 51
f 51 1109 55
f 1110 1111 1107
f 1112 1111 1110
f 1107 1111 1108
f 1111 1113 1108
f 1108 1113 1109
f 1109 1113 55
f 55 1113 59
f 1114 1115 1112
f 1116 1115 1114
f 1112 1115 1111
f 1111 1115 1113
f 1113 1117 59
f 59 1117 63
f 1115 1117 1113
f 63 1117 67
f 1118 1119 1116
f 1120 1119 1118
f 1116 1119 1115
f 1115 1119 1117
f 67 1121 71
f 1117 1121 67
f 71 1121 75
f 1119 1121 1117
f 1122 1123 1120
f 1124 1123 1122
f 1125 1123 1124
f 1120 1123 1119
f 1123 1126 1119
f 1121 1126 75
f 75 1126 79
f 1119 1126 1121
f 1127 1128 1125
f 1129 1128 1127
f 1125 1128 1123
f 1126 1130 79
f 1123 1130 1126
f 1128 1130 1123
f 79 1130 83
f 83 1130 87
f 1129 1131 1128
f 1132 1131 1129
f 1133 1131 1132
f 1128 1131 1130
f 1130 1134 87
f 1131 1134 1130
f 87 1134 90
f 1133 1135 1131
f 1136 1135 1133
f 1137 1135 1136
f 1131 1138 1134
f 1134 1138 90
f 1135 1138 1131
f 90 1138 94
f 94 1138 98
f 103 1139 886
f 1135 1139 1138
f 1140 1139 1137
f 1141 1139 1140
f 886 1139 1141
f 1137 1139 1135
f 102 1142 103
f 1139 1142 1138
f 103 1142 1139
f 1138 1142 98
f 98 1142 102
f 886 109 107
f 195 1143 194
f 194 1143 192
f 192 1143 190
f 190 1143 759
f 759 1144 887
f 887 1144 889
f 1143 1144 759
f 197 1145 195
f 195 1145 1143
f 889 1146 891
f 891 1146 893
f 1145 1146 1143
f 1144 1146 889
f 1143 1146 1144
f 201 1147 199
f 199 1147 197
f 197 1147 1145
f 893 1148 895
f 1146 1148 893
f 1145 1148 1146
f 1147 1148 1145
f 205 1149 203
f 203 1149 201
f 201 1149 1147
f 1149 1150 1147
f 895 1150 898
f 898 1150 900
f 1148 1150 895
f 1147 1150 1148
f 207 1151 205
f 205 1151 1149
f 1149 1152 1150
f 900 1152 902
f 902 1152 904
f 1150 1152 900
f 1151 1152 1149
f 211 1153 209
f 209 1153 207
f 207 1153 1151
f 904 1154 907
f 907 1154 908
f 1151 1154 1152
f 1152 1154 904
f 1153 1154 1151
f 213 1155 211
f 211 1155 1153
f 1154 1156 908
f 908 1156 910
f 910 1156 912
f 1153 1156 1154
f 1155 1156 1153
f 217 1157 215
f 215 1157 213
f 213 1157 1155
f 1157 1158 1155
f 912 1158 914
f 914 1158 916
f 916 1158 917
f 1156 1158 912
f 1155 1158 1156
f 221 1159 219
f 219 1159 217
f 217 1159 1157
f 1158 1160 917
f 917 1160 919
f 1157 1160 1158
f 1159 1160 1157
f 223 1161 221
f 221 1161 1159
f 919 1162 922
f 922 1162 924
f 1160 1162 919
f 1159 1162 1160
f 1161 1162 1159
f 227 1163 225
f 225 1163 223
f 1161 1163 1162
f 223 1163 1161
f 924 1164 926
f 926 1164 928
f 1163 1164 1162
f 1162 1164 924
f 229 1165 227
f 227 1165 1163
f 1163 1166 1164
f 1164 1166 928
f 928 1166 930
f 930 1166 932
f 932 1166 933
f 1165 1166 1163
f 233 1167 231
f 231 1167 229
f 229 1167 1165
f 1165 1168 1166
f 1166 1168 933
f 933 1168 935
f 935 1168 937
f 1167 1168 1165
f 233 1169 1167
f 237 1169 235
f 235 1169 233
f 937 1170 939
f 939 1170 941
f 1169 1170 1167
f 1167 1170 1168
f 1168 1170 937
f 239 1171 237
f 237 1171 1169
f 1170 1172 941
f 1169 1172 1170
f 941 1172 943
f 943 1172 945
f 1171 1172 1169
f 131 1173 241
f 241 1173 239
f 239 1173 1171
f 1171 1174 1172
f 1173 1174 1171
f 1172 1174 945
f 945 1174 947
f 947 1174 949
f 949 1174 950
f 133 1175 130
f 130 1175 131
f 131 1175 1173
f 950 1176 952
f 952 1176 954
f 1175 1176 1173
f 1174 1176 950
f 1173 1176 1174
f 135 1177 133
f 133 1177 1175
f 954 1178 956
f 956 1178 958
f 958 1178 959
f 1175 1178 1176
f 1176 1178 954
f 1177 1178 1175
f 139 1179 137
f 137 1179 135
f 135 1179 1177
f 959 1180 961
f 961 1180 963
f 1178 1180 959
f 1177 1180 1178
f 1179 1180 1177
f 143 1181 141
f 141 1181 139
f 139 1181 1179
f 1180 1182 963
f 1179 1182 1180
f 963 1182 965
f 965 1182 967
f 1181 1182 1179
f 145 1183 143
f 143 1183 1181
f 1182 1184 967
f 1181 1184 1182
f 967 1184 969
f 969 1184 971
f 971 1184 972
f 1183 1184 1181
f 147 1185 145
f 1183 1185 1184
f 145 1185 1183
f 149 1185 147
f 1184 1186 972
f 1185 1186 1184
f 972 1186 974
f 974 1186 976
f 149 1187 1185
f 151 1187 149
f 1185 1188 1186
f 1187 1188 1185
f 976 1188 978
f 978 1188 980
f 1186 1188 976
f 151 1189 1187
f 1187 1189 1188
f 155 1189 153
f 153 1189 151
f 1188 1190 980
f 980 1190 983
f 983 1190 984
f 1189 1190 1188
f 155 1191 1189
f 159 1191 157
f 157 1191 155
f 1191 1192 1189
f 1189 1192 1190
f 984 1192 987
f 987 1192 988
f 1190 1192 984
f 159 1193 1191
f 1191 1193 1192
f 161 1193 159
f 1192 1194 988
f 988 1194 990
f 990 1194 992
f 1193 1194 1192
f 161 1195 1193
f 165 1195 163
f 163 1195 161
f 1193 1196 1194
f 992 1196 995
f 995 1196 996
f 996 1196 997
f 1194 1196 992
f 1195 1196 1193
f 165 1197 1195
f 167 1197 165
f 1195 1198 1196
f 1196 1198 997
f 997 1198 999
f 999 1198 1001
f 1197 1198 1195
f 167 1199 1197
f 171 1199 169
f 169 1199 167
f 1001 1200 1004
f 1004 1200 1005
f 1199 1200 1197
f 1198 1200 1001
f 1197 1200 1198
f 171 1201 1199
f 175 1201 173
f 173 1201 171
f 1201 1202 1199
f 1199 1202 1200
f 1005 1202 1007
f 1007 1202 1009
f 1009 1202 1010
f 1200 1202 1005
f 175 1203 1201
f 177 1203 175
f 1202 1204 1010
f 1203 1204 1201
f 1201 1204 1202
f 1010 1204 1013
f 1013 1204 1014
f 177 1205 1203
f 181 1205 179
f 179 1205 177
f 1204 1206 1014
f 1203 1206 1204
f 1014 1206 1017
f 1017 1206 1018
f 1018 1206 1019
f 1205 1206 1203
f 181 1207 1205
f 183 1207 181
f 1207 1208 1205
f 1205 1208 1206
f 1206 1208 1019
f 1019 1208 1022
f 1022 1208 1023
f 183 1209 1207
f 38 1209 39
f 39 1209 183
f 1207 1210 1208
f 1209 1210 1207
f 1023 1210 1026
f 1026 1210 1027
f 1027 1210 1028
f 1208 1210 1023
f 38 1211 1209
f 1209 1211 1210
f 46 1211 41
f 41 1211 38
f 1210 1212 1028
f 1028 1212 1031
f 1031 1212 1032
f 1211 1212 1210
f 46 1213 1211
f 52 1213 46
f 1212 1214 1032
f 1211 1214 1212
f 1032 1214 1035
f 1035 1214 1036
f 1213 1214 1211
f 52 1215 1213
f 60 1215 56
f 56 1215 52
f 1215 1216 1213
f 1213 1216 1214
f 1214 1216 1036
f 1036 1216 1039
f 1039 1216 1040
f 1040 1216 1041
f 68 1217 64
f 64 1217 60
f 60 1217 1215
f 1216 1218 1041
f 1217 1218 1215
f 1041 1218 1043
f 1043 1218 1045
f 1215 1218 1216
f 68 1219 1217
f 1217 1219 1218
f 72 1219 68
f 1219 1220 1218
f 1218 1220 1045
f 1045 1220 1048
f 1048 1220 1049
f 80 1221 76
f 76 1221 72
f 72 1221 1219
f 1221 1222 1219
f 1220 1222 1049
f 1219 1222 1220
f 1049 1222 1052
f 1052 1222 1053
f 80 1223 1221
f 84 1223 80
f 1221 1224 1222
f 1222 1224 1053
f 1223 1224 1221
f 1053 1224 1056
f 1056 1224 1057
f 84 1225 1223
f 91 1225 88
f 88 1225 84
f 1223 1226 1224
f 1224 1226 1057
f 1225 1226 1223
f 1057 1226 1060
f 1060 1226 1061
f 91 1227 1225
f 99 1227 95
f 95 1227 91
f 1226 1228 1061
f 1225 1228 1226
f 1227 1228 1225
f 1061 1228 1064
f 1064 1228 1065
f 1065 1228 1066
f 99 1229 1227
f 104 1229 99
f 1228 1230 1066
f 1227 1230 1228
f 1229 1230 1227
f 1066 1230 1069
f 1069 1230 1070
f 112 1231 108
f 108 1231 104
f 104 1231 1229
f 1229 1232 1230
f 1230 1232 1070
f 1231 1232 1229
f 1070 1232 1074
f 1074 1232 1072
f 114 1233 112
f 112 1233 1231
f 1076 1234 1078
f 1078 1234 1079
f 1231 1234 1232
f 1232 1234 1072
f 1233 1234 1231
f 1072 1234 1076
f 114 1235 1233
f 1233 1235 1234
f 118 1235 116
f 116 1235 114
f 1079 1236 1081
f 1081 1236 1083
f 1235 1236 1234
f 1234 1236 1079
f 1235 1237 1236
f 118 1237 1235
f 122 1237 120
f 120 1237 118
f 1083 1238 1086
f 1086 1238 1087
f 1237 1238 1236
f 1236 1238 1083
f 122 1239 1237
f 124 1239 122
f 1087 1240 1089
f 1089 1240 1091
f 1238 1240 1087
f 1237 1240 1238
f 1239 1240 1237
f 124 1241 1239
f 128 1241 126
f 126 1241 124
f 1091 1242 1093
f 1093 1242 1095
f 1095 1242 1096
f 1240 1242 1091
f 1239 1242 1240
f 1241 1242 1239
f 128 1243 1241
f 44 1243 42
f 42 1243 128
f 1096 1244 1099
f 1099 1244 1100
f 1242 1244 1096
f 1243 1244 1241
f 1241 1244 1242
f 50 1245 48
f 48 1245 44
f 44 1245 1243
f 1243 1245 1244
f 1100 1246 1102
f 1102 1246 1104
f 1104 1246 1105
f 1244 1246 1100
f 1245 1246 1244
f 58 1247 54
f 54 1247 50
f 50 1247 1245
f 1105 1248 1107
f 1246 1248 1105
f 1245 1248 1246
f 1247 1248 1245
f 62 1249 58
f 58 1249 1247
f 1107 1250 1110
f 1110 1250 1112
f 1248 1250 1107
f 1247 1250 1248
f 1249 1250 1247
f 70 1251 66
f 66 1251 62
f 62 1251 1249
f 1112 1252 1114
f 1114 1252 1116
f 1250 1252 1112
f 1249 1252 1250
f 1251 1252 1249
f 77 1253 73
f 73 1253 70
f 70 1253 1251
f 1251 1253 1252
f 1116 1254 1118
f 1118 1254 1120
f 1252 1254 1116
f 1253 1254 1252
f 1253 1255 1254
f 81 1255 77
f 77 1255 1253
f 1120 1256 1122
f 1122 1256 1124
f 1124 1256 1125
f 1254 1256 1120
f 1255 1256 1254
f 81 1257 1255
f 89 1257 85
f 85 1257 81
f 1125 1258 1127
f 1127 1258 1129
f 1255 1258 1256
f 1256 1258 1125
f 1257 1258 1255
f 89 1259 1257
f 93 1259 89
f 1257 1260 1258
f 1129 1260 1132
f 1132 1260 1133
f 1258 1260 1129
f 1259 1260 1257
f 93 1261 1259
f 101 1261 97
f 97 1261 93
f 1261 1262 1259
f 1259 1262 1260
f 1133 1262 1136
f 1136 1262 1137
f 1260 1262 1133
f 1261 1263 1262
f 886 1263 109
f 109 1263 106
f 106 1263 101
f 101 1263 1261
f 1263 1264 1262
f 886 1264 1263
f 1262 1264 1137
f 1137 1264 1140
f 1140 1264 1141
f 1141 1264 886
