# Full FreeCAD instance transform baked; body-local coordinates in mm
v -59.407000021 94.844999993 143.147343414
v -56.866999993 89.765000006 143.147343395
v -56.867000021 94.845000006 143.147343414
v -59.406999993 89.764999993 143.147343395
v -59.406999993 89.764999993 143.045743395
v -56.866999993 89.765000007 143.045743395
v -56.867000021 94.845000007 143.045743414
v -59.407000021 94.844999993 143.045743414
f 1 2 3
f 1 4 2
f 5 6 2
f 5 2 4
f 3 2 6
f 3 6 7
f 1 3 7
f 1 7 8
f 8 5 4
f 8 4 1
f 7 5 8
f 7 6 5
