# smartdrone2 body-local mesh, millimetres
v -1.174638 -195.962190 -124.676802
v -1.297575 -196.227288 -124.699653
v -1.241539 -196.231419 -124.762233
v -1.363626 -196.552294 -124.735871
v -1.241553 -196.508109 -124.849964
v -1.174618 -196.777343 -124.935331
v -1.348280 -196.894047 -124.778258
v -1.059089 -197.036529 -125.000362
v -1.244952 -197.241276 -124.821163
v -0.859375 -197.930363 -124.809173
v -0.506611 -198.077075 -124.855692
v -0.809961 -197.818907 -124.877512
v 1.096523 -197.245722 -124.926003
v 1.488482 -197.330680 -124.619030
v 1.221936 -197.090962 -124.865903
v 1.259934 -197.625869 -124.712626
v -1.190704 -197.285542 -124.850593
v -0.885831 -197.263818 -125.055396
v -1.142923 -197.435115 -124.843450
v -0.839633 -197.607495 -124.952675
v -0.665390 -197.447319 -125.096926
v -0.991526 -197.639907 -124.864198
v -0.398125 -197.803767 -125.014908
v -0.409180 -197.579680 -125.122394
v -0.130881 -197.655170 -125.130135
v -0.128442 -198.145282 -124.877318
v 0.086265 -197.853219 -125.030588
v 0.157662 -197.671801 -125.119268
v 0.442176 -197.629175 -125.089908
v 0.256167 -198.131564 -124.872969
v 0.561364 -197.750524 -124.998026
v 0.708998 -197.530755 -125.043006
v 0.968207 -197.865178 -124.788505
v 0.627930 -198.036609 -124.842861
v 0.975998 -197.506743 -124.920729
v 0.948109 -197.380877 -124.979943
v 0.625000 -195.042699 -125.409999
v 0.795564 -195.173614 -125.388804
v 0.625000 -195.066393 -125.335275
v 0.795520 -195.149910 -125.463445
v 0.943954 -195.305945 -125.450288
v 0.943995 -195.282366 -125.524807
v 1.107929 -195.527435 -125.547907
v 1.108128 -195.504102 -125.622757
v 1.211719 -195.778626 -125.654971
v 1.211808 -195.755314 -125.729666
v 1.249873 -196.046383 -125.767275
v 1.249871 -196.022575 -125.841828
v 1.219978 -196.315008 -125.879948
v 1.220028 -196.291122 -125.954535
v 1.123670 -196.569524 -125.988064
v 1.123924 -196.545391 -126.062445
v 0.966440 -196.795322 -126.087112
v 0.967107 -196.770893 -126.161468
v 0.757024 -196.979917 -126.172992
v 0.757861 -196.955687 -126.247299
v 0.505889 -197.113425 -126.242797
v 0.507339 -197.089195 -126.317090
v 0.227232 -197.187606 -126.293767
v 0.229018 -197.163661 -126.368190
v -0.063786 -197.197998 -126.324514
v -0.060964 -197.174573 -126.398859
v -0.351344 -197.143602 -126.334729
v -0.348540 -197.120772 -126.409439
v -0.619278 -197.027237 -126.325236
v -0.616614 -197.005118 -126.400007
v -0.853614 -196.854755 -126.297944
v -0.851437 -196.833099 -126.372955
v -1.041474 -196.635361 -126.255712
v -1.040231 -196.613522 -126.330776
v -1.173233 -196.379651 -126.202119
v -1.172190 -196.358790 -126.277265
v -1.241221 -196.101596 -126.141358
v -1.240876 -196.080714 -126.216701
v -1.241727 -195.815844 -126.078226
v -1.242109 -195.795485 -126.153514
v -1.174655 -195.537253 -126.017352
v -1.175967 -195.517258 -126.092809
v -1.045788 -195.284329 -125.964168
v -1.045801 -195.260676 -126.038826
v -0.861433 -195.065778 -125.922019
v -0.858852 -195.039705 -125.996150
v -0.628552 -194.891400 -125.893984
v -0.625371 -194.865579 -125.968538
v -0.360961 -194.772600 -125.883956
v -0.358699 -194.756138 -125.933622
v -0.073937 -194.716068 -125.893304
v -0.072776 -194.708047 -125.918374
v 0.217071 -194.724144 -125.923456
v -1.241718 -196.498818 -124.874562
v -1.241202 -196.212872 -124.811271
v -1.173186 -195.934823 -124.750596
v -1.086134 -195.774333 -124.637108
v -1.041720 -195.679635 -124.697009
v -0.966871 -195.603235 -124.602578
v -0.853207 -195.459466 -124.654738
v -0.756280 -195.401765 -124.566313
v -0.618234 -195.286781 -124.627372
v -0.503855 -195.252103 -124.546352
v -0.349760 -195.170510 -124.618021
v -0.223718 -195.162285 -124.545539
v -0.063075 -195.116563 -124.628230
v 0.068606 -195.136922 -124.564987
v 0.227471 -195.127040 -124.658977
v 0.356291 -195.176616 -124.605124
v 0.432189 -195.174892 -124.694068
v 0.625000 -195.278911 -124.665026
v 0.625000 -195.255250 -124.739649
v -0.513518 -194.771520 -125.969470
v -0.392411 -194.690693 -125.973680
v -0.158403 -194.579189 -125.990868
v 0.079046 -194.514684 -126.018765
v 0.293687 -194.492229 -126.052845
v 0.498951 -194.783246 -125.959291
v 0.501912 -194.500393 -126.094227
v 0.824071 -194.571398 -126.178000
v 0.758021 -194.901755 -126.013790
v 1.261095 -196.389386 -126.586290
v 1.488482 -196.575070 -127.002106
v 1.200392 -196.517064 -126.634735
v 1.636007 -196.258110 -126.901607
v 1.049508 -194.826038 -126.201702
v 0.980853 -195.072097 -126.084504
v 1.419625 -194.952243 -126.426531
v 1.145449 -194.726922 -126.291530
v 1.331270 -195.200759 -126.320516
v 1.156967 -195.284646 -126.168244
v 1.279331 -195.528680 -126.261971
v 1.629047 -195.233338 -126.576852
v 1.628310 -195.231427 -126.576073
v 1.471704 -195.641932 -126.460400
v 1.340804 -195.779952 -126.356911
v 1.347571 -196.021881 -126.447812
v 1.710248 -195.918654 -126.793974
v 1.707880 -195.571907 -126.684030
v 1.455902 -196.102721 -126.606504
v 1.306691 -196.256123 -126.536005
v 1.684676 -196.186879 -124.256361
v 2.516255 -196.430441 -124.333588
v 2.016674 -195.074741 -123.903732
v 1.554696 -195.812951 -124.137799
v 1.717267 -196.579572 -124.380874
v 2.481864 -196.914929 -124.487206
v 1.671985 -194.717185 -123.790361
v 1.334841 -195.479405 -124.032040
v 1.650584 -196.968331 -124.504139
v 2.345865 -197.382900 -124.635588
v 1.258846 -194.433087 -123.700281
v 1.037820 -195.205524 -123.945200
v 0.794169 -194.234080 -123.637181
v 0.680804 -195.007140 -123.882298
v 1.795248 -198.194119 -124.892803
v 0.284431 -194.895720 -123.846970
v 1.403171 -198.504155 -124.991107
v -0.128385 -194.877708 -123.841258
v 0.953648 -198.732611 -125.063545
v -0.713024 -194.209811 -123.629486
v -0.533778 -194.954143 -123.865494
v -0.908315 -195.120607 -123.918275
v -0.042522 -198.911095 -125.120137
v -1.230343 -195.367476 -123.996551
v -0.548387 -198.853816 -125.101975
v -0.895544 -197.990080 -124.828106
v -1.964617 -195.010635 -123.883406
v -1.481246 -195.680481 -124.095796
v -1.031801 -198.700642 -125.053408
v -2.241346 -195.418336 -124.012677
v -1.646520 -196.041526 -124.210274
v -1.116990 -197.807309 -124.770156
v -1.472973 -198.457844 -124.976423
v -1.716610 -196.429739 -124.333366
v -1.237998 -197.675808 -124.728461
v -1.853841 -198.135362 -124.874173
v -1.343772 -197.532859 -124.683135
v -1.560768 -197.197629 -124.576843
v -2.158813 -197.746399 -124.750843
v -1.687464 -196.822679 -124.457956
v -2.375402 -197.306879 -124.611483
v 2.126723 -194.842834 -123.943110
v 2.299064 -195.132185 -124.018170
v 2.278799 -195.491119 -124.035754
v 2.113827 -197.815197 -124.772657
v 0.078408 -199.057497 -125.262781
v 0.465083 -198.870134 -125.107150
v 0.423091 -199.052689 -125.277942
v -0.260086 -199.055780 -125.268195
v -2.299064 -197.835363 -124.875275
v -2.468311 -197.554212 -124.792088
v -2.549814 -195.541376 -124.164599
v -2.727359 -195.822881 -124.294223
v -2.426313 -195.870791 -124.156138
v -2.208226 -194.980489 -123.976030
v -2.035887 -194.687729 -123.911739
v -0.423091 -193.905244 -123.645825
v -0.212370 -194.120109 -123.601044
v 0.296979 -194.128311 -123.603644
v 1.586435 -194.377876 -123.787681
v 1.458846 -194.042430 -123.786227
v 1.358846 -194.237758 -123.743254
v 1.703184 -194.192859 -123.833924
v 1.761740 -194.209561 -123.848773
v 1.798258 -194.538899 -123.838737
v 2.553795 -195.595239 -124.173675
v 2.447630 -195.949271 -124.181022
v 2.640650 -195.686219 -124.228334
v 2.633653 -195.842026 -124.251924
v 2.687337 -196.095165 -124.332188
v 2.714313 -196.352142 -124.413668
v 2.914065 -196.312415 -124.505978
v 2.714313 -196.610402 -124.495556
v 2.914065 -196.589681 -124.593892
v 2.687337 -196.867379 -124.577036
v 2.633653 -197.120519 -124.657300
v 2.553795 -197.367305 -124.735549
v 1.992209 -198.243319 -125.013310
v 1.798258 -198.423646 -125.070486
v 1.586435 -198.584668 -125.121542
v 1.358846 -198.724786 -125.165970
v 1.458846 -198.859666 -125.313643
v 1.117751 -198.842607 -125.203328
v 1.200009 -198.986158 -125.353750
v 1.153056 -199.022018 -125.374674
v 0.865548 -198.936960 -125.233245
v 0.778181 -199.041060 -125.314621
v 0.604743 -199.006908 -125.255423
v -0.736061 -198.975034 -125.245317
v -1.060127 -199.027343 -125.357879
v -0.992884 -198.892782 -125.219237
v -1.239840 -198.786562 -125.185558
v -1.331082 -198.925989 -125.334672
v -1.558846 -198.994546 -125.461316
v -1.474473 -198.657432 -125.144614
v -1.582983 -198.787356 -125.290715
v -1.694453 -198.506675 -125.096813
v -1.949178 -198.396604 -125.110281
v -1.897592 -198.335787 -125.042629
v -2.081872 -198.146469 -124.982601
v -2.596952 -197.244861 -124.696725
v -2.640650 -197.261452 -124.727798
v -2.663806 -196.994587 -124.617370
v -2.494742 -196.834796 -124.461798
v -2.868332 -196.865324 -124.672361
v -2.704187 -196.739211 -124.536397
v -2.717691 -196.481272 -124.454612
v -2.511948 -196.349477 -124.307917
v -2.917691 -196.451048 -124.549935
v -3.117691 -196.420824 -124.645258
v -2.704187 -196.223333 -124.372826
v -2.903193 -196.174127 -124.462131
v -2.914797 -196.113307 -124.452400
v -2.663806 -195.967958 -124.291854
v -1.897592 -194.626757 -123.866595
v -1.607457 -194.664379 -123.773617
v -1.808205 -194.291601 -123.856302
v -1.694453 -194.455870 -123.812411
v -1.474473 -194.305112 -123.764610
v -1.184487 -194.393745 -123.687807
v -1.582983 -194.114740 -123.809154
v -1.558846 -193.847101 -123.829200
v -1.239840 -194.175982 -123.723666
v -1.331082 -193.976107 -123.765198
v -1.153056 -193.874573 -123.742557
v -0.992884 -194.069763 -123.689987
v -0.778181 -193.893614 -123.682504
v -0.736061 -193.987511 -123.663907
v -0.471922 -193.930042 -123.645685
v 0.604743 -193.955637 -123.653801
v 0.604763 -193.900113 -123.662007
v 0.865548 -194.025584 -123.675979
v 1.060127 -193.879898 -123.725762
v 1.117751 -194.119937 -123.705896
v 1.200009 -193.915938 -123.746120
v 1.558846 -193.847101 -123.829200
v 1.949178 -194.538070 -123.886843
v 2.468311 -194.713172 -126.309566
v 2.468311 -195.409902 -124.112185
v 2.868332 -195.402060 -126.429293
v 2.868332 -196.041918 -124.411281
v 3.117691 -196.420824 -124.645258
v 3.117691 -195.846560 -126.456396
v -1.153056 -193.245366 -125.726980
v -0.778181 -193.226324 -125.787034
v -0.078408 -193.209887 -125.838873
v -0.078408 -193.910051 -123.630664
v 0.260086 -193.908334 -123.636078
v 1.060127 -193.240040 -125.743775
v -2.914797 -195.484100 -126.436823
v -3.117691 -195.846560 -126.456396
v -2.727359 -195.155591 -126.398752
v -2.549814 -194.850827 -126.342486
v -2.377473 -195.261640 -124.059217
v -2.035887 -194.007442 -126.057262
v -1.761740 -198.687030 -125.268459
v -1.949178 -197.729314 -127.214811
v -2.126723 -197.424549 -127.158544
v -2.126723 -198.115099 -124.980657
v -2.299064 -197.135199 -127.083484
v -2.468311 -196.857481 -126.989469
v -2.640650 -196.581164 -126.873321
v 1.558846 -198.994546 -125.461316
v 1.558846 -198.420283 -127.272455
v 0.778181 -198.373770 -127.419150
v 0.423091 -198.362140 -127.455829
v 0.078408 -198.357333 -127.470990
v -0.604763 -198.367271 -127.439647
v -0.604763 -199.047558 -125.294124
v -1.060127 -198.387486 -127.375892
v 2.914797 -196.154076 -126.649254
v 2.914797 -196.783284 -124.664832
v 2.727359 -196.444503 -126.807432
v 2.727359 -197.111793 -124.702902
v 2.549814 -197.416557 -124.759168
v 2.377473 -197.705908 -124.834228
v 2.208226 -197.983625 -124.928243
v 2.035887 -197.579654 -127.189915
v 2.035887 -198.259942 -125.044392
v 1.808205 -197.975783 -127.245352
v 1.808205 -198.615640 -125.227339
v -0.260086 -198.359049 -127.465576
v -0.296979 -198.139073 -127.498010
v 2.208226 -197.286894 -127.125625
v 1.964617 -197.256749 -127.218248
v 2.241346 -196.849047 -127.088977
v 2.377473 -197.005744 -127.042438
v 2.549814 -196.726007 -126.937056
v 2.426313 -196.396592 -126.945516
v 2.158813 -194.520985 -126.350811
v 2.299064 -194.432021 -126.226379
v 2.126723 -194.152285 -126.120997
v 1.853841 -194.132022 -126.227481
v 0.260086 -193.211604 -125.833459
v 0.604763 -193.219825 -125.807530
v 0.548387 -193.413568 -125.999679
v -0.423091 -193.214694 -125.823712
v -2.377473 -194.561476 -126.267426
v -2.208226 -194.283759 -126.173411
v -2.016674 -197.192642 -127.197922
v -1.671985 -197.550199 -127.311294
v -1.117751 -198.147446 -127.395758
v -1.458846 -198.224954 -127.315428
v -1.358846 -198.029625 -127.358400
v -1.258846 -197.834297 -127.401373
v -1.200009 -198.351446 -127.355535
v -1.558846 -198.420283 -127.272455
v -0.865548 -198.241799 -127.425675
v -0.604743 -198.311747 -127.447854
v -0.337928 -198.356593 -127.462073
v 0.471922 -198.337341 -127.455969
v 0.713024 -198.057572 -127.472168
v 0.736061 -198.279873 -127.437747
v 0.992884 -198.197621 -127.411667
v 1.153056 -198.392811 -127.359097
v 1.239840 -198.091402 -127.377988
v 1.331082 -198.291277 -127.336457
v 1.474473 -197.962271 -127.337044
v 1.607457 -197.603004 -127.328037
v 1.582983 -198.152644 -127.292500
v 1.694453 -197.811514 -127.289243
v 1.897592 -197.640627 -127.235059
v 2.663806 -196.299426 -126.809801
v 2.704187 -196.044051 -126.728828
v 2.717691 -195.786111 -126.647042
v 2.494742 -195.432588 -126.639856
v 2.917691 -195.816336 -126.551719
v 2.704187 -195.528172 -126.565257
v 2.903193 -195.539414 -126.463915
v 2.663806 -195.272797 -126.484284
v 2.640650 -195.005932 -126.373857
v 2.596952 -195.022523 -126.404929
v 2.504288 -194.779837 -126.327980
v 1.897592 -193.931596 -126.059025
v 1.949178 -193.870780 -125.991373
v 1.694453 -193.760709 -126.004842
v 1.761740 -193.580354 -125.833196
v 1.474473 -193.609951 -125.957040
v 1.582983 -193.480028 -125.810939
v 1.558846 -193.272837 -125.640338
v 1.239840 -193.480821 -125.916097
v 1.031801 -193.566742 -126.048246
v 1.331082 -193.341395 -125.766982
v 0.992884 -193.374602 -125.882417
v 0.736061 -193.292350 -125.856337
v -0.604743 -193.260476 -125.846231
v -0.865548 -193.330423 -125.868410
v -0.953648 -193.534773 -126.038110
v -1.117751 -193.424776 -125.898326
v -1.358846 -193.542597 -125.935684
v -1.403171 -193.763229 -126.110547
v -1.458846 -193.407717 -125.788011
v -1.558846 -193.272837 -125.640338
v -1.586435 -193.682716 -125.980112
v -1.703184 -193.558147 -125.835708
v -1.808205 -193.651743 -125.874315
v -1.798258 -193.843738 -126.031168
v -1.795248 -194.073265 -126.208851
v -1.992209 -194.024065 -126.088345
v -2.166360 -194.221904 -126.151074
v -2.633653 -195.146865 -126.444354
v -2.481864 -195.352455 -126.614448
v -2.687337 -195.400004 -126.524618
v -2.714313 -195.656981 -126.606099
v -2.516255 -195.836943 -126.768066
v -2.914065 -195.677703 -126.507762
v -2.714313 -195.915242 -126.687986
v -2.914065 -195.954969 -126.595676
v -2.868332 -196.225466 -126.690373
v -2.687337 -196.172218 -126.769466
v -2.633653 -196.425358 -126.849730
v -2.553795 -196.672144 -126.927980
v -1.798258 -197.728485 -127.262917
v -1.761740 -198.057823 -127.252881
v -1.586435 -197.889507 -127.313973
v -1.703184 -198.074524 -127.267730
v 2.375402 -194.960505 -126.490171
v 1.542429 -194.965696 -126.491817
v 2.511948 -195.917906 -126.793737
v 1.465730 -194.807899 -126.441784
v 1.372202 -194.658581 -126.394439
v 1.144348 -194.482434 -126.338587
v 1.472973 -193.809540 -126.125231
v 0.987693 -194.391487 -126.309751
v 0.821813 -194.316942 -126.286115
v 1.248219 -196.882174 -127.099481
v 0.448789 -194.174359 -126.240905
v 0.939708 -197.127696 -127.177329
v 1.184487 -197.873639 -127.413848
v 0.051226 -194.118249 -126.223114
v 0.042522 -193.356289 -125.981517
v -0.465083 -193.397249 -125.994505
v 0.579816 -197.298212 -127.231395
v -0.349137 -194.151679 -126.233714
v 0.188222 -197.384399 -127.258723
v -0.730411 -194.272823 -126.272126
v 0.212370 -198.147275 -127.500610
v -0.213663 -197.381544 -127.257818
v -1.071748 -194.475056 -126.336248
v -1.354486 -194.747320 -126.422576
v -0.794169 -198.033304 -127.464473
v -0.603866 -197.289804 -127.228729
v -2.113827 -194.452187 -126.328997
v -1.563164 -195.074729 -126.526389
v -0.961052 -197.114194 -127.173048
v -2.345865 -194.884483 -126.466067
v -1.686374 -195.439382 -126.642010
v -1.265690 -196.864316 -127.093818
v -1.717379 -195.821341 -126.763119
v -1.501125 -196.553833 -126.995373
v -2.278799 -196.776265 -127.065900
v -1.654483 -196.199720 -126.883093
v -2.447630 -196.318113 -126.920632
v -1.569907 -195.630322 -126.556724
v -1.789193 -195.917123 -126.501428
v -1.559315 -195.935594 -126.638670
v -1.782979 -195.673526 -126.440445
v -1.517564 -195.329001 -126.476054
v -1.611661 -195.078586 -126.293832
v -1.726891 -195.376776 -126.366759
v -1.404684 -195.043382 -126.400249
v -1.430743 -194.789746 -126.224859
v -1.236393 -194.784847 -126.332714
v -1.192072 -194.535882 -126.167591
v -1.019254 -194.561646 -126.276485
v -0.761174 -194.382175 -126.233929
v -0.907039 -194.331209 -126.125985
v -0.470576 -194.252433 -126.207058
v -0.587486 -194.183903 -126.102156
v -0.141564 -194.175143 -126.197740
v -0.243400 -194.098561 -126.098477
v 0.089516 -194.159533 -126.202993
v 0.116030 -194.079587 -126.116091
v 0.361543 -194.180124 -126.221430
v 0.503745 -194.137420 -126.160098
v 0.597015 -194.232913 -126.248837
v 0.737064 -194.215017 -126.201202
v 1.015157 -194.358550 -126.267722
v 1.204516 -194.497042 -126.327318
v -1.069748 -195.058194 -125.800395
v -1.486779 -195.079150 -125.572760
v -1.204704 -194.975471 -125.664858
v -1.234434 -194.786494 -125.505659
v -0.774742 -194.808412 -125.753159
v -0.872481 -194.695339 -125.608000
v -0.955177 -194.573031 -125.461223
v -0.639157 -194.415304 -125.434424
v -0.423019 -194.642481 -125.732511
v -0.476386 -194.509637 -125.581082
v -0.297138 -194.319915 -125.427399
v -0.039932 -194.573152 -125.742492
v -0.044970 -194.432723 -125.588658
v 0.057753 -194.290654 -125.441532
v 0.346077 -194.603585 -125.784105
v 0.389737 -194.468157 -125.631857
v 0.410100 -194.328019 -125.476701
v 0.746185 -194.431418 -125.532759
v 0.706425 -194.732124 -125.856825
v 0.795545 -194.614074 -125.710087
v 1.053753 -194.596325 -125.608541
v 1.015063 -194.947430 -125.957056
v 1.143119 -194.857704 -125.819300
v 1.319536 -194.815228 -125.701265
v 1.248434 -195.233984 -126.079879
v 1.405932 -195.181570 -125.953953
v 1.532498 -195.079848 -125.808468
v 1.685631 -195.379649 -125.927033
v 1.390420 -195.569223 -126.218138
v 1.565831 -195.560264 -126.105990
v 1.772238 -195.701965 -126.052471
v 1.429307 -195.928238 -126.363936
v 1.609623 -195.965733 -126.266517
v 1.788328 -196.033514 -126.180949
v 1.734763 -196.360810 -126.308115
v 1.363568 -196.283771 -126.508629
v 1.535592 -196.367280 -126.425800
v 1.613901 -196.670159 -126.429182
v 1.008747 -196.781432 -126.736904
v 1.347696 -196.734396 -126.574167
v 1.429967 -196.950620 -126.541376
v 0.753770 -196.993931 -126.822283
v 1.061150 -197.039976 -126.703022
v 1.191278 -197.191161 -126.640878
v 0.907641 -197.381520 -126.724063
v 0.451988 -197.141853 -126.887035
v 0.695919 -197.259880 -126.804711
v 0.588946 -197.515138 -126.789630
v 0.119763 -197.217595 -126.928738
v 0.279747 -197.378433 -126.874265
v 0.247930 -197.587226 -126.835559
v -0.102711 -197.594216 -126.860615
v -0.224175 -197.216743 -126.945899
v -0.157167 -197.384849 -126.908263
v -0.449542 -197.535590 -126.865271
v -0.559218 -197.139920 -126.938925
v -0.582578 -197.279418 -126.906797
v -0.866620 -196.992471 -126.909099
v -0.780237 -197.413211 -126.849558
v -1.140206 -196.774857 -126.857565
v -0.964790 -197.067826 -126.871670
v -1.082672 -197.229718 -126.814518
v -1.360445 -196.972804 -126.758351
v -1.349382 -196.511406 -126.790701
v -1.276380 -196.766245 -126.808011
v -1.591439 -196.637972 -126.679160
v -1.484888 -196.233743 -126.717937
v -1.493326 -196.395188 -126.722322
v -1.730685 -196.286511 -126.593198
v -1.600962 -195.982032 -126.623285
v -1.589886 -195.556182 -126.520223
v -1.359303 -195.338869 -125.804029
v -1.683151 -195.455278 -125.663543
v -1.084417 -195.535193 -125.381374
v -1.174656 -195.726137 -125.421643
v -1.186596 -195.018549 -125.462187
v -1.053714 -195.166365 -125.399778
v -0.962361 -195.361669 -125.346332
v -0.751090 -195.161668 -125.310563
v -0.832875 -194.733678 -125.405253
v -0.739605 -194.912319 -125.352618
v -0.499648 -195.014041 -125.291065
v -0.412691 -194.553613 -125.381550
v -0.366476 -194.751341 -125.334968
v -0.220675 -194.925533 -125.290398
v 0.040886 -194.493696 -125.395943
v 0.036307 -194.697056 -125.351146
v 0.070367 -194.900764 -125.310117
v 0.491199 -194.556252 -125.449169
v 0.436191 -194.751529 -125.401809
v 0.356962 -194.940654 -125.349971
v 0.901763 -194.737164 -125.539922
v 0.800778 -194.911104 -125.485798
v 1.240376 -195.019573 -125.662858
v 1.101471 -195.160810 -125.598364
v 1.478613 -195.381294 -125.810941
v 1.313029 -195.480946 -125.733261
v 1.598873 -195.791585 -125.974424
v 1.419821 -195.844213 -125.881835
v 1.589746 -196.217156 -126.142752
v 1.411716 -196.221048 -126.034710
v 1.453773 -196.623068 -126.304847
v 1.290971 -196.580426 -126.182050
v 1.200156 -196.975416 -126.449958
v 1.065755 -196.892239 -126.314309
v 0.850779 -197.246069 -126.569166
v 0.755504 -197.131505 -126.423565
v 0.432554 -197.411185 -126.654911
v 0.384114 -197.277054 -126.503105
v -0.020184 -197.458302 -126.703242
v -0.017924 -197.317816 -126.549421
v -0.471289 -197.381150 -126.712170
v -0.418511 -197.248227 -126.560747
v -0.884790 -197.186860 -126.683957
v -0.785706 -197.074617 -126.539091
v -1.226691 -196.888710 -126.622813
v -1.089318 -196.808779 -126.488192
v -1.470714 -196.511178 -126.536499
v -1.306015 -196.472448 -126.414942
v -1.595722 -196.082909 -126.434097
v -1.417023 -196.091062 -126.327406
v -1.593408 -195.638017 -126.326425
v -1.414969 -195.694914 -126.235189
v -1.462150 -195.211489 -126.224575
v -1.298409 -195.315074 -126.148143
v -1.214227 -194.836334 -126.139015
v -1.078251 -194.980854 -126.075562
v -0.868045 -194.542863 -126.079354
v -0.770836 -194.719170 -126.025980
v -0.452602 -194.352575 -126.052410
v -0.401916 -194.549115 -126.005451
v -0.000533 -194.281556 -126.063283
v 0.451580 -194.333050 -126.113001
v 0.867152 -194.503856 -126.200550
v 0.846572 -195.426663 -124.737838
v 0.859104 -195.413732 -124.817316
v 1.027647 -195.617516 -124.824221
v 1.046337 -195.619425 -124.910100
v 1.164643 -195.855185 -124.927134
v 1.176444 -195.860704 -125.014015
v 1.238150 -196.116372 -125.037325
v 1.242255 -196.123066 -125.124664
v 1.244319 -196.385621 -125.150135
v 1.240617 -196.393328 -125.237761
v 1.182967 -196.649209 -125.261107
v 1.171300 -196.655776 -125.348542
v 1.057515 -196.891636 -125.365411
v 1.038044 -196.895594 -125.451985
v 0.874175 -197.100156 -125.458923
v 0.848163 -197.099096 -125.544085
v 0.643223 -197.262202 -125.537836
v 0.612812 -197.254470 -125.620695
v 0.377426 -197.368561 -125.598943
v 0.343751 -197.353628 -125.679612
v 0.091806 -197.413054 -125.640479
v 0.056476 -197.390475 -125.718635
v -0.199150 -197.393157 -125.661574
v -0.234780 -197.362544 -125.737344
v -0.479288 -197.309407 -125.662442
v -0.513240 -197.270781 -125.735662
v -0.733869 -197.165607 -125.644276
v -0.763665 -197.119696 -125.715312
v -0.948453 -196.969244 -125.609507
v -0.972278 -196.917343 -125.678552
v -1.111209 -196.730910 -125.561338
v -1.127619 -196.674762 -125.629095
v -1.213459 -196.463317 -125.503906
v -1.222001 -196.403442 -125.570509
v -1.249949 -196.180156 -125.441541
v -1.249702 -196.118706 -125.507728
v -1.228568 -195.919523 -125.463714
v -1.218597 -195.896125 -125.378885
v -1.120860 -195.626163 -125.320760
v -0.962058 -195.384943 -125.271722
v -0.751238 -195.185461 -125.235891
v -0.499724 -195.037733 -125.216451
v -0.221374 -194.949304 -125.215845
v 0.069592 -194.924428 -125.235341
v 0.357011 -194.964285 -125.275493
v -1.075755 -197.872619 -124.805023
v -1.035522 -197.650504 -124.850118
v -1.239725 -197.735723 -124.775732
v -1.286434 -197.390527 -124.794323
v -1.505468 -197.420696 -124.703229
v -1.471709 -197.083388 -124.723574
v -1.626105 -197.207053 -124.651909
v -1.723215 -196.951072 -124.589174
v -1.581206 -196.744092 -124.642628
v -1.787945 -196.581815 -124.497364
v -1.429674 -196.364361 -124.658151
v -1.610005 -196.389845 -124.556943
v -1.785603 -196.338043 -124.436545
v -1.381640 -196.051382 -124.585550
v -1.555912 -196.038357 -124.472132
v -1.745615 -196.086257 -124.373899
v -1.671080 -195.849050 -124.315408
v -1.263097 -195.756412 -124.518660
v -1.422416 -195.707150 -124.393751
v -1.562973 -195.624667 -124.260957
v -1.427439 -195.422783 -124.213178
v -1.079521 -195.494404 -124.462220
v -1.215686 -195.413061 -124.327140
v -1.215252 -195.193894 -124.161314
v -0.840854 -195.278046 -124.420255
v -0.946914 -195.170381 -124.276829
v -0.957984 -194.999141 -124.120911
v -0.558894 -195.118489 -124.396300
v -0.629389 -194.991666 -124.246800
v -0.718818 -194.873018 -124.098677
v -0.460141 -194.781617 -124.087639
v -0.248412 -195.022983 -124.392654
v -0.279745 -194.885081 -124.239641
v -0.199346 -194.729858 -124.088662
v 0.074860 -194.996619 -124.410931
v 0.084303 -194.856360 -124.257171
v 0.115808 -194.717040 -124.105254
v 0.436755 -194.758740 -124.139796
v 0.394312 -195.039743 -124.451241
v 0.444048 -194.905891 -124.299512
v 0.742847 -194.854916 -124.191582
v 0.693462 -195.150356 -124.512950
v 0.780931 -195.031424 -124.365951
v 0.966971 -194.966446 -124.243644
v 0.957222 -195.321827 -124.593956
v 1.077960 -195.225492 -124.454122
v 1.233113 -195.158759 -124.326827
v 1.424211 -195.356552 -124.408338
v 1.171698 -195.545474 -124.691504
v 1.319489 -195.478317 -124.560922
v 1.615974 -195.648209 -124.524915
v 1.326379 -195.809032 -124.801708
v 1.493680 -195.776087 -124.681973
v 1.711236 -195.875531 -124.614183
v 1.412769 -196.098891 -124.920251
v 1.590967 -196.103475 -124.812415
v 1.778901 -196.175076 -124.730673
v 1.427061 -196.399635 -125.042245
v 1.607062 -196.443121 -124.946744
v 1.787294 -196.481210 -124.849254
v 1.735526 -196.783281 -124.966529
v 1.367879 -196.695482 -125.162687
v 1.540415 -196.777251 -125.079325
v 1.626181 -197.070977 -125.079217
v 1.238889 -196.970984 -125.276677
v 1.395155 -197.088472 -125.204641
v 1.474030 -197.319621 -125.178268
v 1.046113 -197.211383 -125.379538
v 1.178064 -197.360160 -125.317422
v 1.311357 -197.507461 -125.254840
v 1.114590 -197.676001 -125.325838
v 0.799951 -197.404325 -125.467351
v 0.900852 -197.578408 -125.413259
v 0.903803 -197.808762 -125.384732
v 0.512602 -197.539062 -125.536709
v 0.577259 -197.731107 -125.488312
v 0.643444 -197.922439 -125.439682
v 0.382143 -197.992049 -125.479645
v 0.199094 -197.608837 -125.585469
v 0.224206 -197.810651 -125.540170
v 0.115036 -198.022736 -125.507073
v -0.124666 -197.609087 -125.612185
v -0.140390 -197.811901 -125.567203
v -0.157632 -198.014386 -125.522309
v -0.481580 -197.952132 -125.524140
v -0.442063 -197.540018 -125.616921
v -0.497822 -197.735088 -125.569484
v -0.726892 -197.863034 -125.513036
v -0.736700 -197.404177 -125.600486
v -0.829623 -197.583081 -125.547923
v -1.009711 -197.706763 -125.484679
v -0.993741 -197.208692 -125.565139
v -1.119085 -197.363906 -125.505065
v -1.298939 -197.464982 -125.433006
v -1.199617 -196.962702 -125.513779
v -1.350930 -197.087857 -125.444173
v -1.480055 -197.245254 -125.382279
v -1.637276 -196.970186 -125.316260
v -1.344273 -196.678815 -125.450402
v -1.513832 -196.769130 -125.369750
v -1.741051 -196.672575 -125.243093
v -1.419718 -196.370915 -125.379412
v -1.598792 -196.423361 -125.286752
v -1.788235 -196.361863 -125.165772
v -1.422709 -196.054535 -125.305733
v -1.602161 -196.068043 -125.200727
v -1.778241 -196.053633 -125.088880
v -1.723659 -195.789729 -125.023395
v -1.352450 -195.745494 -125.234380
v -1.523040 -195.720989 -125.117322
v -1.621888 -195.524246 -124.958263
v -1.213172 -195.459107 -125.170211
v -1.366194 -195.399447 -125.042006
v -1.493032 -195.300321 -124.904582
v -1.306901 -195.070617 -124.851398
v -1.011431 -195.209925 -125.117839
v -1.139007 -195.119803 -124.979975
v -1.103302 -194.887872 -124.811539
v -0.758074 -195.009945 -125.081067
v -0.853693 -194.895567 -124.935512
v -0.880533 -194.740954 -124.782532
v -0.465686 -194.869506 -125.063174
v -0.524425 -194.738382 -124.912309
v -0.637222 -194.627145 -124.764076
v -0.381556 -194.549462 -124.756899
v -0.149533 -194.794860 -125.066142
v -0.168394 -194.655287 -124.912598
v -0.103805 -194.507803 -124.762112
v 0.174319 -194.790037 -125.091249
v 0.196307 -194.650824 -124.937820
v 0.187190 -194.508895 -124.781547
v 0.524597 -194.567715 -124.822788
v 0.489275 -194.854279 -125.138255
v 0.550990 -194.724137 -124.987702
v 0.784878 -194.660353 -124.870558
v 0.779041 -194.984495 -125.206179
v 0.877304 -194.871746 -125.061141
v 1.062766 -194.814670 -124.940809
v 1.029049 -195.173069 -125.292607
v 1.158847 -195.085074 -125.155418
v 1.306099 -195.014272 -125.025447
v 1.506221 -195.252838 -125.122455
v 1.226075 -195.410414 -125.394499
v 1.380724 -195.353324 -125.267109
v 1.656881 -195.521765 -125.229088
v 1.360530 -195.683597 -125.507755
v 1.532139 -195.661932 -125.391597
v 1.749357 -195.797503 -125.336867
v 1.424937 -195.978475 -125.627889
v 1.604669 -195.994973 -125.523831
v 1.787360 -196.049334 -125.434561
v 1.781265 -196.333989 -125.544816
v 1.416624 -196.279418 -125.749947
v 1.595308 -196.334843 -125.658232
v 1.727202 -196.600686 -125.648477
v 1.335374 -196.570590 -125.868906
v 1.503810 -196.663710 -125.789143
v 1.621285 -196.868077 -125.753254
v 1.185976 -196.836826 -125.979958
v 1.335568 -196.964495 -125.911150
v 1.468183 -197.114747 -125.851543
v 1.272083 -197.332768 -125.940747
v 0.975517 -197.063801 -126.078562
v 1.098562 -197.221067 -126.019139
v 1.020865 -197.527690 -126.024051
v 0.715273 -197.239887 -126.161031
v 0.805493 -197.420331 -126.108956
v 0.689828 -197.693202 -126.101341
v 0.418203 -197.355169 -126.224220
v 0.470952 -197.551123 -126.177063
v 0.387469 -197.778654 -126.149190
v 0.099790 -197.403910 -126.266311
v 0.112377 -197.606979 -126.221410
v 0.137070 -197.809307 -126.175552
v -0.153904 -197.802294 -126.192440
v -0.223761 -197.382612 -126.286194
v -0.251985 -197.583963 -126.240749
v -0.470385 -197.742685 -126.194627
v -0.535892 -197.292588 -126.284287
v -0.603486 -197.483552 -126.235547
v -0.785934 -197.623110 -126.178856
v -0.820432 -197.137467 -126.261738
v -0.923916 -197.309833 -126.207102
v -1.077387 -197.446218 -126.145211
v -1.063103 -196.925348 -126.221117
v -1.197196 -197.071926 -126.158305
v -1.328969 -197.220772 -126.096097
v -1.518904 -196.974841 -126.038839
v -1.251039 -196.666251 -126.165601
v -1.408838 -196.781116 -126.092733
v -1.648484 -196.732361 -125.980330
v -1.375129 -196.373416 -126.099388
v -1.548579 -196.452313 -126.015115
v -1.729114 -196.506153 -125.924782
v -1.780757 -196.238879 -125.858388
v -1.428415 -196.061226 -126.027037
v -1.608587 -196.101713 -125.930585
v -1.786678 -195.928095 -125.780786
v -1.408813 -195.745404 -125.953535
v -1.586512 -195.747024 -125.844759
v -1.751979 -195.688558 -125.721157
v -1.533158 -197.213299 -124.598395
v -1.644038 -196.862374 -124.503879
v -1.670968 -196.496879 -124.404770
v -1.611314 -196.133488 -124.306645
v -1.467296 -195.792534 -124.215726
v -1.244998 -195.491716 -124.137870
v -0.956418 -195.248615 -124.078349
v -0.629365 -195.054650 -124.048349
v -0.618987 -195.078031 -124.042027
v -0.250457 -194.988510 -124.031501
v -0.279734 -194.948069 -124.041192
v 0.084299 -194.919349 -124.058722
v 0.126546 -194.985488 -124.048570
v 0.444031 -194.968878 -124.101063
v 0.456426 -195.056716 -124.087445
v 0.780900 -195.094406 -124.167500
v 0.761169 -195.195401 -124.148029
v 0.988523 -195.361415 -124.214806
v 1.077918 -195.288466 -124.255668
v 1.177945 -195.566182 -124.294139
v 1.319438 -195.541280 -124.362465
v 1.343635 -195.850474 -124.401581
v 1.493622 -195.839038 -124.483513
v 1.433819 -196.161454 -124.517632
v 1.590905 -196.166413 -124.613951
v 1.444047 -196.484710 -124.637729
v 1.606999 -196.506045 -124.748275
v 1.372237 -196.800825 -124.755895
v 1.540355 -196.840163 -124.880852
v 1.395101 -197.151371 -125.006164
v 1.238816 -197.096851 -124.879575
v 1.178018 -197.423048 -125.118942
v 0.900817 -197.641287 -125.214776
v 0.799904 -197.530165 -125.070240
v 0.577236 -197.793980 -125.289827
v 0.512572 -197.664893 -125.139596
v 0.224197 -197.873521 -125.341684
v 0.199082 -197.734664 -125.188354
v -0.140385 -197.874770 -125.368716
v -0.124658 -197.734913 -125.215070
v -0.497803 -197.797960 -125.370998
v -0.442037 -197.665848 -125.219808
v -0.829590 -197.645958 -125.349439
v -0.736657 -197.530015 -125.203375
v -1.119041 -197.426792 -125.306583
v -0.993682 -197.334540 -125.168031
v -1.350877 -197.150753 -125.245695
v -1.199547 -197.088565 -125.116676
v -1.513773 -196.832038 -125.171276
v -1.344194 -196.804694 -125.053304
v -1.598730 -196.486283 -125.088282
v -1.419634 -196.496812 -124.982319
v -1.602099 -196.130978 -125.002261
v -1.422625 -196.180450 -124.908646
v -1.522981 -195.783938 -124.918860
v -1.352371 -195.871427 -124.837299
v -1.366140 -195.462408 -124.843548
v -1.213100 -195.585056 -124.773135
v -1.138962 -195.182774 -124.781520
v -1.011372 -195.335888 -124.720767
v -0.853659 -194.958547 -124.737060
v -0.758029 -195.135920 -124.683999
v -0.524404 -194.801367 -124.713859
v -0.465659 -194.995489 -124.666108
v -0.168387 -194.718276 -124.714150
v -0.149524 -194.920846 -124.669078
v 0.196299 -194.713813 -124.739371
v 0.174309 -194.916023 -124.694185
v 0.550968 -194.787122 -124.789252
v 0.489247 -194.980260 -124.741189
v 0.877270 -194.934725 -124.862689
v 0.778995 -195.110469 -124.809111
v 1.158801 -195.148044 -124.956963
v 1.028988 -195.299031 -124.895536
v 1.380670 -195.416283 -125.068651
v 1.226002 -195.536361 -124.997423
v 1.532079 -195.724880 -125.193135
v 1.360450 -195.809528 -125.110673
v 1.604607 -196.057907 -125.325365
v 1.424853 -196.104389 -125.230802
v 1.595246 -196.397764 -125.459761
v 1.416541 -196.405313 -125.352854
v 1.503752 -196.726617 -125.590668
v 1.335296 -196.696468 -125.471807
v 1.335516 -197.027390 -125.712672
v 1.185906 -196.962687 -125.582855
v 1.098519 -197.283952 -125.820657
v 0.975459 -197.189649 -125.681454
v 0.805462 -197.483208 -125.910472
v 0.715231 -197.365724 -125.763919
v 0.470934 -197.613994 -125.978577
v 0.418178 -197.480999 -125.827107
v 0.112372 -197.669848 -126.022923
v 0.099784 -197.529736 -125.869196
v -0.251975 -197.646833 -126.042262
v -0.223748 -197.508439 -125.889080
v -0.603463 -197.546425 -126.037062
v -0.535860 -197.418420 -125.887174
v -0.923880 -197.372713 -126.008619
v -0.820383 -197.263308 -125.864628
v -1.197149 -197.134815 -125.959824
v -1.063040 -197.051201 -125.824011
v -1.408783 -196.844016 -125.894256
v -1.250966 -196.792118 -125.768499
v -1.548519 -196.515226 -125.816642
v -1.375048 -196.499301 -125.702291
v -1.608524 -196.164639 -125.732117
v -1.428331 -196.187128 -125.629946
v -1.586450 -195.809963 -125.646295
v -1.408730 -195.871325 -125.556450
f 1 2 3
f 3 4 5
f 2 4 3
f 4 6 5
f 4 7 6
f 7 8 6
f 7 9 8
f 10 11 12
f 13 14 15
f 16 14 13
f 8 17 18
f 19 17 9
f 9 17 8
f 18 17 19
f 18 20 21
f 22 20 19
f 12 20 22
f 19 20 18
f 21 23 24
f 24 23 25
f 26 23 11
f 11 23 12
f 20 23 21
f 12 23 20
f 25 27 28
f 28 27 29
f 30 27 26
f 23 27 25
f 26 27 23
f 29 31 32
f 33 31 34
f 34 31 30
f 27 31 29
f 30 31 27
f 32 31 33
f 32 35 36
f 36 35 13
f 16 35 33
f 33 35 32
f 13 35 16
f 37 38 39
f 37 40 38
f 40 41 38
f 40 42 41
f 42 43 41
f 42 44 43
f 44 45 43
f 44 46 45
f 46 47 45
f 46 48 47
f 48 49 47
f 48 50 49
f 50 51 49
f 50 52 51
f 52 53 51
f 52 54 53
f 54 55 53
f 54 56 55
f 56 57 55
f 56 58 57
f 58 59 57
f 58 60 59
f 60 61 59
f 60 62 61
f 62 63 61
f 62 64 63
f 64 65 63
f 64 66 65
f 66 67 65
f 66 68 67
f 68 69 67
f 68 70 69
f 70 71 69
f 70 72 71
f 72 73 71
f 72 74 73
f 74 75 73
f 74 76 75
f 76 77 75
f 76 78 77
f 78 79 77
f 78 80 79
f 80 81 79
f 80 82 81
f 82 83 81
f 82 84 83
f 84 85 83
f 84 86 85
f 86 87 85
f 86 88 87
f 88 89 87
f 6 90 5
f 90 3 5
f 90 91 3
f 91 1 3
f 91 92 1
f 92 93 1
f 92 94 93
f 94 95 93
f 94 96 95
f 96 97 95
f 96 98 97
f 98 99 97
f 98 100 99
f 100 101 99
f 100 102 101
f 102 103 101
f 102 104 103
f 104 105 103
f 104 106 105
f 106 107 105
f 106 108 107
f 109 86 84
f 109 110 86
f 86 111 88
f 110 111 86
f 88 112 89
f 111 112 88
f 112 113 89
f 113 114 89
f 113 115 114
f 114 116 117
f 115 116 114
f 118 119 120
f 121 119 118
f 117 122 123
f 124 122 125
f 125 122 116
f 116 122 117
f 123 126 127
f 127 126 128
f 129 126 130
f 130 126 124
f 122 126 123
f 124 126 122
f 128 131 132
f 132 131 133
f 134 131 135
f 135 131 129
f 126 131 128
f 129 131 126
f 133 136 137
f 137 136 118
f 121 136 134
f 134 136 131
f 131 136 133
f 118 136 121
f 204 138 139
f 140 141 181
f 181 141 204
f 204 141 138
f 139 142 143
f 138 142 139
f 144 145 140
f 140 145 141
f 143 146 147
f 142 146 143
f 148 149 144
f 144 149 145
f 147 14 182
f 146 14 147
f 150 151 148
f 148 151 149
f 182 16 152
f 14 16 182
f 196 153 150
f 150 153 151
f 152 33 154
f 16 33 152
f 195 155 196
f 196 155 153
f 33 156 154
f 33 34 156
f 195 157 155
f 157 158 155
f 34 184 156
f 34 30 184
f 157 257 158
f 158 257 159
f 26 160 30
f 30 160 184
f 257 253 159
f 159 253 161
f 26 162 160
f 11 162 26
f 10 163 11
f 253 164 161
f 161 164 165
f 11 166 162
f 163 166 11
f 165 167 168
f 164 167 165
f 169 170 163
f 163 170 166
f 168 191 171
f 167 191 168
f 172 173 169
f 174 173 172
f 169 173 170
f 191 245 171
f 175 176 174
f 174 176 173
f 171 241 177
f 245 241 171
f 177 178 175
f 175 178 176
f 241 178 177
f 179 144 140
f 179 274 144
f 180 179 140
f 181 180 140
f 276 180 181
f 313 312 147
f 182 313 147
f 314 313 182
f 152 314 182
f 183 184 160
f 183 185 184
f 186 183 160
f 162 186 160
f 306 186 162
f 176 296 173
f 187 296 176
f 188 187 176
f 178 188 176
f 189 190 191
f 167 189 191
f 291 189 167
f 192 291 167
f 192 167 164
f 193 192 164
f 284 194 195
f 196 284 195
f 285 284 196
f 197 198 199
f 197 199 148
f 197 148 144
f 200 201 273
f 200 273 198
f 200 197 201
f 200 198 197
f 202 274 201
f 202 197 144
f 202 201 197
f 202 144 274
f 203 276 181
f 203 204 205
f 203 205 276
f 203 181 204
f 206 205 204
f 206 278 205
f 207 206 204
f 207 278 206
f 207 204 139
f 208 278 207
f 208 207 139
f 209 279 278
f 209 278 208
f 210 139 143
f 210 208 139
f 211 309 279
f 211 208 210
f 211 279 209
f 211 209 208
f 211 210 309
f 212 210 143
f 212 311 309
f 212 309 210
f 213 311 212
f 213 143 147
f 213 212 143
f 214 213 147
f 214 312 311
f 214 147 312
f 214 311 213
f 215 316 314
f 215 314 152
f 216 318 316
f 216 215 152
f 216 152 154
f 216 316 215
f 217 318 216
f 217 216 154
f 218 154 156
f 218 217 154
f 219 300 318
f 219 318 217
f 219 217 218
f 220 218 156
f 220 219 218
f 221 222 300
f 221 220 222
f 221 300 219
f 221 219 220
f 223 224 222
f 223 222 220
f 223 220 156
f 223 156 184
f 225 224 223
f 225 185 224
f 225 223 184
f 225 184 185
f 226 227 306
f 226 162 166
f 226 306 162
f 228 227 226
f 228 226 166
f 229 227 228
f 229 228 166
f 230 231 227
f 230 227 229
f 232 166 170
f 232 229 166
f 233 229 232
f 233 231 230
f 233 230 229
f 233 232 293
f 233 293 231
f 234 293 232
f 234 235 293
f 234 232 170
f 236 235 234
f 236 170 173
f 236 234 170
f 237 296 235
f 237 236 173
f 237 173 296
f 237 235 236
f 238 239 188
f 238 188 178
f 240 178 241
f 240 239 238
f 240 242 239
f 240 238 178
f 243 242 240
f 243 240 241
f 244 243 241
f 244 241 245
f 246 242 243
f 246 247 242
f 246 243 244
f 248 244 245
f 249 250 247
f 249 246 244
f 249 247 246
f 249 244 248
f 249 248 250
f 251 248 245
f 251 191 190
f 251 245 191
f 251 190 250
f 251 250 248
f 252 193 164
f 252 164 253
f 252 254 193
f 255 252 253
f 255 254 252
f 256 253 257
f 256 255 253
f 256 254 255
f 258 259 254
f 258 254 256
f 260 256 257
f 261 256 260
f 261 262 259
f 261 258 256
f 261 259 258
f 261 260 262
f 263 257 157
f 263 264 262
f 263 260 257
f 263 262 260
f 265 263 157
f 265 264 263
f 266 265 157
f 266 264 265
f 266 195 194
f 266 157 195
f 266 194 264
f 267 285 196
f 267 196 150
f 267 268 285
f 269 268 267
f 269 267 150
f 269 270 268
f 271 270 269
f 271 269 150
f 271 150 148
f 271 199 198
f 271 148 199
f 272 270 271
f 272 271 198
f 272 198 273
f 272 273 270
f 374 273 201
f 374 377 273
f 372 201 274
f 372 374 201
f 329 274 179
f 329 372 274
f 328 179 180
f 328 329 179
f 275 180 276
f 275 328 180
f 368 276 205
f 368 275 276
f 277 205 278
f 277 278 279
f 277 368 205
f 280 277 279
f 281 259 262
f 281 390 259
f 282 262 264
f 282 281 262
f 334 264 194
f 334 282 264
f 283 194 284
f 283 334 194
f 331 284 285
f 331 283 284
f 332 285 268
f 332 331 285
f 286 268 270
f 286 270 273
f 286 332 268
f 377 286 273
f 287 247 250
f 287 288 247
f 289 250 190
f 289 287 250
f 290 190 189
f 290 289 190
f 335 189 291
f 335 290 189
f 336 291 192
f 336 335 291
f 292 192 193
f 292 336 192
f 393 193 254
f 393 254 259
f 393 292 193
f 390 393 259
f 411 231 293
f 411 344 231
f 294 293 235
f 294 411 293
f 295 235 296
f 295 294 235
f 297 296 187
f 297 295 296
f 298 187 188
f 298 297 187
f 299 188 239
f 299 298 188
f 406 239 242
f 406 242 247
f 406 299 239
f 288 406 247
f 352 300 222
f 352 301 300
f 302 222 224
f 302 352 222
f 303 224 185
f 303 302 224
f 304 185 183
f 304 303 185
f 319 183 186
f 319 304 183
f 305 186 306
f 305 319 186
f 307 306 227
f 307 227 231
f 307 305 306
f 344 307 231
f 308 279 309
f 308 280 279
f 310 309 311
f 310 308 309
f 325 311 312
f 325 310 311
f 324 312 313
f 324 325 312
f 321 313 314
f 321 324 313
f 315 314 316
f 315 321 314
f 317 316 318
f 317 318 300
f 317 315 316
f 301 317 300
f 304 319 320
f 304 320 434
f 303 304 434
f 321 315 322
f 323 321 322
f 324 321 323
f 325 324 323
f 326 325 323
f 310 325 326
f 327 275 414
f 328 275 327
f 329 328 327
f 329 327 330
f 331 332 333
f 428 331 333
f 283 331 428
f 429 283 428
f 334 283 429
f 335 336 440
f 443 335 440
f 290 335 443
f 297 298 448
f 337 297 448
f 295 297 337
f 338 295 337
f 294 295 338
f 339 340 341
f 339 341 342
f 339 342 438
f 343 340 339
f 343 339 307
f 343 307 344
f 343 344 340
f 345 307 339
f 345 305 307
f 345 339 438
f 346 345 438
f 346 305 345
f 346 438 320
f 347 320 319
f 347 319 305
f 347 305 346
f 347 346 320
f 348 303 434
f 348 302 303
f 348 434 349
f 350 302 348
f 350 348 349
f 351 302 350
f 351 352 302
f 351 350 349
f 351 349 426
f 353 352 351
f 353 351 426
f 354 301 352
f 354 352 353
f 355 426 356
f 355 353 426
f 357 353 355
f 357 355 317
f 357 317 301
f 357 354 353
f 357 301 354
f 358 317 355
f 358 355 356
f 359 322 315
f 359 315 317
f 359 317 358
f 359 358 356
f 359 356 322
f 360 308 310
f 360 310 326
f 360 326 416
f 361 308 360
f 361 360 416
f 362 416 363
f 362 361 416
f 364 361 362
f 364 280 308
f 364 308 361
f 365 364 362
f 365 362 363
f 366 280 364
f 366 277 280
f 366 365 277
f 366 364 365
f 367 368 277
f 367 277 365
f 367 365 363
f 367 363 414
f 369 367 414
f 369 368 367
f 370 368 369
f 370 275 368
f 370 369 414
f 370 414 275
f 371 372 329
f 371 329 330
f 371 330 420
f 373 374 372
f 373 371 420
f 373 372 371
f 375 374 373
f 375 373 420
f 376 377 374
f 376 374 375
f 378 375 420
f 378 420 379
f 380 286 377
f 380 376 375
f 380 378 286
f 380 375 378
f 380 377 376
f 381 286 378
f 381 378 379
f 382 381 379
f 382 332 286
f 382 379 333
f 382 333 332
f 382 286 381
f 383 282 334
f 383 334 429
f 384 281 282
f 384 383 429
f 384 429 385
f 384 282 383
f 386 384 385
f 386 281 384
f 387 385 388
f 387 386 385
f 389 390 281
f 389 281 386
f 389 386 387
f 391 387 388
f 392 390 389
f 392 391 393
f 392 393 390
f 392 389 387
f 392 387 391
f 394 393 391
f 394 292 393
f 394 388 395
f 394 391 388
f 396 394 395
f 396 292 394
f 397 396 395
f 397 440 336
f 397 336 292
f 397 395 440
f 397 292 396
f 398 289 290
f 398 290 443
f 398 443 399
f 400 287 289
f 400 289 398
f 400 398 399
f 401 287 400
f 401 399 402
f 401 400 399
f 403 288 287
f 403 287 401
f 404 401 402
f 405 401 404
f 405 406 288
f 405 404 406
f 405 288 403
f 405 403 401
f 407 404 402
f 407 402 450
f 407 406 404
f 408 406 407
f 408 299 406
f 408 407 450
f 408 450 299
f 409 298 299
f 409 299 450
f 409 448 298
f 409 450 448
f 410 411 294
f 410 294 338
f 412 410 338
f 412 411 410
f 412 338 342
f 412 341 340
f 412 342 341
f 413 344 411
f 413 412 340
f 413 411 412
f 413 340 344
f 129 414 363
f 130 414 129
f 415 327 414
f 415 414 130
f 135 363 416
f 135 129 363
f 417 327 415
f 418 330 327
f 418 327 417
f 134 416 326
f 134 135 416
f 419 420 330
f 419 330 418
f 121 326 323
f 121 134 326
f 421 420 419
f 119 323 322
f 119 121 323
f 422 379 420
f 422 420 421
f 423 322 356
f 423 119 322
f 424 379 422
f 424 333 379
f 425 356 426
f 425 423 356
f 427 428 333
f 427 333 424
f 429 428 427
f 430 425 426
f 431 429 427
f 349 430 426
f 432 430 349
f 385 429 431
f 385 431 433
f 434 432 349
f 435 432 434
f 388 433 436
f 388 385 433
f 320 435 434
f 395 388 436
f 395 436 437
f 438 439 435
f 438 435 320
f 440 437 441
f 440 395 437
f 342 439 438
f 342 442 439
f 443 441 444
f 443 440 441
f 338 442 342
f 338 445 442
f 399 444 446
f 399 443 444
f 337 447 445
f 337 445 338
f 402 399 446
f 448 449 447
f 448 447 337
f 450 446 449
f 450 402 446
f 450 449 448
f 451 452 453
f 451 454 452
f 455 456 457
f 458 456 455
f 458 459 456
f 460 459 458
f 460 461 459
f 462 461 460
f 463 464 462
f 462 464 461
f 465 466 463
f 463 466 464
f 467 468 465
f 465 468 466
f 469 470 467
f 467 470 468
f 469 471 470
f 471 472 470
f 471 473 472
f 473 474 472
f 473 422 474
f 421 475 422
f 422 475 474
f 421 419 475
f 419 476 475
f 419 418 476
f 81 477 79
f 478 479 480
f 83 481 81
f 81 481 477
f 481 482 477
f 480 482 483
f 483 482 484
f 479 482 480
f 477 482 479
f 83 485 481
f 87 485 85
f 85 485 83
f 485 486 481
f 481 486 482
f 482 486 484
f 484 486 487
f 87 488 485
f 89 488 87
f 486 489 487
f 485 489 486
f 487 489 490
f 488 489 485
f 114 491 89
f 89 491 488
f 489 492 490
f 488 492 489
f 490 492 493
f 493 492 494
f 491 492 488
f 117 495 114
f 114 495 491
f 494 496 497
f 492 496 494
f 491 496 492
f 495 496 491
f 123 498 117
f 117 498 495
f 496 499 497
f 495 499 496
f 498 499 495
f 497 499 500
f 127 501 123
f 128 501 127
f 123 501 498
f 500 502 503
f 503 502 504
f 501 502 498
f 498 502 499
f 499 502 500
f 128 505 501
f 132 505 128
f 501 506 502
f 502 506 504
f 132 506 505
f 504 506 507
f 505 506 501
f 133 508 132
f 506 509 507
f 508 509 132
f 133 509 508
f 132 509 506
f 507 509 510
f 510 509 511
f 137 512 133
f 118 512 137
f 509 513 511
f 118 513 512
f 512 513 133
f 511 513 514
f 133 513 509
f 515 516 120
f 513 516 514
f 118 516 513
f 120 516 118
f 514 516 517
f 518 519 515
f 515 519 516
f 516 519 517
f 517 519 520
f 520 519 521
f 522 523 518
f 518 523 519
f 519 523 521
f 521 523 524
f 524 523 522
f 525 526 522
f 524 526 527
f 527 526 528
f 522 526 524
f 529 530 525
f 526 530 528
f 528 530 531
f 531 530 529
f 525 530 526
f 532 533 529
f 534 533 532
f 531 533 535
f 529 533 531
f 536 537 534
f 533 537 535
f 534 537 533
f 535 537 538
f 538 537 539
f 539 537 536
f 540 541 536
f 539 541 542
f 536 541 539
f 542 541 540
f 543 544 540
f 542 544 545
f 540 544 542
f 545 544 543
f 453 546 543
f 545 546 452
f 452 546 453
f 543 546 545
f 451 547 454
f 457 547 455
f 455 547 451
f 454 547 457
f 79 548 77
f 77 548 549
f 549 548 478
f 477 548 79
f 478 548 479
f 479 548 477
f 120 119 515
f 119 423 515
f 515 425 518
f 423 425 515
f 518 430 522
f 425 430 518
f 522 432 525
f 430 432 522
f 525 435 529
f 432 435 525
f 529 439 532
f 435 439 529
f 532 442 534
f 439 442 532
f 534 445 536
f 442 445 534
f 536 447 540
f 445 447 536
f 447 543 540
f 447 449 543
f 449 453 543
f 449 446 453
f 446 451 453
f 446 444 451
f 444 455 451
f 444 441 455
f 455 441 458
f 441 437 458
f 458 437 460
f 437 436 460
f 460 436 462
f 436 463 462
f 436 433 463
f 433 465 463
f 433 431 465
f 431 467 465
f 431 427 467
f 467 427 469
f 427 471 469
f 427 424 471
f 424 473 471
f 424 422 473
f 478 550 549
f 549 550 551
f 418 125 476
f 415 124 417
f 417 124 418
f 418 124 125
f 415 130 124
f 480 552 478
f 478 552 550
f 552 553 550
f 554 553 555
f 550 553 554
f 483 556 480
f 484 556 483
f 480 556 552
f 556 557 552
f 553 557 555
f 552 557 553
f 555 557 558
f 487 559 484
f 484 559 556
f 556 560 557
f 557 560 558
f 559 560 556
f 558 560 561
f 490 562 487
f 493 562 490
f 487 562 559
f 562 563 559
f 561 563 564
f 559 563 560
f 560 563 561
f 493 565 562
f 494 565 493
f 562 566 563
f 563 566 564
f 567 566 37
f 564 566 567
f 565 566 562
f 494 568 565
f 497 568 494
f 500 568 497
f 565 568 566
f 568 569 566
f 566 569 37
f 37 569 40
f 503 570 500
f 500 570 568
f 570 571 568
f 569 571 40
f 568 571 569
f 42 571 44
f 40 571 42
f 504 572 503
f 503 572 570
f 572 573 570
f 571 573 44
f 570 573 571
f 44 573 46
f 507 574 504
f 510 574 507
f 504 574 572
f 573 575 46
f 572 575 573
f 574 575 572
f 46 575 48
f 510 576 574
f 511 576 510
f 574 576 575
f 575 577 48
f 48 577 50
f 576 577 575
f 511 578 576
f 514 578 511
f 517 578 514
f 576 578 577
f 578 579 577
f 577 579 50
f 52 579 54
f 50 579 52
f 517 580 578
f 520 580 517
f 579 581 54
f 580 581 578
f 578 581 579
f 54 581 56
f 521 582 520
f 524 582 521
f 520 582 580
f 581 583 56
f 580 583 581
f 582 583 580
f 56 583 58
f 527 584 524
f 524 584 582
f 582 585 583
f 584 585 582
f 583 585 58
f 58 585 60
f 527 586 584
f 528 586 527
f 586 587 584
f 585 587 60
f 584 587 585
f 60 587 62
f 531 588 528
f 535 588 531
f 528 588 586
f 586 589 587
f 588 589 586
f 64 589 66
f 62 589 64
f 587 589 62
f 535 590 588
f 538 590 535
f 590 591 588
f 66 591 68
f 589 591 66
f 588 591 589
f 539 592 538
f 542 592 539
f 590 592 591
f 538 592 590
f 591 593 68
f 68 593 70
f 592 593 591
f 545 594 542
f 592 594 593
f 542 594 592
f 70 595 72
f 593 595 70
f 594 595 593
f 452 596 545
f 545 596 594
f 74 597 76
f 72 597 74
f 594 597 595
f 596 597 594
f 595 597 72
f 454 598 452
f 457 598 454
f 452 598 596
f 76 599 78
f 597 599 76
f 596 599 597
f 598 599 596
f 456 600 457
f 459 600 456
f 457 600 598
f 598 600 599
f 78 601 80
f 599 601 78
f 600 601 599
f 459 602 600
f 461 602 459
f 601 603 80
f 600 603 601
f 602 603 600
f 80 603 82
f 461 604 602
f 464 604 461
f 466 604 464
f 604 605 602
f 603 605 82
f 84 605 109
f 602 605 603
f 82 605 84
f 466 606 604
f 468 606 466
f 110 607 111
f 604 607 605
f 109 607 110
f 605 607 109
f 606 607 604
f 111 607 606
f 112 608 113
f 111 608 112
f 468 608 606
f 606 608 111
f 470 608 468
f 113 609 115
f 470 609 608
f 608 609 113
f 115 609 474
f 472 609 470
f 474 609 472
f 116 610 125
f 115 610 116
f 125 610 476
f 474 610 115
f 475 610 474
f 476 610 475
f 108 611 107
f 108 612 611
f 612 613 611
f 612 614 613
f 614 615 613
f 614 616 615
f 616 617 615
f 616 618 617
f 618 619 617
f 618 620 619
f 620 621 619
f 620 622 621
f 622 623 621
f 622 624 623
f 624 625 623
f 624 626 625
f 626 627 625
f 626 628 627
f 628 629 627
f 628 630 629
f 630 631 629
f 630 632 631
f 632 633 631
f 632 634 633
f 634 635 633
f 634 636 635
f 636 637 635
f 636 638 637
f 638 639 637
f 638 640 639
f 640 641 639
f 640 642 641
f 642 643 641
f 642 644 643
f 644 645 643
f 644 646 645
f 646 647 645
f 647 648 645
f 647 551 648
f 551 649 648
f 551 550 649
f 550 650 649
f 550 554 650
f 554 651 650
f 554 555 651
f 555 652 651
f 555 558 652
f 558 653 652
f 558 561 653
f 561 654 653
f 561 564 654
f 564 655 654
f 564 567 655
f 567 39 655
f 567 37 39
f 12 656 163
f 19 657 22
f 22 657 12
f 656 657 658
f 658 657 19
f 12 657 656
f 9 659 19
f 658 659 660
f 19 659 658
f 7 661 9
f 660 661 662
f 662 661 663
f 9 661 659
f 659 661 660
f 4 664 7
f 663 664 665
f 7 664 661
f 661 664 663
f 2 666 4
f 664 667 665
f 665 667 668
f 666 667 4
f 4 667 664
f 1 669 2
f 2 669 666
f 668 670 671
f 671 670 672
f 667 670 668
f 666 670 667
f 669 670 666
f 95 673 93
f 93 673 1
f 1 673 669
f 669 673 670
f 672 674 675
f 675 674 676
f 673 674 670
f 670 674 672
f 95 677 673
f 97 677 95
f 676 678 679
f 673 678 674
f 674 678 676
f 677 678 673
f 99 680 97
f 97 680 677
f 680 681 677
f 679 681 682
f 678 681 679
f 677 681 678
f 99 683 680
f 680 683 681
f 101 683 99
f 683 684 681
f 682 684 685
f 685 684 686
f 681 684 682
f 101 687 683
f 103 687 101
f 684 688 686
f 686 688 689
f 687 688 683
f 683 688 684
f 103 690 687
f 690 691 687
f 687 691 688
f 688 691 689
f 689 691 692
f 692 691 693
f 105 694 103
f 690 694 691
f 103 694 690
f 694 695 691
f 693 695 696
f 691 695 693
f 105 697 694
f 107 697 105
f 694 698 695
f 695 698 696
f 696 698 699
f 697 698 694
f 107 700 697
f 611 700 107
f 697 700 698
f 699 701 702
f 702 701 703
f 698 701 699
f 700 701 698
f 613 704 611
f 611 704 700
f 704 705 700
f 700 705 701
f 703 705 706
f 701 705 703
f 615 707 613
f 613 707 704
f 707 708 704
f 706 708 709
f 704 708 705
f 705 708 706
f 615 710 707
f 707 710 708
f 617 710 615
f 710 711 708
f 709 711 712
f 708 711 709
f 619 713 617
f 617 713 710
f 710 714 711
f 711 714 712
f 713 714 710
f 712 714 715
f 715 714 716
f 619 717 713
f 621 717 619
f 713 718 714
f 717 718 713
f 716 718 719
f 714 718 716
f 717 720 718
f 623 720 621
f 621 720 717
f 718 721 719
f 719 721 722
f 720 721 718
f 625 723 623
f 623 723 720
f 722 724 725
f 725 724 726
f 723 724 720
f 721 724 722
f 720 724 721
f 627 727 625
f 625 727 723
f 727 728 723
f 726 728 729
f 723 728 724
f 724 728 726
f 629 730 627
f 627 730 727
f 729 731 732
f 732 731 733
f 727 731 728
f 730 731 727
f 728 731 729
f 631 734 629
f 629 734 730
f 730 734 731
f 731 735 733
f 733 735 736
f 734 735 731
f 633 737 631
f 631 737 734
f 737 738 734
f 735 738 736
f 736 738 739
f 739 738 740
f 734 738 735
f 633 741 737
f 737 741 738
f 635 741 633
f 740 742 743
f 741 742 738
f 738 742 740
f 635 744 741
f 637 744 635
f 741 745 742
f 743 745 746
f 742 745 743
f 744 745 741
f 639 747 637
f 744 747 745
f 637 747 744
f 746 748 749
f 745 748 746
f 747 748 745
f 641 750 639
f 639 750 747
f 748 751 749
f 749 751 752
f 747 751 748
f 752 751 753
f 750 751 747
f 643 754 641
f 641 754 750
f 751 755 753
f 753 755 756
f 750 755 751
f 754 755 750
f 645 757 643
f 643 757 754
f 755 758 756
f 756 758 759
f 754 758 755
f 757 758 754
f 645 760 757
f 648 760 645
f 758 761 759
f 759 761 762
f 762 761 763
f 760 761 757
f 757 761 758
f 649 764 648
f 648 764 760
f 763 765 766
f 760 765 761
f 761 765 763
f 764 765 760
f 649 767 764
f 650 767 649
f 767 768 764
f 766 768 769
f 769 768 770
f 764 768 765
f 765 768 766
f 651 771 650
f 650 771 767
f 771 772 767
f 770 772 773
f 767 772 768
f 768 772 770
f 652 774 651
f 651 774 771
f 773 775 776
f 771 775 772
f 774 775 771
f 772 775 773
f 653 777 652
f 652 777 774
f 777 778 774
f 776 778 779
f 779 778 780
f 774 778 775
f 775 778 776
f 654 781 653
f 653 781 777
f 777 782 778
f 778 782 780
f 781 782 777
f 780 782 783
f 655 784 654
f 654 784 781
f 781 785 782
f 782 785 783
f 784 785 781
f 783 785 786
f 786 785 787
f 655 788 784
f 39 788 655
f 785 789 787
f 784 789 785
f 788 789 784
f 787 789 790
f 38 791 39
f 39 791 788
f 788 792 789
f 789 792 790
f 791 792 788
f 790 792 793
f 41 794 38
f 38 794 791
f 791 794 792
f 792 795 793
f 794 795 792
f 793 795 796
f 796 795 797
f 43 798 41
f 41 798 794
f 794 799 795
f 795 799 797
f 798 799 794
f 797 799 800
f 45 801 43
f 43 801 798
f 799 802 800
f 798 802 799
f 801 802 798
f 800 802 803
f 47 804 45
f 45 804 801
f 801 805 802
f 802 805 803
f 803 805 806
f 806 805 807
f 804 805 801
f 49 808 47
f 47 808 804
f 804 808 805
f 805 809 807
f 807 809 810
f 808 809 805
f 51 811 49
f 49 811 808
f 808 812 809
f 809 812 810
f 810 812 813
f 811 812 808
f 53 814 51
f 51 814 811
f 811 814 812
f 812 815 813
f 814 815 812
f 813 815 816
f 816 815 817
f 55 818 53
f 53 818 814
f 814 819 815
f 815 819 817
f 817 819 820
f 818 819 814
f 57 821 55
f 55 821 818
f 819 822 820
f 818 822 819
f 820 822 823
f 821 822 818
f 59 824 57
f 57 824 821
f 824 825 821
f 823 825 826
f 822 825 823
f 821 825 822
f 61 827 59
f 59 827 824
f 826 828 829
f 829 828 830
f 824 828 825
f 825 828 826
f 827 828 824
f 63 831 61
f 61 831 827
f 831 832 827
f 830 832 833
f 828 832 830
f 827 832 828
f 63 834 831
f 65 834 63
f 834 835 831
f 833 835 836
f 831 835 832
f 832 835 833
f 65 837 834
f 67 837 65
f 834 838 835
f 835 838 836
f 837 838 834
f 836 838 839
f 67 840 837
f 69 840 67
f 840 841 837
f 837 841 838
f 838 841 839
f 839 841 842
f 842 841 843
f 840 844 841
f 69 844 840
f 71 844 69
f 841 845 843
f 844 845 841
f 843 845 846
f 71 847 844
f 844 847 845
f 73 847 71
f 847 848 845
f 845 848 846
f 846 848 849
f 849 848 850
f 73 851 847
f 847 851 848
f 75 851 73
f 848 852 850
f 851 852 848
f 850 852 853
f 75 854 851
f 549 854 77
f 77 854 75
f 851 855 852
f 854 855 851
f 852 855 853
f 549 855 854
f 853 855 856
f 856 855 549
f 656 169 163
f 656 658 169
f 658 172 169
f 658 174 172
f 658 660 174
f 660 857 174
f 662 857 660
f 662 663 857
f 663 858 857
f 663 665 858
f 668 859 665
f 665 859 858
f 671 860 668
f 668 860 859
f 671 672 860
f 675 861 672
f 672 861 860
f 675 676 861
f 679 862 676
f 676 862 861
f 682 863 679
f 679 863 862
f 863 864 865
f 685 864 682
f 686 864 685
f 682 864 863
f 866 867 689
f 865 867 866
f 686 867 864
f 689 867 686
f 864 867 865
f 689 868 866
f 866 868 869
f 692 868 689
f 693 868 692
f 869 870 871
f 693 870 868
f 868 870 869
f 696 870 693
f 696 872 870
f 871 872 873
f 870 872 871
f 699 872 696
f 874 875 876
f 873 875 874
f 699 875 872
f 872 875 873
f 702 875 699
f 703 875 702
f 876 877 878
f 875 877 876
f 703 877 875
f 706 877 703
f 878 879 880
f 877 879 878
f 706 879 877
f 709 879 706
f 880 881 882
f 879 881 880
f 709 881 879
f 712 881 709
f 882 883 884
f 881 883 882
f 715 883 712
f 716 883 715
f 712 883 881
f 716 885 883
f 883 885 884
f 719 885 716
f 719 886 885
f 722 886 719
f 884 887 15
f 885 887 884
f 15 887 13
f 13 887 886
f 886 887 885
f 13 888 36
f 886 888 13
f 722 888 886
f 725 888 722
f 726 888 725
f 726 889 888
f 729 889 726
f 888 889 36
f 32 890 889
f 36 890 32
f 889 890 36
f 889 891 32
f 729 891 889
f 732 891 729
f 733 891 732
f 32 892 29
f 891 892 32
f 733 893 891
f 736 893 733
f 893 894 891
f 29 894 28
f 892 894 29
f 891 894 892
f 736 895 893
f 739 895 736
f 740 895 739
f 893 896 894
f 894 896 28
f 28 896 25
f 895 896 893
f 740 897 895
f 743 897 740
f 897 898 895
f 25 898 24
f 896 898 25
f 895 898 896
f 746 899 743
f 743 899 897
f 897 900 898
f 898 900 24
f 21 900 18
f 24 900 21
f 899 900 897
f 749 901 746
f 746 901 899
f 901 902 899
f 18 902 8
f 900 902 18
f 899 902 900
f 752 903 749
f 753 903 752
f 749 903 901
f 902 904 8
f 903 904 901
f 901 904 902
f 756 905 753
f 753 905 903
f 8 906 6
f 904 906 8
f 903 906 904
f 905 906 903
f 759 907 756
f 756 907 905
f 6 908 90
f 906 908 6
f 905 908 906
f 907 908 905
f 762 909 759
f 763 909 762
f 759 909 907
f 90 910 91
f 907 910 908
f 908 910 90
f 909 910 907
f 766 911 763
f 763 911 909
f 91 912 92
f 910 912 91
f 909 912 910
f 911 912 909
f 769 913 766
f 770 913 769
f 766 913 911
f 911 913 912
f 92 914 94
f 913 914 912
f 912 914 92
f 773 915 770
f 770 915 913
f 915 916 913
f 913 916 914
f 914 916 94
f 94 916 96
f 915 917 916
f 776 917 773
f 773 917 915
f 917 918 916
f 96 918 98
f 916 918 96
f 776 919 917
f 779 919 776
f 780 919 779
f 919 920 917
f 98 920 100
f 918 920 98
f 917 920 918
f 783 921 780
f 919 921 920
f 780 921 919
f 920 922 100
f 100 922 102
f 921 922 920
f 786 923 783
f 787 923 786
f 783 923 921
f 923 924 921
f 922 924 102
f 921 924 922
f 102 924 104
f 787 925 923
f 790 925 787
f 923 926 924
f 924 926 104
f 104 926 106
f 106 926 108
f 925 926 923
f 793 927 790
f 790 927 925
f 926 928 108
f 108 928 612
f 925 928 926
f 927 928 925
f 796 929 793
f 797 929 796
f 793 929 927
f 927 929 928
f 612 930 614
f 928 930 612
f 929 930 928
f 800 931 797
f 797 931 929
f 929 931 930
f 614 932 616
f 930 932 614
f 931 932 930
f 803 933 800
f 800 933 931
f 931 933 932
f 616 934 618
f 932 934 616
f 933 934 932
f 806 935 803
f 807 935 806
f 803 935 933
f 933 935 934
f 618 936 620
f 934 936 618
f 935 936 934
f 810 937 807
f 807 937 935
f 620 938 622
f 936 938 620
f 935 938 936
f 937 938 935
f 813 939 810
f 810 939 937
f 937 939 938
f 622 940 624
f 938 940 622
f 939 940 938
f 816 941 813
f 817 941 816
f 813 941 939
f 940 942 624
f 939 942 940
f 941 942 939
f 820 943 817
f 817 943 941
f 941 943 942
f 624 944 626
f 942 944 624
f 943 944 942
f 943 945 944
f 823 945 820
f 820 945 943
f 626 946 628
f 944 946 626
f 945 946 944
f 826 947 823
f 823 947 945
f 946 948 628
f 947 948 945
f 628 948 630
f 945 948 946
f 826 949 947
f 947 949 948
f 829 949 826
f 830 949 829
f 949 950 948
f 948 950 630
f 630 950 632
f 830 951 949
f 833 951 830
f 949 951 950
f 951 952 950
f 950 952 632
f 632 952 634
f 951 953 952
f 833 953 951
f 836 953 833
f 953 954 952
f 952 954 634
f 634 954 636
f 836 955 953
f 839 955 836
f 953 956 954
f 954 956 636
f 955 956 953
f 636 956 638
f 955 957 956
f 839 957 955
f 842 957 839
f 843 957 842
f 957 958 956
f 956 958 638
f 638 958 640
f 843 959 957
f 846 959 843
f 957 960 958
f 959 960 957
f 958 960 640
f 640 960 642
f 959 961 960
f 849 961 846
f 850 961 849
f 846 961 959
f 961 962 960
f 960 962 642
f 642 962 644
f 850 963 961
f 853 963 850
f 963 964 961
f 961 964 962
f 962 964 644
f 644 964 646
f 856 965 853
f 549 965 856
f 853 965 963
f 551 965 549
f 965 966 963
f 963 966 964
f 646 966 647
f 964 966 646
f 647 966 551
f 551 966 965
f 15 14 884
f 884 146 882
f 14 146 884
f 146 142 882
f 142 880 882
f 142 138 880
f 138 878 880
f 138 141 878
f 141 876 878
f 876 145 874
f 141 145 876
f 874 149 873
f 145 149 874
f 873 151 871
f 149 151 873
f 871 153 869
f 151 153 871
f 869 155 866
f 153 155 869
f 866 158 865
f 155 158 866
f 865 159 863
f 158 159 865
f 863 161 862
f 159 161 863
f 862 165 861
f 161 165 862
f 165 168 861
f 168 860 861
f 168 171 860
f 171 859 860
f 171 177 859
f 177 858 859
f 177 175 858
f 175 857 858
f 175 174 857
f 12 163 10
