# smartdrone2 body-local mesh, millimetres
v -124.000000 -209.441693 116.552640
v -124.000000 -208.569381 117.090036
v -124.000000 -209.267618 116.374169
v -124.000000 -209.606656 116.739565
v -124.000000 -208.708641 117.232812
v -124.000000 -208.423177 116.954378
v -124.000000 -209.084863 116.204597
v -124.000000 -208.840611 117.382353
v -124.000000 -209.762096 116.934481
v -124.000000 -208.270393 116.826177
v -124.000000 -208.893882 116.044346
v -124.000000 -209.907627 117.136903
v -124.000000 -208.964964 117.538286
v -124.000000 -208.111408 116.705751
v -124.000000 -208.695152 115.893813
v -124.000000 -210.042888 117.346327
v -124.000000 -209.081389 117.700223
v -124.000000 -207.946619 116.593400
v -124.000000 -208.489165 115.753374
v -124.000000 -210.167541 117.562233
v -124.000000 -209.189597 117.867762
v -124.000000 -207.776433 116.489402
v -124.000000 -208.276433 115.623376
v -124.000000 -210.281278 117.784085
v -124.000000 -209.289320 118.040487
v -124.000000 -207.601276 116.394016
v -124.000000 -208.057487 115.504144
v -124.000000 -210.383815 118.011329
v -124.000000 -209.380309 118.217968
v -124.000000 -207.421582 116.307480
v -124.000000 -207.832869 115.395974
v -124.000000 -210.474897 118.243403
v -124.000000 -209.462338 118.399764
v -124.000000 -207.237798 116.230008
v -124.000000 -207.603139 115.299135
v -124.000000 -210.554298 118.479727
v -124.000000 -209.535204 118.585423
v -124.000000 -207.050380 116.161794
v -124.000000 -207.368867 115.213867
v -124.000000 -210.621820 118.719716
v -124.000000 -209.598725 118.774483
v -124.000000 -206.859795 116.103006
v -124.000000 -207.130636 115.140382
v -124.000000 -210.677296 118.962773
v -124.000000 -209.652743 118.966474
v -124.000000 -206.666517 116.053792
v -124.000000 -206.889038 115.078864
v -124.000000 -210.720588 119.208292
v -124.000000 -209.697123 119.160919
v -124.000000 -206.471026 116.014272
v -124.000000 -206.644674 115.029465
v -124.000000 -210.751587 119.455664
v -124.000000 -209.731757 119.357334
v -124.000000 -206.273808 115.984546
v -124.000000 -206.398152 114.992307
v -124.000000 -210.770218 119.704274
v -124.000000 -209.756557 119.555232
v -124.000000 -206.075354 115.964688
v -124.000000 -206.150084 114.967484
v -124.000000 -210.776433 119.953503
v -124.000000 -209.771461 119.754120
v -124.000000 -205.876156 115.954747
v -124.000000 -205.901087 114.955057
v -124.000000 -210.770218 120.202733
v -124.000000 -209.776433 119.953503
v -124.000000 -205.676711 115.954747
v -124.000000 -205.651780 114.955057
v -124.000000 -210.751587 120.451343
v -124.000000 -209.771461 120.152887
v -124.000000 -205.477513 115.964688
v -124.000000 -205.402783 114.967484
v -124.000000 -210.720588 120.698715
v -124.000000 -209.756557 120.351775
v -124.000000 -205.279059 115.984546
v -124.000000 -205.154715 114.992307
v -124.000000 -209.731757 120.549672
v -124.000000 -210.677296 120.944234
v -124.000000 -205.081841 116.014272
v -124.000000 -204.908193 115.029465
v -124.000000 -210.621820 121.187290
v -124.000000 -209.697123 120.746088
v -124.000000 -204.886350 116.053792
v -124.000000 -204.663829 115.078864
v -124.000000 -209.652743 120.940533
v -124.000000 -210.554298 121.427279
v -124.000000 -204.693072 116.103006
v -124.000000 -204.422231 115.140382
v -124.000000 -210.474897 121.663604
v -124.000000 -209.598725 121.132524
v -124.000000 -204.502487 116.161794
v -124.000000 -204.184000 115.213867
v -124.000000 -210.383815 121.895677
v -124.000000 -209.535204 121.321584
v -124.000000 -204.315069 116.230008
v -124.000000 -203.949728 115.299135
v -124.000000 -210.281278 122.122922
v -124.000000 -209.462338 121.507242
v -124.000000 -204.131285 116.307480
v -124.000000 -203.719998 115.395974
v -124.000000 -210.167541 122.344773
v -124.000000 -209.380309 121.689038
v -124.000000 -203.951591 116.394016
v -124.000000 -203.495380 115.504144
v -124.000000 -210.042888 122.560679
v -124.000000 -209.289320 121.866519
v -124.000000 -203.776433 116.489402
v -124.000000 -203.276433 115.623376
v -124.000000 -209.189597 122.039244
v -124.000000 -209.907627 122.770104
v -124.000000 -203.606248 116.593400
v -124.000000 -203.063702 115.753374
v -124.000000 -209.081389 122.206784
v -124.000000 -209.762096 122.972525
v -124.000000 -203.441459 116.705751
v -124.000000 -202.857715 115.893813
v -124.000000 -208.964964 122.368721
v -124.000000 -203.282474 116.826177
v -124.000000 -202.658984 116.044346
v -124.000000 -209.606656 123.167441
v -124.000000 -208.840611 122.524654
v -124.000000 -203.129690 116.954378
v -124.000000 -202.468004 116.204597
v -124.000000 -209.441693 123.354367
v -124.000000 -208.708641 122.674194
v -124.000000 -202.983486 117.090036
v -124.000000 -202.285249 116.374169
v -124.000000 -209.267618 123.532838
v -124.000000 -208.569381 122.816971
v -124.000000 -202.844226 117.232812
v -124.000000 -202.111174 116.552640
v -124.000000 -209.084863 123.702409
v -124.000000 -208.423177 122.952628
v -124.000000 -202.712256 117.382353
v -124.000000 -201.946211 116.739565
v -124.000000 -202.587903 117.538286
v -124.000000 -208.893882 123.862661
v -124.000000 -208.270393 123.080829
v -124.000000 -201.790771 116.934481
v -124.000000 -202.471478 117.700223
v -124.000000 -208.695152 124.013193
v -124.000000 -208.111408 123.201255
v -124.000000 -201.645240 117.136903
v -124.000000 -202.363270 117.867762
v -124.000000 -208.489165 124.153633
v -124.000000 -207.946619 123.313607
v -124.000000 -201.509979 117.346327
v -124.000000 -202.263547 118.040487
v -124.000000 -208.276433 124.283630
v -124.000000 -207.776433 123.417605
v -124.000000 -201.385326 117.562233
v -124.000000 -202.172558 118.217968
v -124.000000 -208.057487 124.402862
v -124.000000 -207.601276 123.512991
v -124.000000 -201.271589 117.784085
v -124.000000 -202.090529 118.399764
v -124.000000 -207.832869 124.511033
v -124.000000 -207.421582 123.599527
v -124.000000 -201.169052 118.011329
v -124.000000 -202.017663 118.585423
v -124.000000 -207.603139 124.607872
v -124.000000 -207.237798 123.676998
v -124.000000 -201.077970 118.243403
v -124.000000 -207.368867 124.693140
v -124.000000 -207.050380 123.745213
v -124.000000 -200.998569 118.479727
v -124.000000 -201.900124 118.966474
v -124.000000 -201.954142 118.774483
v -124.000000 -207.130636 124.766625
v -124.000000 -206.859795 123.804000
v -124.000000 -200.931047 118.719716
v -124.000000 -206.889038 124.828143
v -124.000000 -206.666517 123.853215
v -124.000000 -200.875571 118.962773
v -124.000000 -201.821110 119.357334
v -124.000000 -201.855744 119.160919
v -124.000000 -206.644674 124.877542
v -124.000000 -206.471026 123.892734
v -124.000000 -200.832279 119.208292
v -124.000000 -201.796310 119.555232
v -124.000000 -206.398152 124.914699
v -124.000000 -206.273808 123.922460
v -124.000000 -200.801280 119.455664
v -124.000000 -201.781406 119.754120
v -124.000000 -206.150084 124.939522
v -124.000000 -206.075354 123.942318
v -124.000000 -200.782649 119.704274
v -124.000000 -201.776433 119.953503
v -124.000000 -205.901087 124.951949
v -124.000000 -205.876156 123.952260
v -124.000000 -200.776433 119.953503
v -124.000000 -201.781406 120.152887
v -124.000000 -205.651780 124.951949
v -124.000000 -205.676711 123.952260
v -124.000000 -200.782649 120.202733
v -124.000000 -201.796310 120.351775
v -124.000000 -205.402783 124.939522
v -124.000000 -205.477513 123.942318
v -124.000000 -200.801280 120.451343
v -124.000000 -201.821110 120.549672
v -124.000000 -205.154715 124.914699
v -124.000000 -205.279059 123.922460
v -124.000000 -200.832279 120.698715
v -124.000000 -201.855744 120.746088
v -124.000000 -204.908193 124.877542
v -124.000000 -205.081841 123.892734
v -124.000000 -200.875571 120.944234
v -124.000000 -201.900124 120.940533
v -124.000000 -204.663829 124.828143
v -124.000000 -204.886350 123.853215
v -124.000000 -200.931047 121.187290
v -124.000000 -201.954142 121.132524
v -124.000000 -204.422231 124.766625
v -124.000000 -204.693072 123.804000
v -124.000000 -200.998569 121.427279
v -124.000000 -204.184000 124.693140
v -124.000000 -204.502487 123.745213
v -124.000000 -201.077970 121.663604
v -124.000000 -202.090529 121.507242
v -124.000000 -202.017663 121.321584
v -124.000000 -203.949728 124.607872
v -124.000000 -204.315069 123.676998
v -124.000000 -201.169052 121.895677
v -124.000000 -202.172558 121.689038
v -124.000000 -203.719998 124.511033
v -124.000000 -204.131285 123.599527
v -124.000000 -201.271589 122.122922
v -124.000000 -202.263547 121.866519
v -124.000000 -203.495380 124.402862
v -124.000000 -203.951591 123.512991
v -124.000000 -201.385326 122.344773
v -124.000000 -202.363270 122.039244
v -124.000000 -203.276433 124.283630
v -124.000000 -203.776433 123.417605
v -124.000000 -201.509979 122.560679
v -124.000000 -202.471478 122.206784
v -124.000000 -203.063702 124.153633
v -124.000000 -203.606248 123.313607
v -124.000000 -201.645240 122.770104
v -124.000000 -202.587903 122.368721
v -124.000000 -202.857715 124.013193
v -124.000000 -203.441459 123.201255
v -124.000000 -201.790771 122.972525
v -124.000000 -202.658984 123.862661
v -124.000000 -203.282474 123.080829
v -124.000000 -201.946211 123.167441
v -124.000000 -202.712256 122.524654
v -124.000000 -202.468004 123.702409
v -124.000000 -203.129690 122.952628
v -124.000000 -202.111174 123.354367
v -124.000000 -202.983486 122.816971
v -124.000000 -202.844226 122.674194
v -124.000000 -202.285249 123.532838
v 124.000000 -209.776433 119.953503
v 124.000000 -209.771461 119.754120
v 124.000000 -209.756557 119.555232
v 124.000000 -209.731757 119.357334
v 124.000000 -209.697123 119.160919
v 124.000000 -209.652743 118.966474
v 124.000000 -209.598725 118.774483
v 124.000000 -209.535204 118.585423
v 124.000000 -209.462338 118.399764
v 124.000000 -209.380309 118.217968
v 124.000000 -209.289320 118.040487
v 124.000000 -209.189597 117.867762
v 124.000000 -209.081389 117.700223
v 124.000000 -208.964964 117.538286
v 124.000000 -208.840611 117.382353
v 124.000000 -208.708641 117.232812
v 124.000000 -208.569381 117.090036
v 124.000000 -208.423177 116.954378
v 124.000000 -208.270393 116.826177
v 124.000000 -208.111408 116.705751
v 124.000000 -207.946619 116.593400
v 124.000000 -207.776433 116.489402
v 124.000000 -207.601276 116.394016
v 124.000000 -207.421582 116.307480
v 124.000000 -207.237798 116.230008
v 124.000000 -207.050380 116.161794
v 124.000000 -206.859795 116.103006
v 124.000000 -206.666517 116.053792
v 124.000000 -206.471026 116.014272
v 124.000000 -206.273808 115.984546
v 124.000000 -206.075354 115.964688
v 124.000000 -205.876156 115.954747
v 124.000000 -205.676711 115.954747
v 124.000000 -205.477513 115.964688
v 124.000000 -205.279059 115.984546
v 124.000000 -205.081841 116.014272
v 124.000000 -204.886350 116.053792
v 124.000000 -204.693072 116.103006
v 124.000000 -204.502487 116.161794
v 124.000000 -204.315069 116.230008
v 124.000000 -204.131285 116.307480
v 124.000000 -203.951591 116.394016
v 124.000000 -203.776433 116.489402
v 124.000000 -203.606248 116.593400
v 124.000000 -203.441459 116.705751
v 124.000000 -203.282474 116.826177
v 124.000000 -203.129690 116.954378
v 124.000000 -202.983486 117.090036
v 124.000000 -202.844226 117.232812
v 124.000000 -202.712256 117.382353
v 124.000000 -202.587903 117.538286
v 124.000000 -202.471478 117.700223
v 124.000000 -202.363270 117.867762
v 124.000000 -202.263547 118.040487
v 124.000000 -202.172558 118.217968
v 124.000000 -202.090529 118.399764
v 124.000000 -202.017663 118.585423
v 124.000000 -201.954142 118.774483
v 124.000000 -201.900124 118.966474
v 124.000000 -201.855744 119.160919
v 124.000000 -201.821110 119.357334
v 124.000000 -201.796310 119.555232
v 124.000000 -201.781406 119.754120
v 124.000000 -201.776433 119.953503
v 124.000000 -201.781406 120.152887
v 124.000000 -201.796310 120.351775
v 124.000000 -201.821110 120.549672
v 124.000000 -201.855744 120.746088
v 124.000000 -201.900124 120.940533
v 124.000000 -201.954142 121.132524
v 124.000000 -202.017663 121.321584
v 124.000000 -202.090529 121.507242
v 124.000000 -202.172558 121.689038
v 124.000000 -202.263547 121.866519
v 124.000000 -202.363270 122.039244
v 124.000000 -202.471478 122.206784
v 124.000000 -202.587903 122.368721
v 124.000000 -202.712256 122.524654
v 124.000000 -202.844226 122.674194
v 124.000000 -202.983486 122.816971
v 124.000000 -203.129690 122.952628
v 124.000000 -203.282474 123.080829
v 124.000000 -203.441459 123.201255
v 124.000000 -203.606248 123.313607
v 124.000000 -203.776433 123.417605
v 124.000000 -203.951591 123.512991
v 124.000000 -204.131285 123.599527
v 124.000000 -204.315069 123.676998
v 124.000000 -204.502487 123.745213
v 124.000000 -204.693072 123.804000
v 124.000000 -204.886350 123.853215
v 124.000000 -205.081841 123.892734
v 124.000000 -205.279059 123.922460
v 124.000000 -205.477513 123.942318
v 124.000000 -205.676711 123.952260
v 124.000000 -205.876156 123.952260
v 124.000000 -206.075354 123.942318
v 124.000000 -206.273808 123.922460
v 124.000000 -206.471026 123.892734
v 124.000000 -206.666517 123.853215
v 124.000000 -206.859795 123.804000
v 124.000000 -207.050380 123.745213
v 124.000000 -207.237798 123.676998
v 124.000000 -207.421582 123.599527
v 124.000000 -207.601276 123.512991
v 124.000000 -207.776433 123.417605
v 124.000000 -207.946619 123.313607
v 124.000000 -208.111408 123.201255
v 124.000000 -208.270393 123.080829
v 124.000000 -208.423177 122.952628
v 124.000000 -208.569381 122.816971
v 124.000000 -208.708641 122.674194
v 124.000000 -208.840611 122.524654
v 124.000000 -208.964964 122.368721
v 124.000000 -209.081389 122.206784
v 124.000000 -209.189597 122.039244
v 124.000000 -209.289320 121.866519
v 124.000000 -209.380309 121.689038
v 124.000000 -209.462338 121.507242
v 124.000000 -209.535204 121.321584
v 124.000000 -209.598725 121.132524
v 124.000000 -209.652743 120.940533
v 124.000000 -209.697123 120.746088
v 124.000000 -209.731757 120.549672
v 124.000000 -209.756557 120.351775
v 124.000000 -209.771461 120.152887
v 124.000000 -209.441693 116.552640
v 124.000000 -209.267618 116.374169
v 124.000000 -209.606656 116.739565
v 124.000000 -209.084863 116.204597
v 124.000000 -209.762096 116.934481
v 124.000000 -208.893882 116.044346
v 124.000000 -209.907627 117.136903
v 124.000000 -208.695152 115.893813
v 124.000000 -210.042888 117.346327
v 124.000000 -208.489165 115.753374
v 124.000000 -210.167541 117.562233
v 124.000000 -208.276433 115.623376
v 124.000000 -210.281278 117.784085
v 124.000000 -208.057487 115.504144
v 124.000000 -210.383815 118.011329
v 124.000000 -207.832869 115.395974
v 124.000000 -210.474897 118.243403
v 124.000000 -207.603139 115.299135
v 124.000000 -210.554298 118.479727
v 124.000000 -207.368867 115.213867
v 124.000000 -210.621820 118.719716
v 124.000000 -207.130636 115.140382
v 124.000000 -210.677296 118.962773
v 124.000000 -206.889038 115.078864
v 124.000000 -210.720588 119.208292
v 124.000000 -206.644674 115.029465
v 124.000000 -210.751587 119.455664
v 124.000000 -206.398152 114.992307
v 124.000000 -210.770218 119.704274
v 124.000000 -206.150084 114.967484
v 124.000000 -210.776433 119.953503
v 124.000000 -205.901087 114.955057
v 124.000000 -210.770218 120.202733
v 124.000000 -205.651780 114.955057
v 124.000000 -210.751587 120.451343
v 124.000000 -205.402783 114.967484
v 124.000000 -210.720588 120.698715
v 124.000000 -205.154715 114.992307
v 124.000000 -210.677296 120.944234
v 124.000000 -204.908193 115.029465
v 124.000000 -210.621820 121.187290
v 124.000000 -204.663829 115.078864
v 124.000000 -210.554298 121.427279
v 124.000000 -204.422231 115.140382
v 124.000000 -210.474897 121.663604
v 124.000000 -204.184000 115.213867
v 124.000000 -210.383815 121.895677
v 124.000000 -203.949728 115.299135
v 124.000000 -210.281278 122.122922
v 124.000000 -203.719998 115.395974
v 124.000000 -210.167541 122.344773
v 124.000000 -203.495380 115.504144
v 124.000000 -210.042888 122.560679
v 124.000000 -203.276433 115.623376
v 124.000000 -209.907627 122.770104
v 124.000000 -203.063702 115.753374
v 124.000000 -209.762096 122.972525
v 124.000000 -202.857715 115.893813
v 124.000000 -202.658984 116.044346
v 124.000000 -209.606656 123.167441
v 124.000000 -202.468004 116.204597
v 124.000000 -209.441693 123.354367
v 124.000000 -202.285249 116.374169
v 124.000000 -209.267618 123.532838
v 124.000000 -202.111174 116.552640
v 124.000000 -209.084863 123.702409
v 124.000000 -201.946211 116.739565
v 124.000000 -208.893882 123.862661
v 124.000000 -201.790771 116.934481
v 124.000000 -208.695152 124.013193
v 124.000000 -201.645240 117.136903
v 124.000000 -208.489165 124.153633
v 124.000000 -201.509979 117.346327
v 124.000000 -208.276433 124.283630
v 124.000000 -201.385326 117.562233
v 124.000000 -208.057487 124.402862
v 124.000000 -201.271589 117.784085
v 124.000000 -207.832869 124.511033
v 124.000000 -201.169052 118.011329
v 124.000000 -207.603139 124.607872
v 124.000000 -201.077970 118.243403
v 124.000000 -207.368867 124.693140
v 124.000000 -200.998569 118.479727
v 124.000000 -207.130636 124.766625
v 124.000000 -200.931047 118.719716
v 124.000000 -206.889038 124.828143
v 124.000000 -200.875571 118.962773
v 124.000000 -206.644674 124.877542
v 124.000000 -200.832279 119.208292
v 124.000000 -206.398152 124.914699
v 124.000000 -200.801280 119.455664
v 124.000000 -206.150084 124.939522
v 124.000000 -200.782649 119.704274
v 124.000000 -205.901087 124.951949
v 124.000000 -200.776433 119.953503
v 124.000000 -205.651780 124.951949
v 124.000000 -200.782649 120.202733
v 124.000000 -205.402783 124.939522
v 124.000000 -200.801280 120.451343
v 124.000000 -205.154715 124.914699
v 124.000000 -200.832279 120.698715
v 124.000000 -204.908193 124.877542
v 124.000000 -200.875571 120.944234
v 124.000000 -204.663829 124.828143
v 124.000000 -200.931047 121.187290
v 124.000000 -204.422231 124.766625
v 124.000000 -200.998569 121.427279
v 124.000000 -204.184000 124.693140
v 124.000000 -201.077970 121.663604
v 124.000000 -203.949728 124.607872
v 124.000000 -201.169052 121.895677
v 124.000000 -203.719998 124.511033
v 124.000000 -201.271589 122.122922
v 124.000000 -203.495380 124.402862
v 124.000000 -201.385326 122.344773
v 124.000000 -203.276433 124.283630
v 124.000000 -201.509979 122.560679
v 124.000000 -203.063702 124.153633
v 124.000000 -201.645240 122.770104
v 124.000000 -202.857715 124.013193
v 124.000000 -201.790771 122.972525
v 124.000000 -202.658984 123.862661
v 124.000000 -201.946211 123.167441
v 124.000000 -202.468004 123.702409
v 124.000000 -202.111174 123.354367
v 124.000000 -202.285249 123.532838
f 1 2 3
f 4 5 1
f 1 5 2
f 3 6 7
f 2 6 3
f 4 8 5
f 9 8 4
f 6 10 7
f 7 10 11
f 12 13 9
f 9 13 8
f 10 14 11
f 11 14 15
f 16 17 12
f 12 17 13
f 15 18 19
f 14 18 15
f 20 21 16
f 16 21 17
f 18 22 19
f 19 22 23
f 24 25 20
f 20 25 21
f 23 26 27
f 22 26 23
f 28 29 24
f 24 29 25
f 26 30 27
f 27 30 31
f 32 33 28
f 28 33 29
f 31 34 35
f 30 34 31
f 36 37 32
f 32 37 33
f 35 38 39
f 34 38 35
f 40 41 36
f 36 41 37
f 39 42 43
f 38 42 39
f 44 45 40
f 40 45 41
f 42 46 43
f 43 46 47
f 48 49 44
f 44 49 45
f 47 50 51
f 46 50 47
f 52 53 48
f 48 53 49
f 50 54 51
f 51 54 55
f 56 57 52
f 52 57 53
f 55 58 59
f 54 58 55
f 60 61 56
f 56 61 57
f 59 62 63
f 58 62 59
f 64 65 60
f 60 65 61
f 63 66 67
f 62 66 63
f 68 69 64
f 64 69 65
f 67 70 71
f 66 70 67
f 72 73 68
f 68 73 69
f 70 74 71
f 71 74 75
f 72 76 73
f 77 76 72
f 74 78 75
f 75 78 79
f 80 81 77
f 77 81 76
f 79 82 83
f 78 82 79
f 80 84 81
f 85 84 80
f 82 86 83
f 83 86 87
f 88 89 85
f 85 89 84
f 86 90 87
f 87 90 91
f 92 93 88
f 88 93 89
f 91 94 95
f 90 94 91
f 96 97 92
f 92 97 93
f 95 98 99
f 94 98 95
f 100 101 96
f 96 101 97
f 98 102 99
f 99 102 103
f 104 105 100
f 100 105 101
f 103 106 107
f 102 106 103
f 104 108 105
f 104 109 108
f 107 110 111
f 106 110 107
f 109 112 108
f 109 113 112
f 111 114 115
f 110 114 111
f 113 116 112
f 115 117 118
f 114 117 115
f 113 119 116
f 119 120 116
f 118 121 122
f 117 121 118
f 119 123 120
f 123 124 120
f 122 125 126
f 121 125 122
f 123 127 124
f 124 127 128
f 125 129 126
f 129 130 126
f 127 131 128
f 128 131 132
f 129 133 130
f 133 134 130
f 133 135 134
f 131 136 132
f 132 136 137
f 135 138 134
f 135 139 138
f 137 140 141
f 136 140 137
f 139 142 138
f 139 143 142
f 140 144 141
f 141 144 145
f 143 146 142
f 147 146 143
f 144 148 145
f 145 148 149
f 147 150 146
f 151 150 147
f 149 152 153
f 148 152 149
f 151 154 150
f 155 154 151
f 153 156 157
f 152 156 153
f 155 158 154
f 159 158 155
f 157 160 161
f 156 160 157
f 159 162 158
f 161 163 164
f 160 163 161
f 159 165 162
f 166 165 167
f 167 165 159
f 164 168 169
f 163 168 164
f 166 170 165
f 169 171 172
f 168 171 169
f 166 173 170
f 174 173 175
f 175 173 166
f 172 176 177
f 171 176 172
f 174 178 173
f 179 178 174
f 176 180 177
f 177 180 181
f 179 182 178
f 183 182 179
f 180 184 181
f 181 184 185
f 183 186 182
f 187 186 183
f 184 188 185
f 185 188 189
f 187 190 186
f 191 190 187
f 188 192 189
f 189 192 193
f 191 194 190
f 195 194 191
f 192 196 193
f 193 196 197
f 195 198 194
f 199 198 195
f 197 200 201
f 196 200 197
f 199 202 198
f 203 202 199
f 201 204 205
f 200 204 201
f 203 206 202
f 207 206 203
f 205 208 209
f 204 208 205
f 207 210 206
f 211 210 207
f 208 212 209
f 209 212 213
f 211 214 210
f 213 215 216
f 212 215 213
f 211 217 214
f 218 217 219
f 219 217 211
f 215 220 216
f 216 220 221
f 218 222 217
f 223 222 218
f 220 224 221
f 221 224 225
f 223 226 222
f 227 226 223
f 225 228 229
f 224 228 225
f 227 230 226
f 231 230 227
f 228 232 229
f 229 232 233
f 231 234 230
f 235 234 231
f 232 236 233
f 233 236 237
f 235 238 234
f 239 238 235
f 236 240 237
f 237 240 241
f 239 242 238
f 240 243 241
f 241 243 244
f 239 245 242
f 246 245 239
f 243 247 244
f 244 247 248
f 246 249 245
f 250 249 251
f 251 249 246
f 250 252 249
f 247 252 248
f 248 252 250
f 65 253 61
f 61 254 57
f 253 254 61
f 254 255 57
f 53 256 49
f 57 256 53
f 255 256 57
f 49 257 45
f 256 257 49
f 257 258 45
f 45 259 41
f 258 259 45
f 37 260 33
f 41 260 37
f 259 260 41
f 260 261 33
f 33 262 29
f 261 262 33
f 29 263 25
f 262 263 29
f 263 264 25
f 21 264 17
f 25 264 21
f 264 265 17
f 265 266 17
f 17 266 13
f 266 267 13
f 8 267 5
f 13 267 8
f 267 268 5
f 268 269 5
f 5 269 2
f 269 270 2
f 2 270 6
f 270 271 6
f 6 271 10
f 10 272 14
f 271 272 10
f 14 273 18
f 272 273 14
f 18 274 22
f 273 274 18
f 22 275 26
f 274 275 22
f 26 276 30
f 275 276 26
f 30 277 34
f 276 277 30
f 38 278 42
f 34 278 38
f 277 278 34
f 278 279 42
f 42 280 46
f 279 280 42
f 46 281 50
f 280 281 46
f 50 282 54
f 281 282 50
f 54 283 58
f 282 283 54
f 58 284 62
f 283 284 58
f 62 285 66
f 284 285 62
f 66 286 70
f 285 286 66
f 74 287 78
f 70 287 74
f 286 287 70
f 78 288 82
f 287 288 78
f 288 289 82
f 289 290 82
f 86 290 90
f 82 290 86
f 290 291 90
f 90 291 94
f 94 292 98
f 291 292 94
f 292 293 98
f 98 294 102
f 293 294 98
f 102 295 106
f 294 295 102
f 106 296 110
f 295 296 106
f 114 297 117
f 110 297 114
f 296 297 110
f 297 298 117
f 121 299 125
f 117 299 121
f 298 299 117
f 299 300 125
f 129 301 133
f 125 301 129
f 300 301 125
f 133 302 135
f 301 302 133
f 135 303 139
f 302 303 135
f 139 304 143
f 303 304 139
f 304 305 143
f 143 306 147
f 305 306 143
f 306 307 147
f 147 307 151
f 307 308 151
f 151 308 155
f 308 309 155
f 159 309 167
f 155 309 159
f 309 310 167
f 310 311 167
f 167 311 166
f 311 312 166
f 166 312 175
f 174 313 179
f 175 313 174
f 312 313 175
f 313 314 179
f 314 315 179
f 183 315 187
f 179 315 183
f 315 316 187
f 187 316 191
f 316 317 191
f 317 318 191
f 195 318 199
f 191 318 195
f 318 319 199
f 319 320 199
f 203 320 207
f 199 320 203
f 320 321 207
f 207 321 211
f 321 322 211
f 322 323 211
f 219 323 218
f 211 323 219
f 323 324 218
f 218 324 223
f 324 325 223
f 223 325 227
f 325 326 227
f 326 327 227
f 231 327 235
f 227 327 231
f 327 328 235
f 235 328 239
f 328 329 239
f 239 329 246
f 329 330 246
f 330 331 246
f 251 331 250
f 246 331 251
f 331 332 250
f 332 333 250
f 248 333 244
f 250 333 248
f 333 334 244
f 244 335 241
f 334 335 244
f 237 336 233
f 241 336 237
f 335 336 241
f 336 337 233
f 229 338 225
f 233 338 229
f 337 338 233
f 225 339 221
f 338 339 225
f 339 340 221
f 340 341 221
f 216 341 213
f 221 341 216
f 341 342 213
f 213 342 209
f 342 343 209
f 343 344 209
f 209 344 205
f 344 345 205
f 201 345 197
f 205 345 201
f 345 346 197
f 346 347 197
f 197 347 193
f 347 348 193
f 189 348 185
f 193 348 189
f 348 349 185
f 349 350 185
f 185 350 181
f 350 351 181
f 181 351 177
f 351 352 177
f 177 352 172
f 169 353 164
f 172 353 169
f 352 353 172
f 353 354 164
f 164 355 161
f 354 355 164
f 157 356 153
f 161 356 157
f 355 356 161
f 153 357 149
f 356 357 153
f 357 358 149
f 149 359 145
f 358 359 149
f 145 360 141
f 359 360 145
f 141 361 137
f 360 361 141
f 137 362 132
f 361 362 137
f 128 363 124
f 132 363 128
f 362 363 132
f 124 364 120
f 363 364 124
f 364 365 120
f 365 366 120
f 120 366 116
f 366 367 116
f 112 367 108
f 116 367 112
f 367 368 108
f 108 368 105
f 368 369 105
f 369 370 105
f 101 370 97
f 105 370 101
f 370 371 97
f 371 372 97
f 97 372 93
f 89 373 84
f 93 373 89
f 372 373 93
f 373 374 84
f 374 375 84
f 81 375 76
f 84 375 81
f 375 376 76
f 73 377 69
f 76 377 73
f 376 377 76
f 69 378 65
f 377 378 69
f 378 253 65
f 269 379 380
f 268 381 379
f 268 379 269
f 270 380 382
f 270 269 380
f 267 381 268
f 267 383 381
f 271 270 382
f 271 382 384
f 266 385 383
f 266 383 267
f 272 271 384
f 272 384 386
f 265 387 385
f 265 385 266
f 273 386 388
f 273 272 386
f 264 389 387
f 264 387 265
f 274 273 388
f 274 388 390
f 263 391 389
f 263 389 264
f 275 390 392
f 275 274 390
f 262 393 391
f 262 391 263
f 276 275 392
f 276 392 394
f 261 395 393
f 261 393 262
f 277 394 396
f 277 276 394
f 260 397 395
f 260 395 261
f 278 396 398
f 278 277 396
f 259 399 397
f 259 397 260
f 279 398 400
f 279 278 398
f 258 401 399
f 258 399 259
f 280 279 400
f 280 400 402
f 257 403 401
f 257 401 258
f 281 402 404
f 281 280 402
f 256 405 403
f 256 403 257
f 282 281 404
f 282 404 406
f 255 407 405
f 255 405 256
f 283 406 408
f 283 282 406
f 254 409 407
f 254 407 255
f 284 408 410
f 284 283 408
f 253 411 409
f 253 409 254
f 285 410 412
f 285 284 410
f 378 413 411
f 378 411 253
f 286 412 414
f 286 285 412
f 377 415 413
f 377 413 378
f 287 286 414
f 287 414 416
f 376 415 377
f 376 417 415
f 288 287 416
f 288 416 418
f 375 419 417
f 375 417 376
f 289 418 420
f 289 288 418
f 374 419 375
f 374 421 419
f 290 289 420
f 290 420 422
f 373 423 421
f 373 421 374
f 291 290 422
f 291 422 424
f 372 425 423
f 372 423 373
f 292 424 426
f 292 291 424
f 371 427 425
f 371 425 372
f 293 426 428
f 293 292 426
f 370 429 427
f 370 427 371
f 294 293 428
f 294 428 430
f 369 431 429
f 369 429 370
f 295 430 432
f 295 294 430
f 368 431 369
f 433 431 368
f 296 432 434
f 296 295 432
f 367 433 368
f 435 433 367
f 297 434 436
f 297 296 434
f 366 435 367
f 298 436 437
f 298 297 436
f 438 435 366
f 365 438 366
f 299 437 439
f 299 298 437
f 440 438 365
f 364 440 365
f 300 439 441
f 300 299 439
f 442 440 364
f 442 364 363
f 301 300 441
f 443 301 441
f 444 442 363
f 444 363 362
f 302 301 443
f 445 302 443
f 303 302 445
f 446 444 362
f 446 362 361
f 447 303 445
f 304 303 447
f 448 361 360
f 448 446 361
f 449 304 447
f 305 304 449
f 450 448 360
f 450 360 359
f 451 305 449
f 451 306 305
f 452 450 359
f 452 359 358
f 453 306 451
f 453 307 306
f 454 358 357
f 454 452 358
f 455 307 453
f 455 308 307
f 456 357 356
f 456 454 357
f 457 308 455
f 457 309 308
f 458 356 355
f 458 456 356
f 459 309 457
f 460 355 354
f 460 458 355
f 461 309 459
f 461 311 310
f 461 310 309
f 462 354 353
f 462 460 354
f 463 311 461
f 464 353 352
f 464 462 353
f 465 311 463
f 465 313 312
f 465 312 311
f 466 352 351
f 466 464 352
f 467 313 465
f 467 314 313
f 468 466 351
f 468 351 350
f 469 314 467
f 469 315 314
f 470 468 350
f 470 350 349
f 471 315 469
f 471 316 315
f 472 470 349
f 472 349 348
f 473 316 471
f 473 317 316
f 474 472 348
f 474 348 347
f 475 317 473
f 475 318 317
f 476 474 347
f 476 347 346
f 477 318 475
f 477 319 318
f 478 346 345
f 478 476 346
f 479 319 477
f 479 320 319
f 480 345 344
f 480 478 345
f 481 320 479
f 481 321 320
f 482 344 343
f 482 480 344
f 483 321 481
f 483 322 321
f 484 482 343
f 484 343 342
f 485 322 483
f 486 342 341
f 486 484 342
f 487 322 485
f 487 324 323
f 487 323 322
f 488 486 341
f 488 341 340
f 489 324 487
f 489 325 324
f 490 488 340
f 490 340 339
f 491 325 489
f 491 326 325
f 492 339 338
f 492 490 339
f 493 326 491
f 493 327 326
f 494 492 338
f 494 338 337
f 495 327 493
f 495 328 327
f 496 494 337
f 496 337 336
f 497 328 495
f 497 329 328
f 498 496 336
f 498 336 335
f 499 329 497
f 500 498 335
f 500 335 334
f 501 329 499
f 501 330 329
f 502 500 334
f 502 334 333
f 503 330 501
f 503 332 331
f 503 331 330
f 504 332 503
f 504 502 333
f 504 333 332
f 407 409 60
f 407 60 56
f 405 56 52
f 405 407 56
f 403 52 48
f 403 48 44
f 403 405 52
f 401 44 40
f 401 403 44
f 399 401 40
f 397 40 36
f 397 399 40
f 395 36 32
f 395 397 36
f 393 32 28
f 393 395 32
f 391 28 24
f 391 24 20
f 391 393 28
f 389 391 20
f 387 389 20
f 387 20 16
f 385 387 16
f 385 16 12
f 385 12 9
f 383 385 9
f 381 383 9
f 381 9 4
f 379 381 4
f 379 4 1
f 380 379 1
f 380 1 3
f 382 380 3
f 382 3 7
f 384 382 7
f 384 7 11
f 386 384 11
f 386 11 15
f 386 15 19
f 388 386 19
f 390 388 19
f 390 19 23
f 392 390 23
f 392 23 27
f 394 27 31
f 394 392 27
f 396 31 35
f 396 394 31
f 396 35 39
f 398 39 43
f 398 396 39
f 400 398 43
f 402 43 47
f 402 47 51
f 402 400 43
f 404 402 51
f 406 51 55
f 406 404 51
f 408 55 59
f 408 406 55
f 410 59 63
f 410 63 67
f 410 408 59
f 412 410 67
f 414 67 71
f 414 71 75
f 414 412 67
f 416 414 75
f 418 75 79
f 418 416 75
f 420 79 83
f 420 83 87
f 420 418 79
f 422 420 87
f 422 87 91
f 424 422 91
f 424 91 95
f 426 424 95
f 428 426 95
f 428 95 99
f 430 428 99
f 430 99 103
f 430 103 107
f 432 430 107
f 432 107 111
f 434 432 111
f 436 434 111
f 436 111 115
f 436 115 118
f 437 436 118
f 439 437 118
f 439 118 122
f 441 439 122
f 441 122 126
f 441 126 130
f 443 441 130
f 443 130 134
f 445 443 134
f 447 445 134
f 447 134 138
f 447 138 142
f 449 447 142
f 449 142 146
f 451 449 146
f 451 146 150
f 453 451 150
f 455 453 150
f 455 150 154
f 455 154 158
f 457 455 158
f 459 457 158
f 459 158 162
f 459 162 165
f 461 459 165
f 463 165 170
f 463 170 173
f 463 461 165
f 465 463 173
f 467 173 178
f 467 178 182
f 467 465 173
f 469 467 182
f 471 469 182
f 471 182 186
f 471 186 190
f 473 471 190
f 473 190 194
f 475 473 194
f 477 475 194
f 477 194 198
f 479 477 198
f 479 198 202
f 479 202 206
f 481 479 206
f 481 206 210
f 483 481 210
f 485 483 210
f 485 210 214
f 487 485 214
f 487 214 217
f 487 217 222
f 489 487 222
f 489 222 226
f 491 489 226
f 491 226 230
f 493 491 230
f 495 234 238
f 495 493 230
f 495 230 234
f 497 495 238
f 499 238 242
f 499 242 245
f 499 497 238
f 501 245 249
f 501 499 245
f 503 501 249
f 504 249 252
f 504 503 249
f 502 252 247
f 502 247 243
f 502 504 252
f 500 502 243
f 498 243 240
f 498 240 236
f 498 500 243
f 496 498 236
f 494 236 232
f 494 232 228
f 494 496 236
f 492 494 228
f 490 228 224
f 490 224 220
f 490 492 228
f 488 490 220
f 488 220 215
f 486 488 215
f 484 486 215
f 484 215 212
f 484 212 208
f 482 208 204
f 482 484 208
f 480 482 204
f 478 204 200
f 478 200 196
f 478 480 204
f 476 478 196
f 474 196 192
f 474 192 188
f 474 476 196
f 472 188 184
f 472 474 188
f 470 472 184
f 468 184 180
f 468 470 184
f 466 180 176
f 466 468 180
f 464 176 171
f 464 466 176
f 462 171 168
f 462 464 171
f 460 168 163
f 460 462 168
f 458 163 160
f 458 160 156
f 458 460 163
f 456 458 156
f 454 156 152
f 454 456 156
f 452 152 148
f 452 148 144
f 452 454 152
f 450 452 144
f 448 144 140
f 448 450 144
f 446 140 136
f 446 448 140
f 444 136 131
f 444 446 136
f 442 131 127
f 442 444 131
f 440 127 123
f 440 123 119
f 440 442 127
f 438 440 119
f 435 438 119
f 435 119 113
f 433 435 113
f 433 113 109
f 433 109 104
f 431 433 104
f 429 431 104
f 429 104 100
f 427 429 100
f 427 100 96
f 427 96 92
f 425 427 92
f 423 425 92
f 423 92 88
f 421 423 88
f 421 88 85
f 421 85 80
f 419 421 80
f 417 419 80
f 417 80 77
f 417 77 72
f 415 417 72
f 413 415 72
f 413 72 68
f 413 68 64
f 411 413 64
f 409 64 60
f 409 411 64
