# smartdrone2 body-local mesh, millimetres
v -12.000000 14.000000 20.000000
v -8.543219 6.849505 20.000000
v -6.927329 8.480243 20.000000
v -5.006942 9.738227 20.000000
v -9.783583 4.917692 20.000000
v -2.866471 10.568159 20.000000
v -10.593902 2.769718 20.000000
v -0.600000 12.500000 20.000000
v -12.000000 0.500000 20.000000
v -0.600000 10.933560 20.000000
v -10.938556 0.500000 20.000000
v 0.600000 10.933562 20.000000
v 2.866477 10.568167 20.000000
v 0.600000 12.500000 20.000000
v 5.006956 9.738239 20.000000
v 12.000000 14.000000 20.000000
v 6.927349 8.480257 20.000000
v 8.543245 6.849517 20.000000
v 9.783615 4.917701 20.000000
v 10.593937 2.769723 20.000000
v 10.938592 0.500000 20.000000
v 12.000000 0.500000 20.000000
v -0.600000 12.500000 22.000000
v 0.600000 12.500000 22.000000
v 0.600000 10.500000 25.000000
v -0.600000 10.500000 25.000000
v 0.600000 9.931893 21.000018
v 0.600000 9.931893 25.000000
v 2.046226 9.735975 21.000020
v 3.476740 9.322605 21.000022
v 4.683938 8.776928 21.000024
v 6.213840 7.768813 21.000025
v 7.624549 6.390762 21.000025
v 8.834725 4.574545 21.000024
v 9.579668 2.684739 21.000022
v 9.820704 1.591428 21.000021
v 9.937434 0.500000 21.000011
v -9.756506 1.945195 20.999986
v -9.937429 0.500000 20.999983
v -9.358363 3.378928 20.999989
v -8.825564 4.592106 20.999992
v -7.831588 6.134229 20.999996
v -6.467660 7.559715 21.000001
v -4.661131 8.789121 21.000007
v -2.781647 9.552192 21.000011
v -1.691085 9.804143 21.000014
v -0.600000 9.931893 21.000016
v 9.114363 0.500000 25.982858
v 9.458183 0.500000 25.852068
v 9.289647 0.500000 25.935470
v 9.738314 0.500000 25.596785
v 9.613240 0.500000 25.736435
v 9.908432 0.500000 25.234428
v 9.839248 0.500000 25.431228
v 7.934261 0.500000 26.000000
v 9.937429 0.500000 25.000000
v 8.936023 0.500000 26.000000
v 10.147903 0.500000 17.234476
v 9.877234 0.500000 16.994684
v 9.671816 0.500000 16.697085
v 10.468093 0.500000 17.402524
v 9.543587 0.500000 16.358973
v 10.819195 0.500000 17.489063
v 11.180805 0.500000 17.489063
v 11.531907 0.500000 17.402524
v 12.445042 0.500000 19.949856
v 12.867767 0.500000 19.801938
v 7.934261 0.500000 13.500000
v 9.500000 0.500000 16.000000
v 9.543587 0.500000 15.641027
v 9.671816 0.500000 15.302915
v 11.852097 0.500000 17.234476
v 13.246980 0.500000 19.563663
v 13.563663 0.500000 19.246980
v 13.801938 0.500000 18.867767
v 13.949856 0.500000 18.445042
v 9.300000 0.500000 13.500000
v 9.877234 0.500000 15.005316
v 10.147903 0.500000 14.765524
v 10.468093 0.500000 14.597476
v 12.328184 0.500000 16.697085
v 14.000000 0.500000 18.000000
v 12.122766 0.500000 16.994684
v 12.456413 0.500000 16.358973
v 10.819195 0.500000 14.510937
v 12.500000 0.500000 16.000000
v 12.122766 0.500000 15.005316
v 14.000000 0.500000 14.500000
v 12.328184 0.500000 15.302915
v 12.456413 0.500000 15.641027
v 9.300000 0.500000 12.500000
v 12.000000 0.500000 12.500000
v 11.180805 0.500000 14.510937
v 11.531907 0.500000 14.597476
v 12.445042 0.500000 12.550144
v 11.852097 0.500000 14.765524
v 13.949856 0.500000 14.054958
v 13.801938 0.500000 13.632233
v 12.867767 0.500000 12.698062
v 13.246980 0.500000 12.936337
v 13.563663 0.500000 13.253020
v -9.654412 0.500000 25.696677
v -9.748036 0.500000 25.583392
v -9.558827 0.500000 25.782082
v -9.848323 0.500000 25.412116
v -9.892824 0.500000 25.292980
v -9.196440 0.500000 25.964655
v -9.390570 0.500000 25.890518
v -9.925715 0.500000 25.145699
v -9.937429 0.500000 25.000000
v -8.936023 0.500000 26.000000
v -7.934261 0.500000 26.000000
v -13.246980 0.500000 19.563663
v -11.852097 0.500000 17.234476
v -12.867767 0.500000 19.801938
v -13.563663 0.500000 19.246980
v -13.801938 0.500000 18.867767
v -13.949856 0.500000 18.445042
v -14.000000 0.500000 18.000000
v -12.122766 0.500000 16.994684
v -12.328184 0.500000 16.697085
v -12.445042 0.500000 19.949856
v -11.531907 0.500000 17.402524
v -12.456413 0.500000 16.358973
v -11.180805 0.500000 17.489063
v -14.000000 0.500000 14.500000
v -12.500000 0.500000 16.000000
v -10.819195 0.500000 17.489063
v -12.456413 0.500000 15.641027
v -10.468093 0.500000 17.402524
v -12.328184 0.500000 15.302915
v -10.147903 0.500000 17.234476
v -13.949856 0.500000 14.054958
v -12.122766 0.500000 15.005316
v -13.801938 0.500000 13.632233
v -9.877234 0.500000 16.994684
v -13.563663 0.500000 13.253020
v -11.852097 0.500000 14.765524
v -9.671816 0.500000 16.697085
v -13.246980 0.500000 12.936337
v -9.543587 0.500000 16.358973
v -12.867767 0.500000 12.698062
v -12.445042 0.500000 12.550144
v -11.531907 0.500000 14.597476
v -12.000000 0.500000 12.500000
v -11.180805 0.500000 14.510937
v -10.819195 0.500000 14.510937
v -9.300000 0.500000 13.500000
v -10.468093 0.500000 14.597476
v -10.147903 0.500000 14.765524
v -9.877234 0.500000 15.005316
v -9.671816 0.500000 15.302915
v -9.300000 0.500000 12.500000
v -7.934261 0.500000 13.500000
v -9.543587 0.500000 15.641027
v -9.500000 0.500000 16.000000
v 9.300000 0.500000 6.500000
v 12.000000 0.500000 7.500000
v 9.300000 0.500000 7.500000
v 9.877234 0.500000 4.994684
v 10.147903 0.500000 5.234476
v 7.934261 0.500000 6.500000
v 9.671816 0.500000 4.697085
v 10.468093 0.500000 5.402524
v 9.543587 0.500000 4.358973
v 10.819195 0.500000 5.489063
v 9.500000 0.500000 4.000000
v 11.180805 0.500000 5.489063
v 11.531907 0.500000 5.402524
v 12.445042 0.500000 7.449856
v 12.867767 0.500000 7.301938
v 11.852097 0.500000 5.234476
v 13.246980 0.500000 7.063663
v 13.563663 0.500000 6.746980
v 13.801938 0.500000 6.367767
v 12.122766 0.500000 4.994684
v 13.949856 0.500000 5.945042
v 9.671816 0.500000 3.302915
v 7.934261 0.500000 -0.200000
v 9.877234 0.500000 3.005316
v 14.000000 0.500000 5.500000
v 12.500000 0.500000 4.000000
v 12.456413 0.500000 4.358973
v 12.328184 0.500000 4.697085
v 6.781593 0.500000 -0.200000
v 6.781593 0.500000 -2.000000
v 9.787237 0.500000 0.000000
v 10.147903 0.500000 2.765524
v 10.468093 0.500000 2.597476
v 10.819195 0.500000 2.510937
v 8.785784 0.500000 -2.000000
v 9.787237 0.500000 -1.000000
v 9.775521 0.500000 -1.145703
v 9.046207 0.500000 -1.964657
v 9.742627 0.500000 -1.292987
v 9.597829 0.500000 -1.583400
v 9.698124 0.500000 -1.412123
v 9.240344 0.500000 -1.890523
v 9.408608 0.500000 -1.782090
v 9.504200 0.500000 -1.696684
v 12.000000 0.500000 -0.000000
v 11.180805 0.500000 2.510937
v 11.531907 0.500000 2.597476
v 14.000000 0.500000 2.000000
v 11.852097 0.500000 2.765524
v 12.122766 0.500000 3.005316
v 12.328184 0.500000 3.302915
v 12.456413 0.500000 3.641027
v 12.445042 0.500000 0.050144
v 13.949856 0.500000 1.554958
v 12.867767 0.500000 0.198062
v 13.801938 0.500000 1.132233
v 13.246980 0.500000 0.436337
v 13.563663 0.500000 0.753020
v 9.543587 0.500000 3.641027
v -13.949856 0.500000 5.945042
v -12.122766 0.500000 4.994684
v -13.801938 0.500000 6.367767
v -14.000000 0.500000 5.500000
v -12.867767 0.500000 7.301938
v -11.852097 0.500000 5.234476
v -12.445042 0.500000 7.449856
v -13.246980 0.500000 7.063663
v -13.563663 0.500000 6.746980
v -12.328184 0.500000 4.697085
v -11.531907 0.500000 5.402524
v -12.000000 0.500000 7.500000
v -12.456413 0.500000 4.358973
v -11.180805 0.500000 5.489063
v -12.500000 0.500000 4.000000
v -10.819195 0.500000 5.489063
v -14.000000 0.500000 2.000000
v -12.456413 0.500000 3.641027
v -9.300000 0.500000 6.500000
v -9.300000 0.500000 7.500000
v -10.468093 0.500000 5.402524
v -12.328184 0.500000 3.302915
v -10.147903 0.500000 5.234476
v -12.122766 0.500000 3.005316
v -9.877234 0.500000 4.994684
v -13.949856 0.500000 1.554958
v -11.852097 0.500000 2.765524
v -13.801938 0.500000 1.132233
v -9.671816 0.500000 4.697085
v -7.934261 0.500000 6.500000
v -13.563663 0.500000 0.753020
v -9.543587 0.500000 4.358973
v -13.246980 0.500000 0.436337
v -9.500000 0.500000 4.000000
v -12.867767 0.500000 0.198062
v -11.531907 0.500000 2.597476
v -12.445042 0.500000 0.050144
v -12.000000 0.500000 -0.000000
v -11.180805 0.500000 2.510937
v -10.819195 0.500000 2.510937
v -9.787237 0.500000 -0.000000
v -10.468093 0.500000 2.597476
v -10.147903 0.500000 2.765524
v -9.877234 0.500000 3.005316
v -9.689048 0.500000 -1.431236
v -9.588107 0.500000 -1.596795
v -9.758237 0.500000 -1.234433
v -9.787237 0.500000 -1.000000
v -7.934261 0.500000 -0.200000
v -9.671816 0.500000 3.302915
v -9.463026 0.500000 -1.736443
v -9.307960 0.500000 -1.852075
v -8.964129 0.500000 -1.982859
v -9.139418 0.500000 -1.935473
v -8.785784 0.500000 -2.000000
v -6.781593 0.500000 -2.000000
v -6.781593 0.500000 -0.200000
v -9.543587 0.500000 3.641027
v -12.500000 14.000000 4.000000
v -12.456413 14.000000 3.641027
v -12.328184 14.000000 3.302915
v -12.122766 14.000000 3.005316
v -11.852097 14.000000 2.765524
v -11.531907 14.000000 2.597476
v -11.180805 14.000000 2.510937
v -10.819195 14.000000 2.510937
v -10.468093 14.000000 2.597476
v -10.147903 14.000000 2.765524
v -9.877234 14.000000 3.005316
v -9.671816 14.000000 3.302915
v -9.543587 14.000000 3.641027
v -9.500000 14.000000 4.000000
v -9.543587 14.000000 4.358973
v -9.671816 14.000000 4.697085
v -9.877234 14.000000 4.994684
v -10.147903 14.000000 5.234476
v -10.468093 14.000000 5.402524
v -10.819195 14.000000 5.489063
v -11.180805 14.000000 5.489063
v -11.531907 14.000000 5.402524
v -11.852097 14.000000 5.234476
v -12.122766 14.000000 4.994684
v -12.328184 14.000000 4.697085
v -12.456413 14.000000 4.358973
v -11.852097 14.000000 17.234476
v -14.000000 14.000000 18.000000
v -13.949856 14.000000 18.445042
v -13.801938 14.000000 18.867767
v -13.563663 14.000000 19.246980
v -13.246980 14.000000 19.563663
v -12.867767 14.000000 19.801938
v -12.122766 14.000000 16.994684
v -12.328184 14.000000 16.697085
v -11.531907 14.000000 17.402524
v -12.445042 14.000000 19.949856
v -12.456413 14.000000 16.358973
v -11.180805 14.000000 17.489063
v -12.500000 14.000000 16.000000
v -14.000000 14.000000 14.500000
v -10.819195 14.000000 17.489063
v -12.456413 14.000000 15.641027
v -10.468093 14.000000 17.402524
v -12.328184 14.000000 15.302915
v -12.122766 14.000000 15.005316
v -13.801938 14.000000 13.632233
v -13.949856 14.000000 14.054958
v -11.852097 14.000000 14.765524
v -13.563663 14.000000 13.253020
v -13.246980 14.000000 12.936337
v -12.867767 14.000000 12.698062
v -12.445042 14.000000 12.550144
v -11.531907 14.000000 14.597476
v -7.350000 14.000000 17.500000
v -9.500000 14.000000 16.000000
v -9.543587 14.000000 16.358973
v -9.671816 14.000000 16.697085
v -9.877234 14.000000 16.994684
v -10.147903 14.000000 17.234476
v -12.000000 14.000000 12.500000
v -11.180805 14.000000 14.510937
v -10.819195 14.000000 14.510937
v -10.000000 14.000000 12.500000
v -10.468093 14.000000 14.597476
v -10.147903 14.000000 14.765524
v -7.350000 14.000000 15.000000
v -9.877234 14.000000 15.005316
v -9.671816 14.000000 15.302915
v -9.543587 14.000000 15.641027
v -9.554958 14.000000 12.449856
v -9.132233 14.000000 12.301938
v -8.753020 14.000000 12.063663
v -8.436337 14.000000 11.746980
v -3.851453 14.000000 14.150826
v -3.672747 14.000000 14.435235
v -3.962392 14.000000 13.833781
v -4.000000 14.000000 13.500000
v -8.000000 14.000000 10.500000
v -8.050144 14.000000 10.945042
v -8.198062 14.000000 11.367767
v -8.000000 14.000000 9.500000
v -14.000000 14.000000 5.500000
v -13.949856 14.000000 5.945042
v -13.801938 14.000000 6.367767
v -13.563663 14.000000 6.746980
v -13.246980 14.000000 7.063663
v -12.867767 14.000000 7.301938
v -12.445042 14.000000 7.449856
v -12.000000 14.000000 7.500000
v -10.000000 14.000000 7.500000
v -14.000000 14.000000 2.000000
v -9.554958 14.000000 7.550144
v -9.132233 14.000000 7.698062
v -13.801938 14.000000 1.132233
v -13.949856 14.000000 1.554958
v -13.563663 14.000000 0.753020
v -13.246980 14.000000 0.436337
v -12.867767 14.000000 0.198062
v -12.445042 14.000000 0.050144
v -7.350000 14.000000 5.000000
v -8.753020 14.000000 7.936337
v -8.436337 14.000000 8.253020
v -12.000000 14.000000 -0.000000
v -4.000000 14.000000 6.500000
v -8.198062 14.000000 8.632233
v -8.050144 14.000000 9.054958
v -3.962392 14.000000 6.166219
v -7.350000 14.000000 2.500000
v -3.851453 14.000000 5.849174
v -3.672747 14.000000 5.564765
v 7.350000 14.000000 17.500000
v 7.350000 14.000000 15.000000
v 4.000000 14.000000 13.500000
v 3.962392 14.000000 13.833781
v 3.851453 14.000000 14.150826
v 3.672747 14.000000 14.435235
v 10.147903 14.000000 17.234476
v 9.877234 14.000000 16.994684
v 9.671816 14.000000 16.697085
v 10.468093 14.000000 17.402524
v 9.543587 14.000000 16.358973
v 10.819195 14.000000 17.489063
v 9.500000 14.000000 16.000000
v 11.180805 14.000000 17.489063
v 9.543587 14.000000 15.641027
v 11.531907 14.000000 17.402524
v 12.445042 14.000000 19.949856
v 12.867767 14.000000 19.801938
v 9.671816 14.000000 15.302915
v 11.852097 14.000000 17.234476
v 13.246980 14.000000 19.563663
v 13.563663 14.000000 19.246980
v 9.877234 14.000000 15.005316
v 13.801938 14.000000 18.867767
v 13.949856 14.000000 18.445042
v 14.000000 14.000000 18.000000
v 12.328184 14.000000 16.697085
v 12.122766 14.000000 16.994684
v 12.456413 14.000000 16.358973
v 12.500000 14.000000 16.000000
v 8.436337 14.000000 11.746980
v 8.753020 14.000000 12.063663
v 9.132233 14.000000 12.301938
v 8.198062 14.000000 11.367767
v 8.050144 14.000000 10.945042
v 9.554958 14.000000 12.449856
v 10.147903 14.000000 14.765524
v 8.000000 14.000000 10.500000
v 10.000000 14.000000 12.500000
v 10.468093 14.000000 14.597476
v 10.819195 14.000000 14.510937
v 11.180805 14.000000 14.510937
v 8.000000 14.000000 9.500000
v 4.000000 14.000000 6.500000
v 8.050144 14.000000 9.054958
v 14.000000 14.000000 14.500000
v 12.122766 14.000000 15.005316
v 12.328184 14.000000 15.302915
v 12.456413 14.000000 15.641027
v 12.000000 14.000000 12.500000
v 11.531907 14.000000 14.597476
v 8.198062 14.000000 8.632233
v 13.949856 14.000000 14.054958
v 12.445042 14.000000 12.550144
v 11.852097 14.000000 14.765524
v 13.801938 14.000000 13.632233
v 12.867767 14.000000 12.698062
v 8.436337 14.000000 8.253020
v 13.246980 14.000000 12.936337
v 13.563663 14.000000 13.253020
v 7.350000 14.000000 5.000000
v 8.753020 14.000000 7.936337
v 3.672747 14.000000 5.564765
v 3.851453 14.000000 5.849174
v 9.132233 14.000000 7.698062
v 3.962392 14.000000 6.166219
v 9.877234 14.000000 4.994684
v 9.554958 14.000000 7.550144
v 10.147903 14.000000 5.234476
v 10.000000 14.000000 7.500000
v 9.671816 14.000000 4.697085
v 10.468093 14.000000 5.402524
v 9.543587 14.000000 4.358973
v 10.819195 14.000000 5.489063
v 9.500000 14.000000 4.000000
v 7.350000 14.000000 2.500000
v 11.180805 14.000000 5.489063
v 12.000000 14.000000 7.500000
v 9.543587 14.000000 3.641027
v 11.531907 14.000000 5.402524
v 12.445042 14.000000 7.449856
v 9.671816 14.000000 3.302915
v 11.852097 14.000000 5.234476
v 12.867767 14.000000 7.301938
v 13.246980 14.000000 7.063663
v 13.563663 14.000000 6.746980
v 9.877234 14.000000 3.005316
v 10.147903 14.000000 2.765524
v 13.801938 14.000000 6.367767
v 12.122766 14.000000 4.994684
v 10.468093 14.000000 2.597476
v 13.949856 14.000000 5.945042
v 14.000000 14.000000 5.500000
v 12.500000 14.000000 4.000000
v 12.456413 14.000000 4.358973
v 12.328184 14.000000 4.697085
v 14.000000 14.000000 2.000000
v 11.852097 14.000000 2.765524
v 12.122766 14.000000 3.005316
v 12.328184 14.000000 3.302915
v 12.456413 14.000000 3.641027
v 12.000000 14.000000 -0.000000
v 10.819195 14.000000 2.510937
v 11.180805 14.000000 2.510937
v 11.531907 14.000000 2.597476
v 13.949856 14.000000 1.554958
v 12.445042 14.000000 0.050144
v 13.801938 14.000000 1.132233
v 12.867767 14.000000 0.198062
v 13.563663 14.000000 0.753020
v 13.246980 14.000000 0.436337
v 2.500000 14.000000 15.000000
v 2.833781 14.000000 14.962392
v 3.150826 14.000000 14.851453
v 3.435235 14.000000 14.672747
v -2.500000 14.000000 15.000000
v -2.833781 14.000000 14.962392
v -3.150826 14.000000 14.851453
v -3.435235 14.000000 14.672747
v -2.500000 14.000000 5.000000
v -2.833781 14.000000 5.037608
v -3.150826 14.000000 5.148547
v -3.435235 14.000000 5.327253
v 2.500000 14.000000 5.000000
v 2.833781 14.000000 5.037608
v 3.150826 14.000000 5.148547
v 3.435235 14.000000 5.327253
v -10.000000 4.000000 12.500000
v -9.300000 2.500000 12.500000
v -9.000000 4.000000 12.500000
v -9.000000 2.500000 12.500000
v 10.000000 4.000000 12.500000
v 7.130239 3.515991 12.500000
v 6.870408 4.000000 12.500000
v 7.356025 3.015194 12.500000
v 9.300000 2.500000 12.500000
v 7.546688 2.500000 12.500000
v -7.130239 3.515991 12.500000
v -8.000000 4.000000 12.500000
v -6.870408 4.000000 12.500000
v -7.356025 3.015194 12.500000
v -8.000000 2.500000 12.500000
v -7.546688 2.500000 12.500000
v -9.300000 2.500000 13.500000
v -7.546688 2.500000 13.500000
v -9.300000 2.500000 6.500000
v -9.000000 2.500000 7.500000
v -9.300000 2.500000 7.500000
v -8.000000 2.500000 7.500000
v -7.546688 2.500000 6.500000
v -7.546688 2.500000 7.500000
v 9.300000 2.500000 13.500000
v 7.546688 2.500000 13.500000
v 9.300000 2.500000 6.500000
v 9.300000 2.500000 7.500000
v 7.546688 2.500000 7.500000
v 7.546688 2.500000 6.500000
v -7.862400 1.176929 13.500000
v -7.606777 2.310723 26.000000
v -7.732893 1.845229 13.500000
v -7.862400 1.176929 6.500000
v -6.871774 3.997652 26.000000
v -7.356025 3.015194 7.500000
v -7.606777 2.310723 -0.200000
v -7.732893 1.845229 6.500000
v -6.798270 4.121381 12.484944
v -6.725344 4.239357 12.438905
v -6.659606 4.341905 12.364816
v -6.610147 4.416824 12.275911
v -6.588276 4.449393 12.219134
v -6.571218 4.474556 12.157270
v -6.560202 4.490698 12.095209
v -5.768627 5.470415 26.000000
v -6.555430 4.497656 12.047519
v -6.553816 4.500000 12.000000
v -6.871774 3.997652 -0.200000
v -7.130239 3.515991 7.500000
v -6.870408 4.000000 7.500000
v -6.573184 4.471665 7.834199
v -6.560984 4.489556 7.899082
v -6.590957 4.445420 7.772936
v -6.617457 4.405864 7.708203
v -6.652077 4.353431 7.646325
v -6.691057 4.293264 7.595161
v -6.734381 4.224991 7.553530
v -6.780162 4.151119 7.523434
v -6.826036 4.075227 7.505798
v -5.768627 5.470415 -0.200000
v -6.553816 4.500000 8.000000
v -4.356437 6.650110 -0.200000
v -4.356437 6.650110 26.000000
v -2.035475 7.685008 10.000000
v -2.710858 7.473537 26.000000
v -2.006989 7.692595 10.338509
v -1.921140 7.714407 10.676871
v -1.815400 7.739931 10.926473
v -1.625121 7.782076 11.233308
v -0.920049 7.896582 26.000000
v -2.710858 7.473537 -0.200000
v -1.975810 7.700654 9.509403
v -1.819316 7.739013 9.081310
v -1.393254 7.826952 11.494014
v -1.603345 7.786597 8.738035
v -1.115135 7.871306 11.713850
v -0.795444 7.910105 11.886421
v -0.448883 7.937088 11.998359
v -0.095003 7.949389 12.047026
v 0.920049 7.896582 26.000000
v 0.255482 7.945711 12.032719
v -0.920049 7.896582 -0.200000
v -1.334709 7.837123 8.452956
v -1.006920 7.885904 8.219363
v -0.762253 7.913370 8.099747
v -0.469329 7.935913 8.006388
v -0.170333 7.948065 7.958088
v 0.090760 7.949442 7.952772
v 0.569841 7.929397 11.967051
v 0.825854 7.906984 11.873105
v 1.093504 7.874342 11.727939
v 1.332669 7.837469 11.548818
v 1.537566 7.799875 11.342704
v 1.715083 7.762742 11.102782
v 2.710858 7.473537 26.000000
v 1.859127 7.729560 10.834365
v 1.952040 7.706685 10.579636
v 0.920049 7.896582 -0.200000
v 0.402975 7.939543 7.991769
v 0.749213 7.914610 8.094509
v 0.994782 7.887448 8.212432
v 1.288745 7.844790 8.414107
v 1.563864 7.794636 8.688580
v 1.787808 7.746339 9.020888
v 2.026982 7.687305 10.183870
v 4.356437 6.650110 26.000000
v 2.710858 7.473537 -0.200000
v 1.945039 7.708445 9.396808
v 2.024663 7.687926 9.792314
v 4.356437 6.650110 -0.200000
v 6.553816 4.500000 12.000000
v 6.560984 4.489556 12.100918
v 5.768627 5.470415 26.000000
v 6.871774 3.997652 26.000000
v 6.573184 4.471665 12.165801
v 6.590957 4.445420 12.227064
v 5.768627 5.470415 -0.200000
v 6.617457 4.405864 12.291797
v 6.652077 4.353431 12.353675
v 6.553816 4.500000 10.400000
v 6.691057 4.293264 12.404839
v 6.553816 4.500000 9.600000
v 6.734381 4.224991 12.446470
v 6.780162 4.151119 12.476566
v 6.553816 4.500000 8.000000
v 6.555430 4.497656 7.952481
v 6.560202 4.490698 7.904791
v 6.826036 4.075227 12.494202
v 7.606777 2.310723 26.000000
v 6.798270 4.121381 7.515056
v 6.871774 3.997652 -0.200000
v 6.870408 4.000000 7.500000
v 6.725344 4.239357 7.561095
v 6.659606 4.341905 7.635184
v 6.610147 4.416824 7.724089
v 6.588276 4.449393 7.780866
v 6.571218 4.474556 7.842730
v 7.130239 3.515991 7.500000
v 7.356025 3.015194 7.500000
v 7.732893 1.845229 13.500000
v 7.862400 1.176929 13.500000
v 7.606777 2.310723 -0.200000
v 7.732893 1.845229 6.500000
v 7.862400 1.176929 6.500000
v 7.500000 2.636759 10.400000
v 7.239659 3.284789 10.400000
v 7.500000 2.636759 9.600000
v 7.239659 3.284789 9.600000
v 6.923451 3.907471 10.400000
v 6.923451 3.907471 9.600000
v -1.985641 6.734122 10.000000
v -1.949665 6.047664 10.000000
v -1.893011 6.047664 10.466585
v -1.893011 6.047664 9.533415
v -1.770468 6.998550 10.929213
v -1.726343 6.047664 10.906054
v -1.459345 6.047664 11.292867
v -1.135845 6.998550 11.645555
v -1.107536 6.047664 11.604543
v -0.691361 6.047664 11.822968
v -0.241013 6.998550 11.984920
v -0.235006 6.047664 11.935450
v 0.235006 6.047664 11.935450
v 0.709032 6.998550 11.869564
v 0.691361 6.047664 11.822968
v 1.107536 6.047664 11.604543
v 1.496646 6.998550 11.325913
v 1.459345 6.047664 11.292867
v 1.726343 6.047664 10.906054
v 1.941397 6.998550 10.478511
v 1.893011 6.047664 10.466585
v 1.949665 6.047664 10.000000
v 1.941397 6.998550 9.521489
v 1.893011 6.047664 9.533415
v 1.726343 6.047664 9.093946
v 1.496646 6.998550 8.674087
v 1.459345 6.047664 8.707133
v 1.107536 6.047664 8.395457
v 0.709032 6.998550 8.130436
v 0.691361 6.047664 8.177032
v 0.235006 6.047664 8.064550
v -0.241013 6.998550 8.015080
v -0.235006 6.047664 8.064550
v -0.691361 6.047664 8.177032
v -1.135845 6.998550 8.354445
v -1.107536 6.047664 8.395457
v -1.459345 6.047664 8.707133
v -1.770468 6.998550 9.070787
v -1.726343 6.047664 9.093946
v 1.914998 5.833963 10.000000
v 1.835151 5.632731 10.000000
v 1.166258 5.123435 10.000000
v 0.923400 5.100000 10.227598
v 0.951035 5.100000 10.000000
v 1.371393 5.192641 10.000000
v 0.923400 5.100000 9.772402
v 1.524286 5.374626 10.603451
v 1.556825 5.304375 10.000000
v 1.713865 5.453400 10.000000
v 0.842100 5.100000 10.441968
v 1.159224 5.374626 11.159224
v 0.711860 5.100000 10.630653
v 0.540250 5.100000 10.782687
v 0.603451 5.374626 11.524286
v 0.337242 5.100000 10.889234
v -0.603451 5.374626 11.524286
v -0.337242 5.100000 10.889234
v -0.540250 5.100000 10.782687
v -1.159224 5.374626 11.159224
v -0.711860 5.100000 10.630653
v -0.842100 5.100000 10.441968
v -1.524286 5.374626 10.603451
v -0.923400 5.100000 10.227598
v -1.524286 5.374626 9.396549
v -0.923400 5.100000 9.772402
v -0.842100 5.100000 9.558032
v -1.159224 5.374626 8.840776
v -0.711860 5.100000 9.369347
v -0.540250 5.100000 9.217313
v -0.603451 5.374626 8.475714
v -0.337242 5.100000 9.110766
v -0.114635 5.100000 9.055899
v -0.000000 5.374626 8.360610
v 0.114635 5.100000 9.055899
v 0.224427 5.694261 11.851472
v -0.071493 5.579739 11.803626
v -1.805043 5.579739 10.000000
v 0.534481 5.694261 8.213202
v 0.628088 5.374626 8.485700
v 0.374916 5.166029 8.746482
v 0.337242 5.100000 9.110766
v 0.540250 5.100000 9.217313
v 1.250211 5.579739 8.698020
v 0.931229 5.374626 8.650774
v 1.086864 5.374626 8.772675
v 1.526203 5.579739 9.036215
v 1.227119 5.374626 8.912904
v 0.901516 5.219935 8.895271
v 0.711860 5.100000 9.369347
v 1.349794 5.374626 9.069594
v 1.451594 5.374626 9.238112
v 1.140385 5.219935 9.144033
v 0.842100 5.100000 9.558032
v 1.583146 5.400003 9.483787
v 1.320064 5.186055 9.686097
v 0.056454 5.219935 11.424770
v 0.114635 5.100000 10.944101
v -0.114635 5.100000 10.944101
v -0.113726 5.219935 11.421346
v -1.425888 5.219935 10.000000
v -0.951035 5.100000 10.000000
v -0.497342 5.100000 10.561383
v -0.617238 5.100000 10.426049
v -0.348542 5.100000 10.664092
v -0.701262 5.100000 10.265954
v -0.179487 5.100000 10.728206
v -0.744532 5.100000 10.090403
v 0.000000 5.100000 10.750000
v -0.744532 5.100000 9.909597
v 0.179487 5.100000 10.728206
v -0.701262 5.100000 9.734046
v 0.348542 5.100000 10.664092
v -0.617238 5.100000 9.573951
v 0.497342 5.100000 10.561383
v -0.497342 5.100000 9.438617
v 0.617238 5.100000 10.426049
v -0.348542 5.100000 9.335908
v 0.701262 5.100000 10.265954
v -0.179487 5.100000 9.271794
v 0.744532 5.100000 10.090403
v -0.000000 5.100000 9.250000
v 0.744532 5.100000 9.909597
v 0.179487 5.100000 9.271794
v 0.701262 5.100000 9.734046
v 0.348542 5.100000 9.335908
v 0.617238 5.100000 9.573951
v 0.497342 5.100000 9.438617
v 0.000000 13.100000 10.750000
v -0.179487 13.100000 10.728206
v -0.348542 13.100000 10.664092
v -0.497342 13.100000 10.561383
v -0.617238 13.100000 10.426049
v -0.701262 13.100000 10.265954
v -0.744532 13.100000 10.090403
v -0.744532 13.100000 9.909597
v -0.701262 13.100000 9.734046
v -0.617238 13.100000 9.573951
v -0.497342 13.100000 9.438617
v -0.348542 13.100000 9.335908
v -0.179487 13.100000 9.271794
v -0.000000 13.100000 9.250000
v 0.179487 13.100000 9.271794
v 0.348542 13.100000 9.335908
v 0.497342 13.100000 9.438617
v 0.617238 13.100000 9.573951
v 0.701262 13.100000 9.734046
v 0.744532 13.100000 9.909597
v 0.744532 13.100000 10.090403
v 0.701262 13.100000 10.265954
v 0.617238 13.100000 10.426049
v 0.497342 13.100000 10.561383
v 0.348542 13.100000 10.664092
v 0.179487 13.100000 10.728206
v -8.000000 4.500000 9.100000
v -8.017993 4.500000 9.232328
v -8.040408 4.500000 9.100000
v -8.004503 4.500000 9.365862
v -8.000000 4.500000 8.000000
v -8.000000 4.500000 9.500000
v -8.000000 4.500000 10.500000
v -8.017993 4.500000 10.767672
v -8.000000 4.500000 10.900000
v -8.040408 4.500000 10.900000
v -8.004503 4.500000 10.634138
v -8.000000 4.500000 12.000000
v 8.000000 4.500000 10.750000
v 8.000000 4.500000 10.400000
v 8.015687 4.500000 10.750000
v 8.132639 4.500000 11.216213
v 8.357446 4.500000 11.641059
v 8.677124 4.500000 12.000000
v 8.677124 4.500000 8.000000
v 8.357446 4.500000 8.358941
v 8.132639 4.500000 8.783787
v 8.000000 4.500000 9.250000
v 8.015687 4.500000 9.250000
v 8.000000 4.500000 9.600000
v -8.000000 4.311745 12.390916
v -8.000000 4.450484 12.216942
v -8.000000 4.390916 12.311745
v -8.000000 4.216942 12.450484
v -8.000000 4.111260 12.487464
v -8.000000 4.487464 12.111260
v -8.000000 2.446410 11.500000
v -8.000000 2.792820 10.900000
v -8.000000 -0.553590 11.500000
v -8.000000 -1.900000 12.500000
v -8.000000 -1.900000 11.400000
v -8.000000 -1.400000 10.900000
v -8.000000 -0.900000 10.900000
v -8.000000 4.450484 7.783058
v -8.000000 4.487464 7.888740
v -8.000000 4.311745 7.609084
v -8.000000 4.390916 7.688255
v -8.000000 2.792820 9.100000
v -8.000000 4.000000 7.500000
v -8.000000 4.216942 7.549516
v -8.000000 4.111260 7.512536
v -8.000000 2.446410 8.500000
v -8.000000 -0.553590 8.500000
v -8.000000 -0.900000 9.100000
v -8.000000 -1.400000 9.100000
v -8.000000 -1.900000 8.600000
v -8.000000 -1.900000 7.500000
v -9.000000 -1.900000 11.400000
v -9.000000 -1.400000 10.900000
v -9.000000 -0.900000 10.900000
v -9.000000 -0.553590 11.500000
v -9.000000 2.446410 11.500000
v -9.000000 2.792820 10.900000
v -9.000000 6.997033 10.900000
v -8.040408 7.920000 10.900000
v -9.661503 4.167197 12.469192
v -9.321450 4.323293 12.381092
v -9.000000 7.920000 12.232051
v -9.000000 4.442891 12.232051
v -8.658739 7.920000 11.983583
v -8.377229 7.920000 11.669023
v -8.168012 7.920000 11.302384
v -9.000000 7.425279 11.625107
v -9.000000 7.149498 11.215309
v -8.751670 7.458516 11.399280
v -9.000000 4.210828 12.453378
v -9.000000 4.303749 12.397161
v -9.000000 4.382339 12.322206
v -9.000000 4.107961 12.488205
v -9.000000 -1.900000 12.500000
v -9.000000 4.442891 7.767949
v -9.000000 6.997033 9.100000
v -9.000000 7.149498 8.784691
v -9.000000 7.425279 8.374893
v -9.000000 7.920000 7.767949
v -9.000000 2.792820 9.100000
v -9.000000 4.210828 7.546622
v -9.000000 4.382339 7.677794
v -9.000000 4.303749 7.602839
v -9.000000 4.107961 7.511795
v -9.000000 4.000000 7.500000
v -9.000000 2.446410 8.500000
v -9.000000 -0.553590 8.500000
v -9.000000 -1.400000 9.100000
v -9.000000 -0.900000 9.100000
v -9.000000 -1.900000 8.600000
v -9.000000 -1.900000 7.500000
v -10.000000 4.000000 7.500000
v -9.661503 4.167197 7.530808
v -9.321450 4.323293 7.618908
v -9.162793 4.387206 7.683705
v -8.658739 7.920000 8.016417
v -8.377229 7.920000 8.330977
v -8.168012 7.920000 8.697616
v -8.040408 7.920000 9.100000
v -8.751670 7.458516 8.600720
v 10.000000 4.000000 7.500000
v 8.890152 4.471690 7.838044
v 9.122986 4.401653 7.703391
v 9.352745 4.309819 7.608144
v 9.678194 4.159129 7.527968
v 8.015687 7.984313 9.250000
v 8.000982 7.999018 9.437346
v 8.000000 8.000000 9.500000
v 8.003925 7.996075 9.374754
v 8.008829 7.991171 9.312285
v 9.000000 7.000000 9.250000
v 8.000000 8.000000 10.500000
v 9.000000 7.000000 10.750000
v 8.000982 7.999018 10.562654
v 8.003925 7.996075 10.625246
v 8.008829 7.991171 10.687715
v 8.015687 7.984313 10.750000
v 9.538475 4.225734 12.444180
v 9.139246 4.395779 12.304612
v 8.898116 4.469818 12.167204
v 8.000000 0.492820 10.750000
v 9.000000 0.492820 10.750000
v 9.000000 -0.653590 8.650000
v 9.000000 0.146410 8.650000
v 9.000000 0.492820 9.250000
v 9.000000 -1.000000 9.250000
v 9.000000 -1.000000 10.750000
v 9.000000 -0.653590 11.350000
v 9.000000 0.146410 11.350000
v 8.000000 0.492820 9.250000
v 8.000000 2.636759 9.600000
v 8.000000 2.636759 10.400000
v 8.000000 -0.653590 8.650000
v 8.000000 -1.000000 9.250000
v 8.000000 0.146410 8.650000
v 8.000000 -1.000000 10.750000
v 8.000000 -0.653590 11.350000
v 8.000000 0.146410 11.350000
v -5.941143 7.793768 -0.000000
v -7.480498 6.331047 -0.000000
v -8.668636 4.571078 -0.000000
v -4.122847 8.890564 -0.000000
v -9.449774 2.596493 -0.000000
v -2.110980 9.569941 -0.000000
v 0.000000 9.800000 -0.000000
v 2.110980 9.569941 -0.000000
v 4.122847 8.890564 -0.000000
v 5.941143 7.793768 -0.000000
v 7.480498 6.331047 -0.000000
v 8.668636 4.571078 -0.000000
v 9.449774 2.596493 0.000000
v -9.449774 2.596493 -1.000000
v -8.668636 4.571078 -1.000000
v -7.480498 6.331047 -1.000000
v -5.941143 7.793768 -1.000000
v -4.122847 8.890564 -1.000000
v -2.110980 9.569941 -1.000000
v -0.000000 9.800000 -1.000000
v 2.110980 9.569941 -1.000000
v 4.122847 8.890564 -1.000000
v 5.941143 7.793768 -1.000000
v 7.480498 6.331047 -1.000000
v 8.668636 4.571078 -1.000000
v 9.449774 2.596493 -1.000000
v -9.422845 2.589094 -1.234677
v -9.364055 2.572940 -1.412177
v -9.268239 2.546613 -1.584023
v -9.137579 2.510712 -1.736686
v -8.988803 2.469833 -1.852980
v -8.826007 2.425102 -1.935580
v -8.433140 2.514388 -2.000000
v -8.657409 2.378776 -1.983982
v -8.643933 4.558052 -1.234677
v -8.590002 4.529614 -1.412177
v -8.502107 4.483265 -1.584023
v -8.382247 4.420062 -1.736686
v -8.245769 4.348095 -1.852980
v -7.625068 4.392987 -2.000000
v -8.096431 4.269347 -1.935580
v -7.941769 4.187792 -1.983982
v -7.459181 6.313006 -1.234677
v -7.412642 6.273618 -1.412177
v -7.336794 6.209425 -1.584023
v -7.112745 6.700916 -1.234677
v -7.233362 6.121886 -1.736686
v -7.068368 6.659108 -1.412177
v -7.115590 6.022211 -1.852980
v -6.996042 6.590970 -1.584023
v -6.986720 5.913143 -1.935580
v -6.897414 6.498053 -1.736686
v -6.853257 5.800188 -1.983982
v -6.405207 6.034345 -2.000000
v -6.785112 6.392253 -1.852980
v -6.662227 6.276483 -1.935580
v -6.534963 6.156587 -1.983982
v -5.924213 7.771558 -1.234677
v -5.887251 7.723070 -1.412177
v -5.827011 7.644046 -1.584023
v -5.744864 7.536283 -1.736686
v -5.374014 8.161703 -1.234677
v -5.651327 7.413578 -1.852980
v -5.340485 8.110780 -1.412177
v -5.548976 7.279311 -1.935580
v -5.285840 8.027789 -1.584023
v -5.442978 7.140259 -1.983982
v -4.839436 7.349820 -2.000000
v -5.211322 7.914616 -1.736686
v -5.126472 7.785752 -1.852980
v -5.033627 7.644744 -1.935580
v -4.937472 7.498711 -1.983982
v -4.111099 8.865229 -1.234677
v -4.085449 8.809917 -1.412177
v -4.043645 8.719772 -1.584023
v -3.986640 8.596844 -1.736686
v -3.921730 8.456872 -1.852980
v -3.345062 9.181720 -1.234677
v -3.850704 8.303710 -1.935580
v -3.324191 9.124434 -1.412177
v -3.777146 8.145089 -1.983982
v -3.012313 8.268372 -2.000000
v -3.290177 9.031070 -1.584023
v -3.243794 8.903753 -1.736686
v -3.190979 8.758784 -1.852980
v -3.133187 8.600154 -1.935580
v -3.073336 8.435871 -1.983982
v -2.104964 9.542670 -1.234677
v -2.091831 9.483131 -1.412177
v -2.070427 9.386098 -1.584023
v -2.041239 9.253776 -1.736686
v -2.008004 9.103108 -1.852980
v -1.135461 9.705882 -1.234677
v -1.971637 8.938242 -1.935580
v -1.128376 9.645326 -1.412177
v -1.933974 8.767500 -1.983982
v -1.022511 8.740393 -2.000000
v -1.116830 9.546632 -1.584023
v -1.101086 9.412047 -1.736686
v -1.083158 9.258802 -1.852980
v -1.063541 9.091116 -1.935580
v -0.000000 9.772073 -1.234677
v -1.043225 8.917454 -1.983982
v -0.000000 9.711104 -1.412177
v -0.000000 9.611737 -1.584023
v -0.000000 9.476234 -1.736686
v -0.000000 9.321944 -1.852980
v -0.000000 9.153115 -1.935580
v 1.135461 9.705882 -1.234677
v -0.000000 8.978268 -1.983982
v 1.022511 8.740393 -2.000000
v 1.128376 9.645326 -1.412177
v 1.116830 9.546632 -1.584023
v 1.101086 9.412047 -1.736686
v 1.083158 9.258802 -1.852980
v 2.104964 9.542670 -1.234677
v 1.063541 9.091116 -1.935580
v 2.091831 9.483131 -1.412177
v 1.043225 8.917454 -1.983982
v 2.070427 9.386098 -1.584023
v 2.041239 9.253776 -1.736686
v 2.008004 9.103108 -1.852980
v 1.971637 8.938242 -1.935580
v 1.933974 8.767500 -1.983982
v 3.012313 8.268372 -2.000000
v 3.345062 9.181720 -1.234677
v 3.324191 9.124434 -1.412177
v 3.290177 9.031070 -1.584023
v 3.243794 8.903753 -1.736686
v 3.190979 8.758784 -1.852980
v 4.111099 8.865229 -1.234677
v 3.133187 8.600154 -1.935580
v 4.085449 8.809917 -1.412177
v 3.073336 8.435871 -1.983982
v 4.043645 8.719772 -1.584023
v 3.986640 8.596844 -1.736686
v 3.921730 8.456872 -1.852980
v 3.850704 8.303710 -1.935580
v 3.777146 8.145089 -1.983982
v 4.839436 7.349820 -2.000000
v 5.374014 8.161703 -1.234677
v 5.340485 8.110780 -1.412177
v 5.285840 8.027789 -1.584023
v 5.211322 7.914616 -1.736686
v 5.924213 7.771558 -1.234677
v 5.126472 7.785752 -1.852980
v 5.887251 7.723070 -1.412177
v 5.033627 7.644744 -1.935580
v 5.827011 7.644046 -1.584023
v 4.937472 7.498711 -1.983982
v 5.744864 7.536283 -1.736686
v 5.651327 7.413578 -1.852980
v 5.548976 7.279311 -1.935580
v 5.442978 7.140259 -1.983982
v 6.405207 6.034345 -2.000000
v 7.112745 6.700916 -1.234677
v 7.068368 6.659108 -1.412177
v 6.996042 6.590970 -1.584023
v 7.459181 6.313006 -1.234677
v 6.897414 6.498053 -1.736686
v 7.412642 6.273618 -1.412177
v 6.785112 6.392253 -1.852980
v 7.336794 6.209425 -1.584023
v 6.662227 6.276483 -1.935580
v 7.233362 6.121886 -1.736686
v 6.534963 6.156587 -1.983982
v 7.115590 6.022211 -1.852980
v 6.986720 5.913143 -1.935580
v 6.853257 5.800188 -1.983982
v 7.625068 4.392987 -2.000000
v 8.467355 4.878249 -1.234677
v 8.414526 4.847813 -1.412177
v 8.328427 4.798209 -1.584023
v 8.211015 4.730565 -1.736686
v 8.077325 4.653543 -1.852980
v 7.931037 4.569263 -1.935580
v 7.779535 4.481979 -1.983982
v 9.364689 2.792134 -1.234677
v 9.306261 2.774714 -1.412177
v 9.211037 2.746322 -1.584023
v 9.081183 2.707605 -1.736686
v 8.933325 2.663521 -1.852980
v 8.771534 2.615282 -1.935580
v 8.603977 2.565324 -1.983982
v 8.433140 2.514388 -2.000000
v -4.907229 4.707345 -2.000000
v -3.702905 5.703376 -2.000000
v -5.852346 3.462665 -2.000000
v -2.302987 6.398144 -2.000000
v -6.488332 2.035081 -2.000000
v -0.781421 6.754952 -2.000000
v 0.781421 6.754952 -2.000000
v 2.302987 6.398144 -2.000000
v 3.702905 5.703376 -2.000000
v 4.907229 4.707345 -2.000000
v 5.852346 3.462665 -2.000000
v 6.488332 2.035081 -2.000000
v -6.488332 2.035081 -0.200000
v -5.852346 3.462665 -0.200000
v -4.907229 4.707345 -0.200000
v -3.702905 5.703376 -0.200000
v -2.302987 6.398144 -0.200000
v -0.781421 6.754952 -0.200000
v 0.781421 6.754952 -0.200000
v 2.302987 6.398144 -0.200000
v 3.702905 5.703376 -0.200000
v 4.907229 4.707345 -0.200000
v 5.852346 3.462665 -0.200000
v 6.488332 2.035081 -0.200000
v -4.924668 7.473295 26.000000
v -6.517538 6.133857 26.000000
v -3.065510 8.408635 26.000000
v -7.757989 4.462746 26.000000
v -1.040592 8.889301 26.000000
v -8.578948 2.550324 26.000000
v 1.040592 8.889301 26.000000
v 3.065510 8.408635 26.000000
v 4.924668 7.473295 26.000000
v 6.517538 6.133857 26.000000
v 7.757989 4.462746 26.000000
v 8.578948 2.550324 26.000000
v 9.618464 2.547088 25.000000
v -9.618464 2.547088 25.000000
v 9.591469 2.539940 25.234672
v 9.532532 2.524332 25.412170
v 9.436480 2.498897 25.584014
v 9.305494 2.464210 25.736679
v 9.156347 2.424714 25.852973
v 8.993141 2.381495 25.935577
v 8.824117 2.336735 25.983981
v 8.857555 4.471162 25.234672
v 8.882484 4.483746 25.000000
v 8.803128 4.443688 25.412170
v 8.714425 4.398912 25.584014
v 8.600598 4.947452 25.234672
v 7.761400 6.226008 25.000000
v 8.593462 4.337852 25.736679
v 8.547750 4.917052 25.412170
v 8.455727 4.268325 25.852973
v 8.461620 4.867506 25.584014
v 8.305009 4.192245 25.935577
v 8.344167 4.799941 25.736679
v 8.148919 4.113453 25.983981
v 8.210427 4.723008 25.852973
v 8.064081 4.638824 25.935577
v 7.912519 4.551639 25.983981
v 7.739617 6.208534 25.234672
v 7.692059 6.170385 25.412170
v 7.614552 6.108210 25.584014
v 7.508856 6.023424 25.736679
v 7.225419 6.800065 25.234672
v 6.303815 7.698338 25.000000
v 7.388505 5.926881 25.852973
v 7.181021 6.758281 25.412170
v 7.256809 5.821238 25.935577
v 7.108663 6.690183 25.584014
v 7.120420 5.711830 25.983981
v 7.009990 6.597318 25.736679
v 6.897634 6.491577 25.852973
v 6.774688 6.375868 25.935577
v 6.647360 6.256036 25.983981
v 6.286123 7.676733 25.234672
v 6.247497 7.629561 25.412170
v 6.184545 7.552684 25.584014
v 6.098699 7.447847 25.736679
v 6.000950 7.328474 25.852973
v 5.893987 7.197848 25.935577
v 5.459545 8.284983 25.234672
v 4.572925 8.836903 25.000000
v 5.783211 7.062567 25.983981
v 5.425998 8.234074 25.412170
v 5.371324 8.151105 25.584014
v 5.296766 8.037962 25.736679
v 5.211870 7.909130 25.852973
v 5.118971 7.768155 25.935577
v 4.560091 8.812102 25.234672
v 5.022762 7.622155 25.983981
v 4.532071 8.757954 25.412170
v 4.486404 8.669707 25.584014
v 4.424130 8.549364 25.736679
v 4.353220 8.412336 25.852973
v 4.275627 8.262391 25.935577
v 4.195268 8.107102 25.983981
v 3.398460 9.321912 25.234672
v 2.643774 9.592339 25.000000
v 3.377578 9.264631 25.412170
v 3.343544 9.171278 25.584014
v 3.297134 9.043974 25.736679
v 2.636354 9.565417 25.234672
v 3.244287 8.899018 25.852973
v 2.620154 9.506641 25.412170
v 3.186460 8.740399 25.935577
v 2.593753 9.410849 25.584014
v 3.126571 8.576126 25.983981
v 2.557750 9.280219 25.736679
v 2.516754 9.131477 25.852973
v 2.471895 8.968714 25.935577
v 2.425436 8.800150 25.983981
v 1.153613 9.854783 25.234672
v 1.146524 9.794228 25.412170
v 1.134972 9.695539 25.584014
v 0.598316 9.904019 25.234672
v 0.200108 9.947988 25.000000
v 1.119217 9.560958 25.736679
v 0.594640 9.843162 25.412170
v 1.101279 9.407715 25.852973
v 0.588648 9.743979 25.584014
v 1.081649 9.240029 25.935577
v 0.580477 9.608725 25.736679
v 1.061320 9.066365 25.983981
v -0.199546 9.920068 25.234672
v -0.200108 9.947988 25.000000
v -0.600000 9.931893 25.000000
v 0.571173 9.454718 25.852973
v -0.198320 9.859112 25.412170
v 0.560992 9.286193 25.935577
v -0.196322 9.759769 25.584014
v 0.550449 9.111662 25.983981
v -0.193597 9.624296 25.736679
v -0.190494 9.470039 25.852973
v -0.187098 9.301241 25.935577
v -1.146524 9.794228 25.412170
v -2.643774 9.592339 25.000000
v -0.183582 9.126427 25.983981
v -1.134972 9.695539 25.584014
v -1.119217 9.560958 25.736679
v -1.101279 9.407715 25.852973
v -1.081649 9.240029 25.935577
v -1.061320 9.066365 25.983981
v -2.636354 9.565417 25.234672
v -2.620154 9.506641 25.412170
v -2.593753 9.410849 25.584014
v -2.557750 9.280219 25.736679
v -3.398460 9.321912 25.234672
v -4.572925 8.836903 25.000000
v -2.516754 9.131477 25.852973
v -3.377578 9.264631 25.412170
v -2.471895 8.968714 25.935577
v -3.343544 9.171278 25.584014
v -2.425436 8.800150 25.983981
v -3.297134 9.043974 25.736679
v -3.244287 8.899018 25.852973
v -3.186460 8.740399 25.935577
v -3.126571 8.576126 25.983981
v -4.560091 8.812102 25.234672
v -4.532071 8.757954 25.412170
v -4.486404 8.669707 25.584014
v -4.424130 8.549364 25.736679
v -4.353220 8.412336 25.852973
v -4.275627 8.262391 25.935577
v -5.459545 8.284983 25.234672
v -6.303815 7.698338 25.000000
v -4.195268 8.107102 25.983981
v -5.425998 8.234074 25.412170
v -5.371324 8.151105 25.584014
v -5.296766 8.037962 25.736679
v -5.211870 7.909130 25.852973
v -5.118971 7.768155 25.935577
v -6.286123 7.676733 25.234672
v -5.022762 7.622155 25.983981
v -6.247497 7.629561 25.412170
v -6.184545 7.552684 25.584014
v -6.098699 7.447847 25.736679
v -6.000950 7.328474 25.852973
v -5.893987 7.197848 25.935577
v -5.783211 7.062567 25.983981
v -7.225419 6.800065 25.234672
v -7.761400 6.226008 25.000000
v -7.181021 6.758281 25.412170
v -7.108663 6.690183 25.584014
v -7.009990 6.597318 25.736679
v -7.739617 6.208534 25.234672
v -6.897634 6.491577 25.852973
v -7.692059 6.170385 25.412170
v -6.774688 6.375868 25.935577
v -7.614552 6.108210 25.584014
v -6.647360 6.256036 25.983981
v -7.508856 6.023424 25.736679
v -7.388505 5.926881 25.852973
v -7.256809 5.821238 25.935577
v -7.120420 5.711830 25.983981
v -8.600598 4.947452 25.234672
v -8.882484 4.483746 25.000000
v -8.547750 4.917052 25.412170
v -8.461620 4.867506 25.584014
v -8.857555 4.471162 25.234672
v -8.344167 4.799941 25.736679
v -8.803128 4.443688 25.412170
v -8.210427 4.723008 25.852973
v -8.714425 4.398912 25.584014
v -8.064081 4.638824 25.935577
v -8.593462 4.337852 25.736679
v -7.912519 4.551639 25.983981
v -8.455727 4.268325 25.852973
v -8.305009 4.192245 25.935577
v -8.148919 4.113453 25.983981
v -9.510722 2.827319 25.234672
v -9.452282 2.809946 25.412170
v -9.357038 2.781632 25.584014
v -9.227155 2.743021 25.736679
v -9.079263 2.699056 25.852973
v -8.917431 2.650947 25.935577
v -8.749831 2.601123 25.983981
v 4.000000 16.000000 6.500000
v 4.000000 16.000000 13.500000
v 3.962392 16.000000 13.833781
v 3.851453 16.000000 14.150826
v 3.672747 16.000000 14.435235
v 3.435235 16.000000 14.672747
v 3.150826 16.000000 14.851453
v 2.833781 16.000000 14.962392
v 2.500000 16.000000 15.000000
v -7.350000 8.183978 15.000000
v -5.491315 9.531288 15.000000
v -3.393465 10.463479 15.000000
v -1.147819 10.939950 15.000000
v 1.147819 10.939950 15.000000
v 3.393465 10.463479 15.000000
v -2.500000 16.000000 15.000000
v 5.491315 9.531288 15.000000
v 7.350000 8.183978 15.000000
v 7.350000 8.183978 17.500000
v -7.350000 8.183978 17.500000
v -5.491315 9.531288 17.500000
v -3.393465 10.463479 17.500000
v -1.147819 10.939950 17.500000
v 1.147819 10.939950 17.500000
v 3.393465 10.463479 17.500000
v 5.491315 9.531288 17.500000
v -2.833781 16.000000 14.962392
v -3.150826 16.000000 14.851453
v -3.435235 16.000000 14.672747
v -3.672747 16.000000 14.435235
v -3.851453 16.000000 14.150826
v -3.962392 16.000000 13.833781
v -4.000000 16.000000 13.500000
v -4.000000 16.000000 6.500000
v -3.962392 16.000000 6.166219
v -3.851453 16.000000 5.849174
v -3.672747 16.000000 5.564765
v -3.435235 16.000000 5.327253
v -3.150826 16.000000 5.148547
v -2.833781 16.000000 5.037608
v -2.500000 16.000000 5.000000
v 7.350000 8.183978 5.000000
v 5.491315 9.531288 5.000000
v 3.393465 10.463479 5.000000
v 1.147819 10.939950 5.000000
v -1.147819 10.939950 5.000000
v -3.393465 10.463479 5.000000
v 2.500000 16.000000 5.000000
v -5.491315 9.531288 5.000000
v -7.350000 8.183978 5.000000
v 2.833781 16.000000 5.037608
v 3.150826 16.000000 5.148547
v 3.435235 16.000000 5.327253
v 3.672747 16.000000 5.564765
v 3.851453 16.000000 5.849174
v 3.962392 16.000000 6.166219
v -1.935235 16.000000 13.172747
v -2.172747 16.000000 12.935235
v -1.650826 16.000000 13.351453
v -2.351453 16.000000 12.650826
v -1.333781 16.000000 13.462392
v -2.462392 16.000000 12.333781
v -1.000000 16.000000 13.500000
v -2.500000 16.000000 12.000000
v 1.000000 16.000000 13.500000
v 1.333781 16.000000 13.462392
v 1.650826 16.000000 13.351453
v 1.935235 16.000000 13.172747
v 2.172747 16.000000 12.935235
v -2.500000 16.000000 8.000000
v -2.462392 16.000000 7.666219
v -2.351453 16.000000 7.349174
v 2.462392 16.000000 12.333781
v 2.351453 16.000000 12.650826
v 2.500000 16.000000 12.000000
v -2.172747 16.000000 7.064765
v -1.935235 16.000000 6.827253
v -1.650826 16.000000 6.648547
v -1.333781 16.000000 6.537608
v -1.000000 16.000000 6.500000
v 1.000000 16.000000 6.500000
v 2.500000 16.000000 8.000000
v 1.333781 16.000000 6.537608
v 1.650826 16.000000 6.648547
v 1.935235 16.000000 6.827253
v 2.172747 16.000000 7.064765
v 2.351453 16.000000 7.349174
v 2.462392 16.000000 7.666219
v 1.923880 15.500000 7.617317
v 1.500000 15.000000 8.000000
v 1.450484 15.000000 7.783058
v 1.390916 15.000000 7.688255
v 1.487464 15.000000 7.888740
v 1.707107 15.500000 7.292893
v 1.311745 15.000000 7.609084
v 1.000000 15.000000 7.500000
v 1.382683 15.500000 7.076120
v 1.111260 15.000000 7.512536
v 1.216942 15.000000 7.549516
v -1.000000 15.000000 12.500000
v -1.216942 15.000000 12.450484
v -1.111260 15.000000 12.487464
v -1.311745 15.000000 12.390916
v -1.390916 15.000000 12.311745
v -1.450484 15.000000 12.216942
v -1.487464 15.000000 12.111260
v -1.500000 15.000000 12.000000
v 1.500000 15.000000 12.000000
v 1.000000 15.000000 12.500000
v 1.450484 15.000000 12.216942
v 1.487464 15.000000 12.111260
v 1.390916 15.000000 12.311745
v 1.311745 15.000000 12.390916
v 1.216942 15.000000 12.450484
v 1.111260 15.000000 12.487464
v -1.500000 15.000000 8.000000
v -1.450484 15.000000 7.783058
v -1.487464 15.000000 7.888740
v -1.390916 15.000000 7.688255
v -1.311745 15.000000 7.609084
v -1.216942 15.000000 7.549516
v -1.111260 15.000000 7.512536
v -1.000000 15.000000 7.500000
v 1.382683 15.500000 12.923880
v 1.707107 15.500000 12.707107
v 1.923880 15.500000 12.382683
v -1.923880 15.500000 12.382683
v -1.707107 15.500000 12.707107
v -1.382683 15.500000 12.923880
v -1.382683 15.500000 7.076120
v -1.707107 15.500000 7.292893
v -1.923880 15.500000 7.617317
v -7.350000 8.183978 2.500000
v 7.350000 8.183978 2.500000
v 5.491315 9.531288 2.500000
v 3.393465 10.463479 2.500000
v 1.147819 10.939950 2.500000
v -1.147819 10.939950 2.500000
v -3.393465 10.463479 2.500000
v -5.491315 9.531288 2.500000
f 1 2 3
f 3 4 1
f 1 5 2
f 4 6 1
f 1 7 5
f 6 8 1
f 1 9 7
f 6 10 8
f 9 11 7
f 12 13 14
f 15 16 13
f 14 16 8
f 8 16 1
f 13 16 14
f 15 17 16
f 17 18 16
f 18 19 16
f 19 20 16
f 21 22 20
f 20 22 16
f 8 23 24
f 8 24 14
f 25 24 23
f 25 23 26
f 27 25 28
f 24 25 27
f 12 24 27
f 14 24 12
f 29 12 27
f 13 29 30
f 13 12 29
f 15 30 31
f 15 13 30
f 17 31 32
f 17 15 31
f 33 17 32
f 18 17 33
f 34 18 33
f 19 18 34
f 35 19 34
f 20 35 36
f 20 19 35
f 21 36 37
f 21 20 36
f 38 11 39
f 7 38 40
f 7 11 38
f 5 40 41
f 5 7 40
f 2 41 42
f 2 5 41
f 43 2 42
f 3 2 43
f 44 3 43
f 4 3 44
f 45 4 44
f 6 45 46
f 6 4 45
f 10 46 47
f 10 6 46
f 48 49 50
f 49 51 52
f 51 53 54
f 48 53 49
f 49 53 51
f 55 56 57
f 57 56 48
f 48 56 53
f 55 37 56
f 37 58 21
f 59 58 37
f 37 60 59
f 58 61 21
f 37 62 60
f 61 63 21
f 21 64 22
f 63 64 21
f 64 65 22
f 66 65 67
f 22 65 66
f 37 68 62
f 69 68 70
f 70 68 71
f 62 68 69
f 55 68 37
f 65 72 67
f 73 72 74
f 67 72 73
f 72 75 74
f 72 76 75
f 68 77 71
f 71 77 78
f 78 77 79
f 77 80 79
f 81 82 83
f 83 82 72
f 72 82 76
f 81 84 82
f 77 85 80
f 84 86 82
f 87 88 89
f 86 88 82
f 89 88 90
f 90 88 86
f 91 92 77
f 85 92 93
f 93 92 94
f 77 92 85
f 94 95 96
f 92 95 94
f 87 97 88
f 96 98 87
f 87 98 97
f 95 99 96
f 99 100 96
f 96 101 98
f 100 101 96
f 102 103 104
f 105 106 103
f 104 107 108
f 103 107 104
f 106 109 103
f 103 109 107
f 110 111 109
f 109 111 107
f 110 112 111
f 110 39 112
f 113 114 115
f 116 114 113
f 117 114 116
f 118 114 117
f 119 114 118
f 120 114 119
f 119 121 120
f 122 123 9
f 115 123 122
f 114 123 115
f 119 124 121
f 123 125 9
f 9 125 11
f 126 127 119
f 119 127 124
f 125 128 11
f 126 129 127
f 128 130 11
f 126 131 129
f 11 132 39
f 130 132 11
f 133 134 126
f 135 134 133
f 126 134 131
f 132 136 39
f 137 138 135
f 135 138 134
f 136 139 39
f 137 140 138
f 139 141 39
f 140 142 138
f 138 143 144
f 142 143 138
f 144 145 146
f 146 145 147
f 143 145 144
f 147 148 149
f 149 148 150
f 150 148 151
f 151 148 152
f 145 148 147
f 145 153 148
f 39 154 112
f 141 154 39
f 152 154 155
f 155 154 156
f 156 154 141
f 148 154 152
f 157 158 159
f 160 161 157
f 162 163 157
f 157 163 160
f 161 164 157
f 162 165 163
f 157 166 158
f 164 166 157
f 162 167 165
f 166 168 158
f 158 169 170
f 168 169 158
f 171 172 173
f 170 172 171
f 169 172 170
f 172 174 173
f 172 175 174
f 176 175 172
f 176 177 175
f 178 179 180
f 176 181 177
f 182 181 183
f 183 181 184
f 184 181 176
f 185 186 179
f 179 187 180
f 180 187 188
f 188 187 189
f 189 187 190
f 186 191 179
f 191 192 179
f 179 192 187
f 191 193 192
f 191 194 193
f 195 196 197
f 193 196 195
f 194 196 193
f 198 199 194
f 194 199 196
f 199 200 196
f 187 201 190
f 190 201 202
f 202 201 203
f 182 204 181
f 205 204 206
f 206 204 207
f 207 204 208
f 208 204 182
f 201 209 203
f 205 210 204
f 203 211 205
f 209 211 203
f 205 212 210
f 211 213 205
f 213 214 205
f 205 214 212
f 162 179 167
f 167 179 215
f 215 179 178
f 216 217 218
f 219 217 216
f 220 221 222
f 223 221 220
f 224 221 223
f 218 221 224
f 217 221 218
f 219 225 217
f 222 226 227
f 221 226 222
f 219 228 225
f 226 229 227
f 219 230 228
f 229 231 227
f 230 232 233
f 219 232 230
f 227 234 235
f 236 234 231
f 231 234 227
f 232 237 233
f 236 238 234
f 232 239 237
f 238 240 234
f 241 242 232
f 243 242 241
f 232 242 239
f 234 244 245
f 240 244 234
f 243 246 242
f 244 247 245
f 246 248 242
f 247 249 245
f 248 250 242
f 242 250 251
f 250 252 251
f 252 253 251
f 251 253 254
f 254 253 255
f 255 256 257
f 253 256 255
f 257 256 258
f 258 256 259
f 260 261 262
f 263 264 256
f 256 264 259
f 259 264 265
f 266 267 261
f 261 267 262
f 262 268 263
f 269 268 267
f 267 268 262
f 263 270 264
f 268 270 263
f 264 271 272
f 270 271 264
f 264 245 249
f 264 249 273
f 264 273 265
f 230 233 274
f 274 233 275
f 275 237 276
f 276 237 277
f 233 237 275
f 237 239 277
f 277 242 278
f 278 242 279
f 239 242 277
f 242 251 279
f 279 254 280
f 280 254 281
f 251 254 279
f 254 255 281
f 281 257 282
f 255 257 281
f 282 258 283
f 283 258 284
f 257 258 282
f 258 259 284
f 259 265 284
f 284 265 285
f 285 265 286
f 265 273 286
f 273 249 286
f 286 249 287
f 249 247 287
f 287 247 288
f 288 247 289
f 247 244 289
f 244 240 289
f 289 240 290
f 290 240 291
f 240 238 291
f 238 236 291
f 291 236 292
f 292 236 293
f 236 231 293
f 231 229 293
f 293 229 294
f 229 226 294
f 294 226 295
f 226 221 295
f 295 221 296
f 221 217 296
f 296 217 297
f 297 225 298
f 217 225 297
f 298 225 299
f 299 228 274
f 225 228 299
f 228 230 274
f 300 301 302
f 300 302 303
f 300 303 304
f 300 304 305
f 300 305 306
f 300 307 301
f 308 301 307
f 309 306 310
f 309 310 1
f 309 300 306
f 311 301 308
f 312 309 1
f 313 301 311
f 314 301 313
f 315 312 1
f 316 314 313
f 317 315 1
f 318 314 316
f 319 314 318
f 319 320 321
f 319 321 314
f 322 320 319
f 322 323 320
f 324 323 322
f 325 324 322
f 326 325 322
f 326 322 327
f 328 317 1
f 328 329 330
f 328 330 331
f 328 331 332
f 328 332 333
f 328 333 317
f 334 326 327
f 334 327 335
f 334 335 336
f 337 334 336
f 337 336 338
f 337 338 339
f 340 329 328
f 340 341 342
f 340 342 343
f 340 343 329
f 344 337 339
f 344 339 341
f 345 341 340
f 345 344 341
f 346 345 340
f 347 346 340
f 348 340 349
f 350 340 348
f 351 347 340
f 351 340 350
f 351 352 353
f 351 353 354
f 351 354 347
f 355 352 351
f 297 356 357
f 297 357 358
f 296 297 358
f 296 358 359
f 296 359 360
f 296 360 361
f 296 361 362
f 298 356 297
f 295 296 362
f 295 362 363
f 299 356 298
f 294 295 363
f 274 356 299
f 293 294 363
f 293 363 364
f 365 274 275
f 365 356 274
f 292 293 364
f 276 365 275
f 291 364 366
f 291 292 364
f 277 365 276
f 290 366 367
f 290 291 366
f 278 365 277
f 278 368 369
f 278 369 365
f 370 368 278
f 371 370 278
f 372 278 279
f 372 371 278
f 373 372 279
f 374 290 367
f 374 287 288
f 374 288 289
f 374 289 290
f 374 367 375
f 374 375 376
f 377 279 280
f 377 280 281
f 377 281 282
f 377 373 279
f 378 355 351
f 378 374 376
f 378 376 379
f 378 379 380
f 378 380 355
f 381 374 378
f 382 282 283
f 382 283 284
f 382 284 285
f 382 285 286
f 382 286 287
f 382 287 374
f 382 377 282
f 383 374 381
f 384 374 383
f 16 328 1
f 16 385 328
f 386 387 388
f 386 388 389
f 386 389 390
f 391 392 385
f 393 385 392
f 394 391 385
f 394 385 16
f 395 385 393
f 396 394 16
f 397 386 385
f 397 385 395
f 398 396 16
f 399 386 397
f 400 16 401
f 400 401 402
f 400 398 16
f 403 386 399
f 404 402 405
f 404 405 406
f 404 400 402
f 407 386 403
f 408 404 406
f 409 404 408
f 410 411 412
f 410 412 404
f 410 404 409
f 413 411 410
f 414 413 410
f 415 386 416
f 415 387 386
f 417 386 407
f 417 416 386
f 418 387 415
f 419 387 418
f 420 417 407
f 420 407 421
f 422 387 419
f 423 421 424
f 423 424 425
f 423 425 426
f 423 420 421
f 427 387 422
f 427 428 387
f 429 428 427
f 430 431 432
f 430 432 433
f 430 433 414
f 430 414 410
f 434 426 435
f 434 423 426
f 436 428 429
f 437 431 430
f 438 435 439
f 438 434 435
f 440 431 437
f 440 439 431
f 441 438 439
f 442 428 436
f 443 441 439
f 444 443 439
f 444 439 440
f 445 428 442
f 445 442 446
f 445 447 448
f 445 446 449
f 445 448 450
f 445 450 428
f 451 445 449
f 451 449 452
f 453 451 452
f 453 452 454
f 455 445 451
f 456 453 454
f 457 445 455
f 458 456 454
f 459 460 445
f 459 445 457
f 461 454 462
f 461 458 454
f 463 460 459
f 464 462 465
f 464 461 462
f 466 460 463
f 467 465 468
f 467 468 469
f 467 464 465
f 470 467 469
f 471 460 466
f 472 460 471
f 473 474 467
f 473 467 470
f 475 460 472
f 476 474 473
f 477 478 479
f 477 479 480
f 477 480 474
f 477 474 476
f 481 482 483
f 481 483 484
f 481 484 485
f 481 485 478
f 481 478 477
f 486 475 487
f 486 487 488
f 486 488 489
f 486 460 475
f 490 482 481
f 491 486 489
f 492 482 490
f 493 491 489
f 493 489 482
f 494 482 492
f 495 493 482
f 495 482 494
f 486 377 382
f 486 382 460
f 496 386 497
f 497 386 498
f 498 386 499
f 499 386 390
f 340 500 501
f 340 501 502
f 340 502 503
f 340 503 349
f 504 374 505
f 505 374 506
f 506 374 507
f 507 374 384
f 445 508 509
f 445 509 510
f 445 510 511
f 445 511 447
f 127 129 313
f 313 129 316
f 316 131 318
f 318 131 319
f 129 131 316
f 131 134 319
f 319 138 322
f 322 138 327
f 134 138 319
f 138 144 327
f 327 146 335
f 335 146 336
f 144 146 327
f 146 147 336
f 336 149 338
f 147 149 336
f 338 150 339
f 339 150 341
f 149 150 338
f 150 151 341
f 151 152 341
f 341 152 342
f 342 152 343
f 152 155 343
f 155 156 343
f 343 156 329
f 156 141 329
f 329 141 330
f 330 141 331
f 141 139 331
f 139 136 331
f 331 136 332
f 332 136 333
f 136 132 333
f 132 130 333
f 333 130 317
f 317 130 315
f 130 128 315
f 128 125 315
f 315 125 312
f 125 123 312
f 312 123 309
f 123 114 309
f 309 114 300
f 114 120 300
f 300 120 307
f 307 121 308
f 120 121 307
f 308 121 311
f 311 124 313
f 121 124 311
f 124 127 313
f 69 70 397
f 397 70 399
f 399 71 403
f 403 71 407
f 70 71 399
f 71 78 407
f 407 79 421
f 421 79 424
f 78 79 407
f 79 80 424
f 424 85 425
f 425 85 426
f 80 85 424
f 85 93 426
f 426 94 435
f 93 94 426
f 435 96 439
f 439 96 431
f 94 96 435
f 96 87 431
f 87 89 431
f 431 89 432
f 432 89 433
f 89 90 433
f 90 86 433
f 433 86 414
f 86 84 414
f 414 84 413
f 413 84 411
f 84 81 411
f 81 83 411
f 411 83 412
f 412 83 404
f 83 72 404
f 72 65 404
f 404 65 400
f 400 65 398
f 65 64 398
f 64 63 398
f 398 63 396
f 63 61 396
f 396 61 394
f 61 58 394
f 394 58 391
f 58 59 391
f 391 59 392
f 392 60 393
f 59 60 392
f 393 60 395
f 395 62 397
f 60 62 395
f 62 69 397
f 167 215 459
f 459 215 463
f 463 178 466
f 466 178 471
f 215 178 463
f 178 180 471
f 471 188 472
f 472 188 475
f 180 188 471
f 188 189 475
f 475 190 487
f 487 190 488
f 189 190 475
f 190 202 488
f 488 203 489
f 202 203 488
f 489 205 482
f 482 205 483
f 203 205 489
f 205 206 483
f 206 207 483
f 483 207 484
f 484 207 485
f 207 208 485
f 208 182 485
f 485 182 478
f 182 183 478
f 478 183 479
f 479 183 480
f 183 184 480
f 184 176 480
f 480 176 474
f 474 176 467
f 176 172 467
f 172 169 467
f 467 169 464
f 464 169 461
f 169 168 461
f 168 166 461
f 461 166 458
f 166 164 458
f 458 164 456
f 164 161 456
f 456 161 453
f 161 160 453
f 453 160 451
f 451 163 455
f 160 163 451
f 455 163 457
f 457 165 459
f 163 165 457
f 165 167 459
f 9 1 310
f 122 310 306
f 122 9 310
f 115 306 305
f 115 122 306
f 113 305 304
f 113 115 305
f 116 113 304
f 117 304 303
f 117 116 304
f 118 302 301
f 118 303 302
f 118 117 303
f 119 118 301
f 314 119 301
f 314 126 119
f 365 219 356
f 365 232 219
f 126 314 321
f 133 321 320
f 133 126 321
f 135 320 323
f 135 133 320
f 137 323 324
f 137 135 323
f 140 137 324
f 142 324 325
f 142 140 324
f 143 326 334
f 143 325 326
f 143 142 325
f 145 143 334
f 512 334 337
f 145 334 512
f 513 512 514
f 513 145 512
f 515 513 514
f 153 145 513
f 516 517 518
f 516 519 517
f 516 423 434
f 520 521 519
f 520 519 516
f 92 91 520
f 92 516 434
f 92 520 516
f 522 523 524
f 525 526 523
f 525 523 522
f 527 526 525
f 515 528 513
f 526 529 528
f 526 528 515
f 527 529 526
f 530 531 532
f 533 531 530
f 534 535 533
f 534 533 530
f 520 536 537
f 520 537 521
f 538 539 540
f 538 540 541
f 154 542 112
f 112 542 543
f 542 544 543
f 245 264 545
f 544 529 543
f 529 525 543
f 527 525 529
f 543 525 546
f 534 547 535
f 525 522 546
f 545 548 549
f 549 548 534
f 264 548 545
f 534 548 547
f 522 524 546
f 524 550 546
f 550 551 546
f 551 552 546
f 552 553 546
f 553 554 546
f 554 555 546
f 555 556 546
f 546 556 557
f 556 558 557
f 558 559 557
f 547 560 561
f 561 560 562
f 563 560 564
f 565 560 563
f 566 560 565
f 567 560 566
f 568 560 567
f 569 560 568
f 570 560 569
f 571 560 570
f 562 560 571
f 548 560 547
f 559 572 557
f 564 572 573
f 573 572 559
f 560 572 564
f 572 574 557
f 557 574 575
f 574 576 575
f 577 576 578
f 575 576 577
f 578 579 577
f 579 580 577
f 580 581 577
f 577 581 582
f 576 583 584
f 584 583 585
f 574 583 576
f 581 586 582
f 583 587 585
f 586 588 582
f 588 589 582
f 589 590 582
f 590 591 582
f 582 591 592
f 591 593 592
f 587 594 595
f 595 594 596
f 596 594 597
f 597 594 598
f 598 594 599
f 583 594 587
f 594 600 599
f 593 601 592
f 601 602 592
f 602 603 592
f 603 604 592
f 604 605 592
f 605 606 592
f 592 606 607
f 606 608 607
f 608 609 607
f 600 610 611
f 611 610 612
f 612 610 613
f 613 610 614
f 614 610 615
f 615 610 616
f 594 610 600
f 609 617 607
f 617 618 607
f 610 619 616
f 616 619 620
f 620 619 621
f 621 619 617
f 617 622 618
f 619 622 617
f 623 624 625
f 625 624 626
f 624 627 626
f 627 628 626
f 622 629 618
f 625 629 623
f 618 629 625
f 628 630 626
f 630 631 626
f 629 632 623
f 631 633 626
f 629 634 632
f 633 635 626
f 635 636 626
f 629 637 634
f 629 638 637
f 629 639 638
f 636 640 626
f 640 518 626
f 518 517 626
f 626 519 641
f 517 519 626
f 642 643 644
f 645 643 642
f 646 643 645
f 647 643 646
f 648 643 647
f 649 643 648
f 639 643 649
f 644 643 650
f 629 643 639
f 519 537 641
f 643 651 650
f 519 521 537
f 537 652 641
f 651 541 540
f 641 653 55
f 652 653 641
f 643 654 651
f 651 654 541
f 541 654 655
f 653 68 55
f 654 656 655
f 656 179 162
f 654 179 656
f 657 658 659
f 659 658 660
f 661 632 662
f 662 632 634
f 662 660 661
f 661 660 658
f 663 664 665
f 578 576 663
f 663 666 664
f 576 584 663
f 667 581 580
f 667 580 579
f 667 579 578
f 667 668 669
f 667 665 668
f 667 663 665
f 667 578 663
f 670 589 588
f 670 588 586
f 670 586 581
f 670 671 672
f 670 669 671
f 670 667 669
f 670 581 667
f 673 593 591
f 673 591 590
f 673 590 589
f 673 670 672
f 673 674 675
f 673 672 674
f 673 589 670
f 676 593 673
f 676 604 603
f 676 603 602
f 676 602 601
f 676 601 593
f 676 677 678
f 676 675 677
f 676 673 675
f 679 676 678
f 679 608 606
f 679 606 605
f 679 605 604
f 679 680 681
f 679 678 680
f 679 604 676
f 682 617 609
f 682 609 608
f 682 683 684
f 682 681 683
f 682 608 679
f 682 679 681
f 685 616 620
f 685 620 621
f 685 621 617
f 685 682 684
f 685 686 687
f 685 684 686
f 685 617 682
f 688 614 615
f 688 615 616
f 688 689 690
f 688 687 689
f 688 685 687
f 688 616 685
f 691 611 612
f 691 612 613
f 691 613 614
f 691 692 693
f 691 690 692
f 691 614 688
f 691 688 690
f 694 611 691
f 694 597 598
f 694 598 599
f 694 599 600
f 694 600 611
f 694 691 693
f 694 695 696
f 694 693 695
f 697 587 595
f 697 595 596
f 697 596 597
f 697 694 696
f 697 597 694
f 697 698 699
f 697 696 698
f 700 663 584
f 700 584 585
f 700 585 587
f 700 587 697
f 700 701 666
f 700 699 701
f 700 697 699
f 700 666 663
f 684 683 702
f 683 703 702
f 704 705 706
f 707 705 704
f 684 702 686
f 702 703 686
f 704 706 708
f 681 709 683
f 710 709 707
f 711 709 710
f 703 709 711
f 705 709 712
f 683 709 703
f 707 709 705
f 680 713 681
f 678 713 680
f 712 713 714
f 714 713 715
f 681 713 709
f 709 713 712
f 677 716 678
f 715 716 717
f 713 716 715
f 678 716 713
f 671 718 672
f 719 718 720
f 669 721 671
f 668 721 669
f 720 721 722
f 722 721 723
f 718 721 720
f 671 721 718
f 665 724 668
f 723 724 725
f 668 724 721
f 721 724 723
f 701 726 666
f 727 726 728
f 699 729 701
f 698 729 699
f 701 729 726
f 728 729 730
f 730 729 731
f 726 729 728
f 696 732 698
f 695 732 696
f 698 732 729
f 729 732 731
f 731 732 733
f 733 732 734
f 695 735 732
f 693 735 695
f 732 735 734
f 734 735 736
f 675 737 677
f 674 737 675
f 677 737 716
f 672 738 674
f 674 738 737
f 718 738 672
f 666 739 664
f 665 739 724
f 726 739 666
f 664 739 665
f 693 740 735
f 692 740 693
f 690 740 692
f 740 741 735
f 736 742 743
f 743 742 744
f 741 742 735
f 735 742 736
f 689 745 690
f 690 745 740
f 745 746 740
f 740 746 741
f 745 747 746
f 687 748 689
f 686 748 687
f 689 748 745
f 745 749 747
f 748 749 745
f 742 750 744
f 741 750 742
f 749 750 747
f 744 750 751
f 747 750 746
f 746 750 741
f 748 752 749
f 748 753 752
f 751 754 755
f 752 754 749
f 753 754 752
f 750 754 751
f 749 754 750
f 710 756 711
f 711 756 703
f 748 756 753
f 703 756 686
f 686 756 748
f 704 757 707
f 707 757 710
f 753 757 754
f 710 757 756
f 755 757 708
f 756 757 753
f 754 757 755
f 708 757 704
f 717 758 759
f 759 758 760
f 716 758 717
f 738 758 737
f 737 758 716
f 758 761 760
f 718 761 738
f 760 761 719
f 738 761 758
f 719 761 718
f 727 762 726
f 725 762 763
f 763 762 727
f 739 762 724
f 726 762 739
f 724 762 725
f 722 764 720
f 723 765 722
f 722 765 764
f 720 766 719
f 764 766 720
f 725 767 723
f 723 767 765
f 719 768 760
f 766 768 719
f 763 769 725
f 725 769 767
f 760 770 759
f 768 770 760
f 727 771 763
f 763 771 769
f 759 772 717
f 770 772 759
f 727 773 771
f 727 728 773
f 772 774 717
f 774 715 717
f 728 775 773
f 728 730 775
f 774 776 715
f 730 777 775
f 776 714 715
f 776 778 714
f 730 731 777
f 731 779 777
f 778 712 714
f 778 780 712
f 779 733 781
f 731 733 779
f 780 705 712
f 782 705 780
f 733 734 781
f 781 734 783
f 782 706 705
f 784 706 782
f 734 736 783
f 783 736 785
f 784 708 706
f 786 708 784
f 785 743 787
f 736 743 785
f 788 755 786
f 786 755 708
f 787 744 789
f 743 744 787
f 789 751 788
f 788 751 755
f 744 751 789
f 770 768 790
f 790 768 791
f 791 766 792
f 768 766 791
f 792 764 793
f 766 764 792
f 793 765 794
f 764 765 793
f 794 767 795
f 765 767 794
f 795 769 796
f 767 769 795
f 796 771 797
f 769 771 796
f 797 773 798
f 798 773 799
f 771 773 797
f 773 775 799
f 799 777 800
f 775 777 799
f 800 779 801
f 777 779 800
f 779 781 801
f 801 781 802
f 781 783 802
f 802 783 803
f 783 785 803
f 803 785 804
f 785 787 804
f 804 787 805
f 805 787 806
f 787 789 806
f 789 788 806
f 806 788 807
f 807 788 808
f 788 786 808
f 786 784 808
f 808 784 809
f 784 782 809
f 809 782 810
f 810 782 811
f 782 780 811
f 780 778 811
f 811 778 812
f 812 778 813
f 778 776 813
f 813 774 814
f 776 774 813
f 814 772 815
f 774 772 814
f 815 770 790
f 772 770 815
f 802 798 799
f 802 799 800
f 802 800 801
f 810 811 812
f 807 808 809
f 806 790 791
f 806 791 792
f 806 792 793
f 806 793 794
f 806 794 795
f 806 795 796
f 806 796 797
f 806 797 798
f 806 802 803
f 806 803 804
f 806 804 805
f 806 809 810
f 806 812 813
f 806 813 814
f 806 814 815
f 806 815 790
f 806 798 802
f 806 807 809
f 806 810 812
f 816 817 818
f 816 819 817
f 820 573 816
f 816 573 819
f 573 821 819
f 573 822 821
f 823 824 825
f 826 824 823
f 822 559 826
f 824 559 827
f 573 559 822
f 826 559 824
f 632 828 623
f 829 828 632
f 830 831 828
f 828 831 623
f 831 832 623
f 832 833 623
f 834 835 637
f 835 836 637
f 637 837 634
f 836 837 637
f 836 838 837
f 837 839 634
f 840 841 842
f 843 841 840
f 844 523 843
f 841 827 845
f 843 827 841
f 523 827 843
f 526 846 523
f 827 847 824
f 523 847 827
f 846 847 523
f 526 848 846
f 526 849 848
f 849 850 848
f 848 851 852
f 850 851 848
f 820 853 854
f 853 855 856
f 816 857 820
f 855 858 859
f 859 858 860
f 857 858 820
f 820 858 853
f 853 858 855
f 857 861 858
f 861 533 858
f 861 862 533
f 863 864 862
f 864 865 862
f 862 866 533
f 865 866 862
f 851 850 867
f 851 867 868
f 868 869 852
f 868 852 851
f 869 848 852
f 869 870 848
f 870 846 848
f 870 871 846
f 871 847 846
f 871 872 847
f 847 825 824
f 872 825 847
f 872 873 825
f 874 825 873
f 512 337 875
f 876 877 878
f 875 344 876
f 337 344 875
f 876 344 877
f 344 345 877
f 877 346 879
f 345 346 877
f 879 347 880
f 346 347 879
f 825 874 823
f 823 874 826
f 874 822 826
f 880 354 881
f 347 354 880
f 881 353 874
f 354 353 881
f 353 352 874
f 874 352 822
f 877 879 882
f 883 884 873
f 882 884 883
f 873 884 874
f 880 884 879
f 881 884 880
f 874 884 881
f 879 884 882
f 878 883 873
f 878 882 883
f 878 877 882
f 885 886 887
f 888 885 887
f 514 887 878
f 514 888 887
f 871 515 514
f 872 514 878
f 872 878 873
f 872 871 514
f 870 515 871
f 889 515 870
f 868 870 869
f 867 889 870
f 867 870 868
f 890 891 892
f 890 892 893
f 890 893 894
f 895 891 890
f 896 897 898
f 899 897 896
f 900 890 897
f 900 895 890
f 900 897 899
f 901 895 900
f 531 901 900
f 902 901 531
f 903 904 902
f 905 903 902
f 906 902 531
f 906 905 902
f 559 558 827
f 827 558 845
f 558 556 845
f 845 555 841
f 556 555 845
f 555 554 841
f 841 553 842
f 554 553 841
f 842 552 840
f 553 552 842
f 840 551 843
f 552 551 840
f 843 550 844
f 551 550 843
f 844 524 523
f 550 524 844
f 887 876 878
f 887 886 876
f 876 885 875
f 886 885 876
f 885 888 875
f 875 514 512
f 888 514 875
f 515 889 849
f 515 849 526
f 889 867 850
f 889 850 849
f 907 908 364
f 364 908 366
f 366 894 367
f 367 894 375
f 908 909 366
f 366 909 894
f 909 910 894
f 910 890 894
f 375 911 376
f 894 911 375
f 376 912 379
f 911 912 376
f 379 913 380
f 912 913 379
f 380 914 355
f 913 914 380
f 818 817 914
f 817 819 914
f 914 821 355
f 819 821 914
f 911 894 893
f 914 915 891
f 891 915 892
f 892 915 893
f 913 915 914
f 912 915 913
f 911 915 912
f 893 915 911
f 818 895 857
f 818 857 816
f 891 895 818
f 818 914 891
f 895 861 857
f 895 901 861
f 901 862 861
f 901 902 862
f 902 863 862
f 902 904 863
f 904 903 864
f 904 864 863
f 865 864 903
f 865 903 905
f 905 906 866
f 905 866 865
f 906 533 866
f 906 531 533
f 573 820 564
f 564 854 563
f 820 854 564
f 563 853 565
f 565 853 566
f 854 853 563
f 566 856 567
f 853 856 566
f 567 855 568
f 568 855 569
f 856 855 567
f 569 859 570
f 855 859 569
f 570 860 571
f 859 860 570
f 571 858 562
f 860 858 571
f 890 910 897
f 897 909 898
f 910 909 897
f 909 896 898
f 896 908 899
f 909 908 896
f 908 900 899
f 908 907 900
f 363 907 364
f 363 227 907
f 907 532 900
f 227 532 907
f 532 531 900
f 227 235 532
f 650 916 644
f 651 916 650
f 454 916 462
f 540 539 651
f 651 539 916
f 159 158 539
f 916 158 462
f 539 158 916
f 858 561 562
f 533 547 858
f 858 547 561
f 533 535 547
f 235 234 532
f 532 234 530
f 530 549 534
f 234 545 530
f 530 545 549
f 234 245 545
f 356 219 216
f 357 216 218
f 357 356 216
f 358 218 224
f 358 357 218
f 359 224 223
f 359 358 224
f 360 359 223
f 361 220 222
f 361 223 220
f 361 360 223
f 362 222 227
f 362 361 222
f 363 362 227
f 157 159 538
f 538 159 539
f 655 538 541
f 656 538 655
f 162 157 656
f 656 157 538
f 637 638 834
f 834 639 917
f 638 639 834
f 639 649 917
f 917 648 918
f 649 648 917
f 648 647 918
f 918 646 919
f 647 646 918
f 919 645 920
f 646 645 919
f 920 642 916
f 645 642 920
f 642 644 916
f 916 454 920
f 920 452 919
f 454 452 920
f 918 449 917
f 919 449 918
f 452 449 919
f 917 446 834
f 449 446 917
f 834 442 835
f 446 442 834
f 835 436 836
f 442 436 835
f 836 921 838
f 436 921 836
f 436 429 921
f 922 427 923
f 924 427 922
f 925 427 924
f 921 427 925
f 429 427 921
f 925 926 921
f 924 926 925
f 922 926 924
f 923 926 922
f 927 928 926
f 927 926 923
f 929 928 927
f 930 928 929
f 931 928 930
f 932 928 931
f 516 933 423
f 423 933 420
f 420 934 417
f 933 934 420
f 417 935 416
f 934 935 417
f 416 833 415
f 935 833 416
f 415 832 418
f 833 832 415
f 832 831 418
f 418 932 419
f 419 932 422
f 831 932 418
f 932 931 422
f 931 930 422
f 930 929 422
f 929 927 422
f 831 830 932
f 936 830 828
f 937 830 936
f 932 830 928
f 937 928 830
f 938 939 940
f 941 938 940
f 937 926 928
f 937 940 926
f 937 941 940
f 942 941 937
f 943 937 944
f 943 942 937
f 838 940 945
f 838 945 837
f 926 940 838
f 838 921 926
f 837 946 839
f 829 947 828
f 948 949 950
f 950 949 945
f 946 936 947
f 945 936 946
f 949 951 945
f 945 951 936
f 936 952 953
f 951 952 936
f 936 828 947
f 837 945 946
f 661 829 632
f 661 658 829
f 657 947 658
f 658 947 829
f 659 946 947
f 659 947 657
f 839 662 634
f 660 662 839
f 946 659 660
f 946 660 839
f 944 936 953
f 944 937 936
f 943 953 952
f 943 944 953
f 942 952 951
f 942 943 952
f 941 951 949
f 941 942 951
f 938 949 948
f 938 941 949
f 939 948 950
f 939 938 948
f 940 950 945
f 940 939 950
f 623 833 624
f 624 935 627
f 627 935 628
f 833 935 624
f 628 934 630
f 630 934 631
f 631 934 633
f 935 934 628
f 633 933 635
f 635 933 636
f 636 933 640
f 934 933 633
f 640 516 518
f 933 516 640
f 927 427 422
f 923 427 927
f 181 477 476
f 177 476 473
f 177 181 476
f 175 473 470
f 175 177 473
f 174 470 469
f 174 175 470
f 173 174 469
f 171 469 468
f 171 173 469
f 170 465 462
f 170 468 465
f 170 171 468
f 158 170 462
f 88 410 82
f 88 430 410
f 204 477 181
f 204 481 477
f 16 22 66
f 401 66 67
f 401 16 66
f 402 67 73
f 402 401 67
f 405 73 74
f 405 402 73
f 406 405 74
f 408 75 76
f 408 74 75
f 408 406 74
f 409 76 82
f 409 408 76
f 410 409 82
f 430 88 97
f 437 97 98
f 437 430 97
f 440 98 101
f 440 437 98
f 444 101 100
f 444 440 101
f 443 444 100
f 441 99 95
f 441 100 99
f 441 443 100
f 438 95 92
f 438 441 95
f 434 438 92
f 201 486 491
f 209 491 493
f 209 201 491
f 211 493 495
f 211 209 493
f 213 495 494
f 213 211 495
f 214 213 494
f 212 494 492
f 212 214 494
f 210 490 481
f 210 492 490
f 210 212 492
f 204 210 481
f 954 955 377
f 956 377 955
f 957 954 377
f 253 377 956
f 958 253 956
f 959 957 377
f 256 253 958
f 960 959 377
f 486 961 960
f 486 962 961
f 486 960 377
f 963 962 486
f 964 963 486
f 965 964 486
f 201 966 965
f 201 187 966
f 201 965 486
f 377 253 252
f 373 252 250
f 373 377 252
f 372 250 248
f 372 373 250
f 371 248 246
f 371 372 248
f 370 371 246
f 368 243 241
f 368 246 243
f 368 370 246
f 369 241 232
f 369 368 241
f 365 369 232
f 967 263 256
f 967 256 958
f 967 958 956
f 968 956 955
f 968 967 956
f 969 955 954
f 969 968 955
f 970 954 957
f 970 969 954
f 971 957 959
f 971 970 957
f 972 971 959
f 973 959 960
f 973 972 959
f 974 960 961
f 974 973 960
f 975 961 962
f 975 974 961
f 976 962 963
f 976 975 962
f 977 963 964
f 977 976 963
f 978 964 965
f 978 977 964
f 979 965 966
f 979 966 187
f 979 978 965
f 192 979 187
f 967 262 263
f 193 979 192
f 195 979 193
f 197 979 195
f 196 979 197
f 980 260 262
f 980 262 967
f 981 261 260
f 981 260 980
f 982 261 981
f 982 266 261
f 983 267 266
f 983 266 982
f 984 269 267
f 984 267 983
f 985 268 269
f 985 269 984
f 985 984 986
f 987 986 270
f 987 268 985
f 987 270 268
f 987 985 986
f 988 967 968
f 988 980 967
f 989 981 980
f 989 980 988
f 990 981 989
f 990 982 981
f 991 983 982
f 991 982 990
f 992 984 983
f 992 991 993
f 992 986 984
f 992 983 991
f 994 986 992
f 994 992 993
f 995 993 986
f 995 994 993
f 995 986 994
f 996 968 969
f 996 988 968
f 997 988 996
f 997 989 988
f 998 990 989
f 998 989 997
f 999 996 969
f 999 969 970
f 999 997 996
f 1000 990 998
f 1000 993 991
f 1000 991 990
f 1001 997 999
f 1002 993 1000
f 1003 997 1001
f 1003 1000 998
f 1003 998 997
f 1004 993 1002
f 1005 1000 1003
f 1006 1007 993
f 1006 993 1004
f 1008 1002 1000
f 1008 1000 1005
f 1009 1004 1002
f 1009 1002 1008
f 1010 1004 1009
f 1010 1007 1006
f 1010 1006 1004
f 1011 999 970
f 1012 1001 999
f 1012 999 1011
f 1013 1003 1001
f 1013 1005 1003
f 1013 1001 1012
f 1014 1005 1013
f 1015 970 971
f 1015 1011 970
f 1016 1008 1005
f 1016 1005 1014
f 1017 1012 1011
f 1017 1011 1015
f 1018 1009 1008
f 1018 1008 1016
f 1019 1013 1012
f 1019 1012 1017
f 1020 1021 1007
f 1020 1007 1010
f 1020 1010 1009
f 1020 1009 1018
f 1022 1014 1013
f 1022 1013 1019
f 1023 1014 1022
f 1023 1016 1014
f 1024 1016 1023
f 1024 1018 1016
f 1024 1020 1018
f 1025 1020 1024
f 1025 1021 1020
f 1026 1015 971
f 1027 1015 1026
f 1027 1017 1015
f 1028 1022 1019
f 1028 1017 1027
f 1028 1019 1017
f 1029 1022 1028
f 1030 1022 1029
f 1030 1023 1022
f 1031 971 972
f 1031 1026 971
f 1032 1025 1024
f 1032 1023 1030
f 1032 1024 1023
f 1033 1027 1026
f 1033 1028 1027
f 1033 1026 1031
f 1034 1035 1021
f 1034 1021 1025
f 1034 1025 1032
f 1036 1028 1033
f 1037 1028 1036
f 1037 1029 1028
f 1038 1029 1037
f 1038 1030 1029
f 1039 1032 1030
f 1039 1030 1038
f 1040 1035 1034
f 1040 1034 1032
f 1040 1032 1039
f 1041 1031 972
f 1042 1033 1031
f 1042 1031 1041
f 1042 1036 1033
f 1043 1037 1036
f 1043 1036 1042
f 1044 1037 1043
f 1045 1038 1037
f 1045 1037 1044
f 1046 972 973
f 1046 1041 972
f 1047 1039 1038
f 1047 1038 1045
f 1048 1042 1041
f 1048 1041 1046
f 1049 1050 1035
f 1049 1035 1040
f 1049 1040 1039
f 1049 1039 1047
f 1051 1043 1042
f 1051 1042 1048
f 1052 1044 1043
f 1052 1043 1051
f 1053 1044 1052
f 1053 1045 1044
f 1053 1047 1045
f 1054 1049 1047
f 1054 1047 1053
f 1055 1046 973
f 1055 1048 1046
f 1056 1049 1054
f 1056 1050 1049
f 1057 1048 1055
f 1058 1051 1048
f 1058 1048 1057
f 1058 1052 1051
f 1059 1052 1058
f 1060 1053 1052
f 1060 1052 1059
f 1061 1053 1060
f 1061 1054 1053
f 1061 1056 1054
f 1062 973 974
f 1062 1055 973
f 1063 1064 1050
f 1063 1056 1061
f 1063 1050 1056
f 1065 1055 1062
f 1065 1057 1055
f 1066 1057 1065
f 1066 1058 1057
f 1067 1059 1058
f 1067 1060 1059
f 1067 1058 1066
f 1068 1060 1067
f 1069 1062 974
f 1070 1061 1060
f 1070 1060 1068
f 1071 1065 1062
f 1071 1066 1065
f 1071 1062 1069
f 1072 1063 1061
f 1072 1064 1063
f 1072 1061 1070
f 1073 1066 1071
f 1074 1067 1066
f 1074 1066 1073
f 1074 1068 1067
f 1075 1068 1074
f 1076 1070 1068
f 1076 1072 1070
f 1076 1068 1075
f 1077 1078 1064
f 1077 1072 1076
f 1077 1064 1072
f 1079 974 975
f 1079 1069 974
f 1080 1069 1079
f 1080 1071 1069
f 1081 1074 1073
f 1081 1073 1071
f 1081 1071 1080
f 1082 1074 1081
f 1083 1076 1075
f 1083 1075 1074
f 1083 1074 1082
f 1084 1079 975
f 1085 1076 1083
f 1086 1079 1084
f 1086 1080 1079
f 1087 1078 1077
f 1087 1077 1076
f 1087 1076 1085
f 1088 1081 1080
f 1088 1082 1081
f 1088 1080 1086
f 1089 1082 1088
f 1090 1083 1082
f 1090 1085 1083
f 1090 1082 1089
f 1091 1085 1090
f 1092 1093 1078
f 1092 1078 1087
f 1092 1087 1085
f 1092 1085 1091
f 1094 975 976
f 1094 1084 975
f 1095 1086 1084
f 1095 1084 1094
f 1096 1086 1095
f 1096 1088 1086
f 1097 1088 1096
f 1097 1089 1088
f 1097 1090 1089
f 1098 1094 976
f 1099 1090 1097
f 1100 1095 1094
f 1100 1094 1098
f 1101 1091 1090
f 1101 1090 1099
f 1102 1095 1100
f 1102 1097 1096
f 1102 1096 1095
f 1103 1091 1101
f 1103 1093 1092
f 1103 1092 1091
f 1104 1097 1102
f 1105 1099 1097
f 1105 1097 1104
f 1106 1099 1105
f 1106 1101 1099
f 1107 1108 1093
f 1107 1093 1103
f 1107 1101 1106
f 1107 1103 1101
f 1109 1098 976
f 1109 976 977
f 1110 1098 1109
f 1110 1100 1098
f 1111 1102 1100
f 1111 1100 1110
f 1111 1104 1102
f 1112 1109 977
f 1113 1104 1111
f 1114 1109 1112
f 1114 1110 1109
f 1115 1105 1104
f 1115 1106 1105
f 1115 1104 1113
f 1116 1111 1110
f 1116 1113 1111
f 1116 1110 1114
f 1117 1106 1115
f 1118 1113 1116
f 1119 1108 1107
f 1119 1107 1106
f 1119 1106 1117
f 1120 1117 1115
f 1120 1115 1113
f 1120 1113 1118
f 1121 1117 1120
f 1122 1123 1108
f 1122 1108 1119
f 1122 1119 1117
f 1122 1117 1121
f 1124 977 978
f 1124 1112 977
f 1125 1112 1124
f 1125 1124 978
f 1125 1114 1112
f 1126 1116 1114
f 1126 1125 978
f 1126 1114 1125
f 1127 1118 1116
f 1127 1116 1126
f 1127 1126 978
f 1128 1120 1118
f 1128 1118 1127
f 1129 1121 1120
f 1129 1120 1128
f 1130 1123 1122
f 1130 1122 1121
f 1130 1121 1129
f 1131 978 979
f 1132 978 1131
f 1132 1131 979
f 1133 978 1132
f 1133 1132 979
f 1133 979 196
f 1133 196 200
f 1134 978 1133
f 1134 1133 200
f 1134 200 199
f 1134 1127 978
f 1134 1128 1127
f 1135 1134 199
f 1135 1128 1134
f 1135 199 198
f 1136 1128 1135
f 1136 1135 198
f 1136 198 194
f 1136 1130 1129
f 1136 1129 1128
f 1137 1138 1123
f 1137 191 1138
f 1137 1136 194
f 1137 1130 1136
f 1137 194 191
f 1137 1123 1130
f 1139 1007 1021
f 1140 1021 1035
f 1140 1139 1021
f 1141 993 1007
f 1141 1007 1139
f 1142 1035 1050
f 1142 1140 1035
f 1143 986 993
f 1143 993 1141
f 1144 1050 1064
f 1144 1142 1050
f 271 270 986
f 271 986 1143
f 1145 1144 1064
f 1146 1064 1078
f 1146 1145 1064
f 1147 1078 1093
f 1147 1146 1078
f 1148 1147 1093
f 1108 1148 1093
f 1149 1148 1108
f 1123 1149 1108
f 1150 1149 1123
f 1138 1150 1123
f 186 1150 1138
f 191 186 1138
f 271 1143 272
f 272 1143 1151
f 1151 1141 1152
f 1143 1141 1151
f 1152 1139 1153
f 1141 1139 1152
f 1153 1140 1154
f 1139 1140 1153
f 1154 1142 1155
f 1140 1142 1154
f 1155 1144 1156
f 1142 1144 1155
f 1156 1145 1157
f 1144 1145 1156
f 1157 1146 1158
f 1145 1146 1157
f 1158 1147 1159
f 1146 1147 1158
f 1159 1148 1160
f 1147 1148 1159
f 1160 1149 1161
f 1148 1149 1160
f 1161 1150 1162
f 1149 1150 1161
f 1162 186 185
f 1150 186 1162
f 1160 629 622
f 1159 622 619
f 1159 1160 622
f 1161 643 629
f 1161 629 1160
f 1158 619 610
f 1158 1159 619
f 1162 654 643
f 1162 643 1161
f 1157 1158 610
f 185 179 654
f 185 654 1162
f 1156 610 594
f 1156 1157 610
f 1155 594 583
f 1155 1156 594
f 1154 583 574
f 1154 1155 583
f 1153 1154 574
f 572 1153 574
f 1152 1153 572
f 560 1152 572
f 1151 1152 560
f 548 1151 560
f 272 1151 548
f 264 272 548
f 355 821 352
f 352 821 822
f 542 528 544
f 544 528 529
f 154 148 542
f 542 148 528
f 148 153 528
f 528 153 513
f 557 1163 1164
f 575 1165 1163
f 575 1163 557
f 546 1164 1166
f 546 557 1164
f 577 1165 575
f 1167 1165 577
f 543 1166 1168
f 543 546 1166
f 582 1167 577
f 112 1168 111
f 112 543 1168
f 1169 1167 582
f 592 1169 582
f 607 1170 1169
f 607 1169 592
f 618 1171 1170
f 618 1170 607
f 625 1171 618
f 1172 1171 625
f 626 1172 625
f 1173 1172 626
f 641 1173 626
f 1174 1173 641
f 55 1174 641
f 57 1174 55
f 1175 53 56
f 109 1176 110
f 106 1176 109
f 105 1176 106
f 103 1176 105
f 102 1176 103
f 1177 54 53
f 1177 53 1175
f 1178 51 54
f 1178 54 1177
f 1179 51 1178
f 1179 52 51
f 1180 49 52
f 1180 52 1179
f 1181 1180 1174
f 1181 49 1180
f 1181 50 49
f 1182 48 50
f 1182 1181 1174
f 1182 50 1181
f 1183 1174 57
f 1183 57 48
f 1183 48 1182
f 1183 1182 1174
f 1184 1175 1185
f 1184 1177 1175
f 1186 1178 1177
f 1186 1177 1184
f 1187 1178 1186
f 1187 1179 1178
f 1188 1185 1189
f 1188 1184 1185
f 1190 1174 1180
f 1190 1180 1179
f 1190 1179 1187
f 1191 1186 1184
f 1191 1184 1188
f 1192 1174 1190
f 1193 1186 1191
f 1193 1187 1186
f 1194 1174 1192
f 1195 1187 1193
f 1195 1190 1187
f 1196 1173 1174
f 1196 1174 1194
f 1197 1190 1195
f 1197 1192 1190
f 1198 1194 1192
f 1198 1192 1197
f 1199 1194 1198
f 1199 1196 1194
f 1199 1173 1196
f 1200 1188 1189
f 1201 1191 1188
f 1201 1188 1200
f 1202 1193 1191
f 1202 1191 1201
f 1203 1195 1193
f 1203 1193 1202
f 1204 1200 1189
f 1204 1189 1205
f 1206 1197 1195
f 1206 1195 1203
f 1207 1201 1200
f 1207 1200 1204
f 1208 1198 1197
f 1208 1197 1206
f 1209 1202 1201
f 1209 1201 1207
f 1210 1172 1173
f 1210 1173 1199
f 1210 1199 1198
f 1210 1198 1208
f 1211 1203 1202
f 1211 1202 1209
f 1212 1203 1211
f 1212 1206 1203
f 1213 1208 1206
f 1213 1210 1208
f 1213 1206 1212
f 1214 1172 1210
f 1214 1210 1213
f 1215 1204 1205
f 1215 1207 1204
f 1216 1209 1207
f 1216 1207 1215
f 1217 1209 1216
f 1218 1212 1211
f 1218 1211 1209
f 1218 1209 1217
f 1219 1212 1218
f 1220 1212 1219
f 1220 1213 1212
f 1220 1214 1213
f 1221 1205 1222
f 1221 1215 1205
f 1223 1214 1220
f 1223 1171 1172
f 1223 1172 1214
f 1224 1217 1216
f 1224 1215 1221
f 1224 1216 1215
f 1225 1217 1224
f 1226 1219 1218
f 1226 1218 1217
f 1226 1217 1225
f 1227 1220 1219
f 1227 1219 1226
f 1228 1220 1227
f 1229 1221 1222
f 1230 1223 1220
f 1230 1171 1223
f 1230 1220 1228
f 1231 1224 1221
f 1231 1221 1229
f 1232 1225 1224
f 1232 1226 1225
f 1232 1224 1231
f 1233 1226 1232
f 1234 1227 1226
f 1234 1226 1233
f 1235 1228 1227
f 1235 1227 1234
f 1236 1171 1230
f 1236 1170 1171
f 1236 1230 1228
f 1236 1228 1235
f 1237 1229 1222
f 1237 1222 1238
f 1239 1229 1237
f 1239 1231 1229
f 1240 1231 1239
f 1240 1232 1231
f 1241 1233 1232
f 1241 1232 1240
f 1242 1237 1238
f 1243 1233 1241
f 1243 1234 1233
f 1244 1239 1237
f 1244 1237 1242
f 1245 1235 1234
f 1245 1234 1243
f 1246 1240 1239
f 1246 1239 1244
f 1247 1170 1236
f 1247 1236 1235
f 1247 1235 1245
f 1248 1241 1240
f 1248 1240 1246
f 1249 1243 1241
f 1249 1245 1243
f 1249 1241 1248
f 1250 1245 1249
f 1251 1169 1170
f 1251 1170 1247
f 1251 1247 1245
f 1251 1245 1250
f 1252 1238 28
f 1252 1242 1238
f 1253 1244 1242
f 1253 1242 1252
f 1254 1244 1253
f 1254 1246 1244
f 1255 28 1256
f 1255 1252 28
f 1257 1246 1254
f 1257 1248 1246
f 1257 1249 1248
f 1258 1255 1256
f 1258 1252 1255
f 1258 1253 1252
f 1259 1249 1257
f 1260 1257 1254
f 1260 1253 1258
f 1260 1254 1253
f 1261 1249 1259
f 1261 1250 1249
f 1262 1259 1257
f 1262 1257 1260
f 1263 1250 1261
f 1263 1169 1251
f 1263 1251 1250
f 1264 1256 1265
f 1264 1265 1266
f 1267 1259 1262
f 1268 1264 1266
f 1268 1260 1258
f 1268 1256 1264
f 1268 1258 1256
f 1269 1261 1259
f 1269 1263 1261
f 1269 1259 1267
f 1270 1260 1268
f 1271 1169 1263
f 1271 1263 1269
f 1272 1262 1260
f 1272 1260 1270
f 1273 1267 1262
f 1273 1262 1272
f 1274 1269 1267
f 1274 1267 1273
f 1275 1266 1276
f 1275 1268 1266
f 1277 1167 1169
f 1277 1169 1271
f 1277 1271 1269
f 1277 1269 1274
f 1278 1268 1275
f 1278 1270 1268
f 1278 1272 1270
f 1279 1272 1278
f 1280 1273 1272
f 1280 1274 1273
f 1280 1272 1279
f 1281 1274 1280
f 1282 1167 1277
f 1282 1277 1274
f 1282 1274 1281
f 1283 1275 1276
f 1284 1275 1283
f 1285 1275 1284
f 1285 1278 1275
f 1286 1280 1279
f 1286 1278 1285
f 1286 1279 1278
f 1287 1276 1288
f 1287 1283 1276
f 1289 1281 1280
f 1289 1280 1286
f 1290 1283 1287
f 1290 1284 1283
f 1291 1281 1289
f 1292 1285 1284
f 1292 1284 1290
f 1293 1281 1291
f 1293 1165 1167
f 1293 1167 1282
f 1293 1282 1281
f 1294 1286 1285
f 1294 1285 1292
f 1295 1286 1294
f 1295 1289 1286
f 1296 1291 1289
f 1296 1289 1295
f 1297 1293 1291
f 1297 1165 1293
f 1297 1291 1296
f 1298 1287 1288
f 1299 1290 1287
f 1299 1287 1298
f 1300 1292 1290
f 1300 1290 1299
f 1301 1294 1292
f 1301 1292 1300
f 1302 1295 1294
f 1302 1294 1301
f 1303 1296 1295
f 1303 1297 1296
f 1303 1295 1302
f 1304 1288 1305
f 1304 1299 1298
f 1304 1298 1288
f 1306 1165 1297
f 1306 1163 1165
f 1306 1297 1303
f 1307 1300 1299
f 1307 1299 1304
f 1308 1300 1307
f 1309 1301 1300
f 1309 1300 1308
f 1310 1302 1301
f 1310 1301 1309
f 1311 1303 1302
f 1311 1302 1310
f 1312 1304 1305
f 1313 1303 1311
f 1313 1163 1306
f 1313 1306 1303
f 1314 1307 1304
f 1314 1304 1312
f 1315 1308 1307
f 1315 1307 1314
f 1316 1309 1308
f 1316 1308 1315
f 1317 1310 1309
f 1317 1309 1316
f 1318 1311 1310
f 1318 1310 1317
f 1319 1164 1163
f 1319 1313 1311
f 1319 1163 1313
f 1319 1311 1318
f 1320 1305 1321
f 1320 1312 1305
f 1320 1314 1312
f 1322 1314 1320
f 1323 1315 1314
f 1323 1314 1322
f 1324 1316 1315
f 1324 1315 1323
f 1324 1317 1316
f 1325 1320 1321
f 1326 1317 1324
f 1327 1322 1320
f 1327 1320 1325
f 1328 1318 1317
f 1328 1317 1326
f 1329 1322 1327
f 1329 1323 1322
f 1330 1318 1328
f 1330 1164 1319
f 1330 1319 1318
f 1331 1323 1329
f 1331 1324 1323
f 1332 1326 1324
f 1332 1324 1331
f 1332 1328 1326
f 1333 1328 1332
f 1334 1330 1328
f 1334 1164 1330
f 1334 1166 1164
f 1334 1328 1333
f 1335 1327 1325
f 1335 1321 1336
f 1335 1325 1321
f 1337 1327 1335
f 1338 1329 1327
f 1338 1327 1337
f 1339 1335 1336
f 1340 1331 1329
f 1340 1329 1338
f 1341 1337 1335
f 1341 1335 1339
f 1342 1331 1340
f 1342 1332 1331
f 1343 1337 1341
f 1343 1338 1337
f 1344 1333 1332
f 1344 1332 1342
f 1345 1340 1338
f 1345 1338 1343
f 1346 1334 1333
f 1346 1166 1334
f 1346 1333 1344
f 1347 1342 1340
f 1347 1340 1345
f 1348 1342 1347
f 1348 1344 1342
f 1348 1346 1344
f 1349 1168 1166
f 1349 1166 1346
f 1349 1346 1348
f 1350 1336 1176
f 1350 1339 1336
f 1351 1339 1350
f 1351 1341 1339
f 1351 1350 1176
f 1352 1341 1351
f 1352 1351 1176
f 1352 1343 1341
f 1353 102 104
f 1353 1176 102
f 1353 1345 1343
f 1353 1352 1176
f 1353 1343 1352
f 1354 104 108
f 1354 1353 104
f 1354 1345 1353
f 1354 1347 1345
f 1355 108 107
f 1355 1354 108
f 1355 1348 1347
f 1355 1347 1354
f 1356 107 111
f 1356 111 1168
f 1356 1168 1349
f 1356 1349 1348
f 1356 1355 107
f 1356 1348 1355
f 26 1266 1265
f 1256 26 1265
f 25 1256 28
f 25 26 1256
f 23 8 10
f 23 10 47
f 26 47 1266
f 26 23 47
f 56 37 36
f 1175 36 35
f 1175 56 36
f 1185 35 34
f 1185 1175 35
f 1189 34 33
f 1189 1185 34
f 1205 33 32
f 1205 32 31
f 1205 1189 33
f 1222 31 30
f 1222 1205 31
f 1238 30 29
f 1238 1222 30
f 28 29 27
f 28 1238 29
f 1266 47 46
f 1276 46 45
f 1276 1266 46
f 1288 45 44
f 1288 1276 45
f 1305 44 43
f 1305 1288 44
f 1321 43 42
f 1321 42 41
f 1321 1305 43
f 1336 41 40
f 1336 1321 41
f 1176 40 38
f 1176 1336 40
f 110 38 39
f 110 1176 38
f 536 652 537
f 77 653 536
f 536 653 652
f 77 68 653
f 91 77 520
f 520 77 536
f 1357 1358 387
f 1357 387 428
f 387 1358 1359
f 388 1359 1360
f 388 387 1359
f 389 1360 1361
f 389 388 1360
f 390 1361 1362
f 390 389 1361
f 499 390 1362
f 498 1362 1363
f 498 499 1362
f 497 1364 1365
f 497 1363 1364
f 497 498 1363
f 496 497 1365
f 340 1366 1367
f 1368 340 1367
f 500 1368 1369
f 500 340 1368
f 496 1369 1370
f 496 1370 1371
f 496 500 1369
f 1365 1372 500
f 1365 500 496
f 386 1371 1373
f 386 1373 1374
f 386 496 1371
f 1375 385 1374
f 1374 385 386
f 1376 328 1377
f 328 1378 1377
f 328 1379 1378
f 1380 385 1381
f 1381 385 1382
f 1382 385 1375
f 328 385 1379
f 1379 385 1380
f 328 1366 340
f 328 1376 1366
f 1382 1374 1373
f 1382 1375 1374
f 1381 1373 1371
f 1381 1382 1373
f 1380 1370 1369
f 1380 1371 1370
f 1380 1381 1371
f 1379 1380 1369
f 1378 1369 1368
f 1378 1379 1369
f 1377 1368 1367
f 1377 1378 1368
f 1376 1367 1366
f 1376 1377 1367
f 500 1372 1383
f 501 1383 1384
f 501 500 1383
f 502 1384 1385
f 502 501 1384
f 503 1385 1386
f 503 502 1385
f 349 1386 1387
f 349 503 1386
f 348 349 1387
f 350 1388 1389
f 350 1387 1388
f 350 348 1387
f 351 350 1389
f 1389 1390 378
f 1389 378 351
f 378 1390 1391
f 381 1391 1392
f 381 378 1391
f 383 1392 1393
f 383 381 1392
f 384 1393 1394
f 384 383 1393
f 507 1394 1395
f 507 384 1394
f 506 507 1395
f 505 1395 1396
f 505 506 1395
f 504 1396 1397
f 504 505 1396
f 445 1398 1399
f 1400 445 1399
f 508 1400 1401
f 508 445 1400
f 504 1401 1402
f 504 1402 1403
f 504 508 1401
f 1397 1404 508
f 1397 508 504
f 374 1403 1405
f 374 1405 1406
f 374 504 1403
f 508 1404 1407
f 509 1407 1408
f 509 508 1407
f 510 1408 1409
f 510 509 1408
f 511 1409 1410
f 511 510 1409
f 447 1410 1411
f 447 511 1410
f 448 447 1411
f 450 1411 1412
f 450 448 1411
f 428 1412 1357
f 428 450 1412
f 1413 1386 1385
f 1413 1385 1384
f 1413 1384 1383
f 1413 1383 1372
f 1414 1389 1388
f 1414 1388 1387
f 1414 1387 1386
f 1414 1386 1413
f 1415 1413 1372
f 1416 1389 1414
f 1417 1415 1372
f 1418 1389 1416
f 1419 1417 1372
f 1420 1389 1418
f 1421 1419 1372
f 1365 1421 1372
f 1422 1421 1365
f 1423 1422 1365
f 1424 1365 1364
f 1424 1364 1363
f 1424 1423 1365
f 1362 1424 1363
f 1425 1424 1362
f 1361 1425 1362
f 1390 1389 1420
f 1426 1390 1420
f 1360 1425 1361
f 1427 1390 1426
f 1359 1425 1360
f 1428 1390 1427
f 1358 1425 1359
f 1358 1429 1430
f 1358 1430 1425
f 1431 1429 1358
f 1432 1393 1392
f 1432 1392 1391
f 1432 1391 1390
f 1432 1390 1428
f 1394 1393 1432
f 1433 1394 1432
f 1395 1394 1433
f 1396 1395 1433
f 1397 1396 1433
f 1397 1433 1434
f 1397 1434 1435
f 1436 1397 1435
f 1437 1397 1436
f 1438 1431 1358
f 1404 1437 1439
f 1404 1439 1440
f 1404 1440 1441
f 1404 1397 1437
f 1357 1442 1443
f 1357 1443 1444
f 1357 1444 1438
f 1357 1438 1358
f 1412 1442 1357
f 1407 1404 1441
f 1411 1442 1412
f 1408 1407 1441
f 1410 1441 1442
f 1410 1442 1411
f 1409 1408 1441
f 1409 1441 1410
f 1442 1445 1443
f 1443 1445 1444
f 1444 1445 1438
f 1438 1445 1446
f 1447 1445 1448
f 1449 1445 1447
f 1446 1445 1449
f 1441 1450 1442
f 1448 1450 1451
f 1445 1450 1448
f 1442 1450 1445
f 1452 1453 1437
f 1437 1453 1439
f 1439 1453 1440
f 1440 1453 1441
f 1454 1453 1452
f 1455 1453 1454
f 1451 1453 1455
f 1441 1453 1450
f 1450 1453 1451
f 1456 1457 1458
f 1456 1459 1457
f 1456 1460 1459
f 1456 1461 1460
f 1456 1462 1461
f 1456 1463 1462
f 1464 1456 1465
f 1464 1466 1467
f 1464 1468 1466
f 1464 1469 1468
f 1464 1470 1469
f 1464 1471 1470
f 1464 1465 1471
f 1464 1463 1456
f 1472 1463 1464
f 1473 1474 1472
f 1475 1473 1472
f 1476 1475 1472
f 1477 1476 1472
f 1478 1477 1472
f 1479 1478 1472
f 1452 1479 1472
f 1446 1472 1464
f 1446 1452 1472
f 1447 1446 1449
f 1455 1454 1452
f 1448 1446 1447
f 1451 1452 1446
f 1451 1446 1448
f 1451 1455 1452
f 1431 1438 1446
f 1464 1431 1446
f 1424 1480 1423
f 1423 1480 1422
f 1422 1480 1421
f 1421 1480 1465
f 1470 1480 1469
f 1471 1480 1470
f 1465 1480 1471
f 1425 1481 1424
f 1469 1481 1468
f 1480 1481 1469
f 1424 1481 1480
f 1464 1482 1431
f 1431 1482 1429
f 1429 1482 1430
f 1430 1482 1425
f 1467 1482 1464
f 1466 1482 1467
f 1468 1482 1466
f 1425 1482 1481
f 1481 1482 1468
f 1419 1421 1465
f 1456 1419 1465
f 1414 1483 1416
f 1416 1483 1418
f 1418 1483 1420
f 1420 1483 1463
f 1461 1483 1460
f 1462 1483 1461
f 1463 1483 1462
f 1413 1484 1414
f 1460 1484 1459
f 1483 1484 1460
f 1414 1484 1483
f 1456 1485 1419
f 1419 1485 1417
f 1417 1485 1415
f 1415 1485 1413
f 1458 1485 1456
f 1457 1485 1458
f 1459 1485 1457
f 1413 1485 1484
f 1484 1485 1459
f 1426 1420 1463
f 1472 1426 1463
f 1433 1486 1434
f 1434 1486 1435
f 1435 1486 1436
f 1436 1486 1479
f 1477 1486 1476
f 1478 1486 1477
f 1479 1486 1478
f 1432 1487 1433
f 1476 1487 1475
f 1486 1487 1476
f 1433 1487 1486
f 1472 1488 1426
f 1426 1488 1427
f 1427 1488 1428
f 1428 1488 1432
f 1474 1488 1472
f 1473 1488 1474
f 1475 1488 1473
f 1432 1488 1487
f 1487 1488 1475
f 1437 1436 1479
f 1452 1437 1479
f 1489 382 1406
f 1406 382 374
f 1490 460 1491
f 460 1492 1491
f 460 1493 1492
f 1494 382 1495
f 1495 382 1496
f 1496 382 1489
f 460 382 1493
f 1493 382 1494
f 460 1398 445
f 460 1490 1398
f 1496 1406 1405
f 1496 1489 1406
f 1495 1405 1403
f 1495 1496 1405
f 1494 1402 1401
f 1494 1403 1402
f 1494 1495 1403
f 1493 1494 1401
f 1492 1401 1400
f 1492 1493 1401
f 1491 1400 1399
f 1491 1492 1400
f 1490 1399 1398
f 1490 1491 1399
