# smartdrone2 body-local mesh, millimetres
v -15.032957 8.574999 14.018987
v -14.759439 8.529741 14.050973
v -14.754910 8.575001 14.102226
v -14.580242 8.499734 14.106427
v -14.503554 8.575001 14.247344
v -14.318986 8.453897 14.243216
v -14.292448 8.575019 14.446524
v -14.166091 8.424488 14.363104
v -14.116953 8.561411 14.690659
v -13.957775 8.378110 14.598783
v -13.852429 8.348716 14.774337
v -14.004089 8.547949 14.969709
v -13.769067 8.318496 14.972505
v -13.959789 8.534686 15.266193
v -13.704195 8.279196 15.250000
v -13.985170 8.521534 15.564968
v -13.624999 8.200000 15.250000
v -13.665741 8.200000 15.611597
v -13.785925 8.200000 15.955061
v -14.077881 8.508564 15.849285
v -13.979523 8.200000 16.263172
v -14.232188 8.495732 16.104967
v -14.236828 8.200000 16.520477
v -14.439409 8.483033 16.319489
v -14.544939 8.200000 16.714075
v -14.688221 8.470503 16.482487
v -14.888403 8.200000 16.834259
v -14.961375 8.458310 16.585865
v -15.250000 8.446235 16.628766
v -15.250000 8.200000 16.875001
v -16.500000 10.481259 15.250000
v -16.494123 10.427433 15.371070
v -16.500000 10.418737 15.250000
v -16.463792 10.502875 15.548679
v -16.476562 10.436096 15.490928
v -16.424638 10.449986 15.677533
v -16.357079 10.524493 15.830410
v -16.295117 10.470666 15.935733
v -16.186052 10.546111 16.078436
v -16.110041 10.491378 16.157100
v -15.960618 10.567766 16.278359
v -15.869302 10.512871 16.335802
v -15.693989 10.589381 16.418492
v -15.593348 10.534405 16.451920
v -15.402507 10.610931 16.490662
v -15.297798 10.555837 16.499086
v -15.101337 10.632564 16.491128
v -14.998924 10.577461 16.474525
v -14.808664 10.654206 16.419497
v -14.714724 10.598888 16.379592
v -14.541653 10.675815 16.279925
v -14.461785 10.620451 16.220163
v -14.315813 10.697448 16.080539
v -14.253384 10.641855 16.004491
v -14.144204 10.719100 15.832851
v -14.102712 10.663408 15.746215
v -14.036893 10.740709 15.551447
v -14.017617 10.684851 15.459117
v -14.009257 10.751618 15.401843
v -14.000000 10.762502 15.250000
v -14.003207 10.706413 15.160524
v -14.035901 10.784029 14.952573
v -14.060396 10.727818 14.866147
v -14.141568 10.805543 14.672178
v -14.185628 10.749378 14.594552
v -14.311056 10.827049 14.424843
v -14.372137 10.770811 14.360137
v -14.534148 10.848547 14.225278
v -14.609326 10.792407 14.176670
v -14.798318 10.870052 14.084460
v -14.882901 10.813881 14.055120
v -14.998675 10.885006 14.025526
v -15.177443 10.835359 14.002108
v -15.206342 10.900007 14.000775
v -15.476703 10.856887 14.020730
v -15.495639 10.900000 14.024373
v -15.762758 10.878378 14.110009
v -15.771692 10.900000 14.114070
v -16.019590 10.899976 14.265049
v -16.500000 9.918762 15.250000
v -16.489108 9.868065 15.414657
v -16.500000 9.856216 15.250000
v -16.484978 9.932652 15.443208
v -16.456627 9.879887 15.576421
v -16.460505 9.941338 15.561732
v -16.424627 9.950000 15.677530
v -16.344295 9.901401 15.854167
v -16.288897 9.971562 15.945121
v -16.168709 9.922931 16.097628
v -16.093516 9.993063 16.172486
v -15.939915 9.944515 16.292362
v -15.849473 10.014613 16.346874
v -15.671229 9.966098 16.426888
v -15.570984 10.036149 16.458085
v -15.378209 9.987645 16.493408
v -15.273998 10.057661 16.499770
v -15.077816 10.009234 16.488084
v -14.975612 10.079200 16.469513
v -14.787373 10.030810 16.411239
v -14.693858 10.100669 16.369466
v -14.523629 10.052354 16.267293
v -14.443413 10.122178 16.204943
v -14.301844 10.073948 16.064555
v -14.239179 10.143698 15.985351
v -14.134866 10.095519 15.814780
v -14.093111 10.165253 15.723400
v -14.032373 10.117063 15.532637
v -14.013649 10.186774 15.434219
v -14.000093 10.138577 15.234791
v -14.005337 10.208288 15.134616
v -14.039656 10.160090 14.937645
v -14.068325 10.229755 14.842392
v -14.148953 10.181619 14.658227
v -14.199413 10.251290 14.572677
v -14.321957 10.203207 14.412602
v -14.390992 10.272799 14.341922
v -14.548583 10.224781 14.215343
v -14.631991 10.294340 14.163462
v -14.815763 10.246329 14.077849
v -14.908555 10.315881 14.047538
v -15.108011 10.267926 14.008091
v -15.204796 10.337396 14.000818
v -15.408440 10.289493 14.010082
v -15.503665 10.358927 14.026009
v -15.699726 10.311040 14.083704
v -15.787896 10.380474 14.121653
v -15.965062 10.332637 14.224726
v -16.041156 10.401994 14.282233
v -16.188512 10.354153 14.424353
v -16.248888 10.423509 14.498520
v -16.358205 10.375668 14.671743
v -16.399144 10.445063 14.758096
v -16.463944 10.397182 14.951941
v -16.474600 10.463185 14.999289
v -16.500000 9.356284 15.250000
v -16.488736 9.305745 15.417429
v -16.500000 9.293737 15.250000
v -16.463950 9.377816 15.548036
v -16.455160 9.317800 15.581795
v -16.357876 9.399366 15.828888
v -16.341294 9.339323 15.859571
v -16.187872 9.420946 16.076375
v -16.164497 9.360888 16.102171
v -15.963777 9.442474 16.276168
v -15.934978 9.382448 16.295612
v -15.698528 9.464030 16.416757
v -15.665952 9.403975 16.428764
v -15.407402 9.485604 16.490050
v -15.373496 9.425494 16.493884
v -15.107158 9.507136 16.491812
v -15.073959 9.447018 16.487542
v -14.815160 9.528698 16.421927
v -14.784897 9.468487 16.410249
v -14.548395 9.550253 16.284529
v -14.521841 9.490027 16.266014
v -14.322620 9.571722 16.088132
v -14.300603 9.511592 16.063108
v -14.149538 9.593275 15.842861
v -14.134114 9.533117 15.813293
v -14.039909 9.614849 15.563337
v -14.032000 9.554686 15.531025
v -14.000100 9.636378 15.265774
v -14.000122 9.576244 15.232559
v -14.032384 9.657936 14.967314
v -14.040321 9.597768 14.935077
v -14.134907 9.679509 14.685140
v -14.150295 9.619341 14.655737
v -14.301772 9.701037 14.435528
v -14.323073 9.640836 14.411366
v -14.523323 9.722603 14.232926
v -14.549366 9.662332 14.214813
v -14.786776 9.744169 14.088999
v -14.815494 9.683827 14.077949
v -15.076966 9.765699 14.012034
v -15.107466 9.705386 14.008153
v -15.376499 9.787215 14.006418
v -15.407653 9.726915 14.009982
v -15.668916 9.808750 14.072286
v -15.698720 9.748484 14.083317
v -15.937492 9.830262 14.206039
v -15.963916 9.770038 14.223928
v -16.165931 9.851760 14.399371
v -16.187965 9.791564 14.423730
v -16.342334 9.873331 14.642294
v -16.357916 9.813141 14.671190
v -16.455727 9.894851 14.920271
v -16.463959 9.834688 14.952002
v -16.488876 9.906814 15.083613
v -14.511289 8.596529 14.241632
v -14.772632 8.618060 14.094743
v -15.060734 8.639534 14.014412
v -15.219998 8.588442 14.000360
v -15.360155 8.661033 14.004863
v -15.407705 8.601944 14.009988
v -15.653545 8.682569 14.066931
v -15.698727 8.623464 14.083319
v -15.923733 8.704118 14.197107
v -15.964154 8.645051 14.224093
v -16.155145 8.725621 14.387902
v -16.188281 8.666623 14.424089
v -16.334427 8.747163 14.628294
v -16.358227 8.688167 14.671784
v -16.451292 8.768706 14.904462
v -16.464050 8.709706 14.952372
v -16.487765 8.781228 15.075537
v -16.500000 8.731244 15.250000
v -16.500000 8.793763 15.250000
v -17.165503 8.200000 16.641694
v -16.325218 8.200000 16.468415
v -16.834295 8.200000 17.009538
v -16.433846 8.200000 17.300481
v -17.412994 8.200000 16.213027
v -16.584962 8.200000 16.176555
v -16.003318 8.200000 16.689841
v -15.981657 8.200000 17.501808
v -17.565952 8.200000 15.742271
v -16.767535 8.200000 15.831134
v -15.637870 8.200000 16.828032
v -15.497491 8.200000 17.604721
v -17.617691 8.200000 15.250000
v -16.862382 8.200000 15.452118
v -15.002509 8.200000 17.604721
v -17.565952 8.200000 14.757729
v -16.864021 8.200000 15.061418
v -14.518343 8.200000 17.501808
v -17.412994 8.200000 14.286973
v -16.772357 8.200000 14.681620
v -14.066154 8.200000 17.300481
v -17.165503 8.200000 13.858306
v -16.592689 8.200000 14.334679
v -13.665705 8.200000 17.009538
v -16.335403 8.200000 14.040650
v -16.834295 8.200000 13.490462
v -13.334497 8.200000 16.641694
v -16.433846 8.200000 13.199519
v -16.015372 8.200000 13.816531
v -13.087006 8.200000 16.213027
v -15.981657 8.200000 12.998192
v -15.651097 8.200000 13.675278
v -13.567028 8.200000 15.250000
v -12.934048 8.200000 15.742271
v -15.497491 8.200000 12.895279
v -15.263635 8.200000 13.625056
v -13.615085 8.200000 14.977983
v -12.882309 8.200000 15.250000
v -15.002509 8.200000 12.895279
v -14.875385 8.200000 13.668769
v -13.667745 8.200000 14.813755
v -12.934048 8.200000 14.757729
v -14.518343 8.200000 12.998192
v -14.508790 8.200000 13.803889
v -13.737415 8.200000 14.656161
v -13.087006 8.200000 14.286973
v -13.922860 8.200000 14.312276
v -14.066154 8.200000 13.199519
v -14.185044 8.200000 14.022606
v -13.334497 8.200000 13.858306
v -13.665705 8.200000 13.490462
v -17.992691 8.387500 15.250000
v -18.159316 8.481963 15.610917
v -18.367691 8.575000 15.250000
v -17.608127 8.366300 16.565604
v -17.785062 8.380422 16.259144
v -17.433919 8.374949 16.867342
v -15.289717 8.366300 17.950000
v -15.643586 8.380422 17.950000
v -14.941300 8.374949 17.950000
v -12.931590 8.366300 16.634396
v -13.108525 8.380422 16.940856
v -12.757382 8.374949 16.332658
v -12.891873 8.366300 13.934396
v -12.714938 8.380422 14.240856
v -13.066081 8.374949 13.632658
v -15.210283 8.366300 12.550000
v -14.856414 8.380422 12.550000
v -15.558700 8.374949 12.550000
v -17.568410 8.366300 13.865604
v -17.391475 8.380422 13.559144
v -17.742618 8.374949 14.167342
v -18.134469 8.472463 14.846046
v -17.899237 8.387500 15.959861
v -17.967107 8.418302 15.943833
v -17.189376 8.387500 17.189376
v -17.042069 8.472463 17.546046
v -17.255821 8.406486 17.175816
v -16.621346 8.387500 17.625240
v -16.392095 8.481963 17.950000
v -16.808846 8.575000 17.950000
v -15.959861 8.387500 17.899237
v -16.007677 8.418302 17.950000
v -14.540139 8.387500 17.899237
v -14.585105 8.406486 17.950000
v -14.157600 8.472463 17.950000
v -13.878654 8.387500 17.625240
v -13.482779 8.481963 17.589083
v -13.691154 8.575000 17.950000
v -13.310624 8.387500 17.189376
v -13.290570 8.418302 17.256167
v -12.600763 8.387500 15.959861
v -12.579284 8.406486 16.024184
v -12.365531 8.472463 15.653954
v -12.507309 8.387500 15.250000
v -12.132309 8.575000 15.250000
v -12.340684 8.481963 14.889083
v -12.600763 8.387500 14.540139
v -12.532893 8.418302 14.556167
v -13.310624 8.387500 13.310624
v -13.244179 8.406486 13.324184
v -13.457931 8.472463 12.953954
v -13.878654 8.387500 12.874760
v -14.107905 8.481963 12.550000
v -13.691154 8.575000 12.550000
v -14.540139 8.387500 12.600763
v -14.492323 8.418302 12.550000
v -15.959861 8.387500 12.600763
v -16.342400 8.472463 12.550000
v -15.914895 8.406486 12.550000
v -16.621346 8.387500 12.874760
v -17.017221 8.481963 12.910917
v -16.808846 8.575000 12.550000
v -17.189376 8.387500 13.310624
v -17.209430 8.418302 13.243833
v -17.899237 8.387500 14.540139
v -17.920716 8.406486 14.475816
v -18.159316 10.718037 15.610917
v -18.367691 10.625000 15.250000
v -17.967107 10.781698 15.943833
v -17.785062 10.819578 16.259144
v -17.608127 10.833700 16.565604
v -17.433919 10.825051 16.867342
v -17.255821 10.793514 17.175816
v -17.042069 10.727537 17.546046
v -16.808846 10.625000 17.950000
v -17.017221 10.718037 12.910917
v -16.808846 10.625000 12.550000
v -17.209430 10.781698 13.243833
v -17.391475 10.819578 13.559144
v -17.568410 10.833700 13.865604
v -17.742618 10.825051 14.167342
v -17.920716 10.793514 14.475816
v -18.134469 10.727537 14.846046
v -14.107905 10.718037 12.550000
v -13.691154 10.625000 12.550000
v -14.492323 10.781698 12.550000
v -14.856414 10.819578 12.550000
v -15.210283 10.833700 12.550000
v -15.558700 10.825051 12.550000
v -15.914895 10.793514 12.550000
v -16.342400 10.727537 12.550000
v -12.340684 10.718037 14.889083
v -12.132309 10.625000 15.250000
v -12.532893 10.781698 14.556167
v -12.714938 10.819578 14.240856
v -12.891873 10.833700 13.934396
v -13.066081 10.825051 13.632658
v -13.244179 10.793514 13.324184
v -13.457931 10.727537 12.953954
v -13.482779 10.718037 17.589083
v -13.691154 10.625000 17.950000
v -13.290570 10.781698 17.256167
v -13.108525 10.819578 16.940856
v -12.931590 10.833700 16.634396
v -12.757382 10.825051 16.332658
v -12.579284 10.793514 16.024184
v -12.365531 10.727537 15.653954
v -16.392095 10.718037 17.950000
v -16.007677 10.781698 17.950000
v -15.643586 10.819578 17.950000
v -15.289717 10.833700 17.950000
v -14.941300 10.825051 17.950000
v -14.585105 10.793514 17.950000
v -14.157600 10.727537 17.950000
v -12.650919 10.858846 15.766989
v -12.801719 10.858846 16.264111
v -13.046606 10.858846 16.722261
v -13.376167 10.858846 17.123833
v -13.777739 10.858846 17.453394
v -14.235889 10.858846 17.698281
v -14.733011 10.858846 17.849081
v -15.250000 10.858846 17.900000
v -15.766989 10.858846 17.849081
v -16.264111 10.858846 17.698281
v -17.123833 10.858846 17.123833
v -16.722261 10.858846 17.453394
v -17.453394 10.858846 16.722261
v -17.698281 10.858846 16.264111
v -17.849081 10.858846 15.766989
v -17.698281 10.858846 14.235889
v -17.849081 10.858846 14.733011
v -17.453394 10.858846 13.777739
v -17.123833 10.858846 13.376167
v -16.722261 10.858846 13.046606
v -16.264111 10.858846 12.801719
v -15.766989 10.858846 12.650919
v -15.250000 10.858846 12.600000
v -14.733011 10.858846 12.650919
v -14.235889 10.858846 12.801719
v -13.376167 10.858846 13.376167
v -13.046606 10.858846 13.777739
v -12.801719 10.858846 14.235889
v -12.650919 10.858846 14.733011
v -12.380485 10.741923 15.537138
v -12.366154 10.741923 15.250000
v -12.600000 10.858846 15.250000
v -13.685380 10.741923 17.672505
v -13.934359 10.741923 17.816253
v -16.436089 10.741923 17.878642
v -16.691923 10.741923 17.747484
v -16.933427 10.741923 17.591504
v -18.130261 10.741923 15.393748
v -17.900000 10.858846 15.250000
v -18.130261 10.741923 15.106252
v -18.101636 10.741923 14.820185
v -16.933427 10.741923 12.908496
v -16.691923 10.741923 12.752516
v -16.436089 10.741923 12.621358
v -13.934359 10.741923 12.683747
v -13.777739 10.858846 13.046606
v -13.685380 10.741923 12.827495
v -13.451952 10.741923 12.995319
v -12.380485 10.741923 14.962862
v -15.250000 11.800000 12.600000
v -15.782964 11.800000 12.654148
v -16.294148 11.800000 12.814378
v -16.762661 11.800000 13.074142
v -17.169358 11.800000 13.422826
v -17.497618 11.800000 13.846179
v -17.734026 11.800000 14.326900
v -17.868922 11.800000 14.845346
v -17.896793 11.800000 15.380328
v -17.816500 11.800000 15.909984
v -17.631324 11.800000 16.412669
v -17.348832 11.800000 16.867840
v -16.980569 11.800000 17.256896
v -16.541584 11.800000 17.563938
v -16.049817 11.800000 17.776419
v -15.525365 11.800000 17.885654
v -14.989660 11.800000 17.887181
v -14.464594 11.800000 17.780936
v -13.971624 11.800000 17.571262
v -13.530897 11.800000 17.266726
v -13.160423 11.800000 16.879775
v -12.875341 11.800000 16.426221
v -12.687303 11.800000 15.924600
v -12.603992 11.800000 15.395410
v -12.628814 11.800000 14.860278
v -12.760753 11.800000 14.341072
v -12.994418 11.800000 13.859011
v -13.320260 11.800000 13.433794
v -13.724963 11.800000 13.082798
v -14.191989 11.800000 12.820368
v -14.702251 11.800000 12.657227
v -15.234897 11.800000 12.600043
v -15.239932 11.800000 12.600019
v -15.244966 11.800000 12.600005
v -15.234926 11.844504 12.605057
v -15.235010 11.886777 12.619849
v -15.236037 12.000000 12.800040
v -14.726967 12.000000 12.856480
v -15.235784 11.994986 12.755536
v -15.781955 11.844504 12.659060
v -15.778980 11.886777 12.673549
v -15.774188 11.924698 12.696890
v -15.235146 11.924698 12.643676
v -15.767819 11.956366 12.727911
v -15.235327 11.956366 12.675344
v -15.760193 11.980194 12.765057
v -15.235543 11.980194 12.713264
v -15.751691 11.994986 12.806466
v -15.745718 12.000000 12.850674
v -16.292172 11.844504 12.818986
v -16.286344 11.886777 12.832582
v -16.276955 11.924698 12.854482
v -16.264477 11.956366 12.883588
v -16.249536 11.980194 12.918442
v -16.232879 11.994986 12.957294
v -16.233733 12.000000 13.006171
v -16.759799 11.844504 13.078260
v -16.751355 11.886777 13.090405
v -16.737754 11.924698 13.109969
v -16.719677 11.956366 13.135971
v -16.698031 11.980194 13.167107
v -16.678754 12.000000 13.259733
v -16.673902 11.994986 13.201817
v -17.165726 11.844504 13.426283
v -17.155012 11.886777 13.436482
v -17.137754 11.924698 13.452911
v -17.114818 11.956366 13.474746
v -17.061332 12.000000 13.600280
v -17.087352 11.980194 13.500893
v -17.056734 11.994986 13.530040
v -17.493365 11.844504 13.848835
v -17.480819 11.886777 13.856671
v -17.460610 11.924698 13.869293
v -17.433750 11.956366 13.886070
v -17.364746 12.000000 14.012928
v -17.401587 11.980194 13.906158
v -17.365733 11.994986 13.928552
v -17.729326 11.844504 14.328647
v -17.715461 11.886777 14.333800
v -17.693126 11.924698 14.342100
v -17.663441 11.956366 14.353131
v -17.575736 12.000000 14.479641
v -17.627895 11.980194 14.366341
v -17.588270 11.994986 14.381066
v -17.863967 11.844504 14.846111
v -17.849349 11.886777 14.848370
v -17.825800 11.924698 14.852009
v -17.685080 12.000000 14.980023
v -17.794504 11.956366 14.856844
v -17.757027 11.980194 14.862635
v -17.715250 11.994986 14.869090
v -17.891785 11.844504 15.380081
v -17.877011 11.886777 15.379354
v -17.853212 11.924698 15.378182
v -17.687999 12.000000 15.492204
v -17.821582 11.956366 15.376624
v -17.783707 11.980194 15.374759
v -17.741486 11.994986 15.372680
v -17.811643 11.844504 15.908735
v -17.797318 11.886777 15.905051
v -17.774241 11.924698 15.899117
v -17.743571 11.956366 15.891230
v -17.770148 11.844504 16.052996
v -17.706844 11.980194 15.881785
v -17.756054 11.886777 16.048505
v -17.665904 11.994986 15.871257
v -17.584365 12.000000 15.993800
v -17.733352 11.924698 16.041271
v -17.703178 11.956366 16.031657
v -17.667046 11.980194 16.020145
v -17.626769 11.994986 16.007311
v -17.626818 11.844504 16.410469
v -17.613525 11.886777 16.403979
v -17.592114 11.924698 16.393525
v -17.563656 11.956366 16.379630
v -17.548125 11.844504 16.559417
v -17.529580 11.980194 16.362993
v -17.535272 11.886777 16.552094
v -17.491593 11.994986 16.344446
v -17.378709 12.000000 16.462888
v -17.514570 11.924698 16.540298
v -17.487054 11.956366 16.524620
v -17.454106 11.980194 16.505847
v -17.417377 11.994986 16.484920
v -17.344860 11.844504 16.864778
v -17.333145 11.886777 16.855748
v -17.314273 11.924698 16.841201
v -17.289192 11.956366 16.821867
v -17.259158 11.980194 16.798716
v -17.225662 11.844504 17.008610
v -17.225677 11.994986 16.772909
v -17.080018 12.000000 16.878967
v -17.214613 11.886777 16.998775
v -17.196815 11.924698 16.982933
v -17.173161 11.956366 16.961877
v -17.144836 11.980194 16.936663
v -17.113260 11.994986 16.908557
v -16.977294 11.844504 17.253099
v -16.967634 11.886777 17.241896
v -16.952074 11.924698 17.223851
v -16.931393 11.956366 17.199868
v -16.906629 11.980194 17.171150
v -16.816853 11.844504 17.380943
v -16.879023 11.994986 17.139136
v -16.701347 12.000000 17.223852
v -16.808091 11.886777 17.369026
v -16.793976 11.924698 17.349829
v -16.775216 11.956366 17.324316
v -16.752752 11.980194 17.293764
v -16.727710 11.994986 17.259707
v -16.539140 11.844504 17.559560
v -16.531931 11.886777 17.546644
v -16.520317 11.924698 17.525838
v -16.504883 11.956366 17.498186
v -16.486400 11.980194 17.465074
v -16.339566 11.844504 17.660144
v -16.465797 11.994986 17.428162
v -16.259244 12.000000 17.482471
v -16.333473 11.886777 17.646666
v -16.323657 11.924698 17.624954
v -16.310612 11.956366 17.596097
v -16.294991 11.980194 17.561543
v -16.277577 11.994986 17.523024
v -16.048304 11.844504 17.771638
v -16.043840 11.886777 17.757536
v -16.036648 11.924698 17.734820
v -16.027090 11.956366 17.704628
v -16.015645 11.980194 17.668476
v -16.002886 11.994986 17.628174
v -15.773033 12.000000 17.643520
v -15.814659 11.844504 17.834010
v -15.811501 11.886777 17.819559
v -15.806415 11.924698 17.796281
v -15.799654 11.956366 17.765343
v -15.791558 11.980194 17.728296
v -15.782534 11.994986 17.686998
v -15.524844 11.844504 17.880667
v -15.523307 11.886777 17.865955
v -15.520831 11.924698 17.842257
v -15.517541 11.956366 17.810760
v -15.513600 11.980194 17.773044
v -15.509207 11.994986 17.731000
v -15.263963 12.000000 17.699960
v -15.265074 11.844504 17.894943
v -15.264990 11.886777 17.880151
v -15.264854 11.924698 17.856324
v -15.264673 11.956366 17.824656
v -15.264457 11.980194 17.786736
v -15.264216 11.994986 17.744464
v -14.990153 11.844504 17.882191
v -14.991606 11.886777 17.867470
v -14.993947 11.924698 17.843758
v -14.997058 11.956366 17.812243
v -15.000783 11.980194 17.774505
v -15.004936 11.994986 17.732437
v -14.754282 12.000000 17.649326
v -14.714830 11.844504 17.840278
v -14.717823 11.886777 17.825792
v -14.722644 11.924698 17.802458
v -14.729052 11.956366 17.771445
v -14.736724 11.980194 17.734308
v -14.745278 11.994986 17.692909
v -14.466080 11.844504 17.776147
v -14.470464 11.886777 17.762020
v -14.477526 11.924698 17.739263
v -14.486912 11.956366 17.709017
v -14.498151 11.980194 17.672800
v -14.510680 11.994986 17.632427
v -14.266267 12.000000 17.493829
v -14.187976 11.844504 17.672406
v -14.193915 11.886777 17.658859
v -14.203482 11.924698 17.637037
v -14.216198 11.956366 17.608034
v -14.231424 11.980194 17.573304
v -14.248398 11.994986 17.534588
v -13.974043 11.844504 17.566869
v -13.981179 11.886777 17.553912
v -13.992673 11.924698 17.533041
v -14.007950 11.956366 17.505301
v -14.026244 11.980194 17.472084
v -14.046636 11.994986 17.435055
v -13.821246 12.000000 17.240267
v -13.707537 11.844504 17.398664
v -13.716163 11.886777 17.386648
v -13.730058 11.924698 17.367291
v -13.748526 11.956366 17.341565
v -13.770640 11.980194 17.310760
v -13.534150 11.844504 17.262910
v -13.795292 11.994986 17.276420
v -13.543746 11.886777 17.251653
v -13.559203 11.924698 17.233520
v -13.579747 11.956366 17.209419
v -13.604347 11.980194 17.180560
v -13.631770 11.994986 17.148389
v -13.438668 12.000000 16.899720
v -13.294511 11.844504 17.031014
v -13.305447 11.886777 17.021054
v -13.323063 11.924698 17.005010
v -13.346476 11.956366 16.983686
v -13.374512 11.980194 16.958151
v -13.164377 11.844504 16.876691
v -13.405765 11.994986 16.929687
v -13.176040 11.886777 16.867594
v -13.194829 11.924698 16.852940
v -13.219800 11.956366 16.833463
v -13.249701 11.980194 16.810142
v -13.283034 11.994986 16.784144
v -13.135254 12.000000 16.487072
v -12.966950 11.844504 16.585526
v -12.979717 11.886777 16.578057
v -13.000284 11.924698 16.566026
v -13.027619 11.956366 16.550036
v -12.879835 11.844504 16.423995
v -13.060351 11.980194 16.530888
v -12.893090 11.886777 16.417430
v -13.096839 11.994986 16.509544
v -12.914441 11.924698 16.406854
v -12.942819 11.956366 16.392798
v -12.976800 11.980194 16.375966
v -13.014681 11.994986 16.357203
v -12.924264 12.000000 16.020359
v -12.739168 11.844504 16.081668
v -12.753210 11.886777 16.077017
v -12.775829 11.924698 16.069525
v -12.805891 11.956366 16.059568
v -12.692152 11.844504 15.923323
v -12.841889 11.980194 16.047644
v -12.706457 11.886777 15.919558
v -12.882017 11.994986 16.034352
v -12.729499 11.924698 15.913492
v -12.760124 11.956366 15.905430
v -12.796796 11.980194 15.895777
v -12.837676 11.994986 15.885016
v -12.814920 12.000000 15.519977
v -12.621122 11.844504 15.541463
v -12.635824 11.886777 15.539833
v -12.659506 11.924698 15.537208
v -12.690982 11.956366 15.533718
v -12.608999 11.844504 15.395135
v -12.728672 11.980194 15.529539
v -12.623769 11.886777 15.394323
v -12.770687 11.994986 15.524881
v -12.647560 11.924698 15.393016
v -12.679181 11.956366 15.391278
v -12.717045 11.980194 15.389197
v -12.759254 11.994986 15.386878
v -12.812001 12.000000 15.007796
v -12.617971 11.844504 14.988520
v -12.632690 11.886777 14.989982
v -12.656401 11.924698 14.992338
v -12.687914 11.956366 14.995468
v -12.725650 11.980194 14.999217
v -12.767715 11.994986 15.003396
v -12.743946 11.886777 14.451495
v -12.766648 11.924698 14.458729
v -12.796822 11.956366 14.468343
v -12.832954 11.980194 14.479855
v -12.873231 11.994986 14.492689
v -12.915635 12.000000 14.506200
v -12.964728 11.886777 13.947906
v -12.985430 11.924698 13.959702
v -13.012946 11.956366 13.975380
v -13.045894 11.980194 13.994153
v -13.082623 11.994986 14.015080
v -13.121291 12.000000 14.037112
v -13.285387 11.886777 13.501225
v -13.303185 11.924698 13.517067
v -13.326839 11.956366 13.538123
v -13.355164 11.980194 13.563337
v -13.386740 11.994986 13.591443
v -13.419982 12.000000 13.621033
v -13.691909 11.886777 13.130974
v -13.706024 11.924698 13.150171
v -13.724784 11.956366 13.175684
v -13.747248 11.980194 13.206236
v -13.772290 11.994986 13.240293
v -13.798653 12.000000 13.276148
v -14.160434 11.844504 12.839856
v -14.166527 11.886777 12.853334
v -14.176343 11.924698 12.875046
v -14.189388 11.956366 12.903903
v -14.205009 11.980194 12.938457
v -14.222423 11.994986 12.976976
v -14.240756 12.000000 13.017529
v -14.685341 11.844504 12.665990
v -14.688499 11.886777 12.680441
v -14.693585 11.924698 12.703719
v -14.700346 11.956366 12.734657
v -14.708442 11.980194 12.771704
v -14.717466 11.994986 12.813002
v -16.706619 12.000000 13.535135
v -17.041209 12.000000 13.888358
v -16.303919 12.000000 13.262098
v -17.292045 12.000000 14.305250
v -15.851939 12.000000 13.082013
v -17.447396 12.000000 14.766317
v -15.371813 12.000000 13.003300
v -17.500000 12.000000 15.250000
v -14.885991 12.000000 13.029640
v -17.447396 12.000000 15.733683
v -14.417189 12.000000 13.159802
v -17.292045 12.000000 16.194750
v -13.987329 12.000000 13.387700
v -17.041209 12.000000 16.611642
v -13.616510 12.000000 13.702676
v -16.706619 12.000000 16.964865
v -13.322071 12.000000 14.090004
v -16.303919 12.000000 17.237902
v -13.117780 12.000000 14.531572
v -15.851939 12.000000 17.417987
v -13.013190 12.000000 15.006732
v -15.371813 12.000000 17.496700
v -13.013190 12.000000 15.493268
v -14.885991 12.000000 17.470360
v -14.417189 12.000000 17.340198
v -13.117780 12.000000 15.968428
v -13.987329 12.000000 17.112300
v -13.322071 12.000000 16.409996
v -13.616510 12.000000 16.797324
v -17.500000 11.900000 15.250000
v -17.447396 11.900000 15.733683
v -17.292045 11.900000 16.194750
v -17.041209 11.900000 16.611642
v -16.706619 11.900000 16.964865
v -16.303919 11.900000 17.237902
v -15.851939 11.900000 17.417987
v -15.371813 11.900000 17.496700
v -14.885991 11.900000 17.470360
v -14.417189 11.900000 17.340198
v -13.987329 11.900000 17.112300
v -13.616510 11.900000 16.797324
v -13.322071 11.900000 16.409996
v -13.117780 11.900000 15.968428
v -13.013190 11.900000 15.493268
v -13.013190 11.900000 15.006732
v -13.117780 11.900000 14.531572
v -13.322071 11.900000 14.090004
v -13.616510 11.900000 13.702676
v -13.987329 11.900000 13.387700
v -14.417189 11.900000 13.159802
v -14.885991 11.900000 13.029640
v -15.371813 11.900000 13.003300
v -15.851939 11.900000 13.082013
v -16.303919 11.900000 13.262098
v -16.706619 11.900000 13.535135
v -17.041209 11.900000 13.888358
v -17.292045 11.900000 14.305250
v -17.447396 11.900000 14.766317
v -16.148213 11.900000 16.045747
v -15.931678 11.900000 16.237581
v -16.312547 11.900000 15.807668
v -15.675526 11.900000 16.372019
v -16.415130 11.900000 15.537179
v -15.394644 11.900000 16.441251
v -16.450000 11.900000 15.250000
v -15.105356 11.900000 16.441251
v -16.415130 11.900000 14.962821
v -14.824474 11.900000 16.372019
v -16.312547 11.900000 14.692332
v -14.568322 11.900000 16.237581
v -16.148213 11.900000 14.454253
v -14.351787 11.900000 16.045747
v -15.931678 11.900000 14.262419
v -14.187453 11.900000 15.807668
v -15.675526 11.900000 14.127981
v -14.084870 11.900000 15.537179
v -15.394644 11.900000 14.058749
v -14.050000 11.900000 15.250000
v -15.105356 11.900000 14.058749
v -14.084870 11.900000 14.962821
v -14.824474 11.900000 14.127981
v -14.187453 11.900000 14.692332
v -14.568322 11.900000 14.262419
v -14.351787 11.900000 14.454253
v -14.050000 10.900000 15.250000
v -14.084870 10.900000 14.962821
v -14.187453 10.900000 14.692332
v -14.351787 10.900000 14.454253
v -14.568322 10.900000 14.262419
v -14.824474 10.900000 14.127981
v -15.105356 10.900000 14.058749
v -15.394644 10.900000 14.058749
v -15.675526 10.900000 14.127981
v -15.931678 10.900000 14.262419
v -16.148213 10.900000 14.454253
v -16.312547 10.900000 14.692332
v -16.415130 10.900000 14.962821
v -16.450000 10.900000 15.250000
v -16.415130 10.900000 15.537179
v -16.312547 10.900000 15.807668
v -16.148213 10.900000 16.045747
v -15.931678 10.900000 16.237581
v -15.675526 10.900000 16.372019
v -15.394644 10.900000 16.441251
v -15.105356 10.900000 16.441251
v -14.824474 10.900000 16.372019
v -14.568322 10.900000 16.237581
v -14.351787 10.900000 16.045747
v -14.187453 10.900000 15.807668
v -14.084870 10.900000 15.537179
v -14.103972 10.900000 14.456054
v -14.339150 10.900000 14.242069
v -14.616727 10.900000 14.089498
v -13.915549 10.900000 14.733551
v -14.906761 10.900000 14.010203
v -13.834601 10.900000 14.922308
v -13.764131 10.900000 15.229394
v -13.754214 10.900000 15.435146
v -13.782901 10.900000 15.698604
v -13.857012 10.900000 15.953674
v -13.973874 10.900000 16.193096
v -14.128914 10.900000 16.408956
v -16.205184 10.900000 14.401169
v -14.316268 10.900000 16.595351
v -16.363495 10.900000 14.568435
v -16.465199 10.900000 14.717708
v -14.519517 10.900000 16.741841
v -14.624339 10.900000 16.800747
v -14.729839 10.900000 16.850477
v -16.588000 10.900000 14.997608
v -16.635468 10.900000 15.208617
v -15.115116 10.900000 16.891339
v -16.643619 10.900000 15.527813
v -15.497265 10.900000 16.841135
v -16.599899 10.900000 15.774290
v -16.513036 10.900000 16.011651
v -15.857465 10.900000 16.700540
v -16.355710 10.900000 16.272790
v -16.143229 10.900000 16.502227
v -16.488920 8.743176 15.416060
v -16.464168 8.815244 15.547145
v -16.455913 8.755080 15.579051
v -16.358438 8.836800 15.827811
v -16.342716 8.776623 15.857018
v -16.188963 8.858305 16.075134
v -16.166421 8.798201 16.100102
v -15.965779 8.879801 16.274774
v -15.937255 8.819731 16.294117
v -15.700800 8.901377 16.415881
v -15.668461 8.841297 16.427875
v -15.409850 8.922907 16.489737
v -15.375526 8.862867 16.493681
v -15.109685 8.944454 16.492100
v -15.075314 8.884396 16.487734
v -14.817582 8.966032 16.422823
v -14.785202 8.905968 16.410372
v -14.550418 8.987559 16.285898
v -14.522684 8.927467 16.266617
v -14.323628 9.009114 16.089246
v -14.301361 8.948983 16.063992
v -14.150262 9.030683 15.844202
v -14.134837 8.970522 15.814721
v -14.040306 9.052213 15.564864
v -14.032487 8.992039 15.533129
v -14.000121 9.073772 15.267356
v -14.000095 9.013571 15.234627
v -14.031818 9.095267 14.969765
v -14.039814 9.035139 14.937031
v -14.133656 9.116789 14.687616
v -14.149357 9.056708 14.657475
v -14.299928 9.138343 14.437680
v -14.322424 9.078237 14.412084
v -14.521024 9.159916 14.234572
v -14.548996 9.099812 14.215064
v -14.784141 9.181441 14.090054
v -14.815994 9.121373 14.077763
v -15.074103 9.202998 14.012438
v -15.108044 9.142904 14.008087
v -15.374217 9.224568 14.006187
v -15.408322 9.164480 14.010067
v -15.667203 9.246095 14.071679
v -15.699407 9.186037 14.083581
v -15.936112 9.267660 14.205131
v -15.963782 9.207508 14.223835
v -16.165319 9.289201 14.398712
v -16.187792 9.229063 14.423533
v -16.341409 9.310670 14.640634
v -16.357830 9.250629 14.671025
v -16.455064 9.332196 14.917855
v -16.463942 9.272162 14.951931
v -16.488681 9.344209 15.082162
v -13.612616 8.220889 14.860706
v -13.755035 8.242716 14.477114
v -14.247799 8.283515 13.897918
v -13.962251 8.262622 14.166401
v -14.191801 9.807726 16.558671
v -14.385159 9.795190 16.693741
v -16.885644 10.190043 15.646317
v -16.831461 10.200031 15.825605
v -13.770892 8.308310 14.825872
v -14.017902 8.340810 14.328273
v -14.502864 8.456653 14.072703
v -14.425515 8.373310 13.950819
v -14.577874 8.303832 13.707077
v -15.198235 8.337853 13.567838
v -14.969625 8.489153 13.884119
v -14.940598 8.405810 13.742712
v -14.948602 8.324505 13.594198
v -15.817598 8.371407 13.665656
v -15.472932 8.521653 13.873576
v -15.496012 8.438310 13.731078
v -15.570836 8.357793 13.597858
v -15.947180 8.554153 14.042448
v -16.019358 8.470810 13.917433
v -16.147901 8.390999 13.826533
v -16.349299 8.404341 13.975694
v -16.330552 8.586653 14.368723
v -16.713494 8.435020 14.419057
v -16.442419 8.503310 14.277487
v -16.582472 8.422407 14.221885
v -16.573075 8.619153 14.809871
v -16.710050 8.535810 14.764306
v -16.831018 8.449926 14.673089
v -16.904819 8.464861 14.943619
v -16.643137 8.651653 15.308390
v -16.913724 8.494794 15.503635
v -16.787366 8.568310 15.314435
v -16.932752 8.479848 15.223657
v -16.531606 8.684153 15.799297
v -16.664288 8.600810 15.856165
v -16.848154 8.509792 15.777511
v -16.738562 8.524706 16.035225
v -16.587555 8.539636 16.271412
v -16.214526 8.567242 16.629124
v -16.253019 8.716653 16.218604
v -16.356859 8.633310 16.318882
v -16.408233 8.553941 16.471060
v -15.843690 8.749153 16.511655
v -15.905153 8.665810 16.642272
v -16.015698 8.579598 16.748731
v -15.754898 8.594618 16.855440
v -15.356974 8.781653 16.640251
v -15.368049 8.698310 16.784181
v -15.481896 8.609501 16.916935
v -15.232634 8.622821 16.932914
v -14.936766 8.638639 16.903559
v -14.856314 8.814153 16.587629
v -14.815557 8.730810 16.726112
v -14.655720 8.654196 16.824617
v -14.413417 8.668459 16.710321
v -14.038136 8.693854 16.417857
v -14.406971 8.846653 16.360650
v -14.319694 8.763310 16.475633
v -14.209896 8.681518 16.573158
v -14.067515 8.879153 15.988898
v -13.945095 8.795810 16.065395
v -13.854225 8.709423 16.190383
v -13.703239 8.726235 15.913259
v -13.882195 8.911653 15.520833
v -13.567506 8.760372 15.289769
v -13.740589 8.828310 15.548871
v -13.606618 8.743034 15.613075
v -13.875166 8.944153 15.017464
v -13.732832 8.860810 14.993390
v -13.658940 8.792211 14.701395
v -13.596320 8.779238 14.937165
v -14.047345 8.976653 14.544407
v -13.922837 8.893310 14.471358
v -13.790856 8.809199 14.411261
v -13.927889 8.822216 14.208678
v -14.376288 9.009153 14.163322
v -14.285835 8.925810 14.050820
v -14.134089 8.838212 13.990126
v -14.324610 8.851005 13.844288
v -14.571039 8.865928 13.710063
v -14.819119 9.041653 13.923884
v -15.119733 8.896178 13.572107
v -14.774511 8.958310 13.786594
v -14.870181 8.882744 13.610449
v -15.318114 9.074153 13.857304
v -15.325166 8.990810 13.713121
v -15.398099 8.911005 13.573548
v -15.629672 8.923497 13.610451
v -16.210885 8.957527 13.868345
v -15.808231 9.106653 13.972260
v -15.866023 9.023310 13.839978
v -15.914995 8.939491 13.703975
v -16.225583 9.139153 14.253768
v -16.675361 8.993564 14.355203
v -16.326583 9.055810 14.150630
v -16.467722 8.975545 14.088303
v -16.515769 9.171653 14.665133
v -16.903826 9.027070 14.938244
v -16.646811 9.088310 14.604582
v -16.820649 9.010865 14.645403
v -16.640964 9.204153 15.152734
v -16.784968 9.120810 15.142665
v -16.917403 9.055933 15.478219
v -16.932735 9.042125 15.219124
v -16.767107 9.083850 15.978523
v -16.584848 9.236653 15.653014
v -16.723043 9.153310 15.694738
v -16.868738 9.068580 15.710663
v -16.354737 9.269153 16.100762
v -16.469109 9.185810 16.188840
v -16.624292 9.098840 16.221504
v -16.463273 9.112319 16.416429
v -16.290562 9.124708 16.572739
v -15.980625 9.301653 16.437614
v -16.056265 9.218310 16.560566
v -15.787827 9.155266 16.844712
v -16.055440 9.139709 16.727771
v -15.511277 9.334153 16.619662
v -15.538327 9.250810 16.761461
v -15.527418 9.169551 16.909992
v -15.267333 9.183453 16.932894
v -15.007872 9.366653 16.623177
v -14.982805 9.283310 16.765339
v -15.007296 9.197330 16.915418
v -14.753068 9.211209 16.857950
v -14.536028 9.399153 16.447700
v -14.066893 9.254152 16.446961
v -14.462112 9.315810 16.571695
v -14.510594 9.225096 16.761878
v -14.284012 9.239103 16.628150
v -14.157249 9.431653 16.116104
v -14.044119 9.348310 16.205770
v -13.869124 9.270522 16.212098
v -13.702225 9.288846 15.911056
v -13.920909 9.464153 15.671613
v -13.783311 9.380810 15.715261
v -13.626408 9.301141 15.693224
v -13.578201 9.314667 15.443459
v -13.857814 9.496653 15.172165
v -13.597122 9.341947 14.933277
v -13.713683 9.413310 15.164107
v -13.568625 9.328938 15.175728
v -13.976188 9.529153 14.682863
v -13.844313 9.445810 14.624148
v -13.894917 9.381826 14.251959
v -13.659723 9.354839 14.699067
v -13.764857 9.368842 14.458301
v -14.260603 9.561653 14.267486
v -14.376730 9.416784 13.811351
v -14.158172 9.478310 14.165768
v -14.092704 9.397737 14.028049
v -14.673984 9.594153 13.980179
v -14.614350 9.510810 13.848717
v -14.703186 9.436000 13.658357
v -15.162447 9.626653 13.858391
v -15.416377 9.474490 13.575306
v -15.153383 9.543310 13.714321
v -15.056033 9.455284 13.578246
v -15.662324 9.659153 13.917998
v -16.061139 9.510650 13.775440
v -15.705011 9.575810 13.780098
v -15.762160 9.493321 13.646841
v -16.108454 9.691653 14.151229
v -16.503039 9.540826 14.126530
v -16.197328 9.608310 14.037475
v -16.308036 9.526503 13.941163
v -16.442686 9.724153 14.527684
v -16.789679 9.569063 14.570436
v -16.566162 9.640810 14.452904
v -16.650676 9.553645 14.316944
v -16.621453 9.756653 14.998291
v -16.763437 9.673310 14.972232
v -16.931203 9.610373 15.327279
v -16.882558 9.584279 14.841101
v -16.925575 9.597836 15.091754
v -16.621453 9.789153 15.501709
v -16.804241 9.641503 15.895521
v -16.763437 9.705810 15.527768
v -16.893867 9.625602 15.610893
v -16.442686 9.821653 15.972316
v -16.515950 9.670652 16.358939
v -16.566162 9.738310 16.047096
v -16.676950 9.656283 16.142381
v -16.108454 9.854153 16.348771
v -16.096948 9.699656 16.704349
v -16.197328 9.770810 16.462525
v -16.322540 9.685017 16.546989
v -15.662324 9.886653 16.582002
v -15.611864 9.727471 16.893619
v -15.705011 9.803310 16.719902
v -15.363644 9.740808 16.929169
v -15.833305 9.715185 16.828711
v -15.162447 9.919153 16.641609
v -15.153383 9.835810 16.785679
v -15.091784 9.755303 16.925553
v -14.843358 9.768704 16.883093
v -14.673984 9.951653 16.519821
v -14.614350 9.868310 16.651283
v -14.601867 9.782251 16.803215
v -14.260603 9.984153 16.232514
v -14.158172 9.900810 16.334232
v -14.001679 9.821680 16.378789
v -13.848345 9.834982 16.181489
v -13.976188 10.016653 15.817137
v -13.844313 9.933310 15.875852
v -13.732425 9.847459 15.977645
v -13.641295 9.860809 15.744361
v -13.857814 10.049153 15.327835
v -13.713683 9.965810 15.335893
v -13.587398 9.873559 15.511006
v -13.567322 9.889159 15.218809
v -13.606025 9.906805 14.889902
v -13.920909 10.081653 14.828387
v -13.783311 9.998310 14.784739
v -13.707960 9.924395 14.575891
v -14.157249 10.114153 14.383896
v -14.044119 10.030810 14.294230
v -13.869739 9.942034 14.287046
v -14.083597 9.959573 14.036807
v -14.536028 10.146653 14.052300
v -14.462112 10.063310 13.928305
v -14.339543 9.976962 13.834528
v -14.607298 9.993057 13.694595
v -15.007872 10.179153 13.876823
v -14.982805 10.095810 13.734661
v -14.870511 10.007768 13.610351
v -15.119206 10.021184 13.572105
v -15.511277 10.211653 13.880338
v -15.538327 10.128310 13.738539
v -15.417365 10.037042 13.575373
v -15.705632 10.052689 13.629843
v -15.952884 10.066706 13.720848
v -15.980625 10.244153 14.062386
v -16.056265 10.160810 13.939434
v -16.158458 10.079175 13.833222
v -16.386314 10.094498 14.008563
v -16.354737 10.276653 14.399238
v -16.733823 10.124764 14.455826
v -16.469109 10.193310 14.311160
v -16.585128 10.110148 14.225318
v -16.584848 10.309153 14.846986
v -16.723043 10.225810 14.805262
v -16.839243 10.138727 14.696096
v -16.904391 10.152232 14.941232
v -16.640964 10.341653 15.347266
v -16.784968 10.258310 15.357335
v -16.931992 10.165712 15.192902
v -16.922107 10.178961 15.441402
v -16.657356 10.220674 16.172788
v -16.531358 10.794361 16.340962
v -16.123717 10.822994 16.688372
v -16.341315 10.808657 16.531050
v -15.884945 10.837184 16.808484
v -15.629420 10.851451 16.889515
v -15.363869 10.865819 16.929119
v -15.094274 10.880148 16.925692
v -14.910179 10.890012 16.898200
v -16.315663 10.398133 16.149280
v -16.426009 10.314772 16.242398
v -16.408914 10.241344 16.470316
v -16.055218 10.420883 16.388078
v -16.138596 10.337522 16.505923
v -16.099575 10.261942 16.702664
v -15.743339 10.443633 16.554208
v -15.794423 10.360272 16.689255
v -15.750962 10.282313 16.856731
v -15.399598 10.466383 16.636092
v -15.415088 10.383022 16.779617
v -15.409083 10.300818 16.925330
v -15.086834 10.318074 16.925033
v -15.046302 10.489133 16.629438
v -15.025210 10.405772 16.772274
v -14.771941 10.335108 16.863586
v -14.706163 10.511883 16.533690
v -14.649850 10.428522 16.666612
v -14.473777 10.352237 16.743140
v -14.400759 10.534633 16.355953
v -14.312823 10.451272 16.470471
v -14.211904 10.368891 16.574774
v -14.016063 10.383034 16.394422
v -14.150207 10.557383 16.106783
v -14.036326 10.474022 16.195500
v -13.844025 10.397840 16.174845
v -13.969900 10.580133 15.802888
v -13.837349 10.496772 15.860138
v -13.706608 10.413301 15.921084
v -13.615012 10.428574 15.648553
v -13.872273 10.602883 15.463283
v -13.729614 10.519522 15.485368
v -13.571074 10.443828 15.364953
v -13.862644 10.625633 15.110056
v -13.718987 10.542272 15.095565
v -13.574891 10.458666 15.087251
v -13.618908 10.472230 14.835686
v -13.942622 10.648383 14.765867
v -13.807247 10.565022 14.715737
v -13.692515 10.484694 14.612639
v -13.833072 10.500998 14.341889
v -14.106105 10.671133 14.452601
v -13.987658 10.587772 14.370033
v -14.047338 10.519290 14.072826
v -14.343470 10.693883 14.190838
v -14.249602 10.610522 14.081165
v -14.311704 10.537647 13.852929
v -14.638737 10.716633 13.996725
v -14.575442 10.633272 13.866952
v -14.614820 10.555967 13.691484
v -14.973484 10.739383 13.883559
v -14.944852 10.656022 13.742068
v -14.944336 10.574198 13.595139
v -15.286675 10.592577 13.567420
v -15.325893 10.762133 13.857670
v -15.333752 10.678772 13.713499
v -15.628056 10.610845 13.610126
v -15.673400 10.784883 13.921710
v -15.717242 10.701522 13.784170
v -15.954523 10.629260 13.721681
v -15.993864 10.807633 14.070590
v -16.070889 10.724272 13.948466
v -16.245862 10.647322 13.893227
v -16.266283 10.830383 14.295647
v -16.371516 10.747022 14.196826
v -16.472712 10.663384 14.093709
v -16.640343 10.677629 14.301705
v -16.473790 10.853133 14.581659
v -16.600510 10.769772 14.512455
v -16.770148 10.691552 14.527850
v -16.742276 10.792522 14.875720
v -16.863472 10.705367 14.771725
v -16.920897 10.720449 15.048884
v -16.788728 10.815272 15.262891
v -16.928155 10.738010 15.377388
v -16.809426 10.765712 15.882767
v -16.735795 10.838022 15.649229
v -16.890295 10.751354 15.625974
v -16.587963 10.860772 16.010069
v -16.688696 10.780106 16.123256
v -16.353716 10.883522 16.321818
v -16.613603 10.128557 15.962875
v -16.485680 10.045217 15.895998
v -16.292301 10.159432 16.381907
v -16.194520 10.076092 16.275720
v -15.848251 10.190307 16.667639
v -15.792128 10.106967 16.534647
v -15.333748 10.221182 16.786421
v -15.325891 10.137842 16.642286
v -14.809381 10.252057 16.724266
v -14.850717 10.168717 16.585961
v -14.336905 10.282932 16.488492
v -14.422565 10.199592 16.372306
v -13.971960 10.313807 16.106866
v -14.091856 10.230467 16.026481
v -13.757525 10.344682 15.624330
v -13.897538 10.261342 15.589213
v -13.718853 10.375557 15.097711
v -13.862493 10.292217 15.111998
v -13.860497 10.406432 14.589026
v -13.990850 10.323092 14.651034
v -14.165778 10.437307 14.158182
v -14.267491 10.353967 14.260608
v -14.598743 10.468182 13.855917
v -14.659839 10.384842 13.986699
v -15.108404 10.499057 13.717827
v -15.121687 10.415717 13.861564
v -15.634740 10.529932 13.760175
v -15.598647 10.446592 13.899939
v -16.115767 10.560807 13.977973
v -16.034547 10.477467 14.097305
v -16.494836 10.591682 14.345574
v -16.378055 10.508342 14.430420
v -16.727306 10.622557 14.819684
v -16.588716 10.539217 14.860053
v -16.785799 10.653432 15.344472
v -16.641722 10.570092 15.335609
v -16.663428 10.684307 15.858133
v -16.530831 10.600967 15.801083
v -16.374603 10.715182 16.300178
v -16.269101 10.631842 16.201658
v -15.953338 10.746057 16.618547
v -15.887356 10.662717 16.490160
v -15.449243 10.776932 16.775748
v -15.430552 10.693592 16.632614
v -14.921685 10.807807 16.753268
v -14.952485 10.724467 16.612242
v -14.432791 10.838682 16.553754
v -14.509455 10.755342 16.431445
v -14.040136 10.869557 16.200702
v -14.153637 10.786217 16.111514
v -13.926932 10.817092 15.690126
v -13.856040 10.847967 15.216906
v -13.949309 10.878842 14.747583
v -13.842177 8.207971 14.454518
v -13.974226 8.215958 14.269480
v -14.203485 8.227400 14.042889
v -14.473178 8.238872 13.867110
v -14.771375 8.250401 13.749902
v -15.087274 8.261995 13.695489
v -15.406535 8.273659 13.706576
v -15.717095 8.285438 13.783005
v -16.005104 8.297261 13.921916
v -16.257897 8.309229 14.117875
v -16.464074 8.321258 14.362719
v -16.613768 8.333423 14.645887
v -16.699234 8.345615 14.952749
v -16.716969 8.357891 15.270934
v -16.665902 8.370241 15.584036
v -16.369508 8.395187 16.139425
v -16.548085 8.382674 15.878738
v -15.564358 8.433314 16.605717
v -16.019362 8.304195 13.917426
v -16.710058 8.369195 14.764303
v -16.787374 8.401695 15.314435
v -16.664295 8.434195 15.856168
v -16.356865 8.466695 16.318887
v -16.138067 8.407786 16.354464
v -15.865467 8.420480 16.512489
v -15.905157 8.499195 16.642279
v -15.368049 8.531695 16.784188
v -14.815555 8.564195 16.726119
v -14.319689 8.596695 16.475639
v -14.406963 8.513354 16.360660
v -13.945089 8.629195 16.065399
v -14.067505 8.545854 15.988905
v -13.740581 8.661695 15.548873
v -13.882183 8.578354 15.520835
v -13.732825 8.694195 14.993389
v -13.875154 8.610854 15.017462
v -13.922830 8.726695 14.471354
v -14.047334 8.643354 14.544400
v -14.285830 8.759195 14.050814
v -14.376281 8.675854 14.163312
v -14.774508 8.791695 13.786587
v -14.819115 8.708354 13.923873
v -15.325166 8.824195 13.713114
v -15.318115 8.740854 13.857292
v -15.866026 8.856695 13.839971
v -15.808236 8.773354 13.972249
v -16.326588 8.889195 14.150624
v -16.225592 8.805854 14.253759
v -16.646818 8.921695 14.604579
v -16.515780 8.838354 14.665127
v -16.784975 8.954195 15.142664
v -16.640976 8.870854 15.152733
v -16.723050 8.986695 15.694740
v -16.584860 8.903354 15.653018
v -16.469115 9.019195 16.188845
v -16.354747 8.935854 16.100770
v -16.056269 9.051695 16.560572
v -15.980632 8.968354 16.437625
v -15.538328 9.084195 16.761468
v -15.511279 9.000854 16.619675
v -14.982803 9.116695 16.765347
v -15.007870 9.033354 16.623189
v -14.462108 9.149195 16.571702
v -14.536021 9.065854 16.447710
v -14.044113 9.181695 16.205775
v -14.157239 9.098354 16.116112
v -13.783303 9.214195 15.715264
v -13.920897 9.130854 15.671616
v -13.713676 9.246695 15.164106
v -13.857801 9.163354 15.172164
v -13.844306 9.279195 14.624145
v -13.976177 9.195854 14.682857
v -14.158167 9.311695 14.165763
v -14.260594 9.228354 14.267477
v -14.614347 9.344195 13.848710
v -14.673978 9.260854 13.980167
v -15.153383 9.376695 13.714313
v -15.162447 9.293354 13.858379
v -15.705013 9.409195 13.780091
v -15.662327 9.325854 13.917986
v -16.197333 9.441695 14.037469
v -16.108462 9.358354 14.151219
v -16.566169 9.474195 14.452900
v -16.442697 9.390854 14.527677
v -16.763444 9.506695 14.972231
v -16.621465 9.423354 14.998289
v -16.763444 9.539195 15.527769
v -16.621465 9.455854 15.501711
v -16.566169 9.571695 16.047100
v -16.442697 9.488354 15.972323
v -16.197333 9.604195 16.462531
v -16.108462 9.520854 16.348781
v -15.705013 9.636695 16.719909
v -15.662327 9.553354 16.582014
v -15.153383 9.669195 16.785687
v -15.162447 9.585854 16.641621
v -14.614347 9.701695 16.651290
v -14.673978 9.618354 16.519833
v -14.158167 9.734195 16.334237
v -14.260594 9.650854 16.232523
v -13.844306 9.766695 15.875855
v -13.976177 9.683354 15.817143
v -13.713676 9.799195 15.335894
v -13.857801 9.715854 15.327836
v -13.783303 9.831695 14.784736
v -13.920897 9.748354 14.828384
v -14.044113 9.864195 14.294225
v -14.157239 9.780854 14.383888
v -14.462108 9.896695 13.928298
v -14.536021 9.813354 14.052290
v -14.982803 9.929195 13.734653
v -15.007870 9.845854 13.876811
v -15.538328 9.961695 13.738532
v -15.511279 9.878354 13.880325
v -16.056269 9.994195 13.939428
v -15.980632 9.910854 14.062375
v -16.469115 10.026695 14.311155
v -16.354747 9.943354 14.399230
v -16.723050 10.059195 14.805260
v -16.584860 9.975854 14.846982
v -16.784975 10.091695 15.357336
v -16.640976 10.008354 15.347267
f 1 2 3
f 2 4 3
f 4 5 3
f 4 6 5
f 6 7 5
f 6 8 7
f 8 9 7
f 8 10 9
f 9 11 12
f 10 11 9
f 12 13 14
f 11 13 12
f 13 15 14
f 15 16 14
f 17 18 15
f 15 18 16
f 16 19 20
f 18 19 16
f 20 21 22
f 19 21 20
f 22 23 24
f 21 23 22
f 24 25 26
f 23 25 24
f 26 27 28
f 28 27 29
f 25 27 26
f 27 30 29
f 31 32 33
f 32 34 35
f 31 34 32
f 34 36 35
f 34 37 36
f 37 38 36
f 37 39 38
f 39 40 38
f 39 41 40
f 41 42 40
f 41 43 42
f 43 44 42
f 43 45 44
f 45 46 44
f 45 47 46
f 47 48 46
f 47 49 48
f 49 50 48
f 49 51 50
f 51 52 50
f 51 53 52
f 53 54 52
f 53 55 54
f 55 56 54
f 55 57 56
f 57 58 56
f 57 59 58
f 59 60 58
f 60 61 58
f 60 62 61
f 62 63 61
f 62 64 63
f 64 65 63
f 64 66 65
f 66 67 65
f 66 68 67
f 68 69 67
f 68 70 69
f 70 71 69
f 70 72 71
f 72 73 71
f 72 74 73
f 74 75 73
f 74 76 75
f 76 77 75
f 76 78 77
f 78 79 77
f 80 81 82
f 80 83 81
f 83 84 81
f 83 85 84
f 85 86 84
f 86 87 84
f 86 88 87
f 88 89 87
f 88 90 89
f 90 91 89
f 90 92 91
f 92 93 91
f 92 94 93
f 94 95 93
f 94 96 95
f 96 97 95
f 96 98 97
f 98 99 97
f 98 100 99
f 100 101 99
f 100 102 101
f 102 103 101
f 102 104 103
f 104 105 103
f 104 106 105
f 106 107 105
f 106 108 107
f 108 109 107
f 108 110 109
f 110 111 109
f 110 112 111
f 112 113 111
f 112 114 113
f 114 115 113
f 114 116 115
f 116 117 115
f 116 118 117
f 118 119 117
f 118 120 119
f 120 121 119
f 120 122 121
f 122 123 121
f 122 124 123
f 124 125 123
f 124 126 125
f 126 127 125
f 126 128 127
f 128 129 127
f 128 130 129
f 130 131 129
f 130 132 131
f 132 133 131
f 132 134 133
f 134 33 133
f 134 31 33
f 135 136 137
f 136 138 139
f 135 138 136
f 139 140 141
f 138 140 139
f 141 142 143
f 140 142 141
f 143 144 145
f 142 144 143
f 145 146 147
f 144 146 145
f 147 148 149
f 146 148 147
f 149 150 151
f 148 150 149
f 151 152 153
f 150 152 151
f 153 154 155
f 152 154 153
f 154 156 155
f 155 156 157
f 156 158 157
f 157 158 159
f 158 160 159
f 159 160 161
f 160 162 161
f 161 162 163
f 163 164 165
f 162 164 163
f 165 166 167
f 164 166 165
f 167 168 169
f 166 168 167
f 169 170 171
f 168 170 169
f 171 172 173
f 170 172 171
f 173 174 175
f 172 174 173
f 175 176 177
f 174 176 175
f 177 178 179
f 176 178 177
f 179 180 181
f 178 180 179
f 181 182 183
f 180 182 181
f 183 184 185
f 182 184 183
f 185 186 187
f 184 186 185
f 186 188 187
f 188 82 187
f 188 80 82
f 7 189 5
f 189 3 5
f 189 190 3
f 190 1 3
f 190 191 1
f 191 192 1
f 192 193 194
f 191 193 192
f 194 195 196
f 193 195 194
f 196 197 198
f 195 197 196
f 198 199 200
f 197 199 198
f 200 201 202
f 199 201 200
f 202 203 204
f 201 203 202
f 203 205 204
f 205 206 204
f 205 207 206
f 208 209 210
f 210 209 211
f 212 213 208
f 208 213 209
f 211 214 215
f 209 214 211
f 216 217 212
f 212 217 213
f 215 218 219
f 214 218 215
f 220 221 216
f 216 221 217
f 219 30 222
f 218 30 219
f 223 224 220
f 220 224 221
f 222 27 225
f 30 27 222
f 226 227 223
f 223 227 224
f 225 25 228
f 27 25 225
f 229 230 226
f 226 230 227
f 25 23 228
f 23 231 228
f 229 232 230
f 229 233 232
f 23 21 231
f 21 234 231
f 21 19 234
f 233 235 232
f 232 235 236
f 19 237 234
f 19 18 237
f 235 238 236
f 236 238 239
f 17 240 18
f 240 241 18
f 18 241 237
f 238 242 239
f 239 242 243
f 244 245 240
f 240 245 241
f 243 246 247
f 242 246 243
f 248 249 244
f 244 249 245
f 247 250 251
f 246 250 247
f 252 253 248
f 254 253 252
f 248 253 249
f 250 255 251
f 251 255 256
f 254 257 253
f 256 258 254
f 254 258 257
f 255 258 256
f 216 259 220
f 260 261 259
f 260 259 216
f 262 212 208
f 262 263 212
f 264 262 208
f 265 266 219
f 265 219 222
f 267 265 222
f 268 234 237
f 268 269 234
f 270 268 237
f 271 253 257
f 271 272 253
f 273 271 257
f 274 275 246
f 274 246 242
f 276 274 242
f 277 278 229
f 277 229 226
f 279 277 226
f 259 280 223
f 259 223 220
f 261 280 259
f 281 282 260
f 281 263 282
f 281 216 212
f 281 260 216
f 281 212 263
f 283 264 208
f 283 210 284
f 283 285 264
f 283 284 285
f 283 208 210
f 286 284 210
f 286 287 288
f 286 215 287
f 286 288 284
f 286 210 211
f 286 211 215
f 289 290 287
f 289 266 290
f 289 287 215
f 289 219 266
f 289 215 219
f 291 292 267
f 291 293 292
f 291 267 222
f 291 222 225
f 291 225 293
f 294 295 296
f 294 296 293
f 294 225 228
f 294 228 231
f 294 293 225
f 294 231 295
f 297 298 295
f 297 269 298
f 297 231 234
f 297 295 231
f 297 234 269
f 299 300 270
f 299 301 300
f 299 237 241
f 299 241 301
f 299 270 237
f 302 303 301
f 302 241 245
f 302 245 249
f 302 301 241
f 302 249 304
f 302 304 303
f 305 249 253
f 305 304 249
f 305 253 272
f 305 306 304
f 305 272 306
f 307 257 258
f 307 308 273
f 307 309 308
f 307 273 257
f 307 258 309
f 310 258 255
f 310 255 250
f 310 311 312
f 310 312 309
f 310 309 258
f 310 250 311
f 313 246 275
f 313 250 246
f 313 314 311
f 313 275 314
f 313 311 250
f 315 276 242
f 315 238 316
f 315 242 238
f 315 317 276
f 315 316 317
f 318 316 238
f 318 233 319
f 318 238 235
f 318 235 233
f 318 319 320
f 318 320 316
f 321 319 233
f 321 229 278
f 321 233 229
f 321 322 319
f 321 278 322
f 323 279 226
f 323 223 280
f 323 226 223
f 323 324 279
f 323 280 324
f 325 261 260
f 325 326 261
f 327 260 282
f 327 325 260
f 328 282 263
f 328 327 282
f 329 263 262
f 329 328 263
f 330 262 264
f 330 329 262
f 331 264 285
f 331 330 264
f 332 285 284
f 332 284 288
f 332 331 285
f 333 332 288
f 334 320 319
f 334 335 320
f 336 319 322
f 336 334 319
f 337 322 278
f 337 336 322
f 338 278 277
f 338 337 278
f 339 277 279
f 339 338 277
f 340 279 324
f 340 339 279
f 341 324 280
f 341 280 261
f 341 340 324
f 326 341 261
f 342 312 311
f 342 343 312
f 344 311 314
f 344 342 311
f 345 314 275
f 345 344 314
f 346 275 274
f 346 345 275
f 347 274 276
f 347 346 274
f 348 276 317
f 348 347 276
f 349 317 316
f 349 316 320
f 349 348 317
f 335 349 320
f 350 303 304
f 350 351 303
f 352 304 306
f 352 350 304
f 353 306 272
f 353 352 306
f 354 272 271
f 354 353 272
f 355 271 273
f 355 354 271
f 356 273 308
f 356 355 273
f 357 308 309
f 357 309 312
f 357 356 308
f 343 357 312
f 358 296 295
f 358 359 296
f 360 295 298
f 360 358 295
f 361 298 269
f 361 360 298
f 362 269 268
f 362 361 269
f 363 268 270
f 363 362 268
f 364 270 300
f 364 363 270
f 365 300 301
f 365 301 303
f 365 364 300
f 351 365 303
f 366 288 287
f 366 333 288
f 367 287 290
f 367 366 287
f 368 290 266
f 368 367 290
f 369 266 265
f 369 368 266
f 370 265 267
f 370 369 265
f 371 267 292
f 371 370 267
f 372 292 293
f 372 293 296
f 372 371 292
f 359 372 296
f 364 365 373
f 374 364 373
f 363 364 374
f 362 363 374
f 375 362 374
f 361 362 375
f 376 361 375
f 360 361 376
f 377 360 376
f 358 360 377
f 371 372 378
f 371 378 379
f 370 371 379
f 380 370 379
f 369 370 380
f 368 369 380
f 381 368 380
f 367 368 381
f 382 367 381
f 366 367 382
f 383 332 384
f 331 332 383
f 330 331 383
f 385 330 383
f 329 330 385
f 386 329 385
f 328 329 386
f 327 386 387
f 327 328 386
f 325 327 387
f 388 340 389
f 339 340 388
f 338 339 388
f 390 338 388
f 337 338 390
f 391 337 390
f 336 337 391
f 392 336 391
f 348 393 394
f 348 349 393
f 347 348 394
f 395 347 394
f 346 347 395
f 345 346 395
f 396 345 395
f 344 345 396
f 397 344 396
f 342 344 397
f 355 356 398
f 399 355 398
f 354 355 399
f 400 354 399
f 353 354 400
f 352 353 400
f 352 400 401
f 350 352 401
f 402 365 351
f 402 351 403
f 402 403 404
f 402 404 373
f 402 373 365
f 405 358 377
f 405 359 358
f 406 359 405
f 406 372 359
f 406 378 372
f 406 405 377
f 406 377 378
f 407 333 366
f 407 366 382
f 408 382 384
f 408 407 382
f 408 333 407
f 409 332 333
f 409 384 332
f 409 408 384
f 409 333 408
f 410 326 325
f 410 387 411
f 410 325 387
f 412 410 411
f 412 326 410
f 412 411 389
f 412 341 326
f 413 341 412
f 413 412 389
f 413 389 340
f 413 340 341
f 414 335 334
f 414 334 336
f 414 336 392
f 415 335 414
f 415 392 393
f 415 414 392
f 416 415 393
f 416 335 415
f 416 349 335
f 416 393 349
f 417 342 397
f 417 397 418
f 417 343 342
f 419 343 417
f 419 357 343
f 419 417 418
f 420 419 418
f 420 357 419
f 420 398 356
f 420 418 398
f 420 356 357
f 421 350 401
f 421 401 404
f 421 403 351
f 421 404 403
f 421 351 350
f 422 395 394
f 423 394 393
f 423 422 394
f 424 393 392
f 424 423 393
f 425 392 391
f 425 424 392
f 426 391 390
f 426 425 391
f 427 390 388
f 427 426 390
f 428 388 389
f 428 427 388
f 429 428 389
f 429 389 411
f 430 429 411
f 430 411 387
f 431 430 387
f 431 387 386
f 432 431 386
f 432 386 385
f 433 432 385
f 433 385 383
f 434 433 383
f 434 383 384
f 435 434 384
f 435 384 382
f 436 435 382
f 436 382 381
f 437 436 381
f 437 381 380
f 438 437 380
f 438 380 379
f 439 438 379
f 439 379 378
f 440 439 378
f 440 378 377
f 441 440 377
f 441 377 376
f 442 376 375
f 442 441 376
f 443 375 374
f 443 442 375
f 444 374 373
f 444 443 374
f 445 373 404
f 445 444 373
f 446 404 401
f 446 445 404
f 447 401 400
f 447 446 401
f 448 400 399
f 448 447 400
f 449 399 398
f 449 448 399
f 450 398 418
f 450 449 398
f 451 418 397
f 451 450 418
f 452 397 396
f 452 451 397
f 453 396 395
f 453 452 396
f 454 453 395
f 455 454 395
f 422 455 395
f 456 453 454
f 456 454 455
f 456 455 422
f 457 456 422
f 456 452 453
f 457 452 456
f 458 459 460
f 461 422 423
f 462 422 461
f 462 457 422
f 463 464 457
f 463 457 462
f 465 466 464
f 465 464 463
f 467 468 466
f 467 466 465
f 469 470 458
f 469 458 460
f 469 460 468
f 469 468 467
f 471 461 423
f 471 423 424
f 472 461 471
f 472 462 461
f 473 462 472
f 473 463 462
f 474 463 473
f 474 465 463
f 475 465 474
f 475 467 465
f 476 477 470
f 476 470 469
f 476 469 467
f 476 475 477
f 476 467 475
f 478 424 425
f 478 471 424
f 479 471 478
f 479 472 471
f 480 473 472
f 480 472 479
f 481 474 473
f 481 473 480
f 482 481 483
f 482 477 475
f 482 474 481
f 482 475 474
f 484 483 477
f 484 477 482
f 484 482 483
f 485 478 425
f 485 425 426
f 486 478 485
f 486 479 478
f 487 479 486
f 487 480 479
f 488 487 489
f 488 483 481
f 488 480 487
f 488 481 480
f 490 488 489
f 490 483 488
f 491 489 483
f 491 483 490
f 491 490 489
f 492 426 427
f 492 485 426
f 493 486 485
f 493 485 492
f 494 486 493
f 494 489 487
f 494 487 486
f 495 494 496
f 495 489 494
f 497 489 495
f 497 495 496
f 498 496 489
f 498 497 496
f 498 489 497
f 499 427 428
f 499 492 427
f 500 492 499
f 500 493 492
f 501 496 494
f 501 494 493
f 501 493 500
f 502 501 503
f 502 496 501
f 504 502 503
f 504 496 502
f 505 503 496
f 505 504 503
f 505 496 504
f 506 499 428
f 506 428 429
f 507 499 506
f 507 500 499
f 508 507 509
f 508 503 501
f 508 501 500
f 508 500 507
f 510 508 509
f 510 503 508
f 511 510 509
f 511 503 510
f 512 509 503
f 512 511 509
f 512 503 511
f 513 429 430
f 513 506 429
f 514 507 506
f 514 506 513
f 514 509 507
f 515 514 516
f 515 509 514
f 517 515 516
f 517 509 515
f 518 517 516
f 518 509 517
f 519 516 509
f 519 518 516
f 519 509 518
f 520 430 431
f 520 513 430
f 521 516 514
f 521 514 513
f 521 513 520
f 522 516 521
f 523 516 522
f 524 431 432
f 524 520 431
f 525 516 523
f 526 522 521
f 526 520 524
f 526 521 520
f 527 528 516
f 527 516 525
f 529 523 522
f 529 522 526
f 530 523 529
f 531 523 530
f 531 525 523
f 532 528 527
f 532 527 525
f 532 525 531
f 533 524 432
f 534 524 533
f 534 526 524
f 535 529 526
f 535 526 534
f 536 531 530
f 536 530 529
f 536 529 535
f 537 533 432
f 537 432 433
f 538 531 536
f 539 534 533
f 539 533 537
f 539 535 534
f 540 541 528
f 540 532 531
f 540 528 532
f 540 531 538
f 542 535 539
f 543 536 535
f 543 535 542
f 544 536 543
f 544 538 536
f 545 541 540
f 545 540 538
f 545 538 544
f 546 537 433
f 546 539 537
f 547 539 546
f 548 542 539
f 548 543 542
f 548 539 547
f 549 544 543
f 549 543 548
f 550 545 544
f 550 544 549
f 551 433 434
f 551 546 433
f 552 553 541
f 552 541 545
f 552 545 550
f 554 547 546
f 554 546 551
f 555 548 547
f 555 547 554
f 556 549 548
f 556 548 555
f 557 549 556
f 557 550 549
f 558 553 552
f 558 552 550
f 558 550 557
f 559 551 434
f 560 551 559
f 560 554 551
f 560 555 554
f 561 555 560
f 562 555 561
f 562 556 555
f 563 556 562
f 563 557 556
f 564 559 434
f 564 434 435
f 565 558 557
f 565 557 563
f 565 566 553
f 565 553 558
f 567 559 564
f 567 560 559
f 568 560 567
f 568 562 561
f 568 561 560
f 569 562 568
f 570 562 569
f 570 563 562
f 571 565 563
f 571 566 565
f 571 563 570
f 572 564 435
f 573 568 567
f 573 564 572
f 573 567 564
f 574 568 573
f 575 569 568
f 575 568 574
f 576 570 569
f 576 571 570
f 576 569 575
f 577 572 435
f 577 435 436
f 578 579 566
f 578 571 576
f 578 566 571
f 580 573 572
f 580 572 577
f 581 573 580
f 581 574 573
f 582 576 575
f 582 575 574
f 582 574 581
f 583 576 582
f 584 579 578
f 584 578 576
f 584 576 583
f 585 577 436
f 586 580 577
f 586 581 580
f 586 577 585
f 587 581 586
f 588 582 581
f 588 581 587
f 589 583 582
f 589 582 588
f 590 591 579
f 590 579 584
f 590 584 583
f 590 583 589
f 592 436 437
f 592 585 436
f 593 585 592
f 593 586 585
f 593 587 586
f 594 588 587
f 594 587 593
f 595 589 588
f 595 588 594
f 596 589 595
f 596 590 589
f 597 590 596
f 597 591 590
f 598 592 437
f 599 592 598
f 599 593 592
f 600 593 599
f 600 594 593
f 601 595 594
f 601 594 600
f 602 595 601
f 602 596 595
f 603 597 596
f 603 591 597
f 603 604 591
f 603 596 602
f 605 437 438
f 605 598 437
f 606 599 598
f 606 598 605
f 607 599 606
f 607 600 599
f 608 600 607
f 608 601 600
f 609 601 608
f 609 602 601
f 610 604 603
f 610 603 602
f 610 602 609
f 611 605 438
f 612 606 605
f 612 605 611
f 612 607 606
f 613 607 612
f 614 608 607
f 614 609 608
f 614 607 613
f 615 610 609
f 615 609 614
f 616 617 604
f 616 604 610
f 616 610 615
f 618 611 438
f 618 438 439
f 619 612 611
f 619 611 618
f 620 612 619
f 620 613 612
f 621 614 613
f 621 613 620
f 622 615 614
f 622 614 621
f 623 617 616
f 623 616 615
f 623 615 622
f 624 618 439
f 625 620 619
f 625 619 618
f 625 618 624
f 626 620 625
f 627 621 620
f 627 620 626
f 628 622 621
f 628 621 627
f 629 630 617
f 629 617 623
f 629 623 622
f 629 622 628
f 631 439 440
f 631 624 439
f 632 624 631
f 632 625 624
f 633 625 632
f 633 626 625
f 634 626 633
f 634 627 626
f 635 627 634
f 635 628 627
f 636 628 635
f 636 630 629
f 636 629 628
f 637 631 440
f 638 631 637
f 638 632 631
f 639 633 632
f 639 632 638
f 640 634 633
f 640 635 634
f 640 633 639
f 641 635 640
f 642 636 635
f 642 630 636
f 642 643 630
f 642 635 641
f 644 637 440
f 644 638 637
f 644 440 441
f 645 639 638
f 645 638 644
f 646 639 645
f 647 640 639
f 647 639 646
f 648 641 640
f 648 642 641
f 648 640 647
f 649 644 441
f 650 643 642
f 650 642 648
f 651 645 644
f 651 646 645
f 651 644 649
f 652 646 651
f 653 647 646
f 653 648 647
f 653 646 652
f 654 648 653
f 655 656 643
f 655 643 650
f 655 650 648
f 655 648 654
f 657 649 441
f 657 651 649
f 657 441 442
f 658 651 657
f 659 652 651
f 659 651 658
f 660 653 652
f 660 652 659
f 661 653 660
f 661 654 653
f 661 655 654
f 662 657 442
f 663 656 655
f 663 655 661
f 664 658 657
f 664 657 662
f 665 659 658
f 665 658 664
f 666 661 660
f 666 660 659
f 666 659 665
f 667 661 666
f 668 661 667
f 668 669 656
f 668 656 663
f 668 663 661
f 670 442 443
f 670 662 442
f 670 664 662
f 671 664 670
f 672 664 671
f 672 665 664
f 673 665 672
f 673 666 665
f 674 670 443
f 675 667 666
f 675 666 673
f 676 672 671
f 676 670 674
f 676 671 670
f 677 669 668
f 677 667 675
f 677 668 667
f 678 672 676
f 679 673 672
f 679 672 678
f 680 675 673
f 680 673 679
f 681 669 677
f 681 682 669
f 681 677 675
f 681 675 680
f 683 674 443
f 683 676 674
f 683 443 444
f 684 676 683
f 685 678 676
f 685 676 684
f 686 679 678
f 686 680 679
f 686 678 685
f 687 683 444
f 688 680 686
f 689 684 683
f 689 685 684
f 689 683 687
f 690 680 688
f 690 682 681
f 690 681 680
f 691 685 689
f 692 686 685
f 692 685 691
f 693 688 686
f 693 686 692
f 694 695 682
f 694 688 693
f 694 690 688
f 694 682 690
f 696 687 444
f 696 689 687
f 696 444 445
f 697 689 696
f 698 691 689
f 698 692 691
f 698 689 697
f 699 692 698
f 700 696 445
f 700 697 696
f 701 693 692
f 701 694 693
f 701 692 699
f 702 697 700
f 703 694 701
f 703 695 694
f 704 698 697
f 704 697 702
f 705 699 698
f 705 701 699
f 705 698 704
f 706 701 705
f 706 703 701
f 707 703 706
f 707 708 695
f 707 695 703
f 709 445 446
f 709 700 445
f 709 702 700
f 710 702 709
f 710 709 446
f 711 702 710
f 711 710 446
f 711 704 702
f 712 705 704
f 712 706 705
f 712 711 446
f 712 704 711
f 713 707 706
f 713 712 446
f 713 706 712
f 714 708 707
f 714 707 713
f 715 446 447
f 716 446 715
f 716 715 447
f 717 446 716
f 717 716 447
f 718 713 446
f 718 717 447
f 718 446 717
f 719 708 714
f 719 720 708
f 719 714 713
f 719 713 718
f 721 447 448
f 722 721 448
f 722 447 721
f 723 722 448
f 723 447 722
f 724 718 447
f 724 447 723
f 725 718 724
f 725 726 720
f 725 720 719
f 725 719 718
f 727 448 449
f 728 727 449
f 728 448 727
f 729 723 448
f 729 728 449
f 729 448 728
f 730 724 723
f 730 723 729
f 731 725 724
f 731 732 726
f 731 726 725
f 731 724 730
f 733 449 450
f 734 733 450
f 734 449 733
f 735 734 450
f 735 729 449
f 735 449 734
f 736 730 729
f 736 729 735
f 737 738 732
f 737 732 731
f 737 731 730
f 737 730 736
f 739 450 451
f 740 450 739
f 740 739 451
f 741 450 740
f 741 740 451
f 742 735 450
f 742 450 741
f 743 736 735
f 743 737 736
f 743 735 742
f 744 745 738
f 744 737 743
f 744 738 737
f 746 451 452
f 747 746 452
f 747 451 746
f 747 452 457
f 747 457 464
f 748 747 464
f 748 741 451
f 748 451 747
f 749 742 741
f 749 743 742
f 749 741 748
f 749 748 464
f 749 464 466
f 750 743 749
f 750 749 466
f 750 466 468
f 751 744 743
f 751 743 750
f 751 750 468
f 751 459 745
f 751 460 459
f 751 468 460
f 751 745 744
f 752 483 489
f 753 489 496
f 753 752 489
f 754 477 483
f 754 483 752
f 755 496 503
f 755 753 496
f 756 470 477
f 756 477 754
f 757 503 509
f 757 755 503
f 758 458 470
f 758 470 756
f 759 757 509
f 516 759 509
f 760 459 458
f 760 458 758
f 761 759 516
f 528 761 516
f 762 459 760
f 745 459 762
f 763 761 528
f 541 763 528
f 764 745 762
f 738 745 764
f 765 763 541
f 553 765 541
f 766 738 764
f 732 738 766
f 767 765 553
f 566 767 553
f 768 732 766
f 726 732 768
f 769 767 566
f 579 769 566
f 770 726 768
f 771 769 579
f 720 726 770
f 591 771 579
f 772 720 770
f 773 771 591
f 708 720 772
f 604 773 591
f 774 708 772
f 775 773 604
f 695 708 774
f 617 775 604
f 776 775 617
f 682 774 777
f 682 695 774
f 630 778 776
f 630 776 617
f 669 777 779
f 669 682 777
f 643 780 778
f 643 778 630
f 656 779 780
f 656 669 779
f 656 780 643
f 759 761 781
f 781 761 782
f 782 763 783
f 761 763 782
f 783 765 784
f 763 765 783
f 784 767 785
f 765 767 784
f 785 769 786
f 767 769 785
f 786 771 787
f 769 771 786
f 787 773 788
f 771 773 787
f 788 775 789
f 773 775 788
f 789 776 790
f 775 776 789
f 776 778 790
f 790 778 791
f 778 780 791
f 791 780 792
f 780 779 792
f 792 779 793
f 779 777 793
f 793 777 794
f 794 777 795
f 777 774 795
f 774 772 795
f 795 772 796
f 772 770 796
f 796 770 797
f 770 768 797
f 797 768 798
f 768 766 798
f 798 766 799
f 766 764 799
f 799 764 800
f 800 764 801
f 764 762 801
f 801 762 802
f 762 760 802
f 760 758 802
f 802 758 803
f 758 756 803
f 803 756 804
f 804 754 805
f 756 754 804
f 805 752 806
f 754 752 805
f 806 753 807
f 752 753 806
f 807 755 808
f 753 755 807
f 808 757 809
f 755 757 808
f 809 759 781
f 757 759 809
f 810 784 785
f 811 785 786
f 811 810 785
f 812 783 784
f 812 784 810
f 813 786 787
f 813 811 786
f 814 782 783
f 814 783 812
f 815 787 788
f 815 813 787
f 816 781 782
f 816 809 781
f 816 782 814
f 817 788 789
f 817 815 788
f 818 808 809
f 818 809 816
f 819 789 790
f 819 817 789
f 820 808 818
f 807 808 820
f 821 819 790
f 821 790 791
f 822 807 820
f 792 821 791
f 823 821 792
f 806 807 822
f 824 806 822
f 793 823 792
f 793 825 823
f 805 806 824
f 805 824 826
f 794 825 793
f 794 827 825
f 804 805 826
f 804 826 828
f 795 829 827
f 795 827 794
f 803 804 828
f 803 828 830
f 796 829 795
f 796 831 829
f 802 803 830
f 802 830 832
f 797 833 831
f 797 831 796
f 801 832 834
f 801 802 832
f 798 835 833
f 798 833 797
f 800 801 834
f 799 834 835
f 799 835 798
f 799 800 834
f 829 831 836
f 836 831 837
f 837 833 838
f 831 833 837
f 838 835 839
f 833 835 838
f 839 834 840
f 835 834 839
f 840 832 841
f 834 832 840
f 841 830 842
f 832 830 841
f 842 828 843
f 830 828 842
f 843 826 844
f 828 826 843
f 844 824 845
f 826 824 844
f 846 822 847
f 845 822 846
f 824 822 845
f 822 820 847
f 820 818 847
f 848 818 849
f 847 818 848
f 818 816 849
f 816 814 849
f 849 814 850
f 814 812 850
f 850 812 851
f 812 810 851
f 851 810 852
f 810 811 852
f 853 811 854
f 852 811 853
f 811 813 854
f 813 815 854
f 854 815 855
f 815 817 855
f 855 817 856
f 856 819 857
f 817 819 856
f 857 821 858
f 819 821 857
f 858 823 859
f 821 823 858
f 859 825 860
f 823 825 859
f 860 827 861
f 825 827 860
f 861 829 836
f 827 829 861
f 862 839 863
f 863 840 864
f 839 840 863
f 865 838 862
f 862 838 839
f 864 841 866
f 840 841 864
f 867 837 865
f 865 837 838
f 841 842 866
f 842 74 866
f 868 836 867
f 869 836 868
f 867 836 837
f 842 843 74
f 843 76 74
f 870 861 869
f 869 861 836
f 843 844 76
f 844 78 76
f 871 860 870
f 870 860 861
f 871 872 860
f 844 845 78
f 845 79 78
f 872 859 860
f 872 873 859
f 845 846 79
f 846 874 79
f 873 858 859
f 873 875 858
f 846 876 874
f 846 847 876
f 847 877 876
f 875 878 858
f 858 878 857
f 847 848 877
f 878 879 857
f 857 880 856
f 879 880 857
f 848 881 877
f 848 849 881
f 849 882 881
f 856 883 855
f 880 883 856
f 850 884 849
f 849 884 882
f 855 885 854
f 883 885 855
f 851 886 850
f 850 886 884
f 852 887 851
f 851 887 886
f 854 888 853
f 885 888 854
f 852 889 887
f 853 889 852
f 888 890 853
f 853 890 889
f 207 891 206
f 891 892 893
f 207 892 891
f 893 894 895
f 892 894 893
f 895 896 897
f 894 896 895
f 897 898 899
f 896 898 897
f 899 900 901
f 898 900 899
f 901 902 903
f 900 902 901
f 903 904 905
f 902 904 903
f 905 906 907
f 904 906 905
f 907 908 909
f 906 908 907
f 908 910 909
f 909 910 911
f 910 912 911
f 911 912 913
f 912 914 913
f 913 914 915
f 914 916 915
f 915 916 917
f 917 918 919
f 916 918 917
f 919 920 921
f 918 920 919
f 921 922 923
f 920 922 921
f 923 924 925
f 922 924 923
f 925 926 927
f 924 926 925
f 927 928 929
f 926 928 927
f 929 930 931
f 928 930 929
f 931 932 933
f 930 932 931
f 933 934 935
f 932 934 933
f 935 936 937
f 934 936 935
f 937 938 939
f 936 938 937
f 939 940 941
f 938 940 939
f 940 942 941
f 942 137 941
f 942 135 137
f 15 13 240
f 13 943 240
f 10 944 11
f 6 945 946
f 101 947 948
f 36 949 35
f 36 950 949
f 943 951 944
f 13 951 943
f 944 951 11
f 11 951 13
f 944 952 946
f 946 952 6
f 10 952 944
f 6 952 8
f 8 952 10
f 2 953 4
f 4 953 6
f 945 954 955
f 2 954 953
f 953 954 6
f 6 954 945
f 955 954 2
f 956 957 192
f 192 957 1
f 1 957 2
f 955 958 959
f 959 958 956
f 2 958 955
f 957 958 2
f 956 958 957
f 960 961 196
f 196 961 194
f 194 961 192
f 956 962 963
f 963 962 960
f 961 962 192
f 960 962 961
f 192 962 956
f 196 964 960
f 198 964 196
f 960 965 966
f 966 965 967
f 967 965 964
f 964 965 960
f 198 968 964
f 964 968 967
f 202 968 200
f 200 968 198
f 969 968 202
f 967 970 971
f 971 970 969
f 969 970 968
f 968 970 967
f 204 972 202
f 969 973 974
f 974 973 975
f 972 973 202
f 975 973 972
f 202 973 969
f 893 976 891
f 891 976 206
f 206 976 204
f 972 976 975
f 204 976 972
f 977 978 893
f 975 978 979
f 979 978 977
f 976 978 975
f 893 978 976
f 895 980 893
f 893 981 977
f 977 981 982
f 982 981 983
f 983 981 984
f 984 981 980
f 980 981 893
f 985 986 899
f 895 986 980
f 980 986 984
f 899 986 897
f 897 986 895
f 984 987 988
f 988 987 985
f 986 987 984
f 985 987 986
f 899 989 985
f 901 989 899
f 985 990 991
f 991 990 992
f 989 990 985
f 992 990 989
f 905 993 903
f 903 993 901
f 989 993 992
f 901 993 989
f 905 994 993
f 992 994 995
f 995 994 996
f 996 994 997
f 993 994 992
f 907 998 905
f 997 999 1000
f 1000 999 1001
f 905 999 994
f 994 999 997
f 1001 999 998
f 998 999 905
f 1002 1003 911
f 998 1003 1001
f 907 1003 998
f 911 1003 909
f 909 1003 907
f 1001 1004 1005
f 1005 1004 1002
f 1003 1004 1001
f 1002 1004 1003
f 913 1006 911
f 1002 1007 1008
f 1009 1007 1006
f 1008 1007 1009
f 1006 1007 911
f 911 1007 1002
f 1006 1010 1009
f 913 1010 1006
f 1011 1010 917
f 917 1010 915
f 915 1010 913
f 1009 1012 1013
f 1013 1012 1011
f 1010 1012 1009
f 1011 1012 1010
f 919 1014 917
f 1014 1015 917
f 1016 1015 1014
f 1011 1015 1017
f 1017 1015 1016
f 917 1015 1011
f 919 1018 1014
f 1014 1018 1016
f 923 1018 921
f 921 1018 919
f 1016 1019 1020
f 1020 1019 1021
f 1018 1019 1016
f 923 1019 1018
f 1021 1019 923
f 925 1022 923
f 1021 1023 1024
f 1024 1023 1025
f 1025 1023 1026
f 923 1023 1021
f 1022 1023 923
f 929 1027 927
f 927 1027 925
f 925 1027 1022
f 1028 1029 929
f 1023 1029 1026
f 1022 1029 1023
f 929 1029 1027
f 1027 1029 1022
f 1026 1029 1030
f 1030 1029 1028
f 931 1031 929
f 929 1032 1028
f 1028 1032 1033
f 1033 1032 1034
f 1031 1032 929
f 1034 1032 1031
f 1035 1036 935
f 935 1036 933
f 933 1036 931
f 1031 1036 1034
f 931 1036 1031
f 1035 1037 1036
f 1036 1037 1034
f 1034 1037 1038
f 1038 1037 1035
f 935 1039 1035
f 937 1039 935
f 1040 1041 1039
f 1035 1041 1042
f 1042 1041 1040
f 1039 1041 1035
f 1039 1043 1040
f 941 1043 939
f 939 1043 937
f 937 1043 1039
f 1044 1045 941
f 1043 1045 1040
f 1040 1045 1046
f 1046 1045 1044
f 941 1045 1043
f 136 1047 137
f 137 1047 941
f 941 1048 1044
f 1049 1048 136
f 1044 1048 1050
f 1050 1048 1049
f 136 1048 1047
f 1047 1048 941
f 1051 1052 141
f 141 1052 139
f 139 1052 136
f 1052 1053 136
f 136 1053 1049
f 1049 1053 1054
f 1054 1053 1051
f 1051 1053 1052
f 143 1055 141
f 1055 1056 141
f 141 1056 1051
f 1051 1056 1057
f 1057 1056 1058
f 1058 1056 1059
f 143 1060 1055
f 147 1060 145
f 145 1060 143
f 1056 1061 1059
f 1055 1061 1056
f 1060 1061 1055
f 147 1061 1060
f 1062 1061 147
f 1059 1061 1063
f 1063 1061 1062
f 149 1064 147
f 147 1065 1062
f 1062 1065 1066
f 1066 1065 1067
f 1064 1065 147
f 1067 1065 1064
f 153 1068 151
f 151 1068 149
f 149 1068 1064
f 1064 1068 1067
f 153 1069 1068
f 1067 1069 1070
f 1070 1069 1071
f 1071 1069 153
f 1068 1069 1067
f 155 1072 153
f 1073 1074 1072
f 1072 1074 153
f 1071 1074 1075
f 1075 1074 1076
f 1076 1074 1073
f 153 1074 1071
f 1072 1077 1073
f 159 1077 157
f 157 1077 155
f 155 1077 1072
f 159 1078 1077
f 1077 1078 1073
f 1073 1078 1079
f 1079 1078 1080
f 161 1081 159
f 159 1082 1078
f 1081 1082 159
f 1080 1082 1083
f 1083 1082 1084
f 1078 1082 1080
f 1084 1082 1081
f 161 1085 1081
f 165 1085 163
f 163 1085 161
f 1081 1085 1084
f 1086 1087 165
f 165 1087 1085
f 1084 1087 1088
f 1088 1087 1086
f 1085 1087 1084
f 167 1089 165
f 165 1090 1086
f 1089 1090 165
f 1091 1090 1089
f 1086 1090 1092
f 1092 1090 1093
f 1093 1090 1091
f 171 1094 169
f 169 1094 167
f 1089 1094 1091
f 167 1094 1089
f 1095 1096 171
f 1094 1096 1091
f 171 1096 1094
f 1091 1096 1097
f 1097 1096 1095
f 173 1098 171
f 171 1099 1095
f 1098 1099 171
f 1095 1099 1100
f 173 1101 1098
f 1102 1101 177
f 177 1101 175
f 175 1101 173
f 1102 1103 1101
f 1101 1103 1098
f 1100 1103 1104
f 1104 1103 1102
f 1099 1103 1100
f 1098 1103 1099
f 179 1105 177
f 1106 1107 1105
f 177 1107 1102
f 1102 1107 1108
f 1108 1107 1106
f 1105 1107 177
f 1105 1109 1106
f 183 1109 181
f 181 1109 179
f 1110 1109 183
f 179 1109 1105
f 1110 1111 1109
f 1109 1111 1106
f 1106 1111 1112
f 1112 1111 1110
f 185 1113 183
f 1114 1115 1113
f 183 1115 1110
f 1113 1115 183
f 1110 1115 1116
f 1116 1115 1114
f 1113 1117 1114
f 82 1117 187
f 187 1117 185
f 185 1117 1113
f 1117 1118 1114
f 82 1118 1117
f 1119 1118 82
f 1114 1118 1120
f 1120 1118 1121
f 1121 1118 1119
f 84 1122 81
f 81 1122 82
f 1123 1124 1122
f 1122 1124 82
f 82 1124 1119
f 1119 1124 1125
f 1125 1124 1123
f 1122 1126 1123
f 89 1126 87
f 87 1126 84
f 84 1126 1122
f 1127 1126 89
f 1127 1128 1126
f 1126 1128 1123
f 1123 1128 1129
f 1129 1128 1127
f 91 1130 89
f 1131 1132 1130
f 1130 1132 89
f 89 1132 1127
f 1127 1132 1133
f 1133 1132 1131
f 1130 1134 1131
f 95 1134 93
f 93 1134 91
f 91 1134 1130
f 1135 1136 1137
f 95 1136 1134
f 1134 1136 1131
f 1137 1136 95
f 1131 1136 1138
f 1138 1136 1135
f 97 1139 95
f 1137 1140 1141
f 1141 1140 1142
f 1139 1140 95
f 95 1140 1137
f 1142 1140 1139
f 101 1143 99
f 99 1143 97
f 97 1143 1139
f 1139 1143 1142
f 1143 1144 1142
f 1142 1144 1145
f 1145 1144 948
f 948 1144 101
f 101 1144 1143
f 103 1146 101
f 947 1147 1148
f 1148 1147 1149
f 101 1147 947
f 1149 1147 1146
f 1146 1147 101
f 1146 1150 1149
f 107 1150 105
f 105 1150 103
f 103 1150 1146
f 1149 1151 1152
f 1152 1151 1153
f 1150 1151 1149
f 1153 1151 107
f 107 1151 1150
f 109 1154 107
f 1153 1155 1156
f 1156 1155 1157
f 1157 1155 1158
f 107 1155 1153
f 1154 1155 107
f 113 1159 111
f 111 1159 109
f 109 1159 1154
f 1158 1160 1161
f 113 1160 1159
f 1161 1160 113
f 1155 1160 1158
f 1154 1160 1155
f 1159 1160 1154
f 115 1162 113
f 1161 1163 1164
f 1164 1163 1165
f 113 1163 1161
f 1165 1163 1162
f 1162 1163 113
f 119 1166 117
f 117 1166 115
f 115 1166 1162
f 1162 1166 1165
f 1165 1167 1168
f 1168 1167 1169
f 1166 1167 1165
f 119 1167 1166
f 1169 1167 119
f 123 1170 121
f 121 1170 119
f 1169 1171 1172
f 1172 1171 1173
f 119 1171 1169
f 1170 1171 119
f 125 1174 123
f 123 1174 1170
f 1173 1175 1176
f 1176 1175 1177
f 1177 1175 1178
f 1171 1175 1173
f 1178 1175 125
f 125 1175 1174
f 1170 1175 1171
f 1174 1175 1170
f 129 1179 127
f 127 1179 125
f 1178 1180 1181
f 1181 1180 1182
f 125 1180 1178
f 1179 1180 125
f 1182 1180 1179
f 131 1183 129
f 129 1183 1179
f 1184 1183 131
f 1179 1183 1182
f 1184 1185 1183
f 1182 1185 1186
f 1186 1185 1184
f 1183 1185 1182
f 33 1187 133
f 133 1187 131
f 1184 1188 1189
f 1189 1188 1190
f 131 1188 1184
f 1187 1188 131
f 35 1191 32
f 32 1191 33
f 33 1191 1187
f 949 1191 35
f 1187 1192 1188
f 1191 1192 1187
f 1188 1192 1190
f 949 1192 1191
f 1190 1192 1193
f 1193 1192 1194
f 1194 1192 949
f 38 1195 36
f 36 1195 950
f 889 1196 887
f 890 1197 1198
f 890 888 1197
f 888 1199 1197
f 888 1200 1199
f 888 885 1200
f 885 1201 1200
f 885 883 1201
f 883 1202 1201
f 883 1203 1202
f 883 880 1203
f 40 1204 38
f 1195 1205 1206
f 1204 1205 38
f 38 1205 1195
f 42 1207 40
f 40 1207 1204
f 1206 1208 1209
f 1204 1208 1205
f 1205 1208 1206
f 1207 1208 1204
f 44 1210 42
f 42 1210 1207
f 1210 1211 1207
f 1209 1211 1212
f 1207 1211 1208
f 1208 1211 1209
f 46 1213 44
f 44 1213 1210
f 1210 1214 1211
f 1212 1214 1215
f 1215 1214 1216
f 1211 1214 1212
f 1213 1214 1210
f 48 1217 46
f 46 1217 1213
f 1217 1218 1213
f 1216 1218 1219
f 1214 1218 1216
f 1213 1218 1214
f 50 1220 48
f 48 1220 1217
f 1217 1221 1218
f 1218 1221 1219
f 1220 1221 1217
f 1219 1221 1222
f 52 1223 50
f 50 1223 1220
f 1222 1224 1225
f 1225 1224 1226
f 1223 1224 1220
f 1221 1224 1222
f 1220 1224 1221
f 54 1227 52
f 52 1227 1223
f 1227 1228 1223
f 1226 1228 1229
f 1224 1228 1226
f 1223 1228 1224
f 54 1230 1227
f 58 1230 56
f 56 1230 54
f 1227 1231 1228
f 1228 1231 1229
f 1229 1231 1232
f 1232 1231 1233
f 1230 1231 1227
f 1230 1234 1231
f 58 1234 1230
f 61 1234 58
f 1231 1235 1233
f 1233 1235 1236
f 1234 1235 1231
f 63 1237 61
f 61 1237 1234
f 1234 1237 1235
f 1237 1238 1235
f 1235 1238 1236
f 1236 1238 1239
f 1239 1238 1240
f 65 1241 63
f 63 1241 1237
f 1238 1242 1240
f 1237 1242 1238
f 1240 1242 1243
f 1243 1242 1244
f 1241 1242 1237
f 67 1245 65
f 65 1245 1241
f 1245 1246 1241
f 1241 1246 1242
f 1244 1246 1247
f 1242 1246 1244
f 69 1248 67
f 67 1248 1245
f 1247 1249 1250
f 1245 1249 1246
f 1248 1249 1245
f 1246 1249 1247
f 71 1251 69
f 69 1251 1248
f 1248 1252 1249
f 1250 1252 1253
f 1249 1252 1250
f 1251 1252 1248
f 73 1254 71
f 71 1254 1251
f 1252 1255 1253
f 1253 1255 1256
f 1256 1255 1257
f 1254 1255 1251
f 1251 1255 1252
f 75 1258 73
f 73 1258 1254
f 1257 1259 1260
f 1255 1259 1257
f 1254 1259 1255
f 1258 1259 1254
f 77 1261 75
f 75 1261 1258
f 1260 1262 1263
f 1259 1262 1260
f 1258 1262 1259
f 1261 1262 1258
f 79 1264 77
f 77 1264 1261
f 1263 1265 1266
f 1262 1265 1263
f 1261 1265 1262
f 1264 1265 1261
f 1264 1267 1265
f 876 1267 874
f 79 1267 1264
f 874 1267 79
f 1266 1268 1269
f 1269 1268 1270
f 1265 1268 1266
f 1267 1268 1265
f 876 1271 1267
f 877 1271 876
f 1270 1272 1273
f 1268 1272 1270
f 1267 1272 1268
f 1271 1272 1267
f 877 1272 1271
f 1273 1274 1275
f 1275 1274 1276
f 882 1274 881
f 881 1274 877
f 877 1274 1272
f 1272 1274 1273
f 1276 1277 1278
f 884 1277 882
f 1278 1277 884
f 1274 1277 1276
f 882 1277 1274
f 1279 1280 886
f 1278 1280 1281
f 1281 1280 1279
f 886 1280 884
f 884 1280 1278
f 886 1282 1279
f 1196 1282 887
f 1279 1282 1283
f 1283 1282 1196
f 887 1282 886
f 889 1284 1196
f 1198 1284 890
f 1196 1284 1198
f 890 1284 889
f 869 59 57
f 862 66 64
f 862 863 66
f 863 68 66
f 863 864 68
f 864 70 68
f 864 866 70
f 866 72 70
f 866 74 72
f 1195 1285 950
f 86 1286 88
f 950 1286 86
f 1285 1286 950
f 1195 1287 1285
f 1206 1287 1195
f 1209 1287 1206
f 88 1288 90
f 90 1288 92
f 1286 1288 88
f 1285 1288 1286
f 1209 1288 1287
f 1287 1288 1285
f 1212 1289 1209
f 1209 1290 1288
f 92 1290 94
f 94 1290 1289
f 1289 1290 1209
f 1288 1290 92
f 1289 1291 94
f 1212 1291 1289
f 1215 1291 1212
f 1216 1291 1215
f 94 1292 96
f 96 1292 98
f 1291 1292 94
f 1216 1292 1291
f 100 1293 1222
f 1219 1293 1216
f 1222 1293 1219
f 98 1294 100
f 1292 1294 98
f 1293 1294 1216
f 1216 1294 1292
f 100 1294 1293
f 1225 1295 1222
f 1226 1295 1225
f 100 1296 102
f 1222 1296 100
f 1226 1296 1295
f 1295 1296 1222
f 1229 1297 1226
f 1232 1297 1229
f 102 1298 104
f 104 1298 106
f 1296 1298 102
f 1226 1298 1296
f 1297 1298 1226
f 1232 1298 1297
f 106 1298 1232
f 1233 1299 1232
f 1236 1299 1233
f 106 1300 108
f 1232 1300 106
f 1299 1300 1232
f 1236 1300 1299
f 1239 1301 1236
f 1240 1301 1239
f 1300 1302 108
f 108 1302 110
f 1236 1302 1300
f 110 1302 112
f 1301 1302 1236
f 1240 1302 1301
f 112 1302 1240
f 1243 1303 1240
f 1244 1303 1243
f 114 1303 1244
f 114 1304 1303
f 112 1304 114
f 1303 1304 1240
f 1240 1304 112
f 1244 1305 114
f 1247 1305 1244
f 1250 1305 1247
f 114 1306 116
f 116 1306 118
f 1250 1306 1305
f 1305 1306 114
f 1253 1307 1250
f 1256 1307 1253
f 118 1308 120
f 120 1308 1307
f 1307 1308 1250
f 1306 1308 118
f 1250 1308 1306
f 1307 1309 120
f 1256 1309 1307
f 1257 1309 1256
f 1309 1310 120
f 120 1310 122
f 1257 1311 1309
f 1309 1311 1310
f 1260 1311 1257
f 1263 1311 1260
f 126 1312 1263
f 1263 1312 1311
f 122 1312 124
f 124 1312 126
f 1311 1312 1310
f 1310 1312 122
f 1266 1313 1263
f 1269 1313 1266
f 1263 1314 126
f 126 1314 128
f 1313 1314 1263
f 1269 1314 1313
f 1270 1315 1269
f 1273 1315 1270
f 1273 1316 1315
f 132 1316 1273
f 128 1316 130
f 130 1316 132
f 1315 1316 1269
f 1314 1316 128
f 1269 1316 1314
f 1275 1317 1273
f 1276 1317 1275
f 1317 1318 1273
f 1273 1318 132
f 132 1318 134
f 1276 1318 1317
f 1278 1319 1276
f 1281 1319 1278
f 1319 1320 1276
f 1281 1320 1319
f 1276 1320 1318
f 1318 1320 134
f 134 1320 31
f 31 1320 34
f 34 1320 1281
f 1281 1321 34
f 1279 1321 1281
f 1283 1321 1279
f 1321 1322 34
f 34 1322 37
f 1283 1322 1321
f 41 1323 1198
f 1196 1323 1283
f 1198 1323 1196
f 1283 1324 1322
f 41 1324 1323
f 37 1324 39
f 39 1324 41
f 1323 1324 1283
f 1322 1324 37
f 1199 1325 1197
f 1200 1325 1199
f 1198 1325 41
f 1197 1325 1198
f 1325 1326 41
f 41 1326 43
f 1201 1327 1200
f 1202 1327 1201
f 1200 1327 1325
f 43 1328 45
f 1325 1328 1326
f 45 1328 47
f 1326 1328 43
f 1327 1328 1325
f 1202 1328 1327
f 1203 1329 1202
f 880 1329 1203
f 879 1329 880
f 47 1330 49
f 1328 1330 47
f 1202 1330 1328
f 879 1330 1329
f 1329 1330 1202
f 49 1330 879
f 873 1331 875
f 875 1331 878
f 49 1332 51
f 51 1332 53
f 873 1332 1331
f 1331 1332 878
f 878 1332 879
f 879 1332 49
f 53 1332 873
f 871 1333 872
f 872 1333 873
f 53 1334 55
f 871 1334 1333
f 1333 1334 873
f 873 1334 53
f 55 1334 871
f 55 1335 57
f 869 1335 870
f 870 1335 871
f 871 1335 55
f 57 1335 869
f 62 1336 867
f 59 1336 60
f 60 1336 62
f 867 1336 868
f 868 1336 869
f 869 1336 59
f 867 1337 62
f 64 1337 862
f 62 1337 64
f 862 1337 865
f 865 1337 867
f 240 943 244
f 943 248 244
f 943 252 248
f 943 944 252
f 944 1338 252
f 944 946 1338
f 946 1339 1338
f 946 1340 1339
f 946 945 1340
f 945 1341 1340
f 945 955 1341
f 955 1342 1341
f 955 959 1342
f 956 1343 959
f 959 1343 1342
f 963 1344 956
f 956 1344 1343
f 960 1345 963
f 963 1345 1344
f 960 1346 1345
f 967 1347 966
f 967 971 1347
f 969 1348 971
f 971 1348 1347
f 974 1349 969
f 969 1349 1348
f 975 979 1350
f 979 1351 1350
f 982 1352 977
f 983 1353 1354
f 984 1353 983
f 995 1355 992
f 997 29 996
f 997 28 29
f 1001 26 1000
f 947 154 948
f 950 85 949
f 950 86 85
f 966 1356 960
f 1346 1356 1347
f 960 1356 1346
f 1347 1356 966
f 1349 1357 1350
f 975 1357 974
f 974 1357 1349
f 1350 1357 975
f 979 1358 1351
f 1352 1358 977
f 1351 1358 1352
f 977 1358 979
f 1352 1359 1354
f 982 1359 1352
f 1354 1359 983
f 983 1359 982
f 1353 1360 1361
f 984 1360 1353
f 988 1360 984
f 985 1360 988
f 1361 1360 985
f 1362 1363 1355
f 1361 1363 1362
f 991 1363 985
f 992 1363 991
f 985 1363 1361
f 1355 1363 992
f 1355 1364 29
f 996 1364 995
f 995 1364 1355
f 29 1364 996
f 1000 1365 997
f 28 1365 26
f 997 1365 28
f 26 1365 1000
f 1005 1366 1001
f 1002 1366 1005
f 1001 1366 26
f 22 1366 1002
f 22 1367 1366
f 1366 1367 26
f 24 1367 22
f 26 1367 24
f 1008 1368 1002
f 1009 1368 1008
f 1002 1368 22
f 20 1368 1009
f 22 1369 20
f 1368 1369 22
f 20 1369 1368
f 1013 1370 1009
f 1011 1370 1013
f 1009 1370 20
f 14 1370 1011
f 14 1371 1370
f 16 1371 14
f 20 1371 16
f 1370 1371 20
f 1017 1372 1011
f 1016 1372 1017
f 1011 1372 14
f 12 1373 9
f 14 1373 12
f 1372 1373 14
f 1016 1373 1372
f 1020 1374 1016
f 1021 1374 1020
f 7 1374 1021
f 1374 1375 1016
f 9 1375 7
f 1373 1375 9
f 1016 1375 1373
f 7 1375 1374
f 1024 1376 1021
f 1025 1376 1024
f 1026 1376 1025
f 1021 1376 7
f 7 1377 189
f 189 1377 190
f 1376 1377 7
f 191 1378 1028
f 1030 1378 1026
f 1028 1378 1030
f 1026 1378 1376
f 190 1379 191
f 1378 1379 1376
f 1377 1379 190
f 1376 1379 1377
f 191 1379 1378
f 1028 1380 191
f 1033 1380 1028
f 1034 1380 1033
f 191 1381 193
f 193 1381 195
f 1380 1381 191
f 1034 1381 1380
f 197 1382 1035
f 1038 1382 1034
f 1035 1382 1038
f 1381 1383 195
f 197 1383 1382
f 1382 1383 1034
f 195 1383 197
f 1034 1383 1381
f 1042 1384 1035
f 1040 1384 1042
f 1035 1385 197
f 197 1385 199
f 199 1385 201
f 1384 1385 1035
f 1040 1385 1384
f 203 1386 1044
f 1046 1386 1040
f 1044 1386 1046
f 1386 1387 1040
f 201 1387 203
f 1385 1387 201
f 1040 1387 1385
f 203 1387 1386
f 1044 1388 203
f 1050 1388 1044
f 1049 1388 1050
f 1388 1389 203
f 203 1389 205
f 205 1389 207
f 1049 1389 1388
f 1054 1390 1049
f 1051 1390 1054
f 207 1391 892
f 892 1391 894
f 894 1391 1051
f 1049 1391 1389
f 1389 1391 207
f 1051 1391 1390
f 1390 1391 1049
f 1051 1392 894
f 1057 1392 1051
f 1058 1392 1057
f 1059 1392 1058
f 1392 1393 894
f 894 1393 896
f 1059 1394 1392
f 1063 1394 1059
f 1062 1394 1063
f 900 1394 1062
f 1392 1395 1393
f 896 1395 898
f 898 1395 900
f 1393 1395 896
f 1394 1395 1392
f 900 1395 1394
f 1066 1396 1062
f 1062 1396 900
f 1067 1396 1066
f 1067 1397 1396
f 1396 1397 900
f 900 1397 902
f 902 1397 904
f 1070 1398 1067
f 1071 1398 1070
f 906 1398 1071
f 1067 1399 1397
f 1397 1399 904
f 1398 1399 1067
f 906 1399 1398
f 904 1399 906
f 1075 1400 1071
f 1076 1400 1075
f 1073 1400 1076
f 1071 1400 906
f 1073 1401 1400
f 906 1401 908
f 908 1401 910
f 1400 1401 906
f 1079 1402 1073
f 1080 1402 1079
f 1401 1403 910
f 1402 1403 1073
f 1073 1403 1401
f 910 1403 912
f 912 1403 1402
f 1083 1404 1080
f 1084 1404 1083
f 1080 1404 1402
f 1402 1404 912
f 1084 1405 1404
f 1404 1405 912
f 912 1405 914
f 914 1405 916
f 918 1406 1086
f 1088 1406 1084
f 1086 1406 1088
f 1084 1407 1405
f 1405 1407 916
f 916 1407 918
f 918 1407 1406
f 1406 1407 1084
f 1086 1408 918
f 1092 1408 1086
f 1093 1408 1092
f 1091 1408 1093
f 918 1409 920
f 920 1409 922
f 1091 1409 1408
f 1408 1409 918
f 924 1410 1095
f 1097 1410 1091
f 1095 1410 1097
f 924 1411 1410
f 922 1411 924
f 1410 1411 1091
f 1409 1411 922
f 1091 1411 1409
f 1095 1412 924
f 1100 1412 1095
f 1412 1413 924
f 924 1413 926
f 926 1413 928
f 1100 1414 1412
f 1104 1414 1100
f 1102 1414 1104
f 1413 1415 928
f 1412 1415 1413
f 1414 1415 1412
f 930 1415 1102
f 1102 1415 1414
f 928 1415 930
f 1108 1416 1102
f 1106 1416 1108
f 1102 1417 930
f 1106 1417 1416
f 1416 1417 1102
f 930 1417 932
f 932 1417 934
f 1112 1418 1106
f 1110 1418 1112
f 936 1419 1110
f 1417 1419 934
f 1110 1419 1418
f 1106 1419 1417
f 934 1419 936
f 1418 1419 1106
f 1116 1420 1110
f 1114 1420 1116
f 1110 1421 936
f 936 1421 938
f 938 1421 940
f 1420 1421 1110
f 1114 1421 1420
f 135 1422 1119
f 1120 1422 1114
f 1121 1422 1120
f 1119 1422 1121
f 1422 1423 1114
f 940 1423 942
f 942 1423 135
f 1114 1423 1421
f 1421 1423 940
f 135 1423 1422
f 1119 1424 135
f 1125 1424 1119
f 1123 1424 1125
f 1123 1425 1424
f 135 1425 138
f 138 1425 140
f 1424 1425 135
f 1129 1426 1123
f 1127 1426 1129
f 1426 1427 1123
f 1425 1427 140
f 1127 1427 1426
f 140 1427 142
f 142 1427 1127
f 1123 1427 1425
f 1127 1428 142
f 1133 1428 1127
f 1131 1428 1133
f 1428 1429 142
f 1131 1429 1428
f 142 1429 144
f 144 1429 146
f 148 1430 1137
f 1138 1430 1131
f 1135 1430 1138
f 1137 1430 1135
f 1131 1431 1429
f 148 1431 1430
f 146 1431 148
f 1429 1431 146
f 1430 1431 1131
f 1142 1432 1141
f 1137 1432 148
f 1141 1432 1137
f 1142 1433 1432
f 1432 1433 148
f 148 1433 150
f 150 1433 152
f 1145 1434 1142
f 948 1434 1145
f 154 1434 948
f 1433 1435 152
f 1142 1435 1433
f 1434 1435 1142
f 152 1435 154
f 154 1435 1434
f 947 1436 154
f 1148 1436 947
f 1149 1436 1148
f 1436 1437 154
f 154 1437 156
f 156 1437 158
f 1149 1437 1436
f 1152 1438 1149
f 1153 1438 1152
f 160 1438 1153
f 160 1439 1438
f 1149 1439 1437
f 1438 1439 1149
f 158 1439 160
f 1437 1439 158
f 1156 1440 1153
f 1157 1440 1156
f 1158 1440 1157
f 1153 1440 160
f 1440 1441 160
f 160 1441 162
f 162 1441 164
f 1161 1442 1158
f 166 1442 1161
f 1158 1442 1440
f 1440 1443 1441
f 1441 1443 164
f 166 1443 1442
f 1442 1443 1440
f 164 1443 166
f 1164 1444 1161
f 1165 1444 1164
f 1161 1444 166
f 1444 1445 166
f 1165 1445 1444
f 166 1445 168
f 168 1445 170
f 1168 1446 1165
f 1169 1446 1168
f 172 1446 1169
f 1165 1447 1445
f 1445 1447 170
f 172 1447 1446
f 1446 1447 1165
f 170 1447 172
f 1172 1448 1169
f 1173 1448 1172
f 1169 1448 172
f 1448 1449 172
f 172 1449 174
f 174 1449 176
f 1176 1450 1173
f 1177 1450 1176
f 1178 1450 1177
f 1173 1450 1448
f 178 1450 1178
f 1448 1451 1449
f 1449 1451 176
f 178 1451 1450
f 1450 1451 1448
f 176 1451 178
f 1181 1452 1178
f 1182 1452 1181
f 1178 1452 178
f 1452 1453 178
f 1182 1453 1452
f 178 1453 180
f 180 1453 182
f 1186 1454 1182
f 1184 1454 1186
f 1182 1455 1453
f 1453 1455 182
f 1184 1455 1454
f 1454 1455 1182
f 184 1455 1184
f 182 1455 184
f 1189 1456 1184
f 1190 1456 1189
f 188 1456 1190
f 188 1457 1456
f 1184 1457 184
f 1456 1457 1184
f 184 1457 186
f 186 1457 188
f 1193 1458 1190
f 1194 1458 1193
f 949 1458 1194
f 1190 1458 188
f 1458 1459 188
f 85 1459 949
f 949 1459 1458
f 188 1459 80
f 80 1459 83
f 83 1459 85
f 30 1355 29
f 30 218 1355
f 218 1362 1355
f 1362 214 1361
f 218 214 1362
f 1361 209 1353
f 214 209 1361
f 1353 213 1354
f 209 213 1353
f 1354 217 1352
f 213 217 1354
f 1352 221 1351
f 217 221 1352
f 1351 224 1350
f 221 224 1351
f 1350 227 1349
f 224 227 1350
f 1349 230 1348
f 227 230 1349
f 1348 232 1347
f 230 232 1348
f 232 1346 1347
f 232 236 1346
f 236 1345 1346
f 236 239 1345
f 239 1344 1345
f 239 243 1344
f 243 1343 1344
f 243 247 1343
f 247 1342 1343
f 247 251 1342
f 251 1341 1342
f 251 256 1341
f 1341 256 1340
f 256 1339 1340
f 256 254 1339
f 254 1338 1339
f 254 252 1338
f 15 240 17
