# Full FreeCAD instance transform baked; body-local coordinates in mm
v 1.561893400 72.590212600 143.230000000
v 1.561893400 72.290212600 143.230000000
v 1.511893400 72.510212600 143.280000000
v 1.511893400 72.590212600 143.280000000
v 1.436893400 72.590298222 143.279350356
v 1.286893400 72.590298222 143.279350356
v 1.211893400 72.510212600 143.280000000
v 1.211893400 72.590212600 143.280000000
v 1.161893400 72.290212600 143.230000000
v 15.561893400 72.290212600 143.230000000
v 16.064393400 72.590212600 143.230000000
v 16.064393400 69.690212600 143.230000000
v 15.561893400 72.590212600 143.230000000
v 15.161893400 72.290212600 143.230000000
v 15.061893400 72.290212600 143.230000000
v 15.161893400 72.590212600 143.230000000
v 15.061893400 72.590212600 143.230000000
v 14.661893400 72.290212600 143.230000000
v 14.561893400 72.290212600 143.230000000
v 14.661893400 72.590212600 143.230000000
v 14.561893400 72.590212600 143.230000000
v 14.161893400 72.290212600 143.230000000
v 14.061893400 72.290212600 143.230000000
v 14.161893400 72.590212600 143.230000000
v 14.061893400 72.590212600 143.230000000
v 13.661893400 72.290212600 143.230000000
v 13.561893400 72.290212600 143.230000000
v 13.661893400 72.590212600 143.230000000
v 13.561893400 72.590212600 143.230000000
v 13.161893400 72.290212600 143.230000000
v 13.061893400 72.290212600 143.230000000
v 13.161893400 72.590212600 143.230000000
v 13.061893400 72.590212600 143.230000000
v 12.661893400 72.290212600 143.230000000
v 12.561893400 72.290212600 143.230000000
v 12.661893400 72.590212600 143.230000000
v 12.561893400 72.590212600 143.230000000
v 12.161893400 72.290212600 143.230000000
v 12.061893400 72.290212600 143.230000000
v 12.161893400 72.590212600 143.230000000
v 12.061893400 72.590212600 143.230000000
v 11.661893400 72.290212600 143.230000000
v 11.561893400 72.290212600 143.230000000
v 11.661893400 72.590212600 143.230000000
v 11.561893400 72.590212600 143.230000000
v 11.161893400 72.290212600 143.230000000
v 11.061893400 72.290212600 143.230000000
v 11.161893400 72.590212600 143.230000000
v 11.061893400 72.590212600 143.230000000
v 10.661893400 72.290212600 143.230000000
v 10.561893400 72.290212600 143.230000000
v 10.661893400 72.590212600 143.230000000
v 10.561893400 72.590212600 143.230000000
v 10.161893400 72.290212600 143.230000000
v 10.061893400 72.290212600 143.230000000
v 10.161893400 72.590212600 143.230000000
v 10.061893400 72.590212600 143.230000000
v 9.661893400 72.290212600 143.230000000
v 9.561893400 72.290212600 143.230000000
v 9.661893400 72.590212600 143.230000000
v 9.561893400 72.590212600 143.230000000
v 9.161893400 72.290212600 143.230000000
v 9.061893400 72.290212600 143.230000000
v 9.061893400 72.590212600 143.230000000
v 9.161893400 72.590212600 143.230000000
v 8.661893400 72.290212600 143.230000000
v 8.561893400 72.290212600 143.230000000
v 8.561893400 72.590212600 143.230000000
v 8.661893400 72.590212600 143.230000000
v 8.161893400 72.290212600 143.230000000
v 8.061893400 72.290212600 143.230000000
v 8.061893400 72.590212600 143.230000000
v 8.161893400 72.590212600 143.230000000
v 7.561893400 72.590212600 143.230000000
v 7.661893400 72.290212600 143.230000000
v 7.561893400 72.290212600 143.230000000
v 7.661893400 72.590212600 143.230000000
v 7.061893400 72.590212600 143.230000000
v 7.161893400 72.590212600 143.230000000
v 7.161893400 72.290212600 143.230000000
v 7.061893400 72.290212600 143.230000000
v 6.661893400 72.590212600 143.230000000
v 6.661893400 72.290212600 143.230000000
v 6.561893400 72.290212600 143.230000000
v 6.561893400 72.590212600 143.230000000
v 6.061893400 72.590212600 143.230000000
v 6.161893400 72.590212600 143.230000000
v 6.161893400 72.290212600 143.230000000
v 6.061893400 72.290212600 143.230000000
v 5.661893400 72.590212600 143.230000000
v 5.661893400 72.290212600 143.230000000
v 5.561893400 72.290212600 143.230000000
v 5.561893400 72.590212600 143.230000000
v 5.161893400 72.590212600 143.230000000
v 5.161893400 72.290212600 143.230000000
v 5.061893400 72.290212600 143.230000000
v 5.061893400 72.590212600 143.230000000
v 4.661893400 72.590212600 143.230000000
v 4.661893400 72.290212600 143.230000000
v 4.561893400 72.290212600 143.230000000
v 4.561893400 72.590212600 143.230000000
v 4.161893400 72.590212600 143.230000000
v 4.161893400 72.290212600 143.230000000
v 4.061893400 72.290212600 143.230000000
v 4.061893400 72.590212600 143.230000000
v 3.661893400 72.590212600 143.230000000
v 3.661893400 72.290212600 143.230000000
v 3.561893400 72.290212600 143.230000000
v 3.561893400 72.590212600 143.230000000
v 3.161893400 72.590212600 143.230000000
v 3.161893400 72.290212600 143.230000000
v 3.061893400 72.290212600 143.230000000
v 3.061893400 72.590212600 143.230000000
v 0.159393400 69.690212600 143.230000000
v 2.661893400 72.290212600 143.230000000
v 2.561893400 72.290212600 143.230000000
v 2.661893400 72.590212600 143.230000000
v 2.561893400 72.590212600 143.230000000
v 2.161893400 72.290212600 143.230000000
v 2.061893400 72.290212600 143.230000000
v 2.061893400 72.590212600 143.230000000
v 2.161893400 72.590212600 143.230000000
v 1.661893400 72.290212600 143.230000000
v 1.661893400 72.590212600 143.230000000
v 1.061893400 72.290212600 143.230000000
v 1.161893400 72.590212600 143.230000000
v 1.061893400 72.590212600 143.230000000
v 0.661893400 72.290212600 143.230000000
v 0.159393400 72.590212600 143.230000000
v 0.661893400 72.590212600 143.230000000
v 16.064393400 69.690212600 143.330000000
v 16.064393400 69.690212600 144.200000000
v 16.016893400 69.690212600 144.200000000
v 16.016893400 69.690212600 143.300000000
v 0.159393400 69.690212600 143.330000000
v 0.206893400 69.690212600 143.300000000
v 0.206893400 69.690212600 144.200000000
v 0.159393400 69.690212600 144.200000000
v 15.896893400 69.810212600 143.388888889
v 15.896893400 69.960212600 143.500000000
v 0.326893400 69.810212600 143.388888889
v 0.326893400 69.960212600 143.500000000
v 0.326893400 69.810212600 144.093333333
v 0.306893400 69.790212600 144.120000000
v 0.306893400 69.790212600 144.200000000
v 15.916893400 69.790212600 144.120000000
v 15.896893400 69.810212600 144.093333333
v 0.326893400 69.940212600 143.920000000
v 15.896893400 69.940212600 143.920000000
v 15.916893400 69.790212600 144.200000000
v 0.009393400 69.840212600 144.200000000
v 0.009393400 70.590212600 144.200000000
v -0.188106600 71.570212600 144.200000000
v -0.388106600 70.590212600 144.200000000
v -0.388106600 72.590212600 144.200000000
v -0.188106600 72.490212600 144.200000000
v -0.288106600 72.590212600 144.200000000
v 16.214393400 69.840212600 144.200000000
v 16.214393400 70.590212600 144.200000000
v 16.411893400 71.570212600 144.200000000
v 16.611893400 70.590212600 144.200000000
v 16.611893400 72.590212600 144.200000000
v 16.511893400 72.590212600 144.200000000
v 16.411893400 72.490212600 144.200000000
v -0.188106600 71.570212600 144.040000000
v 16.411893400 71.570212600 144.040000000
v -0.188106600 72.490212600 144.040000000
v -0.288106600 72.590212600 143.510000000
v -0.188106600 72.490212600 143.510000000
v -0.388106600 72.590212600 143.280000000
v -0.158106600 72.590212600 143.510000000
v 0.786893400 72.590212600 143.510000000
v 0.159393400 72.590212600 143.280000000
v 0.711893400 72.590212600 143.280000000
v 0.786893400 72.590298222 143.279350356
v 0.786893400 72.521434320 143.259591561
v 0.786893400 72.533399234 143.265411547
v 0.786893400 72.513163123 143.249169532
v 0.786893400 72.510212600 143.236195489
v 0.786893400 72.510212600 143.200000000
v 0.786893400 72.840212600 143.200000000
v 0.786893400 72.890212600 143.310000000
v 0.786893400 72.890212600 143.250000000
v 0.786893400 72.896911330 143.335000000
v 0.786893400 72.940212600 143.510000000
v 0.786893400 72.915212600 143.353301270
v 0.786893400 72.940212600 143.360000000
v 0.936893400 72.940212600 143.360000000
v 0.936893400 72.940212600 143.510000000
v -0.158106600 73.240212600 143.510000000
v 1.286893400 72.940212600 143.510000000
v 0.936893400 72.590212600 143.510000000
v 1.286893400 72.590212600 143.510000000
v 1.436893400 72.940212600 143.510000000
v 1.786893400 72.940212600 143.510000000
v 1.436893400 72.590212600 143.510000000
v 1.786893400 72.590212600 143.510000000
v 1.936893400 72.590212600 143.510000000
v 1.936893400 72.940212600 143.510000000
v 2.286893400 72.590212600 143.510000000
v 2.286893400 72.940212600 143.510000000
v 2.436893400 72.940212600 143.510000000
v 2.786893400 72.940212600 143.510000000
v 2.436893400 72.590212600 143.510000000
v 2.786893400 72.590212600 143.510000000
v 2.936893400 72.940212600 143.510000000
v 3.286893400 72.940212600 143.510000000
v 2.936893400 72.590212600 143.510000000
v 3.286893400 72.590212600 143.510000000
v 3.436893400 72.940212600 143.510000000
v 3.786893400 72.940212600 143.510000000
v 3.436893400 72.590212600 143.510000000
v 3.786893400 72.590212600 143.510000000
v 3.936893400 72.940212600 143.510000000
v 4.286893400 72.940212600 143.510000000
v 3.936893400 72.590212600 143.510000000
v 4.286893400 72.590212600 143.510000000
v 4.436893400 72.940212600 143.510000000
v 4.786893400 72.940212600 143.510000000
v 4.436893400 72.590212600 143.510000000
v 4.786893400 72.590212600 143.510000000
v 4.936893400 72.940212600 143.510000000
v 5.286893400 72.940212600 143.510000000
v 4.936893400 72.590212600 143.510000000
v 5.286893400 72.590212600 143.510000000
v 5.436893400 72.940212600 143.510000000
v 5.786893400 72.940212600 143.510000000
v 5.436893400 72.590212600 143.510000000
v 5.786893400 72.590212600 143.510000000
v 5.936893400 72.940212600 143.510000000
v 6.286893400 72.940212600 143.510000000
v 5.936893400 72.590212600 143.510000000
v 6.286893400 72.590212600 143.510000000
v 6.436893400 72.940212600 143.510000000
v 6.786893400 72.940212600 143.510000000
v 6.436893400 72.590212600 143.510000000
v 6.786893400 72.590212600 143.510000000
v 6.936893400 72.940212600 143.510000000
v 7.286893400 72.940212600 143.510000000
v 6.936893400 72.590212600 143.510000000
v 7.286893400 72.590212600 143.510000000
v 7.436893400 72.940212600 143.510000000
v 7.786893400 72.940212600 143.510000000
v 7.436893400 72.590212600 143.510000000
v 7.786893400 72.590212600 143.510000000
v 7.936893400 72.940212600 143.510000000
v 8.286893400 72.940212600 143.510000000
v 7.936893400 72.590212600 143.510000000
v 8.286893400 72.590212600 143.510000000
v 8.436893400 72.590212600 143.510000000
v 8.436893400 72.940212600 143.510000000
v 8.786893400 72.590212600 143.510000000
v 8.786893400 72.940212600 143.510000000
v 8.936893400 72.940212600 143.510000000
v 9.286893400 72.940212600 143.510000000
v 8.936893400 72.590212600 143.510000000
v 9.286893400 72.590212600 143.510000000
v 9.436893400 72.940212600 143.510000000
v 9.786893400 72.940212600 143.510000000
v 9.436893400 72.590212600 143.510000000
v 9.786893400 72.590212600 143.510000000
v 9.936893400 72.940212600 143.510000000
v 10.286893400 72.940212600 143.510000000
v 9.936893400 72.590212600 143.510000000
v 10.286893400 72.590212600 143.510000000
v 10.436893400 72.940212600 143.510000000
v 10.786893400 72.940212600 143.510000000
v 10.436893400 72.590212600 143.510000000
v 10.786893400 72.590212600 143.510000000
v 10.936893400 72.940212600 143.510000000
v 11.286893400 72.940212600 143.510000000
v 10.936893400 72.590212600 143.510000000
v 11.286893400 72.590212600 143.510000000
v 11.436893400 72.940212600 143.510000000
v 11.786893400 72.940212600 143.510000000
v 11.436893400 72.590212600 143.510000000
v 11.786893400 72.590212600 143.510000000
v 11.936893400 72.940212600 143.510000000
v 12.286893400 72.940212600 143.510000000
v 11.936893400 72.590212600 143.510000000
v 12.286893400 72.590212600 143.510000000
v 12.436893400 72.940212600 143.510000000
v 12.786893400 72.940212600 143.510000000
v 12.436893400 72.590212600 143.510000000
v 12.786893400 72.590212600 143.510000000
v 12.936893400 72.940212600 143.510000000
v 13.286893400 72.940212600 143.510000000
v 12.936893400 72.590212600 143.510000000
v 13.286893400 72.590212600 143.510000000
v 13.436893400 72.940212600 143.510000000
v 13.786893400 72.940212600 143.510000000
v 13.436893400 72.590212600 143.510000000
v 13.786893400 72.590212600 143.510000000
v 13.936893400 72.940212600 143.510000000
v 14.286893400 72.940212600 143.510000000
v 13.936893400 72.590212600 143.510000000
v 14.286893400 72.590212600 143.510000000
v 14.436893400 72.590212600 143.510000000
v 14.436893400 72.940212600 143.510000000
v 14.786893400 72.590212600 143.510000000
v 14.786893400 72.940212600 143.510000000
v 14.936893400 72.940212600 143.510000000
v 15.286893400 72.940212600 143.510000000
v 14.936893400 72.590212600 143.510000000
v 15.286893400 72.590212600 143.510000000
v 15.436893400 72.940212600 143.510000000
v 16.381893400 72.590212600 143.510000000
v 15.436893400 72.590212600 143.510000000
v 16.381893400 73.240212600 143.510000000
v 16.381893400 73.240212600 143.670000000
v -0.158106600 73.240212600 143.670000000
v 16.381893400 73.490212600 143.800000000
v -0.158106600 73.490212600 143.800000000
v 16.381893400 73.490212600 144.090000000
v 16.331893400 73.490212600 144.140000000
v -0.108106600 73.490212600 144.140000000
v -0.158106600 73.490212600 144.090000000
v -0.108106600 72.100212600 144.140000000
v 16.331893400 72.100212600 144.140000000
v -0.120252669 72.062121421 144.127853931
v -0.158106600 72.050212600 144.090000000
v 16.381893400 72.050212600 144.090000000
v 16.344035302 72.062125591 144.127858098
v 16.381893400 72.490212600 144.040000000
v 16.381893400 72.490212600 143.510000000
v 16.381893400 72.050212600 144.040000000
v -0.158106600 72.050212600 144.040000000
v -0.158106600 72.490212600 144.040000000
v 16.411893400 72.490212600 144.040000000
v -0.158106600 72.490212600 143.510000000
v 16.411893400 72.490212600 143.510000000
v 16.511893400 72.590212600 143.510000000
v 15.511893400 72.590212600 143.280000000
v 15.436893400 72.590329462 143.279357642
v 16.064393400 72.590212600 143.280000000
v 16.611893400 72.590212600 143.280000000
v 15.436893400 72.521434320 143.259591561
v 15.436893400 72.513163123 143.249169532
v 15.436893400 72.510212600 143.236195489
v 15.436893400 72.533399234 143.265411547
v 15.436893400 72.510212600 143.200000000
v 15.436893400 72.840212600 143.200000000
v 15.436893400 72.890212600 143.310000000
v 15.436893400 72.890212600 143.250000000
v 15.436893400 72.896911330 143.335000000
v 15.436893400 72.915212600 143.353301270
v 15.436893400 72.940212600 143.360000000
v 15.286893400 72.590329462 143.279357642
v 15.286893400 72.533399234 143.265411547
v 15.511893400 72.510212600 143.280000000
v 15.211893400 72.510212600 143.280000000
v 15.211893400 72.590212600 143.280000000
v 15.011893400 72.590212600 143.280000000
v 14.936893400 72.590329462 143.279357642
v 15.286893400 72.521434320 143.259591561
v 15.286893400 72.513163123 143.249169532
v 15.286893400 72.510212600 143.236195489
v 15.286893400 72.510212600 143.200000000
v 15.286893400 72.840212600 143.200000000
v 15.286893400 72.890212600 143.310000000
v 15.286893400 72.890212600 143.250000000
v 15.286893400 72.896911330 143.335000000
v 15.286893400 72.915212600 143.353301270
v 15.286893400 72.940212600 143.360000000
v 14.936893400 72.521434320 143.259591561
v 14.936893400 72.513163123 143.249169532
v 14.936893400 72.510212600 143.236195489
v 14.936893400 72.533399234 143.265411547
v 14.936893400 72.510212600 143.200000000
v 14.936893400 72.840212600 143.200000000
v 14.936893400 72.890212600 143.310000000
v 14.936893400 72.890212600 143.250000000
v 14.936893400 72.896911330 143.335000000
v 14.936893400 72.915212600 143.353301270
v 14.936893400 72.940212600 143.360000000
v 14.786893400 72.533399234 143.265411547
v 14.786893400 72.590329462 143.279357642
v 14.786893400 72.521434320 143.259591561
v 14.786893400 72.513163123 143.249169532
v 14.786893400 72.510212600 143.236195489
v 14.786893400 72.510212600 143.200000000
v 14.786893400 72.840212600 143.200000000
v 14.786893400 72.890212600 143.310000000
v 14.786893400 72.890212600 143.250000000
v 14.786893400 72.896911330 143.335000000
v 14.786893400 72.915212600 143.353301270
v 14.786893400 72.940212600 143.360000000
v 14.511893400 72.590212600 143.280000000
v 14.436893400 72.590329462 143.279357642
v 14.711893400 72.590212600 143.280000000
v 14.436893400 72.521434320 143.259591561
v 14.436893400 72.513163123 143.249169532
v 14.436893400 72.510212600 143.236195489
v 14.436893400 72.533399234 143.265411547
v 14.436893400 72.510212600 143.200000000
v 14.436893400 72.840212600 143.200000000
v 14.436893400 72.890212600 143.310000000
v 14.436893400 72.890212600 143.250000000
v 14.436893400 72.896911330 143.335000000
v 14.436893400 72.915212600 143.353301270
v 14.436893400 72.940212600 143.360000000
v 14.286893400 72.533399234 143.265411547
v 14.286893400 72.590329462 143.279357642
v 14.286893400 72.521434320 143.259591561
v 14.286893400 72.513163123 143.249169532
v 14.286893400 72.510212600 143.236195489
v 14.286893400 72.510212600 143.200000000
v 14.286893400 72.840212600 143.200000000
v 14.286893400 72.890212600 143.310000000
v 14.286893400 72.890212600 143.250000000
v 14.286893400 72.896911330 143.335000000
v 14.286893400 72.915212600 143.353301270
v 14.286893400 72.940212600 143.360000000
v 14.011893400 72.590212600 143.280000000
v 13.936893400 72.590329462 143.279357642
v 14.211893400 72.590212600 143.280000000
v 13.936893400 72.521434320 143.259591561
v 13.936893400 72.513163123 143.249169532
v 13.936893400 72.510212600 143.236195489
v 13.936893400 72.533399234 143.265411547
v 13.936893400 72.510212600 143.200000000
v 13.936893400 72.840212600 143.200000000
v 13.936893400 72.890212600 143.310000000
v 13.936893400 72.890212600 143.250000000
v 13.936893400 72.896911330 143.335000000
v 13.936893400 72.915212600 143.353301270
v 13.936893400 72.940212600 143.360000000
v 13.786893400 72.533399234 143.265411547
v 13.786893400 72.590329462 143.279357642
v 13.786893400 72.521434320 143.259591561
v 13.786893400 72.513163123 143.249169532
v 13.786893400 72.510212600 143.236195489
v 13.786893400 72.510212600 143.200000000
v 13.786893400 72.840212600 143.200000000
v 13.786893400 72.890212600 143.310000000
v 13.786893400 72.890212600 143.250000000
v 13.786893400 72.896911330 143.335000000
v 13.786893400 72.915212600 143.353301270
v 13.786893400 72.940212600 143.360000000
v 13.511893400 72.590212600 143.280000000
v 13.436893400 72.590298222 143.279350356
v 13.711893400 72.590212600 143.280000000
v 13.436893400 72.521434320 143.259591561
v 13.436893400 72.513163123 143.249169532
v 13.436893400 72.510212600 143.236195489
v 13.436893400 72.533399234 143.265411547
v 13.436893400 72.510212600 143.200000000
v 13.436893400 72.840212600 143.200000000
v 13.436893400 72.890212600 143.310000000
v 13.436893400 72.890212600 143.250000000
v 13.436893400 72.896911330 143.335000000
v 13.436893400 72.915212600 143.353301270
v 13.436893400 72.940212600 143.360000000
v 13.286893400 72.590298222 143.279350356
v 13.286893400 72.533399234 143.265411547
v 13.286893400 72.521434320 143.259591561
v 13.286893400 72.513163123 143.249169532
v 13.286893400 72.510212600 143.236195489
v 13.286893400 72.510212600 143.200000000
v 13.286893400 72.840212600 143.200000000
v 13.286893400 72.890212600 143.310000000
v 13.286893400 72.890212600 143.250000000
v 13.286893400 72.896911330 143.335000000
v 13.286893400 72.915212600 143.353301270
v 13.286893400 72.940212600 143.360000000
v 13.011893400 72.590212600 143.280000000
v 12.936893400 72.590298222 143.279350356
v 13.211893400 72.590212600 143.280000000
v 12.936893400 72.521434320 143.259591561
v 12.936893400 72.513163123 143.249169532
v 12.936893400 72.510212600 143.236195489
v 12.936893400 72.533399234 143.265411547
v 12.936893400 72.510212600 143.200000000
v 12.936893400 72.840212600 143.200000000
v 12.936893400 72.890212600 143.310000000
v 12.936893400 72.890212600 143.250000000
v 12.936893400 72.896911330 143.335000000
v 12.936893400 72.915212600 143.353301270
v 12.936893400 72.940212600 143.360000000
v 12.786893400 72.590298222 143.279350356
v 12.786893400 72.533399234 143.265411547
v 12.786893400 72.521434320 143.259591561
v 12.786893400 72.513163123 143.249169532
v 12.786893400 72.510212600 143.236195489
v 12.786893400 72.510212600 143.200000000
v 12.786893400 72.840212600 143.200000000
v 12.786893400 72.890212600 143.310000000
v 12.786893400 72.890212600 143.250000000
v 12.786893400 72.896911330 143.335000000
v 12.786893400 72.915212600 143.353301270
v 12.786893400 72.940212600 143.360000000
v 12.511893400 72.590212600 143.280000000
v 12.436893400 72.590329462 143.279357642
v 12.711893400 72.590212600 143.280000000
v 12.436893400 72.521434320 143.259591561
v 12.436893400 72.513163123 143.249169532
v 12.436893400 72.510212600 143.236195489
v 12.436893400 72.533399234 143.265411547
v 12.436893400 72.510212600 143.200000000
v 12.436893400 72.840212600 143.200000000
v 12.436893400 72.890212600 143.310000000
v 12.436893400 72.890212600 143.250000000
v 12.436893400 72.896911330 143.335000000
v 12.436893400 72.915212600 143.353301270
v 12.436893400 72.940212600 143.360000000
v 12.286893400 72.533399234 143.265411547
v 12.286893400 72.590329462 143.279357642
v 12.286893400 72.521434320 143.259591561
v 12.286893400 72.513163123 143.249169532
v 12.286893400 72.510212600 143.236195489
v 12.286893400 72.510212600 143.200000000
v 12.286893400 72.840212600 143.200000000
v 12.286893400 72.890212600 143.310000000
v 12.286893400 72.890212600 143.250000000
v 12.286893400 72.896911330 143.335000000
v 12.286893400 72.915212600 143.353301270
v 12.286893400 72.940212600 143.360000000
v 12.011893400 72.590212600 143.280000000
v 11.936893400 72.590298222 143.279350356
v 12.211893400 72.590212600 143.280000000
v 11.936893400 72.521434320 143.259591561
v 11.936893400 72.513163123 143.249169532
v 11.936893400 72.510212600 143.236195489
v 11.936893400 72.533399234 143.265411547
v 11.936893400 72.510212600 143.200000000
v 11.936893400 72.840212600 143.200000000
v 11.936893400 72.890212600 143.310000000
v 11.936893400 72.890212600 143.250000000
v 11.936893400 72.896911330 143.335000000
v 11.936893400 72.915212600 143.353301270
v 11.936893400 72.940212600 143.360000000
v 11.786893400 72.590298222 143.279350356
v 11.786893400 72.533399234 143.265411547
v 11.786893400 72.521434320 143.259591561
v 11.786893400 72.513163123 143.249169532
v 11.786893400 72.510212600 143.236195489
v 11.786893400 72.510212600 143.200000000
v 11.786893400 72.840212600 143.200000000
v 11.786893400 72.890212600 143.310000000
v 11.786893400 72.890212600 143.250000000
v 11.786893400 72.896911330 143.335000000
v 11.786893400 72.915212600 143.353301270
v 11.786893400 72.940212600 143.360000000
v 11.511893400 72.590212600 143.280000000
v 11.436893400 72.590298222 143.279350356
v 11.711893400 72.590212600 143.280000000
v 11.436893400 72.521434320 143.259591561
v 11.436893400 72.513163123 143.249169532
v 11.436893400 72.510212600 143.236195489
v 11.436893400 72.533399234 143.265411547
v 11.436893400 72.510212600 143.200000000
v 11.436893400 72.840212600 143.200000000
v 11.436893400 72.890212600 143.310000000
v 11.436893400 72.890212600 143.250000000
v 11.436893400 72.896911330 143.335000000
v 11.436893400 72.915212600 143.353301270
v 11.436893400 72.940212600 143.360000000
v 11.286893400 72.590298222 143.279350356
v 11.286893400 72.533399234 143.265411547
v 11.286893400 72.521434320 143.259591561
v 11.286893400 72.513163123 143.249169532
v 11.286893400 72.510212600 143.236195489
v 11.286893400 72.510212600 143.200000000
v 11.286893400 72.840212600 143.200000000
v 11.286893400 72.890212600 143.310000000
v 11.286893400 72.890212600 143.250000000
v 11.286893400 72.896911330 143.335000000
v 11.286893400 72.915212600 143.353301270
v 11.286893400 72.940212600 143.360000000
v 11.011893400 72.590212600 143.280000000
v 10.936893400 72.590298222 143.279350356
v 11.211893400 72.590212600 143.280000000
v 10.936893400 72.521434320 143.259591561
v 10.936893400 72.513163123 143.249169532
v 10.936893400 72.510212600 143.236195489
v 10.936893400 72.533399234 143.265411547
v 10.936893400 72.510212600 143.200000000
v 10.936893400 72.840212600 143.200000000
v 10.936893400 72.890212600 143.310000000
v 10.936893400 72.890212600 143.250000000
v 10.936893400 72.896911330 143.335000000
v 10.936893400 72.915212600 143.353301270
v 10.936893400 72.940212600 143.360000000
v 10.786893400 72.590298222 143.279350356
v 10.786893400 72.533399234 143.265411547
v 10.786893400 72.521434320 143.259591561
v 10.786893400 72.513163123 143.249169532
v 10.786893400 72.510212600 143.236195489
v 10.786893400 72.510212600 143.200000000
v 10.786893400 72.840212600 143.200000000
v 10.786893400 72.890212600 143.310000000
v 10.786893400 72.890212600 143.250000000
v 10.786893400 72.896911330 143.335000000
v 10.786893400 72.915212600 143.353301270
v 10.786893400 72.940212600 143.360000000
v 10.511893400 72.590212600 143.280000000
v 10.436893400 72.590298222 143.279350356
v 10.711893400 72.590212600 143.280000000
v 10.436893400 72.521434320 143.259591561
v 10.436893400 72.513163123 143.249169532
v 10.436893400 72.510212600 143.236195489
v 10.436893400 72.533399234 143.265411547
v 10.436893400 72.510212600 143.200000000
v 10.436893400 72.840212600 143.200000000
v 10.436893400 72.890212600 143.310000000
v 10.436893400 72.890212600 143.250000000
v 10.436893400 72.896911330 143.335000000
v 10.436893400 72.915212600 143.353301270
v 10.436893400 72.940212600 143.360000000
v 10.286893400 72.590298222 143.279350356
v 10.286893400 72.533399234 143.265411547
v 10.286893400 72.521434320 143.259591561
v 10.286893400 72.513163123 143.249169532
v 10.286893400 72.510212600 143.236195489
v 10.286893400 72.510212600 143.200000000
v 10.286893400 72.840212600 143.200000000
v 10.286893400 72.890212600 143.310000000
v 10.286893400 72.890212600 143.250000000
v 10.286893400 72.896911330 143.335000000
v 10.286893400 72.915212600 143.353301270
v 10.286893400 72.940212600 143.360000000
v 10.011893400 72.590212600 143.280000000
v 9.936893400 72.590298222 143.279350356
v 10.211893400 72.590212600 143.280000000
v 9.936893400 72.521434320 143.259591561
v 9.936893400 72.513163123 143.249169532
v 9.936893400 72.510212600 143.236195489
v 9.936893400 72.533399234 143.265411547
v 9.936893400 72.510212600 143.200000000
v 9.936893400 72.840212600 143.200000000
v 9.936893400 72.890212600 143.310000000
v 9.936893400 72.890212600 143.250000000
v 9.936893400 72.896911330 143.335000000
v 9.936893400 72.915212600 143.353301270
v 9.936893400 72.940212600 143.360000000
v 9.786893400 72.590298222 143.279350356
v 9.786893400 72.533399234 143.265411547
v 9.786893400 72.521434320 143.259591561
v 9.786893400 72.513163123 143.249169532
v 9.786893400 72.510212600 143.236195489
v 9.786893400 72.510212600 143.200000000
v 9.786893400 72.840212600 143.200000000
v 9.786893400 72.890212600 143.310000000
v 9.786893400 72.890212600 143.250000000
v 9.786893400 72.896911330 143.335000000
v 9.786893400 72.915212600 143.353301270
v 9.786893400 72.940212600 143.360000000
v 9.511893400 72.590212600 143.280000000
v 9.436893400 72.590298222 143.279350356
v 9.711893400 72.590212600 143.280000000
v 9.436893400 72.521434320 143.259591561
v 9.436893400 72.513163123 143.249169532
v 9.436893400 72.510212600 143.236195489
v 9.436893400 72.533399234 143.265411547
v 9.436893400 72.510212600 143.200000000
v 9.436893400 72.840212600 143.200000000
v 9.436893400 72.890212600 143.310000000
v 9.436893400 72.890212600 143.250000000
v 9.436893400 72.896911330 143.335000000
v 9.436893400 72.915212600 143.353301270
v 9.436893400 72.940212600 143.360000000
v 9.286893400 72.590298222 143.279350356
v 9.286893400 72.533399234 143.265411547
v 9.286893400 72.521434320 143.259591561
v 9.286893400 72.513163123 143.249169532
v 9.286893400 72.510212600 143.236195489
v 9.286893400 72.510212600 143.200000000
v 9.286893400 72.840212600 143.200000000
v 9.286893400 72.890212600 143.310000000
v 9.286893400 72.890212600 143.250000000
v 9.286893400 72.896911330 143.335000000
v 9.286893400 72.915212600 143.353301270
v 9.286893400 72.940212600 143.360000000
v 9.011893400 72.590212600 143.280000000
v 8.936893400 72.590298222 143.279350356
v 9.211893400 72.590212600 143.280000000
v 8.936893400 72.521434320 143.259591561
v 8.936893400 72.513163123 143.249169532
v 8.936893400 72.510212600 143.236195489
v 8.936893400 72.533399234 143.265411547
v 8.936893400 72.510212600 143.200000000
v 8.936893400 72.840212600 143.200000000
v 8.936893400 72.890212600 143.310000000
v 8.936893400 72.890212600 143.250000000
v 8.936893400 72.896911330 143.335000000
v 8.936893400 72.915212600 143.353301270
v 8.936893400 72.940212600 143.360000000
v 8.786893400 72.590298222 143.279350356
v 8.786893400 72.533399234 143.265411547
v 8.786893400 72.521434320 143.259591561
v 8.786893400 72.513163123 143.249169532
v 8.786893400 72.510212600 143.236195489
v 8.786893400 72.510212600 143.200000000
v 8.786893400 72.840212600 143.200000000
v 8.786893400 72.890212600 143.310000000
v 8.786893400 72.890212600 143.250000000
v 8.786893400 72.896911330 143.335000000
v 8.786893400 72.915212600 143.353301270
v 8.786893400 72.940212600 143.360000000
v 8.511893400 72.590212600 143.280000000
v 8.436893400 72.590329462 143.279357642
v 8.711893400 72.590212600 143.280000000
v 8.436893400 72.521434320 143.259591561
v 8.436893400 72.513163123 143.249169532
v 8.436893400 72.510212600 143.236195489
v 8.436893400 72.533399234 143.265411547
v 8.436893400 72.510212600 143.200000000
v 8.436893400 72.840212600 143.200000000
v 8.436893400 72.890212600 143.310000000
v 8.436893400 72.890212600 143.250000000
v 8.436893400 72.896911330 143.335000000
v 8.436893400 72.915212600 143.353301270
v 8.436893400 72.940212600 143.360000000
v 8.286893400 72.533399234 143.265411547
v 8.286893400 72.590329462 143.279357642
v 8.286893400 72.521434320 143.259591561
v 8.286893400 72.513163123 143.249169532
v 8.286893400 72.510212600 143.236195489
v 8.286893400 72.510212600 143.200000000
v 8.286893400 72.840212600 143.200000000
v 8.286893400 72.890212600 143.310000000
v 8.286893400 72.890212600 143.250000000
v 8.286893400 72.896911330 143.335000000
v 8.286893400 72.915212600 143.353301270
v 8.286893400 72.940212600 143.360000000
v 8.011893400 72.590212600 143.280000000
v 7.936893400 72.590329462 143.279357642
v 8.211893400 72.590212600 143.280000000
v 7.936893400 72.521434320 143.259591561
v 7.936893400 72.513163123 143.249169532
v 7.936893400 72.510212600 143.236195489
v 7.936893400 72.533399234 143.265411547
v 7.936893400 72.510212600 143.200000000
v 7.936893400 72.840212600 143.200000000
v 7.936893400 72.890212600 143.310000000
v 7.936893400 72.890212600 143.250000000
v 7.936893400 72.896911330 143.335000000
v 7.936893400 72.915212600 143.353301270
v 7.936893400 72.940212600 143.360000000
v 7.786893400 72.533399234 143.265411547
v 7.786893400 72.590329462 143.279357642
v 7.786893400 72.521434320 143.259591561
v 7.786893400 72.513163123 143.249169532
v 7.786893400 72.510212600 143.236195489
v 7.786893400 72.510212600 143.200000000
v 7.786893400 72.840212600 143.200000000
v 7.786893400 72.890212600 143.310000000
v 7.786893400 72.890212600 143.250000000
v 7.786893400 72.896911330 143.335000000
v 7.786893400 72.915212600 143.353301270
v 7.786893400 72.940212600 143.360000000
v 7.511893400 72.590212600 143.280000000
v 7.436893400 72.590329462 143.279357642
v 7.711893400 72.590212600 143.280000000
v 7.436893400 72.521434320 143.259591561
v 7.436893400 72.513163123 143.249169532
v 7.436893400 72.510212600 143.236195489
v 7.436893400 72.533399234 143.265411547
v 7.436893400 72.510212600 143.200000000
v 7.436893400 72.840212600 143.200000000
v 7.436893400 72.890212600 143.310000000
v 7.436893400 72.890212600 143.250000000
v 7.436893400 72.896911330 143.335000000
v 7.436893400 72.915212600 143.353301270
v 7.436893400 72.940212600 143.360000000
v 7.286893400 72.533399234 143.265411547
v 7.286893400 72.590329462 143.279357642
v 7.286893400 72.521434320 143.259591561
v 7.286893400 72.513163123 143.249169532
v 7.286893400 72.510212600 143.236195489
v 7.286893400 72.510212600 143.200000000
v 7.286893400 72.840212600 143.200000000
v 7.286893400 72.890212600 143.310000000
v 7.286893400 72.890212600 143.250000000
v 7.286893400 72.896911330 143.335000000
v 7.286893400 72.915212600 143.353301270
v 7.286893400 72.940212600 143.360000000
v 7.011893400 72.590212600 143.280000000
v 6.936893400 72.590298222 143.279350356
v 7.211893400 72.590212600 143.280000000
v 6.936893400 72.521434320 143.259591561
v 6.936893400 72.513163123 143.249169532
v 6.936893400 72.510212600 143.236195489
v 6.936893400 72.533399234 143.265411547
v 6.936893400 72.510212600 143.200000000
v 6.936893400 72.840212600 143.200000000
v 6.936893400 72.890212600 143.310000000
v 6.936893400 72.890212600 143.250000000
v 6.936893400 72.896911330 143.335000000
v 6.936893400 72.915212600 143.353301270
v 6.936893400 72.940212600 143.360000000
v 6.786893400 72.590298222 143.279350356
v 6.786893400 72.533399234 143.265411547
v 6.786893400 72.521434320 143.259591561
v 6.786893400 72.513163123 143.249169532
v 6.786893400 72.510212600 143.236195489
v 6.786893400 72.510212600 143.200000000
v 6.786893400 72.840212600 143.200000000
v 6.786893400 72.890212600 143.310000000
v 6.786893400 72.890212600 143.250000000
v 6.786893400 72.896911330 143.335000000
v 6.786893400 72.915212600 143.353301270
v 6.786893400 72.940212600 143.360000000
v 6.511893400 72.590212600 143.280000000
v 6.436893400 72.590298222 143.279350356
v 6.711893400 72.590212600 143.280000000
v 6.436893400 72.521434320 143.259591561
v 6.436893400 72.513163123 143.249169532
v 6.436893400 72.510212600 143.236195489
v 6.436893400 72.533399234 143.265411547
v 6.436893400 72.510212600 143.200000000
v 6.436893400 72.840212600 143.200000000
v 6.436893400 72.890212600 143.310000000
v 6.436893400 72.890212600 143.250000000
v 6.436893400 72.896911330 143.335000000
v 6.436893400 72.915212600 143.353301270
v 6.436893400 72.940212600 143.360000000
v 6.286893400 72.590298222 143.279350356
v 6.286893400 72.533399234 143.265411547
v 6.286893400 72.521434320 143.259591561
v 6.286893400 72.513163123 143.249169532
v 6.286893400 72.510212600 143.236195489
v 6.286893400 72.510212600 143.200000000
v 6.286893400 72.840212600 143.200000000
v 6.286893400 72.890212600 143.310000000
v 6.286893400 72.890212600 143.250000000
v 6.286893400 72.896911330 143.335000000
v 6.286893400 72.915212600 143.353301270
v 6.286893400 72.940212600 143.360000000
v 6.011893400 72.590212600 143.280000000
v 5.936893400 72.590329462 143.279357642
v 6.211893400 72.590212600 143.280000000
v 5.936893400 72.521434320 143.259591561
v 5.936893400 72.513163123 143.249169532
v 5.936893400 72.510212600 143.236195489
v 5.936893400 72.533399234 143.265411547
v 5.936893400 72.510212600 143.200000000
v 5.936893400 72.840212600 143.200000000
v 5.936893400 72.890212600 143.310000000
v 5.936893400 72.890212600 143.250000000
v 5.936893400 72.896911330 143.335000000
v 5.936893400 72.915212600 143.353301270
v 5.936893400 72.940212600 143.360000000
v 5.786893400 72.533399234 143.265411547
v 5.786893400 72.590329462 143.279357642
v 5.786893400 72.521434320 143.259591561
v 5.786893400 72.513163123 143.249169532
v 5.786893400 72.510212600 143.236195489
v 5.786893400 72.510212600 143.200000000
v 5.786893400 72.840212600 143.200000000
v 5.786893400 72.890212600 143.310000000
v 5.786893400 72.890212600 143.250000000
v 5.786893400 72.896911330 143.335000000
v 5.786893400 72.915212600 143.353301270
v 5.786893400 72.940212600 143.360000000
v 5.511893400 72.590212600 143.280000000
v 5.436893400 72.590298222 143.279350356
v 5.711893400 72.590212600 143.280000000
v 5.436893400 72.521434320 143.259591561
v 5.436893400 72.513163123 143.249169532
v 5.436893400 72.510212600 143.236195489
v 5.436893400 72.533399234 143.265411547
v 5.436893400 72.510212600 143.200000000
v 5.436893400 72.840212600 143.200000000
v 5.436893400 72.890212600 143.310000000
v 5.436893400 72.890212600 143.250000000
v 5.436893400 72.896911330 143.335000000
v 5.436893400 72.915212600 143.353301270
v 5.436893400 72.940212600 143.360000000
v 5.286893400 72.590298222 143.279350356
v 5.286893400 72.533399234 143.265411547
v 5.286893400 72.521434320 143.259591561
v 5.286893400 72.513163123 143.249169532
v 5.286893400 72.510212600 143.236195489
v 5.286893400 72.510212600 143.200000000
v 5.286893400 72.840212600 143.200000000
v 5.286893400 72.890212600 143.310000000
v 5.286893400 72.890212600 143.250000000
v 5.286893400 72.896911330 143.335000000
v 5.286893400 72.915212600 143.353301270
v 5.286893400 72.940212600 143.360000000
v 5.011893400 72.590212600 143.280000000
v 4.936893400 72.590329462 143.279357642
v 5.211893400 72.590212600 143.280000000
v 4.936893400 72.521434320 143.259591561
v 4.936893400 72.513163123 143.249169532
v 4.936893400 72.510212600 143.236195489
v 4.936893400 72.533399234 143.265411547
v 4.936893400 72.510212600 143.200000000
v 4.936893400 72.840212600 143.200000000
v 4.936893400 72.890212600 143.310000000
v 4.936893400 72.890212600 143.250000000
v 4.936893400 72.896911330 143.335000000
v 4.936893400 72.915212600 143.353301270
v 4.936893400 72.940212600 143.360000000
v 4.786893400 72.533399234 143.265411547
v 4.786893400 72.590329462 143.279357642
v 4.786893400 72.521434320 143.259591561
v 4.786893400 72.513163123 143.249169532
v 4.786893400 72.510212600 143.236195489
v 4.786893400 72.510212600 143.200000000
v 4.786893400 72.840212600 143.200000000
v 4.786893400 72.890212600 143.310000000
v 4.786893400 72.890212600 143.250000000
v 4.786893400 72.896911330 143.335000000
v 4.786893400 72.915212600 143.353301270
v 4.786893400 72.940212600 143.360000000
v 4.511893400 72.590212600 143.280000000
v 4.436893400 72.590298222 143.279350356
v 4.711893400 72.590212600 143.280000000
v 4.436893400 72.521434320 143.259591561
v 4.436893400 72.513163123 143.249169532
v 4.436893400 72.510212600 143.236195489
v 4.436893400 72.533399234 143.265411547
v 4.436893400 72.510212600 143.200000000
v 4.436893400 72.840212600 143.200000000
v 4.436893400 72.890212600 143.310000000
v 4.436893400 72.890212600 143.250000000
v 4.436893400 72.896911330 143.335000000
v 4.436893400 72.915212600 143.353301270
v 4.436893400 72.940212600 143.360000000
v 4.286893400 72.590298222 143.279350356
v 4.286893400 72.533399234 143.265411547
v 4.286893400 72.521434320 143.259591561
v 4.286893400 72.513163123 143.249169532
v 4.286893400 72.510212600 143.236195489
v 4.286893400 72.510212600 143.200000000
v 4.286893400 72.840212600 143.200000000
v 4.286893400 72.890212600 143.310000000
v 4.286893400 72.890212600 143.250000000
v 4.286893400 72.896911330 143.335000000
v 4.286893400 72.915212600 143.353301270
v 4.286893400 72.940212600 143.360000000
v 4.011893400 72.590212600 143.280000000
v 3.936893400 72.590298222 143.279350356
v 4.211893400 72.590212600 143.280000000
v 3.936893400 72.521434320 143.259591561
v 3.936893400 72.513163123 143.249169532
v 3.936893400 72.510212600 143.236195489
v 3.936893400 72.533399234 143.265411547
v 3.936893400 72.510212600 143.200000000
v 3.936893400 72.840212600 143.200000000
v 3.936893400 72.890212600 143.310000000
v 3.936893400 72.890212600 143.250000000
v 3.936893400 72.896911330 143.335000000
v 3.936893400 72.915212600 143.353301270
v 3.936893400 72.940212600 143.360000000
v 3.786893400 72.590298222 143.279350356
v 3.786893400 72.533399234 143.265411547
v 3.786893400 72.521434320 143.259591561
v 3.786893400 72.513163123 143.249169532
v 3.786893400 72.510212600 143.236195489
v 3.786893400 72.510212600 143.200000000
v 3.786893400 72.840212600 143.200000000
v 3.786893400 72.890212600 143.310000000
v 3.786893400 72.890212600 143.250000000
v 3.786893400 72.896911330 143.335000000
v 3.786893400 72.915212600 143.353301270
v 3.786893400 72.940212600 143.360000000
v 3.511893400 72.590212600 143.280000000
v 3.436893400 72.590298222 143.279350356
v 3.711893400 72.590212600 143.280000000
v 3.436893400 72.521434320 143.259591561
v 3.436893400 72.513163123 143.249169532
v 3.436893400 72.510212600 143.236195489
v 3.436893400 72.533399234 143.265411547
v 3.436893400 72.510212600 143.200000000
v 3.436893400 72.840212600 143.200000000
v 3.436893400 72.890212600 143.310000000
v 3.436893400 72.890212600 143.250000000
v 3.436893400 72.896911330 143.335000000
v 3.436893400 72.915212600 143.353301270
v 3.436893400 72.940212600 143.360000000
v 3.286893400 72.590298222 143.279350356
v 3.286893400 72.533399234 143.265411547
v 3.286893400 72.521434320 143.259591561
v 3.286893400 72.513163123 143.249169532
v 3.286893400 72.510212600 143.236195489
v 3.286893400 72.510212600 143.200000000
v 3.286893400 72.840212600 143.200000000
v 3.286893400 72.890212600 143.310000000
v 3.286893400 72.890212600 143.250000000
v 3.286893400 72.896911330 143.335000000
v 3.286893400 72.915212600 143.353301270
v 3.286893400 72.940212600 143.360000000
v 3.011893400 72.590212600 143.280000000
v 2.936893400 72.590298222 143.279350356
v 3.211893400 72.590212600 143.280000000
v 2.936893400 72.521434320 143.259591561
v 2.936893400 72.513163123 143.249169532
v 2.936893400 72.510212600 143.236195489
v 2.936893400 72.533399234 143.265411547
v 2.936893400 72.510212600 143.200000000
v 2.936893400 72.840212600 143.200000000
v 2.936893400 72.890212600 143.310000000
v 2.936893400 72.890212600 143.250000000
v 2.936893400 72.896911330 143.335000000
v 2.936893400 72.915212600 143.353301270
v 2.936893400 72.940212600 143.360000000
v 2.786893400 72.590298222 143.279350356
v 2.786893400 72.533399234 143.265411547
v 2.786893400 72.521434320 143.259591561
v 2.786893400 72.513163123 143.249169532
v 2.786893400 72.510212600 143.236195489
v 2.786893400 72.510212600 143.200000000
v 2.786893400 72.840212600 143.200000000
v 2.786893400 72.890212600 143.310000000
v 2.786893400 72.890212600 143.250000000
v 2.786893400 72.896911330 143.335000000
v 2.786893400 72.915212600 143.353301270
v 2.786893400 72.940212600 143.360000000
v 2.511893400 72.590212600 143.280000000
v 2.436893400 72.590329462 143.279357642
v 2.711893400 72.590212600 143.280000000
v 2.436893400 72.521434320 143.259591561
v 2.436893400 72.513163123 143.249169532
v 2.436893400 72.510212600 143.236195489
v 2.436893400 72.533399234 143.265411547
v 2.436893400 72.510212600 143.200000000
v 2.436893400 72.840212600 143.200000000
v 2.436893400 72.890212600 143.310000000
v 2.436893400 72.890212600 143.250000000
v 2.436893400 72.896911330 143.335000000
v 2.436893400 72.915212600 143.353301270
v 2.436893400 72.940212600 143.360000000
v 2.286893400 72.533399234 143.265411547
v 2.286893400 72.590329462 143.279357642
v 2.286893400 72.521434320 143.259591561
v 2.286893400 72.513163123 143.249169532
v 2.286893400 72.510212600 143.236195489
v 2.286893400 72.510212600 143.200000000
v 2.286893400 72.840212600 143.200000000
v 2.286893400 72.890212600 143.310000000
v 2.286893400 72.890212600 143.250000000
v 2.286893400 72.896911330 143.335000000
v 2.286893400 72.915212600 143.353301270
v 2.286893400 72.940212600 143.360000000
v 2.011893400 72.590212600 143.280000000
v 1.936893400 72.590329462 143.279357642
v 2.211893400 72.590212600 143.280000000
v 1.936893400 72.521434320 143.259591561
v 1.936893400 72.513163123 143.249169532
v 1.936893400 72.510212600 143.236195489
v 1.936893400 72.533399234 143.265411547
v 1.936893400 72.510212600 143.200000000
v 1.936893400 72.840212600 143.200000000
v 1.936893400 72.890212600 143.310000000
v 1.936893400 72.890212600 143.250000000
v 1.936893400 72.896911330 143.335000000
v 1.936893400 72.915212600 143.353301270
v 1.936893400 72.940212600 143.360000000
v 1.786893400 72.533399234 143.265411547
v 1.786893400 72.590329462 143.279357642
v 1.786893400 72.521434320 143.259591561
v 1.786893400 72.513163123 143.249169532
v 1.786893400 72.510212600 143.236195489
v 1.786893400 72.510212600 143.200000000
v 1.786893400 72.840212600 143.200000000
v 1.786893400 72.890212600 143.310000000
v 1.786893400 72.890212600 143.250000000
v 1.786893400 72.896911330 143.335000000
v 1.786893400 72.915212600 143.353301270
v 1.786893400 72.940212600 143.360000000
v 1.711893400 72.590212600 143.280000000
v 1.436893400 72.521434320 143.259591561
v 1.436893400 72.513163123 143.249169532
v 1.436893400 72.510212600 143.236195489
v 1.436893400 72.533399234 143.265411547
v 1.436893400 72.510212600 143.200000000
v 1.436893400 72.840212600 143.200000000
v 1.436893400 72.890212600 143.310000000
v 1.436893400 72.890212600 143.250000000
v 1.436893400 72.896911330 143.335000000
v 1.436893400 72.915212600 143.353301270
v 1.436893400 72.940212600 143.360000000
v 1.286893400 72.533399234 143.265411547
v 1.286893400 72.521434320 143.259591561
v 1.286893400 72.513163123 143.249169532
v 1.286893400 72.510212600 143.236195489
v 1.286893400 72.510212600 143.200000000
v 1.286893400 72.840212600 143.200000000
v 1.286893400 72.890212600 143.310000000
v 1.286893400 72.890212600 143.250000000
v 1.286893400 72.896911330 143.335000000
v 1.286893400 72.915212600 143.353301270
v 1.286893400 72.940212600 143.360000000
v 1.011893400 72.590212600 143.280000000
v 0.936893400 72.590298222 143.279350356
v 0.936893400 72.521434320 143.259591561
v 0.936893400 72.513163123 143.249169532
v 0.936893400 72.510212600 143.236195489
v 0.936893400 72.533399234 143.265411547
v 0.936893400 72.510212600 143.200000000
v 0.936893400 72.840212600 143.200000000
v 0.936893400 72.890212600 143.310000000
v 0.936893400 72.890212600 143.250000000
v 0.936893400 72.896911330 143.335000000
v 0.936893400 72.915212600 143.353301270
v 0.711893400 72.510212600 143.280000000
v 1.011893400 72.510212600 143.280000000
v 1.711893400 72.510212600 143.280000000
v 2.011893400 72.510212600 143.280000000
v 2.211893400 72.510212600 143.280000000
v 2.511893400 72.510212600 143.280000000
v 2.711893400 72.510212600 143.280000000
v 3.011893400 72.510212600 143.280000000
v 3.211893400 72.510212600 143.280000000
v 3.511893400 72.510212600 143.280000000
v 3.711893400 72.510212600 143.280000000
v 4.011893400 72.510212600 143.280000000
v 4.211893400 72.510212600 143.280000000
v 4.511893400 72.510212600 143.280000000
v 4.711893400 72.510212600 143.280000000
v 5.011893400 72.510212600 143.280000000
v 5.211893400 72.510212600 143.280000000
v 5.511893400 72.510212600 143.280000000
v 5.711893400 72.510212600 143.280000000
v 6.011893400 72.510212600 143.280000000
v 6.211893400 72.510212600 143.280000000
v 6.511893400 72.510212600 143.280000000
v 6.711893400 72.510212600 143.280000000
v 7.011893400 72.510212600 143.280000000
v 7.211893400 72.510212600 143.280000000
v 7.511893400 72.510212600 143.280000000
v 7.711893400 72.510212600 143.280000000
v 8.011893400 72.510212600 143.280000000
v 8.211893400 72.510212600 143.280000000
v 8.511893400 72.510212600 143.280000000
v 8.711893400 72.510212600 143.280000000
v 9.011893400 72.510212600 143.280000000
v 9.211893400 72.510212600 143.280000000
v 9.511893400 72.510212600 143.280000000
v 9.711893400 72.510212600 143.280000000
v 10.011893400 72.510212600 143.280000000
v 10.211893400 72.510212600 143.280000000
v 10.511893400 72.510212600 143.280000000
v 10.711893400 72.510212600 143.280000000
v 11.011893400 72.510212600 143.280000000
v 11.211893400 72.510212600 143.280000000
v 11.511893400 72.510212600 143.280000000
v 11.711893400 72.510212600 143.280000000
v 12.011893400 72.510212600 143.280000000
v 12.211893400 72.510212600 143.280000000
v 12.511893400 72.510212600 143.280000000
v 12.711893400 72.510212600 143.280000000
v 13.011893400 72.510212600 143.280000000
v 13.211893400 72.510212600 143.280000000
v 13.511893400 72.510212600 143.280000000
v 13.711893400 72.510212600 143.280000000
v 14.011893400 72.510212600 143.280000000
v 14.211893400 72.510212600 143.280000000
v 14.511893400 72.510212600 143.280000000
v 14.711893400 72.510212600 143.280000000
v 15.011893400 72.510212600 143.280000000
v 16.064393400 70.790212600 143.280000000
v 16.064393400 70.790212600 143.330000000
v 16.114393400 69.740212600 143.380000000
v 16.114393400 70.790212600 143.380000000
v 16.214393400 69.840212600 143.380000000
v 16.214393400 70.590212600 143.530000000
v 16.214393400 70.790212600 143.380000000
v 16.226893400 70.590212600 144.020000000
v 16.376893400 70.590212600 144.020000000
v 16.226893400 70.590212600 143.710000000
v 16.376893400 70.590212600 143.710000000
v 16.611893400 70.590212600 143.530000000
v 16.611893400 70.790212600 143.380000000
v 16.611893400 70.790212600 143.280000000
v 16.226893400 69.690212600 144.020000000
v 16.376893400 69.690212600 144.020000000
v 16.376893400 69.990212600 143.320000000
v 16.376893400 69.990212600 143.250000000
v 16.376893400 70.040212600 143.200000000
v 16.376893400 69.790212600 143.570000000
v 16.376893400 69.765212600 143.570000000
v 16.376893400 69.765212600 143.370000000
v 16.376893400 69.815212600 143.576698730
v 16.376893400 69.940212600 143.370000000
v 16.376893400 69.833513870 143.595000000
v 16.376893400 69.965212600 143.363301270
v 16.376893400 69.840212600 143.620000000
v 16.376893400 70.442432631 143.217876446
v 16.376893400 69.983513870 143.345000000
v 16.376893400 69.690212600 143.720000000
v 16.376893400 69.790212600 143.720000000
v 16.376893400 69.815212600 143.713301270
v 16.376893400 70.490212600 143.267827136
v 16.376893400 70.466483611 143.225284992
v 16.376893400 70.483879238 143.243470931
v 16.376893400 70.490212600 143.660000000
v 16.376893400 69.840212600 143.670000000
v 16.376893400 70.496911330 143.685000000
v 16.376893400 69.833513870 143.695000000
v 16.376893400 70.515212600 143.703301270
v 16.376893400 70.540212600 143.710000000
v 16.226893400 70.490212600 143.267827136
v 16.226893400 70.490212600 143.660000000
v 16.226893400 70.483879238 143.243470931
v 16.226893400 70.466483611 143.225284992
v 16.226893400 70.442432631 143.217876446
v 16.226893400 70.040212600 143.200000000
v 16.226893400 69.990212600 143.250000000
v 16.226893400 69.990212600 143.320000000
v 16.226893400 69.940212600 143.370000000
v 16.226893400 69.965212600 143.363301270
v 16.226893400 69.983513870 143.345000000
v 16.226893400 69.765212600 143.370000000
v 16.226893400 69.765212600 143.570000000
v 16.226893400 69.790212600 143.570000000
v 16.226893400 69.840212600 143.620000000
v 16.226893400 69.833513870 143.595000000
v 16.226893400 69.815212600 143.576698730
v 16.226893400 69.840212600 143.670000000
v 16.226893400 69.790212600 143.720000000
v 16.226893400 69.815212600 143.713301270
v 16.226893400 69.833513870 143.695000000
v 16.226893400 69.690212600 143.720000000
v 16.226893400 70.496911330 143.685000000
v 16.226893400 70.515212600 143.703301270
v 16.226893400 70.540212600 143.710000000
v -0.388106600 70.590212600 143.530000000
v -0.388106600 70.790212600 143.380000000
v -0.388106600 70.790212600 143.280000000
v -0.153106600 70.590212600 144.020000000
v -0.003106600 70.590212600 144.020000000
v -0.153106600 70.590212600 143.710000000
v 0.009393400 70.590212600 143.530000000
v -0.003106600 70.590212600 143.710000000
v 0.009393400 69.840212600 143.380000000
v 0.009393400 70.790212600 143.380000000
v 0.159393400 70.790212600 143.280000000
v 0.159393400 70.790212600 143.330000000
v 0.109393400 70.790212600 143.380000000
v 0.109393400 69.740212600 143.380000000
v -0.003106600 69.990212600 143.320000000
v -0.003106600 69.990212600 143.250000000
v -0.003106600 70.040212600 143.200000000
v -0.003106600 69.790212600 143.570000000
v -0.003106600 69.765212600 143.570000000
v -0.003106600 69.765212600 143.370000000
v -0.003106600 69.815212600 143.576698730
v -0.003106600 69.940212600 143.370000000
v -0.003106600 69.833513870 143.595000000
v -0.003106600 69.965212600 143.363301270
v -0.003106600 69.840212600 143.620000000
v -0.003106600 70.442432631 143.217876446
v -0.003106600 69.983513870 143.345000000
v -0.003106600 69.690212600 144.020000000
v -0.003106600 69.690212600 143.720000000
v -0.003106600 69.790212600 143.720000000
v -0.003106600 69.815212600 143.713301270
v -0.003106600 70.490212600 143.267827136
v -0.003106600 70.466483611 143.225284992
v -0.003106600 70.483879238 143.243470931
v -0.003106600 70.490212600 143.660000000
v -0.003106600 69.840212600 143.670000000
v -0.003106600 70.496911330 143.685000000
v -0.003106600 69.833513870 143.695000000
v -0.003106600 70.515212600 143.703301270
v -0.003106600 70.540212600 143.710000000
v -0.153106600 69.690212600 143.720000000
v -0.153106600 69.690212600 144.020000000
v -0.153106600 69.990212600 143.250000000
v -0.153106600 69.990212600 143.320000000
v -0.153106600 70.040212600 143.200000000
v -0.153106600 69.765212600 143.570000000
v -0.153106600 69.790212600 143.570000000
v -0.153106600 69.765212600 143.370000000
v -0.153106600 69.815212600 143.576698730
v -0.153106600 69.940212600 143.370000000
v -0.153106600 69.833513870 143.595000000
v -0.153106600 69.965212600 143.363301270
v -0.153106600 69.840212600 143.620000000
v -0.153106600 69.983513870 143.345000000
v -0.153106600 70.442432631 143.217876446
v -0.153106600 69.790212600 143.720000000
v -0.153106600 69.815212600 143.713301270
v -0.153106600 70.490212600 143.267827136
v -0.153106600 70.466483611 143.225284992
v -0.153106600 70.483879238 143.243470931
v -0.153106600 69.840212600 143.670000000
v -0.153106600 70.490212600 143.660000000
v -0.153106600 69.833513870 143.695000000
v -0.153106600 70.496911330 143.685000000
v -0.153106600 70.515212600 143.703301270
v -0.153106600 70.540212600 143.710000000
v 15.896893400 70.390212600 143.500000000
v 15.896893400 70.490212600 143.920000000
v 15.896893400 70.890212600 143.530000000
v 15.896893400 70.890212600 143.890000000
v 15.896893400 70.990212600 143.890000000
v 15.896893400 70.990212600 143.530000000
v 0.326893400 70.390212600 143.500000000
v 0.326893400 70.490212600 143.920000000
v 0.326893400 70.890212600 143.530000000
v 0.326893400 70.890212600 143.890000000
v 0.326893400 70.990212600 143.530000000
v 0.326893400 70.990212600 143.890000000
f 1 2 3
f 4 1 3
f 3 5 4
f 6 5 3
f 7 8 6
f 7 6 3
f 7 3 2
f 7 2 9
f 10 11 12
f 13 11 10
f 14 10 12
f 15 14 12
f 16 14 15
f 17 16 15
f 18 15 12
f 19 18 12
f 20 18 19
f 21 20 19
f 22 19 12
f 23 22 12
f 24 22 23
f 25 24 23
f 26 23 12
f 27 26 12
f 28 26 27
f 29 28 27
f 30 27 12
f 31 30 12
f 32 30 31
f 33 32 31
f 34 31 12
f 35 34 12
f 36 34 35
f 37 36 35
f 38 35 12
f 39 38 12
f 40 38 39
f 41 40 39
f 42 39 12
f 43 42 12
f 44 42 43
f 45 44 43
f 46 43 12
f 47 46 12
f 48 46 47
f 49 48 47
f 50 47 12
f 51 50 12
f 52 50 51
f 53 52 51
f 54 51 12
f 55 54 12
f 56 54 55
f 57 56 55
f 58 55 12
f 59 58 12
f 60 58 59
f 61 60 59
f 62 59 12
f 63 62 12
f 64 62 63
f 64 65 62
f 66 63 12
f 67 66 12
f 68 66 67
f 68 69 66
f 70 67 12
f 71 70 12
f 72 70 71
f 72 73 70
f 74 75 76
f 74 77 75
f 78 79 80
f 78 80 81
f 82 83 84
f 85 82 84
f 86 87 88
f 86 88 89
f 90 91 92
f 93 90 92
f 94 95 96
f 97 94 96
f 98 99 100
f 101 98 100
f 102 103 104
f 105 102 104
f 106 107 108
f 109 106 108
f 110 111 112
f 113 110 112
f 114 100 99
f 114 104 103
f 114 108 107
f 114 111 108
f 114 107 104
f 114 112 111
f 114 103 100
f 114 99 96
f 114 95 92
f 114 91 89
f 114 88 84
f 114 71 12
f 114 83 81
f 114 80 76
f 114 76 75
f 114 75 71
f 114 81 80
f 114 84 83
f 114 89 88
f 114 92 91
f 114 96 95
f 115 112 114
f 116 115 114
f 117 115 116
f 118 117 116
f 119 116 114
f 120 119 114
f 121 122 119
f 121 119 120
f 123 120 114
f 2 123 114
f 1 124 123
f 1 123 2
f 9 2 114
f 125 9 114
f 126 9 125
f 127 126 125
f 128 125 114
f 129 130 128
f 129 128 114
f 131 132 133
f 134 131 133
f 12 131 134
f 135 136 137
f 135 137 138
f 114 134 136
f 114 12 134
f 114 136 135
f 139 136 134
f 140 141 139
f 139 141 136
f 140 142 141
f 141 143 136
f 136 143 137
f 137 143 144
f 144 145 137
f 143 146 144
f 143 147 146
f 148 149 143
f 143 149 147
f 144 150 145
f 144 146 150
f 145 151 138
f 145 138 137
f 152 151 145
f 153 154 152
f 155 154 153
f 156 155 153
f 157 155 156
f 132 150 133
f 158 150 132
f 159 150 158
f 160 159 161
f 162 163 164
f 162 164 160
f 162 160 161
f 160 153 152
f 160 152 145
f 160 145 159
f 159 145 150
f 160 165 153
f 166 165 160
f 156 153 165
f 156 165 167
f 167 157 156
f 168 167 169
f 168 157 167
f 168 155 157
f 170 168 171
f 170 155 168
f 172 173 171
f 130 129 173
f 130 173 172
f 174 130 172
f 175 174 172
f 173 170 171
f 176 177 178
f 178 177 179
f 179 177 180
f 177 175 180
f 175 181 180
f 181 182 183
f 175 182 181
f 172 184 175
f 175 184 182
f 184 185 186
f 186 185 187
f 172 185 184
f 188 187 185
f 188 185 189
f 190 185 171
f 171 185 172
f 190 189 185
f 189 191 192
f 192 191 193
f 190 191 189
f 190 194 191
f 194 195 196
f 196 195 197
f 190 195 194
f 198 199 200
f 190 199 195
f 199 201 200
f 190 201 199
f 202 203 204
f 204 203 205
f 206 207 208
f 208 207 209
f 210 211 212
f 212 211 213
f 214 215 216
f 216 215 217
f 218 219 220
f 220 219 221
f 222 223 224
f 224 223 225
f 226 227 228
f 228 227 229
f 230 231 232
f 232 231 233
f 234 235 236
f 236 235 237
f 238 239 240
f 240 239 241
f 242 243 244
f 244 243 245
f 246 247 248
f 248 247 249
f 250 251 252
f 251 253 252
f 254 255 256
f 256 255 257
f 258 259 260
f 260 259 261
f 262 263 264
f 264 263 265
f 266 267 268
f 268 267 269
f 270 271 272
f 272 271 273
f 274 275 276
f 276 275 277
f 278 279 280
f 280 279 281
f 282 283 284
f 284 283 285
f 286 287 288
f 288 287 289
f 290 291 292
f 292 291 293
f 294 295 296
f 296 295 297
f 298 299 300
f 299 301 300
f 302 303 304
f 304 303 305
f 306 307 308
f 295 309 299
f 301 309 302
f 303 309 306
f 294 309 295
f 299 309 301
f 302 309 303
f 306 309 307
f 190 309 201
f 201 309 202
f 202 309 203
f 203 309 206
f 206 309 207
f 207 309 210
f 210 309 211
f 211 309 214
f 214 309 215
f 215 309 218
f 218 309 219
f 219 309 222
f 222 309 223
f 223 309 226
f 226 309 227
f 227 309 230
f 230 309 231
f 231 309 234
f 234 309 235
f 235 309 238
f 238 309 239
f 239 309 242
f 242 309 243
f 243 309 246
f 246 309 247
f 247 309 251
f 251 309 253
f 253 309 254
f 254 309 255
f 255 309 258
f 258 309 259
f 259 309 262
f 262 309 263
f 263 309 266
f 266 309 267
f 267 309 270
f 270 309 271
f 271 309 274
f 274 309 275
f 275 309 278
f 278 309 279
f 279 309 282
f 282 309 283
f 283 309 286
f 286 309 287
f 287 309 290
f 290 309 291
f 291 309 294
f 310 190 311
f 309 190 310
f 312 311 313
f 310 311 312
f 314 312 315
f 312 316 315
f 316 313 317
f 312 313 316
f 316 318 315
f 315 318 319
f 320 321 322
f 320 322 323
f 318 323 319
f 318 320 323
f 322 319 323
f 322 314 319
f 314 315 319
f 324 325 307
f 324 322 326
f 310 307 309
f 310 324 307
f 314 310 312
f 314 324 310
f 314 322 324
f 167 165 327
f 328 167 327
f 326 165 166
f 326 327 165
f 329 324 326
f 329 326 166
f 327 322 321
f 327 326 322
f 321 328 327
f 330 328 171
f 171 311 190
f 328 311 171
f 311 317 313
f 328 317 311
f 321 317 328
f 330 169 328
f 328 169 167
f 171 168 169
f 171 169 330
f 321 320 318
f 317 318 316
f 317 321 318
f 331 325 324
f 331 324 329
f 332 307 331
f 331 307 325
f 163 329 164
f 329 332 331
f 163 332 329
f 333 334 308
f 13 333 308
f 335 13 308
f 11 13 335
f 307 335 308
f 332 163 162
f 336 307 332
f 336 332 162
f 336 335 307
f 337 338 339
f 340 339 341
f 340 337 339
f 334 340 341
f 342 334 341
f 343 342 344
f 343 334 342
f 345 308 334
f 345 334 343
f 306 346 347
f 306 345 346
f 306 308 345
f 348 340 334
f 349 340 348
f 350 334 333
f 348 334 350
f 351 352 348
f 351 348 350
f 351 350 10
f 351 10 14
f 13 350 333
f 13 10 350
f 351 16 352
f 14 16 351
f 353 354 304
f 16 17 353
f 352 304 305
f 352 353 304
f 352 16 353
f 348 352 305
f 355 349 356
f 356 349 357
f 357 349 358
f 349 348 358
f 348 359 358
f 359 360 361
f 348 360 359
f 305 362 348
f 348 362 360
f 362 303 363
f 363 303 364
f 305 303 362
f 340 349 355
f 337 355 356
f 337 340 355
f 338 356 357
f 338 337 356
f 339 338 357
f 358 341 339
f 358 339 357
f 358 359 342
f 358 342 341
f 361 344 342
f 361 342 359
f 344 361 360
f 344 360 343
f 364 346 363
f 347 346 364
f 363 345 362
f 346 345 363
f 362 343 360
f 345 343 362
f 347 364 303
f 347 303 306
f 365 366 367
f 368 367 369
f 368 365 367
f 354 368 369
f 370 354 369
f 371 370 372
f 371 354 370
f 373 304 354
f 373 354 371
f 302 374 375
f 302 373 374
f 302 304 373
f 376 368 354
f 376 354 377
f 368 376 378
f 365 378 379
f 365 368 378
f 366 379 380
f 366 365 379
f 367 366 380
f 381 369 367
f 381 367 380
f 378 376 379
f 379 376 380
f 380 376 381
f 376 377 381
f 377 382 381
f 382 383 384
f 377 383 382
f 300 385 377
f 377 385 383
f 385 301 386
f 386 301 387
f 300 301 385
f 388 389 298
f 20 21 388
f 390 298 300
f 390 388 298
f 390 20 388
f 377 390 300
f 391 392 393
f 394 393 395
f 394 391 393
f 389 394 395
f 396 389 395
f 397 396 398
f 397 389 396
f 399 298 389
f 399 389 397
f 299 400 401
f 299 399 400
f 299 298 399
f 402 394 389
f 402 389 403
f 394 402 404
f 391 404 405
f 391 394 404
f 392 405 406
f 392 391 405
f 393 392 406
f 407 395 393
f 407 393 406
f 404 402 405
f 405 402 406
f 406 402 407
f 402 403 407
f 403 408 407
f 408 409 410
f 403 409 408
f 297 411 403
f 403 411 409
f 411 295 412
f 412 295 413
f 297 295 411
f 414 415 296
f 24 25 414
f 416 296 297
f 416 414 296
f 416 24 414
f 403 416 297
f 417 418 419
f 420 419 421
f 420 417 419
f 415 420 421
f 422 415 421
f 423 422 424
f 423 415 422
f 425 296 415
f 425 415 423
f 294 426 427
f 294 425 426
f 294 296 425
f 428 420 415
f 428 415 429
f 420 428 430
f 417 430 431
f 417 420 430
f 418 431 432
f 418 417 431
f 419 418 432
f 433 421 419
f 433 419 432
f 430 428 431
f 431 428 432
f 432 428 433
f 428 429 433
f 429 434 433
f 434 435 436
f 429 435 434
f 293 437 429
f 429 437 435
f 437 291 438
f 438 291 439
f 293 291 437
f 440 441 292
f 28 29 440
f 442 292 293
f 442 440 292
f 442 28 440
f 429 442 293
f 443 444 445
f 446 445 447
f 446 443 445
f 441 446 447
f 448 441 447
f 449 448 450
f 449 441 448
f 451 292 441
f 451 441 449
f 290 452 453
f 290 451 452
f 290 292 451
f 454 446 441
f 455 446 454
f 446 455 456
f 443 456 457
f 443 446 456
f 444 457 458
f 444 443 457
f 445 444 458
f 459 447 445
f 459 445 458
f 456 455 457
f 457 455 458
f 458 455 459
f 455 454 459
f 454 460 459
f 460 461 462
f 454 461 460
f 289 463 454
f 454 463 461
f 463 287 464
f 464 287 465
f 289 287 463
f 466 467 288
f 32 33 466
f 468 288 289
f 468 466 288
f 468 32 466
f 454 468 289
f 469 470 471
f 472 471 473
f 472 469 471
f 467 472 473
f 474 467 473
f 475 474 476
f 475 467 474
f 477 288 467
f 477 467 475
f 286 478 479
f 286 477 478
f 286 288 477
f 480 472 467
f 481 472 480
f 472 481 482
f 469 482 483
f 469 472 482
f 470 483 484
f 470 469 483
f 471 470 484
f 485 473 471
f 485 471 484
f 482 481 483
f 483 481 484
f 484 481 485
f 481 480 485
f 480 486 485
f 486 487 488
f 480 487 486
f 285 489 480
f 480 489 487
f 489 283 490
f 490 283 491
f 285 283 489
f 492 493 284
f 36 37 492
f 494 284 285
f 494 492 284
f 494 36 492
f 480 494 285
f 495 496 497
f 498 497 499
f 498 495 497
f 493 498 499
f 500 493 499
f 501 500 502
f 501 493 500
f 503 284 493
f 503 493 501
f 282 504 505
f 282 503 504
f 282 284 503
f 506 498 493
f 506 493 507
f 498 506 508
f 495 508 509
f 495 498 508
f 496 509 510
f 496 495 509
f 497 496 510
f 511 499 497
f 511 497 510
f 508 506 509
f 509 506 510
f 510 506 511
f 506 507 511
f 507 512 511
f 512 513 514
f 507 513 512
f 281 515 507
f 507 515 513
f 515 279 516
f 516 279 517
f 281 279 515
f 518 519 280
f 40 41 518
f 520 280 281
f 520 518 280
f 520 40 518
f 507 520 281
f 521 522 523
f 524 523 525
f 524 521 523
f 519 524 525
f 526 519 525
f 527 526 528
f 527 519 526
f 529 280 519
f 529 519 527
f 278 530 531
f 278 529 530
f 278 280 529
f 532 524 519
f 533 524 532
f 524 533 534
f 521 534 535
f 521 524 534
f 522 535 536
f 522 521 535
f 523 522 536
f 537 525 523
f 537 523 536
f 534 533 535
f 535 533 536
f 536 533 537
f 533 532 537
f 532 538 537
f 538 539 540
f 532 539 538
f 277 541 532
f 532 541 539
f 541 275 542
f 542 275 543
f 277 275 541
f 544 545 276
f 44 45 544
f 546 276 277
f 546 544 276
f 546 44 544
f 532 546 277
f 547 548 549
f 550 549 551
f 550 547 549
f 545 550 551
f 552 545 551
f 553 552 554
f 553 545 552
f 555 276 545
f 555 545 553
f 274 556 557
f 274 555 556
f 274 276 555
f 558 550 545
f 559 550 558
f 550 559 560
f 547 560 561
f 547 550 560
f 548 561 562
f 548 547 561
f 549 548 562
f 563 551 549
f 563 549 562
f 560 559 561
f 561 559 562
f 562 559 563
f 559 558 563
f 558 564 563
f 564 565 566
f 558 565 564
f 273 567 558
f 558 567 565
f 567 271 568
f 568 271 569
f 273 271 567
f 570 571 272
f 48 49 570
f 572 272 273
f 572 570 272
f 572 48 570
f 558 572 273
f 573 574 575
f 576 575 577
f 576 573 575
f 571 576 577
f 578 571 577
f 579 578 580
f 579 571 578
f 581 272 571
f 581 571 579
f 270 582 583
f 270 581 582
f 270 272 581
f 584 576 571
f 585 576 584
f 576 585 586
f 573 586 587
f 573 576 586
f 574 587 588
f 574 573 587
f 575 574 588
f 589 577 575
f 589 575 588
f 586 585 587
f 587 585 588
f 588 585 589
f 585 584 589
f 584 590 589
f 590 591 592
f 584 591 590
f 269 593 584
f 584 593 591
f 593 267 594
f 594 267 595
f 269 267 593
f 596 597 268
f 52 53 596
f 598 268 269
f 598 596 268
f 598 52 596
f 584 598 269
f 599 600 601
f 602 601 603
f 602 599 601
f 597 602 603
f 604 597 603
f 605 604 606
f 605 597 604
f 607 268 597
f 607 597 605
f 266 608 609
f 266 607 608
f 266 268 607
f 610 602 597
f 611 602 610
f 602 611 612
f 599 612 613
f 599 602 612
f 600 613 614
f 600 599 613
f 601 600 614
f 615 603 601
f 615 601 614
f 612 611 613
f 613 611 614
f 614 611 615
f 611 610 615
f 610 616 615
f 616 617 618
f 610 617 616
f 265 619 610
f 610 619 617
f 619 263 620
f 620 263 621
f 265 263 619
f 622 623 264
f 56 57 622
f 624 264 265
f 624 622 264
f 624 56 622
f 610 624 265
f 625 626 627
f 628 627 629
f 628 625 627
f 623 628 629
f 630 623 629
f 631 630 632
f 631 623 630
f 633 264 623
f 633 623 631
f 262 634 635
f 262 633 634
f 262 264 633
f 636 628 623
f 637 628 636
f 628 637 638
f 625 638 639
f 625 628 638
f 626 639 640
f 626 625 639
f 627 626 640
f 641 629 627
f 641 627 640
f 638 637 639
f 639 637 640
f 640 637 641
f 637 636 641
f 636 642 641
f 642 643 644
f 636 643 642
f 261 645 636
f 636 645 643
f 645 259 646
f 646 259 647
f 261 259 645
f 648 649 260
f 60 61 648
f 650 260 261
f 650 648 260
f 650 60 648
f 636 650 261
f 651 652 653
f 654 653 655
f 654 651 653
f 649 654 655
f 656 649 655
f 657 656 658
f 657 649 656
f 659 260 649
f 659 649 657
f 258 660 661
f 258 659 660
f 258 260 659
f 662 654 649
f 663 654 662
f 654 663 664
f 651 664 665
f 651 654 664
f 652 665 666
f 652 651 665
f 653 652 666
f 667 655 653
f 667 653 666
f 664 663 665
f 665 663 666
f 666 663 667
f 663 662 667
f 662 668 667
f 668 669 670
f 662 669 668
f 257 671 662
f 662 671 669
f 671 255 672
f 672 255 673
f 257 255 671
f 674 675 256
f 257 674 256
f 65 64 674
f 676 674 257
f 676 65 674
f 662 676 257
f 677 678 679
f 680 679 681
f 680 677 679
f 675 680 681
f 682 675 681
f 683 682 684
f 683 675 682
f 685 256 675
f 685 675 683
f 254 686 687
f 254 685 686
f 254 256 685
f 688 680 675
f 689 680 688
f 680 689 690
f 677 690 691
f 677 680 690
f 678 691 692
f 678 677 691
f 679 678 692
f 693 681 679
f 693 679 692
f 690 689 691
f 691 689 692
f 692 689 693
f 689 688 693
f 688 694 693
f 694 695 696
f 688 695 694
f 252 697 688
f 688 697 695
f 697 253 698
f 698 253 699
f 252 253 697
f 700 701 250
f 252 700 250
f 69 68 700
f 702 700 252
f 702 69 700
f 688 702 252
f 703 704 705
f 706 705 707
f 706 703 705
f 701 706 707
f 708 701 707
f 709 708 710
f 709 701 708
f 711 250 701
f 711 701 709
f 251 712 713
f 251 711 712
f 251 250 711
f 714 706 701
f 714 701 715
f 706 714 716
f 703 716 717
f 703 706 716
f 704 717 718
f 704 703 717
f 705 704 718
f 719 707 705
f 719 705 718
f 716 714 717
f 717 714 718
f 718 714 719
f 714 715 719
f 715 720 719
f 720 721 722
f 715 721 720
f 249 723 715
f 715 723 721
f 723 247 724
f 724 247 725
f 249 247 723
f 726 727 248
f 249 726 248
f 73 72 726
f 728 726 249
f 728 73 726
f 715 728 249
f 729 730 731
f 732 731 733
f 732 729 731
f 727 732 733
f 734 727 733
f 735 734 736
f 735 727 734
f 737 248 727
f 737 727 735
f 246 738 739
f 246 737 738
f 246 248 737
f 740 732 727
f 740 727 741
f 732 740 742
f 729 742 743
f 729 732 742
f 730 743 744
f 730 729 743
f 731 730 744
f 745 733 731
f 745 731 744
f 742 740 743
f 743 740 744
f 744 740 745
f 740 741 745
f 741 746 745
f 746 747 748
f 741 747 746
f 245 749 741
f 741 749 747
f 749 243 750
f 750 243 751
f 245 243 749
f 752 753 244
f 245 752 244
f 77 74 752
f 754 752 245
f 754 77 752
f 741 754 245
f 755 756 757
f 758 757 759
f 758 755 757
f 753 758 759
f 760 753 759
f 761 760 762
f 761 753 760
f 763 244 753
f 763 753 761
f 242 764 765
f 242 763 764
f 242 244 763
f 766 758 753
f 766 753 767
f 758 766 768
f 755 768 769
f 755 758 768
f 756 769 770
f 756 755 769
f 757 756 770
f 771 759 757
f 771 757 770
f 768 766 769
f 769 766 770
f 770 766 771
f 766 767 771
f 767 772 771
f 772 773 774
f 767 773 772
f 241 775 767
f 767 775 773
f 775 239 776
f 776 239 777
f 241 239 775
f 778 779 240
f 241 778 240
f 79 78 778
f 780 778 241
f 780 79 778
f 767 780 241
f 781 782 783
f 784 783 785
f 784 781 783
f 779 784 785
f 786 779 785
f 787 786 788
f 787 779 786
f 789 240 779
f 789 779 787
f 238 790 791
f 238 789 790
f 238 240 789
f 792 784 779
f 793 784 792
f 784 793 794
f 781 794 795
f 781 784 794
f 782 795 796
f 782 781 795
f 783 782 796
f 797 785 783
f 797 783 796
f 794 793 795
f 795 793 796
f 796 793 797
f 793 792 797
f 792 798 797
f 798 799 800
f 792 799 798
f 237 801 792
f 792 801 799
f 801 235 802
f 802 235 803
f 237 235 801
f 804 805 236
f 82 85 804
f 806 236 237
f 806 804 236
f 806 82 804
f 792 806 237
f 807 808 809
f 810 809 811
f 810 807 809
f 805 810 811
f 812 805 811
f 813 812 814
f 813 805 812
f 815 236 805
f 815 805 813
f 234 816 817
f 234 815 816
f 234 236 815
f 818 810 805
f 819 810 818
f 810 819 820
f 807 820 821
f 807 810 820
f 808 821 822
f 808 807 821
f 809 808 822
f 823 811 809
f 823 809 822
f 820 819 821
f 821 819 822
f 822 819 823
f 819 818 823
f 818 824 823
f 824 825 826
f 818 825 824
f 233 827 818
f 818 827 825
f 827 231 828
f 828 231 829
f 233 231 827
f 830 831 232
f 87 86 830
f 832 232 233
f 832 830 232
f 832 87 830
f 818 832 233
f 833 834 835
f 836 835 837
f 836 833 835
f 831 836 837
f 838 831 837
f 839 838 840
f 839 831 838
f 841 232 831
f 841 831 839
f 230 842 843
f 230 841 842
f 230 232 841
f 844 836 831
f 844 831 845
f 836 844 846
f 833 846 847
f 833 836 846
f 834 847 848
f 834 833 847
f 835 834 848
f 849 837 835
f 849 835 848
f 846 844 847
f 847 844 848
f 848 844 849
f 844 845 849
f 845 850 849
f 850 851 852
f 845 851 850
f 229 853 845
f 845 853 851
f 853 227 854
f 854 227 855
f 229 227 853
f 856 857 228
f 90 93 856
f 858 228 229
f 858 856 228
f 858 90 856
f 845 858 229
f 859 860 861
f 862 861 863
f 862 859 861
f 857 862 863
f 864 857 863
f 865 864 866
f 865 857 864
f 867 228 857
f 867 857 865
f 226 868 869
f 226 867 868
f 226 228 867
f 870 862 857
f 871 862 870
f 862 871 872
f 859 872 873
f 859 862 872
f 860 873 874
f 860 859 873
f 861 860 874
f 875 863 861
f 875 861 874
f 872 871 873
f 873 871 874
f 874 871 875
f 871 870 875
f 870 876 875
f 876 877 878
f 870 877 876
f 225 879 870
f 870 879 877
f 879 223 880
f 880 223 881
f 225 223 879
f 882 883 224
f 94 97 882
f 884 224 225
f 884 882 224
f 884 94 882
f 870 884 225
f 885 886 887
f 888 887 889
f 888 885 887
f 883 888 889
f 890 883 889
f 891 890 892
f 891 883 890
f 893 224 883
f 893 883 891
f 222 894 895
f 222 893 894
f 222 224 893
f 896 888 883
f 896 883 897
f 888 896 898
f 885 898 899
f 885 888 898
f 886 899 900
f 886 885 899
f 887 886 900
f 901 889 887
f 901 887 900
f 898 896 899
f 899 896 900
f 900 896 901
f 896 897 901
f 897 902 901
f 902 903 904
f 897 903 902
f 221 905 897
f 897 905 903
f 905 219 906
f 906 219 907
f 221 219 905
f 908 909 220
f 98 101 908
f 910 220 221
f 910 908 220
f 910 98 908
f 897 910 221
f 911 912 913
f 914 913 915
f 914 911 913
f 909 914 915
f 916 909 915
f 917 916 918
f 917 909 916
f 919 220 909
f 919 909 917
f 218 920 921
f 218 919 920
f 218 220 919
f 922 914 909
f 923 914 922
f 914 923 924
f 911 924 925
f 911 914 924
f 912 925 926
f 912 911 925
f 913 912 926
f 927 915 913
f 927 913 926
f 924 923 925
f 925 923 926
f 926 923 927
f 923 922 927
f 922 928 927
f 928 929 930
f 922 929 928
f 217 931 922
f 922 931 929
f 931 215 932
f 932 215 933
f 217 215 931
f 934 935 216
f 102 105 934
f 936 216 217
f 936 934 216
f 936 102 934
f 922 936 217
f 937 938 939
f 940 939 941
f 940 937 939
f 935 940 941
f 942 935 941
f 943 942 944
f 943 935 942
f 945 216 935
f 945 935 943
f 214 946 947
f 214 945 946
f 214 216 945
f 948 940 935
f 949 940 948
f 940 949 950
f 937 950 951
f 937 940 950
f 938 951 952
f 938 937 951
f 939 938 952
f 953 941 939
f 953 939 952
f 950 949 951
f 951 949 952
f 952 949 953
f 949 948 953
f 948 954 953
f 954 955 956
f 948 955 954
f 213 957 948
f 948 957 955
f 957 211 958
f 958 211 959
f 213 211 957
f 960 961 212
f 106 109 960
f 962 212 213
f 962 960 212
f 962 106 960
f 948 962 213
f 963 964 965
f 966 965 967
f 966 963 965
f 961 966 967
f 968 961 967
f 969 968 970
f 969 961 968
f 971 212 961
f 971 961 969
f 210 972 973
f 210 971 972
f 210 212 971
f 974 966 961
f 975 966 974
f 966 975 976
f 963 976 977
f 963 966 976
f 964 977 978
f 964 963 977
f 965 964 978
f 979 967 965
f 979 965 978
f 976 975 977
f 977 975 978
f 978 975 979
f 975 974 979
f 974 980 979
f 980 981 982
f 974 981 980
f 209 983 974
f 974 983 981
f 983 207 984
f 984 207 985
f 209 207 983
f 986 987 208
f 110 113 986
f 988 208 209
f 988 986 208
f 988 110 986
f 974 988 209
f 989 990 991
f 992 991 993
f 992 989 991
f 987 992 993
f 994 987 993
f 995 994 996
f 995 987 994
f 997 208 987
f 997 987 995
f 206 998 999
f 206 997 998
f 206 208 997
f 1000 992 987
f 1001 992 1000
f 992 1001 1002
f 989 1002 1003
f 989 992 1002
f 990 1003 1004
f 990 989 1003
f 991 990 1004
f 1005 993 991
f 1005 991 1004
f 1002 1001 1003
f 1003 1001 1004
f 1004 1001 1005
f 1001 1000 1005
f 1000 1006 1005
f 1006 1007 1008
f 1000 1007 1006
f 205 1009 1000
f 1000 1009 1007
f 1009 203 1010
f 1010 203 1011
f 205 203 1009
f 1012 1013 204
f 117 118 1012
f 1014 204 205
f 1014 1012 204
f 1014 117 1012
f 1000 1014 205
f 1015 1016 1017
f 1018 1017 1019
f 1018 1015 1017
f 1013 1018 1019
f 1020 1013 1019
f 1021 1020 1022
f 1021 1013 1020
f 1023 204 1013
f 1023 1013 1021
f 202 1024 1025
f 202 1023 1024
f 202 204 1023
f 1026 1018 1013
f 1026 1013 1027
f 1018 1026 1028
f 1015 1028 1029
f 1015 1018 1028
f 1016 1029 1030
f 1016 1015 1029
f 1017 1016 1030
f 1031 1019 1017
f 1031 1017 1030
f 1028 1026 1029
f 1029 1026 1030
f 1030 1026 1031
f 1026 1027 1031
f 1027 1032 1031
f 1032 1033 1034
f 1027 1033 1032
f 200 1035 1027
f 1027 1035 1033
f 1035 201 1036
f 1036 201 1037
f 200 201 1035
f 1038 1039 198
f 122 121 1038
f 1040 198 200
f 1040 1038 198
f 1040 122 1038
f 1027 1040 200
f 1041 1042 1043
f 1044 1043 1045
f 1044 1041 1043
f 1039 1044 1045
f 1046 1039 1045
f 1047 1046 1048
f 1047 1039 1046
f 1049 198 1039
f 1049 1039 1047
f 199 1050 1051
f 199 1049 1050
f 199 198 1049
f 1052 1044 1039
f 1052 1039 1053
f 1044 1052 1054
f 1041 1054 1055
f 1041 1044 1054
f 1042 1055 1056
f 1042 1041 1055
f 1043 1042 1056
f 1057 1045 1043
f 1057 1043 1056
f 1054 1052 1055
f 1055 1052 1056
f 1056 1052 1057
f 1052 1053 1057
f 1053 1058 1057
f 1058 1059 1060
f 1053 1059 1058
f 197 1061 1053
f 1053 1061 1059
f 1061 195 1062
f 1062 195 1063
f 197 195 1061
f 4 5 196
f 124 1 4
f 1064 196 197
f 1064 4 196
f 1064 124 4
f 1053 1064 197
f 1065 1066 1067
f 1068 1067 1069
f 1068 1065 1067
f 5 1068 1069
f 1070 5 1069
f 1071 1070 1072
f 1071 5 1070
f 1073 196 5
f 1073 5 1071
f 194 1074 1075
f 194 1073 1074
f 194 196 1073
f 6 1068 5
f 1076 1068 6
f 1068 1076 1077
f 1065 1077 1078
f 1065 1068 1077
f 1066 1078 1079
f 1066 1065 1078
f 1067 1066 1079
f 1080 1069 1067
f 1080 1067 1079
f 1077 1076 1078
f 1078 1076 1079
f 1079 1076 1080
f 1076 6 1080
f 6 1081 1080
f 1081 1082 1083
f 6 1082 1081
f 193 1084 6
f 6 1084 1082
f 1084 191 1085
f 1085 191 1086
f 193 191 1084
f 1087 1088 192
f 126 127 1087
f 8 192 193
f 8 1087 192
f 8 126 1087
f 6 8 193
f 1089 1090 1091
f 1092 1091 1093
f 1092 1089 1091
f 1088 1092 1093
f 1094 1088 1093
f 1095 1094 1096
f 1095 1088 1094
f 1097 192 1088
f 1097 1088 1095
f 189 1098 188
f 189 1097 1098
f 189 192 1097
f 177 1092 1088
f 177 1088 175
f 179 1091 1090
f 178 1090 1089
f 178 179 1090
f 176 1089 1092
f 176 178 1089
f 177 176 1092
f 179 1093 1091
f 180 1093 179
f 180 1094 1093
f 180 181 1094
f 1094 181 1096
f 1096 181 183
f 1096 183 1095
f 1095 183 182
f 182 184 1095
f 1095 184 1097
f 1097 186 1098
f 184 186 1097
f 1098 187 188
f 186 187 1098
f 174 175 1099
f 1099 1088 1100
f 175 1088 1099
f 1088 1087 1100
f 1099 1100 125
f 1099 125 128
f 1099 130 174
f 128 130 1099
f 127 125 1100
f 1087 127 1100
f 7 126 8
f 9 126 7
f 1080 1081 1070
f 1080 1070 1069
f 1083 1072 1070
f 1083 1070 1081
f 1072 1083 1082
f 1072 1082 1071
f 1086 1074 1085
f 1075 1074 1086
f 1085 1073 1084
f 1074 1073 1085
f 1084 1071 1082
f 1073 1071 1084
f 1075 1086 191
f 1075 191 194
f 1101 124 1064
f 123 124 1101
f 1102 1039 1038
f 1101 1064 1053
f 1101 1053 1039
f 1101 1039 1102
f 1101 1102 120
f 1101 120 123
f 121 120 1102
f 1038 121 1102
f 1057 1046 1045
f 1057 1058 1046
f 1060 1048 1046
f 1060 1046 1058
f 1048 1060 1059
f 1048 1059 1047
f 1051 1050 1063
f 1063 1050 1062
f 1062 1049 1061
f 1050 1049 1062
f 1061 1047 1059
f 1049 1047 1061
f 1051 1063 195
f 1051 195 199
f 1103 122 1040
f 119 122 1103
f 1104 1013 1012
f 1103 1040 1027
f 1103 1027 1013
f 1103 1013 1104
f 1103 1104 116
f 1103 116 119
f 118 116 1104
f 1012 118 1104
f 1031 1020 1019
f 1031 1032 1020
f 1034 1022 1020
f 1034 1020 1032
f 1022 1034 1033
f 1022 1033 1021
f 1025 1024 1037
f 1037 1024 1036
f 1036 1023 1035
f 1024 1023 1036
f 1035 1021 1033
f 1023 1021 1035
f 1025 1037 201
f 1025 201 202
f 1105 117 1014
f 115 117 1105
f 1106 987 986
f 1000 987 1106
f 1105 1014 1000
f 1105 1000 1106
f 1105 1106 112
f 1105 112 115
f 113 112 1106
f 986 113 1106
f 1005 994 993
f 1005 1006 994
f 1008 996 994
f 1008 994 1006
f 996 1008 1007
f 996 1007 995
f 999 998 1011
f 1011 998 1010
f 1010 997 1009
f 998 997 1010
f 1009 995 1007
f 997 995 1009
f 999 1011 203
f 999 203 206
f 1107 110 988
f 111 110 1107
f 1108 961 960
f 974 961 1108
f 1107 988 974
f 1107 974 1108
f 1107 1108 108
f 1107 108 111
f 109 108 1108
f 960 109 1108
f 979 968 967
f 979 980 968
f 982 970 968
f 982 968 980
f 970 982 981
f 970 981 969
f 973 972 985
f 985 972 984
f 984 971 983
f 972 971 984
f 983 969 981
f 971 969 983
f 973 985 207
f 973 207 210
f 1109 106 962
f 107 106 1109
f 1110 935 934
f 948 935 1110
f 1109 962 948
f 1109 948 1110
f 1109 1110 104
f 1109 104 107
f 105 104 1110
f 934 105 1110
f 953 942 941
f 953 954 942
f 956 944 942
f 956 942 954
f 944 956 955
f 944 955 943
f 947 946 959
f 959 946 958
f 958 945 957
f 946 945 958
f 957 943 955
f 945 943 957
f 947 959 211
f 947 211 214
f 1111 102 936
f 103 102 1111
f 1112 909 908
f 922 909 1112
f 1111 936 922
f 1111 922 1112
f 1111 1112 100
f 1111 100 103
f 101 100 1112
f 908 101 1112
f 927 916 915
f 927 928 916
f 930 918 916
f 930 916 928
f 918 930 929
f 918 929 917
f 921 920 933
f 933 920 932
f 932 919 931
f 920 919 932
f 931 917 929
f 919 917 931
f 921 933 215
f 921 215 218
f 1113 98 910
f 99 98 1113
f 1114 883 882
f 1113 910 897
f 1113 897 883
f 1113 883 1114
f 1113 1114 96
f 1113 96 99
f 97 96 1114
f 882 97 1114
f 901 890 889
f 901 902 890
f 904 892 890
f 904 890 902
f 892 904 903
f 892 903 891
f 895 894 907
f 907 894 906
f 906 893 905
f 894 893 906
f 905 891 903
f 893 891 905
f 895 907 219
f 895 219 222
f 1115 94 884
f 95 94 1115
f 1116 857 856
f 870 857 1116
f 1115 884 870
f 1115 870 1116
f 1115 1116 92
f 1115 92 95
f 93 92 1116
f 856 93 1116
f 875 864 863
f 875 876 864
f 878 866 864
f 878 864 876
f 866 878 877
f 866 877 865
f 869 868 881
f 881 868 880
f 880 867 879
f 868 867 880
f 879 865 877
f 867 865 879
f 869 881 223
f 869 223 226
f 1117 90 858
f 91 90 1117
f 1118 831 830
f 1117 858 845
f 1117 845 831
f 1117 831 1118
f 1117 1118 89
f 1117 89 91
f 86 89 1118
f 830 86 1118
f 849 838 837
f 849 850 838
f 852 840 838
f 852 838 850
f 840 852 851
f 840 851 839
f 843 842 855
f 855 842 854
f 854 841 853
f 842 841 854
f 853 839 851
f 841 839 853
f 843 855 227
f 843 227 230
f 1119 87 832
f 88 87 1119
f 1120 805 804
f 818 805 1120
f 1119 832 818
f 1119 818 1120
f 1119 1120 84
f 1119 84 88
f 85 84 1120
f 804 85 1120
f 823 812 811
f 823 824 812
f 826 814 812
f 826 812 824
f 814 826 825
f 814 825 813
f 817 816 829
f 829 816 828
f 828 815 827
f 816 815 828
f 827 813 825
f 815 813 827
f 817 829 231
f 817 231 234
f 1121 82 806
f 83 82 1121
f 1122 779 778
f 792 779 1122
f 1121 806 792
f 1121 792 1122
f 1121 1122 81
f 1121 81 83
f 78 81 1122
f 778 78 1122
f 797 786 785
f 797 798 786
f 800 788 786
f 800 786 798
f 788 800 799
f 788 799 787
f 791 790 803
f 803 790 802
f 802 789 801
f 790 789 802
f 801 787 799
f 789 787 801
f 791 803 235
f 791 235 238
f 1123 79 780
f 80 79 1123
f 1124 753 752
f 1123 780 767
f 1123 767 753
f 1123 753 1124
f 80 1124 76
f 1123 1124 80
f 74 76 1124
f 752 74 1124
f 771 760 759
f 771 772 760
f 774 762 760
f 774 760 772
f 762 774 773
f 762 773 761
f 765 764 777
f 777 764 776
f 776 763 775
f 764 763 776
f 775 761 773
f 763 761 775
f 765 777 239
f 765 239 242
f 1125 77 754
f 75 77 1125
f 1126 727 726
f 1125 754 741
f 1125 741 727
f 1125 727 1126
f 75 1126 71
f 1125 1126 75
f 72 71 1126
f 726 72 1126
f 745 734 733
f 745 746 734
f 748 736 734
f 748 734 746
f 736 748 747
f 736 747 735
f 739 738 751
f 751 738 750
f 750 737 749
f 738 737 750
f 749 735 747
f 737 735 749
f 739 751 243
f 739 243 246
f 1127 73 728
f 70 73 1127
f 1128 701 700
f 1127 728 715
f 1127 715 701
f 1127 701 1128
f 70 1128 67
f 1127 1128 70
f 68 67 1128
f 700 68 1128
f 719 708 707
f 719 720 708
f 722 710 708
f 722 708 720
f 710 722 721
f 710 721 709
f 713 712 725
f 725 712 724
f 724 711 723
f 712 711 724
f 723 709 721
f 711 709 723
f 713 725 247
f 713 247 251
f 1129 69 702
f 66 69 1129
f 1130 675 674
f 688 675 1130
f 1129 702 688
f 1129 688 1130
f 66 1130 63
f 1129 1130 66
f 64 63 1130
f 674 64 1130
f 693 682 681
f 693 694 682
f 696 684 682
f 696 682 694
f 684 696 695
f 684 695 683
f 687 686 699
f 699 686 698
f 698 685 697
f 686 685 698
f 697 683 695
f 685 683 697
f 687 699 253
f 687 253 254
f 1131 65 676
f 62 65 1131
f 1132 649 648
f 662 649 1132
f 1131 676 662
f 1131 662 1132
f 1131 1132 59
f 1131 59 62
f 61 59 1132
f 648 61 1132
f 667 656 655
f 667 668 656
f 670 658 656
f 670 656 668
f 658 670 669
f 658 669 657
f 661 660 673
f 673 660 672
f 672 659 671
f 660 659 672
f 671 657 669
f 659 657 671
f 661 673 255
f 661 255 258
f 1133 60 650
f 58 60 1133
f 1134 623 622
f 636 623 1134
f 1133 650 636
f 1133 636 1134
f 1133 1134 55
f 1133 55 58
f 57 55 1134
f 622 57 1134
f 641 630 629
f 641 642 630
f 644 632 630
f 644 630 642
f 632 644 643
f 632 643 631
f 635 634 647
f 647 634 646
f 646 633 645
f 634 633 646
f 645 631 643
f 633 631 645
f 635 647 259
f 635 259 262
f 1135 56 624
f 54 56 1135
f 1136 597 596
f 610 597 1136
f 1135 624 610
f 1135 610 1136
f 1135 1136 51
f 1135 51 54
f 53 51 1136
f 596 53 1136
f 615 604 603
f 615 616 604
f 618 606 604
f 618 604 616
f 606 618 617
f 606 617 605
f 609 608 621
f 621 608 620
f 620 607 619
f 608 607 620
f 619 605 617
f 607 605 619
f 609 621 263
f 609 263 266
f 1137 52 598
f 50 52 1137
f 1138 571 570
f 584 571 1138
f 1137 598 584
f 1137 584 1138
f 1137 1138 47
f 1137 47 50
f 49 47 1138
f 570 49 1138
f 589 578 577
f 589 590 578
f 592 580 578
f 592 578 590
f 580 592 591
f 580 591 579
f 583 582 595
f 595 582 594
f 594 581 593
f 582 581 594
f 593 579 591
f 581 579 593
f 583 595 267
f 583 267 270
f 1139 48 572
f 46 48 1139
f 1140 545 544
f 558 545 1140
f 1139 572 558
f 1139 558 1140
f 1139 1140 43
f 1139 43 46
f 45 43 1140
f 544 45 1140
f 563 552 551
f 563 564 552
f 566 554 552
f 566 552 564
f 554 566 565
f 554 565 553
f 557 556 569
f 569 556 568
f 568 555 567
f 556 555 568
f 567 553 565
f 555 553 567
f 557 569 271
f 557 271 274
f 1141 44 546
f 42 44 1141
f 1142 519 518
f 532 519 1142
f 1141 546 532
f 1141 532 1142
f 1141 1142 39
f 1141 39 42
f 41 39 1142
f 518 41 1142
f 537 526 525
f 537 538 526
f 540 528 526
f 540 526 538
f 528 540 539
f 528 539 527
f 531 530 543
f 543 530 542
f 542 529 541
f 530 529 542
f 541 527 539
f 529 527 541
f 531 543 275
f 531 275 278
f 1143 40 520
f 38 40 1143
f 1144 493 492
f 1143 520 507
f 1143 507 493
f 1143 493 1144
f 1143 1144 35
f 1143 35 38
f 37 35 1144
f 492 37 1144
f 511 500 499
f 511 512 500
f 514 502 500
f 514 500 512
f 502 514 513
f 502 513 501
f 505 504 517
f 517 504 516
f 516 503 515
f 504 503 516
f 515 501 513
f 503 501 515
f 505 517 279
f 505 279 282
f 1145 36 494
f 34 36 1145
f 1146 467 466
f 480 467 1146
f 1145 494 480
f 1145 480 1146
f 1145 1146 31
f 1145 31 34
f 33 31 1146
f 466 33 1146
f 485 474 473
f 485 486 474
f 488 476 474
f 488 474 486
f 476 488 487
f 476 487 475
f 479 478 491
f 491 478 490
f 490 477 489
f 478 477 490
f 489 475 487
f 477 475 489
f 479 491 283
f 479 283 286
f 1147 32 468
f 30 32 1147
f 1148 441 440
f 454 441 1148
f 1147 468 454
f 1147 454 1148
f 1147 1148 27
f 1147 27 30
f 29 27 1148
f 440 29 1148
f 459 448 447
f 459 460 448
f 462 450 448
f 462 448 460
f 450 462 461
f 450 461 449
f 453 452 465
f 465 452 464
f 464 451 463
f 452 451 464
f 463 449 461
f 451 449 463
f 453 465 287
f 453 287 290
f 1149 28 442
f 26 28 1149
f 1150 415 414
f 1149 442 429
f 1149 429 415
f 1149 415 1150
f 1149 1150 23
f 1149 23 26
f 25 23 1150
f 414 25 1150
f 433 422 421
f 433 434 422
f 436 424 422
f 436 422 434
f 424 436 435
f 424 435 423
f 427 426 439
f 439 426 438
f 438 425 437
f 426 425 438
f 437 423 435
f 425 423 437
f 427 439 291
f 427 291 294
f 1151 24 416
f 22 24 1151
f 1152 389 388
f 1151 416 403
f 1151 403 389
f 1151 389 1152
f 1151 1152 19
f 1151 19 22
f 21 19 1152
f 388 21 1152
f 407 396 395
f 407 408 396
f 410 398 396
f 410 396 408
f 398 410 409
f 398 409 397
f 401 400 413
f 413 400 412
f 412 399 411
f 400 399 412
f 411 397 409
f 399 397 411
f 401 413 295
f 401 295 299
f 1153 20 390
f 18 20 1153
f 1154 354 353
f 1153 390 377
f 1153 377 354
f 1153 354 1154
f 1153 1154 15
f 1153 15 18
f 17 15 1154
f 353 17 1154
f 381 370 369
f 381 382 370
f 384 372 370
f 384 370 382
f 372 384 383
f 372 383 371
f 375 374 387
f 387 374 386
f 386 373 385
f 374 373 386
f 385 371 383
f 373 371 385
f 375 387 301
f 375 301 302
f 1155 131 12
f 1156 131 1155
f 11 1155 12
f 335 1155 11
f 1157 1156 1158
f 131 1156 1157
f 1157 158 132
f 1157 132 131
f 1159 158 1157
f 1160 158 1159
f 1161 1160 1159
f 159 158 1160
f 1162 1163 159
f 1163 161 159
f 1164 1160 1165
f 1165 1166 1163
f 1163 1166 161
f 1160 1166 1165
f 159 1160 1162
f 1162 1160 1164
f 161 1166 1167
f 336 1167 1168
f 162 161 1167
f 162 1167 336
f 1155 336 1168
f 335 336 1155
f 1156 1155 1158
f 1155 1161 1158
f 1161 1168 1167
f 1155 1168 1161
f 1158 1159 1157
f 1158 1161 1159
f 1161 1167 1160
f 1160 1167 1166
f 1163 1162 1169
f 1163 1169 1170
f 1171 1172 1173
f 1174 1175 1176
f 1177 1176 1178
f 1177 1174 1176
f 1179 1178 1180
f 1179 1177 1178
f 1181 1179 1180
f 1182 1183 1171
f 1182 1171 1173
f 1170 1184 1185
f 1170 1185 1186
f 1187 1188 1189
f 1187 1182 1188
f 1187 1183 1182
f 1190 1191 1181
f 1190 1180 1183
f 1190 1181 1180
f 1190 1183 1187
f 1192 1193 1191
f 1192 1191 1190
f 1163 1194 1195
f 1163 1192 1194
f 1163 1195 1165
f 1163 1186 1193
f 1163 1193 1192
f 1163 1170 1186
f 1187 1196 1190
f 1190 1196 1197
f 1196 1187 1189
f 1198 1189 1188
f 1198 1196 1189
f 1199 1188 1182
f 1199 1198 1188
f 1200 1199 1182
f 1182 1173 1200
f 1173 1201 1200
f 1202 1173 1172
f 1201 1173 1202
f 1203 1172 1171
f 1202 1172 1203
f 1178 1204 1180
f 1180 1205 1183
f 1204 1205 1180
f 1183 1206 1171
f 1205 1206 1183
f 1206 1203 1171
f 1207 1178 1176
f 1204 1178 1207
f 1208 1176 1175
f 1207 1176 1208
f 1174 1209 1175
f 1175 1209 1208
f 1181 1210 1179
f 1179 1211 1177
f 1210 1211 1179
f 1177 1212 1174
f 1211 1212 1177
f 1212 1209 1174
f 1213 1181 1191
f 1210 1181 1213
f 1214 1215 1185
f 1185 1215 1186
f 1186 1216 1193
f 1215 1216 1186
f 1193 1213 1191
f 1216 1213 1193
f 1217 1185 1184
f 1214 1185 1217
f 1169 1184 1170
f 1217 1184 1169
f 1202 1203 1201
f 1208 1209 1207
f 1207 1212 1204
f 1209 1212 1207
f 1204 1211 1205
f 1212 1211 1204
f 1211 1210 1205
f 1206 1200 1203
f 1203 1200 1201
f 1217 1169 1214
f 1214 1169 1215
f 1200 1196 1199
f 1199 1196 1198
f 1206 1196 1200
f 1213 1197 1210
f 1205 1197 1206
f 1210 1197 1205
f 1206 1197 1196
f 1216 1218 1213
f 1213 1218 1197
f 1218 1162 1219
f 1219 1162 1220
f 1220 1162 1164
f 1215 1162 1216
f 1169 1162 1215
f 1216 1162 1218
f 1197 1218 1190
f 1190 1218 1192
f 1192 1219 1194
f 1218 1219 1192
f 1194 1220 1195
f 1219 1220 1194
f 1220 1164 1165
f 1220 1165 1195
f 166 164 329
f 160 164 166
f 1221 154 1222
f 1222 170 1223
f 154 155 1222
f 1222 155 170
f 1224 1225 152
f 154 1224 152
f 1226 1224 154
f 1227 1228 1226
f 1221 1226 154
f 1221 1227 1226
f 1227 152 1228
f 1228 152 1225
f 151 1227 1229
f 1227 1230 1229
f 151 152 1227
f 1221 1230 1227
f 1221 1222 1230
f 1231 1232 1233
f 1230 1231 1233
f 1223 1230 1222
f 1223 1231 1230
f 1230 1233 1229
f 1229 1233 1234
f 151 1234 138
f 138 1234 135
f 151 1229 1234
f 1232 1234 1233
f 1232 135 1234
f 135 1231 114
f 135 1232 1231
f 1231 129 114
f 1231 173 129
f 170 173 1231
f 170 1231 1223
f 1235 1236 1237
f 1238 1239 1240
f 1241 1240 1242
f 1241 1238 1240
f 1243 1242 1244
f 1243 1241 1242
f 1245 1243 1244
f 1246 1247 1235
f 1246 1235 1237
f 1248 1249 1250
f 1248 1250 1251
f 1252 1253 1254
f 1252 1246 1253
f 1252 1247 1246
f 1255 1256 1245
f 1255 1244 1247
f 1255 1245 1244
f 1255 1247 1252
f 1257 1258 1256
f 1257 1256 1255
f 1225 1251 1258
f 1225 1259 1260
f 1225 1257 1259
f 1225 1260 1228
f 1225 1258 1257
f 1225 1248 1251
f 1261 1249 1248
f 1261 1248 1262
f 1263 1264 1265
f 1266 1267 1268
f 1268 1269 1270
f 1267 1269 1268
f 1270 1271 1272
f 1269 1271 1270
f 1271 1273 1272
f 1274 1275 1264
f 1264 1275 1265
f 1261 1262 1276
f 1276 1262 1277
f 1275 1278 1279
f 1279 1278 1280
f 1274 1278 1275
f 1281 1282 1273
f 1272 1282 1274
f 1273 1282 1272
f 1274 1282 1278
f 1283 1284 1281
f 1281 1284 1282
f 1284 1224 1285
f 1285 1224 1286
f 1286 1224 1226
f 1277 1224 1283
f 1262 1224 1277
f 1283 1224 1284
f 1252 1282 1255
f 1252 1278 1282
f 1278 1252 1254
f 1280 1254 1253
f 1280 1278 1254
f 1279 1253 1246
f 1279 1280 1253
f 1275 1279 1246
f 1275 1246 1237
f 1275 1237 1265
f 1237 1236 1263
f 1237 1263 1265
f 1263 1236 1235
f 1263 1235 1264
f 1242 1270 1244
f 1244 1272 1247
f 1270 1272 1244
f 1247 1274 1235
f 1272 1274 1247
f 1274 1264 1235
f 1270 1242 1240
f 1270 1240 1268
f 1268 1240 1239
f 1268 1239 1266
f 1238 1266 1239
f 1238 1267 1266
f 1245 1273 1243
f 1243 1271 1241
f 1273 1271 1243
f 1241 1269 1238
f 1271 1269 1241
f 1269 1267 1238
f 1273 1245 1256
f 1273 1256 1281
f 1276 1277 1250
f 1250 1277 1251
f 1251 1283 1258
f 1277 1283 1251
f 1258 1281 1256
f 1283 1281 1258
f 1276 1250 1249
f 1276 1249 1261
f 1286 1260 1285
f 1285 1259 1284
f 1260 1259 1285
f 1284 1257 1282
f 1259 1257 1284
f 1257 1255 1282
f 1226 1228 1286
f 1286 1228 1260
f 1225 1262 1248
f 1225 1224 1262
f 146 133 150
f 147 133 146
f 134 133 147
f 139 134 147
f 139 147 149
f 140 139 149
f 1287 149 1288
f 1287 140 149
f 1289 1288 1290
f 1289 1290 1291
f 1289 1287 1288
f 1292 1289 1291
f 1293 142 1287
f 1287 142 140
f 143 141 148
f 141 142 148
f 148 1293 1294
f 142 1293 148
f 1294 1295 1296
f 1293 1295 1294
f 1296 1297 1298
f 1295 1297 1296
f 1294 1288 149
f 1294 149 148
f 1296 1290 1294
f 1294 1290 1288
f 1298 1291 1290
f 1298 1290 1296
f 1297 1292 1291
f 1297 1291 1298
f 1289 1297 1295
f 1292 1297 1289
f 1287 1295 1293
f 1289 1295 1287
