# smartdrone2 body-local mesh, millimetres
v -11.572351 -188.747717 111.374113
v -11.831957 -188.882538 111.355657
v -11.854809 -188.811470 111.394394
v -12.152709 -188.964755 111.314894
v -12.145075 -188.811483 111.394398
v -12.427518 -188.747680 111.374168
v -12.491289 -188.969134 111.250309
v -12.694238 -188.642494 111.323666
v -12.835246 -188.889997 111.158024
v -13.488482 -188.588857 110.832060
v -13.642392 -188.252591 110.725439
v -13.402893 -188.511883 110.911332
v -12.871172 -186.628233 110.544310
v -12.859375 -186.350808 110.122434
v -12.705485 -186.511862 110.496382
v -13.169048 -186.568667 110.191512
v -12.886337 -188.833851 111.155616
v -12.927530 -188.482247 111.255823
v -13.026756 -188.804026 111.091591
v -13.224086 -188.499200 111.049507
v -13.115001 -188.276914 111.174064
v -13.228241 -188.672441 111.005682
v -13.429988 -188.078341 110.916063
v -13.248869 -188.037440 111.081633
v -13.323168 -187.776823 110.982804
v -13.713945 -187.892109 110.611140
v -13.481867 -187.616605 110.769660
v -13.335737 -187.506425 110.880928
v -13.286231 -187.239782 110.780538
v -13.699554 -187.525488 110.494894
v -13.374133 -187.163727 110.626064
v -13.178238 -186.989962 110.685631
v -13.420099 -186.846750 110.279684
v -13.599940 -187.171112 110.382531
v -13.118391 -186.768485 110.500743
v -13.016309 -186.766511 110.599239
v -10.917468 -186.737010 111.761316
v -11.035854 -186.592489 111.652787
v -10.917468 -186.760703 111.686591
v -11.035818 -186.568861 111.727452
v -11.180579 -186.445414 111.625678
v -11.180626 -186.421751 111.700171
v -11.421215 -186.281217 111.601007
v -11.421596 -186.257330 111.675681
v -11.693018 -186.174382 111.594550
v -11.693371 -186.150647 111.669111
v -11.982195 -186.130116 111.607920
v -11.982034 -186.106464 111.682523
v -12.272311 -186.150690 111.641943
v -12.272086 -186.126971 111.716583
v -12.547601 -186.234595 111.695963
v -12.547077 -186.210719 111.770425
v -12.792775 -186.376562 111.768430
v -12.791962 -186.352272 111.842830
v -12.994693 -186.568304 111.856576
v -12.994055 -186.543884 111.930823
v -13.143056 -186.799778 111.957444
v -13.142413 -186.774778 112.031492
v -13.229173 -187.057494 112.066608
v -13.228841 -187.032163 112.140591
v -13.248371 -187.326992 112.179510
v -13.248512 -187.300744 112.252960
v -13.199607 -187.593189 112.291377
v -13.200425 -187.566906 112.364992
v -13.085815 -187.840697 112.397258
v -13.087330 -187.814595 112.470767
v -12.913150 -188.056180 112.492979
v -12.915180 -188.030516 112.566719
v -12.691253 -188.227380 112.574594
v -12.693123 -188.202572 112.648718
v -12.431305 -188.345057 112.639392
v -12.434132 -188.320507 112.713369
v -12.147890 -188.401970 112.684841
v -12.150757 -188.378027 112.759213
v -11.856421 -188.394538 112.709956
v -11.859769 -188.371351 112.784348
v -11.572461 -188.322691 112.714636
v -11.576207 -188.300376 112.789356
v -11.315291 -188.192069 112.700230
v -11.315310 -188.168411 112.774887
v -11.094222 -188.008515 112.669177
v -11.091774 -187.982315 112.743269
v -10.919527 -187.778673 112.623556
v -10.917446 -187.751803 112.697778
v -10.803251 -187.515634 112.567795
v -10.802571 -187.497664 112.616982
v -10.752189 -187.234176 112.505824
v -10.752120 -187.225114 112.530564
v -10.769001 -186.948830 112.442940
v -12.143652 -188.803705 111.419476
v -11.851951 -188.795326 111.444194
v -11.568567 -188.722572 111.448612
v -11.381282 -188.657628 111.365419
v -11.309117 -188.589382 111.433708
v -11.207750 -188.538261 111.347292
v -11.086470 -188.401751 111.401754
v -11.004741 -188.329563 111.308735
v -10.913590 -188.169877 111.355620
v -10.856046 -188.081023 111.257422
v -10.799930 -187.906032 111.299477
v -10.770183 -187.806017 111.197891
v -10.751592 -187.624886 111.237648
v -10.751884 -187.519445 111.134516
v -10.770872 -187.340027 111.174752
v -10.801853 -187.237276 111.072600
v -10.827092 -187.139145 111.130975
v -10.917468 -186.973221 111.016342
v -10.917468 -186.949560 111.090965
v -10.828068 -187.636320 112.691917
v -10.752294 -187.512280 112.682425
v -10.651200 -187.274078 112.659441
v -10.598144 -187.033805 112.631607
v -10.587040 -186.817333 112.604168
v -10.836170 -186.675207 112.373277
v -10.607329 -186.607669 112.576484
v -10.700333 -186.282928 112.534776
v -10.965608 -186.423378 112.310352
v -12.556698 -185.914788 112.249904
v -12.859375 -185.595198 112.505511
v -12.693047 -185.970358 112.275485
v -12.526865 -185.454573 112.460922
v -10.950227 -186.084468 112.414813
v -11.149356 -186.206155 112.258180
v -11.138483 -185.678415 112.470876
v -10.882896 -185.958080 112.495993
v -11.343334 -185.815884 112.329652
v -11.377274 -186.033569 112.219803
v -11.638223 -185.912217 112.197676
v -11.451865 -185.461157 112.463183
v -11.449808 -185.461910 112.463249
v -11.806152 -185.682018 112.287206
v -11.906439 -185.849220 112.192969
v -12.164527 -185.838681 112.203820
v -12.170753 -185.383804 112.438483
v -11.806993 -185.386061 112.439199
v -12.289549 -185.697081 112.291982
v -12.414469 -185.873639 112.228825
v -11.410189 -185.436518 109.832538
v -11.659455 -186.163789 110.063136
v -11.914967 -185.371103 109.811796
v -10.492752 -185.847319 109.962792
v -11.267181 -186.287690 110.102421
v -10.929558 -185.597453 109.883566
v -12.071416 -186.132723 110.053286
v -12.423226 -185.403885 109.822191
v -10.917270 -186.497263 110.168871
v -12.479248 -186.196287 110.073440
v -10.629951 -186.780392 110.258644
v -10.421833 -187.120711 110.366550
v -13.765179 -186.058389 110.029716
v -9.499885 -187.486585 110.482559
v -10.304947 -187.498546 110.486351
v -14.090426 -186.432129 110.148219
v -9.491281 -187.972112 110.636506
v -10.286051 -187.892054 110.611122
v -14.330091 -186.860627 110.284084
v -9.585385 -188.449351 110.787826
v -10.366236 -188.278488 110.733650
v -14.474362 -187.326343 110.431750
v -10.540867 -188.635508 110.846852
v -10.062256 -189.301951 111.058163
v -10.799850 -188.942475 110.944182
v -14.457243 -188.292414 110.738066
v -13.551128 -188.623335 110.842990
v -11.128211 -189.181643 111.020016
v -14.296553 -188.753219 110.884174
v -11.506970 -189.339187 111.069969
v -13.359390 -188.834423 110.909922
v -11.914231 -189.405999 111.091154
v -13.221437 -188.949772 110.946496
v -13.703539 -189.536812 111.132631
v -13.071474 -189.050599 110.978466
v -11.830031 -190.164140 111.331540
v -12.719797 -189.257446 111.044051
v -12.339162 -190.147739 111.326339
v -12.326450 -189.378217 111.082345
v -12.834407 -190.033980 111.290270
v -10.117652 -186.175887 110.066972
v -9.976076 -185.867498 110.122465
v -13.282097 -185.475672 109.941176
v -12.983592 -185.306583 109.904248
v -12.914158 -185.533523 109.863295
v -13.367665 -185.754710 109.933428
v -13.575241 -185.635286 109.997744
v -14.517332 -187.810208 110.585171
v -14.700000 -187.333841 110.547037
v -14.700000 -187.988156 110.743776
v -14.700000 -188.308492 110.873881
v -13.295492 -189.827520 111.224807
v -13.716408 -189.764402 111.317703
v -13.417903 -189.933490 111.354631
v -11.323924 -190.325317 111.535920
v -11.327859 -190.082511 111.305657
v -10.853205 -189.906194 111.249752
v -10.717903 -190.008231 111.378329
v -10.425500 -189.642407 111.166112
v -9.300000 -187.816693 110.683451
v -9.300000 -188.140448 110.802790
v -9.300000 -187.492313 110.586557
v -9.793403 -186.227211 110.188152
v -9.473205 -186.318609 110.322038
v -9.646410 -186.444156 110.256939
v -9.819615 -186.569704 110.191840
v -9.631015 -186.085698 110.248188
v -9.300000 -186.193062 110.387136
v -9.962326 -186.025295 110.124129
v -11.070495 -185.305095 109.895773
v -11.173740 -185.214865 109.892975
v -11.329390 -185.228971 109.871636
v -11.568097 -184.977616 109.887915
v -11.594949 -185.177798 109.855411
v -11.864534 -185.152083 109.847257
v -11.854565 -184.931450 109.882207
v -12.000000 -184.707122 109.915985
v -12.135466 -185.152083 109.847257
v -12.145435 -184.931450 109.882207
v -12.405051 -185.177798 109.855411
v -12.676076 -185.125712 109.887265
v -12.670610 -185.228971 109.871636
v -12.929505 -185.305095 109.895773
v -13.848500 -185.840415 110.065509
v -13.873740 -185.791343 110.075761
v -14.037674 -186.025295 110.124129
v -14.268097 -185.988162 110.208332
v -14.206597 -186.227211 110.188152
v -14.353590 -186.444156 110.256939
v -14.526795 -186.318609 110.322038
v -14.700000 -186.193062 110.387136
v -14.477192 -186.673975 110.329808
v -14.659493 -186.565340 110.400270
v -14.700000 -186.607344 110.423142
v -14.576174 -186.914383 110.406035
v -14.649553 -187.162990 110.484862
v -14.616116 -188.441086 110.890112
v -14.700000 -188.722344 111.075268
v -14.529828 -188.685897 110.967735
v -14.418397 -188.921303 111.042376
v -14.596371 -188.978054 111.165276
v -14.282931 -189.144963 111.113292
v -14.041843 -189.173757 111.017516
v -14.450936 -189.218173 111.241412
v -14.348576 -189.385818 111.304121
v -14.124777 -189.354654 111.179780
v -14.023924 -189.583531 111.300719
v -13.945505 -189.548293 111.241178
v -13.746898 -189.723954 111.296875
v -12.801054 -190.214944 111.452555
v -12.826260 -190.249162 111.489216
v -12.538500 -190.278672 111.472761
v -12.431903 -190.445980 111.621787
v -12.270595 -190.317163 111.484966
v -12.000000 -190.330037 111.489047
v -12.000000 -190.490458 111.644819
v -11.729405 -190.317163 111.484966
v -11.709492 -190.476638 111.640437
v -11.648576 -190.484947 111.652625
v -11.461500 -190.278672 111.472761
v -10.054495 -189.548293 111.241178
v -9.731903 -189.435435 111.301370
v -9.875223 -189.354654 111.179780
v -9.717069 -189.144963 111.113292
v -9.778343 -188.898763 110.930323
v -9.549064 -189.218173 111.241412
v -9.300000 -189.164941 111.329440
v -9.581603 -188.921303 111.042376
v -9.403629 -188.978054 111.165276
v -9.470172 -188.685897 110.967735
v -9.300000 -188.467300 110.946793
v -9.383884 -188.441086 110.890112
v -9.323596 -188.189301 110.810277
v -9.350447 -187.162990 110.484862
v -9.610844 -187.012648 110.332286
v -9.300000 -187.155535 110.508310
v -9.423826 -186.914383 110.406035
v -9.300000 -186.701252 110.434434
v -9.522808 -186.673975 110.329808
v -9.340507 -186.565340 110.400270
v -9.651424 -185.397921 112.223593
v -9.651424 -186.027128 110.239171
v -9.300000 -185.618798 112.198275
v -10.283592 -185.709887 110.032125
v -10.582097 -184.850249 112.173084
v -10.582097 -185.550413 109.964874
v -10.875241 -184.690634 112.116516
v -10.875241 -185.387365 109.919135
v -11.173740 -184.534577 112.038498
v -11.568097 -184.337758 111.905928
v -12.000000 -184.132859 111.727123
v -9.300000 -188.805602 111.120150
v -9.300000 -188.590677 113.140578
v -9.300000 -187.800010 113.051322
v -9.300000 -187.449898 112.980677
v -9.300000 -186.795582 112.783938
v -9.300000 -186.475247 112.653833
v -12.000000 -190.650880 111.800591
v -12.000000 -190.076617 113.611729
v -11.323924 -189.658027 113.640450
v -11.016408 -189.477156 113.623466
v -11.016408 -190.167705 111.445579
v -10.424759 -189.845183 111.332589
v -10.126260 -188.992396 113.451953
v -10.126260 -189.672683 111.306430
v -9.731903 -188.795577 113.319382
v -14.700000 -189.164941 111.329440
v -14.700000 -188.590677 113.140578
v -13.716408 -189.073852 113.495590
v -13.417903 -189.233326 113.562840
v -13.124759 -189.396374 113.608580
v -13.124759 -190.093105 111.411199
v -12.431903 -189.806123 113.639799
v -14.700000 -185.978137 112.407564
v -14.700000 -185.618798 112.198275
v -14.700000 -186.316439 112.580922
v -14.700000 -186.983729 110.476392
v -14.700000 -186.643291 112.724924
v -14.700000 -187.667210 110.636054
v -14.700000 -187.291426 112.941157
v -14.700000 -187.628204 113.019404
v -14.700000 -188.082486 113.093280
v -12.351424 -184.298792 111.875089
v -12.351424 -184.927999 109.890666
v -12.676076 -184.458422 111.991795
v -13.282097 -184.775508 112.149385
v -13.873740 -185.111055 112.221284
v -14.268097 -185.348304 112.226345
v -14.700000 -186.967046 112.844263
v -13.575241 -184.938556 112.195125
v -13.574500 -185.141331 112.361602
v -12.983592 -184.616034 112.082135
v -12.672141 -184.701228 112.222057
v -10.283592 -185.019337 112.210012
v -9.542757 -186.491325 112.789649
v -9.300000 -187.116529 112.891660
v -9.525638 -187.457396 113.095964
v -10.717903 -189.308067 113.586538
v -10.424759 -189.148453 113.529970
v -10.632335 -189.029029 113.594287
v -11.085842 -189.250215 113.664419
v -13.070442 -189.186286 113.644148
v -13.507248 -188.936420 113.564923
v -13.882348 -188.607852 113.460743
v -14.023924 -188.916241 113.405249
v -14.477192 -188.109764 113.197906
v -14.526795 -188.465130 113.205676
v -14.353590 -188.339582 113.270775
v -14.659493 -188.218399 113.127445
v -14.576174 -187.869356 113.121679
v -14.649553 -187.620749 113.042852
v -14.696600 -187.366412 112.962209
v -14.676404 -186.594438 112.717437
v -14.616116 -186.342653 112.637603
v -14.529828 -186.097841 112.559979
v -14.418397 -185.862436 112.485338
v -14.596371 -185.805685 112.362438
v -14.282931 -185.638776 112.414422
v -13.937744 -185.481788 112.469552
v -14.450936 -185.565566 112.286303
v -14.124777 -185.429085 112.347934
v -13.945505 -185.235446 112.286537
v -12.538500 -184.505067 112.054953
v -12.270595 -184.466575 112.042749
v -12.000000 -184.453702 112.038667
v -12.000000 -184.293280 111.882895
v -11.729405 -184.466575 112.042749
v -11.709492 -184.307101 111.887277
v -11.461500 -184.505067 112.054953
v -11.198946 -184.568795 112.075160
v -10.944354 -184.657125 112.103167
v -10.054495 -185.235446 112.286537
v -9.976076 -185.200208 112.226995
v -9.875223 -185.429085 112.347934
v -9.717069 -185.638776 112.414422
v -9.549064 -185.565566 112.286303
v -9.581603 -185.862436 112.485338
v -9.703447 -186.030520 112.643540
v -9.403629 -185.805685 112.362438
v -9.300000 -186.061395 112.452446
v -9.470172 -186.097841 112.559979
v -9.383884 -186.342653 112.637603
v -9.350447 -187.620749 113.042852
v -9.423826 -187.869356 113.121679
v -9.300000 -188.176394 113.104573
v -9.522808 -188.109764 113.197906
v -9.646410 -188.339582 113.270775
v -9.909574 -188.351610 113.379495
v -9.473205 -188.465130 113.205676
v -9.793403 -188.556528 113.339563
v -9.631015 -188.698040 113.279526
v -9.962326 -188.758444 113.403585
v -10.234821 -188.725350 113.497998
v -10.151500 -188.943323 113.462205
v -10.359046 -189.109330 113.514841
v -11.329390 -189.554768 113.656078
v -11.576774 -189.379854 113.705524
v -11.594949 -189.605941 113.672304
v -11.648576 -189.855739 113.637048
v -11.864534 -189.631655 113.680457
v -12.085033 -189.412636 113.715918
v -11.854565 -189.852289 113.645507
v -12.135466 -189.631655 113.680457
v -12.145435 -189.852289 113.645507
v -12.405051 -189.605941 113.672304
v -12.670610 -189.554768 113.656078
v -12.826260 -189.568874 113.634739
v -12.929505 -189.478644 113.631941
v -14.037674 -188.758444 113.403585
v -14.348576 -188.756611 113.288544
v -14.206597 -188.556528 113.339563
v -14.368985 -188.698040 113.279526
v -11.165593 -184.749759 112.237445
v -11.660838 -184.636000 112.201375
v -11.171039 -185.543774 112.489206
v -10.704508 -184.956218 112.302908
v -12.169969 -184.619599 112.196175
v -11.005500 -185.616886 112.512388
v -10.848856 -185.706039 112.540656
v -10.296461 -185.246927 112.395083
v -10.664066 -185.923237 112.609523
v -9.958157 -185.609982 112.510198
v -13.146795 -184.877545 112.277962
v -10.568657 -186.072566 112.656871
v -10.490454 -186.230687 112.707008
v -13.181547 -185.824224 112.578129
v -10.340876 -186.586265 112.819752
v -13.439116 -186.118306 112.671375
v -14.221657 -185.884975 112.597392
v -10.282013 -186.965234 112.939913
v -9.482668 -186.973531 112.942543
v -13.617998 -186.461366 112.780150
v -10.317083 -187.346873 113.060920
v -14.414615 -186.334388 112.739888
v -13.708414 -186.834645 112.898506
v -9.669909 -187.923111 113.243630
v -10.444171 -187.710315 113.176158
v -14.508719 -186.811627 112.891208
v -13.705419 -187.217735 113.019974
v -10.656326 -188.035688 113.279325
v -14.500115 -187.297154 113.045155
v -10.941948 -188.305202 113.364780
v -14.389156 -187.771091 113.195428
v -13.609177 -187.589688 113.137910
v -11.285422 -188.504121 113.427852
v -14.180385 -188.214035 113.335874
v -13.424951 -187.930169 113.245867
v -11.667966 -188.621568 113.465092
v -13.162813 -188.220559 113.337943
v -12.068665 -188.651123 113.474463
v -12.837096 -188.444983 113.409101
v -12.465610 -188.591168 113.455453
v -12.589811 -189.347221 113.695177
v -11.824198 -188.552563 113.297384
v -12.080873 -188.803723 113.230787
v -12.139961 -188.546744 113.280691
v -11.830238 -188.793117 113.243680
v -11.512588 -188.498383 113.295076
v -11.218809 -188.617703 113.230087
v -11.525095 -188.733773 113.245269
v -11.217416 -188.386531 113.274368
v -10.922632 -188.438732 113.195950
v -10.950560 -188.221951 113.236624
v -10.663331 -188.204532 113.144917
v -10.720803 -188.010777 113.184207
v -10.536864 -187.760633 113.119243
v -10.455656 -187.926120 113.079930
v -10.405069 -187.479516 113.044375
v -10.308038 -187.614921 113.004136
v -10.328577 -187.161516 112.958734
v -10.225575 -187.280192 112.921382
v -10.315284 -186.938304 112.898162
v -10.212812 -186.930764 112.834219
v -10.340485 -186.675568 112.826764
v -10.281241 -186.553786 112.740359
v -10.399088 -186.448036 112.765289
v -10.367632 -186.326625 112.684832
v -10.524557 -186.055485 112.619870
v -10.674585 -185.870465 112.576889
v -11.050233 -188.241435 112.623811
v -11.001408 -188.706459 112.536978
v -10.930414 -188.401572 112.565279
v -10.702158 -188.458515 112.484054
v -10.797856 -187.951018 112.563691
v -10.646198 -188.075678 112.493910
v -10.485248 -188.185621 112.420774
v -10.326798 -187.877693 112.346350
v -10.633445 -187.606536 112.486429
v -10.461045 -187.688899 112.403237
v -10.233747 -187.544980 112.264076
v -10.570375 -187.232156 112.399687
v -10.390018 -187.268451 112.301887
v -10.210126 -187.199942 112.178085
v -10.611962 -186.854992 112.312061
v -10.436852 -186.844866 112.199544
v -10.256373 -186.857355 112.092782
v -10.371879 -186.530283 112.012349
v -10.756469 -186.502288 112.232192
v -10.599589 -186.448828 112.105935
v -10.551979 -186.230331 111.940737
v -10.991999 -186.198876 112.167952
v -10.864833 -186.108301 112.029926
v -10.788669 -185.970262 111.881591
v -11.302273 -185.967210 112.126461
v -11.214251 -185.848570 111.979536
v -11.073314 -185.760547 111.838395
v -11.394930 -185.607803 111.813471
v -11.663622 -185.822656 112.112590
v -11.621186 -185.686941 111.960252
v -11.740083 -185.518552 111.808411
v -12.049913 -185.776379 112.129881
v -12.056209 -185.635988 111.976059
v -12.094958 -185.496486 111.824768
v -12.445381 -185.540807 111.862210
v -12.432549 -185.829834 112.178793
v -12.487118 -185.697348 112.027479
v -12.776854 -185.649395 111.919621
v -12.975930 -186.147754 112.350077
v -12.881908 -185.867247 112.113313
v -13.078108 -185.818023 111.996356
v -13.204296 -186.385620 112.443499
v -13.212141 -186.131183 112.228963
v -13.337473 -186.038856 112.089609
v -13.544072 -186.302650 112.196078
v -13.364871 -186.668145 112.550931
v -13.452496 -186.470123 112.368396
v -13.691258 -186.599756 112.313483
v -13.449675 -186.979736 112.667415
v -13.586527 -186.857621 112.523225
v -13.773856 -186.918175 112.437517
v -13.788092 -187.245838 112.564249
v -13.454049 -187.302566 112.787207
v -13.602918 -187.264893 112.684323
v -13.733614 -187.569750 112.690198
v -13.378711 -187.616932 112.904268
v -13.501975 -187.661198 112.841945
v -13.229144 -187.905080 113.012558
v -13.612210 -187.878326 112.811129
v -13.006132 -188.160838 113.111118
v -13.289662 -188.016326 112.986510
v -13.426708 -188.159950 112.923565
v -13.164834 -188.417444 113.030503
v -12.734793 -188.355429 113.189487
v -12.982945 -188.304133 113.109730
v -12.821727 -188.629863 113.124831
v -12.448123 -188.480196 113.244322
v -12.603343 -188.501725 113.204344
v -12.460722 -188.755256 113.190067
v -12.179577 -188.595117 113.265920
v -11.742494 -188.575351 113.291616
v -11.318880 -188.542041 112.633765
v -11.387382 -188.901852 112.570455
v -11.378276 -188.419716 112.110075
v -11.572461 -188.511576 112.118927
v -10.910221 -188.446638 112.363237
v -11.032261 -188.351453 112.223780
v -11.202277 -188.297612 112.091337
v -11.000818 -188.088258 112.052602
v -10.621465 -188.099839 112.286668
v -10.775842 -188.042415 112.159183
v -10.854203 -187.840707 112.001421
v -10.442658 -187.689687 112.190011
v -10.617059 -187.677116 112.076748
v -10.769633 -187.566889 111.941997
v -10.389893 -187.247703 112.083260
v -10.570203 -187.283551 111.985350
v -10.751982 -187.281514 111.879085
v -10.465610 -186.808831 111.977497
v -10.637440 -186.892749 111.894829
v -10.802053 -187.000485 111.817184
v -10.665491 -186.407849 111.883747
v -10.814937 -186.535594 111.814975
v -10.971848 -186.075452 111.811744
v -11.086987 -186.239344 111.754433
v -11.361409 -185.838736 111.770079
v -11.432922 -186.028060 111.720832
v -11.801923 -185.714481 111.764072
v -11.824105 -185.916642 111.718896
v -12.258466 -185.713561 111.797172
v -12.229521 -185.914748 111.751686
v -12.694386 -185.833554 111.868609
v -12.616624 -186.020226 111.818521
v -13.074114 -186.065689 111.975604
v -12.953828 -186.225288 111.916932
v -13.368138 -186.389106 112.111542
v -13.214926 -186.511409 112.041044
v -13.551448 -186.778150 112.268289
v -13.377708 -186.855808 112.183635
v -13.610969 -187.200094 112.435467
v -13.430563 -187.229423 112.335490
v -13.540124 -187.620481 112.602151
v -13.367652 -187.601655 112.486906
v -13.346393 -188.005023 112.757470
v -13.195616 -187.942056 112.628229
v -13.043708 -188.321313 112.891148
v -12.926827 -188.221849 112.750334
v -12.657745 -188.544303 112.995244
v -12.584087 -188.418790 112.846170
v -12.218555 -188.653844 113.063367
v -12.194080 -188.514987 112.910063
v -11.761927 -188.642018 113.093009
v -11.788588 -188.503408 112.939783
v -11.324564 -188.507279 113.083678
v -11.400203 -188.382680 112.934894
v -10.941094 -188.261331 113.039085
v -11.059677 -188.163197 112.898693
v -10.643317 -187.921719 112.964794
v -10.795247 -187.860540 112.836120
v -10.453785 -187.516086 112.869570
v -10.626940 -187.499254 112.754957
v -10.389374 -187.075540 112.763276
v -10.453486 -186.634952 112.656968
v -10.642765 -186.229196 112.561705
v -11.080318 -186.754531 110.972965
v -11.092013 -186.718506 111.045121
v -11.288353 -186.574473 110.941742
v -11.316129 -186.532089 111.013577
v -11.546011 -186.435945 110.925373
v -11.577532 -186.400169 110.999161
v -11.828287 -186.357989 110.928031
v -11.861066 -186.329525 111.004222
v -12.119040 -186.344203 110.951098
v -12.152871 -186.323190 111.029618
v -12.403841 -186.394793 110.994534
v -12.436528 -186.381323 111.075616
v -12.666455 -186.506473 111.057382
v -12.696394 -186.500452 111.140792
v -12.893486 -186.673345 111.137688
v -12.918216 -186.673508 111.223238
v -13.071804 -186.885563 111.232510
v -13.089477 -186.889973 111.319219
v -13.191658 -187.131040 111.337727
v -13.201805 -187.138535 111.425508
v -13.246624 -187.395399 111.448976
v -13.248724 -187.404497 111.537177
v -13.234033 -187.664852 111.561817
v -13.227753 -187.674190 111.650254
v -13.154462 -187.923987 111.671404
v -13.139774 -187.931728 111.759326
v -13.011897 -188.158760 111.773274
v -12.989604 -188.162502 111.860054
v -12.814210 -188.355386 111.863112
v -12.785604 -188.353464 111.948003
v -12.572463 -188.502636 111.937201
v -12.539420 -188.493629 112.019905
v -12.300027 -188.592206 111.993015
v -12.263083 -188.575690 112.073366
v -12.011260 -188.619090 112.028957
v -11.972689 -188.594172 112.106727
v -11.769519 -188.568511 112.117732
v -11.721575 -188.581310 112.044381
v -11.446671 -188.480228 112.039803
v -11.201912 -188.320946 112.016745
v -11.000930 -188.112085 111.977941
v -10.854236 -187.864441 111.926820
v -10.769759 -187.591206 111.867617
v -10.751939 -187.305959 111.804556
v -10.802067 -187.024054 111.742687
v -13.432184 -188.791038 110.910325
v -13.234087 -188.719403 111.003133
v -13.292837 -188.943272 110.972709
v -12.969405 -188.950906 111.103173
v -12.970631 -189.188698 111.077910
v -12.655247 -189.119842 111.183374
v -12.751468 -189.298961 111.129293
v -12.488498 -189.386219 111.175390
v -12.307354 -189.216544 111.240672
v -12.108762 -189.440641 111.217917
v -11.950075 -189.032938 111.318381
v -11.943777 -189.236322 111.273580
v -11.858009 -189.433663 111.232179
v -11.629791 -188.979476 111.328066
v -11.583095 -189.177084 111.281434
v -11.599064 -189.390593 111.235711
v -11.355273 -189.314726 111.228376
v -11.328399 -188.858803 111.316440
v -11.243688 -189.042158 111.265289
v -11.124927 -189.206865 111.210871
v -10.918044 -189.072993 111.184658
v -11.061587 -188.676139 111.285159
v -10.943221 -188.837422 111.227009
v -10.684184 -188.864763 111.139344
v -10.842664 -188.440959 111.237226
v -10.696685 -188.573546 111.169977
v -10.486328 -188.613377 111.080984
v -10.683329 -188.164512 111.176208
v -10.517252 -188.263198 111.098210
v -10.359383 -188.380280 111.024832
v -10.268921 -188.128532 110.962951
v -10.591187 -187.860877 111.106570
v -10.413488 -187.922232 111.016736
v -10.219892 -187.874912 110.899970
v -10.571581 -187.545050 111.033066
v -10.391408 -187.567536 110.930908
v -10.212689 -187.568546 110.823486
v -10.262878 -187.256467 110.745854
v -10.624871 -187.232865 110.960717
v -10.451421 -187.216942 110.846380
v -10.370208 -186.958557 110.672685
v -10.748962 -186.940032 110.894504
v -10.591163 -186.888141 110.768762
v -10.492257 -186.740103 110.620119
v -10.936897 -186.680934 110.838987
v -10.802804 -186.597329 110.703190
v -10.700718 -186.480011 110.559856
v -10.913896 -186.292435 110.519177
v -11.179568 -186.468814 110.798366
v -11.076084 -186.359422 110.654392
v -11.227147 -186.102698 110.483117
v -11.464108 -186.313694 110.775818
v -11.396514 -186.185704 110.625947
v -11.470818 -186.006938 110.469944
v -11.776239 -186.223670 110.773910
v -11.748016 -186.085293 110.620746
v -11.791562 -185.936240 110.469041
v -12.099790 -186.202372 110.793794
v -12.112377 -186.062277 110.640085
v -12.119219 -185.922041 110.486052
v -12.442607 -185.965195 110.521232
v -12.418203 -186.251112 110.835885
v -12.470952 -186.118133 110.684432
v -12.750908 -186.063241 110.573786
v -12.715273 -186.366395 110.899074
v -12.805493 -186.248924 110.752539
v -13.017861 -186.202452 110.638139
v -12.975517 -186.542480 110.981542
v -13.098562 -186.448188 110.842356
v -13.220059 -186.352615 110.702765
v -13.402175 -186.535122 110.778191
v -13.185976 -186.769456 111.080147
v -13.335568 -186.704761 110.950345
v -13.546527 -186.731210 110.857165
v -13.335374 -187.035691 111.191199
v -13.503810 -187.005546 111.072352
v -13.671495 -186.973945 110.953036
v -13.749929 -187.217870 111.048270
v -13.416624 -187.326863 111.310158
v -13.595308 -187.334412 111.203263
v -13.787471 -187.467386 111.145082
v -13.424937 -187.627806 111.432216
v -13.604669 -187.674283 111.337663
v -13.784116 -187.722149 111.243744
v -13.725327 -188.024732 111.361255
v -13.360530 -187.922685 111.552350
v -13.532139 -188.007323 111.469898
v -13.637040 -188.253631 111.450979
v -13.226075 -188.195868 111.665606
v -13.380724 -188.315932 111.594386
v -13.479507 -188.517117 111.555716
v -13.029049 -188.433213 111.767498
v -13.158847 -188.584182 111.706077
v -13.233416 -188.785618 111.665840
v -12.779041 -188.621786 111.853926
v -12.877304 -188.797509 111.800354
v -13.008632 -188.952806 111.737794
v -12.726475 -189.096567 111.804574
v -12.489275 -188.752003 111.921850
v -12.550990 -188.945118 111.873793
v -12.420670 -189.189381 111.855200
v -12.174319 -188.816245 111.968856
v -12.196307 -189.018431 111.923675
v -12.101119 -189.228251 111.888722
v -11.850467 -188.811422 111.993963
v -11.831606 -189.013968 111.948896
v -11.784064 -189.212720 111.904638
v -11.512711 -189.155449 111.904671
v -11.534314 -188.736775 111.996931
v -11.475575 -188.930874 111.949186
v -11.239958 -189.052952 111.891217
v -11.241926 -188.596336 111.979038
v -11.146307 -188.773689 111.925983
v -11.010282 -188.925133 111.868008
v -10.775246 -188.742045 111.829606
v -10.988569 -188.396357 111.942266
v -10.860993 -188.549453 111.881520
v -10.589001 -188.542759 111.784501
v -10.786828 -188.147175 111.889894
v -10.633806 -188.269808 111.819489
v -10.440187 -188.325344 111.733142
v -10.647550 -187.860787 111.825724
v -10.476960 -187.948266 111.744173
v -10.326123 -188.088334 111.675622
v -10.249904 -187.839596 111.614208
v -10.577291 -187.551746 111.754372
v -10.397839 -187.601212 111.660768
v -10.211768 -187.569527 111.546998
v -10.580282 -187.235366 111.680693
v -10.401208 -187.245894 111.574742
v -10.218684 -187.286643 111.476392
v -10.287217 -186.958508 111.394940
v -10.655727 -186.927466 111.609703
v -10.486168 -186.900125 111.491745
v -10.389961 -186.705099 111.332988
v -10.800383 -186.643579 111.546326
v -10.649070 -186.581398 111.417321
v -10.558294 -186.434065 111.268372
v -11.006259 -186.397590 111.494966
v -10.880915 -186.305349 111.356430
v -10.774142 -186.195962 111.214225
v -11.030870 -185.999044 111.173153
v -11.263300 -186.202104 111.459619
v -11.170377 -186.086175 111.313572
v -11.319449 -185.849275 111.147029
v -11.557937 -186.066263 111.443184
v -11.502178 -185.934167 111.292011
v -11.614866 -185.755261 111.137569
v -11.875334 -185.997195 111.447920
v -11.859610 -185.857355 111.294292
v -11.884447 -185.713894 111.142297
v -12.189113 -185.713942 111.162312
v -12.199094 -185.997445 111.474636
v -12.224206 -185.858604 111.321325
v -12.474667 -185.759975 111.196006
v -12.512602 -186.067220 111.523396
v -12.577259 -185.938148 111.373182
v -12.761221 -185.855177 111.246187
v -12.799951 -186.201957 111.592754
v -12.900852 -186.090848 111.448236
v -13.026061 -185.995334 111.310703
v -13.260847 -186.176479 111.388214
v -13.046113 -186.394899 111.680567
v -13.178064 -186.309095 111.544072
v -13.471831 -186.409753 111.483679
v -13.238889 -186.635297 111.783427
v -13.395155 -186.580783 111.656854
v -13.652962 -186.718160 111.606278
v -13.367879 -186.910800 111.897418
v -13.540415 -186.892004 111.782170
v -13.748880 -187.000399 111.716522
v -13.427061 -187.206646 112.017860
v -13.607062 -187.226135 111.914750
v -13.786067 -187.234292 111.807326
v -13.784486 -187.506151 111.912637
v -13.412769 -187.507390 112.139854
v -13.590968 -187.565781 112.049079
v -13.728326 -187.801755 112.027452
v -13.326379 -187.797249 112.258397
v -13.493680 -187.893169 112.179522
v -13.609577 -188.096166 112.142945
v -13.171698 -188.060807 112.368600
v -13.319489 -188.190938 112.300573
v -13.430789 -188.367522 112.251427
v -12.957222 -188.284454 112.466149
v -13.077960 -188.443763 112.407373
v -13.201043 -188.600893 112.347792
v -12.949307 -188.775975 112.424026
v -12.693463 -188.455927 112.547155
v -12.780933 -188.637832 112.495544
v -12.700485 -188.894201 112.479887
v -12.394312 -188.566539 112.608864
v -12.444048 -188.763364 112.561983
v -12.468067 -188.966400 112.518956
v -12.193226 -189.010340 112.551240
v -12.074855 -188.609659 112.649172
v -12.084297 -188.812891 112.604323
v -11.873522 -189.009951 112.572055
v -11.751588 -188.583299 112.667450
v -11.720255 -188.784174 112.621854
v -11.627166 -188.972172 112.576399
v -12.741248 -189.226349 111.050775
v -12.378169 -189.327217 111.099510
v -11.999812 -189.348053 111.122897
v -11.623759 -189.286264 111.120401
v -11.271272 -189.144029 111.092491
v -10.960991 -188.927079 111.041227
v -10.711271 -188.646936 110.969961
v -10.517310 -188.326103 110.899735
v -10.537686 -188.320169 110.884118
v -10.449171 -187.963729 110.788959
v -10.413550 -187.985150 110.818265
v -10.391471 -187.630468 110.732441
v -10.451449 -187.599165 110.691393
v -10.451481 -187.279887 110.647917
v -10.531096 -187.280019 110.606491
v -10.591218 -186.951099 110.570304
v -10.681605 -186.984743 110.529477
v -10.860038 -186.763949 110.473607
v -10.802851 -186.660298 110.504735
v -11.079206 -186.579235 110.429446
v -11.076120 -186.422400 110.455940
v -11.382675 -186.416310 110.395089
v -11.396537 -186.248688 110.427497
v -11.714187 -186.325317 110.383684
v -11.748025 -186.148281 110.422297
v -12.058623 -186.310497 110.396587
v -12.112372 -186.125265 110.441636
v -12.395669 -186.373781 110.434587
v -12.470934 -186.181119 110.485982
v -12.805462 -186.311905 110.554087
v -12.715231 -186.492371 110.502007
v -13.098519 -186.511161 110.643902
v -13.335516 -186.767723 110.751888
v -13.185906 -186.895407 110.683071
v -13.503752 -187.068496 110.873891
v -13.335296 -187.161627 110.794119
v -13.595246 -187.397349 111.004798
v -13.416541 -187.452781 110.913072
v -13.604607 -187.737206 111.139194
v -13.424853 -187.753706 111.035124
v -13.532079 -188.070234 111.271424
v -13.360450 -188.048567 111.155253
v -13.380670 -188.378830 111.395908
v -13.226002 -188.321733 111.268503
v -13.158801 -188.647069 111.507596
v -13.028988 -188.559063 111.370391
v -12.877270 -188.860388 111.601870
v -12.778995 -188.747626 111.456815
v -12.550968 -189.007991 111.675308
v -12.489247 -188.877834 111.524737
v -12.196299 -189.081300 111.725189
v -12.174309 -188.942071 111.571741
v -11.831613 -189.076837 111.750410
v -11.850476 -188.937249 111.596848
v -11.475596 -188.993746 111.750700
v -11.534341 -188.862606 111.599818
v -11.146341 -188.836566 111.727499
v -11.241971 -188.722175 111.581927
v -10.861038 -188.612339 111.683039
v -10.988628 -188.522206 111.545159
v -10.633860 -188.332705 111.621011
v -10.786900 -188.273038 111.492791
v -10.477019 -188.011175 111.545699
v -10.647629 -187.986668 111.428627
v -10.397901 -187.664135 111.462298
v -10.577375 -187.677644 111.357280
v -10.401270 -187.308830 111.376277
v -10.580366 -187.361282 111.283607
v -10.486227 -186.963075 111.293284
v -10.655806 -187.053400 111.212622
v -10.649123 -186.644360 111.218864
v -10.800453 -186.769529 111.149250
v -10.880959 -186.368321 111.157976
v -11.006318 -186.523554 111.097895
v -11.170410 -186.149155 111.115121
v -11.263343 -186.328080 111.062551
v -11.502197 -185.997153 111.093561
v -11.557963 -186.192246 111.046119
v -11.859615 -185.920343 111.095843
v -11.875342 -186.123181 111.050856
v -12.224197 -185.921592 111.122876
v -12.199082 -186.123430 111.077572
v -12.577236 -186.001133 111.174732
v -12.512572 -186.193201 111.126331
v -12.900817 -186.153826 111.249784
v -12.799904 -186.327929 111.195686
v -13.178018 -186.372065 111.345618
v -13.046052 -186.520860 111.283495
v -13.395101 -186.643742 111.458396
v -13.238816 -186.761244 111.386351
v -13.540355 -186.954950 111.583708
v -13.367798 -187.036729 111.500336
v -13.606999 -187.289068 111.716284
v -13.426977 -187.332558 111.620772
v -13.590905 -187.628700 111.850609
v -13.412686 -187.633284 111.742761
v -13.493622 -187.956075 111.981047
v -13.326301 -187.923125 111.861298
v -13.319437 -188.253833 112.102094
v -13.171629 -188.186667 111.971496
v -13.077918 -188.506647 112.208891
v -12.957166 -188.410301 112.069041
v -12.780902 -188.700709 112.297059
v -12.693422 -188.581763 112.150043
v -12.444031 -188.826235 112.363497
v -12.394289 -188.692368 112.211750
v -12.084293 -188.875760 112.405836
v -12.074850 -188.735485 112.252057
v -11.720266 -188.847044 112.423368
v -11.751603 -188.709126 112.270336
f 1 2 3
f 3 4 5
f 2 4 3
f 4 6 5
f 4 7 6
f 7 8 6
f 7 9 8
f 10 11 12
f 13 14 15
f 16 14 13
f 8 17 18
f 19 17 9
f 9 17 8
f 18 17 19
f 18 20 21
f 22 20 19
f 12 20 22
f 19 20 18
f 21 23 24
f 24 23 25
f 26 23 11
f 11 23 12
f 20 23 21
f 12 23 20
f 25 27 28
f 28 27 29
f 30 27 26
f 23 27 25
f 26 27 23
f 29 31 32
f 33 31 34
f 34 31 30
f 27 31 29
f 30 31 27
f 32 31 33
f 32 35 36
f 36 35 13
f 16 35 33
f 33 35 32
f 13 35 16
f 37 38 39
f 37 40 38
f 40 41 38
f 40 42 41
f 42 43 41
f 42 44 43
f 44 45 43
f 44 46 45
f 46 47 45
f 46 48 47
f 48 49 47
f 48 50 49
f 50 51 49
f 50 52 51
f 52 53 51
f 52 54 53
f 54 55 53
f 54 56 55
f 56 57 55
f 56 58 57
f 58 59 57
f 58 60 59
f 60 61 59
f 60 62 61
f 62 63 61
f 62 64 63
f 64 65 63
f 64 66 65
f 66 67 65
f 66 68 67
f 68 69 67
f 68 70 69
f 70 71 69
f 70 72 71
f 72 73 71
f 72 74 73
f 74 75 73
f 74 76 75
f 76 77 75
f 76 78 77
f 78 79 77
f 78 80 79
f 80 81 79
f 80 82 81
f 82 83 81
f 82 84 83
f 84 85 83
f 84 86 85
f 86 87 85
f 86 88 87
f 88 89 87
f 6 90 5
f 90 3 5
f 90 91 3
f 91 1 3
f 91 92 1
f 92 93 1
f 92 94 93
f 94 95 93
f 94 96 95
f 96 97 95
f 96 98 97
f 98 99 97
f 98 100 99
f 100 101 99
f 100 102 101
f 102 103 101
f 102 104 103
f 104 105 103
f 104 106 105
f 106 107 105
f 106 108 107
f 109 86 84
f 109 110 86
f 86 111 88
f 110 111 86
f 88 112 89
f 111 112 88
f 112 113 89
f 113 114 89
f 113 115 114
f 114 116 117
f 115 116 114
f 118 119 120
f 121 119 118
f 117 122 123
f 124 122 125
f 125 122 116
f 116 122 117
f 123 126 127
f 127 126 128
f 129 126 130
f 130 126 124
f 122 126 123
f 124 126 122
f 128 131 132
f 132 131 133
f 134 131 135
f 135 131 129
f 126 131 128
f 129 131 126
f 133 136 137
f 137 136 118
f 121 136 134
f 134 136 131
f 131 136 133
f 118 136 121
f 138 139 140
f 141 142 143
f 143 142 138
f 138 142 139
f 140 144 145
f 139 144 140
f 178 146 141
f 141 146 142
f 145 147 182
f 144 147 145
f 203 148 178
f 178 148 146
f 182 14 183
f 147 14 182
f 272 149 203
f 203 149 148
f 183 16 150
f 14 16 183
f 151 152 272
f 272 152 149
f 150 33 153
f 16 33 150
f 154 155 151
f 151 155 152
f 33 156 153
f 33 34 156
f 154 157 155
f 157 158 155
f 34 159 156
f 34 30 159
f 157 262 158
f 158 262 160
f 26 185 30
f 30 185 159
f 262 161 160
f 160 161 162
f 26 163 185
f 11 163 26
f 10 164 11
f 161 196 162
f 162 196 165
f 11 166 163
f 164 166 11
f 165 194 167
f 196 194 165
f 168 240 164
f 164 240 166
f 167 193 169
f 194 193 167
f 170 171 168
f 172 171 170
f 168 171 240
f 193 173 169
f 174 189 172
f 172 189 171
f 169 175 176
f 173 175 169
f 176 177 174
f 174 177 189
f 175 177 176
f 281 178 141
f 281 179 178
f 283 281 141
f 143 283 141
f 285 283 143
f 180 181 182
f 183 180 182
f 184 180 183
f 150 184 183
f 316 159 185
f 316 186 159
f 187 316 185
f 163 187 185
f 188 187 163
f 189 190 171
f 191 190 189
f 309 191 189
f 177 309 189
f 299 192 193
f 194 299 193
f 195 299 194
f 300 195 194
f 300 194 196
f 302 300 196
f 197 198 154
f 151 197 154
f 199 197 151
f 200 201 202
f 200 202 203
f 200 203 178
f 204 279 205
f 204 205 201
f 204 200 279
f 204 201 200
f 206 179 279
f 206 200 178
f 206 279 200
f 206 178 179
f 207 285 143
f 207 138 208
f 207 208 285
f 207 143 138
f 209 208 138
f 209 210 208
f 211 209 138
f 211 210 209
f 211 138 140
f 212 210 211
f 212 211 140
f 213 214 210
f 213 210 212
f 215 140 145
f 215 212 140
f 216 321 214
f 216 212 215
f 216 214 213
f 216 213 212
f 216 215 321
f 217 215 145
f 217 218 321
f 217 321 215
f 219 218 217
f 219 145 182
f 219 217 145
f 220 219 182
f 220 181 218
f 220 182 181
f 220 218 219
f 221 222 184
f 221 184 150
f 223 224 222
f 223 221 150
f 223 150 153
f 223 222 221
f 225 224 223
f 225 223 153
f 226 153 156
f 226 225 153
f 227 228 224
f 227 224 225
f 227 225 226
f 229 226 156
f 229 227 226
f 230 231 228
f 230 229 231
f 230 228 227
f 230 227 229
f 232 314 231
f 232 231 229
f 232 229 156
f 232 156 159
f 233 314 232
f 233 186 314
f 233 232 159
f 233 159 186
f 234 235 188
f 234 163 166
f 234 188 163
f 236 235 234
f 236 234 166
f 237 235 236
f 237 236 166
f 238 304 235
f 238 235 237
f 239 166 240
f 239 237 166
f 241 237 239
f 241 304 238
f 241 238 237
f 241 239 242
f 241 242 304
f 243 242 239
f 243 244 242
f 243 239 240
f 245 244 243
f 245 240 171
f 245 243 240
f 246 190 244
f 246 245 171
f 246 171 190
f 246 244 245
f 247 248 309
f 247 309 177
f 249 177 175
f 249 248 247
f 249 250 248
f 249 247 177
f 251 250 249
f 251 249 175
f 252 251 175
f 252 175 173
f 253 250 251
f 253 295 250
f 253 251 252
f 254 252 173
f 255 256 295
f 255 253 252
f 255 295 253
f 255 252 254
f 255 254 256
f 257 254 173
f 257 193 192
f 257 173 193
f 257 192 256
f 257 256 254
f 258 302 196
f 258 196 161
f 258 259 302
f 260 258 161
f 260 259 258
f 261 161 262
f 261 260 161
f 261 259 260
f 263 264 259
f 263 259 261
f 265 261 262
f 266 261 265
f 266 289 264
f 266 263 261
f 266 264 263
f 266 265 289
f 267 262 157
f 267 268 289
f 267 265 262
f 267 289 265
f 269 267 157
f 269 268 267
f 270 269 157
f 270 268 269
f 270 154 198
f 270 157 154
f 270 198 268
f 271 199 151
f 271 151 272
f 271 273 199
f 274 273 271
f 274 271 272
f 274 275 273
f 276 275 274
f 276 274 272
f 276 272 203
f 276 202 201
f 276 203 202
f 277 275 276
f 277 276 201
f 277 201 205
f 277 205 275
f 278 205 279
f 278 280 205
f 370 279 179
f 370 278 279
f 331 179 281
f 331 370 179
f 282 281 283
f 282 331 281
f 284 283 285
f 284 282 283
f 286 285 208
f 286 284 285
f 287 208 210
f 287 210 214
f 287 286 208
f 288 287 214
f 382 264 289
f 382 290 264
f 291 289 268
f 291 382 289
f 292 268 198
f 292 291 268
f 333 198 197
f 333 292 198
f 293 197 199
f 293 333 197
f 294 199 273
f 294 293 199
f 377 273 275
f 377 275 205
f 377 294 273
f 280 377 205
f 396 295 256
f 396 296 295
f 297 256 192
f 297 396 256
f 298 192 299
f 298 297 192
f 335 299 195
f 335 298 299
f 336 195 300
f 336 335 195
f 301 300 302
f 301 336 300
f 303 302 259
f 303 259 264
f 303 301 302
f 290 303 264
f 407 304 242
f 407 305 304
f 342 242 244
f 342 407 242
f 306 244 190
f 306 342 244
f 307 190 191
f 307 306 190
f 308 191 309
f 308 307 191
f 404 309 248
f 404 308 309
f 310 248 250
f 310 250 295
f 310 404 248
f 296 310 295
f 311 228 231
f 311 312 228
f 313 231 314
f 313 311 231
f 315 314 186
f 315 313 314
f 326 186 316
f 326 315 186
f 317 316 187
f 317 326 316
f 318 187 188
f 318 317 187
f 319 188 235
f 319 235 304
f 319 318 188
f 305 319 304
f 320 214 321
f 320 288 214
f 322 321 218
f 322 320 321
f 329 218 181
f 329 322 218
f 323 181 180
f 323 329 181
f 327 180 184
f 327 323 180
f 324 184 222
f 324 327 184
f 325 222 224
f 325 224 228
f 325 324 222
f 312 325 228
f 326 317 438
f 326 438 435
f 315 326 435
f 327 324 328
f 420 327 328
f 323 327 420
f 329 323 420
f 330 329 420
f 322 329 330
f 413 284 410
f 282 284 413
f 331 282 413
f 331 413 417
f 293 294 332
f 428 293 332
f 333 293 428
f 334 333 428
f 292 333 334
f 335 336 337
f 338 335 337
f 298 335 338
f 307 308 339
f 340 307 339
f 306 307 340
f 341 306 340
f 342 306 341
f 343 344 345
f 343 345 443
f 343 443 440
f 346 344 343
f 346 343 319
f 346 319 305
f 346 305 344
f 347 319 343
f 347 318 319
f 347 343 440
f 348 347 440
f 348 318 347
f 348 440 438
f 349 438 317
f 349 317 318
f 349 318 348
f 349 348 438
f 350 315 435
f 350 313 315
f 350 435 431
f 351 313 350
f 351 350 431
f 352 313 351
f 352 311 313
f 352 351 431
f 352 431 426
f 353 311 352
f 353 352 426
f 354 312 311
f 354 311 353
f 355 426 356
f 355 353 426
f 357 353 355
f 357 355 325
f 357 325 312
f 357 354 353
f 357 312 354
f 358 325 355
f 358 355 356
f 359 328 324
f 359 324 325
f 359 325 358
f 359 358 356
f 359 356 328
f 360 320 322
f 360 322 330
f 360 330 414
f 361 320 360
f 361 360 414
f 362 414 411
f 362 361 414
f 363 361 362
f 363 288 320
f 363 320 361
f 364 363 362
f 364 362 411
f 365 288 363
f 365 287 288
f 365 364 287
f 365 363 364
f 366 286 287
f 366 287 364
f 366 364 411
f 366 411 410
f 367 366 410
f 367 286 366
f 368 286 367
f 368 284 286
f 368 367 410
f 368 410 284
f 369 370 331
f 369 331 417
f 369 417 419
f 371 278 370
f 371 369 419
f 371 370 369
f 372 278 371
f 372 371 419
f 373 280 278
f 373 278 372
f 374 372 419
f 374 419 375
f 376 377 280
f 376 373 372
f 376 374 377
f 376 372 374
f 376 280 373
f 378 377 374
f 378 374 375
f 379 378 375
f 379 294 377
f 379 375 332
f 379 332 294
f 379 377 378
f 380 291 292
f 380 292 334
f 381 382 291
f 381 380 334
f 381 334 433
f 381 291 380
f 383 381 433
f 383 382 381
f 384 433 385
f 384 383 433
f 386 290 382
f 386 382 383
f 386 383 384
f 387 384 385
f 388 290 386
f 388 387 303
f 388 303 290
f 388 386 384
f 388 384 387
f 389 303 387
f 389 301 303
f 389 385 390
f 389 387 385
f 391 389 390
f 391 301 389
f 392 391 390
f 392 337 336
f 392 336 301
f 392 390 337
f 392 301 391
f 393 297 298
f 393 298 338
f 393 338 394
f 395 396 297
f 395 297 393
f 395 393 394
f 397 396 395
f 397 394 398
f 397 395 394
f 399 296 396
f 399 396 397
f 400 397 398
f 401 397 400
f 401 310 296
f 401 400 310
f 401 296 399
f 401 399 397
f 402 400 398
f 402 398 450
f 402 310 400
f 403 310 402
f 403 404 310
f 403 402 450
f 403 450 404
f 405 308 404
f 405 404 450
f 405 339 308
f 405 450 339
f 406 407 342
f 406 342 341
f 408 406 341
f 408 407 406
f 408 341 443
f 408 345 344
f 408 443 345
f 409 305 407
f 409 408 344
f 409 407 408
f 409 344 305
f 129 410 411
f 130 410 129
f 412 413 410
f 412 410 130
f 135 411 414
f 135 129 411
f 415 413 412
f 416 417 413
f 416 413 415
f 134 414 330
f 134 135 414
f 418 419 417
f 418 417 416
f 121 330 420
f 121 134 330
f 421 419 418
f 119 420 328
f 119 121 420
f 422 375 419
f 422 419 421
f 423 328 356
f 423 119 328
f 424 375 422
f 424 332 375
f 425 356 426
f 425 423 356
f 427 428 332
f 427 332 424
f 334 428 427
f 429 425 426
f 430 334 427
f 431 429 426
f 432 429 431
f 433 334 430
f 433 430 434
f 435 432 431
f 436 432 435
f 385 434 437
f 385 433 434
f 438 436 435
f 390 385 437
f 390 437 439
f 440 441 436
f 440 436 438
f 337 439 442
f 337 390 439
f 443 441 440
f 443 444 441
f 338 442 445
f 338 337 442
f 341 444 443
f 341 446 444
f 394 445 447
f 394 338 445
f 340 448 446
f 340 446 341
f 398 394 447
f 339 449 448
f 339 448 340
f 450 447 449
f 450 398 447
f 450 449 339
f 451 452 453
f 451 454 452
f 455 456 457
f 458 456 455
f 458 459 456
f 460 459 458
f 460 461 459
f 462 461 460
f 463 464 462
f 462 464 461
f 465 466 463
f 463 466 464
f 467 468 465
f 465 468 466
f 469 470 467
f 467 470 468
f 469 471 470
f 471 472 470
f 471 473 472
f 473 474 472
f 473 422 474
f 421 475 422
f 422 475 474
f 421 418 475
f 418 476 475
f 418 416 476
f 81 477 79
f 478 479 480
f 83 481 81
f 81 481 477
f 481 482 477
f 480 482 483
f 483 482 484
f 479 482 480
f 477 482 479
f 83 485 481
f 87 485 85
f 85 485 83
f 485 486 481
f 481 486 482
f 482 486 484
f 484 486 487
f 87 488 485
f 89 488 87
f 486 489 487
f 485 489 486
f 487 489 490
f 488 489 485
f 114 491 89
f 89 491 488
f 489 492 490
f 488 492 489
f 490 492 493
f 493 492 494
f 491 492 488
f 117 495 114
f 114 495 491
f 494 496 497
f 492 496 494
f 491 496 492
f 495 496 491
f 123 498 117
f 117 498 495
f 496 499 497
f 495 499 496
f 498 499 495
f 497 499 500
f 127 501 123
f 128 501 127
f 123 501 498
f 500 502 503
f 503 502 504
f 501 502 498
f 498 502 499
f 499 502 500
f 128 505 501
f 132 505 128
f 501 506 502
f 502 506 504
f 132 506 505
f 504 506 507
f 505 506 501
f 133 508 132
f 506 509 507
f 508 509 132
f 133 509 508
f 132 509 506
f 507 509 510
f 510 509 511
f 137 512 133
f 118 512 137
f 509 513 511
f 118 513 512
f 512 513 133
f 511 513 514
f 133 513 509
f 515 516 120
f 513 516 514
f 118 516 513
f 120 516 118
f 514 516 517
f 518 519 515
f 515 519 516
f 516 519 517
f 517 519 520
f 520 519 521
f 522 523 518
f 518 523 519
f 519 523 521
f 521 523 524
f 524 523 522
f 525 526 522
f 524 526 527
f 527 526 528
f 522 526 524
f 529 530 525
f 526 530 528
f 528 530 531
f 531 530 529
f 525 530 526
f 532 533 529
f 534 533 532
f 531 533 535
f 529 533 531
f 536 537 534
f 533 537 535
f 534 537 533
f 535 537 538
f 538 537 539
f 539 537 536
f 540 541 536
f 539 541 542
f 536 541 539
f 542 541 540
f 543 544 540
f 542 544 545
f 540 544 542
f 545 544 543
f 453 546 543
f 545 546 452
f 452 546 453
f 543 546 545
f 451 547 454
f 457 547 455
f 455 547 451
f 454 547 457
f 79 548 77
f 77 548 549
f 549 548 478
f 477 548 79
f 478 548 479
f 479 548 477
f 120 119 515
f 119 423 515
f 515 425 518
f 423 425 515
f 518 429 522
f 425 429 518
f 522 432 525
f 429 432 522
f 525 436 529
f 432 436 525
f 529 441 532
f 436 441 529
f 532 444 534
f 441 444 532
f 534 446 536
f 444 446 534
f 536 448 540
f 446 448 536
f 448 543 540
f 448 449 543
f 449 453 543
f 449 447 453
f 447 451 453
f 447 445 451
f 445 455 451
f 445 442 455
f 455 442 458
f 442 439 458
f 458 439 460
f 439 437 460
f 460 437 462
f 437 463 462
f 437 434 463
f 434 465 463
f 434 430 465
f 430 467 465
f 430 427 467
f 467 427 469
f 427 471 469
f 427 424 471
f 424 473 471
f 424 422 473
f 478 550 549
f 549 550 551
f 416 125 476
f 412 124 415
f 415 124 416
f 416 124 125
f 412 130 124
f 480 552 478
f 478 552 550
f 552 553 550
f 554 553 555
f 550 553 554
f 483 556 480
f 484 556 483
f 480 556 552
f 556 557 552
f 553 557 555
f 552 557 553
f 555 557 558
f 487 559 484
f 484 559 556
f 556 560 557
f 557 560 558
f 559 560 556
f 558 560 561
f 490 562 487
f 493 562 490
f 487 562 559
f 562 563 559
f 561 563 564
f 559 563 560
f 560 563 561
f 493 565 562
f 494 565 493
f 562 566 563
f 563 566 564
f 567 566 37
f 564 566 567
f 565 566 562
f 494 568 565
f 497 568 494
f 500 568 497
f 565 568 566
f 568 569 566
f 566 569 37
f 37 569 40
f 503 570 500
f 500 570 568
f 570 571 568
f 569 571 40
f 568 571 569
f 42 571 44
f 40 571 42
f 504 572 503
f 503 572 570
f 572 573 570
f 571 573 44
f 570 573 571
f 44 573 46
f 507 574 504
f 510 574 507
f 504 574 572
f 573 575 46
f 572 575 573
f 574 575 572
f 46 575 48
f 510 576 574
f 511 576 510
f 574 576 575
f 575 577 48
f 48 577 50
f 576 577 575
f 511 578 576
f 514 578 511
f 517 578 514
f 576 578 577
f 578 579 577
f 577 579 50
f 52 579 54
f 50 579 52
f 517 580 578
f 520 580 517
f 579 581 54
f 580 581 578
f 578 581 579
f 54 581 56
f 521 582 520
f 524 582 521
f 520 582 580
f 581 583 56
f 580 583 581
f 582 583 580
f 56 583 58
f 527 584 524
f 524 584 582
f 582 585 583
f 584 585 582
f 583 585 58
f 58 585 60
f 527 586 584
f 528 586 527
f 586 587 584
f 585 587 60
f 584 587 585
f 60 587 62
f 531 588 528
f 535 588 531
f 528 588 586
f 586 589 587
f 588 589 586
f 64 589 66
f 62 589 64
f 587 589 62
f 535 590 588
f 538 590 535
f 590 591 588
f 66 591 68
f 589 591 66
f 588 591 589
f 539 592 538
f 542 592 539
f 590 592 591
f 538 592 590
f 591 593 68
f 68 593 70
f 592 593 591
f 545 594 542
f 592 594 593
f 542 594 592
f 70 595 72
f 593 595 70
f 594 595 593
f 452 596 545
f 545 596 594
f 74 597 76
f 72 597 74
f 594 597 595
f 596 597 594
f 595 597 72
f 454 598 452
f 457 598 454
f 452 598 596
f 76 599 78
f 597 599 76
f 596 599 597
f 598 599 596
f 456 600 457
f 459 600 456
f 457 600 598
f 598 600 599
f 78 601 80
f 599 601 78
f 600 601 599
f 459 602 600
f 461 602 459
f 601 603 80
f 600 603 601
f 602 603 600
f 80 603 82
f 461 604 602
f 464 604 461
f 466 604 464
f 604 605 602
f 603 605 82
f 84 605 109
f 602 605 603
f 82 605 84
f 466 606 604
f 468 606 466
f 110 607 111
f 604 607 605
f 109 607 110
f 605 607 109
f 606 607 604
f 111 607 606
f 112 608 113
f 111 608 112
f 468 608 606
f 606 608 111
f 470 608 468
f 113 609 115
f 470 609 608
f 608 609 113
f 115 609 474
f 472 609 470
f 474 609 472
f 116 610 125
f 115 610 116
f 125 610 476
f 474 610 115
f 475 610 474
f 476 610 475
f 108 611 107
f 108 612 611
f 612 613 611
f 612 614 613
f 614 615 613
f 614 616 615
f 616 617 615
f 616 618 617
f 618 619 617
f 618 620 619
f 620 621 619
f 620 622 621
f 622 623 621
f 622 624 623
f 624 625 623
f 624 626 625
f 626 627 625
f 626 628 627
f 628 629 627
f 628 630 629
f 630 631 629
f 630 632 631
f 632 633 631
f 632 634 633
f 634 635 633
f 634 636 635
f 636 637 635
f 636 638 637
f 638 639 637
f 638 640 639
f 640 641 639
f 640 642 641
f 642 643 641
f 642 644 643
f 644 645 643
f 644 646 645
f 646 647 645
f 647 648 645
f 647 551 648
f 551 649 648
f 551 550 649
f 550 650 649
f 550 554 650
f 554 651 650
f 554 555 651
f 555 652 651
f 555 558 652
f 558 653 652
f 558 561 653
f 561 654 653
f 561 564 654
f 564 655 654
f 564 567 655
f 567 39 655
f 567 37 39
f 12 656 164
f 19 657 22
f 22 657 12
f 656 657 658
f 658 657 19
f 12 657 656
f 9 659 19
f 658 659 660
f 19 659 658
f 7 661 9
f 660 661 662
f 662 661 663
f 9 661 659
f 659 661 660
f 4 664 7
f 663 664 665
f 7 664 661
f 661 664 663
f 2 666 4
f 664 667 665
f 665 667 668
f 666 667 4
f 4 667 664
f 1 669 2
f 2 669 666
f 668 670 671
f 671 670 672
f 667 670 668
f 666 670 667
f 669 670 666
f 95 673 93
f 93 673 1
f 1 673 669
f 669 673 670
f 672 674 675
f 675 674 676
f 673 674 670
f 670 674 672
f 95 677 673
f 97 677 95
f 676 678 679
f 673 678 674
f 674 678 676
f 677 678 673
f 99 680 97
f 97 680 677
f 680 681 677
f 679 681 682
f 678 681 679
f 677 681 678
f 99 683 680
f 680 683 681
f 101 683 99
f 683 684 681
f 682 684 685
f 685 684 686
f 681 684 682
f 101 687 683
f 103 687 101
f 684 688 686
f 686 688 689
f 687 688 683
f 683 688 684
f 103 690 687
f 690 691 687
f 687 691 688
f 688 691 689
f 689 691 692
f 692 691 693
f 105 694 103
f 690 694 691
f 103 694 690
f 694 695 691
f 693 695 696
f 691 695 693
f 105 697 694
f 107 697 105
f 694 698 695
f 695 698 696
f 696 698 699
f 697 698 694
f 107 700 697
f 611 700 107
f 697 700 698
f 699 701 702
f 702 701 703
f 698 701 699
f 700 701 698
f 613 704 611
f 611 704 700
f 704 705 700
f 700 705 701
f 703 705 706
f 701 705 703
f 615 707 613
f 613 707 704
f 707 708 704
f 706 708 709
f 704 708 705
f 705 708 706
f 615 710 707
f 707 710 708
f 617 710 615
f 710 711 708
f 709 711 712
f 708 711 709
f 619 713 617
f 617 713 710
f 710 714 711
f 711 714 712
f 713 714 710
f 712 714 715
f 715 714 716
f 619 717 713
f 621 717 619
f 713 718 714
f 717 718 713
f 716 718 719
f 714 718 716
f 717 720 718
f 623 720 621
f 621 720 717
f 718 721 719
f 719 721 722
f 720 721 718
f 625 723 623
f 623 723 720
f 722 724 725
f 725 724 726
f 723 724 720
f 721 724 722
f 720 724 721
f 627 727 625
f 625 727 723
f 727 728 723
f 726 728 729
f 723 728 724
f 724 728 726
f 629 730 627
f 627 730 727
f 729 731 732
f 732 731 733
f 727 731 728
f 730 731 727
f 728 731 729
f 631 734 629
f 629 734 730
f 730 734 731
f 731 735 733
f 733 735 736
f 734 735 731
f 633 737 631
f 631 737 734
f 737 738 734
f 735 738 736
f 736 738 739
f 739 738 740
f 734 738 735
f 633 741 737
f 737 741 738
f 635 741 633
f 740 742 743
f 741 742 738
f 738 742 740
f 635 744 741
f 637 744 635
f 741 745 742
f 743 745 746
f 742 745 743
f 744 745 741
f 639 747 637
f 744 747 745
f 637 747 744
f 746 748 749
f 745 748 746
f 747 748 745
f 641 750 639
f 639 750 747
f 748 751 749
f 749 751 752
f 747 751 748
f 752 751 753
f 750 751 747
f 643 754 641
f 641 754 750
f 751 755 753
f 753 755 756
f 750 755 751
f 754 755 750
f 645 757 643
f 643 757 754
f 755 758 756
f 756 758 759
f 754 758 755
f 757 758 754
f 645 760 757
f 648 760 645
f 758 761 759
f 759 761 762
f 762 761 763
f 760 761 757
f 757 761 758
f 649 764 648
f 648 764 760
f 763 765 766
f 760 765 761
f 761 765 763
f 764 765 760
f 649 767 764
f 650 767 649
f 767 768 764
f 766 768 769
f 769 768 770
f 764 768 765
f 765 768 766
f 651 771 650
f 650 771 767
f 771 772 767
f 770 772 773
f 767 772 768
f 768 772 770
f 652 774 651
f 651 774 771
f 773 775 776
f 771 775 772
f 774 775 771
f 772 775 773
f 653 777 652
f 652 777 774
f 777 778 774
f 776 778 779
f 779 778 780
f 774 778 775
f 775 778 776
f 654 781 653
f 653 781 777
f 777 782 778
f 778 782 780
f 781 782 777
f 780 782 783
f 655 784 654
f 654 784 781
f 781 785 782
f 782 785 783
f 784 785 781
f 783 785 786
f 786 785 787
f 655 788 784
f 39 788 655
f 785 789 787
f 784 789 785
f 788 789 784
f 787 789 790
f 38 791 39
f 39 791 788
f 788 792 789
f 789 792 790
f 791 792 788
f 790 792 793
f 41 794 38
f 38 794 791
f 791 794 792
f 792 795 793
f 794 795 792
f 793 795 796
f 796 795 797
f 43 798 41
f 41 798 794
f 794 799 795
f 795 799 797
f 798 799 794
f 797 799 800
f 45 801 43
f 43 801 798
f 799 802 800
f 798 802 799
f 801 802 798
f 800 802 803
f 47 804 45
f 45 804 801
f 801 805 802
f 802 805 803
f 803 805 806
f 806 805 807
f 804 805 801
f 49 808 47
f 47 808 804
f 804 808 805
f 805 809 807
f 807 809 810
f 808 809 805
f 51 811 49
f 49 811 808
f 808 812 809
f 809 812 810
f 810 812 813
f 811 812 808
f 53 814 51
f 51 814 811
f 811 814 812
f 812 815 813
f 814 815 812
f 813 815 816
f 816 815 817
f 55 818 53
f 53 818 814
f 814 819 815
f 815 819 817
f 817 819 820
f 818 819 814
f 57 821 55
f 55 821 818
f 819 822 820
f 818 822 819
f 820 822 823
f 821 822 818
f 59 824 57
f 57 824 821
f 824 825 821
f 823 825 826
f 822 825 823
f 821 825 822
f 61 827 59
f 59 827 824
f 826 828 829
f 829 828 830
f 824 828 825
f 825 828 826
f 827 828 824
f 63 831 61
f 61 831 827
f 831 832 827
f 830 832 833
f 828 832 830
f 827 832 828
f 63 834 831
f 65 834 63
f 834 835 831
f 833 835 836
f 831 835 832
f 832 835 833
f 65 837 834
f 67 837 65
f 834 838 835
f 835 838 836
f 837 838 834
f 836 838 839
f 67 840 837
f 69 840 67
f 840 841 837
f 837 841 838
f 838 841 839
f 839 841 842
f 842 841 843
f 840 844 841
f 69 844 840
f 71 844 69
f 841 845 843
f 844 845 841
f 843 845 846
f 71 847 844
f 844 847 845
f 73 847 71
f 847 848 845
f 845 848 846
f 846 848 849
f 849 848 850
f 73 851 847
f 847 851 848
f 75 851 73
f 848 852 850
f 851 852 848
f 850 852 853
f 75 854 851
f 549 854 77
f 77 854 75
f 851 855 852
f 854 855 851
f 852 855 853
f 549 855 854
f 853 855 856
f 856 855 549
f 656 168 164
f 656 658 168
f 658 170 168
f 658 172 170
f 658 660 172
f 660 857 172
f 662 857 660
f 662 663 857
f 663 858 857
f 663 665 858
f 668 859 665
f 665 859 858
f 671 860 668
f 668 860 859
f 671 672 860
f 675 861 672
f 672 861 860
f 675 676 861
f 679 862 676
f 676 862 861
f 682 863 679
f 679 863 862
f 863 864 865
f 685 864 682
f 686 864 685
f 682 864 863
f 866 867 689
f 865 867 866
f 686 867 864
f 689 867 686
f 864 867 865
f 689 868 866
f 866 868 869
f 692 868 689
f 693 868 692
f 869 870 871
f 693 870 868
f 868 870 869
f 696 870 693
f 696 872 870
f 871 872 873
f 870 872 871
f 699 872 696
f 874 875 876
f 873 875 874
f 699 875 872
f 872 875 873
f 702 875 699
f 703 875 702
f 876 877 878
f 875 877 876
f 703 877 875
f 706 877 703
f 878 879 880
f 877 879 878
f 706 879 877
f 709 879 706
f 880 881 882
f 879 881 880
f 709 881 879
f 712 881 709
f 882 883 884
f 881 883 882
f 715 883 712
f 716 883 715
f 712 883 881
f 716 885 883
f 883 885 884
f 719 885 716
f 719 886 885
f 722 886 719
f 884 887 15
f 885 887 884
f 15 887 13
f 13 887 886
f 886 887 885
f 13 888 36
f 886 888 13
f 722 888 886
f 725 888 722
f 726 888 725
f 726 889 888
f 729 889 726
f 888 889 36
f 32 890 889
f 36 890 32
f 889 890 36
f 889 891 32
f 729 891 889
f 732 891 729
f 733 891 732
f 32 892 29
f 891 892 32
f 733 893 891
f 736 893 733
f 893 894 891
f 29 894 28
f 892 894 29
f 891 894 892
f 736 895 893
f 739 895 736
f 740 895 739
f 893 896 894
f 894 896 28
f 28 896 25
f 895 896 893
f 740 897 895
f 743 897 740
f 897 898 895
f 25 898 24
f 896 898 25
f 895 898 896
f 746 899 743
f 743 899 897
f 897 900 898
f 898 900 24
f 21 900 18
f 24 900 21
f 899 900 897
f 749 901 746
f 746 901 899
f 901 902 899
f 18 902 8
f 900 902 18
f 899 902 900
f 752 903 749
f 753 903 752
f 749 903 901
f 902 904 8
f 903 904 901
f 901 904 902
f 756 905 753
f 753 905 903
f 8 906 6
f 904 906 8
f 903 906 904
f 905 906 903
f 759 907 756
f 756 907 905
f 6 908 90
f 906 908 6
f 905 908 906
f 907 908 905
f 762 909 759
f 763 909 762
f 759 909 907
f 90 910 91
f 907 910 908
f 908 910 90
f 909 910 907
f 766 911 763
f 763 911 909
f 91 912 92
f 910 912 91
f 909 912 910
f 911 912 909
f 769 913 766
f 770 913 769
f 766 913 911
f 911 913 912
f 92 914 94
f 913 914 912
f 912 914 92
f 773 915 770
f 770 915 913
f 915 916 913
f 913 916 914
f 914 916 94
f 94 916 96
f 915 917 916
f 776 917 773
f 773 917 915
f 917 918 916
f 96 918 98
f 916 918 96
f 776 919 917
f 779 919 776
f 780 919 779
f 919 920 917
f 98 920 100
f 918 920 98
f 917 920 918
f 783 921 780
f 919 921 920
f 780 921 919
f 920 922 100
f 100 922 102
f 921 922 920
f 786 923 783
f 787 923 786
f 783 923 921
f 923 924 921
f 922 924 102
f 921 924 922
f 102 924 104
f 787 925 923
f 790 925 787
f 923 926 924
f 924 926 104
f 104 926 106
f 106 926 108
f 925 926 923
f 793 927 790
f 790 927 925
f 926 928 108
f 108 928 612
f 925 928 926
f 927 928 925
f 796 929 793
f 797 929 796
f 793 929 927
f 927 929 928
f 612 930 614
f 928 930 612
f 929 930 928
f 800 931 797
f 797 931 929
f 929 931 930
f 614 932 616
f 930 932 614
f 931 932 930
f 803 933 800
f 800 933 931
f 931 933 932
f 616 934 618
f 932 934 616
f 933 934 932
f 806 935 803
f 807 935 806
f 803 935 933
f 933 935 934
f 618 936 620
f 934 936 618
f 935 936 934
f 810 937 807
f 807 937 935
f 620 938 622
f 936 938 620
f 935 938 936
f 937 938 935
f 813 939 810
f 810 939 937
f 937 939 938
f 622 940 624
f 938 940 622
f 939 940 938
f 816 941 813
f 817 941 816
f 813 941 939
f 940 942 624
f 939 942 940
f 941 942 939
f 820 943 817
f 817 943 941
f 941 943 942
f 624 944 626
f 942 944 624
f 943 944 942
f 943 945 944
f 823 945 820
f 820 945 943
f 626 946 628
f 944 946 626
f 945 946 944
f 826 947 823
f 823 947 945
f 946 948 628
f 947 948 945
f 628 948 630
f 945 948 946
f 826 949 947
f 947 949 948
f 829 949 826
f 830 949 829
f 949 950 948
f 948 950 630
f 630 950 632
f 830 951 949
f 833 951 830
f 949 951 950
f 951 952 950
f 950 952 632
f 632 952 634
f 951 953 952
f 833 953 951
f 836 953 833
f 953 954 952
f 952 954 634
f 634 954 636
f 836 955 953
f 839 955 836
f 953 956 954
f 954 956 636
f 955 956 953
f 636 956 638
f 955 957 956
f 839 957 955
f 842 957 839
f 843 957 842
f 957 958 956
f 956 958 638
f 638 958 640
f 843 959 957
f 846 959 843
f 957 960 958
f 959 960 957
f 958 960 640
f 640 960 642
f 959 961 960
f 849 961 846
f 850 961 849
f 846 961 959
f 961 962 960
f 960 962 642
f 642 962 644
f 850 963 961
f 853 963 850
f 963 964 961
f 961 964 962
f 962 964 644
f 644 964 646
f 856 965 853
f 549 965 856
f 853 965 963
f 551 965 549
f 965 966 963
f 963 966 964
f 646 966 647
f 964 966 646
f 647 966 551
f 551 966 965
f 15 14 884
f 884 147 882
f 14 147 884
f 147 144 882
f 144 880 882
f 144 139 880
f 139 878 880
f 139 142 878
f 142 876 878
f 876 146 874
f 142 146 876
f 874 148 873
f 146 148 874
f 873 149 871
f 148 149 873
f 871 152 869
f 149 152 871
f 869 155 866
f 152 155 869
f 866 158 865
f 155 158 866
f 865 160 863
f 158 160 865
f 863 162 862
f 160 162 863
f 862 165 861
f 162 165 862
f 165 167 861
f 167 860 861
f 167 169 860
f 169 859 860
f 169 176 859
f 176 858 859
f 176 174 858
f 174 857 858
f 174 172 857
f 12 164 10
