# smartdrone2 body-local mesh, millimetres
v -30.240000 -7.435206 34.616279
v -30.240000 -7.668622 34.695269
v -30.240000 -7.228194 34.482607
v -30.240000 -8.577132 34.422868
v -30.240000 -7.060155 34.302369
v -30.240000 -7.914268 34.714782
v -30.240000 -8.157227 34.673631
v -30.240000 -8.382746 34.574316
v -30.240000 -8.745003 34.254997
v -30.240000 -8.889874 34.071468
v -30.240000 -8.988167 33.859315
v -30.240000 -9.034508 33.630136
v -30.240000 -9.026364 33.396461
v -30.240000 -8.964180 33.171064
v -30.240000 -8.851356 32.966269
v -30.240000 -6.273996 32.924553
v -30.240000 -8.258567 31.878514
v -30.240000 -5.802483 31.409925
v -30.240000 -7.945527 30.679925
v -30.240000 -5.667673 29.829340
v -30.240000 -7.930704 29.441220
v -30.240000 -5.875873 28.256739
v -30.240000 -8.214973 28.235483
v -30.240000 -6.417343 26.765688
v -30.240000 -8.781563 27.133855
v -30.240000 -7.266753 25.425940
v -30.240000 -9.597044 26.201331
v -30.240000 -16.965492 33.630136
v -30.240000 -17.035820 33.171064
v -30.240000 -16.973636 33.396461
v -30.240000 -17.011833 33.859315
v -30.240000 -17.110126 34.071468
v -30.240000 -17.254997 34.254997
v -30.240000 -18.085732 34.714782
v -30.240000 -18.564794 34.616279
v -30.240000 -17.842773 34.673631
v -30.240000 -18.331378 34.695269
v -30.240000 -8.384367 24.300168
v -30.240000 -17.148644 32.966269
v -30.240000 -18.771806 34.482607
v -30.240000 -17.617254 34.574316
v -30.240000 -18.939845 34.302369
v -30.240000 -17.422868 34.422868
v -30.240000 -10.613302 25.492931
v -30.240000 -11.770376 25.050452
v -30.240000 -19.756200 32.854104
v -30.240000 -17.741433 31.878514
v -30.240000 -20.225412 31.259190
v -30.240000 -18.054473 30.679925
v -30.240000 -20.323374 29.599578
v -30.240000 -18.069296 29.441220
v -30.240000 -20.335586 29.379999
v -30.240000 -20.395500 29.168399
v -30.240000 -17.785027 28.235483
v -30.240000 -20.500217 28.975013
v -30.240000 -14.229624 25.050452
v -30.240000 -15.429971 23.046770
v -30.240000 -15.253515 22.891658
v -30.240000 -15.118118 22.699659
v -30.240000 -13.000000 24.900000
v -30.240000 -15.386698 25.492931
v -30.240000 -15.637747 23.156431
v -30.240000 -15.031253 22.481368
v -30.240000 -14.997716 22.248835
v -30.240000 -13.368900 20.263774
v -30.240000 -15.019358 22.014895
v -30.240000 -19.289393 26.175540
v -30.240000 -17.218437 27.133855
v -30.240000 -19.152545 26.007715
v -30.240000 -16.402956 26.201331
v -30.240000 -17.000917 23.853065
v -30.240000 -19.459161 26.309970
v -30.240000 -19.653888 26.404701
v -30.240000 -15.094983 21.792460
v -30.240000 -18.189781 24.817499
v -30.240000 -20.644674 28.809192
v -30.240000 -19.864442 26.455292
v -30.240000 -20.821883 28.678957
v -30.240000 -20.080951 26.459369
v -30.240000 -15.220418 21.593809
v -30.240000 -20.293261 26.416743
v -30.240000 -20.491416 26.329411
v -30.240000 -14.070174 19.744858
v -30.240000 -15.590655 21.309796
v -30.240000 -15.388739 21.429905
v -30.240000 -14.814007 19.289036
v -30.240000 -15.594737 18.899779
v -30.240000 -36.187976 17.266998
v -30.240000 -37.099122 14.945437
v -30.240000 -44.514532 15.000000
v -30.240000 -36.920027 14.534947
v -30.240000 -37.182384 15.385487
v -30.240000 -37.165638 15.833032
v -30.240000 -37.049724 16.265629
v -30.240000 -36.840454 16.661587
v -30.240000 -36.548322 17.001051
v -30.240000 -38.328005 8.778276
v -30.240000 -36.570431 13.929429
v -30.240000 -34.491084 12.959814
v -30.240000 -34.024907 13.102338
v -30.240000 -34.977893 12.934301
v -30.240000 -35.456414 13.027316
v -30.240000 -35.898219 13.233333
v -30.240000 -36.277060 13.540112
v -30.240000 -38.723730 8.544245
v -30.240000 -39.055558 8.226033
v -30.240000 -39.305955 7.840455
v -30.240000 -39.461690 7.407887
v -30.240000 -39.514532 6.951185
v -30.240000 -8.384367 -24.300168
v -30.240000 -9.597044 -26.201331
v -30.240000 -7.266753 -25.425940
v -30.240000 -8.781563 -27.133855
v -30.240000 -6.417343 -26.765688
v -30.240000 -10.613302 -25.492931
v -30.240000 -8.214973 -28.235483
v -30.240000 -5.875873 -28.256739
v -30.240000 -14.070174 -19.744858
v -30.240000 -15.220418 -21.593809
v -30.240000 -13.368900 -20.263774
v -30.240000 -15.388739 -21.429905
v -30.240000 -11.770376 -25.050452
v -30.240000 -15.094983 -21.792460
v -30.240000 -15.590655 -21.309796
v -30.240000 -14.814007 -19.289036
v -30.240000 -15.594737 -18.899779
v -30.240000 -15.019358 -22.014895
v -30.240000 -14.997716 -22.248835
v -30.240000 -7.930704 -29.441220
v -30.240000 -5.667673 -29.829340
v -30.240000 -13.000000 -24.900000
v -30.240000 -15.118118 -22.699659
v -30.240000 -15.031253 -22.481368
v -30.240000 -7.945527 -30.679925
v -30.240000 -5.802483 -31.409925
v -30.240000 -14.229624 -25.050452
v -30.240000 -15.637747 -23.156431
v -30.240000 -15.429971 -23.046770
v -30.240000 -15.253515 -22.891658
v -30.240000 -8.258567 -31.878514
v -30.240000 -6.273996 -32.924553
v -30.240000 -17.000917 -23.853065
v -30.240000 -15.386698 -25.492931
v -30.240000 -8.851356 -32.966269
v -30.240000 -7.060155 -34.302369
v -30.240000 -7.435206 -34.616279
v -30.240000 -7.228194 -34.482607
v -30.240000 -8.964180 -33.171064
v -30.240000 -9.026364 -33.396461
v -30.240000 -16.402956 -26.201331
v -30.240000 -7.668622 -34.695269
v -30.240000 -8.157227 -34.673631
v -30.240000 -7.914268 -34.714782
v -30.240000 -9.034508 -33.630136
v -30.240000 -8.988167 -33.859315
v -30.240000 -8.889874 -34.071468
v -30.240000 -8.577132 -34.422868
v -30.240000 -8.382746 -34.574316
v -30.240000 -8.745003 -34.254997
v -30.240000 -18.189781 -24.817499
v -30.240000 -17.218437 -27.133855
v -30.240000 -19.152545 -26.007715
v -30.240000 -19.289393 -26.175540
v -30.240000 -17.785027 -28.235483
v -30.240000 -19.459161 -26.309970
v -30.240000 -19.653888 -26.404701
v -30.240000 -38.328005 -8.778276
v -30.240000 -34.491084 -12.959814
v -30.240000 -34.024907 -13.102338
v -30.240000 -34.977893 -12.934301
v -30.240000 -35.456414 -13.027316
v -30.240000 -35.898219 -13.233333
v -30.240000 -20.080951 -26.459369
v -30.240000 -20.644674 -28.809192
v -30.240000 -19.864442 -26.455292
v -30.240000 -20.500217 -28.975013
v -30.240000 -20.293261 -26.416743
v -30.240000 -20.821883 -28.678957
v -30.240000 -20.491416 -26.329411
v -30.240000 -20.395500 -29.168399
v -30.240000 -18.069296 -29.441220
v -30.240000 -20.335586 -29.379999
v -30.240000 -36.277060 -13.540112
v -30.240000 -20.323374 -29.599578
v -30.240000 -18.054473 -30.679925
v -30.240000 -36.570431 -13.929429
v -30.240000 -17.035820 -33.171064
v -30.240000 -16.965492 -33.630136
v -30.240000 -16.973636 -33.396461
v -30.240000 -17.011833 -33.859315
v -30.240000 -17.110126 -34.071468
v -30.240000 -17.148644 -32.966269
v -30.240000 -36.920027 -14.534947
v -30.240000 -38.723730 -8.544245
v -30.240000 -20.225412 -31.259190
v -30.240000 -17.741433 -31.878514
v -30.240000 -17.254997 -34.254997
v -30.240000 -19.756200 -32.854104
v -30.240000 -17.842773 -34.673631
v -30.240000 -18.331378 -34.695269
v -30.240000 -18.085732 -34.714782
v -30.240000 -18.939845 -34.302369
v -30.240000 -17.422868 -34.422868
v -30.240000 -17.617254 -34.574316
v -30.240000 -18.771806 -34.482607
v -30.240000 -18.564794 -34.616279
v -30.240000 -36.187976 -17.266998
v -30.240000 -36.548322 -17.001051
v -30.240000 -44.514532 -15.000000
v -30.240000 -36.840454 -16.661587
v -30.240000 -37.049724 -16.265629
v -30.240000 -37.165638 -15.833032
v -30.240000 -37.182384 -15.385487
v -30.240000 -37.099122 -14.945437
v -30.240000 -39.514532 -6.951185
v -30.240000 -39.055558 -8.226033
v -30.240000 -39.305955 -7.840455
v -30.240000 -39.461690 -7.407887
v -39.740000 -36.187976 -17.266998
v -39.740000 -20.491416 -26.329411
v -39.740000 -19.289393 -26.175540
v -39.740000 -19.152545 -26.007715
v -39.740000 -19.459161 -26.309970
v -39.740000 -19.653888 -26.404701
v -39.740000 -19.864442 -26.455292
v -39.740000 -20.080951 -26.459369
v -39.740000 -20.293261 -26.416743
v -39.740000 -18.189781 -24.817499
v -39.740000 -17.000917 -23.853065
v -39.740000 -15.637747 -23.156431
v -39.740000 -7.668622 34.695269
v -39.740000 -7.435206 34.616279
v -39.740000 -7.228194 34.482607
v -39.740000 -7.914268 34.714782
v -39.740000 -8.577132 34.422868
v -39.740000 -8.382746 34.574316
v -39.740000 -8.157227 34.673631
v -39.740000 -7.060155 34.302369
v -39.740000 -8.745003 34.254997
v -39.740000 -8.988167 33.859315
v -39.740000 -8.889874 34.071468
v -39.740000 -9.034508 33.630136
v -39.740000 -9.026364 33.396461
v -39.740000 -8.964180 33.171064
v -39.740000 -8.851356 32.966269
v -39.740000 -6.273996 32.924553
v -39.740000 -8.258567 31.878514
v -39.740000 -5.802483 31.409925
v -39.740000 -7.945527 30.679925
v -39.740000 -5.667673 29.829340
v -39.740000 -7.930704 29.441220
v -39.740000 -5.875873 28.256739
v -39.740000 -8.214973 28.235483
v -39.740000 -6.417343 26.765688
v -39.740000 -8.781563 27.133855
v -39.740000 -7.266753 25.425940
v -39.740000 -17.011833 33.859315
v -39.740000 -17.254997 34.254997
v -39.740000 -17.110126 34.071468
v -39.740000 -9.597044 26.201331
v -39.740000 -17.035820 33.171064
v -39.740000 -16.965492 33.630136
v -39.740000 -16.973636 33.396461
v -39.740000 -18.564794 34.616279
v -39.740000 -18.331378 34.695269
v -39.740000 -18.085732 34.714782
v -39.740000 -8.384367 24.300168
v -39.740000 -17.148644 32.966269
v -39.740000 -18.771806 34.482607
v -39.740000 -17.842773 34.673631
v -39.740000 -18.939845 34.302369
v -39.740000 -17.617254 34.574316
v -39.740000 -17.422868 34.422868
v -39.740000 -10.613302 25.492931
v -39.740000 -11.770376 25.050452
v -39.740000 -19.756200 32.854104
v -39.740000 -17.741433 31.878514
v -39.740000 -20.225412 31.259190
v -39.740000 -18.054473 30.679925
v -39.740000 -20.323374 29.599578
v -39.740000 -18.069296 29.441220
v -39.740000 -20.335586 29.379999
v -39.740000 -20.395500 29.168399
v -39.740000 -17.785027 28.235483
v -39.740000 -20.500217 28.975013
v -39.740000 -15.429971 23.046770
v -39.740000 -14.229624 25.050452
v -39.740000 -15.253515 22.891658
v -39.740000 -15.118118 22.699659
v -39.740000 -13.000000 24.900000
v -39.740000 -15.637747 23.156431
v -39.740000 -15.386698 25.492931
v -39.740000 -15.031253 22.481368
v -39.740000 -14.997716 22.248835
v -39.740000 -13.368900 20.263774
v -39.740000 -15.019358 22.014895
v -39.740000 -19.289393 26.175540
v -39.740000 -17.218437 27.133855
v -39.740000 -19.152545 26.007715
v -39.740000 -17.000917 23.853065
v -39.740000 -16.402956 26.201331
v -39.740000 -19.459161 26.309970
v -39.740000 -19.653888 26.404701
v -39.740000 -15.094983 21.792460
v -39.740000 -18.189781 24.817499
v -39.740000 -19.864442 26.455292
v -39.740000 -20.644674 28.809192
v -39.740000 -20.080951 26.459369
v -39.740000 -20.821883 28.678957
v -39.740000 -15.220418 21.593809
v -39.740000 -20.293261 26.416743
v -39.740000 -20.491416 26.329411
v -39.740000 -14.070174 19.744858
v -39.740000 -15.590655 21.309796
v -39.740000 -15.388739 21.429905
v -39.740000 -14.814007 19.289036
v -39.740000 -15.594737 18.899779
v -39.740000 -36.187976 17.266998
v -39.740000 -44.514532 15.000000
v -39.740000 -36.548322 17.001051
v -39.740000 -36.840454 16.661587
v -39.740000 -37.049724 16.265629
v -39.740000 -37.165638 15.833032
v -39.740000 -37.182384 15.385487
v -39.740000 -37.099122 14.945437
v -39.740000 -36.920027 14.534947
v -39.740000 -38.328005 8.778276
v -39.740000 -36.570431 13.929429
v -39.740000 -36.277060 13.540112
v -39.740000 -35.898219 13.233333
v -39.740000 -35.456414 13.027316
v -39.740000 -34.977893 12.934301
v -39.740000 -34.491084 12.959814
v -39.740000 -34.024907 13.102338
v -39.740000 -38.723730 8.544245
v -39.740000 -39.055558 8.226033
v -39.740000 -39.305955 7.840455
v -39.740000 -39.461690 7.407887
v -39.740000 -39.514532 6.951185
v -39.740000 -9.597044 -26.201331
v -39.740000 -8.384367 -24.300168
v -39.740000 -7.266753 -25.425940
v -39.740000 -8.781563 -27.133855
v -39.740000 -6.417343 -26.765688
v -39.740000 -10.613302 -25.492931
v -39.740000 -8.214973 -28.235483
v -39.740000 -5.875873 -28.256739
v -39.740000 -15.220418 -21.593809
v -39.740000 -14.070174 -19.744858
v -39.740000 -13.368900 -20.263774
v -39.740000 -15.388739 -21.429905
v -39.740000 -11.770376 -25.050452
v -39.740000 -15.094983 -21.792460
v -39.740000 -15.590655 -21.309796
v -39.740000 -15.594737 -18.899779
v -39.740000 -14.814007 -19.289036
v -39.740000 -15.019358 -22.014895
v -39.740000 -14.997716 -22.248835
v -39.740000 -7.930704 -29.441220
v -39.740000 -5.667673 -29.829340
v -39.740000 -13.000000 -24.900000
v -39.740000 -15.118118 -22.699659
v -39.740000 -15.031253 -22.481368
v -39.740000 -7.945527 -30.679925
v -39.740000 -5.802483 -31.409925
v -39.740000 -14.229624 -25.050452
v -39.740000 -15.429971 -23.046770
v -39.740000 -15.253515 -22.891658
v -39.740000 -8.258567 -31.878514
v -39.740000 -6.273996 -32.924553
v -39.740000 -15.386698 -25.492931
v -39.740000 -8.851356 -32.966269
v -39.740000 -7.060155 -34.302369
v -39.740000 -9.026364 -33.396461
v -39.740000 -8.964180 -33.171064
v -39.740000 -16.402956 -26.201331
v -39.740000 -9.034508 -33.630136
v -39.740000 -8.157227 -34.673631
v -39.740000 -7.668622 -34.695269
v -39.740000 -7.914268 -34.714782
v -39.740000 -8.889874 -34.071468
v -39.740000 -8.988167 -33.859315
v -39.740000 -8.577132 -34.422868
v -39.740000 -7.228194 -34.482607
v -39.740000 -7.435206 -34.616279
v -39.740000 -8.382746 -34.574316
v -39.740000 -8.745003 -34.254997
v -39.740000 -17.218437 -27.133855
v -39.740000 -17.785027 -28.235483
v -39.740000 -34.491084 -12.959814
v -39.740000 -38.328005 -8.778276
v -39.740000 -34.024907 -13.102338
v -39.740000 -34.977893 -12.934301
v -39.740000 -35.456414 -13.027316
v -39.740000 -35.898219 -13.233333
v -39.740000 -20.644674 -28.809192
v -39.740000 -20.500217 -28.975013
v -39.740000 -20.821883 -28.678957
v -39.740000 -20.395500 -29.168399
v -39.740000 -18.069296 -29.441220
v -39.740000 -20.335586 -29.379999
v -39.740000 -36.277060 -13.540112
v -39.740000 -20.323374 -29.599578
v -39.740000 -18.054473 -30.679925
v -39.740000 -16.973636 -33.396461
v -39.740000 -17.148644 -32.966269
v -39.740000 -17.035820 -33.171064
v -39.740000 -36.570431 -13.929429
v -39.740000 -17.110126 -34.071468
v -39.740000 -16.965492 -33.630136
v -39.740000 -17.011833 -33.859315
v -39.740000 -36.920027 -14.534947
v -39.740000 -38.723730 -8.544245
v -39.740000 -20.225412 -31.259190
v -39.740000 -17.741433 -31.878514
v -39.740000 -17.254997 -34.254997
v -39.740000 -19.756200 -32.854104
v -39.740000 -18.939845 -34.302369
v -39.740000 -17.422868 -34.422868
v -39.740000 -17.617254 -34.574316
v -39.740000 -17.842773 -34.673631
v -39.740000 -18.085732 -34.714782
v -39.740000 -18.771806 -34.482607
v -39.740000 -18.331378 -34.695269
v -39.740000 -18.564794 -34.616279
v -39.740000 -44.514532 -15.000000
v -39.740000 -37.099122 -14.945437
v -39.740000 -37.182384 -15.385487
v -39.740000 -37.165638 -15.833032
v -39.740000 -37.049724 -16.265629
v -39.740000 -36.840454 -16.661587
v -39.740000 -36.548322 -17.001051
v -39.740000 -39.514532 -6.951185
v -39.740000 -39.461690 -7.407887
v -39.740000 -39.305955 -7.840455
v -39.740000 -39.055558 -8.226033
v -33.961270 -44.514532 -13.210081
v -34.161097 -44.514532 -13.435638
v -34.409096 -44.514532 -13.606820
v -33.821230 -44.514532 -12.943256
v -34.690855 -44.514532 -13.713677
v -33.749114 -44.514532 -12.650671
v -34.990000 -44.514532 -13.750000
v -33.749114 -44.514532 -12.349329
v -33.821230 -44.514532 -12.056744
v -33.961270 -44.514532 -11.789919
v -36.158770 -44.514532 -12.056744
v -36.018730 -44.514532 -11.789919
v -36.230886 -44.514532 -12.349329
v -36.230886 -44.514532 -12.650671
v -36.158770 -44.514532 -12.943256
v -36.018730 -44.514532 -13.210081
v -35.818903 -44.514532 -13.435638
v -35.570904 -44.514532 -13.606820
v -35.289145 -44.514532 -13.713677
v -33.961270 -44.514532 11.789919
v -34.161097 -44.514532 -11.564362
v -34.161097 -44.514532 11.564362
v -34.409096 -44.514532 11.393180
v -34.409096 -44.514532 -11.393180
v -34.690855 -44.514532 -11.286323
v -33.821230 -44.514532 12.056744
v -34.690855 -44.514532 11.286323
v -33.749114 -44.514532 12.349329
v -34.990000 -44.514532 11.250000
v -34.990000 -44.514532 -11.250000
v -33.749114 -44.514532 12.650671
v -35.289145 -44.514532 11.286323
v -35.289145 -44.514532 -11.286323
v -33.821230 -44.514532 12.943256
v -35.570904 -44.514532 11.393180
v -35.570904 -44.514532 -11.393180
v -33.961270 -44.514532 13.210081
v -35.818903 -44.514532 11.564362
v -35.818903 -44.514532 -11.564362
v -34.161097 -44.514532 13.435638
v -36.018730 -44.514532 11.789919
v -34.409096 -44.514532 13.606820
v -34.690855 -44.514532 13.713677
v -34.990000 -44.514532 13.750000
v -35.289145 -44.514532 13.713677
v -35.570904 -44.514532 13.606820
v -35.818903 -44.514532 13.435638
v -36.018730 -44.514532 13.210081
v -36.158770 -44.514532 12.943256
v -36.230886 -44.514532 12.650671
v -36.230886 -44.514532 12.349329
v -36.158770 -44.514532 12.056744
v -34.990000 -39.514532 13.750000
v -35.289145 -39.514532 13.713677
v -35.570904 -39.514532 13.606820
v -35.818903 -39.514532 13.435638
v -36.018730 -39.514532 13.210081
v -36.158770 -39.514532 12.943256
v -36.230886 -39.514532 12.650671
v -36.230886 -39.514532 12.349329
v -36.158770 -39.514532 12.056744
v -36.018730 -39.514532 11.789919
v -35.818903 -39.514532 11.564362
v -35.570904 -39.514532 11.393180
v -35.289145 -39.514532 11.286323
v -34.990000 -39.514532 11.250000
v -34.690855 -39.514532 11.286323
v -34.409096 -39.514532 11.393180
v -34.161097 -39.514532 11.564362
v -33.961270 -39.514532 11.789919
v -33.821230 -39.514532 12.056744
v -33.749114 -39.514532 12.349329
v -33.749114 -39.514532 12.650671
v -33.821230 -39.514532 12.943256
v -33.961270 -39.514532 13.210081
v -34.161097 -39.514532 13.435638
v -34.409096 -39.514532 13.606820
v -34.690855 -39.514532 13.713677
v -35.570904 -39.514532 -11.393180
v -35.818903 -39.514532 -11.564362
v -36.018730 -39.514532 -11.789919
v -34.990000 -39.514532 -11.250000
v -35.289145 -39.514532 -11.286323
v -36.158770 -39.514532 -12.943256
v -36.230886 -39.514532 -12.349329
v -36.230886 -39.514532 -12.650671
v -35.818903 -39.514532 -13.435638
v -36.158770 -39.514532 -12.056744
v -36.018730 -39.514532 -13.210081
v -33.961270 -39.514532 -11.789919
v -34.161097 -39.514532 -11.564362
v -34.409096 -39.514532 -11.393180
v -34.690855 -39.514532 -11.286323
v -35.570904 -39.514532 -13.606820
v -34.690855 -39.514532 -13.713677
v -35.289145 -39.514532 -13.713677
v -34.990000 -39.514532 -13.750000
v -33.821230 -39.514532 -12.943256
v -33.749114 -39.514532 -12.650671
v -33.749114 -39.514532 -12.349329
v -34.161097 -39.514532 -13.435638
v -34.409096 -39.514532 -13.606820
v -33.961270 -39.514532 -13.210081
v -33.821230 -39.514532 -12.056744
f 1 2 3
f 2 4 3
f 3 4 5
f 6 4 2
f 7 4 6
f 8 4 7
f 4 9 5
f 10 11 9
f 11 12 9
f 12 13 9
f 13 14 9
f 9 15 5
f 14 15 9
f 5 15 16
f 15 17 16
f 16 17 18
f 17 19 18
f 18 19 20
f 19 21 20
f 20 21 22
f 21 23 22
f 22 23 24
f 23 25 24
f 25 26 24
f 25 27 26
f 28 29 30
f 31 29 28
f 32 29 31
f 33 29 32
f 34 35 36
f 37 35 34
f 27 38 26
f 33 39 29
f 36 40 41
f 35 40 36
f 41 42 43
f 43 42 33
f 40 42 41
f 33 42 39
f 27 44 38
f 44 45 38
f 39 46 47
f 42 46 39
f 46 48 47
f 47 48 49
f 48 50 49
f 49 50 51
f 50 52 51
f 52 53 51
f 51 53 54
f 53 55 54
f 56 57 58
f 56 59 60
f 58 59 56
f 61 62 56
f 56 62 57
f 59 63 60
f 63 64 60
f 45 65 38
f 60 65 45
f 64 65 60
f 66 65 64
f 54 67 68
f 67 69 68
f 70 71 61
f 61 71 62
f 54 72 67
f 55 73 54
f 54 73 72
f 66 74 65
f 68 75 70
f 70 75 71
f 69 75 68
f 76 77 55
f 55 77 73
f 78 79 76
f 76 79 77
f 74 80 65
f 78 81 79
f 78 82 81
f 80 83 65
f 84 83 85
f 85 83 80
f 84 86 83
f 84 87 86
f 78 88 82
f 89 90 91
f 92 90 89
f 93 90 92
f 94 90 93
f 95 90 94
f 96 90 95
f 88 90 96
f 91 97 98
f 99 97 100
f 101 97 99
f 102 97 101
f 103 97 102
f 104 97 103
f 98 97 104
f 90 105 91
f 91 105 97
f 90 106 105
f 90 107 106
f 90 108 107
f 90 109 108
f 110 111 112
f 111 113 112
f 112 113 114
f 110 115 111
f 113 116 114
f 114 116 117
f 118 119 120
f 118 121 119
f 110 122 115
f 120 122 110
f 119 123 120
f 118 124 121
f 125 124 118
f 126 124 125
f 123 127 120
f 127 128 120
f 116 129 117
f 117 129 130
f 120 131 122
f 128 131 120
f 132 131 133
f 133 131 128
f 129 134 130
f 130 134 135
f 132 136 131
f 137 136 138
f 138 136 139
f 139 136 132
f 134 140 135
f 135 140 141
f 142 143 137
f 137 143 136
f 140 144 141
f 141 144 145
f 145 146 147
f 148 149 144
f 142 150 143
f 151 152 153
f 154 155 149
f 149 155 144
f 155 156 144
f 152 157 158
f 146 157 151
f 145 157 146
f 151 157 152
f 144 159 145
f 145 159 157
f 156 159 144
f 142 160 150
f 160 161 150
f 160 162 161
f 162 163 161
f 163 164 161
f 165 164 163
f 165 166 164
f 167 168 169
f 167 170 168
f 167 171 170
f 167 172 171
f 173 174 175
f 166 176 164
f 174 176 175
f 175 176 166
f 177 178 173
f 179 178 177
f 173 178 174
f 164 180 181
f 176 180 164
f 180 182 181
f 167 183 172
f 181 184 185
f 182 184 181
f 167 186 183
f 187 188 189
f 187 190 188
f 187 191 190
f 192 191 187
f 167 193 186
f 194 193 167
f 185 195 196
f 184 195 185
f 192 197 191
f 196 198 192
f 195 198 196
f 199 200 201
f 192 202 197
f 198 202 192
f 197 202 203
f 199 202 200
f 204 202 199
f 203 202 204
f 200 205 206
f 202 205 200
f 179 207 178
f 208 209 207
f 210 209 208
f 211 209 210
f 212 209 211
f 213 209 212
f 214 209 213
f 193 209 214
f 90 209 109
f 194 209 193
f 109 209 215
f 216 209 194
f 217 209 216
f 218 209 217
f 215 209 218
f 209 178 207
f 78 90 88
f 97 87 100
f 126 167 169
f 84 100 87
f 169 124 126
f 179 219 207
f 220 219 179
f 162 221 163
f 163 221 165
f 222 221 162
f 165 223 166
f 221 223 165
f 166 224 175
f 223 224 166
f 175 225 173
f 224 225 175
f 173 226 177
f 225 226 173
f 177 227 179
f 226 227 177
f 227 220 179
f 228 222 162
f 228 162 160
f 229 160 142
f 229 228 160
f 230 142 137
f 230 229 142
f 231 232 233
f 234 231 233
f 235 234 233
f 235 236 237
f 235 237 234
f 235 233 238
f 239 235 238
f 240 241 239
f 242 240 239
f 243 242 239
f 244 243 239
f 245 239 238
f 245 244 239
f 245 238 246
f 247 245 246
f 247 246 248
f 249 247 248
f 249 248 250
f 251 249 250
f 251 250 252
f 253 251 252
f 253 252 254
f 255 253 254
f 256 255 254
f 257 258 259
f 260 255 256
f 261 257 262
f 261 262 263
f 261 258 257
f 264 265 266
f 267 260 256
f 268 258 261
f 269 266 270
f 269 264 266
f 271 270 272
f 271 272 273
f 271 273 258
f 271 269 270
f 271 258 268
f 274 260 267
f 275 274 267
f 276 271 268
f 276 268 277
f 278 276 277
f 278 277 279
f 280 278 279
f 280 279 281
f 282 280 281
f 283 282 281
f 283 281 284
f 285 283 284
f 286 287 288
f 289 288 287
f 289 287 290
f 291 287 286
f 291 292 287
f 293 289 290
f 294 293 290
f 295 275 267
f 295 290 275
f 295 294 290
f 295 296 294
f 297 284 298
f 299 297 298
f 300 301 292
f 300 292 291
f 302 284 297
f 303 285 284
f 303 284 302
f 304 296 295
f 305 298 301
f 305 301 300
f 305 299 298
f 306 307 285
f 306 285 303
f 308 309 307
f 308 307 306
f 310 304 295
f 311 309 308
f 312 309 311
f 313 310 295
f 313 314 315
f 313 315 310
f 316 314 313
f 317 314 316
f 318 309 312
f 319 318 320
f 319 320 321
f 319 321 322
f 319 322 323
f 319 323 324
f 319 324 325
f 319 325 326
f 327 326 328
f 327 328 329
f 327 329 330
f 327 330 331
f 327 331 332
f 327 332 333
f 327 333 334
f 335 319 326
f 335 326 327
f 336 319 335
f 337 319 336
f 338 319 337
f 339 319 338
f 340 341 342
f 343 342 344
f 343 340 342
f 345 341 340
f 346 344 347
f 346 343 344
f 348 349 350
f 351 349 348
f 352 341 345
f 352 350 341
f 353 348 350
f 354 349 351
f 354 355 356
f 354 356 349
f 357 353 350
f 358 357 350
f 359 347 360
f 359 346 347
f 361 350 352
f 361 358 350
f 361 362 363
f 361 363 358
f 364 360 365
f 364 359 360
f 366 362 361
f 366 230 367
f 366 367 368
f 366 368 362
f 369 365 370
f 369 364 365
f 371 230 366
f 371 229 230
f 372 369 370
f 372 370 373
f 374 375 372
f 376 229 371
f 377 374 372
f 378 379 380
f 381 382 377
f 381 377 372
f 383 373 384
f 383 384 385
f 383 385 379
f 383 378 386
f 383 379 378
f 387 372 373
f 387 381 372
f 387 373 383
f 228 229 376
f 388 228 376
f 222 228 388
f 221 222 388
f 389 223 221
f 389 221 388
f 224 223 389
f 390 391 392
f 393 391 390
f 394 391 393
f 395 391 394
f 396 226 225
f 397 225 224
f 397 224 389
f 397 396 225
f 398 220 227
f 398 227 226
f 398 226 396
f 399 397 389
f 399 389 400
f 401 399 400
f 402 391 395
f 403 400 404
f 403 401 400
f 405 406 407
f 408 391 402
f 409 406 405
f 409 405 410
f 409 410 411
f 412 391 408
f 412 413 391
f 414 403 404
f 414 404 415
f 416 406 409
f 417 414 415
f 417 415 406
f 418 419 420
f 418 420 421
f 418 421 422
f 418 406 416
f 418 417 406
f 418 416 419
f 423 422 424
f 423 424 425
f 423 418 422
f 219 220 398
f 426 412 427
f 426 427 428
f 426 428 429
f 426 429 430
f 426 430 431
f 426 431 432
f 426 432 219
f 426 413 412
f 426 319 339
f 426 339 433
f 426 433 434
f 426 434 435
f 426 435 436
f 426 436 413
f 398 426 219
f 319 309 318
f 317 327 334
f 391 355 392
f 334 314 317
f 354 392 355
f 207 219 208
f 208 432 210
f 219 432 208
f 210 431 211
f 432 431 210
f 211 430 212
f 431 430 211
f 212 429 213
f 430 429 212
f 213 428 214
f 429 428 213
f 214 427 193
f 428 427 214
f 427 412 193
f 412 408 186
f 412 186 193
f 186 408 183
f 183 402 172
f 408 402 183
f 172 395 171
f 402 395 172
f 171 394 170
f 395 394 171
f 170 393 168
f 394 393 170
f 168 390 169
f 393 390 168
f 390 392 169
f 169 354 124
f 392 354 169
f 124 354 121
f 354 351 121
f 121 348 119
f 351 348 121
f 123 353 127
f 119 353 123
f 348 353 119
f 353 357 127
f 128 358 133
f 127 358 128
f 357 358 127
f 133 363 132
f 358 363 133
f 363 362 132
f 139 368 138
f 132 368 139
f 362 368 132
f 368 367 138
f 138 230 137
f 367 230 138
f 318 312 82
f 318 82 88
f 82 312 81
f 81 311 79
f 312 311 81
f 79 308 77
f 311 308 79
f 77 306 73
f 308 306 77
f 73 303 72
f 306 303 73
f 72 302 67
f 303 302 72
f 302 297 67
f 67 299 69
f 297 299 67
f 291 62 71
f 300 71 75
f 300 291 71
f 305 75 69
f 305 300 75
f 299 305 69
f 291 286 62
f 62 286 57
f 58 288 59
f 57 288 58
f 286 288 57
f 288 289 59
f 59 293 63
f 289 293 59
f 64 294 66
f 63 294 64
f 293 294 63
f 294 296 66
f 66 304 74
f 296 304 66
f 74 310 80
f 304 310 74
f 80 315 85
f 310 315 80
f 85 314 84
f 315 314 85
f 84 334 100
f 314 334 84
f 100 334 99
f 99 333 101
f 334 333 99
f 101 332 102
f 333 332 101
f 102 331 103
f 332 331 102
f 103 330 104
f 331 330 103
f 104 329 98
f 330 329 104
f 329 328 98
f 328 326 91
f 328 91 98
f 91 326 89
f 89 325 92
f 326 325 89
f 92 324 93
f 325 324 92
f 93 323 94
f 324 323 93
f 94 322 95
f 323 322 94
f 95 321 96
f 322 321 95
f 96 320 88
f 321 320 96
f 320 318 88
f 205 202 418
f 205 418 423
f 206 423 425
f 206 205 423
f 200 425 424
f 200 206 425
f 201 424 422
f 201 200 424
f 199 421 420
f 199 422 421
f 199 201 422
f 204 420 419
f 204 199 420
f 203 204 419
f 203 416 197
f 419 416 203
f 407 406 192
f 407 192 187
f 405 187 189
f 405 407 187
f 410 189 188
f 410 405 189
f 411 188 190
f 411 410 188
f 409 190 191
f 409 411 190
f 416 191 197
f 416 409 191
f 192 415 196
f 406 415 192
f 196 404 185
f 415 404 196
f 185 400 181
f 404 400 185
f 181 389 164
f 400 389 181
f 164 388 161
f 389 388 164
f 161 376 150
f 388 376 161
f 150 371 143
f 376 371 150
f 143 366 136
f 371 366 143
f 136 361 131
f 366 361 136
f 131 352 122
f 361 352 131
f 122 345 115
f 352 345 122
f 115 340 111
f 345 340 115
f 111 343 113
f 340 343 111
f 113 346 116
f 343 346 113
f 346 359 116
f 116 359 129
f 359 364 129
f 129 364 134
f 364 369 134
f 134 369 140
f 369 372 140
f 140 372 144
f 148 144 372
f 148 372 375
f 149 375 374
f 149 148 375
f 154 377 382
f 154 374 377
f 154 149 374
f 155 382 381
f 155 154 382
f 156 381 387
f 156 155 381
f 159 156 387
f 159 383 157
f 387 383 159
f 373 145 147
f 384 147 146
f 384 373 147
f 385 146 151
f 385 384 146
f 379 385 151
f 380 151 153
f 380 379 151
f 378 153 152
f 378 380 153
f 386 152 158
f 386 378 152
f 383 158 157
f 383 386 158
f 418 202 198
f 417 418 198
f 414 198 195
f 414 417 198
f 403 195 184
f 403 414 195
f 341 110 112
f 342 112 114
f 342 341 112
f 344 342 114
f 347 114 117
f 347 344 114
f 360 117 130
f 360 347 117
f 365 130 135
f 365 135 141
f 365 360 130
f 370 365 141
f 373 141 145
f 373 370 141
f 178 398 174
f 174 396 176
f 398 396 174
f 176 397 180
f 396 397 176
f 180 399 182
f 397 399 180
f 182 401 184
f 399 401 182
f 401 403 184
f 209 398 178
f 426 398 209
f 437 438 209
f 439 209 438
f 440 437 209
f 441 209 439
f 442 440 209
f 443 209 441
f 444 442 209
f 445 444 209
f 446 445 209
f 426 447 448
f 426 449 447
f 426 450 449
f 426 451 450
f 426 452 451
f 426 453 452
f 426 454 453
f 426 455 454
f 426 443 455
f 426 209 443
f 456 209 90
f 456 457 446
f 456 446 209
f 456 458 457
f 459 460 457
f 459 461 460
f 459 457 458
f 462 456 90
f 463 461 459
f 464 462 90
f 465 461 463
f 465 466 461
f 467 464 90
f 468 466 465
f 468 469 466
f 470 467 90
f 471 472 469
f 471 469 468
f 473 470 90
f 474 472 471
f 474 475 472
f 476 473 90
f 477 448 475
f 477 475 474
f 478 476 90
f 479 478 90
f 480 479 90
f 319 481 480
f 319 482 481
f 319 483 482
f 319 484 483
f 319 485 484
f 319 486 485
f 319 487 486
f 319 488 487
f 319 477 488
f 319 448 477
f 319 480 90
f 319 426 448
f 78 319 90
f 309 319 78
f 50 280 52
f 52 282 53
f 280 282 52
f 53 283 55
f 282 283 53
f 55 285 76
f 283 285 55
f 76 307 78
f 285 307 76
f 307 309 78
f 278 280 50
f 278 50 48
f 278 48 46
f 276 278 46
f 271 46 42
f 271 276 46
f 246 238 5
f 246 5 16
f 248 16 18
f 248 246 16
f 250 18 20
f 250 248 18
f 252 20 22
f 252 22 24
f 252 250 20
f 254 252 24
f 256 24 26
f 256 254 24
f 267 26 38
f 267 256 26
f 269 271 42
f 269 42 40
f 264 40 35
f 264 269 40
f 265 35 37
f 265 264 35
f 266 37 34
f 266 265 37
f 270 34 36
f 270 266 34
f 272 36 41
f 272 270 36
f 273 41 43
f 273 272 41
f 33 273 43
f 258 273 33
f 29 39 268
f 29 268 261
f 30 261 263
f 30 29 261
f 28 263 262
f 28 30 263
f 31 262 257
f 31 28 262
f 32 257 259
f 32 31 257
f 33 259 258
f 33 32 259
f 245 247 15
f 15 247 17
f 17 249 19
f 247 249 17
f 19 251 21
f 249 251 19
f 21 253 23
f 251 253 21
f 23 255 25
f 253 255 23
f 25 260 27
f 255 260 25
f 27 274 44
f 260 274 27
f 44 275 45
f 274 275 44
f 45 290 60
f 275 290 45
f 60 287 56
f 290 287 60
f 56 292 61
f 287 292 56
f 61 301 70
f 292 301 61
f 70 298 68
f 301 298 70
f 68 284 54
f 298 284 68
f 284 281 54
f 54 281 51
f 281 279 51
f 51 279 49
f 279 277 49
f 49 277 47
f 277 268 47
f 47 268 39
f 244 245 15
f 244 15 14
f 243 14 13
f 243 244 14
f 242 12 11
f 242 13 12
f 242 243 13
f 240 11 10
f 240 242 11
f 241 10 9
f 241 240 10
f 239 241 9
f 235 239 4
f 4 239 9
f 5 238 233
f 3 233 232
f 3 5 233
f 1 232 231
f 1 3 232
f 2 1 231
f 6 231 234
f 6 2 231
f 7 234 237
f 7 6 234
f 8 237 236
f 8 7 237
f 4 236 235
f 4 8 236
f 295 267 38
f 295 38 65
f 87 317 316
f 86 316 313
f 86 87 316
f 83 313 295
f 83 86 313
f 65 83 295
f 327 317 87
f 327 87 97
f 109 339 108
f 108 338 107
f 339 338 108
f 107 337 106
f 338 337 107
f 106 336 105
f 337 336 106
f 105 335 97
f 336 335 105
f 335 327 97
f 433 339 109
f 433 109 215
f 167 391 194
f 194 413 216
f 391 413 194
f 216 436 217
f 413 436 216
f 217 435 218
f 436 435 217
f 218 434 215
f 435 434 218
f 434 433 215
f 126 391 167
f 355 391 126
f 120 350 349
f 118 349 356
f 118 120 349
f 125 356 355
f 125 118 356
f 126 125 355
f 350 120 110
f 341 350 110
f 480 481 489
f 489 481 490
f 490 482 491
f 481 482 490
f 491 483 492
f 482 483 491
f 492 484 493
f 483 484 492
f 493 485 494
f 484 485 493
f 494 486 495
f 485 486 494
f 495 487 496
f 486 487 495
f 496 488 497
f 497 488 498
f 487 488 496
f 488 477 498
f 498 474 499
f 477 474 498
f 499 471 500
f 474 471 499
f 471 468 500
f 500 468 501
f 468 465 501
f 501 465 502
f 465 463 502
f 502 463 503
f 463 459 503
f 503 459 504
f 459 458 504
f 504 458 505
f 505 458 506
f 458 456 506
f 456 462 506
f 506 462 507
f 462 464 507
f 507 464 508
f 464 467 508
f 508 467 509
f 467 470 509
f 509 470 510
f 470 473 510
f 510 473 511
f 473 476 511
f 511 476 512
f 512 478 513
f 476 478 512
f 513 479 514
f 478 479 513
f 479 480 514
f 514 480 489
f 491 492 493
f 489 490 491
f 497 495 496
f 499 494 495
f 499 497 498
f 499 495 497
f 511 512 513
f 511 513 514
f 511 514 489
f 500 493 494
f 500 494 499
f 503 500 501
f 503 501 502
f 503 491 493
f 503 489 491
f 503 493 500
f 503 511 489
f 507 508 509
f 505 503 504
f 505 506 507
f 505 509 510
f 505 510 511
f 505 511 503
f 505 507 509
f 515 516 517
f 518 519 515
f 520 521 522
f 523 524 521
f 523 520 525
f 523 521 520
f 526 527 528
f 526 528 529
f 526 529 518
f 530 517 524
f 530 524 523
f 531 530 532
f 531 532 533
f 531 515 517
f 531 518 515
f 531 517 530
f 531 526 518
f 534 535 536
f 537 531 538
f 537 539 534
f 537 536 540
f 537 540 526
f 537 526 531
f 537 534 536
f 466 469 518
f 518 469 519
f 519 472 515
f 469 472 519
f 515 475 516
f 472 475 515
f 516 448 517
f 475 448 516
f 517 447 524
f 448 447 517
f 524 449 521
f 447 449 524
f 521 450 522
f 449 450 521
f 522 451 520
f 520 451 525
f 450 451 522
f 451 452 525
f 525 453 523
f 452 453 525
f 523 454 530
f 453 454 523
f 454 455 530
f 530 455 532
f 455 443 532
f 532 443 533
f 443 441 533
f 533 441 531
f 441 439 531
f 531 439 538
f 439 438 538
f 538 438 537
f 537 438 539
f 438 437 539
f 437 440 539
f 539 440 534
f 440 442 534
f 534 442 535
f 442 444 535
f 535 444 536
f 444 445 536
f 536 445 540
f 445 446 540
f 540 446 526
f 446 457 526
f 526 457 527
f 527 460 528
f 457 460 527
f 528 461 529
f 460 461 528
f 461 466 529
f 529 466 518
