# smartdrone2 body-local mesh, millimetres
v 87.903335 -23.625001 10.082696
v 88.176852 -23.670259 10.114681
v 88.181382 -23.624999 10.165934
v 88.356049 -23.700266 10.170136
v 88.432737 -23.624999 10.311053
v 88.617305 -23.746103 10.306924
v 88.643844 -23.624981 10.510232
v 88.770200 -23.775512 10.426813
v 88.819338 -23.638589 10.754367
v 88.978516 -23.821890 10.662492
v 89.083863 -23.851284 10.838046
v 88.932203 -23.652051 11.033418
v 89.167224 -23.881504 11.036213
v 88.976502 -23.665314 11.329901
v 89.232096 -23.920804 11.313708
v 88.951121 -23.678466 11.628676
v 89.311292 -24.000000 11.313708
v 89.270550 -24.000000 11.675305
v 89.150367 -24.000000 12.018770
v 88.858411 -23.691436 11.912994
v 88.956768 -24.000000 12.326880
v 88.704104 -23.704268 12.168675
v 88.699463 -24.000000 12.584185
v 88.496883 -23.716967 12.383197
v 88.391353 -24.000000 12.777784
v 88.248070 -23.729497 12.546195
v 88.047888 -24.000000 12.897967
v 87.974916 -23.741690 12.649574
v 87.686291 -23.753765 12.692474
v 87.686292 -24.000000 12.938709
v 86.436292 -21.718741 11.313708
v 86.442168 -21.772567 11.434779
v 86.436292 -21.781263 11.313708
v 86.472500 -21.697125 11.612388
v 86.459730 -21.763904 11.554636
v 86.511653 -21.750014 11.741242
v 86.579212 -21.675507 11.894119
v 86.641174 -21.729334 11.999442
v 86.750240 -21.653889 12.142145
v 86.826251 -21.708622 12.220808
v 86.975674 -21.632234 12.342068
v 87.066990 -21.687129 12.399510
v 87.242302 -21.610619 12.482200
v 87.342944 -21.665595 12.515628
v 87.533784 -21.589069 12.554370
v 87.638493 -21.644163 12.562794
v 87.834954 -21.567436 12.554837
v 87.937367 -21.622539 12.538233
v 88.127628 -21.545794 12.483205
v 88.221567 -21.601112 12.443301
v 88.394638 -21.524185 12.343633
v 88.474507 -21.579549 12.283872
v 88.620478 -21.502552 12.144248
v 88.682908 -21.558145 12.068199
v 88.792088 -21.480900 11.896559
v 88.833580 -21.536592 11.809923
v 88.899399 -21.459291 11.615156
v 88.918675 -21.515149 11.522826
v 88.927035 -21.448382 11.465552
v 88.936292 -21.437498 11.313709
v 88.933085 -21.493587 11.224233
v 88.900391 -21.415971 11.016282
v 88.875895 -21.472182 10.929855
v 88.794724 -21.394457 10.735887
v 88.750663 -21.450622 10.658260
v 88.625235 -21.372951 10.488551
v 88.564154 -21.429189 10.423845
v 88.402144 -21.351453 10.288987
v 88.326965 -21.407593 10.240379
v 88.137974 -21.329948 10.148169
v 88.053391 -21.386119 10.118829
v 87.937616 -21.314994 10.089235
v 87.758848 -21.364641 10.065816
v 87.729950 -21.299993 10.064484
v 87.459588 -21.343113 10.084438
v 87.440652 -21.300000 10.088082
v 87.173533 -21.321622 10.173718
v 87.164600 -21.300000 10.177778
v 86.916702 -21.300024 10.328757
v 86.436292 -22.281238 11.313708
v 86.447184 -22.331935 11.478365
v 86.436292 -22.343784 11.313708
v 86.451314 -22.267348 11.506916
v 86.479664 -22.320113 11.640130
v 86.475786 -22.258662 11.625441
v 86.511664 -22.250000 11.741238
v 86.591997 -22.298599 11.917876
v 86.647395 -22.228438 12.008830
v 86.767582 -22.277069 12.161336
v 86.842776 -22.206937 12.236195
v 86.996377 -22.255485 12.356070
v 87.086818 -22.185387 12.410582
v 87.265063 -22.233902 12.490597
v 87.365307 -22.163851 12.521793
v 87.558082 -22.212355 12.557116
v 87.662294 -22.142339 12.563478
v 87.858475 -22.190766 12.551793
v 87.960679 -22.120800 12.533221
v 88.148919 -22.169190 12.474948
v 88.242433 -22.099331 12.433175
v 88.412662 -22.147646 12.331002
v 88.492879 -22.077822 12.268652
v 88.634447 -22.126052 12.128264
v 88.697112 -22.056302 12.049060
v 88.801425 -22.104481 11.878488
v 88.843180 -22.034747 11.787109
v 88.903918 -22.082937 11.596346
v 88.922642 -22.013226 11.497928
v 88.936199 -22.061423 11.298500
v 88.930954 -21.991712 11.198324
v 88.896636 -22.039910 11.001354
v 88.867966 -21.970245 10.906100
v 88.787339 -22.018381 10.721936
v 88.736879 -21.948710 10.636385
v 88.614335 -21.996793 10.476311
v 88.545300 -21.927201 10.405631
v 88.387708 -21.975219 10.279052
v 88.304300 -21.905660 10.227170
v 88.120528 -21.953671 10.141557
v 88.027737 -21.884119 10.111246
v 87.828281 -21.932074 10.071799
v 87.731495 -21.862604 10.064526
v 87.527852 -21.910507 10.073790
v 87.432626 -21.841073 10.089718
v 87.236566 -21.888960 10.147412
v 87.148395 -21.819526 10.185361
v 86.971229 -21.867363 10.288435
v 86.895136 -21.798006 10.345942
v 86.747779 -21.845847 10.488061
v 86.687403 -21.776491 10.562229
v 86.578086 -21.824332 10.735452
v 86.537148 -21.754937 10.821805
v 86.472347 -21.802818 11.015650
v 86.461692 -21.736815 11.062998
v 86.436292 -22.843716 11.313708
v 86.447555 -22.894255 11.481137
v 86.436292 -22.906263 11.313708
v 86.472342 -22.822184 11.611745
v 86.481131 -22.882200 11.645504
v 86.578416 -22.800634 11.892596
v 86.594997 -22.860677 11.923280
v 86.748419 -22.779054 12.140083
v 86.771795 -22.839112 12.165880
v 86.972514 -22.757526 12.339877
v 87.001313 -22.817552 12.359321
v 87.237763 -22.735970 12.480466
v 87.270340 -22.796025 12.492472
v 87.528890 -22.714396 12.553759
v 87.562796 -22.774506 12.557592
v 87.829134 -22.692864 12.555520
v 87.862332 -22.752982 12.551250
v 88.121132 -22.671302 12.485636
v 88.151394 -22.731513 12.473958
v 88.387896 -22.649747 12.348237
v 88.414450 -22.709973 12.329723
v 88.613672 -22.628278 12.151841
v 88.635689 -22.688408 12.126816
v 88.786753 -22.606725 11.906569
v 88.802177 -22.666883 11.877002
v 88.896382 -22.585151 11.627046
v 88.904292 -22.645314 11.594733
v 88.936192 -22.563622 11.329482
v 88.936170 -22.623756 11.296268
v 88.903907 -22.542064 11.031022
v 88.895970 -22.602232 10.998785
v 88.801385 -22.520491 10.748849
v 88.785997 -22.580659 10.719445
v 88.634519 -22.498963 10.499237
v 88.613218 -22.559164 10.475075
v 88.412969 -22.477397 10.296634
v 88.386925 -22.537668 10.278522
v 88.149516 -22.455831 10.152708
v 88.120798 -22.516173 10.141657
v 87.859326 -22.434301 10.075743
v 87.828826 -22.494614 10.071861
v 87.559792 -22.412785 10.070126
v 87.528638 -22.473085 10.073690
v 87.267375 -22.391250 10.135995
v 87.237571 -22.451516 10.147025
v 86.998799 -22.369738 10.269748
v 86.972376 -22.429962 10.287636
v 86.770360 -22.348240 10.463079
v 86.748326 -22.408436 10.487439
v 86.593957 -22.326669 10.706003
v 86.578375 -22.386859 10.734898
v 86.480564 -22.305149 10.983979
v 86.472332 -22.365312 11.015711
v 86.447415 -22.293186 11.147322
v 88.425003 -23.603471 10.305341
v 88.163660 -23.581940 10.158451
v 87.875557 -23.560466 10.078121
v 87.716293 -23.611558 10.064069
v 87.576137 -23.538967 10.068572
v 87.528586 -23.598056 10.073697
v 87.282746 -23.517431 10.130640
v 87.237565 -23.576536 10.147028
v 87.012558 -23.495882 10.260816
v 86.972138 -23.554949 10.287802
v 86.781147 -23.474379 10.451611
v 86.748011 -23.533377 10.487798
v 86.601865 -23.452837 10.692003
v 86.578065 -23.511833 10.735492
v 86.484999 -23.431294 10.968171
v 86.472242 -23.490294 11.016081
v 86.448526 -23.418772 11.139246
v 86.436292 -23.468756 11.313708
v 86.436292 -23.406237 11.313708
v 85.770789 -24.000000 12.705403
v 86.611074 -24.000000 12.532123
v 86.101997 -24.000000 13.073246
v 86.502446 -24.000000 13.364189
v 85.523298 -24.000000 12.276735
v 86.351330 -24.000000 12.240264
v 86.932974 -24.000000 12.753549
v 86.954635 -24.000000 13.565517
v 85.370340 -24.000000 11.805979
v 86.168757 -24.000000 11.894842
v 87.298422 -24.000000 12.891741
v 87.438800 -24.000000 13.668429
v 85.318600 -24.000000 11.313708
v 86.073909 -24.000000 11.515827
v 87.933783 -24.000000 13.668429
v 85.370340 -24.000000 10.821438
v 86.072270 -24.000000 11.125127
v 88.417948 -24.000000 13.565517
v 85.523298 -24.000000 10.350682
v 86.163934 -24.000000 10.745328
v 88.870137 -24.000000 13.364189
v 85.770789 -24.000000 9.922014
v 86.343602 -24.000000 10.398387
v 89.270586 -24.000000 13.073246
v 86.600888 -24.000000 10.104358
v 86.101997 -24.000000 9.554171
v 89.601794 -24.000000 12.705403
v 86.502446 -24.000000 9.263228
v 86.920919 -24.000000 9.880240
v 89.849285 -24.000000 12.276735
v 86.954635 -24.000000 9.061900
v 87.285195 -24.000000 9.738987
v 89.369263 -24.000000 11.313709
v 90.002243 -24.000000 11.805979
v 87.438800 -24.000000 8.958988
v 87.672656 -24.000000 9.688765
v 89.321207 -24.000000 11.041691
v 90.053983 -24.000000 11.313708
v 87.933783 -24.000000 8.958988
v 88.060907 -24.000000 9.732477
v 89.268546 -24.000000 10.877464
v 90.002243 -24.000000 10.821438
v 88.417948 -24.000000 9.061900
v 88.427501 -24.000000 9.867598
v 89.198876 -24.000000 10.719870
v 89.849285 -24.000000 10.350682
v 89.013432 -24.000000 10.375984
v 88.870137 -24.000000 9.263228
v 88.751248 -24.000000 10.086315
v 89.601794 -24.000000 9.922014
v 89.270586 -24.000000 9.554171
v 84.943600 -23.812500 11.313708
v 84.776975 -23.718037 11.674625
v 84.568600 -23.625000 11.313708
v 85.328164 -23.833700 12.629313
v 85.151230 -23.819578 12.322853
v 85.502373 -23.825051 12.931050
v 87.646575 -23.833700 14.013708
v 87.292705 -23.819578 14.013708
v 87.994991 -23.825051 14.013708
v 90.004702 -23.833700 12.698104
v 89.827767 -23.819578 13.004564
v 90.178910 -23.825051 12.396367
v 90.044419 -23.833700 9.998104
v 90.221353 -23.819578 10.304564
v 89.870210 -23.825051 9.696367
v 87.726008 -23.833700 8.613708
v 88.079878 -23.819578 8.613708
v 87.377592 -23.825051 8.613708
v 85.367881 -23.833700 9.929313
v 85.544816 -23.819578 9.622853
v 85.193673 -23.825051 10.231050
v 84.801823 -23.727537 10.909755
v 85.037055 -23.812500 12.023569
v 84.969185 -23.781698 12.007541
v 85.746916 -23.812500 13.253084
v 85.894223 -23.727537 13.609755
v 85.680471 -23.793514 13.239525
v 86.314946 -23.812500 13.688949
v 86.544196 -23.718037 14.013708
v 86.127446 -23.625000 14.013708
v 86.976431 -23.812500 13.962945
v 86.928615 -23.781698 14.013708
v 88.396152 -23.812500 13.962945
v 88.351187 -23.793514 14.013708
v 88.778691 -23.727537 14.013708
v 89.057637 -23.812500 13.688949
v 89.453513 -23.718037 13.652792
v 89.245137 -23.625000 14.013708
v 89.625667 -23.812500 13.253084
v 89.645722 -23.781698 13.319876
v 90.335528 -23.812500 12.023569
v 90.357008 -23.793514 12.087892
v 90.570760 -23.727537 11.717662
v 90.428983 -23.812500 11.313708
v 90.803983 -23.625000 11.313708
v 90.595608 -23.718037 10.952792
v 90.335528 -23.812500 10.603848
v 90.403398 -23.781698 10.619876
v 89.625667 -23.812500 9.374333
v 89.692112 -23.793514 9.387892
v 89.478360 -23.727537 9.017662
v 89.057637 -23.812500 8.938468
v 88.828387 -23.718037 8.613708
v 89.245137 -23.625000 8.613708
v 88.396152 -23.812500 8.664472
v 88.443968 -23.781698 8.613708
v 86.976431 -23.812500 8.664472
v 86.593892 -23.727537 8.613708
v 87.021396 -23.793514 8.613708
v 86.314946 -23.812500 8.938468
v 85.919070 -23.718037 8.974625
v 86.127446 -23.625000 8.613708
v 85.746916 -23.812500 9.374333
v 85.726861 -23.781698 9.307541
v 85.037055 -23.812500 10.603848
v 85.015575 -23.793514 10.539525
v 84.776975 -21.481963 11.674625
v 84.568600 -21.575000 11.313708
v 84.969185 -21.418302 12.007541
v 85.151230 -21.380422 12.322853
v 85.328164 -21.366300 12.629313
v 85.502373 -21.374949 12.931050
v 85.680471 -21.406486 13.239525
v 85.894223 -21.472463 13.609755
v 86.127446 -21.575000 14.013708
v 85.919070 -21.481963 8.974625
v 86.127446 -21.575000 8.613708
v 85.726861 -21.418302 9.307541
v 85.544816 -21.380422 9.622853
v 85.367881 -21.366300 9.929313
v 85.193673 -21.374949 10.231050
v 85.015575 -21.406486 10.539525
v 84.801823 -21.472463 10.909755
v 88.828387 -21.481963 8.613708
v 89.245137 -21.575000 8.613708
v 88.443968 -21.418302 8.613708
v 88.079878 -21.380422 8.613708
v 87.726008 -21.366300 8.613708
v 87.377592 -21.374949 8.613708
v 87.021396 -21.406486 8.613708
v 86.593892 -21.472463 8.613708
v 90.595608 -21.481963 10.952792
v 90.803983 -21.575000 11.313708
v 90.403398 -21.418302 10.619876
v 90.221353 -21.380422 10.304564
v 90.044419 -21.366300 9.998104
v 89.870210 -21.374949 9.696367
v 89.692112 -21.406486 9.387892
v 89.478360 -21.472463 9.017662
v 89.453513 -21.481963 13.652792
v 89.245137 -21.575000 14.013708
v 89.645722 -21.418302 13.319876
v 89.827767 -21.380422 13.004564
v 90.004702 -21.366300 12.698104
v 90.178910 -21.374949 12.396367
v 90.357008 -21.406486 12.087892
v 90.570760 -21.472463 11.717662
v 86.544196 -21.481963 14.013708
v 86.928615 -21.418302 14.013708
v 87.292705 -21.380422 14.013708
v 87.646575 -21.366300 14.013708
v 87.994991 -21.374949 14.013708
v 88.351187 -21.406486 14.013708
v 88.778691 -21.472463 14.013708
v 90.285372 -21.341154 11.830698
v 90.134572 -21.341154 12.327820
v 89.889686 -21.341154 12.785970
v 89.560124 -21.341154 13.187541
v 89.158553 -21.341154 13.517103
v 88.700403 -21.341154 13.761989
v 88.203281 -21.341154 13.912789
v 87.686292 -21.341154 13.963708
v 87.169302 -21.341154 13.912789
v 86.672180 -21.341154 13.761989
v 85.812459 -21.341154 13.187541
v 86.214030 -21.341154 13.517103
v 85.482897 -21.341154 12.785970
v 85.238011 -21.341154 12.327820
v 85.087211 -21.341154 11.830698
v 85.238011 -21.341154 10.299597
v 85.087211 -21.341154 10.796719
v 85.482897 -21.341154 9.841447
v 85.812459 -21.341154 9.439876
v 86.214030 -21.341154 9.110314
v 86.672180 -21.341154 8.865428
v 87.169302 -21.341154 8.714628
v 87.686292 -21.341154 8.663708
v 88.203281 -21.341154 8.714628
v 88.700403 -21.341154 8.865428
v 89.560124 -21.341154 9.439876
v 89.889686 -21.341154 9.841447
v 90.134572 -21.341154 10.299597
v 90.285372 -21.341154 10.796719
v 90.555807 -21.458077 11.600847
v 90.570137 -21.458077 11.313708
v 90.336292 -21.341154 11.313708
v 89.250911 -21.458077 13.736214
v 89.001933 -21.458077 13.879962
v 86.500203 -21.458077 13.942351
v 86.244369 -21.458077 13.811192
v 86.002865 -21.458077 13.655212
v 84.806031 -21.458077 11.457456
v 85.036292 -21.341154 11.313708
v 84.806031 -21.458077 11.169961
v 84.834656 -21.458077 10.883894
v 86.002865 -21.458077 8.972205
v 86.244369 -21.458077 8.816225
v 86.500203 -21.458077 8.685066
v 89.001933 -21.458077 8.747455
v 89.158553 -21.341154 9.110314
v 89.250911 -21.458077 8.891203
v 89.484340 -21.458077 9.059027
v 90.555807 -21.458077 11.026570
v 87.686292 -20.400000 8.663708
v 87.153328 -20.400000 8.717856
v 86.642144 -20.400000 8.878086
v 86.173631 -20.400000 9.137851
v 85.766934 -20.400000 9.486534
v 85.438674 -20.400000 9.909887
v 85.202265 -20.400000 10.390609
v 85.067369 -20.400000 10.909054
v 85.039498 -20.400000 11.444036
v 85.119792 -20.400000 11.973692
v 85.304968 -20.400000 12.476377
v 85.587460 -20.400000 12.931548
v 85.955723 -20.400000 13.320605
v 86.394707 -20.400000 13.627647
v 86.886474 -20.400000 13.840127
v 87.410926 -20.400000 13.949363
v 87.946631 -20.400000 13.950889
v 88.471698 -20.400000 13.844645
v 88.964667 -20.400000 13.634970
v 89.405395 -20.400000 13.330435
v 89.775869 -20.400000 12.943483
v 90.060950 -20.400000 12.489930
v 90.248988 -20.400000 11.988308
v 90.332299 -20.400000 11.459118
v 90.307478 -20.400000 10.923986
v 90.175538 -20.400000 10.404781
v 89.941873 -20.400000 9.922719
v 89.616031 -20.400000 9.497503
v 89.211328 -20.400000 9.146507
v 88.744303 -20.400000 8.884076
v 88.234041 -20.400000 8.720936
v 87.701394 -20.400000 8.663752
v 87.696360 -20.400000 8.663728
v 87.691326 -20.400000 8.663713
v 87.701366 -20.355496 8.668766
v 87.701281 -20.313223 8.683557
v 87.700254 -20.200000 8.863748
v 88.209325 -20.200000 8.920189
v 87.700508 -20.205014 8.819245
v 87.154336 -20.355496 8.722768
v 87.157311 -20.313223 8.737258
v 87.162103 -20.275302 8.760598
v 87.701145 -20.275302 8.707385
v 87.168472 -20.243634 8.791620
v 87.700965 -20.243634 8.739052
v 87.176099 -20.219806 8.828766
v 87.700749 -20.219806 8.776973
v 87.184601 -20.205014 8.870175
v 87.190574 -20.200000 8.914383
v 86.644120 -20.355496 8.882695
v 86.649948 -20.313223 8.896290
v 86.659336 -20.275302 8.918190
v 86.671814 -20.243634 8.947297
v 86.686756 -20.219806 8.982150
v 86.703412 -20.205014 9.021003
v 86.702559 -20.200000 9.069879
v 86.176493 -20.355496 9.141968
v 86.184936 -20.313223 9.154113
v 86.198537 -20.275302 9.173677
v 86.216614 -20.243634 9.199680
v 86.238260 -20.219806 9.230816
v 86.257537 -20.200000 9.323442
v 86.262390 -20.205014 9.265525
v 85.770566 -20.355496 9.489992
v 85.781279 -20.313223 9.500191
v 85.798537 -20.275302 9.516620
v 85.821474 -20.243634 9.538455
v 85.874959 -20.200000 9.663989
v 85.848940 -20.219806 9.564602
v 85.879557 -20.205014 9.593749
v 85.442927 -20.355496 9.912544
v 85.455472 -20.313223 9.920379
v 85.475682 -20.275302 9.933002
v 85.502542 -20.243634 9.949778
v 85.571545 -20.200000 10.076636
v 85.534705 -20.219806 9.969867
v 85.570559 -20.205014 9.992260
v 85.206965 -20.355496 10.392356
v 85.220831 -20.313223 10.397508
v 85.243166 -20.275302 10.405808
v 85.272851 -20.243634 10.416840
v 85.360556 -20.200000 10.543350
v 85.308397 -20.219806 10.430049
v 85.348022 -20.205014 10.444774
v 85.072325 -20.355496 10.909820
v 85.086943 -20.313223 10.912079
v 85.110491 -20.275302 10.915717
v 85.251212 -20.200000 11.043732
v 85.141788 -20.243634 10.920553
v 85.179264 -20.219806 10.926343
v 85.221041 -20.205014 10.932798
v 85.044507 -20.355496 11.443790
v 85.059280 -20.313223 11.443062
v 85.083079 -20.275302 11.441890
v 85.248293 -20.200000 11.555913
v 85.114709 -20.243634 11.440333
v 85.152584 -20.219806 11.438468
v 85.194806 -20.205014 11.436389
v 85.124648 -20.355496 11.972443
v 85.138974 -20.313223 11.968759
v 85.162050 -20.275302 11.962825
v 85.192721 -20.243634 11.954938
v 85.166143 -20.355496 12.116704
v 85.229447 -20.219806 11.945494
v 85.180237 -20.313223 12.112214
v 85.270388 -20.205014 11.934966
v 85.351926 -20.200000 12.057508
v 85.202940 -20.275302 12.104980
v 85.233114 -20.243634 12.095366
v 85.269245 -20.219806 12.083853
v 85.309522 -20.205014 12.071020
v 85.309474 -20.355496 12.474177
v 85.322766 -20.313223 12.467687
v 85.344178 -20.275302 12.457233
v 85.372635 -20.243634 12.443339
v 85.388167 -20.355496 12.623125
v 85.406712 -20.219806 12.426701
v 85.401019 -20.313223 12.615803
v 85.444698 -20.205014 12.408154
v 85.557582 -20.200000 12.526596
v 85.421722 -20.275302 12.604007
v 85.449237 -20.243634 12.588329
v 85.482185 -20.219806 12.569556
v 85.518914 -20.205014 12.548629
v 85.591431 -20.355496 12.928487
v 85.603147 -20.313223 12.919456
v 85.622018 -20.275302 12.904910
v 85.647100 -20.243634 12.885576
v 85.677134 -20.219806 12.862425
v 85.710630 -20.355496 13.072318
v 85.710614 -20.205014 12.836617
v 85.856273 -20.200000 12.942675
v 85.721678 -20.313223 13.062484
v 85.739476 -20.275302 13.046641
v 85.763131 -20.243634 13.025585
v 85.791456 -20.219806 13.000372
v 85.823031 -20.205014 12.972266
v 85.958997 -20.355496 13.316807
v 85.968657 -20.313223 13.305605
v 85.984218 -20.275302 13.287560
v 86.004898 -20.243634 13.263577
v 86.029663 -20.219806 13.234858
v 86.119438 -20.355496 13.444652
v 86.057269 -20.205014 13.202845
v 86.234945 -20.200000 13.287561
v 86.128201 -20.313223 13.432735
v 86.142316 -20.275302 13.413538
v 86.161076 -20.243634 13.388024
v 86.183540 -20.219806 13.357473
v 86.208581 -20.205014 13.323416
v 86.397151 -20.355496 13.623268
v 86.404361 -20.313223 13.610352
v 86.415974 -20.275302 13.589547
v 86.431409 -20.243634 13.561894
v 86.449891 -20.219806 13.528782
v 86.596726 -20.355496 13.723853
v 86.470495 -20.205014 13.491870
v 86.677047 -20.200000 13.546179
v 86.602819 -20.313223 13.710374
v 86.612634 -20.275302 13.688662
v 86.625680 -20.243634 13.659806
v 86.641301 -20.219806 13.625251
v 86.658714 -20.205014 13.586732
v 86.887988 -20.355496 13.835347
v 86.892452 -20.313223 13.821245
v 86.899644 -20.275302 13.798528
v 86.909202 -20.243634 13.768337
v 86.920647 -20.219806 13.732184
v 86.933406 -20.205014 13.691883
v 87.163258 -20.200000 13.707228
v 87.121632 -20.355496 13.897719
v 87.124790 -20.313223 13.883268
v 87.129877 -20.275302 13.859990
v 87.136638 -20.243634 13.829051
v 87.144733 -20.219806 13.792004
v 87.153758 -20.205014 13.750706
v 87.411447 -20.355496 13.944376
v 87.412984 -20.313223 13.929664
v 87.415460 -20.275302 13.905965
v 87.418751 -20.243634 13.874468
v 87.422691 -20.219806 13.836753
v 87.427084 -20.205014 13.794709
v 87.672329 -20.200000 13.763669
v 87.671217 -20.355496 13.958651
v 87.671302 -20.313223 13.943860
v 87.671438 -20.275302 13.920032
v 87.671618 -20.243634 13.888365
v 87.671834 -20.219806 13.850444
v 87.672075 -20.205014 13.808172
v 87.946139 -20.355496 13.945899
v 87.944686 -20.313223 13.931179
v 87.942345 -20.275302 13.907467
v 87.939234 -20.243634 13.875952
v 87.935508 -20.219806 13.838214
v 87.931355 -20.205014 13.796146
v 88.182009 -20.200000 13.713034
v 88.221461 -20.355496 13.903987
v 88.218468 -20.313223 13.889501
v 88.213647 -20.275302 13.866166
v 88.207240 -20.243634 13.835153
v 88.199567 -20.219806 13.798016
v 88.191014 -20.205014 13.756618
v 88.470211 -20.355496 13.839855
v 88.465827 -20.313223 13.825728
v 88.458765 -20.275302 13.802971
v 88.449380 -20.243634 13.772726
v 88.438141 -20.219806 13.736508
v 88.425612 -20.205014 13.696135
v 88.670024 -20.200000 13.557538
v 88.748316 -20.355496 13.736115
v 88.742377 -20.313223 13.722568
v 88.732809 -20.275302 13.700746
v 88.720094 -20.243634 13.671742
v 88.704867 -20.219806 13.637012
v 88.687894 -20.205014 13.598297
v 88.962248 -20.355496 13.630578
v 88.955113 -20.313223 13.617621
v 88.943618 -20.275302 13.596749
v 88.928341 -20.243634 13.569009
v 88.910048 -20.219806 13.535792
v 88.889655 -20.205014 13.498764
v 89.115046 -20.200000 13.303975
v 89.228755 -20.355496 13.462372
v 89.220129 -20.313223 13.450356
v 89.206233 -20.275302 13.431000
v 89.187765 -20.243634 13.405274
v 89.165651 -20.219806 13.374468
v 89.402142 -20.355496 13.326619
v 89.140999 -20.205014 13.340128
v 89.392546 -20.313223 13.315362
v 89.377089 -20.275302 13.297228
v 89.356545 -20.243634 13.273128
v 89.331945 -20.219806 13.244269
v 89.304522 -20.205014 13.212098
v 89.497624 -20.200000 12.963428
v 89.641780 -20.355496 13.094723
v 89.630845 -20.313223 13.084763
v 89.613228 -20.275302 13.068718
v 89.589815 -20.243634 13.047394
v 89.561780 -20.219806 13.021860
v 89.771915 -20.355496 12.940400
v 89.530527 -20.205014 12.993395
v 89.760251 -20.313223 12.931302
v 89.741463 -20.275302 12.916648
v 89.716492 -20.243634 12.897172
v 89.686590 -20.219806 12.873850
v 89.653257 -20.205014 12.847852
v 89.801038 -20.200000 12.550781
v 89.969342 -20.355496 12.649234
v 89.956574 -20.313223 12.641766
v 89.936007 -20.275302 12.629734
v 89.908672 -20.243634 12.613744
v 90.056457 -20.355496 12.487704
v 89.875940 -20.219806 12.594597
v 90.043202 -20.313223 12.481138
v 89.839452 -20.205014 12.573252
v 90.021850 -20.275302 12.470562
v 89.993472 -20.243634 12.456506
v 89.959491 -20.219806 12.439675
v 89.921611 -20.205014 12.420912
v 90.012027 -20.200000 12.084067
v 90.197123 -20.355496 12.145377
v 90.183082 -20.313223 12.140726
v 90.160463 -20.275302 12.133234
v 90.130401 -20.243634 12.123276
v 90.244139 -20.355496 11.987032
v 90.094403 -20.219806 12.111353
v 90.229835 -20.313223 11.983266
v 90.054274 -20.205014 12.098061
v 90.206792 -20.275302 11.977200
v 90.176167 -20.243634 11.969139
v 90.139495 -20.219806 11.959485
v 90.098615 -20.205014 11.948724
v 90.121371 -20.200000 11.583685
v 90.315169 -20.355496 11.605172
v 90.300467 -20.313223 11.603542
v 90.276785 -20.275302 11.600916
v 90.245310 -20.243634 11.597426
v 90.327292 -20.355496 11.458843
v 90.207619 -20.219806 11.593248
v 90.312523 -20.313223 11.458032
v 90.165604 -20.205014 11.588589
v 90.288731 -20.275302 11.456724
v 90.257110 -20.243634 11.454986
v 90.219246 -20.219806 11.452906
v 90.177038 -20.205014 11.450586
v 90.124290 -20.200000 11.071504
v 90.318321 -20.355496 11.052228
v 90.303601 -20.313223 11.053690
v 90.279890 -20.275302 11.056046
v 90.248377 -20.243634 11.059177
v 90.210642 -20.219806 11.062926
v 90.168576 -20.205014 11.067105
v 90.192346 -20.313223 10.515203
v 90.169643 -20.275302 10.522437
v 90.139469 -20.243634 10.532051
v 90.103338 -20.219806 10.543564
v 90.063061 -20.205014 10.556397
v 90.020657 -20.200000 10.569909
v 89.971564 -20.313223 10.011614
v 89.950861 -20.275302 10.023410
v 89.923346 -20.243634 10.039088
v 89.890398 -20.219806 10.057861
v 89.853669 -20.205014 10.078788
v 89.815001 -20.200000 10.100821
v 89.650905 -20.313223 9.564933
v 89.633107 -20.275302 9.580776
v 89.609452 -20.243634 9.601832
v 89.581127 -20.219806 9.627045
v 89.549552 -20.205014 9.655151
v 89.516310 -20.200000 9.684742
v 89.244382 -20.313223 9.194682
v 89.230267 -20.275302 9.213879
v 89.211507 -20.243634 9.239393
v 89.189043 -20.219806 9.269944
v 89.164002 -20.205014 9.304001
v 89.137638 -20.200000 9.339856
v 88.775857 -20.355496 8.903564
v 88.769764 -20.313223 8.917043
v 88.759949 -20.275302 8.938755
v 88.746903 -20.243634 8.967611
v 88.731282 -20.219806 9.002166
v 88.713869 -20.205014 9.040685
v 88.695536 -20.200000 9.081238
v 88.250951 -20.355496 8.729698
v 88.247793 -20.313223 8.744149
v 88.242706 -20.275302 8.767427
v 88.235945 -20.243634 8.798366
v 88.227850 -20.219806 8.835413
v 88.218825 -20.205014 8.876711
v 86.229672 -20.200000 9.598844
v 85.895082 -20.200000 9.952067
v 86.632373 -20.200000 9.325806
v 85.644247 -20.200000 10.368958
v 87.084353 -20.200000 9.145721
v 85.488895 -20.200000 10.830025
v 87.564479 -20.200000 9.067008
v 85.436292 -20.200000 11.313708
v 88.050301 -20.200000 9.093349
v 85.488895 -20.200000 11.797392
v 88.519102 -20.200000 9.223511
v 85.644247 -20.200000 12.258459
v 88.948962 -20.200000 9.451408
v 85.895082 -20.200000 12.675350
v 89.319781 -20.200000 9.766385
v 86.229672 -20.200000 13.028573
v 89.614220 -20.200000 10.153712
v 86.632373 -20.200000 13.301611
v 89.818511 -20.200000 10.595280
v 87.084353 -20.200000 13.481696
v 89.923102 -20.200000 11.070441
v 87.564479 -20.200000 13.560409
v 89.923102 -20.200000 11.556976
v 88.050301 -20.200000 13.534068
v 88.519102 -20.200000 13.403906
v 89.818511 -20.200000 12.032137
v 88.948962 -20.200000 13.176009
v 89.614220 -20.200000 12.473705
v 89.319781 -20.200000 12.861032
v 85.436292 -20.300000 11.313708
v 85.488895 -20.300000 11.797392
v 85.644247 -20.300000 12.258459
v 85.895082 -20.300000 12.675350
v 86.229672 -20.300000 13.028573
v 86.632373 -20.300000 13.301611
v 87.084353 -20.300000 13.481696
v 87.564479 -20.300000 13.560409
v 88.050301 -20.300000 13.534068
v 88.519102 -20.300000 13.403906
v 88.948962 -20.300000 13.176009
v 89.319781 -20.300000 12.861032
v 89.614220 -20.300000 12.473705
v 89.818511 -20.300000 12.032137
v 89.923102 -20.300000 11.556976
v 89.923102 -20.300000 11.070441
v 89.818511 -20.300000 10.595280
v 89.614220 -20.300000 10.153712
v 89.319781 -20.300000 9.766385
v 88.948962 -20.300000 9.451408
v 88.519102 -20.300000 9.223511
v 88.050301 -20.300000 9.093349
v 87.564479 -20.300000 9.067008
v 87.084353 -20.300000 9.145721
v 86.632373 -20.300000 9.325806
v 86.229672 -20.300000 9.598844
v 85.895082 -20.300000 9.952067
v 85.644247 -20.300000 10.368958
v 85.488895 -20.300000 10.830025
v 86.788079 -20.300000 12.109456
v 87.004614 -20.300000 12.301289
v 86.623744 -20.300000 11.871376
v 87.260766 -20.300000 12.435728
v 86.521161 -20.300000 11.600887
v 87.541647 -20.300000 12.504959
v 86.486292 -20.300000 11.313708
v 87.830936 -20.300000 12.504959
v 86.521161 -20.300000 11.026530
v 88.111817 -20.300000 12.435728
v 86.623744 -20.300000 10.756041
v 88.367969 -20.300000 12.301289
v 86.788079 -20.300000 10.517961
v 88.584504 -20.300000 12.109456
v 87.004614 -20.300000 10.326128
v 88.748839 -20.300000 11.871376
v 87.260766 -20.300000 10.191689
v 88.851422 -20.300000 11.600887
v 87.541647 -20.300000 10.122458
v 88.886292 -20.300000 11.313708
v 87.830936 -20.300000 10.122458
v 88.851422 -20.300000 11.026530
v 88.111817 -20.300000 10.191689
v 88.748839 -20.300000 10.756041
v 88.367969 -20.300000 10.326128
v 88.584504 -20.300000 10.517961
v 88.886292 -21.300000 11.313708
v 88.851422 -21.300000 11.026530
v 88.748839 -21.300000 10.756041
v 88.584504 -21.300000 10.517961
v 88.367969 -21.300000 10.326128
v 88.111817 -21.300000 10.191689
v 87.830936 -21.300000 10.122458
v 87.541647 -21.300000 10.122458
v 87.260766 -21.300000 10.191689
v 87.004614 -21.300000 10.326128
v 86.788079 -21.300000 10.517961
v 86.623744 -21.300000 10.756041
v 86.521161 -21.300000 11.026530
v 86.486292 -21.300000 11.313708
v 86.521161 -21.300000 11.600887
v 86.623744 -21.300000 11.871376
v 86.788079 -21.300000 12.109456
v 87.004614 -21.300000 12.301289
v 87.260766 -21.300000 12.435728
v 87.541647 -21.300000 12.504959
v 87.830936 -21.300000 12.504959
v 88.111817 -21.300000 12.435728
v 88.367969 -21.300000 12.301289
v 88.584504 -21.300000 12.109456
v 88.748839 -21.300000 11.871376
v 88.851422 -21.300000 11.600887
v 88.832320 -21.300000 10.519763
v 88.597142 -21.300000 10.305777
v 88.319565 -21.300000 10.153207
v 89.020743 -21.300000 10.797259
v 88.029531 -21.300000 10.073911
v 89.101691 -21.300000 10.986017
v 89.172161 -21.300000 11.293103
v 89.182077 -21.300000 11.498854
v 89.153390 -21.300000 11.762313
v 89.079280 -21.300000 12.017382
v 88.962418 -21.300000 12.256805
v 88.807377 -21.300000 12.472665
v 86.731108 -21.300000 10.464877
v 88.620024 -21.300000 12.659059
v 86.572797 -21.300000 10.632143
v 86.471092 -21.300000 10.781416
v 88.416775 -21.300000 12.805549
v 88.311953 -21.300000 12.864455
v 88.206453 -21.300000 12.914186
v 86.348291 -21.300000 11.061317
v 86.300823 -21.300000 11.272325
v 87.821175 -21.300000 12.955047
v 86.292673 -21.300000 11.591522
v 87.439026 -21.300000 12.904843
v 86.336392 -21.300000 11.837998
v 86.423256 -21.300000 12.075360
v 87.078826 -21.300000 12.764248
v 86.580582 -21.300000 12.336499
v 86.793062 -21.300000 12.565935
v 86.447371 -23.456824 11.479769
v 86.472124 -23.384756 11.610854
v 86.480379 -23.444920 11.642759
v 86.577854 -23.363200 11.891519
v 86.593575 -23.423377 11.920727
v 86.747328 -23.341695 12.138843
v 86.769871 -23.401799 12.163810
v 86.970513 -23.320199 12.338482
v 86.999037 -23.380269 12.357826
v 87.235491 -23.298623 12.479590
v 87.267830 -23.358703 12.491584
v 87.526441 -23.277093 12.553446
v 87.560766 -23.337133 12.557390
v 87.826607 -23.255546 12.555808
v 87.860977 -23.315604 12.551442
v 88.118709 -23.233968 12.486532
v 88.151089 -23.294032 12.474080
v 88.385873 -23.212441 12.349607
v 88.413608 -23.272533 12.330326
v 88.612664 -23.190886 12.152955
v 88.634931 -23.251017 12.127701
v 88.786030 -23.169317 11.907910
v 88.801455 -23.229478 11.878429
v 88.895986 -23.147787 11.628572
v 88.903805 -23.207961 11.596837
v 88.936171 -23.126228 11.331064
v 88.936197 -23.186429 11.298335
v 88.904474 -23.104733 11.033474
v 88.896478 -23.164861 11.000740
v 88.802636 -23.083211 10.751324
v 88.786934 -23.143292 10.721184
v 88.636363 -23.061657 10.501388
v 88.613867 -23.121763 10.475793
v 88.415268 -23.040084 10.298281
v 88.387296 -23.100188 10.278772
v 88.152151 -23.018559 10.153762
v 88.120297 -23.078627 10.141472
v 87.862189 -22.997002 10.076146
v 87.828247 -23.057096 10.071795
v 87.562075 -22.975432 10.069896
v 87.527969 -23.035520 10.073775
v 87.269088 -22.953905 10.135387
v 87.236885 -23.013963 10.147289
v 87.000180 -22.932340 10.268840
v 86.972510 -22.992492 10.287543
v 86.770973 -22.910799 10.462421
v 86.748500 -22.970937 10.487242
v 86.594883 -22.889330 10.704342
v 86.578461 -22.949371 10.734733
v 86.481228 -22.867804 10.981564
v 86.472350 -22.927838 11.015640
v 86.447611 -22.855791 11.145870
v 89.323676 -23.979111 10.924414
v 89.181257 -23.957284 10.540823
v 88.688492 -23.916485 9.961626
v 88.974040 -23.937378 10.230109
v 88.744490 -22.392274 12.622380
v 88.551132 -22.404810 12.757450
v 86.050647 -22.009957 11.710025
v 86.104831 -21.999969 11.889313
v 89.165400 -23.891690 10.889581
v 88.918389 -23.859190 10.391981
v 88.433427 -23.743347 10.136411
v 88.510777 -23.826690 10.014528
v 88.358418 -23.896168 9.770786
v 87.738056 -23.862147 9.631546
v 87.966667 -23.710847 9.947828
v 87.995693 -23.794190 9.806421
v 87.987689 -23.875495 9.657907
v 87.118694 -23.828593 9.729364
v 87.463359 -23.678347 9.937285
v 87.440280 -23.761690 9.794786
v 87.365456 -23.842207 9.661567
v 86.989111 -23.645847 10.106157
v 86.916934 -23.729190 9.981142
v 86.788390 -23.809001 9.890242
v 86.586993 -23.795659 10.039402
v 86.605740 -23.613347 10.432432
v 86.222798 -23.764980 10.482765
v 86.493872 -23.696690 10.341195
v 86.353820 -23.777593 10.285593
v 86.363216 -23.580847 10.873580
v 86.226241 -23.664190 10.828014
v 86.105273 -23.750074 10.736797
v 86.031472 -23.735139 11.007328
v 86.293154 -23.548347 11.372098
v 86.022568 -23.705206 11.567344
v 86.148925 -23.631690 11.378143
v 86.003539 -23.720152 11.287365
v 86.404686 -23.515847 11.863006
v 86.272003 -23.599190 11.919873
v 86.088138 -23.690208 11.841220
v 86.197730 -23.675294 12.098933
v 86.348737 -23.660364 12.335120
v 86.721766 -23.632758 12.692833
v 86.683273 -23.483347 12.282313
v 86.579432 -23.566690 12.382590
v 86.528059 -23.646059 12.534768
v 87.092602 -23.450847 12.575364
v 87.031138 -23.534190 12.705980
v 86.920593 -23.620402 12.812440
v 87.181393 -23.605382 12.919149
v 87.579318 -23.418347 12.703959
v 87.568243 -23.501690 12.847889
v 87.454396 -23.590499 12.980644
v 87.703657 -23.577179 12.996623
v 87.999526 -23.561361 12.967268
v 88.079977 -23.385847 12.651338
v 88.120735 -23.469190 12.789820
v 88.280572 -23.545804 12.888325
v 88.522874 -23.531541 12.774030
v 88.898155 -23.506146 12.481565
v 88.529321 -23.353347 12.424358
v 88.616598 -23.436690 12.539342
v 88.726395 -23.518482 12.636866
v 88.868776 -23.320847 12.052607
v 88.991196 -23.404190 12.129104
v 89.082067 -23.490577 12.254092
v 89.233052 -23.473765 11.976968
v 89.054097 -23.288347 11.584541
v 89.368786 -23.439628 11.353477
v 89.195703 -23.371690 11.612580
v 89.329673 -23.456966 11.676783
v 89.061125 -23.255847 11.081173
v 89.203459 -23.339190 11.057099
v 89.277351 -23.407789 10.765103
v 89.339971 -23.420762 11.000873
v 88.888946 -23.223347 10.608115
v 89.013455 -23.306690 10.535066
v 89.145435 -23.390801 10.474970
v 89.008403 -23.377784 10.272387
v 88.560003 -23.190847 10.227030
v 88.650457 -23.274190 10.114529
v 88.802202 -23.361788 10.053835
v 88.611682 -23.348995 9.907996
v 88.365252 -23.334072 9.773772
v 88.117173 -23.158347 9.987593
v 87.816559 -23.303822 9.635815
v 88.161781 -23.241690 9.850303
v 88.066111 -23.317256 9.674157
v 87.618177 -23.125847 9.921013
v 87.611126 -23.209190 9.776830
v 87.538193 -23.288995 9.637257
v 87.306620 -23.276503 9.674159
v 86.725407 -23.242473 9.932053
v 87.128061 -23.093347 10.035969
v 87.070268 -23.176690 9.903687
v 87.021297 -23.260509 9.767684
v 86.710709 -23.060847 10.317476
v 86.260930 -23.206436 10.418911
v 86.609709 -23.144190 10.214338
v 86.468569 -23.224455 10.152012
v 86.420523 -23.028347 10.728841
v 86.032466 -23.172930 11.001952
v 86.289480 -23.111690 10.668291
v 86.115642 -23.189135 10.709112
v 86.295328 -22.995847 11.216443
v 86.151324 -23.079190 11.206373
v 86.018888 -23.144067 11.541928
v 86.003556 -23.157875 11.282833
v 86.169184 -23.116150 12.042231
v 86.351443 -22.963347 11.716723
v 86.213249 -23.046690 11.758446
v 86.067554 -23.131420 11.774371
v 86.581554 -22.930847 12.164471
v 86.467183 -23.014190 12.252548
v 86.312000 -23.101160 12.285212
v 86.473018 -23.087681 12.480137
v 86.645730 -23.075292 12.636448
v 86.955666 -22.898347 12.501323
v 86.880026 -22.981690 12.624274
v 87.148465 -23.044734 12.908420
v 86.880851 -23.060291 12.791480
v 87.425014 -22.865847 12.683371
v 87.397965 -22.949190 12.825169
v 87.408873 -23.030449 12.973701
v 87.668958 -23.016547 12.996602
v 87.928420 -22.833347 12.686885
v 87.953487 -22.916690 12.829048
v 87.928995 -23.002670 12.979126
v 88.183224 -22.988791 12.921659
v 88.400264 -22.800847 12.511408
v 88.869399 -22.945848 12.510669
v 88.474180 -22.884190 12.635404
v 88.425697 -22.974904 12.825586
v 88.652280 -22.960897 12.691859
v 88.779043 -22.768347 12.179812
v 88.892173 -22.851690 12.269478
v 89.067168 -22.929478 12.275807
v 89.234067 -22.911154 11.974764
v 89.015383 -22.735847 11.735321
v 89.152981 -22.819190 11.778970
v 89.309884 -22.898859 11.756933
v 89.358091 -22.885333 11.507168
v 89.078478 -22.703347 11.235873
v 89.339170 -22.858053 10.996986
v 89.222608 -22.786690 11.227815
v 89.367667 -22.871062 11.239436
v 88.960103 -22.670847 10.746571
v 89.091978 -22.754190 10.687856
v 89.041374 -22.818174 10.315667
v 89.276568 -22.845161 10.762775
v 89.171435 -22.831158 10.522009
v 88.675689 -22.638347 10.331194
v 88.559561 -22.783216 9.875059
v 88.778119 -22.721690 10.229477
v 88.843588 -22.802263 10.091757
v 88.262308 -22.605847 10.043887
v 88.321942 -22.689190 9.912425
v 88.233105 -22.764000 9.722065
v 87.773844 -22.573347 9.922100
v 87.519915 -22.725510 9.639015
v 87.782908 -22.656690 9.778029
v 87.880258 -22.744716 9.641954
v 87.273968 -22.540847 9.981706
v 86.875153 -22.689350 9.839148
v 87.231281 -22.624190 9.843807
v 87.174132 -22.706679 9.710550
v 86.827838 -22.508347 10.214937
v 86.433252 -22.659174 10.190238
v 86.738964 -22.591690 10.101184
v 86.628255 -22.673497 10.004871
v 86.493605 -22.475847 10.591392
v 86.146613 -22.630937 10.634145
v 86.370129 -22.559190 10.516612
v 86.285616 -22.646355 10.380653
v 86.314838 -22.443347 11.062000
v 86.172855 -22.526690 11.035941
v 86.005089 -22.589627 11.390988
v 86.053734 -22.615721 10.904809
v 86.010716 -22.602164 11.155463
v 86.314838 -22.410847 11.565417
v 86.132050 -22.558497 11.959230
v 86.172855 -22.494190 11.591476
v 86.042424 -22.574398 11.674602
v 86.493605 -22.378347 12.036025
v 86.420342 -22.529348 12.422647
v 86.370129 -22.461690 12.110805
v 86.259342 -22.543717 12.206090
v 86.827838 -22.345847 12.412480
v 86.839343 -22.500344 12.768057
v 86.738964 -22.429190 12.526233
v 86.613752 -22.514983 12.610698
v 87.273968 -22.313347 12.645711
v 87.324428 -22.472529 12.957328
v 87.231281 -22.396690 12.783610
v 87.572647 -22.459192 12.992877
v 87.102986 -22.484815 12.892420
v 87.773844 -22.280847 12.705317
v 87.782908 -22.364190 12.849388
v 87.844507 -22.444697 12.989262
v 88.092933 -22.431296 12.946802
v 88.262308 -22.248347 12.583530
v 88.321942 -22.331690 12.714992
v 88.334424 -22.417749 12.866924
v 88.675689 -22.215847 12.296223
v 88.778119 -22.299190 12.397940
v 88.934613 -22.378320 12.442497
v 89.087946 -22.365018 12.245198
v 88.960103 -22.183347 11.880846
v 89.091978 -22.266690 11.939561
v 89.203867 -22.352541 12.041354
v 89.294996 -22.339191 11.808070
v 89.078478 -22.150847 11.391544
v 89.222608 -22.234190 11.399602
v 89.348894 -22.326441 11.574714
v 89.368970 -22.310841 11.282518
v 89.330266 -22.293195 10.953611
v 89.015383 -22.118347 10.892096
v 89.152981 -22.201690 10.848447
v 89.228332 -22.275605 10.639600
v 88.779043 -22.085847 10.447605
v 88.892173 -22.169190 10.357939
v 89.066553 -22.257966 10.350755
v 88.852695 -22.240427 10.100516
v 88.400264 -22.053347 10.116009
v 88.474180 -22.136690 9.992013
v 88.596749 -22.223038 9.898236
v 88.328993 -22.206943 9.758303
v 87.928420 -22.020847 9.940532
v 87.953487 -22.104190 9.798369
v 88.065781 -22.192232 9.674059
v 87.817085 -22.178816 9.635813
v 87.425014 -21.988347 9.944046
v 87.397965 -22.071690 9.802248
v 87.518927 -22.162958 9.639081
v 87.230660 -22.147311 9.693551
v 86.983408 -22.133294 9.784557
v 86.955666 -21.955847 10.126094
v 86.880026 -22.039190 10.003143
v 86.777834 -22.120825 9.896931
v 86.549977 -22.105502 10.072272
v 86.581554 -21.923347 10.462946
v 86.202468 -22.075236 10.519535
v 86.467183 -22.006690 10.374869
v 86.351164 -22.089852 10.289026
v 86.351443 -21.890847 10.910694
v 86.213249 -21.974190 10.868971
v 86.097049 -22.061273 10.759805
v 86.031901 -22.047768 11.004941
v 86.295328 -21.858347 11.410974
v 86.151324 -21.941690 11.421044
v 86.004299 -22.034288 11.256610
v 86.014185 -22.021039 11.505110
v 86.278935 -21.979326 12.236497
v 86.404934 -21.405639 12.404670
v 86.812574 -21.377006 12.752080
v 86.594977 -21.391343 12.594759
v 87.051347 -21.362816 12.872192
v 87.306871 -21.348549 12.953224
v 87.572423 -21.334181 12.992828
v 87.842018 -21.319852 12.989401
v 88.026113 -21.309988 12.961909
v 86.620629 -21.801867 12.212989
v 86.510283 -21.885228 12.306106
v 86.527378 -21.958656 12.534024
v 86.881073 -21.779117 12.451787
v 86.797695 -21.862478 12.569632
v 86.836717 -21.938058 12.766373
v 87.192952 -21.756367 12.617916
v 87.141868 -21.839728 12.752963
v 87.185329 -21.917687 12.920439
v 87.536694 -21.733617 12.699800
v 87.521203 -21.816978 12.843326
v 87.527208 -21.899182 12.989039
v 87.849457 -21.881926 12.988742
v 87.889989 -21.710867 12.693146
v 87.911081 -21.794228 12.835983
v 88.164351 -21.864892 12.927295
v 88.230128 -21.688117 12.597399
v 88.286441 -21.771478 12.730321
v 88.462515 -21.847763 12.806849
v 88.535532 -21.665367 12.419661
v 88.623469 -21.748728 12.534179
v 88.724387 -21.831109 12.638482
v 88.920228 -21.816966 12.458131
v 88.786085 -21.642617 12.170491
v 88.899965 -21.725978 12.259208
v 89.092266 -21.802160 12.238554
v 88.966392 -21.619867 11.866597
v 89.098942 -21.703228 11.923846
v 89.229684 -21.786699 11.984792
v 89.321280 -21.771426 11.712261
v 89.064018 -21.597117 11.526992
v 89.206678 -21.680478 11.549077
v 89.365217 -21.756172 11.428662
v 89.073648 -21.574367 11.173764
v 89.217304 -21.657728 11.159274
v 89.361401 -21.741334 11.150960
v 89.317383 -21.727770 10.899394
v 88.993669 -21.551617 10.829576
v 89.129044 -21.634978 10.779445
v 89.243777 -21.715306 10.676347
v 89.103219 -21.699002 10.405597
v 88.830187 -21.528867 10.516310
v 88.948634 -21.612228 10.433741
v 88.888953 -21.680710 10.136534
v 88.592821 -21.506117 10.254546
v 88.686690 -21.589478 10.144873
v 88.624588 -21.662353 9.916637
v 88.297555 -21.483367 10.060433
v 88.360849 -21.566728 9.930660
v 88.321472 -21.644033 9.755193
v 87.962807 -21.460617 9.947268
v 87.991440 -21.543978 9.805777
v 87.991956 -21.625802 9.658848
v 87.649617 -21.607423 9.631129
v 87.610398 -21.437867 9.921379
v 87.602540 -21.521228 9.777207
v 87.308236 -21.589155 9.673834
v 87.262891 -21.415117 9.985419
v 87.219049 -21.498478 9.847878
v 86.981768 -21.570740 9.785389
v 86.942427 -21.392367 10.134299
v 86.865402 -21.475728 10.012174
v 86.690430 -21.552678 9.956936
v 86.670009 -21.369617 10.359355
v 86.564776 -21.452978 10.260535
v 86.463580 -21.536616 10.157417
v 86.295949 -21.522371 10.365413
v 86.462501 -21.346867 10.645368
v 86.335782 -21.430228 10.576163
v 86.166143 -21.508448 10.591558
v 86.194015 -21.407478 10.939429
v 86.072819 -21.494633 10.835434
v 86.015395 -21.479551 11.112593
v 86.147563 -21.384728 11.326600
v 86.008136 -21.461990 11.441097
v 86.126866 -21.434288 11.946475
v 86.200497 -21.361978 11.712938
v 86.045996 -21.448646 11.689682
v 86.348328 -21.339228 12.073777
v 86.247595 -21.419894 12.186965
v 86.582575 -21.316478 12.385526
v 86.322688 -22.071443 12.026583
v 86.450611 -22.154783 11.959707
v 86.643991 -22.040568 12.445615
v 86.741771 -22.123908 12.339428
v 87.088040 -22.009693 12.731347
v 87.144164 -22.093033 12.598355
v 87.602544 -21.978818 12.850130
v 87.610401 -22.062158 12.705994
v 88.126910 -21.947943 12.787974
v 88.085575 -22.031283 12.649670
v 88.599386 -21.917068 12.552200
v 88.513727 -22.000408 12.436014
v 88.964331 -21.886193 12.170574
v 88.844435 -21.969533 12.090189
v 89.178766 -21.855318 11.688038
v 89.038754 -21.938658 11.652922
v 89.217439 -21.824443 11.161419
v 89.073798 -21.907783 11.175706
v 89.075794 -21.793568 10.652735
v 88.945442 -21.876908 10.714742
v 88.770514 -21.762693 10.221891
v 88.668800 -21.846033 10.324317
v 88.337549 -21.731818 9.919625
v 88.276452 -21.815158 10.050408
v 87.827887 -21.700943 9.781535
v 87.814604 -21.784283 9.925272
v 87.301551 -21.670068 9.823883
v 87.337645 -21.753408 9.963648
v 86.820524 -21.639193 10.041682
v 86.901744 -21.722533 10.161014
v 86.441455 -21.608318 10.409282
v 86.558237 -21.691658 10.494129
v 86.208986 -21.577443 10.883393
v 86.347575 -21.660783 10.923762
v 86.150492 -21.546568 11.408180
v 86.294569 -21.629908 11.399317
v 86.272864 -21.515693 11.921842
v 86.405461 -21.599033 11.864791
v 86.561689 -21.484818 12.363886
v 86.667191 -21.568158 12.265366
v 86.982954 -21.453943 12.682255
v 87.048936 -21.537283 12.553869
v 87.487048 -21.423068 12.839456
v 87.505740 -21.506408 12.696322
v 88.014607 -21.392193 12.816976
v 87.983807 -21.475533 12.675951
v 88.503501 -21.361318 12.617462
v 88.426836 -21.444658 12.495154
v 88.896155 -21.330443 12.264410
v 88.782655 -21.413783 12.175223
v 89.009359 -21.382908 11.753835
v 89.080251 -21.352033 11.280615
v 88.986982 -21.321158 10.811292
v 89.094114 -23.992029 10.518226
v 88.962066 -23.984042 10.333188
v 88.732807 -23.972600 10.106598
v 88.463114 -23.961128 9.930819
v 88.164916 -23.949599 9.813611
v 87.849017 -23.938005 9.759197
v 87.529756 -23.926341 9.770284
v 87.219196 -23.914562 9.846713
v 86.931187 -23.902739 9.985625
v 86.678395 -23.890771 10.181583
v 86.472218 -23.878742 10.426428
v 86.322524 -23.866577 10.709596
v 86.237057 -23.854385 11.016458
v 86.219323 -23.842109 11.334643
v 86.270390 -23.829759 11.647745
v 86.566784 -23.804813 12.203134
v 86.388207 -23.817326 11.942446
v 87.371933 -23.766686 12.669426
v 86.916930 -23.895805 9.981135
v 86.226234 -23.830805 10.828012
v 86.148918 -23.798305 11.378144
v 86.271996 -23.765805 11.919876
v 86.579427 -23.733305 12.382596
v 86.798225 -23.792214 12.418173
v 87.070825 -23.779520 12.576198
v 87.031135 -23.700805 12.705987
v 87.568242 -23.668305 12.847897
v 88.120737 -23.635805 12.789827
v 88.616602 -23.603305 12.539348
v 88.529328 -23.686646 12.424368
v 88.991203 -23.570805 12.129108
v 88.868787 -23.654146 12.052614
v 89.195710 -23.538305 11.612581
v 89.054109 -23.621646 11.584544
v 89.203467 -23.505805 11.057098
v 89.061138 -23.589146 11.081171
v 89.013461 -23.473305 10.535062
v 88.888957 -23.556646 10.608109
v 88.650461 -23.440805 10.114523
v 88.560011 -23.524146 10.227021
v 88.161783 -23.408305 9.850296
v 88.117176 -23.491646 9.987581
v 87.611125 -23.375805 9.776822
v 87.618177 -23.459146 9.921000
v 87.070265 -23.343305 9.903680
v 87.128056 -23.426646 10.035957
v 86.609703 -23.310805 10.214333
v 86.710700 -23.394146 10.317467
v 86.289473 -23.278305 10.668288
v 86.420511 -23.361646 10.728836
v 86.151316 -23.245805 11.206373
v 86.295315 -23.329146 11.216442
v 86.213242 -23.213305 11.758448
v 86.351431 -23.296646 11.716727
v 86.467177 -23.180805 12.252553
v 86.581544 -23.264146 12.164478
v 86.880022 -23.148305 12.624281
v 86.955660 -23.231646 12.501333
v 87.397963 -23.115805 12.825177
v 87.425012 -23.199146 12.683383
v 87.953488 -23.083305 12.829055
v 87.928422 -23.166646 12.686898
v 88.474184 -23.050805 12.635410
v 88.400270 -23.134146 12.511419
v 88.892179 -23.018305 12.269483
v 88.779052 -23.101646 12.179820
v 89.152988 -22.985805 11.778972
v 89.015395 -23.069146 11.735325
v 89.222616 -22.953305 11.227815
v 89.078490 -23.036646 11.235873
v 89.091985 -22.920805 10.687853
v 88.960114 -23.004146 10.746566
v 88.778125 -22.888305 10.229471
v 88.675698 -22.971646 10.331186
v 88.321945 -22.855805 9.912418
v 88.262313 -22.939146 10.043876
v 87.782909 -22.823305 9.778021
v 87.773845 -22.906646 9.922087
v 87.231279 -22.790805 9.843799
v 87.273964 -22.874146 9.981694
v 86.738959 -22.758305 10.101178
v 86.827830 -22.841646 10.214928
v 86.370122 -22.725805 10.516608
v 86.493595 -22.809146 10.591386
v 86.172847 -22.693305 11.035939
v 86.314826 -22.776646 11.061998
v 86.172847 -22.660805 11.591478
v 86.314826 -22.744146 11.565419
v 86.370122 -22.628305 12.110809
v 86.493595 -22.711646 12.036031
v 86.738959 -22.595805 12.526239
v 86.827830 -22.679146 12.412489
v 87.231279 -22.563305 12.783618
v 87.273964 -22.646646 12.645723
v 87.782909 -22.530805 12.849396
v 87.773845 -22.614146 12.705330
v 88.321945 -22.498305 12.714999
v 88.262313 -22.581646 12.583541
v 88.778125 -22.465805 12.397946
v 88.675698 -22.549146 12.296231
v 89.091985 -22.433305 11.939564
v 88.960114 -22.516646 11.880851
v 89.222616 -22.400805 11.399602
v 89.078490 -22.484146 11.391544
v 89.152988 -22.368305 10.848445
v 89.015395 -22.451646 10.892092
v 88.892179 -22.335805 10.357934
v 88.779052 -22.419146 10.447597
v 88.474184 -22.303305 9.992007
v 88.400270 -22.386646 10.115998
v 87.953488 -22.270805 9.798362
v 87.928422 -22.354146 9.940519
v 87.397963 -22.238305 9.802240
v 87.425012 -22.321646 9.944034
v 86.880022 -22.205805 10.003136
v 86.955660 -22.289146 10.126084
v 86.467177 -22.173305 10.374864
v 86.581544 -22.256646 10.462939
v 86.213242 -22.140805 10.868969
v 86.351431 -22.224146 10.910690
v 86.151316 -22.108305 11.421044
v 86.295315 -22.191646 11.410975
f 1 2 3
f 2 4 3
f 4 5 3
f 4 6 5
f 6 7 5
f 6 8 7
f 8 9 7
f 8 10 9
f 9 11 12
f 10 11 9
f 12 13 14
f 11 13 12
f 13 15 14
f 15 16 14
f 17 18 15
f 15 18 16
f 16 19 20
f 18 19 16
f 20 21 22
f 19 21 20
f 22 23 24
f 21 23 22
f 24 25 26
f 23 25 24
f 26 27 28
f 28 27 29
f 25 27 26
f 27 30 29
f 31 32 33
f 32 34 35
f 31 34 32
f 34 36 35
f 34 37 36
f 37 38 36
f 37 39 38
f 39 40 38
f 39 41 40
f 41 42 40
f 41 43 42
f 43 44 42
f 43 45 44
f 45 46 44
f 45 47 46
f 47 48 46
f 47 49 48
f 49 50 48
f 49 51 50
f 51 52 50
f 51 53 52
f 53 54 52
f 53 55 54
f 55 56 54
f 55 57 56
f 57 58 56
f 57 59 58
f 59 60 58
f 60 61 58
f 60 62 61
f 62 63 61
f 62 64 63
f 64 65 63
f 64 66 65
f 66 67 65
f 66 68 67
f 68 69 67
f 68 70 69
f 70 71 69
f 70 72 71
f 72 73 71
f 72 74 73
f 74 75 73
f 74 76 75
f 76 77 75
f 76 78 77
f 78 79 77
f 80 81 82
f 80 83 81
f 83 84 81
f 83 85 84
f 85 86 84
f 86 87 84
f 86 88 87
f 88 89 87
f 88 90 89
f 90 91 89
f 90 92 91
f 92 93 91
f 92 94 93
f 94 95 93
f 94 96 95
f 96 97 95
f 96 98 97
f 98 99 97
f 98 100 99
f 100 101 99
f 100 102 101
f 102 103 101
f 102 104 103
f 104 105 103
f 104 106 105
f 106 107 105
f 106 108 107
f 108 109 107
f 108 110 109
f 110 111 109
f 110 112 111
f 112 113 111
f 112 114 113
f 114 115 113
f 114 116 115
f 116 117 115
f 116 118 117
f 118 119 117
f 118 120 119
f 120 121 119
f 120 122 121
f 122 123 121
f 122 124 123
f 124 125 123
f 124 126 125
f 126 127 125
f 126 128 127
f 128 129 127
f 128 130 129
f 130 131 129
f 130 132 131
f 132 133 131
f 132 134 133
f 134 33 133
f 134 31 33
f 135 136 137
f 136 138 139
f 135 138 136
f 139 140 141
f 138 140 139
f 141 142 143
f 140 142 141
f 143 144 145
f 142 144 143
f 145 146 147
f 144 146 145
f 147 148 149
f 146 148 147
f 149 150 151
f 148 150 149
f 151 152 153
f 150 152 151
f 153 154 155
f 152 154 153
f 154 156 155
f 155 156 157
f 156 158 157
f 157 158 159
f 158 160 159
f 159 160 161
f 160 162 161
f 161 162 163
f 163 164 165
f 162 164 163
f 165 166 167
f 164 166 165
f 167 168 169
f 166 168 167
f 169 170 171
f 168 170 169
f 171 172 173
f 170 172 171
f 173 174 175
f 172 174 173
f 175 176 177
f 174 176 175
f 177 178 179
f 176 178 177
f 179 180 181
f 178 180 179
f 181 182 183
f 180 182 181
f 183 184 185
f 182 184 183
f 185 186 187
f 184 186 185
f 186 188 187
f 188 82 187
f 188 80 82
f 7 189 5
f 189 3 5
f 189 190 3
f 190 1 3
f 190 191 1
f 191 192 1
f 192 193 194
f 191 193 192
f 194 195 196
f 193 195 194
f 196 197 198
f 195 197 196
f 198 199 200
f 197 199 198
f 200 201 202
f 199 201 200
f 202 203 204
f 201 203 202
f 203 205 204
f 205 206 204
f 205 207 206
f 208 209 210
f 210 209 211
f 212 213 208
f 208 213 209
f 211 214 215
f 209 214 211
f 216 217 212
f 212 217 213
f 215 218 219
f 214 218 215
f 220 221 216
f 216 221 217
f 219 30 222
f 218 30 219
f 223 224 220
f 220 224 221
f 222 27 225
f 30 27 222
f 226 227 223
f 223 227 224
f 225 25 228
f 27 25 225
f 229 230 226
f 226 230 227
f 25 23 228
f 23 231 228
f 229 232 230
f 229 233 232
f 23 21 231
f 21 234 231
f 21 19 234
f 233 235 232
f 232 235 236
f 19 237 234
f 19 18 237
f 235 238 236
f 236 238 239
f 17 240 18
f 240 241 18
f 18 241 237
f 238 242 239
f 239 242 243
f 244 245 240
f 240 245 241
f 243 246 247
f 242 246 243
f 248 249 244
f 244 249 245
f 247 250 251
f 246 250 247
f 252 253 248
f 254 253 252
f 248 253 249
f 250 255 251
f 251 255 256
f 254 257 253
f 256 258 254
f 254 258 257
f 255 258 256
f 216 259 220
f 260 261 259
f 260 259 216
f 262 212 208
f 262 263 212
f 264 262 208
f 265 266 219
f 265 219 222
f 267 265 222
f 268 234 237
f 268 269 234
f 270 268 237
f 271 253 257
f 271 272 253
f 273 271 257
f 274 275 246
f 274 246 242
f 276 274 242
f 277 278 229
f 277 229 226
f 279 277 226
f 259 280 223
f 259 223 220
f 261 280 259
f 281 282 260
f 281 263 282
f 281 216 212
f 281 260 216
f 281 212 263
f 283 264 208
f 283 210 284
f 283 285 264
f 283 284 285
f 283 208 210
f 286 284 210
f 286 287 288
f 286 215 287
f 286 288 284
f 286 210 211
f 286 211 215
f 289 290 287
f 289 266 290
f 289 287 215
f 289 219 266
f 289 215 219
f 291 292 267
f 291 293 292
f 291 267 222
f 291 222 225
f 291 225 293
f 294 295 296
f 294 296 293
f 294 225 228
f 294 228 231
f 294 293 225
f 294 231 295
f 297 298 295
f 297 269 298
f 297 231 234
f 297 295 231
f 297 234 269
f 299 300 270
f 299 301 300
f 299 237 241
f 299 241 301
f 299 270 237
f 302 303 301
f 302 241 245
f 302 245 249
f 302 301 241
f 302 249 304
f 302 304 303
f 305 249 253
f 305 304 249
f 305 253 272
f 305 306 304
f 305 272 306
f 307 257 258
f 307 308 273
f 307 309 308
f 307 273 257
f 307 258 309
f 310 258 255
f 310 255 250
f 310 311 312
f 310 312 309
f 310 309 258
f 310 250 311
f 313 246 275
f 313 250 246
f 313 314 311
f 313 275 314
f 313 311 250
f 315 276 242
f 315 238 316
f 315 242 238
f 315 317 276
f 315 316 317
f 318 316 238
f 318 233 319
f 318 238 235
f 318 235 233
f 318 319 320
f 318 320 316
f 321 319 233
f 321 229 278
f 321 233 229
f 321 322 319
f 321 278 322
f 323 279 226
f 323 223 280
f 323 226 223
f 323 324 279
f 323 280 324
f 325 261 260
f 325 326 261
f 327 260 282
f 327 325 260
f 328 282 263
f 328 327 282
f 329 263 262
f 329 328 263
f 330 262 264
f 330 329 262
f 331 264 285
f 331 330 264
f 332 285 284
f 332 284 288
f 332 331 285
f 333 332 288
f 334 320 319
f 334 335 320
f 336 319 322
f 336 334 319
f 337 322 278
f 337 336 322
f 338 278 277
f 338 337 278
f 339 277 279
f 339 338 277
f 340 279 324
f 340 339 279
f 341 324 280
f 341 280 261
f 341 340 324
f 326 341 261
f 342 312 311
f 342 343 312
f 344 311 314
f 344 342 311
f 345 314 275
f 345 344 314
f 346 275 274
f 346 345 275
f 347 274 276
f 347 346 274
f 348 276 317
f 348 347 276
f 349 317 316
f 349 316 320
f 349 348 317
f 335 349 320
f 350 303 304
f 350 351 303
f 352 304 306
f 352 350 304
f 353 306 272
f 353 352 306
f 354 272 271
f 354 353 272
f 355 271 273
f 355 354 271
f 356 273 308
f 356 355 273
f 357 308 309
f 357 309 312
f 357 356 308
f 343 357 312
f 358 296 295
f 358 359 296
f 360 295 298
f 360 358 295
f 361 298 269
f 361 360 298
f 362 269 268
f 362 361 269
f 363 268 270
f 363 362 268
f 364 270 300
f 364 363 270
f 365 300 301
f 365 301 303
f 365 364 300
f 351 365 303
f 366 288 287
f 366 333 288
f 367 287 290
f 367 366 287
f 368 290 266
f 368 367 290
f 369 266 265
f 369 368 266
f 370 265 267
f 370 369 265
f 371 267 292
f 371 370 267
f 372 292 293
f 372 293 296
f 372 371 292
f 359 372 296
f 364 365 373
f 374 364 373
f 363 364 374
f 362 363 374
f 375 362 374
f 361 362 375
f 376 361 375
f 360 361 376
f 377 360 376
f 358 360 377
f 371 372 378
f 371 378 379
f 370 371 379
f 380 370 379
f 369 370 380
f 368 369 380
f 381 368 380
f 367 368 381
f 382 367 381
f 366 367 382
f 383 332 384
f 331 332 383
f 330 331 383
f 385 330 383
f 329 330 385
f 386 329 385
f 328 329 386
f 327 386 387
f 327 328 386
f 325 327 387
f 388 340 389
f 339 340 388
f 338 339 388
f 390 338 388
f 337 338 390
f 391 337 390
f 336 337 391
f 392 336 391
f 348 393 394
f 348 349 393
f 347 348 394
f 395 347 394
f 346 347 395
f 345 346 395
f 396 345 395
f 344 345 396
f 397 344 396
f 342 344 397
f 355 356 398
f 399 355 398
f 354 355 399
f 400 354 399
f 353 354 400
f 352 353 400
f 352 400 401
f 350 352 401
f 402 365 351
f 402 351 403
f 402 403 404
f 402 404 373
f 402 373 365
f 405 358 377
f 405 359 358
f 406 359 405
f 406 372 359
f 406 378 372
f 406 405 377
f 406 377 378
f 407 333 366
f 407 366 382
f 408 382 384
f 408 407 382
f 408 333 407
f 409 332 333
f 409 384 332
f 409 408 384
f 409 333 408
f 410 326 325
f 410 387 411
f 410 325 387
f 412 410 411
f 412 326 410
f 412 411 389
f 412 341 326
f 413 341 412
f 413 412 389
f 413 389 340
f 413 340 341
f 414 335 334
f 414 334 336
f 414 336 392
f 415 335 414
f 415 392 393
f 415 414 392
f 416 415 393
f 416 335 415
f 416 349 335
f 416 393 349
f 417 342 397
f 417 397 418
f 417 343 342
f 419 343 417
f 419 357 343
f 419 417 418
f 420 419 418
f 420 357 419
f 420 398 356
f 420 418 398
f 420 356 357
f 421 350 401
f 421 401 404
f 421 403 351
f 421 404 403
f 421 351 350
f 422 395 394
f 423 394 393
f 423 422 394
f 424 393 392
f 424 423 393
f 425 392 391
f 425 424 392
f 426 391 390
f 426 425 391
f 427 390 388
f 427 426 390
f 428 388 389
f 428 427 388
f 429 428 389
f 429 389 411
f 430 429 411
f 430 411 387
f 431 430 387
f 431 387 386
f 432 431 386
f 432 386 385
f 433 432 385
f 433 385 383
f 434 433 383
f 434 383 384
f 435 434 384
f 435 384 382
f 436 435 382
f 436 382 381
f 437 436 381
f 437 381 380
f 438 437 380
f 438 380 379
f 439 438 379
f 439 379 378
f 440 439 378
f 440 378 377
f 441 440 377
f 441 377 376
f 442 376 375
f 442 441 376
f 443 375 374
f 443 442 375
f 444 374 373
f 444 443 374
f 445 373 404
f 445 444 373
f 446 404 401
f 446 445 404
f 447 401 400
f 447 446 401
f 448 400 399
f 448 447 400
f 449 399 398
f 449 448 399
f 450 398 418
f 450 449 398
f 451 418 397
f 451 450 418
f 452 397 396
f 452 451 397
f 453 396 395
f 453 452 396
f 454 453 395
f 455 454 395
f 422 455 395
f 456 453 454
f 456 454 455
f 456 455 422
f 457 456 422
f 456 452 453
f 457 452 456
f 458 459 460
f 461 422 423
f 462 422 461
f 462 457 422
f 463 464 457
f 463 457 462
f 465 466 464
f 465 464 463
f 467 468 466
f 467 466 465
f 469 470 458
f 469 458 460
f 469 460 468
f 469 468 467
f 471 461 423
f 471 423 424
f 472 461 471
f 472 462 461
f 473 462 472
f 473 463 462
f 474 463 473
f 474 465 463
f 475 465 474
f 475 467 465
f 476 477 470
f 476 470 469
f 476 469 467
f 476 475 477
f 476 467 475
f 478 424 425
f 478 471 424
f 479 471 478
f 479 472 471
f 480 473 472
f 480 472 479
f 481 474 473
f 481 473 480
f 482 481 483
f 482 477 475
f 482 474 481
f 482 475 474
f 484 483 477
f 484 477 482
f 484 482 483
f 485 478 425
f 485 425 426
f 486 478 485
f 486 479 478
f 487 479 486
f 487 480 479
f 488 487 489
f 488 483 481
f 488 480 487
f 488 481 480
f 490 488 489
f 490 483 488
f 491 489 483
f 491 483 490
f 491 490 489
f 492 426 427
f 492 485 426
f 493 486 485
f 493 485 492
f 494 486 493
f 494 489 487
f 494 487 486
f 495 494 496
f 495 489 494
f 497 489 495
f 497 495 496
f 498 496 489
f 498 497 496
f 498 489 497
f 499 427 428
f 499 492 427
f 500 492 499
f 500 493 492
f 501 496 494
f 501 494 493
f 501 493 500
f 502 501 503
f 502 496 501
f 504 502 503
f 504 496 502
f 505 503 496
f 505 504 503
f 505 496 504
f 506 499 428
f 506 428 429
f 507 499 506
f 507 500 499
f 508 507 509
f 508 503 501
f 508 501 500
f 508 500 507
f 510 508 509
f 510 503 508
f 511 510 509
f 511 503 510
f 512 509 503
f 512 511 509
f 512 503 511
f 513 429 430
f 513 506 429
f 514 507 506
f 514 506 513
f 514 509 507
f 515 514 516
f 515 509 514
f 517 515 516
f 517 509 515
f 518 517 516
f 518 509 517
f 519 516 509
f 519 518 516
f 519 509 518
f 520 430 431
f 520 513 430
f 521 516 514
f 521 514 513
f 521 513 520
f 522 516 521
f 523 516 522
f 524 431 432
f 524 520 431
f 525 516 523
f 526 522 521
f 526 520 524
f 526 521 520
f 527 528 516
f 527 516 525
f 529 523 522
f 529 522 526
f 530 523 529
f 531 523 530
f 531 525 523
f 532 528 527
f 532 527 525
f 532 525 531
f 533 524 432
f 534 524 533
f 534 526 524
f 535 529 526
f 535 526 534
f 536 531 530
f 536 530 529
f 536 529 535
f 537 533 432
f 537 432 433
f 538 531 536
f 539 534 533
f 539 533 537
f 539 535 534
f 540 541 528
f 540 532 531
f 540 528 532
f 540 531 538
f 542 535 539
f 543 536 535
f 543 535 542
f 544 536 543
f 544 538 536
f 545 541 540
f 545 540 538
f 545 538 544
f 546 537 433
f 546 539 537
f 547 539 546
f 548 542 539
f 548 543 542
f 548 539 547
f 549 544 543
f 549 543 548
f 550 545 544
f 550 544 549
f 551 433 434
f 551 546 433
f 552 553 541
f 552 541 545
f 552 545 550
f 554 547 546
f 554 546 551
f 555 548 547
f 555 547 554
f 556 549 548
f 556 548 555
f 557 549 556
f 557 550 549
f 558 553 552
f 558 552 550
f 558 550 557
f 559 551 434
f 560 551 559
f 560 554 551
f 560 555 554
f 561 555 560
f 562 555 561
f 562 556 555
f 563 556 562
f 563 557 556
f 564 559 434
f 564 434 435
f 565 558 557
f 565 557 563
f 565 566 553
f 565 553 558
f 567 559 564
f 567 560 559
f 568 560 567
f 568 562 561
f 568 561 560
f 569 562 568
f 570 562 569
f 570 563 562
f 571 565 563
f 571 566 565
f 571 563 570
f 572 564 435
f 573 568 567
f 573 564 572
f 573 567 564
f 574 568 573
f 575 569 568
f 575 568 574
f 576 570 569
f 576 571 570
f 576 569 575
f 577 572 435
f 577 435 436
f 578 579 566
f 578 571 576
f 578 566 571
f 580 573 572
f 580 572 577
f 581 573 580
f 581 574 573
f 582 576 575
f 582 575 574
f 582 574 581
f 583 576 582
f 584 579 578
f 584 578 576
f 584 576 583
f 585 577 436
f 586 580 577
f 586 581 580
f 586 577 585
f 587 581 586
f 588 582 581
f 588 581 587
f 589 583 582
f 589 582 588
f 590 591 579
f 590 579 584
f 590 584 583
f 590 583 589
f 592 436 437
f 592 585 436
f 593 585 592
f 593 586 585
f 593 587 586
f 594 588 587
f 594 587 593
f 595 589 588
f 595 588 594
f 596 589 595
f 596 590 589
f 597 590 596
f 597 591 590
f 598 592 437
f 599 592 598
f 599 593 592
f 600 593 599
f 600 594 593
f 601 595 594
f 601 594 600
f 602 595 601
f 602 596 595
f 603 597 596
f 603 591 597
f 603 604 591
f 603 596 602
f 605 437 438
f 605 598 437
f 606 599 598
f 606 598 605
f 607 599 606
f 607 600 599
f 608 600 607
f 608 601 600
f 609 601 608
f 609 602 601
f 610 604 603
f 610 603 602
f 610 602 609
f 611 605 438
f 612 606 605
f 612 605 611
f 612 607 606
f 613 607 612
f 614 608 607
f 614 609 608
f 614 607 613
f 615 610 609
f 615 609 614
f 616 617 604
f 616 604 610
f 616 610 615
f 618 611 438
f 618 438 439
f 619 612 611
f 619 611 618
f 620 612 619
f 620 613 612
f 621 614 613
f 621 613 620
f 622 615 614
f 622 614 621
f 623 617 616
f 623 616 615
f 623 615 622
f 624 618 439
f 625 620 619
f 625 619 618
f 625 618 624
f 626 620 625
f 627 621 620
f 627 620 626
f 628 622 621
f 628 621 627
f 629 630 617
f 629 617 623
f 629 623 622
f 629 622 628
f 631 439 440
f 631 624 439
f 632 624 631
f 632 625 624
f 633 625 632
f 633 626 625
f 634 626 633
f 634 627 626
f 635 627 634
f 635 628 627
f 636 628 635
f 636 630 629
f 636 629 628
f 637 631 440
f 638 631 637
f 638 632 631
f 639 633 632
f 639 632 638
f 640 634 633
f 640 635 634
f 640 633 639
f 641 635 640
f 642 636 635
f 642 630 636
f 642 643 630
f 642 635 641
f 644 637 440
f 644 638 637
f 644 440 441
f 645 639 638
f 645 638 644
f 646 639 645
f 647 640 639
f 647 639 646
f 648 641 640
f 648 642 641
f 648 640 647
f 649 644 441
f 650 643 642
f 650 642 648
f 651 645 644
f 651 646 645
f 651 644 649
f 652 646 651
f 653 647 646
f 653 648 647
f 653 646 652
f 654 648 653
f 655 656 643
f 655 643 650
f 655 650 648
f 655 648 654
f 657 649 441
f 657 651 649
f 657 441 442
f 658 651 657
f 659 652 651
f 659 651 658
f 660 653 652
f 660 652 659
f 661 653 660
f 661 654 653
f 661 655 654
f 662 657 442
f 663 656 655
f 663 655 661
f 664 658 657
f 664 657 662
f 665 659 658
f 665 658 664
f 666 661 660
f 666 660 659
f 666 659 665
f 667 661 666
f 668 661 667
f 668 669 656
f 668 656 663
f 668 663 661
f 670 442 443
f 670 662 442
f 670 664 662
f 671 664 670
f 672 664 671
f 672 665 664
f 673 665 672
f 673 666 665
f 674 670 443
f 675 667 666
f 675 666 673
f 676 672 671
f 676 670 674
f 676 671 670
f 677 669 668
f 677 667 675
f 677 668 667
f 678 672 676
f 679 673 672
f 679 672 678
f 680 675 673
f 680 673 679
f 681 669 677
f 681 682 669
f 681 677 675
f 681 675 680
f 683 674 443
f 683 676 674
f 683 443 444
f 684 676 683
f 685 678 676
f 685 676 684
f 686 679 678
f 686 680 679
f 686 678 685
f 687 683 444
f 688 680 686
f 689 684 683
f 689 685 684
f 689 683 687
f 690 680 688
f 690 682 681
f 690 681 680
f 691 685 689
f 692 686 685
f 692 685 691
f 693 688 686
f 693 686 692
f 694 695 682
f 694 688 693
f 694 690 688
f 694 682 690
f 696 687 444
f 696 689 687
f 696 444 445
f 697 689 696
f 698 691 689
f 698 692 691
f 698 689 697
f 699 692 698
f 700 696 445
f 700 697 696
f 701 693 692
f 701 694 693
f 701 692 699
f 702 697 700
f 703 694 701
f 703 695 694
f 704 698 697
f 704 697 702
f 705 699 698
f 705 701 699
f 705 698 704
f 706 701 705
f 706 703 701
f 707 703 706
f 707 708 695
f 707 695 703
f 709 445 446
f 709 700 445
f 709 702 700
f 710 702 709
f 710 709 446
f 711 702 710
f 711 710 446
f 711 704 702
f 712 705 704
f 712 706 705
f 712 711 446
f 712 704 711
f 713 707 706
f 713 712 446
f 713 706 712
f 714 708 707
f 714 707 713
f 715 446 447
f 716 446 715
f 716 715 447
f 717 446 716
f 717 716 447
f 718 713 446
f 718 717 447
f 718 446 717
f 719 708 714
f 719 720 708
f 719 714 713
f 719 713 718
f 721 447 448
f 722 721 448
f 722 447 721
f 723 722 448
f 723 447 722
f 724 718 447
f 724 447 723
f 725 718 724
f 725 726 720
f 725 720 719
f 725 719 718
f 727 448 449
f 728 727 449
f 728 448 727
f 729 723 448
f 729 728 449
f 729 448 728
f 730 724 723
f 730 723 729
f 731 725 724
f 731 732 726
f 731 726 725
f 731 724 730
f 733 449 450
f 734 733 450
f 734 449 733
f 735 734 450
f 735 729 449
f 735 449 734
f 736 730 729
f 736 729 735
f 737 738 732
f 737 732 731
f 737 731 730
f 737 730 736
f 739 450 451
f 740 450 739
f 740 739 451
f 741 450 740
f 741 740 451
f 742 735 450
f 742 450 741
f 743 736 735
f 743 737 736
f 743 735 742
f 744 745 738
f 744 737 743
f 744 738 737
f 746 451 452
f 747 746 452
f 747 451 746
f 747 452 457
f 747 457 464
f 748 747 464
f 748 741 451
f 748 451 747
f 749 742 741
f 749 743 742
f 749 741 748
f 749 748 464
f 749 464 466
f 750 743 749
f 750 749 466
f 750 466 468
f 751 744 743
f 751 743 750
f 751 750 468
f 751 459 745
f 751 460 459
f 751 468 460
f 751 745 744
f 752 483 489
f 753 489 496
f 753 752 489
f 754 477 483
f 754 483 752
f 755 496 503
f 755 753 496
f 756 470 477
f 756 477 754
f 757 503 509
f 757 755 503
f 758 458 470
f 758 470 756
f 759 757 509
f 516 759 509
f 760 459 458
f 760 458 758
f 761 759 516
f 528 761 516
f 762 459 760
f 745 459 762
f 763 761 528
f 541 763 528
f 764 745 762
f 738 745 764
f 765 763 541
f 553 765 541
f 766 738 764
f 732 738 766
f 767 765 553
f 566 767 553
f 768 732 766
f 726 732 768
f 769 767 566
f 579 769 566
f 770 726 768
f 771 769 579
f 720 726 770
f 591 771 579
f 772 720 770
f 773 771 591
f 708 720 772
f 604 773 591
f 774 708 772
f 775 773 604
f 695 708 774
f 617 775 604
f 776 775 617
f 682 774 777
f 682 695 774
f 630 778 776
f 630 776 617
f 669 777 779
f 669 682 777
f 643 780 778
f 643 778 630
f 656 779 780
f 656 669 779
f 656 780 643
f 759 761 781
f 781 761 782
f 782 763 783
f 761 763 782
f 783 765 784
f 763 765 783
f 784 767 785
f 765 767 784
f 785 769 786
f 767 769 785
f 786 771 787
f 769 771 786
f 787 773 788
f 771 773 787
f 788 775 789
f 773 775 788
f 789 776 790
f 775 776 789
f 776 778 790
f 790 778 791
f 778 780 791
f 791 780 792
f 780 779 792
f 792 779 793
f 779 777 793
f 793 777 794
f 794 777 795
f 777 774 795
f 774 772 795
f 795 772 796
f 772 770 796
f 796 770 797
f 770 768 797
f 797 768 798
f 768 766 798
f 798 766 799
f 766 764 799
f 799 764 800
f 800 764 801
f 764 762 801
f 801 762 802
f 762 760 802
f 760 758 802
f 802 758 803
f 758 756 803
f 803 756 804
f 804 754 805
f 756 754 804
f 805 752 806
f 754 752 805
f 806 753 807
f 752 753 806
f 807 755 808
f 753 755 807
f 808 757 809
f 755 757 808
f 809 759 781
f 757 759 809
f 810 784 785
f 811 785 786
f 811 810 785
f 812 783 784
f 812 784 810
f 813 786 787
f 813 811 786
f 814 782 783
f 814 783 812
f 815 787 788
f 815 813 787
f 816 781 782
f 816 809 781
f 816 782 814
f 817 788 789
f 817 815 788
f 818 808 809
f 818 809 816
f 819 789 790
f 819 817 789
f 820 808 818
f 807 808 820
f 821 819 790
f 821 790 791
f 822 807 820
f 792 821 791
f 823 821 792
f 806 807 822
f 824 806 822
f 793 823 792
f 793 825 823
f 805 806 824
f 805 824 826
f 794 825 793
f 794 827 825
f 804 805 826
f 804 826 828
f 795 829 827
f 795 827 794
f 803 804 828
f 803 828 830
f 796 829 795
f 796 831 829
f 802 803 830
f 802 830 832
f 797 833 831
f 797 831 796
f 801 832 834
f 801 802 832
f 798 835 833
f 798 833 797
f 800 801 834
f 799 834 835
f 799 835 798
f 799 800 834
f 829 831 836
f 836 831 837
f 837 833 838
f 831 833 837
f 838 835 839
f 833 835 838
f 839 834 840
f 835 834 839
f 840 832 841
f 834 832 840
f 841 830 842
f 832 830 841
f 842 828 843
f 830 828 842
f 843 826 844
f 828 826 843
f 844 824 845
f 826 824 844
f 846 822 847
f 845 822 846
f 824 822 845
f 822 820 847
f 820 818 847
f 848 818 849
f 847 818 848
f 818 816 849
f 816 814 849
f 849 814 850
f 814 812 850
f 850 812 851
f 812 810 851
f 851 810 852
f 810 811 852
f 853 811 854
f 852 811 853
f 811 813 854
f 813 815 854
f 854 815 855
f 815 817 855
f 855 817 856
f 856 819 857
f 817 819 856
f 857 821 858
f 819 821 857
f 858 823 859
f 821 823 858
f 859 825 860
f 823 825 859
f 860 827 861
f 825 827 860
f 861 829 836
f 827 829 861
f 862 839 863
f 863 840 864
f 839 840 863
f 865 838 862
f 862 838 839
f 864 841 866
f 840 841 864
f 867 837 865
f 865 837 838
f 841 842 866
f 842 74 866
f 868 836 867
f 869 836 868
f 867 836 837
f 842 843 74
f 843 76 74
f 870 861 869
f 869 861 836
f 843 844 76
f 844 78 76
f 871 860 870
f 870 860 861
f 871 872 860
f 844 845 78
f 845 79 78
f 872 859 860
f 872 873 859
f 845 846 79
f 846 874 79
f 873 858 859
f 873 875 858
f 846 876 874
f 846 847 876
f 847 877 876
f 875 878 858
f 858 878 857
f 847 848 877
f 878 879 857
f 857 880 856
f 879 880 857
f 848 881 877
f 848 849 881
f 849 882 881
f 856 883 855
f 880 883 856
f 850 884 849
f 849 884 882
f 855 885 854
f 883 885 855
f 851 886 850
f 850 886 884
f 852 887 851
f 851 887 886
f 854 888 853
f 885 888 854
f 852 889 887
f 853 889 852
f 888 890 853
f 853 890 889
f 207 891 206
f 891 892 893
f 207 892 891
f 893 894 895
f 892 894 893
f 895 896 897
f 894 896 895
f 897 898 899
f 896 898 897
f 899 900 901
f 898 900 899
f 901 902 903
f 900 902 901
f 903 904 905
f 902 904 903
f 905 906 907
f 904 906 905
f 907 908 909
f 906 908 907
f 908 910 909
f 909 910 911
f 910 912 911
f 911 912 913
f 912 914 913
f 913 914 915
f 914 916 915
f 915 916 917
f 917 918 919
f 916 918 917
f 919 920 921
f 918 920 919
f 921 922 923
f 920 922 921
f 923 924 925
f 922 924 923
f 925 926 927
f 924 926 925
f 927 928 929
f 926 928 927
f 929 930 931
f 928 930 929
f 931 932 933
f 930 932 931
f 933 934 935
f 932 934 933
f 935 936 937
f 934 936 935
f 937 938 939
f 936 938 937
f 939 940 941
f 938 940 939
f 940 942 941
f 942 137 941
f 942 135 137
f 15 13 240
f 13 943 240
f 10 944 11
f 6 945 946
f 101 947 948
f 36 949 35
f 36 950 949
f 943 951 944
f 13 951 943
f 944 951 11
f 11 951 13
f 944 952 946
f 946 952 6
f 10 952 944
f 6 952 8
f 8 952 10
f 2 953 4
f 4 953 6
f 945 954 955
f 2 954 953
f 953 954 6
f 6 954 945
f 955 954 2
f 956 957 192
f 192 957 1
f 1 957 2
f 955 958 959
f 959 958 956
f 2 958 955
f 957 958 2
f 956 958 957
f 960 961 196
f 196 961 194
f 194 961 192
f 956 962 963
f 963 962 960
f 961 962 192
f 960 962 961
f 192 962 956
f 196 964 960
f 198 964 196
f 960 965 966
f 966 965 967
f 967 965 964
f 964 965 960
f 198 968 964
f 964 968 967
f 202 968 200
f 200 968 198
f 969 968 202
f 967 970 971
f 971 970 969
f 969 970 968
f 968 970 967
f 204 972 202
f 969 973 974
f 974 973 975
f 972 973 202
f 975 973 972
f 202 973 969
f 893 976 891
f 891 976 206
f 206 976 204
f 972 976 975
f 204 976 972
f 977 978 893
f 975 978 979
f 979 978 977
f 976 978 975
f 893 978 976
f 895 980 893
f 893 981 977
f 977 981 982
f 982 981 983
f 983 981 984
f 984 981 980
f 980 981 893
f 985 986 899
f 895 986 980
f 980 986 984
f 899 986 897
f 897 986 895
f 984 987 988
f 988 987 985
f 986 987 984
f 985 987 986
f 899 989 985
f 901 989 899
f 985 990 991
f 991 990 992
f 989 990 985
f 992 990 989
f 905 993 903
f 903 993 901
f 989 993 992
f 901 993 989
f 905 994 993
f 992 994 995
f 995 994 996
f 996 994 997
f 993 994 992
f 907 998 905
f 997 999 1000
f 1000 999 1001
f 905 999 994
f 994 999 997
f 1001 999 998
f 998 999 905
f 1002 1003 911
f 998 1003 1001
f 907 1003 998
f 911 1003 909
f 909 1003 907
f 1001 1004 1005
f 1005 1004 1002
f 1003 1004 1001
f 1002 1004 1003
f 913 1006 911
f 1002 1007 1008
f 1009 1007 1006
f 1008 1007 1009
f 1006 1007 911
f 911 1007 1002
f 1006 1010 1009
f 913 1010 1006
f 1011 1010 917
f 917 1010 915
f 915 1010 913
f 1009 1012 1013
f 1013 1012 1011
f 1010 1012 1009
f 1011 1012 1010
f 919 1014 917
f 1014 1015 917
f 1016 1015 1014
f 1011 1015 1017
f 1017 1015 1016
f 917 1015 1011
f 919 1018 1014
f 1014 1018 1016
f 923 1018 921
f 921 1018 919
f 1016 1019 1020
f 1020 1019 1021
f 1018 1019 1016
f 923 1019 1018
f 1021 1019 923
f 925 1022 923
f 1021 1023 1024
f 1024 1023 1025
f 1025 1023 1026
f 923 1023 1021
f 1022 1023 923
f 929 1027 927
f 927 1027 925
f 925 1027 1022
f 1028 1029 929
f 1023 1029 1026
f 1022 1029 1023
f 929 1029 1027
f 1027 1029 1022
f 1026 1029 1030
f 1030 1029 1028
f 931 1031 929
f 929 1032 1028
f 1028 1032 1033
f 1033 1032 1034
f 1031 1032 929
f 1034 1032 1031
f 1035 1036 935
f 935 1036 933
f 933 1036 931
f 1031 1036 1034
f 931 1036 1031
f 1035 1037 1036
f 1036 1037 1034
f 1034 1037 1038
f 1038 1037 1035
f 935 1039 1035
f 937 1039 935
f 1040 1041 1039
f 1035 1041 1042
f 1042 1041 1040
f 1039 1041 1035
f 1039 1043 1040
f 941 1043 939
f 939 1043 937
f 937 1043 1039
f 1044 1045 941
f 1043 1045 1040
f 1040 1045 1046
f 1046 1045 1044
f 941 1045 1043
f 136 1047 137
f 137 1047 941
f 941 1048 1044
f 1049 1048 136
f 1044 1048 1050
f 1050 1048 1049
f 136 1048 1047
f 1047 1048 941
f 1051 1052 141
f 141 1052 139
f 139 1052 136
f 1052 1053 136
f 136 1053 1049
f 1049 1053 1054
f 1054 1053 1051
f 1051 1053 1052
f 143 1055 141
f 1055 1056 141
f 141 1056 1051
f 1051 1056 1057
f 1057 1056 1058
f 1058 1056 1059
f 143 1060 1055
f 147 1060 145
f 145 1060 143
f 1056 1061 1059
f 1055 1061 1056
f 1060 1061 1055
f 147 1061 1060
f 1062 1061 147
f 1059 1061 1063
f 1063 1061 1062
f 149 1064 147
f 147 1065 1062
f 1062 1065 1066
f 1066 1065 1067
f 1064 1065 147
f 1067 1065 1064
f 153 1068 151
f 151 1068 149
f 149 1068 1064
f 1064 1068 1067
f 153 1069 1068
f 1067 1069 1070
f 1070 1069 1071
f 1071 1069 153
f 1068 1069 1067
f 155 1072 153
f 1073 1074 1072
f 1072 1074 153
f 1071 1074 1075
f 1075 1074 1076
f 1076 1074 1073
f 153 1074 1071
f 1072 1077 1073
f 159 1077 157
f 157 1077 155
f 155 1077 1072
f 159 1078 1077
f 1077 1078 1073
f 1073 1078 1079
f 1079 1078 1080
f 161 1081 159
f 159 1082 1078
f 1081 1082 159
f 1080 1082 1083
f 1083 1082 1084
f 1078 1082 1080
f 1084 1082 1081
f 161 1085 1081
f 165 1085 163
f 163 1085 161
f 1081 1085 1084
f 1086 1087 165
f 165 1087 1085
f 1084 1087 1088
f 1088 1087 1086
f 1085 1087 1084
f 167 1089 165
f 165 1090 1086
f 1089 1090 165
f 1091 1090 1089
f 1086 1090 1092
f 1092 1090 1093
f 1093 1090 1091
f 171 1094 169
f 169 1094 167
f 1089 1094 1091
f 167 1094 1089
f 1095 1096 171
f 1094 1096 1091
f 171 1096 1094
f 1091 1096 1097
f 1097 1096 1095
f 173 1098 171
f 171 1099 1095
f 1098 1099 171
f 1095 1099 1100
f 173 1101 1098
f 1102 1101 177
f 177 1101 175
f 175 1101 173
f 1102 1103 1101
f 1101 1103 1098
f 1100 1103 1104
f 1104 1103 1102
f 1099 1103 1100
f 1098 1103 1099
f 179 1105 177
f 1106 1107 1105
f 177 1107 1102
f 1102 1107 1108
f 1108 1107 1106
f 1105 1107 177
f 1105 1109 1106
f 183 1109 181
f 181 1109 179
f 1110 1109 183
f 179 1109 1105
f 1110 1111 1109
f 1109 1111 1106
f 1106 1111 1112
f 1112 1111 1110
f 185 1113 183
f 1114 1115 1113
f 183 1115 1110
f 1113 1115 183
f 1110 1115 1116
f 1116 1115 1114
f 1113 1117 1114
f 82 1117 187
f 187 1117 185
f 185 1117 1113
f 1117 1118 1114
f 82 1118 1117
f 1119 1118 82
f 1114 1118 1120
f 1120 1118 1121
f 1121 1118 1119
f 84 1122 81
f 81 1122 82
f 1123 1124 1122
f 1122 1124 82
f 82 1124 1119
f 1119 1124 1125
f 1125 1124 1123
f 1122 1126 1123
f 89 1126 87
f 87 1126 84
f 84 1126 1122
f 1127 1126 89
f 1127 1128 1126
f 1126 1128 1123
f 1123 1128 1129
f 1129 1128 1127
f 91 1130 89
f 1131 1132 1130
f 1130 1132 89
f 89 1132 1127
f 1127 1132 1133
f 1133 1132 1131
f 1130 1134 1131
f 95 1134 93
f 93 1134 91
f 91 1134 1130
f 1135 1136 1137
f 95 1136 1134
f 1134 1136 1131
f 1137 1136 95
f 1131 1136 1138
f 1138 1136 1135
f 97 1139 95
f 1137 1140 1141
f 1141 1140 1142
f 1139 1140 95
f 95 1140 1137
f 1142 1140 1139
f 101 1143 99
f 99 1143 97
f 97 1143 1139
f 1139 1143 1142
f 1143 1144 1142
f 1142 1144 1145
f 1145 1144 948
f 948 1144 101
f 101 1144 1143
f 103 1146 101
f 947 1147 1148
f 1148 1147 1149
f 101 1147 947
f 1149 1147 1146
f 1146 1147 101
f 1146 1150 1149
f 107 1150 105
f 105 1150 103
f 103 1150 1146
f 1149 1151 1152
f 1152 1151 1153
f 1150 1151 1149
f 1153 1151 107
f 107 1151 1150
f 109 1154 107
f 1153 1155 1156
f 1156 1155 1157
f 1157 1155 1158
f 107 1155 1153
f 1154 1155 107
f 113 1159 111
f 111 1159 109
f 109 1159 1154
f 1158 1160 1161
f 113 1160 1159
f 1161 1160 113
f 1155 1160 1158
f 1154 1160 1155
f 1159 1160 1154
f 115 1162 113
f 1161 1163 1164
f 1164 1163 1165
f 113 1163 1161
f 1165 1163 1162
f 1162 1163 113
f 119 1166 117
f 117 1166 115
f 115 1166 1162
f 1162 1166 1165
f 1165 1167 1168
f 1168 1167 1169
f 1166 1167 1165
f 119 1167 1166
f 1169 1167 119
f 123 1170 121
f 121 1170 119
f 1169 1171 1172
f 1172 1171 1173
f 119 1171 1169
f 1170 1171 119
f 125 1174 123
f 123 1174 1170
f 1173 1175 1176
f 1176 1175 1177
f 1177 1175 1178
f 1171 1175 1173
f 1178 1175 125
f 125 1175 1174
f 1170 1175 1171
f 1174 1175 1170
f 129 1179 127
f 127 1179 125
f 1178 1180 1181
f 1181 1180 1182
f 125 1180 1178
f 1179 1180 125
f 1182 1180 1179
f 131 1183 129
f 129 1183 1179
f 1184 1183 131
f 1179 1183 1182
f 1184 1185 1183
f 1182 1185 1186
f 1186 1185 1184
f 1183 1185 1182
f 33 1187 133
f 133 1187 131
f 1184 1188 1189
f 1189 1188 1190
f 131 1188 1184
f 1187 1188 131
f 35 1191 32
f 32 1191 33
f 33 1191 1187
f 949 1191 35
f 1187 1192 1188
f 1191 1192 1187
f 1188 1192 1190
f 949 1192 1191
f 1190 1192 1193
f 1193 1192 1194
f 1194 1192 949
f 38 1195 36
f 36 1195 950
f 889 1196 887
f 890 1197 1198
f 890 888 1197
f 888 1199 1197
f 888 1200 1199
f 888 885 1200
f 885 1201 1200
f 885 883 1201
f 883 1202 1201
f 883 1203 1202
f 883 880 1203
f 40 1204 38
f 1195 1205 1206
f 1204 1205 38
f 38 1205 1195
f 42 1207 40
f 40 1207 1204
f 1206 1208 1209
f 1204 1208 1205
f 1205 1208 1206
f 1207 1208 1204
f 44 1210 42
f 42 1210 1207
f 1210 1211 1207
f 1209 1211 1212
f 1207 1211 1208
f 1208 1211 1209
f 46 1213 44
f 44 1213 1210
f 1210 1214 1211
f 1212 1214 1215
f 1215 1214 1216
f 1211 1214 1212
f 1213 1214 1210
f 48 1217 46
f 46 1217 1213
f 1217 1218 1213
f 1216 1218 1219
f 1214 1218 1216
f 1213 1218 1214
f 50 1220 48
f 48 1220 1217
f 1217 1221 1218
f 1218 1221 1219
f 1220 1221 1217
f 1219 1221 1222
f 52 1223 50
f 50 1223 1220
f 1222 1224 1225
f 1225 1224 1226
f 1223 1224 1220
f 1221 1224 1222
f 1220 1224 1221
f 54 1227 52
f 52 1227 1223
f 1227 1228 1223
f 1226 1228 1229
f 1224 1228 1226
f 1223 1228 1224
f 54 1230 1227
f 58 1230 56
f 56 1230 54
f 1227 1231 1228
f 1228 1231 1229
f 1229 1231 1232
f 1232 1231 1233
f 1230 1231 1227
f 1230 1234 1231
f 58 1234 1230
f 61 1234 58
f 1231 1235 1233
f 1233 1235 1236
f 1234 1235 1231
f 63 1237 61
f 61 1237 1234
f 1234 1237 1235
f 1237 1238 1235
f 1235 1238 1236
f 1236 1238 1239
f 1239 1238 1240
f 65 1241 63
f 63 1241 1237
f 1238 1242 1240
f 1237 1242 1238
f 1240 1242 1243
f 1243 1242 1244
f 1241 1242 1237
f 67 1245 65
f 65 1245 1241
f 1245 1246 1241
f 1241 1246 1242
f 1244 1246 1247
f 1242 1246 1244
f 69 1248 67
f 67 1248 1245
f 1247 1249 1250
f 1245 1249 1246
f 1248 1249 1245
f 1246 1249 1247
f 71 1251 69
f 69 1251 1248
f 1248 1252 1249
f 1250 1252 1253
f 1249 1252 1250
f 1251 1252 1248
f 73 1254 71
f 71 1254 1251
f 1252 1255 1253
f 1253 1255 1256
f 1256 1255 1257
f 1254 1255 1251
f 1251 1255 1252
f 75 1258 73
f 73 1258 1254
f 1257 1259 1260
f 1255 1259 1257
f 1254 1259 1255
f 1258 1259 1254
f 77 1261 75
f 75 1261 1258
f 1260 1262 1263
f 1259 1262 1260
f 1258 1262 1259
f 1261 1262 1258
f 79 1264 77
f 77 1264 1261
f 1263 1265 1266
f 1262 1265 1263
f 1261 1265 1262
f 1264 1265 1261
f 1264 1267 1265
f 876 1267 874
f 79 1267 1264
f 874 1267 79
f 1266 1268 1269
f 1269 1268 1270
f 1265 1268 1266
f 1267 1268 1265
f 876 1271 1267
f 877 1271 876
f 1270 1272 1273
f 1268 1272 1270
f 1267 1272 1268
f 1271 1272 1267
f 877 1272 1271
f 1273 1274 1275
f 1275 1274 1276
f 882 1274 881
f 881 1274 877
f 877 1274 1272
f 1272 1274 1273
f 1276 1277 1278
f 884 1277 882
f 1278 1277 884
f 1274 1277 1276
f 882 1277 1274
f 1279 1280 886
f 1278 1280 1281
f 1281 1280 1279
f 886 1280 884
f 884 1280 1278
f 886 1282 1279
f 1196 1282 887
f 1279 1282 1283
f 1283 1282 1196
f 887 1282 886
f 889 1284 1196
f 1198 1284 890
f 1196 1284 1198
f 890 1284 889
f 869 59 57
f 862 66 64
f 862 863 66
f 863 68 66
f 863 864 68
f 864 70 68
f 864 866 70
f 866 72 70
f 866 74 72
f 1195 1285 950
f 86 1286 88
f 950 1286 86
f 1285 1286 950
f 1195 1287 1285
f 1206 1287 1195
f 1209 1287 1206
f 88 1288 90
f 90 1288 92
f 1286 1288 88
f 1285 1288 1286
f 1209 1288 1287
f 1287 1288 1285
f 1212 1289 1209
f 1209 1290 1288
f 92 1290 94
f 94 1290 1289
f 1289 1290 1209
f 1288 1290 92
f 1289 1291 94
f 1212 1291 1289
f 1215 1291 1212
f 1216 1291 1215
f 94 1292 96
f 96 1292 98
f 1291 1292 94
f 1216 1292 1291
f 100 1293 1222
f 1219 1293 1216
f 1222 1293 1219
f 98 1294 100
f 1292 1294 98
f 1293 1294 1216
f 1216 1294 1292
f 100 1294 1293
f 1225 1295 1222
f 1226 1295 1225
f 100 1296 102
f 1222 1296 100
f 1226 1296 1295
f 1295 1296 1222
f 1229 1297 1226
f 1232 1297 1229
f 102 1298 104
f 104 1298 106
f 1296 1298 102
f 1226 1298 1296
f 1297 1298 1226
f 1232 1298 1297
f 106 1298 1232
f 1233 1299 1232
f 1236 1299 1233
f 106 1300 108
f 1232 1300 106
f 1299 1300 1232
f 1236 1300 1299
f 1239 1301 1236
f 1240 1301 1239
f 1300 1302 108
f 108 1302 110
f 1236 1302 1300
f 110 1302 112
f 1301 1302 1236
f 1240 1302 1301
f 112 1302 1240
f 1243 1303 1240
f 1244 1303 1243
f 114 1303 1244
f 114 1304 1303
f 112 1304 114
f 1303 1304 1240
f 1240 1304 112
f 1244 1305 114
f 1247 1305 1244
f 1250 1305 1247
f 114 1306 116
f 116 1306 118
f 1250 1306 1305
f 1305 1306 114
f 1253 1307 1250
f 1256 1307 1253
f 118 1308 120
f 120 1308 1307
f 1307 1308 1250
f 1306 1308 118
f 1250 1308 1306
f 1307 1309 120
f 1256 1309 1307
f 1257 1309 1256
f 1309 1310 120
f 120 1310 122
f 1257 1311 1309
f 1309 1311 1310
f 1260 1311 1257
f 1263 1311 1260
f 126 1312 1263
f 1263 1312 1311
f 122 1312 124
f 124 1312 126
f 1311 1312 1310
f 1310 1312 122
f 1266 1313 1263
f 1269 1313 1266
f 1263 1314 126
f 126 1314 128
f 1313 1314 1263
f 1269 1314 1313
f 1270 1315 1269
f 1273 1315 1270
f 1273 1316 1315
f 132 1316 1273
f 128 1316 130
f 130 1316 132
f 1315 1316 1269
f 1314 1316 128
f 1269 1316 1314
f 1275 1317 1273
f 1276 1317 1275
f 1317 1318 1273
f 1273 1318 132
f 132 1318 134
f 1276 1318 1317
f 1278 1319 1276
f 1281 1319 1278
f 1319 1320 1276
f 1281 1320 1319
f 1276 1320 1318
f 1318 1320 134
f 134 1320 31
f 31 1320 34
f 34 1320 1281
f 1281 1321 34
f 1279 1321 1281
f 1283 1321 1279
f 1321 1322 34
f 34 1322 37
f 1283 1322 1321
f 41 1323 1198
f 1196 1323 1283
f 1198 1323 1196
f 1283 1324 1322
f 41 1324 1323
f 37 1324 39
f 39 1324 41
f 1323 1324 1283
f 1322 1324 37
f 1199 1325 1197
f 1200 1325 1199
f 1198 1325 41
f 1197 1325 1198
f 1325 1326 41
f 41 1326 43
f 1201 1327 1200
f 1202 1327 1201
f 1200 1327 1325
f 43 1328 45
f 1325 1328 1326
f 45 1328 47
f 1326 1328 43
f 1327 1328 1325
f 1202 1328 1327
f 1203 1329 1202
f 880 1329 1203
f 879 1329 880
f 47 1330 49
f 1328 1330 47
f 1202 1330 1328
f 879 1330 1329
f 1329 1330 1202
f 49 1330 879
f 873 1331 875
f 875 1331 878
f 49 1332 51
f 51 1332 53
f 873 1332 1331
f 1331 1332 878
f 878 1332 879
f 879 1332 49
f 53 1332 873
f 871 1333 872
f 872 1333 873
f 53 1334 55
f 871 1334 1333
f 1333 1334 873
f 873 1334 53
f 55 1334 871
f 55 1335 57
f 869 1335 870
f 870 1335 871
f 871 1335 55
f 57 1335 869
f 62 1336 867
f 59 1336 60
f 60 1336 62
f 867 1336 868
f 868 1336 869
f 869 1336 59
f 867 1337 62
f 64 1337 862
f 62 1337 64
f 862 1337 865
f 865 1337 867
f 240 943 244
f 943 248 244
f 943 252 248
f 943 944 252
f 944 1338 252
f 944 946 1338
f 946 1339 1338
f 946 1340 1339
f 946 945 1340
f 945 1341 1340
f 945 955 1341
f 955 1342 1341
f 955 959 1342
f 956 1343 959
f 959 1343 1342
f 963 1344 956
f 956 1344 1343
f 960 1345 963
f 963 1345 1344
f 960 1346 1345
f 967 1347 966
f 967 971 1347
f 969 1348 971
f 971 1348 1347
f 974 1349 969
f 969 1349 1348
f 975 979 1350
f 979 1351 1350
f 982 1352 977
f 983 1353 1354
f 984 1353 983
f 995 1355 992
f 997 29 996
f 997 28 29
f 1001 26 1000
f 947 154 948
f 950 85 949
f 950 86 85
f 966 1356 960
f 1346 1356 1347
f 960 1356 1346
f 1347 1356 966
f 1349 1357 1350
f 975 1357 974
f 974 1357 1349
f 1350 1357 975
f 979 1358 1351
f 1352 1358 977
f 1351 1358 1352
f 977 1358 979
f 1352 1359 1354
f 982 1359 1352
f 1354 1359 983
f 983 1359 982
f 1353 1360 1361
f 984 1360 1353
f 988 1360 984
f 985 1360 988
f 1361 1360 985
f 1362 1363 1355
f 1361 1363 1362
f 991 1363 985
f 992 1363 991
f 985 1363 1361
f 1355 1363 992
f 1355 1364 29
f 996 1364 995
f 995 1364 1355
f 29 1364 996
f 1000 1365 997
f 28 1365 26
f 997 1365 28
f 26 1365 1000
f 1005 1366 1001
f 1002 1366 1005
f 1001 1366 26
f 22 1366 1002
f 22 1367 1366
f 1366 1367 26
f 24 1367 22
f 26 1367 24
f 1008 1368 1002
f 1009 1368 1008
f 1002 1368 22
f 20 1368 1009
f 22 1369 20
f 1368 1369 22
f 20 1369 1368
f 1013 1370 1009
f 1011 1370 1013
f 1009 1370 20
f 14 1370 1011
f 14 1371 1370
f 16 1371 14
f 20 1371 16
f 1370 1371 20
f 1017 1372 1011
f 1016 1372 1017
f 1011 1372 14
f 12 1373 9
f 14 1373 12
f 1372 1373 14
f 1016 1373 1372
f 1020 1374 1016
f 1021 1374 1020
f 7 1374 1021
f 1374 1375 1016
f 9 1375 7
f 1373 1375 9
f 1016 1375 1373
f 7 1375 1374
f 1024 1376 1021
f 1025 1376 1024
f 1026 1376 1025
f 1021 1376 7
f 7 1377 189
f 189 1377 190
f 1376 1377 7
f 191 1378 1028
f 1030 1378 1026
f 1028 1378 1030
f 1026 1378 1376
f 190 1379 191
f 1378 1379 1376
f 1377 1379 190
f 1376 1379 1377
f 191 1379 1378
f 1028 1380 191
f 1033 1380 1028
f 1034 1380 1033
f 191 1381 193
f 193 1381 195
f 1380 1381 191
f 1034 1381 1380
f 197 1382 1035
f 1038 1382 1034
f 1035 1382 1038
f 1381 1383 195
f 197 1383 1382
f 1382 1383 1034
f 195 1383 197
f 1034 1383 1381
f 1042 1384 1035
f 1040 1384 1042
f 1035 1385 197
f 197 1385 199
f 199 1385 201
f 1384 1385 1035
f 1040 1385 1384
f 203 1386 1044
f 1046 1386 1040
f 1044 1386 1046
f 1386 1387 1040
f 201 1387 203
f 1385 1387 201
f 1040 1387 1385
f 203 1387 1386
f 1044 1388 203
f 1050 1388 1044
f 1049 1388 1050
f 1388 1389 203
f 203 1389 205
f 205 1389 207
f 1049 1389 1388
f 1054 1390 1049
f 1051 1390 1054
f 207 1391 892
f 892 1391 894
f 894 1391 1051
f 1049 1391 1389
f 1389 1391 207
f 1051 1391 1390
f 1390 1391 1049
f 1051 1392 894
f 1057 1392 1051
f 1058 1392 1057
f 1059 1392 1058
f 1392 1393 894
f 894 1393 896
f 1059 1394 1392
f 1063 1394 1059
f 1062 1394 1063
f 900 1394 1062
f 1392 1395 1393
f 896 1395 898
f 898 1395 900
f 1393 1395 896
f 1394 1395 1392
f 900 1395 1394
f 1066 1396 1062
f 1062 1396 900
f 1067 1396 1066
f 1067 1397 1396
f 1396 1397 900
f 900 1397 902
f 902 1397 904
f 1070 1398 1067
f 1071 1398 1070
f 906 1398 1071
f 1067 1399 1397
f 1397 1399 904
f 1398 1399 1067
f 906 1399 1398
f 904 1399 906
f 1075 1400 1071
f 1076 1400 1075
f 1073 1400 1076
f 1071 1400 906
f 1073 1401 1400
f 906 1401 908
f 908 1401 910
f 1400 1401 906
f 1079 1402 1073
f 1080 1402 1079
f 1401 1403 910
f 1402 1403 1073
f 1073 1403 1401
f 910 1403 912
f 912 1403 1402
f 1083 1404 1080
f 1084 1404 1083
f 1080 1404 1402
f 1402 1404 912
f 1084 1405 1404
f 1404 1405 912
f 912 1405 914
f 914 1405 916
f 918 1406 1086
f 1088 1406 1084
f 1086 1406 1088
f 1084 1407 1405
f 1405 1407 916
f 916 1407 918
f 918 1407 1406
f 1406 1407 1084
f 1086 1408 918
f 1092 1408 1086
f 1093 1408 1092
f 1091 1408 1093
f 918 1409 920
f 920 1409 922
f 1091 1409 1408
f 1408 1409 918
f 924 1410 1095
f 1097 1410 1091
f 1095 1410 1097
f 924 1411 1410
f 922 1411 924
f 1410 1411 1091
f 1409 1411 922
f 1091 1411 1409
f 1095 1412 924
f 1100 1412 1095
f 1412 1413 924
f 924 1413 926
f 926 1413 928
f 1100 1414 1412
f 1104 1414 1100
f 1102 1414 1104
f 1413 1415 928
f 1412 1415 1413
f 1414 1415 1412
f 930 1415 1102
f 1102 1415 1414
f 928 1415 930
f 1108 1416 1102
f 1106 1416 1108
f 1102 1417 930
f 1106 1417 1416
f 1416 1417 1102
f 930 1417 932
f 932 1417 934
f 1112 1418 1106
f 1110 1418 1112
f 936 1419 1110
f 1417 1419 934
f 1110 1419 1418
f 1106 1419 1417
f 934 1419 936
f 1418 1419 1106
f 1116 1420 1110
f 1114 1420 1116
f 1110 1421 936
f 936 1421 938
f 938 1421 940
f 1420 1421 1110
f 1114 1421 1420
f 135 1422 1119
f 1120 1422 1114
f 1121 1422 1120
f 1119 1422 1121
f 1422 1423 1114
f 940 1423 942
f 942 1423 135
f 1114 1423 1421
f 1421 1423 940
f 135 1423 1422
f 1119 1424 135
f 1125 1424 1119
f 1123 1424 1125
f 1123 1425 1424
f 135 1425 138
f 138 1425 140
f 1424 1425 135
f 1129 1426 1123
f 1127 1426 1129
f 1426 1427 1123
f 1425 1427 140
f 1127 1427 1426
f 140 1427 142
f 142 1427 1127
f 1123 1427 1425
f 1127 1428 142
f 1133 1428 1127
f 1131 1428 1133
f 1428 1429 142
f 1131 1429 1428
f 142 1429 144
f 144 1429 146
f 148 1430 1137
f 1138 1430 1131
f 1135 1430 1138
f 1137 1430 1135
f 1131 1431 1429
f 148 1431 1430
f 146 1431 148
f 1429 1431 146
f 1430 1431 1131
f 1142 1432 1141
f 1137 1432 148
f 1141 1432 1137
f 1142 1433 1432
f 1432 1433 148
f 148 1433 150
f 150 1433 152
f 1145 1434 1142
f 948 1434 1145
f 154 1434 948
f 1433 1435 152
f 1142 1435 1433
f 1434 1435 1142
f 152 1435 154
f 154 1435 1434
f 947 1436 154
f 1148 1436 947
f 1149 1436 1148
f 1436 1437 154
f 154 1437 156
f 156 1437 158
f 1149 1437 1436
f 1152 1438 1149
f 1153 1438 1152
f 160 1438 1153
f 160 1439 1438
f 1149 1439 1437
f 1438 1439 1149
f 158 1439 160
f 1437 1439 158
f 1156 1440 1153
f 1157 1440 1156
f 1158 1440 1157
f 1153 1440 160
f 1440 1441 160
f 160 1441 162
f 162 1441 164
f 1161 1442 1158
f 166 1442 1161
f 1158 1442 1440
f 1440 1443 1441
f 1441 1443 164
f 166 1443 1442
f 1442 1443 1440
f 164 1443 166
f 1164 1444 1161
f 1165 1444 1164
f 1161 1444 166
f 1444 1445 166
f 1165 1445 1444
f 166 1445 168
f 168 1445 170
f 1168 1446 1165
f 1169 1446 1168
f 172 1446 1169
f 1165 1447 1445
f 1445 1447 170
f 172 1447 1446
f 1446 1447 1165
f 170 1447 172
f 1172 1448 1169
f 1173 1448 1172
f 1169 1448 172
f 1448 1449 172
f 172 1449 174
f 174 1449 176
f 1176 1450 1173
f 1177 1450 1176
f 1178 1450 1177
f 1173 1450 1448
f 178 1450 1178
f 1448 1451 1449
f 1449 1451 176
f 178 1451 1450
f 1450 1451 1448
f 176 1451 178
f 1181 1452 1178
f 1182 1452 1181
f 1178 1452 178
f 1452 1453 178
f 1182 1453 1452
f 178 1453 180
f 180 1453 182
f 1186 1454 1182
f 1184 1454 1186
f 1182 1455 1453
f 1453 1455 182
f 1184 1455 1454
f 1454 1455 1182
f 184 1455 1184
f 182 1455 184
f 1189 1456 1184
f 1190 1456 1189
f 188 1456 1190
f 188 1457 1456
f 1184 1457 184
f 1456 1457 1184
f 184 1457 186
f 186 1457 188
f 1193 1458 1190
f 1194 1458 1193
f 949 1458 1194
f 1190 1458 188
f 1458 1459 188
f 85 1459 949
f 949 1459 1458
f 188 1459 80
f 80 1459 83
f 83 1459 85
f 30 1355 29
f 30 218 1355
f 218 1362 1355
f 1362 214 1361
f 218 214 1362
f 1361 209 1353
f 214 209 1361
f 1353 213 1354
f 209 213 1353
f 1354 217 1352
f 213 217 1354
f 1352 221 1351
f 217 221 1352
f 1351 224 1350
f 221 224 1351
f 1350 227 1349
f 224 227 1350
f 1349 230 1348
f 227 230 1349
f 1348 232 1347
f 230 232 1348
f 232 1346 1347
f 232 236 1346
f 236 1345 1346
f 236 239 1345
f 239 1344 1345
f 239 243 1344
f 243 1343 1344
f 243 247 1343
f 247 1342 1343
f 247 251 1342
f 251 1341 1342
f 251 256 1341
f 1341 256 1340
f 256 1339 1340
f 256 254 1339
f 254 1338 1339
f 254 252 1338
f 15 240 17
