# Full FreeCAD instance transform baked; body-local coordinates in mm
v -24.491398000 112.246804919 143.145743199
v -24.552530546 112.286288504 143.145743198
v -24.522456603 112.265784436 143.145743199
v -24.288839392 112.167306524 143.145743199
v -24.358893981 112.187016829 143.145743199
v -24.324112459 112.176288150 143.145743199
v -24.393097487 112.199465887 143.145743199
v -23.999637525 112.160094280 143.145743200
v -24.071847331 112.151045217 143.145743200
v -24.035629593 112.154669348 143.145743200
v -23.893906020 112.187016829 143.145743201
v -23.963960609 112.167306524 143.145743201
v -23.928687542 112.176288150 143.145743201
v -24.812371855 113.128673337 143.145743198
v -24.833822543 113.059131913 143.145743197
v -24.841921996 113.023645892 143.145743197
v -24.823964326 113.094170098 143.145743197
v -23.859702514 112.199465887 143.145743201
v -24.799073949 113.162555848 143.145743198
v -23.793368045 112.229397139 143.145743201
v -23.826162060 112.213604374 143.145743201
v -24.767498236 113.228123491 143.145743198
v -24.784103670 113.195733394 143.145743198
v -24.685609380 113.348232384 143.145743198
v -24.708303542 113.319774804 143.145743198
v -24.729551001 113.290221389 143.145743198
v -23.616689916 112.356420064 143.145743202
v -23.671254939 112.308266145 143.145743202
v -23.643371986 112.331662721 143.145743202
v -23.700269455 112.286288504 143.145743202
v -24.636110085 113.401579936 143.145743198
v -24.661524935 113.375523378 143.145743198
v -23.591275066 112.382476622 143.145743202
v -24.581545062 113.449733855 143.145743198
v -24.609428015 113.426337279 143.145743198
v -24.491398000 113.511195081 143.145743199
v -24.552530546 113.471711496 143.145743198
v -24.522456603 113.492215564 143.145743199
v -23.485301765 112.529876509 143.145743202
v -23.523249000 112.467778611 143.145743202
v -23.503501070 112.498354387 143.145743202
v -23.544496459 112.438225196 143.145743202
v -23.567190621 112.409767616 143.145743202
v -23.730343398 112.265784436 143.145743201
v -24.426637940 113.544395626 143.145743199
v -24.459431955 113.528602861 143.145743199
v -24.393097487 113.558534113 143.145743199
v -23.428835674 112.663829902 143.145743203
v -23.453726052 112.595444152 143.145743202
v -23.440428146 112.629326663 143.145743202
v -23.468696331 112.562266606 143.145743202
v -23.410878005 112.734354108 143.145743203
v -23.418977458 112.698868087 143.145743203
v -23.400031514 112.806315870 143.145743203
v -23.404557453 112.770199742 143.145743203
v -24.180952670 113.606954783 143.145743200
v -24.217170407 113.603330652 143.145743200
v -24.253162475 113.597905720 143.145743200
v -23.396404000 112.879000000 143.145743203
v -23.397311443 112.842612703 143.145743203
v -23.999637525 113.597905720 143.145743200
v -24.035629593 113.603330652 143.145743200
v -24.071847331 113.606954783 143.145743200
v -23.963960609 113.590693476 143.145743201
v -23.928687542 113.581711850 143.145743201
v -24.855488558 112.915387297 143.145743197
v -24.856396000 112.879000000 143.145743197
v -24.852768486 112.951684130 143.145743197
v -24.848242548 112.987800258 143.145743197
v -24.749298931 113.259645613 143.145743198
v -24.708303542 112.438225196 143.145743198
v -24.685609380 112.409767616 143.145743198
v -24.729551001 112.467778611 143.145743198
v -24.749298931 112.498354387 143.145743198
v -24.767498236 112.529876509 143.145743198
v -24.784103670 112.562266606 143.145743198
v -24.799073949 112.595444152 143.145743198
v -24.812371855 112.629326663 143.145743198
v -24.823964326 112.663829902 143.145743197
v -24.833822543 112.698868087 143.145743197
v -24.841921996 112.734354108 143.145743197
v -24.848242548 112.770199742 143.145743197
v -24.852768486 112.806315870 143.145743197
v -24.855488558 112.842612703 143.145743197
v -24.358893981 113.570983171 143.145743199
v -24.324112459 113.581711850 143.145743199
v -24.288839392 113.590693476 143.145743199
v -24.144599306 113.608769104 143.145743200
v -24.108200695 113.608769104 143.145743200
v -23.428835674 113.094170098 143.145743203
v -23.410878005 113.023645892 143.145743203
v -23.418977458 113.059131913 143.145743203
v -23.404557453 112.987800258 143.145743203
v -23.400031514 112.951684130 143.145743203
v -23.397311443 112.915387297 143.145743203
v -23.453726052 113.162555848 143.145743202
v -23.440428146 113.128673337 143.145743202
v -23.793368045 113.528602861 143.145743201
v -23.826162060 113.544395626 143.145743201
v -23.859702514 113.558534113 143.145743201
v -23.761402000 113.511195081 143.145743201
v -23.893906020 113.570983171 143.145743201
v -23.503501070 113.259645613 143.145743202
v -23.468696331 113.195733394 143.145743202
v -23.485301765 113.228123491 143.145743202
v -23.700269455 113.471711496 143.145743202
v -24.426637940 112.213604374 143.145743199
v -24.459431955 112.229397139 143.145743199
v -24.581545062 112.308266145 143.145743198
v -24.609428015 112.331662721 143.145743198
v -24.636110085 112.356420064 143.145743198
v -24.661524935 112.382476622 143.145743198
v -23.730343398 113.492215564 143.145743201
v -24.180952670 112.151045217 143.145743200
v -24.144599306 112.149230896 143.145743200
v -24.217170407 112.154669348 143.145743200
v -24.253162475 112.160094280 143.145743200
v -23.544496459 113.319774804 143.145743202
v -23.523249000 113.290221389 143.145743202
v -23.643371986 113.426337279 143.145743202
v -23.671254939 113.449733855 143.145743202
v -23.591275066 113.375523378 143.145743202
v -23.567190621 113.348232384 143.145743202
v -23.616689916 113.401579936 143.145743202
v -23.761402000 112.246804919 143.145743201
v -24.108200695 112.149230896 143.145743200
v -24.856396000 112.879000000 143.045743397
v -24.855488557 112.842612703 143.045743397
v -24.852768486 112.806315870 143.045743397
v -24.848242548 112.770199742 143.045743397
v -24.841921995 112.734354108 143.045743397
v -24.833822543 112.698868087 143.045743397
v -24.823964326 112.663829902 143.045743397
v -24.812371854 112.629326663 143.045743398
v -24.799073949 112.595444152 143.045743398
v -24.784103670 112.562266606 143.045743398
v -24.767498236 112.529876509 143.045743398
v -24.749298930 112.498354387 143.045743398
v -24.729551000 112.467778611 143.045743398
v -24.708303542 112.438225196 143.045743398
v -24.685609379 112.409767616 143.045743398
v -24.661524934 112.382476622 143.045743398
v -24.636110084 112.356420064 143.045743398
v -24.609428015 112.331662721 143.045743398
v -24.581545061 112.308266145 143.045743398
v -24.552530546 112.286288504 143.045743398
v -24.522456602 112.265784436 143.045743399
v -24.491398000 112.246804919 143.045743399
v -24.459431955 112.229397139 143.045743399
v -24.426637940 112.213604374 143.045743399
v -24.393097486 112.199465887 143.045743399
v -24.358893981 112.187016829 143.045743399
v -24.324112458 112.176288150 143.045743399
v -24.288839392 112.167306524 143.045743399
v -24.253162475 112.160094280 143.045743400
v -24.217170407 112.154669348 143.045743400
v -24.180952669 112.151045217 143.045743400
v -24.144599305 112.149230896 143.045743400
v -24.108200695 112.149230896 143.045743400
v -24.071847331 112.151045217 143.045743400
v -24.035629593 112.154669348 143.045743400
v -23.999637525 112.160094280 143.045743400
v -23.963960608 112.167306524 143.045743401
v -23.928687542 112.176288150 143.045743401
v -23.893906019 112.187016829 143.045743401
v -23.859702514 112.199465887 143.045743401
v -23.826162060 112.213604374 143.045743401
v -23.793368045 112.229397139 143.045743401
v -23.761402000 112.246804919 143.045743401
v -23.730343398 112.265784436 143.045743401
v -23.700269454 112.286288504 143.045743402
v -23.671254939 112.308266145 143.045743402
v -23.643371985 112.331662721 143.045743402
v -23.616689916 112.356420064 143.045743402
v -23.591275066 112.382476622 143.045743402
v -23.567190621 112.409767616 143.045743402
v -23.544496458 112.438225196 143.045743402
v -23.523249000 112.467778611 143.045743402
v -23.503501070 112.498354387 143.045743402
v -23.485301764 112.529876509 143.045743402
v -23.468696330 112.562266606 143.045743402
v -23.453726051 112.595444152 143.045743402
v -23.440428146 112.629326663 143.045743402
v -23.428835674 112.663829902 143.045743403
v -23.418977457 112.698868087 143.045743403
v -23.410878005 112.734354108 143.045743403
v -23.404557452 112.770199742 143.045743403
v -23.400031514 112.806315870 143.045743403
v -23.397311443 112.842612703 143.045743403
v -23.396404000 112.879000000 143.045743403
v -23.397311443 112.915387297 143.045743403
v -23.400031514 112.951684130 143.045743403
v -23.404557452 112.987800258 143.045743403
v -23.410878005 113.023645892 143.045743403
v -23.418977457 113.059131913 143.045743403
v -23.428835674 113.094170098 143.045743403
v -23.440428146 113.128673337 143.045743402
v -23.453726051 113.162555848 143.045743402
v -23.468696330 113.195733394 143.045743402
v -23.485301764 113.228123491 143.045743402
v -23.503501070 113.259645613 143.045743402
v -23.523249000 113.290221389 143.045743402
v -23.544496458 113.319774804 143.045743402
v -23.567190621 113.348232384 143.045743402
v -23.591275066 113.375523378 143.045743402
v -23.616689916 113.401579936 143.045743402
v -23.643371985 113.426337279 143.045743402
v -23.671254939 113.449733855 143.045743402
v -23.700269454 113.471711496 143.045743402
v -23.730343398 113.492215564 143.045743401
v -23.761402000 113.511195081 143.045743401
v -23.793368045 113.528602861 143.045743401
v -23.826162060 113.544395626 143.045743401
v -23.859702514 113.558534113 143.045743401
v -23.893906019 113.570983171 143.045743401
v -23.928687542 113.581711850 143.045743401
v -23.963960608 113.590693476 143.045743401
v -23.999637525 113.597905720 143.045743400
v -24.035629593 113.603330652 143.045743400
v -24.071847331 113.606954783 143.045743400
v -24.108200695 113.608769104 143.045743400
v -24.144599305 113.608769104 143.045743400
v -24.180952669 113.606954783 143.045743400
v -24.217170407 113.603330652 143.045743400
v -24.253162475 113.597905720 143.045743400
v -24.288839392 113.590693476 143.045743399
v -24.324112458 113.581711850 143.045743399
v -24.358893981 113.570983171 143.045743399
v -24.393097486 113.558534113 143.045743399
v -24.426637940 113.544395626 143.045743399
v -24.459431955 113.528602861 143.045743399
v -24.491398000 113.511195081 143.045743399
v -24.522456602 113.492215564 143.045743399
v -24.552530546 113.471711496 143.045743398
v -24.581545061 113.449733855 143.045743398
v -24.609428015 113.426337279 143.045743398
v -24.636110084 113.401579936 143.045743398
v -24.661524934 113.375523378 143.045743398
v -24.685609379 113.348232384 143.045743398
v -24.708303542 113.319774804 143.045743398
v -24.729551000 113.290221389 143.045743398
v -24.749298930 113.259645613 143.045743398
v -24.767498236 113.228123491 143.045743398
v -24.784103670 113.195733394 143.045743398
v -24.799073949 113.162555848 143.045743398
v -24.812371854 113.128673337 143.045743398
v -24.823964326 113.094170098 143.045743397
v -24.833822543 113.059131913 143.045743397
v -24.841921995 113.023645892 143.045743397
v -24.848242548 112.987800258 143.045743397
v -24.852768486 112.951684130 143.045743397
v -24.855488557 112.915387297 143.045743397
f 1 2 3
f 4 5 6
f 4 7 5
f 8 9 10
f 11 12 13
f 14 15 16
f 14 17 15
f 18 12 11
f 19 14 16
f 20 12 18
f 20 18 21
f 22 23 19
f 24 25 26
f 27 28 29
f 27 30 28
f 31 32 24
f 33 30 27
f 34 35 31
f 36 37 34
f 36 38 37
f 36 31 24
f 36 34 31
f 39 30 33
f 39 40 41
f 39 42 40
f 39 43 42
f 39 33 43
f 39 44 30
f 45 46 36
f 47 45 36
f 48 49 50
f 48 51 49
f 48 39 51
f 48 44 39
f 52 48 53
f 54 48 52
f 54 52 55
f 56 57 58
f 59 48 54
f 59 54 60
f 61 62 63
f 64 61 63
f 65 56 58
f 65 66 67
f 65 68 66
f 65 69 68
f 65 16 69
f 65 70 22
f 65 26 70
f 65 71 72
f 65 73 71
f 65 74 73
f 65 75 74
f 65 76 75
f 65 77 76
f 65 64 63
f 65 78 77
f 65 79 78
f 65 80 79
f 65 81 80
f 65 82 81
f 65 83 82
f 65 84 83
f 65 85 47
f 65 67 84
f 65 86 85
f 65 87 86
f 65 58 87
f 65 88 56
f 65 89 88
f 65 63 89
f 65 47 36
f 65 36 24
f 65 19 16
f 65 22 19
f 65 24 26
f 90 91 92
f 90 93 91
f 90 94 93
f 90 95 94
f 90 59 95
f 96 90 97
f 98 99 100
f 101 98 100
f 101 102 65
f 101 100 102
f 103 90 96
f 103 104 105
f 103 96 104
f 106 107 7
f 106 108 107
f 106 1 108
f 106 109 2
f 106 110 109
f 106 111 110
f 106 112 111
f 106 72 112
f 106 65 72
f 106 2 1
f 106 101 65
f 106 113 101
f 106 7 4
f 106 114 115
f 106 116 114
f 106 117 116
f 106 4 117
f 118 90 103
f 118 103 119
f 120 121 106
f 122 118 123
f 124 9 8
f 124 120 106
f 124 118 122
f 124 12 20
f 124 48 59
f 124 90 118
f 124 59 90
f 124 125 44
f 124 44 48
f 124 20 125
f 124 8 12
f 124 126 9
f 124 115 126
f 124 106 115
f 84 67 127
f 84 127 128
f 83 84 128
f 83 128 129
f 82 83 129
f 82 129 130
f 81 82 130
f 81 130 131
f 80 81 131
f 80 131 132
f 79 132 133
f 79 80 132
f 78 133 134
f 78 79 133
f 77 134 135
f 77 78 134
f 76 135 136
f 76 77 135
f 75 136 137
f 75 76 136
f 74 137 138
f 74 75 137
f 73 138 139
f 73 74 138
f 71 139 140
f 71 73 139
f 72 140 141
f 72 71 140
f 112 141 142
f 112 72 141
f 111 142 143
f 111 112 142
f 110 143 144
f 110 111 143
f 109 110 144
f 109 144 145
f 2 109 145
f 2 145 146
f 3 2 146
f 3 146 147
f 1 3 147
f 1 147 148
f 108 1 148
f 108 148 149
f 107 108 149
f 107 149 150
f 7 107 150
f 7 150 151
f 5 7 151
f 5 151 152
f 6 5 152
f 6 152 153
f 4 153 154
f 4 6 153
f 117 154 155
f 117 4 154
f 116 117 155
f 116 155 156
f 114 156 157
f 114 116 156
f 115 157 158
f 115 114 157
f 126 158 159
f 126 115 158
f 9 159 160
f 9 126 159
f 10 160 161
f 10 9 160
f 8 161 162
f 8 10 161
f 12 162 163
f 12 8 162
f 13 164 165
f 13 163 164
f 13 12 163
f 11 13 165
f 18 165 166
f 18 11 165
f 21 166 167
f 21 18 166
f 20 167 168
f 20 21 167
f 125 168 169
f 125 20 168
f 44 125 169
f 44 170 171
f 44 169 170
f 30 44 171
f 28 30 171
f 28 171 172
f 29 28 172
f 29 172 173
f 27 29 173
f 27 173 174
f 33 27 174
f 33 174 175
f 43 175 176
f 43 33 175
f 42 43 176
f 42 176 177
f 40 178 179
f 40 177 178
f 40 42 177
f 41 40 179
f 39 179 180
f 39 41 179
f 51 180 181
f 51 39 180
f 49 182 183
f 49 181 182
f 49 51 181
f 50 49 183
f 48 183 184
f 48 50 183
f 53 184 185
f 53 48 184
f 52 185 186
f 52 53 185
f 55 186 187
f 55 52 186
f 54 187 188
f 54 55 187
f 60 188 189
f 60 54 188
f 59 189 190
f 59 60 189
f 95 59 190
f 95 190 191
f 94 95 191
f 94 191 192
f 93 94 192
f 93 192 193
f 91 93 193
f 91 193 194
f 92 91 194
f 92 194 195
f 90 195 196
f 90 92 195
f 97 196 197
f 97 90 196
f 96 197 198
f 96 97 197
f 104 198 199
f 104 96 198
f 105 199 200
f 105 104 199
f 103 200 201
f 103 105 200
f 119 201 202
f 119 103 201
f 118 202 203
f 118 119 202
f 123 203 204
f 123 118 203
f 122 204 205
f 122 123 204
f 124 205 206
f 124 122 205
f 120 206 207
f 120 124 206
f 121 120 207
f 121 207 208
f 106 121 208
f 106 208 209
f 113 106 209
f 113 209 210
f 101 113 210
f 101 210 211
f 98 101 211
f 98 211 212
f 99 98 212
f 99 212 213
f 100 99 213
f 100 213 214
f 102 100 214
f 102 214 215
f 65 102 215
f 65 216 217
f 65 215 216
f 64 217 218
f 64 65 217
f 61 64 218
f 62 218 219
f 62 61 218
f 63 220 221
f 63 219 220
f 63 62 219
f 89 221 222
f 89 63 221
f 88 89 222
f 56 223 224
f 56 222 223
f 56 88 222
f 57 56 224
f 58 225 226
f 58 224 225
f 58 57 224
f 87 58 226
f 86 226 227
f 86 87 226
f 85 227 228
f 85 86 227
f 47 228 229
f 47 85 228
f 45 229 230
f 45 47 229
f 46 230 231
f 46 45 230
f 36 231 232
f 36 46 231
f 38 36 232
f 38 232 233
f 37 38 233
f 37 233 234
f 34 37 234
f 34 234 235
f 35 34 235
f 35 235 236
f 31 35 236
f 31 236 237
f 32 238 239
f 32 237 238
f 32 31 237
f 24 32 239
f 25 239 240
f 25 24 239
f 26 240 241
f 26 25 240
f 70 241 242
f 70 26 241
f 22 242 243
f 22 70 242
f 23 243 244
f 23 22 243
f 19 245 246
f 19 244 245
f 19 23 244
f 14 19 246
f 17 246 247
f 17 14 246
f 15 247 248
f 15 17 247
f 16 248 249
f 16 15 248
f 69 249 250
f 69 16 249
f 68 250 251
f 68 69 250
f 66 251 252
f 66 68 251
f 67 252 127
f 67 66 252
f 226 228 227
f 219 221 220
f 218 221 219
f 215 218 217
f 215 217 216
f 212 214 213
f 137 136 135
f 137 135 134
f 211 214 212
f 208 211 210
f 208 210 209
f 141 140 139
f 141 139 138
f 141 138 137
f 207 214 211
f 207 215 214
f 207 211 208
f 205 207 206
f 144 143 142
f 144 142 141
f 203 205 204
f 203 207 205
f 146 145 144
f 146 144 141
f 201 203 202
f 149 148 147
f 199 201 200
f 199 203 201
f 150 149 147
f 151 147 146
f 151 150 147
f 197 199 198
f 197 203 199
f 154 153 152
f 154 152 151
f 156 155 154
f 192 195 194
f 192 194 193
f 190 192 191
f 160 159 158
f 160 158 157
f 187 195 192
f 187 192 190
f 187 196 195
f 187 190 189
f 187 189 188
f 163 162 161
f 165 164 163
f 183 187 186
f 183 186 185
f 183 185 184
f 166 127 252
f 166 252 251
f 166 251 250
f 166 137 134
f 166 250 249
f 166 249 248
f 166 248 247
f 166 156 154
f 166 247 246
f 166 246 245
f 166 245 244
f 166 244 243
f 166 243 242
f 166 242 241
f 166 241 240
f 166 240 239
f 166 239 238
f 166 238 237
f 166 237 236
f 166 236 235
f 166 134 133
f 166 235 234
f 166 133 132
f 166 234 233
f 166 132 131
f 166 233 232
f 166 131 130
f 166 160 157
f 166 141 137
f 166 130 129
f 166 165 163
f 166 129 128
f 166 128 127
f 166 163 161
f 166 146 141
f 166 151 146
f 166 161 160
f 166 157 156
f 166 154 151
f 181 187 183
f 181 183 182
f 168 167 166
f 178 181 180
f 178 180 179
f 171 168 166
f 171 170 169
f 171 169 168
f 172 171 166
f 176 181 178
f 176 178 177
f 175 181 176
f 174 218 215
f 174 232 231
f 174 231 230
f 174 230 229
f 174 229 228
f 174 226 225
f 174 225 224
f 174 166 232
f 174 224 223
f 174 223 222
f 174 222 221
f 174 172 166
f 174 187 181
f 174 197 196
f 174 228 226
f 174 207 203
f 174 196 187
f 174 173 172
f 174 221 218
f 174 215 207
f 174 203 197
f 174 181 175
