# Full FreeCAD instance transform baked; body-local coordinates in mm
v -63.140600000 94.350299000 143.400000000
v -62.890600000 94.350299000 143.400000000
v -63.140600000 94.350299000 141.300000000
v -62.890600000 94.350299000 141.300000000
v -63.140600000 90.783024278 141.206476530
v -63.140600000 90.835216439 141.164854670
v -63.140600000 90.806775530 141.182725277
v -63.140600000 90.765153670 141.234917439
v -63.140600000 90.866920860 141.153760813
v -63.140600000 90.750299000 141.300000000
v -63.140600000 90.900299000 141.150000000
v -63.140600000 90.754059813 141.266621860
v -63.140600000 91.272265991 141.571966991
v -63.140600000 91.296597742 141.555709035
v -63.140600000 91.256008035 141.596298742
v -63.140600000 90.750299000 141.865740940
v -63.140600000 91.250299000 141.625000000
v -63.140600000 91.325299000 141.550000000
v -63.140600000 90.950299000 142.044900647
v -63.140600000 91.902224930 141.550000000
v -63.140600000 91.935774427 141.547484676
v -63.140600000 91.968573810 141.539994944
v -63.140600000 91.999889736 141.527698262
v -63.140600000 92.029022031 141.510869565
v -63.140600000 92.067776497 141.485825092
v -63.140600000 92.107731672 141.462744400
v -63.140600000 92.148788129 141.441684921
v -63.140600000 92.190843704 141.422699061
v -63.140600000 92.233793747 141.405834063
v -63.140600000 92.277531381 141.391131895
v -63.140600000 92.321947768 141.378629142
v -63.140600000 92.366932384 141.368356914
v -63.140600000 92.412373289 141.360340775
v -63.140600000 92.458157408 141.354600670
v -63.140600000 92.504170811 141.351150883
v -63.140600000 92.550299000 141.350000000
v -63.140600000 90.765153670 143.465082561
v -63.140600000 90.783024278 143.493523470
v -63.140600000 90.754059813 143.433378140
v -63.140600000 90.750299000 143.400000000
v -63.140600000 91.250299000 143.075000000
v -63.140600000 90.750299000 142.834259060
v -63.140600000 90.950299000 142.655099352
v -63.140600000 91.256008035 143.103701257
v -63.140600000 90.835216439 143.535145330
v -63.140600000 90.806775530 143.517274722
v -63.140600000 91.272265991 143.128033008
v -63.140600000 90.866920860 143.546239187
v -63.140600000 90.900299000 143.550000000
v -63.140600000 91.296597742 143.144290965
v -63.140600000 91.325299000 143.150000000
v -63.140600000 93.100708264 141.527698262
v -63.140600000 93.198373070 141.550000000
v -63.140600000 93.071575970 141.510869565
v -63.140600000 93.132024190 141.539994944
v -63.140600000 93.164823573 141.547484676
v -63.140600000 93.032821503 141.485825093
v -63.140600000 92.992866328 141.462744400
v -63.140600000 92.012520175 143.177608089
v -63.140600000 91.975842736 143.150000000
v -63.140600000 92.050522187 143.203362471
v -63.140600000 92.089755170 143.227199714
v -63.140600000 93.775299000 141.550000000
v -63.140600000 94.200299000 141.150000000
v -63.140600000 92.596427189 141.351150883
v -63.140600000 92.642440592 141.354600670
v -63.140600000 92.688224711 141.360340775
v -63.140600000 92.733665616 141.368356914
v -63.140600000 92.778650232 141.378629142
v -63.140600000 92.823066619 141.391131895
v -63.140600000 92.866804253 141.405834063
v -63.140600000 92.909754296 141.422699061
v -63.140600000 92.951809871 141.441684921
v -63.140600000 93.804000257 141.555709035
v -63.140600000 92.130122493 143.249061104
v -63.140600000 93.828332008 141.571966991
v -63.140600000 92.171524729 143.268892796
v -63.140600000 94.233677140 141.153760813
v -63.140600000 94.293822470 141.182725277
v -63.140600000 94.265381561 141.164854670
v -63.140600000 92.213859902 143.286645944
v -63.140600000 94.317573722 141.206476530
v -63.140600000 92.257023739 143.302276821
v -63.140600000 94.335444330 141.234917439
v -63.140600000 92.300909925 143.315746928
v -63.140600000 94.346538187 141.266621860
v -63.140600000 93.844589965 141.596298742
v -63.140600000 93.850299000 141.625000000
v -63.140600000 92.345410367 143.327023086
v -63.140600000 93.088077825 143.177608088
v -63.140600000 93.775299000 143.150000000
v -63.140600000 93.124755265 143.150000000
v -63.140600000 93.050075813 143.203362471
v -63.140600000 93.850299000 143.075000000
v -63.140600000 93.844589965 143.103701257
v -63.140600000 93.828332008 143.128033008
v -63.140600000 94.200299000 143.550000000
v -63.140600000 93.804000257 143.144290965
v -63.140600000 93.010842830 143.227199714
v -63.140600000 92.970475507 143.249061104
v -63.140600000 92.929073271 143.268892796
v -63.140600000 92.886738099 143.286645944
v -63.140600000 92.843574262 143.302276821
v -63.140600000 92.799688075 143.315746927
v -63.140600000 92.755187633 143.327023086
v -63.140600000 94.335444330 143.465082561
v -63.140600000 94.346538187 143.433378140
v -63.140600000 94.233677140 143.546239187
v -63.140600000 94.265381561 143.535145330
v -63.140600000 94.293822470 143.517274722
v -63.140600000 94.317573722 143.493523470
v -63.140600000 92.527345563 143.349715167
v -63.140600000 92.481495224 143.347437553
v -63.140600000 92.435814351 143.342887937
v -63.140600000 92.390415459 143.336077523
v -63.140600000 92.573252437 143.349715167
v -63.140600000 92.619102777 143.347437553
v -63.140600000 92.664783649 143.342887937
v -63.140600000 92.710182541 143.336077523
v -63.740600000 93.775299000 141.550000000
v -63.740600000 93.804000257 141.555709035
v -63.740600000 93.828332008 141.571966991
v -63.740600000 93.844589965 141.596298742
v -63.740600000 93.850299000 141.625000000
v -63.740600000 93.850299000 143.075000000
v -63.740600000 93.844589965 143.103701257
v -63.740600000 93.828332008 143.128033008
v -63.740600000 93.804000257 143.144290965
v -63.740600000 93.775299000 143.150000000
v -63.740600000 93.124755265 143.150000000
v -63.740600000 93.088077825 143.177608088
v -63.740600000 93.050075813 143.203362471
v -63.740600000 93.010842830 143.227199713
v -63.740600000 92.970475507 143.249061104
v -63.740600000 92.929073272 143.268892796
v -63.740600000 92.886738099 143.286645944
v -63.740600000 92.843574262 143.302276821
v -63.740600000 92.799688075 143.315746927
v -63.740600000 92.755187633 143.327023086
v -63.740600000 92.710182541 143.336077523
v -63.740600000 92.664783649 143.342887937
v -63.740600000 92.619102777 143.347437553
v -63.740600000 92.573252437 143.349715167
v -63.740600000 92.527345563 143.349715167
v -63.740600000 92.481495224 143.347437553
v -63.740600000 92.435814351 143.342887937
v -63.740600000 92.390415459 143.336077523
v -63.740600000 92.345410367 143.327023086
v -63.740600000 92.300909925 143.315746927
v -63.740600000 92.257023738 143.302276821
v -63.740600000 92.213859901 143.286645944
v -63.740600000 92.171524729 143.268892796
v -63.740600000 92.130122493 143.249061104
v -63.740600000 92.089755170 143.227199714
v -63.740600000 92.050522187 143.203362471
v -63.740600000 92.012520175 143.177608088
v -63.740600000 91.975842736 143.150000000
v -63.740600000 91.325299000 143.150000000
v -63.740600000 91.296597742 143.144290965
v -63.740600000 91.272265991 143.128033008
v -63.740600000 91.256008035 143.103701257
v -63.740600000 91.250299000 143.075000000
v -63.740600000 91.250299000 141.625000000
v -63.740600000 91.256008035 141.596298742
v -63.740600000 91.272265991 141.571966991
v -63.740600000 91.296597742 141.555709035
v -63.740600000 91.325299000 141.550000000
v -63.740600000 91.902224930 141.550000000
v -63.740600000 92.029022031 141.510869565
v -63.740600000 91.999889736 141.527698262
v -63.740600000 91.968573810 141.539994944
v -63.740600000 91.935774427 141.547484676
v -63.740600000 92.067776498 141.485825092
v -63.740600000 92.107731672 141.462744399
v -63.740600000 92.148788129 141.441684921
v -63.740600000 92.190843705 141.422699061
v -63.740600000 92.233793748 141.405834063
v -63.740600000 92.277531381 141.391131895
v -63.740600000 92.321947769 141.378629142
v -63.740600000 92.366932384 141.368356914
v -63.740600000 92.412373289 141.360340775
v -63.740600000 92.458157408 141.354600670
v -63.740600000 92.504170811 141.351150883
v -63.740600000 92.550299000 141.350000000
v -63.740600000 92.596427189 141.351150883
v -63.740600000 92.642440592 141.354600670
v -63.740600000 92.688224711 141.360340775
v -63.740600000 92.733665616 141.368356914
v -63.740600000 92.778650231 141.378629142
v -63.740600000 92.823066619 141.391131895
v -63.740600000 92.866804252 141.405834063
v -63.740600000 92.909754295 141.422699061
v -63.740600000 92.951809871 141.441684921
v -63.740600000 92.992866328 141.462744400
v -63.740600000 93.032821502 141.485825092
v -63.740600000 93.071575970 141.510869565
v -63.740600000 93.198373070 141.550000000
v -63.740600000 93.164823573 141.547484676
v -63.740600000 93.132024190 141.539994944
v -63.740600000 93.100708264 141.527698262
v -62.890600000 94.200299000 143.550000000
v -62.890600000 94.233677140 143.546239187
v -62.890600000 94.265381561 143.535145330
v -62.890600000 94.293822470 143.517274722
v -62.890600000 94.317573722 143.493523470
v -62.890600000 94.335444330 143.465082561
v -62.890600000 94.346538187 143.433378140
v -62.890600000 90.866920860 141.153760813
v -62.890600000 90.806775530 141.182725277
v -62.890600000 90.835216439 141.164854670
v -62.890600000 90.750299000 141.300000000
v -62.890600000 90.754059813 141.266621860
v -62.890600000 90.765153670 141.234917439
v -62.890600000 90.783024278 141.206476530
v -62.890600000 90.900299000 141.150000000
v -62.890600000 91.350299000 141.860102051
v -62.890600000 90.950299000 142.044900647
v -62.890600000 90.750299000 141.865740940
v -62.890600000 91.350299000 142.067157287
v -62.890600000 91.550299000 142.350000000
v -62.890600000 91.381259120 142.080093633
v -62.890600000 91.410580960 142.096406441
v -62.890600000 91.437897712 142.115891642
v -62.890600000 91.462867650 142.138305482
v -62.890600000 91.485178407 142.163367569
v -62.890600000 91.504550879 142.190764382
v -62.890600000 91.520742722 142.220153193
v -62.890600000 91.533551380 142.251166357
v -62.890600000 91.542816620 142.283415905
v -62.890600000 91.548422536 142.316498404
v -62.890600000 92.111304771 141.837253408
v -62.890600000 92.085944610 141.860102051
v -62.890600000 92.137787600 141.815716045
v -62.890600000 92.165325369 141.795545039
v -62.890600000 92.193847656 141.776791975
v -62.890600000 92.223281519 141.759504812
v -62.890600000 91.350299000 142.632842712
v -62.890600000 90.950299000 142.655099352
v -62.890600000 92.253551683 141.743727759
v -62.890600000 91.520742722 142.479846806
v -62.890600000 91.548422536 142.383501596
v -62.890600000 91.542816620 142.416584095
v -62.890600000 91.533551380 142.448833643
v -62.890600000 91.381259119 142.619906367
v -62.890600000 92.284580738 141.729501164
v -62.890600000 91.462867650 142.561694517
v -62.890600000 91.504550879 142.509235618
v -62.890600000 91.485178407 142.536632431
v -62.890600000 91.437897712 142.584108357
v -62.890600000 91.410580960 142.603593559
v -62.890600000 92.316289330 141.716861409
v -62.890600000 92.348596371 141.705840820
v -62.890600000 92.381419238 141.696467578
v -62.890600000 92.414673991 141.688765656
v -62.890600000 92.448275587 141.682754750
v -62.890600000 92.482138094 141.678450232
v -62.890600000 91.350299000 142.839897948
v -62.890600000 90.750299000 143.400000000
v -62.890600000 90.750299000 142.834259060
v -62.890600000 92.516174913 141.675863110
v -62.890600000 92.550299000 141.675000000
v -62.890600000 90.806775530 143.517274722
v -62.890600000 90.783024278 143.493523470
v -62.890600000 90.765153670 143.465082561
v -62.890600000 90.866920860 143.546239187
v -62.890600000 90.835216439 143.535145330
v -62.890600000 90.900299000 143.550000000
v -62.890600000 90.754059813 143.433378140
v -62.890600000 92.111304771 142.862746591
v -62.890600000 92.085944610 142.839897948
v -62.890600000 92.137787599 142.884283955
v -62.890600000 92.165325369 142.904454961
v -62.890600000 92.193847656 142.923208024
v -62.890600000 92.223281518 142.940495188
v -62.890600000 92.253551683 142.956272240
v -62.890600000 92.284580738 142.970498835
v -62.890600000 92.316289330 142.983138590
v -62.890600000 92.348596371 142.994159180
v -62.890600000 94.200299000 141.150000000
v -62.890600000 92.935272631 141.795545039
v -62.890600000 92.906750344 141.776791975
v -62.890600000 92.877316482 141.759504812
v -62.890600000 92.847046317 141.743727759
v -62.890600000 92.816017262 141.729501164
v -62.890600000 92.784308670 141.716861410
v -62.890600000 92.752001629 141.705840820
v -62.890600000 92.719178762 141.696467578
v -62.890600000 92.685924009 141.688765656
v -62.890600000 92.652322413 141.682754750
v -62.890600000 92.618459906 141.678450232
v -62.890600000 92.584423087 141.675863110
v -62.890600000 92.381419238 143.003532421
v -62.890600000 92.414673991 143.011234343
v -62.890600000 92.448275587 143.017245250
v -62.890600000 92.482138094 143.021549768
v -62.890600000 94.317573722 141.206476530
v -62.890600000 94.265381561 141.164854670
v -62.890600000 94.293822470 141.182725277
v -62.890600000 93.750299000 141.860102051
v -62.890600000 93.014653391 141.860102051
v -62.890600000 92.989293229 141.837253409
v -62.890600000 92.962810400 141.815716045
v -62.890600000 94.346538187 141.266621860
v -62.890600000 94.233677140 141.153760813
v -62.890600000 94.335444330 141.234917439
v -62.890600000 93.579855278 142.220153193
v -62.890600000 93.596047121 142.190764382
v -62.890600000 93.615419593 142.163367569
v -62.890600000 93.750299000 142.067157287
v -62.890600000 93.567046619 142.251166357
v -62.890600000 93.637730349 142.138305482
v -62.890600000 93.662700288 142.115891642
v -62.890600000 93.690017040 142.096406441
v -62.890600000 93.552175463 142.316498404
v -62.890600000 93.557781379 142.283415905
v -62.890600000 93.552175463 142.383501596
v -62.890600000 93.550299000 142.350000000
v -62.890600000 93.557781379 142.416584095
v -62.890600000 93.719338880 142.080093633
v -62.890600000 93.596047121 142.509235618
v -62.890600000 93.579855278 142.479846806
v -62.890600000 93.567046619 142.448833643
v -62.890600000 93.637730349 142.561694517
v -62.890600000 93.615419593 142.536632431
v -62.890600000 93.690017040 142.603593559
v -62.890600000 93.662700288 142.584108357
v -62.890600000 93.750299000 142.632842712
v -62.890600000 93.719338880 142.619906367
v -62.890600000 93.750299000 142.839897948
v -62.890600000 92.935272631 142.904454961
v -62.890600000 92.962810401 142.884283954
v -62.890600000 92.989293229 142.862746591
v -62.890600000 93.014653391 142.839897948
v -62.890600000 92.618459906 143.021549768
v -62.890600000 92.652322413 143.017245249
v -62.890600000 92.685924009 143.011234343
v -62.890600000 92.719178762 143.003532421
v -62.890600000 92.752001629 142.994159180
v -62.890600000 92.784308670 142.983138590
v -62.890600000 92.816017262 142.970498835
v -62.890600000 92.847046317 142.956272240
v -62.890600000 92.877316482 142.940495187
v -62.890600000 92.906750344 142.923208024
v -62.890600000 92.550299000 143.025000000
v -62.890600000 92.516174913 143.024136890
v -62.890600000 92.584423087 143.024136890
v -63.090600000 93.750299000 142.067157287
v -63.090600000 93.750299000 141.860102051
v -63.090600000 93.014653391 141.860102051
v -63.090600000 92.085944610 141.860102051
v -63.090600000 92.111304771 141.837253409
v -63.090600000 92.137787599 141.815716045
v -63.090600000 92.165325369 141.795545039
v -63.090600000 92.193847656 141.776791975
v -63.090600000 92.223281518 141.759504812
v -63.090600000 92.253551683 141.743727759
v -63.090600000 92.284580738 141.729501164
v -63.090600000 92.316289330 141.716861409
v -63.090600000 92.348596371 141.705840820
v -63.090600000 92.381419238 141.696467578
v -63.090600000 92.414673991 141.688765656
v -63.090600000 92.448275587 141.682754750
v -63.090600000 92.482138094 141.678450232
v -63.090600000 92.516174913 141.675863110
v -63.090600000 92.550299000 141.675000000
v -63.090600000 92.584423087 141.675863110
v -63.090600000 92.618459906 141.678450232
v -63.090600000 92.652322413 141.682754750
v -63.090600000 92.685924009 141.688765656
v -63.090600000 92.719178763 141.696467578
v -63.090600000 92.752001630 141.705840820
v -63.090600000 92.784308670 141.716861410
v -63.090600000 92.816017263 141.729501164
v -63.090600000 92.847046317 141.743727759
v -63.090600000 92.877316482 141.759504812
v -63.090600000 92.906750344 141.776791975
v -63.090600000 92.935272631 141.795545039
v -63.090600000 92.962810401 141.815716045
v -63.090600000 92.989293229 141.837253409
v -63.090600000 91.350299000 141.860102051
v -63.090600000 91.350299000 142.067157287
v -63.090600000 91.381259119 142.080093633
v -63.090600000 91.410580960 142.096406441
v -63.090600000 91.437897712 142.115891642
v -63.090600000 91.462867650 142.138305482
v -63.090600000 91.485178407 142.163367569
v -63.090600000 91.504550879 142.190764382
v -63.090600000 91.520742722 142.220153193
v -63.090600000 91.533551380 142.251166357
v -63.090600000 91.542816620 142.283415905
v -63.090600000 91.548422536 142.316498404
v -63.090600000 91.550299000 142.350000000
v -63.090600000 91.548422536 142.383501596
v -63.090600000 91.542816620 142.416584095
v -63.090600000 91.533551380 142.448833643
v -63.090600000 91.520742722 142.479846806
v -63.090600000 91.504550879 142.509235618
v -63.090600000 91.485178407 142.536632431
v -63.090600000 91.462867650 142.561694517
v -63.090600000 91.437897712 142.584108357
v -63.090600000 91.410580960 142.603593559
v -63.090600000 91.381259120 142.619906367
v -63.090600000 91.350299000 142.632842712
v -63.090600000 91.350299000 142.839897948
v -63.090600000 92.085944610 142.839897948
v -63.090600000 93.014653391 142.839897948
v -63.090600000 92.989293229 142.862746591
v -63.090600000 92.962810400 142.884283955
v -63.090600000 92.935272631 142.904454961
v -63.090600000 92.906750344 142.923208024
v -63.090600000 92.877316482 142.940495187
v -63.090600000 92.847046317 142.956272240
v -63.090600000 92.816017262 142.970498835
v -63.090600000 92.784308670 142.983138590
v -63.090600000 92.752001629 142.994159180
v -63.090600000 92.719178762 143.003532421
v -63.090600000 92.685924009 143.011234343
v -63.090600000 92.652322413 143.017245249
v -63.090600000 92.618459906 143.021549768
v -63.090600000 92.584423087 143.024136890
v -63.090600000 92.550299000 143.025000000
v -63.090600000 92.516174913 143.024136890
v -63.090600000 92.482138094 143.021549768
v -63.090600000 92.448275588 143.017245250
v -63.090600000 92.414673992 143.011234343
v -63.090600000 92.381419238 143.003532421
v -63.090600000 92.348596371 142.994159180
v -63.090600000 92.316289331 142.983138590
v -63.090600000 92.284580738 142.970498836
v -63.090600000 92.253551683 142.956272241
v -63.090600000 92.223281519 142.940495188
v -63.090600000 92.193847656 142.923208025
v -63.090600000 92.165325369 142.904454961
v -63.090600000 92.137787600 142.884283955
v -63.090600000 92.111304771 142.862746591
v -63.090600000 93.750299000 142.839897948
v -63.090600000 93.750299000 142.632842712
v -63.090600000 93.719338880 142.619906367
v -63.090600000 93.690017040 142.603593559
v -63.090600000 93.662700288 142.584108357
v -63.090600000 93.637730349 142.561694517
v -63.090600000 93.615419593 142.536632431
v -63.090600000 93.596047121 142.509235618
v -63.090600000 93.579855278 142.479846806
v -63.090600000 93.567046619 142.448833643
v -63.090600000 93.557781379 142.416584095
v -63.090600000 93.552175463 142.383501596
v -63.090600000 93.550299000 142.350000000
v -63.090600000 93.552175463 142.316498404
v -63.090600000 93.557781379 142.283415905
v -63.090600000 93.567046619 142.251166357
v -63.090600000 93.579855278 142.220153193
v -63.090600000 93.596047121 142.190764382
v -63.090600000 93.615419593 142.163367569
v -63.090600000 93.637730349 142.138305482
v -63.090600000 93.662700288 142.115891642
v -63.090600000 93.690017040 142.096406441
v -63.090600000 93.719338880 142.080093633
v -63.090600000 92.879984243 142.008045850
v -63.090600000 92.904065787 142.033023564
v -63.090600000 92.854143685 141.984892608
v -63.090600000 92.926259832 142.059692486
v -63.090600000 92.826681985 141.963687373
v -63.090600000 92.946447963 142.087910323
v -63.090600000 92.797745662 141.944543282
v -63.090600000 92.964522469 142.117526522
v -63.090600000 92.767489103 141.927562479
v -63.090600000 92.980386913 142.148383068
v -63.090600000 92.736073742 141.912835563
v -63.090600000 92.993956652 142.180315327
v -63.090600000 92.703667192 141.900441108
v -63.090600000 93.005159285 142.213152928
v -63.090600000 92.670442357 141.890445244
v -63.090600000 93.013935042 142.246720666
v -63.090600000 92.636576504 141.882901303
v -63.090600000 93.020237100 142.280839445
v -63.090600000 92.602250324 141.877849537
v -63.090600000 93.024031835 142.315327225
v -63.090600000 92.567646961 141.875316897
v -63.090600000 93.025299000 142.350000000
v -63.090600000 92.532951039 141.875316897
v -63.090600000 93.024031835 142.384672774
v -63.090600000 92.498347676 141.877849537
v -63.090600000 93.020237100 142.419160554
v -63.090600000 92.464021496 141.882901303
v -63.090600000 93.013935042 142.453279333
v -63.090600000 92.430155643 141.890445244
v -63.090600000 93.005159285 142.486847072
v -63.090600000 92.396930808 141.900441108
v -63.090600000 92.993956652 142.519684672
v -63.090600000 92.364524258 141.912835563
v -63.090600000 92.333108896 141.927562479
v -63.090600000 92.302852338 141.944543282
v -63.090600000 92.273916015 141.963687373
v -63.090600000 92.246454315 141.984892608
v -63.090600000 92.220613757 142.008045850
v -63.090600000 92.904065787 142.666976435
v -63.090600000 92.879984243 142.691954150
v -63.090600000 92.926259832 142.640307514
v -63.090600000 92.946447963 142.612089677
v -63.090600000 92.964522469 142.582473477
v -63.090600000 92.980386913 142.551616932
v -63.090600000 92.196532213 142.033023564
v -63.090600000 92.854143685 142.715107391
v -63.090600000 92.174338168 142.059692486
v -63.090600000 92.826681985 142.736312627
v -63.090600000 92.154150036 142.087910323
v -63.090600000 92.797745662 142.755456717
v -63.090600000 92.136075531 142.117526522
v -63.090600000 92.120211087 142.148383068
v -63.090600000 92.767489103 142.772437521
v -63.090600000 92.106641348 142.180315327
v -63.090600000 92.736073742 142.787164437
v -63.090600000 92.703667192 142.799558892
v -63.090600000 92.670442357 142.809554756
v -63.090600000 92.636576504 142.817098696
v -63.090600000 92.602250324 142.822150463
v -63.090600000 92.567646961 142.824683103
v -63.090600000 92.532951039 142.824683103
v -63.090600000 92.498347676 142.822150463
v -63.090600000 92.464021496 142.817098696
v -63.090600000 92.430155643 142.809554756
v -63.090600000 92.396930808 142.799558892
v -63.090600000 92.364524258 142.787164437
v -63.090600000 92.095438715 142.213152928
v -63.090600000 92.333108896 142.772437521
v -63.090600000 92.302852338 142.755456717
v -63.090600000 92.086662958 142.246720666
v -63.090600000 92.273916015 142.736312627
v -63.090600000 92.080360900 142.280839445
v -63.090600000 92.246454315 142.715107391
v -63.090600000 92.220613757 142.691954150
v -63.090600000 92.120211087 142.551616932
v -63.090600000 92.106641348 142.519684672
v -63.090600000 92.136075531 142.582473477
v -63.090600000 92.154150036 142.612089677
v -63.090600000 92.174338168 142.640307514
v -63.090600000 92.196532213 142.666976435
v -63.090600000 92.076566165 142.315327225
v -63.090600000 92.076566165 142.384672774
v -63.090600000 92.075299000 142.350000000
v -63.090600000 92.080360900 142.419160554
v -63.090600000 92.086662958 142.453279333
v -63.090600000 92.095438715 142.486847072
v -62.640600000 92.075299000 142.350000000
v -62.640600000 92.076566165 142.384672774
v -62.640600000 92.080360900 142.419160554
v -62.640600000 92.086662958 142.453279333
v -62.640600000 92.095438715 142.486847072
v -62.640600000 92.106641348 142.519684672
v -62.640600000 92.120211087 142.551616932
v -62.640600000 92.136075531 142.582473477
v -62.640600000 92.154150036 142.612089677
v -62.640600000 92.174338168 142.640307514
v -62.640600000 92.196532213 142.666976435
v -62.640600000 92.220613757 142.691954150
v -62.640600000 92.246454315 142.715107391
v -62.640600000 92.273916015 142.736312627
v -62.640600000 92.302852338 142.755456717
v -62.640600000 92.333108896 142.772437521
v -62.640600000 92.364524258 142.787164437
v -62.640600000 92.396930808 142.799558892
v -62.640600000 92.430155643 142.809554756
v -62.640600000 92.464021496 142.817098696
v -62.640600000 92.498347676 142.822150463
v -62.640600000 92.532951039 142.824683103
v -62.640600000 92.567646961 142.824683103
v -62.640600000 92.602250324 142.822150463
v -62.640600000 92.636576504 142.817098696
v -62.640600000 92.670442357 142.809554756
v -62.640600000 92.703667192 142.799558892
v -62.640600000 92.736073742 142.787164437
v -62.640600000 92.767489103 142.772437521
v -62.640600000 92.797745662 142.755456717
v -62.640600000 92.826681985 142.736312627
v -62.640600000 92.854143685 142.715107391
v -62.640600000 92.879984243 142.691954150
v -62.640600000 92.904065787 142.666976435
v -62.640600000 92.926259832 142.640307514
v -62.640600000 92.946447963 142.612089677
v -62.640600000 92.964522469 142.582473477
v -62.640600000 92.980386913 142.551616932
v -62.640600000 92.993956652 142.519684672
v -62.640600000 93.005159285 142.486847072
v -62.640600000 93.013935042 142.453279333
v -62.640600000 93.020237100 142.419160554
v -62.640600000 93.024031835 142.384672774
v -62.640600000 93.025299000 142.350000000
v -62.614718095 93.021891583 142.350000000
v -62.590600000 92.089927884 142.383694822
v -62.590600000 92.088696460 142.350000000
v -62.569889322 92.104588322 142.350000000
v -62.569889322 92.105896126 142.384118819
v -62.614718095 92.079964492 142.384424049
v -62.614718095 92.078706417 142.350000000
v -62.590600000 92.093615588 142.417209869
v -62.569889322 92.109811862 142.418037416
v -62.614718095 92.083732006 142.418664431
v -62.590600000 92.099739895 142.450366321
v -62.569889322 92.116312552 142.451556742
v -62.614718095 92.089988856 142.452538458
v -62.590600000 92.108268130 142.482987276
v -62.569889322 92.125360047 142.484480092
v -62.614718095 92.098701660 142.485865398
v -62.590600000 92.119154791 142.514898686
v -62.569889322 92.136901253 142.516614260
v -62.614718095 92.109823931 142.518467438
v -62.590600000 92.132341793 142.545930290
v -62.569889322 92.150868442 142.547770670
v -62.590600000 92.136626702 142.554822204
v -62.614718095 92.123296327 142.550170631
v -62.590600000 92.147758778 142.575916522
v -62.569889322 92.167179647 142.577766482
v -62.614718095 92.127673970 142.559254984
v -62.590600000 92.153519486 142.585887520
v -62.614718095 92.139046967 142.580805827
v -62.590600000 92.165323488 142.604697391
v -62.569889322 92.185739150 142.606425670
v -62.614718095 92.144932349 142.590992619
v -62.590600000 92.172740729 142.615568555
v -62.614718095 92.156991815 142.610209574
v -62.590600000 92.184942210 142.632119339
v -62.569889322 92.206438034 142.633580050
v -62.614718095 92.164569580 142.621316013
v -62.590600000 92.194177635 142.643691127
v -62.614718095 92.177035127 142.638224990
v -62.590600000 92.206510268 142.658036058
v -62.569889322 92.229154832 142.659070270
v -62.614718095 92.186470425 142.650047216
v -62.590600000 92.217704402 142.670090204
v -62.614718095 92.199069963 142.664702601
v -62.590600000 92.229912588 142.682309272
v -62.569889322 92.253756231 142.682746742
v -62.614718095 92.210506361 142.677017624
v -62.590600000 92.243182967 142.694610863
v -62.614718095 92.222978758 142.689501138
v -62.590600000 92.255024308 142.704809472
v -62.569889322 92.280097861 142.704470525
v -62.614718095 92.236536335 142.702068962
v -62.590600000 92.270463810 142.717109210
v -62.614718095 92.248633948 142.712488290
v -62.590600000 92.281711446 142.725416610
v -62.569889322 92.308025139 142.724114133
v -62.614718095 92.264407593 142.725054219
v -62.590600000 92.299386838 142.737453213
v -62.614718095 92.275898651 142.733541409
v -62.590600000 92.309831615 142.744020738
v -62.569889322 92.337374176 142.741562291
v -62.614718095 92.293956575 142.745838509
v -62.590600000 92.329782318 142.755523487
v -62.614718095 92.304627399 142.752548169
v -62.590600000 92.339234782 142.760522595
v -62.569889322 92.367972740 142.756712605
v -62.614718095 92.325009877 142.764299861
v -62.590600000 92.361471878 142.771213987
v -62.614718095 92.334666912 142.769407161
v -62.590600000 92.369764067 142.774834136
v -62.569889322 92.399641268 142.769476169
v -62.614718095 92.357385265 142.780329937
v -62.614718095 92.365856915 142.784028433
v -62.590600000 92.394269550 142.784432637
v -62.614718095 92.390892747 142.793834666
v -62.590600000 92.427982865 142.795101863
v -62.569889322 92.432193915 142.779778079
v -62.614718095 92.425335689 142.804734796
v -62.590600000 92.462413980 142.803159054
v -62.569889322 92.465439650 142.787557881
v -62.614718095 92.460511965 142.812966362
v -62.590600000 92.497360839 142.808556928
v -62.569889322 92.499183373 142.792769919
v -62.614718095 92.496215147 142.818481057
v -62.590600000 92.532618361 142.811263807
v -62.569889322 92.533227062 142.795383607
v -62.614718095 92.532235715 142.821246519
v -62.590600000 92.567157659 142.811294581
v -62.569889322 92.567370937 142.795383607
v -62.614718095 92.567522515 142.821277959
v -62.590600000 92.600785028 142.808833375
v -62.569889322 92.601414627 142.792769919
v -62.614718095 92.601877651 142.818763487
v -62.590600000 92.634143032 142.803924094
v -62.569889322 92.635158350 142.787557881
v -62.614718095 92.635957592 142.813747959
v -62.590600000 92.667053692 142.796592932
v -62.569889322 92.668404085 142.779778079
v -62.614718095 92.669580507 142.806258135
v -62.590600000 92.699341415 142.786879003
v -62.569889322 92.700956732 142.769476169
v -62.614718095 92.702567004 142.796333977
v -62.590600000 92.730833932 142.774834136
v -62.569889322 92.732625260 142.756712605
v -62.590600000 92.739126122 142.771213987
v -62.614718095 92.734741085 142.784028433
v -62.590600000 92.761363218 142.760522595
v -62.569889322 92.763223824 142.741562291
v -62.614718095 92.743212735 142.780329937
v -62.590600000 92.770815682 142.755523487
v -62.614718095 92.765931088 142.769407161
v -62.590600000 92.790766384 142.744020738
v -62.569889322 92.792572861 142.724114133
v -62.614718095 92.775588123 142.764299861
v -62.590600000 92.801211162 142.737453213
v -62.614718095 92.795970600 142.752548169
v -62.590600000 92.818886553 142.725416610
v -62.569889322 92.820500139 142.704470525
v -62.614718095 92.806641425 142.745838509
v -62.590600000 92.830134190 142.717109210
v -62.614718095 92.824699349 142.733541409
v -62.590600000 92.845573692 142.704809472
v -62.569889322 92.846841769 142.682746742
v -62.614718095 92.836190407 142.725054219
v -62.590600000 92.857415033 142.694610863
v -62.614718095 92.851964052 142.712488290
v -62.590600000 92.870685412 142.682309272
v -62.569889322 92.871443168 142.659070270
v -62.614718095 92.864061665 142.702068962
v -62.590600000 92.882893598 142.670090204
v -62.614718095 92.877619242 142.689501138
v -62.590600000 92.894087731 142.658036058
v -62.569889322 92.894159965 142.633580050
v -62.614718095 92.890091639 142.677017624
v -62.590600000 92.906420365 142.643691127
v -62.614718095 92.901528037 142.664702601
v -62.590600000 92.915655790 142.632119339
v -62.569889322 92.914858850 142.606425670
v -62.614718095 92.914127575 142.650047216
v -62.590600000 92.927857271 142.615568555
v -62.614718095 92.923562873 142.638224990
v -62.590600000 92.935274511 142.604697391
v -62.569889322 92.933418352 142.577766482
v -62.614718095 92.936028420 142.621316013
v -62.590600000 92.947078514 142.585887520
v -62.614718095 92.943606185 142.610209574
v -62.590600000 92.952839222 142.575916522
v -62.569889322 92.949729558 142.547770670
v -62.614718095 92.955665651 142.590992619
v -62.590600000 92.963971298 142.554822204
v -62.614718095 92.961551032 142.580805827
v -62.590600000 92.968256206 142.545930290
v -62.569889322 92.963696746 142.516614260
v -62.614718095 92.972924029 142.559254984
v -62.590600000 92.978436488 142.522554910
v -62.614718095 92.977301673 142.550170631
v -62.614718095 92.987702276 142.526289358
v -62.590600000 92.990389196 142.489274995
v -62.569889322 92.975237952 142.484480092
v -62.614718095 92.999913667 142.492289196
v -62.590600000 92.999759281 142.455177758
v -62.569889322 92.984285448 142.451556742
v -62.569889322 92.990786138 142.418037416
v -62.614718095 93.009486540 142.457454025
v -62.590600000 93.006491754 142.420463297
v -62.614718095 93.016364717 142.421988270
v -62.590600000 93.010547107 142.385335329
v -62.569889322 92.994701874 142.384118819
v -62.569889322 92.996009678 142.350000000
v -62.590600000 93.011901540 142.350000000
v -62.614718095 93.020507836 142.386100060
v -62.640600000 92.076566165 142.315327225
v -62.590600000 93.010670116 142.316305177
v -62.569889322 92.994701874 142.315881180
v -62.614718095 93.020633507 142.315575951
v -62.640600000 93.024031835 142.315327225
v -62.590600000 93.006982412 142.282790131
v -62.569889322 92.990786138 142.281962584
v -62.614718095 93.016865994 142.281335569
v -62.640600000 93.020237100 142.280839445
v -62.590600000 93.000858105 142.249633678
v -62.569889322 92.984285448 142.248443258
v -62.614718095 93.010609144 142.247461542
v -62.640600000 93.013935042 142.246720666
v -62.590600000 92.992329869 142.217012724
v -62.569889322 92.975237952 142.215519907
v -62.614718095 93.001896340 142.214134601
v -62.640600000 93.005159285 142.213152928
v -62.590600000 92.981443208 142.185101314
v -62.569889322 92.963696746 142.183385739
v -62.614718095 92.990774069 142.181532562
v -62.640600000 92.993956652 142.180315327
v -62.590600000 92.968256206 142.154069709
v -62.569889322 92.949729558 142.152229330
v -62.590600000 92.963971298 142.145177795
v -62.614718095 92.977301673 142.149829369
v -62.640600000 92.980386913 142.148383068
v -62.590600000 92.952839222 142.124083478
v -62.569889322 92.933418352 142.122233518
v -62.614718095 92.972924029 142.140745015
v -62.640600000 92.964522469 142.117526522
v -62.590600000 92.947078514 142.114112479
v -62.614718095 92.961551032 142.119194173
v -62.590600000 92.935274511 142.095302609
v -62.569889322 92.914858850 142.093574330
v -62.614718095 92.955665651 142.109007381
v -62.640600000 92.946447963 142.087910323
v -62.590600000 92.927857271 142.084431445
v -62.614718095 92.943606185 142.089790426
v -62.590600000 92.915655790 142.067880661
v -62.569889322 92.894159965 142.066419949
v -62.614718095 92.936028420 142.078683987
v -62.640600000 92.926259832 142.059692486
v -62.590600000 92.906420365 142.056308872
v -62.614718095 92.923562873 142.061775010
v -62.590600000 92.894087731 142.041963941
v -62.569889322 92.871443168 142.040929730
v -62.614718095 92.914127575 142.049952783
v -62.640600000 92.904065787 142.033023564
v -62.590600000 92.882893598 142.029909796
v -62.614718095 92.901528037 142.035297398
v -62.590600000 92.870685412 142.017690727
v -62.569889322 92.846841769 142.017253257
v -62.614718095 92.890091639 142.022982376
v -62.640600000 92.879984243 142.008045850
v -62.590600000 92.857415033 142.005389136
v -62.614718095 92.877619242 142.010498861
v -62.590600000 92.845573692 141.995190527
v -62.569889322 92.820500139 141.995529475
v -62.614718095 92.864061665 141.997931038
v -62.640600000 92.854143685 141.984892608
v -62.590600000 92.830134190 141.982890790
v -62.614718095 92.851964052 141.987511710
v -62.590600000 92.818886553 141.974583389
v -62.569889322 92.792572861 141.975885867
v -62.614718095 92.836190407 141.974945781
v -62.640600000 92.826681985 141.963687373
v -62.590600000 92.801211162 141.962546787
v -62.614718095 92.824699349 141.966458591
v -62.590600000 92.790766384 141.955979261
v -62.569889322 92.763223824 141.958437709
v -62.614718095 92.806641425 141.954161491
v -62.640600000 92.797745662 141.944543282
v -62.590600000 92.770815682 141.944476513
v -62.614718095 92.795970600 141.947451830
v -62.590600000 92.761363218 141.939477405
v -62.569889322 92.732625260 141.943287394
v -62.614718095 92.775588123 141.935700139
v -62.640600000 92.767489103 141.927562479
v -62.590600000 92.739126122 141.928786012
v -62.614718095 92.765931088 141.930592839
v -62.590600000 92.730833932 141.925165863
v -62.569889322 92.700956732 141.930523831
v -62.614718095 92.743212735 141.919670063
v -62.640600000 92.736073742 141.912835563
v -62.614718095 92.734741085 141.915971566
v -62.590600000 92.706328450 141.915567363
v -62.614718095 92.709705253 141.906165334
v -62.640600000 92.703667192 141.900441108
v -62.590600000 92.672615134 141.904898137
v -62.569889322 92.668404085 141.920221920
v -62.614718095 92.675262311 141.895265204
v -62.640600000 92.670442357 141.890445244
v -62.590600000 92.638184020 141.896840945
v -62.569889322 92.635158350 141.912442119
v -62.614718095 92.640086035 141.887033638
v -62.640600000 92.636576504 141.882901303
v -62.590600000 92.603237160 141.891443072
v -62.569889322 92.601414627 141.907230081
v -62.614718095 92.604382853 141.881518943
v -62.640600000 92.602250324 141.877849537
v -62.590600000 92.567979639 141.888736192
v -62.569889322 92.567370937 141.904616393
v -62.614718095 92.568362285 141.878753481
v -62.640600000 92.567646961 141.875316897
v -62.590600000 92.533440341 141.888705418
v -62.569889322 92.533227062 141.904616393
v -62.614718095 92.533075485 141.878722041
v -62.640600000 92.532951039 141.875316897
v -62.590600000 92.499812972 141.891166624
v -62.569889322 92.499183373 141.907230081
v -62.614718095 92.498720349 141.881236513
v -62.640600000 92.498347676 141.877849537
v -62.590600000 92.466454968 141.896075905
v -62.569889322 92.465439650 141.912442119
v -62.614718095 92.464640408 141.886252041
v -62.640600000 92.464021496 141.882901303
v -62.590600000 92.433544308 141.903407067
v -62.569889322 92.432193915 141.920221920
v -62.614718095 92.431017493 141.893741864
v -62.640600000 92.430155643 141.890445244
v -62.590600000 92.401256585 141.913120996
v -62.569889322 92.399641268 141.930523831
v -62.614718095 92.398030996 141.903666023
v -62.640600000 92.396930808 141.900441108
v -62.590600000 92.369764067 141.925165863
v -62.569889322 92.367972740 141.943287394
v -62.590600000 92.361471878 141.928786012
v -62.614718095 92.365856915 141.915971566
v -62.640600000 92.364524258 141.912835563
v -62.590600000 92.339234782 141.939477405
v -62.569889322 92.337374176 141.958437709
v -62.614718095 92.357385265 141.919670063
v -62.640600000 92.333108896 141.927562479
v -62.590600000 92.329782318 141.944476513
v -62.614718095 92.334666912 141.930592839
v -62.590600000 92.309831615 141.955979261
v -62.569889322 92.308025139 141.975885867
v -62.614718095 92.325009877 141.935700139
v -62.640600000 92.302852338 141.944543282
v -62.590600000 92.299386838 141.962546787
v -62.614718095 92.304627399 141.947451830
v -62.590600000 92.281711446 141.974583389
v -62.569889322 92.280097861 141.995529475
v -62.614718095 92.293956575 141.954161491
v -62.640600000 92.273916015 141.963687373
v -62.590600000 92.270463810 141.982890790
v -62.614718095 92.275898651 141.966458591
v -62.590600000 92.255024308 141.995190527
v -62.569889322 92.253756231 142.017253257
v -62.614718095 92.264407593 141.974945781
v -62.640600000 92.246454315 141.984892608
v -62.590600000 92.243182967 142.005389136
v -62.614718095 92.248633948 141.987511710
v -62.590600000 92.229912588 142.017690727
v -62.569889322 92.229154832 142.040929730
v -62.614718095 92.236536335 141.997931038
v -62.640600000 92.220613757 142.008045850
v -62.590600000 92.217704402 142.029909796
v -62.614718095 92.222978758 142.010498861
v -62.590600000 92.206510268 142.041963941
v -62.569889322 92.206438034 142.066419949
v -62.614718095 92.210506361 142.022982376
v -62.640600000 92.196532213 142.033023564
v -62.590600000 92.194177635 142.056308872
v -62.614718095 92.199069963 142.035297398
v -62.590600000 92.184942210 142.067880661
v -62.569889322 92.185739150 142.093574330
v -62.614718095 92.186470425 142.049952783
v -62.640600000 92.174338168 142.059692486
v -62.590600000 92.172740729 142.084431445
v -62.614718095 92.177035127 142.061775010
v -62.590600000 92.165323488 142.095302609
v -62.569889322 92.167179647 142.122233518
v -62.614718095 92.164569580 142.078683987
v -62.640600000 92.154150036 142.087910323
v -62.590600000 92.153519486 142.114112479
v -62.614718095 92.156991815 142.089790426
v -62.590600000 92.147758778 142.124083478
v -62.569889322 92.150868442 142.152229330
v -62.614718095 92.144932349 142.109007381
v -62.640600000 92.136075531 142.117526522
v -62.590600000 92.136626702 142.145177795
v -62.614718095 92.139046967 142.119194173
v -62.590600000 92.132341793 142.154069709
v -62.569889322 92.136901253 142.183385739
v -62.614718095 92.127673970 142.140745015
v -62.640600000 92.120211087 142.148383068
v -62.590600000 92.122161512 142.177445090
v -62.614718095 92.123296327 142.149829369
v -62.614718095 92.112895724 142.173710641
v -62.640600000 92.106641348 142.180315327
v -62.590600000 92.110208803 142.210725005
v -62.569889322 92.125360047 142.215519907
v -62.614718095 92.100684333 142.207710803
v -62.640600000 92.095438715 142.213152928
v -62.590600000 92.100838719 142.244822241
v -62.569889322 92.116312552 142.248443258
v -62.569889322 92.109811862 142.281962584
v -62.614718095 92.091111460 142.242545975
v -62.640600000 92.086662958 142.246720666
v -62.590600000 92.094106246 142.279536702
v -62.614718095 92.084233282 142.278011730
v -62.640600000 92.080360900 142.280839445
v -62.590600000 92.090050893 142.314664670
v -62.569889322 92.105896126 142.315881180
v -62.614718095 92.080090164 142.313899940
v -62.553997460 92.125299000 142.350000000
v -62.544007417 92.950004637 142.319312790
v -62.544007417 92.951180904 142.350000000
v -62.540600000 92.925299000 142.350000000
v -62.540600000 92.923699316 142.315399365
v -62.553997460 92.974051965 142.317466567
v -62.553997460 92.975299000 142.350000000
v -62.544007417 92.946482738 142.288805664
v -62.540600000 92.918913912 142.281093931
v -62.544007417 92.944355128 142.276338143
v -62.553997460 92.970318180 142.285124054
v -62.544007417 92.940635876 142.258657651
v -62.540600000 92.910983616 142.247376379
v -62.553997460 92.968062567 142.271906455
v -62.544007417 92.935877496 142.240293459
v -62.553997460 92.964119555 142.253162259
v -62.544007417 92.932498361 142.229045672
v -62.540600000 92.899976086 142.214534375
v -62.553997460 92.959074898 142.233693229
v -62.544007417 92.924110243 142.205184753
v -62.553997460 92.955492466 142.221768745
v -62.553997460 92.946599697 142.196472292
v -62.544007417 92.909555555 142.172120746
v -62.540600000 92.885985234 142.182848116
v -62.553997460 92.931169362 142.161419069
v -62.544007417 92.894884901 142.145141858
v -62.540600000 92.869130426 142.152587939
v -62.553997460 92.915616083 142.132817061
v -62.544007417 92.878192080 142.119365160
v -62.540600000 92.849555460 142.124012011
v -62.544007417 92.870209666 142.108414679
v -62.553997460 92.897918978 142.105489569
v -62.544007417 92.859575052 142.094941918
v -62.540600000 92.827427344 142.097364133
v -62.553997460 92.889456321 142.093880279
v -62.544007417 92.846554302 142.079927607
v -62.553997460 92.878181901 142.079596962
v -62.544007417 92.839143069 142.072015458
v -62.540600000 92.802934866 142.072871656
v -62.553997460 92.864377790 142.063679351
v -62.553997460 92.856520677 142.055291187
v -62.544007417 92.820371393 142.053744698
v -62.553997460 92.836619648 142.035921210
v -62.544007417 92.793323797 142.031181479
v -62.540600000 92.776286989 142.050743540
v -62.553997460 92.807944800 142.012000530
v -62.544007417 92.768205395 142.013513589
v -62.540600000 92.747711061 142.031168574
v -62.553997460 92.781315209 141.993269694
v -62.544007417 92.741808231 141.997820336
v -62.540600000 92.717450883 142.014313766
v -62.544007417 92.728987441 141.991145235
v -62.553997460 92.753329923 141.976632293
v -62.544007417 92.714287214 141.984193812
v -62.540600000 92.685764625 142.000322914
v -62.553997460 92.739737801 141.969555601
v -62.544007417 92.695114247 141.976188757
v -62.553997460 92.724153171 141.962185963
v -62.544007417 92.685803850 141.972713985
v -62.540600000 92.652922621 141.989315384
v -62.553997460 92.703826708 141.953699302
v -62.553997460 92.693956173 141.950015479
v -62.544007417 92.660005541 141.964421504
v -62.553997460 92.666605771 141.941224101
v -62.544007417 92.626623350 141.956450899
v -62.540600000 92.619205069 141.981385087
v -62.553997460 92.631215221 141.932773964
v -62.544007417 92.596273510 141.951763078
v -62.540600000 92.584899635 141.976599684
v -62.544007417 92.587287716 141.950828187
v -62.553997460 92.599039456 141.927804112
v -62.544007417 92.565653873 141.949412270
v -62.540600000 92.550299000 141.975000000
v -62.553997460 92.589513053 141.926812975
v -62.544007417 92.550299000 141.949118095
v -62.553997460 92.566577662 141.925311873
v -62.544007417 92.534944127 141.949412270
v -62.540600000 92.515698365 141.976599684
v -62.553997460 92.550299000 141.925000000
v -62.544007417 92.513310284 141.950828187
v -62.553997460 92.534020338 141.925311873
v -62.544007417 92.504324490 141.951763078
v -62.540600000 92.481392931 141.981385087
v -62.553997460 92.511084947 141.926812975
v -62.553997460 92.501558544 141.927804112
v -62.544007417 92.476637143 141.955943872
v -62.553997460 92.472205455 141.932236432
v -62.544007417 92.444072711 141.963448222
v -62.540600000 92.447675379 141.989315384
v -62.553997460 92.437681861 141.940192264
v -62.544007417 92.414794150 141.972713985
v -62.540600000 92.414833375 142.000322914
v -62.544007417 92.405483753 141.976188757
v -62.553997460 92.406641827 141.950015479
v -62.544007417 92.386310786 141.984193812
v -62.540600000 92.383147116 142.014313766
v -62.553997460 92.396771292 141.953699302
v -62.544007417 92.371610559 141.991145235
v -62.553997460 92.376444829 141.962185963
v -62.544007417 92.358789769 141.997820336
v -62.540600000 92.352886939 142.031168574
v -62.553997460 92.360860199 141.969555601
v -62.544007417 92.339261872 142.009163335
v -62.553997460 92.347268077 141.976632293
v -62.553997460 92.326565331 141.988657717
v -62.544007417 92.308713679 142.030089334
v -62.540600000 92.324311011 142.050743540
v -62.553997460 92.294179279 142.010842678
v -62.544007417 92.283581966 142.050720323
v -62.540600000 92.297663134 142.072871656
v -62.553997460 92.267535577 142.032714881
v -62.544007417 92.261454931 142.072015458
v -62.540600000 92.273170656 142.097364133
v -62.544007417 92.254043698 142.079927607
v -62.553997460 92.244077323 142.055291187
v -62.544007417 92.241022948 142.094941918
v -62.540600000 92.251042540 142.124012011
v -62.553997460 92.236220210 142.063679351
v -62.544007417 92.230388334 142.108414679
v -62.553997460 92.222416099 142.079596962
v -62.544007417 92.222405920 142.119365160
v -62.540600000 92.231467574 142.152587939
v -62.553997460 92.211141678 142.093880279
v -62.544007417 92.209462335 142.138962872
v -62.540600000 92.214612766 142.182848116
v -62.553997460 92.202679022 142.105489569
v -62.553997460 92.188956717 142.126266331
v -62.544007417 92.191444235 142.171311559
v -62.553997460 92.169854601 142.160561199
v -62.544007417 92.178480051 142.200143500
v -62.540600000 92.200621914 142.214534375
v -62.553997460 92.156110458 142.191127744
v -62.544007417 92.168099639 142.229045672
v -62.540600000 92.189614384 142.247376379
v -62.544007417 92.164720504 142.240293459
v -62.553997460 92.145105533 142.221768745
v -62.544007417 92.159962124 142.258657651
v -62.540600000 92.181684088 142.281093931
v -62.553997460 92.141523102 142.233693229
v -62.544007417 92.156242872 142.276338143
v -62.553997460 92.136478445 142.253162259
v -62.544007417 92.154115261 142.288805664
v -62.540600000 92.176898684 142.315399365
v -62.553997460 92.132535433 142.271906455
v -62.544007417 92.151127187 142.313011284
v -62.540600000 92.175299000 142.350000000
v -62.544007417 92.149417095 142.350000000
v -62.553997460 92.130279820 142.285124054
v -62.553997460 92.127111975 142.310785947
v -62.540600000 92.869130426 142.547412061
v -62.540600000 92.849555460 142.575987988
v -62.540600000 92.885985234 142.517151883
v -62.540600000 92.827427344 142.602635866
v -62.540600000 92.802934866 142.627128344
v -62.540600000 92.176898684 142.384600635
v -62.540600000 92.189614384 142.452623621
v -62.540600000 92.181684088 142.418906069
v -62.540600000 92.447675379 142.710684616
v -62.540600000 92.414833375 142.699677086
v -62.540600000 92.481392931 142.718614912
v -62.540600000 92.273170656 142.602635866
v -62.540600000 92.923699316 142.384600635
v -62.540600000 92.918913912 142.418906069
v -62.540600000 92.910983616 142.452623621
v -62.540600000 92.899976086 142.485465625
v -62.540600000 92.776286989 142.649256460
v -62.540600000 92.747711061 142.668831426
v -62.540600000 92.717450883 142.685686234
v -62.540600000 92.685764625 142.699677086
v -62.540600000 92.652922621 142.710684616
v -62.540600000 92.619205069 142.718614912
v -62.540600000 92.584899635 142.723400316
v -62.540600000 92.550299000 142.725000000
v -62.540600000 92.515698365 142.723400316
v -62.540600000 92.383147116 142.685686234
v -62.540600000 92.352886939 142.668831426
v -62.540600000 92.324311011 142.649256460
v -62.540600000 92.297663134 142.627128344
v -62.540600000 92.231467574 142.547412061
v -62.540600000 92.251042540 142.575987988
v -62.540600000 92.214612766 142.517151883
v -62.540600000 92.200621914 142.485465625
v -62.544007417 92.150593363 142.380687210
v -62.553997460 92.126546034 142.382533432
v -62.544007417 92.154115261 142.411194336
v -62.544007417 92.156242872 142.423661856
v -62.553997460 92.130279820 142.414875946
v -62.544007417 92.159962124 142.441342348
v -62.553997460 92.132535433 142.428093545
v -62.544007417 92.164720504 142.459706540
v -62.553997460 92.136478445 142.446837741
v -62.544007417 92.168099639 142.470954328
v -62.553997460 92.141523102 142.466306771
v -62.544007417 92.176487757 142.494815247
v -62.553997460 92.145105533 142.478231254
v -62.553997460 92.153998302 142.503527708
v -62.544007417 92.191042445 142.527879253
v -62.553997460 92.169428638 142.538580931
v -62.544007417 92.205713099 142.554858141
v -62.553997460 92.184981917 142.567182939
v -62.544007417 92.222405920 142.580634840
v -62.544007417 92.230388334 142.591585321
v -62.553997460 92.202679022 142.594510430
v -62.544007417 92.241022948 142.605058082
v -62.553997460 92.211141678 142.606119720
v -62.544007417 92.254043698 142.620072392
v -62.553997460 92.222416099 142.620403038
v -62.544007417 92.261454931 142.627984541
v -62.553997460 92.236220210 142.636320648
v -62.553997460 92.244077323 142.644708813
v -62.544007417 92.280226607 142.646255302
v -62.553997460 92.263978351 142.664078790
v -62.544007417 92.307274203 142.668818521
v -62.553997460 92.292653200 142.687999470
v -62.544007417 92.332392605 142.686486410
v -62.553997460 92.319282791 142.706730306
v -62.544007417 92.358789769 142.702179664
v -62.544007417 92.371610559 142.708854765
v -62.553997460 92.347268077 142.723367706
v -62.544007417 92.386310786 142.715806187
v -62.553997460 92.360860199 142.730444399
v -62.544007417 92.405483753 142.723811243
v -62.553997460 92.376444829 142.737814037
v -62.544007417 92.414794150 142.727286015
v -62.553997460 92.396771292 142.746300697
v -62.553997460 92.406641827 142.749984520
v -62.544007417 92.440592459 142.735578495
v -62.553997460 92.433992229 142.758775898
v -62.544007417 92.473974649 142.743549101
v -62.553997460 92.469382779 142.767226036
v -62.544007417 92.504324490 142.748236921
v -62.544007417 92.513310284 142.749171813
v -62.553997460 92.501558544 142.772195888
v -62.544007417 92.534944127 142.750587730
v -62.553997460 92.511084947 142.773187025
v -62.544007417 92.550299000 142.750881904
v -62.553997460 92.534020338 142.774688127
v -62.544007417 92.565653873 142.750587730
v -62.553997460 92.550299000 142.775000000
v -62.544007417 92.587287716 142.749171813
v -62.553997460 92.566577662 142.774688127
v -62.544007417 92.596273510 142.748236921
v -62.553997460 92.589513053 142.773187025
v -62.553997460 92.599039456 142.772195888
v -62.544007417 92.623960857 142.744056128
v -62.553997460 92.628392545 142.767763567
v -62.544007417 92.656525289 142.736551777
v -62.553997460 92.662916138 142.759807735
v -62.544007417 92.685803850 142.727286015
v -62.544007417 92.695114247 142.723811243
v -62.553997460 92.693956173 142.749984520
v -62.544007417 92.714287214 142.715806187
v -62.553997460 92.703826708 142.746300697
v -62.544007417 92.728987441 142.708854765
v -62.553997460 92.724153171 142.737814037
v -62.544007417 92.741808231 142.702179664
v -62.553997460 92.739737801 142.730444399
v -62.544007417 92.761336128 142.690836664
v -62.553997460 92.753329923 142.723367706
v -62.553997460 92.774032669 142.711342282
v -62.544007417 92.791884321 142.669910666
v -62.553997460 92.806418720 142.689157321
v -62.544007417 92.817016034 142.649279677
v -62.553997460 92.833062422 142.667285119
v -62.544007417 92.839143069 142.627984541
v -62.544007417 92.846554302 142.620072392
v -62.553997460 92.856520677 142.644708813
v -62.544007417 92.859575052 142.605058082
v -62.553997460 92.864377790 142.636320648
v -62.544007417 92.870209666 142.591585321
v -62.553997460 92.878181901 142.620403038
v -62.544007417 92.878192080 142.580634840
v -62.553997460 92.889456321 142.606119720
v -62.544007417 92.891135664 142.561037128
v -62.553997460 92.897918978 142.594510430
v -62.553997460 92.911641283 142.573733669
v -62.544007417 92.909153765 142.528688441
v -62.553997460 92.930743399 142.539438801
v -62.544007417 92.922117949 142.499856499
v -62.553997460 92.944487542 142.508872255
v -62.544007417 92.932498361 142.470954328
v -62.544007417 92.935877496 142.459706540
v -62.553997460 92.955492466 142.478231254
v -62.544007417 92.940635876 142.441342348
v -62.553997460 92.959074898 142.466306771
v -62.544007417 92.944355128 142.423661856
v -62.553997460 92.964119555 142.446837741
v -62.544007417 92.946482738 142.411194336
v -62.553997460 92.968062567 142.428093545
v -62.544007417 92.949470813 142.386988715
v -62.553997460 92.970318180 142.414875946
v -62.553997460 92.973486025 142.389214053
f 1 2 3
f 3 2 4
f 5 6 7
f 8 6 5
f 9 10 11
f 6 10 9
f 8 10 6
f 12 10 8
f 10 13 11
f 13 14 11
f 10 15 13
f 16 17 10
f 10 17 15
f 14 18 11
f 16 19 17
f 18 20 11
f 21 22 20
f 22 23 20
f 23 24 20
f 24 25 20
f 20 26 11
f 25 26 20
f 26 27 11
f 27 28 11
f 28 29 11
f 29 30 11
f 30 31 11
f 31 32 11
f 32 33 11
f 33 34 11
f 34 35 11
f 35 36 11
f 37 38 39
f 40 41 42
f 42 41 43
f 40 44 41
f 38 45 39
f 46 45 38
f 40 47 44
f 45 48 39
f 39 49 40
f 48 49 39
f 47 49 50
f 40 49 47
f 49 51 50
f 52 53 54
f 55 53 52
f 56 53 55
f 57 53 58
f 54 53 57
f 51 59 60
f 51 61 59
f 49 61 51
f 49 62 61
f 63 64 53
f 53 64 58
f 65 64 36
f 66 64 65
f 67 64 66
f 68 64 67
f 69 64 68
f 70 64 69
f 71 64 70
f 72 64 71
f 73 64 72
f 58 64 73
f 36 64 11
f 63 74 64
f 49 75 62
f 74 76 64
f 49 77 75
f 78 79 80
f 64 79 78
f 49 81 77
f 64 82 79
f 49 83 81
f 64 84 82
f 49 85 83
f 84 3 86
f 87 3 76
f 88 3 87
f 76 3 64
f 64 3 84
f 49 89 85
f 90 91 92
f 93 91 90
f 88 94 3
f 95 1 94
f 96 1 95
f 94 1 3
f 93 97 91
f 98 97 96
f 91 97 98
f 96 97 1
f 99 97 93
f 100 97 99
f 101 97 100
f 102 97 101
f 103 97 102
f 104 97 103
f 105 97 104
f 1 106 107
f 108 109 97
f 1 109 106
f 97 109 1
f 109 110 106
f 110 111 106
f 49 97 112
f 49 112 113
f 49 113 114
f 49 114 115
f 49 115 89
f 112 97 116
f 116 97 117
f 117 97 118
f 118 97 119
f 119 97 105
f 41 17 19
f 41 19 43
f 74 63 120
f 74 120 121
f 76 121 122
f 76 74 121
f 87 122 123
f 87 76 122
f 88 123 124
f 88 87 123
f 125 88 124
f 125 94 88
f 95 94 125
f 95 125 126
f 96 126 127
f 96 95 126
f 98 127 128
f 98 96 127
f 91 128 129
f 91 98 128
f 129 130 92
f 129 92 91
f 92 130 131
f 90 131 132
f 90 92 131
f 93 132 133
f 93 90 132
f 99 133 134
f 99 93 133
f 100 134 135
f 100 99 134
f 101 135 136
f 101 100 135
f 102 136 137
f 102 101 136
f 103 137 138
f 103 102 137
f 104 138 139
f 104 103 138
f 105 104 139
f 119 105 139
f 119 139 140
f 118 119 140
f 118 140 141
f 117 118 141
f 117 141 142
f 116 117 142
f 116 142 143
f 112 143 144
f 112 116 143
f 113 144 145
f 113 112 144
f 114 113 145
f 114 145 146
f 115 146 147
f 115 114 146
f 89 147 148
f 89 115 147
f 85 148 149
f 85 89 148
f 83 149 150
f 83 85 149
f 81 150 151
f 81 83 150
f 77 151 152
f 77 81 151
f 75 152 153
f 75 77 152
f 62 153 154
f 62 75 153
f 61 154 155
f 61 62 154
f 59 155 156
f 59 61 155
f 60 156 157
f 60 59 156
f 157 158 51
f 157 51 60
f 50 51 158
f 50 158 159
f 47 159 160
f 47 50 159
f 44 160 161
f 44 47 160
f 41 161 162
f 41 44 161
f 41 162 163
f 41 163 17
f 15 17 163
f 15 164 165
f 15 163 164
f 13 165 166
f 13 15 165
f 14 166 167
f 14 13 166
f 18 14 167
f 168 20 18
f 167 168 18
f 24 23 169
f 169 23 170
f 170 22 171
f 171 22 172
f 23 22 170
f 172 21 168
f 22 21 172
f 21 20 168
f 25 24 169
f 25 169 173
f 26 173 174
f 26 25 173
f 27 174 175
f 27 26 174
f 28 175 176
f 28 27 175
f 29 176 177
f 29 28 176
f 30 177 178
f 30 29 177
f 31 178 179
f 31 30 178
f 32 179 180
f 32 31 179
f 33 180 181
f 33 32 180
f 34 181 182
f 34 33 181
f 35 182 183
f 35 34 182
f 36 35 183
f 36 184 185
f 36 183 184
f 65 185 186
f 65 36 185
f 66 65 186
f 66 186 187
f 67 187 188
f 67 66 187
f 68 188 189
f 68 67 188
f 69 189 190
f 69 68 189
f 70 190 191
f 70 69 190
f 71 191 192
f 71 70 191
f 72 192 193
f 72 71 192
f 73 193 194
f 73 72 193
f 58 194 195
f 58 73 194
f 57 195 196
f 57 58 195
f 54 57 196
f 197 53 198
f 198 56 199
f 53 56 198
f 199 55 200
f 56 55 199
f 200 52 196
f 55 52 200
f 52 54 196
f 63 197 120
f 53 197 63
f 165 167 166
f 164 167 165
f 163 167 164
f 163 168 167
f 173 175 174
f 173 176 175
f 173 178 176
f 176 178 177
f 169 178 173
f 178 180 179
f 180 182 181
f 180 186 182
f 184 186 185
f 183 186 184
f 182 186 183
f 187 189 188
f 187 190 189
f 163 162 168
f 187 192 190
f 190 192 191
f 186 192 187
f 186 194 192
f 192 194 193
f 161 158 162
f 160 158 161
f 159 158 160
f 169 195 178
f 178 195 180
f 180 195 186
f 186 195 194
f 169 196 195
f 158 157 162
f 162 157 168
f 170 157 169
f 171 157 170
f 172 157 171
f 168 157 172
f 169 157 196
f 156 155 157
f 155 154 157
f 154 153 157
f 153 152 157
f 197 124 120
f 122 124 123
f 121 124 122
f 120 124 121
f 152 151 157
f 151 150 157
f 150 149 157
f 149 148 157
f 148 147 157
f 147 146 157
f 146 145 157
f 145 144 157
f 144 143 157
f 143 142 157
f 142 141 157
f 141 140 157
f 140 139 157
f 139 138 157
f 138 137 157
f 137 136 157
f 136 135 157
f 135 134 157
f 134 133 157
f 133 132 157
f 132 131 157
f 131 130 157
f 157 130 196
f 198 130 197
f 199 130 198
f 200 130 199
f 196 130 200
f 129 125 130
f 197 125 124
f 130 125 197
f 129 126 125
f 128 127 129
f 129 127 126
f 97 201 202
f 108 97 202
f 109 202 203
f 109 108 202
f 110 203 204
f 110 109 203
f 111 204 205
f 111 110 204
f 106 205 206
f 106 111 205
f 107 206 207
f 107 106 206
f 1 207 2
f 1 107 207
f 208 209 210
f 211 212 213
f 211 213 214
f 211 214 209
f 211 208 215
f 211 209 208
f 216 217 218
f 216 218 211
f 216 211 215
f 219 217 216
f 220 219 221
f 220 221 222
f 220 222 223
f 220 223 224
f 220 224 225
f 220 225 226
f 220 226 227
f 220 227 228
f 220 228 229
f 220 229 230
f 231 232 216
f 233 231 216
f 234 233 216
f 234 216 215
f 235 234 215
f 236 235 215
f 237 238 217
f 237 217 219
f 239 236 215
f 240 220 241
f 240 241 242
f 240 242 243
f 244 219 220
f 244 237 219
f 245 239 215
f 246 244 220
f 246 240 247
f 246 247 248
f 246 249 250
f 246 250 244
f 246 220 240
f 251 245 215
f 252 251 215
f 253 252 215
f 254 253 215
f 255 254 215
f 256 255 215
f 257 258 259
f 257 259 238
f 257 238 237
f 260 256 215
f 261 260 215
f 262 263 264
f 265 266 262
f 267 264 268
f 267 268 258
f 267 262 264
f 267 258 257
f 267 265 262
f 269 257 270
f 271 257 269
f 272 257 271
f 272 267 257
f 273 267 272
f 274 267 273
f 275 267 274
f 276 267 275
f 277 267 276
f 278 267 277
f 279 280 281
f 279 281 282
f 279 282 283
f 279 283 284
f 279 284 285
f 279 285 286
f 279 286 287
f 279 287 288
f 279 288 289
f 279 289 290
f 279 290 291
f 279 291 261
f 279 261 215
f 292 267 278
f 293 267 292
f 294 267 293
f 295 267 294
f 296 297 298
f 299 300 301
f 299 301 302
f 299 302 280
f 299 280 279
f 303 279 304
f 303 304 297
f 303 296 305
f 303 297 296
f 4 279 303
f 4 299 279
f 306 307 308
f 309 299 4
f 310 308 311
f 310 311 312
f 310 312 313
f 310 306 308
f 314 315 310
f 316 317 314
f 316 314 310
f 318 316 310
f 318 313 319
f 318 310 313
f 320 321 322
f 323 320 322
f 323 324 320
f 325 326 323
f 325 322 318
f 325 323 322
f 327 318 319
f 327 325 318
f 327 328 325
f 327 319 309
f 327 309 4
f 329 330 331
f 329 331 332
f 329 332 333
f 201 334 335
f 201 335 336
f 201 330 329
f 201 336 337
f 201 337 338
f 201 338 339
f 201 339 340
f 201 340 341
f 201 341 342
f 201 342 343
f 201 343 330
f 2 329 327
f 2 201 329
f 2 327 4
f 203 202 201
f 205 2 207
f 205 207 206
f 205 201 2
f 204 201 205
f 204 203 201
f 201 267 344
f 344 267 345
f 345 267 295
f 201 344 346
f 201 346 334
f 309 347 299
f 299 347 348
f 349 300 348
f 348 300 299
f 350 232 351
f 351 231 352
f 232 231 351
f 352 233 353
f 231 233 352
f 353 234 354
f 233 234 353
f 354 235 355
f 234 235 354
f 355 236 356
f 235 236 355
f 356 239 357
f 236 239 356
f 357 245 358
f 239 245 357
f 358 251 359
f 245 251 358
f 251 252 359
f 359 252 360
f 252 253 360
f 360 253 361
f 253 254 361
f 361 254 362
f 254 255 362
f 362 255 363
f 255 256 363
f 363 256 364
f 256 260 364
f 260 261 364
f 364 261 365
f 261 291 365
f 365 291 366
f 291 290 366
f 366 290 367
f 290 289 367
f 367 289 368
f 289 288 368
f 368 288 369
f 288 287 369
f 369 287 370
f 287 286 370
f 370 286 371
f 286 285 371
f 371 285 372
f 372 284 373
f 285 284 372
f 373 283 374
f 284 283 373
f 374 282 375
f 283 282 374
f 375 281 376
f 282 281 375
f 376 280 377
f 281 280 376
f 377 302 378
f 280 302 377
f 378 301 379
f 302 301 378
f 379 300 349
f 301 300 379
f 380 216 350
f 350 216 232
f 381 219 380
f 380 219 216
f 219 381 382
f 221 382 383
f 221 219 382
f 222 383 384
f 222 221 383
f 223 384 385
f 223 222 384
f 224 385 386
f 224 223 385
f 225 386 387
f 225 224 386
f 226 387 388
f 226 225 387
f 227 388 389
f 227 226 388
f 228 389 390
f 228 227 389
f 229 390 391
f 229 228 390
f 230 391 392
f 230 229 391
f 220 392 393
f 220 230 392
f 241 393 394
f 241 220 393
f 242 241 394
f 242 394 395
f 243 242 395
f 243 395 396
f 240 243 396
f 240 396 397
f 247 240 397
f 247 397 398
f 248 247 398
f 248 398 399
f 246 248 399
f 246 399 400
f 249 246 400
f 249 400 401
f 250 401 402
f 250 249 401
f 244 402 403
f 244 250 402
f 237 244 403
f 404 257 403
f 403 257 237
f 257 404 270
f 270 404 405
f 333 332 406
f 406 332 407
f 407 331 408
f 332 331 407
f 408 330 409
f 331 330 408
f 409 343 410
f 330 343 409
f 410 342 411
f 343 342 410
f 411 341 412
f 342 341 411
f 412 340 413
f 341 340 412
f 413 339 414
f 340 339 413
f 339 338 414
f 414 338 415
f 338 337 415
f 415 337 416
f 337 336 416
f 416 336 417
f 336 335 417
f 417 335 418
f 335 334 418
f 418 334 419
f 419 334 420
f 334 346 420
f 420 346 421
f 346 344 421
f 421 344 422
f 344 345 422
f 422 345 423
f 345 295 423
f 423 295 424
f 295 294 424
f 424 294 425
f 294 293 425
f 425 293 426
f 293 292 426
f 426 292 427
f 292 278 427
f 427 278 428
f 428 277 429
f 278 277 428
f 429 276 430
f 277 276 429
f 430 275 431
f 276 275 430
f 431 274 432
f 275 274 431
f 432 273 433
f 274 273 432
f 433 272 434
f 273 272 433
f 434 271 435
f 272 271 434
f 435 269 405
f 271 269 435
f 269 270 405
f 333 406 329
f 329 406 436
f 329 436 327
f 327 436 437
f 327 437 438
f 328 438 439
f 328 327 438
f 325 439 440
f 325 328 439
f 326 440 441
f 326 325 440
f 323 441 442
f 323 326 441
f 324 442 443
f 324 323 442
f 320 443 444
f 320 324 443
f 321 444 445
f 321 320 444
f 322 445 446
f 322 321 445
f 318 446 447
f 318 322 446
f 316 447 448
f 316 318 447
f 317 448 449
f 317 316 448
f 314 449 450
f 314 317 449
f 315 314 450
f 315 450 451
f 310 315 451
f 310 451 452
f 306 452 453
f 306 310 452
f 307 453 454
f 307 306 453
f 308 454 455
f 308 307 454
f 311 455 456
f 311 308 455
f 312 456 457
f 312 311 456
f 313 457 458
f 313 312 457
f 319 458 347
f 319 313 458
f 309 319 347
f 347 458 348
f 458 457 348
f 457 456 348
f 456 455 348
f 455 349 348
f 454 349 455
f 453 349 454
f 440 436 441
f 439 436 440
f 438 436 439
f 437 436 438
f 349 459 379
f 349 460 459
f 379 461 378
f 459 461 379
f 349 462 460
f 461 463 378
f 378 463 377
f 349 464 462
f 376 465 375
f 377 465 376
f 463 465 377
f 349 466 464
f 465 467 375
f 375 467 374
f 349 468 466
f 373 469 372
f 374 469 373
f 467 469 374
f 453 470 349
f 349 470 468
f 452 470 453
f 372 471 371
f 469 471 372
f 452 472 470
f 451 472 452
f 370 473 369
f 371 473 370
f 471 473 371
f 451 474 472
f 450 474 451
f 369 475 368
f 473 475 369
f 450 476 474
f 449 476 450
f 367 477 366
f 368 477 367
f 475 477 368
f 448 478 449
f 449 478 476
f 477 479 366
f 366 479 365
f 448 480 478
f 479 481 365
f 365 481 364
f 447 482 448
f 448 482 480
f 481 483 364
f 363 483 362
f 364 483 363
f 446 484 447
f 447 484 482
f 362 485 361
f 483 485 362
f 445 486 446
f 446 486 484
f 485 487 361
f 360 487 359
f 361 487 360
f 444 488 445
f 445 488 486
f 359 489 358
f 487 489 359
f 443 490 444
f 444 490 488
f 357 491 356
f 358 491 357
f 489 491 358
f 356 492 355
f 491 492 356
f 354 493 353
f 355 493 354
f 492 493 355
f 353 494 352
f 493 494 353
f 352 495 351
f 494 495 352
f 351 496 350
f 495 496 351
f 442 406 443
f 441 406 442
f 497 406 498
f 436 406 441
f 499 406 497
f 500 406 499
f 501 406 500
f 502 406 501
f 490 406 502
f 443 406 490
f 496 503 350
f 406 407 498
f 498 407 504
f 503 505 350
f 407 408 504
f 504 408 506
f 505 507 350
f 408 409 506
f 506 409 508
f 507 509 350
f 409 410 508
f 509 510 350
f 410 411 508
f 508 411 511
f 510 512 350
f 411 412 511
f 511 412 513
f 412 413 513
f 513 414 514
f 413 414 513
f 514 415 515
f 414 415 514
f 415 416 515
f 515 417 516
f 416 417 515
f 516 418 517
f 417 418 516
f 418 419 517
f 517 420 518
f 419 420 517
f 518 421 519
f 420 421 518
f 421 422 519
f 519 422 520
f 422 423 520
f 520 424 521
f 423 424 520
f 424 425 521
f 521 425 522
f 425 426 522
f 426 427 522
f 522 427 523
f 427 428 523
f 523 428 524
f 350 385 380
f 385 384 380
f 350 386 385
f 384 383 380
f 428 429 524
f 512 387 350
f 350 387 386
f 383 382 380
f 512 388 387
f 525 388 512
f 524 430 526
f 429 430 524
f 382 381 380
f 430 431 526
f 526 431 527
f 525 389 388
f 528 389 525
f 431 432 527
f 432 433 527
f 527 433 529
f 528 390 389
f 530 390 528
f 529 434 531
f 433 434 529
f 531 435 532
f 434 435 531
f 533 405 534
f 535 405 533
f 536 405 535
f 537 405 536
f 538 405 537
f 532 405 538
f 435 405 532
f 530 391 390
f 539 391 530
f 540 392 541
f 539 392 391
f 541 392 539
f 542 393 540
f 540 393 392
f 543 394 542
f 542 394 393
f 544 395 543
f 543 395 394
f 534 396 544
f 544 396 395
f 405 397 534
f 534 397 396
f 405 398 397
f 405 399 398
f 402 404 403
f 401 404 402
f 400 404 401
f 399 404 400
f 405 404 399
f 540 541 545
f 540 545 546
f 542 546 547
f 542 540 546
f 543 542 547
f 543 547 548
f 544 543 548
f 544 548 549
f 534 544 549
f 534 549 550
f 533 534 550
f 533 550 551
f 535 533 551
f 535 551 552
f 536 535 552
f 536 552 553
f 537 536 553
f 537 553 554
f 538 537 554
f 538 554 555
f 532 538 555
f 532 555 556
f 531 532 556
f 531 556 557
f 529 531 557
f 529 557 558
f 527 529 558
f 527 558 559
f 526 527 559
f 526 559 560
f 524 526 560
f 524 560 561
f 523 524 561
f 523 561 562
f 522 523 562
f 522 562 563
f 521 522 563
f 521 563 564
f 520 564 565
f 520 521 564
f 519 520 565
f 519 565 566
f 518 566 567
f 518 519 566
f 517 567 568
f 517 518 567
f 516 568 569
f 516 517 568
f 515 569 570
f 515 516 569
f 514 571 572
f 514 570 571
f 514 515 570
f 513 514 572
f 511 513 572
f 511 573 574
f 511 572 573
f 508 511 574
f 506 508 574
f 506 574 575
f 504 506 575
f 504 575 576
f 498 504 576
f 498 576 577
f 497 498 577
f 497 577 578
f 499 497 578
f 499 579 580
f 499 578 579
f 500 499 580
f 501 500 580
f 501 580 581
f 502 501 581
f 502 581 582
f 490 502 582
f 490 583 584
f 490 582 583
f 488 490 584
f 486 584 585
f 486 488 584
f 484 586 587
f 484 585 586
f 484 486 585
f 482 484 587
f 480 587 588
f 480 482 587
f 588 587 589
f 590 591 592
f 590 592 593
f 594 595 591
f 594 545 595
f 594 546 545
f 594 591 590
f 596 593 597
f 596 590 593
f 598 594 590
f 598 546 594
f 598 590 596
f 598 547 546
f 599 597 600
f 599 596 597
f 601 596 599
f 601 548 547
f 601 598 596
f 601 547 598
f 602 600 603
f 602 599 600
f 604 601 599
f 604 548 601
f 604 599 602
f 604 549 548
f 605 603 606
f 605 602 603
f 607 549 604
f 607 604 602
f 607 550 549
f 607 602 605
f 608 606 609
f 608 605 606
f 610 608 609
f 611 607 605
f 611 605 608
f 611 550 607
f 611 551 550
f 612 609 613
f 612 610 609
f 614 551 611
f 614 611 608
f 614 608 610
f 614 552 551
f 615 612 613
f 616 614 610
f 616 610 612
f 616 552 614
f 617 615 613
f 617 613 618
f 619 612 615
f 619 616 612
f 619 552 616
f 619 553 552
f 620 617 618
f 621 553 619
f 621 615 617
f 621 619 615
f 622 618 623
f 622 620 618
f 624 553 621
f 624 621 617
f 624 617 620
f 624 554 553
f 625 622 623
f 626 554 624
f 626 620 622
f 626 624 620
f 627 623 628
f 627 625 623
f 629 554 626
f 629 626 622
f 629 622 625
f 629 555 554
f 630 627 628
f 631 629 625
f 631 625 627
f 631 555 629
f 632 630 628
f 632 628 633
f 634 555 631
f 634 631 627
f 634 556 555
f 634 627 630
f 635 632 633
f 636 556 634
f 636 630 632
f 636 634 630
f 637 633 638
f 637 635 633
f 639 635 637
f 639 556 636
f 639 632 635
f 639 636 632
f 639 557 556
f 640 637 638
f 641 639 637
f 641 557 639
f 642 638 643
f 642 640 638
f 644 637 640
f 644 558 557
f 644 641 637
f 644 557 641
f 645 642 643
f 646 640 642
f 646 644 640
f 646 558 644
f 647 643 648
f 647 645 643
f 649 559 558
f 649 558 646
f 649 642 645
f 649 646 642
f 650 647 648
f 651 649 645
f 651 559 649
f 651 645 647
f 652 650 648
f 652 648 653
f 654 651 647
f 654 559 651
f 654 647 650
f 654 560 559
f 655 652 653
f 656 650 652
f 656 654 650
f 656 560 654
f 656 652 655
f 657 653 658
f 657 655 653
f 659 560 656
f 659 656 655
f 659 561 560
f 660 659 655
f 660 655 657
f 660 561 659
f 661 657 658
f 662 660 657
f 662 561 660
f 662 657 661
f 662 562 561
f 663 658 664
f 663 661 658
f 665 662 661
f 665 562 662
f 665 661 663
f 665 563 562
f 666 664 667
f 666 663 664
f 668 665 663
f 668 563 665
f 668 663 666
f 668 564 563
f 669 667 670
f 669 668 666
f 669 666 667
f 671 564 668
f 671 565 564
f 671 668 669
f 672 670 673
f 672 669 670
f 674 671 669
f 674 565 671
f 674 669 672
f 674 566 565
f 675 673 676
f 675 672 673
f 677 674 672
f 677 566 674
f 677 672 675
f 677 567 566
f 678 676 679
f 678 675 676
f 680 677 675
f 680 567 677
f 680 675 678
f 680 568 567
f 681 679 682
f 681 678 679
f 683 680 678
f 683 569 568
f 683 568 680
f 683 678 681
f 684 682 685
f 684 681 682
f 686 570 569
f 686 569 683
f 686 683 681
f 686 681 684
f 687 685 688
f 687 684 685
f 689 571 570
f 689 686 684
f 689 684 687
f 689 570 686
f 690 687 688
f 690 688 691
f 692 690 691
f 693 572 571
f 693 571 689
f 693 689 687
f 693 687 690
f 694 691 695
f 694 692 691
f 696 573 572
f 696 572 693
f 696 690 692
f 696 693 690
f 697 694 695
f 698 696 692
f 698 692 694
f 698 573 696
f 699 697 695
f 699 695 700
f 701 694 697
f 701 573 698
f 701 574 573
f 701 698 694
f 702 699 700
f 703 697 699
f 703 701 697
f 703 574 701
f 704 702 700
f 704 700 705
f 706 699 702
f 706 703 699
f 706 574 703
f 706 575 574
f 707 704 705
f 708 702 704
f 708 706 702
f 708 575 706
f 709 707 705
f 709 705 710
f 711 708 704
f 711 704 707
f 711 575 708
f 711 576 575
f 712 709 710
f 713 707 709
f 713 711 707
f 713 576 711
f 714 712 710
f 714 710 715
f 716 713 709
f 716 709 712
f 716 576 713
f 716 577 576
f 717 714 715
f 718 712 714
f 718 716 712
f 718 577 716
f 719 717 715
f 719 715 720
f 721 718 714
f 721 714 717
f 721 577 718
f 721 578 577
f 722 719 720
f 723 717 719
f 723 721 717
f 723 578 721
f 724 720 725
f 724 722 720
f 726 579 578
f 726 719 722
f 726 723 719
f 726 578 723
f 727 724 725
f 728 722 724
f 728 579 726
f 728 726 722
f 729 725 730
f 729 727 725
f 731 580 579
f 731 724 727
f 731 728 724
f 731 579 728
f 732 729 730
f 733 580 731
f 733 727 729
f 733 731 727
f 734 730 735
f 734 732 730
f 736 581 580
f 736 729 732
f 736 733 729
f 736 580 733
f 736 732 734
f 737 734 735
f 738 581 736
f 738 736 734
f 739 735 740
f 739 737 735
f 741 738 734
f 741 581 738
f 741 734 737
f 741 582 581
f 742 739 740
f 743 741 737
f 743 582 741
f 743 737 739
f 744 582 743
f 744 743 739
f 744 739 742
f 744 583 582
f 745 740 746
f 745 742 740
f 747 744 742
f 747 742 745
f 747 583 744
f 747 584 583
f 748 747 745
f 748 745 746
f 748 746 749
f 748 749 750
f 751 747 748
f 751 584 747
f 751 585 584
f 752 748 750
f 753 751 748
f 753 748 752
f 753 585 751
f 753 586 585
f 754 750 755
f 754 755 756
f 754 756 757
f 754 752 750
f 758 753 752
f 758 752 754
f 758 586 753
f 758 754 757
f 758 757 589
f 758 587 586
f 758 589 587
f 545 759 595
f 760 757 756
f 760 756 761
f 762 589 757
f 762 588 589
f 762 763 588
f 762 757 760
f 764 761 765
f 764 760 761
f 766 762 760
f 766 763 762
f 766 760 764
f 766 767 763
f 768 765 769
f 768 764 765
f 770 764 768
f 770 771 767
f 770 766 764
f 770 767 766
f 772 769 773
f 772 768 769
f 774 770 768
f 774 771 770
f 774 768 772
f 774 775 771
f 776 773 777
f 776 772 773
f 778 775 774
f 778 774 772
f 778 779 775
f 778 772 776
f 780 777 781
f 780 776 777
f 782 780 781
f 783 778 776
f 783 776 780
f 783 779 778
f 783 784 779
f 785 781 786
f 785 782 781
f 787 784 783
f 787 783 780
f 787 780 782
f 787 788 784
f 789 785 786
f 790 787 782
f 790 782 785
f 790 788 787
f 791 789 786
f 791 786 792
f 793 785 789
f 793 790 785
f 793 788 790
f 793 794 788
f 795 791 792
f 796 794 793
f 796 789 791
f 796 793 789
f 797 792 798
f 797 795 792
f 799 794 796
f 799 796 791
f 799 791 795
f 799 800 794
f 801 797 798
f 802 800 799
f 802 795 797
f 802 799 795
f 803 798 804
f 803 801 798
f 805 800 802
f 805 802 797
f 805 797 801
f 805 806 800
f 807 803 804
f 808 805 801
f 808 801 803
f 808 806 805
f 809 807 804
f 809 804 810
f 811 806 808
f 811 808 803
f 811 812 806
f 811 803 807
f 813 809 810
f 814 812 811
f 814 807 809
f 814 811 807
f 815 810 816
f 815 813 810
f 817 812 814
f 817 809 813
f 817 814 809
f 817 818 812
f 819 815 816
f 820 813 815
f 820 817 813
f 820 818 817
f 821 816 822
f 821 819 816
f 823 815 819
f 823 824 818
f 823 820 815
f 823 818 820
f 825 821 822
f 826 823 819
f 826 819 821
f 826 824 823
f 827 822 828
f 827 825 822
f 829 830 824
f 829 824 826
f 829 821 825
f 829 826 821
f 831 827 828
f 832 829 825
f 832 830 829
f 832 825 827
f 833 831 828
f 833 828 834
f 835 831 833
f 835 832 827
f 835 830 832
f 835 827 831
f 835 836 830
f 837 833 834
f 838 835 833
f 838 836 835
f 839 834 840
f 839 837 834
f 841 838 833
f 841 836 838
f 841 833 837
f 841 842 836
f 843 837 839
f 843 841 837
f 843 842 841
f 844 843 839
f 844 839 840
f 845 842 843
f 845 843 844
f 845 846 842
f 847 840 848
f 847 844 840
f 849 845 844
f 849 846 845
f 849 844 847
f 849 850 846
f 851 848 852
f 851 849 847
f 851 847 848
f 853 850 849
f 853 854 850
f 853 849 851
f 855 852 856
f 855 851 852
f 857 853 851
f 857 854 853
f 857 851 855
f 857 858 854
f 859 856 860
f 859 855 856
f 861 857 855
f 861 858 857
f 861 855 859
f 861 862 858
f 863 860 864
f 863 859 860
f 865 861 859
f 865 862 861
f 865 859 863
f 865 866 862
f 867 864 868
f 867 863 864
f 869 865 863
f 869 866 865
f 869 863 867
f 869 870 866
f 871 868 872
f 871 867 868
f 873 869 867
f 873 874 870
f 873 870 869
f 873 867 871
f 875 872 876
f 875 871 872
f 877 878 874
f 877 874 873
f 877 873 871
f 877 871 875
f 879 876 880
f 879 875 876
f 881 882 878
f 881 877 875
f 881 875 879
f 881 878 877
f 883 879 880
f 883 880 884
f 885 883 884
f 886 887 882
f 886 882 881
f 886 881 879
f 886 879 883
f 888 884 889
f 888 885 884
f 890 891 887
f 890 887 886
f 890 883 885
f 890 886 883
f 892 888 889
f 893 890 885
f 893 885 888
f 893 891 890
f 894 892 889
f 894 889 895
f 896 888 892
f 896 891 893
f 896 897 891
f 896 893 888
f 898 894 895
f 899 892 894
f 899 896 892
f 899 897 896
f 900 898 895
f 900 895 901
f 902 894 898
f 902 899 894
f 902 897 899
f 902 903 897
f 904 900 901
f 905 898 900
f 905 902 898
f 905 903 902
f 906 904 901
f 906 901 907
f 908 905 900
f 908 900 904
f 908 903 905
f 908 909 903
f 910 906 907
f 911 904 906
f 911 908 904
f 911 909 908
f 912 910 907
f 912 907 913
f 914 911 906
f 914 906 910
f 914 909 911
f 914 915 909
f 916 912 913
f 917 910 912
f 917 914 910
f 917 915 914
f 918 916 913
f 918 913 919
f 920 917 912
f 920 912 916
f 920 915 917
f 920 921 915
f 922 918 919
f 923 916 918
f 923 920 916
f 923 921 920
f 924 919 925
f 924 922 919
f 926 927 921
f 926 918 922
f 926 923 918
f 926 921 923
f 928 924 925
f 929 922 924
f 929 927 926
f 929 926 922
f 930 925 931
f 930 928 925
f 932 933 927
f 932 924 928
f 932 929 924
f 932 927 929
f 934 930 931
f 935 933 932
f 935 928 930
f 935 932 928
f 936 931 937
f 936 934 931
f 938 939 933
f 938 930 934
f 938 935 930
f 938 933 935
f 938 934 936
f 940 936 937
f 941 939 938
f 941 938 936
f 942 937 943
f 942 940 937
f 944 941 936
f 944 939 941
f 944 936 940
f 944 945 939
f 946 942 943
f 947 944 940
f 947 945 944
f 947 940 942
f 948 945 947
f 948 947 942
f 948 942 946
f 948 949 945
f 950 943 951
f 950 946 943
f 952 948 946
f 952 946 950
f 952 949 948
f 952 953 949
f 954 952 950
f 954 950 951
f 954 951 955
f 954 955 956
f 957 952 954
f 957 953 952
f 957 958 953
f 959 954 956
f 960 957 954
f 960 954 959
f 960 958 957
f 960 961 958
f 962 956 963
f 962 963 592
f 962 592 591
f 962 959 956
f 964 960 959
f 964 959 962
f 964 961 960
f 964 962 591
f 964 591 595
f 964 759 961
f 964 595 759
f 478 480 588
f 478 588 763
f 476 763 767
f 476 478 763
f 474 476 767
f 474 767 771
f 472 474 771
f 472 771 775
f 470 472 775
f 470 775 779
f 468 470 779
f 468 779 784
f 466 468 784
f 466 784 788
f 464 466 788
f 464 788 794
f 462 464 794
f 462 794 800
f 460 462 800
f 460 800 806
f 459 460 806
f 459 806 812
f 461 459 812
f 461 812 818
f 463 461 818
f 463 818 824
f 465 463 824
f 465 824 830
f 467 465 830
f 467 830 836
f 469 467 836
f 469 836 842
f 471 469 842
f 471 842 846
f 473 471 846
f 473 846 850
f 475 473 850
f 475 850 854
f 477 854 858
f 477 475 854
f 479 477 858
f 479 858 862
f 481 862 866
f 481 479 862
f 483 870 874
f 483 866 870
f 483 481 866
f 485 483 874
f 487 874 878
f 487 485 874
f 489 878 882
f 489 487 878
f 491 882 887
f 491 489 882
f 492 491 887
f 492 891 897
f 492 887 891
f 493 492 897
f 494 493 897
f 494 897 903
f 495 494 903
f 495 903 909
f 496 495 909
f 496 909 915
f 503 496 915
f 503 915 921
f 505 503 921
f 505 921 927
f 507 505 927
f 507 927 933
f 509 507 933
f 509 933 939
f 510 509 939
f 510 939 945
f 512 510 945
f 512 949 953
f 512 945 949
f 525 512 953
f 528 953 958
f 528 525 953
f 530 958 961
f 530 528 958
f 539 759 545
f 539 961 759
f 539 530 961
f 541 539 545
f 592 963 965
f 966 967 968
f 966 968 969
f 970 967 966
f 970 761 756
f 970 971 967
f 970 756 971
f 972 966 969
f 972 969 973
f 974 972 973
f 975 765 761
f 975 761 970
f 975 970 966
f 975 966 972
f 976 973 977
f 976 974 973
f 978 975 972
f 978 769 765
f 978 972 974
f 978 765 975
f 979 976 977
f 980 974 976
f 980 978 974
f 980 769 978
f 981 979 977
f 981 977 982
f 983 773 769
f 983 976 979
f 983 980 976
f 983 769 980
f 984 981 982
f 985 983 979
f 985 773 983
f 985 979 981
f 986 777 773
f 986 773 985
f 986 985 981
f 986 981 984
f 987 982 988
f 987 984 982
f 989 781 777
f 989 984 987
f 989 777 986
f 989 986 984
f 990 988 991
f 990 987 988
f 992 781 989
f 992 786 781
f 992 989 987
f 992 987 990
f 993 990 991
f 993 991 994
f 995 993 994
f 996 792 786
f 996 990 993
f 996 992 990
f 996 786 992
f 997 995 994
f 997 994 998
f 999 798 792
f 999 792 996
f 999 993 995
f 999 996 993
f 1000 997 998
f 1001 798 999
f 1001 995 997
f 1001 999 995
f 1002 1000 998
f 1002 998 1003
f 1004 804 798
f 1004 1001 997
f 1004 1000 1002
f 1004 997 1000
f 1004 798 1001
f 1005 804 1004
f 1005 1004 1002
f 1006 1002 1003
f 1007 810 804
f 1007 804 1005
f 1007 1002 1006
f 1007 1005 1002
f 1008 1006 1003
f 1008 1003 1009
f 1010 816 810
f 1010 810 1007
f 1010 1006 1008
f 1010 1007 1006
f 1011 1008 1009
f 1011 1009 1012
f 1013 822 816
f 1013 816 1010
f 1013 1010 1008
f 1013 1008 1011
f 1014 1011 1012
f 1014 1012 1015
f 1016 1014 1015
f 1017 828 822
f 1017 822 1013
f 1017 1013 1011
f 1017 1011 1014
f 1018 1016 1015
f 1018 1015 1019
f 1020 834 828
f 1020 828 1017
f 1020 1014 1016
f 1020 1017 1014
f 1021 1018 1019
f 1022 1016 1018
f 1022 834 1020
f 1022 1020 1016
f 1023 1019 1024
f 1023 1021 1019
f 1025 840 834
f 1025 834 1022
f 1025 1018 1021
f 1025 1022 1018
f 1026 840 1025
f 1026 1021 1023
f 1026 1025 1021
f 1027 1023 1024
f 1028 848 840
f 1028 840 1026
f 1028 1026 1023
f 1028 1023 1027
f 1029 1024 1030
f 1029 1027 1024
f 1031 852 848
f 1031 1028 1027
f 1031 848 1028
f 1031 1027 1029
f 1032 1030 1033
f 1032 1029 1030
f 1034 1032 1033
f 1035 856 852
f 1035 1029 1032
f 1035 1031 1029
f 1035 852 1031
f 1036 1033 1037
f 1036 1034 1033
f 1038 1032 1034
f 1038 1035 1032
f 1038 860 856
f 1038 856 1035
f 1039 1036 1037
f 1040 1038 1034
f 1040 860 1038
f 1040 1034 1036
f 1041 1037 1042
f 1041 1039 1037
f 1043 860 1040
f 1043 1040 1036
f 1043 864 860
f 1043 1036 1039
f 1044 1041 1042
f 1045 1039 1041
f 1045 864 1043
f 1045 1043 1039
f 1046 1042 1047
f 1046 1044 1042
f 1048 1041 1044
f 1048 868 864
f 1048 864 1045
f 1048 1045 1041
f 1049 1048 1044
f 1049 868 1048
f 1049 1044 1046
f 1050 1046 1047
f 1051 872 868
f 1051 868 1049
f 1051 1049 1046
f 1051 1046 1050
f 1052 1050 1047
f 1052 1047 1053
f 1054 876 872
f 1054 872 1051
f 1054 1051 1050
f 1054 1050 1052
f 1055 1052 1053
f 1055 1053 1056
f 1057 1055 1056
f 1058 880 876
f 1058 1054 1052
f 1058 876 1054
f 1058 1052 1055
f 1059 1057 1056
f 1059 1056 1060
f 1061 884 880
f 1061 880 1058
f 1061 1055 1057
f 1061 1058 1055
f 1061 1057 1059
f 1062 1059 1060
f 1063 884 1061
f 1063 1061 1059
f 1064 1060 1065
f 1064 1062 1060
f 1066 889 884
f 1066 1059 1062
f 1066 1063 1059
f 1066 1062 1064
f 1066 884 1063
f 1067 1064 1065
f 1068 889 1066
f 1068 1066 1064
f 1069 895 889
f 1069 1064 1067
f 1069 1068 1064
f 1069 889 1068
f 1070 1065 1071
f 1070 1067 1065
f 1072 901 895
f 1072 895 1069
f 1072 1069 1067
f 1072 1067 1070
f 1073 1071 1074
f 1073 1072 1070
f 1073 1070 1071
f 1075 907 901
f 1075 901 1072
f 1075 1072 1073
f 1076 1075 1073
f 1076 1073 1074
f 1076 1074 1077
f 1078 1076 1077
f 1079 913 907
f 1079 907 1075
f 1079 1075 1076
f 1080 1078 1077
f 1080 1077 1081
f 1082 1076 1078
f 1082 913 1079
f 1082 1079 1076
f 1082 919 913
f 1083 1080 1081
f 1084 1082 1078
f 1084 1078 1080
f 1084 919 1082
f 1085 1083 1081
f 1085 1081 1086
f 1087 1084 1080
f 1087 1080 1083
f 1087 919 1084
f 1087 925 919
f 1088 1085 1086
f 1088 1086 1089
f 1090 1083 1085
f 1090 1087 1083
f 1090 925 1087
f 1091 1085 1088
f 1091 1090 1085
f 1091 925 1090
f 1091 931 925
f 1092 1088 1089
f 1092 1091 1088
f 1093 931 1091
f 1093 937 931
f 1093 1091 1092
f 1094 1092 1089
f 1094 1089 1095
f 1096 1092 1094
f 1096 943 937
f 1096 1093 1092
f 1096 937 1093
f 1097 1096 1094
f 1097 1094 1095
f 1097 1095 1098
f 1099 1097 1098
f 1100 1096 1097
f 1100 951 943
f 1100 943 1096
f 1101 1098 1102
f 1101 1099 1098
f 1103 955 951
f 1103 1100 1097
f 1103 1097 1099
f 1103 951 1100
f 1104 1101 1102
f 1105 1103 1099
f 1105 1099 1101
f 1105 955 1103
f 1106 1102 1107
f 1106 1104 1102
f 1108 1105 1101
f 1108 956 955
f 1108 1101 1104
f 1108 955 1105
f 1109 1110 1111
f 1109 1106 1107
f 1109 1107 1110
f 1112 1104 1106
f 1112 956 1108
f 1112 1108 1104
f 1113 1111 965
f 1113 1109 1111
f 1113 1106 1109
f 1113 965 963
f 1113 963 956
f 1113 1112 1106
f 1113 956 1112
f 1114 1115 1116
f 1060 1071 1065
f 1056 1071 1060
f 1117 1118 1115
f 1074 1081 1077
f 1071 1081 1074
f 1081 1089 1086
f 1102 1110 1107
f 1098 1110 1102
f 1095 1110 1098
f 1089 1110 1095
f 1119 1120 1121
f 1122 1123 1124
f 1081 1125 1089
f 1053 1125 1056
f 1047 1125 1053
f 1042 1125 1047
f 1118 1125 1115
f 1037 1125 1042
f 1033 1125 1037
f 1030 1125 1033
f 1024 1125 1030
f 1019 1125 1024
f 1015 1125 1019
f 1012 1125 1015
f 1009 1125 1012
f 1003 1125 1009
f 998 1125 1003
f 994 1125 998
f 991 1125 994
f 988 1125 991
f 982 1125 988
f 977 1125 982
f 973 1125 977
f 1115 1125 1116
f 969 1125 973
f 968 1125 969
f 1126 1125 968
f 1127 1125 1126
f 1128 1125 1127
f 1129 1125 1128
f 1116 1125 1129
f 1071 1125 1081
f 1130 1125 1118
f 1131 1125 1130
f 1132 1125 1131
f 1133 1125 1132
f 1134 1125 1133
f 1135 1125 1134
f 1136 1125 1135
f 1137 1125 1136
f 1138 1125 1137
f 1124 1125 1138
f 1139 1125 1123
f 1140 1125 1139
f 1141 1125 1140
f 1142 1125 1141
f 1143 1125 1144
f 1089 1125 1110
f 1145 1125 1143
f 1146 1125 1145
f 1120 1125 1146
f 1110 1125 1119
f 1119 1125 1120
f 1123 1125 1124
f 1056 1125 1071
f 756 755 971
f 1147 1111 1110
f 1147 1110 1119
f 1148 1111 1147
f 1148 593 592
f 1148 965 1111
f 1148 592 965
f 1149 1147 1119
f 1149 1119 1121
f 1150 1149 1121
f 1151 597 593
f 1151 593 1148
f 1151 1148 1147
f 1151 1147 1149
f 1152 1121 1120
f 1152 1150 1121
f 1153 1151 1149
f 1153 600 597
f 1153 1149 1150
f 1153 597 1151
f 1154 1152 1120
f 1155 1150 1152
f 1155 1153 1150
f 1155 600 1153
f 1156 1154 1120
f 1156 1120 1146
f 1157 603 600
f 1157 1152 1154
f 1157 1155 1152
f 1157 600 1155
f 1158 1156 1146
f 1159 1157 1154
f 1159 603 1157
f 1159 1154 1156
f 1160 606 603
f 1160 603 1159
f 1160 1159 1156
f 1160 1156 1158
f 1161 1146 1145
f 1161 1158 1146
f 1162 609 606
f 1162 1158 1161
f 1162 606 1160
f 1162 1160 1158
f 1163 1145 1143
f 1163 1161 1145
f 1164 609 1162
f 1164 613 609
f 1164 1162 1161
f 1164 1161 1163
f 1165 1163 1143
f 1165 1143 1144
f 1166 1165 1144
f 1167 618 613
f 1167 1163 1165
f 1167 1164 1163
f 1167 613 1164
f 1168 1166 1144
f 1168 1144 1125
f 1169 623 618
f 1169 618 1167
f 1169 1165 1166
f 1169 1167 1165
f 1170 1168 1125
f 1171 623 1169
f 1171 1166 1168
f 1171 1169 1166
f 1172 1170 1125
f 1172 1125 1142
f 1173 628 623
f 1173 1171 1168
f 1173 1170 1172
f 1173 1168 1170
f 1173 623 1171
f 1174 628 1173
f 1174 1173 1172
f 1175 1172 1142
f 1176 633 628
f 1176 628 1174
f 1176 1172 1175
f 1176 1174 1172
f 1177 1175 1142
f 1177 1142 1141
f 1178 638 633
f 1178 633 1176
f 1178 1175 1177
f 1178 1176 1175
f 1179 1177 1141
f 1179 1141 1140
f 1180 643 638
f 1180 638 1178
f 1180 1178 1177
f 1180 1177 1179
f 1181 1179 1140
f 1181 1140 1139
f 1182 1181 1139
f 1183 648 643
f 1183 643 1180
f 1183 1180 1179
f 1183 1179 1181
f 1184 1182 1139
f 1184 1139 1123
f 1185 653 648
f 1185 648 1183
f 1185 1181 1182
f 1185 1183 1181
f 1186 1184 1123
f 1187 1182 1184
f 1187 653 1185
f 1187 1185 1182
f 1188 1123 1122
f 1188 1186 1123
f 1189 658 653
f 1189 653 1187
f 1189 1184 1186
f 1189 1187 1184
f 1190 658 1189
f 1190 1186 1188
f 1190 1189 1186
f 1191 1188 1122
f 1192 664 658
f 1192 658 1190
f 1192 1190 1188
f 1192 1188 1191
f 1193 1122 1124
f 1193 1191 1122
f 1194 667 664
f 1194 1192 1191
f 1194 664 1192
f 1194 1191 1193
f 1195 1124 1138
f 1195 1193 1124
f 1196 1195 1138
f 1197 670 667
f 1197 1193 1195
f 1197 1194 1193
f 1197 667 1194
f 1198 1138 1137
f 1198 1196 1138
f 1199 1195 1196
f 1199 1197 1195
f 1199 673 670
f 1199 670 1197
f 1200 1198 1137
f 1201 1199 1196
f 1201 673 1199
f 1201 1196 1198
f 1202 1137 1136
f 1202 1200 1137
f 1203 673 1201
f 1203 1201 1198
f 1203 676 673
f 1203 1198 1200
f 1204 1202 1136
f 1205 1200 1202
f 1205 676 1203
f 1205 1203 1200
f 1206 1136 1135
f 1206 1204 1136
f 1207 1202 1204
f 1207 679 676
f 1207 676 1205
f 1207 1205 1202
f 1208 1207 1204
f 1208 679 1207
f 1208 1204 1206
f 1209 1206 1135
f 1210 682 679
f 1210 679 1208
f 1210 1208 1206
f 1210 1206 1209
f 1211 1209 1135
f 1211 1210 1209
f 1211 1135 1134
f 1212 685 682
f 1212 688 685
f 1212 682 1210
f 1212 1210 1211
f 1213 1211 1134
f 1213 1134 1133
f 1214 1213 1133
f 1215 688 1212
f 1215 1212 1211
f 1215 1213 1214
f 1215 1211 1213
f 1216 1214 1133
f 1216 1133 1132
f 1217 691 688
f 1217 688 1215
f 1217 1215 1214
f 1217 1214 1216
f 1218 1216 1132
f 1219 691 1217
f 1219 1217 1216
f 1220 1132 1131
f 1220 1218 1132
f 1221 695 691
f 1221 1216 1218
f 1221 1219 1216
f 1221 1218 1220
f 1221 691 1219
f 1222 1220 1131
f 1223 695 1221
f 1223 1221 1220
f 1224 700 695
f 1224 1220 1222
f 1224 1223 1220
f 1224 695 1223
f 1225 1131 1130
f 1225 1222 1131
f 1226 705 700
f 1226 700 1224
f 1226 1224 1222
f 1226 1222 1225
f 1227 1130 1118
f 1227 1226 1225
f 1227 1225 1130
f 1228 710 705
f 1228 705 1226
f 1228 1226 1227
f 1229 1228 1227
f 1229 1227 1118
f 1229 1118 1117
f 1230 1229 1117
f 1231 715 710
f 1231 710 1228
f 1231 1228 1229
f 1232 1230 1117
f 1232 1117 1115
f 1233 1229 1230
f 1233 715 1231
f 1233 1231 1229
f 1233 720 715
f 1234 1232 1115
f 1235 1233 1230
f 1235 1230 1232
f 1235 720 1233
f 1236 1234 1115
f 1236 1115 1114
f 1237 1235 1232
f 1237 1232 1234
f 1237 720 1235
f 1237 725 720
f 1238 1236 1114
f 1238 1114 1116
f 1239 1234 1236
f 1239 1237 1234
f 1239 725 1237
f 1240 1236 1238
f 1240 1239 1236
f 1240 725 1239
f 1240 730 725
f 1241 1238 1116
f 1242 1238 1241
f 1242 1240 1238
f 1242 730 1240
f 1242 735 730
f 1243 1241 1116
f 1243 1116 1129
f 1244 740 735
f 1244 1242 1241
f 1244 1241 1243
f 1244 735 1242
f 1245 1244 1243
f 1245 1243 1129
f 1245 1129 1128
f 1246 1245 1128
f 1247 1244 1245
f 1247 740 1244
f 1247 746 740
f 1248 1128 1127
f 1248 1246 1128
f 1249 749 746
f 1249 1247 1245
f 1249 1245 1246
f 1249 746 1247
f 1250 1248 1127
f 1251 1249 1246
f 1251 1246 1248
f 1251 749 1249
f 1252 1127 1126
f 1252 1250 1127
f 1253 1251 1248
f 1253 750 749
f 1253 1248 1250
f 1253 749 1251
f 1254 968 967
f 1254 1252 1126
f 1254 1126 968
f 1255 1250 1252
f 1255 750 1253
f 1255 1253 1250
f 1256 967 971
f 1256 1254 967
f 1256 1252 1254
f 1256 971 755
f 1256 755 750
f 1256 1255 1252
f 1256 750 1255
f 3 4 303
f 86 303 305
f 86 3 303
f 84 305 296
f 84 86 305
f 82 296 298
f 82 84 296
f 79 298 297
f 79 82 298
f 80 297 304
f 80 79 297
f 78 304 279
f 78 80 304
f 64 78 279
f 11 64 215
f 215 64 279
f 11 215 208
f 9 208 210
f 9 11 208
f 6 210 209
f 6 9 210
f 7 209 214
f 7 6 209
f 5 214 213
f 5 7 214
f 8 213 212
f 8 5 213
f 12 212 211
f 12 8 212
f 10 12 211
f 218 16 211
f 211 16 10
f 19 16 217
f 217 16 218
f 238 43 217
f 217 43 19
f 42 43 259
f 259 43 238
f 259 258 42
f 258 40 42
f 40 258 268
f 39 268 264
f 39 40 268
f 37 264 263
f 37 39 264
f 38 263 262
f 38 37 263
f 46 262 266
f 46 38 262
f 45 266 265
f 45 46 266
f 48 265 267
f 48 45 265
f 49 48 267
f 49 267 97
f 97 267 201
