# Full FreeCAD instance transform baked; body-local coordinates in mm
v -19.697402002 113.511195082 143.145743199
v -19.636269456 113.471711498 143.145743198
v -19.666343399 113.492215565 143.145743199
v -19.899960610 113.590693477 143.145743199
v -19.829906021 113.570983172 143.145743199
v -19.864687544 113.581711850 143.145743199
v -19.795702516 113.558534114 143.145743199
v -20.189162477 113.597905720 143.145743200
v -20.116952672 113.606954783 143.145743200
v -20.153170409 113.603330652 143.145743200
v -20.294893983 113.570983170 143.145743201
v -20.224839394 113.590693476 143.145743201
v -20.260112461 113.581711849 143.145743201
v -19.376428144 112.629326666 143.145743198
v -19.354977456 112.698868089 143.145743197
v -19.346878004 112.734354111 143.145743197
v -19.364835673 112.663829904 143.145743197
v -20.329097489 113.558534112 143.145743201
v -19.389726050 112.595444155 143.145743198
v -20.395431957 113.528602860 143.145743201
v -20.362637942 113.544395625 143.145743201
v -19.421301763 112.529876511 143.145743198
v -19.404696329 112.562266608 143.145743198
v -19.503190619 112.409767618 143.145743198
v -19.480496456 112.438225198 143.145743198
v -19.459248998 112.467778613 143.145743198
v -20.572110086 113.401579935 143.145743202
v -20.517545063 113.449733853 143.145743202
v -20.545428016 113.426337277 143.145743202
v -20.488530548 113.471711495 143.145743202
v -19.552689914 112.356420065 143.145743198
v -19.527275064 112.382476624 143.145743198
v -20.597524936 113.375523376 143.145743202
v -19.607254936 112.308266147 143.145743198
v -19.579371983 112.331662723 143.145743198
v -19.697401997 112.246804921 143.145743199
v -19.636269452 112.286288505 143.145743198
v -19.666343395 112.265784438 143.145743199
v -20.703498237 113.228123489 143.145743202
v -20.665551001 113.290221387 143.145743202
v -20.685298931 113.259645610 143.145743202
v -20.644303543 113.319774802 143.145743202
v -20.621609381 113.348232382 143.145743202
v -20.458456604 113.492215562 143.145743201
v -19.762162057 112.213604375 143.145743199
v -19.729368042 112.229397140 143.145743199
v -19.795702511 112.199465888 143.145743199
v -20.759964326 113.094170096 143.145743203
v -20.735073949 113.162555845 143.145743202
v -20.748371855 113.128673334 143.145743202
v -20.720103670 113.195733392 143.145743202
v -20.777921996 113.023645889 143.145743203
v -20.769822543 113.059131911 143.145743203
v -20.788768486 112.951684127 143.145743203
v -20.784242548 112.987800256 143.145743203
v -20.007847328 112.151045217 143.145743200
v -19.971629590 112.154669348 143.145743200
v -19.935637522 112.160094280 143.145743200
v -20.792396000 112.878999997 143.145743203
v -20.791488557 112.915387295 143.145743203
v -20.189162472 112.160094279 143.145743200
v -20.153170404 112.154669348 143.145743200
v -20.116952666 112.151045217 143.145743200
v -20.224839389 112.167306523 143.145743201
v -20.260112456 112.176288150 143.145743201
v -19.333311442 112.842612705 143.145743197
v -19.332404000 112.879000003 143.145743197
v -19.336031513 112.806315873 143.145743197
v -19.340557451 112.770199744 143.145743197
v -19.439501068 112.498354390 143.145743198
v -19.480496459 113.319774806 143.145743198
v -19.503190622 113.348232386 143.145743198
v -19.459249001 113.290221391 143.145743198
v -19.439501071 113.259645615 143.145743198
v -19.421301765 113.228123494 143.145743198
v -19.404696331 113.195733396 143.145743198
v -19.389726052 113.162555850 143.145743198
v -19.376428146 113.128673339 143.145743198
v -19.364835674 113.094170101 143.145743197
v -19.354977458 113.059131916 143.145743197
v -19.346878005 113.023645895 143.145743197
v -19.340557452 112.987800261 143.145743197
v -19.336031514 112.951684132 143.145743197
v -19.333311442 112.915387300 143.145743197
v -19.829906016 112.187016830 143.145743199
v -19.864687539 112.176288151 143.145743199
v -19.899960605 112.167306524 143.145743199
v -20.044200692 112.149230896 143.145743200
v -20.080599302 112.149230896 143.145743200
v -20.759964325 112.663829899 143.145743203
v -20.777921995 112.734354105 143.145743203
v -20.769822542 112.698868084 143.145743203
v -20.784242547 112.770199739 143.145743203
v -20.788768485 112.806315868 143.145743203
v -20.791488557 112.842612700 143.145743203
v -20.735073947 112.595444150 143.145743202
v -20.748371853 112.629326661 143.145743202
v -20.395431952 112.229397138 143.145743201
v -20.362637937 112.213604373 143.145743201
v -20.329097484 112.199465886 143.145743201
v -20.427397997 112.246804918 143.145743201
v -20.294893978 112.187016828 143.145743201
v -20.685298929 112.498354385 143.145743202
v -20.720103668 112.562266604 143.145743202
v -20.703498234 112.529876506 143.145743202
v -20.488530543 112.286288502 143.145743202
v -19.762162062 113.544395627 143.145743199
v -19.729368047 113.528602862 143.145743199
v -19.607254940 113.449733857 143.145743198
v -19.579371987 113.426337281 143.145743198
v -19.552689917 113.401579938 143.145743198
v -19.527275067 113.375523380 143.145743198
v -20.458456600 112.265784435 143.145743201
v -20.007847333 113.606954783 143.145743200
v -20.044200697 113.608769104 143.145743200
v -19.971629595 113.603330652 143.145743200
v -19.935637527 113.597905721 143.145743200
v -20.644303540 112.438225194 143.145743202
v -20.665550998 112.467778609 143.145743202
v -20.545428012 112.331662719 143.145743202
v -20.517545059 112.308266143 143.145743202
v -20.597524932 112.382476620 143.145743202
v -20.621609377 112.409767614 143.145743202
v -20.572110082 112.356420062 143.145743202
v -20.427398002 113.511195079 143.145743201
v -20.080599308 113.608769104 143.145743200
v -19.332404000 112.879000003 143.045743397
v -19.333311443 112.915387300 143.045743397
v -19.336031514 112.951684132 143.045743397
v -19.340557453 112.987800261 143.045743397
v -19.346878005 113.023645895 143.045743397
v -19.354977458 113.059131916 143.045743397
v -19.364835675 113.094170101 143.045743397
v -19.376428146 113.128673339 143.045743398
v -19.389726052 113.162555850 143.045743398
v -19.404696331 113.195733396 143.045743398
v -19.421301766 113.228123494 143.045743398
v -19.439501071 113.259645615 143.045743398
v -19.459249001 113.290221391 143.045743398
v -19.480496460 113.319774806 143.045743398
v -19.503190622 113.348232386 143.045743398
v -19.527275068 113.375523380 143.045743398
v -19.552689918 113.401579938 143.045743398
v -19.579371987 113.426337281 143.045743398
v -19.607254941 113.449733857 143.045743398
v -19.636269456 113.471711498 143.045743398
v -19.666343400 113.492215565 143.045743399
v -19.697402002 113.511195082 143.045743399
v -19.729368047 113.528602862 143.045743399
v -19.762162062 113.544395627 143.045743399
v -19.795702516 113.558534114 143.045743399
v -19.829906022 113.570983172 143.045743399
v -19.864687544 113.581711850 143.045743399
v -19.899960611 113.590693477 143.045743399
v -19.935637527 113.597905721 143.045743400
v -19.971629596 113.603330652 143.045743400
v -20.007847333 113.606954783 143.045743400
v -20.044200697 113.608769104 143.045743400
v -20.080599308 113.608769104 143.045743400
v -20.116952672 113.606954783 143.045743400
v -20.153170410 113.603330652 143.045743400
v -20.189162478 113.597905720 143.045743400
v -20.224839394 113.590693476 143.045743401
v -20.260112461 113.581711849 143.045743401
v -20.294893983 113.570983170 143.045743401
v -20.329097489 113.558534112 143.045743401
v -20.362637943 113.544395625 143.045743401
v -20.395431957 113.528602860 143.045743401
v -20.427398002 113.511195079 143.045743401
v -20.458456605 113.492215562 143.045743401
v -20.488530548 113.471711495 143.045743402
v -20.517545063 113.449733853 143.045743402
v -20.545428017 113.426337277 143.045743402
v -20.572110086 113.401579935 143.045743402
v -20.597524936 113.375523376 143.045743402
v -20.621609381 113.348232382 143.045743402
v -20.644303543 113.319774802 143.045743402
v -20.665551002 113.290221387 143.045743402
v -20.685298932 113.259645610 143.045743402
v -20.703498237 113.228123489 143.045743402
v -20.720103671 113.195733392 143.045743402
v -20.735073950 113.162555845 143.045743402
v -20.748371855 113.128673334 143.045743402
v -20.759964327 113.094170096 143.045743403
v -20.769822543 113.059131911 143.045743403
v -20.777921996 113.023645889 143.045743403
v -20.784242548 112.987800256 143.045743403
v -20.788768486 112.951684127 143.045743403
v -20.791488558 112.915387295 143.045743403
v -20.792396000 112.878999997 143.045743403
v -20.791488557 112.842612700 143.045743403
v -20.788768486 112.806315868 143.045743403
v -20.784242547 112.770199739 143.045743403
v -20.777921995 112.734354105 143.045743403
v -20.769822542 112.698868084 143.045743403
v -20.759964325 112.663829899 143.045743403
v -20.748371854 112.629326661 143.045743402
v -20.735073948 112.595444150 143.045743402
v -20.720103669 112.562266604 143.045743402
v -20.703498234 112.529876506 143.045743402
v -20.685298929 112.498354385 143.045743402
v -20.665550999 112.467778609 143.045743402
v -20.644303540 112.438225194 143.045743402
v -20.621609378 112.409767614 143.045743402
v -20.597524932 112.382476620 143.045743402
v -20.572110082 112.356420062 143.045743402
v -20.545428013 112.331662719 143.045743402
v -20.517545059 112.308266143 143.045743402
v -20.488530544 112.286288502 143.045743402
v -20.458456600 112.265784435 143.045743401
v -20.427397998 112.246804918 143.045743401
v -20.395431953 112.229397138 143.045743401
v -20.362637938 112.213604373 143.045743401
v -20.329097484 112.199465886 143.045743401
v -20.294893978 112.187016828 143.045743401
v -20.260112456 112.176288150 143.045743401
v -20.224839389 112.167306523 143.045743401
v -20.189162473 112.160094279 143.045743400
v -20.153170404 112.154669348 143.045743400
v -20.116952667 112.151045217 143.045743400
v -20.080599303 112.149230896 143.045743400
v -20.044200692 112.149230896 143.045743400
v -20.007847328 112.151045217 143.045743400
v -19.971629590 112.154669348 143.045743400
v -19.935637522 112.160094280 143.045743400
v -19.899960606 112.167306524 143.045743399
v -19.864687539 112.176288151 143.045743399
v -19.829906017 112.187016830 143.045743399
v -19.795702511 112.199465888 143.045743399
v -19.762162057 112.213604375 143.045743399
v -19.729368043 112.229397140 143.045743399
v -19.697401998 112.246804921 143.045743399
v -19.666343395 112.265784438 143.045743399
v -19.636269452 112.286288505 143.045743398
v -19.607254937 112.308266147 143.045743398
v -19.579371983 112.331662723 143.045743398
v -19.552689914 112.356420065 143.045743398
v -19.527275064 112.382476624 143.045743398
v -19.503190619 112.409767618 143.045743398
v -19.480496457 112.438225198 143.045743398
v -19.459248998 112.467778613 143.045743398
v -19.439501068 112.498354390 143.045743398
v -19.421301763 112.529876511 143.045743398
v -19.404696329 112.562266608 143.045743398
v -19.389726050 112.595444155 143.045743398
v -19.376428145 112.629326666 143.045743398
v -19.364835673 112.663829904 143.045743397
v -19.354977457 112.698868089 143.045743397
v -19.346878004 112.734354111 143.045743397
v -19.340557452 112.770199744 143.045743397
v -19.336031514 112.806315873 143.045743397
v -19.333311442 112.842612705 143.045743397
f 1 2 3
f 4 5 6
f 4 7 5
f 8 9 10
f 11 12 13
f 14 15 16
f 14 17 15
f 18 12 11
f 19 14 16
f 20 12 18
f 20 18 21
f 22 23 19
f 24 25 26
f 27 28 29
f 27 30 28
f 31 32 24
f 33 30 27
f 34 35 31
f 36 37 34
f 36 38 37
f 36 31 24
f 36 34 31
f 39 30 33
f 39 40 41
f 39 42 40
f 39 43 42
f 39 33 43
f 39 44 30
f 45 46 36
f 47 45 36
f 48 49 50
f 48 51 49
f 48 39 51
f 48 44 39
f 52 48 53
f 54 48 52
f 54 52 55
f 56 57 58
f 59 48 54
f 59 54 60
f 61 62 63
f 64 61 63
f 65 56 58
f 65 66 67
f 65 68 66
f 65 69 68
f 65 16 69
f 65 70 22
f 65 26 70
f 65 71 72
f 65 73 71
f 65 74 73
f 65 75 74
f 65 76 75
f 65 77 76
f 65 64 63
f 65 78 77
f 65 79 78
f 65 80 79
f 65 81 80
f 65 82 81
f 65 83 82
f 65 84 83
f 65 85 47
f 65 67 84
f 65 86 85
f 65 87 86
f 65 58 87
f 65 88 56
f 65 89 88
f 65 63 89
f 65 47 36
f 65 36 24
f 65 19 16
f 65 22 19
f 65 24 26
f 90 91 92
f 90 93 91
f 90 94 93
f 90 95 94
f 90 59 95
f 96 90 97
f 98 99 100
f 101 98 100
f 101 102 65
f 101 100 102
f 103 90 96
f 103 104 105
f 103 96 104
f 106 107 7
f 106 108 107
f 106 1 108
f 106 109 2
f 106 110 109
f 106 111 110
f 106 112 111
f 106 72 112
f 106 65 72
f 106 2 1
f 106 101 65
f 106 113 101
f 106 7 4
f 106 114 115
f 106 116 114
f 106 117 116
f 106 4 117
f 118 90 103
f 118 103 119
f 120 121 106
f 122 118 123
f 124 9 8
f 124 120 106
f 124 118 122
f 124 12 20
f 124 48 59
f 124 90 118
f 124 59 90
f 124 125 44
f 124 44 48
f 124 20 125
f 124 8 12
f 124 126 9
f 124 115 126
f 124 106 115
f 84 67 127
f 84 127 128
f 83 84 128
f 83 128 129
f 82 83 129
f 82 129 130
f 81 82 130
f 81 130 131
f 80 81 131
f 80 131 132
f 79 132 133
f 79 80 132
f 78 133 134
f 78 79 133
f 77 134 135
f 77 78 134
f 76 135 136
f 76 77 135
f 75 136 137
f 75 76 136
f 74 137 138
f 74 75 137
f 73 138 139
f 73 74 138
f 71 139 140
f 71 73 139
f 72 140 141
f 72 71 140
f 112 141 142
f 112 72 141
f 111 142 143
f 111 112 142
f 110 143 144
f 110 111 143
f 109 110 144
f 109 144 145
f 2 109 145
f 2 145 146
f 3 2 146
f 3 146 147
f 1 3 147
f 1 147 148
f 108 1 148
f 108 148 149
f 107 108 149
f 107 149 150
f 7 107 150
f 7 150 151
f 5 7 151
f 5 151 152
f 6 5 152
f 6 152 153
f 4 153 154
f 4 6 153
f 117 154 155
f 117 4 154
f 116 117 155
f 116 155 156
f 114 156 157
f 114 116 156
f 115 157 158
f 115 114 157
f 126 158 159
f 126 115 158
f 9 159 160
f 9 126 159
f 10 160 161
f 10 9 160
f 8 161 162
f 8 10 161
f 12 162 163
f 12 8 162
f 13 164 165
f 13 163 164
f 13 12 163
f 11 13 165
f 18 165 166
f 18 11 165
f 21 166 167
f 21 18 166
f 20 167 168
f 20 21 167
f 125 168 169
f 125 20 168
f 44 125 169
f 44 170 171
f 44 169 170
f 30 44 171
f 28 30 171
f 28 171 172
f 29 28 172
f 29 172 173
f 27 29 173
f 27 173 174
f 33 27 174
f 33 174 175
f 43 175 176
f 43 33 175
f 42 43 176
f 42 176 177
f 40 178 179
f 40 177 178
f 40 42 177
f 41 40 179
f 39 179 180
f 39 41 179
f 51 180 181
f 51 39 180
f 49 182 183
f 49 181 182
f 49 51 181
f 50 49 183
f 48 183 184
f 48 50 183
f 53 184 185
f 53 48 184
f 52 185 186
f 52 53 185
f 55 186 187
f 55 52 186
f 54 187 188
f 54 55 187
f 60 188 189
f 60 54 188
f 59 189 190
f 59 60 189
f 95 59 190
f 95 190 191
f 94 95 191
f 94 191 192
f 93 94 192
f 93 192 193
f 91 93 193
f 91 193 194
f 92 91 194
f 92 194 195
f 90 195 196
f 90 92 195
f 97 196 197
f 97 90 196
f 96 197 198
f 96 97 197
f 104 198 199
f 104 96 198
f 105 199 200
f 105 104 199
f 103 200 201
f 103 105 200
f 119 201 202
f 119 103 201
f 118 202 203
f 118 119 202
f 123 203 204
f 123 118 203
f 122 204 205
f 122 123 204
f 124 205 206
f 124 122 205
f 120 206 207
f 120 124 206
f 121 120 207
f 121 207 208
f 106 121 208
f 106 208 209
f 113 106 209
f 113 209 210
f 101 113 210
f 101 210 211
f 98 101 211
f 98 211 212
f 99 98 212
f 99 212 213
f 100 99 213
f 100 213 214
f 102 100 214
f 102 214 215
f 65 102 215
f 65 216 217
f 65 215 216
f 64 217 218
f 64 65 217
f 61 64 218
f 62 218 219
f 62 61 218
f 63 220 221
f 63 219 220
f 63 62 219
f 89 221 222
f 89 63 221
f 88 89 222
f 56 223 224
f 56 222 223
f 56 88 222
f 57 56 224
f 58 225 226
f 58 224 225
f 58 57 224
f 87 58 226
f 86 226 227
f 86 87 226
f 85 227 228
f 85 86 227
f 47 228 229
f 47 85 228
f 45 229 230
f 45 47 229
f 46 230 231
f 46 45 230
f 36 231 232
f 36 46 231
f 38 36 232
f 38 232 233
f 37 38 233
f 37 233 234
f 34 37 234
f 34 234 235
f 35 34 235
f 35 235 236
f 31 35 236
f 31 236 237
f 32 238 239
f 32 237 238
f 32 31 237
f 24 32 239
f 25 239 240
f 25 24 239
f 26 240 241
f 26 25 240
f 70 241 242
f 70 26 241
f 22 242 243
f 22 70 242
f 23 243 244
f 23 22 243
f 19 245 246
f 19 244 245
f 19 23 244
f 14 19 246
f 17 246 247
f 17 14 246
f 15 247 248
f 15 17 247
f 16 248 249
f 16 15 248
f 69 249 250
f 69 16 249
f 68 250 251
f 68 69 250
f 66 251 252
f 66 68 251
f 67 252 127
f 67 66 252
f 226 228 227
f 219 221 220
f 218 221 219
f 215 218 217
f 215 217 216
f 212 214 213
f 137 136 135
f 137 135 134
f 211 214 212
f 208 211 210
f 208 210 209
f 141 140 139
f 141 139 138
f 141 138 137
f 207 214 211
f 207 215 214
f 207 211 208
f 205 207 206
f 144 143 142
f 144 142 141
f 203 205 204
f 203 207 205
f 146 145 144
f 146 144 141
f 201 203 202
f 149 148 147
f 199 201 200
f 199 203 201
f 150 149 147
f 151 147 146
f 151 150 147
f 197 199 198
f 197 203 199
f 154 153 152
f 154 152 151
f 156 155 154
f 192 195 194
f 192 194 193
f 190 192 191
f 160 159 158
f 160 158 157
f 187 195 192
f 187 192 190
f 187 196 195
f 187 190 189
f 187 189 188
f 163 162 161
f 165 164 163
f 183 187 186
f 183 186 185
f 183 185 184
f 166 127 252
f 166 252 251
f 166 251 250
f 166 137 134
f 166 250 249
f 166 249 248
f 166 248 247
f 166 156 154
f 166 247 246
f 166 246 245
f 166 245 244
f 166 244 243
f 166 243 242
f 166 242 241
f 166 241 240
f 166 240 239
f 166 239 238
f 166 238 237
f 166 237 236
f 166 236 235
f 166 134 133
f 166 235 234
f 166 133 132
f 166 234 233
f 166 132 131
f 166 233 232
f 166 131 130
f 166 160 157
f 166 141 137
f 166 130 129
f 166 165 163
f 166 129 128
f 166 128 127
f 166 163 161
f 166 146 141
f 166 151 146
f 166 161 160
f 166 157 156
f 166 154 151
f 181 187 183
f 181 183 182
f 168 167 166
f 178 181 180
f 178 180 179
f 171 168 166
f 171 170 169
f 171 169 168
f 172 171 166
f 176 181 178
f 176 178 177
f 175 181 176
f 174 218 215
f 174 232 231
f 174 231 230
f 174 230 229
f 174 229 228
f 174 226 225
f 174 225 224
f 174 166 232
f 174 224 223
f 174 223 222
f 174 222 221
f 174 172 166
f 174 187 181
f 174 197 196
f 174 228 226
f 174 207 203
f 174 196 187
f 174 173 172
f 174 221 218
f 174 215 207
f 174 203 197
f 174 181 175
