# smartdrone2 body-local mesh, millimetres
v 40.595086 25.319000 1.320800
v 35.061004 33.518996 1.320800
v 40.261000 25.319000 1.320800
v 41.301181 25.319000 1.320800
v 40.841466 25.268724 1.320800
v 40.909086 25.224826 1.320800
v 40.761138 25.299000 1.320800
v 40.682705 25.313992 1.320800
v 40.986072 25.130989 1.320800
v 41.012831 25.059173 1.320800
v 40.952862 25.181067 1.320800
v 41.023077 24.967758 1.320800
v 41.391474 25.319000 1.320800
v 40.351293 24.046765 1.320800
v 40.588765 24.604779 1.320800
v 40.351293 24.604779 1.320800
v 41.961226 25.319000 1.320800
v 42.073190 25.319000 1.320800
v 40.949939 24.046765 1.320800
v 42.265030 25.211870 1.320800
v 42.310661 25.259406 1.320800
v 42.343991 25.283409 1.320800
v 42.230670 25.154172 1.320800
v 42.380756 25.303048 1.320800
v 42.210451 25.097086 1.320800
v 42.464495 25.329233 1.320800
v 42.408618 25.231058 1.320800
v 42.342348 25.177917 1.320800
v 42.322066 25.149816 1.320800
v 42.366673 25.202487 1.320800
v 42.297687 25.096041 1.320800
v 42.458365 25.250822 1.320800
v 42.561677 25.337962 1.320800
v 42.506813 25.260636 1.320800
v 42.283573 25.024643 1.320800
v 42.635050 25.333230 1.320800
v 42.788587 25.157319 1.320800
v 42.758517 25.194395 1.320800
v 42.730781 25.217441 1.320800
v 42.810339 25.113282 1.320800
v 42.699221 25.235901 1.320800
v 42.639330 25.256129 1.320800
v 42.434363 24.735704 1.320800
v 42.198698 25.032770 1.320800
v 42.823773 25.062364 1.320800
v 42.516531 24.735704 1.320800
v 42.434363 24.651731 1.320800
v 42.827653 25.031011 1.320800
v 42.560774 25.263921 1.320800
v 42.828946 24.997555 1.320800
v 42.181542 24.347442 1.320800
v 41.590120 24.767307 1.320800
v 42.575830 24.739336 1.320800
v 42.630953 24.750308 1.320800
v 42.267321 24.359181 1.320800
v 42.519239 24.651731 1.320800
v 42.681939 24.768739 1.320800
v 42.824765 24.947325 1.320800
v 43.242490 25.319000 1.320800
v 42.767467 25.290238 1.320800
v 42.823311 25.248345 1.320800
v 42.700602 25.319025 1.320800
v 42.882368 25.167263 1.320800
v 42.906055 25.099946 1.320800
v 42.856419 25.210425 1.320800
v 42.726631 24.793649 1.320800
v 42.812359 24.901510 1.320800
v 42.763372 24.824211 1.320800
v 42.791926 24.860309 1.320800
v 41.994634 24.046765 1.320800
v 41.525108 24.701393 1.320800
v 41.391474 24.558729 1.320800
v 41.391474 24.046765 1.320800
v 42.278561 24.301971 1.320800
v 42.712821 24.686433 1.320800
v 42.732934 24.721124 1.320800
v 42.661903 24.695975 1.320800
v 42.237872 24.175415 1.320800
v 42.203538 24.248444 1.320800
v 42.105695 24.046765 1.320800
v 42.759362 24.671863 1.320800
v 42.794333 24.757508 1.320800
v 42.265682 24.138327 1.320800
v 42.820871 24.640487 1.320800
v 42.846102 24.806133 1.320800
v 42.298703 24.106987 1.320800
v 42.388155 24.146080 1.320800
v 42.324433 24.203665 1.320800
v 42.361226 24.165050 1.320800
v 42.872287 24.597555 1.320800
v 42.418345 24.130671 1.320800
v 42.296041 24.252368 1.320800
v 42.364208 24.067104 1.320800
v 42.844501 24.491234 1.320800
v 42.791858 24.567668 1.320800
v 42.752144 24.597166 1.320800
v 42.822415 24.532401 1.320800
v 42.488305 24.110339 1.320800
v 42.607112 24.645434 1.320800
v 42.443429 24.041258 1.320800
v 42.857865 24.444988 1.320800
v 42.570707 24.103650 1.320800
v 42.657105 24.635308 1.320800
v 42.862354 24.393492 1.320800
v 42.703286 24.620638 1.320800
v 42.503953 24.031847 1.320800
v 42.608960 24.104995 1.320800
v 43.850165 25.319000 1.320800
v 43.200052 24.662567 1.320800
v 42.885229 24.864791 1.320800
v 42.908705 24.930471 1.320800
v 42.918659 24.532588 1.320800
v 42.941244 24.471680 1.320800
v 42.898039 24.566404 1.320800
v 52.060996 33.518996 1.320800
v 35.061004 16.519004 1.320800
v 41.060097 24.046765 1.320800
v 40.261000 24.046765 1.320800
v 41.301181 24.046765 1.320800
v 42.570707 24.028707 1.320800
v 42.854236 24.306234 1.320800
v 42.644458 24.109035 1.320800
v 42.701315 24.123065 1.320800
v 42.833075 24.240693 1.320800
v 42.749585 24.145856 1.320800
v 42.813699 24.206748 1.320800
v 42.789443 24.177468 1.320800
v 43.446854 24.823891 1.320800
v 43.319239 25.241348 1.320800
v 43.361978 24.795900 1.320800
v 43.539555 24.833221 1.320800
v 43.850165 25.241348 1.320800
v 43.613104 24.827784 1.320800
v 43.162129 24.303199 1.320800
v 42.949939 24.396201 1.320800
v 42.942578 24.307273 1.320800
v 42.923460 24.237345 1.320800
v 42.948099 24.350295 1.320800
v 43.679316 24.811506 1.320800
v 43.248810 24.320354 1.320800
v 43.456139 24.753395 1.320800
v 43.402309 24.738413 1.320800
v 43.491744 24.758411 1.320800
v 43.342716 24.708616 1.320800
v 43.280413 24.662567 1.320800
v 43.747838 24.778631 1.320800
v 43.190112 24.216004 1.320800
v 42.892505 24.176694 1.320800
v 44.176986 25.199457 1.320800
v 44.221271 25.250377 1.320800
v 44.258299 25.279327 1.320800
v 44.299812 25.302565 1.320800
v 44.146524 25.140457 1.320800
v 44.131478 25.083985 1.320800
v 44.377244 25.328096 1.320800
v 43.740666 24.675886 1.320800
v 43.669955 24.729467 1.320800
v 43.611814 24.750745 1.320800
v 43.707486 24.706001 1.320800
v 43.230688 24.146201 1.320800
v 42.849713 24.125321 1.320800
v 44.126463 25.021935 1.320800
v 43.255684 24.117988 1.320800
v 44.476801 25.337962 1.320800
v 43.776957 24.626495 1.320800
v 44.132538 24.949625 1.320800
v 43.806594 24.730964 1.320800
v 43.283810 24.094324 1.320800
v 42.810324 24.093253 1.320800
v 42.765653 24.067592 1.320800
v 43.365820 24.138033 1.320800
v 43.310194 24.185291 1.320800
v 43.342716 24.153312 1.320800
v 43.802004 24.568526 1.320800
v 43.528720 24.760084 1.320800
v 43.391808 24.125588 1.320800
v 43.282914 24.227038 1.320800
v 44.150984 24.884092 1.320800
v 43.839668 24.691357 1.320800
v 43.350176 24.058181 1.320800
v 42.681166 24.039508 1.320800
v 43.814415 24.512238 1.320800
v 43.452539 24.109101 1.320800
v 43.263889 24.270224 1.320800
v 44.182132 24.824887 1.320800
v 43.866116 24.646763 1.320800
v 43.818562 24.449474 1.320800
v 43.429690 24.036153 1.320800
v 43.525108 24.103650 1.320800
v 43.810158 24.346882 1.320800
v 43.562726 24.105292 1.320800
v 43.522400 24.028707 1.320800
v 43.785042 24.261395 1.320800
v 43.597780 24.110219 1.320800
v 43.766261 24.225144 1.320800
v 43.654297 24.127297 1.320800
v 43.743354 24.193264 1.320800
v 43.702778 24.154972 1.320800
v 44.214382 24.657651 1.320800
v 44.224188 24.775639 1.320800
v 44.270152 24.742393 1.320800
v 44.165289 24.607488 1.320800
v 44.271501 24.693367 1.320800
v 44.302048 24.727192 1.320800
v 44.127901 24.545520 1.320800
v 43.895036 24.562968 1.320800
v 44.336846 24.715840 1.320800
v 44.105762 24.475325 1.320800
v 43.906147 24.453989 1.320800
v 44.098472 24.397104 1.320800
v 43.900842 24.364919 1.320800
v 44.109642 24.288485 1.320800
v 43.884917 24.285829 1.320800
v 44.135156 24.213439 1.320800
v 43.852649 24.205649 1.320800
v 45.173867 25.250377 1.320800
v 44.736847 25.250377 1.320800
v 44.770724 25.213756 1.320800
v 45.129582 25.199458 1.320800
v 44.797143 25.172659 1.320800
v 45.210895 25.279327 1.320800
v 44.680516 25.291028 1.320800
v 45.252408 25.302565 1.320800
v 44.613917 25.319222 1.320800
v 44.659459 24.705306 1.320800
v 44.679349 24.738187 1.320800
v 44.619465 24.715840 1.320800
v 45.099120 25.140457 1.320800
v 44.821120 25.109519 1.320800
v 44.163355 24.165758 1.320800
v 43.805696 24.139068 1.320800
v 45.084074 25.083985 1.320800
v 44.831655 25.020129 1.320800
v 45.329840 25.328096 1.320800
v 44.549085 25.333255 1.320800
v 44.696041 24.690604 1.320800
v 44.730738 24.773022 1.320800
v 45.079058 25.021935 1.320800
v 44.199613 24.124430 1.320800
v 43.762753 24.099722 1.320800
v 44.748670 24.657603 1.320800
v 44.773566 24.820792 1.320800
v 45.429398 25.337962 1.320800
v 45.085133 24.949625 1.320800
v 44.825089 24.945126 1.320800
v 45.501681 25.333255 1.320800
v 44.259651 24.079976 1.320800
v 43.713203 24.068980 1.320800
v 44.796841 24.608005 1.320800
v 45.103579 24.884092 1.320800
v 44.805614 24.878799 1.320800
v 44.331542 24.049167 1.320800
v 43.635225 24.041021 1.320800
v 45.134728 24.824887 1.320800
v 44.402130 24.033843 1.320800
v 44.481316 24.028707 1.320800
v 45.166978 24.657651 1.320800
v 45.176784 24.775639 1.320800
v 45.222748 24.742393 1.320800
v 45.117885 24.607487 1.320800
v 45.224097 24.693367 1.320800
v 45.254644 24.727192 1.320800
v 45.080497 24.545519 1.320800
v 44.832676 24.547144 1.320800
v 44.854243 24.477484 1.320800
v 45.289443 24.715840 1.320800
v 45.058358 24.475325 1.320800
v 44.861452 24.398910 1.320800
v 45.051068 24.397104 1.320800
v 44.856155 24.322078 1.320800
v 45.062238 24.288485 1.320800
v 44.840288 24.253590 1.320800
v 46.109533 25.251949 1.320800
v 45.689442 25.250377 1.320800
v 45.723320 25.213756 1.320800
v 46.144665 25.280514 1.320800
v 45.633112 25.291028 1.320800
v 46.067641 25.200329 1.320800
v 45.749739 25.172659 1.320800
v 45.087752 24.213439 1.320800
v 44.808219 24.183884 1.320800
v 46.184750 25.303363 1.320800
v 45.566513 25.319222 1.320800
v 46.038854 25.138654 1.320800
v 45.773717 25.109519 1.320800
v 45.612055 24.705306 1.320800
v 45.631944 24.738187 1.320800
v 45.572061 24.715840 1.320800
v 46.261008 25.328355 1.320800
v 46.024648 25.078127 1.320800
v 45.784251 25.020129 1.320800
v 45.115951 24.165758 1.320800
v 44.761682 24.125777 1.320800
v 45.648637 24.690604 1.320800
v 45.683334 24.773022 1.320800
v 46.132950 25.144395 1.320800
v 46.171609 25.198007 1.320800
v 46.150037 25.173171 1.320800
v 46.206590 25.224607 1.320800
v 46.248444 25.243849 1.320800
v 46.019917 25.010196 1.320800
v 46.361226 25.337962 1.320800
v 46.114491 25.088986 1.320800
v 45.152208 24.124430 1.320800
v 44.722484 24.093502 1.320800
v 46.297327 25.255734 1.320800
v 45.701266 24.657603 1.320800
v 45.726161 24.820792 1.320800
v 46.022835 24.954661 1.320800
v 45.777685 24.945126 1.320800
v 46.419206 25.335364 1.320800
v 46.107501 25.015614 1.320800
v 46.327694 25.259165 1.320800
v 46.032431 24.907223 1.320800
v 45.758210 24.878799 1.320800
v 45.212247 24.079976 1.320800
v 44.677866 24.067708 1.320800
v 45.749437 24.608005 1.320800
v 46.471836 25.327585 1.320800
v 46.048408 24.864767 1.320800
v 46.540903 25.306242 1.320800
v 45.284138 24.049167 1.320800
v 44.593029 24.039525 1.320800
v 46.068359 24.828501 1.320800
v 46.151596 24.869898 1.320800
v 46.118501 24.932487 1.320800
v 46.132436 24.898944 1.320800
v 46.110231 24.971363 1.320800
v 46.092880 24.797389 1.320800
v 45.785272 24.547144 1.320800
v 45.354726 24.033843 1.320800
v 46.598321 25.273345 1.320800
v 46.175740 24.843861 1.320800
v 46.121771 24.770699 1.320800
v 45.806839 24.477484 1.320800
v 46.625417 25.249774 1.320800
v 46.204669 24.820962 1.320800
v 46.572992 25.178918 1.320800
v 46.539174 25.210521 1.320800
v 46.493322 25.236599 1.320800
v 45.433912 24.028707 1.320800
v 46.649451 25.221868 1.320800
v 46.599738 25.139636 1.320800
v 46.273936 24.786655 1.320800
v 46.432177 25.254373 1.320800
v 46.360323 25.260309 1.320800
v 46.617981 25.097061 1.320800
v 46.688375 25.152908 1.320800
v 46.630300 25.048120 1.320800
v 46.388314 24.746539 1.320800
v 46.715176 25.066178 1.320800
v 45.993731 24.336607 1.320800
v 45.814047 24.398910 1.320800
v 45.808751 24.322078 1.320800
v 46.076801 24.355569 1.320800
v 46.335944 24.672499 1.320800
v 46.261000 24.697781 1.320800
v 46.187675 24.729030 1.320800
v 46.473190 24.719451 1.320800
v 46.018069 24.243628 1.320800
v 45.792884 24.253590 1.320800
v 45.760815 24.183884 1.320800
v 46.453325 24.633673 1.320800
v 46.084429 24.318071 1.320800
v 46.526872 24.699884 1.320800
v 46.053662 24.173959 1.320800
v 46.573999 24.677573 1.320800
v 46.081717 24.137964 1.320800
v 45.714278 24.125776 1.320800
v 46.632417 24.639072 1.320800
v 46.114503 24.106990 1.320800
v 45.675080 24.093501 1.320800
v 46.676132 24.594678 1.320800
v 46.221940 24.134718 1.320800
v 46.143773 24.194418 1.320800
v 46.177928 24.161514 1.320800
v 46.115983 24.235126 1.320800
v 46.178197 24.067105 1.320800
v 45.630462 24.067708 1.320800
v 46.625605 24.499067 1.320800
v 46.601187 24.538693 1.320800
v 46.563752 24.575834 1.320800
v 46.694880 24.566754 1.320800
v 46.286441 24.114117 1.320800
v 46.094579 24.283659 1.320800
v 46.710263 24.536072 1.320800
v 46.641504 24.453039 1.320800
v 46.253510 24.041258 1.320800
v 45.545625 24.039525 1.320800
v 46.647317 24.418809 1.320800
v 46.514382 24.607481 1.320800
v 46.362129 24.107262 1.320800
v 46.730852 24.466356 1.320800
v 46.649262 24.381754 1.320800
v 46.310190 24.031847 1.320800
v 46.421279 24.110866 1.320800
v 46.640834 24.298918 1.320800
v 46.474124 24.121767 1.320800
v 46.737750 24.385366 1.320800
v 46.528114 24.144052 1.320800
v 46.621653 24.242577 1.320800
v 46.573415 24.176788 1.320800
v 46.600518 24.207189 1.320800
v 52.060996 16.519004 1.320800
v 46.685959 24.181476 1.320800
v 46.640685 24.124870 1.320800
v 46.717159 24.248207 1.320800
v 46.732596 24.313077 1.320800
v 46.478323 24.039492 1.320800
v 46.372061 24.028707 1.320800
v 46.559631 24.067478 1.320800
v 46.602670 24.093008 1.320800
v 40.684476 24.615614 1.320800
v 40.779853 24.635412 1.320800
v 40.861786 24.672867 1.320800
v 41.019299 24.911401 1.320800
v 41.008023 24.859291 1.320800
v 40.977240 24.788900 1.320800
v 40.930074 24.727578 1.320800
v 40.897648 24.698090 1.320800
v 41.391474 24.662567 1.320800
v 42.916530 25.002973 1.320800
v 43.284928 24.749248 1.320800
v 40.351293 24.681528 1.320800
v 40.586959 25.241348 1.320800
v 40.351293 25.241348 1.320800
v 40.907331 25.084550 1.320800
v 40.879656 25.130091 1.320800
v 40.841365 25.168841 1.320800
v 40.924408 25.032242 1.320800
v 40.809555 25.190923 1.320800
v 40.594183 24.681528 1.320800
v 40.929336 25.000144 1.320800
v 40.773500 25.209029 1.320800
v 40.930977 24.965953 1.320800
v 40.663963 24.685541 1.320800
v 40.688682 25.233245 1.320800
v 40.726226 24.697577 1.320800
v 40.789636 24.721947 1.320800
v 40.922957 24.891433 1.320800
v 40.842490 24.757375 1.320800
v 40.902102 24.833121 1.320800
v 40.876329 24.792618 1.320800
v 44.238698 25.142223 1.320800
v 44.322681 25.231434 1.320800
v 44.281767 25.201618 1.320800
v 44.257569 25.174137 1.320800
v 44.221572 25.091728 1.320800
v 44.372283 25.252058 1.320800
v 44.421389 25.262299 1.320800
v 44.214047 25.018323 1.320800
v 44.476801 25.265727 1.320800
v 44.215295 24.984912 1.320800
v 44.310691 24.799297 1.320800
v 44.253541 24.859230 1.320800
v 44.283350 24.822160 1.320800
v 44.704102 25.169492 1.320800
v 44.674544 25.203424 1.320800
v 44.649864 25.222461 1.320800
v 44.341819 24.781098 1.320800
v 44.232154 24.903035 1.320800
v 44.725586 25.128358 1.320800
v 44.621873 25.238037 1.320800
v 44.400947 24.761313 1.320800
v 44.219052 24.953673 1.320800
v 44.738916 25.080177 1.320800
v 44.555959 25.258804 1.320800
v 44.742779 25.050308 1.320800
v 44.478607 24.753763 1.320800
v 44.744070 25.018323 1.320800
v 44.537041 24.757356 1.320800
v 44.736696 24.937276 1.320800
v 44.588220 24.768147 1.320800
v 44.717450 24.877031 1.320800
v 44.629530 24.784773 1.320800
v 44.693104 24.837023 1.320800
v 44.664491 24.807727 1.320800
v 45.191294 25.142223 1.320800
v 45.275277 25.231434 1.320800
v 45.234363 25.201618 1.320800
v 45.210165 25.174137 1.320800
v 45.174168 25.091728 1.320800
v 45.324879 25.252058 1.320800
v 45.373986 25.262299 1.320800
v 45.166643 25.018323 1.320800
v 45.429398 25.265727 1.320800
v 45.167891 24.984912 1.320800
v 45.263287 24.799297 1.320800
v 45.206137 24.859230 1.320800
v 45.235946 24.822160 1.320800
v 45.656698 25.169492 1.320800
v 45.627140 25.203424 1.320800
v 45.602460 25.222461 1.320800
v 45.294415 24.781098 1.320800
v 45.184750 24.903035 1.320800
v 45.678182 25.128358 1.320800
v 45.574469 25.238037 1.320800
v 45.353543 24.761313 1.320800
v 45.171648 24.953673 1.320800
v 45.691511 25.080177 1.320800
v 45.508555 25.258804 1.320800
v 45.695375 25.050308 1.320800
v 45.431203 24.753763 1.320800
v 45.696666 25.018323 1.320800
v 45.489637 24.757356 1.320800
v 45.689292 24.937276 1.320800
v 45.540816 24.768147 1.320800
v 45.670046 24.877031 1.320800
v 45.582126 24.784773 1.320800
v 45.645700 24.837023 1.320800
v 45.617087 24.807727 1.320800
v 44.214111 24.537475 1.320800
v 44.263934 24.604539 1.320800
v 44.235847 24.573075 1.320800
v 44.194559 24.482305 1.320800
v 44.310381 24.639010 1.320800
v 44.365300 24.662923 1.320800
v 44.186056 24.403424 1.320800
v 44.418826 24.674826 1.320800
v 44.478607 24.678819 1.320800
v 44.187403 24.365028 1.320800
v 44.290523 24.153171 1.320800
v 44.228553 24.220969 1.320800
v 44.260543 24.179051 1.320800
v 44.325344 24.132613 1.320800
v 44.205562 24.271007 1.320800
v 44.753208 24.524924 1.320800
v 44.729154 24.569643 1.320800
v 44.696011 24.607263 1.320800
v 44.665291 24.630902 1.320800
v 44.392812 24.110322 1.320800
v 44.191455 24.329126 1.320800
v 44.768112 24.473127 1.320800
v 44.630499 24.649885 1.320800
v 44.564713 24.670752 1.320800
v 44.772426 24.441178 1.320800
v 44.773867 24.407036 1.320800
v 44.483122 24.101844 1.320800
v 44.520055 24.103189 1.320800
v 44.765473 24.311392 1.320800
v 44.554529 24.107233 1.320800
v 44.610278 24.121289 1.320800
v 44.743674 24.241083 1.320800
v 44.658359 24.144146 1.320800
v 44.723775 24.205602 1.320800
v 44.698927 24.175881 1.320800
v 45.166707 24.537474 1.320800
v 45.216529 24.604538 1.320800
v 45.188443 24.573075 1.320800
v 45.147155 24.482305 1.320800
v 45.262977 24.639010 1.320800
v 45.317896 24.662923 1.320800
v 45.138652 24.403424 1.320800
v 45.371422 24.674826 1.320800
v 45.431203 24.678819 1.320800
v 45.139999 24.365028 1.320800
v 45.243119 24.153171 1.320800
v 45.181149 24.220969 1.320800
v 45.213139 24.179051 1.320800
v 45.277940 24.132613 1.320800
v 45.158158 24.271007 1.320800
v 45.705804 24.524924 1.320800
v 45.681750 24.569643 1.320800
v 45.648607 24.607263 1.320800
v 45.617887 24.630902 1.320800
v 45.345407 24.110322 1.320800
v 45.144051 24.329126 1.320800
v 45.720707 24.473127 1.320800
v 45.583095 24.649885 1.320800
v 45.517309 24.670752 1.320800
v 45.725022 24.441178 1.320800
v 45.726463 24.407036 1.320800
v 45.435718 24.101844 1.320800
v 45.472652 24.103189 1.320800
v 45.718069 24.311392 1.320800
v 45.507125 24.107233 1.320800
v 45.562874 24.121289 1.320800
v 45.696270 24.241083 1.320800
v 45.610955 24.144146 1.320800
v 45.676371 24.205602 1.320800
v 45.651523 24.175881 1.320800
v 35.061004 33.518996 0.000000
v 52.060996 33.518996 0.000000
v 35.061004 16.519004 0.000000
v 52.060996 16.519004 0.000000
v 40.930977 24.965953 1.300800
v 40.922250 24.888528 1.300800
v 40.842490 24.757375 1.300800
v 40.875752 24.791946 1.300800
v 40.921079 24.883786 1.307467
v 40.901206 24.831228 1.300800
v 40.891516 24.814260 1.307467
v 40.841365 25.168841 1.300800
v 40.882601 25.126191 1.300800
v 40.908819 25.081444 1.300800
v 40.923903 25.034408 1.300800
v 40.929150 25.001607 1.300800
v 40.891183 25.113953 1.307467
v 40.811906 25.189507 1.300800
v 40.688682 25.233245 1.307467
v 40.586959 25.241348 1.300800
v 40.693843 25.232320 1.300800
v 40.773500 25.209029 1.307467
v 40.777714 25.207215 1.300800
v 40.351293 25.241348 1.300800
v 40.351293 24.681528 1.300800
v 40.594183 24.681528 1.300800
v 40.786994 24.720608 1.300800
v 40.659126 24.684989 1.300800
v 40.775706 24.715238 1.307467
v 40.716076 24.694933 1.300800
v 40.692870 24.689956 1.307467
v 40.595086 25.319000 1.300800
v 40.261000 25.319000 1.300800
v 40.682705 25.313992 1.300800
v 40.761138 25.299000 1.300800
v 40.841466 25.268724 1.300800
v 40.909086 25.224826 1.300800
v 40.952862 25.181067 1.300800
v 40.986072 25.130989 1.300800
v 41.012831 25.059173 1.300800
v 40.588765 24.604779 1.300800
v 40.351293 24.604779 1.300800
v 41.023077 24.967758 1.300800
v 40.684476 24.615614 1.300800
v 41.019299 24.911401 1.300800
v 40.779853 24.635412 1.300800
v 41.008023 24.859291 1.300800
v 40.977240 24.788900 1.300800
v 40.861786 24.672867 1.300800
v 40.897648 24.698090 1.300800
v 40.930074 24.727578 1.300800
v 40.261000 24.046765 1.300800
v 40.351293 24.046765 1.300800
v 40.949939 24.046765 1.300800
v 41.060097 24.046765 1.300800
v 41.590120 24.767307 1.300800
v 42.073190 25.319000 1.300800
v 41.961226 25.319000 1.300800
v 41.525108 24.701393 1.300800
v 41.391474 24.662567 1.300800
v 41.391474 24.558729 1.300800
v 41.301181 24.046765 1.300800
v 41.301181 25.319000 1.300800
v 41.391474 24.046765 1.300800
v 41.994634 24.046765 1.300800
v 42.105695 24.046765 1.300800
v 41.391474 25.319000 1.300800
v 42.366673 25.202487 1.300800
v 42.343991 25.283409 1.300800
v 42.310661 25.259406 1.300800
v 42.343095 25.178765 1.300800
v 42.265030 25.211870 1.300800
v 42.323140 25.151579 1.300800
v 42.230670 25.154172 1.300800
v 42.410980 25.232285 1.300800
v 42.380756 25.303048 1.300800
v 42.298583 25.098777 1.300800
v 42.210451 25.097086 1.300800
v 42.466609 25.253057 1.300800
v 42.464495 25.329233 1.300800
v 42.510770 25.261112 1.300800
v 42.561677 25.337962 1.300800
v 42.283573 25.024643 1.300800
v 42.198698 25.032770 1.300800
v 42.560774 25.263921 1.300800
v 42.635050 25.333230 1.300800
v 42.642888 25.255341 1.300800
v 42.700602 25.319025 1.300800
v 42.701963 25.234564 1.300800
v 42.767467 25.290238 1.300800
v 42.732236 25.216399 1.300800
v 42.823311 25.248345 1.300800
v 42.758517 25.194395 1.300800
v 42.790039 25.154997 1.300800
v 42.856419 25.210425 1.300800
v 42.882368 25.167263 1.300800
v 42.812838 25.106294 1.300800
v 42.434363 24.651731 1.300800
v 42.516531 24.735704 1.300800
v 42.434363 24.735704 1.300800
v 42.906055 25.099946 1.300800
v 42.824747 25.056205 1.300800
v 42.519239 24.651731 1.300800
v 42.577813 24.739593 1.300800
v 42.916530 25.002973 1.300800
v 42.828946 24.997555 1.300800
v 42.609309 24.645101 1.300800
v 42.661903 24.695975 1.300800
v 42.681939 24.768739 1.300800
v 42.632784 24.750820 1.300800
v 42.908705 24.930471 1.300800
v 42.824466 24.945630 1.300800
v 42.811860 24.900203 1.300800
v 42.279432 24.298860 1.300800
v 42.267321 24.359181 1.300800
v 42.181542 24.347442 1.300800
v 42.203538 24.248444 1.300800
v 42.732934 24.721124 1.300800
v 42.728249 24.794760 1.300800
v 42.885229 24.864791 1.300800
v 42.791926 24.860309 1.300800
v 42.658748 24.634880 1.300800
v 42.712821 24.686433 1.300800
v 42.794333 24.757508 1.300800
v 42.764594 24.825467 1.300800
v 42.846102 24.806133 1.300800
v 42.297728 24.248622 1.300800
v 42.237872 24.175415 1.300800
v 42.703286 24.620638 1.300800
v 42.759362 24.671863 1.300800
v 42.326124 24.201446 1.300800
v 42.265682 24.138327 1.300800
v 42.753982 24.596055 1.300800
v 42.820871 24.640487 1.300800
v 42.298703 24.106987 1.300800
v 42.361226 24.165050 1.300800
v 42.793241 24.566380 1.300800
v 42.386255 24.147238 1.300800
v 42.872287 24.597555 1.300800
v 42.822415 24.532401 1.300800
v 42.364208 24.067104 1.300800
v 42.414965 24.132149 1.300800
v 42.898039 24.566404 1.300800
v 42.844053 24.492329 1.300800
v 42.918659 24.532588 1.300800
v 42.443429 24.041258 1.300800
v 42.484250 24.111076 1.300800
v 42.941244 24.471680 1.300800
v 42.857558 24.446634 1.300800
v 42.503953 24.031847 1.300800
v 42.570707 24.103650 1.300800
v 42.570707 24.028707 1.300800
v 42.637728 24.108053 1.300800
v 42.949939 24.396201 1.300800
v 42.862354 24.393492 1.300800
v 42.948099 24.350295 1.300800
v 42.853281 24.301697 1.300800
v 42.942578 24.307273 1.300800
v 42.681166 24.039508 1.300800
v 42.694029 24.120596 1.300800
v 42.923460 24.237345 1.300800
v 42.831244 24.236847 1.300800
v 42.765653 24.067592 1.300800
v 42.747491 24.144590 1.300800
v 42.892505 24.176694 1.300800
v 42.812207 24.204621 1.300800
v 42.810324 24.093253 1.300800
v 42.789443 24.177468 1.300800
v 42.849713 24.125321 1.300800
v 43.850165 25.319000 1.300800
v 43.242490 25.319000 1.300800
v 43.319239 25.241348 1.300800
v 43.284928 24.749248 1.300800
v 43.200052 24.662567 1.300800
v 43.850165 25.241348 1.300800
v 43.280413 24.662567 1.300800
v 43.344077 24.709462 1.300800
v 43.361978 24.795900 1.300800
v 43.402309 24.738413 1.300800
v 43.446854 24.823891 1.300800
v 43.454823 24.753140 1.300800
v 43.490626 24.758307 1.300800
v 43.539555 24.833221 1.300800
v 43.528720 24.760084 1.300800
v 43.613104 24.827784 1.300800
v 43.615100 24.749926 1.300800
v 43.679316 24.811506 1.300800
v 43.672087 24.728413 1.300800
v 43.747838 24.778631 1.300800
v 43.262572 24.273901 1.300800
v 43.248810 24.320354 1.300800
v 43.162129 24.303199 1.300800
v 43.190112 24.216004 1.300800
v 43.708427 24.705245 1.300800
v 43.279197 24.234293 1.300800
v 43.806594 24.730964 1.300800
v 43.740666 24.675886 1.300800
v 43.230688 24.146201 1.300800
v 43.308673 24.187191 1.300800
v 43.255684 24.117988 1.300800
v 43.839668 24.691357 1.300800
v 43.779015 24.622812 1.300800
v 43.342716 24.153312 1.300800
v 43.283810 24.094324 1.300800
v 43.866116 24.646763 1.300800
v 43.364267 24.138926 1.300800
v 43.805009 24.558370 1.300800
v 43.350176 24.058181 1.300800
v 43.389071 24.126709 1.300800
v 43.895036 24.562968 1.300800
v 43.815033 24.507376 1.300800
v 43.429690 24.036153 1.300800
v 43.449223 24.109662 1.300800
v 43.906147 24.453989 1.300800
v 43.818562 24.449474 1.300800
v 43.522400 24.028707 1.300800
v 43.564894 24.105532 1.300800
v 43.525108 24.103650 1.300800
v 43.900842 24.364919 1.300800
v 43.809178 24.341567 1.300800
v 43.635225 24.041021 1.300800
v 43.657330 24.128527 1.300800
v 43.601214 24.110942 1.300800
v 43.884917 24.285829 1.300800
v 43.783121 24.257068 1.300800
v 43.713203 24.068980 1.300800
v 43.704074 24.155983 1.300800
v 43.852649 24.205649 1.300800
v 43.764769 24.222744 1.300800
v 43.762753 24.099722 1.300800
v 43.743354 24.193264 1.300800
v 43.805696 24.139068 1.300800
v 44.281767 25.201618 1.300800
v 44.258299 25.279327 1.300800
v 44.221271 25.250377 1.300800
v 44.258645 25.175589 1.300800
v 44.176986 25.199457 1.300800
v 44.320103 25.229969 1.300800
v 44.299812 25.302565 1.300800
v 44.240011 25.144970 1.300800
v 44.146524 25.140457 1.300800
v 44.368278 25.250852 1.300800
v 44.377244 25.328096 1.300800
v 44.222348 25.095100 1.300800
v 44.131478 25.083985 1.300800
v 44.418199 25.261854 1.300800
v 44.476801 25.337962 1.300800
v 44.214047 25.018323 1.300800
v 44.126463 25.021935 1.300800
v 44.132538 24.949625 1.300800
v 44.476801 25.265727 1.300800
v 44.549085 25.333255 1.300800
v 44.218096 24.959922 1.300800
v 44.150984 24.884092 1.300800
v 44.559912 25.258025 1.300800
v 44.613917 25.319222 1.300800
v 44.229644 24.910149 1.300800
v 44.182132 24.824887 1.300800
v 44.619327 25.239210 1.300800
v 44.680516 25.291028 1.300800
v 44.252016 24.861700 1.300800
v 44.649165 25.222914 1.300800
v 44.224188 24.775639 1.300800
v 44.283350 24.822160 1.300800
v 44.674544 25.203424 1.300800
v 44.736847 25.250377 1.300800
v 44.270152 24.742393 1.300800
v 44.309192 24.800374 1.300800
v 44.702774 25.171409 1.300800
v 44.770724 25.213756 1.300800
v 44.302048 24.727192 1.300800
v 44.339030 24.782454 1.300800
v 44.336846 24.715840 1.300800
v 44.797143 25.172659 1.300800
v 44.724239 25.131796 1.300800
v 44.397379 24.762091 1.300800
v 44.263934 24.604539 1.300800
v 44.271501 24.693367 1.300800
v 44.214382 24.657651 1.300800
v 44.236668 24.574128 1.300800
v 44.165289 24.607488 1.300800
v 44.313747 24.640909 1.300800
v 44.215184 24.539690 1.300800
v 44.127901 24.545520 1.300800
v 44.374869 24.665776 1.300800
v 44.195327 24.485502 1.300800
v 44.105762 24.475325 1.300800
v 44.821120 25.109519 1.300800
v 44.738291 25.083497 1.300800
v 44.742586 25.052379 1.300800
v 44.423411 24.675418 1.300800
v 44.478607 24.753763 1.300800
v 44.186056 24.403424 1.300800
v 44.098472 24.397104 1.300800
v 44.478607 24.678819 1.300800
v 44.534207 24.757162 1.300800
v 44.831655 25.020129 1.300800
v 44.744070 25.018323 1.300800
v 44.190475 24.335860 1.300800
v 44.109642 24.288485 1.300800
v 44.825089 24.945126 1.300800
v 44.736113 24.935760 1.300800
v 44.568714 24.669916 1.300800
v 44.583070 24.766952 1.300800
v 44.619465 24.715840 1.300800
v 44.621663 24.780978 1.300800
v 44.203130 24.278366 1.300800
v 44.135156 24.213439 1.300800
v 44.805614 24.878799 1.300800
v 44.722649 24.889663 1.300800
v 44.679349 24.738187 1.300800
v 44.654336 24.799458 1.300800
v 44.773566 24.820792 1.300800
v 44.703395 24.850974 1.300800
v 44.730738 24.773022 1.300800
v 44.681410 24.822625 1.300800
v 44.633727 24.648409 1.300800
v 44.659459 24.705306 1.300800
v 44.227369 24.222983 1.300800
v 44.163355 24.165758 1.300800
v 44.696041 24.690604 1.300800
v 44.667055 24.629732 1.300800
v 44.260543 24.179051 1.300800
v 44.199613 24.124430 1.300800
v 44.696011 24.607263 1.300800
v 44.748670 24.657603 1.300800
v 44.290989 24.152852 1.300800
v 44.731122 24.566733 1.300800
v 44.259651 24.079976 1.300800
v 44.796841 24.608005 1.300800
v 44.327522 24.131563 1.300800
v 44.756166 24.517362 1.300800
v 44.331542 24.049167 1.300800
v 44.388203 24.111308 1.300800
v 44.832676 24.547144 1.300800
v 44.769216 24.466660 1.300800
v 44.402130 24.033843 1.300800
v 44.854243 24.477484 1.300800
v 44.773867 24.407036 1.300800
v 44.483122 24.101844 1.300800
v 44.481316 24.028707 1.300800
v 44.547736 24.106218 1.300800
v 44.861452 24.398910 1.300800
v 44.856155 24.322078 1.300800
v 44.764420 24.306149 1.300800
v 44.593029 24.039525 1.300800
v 44.602638 24.118661 1.300800
v 44.840288 24.253590 1.300800
v 44.741622 24.236670 1.300800
v 44.677866 24.067708 1.300800
v 44.655819 24.142618 1.300800
v 44.808219 24.183884 1.300800
v 44.722095 24.203196 1.300800
v 44.722484 24.093502 1.300800
v 44.698927 24.175881 1.300800
v 44.761682 24.125777 1.300800
v 45.234363 25.201618 1.300800
v 45.210895 25.279327 1.300800
v 45.173867 25.250377 1.300800
v 45.211241 25.175589 1.300800
v 45.129582 25.199458 1.300800
v 45.272699 25.229969 1.300800
v 45.252408 25.302565 1.300800
v 45.192608 25.144970 1.300800
v 45.099120 25.140457 1.300800
v 45.320874 25.250852 1.300800
v 45.329840 25.328096 1.300800
v 45.174944 25.095100 1.300800
v 45.084074 25.083985 1.300800
v 45.370795 25.261854 1.300800
v 45.429398 25.337962 1.300800
v 45.166643 25.018323 1.300800
v 45.079058 25.021935 1.300800
v 45.085133 24.949625 1.300800
v 45.429398 25.265727 1.300800
v 45.501681 25.333255 1.300800
v 45.170692 24.959922 1.300800
v 45.103579 24.884092 1.300800
v 45.512508 25.258025 1.300800
v 45.566513 25.319222 1.300800
v 45.182240 24.910149 1.300800
v 45.134728 24.824887 1.300800
v 45.571923 25.239211 1.300800
v 45.633112 25.291028 1.300800
v 45.204612 24.861700 1.300800
v 45.601761 25.222914 1.300800
v 45.176784 24.775639 1.300800
v 45.235946 24.822160 1.300800
v 45.627140 25.203424 1.300800
v 45.689442 25.250377 1.300800
v 45.222748 24.742393 1.300800
v 45.261788 24.800374 1.300800
v 45.655370 25.171409 1.300800
v 45.723320 25.213756 1.300800
v 45.254644 24.727192 1.300800
v 45.291626 24.782454 1.300800
v 45.289443 24.715840 1.300800
v 45.749739 25.172659 1.300800
v 45.676834 25.131796 1.300800
v 45.349975 24.762091 1.300800
v 45.216529 24.604538 1.300800
v 45.224097 24.693367 1.300800
v 45.166978 24.657651 1.300800
v 45.189264 24.574128 1.300800
v 45.117885 24.607487 1.300800
v 45.266343 24.640909 1.300800
v 45.167780 24.539690 1.300800
v 45.080497 24.545519 1.300800
v 45.327465 24.665776 1.300800
v 45.147923 24.485502 1.300800
v 45.058358 24.475325 1.300800
v 45.773717 25.109519 1.300800
v 45.690886 25.083497 1.300800
v 45.695182 25.052379 1.300800
v 45.376007 24.675418 1.300800
v 45.431203 24.753763 1.300800
v 45.138652 24.403424 1.300800
v 45.051068 24.397104 1.300800
v 45.431203 24.678819 1.300800
v 45.486803 24.757162 1.300800
v 45.784251 25.020129 1.300800
v 45.696666 25.018323 1.300800
v 45.143071 24.335860 1.300800
v 45.062238 24.288485 1.300800
v 45.777685 24.945126 1.300800
v 45.688708 24.935760 1.300800
v 45.521310 24.669916 1.300800
v 45.535666 24.766952 1.300800
v 45.572061 24.715840 1.300800
v 45.574259 24.780978 1.300800
v 45.155726 24.278366 1.300800
v 45.087752 24.213439 1.300800
v 45.758210 24.878799 1.300800
v 45.675245 24.889663 1.300800
v 45.631944 24.738187 1.300800
v 45.606932 24.799458 1.300800
v 45.726161 24.820792 1.300800
v 45.655991 24.850974 1.300800
v 45.683334 24.773022 1.300800
v 45.634006 24.822624 1.300800
v 45.586323 24.648409 1.300800
v 45.612055 24.705306 1.300800
v 45.179965 24.222983 1.300800
v 45.115951 24.165758 1.300800
v 45.648637 24.690604 1.300800
v 45.619651 24.629732 1.300800
v 45.213139 24.179051 1.300800
v 45.152208 24.124430 1.300800
v 45.648607 24.607263 1.300800
v 45.701266 24.657603 1.300800
v 45.243585 24.152852 1.300800
v 45.683718 24.566733 1.300800
v 45.212247 24.079976 1.300800
v 45.749437 24.608005 1.300800
v 45.280118 24.131563 1.300800
v 45.708762 24.517362 1.300800
v 45.284138 24.049167 1.300800
v 45.340799 24.111308 1.300800
v 45.785272 24.547144 1.300800
v 45.721812 24.466660 1.300800
v 45.354726 24.033843 1.300800
v 45.806839 24.477484 1.300800
v 45.726463 24.407036 1.300800
v 45.435718 24.101844 1.300800
v 45.433912 24.028707 1.300800
v 45.500332 24.106218 1.300800
v 45.814047 24.398910 1.300800
v 45.808751 24.322078 1.300800
v 45.717016 24.306149 1.300800
v 45.545625 24.039525 1.300800
v 45.555234 24.118661 1.300800
v 45.792884 24.253590 1.300800
v 45.694218 24.236670 1.300800
v 45.630462 24.067708 1.300800
v 45.608414 24.142618 1.300800
v 45.760815 24.183884 1.300800
v 45.674691 24.203196 1.300800
v 45.675080 24.093501 1.300800
v 45.651523 24.175881 1.300800
v 45.714278 24.125776 1.300800
v 46.171609 25.198007 1.300800
v 46.144665 25.280514 1.300800
v 46.109533 25.251949 1.300800
v 46.149796 25.172828 1.300800
v 46.067641 25.200329 1.300800
v 46.208564 25.225762 1.300800
v 46.184750 25.303363 1.300800
v 46.132104 25.142638 1.300800
v 46.038854 25.138654 1.300800
v 46.254966 25.246011 1.300800
v 46.261008 25.328355 1.300800
v 46.115295 25.092710 1.300800
v 46.024648 25.078127 1.300800
v 46.303278 25.256594 1.300800
v 46.361226 25.337962 1.300800
v 46.107501 25.015614 1.300800
v 46.019917 25.010196 1.300800
v 46.360323 25.260309 1.300800
v 46.419206 25.335364 1.300800
v 46.110435 24.969844 1.300800
v 46.022835 24.954661 1.300800
v 46.435310 25.253598 1.300800
v 46.471836 25.327585 1.300800
v 46.118913 24.931159 1.300800
v 46.032431 24.907223 1.300800
v 46.048408 24.864767 1.300800
v 46.132436 24.898944 1.300800
v 46.478162 25.242306 1.300800
v 46.540903 25.306242 1.300800
v 46.068359 24.828501 1.300800
v 46.150951 24.870722 1.300800
v 46.515031 25.226257 1.300800
v 46.092880 24.797389 1.300800
v 46.598321 25.273345 1.300800
v 46.174899 24.844640 1.300800
v 46.542975 25.208118 1.300800
v 46.121771 24.770699 1.300800
v 46.625417 25.249774 1.300800
v 46.566915 25.186095 1.300800
v 46.204669 24.820962 1.300800
v 46.649451 25.221868 1.300800
v 46.587389 25.159941 1.300800
v 46.187675 24.729030 1.300800
v 46.271222 24.787745 1.300800
v 46.688375 25.152908 1.300800
v 46.604699 25.129496 1.300800
v 46.619733 25.091319 1.300800
v 46.261000 24.697781 1.300800
v 46.715176 25.066178 1.300800
v 46.630300 25.048120 1.300800
v 46.335944 24.672499 1.300800
v 46.388314 24.746539 1.300800
v 46.088547 24.303165 1.300800
v 46.076801 24.355569 1.300800
v 45.993731 24.336607 1.300800
v 46.018069 24.243628 1.300800
v 46.453325 24.633673 1.300800
v 46.473190 24.719451 1.300800
v 46.526872 24.699884 1.300800
v 46.105252 24.257261 1.300800
v 46.053662 24.173959 1.300800
v 46.124355 24.221095 1.300800
v 46.516830 24.606189 1.300800
v 46.573999 24.677573 1.300800
v 46.081717 24.137964 1.300800
v 46.146723 24.190529 1.300800
v 46.565679 24.574294 1.300800
v 46.632417 24.639072 1.300800
v 46.114503 24.106990 1.300800
v 46.172554 24.165249 1.300800
v 46.202291 24.144781 1.300800
v 46.601187 24.538693 1.300800
v 46.676132 24.594678 1.300800
v 46.178197 24.067105 1.300800
v 46.240952 24.126942 1.300800
v 46.694880 24.566754 1.300800
v 46.626936 24.496186 1.300800
v 46.710263 24.536072 1.300800
v 46.253510 24.041258 1.300800
v 46.285316 24.114545 1.300800
v 46.730852 24.466356 1.300800
v 46.643388 24.444399 1.300800
v 46.310190 24.031847 1.300800
v 46.362129 24.107262 1.300800
v 46.372061 24.028707 1.300800
v 46.424675 24.111334 1.300800
v 46.737750 24.385366 1.300800
v 46.649262 24.381754 1.300800
v 46.732596 24.313077 1.300800
v 46.639985 24.295225 1.300800
v 46.478323 24.039492 1.300800
v 46.478367 24.123029 1.300800
v 46.717159 24.248207 1.300800
v 46.620301 24.239746 1.300800
v 46.559631 24.067478 1.300800
v 46.530838 24.145591 1.300800
v 46.685959 24.181476 1.300800
v 46.599423 24.205747 1.300800
v 46.602670 24.093008 1.300800
v 46.573415 24.176788 1.300800
v 46.640685 24.124870 1.300800
v 41.010427 25.068576 1.307467
v 40.972447 25.154285 1.307467
v 40.981475 24.796268 1.307467
v 41.012609 24.876194 1.307467
v 40.779853 24.635412 1.307467
v 40.861786 24.672867 1.307467
v 40.823764 25.277051 1.307467
v 40.719081 25.308489 1.307467
v 42.941244 24.471680 1.307467
v 42.915293 24.538931 1.307467
v 42.905394 24.198157 1.307467
v 42.681166 24.039508 1.307467
v 42.774168 24.071780 1.307467
v 42.372330 24.063538 1.307467
v 42.462915 24.037425 1.307467
v 42.203538 24.248444 1.307467
v 42.242542 24.168245 1.307467
v 42.317015 24.214176 1.307467
v 42.285647 24.278753 1.307467
v 42.488305 24.110339 1.307467
v 42.418345 24.130671 1.307467
v 42.732633 24.136357 1.307467
v 42.659871 24.111802 1.307467
v 42.854236 24.306234 1.307467
v 42.829916 24.234175 1.307467
v 42.844501 24.491234 1.307467
v 42.857865 24.444988 1.307467
v 42.752144 24.597166 1.307467
v 42.791858 24.567668 1.307467
v 42.630953 24.750308 1.307467
v 42.575830 24.739336 1.307467
v 42.763372 24.824211 1.307467
v 42.726631 24.793649 1.307467
v 42.824765 24.947325 1.307467
v 42.812359 24.901510 1.307467
v 42.797644 25.141757 1.307467
v 42.821120 25.076077 1.307467
v 42.639330 25.256129 1.307467
v 42.705244 25.232887 1.307467
v 42.419591 25.236488 1.307467
v 42.484360 25.257031 1.307467
v 42.297687 25.096041 1.307467
v 42.325452 25.155191 1.307467
v 42.255950 25.199244 1.307467
v 42.218495 25.123632 1.307467
v 42.464495 25.329233 1.307467
v 42.380756 25.303048 1.307467
v 42.752768 25.298166 1.307467
v 42.665473 25.328021 1.307467
v 42.906055 25.099946 1.307467
v 42.874864 25.181620 1.307467
v 42.885229 24.864791 1.307467
v 42.908705 24.930471 1.307467
v 42.732934 24.721124 1.307467
v 42.794333 24.757508 1.307467
v 42.814532 24.644541 1.307467
v 42.744338 24.677281 1.307467
v 43.895036 24.562968 1.307467
v 43.861801 24.655243 1.307467
v 43.861535 24.223232 1.307467
v 43.895002 24.328154 1.307467
v 43.635225 24.041021 1.307467
v 43.729740 24.077860 1.307467
v 43.350176 24.058181 1.307467
v 43.429690 24.036153 1.307467
v 43.190112 24.216004 1.307467
v 43.230688 24.146201 1.307467
v 43.303321 24.194211 1.307467
v 43.271952 24.249959 1.307467
v 43.452539 24.109101 1.307467
v 43.391808 24.125588 1.307467
v 43.685686 24.143445 1.307467
v 43.810158 24.346882 1.307467
v 43.785042 24.261395 1.307467
v 43.783844 24.613675 1.307467
v 43.809858 24.538321 1.307467
v 43.611814 24.750745 1.307467
v 43.682414 24.722696 1.307467
v 43.322249 24.695072 1.307467
v 43.362881 24.720354 1.307467
v 43.446854 24.823891 1.307467
v 43.361978 24.795900 1.307467
v 43.732648 24.787673 1.307467
v 43.643752 24.821809 1.307467
v 44.854243 24.477484 1.307467
v 44.832676 24.547144 1.307467
v 44.817042 24.199195 1.307467
v 44.850332 24.290273 1.307467
v 44.593029 24.039525 1.307467
v 44.686384 24.071915 1.307467
v 44.275451 24.071516 1.307467
v 44.369353 24.039475 1.307467
v 44.109642 24.288485 1.307467
v 44.143288 24.197526 1.307467
v 44.127901 24.545520 1.307467
v 44.105762 24.475325 1.307467
v 44.271501 24.693367 1.307467
v 44.214382 24.657651 1.307467
v 44.224188 24.775639 1.307467
v 44.275736 24.739342 1.307467
v 44.132538 24.949625 1.307467
v 44.150984 24.884092 1.307467
v 44.136997 25.110054 1.307467
v 44.377244 25.328096 1.307467
v 44.291934 25.298768 1.307467
v 44.665816 25.298768 1.307467
v 44.579134 25.328096 1.307467
v 44.821120 25.109519 1.307467
v 44.789518 25.186269 1.307467
v 44.805614 24.878799 1.307467
v 44.825089 24.945126 1.307467
v 44.679349 24.738187 1.307467
v 44.730738 24.773022 1.307467
v 44.748670 24.657603 1.307467
v 44.689641 24.693587 1.307467
v 44.626087 24.783025 1.307467
v 44.713036 25.155034 1.307467
v 44.555959 25.258804 1.307467
v 44.621873 25.238037 1.307467
v 44.333536 25.237100 1.307467
v 44.398547 25.258537 1.307467
v 44.221572 25.091728 1.307467
v 44.244145 25.152893 1.307467
v 44.244614 24.874723 1.307467
v 44.221630 24.940027 1.307467
v 44.400947 24.761313 1.307467
v 44.335877 24.784061 1.307467
v 44.765473 24.311392 1.307467
v 44.740426 24.234207 1.307467
v 44.739160 24.553847 1.307467
v 44.765164 24.487088 1.307467
v 44.564713 24.670752 1.307467
v 44.637129 24.646782 1.307467
v 44.322500 24.645574 1.307467
v 44.394007 24.670450 1.307467
v 44.194559 24.482305 1.307467
v 44.220368 24.549294 1.307467
v 44.218962 24.238624 1.307467
v 44.194233 24.313449 1.307467
v 44.392812 24.110322 1.307467
v 44.641371 24.134616 1.307467
v 44.569570 24.110004 1.307467
v 45.806839 24.477484 1.307467
v 45.785272 24.547144 1.307467
v 45.769638 24.199195 1.307467
v 45.802928 24.290273 1.307467
v 45.545625 24.039525 1.307467
v 45.638980 24.071915 1.307467
v 45.228046 24.071516 1.307467
v 45.321949 24.039475 1.307467
v 45.062238 24.288485 1.307467
v 45.095884 24.197526 1.307467
v 45.080497 24.545519 1.307467
v 45.058358 24.475325 1.307467
v 45.224097 24.693367 1.307467
v 45.166978 24.657651 1.307467
v 45.176784 24.775639 1.307467
v 45.228332 24.739342 1.307467
v 45.085133 24.949625 1.307467
v 45.103579 24.884092 1.307467
v 45.121196 25.186336 1.307467
v 45.089593 25.110054 1.307467
v 45.329840 25.328096 1.307467
v 45.244530 25.298768 1.307467
v 45.618412 25.298768 1.307467
v 45.531730 25.328096 1.307467
v 45.773717 25.109519 1.307467
v 45.742114 25.186269 1.307467
v 45.758210 24.878799 1.307467
v 45.777685 24.945126 1.307467
v 45.631944 24.738187 1.307467
v 45.683334 24.773022 1.307467
v 45.701266 24.657603 1.307467
v 45.642237 24.693586 1.307467
v 45.578682 24.783025 1.307467
v 45.665632 25.155034 1.307467
v 45.508555 25.258804 1.307467
v 45.574469 25.238037 1.307467
v 45.286132 25.237100 1.307467
v 45.351143 25.258537 1.307467
v 45.174168 25.091728 1.307467
v 45.196741 25.152893 1.307467
v 45.197210 24.874723 1.307467
v 45.174227 24.940027 1.307467
v 45.353543 24.761313 1.307467
v 45.288473 24.784061 1.307467
v 45.718069 24.311392 1.307467
v 45.693022 24.234207 1.307467
v 45.691756 24.553847 1.307467
v 45.717760 24.487088 1.307467
v 45.517309 24.670752 1.307467
v 45.589725 24.646782 1.307467
v 45.275095 24.645574 1.307467
v 45.346603 24.670450 1.307467
v 45.147155 24.482305 1.307467
v 45.172964 24.549294 1.307467
v 45.171558 24.238624 1.307467
v 45.146829 24.313449 1.307467
v 45.345407 24.110322 1.307467
v 45.593967 24.134616 1.307467
v 45.522166 24.110004 1.307467
v 46.730852 24.466356 1.307467
v 46.710263 24.536072 1.307467
v 46.694543 24.196218 1.307467
v 46.726931 24.283016 1.307467
v 46.478323 24.039492 1.307467
v 46.567831 24.071647 1.307467
v 46.185991 24.063539 1.307467
v 46.271827 24.037425 1.307467
v 46.018069 24.243628 1.307467
v 46.058409 24.167042 1.307467
v 46.126697 24.217353 1.307467
v 46.516229 24.137895 1.307467
v 46.445801 24.114853 1.307467
v 46.640834 24.298918 1.307467
v 46.615552 24.230730 1.307467
v 46.627794 24.494269 1.307467
v 46.643869 24.441943 1.307467
v 46.514382 24.607481 1.307467
v 46.563752 24.575834 1.307467
v 46.286063 24.689067 1.307467
v 46.310926 24.680753 1.307467
v 46.211584 24.717474 1.307467
v 46.236012 24.707165 1.307467
v 46.142589 24.755457 1.307467
v 46.164692 24.741644 1.307467
v 46.084192 24.807235 1.307467
v 46.102053 24.788035 1.307467
v 46.042474 24.878650 1.307467
v 46.054397 24.852422 1.307467
v 46.021183 24.972272 1.307467
v 46.025230 24.937950 1.307467
v 46.059712 25.186768 1.307467
v 46.029857 25.106233 1.307467
v 46.261008 25.328355 1.307467
v 46.177094 25.299635 1.307467
v 46.533809 25.309185 1.307467
v 46.454883 25.330753 1.307467
v 46.688375 25.152908 1.307467
v 46.649451 25.221868 1.307467
v 46.583381 25.165735 1.307467
v 46.221338 25.232619 1.307467
v 46.284109 25.253387 1.307467
v 46.114491 25.088986 1.307467
v 46.118501 24.932487 1.307467
v 46.110231 24.971363 1.307467
v 46.175740 24.843861 1.307467
v 46.151596 24.869898 1.307467
v 46.307070 24.773976 1.307467
v 46.245814 24.798688 1.307467
v 46.626653 24.643644 1.307467
v 46.559018 24.685312 1.307467
f 1 2 3
f 4 5 6
f 4 7 5
f 4 8 7
f 4 1 8
f 4 9 10
f 4 11 9
f 4 6 11
f 4 2 1
f 12 4 10
f 13 2 4
f 14 15 16
f 17 2 13
f 18 2 17
f 19 15 14
f 20 21 18
f 22 18 21
f 23 20 18
f 24 18 22
f 25 23 18
f 26 18 24
f 27 28 29
f 27 30 28
f 31 27 29
f 32 27 31
f 33 18 26
f 33 2 18
f 34 32 31
f 35 34 31
f 36 2 33
f 37 38 39
f 40 41 42
f 40 39 41
f 40 37 39
f 43 35 44
f 45 40 42
f 46 35 43
f 47 43 44
f 48 42 49
f 48 45 42
f 50 48 49
f 51 44 52
f 51 47 44
f 53 49 34
f 53 35 46
f 53 34 35
f 54 49 53
f 55 47 51
f 55 56 47
f 57 50 49
f 57 49 54
f 57 58 50
f 59 60 61
f 59 62 60
f 59 36 62
f 59 63 64
f 59 65 63
f 59 61 65
f 59 2 36
f 66 58 57
f 66 67 58
f 68 69 67
f 68 67 66
f 70 71 72
f 70 72 73
f 74 56 55
f 75 76 77
f 78 79 80
f 81 76 75
f 81 82 76
f 83 78 80
f 84 85 82
f 84 82 81
f 86 83 80
f 87 88 89
f 90 85 84
f 91 92 88
f 91 88 87
f 93 86 80
f 94 95 96
f 94 97 95
f 98 56 74
f 98 92 91
f 98 74 92
f 98 99 56
f 100 93 80
f 101 94 96
f 102 99 98
f 102 103 99
f 104 101 96
f 104 96 105
f 104 105 103
f 106 80 70
f 106 100 80
f 107 103 102
f 108 2 59
f 109 110 85
f 109 111 110
f 109 112 113
f 109 114 112
f 109 90 114
f 109 85 90
f 115 2 108
f 116 70 73
f 116 117 19
f 116 14 118
f 116 118 3
f 116 3 2
f 116 119 117
f 116 73 119
f 116 106 70
f 116 19 14
f 120 106 116
f 121 107 122
f 121 104 103
f 121 103 107
f 123 121 122
f 124 121 123
f 125 124 123
f 126 124 125
f 127 126 125
f 128 129 130
f 131 129 128
f 131 132 129
f 133 132 131
f 134 113 135
f 134 136 137
f 134 138 136
f 134 135 138
f 134 109 113
f 139 132 133
f 140 109 134
f 140 141 142
f 140 143 141
f 140 144 145
f 140 142 144
f 140 145 109
f 146 132 139
f 147 134 137
f 147 137 148
f 149 150 108
f 149 108 132
f 151 108 150
f 152 108 151
f 153 149 132
f 154 153 132
f 155 108 152
f 156 157 158
f 156 159 157
f 160 148 161
f 160 147 148
f 162 132 146
f 162 154 132
f 163 160 161
f 164 108 155
f 164 115 108
f 165 156 158
f 166 162 146
f 166 146 167
f 168 163 161
f 168 169 170
f 168 161 169
f 171 172 173
f 174 158 175
f 174 165 158
f 176 177 172
f 176 172 171
f 178 167 179
f 178 166 167
f 180 168 170
f 180 170 181
f 182 174 175
f 182 175 143
f 183 184 177
f 183 177 176
f 185 179 186
f 185 178 179
f 187 182 143
f 187 143 140
f 188 180 181
f 188 181 120
f 189 184 183
f 189 140 184
f 190 187 140
f 190 140 189
f 190 189 191
f 192 188 120
f 192 120 116
f 193 190 191
f 193 191 194
f 195 193 194
f 195 194 196
f 197 195 196
f 197 196 198
f 199 200 185
f 199 201 200
f 202 185 186
f 202 199 185
f 203 204 201
f 203 201 199
f 205 186 206
f 205 202 186
f 207 204 203
f 208 206 209
f 208 205 206
f 210 209 211
f 210 208 209
f 212 211 213
f 212 210 211
f 214 213 215
f 214 212 213
f 216 217 218
f 219 216 218
f 219 218 220
f 221 217 216
f 221 222 217
f 223 222 221
f 223 224 222
f 225 226 227
f 228 219 220
f 228 220 229
f 230 215 231
f 230 214 215
f 232 228 229
f 232 229 233
f 234 224 223
f 234 235 224
f 236 226 225
f 236 237 226
f 238 232 233
f 239 230 231
f 239 231 240
f 241 237 236
f 241 242 237
f 243 235 234
f 243 164 235
f 243 115 164
f 244 238 233
f 244 233 245
f 246 115 243
f 247 239 240
f 247 240 248
f 249 242 241
f 250 244 245
f 250 245 251
f 252 248 253
f 252 247 248
f 254 242 249
f 254 251 242
f 254 250 251
f 255 252 253
f 255 253 192
f 256 255 192
f 257 258 254
f 257 259 258
f 260 254 249
f 260 257 254
f 261 259 257
f 261 262 259
f 263 264 265
f 263 249 264
f 263 260 249
f 266 262 261
f 267 265 268
f 267 263 265
f 269 268 270
f 269 267 268
f 271 269 270
f 271 270 272
f 273 274 275
f 276 277 274
f 276 274 273
f 278 275 279
f 278 273 275
f 280 271 272
f 280 272 281
f 282 283 277
f 282 277 276
f 284 279 285
f 284 278 279
f 286 287 288
f 289 246 283
f 289 283 282
f 290 285 291
f 290 284 285
f 292 280 281
f 292 281 293
f 294 295 287
f 294 287 286
f 296 297 298
f 296 299 297
f 300 299 296
f 301 290 291
f 302 246 289
f 302 115 246
f 303 300 296
f 304 293 305
f 304 292 293
f 306 300 303
f 307 295 294
f 307 308 295
f 309 291 310
f 309 301 291
f 311 115 302
f 312 306 303
f 312 313 306
f 314 310 315
f 314 309 310
f 316 305 317
f 316 304 305
f 318 308 307
f 319 115 311
f 320 315 308
f 320 314 315
f 321 115 319
f 322 317 323
f 322 316 317
f 324 320 308
f 324 308 318
f 325 326 327
f 325 328 326
f 329 324 318
f 329 318 330
f 331 322 323
f 331 323 256
f 332 115 321
f 333 328 325
f 334 329 330
f 334 330 335
f 336 115 332
f 337 312 328
f 337 328 333
f 338 339 340
f 341 331 256
f 342 115 336
f 343 338 340
f 344 312 337
f 344 313 312
f 344 345 346
f 344 346 313
f 347 343 340
f 347 340 345
f 348 115 342
f 349 345 344
f 349 347 345
f 350 349 344
f 351 115 348
f 352 335 353
f 352 353 354
f 355 356 357
f 355 357 358
f 355 358 334
f 355 335 352
f 355 334 335
f 359 349 350
f 360 361 362
f 360 354 361
f 360 352 354
f 363 355 364
f 363 356 355
f 365 349 359
f 366 360 362
f 367 351 349
f 367 349 365
f 368 362 369
f 368 366 362
f 370 351 367
f 371 369 372
f 371 368 369
f 373 351 370
f 374 375 376
f 374 377 375
f 378 371 372
f 378 372 379
f 380 381 382
f 383 351 373
f 384 377 374
f 384 385 377
f 384 364 385
f 386 351 383
f 387 380 382
f 388 378 379
f 388 379 389
f 390 387 382
f 390 382 391
f 392 363 364
f 392 364 384
f 393 351 386
f 394 390 391
f 395 388 389
f 395 389 341
f 396 363 392
f 396 394 391
f 396 391 363
f 397 394 396
f 398 397 396
f 399 351 393
f 399 115 351
f 400 397 398
f 400 401 397
f 402 401 400
f 402 403 401
f 404 405 406
f 404 407 405
f 404 408 407
f 404 399 408
f 404 409 410
f 404 411 409
f 404 412 411
f 404 406 412
f 404 256 192
f 404 410 395
f 404 115 399
f 404 395 341
f 404 192 116
f 404 341 256
f 413 117 414
f 414 117 415
f 119 4 117
f 117 4 416
f 416 4 12
f 117 416 417
f 117 417 418
f 117 418 419
f 117 419 420
f 117 420 415
f 13 421 17
f 18 52 25
f 25 52 44
f 52 80 79
f 52 79 51
f 109 59 422
f 422 59 64
f 109 422 111
f 129 423 130
f 424 425 426
f 427 428 429
f 430 429 431
f 430 427 429
f 432 425 424
f 433 431 434
f 433 430 431
f 435 433 434
f 436 437 425
f 436 425 432
f 438 434 437
f 438 437 436
f 438 435 434
f 439 440 435
f 439 435 438
f 441 442 440
f 441 443 442
f 441 440 439
f 444 445 446
f 444 446 447
f 448 449 445
f 448 445 444
f 450 449 448
f 451 450 448
f 452 450 451
f 453 452 451
f 454 455 456
f 457 458 459
f 460 461 455
f 460 455 454
f 462 459 463
f 462 457 459
f 464 465 461
f 464 453 465
f 464 461 460
f 466 463 467
f 466 462 463
f 468 466 467
f 469 452 453
f 469 453 464
f 470 467 452
f 470 452 469
f 470 468 467
f 471 470 469
f 472 470 471
f 473 472 471
f 474 472 473
f 475 474 473
f 476 474 475
f 477 476 475
f 478 479 480
f 478 480 481
f 482 483 479
f 482 479 478
f 484 483 482
f 485 484 482
f 486 484 485
f 487 486 485
f 488 489 490
f 491 492 493
f 494 495 489
f 494 489 488
f 496 493 497
f 496 491 493
f 498 499 495
f 498 487 499
f 498 495 494
f 500 497 501
f 500 496 497
f 502 500 501
f 503 486 487
f 503 487 498
f 504 501 486
f 504 486 503
f 504 502 501
f 505 504 503
f 506 504 505
f 507 506 505
f 508 506 507
f 509 508 507
f 510 508 509
f 511 510 509
f 512 513 514
f 515 516 513
f 515 517 516
f 515 513 512
f 518 519 517
f 518 517 515
f 520 519 518
f 521 520 518
f 522 523 524
f 525 526 523
f 525 523 522
f 527 528 529
f 527 529 530
f 531 532 526
f 531 526 525
f 533 534 535
f 533 530 534
f 533 527 530
f 536 533 535
f 537 535 520
f 537 536 535
f 538 521 532
f 538 520 521
f 538 532 531
f 538 537 520
f 539 537 538
f 540 539 541
f 540 537 539
f 542 540 541
f 543 540 542
f 544 543 542
f 545 543 544
f 546 545 544
f 547 548 549
f 550 551 548
f 550 552 551
f 550 548 547
f 553 554 552
f 553 552 550
f 555 554 553
f 556 555 553
f 557 558 559
f 560 561 558
f 560 558 557
f 562 563 564
f 562 564 565
f 566 567 561
f 566 561 560
f 568 569 570
f 568 565 569
f 568 562 565
f 571 568 570
f 572 570 555
f 572 571 570
f 573 556 567
f 573 555 556
f 573 567 566
f 573 572 555
f 574 572 573
f 575 574 576
f 575 572 574
f 577 575 576
f 578 575 577
f 579 578 577
f 580 578 579
f 581 580 579
f 115 582 2
f 583 582 115
f 116 2 582
f 116 582 584
f 585 116 584
f 404 116 585
f 585 583 115
f 585 115 404
f 584 583 585
f 584 582 583
f 435 440 586
f 586 440 587
f 443 588 589
f 443 441 588
f 442 590 440
f 587 590 591
f 440 590 587
f 591 590 442
f 443 592 442
f 591 592 589
f 442 592 591
f 589 592 443
f 429 428 593
f 593 428 594
f 595 430 596
f 427 430 595
f 596 433 597
f 430 433 596
f 597 435 586
f 433 435 597
f 427 598 428
f 594 598 595
f 428 598 594
f 595 598 427
f 431 593 599
f 431 429 593
f 437 600 425
f 425 600 601
f 601 600 602
f 434 603 437
f 431 603 434
f 602 603 604
f 604 603 599
f 600 603 602
f 599 603 431
f 437 603 600
f 426 601 605
f 426 425 601
f 424 426 606
f 606 426 605
f 432 424 607
f 607 424 606
f 441 439 588
f 588 439 608
f 609 432 607
f 436 432 609
f 438 610 439
f 608 610 611
f 439 610 608
f 611 610 438
f 436 612 438
f 611 612 609
f 438 612 611
f 609 612 436
f 613 614 605
f 601 613 605
f 615 613 601
f 602 615 601
f 616 615 602
f 604 616 602
f 617 616 604
f 599 617 604
f 606 605 614
f 593 617 599
f 618 617 593
f 594 618 593
f 619 618 594
f 620 594 595
f 620 619 594
f 621 595 596
f 621 596 597
f 621 620 595
f 622 609 607
f 622 607 606
f 622 606 623
f 624 597 586
f 624 621 597
f 625 611 609
f 625 609 622
f 626 624 586
f 626 586 587
f 627 608 611
f 627 611 625
f 628 626 587
f 628 587 591
f 629 628 591
f 629 591 589
f 630 608 627
f 630 588 608
f 631 588 630
f 632 629 589
f 632 588 631
f 632 589 588
f 633 606 614
f 633 623 606
f 634 623 633
f 635 625 622
f 636 625 635
f 637 638 639
f 640 637 641
f 642 640 641
f 643 641 644
f 643 642 641
f 645 642 643
f 646 637 640
f 647 637 646
f 639 641 637
f 641 648 644
f 649 650 651
f 652 649 651
f 652 651 653
f 654 652 653
f 654 653 655
f 656 650 649
f 656 657 650
f 658 654 655
f 658 655 659
f 660 657 656
f 660 661 657
f 662 661 660
f 662 663 661
f 664 659 665
f 664 658 659
f 666 663 662
f 667 663 666
f 668 669 667
f 668 667 666
f 670 669 668
f 671 669 670
f 672 671 670
f 673 672 674
f 673 671 672
f 675 673 674
f 676 673 675
f 677 675 678
f 677 676 675
f 679 680 681
f 682 678 683
f 682 677 678
f 684 685 680
f 684 680 679
f 686 683 687
f 686 682 683
f 688 685 684
f 689 685 688
f 689 690 691
f 689 691 685
f 692 687 693
f 692 693 694
f 692 686 687
f 695 696 697
f 695 697 698
f 699 690 689
f 699 700 690
f 701 694 702
f 701 692 694
f 703 689 688
f 704 689 703
f 705 700 699
f 705 706 700
f 707 701 702
f 707 706 705
f 707 702 706
f 708 695 698
f 709 708 698
f 710 704 703
f 711 704 710
f 712 708 709
f 713 712 709
f 714 711 710
f 715 711 714
f 716 712 713
f 717 712 716
f 718 715 714
f 719 717 716
f 720 715 718
f 721 720 718
f 722 719 716
f 722 723 719
f 724 720 721
f 725 724 721
f 726 724 725
f 727 723 722
f 727 728 723
f 729 726 725
f 729 725 730
f 731 728 727
f 731 732 728
f 733 734 732
f 733 732 731
f 735 730 736
f 735 729 730
f 737 736 738
f 737 735 736
f 739 737 738
f 740 741 734
f 740 734 733
f 742 738 743
f 742 739 738
f 744 745 741
f 744 741 740
f 746 743 747
f 746 742 743
f 748 749 745
f 748 745 744
f 750 746 747
f 750 749 748
f 750 747 749
f 751 752 753
f 754 753 752
f 755 754 752
f 756 751 753
f 757 754 755
f 758 759 754
f 758 754 757
f 760 761 759
f 760 759 758
f 762 761 760
f 763 764 761
f 763 761 762
f 765 764 763
f 766 764 765
f 767 766 765
f 768 766 767
f 769 768 767
f 770 768 769
f 771 772 773
f 771 773 774
f 775 770 769
f 776 771 774
f 777 775 778
f 777 770 775
f 779 776 774
f 780 776 779
f 781 780 779
f 782 777 778
f 783 782 778
f 784 780 781
f 785 784 781
f 786 782 783
f 787 784 785
f 788 786 783
f 789 787 785
f 789 790 787
f 791 788 792
f 791 786 788
f 793 790 789
f 793 794 790
f 795 792 796
f 795 791 792
f 797 798 799
f 797 799 794
f 797 794 793
f 800 796 801
f 800 795 796
f 802 803 804
f 802 804 798
f 802 798 797
f 805 801 806
f 805 800 801
f 807 808 803
f 807 803 802
f 809 806 810
f 809 805 806
f 811 812 808
f 811 808 807
f 813 810 812
f 813 809 810
f 813 812 811
f 814 815 816
f 817 816 818
f 817 814 816
f 819 820 815
f 819 815 814
f 821 818 822
f 821 817 818
f 823 824 820
f 823 820 819
f 825 822 826
f 825 821 822
f 827 828 824
f 827 824 823
f 829 826 830
f 829 830 831
f 829 825 826
f 832 828 827
f 833 828 832
f 834 829 831
f 835 834 831
f 836 837 833
f 836 833 832
f 838 834 835
f 839 838 835
f 840 837 836
f 841 837 840
f 842 838 839
f 843 841 840
f 844 842 839
f 845 842 844
f 846 841 843
f 847 841 846
f 848 849 845
f 848 845 844
f 850 847 846
f 851 847 850
f 852 853 849
f 852 849 848
f 854 853 852
f 855 851 850
f 855 850 856
f 857 853 854
f 858 859 860
f 861 858 860
f 861 860 862
f 863 859 858
f 863 854 859
f 864 861 862
f 864 862 865
f 866 854 863
f 866 857 854
f 867 864 865
f 867 865 868
f 869 855 856
f 869 856 870
f 869 870 871
f 872 857 866
f 872 873 857
f 874 868 875
f 874 867 868
f 876 873 872
f 876 877 873
f 878 869 871
f 878 871 879
f 880 875 881
f 880 874 875
f 882 878 879
f 882 879 883
f 884 877 876
f 884 885 877
f 886 885 884
f 886 887 885
f 888 881 889
f 888 880 881
f 890 883 891
f 890 882 883
f 892 887 886
f 892 893 887
f 894 891 895
f 894 890 891
f 896 895 897
f 896 897 893
f 896 893 892
f 896 894 895
f 898 899 886
f 898 886 884
f 900 889 901
f 900 888 889
f 902 899 898
f 903 902 898
f 904 900 901
f 904 901 905
f 906 902 903
f 907 902 906
f 908 904 905
f 909 907 906
f 910 908 905
f 911 907 909
f 912 908 910
f 913 911 909
f 914 912 910
f 914 915 912
f 916 911 913
f 917 916 913
f 918 915 914
f 919 917 920
f 919 916 917
f 921 915 918
f 922 921 918
f 922 923 921
f 924 919 920
f 925 920 926
f 925 924 920
f 927 923 922
f 927 928 923
f 929 926 930
f 929 925 926
f 931 928 927
f 931 932 928
f 933 930 934
f 933 929 930
f 935 932 931
f 935 936 932
f 937 934 936
f 937 933 934
f 937 936 935
f 938 939 940
f 941 940 942
f 941 938 940
f 943 944 939
f 943 939 938
f 945 942 946
f 945 941 942
f 947 948 944
f 947 944 943
f 949 946 950
f 949 945 946
f 951 952 948
f 951 948 947
f 953 950 954
f 953 954 955
f 953 949 950
f 956 952 951
f 957 952 956
f 958 953 955
f 959 958 955
f 960 961 957
f 960 957 956
f 962 958 959
f 963 962 959
f 964 961 960
f 965 961 964
f 966 962 963
f 967 965 964
f 968 966 963
f 969 966 968
f 970 965 967
f 971 965 970
f 972 973 969
f 972 969 968
f 974 971 970
f 975 971 974
f 976 977 973
f 976 973 972
f 978 977 976
f 979 975 974
f 979 974 980
f 981 977 978
f 982 983 984
f 985 982 984
f 985 984 986
f 987 983 982
f 987 978 983
f 988 985 986
f 988 986 989
f 990 978 987
f 990 981 978
f 991 988 989
f 991 989 992
f 993 979 980
f 993 980 994
f 993 994 995
f 996 981 990
f 996 997 981
f 998 992 999
f 998 991 992
f 1000 997 996
f 1000 1001 997
f 1002 993 995
f 1002 995 1003
f 1004 999 1005
f 1004 998 999
f 1006 1002 1003
f 1006 1003 1007
f 1008 1001 1000
f 1008 1009 1001
f 1010 1009 1008
f 1010 1011 1009
f 1012 1005 1013
f 1012 1004 1005
f 1014 1007 1015
f 1014 1006 1007
f 1016 1011 1010
f 1016 1017 1011
f 1018 1015 1019
f 1018 1014 1015
f 1020 1019 1021
f 1020 1021 1017
f 1020 1017 1016
f 1020 1018 1019
f 1022 1023 1010
f 1022 1010 1008
f 1024 1013 1025
f 1024 1012 1013
f 1026 1023 1022
f 1027 1026 1022
f 1028 1024 1025
f 1028 1025 1029
f 1030 1026 1027
f 1031 1026 1030
f 1032 1028 1029
f 1033 1031 1030
f 1034 1032 1029
f 1035 1031 1033
f 1036 1032 1034
f 1037 1035 1033
f 1038 1036 1034
f 1038 1039 1036
f 1040 1035 1037
f 1041 1040 1037
f 1042 1039 1038
f 1043 1041 1044
f 1043 1040 1041
f 1045 1039 1042
f 1046 1045 1042
f 1046 1047 1045
f 1048 1043 1044
f 1049 1044 1050
f 1049 1048 1044
f 1051 1047 1046
f 1051 1052 1047
f 1053 1050 1054
f 1053 1049 1050
f 1055 1052 1051
f 1055 1056 1052
f 1057 1054 1058
f 1057 1053 1054
f 1059 1056 1055
f 1059 1060 1056
f 1061 1058 1060
f 1061 1057 1058
f 1061 1060 1059
f 1062 1063 1064
f 1065 1062 1064
f 1065 1064 1066
f 1067 1063 1062
f 1067 1068 1063
f 1069 1065 1066
f 1069 1066 1070
f 1071 1068 1067
f 1071 1072 1068
f 1073 1069 1070
f 1073 1070 1074
f 1075 1072 1071
f 1075 1076 1072
f 1077 1073 1074
f 1077 1074 1078
f 1079 1076 1075
f 1079 1080 1076
f 1081 1077 1078
f 1081 1078 1082
f 1083 1084 1080
f 1083 1080 1079
f 1085 1082 1086
f 1085 1081 1082
f 1085 1086 1087
f 1088 1085 1087
f 1089 1090 1084
f 1089 1084 1083
f 1091 1088 1087
f 1092 1088 1091
f 1093 1090 1089
f 1094 1092 1091
f 1095 1090 1093
f 1096 1092 1094
f 1097 1095 1093
f 1098 1096 1094
f 1099 1095 1097
f 1100 1099 1097
f 1101 1096 1098
f 1102 1100 1103
f 1102 1099 1100
f 1104 1101 1098
f 1105 1101 1104
f 1106 1103 1107
f 1106 1107 1108
f 1106 1102 1103
f 1109 1105 1104
f 1110 1108 1111
f 1110 1106 1108
f 1112 1113 1105
f 1112 1105 1109
f 1114 1115 1116
f 1114 1116 1117
f 1118 1119 1113
f 1118 1113 1112
f 1120 1119 1118
f 1121 1114 1117
f 1122 1121 1117
f 1123 1121 1122
f 1124 1125 1120
f 1124 1120 1118
f 1126 1123 1122
f 1127 1123 1126
f 1128 1125 1124
f 1129 1125 1128
f 1130 1127 1126
f 1130 1131 1127
f 1132 1131 1130
f 1133 1129 1128
f 1134 1129 1133
f 1135 1132 1130
f 1136 1132 1135
f 1137 1134 1133
f 1138 1137 1133
f 1139 1137 1138
f 1140 1136 1135
f 1140 1141 1136
f 1142 1139 1138
f 1142 1138 1143
f 1144 1141 1140
f 1144 1145 1141
f 1146 1147 1145
f 1146 1145 1144
f 1148 1143 1149
f 1148 1142 1143
f 1150 1149 1151
f 1150 1148 1149
f 1152 1153 1147
f 1152 1147 1146
f 1154 1151 1155
f 1154 1150 1151
f 1156 1157 1153
f 1156 1153 1152
f 1158 1155 1159
f 1158 1154 1155
f 1160 1161 1157
f 1160 1157 1156
f 1162 1161 1160
f 1162 1159 1161
f 1162 1158 1159
f 12 10 624
f 624 10 621
f 619 6 618
f 11 6 619
f 9 1163 10
f 621 1163 620
f 10 1163 621
f 620 1163 9
f 11 1164 9
f 620 1164 619
f 9 1164 620
f 619 1164 11
f 419 418 632
f 632 418 629
f 626 12 624
f 416 12 626
f 417 1165 418
f 629 1165 628
f 418 1165 629
f 628 1165 417
f 416 1166 417
f 628 1166 626
f 417 1166 628
f 626 1166 416
f 631 419 632
f 420 419 631
f 414 1167 413
f 413 1167 625
f 625 1167 627
f 415 1168 414
f 420 1168 415
f 627 1168 630
f 630 1168 631
f 1167 1168 627
f 631 1168 420
f 414 1168 1167
f 117 413 636
f 636 413 625
f 19 117 635
f 635 117 636
f 15 19 622
f 622 19 635
f 16 15 623
f 623 15 622
f 14 16 634
f 634 16 623
f 118 14 633
f 633 14 634
f 3 118 614
f 614 118 633
f 1 3 613
f 613 3 614
f 6 5 618
f 618 5 617
f 615 1 613
f 8 1 615
f 7 1169 5
f 617 1169 616
f 5 1169 617
f 616 1169 7
f 8 1170 7
f 616 1170 615
f 7 1170 616
f 615 1170 8
f 70 80 646
f 646 80 647
f 71 70 640
f 640 70 646
f 72 71 642
f 642 71 640
f 73 72 645
f 645 72 642
f 119 73 643
f 643 73 645
f 4 119 644
f 644 119 643
f 13 4 648
f 648 4 644
f 421 13 641
f 641 13 648
f 17 421 639
f 639 421 641
f 18 17 638
f 638 17 639
f 52 18 637
f 637 18 638
f 80 52 647
f 647 52 637
f 724 90 720
f 114 90 724
f 113 1171 135
f 112 1171 113
f 135 1171 735
f 735 1171 729
f 729 1171 726
f 726 1171 112
f 114 1172 112
f 726 1172 724
f 112 1172 726
f 724 1172 114
f 161 148 750
f 750 148 746
f 742 136 739
f 137 136 742
f 739 138 737
f 136 138 739
f 737 135 735
f 138 135 737
f 137 1173 148
f 746 1173 742
f 148 1173 746
f 742 1173 137
f 748 161 750
f 169 161 748
f 181 1174 120
f 170 1174 181
f 120 1174 733
f 733 1174 740
f 740 1174 744
f 744 1174 170
f 169 1175 170
f 744 1175 748
f 170 1175 744
f 748 1175 169
f 86 93 716
f 716 93 722
f 731 120 733
f 106 120 731
f 100 1176 93
f 722 1176 727
f 93 1176 722
f 727 1176 100
f 106 1177 100
f 727 1177 731
f 100 1177 727
f 731 1177 106
f 713 86 716
f 83 86 713
f 79 1178 51
f 78 1178 79
f 51 1178 697
f 697 1178 698
f 698 1178 709
f 709 1178 78
f 83 1179 78
f 709 1179 713
f 78 1179 709
f 713 1179 83
f 55 51 696
f 696 51 697
f 89 88 717
f 717 88 712
f 695 55 696
f 74 55 695
f 92 1180 88
f 712 1180 708
f 88 1180 712
f 708 1180 92
f 74 1181 92
f 708 1181 695
f 92 1181 708
f 695 1181 74
f 719 89 717
f 87 89 719
f 98 1182 102
f 102 1182 732
f 732 1182 728
f 91 1183 98
f 87 1183 91
f 728 1183 723
f 723 1183 719
f 1182 1183 728
f 719 1183 87
f 98 1183 1182
f 127 125 749
f 749 125 745
f 122 107 734
f 107 732 734
f 107 102 732
f 123 1184 125
f 745 1184 741
f 125 1184 745
f 741 1184 123
f 122 1185 123
f 741 1185 734
f 123 1185 741
f 734 1185 122
f 747 127 749
f 126 127 747
f 121 1186 104
f 124 1186 121
f 104 1186 736
f 736 1186 738
f 738 1186 743
f 743 1186 124
f 126 1187 124
f 743 1187 747
f 124 1187 743
f 747 1187 126
f 94 1188 97
f 97 1188 721
f 721 1188 725
f 101 1189 94
f 104 1189 101
f 725 1189 730
f 730 1189 736
f 736 1189 104
f 94 1189 1188
f 1188 1189 725
f 96 1190 105
f 105 1190 710
f 710 1190 714
f 95 1191 96
f 97 1191 95
f 714 1191 718
f 718 1191 721
f 721 1191 97
f 96 1191 1190
f 1190 1191 714
f 56 99 684
f 684 99 688
f 688 103 703
f 99 103 688
f 703 105 710
f 103 105 703
f 47 56 679
f 679 56 684
f 43 47 681
f 681 47 679
f 46 43 680
f 680 43 681
f 54 1192 57
f 57 1192 690
f 690 1192 691
f 53 1193 54
f 46 1193 53
f 691 1193 685
f 685 1193 680
f 680 1193 46
f 54 1193 1192
f 1192 1193 691
f 68 1194 69
f 69 1194 702
f 702 1194 706
f 66 1195 68
f 57 1195 66
f 706 1195 700
f 700 1195 690
f 690 1195 57
f 68 1195 1194
f 1194 1195 706
f 58 1196 50
f 50 1196 687
f 687 1196 693
f 67 1197 58
f 69 1197 67
f 693 1197 694
f 694 1197 702
f 702 1197 69
f 58 1197 1196
f 1196 1197 693
f 38 37 674
f 674 37 675
f 45 48 683
f 48 687 683
f 48 50 687
f 40 1198 37
f 675 1198 678
f 37 1198 675
f 678 1198 40
f 45 1199 40
f 678 1199 683
f 40 1199 678
f 683 1199 45
f 672 38 674
f 39 38 672
f 42 1200 49
f 41 1200 42
f 49 1200 666
f 666 1200 668
f 668 1200 670
f 670 1200 41
f 39 1201 41
f 670 1201 672
f 41 1201 670
f 672 1201 39
f 30 27 649
f 649 27 656
f 662 49 666
f 34 49 662
f 32 1202 27
f 656 1202 660
f 27 1202 656
f 660 1202 32
f 34 1203 32
f 660 1203 662
f 32 1203 660
f 662 1203 34
f 652 30 649
f 28 30 652
f 31 1204 35
f 29 1204 31
f 35 1204 664
f 664 1204 658
f 658 1204 654
f 654 1204 29
f 28 1205 29
f 654 1205 652
f 29 1205 654
f 652 1205 28
f 44 35 665
f 665 35 664
f 21 20 651
f 651 20 653
f 659 44 665
f 25 44 659
f 23 1206 20
f 653 1206 655
f 20 1206 653
f 655 1206 23
f 25 1207 23
f 655 1207 659
f 23 1207 655
f 659 1207 25
f 650 21 651
f 22 21 650
f 26 1208 33
f 24 1208 26
f 33 1208 663
f 663 1208 661
f 661 1208 657
f 22 1209 24
f 657 1209 650
f 24 1209 1208
f 1208 1209 657
f 650 1209 22
f 61 60 673
f 673 60 671
f 667 33 663
f 36 33 667
f 62 1210 60
f 671 1210 669
f 60 1210 671
f 669 1210 62
f 36 1211 62
f 669 1211 667
f 62 1211 669
f 667 1211 36
f 676 61 673
f 65 61 676
f 64 1212 422
f 63 1212 64
f 422 1212 686
f 686 1212 682
f 682 1212 677
f 677 1212 63
f 65 1213 63
f 677 1213 676
f 63 1213 677
f 676 1213 65
f 110 1214 85
f 85 1214 707
f 707 1214 701
f 111 1215 110
f 422 1215 111
f 701 1215 692
f 692 1215 686
f 686 1215 422
f 110 1215 1214
f 1214 1215 701
f 76 1216 77
f 77 1216 689
f 689 1216 699
f 82 1217 76
f 85 1217 82
f 699 1217 705
f 705 1217 707
f 707 1217 85
f 76 1217 1216
f 1216 1217 699
f 90 84 720
f 720 84 715
f 704 77 689
f 75 77 704
f 81 1218 84
f 715 1218 711
f 84 1218 715
f 711 1218 81
f 75 1219 81
f 711 1219 704
f 81 1219 711
f 704 1219 75
f 782 167 777
f 179 167 782
f 206 1220 209
f 186 1220 206
f 209 1220 795
f 795 1220 791
f 791 1220 786
f 786 1220 186
f 179 1221 186
f 786 1221 782
f 186 1221 786
f 782 1221 179
f 231 215 813
f 813 215 809
f 800 209 795
f 211 209 800
f 213 1222 215
f 809 1222 805
f 215 1222 809
f 805 1222 213
f 211 1223 213
f 805 1223 800
f 213 1223 805
f 800 1223 211
f 811 231 813
f 240 231 811
f 253 1224 192
f 248 1224 253
f 192 1224 797
f 797 1224 802
f 802 1224 807
f 807 1224 248
f 240 1225 248
f 807 1225 811
f 248 1225 807
f 811 1225 240
f 180 1226 168
f 168 1226 785
f 785 1226 789
f 188 1227 180
f 192 1227 188
f 789 1227 793
f 793 1227 797
f 797 1227 192
f 180 1227 1226
f 1226 1227 789
f 781 168 785
f 163 168 781
f 147 1228 134
f 134 1228 773
f 773 1228 774
f 160 1229 147
f 163 1229 160
f 774 1229 779
f 779 1229 781
f 1228 1229 774
f 781 1229 163
f 147 1229 1228
f 140 134 772
f 772 134 773
f 173 172 784
f 784 172 780
f 771 140 772
f 184 140 771
f 177 1230 172
f 780 1230 776
f 172 1230 780
f 776 1230 177
f 184 1231 177
f 776 1231 771
f 177 1231 776
f 771 1231 184
f 787 173 784
f 171 173 787
f 183 1232 189
f 189 1232 799
f 799 1232 794
f 176 1233 183
f 171 1233 176
f 794 1233 790
f 790 1233 787
f 1232 1233 794
f 787 1233 171
f 183 1233 1232
f 197 198 812
f 812 198 808
f 803 194 804
f 196 194 803
f 804 191 798
f 194 191 804
f 798 189 799
f 191 189 798
f 196 1234 198
f 808 1234 803
f 198 1234 808
f 803 1234 196
f 810 197 812
f 195 197 810
f 190 1235 187
f 187 1235 796
f 796 1235 801
f 193 1236 190
f 195 1236 193
f 801 1236 806
f 806 1236 810
f 1235 1236 801
f 810 1236 195
f 190 1236 1235
f 156 165 778
f 778 165 783
f 792 187 796
f 182 187 792
f 174 1237 165
f 783 1237 788
f 165 1237 783
f 788 1237 174
f 182 1238 174
f 788 1238 792
f 174 1238 788
f 792 1238 182
f 775 156 778
f 159 156 775
f 158 1239 175
f 157 1239 158
f 175 1239 765
f 765 1239 767
f 767 1239 769
f 769 1239 157
f 159 1240 157
f 769 1240 775
f 157 1240 769
f 775 1240 159
f 142 141 760
f 760 141 762
f 762 143 763
f 141 143 762
f 763 175 765
f 143 175 763
f 144 1241 145
f 145 1241 757
f 757 1241 758
f 758 1241 144
f 142 1242 144
f 758 1242 760
f 760 1242 142
f 144 1242 758
f 109 757 755
f 109 145 757
f 59 109 752
f 752 109 755
f 108 59 751
f 751 59 752
f 132 108 756
f 756 108 751
f 129 132 753
f 753 132 756
f 423 129 754
f 754 129 753
f 128 1243 131
f 131 1243 764
f 764 1243 761
f 130 1244 128
f 423 1244 130
f 761 1244 759
f 759 1244 754
f 754 1244 423
f 128 1244 1243
f 1243 1244 761
f 167 146 777
f 777 146 770
f 766 131 764
f 133 131 766
f 139 1245 146
f 770 1245 768
f 146 1245 770
f 768 1245 139
f 133 1246 139
f 768 1246 766
f 139 1246 768
f 766 1246 133
f 265 1247 268
f 268 1247 924
f 924 1247 919
f 264 1248 265
f 249 1248 264
f 919 1248 916
f 916 1248 911
f 911 1248 249
f 265 1248 1247
f 1247 1248 919
f 293 281 937
f 937 281 933
f 925 268 924
f 270 268 925
f 272 1249 281
f 933 1249 929
f 281 1249 933
f 929 1249 272
f 270 1250 272
f 929 1250 925
f 272 1250 929
f 925 1250 270
f 935 293 937
f 305 293 935
f 323 1251 256
f 317 1251 323
f 256 1251 922
f 922 1251 927
f 927 1251 931
f 931 1251 317
f 305 1252 317
f 931 1252 935
f 317 1252 931
f 935 1252 305
f 239 247 905
f 905 247 910
f 918 256 922
f 255 256 918
f 252 1253 247
f 910 1253 914
f 247 1253 910
f 914 1253 252
f 255 1254 252
f 914 1254 918
f 252 1254 914
f 918 1254 255
f 901 239 905
f 230 239 901
f 212 1255 210
f 214 1255 212
f 210 1255 875
f 875 1255 881
f 881 1255 889
f 889 1255 214
f 230 1256 214
f 889 1256 901
f 214 1256 889
f 901 1256 230
f 205 1257 202
f 202 1257 862
f 862 1257 865
f 208 1258 205
f 210 1258 208
f 865 1258 868
f 868 1258 875
f 875 1258 210
f 205 1258 1257
f 1257 1258 865
f 203 1259 207
f 207 1259 854
f 854 1259 859
f 199 1260 203
f 202 1260 199
f 859 1260 860
f 860 1260 862
f 862 1260 202
f 203 1260 1259
f 1259 1260 859
f 852 207 854
f 204 207 852
f 200 1261 185
f 201 1261 200
f 185 1261 839
f 839 1261 844
f 844 1261 848
f 848 1261 201
f 204 1262 201
f 848 1262 852
f 201 1262 848
f 852 1262 204
f 166 1263 162
f 162 1263 830
f 830 1263 831
f 178 1264 166
f 185 1264 178
f 831 1264 835
f 835 1264 839
f 839 1264 185
f 166 1264 1263
f 1263 1264 831
f 150 149 816
f 816 149 818
f 149 822 818
f 149 153 822
f 154 830 826
f 154 162 830
f 154 1265 153
f 822 1265 826
f 153 1265 822
f 826 1265 154
f 815 150 816
f 151 150 815
f 155 1266 164
f 152 1266 155
f 164 1266 828
f 828 1266 824
f 824 1266 820
f 820 1266 152
f 151 1267 152
f 820 1267 815
f 152 1267 820
f 815 1267 151
f 217 222 847
f 847 222 841
f 833 164 828
f 235 164 833
f 224 1268 222
f 841 1268 837
f 222 1268 841
f 837 1268 224
f 235 1269 224
f 837 1269 833
f 224 1269 837
f 833 1269 235
f 851 217 847
f 218 217 851
f 229 1270 233
f 220 1270 229
f 233 1270 878
f 878 1270 869
f 869 1270 855
f 855 1270 220
f 218 1271 220
f 855 1271 851
f 220 1271 855
f 851 1271 218
f 251 1272 242
f 242 1272 894
f 894 1272 890
f 890 1272 882
f 245 1273 251
f 233 1273 245
f 882 1273 878
f 878 1273 233
f 251 1273 1272
f 1272 1273 882
f 226 1274 227
f 227 1274 886
f 886 1274 892
f 237 1275 226
f 242 1275 237
f 892 1275 896
f 896 1275 894
f 894 1275 242
f 226 1275 1274
f 1274 1275 892
f 899 227 886
f 225 227 899
f 241 1276 249
f 236 1276 241
f 249 1276 911
f 911 1276 907
f 907 1276 902
f 902 1276 236
f 225 1277 236
f 902 1277 899
f 236 1277 902
f 899 1277 225
f 470 472 879
f 879 472 883
f 472 891 883
f 472 474 891
f 474 895 891
f 474 476 895
f 476 897 895
f 897 477 893
f 476 477 897
f 477 475 893
f 887 473 885
f 475 473 887
f 885 471 877
f 473 471 885
f 877 469 873
f 471 469 877
f 893 1278 887
f 887 1278 475
f 475 1278 893
f 458 457 846
f 846 457 850
f 856 466 870
f 462 466 856
f 870 468 871
f 466 468 870
f 871 470 879
f 468 470 871
f 462 1279 457
f 850 1279 856
f 457 1279 850
f 856 1279 462
f 467 463 840
f 459 846 843
f 459 458 846
f 467 1280 452
f 452 1280 832
f 832 1280 836
f 836 1280 840
f 840 1280 467
f 459 1281 463
f 840 1281 843
f 463 1281 840
f 843 1281 459
f 446 445 814
f 814 445 819
f 827 452 832
f 450 452 827
f 449 1282 445
f 819 1282 823
f 445 1282 819
f 823 1282 449
f 450 1283 449
f 823 1283 827
f 449 1283 823
f 827 1283 450
f 817 446 814
f 447 446 817
f 448 1284 451
f 444 1284 448
f 451 1284 829
f 829 1284 825
f 825 1284 821
f 821 1284 444
f 447 1285 444
f 821 1285 817
f 444 1285 821
f 817 1285 447
f 456 455 845
f 845 455 842
f 465 453 834
f 453 829 834
f 453 451 829
f 461 1286 455
f 842 1286 838
f 455 1286 842
f 838 1286 461
f 465 1287 461
f 838 1287 834
f 461 1287 838
f 834 1287 465
f 849 456 845
f 454 456 849
f 464 1288 469
f 460 1288 464
f 469 1288 873
f 873 1288 857
f 857 1288 853
f 853 1288 460
f 454 1289 460
f 853 1289 849
f 460 1289 853
f 849 1289 454
f 934 546 936
f 545 546 934
f 540 1290 537
f 543 1290 540
f 537 1290 920
f 920 1290 926
f 926 1290 930
f 930 1290 543
f 545 1291 543
f 930 1291 934
f 543 1291 930
f 934 1291 545
f 529 528 906
f 906 528 909
f 533 536 917
f 536 920 917
f 536 537 920
f 527 1292 528
f 909 1292 913
f 528 1292 909
f 913 1292 527
f 533 1293 527
f 913 1293 917
f 527 1293 913
f 917 1293 533
f 903 529 906
f 530 529 903
f 535 1294 520
f 534 1294 535
f 520 1294 876
f 876 1294 884
f 884 1294 898
f 898 1294 534
f 530 1295 534
f 898 1295 903
f 534 1295 898
f 903 1295 530
f 513 516 858
f 858 516 863
f 872 520 876
f 519 520 872
f 517 1296 516
f 863 1296 866
f 516 1296 863
f 866 1296 517
f 519 1297 517
f 866 1297 872
f 517 1297 866
f 872 1297 519
f 861 513 858
f 514 513 861
f 515 1298 518
f 512 1298 515
f 518 1298 874
f 874 1298 867
f 867 1298 864
f 864 1298 512
f 514 1299 512
f 864 1299 861
f 512 1299 864
f 861 1299 514
f 524 523 904
f 904 523 900
f 532 521 880
f 521 874 880
f 521 518 874
f 526 1300 523
f 900 1300 888
f 523 1300 900
f 888 1300 526
f 532 1301 526
f 888 1301 880
f 526 1301 888
f 880 1301 532
f 531 525 912
f 525 908 912
f 525 522 908
f 522 904 908
f 522 524 904
f 531 1302 538
f 538 1302 921
f 921 1302 915
f 915 1302 912
f 912 1302 531
f 546 544 936
f 936 544 932
f 541 539 923
f 539 921 923
f 539 538 921
f 542 1303 544
f 932 1303 928
f 544 1303 932
f 928 1303 542
f 541 1304 542
f 928 1304 923
f 542 1304 928
f 923 1304 541
f 335 1305 353
f 353 1305 1048
f 1048 1305 1043
f 330 1306 335
f 318 1306 330
f 1043 1306 1040
f 1040 1306 1035
f 1035 1306 318
f 335 1306 1305
f 1305 1306 1043
f 369 362 1061
f 1061 362 1057
f 1049 353 1048
f 354 353 1049
f 361 1307 362
f 1057 1307 1053
f 362 1307 1057
f 1053 1307 361
f 354 1308 361
f 1053 1308 1049
f 361 1308 1053
f 1049 1308 354
f 1059 369 1061
f 372 369 1059
f 389 1309 341
f 379 1309 389
f 341 1309 1046
f 1046 1309 1051
f 1051 1309 1055
f 1055 1309 379
f 372 1310 379
f 1055 1310 1059
f 379 1310 1055
f 1059 1310 372
f 304 316 1029
f 1029 316 1034
f 1042 341 1046
f 331 341 1042
f 322 1311 316
f 1034 1311 1038
f 316 1311 1034
f 1038 1311 322
f 331 1312 322
f 1038 1312 1042
f 322 1312 1038
f 1042 1312 331
f 1025 304 1029
f 292 304 1025
f 271 1313 269
f 280 1313 271
f 269 1313 999
f 999 1313 1005
f 1005 1313 1013
f 1013 1313 280
f 292 1314 280
f 1013 1314 1025
f 280 1314 1013
f 1025 1314 292
f 263 1315 260
f 260 1315 986
f 986 1315 989
f 267 1316 263
f 269 1316 267
f 989 1316 992
f 992 1316 999
f 999 1316 269
f 263 1316 1315
f 1315 1316 989
f 261 1317 266
f 266 1317 978
f 978 1317 983
f 257 1318 261
f 260 1318 257
f 983 1318 984
f 984 1318 986
f 986 1318 260
f 261 1318 1317
f 1317 1318 983
f 976 266 978
f 262 266 976
f 258 1319 254
f 259 1319 258
f 254 1319 963
f 963 1319 968
f 968 1319 972
f 972 1319 259
f 262 1320 259
f 972 1320 976
f 259 1320 972
f 976 1320 262
f 244 1321 238
f 238 1321 954
f 954 1321 955
f 250 1322 244
f 254 1322 250
f 955 1322 959
f 959 1322 963
f 963 1322 254
f 244 1322 1321
f 1321 1322 955
f 216 219 940
f 940 219 942
f 950 238 954
f 232 238 950
f 228 1323 219
f 942 1323 946
f 219 1323 942
f 946 1323 228
f 232 1324 228
f 946 1324 950
f 228 1324 946
f 950 1324 232
f 939 216 940
f 221 216 939
f 234 1325 243
f 223 1325 234
f 243 1325 952
f 952 1325 948
f 948 1325 944
f 944 1325 223
f 221 1326 223
f 944 1326 939
f 223 1326 944
f 939 1326 221
f 274 277 971
f 971 277 965
f 957 243 952
f 246 243 957
f 283 1327 277
f 965 1327 961
f 277 1327 965
f 961 1327 283
f 246 1328 283
f 961 1328 957
f 283 1328 961
f 957 1328 246
f 975 274 971
f 275 274 975
f 285 1329 291
f 279 1329 285
f 291 1329 1002
f 1002 1329 993
f 993 1329 979
f 979 1329 279
f 275 1330 279
f 979 1330 975
f 279 1330 979
f 975 1330 275
f 315 1331 308
f 308 1331 1018
f 1018 1331 1014
f 1014 1331 1006
f 310 1332 315
f 291 1332 310
f 1006 1332 1002
f 1002 1332 291
f 315 1332 1331
f 1331 1332 1006
f 287 1333 288
f 288 1333 1010
f 1010 1333 1016
f 295 1334 287
f 308 1334 295
f 1016 1334 1020
f 1020 1334 1018
f 1018 1334 308
f 287 1334 1333
f 1333 1334 1016
f 1023 288 1010
f 286 288 1023
f 307 1335 318
f 294 1335 307
f 318 1335 1035
f 1035 1335 1031
f 1031 1335 1026
f 1026 1335 294
f 286 1336 294
f 1026 1336 1023
f 294 1336 1026
f 1023 1336 286
f 504 506 1003
f 1003 506 1007
f 506 1015 1007
f 506 508 1015
f 508 1019 1015
f 508 510 1019
f 510 1021 1019
f 1021 511 1017
f 510 511 1021
f 511 509 1017
f 1011 507 1009
f 509 507 1011
f 1009 505 1001
f 507 505 1009
f 1001 503 997
f 505 503 1001
f 1017 1337 1011
f 1011 1337 509
f 509 1337 1017
f 492 491 970
f 970 491 974
f 980 500 994
f 496 500 980
f 994 502 995
f 500 502 994
f 995 504 1003
f 502 504 995
f 496 1338 491
f 974 1338 980
f 491 1338 974
f 980 1338 496
f 501 497 964
f 493 970 967
f 493 492 970
f 501 1339 486
f 486 1339 956
f 956 1339 960
f 960 1339 964
f 964 1339 501
f 493 1340 497
f 964 1340 967
f 497 1340 964
f 967 1340 493
f 480 479 938
f 938 479 943
f 951 486 956
f 484 486 951
f 483 1341 479
f 943 1341 947
f 479 1341 943
f 947 1341 483
f 484 1342 483
f 947 1342 951
f 483 1342 947
f 951 1342 484
f 941 480 938
f 481 480 941
f 482 1343 485
f 478 1343 482
f 485 1343 953
f 953 1343 949
f 949 1343 945
f 945 1343 478
f 481 1344 478
f 945 1344 941
f 478 1344 945
f 941 1344 481
f 490 489 969
f 969 489 966
f 499 487 958
f 487 953 958
f 487 485 953
f 495 1345 489
f 966 1345 962
f 489 1345 966
f 962 1345 495
f 499 1346 495
f 962 1346 958
f 495 1346 962
f 958 1346 499
f 973 490 969
f 488 490 973
f 498 1347 503
f 494 1347 498
f 503 1347 997
f 997 1347 981
f 981 1347 977
f 977 1347 494
f 488 1348 494
f 977 1348 973
f 494 1348 977
f 973 1348 488
f 1058 581 1060
f 580 581 1058
f 575 1349 572
f 578 1349 575
f 572 1349 1044
f 1044 1349 1050
f 1050 1349 1054
f 1054 1349 578
f 580 1350 578
f 1054 1350 1058
f 578 1350 1054
f 1058 1350 580
f 564 563 1030
f 1030 563 1033
f 568 571 1041
f 571 1044 1041
f 571 572 1044
f 562 1351 563
f 1033 1351 1037
f 563 1351 1033
f 1037 1351 562
f 568 1352 562
f 1037 1352 1041
f 562 1352 1037
f 1041 1352 568
f 1027 564 1030
f 565 564 1027
f 570 1353 555
f 569 1353 570
f 555 1353 1000
f 1000 1353 1008
f 1008 1353 1022
f 1022 1353 569
f 565 1354 569
f 1022 1354 1027
f 569 1354 1022
f 1027 1354 565
f 548 551 982
f 982 551 987
f 996 555 1000
f 554 555 996
f 552 1355 551
f 987 1355 990
f 551 1355 987
f 990 1355 552
f 554 1356 552
f 990 1356 996
f 552 1356 990
f 996 1356 554
f 985 548 982
f 549 548 985
f 550 1357 553
f 547 1357 550
f 553 1357 998
f 998 1357 991
f 991 1357 988
f 988 1357 547
f 549 1358 547
f 988 1358 985
f 547 1358 988
f 985 1358 549
f 559 558 1028
f 1028 558 1024
f 567 556 1004
f 556 998 1004
f 556 553 998
f 561 1359 558
f 1024 1359 1012
f 558 1359 1024
f 1012 1359 561
f 567 1360 561
f 1012 1360 1004
f 561 1360 1012
f 1004 1360 567
f 566 560 1036
f 560 1032 1036
f 560 557 1032
f 557 1028 1032
f 557 559 1028
f 566 1361 573
f 573 1361 1045
f 1045 1361 1039
f 1039 1361 1036
f 1036 1361 566
f 581 579 1060
f 1060 579 1056
f 576 574 1047
f 574 1045 1047
f 574 573 1045
f 577 1362 579
f 1056 1362 1052
f 579 1362 1056
f 1052 1362 577
f 576 1363 577
f 1052 1363 1047
f 577 1363 1052
f 1047 1363 576
f 1137 373 1134
f 383 373 1137
f 393 1364 399
f 399 1364 1148
f 1148 1364 1142
f 386 1365 393
f 383 1365 386
f 1142 1365 1139
f 1139 1365 1137
f 1364 1365 1142
f 1137 1365 383
f 393 1365 1364
f 406 405 1162
f 1162 405 1158
f 1150 399 1148
f 408 399 1150
f 407 1366 405
f 1158 1366 1154
f 405 1366 1158
f 1154 1366 407
f 408 1367 407
f 1154 1367 1150
f 407 1367 1154
f 1150 1367 408
f 1160 406 1162
f 412 406 1160
f 409 1368 410
f 411 1368 409
f 410 1368 1146
f 1146 1368 1152
f 1152 1368 1156
f 1156 1368 411
f 412 1369 411
f 1156 1369 1160
f 411 1369 1156
f 1160 1369 412
f 371 378 1130
f 1130 378 1135
f 1144 410 1146
f 395 410 1144
f 388 1370 378
f 1135 1370 1140
f 378 1370 1135
f 1140 1370 388
f 395 1371 388
f 1140 1371 1144
f 388 1371 1140
f 1144 1371 395
f 1126 371 1130
f 368 371 1126
f 360 1372 352
f 366 1372 360
f 352 1372 1116
f 1116 1372 1117
f 1117 1372 1122
f 1122 1372 366
f 368 1373 366
f 1122 1373 1126
f 366 1373 1122
f 1126 1373 368
f 355 352 1115
f 1115 352 1116
f 392 384 1145
f 1145 384 1141
f 384 1136 1141
f 384 374 1136
f 374 1132 1136
f 1132 376 1131
f 374 376 1132
f 1131 375 1127
f 376 375 1131
f 377 1121 1123
f 377 385 1121
f 385 1114 1121
f 385 364 1114
f 364 1115 1114
f 364 355 1115
f 377 1374 375
f 1127 1374 1123
f 375 1374 1127
f 1123 1374 377
f 402 400 1161
f 1161 400 1157
f 1147 392 1145
f 396 392 1147
f 398 1375 400
f 1157 1375 1153
f 400 1375 1157
f 1153 1375 398
f 396 1376 398
f 1153 1376 1147
f 398 1376 1153
f 1147 1376 396
f 1159 402 1161
f 403 402 1159
f 397 1377 394
f 401 1377 397
f 394 1377 1149
f 1149 1377 1151
f 1151 1377 1155
f 1155 1377 401
f 403 1378 401
f 1155 1378 1159
f 401 1378 1155
f 1159 1378 403
f 381 380 1133
f 1133 380 1138
f 1138 387 1143
f 390 1149 1143
f 390 394 1149
f 387 1379 380
f 380 1379 1138
f 1138 1379 387
f 390 1380 387
f 387 1380 1143
f 1143 1380 390
f 391 1381 363
f 363 1381 1118
f 1118 1381 1124
f 382 1382 391
f 381 1382 382
f 1124 1382 1128
f 1128 1382 1133
f 1133 1382 381
f 391 1382 1381
f 1381 1382 1124
f 356 363 1112
f 1112 363 1118
f 357 1383 1109
f 356 1384 357
f 1109 1384 1112
f 1112 1384 356
f 357 1384 1383
f 1383 1384 1109
f 358 1385 1104
f 357 1386 358
f 1104 1386 1109
f 1109 1386 357
f 358 1386 1385
f 1385 1386 1104
f 334 1387 1098
f 358 1388 334
f 1098 1388 1104
f 1104 1388 358
f 334 1388 1387
f 1387 1388 1098
f 329 1389 324
f 324 1389 1091
f 1091 1389 1094
f 1094 1389 329
f 334 1390 329
f 1094 1390 1098
f 1098 1390 334
f 329 1390 1094
f 320 1391 314
f 314 1391 1086
f 1086 1391 1087
f 1087 1391 320
f 324 1392 320
f 1087 1392 1091
f 1091 1392 324
f 320 1392 1087
f 309 1393 301
f 301 1393 1078
f 1078 1393 1082
f 1082 1393 309
f 314 1394 309
f 1082 1394 1086
f 1086 1394 314
f 309 1394 1082
f 273 278 1064
f 1064 278 1066
f 1074 301 1078
f 290 301 1074
f 284 1395 278
f 1066 1395 1070
f 278 1395 1066
f 1070 1395 284
f 290 1396 284
f 1070 1396 1074
f 284 1396 1070
f 1074 1396 290
f 1063 273 1064
f 276 273 1063
f 289 1397 302
f 282 1397 289
f 302 1397 1076
f 1076 1397 1072
f 1072 1397 1068
f 1068 1397 282
f 276 1398 282
f 1068 1398 1063
f 282 1398 1068
f 1063 1398 276
f 332 321 1095
f 1095 321 1090
f 1080 302 1076
f 311 302 1080
f 319 1399 321
f 1090 1399 1084
f 321 1399 1090
f 1084 1399 319
f 311 1400 319
f 1084 1400 1080
f 319 1400 1084
f 1080 1400 311
f 1099 332 1095
f 336 332 1099
f 348 1401 351
f 351 1401 1110
f 1110 1401 1106
f 342 1402 348
f 336 1402 342
f 1106 1402 1102
f 1102 1402 1099
f 1401 1402 1106
f 1099 1402 336
f 348 1402 1401
f 349 351 1111
f 1111 351 1110
f 346 345 1079
f 1079 345 1083
f 345 1089 1083
f 345 340 1089
f 340 1093 1089
f 1093 339 1097
f 340 339 1093
f 339 1100 1097
f 339 338 1100
f 1103 343 1107
f 1107 347 1108
f 343 347 1107
f 1108 349 1111
f 347 349 1108
f 343 1403 338
f 1100 1403 1103
f 338 1403 1100
f 1103 1403 343
f 297 299 1062
f 1062 299 1067
f 306 313 1075
f 313 1079 1075
f 313 346 1079
f 300 1404 299
f 1067 1404 1071
f 299 1404 1067
f 1071 1404 300
f 306 1405 300
f 1071 1405 1075
f 300 1405 1071
f 1075 1405 306
f 303 296 1069
f 296 1065 1069
f 296 298 1065
f 298 1062 1065
f 298 297 1062
f 303 1406 312
f 312 1406 1077
f 1077 1406 1073
f 1073 1406 1069
f 1069 1406 303
f 326 1407 327
f 327 1407 1088
f 1088 1407 1085
f 328 1408 326
f 312 1408 328
f 1085 1408 1081
f 1081 1408 1077
f 1077 1408 312
f 326 1408 1407
f 1407 1408 1085
f 333 1409 337
f 337 1409 1101
f 1101 1409 1096
f 325 1410 333
f 327 1410 325
f 1096 1410 1092
f 1092 1410 1088
f 1088 1410 327
f 333 1410 1409
f 1409 1410 1096
f 344 1411 350
f 350 1411 1113
f 1113 1411 1105
f 1105 1411 344
f 337 1412 344
f 1105 1412 1101
f 1101 1412 337
f 344 1412 1105
f 359 350 1119
f 1119 350 1113
f 373 370 1134
f 1134 370 1129
f 365 1119 1120
f 365 359 1119
f 367 1413 370
f 1129 1413 1125
f 370 1413 1129
f 1125 1413 367
f 365 1414 367
f 1125 1414 1120
f 367 1414 1125
f 1120 1414 365
