# smartdrone2 body-local mesh, millimetres
v -0.155449 0.710781 0.938958
v -0.198124 0.749474 0.939037
v -1.350010 -1.750009 0.940003
v -0.233938 0.800833 0.939210
v -1.350010 1.750009 0.940003
v -0.104256 0.680152 0.938951
v -0.260578 0.869021 0.939410
v -0.047197 0.659381 0.938979
v 0.013056 0.650272 0.939002
v 1.350010 -1.750009 0.940003
v -0.274990 0.950009 0.939503
v 0.073832 0.654321 0.938990
v -0.264407 1.015764 0.939441
v 0.132461 0.670736 0.938960
v -0.246238 1.073207 0.939295
v 0.186272 0.697716 0.938949
v -0.219190 1.123561 0.939125
v 0.232593 0.733456 0.938995
v -0.182573 1.166563 0.938995
v 0.269210 0.776457 0.939125
v -0.136252 1.202302 0.938949
v 0.296258 0.826812 0.939295
v -0.082441 1.229283 0.938960
v -0.023812 1.245698 0.938990
v 0.036964 1.249746 0.939002
v 1.350010 1.750009 0.940003
v 0.314427 0.884254 0.939441
v 0.325010 0.950009 0.939503
v 0.310598 1.030998 0.939410
v 0.283958 1.099185 0.939210
v 0.248144 1.150545 0.939037
v 0.205469 1.189237 0.938958
v 0.154276 1.219866 0.938951
v 0.097217 1.240638 0.938979
v 1.350010 1.750009 0.000000
v -1.350010 1.750009 0.000000
v -1.350010 -1.750009 0.000000
v 1.350010 -1.750009 0.000000
v -0.124692 0.817385 0.939003
v -0.088603 0.785412 0.939003
v -0.152081 0.857065 0.939003
v -0.045911 0.763006 0.939003
v -0.169178 0.902146 0.939003
v 0.000903 0.751467 0.939003
v -0.174990 0.950009 0.939003
v 0.049117 0.751467 0.939003
v -0.169178 0.997872 0.939003
v 0.095931 0.763006 0.939003
v -0.152081 1.042954 0.939003
v 0.138623 0.785412 0.939003
v -0.124692 1.082634 0.939003
v 0.174712 0.817385 0.939003
v -0.088603 1.114606 0.939003
v 0.202101 0.857065 0.939003
v -0.045911 1.137012 0.939003
v 0.219198 0.902146 0.939003
v 0.225010 0.950009 0.939003
v 0.000903 1.148551 0.939003
v 0.219198 0.997872 0.939003
v 0.049117 1.148551 0.939003
v 0.095931 1.137012 0.939003
v 0.202101 1.042954 0.939003
v 0.138623 1.114606 0.939003
v 0.174712 1.082634 0.939003
v 0.225010 0.950009 0.640003
v 0.219198 0.997872 0.640003
v 0.202101 1.042954 0.640003
v 0.174712 1.082634 0.640003
v 0.138623 1.114606 0.640003
v 0.095931 1.137012 0.640003
v 0.049117 1.148551 0.640003
v 0.000903 1.148551 0.640003
v -0.045911 1.137012 0.640003
v -0.088603 1.114606 0.640003
v -0.124692 1.082634 0.640003
v -0.152081 1.042954 0.640003
v -0.169178 0.997872 0.640003
v -0.174990 0.950009 0.640003
v -0.169178 0.902146 0.640003
v -0.152081 0.857065 0.640003
v -0.124692 0.817385 0.640003
v -0.088603 0.785412 0.640003
v -0.045911 0.763006 0.640003
v 0.000903 0.751467 0.640003
v 0.049117 0.751467 0.640003
v 0.095931 0.763006 0.640003
v 0.138623 0.785412 0.640003
v 0.174712 0.817385 0.640003
v 0.202101 0.857065 0.640003
v 0.219198 0.902146 0.640003
f 1 2 3
f 4 5 3
f 4 3 2
f 6 1 3
f 7 5 4
f 8 6 3
f 9 3 10
f 9 8 3
f 11 5 7
f 12 9 10
f 13 5 11
f 14 12 10
f 15 5 13
f 16 14 10
f 17 5 15
f 18 16 10
f 19 5 17
f 20 18 10
f 21 5 19
f 22 20 10
f 23 5 21
f 24 5 23
f 25 5 24
f 26 27 22
f 26 28 27
f 26 29 28
f 26 30 29
f 26 31 30
f 26 32 31
f 26 33 32
f 26 34 33
f 26 25 34
f 26 22 10
f 26 5 25
f 35 36 5
f 35 5 26
f 36 37 3
f 36 3 5
f 10 3 37
f 10 37 38
f 26 10 38
f 26 38 35
f 38 37 36
f 38 36 35
f 39 4 2
f 39 2 1
f 40 1 6
f 40 39 1
f 41 7 4
f 41 4 39
f 42 6 8
f 42 40 6
f 43 11 7
f 43 7 41
f 44 8 9
f 44 42 8
f 45 13 11
f 45 11 43
f 46 9 12
f 46 44 9
f 47 15 13
f 47 13 45
f 48 12 14
f 48 46 12
f 16 48 14
f 49 15 47
f 17 15 49
f 50 48 16
f 51 17 49
f 18 50 16
f 19 17 51
f 52 50 18
f 53 19 51
f 20 52 18
f 54 52 20
f 21 19 53
f 55 21 53
f 22 54 20
f 22 56 54
f 23 21 55
f 27 56 22
f 27 57 56
f 24 23 55
f 24 55 58
f 28 57 27
f 28 59 57
f 25 24 58
f 25 58 60
f 34 60 61
f 34 25 60
f 29 62 59
f 29 59 28
f 33 34 61
f 33 61 63
f 30 62 29
f 30 64 62
f 32 63 64
f 32 33 63
f 31 32 64
f 31 64 30
f 57 59 65
f 65 59 66
f 66 62 67
f 59 62 66
f 67 64 68
f 62 64 67
f 68 63 69
f 64 63 68
f 69 61 70
f 63 61 69
f 70 60 71
f 61 60 70
f 71 58 72
f 72 58 73
f 60 58 71
f 58 55 73
f 73 53 74
f 55 53 73
f 74 51 75
f 53 51 74
f 75 49 76
f 76 49 77
f 51 49 75
f 49 47 77
f 77 45 78
f 47 45 77
f 45 43 78
f 78 43 79
f 79 41 80
f 43 41 79
f 80 39 81
f 41 39 80
f 81 40 82
f 39 40 81
f 82 42 83
f 40 42 82
f 83 44 84
f 42 44 83
f 84 46 85
f 44 46 84
f 85 48 86
f 46 48 85
f 86 50 87
f 48 50 86
f 87 52 88
f 50 52 87
f 88 54 89
f 89 54 90
f 52 54 88
f 54 56 90
f 90 57 65
f 56 57 90
f 74 75 76
f 89 87 88
f 68 78 79
f 68 79 80
f 68 80 81
f 68 81 82
f 68 82 83
f 68 83 84
f 68 84 85
f 68 85 86
f 68 86 87
f 68 89 90
f 68 90 65
f 68 65 66
f 68 66 67
f 68 69 70
f 68 70 71
f 68 71 72
f 68 72 73
f 68 73 74
f 68 76 77
f 68 77 78
f 68 74 76
f 68 87 89
