# smartdrone2 body-local mesh, millimetres
v -5.763533 -5.106044 0.000000
v -5.239575 -4.641859 0.000000
v -4.374099 -6.336976 0.000000
v -3.976453 -5.760887 0.000000
v -2.730458 -7.199625 0.000000
v -6.818011 -3.578368 0.000000
v -6.198192 -3.253062 0.000000
v -2.482234 -6.545114 0.000000
v -0.928132 -7.643858 0.000000
v -7.476252 -1.842731 0.000000
v -6.796593 -1.675210 0.000000
v -0.843757 -6.948962 0.000000
v -7.700000 0.000000 0.000000
v -7.000000 -0.000000 0.000000
v 0.928132 -7.643858 0.000000
v 0.843757 -6.948962 0.000000
v -7.476252 1.842731 0.000000
v -6.796593 1.675210 0.000000
v 2.730458 -7.199625 0.000000
v 2.482234 -6.545114 0.000000
v -6.818011 3.578368 0.000000
v -6.198192 3.253062 0.000000
v 4.374099 -6.336976 0.000000
v 3.976453 -5.760887 0.000000
v -5.763533 5.106044 0.000000
v -5.239575 4.641859 0.000000
v 5.763533 -5.106044 0.000000
v 5.239575 -4.641859 0.000000
v -3.976453 5.760887 0.000000
v -4.374099 6.336976 0.000000
v 6.818011 -3.578368 0.000000
v 6.198192 -3.253062 0.000000
v -2.482234 6.545114 0.000000
v -2.730458 7.199625 0.000000
v 7.476252 -1.842731 0.000000
v 6.796593 -1.675210 0.000000
v -0.843757 6.948962 0.000000
v -0.928132 7.643858 0.000000
v 7.700000 -0.000000 0.000000
v 7.000000 0.000000 0.000000
v 0.843757 6.948962 0.000000
v 0.928132 7.643858 0.000000
v 2.482234 6.545114 0.000000
v 7.476252 1.842731 0.000000
v 6.796593 1.675210 0.000000
v 2.730458 7.199625 0.000000
v 3.976453 5.760887 0.000000
v 6.818011 3.578368 0.000000
v 6.198192 3.253062 0.000000
v 4.374099 6.336976 0.000000
v 5.239575 4.641859 0.000000
v 5.763533 5.106044 0.000000
v -7.000000 -0.000000 162.000000
v -6.789768 -1.702662 162.000000
v -6.171698 -3.303050 162.000000
v -5.182917 -4.705037 162.000000
v -1.999870 -6.708244 9.977788
v -1.956934 -6.721010 9.589806
v -1.836726 -6.754734 9.208543
v -1.643205 -6.804333 8.860786
v -1.394764 -6.859636 8.566616
v -1.091686 -6.914241 8.324843
v -3.882817 -5.824409 162.000000
v -0.737589 -6.961026 8.140992
v -0.353432 -6.990820 8.032022
v 0.033347 -6.999913 8.000293
v 0.421608 -6.987041 8.045490
v 0.802362 -6.953860 8.168021
v -1.669000 -6.798054 11.101073
v -2.349489 -6.593929 162.000000
v -1.425943 -6.853224 11.402380
v -1.854735 -6.749813 10.748288
v -1.965909 -6.718390 10.364753
v 1.148904 -6.904966 8.363552
v 1.441304 -6.850007 8.613435
v 1.681608 -6.794948 8.918262
v 1.863344 -6.747445 9.273463
v 1.965909 -6.718390 9.635247
v 2.000000 -6.708204 10.000000
v -0.398901 -6.988370 11.959262
v -0.675037 -6.967376 162.000000
v -0.011096 -6.999990 11.999967
v -0.780886 -6.956307 11.841251
v -1.130011 -6.908081 11.649541
v 1.656198 -6.801183 11.120233
v 1.039963 -6.922317 162.000000
v 1.845862 -6.752244 10.769930
v 1.410457 -6.856428 11.417960
v 1.110937 -6.911173 11.662445
v 0.759294 -6.958697 11.850262
v 0.376174 -6.989630 11.963751
v 1.961552 -6.719664 10.387482
v 2.692496 -6.461460 162.000000
v 4.183300 -5.612486 162.000000
v 5.422829 -4.426390 162.000000
v 6.336627 -2.974417 162.000000
v 6.869807 -1.343781 162.000000
v 6.990343 0.367571 162.000000
v 6.690993 2.056844 162.000000
v 5.989740 3.622570 162.000000
v 4.928705 4.970701 162.000000
v 2.000000 6.708204 10.000000
v 1.961552 6.719664 9.612518
v 1.845862 6.752244 9.230070
v 1.656198 6.801183 8.879767
v 1.410457 6.856428 8.582040
v 1.110937 6.911173 8.337555
v 0.759294 6.958697 8.149738
v 3.571619 6.020260 162.000000
v 0.376174 6.989630 8.036249
v -0.011096 6.999990 8.000033
v -0.398901 6.988370 8.040738
v -0.780886 6.956307 8.158749
v -1.130011 6.908081 8.350459
v 2.000000 6.708204 160.000000
v 1.963763 6.719018 10.376120
v 1.961552 6.719664 159.612518
v 1.854735 6.749813 10.748288
v 2.000000 6.708204 162.000000
v 1.845862 6.752244 159.230070
v 1.669000 6.798054 11.101073
v -1.425943 6.853224 8.597620
v 1.656198 6.801183 158.879767
v 1.425943 6.853224 11.402380
v -1.669000 6.798054 8.898927
v 1.410457 6.856428 158.582040
v 1.130011 6.908081 11.649541
v 1.110937 6.911173 158.337555
v 0.780886 6.956307 11.841251
v -1.854735 6.749813 9.251712
v -1.963763 6.719018 9.623880
v -2.000000 6.708204 10.000000
v 0.759294 6.958697 158.149738
v 0.398901 6.988370 11.959262
v 0.376174 6.989630 158.036249
v 0.011096 6.999990 11.999967
v -0.011096 6.999990 158.000033
v -0.376174 6.989630 11.963751
v -0.398901 6.988370 158.040738
v -0.759294 6.958697 11.850262
v -0.780886 6.956307 158.158749
v -1.110937 6.911173 11.662445
v -1.130011 6.908081 158.350459
v -1.410457 6.856428 11.417960
v -1.425943 6.853224 158.597620
v -1.656198 6.801183 11.120233
v -1.669000 6.798054 158.898927
v -1.845862 6.752244 10.769930
v -1.854735 6.749813 159.251712
v -1.961552 6.719664 10.387482
v -1.963763 6.719018 159.623880
v -2.000000 6.708204 160.000000
v -2.000000 6.708204 162.000000
v -3.375982 6.132108 162.000000
v -4.598652 5.277537 162.000000
v -5.612486 4.183300 162.000000
v -6.371443 2.899089 162.000000
v -6.841056 1.483223 162.000000
v -2.000000 7.435725 160.000000
v -2.000000 7.435725 162.000000
v -6.777938 -3.653705 162.000000
v -5.677862 -5.201142 162.000000
v -4.232583 -6.432359 162.000000
v -7.465927 -1.884128 162.000000
v -2.529969 -7.272500 162.000000
v -7.700000 -0.000000 162.000000
v -0.673538 -7.670485 162.000000
v 1.223843 -7.602119 162.000000
v -7.517744 1.665390 162.000000
v 3.046817 -7.071556 162.000000
v -6.979604 3.251942 162.000000
v -6.111056 4.684549 162.000000
v 4.684549 -6.111056 162.000000
v -4.953214 5.895394 162.000000
v 6.037469 -4.779013 162.000000
v -3.560892 6.827155 162.000000
v 7.023321 -3.156415 162.000000
v 7.582168 -1.341913 162.000000
v 7.680032 0.554176 162.000000
v 7.310963 2.416571 162.000000
v 3.758664 6.720301 162.000000
v 2.000000 7.435725 162.000000
v 6.497401 4.132044 162.000000
v 5.288807 5.596295 162.000000
v 2.000000 7.435725 160.000000
v 1.966472 7.444766 159.638292
v 1.865531 7.470601 159.279113
v 1.683665 7.513617 158.921468
v 1.442299 7.563711 158.614472
v 1.148244 7.613809 158.363093
v 0.799604 7.658367 158.166813
v 0.416748 7.688484 158.044449
v 0.026877 7.699949 158.000191
v -0.361742 7.691267 158.033535
v -0.747359 7.663643 158.144890
v -1.102143 7.620616 158.331713
v -1.404857 7.570758 158.576495
v -1.652859 7.520450 158.874852
v -1.844390 7.475843 159.226552
v -1.961209 7.446155 159.610781
v -1.966472 -7.444766 9.638292
v -2.000000 -7.435725 10.000000
v -1.865531 -7.470601 9.279113
v -1.683665 -7.513617 8.921468
v -1.148244 -7.613809 8.363093
v -1.442299 -7.563711 8.614472
v -0.416748 -7.688484 8.044449
v -0.799604 -7.658367 8.166813
v -0.026877 -7.699949 8.000191
v 0.361742 -7.691267 8.033535
v 0.747359 -7.663643 8.144890
v -1.961209 -7.446155 10.389219
v -1.844390 -7.475843 10.773448
v -1.652859 -7.520450 11.125148
v 1.404857 -7.570758 8.576495
v 1.102143 -7.620616 8.331713
v 1.652859 -7.520450 8.874852
v 1.844390 -7.475843 9.226552
v 2.000000 -7.435725 10.000000
v 1.961209 -7.446155 9.610781
v -1.404857 -7.570758 11.423505
v -1.102143 -7.620616 11.668287
v -0.747359 -7.663643 11.855110
v -0.361742 -7.691267 11.966465
v 0.026877 -7.699949 11.999809
v 0.416748 -7.688484 11.955551
v 0.799604 -7.658367 11.833187
v 1.148244 -7.613809 11.636907
v 1.442299 -7.563711 11.385528
v 1.683665 -7.513617 11.078532
v 1.865531 -7.470601 10.720887
v 1.966472 -7.444766 10.361708
v 1.971351 7.443472 9.665817
v 2.000000 7.435725 10.000000
v 1.885122 7.465698 9.332271
v 1.713297 7.506923 8.969083
v 1.193264 7.606894 8.395556
v 1.478974 7.556616 8.653807
v 0.471616 7.685333 8.056904
v 0.851151 7.652795 8.190249
v 0.080953 7.699541 8.001718
v -0.694478 7.668589 8.124517
v -0.306679 7.693676 8.024159
v -1.366210 7.577818 8.539435
v -1.055016 7.627288 8.301476
v 1.961209 7.446155 10.389219
v -1.620940 7.527396 8.829289
v 1.844390 7.475843 10.773448
v -1.821713 7.481397 9.174661
v 1.652859 7.520450 11.125148
v 1.404857 7.570758 11.423505
v 1.102143 7.620616 11.668287
v -1.999237 7.435937 9.946136
v -1.949528 7.449217 9.555844
v 0.747359 7.663643 11.855110
v 0.361742 7.691267 11.966465
v -0.026877 7.699949 11.999809
v -0.416748 7.688484 11.955551
v -0.799604 7.658367 11.833187
v -1.148244 7.613809 11.636907
v -1.442299 7.563711 11.385528
v -1.683665 7.513617 11.078532
v -1.865531 7.470601 10.720887
v -1.971351 7.443472 10.334183
f 1 2 3
f 3 4 5
f 2 4 3
f 6 7 1
f 1 7 2
f 4 8 5
f 8 9 5
f 10 11 6
f 6 11 7
f 8 12 9
f 13 14 10
f 10 14 11
f 12 15 9
f 12 16 15
f 17 18 13
f 13 18 14
f 16 19 15
f 16 20 19
f 21 22 17
f 17 22 18
f 20 23 19
f 20 24 23
f 25 26 21
f 21 26 22
f 24 27 23
f 28 27 24
f 25 29 26
f 25 30 29
f 28 31 27
f 32 31 28
f 30 33 29
f 30 34 33
f 32 35 31
f 36 35 32
f 34 37 33
f 34 38 37
f 36 39 35
f 40 39 36
f 38 41 37
f 38 42 41
f 42 43 41
f 40 44 39
f 45 44 40
f 42 46 43
f 43 46 47
f 45 48 44
f 49 48 45
f 47 50 51
f 46 50 47
f 51 52 49
f 49 52 48
f 50 52 51
f 14 53 11
f 53 54 11
f 11 54 7
f 54 55 7
f 7 55 2
f 55 56 2
f 2 56 4
f 57 58 8
f 58 59 8
f 59 60 8
f 61 12 60
f 62 12 61
f 60 12 8
f 56 63 4
f 4 63 8
f 64 65 12
f 65 66 12
f 67 16 66
f 66 16 12
f 67 68 16
f 69 70 71
f 72 70 69
f 73 70 72
f 57 70 73
f 8 70 57
f 63 70 8
f 68 74 16
f 74 75 16
f 75 76 16
f 76 20 16
f 77 20 76
f 78 20 77
f 79 20 78
f 80 81 82
f 83 81 80
f 84 81 83
f 71 81 84
f 70 81 71
f 85 86 87
f 88 86 85
f 89 86 88
f 90 86 89
f 91 86 90
f 82 86 91
f 81 86 82
f 92 93 79
f 87 93 92
f 86 93 87
f 79 93 20
f 20 93 24
f 93 94 24
f 24 94 28
f 94 95 28
f 28 95 32
f 95 96 32
f 32 96 36
f 96 97 36
f 36 97 40
f 40 98 45
f 97 98 40
f 45 99 49
f 98 99 45
f 49 100 51
f 99 100 49
f 51 101 47
f 100 101 51
f 102 103 43
f 103 104 43
f 104 105 43
f 105 41 43
f 106 41 105
f 107 41 106
f 107 108 41
f 47 109 43
f 101 109 47
f 43 109 102
f 108 110 41
f 110 111 41
f 112 37 111
f 111 37 41
f 112 113 37
f 113 114 37
f 102 115 116
f 109 115 102
f 116 117 118
f 115 117 116
f 109 119 115
f 117 120 118
f 118 120 121
f 114 122 37
f 120 123 121
f 121 123 124
f 122 125 37
f 123 126 124
f 124 126 127
f 126 128 127
f 127 128 129
f 125 33 37
f 130 33 125
f 131 33 130
f 132 33 131
f 128 133 129
f 129 133 134
f 133 135 134
f 134 135 136
f 135 137 136
f 136 137 138
f 137 139 138
f 138 139 140
f 139 141 140
f 140 141 142
f 141 143 142
f 142 143 144
f 143 145 144
f 144 145 146
f 145 147 146
f 146 147 148
f 147 149 148
f 148 149 150
f 149 151 150
f 150 151 132
f 151 152 132
f 153 154 152
f 132 154 33
f 33 154 29
f 152 154 132
f 29 155 26
f 154 155 29
f 26 156 22
f 155 156 26
f 22 157 18
f 156 157 22
f 18 158 14
f 157 158 18
f 158 53 14
f 62 64 12
f 159 160 152
f 152 160 153
f 56 161 162
f 63 162 163
f 63 56 162
f 55 161 56
f 164 161 55
f 70 163 165
f 70 63 163
f 54 164 55
f 166 164 54
f 81 165 167
f 81 70 165
f 53 166 54
f 86 167 168
f 86 81 167
f 158 169 166
f 158 166 53
f 93 168 170
f 93 86 168
f 157 171 169
f 157 169 158
f 156 171 157
f 94 93 170
f 172 171 156
f 173 94 170
f 155 172 156
f 174 172 155
f 95 94 173
f 175 95 173
f 154 174 155
f 176 174 154
f 96 95 175
f 177 96 175
f 153 176 154
f 160 176 153
f 97 96 177
f 178 97 177
f 98 97 178
f 179 98 178
f 99 98 179
f 180 100 99
f 180 99 179
f 181 182 119
f 181 119 109
f 183 101 100
f 183 100 180
f 184 109 101
f 184 181 109
f 184 101 183
f 182 185 119
f 119 185 115
f 115 185 117
f 117 186 120
f 185 186 117
f 120 187 123
f 186 187 120
f 123 188 126
f 187 188 123
f 126 189 128
f 188 189 126
f 128 190 133
f 189 190 128
f 133 191 135
f 190 191 133
f 191 192 135
f 135 193 137
f 192 193 135
f 137 194 139
f 193 194 137
f 139 195 141
f 194 195 139
f 141 196 143
f 195 196 141
f 143 197 145
f 196 197 143
f 145 198 147
f 197 198 145
f 147 199 149
f 198 199 147
f 149 200 151
f 199 200 149
f 200 159 151
f 151 159 152
f 166 13 10
f 164 10 6
f 164 166 10
f 161 6 1
f 161 164 6
f 162 1 3
f 162 161 1
f 201 202 5
f 203 201 5
f 204 203 5
f 9 204 5
f 9 205 206
f 9 206 204
f 163 3 5
f 163 162 3
f 207 208 9
f 209 207 9
f 15 209 9
f 15 210 209
f 211 210 15
f 165 5 202
f 165 202 212
f 165 212 213
f 165 213 214
f 165 163 5
f 215 216 15
f 217 215 15
f 218 217 15
f 19 218 15
f 19 219 220
f 19 220 218
f 167 214 221
f 167 221 222
f 167 222 223
f 167 223 224
f 167 224 225
f 167 225 226
f 167 165 214
f 168 167 226
f 168 226 227
f 168 227 228
f 168 228 229
f 168 229 230
f 168 230 231
f 168 231 232
f 170 219 19
f 170 168 232
f 170 19 23
f 170 232 219
f 173 170 23
f 173 23 27
f 175 173 27
f 175 27 31
f 177 175 31
f 177 31 35
f 178 177 35
f 178 35 39
f 179 39 44
f 179 178 39
f 180 44 48
f 180 179 44
f 183 48 52
f 183 180 48
f 184 52 50
f 184 183 52
f 233 234 46
f 235 233 46
f 236 235 46
f 42 237 238
f 42 238 236
f 42 236 46
f 239 240 42
f 181 50 46
f 181 184 50
f 241 239 42
f 38 241 42
f 38 242 243
f 38 243 241
f 244 245 38
f 185 181 46
f 185 46 234
f 186 234 246
f 186 185 234
f 182 181 185
f 247 244 38
f 187 246 248
f 187 186 246
f 249 247 38
f 188 248 250
f 188 187 248
f 189 250 251
f 189 188 250
f 190 251 252
f 190 189 251
f 34 253 254
f 34 254 249
f 34 249 38
f 191 252 255
f 191 190 252
f 192 255 256
f 192 191 255
f 193 256 257
f 193 192 256
f 194 257 258
f 194 193 257
f 195 258 259
f 195 194 258
f 196 259 260
f 196 195 259
f 197 260 261
f 197 196 260
f 198 261 262
f 198 197 261
f 199 262 263
f 199 198 262
f 200 199 263
f 200 263 264
f 159 200 264
f 159 264 253
f 176 160 159
f 176 253 34
f 176 34 30
f 176 159 253
f 174 30 25
f 174 176 30
f 172 25 21
f 172 174 25
f 171 21 17
f 171 172 21
f 169 171 17
f 169 17 13
f 166 169 13
f 216 211 15
f 208 205 9
f 245 242 38
f 240 237 42
f 234 233 102
f 102 233 103
f 103 235 104
f 233 235 103
f 104 236 105
f 235 236 104
f 105 238 106
f 236 238 105
f 106 237 107
f 238 237 106
f 107 240 108
f 237 240 107
f 108 239 110
f 240 239 108
f 239 241 110
f 110 241 111
f 241 243 111
f 111 243 112
f 243 242 112
f 112 242 113
f 242 245 113
f 113 245 114
f 245 244 114
f 114 244 122
f 244 247 122
f 122 247 125
f 247 249 125
f 125 249 130
f 249 254 130
f 130 254 131
f 254 253 131
f 131 253 132
f 253 264 132
f 132 264 150
f 150 264 148
f 264 263 148
f 148 263 146
f 263 262 146
f 146 262 144
f 262 261 144
f 144 261 142
f 261 260 142
f 142 260 140
f 140 259 138
f 260 259 140
f 259 258 138
f 138 257 136
f 258 257 138
f 136 256 134
f 257 256 136
f 134 255 129
f 256 255 134
f 129 252 127
f 255 252 129
f 127 251 124
f 252 251 127
f 124 250 121
f 251 250 124
f 121 248 118
f 250 248 121
f 118 246 116
f 248 246 118
f 116 234 102
f 246 234 116
f 79 78 219
f 219 78 220
f 220 77 218
f 78 77 220
f 218 76 217
f 77 76 218
f 217 75 215
f 76 75 217
f 215 74 216
f 75 74 215
f 216 68 211
f 74 68 216
f 211 67 210
f 68 67 211
f 67 66 210
f 210 66 209
f 66 65 209
f 209 65 207
f 65 64 207
f 207 64 208
f 208 64 205
f 64 62 205
f 205 62 206
f 62 61 206
f 206 61 204
f 61 60 204
f 204 60 203
f 60 59 203
f 59 58 203
f 203 58 201
f 58 57 201
f 201 57 202
f 57 73 202
f 202 73 212
f 73 72 212
f 212 72 213
f 72 69 213
f 213 69 214
f 69 71 214
f 214 71 221
f 221 84 222
f 71 84 221
f 84 83 222
f 222 83 223
f 223 80 224
f 83 80 223
f 224 82 225
f 80 82 224
f 225 91 226
f 226 91 227
f 82 91 225
f 227 90 228
f 91 90 227
f 228 89 229
f 90 89 228
f 229 88 230
f 89 88 229
f 230 85 231
f 88 85 230
f 231 87 232
f 85 87 231
f 232 92 219
f 87 92 232
f 92 79 219
