# smartdrone2 body-local mesh, millimetres
v 14.400000 -9.375000 -0.950000
v 14.550000 -9.825000 -0.950000
v 14.400000 -9.825000 -0.950000
v 14.550000 -9.375000 -0.950000
v 14.400000 -8.800000 -0.850000
v 14.400000 -8.800000 -1.050000
v 14.400000 -9.375000 -0.850000
v 14.400000 -10.400000 -1.050000
v 14.400000 -9.825000 -0.850000
v 14.400000 -10.400000 -0.850000
v 14.550000 -9.375000 -0.850000
v 14.550000 -9.825000 -0.850000
v 12.700000 -8.800000 -0.850000
v 12.704952 -8.778306 -0.850000
v 12.701254 -8.788874 -0.850000
v 12.710908 -8.768826 -0.850000
v 12.718826 -8.760908 -0.850000
v 12.728306 -8.754952 -0.850000
v 12.738874 -8.751254 -0.850000
v 12.750000 -8.750000 -0.850000
v 12.900000 -8.750000 -0.850000
v 13.271612 -8.850000 -0.850000
v 12.900000 -8.600000 -0.850000
v 12.769375 -9.425000 -0.850000
v 12.700000 -9.425000 -0.850000
v 13.408579 -8.812599 -0.850000
v 12.800000 -9.425000 -0.850000
v 12.758293 -9.485108 -0.850000
v 12.751832 -9.545887 -0.850000
v 12.550000 -9.425000 -0.850000
v 13.550000 -8.800000 -0.850000
v 12.750030 -9.606981 -0.850000
v 12.550000 -9.775000 -0.850000
v 12.752516 -9.663397 -0.850000
v 12.700000 -9.775000 -0.850000
v 12.758975 -9.719496 -0.850000
v 12.769375 -9.775000 -0.850000
v 12.700000 -9.950000 -0.850000
v 12.800000 -9.775000 -0.850000
v 13.356097 -9.434391 -0.850000
v 13.400116 -9.393701 -0.850000
v 14.200000 -8.600000 -0.850000
v 13.691421 -8.812599 -0.850000
v 13.828388 -8.850000 -0.850000
v 13.322794 -9.484233 -0.850000
v 13.452416 -9.364412 -0.850000
v 13.302047 -9.540472 -0.850000
v 12.800000 -10.050000 -0.850000
v 13.510110 -9.348141 -0.850000
v 13.295001 -9.600000 -0.850000
v 13.296398 -9.626654 -0.850000
v 14.200000 -8.750000 -0.850000
v 13.300573 -9.653017 -0.850000
v 13.307482 -9.678799 -0.850000
v 13.332577 -9.733236 -0.850000
v 13.683237 -9.382578 -0.850000
v 13.628799 -9.357482 -0.850000
v 14.371694 -8.754952 -0.850000
v 14.361126 -8.751254 -0.850000
v 14.350000 -8.750000 -0.850000
v 12.710908 -10.431174 -0.850000
v 12.701254 -10.411126 -0.850000
v 12.704952 -10.421694 -0.850000
v 14.381174 -8.760908 -0.850000
v 13.369688 -9.780311 -0.850000
v 13.730312 -9.419689 -0.850000
v 12.728306 -10.445048 -0.850000
v 12.718826 -10.439092 -0.850000
v 12.738874 -10.448746 -0.850000
v 12.700000 -10.400000 -0.850000
v 14.398746 -8.788874 -0.850000
v 14.389092 -8.768826 -0.850000
v 14.395048 -8.778306 -0.850000
v 12.750000 -10.450000 -0.850000
v 12.700000 -10.250000 -0.850000
v 12.900000 -10.450000 -0.850000
v 12.800000 -10.150000 -0.850000
v 13.271612 -10.350000 -0.850000
v 12.900000 -10.600000 -0.850000
v 13.416763 -9.817422 -0.850000
v 13.471201 -9.842518 -0.850000
v 13.767423 -9.466764 -0.850000
v 13.792518 -9.521201 -0.850000
v 13.803602 -9.573346 -0.850000
v 13.804999 -9.600000 -0.850000
v 13.799427 -9.546983 -0.850000
v 13.408579 -10.387401 -0.850000
v 13.550000 -10.400000 -0.850000
v 13.828388 -10.350000 -0.850000
v 13.647584 -9.835588 -0.850000
v 13.589890 -9.851859 -0.850000
v 13.699884 -9.806299 -0.850000
v 13.743903 -9.765609 -0.850000
v 13.777206 -9.715767 -0.850000
v 13.797953 -9.659528 -0.850000
v 14.200000 -10.450000 -0.850000
v 14.200000 -10.600000 -0.850000
v 13.691421 -10.387401 -0.850000
v 14.350000 -10.450000 -0.850000
v 14.398746 -10.411126 -0.850000
v 14.361126 -10.448746 -0.850000
v 14.389092 -10.431174 -0.850000
v 14.395048 -10.421694 -0.850000
v 14.371694 -10.445048 -0.850000
v 14.381174 -10.439092 -0.850000
v 13.529993 -9.854213 -0.850000
v 13.570007 -9.345787 -0.850000
v 12.900000 -8.750000 -0.970000
v 12.750000 -8.750000 -1.050000
v 14.200000 -8.750000 -0.970000
v 14.350000 -8.750000 -1.050000
v 14.200000 -8.600000 -0.970000
v 12.900000 -8.600000 -0.970000
v 12.738874 -8.751254 -1.050000
v 12.728306 -8.754952 -1.050000
v 12.718826 -8.760908 -1.050000
v 12.710908 -8.768826 -1.050000
v 12.704952 -8.778306 -1.050000
v 12.701254 -8.788874 -1.050000
v 12.700000 -8.800000 -1.050000
v 12.700000 -9.775000 -0.970000
v 12.700000 -9.950000 -1.050000
v 12.700000 -9.425000 -0.970000
v 12.550000 -9.775000 -0.970000
v 12.550000 -9.425000 -0.970000
v 12.800000 -10.050000 -1.050000
v 14.398746 -8.788874 -1.050000
v 14.395048 -8.778306 -1.050000
v 14.389092 -8.768826 -1.050000
v 14.381174 -8.760908 -1.050000
v 14.371694 -8.754952 -1.050000
v 14.361126 -8.751254 -1.050000
v 14.078011 -9.067361 -1.050000
v 14.171320 -9.179927 -1.050000
v 13.964635 -8.975038 -1.050000
v 14.241016 -9.308459 -1.050000
v 13.835500 -8.906466 -1.050000
v 14.284450 -9.448070 -1.050000
v 13.695515 -8.864252 -1.050000
v 14.299971 -9.593455 -1.050000
v 13.550000 -8.850000 -1.050000
v 14.299971 -9.606545 -1.050000
v 14.179976 -9.594502 -1.050000
v 14.179976 -9.605498 -1.050000
v 14.057735 -9.227032 -1.050000
v 13.699203 -9.431585 -1.050000
v 13.969642 -9.130106 -1.050000
v 13.863412 -9.053490 -1.050000
v 14.123882 -9.340078 -1.050000
v 13.735171 -9.472185 -1.050000
v 13.654563 -9.400772 -1.050000
v 13.743635 -9.000496 -1.050000
v 14.165225 -9.464359 -1.050000
v 13.760379 -9.520214 -1.050000
v 13.603846 -9.381538 -1.050000
v 13.615488 -8.973413 -1.050000
v 13.773359 -9.572879 -1.050000
v 13.550000 -9.375000 -1.050000
v 13.484512 -8.973413 -1.050000
v 13.773359 -9.627121 -1.050000
v 14.165066 -9.736357 -1.050000
v 13.496154 -9.381538 -1.050000
v 13.356365 -9.000496 -1.050000
v 13.760379 -9.679786 -1.050000
v 14.123276 -9.861257 -1.050000
v 13.445437 -9.400772 -1.050000
v 13.236588 -9.053490 -1.050000
v 13.735171 -9.727815 -1.050000
v 14.056430 -9.974738 -1.050000
v 14.284284 -9.752731 -1.050000
v 14.240379 -9.893048 -1.050000
v 14.169942 -10.022104 -1.050000
v 13.135365 -8.975038 -1.050000
v 13.264500 -8.906466 -1.050000
v 13.404485 -8.864252 -1.050000
v 14.398746 -10.411126 -1.050000
v 14.395048 -10.421694 -1.050000
v 13.400797 -9.431585 -1.050000
v 13.130358 -9.130106 -1.050000
v 13.021989 -9.067361 -1.050000
v 14.389092 -10.431174 -1.050000
v 14.381174 -10.439092 -1.050000
v 14.075682 -10.134938 -1.050000
v 13.699203 -9.768415 -1.050000
v 14.371694 -10.445048 -1.050000
v 14.361126 -10.448746 -1.050000
v 14.350000 -10.450000 -1.050000
v 13.967451 -10.071842 -1.050000
v 13.042265 -9.227032 -1.050000
v 13.364829 -9.472185 -1.050000
v 12.928680 -9.179927 -1.050000
v 13.961220 -10.227215 -1.050000
v 13.860227 -10.148324 -1.050000
v 13.654563 -9.799228 -1.050000
v 12.976118 -9.340078 -1.050000
v 13.339621 -9.520214 -1.050000
v 12.858984 -9.308459 -1.050000
v 13.739445 -10.200842 -1.050000
v 13.603846 -9.818462 -1.050000
v 13.830955 -10.295388 -1.050000
v 12.934775 -9.464359 -1.050000
v 13.326641 -9.572879 -1.050000
v 13.610383 -10.227100 -1.050000
v 13.550000 -9.825000 -1.050000
v 12.815550 -9.448070 -1.050000
v 13.689893 -10.336838 -1.050000
v 12.920024 -9.594502 -1.050000
v 13.326641 -9.627121 -1.050000
v 13.478682 -10.225950 -1.050000
v 13.496154 -9.818462 -1.050000
v 12.932647 -9.725602 -1.050000
v 13.339621 -9.679786 -1.050000
v 12.800029 -9.593455 -1.050000
v 13.350098 -10.197444 -1.050000
v 13.445437 -9.799228 -1.050000
v 12.972252 -9.851212 -1.050000
v 13.364829 -9.727815 -1.050000
v 13.230251 -10.142826 -1.050000
v 13.400797 -9.768415 -1.050000
v 13.037107 -9.965843 -1.050000
v 13.124378 -10.064485 -1.050000
v 12.922785 -10.011220 -1.050000
v 12.854612 -9.880955 -1.050000
v 12.813162 -9.739893 -1.050000
v 13.015062 -10.125682 -1.050000
v 12.800000 -10.150000 -1.050000
v 13.397269 -10.334284 -1.050000
v 12.750000 -10.450000 -1.050000
v 13.256952 -10.290379 -1.050000
v 12.700000 -10.250000 -1.050000
v 13.127896 -10.219942 -1.050000
v 12.700000 -10.400000 -1.050000
v 12.738874 -10.448746 -1.050000
v 12.728306 -10.445048 -1.050000
v 12.704952 -10.421694 -1.050000
v 12.701254 -10.411126 -1.050000
v 12.718826 -10.439092 -1.050000
v 12.710908 -10.431174 -1.050000
v 13.543455 -10.349971 -1.050000
v 14.200000 -10.450000 -0.970000
v 12.900000 -10.450000 -0.970000
v 12.900000 -10.600000 -0.970000
v 14.200000 -10.600000 -0.970000
v 13.603653 -9.381491 -1.350000
v 13.550000 -9.375000 -1.350000
v 13.654211 -9.400588 -1.350000
v 13.698757 -9.431191 -1.350000
v 13.734719 -9.471533 -1.350000
v 13.760025 -9.519287 -1.350000
v 13.773213 -9.571698 -1.350000
v 13.773523 -9.625741 -1.350000
v 13.760936 -9.678300 -1.350000
v 13.736180 -9.726341 -1.350000
v 13.700682 -9.767093 -1.350000
v 13.656490 -9.798204 -1.350000
v 13.606155 -9.817880 -1.350000
v 13.552579 -9.824985 -1.350000
v 13.551720 -9.824993 -1.350000
v 13.550860 -9.824998 -1.350000
v 13.550000 -9.825000 -1.350000
v 13.496347 -9.818509 -1.350000
v 13.445789 -9.799412 -1.350000
v 13.401243 -9.768809 -1.350000
v 13.365281 -9.728467 -1.350000
v 13.339975 -9.680713 -1.350000
v 13.326787 -9.628302 -1.350000
v 13.326477 -9.574259 -1.350000
v 13.339064 -9.521700 -1.350000
v 13.363820 -9.473659 -1.350000
v 13.399318 -9.432907 -1.350000
v 13.443510 -9.401796 -1.350000
v 13.493845 -9.382120 -1.350000
v 13.547421 -9.375015 -1.350000
v 13.548280 -9.375007 -1.350000
v 13.549140 -9.375002 -1.350000
v 13.550000 -9.822493 -1.372252
v 13.550000 -9.377507 -1.372252
v 13.549045 -9.475004 -1.450000
v 13.548567 -9.475008 -1.450000
v 13.550000 -9.452748 -1.447493
v 13.549522 -9.475001 -1.450000
v 13.550000 -9.475000 -1.450000
v 13.496945 -9.816074 -1.372252
v 13.498708 -9.808892 -1.393388
v 13.550000 -9.815097 -1.393388
v 13.446950 -9.797190 -1.372252
v 13.501549 -9.797322 -1.412349
v 13.550000 -9.803183 -1.412349
v 13.450376 -9.790635 -1.393388
v 13.505325 -9.781944 -1.428183
v 13.550000 -9.787349 -1.428183
v 13.402901 -9.766928 -1.372252
v 13.455894 -9.780076 -1.412349
v 13.509846 -9.763531 -1.440097
v 13.550000 -9.768388 -1.440097
v 13.407791 -9.761379 -1.393388
v 13.463227 -9.766043 -1.428183
v 13.514886 -9.743004 -1.447493
v 13.550000 -9.747252 -1.447493
v 13.550000 -9.725000 -1.450000
v 13.520193 -9.721394 -1.450000
v 13.367339 -9.727035 -1.372252
v 13.415667 -9.752441 -1.412349
v 13.472009 -9.749238 -1.440097
v 13.373411 -9.722813 -1.393388
v 13.426136 -9.740561 -1.428183
v 13.481799 -9.730506 -1.447493
v 13.492105 -9.710784 -1.450000
v 13.342316 -9.679814 -1.372252
v 13.383192 -9.716010 -1.412349
v 13.438672 -9.726335 -1.440097
v 13.349219 -9.677160 -1.393388
v 13.396191 -9.706970 -1.428183
v 13.452646 -9.710478 -1.447493
v 13.467357 -9.693783 -1.450000
v 13.329274 -9.627987 -1.372252
v 13.360340 -9.672887 -1.412349
v 13.411757 -9.696144 -1.440097
v 13.336612 -9.627057 -1.393388
v 13.375120 -9.667207 -1.428183
v 13.429110 -9.684076 -1.447493
v 13.447378 -9.671371 -1.450000
v 13.328968 -9.574545 -1.372252
v 13.348431 -9.625558 -1.412349
v 13.392819 -9.660405 -1.440097
v 13.336315 -9.575392 -1.393388
v 13.364139 -9.623566 -1.428183
v 13.412548 -9.652823 -1.447493
v 13.433320 -9.644841 -1.450000
v 13.341414 -9.522573 -1.372252
v 13.348151 -9.576755 -1.412349
v 13.382949 -9.621181 -1.440097
v 13.348348 -9.525146 -1.393388
v 13.363881 -9.578566 -1.428183
v 13.403918 -9.618523 -1.447493
v 13.425993 -9.615723 -1.450000
v 13.365895 -9.475067 -1.372252
v 13.359517 -9.529292 -1.412349
v 13.382717 -9.580735 -1.440097
v 13.372015 -9.479220 -1.393388
v 13.374361 -9.534803 -1.428183
v 13.403715 -9.583153 -1.447493
v 13.425821 -9.585699 -1.450000
v 13.400997 -9.434769 -1.372252
v 13.381873 -9.485910 -1.412349
v 13.392137 -9.541401 -1.440097
v 13.405950 -9.440262 -1.393388
v 13.394975 -9.494801 -1.428183
v 13.411952 -9.548756 -1.447493
v 13.432813 -9.556500 -1.450000
v 13.444696 -9.404005 -1.372252
v 13.413929 -9.449109 -1.412349
v 13.410664 -9.505447 -1.440097
v 13.448197 -9.410520 -1.393388
v 13.424533 -9.460868 -1.428183
v 13.428154 -9.517316 -1.447493
v 13.446567 -9.529811 -1.450000
v 13.494471 -9.384548 -1.372252
v 13.453835 -9.421015 -1.412349
v 13.437231 -9.474949 -1.440097
v 13.496317 -9.391710 -1.393388
v 13.550000 -9.384903 -1.393388
v 13.461329 -9.434963 -1.428183
v 13.451386 -9.490646 -1.447493
v 13.466288 -9.507171 -1.450000
v 13.499290 -9.403247 -1.412349
v 13.550000 -9.396817 -1.412349
v 13.550000 -9.412651 -1.428183
v 13.470303 -9.451666 -1.440097
v 13.503242 -9.418580 -1.428183
v 13.480307 -9.470285 -1.447493
v 13.490839 -9.489887 -1.450000
v 13.507974 -9.436940 -1.440097
v 13.550000 -9.431612 -1.440097
v 13.513249 -9.457408 -1.447493
v 13.518803 -9.478956 -1.450000
v 13.550478 -9.724999 -1.450000
v 13.550955 -9.724996 -1.450000
v 13.551433 -9.724992 -1.450000
v 13.581197 -9.721044 -1.450000
v 13.609161 -9.710113 -1.450000
v 13.633712 -9.692829 -1.450000
v 13.653433 -9.670189 -1.450000
v 13.667187 -9.643500 -1.450000
v 13.674179 -9.614301 -1.450000
v 13.674007 -9.584277 -1.450000
v 13.666680 -9.555159 -1.450000
v 13.652622 -9.528629 -1.450000
v 13.632643 -9.506217 -1.450000
v 13.607895 -9.489216 -1.450000
v 13.579807 -9.478606 -1.450000
v 13.603055 -9.383926 -1.372252
v 13.601292 -9.391108 -1.393388
v 13.653050 -9.402810 -1.372252
v 13.598451 -9.402678 -1.412349
v 13.649624 -9.409365 -1.393388
v 13.594675 -9.418056 -1.428183
v 13.697099 -9.433072 -1.372252
v 13.644106 -9.419924 -1.412349
v 13.590154 -9.436469 -1.440097
v 13.692209 -9.438621 -1.393388
v 13.636773 -9.433957 -1.428183
v 13.585114 -9.456996 -1.447493
v 13.732661 -9.472965 -1.372252
v 13.684333 -9.447559 -1.412349
v 13.627991 -9.450762 -1.440097
v 13.726589 -9.477187 -1.393388
v 13.673864 -9.459439 -1.428183
v 13.618201 -9.469494 -1.447493
v 13.757684 -9.520186 -1.372252
v 13.716808 -9.483990 -1.412349
v 13.661328 -9.473665 -1.440097
v 13.750781 -9.522840 -1.393388
v 13.703809 -9.493030 -1.428183
v 13.647354 -9.489522 -1.447493
v 13.770726 -9.572013 -1.372252
v 13.739660 -9.527113 -1.412349
v 13.688243 -9.503856 -1.440097
v 13.763388 -9.572943 -1.393388
v 13.724880 -9.532793 -1.428183
v 13.670890 -9.515924 -1.447493
v 13.771032 -9.625455 -1.372252
v 13.751569 -9.574442 -1.412349
v 13.707181 -9.539595 -1.440097
v 13.763685 -9.624608 -1.393388
v 13.735861 -9.576434 -1.428183
v 13.687452 -9.547177 -1.447493
v 13.758586 -9.677427 -1.372252
v 13.751849 -9.623245 -1.412349
v 13.717051 -9.578819 -1.440097
v 13.751652 -9.674854 -1.393388
v 13.736119 -9.621434 -1.428183
v 13.696082 -9.581477 -1.447493
v 13.734105 -9.724933 -1.372252
v 13.740483 -9.670708 -1.412349
v 13.717283 -9.619265 -1.440097
v 13.727985 -9.720780 -1.393388
v 13.725639 -9.665197 -1.428183
v 13.696285 -9.616847 -1.447493
v 13.699003 -9.765231 -1.372252
v 13.718127 -9.714090 -1.412349
v 13.707863 -9.658599 -1.440097
v 13.694050 -9.759738 -1.393388
v 13.705025 -9.705199 -1.428183
v 13.688048 -9.651244 -1.447493
v 13.655304 -9.795995 -1.372252
v 13.686071 -9.750891 -1.412349
v 13.689336 -9.694553 -1.440097
v 13.651803 -9.789480 -1.393388
v 13.675467 -9.739132 -1.428183
v 13.671846 -9.682684 -1.447493
v 13.605529 -9.815452 -1.372252
v 13.646165 -9.778985 -1.412349
v 13.662769 -9.725051 -1.440097
v 13.603683 -9.808290 -1.393388
v 13.638671 -9.765037 -1.428183
v 13.648614 -9.709354 -1.447493
v 13.600710 -9.796753 -1.412349
v 13.629697 -9.748334 -1.440097
v 13.596758 -9.781420 -1.428183
v 13.619693 -9.729715 -1.447493
v 13.592026 -9.763060 -1.440097
v 13.586751 -9.742592 -1.447493
v 14.299971 -9.593455 -1.139829
v 14.249859 -9.593892 -1.215000
v 14.249859 -9.593892 -1.245000
v 14.179976 -9.594502 -1.450000
v 14.299971 -9.593455 -1.320171
v 14.299971 -9.593455 -1.410000
v 14.259973 -9.593804 -1.450000
v 14.284450 -9.751930 -1.139829
v 14.299971 -9.606545 -1.139829
v 14.241016 -9.891541 -1.139829
v 14.171320 -10.020073 -1.139829
v 14.078011 -10.132639 -1.139829
v 13.964635 -10.224962 -1.139829
v 13.835500 -10.293534 -1.139829
v 13.695515 -10.335748 -1.139829
v 13.550000 -10.350000 -1.139829
v 13.404485 -10.335748 -1.139829
v 13.264500 -10.293534 -1.139829
v 13.135365 -10.224962 -1.139829
v 13.021989 -10.132639 -1.139829
v 12.928680 -10.020073 -1.139829
v 12.858984 -9.891541 -1.139829
v 12.815550 -9.751930 -1.139829
v 12.800029 -9.606545 -1.139829
v 12.800003 -9.602182 -1.139829
v 12.800003 -9.597818 -1.139829
v 12.800029 -9.593455 -1.139829
v 12.815550 -9.448070 -1.139829
v 12.858984 -9.308459 -1.139829
v 12.928680 -9.179927 -1.139829
v 13.021989 -9.067361 -1.139829
v 13.135365 -8.975038 -1.139829
v 13.264500 -8.906466 -1.139829
v 13.404485 -8.864252 -1.139829
v 13.550000 -8.850000 -1.139829
v 13.695515 -8.864252 -1.139829
v 13.835500 -8.906466 -1.139829
v 13.964635 -8.975038 -1.139829
v 14.078011 -9.067361 -1.139829
v 14.171320 -9.179927 -1.139829
v 14.241016 -9.308459 -1.139829
v 14.284450 -9.448070 -1.139829
v 14.249859 -9.606108 -1.215000
v 14.179976 -9.605498 -1.450000
v 14.249859 -9.606108 -1.245000
v 14.299971 -9.606545 -1.320171
v 14.299971 -9.606545 -1.410000
v 14.259973 -9.606196 -1.450000
v 14.165066 -9.736357 -1.450000
v 14.123276 -9.861257 -1.450000
v 14.056430 -9.974738 -1.450000
v 13.967451 -10.071842 -1.450000
v 13.860227 -10.148324 -1.450000
v 13.739445 -10.200842 -1.450000
v 13.610383 -10.227100 -1.450000
v 13.478682 -10.225950 -1.450000
v 13.350098 -10.197444 -1.450000
v 13.230251 -10.142826 -1.450000
v 13.124378 -10.064485 -1.450000
v 13.037107 -9.965843 -1.450000
v 12.972252 -9.851212 -1.450000
v 12.932647 -9.725602 -1.450000
v 12.920024 -9.594502 -1.450000
v 12.934775 -9.464359 -1.450000
v 12.976118 -9.340078 -1.450000
v 13.042265 -9.227032 -1.450000
v 13.130358 -9.130106 -1.450000
v 13.236588 -9.053490 -1.450000
v 13.356365 -9.000496 -1.450000
v 13.484512 -8.973413 -1.450000
v 13.615488 -8.973413 -1.450000
v 13.743635 -9.000496 -1.450000
v 13.863412 -9.053490 -1.450000
v 13.969642 -9.130106 -1.450000
v 14.057735 -9.227032 -1.450000
v 14.123882 -9.340078 -1.450000
v 14.165225 -9.464359 -1.450000
v 13.155545 -9.009657 -1.450000
v 13.047954 -9.097954 -1.450000
v 12.959657 -9.205545 -1.450000
v 13.278295 -8.944046 -1.450000
v 12.894046 -9.328295 -1.450000
v 13.411486 -8.903643 -1.450000
v 12.853643 -9.461486 -1.450000
v 13.550000 -8.890000 -1.450000
v 12.840000 -9.600000 -1.450000
v 13.687754 -8.903492 -1.450000
v 12.853643 -9.738514 -1.450000
v 13.820273 -8.943454 -1.450000
v 12.894046 -9.871705 -1.450000
v 13.942521 -9.008369 -1.450000
v 12.959657 -9.994455 -1.450000
v 14.049850 -9.095769 -1.450000
v 13.047954 -10.102046 -1.450000
v 14.138183 -9.202331 -1.450000
v 13.155545 -10.190343 -1.450000
v 14.204162 -9.324007 -1.450000
v 13.278295 -10.255954 -1.450000
v 14.245279 -9.456173 -1.450000
v 13.411486 -10.296357 -1.450000
v 13.550000 -10.310000 -1.450000
v 14.245279 -9.743827 -1.450000
v 13.687754 -10.296508 -1.450000
v 14.204162 -9.875993 -1.450000
v 13.820273 -10.256546 -1.450000
v 14.138183 -9.997669 -1.450000
v 13.942521 -10.191631 -1.450000
v 14.049850 -10.104231 -1.450000
v 14.284450 -9.448070 -1.410000
v 14.241016 -9.308459 -1.410000
v 14.171320 -9.179927 -1.410000
v 14.078011 -9.067361 -1.410000
v 13.964635 -8.975038 -1.410000
v 13.835500 -8.906466 -1.410000
v 13.695515 -8.864252 -1.410000
v 13.550000 -8.850000 -1.410000
v 13.404485 -8.864252 -1.410000
v 13.264500 -8.906466 -1.410000
v 13.135365 -8.975038 -1.410000
v 13.021989 -9.067361 -1.410000
v 12.928680 -9.179927 -1.410000
v 12.858984 -9.308459 -1.410000
v 12.815550 -9.448070 -1.410000
v 12.800029 -9.593455 -1.410000
v 12.813315 -9.740697 -1.410000
v 12.855227 -9.882471 -1.410000
v 12.924134 -10.013270 -1.410000
v 13.017361 -10.128011 -1.410000
v 13.131284 -10.222235 -1.410000
v 13.261476 -10.292282 -1.410000
v 13.402880 -10.335429 -1.410000
v 13.550000 -10.350000 -1.410000
v 13.695515 -10.335748 -1.410000
v 13.835500 -10.293534 -1.410000
v 13.964635 -10.224962 -1.410000
v 14.078011 -10.132639 -1.410000
v 14.171320 -10.020073 -1.410000
v 14.241016 -9.891541 -1.410000
v 14.284450 -9.751930 -1.410000
v 14.284450 -9.751930 -1.320171
v 14.241016 -9.891541 -1.320171
v 14.171320 -10.020073 -1.320171
v 14.078011 -10.132639 -1.320171
v 13.964635 -10.224962 -1.320171
v 13.835500 -10.293534 -1.320171
v 13.695515 -10.335748 -1.320171
v 13.550000 -10.350000 -1.320171
v 13.404485 -10.335748 -1.320171
v 13.264500 -10.293534 -1.320171
v 13.135365 -10.224962 -1.320171
v 13.021989 -10.132639 -1.320171
v 12.928680 -10.020073 -1.320171
v 12.858984 -9.891541 -1.320171
v 12.815550 -9.751930 -1.320171
v 12.800029 -9.606545 -1.320171
v 12.800003 -9.602182 -1.320171
v 12.800003 -9.597818 -1.320171
v 12.800029 -9.593455 -1.320171
v 12.815550 -9.448070 -1.320171
v 12.858984 -9.308459 -1.320171
v 12.928680 -9.179927 -1.320171
v 13.021989 -9.067361 -1.320171
v 13.135365 -8.975038 -1.320171
v 13.264500 -8.906466 -1.320171
v 13.404485 -8.864252 -1.320171
v 13.550000 -8.850000 -1.320171
v 13.695515 -8.864252 -1.320171
v 13.835500 -8.906466 -1.320171
v 13.964635 -8.975038 -1.320171
v 14.078011 -9.067361 -1.320171
v 14.171320 -9.179927 -1.320171
v 14.241016 -9.308459 -1.320171
v 14.284450 -9.448070 -1.320171
v 14.233471 -9.750688 -1.245000
v 14.187543 -9.888755 -1.245000
v 14.114058 -10.014342 -1.245000
v 14.016193 -10.122019 -1.245000
v 13.898178 -10.207134 -1.245000
v 13.765115 -10.266007 -1.245000
v 13.622753 -10.296094 -1.245000
v 13.477247 -10.296094 -1.245000
v 13.334885 -10.266007 -1.245000
v 13.201822 -10.207134 -1.245000
v 13.083807 -10.122019 -1.245000
v 12.985942 -10.014342 -1.245000
v 12.912457 -9.888755 -1.245000
v 12.866529 -9.750688 -1.245000
v 12.850141 -9.606108 -1.245000
v 12.864165 -9.460465 -1.245000
v 12.908163 -9.320921 -1.245000
v 12.980212 -9.193574 -1.245000
v 13.077164 -9.083990 -1.245000
v 13.194781 -8.996958 -1.245000
v 13.327923 -8.936282 -1.245000
v 13.470771 -8.904613 -1.245000
v 13.617081 -8.903336 -1.245000
v 13.760460 -8.932507 -1.245000
v 13.894640 -8.990850 -1.245000
v 14.013758 -9.075817 -1.245000
v 14.112608 -9.183692 -1.245000
v 14.186869 -9.309762 -1.245000
v 14.233296 -9.448517 -1.245000
v 14.233471 -9.750688 -1.215000
v 14.187543 -9.888755 -1.215000
v 14.114058 -10.014342 -1.215000
v 14.016193 -10.122019 -1.215000
v 13.898178 -10.207134 -1.215000
v 13.765115 -10.266007 -1.215000
v 13.622753 -10.296094 -1.215000
v 13.477247 -10.296094 -1.215000
v 13.334885 -10.266007 -1.215000
v 13.201822 -10.207134 -1.215000
v 13.083807 -10.122019 -1.215000
v 12.985942 -10.014342 -1.215000
v 12.912457 -9.888755 -1.215000
v 12.866529 -9.750688 -1.215000
v 12.850141 -9.606108 -1.215000
v 12.864165 -9.460465 -1.215000
v 12.908163 -9.320921 -1.215000
v 12.980212 -9.193574 -1.215000
v 13.077164 -9.083990 -1.215000
v 13.194781 -8.996958 -1.215000
v 13.327923 -8.936282 -1.215000
v 13.470771 -8.904613 -1.215000
v 13.617081 -8.903336 -1.215000
v 13.760460 -8.932507 -1.215000
v 13.894640 -8.990850 -1.215000
v 14.013758 -9.075817 -1.215000
v 14.112608 -9.183692 -1.215000
v 14.186869 -9.309762 -1.215000
v 14.233296 -9.448517 -1.215000
v 13.687801 -10.350000 -0.854175
v 13.412199 -10.350000 -0.854175
v 13.550001 -10.350000 -0.857519
v 13.550000 -10.362554 -0.854175
v 13.684802 -10.350545 -0.854175
v 12.769376 -9.425000 -0.880000
v 12.800000 -9.425000 -0.880000
v 12.780124 -9.426587 -0.870393
v 12.800000 -9.429832 -0.852839
v 12.780829 -9.426746 -0.860419
v 12.790816 -9.428181 -0.871567
v 12.800000 -9.429455 -0.880000
v 12.792221 -9.428499 -0.861671
v 12.800000 -9.775000 -0.880000
v 12.800000 -9.770168 -0.852839
v 12.800000 -9.770545 -0.880000
v 12.800000 -9.685242 -0.856109
v 12.800000 -9.606545 -0.857510
v 12.800000 -9.521718 -0.856319
v 12.769374 -9.775000 -0.880000
v 12.790816 -9.771819 -0.871567
v 12.792221 -9.771501 -0.861671
v 12.780124 -9.773413 -0.870393
v 12.780829 -9.773254 -0.860419
v 12.785093 -9.520162 -0.852839
v 12.799249 -9.521639 -0.856111
v 12.780967 -9.606711 -0.852839
v 12.795200 -9.606587 -0.856111
v 12.783356 -9.660945 -0.852839
v 13.764945 -9.600000 -0.854513
v 13.624589 -9.592160 -1.030000
v 13.625000 -9.600000 -1.030000
v 13.629513 -9.600000 -0.989946
v 13.335055 -9.600000 -0.854513
v 13.760248 -9.555311 -0.854513
v 13.723035 -9.563221 -0.867826
v 13.726900 -9.600000 -0.867826
v 13.733271 -9.487692 -0.854513
v 13.689651 -9.570316 -0.889271
v 13.692771 -9.600000 -0.889271
v 13.701990 -9.448011 -0.854513
v 13.700832 -9.507570 -0.867826
v 13.661773 -9.576242 -0.917772
v 13.664270 -9.600000 -0.917772
v 13.662309 -9.416729 -0.854513
v 13.675088 -9.474913 -0.867826
v 13.671733 -9.525402 -0.889271
v 13.616422 -9.395575 -0.854513
v 13.640797 -9.580701 -0.951901
v 13.642825 -9.600000 -0.951901
v 13.642430 -9.449168 -0.867826
v 13.650955 -9.499046 -0.889271
v 13.647431 -9.540294 -0.917772
v 13.566865 -9.385717 -0.854513
v 13.604665 -9.431758 -0.867826
v 13.627775 -9.583468 -0.989946
v 13.623361 -9.584407 -1.030000
v 13.621329 -9.576824 -1.030000
v 13.624598 -9.478268 -0.889271
v 13.630801 -9.519199 -0.917772
v 13.629147 -9.551499 -0.951901
v 13.516375 -9.387701 -0.854513
v 13.563880 -9.423645 -0.867826
v 13.594119 -9.464216 -0.889271
v 13.609706 -9.502569 -0.917772
v 13.615638 -9.534363 -0.951901
v 13.617796 -9.558455 -0.989946
v 13.613948 -9.560813 -1.030000
v 13.467744 -9.401416 -0.854513
v 13.522327 -9.425278 -0.867826
v 13.561202 -9.457669 -0.889271
v 13.585312 -9.491323 -0.917772
v 13.598501 -9.520853 -0.951901
v 13.606224 -9.543776 -0.989946
v 13.603033 -9.546967 -1.030000
v 13.423658 -9.426106 -0.854513
v 13.482303 -9.436565 -0.867826
v 13.527666 -9.458986 -0.889271
v 13.558966 -9.486082 -0.917772
v 13.578685 -9.511718 -0.951901
v 13.591545 -9.532204 -0.989946
v 13.589187 -9.536052 -1.030000
v 13.386554 -9.460404 -0.854513
v 13.446021 -9.456885 -0.867826
v 13.495364 -9.468096 -0.889271
v 13.532124 -9.487137 -0.917772
v 13.557283 -9.507461 -0.951901
v 13.574571 -9.524379 -0.989946
v 13.573176 -9.528671 -1.030000
v 13.358482 -9.502417 -0.854513
v 13.415484 -9.485112 -0.867826
v 13.466081 -9.484496 -0.889271
v 13.506271 -9.494428 -0.917772
v 13.535479 -9.508317 -0.951901
v 13.556239 -9.520732 -0.989946
v 13.555885 -9.525231 -1.030000
v 13.340994 -9.549822 -0.854513
v 13.392381 -9.519689 -0.867826
v 13.441436 -9.507277 -0.889271
v 13.482834 -9.507554 -0.917772
v 13.514477 -9.514240 -0.951901
v 13.537562 -9.521466 -0.989946
v 13.538267 -9.525923 -1.030000
v 13.377988 -9.558703 -0.867826
v 13.373100 -9.600000 -0.867826
v 13.422790 -9.535183 -0.889271
v 13.463108 -9.525788 -0.917772
v 13.495439 -9.524903 -0.951901
v 13.519572 -9.526540 -0.989946
v 13.521299 -9.530709 -1.030000
v 13.411173 -9.566671 -0.889271
v 13.407229 -9.600000 -0.889271
v 13.448185 -9.548122 -0.917772
v 13.479415 -9.539715 -0.951901
v 13.503264 -9.535673 -0.989946
v 13.505916 -9.539324 -1.030000
v 13.438887 -9.573324 -0.917772
v 13.435730 -9.600000 -0.917772
v 13.467292 -9.557858 -0.951901
v 13.489538 -9.548360 -0.989946
v 13.492970 -9.551291 -1.030000
v 13.459739 -9.578330 -0.951901
v 13.457175 -9.600000 -0.951901
v 13.479153 -9.563902 -0.989946
v 13.483175 -9.565951 -1.030000
v 13.472684 -9.581438 -0.989946
v 13.470487 -9.600000 -0.989946
v 13.475000 -9.600000 -1.030000
v 13.477072 -9.582492 -1.030000
v 13.475411 -9.607840 -1.030000
v 13.622928 -9.617508 -1.030000
v 13.339752 -9.644689 -0.854513
v 13.376965 -9.636779 -0.867826
v 13.366729 -9.712308 -0.854513
v 13.410349 -9.629684 -0.889271
v 13.398010 -9.751989 -0.854513
v 13.399168 -9.692430 -0.867826
v 13.438227 -9.623758 -0.917772
v 13.437691 -9.783271 -0.854513
v 13.424912 -9.725087 -0.867826
v 13.428267 -9.674598 -0.889271
v 13.483578 -9.804425 -0.854513
v 13.459203 -9.619299 -0.951901
v 13.457570 -9.750832 -0.867826
v 13.449045 -9.700954 -0.889271
v 13.452569 -9.659706 -0.917772
v 13.533135 -9.814283 -0.854513
v 13.495335 -9.768242 -0.867826
v 13.472225 -9.616532 -0.989946
v 13.476639 -9.615593 -1.030000
v 13.478671 -9.623176 -1.030000
v 13.475402 -9.721732 -0.889271
v 13.469199 -9.680801 -0.917772
v 13.470853 -9.648501 -0.951901
v 13.583625 -9.812299 -0.854513
v 13.536120 -9.776355 -0.867826
v 13.505881 -9.735784 -0.889271
v 13.490294 -9.697431 -0.917772
v 13.484362 -9.665637 -0.951901
v 13.482204 -9.641545 -0.989946
v 13.486052 -9.639187 -1.030000
v 13.632256 -9.798584 -0.854513
v 13.577673 -9.774722 -0.867826
v 13.538798 -9.742331 -0.889271
v 13.514688 -9.708677 -0.917772
v 13.501499 -9.679147 -0.951901
v 13.493776 -9.656224 -0.989946
v 13.496967 -9.653033 -1.030000
v 13.676342 -9.773894 -0.854513
v 13.617697 -9.763435 -0.867826
v 13.572334 -9.741014 -0.889271
v 13.541034 -9.713918 -0.917772
v 13.521315 -9.688282 -0.951901
v 13.508455 -9.667796 -0.989946
v 13.510813 -9.663948 -1.030000
v 13.713446 -9.739596 -0.854513
v 13.653979 -9.743115 -0.867826
v 13.604636 -9.731904 -0.889271
v 13.567876 -9.712863 -0.917772
v 13.542717 -9.692539 -0.951901
v 13.525429 -9.675621 -0.989946
v 13.526824 -9.671329 -1.030000
v 13.741518 -9.697583 -0.854513
v 13.684516 -9.714888 -0.867826
v 13.633919 -9.715504 -0.889271
v 13.593729 -9.705572 -0.917772
v 13.564521 -9.691683 -0.951901
v 13.543761 -9.679268 -0.989946
v 13.544115 -9.674769 -1.030000
v 13.759006 -9.650178 -0.854513
v 13.707619 -9.680311 -0.867826
v 13.658564 -9.692723 -0.889271
v 13.617166 -9.692446 -0.917772
v 13.585523 -9.685760 -0.951901
v 13.562438 -9.678534 -0.989946
v 13.561733 -9.674077 -1.030000
v 13.722012 -9.641297 -0.867826
v 13.677210 -9.664817 -0.889271
v 13.636892 -9.674212 -0.917772
v 13.604561 -9.675097 -0.951901
v 13.580428 -9.673460 -0.989946
v 13.578701 -9.669291 -1.030000
v 13.688827 -9.633329 -0.889271
v 13.651815 -9.651878 -0.917772
v 13.620585 -9.660285 -0.951901
v 13.596736 -9.664327 -0.989946
v 13.594084 -9.660676 -1.030000
v 13.661113 -9.626676 -0.917772
v 13.632708 -9.642142 -0.951901
v 13.610462 -9.651640 -0.989946
v 13.607030 -9.648709 -1.030000
v 13.640261 -9.621670 -0.951901
v 13.620847 -9.636098 -0.989946
v 13.616825 -9.634049 -1.030000
v 13.627316 -9.618562 -0.989946
v 13.475000 -9.600000 -1.250000
v 13.477179 -9.617949 -1.250000
v 13.483591 -9.634854 -1.250000
v 13.493862 -9.649734 -1.250000
v 13.507395 -9.661724 -1.250000
v 13.523405 -9.670126 -1.250000
v 13.540960 -9.674453 -1.250000
v 13.559040 -9.674453 -1.250000
v 13.576595 -9.670126 -1.250000
v 13.592605 -9.661724 -1.250000
v 13.606138 -9.649734 -1.250000
v 13.616409 -9.634854 -1.250000
v 13.622821 -9.617949 -1.250000
v 13.625000 -9.600000 -1.250000
v 13.477179 -9.582051 -1.250000
v 13.483591 -9.565146 -1.250000
v 13.493862 -9.550266 -1.250000
v 13.507395 -9.538276 -1.250000
v 13.523405 -9.529874 -1.250000
v 13.540960 -9.525547 -1.250000
v 13.559040 -9.525547 -1.250000
v 13.576595 -9.529874 -1.250000
v 13.592605 -9.538276 -1.250000
v 13.606138 -9.550266 -1.250000
v 13.616409 -9.565146 -1.250000
v 13.622821 -9.582051 -1.250000
v 13.687801 -8.850000 -0.854175
v 13.549999 -8.850000 -0.857519
v 13.412199 -8.850000 -0.854175
v 13.550000 -8.837446 -0.854175
v 13.415198 -8.849455 -0.854175
f 1 2 3
f 4 2 1
f 5 1 6
f 5 7 1
f 3 8 1
f 1 8 6
f 9 10 3
f 3 10 8
f 4 7 11
f 4 1 7
f 4 12 2
f 11 12 4
f 12 9 2
f 2 9 3
f 13 14 15
f 13 16 14
f 13 17 16
f 13 18 17
f 13 19 18
f 13 20 19
f 21 20 13
f 22 23 21
f 24 13 25
f 26 23 22
f 27 21 13
f 27 13 24
f 27 22 21
f 28 24 25
f 29 25 30
f 29 28 25
f 31 23 26
f 32 30 33
f 32 29 30
f 34 32 33
f 35 34 33
f 36 34 35
f 37 36 35
f 38 37 35
f 38 39 37
f 40 22 27
f 41 22 40
f 42 23 31
f 42 43 44
f 42 31 43
f 45 40 27
f 46 22 41
f 47 45 27
f 48 39 38
f 49 22 46
f 50 47 27
f 51 50 39
f 52 42 44
f 53 51 39
f 54 53 39
f 55 39 48
f 55 54 39
f 56 44 57
f 58 59 60
f 61 62 63
f 64 58 60
f 65 55 48
f 66 44 56
f 67 61 68
f 69 61 67
f 69 62 61
f 69 70 62
f 71 72 64
f 71 73 72
f 74 75 70
f 74 70 69
f 5 64 60
f 5 71 64
f 5 60 52
f 76 77 75
f 76 75 74
f 78 65 48
f 78 48 77
f 78 76 79
f 78 77 76
f 78 80 65
f 78 81 80
f 7 5 52
f 7 82 83
f 7 66 82
f 7 44 66
f 7 52 44
f 7 84 85
f 7 86 84
f 7 83 86
f 87 78 79
f 88 87 79
f 89 90 91
f 89 92 90
f 89 93 92
f 9 7 85
f 9 94 93
f 9 95 94
f 9 85 95
f 9 93 89
f 12 11 7
f 12 7 9
f 96 9 89
f 97 98 88
f 97 89 98
f 97 88 79
f 97 96 89
f 10 96 99
f 10 9 96
f 100 99 101
f 100 10 99
f 102 103 100
f 102 104 105
f 102 101 104
f 102 100 101
f 78 89 106
f 106 89 91
f 78 106 81
f 27 39 50
f 44 22 107
f 107 22 49
f 44 107 57
f 108 109 20
f 108 20 21
f 60 110 52
f 111 110 60
f 111 109 108
f 111 108 110
f 110 108 112
f 112 108 113
f 42 52 112
f 112 52 110
f 112 113 23
f 112 23 42
f 113 21 23
f 113 108 21
f 19 20 109
f 19 109 114
f 18 114 115
f 18 19 114
f 17 115 116
f 17 18 115
f 16 116 117
f 16 17 116
f 14 117 118
f 14 16 117
f 15 118 119
f 15 14 118
f 13 119 120
f 13 15 119
f 121 122 38
f 121 38 35
f 123 122 121
f 13 123 25
f 120 123 13
f 120 122 123
f 35 33 121
f 121 33 124
f 121 124 123
f 123 124 125
f 123 125 30
f 123 30 25
f 125 124 33
f 125 33 30
f 122 126 38
f 38 126 48
f 127 6 128
f 128 111 129
f 129 111 130
f 130 111 131
f 131 111 132
f 6 111 128
f 6 133 111
f 6 134 133
f 133 135 111
f 6 136 134
f 135 137 111
f 6 138 136
f 137 139 111
f 6 140 138
f 139 141 111
f 142 143 140
f 142 144 143
f 145 146 147
f 147 146 148
f 149 150 145
f 145 150 146
f 148 151 152
f 146 151 148
f 153 154 149
f 149 154 150
f 152 155 156
f 151 155 152
f 153 157 154
f 143 157 153
f 144 157 143
f 155 158 156
f 156 158 159
f 144 160 157
f 161 160 144
f 159 162 163
f 158 162 159
f 161 164 160
f 165 164 161
f 162 166 163
f 163 166 167
f 165 168 164
f 169 168 165
f 142 8 170
f 170 8 171
f 171 8 172
f 173 109 174
f 174 109 175
f 175 109 141
f 141 109 111
f 176 177 8
f 109 115 114
f 167 178 179
f 166 178 167
f 173 180 109
f 181 182 177
f 115 117 116
f 8 183 172
f 169 184 168
f 115 118 117
f 185 186 182
f 182 186 177
f 115 119 118
f 177 187 8
f 186 187 177
f 8 187 183
f 109 120 115
f 180 120 109
f 115 120 119
f 169 188 184
f 178 189 179
f 190 189 178
f 180 191 120
f 187 192 183
f 184 193 194
f 188 193 184
f 190 195 189
f 196 195 190
f 191 197 120
f 194 198 199
f 193 198 194
f 187 200 192
f 196 201 195
f 202 201 196
f 199 203 204
f 198 203 199
f 197 205 120
f 187 206 200
f 202 207 201
f 208 207 202
f 204 209 210
f 203 209 204
f 208 211 207
f 212 211 208
f 205 213 120
f 209 214 210
f 210 214 215
f 212 216 211
f 217 216 212
f 215 218 219
f 214 218 215
f 217 220 216
f 218 221 219
f 217 221 220
f 219 221 217
f 222 126 223
f 223 122 224
f 224 122 213
f 126 122 223
f 213 122 120
f 225 226 222
f 222 226 126
f 227 228 229
f 226 228 230
f 229 228 231
f 231 228 225
f 225 228 226
f 228 232 230
f 233 234 228
f 228 234 232
f 232 235 236
f 234 235 232
f 237 238 234
f 234 238 235
f 187 228 239
f 187 239 206
f 239 228 227
f 6 8 140
f 140 8 142
f 77 48 126
f 77 126 226
f 75 226 230
f 75 77 226
f 230 232 70
f 230 70 75
f 62 70 232
f 62 232 236
f 63 236 235
f 63 62 236
f 61 235 238
f 61 63 235
f 68 238 237
f 68 61 238
f 67 237 234
f 67 68 237
f 69 234 233
f 69 67 234
f 74 233 228
f 74 69 233
f 99 240 187
f 99 96 240
f 241 228 240
f 240 228 187
f 76 74 241
f 241 74 228
f 240 242 241
f 243 242 240
f 241 242 79
f 241 79 76
f 97 79 243
f 243 79 242
f 96 97 240
f 240 97 243
f 101 99 187
f 101 187 186
f 104 186 185
f 104 101 186
f 105 185 182
f 105 104 185
f 102 182 181
f 102 105 182
f 103 181 177
f 103 102 181
f 100 177 176
f 100 103 177
f 10 176 8
f 10 100 176
f 71 5 6
f 71 6 127
f 73 127 128
f 73 71 127
f 72 128 129
f 72 73 128
f 64 129 130
f 64 72 129
f 58 130 131
f 58 64 130
f 59 131 132
f 59 58 131
f 60 132 111
f 60 59 132
f 244 245 158
f 244 158 155
f 246 155 151
f 246 244 155
f 247 151 146
f 247 246 151
f 248 146 150
f 248 247 146
f 249 150 154
f 249 248 150
f 250 154 157
f 250 249 154
f 251 157 160
f 251 250 157
f 252 160 164
f 252 251 160
f 253 164 168
f 253 252 164
f 254 168 184
f 254 253 168
f 255 184 194
f 255 254 184
f 256 194 199
f 256 255 194
f 257 199 204
f 257 256 199
f 258 257 204
f 259 258 204
f 260 259 204
f 261 260 204
f 261 204 210
f 262 210 215
f 262 261 210
f 263 215 219
f 263 262 215
f 264 219 217
f 264 263 219
f 265 217 212
f 265 264 217
f 266 212 208
f 266 265 212
f 267 208 202
f 267 266 208
f 268 202 196
f 268 267 202
f 269 196 190
f 269 268 196
f 270 190 178
f 270 269 190
f 271 178 166
f 271 270 178
f 272 166 162
f 272 271 166
f 273 162 158
f 273 272 162
f 274 273 158
f 275 274 158
f 245 275 158
f 261 276 260
f 277 275 245
f 277 274 275
f 277 273 274
f 278 279 280
f 281 278 280
f 282 281 280
f 283 276 261
f 284 285 276
f 284 276 283
f 286 261 262
f 286 283 261
f 287 288 285
f 287 285 284
f 289 283 286
f 289 284 283
f 290 291 288
f 290 288 287
f 292 262 263
f 292 286 262
f 293 287 284
f 293 284 289
f 294 295 291
f 294 291 290
f 296 289 286
f 296 286 292
f 297 290 287
f 297 287 293
f 298 299 295
f 298 300 299
f 298 301 300
f 298 295 294
f 302 263 264
f 302 292 263
f 303 289 296
f 303 293 289
f 304 290 297
f 304 294 290
f 305 296 292
f 305 292 302
f 306 297 293
f 306 293 303
f 307 298 294
f 307 294 304
f 307 308 301
f 307 301 298
f 309 264 265
f 309 302 264
f 310 303 296
f 310 296 305
f 311 304 297
f 311 297 306
f 312 302 309
f 312 305 302
f 313 303 310
f 313 306 303
f 314 307 304
f 314 304 311
f 314 315 308
f 314 308 307
f 316 265 266
f 316 309 265
f 317 310 305
f 317 305 312
f 318 311 306
f 318 306 313
f 319 312 309
f 319 309 316
f 320 313 310
f 320 310 317
f 321 322 315
f 321 311 318
f 321 315 314
f 321 314 311
f 323 266 267
f 323 316 266
f 324 317 312
f 324 312 319
f 325 313 320
f 325 318 313
f 326 316 323
f 326 319 316
f 327 317 324
f 327 320 317
f 328 329 322
f 328 322 321
f 328 321 318
f 328 318 325
f 330 267 268
f 330 323 267
f 331 324 319
f 331 319 326
f 332 325 320
f 332 320 327
f 333 326 323
f 333 323 330
f 334 327 324
f 334 324 331
f 335 325 332
f 335 336 329
f 335 329 328
f 335 328 325
f 337 268 269
f 337 330 268
f 338 331 326
f 338 326 333
f 339 327 334
f 339 332 327
f 340 330 337
f 340 333 330
f 341 331 338
f 341 334 331
f 342 336 335
f 342 332 339
f 342 343 336
f 342 335 332
f 344 269 270
f 344 337 269
f 345 333 340
f 345 338 333
f 346 339 334
f 346 334 341
f 347 337 344
f 347 340 337
f 348 341 338
f 348 338 345
f 349 339 346
f 349 342 339
f 349 343 342
f 349 350 343
f 351 270 271
f 351 344 270
f 352 345 340
f 352 340 347
f 353 346 341
f 353 341 348
f 354 344 351
f 354 347 344
f 355 348 345
f 355 345 352
f 356 357 350
f 356 349 346
f 356 350 349
f 356 346 353
f 358 272 273
f 358 273 277
f 358 271 272
f 358 351 271
f 359 352 347
f 359 347 354
f 360 353 348
f 360 348 355
f 361 351 358
f 361 358 277
f 361 277 362
f 361 354 351
f 363 352 359
f 363 355 352
f 364 365 357
f 364 357 356
f 364 353 360
f 364 356 353
f 366 367 368
f 366 362 367
f 366 359 354
f 366 361 362
f 366 354 361
f 369 360 355
f 369 355 363
f 370 363 359
f 370 366 368
f 370 359 366
f 371 372 365
f 371 365 364
f 371 364 360
f 371 360 369
f 373 368 374
f 373 370 368
f 373 369 363
f 373 363 370
f 375 371 369
f 375 374 280
f 375 280 279
f 375 279 376
f 375 376 372
f 375 369 373
f 375 372 371
f 375 373 374
f 377 300 378
f 378 300 379
f 278 376 279
f 281 376 278
f 282 376 281
f 379 365 380
f 380 365 381
f 381 365 382
f 382 365 383
f 383 365 384
f 384 365 385
f 385 365 386
f 386 365 387
f 387 365 388
f 388 365 389
f 389 365 390
f 390 365 391
f 391 365 282
f 376 365 372
f 357 365 350
f 350 365 343
f 343 365 336
f 336 365 329
f 329 365 322
f 322 365 315
f 315 365 308
f 308 365 301
f 301 365 300
f 300 365 379
f 282 365 376
f 276 259 260
f 276 258 259
f 276 257 258
f 378 379 299
f 377 378 299
f 300 377 299
f 392 277 245
f 392 245 244
f 393 362 277
f 393 277 392
f 394 244 246
f 394 392 244
f 395 367 362
f 395 362 393
f 396 392 394
f 396 393 392
f 397 368 367
f 397 367 395
f 398 394 246
f 398 246 247
f 399 393 396
f 399 395 393
f 400 374 368
f 400 368 397
f 401 394 398
f 401 396 394
f 402 397 395
f 402 395 399
f 403 282 280
f 403 280 374
f 403 374 400
f 403 391 282
f 404 247 248
f 404 398 247
f 405 396 401
f 405 399 396
f 406 397 402
f 406 400 397
f 407 401 398
f 407 398 404
f 408 402 399
f 408 399 405
f 409 390 391
f 409 400 406
f 409 391 403
f 409 403 400
f 410 248 249
f 410 404 248
f 411 401 407
f 411 405 401
f 412 402 408
f 412 406 402
f 413 407 404
f 413 404 410
f 414 405 411
f 414 408 405
f 415 389 390
f 415 406 412
f 415 390 409
f 415 409 406
f 416 249 250
f 416 410 249
f 417 411 407
f 417 407 413
f 418 412 408
f 418 408 414
f 419 413 410
f 419 410 416
f 420 414 411
f 420 411 417
f 421 388 389
f 421 415 412
f 421 412 418
f 421 389 415
f 422 250 251
f 422 416 250
f 423 417 413
f 423 413 419
f 424 414 420
f 424 418 414
f 425 419 416
f 425 416 422
f 426 420 417
f 426 417 423
f 427 388 421
f 427 387 388
f 427 418 424
f 427 421 418
f 428 251 252
f 428 422 251
f 429 423 419
f 429 419 425
f 430 420 426
f 430 424 420
f 431 425 422
f 431 422 428
f 432 426 423
f 432 423 429
f 433 424 430
f 433 386 387
f 433 387 427
f 433 427 424
f 434 252 253
f 434 428 252
f 435 425 431
f 435 429 425
f 436 426 432
f 436 430 426
f 437 431 428
f 437 428 434
f 438 429 435
f 438 432 429
f 439 433 430
f 439 430 436
f 439 386 433
f 439 385 386
f 440 434 253
f 440 253 254
f 441 435 431
f 441 431 437
f 442 432 438
f 442 436 432
f 443 434 440
f 443 437 434
f 444 435 441
f 444 438 435
f 445 385 439
f 445 384 385
f 445 436 442
f 445 439 436
f 446 254 255
f 446 440 254
f 447 437 443
f 447 441 437
f 448 438 444
f 448 442 438
f 449 443 440
f 449 440 446
f 450 444 441
f 450 441 447
f 451 383 384
f 451 384 445
f 451 445 442
f 451 442 448
f 452 256 257
f 452 257 276
f 452 255 256
f 452 446 255
f 453 443 449
f 453 447 443
f 454 448 444
f 454 444 450
f 455 276 285
f 455 452 276
f 455 449 446
f 455 446 452
f 456 450 447
f 456 447 453
f 457 382 383
f 457 383 451
f 457 448 454
f 457 451 448
f 458 285 288
f 458 453 449
f 458 455 285
f 458 449 455
f 459 454 450
f 459 450 456
f 460 458 288
f 460 288 291
f 460 456 453
f 460 453 458
f 461 381 382
f 461 382 457
f 461 457 454
f 461 454 459
f 462 459 456
f 462 291 295
f 462 456 460
f 462 460 291
f 463 295 299
f 463 299 379
f 463 379 380
f 463 380 381
f 463 381 461
f 463 461 459
f 463 459 462
f 463 462 295
f 140 143 464
f 143 465 464
f 466 467 468
f 468 467 469
f 469 467 470
f 143 467 465
f 465 467 466
f 471 472 142
f 471 142 170
f 473 170 171
f 473 471 170
f 474 171 172
f 474 473 171
f 475 172 183
f 475 474 172
f 476 183 192
f 476 475 183
f 477 192 200
f 477 476 192
f 478 200 206
f 478 477 200
f 479 478 206
f 479 206 239
f 480 479 239
f 480 239 227
f 481 480 227
f 481 227 229
f 482 481 229
f 482 229 231
f 483 482 231
f 483 231 225
f 484 483 225
f 484 225 222
f 485 484 222
f 485 222 223
f 486 485 223
f 486 223 224
f 487 486 224
f 487 224 213
f 488 487 213
f 489 488 213
f 490 489 213
f 491 490 213
f 491 213 205
f 492 491 205
f 492 205 197
f 493 197 191
f 493 492 197
f 494 191 180
f 494 493 191
f 495 494 180
f 495 180 173
f 496 173 174
f 496 495 173
f 497 174 175
f 497 175 141
f 497 496 174
f 498 141 139
f 498 497 141
f 499 498 139
f 500 139 137
f 500 499 139
f 501 137 135
f 501 500 137
f 502 135 133
f 502 501 135
f 503 133 134
f 503 502 133
f 504 134 136
f 504 503 134
f 505 504 136
f 505 136 138
f 505 138 140
f 464 505 140
f 144 142 472
f 506 144 472
f 507 508 509
f 507 509 510
f 507 510 511
f 507 144 508
f 508 144 506
f 144 507 161
f 161 512 165
f 507 512 161
f 165 513 169
f 512 513 165
f 169 514 188
f 513 514 169
f 188 515 193
f 514 515 188
f 193 516 198
f 515 516 193
f 198 517 203
f 516 517 198
f 517 518 203
f 209 519 214
f 203 519 209
f 518 519 203
f 519 520 214
f 214 520 218
f 218 521 221
f 520 521 218
f 221 522 220
f 521 522 221
f 522 523 220
f 220 524 216
f 523 524 220
f 216 525 211
f 524 525 216
f 211 526 207
f 525 526 211
f 526 527 207
f 201 527 195
f 207 527 201
f 527 528 195
f 195 529 189
f 528 529 195
f 179 530 167
f 189 530 179
f 529 530 189
f 530 531 167
f 163 532 159
f 167 532 163
f 531 532 167
f 532 533 159
f 159 534 156
f 533 534 159
f 156 535 152
f 534 535 156
f 152 536 148
f 535 536 152
f 147 537 145
f 148 537 147
f 536 537 148
f 537 538 145
f 145 539 149
f 538 539 145
f 149 540 153
f 539 540 149
f 153 467 143
f 540 467 153
f 541 530 542
f 542 529 543
f 530 529 542
f 544 531 541
f 541 531 530
f 543 528 545
f 529 528 543
f 546 532 544
f 544 532 531
f 545 527 547
f 528 527 545
f 548 533 546
f 546 533 532
f 547 526 549
f 527 526 547
f 548 534 533
f 548 550 534
f 549 525 551
f 526 525 549
f 550 535 534
f 550 552 535
f 525 553 551
f 525 524 553
f 552 536 535
f 552 554 536
f 524 555 553
f 524 523 555
f 554 537 536
f 554 556 537
f 523 557 555
f 523 522 557
f 556 538 537
f 556 558 538
f 522 559 557
f 522 521 559
f 558 539 538
f 558 560 539
f 521 561 559
f 521 520 561
f 560 540 539
f 560 562 540
f 519 563 520
f 520 563 561
f 562 467 540
f 562 470 467
f 519 564 563
f 518 564 519
f 511 565 507
f 507 565 512
f 517 566 518
f 518 566 564
f 512 567 513
f 565 567 512
f 516 568 517
f 517 568 566
f 513 569 514
f 567 569 513
f 515 570 516
f 516 570 568
f 514 571 515
f 569 571 514
f 515 571 570
f 562 469 470
f 572 469 562
f 560 572 562
f 573 572 560
f 558 573 560
f 574 573 558
f 556 574 558
f 575 574 556
f 554 575 556
f 576 575 554
f 552 576 554
f 577 576 552
f 550 577 552
f 578 577 550
f 548 578 550
f 579 578 548
f 580 579 548
f 580 548 546
f 581 580 546
f 581 546 544
f 582 544 541
f 582 581 544
f 583 541 542
f 583 582 541
f 584 542 543
f 584 583 542
f 585 543 545
f 585 584 543
f 586 545 547
f 586 585 545
f 587 547 549
f 587 586 547
f 588 549 551
f 588 587 549
f 589 551 553
f 589 588 551
f 590 553 555
f 590 589 553
f 591 555 557
f 591 590 555
f 592 557 559
f 592 591 557
f 593 559 561
f 593 592 559
f 594 561 563
f 594 593 561
f 595 563 564
f 595 594 563
f 596 564 566
f 596 595 564
f 597 566 568
f 597 596 566
f 598 568 570
f 598 597 568
f 599 570 571
f 599 598 570
f 600 571 569
f 600 599 571
f 601 569 567
f 601 600 569
f 602 567 565
f 602 601 567
f 511 602 565
f 510 602 511
f 510 509 603
f 602 603 604
f 602 510 603
f 601 604 605
f 601 602 604
f 600 605 606
f 600 601 605
f 599 606 607
f 599 600 606
f 598 607 608
f 598 599 607
f 597 608 609
f 597 598 608
f 596 597 609
f 596 609 610
f 595 596 610
f 595 610 611
f 594 595 611
f 594 611 612
f 593 612 613
f 593 594 612
f 592 613 614
f 592 593 613
f 591 614 615
f 591 592 614
f 590 615 616
f 590 591 615
f 589 616 617
f 589 590 616
f 588 617 618
f 588 589 617
f 587 618 619
f 587 619 620
f 587 620 621
f 587 588 618
f 586 621 622
f 586 587 621
f 585 622 623
f 585 586 622
f 584 623 624
f 584 585 623
f 583 624 625
f 583 584 624
f 582 625 626
f 582 583 625
f 581 626 627
f 581 582 626
f 580 627 628
f 580 581 627
f 579 628 629
f 579 580 628
f 578 629 630
f 578 579 629
f 577 630 631
f 577 578 630
f 576 631 632
f 576 577 631
f 575 632 633
f 575 633 634
f 575 576 632
f 574 575 634
f 573 634 635
f 573 635 636
f 573 574 634
f 572 573 636
f 469 572 636
f 469 636 468
f 603 509 508
f 603 508 637
f 604 637 638
f 604 603 637
f 605 638 639
f 605 604 638
f 606 639 640
f 606 605 639
f 607 640 641
f 607 606 640
f 608 641 642
f 608 607 641
f 609 642 643
f 609 608 642
f 610 609 643
f 610 643 644
f 611 610 644
f 611 644 645
f 612 611 645
f 646 612 645
f 613 612 646
f 647 613 646
f 614 613 647
f 648 614 647
f 615 614 648
f 649 615 648
f 616 615 649
f 650 616 649
f 617 616 650
f 651 617 650
f 618 617 651
f 619 618 651
f 620 619 651
f 621 620 651
f 652 621 651
f 622 621 652
f 623 652 653
f 623 622 652
f 624 653 654
f 624 623 653
f 625 654 655
f 625 624 654
f 626 655 656
f 626 625 655
f 627 656 657
f 627 626 656
f 628 657 658
f 628 627 657
f 629 658 659
f 629 628 658
f 630 659 660
f 630 629 659
f 631 660 661
f 631 630 660
f 632 631 661
f 662 632 661
f 633 632 662
f 663 633 662
f 634 633 663
f 664 634 663
f 635 634 664
f 665 635 664
f 636 635 665
f 466 636 665
f 468 636 466
f 637 508 506
f 637 506 666
f 638 666 667
f 638 637 666
f 639 667 668
f 639 638 667
f 640 668 669
f 640 639 668
f 641 669 670
f 641 640 669
f 642 670 671
f 642 641 670
f 643 671 672
f 643 642 671
f 644 672 673
f 644 643 672
f 645 644 673
f 645 673 674
f 646 645 674
f 646 674 675
f 647 646 675
f 647 675 676
f 648 676 677
f 648 647 676
f 649 677 678
f 649 648 677
f 650 678 679
f 650 649 678
f 651 679 680
f 651 650 679
f 652 680 681
f 652 651 680
f 653 681 682
f 653 652 681
f 654 682 683
f 654 653 682
f 655 683 684
f 655 654 683
f 656 684 685
f 656 655 684
f 657 685 686
f 657 656 685
f 658 686 687
f 658 657 686
f 659 687 688
f 659 658 687
f 660 688 689
f 660 659 688
f 661 689 690
f 661 660 689
f 662 690 691
f 662 661 690
f 663 691 692
f 663 662 691
f 664 692 693
f 664 663 692
f 665 693 694
f 665 664 693
f 466 694 465
f 466 665 694
f 505 464 465
f 505 465 694
f 504 694 693
f 504 505 694
f 503 693 692
f 503 504 693
f 502 692 691
f 502 503 692
f 501 691 690
f 501 502 691
f 500 690 689
f 500 501 690
f 499 689 688
f 499 500 689
f 498 499 688
f 498 688 687
f 497 498 687
f 686 497 687
f 496 497 686
f 685 496 686
f 495 496 685
f 684 495 685
f 494 495 684
f 683 494 684
f 493 494 683
f 682 493 683
f 492 493 682
f 681 492 682
f 491 492 681
f 490 491 681
f 490 681 680
f 489 490 680
f 488 489 680
f 487 488 680
f 486 487 680
f 486 680 679
f 485 486 679
f 485 679 678
f 484 485 678
f 484 678 677
f 483 484 677
f 483 677 676
f 482 483 676
f 482 676 675
f 481 482 675
f 481 675 674
f 480 674 673
f 480 481 674
f 479 673 672
f 479 480 673
f 478 672 671
f 478 479 672
f 477 478 671
f 670 477 671
f 476 477 670
f 669 476 670
f 475 476 669
f 668 475 669
f 474 475 668
f 667 474 668
f 473 474 667
f 666 473 667
f 471 473 666
f 506 471 666
f 472 471 506
f 89 78 695
f 695 78 696
f 695 696 697
f 696 78 87
f 89 695 98
f 698 87 88
f 698 697 696
f 698 696 87
f 699 88 98
f 699 695 697
f 699 698 88
f 699 697 698
f 699 98 695
f 27 700 701
f 27 24 700
f 24 702 700
f 703 704 24
f 24 704 702
f 700 705 706
f 702 705 700
f 706 707 703
f 702 707 705
f 703 707 704
f 704 707 702
f 705 707 706
f 708 39 709
f 710 708 709
f 711 709 39
f 712 711 39
f 27 713 712
f 27 703 713
f 27 712 39
f 701 706 703
f 701 703 27
f 706 701 700
f 708 37 39
f 708 714 37
f 710 715 714
f 709 716 710
f 710 716 715
f 715 717 714
f 714 718 37
f 37 718 709
f 715 718 717
f 709 718 716
f 716 718 715
f 717 718 714
f 28 703 24
f 711 34 36
f 709 36 37
f 709 711 36
f 719 28 29
f 720 713 703
f 720 28 719
f 720 719 29
f 720 703 28
f 721 29 32
f 722 712 713
f 722 29 721
f 722 720 29
f 722 713 720
f 723 32 34
f 723 711 712
f 723 721 32
f 723 722 721
f 723 712 722
f 723 34 711
f 708 710 714
f 724 85 84
f 725 726 727
f 728 47 50
f 729 84 86
f 729 86 83
f 729 724 84
f 730 724 729
f 730 731 724
f 732 729 83
f 732 83 82
f 733 731 730
f 733 734 731
f 735 82 66
f 735 732 82
f 736 729 732
f 736 730 729
f 737 738 734
f 737 734 733
f 739 735 66
f 739 66 56
f 740 732 735
f 740 736 732
f 741 730 736
f 741 733 730
f 742 56 57
f 742 739 56
f 743 744 738
f 743 738 737
f 745 735 739
f 745 740 735
f 746 741 736
f 746 736 740
f 747 733 741
f 747 737 733
f 748 57 107
f 748 742 57
f 749 745 739
f 749 739 742
f 750 751 725
f 750 752 751
f 750 727 744
f 750 744 743
f 750 725 727
f 753 746 740
f 753 740 745
f 754 741 746
f 754 747 741
f 755 737 747
f 755 743 737
f 756 748 107
f 756 107 49
f 757 749 742
f 757 742 748
f 758 745 749
f 758 753 745
f 759 746 753
f 759 754 746
f 760 755 747
f 760 747 754
f 761 762 752
f 761 750 743
f 761 743 755
f 761 752 750
f 763 49 46
f 763 756 49
f 764 757 748
f 764 748 756
f 765 749 757
f 765 758 749
f 766 753 758
f 766 759 753
f 767 754 759
f 767 760 754
f 768 769 762
f 768 755 760
f 768 761 755
f 768 762 761
f 770 46 41
f 770 763 46
f 771 756 763
f 771 764 756
f 772 757 764
f 772 765 757
f 773 758 765
f 773 766 758
f 774 759 766
f 774 767 759
f 775 776 769
f 775 768 760
f 775 760 767
f 775 769 768
f 777 41 40
f 777 770 41
f 778 763 770
f 778 771 763
f 779 764 771
f 779 772 764
f 780 765 772
f 780 773 765
f 781 766 773
f 781 774 766
f 782 783 776
f 782 776 775
f 782 767 774
f 782 775 767
f 784 777 40
f 784 40 45
f 785 770 777
f 785 778 770
f 786 771 778
f 786 779 771
f 787 780 772
f 787 772 779
f 788 773 780
f 788 781 773
f 789 783 782
f 789 790 783
f 789 774 781
f 789 782 774
f 791 47 728
f 791 784 45
f 791 45 47
f 792 784 791
f 792 777 784
f 792 785 777
f 793 786 778
f 793 778 785
f 794 779 786
f 794 787 779
f 795 780 787
f 795 788 780
f 796 797 790
f 796 789 781
f 796 781 788
f 796 790 789
f 798 728 799
f 798 791 728
f 798 792 791
f 800 785 792
f 800 793 785
f 801 786 793
f 801 794 786
f 802 787 794
f 802 795 787
f 803 804 797
f 803 788 795
f 803 796 788
f 803 797 796
f 805 799 806
f 805 798 799
f 805 792 798
f 805 800 792
f 807 793 800
f 807 801 793
f 808 794 801
f 808 802 794
f 809 810 804
f 809 804 803
f 809 795 802
f 809 803 795
f 811 806 812
f 811 807 800
f 811 805 806
f 811 800 805
f 813 801 807
f 813 808 801
f 814 815 810
f 814 802 808
f 814 810 809
f 814 809 802
f 816 812 817
f 816 807 811
f 816 811 812
f 816 813 807
f 818 819 815
f 818 808 813
f 818 815 814
f 818 814 808
f 820 821 822
f 820 817 821
f 820 823 819
f 820 822 823
f 820 818 813
f 820 819 818
f 820 816 817
f 820 813 816
f 728 50 51
f 824 822 821
f 726 825 727
f 826 51 53
f 826 53 54
f 826 728 51
f 827 728 826
f 827 799 728
f 828 826 54
f 828 54 55
f 829 799 827
f 829 806 799
f 830 55 65
f 830 828 55
f 831 826 828
f 831 827 826
f 832 812 806
f 832 806 829
f 833 830 65
f 833 65 80
f 834 828 830
f 834 831 828
f 835 827 831
f 835 829 827
f 836 80 81
f 836 833 80
f 837 817 812
f 837 812 832
f 838 830 833
f 838 834 830
f 839 835 831
f 839 831 834
f 840 829 835
f 840 832 829
f 841 81 106
f 841 836 81
f 842 838 833
f 842 833 836
f 843 844 824
f 843 845 844
f 843 821 817
f 843 817 837
f 843 824 821
f 846 839 834
f 846 834 838
f 847 835 839
f 847 840 835
f 848 832 840
f 848 837 832
f 849 841 106
f 849 106 91
f 850 836 841
f 850 842 836
f 851 846 838
f 851 838 842
f 852 847 839
f 852 839 846
f 853 840 847
f 853 848 840
f 854 855 845
f 854 843 837
f 854 837 848
f 854 845 843
f 856 91 90
f 856 849 91
f 857 850 841
f 857 841 849
f 858 842 850
f 858 851 842
f 859 846 851
f 859 852 846
f 860 853 847
f 860 847 852
f 861 862 855
f 861 848 853
f 861 854 848
f 861 855 854
f 863 90 92
f 863 856 90
f 864 849 856
f 864 857 849
f 865 858 850
f 865 850 857
f 866 851 858
f 866 859 851
f 867 852 859
f 867 860 852
f 868 869 862
f 868 861 853
f 868 853 860
f 868 862 861
f 870 92 93
f 870 863 92
f 871 856 863
f 871 864 856
f 872 857 864
f 872 865 857
f 873 866 858
f 873 858 865
f 874 859 866
f 874 867 859
f 875 876 869
f 875 869 868
f 875 860 867
f 875 868 860
f 877 870 93
f 877 93 94
f 878 871 863
f 878 863 870
f 879 864 871
f 879 872 864
f 880 873 865
f 880 865 872
f 881 874 866
f 881 866 873
f 882 883 876
f 882 867 874
f 882 875 867
f 882 876 875
f 884 85 724
f 884 877 94
f 884 94 95
f 884 95 85
f 885 870 877
f 885 878 870
f 886 871 878
f 886 879 871
f 887 880 872
f 887 872 879
f 888 881 873
f 888 873 880
f 889 890 883
f 889 882 874
f 889 883 882
f 889 874 881
f 891 724 731
f 891 877 884
f 891 884 724
f 891 885 877
f 892 878 885
f 892 886 878
f 893 879 886
f 893 887 879
f 894 880 887
f 894 888 880
f 895 896 890
f 895 881 888
f 895 889 881
f 895 890 889
f 897 731 734
f 897 891 731
f 897 885 891
f 897 892 885
f 898 893 886
f 898 886 892
f 899 887 893
f 899 894 887
f 900 901 896
f 900 896 895
f 900 888 894
f 900 895 888
f 902 734 738
f 902 897 734
f 902 892 897
f 902 898 892
f 903 899 893
f 903 893 898
f 904 905 901
f 904 901 900
f 904 894 899
f 904 900 894
f 906 738 744
f 906 902 738
f 906 898 902
f 906 903 898
f 907 908 905
f 907 899 903
f 907 905 904
f 907 904 899
f 909 744 727
f 909 825 908
f 909 727 825
f 909 908 907
f 909 907 903
f 909 906 744
f 909 903 906
f 910 824 911
f 822 824 910
f 824 844 911
f 911 845 912
f 844 845 911
f 912 855 913
f 845 855 912
f 913 862 914
f 855 862 913
f 914 869 915
f 862 869 914
f 915 876 916
f 869 876 915
f 916 883 917
f 876 883 916
f 917 890 918
f 883 890 917
f 918 896 919
f 890 896 918
f 919 901 920
f 896 901 919
f 920 905 921
f 901 905 920
f 921 908 922
f 905 908 921
f 922 825 923
f 908 825 922
f 825 726 923
f 920 924 910
f 920 925 924
f 920 926 925
f 920 927 926
f 920 928 927
f 920 929 928
f 920 930 929
f 920 931 930
f 920 932 931
f 920 933 932
f 920 934 933
f 920 935 934
f 920 923 935
f 920 922 923
f 920 921 922
f 920 918 919
f 920 917 918
f 920 916 917
f 920 915 916
f 920 914 915
f 920 913 914
f 920 912 913
f 920 911 912
f 920 910 911
f 923 725 935
f 726 725 923
f 725 751 935
f 935 752 934
f 751 752 935
f 934 762 933
f 752 762 934
f 933 769 932
f 762 769 933
f 932 776 931
f 769 776 932
f 931 783 930
f 776 783 931
f 930 790 929
f 783 790 930
f 929 797 928
f 790 797 929
f 928 804 927
f 797 804 928
f 927 810 926
f 804 810 927
f 926 815 925
f 810 815 926
f 925 819 924
f 815 819 925
f 924 823 910
f 819 823 924
f 823 822 910
f 936 937 938
f 44 938 22
f 44 936 938
f 936 44 43
f 22 938 26
f 939 43 31
f 939 937 936
f 939 936 43
f 940 31 26
f 940 938 937
f 940 939 31
f 940 937 939
f 940 26 938
