# smartdrone2 body-local mesh, millimetres
v -21.000000 -198.339835 -124.070176
v -21.000000 -201.996454 -123.302273
v -21.000000 -199.541113 -125.730248
v -21.000000 -202.907707 -124.109572
v -21.000000 -201.104765 -127.054596
v -21.000000 -197.570744 -122.170859
v -21.000000 -201.304881 -122.300355
v -21.000000 -203.985679 -124.675335
v -21.000000 -202.939918 -127.966255
v -21.000000 -197.278539 -120.142676
v -21.000000 -200.873177 -121.162047
v -21.000000 -205.167723 -124.966683
v -21.000000 -204.939919 -128.412241
v -21.000000 -197.480200 -118.103500
v -21.000000 -200.726433 -119.953503
v -21.000000 -206.385144 -124.966683
v -21.000000 -206.988535 -128.366636
v -21.000000 -198.164008 -116.171839
v -21.000000 -200.873177 -118.744959
v -21.000000 -207.567188 -124.675335
v -21.000000 -208.966708 -127.832091
v -21.000000 -201.304881 -117.606651
v -21.000000 -208.645160 -124.109572
v -21.000000 -210.759474 -126.839671
v -21.000000 -199.290223 -114.459955
v -21.000000 -201.996454 -116.604734
v -21.000000 -209.556413 -123.302273
v -21.000000 -212.262644 -125.447052
v -21.000000 -200.793393 -113.067336
v -21.000000 -202.907707 -115.797435
v -21.000000 -210.247986 -122.300355
v -21.000000 -213.388859 -123.735167
v -21.000000 -210.679690 -121.162047
v -21.000000 -202.586159 -112.074915
v -21.000000 -203.985679 -115.231671
v -21.000000 -214.072667 -121.803507
v -21.000000 -210.826433 -119.953503
v -21.000000 -204.564332 -111.540370
v -21.000000 -205.167723 -114.940323
v -21.000000 -214.274328 -119.764330
v -21.000000 -210.679690 -118.744959
v -21.000000 -206.612948 -111.494766
v -21.000000 -206.385144 -114.940323
v -21.000000 -210.247986 -117.606651
v -21.000000 -213.982123 -117.736148
v -21.000000 -208.612949 -111.940752
v -21.000000 -207.567188 -115.231671
v -21.000000 -209.556413 -116.604734
v -21.000000 -213.213032 -115.836830
v -21.000000 -210.448101 -112.852411
v -21.000000 -208.645160 -115.797435
v -21.000000 -212.011754 -114.176759
v -114.000000 -200.726433 -119.953503
v -114.000000 -200.873177 -121.162047
v -114.000000 -201.304881 -122.300355
v -114.000000 -201.996454 -123.302273
v -114.000000 -202.907707 -124.109572
v -114.000000 -203.985679 -124.675335
v -114.000000 -205.167723 -124.966683
v -114.000000 -206.385144 -124.966683
v -114.000000 -207.567188 -124.675335
v -114.000000 -208.645160 -124.109572
v -114.000000 -209.556413 -123.302273
v -114.000000 -210.247986 -122.300355
v -114.000000 -210.679690 -121.162047
v -114.000000 -210.826433 -119.953503
v -114.000000 -210.679690 -118.744959
v -114.000000 -210.247986 -117.606651
v -114.000000 -209.556413 -116.604734
v -114.000000 -208.645160 -115.797435
v -114.000000 -207.567188 -115.231671
v -114.000000 -206.385144 -114.940323
v -114.000000 -205.167723 -114.940323
v -114.000000 -203.985679 -115.231671
v -114.000000 -202.907707 -115.797435
v -114.000000 -201.996454 -116.604734
v -114.000000 -201.304881 -117.606651
v -114.000000 -200.873177 -118.744959
v -114.000000 -199.326562 -125.489672
v -114.000000 -200.838876 -126.872356
v -114.000000 -202.638142 -127.852942
v -114.000000 -198.189092 -123.785246
v -114.000000 -204.619795 -128.374441
v -114.000000 -197.492570 -121.858133
v -114.000000 -206.668667 -128.406545
v -114.000000 -197.277477 -119.820329
v -114.000000 -208.665685 -127.947390
v -114.000000 -197.556312 -117.790266
v -114.000000 -210.494791 -127.023659
v -114.000000 -198.312870 -115.885922
v -114.000000 -199.503184 -114.217970
v -114.000000 -212.049683 -125.689036
v -114.000000 -201.058076 -112.883348
v -114.000000 -213.239997 -124.021085
v -114.000000 -202.887182 -111.959617
v -114.000000 -213.996555 -122.116741
v -114.000000 -204.884200 -111.500461
v -114.000000 -214.275390 -120.086677
v -114.000000 -206.933072 -111.532566
v -114.000000 -214.060297 -118.048874
v -114.000000 -208.914725 -112.054065
v -114.000000 -213.363775 -116.121761
v -114.000000 -210.713991 -113.034650
v -114.000000 -212.226305 -114.417335
v -113.222521 -196.302669 -119.805055
v -113.000000 -196.277600 -119.804662
v -113.000000 -196.276952 -119.854273
v -113.000000 -196.276563 -119.903888
v -113.000000 -196.276433 -119.953503
v -113.433884 -196.376619 -119.806213
v -113.000000 -196.587783 -117.541304
v -113.222521 -196.542433 -122.076589
v -113.000000 -196.551118 -122.221443
v -113.433884 -196.614511 -122.060016
v -113.623490 -196.730619 -122.033321
v -113.623490 -196.495741 -119.808080
v -113.781831 -196.884935 -121.997841
v -113.781831 -196.654064 -119.810561
v -113.900969 -197.069719 -121.955355
v -113.900969 -196.843646 -119.813532
v -113.974928 -197.275708 -121.907994
v -113.974928 -197.054983 -119.816843
v -113.222521 -197.318844 -124.224737
v -113.000000 -197.359286 -124.358232
v -113.433884 -197.384862 -124.191396
v -113.623490 -197.491207 -124.137690
v -113.781831 -197.632547 -124.066311
v -113.900969 -197.801795 -123.980838
v -113.974928 -197.990464 -123.885557
v -113.222521 -198.586779 -126.124656
v -113.000000 -198.654204 -126.240303
v -113.433884 -198.642900 -126.076486
v -113.623490 -198.733302 -125.998890
v -113.781831 -198.853453 -125.895760
v -113.900969 -198.997328 -125.772266
v -113.974928 -199.157712 -125.634603
v -113.222521 -200.272551 -127.665931
v -113.000000 -200.360988 -127.758819
v -113.433884 -200.315513 -127.605729
v -113.623490 -200.384718 -127.508753
v -113.781831 -200.476697 -127.379866
v -113.900969 -200.586837 -127.225530
v -113.974928 -200.709616 -127.053484
v -113.222521 -202.278188 -128.758987
v -113.000000 -202.380938 -128.825967
v -113.433884 -202.305495 -128.690253
v -113.623490 -202.349482 -128.579533
v -113.781831 -202.407943 -128.432379
v -113.900969 -202.477948 -128.256170
v -113.974928 -202.555985 -128.059741
v -113.222521 -204.487131 -129.340300
v -113.000000 -204.597244 -129.380036
v -113.433884 -204.497195 -129.267029
v -113.623490 -204.513407 -129.149000
v -113.781831 -204.534953 -128.992131
v -113.900969 -204.560754 -128.804289
v -113.974928 -204.589515 -128.594892
v -113.222521 -206.771003 -129.376087
v -113.000000 -206.881740 -129.388984
v -113.433884 -206.763240 -129.302537
v -113.623490 -206.750734 -129.184058
v -113.781831 -206.734113 -129.026591
v -113.900969 -206.714211 -128.838032
v -113.974928 -206.692024 -128.627837
v -113.222521 -208.997075 -128.864268
v -113.000000 -209.102318 -128.852295
v -113.433884 -208.971935 -128.794713
v -113.623490 -208.931439 -128.682669
v -113.781831 -208.877617 -128.533755
v -113.900969 -208.813168 -128.355439
v -113.974928 -208.741323 -128.156661
v -113.222521 -211.035975 -127.834587
v -113.000000 -211.130566 -127.801004
v -113.433884 -210.994920 -127.773070
v -113.623490 -210.928787 -127.673973
v -113.781831 -210.840891 -127.542267
v -113.900969 -210.735640 -127.384556
v -113.974928 -210.618313 -127.208748
v -113.222521 -212.769209 -126.346887
v -113.000000 -212.849194 -126.295905
v -113.433884 -212.714625 -126.296982
v -113.623490 -212.626698 -126.216591
v -113.781831 -212.509837 -126.109747
v -113.900969 -212.369902 -125.981807
v -113.974928 -212.213910 -125.839186
v -113.222521 -214.096048 -124.487626
v -113.000000 -214.158816 -124.424037
v -113.433884 -214.031107 -124.452234
v -113.623490 -213.926497 -124.395222
v -113.781831 -213.787462 -124.319449
v -113.900969 -213.620976 -124.228715
v -113.974928 -213.435385 -124.127570
v -113.222521 -214.939382 -122.364859
v -113.000000 -214.983699 -122.293645
v -113.433884 -214.867858 -122.346036
v -113.623490 -214.752644 -122.315716
v -113.781831 -214.599516 -122.275418
v -113.900969 -214.416153 -122.227164
v -113.974928 -214.211749 -122.173372
v -113.222521 -215.250198 -120.101952
v -113.000000 -215.276142 -120.027926
v -113.433884 -215.176248 -120.100793
v -113.623490 -215.057126 -120.098927
v -113.781831 -214.898803 -120.096446
v -113.900969 -214.709221 -120.093475
v -113.974928 -214.497884 -120.090164
v -113.222521 -215.010434 -117.830418
v -113.000000 -215.019233 -117.757904
v -113.433884 -214.938356 -117.846990
v -113.623490 -214.822248 -117.873686
v -113.781831 -214.667932 -117.909166
v -113.900969 -214.483148 -117.951652
v -113.974928 -214.277159 -117.999013
v -113.222521 -214.234023 -115.682270
v -113.000000 -214.227829 -115.614850
v -113.433884 -214.168005 -115.715610
v -113.623490 -214.061660 -115.769316
v -113.781831 -213.920320 -115.840696
v -113.900969 -213.751072 -115.926169
v -113.974928 -213.562403 -116.021450
v -113.222521 -212.966088 -113.782350
v -113.000000 -212.947695 -113.722692
v -113.433884 -212.909967 -113.830521
v -113.623490 -212.819565 -113.908117
v -113.781831 -212.699414 -114.011247
v -113.900969 -212.555539 -114.134740
v -113.974928 -212.395155 -114.272404
v -113.222521 -211.280316 -112.241076
v -113.000000 -211.252860 -112.190852
v -113.433884 -211.237354 -112.301277
v -113.623490 -211.168149 -112.398253
v -113.781831 -211.076170 -112.527141
v -113.900969 -210.966029 -112.681477
v -113.974928 -210.843251 -112.853522
v -113.222521 -209.274679 -111.148020
v -113.000000 -209.241332 -111.107912
v -113.433884 -209.247372 -111.216753
v -113.623490 -209.203385 -111.327473
v -113.781831 -209.144924 -111.474627
v -113.900969 -209.074919 -111.650837
v -113.974928 -208.996882 -111.847266
v -113.222521 -207.065736 -110.566706
v -113.000000 -207.029435 -110.536498
v -113.433884 -207.055672 -110.639977
v -113.623490 -207.039460 -110.758007
v -113.781831 -207.017914 -110.914875
v -113.900969 -206.992113 -111.102718
v -113.974928 -206.963352 -111.312115
v -113.222521 -204.781864 -110.530919
v -113.000000 -204.745079 -110.509653
v -113.433884 -204.789627 -110.604470
v -113.623490 -204.802133 -110.722949
v -113.781831 -204.818754 -110.880416
v -113.900969 -204.838656 -111.068974
v -113.974928 -204.860843 -111.279170
v -113.222521 -202.555792 -111.042739
v -113.000000 -202.520364 -111.028930
v -113.433884 -202.580932 -111.112294
v -113.623490 -202.621428 -111.224338
v -113.781831 -202.675250 -111.373251
v -113.900969 -202.739699 -111.551568
v -113.974928 -202.811544 -111.750345
v -113.222521 -200.516892 -112.072419
v -113.000000 -200.483943 -112.064299
v -113.433884 -200.557947 -112.133937
v -113.623490 -200.624080 -112.233034
v -113.781831 -200.711976 -112.364739
v -113.900969 -200.817227 -112.522451
v -113.974928 -200.934554 -112.698259
v -113.222521 -198.783658 -113.560120
v -113.000000 -198.753577 -113.555888
v -113.433884 -198.838242 -113.610025
v -113.623490 -198.926169 -113.690415
v -113.781831 -199.043030 -113.797259
v -113.900969 -199.182965 -113.925199
v -113.974928 -199.338957 -114.067820
v -113.222521 -197.456819 -115.419381
v -113.000000 -197.429331 -115.417440
v -113.433884 -197.521760 -115.454773
v -113.623490 -197.626370 -115.511785
v -113.781831 -197.765405 -115.587557
v -113.900969 -197.931891 -115.678291
v -113.974928 -198.117482 -115.779437
v -113.222521 -196.613485 -117.542148
v -113.433884 -196.685009 -117.560970
v -113.623490 -196.800223 -117.591291
v -113.781831 -196.953351 -117.631588
v -113.900969 -197.136714 -117.679843
v -113.974928 -197.341118 -117.733634
v -35.000000 -196.552486 -122.227002
v -35.000000 -196.276433 -119.953503
v -22.000000 -196.276433 -119.953503
v -22.000000 -196.556392 -122.242791
v -35.000000 -197.364601 -124.368373
v -22.000000 -197.379768 -124.397152
v -35.000000 -198.665581 -126.253169
v -22.000000 -198.698032 -126.289609
v -35.000000 -200.379818 -127.771850
v -22.000000 -200.433488 -127.808625
v -35.000000 -202.407687 -128.836158
v -22.000000 -202.483850 -128.864670
v -35.000000 -204.631335 -129.384238
v -22.000000 -204.728273 -129.395503
v -35.000000 -206.921532 -129.384238
v -22.000000 -207.034473 -129.369837
v -35.000000 -209.145180 -128.836158
v -22.000000 -209.266525 -128.789184
v -35.000000 -211.173049 -127.771850
v -22.000000 -211.292876 -127.687769
v -35.000000 -212.887286 -126.253169
v -22.000000 -212.994096 -126.130505
v -35.000000 -214.188266 -124.368373
v -22.000000 -214.269915 -124.209178
v -35.000000 -215.000381 -122.227002
v -22.000000 -215.045141 -122.037026
v -35.000000 -215.276433 -119.953503
v -22.000000 -215.274080 -119.742075
v -35.000000 -215.000381 -117.680004
v -22.000000 -214.951727 -117.490988
v -35.000000 -214.188266 -115.538633
v -22.000000 -214.103632 -115.381003
v -35.000000 -212.887286 -113.653838
v -22.000000 -212.778391 -113.533021
v -35.000000 -211.173049 -112.135157
v -22.000000 -211.051940 -112.052931
v -35.000000 -209.145180 -111.070849
v -22.000000 -209.023203 -111.025542
v -35.000000 -206.921532 -110.522769
v -22.000000 -206.808427 -110.509723
v -35.000000 -204.631335 -110.522769
v -22.000000 -204.534518 -110.535030
v -35.000000 -202.407687 -111.070849
v -22.000000 -202.331771 -111.100013
v -35.000000 -200.379818 -112.135157
v -22.000000 -200.326402 -112.172298
v -35.000000 -198.665581 -113.653838
v -22.000000 -198.633318 -113.690445
v -35.000000 -197.364601 -115.538633
v -22.000000 -197.349533 -115.567463
v -35.000000 -196.552486 -117.680004
v -22.000000 -196.548607 -117.695800
v -51.000000 -196.276433 -119.953503
v -36.500000 -196.276433 -119.953503
v -36.500000 -196.552486 -122.227002
v -51.000000 -196.552486 -122.227002
v -51.000000 -197.364601 -124.368373
v -36.500000 -197.364601 -124.368373
v -51.000000 -198.665581 -126.253169
v -36.500000 -198.665581 -126.253169
v -51.000000 -200.379818 -127.771850
v -36.500000 -200.379818 -127.771850
v -51.000000 -202.407687 -128.836158
v -36.500000 -202.407687 -128.836158
v -51.000000 -204.631335 -129.384238
v -36.500000 -204.631335 -129.384238
v -36.500000 -206.921532 -129.384238
v -51.000000 -206.921532 -129.384238
v -51.000000 -209.145180 -128.836158
v -36.500000 -209.145180 -128.836158
v -36.500000 -211.173049 -127.771850
v -51.000000 -211.173049 -127.771850
v -51.000000 -212.887286 -126.253169
v -36.500000 -212.887286 -126.253169
v -51.000000 -214.188266 -124.368373
v -36.500000 -214.188266 -124.368373
v -51.000000 -215.000381 -122.227002
v -36.500000 -215.000381 -122.227002
v -51.000000 -215.276433 -119.953503
v -36.500000 -215.276433 -119.953503
v -51.000000 -215.000381 -117.680004
v -36.500000 -215.000381 -117.680004
v -36.500000 -214.188266 -115.538633
v -51.000000 -214.188266 -115.538633
v -51.000000 -212.887286 -113.653838
v -36.500000 -212.887286 -113.653838
v -51.000000 -211.173049 -112.135157
v -36.500000 -211.173049 -112.135157
v -36.500000 -209.145180 -111.070849
v -51.000000 -209.145180 -111.070849
v -51.000000 -206.921532 -110.522769
v -36.500000 -206.921532 -110.522769
v -36.500000 -204.631335 -110.522769
v -51.000000 -204.631335 -110.522769
v -51.000000 -202.407687 -111.070849
v -36.500000 -202.407687 -111.070849
v -51.000000 -200.379818 -112.135157
v -36.500000 -200.379818 -112.135157
v -36.500000 -198.665581 -113.653838
v -51.000000 -198.665581 -113.653838
v -51.000000 -197.364601 -115.538633
v -36.500000 -197.364601 -115.538633
v -36.500000 -196.552486 -117.680004
v -51.000000 -196.552486 -117.680004
v -67.000000 -196.276433 -119.953503
v -52.500000 -196.276433 -119.953503
v -52.500000 -196.552486 -122.227002
v -67.000000 -196.552486 -122.227002
v -67.000000 -197.364601 -124.368373
v -52.500000 -197.364601 -124.368373
v -67.000000 -198.665581 -126.253169
v -52.500000 -198.665581 -126.253169
v -67.000000 -200.379818 -127.771850
v -52.500000 -200.379818 -127.771850
v -67.000000 -202.407687 -128.836158
v -52.500000 -202.407687 -128.836158
v -52.500000 -204.631335 -129.384238
v -67.000000 -204.631335 -129.384238
v -52.500000 -206.921532 -129.384238
v -67.000000 -206.921532 -129.384238
v -67.000000 -209.145180 -128.836158
v -52.500000 -209.145180 -128.836158
v -67.000000 -211.173049 -127.771850
v -52.500000 -211.173049 -127.771850
v -67.000000 -212.887286 -126.253169
v -52.500000 -212.887286 -126.253169
v -52.500000 -214.188266 -124.368373
v -67.000000 -214.188266 -124.368373
v -67.000000 -215.000381 -122.227002
v -52.500000 -215.000381 -122.227002
v -67.000000 -215.276433 -119.953503
v -52.500000 -215.276433 -119.953503
v -67.000000 -215.000381 -117.680004
v -52.500000 -215.000381 -117.680004
v -52.500000 -214.188266 -115.538633
v -67.000000 -214.188266 -115.538633
v -67.000000 -212.887286 -113.653838
v -52.500000 -212.887286 -113.653838
v -67.000000 -211.173049 -112.135157
v -52.500000 -211.173049 -112.135157
v -67.000000 -209.145180 -111.070849
v -52.500000 -209.145180 -111.070849
v -67.000000 -206.921532 -110.522769
v -52.500000 -206.921532 -110.522769
v -52.500000 -204.631335 -110.522769
v -67.000000 -204.631335 -110.522769
v -67.000000 -202.407687 -111.070849
v -52.500000 -202.407687 -111.070849
v -52.500000 -200.379818 -112.135157
v -67.000000 -200.379818 -112.135157
v -67.000000 -198.665581 -113.653838
v -52.500000 -198.665581 -113.653838
v -67.000000 -197.364601 -115.538633
v -52.500000 -197.364601 -115.538633
v -52.500000 -196.552486 -117.680004
v -67.000000 -196.552486 -117.680004
v -83.000000 -196.552486 -122.227002
v -83.000000 -196.276433 -119.953503
v -68.500000 -196.276433 -119.953503
v -68.500000 -196.552486 -122.227002
v -83.000000 -197.364601 -124.368373
v -68.500000 -197.364601 -124.368373
v -83.000000 -198.665581 -126.253169
v -68.500000 -198.665581 -126.253169
v -68.500000 -200.379818 -127.771850
v -83.000000 -200.379818 -127.771850
v -83.000000 -202.407687 -128.836158
v -68.500000 -202.407687 -128.836158
v -68.500000 -204.631335 -129.384238
v -83.000000 -204.631335 -129.384238
v -68.500000 -206.921532 -129.384238
v -83.000000 -206.921532 -129.384238
v -83.000000 -209.145180 -128.836158
v -68.500000 -209.145180 -128.836158
v -83.000000 -211.173049 -127.771850
v -68.500000 -211.173049 -127.771850
v -83.000000 -212.887286 -126.253169
v -68.500000 -212.887286 -126.253169
v -68.500000 -214.188266 -124.368373
v -83.000000 -214.188266 -124.368373
v -83.000000 -215.000381 -122.227002
v -68.500000 -215.000381 -122.227002
v -83.000000 -215.276433 -119.953503
v -68.500000 -215.276433 -119.953503
v -83.000000 -215.000381 -117.680004
v -68.500000 -215.000381 -117.680004
v -68.500000 -214.188266 -115.538633
v -83.000000 -214.188266 -115.538633
v -83.000000 -212.887286 -113.653838
v -68.500000 -212.887286 -113.653838
v -83.000000 -211.173049 -112.135157
v -68.500000 -211.173049 -112.135157
v -68.500000 -209.145180 -111.070849
v -83.000000 -209.145180 -111.070849
v -83.000000 -206.921532 -110.522769
v -68.500000 -206.921532 -110.522769
v -83.000000 -204.631335 -110.522769
v -68.500000 -204.631335 -110.522769
v -68.500000 -202.407687 -111.070849
v -83.000000 -202.407687 -111.070849
v -83.000000 -200.379818 -112.135157
v -68.500000 -200.379818 -112.135157
v -68.500000 -198.665581 -113.653838
v -83.000000 -198.665581 -113.653838
v -83.000000 -197.364601 -115.538633
v -68.500000 -197.364601 -115.538633
v -68.500000 -196.552486 -117.680004
v -83.000000 -196.552486 -117.680004
v -99.000000 -196.552486 -122.227002
v -99.000000 -196.276433 -119.953503
v -84.500000 -196.276433 -119.953503
v -84.500000 -196.552486 -122.227002
v -99.000000 -197.364601 -124.368373
v -84.500000 -197.364601 -124.368373
v -99.000000 -198.665581 -126.253169
v -84.500000 -198.665581 -126.253169
v -99.000000 -200.379818 -127.771850
v -84.500000 -200.379818 -127.771850
v -99.000000 -202.407687 -128.836158
v -84.500000 -202.407687 -128.836158
v -99.000000 -204.631335 -129.384238
v -84.500000 -204.631335 -129.384238
v -99.000000 -206.921532 -129.384238
v -84.500000 -206.921532 -129.384238
v -99.000000 -209.145180 -128.836158
v -84.500000 -209.145180 -128.836158
v -84.500000 -211.173049 -127.771850
v -99.000000 -211.173049 -127.771850
v -84.500000 -212.887286 -126.253169
v -99.000000 -212.887286 -126.253169
v -99.000000 -214.188266 -124.368373
v -84.500000 -214.188266 -124.368373
v -84.500000 -215.000381 -122.227002
v -99.000000 -215.000381 -122.227002
v -99.000000 -215.276433 -119.953503
v -84.500000 -215.276433 -119.953503
v -84.500000 -215.000381 -117.680004
v -99.000000 -215.000381 -117.680004
v -99.000000 -214.188266 -115.538633
v -84.500000 -214.188266 -115.538633
v -84.500000 -212.887286 -113.653838
v -99.000000 -212.887286 -113.653838
v -99.000000 -211.173049 -112.135157
v -84.500000 -211.173049 -112.135157
v -99.000000 -209.145180 -111.070849
v -84.500000 -209.145180 -111.070849
v -99.000000 -206.921532 -110.522769
v -84.500000 -206.921532 -110.522769
v -84.500000 -204.631335 -110.522769
v -99.000000 -204.631335 -110.522769
v -99.000000 -202.407687 -111.070849
v -84.500000 -202.407687 -111.070849
v -84.500000 -200.379818 -112.135157
v -99.000000 -200.379818 -112.135157
v -99.000000 -198.665581 -113.653838
v -84.500000 -198.665581 -113.653838
v -99.000000 -197.364601 -115.538633
v -84.500000 -197.364601 -115.538633
v -99.000000 -196.552486 -117.680004
v -84.500000 -196.552486 -117.680004
v -100.500000 -196.276433 -119.953503
v -100.500000 -196.552486 -122.227002
v -100.500000 -197.364601 -124.368373
v -100.500000 -198.665581 -126.253169
v -100.500000 -200.379818 -127.771850
v -100.500000 -202.407687 -128.836158
v -100.500000 -204.631335 -129.384238
v -100.500000 -206.921532 -129.384238
v -100.500000 -209.145180 -128.836158
v -100.500000 -211.173049 -127.771850
v -100.500000 -212.887286 -126.253169
v -100.500000 -214.188266 -124.368373
v -100.500000 -215.000381 -122.227002
v -100.500000 -215.276433 -119.953503
v -100.500000 -215.000381 -117.680004
v -100.500000 -214.188266 -115.538633
v -100.500000 -212.887286 -113.653838
v -100.500000 -211.173049 -112.135157
v -100.500000 -209.145180 -111.070849
v -100.500000 -206.921532 -110.522769
v -100.500000 -204.631335 -110.522769
v -100.500000 -202.407687 -111.070849
v -100.500000 -200.379818 -112.135157
v -100.500000 -198.665581 -113.653838
v -100.500000 -197.364601 -115.538633
v -100.500000 -196.552486 -117.680004
v -35.000000 -211.764519 -114.648522
v -35.000000 -210.320951 -113.369632
v -35.000000 -212.860082 -116.235718
v -35.000000 -208.613273 -112.473373
v -35.000000 -213.543968 -118.038978
v -35.000000 -206.740727 -112.011832
v -35.000000 -213.776433 -119.953503
v -35.000000 -204.812140 -112.011832
v -35.000000 -213.543968 -121.868029
v -35.000000 -202.939594 -112.473373
v -35.000000 -212.860082 -123.671289
v -35.000000 -201.231916 -113.369632
v -35.000000 -211.764519 -125.258485
v -35.000000 -199.788348 -114.648522
v -35.000000 -210.320951 -126.537374
v -35.000000 -198.692785 -116.235718
v -35.000000 -208.613273 -127.433633
v -35.000000 -198.008899 -118.038978
v -35.000000 -206.740727 -127.895174
v -35.000000 -197.776433 -119.953503
v -35.000000 -198.008899 -121.868029
v -35.000000 -204.812140 -127.895174
v -35.000000 -198.692785 -123.671289
v -35.000000 -202.939594 -127.433633
v -35.000000 -201.231916 -126.537374
v -35.000000 -199.788348 -125.258485
v -36.500000 -213.776433 -119.953503
v -36.500000 -213.543968 -118.038978
v -36.500000 -212.860082 -116.235718
v -36.500000 -211.764519 -114.648522
v -36.500000 -210.320951 -113.369632
v -36.500000 -208.613273 -112.473373
v -36.500000 -206.740727 -112.011832
v -36.500000 -204.812140 -112.011832
v -36.500000 -202.939594 -112.473373
v -36.500000 -201.231916 -113.369632
v -36.500000 -199.788348 -114.648522
v -36.500000 -198.692785 -116.235718
v -36.500000 -198.008899 -118.038978
v -36.500000 -197.776433 -119.953503
v -36.500000 -198.008899 -121.868029
v -36.500000 -198.692785 -123.671289
v -36.500000 -199.788348 -125.258485
v -36.500000 -201.231916 -126.537374
v -36.500000 -202.939594 -127.433633
v -36.500000 -204.812140 -127.895174
v -36.500000 -206.740727 -127.895174
v -36.500000 -208.613273 -127.433633
v -36.500000 -210.320951 -126.537374
v -36.500000 -211.764519 -125.258485
v -36.500000 -212.860082 -123.671289
v -36.500000 -213.543968 -121.868029
v -21.025072 -214.496794 -119.759378
v -21.777479 -215.249015 -119.742633
v -21.025072 -214.200822 -117.692520
v -21.099031 -214.404961 -117.637732
v -21.099031 -214.708104 -119.754674
v -21.218169 -214.588086 -117.588584
v -21.218169 -214.897664 -119.750454
v -21.376510 -214.741016 -117.547540
v -21.376510 -215.055966 -119.746930
v -21.566116 -214.856081 -117.516658
v -21.566116 -215.175074 -119.744279
v -21.777479 -214.927512 -117.497487
v -21.025072 -213.422135 -115.755216
v -21.099031 -213.607405 -115.653484
v -21.218169 -213.773604 -115.562224
v -21.376510 -213.912397 -115.486011
v -21.566116 -214.016827 -115.428668
v -21.777479 -214.081656 -115.393071
v -21.025072 -212.205352 -114.058473
v -21.099031 -212.361136 -113.915625
v -21.218169 -212.500885 -113.787482
v -21.376510 -212.617590 -113.680468
v -21.566116 -212.705400 -113.599951
v -21.777479 -212.759912 -113.549966
v -21.025072 -210.620193 -112.699513
v -21.099031 -210.737566 -112.523736
v -21.218169 -210.842857 -112.366052
v -21.376510 -210.930787 -112.234369
v -21.566116 -210.996946 -112.135290
v -21.777479 -211.038017 -112.073782
v -21.025072 -208.757487 -111.756206
v -21.099031 -208.829724 -111.557570
v -21.218169 -208.894525 -111.379381
v -21.376510 -208.948640 -111.230574
v -21.566116 -208.989357 -111.118610
v -21.777479 -209.014634 -111.049105
v -21.025072 -206.723969 -111.282601
v -21.099031 -206.746929 -111.072489
v -21.218169 -206.767526 -110.884005
v -21.376510 -206.784727 -110.726600
v -21.566116 -206.797669 -110.608168
v -21.777479 -206.805703 -110.534647
v -21.025072 -204.636156 -111.305837
v -21.099031 -204.608525 -111.096288
v -21.218169 -204.583739 -110.908309
v -21.376510 -204.563039 -110.751326
v -21.566116 -204.547464 -110.633211
v -21.777479 -204.537796 -110.559887
v -21.025072 -202.613682 -111.824581
v -21.099031 -202.537042 -111.627603
v -21.218169 -202.468292 -111.450900
v -21.376510 -202.410878 -111.303334
v -21.566116 -202.367679 -111.192304
v -21.777479 -202.340862 -111.123378
v -21.025072 -200.772432 -112.809111
v -21.099031 -200.651176 -112.635989
v -21.218169 -200.542401 -112.480688
v -21.376510 -200.451562 -112.350994
v -21.566116 -200.383215 -112.253412
v -21.777479 -200.340785 -112.192834
v -21.025072 -199.217910 -114.203013
v -21.099031 -199.058985 -114.063668
v -21.218169 -198.916419 -113.938666
v -21.376510 -198.797360 -113.834277
v -21.566116 -198.707780 -113.755733
v -21.777479 -198.652170 -113.706974
v -21.025072 -198.039190 -115.926416
v -21.099031 -197.851702 -115.828832
v -21.218169 -197.683513 -115.741293
v -21.376510 -197.543058 -115.668189
v -21.566116 -197.437378 -115.613185
v -21.777479 -197.371773 -115.579039
v -21.025072 -197.303812 -117.880570
v -21.099031 -197.098504 -117.830339
v -21.218169 -196.914330 -117.785279
v -21.376510 -196.760525 -117.747649
v -21.566116 -196.644801 -117.719335
v -21.777479 -196.572961 -117.701759
v -21.025072 -197.053913 -119.953503
v -21.099031 -196.842550 -119.953503
v -21.218169 -196.652944 -119.953503
v -21.376510 -196.494602 -119.953503
v -21.566116 -196.375465 -119.953503
v -21.777479 -196.301506 -119.953503
v -21.025072 -197.310960 -122.055436
v -21.099031 -197.105825 -122.106370
v -21.218169 -196.921807 -122.152061
v -21.376510 -196.768131 -122.190217
v -21.566116 -196.652505 -122.218927
v -21.777479 -196.580725 -122.236749
v -21.025072 -198.066950 -124.033484
v -21.099031 -197.880135 -124.132349
v -21.218169 -197.712550 -124.221038
v -21.376510 -197.572598 -124.295103
v -21.566116 -197.467298 -124.350829
v -21.777479 -197.401928 -124.385424
v -21.025072 -199.277328 -125.771063
v -21.099031 -199.119843 -125.912033
v -21.218169 -198.978568 -126.038492
v -21.376510 -198.860589 -126.144100
v -21.566116 -198.771820 -126.223559
v -21.777479 -198.716713 -126.272887
v -21.025072 -200.870754 -127.165763
v -21.099031 -200.751881 -127.340529
v -21.218169 -200.645243 -127.497306
v -21.376510 -200.556189 -127.628231
v -21.566116 -200.489185 -127.726741
v -21.777479 -200.447589 -127.787894
v -21.025072 -202.753315 -128.135381
v -21.099031 -202.680059 -128.333643
v -21.218169 -202.614344 -128.511497
v -21.376510 -202.559465 -128.660024
v -21.566116 -202.518173 -128.771777
v -21.777479 -202.492540 -128.841152
v -21.025072 -204.814054 -128.622771
v -21.099031 -204.790734 -128.832843
v -21.218169 -204.769814 -129.021292
v -21.376510 -204.752344 -129.178667
v -21.566116 -204.739199 -129.297077
v -21.777479 -204.731039 -129.370584
v -21.025072 -206.931515 -128.599205
v -21.099031 -206.959504 -128.808706
v -21.218169 -206.984613 -128.996643
v -21.376510 -207.005581 -129.153590
v -21.566116 -207.021358 -129.271678
v -21.777479 -207.031152 -129.344986
v -21.025072 -208.980896 -128.066073
v -21.099031 -209.058546 -128.262656
v -21.218169 -209.128204 -128.439003
v -21.376510 -209.186375 -128.586272
v -21.566116 -209.230143 -128.697078
v -21.777479 -209.257314 -128.765866
v -21.025072 -210.841411 -127.054797
v -21.099031 -210.964145 -127.226875
v -21.218169 -211.074245 -127.381239
v -21.376510 -211.166191 -127.510150
v -21.566116 -211.235371 -127.607144
v -21.777479 -211.278317 -127.667357
v -21.025072 -212.403403 -125.624980
v -21.099031 -212.563987 -125.762410
v -21.218169 -212.708041 -125.885694
v -21.376510 -212.828341 -125.988650
v -21.566116 -212.918856 -126.066114
v -21.777479 -212.975047 -126.114203
v -21.025072 -213.574810 -123.860894
v -21.099031 -213.763779 -123.955577
v -21.218169 -213.933296 -124.040514
v -21.376510 -214.074862 -124.111446
v -21.566116 -214.181377 -124.164815
v -21.777479 -214.247500 -124.197946
v -21.025072 -214.286591 -121.866511
v -21.099031 -214.492807 -121.912867
v -21.218169 -214.677797 -121.954451
v -21.376510 -214.832284 -121.989178
v -21.566116 -214.948521 -122.015307
v -21.777479 -215.020679 -122.031527
v -51.000000 -211.764519 -114.648522
v -51.000000 -210.320951 -113.369632
v -51.000000 -212.860082 -116.235718
v -51.000000 -208.613273 -112.473373
v -51.000000 -213.543968 -118.038978
v -51.000000 -206.740727 -112.011832
v -51.000000 -213.776433 -119.953503
v -51.000000 -204.812140 -112.011832
v -51.000000 -213.543968 -121.868029
v -51.000000 -202.939594 -112.473373
v -51.000000 -212.860082 -123.671289
v -51.000000 -201.231916 -113.369632
v -51.000000 -211.764519 -125.258485
v -51.000000 -199.788348 -114.648522
v -51.000000 -210.320951 -126.537374
v -51.000000 -198.692785 -116.235718
v -51.000000 -208.613273 -127.433633
v -51.000000 -198.008899 -118.038978
v -51.000000 -206.740727 -127.895174
v -51.000000 -197.776433 -119.953503
v -51.000000 -198.008899 -121.868029
v -51.000000 -204.812140 -127.895174
v -51.000000 -202.939594 -127.433633
v -51.000000 -198.692785 -123.671289
v -51.000000 -201.231916 -126.537374
v -51.000000 -199.788348 -125.258485
v -52.500000 -213.776433 -119.953503
v -52.500000 -213.543968 -118.038978
v -52.500000 -212.860082 -116.235718
v -52.500000 -211.764519 -114.648522
v -52.500000 -210.320951 -113.369632
v -52.500000 -208.613273 -112.473373
v -52.500000 -206.740727 -112.011832
v -52.500000 -204.812140 -112.011832
v -52.500000 -202.939594 -112.473373
v -52.500000 -201.231916 -113.369632
v -52.500000 -199.788348 -114.648522
v -52.500000 -198.692785 -116.235718
v -52.500000 -198.008899 -118.038978
v -52.500000 -197.776433 -119.953503
v -52.500000 -198.008899 -121.868029
v -52.500000 -198.692785 -123.671289
v -52.500000 -199.788348 -125.258485
v -52.500000 -201.231916 -126.537374
v -52.500000 -202.939594 -127.433633
v -52.500000 -204.812140 -127.895174
v -52.500000 -206.740727 -127.895174
v -52.500000 -208.613273 -127.433633
v -52.500000 -210.320951 -126.537374
v -52.500000 -211.764519 -125.258485
v -52.500000 -212.860082 -123.671289
v -52.500000 -213.543968 -121.868029
v -67.000000 -211.764519 -114.648522
v -67.000000 -210.320951 -113.369632
v -67.000000 -212.860082 -116.235718
v -67.000000 -208.613273 -112.473373
v -67.000000 -213.543968 -118.038978
v -67.000000 -206.740727 -112.011832
v -67.000000 -213.776433 -119.953503
v -67.000000 -204.812140 -112.011832
v -67.000000 -213.543968 -121.868029
v -67.000000 -202.939594 -112.473373
v -67.000000 -212.860082 -123.671289
v -67.000000 -201.231916 -113.369632
v -67.000000 -211.764519 -125.258485
v -67.000000 -199.788348 -114.648522
v -67.000000 -210.320951 -126.537374
v -67.000000 -198.692785 -116.235718
v -67.000000 -208.613273 -127.433633
v -67.000000 -198.008899 -118.038978
v -67.000000 -206.740727 -127.895174
v -67.000000 -197.776433 -119.953503
v -67.000000 -204.812140 -127.895174
v -67.000000 -198.008899 -121.868029
v -67.000000 -202.939594 -127.433633
v -67.000000 -198.692785 -123.671289
v -67.000000 -199.788348 -125.258485
v -67.000000 -201.231916 -126.537374
v -68.500000 -213.776433 -119.953503
v -68.500000 -213.543968 -118.038978
v -68.500000 -212.860082 -116.235718
v -68.500000 -211.764519 -114.648522
v -68.500000 -210.320951 -113.369632
v -68.500000 -208.613273 -112.473373
v -68.500000 -206.740727 -112.011832
v -68.500000 -204.812140 -112.011832
v -68.500000 -202.939594 -112.473373
v -68.500000 -201.231916 -113.369632
v -68.500000 -199.788348 -114.648522
v -68.500000 -198.692785 -116.235718
v -68.500000 -198.008899 -118.038978
v -68.500000 -197.776433 -119.953503
v -68.500000 -198.008899 -121.868029
v -68.500000 -198.692785 -123.671289
v -68.500000 -199.788348 -125.258485
v -68.500000 -201.231916 -126.537374
v -68.500000 -202.939594 -127.433633
v -68.500000 -204.812140 -127.895174
v -68.500000 -206.740727 -127.895174
v -68.500000 -208.613273 -127.433633
v -68.500000 -210.320951 -126.537374
v -68.500000 -211.764519 -125.258485
v -68.500000 -212.860082 -123.671289
v -68.500000 -213.543968 -121.868029
v -83.000000 -211.764519 -114.648522
v -83.000000 -210.320951 -113.369632
v -83.000000 -212.860082 -116.235718
v -83.000000 -208.613273 -112.473373
v -83.000000 -213.543968 -118.038978
v -83.000000 -206.740727 -112.011832
v -83.000000 -213.776433 -119.953503
v -83.000000 -204.812140 -112.011832
v -83.000000 -213.543968 -121.868029
v -83.000000 -202.939594 -112.473373
v -83.000000 -212.860082 -123.671289
v -83.000000 -201.231916 -113.369632
v -83.000000 -211.764519 -125.258485
v -83.000000 -199.788348 -114.648522
v -83.000000 -210.320951 -126.537374
v -83.000000 -198.692785 -116.235718
v -83.000000 -208.613273 -127.433633
v -83.000000 -198.008899 -118.038978
v -83.000000 -206.740727 -127.895174
v -83.000000 -197.776433 -119.953503
v -83.000000 -204.812140 -127.895174
v -83.000000 -198.008899 -121.868029
v -83.000000 -202.939594 -127.433633
v -83.000000 -198.692785 -123.671289
v -83.000000 -199.788348 -125.258485
v -83.000000 -201.231916 -126.537374
v -84.500000 -213.776433 -119.953503
v -84.500000 -213.543968 -118.038978
v -84.500000 -212.860082 -116.235718
v -84.500000 -211.764519 -114.648522
v -84.500000 -210.320951 -113.369632
v -84.500000 -208.613273 -112.473373
v -84.500000 -206.740727 -112.011832
v -84.500000 -204.812140 -112.011832
v -84.500000 -202.939594 -112.473373
v -84.500000 -201.231916 -113.369632
v -84.500000 -199.788348 -114.648522
v -84.500000 -198.692785 -116.235718
v -84.500000 -198.008899 -118.038978
v -84.500000 -197.776433 -119.953503
v -84.500000 -198.008899 -121.868029
v -84.500000 -198.692785 -123.671289
v -84.500000 -199.788348 -125.258485
v -84.500000 -201.231916 -126.537374
v -84.500000 -202.939594 -127.433633
v -84.500000 -204.812140 -127.895174
v -84.500000 -206.740727 -127.895174
v -84.500000 -208.613273 -127.433633
v -84.500000 -210.320951 -126.537374
v -84.500000 -211.764519 -125.258485
v -84.500000 -212.860082 -123.671289
v -84.500000 -213.543968 -121.868029
v -99.000000 -211.764519 -114.648522
v -99.000000 -210.320951 -113.369632
v -99.000000 -212.860082 -116.235718
v -99.000000 -208.613273 -112.473373
v -99.000000 -213.543968 -118.038978
v -99.000000 -206.740727 -112.011832
v -99.000000 -213.776433 -119.953503
v -99.000000 -204.812140 -112.011832
v -99.000000 -213.543968 -121.868029
v -99.000000 -202.939594 -112.473373
v -99.000000 -212.860082 -123.671289
v -99.000000 -201.231916 -113.369632
v -99.000000 -211.764519 -125.258485
v -99.000000 -199.788348 -114.648522
v -99.000000 -210.320951 -126.537374
v -99.000000 -198.692785 -116.235718
v -99.000000 -208.613273 -127.433633
v -99.000000 -198.008899 -118.038978
v -99.000000 -206.740727 -127.895174
v -99.000000 -197.776433 -119.953503
v -99.000000 -204.812140 -127.895174
v -99.000000 -198.008899 -121.868029
v -99.000000 -202.939594 -127.433633
v -99.000000 -198.692785 -123.671289
v -99.000000 -199.788348 -125.258485
v -99.000000 -201.231916 -126.537374
v -100.500000 -213.776433 -119.953503
v -100.500000 -213.543968 -118.038978
v -100.500000 -212.860082 -116.235718
v -100.500000 -211.764519 -114.648522
v -100.500000 -210.320951 -113.369632
v -100.500000 -208.613273 -112.473373
v -100.500000 -206.740727 -112.011832
v -100.500000 -204.812140 -112.011832
v -100.500000 -202.939594 -112.473373
v -100.500000 -201.231916 -113.369632
v -100.500000 -199.788348 -114.648522
v -100.500000 -198.692785 -116.235718
v -100.500000 -198.008899 -118.038978
v -100.500000 -197.776433 -119.953503
v -100.500000 -198.008899 -121.868029
v -100.500000 -198.692785 -123.671289
v -100.500000 -199.788348 -125.258485
v -100.500000 -201.231916 -126.537374
v -100.500000 -202.939594 -127.433633
v -100.500000 -204.812140 -127.895174
v -100.500000 -206.740727 -127.895174
v -100.500000 -208.613273 -127.433633
v -100.500000 -210.320951 -126.537374
v -100.500000 -211.764519 -125.258485
v -100.500000 -212.860082 -123.671289
v -100.500000 -213.543968 -121.868029
f 1 2 3
f 3 4 5
f 2 4 3
f 6 7 1
f 1 7 2
f 5 8 9
f 4 8 5
f 10 11 6
f 6 11 7
f 9 12 13
f 8 12 9
f 14 15 10
f 10 15 11
f 13 16 17
f 12 16 13
f 18 19 14
f 14 19 15
f 17 20 21
f 16 20 17
f 18 22 19
f 21 23 24
f 20 23 21
f 18 25 22
f 25 26 22
f 23 27 24
f 27 28 24
f 26 29 30
f 25 29 26
f 27 31 28
f 31 32 28
f 33 32 31
f 29 34 30
f 30 34 35
f 33 36 32
f 37 36 33
f 34 38 35
f 35 38 39
f 37 40 36
f 41 40 37
f 38 42 39
f 39 42 43
f 44 45 41
f 41 45 40
f 43 46 47
f 42 46 43
f 48 49 44
f 44 49 45
f 46 50 47
f 47 50 51
f 50 52 51
f 51 52 48
f 48 52 49
f 15 53 11
f 53 54 11
f 11 55 7
f 54 55 11
f 2 56 4
f 7 56 2
f 55 56 7
f 56 57 4
f 8 58 12
f 4 58 8
f 57 58 4
f 12 59 16
f 58 59 12
f 59 60 16
f 20 61 23
f 16 61 20
f 60 61 16
f 23 62 27
f 61 62 23
f 62 63 27
f 63 64 27
f 31 64 33
f 27 64 31
f 64 65 33
f 65 66 33
f 33 66 37
f 66 67 37
f 41 67 44
f 37 67 41
f 67 68 44
f 68 69 44
f 48 69 51
f 44 69 48
f 69 70 51
f 51 70 47
f 70 71 47
f 43 72 39
f 47 72 43
f 71 72 47
f 39 73 35
f 72 73 39
f 73 74 35
f 35 75 30
f 74 75 35
f 26 76 22
f 30 76 26
f 75 76 30
f 76 77 22
f 22 78 19
f 77 78 22
f 19 53 15
f 78 53 19
f 56 79 80
f 57 80 81
f 57 56 80
f 55 82 79
f 55 79 56
f 58 81 83
f 58 57 81
f 54 84 82
f 54 82 55
f 59 83 85
f 59 58 83
f 53 86 84
f 53 84 54
f 60 85 87
f 60 59 85
f 78 88 86
f 78 86 53
f 61 60 87
f 89 61 87
f 77 90 88
f 77 88 78
f 62 61 89
f 76 91 90
f 76 90 77
f 92 63 62
f 92 62 89
f 75 91 76
f 93 91 75
f 74 93 75
f 94 64 63
f 94 63 92
f 95 93 74
f 95 74 73
f 96 64 94
f 96 65 64
f 97 95 73
f 97 73 72
f 98 65 96
f 98 66 65
f 99 97 72
f 99 72 71
f 100 67 66
f 100 66 98
f 101 71 70
f 101 99 71
f 102 67 100
f 102 68 67
f 103 70 69
f 103 101 70
f 104 69 68
f 104 68 102
f 104 103 69
f 105 106 107
f 105 107 108
f 105 108 109
f 110 105 109
f 105 111 106
f 112 109 113
f 114 109 112
f 114 110 109
f 114 112 113
f 115 116 110
f 115 110 114
f 117 118 116
f 117 116 115
f 119 120 118
f 119 118 117
f 121 84 86
f 121 86 122
f 121 122 120
f 121 120 119
f 123 113 124
f 125 123 124
f 125 113 123
f 125 114 113
f 126 114 125
f 126 115 114
f 127 115 126
f 127 117 115
f 128 117 127
f 128 119 117
f 129 82 84
f 129 84 121
f 129 121 119
f 129 119 128
f 130 124 131
f 132 130 131
f 132 125 124
f 132 124 130
f 133 125 132
f 133 126 125
f 134 127 126
f 134 126 133
f 135 128 127
f 135 127 134
f 136 129 128
f 136 79 82
f 136 82 129
f 136 128 135
f 137 131 138
f 139 131 137
f 139 133 132
f 139 137 138
f 139 132 131
f 140 133 139
f 141 133 140
f 141 134 133
f 142 134 141
f 142 135 134
f 143 80 79
f 143 79 136
f 143 136 135
f 143 135 142
f 144 138 145
f 146 138 144
f 146 144 145
f 146 139 138
f 146 140 139
f 147 140 146
f 148 140 147
f 148 141 140
f 149 141 148
f 149 142 141
f 150 81 80
f 150 142 149
f 150 143 142
f 150 80 143
f 151 145 152
f 153 146 145
f 153 145 151
f 153 151 152
f 154 146 153
f 154 147 146
f 155 147 154
f 155 148 147
f 156 149 148
f 156 148 155
f 157 83 81
f 157 81 150
f 157 150 149
f 157 149 156
f 158 152 159
f 160 154 153
f 160 153 152
f 160 152 158
f 160 158 159
f 161 154 160
f 162 155 154
f 162 154 161
f 163 156 155
f 163 155 162
f 164 85 83
f 164 157 156
f 164 156 163
f 164 83 157
f 165 159 166
f 167 161 160
f 167 160 159
f 167 159 165
f 167 165 166
f 168 161 167
f 169 162 161
f 169 161 168
f 170 162 169
f 170 163 162
f 171 87 85
f 171 85 164
f 171 164 163
f 171 163 170
f 172 166 173
f 174 166 172
f 174 167 166
f 174 172 173
f 175 167 174
f 175 168 167
f 176 169 168
f 176 168 175
f 177 169 176
f 177 170 169
f 177 171 170
f 178 89 87
f 178 87 171
f 178 171 177
f 179 173 180
f 181 174 173
f 181 173 179
f 181 179 180
f 182 174 181
f 182 175 174
f 182 176 175
f 183 176 182
f 183 177 176
f 184 177 183
f 185 177 184
f 185 92 89
f 185 89 178
f 185 178 177
f 186 180 187
f 188 180 186
f 188 186 187
f 188 181 180
f 189 181 188
f 189 182 181
f 190 183 182
f 190 182 189
f 191 184 183
f 191 185 184
f 191 183 190
f 192 92 185
f 192 94 92
f 192 185 191
f 193 187 194
f 195 188 187
f 195 193 194
f 195 187 193
f 196 188 195
f 196 189 188
f 196 190 189
f 197 191 190
f 197 190 196
f 198 191 197
f 199 96 94
f 199 94 192
f 199 192 191
f 199 191 198
f 200 194 201
f 202 195 194
f 202 194 200
f 202 200 201
f 203 195 202
f 203 196 195
f 204 197 196
f 204 196 203
f 205 198 197
f 205 197 204
f 206 98 96
f 206 96 199
f 206 199 198
f 206 198 205
f 207 201 208
f 209 203 202
f 209 202 201
f 209 201 207
f 209 207 208
f 210 203 209
f 211 204 203
f 211 203 210
f 212 204 211
f 212 205 204
f 213 100 98
f 213 98 206
f 213 206 205
f 213 205 212
f 214 208 215
f 216 209 208
f 216 208 214
f 216 214 215
f 217 209 216
f 217 210 209
f 217 211 210
f 218 212 211
f 218 211 217
f 219 212 218
f 220 102 100
f 220 100 213
f 220 213 212
f 220 212 219
f 221 215 222
f 223 216 215
f 223 215 221
f 223 221 222
f 224 216 223
f 224 217 216
f 225 217 224
f 225 218 217
f 226 220 219
f 226 218 225
f 226 219 218
f 227 220 226
f 227 104 102
f 227 103 104
f 227 102 220
f 228 222 229
f 230 222 228
f 230 228 229
f 230 223 222
f 231 224 223
f 231 223 230
f 232 224 231
f 232 225 224
f 233 225 232
f 233 226 225
f 234 226 233
f 234 103 227
f 234 227 226
f 235 229 236
f 237 230 229
f 237 229 235
f 238 230 237
f 238 231 230
f 238 232 231
f 239 232 238
f 240 233 232
f 240 234 233
f 240 232 239
f 241 101 103
f 241 103 234
f 241 234 240
f 242 235 236
f 242 236 243
f 244 237 235
f 244 235 242
f 245 238 237
f 245 237 244
f 246 238 245
f 246 239 238
f 247 240 239
f 247 239 246
f 248 99 101
f 248 101 241
f 248 241 240
f 248 240 247
f 249 243 250
f 249 242 243
f 251 244 242
f 251 242 249
f 252 244 251
f 252 245 244
f 253 246 245
f 253 245 252
f 254 246 253
f 254 247 246
f 255 97 99
f 255 95 97
f 255 99 248
f 255 248 247
f 255 247 254
f 256 250 257
f 256 249 250
f 258 251 249
f 258 249 256
f 259 252 251
f 259 251 258
f 260 252 259
f 260 253 252
f 261 253 260
f 261 254 253
f 261 255 254
f 262 255 261
f 262 93 95
f 262 95 255
f 263 257 264
f 263 256 257
f 265 256 263
f 265 258 256
f 266 258 265
f 266 259 258
f 267 260 259
f 267 259 266
f 268 261 260
f 268 260 267
f 269 262 261
f 269 93 262
f 269 261 268
f 270 264 271
f 270 263 264
f 272 263 270
f 272 265 263
f 273 265 272
f 273 266 265
f 274 267 266
f 274 268 267
f 274 266 273
f 275 269 268
f 275 268 274
f 276 91 93
f 276 93 269
f 276 269 275
f 277 271 278
f 277 270 271
f 279 272 270
f 279 270 277
f 280 274 273
f 280 272 279
f 280 273 272
f 281 275 274
f 281 274 280
f 282 276 275
f 282 275 281
f 283 90 91
f 283 88 90
f 283 91 276
f 283 276 282
f 284 277 278
f 284 279 277
f 284 278 111
f 284 111 105
f 285 279 284
f 285 284 105
f 285 110 116
f 285 105 110
f 286 279 285
f 286 116 118
f 286 285 116
f 286 280 279
f 287 280 286
f 287 281 280
f 287 282 281
f 287 118 120
f 287 286 118
f 288 282 287
f 288 283 282
f 288 120 122
f 288 287 120
f 289 86 88
f 289 88 283
f 289 122 86
f 289 288 122
f 289 283 288
f 290 291 292
f 290 292 293
f 294 293 295
f 294 290 293
f 296 295 297
f 296 294 295
f 298 297 299
f 298 296 297
f 300 299 301
f 300 298 299
f 302 301 303
f 302 300 301
f 304 303 305
f 304 302 303
f 306 305 307
f 306 304 305
f 308 307 309
f 308 306 307
f 310 309 311
f 310 308 309
f 312 310 311
f 312 311 313
f 314 312 313
f 314 313 315
f 316 314 315
f 316 315 317
f 318 316 317
f 318 317 319
f 320 318 319
f 320 319 321
f 322 320 321
f 322 321 323
f 324 322 323
f 324 323 325
f 326 324 325
f 326 325 327
f 328 326 327
f 328 327 329
f 330 328 329
f 330 329 331
f 332 330 331
f 332 331 333
f 334 332 333
f 334 333 335
f 336 335 337
f 336 334 335
f 338 337 339
f 338 336 337
f 340 339 341
f 340 338 339
f 291 341 292
f 291 340 341
f 342 343 344
f 345 342 344
f 346 344 347
f 346 345 344
f 348 347 349
f 348 346 347
f 350 349 351
f 350 348 349
f 352 351 353
f 352 350 351
f 354 353 355
f 354 355 356
f 354 352 353
f 357 354 356
f 358 356 359
f 358 359 360
f 358 357 356
f 361 358 360
f 362 360 363
f 362 361 360
f 364 362 363
f 364 363 365
f 366 364 365
f 366 365 367
f 368 366 367
f 368 367 369
f 370 368 369
f 370 369 371
f 370 371 372
f 373 370 372
f 374 373 372
f 374 372 375
f 376 374 375
f 376 375 377
f 376 377 378
f 379 376 378
f 380 379 378
f 380 378 381
f 380 381 382
f 383 380 382
f 384 383 382
f 384 382 385
f 386 384 385
f 386 385 387
f 386 387 388
f 389 386 388
f 390 388 391
f 390 391 392
f 390 389 388
f 393 390 392
f 342 392 343
f 342 393 392
f 394 395 396
f 397 394 396
f 398 396 399
f 398 397 396
f 400 399 401
f 400 398 399
f 402 401 403
f 402 400 401
f 404 403 405
f 404 405 406
f 404 402 403
f 407 406 408
f 407 404 406
f 409 407 408
f 410 408 411
f 410 409 408
f 412 411 413
f 412 410 411
f 414 413 415
f 414 415 416
f 414 412 413
f 417 414 416
f 418 417 416
f 418 416 419
f 420 418 419
f 420 419 421
f 422 420 421
f 422 421 423
f 422 423 424
f 425 422 424
f 426 425 424
f 426 424 427
f 428 426 427
f 428 427 429
f 430 428 429
f 430 429 431
f 432 430 431
f 432 431 433
f 432 433 434
f 435 432 434
f 436 435 434
f 436 434 437
f 436 437 438
f 439 436 438
f 440 439 438
f 440 438 441
f 442 440 441
f 442 441 443
f 442 443 444
f 445 442 444
f 394 444 395
f 394 445 444
f 446 447 448
f 446 448 449
f 450 449 451
f 450 446 449
f 452 451 453
f 452 453 454
f 452 450 451
f 455 452 454
f 456 454 457
f 456 457 458
f 456 455 454
f 459 458 460
f 459 456 458
f 461 459 460
f 462 460 463
f 462 461 460
f 464 463 465
f 464 462 463
f 466 465 467
f 466 467 468
f 466 464 465
f 469 466 468
f 470 469 468
f 470 468 471
f 472 470 471
f 472 471 473
f 474 472 473
f 474 473 475
f 474 475 476
f 477 474 476
f 478 477 476
f 478 476 479
f 480 478 479
f 480 479 481
f 480 481 482
f 483 480 482
f 484 483 482
f 484 482 485
f 486 484 485
f 486 485 487
f 486 487 488
f 489 486 488
f 490 489 488
f 490 488 491
f 490 491 492
f 493 490 492
f 494 493 492
f 494 492 495
f 494 495 496
f 497 494 496
f 447 496 448
f 447 497 496
f 498 499 500
f 498 500 501
f 502 501 503
f 502 498 501
f 504 503 505
f 504 502 503
f 506 505 507
f 506 504 505
f 508 507 509
f 508 506 507
f 510 509 511
f 510 508 509
f 512 511 513
f 512 510 511
f 514 513 515
f 514 515 516
f 514 512 513
f 517 516 518
f 517 514 516
f 519 517 518
f 520 519 518
f 520 518 521
f 520 521 522
f 523 520 522
f 524 523 522
f 524 522 525
f 524 525 526
f 527 524 526
f 528 527 526
f 528 526 529
f 528 529 530
f 531 528 530
f 532 531 530
f 532 530 533
f 534 532 533
f 534 533 535
f 536 534 535
f 536 535 537
f 536 537 538
f 539 536 538
f 540 539 538
f 540 538 541
f 540 541 542
f 543 540 542
f 544 543 542
f 544 542 545
f 546 544 545
f 546 545 547
f 548 547 549
f 548 546 547
f 499 549 500
f 499 548 549
f 113 109 550
f 113 550 551
f 124 551 552
f 124 113 551
f 131 552 553
f 131 124 552
f 138 553 554
f 138 131 553
f 145 554 555
f 145 138 554
f 152 555 556
f 152 145 555
f 159 556 557
f 159 152 556
f 166 557 558
f 166 159 557
f 173 558 559
f 173 166 558
f 180 559 560
f 180 173 559
f 187 180 560
f 187 560 561
f 194 187 561
f 194 561 562
f 201 194 562
f 201 562 563
f 208 201 563
f 208 563 564
f 215 208 564
f 215 564 565
f 222 215 565
f 222 565 566
f 229 222 566
f 229 566 567
f 236 229 567
f 236 567 568
f 243 236 568
f 243 568 569
f 250 243 569
f 250 569 570
f 257 250 570
f 257 570 571
f 264 257 571
f 264 571 572
f 271 264 572
f 271 572 573
f 278 573 574
f 278 271 573
f 111 574 575
f 111 278 574
f 106 575 550
f 106 111 575
f 107 106 550
f 108 107 550
f 109 108 550
f 576 322 324
f 577 324 326
f 577 576 324
f 578 320 322
f 578 322 576
f 579 326 328
f 579 577 326
f 580 318 320
f 580 320 578
f 581 579 328
f 330 581 328
f 582 316 318
f 582 318 580
f 583 581 330
f 314 316 582
f 584 314 582
f 332 583 330
f 585 583 332
f 312 314 584
f 586 312 584
f 334 585 332
f 587 585 334
f 310 312 586
f 588 310 586
f 336 587 334
f 336 589 587
f 308 310 588
f 308 588 590
f 338 589 336
f 338 591 589
f 306 308 590
f 306 590 592
f 340 591 338
f 340 593 591
f 304 306 592
f 304 592 594
f 291 593 340
f 291 595 593
f 596 595 291
f 302 304 594
f 302 594 597
f 290 596 291
f 290 598 596
f 300 302 597
f 300 597 599
f 294 598 290
f 298 599 600
f 298 300 599
f 296 298 600
f 296 601 598
f 296 600 601
f 296 598 294
f 602 582 580
f 603 580 578
f 603 602 580
f 604 578 576
f 604 603 578
f 605 576 577
f 605 604 576
f 606 577 579
f 606 605 577
f 607 579 581
f 607 606 579
f 608 581 583
f 608 607 581
f 609 583 585
f 609 608 583
f 610 585 587
f 610 609 585
f 611 610 587
f 612 587 589
f 612 589 591
f 612 611 587
f 613 612 591
f 614 613 591
f 614 591 593
f 615 614 593
f 615 593 595
f 616 615 595
f 616 595 596
f 616 596 598
f 617 616 598
f 617 598 601
f 618 617 601
f 619 618 601
f 619 601 600
f 619 600 599
f 620 619 599
f 621 620 599
f 621 599 597
f 621 597 594
f 622 621 594
f 623 622 594
f 623 594 592
f 624 623 592
f 624 592 590
f 624 590 588
f 625 624 588
f 625 588 586
f 626 625 586
f 627 586 584
f 627 584 582
f 627 626 586
f 602 627 582
f 375 605 377
f 377 606 378
f 605 606 377
f 372 604 375
f 375 604 605
f 378 607 381
f 606 607 378
f 371 603 372
f 372 603 604
f 607 608 381
f 608 382 381
f 369 602 371
f 371 602 603
f 608 609 382
f 367 627 369
f 369 627 602
f 609 385 382
f 609 610 385
f 365 626 367
f 367 626 627
f 610 387 385
f 610 611 387
f 363 625 365
f 365 625 626
f 612 388 611
f 611 388 387
f 363 624 625
f 363 360 624
f 612 391 388
f 613 391 612
f 360 623 624
f 360 359 623
f 613 392 391
f 614 392 613
f 359 356 623
f 623 356 622
f 614 343 392
f 615 343 614
f 356 355 622
f 622 355 621
f 621 355 620
f 615 344 343
f 616 344 615
f 355 353 620
f 616 347 344
f 617 347 616
f 620 351 619
f 353 351 620
f 619 349 618
f 618 349 617
f 617 349 347
f 351 349 619
f 628 36 40
f 317 315 629
f 630 628 40
f 630 40 45
f 631 632 628
f 631 628 630
f 633 632 631
f 633 634 632
f 635 636 634
f 635 634 633
f 637 638 636
f 637 636 635
f 639 319 317
f 639 317 629
f 639 629 638
f 639 638 637
f 640 630 45
f 640 45 49
f 641 630 640
f 641 631 630
f 642 633 631
f 642 631 641
f 643 633 642
f 643 635 633
f 644 637 635
f 644 635 643
f 645 323 321
f 645 321 319
f 645 639 637
f 645 319 639
f 645 637 644
f 646 49 52
f 646 640 49
f 647 640 646
f 647 641 640
f 648 641 647
f 648 643 642
f 648 642 641
f 649 643 648
f 650 643 649
f 650 644 643
f 651 323 645
f 651 645 644
f 651 644 650
f 652 52 50
f 652 646 52
f 653 652 50
f 653 647 646
f 653 646 652
f 654 647 653
f 654 648 647
f 655 648 654
f 655 649 648
f 656 650 649
f 656 649 655
f 656 651 650
f 657 325 323
f 657 651 656
f 657 323 651
f 658 50 46
f 659 658 46
f 659 50 658
f 659 653 50
f 660 653 659
f 660 654 653
f 661 654 660
f 661 655 654
f 661 656 655
f 662 656 661
f 663 656 662
f 663 327 325
f 663 325 657
f 663 657 656
f 664 46 42
f 665 659 46
f 665 46 664
f 665 664 42
f 666 660 659
f 666 659 665
f 667 661 660
f 667 662 661
f 667 660 666
f 668 663 662
f 668 662 667
f 669 327 663
f 669 331 329
f 669 329 327
f 669 663 668
f 670 42 38
f 671 665 42
f 671 42 670
f 671 670 38
f 672 666 665
f 672 665 671
f 672 667 666
f 673 667 672
f 674 668 667
f 674 669 668
f 674 667 673
f 675 331 669
f 675 669 674
f 676 38 34
f 677 676 34
f 677 671 38
f 677 38 676
f 678 671 677
f 678 672 671
f 679 673 672
f 679 672 678
f 680 674 673
f 680 673 679
f 681 333 331
f 681 331 675
f 681 675 674
f 681 674 680
f 682 34 29
f 683 677 34
f 683 34 682
f 683 682 29
f 684 678 677
f 684 677 683
f 685 679 678
f 685 680 679
f 685 678 684
f 686 680 685
f 687 335 333
f 687 333 681
f 687 681 680
f 687 680 686
f 688 29 25
f 689 683 29
f 689 29 688
f 689 688 25
f 690 683 689
f 690 689 25
f 690 684 683
f 691 686 685
f 691 685 684
f 691 684 690
f 692 686 691
f 693 686 692
f 693 339 337
f 693 337 335
f 693 335 687
f 693 687 686
f 694 25 18
f 695 25 694
f 695 694 18
f 696 695 18
f 696 25 695
f 696 690 25
f 697 690 696
f 697 691 690
f 698 692 691
f 698 691 697
f 699 693 692
f 699 692 698
f 699 339 693
f 700 18 14
f 701 18 700
f 701 700 14
f 702 696 18
f 702 18 701
f 702 701 14
f 703 697 696
f 703 698 697
f 703 696 702
f 704 699 698
f 704 698 703
f 705 341 339
f 705 339 699
f 705 699 704
f 706 14 10
f 707 14 706
f 707 706 10
f 708 702 14
f 708 14 707
f 708 707 10
f 709 702 708
f 709 703 702
f 710 704 703
f 710 703 709
f 711 292 341
f 711 341 705
f 711 705 704
f 711 704 710
f 712 10 6
f 713 712 6
f 713 10 712
f 714 713 6
f 714 708 10
f 714 10 713
f 715 709 708
f 715 708 714
f 716 709 715
f 716 710 709
f 716 711 710
f 717 293 292
f 717 711 716
f 717 292 711
f 718 6 1
f 719 6 718
f 719 718 1
f 720 714 6
f 720 6 719
f 720 719 1
f 721 714 720
f 721 715 714
f 721 716 715
f 722 716 721
f 723 297 295
f 723 295 293
f 723 293 717
f 723 717 716
f 723 716 722
f 724 1 3
f 725 1 724
f 725 724 3
f 726 1 725
f 726 725 3
f 726 721 720
f 726 720 1
f 727 721 726
f 728 721 727
f 728 722 721
f 729 299 297
f 729 722 728
f 729 297 723
f 729 723 722
f 730 3 5
f 731 730 5
f 731 3 730
f 732 3 731
f 732 726 3
f 732 727 726
f 733 727 732
f 734 728 727
f 734 727 733
f 735 728 734
f 735 299 729
f 735 729 728
f 735 301 299
f 736 5 9
f 737 5 736
f 737 736 9
f 737 731 5
f 738 733 732
f 738 731 737
f 738 732 731
f 739 733 738
f 740 735 734
f 740 734 733
f 740 733 739
f 741 301 735
f 741 735 740
f 742 9 13
f 743 737 9
f 743 738 737
f 743 742 13
f 743 9 742
f 744 738 743
f 745 739 738
f 745 738 744
f 746 740 739
f 746 739 745
f 746 741 740
f 747 303 301
f 747 301 741
f 747 741 746
f 748 13 17
f 749 743 13
f 749 748 17
f 749 13 748
f 750 744 743
f 750 743 749
f 751 744 750
f 751 745 744
f 752 746 745
f 752 745 751
f 753 307 305
f 753 305 303
f 753 303 747
f 753 747 746
f 753 746 752
f 754 17 21
f 755 754 21
f 755 749 17
f 755 750 749
f 755 17 754
f 756 750 755
f 757 751 750
f 757 750 756
f 758 752 751
f 758 751 757
f 759 307 753
f 759 753 752
f 759 752 758
f 760 21 24
f 761 760 24
f 761 21 760
f 761 755 21
f 762 756 755
f 762 755 761
f 763 756 762
f 763 757 756
f 764 757 763
f 764 758 757
f 765 759 758
f 765 311 309
f 765 309 307
f 765 758 764
f 765 307 759
f 766 24 28
f 767 761 24
f 767 24 766
f 768 762 761
f 768 763 762
f 768 761 767
f 769 764 763
f 769 763 768
f 770 764 769
f 770 765 764
f 771 765 770
f 771 311 765
f 772 766 28
f 772 28 32
f 773 767 766
f 773 766 772
f 774 768 767
f 774 767 773
f 775 768 774
f 775 769 768
f 776 770 769
f 776 769 775
f 777 313 311
f 777 311 771
f 777 771 770
f 777 770 776
f 778 32 36
f 778 772 32
f 778 36 628
f 779 773 772
f 779 772 778
f 779 778 628
f 779 628 632
f 780 774 773
f 780 773 779
f 780 779 632
f 780 632 634
f 781 775 774
f 781 776 775
f 781 774 780
f 781 634 636
f 781 780 634
f 782 636 638
f 782 776 781
f 782 781 636
f 783 315 313
f 783 782 638
f 783 313 777
f 783 777 776
f 783 638 629
f 783 776 782
f 783 629 315
f 784 374 376
f 785 376 379
f 785 784 376
f 786 373 374
f 786 374 784
f 787 379 380
f 787 785 379
f 788 370 373
f 788 373 786
f 789 787 380
f 383 789 380
f 790 368 370
f 790 370 788
f 791 789 383
f 366 368 790
f 792 366 790
f 384 791 383
f 793 791 384
f 364 366 792
f 794 364 792
f 386 793 384
f 795 793 386
f 362 364 794
f 796 362 794
f 389 795 386
f 389 797 795
f 361 796 798
f 361 362 796
f 390 797 389
f 390 799 797
f 358 361 798
f 358 798 800
f 393 799 390
f 393 801 799
f 357 358 800
f 357 800 802
f 342 801 393
f 342 803 801
f 804 803 342
f 354 357 802
f 354 802 805
f 345 804 342
f 352 354 805
f 352 805 806
f 346 804 345
f 346 807 804
f 350 352 806
f 350 806 808
f 348 809 807
f 348 808 809
f 348 807 346
f 348 350 808
f 810 790 788
f 811 788 786
f 811 810 788
f 812 786 784
f 812 811 786
f 813 784 785
f 813 812 784
f 814 785 787
f 814 813 785
f 815 787 789
f 815 814 787
f 816 789 791
f 816 815 789
f 817 791 793
f 817 816 791
f 818 793 795
f 818 817 793
f 819 818 795
f 820 795 797
f 820 797 799
f 820 819 795
f 821 820 799
f 822 821 799
f 822 799 801
f 823 822 801
f 823 801 803
f 824 823 803
f 824 803 804
f 824 804 807
f 825 824 807
f 825 807 809
f 826 825 809
f 827 826 809
f 827 809 808
f 827 808 806
f 828 827 806
f 829 828 806
f 829 806 805
f 829 805 802
f 830 829 802
f 831 830 802
f 831 802 800
f 832 831 800
f 832 800 798
f 832 798 796
f 833 832 796
f 833 796 794
f 834 833 794
f 835 794 792
f 835 792 790
f 835 834 794
f 810 835 790
f 427 813 429
f 429 814 431
f 813 814 429
f 424 812 427
f 427 812 813
f 431 815 433
f 814 815 431
f 423 811 424
f 424 811 812
f 815 816 433
f 816 434 433
f 421 810 423
f 423 810 811
f 816 817 434
f 419 835 421
f 421 835 810
f 817 437 434
f 817 818 437
f 416 834 419
f 419 834 835
f 818 438 437
f 818 819 438
f 415 833 416
f 416 833 834
f 819 441 438
f 820 441 819
f 415 832 833
f 415 413 832
f 820 443 441
f 821 443 820
f 413 831 832
f 413 411 831
f 821 444 443
f 822 444 821
f 411 408 831
f 831 408 830
f 408 829 830
f 822 395 444
f 823 395 822
f 823 824 395
f 408 406 829
f 824 396 395
f 829 405 828
f 406 405 829
f 825 399 824
f 824 399 396
f 828 403 827
f 405 403 828
f 827 401 826
f 826 401 825
f 825 401 399
f 403 401 827
f 836 426 428
f 837 428 430
f 837 836 428
f 838 425 426
f 838 426 836
f 839 430 432
f 839 837 430
f 840 422 425
f 840 425 838
f 841 839 432
f 435 841 432
f 842 420 422
f 842 422 840
f 843 841 435
f 418 420 842
f 844 418 842
f 436 843 435
f 845 843 436
f 417 418 844
f 846 417 844
f 439 845 436
f 847 845 439
f 414 417 846
f 848 414 846
f 440 849 847
f 440 847 439
f 412 414 848
f 412 848 850
f 442 849 440
f 442 851 849
f 410 412 850
f 410 850 852
f 445 851 442
f 445 853 851
f 409 410 852
f 409 852 854
f 394 853 445
f 394 855 853
f 407 409 854
f 407 854 856
f 397 855 394
f 397 857 855
f 404 407 856
f 404 856 858
f 398 859 857
f 398 860 859
f 398 857 397
f 402 858 861
f 402 404 858
f 400 402 861
f 400 861 860
f 400 860 398
f 862 842 840
f 863 840 838
f 863 862 840
f 864 838 836
f 864 863 838
f 865 836 837
f 865 864 836
f 866 837 839
f 866 865 837
f 867 839 841
f 867 866 839
f 868 841 843
f 868 867 841
f 869 843 845
f 869 868 843
f 870 845 847
f 870 869 845
f 871 870 847
f 872 847 849
f 872 849 851
f 872 871 847
f 873 872 851
f 874 873 851
f 874 851 853
f 875 874 853
f 875 853 855
f 876 875 855
f 876 855 857
f 876 857 859
f 877 876 859
f 877 859 860
f 878 877 860
f 879 878 860
f 879 860 861
f 879 861 858
f 880 879 858
f 881 880 858
f 881 858 856
f 881 856 854
f 882 881 854
f 883 882 854
f 883 854 852
f 884 883 852
f 884 852 850
f 884 850 848
f 885 884 848
f 885 848 846
f 886 885 846
f 887 846 844
f 887 886 846
f 862 844 842
f 862 887 844
f 479 865 481
f 481 866 482
f 865 866 481
f 476 864 479
f 479 864 865
f 482 867 485
f 866 867 482
f 475 863 476
f 476 863 864
f 867 868 485
f 868 487 485
f 473 862 475
f 475 862 863
f 868 869 487
f 471 887 473
f 473 887 862
f 869 488 487
f 869 870 488
f 468 886 471
f 471 886 887
f 870 491 488
f 870 871 491
f 467 885 468
f 468 885 886
f 872 492 871
f 871 492 491
f 467 884 885
f 467 465 884
f 873 495 872
f 872 495 492
f 465 463 884
f 884 463 883
f 873 496 495
f 874 496 873
f 463 460 883
f 883 460 882
f 874 448 496
f 875 448 874
f 875 876 448
f 882 458 881
f 460 458 882
f 881 458 880
f 876 449 448
f 458 457 880
f 878 451 877
f 877 451 876
f 876 451 449
f 880 454 879
f 879 454 878
f 457 454 880
f 454 453 878
f 878 453 451
f 888 478 480
f 889 480 483
f 889 888 480
f 890 477 478
f 890 478 888
f 891 483 484
f 891 889 483
f 892 474 477
f 892 477 890
f 893 891 484
f 486 893 484
f 894 472 474
f 894 474 892
f 895 893 486
f 470 472 894
f 896 470 894
f 489 895 486
f 897 895 489
f 469 470 896
f 898 469 896
f 490 897 489
f 899 897 490
f 466 469 898
f 900 466 898
f 493 901 899
f 493 899 490
f 464 466 900
f 464 900 902
f 494 901 493
f 494 903 901
f 462 464 902
f 462 902 904
f 497 903 494
f 497 905 903
f 461 462 904
f 461 904 906
f 447 905 497
f 447 907 905
f 459 461 906
f 459 906 908
f 446 907 447
f 446 909 907
f 456 459 908
f 456 908 910
f 450 911 909
f 450 912 911
f 450 909 446
f 455 910 913
f 455 456 910
f 452 455 913
f 452 913 912
f 452 912 450
f 914 894 892
f 915 892 890
f 915 914 892
f 916 890 888
f 916 915 890
f 917 888 889
f 917 916 888
f 918 889 891
f 918 917 889
f 919 891 893
f 919 918 891
f 920 893 895
f 920 919 893
f 921 895 897
f 921 920 895
f 922 897 899
f 922 921 897
f 923 922 899
f 924 899 901
f 924 901 903
f 924 923 899
f 925 924 903
f 926 925 903
f 926 903 905
f 927 926 905
f 927 905 907
f 928 927 907
f 928 907 909
f 928 909 911
f 929 928 911
f 929 911 912
f 930 929 912
f 931 930 912
f 931 912 913
f 931 913 910
f 932 931 910
f 933 932 910
f 933 910 908
f 933 908 906
f 934 933 906
f 935 934 906
f 935 906 904
f 936 935 904
f 936 904 902
f 936 902 900
f 937 936 900
f 937 900 898
f 938 937 898
f 939 898 896
f 939 938 898
f 914 896 894
f 914 939 896
f 530 917 533
f 533 918 535
f 917 918 533
f 529 916 530
f 530 916 917
f 535 919 537
f 918 919 535
f 526 915 529
f 529 915 916
f 919 920 537
f 920 538 537
f 525 914 526
f 526 914 915
f 920 921 538
f 522 939 525
f 525 939 914
f 921 541 538
f 921 922 541
f 521 938 522
f 522 938 939
f 922 542 541
f 922 923 542
f 518 937 521
f 521 937 938
f 924 545 923
f 923 545 542
f 518 936 937
f 518 516 936
f 925 547 924
f 924 547 545
f 516 515 936
f 936 515 935
f 925 549 547
f 926 549 925
f 515 513 935
f 935 513 934
f 926 500 549
f 927 500 926
f 927 928 500
f 934 511 933
f 513 511 934
f 933 511 932
f 928 501 500
f 511 509 932
f 930 503 929
f 929 503 928
f 928 503 501
f 932 507 931
f 931 507 930
f 509 507 932
f 507 505 930
f 930 505 503
f 940 531 532
f 941 532 534
f 941 940 532
f 942 528 531
f 942 531 940
f 943 534 536
f 943 941 534
f 944 527 528
f 944 528 942
f 945 943 536
f 539 945 536
f 946 524 527
f 946 527 944
f 947 945 539
f 523 524 946
f 948 523 946
f 540 947 539
f 949 947 540
f 520 523 948
f 950 520 948
f 543 949 540
f 951 949 543
f 519 520 950
f 952 519 950
f 544 953 951
f 544 951 543
f 517 519 952
f 517 952 954
f 546 953 544
f 546 955 953
f 514 517 954
f 514 954 956
f 548 955 546
f 548 957 955
f 512 514 956
f 512 956 958
f 499 957 548
f 499 959 957
f 510 512 958
f 510 958 960
f 498 959 499
f 498 961 959
f 508 510 960
f 508 960 962
f 502 963 961
f 502 964 963
f 502 961 498
f 506 962 965
f 506 508 962
f 504 506 965
f 504 965 964
f 504 964 502
f 966 946 944
f 967 944 942
f 967 966 944
f 968 942 940
f 968 967 942
f 969 940 941
f 969 968 940
f 970 941 943
f 970 969 941
f 971 943 945
f 971 970 943
f 972 945 947
f 972 971 945
f 973 947 949
f 973 972 947
f 974 949 951
f 974 973 949
f 975 974 951
f 976 951 953
f 976 953 955
f 976 975 951
f 977 976 955
f 978 977 955
f 978 955 957
f 979 978 957
f 979 957 959
f 980 979 959
f 980 959 961
f 980 961 963
f 981 980 963
f 981 963 964
f 982 981 964
f 983 982 964
f 983 964 965
f 983 965 962
f 984 983 962
f 985 984 962
f 985 962 960
f 985 960 958
f 986 985 958
f 987 986 958
f 987 958 956
f 988 987 956
f 988 956 954
f 988 954 952
f 989 988 952
f 989 952 950
f 990 989 950
f 991 950 948
f 991 990 950
f 966 948 946
f 966 991 948
f 566 969 567
f 567 970 568
f 969 970 567
f 565 968 566
f 566 968 969
f 568 971 569
f 970 971 568
f 564 967 565
f 565 967 968
f 971 972 569
f 972 570 569
f 563 966 564
f 564 966 967
f 972 973 570
f 562 991 563
f 563 991 966
f 973 571 570
f 973 974 571
f 561 990 562
f 562 990 991
f 974 572 571
f 974 975 572
f 560 989 561
f 561 989 990
f 976 573 975
f 975 573 572
f 560 988 989
f 560 559 988
f 977 574 976
f 976 574 573
f 559 558 988
f 988 558 987
f 977 575 574
f 978 575 977
f 558 557 987
f 987 557 986
f 978 550 575
f 979 550 978
f 979 980 550
f 986 556 985
f 557 556 986
f 985 556 984
f 980 551 550
f 556 555 984
f 982 552 981
f 981 552 980
f 980 552 551
f 984 554 983
f 983 554 982
f 555 554 984
f 554 553 982
f 982 553 552
