# smartdrone2 body-local mesh, millimetres
v 16.333692 6.565916 -14.559884
v 16.367037 6.531249 -14.688994
v 16.207545 6.531250 -14.446503
v 16.457580 6.604536 -14.708711
v 16.466306 6.531249 -14.961731
v 16.555571 6.640988 -14.869628
v 16.631381 6.677312 -15.046465
v 16.499992 6.531231 -15.250009
v 16.684999 6.716246 -15.250689
v 16.707809 6.753726 -15.458919
v 16.479619 6.548595 -15.556920
v 16.695293 6.797467 -15.708441
v 16.566640 7.000000 -16.354792
v 16.271643 7.000000 -16.632154
v 16.490797 6.900994 -16.291152
v 14.728956 7.000000 -16.887870
v 14.360244 7.000000 -16.720524
v 14.561107 6.679234 -16.466463
v 13.788688 7.000000 -16.154806
v 13.617566 7.000000 -15.787832
v 13.924939 6.725144 -15.823630
v 13.819163 6.740170 -15.534970
v 13.537043 7.000000 -15.391008
v 13.776311 6.755070 -15.230246
v 13.551590 7.000000 -14.986358
v 13.797858 6.769851 -14.922458
v 13.660398 7.000000 -14.596340
v 13.882720 6.784518 -14.625210
v 13.857430 7.000000 -14.242601
v 14.027326 6.799127 -14.350545
v 14.224258 6.813538 -14.111722
v 14.131749 7.000000 -13.944772
v 14.465081 6.827806 -13.917431
v 14.468132 7.000000 -13.719384
v 14.739746 6.841919 -13.775100
v 14.847908 7.000000 -13.578944
v 14.990238 6.853798 -13.699054
v 15.250000 7.000000 -13.531249
v 15.250000 6.865545 -13.665704
v 16.626295 6.765625 -15.806043
v 16.385541 6.565750 -15.850402
v 16.641776 6.839687 -15.951670
v 16.341484 6.765625 -16.255998
v 16.224856 6.582606 -16.112066
v 16.007378 6.599262 -16.328654
v 15.916198 6.765625 -16.576481
v 15.746420 6.615641 -16.488613
v 15.919945 7.000000 -16.832807
v 15.405171 6.765625 -16.726243
v 15.455764 6.631817 -16.584801
v 15.151119 6.647828 -16.612996
v 15.126586 7.000000 -16.964314
v 15.531065 7.000000 -16.945614
v 14.874173 6.765625 -16.686010
v 14.848030 6.663606 -16.572623
v 14.391545 6.765625 -16.460961
v 14.304077 6.694700 -16.300278
v 14.040914 7.000000 -16.471563
v 14.019401 6.765625 -16.080059
v 14.088774 6.710000 -16.082410
v 13.805638 6.765625 -15.592327
v 15.467044 2.468750 -16.481013
v 15.779176 2.405193 -16.452357
v 15.745093 2.468751 -16.397773
v 15.996449 2.468751 -16.252653
v 16.065674 2.346527 -16.353746
v 16.263076 2.303697 -16.238108
v 16.207556 2.468769 -16.053472
v 16.434114 2.263406 -16.096335
v 16.389230 2.451405 -15.805264
v 16.585975 2.222717 -15.923652
v 16.700609 2.186081 -15.744828
v 16.505807 2.434250 -15.519974
v 16.793676 2.148281 -15.540121
v 16.968751 2.000000 -15.250000
v 16.925658 2.000000 -14.867542
v 16.869745 2.099006 -15.250000
v 15.528303 2.322022 -13.881280
v 15.250000 2.000000 -13.531249
v 15.250000 2.307791 -13.839040
v 15.632458 2.000000 -13.574342
v 16.729911 2.234375 -15.365038
v 16.550908 2.417395 -15.216258
v 16.687456 2.234375 -14.879744
v 16.523534 2.400740 -14.910558
v 16.426459 2.384361 -14.620291
v 16.798541 2.000000 -14.504262
v 16.490181 2.234375 -14.434328
v 16.265650 2.368186 -14.359786
v 16.593774 2.000000 -14.178376
v 16.159333 2.234375 -14.076763
v 16.050422 2.352176 -14.142367
v 15.792337 2.336400 -13.978479
v 15.995738 2.000000 -13.701459
v 16.321624 2.000000 -13.906226
v 15.730545 2.234375 -13.845562
v 14.000000 6.257826 -15.250000
v 14.029385 6.203969 -14.980557
v 14.000000 6.179682 -15.250000
v 14.035099 6.284406 -14.955866
v 14.116291 6.228333 -14.723499
v 14.138331 6.310984 -14.678430
v 14.278763 6.255871 -14.463108
v 14.310489 6.338433 -14.425488
v 14.499814 6.283404 -14.250139
v 14.539751 6.365976 -14.221386
v 14.766104 6.310982 -14.097462
v 14.811835 6.393547 -14.079312
v 15.061534 6.338519 -14.014289
v 15.110312 6.421078 -14.007830
v 15.368332 6.366046 -14.005614
v 15.417219 6.448613 -14.011235
v 15.668038 6.393621 -14.071975
v 15.714106 6.476194 -14.089351
v 15.942520 6.421163 -14.209368
v 15.982772 6.503708 -14.237308
v 16.175101 6.448683 -14.409353
v 16.351619 6.476156 -14.659292
v 16.462337 6.503702 -14.945468
v 14.000000 5.554693 -15.250000
v 14.019559 5.496383 -15.029738
v 14.000000 5.476530 -15.250000
v 14.021988 5.575740 -15.016574
v 14.077626 5.516175 -14.816365
v 14.087180 5.596731 -14.791362
v 14.219430 5.543864 -14.542592
v 14.234116 5.624325 -14.521660
v 14.423824 5.571524 -14.311953
v 14.442351 5.651876 -14.295954
v 14.677622 5.599089 -14.138747
v 14.699322 5.679422 -14.127835
v 14.966450 5.626724 -14.032586
v 14.989075 5.706950 -14.027537
v 15.272407 5.654346 -14.000201
v 15.294342 5.734463 -14.000787
v 15.577597 5.681992 -14.043692
v 15.596660 5.761930 -14.049031
v 15.862852 5.709662 -14.160545
v 15.878828 5.789483 -14.169687
v 16.110865 5.737357 -14.343682
v 16.123257 5.817050 -14.355616
v 16.306509 5.765002 -14.581951
v 16.314984 5.844588 -14.595547
v 16.437873 5.792670 -14.860824
v 16.442406 5.872168 -14.874943
v 16.496995 5.820361 -15.163375
v 16.497865 5.899736 -15.176968
v 16.480381 5.847969 -15.470592
v 16.478010 5.927273 -15.483435
v 16.389201 5.875571 -15.764511
v 16.384025 5.954857 -15.775820
v 16.229261 5.903163 -16.026883
v 16.221708 5.982401 -16.036310
v 16.009419 5.930819 -16.242866
v 16.001461 6.009862 -16.248902
v 15.743293 5.958477 -16.398548
v 15.735807 6.037383 -16.401733
v 15.447197 5.986172 -16.484347
v 15.440865 6.064908 -16.485342
v 15.139125 6.013834 -16.495073
v 15.133925 6.092448 -16.494599
v 14.837774 6.041481 -16.430072
v 14.833988 6.120011 -16.428742
v 14.561471 6.069178 -16.293278
v 14.559122 6.147597 -16.291723
v 14.327085 6.096843 -16.093047
v 14.325983 6.175134 -16.091839
v 14.148975 6.124481 -15.841814
v 14.148627 6.202694 -15.841166
v 14.037818 6.152077 -15.555147
v 14.037731 6.230280 -15.554802
v 14.000000 4.851594 -15.250000
v 14.005880 4.784290 -15.128902
v 14.000000 4.773424 -15.250000
v 14.022301 4.872747 -15.014936
v 14.023423 4.795116 -15.009154
v 14.075375 4.812499 -14.822472
v 14.088223 4.893883 -14.788725
v 14.144809 4.827812 -14.666004
v 14.235385 4.921372 -14.519893
v 14.234988 4.843177 -14.520445
v 14.443348 4.870696 -14.295112
v 14.443498 4.948868 -14.294984
v 14.700466 4.898257 -14.127274
v 14.700612 4.976445 -14.127203
v 14.990720 4.925836 -14.027186
v 14.990861 5.004000 -14.027156
v 15.296658 4.953372 -14.000871
v 15.296775 5.031532 -14.000875
v 15.599749 4.980927 -14.049927
v 15.599871 5.059114 -14.049962
v 15.881510 5.008472 -14.171253
v 15.881823 5.086671 -14.171436
v 16.124770 5.035941 -14.357096
v 16.125668 5.114203 -14.357977
v 16.315666 5.063440 -14.596659
v 16.316710 5.141779 -14.598364
v 16.442656 5.090966 -14.875740
v 16.443125 5.169264 -14.877238
v 16.497910 5.118512 -15.177744
v 16.497973 5.196755 -15.178846
v 16.477878 5.146052 -15.484129
v 16.477854 5.224236 -15.484253
v 16.383752 5.173640 -15.776410
v 16.383708 5.251811 -15.776503
v 16.221239 5.201186 -16.036889
v 16.221163 5.279340 -16.036983
v 16.000136 5.228723 -16.249898
v 16.000048 5.306902 -16.249964
v 15.733745 5.256304 -16.402602
v 15.733677 5.334477 -16.402630
v 15.438195 5.283853 -16.485752
v 15.438087 5.362012 -16.485768
v 15.132275 5.311307 -16.494444
v 15.131177 5.389573 -16.494340
v 14.832938 5.338841 -16.428371
v 14.831685 5.417112 -16.427927
v 14.558937 5.366326 -16.291600
v 14.557931 5.444579 -16.290932
v 14.325860 5.393861 -16.091704
v 14.325552 5.472078 -16.091364
v 14.148566 5.421433 -15.841053
v 14.148544 5.499607 -15.841012
v 14.037715 5.448999 -15.554738
v 14.037707 5.527148 -15.554707
v 14.000000 4.148450 -15.250000
v 14.015019 4.165817 -15.056812
v 14.000000 4.070279 -15.250000
v 14.022033 4.091347 -15.016340
v 14.039508 4.176675 -14.938216
v 14.087552 4.112418 -14.790421
v 14.075376 4.187501 -14.822471
v 14.143639 4.202636 -14.668224
v 14.234101 4.139901 -14.521680
v 14.231899 4.217709 -14.524762
v 14.439201 4.245253 -14.298630
v 14.442305 4.167469 -14.295993
v 14.695306 4.272791 -14.129815
v 14.699223 4.195002 -14.127884
v 14.985103 4.300332 -14.028391
v 14.989346 4.222568 -14.027478
v 15.290065 4.327827 -14.000642
v 15.295214 4.250140 -14.000818
v 15.593569 4.355407 -14.048143
v 15.598385 4.277671 -14.049530
v 15.876335 4.382954 -14.168240
v 15.880499 4.305238 -14.170661
v 16.121242 4.410539 -14.353653
v 16.124569 4.332808 -14.356899
v 16.315900 4.360340 -14.597040
v 16.313540 4.438121 -14.593203
v 16.442918 4.387904 -14.876573
v 16.441621 4.465667 -14.872457
v 16.497904 4.415384 -15.177655
v 16.497717 4.493254 -15.174489
v 16.477929 4.442910 -15.483858
v 16.478459 4.520835 -15.481058
v 16.383875 4.470466 -15.776145
v 16.385008 4.548384 -15.773696
v 16.221402 4.498049 -16.036689
v 16.222988 4.575966 -16.034726
v 16.000348 4.525585 -16.249739
v 16.002955 4.603463 -16.247777
v 15.734032 4.553131 -16.402481
v 15.737075 4.631002 -16.401199
v 15.438476 4.580717 -16.485709
v 15.441588 4.658572 -16.485230
v 15.131559 4.608255 -16.494376
v 15.134499 4.686169 -16.494652
v 14.831814 4.635801 -16.427973
v 14.834432 4.713718 -16.428899
v 14.557288 4.663380 -16.290504
v 14.559472 4.741282 -16.291955
v 14.324971 4.690870 -16.090725
v 14.326189 4.768882 -16.092065
v 14.148161 4.718368 -15.840298
v 14.148700 4.796437 -15.841302
v 14.037553 4.745932 -15.554091
v 14.037744 4.824001 -15.554855
v 14.000000 3.445346 -15.250000
v 14.019541 3.386977 -15.029842
v 14.000000 3.367175 -15.250000
v 14.037761 3.472903 -14.945078
v 14.077550 3.406805 -14.816570
v 14.148770 3.500473 -14.658567
v 14.219238 3.434466 -14.542872
v 14.326344 3.528080 -14.407765
v 14.423598 3.462105 -14.312151
v 14.559704 3.555637 -14.207891
v 14.678242 3.489791 -14.138428
v 14.834761 3.583204 -14.070985
v 14.967548 3.517447 -14.032330
v 15.134935 3.610810 -14.005307
v 15.273071 3.545005 -14.000213
v 15.442061 3.638373 -14.014843
v 15.577667 3.572640 -14.043711
v 15.736671 3.665850 -14.098631
v 15.862295 3.600249 -14.160232
v 16.002452 3.693407 -14.251844
v 16.110342 3.627889 -14.343186
v 16.222687 3.720905 -14.464902
v 16.306070 3.655558 -14.581259
v 16.384836 3.748466 -14.725933
v 16.437607 3.683243 -14.860014
v 16.478394 3.776064 -15.018593
v 16.496934 3.710883 -15.162500
v 16.497734 3.803640 -15.325233
v 16.480440 3.738549 -15.470268
v 16.441679 3.831194 -15.627362
v 16.389141 3.766233 -15.764644
v 16.313611 3.858797 -15.906682
v 16.228933 3.793839 -16.027295
v 16.121297 3.886374 -16.146293
v 16.009430 3.821435 -16.242857
v 15.876332 3.913928 -16.331762
v 15.744314 3.849022 -16.398108
v 15.594125 3.941454 -16.451697
v 15.448474 3.876667 -16.484143
v 15.291133 3.969000 -16.499323
v 15.140417 3.904323 -16.495187
v 14.986118 3.996472 -16.471829
v 14.839052 3.932014 -16.430517
v 14.696121 4.024045 -16.370588
v 14.562696 3.959666 -16.294085
v 14.439461 4.051640 -16.201592
v 14.328112 3.987311 -16.094169
v 14.231811 4.079191 -15.975114
v 14.149556 4.015004 -15.842894
v 14.085691 4.106774 -15.704846
v 14.037932 4.042660 -15.555601
v 14.021600 4.127627 -15.481372
v 15.982952 2.496298 -16.262562
v 15.714186 2.523845 -16.410617
v 15.418312 2.551318 -16.488616
v 15.302608 2.483538 -16.498892
v 15.111592 2.578837 -16.492314
v 15.137253 2.498375 -16.494905
v 14.836793 2.525949 -16.429729
v 14.813010 2.606380 -16.421128
v 14.561079 2.553595 -16.293018
v 14.540767 2.633954 -16.279315
v 14.327176 2.581207 -16.093146
v 14.311324 2.661482 -16.075462
v 14.149176 2.608800 -15.842189
v 14.138474 2.689019 -15.821848
v 14.037859 2.636437 -15.555311
v 14.035113 2.715634 -15.544193
v 14.000000 2.664057 -15.250000
v 14.000000 2.742201 -15.250000
v 12.132309 2.000000 -15.250000
v 13.838021 2.000000 -14.269990
v 13.691154 2.000000 -12.550000
v 14.112750 2.000000 -13.961292
v 14.453222 2.000000 -13.727092
v 13.644915 2.000000 -14.635340
v 14.839753 2.000000 -13.580928
v 13.544596 2.000000 -15.036222
v 13.542862 2.000000 -15.449462
v 16.808846 2.000000 -12.550000
v 13.639815 2.000000 -15.851172
v 13.829848 2.000000 -16.218129
v 14.101978 2.000000 -16.529121
v 13.691154 2.000000 -17.950000
v 14.440473 2.000000 -16.766170
v 14.825764 2.000000 -16.915572
v 15.235580 2.000000 -16.968690
v 17.041222 2.000000 -15.250000
v 16.985526 2.000000 -15.538260
v 18.367691 2.000000 -15.250000
v 16.926709 2.000000 -15.711872
v 16.849850 2.000000 -15.878097
v 16.653707 2.000000 -16.241822
v 16.376397 2.000000 -16.548204
v 16.808846 2.000000 -17.950000
v 16.033973 2.000000 -16.779539
v 15.646229 2.000000 -16.922456
v 12.132309 7.000000 -15.250000
v 13.691154 7.000000 -17.950000
v 16.808846 7.000000 -17.950000
v 18.367691 7.000000 -15.250000
v 16.808846 7.000000 -12.550000
v 13.691154 7.000000 -12.550000
v 15.653295 7.000000 -13.579234
v 16.034071 7.000000 -13.720511
v 16.371066 7.000000 -13.947189
v 16.645464 7.000000 -14.246614
v 16.622156 7.000000 -16.401375
v 16.879289 7.000000 -15.797214
v 16.962225 7.000000 -15.399635
v 16.949533 7.000000 -14.993694
v 16.841944 7.000000 -14.602064
v 16.764780 7.000000 -16.144755
v 16.831319 7.000000 -15.973953
v 16.931650 6.961221 -15.866910
v 17.011150 6.942401 -15.576703
v 16.719278 6.990013 -16.274474
v 16.804894 6.980010 -16.139218
v 13.750059 4.525655 -14.270869
v 13.946767 4.427107 -14.303146
v 13.566793 4.500000 -14.637363
v 14.013194 4.551427 -13.954374
v 14.092745 4.322930 -14.409205
v 14.341715 4.577210 -13.706100
v 14.367939 4.467732 -13.902070
v 14.718162 4.602984 -13.539523
v 14.466741 4.363555 -14.053054
v 15.132911 4.629382 -13.462618
v 14.904086 4.508357 -13.676694
v 14.942833 4.404180 -13.852924
v 15.555656 4.655907 -13.485010
v 15.485323 4.548982 -13.656397
v 15.813891 4.672535 -13.549864
v 15.458964 4.444805 -13.834900
v 16.144413 4.695218 -13.698014
v 16.035885 4.589607 -13.843824
v 16.366266 4.711995 -13.849166
v 15.947857 4.485430 -14.001333
v 16.617677 4.733921 -14.093240
v 16.484009 4.630232 -14.214544
v 16.771268 4.750263 -14.304417
v 16.345785 4.526055 -14.330528
v 16.916348 4.770440 -14.592791
v 16.771281 4.670857 -14.720234
v 16.990541 4.785817 -14.826949
v 17.033192 4.801906 -15.080680
v 16.600879 4.566680 -14.779574
v 17.034836 4.821958 -15.401204
v 16.860256 4.711482 -15.294979
v 16.967771 4.844653 -15.757597
v 16.679888 4.607305 -15.289940
v 16.830749 4.867292 -16.092395
v 16.739336 4.752107 -15.863860
v 16.572512 4.647930 -15.795100
v 16.628488 4.890007 -16.393784
v 16.424284 4.792732 -16.352726
v 16.370990 4.912611 -16.647054
v 16.292750 4.688555 -16.229207
v 16.071754 4.934959 -16.841632
v 15.956165 4.833357 -16.697853
v 15.764913 4.955660 -16.965587
v 15.877066 4.729180 -16.535676
v 15.467265 4.974685 -17.028027
v 15.395999 4.873982 -16.854254
v 15.190936 4.991998 -17.040240
v 15.379645 4.769805 -16.674558
v 14.942873 5.007564 -17.014686
v 14.816801 4.914607 -16.801543
v 14.655927 5.026137 -16.939883
v 14.383809 5.044776 -16.817840
v 14.865325 4.810430 -16.627751
v 14.164253 5.061161 -16.674727
v 14.294071 4.955232 -16.546591
v 13.928768 5.081128 -16.459494
v 14.401147 4.851055 -16.401357
v 13.895945 4.995857 -16.122629
v 13.732675 5.101358 -16.202036
v 13.595473 5.120077 -15.936292
v 14.047615 4.891680 -16.024884
v 13.508595 5.137599 -15.669667
v 13.674318 5.036482 -15.584922
v 13.465448 5.154400 -15.404482
v 13.850813 4.932305 -15.547406
v 13.658079 5.077107 -15.003558
v 13.462384 5.171180 -15.136141
v 13.499684 5.188030 -14.869242
v 13.581274 5.205681 -14.598860
v 13.836393 4.972930 -15.031162
v 13.712867 5.224400 -14.330303
v 13.849344 5.117732 -14.454317
v 13.861137 5.240532 -14.118811
v 14.006235 5.013555 -14.543443
v 14.041637 5.256976 -13.927663
v 14.223184 5.158357 -14.008792
v 14.239950 5.272800 -13.770721
v 14.458140 5.288571 -13.643306
v 14.338200 5.054180 -14.147823
v 14.719800 5.306210 -13.539006
v 14.730867 5.198982 -13.725058
v 14.983107 5.323092 -13.478805
v 14.789017 5.094805 -13.895870
v 15.243896 5.339438 -13.458758
v 15.306219 5.239607 -13.640097
v 15.494724 5.355181 -13.475585
v 15.299922 5.135430 -13.820426
v 15.874243 5.280232 -13.764985
v 15.806606 5.375186 -13.547451
v 16.162898 5.399690 -13.708901
v 15.804320 5.176055 -13.931325
v 16.371182 5.415529 -13.853076
v 16.360897 5.320857 -14.083443
v 16.593318 5.434739 -14.065126
v 16.776770 5.454044 -14.313320
v 16.236463 5.216680 -14.214112
v 16.914440 5.473271 -14.588126
v 16.702748 5.361482 -14.553960
v 17.003180 5.492528 -14.882904
v 16.540022 5.257305 -14.631925
v 16.855234 5.402107 -15.115205
v 17.039769 5.511081 -15.177066
v 17.029093 5.528638 -15.457803
v 16.675428 5.297930 -15.130303
v 16.798481 5.442732 -15.694020
v 16.979009 5.545229 -15.718156
v 16.898194 5.560669 -15.951410
v 16.625032 5.338555 -15.644284
v 16.539885 5.483357 -16.214958
v 16.756958 5.579538 -16.218294
v 16.570343 5.598690 -16.460470
v 16.371424 5.615705 -16.646723
v 16.395402 5.379180 -16.106870
v 16.113155 5.523982 -16.610114
v 16.106953 5.635605 -16.822982
v 15.813856 5.655581 -16.950148
v 16.016471 5.419805 -16.457765
v 15.573913 5.564607 -16.827982
v 15.540134 5.673209 -17.017619
v 15.279814 5.689562 -17.040968
v 15.537631 5.460430 -16.651229
v 14.960023 5.709602 -17.017640
v 14.992450 5.605232 -16.840162
v 14.626006 5.731225 -16.929033
v 15.021299 5.501055 -16.662044
v 14.444558 5.645857 -16.645067
v 14.315744 5.752807 -16.778329
v 14.040140 5.774389 -16.570899
v 14.534777 5.541680 -16.488802
v 13.808521 5.796063 -16.313348
v 14.001654 5.686482 -16.268126
v 13.619482 5.819401 -15.991611
v 14.141484 5.582305 -16.154083
v 13.721471 5.727107 -15.758474
v 13.492333 5.845484 -15.595016
v 13.892685 5.622930 -15.701519
v 13.640529 5.767732 -15.182543
v 13.461358 5.873240 -15.153068
v 13.495842 5.889968 -14.887622
v 13.820809 5.663555 -15.190099
v 13.769380 5.808357 -14.615405
v 13.618412 5.914785 -14.510719
v 13.745526 5.931374 -14.277913
v 13.935227 5.704180 -14.686488
v 14.091227 5.848982 -14.130986
v 13.978590 5.954640 -13.988191
v 14.168908 5.970458 -13.821856
v 14.221024 5.744805 -14.256329
v 14.564119 5.889607 -13.792429
v 14.444111 5.990734 -13.650266
v 14.766059 6.012354 -13.525431
v 14.640946 5.785430 -13.955694
v 15.115367 6.034550 -13.463846
v 15.126415 5.930232 -13.643864
v 15.470481 6.056778 -13.472438
v 15.140258 5.826055 -13.823771
v 15.816405 6.078973 -13.550683
v 15.704819 5.970857 -13.704656
v 16.139957 6.101156 -13.695536
v 15.653874 5.866680 -13.877754
v 16.223939 6.011482 -13.966883
v 16.417299 6.122416 -13.891350
v 16.637010 6.142082 -14.116602
v 16.114846 5.907305 -14.110608
v 16.801322 6.160186 -14.354462
v 16.616107 6.052107 -14.396362
v 16.915707 6.176629 -14.591378
v 16.463086 5.947930 -14.491979
v 16.830205 6.092732 -14.937111
v 17.004626 6.196088 -14.889548
v 17.040497 6.215613 -15.199389
v 16.653203 5.988555 -14.972158
v 16.838325 6.133357 -15.518645
v 17.027249 6.232752 -15.473543
v 16.979246 6.248307 -15.717328
v 16.660413 6.029180 -15.488554
v 16.639410 6.173982 -16.065162
v 16.874760 6.267384 -16.004096
v 16.719673 6.286864 -16.274085
v 16.533390 6.305157 -16.499585
v 16.483779 6.069805 -15.973854
v 16.259386 6.214607 -16.505423
v 16.325932 6.322428 -16.682127
v 16.096940 6.339418 -16.828336
v 16.146322 6.110430 -16.364800
v 15.747791 6.255232 -16.782042
v 15.848459 6.356410 -16.938334
v 15.580342 6.373763 -17.010489
v 15.692032 6.151055 -16.610434
v 15.171309 6.295857 -16.858961
v 15.285518 6.392302 -17.040908
v 15.040161 6.407669 -17.028905
v 14.789380 6.423613 -16.981019
v 15.180123 6.191680 -16.678738
v 14.605084 6.336482 -16.726154
v 14.528006 6.440951 -16.889327
v 14.296563 6.457328 -16.766365
v 14.677323 6.232305 -16.560807
v 13.722018 6.508848 -16.184738
v 14.122923 6.377107 -16.400933
v 13.889081 6.491102 -16.414633
v 14.089844 6.473346 -16.614792
v 14.249170 6.272930 -16.272014
v 13.593640 6.526598 -15.931937
v 13.787676 6.417732 -15.925689
v 13.511471 6.543103 -15.681136
v 13.951474 6.313555 -15.850003
v 13.468383 6.558685 -15.435499
v 13.643040 6.458357 -15.362370
v 13.460574 6.575298 -15.170208
v 13.823039 6.354180 -15.349783
v 13.707869 6.498982 -14.784403
v 13.489813 6.591169 -14.918084
v 13.573313 6.610547 -14.619774
v 13.727986 6.632459 -14.305613
v 13.880607 6.394805 -14.836556
v 13.973713 6.539607 -14.267127
v 13.939975 6.654295 -14.028428
v 14.116673 6.435430 -14.377221
v 14.202441 6.676189 -13.797039
v 14.405919 6.580232 -13.877967
v 14.502980 6.697953 -13.621994
v 14.500467 6.476055 -14.031651
v 14.948150 6.620857 -13.667649
v 14.829693 6.719597 -13.508759
v 15.147178 6.739684 -13.461730
v 14.981961 6.516680 -13.844892
v 15.439794 6.757975 -13.468849
v 15.529727 6.661482 -13.663589
v 15.701759 6.774654 -13.516654
v 15.999721 6.794423 -13.623238
v 15.498394 6.557305 -13.841286
v 16.074842 6.702107 -13.866315
v 16.268974 6.813832 -13.776796
v 16.485952 6.831326 -13.953526
v 15.982449 6.597930 -14.021305
v 16.654514 6.846949 -14.138250
v 16.512439 6.742732 -14.249403
v 16.823530 6.866148 -14.394151
v 16.371031 6.638555 -14.361482
v 16.949652 6.885930 -14.684482
v 16.785480 6.783357 -14.762917
v 17.020367 6.904777 -14.977376
v 16.613487 6.679180 -14.817476
v 17.041052 6.923583 -15.277340
v 16.858372 6.823982 -15.339922
v 16.721616 6.864607 -15.905206
v 14.021493 2.684828 -15.019200
v 14.037736 2.769765 -14.945179
v 14.085395 2.705659 -14.795913
v 14.148660 2.797351 -14.658772
v 14.231368 2.733217 -14.525507
v 14.325740 2.824861 -14.408428
v 14.438893 2.760804 -14.298893
v 14.558361 2.852360 -14.208782
v 14.695466 2.788406 -14.129736
v 14.832236 2.879851 -14.071877
v 14.985555 2.815961 -14.028293
v 15.131980 2.907408 -14.005584
v 15.291589 2.843547 -14.000692
v 15.439032 2.934959 -14.014376
v 15.595116 2.871145 -14.048586
v 15.734665 2.962555 -14.097785
v 15.877826 2.898702 -14.169105
v 16.000999 2.990113 -14.250750
v 16.122575 2.926287 -14.354951
v 16.221998 3.017660 -14.464048
v 16.314467 2.953860 -14.594707
v 16.384331 3.045256 -14.724839
v 16.441885 2.981344 -14.873289
v 16.478154 3.072822 -15.017325
v 16.497736 3.008877 -15.174806
v 16.497828 3.100361 -15.323649
v 16.478467 3.036422 -15.481016
v 16.442481 3.127853 -15.624819
v 16.384990 3.063986 -15.773734
v 16.315414 3.155352 -15.903753
v 16.222919 3.091554 -16.034811
v 16.124158 3.182870 -16.143503
v 16.002018 3.119166 -16.248483
v 15.879889 3.210450 -16.329694
v 15.735696 3.146731 -16.401781
v 15.597575 3.238030 -16.450705
v 15.440033 3.174297 -16.485471
v 15.294239 3.265572 -16.499217
v 15.132860 3.201902 -16.494499
v 14.988270 3.293154 -16.472292
v 14.832758 3.229473 -16.428308
v 14.698118 3.320733 -16.371573
v 14.558696 3.256956 -16.291441
v 14.441261 3.348278 -16.203122
v 14.325828 3.284516 -16.091668
v 14.233678 3.375782 -15.977728
v 14.148818 3.312014 -15.841522
v 14.087082 3.403325 -15.708389
v 14.037770 3.339576 -15.554956
v 14.022022 3.424292 -15.483602
v 16.994366 2.025655 -15.657073
v 16.855348 2.051427 -16.044477
v 13.518940 4.490013 -14.789833
v 16.798485 2.135391 -15.694021
v 16.539888 2.176016 -16.214960
v 16.631554 2.077210 -16.390140
v 16.334782 2.102984 -16.675423
v 16.016471 2.320819 -16.457766
v 16.113157 2.216641 -16.610117
v 15.971348 2.129382 -16.889543
v 15.537631 2.361444 -16.651230
v 15.573914 2.257266 -16.827986
v 15.566439 2.155907 -17.013089
v 15.301597 2.172535 -17.040468
v 15.021299 2.402069 -16.662045
v 14.992449 2.297891 -16.840166
v 14.940337 2.195218 -17.014297
v 14.680166 2.211995 -16.948138
v 14.534777 2.442694 -16.488803
v 14.444556 2.338516 -16.645070
v 14.360439 2.233921 -16.804772
v 14.143884 2.250263 -16.658861
v 14.141483 2.483319 -16.154084
v 14.001652 2.379141 -16.268128
v 13.908923 2.270440 -16.437499
v 13.759118 2.285817 -16.242838
v 13.632259 2.301906 -16.018996
v 13.892684 2.523944 -15.701519
v 13.721467 2.419766 -15.758475
v 13.521088 2.321958 -15.718364
v 13.462215 2.344653 -15.360526
v 13.820808 2.564569 -15.190099
v 13.640525 2.460391 -15.182543
v 13.476466 2.367292 -14.999055
v 13.935226 2.605194 -14.686487
v 13.769376 2.501016 -14.615404
v 13.563448 2.390007 -14.646665
v 13.718793 2.412611 -14.320599
v 14.221023 2.645819 -14.256328
v 14.091224 2.541641 -14.130983
v 13.933433 2.434959 -14.035411
v 14.179375 2.455660 -13.813986
v 14.640946 2.686444 -13.955693
v 14.564117 2.582266 -13.792425
v 14.437717 2.474685 -13.653510
v 14.693204 2.491998 -13.547523
v 15.140258 2.727069 -13.823770
v 15.126414 2.622891 -13.643860
v 14.935047 2.507564 -13.486694
v 15.230272 2.526137 -13.458845
v 15.527721 2.544776 -13.480457
v 15.653874 2.767694 -13.877753
v 15.704820 2.663516 -13.704653
v 15.782984 2.561161 -13.539847
v 16.077881 2.581128 -13.661560
v 16.114847 2.808319 -14.110607
v 16.223941 2.704141 -13.966880
v 16.350203 2.601358 -13.836423
v 16.570021 2.620077 -14.039215
v 16.463087 2.848944 -14.491979
v 16.616110 2.744766 -14.396360
v 16.742850 2.637599 -14.260046
v 16.874094 2.654400 -14.494482
v 16.653204 2.889569 -14.972158
v 16.830209 2.785391 -14.937110
v 16.968752 2.671180 -14.745591
v 17.024985 2.688030 -15.009152
v 17.040793 2.705681 -15.291133
v 16.660414 2.930194 -15.488554
v 16.838329 2.826016 -15.518646
v 17.008987 2.724400 -15.588502
v 16.941994 2.740532 -15.837950
v 16.483780 2.970819 -15.973854
v 16.639413 2.866641 -16.065164
v 16.837755 2.756976 -16.079305
v 16.705080 2.772800 -16.294610
v 16.543627 2.788571 -16.488966
v 16.146323 3.011444 -16.364801
v 16.259388 2.907266 -16.505426
v 16.333419 2.806210 -16.676469
v 16.106582 2.823092 -16.823096
v 15.692032 3.052069 -16.610435
v 15.747792 2.947891 -16.782045
v 15.868377 2.839438 -16.931129
v 15.626920 2.855181 -17.001105
v 15.180123 3.092694 -16.678739
v 15.171309 2.988516 -16.858964
v 15.309268 2.875186 -17.040244
v 14.919245 2.899690 -17.010389
v 14.677322 3.133319 -16.560808
v 14.605083 3.029141 -16.726157
v 14.674210 2.915529 -16.946146
v 14.392945 2.934739 -16.822859
v 14.135669 2.954044 -16.652378
v 14.249169 3.173944 -16.272015
v 14.122921 3.069766 -16.400935
v 13.912312 2.973271 -16.441230
v 13.728104 2.992528 -16.194581
v 13.951473 3.214569 -15.850004
v 13.787672 3.110391 -15.925690
v 13.593113 3.011081 -15.930673
v 13.507127 3.028638 -15.663216
v 13.823038 3.255194 -15.349783
v 13.643036 3.151016 -15.362370
v 13.465144 3.045229 -15.401434
v 13.461308 3.060669 -15.154606
v 13.880606 3.295819 -14.836556
v 13.707866 3.191641 -14.784402
v 13.502747 3.079538 -14.855512
v 13.595278 3.098690 -14.564115
v 13.718499 3.115705 -14.321060
v 14.116672 3.336444 -14.377220
v 13.973710 3.232266 -14.267125
v 13.906736 3.135605 -14.064976
v 14.138664 3.155581 -13.845234
v 14.500466 3.377069 -14.031650
v 14.405918 3.272891 -13.877964
v 14.372801 3.173209 -13.688214
v 14.609436 3.189562 -13.577237
v 14.981961 3.417694 -13.844891
v 14.948150 3.313516 -13.667646
v 14.917921 3.209602 -13.489784
v 15.262098 3.231225 -13.458806
v 15.498394 3.458319 -13.841285
v 15.529728 3.354141 -13.663585
v 15.605194 3.252807 -13.494306
v 15.935122 3.274389 -13.594964
v 15.982450 3.498944 -14.021304
v 16.074844 3.394766 -13.866312
v 16.240861 3.296063 -13.757765
v 16.528539 3.319401 -13.995443
v 16.371031 3.539569 -14.361481
v 16.512442 3.435391 -14.249401
v 16.783663 3.345484 -14.324633
v 16.613488 3.580194 -14.817476
v 16.785483 3.476016 -14.762916
v 16.963926 3.373240 -14.729334
v 17.022310 3.389968 -14.990566
v 16.678216 3.620819 -15.329850
v 16.858376 3.516641 -15.339922
v 17.036040 3.414785 -15.386660
v 16.996217 3.431374 -15.648902
v 16.556778 3.661444 -15.831815
v 16.721619 3.557266 -15.905207
v 16.876299 3.454640 -16.000863
v 16.754349 3.470457 -16.222260
v 16.265003 3.702069 -16.257941
v 16.393039 3.597891 -16.385087
v 16.554430 3.490734 -16.477626
v 16.294595 3.512354 -16.705046
v 15.840924 3.742694 -16.552684
v 15.915465 3.638516 -16.717009
v 15.987416 3.534549 -16.882388
v 15.650780 3.556778 -16.995771
v 15.339818 3.783319 -16.677624
v 15.351148 3.679141 -16.857709
v 15.298957 3.578973 -17.040557
v 14.945374 3.601156 -17.015102
v 14.827006 3.823944 -16.616474
v 14.773648 3.719766 -16.788846
v 14.617786 3.622415 -16.925954
v 14.334284 3.642081 -16.789432
v 14.369329 3.864569 -16.377207
v 14.258239 3.760391 -16.519397
v 14.098528 3.660186 -16.622115
v 13.910011 3.676629 -16.438609
v 14.026447 3.905194 -15.991010
v 13.872104 3.801016 -16.084483
v 13.724474 3.696088 -16.188833
v 13.584794 3.715613 -15.909946
v 13.843054 3.945819 -15.508223
v 13.665577 3.841641 -15.540796
v 13.503476 3.732752 -15.647794
v 13.465205 3.748307 -15.402293
v 13.843054 3.986444 -14.991777
v 13.665577 3.882266 -14.959204
v 13.465309 3.767384 -15.097083
v 13.518701 3.786864 -14.790334
v 13.616624 3.805157 -14.514721
v 14.026447 4.027069 -14.508990
v 13.872104 3.922891 -14.415517
v 13.749138 3.822428 -14.272232
v 13.914313 3.839418 -14.056521
v 14.369329 4.067694 -14.122793
v 14.258239 3.963516 -13.980603
v 14.110188 3.856410 -13.868171
v 14.337457 3.873763 -13.708665
v 14.827006 4.108319 -13.883526
v 14.773648 4.004141 -13.711154
v 14.604096 3.892302 -13.579245
v 14.838762 3.907669 -13.506607
v 15.090796 3.923613 -13.465833
v 15.339818 4.148944 -13.822376
v 15.351148 4.044766 -13.642291
v 15.367768 3.940951 -13.462600
v 15.627308 3.957328 -13.498988
v 15.840924 4.189569 -13.947316
v 15.873402 3.973346 -13.570717
v 15.915465 4.085391 -13.782991
v 16.130516 3.991102 -13.690140
v 16.366132 4.008848 -13.849032
v 16.265003 4.230194 -14.242059
v 16.393039 4.126016 -14.114913
v 16.573231 4.026598 -14.042678
v 16.736224 4.043102 -14.250250
v 16.556778 4.270819 -14.668185
v 16.721619 4.166641 -14.594793
v 16.860727 4.058685 -14.466336
v 16.958800 4.075298 -14.712957
v 16.678216 4.311444 -15.170150
v 16.858376 4.207266 -15.160078
v 17.017556 4.091169 -14.959876
v 17.041120 4.110547 -15.268755
v 17.003226 4.132459 -15.616870
v 16.613488 4.352069 -15.682524
v 16.785483 4.247891 -15.737084
v 16.898824 4.154295 -15.949844
v 16.371031 4.392694 -16.138519
v 16.512442 4.288516 -16.250599
v 16.731327 4.176189 -16.257048
v 16.508783 4.197953 -16.524327
v 15.982450 4.433319 -16.478696
v 16.074844 4.329141 -16.633688
v 16.240501 4.219596 -16.742476
v 15.958249 4.239684 -16.895256
v 15.498394 4.473944 -16.658715
v 15.529728 4.369766 -16.836415
v 15.680845 4.257975 -16.988647
v 15.418327 4.274654 -17.033323
v 15.101881 4.294423 -17.035076
v 14.981961 4.514569 -16.655109
v 14.948150 4.410391 -16.832354
v 14.796345 4.313832 -16.982869
v 14.532007 4.331326 -16.891008
v 14.500466 4.555194 -16.468350
v 14.405918 4.451016 -16.622036
v 14.310431 4.346949 -16.775076
v 14.064085 4.366148 -16.592415
v 14.116672 4.595819 -16.122780
v 13.973710 4.491641 -16.232875
v 13.846269 4.385930 -16.362730
v 13.679643 4.404777 -16.111686
v 13.880606 4.636444 -15.663444
v 13.707866 4.532266 -15.715598
v 13.557611 4.423583 -15.836887
v 13.483321 4.442401 -15.545350
v 13.823038 4.677069 -15.150217
v 13.643036 4.572891 -15.137630
v 13.458770 4.461221 -15.245454
v 13.484747 4.480009 -14.946215
v 16.729591 2.010595 -16.103571
v 16.577009 2.021230 -16.308593
v 16.333906 2.035294 -16.538089
v 16.051188 2.049402 -16.714548
v 15.739973 2.063594 -16.830972
v 15.412138 2.077886 -16.882852
v 15.081405 2.092273 -16.867716
v 14.761125 2.106760 -16.786077
v 14.464701 2.121361 -16.641029
v 14.204489 2.136121 -16.438116
v 13.837301 2.165992 -15.894467
v 13.992055 2.150971 -16.185684
v 13.747556 2.181146 -15.576876
v 13.727709 2.196446 -15.247632
v 13.779634 2.211988 -14.920833
v 14.086843 2.243367 -14.342352
v 13.901321 2.227621 -14.613924
v 14.924067 2.291444 -13.860399
v 14.444555 2.130235 -16.645071
v 14.001650 2.170860 -16.268129
v 13.721466 2.211485 -15.758476
v 13.640524 2.252110 -15.182543
v 13.769375 2.292735 -14.615403
v 14.091223 2.333360 -14.130982
v 14.327531 2.259253 -14.118967
v 14.611608 2.275280 -13.955370
v 14.564117 2.373985 -13.792424
v 15.126414 2.414610 -13.643858
v 15.704821 2.455235 -13.704651
v 16.223942 2.495860 -13.966878
v 16.114852 2.391686 -14.110599
v 16.616112 2.536485 -14.396359
v 16.463095 2.432311 -14.491974
v 16.830210 2.577110 -14.937110
v 16.653213 2.472936 -14.972156
v 16.838330 2.617735 -15.518646
v 16.660424 2.513561 -15.488555
v 16.639414 2.658360 -16.065164
v 16.483788 2.554186 -15.973859
v 16.259389 2.698985 -16.505427
v 16.146329 2.594811 -16.364808
v 15.747792 2.739610 -16.782047
v 15.692035 2.635436 -16.610444
v 15.171308 2.780235 -16.858966
v 15.180123 2.676061 -16.678748
v 14.605082 2.820860 -16.726159
v 14.677318 2.716686 -16.560816
v 14.122920 2.861485 -16.400936
v 14.249163 2.757311 -16.272022
v 13.787671 2.902110 -15.925691
v 13.951465 2.797936 -15.850008
v 13.643035 2.942735 -15.362370
v 13.823029 2.838561 -15.349784
v 13.707864 2.983360 -14.784402
v 13.880597 2.879186 -14.836553
v 13.973709 3.023985 -14.267124
v 14.116665 2.919811 -14.377214
v 14.405917 3.064610 -13.877962
v 14.500461 2.960436 -14.031642
v 14.948149 3.105235 -13.667644
v 14.981959 3.001061 -13.844882
v 15.529728 3.145860 -13.663584
v 15.498396 3.041686 -13.841276
v 16.074844 3.186485 -13.866311
v 15.982455 3.082311 -14.021296
v 16.512443 3.227110 -14.249400
v 16.371039 3.122936 -14.361476
v 16.785485 3.267735 -14.762916
v 16.613497 3.163561 -14.817473
v 16.858378 3.308360 -15.339922
v 16.678225 3.204186 -15.329850
v 16.721621 3.348985 -15.905208
v 16.556786 3.244811 -15.831819
v 16.393040 3.389610 -16.385088
v 16.265010 3.285436 -16.257948
v 15.915466 3.430235 -16.717011
v 15.840928 3.326061 -16.552693
v 15.351149 3.470860 -16.857711
v 15.339819 3.366686 -16.677633
v 14.773647 3.511485 -16.788848
v 14.827003 3.407311 -16.616483
v 14.258238 3.552110 -16.519398
v 14.369324 3.447936 -16.377214
v 13.872103 3.592735 -16.084484
v 14.026439 3.488561 -15.991015
v 13.665575 3.633360 -15.540796
v 13.843045 3.529186 -15.508225
v 13.665575 3.673985 -14.959204
v 13.843045 3.569811 -14.991775
v 13.872103 3.714610 -14.415516
v 14.026439 3.610436 -14.508985
v 14.258238 3.755235 -13.980602
v 14.369324 3.651061 -14.122786
v 14.773647 3.795860 -13.711152
v 14.827003 3.691686 -13.883517
v 15.351149 3.836485 -13.642289
v 15.339819 3.732311 -13.822367
v 15.915466 3.877110 -13.782989
v 15.840928 3.772936 -13.947307
v 16.393040 3.917735 -14.114912
v 16.265010 3.813561 -14.242052
v 16.721621 3.958360 -14.594792
v 16.556786 3.854186 -14.668181
v 16.858378 3.998985 -15.160078
v 16.678225 3.894811 -15.170150
v 16.785485 4.039610 -15.737084
v 16.613497 3.935436 -15.682527
v 16.512443 4.080235 -16.250600
v 16.371039 3.976061 -16.138524
v 16.074844 4.120860 -16.633689
v 15.982455 4.016686 -16.478704
v 15.529728 4.161485 -16.836416
v 15.498396 4.057311 -16.658724
v 14.948149 4.202110 -16.832356
v 14.981959 4.097936 -16.655118
v 14.405917 4.242735 -16.622038
v 14.500461 4.138561 -16.468358
v 13.973709 4.283360 -16.232876
v 14.116665 4.179186 -16.122786
v 13.707864 4.323985 -15.715598
v 13.880597 4.219811 -15.663447
v 13.643035 4.364610 -15.137630
v 13.823029 4.260436 -15.150216
v 15.633392 6.882717 -13.695101
v 15.998435 6.899682 -13.815015
v 16.326075 6.916510 -14.018666
v 16.596939 6.933200 -14.293598
v 16.797122 6.949763 -14.625157
v 16.915539 6.966207 -14.994936
v 16.946096 6.982578 -15.383334
v 16.925425 6.991292 -15.592307
v 14.092742 4.739567 -14.409203
v 13.946763 4.635391 -14.303143
v 14.466739 4.780192 -14.053051
v 14.367936 4.676016 -13.902065
v 14.942832 4.820817 -13.852920
v 14.904085 4.716641 -13.676689
v 15.458964 4.861442 -13.834896
v 15.485324 4.757266 -13.656392
v 15.947859 4.902067 -14.001329
v 16.035888 4.797891 -13.843819
v 16.345788 4.942692 -14.330525
v 16.484013 4.838516 -14.214540
v 16.600883 4.983317 -14.779573
v 16.771286 4.879141 -14.720232
v 16.679892 5.023942 -15.289940
v 16.860261 4.919766 -15.294979
v 16.572516 5.064567 -15.795102
v 16.739341 4.960391 -15.863862
v 16.292753 5.105192 -16.229210
v 16.424288 5.001016 -16.352730
v 15.877068 5.145817 -16.535679
v 15.956167 5.041641 -16.697858
v 15.379645 5.186442 -16.674562
v 15.395999 5.082266 -16.854259
v 14.865324 5.227067 -16.627755
v 14.816800 5.122891 -16.801548
v 14.401144 5.267692 -16.401360
v 14.294068 5.163516 -16.546595
v 14.047612 5.308317 -16.024886
v 13.895940 5.204141 -16.122632
v 13.850809 5.348942 -15.547407
v 13.674313 5.244766 -15.584923
v 13.836389 5.389567 -15.031161
v 13.658074 5.285391 -15.003557
v 14.006231 5.430192 -14.543441
v 13.849340 5.326016 -14.454314
v 14.338197 5.470817 -14.147820
v 14.223181 5.366641 -14.008789
v 14.789015 5.511442 -13.895866
v 14.730866 5.407266 -13.725053
v 15.299922 5.552067 -13.820422
v 15.306219 5.447891 -13.640092
v 15.804321 5.592692 -13.931321
v 15.874245 5.488516 -13.764981
v 16.236466 5.633317 -14.214109
v 16.360901 5.529141 -14.083439
v 16.540026 5.673942 -14.631923
v 16.702752 5.569766 -14.553958
v 16.675433 5.714567 -15.130303
v 16.855240 5.610391 -15.115204
v 16.625036 5.755192 -15.644285
v 16.798486 5.651016 -15.694021
v 16.395406 5.795817 -16.106873
v 16.539889 5.691641 -16.214961
v 16.016473 5.836442 -16.457768
v 16.113158 5.732266 -16.610119
v 15.537632 5.877067 -16.651233
v 15.573914 5.772891 -16.827987
v 15.021298 5.917692 -16.662048
v 14.992449 5.813516 -16.840167
v 14.534775 5.958317 -16.488806
v 14.444555 5.854141 -16.645071
v 14.141481 5.998942 -16.154086
v 14.001650 5.894766 -16.268129
v 13.892681 6.039567 -15.701520
v 13.721466 5.935391 -15.758476
v 13.820805 6.080192 -15.190099
v 13.640524 5.976016 -15.182543
v 13.935223 6.120817 -14.686486
v 13.769375 6.016641 -14.615403
v 14.221021 6.161442 -14.256326
v 14.091223 6.057266 -14.130982
v 14.640944 6.202067 -13.955691
v 14.564117 6.097891 -13.792424
v 15.140257 6.242692 -13.823766
v 15.126414 6.138516 -13.643859
v 15.653875 6.283317 -13.877750
v 15.704821 6.179141 -13.704652
v 16.114848 6.323942 -14.110604
v 16.223942 6.219766 -13.966879
v 16.463090 6.364567 -14.491977
v 16.616111 6.260391 -14.396359
v 16.653207 6.405192 -14.972158
v 16.830210 6.301016 -14.937110
v 16.660417 6.445817 -15.488554
v 16.838330 6.341641 -15.518646
v 16.483782 6.486442 -15.973856
v 16.639414 6.382266 -16.065164
v 16.146325 6.527067 -16.364804
v 16.259389 6.422891 -16.505427
v 15.692033 6.567692 -16.610438
v 15.747792 6.463516 -16.782047
v 15.180123 6.608317 -16.678742
v 15.171308 6.504141 -16.858966
v 14.605082 6.544766 -16.726159
v 14.122920 6.585391 -16.400936
v 13.787671 6.626016 -15.925691
v 13.643035 6.666641 -15.362370
v 13.707864 6.707266 -14.784402
v 13.973709 6.747891 -14.267124
v 14.405917 6.788516 -13.877962
v 14.948149 6.829141 -13.667644
f 1 2 3
f 1 4 2
f 4 5 2
f 4 6 5
f 6 7 5
f 7 8 5
f 7 9 8
f 8 10 11
f 9 10 8
f 10 12 11
f 13 14 15
f 16 17 18
f 19 20 21
f 22 23 24
f 24 25 26
f 23 25 24
f 26 27 28
f 25 27 26
f 28 29 30
f 27 29 28
f 29 31 30
f 29 32 31
f 32 33 31
f 33 34 35
f 32 34 33
f 35 36 37
f 34 36 35
f 37 38 39
f 36 38 37
f 11 40 41
f 42 40 12
f 12 40 11
f 41 40 42
f 41 43 44
f 44 43 45
f 15 43 42
f 42 43 41
f 14 43 15
f 43 46 45
f 45 46 47
f 14 46 43
f 48 46 14
f 47 49 50
f 51 49 52
f 50 49 51
f 46 49 47
f 52 49 53
f 53 49 48
f 48 49 46
f 52 54 51
f 51 54 55
f 55 54 18
f 18 54 16
f 16 54 52
f 18 56 57
f 17 56 18
f 57 56 58
f 58 56 17
f 57 59 60
f 60 59 21
f 58 59 57
f 21 59 19
f 19 59 58
f 21 61 22
f 20 61 21
f 22 61 23
f 23 61 20
f 62 63 64
f 63 65 64
f 63 66 65
f 65 67 68
f 66 67 65
f 68 69 70
f 67 69 68
f 69 71 70
f 70 72 73
f 71 72 70
f 72 74 73
f 75 76 77
f 78 79 80
f 81 79 78
f 73 82 83
f 77 82 74
f 74 82 73
f 83 84 85
f 85 84 86
f 87 84 76
f 82 84 83
f 77 84 82
f 76 84 77
f 86 88 89
f 90 88 87
f 84 88 86
f 87 88 84
f 89 91 92
f 92 91 93
f 94 91 95
f 95 91 90
f 90 91 88
f 88 91 89
f 93 96 78
f 81 96 94
f 91 96 93
f 94 96 91
f 78 96 81
f 97 98 99
f 97 100 98
f 100 101 98
f 100 102 101
f 102 103 101
f 102 104 103
f 104 105 103
f 104 106 105
f 106 107 105
f 106 108 107
f 108 109 107
f 108 110 109
f 110 111 109
f 110 112 111
f 112 113 111
f 112 114 113
f 114 115 113
f 114 116 115
f 116 117 115
f 116 3 117
f 3 118 117
f 3 2 118
f 2 119 118
f 2 5 119
f 5 8 119
f 120 121 122
f 120 123 121
f 123 124 121
f 123 125 124
f 125 126 124
f 125 127 126
f 127 128 126
f 127 129 128
f 129 130 128
f 129 131 130
f 131 132 130
f 131 133 132
f 133 134 132
f 133 135 134
f 135 136 134
f 135 137 136
f 137 138 136
f 137 139 138
f 139 140 138
f 139 141 140
f 141 142 140
f 141 143 142
f 143 144 142
f 143 145 144
f 145 146 144
f 145 147 146
f 147 148 146
f 147 149 148
f 149 150 148
f 149 151 150
f 151 152 150
f 151 153 152
f 153 154 152
f 153 155 154
f 155 156 154
f 155 157 156
f 157 158 156
f 157 159 158
f 159 160 158
f 159 161 160
f 161 162 160
f 161 163 162
f 163 164 162
f 163 165 164
f 165 166 164
f 165 167 166
f 167 168 166
f 167 169 168
f 169 170 168
f 169 171 170
f 171 99 170
f 171 97 99
f 172 173 174
f 173 175 176
f 172 175 173
f 175 177 176
f 175 178 177
f 178 179 177
f 179 180 181
f 178 180 179
f 180 182 181
f 180 183 182
f 183 184 182
f 183 185 184
f 185 186 184
f 185 187 186
f 187 188 186
f 187 189 188
f 189 190 188
f 189 191 190
f 191 192 190
f 191 193 192
f 193 194 192
f 193 195 194
f 195 196 194
f 195 197 196
f 197 198 196
f 197 199 198
f 199 200 198
f 199 201 200
f 201 202 200
f 201 203 202
f 203 204 202
f 203 205 204
f 205 206 204
f 205 207 206
f 207 208 206
f 207 209 208
f 209 210 208
f 209 211 210
f 211 212 210
f 211 213 212
f 213 214 212
f 213 215 214
f 215 216 214
f 215 217 216
f 217 218 216
f 217 219 218
f 219 220 218
f 219 221 220
f 221 222 220
f 221 223 222
f 223 224 222
f 223 225 224
f 225 122 224
f 225 120 122
f 226 227 228
f 228 227 229
f 227 230 229
f 230 231 229
f 230 232 231
f 232 233 231
f 233 234 231
f 233 235 234
f 234 236 237
f 235 236 234
f 237 238 239
f 236 238 237
f 239 240 241
f 238 240 239
f 241 242 243
f 240 242 241
f 243 244 245
f 242 244 243
f 245 246 247
f 244 246 245
f 246 248 247
f 247 248 249
f 248 250 249
f 248 251 250
f 251 252 250
f 251 253 252
f 253 254 252
f 253 255 254
f 255 256 254
f 255 257 256
f 257 258 256
f 257 259 258
f 259 260 258
f 259 261 260
f 261 262 260
f 261 263 262
f 263 264 262
f 263 265 264
f 265 266 264
f 265 267 266
f 267 268 266
f 267 269 268
f 269 270 268
f 269 271 270
f 271 272 270
f 271 273 272
f 273 274 272
f 273 275 274
f 275 276 274
f 275 277 276
f 277 278 276
f 277 279 278
f 279 174 278
f 279 172 174
f 280 281 282
f 280 283 281
f 283 284 281
f 283 285 284
f 285 286 284
f 285 287 286
f 287 288 286
f 287 289 288
f 289 290 288
f 289 291 290
f 291 292 290
f 291 293 292
f 293 294 292
f 293 295 294
f 295 296 294
f 295 297 296
f 297 298 296
f 297 299 298
f 299 300 298
f 299 301 300
f 301 302 300
f 301 303 302
f 303 304 302
f 303 305 304
f 305 306 304
f 305 307 306
f 307 308 306
f 307 309 308
f 309 310 308
f 309 311 310
f 311 312 310
f 311 313 312
f 313 314 312
f 313 315 314
f 315 316 314
f 315 317 316
f 317 318 316
f 317 319 318
f 319 320 318
f 319 321 320
f 321 322 320
f 321 323 322
f 323 324 322
f 323 325 324
f 325 326 324
f 325 327 326
f 327 328 326
f 327 329 328
f 329 330 328
f 329 331 330
f 331 228 330
f 331 226 228
f 68 332 65
f 332 64 65
f 332 333 64
f 333 62 64
f 62 334 335
f 333 334 62
f 335 336 337
f 334 336 335
f 336 338 337
f 336 339 338
f 339 340 338
f 339 341 340
f 341 342 340
f 341 343 342
f 343 344 342
f 343 345 344
f 345 346 344
f 345 347 346
f 347 348 346
f 347 349 348
f 350 351 352
f 352 351 353
f 353 354 352
f 350 355 351
f 354 356 352
f 350 357 355
f 356 79 352
f 350 358 357
f 81 359 79
f 79 359 352
f 350 360 358
f 81 94 359
f 350 361 360
f 94 95 359
f 95 90 359
f 90 87 359
f 362 363 364
f 361 363 362
f 350 363 361
f 363 365 364
f 363 366 365
f 75 367 76
f 368 369 367
f 370 369 368
f 371 369 370
f 76 369 87
f 372 369 371
f 87 369 359
f 367 369 76
f 373 374 372
f 375 374 373
f 376 374 375
f 366 374 376
f 363 374 366
f 372 374 369
f 377 363 350
f 377 378 363
f 378 374 363
f 378 379 374
f 379 369 374
f 379 380 369
f 380 359 369
f 380 381 359
f 381 352 359
f 381 382 352
f 382 350 352
f 382 377 350
f 29 377 382
f 29 382 32
f 34 32 382
f 27 377 29
f 36 34 382
f 25 377 27
f 38 36 382
f 23 377 25
f 381 383 38
f 381 38 382
f 20 377 23
f 384 383 381
f 19 377 20
f 385 384 381
f 386 385 381
f 378 19 58
f 378 58 17
f 378 17 16
f 378 377 19
f 52 378 16
f 387 14 13
f 380 388 389
f 380 389 390
f 380 390 391
f 380 391 386
f 380 392 393
f 380 393 388
f 380 386 381
f 379 14 387
f 379 52 53
f 379 53 48
f 379 48 14
f 379 387 392
f 379 392 380
f 379 378 52
f 13 15 387
f 394 12 395
f 395 12 10
f 396 42 397
f 387 15 396
f 396 15 42
f 398 399 400
f 401 399 398
f 400 402 232
f 235 402 236
f 233 402 235
f 232 402 233
f 399 402 400
f 403 404 401
f 405 404 403
f 401 404 399
f 236 406 238
f 404 406 399
f 402 406 236
f 399 406 402
f 407 408 405
f 405 408 404
f 408 409 404
f 240 409 242
f 238 409 240
f 406 409 238
f 404 409 406
f 410 411 407
f 412 411 410
f 407 411 408
f 408 413 409
f 242 413 244
f 411 413 408
f 409 413 242
f 414 415 412
f 416 415 414
f 412 415 411
f 246 417 248
f 244 417 246
f 415 417 411
f 411 417 413
f 413 417 244
f 418 419 416
f 420 419 418
f 415 419 417
f 416 419 415
f 248 421 251
f 417 421 248
f 419 421 417
f 422 423 420
f 424 423 422
f 425 423 424
f 419 423 421
f 420 423 419
f 253 426 255
f 251 426 253
f 421 426 251
f 423 426 421
f 427 428 425
f 429 428 427
f 425 428 423
f 255 430 257
f 428 430 423
f 423 430 426
f 426 430 255
f 431 432 429
f 429 432 428
f 259 433 261
f 257 433 259
f 430 433 257
f 428 433 430
f 432 433 428
f 434 435 431
f 436 435 434
f 431 435 432
f 433 437 261
f 261 437 263
f 432 437 433
f 435 437 432
f 438 439 436
f 440 439 438
f 436 439 435
f 265 441 267
f 263 441 265
f 437 441 263
f 435 441 437
f 439 441 435
f 442 443 440
f 444 443 442
f 440 443 439
f 443 445 439
f 439 445 441
f 267 445 269
f 441 445 267
f 446 447 444
f 448 447 446
f 449 447 448
f 444 447 443
f 443 447 445
f 269 450 271
f 445 450 269
f 447 450 445
f 451 452 449
f 453 452 451
f 449 452 447
f 273 454 275
f 271 454 273
f 452 454 447
f 447 454 450
f 450 454 271
f 453 455 452
f 456 455 453
f 457 455 456
f 275 458 277
f 454 458 275
f 452 458 454
f 455 458 452
f 459 460 457
f 461 460 459
f 457 460 455
f 455 460 458
f 279 462 172
f 277 462 279
f 460 462 458
f 458 462 277
f 461 463 460
f 464 463 461
f 465 463 464
f 466 463 465
f 462 467 172
f 460 467 462
f 463 467 460
f 175 467 178
f 172 467 175
f 468 469 466
f 470 469 468
f 466 469 463
f 463 471 467
f 469 471 463
f 178 471 180
f 467 471 178
f 472 473 470
f 474 473 472
f 475 473 474
f 470 473 469
f 469 473 471
f 471 476 180
f 183 476 185
f 180 476 183
f 473 476 471
f 477 478 475
f 479 478 477
f 475 478 473
f 473 478 476
f 185 480 187
f 476 480 185
f 478 480 476
f 481 482 479
f 483 482 481
f 479 482 478
f 480 484 187
f 189 484 191
f 187 484 189
f 478 484 480
f 482 484 478
f 483 485 482
f 486 485 483
f 487 485 486
f 484 488 191
f 485 488 482
f 191 488 193
f 482 488 484
f 489 490 487
f 491 490 489
f 492 490 491
f 485 490 488
f 487 490 485
f 195 493 197
f 193 493 195
f 488 493 193
f 490 493 488
f 494 495 492
f 496 495 494
f 492 495 490
f 495 497 490
f 493 497 197
f 197 497 199
f 490 497 493
f 496 498 495
f 495 498 497
f 499 498 496
f 500 498 499
f 497 501 199
f 498 501 497
f 201 501 203
f 199 501 201
f 500 502 498
f 503 502 500
f 504 502 503
f 498 505 501
f 203 505 205
f 502 505 498
f 501 505 203
f 504 506 502
f 507 506 504
f 508 506 507
f 509 506 508
f 505 510 205
f 506 510 502
f 207 510 209
f 205 510 207
f 502 510 505
f 509 511 506
f 512 511 509
f 513 511 512
f 506 511 510
f 209 514 211
f 510 514 209
f 511 514 510
f 513 515 511
f 516 515 513
f 517 515 516
f 511 515 514
f 213 518 215
f 211 518 213
f 514 518 211
f 515 518 514
f 519 520 517
f 521 520 519
f 515 520 518
f 517 520 515
f 215 522 217
f 518 522 215
f 520 522 518
f 520 523 522
f 524 523 521
f 525 523 524
f 521 523 520
f 522 526 217
f 523 526 522
f 217 526 219
f 527 528 525
f 529 528 527
f 525 528 523
f 523 530 526
f 526 530 219
f 221 530 223
f 219 530 221
f 528 530 523
f 529 531 528
f 528 531 530
f 532 531 529
f 223 533 225
f 530 533 223
f 531 533 530
f 531 534 533
f 532 534 531
f 535 534 532
f 536 534 535
f 225 537 120
f 533 537 225
f 534 537 533
f 120 537 123
f 536 538 534
f 539 538 536
f 540 538 539
f 537 541 123
f 534 541 537
f 538 541 534
f 125 541 127
f 123 541 125
f 540 542 538
f 538 542 541
f 543 542 540
f 544 542 543
f 542 545 541
f 541 545 127
f 127 545 129
f 542 546 545
f 544 546 542
f 547 546 544
f 548 546 547
f 545 549 129
f 131 549 133
f 129 549 131
f 546 549 545
f 550 551 548
f 552 551 550
f 548 551 546
f 546 551 549
f 551 553 549
f 133 553 135
f 549 553 133
f 554 555 552
f 556 555 554
f 552 555 551
f 551 555 553
f 137 557 139
f 135 557 137
f 553 557 135
f 555 557 553
f 556 558 555
f 559 558 556
f 560 558 559
f 555 561 557
f 557 561 139
f 558 561 555
f 139 561 141
f 562 563 560
f 564 563 562
f 560 563 558
f 558 563 561
f 143 565 145
f 141 565 143
f 561 565 141
f 563 565 561
f 564 566 563
f 567 566 564
f 568 566 567
f 563 569 565
f 566 569 563
f 565 569 145
f 145 569 147
f 566 570 569
f 571 570 568
f 572 570 571
f 568 570 566
f 570 573 569
f 149 573 151
f 147 573 149
f 569 573 147
f 572 574 570
f 570 574 573
f 575 574 572
f 576 574 575
f 577 574 576
f 573 578 151
f 574 578 573
f 151 578 153
f 577 579 574
f 580 579 577
f 581 579 580
f 574 582 578
f 578 582 153
f 579 582 574
f 155 582 157
f 153 582 155
f 581 583 579
f 584 583 581
f 585 583 584
f 579 586 582
f 582 586 157
f 157 586 159
f 583 586 579
f 585 587 583
f 588 587 585
f 589 587 588
f 590 587 589
f 586 591 159
f 583 591 586
f 161 591 163
f 159 591 161
f 587 591 583
f 590 592 587
f 593 592 590
f 594 592 593
f 587 595 591
f 591 595 163
f 163 595 165
f 592 595 587
f 596 597 598
f 594 597 592
f 599 597 594
f 598 597 599
f 595 600 165
f 592 600 595
f 167 600 169
f 165 600 167
f 597 600 592
f 601 602 596
f 603 602 601
f 596 602 597
f 600 604 169
f 597 604 600
f 602 604 597
f 169 604 171
f 605 606 603
f 607 606 605
f 603 606 602
f 602 608 604
f 604 608 171
f 171 608 97
f 606 608 602
f 607 609 606
f 610 609 607
f 611 609 610
f 612 609 611
f 608 613 97
f 609 613 606
f 606 613 608
f 100 613 102
f 97 613 100
f 612 614 609
f 615 614 612
f 614 616 609
f 609 616 613
f 613 616 102
f 102 616 104
f 617 618 615
f 619 618 617
f 615 618 614
f 618 620 614
f 614 620 616
f 616 620 104
f 106 620 108
f 104 620 106
f 619 621 618
f 622 621 619
f 623 621 622
f 621 624 618
f 618 624 620
f 620 624 108
f 108 624 110
f 625 626 623
f 627 626 625
f 628 626 627
f 623 626 621
f 626 629 621
f 621 629 624
f 624 629 110
f 112 629 114
f 110 629 112
f 628 630 626
f 631 630 628
f 632 630 631
f 630 633 626
f 114 633 116
f 626 633 629
f 629 633 114
f 634 635 632
f 636 635 634
f 632 635 630
f 4 637 635
f 635 637 630
f 116 637 3
f 630 637 633
f 633 637 116
f 1 637 4
f 3 637 1
f 638 639 636
f 640 639 638
f 635 639 4
f 636 639 635
f 7 639 640
f 6 641 7
f 4 641 6
f 639 641 4
f 7 641 639
f 642 643 640
f 395 643 642
f 640 643 7
f 10 643 395
f 9 643 10
f 7 643 9
f 397 644 394
f 394 644 12
f 42 644 397
f 12 644 42
f 349 645 348
f 349 646 645
f 646 647 645
f 646 648 647
f 648 649 647
f 648 650 649
f 650 651 649
f 650 652 651
f 652 653 651
f 652 654 653
f 654 655 653
f 654 656 655
f 656 657 655
f 656 658 657
f 658 659 657
f 658 660 659
f 660 661 659
f 660 662 661
f 662 663 661
f 662 664 663
f 664 665 663
f 664 666 665
f 666 667 665
f 666 668 667
f 668 669 667
f 668 670 669
f 670 671 669
f 670 672 671
f 672 673 671
f 672 674 673
f 674 675 673
f 674 676 675
f 676 677 675
f 676 678 677
f 678 679 677
f 678 680 679
f 680 681 679
f 680 682 681
f 682 683 681
f 682 684 683
f 684 685 683
f 684 686 685
f 686 687 685
f 686 688 687
f 688 689 687
f 688 690 689
f 690 691 689
f 690 692 691
f 692 693 691
f 692 694 693
f 694 282 693
f 694 280 282
f 77 74 367
f 74 695 367
f 71 696 72
f 177 400 697
f 695 698 696
f 74 698 695
f 696 698 72
f 72 698 74
f 696 699 700
f 700 699 701
f 71 699 696
f 701 699 67
f 67 699 69
f 69 699 71
f 63 702 66
f 701 703 704
f 702 703 66
f 63 703 702
f 67 703 701
f 66 703 67
f 335 705 62
f 62 705 63
f 703 706 704
f 704 706 707
f 707 706 708
f 705 706 63
f 63 706 703
f 335 709 705
f 338 709 337
f 337 709 335
f 709 710 705
f 708 710 711
f 711 710 712
f 705 710 706
f 706 710 708
f 340 713 338
f 338 713 709
f 712 714 715
f 715 714 716
f 713 714 709
f 710 714 712
f 709 714 710
f 340 717 713
f 344 717 342
f 342 717 340
f 716 718 719
f 719 718 720
f 720 718 721
f 717 718 713
f 713 718 714
f 714 718 716
f 344 722 717
f 346 722 344
f 717 723 718
f 721 723 724
f 724 723 725
f 718 723 721
f 722 723 717
f 346 726 722
f 645 726 348
f 348 726 346
f 725 727 728
f 726 727 722
f 722 727 723
f 723 727 725
f 645 729 726
f 649 729 647
f 647 729 645
f 729 730 726
f 728 730 731
f 731 730 732
f 727 730 728
f 726 730 727
f 729 733 730
f 651 733 649
f 649 733 729
f 730 734 732
f 732 734 735
f 735 734 736
f 733 734 730
f 651 737 733
f 733 737 734
f 655 737 653
f 653 737 651
f 736 738 739
f 739 738 740
f 734 738 736
f 737 738 734
f 657 741 655
f 655 741 737
f 738 742 740
f 740 742 743
f 743 742 744
f 744 742 745
f 737 742 738
f 741 742 737
f 657 746 741
f 661 746 659
f 659 746 657
f 745 747 748
f 748 747 749
f 741 747 742
f 742 747 745
f 746 747 741
f 746 750 747
f 663 750 661
f 661 750 746
f 747 751 749
f 750 751 747
f 749 751 752
f 752 751 753
f 663 754 750
f 750 754 751
f 667 754 665
f 665 754 663
f 753 755 756
f 756 755 757
f 751 755 753
f 754 755 751
f 669 758 667
f 667 758 754
f 755 759 757
f 754 759 755
f 758 759 754
f 757 759 760
f 760 759 761
f 761 759 762
f 669 763 758
f 673 763 671
f 671 763 669
f 763 764 758
f 762 764 765
f 765 764 766
f 758 764 759
f 759 764 762
f 673 767 763
f 675 767 673
f 763 768 764
f 766 768 769
f 769 768 770
f 770 768 771
f 767 768 763
f 764 768 766
f 675 772 767
f 679 772 677
f 677 772 675
f 771 773 774
f 774 773 775
f 767 773 768
f 768 773 771
f 772 773 767
f 681 776 679
f 679 776 772
f 776 777 772
f 775 777 778
f 778 777 779
f 772 777 773
f 773 777 775
f 685 780 683
f 683 780 681
f 681 780 776
f 777 781 779
f 779 781 782
f 782 781 783
f 776 781 777
f 780 781 776
f 685 784 780
f 687 784 685
f 780 785 781
f 784 785 780
f 783 785 786
f 781 785 783
f 786 785 787
f 787 785 788
f 784 789 785
f 691 789 689
f 689 789 687
f 687 789 784
f 785 790 788
f 789 790 785
f 788 790 791
f 791 790 792
f 691 793 789
f 693 793 691
f 790 794 792
f 789 794 790
f 793 794 789
f 792 794 795
f 795 794 796
f 693 797 793
f 281 797 282
f 282 797 693
f 793 797 794
f 794 798 796
f 797 798 794
f 796 798 799
f 799 798 800
f 281 801 797
f 284 801 281
f 797 801 798
f 800 802 803
f 803 802 804
f 804 802 805
f 798 802 800
f 801 802 798
f 284 806 801
f 288 806 286
f 286 806 284
f 805 807 808
f 808 807 809
f 801 807 802
f 802 807 805
f 806 807 801
f 290 810 288
f 288 810 806
f 806 811 807
f 810 811 806
f 809 811 812
f 812 811 813
f 807 811 809
f 294 814 292
f 292 814 290
f 290 814 810
f 810 815 811
f 813 815 816
f 816 815 817
f 814 815 810
f 811 815 813
f 294 818 814
f 296 818 294
f 814 819 815
f 817 819 820
f 820 819 821
f 818 819 814
f 815 819 817
f 818 822 819
f 296 822 818
f 300 822 298
f 298 822 296
f 822 823 819
f 819 823 821
f 821 823 824
f 824 823 825
f 300 826 822
f 822 826 823
f 302 826 300
f 823 827 825
f 826 827 823
f 825 827 828
f 302 829 826
f 306 829 304
f 304 829 302
f 826 829 827
f 827 830 828
f 828 830 831
f 831 830 832
f 829 830 827
f 306 833 829
f 308 833 306
f 830 834 832
f 829 834 830
f 833 834 829
f 832 834 835
f 835 834 836
f 312 837 310
f 310 837 308
f 308 837 833
f 836 838 839
f 839 838 840
f 837 838 833
f 834 838 836
f 833 838 834
f 312 841 837
f 314 841 312
f 838 842 840
f 837 842 838
f 841 842 837
f 840 842 843
f 843 842 844
f 314 845 841
f 318 845 316
f 316 845 314
f 841 845 842
f 844 846 847
f 847 846 848
f 842 846 844
f 845 846 842
f 320 849 318
f 845 849 846
f 318 849 845
f 846 850 848
f 849 850 846
f 848 850 851
f 851 850 852
f 849 853 850
f 320 853 849
f 324 853 322
f 322 853 320
f 853 854 850
f 850 854 852
f 852 854 855
f 855 854 856
f 326 857 324
f 324 857 853
f 854 858 856
f 853 858 854
f 857 858 853
f 856 858 859
f 859 858 860
f 326 861 857
f 330 861 328
f 328 861 326
f 857 861 858
f 860 862 863
f 863 862 864
f 858 862 860
f 861 862 858
f 228 865 330
f 330 865 861
f 865 866 861
f 864 866 867
f 867 866 868
f 861 866 862
f 862 866 864
f 231 869 229
f 229 869 228
f 228 869 865
f 865 869 866
f 866 870 868
f 869 870 866
f 868 870 871
f 871 870 872
f 872 870 873
f 234 874 231
f 231 874 869
f 870 875 873
f 869 875 870
f 874 875 869
f 873 875 876
f 876 875 877
f 239 878 237
f 237 878 234
f 234 878 874
f 874 879 875
f 875 879 877
f 878 879 874
f 877 879 880
f 880 879 881
f 241 882 239
f 239 882 878
f 879 883 881
f 878 883 879
f 882 883 878
f 881 883 884
f 884 883 885
f 885 883 886
f 245 887 243
f 243 887 241
f 241 887 882
f 883 888 886
f 887 888 882
f 882 888 883
f 886 888 889
f 889 888 890
f 247 891 245
f 245 891 887
f 892 893 894
f 894 893 895
f 888 893 890
f 891 893 887
f 887 893 888
f 890 893 892
f 250 896 249
f 249 896 247
f 247 896 891
f 895 897 898
f 898 897 899
f 893 897 895
f 891 897 893
f 896 897 891
f 252 900 250
f 250 900 896
f 899 901 902
f 902 901 903
f 896 901 897
f 900 901 896
f 897 901 899
f 256 904 254
f 254 904 252
f 252 904 900
f 904 905 900
f 903 905 906
f 906 905 907
f 907 905 908
f 900 905 901
f 901 905 903
f 258 909 256
f 256 909 904
f 908 910 911
f 904 910 905
f 905 910 908
f 909 910 904
f 262 912 260
f 260 912 258
f 258 912 909
f 911 913 914
f 914 913 915
f 910 913 911
f 909 913 910
f 912 913 909
f 264 916 262
f 262 916 912
f 915 917 918
f 918 917 919
f 913 917 915
f 912 917 913
f 916 917 912
f 268 920 266
f 266 920 264
f 264 920 916
f 919 921 922
f 922 921 923
f 923 921 924
f 917 921 919
f 916 921 917
f 920 921 916
f 270 925 268
f 268 925 920
f 924 926 927
f 927 926 928
f 921 926 924
f 920 926 921
f 925 926 920
f 274 929 272
f 272 929 270
f 270 929 925
f 928 930 931
f 931 930 932
f 926 930 928
f 925 930 926
f 929 930 925
f 276 933 274
f 274 933 929
f 932 934 935
f 935 934 936
f 930 934 932
f 929 934 930
f 933 934 929
f 174 937 278
f 278 937 276
f 276 937 933
f 937 938 933
f 936 938 939
f 939 938 940
f 934 938 936
f 933 938 934
f 177 941 176
f 176 941 173
f 173 941 174
f 174 941 937
f 697 941 177
f 697 942 941
f 941 942 937
f 940 942 943
f 943 942 944
f 944 942 697
f 937 942 938
f 938 942 940
f 367 695 368
f 695 370 368
f 695 371 370
f 695 696 371
f 696 945 371
f 696 700 945
f 700 946 945
f 701 947 700
f 700 947 946
f 704 948 701
f 701 948 947
f 704 949 948
f 704 707 949
f 708 950 707
f 707 950 949
f 711 951 708
f 708 951 950
f 712 952 711
f 711 952 951
f 715 953 712
f 712 953 952
f 719 954 716
f 721 955 720
f 720 955 956
f 725 957 724
f 725 958 957
f 731 959 728
f 732 960 961
f 743 962 740
f 745 78 80
f 400 232 697
f 697 232 230
f 716 963 715
f 953 963 954
f 715 963 953
f 954 963 716
f 720 964 719
f 954 964 956
f 719 964 954
f 956 964 720
f 955 965 957
f 724 965 721
f 721 965 955
f 957 965 724
f 959 966 728
f 958 966 959
f 728 966 725
f 725 966 958
f 959 967 961
f 731 967 959
f 961 967 732
f 732 967 731
f 960 968 969
f 732 968 960
f 735 968 732
f 736 968 735
f 969 968 736
f 970 971 962
f 969 971 970
f 739 971 736
f 740 971 739
f 736 971 969
f 962 971 740
f 962 972 80
f 744 972 743
f 745 972 744
f 743 972 962
f 80 972 745
f 748 973 745
f 749 973 748
f 78 973 93
f 745 973 78
f 93 973 749
f 752 974 749
f 753 974 752
f 749 974 93
f 89 974 753
f 92 975 89
f 93 975 92
f 974 975 93
f 89 975 974
f 756 976 753
f 757 976 756
f 753 976 89
f 976 977 89
f 89 977 86
f 86 977 976
f 760 978 757
f 761 978 760
f 762 978 761
f 976 978 86
f 757 978 976
f 83 979 978
f 978 979 86
f 85 979 83
f 86 979 85
f 978 980 83
f 765 980 762
f 766 980 765
f 762 980 978
f 980 981 83
f 73 981 70
f 83 981 73
f 766 982 980
f 980 982 981
f 769 982 766
f 770 982 769
f 771 982 770
f 70 983 68
f 981 983 70
f 982 983 981
f 774 984 771
f 775 984 774
f 982 984 983
f 771 984 982
f 68 985 332
f 332 985 333
f 984 985 983
f 983 985 68
f 778 986 775
f 779 986 778
f 775 986 984
f 986 987 984
f 333 987 334
f 985 987 333
f 984 987 985
f 779 988 986
f 782 988 779
f 783 988 782
f 987 989 334
f 986 989 987
f 334 989 336
f 988 989 986
f 786 990 783
f 787 990 786
f 788 990 787
f 783 990 988
f 988 990 989
f 990 991 989
f 336 991 339
f 339 991 341
f 989 991 336
f 788 992 990
f 990 992 991
f 791 992 788
f 792 992 791
f 991 993 341
f 341 993 343
f 992 993 991
f 795 994 792
f 796 994 795
f 792 994 992
f 994 995 992
f 343 995 345
f 345 995 347
f 993 995 343
f 992 995 993
f 799 996 796
f 800 996 799
f 796 996 994
f 994 997 995
f 995 997 347
f 996 997 994
f 347 997 349
f 803 998 800
f 804 998 803
f 805 998 804
f 800 998 996
f 998 999 996
f 349 999 646
f 646 999 648
f 996 999 997
f 997 999 349
f 808 1000 805
f 809 1000 808
f 805 1000 998
f 998 1001 999
f 999 1001 648
f 1000 1001 998
f 648 1001 650
f 809 1002 1000
f 812 1002 809
f 813 1002 812
f 1000 1002 1001
f 1001 1003 650
f 1002 1003 1001
f 650 1003 652
f 652 1003 654
f 813 1004 1002
f 816 1004 813
f 817 1004 816
f 1004 1005 1002
f 654 1005 656
f 1003 1005 654
f 1002 1005 1003
f 1004 1006 1005
f 817 1006 1004
f 820 1006 817
f 821 1006 820
f 1005 1007 656
f 656 1007 658
f 658 1007 660
f 1006 1007 1005
f 821 1008 1006
f 824 1008 821
f 825 1008 824
f 1007 1009 660
f 660 1009 662
f 1006 1009 1007
f 1008 1009 1006
f 828 1010 825
f 825 1010 1008
f 1008 1011 1009
f 662 1011 664
f 664 1011 666
f 1009 1011 662
f 1010 1011 1008
f 831 1012 828
f 832 1012 831
f 828 1012 1010
f 1011 1013 666
f 666 1013 668
f 1012 1013 1010
f 1010 1013 1011
f 832 1014 1012
f 835 1014 832
f 836 1014 835
f 1013 1015 668
f 1014 1015 1012
f 668 1015 670
f 670 1015 672
f 1012 1015 1013
f 839 1016 836
f 840 1016 839
f 836 1016 1014
f 1015 1017 672
f 1014 1017 1015
f 672 1017 674
f 1016 1017 1014
f 840 1018 1016
f 843 1018 840
f 844 1018 843
f 1016 1019 1017
f 1018 1019 1016
f 1017 1019 674
f 674 1019 676
f 676 1019 678
f 844 1020 1018
f 847 1020 844
f 848 1020 847
f 1020 1021 1018
f 1019 1021 678
f 1018 1021 1019
f 678 1021 680
f 848 1022 1020
f 851 1022 848
f 852 1022 851
f 1022 1023 1020
f 1020 1023 1021
f 1021 1023 680
f 680 1023 682
f 682 1023 684
f 852 1024 1022
f 855 1024 852
f 856 1024 855
f 1023 1025 684
f 684 1025 686
f 1024 1025 1022
f 1022 1025 1023
f 856 1026 1024
f 859 1026 856
f 860 1026 859
f 1026 1027 1024
f 686 1027 688
f 688 1027 690
f 1025 1027 686
f 1024 1027 1025
f 863 1028 860
f 864 1028 863
f 860 1028 1026
f 1027 1029 690
f 690 1029 692
f 1026 1029 1027
f 1028 1029 1026
f 864 1030 1028
f 867 1030 864
f 868 1030 867
f 1029 1031 692
f 1028 1031 1029
f 692 1031 694
f 694 1031 280
f 1030 1031 1028
f 868 1032 1030
f 871 1032 868
f 872 1032 871
f 873 1032 872
f 1031 1033 280
f 1030 1033 1031
f 1032 1033 1030
f 280 1033 283
f 873 1034 1032
f 876 1034 873
f 877 1034 876
f 1033 1035 283
f 1032 1035 1033
f 283 1035 285
f 285 1035 287
f 1034 1035 1032
f 1034 1036 1035
f 877 1036 1034
f 880 1036 877
f 881 1036 880
f 1036 1037 1035
f 1035 1037 287
f 287 1037 289
f 881 1038 1036
f 884 1038 881
f 885 1038 884
f 886 1038 885
f 1037 1039 289
f 1038 1039 1036
f 1036 1039 1037
f 289 1039 291
f 291 1039 293
f 886 1040 1038
f 1038 1040 1039
f 889 1040 886
f 890 1040 889
f 1040 1041 1039
f 1039 1041 293
f 293 1041 295
f 890 1042 1040
f 892 1042 890
f 894 1042 892
f 895 1042 894
f 1040 1043 1041
f 295 1043 297
f 297 1043 299
f 1041 1043 295
f 1042 1043 1040
f 898 1044 895
f 899 1044 898
f 895 1044 1042
f 1042 1045 1043
f 1043 1045 299
f 299 1045 301
f 1044 1045 1042
f 902 1046 899
f 903 1046 902
f 899 1046 1044
f 1044 1046 1045
f 301 1047 303
f 303 1047 305
f 1045 1047 301
f 1046 1047 1045
f 906 1048 903
f 907 1048 906
f 908 1048 907
f 903 1048 1046
f 1046 1049 1047
f 1048 1049 1046
f 305 1049 307
f 1047 1049 305
f 908 1050 1048
f 911 1050 908
f 1048 1051 1049
f 1049 1051 307
f 1050 1051 1048
f 307 1051 309
f 309 1051 311
f 914 1052 911
f 915 1052 914
f 911 1052 1050
f 1051 1053 311
f 1050 1053 1051
f 1052 1053 1050
f 311 1053 313
f 915 1054 1052
f 918 1054 915
f 919 1054 918
f 1052 1055 1053
f 1053 1055 313
f 1054 1055 1052
f 313 1055 315
f 315 1055 317
f 922 1056 919
f 923 1056 922
f 924 1056 923
f 919 1056 1054
f 1055 1057 317
f 1054 1057 1055
f 1056 1057 1054
f 317 1057 319
f 927 1058 924
f 928 1058 927
f 924 1058 1056
f 1056 1059 1057
f 1057 1059 319
f 1058 1059 1056
f 319 1059 321
f 321 1059 323
f 931 1060 928
f 932 1060 931
f 928 1060 1058
f 1060 1061 1058
f 1059 1061 323
f 1058 1061 1059
f 323 1061 325
f 935 1062 932
f 936 1062 935
f 932 1062 1060
f 1060 1063 1061
f 1061 1063 325
f 1062 1063 1060
f 325 1063 327
f 327 1063 329
f 939 1064 936
f 940 1064 939
f 936 1064 1062
f 1062 1065 1063
f 1063 1065 329
f 1064 1065 1062
f 329 1065 331
f 943 1066 940
f 944 1066 943
f 697 1066 944
f 940 1066 1064
f 1066 1067 1064
f 1064 1067 1065
f 1065 1067 331
f 697 1067 1066
f 230 1067 697
f 331 1067 226
f 226 1067 227
f 227 1067 230
f 80 79 962
f 962 356 970
f 79 356 962
f 970 354 969
f 356 354 970
f 969 353 960
f 354 353 969
f 960 351 961
f 353 351 960
f 961 355 959
f 351 355 961
f 959 357 958
f 355 357 959
f 958 358 957
f 357 358 958
f 957 360 955
f 358 360 957
f 955 361 956
f 360 361 955
f 956 362 954
f 361 362 956
f 362 953 954
f 362 364 953
f 364 952 953
f 364 365 952
f 365 951 952
f 365 366 951
f 366 950 951
f 366 376 950
f 376 949 950
f 376 375 949
f 949 375 948
f 375 373 948
f 948 373 947
f 373 946 947
f 373 372 946
f 372 945 946
f 372 371 945
f 77 367 75
f 60 596 598
f 26 607 24
f 26 610 607
f 28 612 611
f 31 617 615
f 35 622 619
f 39 623 37
f 1068 625 39
f 39 625 623
f 1068 627 625
f 1069 628 1068
f 1068 628 627
f 1070 631 1069
f 1069 631 628
f 1070 632 631
f 1071 634 1070
f 1070 634 632
f 1071 636 634
f 1071 1072 636
f 1072 638 636
f 1072 1073 638
f 1073 640 638
f 1074 642 1073
f 1073 642 640
f 1075 395 1074
f 1074 395 642
f 1075 388 395
f 388 394 395
f 388 393 394
f 392 397 393
f 393 397 394
f 392 396 397
f 392 387 396
f 182 1076 181
f 181 1076 179
f 179 1076 177
f 177 1076 400
f 1076 1077 400
f 400 1077 398
f 398 1077 401
f 182 1078 1076
f 184 1078 182
f 1076 1079 1077
f 1078 1079 1076
f 1077 1079 401
f 401 1079 403
f 403 1079 405
f 184 1080 1078
f 188 1080 186
f 186 1080 184
f 405 1081 407
f 1080 1081 1078
f 1078 1081 1079
f 1079 1081 405
f 188 1082 1080
f 190 1082 188
f 407 1083 410
f 410 1083 412
f 1080 1083 1081
f 1081 1083 407
f 1082 1083 1080
f 1082 1084 1083
f 190 1084 1082
f 194 1084 192
f 192 1084 190
f 412 1085 414
f 414 1085 416
f 1084 1085 1083
f 1083 1085 412
f 194 1086 1084
f 196 1086 194
f 416 1087 418
f 418 1087 420
f 1086 1087 1084
f 1085 1087 416
f 1084 1087 1085
f 1086 1088 1087
f 196 1088 1086
f 200 1088 198
f 198 1088 196
f 420 1089 422
f 422 1089 424
f 424 1089 425
f 1087 1089 420
f 1088 1089 1087
f 200 1090 1088
f 202 1090 200
f 425 1091 427
f 427 1091 429
f 1088 1091 1089
f 1090 1091 1088
f 1089 1091 425
f 202 1092 1090
f 206 1092 204
f 204 1092 202
f 429 1093 431
f 1091 1093 429
f 1090 1093 1091
f 1092 1093 1090
f 1092 1094 1093
f 208 1094 206
f 206 1094 1092
f 1093 1095 431
f 431 1095 434
f 434 1095 436
f 1094 1095 1093
f 208 1096 1094
f 212 1096 210
f 210 1096 208
f 436 1097 438
f 438 1097 440
f 1095 1097 436
f 1094 1097 1095
f 1096 1097 1094
f 214 1098 212
f 212 1098 1096
f 1097 1099 440
f 1096 1099 1097
f 440 1099 442
f 442 1099 444
f 1098 1099 1096
f 214 1100 1098
f 216 1100 214
f 444 1101 446
f 446 1101 448
f 448 1101 449
f 1099 1101 444
f 1098 1101 1099
f 1100 1101 1098
f 1100 1102 1101
f 220 1102 218
f 218 1102 216
f 216 1102 1100
f 1101 1103 449
f 449 1103 451
f 451 1103 453
f 1102 1103 1101
f 220 1104 1102
f 222 1104 220
f 453 1105 456
f 456 1105 457
f 1103 1105 453
f 1102 1105 1103
f 1104 1105 1102
f 122 1106 224
f 224 1106 222
f 222 1106 1104
f 1104 1107 1105
f 1106 1107 1104
f 457 1107 459
f 459 1107 461
f 1105 1107 457
f 122 1108 1106
f 124 1108 121
f 121 1108 122
f 461 1109 464
f 1108 1109 1106
f 464 1109 465
f 465 1109 466
f 1106 1109 1107
f 1107 1109 461
f 124 1110 1108
f 126 1110 124
f 466 1111 468
f 468 1111 470
f 1109 1111 466
f 1110 1111 1108
f 1108 1111 1109
f 126 1112 1110
f 130 1112 128
f 128 1112 126
f 1110 1113 1111
f 470 1113 472
f 472 1113 474
f 474 1113 475
f 1112 1113 1110
f 1111 1113 470
f 132 1114 130
f 130 1114 1112
f 475 1115 477
f 477 1115 479
f 1112 1115 1113
f 1113 1115 475
f 1114 1115 1112
f 132 1116 1114
f 136 1116 134
f 134 1116 132
f 1115 1117 479
f 1116 1117 1114
f 479 1117 481
f 481 1117 483
f 1114 1117 1115
f 136 1118 1116
f 138 1118 136
f 1118 1119 1116
f 483 1119 486
f 486 1119 487
f 1116 1119 1117
f 1117 1119 483
f 138 1120 1118
f 1118 1120 1119
f 142 1120 140
f 140 1120 138
f 1120 1121 1119
f 487 1121 489
f 489 1121 491
f 491 1121 492
f 1119 1121 487
f 1120 1122 1121
f 142 1122 1120
f 144 1122 142
f 1121 1123 492
f 492 1123 494
f 494 1123 496
f 1122 1123 1121
f 1122 1124 1123
f 148 1124 146
f 146 1124 144
f 144 1124 1122
f 1124 1125 1123
f 1123 1125 496
f 496 1125 499
f 499 1125 500
f 148 1126 1124
f 150 1126 148
f 1126 1127 1124
f 1125 1127 500
f 500 1127 503
f 1124 1127 1125
f 503 1127 504
f 150 1128 1126
f 154 1128 152
f 152 1128 150
f 1126 1128 1127
f 1128 1129 1127
f 504 1129 507
f 507 1129 508
f 508 1129 509
f 1127 1129 504
f 156 1130 154
f 154 1130 1128
f 509 1131 512
f 512 1131 513
f 1128 1131 1129
f 1129 1131 509
f 1130 1131 1128
f 160 1132 158
f 158 1132 156
f 156 1132 1130
f 1130 1133 1131
f 513 1133 516
f 516 1133 517
f 1131 1133 513
f 1132 1133 1130
f 162 1134 160
f 160 1134 1132
f 1132 1134 1133
f 1134 1135 1133
f 517 1135 519
f 519 1135 521
f 1133 1135 517
f 164 1136 162
f 162 1136 1134
f 1136 1137 1134
f 1135 1137 521
f 521 1137 524
f 524 1137 525
f 1134 1137 1135
f 164 1138 1136
f 168 1138 166
f 166 1138 164
f 1136 1139 1137
f 1137 1139 525
f 525 1139 527
f 527 1139 529
f 1138 1139 1136
f 168 1140 1138
f 170 1140 168
f 1139 1141 529
f 1140 1141 1138
f 529 1141 532
f 1138 1141 1139
f 98 1142 99
f 99 1142 170
f 170 1142 1140
f 1141 1143 532
f 1140 1143 1141
f 532 1143 535
f 535 1143 536
f 1142 1143 1140
f 103 1144 101
f 101 1144 98
f 98 1144 1142
f 1142 1144 1143
f 1143 1145 536
f 536 1145 539
f 539 1145 540
f 1144 1145 1143
f 105 1146 103
f 103 1146 1144
f 1144 1147 1145
f 1145 1147 540
f 1146 1147 1144
f 540 1147 543
f 543 1147 544
f 109 1148 107
f 107 1148 105
f 105 1148 1146
f 544 1149 547
f 547 1149 548
f 1147 1149 544
f 1146 1149 1147
f 1148 1149 1146
f 109 1150 1148
f 111 1150 109
f 1148 1151 1149
f 548 1151 550
f 550 1151 552
f 1150 1151 1148
f 1149 1151 548
f 115 1152 113
f 113 1152 111
f 1150 1152 1151
f 111 1152 1150
f 1152 1153 1151
f 552 1153 554
f 554 1153 556
f 1151 1153 552
f 115 1154 1152
f 1152 1154 1153
f 117 1154 115
f 1154 1155 1153
f 556 1155 559
f 559 1155 560
f 1153 1155 556
f 117 1156 1154
f 118 1156 117
f 560 1157 562
f 562 1157 564
f 1156 1157 1154
f 1154 1157 1155
f 1155 1157 560
f 118 1158 1156
f 8 1158 119
f 119 1158 118
f 1156 1158 1157
f 564 1159 567
f 567 1159 568
f 1157 1159 564
f 1158 1159 1157
f 11 1160 8
f 8 1160 1158
f 1158 1160 1159
f 1159 1161 568
f 1160 1161 1159
f 568 1161 571
f 571 1161 572
f 41 1162 11
f 44 1162 41
f 11 1162 1160
f 1160 1163 1161
f 1161 1163 572
f 44 1163 1162
f 1162 1163 1160
f 572 1163 575
f 575 1163 576
f 576 1163 577
f 45 1164 44
f 47 1164 45
f 44 1165 1163
f 1163 1165 577
f 1164 1165 44
f 47 1165 1164
f 577 1165 580
f 580 1165 581
f 50 1166 47
f 47 1167 1165
f 1165 1167 581
f 1166 1167 47
f 50 1167 1166
f 585 1167 50
f 581 1167 584
f 584 1167 585
f 51 1168 50
f 55 1168 51
f 1168 1169 50
f 50 1169 585
f 55 1169 1168
f 590 1169 55
f 585 1169 588
f 588 1169 589
f 589 1169 590
f 18 1170 55
f 55 1170 590
f 594 1170 18
f 590 1170 593
f 593 1170 594
f 57 1171 18
f 60 1171 57
f 18 1171 594
f 598 1171 60
f 594 1171 599
f 599 1171 598
f 601 1172 603
f 21 1172 60
f 22 1172 21
f 60 1172 596
f 603 1172 22
f 596 1172 601
f 603 1173 605
f 605 1173 607
f 607 1173 24
f 24 1173 22
f 22 1173 603
f 610 1174 611
f 26 1174 610
f 611 1174 28
f 28 1174 26
f 612 1175 615
f 28 1175 612
f 615 1175 31
f 30 1175 28
f 31 1175 30
f 617 1176 619
f 31 1176 617
f 33 1176 31
f 619 1176 35
f 35 1176 33
f 622 1177 623
f 35 1177 622
f 37 1177 35
f 623 1177 37
f 38 1068 39
f 38 383 1068
f 1068 384 1069
f 383 384 1068
f 1069 385 1070
f 384 385 1069
f 1070 386 1071
f 385 386 1070
f 1071 391 1072
f 386 391 1071
f 391 1073 1072
f 391 390 1073
f 390 1074 1073
f 390 389 1074
f 389 1075 1074
f 389 388 1075
