# smartdrone2 body-local mesh, millimetres
v 57.385372 23.548837 0.812800
v 56.745191 23.548837 0.812800
v 54.090000 16.655224 0.812800
v 57.593047 23.548837 0.812800
v 57.385372 23.628295 0.812800
v 57.683340 23.548837 0.812800
v 57.913589 24.069830 0.812800
v 57.683340 24.069830 0.812800
v 58.034816 24.081301 0.812800
v 58.584469 23.548837 0.812800
v 58.128663 24.111348 0.812800
v 58.178768 24.138974 0.812800
v 58.223295 24.173668 0.812800
v 58.942934 23.548837 0.812800
v 64.090000 16.655224 0.812800
v 58.276437 24.235100 0.812800
v 59.059402 23.557552 0.812800
v 58.312991 24.306695 0.812800
v 59.830519 23.548837 0.812800
v 59.351266 23.686613 0.812800
v 59.264982 23.627025 0.812800
v 59.423534 23.761909 0.812800
v 59.481813 23.853215 0.812800
v 59.166773 23.583642 0.812800
v 58.584469 24.821072 0.812800
v 58.155541 24.769105 0.812800
v 58.223295 24.723555 0.812800
v 58.075148 24.800437 0.812800
v 57.996696 24.815913 0.812800
v 58.326826 24.549557 0.812800
v 58.337065 24.451772 0.812800
v 58.300101 24.625594 0.812800
v 58.266957 24.678108 0.812800
v 59.524306 23.957291 0.812800
v 59.550068 24.072843 0.812800
v 60.188984 23.548837 0.812800
v 60.305451 23.557552 0.812800
v 61.076568 23.548837 0.812800
v 60.597316 23.686613 0.812800
v 60.511032 23.627025 0.812800
v 60.669584 23.761909 0.812800
v 60.727863 23.853215 0.812800
v 60.412823 23.583642 0.812800
v 59.830519 24.821072 0.812800
v 59.280877 24.734812 0.812800
v 59.385372 24.659446 0.812800
v 59.154554 24.786769 0.812800
v 59.029647 24.812485 0.812800
v 59.495629 24.509901 0.812800
v 59.539473 24.383416 0.812800
v 59.447320 24.590087 0.812800
v 61.166862 23.548837 0.812800
v 60.770356 23.957291 0.812800
v 61.765508 23.548837 0.812800
v 61.875666 23.548837 0.812800
v 61.404334 24.106850 0.812800
v 61.166862 24.106850 0.812800
v 54.090000 31.660213 0.812800
v 56.745191 24.821072 0.812800
v 56.835485 24.821072 0.812800
v 57.593047 24.821072 0.812800
v 57.909074 24.821072 0.812800
v 58.888758 24.821072 0.812800
v 61.076568 24.821072 0.812800
v 60.526927 24.734812 0.812800
v 60.631422 24.659446 0.812800
v 60.400603 24.786769 0.812800
v 60.275697 24.812485 0.812800
v 60.741679 24.509901 0.812800
v 60.785522 24.383416 0.812800
v 60.693370 24.590087 0.812800
v 61.713217 24.200162 0.812800
v 61.677354 24.174938 0.812800
v 61.745643 24.229650 0.812800
v 61.792809 24.290972 0.812800
v 61.823591 24.361362 0.812800
v 61.834867 24.413473 0.812800
v 61.838645 24.469830 0.812800
v 64.090000 31.660213 0.812800
v 60.134808 24.821072 0.812800
v 61.410654 24.821072 0.812800
v 61.657035 24.770795 0.812800
v 61.724654 24.726898 0.812800
v 61.576706 24.801072 0.812800
v 61.498274 24.816064 0.812800
v 61.828400 24.561245 0.812800
v 61.801640 24.633060 0.812800
v 61.768430 24.683139 0.812800
v 56.835485 23.628295 0.812800
v 58.331047 24.375618 0.812800
v 59.558735 24.199853 0.812800
v 61.500045 24.117686 0.812800
v 61.595421 24.137483 0.812800
v 60.804785 24.199853 0.812800
v 60.796117 24.072843 0.812800
v 58.212427 24.297797 0.812800
v 58.155575 24.225135 0.812800
v 58.187517 24.258867 0.812800
v 58.235033 24.359304 0.812800
v 58.102135 24.188442 0.812800
v 58.038212 24.163202 0.812800
v 57.896433 24.743419 0.812800
v 57.683340 24.743419 0.812800
v 57.683340 24.146580 0.812800
v 57.904559 24.146580 0.812800
v 57.975332 24.150735 0.812800
v 58.244966 24.449063 0.812800
v 58.002395 24.734707 0.812800
v 58.240254 24.509453 0.812800
v 58.089200 24.708633 0.812800
v 58.226185 24.563504 0.812800
v 58.125452 24.689115 0.812800
v 58.156955 24.665293 0.812800
v 58.197866 24.618818 0.812800
v 59.350827 23.814233 0.812800
v 59.212912 23.696918 0.812800
v 59.288089 23.748753 0.812800
v 59.400722 23.893758 0.812800
v 59.126865 23.659296 0.812800
v 59.437073 23.985556 0.812800
v 59.031388 23.636723 0.812800
v 59.459179 24.087588 0.812800
v 58.926681 23.629198 0.812800
v 58.883340 24.740711 0.812800
v 58.674763 24.740711 0.812800
v 58.674763 23.629198 0.812800
v 59.466636 24.199853 0.812800
v 59.060007 24.725352 0.812800
v 59.463905 24.269410 0.812800
v 59.455726 24.334216 0.812800
v 59.192205 24.685240 0.812800
v 59.427492 24.438612 0.812800
v 59.260477 24.648450 0.812800
v 59.381952 24.527940 0.812800
v 59.319246 24.602337 0.812800
v 60.596876 23.814233 0.812800
v 60.458961 23.696918 0.812800
v 60.534139 23.748753 0.812800
v 60.646772 23.893758 0.812800
v 60.372915 23.659296 0.812800
v 60.683123 23.985556 0.812800
v 60.277438 23.636723 0.812800
v 60.705228 24.087588 0.812800
v 60.172731 23.629198 0.812800
v 60.129390 24.740711 0.812800
v 59.920812 24.740711 0.812800
v 59.920812 23.629198 0.812800
v 60.712686 24.199853 0.812800
v 60.306056 24.725352 0.812800
v 60.709954 24.269410 0.812800
v 60.701776 24.334216 0.812800
v 60.438254 24.685240 0.812800
v 60.673541 24.438612 0.812800
v 60.506527 24.648450 0.812800
v 60.628002 24.527940 0.812800
v 60.565295 24.602337 0.812800
v 61.717670 24.335192 0.812800
v 61.658058 24.259447 0.812800
v 61.691898 24.294690 0.812800
v 61.738525 24.393505 0.812800
v 61.605205 24.224019 0.812800
v 61.402528 24.743419 0.812800
v 61.166862 24.743419 0.812800
v 61.166862 24.183600 0.812800
v 61.409751 24.183600 0.812800
v 61.479532 24.187612 0.812800
v 61.746546 24.468024 0.812800
v 61.541795 24.199649 0.812800
v 61.504250 24.735316 0.812800
v 61.589069 24.711101 0.812800
v 61.744904 24.502215 0.812800
v 61.625124 24.692994 0.812800
v 61.739977 24.534313 0.812800
v 61.656934 24.670912 0.812800
v 61.722899 24.586622 0.812800
v 61.695225 24.632163 0.812800
v 54.090000 31.660213 0.000000
v 64.090000 31.660213 0.000000
v 54.090000 16.655224 0.000000
v 64.090000 16.655224 0.000000
v 56.745191 23.548837 0.792800
v 57.385372 23.548837 0.792800
v 56.745191 24.821072 0.792800
v 56.835485 24.821072 0.792800
v 56.835485 23.628295 0.792800
v 57.385372 23.628295 0.792800
v 57.683340 24.069830 0.792800
v 57.593047 23.548837 0.792800
v 57.683340 23.548837 0.792800
v 57.904559 24.146580 0.792800
v 57.913589 24.069830 0.792800
v 57.683340 24.146580 0.792800
v 57.970108 24.150132 0.792800
v 58.034816 24.081301 0.792800
v 58.027535 24.160348 0.792800
v 58.128663 24.111348 0.792800
v 58.099080 24.186856 0.792800
v 58.178768 24.138974 0.792800
v 58.155575 24.225135 0.792800
v 58.223295 24.173668 0.792800
v 57.683340 24.743419 0.792800
v 57.593047 24.821072 0.792800
v 58.186660 24.257833 0.792800
v 58.276437 24.235100 0.792800
v 58.211268 24.295493 0.792800
v 58.312991 24.306695 0.792800
v 58.234169 24.355819 0.792800
v 58.331047 24.375618 0.792800
v 58.244966 24.449063 0.792800
v 57.909074 24.821072 0.792800
v 57.896433 24.743419 0.792800
v 58.337065 24.451772 0.792800
v 58.239739 24.512287 0.792800
v 57.996696 24.815913 0.792800
v 58.007669 24.733723 0.792800
v 58.075148 24.800437 0.792800
v 58.093428 24.706694 0.792800
v 58.326826 24.549557 0.792800
v 58.225124 24.566506 0.792800
v 58.155541 24.769105 0.792800
v 58.127782 24.687598 0.792800
v 58.300101 24.625594 0.792800
v 58.196940 24.620131 0.792800
v 58.266957 24.678108 0.792800
v 58.223295 24.723555 0.792800
v 58.156955 24.665293 0.792800
v 58.942934 23.548837 0.792800
v 58.674763 23.629198 0.792800
v 58.584469 23.548837 0.792800
v 58.926681 23.629198 0.792800
v 59.035522 23.637358 0.792800
v 59.059402 23.557552 0.792800
v 59.130504 23.660517 0.792800
v 59.166773 23.583642 0.792800
v 59.212912 23.696918 0.792800
v 59.264982 23.627025 0.792800
v 59.288801 23.749359 0.792800
v 59.351266 23.686613 0.792800
v 59.350564 23.813896 0.792800
v 59.423534 23.761909 0.792800
v 59.400722 23.893758 0.792800
v 59.481813 23.853215 0.792800
v 58.674763 24.740711 0.792800
v 58.584469 24.821072 0.792800
v 59.435935 23.981832 0.792800
v 59.524306 23.957291 0.792800
v 59.458581 24.083364 0.792800
v 59.550068 24.072843 0.792800
v 59.466636 24.199853 0.792800
v 58.888758 24.821072 0.792800
v 58.883340 24.740711 0.792800
v 59.558735 24.199853 0.792800
v 59.457678 24.322030 0.792800
v 59.029647 24.812485 0.792800
v 59.070173 24.723338 0.792800
v 59.539473 24.383416 0.792800
v 59.432609 24.424816 0.792800
v 59.154554 24.786769 0.792800
v 59.200938 24.681308 0.792800
v 59.495629 24.509901 0.792800
v 59.384969 24.523262 0.792800
v 59.280877 24.734812 0.792800
v 59.265361 24.645203 0.792800
v 59.447320 24.590087 0.792800
v 59.319246 24.602337 0.792800
v 59.385372 24.659446 0.792800
v 60.188984 23.548837 0.792800
v 59.920812 23.629198 0.792800
v 59.830519 23.548837 0.792800
v 60.172731 23.629198 0.792800
v 60.281572 23.637358 0.792800
v 60.305451 23.557552 0.792800
v 60.376554 23.660517 0.792800
v 60.412823 23.583642 0.792800
v 60.458961 23.696918 0.792800
v 60.511032 23.627025 0.792800
v 60.534851 23.749359 0.792800
v 60.597316 23.686613 0.792800
v 60.596613 23.813896 0.792800
v 60.669584 23.761909 0.792800
v 60.646772 23.893758 0.792800
v 60.727863 23.853215 0.792800
v 59.920812 24.740711 0.792800
v 59.830519 24.821072 0.792800
v 60.681984 23.981832 0.792800
v 60.770356 23.957291 0.792800
v 60.704630 24.083364 0.792800
v 60.796117 24.072843 0.792800
v 60.712686 24.199853 0.792800
v 60.134808 24.821072 0.792800
v 60.129390 24.740711 0.792800
v 60.804785 24.199853 0.792800
v 60.703728 24.322030 0.792800
v 60.275697 24.812485 0.792800
v 60.316223 24.723338 0.792800
v 60.785522 24.383416 0.792800
v 60.678658 24.424816 0.792800
v 60.400603 24.786769 0.792800
v 60.446988 24.681308 0.792800
v 60.741679 24.509901 0.792800
v 60.631019 24.523262 0.792800
v 60.526927 24.734812 0.792800
v 60.511411 24.645203 0.792800
v 60.693370 24.590087 0.792800
v 60.565295 24.602337 0.792800
v 60.631422 24.659446 0.792800
v 61.166862 24.106850 0.792800
v 61.076568 23.548837 0.792800
v 61.166862 23.548837 0.792800
v 61.404334 24.106850 0.792800
v 61.166862 24.183600 0.792800
v 61.409751 24.183600 0.792800
v 61.500045 24.117686 0.792800
v 61.765508 23.548837 0.792800
v 61.474454 24.187033 0.792800
v 61.531311 24.196923 0.792800
v 61.595421 24.137483 0.792800
v 61.602327 24.222561 0.792800
v 61.677354 24.174938 0.792800
v 61.166862 24.743419 0.792800
v 61.076568 24.821072 0.792800
v 61.658058 24.259447 0.792800
v 61.713217 24.200162 0.792800
v 61.745643 24.229650 0.792800
v 61.691336 24.294035 0.792800
v 61.792809 24.290972 0.792800
v 61.716801 24.333354 0.792800
v 61.823591 24.361362 0.792800
v 61.737840 24.390687 0.792800
v 61.410654 24.821072 0.792800
v 61.402528 24.743419 0.792800
v 61.834867 24.413473 0.792800
v 61.746546 24.468024 0.792800
v 61.838645 24.469830 0.792800
v 61.744726 24.503625 0.792800
v 61.498274 24.816064 0.792800
v 61.509089 24.734451 0.792800
v 61.576706 24.801072 0.792800
v 61.593026 24.709399 0.792800
v 61.828400 24.561245 0.792800
v 61.724409 24.583458 0.792800
v 61.739491 24.536398 0.792800
v 61.657035 24.770795 0.792800
v 61.627332 24.691666 0.792800
v 61.656934 24.670912 0.792800
v 61.801640 24.633060 0.792800
v 61.698176 24.628257 0.792800
v 61.724654 24.726898 0.792800
v 61.768430 24.683139 0.792800
v 61.875666 23.548837 0.792800
v 58.235033 24.359304 0.799467
v 58.205237 24.284795 0.799467
v 58.205645 24.606635 0.799467
v 58.235085 24.534523 0.799467
v 58.002395 24.734707 0.799467
v 58.089200 24.708633 0.799467
v 58.088089 24.181493 0.799467
v 58.004551 24.155308 0.799467
v 58.324424 24.559555 0.799467
v 58.286501 24.650083 0.799467
v 58.286501 24.250986 0.799467
v 58.324424 24.343754 0.799467
v 58.034816 24.081301 0.799467
v 58.138185 24.115846 0.799467
v 58.137817 24.777731 0.799467
v 58.137817 24.777731 0.806133
v 58.033077 24.810236 0.799467
v 58.033077 24.810236 0.806133
v 59.459179 24.087588 0.799467
v 59.437073 23.985556 0.799467
v 59.400893 24.496484 0.799467
v 59.400893 24.496484 0.806133
v 59.450141 24.362440 0.799467
v 59.450141 24.362440 0.806133
v 59.060007 24.725352 0.799467
v 59.060007 24.725352 0.806133
v 59.205324 24.679244 0.799467
v 59.205324 24.679244 0.806133
v 59.126865 23.659296 0.799467
v 59.031388 23.636723 0.799467
v 59.350827 23.814233 0.799467
v 59.288089 23.748753 0.799467
v 59.539473 24.383416 0.799467
v 59.539473 24.383416 0.806133
v 59.481685 24.536681 0.799467
v 59.481685 24.536681 0.806133
v 59.524306 23.957291 0.799467
v 59.550068 24.072843 0.799467
v 59.351266 23.686613 0.799467
v 59.423534 23.761909 0.799467
v 59.059402 23.557552 0.799467
v 59.166773 23.583642 0.799467
v 59.253209 24.749104 0.799467
v 59.253209 24.749104 0.806133
v 59.087738 24.803046 0.799467
v 59.087738 24.803046 0.806133
v 60.705228 24.087588 0.799467
v 60.683123 23.985556 0.799467
v 60.646943 24.496484 0.799467
v 60.646943 24.496484 0.806133
v 60.696191 24.362440 0.799467
v 60.696191 24.362440 0.806133
v 60.306056 24.725352 0.799467
v 60.306056 24.725352 0.806133
v 60.451374 24.679244 0.799467
v 60.451374 24.679244 0.806133
v 60.372915 23.659296 0.799467
v 60.277438 23.636723 0.799467
v 60.596876 23.814233 0.799467
v 60.534139 23.748753 0.799467
v 60.785522 24.383416 0.799467
v 60.785522 24.383416 0.806133
v 60.727735 24.536681 0.799467
v 60.727735 24.536681 0.806133
v 60.770356 23.957291 0.799467
v 60.796117 24.072843 0.799467
v 60.597316 23.686613 0.799467
v 60.669584 23.761909 0.799467
v 60.305451 23.557552 0.799467
v 60.412823 23.583642 0.799467
v 60.499259 24.749104 0.799467
v 60.499259 24.749104 0.806133
v 60.333788 24.803046 0.799467
v 60.333788 24.803046 0.806133
v 61.736647 24.385857 0.799467
v 61.707084 24.316331 0.799467
v 61.706751 24.616025 0.799467
v 61.504250 24.735316 0.799467
v 61.589069 24.711101 0.799467
v 61.591275 24.217310 0.799467
v 61.508439 24.192027 0.799467
v 61.825996 24.570648 0.799467
v 61.788015 24.656357 0.799467
v 61.797043 24.298340 0.799467
v 61.828178 24.378266 0.799467
v 61.595421 24.137483 0.799467
v 61.677354 24.174938 0.799467
v 61.639332 24.779123 0.799467
v 61.639332 24.779123 0.806133
v 61.534649 24.810561 0.799467
v 61.534649 24.810561 0.806133
f 1 2 3
f 4 1 3
f 4 5 1
f 6 4 3
f 7 8 6
f 9 7 6
f 10 6 3
f 10 9 6
f 11 9 10
f 12 11 10
f 13 12 10
f 14 3 15
f 14 10 3
f 16 13 10
f 17 14 15
f 18 16 10
f 19 17 15
f 19 20 21
f 19 22 20
f 19 23 22
f 19 24 17
f 19 21 24
f 25 26 27
f 25 28 26
f 25 29 28
f 25 30 31
f 25 32 30
f 25 33 32
f 25 27 33
f 34 23 19
f 35 34 19
f 36 19 15
f 37 36 15
f 38 39 40
f 38 41 39
f 38 42 41
f 38 43 37
f 38 40 43
f 38 37 15
f 44 45 46
f 44 47 45
f 44 48 47
f 44 49 50
f 44 51 49
f 44 46 51
f 52 38 15
f 53 42 38
f 54 52 15
f 55 54 15
f 56 52 54
f 56 57 52
f 58 3 2
f 58 2 59
f 58 59 60
f 58 61 62
f 58 62 29
f 58 60 61
f 58 25 63
f 58 29 25
f 64 65 66
f 64 67 65
f 64 68 67
f 64 69 70
f 64 71 69
f 64 66 71
f 72 73 55
f 74 72 55
f 75 74 55
f 76 75 55
f 77 76 55
f 78 77 55
f 79 58 63
f 79 68 64
f 79 63 48
f 79 55 15
f 79 44 80
f 79 80 68
f 79 78 55
f 79 64 81
f 79 82 83
f 79 84 82
f 79 85 84
f 79 81 85
f 79 86 78
f 79 87 86
f 79 88 87
f 79 83 88
f 79 48 44
f 4 61 5
f 5 61 89
f 89 61 60
f 10 25 31
f 10 31 90
f 10 90 18
f 19 44 91
f 91 44 50
f 19 91 35
f 92 55 93
f 93 55 73
f 38 64 94
f 94 64 70
f 38 94 95
f 38 95 53
f 96 97 98
f 99 100 97
f 99 101 100
f 99 97 96
f 102 103 104
f 102 104 105
f 102 105 106
f 107 101 99
f 108 106 101
f 108 102 106
f 108 101 107
f 109 108 107
f 110 109 111
f 110 108 109
f 112 110 111
f 113 111 114
f 113 112 111
f 115 116 117
f 118 119 116
f 118 116 115
f 120 121 119
f 120 119 118
f 122 123 121
f 122 121 120
f 124 125 126
f 124 126 123
f 127 124 123
f 127 123 122
f 128 127 129
f 128 124 127
f 130 128 129
f 131 130 132
f 131 128 130
f 133 131 132
f 134 133 132
f 135 133 134
f 136 137 138
f 139 140 137
f 139 137 136
f 141 142 140
f 141 140 139
f 143 144 142
f 143 142 141
f 145 146 147
f 145 147 144
f 148 145 144
f 148 144 143
f 149 148 150
f 149 145 148
f 151 149 150
f 152 151 153
f 152 149 151
f 154 152 153
f 155 154 153
f 156 154 155
f 157 158 159
f 160 161 158
f 160 158 157
f 162 163 164
f 162 164 165
f 162 165 166
f 167 168 161
f 167 161 160
f 169 166 168
f 169 162 166
f 170 167 171
f 170 169 168
f 170 168 167
f 172 171 173
f 172 170 171
f 174 175 176
f 174 173 175
f 174 172 173
f 79 177 58
f 178 177 79
f 177 179 3
f 177 3 58
f 180 3 179
f 15 3 180
f 178 15 180
f 79 15 178
f 180 179 177
f 180 177 178
f 2 1 181
f 181 1 182
f 59 2 183
f 183 2 181
f 60 59 184
f 184 59 183
f 89 60 185
f 185 60 184
f 5 89 186
f 186 89 185
f 1 5 182
f 182 5 186
f 182 185 181
f 186 185 182
f 183 181 185
f 184 183 185
f 187 188 189
f 190 187 191
f 190 192 187
f 193 191 194
f 193 190 191
f 195 193 194
f 196 195 194
f 197 195 196
f 198 197 196
f 199 197 198
f 200 199 198
f 201 202 192
f 203 199 200
f 204 205 203
f 204 203 200
f 206 207 205
f 206 205 204
f 208 209 207
f 208 207 206
f 210 201 211
f 210 202 201
f 212 213 209
f 212 209 208
f 214 211 215
f 214 210 211
f 216 215 217
f 216 214 215
f 218 219 213
f 218 213 212
f 220 216 217
f 220 217 221
f 222 219 218
f 222 223 219
f 224 223 222
f 225 220 221
f 225 223 224
f 225 221 226
f 225 226 223
f 202 188 187
f 202 187 192
f 227 228 229
f 230 228 227
f 231 227 232
f 231 230 227
f 233 232 234
f 233 231 232
f 235 234 236
f 235 233 234
f 237 236 238
f 237 235 236
f 239 237 238
f 240 239 238
f 241 239 240
f 242 241 240
f 243 244 229
f 243 229 228
f 245 241 242
f 246 245 242
f 247 245 246
f 248 247 246
f 249 247 248
f 250 243 251
f 250 244 243
f 252 249 248
f 253 249 252
f 254 251 255
f 254 250 251
f 256 257 253
f 256 253 252
f 258 255 259
f 258 254 255
f 260 257 256
f 260 261 257
f 262 258 259
f 262 259 263
f 264 261 260
f 264 265 261
f 266 262 263
f 266 265 264
f 266 263 265
f 267 268 269
f 270 268 267
f 271 267 272
f 271 270 267
f 273 272 274
f 273 271 272
f 275 274 276
f 275 273 274
f 277 276 278
f 277 275 276
f 279 277 278
f 280 279 278
f 281 279 280
f 282 281 280
f 283 284 269
f 283 269 268
f 285 281 282
f 286 285 282
f 287 285 286
f 288 287 286
f 289 287 288
f 290 283 291
f 290 284 283
f 292 289 288
f 293 289 292
f 294 291 295
f 294 290 291
f 296 297 293
f 296 293 292
f 298 295 299
f 298 294 295
f 300 297 296
f 300 301 297
f 302 298 299
f 302 299 303
f 304 301 300
f 304 305 301
f 306 302 303
f 306 305 304
f 306 303 305
f 307 308 309
f 310 311 307
f 312 311 310
f 313 310 314
f 315 312 310
f 315 310 313
f 316 315 313
f 317 316 313
f 318 316 317
f 319 318 317
f 320 321 311
f 322 319 323
f 322 318 319
f 324 322 323
f 325 322 324
f 326 327 325
f 326 325 324
f 328 329 327
f 328 327 326
f 330 320 331
f 330 321 320
f 332 333 329
f 332 329 328
f 334 335 333
f 334 333 332
f 336 330 331
f 336 331 337
f 338 336 337
f 338 337 339
f 340 335 334
f 340 341 342
f 340 342 335
f 343 338 339
f 343 339 344
f 343 344 345
f 346 341 340
f 346 347 341
f 348 343 345
f 348 345 347
f 349 347 346
f 349 348 347
f 321 308 307
f 321 307 311
f 350 313 314
f 203 97 199
f 98 97 203
f 99 351 107
f 96 351 99
f 107 351 209
f 209 351 207
f 207 351 205
f 205 351 96
f 98 352 96
f 205 352 203
f 96 352 205
f 203 352 98
f 113 114 226
f 226 114 223
f 213 107 209
f 109 107 213
f 111 353 114
f 223 353 219
f 114 353 223
f 219 353 111
f 109 354 111
f 219 354 213
f 111 354 219
f 213 354 109
f 221 113 226
f 112 113 221
f 108 355 102
f 102 355 211
f 211 355 215
f 110 356 108
f 112 356 110
f 215 356 217
f 217 356 221
f 355 356 215
f 221 356 112
f 108 356 355
f 103 102 201
f 201 102 211
f 104 103 192
f 192 103 201
f 105 104 190
f 190 104 192
f 97 100 199
f 199 100 197
f 193 105 190
f 106 105 193
f 101 357 100
f 197 357 195
f 100 357 197
f 195 357 101
f 106 358 101
f 195 358 193
f 101 358 195
f 193 358 106
f 31 30 212
f 212 30 218
f 224 27 225
f 33 27 224
f 32 359 30
f 218 359 222
f 30 359 218
f 222 359 32
f 33 360 32
f 222 360 224
f 32 360 222
f 224 360 33
f 13 16 200
f 200 16 204
f 208 31 212
f 90 31 208
f 18 361 16
f 204 361 206
f 16 361 204
f 206 361 18
f 90 362 18
f 206 362 208
f 18 362 206
f 208 362 90
f 198 13 200
f 12 13 198
f 9 363 7
f 11 363 9
f 7 363 191
f 191 363 194
f 194 363 196
f 196 363 11
f 12 364 11
f 196 364 198
f 11 364 196
f 198 364 12
f 8 7 187
f 187 7 191
f 6 8 189
f 189 8 187
f 4 6 188
f 188 6 189
f 61 4 202
f 202 4 188
f 62 61 210
f 210 61 202
f 27 26 225
f 225 26 220
f 214 62 210
f 29 62 214
f 220 365 216
f 28 366 26
f 365 366 216
f 26 366 220
f 216 366 28
f 220 366 365
f 216 367 214
f 29 368 28
f 216 368 367
f 367 368 214
f 28 368 216
f 214 368 29
f 122 369 127
f 127 369 249
f 249 369 247
f 120 370 122
f 118 370 120
f 247 370 245
f 245 370 241
f 241 370 118
f 122 370 369
f 369 370 247
f 135 134 265
f 265 134 261
f 130 129 253
f 129 249 253
f 129 127 249
f 261 371 257
f 257 371 132
f 132 372 134
f 134 372 261
f 371 372 132
f 261 372 371
f 257 373 253
f 253 373 130
f 130 374 132
f 373 374 130
f 257 374 373
f 132 374 257
f 255 131 259
f 128 131 255
f 263 135 265
f 133 135 263
f 251 375 255
f 128 376 124
f 124 376 251
f 375 376 255
f 255 376 128
f 251 376 375
f 259 377 263
f 131 377 259
f 263 377 133
f 133 378 131
f 377 378 133
f 131 378 377
f 125 124 243
f 243 124 251
f 126 125 228
f 228 125 243
f 123 126 230
f 230 126 228
f 119 379 116
f 116 379 235
f 235 379 233
f 121 380 119
f 123 380 121
f 233 380 231
f 231 380 230
f 230 380 123
f 119 380 379
f 379 380 233
f 115 381 118
f 118 381 241
f 241 381 239
f 117 382 115
f 116 382 117
f 239 382 237
f 237 382 235
f 235 382 116
f 115 382 381
f 381 382 239
f 264 46 266
f 51 46 264
f 252 383 256
f 256 383 260
f 50 384 91
f 49 384 50
f 91 384 252
f 252 384 383
f 260 384 49
f 383 384 260
f 260 385 264
f 51 386 49
f 49 386 260
f 264 386 51
f 260 386 385
f 385 386 264
f 34 387 23
f 23 387 242
f 242 387 246
f 35 388 34
f 91 388 35
f 246 388 248
f 248 388 252
f 252 388 91
f 34 388 387
f 387 388 246
f 20 389 21
f 21 389 236
f 236 389 238
f 22 390 20
f 23 390 22
f 238 390 240
f 240 390 242
f 242 390 23
f 20 390 389
f 389 390 238
f 17 391 14
f 14 391 227
f 227 391 232
f 24 392 17
f 21 392 24
f 232 392 234
f 234 392 236
f 236 392 21
f 17 392 391
f 391 392 232
f 10 14 229
f 229 14 227
f 25 10 244
f 244 10 229
f 63 25 250
f 250 25 244
f 46 45 266
f 266 45 262
f 254 63 250
f 48 63 254
f 262 393 258
f 47 394 45
f 393 394 258
f 45 394 262
f 258 394 47
f 262 394 393
f 258 395 254
f 48 396 47
f 258 396 395
f 395 396 254
f 47 396 258
f 254 396 48
f 143 397 148
f 148 397 289
f 289 397 287
f 141 398 143
f 139 398 141
f 287 398 285
f 285 398 281
f 281 398 139
f 143 398 397
f 397 398 287
f 156 155 305
f 305 155 301
f 151 150 293
f 150 289 293
f 150 148 289
f 301 399 297
f 297 399 153
f 153 400 155
f 155 400 301
f 399 400 153
f 301 400 399
f 297 401 293
f 293 401 151
f 151 402 153
f 401 402 151
f 297 402 401
f 153 402 297
f 295 152 299
f 149 152 295
f 303 156 305
f 154 156 303
f 291 403 295
f 149 404 145
f 145 404 291
f 403 404 295
f 295 404 149
f 291 404 403
f 299 405 303
f 152 405 299
f 303 405 154
f 154 406 152
f 405 406 154
f 152 406 405
f 146 145 283
f 283 145 291
f 147 146 268
f 268 146 283
f 144 147 270
f 270 147 268
f 140 407 137
f 137 407 275
f 275 407 273
f 142 408 140
f 144 408 142
f 273 408 271
f 271 408 270
f 270 408 144
f 140 408 407
f 407 408 273
f 136 409 139
f 139 409 281
f 281 409 279
f 138 410 136
f 137 410 138
f 279 410 277
f 277 410 275
f 275 410 137
f 136 410 409
f 409 410 279
f 304 66 306
f 71 66 304
f 292 411 296
f 296 411 300
f 70 412 94
f 69 412 70
f 94 412 292
f 292 412 411
f 300 412 69
f 411 412 300
f 300 413 304
f 71 414 69
f 69 414 300
f 304 414 71
f 300 414 413
f 413 414 304
f 53 415 42
f 42 415 282
f 282 415 286
f 95 416 53
f 94 416 95
f 286 416 288
f 288 416 292
f 292 416 94
f 53 416 415
f 415 416 286
f 39 417 40
f 40 417 276
f 276 417 278
f 41 418 39
f 42 418 41
f 278 418 280
f 280 418 282
f 282 418 42
f 39 418 417
f 417 418 278
f 37 419 36
f 36 419 267
f 267 419 272
f 43 420 37
f 40 420 43
f 272 420 274
f 274 420 276
f 276 420 40
f 37 420 419
f 419 420 272
f 19 36 269
f 269 36 267
f 44 19 284
f 284 19 269
f 80 44 290
f 290 44 284
f 66 65 306
f 306 65 302
f 294 80 290
f 68 80 294
f 302 421 298
f 67 422 65
f 421 422 298
f 65 422 302
f 298 422 67
f 302 422 421
f 298 423 294
f 68 424 67
f 298 424 423
f 423 424 294
f 67 424 298
f 294 424 68
f 167 160 333
f 333 160 329
f 325 158 322
f 159 158 325
f 157 425 160
f 329 425 327
f 160 425 329
f 327 425 157
f 159 426 157
f 327 426 325
f 157 426 327
f 325 426 159
f 174 176 345
f 345 176 347
f 341 173 342
f 175 173 341
f 342 171 335
f 173 171 342
f 335 167 333
f 171 167 335
f 175 427 176
f 347 427 341
f 176 427 347
f 341 427 175
f 172 345 344
f 172 174 345
f 169 428 162
f 162 428 331
f 331 428 337
f 170 429 169
f 172 429 170
f 337 429 339
f 339 429 344
f 428 429 337
f 344 429 172
f 169 429 428
f 163 162 320
f 320 162 331
f 164 163 311
f 311 163 320
f 165 164 312
f 312 164 311
f 158 161 322
f 322 161 318
f 315 165 312
f 166 165 315
f 168 430 161
f 318 430 316
f 161 430 318
f 316 430 168
f 166 431 168
f 316 431 315
f 168 431 316
f 315 431 166
f 78 86 334
f 334 86 340
f 349 83 348
f 88 83 349
f 87 432 86
f 340 432 346
f 86 432 340
f 346 432 87
f 88 433 87
f 346 433 349
f 87 433 346
f 349 433 88
f 74 75 324
f 324 75 326
f 332 78 334
f 77 78 332
f 76 434 75
f 326 434 328
f 75 434 326
f 328 434 76
f 77 435 76
f 328 435 332
f 76 435 328
f 332 435 77
f 323 74 324
f 72 74 323
f 93 436 92
f 92 436 313
f 313 436 317
f 73 437 93
f 72 437 73
f 317 437 319
f 319 437 323
f 436 437 317
f 323 437 72
f 93 437 436
f 55 92 350
f 350 92 313
f 54 55 314
f 314 55 350
f 56 54 310
f 310 54 314
f 57 56 307
f 307 56 310
f 52 57 309
f 309 57 307
f 38 52 308
f 308 52 309
f 64 38 321
f 321 38 308
f 81 64 330
f 330 64 321
f 83 82 348
f 348 82 343
f 336 81 330
f 85 81 336
f 343 438 338
f 84 439 82
f 438 439 338
f 82 439 343
f 338 439 84
f 343 439 438
f 338 440 336
f 85 441 84
f 338 441 440
f 440 441 336
f 84 441 338
f 336 441 85
