# smartdrone2 body-local mesh, millimetres
v 1268.807626 445.638006 2.500000
v 1268.807626 445.638006 2.250000
v 1268.807626 443.538006 2.500000
v 1268.807626 443.538006 2.250000
v 1272.374901 443.444483 2.500000
v 1272.322709 443.402861 2.500000
v 1272.351150 443.420731 2.500000
v 1272.392772 443.472924 2.500000
v 1272.291005 443.391767 2.500000
v 1272.407626 443.538006 2.500000
v 1272.257626 443.388006 2.500000
v 1272.403866 443.504628 2.500000
v 1271.891264 443.816244 2.500000
v 1271.879388 443.804369 2.500000
v 1271.865168 443.795433 2.500000
v 1271.900199 443.830465 2.500000
v 1271.849316 443.789887 2.500000
v 1271.905746 443.846317 2.500000
v 1271.907626 443.863006 2.500000
v 1272.407626 444.103747 2.500000
v 1271.832626 443.788006 2.500000
v 1272.207626 444.282907 2.500000
v 1271.255701 443.788006 2.500000
v 1271.211098 443.783541 2.500000
v 1271.168265 443.770323 2.500000
v 1271.128903 443.748876 2.500000
v 1270.967082 443.660705 2.500000
v 1270.790993 443.606363 2.500000
v 1270.607626 443.588006 2.500000
v 1272.392772 445.703089 2.500000
v 1272.374901 445.731530 2.500000
v 1272.403866 445.671384 2.500000
v 1272.407626 445.638006 2.500000
v 1271.907626 445.313006 2.500000
v 1272.407626 445.072265 2.500000
v 1272.207626 444.893105 2.500000
v 1271.905746 445.329695 2.500000
v 1271.900199 445.345547 2.500000
v 1272.351150 445.755281 2.500000
v 1272.322709 445.773151 2.500000
v 1271.891264 445.359768 2.500000
v 1272.291005 445.784245 2.500000
v 1272.257626 445.788006 2.500000
v 1271.879388 445.371643 2.500000
v 1271.865168 445.380579 2.500000
v 1271.849316 445.386126 2.500000
v 1271.832626 445.388006 2.500000
v 1270.046987 443.770323 2.500000
v 1269.959552 443.788006 2.500000
v 1270.086349 443.748876 2.500000
v 1270.004155 443.783541 2.500000
v 1270.248171 443.660705 2.500000
v 1268.957626 443.388006 2.500000
v 1269.365937 443.789887 2.500000
v 1269.382626 443.788006 2.500000
v 1270.424260 443.606363 2.500000
v 1269.350085 443.795433 2.500000
v 1269.335865 443.804369 2.500000
v 1271.007225 445.497240 2.500000
v 1271.182083 445.388006 2.500000
v 1269.323989 443.816244 2.500000
v 1268.924248 443.391767 2.500000
v 1268.864103 443.420731 2.500000
v 1268.892544 443.402861 2.500000
v 1268.840352 443.444483 2.500000
v 1268.822481 443.472924 2.500000
v 1268.811387 443.504628 2.500000
v 1269.315054 443.830465 2.500000
v 1269.309507 443.846317 2.500000
v 1269.307626 443.863006 2.500000
v 1270.812515 445.565029 2.500000
v 1270.208028 445.497240 2.500000
v 1269.382626 445.388006 2.500000
v 1270.033170 445.388006 2.500000
v 1269.307626 445.313006 2.500000
v 1269.309507 445.329695 2.500000
v 1269.315054 445.345547 2.500000
v 1269.323989 445.359768 2.500000
v 1268.957626 445.788006 2.500000
v 1270.402738 445.565029 2.500000
v 1269.335865 445.371643 2.500000
v 1269.350085 445.380579 2.500000
v 1269.365937 445.386126 2.500000
v 1268.822481 445.703089 2.500000
v 1268.811387 445.671384 2.500000
v 1268.924248 445.784245 2.500000
v 1268.892544 445.773151 2.500000
v 1268.864103 445.755281 2.500000
v 1268.840352 445.731530 2.500000
v 1270.607626 445.588006 2.500000
v 1269.382626 443.788006 3.100000
v 1269.365937 443.789887 3.100000
v 1269.350085 443.795433 3.100000
v 1269.335865 443.804369 3.100000
v 1269.323989 443.816244 3.100000
v 1269.315054 443.830465 3.100000
v 1269.309507 443.846317 3.100000
v 1269.307626 443.863006 3.100000
v 1269.307626 445.313006 3.100000
v 1269.309507 445.329695 3.100000
v 1269.315054 445.345547 3.100000
v 1269.323989 445.359768 3.100000
v 1269.335865 445.371643 3.100000
v 1269.350085 445.380579 3.100000
v 1269.365937 445.386126 3.100000
v 1269.382626 445.388006 3.100000
v 1270.033170 445.388006 3.100000
v 1270.208028 445.497240 3.100000
v 1270.402738 445.565029 3.100000
v 1270.607626 445.588006 3.100000
v 1270.812515 445.565029 3.100000
v 1271.007225 445.497240 3.100000
v 1271.182083 445.388006 3.100000
v 1271.832626 445.388006 3.100000
v 1271.849316 445.386126 3.100000
v 1271.865168 445.380579 3.100000
v 1271.879388 445.371643 3.100000
v 1271.891264 445.359768 3.100000
v 1271.900199 445.345547 3.100000
v 1271.905746 445.329695 3.100000
v 1271.907626 445.313006 3.100000
v 1271.907626 443.863006 3.100000
v 1271.905746 443.846317 3.100000
v 1271.900199 443.830465 3.100000
v 1271.891264 443.816244 3.100000
v 1271.879388 443.804369 3.100000
v 1271.865168 443.795433 3.100000
v 1271.849316 443.789887 3.100000
v 1271.832626 443.788006 3.100000
v 1271.255701 443.788006 3.100000
v 1271.128903 443.748876 3.100000
v 1271.168265 443.770323 3.100000
v 1271.211098 443.783541 3.100000
v 1270.967082 443.660705 3.100000
v 1270.790993 443.606363 3.100000
v 1270.607626 443.588006 3.100000
v 1270.424260 443.606363 3.100000
v 1270.248171 443.660705 3.100000
v 1270.086349 443.748876 3.100000
v 1269.959552 443.788006 3.100000
v 1270.004155 443.783541 3.100000
v 1270.046987 443.770323 3.100000
v 1268.957626 445.788006 2.250000
v 1268.924248 445.784245 2.250000
v 1268.892544 445.773151 2.250000
v 1268.864103 445.755281 2.250000
v 1268.840352 445.731530 2.250000
v 1268.822481 445.703089 2.250000
v 1268.811387 445.671384 2.250000
v 1272.291005 443.391767 2.250000
v 1272.351150 443.420731 2.250000
v 1272.322709 443.402861 2.250000
v 1272.407626 443.538006 2.250000
v 1272.403866 443.504628 2.250000
v 1272.392772 443.472924 2.250000
v 1272.374901 443.444483 2.250000
v 1272.257626 443.388006 2.250000
v 1271.807626 444.098108 2.250000
v 1272.207626 444.282907 2.250000
v 1272.407626 444.103747 2.250000
v 1271.807626 444.305163 2.250000
v 1271.607626 444.588006 2.250000
v 1271.741709 444.338063 2.250000
v 1271.685798 444.386035 2.250000
v 1271.643264 444.446188 2.250000
v 1271.616672 444.514892 2.250000
v 1270.955758 444.009707 2.250000
v 1271.071981 444.098108 2.250000
v 1271.807626 444.870849 2.250000
v 1272.207626 444.893105 2.250000
v 1271.741709 444.837949 2.250000
v 1271.685798 444.789977 2.250000
v 1271.616672 444.661120 2.250000
v 1271.643264 444.729824 2.250000
v 1270.823243 443.948370 2.250000
v 1270.680638 443.916966 2.250000
v 1271.807626 445.077904 2.250000
v 1272.407626 445.638006 2.250000
v 1272.407626 445.072265 2.250000
v 1272.351150 445.755281 2.250000
v 1272.374901 445.731530 2.250000
v 1272.392772 445.703089 2.250000
v 1272.291005 445.784245 2.250000
v 1272.322709 445.773151 2.250000
v 1272.257626 445.788006 2.250000
v 1272.403866 445.671384 2.250000
v 1270.955758 445.166305 2.250000
v 1271.071981 445.077904 2.250000
v 1270.823243 445.227642 2.250000
v 1268.957626 443.388006 2.250000
v 1270.259495 444.009707 2.250000
v 1270.392010 443.948370 2.250000
v 1270.534615 443.916966 2.250000
v 1270.680638 445.259046 2.250000
v 1268.840352 443.444483 2.250000
v 1268.892544 443.402861 2.250000
v 1268.864103 443.420731 2.250000
v 1269.407626 444.098108 2.250000
v 1270.143272 444.098108 2.250000
v 1268.811387 443.504628 2.250000
v 1268.924248 443.391767 2.250000
v 1268.822481 443.472924 2.250000
v 1269.407626 444.305163 2.250000
v 1269.598581 444.514892 2.250000
v 1269.571989 444.446188 2.250000
v 1269.529455 444.386035 2.250000
v 1269.473544 444.338063 2.250000
v 1269.571989 444.729824 2.250000
v 1269.598581 444.661120 2.250000
v 1269.607626 444.588006 2.250000
v 1269.407626 444.870849 2.250000
v 1269.473544 444.837949 2.250000
v 1269.529455 444.789977 2.250000
v 1269.407626 445.077904 2.250000
v 1270.259495 445.166305 2.250000
v 1270.143272 445.077904 2.250000
v 1270.534615 445.259046 2.250000
v 1270.392010 445.227642 2.250000
v 1269.407626 444.305163 2.450000
v 1269.407626 444.098108 2.450000
v 1270.143272 444.098108 2.450000
v 1271.071981 444.098108 2.450000
v 1270.955758 444.009707 2.450000
v 1270.823243 443.948370 2.450000
v 1270.680638 443.916966 2.450000
v 1270.534615 443.916966 2.450000
v 1270.392010 443.948370 2.450000
v 1270.259495 444.009707 2.450000
v 1271.807626 444.098108 2.450000
v 1271.807626 444.305163 2.450000
v 1271.741709 444.338063 2.450000
v 1271.685798 444.386035 2.450000
v 1271.643264 444.446188 2.450000
v 1271.616672 444.514892 2.450000
v 1271.607626 444.588006 2.450000
v 1271.616672 444.661120 2.450000
v 1271.643264 444.729824 2.450000
v 1271.685798 444.789977 2.450000
v 1271.741709 444.837949 2.450000
v 1271.807626 444.870849 2.450000
v 1271.807626 445.077904 2.450000
v 1271.071981 445.077904 2.450000
v 1270.143272 445.077904 2.450000
v 1270.259495 445.166305 2.450000
v 1270.392010 445.227642 2.450000
v 1270.534615 445.259046 2.450000
v 1270.680638 445.259046 2.450000
v 1270.823243 445.227642 2.450000
v 1270.955758 445.166305 2.450000
v 1269.407626 445.077904 2.450000
v 1269.407626 444.870849 2.450000
v 1269.473544 444.837949 2.450000
v 1269.529455 444.789977 2.450000
v 1269.571989 444.729824 2.450000
v 1269.598581 444.661120 2.450000
v 1269.607626 444.588006 2.450000
v 1269.598581 444.514892 2.450000
v 1269.571989 444.446188 2.450000
v 1269.529455 444.386035 2.450000
v 1269.473544 444.338063 2.450000
v 1270.337796 444.197089 2.450000
v 1270.252084 444.273023 2.450000
v 1270.187035 444.367263 2.450000
v 1270.439189 444.143873 2.450000
v 1270.146429 444.474331 2.450000
v 1270.550372 444.116469 2.450000
v 1270.132626 444.588006 2.450000
v 1270.664881 444.116469 2.450000
v 1270.146429 444.701681 2.450000
v 1270.776064 444.143873 2.450000
v 1270.187035 444.808750 2.450000
v 1270.877457 444.197089 2.450000
v 1270.252084 444.902989 2.450000
v 1270.963169 444.273023 2.450000
v 1270.337796 444.978923 2.450000
v 1271.028218 444.367263 2.450000
v 1270.439189 445.032139 2.450000
v 1270.550372 445.059543 2.450000
v 1270.664881 445.059543 2.450000
v 1270.776064 445.032139 2.450000
v 1271.068824 444.474331 2.450000
v 1270.877457 444.978923 2.450000
v 1271.082626 444.588006 2.450000
v 1270.963169 444.902989 2.450000
v 1271.028218 444.808750 2.450000
v 1271.068824 444.701681 2.450000
v 1271.082626 444.588006 2.000000
v 1271.068824 444.701681 2.000000
v 1271.028218 444.808750 2.000000
v 1270.963169 444.902989 2.000000
v 1270.877457 444.978923 2.000000
v 1270.776064 445.032139 2.000000
v 1270.664881 445.059543 2.000000
v 1270.550372 445.059543 2.000000
v 1270.439189 445.032139 2.000000
v 1270.337796 444.978923 2.000000
v 1270.252084 444.902989 2.000000
v 1270.187035 444.808750 2.000000
v 1270.146429 444.701681 2.000000
v 1270.132626 444.588006 2.000000
v 1271.052461 444.697648 1.944443
v 1271.065773 444.588006 1.944443
v 1271.053337 444.588006 1.929289
v 1271.040386 444.694672 1.929289
v 1271.061433 444.699859 1.961732
v 1271.075014 444.588006 1.961732
v 1271.066958 444.701221 1.980491
v 1271.080705 444.588006 1.980491
v 1271.013295 444.800918 1.944443
v 1271.002284 444.795138 1.929289
v 1271.021478 444.805212 1.961732
v 1271.026517 444.807857 1.980491
v 1270.950554 444.891814 1.944443
v 1270.941246 444.883567 1.929289
v 1270.957471 444.897942 1.961732
v 1270.961731 444.901715 1.980491
v 1270.867884 444.965054 1.944443
v 1270.860819 444.954819 1.929289
v 1270.873133 444.972659 1.961732
v 1270.876366 444.977342 1.980491
v 1270.770088 445.016381 1.944443
v 1270.765678 445.004753 1.929289
v 1270.773365 445.025021 1.961732
v 1270.775382 445.030342 1.980491
v 1270.662850 445.042813 1.944443
v 1270.661351 445.030467 1.929289
v 1270.663964 445.051986 1.961732
v 1270.664650 445.057635 1.980491
v 1270.552403 445.042813 1.944443
v 1270.553902 445.030467 1.929289
v 1270.551289 445.051986 1.961732
v 1270.550603 445.057635 1.980491
v 1270.445165 445.016381 1.944443
v 1270.449575 445.004753 1.929289
v 1270.441888 445.025021 1.961732
v 1270.439871 445.030342 1.980491
v 1270.347369 444.965054 1.944443
v 1270.354434 444.954819 1.929289
v 1270.342120 444.972659 1.961732
v 1270.338887 444.977342 1.980491
v 1270.264699 444.891814 1.944443
v 1270.274007 444.883567 1.929289
v 1270.257782 444.897942 1.961732
v 1270.253522 444.901715 1.980491
v 1270.201957 444.800918 1.944443
v 1270.212969 444.795138 1.929289
v 1270.193775 444.805212 1.961732
v 1270.188736 444.807857 1.980491
v 1270.162792 444.697648 1.944443
v 1270.174867 444.694672 1.929289
v 1270.161916 444.588006 1.929289
v 1270.149479 444.588006 1.944443
v 1270.153820 444.699859 1.961732
v 1270.140239 444.588006 1.961732
v 1270.134548 444.588006 1.980491
v 1270.148295 444.701221 1.980491
v 1270.162792 444.478364 1.944443
v 1270.174867 444.481341 1.929289
v 1270.153820 444.476153 1.961732
v 1270.148295 444.474791 1.980491
v 1270.146429 444.474331 2.000000
v 1270.201957 444.375095 1.944443
v 1270.212969 444.380874 1.929289
v 1270.193775 444.370800 1.961732
v 1270.188736 444.368156 1.980491
v 1270.187035 444.367263 2.000000
v 1270.264699 444.284198 1.944443
v 1270.274007 444.292445 1.929289
v 1270.257782 444.278071 1.961732
v 1270.253522 444.274297 1.980491
v 1270.252084 444.273023 2.000000
v 1270.347369 444.210959 1.944443
v 1270.354434 444.221193 1.929289
v 1270.342120 444.203353 1.961732
v 1270.338887 444.198670 1.980491
v 1270.337796 444.197089 2.000000
v 1270.445165 444.159631 1.944443
v 1270.449575 444.171259 1.929289
v 1270.441888 444.150991 1.961732
v 1270.439871 444.145670 1.980491
v 1270.439189 444.143873 2.000000
v 1270.552403 444.133200 1.944443
v 1270.553902 444.145545 1.929289
v 1270.551289 444.124026 1.961732
v 1270.550603 444.118377 1.980491
v 1270.550372 444.116469 2.000000
v 1270.662850 444.133200 1.944443
v 1270.661351 444.145545 1.929289
v 1270.663964 444.124026 1.961732
v 1270.664650 444.118377 1.980491
v 1270.664881 444.116469 2.000000
v 1270.770088 444.159631 1.944443
v 1270.765678 444.171259 1.929289
v 1270.773365 444.150991 1.961732
v 1270.775382 444.145670 1.980491
v 1270.776064 444.143873 2.000000
v 1270.867884 444.210959 1.944443
v 1270.860819 444.221193 1.929289
v 1270.873133 444.203353 1.961732
v 1270.876366 444.198670 1.980491
v 1270.877457 444.197089 2.000000
v 1270.950554 444.284198 1.944443
v 1270.941246 444.292445 1.929289
v 1270.957471 444.278071 1.961732
v 1270.961731 444.274297 1.980491
v 1270.963169 444.273023 2.000000
v 1271.013295 444.375095 1.944443
v 1271.002284 444.380874 1.929289
v 1271.021478 444.370800 1.961732
v 1271.026517 444.368156 1.980491
v 1271.028218 444.367263 2.000000
v 1271.052461 444.478364 1.944443
v 1271.040386 444.481341 1.929289
v 1271.061433 444.476153 1.961732
v 1271.066958 444.474791 1.980491
v 1271.068824 444.474331 2.000000
v 1271.038183 444.588006 1.916853
v 1270.224581 444.493594 1.901921
v 1270.213117 444.588006 1.901921
v 1270.232626 444.588006 1.900000
v 1270.243523 444.498263 1.900000
v 1270.206367 444.489105 1.907612
v 1270.194358 444.588006 1.907612
v 1270.189581 444.484967 1.916853
v 1270.177069 444.588006 1.916853
v 1270.258306 444.404669 1.901921
v 1270.275580 444.413735 1.900000
v 1270.241696 444.395951 1.907612
v 1270.226387 444.387916 1.916853
v 1270.312332 444.326398 1.901921
v 1270.326935 444.339335 1.900000
v 1270.298291 444.313959 1.907612
v 1270.285350 444.302494 1.916853
v 1270.383520 444.263332 1.901921
v 1270.394602 444.279387 1.900000
v 1270.372863 444.247893 1.907612
v 1270.363042 444.233665 1.916853
v 1270.467732 444.219134 1.901921
v 1270.474650 444.237375 1.900000
v 1270.461079 444.201593 1.907612
v 1270.454949 444.185428 1.916853
v 1270.560074 444.196373 1.901921
v 1270.562425 444.215740 1.900000
v 1270.557812 444.177751 1.907612
v 1270.555729 444.160588 1.916853
v 1270.655179 444.196373 1.901921
v 1270.652828 444.215740 1.900000
v 1270.657440 444.177751 1.907612
v 1270.659524 444.160588 1.916853
v 1270.747521 444.219134 1.901921
v 1270.740603 444.237375 1.900000
v 1270.754173 444.201593 1.907612
v 1270.760304 444.185428 1.916853
v 1270.831733 444.263332 1.901921
v 1270.820651 444.279387 1.900000
v 1270.842390 444.247893 1.907612
v 1270.852211 444.233665 1.916853
v 1270.902921 444.326398 1.901921
v 1270.888318 444.339335 1.900000
v 1270.916962 444.313959 1.907612
v 1270.929903 444.302494 1.916853
v 1270.956947 444.404669 1.901921
v 1270.939672 444.413735 1.900000
v 1270.971730 444.498263 1.900000
v 1270.973557 444.395951 1.907612
v 1270.988866 444.387916 1.916853
v 1270.990672 444.493594 1.901921
v 1270.982626 444.588006 1.900000
v 1271.002135 444.588006 1.901921
v 1271.008886 444.489105 1.907612
v 1271.020895 444.588006 1.907612
v 1271.025672 444.484967 1.916853
v 1270.275580 444.762277 1.900000
v 1270.243523 444.677749 1.900000
v 1270.326935 444.836677 1.900000
v 1270.394602 444.896625 1.900000
v 1270.474650 444.938637 1.900000
v 1270.562425 444.960272 1.900000
v 1270.652828 444.960272 1.900000
v 1270.740603 444.938637 1.900000
v 1270.939672 444.762277 1.900000
v 1270.971730 444.677749 1.900000
v 1270.820651 444.896625 1.900000
v 1270.888318 444.836677 1.900000
v 1270.990672 444.682418 1.901921
v 1271.008886 444.686908 1.907612
v 1271.025672 444.691045 1.916853
v 1270.956947 444.771344 1.901921
v 1270.973557 444.780061 1.907612
v 1270.988866 444.788096 1.916853
v 1270.902921 444.849614 1.901921
v 1270.916962 444.862054 1.907612
v 1270.929903 444.873518 1.916853
v 1270.831733 444.912681 1.901921
v 1270.842390 444.928119 1.907612
v 1270.852211 444.942348 1.916853
v 1270.747521 444.956878 1.901921
v 1270.754173 444.974419 1.907612
v 1270.760304 444.990584 1.916853
v 1270.655179 444.979639 1.901921
v 1270.657440 444.998261 1.907612
v 1270.659524 445.015424 1.916853
v 1270.560074 444.979639 1.901921
v 1270.557812 444.998261 1.907612
v 1270.555729 445.015424 1.916853
v 1270.467732 444.956878 1.901921
v 1270.461079 444.974419 1.907612
v 1270.454949 444.990584 1.916853
v 1270.383520 444.912681 1.901921
v 1270.372863 444.928119 1.907612
v 1270.363042 444.942348 1.916853
v 1270.312332 444.849614 1.901921
v 1270.298291 444.862054 1.907612
v 1270.285350 444.873518 1.916853
v 1270.258306 444.771344 1.901921
v 1270.241696 444.780061 1.907612
v 1270.226387 444.788096 1.916853
v 1270.224581 444.682418 1.901921
v 1270.206367 444.686908 1.907612
v 1270.189581 444.691045 1.916853
f 1 2 3
f 3 2 4
f 5 6 7
f 8 6 5
f 9 10 11
f 6 10 9
f 12 10 8
f 8 10 6
f 11 13 14
f 10 13 11
f 14 15 11
f 10 16 13
f 15 17 11
f 10 18 16
f 10 19 18
f 20 19 10
f 17 21 11
f 20 22 19
f 21 23 11
f 24 25 23
f 25 26 23
f 23 27 11
f 26 27 23
f 27 28 11
f 28 29 11
f 30 31 32
f 33 34 35
f 35 34 36
f 33 37 34
f 33 38 37
f 39 40 31
f 31 40 32
f 33 41 38
f 40 42 32
f 32 43 33
f 33 43 41
f 44 43 45
f 41 43 44
f 42 43 32
f 43 46 45
f 43 47 46
f 48 49 50
f 51 49 48
f 50 49 52
f 29 53 11
f 54 53 55
f 55 53 49
f 56 53 29
f 52 53 56
f 49 53 52
f 54 57 53
f 57 58 53
f 47 59 60
f 43 59 47
f 58 61 53
f 62 63 64
f 53 63 62
f 53 65 63
f 53 66 65
f 61 3 53
f 53 3 66
f 66 3 67
f 68 3 61
f 69 3 68
f 70 3 69
f 43 71 59
f 72 73 74
f 70 75 3
f 76 1 75
f 77 1 76
f 78 1 77
f 75 1 3
f 78 79 1
f 72 79 73
f 80 79 72
f 81 79 78
f 82 79 81
f 83 79 82
f 73 79 83
f 1 84 85
f 86 87 79
f 79 87 1
f 1 87 84
f 87 88 84
f 88 89 84
f 43 79 90
f 43 90 71
f 90 79 80
f 34 19 22
f 34 22 36
f 54 55 91
f 54 91 92
f 57 92 93
f 57 54 92
f 58 93 94
f 58 57 93
f 61 94 95
f 61 58 94
f 68 95 96
f 68 61 95
f 69 96 97
f 69 68 96
f 70 97 98
f 70 69 97
f 99 70 98
f 99 75 70
f 76 75 99
f 76 99 100
f 77 100 101
f 77 76 100
f 78 101 102
f 78 77 101
f 81 102 103
f 81 78 102
f 82 103 104
f 82 81 103
f 83 104 105
f 83 82 104
f 73 105 106
f 73 83 105
f 106 107 74
f 106 74 73
f 74 107 108
f 72 108 109
f 72 74 108
f 80 72 109
f 90 109 110
f 90 80 109
f 71 110 111
f 71 90 110
f 59 111 112
f 59 71 111
f 60 112 113
f 60 59 112
f 113 114 47
f 113 47 60
f 46 47 114
f 46 114 115
f 45 115 116
f 45 46 115
f 44 116 117
f 44 45 116
f 41 117 118
f 41 44 117
f 38 118 119
f 38 41 118
f 37 119 120
f 37 38 119
f 34 120 121
f 34 37 120
f 34 121 122
f 34 122 19
f 18 19 122
f 18 123 124
f 18 122 123
f 16 124 125
f 16 18 124
f 13 125 126
f 13 16 125
f 14 126 127
f 14 13 126
f 15 127 128
f 15 14 127
f 17 128 129
f 17 15 128
f 21 17 129
f 130 23 21
f 129 130 21
f 26 25 131
f 131 25 132
f 132 24 133
f 133 24 130
f 25 24 132
f 24 23 130
f 27 26 131
f 27 131 134
f 28 134 135
f 28 27 134
f 29 136 137
f 29 135 136
f 29 28 135
f 56 137 138
f 56 29 137
f 52 138 139
f 52 56 138
f 50 52 139
f 140 49 141
f 141 51 142
f 49 51 141
f 142 48 139
f 51 48 142
f 48 50 139
f 55 140 91
f 49 140 55
f 127 129 128
f 126 129 127
f 125 129 126
f 124 129 125
f 123 129 124
f 122 129 123
f 122 130 129
f 122 121 130
f 136 138 137
f 135 138 136
f 134 138 135
f 131 138 134
f 120 119 121
f 117 116 118
f 116 115 118
f 118 114 119
f 115 114 118
f 119 114 121
f 131 139 138
f 114 113 121
f 131 113 139
f 132 113 131
f 133 113 132
f 130 113 133
f 121 113 130
f 92 94 93
f 91 94 92
f 94 96 95
f 91 98 94
f 94 98 96
f 140 98 91
f 96 98 97
f 112 111 113
f 111 110 113
f 110 109 113
f 109 108 113
f 113 107 139
f 108 107 113
f 141 107 140
f 142 107 141
f 139 107 142
f 106 99 107
f 140 99 98
f 107 99 140
f 106 100 99
f 106 101 100
f 105 104 106
f 104 103 106
f 106 102 101
f 103 102 106
f 86 79 143
f 86 143 144
f 87 144 145
f 87 86 144
f 88 145 146
f 88 87 145
f 89 146 147
f 89 88 146
f 84 147 148
f 84 89 147
f 85 148 149
f 85 84 148
f 1 149 2
f 1 85 149
f 150 151 152
f 153 154 155
f 153 155 156
f 153 156 151
f 153 150 157
f 153 151 150
f 158 159 160
f 158 160 153
f 158 153 157
f 161 159 158
f 162 161 163
f 162 163 164
f 162 164 165
f 162 165 166
f 167 158 157
f 167 168 158
f 169 159 161
f 169 170 159
f 171 169 161
f 171 161 162
f 172 171 162
f 172 162 173
f 172 173 174
f 175 167 157
f 176 175 157
f 177 178 179
f 177 179 170
f 177 170 169
f 180 181 182
f 183 184 180
f 185 182 186
f 185 186 178
f 185 178 177
f 185 180 182
f 185 183 180
f 187 185 177
f 187 177 188
f 189 185 187
f 190 176 157
f 190 191 192
f 190 192 193
f 190 193 176
f 194 185 189
f 195 196 197
f 198 199 191
f 198 191 190
f 200 190 201
f 200 201 196
f 200 195 202
f 200 196 195
f 4 190 200
f 4 198 190
f 203 198 4
f 204 205 206
f 204 206 207
f 208 209 210
f 208 210 204
f 208 204 207
f 211 203 4
f 211 208 207
f 211 212 213
f 211 213 208
f 211 207 203
f 214 215 216
f 143 215 214
f 143 217 218
f 143 218 215
f 2 211 4
f 2 214 211
f 2 143 214
f 145 144 143
f 147 2 149
f 147 149 148
f 147 143 2
f 146 143 147
f 146 145 143
f 143 185 194
f 143 194 217
f 203 219 198
f 198 219 220
f 221 199 220
f 220 199 198
f 222 168 223
f 223 167 224
f 168 167 223
f 224 175 225
f 167 175 224
f 175 176 225
f 225 193 226
f 176 193 225
f 226 192 227
f 193 192 226
f 227 191 228
f 192 191 227
f 228 199 221
f 191 199 228
f 229 158 222
f 222 158 168
f 230 161 229
f 229 161 158
f 161 230 231
f 163 231 232
f 163 161 231
f 164 232 233
f 164 163 232
f 165 233 234
f 165 164 233
f 166 234 235
f 166 165 234
f 162 235 236
f 162 166 235
f 173 236 237
f 173 162 236
f 174 237 238
f 174 173 237
f 172 238 239
f 172 174 238
f 171 239 240
f 171 172 239
f 169 171 240
f 241 177 240
f 240 177 169
f 177 241 188
f 188 241 242
f 216 215 243
f 243 215 244
f 244 218 245
f 215 218 244
f 245 217 246
f 246 217 247
f 218 217 245
f 247 194 248
f 217 194 247
f 248 189 249
f 194 189 248
f 249 187 242
f 189 187 249
f 187 188 242
f 216 243 214
f 214 243 250
f 214 250 211
f 211 250 251
f 211 251 252
f 212 252 253
f 212 211 252
f 213 253 254
f 213 212 253
f 208 254 255
f 208 213 254
f 209 255 256
f 209 208 255
f 210 256 257
f 210 209 256
f 204 257 258
f 204 210 257
f 205 258 259
f 205 204 258
f 206 259 260
f 206 205 259
f 207 260 219
f 207 206 260
f 203 207 219
f 219 260 220
f 260 259 220
f 258 221 259
f 259 221 220
f 252 250 253
f 251 250 252
f 221 261 228
f 262 261 221
f 258 263 221
f 221 263 262
f 228 264 227
f 261 264 228
f 258 265 263
f 257 265 258
f 264 266 227
f 226 266 225
f 227 266 226
f 256 267 257
f 255 267 256
f 257 267 265
f 225 268 224
f 266 268 225
f 254 269 255
f 255 269 267
f 268 270 224
f 270 223 224
f 254 271 269
f 270 272 223
f 272 222 223
f 254 243 271
f 253 243 254
f 271 243 273
f 250 243 253
f 272 274 222
f 243 275 273
f 274 276 222
f 243 244 275
f 244 277 275
f 277 245 278
f 244 245 277
f 245 246 278
f 278 247 279
f 246 247 278
f 279 248 280
f 247 248 279
f 222 232 229
f 232 231 229
f 276 233 222
f 222 233 232
f 281 233 276
f 231 230 229
f 280 249 282
f 248 249 280
f 283 234 281
f 281 234 233
f 284 242 285
f 282 242 284
f 249 242 282
f 283 235 234
f 286 236 283
f 283 236 235
f 285 237 286
f 286 237 236
f 242 237 285
f 242 238 237
f 242 241 238
f 239 241 240
f 238 241 239
f 286 283 287
f 286 287 288
f 285 288 289
f 285 286 288
f 284 289 290
f 284 285 289
f 282 290 291
f 282 284 290
f 280 291 292
f 280 282 291
f 279 292 293
f 279 280 292
f 278 293 294
f 278 279 293
f 277 294 295
f 277 278 294
f 275 295 296
f 275 277 295
f 273 296 297
f 273 275 296
f 271 297 298
f 271 273 297
f 269 298 299
f 269 271 298
f 267 299 300
f 267 269 299
f 301 302 303
f 301 303 304
f 305 306 302
f 305 302 301
f 307 308 306
f 307 287 308
f 307 288 287
f 307 306 305
f 309 304 310
f 309 301 304
f 311 301 309
f 311 305 301
f 312 288 307
f 312 305 311
f 312 289 288
f 312 307 305
f 313 310 314
f 313 309 310
f 315 311 309
f 315 309 313
f 316 290 289
f 316 312 311
f 316 311 315
f 316 289 312
f 317 314 318
f 317 313 314
f 319 315 313
f 319 313 317
f 320 291 290
f 320 316 315
f 320 290 316
f 320 315 319
f 321 318 322
f 321 317 318
f 323 319 317
f 323 317 321
f 324 292 291
f 324 319 323
f 324 291 320
f 324 320 319
f 325 322 326
f 325 321 322
f 327 321 325
f 327 323 321
f 328 324 323
f 328 293 292
f 328 292 324
f 328 323 327
f 329 326 330
f 329 325 326
f 331 327 325
f 331 325 329
f 332 328 327
f 332 293 328
f 332 327 331
f 332 294 293
f 333 330 334
f 333 329 330
f 335 331 329
f 335 329 333
f 336 332 331
f 336 294 332
f 336 295 294
f 336 331 335
f 337 334 338
f 337 333 334
f 339 335 333
f 339 333 337
f 340 296 295
f 340 335 339
f 340 295 336
f 340 336 335
f 341 338 342
f 341 339 337
f 341 337 338
f 343 339 341
f 344 297 296
f 344 296 340
f 344 340 339
f 344 339 343
f 345 342 346
f 345 341 342
f 347 343 341
f 347 341 345
f 348 298 297
f 348 343 347
f 348 344 343
f 348 297 344
f 349 346 350
f 349 350 351
f 349 351 352
f 349 345 346
f 353 349 352
f 353 352 354
f 353 354 355
f 353 347 345
f 353 348 347
f 353 345 349
f 356 353 355
f 356 355 300
f 356 300 299
f 356 299 298
f 356 298 348
f 356 348 353
f 357 352 351
f 357 351 358
f 359 354 352
f 359 352 357
f 360 355 354
f 360 300 355
f 360 361 300
f 360 354 359
f 362 358 363
f 362 357 358
f 364 357 362
f 364 359 357
f 365 361 360
f 365 359 364
f 365 366 361
f 365 360 359
f 367 363 368
f 367 362 363
f 369 364 362
f 369 362 367
f 370 371 366
f 370 365 364
f 370 364 369
f 370 366 365
f 372 368 373
f 372 367 368
f 374 369 367
f 374 367 372
f 375 376 371
f 375 370 369
f 375 371 370
f 375 369 374
f 377 373 378
f 377 372 373
f 379 374 372
f 379 372 377
f 380 381 376
f 380 374 379
f 380 376 375
f 380 375 374
f 382 378 383
f 382 377 378
f 384 377 382
f 384 379 377
f 385 380 379
f 385 386 381
f 385 381 380
f 385 379 384
f 387 383 388
f 387 382 383
f 389 384 382
f 389 382 387
f 390 385 384
f 390 386 385
f 390 384 389
f 390 391 386
f 392 388 393
f 392 387 388
f 394 389 387
f 394 387 392
f 395 390 389
f 395 391 390
f 395 396 391
f 395 389 394
f 397 393 398
f 397 392 393
f 399 394 392
f 399 392 397
f 400 401 396
f 400 394 399
f 400 396 395
f 400 395 394
f 402 398 403
f 402 399 397
f 402 397 398
f 404 399 402
f 405 406 401
f 405 401 400
f 405 400 399
f 405 399 404
f 407 403 408
f 407 402 403
f 409 404 402
f 409 402 407
f 410 411 406
f 410 404 409
f 410 405 404
f 410 406 405
f 412 408 413
f 412 413 303
f 412 303 302
f 412 407 408
f 414 412 302
f 414 302 306
f 414 306 308
f 414 409 407
f 414 410 409
f 414 407 412
f 415 414 308
f 415 308 287
f 415 287 416
f 415 416 411
f 415 411 410
f 415 410 414
f 265 267 300
f 265 300 361
f 263 361 366
f 263 265 361
f 262 366 371
f 262 263 366
f 261 371 376
f 261 262 371
f 264 376 381
f 264 261 376
f 266 381 386
f 266 264 381
f 268 386 391
f 268 266 386
f 270 391 396
f 270 268 391
f 272 396 401
f 272 270 396
f 274 401 406
f 274 272 401
f 276 411 416
f 276 406 411
f 276 274 406
f 281 276 416
f 283 416 287
f 283 281 416
f 303 413 417
f 418 419 420
f 418 420 421
f 422 419 418
f 422 423 419
f 424 358 351
f 424 425 423
f 424 351 425
f 424 423 422
f 426 421 427
f 426 418 421
f 428 418 426
f 428 422 418
f 429 363 358
f 429 422 428
f 429 358 424
f 429 424 422
f 430 427 431
f 430 426 427
f 432 428 426
f 432 426 430
f 433 368 363
f 433 363 429
f 433 429 428
f 433 428 432
f 434 431 435
f 434 430 431
f 436 432 430
f 436 430 434
f 437 373 368
f 437 433 432
f 437 432 436
f 437 368 433
f 438 435 439
f 438 434 435
f 440 436 434
f 440 434 438
f 441 378 373
f 441 437 436
f 441 373 437
f 441 436 440
f 442 439 443
f 442 438 439
f 444 438 442
f 444 440 438
f 445 441 440
f 445 383 378
f 445 378 441
f 445 440 444
f 446 442 443
f 446 443 447
f 448 442 446
f 448 444 442
f 449 388 383
f 449 445 444
f 449 444 448
f 449 383 445
f 450 446 447
f 450 447 451
f 452 448 446
f 452 446 450
f 453 393 388
f 453 388 449
f 453 449 448
f 453 448 452
f 454 451 455
f 454 450 451
f 456 452 450
f 456 450 454
f 457 398 393
f 457 452 456
f 457 393 453
f 457 453 452
f 458 455 459
f 458 454 455
f 460 456 454
f 460 454 458
f 461 403 398
f 461 456 460
f 461 398 457
f 461 457 456
f 462 463 464
f 462 459 463
f 462 460 458
f 462 458 459
f 465 460 462
f 466 408 403
f 466 403 461
f 466 461 460
f 466 460 465
f 467 468 469
f 467 464 468
f 467 462 464
f 470 469 471
f 470 465 462
f 470 467 469
f 470 462 467
f 472 471 417
f 472 413 408
f 472 466 465
f 472 465 470
f 472 408 466
f 472 470 471
f 472 417 413
f 421 473 427
f 420 473 421
f 474 473 420
f 427 475 431
f 473 475 427
f 431 476 435
f 475 476 431
f 435 477 439
f 476 477 435
f 439 478 443
f 477 478 439
f 443 479 447
f 478 479 443
f 447 480 451
f 479 480 447
f 464 481 468
f 468 481 482
f 480 483 451
f 463 484 464
f 459 484 463
f 455 484 459
f 451 484 455
f 483 484 451
f 464 484 481
f 419 474 420
f 485 469 468
f 485 468 482
f 486 469 485
f 486 471 469
f 487 304 303
f 487 417 471
f 487 303 417
f 487 471 486
f 488 482 481
f 488 485 482
f 489 485 488
f 489 486 485
f 490 310 304
f 490 486 489
f 490 304 487
f 490 487 486
f 491 481 484
f 491 488 481
f 492 489 488
f 492 488 491
f 493 314 310
f 493 310 490
f 493 490 489
f 493 489 492
f 494 484 483
f 494 491 484
f 495 492 491
f 495 491 494
f 496 318 314
f 496 493 492
f 496 492 495
f 496 314 493
f 497 483 480
f 497 494 483
f 498 495 494
f 498 494 497
f 499 322 318
f 499 496 495
f 499 318 496
f 499 495 498
f 500 480 479
f 500 497 480
f 501 497 500
f 501 498 497
f 502 499 498
f 502 326 322
f 502 322 499
f 502 498 501
f 503 500 479
f 503 479 478
f 504 500 503
f 504 501 500
f 505 330 326
f 505 502 501
f 505 501 504
f 505 326 502
f 506 503 478
f 506 478 477
f 507 504 503
f 507 503 506
f 508 334 330
f 508 330 505
f 508 505 504
f 508 504 507
f 509 477 476
f 509 506 477
f 510 507 506
f 510 506 509
f 511 338 334
f 511 507 510
f 511 334 508
f 511 508 507
f 512 476 475
f 512 509 476
f 513 510 509
f 513 509 512
f 514 342 338
f 514 510 513
f 514 338 511
f 514 511 510
f 515 473 474
f 515 475 473
f 515 513 512
f 515 512 475
f 516 513 515
f 517 346 342
f 517 342 514
f 517 514 513
f 517 513 516
f 518 515 474
f 518 474 419
f 519 419 423
f 519 516 515
f 519 515 518
f 519 518 419
f 520 519 423
f 520 423 425
f 520 425 351
f 520 350 346
f 520 351 350
f 520 517 516
f 520 516 519
f 520 346 517
f 3 4 200
f 67 200 202
f 67 3 200
f 66 202 195
f 66 67 202
f 65 195 197
f 65 66 195
f 63 197 196
f 63 65 197
f 64 196 201
f 64 63 196
f 62 201 190
f 62 64 201
f 53 62 190
f 11 53 157
f 157 53 190
f 11 157 150
f 9 150 152
f 9 11 150
f 6 152 151
f 6 9 152
f 7 151 156
f 7 6 151
f 5 156 155
f 5 7 156
f 8 155 154
f 8 5 155
f 12 154 153
f 12 8 154
f 10 12 153
f 160 20 153
f 153 20 10
f 22 20 159
f 159 20 160
f 170 36 159
f 159 36 22
f 35 36 179
f 179 36 170
f 179 178 35
f 178 33 35
f 33 178 186
f 32 186 182
f 32 33 186
f 30 182 181
f 30 32 182
f 31 181 180
f 31 30 181
f 39 180 184
f 39 31 180
f 40 184 183
f 40 39 184
f 42 183 185
f 42 40 183
f 43 42 185
f 43 185 79
f 79 185 143
