# smartdrone2 body-local mesh, millimetres
v 69.870822 22.367972 0.635000
v 69.171950 22.367972 0.635000
v 65.762759 16.418513 0.635000
v 70.101973 22.367972 0.635000
v 69.870822 22.469101 0.635000
v 70.216646 22.367972 0.635000
v 69.778722 22.972035 0.635000
v 69.292944 22.972035 0.635000
v 69.292944 22.469101 0.635000
v 69.171950 23.640207 0.635000
v 69.778722 23.072261 0.635000
v 69.292944 23.539078 0.635000
v 69.292944 23.072261 0.635000
v 70.682560 22.367972 0.635000
v 70.794524 22.367972 0.635000
v 69.833801 23.539078 0.635000
v 70.782034 22.614415 0.635000
v 70.653666 22.729146 0.635000
v 70.738542 22.500704 0.635000
v 70.827029 22.727340 0.635000
v 71.252311 22.367972 0.635000
v 70.214840 23.410862 0.635000
v 70.216646 23.307927 0.635000
v 70.288880 23.316956 0.635000
v 70.212131 23.514699 0.635000
v 71.367887 22.367972 0.635000
v 70.101973 23.640207 0.635000
v 69.833801 23.640207 0.635000
v 71.701973 22.367972 0.635000
v 77.403960 16.418513 0.635000
v 71.816646 22.367972 0.635000
v 72.282560 22.367972 0.635000
v 71.227932 23.436144 0.635000
v 71.168339 23.287160 0.635000
v 71.252311 23.348559 0.635000
v 72.394524 22.367972 0.635000
v 71.257729 23.514699 0.635000
v 72.382034 22.614415 0.635000
v 72.253666 22.729146 0.635000
v 72.338542 22.500704 0.635000
v 72.427029 22.727340 0.635000
v 72.852312 22.367972 0.635000
v 71.814840 23.410862 0.635000
v 71.816646 23.307927 0.635000
v 71.888880 23.316956 0.635000
v 71.812131 23.514699 0.635000
v 72.967887 22.367972 0.635000
v 65.762759 29.618537 0.635000
v 70.272628 23.640207 0.635000
v 71.199038 23.640207 0.635000
v 71.367887 23.640207 0.635000
v 71.701973 23.640207 0.635000
v 73.467438 22.444200 0.635000
v 73.384360 22.526161 0.635000
v 73.341675 22.588461 0.635000
v 73.555689 22.392022 0.635000
v 73.306820 22.658134 0.635000
v 73.645950 22.362734 0.635000
v 73.706364 22.353125 0.635000
v 73.260479 22.819479 0.635000
v 73.770596 22.349914 0.635000
v 73.678442 22.462806 0.635000
v 73.540266 22.531709 0.635000
v 73.601256 22.491153 0.635000
v 73.506777 22.563638 0.635000
v 73.476239 22.600929 0.635000
v 73.776013 22.451945 0.635000
v 72.827932 23.436144 0.635000
v 72.768338 23.287160 0.635000
v 72.852312 23.348559 0.635000
v 73.920878 22.367348 0.635000
v 72.857729 23.514699 0.635000
v 74.024602 22.407032 0.635000
v 73.997232 22.516956 0.635000
v 73.860254 22.459169 0.635000
v 73.934060 22.480839 0.635000
v 74.106315 22.464174 0.635000
v 74.049971 22.565447 0.635000
v 74.174283 22.540931 0.635000
v 74.092877 22.624372 0.635000
v 74.205112 22.590226 0.635000
v 74.126352 22.693932 0.635000
v 73.385809 22.819692 0.635000
v 73.421175 22.700315 0.635000
v 73.373030 22.910383 0.635000
v 73.368790 23.009959 0.635000
v 73.387487 23.487834 0.635000
v 72.967887 23.640207 0.635000
v 73.320751 23.385509 0.635000
v 74.231995 22.645173 0.635000
v 73.453908 23.553319 0.635000
v 73.530540 23.603218 0.635000
v 73.682077 23.545506 0.635000
v 73.534283 23.472733 0.635000
v 73.476455 23.410700 0.635000
v 73.602804 23.517689 0.635000
v 73.730971 23.553550 0.635000
v 73.443324 23.359000 0.635000
v 73.641261 23.643621 0.635000
v 73.783237 23.659169 0.635000
v 74.116420 23.339530 0.635000
v 73.858775 23.550537 0.635000
v 73.783237 23.556234 0.635000
v 73.380603 23.167665 0.635000
v 73.416342 23.301258 0.635000
v 74.081499 23.409077 0.635000
v 73.926443 23.533530 0.635000
v 73.986196 23.505340 0.635000
v 74.038106 23.464305 0.635000
v 74.228383 23.386482 0.635000
v 77.403960 29.618537 0.635000
v 71.872627 23.640207 0.635000
v 72.799038 23.640207 0.635000
v 73.975529 23.630275 0.635000
v 74.055020 23.594157 0.635000
v 73.885001 23.651945 0.635000
v 74.181431 23.472830 0.635000
v 74.123643 23.542122 0.635000
v 73.245088 23.009959 0.635000
v 73.252558 23.143722 0.635000
v 73.275043 23.263326 0.635000
v 65.762759 29.618537 0.000000
v 65.762759 16.418513 0.000000
v 77.403960 16.418513 0.000000
v 77.403960 29.618537 0.000000
v 69.171950 22.367972 0.615000
v 69.870822 22.367972 0.615000
v 69.171950 23.640207 0.615000
v 69.833801 23.640207 0.615000
v 69.833801 23.539078 0.615000
v 69.292944 23.539078 0.615000
v 69.292944 23.072261 0.615000
v 69.778722 23.072261 0.615000
v 69.778722 22.972035 0.615000
v 69.292944 22.972035 0.615000
v 69.292944 22.469101 0.615000
v 69.870822 22.469101 0.615000
v 70.738542 22.500704 0.615000
v 70.682560 22.367972 0.615000
v 70.794524 22.367972 0.615000
v 70.653666 22.729146 0.615000
v 70.782034 22.614415 0.615000
v 70.216646 23.307927 0.615000
v 70.101973 22.367972 0.615000
v 70.216646 22.367972 0.615000
v 70.101973 23.640207 0.615000
v 70.214840 23.410862 0.615000
v 70.212131 23.514699 0.615000
v 70.272628 23.640207 0.615000
v 70.288880 23.316956 0.615000
v 71.199038 23.640207 0.615000
v 71.168339 23.287160 0.615000
v 71.227932 23.436144 0.615000
v 71.257729 23.514699 0.615000
v 71.367887 23.640207 0.615000
v 71.252311 23.348559 0.615000
v 71.367887 22.367972 0.615000
v 70.827029 22.727340 0.615000
v 71.252311 22.367972 0.615000
v 72.338542 22.500704 0.615000
v 72.282560 22.367972 0.615000
v 72.394524 22.367972 0.615000
v 72.253666 22.729146 0.615000
v 72.382034 22.614415 0.615000
v 71.816646 23.307927 0.615000
v 71.701973 22.367972 0.615000
v 71.816646 22.367972 0.615000
v 71.701973 23.640207 0.615000
v 71.814840 23.410862 0.615000
v 71.812131 23.514699 0.615000
v 71.872627 23.640207 0.615000
v 71.888880 23.316956 0.615000
v 72.799038 23.640207 0.615000
v 72.768338 23.287160 0.615000
v 72.827932 23.436144 0.615000
v 72.857729 23.514699 0.615000
v 72.967887 23.640207 0.615000
v 72.852312 23.348559 0.615000
v 72.967887 22.367972 0.615000
v 72.427029 22.727340 0.615000
v 72.852312 22.367972 0.615000
v 73.507120 22.563351 0.615000
v 73.384360 22.526161 0.615000
v 73.467438 22.444200 0.615000
v 73.540690 22.531430 0.615000
v 73.476239 22.600929 0.615000
v 73.341675 22.588461 0.615000
v 73.600352 22.491452 0.615000
v 73.555689 22.392022 0.615000
v 73.645950 22.362734 0.615000
v 73.418935 22.705825 0.615000
v 73.260479 22.819479 0.615000
v 73.306820 22.658134 0.615000
v 73.676338 22.463375 0.615000
v 73.706364 22.353125 0.615000
v 73.381931 22.840809 0.615000
v 73.776013 22.451945 0.615000
v 73.770596 22.349914 0.615000
v 73.245088 23.009959 0.615000
v 73.863840 22.459841 0.615000
v 73.920878 22.367348 0.615000
v 73.368790 23.009959 0.615000
v 73.252558 23.143722 0.615000
v 73.937041 22.482114 0.615000
v 74.024602 22.407032 0.615000
v 73.997232 22.516956 0.615000
v 73.381949 23.175675 0.615000
v 73.275043 23.263326 0.615000
v 74.106315 22.464174 0.615000
v 74.048679 22.564004 0.615000
v 74.174283 22.540931 0.615000
v 74.091564 22.622177 0.615000
v 73.419020 23.307929 0.615000
v 73.320751 23.385509 0.615000
v 74.205112 22.590226 0.615000
v 73.445440 23.362789 0.615000
v 74.126352 22.693932 0.615000
v 73.387487 23.487834 0.615000
v 74.231995 22.645173 0.615000
v 73.476455 23.410700 0.615000
v 73.453908 23.553319 0.615000
v 73.533923 23.472340 0.615000
v 73.530540 23.603218 0.615000
v 73.600517 23.516719 0.615000
v 73.641261 23.643621 0.615000
v 73.678681 23.544657 0.615000
v 73.728744 23.553245 0.615000
v 73.783237 23.659169 0.615000
v 73.783237 23.556234 0.615000
v 73.861652 23.550070 0.615000
v 73.885001 23.651945 0.615000
v 73.928959 23.532626 0.615000
v 73.975529 23.630275 0.615000
v 73.986196 23.505340 0.615000
v 74.055020 23.594157 0.615000
v 74.036132 23.466279 0.615000
v 74.181431 23.472830 0.615000
v 74.079776 23.411794 0.615000
v 74.116420 23.339530 0.615000
v 74.228383 23.386482 0.615000
v 74.123643 23.542122 0.615000
v 71.254719 23.439521 0.621667
v 71.252913 23.384008 0.621667
v 71.236059 23.456911 0.621667
v 71.245991 23.483096 0.621667
v 71.196631 23.357889 0.628333
v 71.196631 23.357889 0.621667
v 71.216495 23.407551 0.621667
v 71.216495 23.407551 0.628333
v 70.237894 23.443473 0.621667
v 70.263859 23.377664 0.621667
v 70.213937 23.445407 0.621667
v 70.213034 23.480153 0.621667
v 70.216378 23.342239 0.621667
v 70.215709 23.376550 0.621667
v 70.705287 22.592991 0.628333
v 70.705287 22.592991 0.621667
v 70.677250 22.669227 0.621667
v 70.677250 22.669227 0.628333
v 70.767481 22.576533 0.621667
v 70.752994 22.538625 0.621667
v 70.811317 22.689448 0.621667
v 70.796441 22.651744 0.621667
v 72.854719 23.439521 0.621667
v 72.852913 23.384008 0.621667
v 72.836059 23.456911 0.621667
v 72.845991 23.483096 0.621667
v 72.796631 23.357889 0.628333
v 72.796631 23.357889 0.621667
v 72.816495 23.407551 0.621667
v 72.816495 23.407551 0.628333
v 71.837894 23.443473 0.621667
v 71.863859 23.377664 0.621667
v 71.813937 23.445407 0.621667
v 71.813034 23.480153 0.621667
v 71.815709 23.376550 0.621667
v 72.305287 22.592991 0.628333
v 72.305287 22.592991 0.621667
v 72.277250 22.669227 0.621667
v 72.277250 22.669227 0.628333
v 72.367481 22.576533 0.621667
v 72.352994 22.538625 0.621667
v 72.411317 22.689448 0.621667
v 72.396441 22.651744 0.621667
v 73.970479 22.382720 0.621667
v 73.970479 22.382720 0.628333
v 74.124212 22.481140 0.621667
v 74.124212 22.481140 0.628333
v 73.489213 22.428621 0.621667
v 73.489213 22.428621 0.628333
v 73.618042 22.369684 0.628333
v 73.260479 22.819479 0.621667
v 73.260479 22.819479 0.628333
v 73.306820 22.658134 0.621667
v 73.306820 22.658134 0.628333
v 73.308148 23.358624 0.621667
v 73.308148 23.358624 0.628333
v 73.260796 23.199215 0.621667
v 73.260796 23.199215 0.628333
v 73.626718 23.639981 0.621667
v 73.626718 23.639981 0.628333
v 73.494821 23.582719 0.621667
v 73.494821 23.582719 0.628333
v 73.975529 23.630275 0.621667
v 73.885001 23.651945 0.621667
v 74.181431 23.472830 0.621667
v 74.123643 23.542122 0.621667
v 74.038106 23.464305 0.621667
v 74.081499 23.409077 0.621667
v 73.858775 23.550537 0.621667
v 73.926443 23.533530 0.621667
v 73.558504 23.491443 0.621667
v 73.558504 23.491443 0.628333
v 73.660713 23.540009 0.628333
v 73.380603 23.167665 0.621667
v 73.380603 23.167665 0.628333
v 73.416342 23.301258 0.621667
v 73.416342 23.301258 0.628333
v 73.416278 22.712592 0.621667
v 73.416278 22.712592 0.628333
v 73.380595 22.848935 0.621667
v 73.380595 22.848935 0.628333
v 73.657361 22.468499 0.621667
v 73.657361 22.468499 0.628333
v 73.557570 22.518160 0.628333
v 73.934060 22.480839 0.621667
v 73.860254 22.459169 0.621667
v 74.092877 22.624372 0.621667
v 74.049971 22.565447 0.621667
f 1 2 3
f 4 5 1
f 4 1 3
f 6 4 3
f 7 8 9
f 7 9 5
f 7 5 4
f 10 3 2
f 11 12 13
f 14 6 3
f 15 14 3
f 16 12 11
f 17 18 19
f 20 18 17
f 21 15 3
f 22 23 24
f 25 22 24
f 26 21 3
f 27 28 16
f 29 3 30
f 29 26 3
f 31 29 30
f 32 31 30
f 33 34 35
f 36 32 30
f 37 33 35
f 38 39 40
f 41 39 38
f 42 36 30
f 43 44 45
f 46 43 45
f 47 42 30
f 48 10 28
f 48 49 50
f 48 3 10
f 48 27 49
f 48 51 52
f 48 50 51
f 48 28 27
f 53 54 47
f 55 47 54
f 56 53 47
f 57 47 55
f 58 56 47
f 59 47 30
f 59 58 47
f 60 47 57
f 61 59 30
f 62 63 64
f 62 65 63
f 62 66 65
f 67 66 62
f 68 69 70
f 71 61 30
f 72 68 70
f 73 71 30
f 74 75 76
f 77 73 30
f 78 75 74
f 79 77 30
f 80 67 75
f 80 75 78
f 81 79 30
f 82 83 84
f 82 85 83
f 82 86 85
f 82 67 80
f 82 66 67
f 82 84 66
f 87 88 89
f 90 81 30
f 91 88 87
f 92 88 91
f 93 94 95
f 93 96 94
f 97 93 95
f 97 95 98
f 99 88 92
f 100 88 99
f 101 86 82
f 101 97 98
f 101 102 103
f 101 103 97
f 101 104 86
f 101 105 104
f 101 98 105
f 106 102 101
f 106 107 102
f 108 107 106
f 109 108 106
f 110 82 90
f 110 101 82
f 111 48 52
f 111 52 112
f 111 110 90
f 111 88 100
f 111 113 88
f 111 114 115
f 111 116 114
f 111 100 116
f 111 117 110
f 111 118 117
f 111 115 118
f 111 112 113
f 111 90 30
f 21 35 34
f 34 15 21
f 14 24 23
f 14 23 6
f 4 27 16
f 4 16 11
f 4 11 7
f 20 50 18
f 18 50 49
f 42 70 69
f 42 69 36
f 32 45 44
f 32 44 31
f 29 52 51
f 29 51 26
f 41 113 39
f 39 113 112
f 88 47 119
f 119 47 60
f 88 119 120
f 88 120 121
f 88 121 89
f 122 123 3
f 122 3 48
f 124 3 123
f 30 3 124
f 111 30 124
f 111 124 125
f 111 122 48
f 125 122 111
f 124 122 125
f 124 123 122
f 2 1 126
f 126 1 127
f 10 2 128
f 128 2 126
f 28 10 129
f 129 10 128
f 16 28 130
f 130 28 129
f 12 16 131
f 131 16 130
f 13 12 132
f 132 12 131
f 11 13 133
f 133 13 132
f 7 11 134
f 134 11 133
f 8 7 135
f 135 7 134
f 9 8 136
f 136 8 135
f 5 9 137
f 137 9 136
f 1 5 127
f 127 5 137
f 127 136 126
f 135 126 136
f 137 136 127
f 131 128 132
f 133 135 134
f 133 132 135
f 129 131 130
f 129 128 131
f 128 126 135
f 128 135 132
f 138 139 140
f 141 139 138
f 142 138 140
f 143 144 145
f 146 143 147
f 146 147 148
f 146 144 143
f 149 148 150
f 149 146 148
f 151 152 153
f 151 153 154
f 155 154 156
f 155 156 157
f 155 151 154
f 151 158 152
f 141 149 150
f 150 139 141
f 140 152 142
f 142 152 158
f 156 159 157
f 160 161 162
f 163 161 160
f 164 160 162
f 165 166 167
f 168 165 169
f 168 169 170
f 168 166 165
f 171 170 172
f 171 168 170
f 173 174 175
f 173 175 176
f 177 176 178
f 177 178 179
f 177 173 176
f 173 180 174
f 163 171 172
f 172 161 163
f 162 174 164
f 164 174 180
f 178 181 179
f 182 183 184
f 185 182 184
f 186 187 183
f 186 183 182
f 188 184 189
f 188 189 190
f 188 185 184
f 191 192 193
f 191 193 187
f 191 187 186
f 194 190 195
f 194 188 190
f 196 192 191
f 197 195 198
f 197 194 195
f 199 192 196
f 200 198 201
f 200 197 198
f 202 199 196
f 203 199 202
f 204 200 201
f 205 204 201
f 206 204 205
f 207 208 203
f 207 203 202
f 209 206 205
f 210 206 209
f 211 212 210
f 211 210 209
f 213 208 207
f 213 214 208
f 215 212 211
f 216 214 213
f 217 212 215
f 218 214 216
f 219 217 215
f 220 218 216
f 221 220 222
f 221 218 220
f 223 222 224
f 223 221 222
f 225 224 226
f 225 226 227
f 225 223 224
f 228 227 229
f 228 229 230
f 228 225 227
f 231 230 232
f 231 228 230
f 233 232 234
f 233 231 232
f 235 234 236
f 235 233 234
f 237 238 239
f 237 239 240
f 241 236 238
f 241 238 237
f 241 235 236
f 21 26 159
f 159 26 157
f 35 21 156
f 156 21 159
f 37 242 154
f 35 243 37
f 154 243 156
f 156 243 35
f 37 243 242
f 242 243 154
f 33 244 153
f 37 245 33
f 153 245 154
f 154 245 37
f 33 245 244
f 244 245 153
f 34 246 152
f 152 246 247
f 152 248 153
f 247 248 152
f 33 249 34
f 153 249 33
f 247 249 248
f 34 249 246
f 246 249 247
f 248 249 153
f 15 34 140
f 140 34 152
f 14 15 139
f 139 15 140
f 24 139 150
f 24 14 139
f 25 250 148
f 148 250 150
f 24 251 25
f 150 251 24
f 25 251 250
f 250 251 150
f 22 252 147
f 25 253 22
f 147 253 148
f 148 253 25
f 22 253 252
f 252 253 147
f 23 254 143
f 22 255 23
f 143 255 147
f 147 255 22
f 23 255 254
f 254 255 143
f 6 23 145
f 145 23 143
f 4 6 144
f 144 6 145
f 27 4 146
f 146 4 144
f 49 27 149
f 149 27 146
f 18 49 141
f 141 49 149
f 19 256 138
f 138 256 257
f 138 258 141
f 257 258 138
f 18 259 19
f 141 259 18
f 257 259 258
f 19 259 256
f 256 259 257
f 258 259 141
f 17 260 142
f 19 261 17
f 142 261 138
f 138 261 19
f 17 261 260
f 260 261 142
f 20 262 158
f 17 263 20
f 158 263 142
f 142 263 17
f 20 263 262
f 262 263 158
f 50 20 151
f 151 20 158
f 51 50 155
f 155 50 151
f 26 51 157
f 157 51 155
f 42 47 181
f 181 47 179
f 70 42 178
f 178 42 181
f 72 264 176
f 70 265 72
f 176 265 178
f 178 265 70
f 72 265 264
f 264 265 176
f 68 266 175
f 72 267 68
f 175 267 176
f 176 267 72
f 68 267 266
f 266 267 175
f 69 268 174
f 174 268 269
f 174 270 175
f 269 270 174
f 68 271 69
f 175 271 68
f 269 271 270
f 69 271 268
f 268 271 269
f 270 271 175
f 36 69 162
f 162 69 174
f 32 36 161
f 161 36 162
f 45 32 172
f 172 32 161
f 46 272 170
f 45 273 46
f 170 273 172
f 172 273 45
f 46 273 272
f 272 273 170
f 43 274 169
f 46 275 43
f 169 275 170
f 170 275 46
f 43 275 274
f 274 275 169
f 43 276 44
f 44 276 165
f 165 276 169
f 169 276 43
f 31 44 167
f 167 44 165
f 29 31 166
f 166 31 167
f 52 29 168
f 168 29 166
f 112 52 171
f 171 52 168
f 39 112 163
f 163 112 171
f 40 277 160
f 160 277 278
f 160 279 163
f 278 279 160
f 39 280 40
f 163 280 39
f 278 280 279
f 40 280 277
f 279 280 163
f 277 280 278
f 38 281 164
f 40 282 38
f 164 282 160
f 160 282 40
f 38 282 281
f 281 282 164
f 41 283 180
f 38 284 41
f 180 284 164
f 164 284 38
f 41 284 283
f 283 284 180
f 113 180 173
f 113 41 180
f 88 113 177
f 177 113 173
f 47 88 179
f 179 88 177
f 61 71 198
f 198 71 201
f 205 77 209
f 73 77 205
f 211 81 215
f 79 81 211
f 215 90 219
f 81 90 215
f 201 285 205
f 73 286 71
f 71 286 201
f 205 286 73
f 201 286 285
f 285 286 205
f 209 287 211
f 79 288 77
f 209 288 287
f 287 288 211
f 77 288 209
f 211 288 79
f 54 53 183
f 183 53 184
f 190 59 195
f 58 59 190
f 195 61 198
f 59 61 195
f 184 289 189
f 56 290 53
f 53 290 184
f 189 290 56
f 184 290 289
f 289 290 189
f 58 291 56
f 189 291 190
f 56 291 189
f 190 291 58
f 187 54 183
f 55 54 187
f 199 292 192
f 60 293 119
f 119 293 199
f 199 293 292
f 192 294 193
f 193 294 187
f 292 294 192
f 57 295 60
f 55 295 57
f 293 295 292
f 292 295 294
f 294 295 187
f 187 295 55
f 60 295 293
f 87 89 218
f 218 89 214
f 203 119 199
f 120 119 203
f 214 296 208
f 121 297 89
f 296 297 208
f 89 297 214
f 208 297 121
f 214 297 296
f 208 298 203
f 120 299 121
f 208 299 298
f 298 299 203
f 121 299 208
f 203 299 120
f 100 99 228
f 228 99 225
f 221 87 218
f 91 87 221
f 225 300 223
f 92 301 99
f 300 301 223
f 99 301 225
f 223 301 92
f 225 301 300
f 223 302 221
f 91 303 92
f 223 303 302
f 302 303 221
f 92 303 223
f 221 303 91
f 114 304 115
f 115 304 235
f 235 304 233
f 116 305 114
f 100 305 116
f 233 305 231
f 231 305 228
f 228 305 100
f 114 305 304
f 304 305 233
f 117 306 110
f 110 306 240
f 240 306 237
f 118 307 117
f 115 307 118
f 237 307 241
f 241 307 235
f 235 307 115
f 117 307 306
f 306 307 237
f 101 110 239
f 239 110 240
f 109 308 108
f 108 308 234
f 234 308 236
f 106 309 109
f 101 309 106
f 236 309 238
f 238 309 239
f 239 309 101
f 109 309 308
f 308 309 236
f 102 310 103
f 103 310 229
f 229 310 230
f 107 311 102
f 108 311 107
f 230 311 232
f 232 311 234
f 234 311 108
f 102 311 310
f 310 311 230
f 95 94 220
f 220 94 222
f 226 97 227
f 93 97 226
f 227 103 229
f 97 103 227
f 222 312 224
f 96 313 94
f 94 313 222
f 224 313 96
f 222 313 312
f 312 313 224
f 93 314 96
f 224 314 226
f 96 314 224
f 226 314 93
f 216 95 220
f 98 95 216
f 202 315 207
f 104 316 86
f 86 316 202
f 202 316 315
f 207 317 213
f 213 317 216
f 315 317 207
f 105 318 104
f 98 318 105
f 316 318 315
f 315 318 317
f 317 318 216
f 216 318 98
f 104 318 316
f 66 84 186
f 186 84 191
f 83 196 191
f 85 202 196
f 85 86 202
f 84 319 191
f 191 319 83
f 83 320 84
f 319 320 83
f 84 320 319
f 83 321 196
f 196 321 85
f 85 322 83
f 321 322 85
f 83 322 321
f 67 62 197
f 197 62 194
f 185 65 182
f 63 65 185
f 182 66 186
f 65 66 182
f 194 323 188
f 64 324 62
f 62 324 194
f 188 324 64
f 194 324 323
f 323 324 188
f 63 325 64
f 188 325 185
f 64 325 188
f 185 325 63
f 76 326 74
f 74 326 206
f 206 326 204
f 75 327 76
f 67 327 75
f 204 327 200
f 200 327 197
f 197 327 67
f 76 327 326
f 326 327 204
f 80 328 82
f 82 328 217
f 217 328 212
f 78 329 80
f 74 329 78
f 212 329 210
f 210 329 206
f 206 329 74
f 80 329 328
f 328 329 212
f 90 82 219
f 219 82 217
