# Render LOD; unchanged CAD body-local coordinates in mm
v -63.0188814 104.3539063 141.1814868
v -63.1405908 102.5852997 141.3193587
v -63.0207289 100.8166937 143.5185132
v -63.4536391 103.8696672 141.5655982
v -63.1405908 102.5853000 143.4067851
v -63.0205919 104.3539063 143.5185132
v -63.4294841 103.8696672 143.1344018
v -63.7406000 102.5853000 143.4067851
v -63.4095605 101.3009328 143.1344018
v -63.7406000 102.5852998 141.3245205
v -63.0207289 100.8166937 141.1814868
v -63.2394827 101.0724003 141.8893993
v -63.0340975 102.5829046 143.0283355
v -63.0137695 102.5852996 141.6215910
v -62.9800709 101.6172583 142.3500002
v -62.9824892 103.5533417 142.3500002
v -63.0906023 102.1969385 141.9372361
v -63.0906023 102.9834568 142.0502043
v -63.0906023 103.0388544 142.5492513
v -62.6405954 102.1552062 142.5516205
v -62.6405954 102.1891544 142.6120829
v -63.0888605 102.2198932 142.6823997
v -62.6405954 102.3089072 142.7363035
v -62.6405954 102.3378566 142.7554566
v -62.6405954 102.3681244 142.7724491
v -62.6405954 102.3995458 142.7871710
v -62.6224691 102.8351891 142.7532013
v -62.6405954 102.8891590 142.7150996
v -62.6405954 102.9149773 142.6919547
v -62.6405954 102.9390926 142.6669787
v -62.6405954 102.9814456 142.6120829
v -62.5698973 102.1448239 142.4180247
v -62.6020359 102.1197870 142.4392680
v -62.5771770 102.1766499 142.5468385
v -62.5906069 102.1673462 142.5459442
v -62.6147222 102.1582824 142.5501556
v -62.5906069 102.1827823 142.5759007
v -62.5698973 102.2021734 142.5777684
v -62.6208484 102.1763230 142.5887852
v -62.5906069 102.2003057 142.6046853
v -62.5698973 102.2207406 142.6064431
v -62.6147222 102.1799258 142.5909888
v -62.5906069 102.2077216 142.6155619
v -62.6147222 102.1920109 142.6102152
v -62.5906069 102.2199166 142.6321149
v -62.5698973 102.2414501 142.6335798
v -62.6226024 102.2213772 142.6539486
v -62.6037169 102.2426296 142.6699054
v -62.5698973 102.2641373 142.6590684
v -62.6147222 102.2214547 142.6500595
v -62.5906069 102.2527113 142.6700916
v -62.5906462 102.2940067 142.7114424
v -62.6147222 102.2579848 142.6895010
v -62.5906069 102.3167076 142.7254269
v -62.5698973 102.3430203 142.7241085
v -62.5906069 102.3343959 142.7374388
v -62.6147222 102.3108848 142.7335569
v -62.5783057 102.3812588 142.7556115
v -62.5906069 102.3647736 142.7555299
v -62.6147222 102.3396145 142.7525635
v -62.5698973 102.4029516 142.7567018
v -62.6147222 102.3599944 142.7642824
v -62.5906069 102.3964696 142.7712039
v -62.5698973 102.4346477 142.7694827
v -62.6147222 102.3924046 142.7803227
v -62.5698973 102.5341853 142.7927741
v -62.6175739 102.7144517 142.8081698
v -62.5906069 102.7963780 142.7605104
v -62.5698973 102.7982458 142.7415770
v -62.6147222 102.8106056 142.7642824
v -62.5906069 102.8538924 142.7254269
v -62.5698973 102.8554854 142.7044793
v -62.5814242 102.8902986 142.6899679
v -62.6147222 102.8711961 142.7250607
v -62.5906069 102.9056937 142.6823232
v -62.5698973 102.9064627 142.6590684
v -62.6147222 102.8990469 142.7020623
v -62.5906069 102.9178887 142.6700916
v -62.6147222 102.9126152 142.6895010
v -62.5906069 102.9290949 142.6580430
v -62.6147222 102.9365108 142.6647082
v -62.5698973 102.9498594 142.6064431
v -62.5906069 102.9628784 142.6155619
v -62.6203846 102.9609265 142.6378972
v -62.5906069 102.9702943 142.6046853
v -62.5698973 102.9684266 142.5777684
v -62.6147222 102.9710084 142.6213115
v -62.5906069 102.9821048 142.5858984
v -62.6147222 102.9906742 142.5909888
v -62.5698973 103.0257761 142.4180247
v -62.5698973 103.0257761 142.2819753
v -62.5957156 103.0217552 142.1754007
v -62.5666976 103.0460361 142.3161407
v -62.5906069 102.9878177 142.1240993
v -62.5698973 102.9684266 142.1222316
v -62.5906069 102.9702943 142.0953147
v -62.5698973 102.9498594 142.0935569
v -62.6147222 102.9906742 142.1090112
v -62.6405954 102.9814456 142.0879171
v -62.6147222 102.9785891 142.0897848
v -62.5803596 102.9467891 142.0717992
v -62.5906069 102.9413998 142.0563127
v -62.6211343 102.9553956 142.0544476
v -62.5906069 102.9290949 142.0419570
v -62.5698973 102.9064627 142.0409316
v -62.6147222 102.9491453 142.0499405
v -62.6405954 102.9390926 142.0330213
v -62.5906069 102.9178887 142.0299084
v -62.6147222 102.9250848 142.0229870
v -62.6405954 102.9149773 142.0080453
v -62.5906069 102.8805895 141.9951911
v -62.5698973 102.8554854 141.9955207
v -62.6405954 102.8891590 141.9849004
v -62.5906069 102.8651535 141.9828862
v -62.6147222 102.8869617 141.9875006
v -62.5812270 102.8226337 141.9599916
v -62.6147222 102.8597152 141.9664431
v -62.5698973 102.7982458 141.9584230
v -62.6216265 102.8433789 141.9526455
v -62.5906069 102.8058264 141.9444701
v -62.5793895 102.7221097 141.9139675
v -62.6147222 102.8106056 141.9357176
v -62.6185799 102.7124177 141.8899222
v -62.5698973 102.5341853 141.9072259
v -62.5949030 102.5246052 141.8816491
v -62.5698973 102.4346477 141.9305173
v -62.5906069 102.4047644 141.9251705
v -62.5698973 102.4029516 141.9432982
v -62.6147222 102.4008642 141.9159785
v -62.6405954 102.3995458 141.9128290
v -62.5906069 102.3742220 141.9394896
v -62.6405954 102.3681244 141.9275509
v -62.6147222 102.3696626 141.9305905
v -62.5906069 102.3448331 141.9559693
v -62.5698973 102.3430203 141.9758915
v -62.6220542 102.3366976 141.9466542
v -62.5968456 102.2682149 142.0045318
v -62.6147222 102.3289576 141.9541749
v -62.6405954 102.3089072 141.9636965
v -62.5906069 102.2649063 142.0176768
v -62.5698973 102.2641373 142.0409316
v -62.6037586 102.2290185 142.0452780
v -62.5698973 102.2414501 142.0664202
v -62.6147222 102.2455152 142.0229870
v -62.5906069 102.2292002 142.0563127
v -62.5698973 102.2207406 142.0935569
v -62.6403136 102.2188573 142.0472529
v -62.5906069 102.2077216 142.0844381
v -62.6147222 102.2120613 142.0617693
v -62.5906069 102.2003057 142.0953147
v -62.5698973 102.2021734 142.1222316
v -62.6147222 102.1995916 142.0786885
v -62.6405954 102.1891544 142.0879171
v -62.5906069 102.1884952 142.1141016
v -62.5802629 102.1478847 142.2141715
v -62.6147222 102.1799258 142.1090112
v -62.5906069 102.1716310 142.1451934
v -62.6219716 102.1703601 142.1217040
v -62.6147222 102.1626770 142.1407622
v -62.6405954 102.1552062 142.1483795
v -62.5698973 102.1448239 142.2819753
v -62.6189929 102.1214006 142.2442458
v -62.5440058 102.9815005 142.2888235
v -62.5406000 102.9539244 142.2810964
v -62.5540035 103.0053412 142.2851247
v -62.5445762 102.9549835 142.1707918
v -62.5406000 102.8845447 142.1240261
v -62.5440058 102.9051993 142.1084253
v -62.5406000 102.8624069 142.0973655
v -62.5540035 102.9244806 142.0938865
v -62.5440058 102.8815783 142.0799336
v -62.5540035 102.9131645 142.0796040
v -62.5512330 102.8914996 142.0359607
v -62.5540035 102.8993764 142.0636736
v -62.5440058 102.7493009 141.9842046
v -62.5406000 102.7207910 142.0003182
v -62.5451494 102.6472421 141.9426971
v -62.5540035 102.7388088 141.9536988
v -62.5406000 102.5507200 141.9765873
v -62.5440058 102.5483030 141.9508423
v -62.5444218 102.5035908 141.9502660
v -62.5540035 102.5461057 141.9268185
v -62.5440058 102.4498090 141.9727054
v -62.5406000 102.4498090 142.0003182
v -62.5540035 102.4416241 141.9500000
v -62.5470326 102.4165287 141.9740685
v -62.5406000 102.4181679 142.0143076
v -62.5440058 102.4066321 141.9911627
v -62.5517649 102.3839431 141.9689165
v -62.5540035 102.3958653 141.9695560
v -62.5406000 102.3593352 142.0507462
v -62.5405810 102.2587337 142.1535197
v -62.5440058 102.2964376 142.0720233
v -62.5440096 102.2805603 142.0893431
v -62.5540035 102.2790789 142.0552873
v -62.5440058 102.2654007 142.1084253
v -62.5540035 102.2574355 142.0796040
v -62.5540035 102.2461194 142.0938865
v -62.5471111 102.2034049 142.1860607
v -62.5440058 102.1912419 142.2763355
v -62.5540035 102.1675110 142.2719043
v -62.5406000 102.8845447 142.5759739
v -62.5406000 102.8624069 142.6026345
v -62.5406000 102.8379619 142.6271344
v -62.5406000 102.4498090 142.6996818
v -62.5405997 102.4985832 142.7153242
v -62.5405999 102.2860202 142.5774529
v -62.5406000 102.9539244 142.4189036
v -62.5420029 102.9159871 142.5693434
v -62.5509057 102.8198330 142.7102649
v -62.5406000 102.7207910 142.6996818
v -62.5522820 102.6958179 142.7726509
v -62.5406000 102.5507200 142.7234127
v -62.5406000 102.4181679 142.6856924
v -62.5449990 102.3428664 142.6812621
v -62.5414975 102.1903574 142.3694585
v -62.5682098 102.1372505 142.3509221
v -62.5440058 102.1890995 142.4111765
v -62.5540035 102.1652588 142.4148753
v -62.5471740 102.1998146 142.5041840
v -62.5440058 102.2573806 142.5806249
v -62.5460047 102.2684866 142.6086094
v -62.5540035 102.2376598 142.5945045
v -62.5440058 102.2964376 142.6279767
v -62.5540035 102.2712236 142.6363264
v -62.5440058 102.3937779 142.7021721
v -62.5470264 102.4313356 142.7325339
v -62.5540035 102.3958653 142.7304440
v -62.5440058 102.4404705 142.7238155
v -62.5540035 102.4317912 142.7463012
v -62.5795051 102.5180954 142.8123593
v -62.5440058 102.5393490 142.7482422
v -62.5540035 102.5365474 142.7721927
v -62.5440058 102.7301295 142.7238155
v -62.5540035 102.7388088 142.7463012
v -62.5440058 102.8741624 142.6279767
v -62.5540035 102.8915211 142.6447127
v -62.5440058 102.8945973 142.6050515
v -62.5702399 102.9393729 142.6269091
v -62.5540035 102.9244806 142.6061135
v -62.5540035 102.9466184 142.5737400
v -62.5741120 103.0215332 142.5059183
v -62.5440058 102.9793581 142.4236645
v -62.5540035 103.0030890 142.4280957
f 12 2 11
f 3 9 12
f 3 5 9
f 4 1 2
f 2 1 11
f 4 7 1
f 7 6 1
f 5 6 7
f 3 6 5
f 7 8 5
f 8 9 5
f 10 2 12
f 2 10 4
f 12 9 10
f 9 8 10
f 10 7 4
f 8 7 10
f 15 12 11
f 14 15 11
f 15 3 12
f 13 3 15
f 1 14 11
f 16 14 1
f 6 13 16
f 6 16 1
f 6 3 13
f 16 18 14
f 18 17 14
f 16 19 18
f 16 13 19
f 17 15 14
f 22 15 17
f 13 15 22
f 22 17 33
f 22 33 20
f 22 20 39
f 22 39 21
f 22 21 47
f 13 22 23
f 13 23 24
f 13 24 25
f 13 25 26
f 13 26 231
f 13 231 67
f 13 67 27
f 19 13 27
f 19 27 28
f 19 28 29
f 19 29 30
f 19 84 31
f 19 30 84
f 19 31 242
f 19 242 93
f 33 217 32
f 35 33 34
f 36 33 35
f 36 20 33
f 37 34 38
f 36 20 36
f 36 36 35
f 36 35 34
f 36 39 20
f 37 37 38
f 39 36 34
f 39 34 37
f 40 37 38
f 40 38 41
f 42 37 37
f 42 39 37
f 42 21 39
f 43 40 41
f 44 21 42
f 44 37 40
f 44 42 37
f 45 41 46
f 45 43 41
f 44 21 44
f 44 44 40
f 44 40 43
f 44 47 21
f 45 45 46
f 47 43 45
f 47 44 43
f 48 46 49
f 48 45 46
f 50 47 45
f 50 45 45
f 51 48 49
f 48 50 45
f 48 47 50
f 51 51 49
f 51 49 52
f 48 22 47
f 53 22 48
f 53 51 51
f 53 48 51
f 52 22 53
f 52 53 51
f 54 52 55
f 52 23 22
f 56 54 55
f 57 52 54
f 57 23 52
f 56 55 58
f 56 56 55
f 57 24 23
f 57 23 57
f 57 54 56
f 57 57 54
f 59 56 58
f 60 57 56
f 60 24 57
f 60 56 56
f 62 60 56
f 62 24 60
f 62 56 59
f 62 25 24
f 63 58 61
f 62 59 58
f 62 62 59
f 62 25 62
f 62 58 63
f 63 61 64
f 63 63 61
f 65 25 62
f 65 62 63
f 65 26 25
f 65 65 63
f 65 63 63
f 65 26 65
f 231 63 64
f 231 65 63
f 231 26 65
f 231 66 212
f 67 231 212
f 68 212 69
f 68 68 69
f 67 212 68
f 210 68 69
f 70 68 68
f 70 27 67
f 70 67 68
f 27 68 210
f 27 70 68
f 71 210 72
f 71 71 72
f 27 210 71
f 73 71 72
f 74 27 71
f 74 71 71
f 74 28 27
f 74 71 73
f 74 74 71
f 74 28 74
f 75 73 76
f 77 74 73
f 77 28 74
f 77 29 28
f 78 75 76
f 79 73 75
f 79 77 73
f 79 29 77
f 80 78 76
f 80 76 239
f 79 79 75
f 79 75 78
f 79 29 79
f 79 30 29
f 81 78 80
f 81 79 78
f 81 30 79
f 81 84 30
f 81 80 239
f 81 81 80
f 81 30 81
f 83 239 82
f 84 81 239
f 85 82 86
f 85 83 82
f 87 31 84
f 87 239 83
f 87 84 239
f 88 85 86
f 87 31 87
f 87 83 85
f 87 87 83
f 88 86 242
f 88 88 86
f 89 242 31
f 89 85 88
f 89 87 85
f 89 31 87
f 89 88 88
f 242 89 88
f 93 242 90
f 93 91 92
f 94 92 95
f 94 94 95
f 96 94 95
f 96 95 97
f 98 94 94
f 98 92 94
f 98 99 92
f 101 96 97
f 100 99 98
f 100 94 96
f 100 98 94
f 100 99 100
f 100 100 96
f 100 96 101
f 100 103 99
f 103 100 101
f 104 101 105
f 104 102 101
f 106 103 101
f 106 101 102
f 106 107 103
f 108 104 105
f 106 106 102
f 106 102 104
f 106 107 106
f 173 108 105
f 109 107 106
f 109 106 104
f 109 110 107
f 109 104 108
f 109 110 109
f 109 108 173
f 109 109 108
f 111 173 112
f 173 110 109
f 173 113 110
f 114 111 112
f 115 173 111
f 115 113 173
f 114 112 116
f 114 114 112
f 115 111 114
f 115 119 113
f 115 115 111
f 115 113 115
f 117 115 114
f 117 114 114
f 117 119 115
f 119 114 116
f 119 117 114
f 120 116 118
f 120 120 118
f 120 118 121
f 122 120 120
f 122 119 116
f 122 116 120
f 122 123 119
f 123 122 120
f 123 120 121
f 123 121 125
f 127 125 126
f 127 126 128
f 127 127 128
f 129 130 125
f 129 125 127
f 131 128 189
f 131 127 128
f 129 132 130
f 129 130 129
f 129 127 127
f 129 129 127
f 133 129 127
f 133 127 131
f 133 132 129
f 134 189 135
f 133 131 189
f 133 132 133
f 133 136 132
f 133 133 131
f 134 134 135
f 136 189 134
f 136 133 189
f 137 134 135
f 138 134 134
f 138 136 134
f 138 139 136
f 138 134 137
f 138 138 134
f 138 139 138
f 137 139 138
f 140 137 141
f 140 140 141
f 142 140 141
f 142 141 143
f 144 137 140
f 144 140 140
f 144 147 137
f 145 142 143
f 142 144 140
f 142 147 144
f 145 143 146
f 145 145 143
f 148 145 146
f 149 145 145
f 149 147 142
f 149 142 145
f 150 146 151
f 150 148 146
f 152 153 147
f 152 145 148
f 152 149 145
f 152 147 149
f 154 150 151
f 152 153 152
f 152 148 150
f 152 152 148
f 154 151 155
f 154 154 151
f 156 158 153
f 156 150 154
f 156 152 150
f 156 153 152
f 156 154 154
f 157 154 155
f 158 156 154
f 159 158 154
f 159 154 157
f 159 160 158
f 159 159 157
f 159 160 159
f 159 157 155
f 162 160 159
f 162 159 155
f 217 155 161
f 162 155 217
f 162 217 33
f 18 19 93
f 18 93 92
f 18 92 99
f 18 99 103
f 18 103 107
f 18 107 110
f 18 110 113
f 18 113 119
f 18 119 123
f 17 18 123
f 17 123 125
f 17 125 130
f 17 132 136
f 17 130 132
f 17 136 139
f 17 139 137
f 17 137 147
f 17 147 153
f 17 153 158
f 17 158 160
f 17 160 162
f 17 162 33
f 163 93 164
f 163 163 164
f 165 91 93
f 165 93 163
f 166 163 164
f 165 165 163
f 165 92 91
f 165 163 163
f 165 91 165
f 166 165 163
f 166 92 165
f 166 95 92
f 168 166 167
f 97 97 95
f 97 95 166
f 168 168 167
f 168 167 169
f 170 101 97
f 170 97 97
f 170 166 168
f 170 97 166
f 171 168 169
f 172 101 170
f 172 168 168
f 172 170 168
f 171 171 169
f 171 169 173
f 174 105 101
f 174 172 168
f 174 171 171
f 174 168 171
f 174 101 172
f 174 105 174
f 174 174 171
f 173 105 174
f 173 174 171
f 173 116 112
f 173 118 116
f 175 173 176
f 173 121 118
f 175 175 176
f 177 175 176
f 178 121 173
f 178 175 175
f 178 173 175
f 177 121 178
f 177 178 175
f 177 125 121
f 180 177 179
f 180 179 181
f 180 180 179
f 182 177 180
f 182 124 125
f 182 125 177
f 182 182 180
f 182 124 182
f 182 180 180
f 181 125 124
f 181 124 182
f 181 182 180
f 183 181 184
f 183 183 184
f 185 126 125
f 185 125 181
f 185 181 183
f 186 183 184
f 186 184 187
f 185 128 126
f 185 126 185
f 185 183 183
f 185 185 183
f 185 183 186
f 188 186 187
f 186 128 185
f 188 187 189
f 188 188 187
f 190 189 128
f 190 186 188
f 190 188 188
f 190 128 186
f 189 190 188
f 189 137 135
f 189 191 192
f 193 189 192
f 194 193 192
f 195 141 137
f 195 137 189
f 195 189 193
f 195 193 194
f 195 141 195
f 195 195 193
f 195 143 141
f 196 194 192
f 197 195 194
f 197 143 195
f 199 196 192
f 198 197 194
f 198 194 196
f 198 143 197
f 198 146 143
f 198 196 199
f 198 198 196
f 198 146 198
f 199 146 198
f 199 151 146
f 199 155 151
f 199 192 216
f 200 199 216
f 201 161 155
f 201 199 200
f 201 155 199
f 201 200 216
f 201 161 201
f 201 201 200
f 217 201 216
f 217 161 201
f 187 191 189
f 184 191 187
f 203 204 202
f 181 207 184
f 179 207 181
f 204 207 202
f 177 207 179
f 176 207 177
f 173 207 176
f 169 207 173
f 167 207 169
f 166 207 167
f 164 207 166
f 202 207 209
f 93 207 164
f 208 207 93
f 209 207 208
f 191 207 192
f 210 207 204
f 211 207 210
f 212 207 211
f 213 207 212
f 206 207 213
f 214 207 205
f 215 207 214
f 192 207 216
f 205 207 206
f 184 207 191
f 220 218 216
f 219 32 217
f 219 217 216
f 219 216 218
f 219 219 218
f 219 33 32
f 219 218 220
f 219 32 219
f 220 33 219
f 220 34 33
f 220 216 207
f 220 38 34
f 221 220 207
f 222 221 207
f 223 41 38
f 223 220 221
f 223 38 220
f 223 46 41
f 223 41 223
f 223 221 222
f 223 223 221
f 222 46 223
f 224 222 207
f 224 207 215
f 225 49 46
f 225 222 224
f 225 46 222
f 225 49 225
f 225 225 224
f 215 52 49
f 215 49 225
f 215 225 224
f 215 55 52
f 226 215 214
f 226 226 214
f 215 58 55
f 227 226 214
f 227 214 205
f 228 61 58
f 228 58 215
f 228 226 226
f 228 215 226
f 229 227 205
f 227 61 228
f 227 228 226
f 229 205 206
f 229 229 205
f 230 64 61
f 230 61 227
f 230 227 229
f 230 64 230
f 230 229 229
f 230 230 229
f 231 229 206
f 231 64 230
f 231 230 229
f 232 206 213
f 232 231 206
f 232 232 213
f 233 66 231
f 233 231 232
f 212 232 213
f 233 232 232
f 233 233 232
f 233 212 66
f 233 66 233
f 212 233 232
f 234 212 211
f 234 234 211
f 234 211 210
f 235 212 234
f 235 234 234
f 210 212 235
f 210 235 234
f 210 69 212
f 210 73 72
f 236 210 204
f 236 204 203
f 236 236 203
f 237 76 73
f 237 73 210
f 237 210 236
f 238 236 203
f 238 203 202
f 237 236 236
f 237 76 237
f 237 237 236
f 237 239 76
f 238 238 202
f 239 237 236
f 239 236 238
f 209 238 202
f 240 239 238
f 240 238 238
f 240 82 239
f 82 238 209
f 82 240 238
f 82 82 240
f 241 82 209
f 241 82 82
f 241 86 82
f 242 241 209
f 242 86 241
f 242 209 208
f 243 242 208
f 243 208 93
f 243 243 208
f 244 90 242
f 244 242 243
f 244 243 243
f 244 90 244
f 244 244 243
f 93 244 243
f 93 90 244
