# Render LOD; unchanged CAD body-local coordinates in mm
v 15.0491396 70.8011338 141.0608750
v 13.9190000 73.3286000 141.0600000
v 15.0813987 70.8402274 141.0609897
v 15.1214445 70.8734463 141.0610471
v 15.1682882 70.9000961 141.0610471
v 15.0237608 70.7541360 141.0607172
v 13.9190000 69.8286000 141.0600000
v 15.2153378 70.9175067 141.0610327
v 15.0050975 70.6965637 141.0605594
v 15.2606159 70.9265858 141.0610040
v 14.9940149 70.6285771 141.0605020
v 15.3028453 70.9284550 141.0610040
v 16.6190000 73.3286000 141.0600000
v 14.9998240 70.5863325 141.0605307
v 15.3414491 70.9245030 141.0610184
v 15.3760977 70.9164920 141.0610327
v 15.0084759 70.5474525 141.0605881
v 15.0201765 70.5117769 141.0606885
v 15.4360016 70.8920318 141.0610614
v 15.0351730 70.4791989 141.0607889
v 15.4804145 70.8632990 141.0610327
v 15.0758780 70.4225879 141.0609754
v 15.5121380 70.8345663 141.0609754
v 15.1076015 70.3938552 141.0610327
v 15.5528430 70.7780087 141.0607889
v 15.1520144 70.3651759 141.0610614
v 15.2119183 70.3407157 141.0610327
v 15.2465669 70.3326513 141.0610184
v 15.2851707 70.3287526 141.0610040
v 16.6190000 69.8286000 141.0600000
v 15.5678396 70.7454307 141.0606885
v 15.5795402 70.7097017 141.0605881
v 15.5881920 70.6708217 141.0605307
v 15.5940011 70.6285771 141.0605020
v 15.5829185 70.5606439 141.0605594
v 15.5642552 70.5030182 141.0607172
v 15.5388764 70.4560205 141.0608750
v 15.5066173 70.4169268 141.0609897
v 15.4665715 70.3837614 141.0610471
v 15.4197279 70.3570581 141.0610471
v 15.3726782 70.3397009 141.0610327
v 15.3274001 70.3306218 141.0610040
v 16.6190000 69.8286000 142.0000000
v 13.9190000 69.8286000 142.0000000
v 13.9190000 73.3286000 142.0000000
v 16.6190000 73.3286000 142.0000000
v 15.1654454 70.7818006 141.0610040
v 15.1408082 70.7571267 141.0610040
v 15.1208265 70.7286076 141.0610040
v 15.1939966 70.8017746 141.0610040
v 15.1060771 70.6969909 141.0610040
v 15.2255965 70.8165149 141.0610040
v 15.0970545 70.6633448 141.0610040
v 15.2592976 70.8255406 141.0610040
v 15.0940057 70.6285771 141.0610040
v 15.2940286 70.8285847 141.0610040
v 15.3287597 70.8255406 141.0610040
v 15.0970545 70.5938628 141.0610040
v 15.3624195 70.8165149 141.0610040
v 15.1060771 70.5602167 141.0610040
v 15.3940195 70.8017746 141.0610040
v 15.1208265 70.5286000 141.0610040
v 15.4225706 70.7818006 141.0610040
v 15.1408082 70.5000275 141.0610040
v 15.4472078 70.7571267 141.0610040
v 15.1654454 70.4754070 141.0610040
v 15.1939966 70.4553796 141.0610040
v 15.4672307 70.7286076 141.0610040
v 15.2255965 70.4406394 141.0610040
v 15.4819389 70.6969909 141.0610040
v 15.4909615 70.6633448 141.0610040
v 15.2592976 70.4316137 141.0610040
v 15.4940103 70.6285771 141.0610040
v 15.2940286 70.4286229 141.0610040
v 15.4909615 70.5938628 141.0610040
v 15.3287597 70.4316137 141.0610040
v 15.4819389 70.5602167 141.0610040
v 15.3624195 70.4406394 141.0610040
v 15.4672307 70.5286000 141.0610040
v 15.3940195 70.4553796 141.0610040
v 15.4225706 70.4754070 141.0610040
v 15.4472078 70.5000275 141.0610040
v 15.4940103 70.6285771 141.3599939
v 15.4909615 70.5938628 141.3599939
v 15.4819389 70.5602167 141.3599939
v 15.4672307 70.5286000 141.3599939
v 15.4472078 70.5000275 141.3599939
v 15.4225706 70.4754070 141.3599939
v 15.3940195 70.4553796 141.3599939
v 15.3624195 70.4406394 141.3599939
v 15.3287597 70.4316137 141.3599939
v 15.2940286 70.4286229 141.3599939
v 15.2592976 70.4316137 141.3599939
v 15.2255965 70.4406394 141.3599939
v 15.1939966 70.4553796 141.3599939
v 15.1654454 70.4754070 141.3599939
v 15.1408082 70.5000275 141.3599939
v 15.1208265 70.5286000 141.3599939
v 15.1060771 70.5602167 141.3599939
v 15.0970545 70.5938628 141.3599939
v 15.0940057 70.6285771 141.3599939
v 15.0970545 70.6633448 141.3599939
v 15.1060771 70.6969909 141.3599939
v 15.1208265 70.7286076 141.3599939
v 15.1408082 70.7571267 141.3599939
v 15.1654454 70.7818006 141.3599939
v 15.1939966 70.8017746 141.3599939
v 15.2255965 70.8165149 141.3599939
v 15.2592976 70.8255406 141.3599939
v 15.2940286 70.8285847 141.3599939
v 15.3287597 70.8255406 141.3599939
v 15.3624195 70.8165149 141.3599939
v 15.3940195 70.8017746 141.3599939
v 15.4225706 70.7818006 141.3599939
v 15.4472078 70.7571267 141.3599939
v 15.4672307 70.7286076 141.3599939
v 15.4819389 70.6969909 141.3599939
v 15.4909615 70.6633448 141.3599939
f 1 2 3
f 4 3 2
f 5 4 2
f 6 7 2
f 6 2 1
f 8 5 2
f 9 7 6
f 10 8 2
f 11 7 9
f 12 2 13
f 12 10 2
f 14 7 11
f 15 12 13
f 16 15 13
f 17 7 14
f 18 7 17
f 19 16 13
f 20 7 18
f 21 19 13
f 22 7 20
f 23 21 13
f 24 7 22
f 25 23 13
f 26 7 24
f 27 7 26
f 28 7 27
f 29 7 28
f 30 31 25
f 30 32 31
f 30 33 32
f 30 34 33
f 30 35 34
f 30 36 35
f 30 37 36
f 30 38 37
f 30 39 38
f 30 40 39
f 30 41 40
f 30 42 41
f 30 29 42
f 30 25 13
f 30 7 29
f 43 44 7
f 43 7 30
f 44 45 2
f 44 2 7
f 13 2 45
f 13 45 46
f 30 13 46
f 30 46 43
f 46 45 44
f 46 44 43
f 47 3 4
f 48 1 3
f 48 3 47
f 49 1 48
f 49 6 1
f 50 4 5
f 50 47 4
f 51 9 6
f 51 6 49
f 52 5 8
f 52 50 5
f 53 11 9
f 53 9 51
f 54 52 8
f 54 8 10
f 55 14 11
f 55 11 53
f 56 10 12
f 56 54 10
f 57 12 15
f 57 56 12
f 57 15 16
f 58 14 55
f 58 17 14
f 59 16 19
f 59 57 16
f 60 17 58
f 60 18 17
f 61 59 19
f 62 18 60
f 62 20 18
f 21 61 19
f 63 61 21
f 64 20 62
f 22 20 64
f 23 63 21
f 65 63 23
f 66 22 64
f 24 22 66
f 67 24 66
f 25 65 23
f 25 68 65
f 26 24 67
f 26 67 69
f 31 68 25
f 31 70 68
f 32 70 31
f 32 71 70
f 27 26 69
f 27 69 72
f 28 27 72
f 33 73 71
f 33 71 32
f 29 72 74
f 29 28 72
f 34 75 73
f 34 73 33
f 42 29 74
f 42 74 76
f 35 77 75
f 35 75 34
f 41 42 76
f 41 76 78
f 36 79 77
f 36 77 35
f 40 41 78
f 40 78 80
f 39 40 80
f 39 80 81
f 37 79 36
f 37 82 79
f 38 39 81
f 38 82 37
f 38 81 82
f 73 75 83
f 83 75 84
f 84 77 85
f 75 77 84
f 85 79 86
f 77 79 85
f 86 82 87
f 79 82 86
f 87 81 88
f 82 81 87
f 88 80 89
f 81 80 88
f 89 78 90
f 80 78 89
f 90 76 91
f 91 76 92
f 78 76 90
f 76 74 92
f 92 72 93
f 74 72 92
f 93 69 94
f 72 69 93
f 94 67 95
f 69 67 94
f 95 66 96
f 67 66 95
f 96 64 97
f 66 64 96
f 64 62 97
f 97 62 98
f 62 60 98
f 98 60 99
f 99 60 100
f 60 58 100
f 58 55 100
f 100 55 101
f 55 53 101
f 101 53 102
f 102 51 103
f 53 51 102
f 103 49 104
f 51 49 103
f 104 48 105
f 49 48 104
f 105 47 106
f 48 47 105
f 106 50 107
f 47 50 106
f 107 52 108
f 50 52 107
f 108 54 109
f 52 54 108
f 109 56 110
f 110 56 111
f 54 56 109
f 111 57 112
f 56 57 111
f 57 59 112
f 112 61 113
f 59 61 112
f 113 63 114
f 61 63 113
f 114 65 115
f 115 65 116
f 63 65 114
f 65 68 116
f 68 70 116
f 116 70 117
f 70 71 117
f 117 71 118
f 71 73 118
f 118 73 83
f 115 113 114
f 93 94 95
f 87 85 86
f 88 101 102
f 88 102 103
f 88 103 104
f 88 104 105
f 88 105 106
f 88 106 107
f 88 107 108
f 88 108 109
f 88 109 110
f 88 110 111
f 88 111 112
f 88 112 113
f 88 115 116
f 88 116 117
f 88 117 118
f 88 118 83
f 88 83 84
f 88 84 85
f 88 89 90
f 88 90 91
f 88 91 92
f 88 92 93
f 88 95 96
f 88 96 97
f 88 97 98
f 88 98 99
f 88 99 100
f 88 100 101
f 88 85 87
f 88 113 115
f 88 93 95
