# Render LOD; unchanged CAD body-local coordinates in mm
v -70.5129153 34.8085212 114.7534637
v -70.4398822 34.6734493 114.6249943
v -70.5021533 34.6757685 114.6249943
v -70.5645402 34.6750728 114.6249943
v -71.6621132 34.5684502 114.9866892
v -70.6266953 34.6711301 114.6249943
v -70.9155483 34.6327731 114.6360673
v -71.3609505 34.6730474 114.8774846
v -71.2845987 34.4562329 114.6556301
v -71.9942350 34.1371972 114.9999110
v -71.7799117 33.8199048 114.6919062
v -72.1502352 33.4736266 114.9999706
v -72.0755302 32.9417259 114.9999721
v -71.8602978 33.3617669 114.7114727
v -71.7672042 32.8696670 114.7331095
v -71.7215785 32.3133563 114.9998845
v -71.5306440 32.4871816 114.7517477
v -69.7010289 32.4665358 111.6493350
v -70.1480177 32.2234362 111.5468671
v -70.5310568 32.1721582 111.5228488
v -70.1871061 32.2109030 111.6092512
v -71.0024941 32.2608046 111.4885232
v -70.7237506 32.1812932 111.5710056
v -71.4138515 32.5469239 111.4521706
v -71.1681089 32.3517496 111.5405991
v -71.6449438 32.8736478 111.4238082
v -71.5407749 32.6865158 111.5042480
v -71.7821515 33.3946644 111.3853730
v -71.7767936 33.2998165 111.4597979
v -71.6111601 34.0663987 111.3355304
v -71.6715215 33.9371454 111.4115098
v -71.3509873 34.3576918 111.3075120
v -71.3113287 34.3916680 111.3037034
v -71.2700466 34.4241366 111.2999680
v -70.9771929 34.6018648 111.2999675
v -70.8451825 34.6393544 111.3285264
v -70.6391031 34.6699705 111.2999680
v -70.5844855 34.6741451 111.3097093
v -70.5158366 34.6758845 111.3047288
v -70.4522901 34.6741451 111.3000412
v -70.4134738 32.1631947 112.0895275
v -69.8451025 32.3548189 112.2036897
v -71.0273914 32.2741916 112.0486357
v -71.4129484 32.5459990 112.0150075
v -71.0182104 32.2607982 112.1172041
v -71.6453382 32.8744104 111.9863837
v -71.5423216 32.6891641 112.0633334
v -71.7192799 33.7890111 111.9189027
v -71.5910732 34.0775698 111.9616522
v -70.9412456 34.6209448 111.8359389
v -71.2725390 34.4372381 111.9246166
v -69.8958230 34.5238514 111.7575663
v -70.1837158 34.6431405 111.8484397
v -69.4148413 34.0514142 111.7053553
v -69.5998202 34.3006950 111.7999602
v -69.2650428 33.5066591 111.6667944
v -69.3102369 33.7757262 111.7522242
v -69.3158524 33.0473946 111.6364717
v -69.2661792 33.3077618 111.7186172
v -69.6311989 32.5242643 111.5930693
v -69.3968799 32.8575533 111.6843874
v -70.1715676 32.2195815 112.6727769
v -69.8927168 32.3209552 112.7584581
v -70.6054595 32.1713960 112.6416345
v -71.1308282 32.3229556 112.6002825
v -70.9949428 32.2661563 112.6791276
v -71.5658580 32.7226962 112.5563979
v -71.7505423 33.1881398 112.5217783
v -71.6151797 32.8028550 112.6162217
v -71.7787476 33.3730432 112.5753603
v -71.6862274 33.8854533 112.5402039
v -71.4411553 34.2949030 112.4362032
v -70.8757177 34.6360086 112.3925752
v -71.1635224 34.5104039 112.4835816
v -70.6822038 34.6702966 112.4417224
v -70.4412446 34.6777188 112.3610790
v -70.0562666 34.5934984 112.3312706
v -69.7897027 34.4483658 112.3745146
v -69.2526522 33.4460650 112.2280460
v -69.4065455 34.0367048 112.3389252
v -69.2610397 33.4463441 112.2902918
v -69.3980181 32.8511024 112.1810576
v -69.3382753 32.9894554 112.2572904
v -69.7611099 32.4138961 112.1443840
v -70.0830893 32.2397709 113.2424683
v -70.6034083 32.1730802 113.2044479
v -70.5366294 32.1717447 113.2722495
v -71.1305121 32.3194692 113.1619541
v -70.9937278 32.2597885 113.2403800
v -71.5287360 32.6819251 113.1271000
v -71.3482361 32.4869149 113.2091928
v -71.7234203 33.0697760 113.0959999
v -71.6617652 32.8866532 113.1716591
v -71.7762103 33.4794479 113.1325888
v -71.4787399 34.2483861 113.0037725
v -71.4289664 34.2989200 113.0627225
v -71.0221519 34.5774674 112.9662136
v -70.9522116 34.6079619 113.0244521
v -70.1320864 34.6203861 112.9019139
v -70.4556268 34.6814477 112.9885398
v -70.0606081 34.5931697 112.9591697
v -69.7200631 34.3978028 112.9329781
v -69.4189260 34.0369388 112.8988907
v -69.2575744 33.3645242 112.7861746
v -69.2542123 33.4848630 112.8566686
v -69.8821776 32.3410762 113.8195993
v -69.7158787 32.4599285 113.8985471
v -70.4319009 32.1641882 113.7784091
v -70.6645297 32.1793224 113.8257864
v -70.9619162 32.2519394 113.7410444
v -71.3377244 32.4729993 113.7094637
v -71.6960636 32.9577021 113.6673562
v -71.5841609 32.7399187 113.7511221
v -71.7701072 33.3163875 113.7038206
v -71.6721869 33.9188425 113.5968475
v -71.4344595 34.2864885 113.5633843
v -71.0088201 34.5856510 113.5908361
v -70.3741255 34.6770617 113.4816981
v -70.5819142 34.6778414 113.5600389
v -69.8331902 34.4862469 113.4377663
v -70.1075770 34.6193123 113.5230673
v -69.5010581 34.1583742 113.4050449
v -69.3002423 33.7679973 113.3773636
v -69.2807881 33.1991955 113.3322986
v -69.2590568 33.5123830 113.4200869
v -70.4194276 34.6724627 114.6160771
v -70.0642936 34.5901766 114.5925796
v -69.6191174 34.3091468 114.5457501
v -69.5301189 34.2155379 114.6022128
v -69.2848065 33.6830489 114.5603139
v -69.3111354 33.0432147 114.4497327
v -69.3648196 32.9242753 114.5021408
v -71.0486550 31.8716921 114.9999141
v -69.5579687 29.7430996 115.0000000
v -70.6601218 29.6059373 115.0000000
v -70.3961907 31.7997620 114.9999856
v -68.7367648 30.0570741 115.0000000
v -71.7486440 29.8246680 115.0000000
v -67.7483236 30.7910051 115.0000000
v -72.5202562 30.1853851 115.0000000
v -73.3925221 30.9121685 115.0000000
v -67.1220170 31.7074238 115.0000000
v -69.2667200 32.3651252 114.9998944
v -73.9556540 31.7934657 115.0000000
v -66.8217176 32.5035507 115.0000000
v -68.9298937 33.0260047 114.9999495
v -74.2429830 32.6236676 115.0000000
v -66.7050551 33.7282710 115.0000000
v -74.3164282 33.8535091 115.0000000
v -66.9826334 34.8355523 115.0000000
v -68.9040296 33.7409668 114.9998955
v -67.4319066 35.6667424 115.0000000
v -73.9713588 35.0364236 115.0000000
v -69.2065492 34.4001313 114.9999768
v -68.3028719 36.5366918 115.0000000
v -73.2675493 36.0841811 115.0000000
v -72.3565408 36.7579937 115.0000000
v -69.2363130 37.0094454 115.0000000
v -69.6568381 34.8164279 114.9999701
v -70.2504487 37.2352593 115.0000000
v -71.4770672 37.1169412 115.0000000
v -70.3024442 35.0498869 114.9999547
v -67.2723183 31.4231365 114.2995075
v -66.8865894 32.2859673 114.2997701
v -66.7326925 33.0287839 114.2997682
v -66.7655113 34.1666504 114.3008802
v -67.2996320 35.4817783 114.2998520
v -68.1260927 36.3964295 114.3006042
v -71.0380047 37.1982708 114.2999818
v -72.1351417 36.8872804 114.2999756
v -73.1453920 36.1878080 114.3003932
v -73.8802019 35.2361510 114.2998512
v -74.2971415 33.9731128 114.2995934
v -74.2702052 32.7454934 114.3005673
v -73.8624143 31.5830190 114.2998535
v -72.1473142 29.9866647 114.2995454
v -71.2530920 29.6838694 114.2989855
v -70.2805558 29.6264577 114.3001452
v -69.3217361 29.8046010 114.2999922
v -68.1481432 30.4237520 114.3001819
v -72.7258426 35.6296696 114.1949317
v -73.5914144 34.0475836 114.2000102
v -73.5305319 32.6195283 114.1986317
v -72.7162956 31.1147715 114.1995379
v -73.0281266 30.5482074 114.2995923
v -71.3246972 30.4144718 114.1997378
v -70.5651902 30.2830032 114.1999946
v -69.0391838 30.6460756 114.1999684
v -68.3130895 31.2213147 114.1995434
v -67.3871956 32.7371834 114.1992687
v -67.5060646 34.2330182 114.1993105
v -68.0829112 35.4136851 114.1999768
v -69.7076246 36.4386480 114.1958734
v -68.9336261 36.8863089 114.3003129
v -71.0759908 36.5718255 114.1996443
v -69.9334659 37.1996319 114.2997895
v -72.7093648 35.6379013 111.5552660
v -69.7217435 36.4374256 111.5618342
v -72.9060959 34.6131628 111.3404845
v -72.9747661 34.6883028 111.3894892
v -73.1796308 33.5942114 111.3413150
v -73.2460797 33.6754232 111.3779561
v -73.0855912 32.7451404 111.3416283
v -72.7438915 31.9569536 111.3407846
v -72.6615924 31.7514297 111.3683510
v -72.0025308 31.2103109 111.3411557
v -69.8185782 30.8425776 111.3476389
v -68.8468134 31.3412242 111.3426241
v -68.9682185 31.0458793 111.4314230
v -68.1785632 32.1532488 111.3411867
v -68.1071062 31.9903811 111.4125959
v -67.9187433 32.7957297 111.3465463
v -67.8714991 33.7585351 111.3399622
v -68.7365317 35.3954448 111.3405458
v -68.7747604 35.5010027 111.3526883
v -69.4250651 35.8586259 111.3414409
v -70.4450558 36.0918153 111.3408217
v -71.1777471 36.0172163 111.3473440
v -71.8286579 35.7397723 111.3412468
v -73.5281628 32.6167230 111.5664902
v -71.8610325 30.9508034 111.4143393
v -71.2844729 30.8850205 111.3410594
v -71.2963597 30.4189727 111.5561997
v -70.5040368 30.7588608 111.3413855
v -68.3124026 31.2227681 111.5722886
v -67.5080835 34.2366627 111.5567374
v -68.2026454 34.7500886 111.3412842
v -72.3983102 35.3022033 111.3423820
v -68.5580541 35.1995255 110.3123075
v -68.2093959 34.7195099 110.3283714
v -67.9577534 34.1288111 110.3433716
v -67.8665786 33.4678045 110.3598084
v -68.1397894 32.2659658 110.3402983
v -68.3806893 31.8612053 110.3258341
v -68.7268366 31.4765041 110.3403752
v -69.0492192 31.2200439 110.3510027
v -69.4143697 31.0222844 110.3280071
v -69.8691900 30.8658415 110.3064080
v -70.8438427 30.8010927 110.3373274
v -71.6877382 31.0484162 110.3495744
v -72.0779831 31.2938441 110.3169570
v -72.4317114 31.5838417 110.3554567
v -72.8096087 32.1019957 110.3314109
v -72.9855579 32.4869697 110.3016794
v -73.0953955 34.0151994 110.3181109
v -72.3183371 35.3654855 110.3298038
v -71.9250513 35.6638542 110.3098877
v -72.4744010 31.7186586 110.2546207
v -72.6116479 32.0199218 110.2050130
v -72.9889937 32.5946304 110.2646955
v -73.0756732 33.1074226 110.2365636
v -72.9529998 32.8411916 110.2021229
v -73.1277272 32.9681489 110.3480385
v -73.1667346 33.4792358 110.3424879
v -73.0739882 33.6628270 110.2292835
v -72.8575601 34.4196307 110.2079487
v -72.9321443 34.0828020 110.2018027
v -72.9404046 34.4957332 110.3347322
v -72.6319112 34.9377560 110.2557404
v -72.6593850 34.9884582 110.3562174
v -71.6342874 35.7791272 110.2594133
v -72.1156950 35.3827042 110.2044110
v -71.3600051 35.9337664 110.3235207
v -71.0397665 35.9112450 110.2101098
v -70.8812345 36.0501243 110.3450822
v -70.4890785 36.0609309 110.3004321
v -70.5579868 35.9320231 110.2033074
v -70.0857045 36.0400508 110.3473598
v -70.0657227 35.9533153 110.2312227
v -69.7107637 35.9417526 110.3242660
v -69.5505225 35.8274641 110.2490171
v -69.5240256 35.7321545 110.2033990
v -69.0983894 35.6215022 110.2744896
v -69.3500221 35.8071180 110.3671513
v -68.9009828 35.5255015 110.3513767
v -68.8396934 35.3036207 110.2041375
v -68.4098883 34.8434492 110.2085011
v -68.0529181 34.2016940 110.2398640
v -67.9273904 33.6032196 110.2530866
v -68.0322328 33.6627900 110.2014857
v -67.9094584 33.0131511 110.3154975
v -67.9835317 33.1017142 110.2250154
v -67.9874842 32.6417864 110.3385358
v -68.1871367 32.4961232 110.2025870
v -68.1587024 32.3481611 110.2440377
v -68.5213536 31.8833751 110.2071368
v -68.9093059 31.3950645 110.2454394
v -69.2871413 31.2153555 110.2057708
v -69.9437689 30.9788139 110.2039405
v -70.4205319 30.7782973 110.3457051
v -70.4780375 30.8096078 110.2712083
v -70.6569417 30.9109318 110.2061964
v -71.1937263 30.9746917 110.2094864
v -71.2433706 30.8779738 110.3417249
v -71.6958610 31.1169607 110.2521335
v -72.0393391 31.4088393 110.2073429
v -68.2622602 33.5852110 110.2000000
v -68.3140172 32.9520422 110.2000000
v -68.4328323 34.2931957 110.2000000
v -68.5434391 32.3190863 110.2000000
v -68.8506810 34.9586362 110.2000000
v -69.3798762 35.3709769 110.2000000
v -69.1132172 31.6494508 110.2000000
v -69.9868122 35.6261806 110.2000000
v -69.9142141 31.2431629 110.2000000
v -70.6426720 35.6758257 110.2000000
v -71.2108396 35.5759896 110.2000000
v -70.9225316 31.1892653 110.2000000
v -71.9222828 35.2023492 110.2000000
v -71.8478573 31.5930763 110.2000000
v -72.5018308 34.5175848 110.2000000
v -72.3896086 32.1629003 110.2000000
v -72.7599804 33.7177306 110.2000000
v -72.7149149 32.8771299 110.2000000
v -69.1890811 31.5963784 110.2999771
v -69.8417302 31.2713711 110.2999771
v -70.5640650 31.1653143 110.2999771
v -71.4779730 31.3673540 110.2999771
v -72.2589430 31.9778694 110.2999771
v -72.6911978 32.7852132 110.2999771
v -72.7659675 33.6979940 110.2999771
v -72.4842385 34.5489571 110.2999771
v -71.8937342 35.2245252 110.2999771
v -71.2102838 35.5742450 110.2999771
v -70.5460798 35.6846849 110.2999771
v -69.7528259 35.5574134 110.2999771
v -69.0745718 35.1626123 110.2999771
v -68.5937771 34.6137460 110.2999771
v -68.2892747 33.8289268 110.2999771
v -68.2993319 32.9883101 110.2999771
v -68.6098714 32.2059307 110.2999771
v -70.1661849 32.2682242 110.2999771
v -70.6731428 32.2281968 110.2999771
v -69.6286372 32.5938248 110.2999771
v -71.1798792 32.4104890 110.2999771
v -71.5160626 32.7523054 110.2999771
v -69.3485842 33.1228976 110.2999771
v -71.6984350 33.1616798 110.2999771
v -69.3253765 33.6308987 110.2999771
v -69.5815915 34.2045645 110.2999771
v -71.6858770 33.7596679 110.2999771
v -71.4185705 34.2276827 110.2999771
v -70.1454742 34.5813203 110.2999771
v -71.1153394 34.4714928 110.2999771
v -70.7121484 34.6186160 110.2999771
v -71.3495077 34.3152840 111.3001997
v -70.7619773 34.6124274 111.3001050
v -70.1448714 34.5830401 111.2999500
v -69.5904520 34.2107306 111.2999680
v -69.3506602 33.7293753 111.2999680
v -69.3186488 33.2809397 111.2999680
v -69.4560157 32.8540176 111.2999680
v -69.8043654 32.4425437 111.2999680
v -70.3038090 32.2390848 111.2999680
v -70.7819739 32.2452306 111.2999680
v -71.1913536 32.4276007 111.2999680
v -71.5331747 32.7637799 111.2999680
v -71.7154689 33.2705094 111.2999680
v -71.6754411 33.7774602 111.2999680
v -70.1830466 34.6721731 111.2998932
v -71.4185636 34.3262833 111.2996962
v -71.8061074 33.8842796 111.3001613
v -71.9159744 33.0258430 111.3000764
v -69.0260773 33.5125509 111.2998620
v -71.5959590 32.3485880 111.3000453
v -69.1625863 32.5622079 111.2996970
v -69.7421829 31.9265399 111.3104789
v -69.9545857 31.8479823 111.2999680
v -70.0261336 31.8165573 111.2999680
v -69.5880555 32.5847592 114.4731480
v -70.0635926 32.2478149 114.3673142
v -70.7458291 32.1788915 114.3211628
v -70.5819898 32.1618766 114.3971386
v -71.2621977 32.4152343 114.2796709
v -71.5632053 32.7273487 114.2454129
v -71.7780240 33.4931442 114.1868292
v -71.7592042 33.2137895 114.2732433
v -71.7510083 33.6510061 114.2420764
v -71.5741728 34.1268662 114.1421645
v -71.5862946 34.0972540 114.2049774
v -71.1238563 34.5272839 114.0990090
v -71.2572717 34.4385017 114.1762147
v -70.6072575 34.6847959 114.0562802
v -69.9549069 34.5619500 114.0139679
v -70.2447120 34.6639960 114.0988737
v -69.4994021 34.1629866 113.9697951
v -69.3219720 33.8021608 113.9408140
v -69.2613872 33.4169780 113.9128990
v -69.2530272 33.4081238 113.9751766
v -69.5969752 32.5765585 113.8469938
v -69.4121238 32.8228359 113.9327481
v -71.6992254 34.6545464 115.0015125
v -70.1070903 31.7904666 114.6702491
v -71.6339958 32.1469858 114.5830533
v -70.9674137 35.0688259 114.3915501
v -70.2202174 35.0877153 114.3499388
v -69.3255157 32.2296043 114.1568061
v -69.7918730 31.8983603 114.1275051
v -70.4045081 31.7388023 114.0907350
v -72.1521902 32.9568459 113.9718904
v -72.1831282 33.7254330 113.9305941
v -71.9667591 34.2972167 113.8962017
v -70.4036827 35.1120095 113.7987163
v -69.4954842 32.0613576 113.5810117
v -70.2195418 31.7618255 113.5381139
v -71.8189392 34.5192514 113.3223202
v -69.1459165 34.4391813 113.1585547
v -68.8584155 33.7343587 113.1175168
v -69.9797742 31.8140195 112.9910408
v -70.9102370 34.8101942 114.8075069
v -71.0657460 35.0273196 114.9594409
v -70.4630816 35.1153311 114.9270305
v -70.0288534 34.5937995 114.6384189
v -69.9110675 35.0112306 114.8959435
v -69.3662308 34.6602064 114.8626160
v -68.9883658 34.1613377 114.8297177
v -69.2724010 33.2925044 114.5319437
v -68.8145413 33.2983021 114.7817480
v -69.0684836 32.5529340 114.7409955
v -69.9663321 32.2908009 114.4421246
v -69.5302823 32.0459735 114.7041912
v -71.0989809 31.8456995 114.6170633
v -70.6382921 31.7328224 114.6424743
v -71.2114974 32.3717500 114.3472306
v -71.5799979 32.7531954 114.3102606
v -72.0332378 32.6806106 114.5480695
v -72.2064113 33.3064982 114.5144214
v -72.1295029 33.9360769 114.4797970
v -71.7777065 34.5688719 114.4413814
v -70.8811522 34.6317978 114.1457523
v -69.6738310 34.3608050 114.0525626
v -69.6467585 34.8776158 114.3194967
v -69.3785395 33.9580220 114.0176778
v -69.1070704 34.3723551 114.2791549
v -68.8233283 33.4907369 114.2297961
v -68.9957843 32.6754631 114.1848313
v -70.1793427 32.2098331 113.8608825
v -71.0159081 31.8113145 114.0590169
v -71.1227733 32.3212109 113.7928023
v -71.6663198 32.1760929 114.0190246
v -71.7026887 33.8600960 113.6648079
v -71.4152024 34.3064679 113.6278146
v -71.5809567 34.7384084 113.8644872
v -71.0307253 35.0357604 113.8317295
v -69.7038858 34.3798655 113.4945440
v -69.8214657 34.9650005 113.7664992
v -69.4270568 34.0559496 113.4649786
v -69.2502744 34.5515101 113.7287219
v -68.9802630 34.1197110 113.7014320
v -68.8223444 33.4592645 113.6650149
v -69.3618155 32.9234623 113.3754247
v -69.0279240 32.6215178 113.6199364
v -69.6598447 32.5060092 113.3394026
v -70.0945219 32.2383029 113.3057085
v -70.8197059 31.7648069 113.5076879
v -71.3800355 31.9742048 113.4747059
v -71.7766681 32.3078380 113.4475496
v -72.0588635 32.7376794 113.4202232
v -72.1943612 33.2254270 113.3935775
v -71.6825761 33.8899138 113.1013839
v -71.1980126 34.9747885 113.2799889
v -70.5908649 35.1159463 113.2457360
v -69.9128461 35.0104089 113.2088995
v -69.4018597 32.8300246 112.8115947
v -68.8544134 33.1013119 113.0855528
v -69.2478124 32.2959252 113.0369855
v -68.9258384 32.8485617 111.3819126
v -69.2522823 32.3076400 111.3496249
v -69.8859368 31.8661879 111.3079515
v -70.5556195 32.1657727 112.7113839
v -70.6745719 31.7396846 112.9523562
v -71.2987365 32.4430463 112.6499969
v -71.4314370 31.9876977 112.9107012
v -71.9059491 32.4711800 112.8744948
v -72.2003065 33.2781416 112.8279943
v -72.1382637 33.9161202 112.7941734
v -71.4923833 34.2152729 112.5126365
v -71.8970656 34.4020068 112.7648104
v -71.4281198 34.8535174 112.7307213
v -70.9364658 35.0593900 112.7030614
v -70.4373689 35.1083303 112.6765888
v -70.1939871 34.6431318 112.4050769
v -69.9675182 35.0242209 112.6496837
v -69.4534234 34.7353712 112.6196749
v -69.0849066 34.3195864 112.5888894
v -68.9079250 33.9149495 112.5661761
v -68.8290281 33.4491404 112.5418563
v -69.5149706 32.6753449 112.2345049
v -68.9524498 32.7588585 112.5054341
v -69.4370260 32.1250349 112.4608774
v -69.9606255 31.8323093 112.4302644
v -70.4299928 32.1704972 112.1582675
v -70.5763943 31.7306506 112.3943731
v -71.0640666 31.8297447 112.3686699
v -71.4846225 32.0463954 112.3450332
v -71.7329589 33.1068857 112.0341704
v -71.9463533 32.5039875 112.3113180
v -72.1996073 33.2456519 112.2673672
v -71.7643774 33.6066697 111.9946022
v -71.6694719 34.6716941 112.1861055
v -70.7602153 34.6620064 111.8843776
v -70.9817398 35.0577999 112.1409373
v -70.2402422 35.0944679 112.1020229
v -69.6698778 34.8831412 112.0707737
v -69.3038960 34.6030672 112.0454777
v -68.9719343 34.1022003 112.0149680
v -68.8341471 33.5530886 111.9848111
v -68.8686424 33.0916824 111.9588189
v -69.0474499 32.6025957 111.9318546
v -69.3600496 32.1986606 111.9049434
v -69.9843077 31.8130354 111.8623850
v -70.9251657 31.7771506 111.8155084
v -71.6781173 32.1891741 111.7672819
v -72.0117736 32.6530144 111.7386129
v -72.1984191 33.1711710 111.7097371
v -72.1399991 33.9255027 111.6669949
v -71.2870939 34.4264093 111.3639325
v -71.6677414 34.6691625 111.6214444
v -70.7228456 35.1011504 111.5667190
v -70.0264921 35.0538050 111.5275686
v -69.4495651 34.3415772 111.2996681
v -68.8261679 33.6430114 111.4257126
v -72.0824926 32.7873884 112.8545553
v -71.7661185 33.6288680 113.0544176
v -70.5793298 34.6817910 112.9315952
v -69.7728500 34.4364168 112.8707857
v -69.3990338 34.0225533 112.8307711
v -69.4182347 32.8108213 112.7411119
v -69.7765812 32.4084148 112.7071757
v -71.7523772 33.6874417 112.4868515
v -72.1179395 33.9982124 112.2271327
v -69.6320120 34.3248176 112.2945729
v -69.3889830 33.9739497 112.2665992
v -71.7727300 33.3183423 111.9495524
v -71.4954734 34.2238294 111.8830084
v -71.1444924 34.9961699 111.5884319
v -70.3729032 34.6728849 111.7933192
v -69.2421629 34.5500577 111.4771433
v -70.4686681 31.7696223 111.3000412
v -71.0769383 31.9340117 111.3000467
v -70.9473857 34.9924327 114.9958542
v -70.4338721 35.0415387 114.9735056
v -69.6710568 34.7656707 114.9451211
v -69.1369451 34.1040886 114.9134264
v -69.1091145 34.0377598 114.9107164
v -69.0845308 33.9701555 114.9080797
v -69.0670411 33.0368673 114.8733104
v -69.2732532 32.6130623 114.8555733
v -70.0810778 32.0468080 114.8155486
v -68.9905971 33.5734339 114.8935158
v -70.6527248 31.9999898 114.7919250
v -71.1863974 32.1951631 114.7700170
v -71.5879705 34.1686245 114.6735113
v -69.2950719 33.7588862 114.4980774
v -69.6155196 32.5503712 114.4046469
v -71.7263270 33.0948285 114.2170560
v -69.3492924 32.9530592 113.8796715
v -71.7697939 33.5170083 113.6251441
v -72.1514289 33.8683669 113.3593804
v -70.9780406 34.6039530 113.5229512
v -69.5173417 32.6479142 113.2921785
v -69.8549165 31.9336816 114.9999314
v -69.6196746 32.2668760 114.8361753
v -69.2509773 34.3247179 114.9220902
f 127 413 126
f 126 1 2
f 413 1 126
f 2 1 3
f 3 1 4
f 6 1 7
f 4 1 6
f 1 410 7
f 8 7 410
f 7 8 9
f 9 5 553
f 8 5 9
f 10 553 5
f 553 10 11
f 12 11 10
f 11 12 14
f 13 14 12
f 14 13 15
f 16 15 13
f 15 16 17
f 18 19 21
f 60 19 18
f 19 20 21
f 20 23 21
f 20 22 23
f 22 25 23
f 22 24 25
f 24 27 25
f 24 26 27
f 26 29 27
f 26 28 29
f 28 31 29
f 28 30 31
f 30 517 31
f 30 32 517
f 32 33 517
f 33 34 517
f 34 35 517
f 35 36 517
f 35 37 36
f 37 38 36
f 37 38 38
f 38 39 38
f 38 39 39
f 39 40 39
f 84 41 42
f 41 492 42
f 41 45 492
f 41 43 45
f 43 44 45
f 44 47 45
f 44 46 47
f 46 496 47
f 46 534 496
f 534 499 496
f 534 48 499
f 48 49 499
f 48 535 49
f 535 51 49
f 535 50 51
f 50 501 51
f 50 537 501
f 537 53 501
f 537 52 53
f 52 55 53
f 52 54 55
f 54 57 55
f 54 56 57
f 56 59 57
f 56 58 59
f 59 58 61
f 58 60 61
f 60 18 61
f 529 62 63
f 62 470 63
f 62 64 470
f 64 66 470
f 64 65 66
f 65 472 66
f 65 67 472
f 67 69 472
f 67 68 69
f 68 70 69
f 68 530 70
f 530 71 70
f 530 72 71
f 72 477 71
f 72 74 477
f 72 73 74
f 73 75 74
f 73 76 75
f 76 482 75
f 76 77 482
f 77 78 482
f 77 532 78
f 532 80 78
f 532 533 80
f 533 79 80
f 79 81 80
f 79 83 81
f 79 82 83
f 82 488 83
f 82 84 488
f 84 42 488
f 561 85 453
f 85 454 453
f 454 85 87
f 85 86 87
f 86 89 87
f 86 88 89
f 88 91 89
f 88 90 91
f 90 93 91
f 90 92 93
f 92 94 93
f 92 524 94
f 524 460 94
f 524 95 460
f 95 96 460
f 95 97 96
f 97 98 96
f 97 525 98
f 525 100 98
f 525 99 100
f 99 101 100
f 99 526 101
f 526 102 101
f 526 527 102
f 527 103 102
f 527 105 103
f 527 104 105
f 104 464 105
f 104 528 464
f 528 529 464
f 529 63 464
f 390 106 107
f 106 437 107
f 106 108 437
f 108 109 437
f 108 110 109
f 110 439 109
f 110 111 439
f 111 113 439
f 111 112 113
f 112 114 113
f 112 558 114
f 558 441 114
f 558 115 441
f 115 116 441
f 116 442 441
f 116 560 442
f 560 117 442
f 560 119 117
f 560 118 119
f 118 121 119
f 118 120 121
f 120 445 121
f 120 122 445
f 122 447 445
f 122 123 447
f 123 125 447
f 123 124 125
f 124 451 125
f 124 561 451
f 561 453 451
f 6 4 4
f 4 3 4
f 4 3 3
f 3 2 3
f 3 126 2
f 127 128 413
f 128 129 413
f 128 554 129
f 554 130 129
f 554 417 130
f 554 131 417
f 131 132 417
f 132 555 370
f 131 555 132
f 136 133 135
f 134 136 135
f 135 133 138
f 134 562 136
f 137 562 134
f 138 133 140
f 133 16 140
f 139 562 137
f 139 143 562
f 140 16 141
f 142 143 139
f 141 16 144
f 16 13 144
f 142 146 143
f 145 146 142
f 144 13 147
f 148 146 145
f 147 12 149
f 13 12 147
f 148 151 146
f 10 149 12
f 148 150 151
f 5 392 10
f 10 153 149
f 151 150 154
f 150 152 154
f 10 156 153
f 392 156 10
f 154 155 159
f 152 155 154
f 392 157 156
f 155 158 159
f 392 161 157
f 541 161 392
f 159 158 162
f 158 160 162
f 541 160 161
f 162 160 541
f 139 180 163
f 142 139 163
f 142 163 164
f 145 142 164
f 145 164 165
f 148 145 165
f 148 165 166
f 150 148 166
f 150 166 167
f 152 150 167
f 152 167 168
f 155 152 168
f 155 168 194
f 158 155 194
f 158 194 196
f 160 158 196
f 160 196 169
f 161 160 169
f 161 169 170
f 157 161 170
f 156 170 171
f 156 157 170
f 156 171 172
f 153 156 172
f 153 172 173
f 149 153 173
f 149 173 174
f 147 149 174
f 147 174 175
f 144 147 175
f 141 144 175
f 141 175 185
f 140 141 185
f 140 185 176
f 138 140 176
f 138 176 177
f 135 138 177
f 135 177 178
f 134 178 179
f 134 135 178
f 137 134 179
f 137 179 180
f 139 137 180
f 181 172 171
f 172 181 182
f 182 173 172
f 173 182 183
f 183 174 173
f 183 175 174
f 175 183 184
f 184 185 175
f 184 176 185
f 176 184 186
f 186 177 176
f 187 177 186
f 187 178 177
f 187 179 178
f 179 187 188
f 188 180 179
f 180 188 189
f 189 163 180
f 163 189 190
f 190 164 163
f 190 165 164
f 190 166 165
f 191 166 190
f 191 167 166
f 167 191 192
f 192 168 167
f 168 192 193
f 193 194 168
f 193 196 194
f 196 193 195
f 195 169 196
f 195 170 169
f 170 195 181
f 181 171 170
f 193 181 195
f 191 193 192
f 190 189 191
f 188 187 189
f 187 186 189
f 184 183 186
f 181 183 182
f 218 197 181
f 218 181 193
f 198 218 193
f 202 199 201
f 202 200 199
f 220 201 203
f 220 202 201
f 205 220 204
f 205 204 206
f 221 205 206
f 207 223 224
f 209 207 208
f 212 211 210
f 226 212 213
f 215 226 227
f 215 227 214
f 215 214 216
f 198 215 216
f 218 198 217
f 197 218 219
f 197 199 200
f 197 228 199
f 220 203 204
f 221 206 222
f 223 221 222
f 223 222 224
f 208 225 209
f 211 208 210
f 211 225 208
f 226 213 227
f 198 216 217
f 197 219 228
f 202 220 183
f 202 183 181
f 200 202 181
f 197 200 181
f 221 223 186
f 205 186 183
f 205 221 186
f 220 205 183
f 209 225 189
f 207 209 189
f 207 189 186
f 223 207 186
f 212 226 191
f 212 191 189
f 211 212 189
f 225 211 189
f 215 198 193
f 215 193 191
f 226 215 191
f 229 214 227
f 230 229 227
f 231 230 227
f 231 227 213
f 232 231 213
f 232 213 212
f 281 232 212
f 283 281 212
f 283 212 210
f 233 283 210
f 234 233 210
f 234 210 208
f 235 234 208
f 236 235 208
f 237 236 208
f 237 208 207
f 238 237 207
f 238 207 224
f 290 238 224
f 239 290 224
f 294 239 224
f 294 224 222
f 240 294 222
f 240 222 206
f 241 240 206
f 242 241 206
f 242 206 204
f 243 242 204
f 244 243 204
f 244 204 203
f 253 244 203
f 253 203 201
f 254 253 201
f 245 254 201
f 245 201 199
f 258 245 199
f 260 258 199
f 260 199 228
f 246 260 228
f 246 228 219
f 247 246 219
f 263 247 219
f 263 219 218
f 265 263 218
f 265 218 217
f 266 265 217
f 268 266 217
f 268 217 216
f 270 268 216
f 274 270 216
f 275 274 216
f 275 216 214
f 229 275 214
f 243 248 242
f 249 248 243
f 244 249 243
f 250 249 244
f 252 249 250
f 253 250 244
f 252 250 251
f 251 250 253
f 251 253 254
f 255 251 254
f 252 251 255
f 257 252 255
f 245 255 254
f 256 255 245
f 256 245 258
f 257 255 256
f 259 256 258
f 259 258 260
f 262 256 259
f 246 259 260
f 262 259 246
f 262 246 247
f 263 261 247
f 261 262 247
f 264 262 261
f 264 261 263
f 264 263 265
f 266 264 265
f 267 264 266
f 269 267 266
f 268 269 266
f 272 267 269
f 270 269 268
f 272 269 271
f 271 269 270
f 271 270 274
f 273 271 274
f 273 272 271
f 273 274 275
f 276 272 273
f 229 273 275
f 276 273 229
f 276 229 277
f 277 229 230
f 278 277 230
f 278 230 231
f 280 277 278
f 279 278 231
f 279 231 232
f 280 278 279
f 281 279 232
f 282 280 279
f 281 282 279
f 284 280 282
f 285 282 281
f 284 282 285
f 285 281 283
f 285 283 233
f 285 233 234
f 286 284 285
f 286 285 234
f 287 286 234
f 287 234 235
f 288 286 287
f 287 235 236
f 287 236 237
f 288 287 237
f 288 237 238
f 289 288 238
f 291 238 290
f 289 238 291
f 292 289 291
f 291 290 239
f 293 291 239
f 292 291 293
f 293 239 294
f 295 293 294
f 240 295 294
f 295 240 241
f 296 293 295
f 241 296 295
f 241 242 248
f 296 241 248
f 296 248 249
f 297 280 284
f 298 297 284
f 299 280 297
f 300 298 284
f 299 277 280
f 300 284 286
f 301 277 299
f 301 276 277
f 303 300 286
f 303 286 288
f 302 272 276
f 302 276 301
f 305 288 289
f 305 303 288
f 304 272 302
f 267 272 304
f 308 305 289
f 292 308 289
f 306 267 304
f 307 267 306
f 293 308 292
f 264 267 307
f 262 264 307
f 293 310 308
f 262 307 309
f 296 310 293
f 249 310 296
f 249 312 310
f 262 309 311
f 256 262 311
f 249 314 312
f 252 314 249
f 257 256 311
f 257 311 313
f 252 313 314
f 257 313 252
f 315 305 316
f 303 305 315
f 316 305 317
f 305 308 317
f 317 308 318
f 308 310 318
f 318 310 319
f 310 312 319
f 319 312 320
f 312 314 320
f 320 314 321
f 314 313 321
f 313 311 321
f 321 311 322
f 311 309 322
f 322 309 323
f 309 307 323
f 323 307 324
f 324 307 325
f 307 306 325
f 306 304 325
f 325 304 326
f 304 302 326
f 326 302 327
f 302 301 327
f 327 301 328
f 301 299 328
f 328 299 329
f 299 297 329
f 329 297 330
f 297 298 330
f 298 300 330
f 330 300 331
f 300 303 331
f 331 303 315
f 332 317 333
f 332 316 317
f 333 317 318
f 335 333 318
f 332 315 316
f 334 315 332
f 335 318 319
f 334 331 315
f 336 335 319
f 336 319 320
f 337 331 334
f 338 336 320
f 337 330 331
f 338 320 321
f 339 330 337
f 329 330 339
f 341 338 321
f 322 341 321
f 328 339 340
f 328 329 339
f 322 342 341
f 323 342 322
f 327 328 340
f 323 344 342
f 327 340 343
f 326 327 343
f 324 344 323
f 324 345 344
f 325 345 324
f 325 326 343
f 325 343 345
f 342 344 346
f 346 344 347
f 344 345 347
f 347 345 348
f 345 343 348
f 348 340 349
f 343 340 348
f 349 340 350
f 340 339 350
f 350 339 351
f 339 337 351
f 351 337 352
f 337 334 352
f 352 334 353
f 334 332 353
f 353 332 354
f 332 333 354
f 354 333 355
f 333 335 355
f 355 335 356
f 356 335 357
f 335 336 357
f 336 338 357
f 357 338 358
f 338 341 358
f 358 341 359
f 359 341 346
f 341 342 346
f 39 347 40
f 38 347 39
f 40 348 360
f 347 348 40
f 37 347 38
f 35 347 37
f 360 348 521
f 35 346 347
f 348 349 521
f 34 346 35
f 33 346 34
f 361 346 33
f 362 346 361
f 362 359 346
f 349 350 521
f 521 350 364
f 350 351 364
f 362 358 359
f 362 363 358
f 351 366 364
f 352 366 351
f 358 363 357
f 363 365 357
f 353 366 352
f 357 365 356
f 365 540 356
f 353 367 366
f 356 540 355
f 354 367 353
f 354 368 367
f 354 369 368
f 540 539 355
f 354 539 369
f 355 539 354
f 370 555 420
f 555 371 420
f 420 371 373
f 371 372 373
f 372 424 373
f 372 374 424
f 374 375 424
f 375 425 424
f 375 556 425
f 556 377 425
f 556 376 377
f 376 378 377
f 376 379 378
f 379 380 378
f 379 382 380
f 379 381 382
f 381 430 382
f 381 383 430
f 383 385 430
f 383 384 385
f 384 431 385
f 384 386 431
f 386 433 431
f 386 387 433
f 387 389 433
f 387 388 389
f 388 557 389
f 389 557 391
f 557 390 391
f 390 107 391
f 8 392 5
f 378 427 377
f 385 395 430
f 119 444 117
f 125 449 447
f 94 459 93
f 392 8 411
f 411 8 410
f 411 410 412
f 412 410 1
f 413 414 1
f 1 414 412
f 414 413 415
f 415 413 129
f 415 129 416
f 129 130 416
f 416 130 418
f 130 417 418
f 418 417 132
f 132 419 418
f 370 419 132
f 420 421 370
f 370 421 419
f 393 420 373
f 421 420 393
f 393 373 423
f 424 422 373
f 373 422 423
f 394 422 424
f 394 424 425
f 426 425 377
f 394 425 426
f 377 427 426
f 380 428 378
f 378 428 427
f 380 429 428
f 380 382 429
f 429 382 395
f 395 382 430
f 385 396 395
f 385 432 396
f 431 432 385
f 434 431 433
f 432 431 434
f 435 433 389
f 434 433 435
f 391 436 389
f 389 436 435
f 107 397 391
f 391 397 436
f 107 398 397
f 437 398 107
f 399 437 109
f 398 437 399
f 439 438 109
f 109 438 399
f 440 439 113
f 438 439 440
f 440 113 400
f 114 400 113
f 114 401 400
f 441 401 114
f 402 441 442
f 401 441 402
f 443 442 117
f 402 442 443
f 117 444 443
f 121 403 119
f 119 403 444
f 121 446 403
f 448 445 447
f 446 445 448
f 121 445 446
f 448 447 449
f 125 450 449
f 125 451 450
f 450 451 452
f 404 451 453
f 452 451 404
f 404 453 454
f 405 454 87
f 404 454 405
f 89 455 87
f 87 455 405
f 456 89 91
f 455 89 456
f 458 457 93
f 93 457 91
f 91 457 456
f 459 458 93
f 459 94 559
f 94 460 559
f 406 460 96
f 559 460 406
f 98 461 96
f 96 461 406
f 98 462 461
f 100 462 98
f 100 463 462
f 101 463 100
f 101 102 463
f 463 102 407
f 102 103 407
f 105 408 103
f 103 408 407
f 464 465 105
f 105 465 408
f 465 464 466
f 63 466 464
f 409 466 63
f 364 522 521
f 366 467 364
f 366 468 467
f 366 367 468
f 367 368 469
f 368 368 469
f 368 369 368
f 470 409 63
f 409 470 471
f 471 66 473
f 470 66 471
f 472 473 66
f 69 474 472
f 472 474 473
f 69 70 474
f 523 70 475
f 474 70 523
f 475 70 476
f 476 71 478
f 70 71 476
f 71 477 478
f 478 477 479
f 477 74 479
f 479 74 480
f 75 480 74
f 482 481 75
f 75 481 480
f 482 483 481
f 80 484 78
f 78 484 482
f 482 484 483
f 484 80 485
f 81 486 80
f 80 486 485
f 83 487 81
f 81 487 486
f 83 489 487
f 83 488 489
f 489 488 490
f 488 42 490
f 490 42 491
f 492 491 42
f 491 492 493
f 493 45 494
f 492 45 493
f 47 495 45
f 45 495 494
f 47 497 495
f 47 496 497
f 497 496 498
f 496 499 498
f 498 499 531
f 531 49 500
f 499 49 531
f 51 500 49
f 51 501 500
f 500 501 502
f 502 501 503
f 503 53 504
f 501 53 503
f 55 504 53
f 504 55 505
f 505 55 506
f 57 506 55
f 57 507 506
f 59 507 57
f 59 508 507
f 61 508 59
f 61 509 508
f 18 509 61
f 18 510 509
f 18 21 510
f 510 21 511
f 511 21 512
f 23 512 21
f 23 25 512
f 512 25 513
f 25 27 513
f 29 514 27
f 27 514 513
f 514 29 515
f 31 516 29
f 29 516 515
f 516 31 518
f 31 517 518
f 518 517 536
f 39 519 38
f 38 519 36
f 36 519 517
f 517 519 536
f 40 520 39
f 39 520 519
f 360 520 40
f 521 520 360
f 538 520 521
f 538 521 522
f 522 364 467
f 509 82 508
f 365 24 22
f 365 26 24
f 363 26 365
f 363 28 26
f 362 28 363
f 362 30 28
f 362 361 30
f 361 32 30
f 361 33 32
f 33 33 32
f 33 34 33
f 85 409 86
f 86 409 471
f 88 471 473
f 86 471 88
f 90 474 523
f 473 474 88
f 88 474 90
f 92 523 475
f 90 523 92
f 476 524 475
f 475 524 92
f 95 476 478
f 524 476 95
f 479 95 478
f 97 479 480
f 95 479 97
f 481 525 480
f 480 525 97
f 525 483 99
f 481 483 525
f 484 526 483
f 483 526 99
f 484 527 526
f 485 527 484
f 104 486 487
f 485 486 527
f 527 486 104
f 104 487 489
f 489 528 104
f 489 529 528
f 490 529 489
f 491 529 490
f 62 529 491
f 62 493 64
f 491 493 62
f 64 494 65
f 493 494 64
f 495 65 494
f 497 65 495
f 67 65 497
f 498 68 497
f 497 68 67
f 531 530 498
f 498 530 68
f 72 531 500
f 530 531 72
f 500 502 72
f 72 502 73
f 503 76 502
f 502 76 73
f 504 77 503
f 503 77 76
f 505 532 504
f 504 532 77
f 506 533 505
f 505 533 532
f 507 79 506
f 506 79 533
f 79 508 82
f 507 508 79
f 510 82 509
f 84 82 510
f 84 510 511
f 84 511 41
f 512 41 511
f 43 512 513
f 41 512 43
f 43 513 44
f 513 514 44
f 44 514 46
f 46 514 515
f 515 534 46
f 534 516 48
f 515 516 534
f 518 535 516
f 516 535 48
f 50 518 536
f 535 518 50
f 50 536 519
f 520 537 519
f 519 537 50
f 52 520 538
f 537 520 52
f 52 538 54
f 522 54 538
f 522 56 54
f 56 467 58
f 522 467 56
f 468 60 467
f 467 60 58
f 367 60 468
f 19 60 367
f 539 19 369
f 469 19 367
f 368 19 469
f 369 19 368
f 20 19 539
f 20 539 22
f 22 539 540
f 22 540 365
f 411 541 392
f 411 542 541
f 412 542 411
f 414 542 412
f 414 543 542
f 415 543 414
f 415 564 543
f 416 564 415
f 416 544 564
f 416 545 544
f 416 546 545
f 416 550 546
f 418 550 416
f 419 547 418
f 421 548 419
f 421 549 563
f 423 549 393
f 423 551 549
f 394 552 422
f 427 15 426
f 429 9 553
f 434 554 128
f 401 379 376
f 403 384 383
f 547 550 418
f 419 548 547
f 421 563 548
f 393 549 421
f 551 422 552
f 423 422 551
f 552 394 17
f 17 426 15
f 394 426 17
f 427 14 15
f 427 428 14
f 14 428 11
f 429 553 428
f 428 553 11
f 7 9 395
f 395 9 429
f 6 7 395
f 395 396 6
f 6 396 4
f 4 396 3
f 3 396 126
f 126 396 127
f 432 127 396
f 128 127 432
f 432 434 128
f 435 554 434
f 554 435 131
f 435 436 131
f 397 555 436
f 436 555 131
f 398 371 397
f 397 371 555
f 398 399 371
f 371 399 372
f 399 438 372
f 438 440 372
f 372 440 374
f 400 375 440
f 440 375 374
f 376 556 400
f 400 556 375
f 401 376 400
f 401 402 379
f 379 443 381
f 402 443 379
f 443 444 381
f 381 444 383
f 403 383 444
f 403 446 384
f 446 448 384
f 384 448 386
f 448 449 386
f 386 449 387
f 449 450 387
f 387 450 388
f 452 557 450
f 450 557 388
f 390 452 404
f 557 452 390
f 404 106 390
f 404 405 106
f 106 405 108
f 405 455 108
f 108 455 110
f 110 456 111
f 455 456 110
f 112 457 458
f 111 457 112
f 456 457 111
f 112 458 459
f 559 558 459
f 459 558 112
f 115 559 406
f 558 559 115
f 406 116 115
f 461 560 406
f 406 560 116
f 461 462 560
f 560 462 118
f 462 463 118
f 118 463 120
f 407 120 463
f 407 122 120
f 123 122 407
f 407 408 123
f 465 124 408
f 408 124 123
f 466 561 465
f 465 561 124
f 561 466 85
f 85 466 409
f 151 154 544
f 564 154 543
f 154 159 543
f 159 162 543
f 162 542 543
f 162 541 542
f 17 16 552
f 133 552 16
f 133 551 552
f 136 551 133
f 136 549 551
f 562 549 136
f 549 562 563
f 143 563 562
f 563 143 548
f 146 548 143
f 548 146 547
f 146 550 547
f 146 151 550
f 546 550 151
f 151 545 546
f 544 545 151
f 546 545 545
f 545 545 544
f 154 564 544
