# Render LOD; unchanged CAD body-local coordinates in mm
v -55.3711526 87.9642525 74.3855000
v -55.3469853 88.0075159 74.3855000
v -55.3207612 88.0494572 74.3855000
v -55.3295688 88.0420099 74.3825046
v -55.2924068 88.0900764 74.3855000
v -55.2620691 88.1292265 74.3855000
v -55.2298215 88.1668341 74.3855000
v -55.1957375 88.2028258 74.3855000
v -55.1599639 88.2370545 74.3855000
v -54.8105478 88.4826092 74.3730270
v -55.1958368 88.1880743 74.3518390
v -54.2687586 88.5247102 74.3520297
v -53.6749316 88.2077517 74.3368774
v -53.4793681 87.6429061 74.3858931
v -53.6388246 86.9526569 74.3856389
v -53.3816198 87.3464292 74.2902765
v -54.1577115 86.5364661 74.3858761
v -53.6950480 86.7035814 74.2691181
v -54.3600726 86.3474234 74.2494416
v -54.4900367 86.3380174 69.7855076
v -54.4320792 86.3394864 69.7855076
v -54.3742686 86.3437467 69.7855076
v -54.3168253 86.3510185 69.7855076
v -54.2597492 86.3610814 69.7855076
v -54.2032609 86.3739356 69.7855076
v -54.1475071 86.3896544 69.7855076
v -54.0925613 86.4080909 69.7855076
v -54.0386439 86.4292452 69.7855076
v -54.2444301 86.3521758 70.0424420
v -53.9858284 86.4531172 69.7855076
v -53.9342616 86.4794866 69.7855076
v -53.8840905 86.5085003 69.7855076
v -53.8353886 86.5399379 69.7855076
v -53.7883761 86.5737260 69.7855076
v -53.7430532 86.6098646 69.7855076
v -53.6996401 86.6482067 69.7855076
v -53.6581370 86.6886789 69.7855076
v -53.6187641 86.7311344 69.7855076
v -53.5815214 86.7754996 69.7855076
v -53.7295490 86.6062911 70.0685723
v -53.5465559 86.8217011 69.7855076
v -53.5138676 86.8695921 69.7855076
v -53.4836768 86.9190255 69.7855076
v -53.4559835 86.9699280 69.7855076
v -53.4308612 87.0220792 69.7855076
v -53.4083100 87.0754790 69.7855076
v -53.3884766 87.1299072 69.7855076
v -53.3714346 87.1852903 69.7855076
v -53.3571105 87.2414079 69.7855076
v -53.3456512 87.2982600 69.7855076
v -53.3336159 87.3834864 69.7855075
v -53.3753199 87.1202615 70.0956934
v -53.3283888 87.4710200 69.7855076
v -53.3283888 87.5289739 69.7855076
v -53.3312536 87.5868543 69.7855076
v -53.3369833 87.6445144 69.7855076
v -53.3456512 87.7018072 69.7855076
v -53.3571105 87.7585859 69.7855076
v -53.3714346 87.8147035 69.7855076
v -53.3884766 87.8700866 69.7855076
v -53.4083100 87.9245148 69.7855076
v -53.4308612 87.9779146 69.7855076
v -53.4559835 88.0301393 69.7855076
v -53.4836768 88.0810417 69.7855076
v -53.5138676 88.1304752 69.7855076
v -53.3580025 87.8423279 70.1316540
v -53.5465559 88.1782927 69.7855076
v -53.5815214 88.2244942 69.7855076
v -53.6187641 88.2689329 69.7855076
v -53.6581370 88.3113883 69.7855076
v -53.6996401 88.3518606 69.7855076
v -53.7883761 88.4262678 69.7855076
v -53.7843302 88.4203190 70.0482903
v -53.7430532 88.3901293 69.7855076
v -53.8353886 88.4601293 69.7855076
v -53.8840905 88.4915670 69.7855076
v -53.9342616 88.5205072 69.7855076
v -53.9858284 88.5469500 69.7855076
v -54.0386439 88.5707486 69.7855076
v -54.0925613 88.5919763 69.7855076
v -54.1475071 88.6104129 69.7855076
v -53.7836259 88.4452025 70.1632984
v -54.2032609 88.6260582 69.7855076
v -53.9840475 88.5540453 69.8416178
v -54.2597492 88.6389858 69.7855076
v -54.3168253 88.6490488 69.7855076
v -54.3742686 88.6562471 69.7855076
v -54.4320792 88.6605808 69.7855076
v -54.4900367 88.6620499 69.7855076
v -54.5479208 88.6605808 69.7855076
v -54.4119496 88.6654515 69.8604406
v -54.6057314 88.6562471 69.7855076
v -54.6631747 88.6490488 69.7855076
v -54.7202508 88.6389858 69.7855076
v -54.7767391 88.6260582 69.7855076
v -54.8324929 88.6104129 69.7855076
v -54.8874387 88.5919763 69.7855076
v -54.9413561 88.5707486 69.7855076
v -54.9941716 88.5469500 69.7855076
v -54.5552055 88.6891106 70.1993164
v -55.0457384 88.5205072 69.7855076
v -54.8605401 88.6112723 69.8843694
v -55.0959095 88.4915670 69.7855076
v -55.1446114 88.4601293 69.7855076
v -55.1916239 88.4262678 69.7855076
v -55.2369468 88.3901293 69.7855076
v -55.2803599 88.3518606 69.7855076
v -55.3218630 88.3113883 69.7855076
v -55.3612359 88.2689329 69.7855076
v -55.2640730 88.3738286 69.9036748
v -55.3984786 88.2244942 69.7855076
v -55.4334441 88.1782927 69.7855076
v -55.3895061 88.2685610 70.1547901
v -55.4661324 88.1304752 69.7855076
v -55.4963232 88.0810417 69.7855076
v -55.5240165 88.0301393 69.7855076
v -55.5491388 87.9779146 69.7855076
v -55.3197912 88.3434277 70.2401102
v -55.5716900 87.9245148 69.7855076
v -55.5915234 87.8700866 69.7855076
v -55.6085654 87.8147035 69.7855076
v -55.6398156 87.7117479 70.1799327
v -55.6228895 87.7585859 69.7855076
v -55.6343488 87.7018072 69.7855076
v -55.6430167 87.6445144 69.7855076
v -55.6487464 87.5868543 69.7855076
v -55.6516112 87.5289739 69.7855076
v -55.6516112 87.4710200 69.7855076
v -55.6487464 87.4132129 69.7855076
v -55.6430167 87.3555529 69.7855076
v -55.6343488 87.2982600 69.7855076
v -55.6011091 87.0934385 70.2104700
v -55.6228895 87.2414079 69.7855076
v -55.6085654 87.1852903 69.7855076
v -55.5915234 87.1299072 69.7855076
v -55.5716900 87.0754790 69.7855076
v -55.5491388 87.0220792 69.7855076
v -55.6841228 87.5459810 70.2728071
v -55.5240165 86.9699280 69.7855076
v -55.4963232 86.9190255 69.7855076
v -55.4661324 86.8695921 69.7855076
v -55.4334441 86.8217011 69.7855076
v -55.3984786 86.7754996 69.7855076
v -55.3612359 86.7311344 69.7855076
v -55.3218630 86.6886789 69.7855076
v -55.2803599 86.6482067 69.7855076
v -55.2369468 86.6098646 69.7855076
v -55.1916239 86.5737260 69.7855076
v -55.4362733 86.7906370 69.9810622
v -55.1446114 86.5399379 69.7855076
v -55.0959095 86.5085003 69.7855076
v -55.3896656 86.7086520 70.2729630
v -55.0457384 86.4794866 69.7855076
v -54.9941716 86.4531172 69.7855076
v -54.9413561 86.4292452 69.7855076
v -54.8874387 86.4080909 69.7855076
v -54.8324929 86.3896544 69.7855076
v -54.7767391 86.3739356 69.7855076
v -54.7202508 86.3610814 69.7855076
v -54.6631747 86.3510185 69.7855076
v -54.7903554 86.3387266 70.2965683
v -54.6057314 86.3437467 69.7855076
v -54.8692551 86.3861575 70.0144348
v -54.5479208 86.3394864 69.7855076
v -54.1032365 86.3852906 70.2942591
v -54.3452176 86.3275272 70.3655544
v -53.3264154 87.3057548 70.3492761
v -53.3901396 87.0672282 70.4235357
v -53.3329229 87.8115044 70.4126501
v -53.5574594 88.2583137 70.4316901
v -54.3362901 88.6769245 70.4333553
v -54.1016810 88.6257190 70.5163435
v -54.9440031 88.6048023 70.4991361
v -55.4944734 88.1618553 70.5243181
v -55.5174906 86.9234783 70.5507589
v -55.0227600 86.4473967 70.5827613
v -55.2303523 86.5609597 70.6612520
v -54.4258687 86.3236986 70.6961956
v -53.4905486 86.8347891 70.6980257
v -53.8524206 86.5173255 70.7239949
v -53.4335987 88.0647105 70.7618439
v -53.7495663 88.4430045 70.7744090
v -54.3731468 88.6708184 70.7673870
v -54.5213968 88.6864942 70.8641532
v -55.1845414 88.4463773 70.8939367
v -55.6131995 87.8608545 70.8398822
v -55.6264563 87.8554598 70.9240619
v -55.5329424 86.9151279 70.9739393
v -54.8767527 86.3843996 71.0095262
v -54.3063972 86.3196803 70.9972869
v -53.3947758 87.0133335 71.0449824
v -53.3073122 87.5302402 71.0241225
v -53.9136645 88.5481555 71.1115578
v -53.3838044 87.9641321 71.1317990
v -54.5991177 88.6817400 71.1115017
v -54.5397217 88.6821127 71.1983217
v -55.6378856 87.7869009 71.2649845
v -55.5906114 87.0958656 71.2045041
v -55.1756965 86.5302442 71.2389918
v -55.5581291 86.9813977 71.2986255
v -54.8914160 86.3749542 71.3419064
v -53.7697000 86.5699718 71.3041030
v -54.0655221 86.4001858 71.3777070
v -53.5044975 86.8232257 71.3564286
v -53.3179230 87.4359979 71.3503831
v -53.5015211 88.1638970 71.3793839
v -54.1448615 88.6281302 71.4225922
v -54.1513443 88.6417005 71.5098230
v -54.8571162 88.6391367 71.4899120
v -55.4581550 88.1798035 71.4845246
v -55.4260456 88.2298488 71.5724827
v -55.6693193 87.4691254 71.5217525
v -55.4300248 86.7832972 71.5548209
v -55.6766099 87.2942793 71.6132751
v -55.0964241 86.4755318 71.6639292
v -54.3868766 86.3277709 71.6074946
v -54.2586118 86.3363140 71.7065201
v -53.6657952 86.6410413 71.6421589
v -53.2917938 87.4526693 71.7188175
v -53.5181402 86.8094608 71.7369422
v -54.6446177 88.6842143 71.8212840
v -53.9697371 88.5712270 71.8332421
v -55.0613220 88.5360025 71.7963974
v -55.2376093 88.4126113 71.8958976
v -55.2598619 86.5792123 71.9843146
v -53.8820028 86.4988156 71.9607342
v -54.3025527 86.3224823 72.0319153
v -53.4361643 86.9619696 71.9932774
v -53.4543538 86.8788046 72.0775975
v -53.3533092 87.8283846 72.1219356
v -53.7646914 88.4531485 72.1107497
v -54.2748921 88.6597185 72.0890474
v -55.0107038 88.5815389 72.1633427
v -54.5208494 88.6916960 72.1897966
v -55.6515616 87.6876952 72.1738771
v -55.5733321 87.9757036 72.2514631
v -55.6622526 87.2733383 72.2431647
v -55.4723713 86.8396761 72.2995630
v -54.9725761 86.4092293 72.2883590
v -54.2693294 86.3400109 72.2773537
v -53.5685580 86.7290647 72.3551384
v -53.3403872 87.1842188 72.3794599
v -53.4755879 88.0889025 72.3764853
v -53.9544732 88.5686371 72.4409183
v -53.4130794 88.0264029 72.4591015
v -54.5663044 88.6714304 72.4349929
v -55.1462954 88.4766973 72.4638930
v -54.7491836 88.6545046 72.5329060
v -55.6349938 87.8416025 72.5007396
v -55.3633369 88.2886461 72.5663062
v -55.5786138 87.0608199 72.5356774
v -55.6780292 87.5817470 72.5950506
v -55.1943693 86.5550810 72.5636126
v -55.4475489 86.8112445 72.6373927
v -54.7604033 86.3333211 72.6807693
v -53.6402712 86.6858336 72.6377111
v -53.8182504 86.5151076 72.7267210
v -53.3453022 87.2141953 72.7569921
v -53.8505865 88.4914632 72.7354087
v -53.4073318 87.9861746 72.7908238
v -54.6687907 88.6816417 72.7699624
v -54.0006803 88.5813673 72.8299910
v -54.7421105 88.6493333 72.8636282
v -55.3915272 88.2609670 72.8116324
v -55.4099936 88.2561100 72.8947853
v -55.6292972 87.1806680 72.8647854
v -55.2514188 86.5773984 72.9381128
v -54.7141680 86.3311087 72.9210682
v -54.0218365 86.4259844 72.9509106
v -54.4308715 86.3096986 73.0225230
v -53.4417820 86.9236609 72.9889997
v -53.6432127 86.6737179 73.0625774
v -53.3277743 87.3160259 73.0953556
v -54.3070947 88.6689631 73.0871218
v -54.4176083 88.6886695 73.1881658
v -55.5782178 87.9936529 73.1601351
v -55.2158880 88.4343398 73.2214805
v -55.6264764 87.8167554 73.2527158
v -55.6312067 87.2360947 73.1902631
v -55.2275740 86.5501939 73.2235827
v -55.5741990 87.0047644 73.2880279
v -54.8582656 86.3601550 73.3308116
v -53.3488111 87.2133329 73.3324554
v -53.4019563 87.0001140 73.4072710
v -53.4123310 88.0160114 73.3691559
v -53.3898259 87.9555163 73.4531462
v -53.8984947 88.5447010 73.4377181
v -54.6944935 88.6731001 73.4409279
v -54.3160385 88.6668675 73.5056532
v -54.9299384 88.5856047 73.5365145
v -55.4923642 88.1501682 73.4799671
v -55.4435009 88.2006133 73.5658967
v -55.6586108 87.4672590 73.5129997
v -55.4873709 86.8332943 73.5703405
v -55.6769133 87.3597646 73.6062665
v -54.2584469 86.3266376 73.6479166
v -53.7423574 86.5706977 73.6696808
v -53.3929903 87.0654468 73.6520239
v -53.3545321 87.8584041 73.6959917
v -53.2973066 87.3332387 73.7586153
v -53.9309194 88.5514248 73.7340571
v -53.5909560 88.2805376 73.8072175
v -54.7345576 88.6541481 73.7717425
v -55.2986221 88.3510049 73.8005746
v -54.9317093 88.6058195 73.8675716
v -55.6653919 87.6900852 73.8336598
v -55.5120822 88.0830937 73.9057046
v -55.4275963 86.7509638 73.8796096
v -54.7026048 86.3448590 73.9184961
v -54.9550966 86.4084038 73.9923972
v -55.3674798 88.2743683 69.7855076
v -55.4731108 88.1349558 69.7855076
v -54.9977710 88.5544422 69.7855076
v -55.5567048 87.9813669 69.7855076
v -54.8902301 88.5997623 69.7855076
v -54.7787959 88.6341380 69.7855076
v -55.6309698 87.7604222 69.7855076
v -54.6644235 88.6572755 69.7855076
v -55.6570470 87.5874419 69.7855076
v -54.4900367 88.6703500 69.7855076
v -54.3155765 88.6572755 69.7855076
v -54.2012041 88.6341380 69.7855076
v -55.6165722 87.1830133 69.7855076
v -54.0897699 88.5997623 69.7855076
v -55.5634482 87.0346583 69.7854464
v -53.9822290 88.5544422 69.7855076
v -55.5314356 86.9661085 69.7855076
v -55.4731108 86.8650380 69.7855076
v -55.3674798 86.7256255 69.7855076
v -53.6125202 88.2743683 69.7855076
v -55.1966190 86.5671153 69.7855076
v -53.5068892 88.1349558 69.7855076
v -53.4485644 88.0338853 69.7855076
v -54.9977710 86.4456251 69.7855076
v -54.8902301 86.4003050 69.7855076
v -53.3534426 87.7815883 69.7855197
v -54.6644235 86.3427918 69.7855076
v -53.3229530 87.5874419 69.7855076
v -54.4900367 86.3297173 69.7855076
v -53.3229530 87.4125519 69.7855076
v -53.3287561 87.3545245 69.7855076
v -54.3155765 86.3427918 69.7855076
v -53.3490302 87.2395716 69.7855076
v -54.2012041 86.3659293 69.7855076
v -54.0897699 86.4003050 69.7855076
v -53.4232952 87.0187004 69.7855076
v -53.9822290 86.4456251 69.7855076
v -53.5068892 86.8650380 69.7855076
v -53.6119759 86.7258193 69.7853985
v -54.1025614 86.3681629 73.9770474
v -53.4180344 86.9723025 73.9849936
v -53.6490259 86.6726229 74.0551393
v -53.3560673 87.8375667 74.0210957
v -53.3119654 87.3554586 74.0950149
v -53.7143014 88.4076830 74.1002934
v -53.4475261 88.0340823 74.1230024
v -54.3808425 88.6900464 74.0874648
v -55.2265034 88.4262630 74.1286119
v -54.5023064 88.6901337 74.1791856
v -55.2762527 88.3802487 74.2179835
v -55.5341633 86.9644044 74.2067914
v -55.6719791 87.4296621 74.2024988
v -55.4180916 86.8007672 74.2194879
v -55.3826119 86.7561082 74.2116555
v -55.3440470 86.7121102 74.2194879
v -55.4416713 87.4999602 74.3855000
v -55.4458583 87.5681240 74.3855000
v -55.4350602 87.6127095 74.3791980
v -55.4451238 87.6365816 74.3855000
v -55.4113545 87.7513306 74.3721714
v -55.4337379 87.7458052 74.3855000
v -55.4244824 87.7945041 74.3855000
v -55.4100848 87.8522377 74.3855000
v -55.3928224 87.9073269 74.3855000
v -55.3380235 87.9319335 74.3606522
v -54.6772408 88.4452075 74.3128430
v -55.2310895 88.1518618 74.0138535
v -54.5556763 88.4637204 73.9751858
v -53.5613899 87.2178090 73.8700713
v -54.7738072 86.5849086 73.7876835
v -53.5233036 87.5585781 73.5568804
v -53.7468675 86.8689276 73.5167010
v -54.0183928 88.3577845 74.2746782
v -53.5206451 87.6448993 74.2273526
v -53.8600935 86.7302987 74.1723373
v -54.9863827 86.4492017 74.2286091
v -54.7259826 86.5489846 74.1250410
v -55.2236049 86.8808728 74.0916313
v -55.4546372 87.3684007 74.0635947
v -55.5988801 87.8778371 74.1566416
v -53.9551266 88.3026719 73.9396015
v -53.5794063 87.8152072 73.9052617
v -54.0949243 86.5947102 73.8253276
v -55.2927086 86.9262292 73.7532440
v -55.4399162 87.6805009 73.7102420
v -55.1052191 88.2582585 73.6762544
v -54.4357041 88.4623557 73.6358886
v -53.8296496 88.2226857 73.6026635
v -54.3590502 86.5415910 73.4788073
v -55.4044453 87.0585025 74.3865480
v -54.8836047 86.5725261 74.3857017
v -55.2691873 86.6355920 74.2190245
v -55.5935876 87.8363998 74.2607503
v -55.5204051 86.9245217 73.9603086
v -55.6611821 87.5205028 73.9309443
v -54.2330279 88.6428484 73.8381959
v -54.8508436 86.3806927 73.6685286
v -54.0148451 86.4211071 73.3742208
v -55.1888474 86.7875640 73.4313695
v -55.4541125 87.5769867 73.3839687
v -54.3599019 88.4587354 73.2979105
v -53.7501154 88.1230664 72.9277471
v -54.7824739 86.5633050 72.7920039
v -54.5374640 88.4892708 72.6489668
v -53.7933779 88.1735705 72.5993842
v -54.2739909 86.5565145 72.4871728
v -55.0392025 86.6871612 72.4445206
v -55.4439496 87.3484746 72.4006865
v -55.2989585 88.0513797 72.3615757
v -55.1349024 88.2428895 73.3445356
v -53.7454232 88.1343935 73.2612795
v -53.3881258 87.8974174 73.1201795
v -53.5160217 87.3952021 73.2175558
v -53.9925627 86.6367378 73.1691007
v -54.7518168 86.5723455 73.1252638
v -55.2908375 86.9346609 73.0879651
v -55.5340272 86.9556693 72.9623574
v -55.4445171 87.6997872 73.0479834
v -54.3611785 88.4735914 72.9671511
v -53.5113696 87.4779819 72.8898151
v -53.8774847 86.7344420 72.8455484
v -55.3821258 87.1103251 72.7487355
v -53.5425269 87.6705708 72.5688671
v -54.2560323 86.3207026 72.3778411
v -54.5859214 88.4669109 72.3155027
v -53.7565481 88.1687744 72.2643058
v -54.1216253 86.5908146 72.1662300
v -53.7814618 88.1650032 71.9355284
v -53.5055387 87.4346503 71.8902832
v -53.8293827 86.7805875 71.5190381
v -55.3532709 87.9412662 71.3715461
v -53.7062064 88.0875126 71.2661750
v -55.1473810 86.7734272 71.1115092
v -53.5391476 87.2437444 72.2168956
v -55.3493518 87.0526241 72.0864145
v -55.4345647 87.7595306 72.0472975
v -54.9540377 88.3552748 72.0066540
v -54.3164331 88.4453773 71.9693810
v -53.8361149 86.7981948 71.8513059
v -54.9978387 86.6831505 71.7832228
v -55.4129668 87.1766909 71.7499552
v -55.2965581 88.0869726 71.6962421
v -54.3052068 88.4755454 71.6341123
v -53.4512370 88.0823580 71.4747584
v -53.6103393 87.9161124 71.5849042
v -53.5534803 87.2989423 71.5527795
v -53.3326900 87.2538982 71.4309774
v -55.4210236 87.1814642 71.4179958
v -54.9360778 88.3537674 71.3406016
v -54.3930943 88.4594969 71.3108958
v -53.5573941 87.1337381 71.2108077
v -54.3510290 86.5221002 71.1578057
v -55.4750347 87.5182106 71.0623704
v -54.6088568 88.4544569 70.9889389
v -54.0520186 88.3640189 70.9567953
v -53.7183898 88.0721058 70.6012953
v -53.7508440 86.8755521 70.5301343
v -55.1534424 86.7938083 70.4433572
v -55.1123220 86.7316713 70.1176989
v -55.4619406 87.4585778 70.0725057
v -54.4382230 88.4776834 69.9865282
v -55.1458152 88.2188261 71.0214726
v -53.6387391 87.9543496 70.9250942
v -53.2925928 87.4180585 70.7231995
v -53.5671504 87.1528036 70.8805035
v -54.1995743 86.5697569 70.8303752
v -55.3993931 87.0962717 70.7596644
v -55.6284777 87.2241792 70.6253139
v -55.3288128 87.9997946 70.7056484
v -54.8161691 88.4077607 70.6682503
v -54.1531985 88.4090133 70.6320389
v -55.0829923 88.2809007 70.3510908
v -54.4340003 88.4634547 70.3156347
v -53.5419697 87.7500826 70.2476038
v -53.6293670 87.0663935 70.2120763
v -54.1987583 86.5602670 70.1675587
v -55.6656610 87.4561469 69.9498913
v -55.5420857 88.0151025 69.9231354
v -55.1678870 88.2009940 70.0283990
v -53.9018630 88.2589286 69.9517985
v -55.6335218 87.8320600 71.1720222
v -55.2741849 88.4067951 71.1904766
v -53.4985214 88.1194570 71.0491973
v -53.8353439 86.4976986 71.0048556
v -54.8139045 86.5941805 70.7984025
v -55.0159975 86.4350491 70.9132782
v -55.5983542 87.0693512 70.8695634
v -55.1271607 88.5058885 70.8015159
v -53.5197270 87.5370933 70.5682205
v -54.3922733 86.5183669 70.4908857
v -54.2526852 86.3340431 70.6133933
v -55.6738038 87.6879388 70.5610691
v -55.4830546 87.5238653 70.4051351
v -53.9195878 88.2757930 70.2844325
v -53.6591167 86.6405044 70.3568285
v -54.8683889 88.6062775 70.1243328
v -54.3147446 88.6636817 70.0995359
v -53.3162865 87.5228218 72.3507107
v -54.8501725 86.5997720 72.1247465
v -55.3475441 86.6977286 72.2230131
v -55.4158179 88.2176296 72.1473910
v -53.3330672 87.7818160 72.0310223
v -54.3456901 86.5355948 71.8204711
v -54.5850026 86.3141694 71.9311582
v -55.3080810 86.6502869 71.8934897
v -55.6793779 87.3330763 71.9093910
v -55.6007229 87.9407422 71.8466445
v -53.9421047 88.5484614 71.7402705
v -53.4290588 88.0486195 71.7418666
v -54.7046478 86.5184833 71.4641667
v -54.9462727 86.4221483 71.5805793
v -54.4165349 86.3227722 71.2695538
v -55.0139462 86.4398161 73.5697679
v -53.7216293 86.5993264 73.2935848
v -54.3946197 86.3269201 73.2655361
v -55.0845684 88.2585573 73.0077952
v -55.0042313 88.5583124 73.1205190
v -53.6442334 88.3469110 73.0870891
v -53.3351834 87.7251724 73.0235014
v -55.3498653 87.9945879 72.6923054
v -55.6742172 87.6515002 72.8797060
v -53.4656274 88.0633962 72.7063624
v -53.6326265 87.0190470 72.5317272
v -53.3052648 87.3795099 72.6724302
v -54.3782902 86.3077421 72.6036522
v -54.4852586 86.1044818 69.5638715
v -54.7782754 86.3654019 69.7853586
v -55.0517149 86.3203833 69.6499095
v -54.3284518 85.0678786 68.5183285
v -55.4396517 86.6661873 69.6926595
v -55.2527702 86.4988043 69.6976465
v -55.4950731 85.2733148 68.5098360
v -56.0488413 87.0596566 69.3356290
v -55.5704562 86.8712216 69.7059794
v -55.6389134 87.2815141 69.7854164
v -56.4108756 86.0013106 68.5154867
v -55.9709285 87.5368081 69.4744832
v -55.6515494 87.6415457 69.7854831
v -55.6553016 87.3954613 69.7855126
v -56.8505163 86.9108200 68.5130550
v -55.9702631 88.1621458 69.3338719
v -55.5105765 88.0711806 69.7854163
v -55.6115010 87.8333372 69.7854468
v -56.0722533 87.8557033 69.3337474
v -56.7519630 88.3915466 68.5057278
v -55.4341931 88.3241231 69.7045982
v -55.1968492 88.4311235 69.7854149
v -56.3263015 89.1087900 68.5145854
v -55.1174393 88.6890299 69.6122935
v -54.7227533 89.0373534 69.4006241
v -54.8478106 88.6567123 69.7453460
v -55.4813617 89.7243882 68.5037279
v -54.4901999 88.7706680 69.6856938
v -54.2478721 88.6857031 69.7458937
v -54.8460931 89.9080363 68.5150041
v -53.9837703 88.8907686 69.4758139
v -53.7846898 88.4322759 69.7854126
v -53.8623231 88.6968954 69.6050906
v -53.8680522 89.8523702 68.5122248
v -53.5074544 88.4248918 69.6070678
v -53.4053971 88.1882046 69.6719677
v -53.0033038 89.4266882 68.5117383
v -53.4026242 87.9317410 69.7854033
v -52.9581788 87.4580123 69.4246163
v -53.3284335 87.6415124 69.7854708
v -53.3628747 87.1866342 69.7854840
v -52.0779262 87.8175471 68.5071758
v -53.1121858 86.9592547 69.4757140
v -52.9793630 87.2341821 69.4215340
v -53.4473773 86.9694558 69.7854839
v -52.1070323 86.9729961 68.5108804
v -53.2460285 86.6965641 69.4749550
v -53.5016403 86.3315141 69.4249998
v -53.7911410 86.5615184 69.7854546
v -52.4859053 86.0995369 68.5204503
v -54.1503982 86.1807924 69.5944881
v -53.9306557 86.3286894 69.6586515
v -53.3356108 85.3575618 68.5114122
v -56.9082411 87.6747705 68.5093716
v -52.3730403 88.6999520 68.5126374
v -55.3884885 88.0187542 68.4855000
v -54.4900367 88.5375481 68.4855000
v -55.3884885 86.9812397 68.4855000
v -53.5915115 88.0187542 68.4855000
v -54.4900367 86.4625191 68.4855000
v -53.5915115 86.9812397 68.4855000
v -55.3884885 88.0187542 69.4814823
v -54.4900367 88.5375481 69.4814823
v -55.3884885 86.9812397 69.4814823
v -54.4900367 86.4625191 69.4814823
v -53.5915115 86.9812397 69.4814823
v -53.5915115 88.0187542 69.4814823
f 4 1 2
f 3 4 2
f 5 4 3
f 11 4 5
f 6 11 5
f 11 6 7
f 8 11 7
f 9 11 8
f 10 11 9
f 16 13 14
f 16 14 15
f 18 16 15
f 18 15 17
f 17 19 18
f 29 20 21
f 29 21 22
f 29 22 23
f 29 23 24
f 29 24 25
f 29 25 26
f 29 26 27
f 29 27 28
f 29 28 30
f 40 29 30
f 40 30 31
f 40 31 32
f 40 32 33
f 40 33 34
f 40 34 35
f 40 35 36
f 40 36 37
f 40 37 38
f 40 38 39
f 40 39 41
f 52 41 42
f 52 42 43
f 52 40 41
f 52 43 44
f 52 44 45
f 52 45 46
f 52 46 47
f 52 47 48
f 52 48 49
f 52 49 50
f 52 50 51
f 52 51 53
f 66 52 53
f 66 53 54
f 66 54 55
f 66 55 56
f 66 56 57
f 66 57 58
f 66 58 59
f 66 59 60
f 66 60 61
f 66 61 62
f 66 62 63
f 66 63 64
f 66 64 65
f 66 65 67
f 82 66 67
f 82 67 68
f 82 68 69
f 82 69 70
f 82 70 71
f 72 73 74
f 82 71 74
f 73 82 74
f 75 84 72
f 76 84 75
f 84 76 77
f 84 77 78
f 79 84 78
f 80 84 79
f 507 82 73
f 81 84 80
f 83 84 81
f 100 82 507
f 85 91 83
f 86 91 85
f 91 86 87
f 91 87 88
f 91 88 89
f 91 89 90
f 91 90 92
f 102 92 93
f 102 91 92
f 102 93 94
f 102 94 95
f 96 102 95
f 97 102 96
f 98 102 97
f 99 102 98
f 101 102 99
f 118 100 506
f 103 102 101
f 110 102 103
f 110 103 104
f 113 118 506
f 110 104 105
f 110 105 106
f 110 106 107
f 108 110 107
f 109 110 108
f 111 110 109
f 488 110 111
f 112 488 111
f 114 488 112
f 488 114 115
f 488 115 116
f 488 116 117
f 488 117 119
f 138 118 113
f 488 119 120
f 121 488 120
f 122 138 113
f 123 488 121
f 487 488 123
f 124 487 123
f 125 487 124
f 487 125 126
f 487 126 127
f 487 127 128
f 487 128 129
f 487 129 130
f 487 130 131
f 133 487 131
f 134 487 133
f 135 487 134
f 149 135 136
f 149 487 135
f 149 136 137
f 149 137 139
f 152 138 132
f 149 139 140
f 149 140 141
f 149 141 142
f 143 149 142
f 144 149 143
f 145 149 144
f 149 145 146
f 149 146 147
f 149 147 148
f 149 148 150
f 163 150 151
f 163 149 150
f 163 151 153
f 163 153 154
f 155 163 154
f 156 163 155
f 163 156 157
f 163 157 158
f 163 158 159
f 163 159 160
f 163 160 162
f 163 162 164
f 29 164 20
f 29 163 164
f 91 84 83
f 84 73 72
f 507 506 100
f 122 132 138
f 165 166 161
f 505 166 165
f 168 505 167
f 169 168 167
f 172 170 171
f 173 172 171
f 478 502 175
f 177 478 175
f 176 177 175
f 178 177 176
f 501 178 176
f 180 178 501
f 180 501 179
f 184 182 183
f 184 183 498
f 185 184 498
f 187 185 498
f 187 498 186
f 187 186 497
f 188 187 497
f 496 188 497
f 189 188 496
f 190 189 496
f 194 191 192
f 194 192 493
f 194 493 193
f 196 193 195
f 492 196 195
f 197 492 491
f 200 491 198
f 200 197 491
f 199 200 198
f 201 200 199
f 201 199 522
f 203 201 522
f 203 522 202
f 204 203 202
f 457 204 205
f 454 457 205
f 454 205 206
f 208 454 206
f 208 206 207
f 208 207 209
f 211 209 210
f 214 211 210
f 214 210 212
f 214 212 213
f 215 214 213
f 521 215 213
f 215 521 216
f 217 215 216
f 217 216 218
f 220 217 218
f 220 218 219
f 222 519 518
f 222 518 221
f 224 221 223
f 224 223 517
f 225 516 515
f 225 515 514
f 227 225 514
f 226 227 514
f 229 227 226
f 229 226 228
f 229 228 512
f 230 229 512
f 231 230 512
f 234 231 232
f 234 232 233
f 236 233 511
f 236 511 235
f 237 236 235
f 238 237 510
f 239 238 510
f 434 239 240
f 241 434 240
f 245 242 508
f 243 245 508
f 244 245 243
f 248 244 246
f 247 248 246
f 250 248 247
f 249 250 247
f 252 250 249
f 251 252 249
f 254 252 251
f 253 254 251
f 255 254 253
f 535 255 253
f 257 255 535
f 257 535 256
f 258 257 256
f 258 256 534
f 260 258 534
f 260 534 532
f 260 532 259
f 262 260 259
f 262 259 261
f 263 262 261
f 265 263 261
f 265 261 264
f 265 264 531
f 427 531 266
f 427 266 267
f 270 267 268
f 269 270 268
f 272 270 269
f 271 272 269
f 273 272 271
f 273 271 529
f 422 273 529
f 422 529 528
f 275 528 274
f 275 274 527
f 277 275 527
f 277 527 276
f 278 277 276
f 278 276 279
f 281 278 279
f 281 279 280
f 282 281 280
f 525 282 280
f 408 282 525
f 524 408 525
f 284 408 524
f 284 524 283
f 286 283 285
f 286 284 283
f 287 286 285
f 289 287 288
f 290 289 288
f 290 288 291
f 292 290 291
f 295 292 291
f 295 291 293
f 295 293 294
f 407 294 523
f 407 523 296
f 300 297 298
f 300 298 299
f 302 300 299
f 302 299 301
f 406 302 301
f 406 301 303
f 305 406 303
f 305 303 304
f 307 305 304
f 307 304 306
f 405 307 306
f 404 306 308
f 404 405 306
f 310 404 308
f 309 310 308
f 350 310 309
f 108 107 108
f 107 107 106
f 108 107 107
f 108 109 108
f 311 109 108
f 107 106 106
f 311 111 109
f 111 111 311
f 106 105 106
f 106 105 557
f 105 104 557
f 111 112 111
f 112 112 111
f 105 104 104
f 104 103 104
f 312 114 112
f 112 114 112
f 104 103 103
f 103 101 103
f 312 115 114
f 115 115 312
f 103 101 101
f 552 116 115
f 115 116 115
f 101 99 101
f 101 99 313
f 552 117 116
f 314 117 552
f 99 98 313
f 313 98 98
f 314 119 117
f 119 119 314
f 98 97 315
f 98 97 98
f 119 120 119
f 120 120 119
f 315 96 96
f 97 96 315
f 120 121 120
f 553 121 120
f 96 95 96
f 96 95 316
f 553 123 121
f 317 123 553
f 95 94 316
f 316 94 94
f 317 124 123
f 124 124 317
f 94 93 94
f 94 93 318
f 124 125 124
f 548 125 124
f 93 92 318
f 318 92 92
f 548 126 125
f 319 126 548
f 92 90 92
f 92 90 90
f 319 127 126
f 127 127 319
f 90 89 90
f 90 89 320
f 127 128 127
f 128 128 127
f 89 88 320
f 320 88 88
f 128 129 128
f 549 129 128
f 88 87 88
f 88 87 87
f 549 130 129
f 87 86 87
f 87 86 321
f 549 131 130
f 131 131 130
f 86 85 321
f 321 85 85
f 131 133 131
f 545 133 131
f 85 322 85
f 85 83 322
f 545 134 133
f 323 134 545
f 322 81 81
f 83 81 322
f 135 135 323
f 323 135 134
f 81 80 81
f 81 80 324
f 135 136 135
f 136 136 135
f 80 79 324
f 324 79 79
f 325 137 136
f 136 137 136
f 79 78 326
f 79 78 79
f 327 139 325
f 325 139 137
f 78 77 326
f 326 77 77
f 140 140 327
f 327 140 139
f 77 76 77
f 77 76 76
f 328 141 140
f 140 141 140
f 76 75 76
f 76 75 75
f 142 142 328
f 328 142 141
f 75 72 567
f 75 72 75
f 143 143 142
f 142 143 142
f 72 74 567
f 72 74 74
f 329 144 143
f 143 144 143
f 74 71 71
f 74 71 74
f 145 145 329
f 329 145 144
f 70 70 71
f 71 70 71
f 145 146 145
f 145 146 146
f 70 330 70
f 69 330 70
f 146 147 146
f 146 147 147
f 69 68 330
f 68 68 69
f 147 331 148
f 147 331 147
f 68 67 68
f 67 67 68
f 148 150 150
f 331 150 148
f 67 332 67
f 65 332 67
f 150 151 150
f 150 151 151
f 65 64 332
f 64 64 332
f 151 153 153
f 151 153 151
f 64 333 64
f 63 333 64
f 153 334 154
f 153 334 153
f 63 573 333
f 62 573 63
f 334 155 154
f 334 155 155
f 62 61 573
f 61 61 62
f 155 335 156
f 155 335 155
f 61 60 61
f 60 60 61
f 335 157 156
f 335 157 157
f 60 59 60
f 59 336 60
f 157 158 157
f 157 537 158
f 59 58 336
f 158 159 159
f 537 159 158
f 57 57 58
f 58 57 336
f 159 160 159
f 159 337 160
f 57 56 57
f 56 575 57
f 337 162 160
f 337 162 162
f 55 338 56
f 56 338 575
f 162 164 162
f 162 164 164
f 55 54 338
f 54 54 338
f 164 339 164
f 164 339 20
f 54 53 54
f 53 53 54
f 20 21 21
f 339 21 20
f 53 340 53
f 51 340 53
f 21 22 22
f 21 22 21
f 51 341 340
f 22 342 22
f 22 342 23
f 51 50 341
f 50 50 341
f 342 24 23
f 342 24 24
f 49 343 50
f 50 343 50
f 24 344 25
f 24 344 24
f 48 576 49
f 49 576 343
f 25 26 26
f 344 26 25
f 47 47 48
f 48 47 576
f 26 345 27
f 26 345 26
f 47 46 47
f 46 46 47
f 27 28 28
f 345 28 27
f 45 346 46
f 46 346 46
f 28 347 28
f 28 347 30
f 44 580 45
f 45 580 346
f 347 31 30
f 347 31 31
f 43 43 44
f 44 43 580
f 31 32 31
f 31 32 32
f 42 348 43
f 43 348 43
f 32 33 32
f 32 33 33
f 33 34 33
f 42 41 348
f 39 41 41
f 41 41 42
f 33 584 34
f 39 39 41
f 38 39 39
f 584 35 34
f 34 35 35
f 38 349 39
f 35 36 36
f 35 36 35
f 36 37 37
f 37 37 38
f 38 37 349
f 36 37 36
f 351 352 350
f 354 352 351
f 353 354 351
f 356 354 353
f 355 356 353
f 359 355 357
f 358 359 357
f 360 359 358
f 360 358 390
f 403 360 390
f 362 403 390
f 364 363 361
f 364 363 364
f 365 364 364
f 402 365 364
f 366 367 367
f 367 368 367
f 367 369 368
f 369 370 368
f 371 372 370
f 372 373 370
f 374 370 373
f 1 375 1
f 1 375 374
f 374 375 370
f 4 11 1
f 1 11 375
f 10 376 11
f 12 376 10
f 13 383 12
f 16 384 13
f 16 385 384
f 362 389 361
f 350 393 351
f 308 380 309
f 304 396 306
f 301 397 303
f 523 399 296
f 376 12 383
f 383 13 384
f 385 16 18
f 19 385 18
f 387 385 19
f 19 386 387
f 388 386 402
f 387 386 388
f 361 388 364
f 364 388 402
f 361 389 388
f 362 390 389
f 389 390 377
f 377 390 358
f 357 378 358
f 358 378 377
f 378 357 391
f 355 391 357
f 392 355 353
f 391 355 392
f 379 392 353
f 353 351 379
f 379 351 393
f 309 393 350
f 380 393 309
f 308 394 380
f 394 306 395
f 308 306 394
f 396 395 306
f 303 396 304
f 396 303 397
f 398 397 301
f 299 398 301
f 398 299 381
f 299 298 381
f 298 382 381
f 297 382 298
f 296 399 297
f 297 399 382
f 366 400 401
f 366 401 17
f 366 17 15
f 366 15 14
f 366 14 13
f 366 13 12
f 366 12 10
f 2 1 1
f 2 1 374
f 3 374 373
f 3 2 374
f 5 373 372
f 5 3 373
f 6 372 371
f 6 5 372
f 7 371 370
f 7 370 369
f 7 6 371
f 9 367 366
f 9 366 10
f 8 369 367
f 8 7 369
f 8 367 9
f 19 17 401
f 386 19 401
f 402 401 400
f 402 386 401
f 400 365 402
f 400 363 364
f 400 364 365
f 361 363 400
f 400 362 361
f 362 400 403
f 366 403 400
f 370 403 368
f 375 403 370
f 11 403 375
f 383 359 376
f 383 355 359
f 384 356 383
f 385 350 352
f 387 350 385
f 378 305 377
f 393 297 379
f 395 295 394
f 398 289 397
f 381 286 398
f 367 403 366
f 368 403 367
f 360 403 11
f 11 376 360
f 360 376 359
f 356 355 383
f 356 384 354
f 352 354 385
f 385 354 384
f 350 387 310
f 310 387 388
f 388 404 310
f 388 389 404
f 389 405 404
f 307 389 377
f 405 389 307
f 307 377 305
f 378 406 305
f 391 406 378
f 302 406 391
f 392 302 391
f 300 302 392
f 379 300 392
f 297 300 379
f 297 393 296
f 393 407 296
f 380 407 393
f 407 380 394
f 407 394 294
f 294 394 295
f 295 395 292
f 395 396 292
f 292 396 290
f 396 397 290
f 290 397 289
f 289 398 287
f 286 287 398
f 286 381 284
f 382 284 381
f 382 408 284
f 382 399 408
f 408 399 282
f 409 282 399
f 428 265 531
f 429 262 263
f 432 252 254
f 414 248 250
f 533 241 242
f 417 434 416
f 417 238 239
f 419 236 418
f 436 234 435
f 282 409 281
f 281 409 410
f 281 410 278
f 410 420 278
f 278 420 277
f 411 275 420
f 420 275 277
f 411 421 275
f 275 421 528
f 421 422 528
f 421 423 422
f 422 423 273
f 272 273 423
f 423 424 272
f 272 424 270
f 424 425 270
f 270 425 267
f 426 267 425
f 426 427 267
f 426 428 427
f 427 428 531
f 526 265 428
f 265 526 263
f 429 263 526
f 262 429 412
f 262 412 260
f 412 430 260
f 260 430 258
f 430 431 258
f 258 431 257
f 255 257 413
f 413 257 431
f 254 255 413
f 413 432 254
f 530 252 432
f 252 530 250
f 250 530 414
f 248 414 244
f 244 414 415
f 244 415 245
f 415 433 245
f 245 433 242
f 433 533 242
f 416 434 533
f 533 434 241
f 239 434 417
f 418 238 417
f 238 418 237
f 236 237 418
f 236 419 233
f 234 233 435
f 435 233 419
f 436 231 234
f 439 219 519
f 449 217 220
f 452 211 214
f 440 203 204
f 461 191 194
f 231 436 230
f 436 444 230
f 230 444 229
f 229 444 437
f 229 437 227
f 437 509 227
f 227 509 225
f 445 225 509
f 445 516 225
f 445 446 516
f 516 446 517
f 517 446 224
f 446 447 224
f 447 221 224
f 221 448 222
f 447 448 221
f 448 438 222
f 222 438 519
f 439 519 438
f 219 439 220
f 449 220 439
f 449 513 217
f 215 217 513
f 513 450 215
f 450 451 215
f 215 451 214
f 451 452 214
f 211 452 209
f 453 209 452
f 209 453 208
f 455 454 453
f 453 454 208
f 455 457 454
f 456 457 455
f 456 440 457
f 457 440 204
f 440 520 203
f 203 520 201
f 201 458 200
f 520 458 201
f 200 458 197
f 197 458 441
f 441 492 197
f 441 459 492
f 492 459 196
f 459 460 196
f 442 193 460
f 460 193 196
f 193 442 194
f 442 461 194
f 191 461 494
f 462 494 461
f 462 190 494
f 189 190 462
f 189 462 443
f 443 188 189
f 472 185 187
f 465 181 182
f 475 180 179
f 477 478 177
f 467 505 168
f 483 82 100
f 469 163 486
f 489 102 110
f 471 84 91
f 490 73 84
f 188 443 463
f 188 463 187
f 463 472 187
f 184 472 464
f 185 472 184
f 184 464 465
f 184 465 182
f 465 473 181
f 473 474 181
f 475 474 473
f 474 475 179
f 476 180 475
f 180 476 178
f 178 495 177
f 476 495 178
f 495 477 177
f 502 478 477
f 477 479 502
f 502 479 174
f 479 480 174
f 174 480 173
f 481 172 480
f 480 172 173
f 481 466 172
f 172 466 170
f 170 466 499
f 499 169 170
f 169 499 168
f 467 168 499
f 505 500 166
f 467 500 505
f 166 500 161
f 468 161 500
f 161 468 152
f 468 503 152
f 152 503 138
f 118 503 482
f 138 503 118
f 100 482 483
f 118 482 100
f 483 504 82
f 484 66 504
f 504 66 82
f 52 66 484
f 485 52 484
f 40 52 485
f 486 40 485
f 29 40 486
f 29 486 163
f 149 163 469
f 470 149 469
f 470 487 149
f 489 488 470
f 470 488 487
f 488 489 110
f 102 489 471
f 91 102 471
f 84 471 490
f 492 472 491
f 498 479 186
f 182 481 183
f 179 467 474
f 501 467 179
f 175 468 176
f 171 483 173
f 165 486 505
f 161 469 486
f 199 198 443
f 443 198 463
f 198 491 463
f 463 491 472
f 464 472 195
f 195 472 492
f 464 195 465
f 195 193 465
f 465 493 473
f 193 493 465
f 473 493 192
f 473 192 475
f 191 475 192
f 475 191 494
f 475 494 476
f 476 494 190
f 496 495 190
f 190 495 476
f 477 496 497
f 495 496 477
f 477 497 186
f 477 186 479
f 479 498 480
f 480 498 183
f 480 183 481
f 481 182 466
f 182 181 466
f 466 181 499
f 474 499 181
f 499 474 467
f 501 500 467
f 500 501 176
f 500 176 468
f 468 175 503
f 502 503 175
f 174 503 502
f 482 503 174
f 174 173 482
f 483 482 173
f 170 504 171
f 171 504 483
f 169 484 170
f 170 484 504
f 169 167 484
f 484 167 485
f 505 485 167
f 485 505 486
f 165 161 486
f 152 469 161
f 469 152 132
f 469 132 470
f 132 122 470
f 489 122 113
f 470 122 489
f 113 506 489
f 489 506 471
f 471 506 507
f 471 507 490
f 490 507 73
f 508 436 243
f 240 437 241
f 510 509 239
f 233 447 511
f 512 438 231
f 514 513 226
f 517 451 516
f 216 440 218
f 212 458 213
f 207 460 209
f 204 461 205
f 244 243 436
f 436 508 444
f 444 508 242
f 242 241 444
f 444 241 437
f 239 509 240
f 240 509 437
f 509 510 445
f 445 510 237
f 237 235 445
f 445 235 446
f 235 511 446
f 446 511 447
f 233 232 447
f 447 232 448
f 448 231 438
f 232 231 448
f 439 438 512
f 439 512 228
f 439 228 449
f 228 226 449
f 226 513 449
f 450 514 515
f 513 514 450
f 450 515 451
f 516 451 515
f 451 517 452
f 452 517 223
f 452 223 453
f 223 221 453
f 221 518 453
f 455 518 519
f 453 518 455
f 455 519 219
f 455 219 456
f 456 218 440
f 219 218 456
f 216 520 440
f 216 521 520
f 213 520 521
f 520 213 458
f 458 212 441
f 212 210 441
f 441 210 459
f 459 210 209
f 459 209 460
f 460 207 442
f 207 206 442
f 206 205 442
f 442 205 461
f 204 202 461
f 461 202 462
f 202 522 462
f 462 522 443
f 443 522 199
f 523 409 399
f 276 428 279
f 269 431 271
f 266 432 267
f 261 414 264
f 259 414 261
f 535 417 416
f 249 418 251
f 249 419 418
f 244 435 246
f 244 436 435
f 409 523 294
f 410 294 293
f 409 294 410
f 293 291 410
f 410 291 420
f 288 420 291
f 420 288 411
f 288 287 411
f 411 287 421
f 287 285 421
f 421 285 423
f 285 283 423
f 283 524 423
f 423 524 424
f 424 524 525
f 425 525 280
f 424 525 425
f 280 426 425
f 280 279 426
f 426 279 428
f 276 526 428
f 276 527 526
f 526 527 429
f 274 429 527
f 528 429 274
f 412 429 528
f 412 528 529
f 412 529 430
f 430 529 271
f 430 271 431
f 413 269 268
f 431 269 413
f 267 413 268
f 413 267 432
f 266 530 432
f 531 530 266
f 530 531 264
f 414 530 264
f 414 259 415
f 259 532 415
f 433 532 534
f 415 532 433
f 534 533 433
f 533 534 256
f 533 256 416
f 416 256 535
f 417 535 253
f 417 251 418
f 253 251 417
f 249 247 419
f 419 247 435
f 247 246 435
f 537 157 335
f 538 537 335
f 536 339 164
f 538 155 334
f 538 335 155
f 538 153 151
f 538 334 153
f 541 150 331
f 541 151 150
f 541 538 151
f 537 542 539
f 537 539 536
f 541 147 146
f 541 331 147
f 540 145 329
f 540 146 145
f 540 541 146
f 538 542 537
f 540 143 142
f 540 329 143
f 544 328 140
f 544 142 328
f 544 540 142
f 542 538 541
f 544 327 325
f 544 140 327
f 541 546 542
f 325 136 135
f 546 541 540
f 543 323 545
f 543 135 323
f 543 325 135
f 545 131 549
f 546 540 544
f 547 127 319
f 547 128 127
f 547 549 128
f 550 544 325
f 550 546 544
f 548 547 319
f 543 550 325
f 554 317 553
f 554 124 317
f 554 548 124
f 550 543 545
f 553 120 119
f 549 550 545
f 551 314 552
f 551 119 314
f 551 553 119
f 589 547 548
f 589 549 547
f 589 550 549
f 552 115 312
f 556 112 111
f 556 312 112
f 556 552 312
f 554 555 589
f 554 589 548
f 556 311 108
f 556 111 311
f 555 554 553
f 556 107 106
f 556 108 107
f 551 558 555
f 551 555 553
f 557 556 106
f 558 551 552
f 559 103 101
f 559 104 103
f 559 557 104
f 556 558 552
f 559 313 98
f 559 101 313
f 561 315 96
f 561 98 315
f 561 559 98
f 561 316 94
f 561 96 316
f 557 562 558
f 557 558 556
f 560 318 92
f 560 94 318
f 560 561 94
f 559 562 557
f 563 92 90
f 563 560 92
f 563 90 320
f 563 88 87
f 563 320 88
f 561 562 559
f 561 565 562
f 564 563 87
f 564 321 85
f 564 87 321
f 564 322 81
f 564 85 322
f 560 565 561
f 566 324 79
f 566 81 324
f 566 564 81
f 563 565 560
f 568 566 79
f 568 326 77
f 568 79 326
f 563 569 565
f 568 76 75
f 568 77 76
f 569 563 564
f 567 568 75
f 570 567 74
f 570 71 70
f 570 74 71
f 569 564 566
f 570 330 68
f 570 70 330
f 568 572 569
f 568 569 566
f 571 570 68
f 571 67 332
f 571 68 67
f 571 64 333
f 571 332 64
f 567 572 568
f 573 571 333
f 572 567 570
f 573 60 336
f 573 61 60
f 570 590 572
f 590 570 571
f 575 336 57
f 574 575 338
f 574 54 53
f 574 338 54
f 590 571 573
f 574 340 341
f 574 53 340
f 573 577 590
f 579 574 341
f 579 50 343
f 579 341 50
f 577 573 336
f 577 336 575
f 576 579 343
f 578 46 346
f 578 47 46
f 578 576 47
f 574 577 575
f 574 581 577
f 580 578 346
f 581 579 576
f 582 580 43
f 582 348 41
f 582 43 348
f 578 581 576
f 579 581 574
f 349 582 41
f 349 41 39
f 585 578 580
f 349 37 36
f 582 585 580
f 585 581 578
f 583 349 36
f 583 35 584
f 583 36 35
f 584 33 32
f 585 582 349
f 587 31 347
f 587 32 31
f 587 584 32
f 587 28 345
f 587 347 28
f 586 587 345
f 586 26 344
f 586 345 26
f 583 585 349
f 583 588 585
f 586 24 342
f 586 344 24
f 588 584 587
f 588 583 584
f 536 586 342
f 536 22 21
f 536 342 22
f 588 587 586
f 586 539 588
f 539 586 536
f 536 21 339
f 536 162 337
f 536 164 162
f 537 337 159
f 537 536 337
f 591 589 555
f 591 555 558
f 591 558 562
f 592 562 565
f 592 565 569
f 592 591 562
f 572 592 569
f 593 546 550
f 593 589 591
f 593 550 589
f 594 592 572
f 542 546 593
f 590 594 572
f 595 542 593
f 577 594 590
f 539 542 595
f 577 596 594
f 581 596 577
f 588 539 595
f 588 595 596
f 585 596 581
f 585 588 596
f 591 592 597
f 597 592 598
f 593 591 599
f 599 591 597
f 595 593 600
f 600 593 599
f 596 595 601
f 601 595 600
f 594 596 602
f 602 596 601
f 592 594 598
f 598 594 602
f 600 598 602
f 600 602 601
f 599 597 598
f 599 598 600
