# Render LOD; unchanged CAD body-local coordinates in mm
v -32.9048273 166.5096436 115.8839395
v -33.5396069 166.6118650 116.9999787
v -33.4290372 166.5738504 115.8430427
v -34.0701855 166.9457479 116.9999786
v -33.8277627 166.7619559 115.8120090
v -34.4106236 167.5161867 116.9999787
v -34.3528237 167.3674544 115.7535437
v -34.4924886 168.0748125 116.9999786
v -34.4830684 167.8651257 115.7173704
v -34.3685607 168.5874799 116.9999787
v -34.4588414 168.2950157 115.6887545
v -34.1125523 168.9929973 116.9999787
v -34.3148521 168.6992676 115.6566527
v -34.0297870 169.0777333 115.6258956
v -33.5784343 169.3864522 116.9999786
v -33.6666096 169.3298618 115.5915693
v -32.9181696 169.4892008 116.9999787
v -32.9999588 169.4840242 116.2050095
v -32.9929027 169.4899310 115.6776013
v -32.4844025 169.3954219 116.9999786
v -32.7598929 169.4697374 116.1878248
v -32.7708361 169.4714702 115.5256776
v -32.4709845 169.3962522 115.6328352
v -32.1263686 169.2061508 116.9999787
v -32.3377639 169.3339779 116.1568698
v -32.2984403 169.3178156 115.4948375
v -31.8106947 168.8963988 116.9999786
v -31.9781860 169.0834640 116.1256066
v -31.9183440 169.0238722 115.4585410
v -31.7875118 168.8613032 116.1061791
v -31.5594309 168.4040986 116.9999788
v -31.5481661 168.3297481 115.4030183
v -31.5228497 167.7790990 116.9999786
v -31.5221185 168.1840389 116.0526016
v -31.5556106 167.6387887 115.4815088
v -31.5158125 167.8350778 115.3644524
v -31.6901692 167.2911788 116.9999786
v -31.7250328 167.2268608 115.4520470
v -31.7399931 167.2102563 115.9828794
v -32.0331504 166.8582567 116.9999788
v -31.8173446 167.0950044 115.3079159
v -32.0145695 166.8814411 115.9532103
v -32.2739159 166.6997339 115.3971278
v -32.5169440 166.5912278 116.9999787
v -32.7189334 166.5355638 115.3632822
v -32.4009491 166.6366458 115.9169881
v -33.0292552 166.5066729 116.9999787
v -32.5585850 166.5794767 115.2428182
v -33.3040278 166.5361165 115.3174202
v -33.7994900 166.7436356 115.2844223
v -34.3269760 167.3103108 115.2245887
v -33.9709227 166.8625722 115.1410387
v -34.4777300 167.8200792 115.1882456
v -34.4416372 167.6028631 115.0792338
v -34.4853984 168.1079541 115.0399365
v -34.0607047 169.0447461 115.0935800
v -34.2173636 168.8686150 114.9851816
v -33.7009061 169.3160580 115.0642057
v -33.8191792 169.2436738 114.9413683
v -33.2536016 169.4674140 115.0309394
v -33.3868834 169.4401336 114.9078130
v -32.8144205 169.4775700 114.9996541
v -32.9583368 169.4886643 114.8796641
v -32.3283285 169.3331267 114.9588722
v -32.5197947 169.4096179 114.8474212
v -31.7807444 168.8582120 114.7824197
v -31.5943594 168.4863174 114.7516026
v -31.5389032 168.2700242 114.8645744
v -31.5191113 167.8123778 114.8292165
v -31.5068988 167.9997263 114.7175223
v -31.5742575 167.5732596 114.6852240
v -31.7522882 167.1906200 114.6545146
v -32.2754080 166.6989710 114.7346338
v -32.5941694 166.5671174 114.5781144
v -33.9033025 166.8078371 114.6078203
v -33.7006033 166.6842972 114.5010563
v -34.0693610 166.9644918 114.4674182
v -34.3196283 167.3137035 114.4356103
v -34.4735225 167.7574869 114.5303274
v -34.4392913 167.6240518 114.4102156
v -34.4446830 168.3874644 114.4829296
v -34.2083572 168.8704325 114.4495266
v -34.3534813 168.6206434 114.3407876
v -33.8155169 169.2540278 114.4116314
v -34.0668418 169.0484900 114.3007936
v -33.6225321 169.3525986 114.2623697
v -33.1950860 169.4764131 114.2309737
v -32.5556251 169.4284919 114.3199269
v -32.7549948 169.4689464 114.2004749
v -31.8264837 168.9270049 114.2501530
v -32.0510044 169.1561234 114.1504562
v -31.7075278 168.7396468 114.1071482
v -31.5415940 167.6691310 114.1563968
v -31.5223225 168.2316255 114.0693944
v -31.7613116 167.1734116 114.1226992
v -31.6458399 167.3645990 114.0048491
v -31.9712668 166.9231592 113.9669598
v -32.5317959 166.5863132 113.9198817
v -33.2960904 166.5340859 113.9984255
v -33.0147199 166.5085941 113.8850345
v -34.3251700 167.3069434 113.8999215
v -33.9633352 166.8561797 113.8169225
v -34.4789423 167.8260562 113.8659476
v -34.4954714 168.0315385 113.7179837
v -34.3981452 168.5079562 113.6840206
v -34.1442860 168.9631636 113.6514528
v -33.7238718 169.3013667 113.7414357
v -33.8816210 169.1984161 113.6239865
v -33.2103856 169.4811501 113.6973449
v -32.9668201 169.4961415 113.5497730
v -32.6488293 169.4473046 113.6621498
v -32.4027678 169.3642896 113.5119295
v -32.0361564 169.1350132 113.6113927
v -31.7024502 168.7433277 113.5712797
v -31.5081690 167.8898063 113.5145472
v -31.5324296 167.7469338 113.3714057
v -31.6548677 167.3609583 113.4751954
v -32.4374135 166.6210569 113.3968520
v -32.4460834 166.6181004 113.2667578
v -32.8174830 166.5239759 113.3689216
v -32.8663016 166.5180410 113.2351154
v -33.1871643 166.5229642 113.3430357
v -33.6027601 166.6382409 113.3124206
v -33.8987587 166.8187206 113.2861950
v -34.2058268 167.1154986 113.2531050
v -33.8832161 166.8008631 113.1572151
v -34.4638468 167.7271938 113.0804283
v -34.4761665 168.2430304 113.0384046
v -33.9078944 169.1804645 113.0940095
v -34.0709396 169.0442125 112.9806947
v -33.5590892 169.3785262 113.0659639
v -33.6262761 169.3511710 112.9383705
v -33.1682172 169.4796382 113.0373168
v -33.2522458 169.4661875 112.9115594
v -32.6147417 169.4451267 112.9942521
v -32.8765646 169.4845724 112.8839773
v -32.1216173 169.2025659 112.9587790
v -31.6325089 168.6053117 112.8988596
v -31.9615822 169.0762209 112.8156493
v -31.7197771 168.7522693 112.7845827
v -31.5130248 168.0805889 112.8657025
v -31.5616499 168.3845635 112.7565827
v -31.6664296 167.3226566 112.8048330
v -31.5106660 167.8653937 112.7225718
v -31.9977737 166.8987616 112.7698314
v -31.8407883 167.0553396 112.6601507
v -32.3567325 166.6569093 112.7410987
v -32.6744034 166.5451094 112.5870236
v -33.0919515 166.5122475 112.6868310
v -33.0941401 166.5157095 112.5561776
v -33.6816175 166.6653829 112.6443907
v -34.2624677 167.2101597 112.5867440
v -34.4612415 167.6929482 112.5462189
v -34.4921671 167.9569277 112.4024376
v -34.4668471 168.2798301 112.5064596
v -34.3035259 168.7198166 112.4718423
v -34.4200491 168.4462923 112.3665038
v -33.8523277 169.2212411 112.4264609
v -34.1756492 168.9243573 112.3289794
v -33.3545116 169.4532462 112.3884700
v -33.1541457 169.4818322 112.2446020
v -32.8065322 169.4765162 112.3494835
v -32.0600542 169.1599915 112.2874563
v -32.2247382 169.2763182 112.1702215
v -31.7155803 168.7572314 112.2540866
v -31.5068358 167.9844865 112.0649789
v -31.5645836 167.6108747 112.0389052
v -31.6116464 167.4689479 112.1570232
v -31.7664204 167.1622205 112.1337084
v -32.1051193 166.8111200 112.1009396
v -31.8924198 167.0069859 111.9873065
v -32.4078529 166.6335470 112.0739672
v -32.1671366 166.7674763 111.9627217
v -32.7924547 166.5269758 112.0458318
v -32.4997441 166.5972355 111.9346841
v -33.1855334 166.5226327 112.0181320
v -32.9091227 166.5156174 111.9051463
v -33.5002548 166.6026396 111.9934852
v -33.8932523 166.8001218 111.9642727
v -33.3777838 166.5527471 111.8746692
v -33.7154200 166.6964645 111.8480218
v -34.2609378 167.2077466 111.9249487
v -34.4787304 167.8229423 111.8778554
v -34.3622218 167.3826634 111.7818510
v -34.4458951 168.3818012 111.8339810
v -34.4953503 168.0404478 111.7333924
v -34.2149524 168.8602986 111.7980887
v -34.3656466 168.5934276 111.6931058
v -33.6268301 169.3583751 111.7452408
v -33.9932623 169.1097068 111.6447027
v -33.0868199 169.4861140 111.7031819
v -33.3151098 169.4623673 111.5893711
v -32.6412489 169.4451544 111.6717275
v -32.7655209 169.4707101 111.5508393
v -32.3760165 169.3518949 111.5245975
v -31.8364062 168.9403064 111.6078540
v -31.6145167 168.5463147 111.4418543
v -31.5044413 167.9969123 111.4061631
v -31.6686266 167.3187039 111.4805883
v -31.9983036 166.8980560 111.4464267
v -32.5677586 166.5747995 111.3995331
v -32.7442210 166.5328873 111.2547177
v -33.1208130 166.5102995 111.3596519
v -33.0666337 166.5139489 111.2334241
v -33.5740452 166.6276251 111.3268901
v -33.5587928 166.6153234 111.1987265
v -34.0096684 166.8965962 111.2880560
v -34.3342756 167.3385886 111.2514348
v -34.4897236 167.8642213 111.2100851
v -34.4476837 167.6504593 111.0959220
v -34.4316904 168.4102869 111.1733770
v -34.0453405 169.0699995 111.1198632
v -34.2602958 168.8052597 111.0152362
v -33.5862860 169.3690386 111.0798833
v -33.9006127 169.1858598 110.9754243
v -33.1930126 169.4769690 111.0522965
v -33.1948637 169.4809281 110.9186729
v -32.4409861 169.3802776 110.9973553
v -32.7530549 169.4672683 110.8885266
v -32.4617125 169.3840595 110.8674058
v -31.9814513 169.0953283 110.9530333
v -32.1466965 169.2204506 110.8400318
v -31.5732212 168.4257995 110.9018847
v -31.7709593 168.8528110 110.8037427
v -31.5107776 168.0058654 110.8721954
v -31.5499537 168.3381966 110.7658975
v -31.5760309 167.5689864 110.8424736
v -31.7216406 167.2359329 110.8147007
v -31.5588909 167.6089368 110.7151921
v -31.9994896 166.8968311 110.7836162
v -32.3644746 166.6531557 110.7528293
v -32.1668686 166.7577560 110.6406432
v -32.7771203 166.5278079 110.7216945
v -32.6747970 166.5467186 110.5972556
v -33.1826248 166.5225058 110.6932882
v -33.6116664 166.6416234 110.6603298
v -33.5370074 166.6074535 110.5340956
v -34.0929045 166.9743864 110.6196433
v -34.4251376 167.5542893 110.5743751
v -34.3464307 167.3488615 110.4603896
v -34.4497073 168.3406041 110.5166554
v -34.4925531 167.9591267 110.4152000
v -34.2793091 168.7660887 110.4840922
v -34.4064352 168.4892751 110.3698564
v -34.2039113 168.8771172 110.3404800
v -33.9491468 169.1454322 110.3157021
v -33.4645125 169.4235835 110.4103765
v -33.6093261 169.3573506 110.2886245
v -32.8930843 169.4854063 110.3662568
v -33.2579144 169.4669530 110.2612212
v -32.4849244 169.3972707 110.3382186
v -32.8168888 169.4778863 110.2288010
v -32.3142544 169.3295793 110.1921844
v -31.6808029 168.6908524 110.2608921
v -31.5636932 168.3932717 110.1045915
v -31.5583083 167.6272985 110.1832178
v -31.5110534 167.9788266 110.0776858
v -31.8584783 167.0436567 110.1363171
v -31.6709901 167.3286026 110.0298520
v -32.1760796 166.7597952 110.1031888
v -32.4661086 166.6098386 109.9493836
v -33.0555590 166.5132044 110.0396277
v -30.9763359 169.8137257 116.9999788
v -30.5429724 169.1292696 116.9999786
v -30.3351544 168.4908637 116.9999786
v -31.8394484 170.4572265 116.9999787
v -30.3000000 168.0000236 116.9999786
v -30.3472430 167.4102002 116.9999786
v -32.8843799 170.7150320 116.9999787
v -30.7844129 166.4263881 116.9999786
v -33.9474279 170.5470030 116.9999786
v -31.5693758 165.6895406 116.9999785
v -34.8625302 169.9788525 116.9999786
v -32.5787974 165.3153219 116.9999786
v -35.4846630 169.1006531 116.9999787
v -33.6540431 165.3623712 116.9999786
v -35.7170640 168.0491920 116.9999787
v -34.5122874 165.7515567 116.9999787
v -35.5229978 166.9902892 116.9999786
v -35.0627413 166.2475405 116.9999786
v -30.3000000 168.0000236 119.2000626
v -30.3828927 168.6468014 119.3013664
v -30.8280354 169.6012935 119.2790761
v -31.0943707 169.9121157 119.2671222
v -33.1764875 170.6992826 119.2500755
v -35.4482125 169.1406515 119.2720611
v -35.6006388 168.7022639 119.3172036
v -35.6817025 168.2968549 119.2824461
v -35.6944545 167.9623618 119.3002060
v -35.6705508 167.6063751 119.2680617
v -34.6566796 165.8653801 119.2563937
v -34.0032156 165.4965230 119.2869176
v -32.4122979 165.3666140 119.2743293
v -31.7806076 165.5927410 119.2777493
v -31.3995266 165.8270354 119.2940596
v -31.0004959 166.1898067 119.3057093
v -30.5069995 166.9907708 119.3351604
v -30.3000824 167.9795108 119.2000626
v -30.3012360 167.9795108 119.2341863
v -30.4242294 167.9359544 119.5369363
v -30.3358432 167.9703515 119.3963209
v -30.3416136 168.3264516 119.3580346
v -30.3130027 168.2809493 119.2874133
v -30.6510729 167.9501651 119.6829138
v -30.5214444 168.1867788 119.6162674
v -30.7651064 168.4250446 119.6974114
v -30.4852782 168.9717026 119.2987706
v -30.6139655 168.5766250 119.6372715
v -30.5527291 169.0020812 119.4455721
v -30.4434971 168.5378599 119.4967335
v -30.6759307 168.8764719 119.6204585
v -30.6554033 169.3275530 119.3183261
v -30.7835215 169.2907745 119.5487528
v -30.9808628 169.0670288 119.6972954
v -30.9280819 169.6453877 119.4386808
v -30.9665901 169.3078666 119.6543560
v -31.0537802 169.6419145 119.5688218
v -31.1785603 169.9467624 119.3966223
v -31.4744398 169.7358315 119.6949426
v -31.3422451 169.8286088 119.6286385
v -31.4643915 170.2231784 119.2601711
v -31.4594665 170.0966235 119.5086567
v -31.5967113 170.2527478 119.4237084
v -31.8317084 170.4283535 119.3015579
v -31.7779873 170.1779468 119.6103080
v -32.2026019 170.5811625 119.2653888
v -32.0929433 170.3111518 119.6198947
v -32.0719218 170.4584340 119.4709243
v -32.3240581 170.5795821 119.3948771
v -32.6683604 170.6744446 119.3094140
v -32.6224715 170.3999281 119.6505197
v -32.1866000 170.1820563 119.6870667
v -32.6589133 170.5625666 119.5311511
v -33.0944414 170.6671648 119.3891828
v -33.5000970 170.6210964 119.3843930
v -32.7880734 170.2690450 119.6984649
v -33.2326571 170.5885047 119.5104101
v -33.2799250 170.4532942 119.6304549
v -33.6780890 170.4547405 119.5683553
v -33.7908208 170.5809546 119.2878372
v -33.6196642 170.2835221 119.6763984
v -33.9439018 170.4834834 119.4227831
v -34.2723032 170.3808005 119.2863408
v -34.0760204 170.2812737 119.5934586
v -34.4786780 170.2156406 119.4029276
v -34.6833972 170.1105444 119.2645945
v -34.3529390 170.1804110 119.5468628
v -34.0752627 170.0309829 119.6964754
v -34.9236199 169.8843757 119.3144049
v -34.7265741 169.9752627 119.4777763
v -34.4745248 169.9771789 119.6265041
v -34.7944942 169.7633284 119.5937881
v -34.5752457 169.6960232 119.6938825
v -35.1871661 169.5816909 119.2904168
v -35.0519478 169.6530142 119.4566964
v -35.0631840 169.2299799 119.6649856
v -35.1751363 169.3263331 119.5700300
v -35.4077155 169.1553119 119.3929202
v -35.4176098 168.9464317 119.5119453
v -35.5687122 168.4403300 119.5041689
v -35.3764138 168.7289642 119.6159132
v -35.6343465 168.1642418 119.4486827
v -35.4494245 168.2068119 119.6318879
v -35.5070583 167.8251177 119.5995294
v -35.2193618 168.6088726 119.6962984
v -35.6380964 167.7004527 119.4208154
v -35.6023014 167.2993793 119.2981752
v -35.5538410 167.4709360 119.4961495
v -35.3029064 167.8785393 119.6953199
v -35.4552263 167.0203921 119.4475041
v -35.4622798 166.8920799 119.2820454
v -35.4288755 167.2532726 119.5728703
v -35.2499493 166.6125347 119.4398669
v -35.2585321 167.2712901 119.6763342
v -35.2085071 166.4469140 119.2834507
v -35.1511205 166.7228811 119.6086919
v -35.0681328 166.3862901 119.4779453
v -34.9503291 166.1378334 119.2839146
v -34.5382775 166.3266022 119.6998949
v -34.8099618 166.0573818 119.4186056
v -34.8809746 166.6016884 119.6842142
v -34.7623658 166.1643413 119.5709913
v -34.4060408 165.7017315 119.3162518
v -34.3618720 166.0873110 119.6807075
v -34.5690781 166.0977998 119.6301500
v -34.1613638 165.6056296 119.4072447
v -34.4291019 165.8355846 119.5192818
v -34.0292303 165.7905306 119.6457372
v -33.6784317 165.3844435 119.2558135
v -33.7064649 165.4416799 119.4274357
v -33.8254825 165.5547679 119.5351598
v -33.2224999 165.3428798 119.3915658
v -33.5827066 165.7840214 119.6972456
v -33.3552081 165.4361360 119.5207949
v -33.5330169 165.5675162 119.6144508
v -33.1057409 165.2977295 119.2541954
v -32.9336494 165.3773565 119.4796734
v -33.1539034 165.5568829 119.6399043
v -33.1458980 165.6927815 119.6899787
v -32.6026945 165.3360252 119.3231064
v -32.6666658 165.4598620 119.5555501
v -32.0791419 165.4692475 119.3162828
v -32.3384368 165.5113848 119.5369818
v -32.6458355 165.6110422 119.6570765
v -32.1760976 165.5033906 119.4721204
v -32.0848756 165.7094053 119.6296493
v -31.8007942 165.7710302 119.5801988
v -32.2432869 165.8349327 119.6967855
v -31.6063338 165.7531674 119.4461210
v -31.3843264 166.0287389 119.5643196
v -31.5682378 166.0703632 119.6617754
v -31.2319677 166.0426028 119.4508823
v -30.9314643 166.3896936 119.4792510
v -31.1409049 166.3175777 119.6021310
v -31.3286077 166.4029057 119.6938922
v -30.6727502 166.6271345 119.2605380
v -30.7132554 166.6347768 119.4031202
v -30.8222237 166.6236956 119.5352114
v -30.9035631 166.7614624 119.6455209
v -30.6506278 166.9624732 119.5462148
v -30.3724567 167.3688493 119.2502404
v -30.8667790 167.1332797 119.6958322
v -30.5683985 167.3425394 119.5954367
v -30.4102717 167.4590120 119.4457972
v -30.3268496 167.6468336 119.3037161
v -30.5949587 167.6685585 119.6502063
v -31.7147860 168.7420239 119.7000000
v -32.9999588 169.4840242 119.7000000
v -31.7147860 167.2580232 119.7000000
v -34.2852140 168.7420239 119.7000000
v -32.9999588 166.5160229 119.7000000
v -34.2852140 167.2580232 119.7000000
v -31.7147860 168.7420239 117.9774853
v -32.9999588 169.4840242 117.9774853
v -31.7147860 167.2580232 117.9774853
v -32.9999588 166.5160229 117.9774853
v -34.2852140 167.2580232 117.9774853
v -34.2852140 168.7420239 117.9774853
v -33.5087906 166.5978682 110.0034491
v -33.5324511 166.6099110 109.8715086
v -33.9088781 166.8203416 109.8422916
v -34.3337715 167.3377098 109.9272089
v -34.2380411 167.1713491 109.8091843
v -34.4690261 167.7555631 109.8953292
v -34.4185365 167.5466969 109.7807662
v -34.4694384 168.2529729 109.8582087
v -34.4944556 168.0628611 109.7409465
v -34.3246717 168.6802556 109.8286320
v -34.3583447 168.6102049 109.7036106
v -34.0939478 169.0079707 109.7999638
v -33.7867869 169.2643971 109.7710591
v -34.0723638 169.0427140 109.6671006
v -33.6753043 169.3239405 109.6298712
v -33.3183375 169.4569288 109.7348328
v -33.2595385 169.4704452 109.6023867
v -32.8665141 169.4830165 109.7008734
v -32.8600257 169.4782953 109.5712364
v -32.3510935 169.3478074 109.6656147
v -32.5316399 169.4133578 109.5490490
v -31.8862397 168.9913939 109.6237585
v -32.1601661 169.2295037 109.5195910
v -31.8040136 168.8899295 109.4801786
v -31.6262222 167.4294805 109.5052041
v -31.8561939 167.0428670 109.4694163
v -31.6552804 167.3575275 109.3966026
v -31.8804093 167.0226283 109.3968300
v -32.4427272 166.6152634 109.4084791
v -32.1514404 166.7762337 109.3958391
v -32.5789837 166.5769844 109.4114443
v -32.6317189 166.5624031 109.3975662
v -32.7015930 166.5463389 109.3975662
v -32.7273146 166.5399344 109.3997144
v -32.9997841 169.1694315 115.9397574
v -33.3206486 169.1375680 113.3163677
v -32.6903469 169.1301629 115.9135558
v -32.3071002 168.9497917 115.8770712
v -31.6068730 168.5162192 116.0791508
v -31.9523114 168.5366902 115.8243100
v -31.8227301 168.0026896 115.7783509
v -31.5466521 167.6580862 116.0189773
v -31.9706824 167.4353128 115.7191573
v -32.5879706 166.9065430 115.6468912
v -32.2667068 167.0749292 115.6794128
v -33.2986443 166.8679389 115.5840793
v -33.6023347 167.0000509 115.5515560
v -34.0974597 166.9982512 115.7872462
v -33.8284651 167.1695935 115.5264924
v -34.0636002 167.5071367 115.4915450
v -34.1614432 167.8536502 115.4590609
v -34.0357804 168.5436653 115.3937148
v -33.5100096 169.0499299 115.3247774
v -33.8058600 168.8581531 115.3570713
v -32.4590803 169.0465839 115.2272055
v -31.6936209 168.7074042 115.4311873
v -32.0611486 168.7091764 115.1801353
v -31.8873876 168.3622560 115.1450467
v -31.8265267 167.9514458 115.1098112
v -31.6378749 167.4071934 115.3346239
v -31.8983585 167.5959015 115.0749596
v -32.0979098 167.2531607 115.0411384
v -32.1779838 166.7562993 115.2761258
v -32.2915534 167.0652494 115.0143610
v -32.7087246 166.8590771 114.9764397
v -33.0297142 166.5084918 115.2127233
v -33.5119383 166.6021877 115.1773928
v -33.2755281 166.8556257 114.9213475
v -34.2400213 167.1837761 115.1073259
v -33.7944323 167.1247006 114.8670079
v -34.0885826 167.5667529 114.8204221
v -34.4070913 168.4721808 115.0129390
v -34.1796260 168.0247109 114.7751178
v -33.9909892 168.6377688 114.7177623
v -33.6823450 168.9470976 114.6817502
v -33.4187723 169.0944859 114.6563037
v -33.1018949 169.1729137 114.6242451
v -32.2997919 168.9384230 114.5488640
v -32.0032869 168.6255382 114.5082352
v -31.8124261 168.0228321 114.4513958
v -32.0175607 166.8811908 114.6270762
v -32.3787034 166.6486130 114.5974373
v -32.2156582 167.1138420 114.3611624
v -32.8545212 166.8288934 114.2989430
v -33.1516704 166.5124327 114.5373266
v -33.2592748 166.8584990 114.2578138
v -33.6466340 167.0164525 114.2223309
v -34.0091530 167.3945017 114.1751403
v -34.4890402 168.1121816 114.3746553
v -34.0425898 168.5386027 114.0643805
v -33.8277564 168.8255759 114.0376679
v -33.5462666 169.0386185 114.0008311
v -33.1929549 169.1548986 113.9724110
v -32.4124799 169.3638063 114.1753932
v -32.7695514 169.1511425 113.9312971
v -32.2801506 168.9293410 113.8828648
v -31.9868134 168.5979830 113.8433763
v -31.5205138 167.8569613 114.0439004
v -31.8356818 167.8795876 113.7734706
v -31.9198924 167.5563859 113.7455273
v -32.0626272 167.2944969 113.7196269
v -32.2026434 166.7477731 113.9472442
v -32.3913340 166.9909240 113.6785259
v -32.7138134 166.8679487 113.6474883
v -33.4976460 166.5969871 113.8527521
v -33.4034021 166.8991800 113.5812961
v -34.2217700 167.1552186 113.7858658
v -33.7901656 167.1276337 113.5435976
v -34.4079793 167.5165468 113.7581515
v -34.0894257 167.5549069 113.4965213
v -34.1751269 168.0396540 113.4556703
v -33.4949838 169.4040087 113.5930774
v -34.1554074 168.2317570 115.4215169
v -33.2190838 169.4753392 115.5591765
v -33.1737105 169.1596764 115.2904223
v -32.0871776 169.1767956 114.8105679
v -34.1695379 168.1037712 114.1096365
v -31.8377387 168.1592184 113.8015539
v -34.0340033 168.5567028 113.4047638
v -32.0610431 169.1561880 115.6000468
v -31.7626524 168.8288598 115.5690778
v -31.5957258 168.4849568 115.5419927
v -31.5138008 168.0870326 115.5133096
v -32.0310348 166.8722950 115.4171859
v -32.9650262 166.8272289 115.6089165
v -34.0970750 166.9980886 115.2546897
v -34.4532511 168.3527361 115.1484404
v -34.2978033 168.7222178 115.1230936
v -32.8273496 169.1545841 115.2612181
v -31.9713441 169.0717719 114.9309092
v -31.6789155 168.7005389 114.8928918
v -31.6471351 167.3855911 114.8009102
v -32.6399412 166.5569852 114.7048708
v -33.0876179 166.5123243 114.6722801
v -33.5184956 166.6073635 114.6420388
v -34.2850453 167.2436142 114.5697705
v -33.4417484 169.4182469 114.3809063
v -32.6119702 169.1090207 114.5761413
v -32.1621966 169.2252147 114.2852699
v -31.5873666 168.4706518 114.2153088
v -31.5182009 168.0886865 114.1903415
v -31.9763791 167.4289176 114.3925517
v -32.1231437 166.7882926 114.0811296
v -32.4451097 166.6205234 114.0562910
v -32.8302238 166.5229441 114.0290784
v -33.7766616 166.7299334 113.9583360
v -34.0787187 166.9799013 113.9313545
v -34.1538149 167.8184037 114.1346795
v -34.4529393 168.3545920 113.8238545
v -34.1372159 168.9715271 113.7755844
v -32.3703130 169.3443758 113.6394782
v -31.5523057 168.3278951 113.5444783
v -31.8847566 167.0137331 113.4434745
v -32.1914015 166.7544451 113.4150132
v -33.0507190 166.8335020 113.6166182
v -34.4318484 167.5927184 113.2166800
v -34.4883438 168.0324041 113.1857301
v -34.3855643 168.5632936 113.1462095
v -34.1969337 168.8813097 113.1211018
v -33.7384350 168.9087887 113.3588506
v -31.8791664 167.0133383 114.7712628
v -33.0996123 169.4859135 114.3564132
v -32.2886572 168.9418620 113.2182102
v -31.9088614 168.4457543 113.1652709
v -31.8468318 168.9362687 112.9298287
v -31.8299947 168.0476818 113.1262131
v -31.5519195 167.6614285 112.8331979
v -32.2918342 167.0620924 113.0269781
v -32.5539190 166.9168884 112.9973186
v -32.9591962 166.8256450 112.9623776
v -32.7958747 166.5258127 112.7064237
v -33.2540493 166.8565523 112.9329583
v -33.6643346 167.0274794 112.8935537
v -34.0304404 167.4416009 112.8428764
v -34.0727241 166.9739778 112.6084585
v -34.1400497 167.7208826 112.8183915
v -34.1665483 168.1439090 112.7818530
v -34.0027209 168.6147367 112.7352952
v -34.0649810 169.0347357 112.4456256
v -33.6135413 169.0007119 112.6843652
v -33.2247388 169.1493273 112.6452629
v -32.7839341 169.1562391 112.6065866
v -32.4110440 169.3643436 112.3179573
v -32.2550162 168.9128364 112.5552763
v -31.9589700 168.5457065 112.5101895
v -31.5278072 168.2487349 112.2131267
v -31.8677411 167.6942585 112.4340664
v -31.5206612 167.8540539 112.1838528
v -32.0743112 167.2760961 112.3887892
v -32.4307610 166.9716547 112.3496781
v -32.7093219 166.8653331 112.3193029
v -33.0999634 166.8304009 112.2846293
v -33.6599598 167.0245540 112.2298929
v -33.9518861 167.3210533 112.1936649
v -34.1187665 167.6352132 112.1639474
v -34.4117953 167.5410523 111.8976123
v -34.1726598 168.0538889 112.1231766
v -34.0291326 168.5715172 112.0772011
v -33.7122247 168.9364866 112.0335972
v -33.9331786 169.1564103 111.7692454
v -33.3985496 169.0987469 111.9989709
v -32.9184984 169.1843387 111.9577056
v -32.1123235 168.7615583 111.8728171
v -31.9092795 168.4397796 111.8400605
v -31.5869308 168.4700133 111.5692408
v -31.5075927 167.9442942 111.5299650
v -31.8241173 167.8975651 111.7886630
v -32.0034672 167.3688217 111.7398158
v -32.3056075 167.0468383 111.7010761
v -32.8321467 166.8407805 111.6485094
v -33.2397798 166.8524268 111.6120854
v -33.6063913 166.9924781 111.5751865
v -34.0620481 168.5049848 111.4216890
v -34.1586851 168.1462233 111.4543960
v -34.3341596 168.6536424 111.1526316
v -33.8023225 168.8579799 111.3807271
v -33.5405161 169.0387762 111.3507123
v -32.8295717 169.4765989 111.0233487
v -32.8713100 169.1635928 111.2934412
v -32.4716860 169.0511937 111.2518885
v -32.0161472 168.6542488 111.1992907
v -31.7249026 168.7610290 110.9279869
v -31.8320598 167.9398862 111.1300593
v -32.1164304 167.2271885 111.0586156
v -32.3906574 166.9989513 111.0285521
v -33.0363587 166.8249910 110.9649407
v -32.6433461 166.8863486 111.0021296
v -33.5336329 166.9470432 110.9245278
v -33.9142462 167.2672881 110.8741450
v -34.1085614 167.6154719 110.8386583
v -34.1736973 168.0623039 110.8007543
v -34.4854077 167.9568214 110.5422677
v -34.1007599 168.4078042 110.7688249
v -33.9568317 168.6750336 110.7381825
v -33.9538102 169.1430849 110.4461037
v -33.6421021 168.9848277 110.7009069
v -33.3544751 169.1200246 110.6711995
v -31.8313500 168.0848059 112.4685766
v -32.2598414 169.2923610 111.6442308
v -32.3722613 168.9906123 111.9074437
v -32.3028259 166.6886708 111.4235059
v -34.0292778 167.4265391 111.5191290
v -31.8993842 167.5851298 111.0985508
v -32.9870721 169.1702723 110.6390876
v -34.0372944 168.5542837 109.4277377
v -33.8961984 169.0003760 109.2513481
v -33.1361800 169.1702238 109.3272875
v -33.4998750 169.2229477 109.2303904
v -33.1035339 169.2993643 109.2136209
v -32.6268848 169.1147112 109.2811410
v -32.7631279 169.2649498 109.1983095
v -32.1965363 168.8609646 109.2355771
v -32.1822115 168.9539988 109.1679155
v -31.8640235 168.3413224 109.1808250
v -31.9514161 168.6712243 109.1512299
v -31.8589019 167.6799625 109.1134329
v -31.7845505 168.1470280 109.1251808
v -32.0004444 167.3808122 109.0871841
v -32.6060682 169.1050696 110.6014861
v -32.2112267 168.8740115 110.5637397
v -32.1149377 169.1974768 110.3053939
v -31.8776075 168.9722467 110.2836420
v -31.5407983 168.2969381 110.2279824
v -31.8366147 168.1864157 110.4911906
v -31.5150983 167.9783131 110.2067905
v -31.8623993 167.7178342 110.4464837
v -31.6863619 167.3076338 110.1568657
v -32.1669370 167.1744830 110.3908101
v -32.5863588 166.5673300 110.0720354
v -33.1701422 166.8418737 110.2915411
v -33.5562458 166.9654380 110.2572359
v -33.8455843 167.1918519 110.2219152
v -34.0008023 166.8881819 109.9675392
v -34.0350984 167.4496178 110.1927964
v -34.1710248 168.0572057 110.1366044
v -34.0458544 168.5346424 110.0906574
v -33.6533542 168.9685029 110.0401907
v -33.4006352 169.0994929 110.0124805
v -32.4536573 169.0415415 109.9263197
v -31.9477126 168.5242142 109.8606074
v -32.1390556 168.7891476 109.8897739
v -31.6889185 168.6971230 109.5975939
v -31.5604544 168.3800635 109.5712724
v -31.5106209 167.9023398 109.5374722
v -31.9571851 167.4592733 109.7588528
v -31.8444434 167.8077577 109.7926814
v -32.2569732 167.0922879 109.7189428
v -32.1410432 166.7885142 109.4476098
v -32.5082079 166.9398196 109.6911472
v -32.8413790 166.8332228 109.6604883
v -32.8481717 166.5243115 109.3928255
v -33.3213034 166.8660075 109.6202508
v -33.6757869 167.0454552 109.5827026
v -33.8794102 167.2290766 109.5577357
v -34.1119063 167.6134890 109.5147381
v -34.3569569 167.6357266 109.3130166
v -33.7287706 168.9171489 109.3872244
v -33.4765895 169.0697618 109.3610435
v -31.9331883 167.7499953 108.9999599
v -31.5280613 167.7663660 109.3997200
v -31.9442356 168.3178865 108.9999108
v -32.8239964 166.9216015 108.9999477
v -32.3914605 167.0945402 108.9999682
v -32.1253850 167.3457991 108.9999843
v -32.2036257 168.7448988 108.9999951
v -32.5579585 169.0016820 108.9999609
v -32.4464809 169.1485653 109.1824391
v -33.1606258 169.0920729 108.9998793
v -33.6945884 168.8474423 108.9999784
v -33.9408831 168.5502637 108.9999920
v -34.2158400 168.6254402 109.2705069
v -34.0831212 168.1654384 108.9999406
v -34.3839441 168.1169879 109.2934747
v -34.0612673 167.7568370 108.9999941
v -33.9002296 167.3766117 108.9999224
v -34.1963060 167.2254249 109.3318100
v -33.9690212 166.9424552 109.3460658
v -33.5809654 167.0784365 108.9999898
v -33.7019430 166.7294417 109.3594366
v -33.2411757 166.9338263 108.9999732
v -33.3256166 166.5669560 109.3773206
v -31.9682444 168.5470576 110.5257489
v -31.5151435 168.0053804 110.7410054
v -31.9777267 167.4316407 110.4223092
v -31.8062157 167.1089470 110.6732503
v -32.5366192 166.9245634 110.3534908
v -32.8459586 166.8384821 110.3223988
v -33.1085555 166.5162043 110.5678675
v -34.0212261 166.9131093 110.4963061
v -34.1385212 167.7398204 110.1670286
v -33.8607827 168.7930591 110.0630919
v -32.9794934 169.1767489 109.9769380
v -31.7868556 168.8749027 110.1435940
v -31.8546996 168.2432333 109.8357241
v -31.5535204 167.6632764 110.0539773
v -31.8682659 167.0385696 110.0042959
v -32.0970437 166.8160546 109.9823043
v -32.8049649 166.5269384 109.9269386
v -33.1459063 166.5194810 109.9031387
v -34.1685210 168.1223886 109.4695499
v -31.5824946 168.4561623 109.4501972
v -31.5158678 168.0847662 109.4220581
v -32.7558176 169.1488150 113.2689180
v -32.1644704 169.2278310 113.4939784
v -31.8657552 168.9643194 113.4663690
v -31.5956099 168.5136147 113.4312459
v -31.5186869 168.0973321 113.3972322
v -31.8664400 167.7072923 113.1003299
v -32.0175673 167.3606009 113.0654762
v -32.0663075 166.8399407 113.2979360
v -33.2892352 166.5398550 113.2063501
v -33.6791193 166.6774538 113.1760907
v -34.0813060 166.9812502 113.1392756
v -34.3188751 167.3096198 113.1122440
v -34.3282339 168.6627879 113.0101849
v -32.4159060 169.3695545 112.8527643
v -31.6230390 167.4456294 112.6873998
v -32.2329800 166.7236765 112.6201713
v -33.4769472 166.5929916 112.5291903
v -33.8209736 166.7575877 112.5019445
v -34.1581779 167.0538889 112.4720580
v -34.4054455 167.5139690 112.4333168
v -33.8970568 169.1843657 112.3006881
v -33.5543609 169.3800911 112.2720716
v -32.7790550 169.4794241 112.2186185
v -31.8715268 168.9663514 112.1405714
v -31.7103739 167.2624347 112.0113839
v -34.0500754 166.9448918 111.8192197
v -34.1621534 167.8491045 111.4831451
v -34.1571670 168.9342414 111.6594978
v -33.7388410 169.2873460 111.6240337
v -33.2198308 169.1493627 111.3245908
v -32.0054261 169.1080281 111.4923554
v -31.7512681 168.8031183 111.4638294
v -31.8594704 168.2642758 111.1635569
v -31.6027790 167.4913617 111.3674071
v -31.7966997 167.1230986 111.3378572
v -32.1078090 166.8080005 111.3069408
v -32.4947933 166.5990053 111.2753967
v -33.8755559 166.8001196 111.1717856
v -34.1690741 167.0779425 111.1438937
v -34.3682900 167.4181539 111.1108951
v -34.4845517 167.9751722 111.0725578
v -34.4566761 168.3094178 111.0497781
v -33.5414679 169.3829975 110.9450782
v -31.7222182 167.2221507 113.3304910
v -31.6143375 168.5632373 112.1082110
f 3 1 47
f 3 47 2
f 5 3 2
f 5 2 4
f 486 5 4
f 7 486 4
f 7 4 6
f 9 7 6
f 9 6 8
f 11 9 8
f 11 8 10
f 13 11 10
f 13 10 12
f 14 13 12
f 14 12 15
f 16 14 15
f 552 16 15
f 552 15 17
f 18 552 17
f 19 552 18
f 21 18 17
f 22 552 19
f 21 17 20
f 25 21 20
f 26 22 23
f 25 20 24
f 28 25 24
f 29 26 558
f 28 24 27
f 30 28 27
f 494 29 559
f 30 27 31
f 477 30 31
f 32 494 560
f 34 477 31
f 34 31 33
f 36 32 561
f 480 34 33
f 480 33 37
f 498 36 35
f 39 480 37
f 41 498 38
f 39 37 40
f 42 39 40
f 41 38 562
f 501 41 562
f 501 562 43
f 46 42 40
f 46 40 44
f 48 501 43
f 48 43 45
f 1 46 44
f 1 44 47
f 504 48 45
f 504 45 49
f 19 23 22
f 23 558 26
f 558 559 29
f 559 560 494
f 560 561 32
f 561 35 36
f 35 38 498
f 505 504 49
f 50 505 49
f 52 505 50
f 564 52 50
f 51 52 564
f 507 52 51
f 54 507 51
f 53 54 51
f 55 54 53
f 565 55 53
f 510 55 565
f 57 510 565
f 566 57 565
f 56 57 566
f 59 57 56
f 58 59 56
f 61 59 58
f 61 58 60
f 63 61 60
f 63 60 62
f 65 63 62
f 65 62 64
f 554 65 64
f 554 64 568
f 66 554 568
f 66 568 569
f 67 66 569
f 67 569 68
f 70 67 68
f 70 68 69
f 71 70 69
f 71 69 570
f 72 71 570
f 72 570 599
f 519 72 599
f 519 599 73
f 520 519 73
f 74 520 73
f 74 73 571
f 523 571 572
f 523 74 571
f 523 572 573
f 76 523 573
f 76 573 75
f 77 76 75
f 77 75 574
f 78 77 574
f 80 574 79
f 80 78 574
f 527 80 79
f 527 79 81
f 83 527 81
f 83 81 82
f 85 83 82
f 85 82 84
f 86 85 84
f 575 86 84
f 87 86 575
f 600 87 575
f 89 87 600
f 88 89 600
f 532 89 88
f 91 532 88
f 577 91 88
f 90 91 577
f 92 91 90
f 578 92 90
f 94 92 578
f 579 94 578
f 93 94 579
f 536 94 93
f 96 536 93
f 95 96 93
f 97 96 95
f 581 97 95
f 540 97 581
f 98 540 581
f 582 98 581
f 583 98 582
f 100 98 583
f 100 583 99
f 543 100 99
f 584 543 99
f 102 543 584
f 585 102 584
f 101 102 585
f 545 102 101
f 547 545 101
f 103 547 101
f 104 547 103
f 587 104 103
f 105 104 587
f 588 105 587
f 106 105 588
f 107 106 588
f 108 106 107
f 550 108 107
f 109 550 107
f 110 550 109
f 111 110 109
f 112 110 111
f 589 112 111
f 113 112 589
f 782 112 113
f 783 782 113
f 114 783 113
f 784 783 114
f 590 784 114
f 115 784 590
f 785 784 115
f 116 785 115
f 117 116 115
f 824 116 117
f 591 824 117
f 788 824 591
f 592 788 591
f 118 788 592
f 119 788 118
f 120 119 118
f 121 119 120
f 121 120 122
f 789 121 122
f 123 789 122
f 790 789 123
f 126 790 123
f 124 126 123
f 125 126 124
f 791 126 125
f 792 791 125
f 594 792 125
f 127 792 594
f 595 127 594
f 128 127 595
f 596 128 595
f 793 128 596
f 130 793 596
f 597 130 596
f 129 130 597
f 132 130 129
f 131 132 129
f 134 132 131
f 133 134 131
f 136 134 133
f 135 136 133
f 794 136 135
f 137 794 135
f 139 794 137
f 603 139 137
f 138 139 603
f 140 139 138
f 142 140 138
f 141 142 138
f 144 142 141
f 605 144 141
f 143 144 605
f 795 144 143
f 146 795 143
f 145 146 143
f 796 146 145
f 147 796 145
f 148 796 147
f 609 148 147
f 149 148 609
f 150 148 149
f 797 149 151
f 797 150 149
f 798 797 151
f 799 798 151
f 799 151 613
f 799 613 152
f 800 799 152
f 800 152 153
f 154 800 153
f 154 153 155
f 157 154 155
f 157 155 156
f 159 157 156
f 159 156 617
f 159 617 158
f 801 159 158
f 802 801 158
f 802 158 160
f 161 802 160
f 803 161 160
f 803 160 162
f 803 162 621
f 164 803 621
f 164 621 163
f 804 164 163
f 804 163 165
f 825 804 165
f 825 165 624
f 166 825 624
f 166 624 626
f 167 626 168
f 167 166 626
f 805 168 169
f 805 167 168
f 171 805 169
f 171 169 170
f 173 171 170
f 173 170 172
f 175 173 172
f 175 172 174
f 177 175 174
f 177 174 176
f 180 177 176
f 178 180 176
f 179 180 178
f 181 180 179
f 806 181 179
f 182 806 179
f 184 806 182
f 634 184 182
f 183 184 634
f 186 184 183
f 185 186 183
f 188 186 185
f 187 188 185
f 808 188 187
f 190 808 187
f 638 190 187
f 189 190 638
f 809 190 189
f 192 809 189
f 191 192 189
f 194 192 191
f 193 194 191
f 195 194 193
f 677 195 193
f 811 195 677
f 196 811 677
f 812 811 196
f 197 812 196
f 643 197 196
f 198 197 643
f 644 198 643
f 814 198 644
f 199 814 644
f 815 814 199
f 200 815 199
f 816 815 200
f 679 816 200
f 817 816 679
f 201 817 679
f 202 817 201
f 203 202 201
f 204 202 203
f 206 204 203
f 206 203 205
f 206 205 207
f 818 206 207
f 819 818 207
f 208 819 207
f 820 819 208
f 210 820 208
f 209 210 208
f 821 210 209
f 822 821 209
f 211 822 209
f 213 822 211
f 653 213 211
f 212 213 653
f 215 213 212
f 214 215 212
f 823 215 214
f 217 823 214
f 216 217 214
f 217 216 656
f 219 217 656
f 219 656 218
f 220 219 218
f 222 220 218
f 221 222 218
f 224 222 221
f 660 224 221
f 223 224 660
f 226 224 223
f 225 226 223
f 761 226 225
f 229 761 225
f 227 229 225
f 228 229 227
f 763 229 228
f 230 763 228
f 232 763 230
f 231 232 230
f 234 232 231
f 233 234 231
f 766 234 233
f 766 233 235
f 237 766 235
f 236 237 235
f 767 236 238
f 767 237 236
f 240 767 238
f 240 238 239
f 242 240 239
f 242 239 670
f 242 670 241
f 244 242 241
f 244 241 243
f 245 244 243
f 245 243 673
f 246 245 673
f 248 673 247
f 248 246 673
f 250 248 247
f 249 250 247
f 252 250 249
f 251 252 249
f 253 252 251
f 699 253 251
f 771 253 699
f 700 771 699
f 254 771 700
f 255 771 254
f 701 255 254
f 257 255 701
f 703 257 701
f 256 257 703
f 773 257 256
f 259 773 256
f 705 259 256
f 258 259 705
f 774 259 258
f 775 774 258
f 260 775 258
f 261 775 260
f 707 261 260
f 776 261 707
f 262 776 707
f 777 776 262
f 27 24 263
f 263 24 266
f 264 27 263
f 264 31 27
f 24 20 266
f 265 31 264
f 266 20 269
f 20 17 269
f 267 33 265
f 265 33 31
f 268 33 267
f 269 15 271
f 17 15 269
f 268 37 33
f 270 37 268
f 271 15 273
f 270 40 37
f 15 12 273
f 270 272 40
f 12 275 273
f 10 275 12
f 40 272 44
f 272 274 44
f 8 275 10
f 8 277 275
f 44 274 47
f 274 276 47
f 6 277 8
f 6 279 277
f 47 276 2
f 276 278 2
f 4 279 6
f 2 278 4
f 4 280 279
f 278 280 4
f 303 281 267
f 303 267 265
f 282 303 265
f 307 265 264
f 307 282 265
f 312 307 264
f 312 264 263
f 283 312 263
f 284 283 263
f 321 284 263
f 321 263 266
f 324 321 266
f 326 324 266
f 326 266 269
f 330 326 269
f 285 330 269
f 285 269 271
f 340 285 271
f 343 340 271
f 343 271 273
f 346 343 273
f 349 346 273
f 354 349 273
f 354 273 275
f 286 354 275
f 287 286 275
f 287 275 277
f 288 287 277
f 289 288 277
f 290 289 277
f 290 277 279
f 367 290 279
f 371 367 279
f 375 371 279
f 375 279 280
f 378 375 280
f 291 280 278
f 291 378 280
f 383 291 278
f 292 278 276
f 292 383 278
f 389 292 276
f 396 389 276
f 396 276 274
f 400 396 274
f 293 400 274
f 402 293 274
f 402 274 272
f 294 402 272
f 295 294 272
f 296 272 270
f 296 295 272
f 416 296 270
f 297 416 270
f 297 270 268
f 421 297 268
f 425 421 268
f 298 268 267
f 298 425 268
f 298 298 267
f 281 298 267
f 281 281 267
f 299 298 298
f 299 298 281
f 299 281 281
f 299 425 298
f 303 299 281
f 302 301 303
f 310 300 301
f 310 301 302
f 282 302 303
f 305 300 310
f 310 302 282
f 308 305 310
f 309 282 307
f 309 310 282
f 308 304 305
f 306 304 308
f 311 308 310
f 311 310 309
f 309 307 312
f 314 306 308
f 313 309 312
f 314 308 311
f 313 311 309
f 316 311 313
f 315 313 312
f 315 312 283
f 314 311 316
f 317 313 315
f 284 315 283
f 316 313 317
f 318 315 284
f 319 314 316
f 320 319 316
f 317 315 318
f 321 318 284
f 320 316 317
f 322 317 318
f 320 317 322
f 323 318 321
f 322 318 323
f 324 323 321
f 325 319 320
f 325 320 322
f 325 322 323
f 328 323 324
f 328 325 323
f 329 324 326
f 329 328 324
f 332 319 325
f 332 325 327
f 327 325 328
f 329 326 330
f 333 328 329
f 336 319 332
f 333 327 328
f 330 333 329
f 331 332 327
f 331 327 333
f 334 330 285
f 334 333 330
f 337 333 334
f 336 332 331
f 338 331 333
f 338 333 337
f 335 334 285
f 340 335 285
f 335 337 334
f 336 331 338
f 342 335 340
f 339 337 335
f 342 339 335
f 341 336 338
f 338 337 339
f 342 340 343
f 344 339 342
f 348 336 341
f 341 338 339
f 341 339 344
f 345 342 343
f 345 344 342
f 347 344 345
f 345 343 346
f 348 341 344
f 351 344 347
f 350 345 346
f 350 347 345
f 348 344 351
f 349 350 346
f 351 347 350
f 353 348 351
f 352 351 350
f 355 349 354
f 355 350 349
f 353 351 352
f 355 352 350
f 357 352 355
f 356 353 352
f 358 355 354
f 356 352 357
f 357 355 358
f 358 354 286
f 359 357 358
f 365 353 356
f 287 358 286
f 287 359 358
f 361 356 357
f 361 357 359
f 360 359 287
f 361 359 360
f 360 287 288
f 365 356 361
f 362 360 288
f 363 361 360
f 289 362 288
f 363 365 361
f 364 363 360
f 366 362 289
f 369 365 363
f 364 360 362
f 366 289 290
f 364 362 366
f 369 363 364
f 368 364 366
f 367 366 290
f 368 366 367
f 372 364 368
f 370 368 367
f 370 367 371
f 374 369 364
f 374 364 372
f 370 372 368
f 373 370 371
f 376 372 370
f 376 374 372
f 373 371 375
f 373 376 370
f 377 373 375
f 381 374 376
f 377 376 373
f 379 369 374
f 378 377 375
f 380 377 378
f 381 379 374
f 382 376 377
f 380 378 291
f 382 377 380
f 385 376 382
f 381 376 385
f 383 380 291
f 382 380 387
f 387 380 383
f 384 381 385
f 387 383 386
f 384 379 381
f 385 382 387
f 386 383 292
f 388 385 387
f 388 384 385
f 391 387 386
f 391 388 387
f 390 386 292
f 391 386 390
f 390 292 389
f 393 384 388
f 393 379 384
f 395 388 391
f 392 389 396
f 392 390 389
f 394 391 390
f 394 390 392
f 395 391 394
f 393 388 395
f 398 393 395
f 397 392 396
f 397 394 392
f 399 393 398
f 397 396 400
f 398 394 397
f 398 395 394
f 401 397 400
f 401 398 397
f 404 399 398
f 404 398 401
f 405 401 400
f 402 400 293
f 405 400 402
f 408 393 399
f 403 401 405
f 408 399 404
f 403 404 401
f 406 404 403
f 405 406 403
f 409 402 294
f 409 405 402
f 408 404 406
f 407 406 405
f 407 405 409
f 295 409 294
f 411 408 406
f 410 407 409
f 412 409 295
f 411 406 407
f 410 409 412
f 411 407 410
f 296 412 295
f 415 408 411
f 414 411 410
f 414 410 412
f 413 412 296
f 413 414 412
f 417 296 416
f 417 413 296
f 415 411 414
f 418 413 417
f 418 414 413
f 419 415 414
f 297 417 416
f 419 414 418
f 420 418 417
f 420 419 418
f 422 415 419
f 420 417 297
f 423 419 420
f 424 420 297
f 424 297 421
f 422 419 423
f 423 420 424
f 425 424 421
f 425 299 303
f 426 422 423
f 301 425 303
f 301 424 425
f 300 423 424
f 300 424 301
f 426 423 300
f 304 422 426
f 426 300 305
f 426 305 304
f 422 304 306
f 427 306 314
f 427 314 319
f 428 319 336
f 428 336 348
f 428 427 319
f 429 415 422
f 429 422 306
f 429 306 427
f 430 348 353
f 430 428 348
f 365 430 353
f 408 415 429
f 431 408 429
f 393 408 431
f 369 430 365
f 369 432 430
f 379 432 369
f 379 393 431
f 379 431 432
f 427 428 433
f 433 428 434
f 429 427 435
f 435 427 433
f 431 429 436
f 436 429 435
f 432 431 437
f 437 431 436
f 430 432 438
f 438 432 437
f 428 430 434
f 434 430 438
f 433 434 438
f 435 438 437
f 435 437 436
f 435 433 438
f 439 777 262
f 440 777 439
f 441 439 711
f 441 440 439
f 443 441 711
f 443 711 442
f 445 443 442
f 445 442 444
f 447 445 444
f 447 444 446
f 449 447 446
f 449 446 448
f 452 449 448
f 452 448 450
f 452 450 451
f 453 452 451
f 453 451 454
f 455 453 454
f 455 454 456
f 457 455 456
f 459 457 456
f 459 456 458
f 461 459 458
f 461 458 460
f 462 461 460
f 462 460 720
f 779 462 720
f 779 720 721
f 780 779 721
f 780 721 722
f 738 780 722
f 463 738 722
f 465 738 463
f 464 465 463
f 466 465 464
f 468 466 464
f 468 464 726
f 467 468 726
f 470 467 469
f 470 470 469
f 471 470 470
f 472 471 470
f 21 473 18
f 21 475 473
f 25 475 21
f 25 476 475
f 28 476 25
f 28 30 476
f 476 30 478
f 478 477 479
f 30 477 478
f 34 479 477
f 480 479 34
f 479 480 481
f 481 39 483
f 480 39 481
f 39 42 483
f 46 482 42
f 1 482 46
f 42 482 483
f 482 1 563
f 3 484 1
f 1 484 563
f 5 485 3
f 3 485 484
f 487 486 488
f 7 488 486
f 9 489 7
f 7 489 488
f 9 11 489
f 489 11 551
f 14 490 13
f 490 14 492
f 552 491 16
f 16 491 14
f 14 491 492
f 491 552 553
f 22 26 567
f 567 26 493
f 493 29 495
f 26 29 493
f 495 494 496
f 29 494 495
f 496 32 497
f 494 32 496
f 36 497 32
f 36 498 497
f 497 498 499
f 499 498 500
f 501 500 41
f 41 500 498
f 502 501 503
f 500 501 502
f 504 503 48
f 48 503 501
f 503 504 506
f 504 505 506
f 506 505 508
f 505 52 508
f 52 507 508
f 508 507 509
f 507 54 509
f 509 54 511
f 54 55 511
f 511 510 512
f 55 510 511
f 510 57 512
f 59 513 57
f 57 513 512
f 59 514 513
f 61 514 59
f 61 63 514
f 514 63 515
f 515 63 576
f 63 65 576
f 554 516 65
f 65 516 576
f 517 67 518
f 66 67 517
f 67 70 518
f 70 71 518
f 518 71 580
f 71 72 580
f 580 72 521
f 519 520 521
f 521 520 522
f 74 522 520
f 523 522 74
f 523 76 524
f 524 76 525
f 76 77 525
f 525 77 526
f 526 78 586
f 77 78 526
f 80 586 78
f 527 586 80
f 555 527 528
f 527 83 528
f 85 529 83
f 83 529 528
f 85 86 529
f 529 86 530
f 89 533 87
f 87 533 531
f 533 532 534
f 532 91 534
f 535 94 556
f 92 94 535
f 556 536 537
f 96 538 536
f 536 538 537
f 97 539 96
f 97 540 539
f 539 540 541
f 98 542 540
f 100 542 98
f 540 542 541
f 100 593 542
f 543 593 100
f 593 543 544
f 544 102 546
f 543 102 544
f 546 545 548
f 102 545 546
f 548 547 549
f 545 547 548
f 104 549 547
f 104 105 549
f 549 105 557
f 557 106 598
f 106 108 598
f 598 108 474
f 474 550 110
f 108 550 474
f 486 487 5
f 5 487 485
f 13 551 11
f 490 551 13
f 553 552 567
f 567 552 22
f 516 554 517
f 517 554 66
f 519 521 72
f 524 522 523
f 527 555 586
f 530 86 531
f 531 86 87
f 532 533 89
f 92 535 91
f 91 535 534
f 536 556 94
f 96 539 538
f 106 557 105
f 473 19 18
f 475 19 473
f 476 23 475
f 475 23 19
f 476 558 23
f 478 559 476
f 476 559 558
f 479 560 478
f 478 560 559
f 479 561 560
f 479 35 561
f 481 35 479
f 35 481 38
f 38 481 562
f 483 562 481
f 483 482 562
f 562 482 43
f 43 482 45
f 45 563 49
f 482 563 45
f 484 49 563
f 484 485 49
f 49 485 50
f 487 564 485
f 488 564 487
f 485 564 50
f 488 51 564
f 489 51 488
f 489 53 51
f 551 53 489
f 551 565 53
f 551 566 565
f 490 566 551
f 492 566 490
f 492 56 566
f 492 491 56
f 58 491 60
f 56 491 58
f 60 553 62
f 491 553 60
f 553 567 62
f 62 567 64
f 493 64 567
f 495 568 493
f 493 568 64
f 496 569 495
f 495 569 568
f 496 68 569
f 497 68 496
f 497 69 68
f 499 69 497
f 499 570 69
f 502 599 500
f 503 572 571
f 506 572 503
f 506 573 572
f 508 573 506
f 508 75 573
f 509 574 508
f 574 509 79
f 79 511 81
f 512 81 511
f 82 512 84
f 512 513 84
f 515 575 514
f 516 577 576
f 576 577 88
f 517 90 516
f 516 90 577
f 518 578 517
f 517 578 90
f 518 579 578
f 518 93 579
f 580 93 518
f 93 580 95
f 521 581 580
f 580 581 95
f 521 582 581
f 522 582 521
f 522 583 582
f 522 524 583
f 583 524 99
f 525 584 524
f 524 584 99
f 526 585 525
f 525 585 584
f 526 101 585
f 586 101 526
f 101 586 103
f 528 587 555
f 555 587 586
f 586 587 103
f 587 528 588
f 529 588 528
f 530 588 529
f 107 530 109
f 588 530 107
f 531 109 530
f 531 533 109
f 109 533 111
f 534 589 533
f 533 589 111
f 535 113 534
f 534 113 589
f 535 114 113
f 556 590 535
f 535 590 114
f 556 537 590
f 590 537 115
f 537 538 115
f 115 538 117
f 541 591 539
f 539 591 538
f 538 591 117
f 541 592 591
f 541 542 592
f 592 542 118
f 118 542 120
f 542 593 120
f 120 593 122
f 593 544 122
f 122 544 123
f 546 124 544
f 544 124 123
f 548 125 546
f 546 125 124
f 548 594 125
f 549 594 548
f 549 595 594
f 557 596 549
f 549 596 595
f 598 597 557
f 557 597 596
f 597 598 129
f 129 598 131
f 131 474 133
f 598 474 131
f 499 599 570
f 500 599 499
f 73 599 502
f 73 503 571
f 502 503 73
f 75 508 574
f 511 79 509
f 81 512 82
f 513 514 84
f 84 514 575
f 515 600 575
f 576 88 515
f 515 88 600
f 781 133 474
f 781 135 133
f 682 247 675
f 682 249 247
f 601 135 781
f 135 601 137
f 602 603 601
f 601 603 137
f 602 138 603
f 602 604 138
f 138 604 141
f 786 605 604
f 604 605 141
f 786 143 605
f 787 143 786
f 606 607 145
f 145 607 147
f 147 607 609
f 608 609 607
f 608 610 609
f 609 610 149
f 149 610 151
f 610 611 151
f 612 613 611
f 611 613 151
f 613 612 152
f 152 612 153
f 614 153 612
f 615 153 614
f 618 617 616
f 616 617 156
f 617 618 158
f 158 618 160
f 618 619 160
f 160 620 162
f 619 620 160
f 622 621 620
f 620 621 162
f 622 163 621
f 622 623 163
f 163 623 165
f 676 624 623
f 623 624 165
f 625 626 676
f 625 168 626
f 627 168 625
f 168 627 169
f 169 627 170
f 628 629 170
f 170 629 172
f 172 629 174
f 629 630 174
f 174 630 176
f 631 178 630
f 630 178 176
f 178 631 179
f 179 632 182
f 631 632 179
f 633 634 632
f 632 634 182
f 633 635 634
f 183 635 185
f 634 635 183
f 636 185 635
f 637 187 636
f 636 187 185
f 637 638 187
f 637 639 638
f 189 639 191
f 638 639 189
f 640 191 639
f 640 193 191
f 642 643 641
f 641 643 196
f 644 645 199
f 646 199 645
f 646 647 199
f 199 647 200
f 648 679 647
f 201 648 203
f 679 648 201
f 649 650 203
f 205 650 207
f 203 650 205
f 680 207 650
f 207 680 208
f 209 652 211
f 651 653 652
f 652 653 211
f 651 654 653
f 653 654 212
f 212 655 214
f 810 216 655
f 655 216 214
f 657 658 656
f 656 658 218
f 659 221 658
f 659 660 221
f 813 661 223
f 225 661 227
f 223 661 225
f 681 662 227
f 228 662 230
f 227 662 228
f 662 663 230
f 230 663 231
f 231 665 233
f 233 664 235
f 665 664 233
f 664 666 235
f 235 666 236
f 236 666 238
f 238 667 239
f 666 667 238
f 667 668 239
f 669 671 670
f 670 671 241
f 243 672 673
f 674 673 672
f 674 675 673
f 673 675 247
f 143 787 145
f 145 787 606
f 153 615 155
f 156 155 616
f 616 155 615
f 624 676 626
f 628 170 627
f 640 677 193
f 678 677 640
f 641 196 678
f 678 196 677
f 644 642 645
f 643 642 644
f 647 679 200
f 649 203 648
f 209 680 807
f 208 680 209
f 209 807 652
f 212 654 655
f 656 216 657
f 657 216 810
f 218 658 221
f 660 659 223
f 223 659 813
f 681 227 661
f 231 663 665
f 669 239 668
f 670 239 669
f 672 243 671
f 671 243 241
f 736 686 684
f 685 687 686
f 688 745 689
f 690 745 688
f 690 691 745
f 690 693 691
f 692 693 690
f 692 695 693
f 694 695 692
f 697 249 682
f 249 697 251
f 698 699 697
f 697 699 251
f 698 700 699
f 698 760 700
f 700 760 254
f 702 701 760
f 760 701 254
f 704 703 702
f 702 703 701
f 703 704 256
f 762 705 704
f 704 705 256
f 762 706 705
f 705 706 258
f 764 260 706
f 706 260 258
f 764 707 260
f 765 707 764
f 707 765 262
f 765 708 262
f 262 708 439
f 709 439 708
f 709 711 439
f 711 710 442
f 709 710 711
f 710 712 442
f 712 768 442
f 442 768 444
f 768 713 444
f 444 713 446
f 714 446 713
f 446 714 448
f 448 769 450
f 714 769 448
f 450 715 451
f 769 715 450
f 451 716 454
f 715 716 451
f 770 454 716
f 770 456 454
f 770 717 456
f 456 717 458
f 458 717 460
f 717 719 460
f 718 720 719
f 719 720 460
f 718 721 720
f 772 721 718
f 772 722 721
f 724 722 772
f 722 724 463
f 724 723 463
f 463 723 464
f 725 464 723
f 725 726 464
f 725 727 726
f 726 727 467
f 467 727 469
f 469 727 470
f 728 729 727
f 727 729 470
f 470 729 472
f 728 730 729
f 729 730 759
f 730 731 759
f 759 731 757
f 755 757 731
f 731 732 755
f 732 754 755
f 733 754 732
f 734 754 733
f 733 751 734
f 778 751 733
f 751 778 749
f 749 778 683
f 735 684 683
f 683 684 749
f 736 684 735
f 685 686 736
f 688 689 685
f 685 689 687
f 696 742 737
f 694 696 737
f 695 694 737
f 465 696 738
f 695 737 739
f 693 695 739
f 740 470 471
f 740 471 472
f 740 472 729
f 467 740 741
f 467 470 740
f 468 467 741
f 466 468 741
f 466 741 742
f 696 466 742
f 696 465 466
f 693 739 743
f 691 693 743
f 691 743 744
f 745 691 744
f 689 745 744
f 689 744 746
f 746 687 689
f 746 686 687
f 686 746 747
f 747 684 686
f 749 747 748
f 749 684 747
f 749 748 750
f 751 749 750
f 751 750 752
f 734 751 752
f 734 752 753
f 754 734 753
f 755 754 753
f 755 753 756
f 757 755 756
f 757 756 758
f 759 757 758
f 758 740 729
f 759 758 729
f 747 756 753
f 747 753 752
f 747 752 750
f 747 750 748
f 746 756 747
f 746 740 758
f 746 758 756
f 739 737 742
f 744 740 746
f 743 741 740
f 743 740 744
f 743 739 742
f 743 742 741
f 682 219 697
f 217 219 682
f 219 220 697
f 222 698 220
f 220 698 697
f 222 224 698
f 226 760 224
f 224 760 698
f 760 226 702
f 702 761 704
f 226 761 702
f 761 229 704
f 763 762 229
f 229 762 704
f 762 763 706
f 763 232 706
f 706 232 764
f 234 764 232
f 234 765 764
f 766 765 234
f 765 766 708
f 237 709 766
f 766 709 708
f 767 709 237
f 710 767 712
f 709 767 710
f 767 240 712
f 242 768 240
f 240 768 712
f 768 242 713
f 242 244 713
f 713 244 714
f 245 769 244
f 244 769 714
f 246 715 245
f 248 715 246
f 245 715 769
f 715 248 716
f 250 770 248
f 252 770 250
f 248 770 716
f 252 253 770
f 770 253 717
f 771 717 253
f 771 719 717
f 719 771 718
f 255 772 771
f 771 772 718
f 255 257 772
f 772 257 724
f 724 773 723
f 257 773 724
f 773 259 723
f 259 774 723
f 723 774 725
f 725 775 727
f 774 775 725
f 261 727 775
f 261 776 727
f 727 776 728
f 776 777 728
f 728 777 730
f 440 730 777
f 441 731 440
f 440 731 730
f 441 732 731
f 443 732 441
f 732 443 733
f 443 445 733
f 447 778 445
f 445 778 733
f 449 778 447
f 778 449 683
f 683 452 735
f 449 452 683
f 453 735 452
f 453 736 735
f 455 736 453
f 736 455 685
f 685 457 688
f 455 457 685
f 457 459 688
f 459 461 688
f 688 461 690
f 461 462 690
f 690 462 692
f 462 779 692
f 779 780 692
f 692 780 694
f 780 738 694
f 694 738 696
f 110 781 474
f 217 682 675
f 112 781 110
f 112 782 781
f 781 782 601
f 601 783 602
f 782 783 601
f 783 784 602
f 602 785 604
f 784 785 602
f 116 786 785
f 824 786 116
f 785 786 604
f 824 787 786
f 788 119 606
f 606 119 607
f 119 121 607
f 607 121 608
f 121 789 608
f 608 789 610
f 789 790 610
f 610 790 611
f 126 791 790
f 790 791 611
f 611 791 612
f 791 792 612
f 612 792 614
f 792 127 614
f 614 127 615
f 128 793 615
f 615 793 616
f 793 130 616
f 616 130 618
f 132 618 130
f 132 134 618
f 618 134 619
f 620 794 622
f 794 139 622
f 139 140 622
f 622 140 623
f 140 142 623
f 623 142 676
f 142 144 676
f 676 144 625
f 625 795 627
f 144 795 625
f 795 146 627
f 627 796 628
f 146 796 627
f 628 148 629
f 796 148 628
f 629 150 630
f 148 150 629
f 150 797 630
f 630 797 631
f 797 798 631
f 631 799 632
f 798 799 631
f 632 799 633
f 799 800 633
f 800 154 633
f 633 154 635
f 154 157 635
f 635 157 636
f 157 159 636
f 636 159 637
f 159 801 637
f 637 802 639
f 639 802 640
f 801 802 637
f 802 161 640
f 161 803 640
f 164 804 678
f 678 804 641
f 641 804 642
f 804 825 642
f 645 167 646
f 167 805 646
f 173 647 171
f 171 647 805
f 805 647 646
f 647 175 648
f 177 648 175
f 177 180 648
f 648 180 649
f 180 181 649
f 649 181 650
f 181 806 650
f 650 806 680
f 806 184 680
f 186 807 184
f 184 807 680
f 188 652 186
f 652 188 651
f 190 809 808
f 808 809 654
f 654 809 655
f 192 810 809
f 809 810 655
f 192 657 810
f 194 657 192
f 194 195 657
f 657 195 658
f 195 811 658
f 658 811 659
f 811 812 659
f 198 813 197
f 197 813 812
f 812 813 659
f 813 198 661
f 661 198 681
f 198 814 681
f 681 815 662
f 814 815 681
f 815 816 662
f 662 816 663
f 816 817 663
f 663 817 665
f 665 817 664
f 202 204 817
f 817 204 664
f 204 206 664
f 664 206 666
f 666 818 667
f 206 818 666
f 818 819 667
f 210 821 820
f 668 821 669
f 820 821 668
f 669 822 671
f 671 213 672
f 213 215 672
f 672 215 674
f 674 823 675
f 215 823 674
f 675 823 217
f 606 824 788
f 787 824 606
f 127 128 615
f 619 136 620
f 134 136 619
f 794 620 136
f 640 164 678
f 803 164 640
f 642 825 645
f 645 825 166
f 645 166 167
f 647 173 175
f 807 186 652
f 651 808 654
f 188 808 651
f 667 820 668
f 819 820 667
f 822 669 821
f 213 671 822
