# Render LOD; unchanged CAD body-local coordinates in mm
v -169.2550410 -32.0641843 134.9999454
v -169.0529050 -32.3981320 134.0579429
v -169.2724336 -32.0072644 134.0261839
v -169.3251202 -31.4549665 134.9999457
v -169.3259286 -31.5308019 133.9930433
v -169.1250537 -30.9351272 134.9999449
v -169.1938394 -31.0462506 133.9575969
v -168.8494454 -30.6466343 134.9999455
v -168.8993666 -30.6861445 133.9219354
v -168.5625676 -30.4760349 133.8967959
v -168.5012182 -30.4507437 134.9999449
v -168.0760011 -30.3858036 134.9999455
v -168.0935077 -30.3823675 133.8578566
v -167.6515672 -30.4622489 134.9999450
v -167.7292917 -30.4422828 133.8346258
v -167.2103050 -30.7479855 134.9999447
v -167.2178708 -30.7504946 133.9019622
v -167.1997515 -30.7608560 134.3384205
v -166.9709984 -31.1042977 134.9999452
v -166.8885419 -31.3284371 133.8510836
v -166.8600364 -31.4872235 134.9999451
v -167.0023868 -31.0229359 133.7676939
v -166.8868911 -31.3027188 134.2958860
v -166.8688132 -31.8451165 133.8164705
v -166.9350715 -32.0938689 134.9999465
v -166.8524005 -31.5665077 133.7270452
v -166.9154403 -31.9975103 133.6966249
v -167.1186100 -32.3953144 133.7721096
v -167.3046674 -32.5786818 134.9999456
v -167.1003802 -32.3639761 133.6652797
v -167.6138392 -32.7725608 133.7260567
v -167.7396484 -32.8106054 134.9999449
v -167.4619611 -32.6905345 133.6335763
v -168.1688954 -32.8550064 134.9999456
v -167.8673329 -32.8362081 133.6010129
v -168.1523023 -32.8569864 133.6908850
v -168.5879138 -32.7583447 134.9999448
v -168.2302568 -32.8507034 133.5748625
v -168.3345103 -32.8365405 134.1187026
v -168.5599938 -32.7688626 133.6592481
v -168.9686015 -32.4950265 134.9999455
v -168.9054817 -32.5517993 133.6307498
v -168.7663866 -32.6603134 134.0853996
v -169.2601986 -32.0393789 133.4794710
v -169.3273290 -31.6250147 133.4486808
v -169.2924871 -31.3296994 133.5352210
v -169.2390557 -31.1335774 133.4084243
v -168.7008457 -30.5425463 133.4633343
v -168.9284204 -30.7102081 133.3760194
v -168.2717710 -30.3974334 133.4327471
v -168.5914136 -30.4898371 133.3459387
v -167.8444279 -30.4074584 133.4023900
v -168.0719768 -30.3753492 133.3124554
v -167.4943811 -30.5404798 133.3742987
v -167.6044511 -30.4866578 133.2723376
v -167.1785652 -30.7847589 133.3457833
v -167.2266762 -30.7322176 133.2445274
v -166.9485254 -31.1502044 133.3152489
v -166.9404585 -31.1588627 133.2052245
v -166.8541847 -31.6697372 133.1699492
v -166.9481609 -32.0920366 133.1381403
v -167.1454619 -32.4177198 133.1108968
v -167.7370900 -32.8161878 133.1658008
v -167.5057937 -32.7153088 133.0777055
v -167.9124240 -32.8436754 133.0466725
v -168.6023339 -32.7483140 133.1077713
v -168.3603257 -32.8330271 133.0172591
v -168.9510216 -32.5129790 133.0776833
v -168.7394012 -32.6735384 132.9886757
v -169.1550438 -32.2491760 133.0531880
v -169.0544110 -32.4009128 132.9597854
v -168.8246554 -30.6165039 132.9222285
v -168.9862723 -30.7608072 132.8271457
v -168.3971811 -30.4244693 132.8904399
v -168.5612100 -30.4750298 132.7973080
v -168.1400146 -30.3855521 132.7634797
v -167.6149837 -30.4821245 132.8343663
v -167.6677999 -30.4554482 132.7319630
v -167.2743822 -30.6909203 132.8050790
v -167.2475595 -30.7154049 132.6949108
v -166.9724062 -31.0867807 132.7674496
v -166.9735629 -31.0893691 132.6629832
v -166.8520850 -31.5708113 132.6253193
v -167.0021103 -32.2067120 132.6893137
v -166.9079059 -31.9730512 132.5987235
v -167.2933425 -32.5746689 132.6542425
v -167.0997606 -32.3632732 132.5637839
v -167.6900629 -32.7897387 132.6231252
v -167.4568082 -32.6874026 132.5351106
v -168.1460032 -32.8615052 132.5889021
v -167.8947773 -32.8424472 132.4986304
v -168.7310544 -32.6932693 132.5481862
v -168.4252273 -32.8226990 132.4634193
v -169.1247453 -32.3023569 132.5084375
v -168.9680202 -32.5029651 132.4185382
v -169.2976712 -31.9068269 132.4774343
v -169.2147091 -32.1370177 132.3837112
v -169.3257894 -31.7344432 132.3548709
v -169.2593379 -31.2073542 132.4272301
v -169.1576619 -30.9900519 132.3011105
v -168.9770345 -30.7474806 132.3924608
v -168.7757579 -30.5793053 132.2582694
v -168.2049254 -30.3914060 132.3265666
v -168.2750523 -30.3983852 132.2234213
v -167.8124349 -30.4146300 132.2984591
v -167.8370932 -30.4094221 132.1929686
v -167.3540273 -30.6239505 132.2606991
v -167.0507503 -30.9569963 132.2302388
v -166.8635173 -31.4127927 132.1939802
v -166.8496362 -31.6730352 132.0652792
v -167.2772580 -32.5544891 131.9986722
v -167.7015949 -32.7994464 131.9653206
v -168.2448520 -32.8555850 132.0338450
v -168.1839083 -32.8570067 131.9281548
v -168.6574957 -32.7177756 132.0015075
v -168.9616792 -32.5038901 131.9756459
v -168.8821273 -32.5719799 131.8739388
v -169.1876844 -32.1914937 131.9484641
v -169.2706572 -31.9911974 131.8241791
v -169.2958733 -31.2982236 131.8851787
v -169.3298672 -31.6344767 131.7965767
v -169.0652326 -30.8512128 131.7383259
v -167.4376104 -30.5699372 131.7174001
v -167.5288281 -30.5129033 131.6177108
v -166.8892382 -31.3342953 131.6515913
v -166.9366170 -31.1688262 131.5545474
v -166.8571232 -31.5955129 131.5246605
v -166.9156962 -32.0097867 131.4951453
v -167.0048422 -32.2149709 131.5860118
v -167.0911470 -32.3454422 131.4680256
v -167.3274350 -32.5939768 131.4421563
v -167.6654291 -32.7824993 131.5238602
v -168.1341938 -32.8618045 131.4920868
v -168.2651263 -32.8445672 131.3730658
v -168.8380552 -32.6091974 131.4366783
v -168.6300444 -32.7379285 131.3451962
v -169.1914827 -32.2080390 131.3967197
v -168.9427488 -32.5162106 131.3198235
v -169.1898958 -32.1951073 131.2926265
v -169.3338133 -31.6907131 131.2526884
v -169.2553905 -31.1952953 131.3256716
v -169.2707395 -31.2516857 131.2211736
v -169.0637069 -30.8493164 131.1895884
v -168.4848832 -30.4443491 131.2468348
v -167.9023891 -30.3897268 131.2064376
v -168.1682745 -30.3885723 131.1158922
v -167.7872780 -30.4207948 131.0881127
v -167.3404157 -30.6339659 131.0536694
v -166.8554009 -31.4661245 131.0906671
v -166.9002479 -31.2835016 130.9962797
v -166.9232455 -32.0268369 131.0533664
v -166.8598142 -31.7661277 130.9648406
v -167.0771406 -32.3256675 131.0284996
v -167.0139809 -32.2313847 130.9285770
v -167.3388663 -32.6051016 131.0005714
v -167.7157130 -32.7981759 130.9721391
v -167.3731254 -32.6363122 130.8905431
v -168.0925918 -32.8601295 130.9427037
v -167.8044625 -32.8229029 130.8561114
v -168.1772577 -32.8570627 130.8291614
v -168.6175253 -32.7501835 130.9065509
v -168.6022976 -32.7488032 130.7987386
v -169.0500145 -32.4075909 130.8665834
v -168.9250848 -32.5338320 130.7716448
v -169.2897347 -31.9480997 130.8305025
v -169.1509677 -32.2587182 130.7460818
v -169.3244785 -31.5367721 130.8004383
v -169.3250515 -31.7905797 130.7122370
v -169.2500619 -31.1896755 130.7760613
v -169.2530817 -31.1711319 130.6670706
v -169.0547964 -30.8422423 130.7453384
v -168.9334632 -30.7121855 130.6265226
v -168.4702033 -30.4438526 130.6974172
v -168.0279079 -30.3830446 130.6639289
v -168.4430143 -30.4255239 130.5843921
v -167.5006566 -30.5276782 130.6287971
v -167.9095331 -30.3977163 130.5514103
v -167.4910825 -30.5383260 130.5156420
v -167.1325945 -30.8380597 130.4835367
v -166.8555981 -31.6033840 130.5330015
v -166.9302007 -32.0592283 130.4972273
v -166.8495741 -31.5768448 130.4287596
v -166.9208494 -32.0126718 130.3928298
v -167.1942583 -32.4741779 130.4673738
v -167.1255570 -32.3987070 130.3629286
v -167.5317837 -32.7224586 130.4350946
v -167.4612098 -32.6854392 130.3327227
v -167.8948338 -32.8446917 130.4080654
v -167.8666748 -32.8395105 130.3046808
v -168.3742534 -32.8276249 130.3736550
v -168.3339636 -32.8363912 130.2698688
v -168.7918788 -32.6434099 130.3417780
v -168.7652067 -32.6612774 130.2367034
v -169.0220699 -32.4308918 130.3203934
v -169.2396338 -32.0807129 130.1814317
v -169.3002295 -31.3271689 130.2339799
v -169.3244689 -31.7218210 130.1547527
v -169.2719524 -31.2286394 130.1224039
v -168.9375593 -30.7057416 130.0724696
v -168.4001141 -30.4252432 130.1410558
v -168.4696287 -30.4437562 130.0376675
v -168.0017013 -30.3860659 130.1113029
v -167.4873932 -30.5349192 130.0797487
v -167.3784963 -30.6127108 129.9562675
v -167.1607916 -30.8099999 129.9356255
v -166.9669998 -31.1082754 129.9118111
v -166.8509813 -31.6034382 129.9827230
v -166.9503925 -32.1007442 129.9448573
v -167.2393824 -32.5268691 129.9109943
v -166.9515276 -32.1163006 129.8367273
v -167.6123639 -32.7584072 129.8795749
v -167.3445155 -32.6185683 129.7958793
v -167.8338865 -32.8311027 129.7564450
v -168.3311857 -32.8417825 129.7178112
v -168.7944368 -32.6421361 129.7928147
v -168.7541256 -32.6645543 129.6871668
v -169.2429227 -32.0746658 129.7393663
v -169.3283945 -31.6592975 129.7113759
v -169.3281002 -31.6470509 129.6001637
v -169.2954819 -31.3478699 129.6878505
v -169.2854494 -31.3020036 129.5753108
v -168.8004654 -30.5959259 129.6215978
v -168.8768184 -30.6655440 129.5208677
v -168.2524157 -30.3930155 129.5812168
v -168.4942512 -30.4498876 129.4901102
v -167.7952578 -30.4187645 129.5480611
v -168.0065978 -30.3834600 129.4563175
v -167.3710778 -30.6142592 129.5150802
v -167.5871272 -30.4941913 129.4237115
v -167.0406457 -30.9622736 129.4803780
v -167.2476936 -30.7150979 129.3952815
v -166.8543458 -31.5018362 129.4451466
v -166.9607149 -31.1120377 129.3619405
v -166.8537438 -31.5907829 129.3258467
v -166.9367354 -32.0748685 129.2898452
v -167.5227727 -32.7218021 129.3357217
v -167.8327501 -32.8310072 129.2050305
v -168.1960490 -32.8524510 129.1778122
v -168.9661527 -32.4956509 129.1160903
v -169.1984126 -32.1784974 129.1973269
v -169.1233371 -32.3028269 129.0975178
v -169.3113046 -31.8131638 129.1713046
v -169.3072396 -31.8755341 129.0680231
v -169.3205167 -31.5004289 129.0404047
v -169.1941823 -31.0453289 129.0053895
v -168.9242977 -30.7086332 129.0835952
v -168.5295315 -30.4574093 129.0522755
v -168.8794042 -30.6677585 128.9710604
v -168.4945220 -30.4500108 128.9414138
v -167.3550414 -30.6230894 128.9629405
v -167.0684405 -30.9299918 128.9349336
v -167.2783725 -30.6775239 128.8453168
v -166.8876073 -31.3311514 128.9042039
v -166.9532555 -31.1343268 128.8097414
v -166.8619716 -31.7681931 128.8711144
v -166.8538123 -31.5879715 128.7755096
v -167.0098789 -32.2245262 128.8379498
v -166.9373892 -32.0763847 128.7407963
v -167.3104708 -32.5826467 128.8042714
v -167.1751407 -32.4523229 128.7068900
v -167.7357211 -32.8102525 128.7680666
v -168.1533776 -32.8554059 128.7408190
v -167.8994364 -32.8474597 128.6516826
v -168.5765973 -32.7617879 128.7108449
v -168.3833050 -32.8254566 128.6161068
v -168.8825506 -32.5702041 128.6836418
v -168.7840209 -32.6465530 128.5833333
v -169.1202200 -32.3093110 128.6601891
v -169.3041768 -31.8902298 128.6260038
v -169.2746372 -32.0086868 128.5278769
v -169.3219964 -31.4562880 128.4891112
v -169.1629937 -30.9989519 128.4528435
v -168.8454625 -30.6404746 128.5275134
v -168.8332501 -30.6260438 128.4178581
v -168.4292796 -30.4330798 128.3851470
v -168.0332478 -30.3838461 128.3569762
v -167.6039342 -30.4827409 128.4342449
v -167.6797582 -30.4586007 128.3306834
v -167.3823156 -30.6086989 128.3075682
v -167.0723045 -30.9185629 128.2769776
v -166.8709635 -31.4002784 128.3484010
v -166.8929550 -31.9412905 128.3107898
v -166.9382771 -32.0923110 128.1937093
v -167.2933509 -32.5685647 128.2551652
v -167.2775677 -32.5550011 128.1478026
v -167.7190896 -32.8028460 128.2215361
v -167.6826517 -32.7906184 128.1170106
v -168.0901752 -32.8566215 128.1944589
v -168.5602439 -32.7746664 128.1617219
v -168.1663475 -32.8603285 128.0822398
v -168.9857874 -32.4774822 128.1243749
v -168.6697658 -32.7203938 128.0435723
v -169.0252703 -32.4314049 128.0109743
v -169.2305277 -32.1110691 128.0925919
v -169.2103845 -32.1471654 127.9885388
v -169.3302755 -31.6455427 128.0588471
v -169.3295526 -31.7034865 127.9529201
v -169.2536590 -31.1908280 128.0254178
v -169.2665454 -31.2276159 127.9220299
v -169.0604794 -30.8543840 127.9983330
v -168.7181080 -30.5499832 127.9669307
v -169.0389072 -30.8226724 127.8880276
v -168.7136896 -30.5522913 127.8590180
v -168.2742975 -30.3968959 127.9336824
v -168.2725265 -30.3940985 127.8240187
v -167.5783648 -30.4942184 127.8818163
v -167.8481407 -30.4106014 127.7946422
v -167.2487517 -30.7189346 127.8539255
v -167.4743507 -30.5479876 127.7678546
v -167.0932698 -30.8852548 127.7313591
v -166.9663508 -31.0931477 127.8191473
v -166.8533635 -31.6093648 127.7834440
v -166.8998415 -31.2930967 127.6987156
v -166.9172431 -32.0030203 127.7545092
v -166.8580133 -31.7291416 127.6666404
v -167.1313189 -32.4073029 127.7235044
v -167.1471682 -32.4260543 127.6123631
v -167.4165740 -32.6541413 127.6957703
v -167.5995039 -32.7633333 127.5684253
v -168.1365546 -32.8596128 127.5346471
v -168.7011280 -32.6952302 127.5998677
v -168.9896076 -32.4727510 127.5755982
v -169.0704997 -32.3749990 127.4560706
v -169.2404069 -32.0828762 127.4321912
v -169.3207678 -31.4622671 127.4949575
v -169.3308066 -31.6376810 127.4000316
v -169.1655744 -31.0029386 127.4625345
v -169.2423955 -31.1553201 127.3644752
v -168.9464351 -30.7311083 127.4370574
v -168.9961080 -30.7767441 127.3317974
v -168.2711271 -30.3935437 127.2767435
v -167.5862001 -30.4904267 127.3345901
v -167.7864703 -30.4211031 127.2395018
v -167.2038541 -30.7547921 127.2987696
v -167.3643203 -30.6191991 127.2070270
v -166.9073229 -31.2438950 127.2634854
v -167.0921832 -30.8963643 127.1798562
v -166.8817142 -31.3362816 127.1438167
v -166.8745628 -31.8504104 127.1069041
v -167.0995345 -32.3708532 127.0661116
v -167.4607066 -32.6874560 127.1410504
v -167.9644553 -32.8586928 127.1031042
v -167.8337129 -32.8281471 127.0043884
v -168.4584257 -32.8028248 127.0686912
v -168.1595550 -32.8564161 126.9813732
v -168.8550268 -32.5982125 127.0348059
v -168.5894650 -32.7559746 126.9517178
v -169.1990690 -32.1883526 127.0028434
v -169.3274475 -31.6936036 126.9618796
v -169.2986479 -31.8978710 126.8677705
v -169.2747321 -31.2526492 126.9312168
v -168.8416544 -30.6294663 126.7724634
v -168.0345802 -30.3838241 126.8171336
v -168.2628075 -30.3870260 126.7261861
v -167.5698580 -30.4957915 126.7812704
v -167.7501424 -30.4344372 126.6865999
v -167.2038318 -30.7607972 126.7500761
v -167.3949915 -30.5976407 126.6597881
v -166.9541987 -31.1316748 126.7181547
v -167.0520793 -30.9446438 126.6266011
v -166.8582195 -31.5346748 126.6884373
v -166.8867086 -31.8856145 126.6644098
v -166.8545705 -31.6774540 126.5708476
v -167.1178313 -32.3836343 126.5160855
v -167.9761884 -32.8548864 126.5521671
v -167.9442564 -32.8562525 126.4492903
v -168.5172786 -32.7906713 126.5176318
v -168.5302012 -32.7854223 126.4069047
v -168.8890734 -32.5637254 126.4831507
v -169.1299687 -32.2944193 126.4589069
v -169.2729152 -31.9840547 126.4335945
v -169.1789513 -32.2197718 126.3440236
v -169.3324303 -31.5655473 126.4030164
v -169.1750180 -31.0100788 126.3616638
v -169.2336507 -31.1349814 126.2657428
v -168.7678737 -30.5775830 126.3238165
v -168.7397921 -30.5654701 126.2075424
v -168.3311690 -30.4081091 126.1795466
v -167.4965410 -30.5393229 126.2258297
v -167.6739380 -30.4530336 126.1301566
v -167.1291858 -30.8346473 126.1945017
v -167.0076999 -31.0128926 126.0680020
v -166.8665366 -31.4672801 126.0350851
v -166.8736185 -31.8343335 126.0091770
v -167.1513578 -32.4276339 126.0699936
v -167.5272600 -32.7239308 126.0366411
v -167.9491602 -32.8503304 126.0062732
v -167.6522429 -32.7815856 125.9202095
v -168.4316419 -32.8184480 125.9702682
v -168.1068206 -32.8582598 125.8861549
v -168.4948505 -32.7911263 125.8585505
v -168.8912804 -32.5669679 125.9339925
v -168.8542119 -32.5969161 125.8286894
v -169.1504813 -32.2618661 125.9062184
v -169.0980355 -32.3382323 125.8026420
v -169.3073422 -31.8620575 125.8732901
v -169.2817356 -31.9698831 125.7746255
v -169.3272487 -31.5990736 125.7462851
v -169.2734314 -31.2608686 125.7230755
v -169.0633464 -30.8524628 125.7982351
v -168.6938675 -30.5361062 125.7667447
v -168.1413005 -30.3797610 125.7240062
v -168.2843561 -30.3955416 125.6232146
v -167.7147438 -30.4453620 125.6933372
v -167.3763720 -30.6129736 125.6662857
v -167.7059162 -30.4369497 125.5855162
v -167.1037073 -30.8793406 125.6397851
v -167.2601441 -30.7082522 125.5474017
v -166.9231570 -31.2179579 125.6116875
v -166.9941133 -31.0438958 125.5183388
v -166.8562774 -31.5935350 125.5843615
v -166.9149100 -32.0068337 125.5541705
v -167.1626450 -32.4404886 125.4102033
v -167.5552096 -32.7341188 125.4843887
v -167.5069178 -32.7110662 125.3806846
v -168.0111598 -32.8623822 125.4532723
v -168.4950700 -32.7909379 125.4149390
v -168.2479941 -32.8514266 125.3298594
v -168.6889172 -32.7053257 125.3305244
v -168.8166993 -32.6215077 125.3897319
v -169.0609470 -32.4049018 125.3466638
v -165.8400252 -31.7448485 134.9999454
v -165.9874710 -32.4010218 134.9999453
v -166.2402239 -32.8976806 134.9999454
v -165.9687882 -30.8607872 134.9999453
v -166.3280587 -30.2305716 134.9999453
v -166.5075501 -33.2061645 134.9999453
v -166.8822994 -33.5251942 134.9999453
v -166.8584206 -29.7333307 134.9999453
v -167.7165353 -33.8456613 134.9999454
v -167.6879429 -29.4025187 134.9999454
v -168.6093500 -33.8170139 134.9999453
v -168.5815909 -29.4197144 134.9999454
v -169.4213286 -33.4438834 134.9999454
v -169.3496186 -29.7532277 134.9999453
v -170.0247248 -32.7846211 134.9999454
v -169.9478801 -30.3394476 134.9999452
v -170.2995621 -32.0524782 134.9999453
v -170.3147912 -31.2151730 134.9999453
v -166.3616208 -33.0455158 136.9077365
v -165.8710062 -31.9230994 136.9066685
v -165.9186875 -31.0962022 136.9363172
v -166.1054088 -30.5728991 136.8758638
v -166.4025648 -30.1540716 136.9116293
v -167.4246721 -29.4819798 136.8922764
v -167.8175652 -29.4079984 136.9550976
v -168.8681166 -29.5197074 136.8997990
v -169.3109567 -29.7385642 136.8952012
v -169.7446570 -30.1039095 136.8877477
v -170.0291919 -30.4914437 136.8737292
v -170.1581771 -30.7654609 136.9138991
v -170.2734390 -31.1405535 136.9445106
v -170.3182047 -31.3712074 136.8949803
v -170.2705363 -32.1106057 136.9450019
v -170.1923580 -32.4022792 136.8802001
v -170.0121109 -32.7832273 136.8785328
v -169.8000080 -33.0582668 136.9471359
v -169.5122319 -33.3530336 136.9092797
v -169.1852857 -33.5764118 136.9122881
v -168.3071414 -33.8532171 136.8837921
v -167.9252043 -33.8561177 136.8784061
v -166.9654013 -33.5568031 136.9260669
v -166.5228006 -33.2212779 136.8259622
v -166.5237581 -33.2202521 136.8603308
v -166.4172357 -33.0420005 137.0236036
v -166.5902235 -33.0978252 137.1420732
v -166.1477445 -32.6231366 137.0475725
v -166.8164933 -33.0510526 137.2371116
v -166.0923625 -32.6356094 136.8812697
v -166.3088912 -32.7375907 137.1409507
v -165.9729706 -32.3147484 136.9565972
v -166.4310223 -32.6136099 137.2340347
v -166.2117349 -32.3476928 137.2019973
v -165.9905585 -32.0462204 137.1046811
v -165.9477427 -31.5349386 137.1039608
v -165.8587209 -31.4879509 136.9119876
v -166.1992692 -31.8337591 137.2371576
v -166.0583091 -31.6899614 137.1930174
v -166.0524121 -31.0983471 137.1405707
v -166.2422338 -31.0803578 137.2352057
v -166.1060961 -30.7167290 137.0537664
v -166.2311861 -30.7614754 137.1815954
v -166.3044286 -30.3352574 137.0110993
v -166.5039085 -30.4956876 137.2299171
v -166.3742352 -30.4172203 137.1450244
v -166.5900737 -30.1036407 137.1119862
v -166.7004299 -29.9195235 137.0216757
v -166.6816857 -29.8820974 136.9071295
v -167.0162756 -29.6549854 136.8880663
v -166.8157363 -30.0417037 137.1910681
v -167.0690128 -29.6649437 137.0002106
v -167.0504602 -29.7657150 137.1178312
v -167.4801173 -29.5237837 137.0473701
v -167.4510439 -29.6039165 137.1277605
v -166.9678880 -30.0883452 137.2403681
v -167.2696897 -29.8214477 137.2194142
v -167.7781328 -29.5762875 137.1682575
v -168.2056552 -29.3830957 136.8917372
v -168.2286516 -29.4224134 137.0085234
v -168.0221953 -29.6283557 137.2107460
v -168.5428590 -29.4314908 136.9146680
v -168.1861127 -29.4888414 137.1120299
v -168.8458972 -29.5596795 137.0241437
v -168.5918095 -29.5382377 137.1039332
v -169.0506989 -29.7309160 137.1277017
v -168.5610640 -29.6754626 137.2082629
v -169.1732266 -29.7343294 137.0601466
v -168.4028113 -29.7354309 137.2392959
v -169.5071918 -29.9503694 137.0419644
v -169.4360135 -29.9673464 137.1140500
v -169.1366124 -29.9176987 137.2094554
v -169.3549243 -30.2084481 137.2389632
v -169.5880346 -30.2050336 137.1741278
v -169.7577632 -30.2188998 137.0537330
v -169.9756212 -30.4664759 136.9981830
v -169.9169799 -30.5423746 137.1275342
v -169.8786278 -30.6817789 137.1971822
v -170.1385834 -30.8706363 137.0500212
v -169.6825500 -30.5472784 137.2363982
v -170.1309584 -31.0559875 137.1327681
v -169.9782371 -31.1988767 137.2340625
v -170.3267499 -31.7474898 136.9053889
v -170.2740732 -31.6054494 137.0536041
v -170.1362116 -31.4585122 137.1829044
v -170.2412447 -31.8986126 137.0728836
v -170.1355484 -31.8477409 137.1778103
v -169.9740279 -32.0680620 137.2318286
v -170.1003929 -32.3607890 137.1064524
v -170.0844643 -32.5643969 137.0112058
v -169.8889117 -32.7872660 137.1009053
v -169.9193723 -32.5454137 137.1856260
v -169.7344731 -32.5945552 137.2381044
v -169.5657017 -33.2296402 137.0478293
v -169.6437295 -33.0571253 137.1328825
v -169.5277135 -32.9074536 137.2358592
v -169.3738344 -33.2412628 137.1705720
v -169.1866835 -33.5108141 137.0494010
v -168.7409494 -33.7167726 137.0273650
v -168.7519673 -33.7632039 136.8949031
v -169.0429642 -33.4128999 137.1946459
v -169.0029722 -33.5485054 137.1160108
v -168.7177234 -33.4268525 137.2385368
v -168.5225771 -33.6247715 137.1815710
v -168.2881931 -33.8207668 137.0089283
v -168.3728770 -33.7287308 137.1229345
v -167.7557940 -33.8002224 137.0093444
v -168.0954274 -33.6279792 137.2050780
v -167.4853327 -33.7822689 136.8848568
v -167.6990336 -33.7397509 137.0956938
v -167.3416246 -33.7084169 136.9777325
v -167.6370128 -33.6237300 137.1788854
v -167.3031607 -33.4695686 137.2021474
v -167.2185667 -33.5725863 137.1060495
v -167.6131691 -33.4734968 137.2370500
v -166.7294622 -33.3992727 136.9011468
v -166.7631566 -33.3632813 137.0348157
v -166.9418318 -33.3975955 137.1296455
v -166.9067040 -33.2394304 137.2049967
v -166.9024218 -31.9403330 137.2410000
v -167.2211777 -30.7506155 137.2410000
v -167.7733415 -32.8113017 137.2410000
v -168.4109217 -30.4317983 137.2410000
v -168.9630855 -32.4924845 137.2410000
v -169.2819098 -31.3027670 137.2410000
v -166.9024218 -31.9403330 135.8113424
v -167.2211777 -30.7506155 135.8113424
v -167.7733415 -32.8113017 135.8113424
v -168.9630855 -32.4924845 135.8113424
v -169.2819098 -31.3027670 135.8113424
v -168.4109217 -30.4317983 135.8113424
v -167.4019044 -30.9346396 134.1201680
v -167.5011743 -32.3950527 133.9697889
v -168.9874106 -31.2202041 133.7404045
v -167.7941950 -30.6863243 133.6117586
v -167.4329086 -30.9036471 133.5722751
v -167.3289614 -32.2266587 133.4427380
v -167.6005079 -32.4629279 133.4085296
v -167.9553414 -32.5857458 133.3773189
v -168.7765762 -30.9181003 133.1548141
v -168.0537207 -30.6495805 133.0858967
v -167.7294313 -30.7162299 133.0544132
v -167.2345741 -31.1432497 132.9967349
v -167.1716083 -31.9398920 132.9232439
v -168.1918806 -32.6011260 132.8053231
v -168.6479267 -32.4235198 132.7603231
v -168.8867728 -32.1840964 132.7297235
v -169.0443873 -31.4273252 132.6591139
v -167.1871911 -31.2665944 132.4345035
v -167.9054264 -32.5865772 132.2810630
v -168.9090530 -32.1530239 132.1770468
v -169.0436966 -31.8312532 132.1463826
v -167.2194368 -31.1892988 134.0930637
v -166.8783345 -31.8690866 134.2562199
v -167.1187815 -31.5635631 134.0586719
v -167.0275336 -32.2473623 134.2259312
v -167.1994775 -32.0323668 134.0146872
v -167.2851671 -32.5618580 134.1967058
v -167.7742507 -32.8257852 134.1591760
v -167.8120965 -32.5545271 133.9383175
v -168.2574879 -32.5899642 133.8994549
v -168.7059533 -32.3855966 133.8552591
v -168.9665992 -32.0486634 133.8163142
v -169.0674721 -31.6549258 133.7786627
v -168.7161535 -30.8712730 133.7012910
v -168.2574950 -30.6580005 133.6539117
v -167.3772781 -30.6068475 133.8083299
v -167.1920837 -31.2412080 133.5356435
v -167.1243851 -31.7998520 133.4881112
v -168.6169430 -32.7414115 133.5462493
v -168.4140327 -32.5502498 133.3352903
v -168.9911951 -32.4750149 133.5160519
v -168.8589216 -32.2368844 133.2856322
v -169.0649951 -31.7286442 133.2358134
v -169.0112533 -31.2994026 133.1975743
v -168.3995004 -30.6968681 133.1171334
v -167.4656299 -30.8805926 133.0266806
v -167.1189580 -31.5799307 132.9568626
v -167.4380328 -32.3454446 132.8783943
v -169.2465772 -32.0582102 132.9304461
v -169.3267331 -31.7171348 132.9029309
v -169.0500313 -31.8150736 132.6932264
v -169.2728492 -31.2312379 132.8704744
v -168.9389713 -31.1377123 132.6308044
v -168.2400052 -30.6576726 132.5521038
v -167.8621337 -30.6745315 132.5171937
v -167.4415091 -30.8841965 132.4762530
v -167.1175821 -31.5704481 132.4079531
v -167.2264578 -32.0783825 132.3601107
v -167.4981736 -32.3940491 132.3195892
v -168.6419176 -32.4236046 132.2123485
v -168.3546936 -32.5609439 132.2409352
v -169.0383327 -31.3787213 132.1027352
v -168.5532241 -30.7648783 132.0327205
v -167.8059774 -32.5515986 131.7410951
v -168.5337602 -32.4873559 131.6731778
v -169.0592890 -31.7989549 131.5941102
v -168.8323244 -30.9905553 131.5152038
v -167.1418076 -31.4106232 131.3211370
v -167.8988179 -32.5854892 131.1836982
v -168.7854614 -32.3034086 131.0949662
v -169.0422292 -31.3835738 131.0023974
v -167.3235257 -31.0122542 130.8105287
v -167.2464845 -32.1067103 130.7065981
v -168.5332361 -32.5008811 130.5740921
v -167.9406064 -30.6508068 130.3260556
v -167.1571706 -31.3226971 130.2294055
v -167.3634562 -32.2716436 130.1389499
v -169.2931042 -31.3357495 132.3285985
v -168.8304214 -30.9814549 132.0657424
v -168.1694833 -30.6467690 131.9963404
v -167.7673644 -30.7038794 131.9595612
v -167.4916543 -30.5437971 132.1671689
v -167.2116092 -30.7528240 132.1396437
v -166.9579831 -31.1178604 132.1113104
v -167.3293884 -30.9951736 131.9117256
v -167.1169916 -31.5309264 131.8598352
v -166.9932584 -32.1932647 132.0323907
v -167.1605429 -31.9032187 131.8263141
v -167.4101600 -32.3327392 131.7811105
v -168.5645699 -32.7628216 131.9022032
v -168.1455241 -32.5965887 131.7081944
v -169.1225278 -32.3054991 131.8489580
v -168.7932814 -32.3000769 131.6455981
v -169.2711610 -31.2531742 131.7723958
v -169.0104540 -31.2875231 131.5454847
v -168.6923267 -30.5379486 131.7052265
v -168.3499710 -30.4160717 131.6789912
v -168.5617676 -30.7670347 131.4835513
v -168.0296379 -30.3844141 131.6567132
v -167.6714692 -30.7424900 131.4016343
v -167.1556284 -30.8162715 131.5869617
v -167.3178871 -31.0132022 131.3601620
v -167.1310715 -31.7856129 131.2873027
v -167.2706370 -32.1419228 131.2524653
v -167.6122013 -32.7567170 131.4210486
v -167.5001865 -32.3973269 131.2216655
v -167.9204108 -32.8465376 131.3972054
v -168.4681257 -32.5247094 131.1280732
v -169.0256696 -31.9393645 131.0547890
v -168.7906533 -30.9342604 130.9595771
v -168.6123566 -30.4921645 131.1435407
v -168.3956296 -30.6949268 130.9175314
v -168.0614874 -30.6487041 130.8870684
v -167.6836289 -30.7361741 130.8501323
v -167.0886097 -30.9023678 131.0274454
v -167.1655241 -31.3326023 130.7798938
v -167.1139851 -31.6924917 130.7454219
v -167.5370683 -32.4303240 130.6674940
v -168.9056160 -32.1589505 130.5296366
v -169.0702876 -31.7212374 130.4859676
v -168.9607048 -31.1727335 130.4354542
v -168.6965620 -30.8554492 130.3996431
v -168.3641731 -30.6870441 130.3643856
v -167.4654660 -30.8639221 130.2792637
v -166.9369641 -31.1876875 130.4552709
v -167.1425370 -31.8745180 130.1801269
v -169.0432375 -30.8310009 131.8453266
v -168.7110553 -30.5485819 131.8138201
v -168.2723215 -30.3961303 131.7799039
v -167.8578478 -30.4072479 131.7501198
v -167.0813782 -30.9019933 131.6831230
v -166.8623187 -31.7690350 131.6199393
v -167.2960361 -32.5704685 131.5541121
v -168.5142018 -32.7816590 131.4618172
v -169.3299975 -31.6674686 131.3594458
v -169.0902089 -30.8961985 131.3003595
v -168.8585890 -30.6528143 131.2785233
v -168.0996890 -30.6414242 131.4397473
v -167.3926388 -30.5993634 131.1652569
v -167.0625627 -30.9330123 131.1319025
v -168.7858628 -30.6014387 130.7207429
v -167.0951460 -30.8866599 130.5862693
v -166.9202343 -31.2318413 130.5574489
v -167.9994953 -32.5951955 130.6211437
v -169.2046283 -32.1670132 130.2936480
v -169.3153106 -31.7900671 130.2676555
v -169.0582619 -30.8464025 130.1966660
v -168.7443569 -30.5707665 130.1651546
v -167.1213400 -30.8552365 130.0375713
v -166.9350754 -31.1896031 130.0120914
v -167.0310179 -30.9922726 133.8769235
v -169.1198315 -32.3075522 133.6084170
v -169.3201277 -31.8305620 133.5693690
v -169.1032681 -30.8978204 133.5048202
v -166.8552049 -31.5564496 133.2845784
v -166.9194564 -32.0203107 133.2509785
v -167.1850562 -32.4722830 133.2146816
v -168.2378840 -32.8480522 133.1314104
v -169.3021694 -31.8951985 133.0238717
v -169.3154076 -31.4384330 132.9926343
v -169.1801168 -31.0296322 132.9610511
v -168.0098064 -30.3854130 132.8632842
v -166.8463754 -31.6571286 132.7274102
v -167.7646529 -32.5384255 132.8439447
v -169.3251453 -31.5738740 132.4515592
v -168.7051758 -30.8631692 132.5993897
v -168.5658435 -30.4791164 132.3501095
v -166.9042071 -31.9722425 132.1543497
v -167.1663872 -32.4558934 132.1146089
v -167.6856696 -32.7941494 132.0731123
v -169.3050212 -31.8699558 131.9241920
v -168.5519974 -30.7625557 129.8323597
v -168.0940526 -30.6377469 129.7907273
v -167.1153583 -31.5418775 129.6569386
v -167.5165129 -30.8382142 129.1848847
v -167.5552986 -32.4441252 129.0150036
v -168.8102420 -30.9656292 128.7622315
v -167.1707548 -31.9490078 128.5216294
v -168.6054143 -32.4612327 128.3673661
v -169.0696218 -31.5078615 128.2675951
v -167.9349119 -32.8482501 129.8550899
v -168.2098658 -32.5998369 130.0542339
v -168.3643578 -32.8297281 129.8239648
v -168.6875052 -32.3968209 130.0069933
v -169.0254882 -31.9415644 129.9555200
v -169.0518540 -32.3986940 129.7650980
v -169.0544382 -31.4648362 129.9139596
v -169.1734363 -31.0172343 129.6602131
v -168.8612180 -31.0162814 129.8686687
v -167.6177612 -30.7710823 129.7454680
v -167.2877413 -31.0637875 129.7043868
v -166.9212547 -32.0258323 129.4008813
v -167.1512335 -32.4271041 129.3696628
v -167.3420371 -32.2410371 129.5932171
v -167.6482522 -32.4921728 129.5554938
v -167.9291439 -32.8474376 129.3059998
v -168.1975613 -32.6002096 129.5084849
v -168.3632101 -32.8299790 129.2730574
v -168.6567537 -32.4146560 129.4605827
v -168.8539916 -32.6063774 129.2345908
v -168.8937195 -32.1758646 129.4289851
v -169.0464972 -31.8232232 129.3946132
v -169.3193780 -31.4537253 129.1433892
v -169.0366851 -31.3747973 129.3551516
v -169.1756202 -31.0212730 129.1110208
v -168.8462115 -31.0048851 129.3175179
v -168.4769802 -30.7188786 129.2734243
v -168.0086375 -30.3856529 129.0127886
v -167.8900017 -30.6600413 129.2225809
v -167.6827237 -30.4590609 128.9890054
v -167.2226714 -31.1639296 129.1420337
v -167.1198097 -31.7164452 129.0942634
v -167.2438451 -32.1050948 129.0572480
v -168.3342959 -32.5659055 128.9432287
v -168.8270477 -32.2725645 128.8880641
v -169.0502008 -31.8131253 128.8439828
v -169.3145443 -31.4335943 128.5938077
v -169.0201732 -31.3116971 128.8006398
v -169.1604835 -30.9903210 128.5578370
v -168.4558276 -30.7008739 128.7232118
v -168.4943181 -30.4521528 128.4979762
v -168.0630693 -30.3833063 128.4664450
v -167.7719032 -30.6875294 128.6591763
v -167.3706688 -30.9648360 128.6173084
v -167.2230341 -30.7394014 128.4002804
v -167.0063580 -31.0357134 128.3738426
v -167.1231068 -31.4673767 128.5647060
v -167.3961637 -32.3026263 128.4849379
v -167.0684017 -32.3101922 128.2798463
v -167.6629562 -32.4967465 128.4552613
v -168.1272303 -32.5998577 128.4109949
v -168.9875729 -32.0151511 128.3129197
v -168.8481972 -31.0006619 128.2161543
v -168.2205638 -30.6543613 128.1520639
v -168.9651030 -32.0669950 127.7688901
v -168.9275240 -31.1215874 127.6808891
v -168.3771588 -30.6900783 127.6160966
v -167.5862600 -30.7820292 127.5430148
v -167.2085345 -32.0496582 127.4127957
v -167.8863656 -30.6570579 127.0214754
v -167.1163375 -31.6903896 126.8944102
v -167.9740120 -32.5867738 126.7763746
v -168.7512610 -32.3475821 126.7012058
v -168.2600711 -30.6529324 126.5059603
v -167.1446539 -31.3568453 126.3775396
v -167.5132657 -32.4050102 126.2719317
v -167.9144326 -30.4008291 127.9060767
v -167.5279563 -30.8253179 128.0848296
v -167.3070920 -31.0500050 128.0568429
v -167.1443698 -31.3881497 128.0219413
v -167.1318237 -31.7893321 127.9865622
v -167.2594642 -32.1261500 127.9549864
v -168.0662463 -32.6049481 127.8676445
v -167.7404449 -32.8092031 127.6692429
v -168.2606152 -32.8533241 127.6329766
v -168.5094139 -32.5029347 127.8257723
v -169.1809690 -32.2020766 127.5488056
v -169.3059977 -31.8598381 127.5251952
v -169.0511641 -31.4419012 127.7106057
v -168.6975481 -30.8572964 127.6494095
v -168.6580189 -30.5196490 127.4106022
v -168.0118805 -30.6509218 127.5827716
v -168.1544620 -30.3794662 127.3741172
v -167.2788217 -31.0844547 127.5027517
v -167.1142627 -31.5153762 127.4631573
v -166.8650283 -31.8055179 127.2170932
v -167.0189090 -32.2359246 127.1868491
v -167.2234753 -32.4964877 127.1625232
v -168.4257232 -32.5444777 127.2833591
v -168.8213496 -32.2699039 127.2414929
v -168.9920297 -31.9939698 127.2114480
v -169.0714001 -31.5788989 127.1753976
v -168.9008718 -31.0540574 127.1244404
v -169.0540989 -30.8412345 126.8960907
v -168.4217252 -30.6998482 127.0698236
v -168.6269987 -30.4958586 126.8566768
v -167.3598551 -30.9717491 126.9646012
v -167.0093376 -32.2228998 126.6365351
v -167.3038975 -32.5769421 126.6043325
v -167.6124379 -32.4749391 126.8106686
v -167.6173920 -32.7601996 126.5781189
v -168.3450022 -32.5645132 126.7414557
v -169.0040048 -31.9696038 126.6599837
v -169.0668083 -31.6337668 126.6290114
v -168.9836883 -31.2167446 126.5917307
v -168.6891740 -30.8511480 126.5467415
v -168.2637656 -30.3948421 126.2813894
v -167.7381646 -30.7089230 126.4578814
v -167.8452542 -30.4096639 126.2499658
v -167.3746619 -30.9605845 126.4172582
v -166.8918197 -31.3159088 126.1535533
v -166.8597062 -31.7246581 126.1222965
v -166.9550772 -32.1039899 126.0966558
v -167.2929125 -32.1778933 126.2999213
v -167.9528599 -32.5912574 126.2282733
v -168.5090515 -32.5152959 126.1762518
v -168.9406591 -32.0964508 125.5730679
v -169.0640418 -31.7132575 125.5341087
v -168.9805167 -31.2022468 125.4867710
v -168.5865653 -30.7693774 125.4357656
v -168.5869692 -30.5581097 125.2624008
v -167.6736554 -30.7332431 125.3552193
v -167.6739055 -30.5748626 125.2254503
v -167.5612023 -30.6334013 125.2200335
v -167.6166648 -30.6024907 125.2226485
v -167.1762864 -30.9985090 125.1982142
v -167.3060335 -31.0487820 125.3087096
v -167.1165191 -31.4793757 125.2665589
v -167.4102733 -30.7370942 125.2122314
v -167.2425631 -32.1236468 125.2081128
v -167.0401436 -31.7972310 125.1607483
v -167.1769767 -32.1413975 125.1440751
v -167.6188163 -32.4755791 125.1598110
v -167.4756122 -32.4522428 125.1251842
v -168.0622622 -32.5990063 125.1197546
v -167.9876663 -32.6315528 125.0989446
v -168.4442921 -32.5340072 125.0803150
v -168.4676837 -32.5154623 125.0812518
v -168.5015357 -32.5004857 125.0778896
v -168.5347722 -32.4842097 125.0745275
v -168.5674616 -32.4665660 125.0711653
v -168.7407268 -32.2641825 125.0021695
v -168.9616374 -32.0766459 126.1193180
v -169.0647124 -31.6314780 126.0791791
v -169.3027178 -31.3374860 125.8352866
v -168.9849804 -31.2237724 126.0388669
v -168.7786875 -30.9321703 126.0092174
v -168.2147221 -30.6557344 125.9516903
v -167.7938730 -30.6933270 125.9134356
v -167.3749424 -30.9444518 125.8697206
v -167.2580441 -32.1266144 125.7556429
v -167.5778624 -32.4594817 125.7131976
v -167.1736520 -32.4598693 125.5170810
v -168.0840476 -32.5999894 125.6640600
v -168.6354274 -32.4415410 125.6146351
v -168.4279417 -32.4649395 124.9999099
v -167.9691449 -32.5282255 124.9999104
v -167.5564711 -32.3541834 124.9999897
v -168.5091747 -32.5866814 125.1467575
v -167.2888306 -32.0510973 124.9999744
v -167.0231694 -31.4421605 125.1761480
v -167.1816425 -31.6146547 124.9999756
v -167.3391125 -31.0818982 124.9997737
v -167.7619540 -30.7732541 124.9999352
v -167.8414162 -30.5110724 125.2328315
v -168.2833350 -30.7215752 124.9998418
v -168.1867451 -30.4714540 125.2481726
v -168.7104042 -30.9575200 124.9999697
v -169.0078266 -30.8481924 125.2858166
v -168.9198314 -31.2499295 124.9999730
v -169.2456734 -31.2581614 125.3032067
v -168.9984162 -31.6019268 124.9999696
v -169.3112844 -31.5610934 125.3163258
v -168.9441461 -31.9316956 124.9999410
v -169.2619226 -32.0387942 125.3339832
v -168.0069565 -30.3914461 126.1558497
v -167.3067658 -30.6683417 126.1027568
v -167.1405624 -31.3994539 125.8250175
v -167.1284690 -31.7555716 125.7919995
v -167.0050395 -32.2161080 125.9758665
v -167.2945980 -32.5650729 125.9471348
v -169.0513596 -30.8302913 125.6874150
v -168.6833891 -30.5369832 125.6550665
v -168.1466790 -30.6489128 125.3965699
v -166.8497625 -31.5899385 125.4748978
v -166.9418542 -32.0761647 125.4399027
v -167.8496062 -32.8326141 125.3550388
v -168.9334783 -32.5248411 126.3715439
v -169.3337772 -31.6822956 126.3019916
v -169.0073058 -30.7939022 126.2348807
v -168.5244988 -30.7492707 125.9810518
v -167.8839520 -30.6701639 128.1228054
v -166.9165347 -31.2473738 128.2519670
v -166.8555179 -31.5920810 128.2242258
v -167.5264594 -32.4192331 127.9198785
v -168.7388286 -32.3426892 127.8014481
v -169.0551978 -31.7425886 127.7397581
v -166.9597918 -32.1123817 127.6383829
v -167.4963945 -32.3932382 127.3741524
v -167.8768659 -32.5764785 127.3360756
v -168.4996913 -32.7861188 127.5074206
v -168.8222557 -32.6222575 127.4823853
v -168.6941803 -30.5429207 127.3056593
v -167.1691279 -31.3235111 126.9318518
v -167.2628917 -32.1375255 126.8554255
v -167.4996205 -32.7094393 127.0304094
v -168.8903867 -32.5616890 126.9247816
v -169.1233315 -32.3069981 126.9001545
v -169.3194470 -31.4383896 126.8369550
v -169.1576716 -30.9933808 126.8025013
v -166.9017849 -31.2967218 126.5981105
v -167.1406108 -31.8309710 126.3342107
v -166.9479955 -32.0871564 126.5408869
v -167.4719013 -32.6943627 126.4810403
v -167.6390418 -32.4837881 130.1078292
v -169.0519348 -32.3996712 130.2092545
v -168.1280354 -30.3882967 130.0138188
v -167.7685660 -30.4258930 129.9886612
v -166.8522369 -31.5688485 129.8783291
v -167.2047540 -32.0303902 129.6136411
v -169.0388967 -32.4166053 129.6620986
v -169.2472022 -32.0687342 129.6311838
v -169.1565431 -30.9909761 129.5505383
v -167.1784634 -32.4557449 129.2568911
v -167.4769614 -32.6927100 129.2315221
v -167.9741231 -32.5880563 128.9764464
v -168.6135504 -32.7475015 129.1494967
v -168.1163532 -30.3867187 128.9140788
v -167.7477674 -30.4336857 128.8864078
v -167.4732835 -32.6906574 128.6831479
v -169.0392328 -32.4129112 128.5607156
v -168.5310775 -30.7529585 128.1821373
f 2 41 1
f 3 2 1
f 3 1 4
f 5 3 4
f 7 5 4
f 7 4 6
f 9 7 6
f 9 6 8
f 10 9 8
f 10 8 11
f 13 10 11
f 13 11 12
f 13 12 14
f 15 13 14
f 606 15 14
f 606 14 16
f 18 606 16
f 17 606 18
f 22 606 17
f 18 16 19
f 23 18 19
f 23 19 21
f 26 22 20
f 593 23 21
f 593 21 25
f 27 26 24
f 595 593 25
f 30 27 28
f 597 25 29
f 597 595 25
f 33 30 28
f 598 29 32
f 598 597 29
f 35 33 31
f 598 32 34
f 38 35 36
f 39 598 34
f 39 34 37
f 609 38 40
f 43 39 37
f 43 37 41
f 611 609 42
f 2 43 41
f 17 721 22
f 721 20 22
f 20 24 26
f 24 28 27
f 28 31 33
f 31 36 35
f 36 40 38
f 40 42 609
f 722 611 42
f 44 611 722
f 44 722 723
f 45 44 723
f 46 45 723
f 47 45 46
f 724 47 46
f 49 47 724
f 48 49 724
f 51 49 48
f 50 51 48
f 53 51 50
f 52 53 50
f 55 53 52
f 54 55 52
f 57 55 54
f 56 57 54
f 59 57 56
f 58 59 56
f 725 59 58
f 60 59 725
f 726 60 725
f 61 60 726
f 727 61 726
f 62 61 727
f 64 62 727
f 63 64 727
f 65 64 63
f 728 65 63
f 67 65 728
f 66 67 728
f 69 67 66
f 68 69 66
f 71 69 68
f 70 71 68
f 619 71 70
f 619 70 729
f 620 619 729
f 730 620 729
f 622 620 730
f 731 622 730
f 73 622 731
f 72 73 731
f 75 73 72
f 74 75 72
f 76 75 74
f 732 76 74
f 78 76 732
f 77 78 732
f 79 78 77
f 80 78 79
f 81 80 79
f 82 80 81
f 83 82 81
f 733 83 81
f 85 83 733
f 84 85 733
f 87 85 84
f 86 87 84
f 89 87 86
f 88 89 86
f 91 89 88
f 90 91 88
f 93 91 90
f 92 93 90
f 95 93 92
f 95 92 94
f 97 95 94
f 97 94 96
f 98 97 96
f 98 96 735
f 648 98 735
f 648 735 99
f 100 648 99
f 101 100 99
f 102 100 101
f 737 102 101
f 104 102 737
f 103 104 737
f 106 104 103
f 105 106 103
f 652 106 105
f 107 652 105
f 653 652 107
f 108 653 107
f 654 653 108
f 109 654 108
f 110 654 109
f 738 110 109
f 657 110 738
f 739 657 738
f 111 657 739
f 740 111 739
f 112 111 740
f 113 112 740
f 114 112 113
f 660 114 113
f 115 660 113
f 117 660 115
f 116 117 115
f 662 117 116
f 118 662 116
f 119 662 118
f 741 119 118
f 121 119 741
f 120 121 741
f 664 121 120
f 122 664 120
f 697 122 120
f 698 122 697
f 666 122 698
f 699 666 698
f 667 666 699
f 669 667 699
f 700 669 699
f 124 669 700
f 123 124 700
f 671 124 123
f 701 671 123
f 126 671 701
f 125 126 701
f 127 126 125
f 702 127 125
f 128 127 702
f 129 128 702
f 130 128 129
f 703 130 129
f 131 130 703
f 132 131 703
f 675 131 132
f 677 675 132
f 133 677 132
f 134 677 133
f 704 134 133
f 136 134 704
f 135 136 704
f 138 136 135
f 138 135 137
f 139 138 137
f 140 139 137
f 705 140 137
f 141 140 705
f 142 140 141
f 143 142 141
f 706 143 141
f 707 143 706
f 681 143 707
f 144 681 707
f 146 681 144
f 145 146 144
f 147 146 145
f 709 147 145
f 148 147 709
f 710 148 709
f 685 148 710
f 150 685 710
f 149 150 710
f 152 150 149
f 151 152 149
f 154 152 151
f 153 154 151
f 157 154 153
f 155 157 153
f 156 157 155
f 159 157 156
f 158 159 156
f 160 159 158
f 160 158 161
f 162 160 161
f 164 162 161
f 163 164 161
f 166 164 163
f 165 166 163
f 168 166 165
f 167 168 165
f 170 168 167
f 169 170 167
f 170 169 171
f 172 170 171
f 172 171 711
f 175 172 711
f 175 711 173
f 175 173 174
f 177 175 174
f 176 177 174
f 178 177 176
f 179 178 176
f 712 179 176
f 695 179 712
f 713 695 712
f 182 695 713
f 180 182 713
f 181 182 180
f 183 182 181
f 185 183 181
f 185 181 184
f 187 185 184
f 186 187 184
f 189 187 186
f 188 189 186
f 191 189 188
f 190 191 188
f 193 191 190
f 192 193 190
f 966 192 194
f 966 193 192
f 715 966 194
f 195 966 715
f 195 715 716
f 197 195 716
f 196 197 716
f 198 197 196
f 717 198 196
f 199 198 717
f 718 199 717
f 201 199 718
f 200 201 718
f 967 201 200
f 202 967 200
f 968 967 202
f 203 968 202
f 204 968 203
f 205 204 203
f 719 205 203
f 206 205 719
f 720 206 719
f 969 206 720
f 207 969 720
f 210 969 207
f 208 210 207
f 209 210 208
f 212 210 209
f 211 212 209
f 213 212 211
f 751 213 211
f 214 213 751
f 753 214 751
f 214 753 215
f 216 214 215
f 971 216 215
f 971 215 756
f 972 756 217
f 972 971 756
f 972 217 218
f 219 972 218
f 220 219 218
f 221 219 220
f 758 221 220
f 973 221 758
f 222 973 758
f 223 973 222
f 225 223 222
f 224 225 222
f 227 225 224
f 226 227 224
f 229 227 226
f 228 229 226
f 231 229 228
f 230 231 228
f 233 231 230
f 232 233 230
f 234 233 232
f 762 234 232
f 235 234 762
f 763 235 762
f 974 235 763
f 236 974 763
f 975 974 236
f 237 975 236
f 766 237 236
f 238 237 766
f 768 238 766
f 977 238 768
f 770 977 768
f 239 977 770
f 240 239 770
f 241 239 240
f 243 241 240
f 242 243 240
f 773 243 242
f 244 243 773
f 245 244 773
f 775 245 773
f 246 245 775
f 248 245 246
f 247 248 246
f 249 248 247
f 978 249 247
f 778 978 247
f 979 978 778
f 780 979 778
f 250 979 780
f 252 979 250
f 251 252 250
f 254 252 251
f 253 254 251
f 256 254 253
f 255 256 253
f 258 256 255
f 257 258 255
f 260 258 257
f 259 260 257
f 980 260 259
f 261 980 259
f 263 980 261
f 262 263 261
f 265 263 262
f 264 265 262
f 267 265 264
f 266 267 264
f 981 267 266
f 268 981 266
f 270 981 268
f 269 270 268
f 271 270 269
f 787 271 269
f 789 271 787
f 272 271 789
f 274 272 789
f 273 274 789
f 791 274 273
f 275 274 791
f 792 275 791
f 276 275 792
f 277 276 792
f 278 276 277
f 279 278 277
f 279 277 795
f 280 279 795
f 796 280 795
f 943 280 796
f 281 943 796
f 944 943 281
f 282 944 281
f 283 944 282
f 799 283 282
f 285 283 799
f 284 285 799
f 287 285 284
f 286 287 284
f 290 287 286
f 288 290 286
f 290 288 289
f 292 290 289
f 291 292 289
f 293 292 291
f 294 293 291
f 295 293 294
f 297 295 294
f 297 294 296
f 299 297 296
f 298 299 296
f 302 299 298
f 300 302 298
f 301 302 300
f 303 302 301
f 305 303 301
f 304 305 301
f 305 304 817
f 307 305 817
f 307 817 306
f 309 307 306
f 309 306 308
f 310 309 308
f 310 308 311
f 313 310 311
f 313 311 312
f 315 313 312
f 315 312 314
f 948 315 314
f 948 314 316
f 317 948 316
f 317 316 318
f 319 317 318
f 319 318 824
f 320 319 824
f 320 824 825
f 951 320 825
f 951 825 321
f 952 951 321
f 322 952 321
f 323 952 322
f 827 323 322
f 324 323 827
f 828 324 827
f 326 324 828
f 325 326 828
f 328 326 325
f 327 328 325
f 330 328 327
f 329 330 327
f 831 330 329
f 953 330 831
f 331 953 831
f 833 331 831
f 333 331 833
f 332 333 833
f 335 333 332
f 334 335 332
f 337 335 334
f 336 337 334
f 338 337 336
f 836 338 336
f 339 338 836
f 837 339 836
f 340 339 837
f 838 340 837
f 341 340 838
f 956 340 341
f 342 956 341
f 343 956 342
f 345 343 342
f 344 345 342
f 347 345 344
f 346 347 344
f 957 347 346
f 958 957 346
f 348 958 346
f 350 958 348
f 349 350 348
f 959 350 349
f 959 349 351
f 960 959 351
f 960 351 844
f 352 960 844
f 352 844 846
f 354 352 846
f 354 846 353
f 356 354 353
f 356 353 355
f 358 356 355
f 358 355 357
f 360 358 357
f 360 357 359
f 961 360 359
f 961 359 361
f 363 961 361
f 363 361 362
f 963 363 362
f 963 362 848
f 364 963 848
f 364 848 849
f 964 364 849
f 964 849 851
f 366 964 851
f 366 851 365
f 367 366 365
f 368 366 367
f 369 368 367
f 938 368 369
f 938 369 370
f 372 938 370
f 371 372 370
f 939 372 371
f 373 939 371
f 375 939 373
f 374 375 373
f 940 375 374
f 376 940 374
f 377 940 376
f 378 377 376
f 857 378 376
f 926 378 857
f 859 926 857
f 380 926 859
f 379 380 859
f 927 380 379
f 381 927 379
f 382 927 381
f 861 382 381
f 383 382 861
f 862 383 861
f 384 383 862
f 863 384 862
f 930 384 863
f 385 930 863
f 931 930 385
f 386 931 385
f 388 931 386
f 387 388 386
f 390 388 387
f 390 387 389
f 391 390 389
f 393 391 389
f 392 393 389
f 395 393 392
f 394 395 392
f 397 395 394
f 396 397 394
f 398 397 396
f 895 398 396
f 399 398 895
f 932 399 895
f 400 932 895
f 401 932 400
f 933 932 401
f 403 933 401
f 402 403 401
f 406 403 402
f 406 402 404
f 406 404 405
f 408 406 405
f 408 405 407
f 410 408 407
f 409 410 407
f 935 410 409
f 411 935 409
f 935 411 412
f 936 935 412
f 936 412 903
f 413 936 903
f 415 413 903
f 415 903 414
f 937 415 414
f 937 414 416
f 418 937 416
f 417 418 416
f 419 418 417
f 420 419 417
f 421 419 420
f 422 25 21
f 422 21 425
f 423 25 422
f 21 19 425
f 424 25 423
f 425 19 426
f 19 16 426
f 424 29 25
f 427 29 424
f 426 16 429
f 428 29 427
f 16 14 429
f 428 32 29
f 429 14 431
f 430 32 428
f 14 12 431
f 430 34 32
f 12 433 431
f 430 432 34
f 11 433 12
f 34 432 37
f 11 435 433
f 432 434 37
f 8 435 11
f 37 434 41
f 6 437 8
f 8 437 435
f 434 436 41
f 41 436 1
f 6 439 437
f 4 439 6
f 436 438 1
f 1 438 4
f 438 439 4
f 440 427 424
f 469 440 424
f 469 424 423
f 471 469 423
f 441 471 423
f 441 423 422
f 476 441 422
f 442 476 422
f 442 422 425
f 443 442 425
f 443 425 426
f 444 443 426
f 488 426 429
f 488 444 426
f 489 488 429
f 445 489 429
f 445 429 431
f 446 445 431
f 498 446 431
f 498 431 433
f 501 498 433
f 447 501 433
f 447 433 435
f 448 447 435
f 449 448 435
f 449 435 437
f 450 449 437
f 451 450 437
f 451 437 439
f 452 451 439
f 453 452 439
f 522 453 439
f 522 439 438
f 454 522 438
f 455 454 438
f 455 438 436
f 456 455 436
f 457 456 436
f 457 436 434
f 458 457 434
f 459 458 434
f 459 434 432
f 539 459 432
f 460 539 432
f 460 432 430
f 461 460 430
f 548 461 430
f 548 430 428
f 462 548 428
f 555 462 428
f 463 428 427
f 463 555 428
f 463 463 427
f 463 463 427
f 440 463 427
f 464 463 463
f 464 463 463
f 464 463 440
f 464 555 463
f 467 465 440
f 470 466 465
f 467 440 469
f 470 465 467
f 472 468 466
f 471 467 469
f 472 466 470
f 473 472 470
f 473 470 467
f 474 473 467
f 474 467 471
f 474 471 441
f 477 472 473
f 478 473 474
f 475 474 441
f 477 473 478
f 475 441 476
f 478 474 475
f 442 475 476
f 479 475 442
f 479 478 475
f 480 477 478
f 481 479 442
f 480 478 479
f 481 442 443
f 482 479 481
f 482 480 479
f 483 481 443
f 485 482 481
f 444 483 443
f 484 480 482
f 485 481 483
f 484 495 480
f 484 482 485
f 486 485 483
f 486 483 444
f 487 486 444
f 487 444 488
f 484 485 486
f 490 484 486
f 491 488 489
f 491 487 488
f 492 486 487
f 495 484 490
f 490 486 492
f 491 492 487
f 496 495 490
f 445 491 489
f 496 490 492
f 493 491 445
f 493 492 491
f 494 492 493
f 494 496 492
f 446 493 445
f 497 494 493
f 497 496 494
f 497 493 446
f 500 496 497
f 499 446 498
f 502 497 446
f 502 446 499
f 508 495 496
f 508 496 500
f 500 497 502
f 501 499 498
f 504 499 501
f 504 502 499
f 506 500 502
f 506 508 500
f 503 504 501
f 503 501 447
f 506 502 504
f 505 504 503
f 507 503 447
f 507 447 448
f 506 504 505
f 505 503 507
f 511 506 505
f 508 506 511
f 509 507 448
f 510 507 509
f 505 507 510
f 509 448 449
f 512 508 511
f 511 505 510
f 514 509 449
f 513 511 510
f 513 510 509
f 512 511 513
f 515 514 449
f 514 513 509
f 515 449 450
f 519 512 513
f 516 513 514
f 516 514 515
f 451 515 450
f 517 513 516
f 517 519 513
f 518 515 451
f 518 516 515
f 520 516 518
f 518 451 452
f 520 517 516
f 520 518 452
f 521 519 517
f 521 517 520
f 523 452 453
f 521 520 524
f 523 520 452
f 524 520 523
f 523 453 522
f 525 523 522
f 526 524 523
f 525 522 454
f 525 526 523
f 527 521 524
f 527 524 526
f 528 525 454
f 527 532 521
f 529 454 455
f 528 526 525
f 529 528 454
f 531 526 528
f 529 455 456
f 527 526 531
f 530 528 529
f 457 529 456
f 531 528 530
f 532 527 531
f 530 529 457
f 534 530 457
f 534 531 530
f 533 534 457
f 535 531 534
f 458 533 457
f 535 532 531
f 536 535 534
f 537 533 458
f 536 534 533
f 459 537 458
f 537 536 533
f 541 536 537
f 540 535 536
f 541 540 536
f 542 535 540
f 538 459 539
f 538 537 459
f 541 537 538
f 544 538 539
f 543 540 541
f 545 541 538
f 544 539 460
f 543 541 545
f 542 540 543
f 545 538 544
f 544 460 461
f 547 543 545
f 547 542 543
f 546 544 461
f 549 545 544
f 549 544 546
f 548 546 461
f 549 547 545
f 554 542 547
f 550 546 548
f 551 547 549
f 549 546 550
f 554 547 551
f 462 550 548
f 553 549 550
f 554 551 552
f 553 551 549
f 552 551 553
f 553 550 462
f 556 462 555
f 557 553 462
f 552 553 557
f 556 557 462
f 558 552 557
f 555 464 440
f 556 555 440
f 468 554 552
f 556 440 465
f 556 465 466
f 468 552 558
f 466 557 556
f 558 557 466
f 558 466 468
f 559 468 472
f 559 472 477
f 559 477 480
f 560 480 495
f 560 559 480
f 508 560 495
f 561 554 468
f 561 468 559
f 542 554 561
f 562 560 508
f 512 562 508
f 563 542 561
f 535 542 563
f 512 564 562
f 519 564 512
f 532 535 563
f 521 564 519
f 532 563 564
f 521 532 564
f 559 560 565
f 565 560 566
f 561 559 567
f 567 559 565
f 563 561 568
f 568 561 567
f 564 563 569
f 569 563 568
f 562 564 570
f 570 564 569
f 560 562 566
f 566 562 570
f 565 566 570
f 567 570 569
f 567 569 568
f 567 565 570
f 7 573 5
f 10 604 9
f 13 605 10
f 30 608 27
f 38 578 35
f 45 613 44
f 51 579 49
f 53 615 51
f 71 585 69
f 619 586 71
f 75 736 73
f 76 624 75
f 78 625 76
f 87 628 85
f 23 592 18
f 18 592 571
f 593 594 23
f 23 594 592
f 596 593 595
f 594 593 596
f 596 595 572
f 572 595 597
f 572 597 599
f 599 597 598
f 599 598 600
f 598 39 600
f 39 43 600
f 600 43 601
f 602 2 3
f 43 2 601
f 601 2 602
f 602 3 603
f 3 5 603
f 603 5 573
f 9 604 7
f 7 604 573
f 604 10 605
f 574 605 13
f 13 15 574
f 574 15 606
f 574 606 575
f 575 606 22
f 575 22 607
f 22 26 607
f 607 26 608
f 27 608 26
f 30 576 608
f 30 33 576
f 576 33 577
f 33 578 577
f 35 578 33
f 609 610 38
f 38 610 578
f 612 609 611
f 610 609 612
f 612 611 44
f 612 44 613
f 47 613 45
f 614 613 47
f 579 614 47
f 49 579 47
f 51 615 579
f 615 53 580
f 580 55 581
f 53 55 580
f 55 57 581
f 581 57 616
f 616 57 582
f 57 59 582
f 60 617 59
f 59 617 582
f 61 583 60
f 60 583 617
f 61 62 583
f 583 62 618
f 62 64 618
f 618 64 734
f 734 65 584
f 64 65 734
f 65 67 584
f 67 69 584
f 584 69 585
f 585 71 586
f 621 619 620
f 586 619 621
f 621 620 587
f 587 620 622
f 73 623 622
f 622 623 587
f 73 736 623
f 736 75 624
f 625 624 76
f 625 78 626
f 78 80 626
f 80 82 626
f 626 82 588
f 83 627 82
f 82 627 588
f 83 85 627
f 627 85 628
f 629 628 87
f 87 89 629
f 629 89 589
f 89 91 589
f 91 93 589
f 589 93 631
f 95 630 93
f 93 630 631
f 630 95 590
f 590 95 97
f 98 591 97
f 97 591 590
f 571 17 18
f 98 632 591
f 117 635 660
f 122 665 664
f 671 672 124
f 127 638 126
f 134 678 639
f 139 640 138
f 140 679 139
f 143 641 142
f 150 642 685
f 160 644 714
f 166 689 164
f 177 645 175
f 178 645 177
f 179 694 178
f 695 646 179
f 98 648 632
f 632 648 100
f 102 649 100
f 100 649 632
f 102 633 649
f 102 104 633
f 633 104 650
f 650 106 651
f 104 106 650
f 651 652 655
f 106 652 651
f 655 652 653
f 655 653 654
f 656 654 110
f 655 654 656
f 658 656 110
f 658 657 659
f 110 657 658
f 657 111 659
f 111 112 659
f 659 112 634
f 112 114 634
f 634 114 661
f 114 660 661
f 661 660 635
f 662 663 117
f 117 663 635
f 663 662 636
f 636 662 119
f 121 636 119
f 121 664 636
f 636 664 665
f 122 637 665
f 122 666 637
f 637 666 668
f 708 667 669
f 668 667 708
f 666 667 668
f 670 669 124
f 708 669 670
f 672 670 124
f 672 671 126
f 126 638 672
f 127 673 638
f 128 673 127
f 674 128 130
f 673 128 674
f 130 131 674
f 674 131 676
f 639 675 677
f 131 675 676
f 676 675 639
f 639 677 134
f 134 136 678
f 136 138 678
f 678 138 640
f 640 139 679
f 641 679 140
f 140 142 641
f 143 680 641
f 143 681 680
f 680 681 682
f 682 681 683
f 683 681 146
f 683 147 684
f 146 147 683
f 684 148 642
f 147 148 684
f 148 685 642
f 150 686 642
f 687 686 150
f 150 152 687
f 152 154 687
f 687 154 643
f 157 688 154
f 154 688 643
f 159 688 157
f 714 688 159
f 159 160 714
f 160 162 644
f 162 164 644
f 644 164 689
f 168 689 166
f 690 689 168
f 168 170 690
f 690 170 691
f 172 691 170
f 692 691 172
f 175 692 172
f 693 692 175
f 645 693 175
f 178 694 645
f 646 694 179
f 646 695 182
f 696 182 183
f 646 182 696
f 185 696 183
f 647 696 185
f 632 120 591
f 591 120 741
f 651 123 700
f 634 133 132
f 678 158 639
f 678 161 158
f 688 186 184
f 644 190 714
f 693 200 718
f 646 720 719
f 696 208 207
f 649 697 632
f 632 697 120
f 649 698 697
f 633 698 649
f 633 699 698
f 650 699 633
f 651 700 650
f 650 700 699
f 655 123 651
f 655 701 123
f 656 125 655
f 655 125 701
f 656 702 125
f 658 702 656
f 659 129 658
f 658 129 702
f 659 703 129
f 659 634 703
f 634 132 703
f 634 661 133
f 135 704 635
f 635 704 661
f 661 704 133
f 137 135 663
f 663 135 635
f 636 137 663
f 636 705 137
f 636 665 705
f 705 665 141
f 637 706 665
f 665 706 141
f 707 706 637
f 668 707 637
f 144 707 668
f 708 144 668
f 145 144 708
f 145 708 670
f 672 709 670
f 670 709 145
f 672 710 709
f 672 638 710
f 710 638 149
f 638 673 149
f 149 673 151
f 674 151 673
f 153 151 674
f 674 155 153
f 676 155 674
f 676 639 155
f 155 639 156
f 639 158 156
f 161 640 163
f 678 640 161
f 163 679 165
f 640 679 163
f 641 165 679
f 167 165 641
f 167 641 169
f 680 171 641
f 641 171 169
f 680 711 171
f 173 711 682
f 682 711 680
f 683 173 682
f 174 173 683
f 684 174 683
f 176 174 684
f 176 684 642
f 642 712 176
f 642 713 712
f 180 713 687
f 686 713 642
f 687 713 686
f 181 180 687
f 184 181 643
f 643 181 687
f 643 688 184
f 188 688 714
f 188 186 688
f 188 714 190
f 192 190 644
f 689 192 644
f 194 192 689
f 690 715 689
f 689 715 194
f 196 716 690
f 690 716 715
f 691 196 690
f 691 717 196
f 692 717 691
f 693 718 692
f 692 718 717
f 202 693 645
f 200 693 202
f 203 202 645
f 645 694 203
f 694 719 203
f 646 719 694
f 207 720 646
f 646 696 207
f 647 208 696
f 209 208 647
f 596 28 24
f 578 728 63
f 581 79 77
f 582 81 79
f 624 103 737
f 626 108 107
f 592 721 571
f 20 721 592
f 571 721 17
f 594 20 592
f 24 20 594
f 594 596 24
f 28 596 572
f 31 572 599
f 28 572 31
f 36 599 600
f 31 599 36
f 40 36 600
f 600 601 40
f 40 601 42
f 602 722 601
f 601 722 42
f 603 723 602
f 602 723 722
f 46 603 573
f 723 603 46
f 573 724 46
f 604 724 573
f 48 724 604
f 50 48 605
f 605 48 604
f 52 50 574
f 574 50 605
f 54 52 574
f 574 575 54
f 54 575 56
f 575 607 56
f 56 607 58
f 608 725 607
f 607 725 58
f 608 726 725
f 576 727 608
f 608 727 726
f 576 577 727
f 727 577 63
f 578 63 577
f 610 728 578
f 66 728 610
f 612 66 610
f 68 66 612
f 70 68 612
f 612 729 70
f 613 729 612
f 614 730 613
f 613 730 729
f 579 731 614
f 614 731 730
f 731 579 72
f 579 615 72
f 72 615 74
f 615 580 74
f 580 732 74
f 580 581 732
f 732 581 77
f 581 616 79
f 79 616 582
f 617 733 582
f 582 733 81
f 617 583 733
f 733 583 84
f 618 84 583
f 86 84 618
f 88 618 734
f 86 618 88
f 90 734 584
f 88 734 90
f 92 90 584
f 584 585 92
f 585 586 92
f 92 586 94
f 586 621 94
f 94 621 96
f 621 735 96
f 99 735 587
f 587 735 621
f 99 623 101
f 587 623 99
f 623 736 101
f 624 737 736
f 736 737 101
f 105 624 625
f 103 624 105
f 105 625 107
f 107 625 626
f 588 108 626
f 109 108 588
f 627 109 588
f 628 738 627
f 627 738 109
f 629 739 628
f 628 739 738
f 740 629 589
f 739 629 740
f 113 740 589
f 589 631 113
f 116 115 630
f 630 115 631
f 631 115 113
f 118 116 590
f 590 116 630
f 590 741 118
f 591 741 590
f 777 247 246
f 797 282 281
f 209 965 211
f 647 965 209
f 752 751 965
f 965 751 211
f 752 753 751
f 752 754 753
f 753 754 215
f 755 756 754
f 754 756 215
f 217 756 755
f 218 217 755
f 220 218 757
f 757 218 755
f 757 758 220
f 759 758 757
f 758 759 222
f 222 759 742
f 224 742 743
f 222 742 224
f 226 224 743
f 228 226 760
f 760 226 743
f 761 228 760
f 230 228 761
f 232 761 744
f 230 761 232
f 970 762 744
f 744 762 232
f 764 763 970
f 970 763 762
f 764 765 763
f 763 765 236
f 767 766 765
f 765 766 236
f 767 768 766
f 769 770 767
f 767 770 768
f 769 771 770
f 770 771 240
f 771 772 240
f 240 772 242
f 772 773 242
f 774 773 772
f 776 775 774
f 774 775 773
f 246 776 777
f 775 776 246
f 779 778 777
f 777 778 247
f 250 780 745
f 779 780 778
f 745 780 779
f 251 745 781
f 251 250 745
f 251 781 253
f 782 253 781
f 255 253 782
f 257 782 783
f 255 782 257
f 746 257 783
f 259 257 746
f 261 259 746
f 976 261 746
f 262 261 976
f 976 784 262
f 262 784 264
f 785 264 784
f 266 264 785
f 266 785 268
f 785 786 268
f 268 786 269
f 786 787 269
f 788 787 786
f 788 789 787
f 747 789 788
f 273 747 790
f 789 747 273
f 790 791 273
f 790 792 791
f 793 792 790
f 793 277 792
f 793 795 277
f 794 795 793
f 797 796 794
f 794 796 795
f 281 796 797
f 797 748 282
f 798 799 748
f 284 799 798
f 748 799 282
f 798 800 284
f 284 800 286
f 801 286 800
f 288 286 801
f 288 801 289
f 289 801 749
f 291 289 749
f 294 291 802
f 802 291 749
f 296 802 750
f 294 802 296
f 298 296 750
f 803 298 750
f 300 298 803
f 301 803 982
f 300 803 301
f 804 301 982
f 304 301 804
f 820 311 819
f 839 344 342
f 842 351 349
f 954 359 847
f 858 379 859
f 962 863 862
f 866 392 389
f 942 817 804
f 306 817 942
f 804 817 304
f 942 818 306
f 306 818 308
f 818 819 308
f 308 819 311
f 311 820 312
f 820 821 312
f 312 821 314
f 821 822 314
f 314 822 316
f 318 316 945
f 945 316 822
f 823 824 945
f 945 824 318
f 823 825 824
f 823 826 825
f 825 826 321
f 322 946 805
f 826 946 321
f 321 946 322
f 805 827 322
f 828 827 805
f 947 828 805
f 829 828 947
f 325 828 829
f 327 829 806
f 325 829 327
f 329 327 830
f 830 327 806
f 807 831 830
f 830 831 329
f 832 833 807
f 807 833 831
f 332 832 808
f 833 832 332
f 334 332 808
f 808 834 334
f 334 834 336
f 834 835 336
f 809 836 835
f 835 836 336
f 809 837 836
f 949 838 809
f 809 838 837
f 341 838 949
f 949 950 341
f 341 950 342
f 342 950 839
f 344 839 346
f 840 346 839
f 348 346 840
f 840 841 348
f 348 842 349
f 841 842 348
f 843 351 842
f 843 844 351
f 845 846 843
f 843 846 844
f 353 845 810
f 846 845 353
f 355 353 810
f 847 355 810
f 357 355 847
f 357 847 359
f 811 359 954
f 361 359 811
f 361 811 362
f 811 848 362
f 955 848 811
f 955 849 848
f 850 849 955
f 850 851 849
f 365 851 812
f 812 851 850
f 852 365 812
f 367 365 852
f 367 852 813
f 813 369 367
f 370 369 813
f 371 370 853
f 853 370 813
f 853 854 371
f 371 854 373
f 854 855 373
f 373 855 374
f 856 374 855
f 376 374 856
f 376 856 814
f 814 857 376
f 814 859 857
f 858 859 814
f 381 858 860
f 379 858 381
f 381 860 815
f 815 861 381
f 815 862 861
f 962 862 815
f 385 863 864
f 864 863 962
f 864 816 385
f 385 816 386
f 387 386 865
f 865 386 816
f 389 387 866
f 866 387 865
f 905 420 417
f 867 421 905
f 905 421 420
f 925 421 867
f 868 925 867
f 925 868 923
f 869 921 868
f 868 921 923
f 921 869 919
f 871 919 870
f 934 872 915
f 874 872 879
f 875 872 874
f 873 872 875
f 872 876 879
f 877 876 872
f 878 876 877
f 870 919 869
f 934 917 870
f 870 917 871
f 934 915 917
f 872 873 915
f 878 911 876
f 878 881 911
f 880 881 878
f 880 882 881
f 880 884 882
f 883 884 880
f 883 886 884
f 885 886 883
f 885 887 886
f 889 889 888
f 888 889 887
f 889 890 889
f 890 890 889
f 890 891 890
f 891 892 890
f 394 392 893
f 893 392 866
f 396 394 893
f 894 396 893
f 896 895 894
f 894 895 396
f 895 896 400
f 897 400 896
f 401 400 897
f 897 941 401
f 401 898 402
f 941 898 401
f 899 402 898
f 404 402 899
f 404 899 405
f 405 899 900
f 407 405 900
f 409 407 928
f 928 407 900
f 411 409 928
f 412 411 929
f 929 411 928
f 901 412 929
f 903 901 902
f 901 903 412
f 903 902 414
f 416 902 904
f 414 902 416
f 904 417 416
f 905 417 904
f 890 892 906
f 889 890 906
f 887 889 906
f 886 887 906
f 886 906 907
f 884 907 908
f 884 886 907
f 419 892 909
f 892 419 421
f 909 418 419
f 884 908 910
f 882 884 910
f 881 910 912
f 881 882 910
f 911 881 912
f 911 912 913
f 913 876 911
f 879 876 913
f 914 874 879
f 914 879 913
f 915 873 914
f 875 875 874
f 875 873 875
f 875 914 873
f 875 874 914
f 915 914 916
f 917 915 916
f 871 917 916
f 871 916 918
f 919 871 918
f 919 918 920
f 921 919 920
f 921 920 922
f 923 921 922
f 922 925 923
f 925 922 924
f 924 421 925
f 421 924 892
f 908 892 924
f 908 907 906
f 908 906 892
f 908 924 922
f 910 908 922
f 910 922 920
f 912 920 918
f 912 910 920
f 912 918 916
f 912 914 913
f 912 916 914
f 941 378 898
f 899 926 380
f 378 926 898
f 898 926 899
f 900 899 380
f 380 927 900
f 900 927 382
f 928 900 382
f 383 928 382
f 384 929 383
f 383 929 928
f 929 930 901
f 384 930 929
f 902 901 931
f 931 901 930
f 902 931 388
f 902 388 904
f 388 390 904
f 904 391 905
f 390 391 904
f 391 393 905
f 393 395 905
f 905 395 867
f 395 397 867
f 867 397 868
f 397 398 868
f 868 399 869
f 398 399 868
f 399 932 869
f 870 932 933
f 869 932 870
f 870 933 403
f 403 934 870
f 403 406 934
f 934 406 872
f 408 872 406
f 872 408 877
f 877 408 410
f 877 410 878
f 410 935 878
f 878 935 880
f 880 935 936
f 413 880 936
f 883 880 413
f 413 415 883
f 885 937 418
f 883 937 885
f 415 937 883
f 909 887 418
f 418 887 885
f 909 888 887
f 909 889 888
f 909 890 889
f 909 891 890
f 909 892 891
f 866 938 893
f 893 938 372
f 372 939 893
f 893 939 894
f 896 939 375
f 894 939 896
f 375 940 896
f 896 940 897
f 897 940 377
f 377 941 897
f 377 378 941
f 280 820 819
f 285 822 283
f 297 805 295
f 305 807 303
f 309 808 307
f 310 808 309
f 315 835 313
f 948 809 315
f 331 845 953
f 338 847 337
f 338 954 847
f 354 814 352
f 363 815 961
f 963 962 363
f 938 866 368
f 278 942 276
f 276 942 804
f 942 279 818
f 278 279 942
f 279 280 818
f 818 280 819
f 820 943 944
f 280 943 820
f 820 944 821
f 821 944 283
f 821 283 822
f 285 945 822
f 285 287 945
f 945 287 823
f 287 290 823
f 823 292 826
f 290 292 823
f 293 946 292
f 292 946 826
f 805 946 293
f 293 295 805
f 829 947 297
f 297 947 805
f 829 299 806
f 297 299 829
f 299 302 806
f 806 302 830
f 830 303 807
f 302 303 830
f 832 807 305
f 307 832 305
f 808 832 307
f 808 310 834
f 834 313 835
f 310 313 834
f 809 835 315
f 809 948 317
f 319 949 317
f 317 949 809
f 319 950 949
f 319 320 950
f 950 320 839
f 839 951 952
f 320 951 839
f 840 952 323
f 839 952 840
f 840 324 841
f 323 324 840
f 324 326 841
f 841 326 842
f 326 328 842
f 842 328 843
f 328 330 843
f 330 953 843
f 843 953 845
f 845 331 810
f 331 333 810
f 333 335 810
f 810 335 847
f 335 337 847
f 811 954 338
f 338 339 811
f 340 955 339
f 339 955 811
f 850 340 956
f 955 340 850
f 812 956 343
f 850 956 812
f 343 345 812
f 812 345 852
f 852 347 813
f 345 347 852
f 813 957 958
f 347 957 813
f 853 958 350
f 813 958 853
f 854 350 959
f 853 350 854
f 855 959 960
f 854 959 855
f 856 960 352
f 855 960 856
f 856 352 814
f 356 858 354
f 354 858 814
f 858 358 860
f 356 358 858
f 860 360 815
f 358 360 860
f 360 961 815
f 363 962 815
f 864 963 364
f 962 963 864
f 964 816 364
f 364 816 864
f 816 964 865
f 865 964 366
f 866 366 368
f 865 366 866
f 189 965 187
f 191 752 189
f 213 765 212
f 214 767 213
f 971 769 216
f 231 745 229
f 237 746 975
f 238 976 237
f 245 788 244
f 263 800 980
f 276 804 275
f 187 965 185
f 185 965 647
f 965 189 752
f 191 193 752
f 752 193 754
f 193 966 754
f 754 966 755
f 755 966 195
f 755 195 197
f 197 757 755
f 198 757 197
f 757 198 759
f 759 198 199
f 742 759 199
f 199 201 742
f 742 201 743
f 743 967 968
f 201 967 743
f 760 968 204
f 743 968 760
f 761 204 205
f 760 204 761
f 205 206 761
f 761 206 744
f 206 969 744
f 210 970 969
f 969 970 744
f 212 764 210
f 210 764 970
f 764 212 765
f 765 213 767
f 767 216 769
f 214 216 767
f 771 971 972
f 769 971 771
f 771 972 772
f 772 972 219
f 772 219 774
f 774 219 221
f 774 973 776
f 221 973 774
f 973 223 776
f 776 223 777
f 223 225 777
f 225 227 777
f 777 227 779
f 745 779 229
f 229 779 227
f 781 745 231
f 231 233 781
f 233 234 781
f 781 234 782
f 234 235 782
f 782 235 783
f 783 974 746
f 235 974 783
f 974 975 746
f 237 976 746
f 238 784 976
f 977 784 238
f 784 977 785
f 785 977 239
f 239 241 785
f 785 243 786
f 241 243 785
f 243 244 786
f 786 244 788
f 747 788 245
f 245 248 747
f 747 248 790
f 248 249 790
f 793 978 979
f 790 978 793
f 249 978 790
f 793 979 252
f 252 794 793
f 252 254 794
f 794 254 797
f 254 256 797
f 797 258 748
f 256 258 797
f 748 260 798
f 258 260 748
f 260 980 798
f 798 980 800
f 800 263 801
f 263 265 801
f 801 265 749
f 265 267 749
f 802 981 270
f 267 981 749
f 749 981 802
f 802 270 750
f 270 271 750
f 271 272 750
f 750 272 803
f 272 274 803
f 803 274 982
f 275 982 274
f 804 982 275
