# Render LOD; unchanged CAD body-local coordinates in mm
v 106.8441978 215.2122625 -90.7764806
v 107.2583695 220.8379411 -93.1386549
v 107.3466981 222.0303550 -90.3739786
v 106.5776182 221.1149328 -84.5718053
v 106.4993889 217.4911916 -84.9475815
v 106.4991796 215.6226252 -86.1407212
v 107.2600819 218.3376609 -88.8153868
v 107.3444800 218.3647771 -90.7764806
v 107.1258793 216.7835213 -90.7764806
v 106.5659124 215.4095304 -95.1902083
v 106.5007890 217.1780767 -96.4593058
v 106.5351362 219.1482376 -97.0627326
v 106.5000311 221.2235000 -96.9575837
v 107.5091494 219.9055865 -90.9175358
v 94.4999959 218.9885200 -84.8205513
v 106.5005526 219.3637728 -84.4839393
v 94.4999556 216.7937183 -85.6242494
v 94.4999947 215.1957066 -87.0831979
v 94.4999877 214.2277075 -88.8609040
v 94.4999744 213.9296928 -91.1931864
v 94.4999601 214.5958074 -93.5723838
v 106.5006355 213.6193484 -90.4907040
v 106.5005613 214.1362710 -88.2743214
v 106.5146920 214.0431558 -93.0759194
v 94.4999943 217.6451083 -96.3502912
v 94.4999945 215.8872041 -95.2194289
v 94.5000127 219.3375962 -96.7529976
v 94.4999961 220.8363232 -96.7342452
v 94.4999912 222.5817499 -96.1976511
v 94.4999568 224.3008952 -94.9729476
v 94.5000093 225.3136721 -93.4911268
v 94.4999831 225.9216167 -91.6897541
v 94.4999904 225.8758114 -89.6745712
v 106.5010034 224.4761594 -95.1764954
v 106.5017350 223.0529087 -96.3008302
v 94.4999787 225.1900320 -87.7723413
v 94.5000055 223.8224510 -86.1661984
v 106.4997714 225.6783033 -93.5064902
v 106.4987270 226.3208846 -90.8040323
v 106.5008261 225.7865487 -88.3436134
v 94.4999941 222.3006914 -85.2295584
v 94.5000120 220.7903134 -84.8270903
v 106.4992999 224.3873665 -86.2098571
v 106.5011766 222.2914629 -84.9072197
v 94.5000000 216.3025120 -94.3373623
v 94.5000000 216.4845727 -94.5150027
v 94.5000000 216.1296793 -94.1510707
v 94.5000000 216.6752846 -94.6832227
v 94.5000000 215.9660746 -93.9563199
v 94.5000000 216.8740710 -94.8418302
v 94.5000000 215.8126591 -93.7534946
v 94.5000000 217.0805475 -94.9902483
v 94.5000000 215.6694329 -93.5433638
v 94.5000000 217.2941372 -95.1282849
v 94.5000000 215.5367804 -93.3265041
v 94.5000000 217.5144556 -95.2553631
v 94.5000000 215.4150862 -93.1031079
v 94.5000000 217.7407338 -95.3714830
v 94.5000000 215.3047348 -92.8739442
v 94.5000000 217.9723950 -95.4760678
v 94.5000000 215.2061105 -92.6395896
v 94.5000000 218.2092469 -95.5689252
v 94.5000000 215.1190213 -92.4008133
v 94.5000000 218.4503283 -95.6498631
v 94.5000000 215.0440438 -92.1578074
v 94.5000000 218.6950625 -95.7186891
v 94.5000000 214.9813704 -91.9113410
v 94.5000000 218.9428727 -95.7754033
v 94.5000000 214.9310009 -91.6619909
v 94.5000000 219.1933744 -95.8194289
v 94.5000000 214.8931276 -91.4105260
v 94.5000000 219.4456063 -95.8511504
v 94.5000000 214.8677506 -91.1575230
v 94.5000000 219.6991840 -95.8701833
v 94.5000000 214.8550621 -90.9035588
v 94.5000000 219.9535306 -95.8765276
v 94.5000000 214.8550621 -90.6492102
v 94.5000000 220.2076850 -95.8701833
v 94.5000000 214.8677506 -90.3952460
v 94.5000000 220.4612627 -95.8511504
v 94.5000000 214.8931276 -90.1422430
v 94.5000000 220.7136869 -95.8194289
v 94.5000000 214.9310009 -89.8907781
v 94.5000000 220.9639963 -95.7754033
v 94.5000000 214.9813704 -89.6416202
v 94.5000000 221.2119988 -95.7186891
v 94.5000000 215.0440438 -89.3951538
v 94.5000000 221.4567329 -95.6498631
v 94.5000000 215.1190213 -89.1521480
v 94.5000000 221.6978144 -95.5689252
v 94.5000000 215.2061105 -88.9131794
v 94.5000000 221.9344740 -95.4760678
v 94.5000000 215.3047348 -88.6788249
v 94.5000000 222.1663275 -95.3714830
v 94.5000000 215.4150862 -88.4496611
v 94.5000000 222.3926056 -95.2553631
v 94.5000000 215.5367804 -88.2264571
v 94.5000000 222.6127318 -95.1282849
v 94.5000000 215.6694329 -88.0094052
v 94.5000000 222.8263215 -94.9902483
v 94.5000000 215.8126591 -87.7992744
v 94.5000000 223.0327980 -94.8418302
v 94.5000000 215.9660746 -87.5966413
v 94.5000000 223.2317766 -94.6832227
v 94.5000000 216.1296793 -87.4018906
v 94.5000000 223.4222963 -94.5150027
v 94.5000000 216.3025120 -87.2154067
v 94.5000000 223.6043570 -94.3373623
v 94.5000000 216.4845727 -87.0377663
v 94.5000000 223.7773820 -94.1510707
v 94.5000000 216.6752846 -86.8695463
v 94.5000000 223.9407944 -93.9563199
v 94.5000000 216.8740710 -86.7111311
v 94.5000000 224.0944021 -93.7534946
v 94.5000000 224.2376283 -93.5433638
v 94.5000000 217.0805475 -86.5625207
v 94.5000000 224.3702808 -93.3265041
v 94.5000000 217.2941372 -86.4246764
v 94.5000000 224.4917828 -93.1031079
v 94.5000000 217.5144556 -86.2974059
v 94.5000000 224.6021342 -92.8739442
v 94.5000000 217.7407338 -86.1814783
v 94.5000000 224.7009507 -92.6395896
v 94.5000000 217.9723950 -86.0768935
v 94.5000000 224.7878477 -92.4008133
v 94.5000000 218.2092469 -85.9840360
v 94.5000000 224.8628252 -92.1578074
v 94.5000000 218.4503283 -85.9029059
v 94.5000000 218.6950625 -85.8340799
v 94.5000000 224.9256909 -91.9113410
v 94.5000000 224.9760604 -91.6619909
v 94.5000000 218.9428727 -85.7775579
v 94.5000000 225.0139336 -91.4105260
v 94.5000000 219.1933744 -85.7333401
v 94.5000000 219.4456063 -85.7018109
v 94.5000000 225.0391184 -91.1575230
v 94.5000000 219.6991840 -85.6827780
v 94.5000000 225.0518069 -90.9035588
v 94.5000000 225.0518069 -90.6492102
v 94.5000000 219.9535306 -85.6764337
v 94.5000000 225.0391184 -90.3952460
v 94.5000000 220.2076850 -85.6827780
v 94.5000000 225.0139336 -90.1422430
v 94.5000000 220.4612627 -85.7018109
v 94.5000000 224.9760604 -89.8907781
v 94.5000000 220.7136869 -85.7333401
v 94.5000000 224.9256909 -89.6416202
v 94.5000000 220.9639963 -85.7775579
v 94.5000000 221.2119988 -85.8340799
v 94.5000000 224.8628252 -89.3951538
v 94.5000000 224.7878477 -89.1521480
v 94.5000000 221.4567329 -85.9029059
v 94.5000000 224.7009507 -88.9131794
v 94.5000000 221.6978144 -85.9840360
v 94.5000000 224.6021342 -88.6788249
v 94.5000000 221.9344740 -86.0768935
v 94.5000000 222.1663275 -86.1814783
v 94.5000000 224.4917828 -88.4496611
v 94.5000000 224.3702808 -88.2264571
v 94.5000000 222.3926056 -86.2974059
v 94.5000000 224.2376283 -88.0094052
v 94.5000000 222.6127318 -86.4246764
v 94.5000000 224.0944021 -87.7992744
v 94.5000000 222.8263215 -86.5625207
v 94.5000000 223.9407944 -87.5966413
v 94.5000000 223.0327980 -86.7111311
v 94.5000000 223.2317766 -86.8695463
v 94.5000000 223.7773820 -87.4018906
v 94.5000000 223.6043570 -87.2154067
v 94.5000000 223.4222963 -87.0377663
v 105.7484169 219.9535306 -95.8765276
v 105.7484169 219.7032212 -95.8703755
v 105.7484169 219.4536808 -95.8519194
v 105.7484169 219.2051016 -95.8211592
v 105.7484169 218.9584449 -95.7784793
v 105.7484169 218.7142875 -95.7236877
v 105.7484169 218.4730138 -95.6567842
v 105.7484169 218.2353929 -95.5783456
v 105.7484169 218.0018092 -95.4881796
v 105.7484169 217.7730318 -95.3868631
v 105.7484169 217.5494451 -95.2742037
v 105.7484169 217.3316259 -95.1507783
v 105.7484169 217.1201510 -95.0169713
v 105.7484169 216.9154048 -94.8727827
v 105.7484169 216.7181563 -94.7187892
v 105.7484169 216.5285979 -94.5553755
v 105.7484169 216.3473062 -94.3827337
v 105.7484169 216.1746657 -94.2014405
v 105.7484169 216.0110610 -94.0118806
v 105.7484169 215.8570688 -93.8144383
v 105.7484169 215.7130736 -93.6098828
v 105.7484169 215.5790754 -93.3984062
v 105.7484169 215.4556510 -93.1805852
v 105.7484169 215.3431847 -92.9569968
v 105.7484169 215.2416768 -92.7282175
v 105.7484169 215.1517038 -92.4946320
v 105.7484169 215.0730736 -92.2568169
v 105.7484169 215.0063628 -92.0155413
v 105.7484169 214.9515716 -91.7713820
v 105.7484169 214.9086999 -91.5247233
v 105.7484169 214.8781321 -91.2763344
v 105.7484169 214.8596761 -91.0265998
v 105.7484169 214.8535241 -90.7764806
v 105.7484169 214.8596761 -90.5234777
v 105.7484169 214.8785166 -90.2712438
v 105.7484169 214.9098534 -90.0203556
v 105.7484169 214.9534941 -89.7711977
v 105.7484169 215.0096311 -89.5245391
v 105.7484169 215.0776876 -89.2807642
v 105.7484169 215.1578558 -89.0408344
v 105.7484169 215.2497513 -88.8053263
v 105.7484169 215.3533740 -88.5744323
v 105.7484169 215.4681472 -88.3491136
v 105.7484169 215.5940709 -88.1297547
v 105.7484169 215.7305684 -87.9167400
v 105.7484169 215.8776396 -87.7108387
v 105.7484169 216.0347078 -87.5126274
v 105.7484169 216.2013885 -87.3222985
v 105.7484169 216.3771049 -87.1404286
v 105.7484169 216.5618571 -86.9675945
v 105.7484169 216.7548761 -86.8041808
v 105.7484169 216.9557773 -86.6503796
v 105.7484169 217.1639840 -86.5067678
v 105.7484169 217.3791116 -86.3737297
v 105.7484169 217.6005836 -86.2516501
v 105.7484169 217.8278230 -86.1405287
v 105.7484169 218.0604454 -86.0407502
v 105.7484169 218.2974896 -85.9526990
v 105.7484169 218.5387633 -85.8765674
v 105.7484169 218.7834975 -85.8123555
v 105.7484169 219.0309231 -85.7604476
v 105.7484169 219.2808481 -85.7210360
v 105.7484169 219.5323110 -85.6937363
v 105.7484169 219.7849274 -85.6791252
v 105.7484169 220.0377361 -85.6770104
v 105.7484169 220.2905448 -85.6875843
v 105.7484169 220.5423922 -85.7104622
v 105.7484169 220.7928939 -85.7460287
v 105.7484169 221.0412808 -85.7937071
v 105.7484169 221.2869762 -85.8538818
v 105.7484169 221.5294034 -85.9259761
v 105.7484169 221.7679856 -86.0101822
v 105.7484169 222.0021460 -86.1059234
v 105.7484169 222.2311157 -86.2131998
v 105.7484169 222.4547024 -86.3318189
v 105.7484169 222.6719448 -86.4613964
v 105.7484169 222.8824585 -86.6013555
v 105.7484169 223.0860512 -86.7518884
v 105.7484169 223.2815694 -86.9120339
v 105.7484169 223.4692053 -87.0817919
v 105.7484169 223.6479978 -87.2607780
v 105.7484169 223.8177545 -87.4482232
v 105.7484169 223.9780909 -87.6439352
v 105.7484169 224.1284304 -87.8473373
v 105.7484169 224.2685806 -88.0580449
v 105.7484169 224.3979648 -88.2752890
v 105.7484169 224.5165830 -88.4986852
v 105.7484169 224.6238585 -88.7278490
v 105.7484169 224.7197912 -88.9618190
v 105.7484169 224.8038044 -89.2004031
v 105.7484169 224.8760904 -89.4428322
v 105.7484169 224.9360724 -89.6885296
v 105.7484169 224.9839426 -89.9369185
v 105.7484169 225.0193166 -90.1874221
v 105.7484169 225.0423866 -90.4392716
v 105.7484169 225.0527681 -90.6920822
v 105.7484169 225.0506534 -90.9450852
v 105.7484169 225.0360424 -91.1975113
v 105.7484169 225.0089351 -91.4491685
v 105.7484169 224.9693316 -91.6989032
v 105.7484169 224.9174241 -91.9465231
v 105.7484169 224.8534049 -92.1912592
v 105.7484169 224.7770817 -92.4323425
v 105.7484169 224.6890312 -92.6695808
v 105.7484169 224.5894457 -92.9020129
v 105.7484169 224.4783253 -93.1292541
v 105.7484169 224.3560543 -93.3507278
v 105.7484169 224.2230174 -93.5658572
v 105.7484169 224.0794066 -93.7740655
v 105.7484169 223.9257989 -93.9749683
v 105.7484169 223.7621942 -94.1679888
v 105.7484169 223.5893615 -94.3527424
v 105.7484169 223.4076853 -94.5286525
v 105.7484169 223.2173579 -94.6953346
v 105.7484169 223.0189560 -94.8524040
v 105.7484169 222.8130563 -94.9992841
v 105.7484169 222.6002356 -95.1359749
v 105.7484169 222.3808784 -95.2617074
v 105.7484169 222.1553692 -95.3766738
v 105.7484169 221.9246693 -95.4801051
v 105.7484169 221.6889709 -95.5720013
v 105.7484169 221.4490429 -95.6521701
v 105.7484169 221.2054623 -95.7204194
v 105.7484169 220.9588056 -95.7763646
v 105.7484169 220.7096496 -95.8200057
v 105.7484169 220.4585712 -95.8513426
v 105.7484169 220.2063393 -95.8701833
v 106.5138673 219.9510054 -90.8046552
v 106.3244662 221.8654632 -90.1564956
v 106.5058629 219.3148340 -90.1333233
v 106.4310965 220.0173662 -92.1220688
f 22 1 23
f 35 2 13
f 34 2 35
f 34 3 2
f 38 3 34
f 39 3 38
f 40 3 39
f 43 3 40
f 44 4 43
f 43 4 3
f 5 7 16
f 16 7 4
f 6 7 5
f 23 7 6
f 1 7 23
f 8 9 9
f 9 9 1
f 1 9 7
f 7 9 8
f 22 24 1
f 1 24 9
f 2 10 12
f 24 10 9
f 2 12 13
f 9 10 8
f 2 14 10
f 12 10 11
f 10 14 8
f 7 3 4
f 8 14 7
f 7 14 3
f 3 14 2
f 17 5 15
f 5 17 6
f 5 16 15
f 6 17 18
f 23 18 19
f 20 22 19
f 22 23 19
f 23 6 18
f 21 24 20
f 22 20 24
f 10 21 26
f 11 26 25
f 10 24 21
f 12 25 27
f 10 26 11
f 12 27 28
f 12 11 25
f 29 13 28
f 35 13 29
f 13 12 28
f 30 35 29
f 38 31 32
f 35 30 34
f 38 30 31
f 38 34 30
f 39 38 32
f 39 32 33
f 37 43 36
f 40 33 36
f 40 39 33
f 41 43 37
f 42 15 16
f 43 40 36
f 4 41 42
f 44 41 4
f 44 43 41
f 4 42 16
f 46 26 45
f 47 26 21
f 47 45 26
f 48 26 46
f 49 47 21
f 50 26 48
f 51 49 21
f 52 26 50
f 53 51 21
f 54 26 52
f 54 25 26
f 55 53 21
f 56 25 54
f 57 55 21
f 58 25 56
f 59 57 21
f 60 25 58
f 61 59 21
f 62 25 60
f 63 21 20
f 63 61 21
f 64 25 62
f 65 63 20
f 66 25 64
f 67 65 20
f 68 25 66
f 69 67 20
f 70 25 68
f 70 27 25
f 71 69 20
f 72 27 70
f 73 71 20
f 74 27 72
f 75 73 20
f 76 27 74
f 77 75 20
f 78 27 76
f 78 28 27
f 79 20 19
f 79 77 20
f 80 28 78
f 81 79 19
f 82 28 80
f 83 81 19
f 84 28 82
f 85 83 19
f 86 28 84
f 87 85 19
f 88 28 86
f 89 87 19
f 90 28 88
f 90 29 28
f 91 89 19
f 92 29 90
f 93 91 19
f 94 29 92
f 95 93 19
f 18 95 19
f 96 29 94
f 97 95 18
f 98 29 96
f 99 97 18
f 100 29 98
f 101 99 18
f 102 30 29
f 102 29 100
f 103 101 18
f 104 30 102
f 105 103 18
f 106 30 104
f 107 105 18
f 108 30 106
f 17 107 18
f 17 109 107
f 110 30 108
f 17 111 109
f 112 30 110
f 17 113 111
f 114 30 112
f 115 30 114
f 17 116 113
f 117 30 115
f 17 118 116
f 31 30 117
f 119 31 117
f 17 120 118
f 31 119 121
f 17 122 120
f 31 121 123
f 17 124 122
f 31 123 125
f 15 124 17
f 15 126 124
f 32 125 127
f 32 31 125
f 15 128 126
f 15 129 128
f 32 127 130
f 32 130 131
f 15 132 129
f 32 131 133
f 15 134 132
f 15 135 134
f 32 133 136
f 15 137 135
f 32 136 138
f 32 138 139
f 15 140 137
f 32 139 141
f 42 140 15
f 42 142 140
f 33 32 141
f 33 141 143
f 42 144 142
f 33 143 145
f 42 146 144
f 33 145 147
f 42 148 146
f 41 148 42
f 41 149 148
f 33 150 151
f 33 147 150
f 41 152 149
f 33 151 153
f 41 154 152
f 36 153 155
f 36 33 153
f 41 156 154
f 41 157 156
f 36 158 159
f 36 155 158
f 41 160 157
f 36 159 161
f 37 160 41
f 37 162 160
f 36 161 163
f 37 164 162
f 36 163 165
f 37 166 164
f 37 167 166
f 36 168 169
f 36 165 168
f 37 170 167
f 37 169 170
f 37 36 169
f 171 76 172
f 172 74 173
f 76 74 172
f 173 72 174
f 74 72 173
f 174 70 175
f 72 70 174
f 175 68 176
f 70 68 175
f 176 66 177
f 68 66 176
f 177 64 178
f 66 64 177
f 178 62 179
f 64 62 178
f 179 60 180
f 62 60 179
f 180 58 181
f 60 58 180
f 181 56 182
f 58 56 181
f 182 54 183
f 56 54 182
f 54 52 183
f 183 52 184
f 52 50 184
f 184 50 185
f 50 48 185
f 185 48 186
f 48 46 186
f 186 46 187
f 46 45 187
f 187 45 188
f 45 47 188
f 188 47 189
f 47 49 189
f 189 49 190
f 49 51 190
f 190 51 191
f 191 53 192
f 51 53 191
f 53 55 192
f 192 55 193
f 193 57 194
f 55 57 193
f 194 59 195
f 57 59 194
f 195 61 196
f 59 61 195
f 196 63 197
f 61 63 196
f 197 65 198
f 63 65 197
f 198 67 199
f 65 67 198
f 199 69 200
f 67 69 199
f 200 71 201
f 69 71 200
f 201 73 202
f 71 73 201
f 202 75 203
f 73 75 202
f 75 77 203
f 203 77 204
f 204 79 205
f 77 79 204
f 205 81 206
f 79 81 205
f 206 83 207
f 81 83 206
f 83 85 207
f 207 85 208
f 85 87 208
f 208 87 209
f 87 89 209
f 209 89 210
f 89 91 210
f 210 91 211
f 91 93 211
f 211 93 212
f 93 95 212
f 212 95 213
f 95 97 213
f 213 97 214
f 97 99 214
f 214 99 215
f 99 101 215
f 215 101 216
f 101 103 216
f 216 103 217
f 217 105 218
f 103 105 217
f 105 107 218
f 218 107 219
f 219 109 220
f 107 109 219
f 220 111 221
f 109 111 220
f 221 113 222
f 111 113 221
f 222 116 223
f 113 116 222
f 223 118 224
f 116 118 223
f 224 120 225
f 118 120 224
f 225 122 226
f 120 122 225
f 226 124 227
f 122 124 226
f 227 126 228
f 124 126 227
f 228 128 229
f 126 128 228
f 229 129 230
f 128 129 229
f 230 132 231
f 129 132 230
f 231 134 232
f 132 134 231
f 134 135 232
f 232 135 233
f 135 137 233
f 233 137 234
f 137 140 234
f 234 140 235
f 140 142 235
f 235 142 236
f 142 144 236
f 236 144 237
f 237 146 238
f 144 146 237
f 238 148 239
f 146 148 238
f 239 149 240
f 148 149 239
f 240 152 241
f 149 152 240
f 241 154 242
f 152 154 241
f 242 156 243
f 154 156 242
f 243 157 244
f 156 157 243
f 244 160 245
f 157 160 244
f 245 162 246
f 160 162 245
f 246 164 247
f 162 164 246
f 247 166 248
f 164 166 247
f 248 167 249
f 166 167 248
f 249 170 250
f 167 170 249
f 250 169 251
f 170 169 250
f 251 168 252
f 169 168 251
f 252 165 253
f 168 165 252
f 253 163 254
f 165 163 253
f 254 161 255
f 163 161 254
f 255 159 256
f 161 159 255
f 256 158 257
f 159 158 256
f 158 155 257
f 257 155 258
f 155 153 258
f 258 153 259
f 153 151 259
f 259 151 260
f 151 150 260
f 260 150 261
f 150 147 261
f 261 147 262
f 147 145 262
f 262 145 263
f 145 143 263
f 263 143 264
f 143 141 264
f 264 141 265
f 141 139 265
f 265 139 266
f 139 138 266
f 266 138 267
f 138 136 267
f 267 136 268
f 136 133 268
f 268 133 269
f 133 131 269
f 269 131 270
f 131 130 270
f 270 130 271
f 130 127 271
f 271 127 272
f 127 125 272
f 272 125 273
f 125 123 273
f 273 123 274
f 123 121 274
f 274 121 275
f 121 119 275
f 275 119 276
f 119 117 276
f 276 117 277
f 277 115 278
f 117 115 277
f 278 114 279
f 115 114 278
f 279 112 280
f 114 112 279
f 280 110 281
f 112 110 280
f 281 108 282
f 110 108 281
f 282 106 283
f 108 106 282
f 106 104 283
f 283 104 284
f 104 102 284
f 284 102 285
f 102 100 285
f 285 100 286
f 100 98 286
f 286 98 287
f 98 96 287
f 287 96 288
f 96 94 288
f 288 94 289
f 94 92 289
f 289 92 290
f 92 90 290
f 290 90 291
f 90 88 291
f 291 88 292
f 88 86 292
f 292 86 293
f 86 84 293
f 293 84 294
f 84 82 294
f 294 82 295
f 82 80 295
f 295 80 296
f 80 78 296
f 296 78 297
f 297 76 171
f 78 76 297
f 298 300 299
f 300 197 198
f 300 196 197
f 300 195 196
f 300 194 195
f 300 193 194
f 300 202 203
f 300 201 202
f 300 200 201
f 300 199 200
f 300 198 199
f 300 211 212
f 300 210 211
f 300 209 210
f 300 208 209
f 300 207 208
f 300 206 207
f 300 205 206
f 300 204 205
f 300 203 204
f 301 192 193
f 301 191 192
f 301 190 191
f 301 189 190
f 301 193 300
f 301 188 189
f 301 187 188
f 301 186 187
f 301 185 186
f 301 184 185
f 301 183 184
f 301 182 183
f 301 181 182
f 301 180 181
f 301 179 180
f 301 178 179
f 301 177 178
f 301 176 177
f 301 175 176
f 301 174 175
f 301 173 174
f 301 297 171
f 301 296 297
f 301 172 173
f 301 171 172
f 301 295 296
f 301 294 295
f 301 293 294
f 301 292 293
f 301 291 292
f 301 290 291
f 301 289 290
f 301 288 289
f 301 287 288
f 301 286 287
f 301 285 286
f 301 284 285
f 301 283 284
f 301 282 283
f 301 281 282
f 301 280 281
f 301 279 280
f 301 278 279
f 301 277 278
f 301 276 277
f 299 275 276
f 299 274 275
f 299 273 274
f 299 272 273
f 299 276 301
f 299 271 272
f 299 270 271
f 299 269 270
f 299 268 269
f 299 267 268
f 299 266 267
f 299 265 266
f 299 264 265
f 299 263 264
f 299 262 263
f 299 261 262
f 299 260 261
f 299 259 260
f 299 258 259
f 299 257 258
f 299 256 257
f 299 255 256
f 299 254 255
f 299 253 254
f 299 252 253
f 299 251 252
f 299 250 251
f 299 249 250
f 299 248 249
f 299 247 248
f 299 246 247
f 299 245 246
f 299 244 245
f 300 243 244
f 300 242 243
f 300 241 242
f 300 240 241
f 300 244 299
f 300 239 240
f 300 238 239
f 300 237 238
f 300 236 237
f 300 235 236
f 300 234 235
f 300 233 234
f 300 232 233
f 300 231 232
f 300 230 231
f 300 229 230
f 300 228 229
f 300 227 228
f 300 226 227
f 300 225 226
f 300 224 225
f 300 223 224
f 300 222 223
f 300 221 222
f 300 220 221
f 300 219 220
f 300 218 219
f 300 217 218
f 300 216 217
f 300 215 216
f 300 214 215
f 300 213 214
f 300 212 213
f 301 300 298
f 298 299 301
