# Render LOD; unchanged CAD body-local coordinates in mm
v -62.4906000 104.4853000 141.0499893
v -62.4906000 103.8867862 141.0499893
v -62.5406000 104.4853000 141.0499893
v -62.5406000 103.8867862 141.0499893
v -62.4906000 103.8639404 141.0280598
v -62.4906000 103.8152916 140.9873701
v -62.4906000 103.8400509 141.0071527
v -62.4906000 104.4853000 143.6499901
v -62.4906000 101.3553084 140.6000000
v -62.4906000 103.8152916 140.6000000
v -62.4906000 101.3553084 141.0499893
v -62.4906000 103.8152916 143.6499901
v -62.4906000 103.8152916 143.9500000
v -62.4906000 101.3553084 143.7126604
v -62.4906000 101.2838138 143.6499901
v -62.4906000 100.6853000 141.0499893
v -62.4906000 101.3305491 143.6928267
v -62.4906000 101.3066596 143.6719707
v -62.4906000 101.3553084 143.9500000
v -62.4906000 100.6853000 143.6499901
v -62.5406000 103.8152916 140.9873701
v -62.5406000 103.8400509 141.0071527
v -62.5406000 103.8639404 141.0280598
v -62.5406000 104.4853000 143.6499901
v -62.5406000 101.3553084 140.6000000
v -62.5406000 103.8152916 140.6000000
v -62.5406000 101.3553084 141.0499893
v -62.5406000 103.8152916 143.6499901
v -62.5406000 101.3553084 143.7126604
v -62.5406000 103.8152916 143.9500000
v -62.5406000 101.2838138 143.6499901
v -62.5406000 100.6853000 141.0499893
v -62.5406000 101.3066596 143.6719707
v -62.5406000 101.3305491 143.6928267
v -62.5406000 101.3553084 143.9500000
v -62.5406000 100.6853000 143.6499901
f 1 2 3
f 2 4 3
f 5 6 7
f 2 6 5
f 1 8 2
f 6 9 10
f 6 11 9
f 8 12 2
f 2 12 6
f 6 12 11
f 13 14 12
f 12 14 11
f 11 15 16
f 17 15 14
f 18 15 17
f 14 15 11
f 13 19 14
f 15 20 16
f 6 21 22
f 7 22 23
f 7 6 22
f 5 7 23
f 2 23 4
f 2 5 23
f 21 4 23
f 21 23 22
f 24 3 4
f 25 21 26
f 27 21 25
f 28 24 4
f 28 4 21
f 28 21 27
f 29 30 28
f 29 28 27
f 31 27 32
f 31 33 34
f 31 34 29
f 31 29 27
f 35 30 29
f 36 31 32
f 24 8 3
f 3 8 1
f 8 28 12
f 24 28 8
f 30 13 28
f 28 13 12
f 35 19 30
f 30 19 13
f 19 35 14
f 14 35 29
f 17 14 29
f 17 34 33
f 17 29 34
f 18 33 31
f 18 17 33
f 15 18 31
f 36 20 31
f 31 20 15
f 20 36 16
f 16 36 32
f 16 27 11
f 32 27 16
f 11 27 9
f 9 27 25
f 10 9 26
f 9 25 26
f 21 6 26
f 26 6 10
