# Render LOD; unchanged CAD body-local coordinates in mm
v -197.3950613 297.3817401 123.4999837
v -197.3836583 297.3969198 124.4459047
v -197.6122173 296.8404454 123.4999836
v -197.6059909 296.7724941 124.4954806
v -197.6028376 296.5127522 124.5146149
v -197.5536021 296.2939640 123.4999834
v -197.4605759 296.0724515 124.5485705
v -197.3210524 295.8696218 123.4999837
v -197.2350785 295.7886650 124.5722704
v -196.9582014 295.5844360 123.4999837
v -196.5489523 295.4480432 123.4999834
v -196.6203389 295.4582865 124.6238446
v -196.0569989 295.4770524 123.4999838
v -195.6599841 295.6677729 123.4999834
v -195.3593097 295.9671550 123.4999835
v -195.4976974 295.8049447 124.5986361
v -195.6488453 295.6723854 124.6929434
v -195.5044603 295.8042195 124.1596271
v -195.3204886 296.0318854 124.1811228
v -195.1408853 296.5059682 123.4999840
v -195.2938035 296.0840047 124.6261954
v -195.2961399 296.0646472 124.7303548
v -195.1682974 296.4241491 124.7608590
v -195.1669990 296.4124115 124.2072473
v -195.2064912 297.0847446 123.4999830
v -195.1442836 296.8245667 124.7892881
v -195.3829653 297.4070017 123.4999837
v -195.2470600 297.1729088 124.8129563
v -195.3259741 297.3251152 124.2755602
v -195.6389649 297.6716018 123.4999832
v -195.6171586 297.6483937 124.8566333
v -195.5378352 297.5906633 124.3001530
v -195.7832729 297.7609138 124.7624743
v -195.9654808 297.8386938 123.4999837
v -196.3261762 297.9138170 123.4999835
v -195.9270986 297.8322665 124.8837457
v -196.2497282 297.9120442 124.7970812
v -196.2482524 297.9098892 124.3535770
v -196.8131022 297.8361251 123.4999840
v -196.6048299 297.8878867 124.9309072
v -196.5902361 297.8918489 124.3800415
v -196.9050423 297.7935726 124.9547338
v -197.1387198 297.6453220 123.4999836
v -197.1399908 297.6442872 124.4233983
v -197.2538076 297.5492835 124.9823367
v -197.3941800 297.3727878 124.8929328
v -197.5607410 297.0389861 124.9168727
v -197.6093305 296.5340692 124.9530434
v -197.6107379 296.6950912 125.0504797
v -197.5584225 296.2891128 125.0789920
v -197.2388908 295.7795174 125.1239264
v -195.8373324 295.5546600 125.1205926
v -196.2296884 295.4476042 125.1984745
v -195.4437149 295.8629790 125.1549475
v -195.6555087 295.6705930 125.2421715
v -195.3263661 296.0093722 125.2756802
v -195.1508459 296.5027590 125.3124529
v -195.2022559 297.0853061 125.2474801
v -195.1380868 296.7906778 125.3369123
v -195.5283936 297.5851130 125.2906286
v -195.2825220 297.2523175 125.3684171
v -195.6890968 297.7037715 125.4143547
v -196.3486885 297.9125255 125.3563478
v -196.8424757 297.8258585 125.3911657
v -196.6846203 297.8714512 125.4859155
v -197.2694672 297.5367725 125.4259076
v -197.0401989 297.7210621 125.5123549
v -197.3206287 297.4726109 125.5403716
v -197.5668856 296.9979095 125.4719576
v -197.5843524 296.9319825 125.5829790
v -197.6093308 296.6025338 125.6087313
v -197.5701497 296.3515874 125.5164527
v -197.5120656 296.1692732 125.6364634
v -197.3454952 295.9078178 125.6598012
v -196.0893538 295.4653443 125.6515568
v -196.4914297 295.4438889 125.7333463
v -195.5585336 295.7384918 125.6933958
v -195.9023087 295.5329634 125.7751673
v -195.5884325 295.7254721 125.7990947
v -195.2611850 296.1401898 125.7293545
v -195.3571622 295.9627785 125.8249261
v -195.1343135 296.6177319 125.7691947
v -195.3653327 297.3994923 125.8238224
v -195.1860054 297.0104504 125.8999294
v -195.4131707 297.4621158 125.9377280
v -196.1023425 297.8834119 125.8892474
v -195.8814292 297.8160576 125.9767455
v -196.4814910 297.9141495 126.0234715
v -196.8428046 297.8193663 126.0481892
v -197.3639915 297.4196229 125.9868331
v -197.5473460 297.0737920 126.0147688
v -197.5399452 297.1055850 126.1195638
v -197.6131319 296.6827251 126.0427600
v -197.6128691 296.6564112 126.1541891
v -197.5322196 296.2220277 126.0760452
v -197.2044619 295.7480506 126.1198752
v -197.5091646 296.1611724 126.1856265
v -197.2940639 295.8525231 126.2155294
v -196.7818673 295.5068417 126.1513839
v -197.0515162 295.6390904 126.2408345
v -196.1864488 295.4532148 126.1934050
v -196.4675892 295.4419037 126.2816775
v -195.7262027 295.6153209 126.2292656
v -196.0005924 295.4901662 126.3138247
v -195.7134869 295.6328194 126.3381240
v -195.1415213 296.8233400 126.3289548
v -195.1426255 296.5188288 126.4175131
v -195.3061529 297.2955319 126.3633054
v -195.4079940 297.4552804 126.4836200
v -195.6311082 297.6623510 126.5060977
v -196.1184948 297.8870961 126.4367521
v -195.9879996 297.8498027 126.5373133
v -196.2751949 297.9057064 126.5589041
v -196.5906388 297.8916108 126.5786441
v -197.0000255 297.7483380 126.6098340
v -197.4163229 297.3504838 126.5442657
v -197.3882424 297.3908705 126.6454303
v -197.5817380 296.9457118 126.5738845
v -197.6104112 296.5919896 126.5993600
v -197.6077919 296.7644231 126.6944465
v -197.5114398 296.1841992 126.6311261
v -197.5958909 296.4420936 126.7152001
v -197.2470322 295.7874819 126.6622939
v -197.4195253 296.0107986 126.7526578
v -197.0754829 295.6469571 126.7887578
v -196.4393934 295.4417567 126.7278745
v -196.6293268 295.4649018 126.8201709
v -196.1017208 295.4694082 126.7500724
v -196.2342959 295.4465706 126.8502437
v -195.6535718 295.6637042 126.7880300
v -195.7367302 295.6092300 126.8838108
v -195.3137346 296.0423586 126.8210303
v -195.3865881 295.9335419 126.9213730
v -195.1759836 296.3880456 126.8486155
v -195.1394533 296.6787285 126.8682842
v -195.1631291 296.4024606 126.9579258
v -195.2340991 297.1670350 126.9032798
v -195.1590396 296.8944600 126.9935408
v -195.5259933 297.5736389 126.9393498
v -195.6937770 297.7068414 127.0650824
v -196.4802904 297.9086616 127.0143747
v -196.2542706 297.9061129 127.1069933
v -196.6213229 297.8854839 127.1313932
v -197.0641758 297.7035014 127.0572787
v -197.4023757 297.3738224 127.0954479
v -197.2339651 297.5666056 127.1832899
v -197.4581924 297.2724494 127.2090874
v -197.5805616 296.9494538 127.2312606
v -197.6087881 296.5306689 127.2610543
v -197.4477534 296.0663876 127.1895987
v -197.2729447 295.8233376 127.2097477
v -197.4576935 296.0747456 127.2971574
v -196.8794420 295.5380906 127.2435506
v -197.1383035 295.6925378 127.3328782
v -196.3891994 295.4385307 127.2795711
v -196.6872254 295.4781321 127.3678717
v -195.7153727 295.6222673 127.3337048
v -196.1938983 295.4455016 127.3986556
v -195.8797121 295.5450842 127.4248396
v -195.2945863 296.0621910 127.3748398
v -195.1490085 296.5220443 127.4062215
v -195.2218111 296.2316644 127.4964880
v -195.1573342 296.9215988 127.5453551
v -195.4797615 297.5372010 127.4845748
v -195.4180834 297.4677574 127.5845470
v -195.8949910 297.8148297 127.5205663
v -195.8039694 297.7718988 127.6230665
v -196.2693172 297.9053642 127.5486037
v -196.1114499 297.8822885 127.6449913
v -196.6079180 297.8940791 127.5714946
v -196.4203341 297.9085238 127.6694045
v -197.0081870 297.7372795 127.6019766
v -196.7652223 297.8497672 127.6908089
v -197.0746540 297.6941226 127.7166291
v -197.4489661 297.2952829 127.6464883
v -197.3447186 297.4432544 127.7438414
v -197.6116958 296.6174162 127.6959933
v -197.5914971 296.8965127 127.7847850
v -197.6056699 296.5766040 127.8087084
v -197.4328893 296.0324015 127.7427565
v -197.5387507 296.2342107 127.8294301
v -197.2049530 295.7600565 127.7680663
v -196.9395244 295.5669244 127.7935592
v -197.1995468 295.7432464 127.8772935
v -196.4608083 295.4413436 127.8244872
v -196.7808352 295.5067469 127.9083934
v -195.8739339 295.5451889 127.8665961
v -196.2895818 295.4348420 127.9481479
v -195.8441134 295.5630456 127.9784027
v -195.5446645 295.7508363 128.0043898
v -195.2065764 296.2541408 128.0429947
v -195.1404105 296.7246422 128.0810766
v -195.2729617 297.2347125 128.0081766
v -195.4857225 297.5313286 128.0341830
v -195.7467210 297.7459160 128.1659124
v -196.3110219 297.9155151 128.1030067
v -196.1352846 297.8866774 128.1977976
v -196.4828277 297.9058917 128.2215048
v -197.0834548 297.6944912 128.1617612
v -196.8424112 297.8211942 128.2469470
v -197.1251170 297.6556465 128.2709143
v -197.4192202 297.3443033 128.1931816
v -197.3761357 297.4062965 128.2958080
v -197.5641025 297.0096367 128.2187052
v -197.5650253 297.0182945 128.3267972
v -197.6164951 296.6170251 128.2466586
v -197.6134385 296.5806456 128.3571206
v -197.5345502 296.2524234 128.3837984
v -197.3246303 295.8812418 128.3036665
v -197.3800119 295.9527126 128.4055239
v -197.0233671 295.6211523 128.3322630
v -197.0591865 295.6391033 128.4372199
v -196.6865073 295.4796625 128.3581881
v -196.3228263 295.4395971 128.3842310
v -195.9633680 295.5111422 128.4102140
v -196.1517328 295.4548030 128.5068628
v -195.6400774 295.6814195 128.4362471
v -195.7181432 295.6283916 128.5374307
v -195.3620280 295.9675210 128.4644533
v -195.3834044 295.9310185 128.5690932
v -195.1755282 296.3681723 128.4951186
v -195.2295570 297.1565633 128.5522464
v -195.1477894 296.8035084 128.6362302
v -195.2387889 297.1616882 128.6611647
v -195.4841942 297.5295577 128.5855617
v -195.7528048 297.7482413 128.7157510
v -196.1872074 297.8975433 128.7499981
v -196.4795416 297.9050820 128.6634545
v -196.7878831 297.8398238 128.6866546
v -196.5529109 297.8979241 128.7765467
v -197.1005536 297.6773145 128.7111404
v -196.9100497 297.7909606 128.8025564
v -194.1241890 296.7986628 123.4999836
v -194.2715430 297.4545546 123.4999836
v -194.5244263 297.9515250 123.4999835
v -194.2530820 295.9143581 123.4999837
v -194.7917501 298.2599791 123.4999836
v -195.1652108 298.5781691 123.4999836
v -194.7151131 295.1497282 123.4999837
v -195.9991935 298.8991844 123.4999837
v -195.4380097 294.6243353 123.4999836
v -196.8924973 298.8710583 123.4999836
v -196.3083195 294.4209118 123.4999837
v -197.7044503 298.4984802 123.4999836
v -197.1888445 294.5712829 123.4999836
v -198.3082102 297.8396296 123.4999836
v -197.9421930 295.0519872 123.4999837
v -198.3406316 295.5895253 123.4999836
v -198.5836699 297.1067880 123.4999837
v -198.5351597 296.0538141 123.4999837
v -198.6172179 296.5492350 123.4999837
v -194.7917501 298.2599791 121.6739737
v -194.6351480 298.0836792 121.5840571
v -194.3444769 297.6286492 121.6179796
v -194.1946059 297.1651068 121.5593941
v -194.1522397 296.9292388 121.5914113
v -194.1927488 296.1588643 121.6485965
v -194.3451292 295.7251911 121.6257304
v -194.5371837 295.4014586 121.5849492
v -194.7080203 295.1853768 121.5882799
v -196.9583051 294.5097868 121.6255708
v -197.2479665 294.6138377 121.6059499
v -197.5701309 294.7787067 121.6075829
v -197.8536244 294.9936473 121.5960229
v -198.1347308 295.2844714 121.6163991
v -198.3207802 295.5650169 121.6149938
v -198.4649291 295.8604000 121.6170004
v -198.5966236 296.3463867 121.6226477
v -198.5377327 297.2640242 121.5918143
v -198.1962421 297.9761668 121.5936441
v -197.5914638 298.5561129 121.6030751
v -197.2425545 298.7425208 121.6094369
v -196.5766732 298.9080286 121.6149549
v -196.1617925 298.9050254 121.5964060
v -195.0312062 298.4742644 121.6345831
v -194.8042651 298.2704420 121.6397698
v -194.9082266 298.1058418 121.3171080
v -194.6953371 298.0518370 121.4311798
v -194.7487314 297.8350503 121.2892347
v -194.3835609 297.6389334 121.5049160
v -194.5011416 297.6829453 121.3829566
v -194.8022295 297.7161979 121.2599566
v -194.4026465 297.3312237 121.3361899
v -194.5635699 297.2942558 121.2656730
v -194.3229499 297.1343756 121.3607844
v -194.3800243 296.7759719 121.2899878
v -194.2329467 296.8797250 121.4080509
v -194.1414263 296.5975151 121.5748273
v -194.1884648 296.2891431 121.5297518
v -194.2467551 296.4707558 121.3927984
v -194.3530560 296.0638278 121.3679401
v -194.2665742 295.9956027 121.5185346
v -194.4031670 296.2950747 121.2981918
v -194.4119638 295.7206229 121.4508556
v -194.5055060 296.3646954 121.2603067
v -194.5312557 295.8662969 121.3008431
v -194.6360264 295.5711004 121.3244052
v -194.6832775 295.3056655 121.4445241
v -194.7722423 295.6517827 121.2620306
v -194.8849935 295.0137178 121.5606975
v -194.8614659 295.1754909 121.3840345
v -195.1721565 294.7894866 121.5757709
v -195.1811664 294.8913433 121.4034474
v -195.0465708 295.2450545 121.2742163
v -195.0550094 295.1065031 121.3193631
v -195.4644287 294.6332682 121.5853947
v -195.4711742 294.7278236 121.4043082
v -195.7298299 294.5286303 121.6165673
v -195.6497352 294.7645601 121.3140013
v -195.8091864 294.5441348 121.4903013
v -195.4833957 294.9818174 121.2632548
v -196.2150128 294.4431176 121.5777306
v -196.1060175 294.5214246 121.4376649
v -195.9531207 294.6259912 121.3461023
v -196.0351330 294.7942532 121.2639128
v -196.5965407 294.4463048 121.6059143
v -196.4344251 294.5405195 121.3911497
v -196.6244493 294.4936147 121.4760611
v -196.4910678 294.6661384 121.2964708
v -197.0334794 294.5787301 121.4774054
v -196.9029118 294.6245162 121.3699770
v -196.8430174 294.7994554 121.2660300
v -197.2967665 294.7772043 121.3659235
v -197.4770138 294.7730511 121.4732011
v -197.3071866 294.9303995 121.2829766
v -197.6557738 295.0144573 121.3522667
v -197.8898825 295.0755153 121.4880908
v -198.1690292 295.3895085 121.4966773
v -197.8303564 295.2415403 121.3126225
v -198.0271687 295.3099707 121.3976582
v -197.7222023 295.3252021 121.2612892
v -198.0463718 295.6480328 121.2777754
v -198.3675130 295.7860650 121.4422207
v -198.1876155 295.6261285 121.3528382
v -198.2647128 295.9487808 121.3036031
v -198.5065287 296.1027968 121.4875102
v -198.4269520 296.3378966 121.3344774
v -198.2225773 296.2483895 121.2607995
v -198.5708581 296.5920832 121.4704670
v -198.6112244 296.8498243 121.6131097
v -198.5159190 296.9483332 121.4071054
v -198.3449858 296.9282787 121.2830479
v -198.4616494 297.3397018 121.4659902
v -198.4323757 297.1104004 121.3571009
v -198.3629408 297.7104048 121.5963492
v -198.2578563 297.5418659 121.3325447
v -198.1468178 297.3926695 121.2624190
v -198.3042118 297.7104994 121.4582388
v -198.0060263 298.0543023 121.3840898
v -198.0183860 298.1703623 121.5293051
v -197.9314598 298.2923110 121.6012315
v -197.9414426 297.9360997 121.2963669
v -197.7021974 298.3961124 121.4354868
v -197.6350325 298.2500458 121.2972101
v -197.4365393 298.6006338 121.4809453
v -197.3936076 298.5240347 121.3659115
v -197.1309471 298.5362187 121.2978855
v -197.1409268 298.7183128 121.4484839
v -196.9110778 298.8450944 121.5730012
v -196.9140995 298.6918480 121.3411374
v -197.6198989 298.1168175 121.2601820
v -196.8617380 298.5086730 121.2612874
v -196.3205886 298.8770204 121.4837633
v -196.7036319 298.8248397 121.4411357
v -196.3177784 298.7779513 121.3564074
v -196.4697978 298.6204967 121.2728285
v -195.9570388 298.7735999 121.3951876
v -196.0878434 298.6686763 121.3011619
v -195.8189406 298.8136262 121.4981280
v -195.6926715 298.8117629 121.6354608
v -195.8561472 298.5011229 121.2616078
v -195.3825889 298.6775134 121.5765138
v -195.4382242 298.6417174 121.4472862
v -195.6502812 298.6135921 121.3306559
v -195.0551777 298.4412688 121.4916288
v -195.3148635 298.4584014 121.3364626
v -195.0729913 298.3655038 121.3903093
v -195.3458043 298.3102153 121.2688501
v -195.1866218 296.9941759 121.2590000
v -195.5053777 295.8044850 121.2590000
v -196.0575415 297.8651251 121.2590000
v -196.6951217 295.4856749 121.2590000
v -197.2473539 297.5463150 121.2590000
v -197.5661098 296.3566241 121.2590000
v -195.1866218 296.9941759 122.6886472
v -195.5053777 295.8044850 122.6886472
v -196.0575415 297.8651251 122.6886472
v -197.2473539 297.5463150 122.6886472
v -197.5661098 296.3566241 122.6886472
v -196.6951217 295.4856749 122.6886472
v -197.2670776 297.5360343 128.8351991
v -197.5709934 296.9937456 128.7708431
v -197.4883736 297.2112798 128.8627393
v -197.5894980 296.9102503 128.8854388
v -197.6125567 296.5722281 128.8022686
v -197.5163831 296.2057040 128.8266443
v -197.3640641 295.9280007 128.8517470
v -197.0705606 295.6466483 128.9890940
v -196.6078330 295.4582718 128.9105070
v -196.5367022 295.4422183 129.0269913
v -196.1125772 295.4649906 128.9476528
v -195.7139102 295.6311534 128.9812946
v -196.0166657 295.4901755 129.0641772
v -195.4638857 295.8450932 129.0042919
v -195.6295174 295.6895037 129.0954640
v -195.2554217 296.1479915 129.0280483
v -195.3614211 295.9687602 129.1226029
v -195.1850057 296.3427130 129.1530091
v -195.1526466 296.8689162 129.0808686
v -195.1383703 296.7264488 129.1742246
v -195.3210080 297.3283496 129.1185380
v -195.2918383 297.2838965 129.1710841
v -195.7970655 297.7674915 129.1663848
v -195.6849272 295.9880070 124.3802867
v -195.1449207 296.7441761 124.2318926
v -195.4504613 296.3449260 124.4169715
v -195.1987320 297.0440848 124.2535187
v -195.4147763 296.8400438 124.4634107
v -195.5586739 297.2092219 124.4991059
v -195.8734240 297.8016613 124.3278707
v -196.8815471 297.8006776 124.4015090
v -196.5150325 297.6460406 124.5984121
v -197.0559907 297.3924954 124.6524135
v -197.5461656 297.0680474 124.4735572
v -197.3294790 296.4853288 124.7392039
v -197.2189057 296.1797197 124.7669340
v -196.9970712 295.6095179 124.5929167
v -196.8597189 295.8271618 124.8183191
v -196.4640953 295.7034446 124.8530992
v -196.0756014 295.4720810 124.6587624
v -196.0713667 295.7497755 124.8908685
v -195.6448599 296.0395056 124.9358220
v -195.4887814 296.2679988 124.9607396
v -195.4175067 296.5335834 124.9854227
v -195.4022161 297.4322094 124.8346834
v -195.7997680 297.4572042 125.0820999
v -196.3006263 297.9067314 124.9091077
v -196.1267750 297.6215420 125.1101842
v -196.6813326 297.6068388 125.1652029
v -197.0244736 297.3988526 125.2017361
v -197.1950437 297.1985374 125.2217444
v -197.5409523 297.1044789 125.0201935
v -197.3293811 296.9080178 125.2523918
v -197.3177794 296.4342584 125.2972855
v -197.2069014 296.1700641 125.3192792
v -197.0361134 295.9644563 125.3454788
v -196.7081978 295.4770484 125.1639809
v -196.7688872 295.7806629 125.3717137
v -196.2989476 295.7039147 125.4199241
v -195.9263571 295.5276774 125.2248604
v -196.0188130 295.7731525 125.4455595
v -195.7713059 295.9113805 125.4715464
v -195.5876413 296.1091592 125.4958204
v -195.4726044 296.3254849 125.5159551
v -195.4030166 296.5963195 125.5411801
v -195.4266962 296.8758905 125.5651992
v -195.4657563 297.5058039 125.3915462
v -195.5243466 297.1490921 125.5946401
v -195.8569860 297.5035177 125.6336781
v -196.0459683 297.8670503 125.4398056
v -196.3730278 297.9088869 125.4641538
v -196.2952131 297.6475373 125.6784450
v -196.7464831 297.5833611 125.7205463
v -197.4810314 297.2229944 125.5619696
v -197.2334172 297.1325316 125.7824266
v -197.3322585 296.4768380 125.8414856
v -197.0065202 295.9342971 125.8972780
v -196.9557265 295.5751545 125.6952295
v -196.7830331 295.7920706 125.9251241
v -196.5264111 295.7139865 125.9455589
v -196.1750633 295.4594970 125.7534797
v -196.2208992 295.7134344 125.9769152
v -195.9540135 295.8017434 125.9985933
v -195.7179425 295.9568062 126.0277152
v -195.4840779 296.2799013 126.0616430
v -195.1409049 296.5349810 125.8644576
v -195.4017687 296.6695686 126.0997094
v -195.5401794 297.1656662 126.1446054
v -195.6864785 297.3604090 126.1646788
v -195.8934823 297.5191447 126.1924060
v -196.4054407 297.6478162 126.2361414
v -196.6575230 297.6060883 126.2632100
v -197.1049200 297.6708540 126.0693893
v -196.9223159 297.4857783 126.2874983
v -197.3315030 297.4575100 126.0915322
v -197.1681728 297.2407578 126.3188924
v -197.3168646 296.9432600 126.3492749
v -195.4711991 297.0429331 128.3318432
v -197.3348121 296.5177354 126.3878340
v -196.8814681 295.8460932 126.4611324
v -197.1580084 296.0823949 126.4327639
v -196.7534975 295.5017092 126.2623220
v -196.5692800 295.7192033 126.4931447
v -196.1130468 295.7341118 126.5377985
v -195.3480013 295.9763645 126.3727124
v -195.6710480 296.0036891 126.5814105
v -195.4177956 296.5150551 126.6314383
v -195.4958725 296.2597035 126.6116049
v -195.4103083 296.7493945 126.6546398
v -195.1933086 297.0360039 126.4516062
v -195.4571551 296.9887959 126.6786526
v -195.5740537 297.2233028 126.7023096
v -195.9863249 297.5678049 126.7467164
v -196.3120335 297.6474417 126.7813044
v -196.7545184 297.5757658 126.8203317
v -197.0021555 297.4149649 126.8470155
v -197.5472924 297.0634852 126.6733845
v -197.2085649 297.1893439 126.8745273
v -197.3461891 296.7838564 126.9131918
v -197.2067851 296.1709427 126.9691127
v -197.3143740 296.4033214 126.9476546
v -197.0533694 295.9801767 126.9913386
v -196.6251886 295.7359211 127.0397083
v -196.0981392 295.7435933 127.0840414
v -195.8404854 295.8590177 127.1112981
v -195.6321739 296.0537301 127.1393303
v -195.4952871 296.2594389 127.1569743
v -195.4142433 296.5429247 127.1876374
v -195.4144461 296.8039430 127.2078695
v -195.4753425 297.0475999 127.2295636
v -195.3454304 297.3705172 127.0267781
v -195.6333362 297.3012267 127.2610699
v -195.8265367 297.4738064 127.2825814
v -195.9730409 297.8398437 127.0848611
v -196.0641053 297.5950738 127.3084208
v -196.3368023 297.6475457 127.3295793
v -196.6063864 297.6191689 127.3581987
v -196.9413250 297.7740723 127.1546821
v -197.0721472 297.3531575 127.4036948
v -196.8759752 297.5104305 127.3846493
v -197.3279894 296.8949035 127.4530004
v -197.3379043 296.5014671 127.4881296
v -197.1859293 296.1335199 127.5219731
v -196.8988005 295.8509112 127.5610891
v -196.5141966 295.7118848 127.5977903
v -195.6488151 296.0257190 127.6858153
v -196.0074434 295.7704384 127.6476214
v -195.4759542 295.8175123 127.4620368
v -195.1475513 296.5702340 127.5193658
v -195.4257073 296.4375332 127.7230982
v -195.4232539 296.8555791 127.7642426
v -195.6526718 297.3242332 127.8138446
v -195.8517379 297.4943014 127.8334568
v -196.1035777 297.6105082 127.8629306
v -196.4560875 297.6478172 127.8923938
v -197.1026845 297.3169358 127.9597151
v -196.8847201 297.5111125 127.9330541
v -197.4913448 297.2028588 127.7627558
v -197.2407313 297.1172468 127.9829639
v -197.3341114 296.8557590 128.0086006
v -197.3414427 296.5751951 128.0331810
v -197.1351035 296.0712044 128.0814570
v -197.2718347 296.2855761 128.0586163
v -196.9513959 295.8958286 128.1045862
v -196.7041554 295.7575799 128.1325839
v -196.2078520 295.7210908 128.1752446
v -195.9598298 295.7978999 128.2008768
v -195.7349054 295.9483587 128.2235881
v -195.4408457 296.4071663 128.2754488
v -195.1940415 297.0234403 128.1020812
v -195.4035402 296.7076303 128.3006028
v -197.0003416 295.6086119 126.6866059
v -196.7307171 295.4950043 126.7058256
v -195.7474959 297.4164808 126.7260920
v -195.9396802 297.8393933 126.9784089
v -196.8434704 297.8187899 127.0407545
v -197.5576544 297.0308851 127.1185648
v -197.6107421 296.7167186 127.1425353
v -197.5716653 296.3584567 127.1680814
v -196.8540716 295.8315189 127.0153766
v -196.3516321 295.7039101 127.0644821
v -196.0150440 295.4944815 127.3081915
v -195.1558867 296.8488172 127.4315729
v -195.2265230 297.1308089 127.4534093
v -197.2415098 297.5537653 127.6253339
v -197.2169084 297.1599394 127.4290517
v -197.5780538 296.9547518 127.6751327
v -197.5514974 296.3035018 127.7212715
v -196.2132210 295.4529513 127.8430174
v -195.4791070 295.8144420 127.9027797
v -195.2115988 296.2600825 127.9399892
v -195.1344067 296.7400283 127.9718070
v -195.5121746 297.1150602 127.7890487
v -195.7927575 297.7683372 128.0655123
v -196.7268157 297.8591854 128.1321927
v -197.5154808 296.1984137 128.2793908
v -196.4607056 295.7088159 128.1544848
v -195.5612455 296.1504092 128.2476806
v -195.1430136 296.7072903 128.5211344
v -195.1795545 296.3738953 124.6483716
v -195.1369206 296.7329546 124.6770780
v -195.2168799 297.0970393 124.7003658
v -195.4121807 297.4566146 124.7310556
v -195.8388310 297.4908620 124.5356524
v -196.1857994 297.6288191 124.5706078
v -196.5965645 297.8895596 124.8226000
v -196.9303558 297.7810109 124.8493915
v -197.1935112 297.6004892 124.8707240
v -197.3323776 296.8882271 124.7054512
v -197.4697489 296.0976885 124.9881296
v -197.1734418 295.7210349 125.0230622
v -196.6274904 295.4576700 125.0681208
v -196.2910152 295.4440934 125.0887210
v -195.8270959 295.8745206 124.9151898
v -195.1979140 296.2786002 125.1927721
v -195.1451601 296.7850809 125.2282184
v -195.4229300 296.8884563 125.0151863
v -195.5831272 297.2406407 125.0546893
v -195.9575464 297.8389118 125.3278599
v -197.4557114 297.2723712 125.4503602
v -197.6117224 296.6943229 125.4939173
v -197.3587346 295.9131737 125.5548312
v -196.8810902 295.5390435 125.5989298
v -196.5516357 295.4539266 125.6196602
v -195.1709758 296.9425913 125.7900662
v -195.7189735 297.7227811 125.8588930
v -196.5674869 297.9014447 125.9182543
v -197.0625868 297.7068146 125.9574824
v -197.0768904 297.3483620 125.7579712
v -197.3326693 296.8560999 125.8089809
v -197.1825432 296.1322800 125.8770883
v -196.4960968 295.4487702 126.1733561
v -195.3050112 296.0443961 126.2764774
v -195.1833195 296.3595664 126.2971432
v -195.4417217 296.9392828 126.1238350
v -195.6199360 297.6623196 126.4011878
v -196.1464581 297.6175543 126.2153047
v -196.5916715 297.8969475 126.4728926
v -197.0891610 297.6904250 126.5132455
v -195.1565101 296.4913107 129.0553207
v -195.4376586 296.9345392 128.8707332
v -195.6658678 297.3564660 128.9144451
v -196.2117596 297.6469783 128.9702243
v -196.1604358 297.8840861 129.1818237
v -196.6811729 297.5987299 129.0124193
v -196.9606207 297.4547028 129.0411453
v -196.6010438 297.8631193 129.1984163
v -197.0625796 297.6529544 129.2164489
v -197.3370824 296.8397676 129.1074337
v -197.3231886 296.4127336 129.1455306
v -197.4909087 296.4422708 129.2737268
v -197.1129753 296.0386287 129.1848717
v -196.4803102 295.7060434 129.2500691
v -197.3846917 297.2656082 129.2394203
v -196.0413300 295.7538443 129.2904928
v -196.0254866 295.6844643 129.3545483
v -195.6775290 295.9965107 129.3295727
v -195.4938566 296.1677217 129.3891089
v -195.4096888 296.5472243 129.3857691
v -195.4414177 296.9577463 129.4245018
v -195.3760273 296.5932027 129.4090455
v -195.7057000 297.3848668 128.3689650
v -196.1532215 297.6333074 128.4148666
v -195.7279171 297.7251213 128.6078962
v -196.0863688 297.8818653 128.6367157
v -196.7273537 297.5921586 128.4672829
v -197.0750161 297.3519933 128.5052641
v -197.3883412 297.3907473 128.7404435
v -197.3050678 296.9944940 128.5436948
v -197.3260780 296.4286006 128.5973145
v -197.0106655 295.9228400 128.6488553
v -197.0340972 295.6255052 128.8822103
v -196.4622334 295.6954687 128.7024322
v -195.7709112 295.9142585 128.7689097
v -195.5238264 296.2024256 128.8034180
v -195.4024341 296.5857840 128.8394482
v -196.9362419 297.3876552 129.5000262
v -195.4613970 296.6635136 129.5000679
v -195.5852686 296.2304712 129.5000146
v -196.6222725 297.5485876 129.5000248
v -196.2324090 297.5722483 129.5000220
v -195.8321459 297.4036755 129.5000594
v -195.5925870 297.6380741 129.1563806
v -195.5926926 297.1313526 129.5000484
v -195.7132914 295.8784004 129.3716601
v -195.8717999 295.9150643 129.5000497
v -196.2521064 295.7774438 129.5000102
v -196.3789936 295.6060482 129.3380064
v -196.8550749 295.6893915 129.3163127
v -196.6489990 295.8067527 129.5000571
v -197.0359299 296.0478276 129.5000350
v -197.2671808 296.0053583 129.2955373
v -197.2347804 296.3854994 129.5000216
v -197.2842403 296.7663224 129.5001281
v -197.5089967 296.8807433 129.2552638
v -197.1499269 297.1515264 129.5000412
v -196.6423842 295.4675552 128.4757871
v -196.0742391 295.7505989 128.7374552
v -195.1675573 296.4035044 128.6068982
v -195.4394530 297.4805357 128.6892029
v -197.1981861 297.2006766 129.0721435
v -197.6073450 296.5945862 128.9068847
v -197.5357425 296.2395195 128.9316591
v -197.3563817 295.9258824 128.9576870
v -196.8104982 295.7999772 129.2203346
v -195.4910716 296.2718812 129.3594355
v -195.3528592 297.3760167 128.1296510
f 424 2 1
f 424 1 3
f 4 424 3
f 5 4 3
f 5 3 6
f 7 5 6
f 7 6 8
f 9 7 8
f 9 8 10
f 427 9 10
f 12 427 10
f 12 10 11
f 430 12 11
f 430 11 13
f 17 13 14
f 17 430 13
f 18 17 14
f 18 14 15
f 16 17 18
f 22 17 16
f 19 18 15
f 19 15 20
f 24 19 20
f 23 22 590
f 26 23 591
f 415 24 20
f 415 20 25
f 417 415 25
f 28 26 592
f 29 417 25
f 29 25 27
f 435 28 593
f 32 29 27
f 32 27 30
f 31 435 593
f 36 31 33
f 420 32 30
f 420 30 34
f 38 420 34
f 38 34 35
f 437 36 37
f 40 437 37
f 41 38 35
f 41 35 39
f 42 40 596
f 421 41 39
f 44 39 43
f 44 421 39
f 45 42 597
f 2 44 43
f 2 43 1
f 16 21 22
f 21 590 22
f 590 591 23
f 591 592 26
f 592 593 28
f 593 33 31
f 33 37 36
f 37 596 40
f 596 597 42
f 597 598 45
f 46 45 598
f 442 45 46
f 442 46 47
f 49 442 47
f 49 47 48
f 50 49 48
f 600 50 48
f 51 50 600
f 601 51 600
f 447 51 601
f 602 447 601
f 53 447 602
f 603 53 602
f 52 53 603
f 450 53 52
f 55 450 52
f 54 55 52
f 56 55 54
f 605 56 54
f 57 56 605
f 59 57 605
f 606 59 605
f 58 59 606
f 61 59 58
f 60 61 58
f 457 61 60
f 62 457 60
f 609 62 60
f 460 62 609
f 63 460 609
f 461 460 63
f 65 461 63
f 64 65 63
f 67 65 64
f 66 67 64
f 68 67 66
f 610 68 66
f 464 68 610
f 69 464 610
f 70 464 69
f 611 70 69
f 71 70 611
f 72 71 611
f 73 71 72
f 612 73 72
f 74 73 612
f 468 74 612
f 613 468 612
f 76 468 613
f 614 76 613
f 75 76 614
f 471 76 75
f 78 471 75
f 77 78 75
f 79 78 77
f 81 79 77
f 80 81 77
f 476 81 80
f 82 476 80
f 84 476 82
f 615 84 82
f 83 84 615
f 85 84 83
f 616 85 83
f 87 85 616
f 86 87 616
f 88 87 86
f 617 88 86
f 89 88 617
f 618 89 617
f 483 89 618
f 485 483 618
f 485 618 90
f 92 485 90
f 91 92 90
f 93 92 91
f 94 92 93
f 95 94 93
f 97 94 95
f 97 95 96
f 98 97 96
f 100 98 96
f 99 100 96
f 492 100 99
f 102 492 99
f 622 102 99
f 101 102 622
f 104 102 101
f 103 104 101
f 105 104 103
f 495 105 103
f 623 495 103
f 107 495 623
f 624 107 623
f 106 107 624
f 500 107 106
f 108 500 106
f 109 500 108
f 626 109 108
f 110 109 626
f 112 110 626
f 111 112 626
f 113 112 111
f 628 113 111
f 114 113 628
f 115 114 628
f 629 115 628
f 117 115 629
f 117 629 116
f 507 117 116
f 118 507 116
f 120 507 118
f 119 120 118
f 122 120 119
f 121 122 119
f 124 122 121
f 123 124 121
f 125 124 123
f 562 125 123
f 563 125 562
f 127 125 563
f 126 127 563
f 129 127 126
f 128 129 126
f 131 129 128
f 130 131 128
f 133 131 130
f 132 133 130
f 136 133 132
f 134 136 132
f 135 136 134
f 138 136 135
f 137 138 135
f 521 138 137
f 139 521 137
f 140 521 139
f 565 140 139
f 524 140 565
f 142 524 565
f 141 142 565
f 143 142 141
f 143 141 566
f 528 143 566
f 144 528 566
f 146 528 144
f 145 146 144
f 147 146 145
f 567 147 145
f 148 147 567
f 568 148 567
f 149 148 568
f 569 149 568
f 152 149 569
f 150 152 569
f 151 152 150
f 154 152 151
f 153 154 151
f 156 154 153
f 155 156 153
f 158 156 155
f 572 158 155
f 157 158 572
f 159 158 157
f 538 159 157
f 160 538 157
f 162 538 160
f 161 162 160
f 539 162 161
f 163 539 161
f 573 163 161
f 574 163 573
f 165 163 574
f 164 165 574
f 167 165 164
f 166 167 164
f 169 167 166
f 168 169 166
f 171 169 168
f 170 171 168
f 173 171 170
f 173 170 172
f 174 173 172
f 575 174 172
f 176 174 575
f 175 176 575
f 548 176 175
f 577 548 175
f 178 548 577
f 177 178 577
f 179 178 177
f 181 179 177
f 578 181 177
f 180 181 578
f 184 181 180
f 182 184 180
f 183 184 182
f 186 184 183
f 185 186 183
f 188 186 185
f 579 188 185
f 187 188 579
f 189 188 187
f 190 189 187
f 580 190 187
f 191 190 580
f 581 191 580
f 582 191 581
f 192 191 582
f 560 192 582
f 193 560 582
f 697 560 193
f 194 697 193
f 195 697 194
f 584 195 194
f 197 195 584
f 196 197 584
f 198 197 196
f 585 198 196
f 200 198 585
f 199 200 585
f 201 200 199
f 203 201 199
f 202 203 199
f 205 203 202
f 204 205 202
f 206 205 204
f 207 205 206
f 586 207 206
f 208 207 586
f 210 208 586
f 209 210 586
f 212 210 209
f 211 212 209
f 213 212 211
f 687 212 213
f 214 687 213
f 216 687 214
f 215 216 214
f 218 216 215
f 217 218 215
f 220 218 217
f 219 220 217
f 221 220 219
f 689 220 221
f 589 689 221
f 223 689 589
f 222 223 589
f 224 223 222
f 690 224 222
f 225 690 222
f 226 690 225
f 654 226 225
f 655 226 654
f 227 226 655
f 228 227 655
f 230 227 228
f 229 230 228
f 232 230 229
f 231 232 229
f 391 232 231
f 391 231 658
f 233 20 236
f 233 25 20
f 234 25 233
f 20 15 236
f 235 25 234
f 236 15 239
f 235 27 25
f 237 30 235
f 235 30 27
f 238 30 237
f 15 14 239
f 239 14 241
f 14 13 241
f 238 34 30
f 240 34 238
f 241 13 243
f 240 35 34
f 13 11 243
f 240 242 35
f 35 242 39
f 11 245 243
f 10 245 11
f 242 244 39
f 39 244 43
f 10 247 245
f 8 247 10
f 43 244 1
f 244 246 1
f 8 248 247
f 6 248 8
f 1 246 3
f 6 250 248
f 246 249 3
f 6 251 250
f 3 251 6
f 249 251 3
f 253 252 237
f 253 237 235
f 254 253 235
f 254 235 234
f 255 254 234
f 255 234 233
f 256 255 233
f 288 256 233
f 257 288 233
f 257 233 236
f 258 257 236
f 259 236 239
f 259 258 236
f 260 259 239
f 300 260 239
f 302 300 239
f 302 239 241
f 306 302 241
f 308 306 241
f 308 241 243
f 312 308 243
f 316 312 243
f 261 316 243
f 261 243 245
f 262 261 245
f 263 262 245
f 263 245 247
f 264 263 247
f 265 264 247
f 265 247 248
f 266 265 248
f 267 266 248
f 267 248 250
f 268 267 250
f 268 250 251
f 340 268 251
f 340 251 249
f 269 340 249
f 269 249 246
f 345 269 246
f 270 345 246
f 351 270 246
f 351 246 244
f 271 351 244
f 272 271 244
f 272 244 242
f 359 272 242
f 273 359 242
f 273 242 240
f 274 273 240
f 370 274 240
f 370 240 238
f 372 370 238
f 275 372 238
f 275 238 237
f 252 275 237
f 252 252 237
f 252 252 237
f 276 275 252
f 276 252 252
f 276 252 252
f 253 276 252
f 280 253 254
f 280 278 253
f 281 277 278
f 279 277 281
f 281 278 280
f 283 279 281
f 255 280 254
f 283 281 280
f 282 279 284
f 283 280 255
f 284 279 283
f 285 283 255
f 287 285 255
f 287 255 256
f 286 283 285
f 288 287 256
f 286 284 283
f 286 285 287
f 295 282 284
f 290 287 288
f 289 288 257
f 295 284 286
f 289 290 288
f 290 286 287
f 293 286 290
f 292 289 257
f 291 290 289
f 292 291 289
f 292 257 258
f 295 286 293
f 293 290 291
f 294 291 292
f 294 292 258
f 296 293 291
f 259 294 258
f 297 291 294
f 295 293 296
f 296 291 297
f 298 294 259
f 299 295 296
f 298 297 294
f 260 298 259
f 297 299 296
f 301 297 298
f 300 298 260
f 301 298 300
f 305 297 301
f 304 299 297
f 304 297 305
f 303 301 300
f 303 300 302
f 311 299 304
f 305 301 303
f 307 303 302
f 311 304 305
f 307 302 306
f 309 305 303
f 309 303 307
f 311 305 309
f 310 307 306
f 310 306 308
f 314 307 310
f 309 307 314
f 310 308 312
f 312 313 310
f 313 314 310
f 315 311 309
f 315 309 314
f 317 314 313
f 317 313 312
f 318 317 312
f 318 312 316
f 319 314 317
f 319 315 314
f 320 318 316
f 320 316 261
f 321 317 318
f 322 315 319
f 321 318 320
f 321 319 317
f 262 320 261
f 321 322 319
f 324 320 262
f 324 262 263
f 323 321 320
f 323 320 324
f 325 322 321
f 325 321 323
f 326 323 324
f 325 323 326
f 264 324 263
f 327 324 264
f 326 324 327
f 331 322 325
f 329 325 326
f 265 327 264
f 330 326 327
f 328 327 265
f 331 325 329
f 328 330 327
f 329 326 330
f 266 328 265
f 333 328 266
f 333 330 328
f 334 329 330
f 332 331 329
f 334 330 333
f 333 266 267
f 332 329 334
f 336 333 267
f 335 332 334
f 338 331 332
f 333 335 334
f 268 336 267
f 337 335 333
f 337 333 336
f 338 332 335
f 339 336 268
f 337 336 339
f 340 339 268
f 338 335 337
f 341 337 339
f 342 338 337
f 341 339 340
f 341 340 269
f 342 337 341
f 344 342 341
f 343 341 269
f 347 338 342
f 344 341 343
f 348 269 345
f 348 343 269
f 346 344 343
f 348 346 343
f 346 342 344
f 347 342 346
f 270 348 345
f 349 346 348
f 350 348 270
f 350 270 351
f 349 348 350
f 352 347 346
f 352 346 349
f 361 347 352
f 353 350 351
f 353 349 350
f 354 352 349
f 271 353 351
f 353 354 349
f 354 361 352
f 355 353 271
f 356 353 355
f 272 355 271
f 356 354 353
f 356 355 358
f 358 355 272
f 357 354 356
f 359 358 272
f 360 356 358
f 361 354 357
f 357 356 360
f 362 361 357
f 364 358 359
f 360 358 364
f 364 359 273
f 362 357 360
f 363 364 273
f 366 362 360
f 274 363 273
f 365 360 364
f 365 364 363
f 366 360 365
f 369 274 370
f 369 363 274
f 367 363 369
f 367 365 363
f 366 365 368
f 368 365 367
f 371 362 366
f 371 366 368
f 372 369 370
f 374 368 367
f 373 369 372
f 374 367 369
f 374 369 373
f 371 368 374
f 375 373 372
f 375 372 275
f 376 374 373
f 378 371 374
f 377 373 375
f 378 374 376
f 377 376 373
f 275 276 253
f 375 275 253
f 375 253 278
f 377 375 278
f 277 376 377
f 377 278 277
f 277 378 376
f 378 282 371
f 378 277 279
f 378 279 282
f 379 282 295
f 380 379 295
f 380 295 299
f 380 299 311
f 381 282 379
f 381 371 282
f 362 371 381
f 382 311 315
f 382 380 311
f 382 315 322
f 331 382 322
f 383 361 362
f 383 362 381
f 331 384 382
f 338 384 331
f 347 361 383
f 347 383 384
f 338 347 384
f 379 380 385
f 385 380 386
f 381 379 387
f 387 379 385
f 383 381 388
f 388 381 387
f 384 383 389
f 389 383 388
f 382 384 390
f 390 384 389
f 380 382 386
f 386 382 390
f 385 386 390
f 387 390 389
f 387 389 388
f 387 385 390
f 393 391 658
f 393 658 392
f 394 393 392
f 394 392 395
f 692 394 395
f 693 692 395
f 693 395 396
f 693 396 397
f 694 693 397
f 398 694 397
f 398 397 662
f 400 398 662
f 400 662 399
f 400 399 401
f 403 400 401
f 403 401 402
f 405 403 402
f 405 402 404
f 407 405 404
f 407 404 406
f 408 407 406
f 408 406 630
f 410 408 630
f 410 630 409
f 412 410 409
f 412 409 411
f 673 412 411
f 19 414 18
f 94 487 92
f 24 416 19
f 19 416 414
f 24 415 416
f 416 415 418
f 415 417 418
f 418 417 419
f 417 29 419
f 32 594 29
f 29 594 419
f 594 420 595
f 32 420 594
f 595 38 422
f 420 38 595
f 38 41 422
f 422 421 423
f 41 421 422
f 421 44 423
f 44 2 423
f 423 2 599
f 2 424 599
f 424 4 599
f 599 4 425
f 5 425 4
f 7 425 5
f 7 426 425
f 7 9 426
f 426 9 428
f 9 427 428
f 12 429 427
f 427 429 428
f 430 429 12
f 429 430 431
f 430 17 431
f 431 17 604
f 22 432 17
f 17 432 604
f 432 22 433
f 23 434 22
f 26 434 23
f 22 434 433
f 26 607 434
f 26 28 607
f 607 28 608
f 28 435 608
f 608 435 436
f 436 31 438
f 435 31 436
f 36 438 31
f 36 437 438
f 438 437 439
f 437 40 439
f 45 439 42
f 42 439 40
f 439 45 440
f 440 45 441
f 442 441 45
f 441 442 443
f 442 49 443
f 443 49 444
f 50 444 49
f 51 445 50
f 50 445 444
f 51 446 445
f 447 448 51
f 51 448 446
f 448 447 449
f 447 53 449
f 53 451 449
f 450 451 53
f 450 55 451
f 451 55 452
f 452 56 453
f 55 56 452
f 57 454 56
f 56 454 453
f 454 57 455
f 59 456 57
f 57 456 455
f 59 61 456
f 456 61 458
f 61 457 458
f 458 457 459
f 460 459 62
f 62 459 457
f 459 460 462
f 460 461 462
f 462 461 463
f 461 65 463
f 65 67 463
f 463 67 619
f 619 68 465
f 67 68 619
f 68 464 465
f 465 464 620
f 464 70 620
f 70 466 620
f 71 466 70
f 466 73 621
f 71 73 466
f 621 74 467
f 73 74 621
f 468 467 74
f 469 468 470
f 467 468 469
f 76 470 468
f 76 471 470
f 470 471 472
f 78 473 471
f 79 473 78
f 471 473 472
f 473 79 474
f 81 475 79
f 79 475 474
f 476 475 81
f 475 476 477
f 477 84 625
f 476 84 477
f 85 478 84
f 84 478 625
f 85 479 478
f 87 479 85
f 479 87 480
f 480 87 627
f 88 627 87
f 88 481 627
f 88 89 481
f 481 89 482
f 482 89 484
f 89 483 484
f 483 485 484
f 484 485 486
f 486 92 487
f 485 92 486
f 414 16 18
f 94 489 487
f 97 489 94
f 489 97 491
f 97 98 491
f 100 490 98
f 98 490 491
f 100 492 490
f 490 492 493
f 493 102 494
f 492 102 493
f 102 104 494
f 494 105 496
f 104 105 494
f 495 496 105
f 496 495 498
f 107 497 495
f 495 497 498
f 500 499 107
f 107 499 497
f 501 500 502
f 499 500 501
f 502 109 564
f 500 109 502
f 109 110 564
f 564 110 503
f 112 503 110
f 112 113 503
f 113 504 503
f 504 114 505
f 113 114 504
f 114 115 505
f 117 506 115
f 115 506 505
f 506 117 508
f 508 507 509
f 117 507 508
f 509 120 511
f 507 120 509
f 120 122 511
f 124 510 122
f 122 510 511
f 124 512 510
f 125 512 124
f 125 570 512
f 125 127 570
f 570 127 513
f 513 127 571
f 129 571 127
f 131 514 129
f 129 514 571
f 514 131 515
f 131 516 515
f 133 516 131
f 136 517 133
f 133 517 516
f 136 518 517
f 138 519 136
f 136 519 518
f 138 520 519
f 521 520 138
f 520 521 522
f 140 523 521
f 521 523 522
f 140 524 523
f 523 524 525
f 525 524 526
f 142 526 524
f 143 526 142
f 526 143 527
f 143 528 527
f 527 528 530
f 146 529 528
f 528 529 530
f 146 147 529
f 147 576 529
f 147 148 576
f 576 148 531
f 531 149 532
f 148 149 531
f 152 532 149
f 152 533 532
f 154 533 152
f 154 534 533
f 156 534 154
f 156 535 534
f 158 535 156
f 535 158 537
f 158 159 537
f 538 536 159
f 159 536 537
f 162 540 538
f 538 540 536
f 162 539 540
f 540 539 541
f 163 541 539
f 163 583 541
f 165 583 163
f 542 165 543
f 583 165 542
f 167 543 165
f 167 169 543
f 543 169 544
f 171 545 169
f 169 545 544
f 171 173 545
f 545 173 547
f 173 174 547
f 176 546 174
f 174 546 547
f 176 548 546
f 549 548 550
f 546 548 549
f 548 178 550
f 178 179 550
f 550 179 551
f 551 179 553
f 179 181 553
f 184 552 181
f 181 552 553
f 184 554 552
f 184 186 554
f 554 186 555
f 188 587 186
f 186 587 555
f 189 556 188
f 188 556 587
f 556 189 557
f 557 189 558
f 190 558 189
f 191 588 190
f 190 588 558
f 588 191 559
f 191 561 559
f 192 561 191
f 488 560 697
f 192 560 561
f 561 560 488
f 487 119 118
f 489 119 487
f 119 489 121
f 491 121 489
f 121 491 123
f 490 562 491
f 491 562 123
f 490 563 562
f 493 563 490
f 493 126 563
f 494 126 493
f 128 494 130
f 126 494 128
f 496 130 494
f 130 496 132
f 496 498 132
f 132 498 134
f 497 134 498
f 497 499 134
f 135 499 137
f 134 499 135
f 499 501 137
f 137 502 139
f 501 502 137
f 502 564 139
f 139 564 565
f 503 565 564
f 503 504 565
f 565 504 141
f 505 141 504
f 505 566 141
f 505 506 566
f 144 506 145
f 566 506 144
f 508 145 506
f 509 567 508
f 508 567 145
f 511 568 509
f 509 568 567
f 511 569 568
f 510 150 511
f 511 150 569
f 510 512 150
f 512 151 150
f 151 570 153
f 512 570 151
f 570 513 153
f 153 513 155
f 513 571 155
f 155 571 572
f 514 572 571
f 515 572 514
f 515 157 572
f 515 516 157
f 157 516 160
f 517 160 516
f 517 518 160
f 160 518 161
f 519 573 518
f 520 573 519
f 518 573 161
f 520 574 573
f 520 522 574
f 574 522 164
f 522 523 164
f 164 523 166
f 166 525 168
f 523 525 166
f 526 168 525
f 526 527 168
f 168 527 170
f 170 530 172
f 527 530 170
f 529 575 530
f 530 575 172
f 529 576 575
f 575 576 175
f 531 577 576
f 576 577 175
f 531 532 577
f 577 532 177
f 533 578 532
f 532 578 177
f 533 180 578
f 534 182 533
f 533 182 180
f 534 183 182
f 535 183 534
f 183 535 185
f 537 579 535
f 535 579 185
f 579 537 187
f 536 580 537
f 537 580 187
f 580 536 581
f 540 581 536
f 540 582 581
f 540 541 582
f 582 541 193
f 541 583 193
f 193 542 194
f 583 542 193
f 544 584 543
f 543 584 542
f 542 584 194
f 584 544 196
f 545 196 544
f 547 585 545
f 545 585 196
f 547 199 585
f 547 546 199
f 199 546 202
f 546 549 202
f 202 549 204
f 204 550 206
f 549 550 204
f 550 551 206
f 553 586 551
f 551 586 206
f 553 552 586
f 586 552 209
f 552 554 209
f 209 554 211
f 554 555 211
f 211 555 213
f 213 587 214
f 555 587 213
f 587 556 214
f 214 556 215
f 556 557 215
f 215 557 217
f 557 558 217
f 217 558 219
f 219 588 221
f 558 588 219
f 588 559 221
f 561 589 559
f 559 589 221
f 561 488 589
f 589 488 222
f 416 21 414
f 414 21 16
f 416 590 21
f 416 591 590
f 418 591 416
f 419 592 418
f 418 592 591
f 419 593 592
f 419 594 593
f 593 594 33
f 33 594 37
f 594 595 37
f 422 596 595
f 595 596 37
f 423 597 422
f 422 597 596
f 423 598 597
f 423 46 598
f 599 46 423
f 46 599 47
f 47 599 48
f 425 48 599
f 426 600 425
f 425 600 48
f 426 601 600
f 428 601 426
f 601 428 602
f 429 602 428
f 429 603 602
f 431 603 429
f 603 431 52
f 431 604 52
f 52 604 54
f 604 432 54
f 433 605 432
f 432 605 54
f 433 434 605
f 605 434 606
f 607 606 434
f 606 607 58
f 607 608 58
f 58 608 60
f 60 436 609
f 608 436 60
f 438 609 436
f 439 63 438
f 438 63 609
f 63 439 64
f 440 64 439
f 64 440 66
f 443 610 441
f 441 610 440
f 440 610 66
f 443 69 610
f 443 611 69
f 444 611 443
f 72 444 612
f 611 444 72
f 445 612 444
f 446 612 445
f 612 446 613
f 448 613 446
f 448 614 613
f 449 614 448
f 614 449 75
f 75 451 77
f 449 451 75
f 451 452 77
f 452 453 77
f 77 453 80
f 80 454 82
f 453 454 80
f 455 82 454
f 456 615 455
f 458 615 456
f 455 615 82
f 615 458 83
f 459 83 458
f 459 616 83
f 462 86 459
f 459 86 616
f 462 617 86
f 463 617 462
f 617 463 618
f 618 619 90
f 463 619 618
f 90 465 91
f 619 465 90
f 465 620 91
f 91 620 93
f 620 466 93
f 93 466 95
f 95 621 96
f 466 621 95
f 467 96 621
f 469 96 467
f 96 469 99
f 472 622 470
f 470 622 469
f 469 622 99
f 622 472 101
f 472 103 101
f 473 103 472
f 473 474 103
f 103 474 623
f 475 623 474
f 477 624 475
f 475 624 623
f 624 477 106
f 477 625 106
f 106 625 108
f 625 478 108
f 480 626 479
f 479 626 478
f 478 626 108
f 626 480 111
f 480 627 111
f 482 628 481
f 481 628 627
f 627 628 111
f 628 482 629
f 484 629 482
f 486 116 484
f 484 116 629
f 486 487 116
f 116 487 118
f 666 631 409
f 631 411 409
f 632 411 631
f 632 673 411
f 413 673 632
f 633 413 632
f 634 413 633
f 635 637 633
f 633 637 634
f 638 635 636
f 635 638 637
f 638 636 691
f 685 640 641
f 639 640 685
f 682 641 640
f 643 679 695
f 691 644 638
f 691 685 644
f 639 685 691
f 642 682 640
f 642 679 682
f 695 679 642
f 643 678 679
f 645 678 643
f 645 646 678
f 645 675 646
f 647 675 645
f 647 648 675
f 696 648 647
f 649 651 696
f 696 651 648
f 650 651 649
f 652 225 488
f 488 225 222
f 653 654 652
f 655 654 653
f 652 654 225
f 653 228 655
f 656 228 653
f 231 229 656
f 656 229 228
f 658 231 657
f 657 231 656
f 659 658 657
f 659 392 658
f 659 395 392
f 660 395 659
f 395 660 396
f 660 397 396
f 661 397 660
f 661 662 397
f 663 399 661
f 661 399 662
f 401 399 663
f 663 688 401
f 664 402 688
f 688 402 401
f 665 404 664
f 664 404 402
f 406 404 665
f 406 665 666
f 409 630 666
f 666 630 406
f 650 674 668
f 651 650 668
f 651 668 669
f 648 651 669
f 638 667 670
f 670 637 638
f 637 670 671
f 634 637 671
f 413 671 672
f 634 671 413
f 673 413 672
f 672 412 673
f 674 412 672
f 412 674 650
f 650 410 412
f 675 648 669
f 675 669 676
f 646 675 676
f 646 676 677
f 678 646 677
f 678 677 680
f 679 678 680
f 679 680 681
f 682 679 681
f 682 681 683
f 683 641 682
f 684 641 683
f 685 641 684
f 644 684 686
f 644 685 684
f 686 667 638
f 644 686 638
f 671 667 686
f 671 686 684
f 671 670 667
f 676 680 677
f 672 684 683
f 672 671 684
f 674 672 683
f 668 674 683
f 668 683 681
f 668 676 669
f 668 681 680
f 668 680 676
f 657 201 203
f 656 201 657
f 200 201 656
f 657 203 659
f 203 205 659
f 205 207 659
f 659 207 660
f 207 208 660
f 660 210 661
f 208 210 660
f 210 212 661
f 212 687 661
f 661 687 663
f 663 687 216
f 216 688 663
f 216 218 688
f 688 218 664
f 218 220 664
f 664 220 665
f 689 665 220
f 666 665 689
f 666 689 223
f 631 223 224
f 666 223 631
f 632 224 690
f 631 224 632
f 632 690 226
f 632 226 633
f 226 227 633
f 633 230 635
f 227 230 633
f 230 232 635
f 635 232 636
f 391 636 232
f 393 691 391
f 391 691 636
f 393 394 691
f 691 394 639
f 640 692 693
f 394 692 639
f 639 692 640
f 693 694 640
f 642 694 398
f 640 694 642
f 398 695 642
f 643 695 400
f 400 695 398
f 643 400 645
f 645 400 403
f 403 405 645
f 645 405 647
f 647 407 696
f 405 407 647
f 408 696 407
f 649 696 408
f 408 410 649
f 410 650 649
f 652 697 195
f 488 697 652
f 652 195 653
f 195 197 653
f 197 198 653
f 653 198 656
f 198 200 656
