# Render LOD; unchanged CAD body-local coordinates in mm
v -18.6459694 -26.7600137 -81.9162329
v -17.7743692 -26.7414566 -80.7530681
v -18.1544431 -26.7411252 -81.4738573
v -18.6970656 -26.5776238 -81.8218336
v -17.8861728 -26.6402641 -80.8211086
v -18.2587265 -26.4347234 -81.2395963
v -18.1977078 -26.2936540 -80.6980707
v -17.9409210 -26.5087241 -80.0194903
v -18.3352526 -26.1742375 -80.2332462
v -18.6142537 -26.0870052 -79.8733520
v -18.5162580 -26.3124700 -79.4001057
v -18.9540989 -26.0366996 -79.6424289
v -19.1570459 -26.0239954 -79.5669786
v -19.0513935 -26.2392524 -79.1691893
v -19.2236481 -26.0277489 -79.5360163
v -19.2806407 -26.0204803 -79.5344994
v -19.6402519 -26.2214955 -79.1131553
v -20.7452603 -25.3774288 -81.0199754
v -20.4419965 -25.0300016 -80.4146116
v -20.5866288 -25.1888683 -80.5774575
v -19.9269360 -24.8750019 -80.1022713
v -20.2573574 -25.0379509 -80.2466414
v -19.8212602 -24.9323877 -80.0495414
v -19.2215452 -24.8774095 -80.0560388
v -18.5482022 -24.8576365 -80.4951294
v -18.4754655 -24.9501881 -80.5634328
v -18.2970917 -24.9471782 -80.9252042
v -18.2502385 -25.0548577 -81.4133121
v -18.2688225 -25.0455658 -81.0034639
v -18.4042382 -25.2344441 -81.8762873
v -18.8843052 -25.2468931 -82.3774989
v -18.7194780 -25.3089874 -82.2506009
v -19.3543404 -25.2486537 -82.5433581
v -19.2515373 -25.3291778 -82.4987094
v -19.8791679 -25.1911150 -82.5055245
v -20.1248720 -25.1332320 -82.4021300
v -20.1779636 -25.1235803 -82.3708999
v -20.2294376 -25.1129157 -82.3374392
v -20.4633570 -25.0638925 -82.1289781
v -20.5977482 -24.9868468 -81.9397471
v -20.6242940 -24.9824380 -81.8871022
v -20.6506494 -24.9594405 -81.8336542
v -20.6746262 -24.9353707 -81.7773509
v -18.9882801 -26.5949216 -82.0093744
v -19.4107769 -26.5877266 -82.1168905
v -19.2034119 -26.6751381 -82.0627588
v -19.7196486 -26.6323197 -82.0892834
v -19.8155912 -26.5432234 -82.0955300
v -20.2806345 -26.4303730 -81.8933530
v -20.6097986 -26.2657375 -81.5274565
v -20.5602057 -26.3823713 -81.6001425
v -20.7298296 -26.1272771 -81.1998685
v -20.7377355 -24.8633437 -82.0441366
v -20.9439960 -24.6907828 -81.7292895
v -20.7715811 -24.8263875 -81.4934616
v -20.7470858 -24.6550320 -81.0374590
v -20.9765247 -24.1994863 -80.7813483
v -20.5280543 -24.4788102 -80.5805439
v -20.6050595 -23.9540114 -80.2340451
v -20.1438508 -24.3495338 -80.2631036
v -19.8591740 -23.8481051 -79.8991004
v -19.6809897 -24.2677118 -80.0969587
v -20.4090578 -26.2953881 -79.3464579
v -21.4435763 -26.2497203 -79.2019699
v -21.7683307 -26.4122112 -79.7145628
v -22.0101916 -26.6223322 -80.3768426
v -20.9526547 -26.4597377 -79.8645440
v -20.7101733 -26.0731407 -78.6451581
v -19.8793116 -25.9850117 -78.3670827
v -21.8546557 -27.0463934 -81.7139846
v -18.9998901 -25.9940568 -78.3956991
v -21.2037811 -26.8209866 -81.0038081
v -21.0266585 -27.3516502 -82.6773312
v -20.9815187 -27.0158333 -81.6185035
v -17.5331951 -26.2632973 -79.2448599
v -20.0169062 -27.4948744 -83.1288196
v -20.4265953 -27.1838681 -82.1484043
v -17.7089221 -26.7423972 -80.7558613
v -17.0293798 -26.5523738 -80.1562409
v -17.7206251 -26.7690290 -80.8400039
v -19.3118486 -27.5011935 -83.1491523
v -19.7016096 -27.2635564 -82.3998986
v -17.7854336 -26.8556291 -81.1130902
v -18.5839932 -27.4592511 -83.0162592
v -17.9001658 -26.9322154 -81.3544963
v -17.9333718 -26.9560470 -81.4298053
v -17.9705739 -26.9794019 -81.5034189
v -17.0674212 -26.9712879 -81.4775833
v -18.0839477 -27.0381977 -81.6888078
v -18.9066285 -27.2341159 -82.3069568
v -18.2545529 -27.0779971 -81.8748118
v -17.6523388 -27.2647912 -82.4034459
v -22.0054348 -26.3251665 -79.7756845
v -17.1318537 -26.2748280 -79.5422687
v -16.8643280 -26.8804086 -81.5879870
v -17.3206717 -27.1451702 -82.3330581
v -19.1657042 -27.4616927 -83.3602673
v -21.5409964 -27.1917378 -82.5697880
v -22.6173272 -26.4722438 -80.8405483
v -22.1365461 -26.3725913 -79.9988453
v -21.5727243 -26.0954130 -79.0627154
v -21.0594365 -25.6423728 -78.2729359
v -20.4025016 -25.7723990 -78.2309755
v -19.1592142 -25.8467557 -78.2076202
v -17.9424873 -25.6419927 -78.2719570
v -18.2032514 -26.0849076 -78.6821084
v -17.6048920 -25.9519699 -78.7849884
v -16.7149549 -26.4147194 -80.2552876
v -16.3823739 -26.4587078 -80.8461451
v -17.9420483 -27.2848826 -83.4163864
v -18.9034815 -27.4405422 -83.3669594
v -20.0298119 -27.4584249 -83.3611159
v -21.0589393 -27.2747038 -83.4194844
v -21.9974720 -26.9785787 -81.8078807
v -22.0715595 -24.1720028 -80.5786055
v -21.5358692 -23.9057932 -79.6896811
v -21.0590265 -25.4572856 -83.9955759
v -21.8681422 -24.8268692 -82.7251300
v -18.5975001 -25.3292969 -84.0364205
v -19.8407883 -25.2549594 -84.0597953
v -16.3835265 -24.6424708 -81.4247433
v -16.8908873 -24.7316229 -82.3174429
v -17.4079158 -23.9129191 -79.7898046
v -21.0585280 -23.8252457 -78.8483476
v -20.2537934 -23.6776308 -78.8952127
v -21.7887020 -24.0330657 -80.4826023
v -16.7306528 -24.3224527 -80.8902711
v -17.1660855 -24.0578124 -80.5607212
v -17.7414635 -23.8095850 -79.7777248
v -18.5269828 -23.6521060 -79.2811819
v -17.9422839 -23.8275587 -78.8475212
v -18.6055621 -23.6969135 -78.8891121
v -19.4350381 -23.6189328 -78.9137915
v -19.3948654 -23.5959258 -79.1039117
v -20.2763332 -23.6301446 -79.2119766
v -21.1491891 -23.7753004 -79.6698803
v -22.0278992 -24.3111609 -81.3597035
v -22.6176308 -24.6426808 -81.4212204
v -21.8536109 -24.6514172 -82.4330449
v -22.2850418 -24.6869787 -82.0121120
v -21.0000319 -24.9818205 -83.4756806
v -21.4614319 -25.0989589 -83.3779354
v -19.8026508 -25.1209033 -83.9136770
v -18.8038555 -25.0944139 -83.8299936
v -17.9335781 -25.4492974 -83.9872815
v -17.9601543 -24.9668776 -83.4278403
v -17.4106690 -25.0027077 -83.1759499
v -17.3603012 -24.7663600 -82.7953345
v -16.9655768 -24.4403784 -81.7679739
v -21.1874203 -24.1594341 -80.8868945
v -21.0439052 -24.5974270 -82.2622442
v -19.1252501 -23.8472745 -79.8961630
v -18.4086353 -23.9537372 -80.2322826
v -20.4429812 -24.8029138 -82.9099788
v -17.9394157 -24.1312812 -80.7920403
v -19.4177822 -24.8869998 -83.1750541
v -17.7701896 -24.3644816 -81.5276905
v -17.9113617 -24.5651302 -82.1605179
v -18.4157891 -24.7723014 -82.8134960
v -19.4477960 -25.7832435 -82.9563552
v -17.8649315 -24.9137917 -82.1297382
v -18.5423581 -24.8840139 -82.6504392
v -18.9439555 -25.1147799 -83.0783276
v -19.7042868 -24.9415695 -83.0145955
v -20.2565478 -24.8773346 -82.8936095
v -20.2039323 -25.0203681 -83.0377120
v -20.7857205 -24.7311568 -82.5260187
v -20.6246637 -24.9168081 -82.8092823
v -21.1000918 -24.5588692 -82.0634418
v -21.2140863 -24.4042702 -81.6482108
v -21.3025074 -24.4568865 -81.6573516
v -19.7171307 -25.2937140 -82.5122493
v -20.0562800 -25.2297226 -82.4134265
v -19.9651088 -25.7290123 -82.8950983
v -20.3334773 -25.1454859 -82.2466889
v -20.4461113 -25.6349883 -82.7084518
v -20.9605931 -25.4507341 -82.2638795
v -21.2086877 -25.2688638 -81.8042733
v -21.3037423 -25.0211462 -81.1685439
v -21.0874674 -24.7589122 -80.4976349
v -20.5957536 -24.5326893 -79.9451476
v -20.0021589 -24.4075274 -79.6869353
v -19.3905385 -24.3510396 -79.6323082
v -18.5153458 -24.3030975 -80.4120071
v -18.7613263 -24.3573274 -79.7900866
v -18.1482382 -24.4176745 -80.8682574
v -18.2686581 -24.4232844 -80.1225830
v -17.7636607 -24.6118060 -80.9206531
v -17.9941823 -24.5573905 -81.4011873
v -17.7103556 -24.7636133 -81.5277752
v -18.3090352 -25.0481252 -82.7078438
v -19.0317255 -24.2486798 -80.1413197
v -18.1060555 -24.7421338 -82.0936972
v -19.1012752 -24.9506922 -82.9553081
v -20.7260983 -25.4721192 -81.4610165
v -20.7347056 -25.2623813 -80.9534111
v -19.4796641 -24.8151788 -80.0491025
v -18.9862773 -24.8093758 -80.1585935
v -17.9659353 -24.5067930 -80.4836145
v -18.3421557 -25.1310207 -81.7764557
v -18.5424271 -25.1982087 -82.0982768
v -19.7883105 -25.0817671 -83.1429978
v -20.4355107 -25.0201683 -82.3000387
v -21.0487674 -24.7291236 -82.3537363
v -21.0516354 -24.4170228 -81.1997008
v -19.4449867 -25.9163753 -82.3336009
v -20.0024382 -25.8398951 -82.2619562
v -20.4944536 -25.6674997 -81.9073038
v -20.7544496 -26.1481995 -81.0449950
v -20.7198220 -25.9998067 -80.6891331
v -20.6135553 -25.8033012 -80.4405267
v -20.3421359 -25.6643984 -80.1213616
v -20.5259678 -25.8185472 -80.2730666
v -19.9098979 -25.5416901 -79.8844909
v -19.3172033 -25.4732994 -79.8483885
v -19.6368818 -25.5765381 -79.8094778
v -18.7615931 -25.4895611 -80.0794788
v -18.4330902 -25.5571742 -80.4377976
v -18.2514222 -25.6598802 -80.9072864
v -18.3797268 -25.6527591 -80.5073761
v -18.2859644 -25.7687149 -81.3990735
v -18.2414921 -25.7558142 -80.9705789
v -18.4632634 -25.8491616 -81.7861139
v -18.9072517 -25.9189712 -82.1921828
v -18.5234544 -25.9407240 -81.8404665
v -19.3656534 -25.9980028 -82.3109211
v -19.9403118 -25.9279197 -82.2519070
v -20.4263761 -25.7780733 -81.9605375
v -20.7136484 -25.5754810 -81.4884435
v -17.7176756 -26.7855323 -80.9287864
v -17.7684464 -26.8580499 -81.2210106
v -18.0037615 -26.9822214 -81.7270779
v -18.5048746 -27.0914029 -82.2200140
v -19.1996778 -27.1310244 -82.5000082
v -19.9488901 -27.0773684 -82.4823268
v -20.1432667 -26.5456779 -81.9493719
v -20.7017844 -26.9042613 -82.1179753
v -21.0740750 -26.7226826 -81.6700797
v -21.2626887 -26.5396839 -81.2006917
v -21.2706518 -26.2906081 -80.5601671
v -21.0542121 -26.0755436 -80.0155182
v -20.0977318 -25.6632426 -79.9399992
v -20.6425213 -25.8949642 -79.5717488
v -19.0418181 -25.5482864 -79.9009588
v -19.5005648 -25.6977177 -79.2014677
v -18.8218122 -25.6956868 -79.3364592
v -18.6007520 -25.5922749 -80.2014563
v -18.2046280 -25.7764232 -79.7484385
v -17.8149120 -25.9167738 -80.3386879
v -18.3228038 -25.8687241 -81.4909375
v -18.1162798 -26.3441530 -82.0818582
v -18.8667479 -25.9907807 -82.1313039
v -19.5419536 -26.4448310 -82.7403232
v -20.2111840 -26.3618222 -82.6097947
v -20.6606515 -26.2420527 -82.3463078
v -21.0699906 -26.0635027 -81.9178478
v -21.2948604 -25.7920198 -81.2184001
v -21.1919115 -25.5126833 -80.5009394
v -20.8567641 -25.3054982 -79.9747899
v -20.3645061 -25.1449203 -79.6028308
v -19.8319710 -25.0572074 -79.4399112
v -19.1906292 -25.0136073 -79.4409226
v -18.7469825 -24.8995369 -80.2864932
v -18.5248081 -25.0499179 -79.7065394
v -17.7233729 -25.3398364 -80.9318491
v -18.2703339 -25.1592187 -81.5238413
v -17.9569323 -25.6245869 -82.0780502
v -18.3869668 -25.7337253 -82.5576808
v -18.8708533 -25.7811214 -82.8239314
v -18.0189082 -26.9896495 -81.5704297
v -18.9097222 -27.1608963 -82.2727585
v -19.6997106 -27.1440283 -82.3329364
v -20.2411204 -27.0595280 -82.1485012
v -20.9299282 -26.7764194 -81.4115906
v -20.0958051 -25.7628516 -79.2835167
v -19.6445840 -26.0247067 -79.4913461
v -19.1782634 -25.9928357 -79.5315549
v -17.7087421 -26.0743764 -80.9777415
v -17.7703222 -26.1921023 -81.4596468
v -18.5994431 -26.4319165 -82.4892235
v -19.1113055 -26.4573568 -82.6827393
v -20.7520624 -25.9882224 -80.8735167
v -17.9340803 -25.1870528 -80.3006687
v -17.7393779 -25.4934909 -81.5453164
v -20.1176894 -26.0843395 -79.5938553
v -20.4511225 -26.1597236 -79.7690925
v -20.7014936 -26.2516367 -80.0048614
v -20.9285248 -26.3883388 -80.3643065
v -21.0292184 -26.5571855 -80.8232008
v -21.2135585 -26.6605056 -80.4979103
v -20.6052624 -26.9537684 -81.8821084
f 46 1 4
f 4 3 6
f 1 3 4
f 5 6 3
f 6 5 7
f 5 2 7
f 8 7 2
f 8 9 7
f 11 10 8
f 8 10 9
f 10 11 12
f 14 12 11
f 13 15 15
f 15 15 16
f 15 14 16
f 13 14 15
f 12 14 13
f 14 276 16
f 17 276 14
f 18 196 20
f 196 19 20
f 19 22 20
f 19 21 22
f 21 23 22
f 21 197 23
f 197 24 23
f 197 198 24
f 198 263 24
f 198 25 263
f 25 26 263
f 25 27 26
f 27 29 26
f 27 28 29
f 28 266 29
f 28 200 266
f 200 30 266
f 200 201 30
f 201 32 30
f 201 31 32
f 31 34 32
f 31 33 34
f 33 172 34
f 33 35 172
f 35 173 172
f 35 36 173
f 36 37 173
f 37 175 173
f 37 38 175
f 38 39 175
f 40 41 39
f 40 41 41
f 41 42 41
f 41 42 42
f 42 43 42
f 44 46 4
f 44 45 46
f 45 47 46
f 45 48 47
f 47 48 236
f 48 49 236
f 49 51 236
f 49 50 51
f 51 52 209
f 50 52 51
f 52 282 209
f 36 37 37
f 37 38 37
f 37 203 38
f 203 39 38
f 203 53 39
f 39 53 40
f 40 53 41
f 41 53 42
f 42 54 43
f 43 54 55
f 53 54 42
f 205 55 54
f 55 205 56
f 57 58 56
f 205 57 56
f 59 58 57
f 58 59 60
f 61 60 59
f 60 61 62
f 62 61 152
f 64 67 63
f 64 63 68
f 65 67 64
f 66 67 65
f 66 290 67
f 68 63 69
f 63 17 69
f 66 72 290
f 69 17 71
f 70 72 66
f 17 14 71
f 70 74 72
f 71 14 106
f 14 11 106
f 70 73 74
f 11 75 106
f 73 77 74
f 8 75 11
f 8 79 75
f 73 76 77
f 77 76 82
f 2 79 8
f 78 79 2
f 80 88 78
f 78 88 79
f 76 81 82
f 83 88 80
f 81 84 82
f 82 84 90
f 85 88 83
f 86 88 85
f 87 88 86
f 89 88 87
f 90 84 91
f 89 92 88
f 84 92 91
f 91 92 89
f 101 93 65
f 101 65 64
f 104 103 69
f 104 69 71
f 94 75 79
f 96 95 88
f 96 88 92
f 112 81 76
f 112 97 81
f 98 73 70
f 114 98 70
f 66 100 99
f 93 100 66
f 93 65 93
f 93 93 100
f 93 66 65
f 101 64 68
f 102 101 68
f 68 103 102
f 103 68 69
f 104 71 106
f 105 104 106
f 107 105 106
f 107 106 75
f 94 107 75
f 108 94 79
f 109 108 79
f 109 79 88
f 88 95 109
f 110 96 92
f 110 92 84
f 84 111 110
f 97 111 84
f 97 84 81
f 97 81 97
f 97 97 111
f 113 112 76
f 113 76 73
f 73 98 113
f 99 114 70
f 99 70 66
f 115 138 99
f 115 99 100
f 115 100 93
f 115 93 101
f 116 115 101
f 116 101 102
f 124 116 102
f 142 113 98
f 142 117 113
f 118 142 98
f 118 98 114
f 140 114 99
f 140 118 114
f 138 140 99
f 119 145 110
f 119 110 111
f 120 111 97
f 120 119 111
f 120 97 112
f 120 112 113
f 117 120 113
f 122 109 95
f 122 121 109
f 122 95 96
f 147 122 96
f 147 96 110
f 145 147 110
f 123 105 107
f 123 131 105
f 123 107 94
f 127 94 108
f 127 123 94
f 127 108 109
f 121 127 109
f 124 102 103
f 125 124 103
f 133 103 104
f 133 125 103
f 132 133 104
f 132 104 105
f 131 132 105
f 123 127 128
f 123 128 129
f 116 136 126
f 115 116 126
f 120 143 144
f 119 120 144
f 122 147 148
f 127 121 149
f 127 149 128
f 131 129 130
f 131 123 129
f 132 131 130
f 133 130 134
f 133 132 130
f 133 134 135
f 125 133 135
f 124 125 135
f 124 135 136
f 124 136 116
f 115 126 137
f 137 138 115
f 140 137 139
f 140 138 137
f 118 140 139
f 118 139 141
f 142 118 141
f 117 142 141
f 117 141 120
f 120 141 143
f 145 119 144
f 145 144 146
f 147 145 146
f 147 146 148
f 122 148 149
f 121 122 149
f 150 136 59
f 150 126 136
f 59 136 135
f 61 59 135
f 150 137 126
f 61 135 134
f 170 137 150
f 152 61 134
f 170 139 137
f 152 134 130
f 151 139 170
f 153 152 130
f 153 130 129
f 151 141 139
f 154 141 151
f 129 155 153
f 128 155 129
f 143 141 154
f 143 154 156
f 128 157 155
f 149 157 128
f 144 143 156
f 149 158 157
f 144 156 159
f 148 158 149
f 146 144 159
f 148 159 158
f 146 159 148
f 193 161 190
f 194 163 162
f 194 202 163
f 164 202 194
f 164 166 202
f 165 166 164
f 165 168 166
f 167 168 165
f 167 204 168
f 169 204 167
f 169 171 204
f 170 171 169
f 150 171 170
f 34 172 160
f 160 172 174
f 172 173 174
f 174 173 176
f 173 175 176
f 176 175 177
f 39 177 175
f 42 177 41
f 41 177 39
f 55 178 43
f 43 178 42
f 42 178 177
f 55 179 178
f 179 56 180
f 55 56 179
f 180 58 181
f 56 58 180
f 62 181 60
f 60 181 58
f 62 182 181
f 62 183 182
f 192 183 62
f 192 185 183
f 185 184 187
f 192 184 185
f 199 184 186
f 187 184 199
f 186 188 199
f 190 188 189
f 189 188 186
f 190 189 193
f 161 193 191
f 191 193 162
f 191 162 163
f 194 156 164
f 164 156 165
f 156 154 165
f 165 154 167
f 154 151 167
f 167 151 169
f 151 170 169
f 62 152 192
f 153 192 152
f 153 184 192
f 155 184 153
f 184 155 186
f 155 189 186
f 157 189 155
f 157 193 189
f 158 193 157
f 159 193 158
f 193 159 162
f 159 194 162
f 156 194 159
f 179 196 195
f 180 196 179
f 181 19 180
f 180 19 196
f 181 182 19
f 19 182 21
f 183 197 182
f 182 197 21
f 185 198 183
f 183 198 197
f 198 187 25
f 185 187 198
f 25 199 27
f 187 199 25
f 199 188 27
f 188 190 27
f 27 190 28
f 161 200 190
f 190 200 28
f 161 201 200
f 191 201 161
f 201 191 31
f 191 163 31
f 31 163 33
f 202 33 163
f 33 202 35
f 37 166 203
f 36 166 37
f 202 166 35
f 35 166 36
f 204 203 168
f 168 203 166
f 53 204 54
f 203 204 53
f 204 171 54
f 171 205 54
f 150 205 171
f 150 57 205
f 150 59 57
f 160 174 206
f 206 174 207
f 174 176 207
f 177 208 176
f 176 208 207
f 178 208 177
f 178 195 208
f 179 195 178
f 282 210 209
f 282 211 210
f 210 211 213
f 211 212 213
f 212 242 213
f 212 214 242
f 214 216 242
f 214 215 216
f 215 244 216
f 215 217 244
f 217 247 244
f 217 218 247
f 218 220 247
f 218 219 220
f 219 222 220
f 219 221 222
f 221 250 222
f 221 223 250
f 223 225 250
f 223 224 225
f 224 252 225
f 224 226 252
f 224 206 226
f 206 207 226
f 207 227 226
f 207 228 227
f 207 208 228
f 208 229 228
f 208 195 229
f 195 18 229
f 195 196 18
f 5 80 78
f 5 230 80
f 230 5 231
f 231 3 232
f 5 3 231
f 1 232 3
f 232 1 233
f 1 46 233
f 233 46 234
f 47 234 46
f 47 235 234
f 47 236 235
f 235 236 237
f 51 237 236
f 51 238 237
f 209 239 51
f 51 239 238
f 239 209 240
f 209 210 240
f 210 241 240
f 213 241 210
f 242 243 213
f 213 243 241
f 243 242 275
f 275 216 245
f 242 216 275
f 216 244 245
f 245 244 246
f 244 247 246
f 246 247 248
f 248 247 249
f 220 249 247
f 220 222 249
f 249 222 278
f 222 250 278
f 278 250 279
f 279 250 251
f 225 251 250
f 225 252 251
f 251 252 280
f 280 252 281
f 226 281 252
f 281 226 253
f 253 227 254
f 226 227 253
f 228 254 227
f 228 255 254
f 255 228 256
f 228 229 256
f 229 257 256
f 229 18 257
f 20 258 18
f 18 258 257
f 22 259 20
f 20 259 258
f 22 260 259
f 22 23 260
f 260 23 261
f 23 24 261
f 261 24 262
f 24 263 262
f 262 263 264
f 264 263 283
f 26 283 263
f 26 29 283
f 283 29 265
f 29 266 265
f 265 266 284
f 284 266 267
f 30 267 266
f 30 32 267
f 267 32 268
f 32 269 268
f 160 269 34
f 34 269 32
f 80 80 78
f 80 230 80
f 230 83 80
f 231 83 230
f 231 85 83
f 231 86 85
f 232 86 231
f 232 87 86
f 232 270 87
f 232 91 270
f 233 91 232
f 233 271 91
f 234 271 233
f 234 272 271
f 235 272 234
f 235 273 272
f 237 273 235
f 239 274 238
f 237 291 273
f 238 291 237
f 274 291 238
f 289 274 239
f 240 289 239
f 240 288 289
f 240 241 288
f 288 241 287
f 243 287 241
f 287 243 286
f 243 275 286
f 286 275 285
f 285 275 276
f 245 276 275
f 245 246 276
f 276 246 16
f 13 277 12
f 15 277 13
f 16 277 15
f 12 277 246
f 246 277 16
f 12 248 10
f 246 248 12
f 248 9 10
f 249 9 248
f 249 7 9
f 278 7 249
f 7 278 6
f 278 279 6
f 251 6 279
f 6 251 4
f 251 280 4
f 4 280 44
f 280 281 44
f 44 281 45
f 45 253 48
f 281 253 45
f 253 254 48
f 48 254 49
f 254 255 49
f 255 256 49
f 49 256 50
f 50 256 52
f 257 52 256
f 258 282 257
f 257 282 52
f 282 258 211
f 259 211 258
f 259 212 211
f 260 212 259
f 212 260 214
f 262 214 261
f 261 214 260
f 214 262 215
f 264 215 262
f 215 264 217
f 283 217 264
f 283 218 217
f 218 283 219
f 283 265 219
f 219 284 221
f 265 284 219
f 221 284 223
f 267 223 284
f 267 268 223
f 223 268 224
f 269 224 268
f 160 224 269
f 206 224 160
f 77 82 273
f 273 82 272
f 272 82 271
f 82 90 271
f 90 91 271
f 91 89 270
f 270 87 87
f 89 87 270
f 87 86 86
f 87 86 87
f 86 85 86
f 63 276 17
f 63 285 276
f 63 286 285
f 67 286 63
f 67 287 286
f 287 67 288
f 290 288 67
f 290 289 288
f 72 289 290
f 289 72 274
f 74 274 72
f 74 291 274
f 77 291 74
f 77 273 291
f 5 78 2
