# Render LOD; unchanged CAD body-local coordinates in mm
v -60.6406000 104.4352925 140.7500000
v -60.8406127 104.4352925 140.7500000
v -60.6406000 105.0353142 140.7500000
v -60.8406127 105.0353142 140.7500000
v -60.8406127 105.0353142 141.0500220
v -60.8406127 104.4352925 141.6000151
v -60.8406127 105.2353000 141.6000151
v -60.8406127 105.2353000 141.2999931
v -60.6406000 105.0353142 141.0500220
v -60.6406000 105.2353000 141.6000151
v -60.6406000 104.4352925 141.6000151
v -60.6406000 105.2353000 141.2999931
v -62.2235764 104.4361845 141.9145087
v -62.1693867 104.4352927 141.8461472
v -62.0900591 104.4352920 141.8034759
v -61.0405998 104.4352925 141.7999826
v -61.0405998 104.4352925 141.9999972
v -62.0406122 104.4352925 141.9999972
v -61.0057397 104.4352925 141.9984877
v -61.0058671 104.4352925 141.7969635
v -60.6421290 104.4352925 141.6348761
v -60.8436451 104.4352925 141.6347346
v -60.9711344 104.4352925 141.9939119
v -60.6466649 104.4352925 141.6694541
v -60.9370642 104.4352925 141.9863641
v -60.9722046 104.4352925 141.7879534
v -60.6542332 104.4352925 141.7035132
v -60.8526659 104.4352925 141.6684163
v -60.9037839 104.4352925 141.9758917
v -60.6647320 104.4352925 141.7368176
v -60.8715485 104.4352925 141.9624945
v -60.9406063 104.4352925 141.7731881
v -60.6780849 104.4352925 141.7690369
v -60.8673948 104.4352925 141.6999752
v -60.8406127 104.4352925 141.9464084
v -60.6941898 104.4352925 141.7999826
v -60.8111803 104.4352925 141.9276334
v -60.9120403 104.4352925 141.7531867
v -60.7129450 104.4352925 141.8294187
v -60.8873987 104.4352925 141.7285622
v -60.7834808 104.4352925 141.9064054
v -60.7341720 104.4352925 141.8571094
v -60.7577688 104.4352925 141.8828188
v -60.8436451 105.2353000 141.6347346
v -60.8526659 105.2353000 141.6684163
v -60.8673948 105.2353000 141.6999752
v -60.8873987 105.2353000 141.7285622
v -60.9120403 105.2353000 141.7531867
v -60.9406063 105.2353000 141.7731881
v -60.9722046 105.2353000 141.7879534
v -61.0058671 105.2353000 141.7969635
v -61.2382024 105.2355002 141.8042524
v -61.2393893 105.2353000 141.9999972
v -61.0405998 105.2353000 141.9999972
v -61.0057397 105.2353000 141.9984877
v -60.6421290 105.2353000 141.6348761
v -60.9711344 105.2353000 141.9939119
v -60.6466649 105.2353000 141.6694541
v -60.9370642 105.2353000 141.9863641
v -60.6542332 105.2353000 141.7035132
v -60.9037839 105.2353000 141.9758917
v -60.6647320 105.2353000 141.7368176
v -60.8715485 105.2353000 141.9624945
v -60.6780849 105.2353000 141.7690369
v -60.8406127 105.2353000 141.9464084
v -60.6941898 105.2353000 141.7999826
v -60.8111803 105.2353000 141.9276334
v -60.7129450 105.2353000 141.8294187
v -60.7834808 105.2353000 141.9064054
v -60.7341720 105.2353000 141.8571094
v -60.7577688 105.2353000 141.8828188
v -61.5990503 104.8353285 141.9999972
v -62.0406122 104.8353285 141.9999972
v -62.0406122 103.2641138 140.8218370
v -62.0406122 101.3117569 142.7804870
v -62.0406122 103.3819825 141.1963944
v -62.0406122 101.4292497 143.1506950
v -62.0406122 103.3170690 141.2970600
v -62.0406122 103.0244783 141.0628994
v -62.0406122 101.4335338 142.7332862
v -62.0406122 102.9739135 141.1645096
v -62.0406122 101.3711488 143.2550992
v -62.0406122 101.0277649 143.0911347
v -62.0406122 101.0799178 143.0079401
v -62.0406122 103.3454621 140.7763391
v -62.0406122 103.4610327 140.7571322
v -62.0406122 101.5686368 142.7435866
v -62.0406122 102.9691092 141.2994635
v -62.0406122 101.0077648 143.2417047
v -62.0406122 103.4686054 141.1415707
v -62.0406122 103.6026174 140.7974987
v -62.0406122 101.5255200 143.0874322
v -62.0406122 101.6903793 142.8155645
v -62.0406122 101.0601785 143.3729755
v -62.0406122 103.3123560 141.4455303
v -62.0406122 103.0373530 141.4435370
v -62.0406122 101.3691536 143.3913632
v -62.0406122 101.8028911 142.9755426
v -62.0406122 103.5698087 141.1259406
v -62.0406122 101.6267971 143.0717903
v -62.0406122 103.6539120 141.1460634
v -62.0406122 101.7297468 143.0994200
v -62.0406122 103.2035089 141.5621446
v -62.0406122 103.3935069 141.5699860
v -62.0406122 101.4503195 143.5158763
v -62.0406122 101.9446559 143.1196719
v -62.0406122 103.5223063 141.6280354
v -62.0406122 101.8230609 143.1812295
v -62.0406122 103.3441570 141.6964912
v -62.0406122 102.1053644 143.2289038
v -62.0406122 101.5790864 143.5738797
v -62.0406122 101.8662663 143.3106396
v -62.0406122 104.0985379 141.2933989
v -62.0406122 103.8033995 141.3209082
v -62.0406122 103.7384271 141.2010862
v -62.0406122 103.6451028 141.6125663
v -62.0406122 101.5249160 143.8332262
v -62.0406122 101.7020407 143.5584036
v -62.0406122 101.7739981 143.5154656
v -62.0406122 103.8002012 141.4406352
v -62.0406122 103.4686040 141.8762344
v -62.0406122 102.2845719 143.3052085
v -62.0406122 101.8377533 143.4390593
v -62.0406122 102.4758139 143.3454580
v -62.0406120 104.1120254 141.9919727
v -62.0406122 103.7451105 141.5458817
v -62.0406122 103.5563535 142.1016041
v -62.0406122 102.8518598 143.3891773
v -62.0406122 102.7843298 143.3300003
v -62.0406121 104.1970329 142.0876984
v -62.0406122 103.4060672 142.9237405
v -62.0406120 103.3373173 143.0123200
v -62.0406027 104.4344217 141.9717303
v -62.0406122 103.5866997 142.3254148
v -62.0406122 104.1090462 142.6641703
v -62.0406122 102.9839286 143.8415000
v -62.0406122 102.6709788 143.3477843
v -62.0406121 102.9795936 143.4356497
v -62.0406121 104.3916972 142.0479953
v -62.0406122 104.1932788 142.6043573
v -62.0406119 104.3180324 142.0953529
v -62.0406122 104.0355911 142.8993706
v -62.0406122 103.5675818 142.5493786
v -62.0406122 103.0267505 143.8352731
v -62.0406122 102.9983745 143.8407924
v -62.0406122 103.1149720 143.4261836
v -62.0406122 103.5007157 142.7559805
v -62.0406122 103.9045023 143.1661036
v -62.0406122 103.2186467 143.7665224
v -62.0406123 103.2348718 143.3626346
v -62.0406122 103.4174781 143.6572469
v -62.0406121 103.3097851 143.2706673
v -62.0406122 103.7652824 143.3542128
v -62.0406124 103.3488568 143.1582081
v -62.0406122 103.6067856 143.5177053
v -62.0406122 104.8353285 142.5999940
v -62.1105873 103.8033973 141.4332291
v -62.1105873 103.7303254 141.5625714
v -62.1105873 103.6081167 141.6236654
v -62.1105873 103.5058190 141.6229813
v -62.1105873 103.4011925 141.5762357
v -62.1105873 103.3259333 141.4774715
v -62.1105873 103.3057390 141.3770272
v -62.1105873 103.5014100 141.1317784
v -62.1105873 103.6039269 141.1300240
v -62.1105873 103.6845070 141.1614537
v -62.1105873 103.7607138 141.2274303
v -62.1105873 103.3977183 141.1812573
v -62.1105873 103.8024301 141.3262361
v -62.1105873 103.3259613 141.2765746
v -62.1105873 101.8386077 143.4395416
v -62.1105873 101.7583686 143.5282598
v -62.1105873 101.6649313 143.5695170
v -62.1105873 101.5625297 143.5688120
v -62.1105873 101.4579877 143.5221144
v -62.1105873 101.3826305 143.4230875
v -62.1105873 101.3625817 143.3229243
v -62.1105873 101.5583963 143.0776040
v -62.1105873 101.6605617 143.0758463
v -62.1105873 101.7411923 143.1072675
v -62.1105873 101.8173320 143.1731174
v -62.1105873 101.4543254 143.1272792
v -62.1105873 101.8655920 143.3008278
v -62.1105873 101.3826054 143.2228323
v -62.2405994 102.6573625 143.3488511
v -62.2405994 102.4375985 143.3413991
v -62.2405994 102.2258560 143.2847099
v -62.2405994 102.0508565 143.1969198
v -62.2405994 101.8972411 143.0775893
v -62.2405994 101.7845750 142.9502117
v -62.2405994 104.0976639 141.2937749
v -62.2405994 103.6335948 140.8215641
v -62.2405994 103.7934063 141.2877255
v -62.2405994 103.7125023 141.1778106
v -62.2405994 103.6215870 141.1350242
v -62.2405994 103.8065860 141.4070274
v -62.2405994 103.5368937 140.7699401
v -62.2399944 104.8353289 141.9782735
v -62.2410953 104.4184491 142.0098181
v -62.2405994 103.5353495 141.1265301
v -62.2405994 103.4027404 140.7604430
v -62.2405994 103.2818157 140.8076541
v -62.2405998 104.3449641 142.0870414
v -62.2405994 103.7739233 141.5041350
v -62.2405994 104.8353285 142.5999940
v -62.2405994 103.4216095 141.1634807
v -62.2405994 103.7053316 141.5800409
v -62.2405994 103.3398799 141.2499348
v -62.2405994 103.0183831 141.0697287
v -62.2405994 102.9685620 141.1883557
v -62.2405994 102.9746862 141.3232576
v -62.2405994 103.3723434 141.5491871
v -62.2405994 103.3209034 141.6704306
v -62.2405994 103.4726623 141.6144176
v -62.2405994 103.3103957 141.4332291
v -62.2405994 103.3109764 141.3292621
v -62.2405993 104.2066740 142.0919712
v -62.2405994 103.4383775 141.8254770
v -62.2405994 103.1942502 141.5558293
v -62.2405994 103.0474622 141.4532142
v -62.2405994 103.5413300 142.0453000
v -62.2405994 103.5962605 141.6268140
v -62.2405994 104.1995462 142.6028204
v -62.2405994 104.1066246 141.9600776
v -62.2405994 104.1284803 142.0208777
v -62.2405994 103.5838516 142.2768763
v -62.2405994 103.5802642 142.4636910
v -62.2405994 104.1128092 142.6582831
v -62.2405994 103.5400687 142.6520522
v -62.2405994 104.0595734 142.8268713
v -62.2405994 103.4421133 142.8721496
v -62.2405994 103.9694751 143.0502338
v -62.2405994 103.3379621 143.0108929
v -62.2405995 103.3488196 143.1508601
v -62.2405994 103.8038430 143.3101114
v -62.2405993 103.3141401 143.2647777
v -62.2405994 103.6193997 143.5050517
v -62.2405994 103.4033957 143.6683495
v -62.2405995 103.2272148 143.3688945
v -62.2405994 103.1054353 143.4287650
v -62.2405994 102.7818653 143.3315914
v -62.2405994 103.1636099 143.7887016
v -62.2405993 102.9698133 143.4341123
v -62.2405994 103.0267505 143.8352731
v -62.2405994 102.9983745 143.8407924
v -62.2405994 102.9839286 143.8415000
v -62.2405994 102.8755910 143.4006956
v -62.2405994 101.8502786 143.2337318
v -62.2405994 101.7693717 143.1237057
v -62.2405994 101.8622183 143.3695351
v -62.2405994 101.6433421 143.0718450
v -62.2405994 101.6820462 142.8079444
v -62.2405994 101.5592498 142.7408355
v -62.2405994 101.4239452 142.7348907
v -62.2405994 101.3056541 142.7848105
v -62.2405994 101.8017878 143.4918644
v -62.2405994 101.5086677 143.0929874
v -62.2405994 101.0696110 143.0200852
v -62.2405994 101.4286604 143.1540335
v -62.2405994 101.0197317 143.1141644
v -62.2405994 101.3812424 143.2270134
v -62.2405994 101.0101601 143.2485247
v -62.2405994 101.6867045 143.5650011
v -62.2405994 101.5666960 143.5699745
v -62.2405994 101.5651522 143.8404445
v -62.2405994 101.0588707 143.3721458
v -62.2405994 101.5073360 143.8201643
v -62.2405994 101.4579877 143.5221144
v -62.2405994 101.3928640 143.4411845
v -62.2405994 101.3618886 143.3454280
v -62.3106000 103.3050340 141.3549976
v -62.3106000 103.3530792 141.2274303
v -62.3106000 103.4606545 141.1432441
v -62.3106000 103.5784435 141.1265301
v -62.3106000 103.6878289 141.1613193
v -62.3106000 103.7816989 141.2602063
v -62.3106000 103.8083474 141.3813676
v -62.3106000 103.7789926 141.4978855
v -62.3106000 103.3245847 141.4733365
v -62.3106000 103.3935069 141.5699860
v -62.3106000 103.5175325 141.6268140
v -62.3106000 103.6213532 141.6191669
v -62.3106000 103.6982739 141.5850217
v -62.3106000 101.3618886 143.3004205
v -62.3106000 101.4012066 143.1884828
v -62.3106000 101.4577422 143.1268853
v -62.3106000 101.5503034 143.0781838
v -62.3106000 101.6816696 143.0798987
v -62.3106000 101.7987405 143.1499257
v -62.3106000 101.8507190 143.2417269
v -62.3106000 101.8651800 143.3272745
v -62.3106000 101.3812598 143.4188831
v -62.3106000 101.8358534 143.4436386
v -62.3106000 101.4503195 143.5158763
v -62.3106000 101.5742933 143.5726559
v -62.3106000 101.6782327 143.5650106
v -62.3106000 101.7550189 143.5309817
v -62.1003463 104.8353280 141.8058971
v -62.2064050 104.8353286 141.8820574
v -61.5990503 104.8353285 141.7999826
f 1 2 3
f 3 2 4
f 2 5 4
f 6 7 8
f 6 8 5
f 6 5 2
f 5 9 3
f 5 3 4
f 9 1 3
f 10 11 12
f 12 11 9
f 9 11 1
f 133 13 14
f 133 14 15
f 16 133 15
f 17 18 133
f 17 133 16
f 11 6 2
f 11 2 1
f 19 16 20
f 19 17 16
f 21 22 6
f 21 6 11
f 23 19 20
f 24 22 21
f 25 20 26
f 25 23 20
f 27 22 24
f 27 28 22
f 29 25 26
f 30 28 27
f 31 26 32
f 31 29 26
f 33 28 30
f 33 34 28
f 35 31 32
f 36 34 33
f 37 35 32
f 37 32 38
f 39 34 36
f 39 40 34
f 41 37 38
f 42 40 39
f 43 41 38
f 43 40 42
f 43 38 40
f 6 22 7
f 7 22 44
f 44 28 45
f 22 28 44
f 45 34 46
f 28 34 45
f 46 40 47
f 34 40 46
f 47 38 48
f 40 38 47
f 48 32 49
f 38 32 48
f 49 26 50
f 32 26 49
f 50 20 51
f 26 20 50
f 51 16 52
f 20 16 51
f 53 54 52
f 7 10 8
f 8 10 12
f 52 55 51
f 54 55 52
f 44 56 7
f 7 56 10
f 55 57 51
f 44 58 56
f 51 59 50
f 57 59 51
f 45 60 44
f 44 60 58
f 59 61 50
f 45 62 60
f 50 63 49
f 61 63 50
f 46 64 45
f 45 64 62
f 63 65 49
f 46 66 64
f 49 67 48
f 65 67 49
f 47 68 46
f 46 68 66
f 67 69 48
f 47 70 68
f 48 71 47
f 47 71 70
f 69 71 48
f 18 72 73
f 72 17 53
f 53 17 54
f 18 17 72
f 76 79 74
f 77 84 75
f 78 79 76
f 90 76 74
f 92 77 75
f 92 75 80
f 78 81 79
f 82 84 77
f 82 83 84
f 90 74 85
f 90 85 86
f 92 80 87
f 78 88 81
f 82 89 83
f 90 86 91
f 92 87 93
f 78 96 88
f 82 94 89
f 99 90 91
f 100 92 93
f 95 96 78
f 97 94 82
f 100 93 98
f 95 103 96
f 101 99 91
f 102 100 98
f 115 101 91
f 104 103 95
f 105 94 97
f 108 102 98
f 109 103 104
f 106 108 98
f 107 109 104
f 106 112 108
f 121 109 107
f 110 112 106
f 117 94 105
f 117 105 111
f 113 115 91
f 113 114 115
f 121 107 116
f 110 123 112
f 117 111 118
f 117 118 119
f 113 126 120
f 113 120 114
f 122 123 110
f 122 119 123
f 124 117 119
f 124 119 122
f 125 127 121
f 125 126 113
f 125 121 116
f 125 116 126
f 128 137 129
f 125 134 127
f 130 134 125
f 139 133 18
f 154 132 131
f 135 143 134
f 135 134 130
f 140 135 130
f 136 124 137
f 136 128 138
f 136 137 128
f 136 117 124
f 73 139 18
f 140 130 141
f 142 143 135
f 144 136 138
f 144 144 145
f 144 145 136
f 142 147 143
f 149 144 138
f 149 138 146
f 148 131 147
f 148 147 142
f 149 146 150
f 151 149 150
f 148 154 131
f 155 150 152
f 155 151 150
f 153 154 148
f 155 152 154
f 155 154 153
f 156 141 139
f 156 139 73
f 156 140 141
f 114 120 157
f 157 126 158
f 120 126 157
f 158 116 159
f 126 116 158
f 116 107 159
f 159 107 160
f 160 107 161
f 107 104 161
f 161 104 162
f 104 95 162
f 162 95 163
f 167 164 165
f 167 165 166
f 167 168 164
f 169 170 168
f 169 168 167
f 157 163 170
f 157 170 169
f 157 162 163
f 158 159 160
f 158 160 161
f 158 161 162
f 158 162 157
f 163 78 170
f 95 78 163
f 170 76 168
f 78 76 170
f 168 90 164
f 76 90 168
f 164 99 165
f 90 99 164
f 99 101 165
f 165 101 166
f 101 115 166
f 166 115 167
f 167 114 169
f 115 114 167
f 169 114 157
f 183 112 171
f 112 123 171
f 171 119 172
f 123 119 171
f 172 118 173
f 119 118 172
f 118 111 173
f 173 111 174
f 174 111 175
f 111 105 175
f 175 105 176
f 105 97 176
f 176 97 177
f 181 178 179
f 181 179 180
f 181 182 178
f 183 184 182
f 183 182 181
f 183 177 184
f 171 177 183
f 171 176 177
f 172 173 174
f 172 174 175
f 172 175 176
f 172 176 171
f 177 82 184
f 97 82 177
f 82 77 184
f 184 77 182
f 182 92 178
f 77 92 182
f 178 100 179
f 92 100 178
f 100 102 179
f 179 102 180
f 180 102 181
f 102 108 181
f 181 108 183
f 108 112 183
f 241 137 185
f 129 137 241
f 185 124 186
f 137 124 185
f 124 122 186
f 186 122 187
f 122 110 187
f 187 110 188
f 110 106 188
f 188 106 189
f 106 98 189
f 189 98 190
f 98 93 190
f 194 191 192
f 193 191 194
f 195 194 192
f 200 195 192
f 196 191 193
f 200 192 197
f 200 197 201
f 206 200 201
f 206 201 202
f 203 198 199
f 204 191 196
f 205 198 203
f 224 191 204
f 207 224 204
f 209 208 206
f 209 206 202
f 210 208 209
f 210 216 208
f 211 216 210
f 213 214 212
f 219 212 215
f 219 213 212
f 223 203 217
f 223 205 203
f 218 214 213
f 218 222 214
f 220 219 215
f 220 216 211
f 220 215 216
f 221 222 218
f 221 224 207
f 221 207 222
f 228 223 217
f 221 225 224
f 226 225 221
f 226 217 225
f 226 228 217
f 227 228 226
f 229 230 228
f 229 228 227
f 229 232 230
f 231 232 229
f 231 235 232
f 234 235 231
f 234 231 233
f 236 235 234
f 236 237 235
f 238 237 236
f 238 236 239
f 238 239 240
f 242 238 240
f 185 247 241
f 242 240 243
f 244 242 243
f 245 244 244
f 246 247 185
f 246 243 247
f 246 185 186
f 246 244 243
f 246 245 244
f 249 189 190
f 248 189 249
f 248 188 189
f 251 249 190
f 250 188 248
f 251 190 252
f 257 251 252
f 257 252 253
f 250 187 188
f 257 253 254
f 257 254 255
f 256 187 250
f 256 186 187
f 259 257 255
f 258 261 259
f 258 259 255
f 260 261 258
f 262 261 260
f 265 186 256
f 265 256 263
f 265 263 264
f 265 246 186
f 262 270 261
f 266 270 262
f 267 265 264
f 267 264 268
f 266 267 268
f 266 268 269
f 266 269 270
f 216 215 271
f 208 271 272
f 208 216 271
f 206 208 272
f 206 272 273
f 200 206 273
f 200 273 274
f 195 200 274
f 195 274 275
f 194 195 275
f 194 275 276
f 193 194 276
f 193 276 277
f 196 193 277
f 274 276 275
f 273 276 274
f 272 276 273
f 271 277 272
f 272 277 276
f 271 278 277
f 279 278 271
f 280 283 279
f 281 283 280
f 282 283 281
f 279 283 278
f 196 277 278
f 204 196 278
f 207 278 283
f 207 204 278
f 222 283 282
f 222 207 283
f 222 282 281
f 214 222 281
f 214 281 280
f 212 214 280
f 212 280 279
f 215 212 279
f 215 279 271
f 261 270 284
f 261 284 285
f 259 261 285
f 259 285 286
f 257 259 286
f 257 286 287
f 251 257 287
f 251 287 288
f 249 251 288
f 249 288 289
f 248 249 289
f 248 289 290
f 248 290 291
f 250 248 291
f 287 289 288
f 286 289 287
f 285 290 286
f 286 290 289
f 284 291 285
f 285 291 290
f 284 293 291
f 292 293 284
f 294 297 292
f 295 297 294
f 296 297 295
f 292 297 293
f 250 291 293
f 256 250 293
f 256 293 297
f 263 256 297
f 263 297 296
f 263 296 295
f 264 263 295
f 268 264 295
f 268 295 294
f 269 268 294
f 269 294 292
f 270 269 292
f 270 292 284
f 96 103 220
f 220 103 219
f 219 103 213
f 103 109 213
f 213 109 218
f 109 121 218
f 218 121 221
f 121 127 221
f 221 127 226
f 127 134 226
f 226 134 227
f 134 143 227
f 227 143 229
f 143 147 229
f 229 147 231
f 147 131 231
f 231 131 233
f 131 132 233
f 96 220 211
f 88 96 211
f 88 211 210
f 81 88 210
f 81 210 209
f 79 81 209
f 209 202 74
f 209 74 79
f 85 74 202
f 85 202 201
f 86 85 201
f 86 201 197
f 91 86 197
f 91 197 192
f 192 191 113
f 192 113 91
f 224 113 191
f 224 125 113
f 13 133 199
f 199 139 203
f 133 139 199
f 139 141 203
f 203 141 217
f 141 130 217
f 217 130 225
f 130 125 225
f 225 125 224
f 298 15 14
f 299 298 14
f 299 14 13
f 198 13 199
f 198 299 13
f 300 15 298
f 16 300 52
f 16 15 300
f 72 53 52
f 72 52 300
f 73 298 299
f 73 72 300
f 73 300 298
f 198 73 299
f 156 73 198
f 205 156 198
f 223 156 205
f 223 140 156
f 228 140 223
f 135 140 228
f 135 228 230
f 142 135 230
f 142 230 232
f 148 142 232
f 148 232 235
f 153 148 235
f 155 235 237
f 155 153 235
f 155 237 238
f 151 155 238
f 149 151 238
f 149 238 242
f 144 242 244
f 144 149 242
f 144 244 244
f 144 244 245
f 144 144 244
f 145 245 246
f 145 144 245
f 136 145 246
f 265 136 246
f 265 117 136
f 117 265 267
f 117 266 94
f 267 266 117
f 89 266 262
f 89 94 266
f 89 262 260
f 83 89 260
f 83 260 258
f 84 83 258
f 84 255 75
f 258 255 84
f 75 255 254
f 80 75 254
f 80 254 253
f 87 80 253
f 87 253 252
f 93 87 252
f 93 252 190
f 233 154 234
f 132 154 233
f 234 154 236
f 154 152 236
f 236 150 239
f 152 150 236
f 239 146 240
f 150 146 239
f 240 138 243
f 146 138 240
f 243 128 247
f 138 128 243
f 247 128 241
f 128 129 241
f 54 17 19
f 55 54 19
f 57 19 23
f 57 55 19
f 59 23 25
f 59 57 23
f 61 25 29
f 61 59 25
f 63 29 31
f 63 61 29
f 65 31 35
f 65 63 31
f 67 35 37
f 67 65 35
f 69 37 41
f 69 67 37
f 71 41 43
f 71 69 41
f 70 43 42
f 70 71 43
f 68 42 39
f 68 70 42
f 66 39 36
f 66 68 39
f 64 36 33
f 64 66 36
f 62 33 30
f 62 64 33
f 60 62 30
f 60 30 27
f 58 60 27
f 58 27 24
f 56 58 24
f 56 24 21
f 10 56 21
f 10 21 11
f 9 8 12
f 5 8 9
