# Render LOD; unchanged CAD body-local coordinates in mm
v 83.9347364 104.4347364 218.1666590
v 83.5604000 104.0604000 217.2500725
v 83.5183645 104.1011079 217.2486229
v 83.4896035 104.1272142 217.2461585
v 83.4391610 104.1701345 217.2392004
v 83.6860637 103.9188070 217.2355764
v 83.6462407 103.9674796 217.2435492
v 83.6042053 104.0148247 217.2483330
v 81.9174789 102.9550898 213.9167010
v 82.2325233 103.3842935 214.8380713
v 82.2679215 103.3400457 214.8173419
v 82.3064171 103.2935855 214.7984970
v 82.3471251 103.2457978 214.7824063
v 82.3896030 103.1980102 214.7695048
v 82.4342933 103.1493376 214.7595026
v 82.4816384 103.0988951 214.7528344
v 82.5108420 103.0692491 214.7506600
v 82.5400455 103.0400455 214.7499351
v 80.8559260 102.6957941 212.4999506
v 81.6112841 103.1811960 213.9167010
v 82.0719038 103.6179219 214.9925994
v 82.0927002 103.5834086 214.9649119
v 82.1236737 103.5351785 214.9292515
v 82.1577445 103.4851785 214.8956207
v 82.1944702 103.4347360 214.8650340
v 81.2838503 103.3754439 213.9167010
v 82.0121692 103.7311963 215.0950866
v 82.0316382 103.6918157 215.0569619
v 82.0515498 103.6542051 215.0231861
v 81.6661514 104.0984531 215.3334020
v 81.9705763 104.2006655 215.7445106
v 81.9573019 104.1665947 215.6817426
v 81.9471249 104.1298690 215.6185397
v 81.9404878 104.0944708 215.5595407
v 81.9369479 104.0595150 215.5046006
v 81.9360630 104.0241168 215.4515450
v 81.9378329 103.9847362 215.3947204
v 81.9431426 103.9449132 215.3406500
v 81.9511072 103.9042052 215.2883192
v 81.9630541 103.8603999 215.2349737
v 81.9767710 103.8183645 215.1865568
v 81.9935851 103.7736742 215.1381399
v 82.0280984 104.2935859 215.9338293
v 82.0050896 104.2630549 215.8683070
v 81.9856205 104.2311965 215.8033646
v 82.5157093 104.5440285 216.7499580
v 82.7400456 104.4851789 216.8870909
v 82.6860633 104.4918161 216.8425879
v 82.6373907 104.4957984 216.7998245
v 82.5834084 104.4980108 216.7493782
v 82.5298686 104.4975683 216.6966125
v 82.4719039 104.4935860 216.6355840
v 82.4157092 104.4869488 216.5722362
v 79.6546781 103.0137840 212.4997760
v 82.0484524 104.8219047 216.7499580
v 82.7860634 104.4772143 216.9233310
v 82.3612844 104.4772143 216.5067140
v 82.3090720 104.4639400 216.4393072
v 82.2617268 104.4488957 216.3733501
v 82.2170366 104.4307541 216.3059434
v 82.1741162 104.4099576 216.2369421
v 82.1378330 104.3887187 216.1722896
v 81.4272498 104.7195763 216.1366347
v 82.1037622 104.3652674 216.1073472
v 82.0780984 104.3444709 216.0535668
v 82.0546471 104.3223470 215.9999313
v 83.4710194 104.8542056 218.1666590
v 83.3869486 104.2104000 217.2289082
v 83.3334087 104.2484531 217.2149920
v 83.2785414 104.2838514 217.1977417
v 83.2219042 104.3174797 217.1768673
v 83.1696918 104.3453558 217.1551232
v 83.1170369 104.3710196 217.1304799
v 83.0634971 104.3944709 217.1032273
v 83.0095148 104.4157099 217.0730755
v 82.9542050 104.4342939 217.0398795
v 82.8984528 104.4511081 217.0036393
v 82.8431430 104.4652674 216.9655146
v 82.7189691 105.2556594 217.9627360
v 80.9826198 107.7987944 220.9997251
v 83.0906903 107.0765804 220.9999066
v 85.4669485 105.2888659 220.9995989
v 77.1149890 101.8735767 212.4994449
v 78.5458812 107.8722105 220.9998693
v 76.5539215 100.6589231 212.4998140
v 78.3091077 102.7868043 212.4993634
v 76.0607307 107.1389483 220.9999645
v 76.5252222 99.4864426 212.4997343
v 73.9463283 105.6965181 220.9994750
v 77.5666106 97.6814055 212.4997694
v 72.1763927 103.1116273 220.9994013
v 79.0488739 96.9800009 212.4981672
v 76.8960031 98.4919306 212.4999223
v 71.6258876 100.8479617 220.9999713
v 72.8577717 95.6779892 220.9999635
v 71.7201420 98.3325494 220.9995970
v 80.7161395 97.2356888 212.4997509
v 81.8148921 98.0431554 212.4994123
v 76.5564061 92.6474507 220.9999938
v 79.1411982 92.0634631 220.9997561
v 74.5213820 93.7924938 220.9994287
v 82.4582406 99.3374343 212.4994348
v 81.9476452 92.4316512 220.9993667
v 84.8191769 94.0822202 220.9995458
v 81.9025521 101.8469966 212.4998962
v 82.8754439 101.7838503 213.9167010
v 83.1462405 102.5555321 215.0163729
v 83.1927007 102.5307533 215.0579767
v 83.2365060 102.5099568 215.0998703
v 82.6811960 102.1112841 213.9167010
v 82.9108422 102.7126118 214.8516976
v 82.9581873 102.6772135 214.8788052
v 83.0059749 102.6435852 214.9092470
v 83.0537626 102.6117268 214.9425879
v 83.1011077 102.5820807 214.9786831
v 82.4550898 102.4174789 213.9167010
v 82.5882757 102.9922579 214.7519646
v 82.6210190 102.9608420 214.7552987
v 82.6692491 102.9157092 214.7632715
v 82.7183642 102.8714614 214.7745785
v 82.7670368 102.8285410 214.7892195
v 82.8157094 102.7878330 214.8071946
v 82.8639395 102.7488950 214.8280690
v 83.7170372 102.4780984 215.7753872
v 83.7480107 102.4953550 215.8367056
v 83.7794266 102.5170365 215.9030976
v 83.8011080 102.5347356 215.9513695
v 82.4496360 100.6454784 212.4998047
v 87.1523236 97.9599651 220.9999651
v 83.5984531 102.1661514 215.3334020
v 83.2816388 102.4904878 215.1465476
v 83.3236742 102.4745586 215.1927901
v 83.3626123 102.4621692 215.2378729
v 83.3988955 102.4524347 215.2816510
v 83.4320813 102.4453550 215.3238346
v 83.4626123 102.4404878 215.3644236
v 83.5033203 102.4365055 215.4209583
v 83.5391610 102.4360630 215.4732891
v 83.5736743 102.4378329 215.5269245
v 83.6112849 102.4431426 215.5867933
v 83.6484531 102.4515497 215.6501411
v 83.6838513 102.4634966 215.7130541
v 86.4636908 96.1746966 220.9999028
v 84.1993752 101.9031036 216.0892103
v 83.8223470 102.5546471 215.9999313
v 83.8506656 102.5860631 216.0702373
v 83.8772143 102.6210188 216.1405432
v 84.3219047 102.5484524 216.7499580
v 83.9015506 102.6590719 216.2107042
v 83.9232320 102.7006649 216.2801404
v 83.9422585 102.7449127 216.3487068
v 83.9590727 102.7918154 216.4161135
v 83.9727895 102.8418154 216.4820706
v 83.9834090 102.8935853 216.5462882
v 83.9913736 102.9475676 216.6087663
v 83.9882763 103.2165943 216.8679561
v 83.9807541 103.2670368 216.9086900
v 83.9714621 103.3161519 216.9458000
v 84.0440285 103.0157093 216.7499580
v 83.9962409 103.0033199 216.6690700
v 83.9980108 103.0603995 216.7270542
v 83.9971258 103.1126119 216.7769207
v 83.9940285 103.1639394 216.8233082
v 86.8745797 102.9304651 220.9995336
v 87.4576861 100.3218728 220.9995320
v 84.7254447 103.4679218 218.1666590
v 83.9604001 103.3630545 216.9794308
v 83.9484532 103.4073023 217.0097276
v 83.9360638 103.4497802 217.0369802
v 83.9179222 103.5028776 217.0693065
v 83.8971258 103.5564174 217.0994583
v 83.8741169 103.6103998 217.1274357
v 84.3542056 103.9710194 218.1666590
v 83.8480107 103.6648246 217.1528038
v 83.8294266 103.6997803 217.1680247
v 83.8002231 103.7519928 217.1884642
v 83.7661523 103.8068600 217.2071641
v 83.7356213 103.8519928 217.2202106
v 83.7090726 103.8887185 217.2291981
v 81.4878327 100.2201328 215.9999313
v 81.4878327 100.2219027 216.0598001
v 81.4869478 100.2276550 216.1198138
v 81.4860628 100.2382744 216.1859159
v 81.4842929 100.2533187 216.2525978
v 81.4816380 100.2727877 216.3194247
v 81.4785407 100.2940267 216.3790036
v 81.4745584 100.3188054 216.4378576
v 81.4696911 100.3466816 216.4955520
v 81.4639389 100.3785400 216.5526665
v 81.4568592 100.4134958 216.6094911
v 81.4480097 100.4524338 216.6658808
v 81.4382752 100.4922568 216.7185016
v 81.4267707 100.5360622 216.7717021
v 81.4143813 100.5794250 216.8192493
v 81.3997796 100.6254427 216.8663615
v 81.3847353 100.6696906 216.9079652
v 81.3688061 100.7126109 216.9456550
v 81.3519919 100.7546463 216.9797208
v 81.3351778 100.7949118 217.0103075
v 81.3179211 100.8334074 217.0378500
v 81.2922574 100.8869473 217.0733654
v 81.2670362 100.9365048 217.1032273
v 81.2396025 100.9869473 217.1310597
v 81.2099565 101.0373898 217.1559930
v 81.1758857 101.0909297 217.1794766
v 81.1413724 101.1422571 217.1989014
v 81.1068591 101.1900448 217.2144121
v 81.0661511 101.2431421 217.2286183
v 81.0223458 101.2966820 217.2394903
v 80.9873900 101.3369475 217.2452888
v 80.9511068 101.3763280 217.2487678
v 80.9143811 101.4143811 217.2500725
v 80.8661510 101.4603989 217.2481880
v 80.8329652 101.4909298 217.2448539
v 80.7807528 101.5356201 217.2365911
v 80.7325227 101.5745582 217.2260090
v 80.6829651 101.6126113 217.2122377
v 80.6325226 101.6484520 217.1954223
v 80.5816376 101.6820804 217.1755627
v 80.5307527 101.7139388 217.1529488
v 80.4807526 101.7431423 217.1277256
v 80.4289827 101.7710185 217.0987335
v 80.3763278 101.7975671 217.0665522
v 80.3232304 101.8223459 217.0308919
v 80.2705756 101.8453548 216.9921874
v 80.2188056 101.8661512 216.9505837
v 80.1679206 101.8851778 216.9066606
v 80.1192481 101.9015495 216.8604181
v 80.0763277 101.9152663 216.8160601
v 80.0342923 101.9272132 216.7690929
v 79.9935843 101.9378327 216.7202411
v 79.9550887 101.9475672 216.6696498
v 79.9192480 101.9555318 216.6178988
v 79.8825223 101.9630539 216.5596246
v 79.8497789 101.9692486 216.5009155
v 79.8205754 101.9741159 216.4423514
v 79.7957966 101.9780982 216.3834974
v 79.7741152 101.9811955 216.3236286
v 79.7559736 101.9838504 216.2631800
v 79.7400444 101.9856203 216.1959182
v 79.7289824 101.9869478 216.1288014
v 79.7236727 101.9873902 216.0798047
v 79.7205753 101.9878327 216.0313878
v 79.7201328 101.9878327 215.9838407
v 79.7223452 101.9878327 215.9364385
v 79.7289824 101.9869478 215.8712062
v 79.7400444 101.9856203 215.8051041
v 79.7555311 101.9838504 215.7382773
v 79.7758851 101.9811955 215.6715953
v 79.7975665 101.9776557 215.6120165
v 79.8227877 101.9736734 215.5533074
v 79.8511063 101.9688062 215.4959030
v 79.8834072 101.9630539 215.4387884
v 79.9192480 101.9555318 215.3819638
v 79.9586285 101.9466822 215.3257191
v 79.9984515 101.9369477 215.2738231
v 80.0422569 101.9250008 215.2214923
v 80.0851772 101.9126114 215.1746700
v 80.1307525 101.8980097 215.1282826
v 80.1750003 101.8825229 215.0872587
v 80.2179207 101.8665937 215.0500038
v 80.2595136 101.8502220 215.0163729
v 80.2997791 101.8329654 214.9862211
v 80.3502216 101.8103990 214.9508507
v 80.4024340 101.7847353 214.9170748
v 80.4559739 101.7568592 214.8856184
v 80.5099562 101.7263282 214.8572061
v 80.5453544 101.7050892 214.8402457
v 80.5980093 101.6714609 214.8177768
v 80.6480093 101.6373901 214.7990768
v 80.6949120 101.6033193 214.7841459
v 80.7466819 101.5634962 214.7705196
v 80.7988944 101.5205759 214.7600824
v 80.8289829 101.4944697 214.7557336
v 80.8577439 101.4683635 214.7525444
v 80.8865050 101.4413723 214.7506600
v 80.9143811 101.4143811 214.7499351
v 80.9559741 101.3710183 214.7515297
v 80.9966821 101.3267705 214.7560235
v 81.0413723 101.2741156 214.7647211
v 81.0803104 101.2254430 214.7757382
v 81.1174786 101.1758855 214.7899443
v 81.1533193 101.1250005 214.8071946
v 81.1869476 101.0745580 214.8274891
v 81.2179211 101.0236730 214.8505379
v 81.2475671 100.9727880 214.8763409
v 81.2750008 100.9210181 214.9057679
v 81.3015494 100.8683632 214.9386740
v 81.3254433 100.8161508 214.9741894
v 81.3466822 100.7679207 215.0099947
v 81.3665937 100.7183631 215.0495689
v 81.3851778 100.6683631 215.0930571
v 81.4002221 100.6236728 215.1355306
v 81.4134964 100.5820799 215.1775692
v 81.4245583 100.5444693 215.2190280
v 81.4338504 100.5099560 215.2597620
v 81.4440274 100.4688055 215.3119478
v 81.4533194 100.4289825 215.3673228
v 81.4612840 100.3913718 215.4255970
v 81.4679212 100.3568586 215.4857557
v 81.4732309 100.3258851 215.5467842
v 81.4776557 100.3002214 215.6057832
v 81.4811955 100.2763276 215.6701457
v 81.4834079 100.2595134 215.7245060
v 81.4851778 100.2440267 215.7862593
v 81.4865053 100.2320797 215.8504768
v 81.4873902 100.2267700 215.8878767
v 81.4873902 100.2232302 215.9254215
v 81.4878327 100.2210178 215.9628214
v 80.9143811 101.4143811 220.4999466
v 80.9829652 101.3418147 220.4999466
v 80.9143811 101.4143811 212.5000000
v 81.0480095 101.2665935 220.4999466
v 80.9829652 101.3418147 212.5000000
v 81.1090715 101.1878324 220.4999466
v 81.0480095 101.2665935 212.5000000
v 81.1665936 101.1059739 220.4999466
v 81.1090715 101.1878324 212.5000000
v 81.2192485 101.0214606 220.4999466
v 81.1665936 101.1059739 212.5000000
v 81.2683636 100.9347349 220.4999466
v 81.2192485 101.0214606 212.5000000
v 81.3126114 100.8453543 220.4999466
v 81.2683636 100.9347349 212.5000000
v 81.3524344 100.7537614 220.4999466
v 81.3126114 100.8453543 212.5000000
v 81.3878327 100.6603985 220.4999466
v 81.3524344 100.7537614 212.5000000
v 81.4183637 100.5657082 220.4999466
v 81.3878327 100.6603985 212.5000000
v 81.4440274 100.4692480 220.4999466
v 81.4183637 100.5657082 212.5000000
v 81.4652663 100.3719028 220.4999466
v 81.4440274 100.4692480 212.5000000
v 81.4811955 100.2732302 220.4999466
v 81.4652663 100.3719028 212.5000000
v 81.4922575 100.1741151 220.4999466
v 81.4984522 100.0750000 220.4999466
v 81.4811955 100.2732302 212.5000000
v 81.4922575 100.1741151 212.5000000
v 81.4984522 100.0750000 212.5000000
v 81.4997796 99.9750000 212.5000000
v 81.4997796 99.9750000 220.4999466
v 81.4962398 99.8754424 212.5000000
v 81.4962398 99.8754424 220.4999466
v 81.4873902 99.7758849 212.5000000
v 81.4873902 99.7758849 220.4999466
v 81.4736734 99.6772123 212.5000000
v 81.4736734 99.6772123 220.4999466
v 81.4550893 99.5794246 212.5000000
v 81.4550893 99.5794246 220.4999466
v 81.4316380 99.4825219 212.5000000
v 81.4316380 99.4825219 220.4999466
v 81.4037619 99.3865042 212.5000000
v 81.4037619 99.3865042 220.4999466
v 81.3705760 99.2926988 212.5000000
v 81.3705760 99.2926988 220.4999466
v 81.3329654 99.2002209 212.5000000
v 81.3329654 99.2002209 220.4999466
v 81.2909300 99.1099554 212.5000000
v 81.2909300 99.1099554 220.4999466
v 81.2444698 99.0214598 212.5000000
v 81.2444698 99.0214598 220.4999466
v 81.1935848 98.9360615 212.5000000
v 81.1935848 98.9360615 220.4999466
v 81.1382750 98.8528756 212.5000000
v 81.1382750 98.8528756 220.4999466
v 81.0789830 98.7727871 220.4999466
v 81.0789830 98.7727871 212.5000000
v 81.0161511 98.6953534 212.5000000
v 81.0161511 98.6953534 220.4999466
v 80.9488944 98.6214596 212.5000000
v 80.9488944 98.6214596 220.4999466
v 80.8785404 98.5511056 212.5000000
v 80.8785404 98.5511056 220.4999466
v 80.8046466 98.4838489 212.5000000
v 80.8046466 98.4838489 220.4999466
v 80.7272129 98.4210170 212.5000000
v 80.7272129 98.4210170 220.4999466
v 80.6471244 98.3617250 212.5000000
v 80.6471244 98.3617250 220.4999466
v 80.5639385 98.3064152 212.5000000
v 80.5639385 98.3064152 220.4999466
v 80.4785402 98.2555302 212.5000000
v 80.4785402 98.2555302 220.4999466
v 80.3900446 98.2090700 212.5000000
v 80.3900446 98.2090700 220.4999466
v 80.2997791 98.1670346 212.5000000
v 80.2997791 98.1670346 220.4999466
v 80.2073012 98.1294240 212.5000000
v 80.2073012 98.1294240 220.4999466
v 80.1134958 98.0962381 212.5000000
v 80.1134958 98.0962381 220.4999466
v 80.0174781 98.0683620 212.5000000
v 80.0174781 98.0683620 220.4999466
v 79.9205754 98.0449107 212.5000000
v 79.9205754 98.0449107 220.4999466
v 79.8227877 98.0263266 220.4999466
v 79.8227877 98.0263266 212.5000000
v 79.7241151 98.0126098 212.5000000
v 79.7241151 98.0126098 220.4999466
v 79.6245576 98.0037602 212.5000000
v 79.6245576 98.0037602 220.4999466
v 79.5250000 98.0002204 212.5000000
v 79.5250000 98.0002204 220.4999466
v 79.4250000 98.0015478 212.5000000
v 79.4250000 98.0015478 220.4999466
v 79.3258849 98.0077425 212.5000000
v 79.3258849 98.0077425 220.4999466
v 79.2267698 98.0188045 212.5000000
v 79.2267698 98.0188045 220.4999466
v 79.1280972 98.0347337 212.5000000
v 79.1280972 98.0347337 220.4999466
v 79.0307520 98.0559726 212.5000000
v 79.0307520 98.0559726 220.4999466
v 78.9342918 98.0816363 212.5000000
v 78.9342918 98.0816363 220.4999466
v 78.8396015 98.1121673 212.5000000
v 78.8396015 98.1121673 220.4999466
v 78.7462386 98.1475656 212.5000000
v 78.7462386 98.1475656 220.4999466
v 78.6546457 98.1873886 212.5000000
v 78.6546457 98.1873886 220.4999466
v 78.5652651 98.2316364 212.5000000
v 78.5652651 98.2316364 220.4999466
v 78.4785394 98.2807515 212.5000000
v 78.4785394 98.2807515 220.4999466
v 78.3940261 98.3334064 212.5000000
v 78.3940261 98.3334064 220.4999466
v 78.3121676 98.3909285 212.5000000
v 78.3121676 98.3909285 220.4999466
v 78.2334065 98.4519905 212.5000000
v 78.2334065 98.4519905 220.4999466
v 78.1581853 98.5170348 212.5000000
v 78.1581853 98.5170348 220.4999466
v 78.0856189 98.5856189 212.5000000
v 78.0856189 98.5856189 220.4999466
v 78.0170348 98.6581853 212.5000000
v 78.0170348 98.6581853 220.4999466
v 77.9519905 98.7334065 212.5000000
v 77.9519905 98.7334065 220.4999466
v 77.8909285 98.8121676 212.5000000
v 77.8909285 98.8121676 220.4999466
v 77.8334064 98.8940261 212.5000000
v 77.8334064 98.8940261 220.4999466
v 77.7807515 98.9785394 212.5000000
v 77.7807515 98.9785394 220.4999466
v 77.7316364 99.0652651 212.5000000
v 77.7316364 99.0652651 220.4999466
v 77.6873886 99.1546457 212.5000000
v 77.6873886 99.1546457 220.4999466
v 77.6475656 99.2462386 212.5000000
v 77.6475656 99.2462386 220.4999466
v 77.6121673 99.3396015 212.5000000
v 77.6121673 99.3396015 220.4999466
v 77.5816363 99.4342918 212.5000000
v 77.5816363 99.4342918 220.4999466
v 77.5559726 99.5307520 212.5000000
v 77.5559726 99.5307520 220.4999466
v 77.5347337 99.6280972 212.5000000
v 77.5347337 99.6280972 220.4999466
v 77.5188045 99.7267698 212.5000000
v 77.5188045 99.7267698 220.4999466
v 77.5077425 99.8258849 212.5000000
v 77.5077425 99.8258849 220.4999466
v 77.5015478 99.9250000 212.5000000
v 77.5015478 99.9250000 220.4999466
v 77.5002204 100.0250000 212.5000000
v 77.5002204 100.0250000 220.4999466
v 77.5037602 100.1245576 212.5000000
v 77.5037602 100.1245576 220.4999466
v 77.5126098 100.2241151 212.5000000
v 77.5126098 100.2241151 220.4999466
v 77.5263266 100.3227877 212.5000000
v 77.5263266 100.3227877 220.4999466
v 77.5449107 100.4205754 212.5000000
v 77.5449107 100.4205754 220.4999466
v 77.5683620 100.5174781 212.5000000
v 77.5683620 100.5174781 220.4999466
v 77.5962381 100.6134958 212.5000000
v 77.5962381 100.6134958 220.4999466
v 77.6294240 100.7073012 212.5000000
v 77.6294240 100.7073012 220.4999466
v 77.6670346 100.7997791 212.5000000
v 77.6670346 100.7997791 220.4999466
v 77.7090700 100.8900446 212.5000000
v 77.7090700 100.8900446 220.4999466
v 77.7555302 100.9785402 212.5000000
v 77.7555302 100.9785402 220.4999466
v 77.8064152 101.0639385 212.5000000
v 77.8064152 101.0639385 220.4999466
v 77.8617250 101.1471244 212.5000000
v 77.8617250 101.1471244 220.4999466
v 77.9210170 101.2272129 212.5000000
v 77.9210170 101.2272129 220.4999466
v 77.9838489 101.3046466 212.5000000
v 77.9838489 101.3046466 220.4999466
v 78.0511056 101.3785404 212.5000000
v 78.0511056 101.3785404 220.4999466
v 78.1214596 101.4488944 212.5000000
v 78.1214596 101.4488944 220.4999466
v 78.1953534 101.5161511 212.5000000
v 78.1953534 101.5161511 220.4999466
v 78.2727871 101.5789830 212.5000000
v 78.2727871 101.5789830 220.4999466
v 78.3528756 101.6382750 212.5000000
v 78.3528756 101.6382750 220.4999466
v 78.4360615 101.6935848 212.5000000
v 78.4360615 101.6935848 220.4999466
v 78.5214598 101.7444698 212.5000000
v 78.5214598 101.7444698 220.4999466
v 78.6099554 101.7909300 212.5000000
v 78.6099554 101.7909300 220.4999466
v 78.7002209 101.8329654 212.5000000
v 78.7002209 101.8329654 220.4999466
v 78.7926988 101.8705760 212.5000000
v 78.7926988 101.8705760 220.4999466
v 78.8865042 101.9037619 212.5000000
v 78.8865042 101.9037619 220.4999466
v 78.9825219 101.9316380 212.5000000
v 78.9825219 101.9316380 220.4999466
v 79.0794246 101.9550893 212.5000000
v 79.0794246 101.9550893 220.4999466
v 79.1772123 101.9736734 212.5000000
v 79.1772123 101.9736734 220.4999466
v 79.2758849 101.9873902 212.5000000
v 79.2758849 101.9873902 220.4999466
v 79.3754424 101.9962398 212.5000000
v 79.3754424 101.9962398 220.4999466
v 79.4750000 101.9997796 212.5000000
v 79.4750000 101.9997796 220.4999466
v 79.5750000 101.9984522 212.5000000
v 79.5750000 101.9984522 220.4999466
v 79.6741151 101.9922575 220.4999466
v 79.7732302 101.9811955 220.4999466
v 79.6741151 101.9922575 212.5000000
v 79.8719028 101.9652663 220.4999466
v 79.7732302 101.9811955 212.5000000
v 79.9692480 101.9440274 220.4999466
v 79.8719028 101.9652663 212.5000000
v 80.0657082 101.9183637 220.4999466
v 79.9692480 101.9440274 212.5000000
v 80.1603985 101.8878327 220.4999466
v 80.0657082 101.9183637 212.5000000
v 80.2537614 101.8524344 220.4999466
v 80.1603985 101.8878327 212.5000000
v 80.3453543 101.8126114 220.4999466
v 80.2537614 101.8524344 212.5000000
v 80.4347349 101.7683636 220.4999466
v 80.3453543 101.8126114 212.5000000
v 80.5214606 101.7192485 220.4999466
v 80.4347349 101.7683636 212.5000000
v 80.6059739 101.6665936 220.4999466
v 80.5214606 101.7192485 212.5000000
v 80.6878324 101.6090715 220.4999466
v 80.6059739 101.6665936 212.5000000
v 80.7665935 101.5480095 220.4999466
v 80.6878324 101.6090715 212.5000000
v 80.8418147 101.4829652 220.4999466
v 80.7665935 101.5480095 212.5000000
v 80.8418147 101.4829652 212.5000000
v 82.4567503 114.2178768 221.0000610
v 78.1137762 114.5279755 221.0000610
v 86.2077799 112.9358721 221.0000610
v 72.5771610 112.8475550 221.0000610
v 89.5141050 110.5225637 221.0000610
v 68.1322615 109.1521415 221.0000610
v 92.2223190 107.1345242 221.0000610
v 66.0108754 105.3789535 221.0000610
v 93.9889685 101.7485613 221.0000610
v 64.9517055 101.1537881 221.0000610
v 93.5302138 95.9829604 221.0000610
v 65.6450353 95.4142979 221.0000610
v 91.2748092 91.4493897 221.0000610
v 68.0791499 90.9821088 221.0000610
v 87.6660574 87.9045496 221.0000610
v 71.8341976 87.5815361 221.0000610
v 82.3293587 85.6829309 221.0000610
v 76.9037627 85.6615252 221.0000610
v 90.1528013 109.9750289 222.0000000
v 86.3897227 112.7989849 222.0000000
v 82.3228873 114.2955722 222.0000000
v 77.9810702 114.4558368 222.0000000
v 73.4388776 113.2758755 222.0000000
v 69.2896822 110.3688264 222.0000000
v 66.8760627 107.2054717 222.0000000
v 65.4886513 103.8684995 222.0000000
v 64.9672370 100.2877053 222.0000000
v 65.5737707 95.6354888 222.0000000
v 67.7404362 91.4564260 222.0000000
v 70.4821088 88.5791499 222.0000000
v 73.9227887 86.5769323 222.0000000
v 78.1179032 85.4941153 222.0000000
v 82.4535842 85.7678212 222.0000000
v 86.8536855 87.3941550 222.0000000
v 90.4438488 90.4335953 222.0000000
v 92.4675356 93.4332001 222.0000000
v 93.8613412 97.5345900 222.0000000
v 93.9139770 101.8760181 222.0000000
v 92.8829757 105.7149293 222.0000000
f 1 2 3
f 1 3 4
f 1 4 5
f 1 6 7
f 1 7 8
f 1 8 2
f 9 10 11
f 9 11 12
f 9 12 13
f 9 13 14
f 9 14 15
f 9 15 16
f 9 16 17
f 9 17 18
f 9 18 105
f 9 105 19
f 20 10 9
f 20 21 22
f 20 22 23
f 20 23 24
f 20 9 19
f 20 24 25
f 20 25 10
f 26 21 20
f 26 27 28
f 26 28 29
f 26 29 21
f 26 20 19
f 80 19 54
f 30 31 32
f 30 32 33
f 30 33 34
f 30 27 26
f 30 34 35
f 30 35 36
f 30 36 37
f 30 37 38
f 30 38 39
f 30 39 40
f 30 40 41
f 30 41 42
f 30 42 27
f 63 26 19
f 63 43 44
f 63 44 45
f 63 45 31
f 63 31 30
f 63 30 26
f 80 63 19
f 46 47 48
f 46 48 49
f 46 49 50
f 46 50 51
f 46 51 52
f 46 52 53
f 55 56 47
f 55 47 46
f 55 53 57
f 55 57 58
f 55 58 59
f 55 59 60
f 55 60 61
f 55 61 62
f 55 46 53
f 63 62 64
f 63 64 65
f 63 65 66
f 63 66 43
f 63 55 62
f 67 1 5
f 67 5 68
f 67 68 69
f 67 69 70
f 67 70 71
f 67 71 72
f 67 72 73
f 79 73 74
f 79 74 75
f 79 75 76
f 79 76 77
f 79 77 78
f 79 67 73
f 79 78 56
f 79 56 55
f 81 79 55
f 81 55 63
f 82 1 67
f 82 67 79
f 80 81 63
f 81 82 79
f 84 54 86
f 84 80 54
f 89 87 86
f 86 87 84
f 89 86 83
f 91 83 85
f 91 89 83
f 94 91 85
f 94 85 88
f 93 96 88
f 96 94 88
f 90 95 93
f 101 95 90
f 93 95 96
f 92 101 90
f 99 101 92
f 103 100 92
f 103 92 97
f 92 100 99
f 104 97 98
f 104 103 97
f 143 104 98
f 106 128 105
f 106 107 108
f 106 108 109
f 143 102 129
f 143 98 102
f 110 107 106
f 110 111 112
f 110 112 113
f 110 113 114
f 110 114 115
f 110 115 107
f 110 106 105
f 116 105 18
f 116 18 117
f 116 117 118
f 116 118 119
f 116 119 120
f 116 120 121
f 116 121 122
f 116 122 123
f 116 111 110
f 116 123 111
f 116 110 105
f 144 124 125
f 144 125 126
f 144 126 127
f 144 164 128
f 130 109 131
f 130 131 132
f 130 132 133
f 130 133 134
f 130 134 135
f 130 135 136
f 130 136 137
f 130 137 138
f 130 138 139
f 130 139 140
f 130 106 109
f 130 140 141
f 130 141 142
f 130 142 124
f 130 144 128
f 130 128 106
f 130 124 144
f 165 129 102
f 165 102 128
f 144 127 145
f 144 145 146
f 144 146 147
f 148 144 147
f 148 147 149
f 148 149 150
f 148 150 151
f 148 151 152
f 148 152 153
f 148 153 154
f 148 154 155
f 148 156 157
f 148 157 158
f 159 148 155
f 159 156 148
f 159 155 160
f 159 160 161
f 159 161 162
f 159 162 163
f 159 163 156
f 164 165 128
f 164 148 158
f 164 144 148
f 166 164 158
f 166 158 167
f 166 167 168
f 166 168 169
f 166 169 170
f 166 170 171
f 166 171 172
f 173 6 1
f 173 166 172
f 173 172 174
f 173 174 175
f 173 175 176
f 173 176 177
f 173 177 178
f 173 178 179
f 173 179 6
f 82 164 166
f 82 166 173
f 82 173 1
f 180 181 145
f 145 181 146
f 146 182 147
f 181 182 146
f 147 183 149
f 182 183 147
f 149 184 150
f 183 184 149
f 150 185 151
f 184 185 150
f 151 186 152
f 185 186 151
f 152 187 153
f 186 187 152
f 153 188 154
f 187 188 153
f 154 189 155
f 188 189 154
f 189 190 155
f 190 191 155
f 155 191 160
f 191 192 160
f 160 192 161
f 192 193 161
f 161 193 162
f 193 194 162
f 162 194 163
f 194 195 163
f 163 195 156
f 195 196 156
f 156 196 157
f 196 197 157
f 157 197 158
f 197 198 158
f 158 198 167
f 198 199 167
f 167 199 168
f 168 199 169
f 199 200 169
f 169 200 170
f 200 201 170
f 170 201 171
f 201 202 171
f 171 202 172
f 202 203 172
f 172 203 174
f 203 204 174
f 174 204 175
f 204 205 175
f 175 205 176
f 205 206 176
f 176 206 177
f 206 207 177
f 177 207 178
f 207 208 178
f 178 208 179
f 179 208 6
f 208 209 6
f 6 209 7
f 209 210 7
f 7 210 8
f 210 211 8
f 8 211 2
f 211 212 2
f 2 212 3
f 212 213 3
f 3 213 4
f 4 214 5
f 213 214 4
f 5 215 68
f 214 215 5
f 215 216 68
f 68 216 69
f 69 217 70
f 216 217 69
f 70 218 71
f 217 218 70
f 71 219 72
f 218 219 71
f 72 220 73
f 219 220 72
f 73 221 74
f 220 221 73
f 74 222 75
f 221 222 74
f 75 223 76
f 222 223 75
f 76 224 77
f 223 224 76
f 77 225 78
f 224 225 77
f 78 226 56
f 225 226 78
f 56 227 47
f 226 227 56
f 47 228 48
f 227 228 47
f 48 229 49
f 228 229 48
f 49 230 50
f 229 230 49
f 50 231 51
f 230 231 50
f 51 232 52
f 231 232 51
f 52 233 53
f 232 233 52
f 53 234 57
f 233 234 53
f 57 235 58
f 234 235 57
f 235 236 58
f 58 237 59
f 236 237 58
f 59 238 60
f 237 238 59
f 60 239 61
f 238 239 60
f 61 240 62
f 239 240 61
f 240 241 62
f 62 241 64
f 241 242 64
f 64 242 65
f 242 243 65
f 65 243 66
f 243 244 66
f 66 244 43
f 244 245 43
f 245 246 43
f 43 246 44
f 246 247 44
f 44 247 45
f 45 247 31
f 247 248 31
f 31 248 32
f 248 249 32
f 32 249 33
f 33 250 34
f 249 250 33
f 34 251 35
f 250 251 34
f 35 252 36
f 251 252 35
f 36 253 37
f 252 253 36
f 253 254 37
f 37 254 38
f 38 255 39
f 254 255 38
f 39 256 40
f 255 256 39
f 40 257 41
f 256 257 40
f 41 258 42
f 257 258 41
f 42 259 27
f 258 259 42
f 27 260 28
f 259 260 27
f 28 261 29
f 260 261 28
f 29 262 21
f 261 262 29
f 21 263 22
f 262 263 21
f 22 264 23
f 263 264 22
f 23 265 24
f 264 265 23
f 24 266 25
f 265 266 24
f 266 267 25
f 25 267 10
f 267 268 10
f 268 269 10
f 10 269 11
f 269 270 11
f 11 270 12
f 270 271 12
f 12 271 13
f 271 272 13
f 13 272 14
f 272 273 14
f 14 273 15
f 273 274 15
f 15 274 16
f 274 275 16
f 16 275 17
f 275 276 17
f 17 276 18
f 276 277 18
f 18 278 117
f 277 278 18
f 117 279 118
f 118 279 119
f 278 279 117
f 119 280 120
f 279 280 119
f 120 281 121
f 280 281 120
f 121 282 122
f 281 282 121
f 282 283 122
f 122 284 123
f 283 284 122
f 123 285 111
f 284 285 123
f 111 286 112
f 285 286 111
f 112 287 113
f 286 287 112
f 113 288 114
f 287 288 113
f 114 289 115
f 288 289 114
f 115 290 107
f 289 290 115
f 107 291 108
f 290 291 107
f 108 292 109
f 291 292 108
f 292 293 109
f 109 293 131
f 293 294 131
f 131 294 132
f 294 295 132
f 132 295 133
f 295 296 133
f 133 296 134
f 134 297 135
f 296 297 134
f 135 298 136
f 136 298 137
f 297 298 135
f 298 299 137
f 137 299 138
f 299 300 138
f 138 300 139
f 139 301 140
f 300 301 139
f 140 302 141
f 301 302 140
f 141 303 142
f 302 303 141
f 142 304 124
f 303 304 142
f 124 305 125
f 304 305 124
f 305 306 125
f 125 307 126
f 306 307 125
f 126 308 127
f 307 308 126
f 127 309 145
f 308 309 127
f 309 180 145
f 212 211 310
f 310 211 311
f 211 210 311
f 312 278 277
f 311 209 313
f 210 209 311
f 312 314 278
f 278 314 279
f 209 208 313
f 313 208 315
f 208 207 315
f 314 316 279
f 279 316 280
f 280 316 281
f 207 206 315
f 315 206 317
f 316 318 281
f 281 318 282
f 206 205 317
f 317 205 319
f 318 283 282
f 205 204 319
f 318 320 283
f 283 320 284
f 204 203 319
f 319 203 321
f 203 202 321
f 284 322 285
f 285 322 286
f 320 322 284
f 202 201 321
f 321 201 323
f 201 200 323
f 286 324 287
f 322 324 286
f 324 288 287
f 200 199 323
f 323 199 325
f 199 198 325
f 288 326 289
f 324 326 288
f 198 197 325
f 325 197 327
f 197 196 327
f 289 328 290
f 290 328 291
f 326 328 289
f 327 195 329
f 196 195 327
f 195 194 329
f 291 330 292
f 292 330 293
f 328 330 291
f 329 193 331
f 194 193 329
f 193 192 331
f 330 332 293
f 293 332 294
f 294 332 295
f 295 332 296
f 192 191 331
f 331 190 333
f 191 190 331
f 190 189 333
f 296 334 297
f 297 334 298
f 332 334 296
f 189 188 333
f 188 187 333
f 333 187 335
f 187 186 335
f 298 336 299
f 299 336 300
f 300 336 301
f 334 336 298
f 186 185 335
f 185 184 335
f 184 183 335
f 335 183 337
f 183 182 337
f 182 181 337
f 181 180 337
f 180 338 337
f 301 339 302
f 302 339 303
f 303 339 304
f 304 339 305
f 305 339 306
f 336 339 301
f 306 340 307
f 307 340 308
f 308 340 309
f 309 340 180
f 339 340 306
f 180 341 338
f 340 341 180
f 338 342 343
f 341 342 338
f 343 344 345
f 342 344 343
f 345 346 347
f 344 346 345
f 347 348 349
f 346 348 347
f 349 350 351
f 348 350 349
f 350 352 351
f 351 352 353
f 352 354 353
f 353 354 355
f 354 356 355
f 355 356 357
f 356 358 357
f 357 358 359
f 358 360 359
f 359 360 361
f 360 362 361
f 361 362 363
f 362 364 363
f 363 364 365
f 364 366 365
f 365 366 367
f 367 366 368
f 366 369 368
f 369 370 368
f 368 370 371
f 370 372 371
f 371 372 373
f 372 374 373
f 373 374 375
f 374 376 375
f 375 376 377
f 376 378 377
f 377 378 379
f 378 380 379
f 379 380 381
f 380 382 381
f 381 382 383
f 382 384 383
f 383 384 385
f 384 386 385
f 385 386 387
f 386 388 387
f 387 388 389
f 388 390 389
f 389 390 391
f 390 392 391
f 391 392 393
f 392 394 393
f 393 394 395
f 395 396 397
f 397 396 398
f 394 396 395
f 396 399 398
f 398 400 401
f 399 400 398
f 400 402 401
f 401 402 403
f 402 404 403
f 403 404 405
f 405 406 407
f 404 406 405
f 406 408 407
f 407 408 409
f 409 410 411
f 408 410 409
f 411 412 413
f 410 412 411
f 413 414 415
f 412 414 413
f 415 416 417
f 414 416 415
f 417 418 419
f 416 418 417
f 419 420 421
f 418 420 419
f 421 422 423
f 420 422 421
f 423 424 425
f 422 424 423
f 425 426 427
f 424 426 425
f 427 428 429
f 426 428 427
f 429 430 431
f 428 430 429
f 431 432 433
f 430 432 431
f 433 434 435
f 432 434 433
f 435 436 437
f 434 436 435
f 437 438 439
f 436 438 437
f 439 440 441
f 438 440 439
f 441 442 443
f 440 442 441
f 443 444 445
f 442 444 443
f 445 446 447
f 444 446 445
f 447 448 449
f 446 448 447
f 449 450 451
f 448 450 449
f 451 452 453
f 450 452 451
f 452 454 453
f 453 454 455
f 454 456 455
f 455 456 457
f 456 458 457
f 457 458 459
f 458 460 459
f 459 460 461
f 460 462 461
f 461 462 463
f 462 464 463
f 463 464 465
f 464 466 465
f 465 466 467
f 466 468 467
f 467 468 469
f 469 470 471
f 468 470 469
f 471 472 473
f 470 472 471
f 472 474 473
f 473 474 475
f 475 476 477
f 474 476 475
f 477 478 479
f 476 478 477
f 479 480 481
f 478 480 479
f 481 482 483
f 480 482 481
f 483 484 485
f 482 484 483
f 485 486 487
f 484 486 485
f 487 488 489
f 486 488 487
f 489 490 491
f 488 490 489
f 491 492 493
f 490 492 491
f 493 494 495
f 492 494 493
f 495 496 497
f 494 496 495
f 497 498 499
f 496 498 497
f 499 500 501
f 498 500 499
f 501 502 503
f 500 502 501
f 502 504 503
f 503 504 505
f 504 506 505
f 505 506 507
f 506 508 507
f 507 508 509
f 508 510 509
f 509 510 511
f 510 512 511
f 511 512 513
f 512 514 513
f 513 514 515
f 514 516 515
f 515 516 517
f 516 518 517
f 517 518 519
f 518 520 519
f 519 520 521
f 520 522 521
f 521 522 523
f 522 524 523
f 523 524 525
f 524 526 525
f 525 526 527
f 526 528 527
f 527 528 529
f 528 530 529
f 529 530 531
f 530 532 531
f 531 532 533
f 532 244 533
f 534 244 243
f 533 244 534
f 243 242 534
f 534 241 535
f 242 241 534
f 241 240 535
f 240 239 535
f 244 536 245
f 245 536 246
f 532 536 244
f 239 238 535
f 238 237 535
f 535 236 537
f 237 236 535
f 236 235 537
f 246 538 247
f 247 538 248
f 248 538 249
f 249 538 250
f 250 538 251
f 536 538 246
f 235 234 537
f 537 233 539
f 234 233 537
f 233 232 539
f 251 540 252
f 252 540 253
f 253 540 254
f 538 540 251
f 232 231 539
f 231 230 539
f 539 230 541
f 540 542 254
f 254 542 255
f 255 542 256
f 230 229 541
f 229 228 541
f 541 228 543
f 228 227 543
f 542 544 256
f 256 544 257
f 257 544 258
f 544 259 258
f 227 226 543
f 543 226 545
f 544 546 259
f 259 546 260
f 260 546 261
f 226 225 545
f 225 224 545
f 545 224 547
f 261 548 262
f 262 548 263
f 546 548 261
f 224 223 547
f 547 223 549
f 223 222 549
f 263 550 264
f 548 550 263
f 550 265 264
f 222 221 549
f 549 221 551
f 221 220 551
f 265 552 266
f 550 552 265
f 551 219 553
f 220 219 551
f 266 554 267
f 267 554 268
f 552 554 266
f 553 218 555
f 219 218 553
f 218 217 555
f 268 556 269
f 269 556 270
f 554 556 268
f 217 216 555
f 555 216 557
f 556 558 270
f 270 558 271
f 216 215 557
f 557 215 559
f 558 272 271
f 215 214 559
f 558 560 272
f 272 560 273
f 214 213 559
f 559 213 310
f 213 212 310
f 560 561 273
f 273 561 274
f 274 561 275
f 561 276 275
f 561 312 276
f 276 312 277
f 563 80 84
f 562 80 563
f 563 87 565
f 84 87 563
f 562 81 80
f 564 81 562
f 87 89 565
f 564 82 81
f 566 82 564
f 565 89 567
f 568 82 566
f 89 91 567
f 567 91 569
f 568 164 82
f 570 164 568
f 569 91 571
f 570 165 164
f 91 94 571
f 96 571 94
f 570 572 165
f 96 573 571
f 165 572 129
f 129 572 143
f 95 573 96
f 572 574 143
f 95 575 573
f 143 574 104
f 101 575 95
f 574 576 104
f 101 577 575
f 104 576 103
f 99 577 101
f 576 578 103
f 99 579 577
f 100 579 99
f 103 578 100
f 100 578 579
f 580 566 564
f 581 580 564
f 582 581 564
f 582 564 562
f 582 562 563
f 583 582 563
f 584 583 563
f 584 563 565
f 585 584 565
f 585 565 567
f 586 585 567
f 586 567 569
f 587 586 569
f 587 569 571
f 588 587 571
f 589 588 571
f 589 571 573
f 590 573 575
f 590 589 573
f 591 590 575
f 591 575 577
f 592 591 577
f 592 577 579
f 593 592 579
f 593 579 578
f 594 593 578
f 595 594 578
f 595 578 576
f 596 595 576
f 596 576 574
f 597 596 574
f 597 574 572
f 598 597 572
f 598 572 570
f 599 598 570
f 600 599 570
f 600 570 568
f 580 600 568
f 580 568 566
f 581 582 583
f 586 583 584
f 586 581 583
f 586 584 585
f 586 580 581
f 600 580 586
f 587 600 586
f 598 599 600
f 598 600 587
f 598 587 588
f 597 598 588
f 590 588 589
f 590 597 588
f 595 596 597
f 594 597 590
f 594 595 597
f 593 591 592
f 593 590 591
f 593 594 590
f 54 532 530
f 530 528 54
f 54 536 532
f 528 526 54
f 54 538 536
f 54 524 86
f 526 524 54
f 54 540 538
f 524 522 86
f 19 542 54
f 54 542 540
f 522 520 86
f 19 544 542
f 520 518 86
f 19 546 544
f 518 516 86
f 19 548 546
f 516 514 86
f 19 550 548
f 514 512 86
f 19 552 550
f 512 510 86
f 19 554 552
f 510 508 86
f 19 556 554
f 508 506 86
f 105 558 19
f 19 558 556
f 86 504 83
f 506 504 86
f 105 560 558
f 504 502 83
f 105 561 560
f 502 500 83
f 105 312 561
f 500 498 83
f 105 314 312
f 498 496 83
f 105 316 314
f 496 494 83
f 105 318 316
f 494 492 83
f 105 320 318
f 492 490 83
f 105 322 320
f 490 488 83
f 105 324 322
f 488 486 83
f 128 326 105
f 105 326 324
f 486 484 83
f 83 484 85
f 128 328 326
f 484 482 85
f 128 330 328
f 482 480 85
f 128 332 330
f 480 478 85
f 128 334 332
f 478 476 85
f 128 336 334
f 476 474 85
f 128 339 336
f 474 472 85
f 128 340 339
f 472 470 85
f 128 341 340
f 85 468 88
f 470 468 85
f 128 102 341
f 341 102 342
f 468 466 88
f 466 464 88
f 342 102 344
f 344 102 346
f 460 88 462
f 462 88 464
f 346 102 348
f 458 88 460
f 348 102 350
f 456 88 458
f 350 102 352
f 454 88 456
f 352 102 354
f 452 88 454
f 354 102 356
f 452 93 88
f 450 93 452
f 356 102 358
f 448 93 450
f 358 102 360
f 446 93 448
f 360 98 362
f 102 98 360
f 444 93 446
f 362 98 364
f 442 93 444
f 364 98 366
f 440 93 442
f 366 98 369
f 440 90 93
f 438 90 440
f 369 98 370
f 436 90 438
f 370 98 372
f 434 90 436
f 372 98 374
f 432 90 434
f 374 98 376
f 430 90 432
f 376 98 378
f 428 90 430
f 378 98 380
f 426 90 428
f 98 97 380
f 380 97 382
f 424 90 426
f 382 97 384
f 424 92 90
f 422 92 424
f 384 97 386
f 420 92 422
f 386 97 388
f 418 92 420
f 388 97 390
f 416 92 418
f 390 97 392
f 414 92 416
f 392 97 394
f 394 97 396
f 410 92 412
f 412 92 414
f 97 92 396
f 396 92 399
f 408 92 410
f 399 92 400
f 406 92 408
f 400 92 402
f 404 92 406
f 402 92 404
f 351 345 347
f 351 347 349
f 327 329 331
f 327 331 333
f 361 357 359
f 365 361 363
f 379 375 377
f 555 557 559
f 555 559 310
f 553 555 310
f 383 379 381
f 389 379 383
f 389 383 385
f 389 385 387
f 389 375 379
f 391 368 371
f 391 371 373
f 391 373 375
f 391 375 389
f 543 545 547
f 543 547 549
f 541 549 551
f 541 543 549
f 397 391 393
f 397 393 395
f 398 391 397
f 534 535 537
f 533 537 539
f 533 534 537
f 405 391 398
f 405 398 401
f 405 401 403
f 531 533 539
f 531 539 541
f 531 541 551
f 407 391 405
f 411 407 409
f 525 527 529
f 523 525 529
f 415 411 413
f 415 407 411
f 417 407 415
f 519 521 523
f 519 529 531
f 519 523 529
f 421 417 419
f 421 407 417
f 423 368 391
f 423 333 335
f 423 335 337
f 423 337 338
f 423 338 343
f 423 343 345
f 423 351 353
f 423 353 355
f 423 355 357
f 423 365 367
f 423 367 368
f 423 345 351
f 423 357 361
f 423 361 365
f 423 407 421
f 423 391 407
f 513 515 517
f 513 517 519
f 513 519 531
f 429 425 427
f 507 511 513
f 507 509 511
f 431 425 429
f 431 333 423
f 431 423 425
f 503 505 507
f 435 431 433
f 501 503 507
f 437 431 435
f 497 499 501
f 495 497 501
f 443 431 437
f 443 437 439
f 443 439 441
f 445 431 443
f 447 310 311
f 447 311 313
f 447 313 315
f 447 315 317
f 447 317 319
f 447 319 321
f 447 321 323
f 447 323 325
f 447 325 327
f 447 431 445
f 447 327 333
f 447 553 310
f 447 333 431
f 487 489 491
f 487 491 493
f 451 447 449
f 453 447 451
f 483 485 487
f 481 483 487
f 479 481 487
f 479 487 493
f 479 493 495
f 459 551 553
f 459 447 453
f 459 553 447
f 459 453 455
f 459 455 457
f 475 479 495
f 475 477 479
f 465 461 463
f 471 495 501
f 471 475 495
f 471 473 475
f 471 507 513
f 471 501 507
f 469 531 551
f 469 551 459
f 469 461 465
f 469 471 513
f 469 459 461
f 469 465 467
f 469 513 531
