# Render LOD; unchanged CAD body-local coordinates in mm
v 158.0827401 297.6940613 123.4999837
v 158.0979198 297.6826583 124.4459047
v 157.5414454 297.9112173 123.4999836
v 157.4734941 297.9049909 124.4954806
v 157.2137522 297.9018376 124.5146149
v 156.9949640 297.8526021 123.4999834
v 156.7734515 297.7595759 124.5485705
v 156.5706218 297.6200524 123.4999837
v 156.4896650 297.5340785 124.5722704
v 156.2854360 297.2572014 123.4999837
v 156.1490432 296.8479523 123.4999834
v 156.1592865 296.9193389 124.6238446
v 156.1780524 296.3559989 123.4999838
v 156.3687729 295.9589841 123.4999834
v 156.6681550 295.6583097 123.4999835
v 156.5059447 295.7966974 124.5986361
v 156.3733854 295.9478453 124.6929434
v 156.5052195 295.8034603 124.1596271
v 156.7328854 295.6194886 124.1811228
v 157.2069682 295.4398853 123.4999840
v 156.7850047 295.5928035 124.6261954
v 156.7656472 295.5951399 124.7303548
v 157.1251491 295.4672974 124.7608590
v 157.1134115 295.4659990 124.2072473
v 157.7857446 295.5054912 123.4999830
v 157.5255667 295.4432836 124.7892881
v 158.1080017 295.6819653 123.4999837
v 157.8739088 295.5460600 124.8129563
v 158.0261152 295.6249741 124.2755602
v 158.3726018 295.9379649 123.4999832
v 158.3493937 295.9161586 124.8566333
v 158.2916633 295.8368352 124.3001530
v 158.4619138 296.0822729 124.7624743
v 158.5396938 296.2644808 123.4999837
v 158.6148170 296.6251762 123.4999835
v 158.5332665 296.2260986 124.8837457
v 158.6130442 296.5487282 124.7970812
v 158.6108892 296.5472524 124.3535770
v 158.5371251 297.1121022 123.4999840
v 158.5888867 296.9038299 124.9309072
v 158.5928489 296.8892361 124.3800415
v 158.4945726 297.2040423 124.9547338
v 158.3463220 297.4377198 123.4999836
v 158.3452872 297.4389908 124.4233983
v 158.2502835 297.5528076 124.9823367
v 158.0737878 297.6931800 124.8929328
v 157.7399861 297.8597410 124.9168727
v 157.2350692 297.9083305 124.9530434
v 157.3960912 297.9097379 125.0504797
v 156.9901128 297.8574225 125.0789920
v 156.4805174 297.5378908 125.1239264
v 156.2556600 296.1363324 125.1205926
v 156.1486042 296.5286884 125.1984745
v 156.5639790 295.7427149 125.1549475
v 156.3715930 295.9545087 125.2421715
v 156.7103722 295.6253661 125.2756802
v 157.2037590 295.4498459 125.3124529
v 157.7863061 295.5012559 125.2474801
v 157.4916778 295.4370868 125.3369123
v 158.2861130 295.8273936 125.2906286
v 157.9533175 295.5815220 125.3684171
v 158.4047715 295.9880968 125.4143547
v 158.6135255 296.6476885 125.3563478
v 158.5268585 297.1414757 125.3911657
v 158.5724512 296.9836203 125.4859155
v 158.2377725 297.5684672 125.4259076
v 158.4220621 297.3391989 125.5123549
v 158.1736109 297.6196287 125.5403716
v 157.6989095 297.8658856 125.4719576
v 157.6329825 297.8833524 125.5829790
v 157.3035338 297.9083308 125.6087313
v 157.0525874 297.8691497 125.5164527
v 156.8702732 297.8110656 125.6364634
v 156.6088178 297.6444952 125.6598012
v 156.1663443 296.3883538 125.6515568
v 156.1448889 296.7904297 125.7333463
v 156.4394918 295.8575336 125.6933958
v 156.2339634 296.2013087 125.7751673
v 156.4264721 295.8874325 125.7990947
v 156.8411898 295.5601850 125.7293545
v 156.6637785 295.6561622 125.8249261
v 157.3187319 295.4333135 125.7691947
v 158.1004923 295.6643327 125.8238224
v 157.7114504 295.4850054 125.8999294
v 158.1631158 295.7121707 125.9377280
v 158.5844119 296.4013425 125.8892474
v 158.5170576 296.1804292 125.9767455
v 158.6151495 296.7804910 126.0234715
v 158.5203663 297.1418046 126.0481892
v 158.1206229 297.6629915 125.9868331
v 157.7747920 297.8463460 126.0147688
v 157.8065850 297.8389452 126.1195638
v 157.3837251 297.9121319 126.0427600
v 157.3574112 297.9118691 126.1541891
v 156.9230277 297.8312196 126.0760452
v 156.4490506 297.5034619 126.1198752
v 156.8621724 297.8081646 126.1856265
v 156.5535231 297.5930639 126.2155294
v 156.2078417 297.0808673 126.1513839
v 156.3400904 297.3505162 126.2408345
v 156.1542148 296.4854488 126.1934050
v 156.1429037 296.7665892 126.2816775
v 156.3163209 296.0252027 126.2292656
v 156.1911662 296.2995924 126.3138247
v 156.3338194 296.0124869 126.3381240
v 157.5243400 295.4405213 126.3289548
v 157.2198288 295.4416255 126.4175131
v 157.9965319 295.6051529 126.3633054
v 158.1562804 295.7069940 126.4836200
v 158.3633510 295.9301082 126.5060977
v 158.5880961 296.4174948 126.4367521
v 158.5508027 296.2869996 126.5373133
v 158.6067064 296.5741949 126.5589041
v 158.5926108 296.8896388 126.5786441
v 158.4493380 297.2990255 126.6098340
v 158.0514838 297.7153229 126.5442657
v 158.0918705 297.6872424 126.6454303
v 157.6467118 297.8807380 126.5738845
v 157.2929896 297.9094112 126.5993600
v 157.4654231 297.9067919 126.6944465
v 156.8851992 297.8104398 126.6311261
v 157.1430936 297.8948909 126.7152001
v 156.4884819 297.5460322 126.6622939
v 156.7117986 297.7185253 126.7526578
v 156.3479571 297.3744829 126.7887578
v 156.1427567 296.7383934 126.7278745
v 156.1659018 296.9283268 126.8201709
v 156.1704082 296.4007208 126.7500724
v 156.1475706 296.5332959 126.8502437
v 156.3647042 295.9525718 126.7880300
v 156.3102300 296.0357302 126.8838108
v 156.7433586 295.6127346 126.8210303
v 156.6345419 295.6855881 126.9213730
v 157.0890456 295.4749836 126.8486155
v 157.3797285 295.4384533 126.8682842
v 157.1034606 295.4621291 126.9579258
v 157.8680350 295.5330991 126.9032798
v 157.5954600 295.4580396 126.9935408
v 158.2746389 295.8249933 126.9393498
v 158.4078414 295.9927770 127.0650824
v 158.6096616 296.7792904 127.0143747
v 158.6071129 296.5532706 127.1069933
v 158.5864839 296.9203229 127.1313932
v 158.4045014 297.3631758 127.0572787
v 158.0748224 297.7013757 127.0954479
v 158.2676056 297.5329651 127.1832899
v 157.9734494 297.7571924 127.2090874
v 157.6504538 297.8795616 127.2312606
v 157.2316689 297.9077881 127.2610543
v 156.7673876 297.7467534 127.1895987
v 156.5243376 297.5719447 127.2097477
v 156.7757456 297.7566935 127.2971574
v 156.2390906 297.1784420 127.2435506
v 156.3935378 297.4373035 127.3328782
v 156.1395307 296.6881994 127.2795711
v 156.1791321 296.9862254 127.3678717
v 156.3232673 296.0143727 127.3337048
v 156.1465016 296.4928983 127.3986556
v 156.2460842 296.1787121 127.4248396
v 156.7631910 295.5935863 127.3748398
v 157.2230443 295.4480085 127.4062215
v 156.9326644 295.5208111 127.4964880
v 157.6225988 295.4563342 127.5453551
v 158.2382010 295.7787615 127.4845748
v 158.1687574 295.7170834 127.5845470
v 158.5158297 296.1939910 127.5205663
v 158.4728988 296.1029694 127.6230665
v 158.6063642 296.5683172 127.5486037
v 158.5832885 296.4104499 127.6449913
v 158.5950791 296.9069180 127.5714946
v 158.6095238 296.7193341 127.6694045
v 158.4382795 297.3071870 127.6019766
v 158.5507672 297.0642223 127.6908089
v 158.3951226 297.3736540 127.7166291
v 157.9962829 297.7479661 127.6464883
v 158.1442544 297.6437186 127.7438414
v 157.3184162 297.9106958 127.6959933
v 157.5975127 297.8904971 127.7847850
v 157.2776040 297.9046699 127.8087084
v 156.7334015 297.7318893 127.7427565
v 156.9352107 297.8377507 127.8294301
v 156.4610565 297.5039530 127.7680663
v 156.2679244 297.2385244 127.7935592
v 156.4442464 297.4985468 127.8772935
v 156.1423436 296.7598083 127.8244872
v 156.2077469 297.0798352 127.9083934
v 156.2461889 296.1729339 127.8665961
v 156.1358420 296.5885818 127.9481479
v 156.2640456 296.1431134 127.9784027
v 156.4518363 295.8436645 128.0043898
v 156.9551408 295.5055764 128.0429947
v 157.4256422 295.4394105 128.0810766
v 157.9357125 295.5719617 128.0081766
v 158.2323286 295.7847225 128.0341830
v 158.4469160 296.0457210 128.1659124
v 158.6165151 296.6100219 128.1030067
v 158.5876774 296.4342846 128.1977976
v 158.6068917 296.7818277 128.2215048
v 158.3954912 297.3824548 128.1617612
v 158.5221942 297.1414112 128.2469470
v 158.3566465 297.4241170 128.2709143
v 158.0453033 297.7182202 128.1931816
v 158.1072965 297.6751357 128.2958080
v 157.7106367 297.8631025 128.2187052
v 157.7192945 297.8640253 128.3267972
v 157.3180251 297.9154951 128.2466586
v 157.2816456 297.9124385 128.3571206
v 156.9534234 297.8335502 128.3837984
v 156.5822418 297.6236303 128.3036665
v 156.6537126 297.6790119 128.4055239
v 156.3221523 297.3223671 128.3322630
v 156.3401033 297.3581865 128.4372199
v 156.1806625 296.9855073 128.3581881
v 156.1405971 296.6218263 128.3842310
v 156.2121422 296.2623680 128.4102140
v 156.1558030 296.4507328 128.5068628
v 156.3824195 295.9390774 128.4362471
v 156.3293916 296.0171432 128.5374307
v 156.6685210 295.6610280 128.4644533
v 156.6320185 295.6824044 128.5690932
v 157.0691723 295.4745282 128.4951186
v 157.8575633 295.5285570 128.5522464
v 157.5045084 295.4467894 128.6362302
v 157.8626882 295.5377889 128.6611647
v 158.2305577 295.7831942 128.5855617
v 158.4492413 296.0518048 128.7157510
v 158.5985433 296.4862074 128.7499981
v 158.6060820 296.7785416 128.6634545
v 158.5408238 297.0868831 128.6866546
v 158.5989241 296.8519109 128.7765467
v 158.3783145 297.3995536 128.7111404
v 158.4919606 297.2090497 128.8025564
v 157.4996628 294.4231890 123.4999836
v 158.1555546 294.5705430 123.4999836
v 158.6525250 294.8234263 123.4999835
v 156.6153581 294.5520820 123.4999837
v 158.9609791 295.0907501 123.4999836
v 159.2791691 295.4642108 123.4999836
v 155.8507282 295.0141131 123.4999837
v 159.6001844 296.2981935 123.4999837
v 155.3253353 295.7370097 123.4999836
v 159.5720583 297.1914973 123.4999836
v 155.1219118 296.6073195 123.4999837
v 159.1994802 298.0034503 123.4999836
v 155.2722829 297.4878445 123.4999836
v 158.5406296 298.6072102 123.4999836
v 155.7529872 298.2411930 123.4999837
v 156.2905253 298.6396316 123.4999836
v 157.8077880 298.8826699 123.4999837
v 156.7548141 298.8341597 123.4999837
v 157.2502350 298.9162179 123.4999837
v 158.9609791 295.0907501 121.6739737
v 158.7846792 294.9341480 121.5840571
v 158.3296492 294.6434769 121.6179796
v 157.8661068 294.4936059 121.5593941
v 157.6302388 294.4512397 121.5914113
v 156.8598643 294.4917488 121.6485965
v 156.4261911 294.6441292 121.6257304
v 156.1024586 294.8361837 121.5849492
v 155.8863768 295.0070203 121.5882799
v 155.2107868 297.2573051 121.6255708
v 155.3148377 297.5469665 121.6059499
v 155.4797067 297.8691309 121.6075829
v 155.6946473 298.1526244 121.5960229
v 155.9854714 298.4337308 121.6163991
v 156.2660169 298.6197802 121.6149938
v 156.5614000 298.7639291 121.6170004
v 157.0473867 298.8956236 121.6226477
v 157.9650242 298.8367327 121.5918143
v 158.6771668 298.4952421 121.5936441
v 159.2571129 297.8904638 121.6030751
v 159.4435208 297.5415545 121.6094369
v 159.6090286 296.8756732 121.6149549
v 159.6060254 296.4607925 121.5964060
v 159.1752644 295.3302062 121.6345831
v 158.9714420 295.1032651 121.6397698
v 158.8068418 295.2072266 121.3171080
v 158.7528370 294.9943371 121.4311798
v 158.5360503 295.0477314 121.2892347
v 158.3399334 294.6825609 121.5049160
v 158.3839453 294.8001416 121.3829566
v 158.4171979 295.1012295 121.2599566
v 158.0322237 294.7016465 121.3361899
v 157.9952558 294.8625699 121.2656730
v 157.8353756 294.6219499 121.3607844
v 157.4769719 294.6790243 121.2899878
v 157.5807250 294.5319467 121.4080509
v 157.2985151 294.4404263 121.5748273
v 156.9901431 294.4874648 121.5297518
v 157.1717558 294.5457551 121.3927984
v 156.7648278 294.6520560 121.3679401
v 156.6966027 294.5655742 121.5185346
v 156.9960747 294.7021670 121.2981918
v 156.4216229 294.7109638 121.4508556
v 157.0656954 294.8045060 121.2603067
v 156.5672969 294.8302557 121.3008431
v 156.2721004 294.9350264 121.3244052
v 156.0066655 294.9822775 121.4445241
v 156.3527827 295.0712423 121.2620306
v 155.7147178 295.1839935 121.5606975
v 155.8764909 295.1604659 121.3840345
v 155.4904866 295.4711565 121.5757709
v 155.5923433 295.4801664 121.4034474
v 155.9460545 295.3455708 121.2742163
v 155.8075031 295.3540094 121.3193631
v 155.3342682 295.7634287 121.5853947
v 155.4288236 295.7701742 121.4043082
v 155.2296303 296.0288299 121.6165673
v 155.4655601 295.9487352 121.3140013
v 155.2451348 296.1081864 121.4903013
v 155.6828174 295.7823957 121.2632548
v 155.1441176 296.5140128 121.5777306
v 155.2224246 296.4050175 121.4376649
v 155.3269912 296.2521207 121.3461023
v 155.4952532 296.3341330 121.2639128
v 155.1473048 296.8955407 121.6059143
v 155.2415195 296.7334251 121.3911497
v 155.1946147 296.9234493 121.4760611
v 155.3671384 296.7900678 121.2964708
v 155.2797301 297.3324794 121.4774054
v 155.3255162 297.2019118 121.3699770
v 155.5004554 297.1420174 121.2660300
v 155.4782043 297.5957665 121.3659235
v 155.4740511 297.7760138 121.4732011
v 155.6313995 297.6061866 121.2829766
v 155.7154573 297.9547738 121.3522667
v 155.7765153 298.1888825 121.4880908
v 156.0905085 298.4680292 121.4966773
v 155.9425403 298.1293564 121.3126225
v 156.0109707 298.3261687 121.3976582
v 156.0262021 298.0212023 121.2612892
v 156.3490328 298.3453718 121.2777754
v 156.4870650 298.6665130 121.4422207
v 156.3271285 298.4866155 121.3528382
v 156.6497808 298.5637128 121.3036031
v 156.8037968 298.8055287 121.4875102
v 157.0388966 298.7259520 121.3344774
v 156.9493895 298.5215773 121.2607995
v 157.2930832 298.8698581 121.4704670
v 157.5508243 298.9102244 121.6131097
v 157.6493332 298.8149190 121.4071054
v 157.6292787 298.6439858 121.2830479
v 158.0407018 298.7606494 121.4659902
v 157.8114004 298.7313757 121.3571009
v 158.4114048 298.6619408 121.5963492
v 158.2428659 298.5568563 121.3325447
v 158.0936695 298.4458178 121.2624190
v 158.4114994 298.6032118 121.4582388
v 158.7553023 298.3050263 121.3840898
v 158.8713623 298.3173860 121.5293051
v 158.9933110 298.2304598 121.6012315
v 158.6370997 298.2404426 121.2963669
v 159.0971124 298.0011974 121.4354868
v 158.9510458 297.9340325 121.2972101
v 159.3016338 297.7355393 121.4809453
v 159.2250347 297.6926076 121.3659115
v 159.2372187 297.4299471 121.2978855
v 159.4193128 297.4399268 121.4484839
v 159.5460944 297.2100778 121.5730012
v 159.3928480 297.2130995 121.3411374
v 158.8178175 297.9188989 121.2601820
v 159.2096730 297.1607380 121.2612874
v 159.5780204 296.6195886 121.4837633
v 159.5258397 297.0026319 121.4411357
v 159.4789513 296.6167784 121.3564074
v 159.3214967 296.7687978 121.2728285
v 159.4745999 296.2560388 121.3951876
v 159.3696763 296.3868434 121.3011619
v 159.5146262 296.1179406 121.4981280
v 159.5127629 295.9916715 121.6354608
v 159.2021229 296.1551472 121.2616078
v 159.3785134 295.6815889 121.5765138
v 159.3427174 295.7372242 121.4472862
v 159.3145921 295.9492812 121.3306559
v 159.1422688 295.3541777 121.4916288
v 159.1594014 295.6138635 121.3364626
v 159.0665038 295.3719913 121.3903093
v 159.0112153 295.6448043 121.2688501
v 157.6951759 295.4856218 121.2590000
v 156.5054850 295.8043777 121.2590000
v 158.5661251 296.3565415 121.2590000
v 156.1866749 296.9941217 121.2590000
v 158.2473150 297.5463539 121.2590000
v 157.0576241 297.8651098 121.2590000
v 157.6951759 295.4856218 122.6886472
v 156.5054850 295.8043777 122.6886472
v 158.5661251 296.3565415 122.6886472
v 158.2473150 297.5463539 122.6886472
v 157.0576241 297.8651098 122.6886472
v 156.1866749 296.9941217 122.6886472
v 158.2370343 297.5660776 128.8351991
v 157.6947456 297.8699934 128.7708431
v 157.9122798 297.7873736 128.8627393
v 157.6112503 297.8884980 128.8854388
v 157.2732281 297.9115567 128.8022686
v 156.9067040 297.8153831 128.8266443
v 156.6290007 297.6630641 128.8517470
v 156.3476483 297.3695606 128.9890940
v 156.1592718 296.9068330 128.9105070
v 156.1432183 296.8357022 129.0269913
v 156.1659906 296.4115772 128.9476528
v 156.3321534 296.0129102 128.9812946
v 156.1911755 296.3156657 129.0641772
v 156.5460932 295.7628857 129.0042919
v 156.3905037 295.9285174 129.0954640
v 156.8489915 295.5544217 129.0280483
v 156.6697602 295.6604211 129.1226029
v 157.0437130 295.4840057 129.1530091
v 157.5699162 295.4516466 129.0808686
v 157.4274488 295.4373703 129.1742246
v 158.0293496 295.6200080 129.1185380
v 157.9848965 295.5908383 129.1710841
v 158.4684915 296.0960655 129.1663848
v 156.6890070 295.9839272 124.3802867
v 157.4451761 295.4439207 124.2318926
v 157.0459260 295.7494613 124.4169715
v 157.7450848 295.4977320 124.2535187
v 157.5410438 295.7137763 124.4634107
v 157.9102219 295.8576739 124.4991059
v 158.5026613 296.1724240 124.3278707
v 158.5016776 297.1805471 124.4015090
v 158.3470406 296.8140325 124.5984121
v 158.0934954 297.3549907 124.6524135
v 157.7690474 297.8451656 124.4735572
v 157.1863288 297.6284790 124.7392039
v 156.8807197 297.5179057 124.7669340
v 156.3105179 297.2960712 124.5929167
v 156.5281618 297.1587189 124.8183191
v 156.4044446 296.7630953 124.8530992
v 156.1730810 296.3746014 124.6587624
v 156.4507755 296.3703667 124.8908685
v 156.7405056 295.9438599 124.9358220
v 156.9689988 295.7877814 124.9607396
v 157.2345834 295.7165067 124.9854227
v 158.1332094 295.7012161 124.8346834
v 158.1582042 296.0987680 125.0820999
v 158.6077314 296.5996263 124.9091077
v 158.3225420 296.4257750 125.1101842
v 158.3078388 296.9803326 125.1652029
v 158.0998526 297.3234736 125.2017361
v 157.8995374 297.4940437 125.2217444
v 157.8054789 297.8399523 125.0201935
v 157.6090178 297.6283811 125.2523918
v 157.1352584 297.6167794 125.2972855
v 156.8710641 297.5059014 125.3192792
v 156.6654563 297.3351134 125.3454788
v 156.1780484 297.0071978 125.1639809
v 156.4816629 297.0678872 125.3717137
v 156.4049147 296.5979476 125.4199241
v 156.2286774 296.2253571 125.2248604
v 156.4741525 296.3178130 125.4455595
v 156.6123805 296.0703059 125.4715464
v 156.8101592 295.8866413 125.4958204
v 157.0264849 295.7716044 125.5159551
v 157.2973195 295.7020166 125.5411801
v 157.5768905 295.7256962 125.5651992
v 158.2068039 295.7647563 125.3915462
v 157.8500921 295.8233466 125.5946401
v 158.2045177 296.1559860 125.6336781
v 158.5680503 296.3449683 125.4398056
v 158.6098869 296.6720278 125.4641538
v 158.3485373 296.5942131 125.6784450
v 158.2843611 297.0454831 125.7205463
v 157.9239944 297.7800314 125.5619696
v 157.8335316 297.5324172 125.7824266
v 157.1778380 297.6312585 125.8414856
v 156.6352971 297.3055202 125.8972780
v 156.2761545 297.2547265 125.6952295
v 156.4930706 297.0820331 125.9251241
v 156.4149865 296.8254111 125.9455589
v 156.1604970 296.4740633 125.7534797
v 156.4144344 296.5198992 125.9769152
v 156.5027434 296.2530135 125.9985933
v 156.6578062 296.0169425 126.0277152
v 156.9809013 295.7830779 126.0616430
v 157.2359810 295.4399049 125.8644576
v 157.3705686 295.7007687 126.0997094
v 157.8666662 295.8391794 126.1446054
v 158.0614090 295.9854785 126.1646788
v 158.2201447 296.1924823 126.1924060
v 158.3488162 296.7044407 126.2361414
v 158.3070883 296.9565230 126.2632100
v 158.3718540 297.4039200 126.0693893
v 158.1867783 297.2213159 126.2874983
v 158.1585100 297.6305030 126.0915322
v 157.9417578 297.4671728 126.3188924
v 157.6442600 297.6158646 126.3492749
v 157.7439331 295.7701991 128.3318432
v 157.2187354 297.6338121 126.3878340
v 156.5470932 297.1804681 126.4611324
v 156.7833949 297.4570084 126.4327639
v 156.2027092 297.0524975 126.2623220
v 156.4202033 296.8682800 126.4931447
v 156.4351118 296.4120468 126.5377985
v 156.6773645 295.6470013 126.3727124
v 156.7046891 295.9700480 126.5814105
v 157.2160551 295.7167956 126.6314383
v 156.9607035 295.7948725 126.6116049
v 157.4503945 295.7093083 126.6546398
v 157.7370039 295.4923086 126.4516062
v 157.6897959 295.7561551 126.6786526
v 157.9243028 295.8730537 126.7023096
v 158.2688049 296.2853249 126.7467164
v 158.3484417 296.6110335 126.7813044
v 158.2767658 297.0535184 126.8203317
v 158.1159649 297.3011555 126.8470155
v 157.7644852 297.8462924 126.6733845
v 157.8903439 297.5075649 126.8745273
v 157.4848564 297.6451891 126.9131918
v 156.8719427 297.5057851 126.9691127
v 157.1043214 297.6133740 126.9476546
v 156.6811767 297.3523694 126.9913386
v 156.4369211 296.9241886 127.0397083
v 156.4445933 296.3971392 127.0840414
v 156.5600177 296.1394854 127.1112981
v 156.7547301 295.9311739 127.1393303
v 156.9604389 295.7942871 127.1569743
v 157.2439247 295.7132433 127.1876374
v 157.5049430 295.7134461 127.2078695
v 157.7485999 295.7743425 127.2295636
v 158.0715172 295.6444304 127.0267781
v 158.0022267 295.9323362 127.2610699
v 158.1748064 296.1255367 127.2825814
v 158.5408437 296.2720409 127.0848611
v 158.2960738 296.3631053 127.3084208
v 158.3485457 296.6358023 127.3295793
v 158.3201689 296.9053864 127.3581987
v 158.4750723 297.2403250 127.1546821
v 158.0541575 297.3711472 127.4036948
v 158.2114305 297.1749752 127.3846493
v 157.5959035 297.6269894 127.4530004
v 157.2024671 297.6369043 127.4881296
v 156.8345199 297.4849293 127.5219731
v 156.5519112 297.1978005 127.5610891
v 156.4128848 296.8131966 127.5977903
v 156.7267190 295.9478151 127.6858153
v 156.4714384 296.3064434 127.6476214
v 156.5185123 295.7749542 127.4620368
v 157.2712340 295.4465513 127.5193658
v 157.1385332 295.7247073 127.7230982
v 157.5565791 295.7222539 127.7642426
v 158.0252332 295.9516718 127.8138446
v 158.1953014 296.1507379 127.8334568
v 158.3115082 296.4025777 127.8629306
v 158.3488172 296.7550875 127.8923938
v 158.0179358 297.4016845 127.9597151
v 158.2121125 297.1837201 127.9330541
v 157.9038588 297.7903448 127.7627558
v 157.8182468 297.5397313 127.9829639
v 157.5567590 297.6331114 128.0086006
v 157.2761951 297.6404427 128.0331810
v 156.7722044 297.4341035 128.0814570
v 156.9865761 297.5708347 128.0586163
v 156.5968286 297.2503959 128.1045862
v 156.4585799 297.0031554 128.1325839
v 156.4220908 296.5068520 128.1752446
v 156.4988999 296.2588298 128.2008768
v 156.6493587 296.0339054 128.2235881
v 157.1081663 295.7398457 128.2754488
v 157.7244403 295.4930415 128.1020812
v 157.4086303 295.7025402 128.3006028
v 156.3096119 297.2993416 126.6866059
v 156.1960043 297.0297171 126.7058256
v 158.1174808 296.0464959 126.7260920
v 158.5403933 296.2386802 126.9784089
v 158.5197899 297.1424704 127.0407545
v 157.7318851 297.8566544 127.1185648
v 157.4177186 297.9097421 127.1425353
v 157.0594567 297.8706653 127.1680814
v 156.5325189 297.1530716 127.0153766
v 156.4049101 296.6506321 127.0644821
v 156.1954815 296.3140440 127.3081915
v 157.5498172 295.4548867 127.4315729
v 157.8318089 295.5255230 127.4534093
v 158.2547653 297.5405098 127.6253339
v 157.8609394 297.5159084 127.4290517
v 157.6557518 297.8770538 127.6751327
v 157.0045018 297.8504974 127.7212715
v 156.1539513 296.5122210 127.8430174
v 156.5154420 295.7781070 127.9027797
v 156.9610825 295.5105988 127.9399892
v 157.4410283 295.4334067 127.9718070
v 157.8160602 295.8111746 127.7890487
v 158.4693372 296.0917575 128.0655123
v 158.5601854 297.0258157 128.1321927
v 156.8994137 297.8144808 128.2793908
v 156.4098159 296.7597056 128.1544848
v 156.8514092 295.8602455 128.2476806
v 157.4082903 295.4420136 128.5211344
v 157.0748953 295.4785545 124.6483716
v 157.4339546 295.4359206 124.6770780
v 157.7980393 295.5158799 124.7003658
v 158.1576146 295.7111807 124.7310556
v 158.1918620 296.1378310 124.5356524
v 158.3298191 296.4847994 124.5706078
v 158.5905596 296.8955645 124.8226000
v 158.4820109 297.2293558 124.8493915
v 158.3014892 297.4925112 124.8707240
v 157.5892271 297.6313776 124.7054512
v 156.7986885 297.7687489 124.9881296
v 156.4220349 297.4724418 125.0230622
v 156.1586700 296.9264904 125.0681208
v 156.1450934 296.5900152 125.0887210
v 156.5755206 296.1260959 124.9151898
v 156.9796002 295.4969140 125.1927721
v 157.4860809 295.4441601 125.2282184
v 157.5894563 295.7219300 125.0151863
v 157.9416407 295.8821272 125.0546893
v 158.5399118 296.2565464 125.3278599
v 157.9733712 297.7547114 125.4503602
v 157.3953229 297.9107224 125.4939173
v 156.6141737 297.6577346 125.5548312
v 156.2400435 297.1800902 125.5989298
v 156.1549266 296.8506357 125.6196602
v 157.6435913 295.4699758 125.7900662
v 158.4237811 296.0179735 125.8588930
v 158.6024447 296.8664869 125.9182543
v 158.4078146 297.3615868 125.9574824
v 158.0493620 297.3758904 125.7579712
v 157.5570999 297.6316693 125.8089809
v 156.8332800 297.4815432 125.8770883
v 156.1497702 296.7950968 126.1733561
v 156.7453961 295.6040112 126.2764774
v 157.0605664 295.4823195 126.2971432
v 157.6402828 295.7407217 126.1238350
v 158.3633196 295.9189360 126.4011878
v 158.3185543 296.4454581 126.2153047
v 158.5979475 296.8906715 126.4728926
v 158.3914250 297.3881610 126.5132455
v 157.1923107 295.4555101 129.0553207
v 157.6355392 295.7366586 128.8707332
v 158.0574660 295.9648678 128.9144451
v 158.3479783 296.5107596 128.9702243
v 158.5850861 296.4594358 129.1818237
v 158.2997299 296.9801729 129.0124193
v 158.1557028 297.2596207 129.0411453
v 158.5641193 296.9000438 129.1984163
v 158.3539544 297.3615796 129.2164489
v 157.5407676 297.6360824 129.1074337
v 157.1137336 297.6221886 129.1455306
v 157.1432708 297.7899087 129.2737268
v 156.7396287 297.4119753 129.1848717
v 156.4070434 296.7793102 129.2500691
v 157.9666082 297.6836917 129.2394203
v 156.4548443 296.3403300 129.2904928
v 156.3854643 296.3244866 129.3545483
v 156.6975107 295.9765290 129.3295727
v 156.8687217 295.7928566 129.3891089
v 157.2482243 295.7086888 129.3857691
v 157.6587463 295.7404177 129.4245018
v 157.2942027 295.6750273 129.4090455
v 158.0858668 296.0047000 128.3689650
v 158.3343074 296.4522215 128.4148666
v 158.4261213 296.0269171 128.6078962
v 158.5828653 296.3853688 128.6367157
v 158.2931586 297.0263537 128.4672829
v 158.0529933 297.3740161 128.5052641
v 158.0917473 297.6873412 128.7404435
v 157.6954940 297.6040678 128.5436948
v 157.1296006 297.6250780 128.5973145
v 156.6238400 297.3096655 128.6488553
v 156.3265052 297.3330972 128.8822103
v 156.3964687 296.7612334 128.7024322
v 156.6152585 296.0699112 128.7689097
v 156.9034256 295.8228264 128.8034180
v 157.2867840 295.7014341 128.8394482
v 158.0886552 297.2352419 129.5000262
v 157.3645136 295.7603970 129.5000679
v 156.9314712 295.8842686 129.5000146
v 158.2495876 296.9212725 129.5000248
v 158.2732483 296.5314090 129.5000220
v 158.1046755 296.1311459 129.5000594
v 158.3390741 295.8915870 129.1563806
v 157.8323526 295.8916926 129.5000484
v 156.5794004 296.0122914 129.3716601
v 156.6160643 296.1707999 129.5000497
v 156.4784438 296.5511064 129.5000102
v 156.3070482 296.6779936 129.3380064
v 156.3903915 297.1540749 129.3163127
v 156.5077527 296.9479990 129.5000571
v 156.7488276 297.3349299 129.5000350
v 156.7063583 297.5661808 129.2955373
v 157.0864994 297.5337804 129.5000216
v 157.4673224 297.5832403 129.5001281
v 157.5817433 297.8079967 129.2552638
v 157.8525264 297.4489269 129.5000412
v 156.1685552 296.9413842 128.4757871
v 156.4515989 296.3732391 128.7374552
v 157.1045044 295.4665573 128.6068982
v 158.1815357 295.7384530 128.6892029
v 157.9016766 297.4971861 129.0721435
v 157.2955862 297.9063450 128.9068847
v 156.9405195 297.8347425 128.9316591
v 156.6268824 297.6553817 128.9576870
v 156.5009772 297.1094982 129.2203346
v 156.9728812 295.7900716 129.3594355
v 158.0770167 295.6518592 128.1296510
f 424 2 1
f 424 1 3
f 4 424 3
f 5 4 3
f 5 3 6
f 7 5 6
f 7 6 8
f 9 7 8
f 9 8 10
f 427 9 10
f 12 427 10
f 12 10 11
f 430 12 11
f 430 11 13
f 17 13 14
f 17 430 13
f 18 17 14
f 18 14 15
f 16 17 18
f 22 17 16
f 19 18 15
f 19 15 20
f 24 19 20
f 23 22 590
f 26 23 591
f 415 24 20
f 415 20 25
f 417 415 25
f 28 26 592
f 29 417 25
f 29 25 27
f 435 28 593
f 32 29 27
f 32 27 30
f 31 435 593
f 36 31 33
f 420 32 30
f 420 30 34
f 38 420 34
f 38 34 35
f 437 36 37
f 40 437 37
f 41 38 35
f 41 35 39
f 42 40 596
f 421 41 39
f 44 39 43
f 44 421 39
f 45 42 597
f 2 44 43
f 2 43 1
f 16 21 22
f 21 590 22
f 590 591 23
f 591 592 26
f 592 593 28
f 593 33 31
f 33 37 36
f 37 596 40
f 596 597 42
f 597 598 45
f 46 45 598
f 442 45 46
f 442 46 47
f 49 442 47
f 49 47 48
f 50 49 48
f 600 50 48
f 51 50 600
f 601 51 600
f 447 51 601
f 602 447 601
f 53 447 602
f 603 53 602
f 52 53 603
f 450 53 52
f 55 450 52
f 54 55 52
f 56 55 54
f 605 56 54
f 57 56 605
f 59 57 605
f 606 59 605
f 58 59 606
f 61 59 58
f 60 61 58
f 457 61 60
f 62 457 60
f 609 62 60
f 460 62 609
f 63 460 609
f 461 460 63
f 65 461 63
f 64 65 63
f 67 65 64
f 66 67 64
f 68 67 66
f 610 68 66
f 464 68 610
f 69 464 610
f 70 464 69
f 611 70 69
f 71 70 611
f 72 71 611
f 73 71 72
f 612 73 72
f 74 73 612
f 468 74 612
f 613 468 612
f 76 468 613
f 614 76 613
f 75 76 614
f 471 76 75
f 78 471 75
f 77 78 75
f 79 78 77
f 81 79 77
f 80 81 77
f 476 81 80
f 82 476 80
f 84 476 82
f 615 84 82
f 83 84 615
f 85 84 83
f 616 85 83
f 87 85 616
f 86 87 616
f 88 87 86
f 617 88 86
f 89 88 617
f 618 89 617
f 483 89 618
f 485 483 618
f 485 618 90
f 92 485 90
f 91 92 90
f 93 92 91
f 94 92 93
f 95 94 93
f 97 94 95
f 97 95 96
f 98 97 96
f 100 98 96
f 99 100 96
f 492 100 99
f 102 492 99
f 622 102 99
f 101 102 622
f 104 102 101
f 103 104 101
f 105 104 103
f 495 105 103
f 623 495 103
f 107 495 623
f 624 107 623
f 106 107 624
f 500 107 106
f 108 500 106
f 109 500 108
f 626 109 108
f 110 109 626
f 112 110 626
f 111 112 626
f 113 112 111
f 628 113 111
f 114 113 628
f 115 114 628
f 629 115 628
f 117 115 629
f 117 629 116
f 507 117 116
f 118 507 116
f 120 507 118
f 119 120 118
f 122 120 119
f 121 122 119
f 124 122 121
f 123 124 121
f 125 124 123
f 562 125 123
f 563 125 562
f 127 125 563
f 126 127 563
f 129 127 126
f 128 129 126
f 131 129 128
f 130 131 128
f 133 131 130
f 132 133 130
f 136 133 132
f 134 136 132
f 135 136 134
f 138 136 135
f 137 138 135
f 521 138 137
f 139 521 137
f 140 521 139
f 565 140 139
f 524 140 565
f 142 524 565
f 141 142 565
f 143 142 141
f 143 141 566
f 528 143 566
f 144 528 566
f 146 528 144
f 145 146 144
f 147 146 145
f 567 147 145
f 148 147 567
f 568 148 567
f 149 148 568
f 569 149 568
f 152 149 569
f 150 152 569
f 151 152 150
f 154 152 151
f 153 154 151
f 156 154 153
f 155 156 153
f 158 156 155
f 572 158 155
f 157 158 572
f 159 158 157
f 538 159 157
f 160 538 157
f 162 538 160
f 161 162 160
f 539 162 161
f 163 539 161
f 573 163 161
f 574 163 573
f 165 163 574
f 164 165 574
f 167 165 164
f 166 167 164
f 169 167 166
f 168 169 166
f 171 169 168
f 170 171 168
f 173 171 170
f 173 170 172
f 174 173 172
f 575 174 172
f 176 174 575
f 175 176 575
f 548 176 175
f 577 548 175
f 178 548 577
f 177 178 577
f 179 178 177
f 181 179 177
f 578 181 177
f 180 181 578
f 184 181 180
f 182 184 180
f 183 184 182
f 186 184 183
f 185 186 183
f 188 186 185
f 579 188 185
f 187 188 579
f 189 188 187
f 190 189 187
f 580 190 187
f 191 190 580
f 581 191 580
f 582 191 581
f 192 191 582
f 560 192 582
f 193 560 582
f 697 560 193
f 194 697 193
f 195 697 194
f 584 195 194
f 197 195 584
f 196 197 584
f 198 197 196
f 585 198 196
f 200 198 585
f 199 200 585
f 201 200 199
f 203 201 199
f 202 203 199
f 205 203 202
f 204 205 202
f 206 205 204
f 207 205 206
f 586 207 206
f 208 207 586
f 210 208 586
f 209 210 586
f 212 210 209
f 211 212 209
f 213 212 211
f 687 212 213
f 214 687 213
f 216 687 214
f 215 216 214
f 218 216 215
f 217 218 215
f 220 218 217
f 219 220 217
f 221 220 219
f 689 220 221
f 589 689 221
f 223 689 589
f 222 223 589
f 224 223 222
f 690 224 222
f 225 690 222
f 226 690 225
f 654 226 225
f 655 226 654
f 227 226 655
f 228 227 655
f 230 227 228
f 229 230 228
f 232 230 229
f 231 232 229
f 391 232 231
f 391 231 658
f 233 20 236
f 233 25 20
f 234 25 233
f 20 15 236
f 235 25 234
f 236 15 239
f 235 27 25
f 237 30 235
f 235 30 27
f 238 30 237
f 15 14 239
f 239 14 241
f 14 13 241
f 238 34 30
f 240 34 238
f 241 13 243
f 240 35 34
f 13 11 243
f 240 242 35
f 35 242 39
f 11 245 243
f 10 245 11
f 242 244 39
f 39 244 43
f 10 247 245
f 8 247 10
f 43 244 1
f 244 246 1
f 8 248 247
f 6 248 8
f 1 246 3
f 6 250 248
f 246 249 3
f 6 251 250
f 3 251 6
f 249 251 3
f 253 252 237
f 253 237 235
f 254 253 235
f 254 235 234
f 255 254 234
f 255 234 233
f 256 255 233
f 288 256 233
f 257 288 233
f 257 233 236
f 258 257 236
f 259 236 239
f 259 258 236
f 260 259 239
f 300 260 239
f 302 300 239
f 302 239 241
f 306 302 241
f 308 306 241
f 308 241 243
f 312 308 243
f 316 312 243
f 261 316 243
f 261 243 245
f 262 261 245
f 263 262 245
f 263 245 247
f 264 263 247
f 265 264 247
f 265 247 248
f 266 265 248
f 267 266 248
f 267 248 250
f 268 267 250
f 268 250 251
f 340 268 251
f 340 251 249
f 269 340 249
f 269 249 246
f 345 269 246
f 270 345 246
f 351 270 246
f 351 246 244
f 271 351 244
f 272 271 244
f 272 244 242
f 359 272 242
f 273 359 242
f 273 242 240
f 274 273 240
f 370 274 240
f 370 240 238
f 372 370 238
f 275 372 238
f 275 238 237
f 252 275 237
f 252 252 237
f 252 252 237
f 276 275 252
f 276 252 252
f 276 252 252
f 253 276 252
f 280 253 254
f 280 278 253
f 281 277 278
f 279 277 281
f 281 278 280
f 283 279 281
f 255 280 254
f 283 281 280
f 282 279 284
f 283 280 255
f 284 279 283
f 285 283 255
f 287 285 255
f 287 255 256
f 286 283 285
f 288 287 256
f 286 284 283
f 286 285 287
f 295 282 284
f 290 287 288
f 289 288 257
f 295 284 286
f 289 290 288
f 290 286 287
f 293 286 290
f 292 289 257
f 291 290 289
f 292 291 289
f 292 257 258
f 295 286 293
f 293 290 291
f 294 291 292
f 294 292 258
f 296 293 291
f 259 294 258
f 297 291 294
f 295 293 296
f 296 291 297
f 298 294 259
f 299 295 296
f 298 297 294
f 260 298 259
f 297 299 296
f 301 297 298
f 300 298 260
f 301 298 300
f 305 297 301
f 304 299 297
f 304 297 305
f 303 301 300
f 303 300 302
f 311 299 304
f 305 301 303
f 307 303 302
f 311 304 305
f 307 302 306
f 309 305 303
f 309 303 307
f 311 305 309
f 310 307 306
f 310 306 308
f 314 307 310
f 309 307 314
f 310 308 312
f 312 313 310
f 313 314 310
f 315 311 309
f 315 309 314
f 317 314 313
f 317 313 312
f 318 317 312
f 318 312 316
f 319 314 317
f 319 315 314
f 320 318 316
f 320 316 261
f 321 317 318
f 322 315 319
f 321 318 320
f 321 319 317
f 262 320 261
f 321 322 319
f 324 320 262
f 324 262 263
f 323 321 320
f 323 320 324
f 325 322 321
f 325 321 323
f 326 323 324
f 325 323 326
f 264 324 263
f 327 324 264
f 326 324 327
f 331 322 325
f 329 325 326
f 265 327 264
f 330 326 327
f 328 327 265
f 331 325 329
f 328 330 327
f 329 326 330
f 266 328 265
f 333 328 266
f 333 330 328
f 334 329 330
f 332 331 329
f 334 330 333
f 333 266 267
f 332 329 334
f 336 333 267
f 335 332 334
f 338 331 332
f 333 335 334
f 268 336 267
f 337 335 333
f 337 333 336
f 338 332 335
f 339 336 268
f 337 336 339
f 340 339 268
f 338 335 337
f 341 337 339
f 342 338 337
f 341 339 340
f 341 340 269
f 342 337 341
f 344 342 341
f 343 341 269
f 347 338 342
f 344 341 343
f 348 269 345
f 348 343 269
f 346 344 343
f 348 346 343
f 346 342 344
f 347 342 346
f 270 348 345
f 349 346 348
f 350 348 270
f 350 270 351
f 349 348 350
f 352 347 346
f 352 346 349
f 361 347 352
f 353 350 351
f 353 349 350
f 354 352 349
f 271 353 351
f 353 354 349
f 354 361 352
f 355 353 271
f 356 353 355
f 272 355 271
f 356 354 353
f 356 355 358
f 358 355 272
f 357 354 356
f 359 358 272
f 360 356 358
f 361 354 357
f 357 356 360
f 362 361 357
f 364 358 359
f 360 358 364
f 364 359 273
f 362 357 360
f 363 364 273
f 366 362 360
f 274 363 273
f 365 360 364
f 365 364 363
f 366 360 365
f 369 274 370
f 369 363 274
f 367 363 369
f 367 365 363
f 366 365 368
f 368 365 367
f 371 362 366
f 371 366 368
f 372 369 370
f 374 368 367
f 373 369 372
f 374 367 369
f 374 369 373
f 371 368 374
f 375 373 372
f 375 372 275
f 376 374 373
f 378 371 374
f 377 373 375
f 378 374 376
f 377 376 373
f 275 276 253
f 375 275 253
f 375 253 278
f 377 375 278
f 277 376 377
f 377 278 277
f 277 378 376
f 378 282 371
f 378 277 279
f 378 279 282
f 379 282 295
f 380 379 295
f 380 295 299
f 380 299 311
f 381 282 379
f 381 371 282
f 362 371 381
f 382 311 315
f 382 380 311
f 382 315 322
f 331 382 322
f 383 361 362
f 383 362 381
f 331 384 382
f 338 384 331
f 347 361 383
f 347 383 384
f 338 347 384
f 379 380 385
f 385 380 386
f 381 379 387
f 387 379 385
f 383 381 388
f 388 381 387
f 384 383 389
f 389 383 388
f 382 384 390
f 390 384 389
f 380 382 386
f 386 382 390
f 385 386 390
f 387 390 389
f 387 389 388
f 387 385 390
f 393 391 658
f 393 658 392
f 394 393 392
f 394 392 395
f 692 394 395
f 693 692 395
f 693 395 396
f 693 396 397
f 694 693 397
f 398 694 397
f 398 397 662
f 400 398 662
f 400 662 399
f 400 399 401
f 403 400 401
f 403 401 402
f 405 403 402
f 405 402 404
f 407 405 404
f 407 404 406
f 408 407 406
f 408 406 630
f 410 408 630
f 410 630 409
f 412 410 409
f 412 409 411
f 673 412 411
f 19 414 18
f 94 487 92
f 24 416 19
f 19 416 414
f 24 415 416
f 416 415 418
f 415 417 418
f 418 417 419
f 417 29 419
f 32 594 29
f 29 594 419
f 594 420 595
f 32 420 594
f 595 38 422
f 420 38 595
f 38 41 422
f 422 421 423
f 41 421 422
f 421 44 423
f 44 2 423
f 423 2 599
f 2 424 599
f 424 4 599
f 599 4 425
f 5 425 4
f 7 425 5
f 7 426 425
f 7 9 426
f 426 9 428
f 9 427 428
f 12 429 427
f 427 429 428
f 430 429 12
f 429 430 431
f 430 17 431
f 431 17 604
f 22 432 17
f 17 432 604
f 432 22 433
f 23 434 22
f 26 434 23
f 22 434 433
f 26 607 434
f 26 28 607
f 607 28 608
f 28 435 608
f 608 435 436
f 436 31 438
f 435 31 436
f 36 438 31
f 36 437 438
f 438 437 439
f 437 40 439
f 45 439 42
f 42 439 40
f 439 45 440
f 440 45 441
f 442 441 45
f 441 442 443
f 442 49 443
f 443 49 444
f 50 444 49
f 51 445 50
f 50 445 444
f 51 446 445
f 447 448 51
f 51 448 446
f 448 447 449
f 447 53 449
f 53 451 449
f 450 451 53
f 450 55 451
f 451 55 452
f 452 56 453
f 55 56 452
f 57 454 56
f 56 454 453
f 454 57 455
f 59 456 57
f 57 456 455
f 59 61 456
f 456 61 458
f 61 457 458
f 458 457 459
f 460 459 62
f 62 459 457
f 459 460 462
f 460 461 462
f 462 461 463
f 461 65 463
f 65 67 463
f 463 67 619
f 619 68 465
f 67 68 619
f 68 464 465
f 465 464 620
f 464 70 620
f 70 466 620
f 71 466 70
f 466 73 621
f 71 73 466
f 621 74 467
f 73 74 621
f 468 467 74
f 469 468 470
f 467 468 469
f 76 470 468
f 76 471 470
f 470 471 472
f 78 473 471
f 79 473 78
f 471 473 472
f 473 79 474
f 81 475 79
f 79 475 474
f 476 475 81
f 475 476 477
f 477 84 625
f 476 84 477
f 85 478 84
f 84 478 625
f 85 479 478
f 87 479 85
f 479 87 480
f 480 87 627
f 88 627 87
f 88 481 627
f 88 89 481
f 481 89 482
f 482 89 484
f 89 483 484
f 483 485 484
f 484 485 486
f 486 92 487
f 485 92 486
f 414 16 18
f 94 489 487
f 97 489 94
f 489 97 491
f 97 98 491
f 100 490 98
f 98 490 491
f 100 492 490
f 490 492 493
f 493 102 494
f 492 102 493
f 102 104 494
f 494 105 496
f 104 105 494
f 495 496 105
f 496 495 498
f 107 497 495
f 495 497 498
f 500 499 107
f 107 499 497
f 501 500 502
f 499 500 501
f 502 109 564
f 500 109 502
f 109 110 564
f 564 110 503
f 112 503 110
f 112 113 503
f 113 504 503
f 504 114 505
f 113 114 504
f 114 115 505
f 117 506 115
f 115 506 505
f 506 117 508
f 508 507 509
f 117 507 508
f 509 120 511
f 507 120 509
f 120 122 511
f 124 510 122
f 122 510 511
f 124 512 510
f 125 512 124
f 125 570 512
f 125 127 570
f 570 127 513
f 513 127 571
f 129 571 127
f 131 514 129
f 129 514 571
f 514 131 515
f 131 516 515
f 133 516 131
f 136 517 133
f 133 517 516
f 136 518 517
f 138 519 136
f 136 519 518
f 138 520 519
f 521 520 138
f 520 521 522
f 140 523 521
f 521 523 522
f 140 524 523
f 523 524 525
f 525 524 526
f 142 526 524
f 143 526 142
f 526 143 527
f 143 528 527
f 527 528 530
f 146 529 528
f 528 529 530
f 146 147 529
f 147 576 529
f 147 148 576
f 576 148 531
f 531 149 532
f 148 149 531
f 152 532 149
f 152 533 532
f 154 533 152
f 154 534 533
f 156 534 154
f 156 535 534
f 158 535 156
f 535 158 537
f 158 159 537
f 538 536 159
f 159 536 537
f 162 540 538
f 538 540 536
f 162 539 540
f 540 539 541
f 163 541 539
f 163 583 541
f 165 583 163
f 542 165 543
f 583 165 542
f 167 543 165
f 167 169 543
f 543 169 544
f 171 545 169
f 169 545 544
f 171 173 545
f 545 173 547
f 173 174 547
f 176 546 174
f 174 546 547
f 176 548 546
f 549 548 550
f 546 548 549
f 548 178 550
f 178 179 550
f 550 179 551
f 551 179 553
f 179 181 553
f 184 552 181
f 181 552 553
f 184 554 552
f 184 186 554
f 554 186 555
f 188 587 186
f 186 587 555
f 189 556 188
f 188 556 587
f 556 189 557
f 557 189 558
f 190 558 189
f 191 588 190
f 190 588 558
f 588 191 559
f 191 561 559
f 192 561 191
f 488 560 697
f 192 560 561
f 561 560 488
f 487 119 118
f 489 119 487
f 119 489 121
f 491 121 489
f 121 491 123
f 490 562 491
f 491 562 123
f 490 563 562
f 493 563 490
f 493 126 563
f 494 126 493
f 128 494 130
f 126 494 128
f 496 130 494
f 130 496 132
f 496 498 132
f 132 498 134
f 497 134 498
f 497 499 134
f 135 499 137
f 134 499 135
f 499 501 137
f 137 502 139
f 501 502 137
f 502 564 139
f 139 564 565
f 503 565 564
f 503 504 565
f 565 504 141
f 505 141 504
f 505 566 141
f 505 506 566
f 144 506 145
f 566 506 144
f 508 145 506
f 509 567 508
f 508 567 145
f 511 568 509
f 509 568 567
f 511 569 568
f 510 150 511
f 511 150 569
f 510 512 150
f 512 151 150
f 151 570 153
f 512 570 151
f 570 513 153
f 153 513 155
f 513 571 155
f 155 571 572
f 514 572 571
f 515 572 514
f 515 157 572
f 515 516 157
f 157 516 160
f 517 160 516
f 517 518 160
f 160 518 161
f 519 573 518
f 520 573 519
f 518 573 161
f 520 574 573
f 520 522 574
f 574 522 164
f 522 523 164
f 164 523 166
f 166 525 168
f 523 525 166
f 526 168 525
f 526 527 168
f 168 527 170
f 170 530 172
f 527 530 170
f 529 575 530
f 530 575 172
f 529 576 575
f 575 576 175
f 531 577 576
f 576 577 175
f 531 532 577
f 577 532 177
f 533 578 532
f 532 578 177
f 533 180 578
f 534 182 533
f 533 182 180
f 534 183 182
f 535 183 534
f 183 535 185
f 537 579 535
f 535 579 185
f 579 537 187
f 536 580 537
f 537 580 187
f 580 536 581
f 540 581 536
f 540 582 581
f 540 541 582
f 582 541 193
f 541 583 193
f 193 542 194
f 583 542 193
f 544 584 543
f 543 584 542
f 542 584 194
f 584 544 196
f 545 196 544
f 547 585 545
f 545 585 196
f 547 199 585
f 547 546 199
f 199 546 202
f 546 549 202
f 202 549 204
f 204 550 206
f 549 550 204
f 550 551 206
f 553 586 551
f 551 586 206
f 553 552 586
f 586 552 209
f 552 554 209
f 209 554 211
f 554 555 211
f 211 555 213
f 213 587 214
f 555 587 213
f 587 556 214
f 214 556 215
f 556 557 215
f 215 557 217
f 557 558 217
f 217 558 219
f 219 588 221
f 558 588 219
f 588 559 221
f 561 589 559
f 559 589 221
f 561 488 589
f 589 488 222
f 416 21 414
f 414 21 16
f 416 590 21
f 416 591 590
f 418 591 416
f 419 592 418
f 418 592 591
f 419 593 592
f 419 594 593
f 593 594 33
f 33 594 37
f 594 595 37
f 422 596 595
f 595 596 37
f 423 597 422
f 422 597 596
f 423 598 597
f 423 46 598
f 599 46 423
f 46 599 47
f 47 599 48
f 425 48 599
f 426 600 425
f 425 600 48
f 426 601 600
f 428 601 426
f 601 428 602
f 429 602 428
f 429 603 602
f 431 603 429
f 603 431 52
f 431 604 52
f 52 604 54
f 604 432 54
f 433 605 432
f 432 605 54
f 433 434 605
f 605 434 606
f 607 606 434
f 606 607 58
f 607 608 58
f 58 608 60
f 60 436 609
f 608 436 60
f 438 609 436
f 439 63 438
f 438 63 609
f 63 439 64
f 440 64 439
f 64 440 66
f 443 610 441
f 441 610 440
f 440 610 66
f 443 69 610
f 443 611 69
f 444 611 443
f 72 444 612
f 611 444 72
f 445 612 444
f 446 612 445
f 612 446 613
f 448 613 446
f 448 614 613
f 449 614 448
f 614 449 75
f 75 451 77
f 449 451 75
f 451 452 77
f 452 453 77
f 77 453 80
f 80 454 82
f 453 454 80
f 455 82 454
f 456 615 455
f 458 615 456
f 455 615 82
f 615 458 83
f 459 83 458
f 459 616 83
f 462 86 459
f 459 86 616
f 462 617 86
f 463 617 462
f 617 463 618
f 618 619 90
f 463 619 618
f 90 465 91
f 619 465 90
f 465 620 91
f 91 620 93
f 620 466 93
f 93 466 95
f 95 621 96
f 466 621 95
f 467 96 621
f 469 96 467
f 96 469 99
f 472 622 470
f 470 622 469
f 469 622 99
f 622 472 101
f 472 103 101
f 473 103 472
f 473 474 103
f 103 474 623
f 475 623 474
f 477 624 475
f 475 624 623
f 624 477 106
f 477 625 106
f 106 625 108
f 625 478 108
f 480 626 479
f 479 626 478
f 478 626 108
f 626 480 111
f 480 627 111
f 482 628 481
f 481 628 627
f 627 628 111
f 628 482 629
f 484 629 482
f 486 116 484
f 484 116 629
f 486 487 116
f 116 487 118
f 666 631 409
f 631 411 409
f 632 411 631
f 632 673 411
f 413 673 632
f 633 413 632
f 634 413 633
f 635 637 633
f 633 637 634
f 638 635 636
f 635 638 637
f 638 636 691
f 685 640 641
f 639 640 685
f 682 641 640
f 643 679 695
f 691 644 638
f 691 685 644
f 639 685 691
f 642 682 640
f 642 679 682
f 695 679 642
f 643 678 679
f 645 678 643
f 645 646 678
f 645 675 646
f 647 675 645
f 647 648 675
f 696 648 647
f 649 651 696
f 696 651 648
f 650 651 649
f 652 225 488
f 488 225 222
f 653 654 652
f 655 654 653
f 652 654 225
f 653 228 655
f 656 228 653
f 231 229 656
f 656 229 228
f 658 231 657
f 657 231 656
f 659 658 657
f 659 392 658
f 659 395 392
f 660 395 659
f 395 660 396
f 660 397 396
f 661 397 660
f 661 662 397
f 663 399 661
f 661 399 662
f 401 399 663
f 663 688 401
f 664 402 688
f 688 402 401
f 665 404 664
f 664 404 402
f 406 404 665
f 406 665 666
f 409 630 666
f 666 630 406
f 650 674 668
f 651 650 668
f 651 668 669
f 648 651 669
f 638 667 670
f 670 637 638
f 637 670 671
f 634 637 671
f 413 671 672
f 634 671 413
f 673 413 672
f 672 412 673
f 674 412 672
f 412 674 650
f 650 410 412
f 675 648 669
f 675 669 676
f 646 675 676
f 646 676 677
f 678 646 677
f 678 677 680
f 679 678 680
f 679 680 681
f 682 679 681
f 682 681 683
f 683 641 682
f 684 641 683
f 685 641 684
f 644 684 686
f 644 685 684
f 686 667 638
f 644 686 638
f 671 667 686
f 671 686 684
f 671 670 667
f 676 680 677
f 672 684 683
f 672 671 684
f 674 672 683
f 668 674 683
f 668 683 681
f 668 676 669
f 668 681 680
f 668 680 676
f 657 201 203
f 656 201 657
f 200 201 656
f 657 203 659
f 203 205 659
f 205 207 659
f 659 207 660
f 207 208 660
f 660 210 661
f 208 210 660
f 210 212 661
f 212 687 661
f 661 687 663
f 663 687 216
f 216 688 663
f 216 218 688
f 688 218 664
f 218 220 664
f 664 220 665
f 689 665 220
f 666 665 689
f 666 689 223
f 631 223 224
f 666 223 631
f 632 224 690
f 631 224 632
f 632 690 226
f 632 226 633
f 226 227 633
f 633 230 635
f 227 230 633
f 230 232 635
f 635 232 636
f 391 636 232
f 393 691 391
f 391 691 636
f 393 394 691
f 691 394 639
f 640 692 693
f 394 692 639
f 639 692 640
f 693 694 640
f 642 694 398
f 640 694 642
f 398 695 642
f 643 695 400
f 400 695 398
f 643 400 645
f 645 400 403
f 403 405 645
f 645 405 647
f 647 407 696
f 405 407 647
f 408 696 407
f 649 696 408
f 408 410 649
f 410 650 649
f 652 697 195
f 488 697 652
f 652 195 653
f 195 197 653
f 197 198 653
f 653 198 656
f 198 200 656
