# Render LOD; unchanged CAD body-local coordinates in mm
v -197.8268665 285.2244199 134.9999404
v -197.7524085 285.4454695 136.1673006
v -197.8555713 284.6705772 134.9999403
v -197.8683938 284.9476357 136.2008030
v -197.6283988 284.0522491 134.9999404
v -197.7883940 284.3982221 136.2418015
v -197.5761616 283.9969714 136.2761777
v -197.2307723 283.6581303 134.9999405
v -197.2666519 283.6791962 136.3050247
v -196.7258380 283.4188642 134.9999405
v -196.8225895 283.4556998 136.3422057
v -196.4447149 283.3909553 136.3680593
v -195.9944405 283.4269527 134.9999404
v -195.3783792 283.7614592 134.9999402
v -195.7671133 283.5176055 136.4179511
v -195.3230923 283.8266493 136.3227307
v -195.3250673 283.8272498 135.7968023
v -194.9898776 284.3129720 134.9999406
v -195.3230287 283.8170109 136.4551055
v -195.1182831 284.0853157 136.3486064
v -195.0360965 284.2096738 135.8268441
v -195.0074958 284.2865583 136.4953901
v -194.8835085 284.9746606 134.9999405
v -194.8960722 284.7303778 136.3983092
v -194.8873454 284.7976509 135.8712778
v -194.8857090 284.7943941 136.5316664
v -194.9507520 285.3065453 135.9079610
v -195.0417370 285.5417042 134.9999404
v -194.8985452 285.0464011 136.4209001
v -195.3737044 285.9833499 134.9999403
v -195.0961943 285.6412482 135.9339943
v -195.1153192 285.6752117 136.5974176
v -195.3525391 285.9537362 135.9626175
v -195.7787154 286.2387260 134.9999404
v -195.6126500 286.1527098 136.5173497
v -195.6245437 286.1618634 135.9867426
v -196.1678193 286.3510598 134.9999404
v -196.1393291 286.3536134 136.0266480
v -196.2852762 286.3625986 136.5678162
v -196.6100034 286.3472806 134.9999405
v -196.1324425 286.3492949 136.6856545
v -197.0652353 286.1990470 134.9999405
v -196.7248756 286.3309384 136.7284392
v -197.5561166 285.8018757 134.9999407
v -197.5616772 285.7845459 136.6681808
v -197.2577377 286.0791193 136.7717426
v -197.5856756 285.7453697 136.8052528
v -197.7654057 285.4050012 136.7011369
v -197.8108478 285.2910885 136.8413796
v -197.8326708 284.5569800 136.7648394
v -197.8602851 284.6887214 136.8861134
v -197.6704073 284.1393021 136.7937155
v -197.6834512 284.1626125 136.9239067
v -197.2190180 283.6520293 136.9731979
v -196.6031979 283.4006021 136.8919016
v -196.8980412 283.4794224 136.9984469
v -196.3531724 283.3833996 137.0362866
v -195.7159406 283.5396457 136.9549802
v -195.8802386 283.4744083 137.0710098
v -195.3740888 283.7771681 136.9832650
v -195.0931214 284.1169729 137.0154171
v -195.1283205 284.0567244 137.1393154
v -194.9216475 284.5579600 137.0479713
v -194.8917421 284.9909594 137.0786845
v -194.8909644 284.6775641 137.1871676
v -195.0057369 285.4614696 137.1135190
v -194.9535793 285.3308307 137.2318200
v -195.2831556 285.8930974 137.1516850
v -195.2264641 285.8255393 137.2749291
v -195.6213458 286.1564820 137.1795263
v -195.5904623 286.1437137 137.3094401
v -195.9819997 286.3142328 137.2089538
v -196.0190052 286.3203928 137.3420277
v -196.5571309 286.3606883 137.2518813
v -196.3830542 286.3639307 137.3695733
v -197.0708422 286.1935495 137.2867678
v -197.1493832 286.1470605 137.4248471
v -197.4568568 285.8997258 137.4524160
v -197.6390353 285.6732363 137.3457144
v -197.6161672 285.7012011 137.4714543
v -197.8193035 285.2380692 137.3758185
v -197.7863603 285.3567861 137.4998951
v -197.8655033 284.8049397 137.4089867
v -197.8632100 284.9168321 137.5309623
v -197.7322174 284.2426771 137.4465873
v -197.8294575 284.5586384 137.5549175
v -197.1418306 283.5920558 137.5138001
v -197.1605046 283.6084816 137.6400663
v -196.6986489 283.4207401 137.6763515
v -195.8241032 283.4924010 137.6063027
v -196.1551078 283.4000320 137.7121621
v -195.3799067 283.7642382 137.6478006
v -195.4059150 283.7458571 137.7756416
v -194.9184396 284.5555675 137.7098049
v -194.8867253 284.7652951 137.8565816
v -194.9102207 285.1675179 137.7530956
v -195.0476077 285.5486205 137.9136484
v -195.4644985 286.0557416 137.8265703
v -196.5534969 286.3550298 138.0426296
v -197.1855974 286.1308209 137.9612235
v -196.9729746 286.2409174 138.0731183
v -197.3673553 285.9900364 138.1066158
v -197.5039363 285.8437501 137.9913417
v -197.7479355 285.4661686 138.0233288
v -197.8312149 285.1884668 138.1737934
v -197.8476376 284.6458544 138.0797766
v -197.8615761 284.7452872 138.2047000
v -197.6869041 284.1558420 138.1216700
v -197.3162259 283.7189123 138.1575572
v -197.3935044 283.7868264 138.2812122
v -196.5689196 283.3957636 138.2143411
v -196.6526108 283.4144326 138.3392116
v -195.7912170 283.5056685 138.4023191
v -195.4020158 283.7481506 138.3045593
v -195.3469150 283.7952329 138.4441284
v -194.8951446 284.7238804 138.3849443
v -194.9397557 284.4800487 138.5002696
v -194.9229385 285.2106074 138.4208395
v -194.8911323 285.0490482 138.5405792
v -195.1336917 285.7033674 138.4553900
v -195.0502219 285.5540691 138.5760500
v -195.5882209 286.1506245 138.5033368
v -195.5382998 286.1093464 138.6307390
v -195.9441007 286.3014346 138.5297239
v -196.3689209 286.3638053 138.5601009
v -196.0138071 286.3229927 138.6647531
v -196.8078279 286.3034987 138.7239875
v -197.0324871 286.2153600 138.6104244
v -197.4909250 285.8722151 138.6536818
v -197.3171641 286.0385853 138.7665694
v -197.7665649 285.4090955 138.6894972
v -197.7980133 285.3131064 138.8250294
v -197.8655217 284.9498265 138.7211173
v -197.8585030 285.0023730 138.8494195
v -197.8275927 284.5557095 138.7499499
v -197.6651023 284.1157053 138.7835684
v -197.8363914 284.5772214 138.8803200
v -197.6774526 284.1522268 138.9115534
v -197.3436051 283.7461608 138.8181093
v -196.9673777 283.5095705 138.8482664
v -196.8771377 283.4759905 138.9854151
v -196.5133463 283.3916890 138.8827272
v -196.3843554 283.3780923 139.0250427
v -195.7450384 283.5260945 138.9406114
v -195.8157562 283.4968305 139.0647100
v -195.3209860 283.8235991 138.9764320
v -195.1932111 283.9658142 139.1189584
v -194.9783665 284.3689882 139.1516046
v -194.8855562 284.8566493 139.0577562
v -194.8864210 284.8222871 139.1864541
v -194.9702890 285.3719823 139.0949582
v -194.9513750 285.3147270 139.2200161
v -195.2430132 285.8518016 139.1366946
v -195.1904221 285.7836971 139.2580073
v -195.6748277 286.1897258 139.1710755
v -196.1114574 286.3434691 139.2050001
v -195.8808528 286.2807433 139.3183666
v -196.9367113 286.2576638 139.2629069
v -196.6755175 286.3373352 139.3745246
v -197.2903302 286.0495984 139.2932955
v -197.1723269 286.1395111 139.4132187
v -197.6047218 285.7253259 139.3239515
v -197.4770598 285.8748793 139.4429178
v -197.8247855 285.2301181 139.3634673
v -197.8668110 284.7516948 139.5259065
v -197.6428696 284.0895466 139.4496698
v -197.7343217 284.2692559 139.5651574
v -197.3786495 283.7772996 139.4773226
v -196.9406592 283.4916031 139.5179533
v -196.6774141 283.4141602 139.6630153
v -196.0909689 283.4128627 139.5758733
v -196.1484405 283.4030148 139.7003734
v -195.6798848 283.5620066 139.6065268
v -195.3495054 283.7973146 139.6365781
v -195.6570268 283.5688742 139.7395593
v -195.2883442 283.8620850 139.7739267
v -195.0196274 284.2466203 139.6785479
v -195.0845752 284.1392495 139.7963551
v -194.8868166 284.8121116 139.7191456
v -194.9410974 285.2965745 139.8775472
v -195.2542551 285.8555089 139.7972586
v -195.1930278 285.7805512 139.9213418
v -195.5877622 286.1397360 139.8276676
v -195.4111565 286.0068017 139.9426187
v -196.0660420 286.3352257 139.8628634
v -195.8410210 286.2731127 139.9773011
v -196.4965072 286.3607820 139.8955637
v -196.4020022 286.3653742 140.0200291
v -197.0317440 286.2210181 139.9330439
v -193.6629503 285.0246666 134.9999407
v -193.8406082 285.8153727 134.9999405
v -193.7521753 284.2239854 134.9999405
v -194.1449874 286.4136636 134.9999405
v -193.9334627 283.7169489 134.9999405
v -194.2112307 283.2564522 134.9999405
v -194.4672542 286.7855605 134.9999405
v -194.7052824 287.0023606 134.9999405
v -194.5750619 282.8596215 134.9999404
v -195.1595091 287.2912680 134.9999405
v -195.0105978 282.5425395 134.9999405
v -195.6619907 287.4844971 134.9999405
v -195.5003476 282.3181212 134.9999405
v -196.1932417 287.5743491 134.9999406
v -196.0241485 282.1953415 134.9999405
v -196.7310935 287.5571682 134.9999405
v -196.5620189 282.1786316 134.9999405
v -197.2548340 287.4338806 134.9999405
v -197.0928006 282.2688795 134.9999405
v -197.7445552 287.2088974 134.9999405
v -197.7183250 282.5223153 134.9999406
v -198.1797394 286.8914170 134.9999405
v -198.2523725 282.9288565 134.9999405
v -198.5430198 286.4944632 134.9999405
v -198.6009239 283.3389431 134.9999405
v -198.8207247 286.0329507 134.9999405
v -198.8612074 283.8095996 134.9999405
v -199.0014530 285.5255956 134.9999405
v -199.0233639 284.3233820 134.9999405
v -199.0825658 284.9269940 134.9999405
v -194.0260378 286.2096455 132.7409289
v -193.8626135 285.8521785 132.7159023
v -193.7673696 285.5557464 132.7079005
v -193.6925796 285.1788469 132.7274655
v -194.3609443 283.0752819 132.7590819
v -194.9281922 282.5994034 132.7222405
v -197.3217888 282.3445357 132.7503487
v -197.8139995 282.5888357 132.7387147
v -198.2213720 282.9015367 132.7499334
v -198.4622580 283.1664265 132.7159093
v -198.6802191 283.4793846 132.6910054
v -198.8175790 283.7371844 132.6826148
v -198.9539578 284.0860019 132.6996432
v -199.0356312 284.4222347 132.7285799
v -199.0701844 284.8035772 132.6850876
v -198.8582427 285.9389055 132.7362005
v -198.6710110 286.2957025 132.7180731
v -198.2564367 286.8058213 132.6838897
v -197.6701692 287.2465173 132.7206469
v -197.2732665 287.4208546 132.7302335
v -196.9449326 287.5140751 132.7194106
v -196.2874543 287.5747931 132.7386077
v -195.6481080 287.4714737 132.7016422
v -194.4800253 286.7983313 132.7999496
v -194.4808492 286.7975074 132.7658320
v -194.3399856 286.6501044 132.7264746
v -194.4755213 286.6921717 132.5306014
v -194.2747417 286.5217703 132.6213269
v -194.4717652 286.5044218 132.3967675
v -194.0517992 286.1928564 132.6181327
v -194.1742147 286.2823037 132.5097500
v -194.6149867 286.4128819 132.3158387
v -194.2072706 286.0807021 132.3794709
v -193.9384227 285.8577740 132.5305425
v -194.3462691 285.9463013 132.3044425
v -193.8563228 285.5945579 132.5201070
v -193.7656885 285.2688181 132.5527316
v -193.9396988 285.5678774 132.4173744
v -194.0241031 285.4397829 132.3443428
v -193.7176419 284.8947435 132.5881989
v -193.8388232 285.0232523 132.4283940
v -193.6848820 284.6462453 132.7317016
v -193.8444568 284.6616896 132.4264643
v -193.7347598 284.5556974 132.6002714
v -193.8259765 284.3830780 132.4907347
v -193.9853646 284.7977073 132.3343875
v -193.7511603 284.2686362 132.6996539
v -194.1151591 285.1881221 132.3024044
v -193.8504147 284.0990191 132.5576122
v -193.9400658 283.8103366 132.5945397
v -193.8875389 283.8183806 132.7425469
v -193.9646583 284.1692630 132.4060495
v -194.0727527 284.3608837 132.3207857
v -194.0503473 283.8406799 132.4318667
v -194.1006577 283.4360703 132.6867304
v -194.1469111 283.5483606 132.4854591
v -194.3331989 283.2874759 132.4731973
v -194.2317234 283.7332002 132.3488760
v -194.2951964 283.9884823 132.3017225
v -194.3849637 283.0826476 132.6396675
v -194.5013668 283.3522889 132.3459466
v -194.4621096 283.0993059 132.5120677
v -194.6550161 282.7979121 132.7416172
v -194.7186699 282.8000168 132.5862707
v -194.7806590 282.8540495 132.4628514
v -194.7356446 283.0135417 132.3816277
v -195.2363744 282.4349635 132.6980747
v -195.1223363 282.5654051 132.5320283
v -194.7929728 283.1926532 132.3057398
v -195.5247263 282.3194396 132.6977883
v -195.2471503 282.6686410 132.3771019
v -195.5489943 282.3652929 132.5628952
v -195.5671921 282.4515093 132.4435224
v -195.5555677 282.6587598 132.3203197
v -195.8661945 282.2246817 132.7220789
v -196.0030892 282.2554402 132.5619995
v -195.8222661 282.4399169 132.3926826
v -196.3724717 282.1802274 132.6965634
v -196.3079042 282.2817210 132.4831484
v -196.3102012 282.3854539 132.3879713
v -196.7577313 282.2442431 132.5895152
v -196.7944709 282.2066974 132.7432795
v -196.4171333 282.4865856 132.3329042
v -196.7616987 282.4138247 132.3876106
v -196.9063359 282.3288346 132.4971399
v -195.7834233 282.6904772 132.3005779
v -197.1964192 282.3474398 132.5825047
v -197.6062601 282.5024656 132.6296384
v -197.2602469 282.6134643 132.3519637
v -196.6367160 282.5638616 132.3095683
v -197.6302508 282.5991746 132.4896674
v -197.1851416 282.4916144 132.4070797
v -197.9734914 282.7594362 132.5690923
v -197.3920109 282.8291854 132.3031779
v -197.6300768 282.7783761 132.3588633
v -198.1671537 282.9060906 132.6009249
v -197.9189732 282.8826368 132.4124052
v -198.0254360 283.1379866 132.3342817
v -198.2069156 283.0928111 132.4428346
v -198.4694844 283.2305693 132.5930680
v -198.0472378 283.3366212 132.3021955
v -198.4775614 283.3948442 132.4588622
v -198.3765758 283.4918502 132.3511586
v -198.5016853 283.9508203 132.3078502
v -198.6226863 283.7828432 132.3923859
v -198.9756458 284.3699116 132.5653708
v -198.7658545 283.7861116 132.5241756
v -198.8361867 284.2164577 132.4343264
v -198.7415625 284.4185256 132.3385511
v -198.9504147 284.6269037 132.4760404
v -199.0057912 285.0292947 132.5429595
v -199.0598853 285.1464529 132.7134654
v -198.8873921 284.9182201 132.4014821
v -199.0003616 285.5193531 132.7395150
v -198.9560620 285.4533501 132.5525177
v -198.7622453 285.3116738 132.3460015
v -198.8523455 285.4554808 132.4306997
v -198.8327439 285.8322650 132.5420086
v -198.6415053 285.1268124 132.3012149
v -198.6442491 285.8758641 132.3790987
v -198.6836015 286.2142551 132.6062606
v -198.5921072 286.1582992 132.4467596
v -198.4710322 286.5703571 132.6934582
v -198.4959627 285.8958036 132.3201626
v -198.4489312 286.4645813 132.5088659
v -197.9890330 287.0342172 132.6933455
v -198.1496942 286.7701768 132.4805880
v -198.1786653 286.3064816 132.3046827
v -198.2602605 286.4547393 132.3639448
v -197.7216285 287.1497562 132.5547600
v -197.6786080 286.7760685 132.3047006
v -197.8143287 286.9930472 132.4459813
v -197.6847106 286.9532660 132.3614083
v -197.2726818 287.3859654 132.5978774
v -197.3600783 287.2361172 132.4416884
v -197.0613691 287.2706142 132.3882910
v -197.0521074 287.1398136 132.3238076
v -196.7453090 287.5452140 132.6765304
v -196.6065035 287.3261267 132.3678510
v -196.8905329 287.4316795 132.5018845
v -196.4630028 287.5368352 132.5964111
v -196.5436510 287.4337493 132.4484489
v -196.0208468 287.5472802 132.6928782
v -196.2209458 287.3741624 132.3992316
v -196.5333197 287.1628339 132.3024517
v -195.9955955 287.4851859 132.5405548
v -196.0569099 287.2281356 132.3259894
v -195.2970818 287.3482821 132.6947944
v -195.7330145 287.3102648 132.4038493
v -195.4773547 287.3463326 132.5341640
v -194.9703994 287.1752485 132.7002644
v -195.5156845 287.0249212 132.3093019
v -195.2240530 287.1373196 132.4239031
v -194.9555107 287.0772827 132.5164398
v -195.0924277 286.9361379 132.3472560
v -194.6867109 286.9749040 132.6863476
v -194.7829375 286.8318398 132.4129977
v -194.9314429 286.6404629 132.3025425
v -194.9429979 285.2604732 132.3000000
v -195.3270370 283.8270889 132.3000000
v -195.9922873 286.3098255 132.3000000
v -196.7605303 283.4429745 132.3000000
v -197.4257806 285.9257111 132.3000000
v -197.8098197 284.4923268 132.3000000
v -194.9429979 285.2604732 134.0224765
v -195.3270370 283.8270889 134.0224765
v -195.9922873 286.3098255 134.0224765
v -197.4257806 285.9257111 134.0224765
v -197.8098197 284.4923268 134.0224765
v -196.7605303 283.4429745 134.0224765
v -197.7272174 285.5074348 140.0083627
v -197.7748639 285.3935829 140.1474542
v -197.8503708 284.6861944 140.0650663
v -197.8647129 284.9271014 140.1801148
v -197.7638064 284.3352284 140.0915288
v -197.7129287 284.2206059 140.2292567
v -197.5461438 283.9547520 140.1222361
v -197.1279050 283.5830285 140.1599810
v -197.2465337 283.6678790 140.2836273
v -196.6094969 283.4055797 140.1995644
v -196.5020096 283.3925213 140.3404382
v -195.3816488 283.7633100 140.2928639
v -195.5848059 283.6109827 140.4043947
v -194.9420773 284.4930371 140.3565738
v -194.9434520 284.4709679 140.4859388
v -194.8808709 284.9060912 140.3846476
v -194.8870632 285.0121180 140.5196455
v -194.9977275 285.4394439 140.4240889
v -195.1343943 285.6906290 140.4451683
v -195.1650740 285.7419924 140.5781709
v -195.3688524 285.9728942 140.4699877
v -195.7310688 286.2183488 140.5000881
v -195.7871516 286.2422024 140.6013707
v -196.1144819 286.3402718 140.5322816
v -196.5118341 286.3592724 140.5569182
v -196.3656913 286.3655935 140.6018129
v -196.8070024 286.3028464 140.5945164
v -196.9076862 286.2620378 140.6025360
v -196.9715417 286.2358369 140.5923140
v -197.0376218 286.2049397 140.5973587
v -197.1020540 286.1709116 140.6025360
v -195.5485919 284.0494632 136.0601666
v -195.7052831 283.9163362 138.0296054
v -195.3885841 284.2485254 136.0847804
v -195.2535043 284.5415931 136.1110402
v -195.2024423 284.8430874 136.1387668
v -195.2413337 285.1706624 136.1696853
v -195.4209296 285.5567611 136.2061833
v -195.5973191 285.7550145 136.2319548
v -196.4420661 286.0440502 136.3141490
v -196.0291488 286.0037273 136.2769003
v -196.7228159 286.3246554 136.0687241
v -197.1860543 286.1309630 136.1002052
v -196.8499880 285.9510542 136.3523854
v -197.5466339 285.7947656 136.1372652
v -197.2907630 285.6200032 136.4052119
v -197.4803292 285.2552246 136.4387403
v -197.5527680 284.9196041 136.4698226
v -197.3279698 284.1970253 136.5392977
v -197.4695962 284.4484364 136.5137246
v -197.0278462 283.8996502 136.5775552
v -196.7361707 283.7611740 136.6050654
v -196.0739256 283.4212304 136.3953987
v -196.1861605 283.7116591 136.6577209
v -195.8011644 283.8583693 136.6927933
v -195.5083171 284.0845883 136.7300248
v -195.2637561 284.4953897 136.7715477
v -195.2067218 284.8152826 136.8000954
v -194.9319428 285.2312521 136.5654700
v -195.2565173 285.2409254 136.8384631
v -195.5485171 285.7095219 136.8862698
v -195.5648655 286.1324935 136.6441434
v -195.8543635 285.9243437 136.9241230
v -196.9168880 285.9130535 137.0214075
v -196.5317106 286.0462262 136.9849139
v -197.2401393 285.6705998 137.0572689
v -197.5140932 285.1404694 137.1126457
v -197.4254762 285.3926996 137.0866248
v -197.5475844 284.7937841 137.1417107
v -197.4560399 284.4302802 137.1773038
v -197.4877712 283.8899023 136.9469797
v -197.3216328 284.1838790 137.2032379
v -197.0699112 283.9302804 137.2353151
v -196.6303617 283.7267762 137.2765952
v -195.4893344 283.6783246 137.1004995
v -196.0105823 283.7572292 137.3385148
v -195.5615773 284.0306446 137.3831333
v -195.2674252 284.4815360 137.4303279
v -195.2527007 285.2131074 137.5006979
v -195.6243767 285.7752588 137.5614067
v -195.4120678 285.5344672 137.5304222
v -195.9284260 285.9582997 137.5909970
v -196.3463304 286.0531874 137.6278796
v -196.7757953 286.3104718 137.3941210
v -197.1188818 285.7834189 137.7058459
v -196.8136459 285.9626086 137.6739099
v -197.3780557 285.4860834 137.7414352
v -197.5347187 285.0677321 137.7806058
v -197.3306331 284.1926085 137.8648732
v -197.6866705 284.1668608 137.5837085
v -197.4362674 283.8347191 137.6151381
v -197.0878287 283.9431887 137.8969943
v -196.8089480 283.7884898 137.9231895
v -195.7225487 283.5416204 137.7454792
v -196.1280805 283.7240730 137.9866416
v -197.5247716 284.6116137 137.8234218
v -194.9611004 284.4177534 136.3749335
v -195.0062019 285.4583689 136.4520225
v -195.2660451 285.8738134 136.4891218
v -195.9500436 286.2999856 136.5441169
v -196.8247987 286.3029156 136.6090299
v -197.2417748 286.0840318 136.6403961
v -197.8587616 285.0186505 136.7288208
v -197.3839100 283.7799697 136.8281741
v -197.0271271 283.5381443 136.8567001
v -196.1152313 283.4117925 136.9227251
v -196.1535067 286.0245694 136.9523900
v -197.3728389 285.9785707 137.3148739
v -197.4955399 283.9001931 137.4786825
v -196.7118055 283.4290664 137.5455203
v -196.3174998 283.3869202 137.5728522
v -195.1064068 284.1016266 137.6764612
v -195.2082460 284.8840041 137.4684172
v -195.9396084 286.3036736 137.8707591
v -196.4231576 286.3647433 137.9028184
v -196.7779544 286.3070589 137.9298467
v -197.8536256 285.0397213 138.0540720
v -196.9828252 283.5199460 138.1871407
v -196.5231093 283.7178008 137.9516646
v -196.0511566 283.4222365 138.2553327
v -195.7069280 283.5512177 138.2794533
v -195.1192289 285.6777170 137.7930539
v -195.4162679 284.1968871 138.0656507
v -195.0510288 284.1832656 138.3454477
v -195.2634094 284.5176410 138.0987895
v -195.2028456 284.8898060 138.1313631
v -195.3570502 285.4627711 138.1857334
v -195.6298079 285.7766392 138.2249716
v -195.9523402 285.9771238 138.2571523
v -196.3619173 286.0474776 138.2959973
v -196.7101139 286.3245687 138.5860905
v -197.2864574 285.6142720 138.3876858
v -197.4946833 285.2350704 138.4288361
v -197.5183565 284.6341374 138.4833189
v -197.4038544 284.3043946 138.5160064
v -197.0955650 283.9484679 138.5579735
v -196.8153098 283.7893980 138.5881840
v -196.4251278 283.7010206 138.6227666
v -195.9502167 283.7839171 138.6662948
v -196.1301301 283.4109282 138.9110760
v -195.3648296 284.2684230 138.7362577
v -195.0013293 284.2883979 139.0186512
v -195.2131937 284.9776232 138.8026879
v -195.2680819 285.2608050 138.8277599
v -195.4975622 285.6609734 138.8696714
v -196.0685902 286.0047028 138.9320189
v -196.4497877 286.0538470 138.9650162
v -196.5102777 286.3570291 139.2338669
v -197.3545991 285.5254961 139.0646882
v -197.1063173 285.7876543 139.0298761
v -197.5023074 285.1945096 139.0962752
v -197.8571495 284.6654015 139.4064239
v -197.0491249 283.9114021 139.2283077
v -196.6017866 283.7260180 139.2693886
v -196.4497416 283.3917480 139.5501021
v -196.3087920 283.7075159 139.2951674
v -195.6998549 283.9181828 139.3562696
v -195.3901677 284.2360109 139.3952475
v -195.2603224 285.2428848 139.4888467
v -194.9686165 285.3819761 139.7596420
v -195.4076641 285.5338152 139.5190635
v -195.8676464 285.9293444 139.5762088
v -196.1481729 286.0283523 139.6002877
v -196.6292061 286.0246935 139.6461829
v -197.0250709 285.8533631 139.6831586
v -197.4600932 285.8973687 139.9749319
v -197.4082521 285.4484087 139.7325931
v -197.5550148 284.8515014 139.7893447
v -197.8549366 285.0526281 140.0415137
v -197.4339379 284.3701809 139.8345218
v -196.9341015 283.8428922 139.9026521
v -196.4726778 283.7032977 139.9437252
v -195.9723544 283.7753395 139.9888308
v -196.1761001 283.4002583 140.2345603
v -195.6790653 283.9351933 140.0196962
v -195.7737626 283.5167000 140.2603698
v -195.2044535 284.7778980 139.4429937
v -195.4302792 284.1829705 140.0508538
v -197.5385924 285.0116856 140.4360203
v -197.5156639 284.5596487 140.4778112
v -197.2848210 284.1370173 140.5214220
v -196.9510984 283.8501510 140.5575711
v -197.1488051 283.7443519 140.7186904
v -196.0579937 283.7407015 140.6429482
v -195.6471761 283.9578235 140.6854123
v -195.6612306 283.7774967 140.7864204
v -195.3462901 284.3052631 140.7269183
v -195.2267186 284.6663290 140.7599382
v -195.1598313 284.5174299 140.8268165
v -195.2051924 284.9734794 140.7893311
v -195.3437898 285.4423574 140.8330360
v -195.2584164 285.3903910 140.8680831
v -195.6665197 285.8134998 140.8780129
v -195.6016089 285.7938403 140.8929739
v -195.8297237 285.9229098 140.9058778
v -195.8883059 285.9374109 140.9004349
v -195.9488656 285.9631998 140.9064088
v -195.9507607 285.9708623 140.9122499
v -196.0108260 285.9856106 140.9123827
v -196.0738575 286.0046433 140.9182238
v -195.0756664 284.1516593 140.3316563
v -195.2641838 284.5083411 140.0840370
v -195.2063713 284.8497102 140.1176436
v -195.2440418 285.1725726 140.1466923
v -195.6027949 285.7539503 140.2097293
v -195.8729183 285.9340645 140.2387827
v -196.4840205 286.0400017 140.2928572
v -196.7922930 285.9695462 140.3241496
v -197.1333768 285.7795721 140.3598149
v -197.3084382 286.0297385 140.6111941
v -197.4488559 285.3450994 140.4054604
v -197.5356830 285.7651686 140.6261877
v -197.6724378 285.5390569 140.6361714
v -196.1843183 283.5580494 140.7600614
v -195.9921225 285.8926717 141.0000000
v -195.9419445 285.8722383 141.0000000
v -195.8928376 285.8493332 141.0000000
v -195.8449666 285.8240387 141.0000000
v -195.6228525 285.6712589 141.0000253
v -195.4451527 286.0373633 140.6054868
v -195.3198607 285.1913897 141.0000824
v -196.8374177 285.8640120 140.9999772
v -196.4858648 285.9606511 141.0000161
v -196.1280879 285.9372201 140.9999944
v -196.0682974 286.3292358 140.6017805
v -195.8783608 286.0420174 140.8233590
v -195.1346756 284.9451408 140.8466534
v -195.3084613 284.6412372 141.0000244
v -195.4670538 284.2726243 141.0000128
v -195.3444050 284.1123784 140.8066540
v -195.8296391 283.9222484 141.0000695
v -196.4339943 283.7757452 141.0001253
v -196.6797000 283.5546259 140.7426564
v -196.9955945 283.9697693 141.0000544
v -197.2767418 284.2594099 141.0000211
v -197.4741975 284.0189824 140.7012124
v -197.6808182 284.3582302 140.6845282
v -197.4581824 284.6883801 141.0000717
v -197.7863098 284.6971405 140.6699339
v -197.7948243 285.0979326 140.6540868
v -197.4168676 285.2139222 141.0000765
v -197.1580512 285.6407257 141.0000270
v -194.9438576 284.4817187 139.8225400
v -194.8889867 284.8348352 139.8471637
v -195.3875600 285.5086666 140.1751935
v -196.1752613 286.0280776 140.2635514
v -196.8614382 286.2843113 140.0508242
v -197.2395987 286.0895221 140.0807916
v -197.5473394 285.7957164 140.1111063
v -197.8349096 284.5923922 140.2027975
v -197.4940238 283.8971025 140.2582912
v -196.8452097 283.4640962 140.3138826
v -196.4298373 283.7062660 140.6077118
v -196.0265941 283.4285576 140.3716333
v -195.2820295 283.8732778 140.4362643
v -195.0764121 284.1520503 140.4596447
v -194.9921825 285.4134034 140.5533282
v -195.1334646 284.0600226 137.8032478
v -194.9801699 284.3683292 137.8266882
v -194.9314993 285.2234774 137.8901401
v -195.3628886 285.9726412 137.9499422
v -195.8128291 286.2564182 137.9872974
v -196.2110585 286.3530086 138.0187604
v -196.7524187 285.9882131 138.3289642
v -197.0362590 285.8412517 138.3587932
v -197.6893281 285.5829342 138.1419975
v -197.5433977 284.9457985 138.4548140
v -197.7162991 284.2181501 138.2411167
v -197.0419608 283.5465740 138.3112788
v -196.2662765 283.3898479 138.3686157
v -195.6214422 283.9808994 138.7005155
v -195.0807566 284.1486724 138.4718695
v -195.2273994 284.6631668 138.7729253
v -195.2604120 285.8568152 138.6027938
v -195.7937231 285.8888009 138.9036773
v -196.4591427 286.3603802 138.6987497
v -196.8374384 285.9506292 139.0007868
v -197.6277739 285.6796685 138.7965521
v -197.5489595 284.8729891 139.1223075
v -197.4829073 284.5022058 139.1576536
v -197.3457803 284.2174955 139.1852055
v -197.3347831 283.7287457 138.9483397
v -196.0335957 283.7605237 139.3202661
v -195.5237373 283.6594513 139.0879571
v -195.6094917 285.7565399 139.5460270
v -196.2276451 286.3549483 139.3443692
v -197.6997982 285.5586616 139.4690697
v -197.8273171 285.1981655 139.4982634
v -197.5321683 283.9396743 139.5943354
v -197.2244106 284.0713744 139.8691277
v -197.2021269 283.6329393 139.6221807
v -195.5547628 286.1163521 139.2929272
f 2 434 44
f 2 44 1
f 4 2 1
f 4 1 3
f 6 4 3
f 6 3 5
f 7 6 5
f 9 7 5
f 9 5 8
f 9 8 10
f 11 9 10
f 12 11 10
f 12 10 13
f 442 12 13
f 15 442 13
f 15 13 14
f 19 15 14
f 17 19 14
f 16 19 17
f 21 17 14
f 21 14 18
f 22 19 20
f 25 21 18
f 26 22 486
f 25 18 23
f 27 25 23
f 448 26 29
f 27 23 28
f 31 27 28
f 32 448 487
f 31 28 30
f 33 31 30
f 451 32 488
f 36 33 30
f 36 30 34
f 38 36 34
f 41 451 489
f 38 34 37
f 38 37 40
f 43 41 39
f 431 38 40
f 431 40 42
f 432 431 42
f 46 43 490
f 432 42 44
f 46 491 45
f 434 432 44
f 16 20 19
f 20 486 22
f 486 24 26
f 24 29 26
f 29 487 448
f 487 488 32
f 488 35 451
f 35 489 451
f 489 39 41
f 39 490 43
f 490 491 46
f 47 46 45
f 49 45 48
f 49 47 45
f 49 48 492
f 51 49 492
f 51 492 50
f 53 50 52
f 53 51 50
f 460 52 493
f 460 53 52
f 54 460 493
f 54 493 494
f 56 54 494
f 56 494 55
f 57 56 55
f 57 55 495
f 59 57 495
f 59 495 58
f 464 59 58
f 464 58 60
f 62 464 60
f 62 60 61
f 65 61 63
f 65 62 61
f 65 63 64
f 67 65 64
f 67 64 66
f 69 67 66
f 68 69 66
f 71 69 68
f 70 71 68
f 72 71 70
f 73 71 72
f 75 73 72
f 74 75 72
f 473 75 74
f 473 74 76
f 77 473 76
f 77 76 497
f 78 77 497
f 78 497 79
f 80 78 79
f 82 80 79
f 81 82 79
f 84 82 81
f 83 84 81
f 86 84 83
f 85 86 83
f 479 86 85
f 480 479 85
f 480 85 498
f 480 498 87
f 88 480 87
f 89 88 87
f 499 89 87
f 500 89 499
f 91 89 500
f 91 500 90
f 483 91 90
f 92 483 90
f 93 483 92
f 647 93 92
f 647 92 501
f 648 647 501
f 648 501 94
f 95 648 94
f 95 94 96
f 649 95 96
f 97 649 96
f 511 97 96
f 650 97 511
f 98 650 511
f 651 650 98
f 503 651 98
f 652 651 503
f 504 652 503
f 99 652 504
f 99 504 505
f 101 99 505
f 101 505 100
f 102 101 100
f 102 100 103
f 655 102 103
f 655 103 104
f 105 655 104
f 506 105 104
f 107 105 506
f 107 506 106
f 657 106 108
f 657 107 106
f 110 657 108
f 110 108 109
f 658 110 109
f 507 658 109
f 112 658 507
f 111 112 507
f 659 112 111
f 509 659 111
f 113 659 509
f 113 509 510
f 113 510 114
f 115 113 114
f 513 115 114
f 661 115 513
f 117 661 513
f 116 117 513
f 119 117 116
f 118 119 116
f 121 119 118
f 121 118 120
f 663 121 120
f 663 120 122
f 123 663 122
f 126 123 122
f 126 122 124
f 125 126 124
f 665 126 125
f 520 665 125
f 127 665 520
f 127 520 128
f 130 127 128
f 130 128 129
f 667 130 129
f 131 667 129
f 132 667 131
f 133 132 131
f 134 132 133
f 137 134 133
f 135 137 133
f 136 137 135
f 138 137 136
f 671 138 136
f 671 136 139
f 140 671 139
f 141 671 140
f 142 141 140
f 143 141 142
f 529 143 142
f 145 143 529
f 144 145 529
f 673 145 144
f 146 673 144
f 147 673 146
f 531 147 146
f 148 147 531
f 150 148 531
f 149 150 531
f 152 150 149
f 151 152 149
f 154 152 151
f 153 154 151
f 681 154 153
f 155 681 153
f 157 681 155
f 157 155 156
f 675 157 156
f 675 156 537
f 159 675 537
f 158 159 537
f 161 159 158
f 160 161 158
f 163 160 162
f 163 161 160
f 676 163 162
f 676 162 164
f 677 676 164
f 165 677 164
f 165 164 541
f 167 165 541
f 166 167 541
f 678 167 166
f 168 678 166
f 680 678 168
f 169 680 168
f 170 680 169
f 544 170 169
f 172 170 544
f 171 172 544
f 175 172 171
f 173 175 171
f 174 175 173
f 176 175 174
f 176 174 177
f 178 176 177
f 632 178 177
f 632 177 179
f 633 632 179
f 180 633 179
f 180 179 549
f 182 180 549
f 182 549 181
f 184 182 181
f 184 181 183
f 186 184 183
f 186 183 185
f 188 186 185
f 188 185 187
f 636 188 187
f 636 187 189
f 637 636 189
f 637 189 555
f 638 637 555
f 190 23 192
f 23 18 192
f 191 23 190
f 191 28 23
f 192 18 194
f 193 28 191
f 194 18 195
f 18 14 195
f 193 30 28
f 195 14 198
f 196 30 193
f 197 30 196
f 198 14 200
f 199 30 197
f 199 34 30
f 14 13 200
f 200 13 202
f 201 34 199
f 201 37 34
f 202 13 204
f 203 37 201
f 13 206 204
f 13 10 206
f 203 40 37
f 203 205 40
f 10 208 206
f 205 207 40
f 40 207 42
f 10 210 208
f 207 209 42
f 8 210 10
f 42 211 44
f 209 211 42
f 8 212 210
f 5 212 8
f 211 213 44
f 5 214 212
f 213 215 44
f 5 216 214
f 44 215 1
f 3 216 5
f 215 217 1
f 3 218 216
f 217 219 1
f 3 219 218
f 1 219 3
f 245 196 193
f 220 245 193
f 220 193 191
f 221 220 191
f 222 221 191
f 222 191 190
f 223 222 190
f 261 223 190
f 261 190 192
f 266 261 192
f 270 266 192
f 270 192 194
f 274 194 195
f 274 270 194
f 224 274 195
f 224 195 198
f 282 224 198
f 225 198 200
f 225 282 198
f 286 225 200
f 286 200 202
f 289 286 202
f 294 289 202
f 294 202 204
f 297 294 204
f 297 204 206
f 301 297 206
f 301 206 208
f 226 301 208
f 226 208 210
f 227 226 210
f 228 227 210
f 228 210 212
f 229 228 212
f 229 212 214
f 230 229 214
f 231 230 214
f 231 214 216
f 232 231 216
f 232 216 218
f 233 232 218
f 234 218 219
f 234 233 218
f 331 234 219
f 333 219 217
f 333 331 219
f 235 217 215
f 235 333 217
f 236 235 215
f 236 215 213
f 342 236 213
f 237 213 211
f 237 342 213
f 345 237 211
f 345 211 209
f 238 345 209
f 238 209 207
f 239 238 207
f 240 239 207
f 240 207 205
f 357 240 205
f 241 205 203
f 241 357 205
f 362 241 203
f 362 203 201
f 242 362 201
f 367 242 201
f 367 201 199
f 370 367 199
f 370 199 197
f 375 370 197
f 243 197 196
f 243 375 197
f 243 243 196
f 245 243 196
f 244 243 243
f 244 243 245
f 244 375 243
f 247 246 245
f 249 247 245
f 249 245 220
f 250 246 247
f 250 247 249
f 248 246 250
f 252 248 250
f 252 251 248
f 254 251 252
f 221 249 220
f 253 250 249
f 253 249 221
f 253 252 250
f 254 377 251
f 257 252 253
f 222 253 221
f 255 253 222
f 257 253 255
f 258 254 252
f 258 252 257
f 256 255 222
f 256 222 223
f 267 254 258
f 259 256 223
f 256 257 255
f 258 257 260
f 260 257 256
f 259 223 261
f 260 256 259
f 267 258 265
f 263 259 261
f 265 258 260
f 262 260 259
f 265 260 262
f 262 259 263
f 266 263 261
f 264 262 263
f 264 263 266
f 268 264 266
f 268 266 270
f 272 265 262
f 272 267 265
f 271 262 264
f 272 262 271
f 269 268 270
f 271 264 268
f 273 271 268
f 278 267 272
f 273 268 269
f 277 272 271
f 274 269 270
f 275 269 274
f 273 277 271
f 275 273 269
f 278 272 277
f 277 273 275
f 279 274 224
f 276 275 274
f 276 274 279
f 277 275 276
f 281 276 279
f 288 278 277
f 280 277 276
f 288 277 280
f 282 279 224
f 283 279 282
f 284 276 281
f 285 280 276
f 283 281 279
f 285 276 284
f 284 281 283
f 225 283 282
f 288 280 285
f 287 283 225
f 287 284 283
f 286 287 225
f 290 285 284
f 288 285 290
f 290 284 287
f 293 288 290
f 291 286 289
f 291 287 286
f 292 287 291
f 292 290 287
f 305 288 293
f 295 289 294
f 295 291 289
f 295 292 291
f 293 290 296
f 296 292 295
f 296 290 292
f 295 294 297
f 298 296 295
f 299 296 298
f 298 295 297
f 302 293 296
f 302 296 299
f 309 293 302
f 309 305 293
f 300 298 297
f 300 297 301
f 303 299 298
f 304 298 300
f 303 298 304
f 306 300 301
f 306 301 226
f 303 302 299
f 306 304 300
f 311 303 304
f 309 302 303
f 311 304 306
f 309 313 305
f 307 306 226
f 308 303 311
f 308 309 303
f 307 226 227
f 310 306 307
f 310 311 306
f 312 307 227
f 313 309 308
f 314 311 310
f 314 308 311
f 312 310 307
f 313 308 314
f 312 227 228
f 316 314 310
f 316 310 312
f 315 312 228
f 318 316 312
f 229 315 228
f 317 314 316
f 317 313 314
f 319 315 229
f 318 312 315
f 319 318 315
f 320 313 317
f 317 316 318
f 321 318 319
f 230 319 229
f 322 317 318
f 321 322 318
f 326 319 230
f 326 321 319
f 320 317 322
f 231 326 230
f 324 321 326
f 324 322 321
f 323 320 322
f 323 322 324
f 326 231 232
f 325 326 232
f 327 324 326
f 325 232 233
f 328 323 324
f 325 327 326
f 328 324 327
f 234 325 233
f 329 327 325
f 329 328 327
f 329 325 234
f 332 328 329
f 330 329 234
f 338 323 328
f 332 329 330
f 331 330 234
f 334 330 331
f 335 328 332
f 335 338 328
f 334 331 333
f 334 332 330
f 336 332 334
f 336 335 332
f 337 333 235
f 337 334 333
f 337 336 334
f 339 336 337
f 340 337 235
f 339 335 336
f 236 340 235
f 343 338 335
f 343 335 339
f 341 339 337
f 341 337 340
f 342 340 236
f 344 341 340
f 347 338 343
f 344 340 342
f 348 339 341
f 343 339 348
f 348 341 344
f 237 344 342
f 347 343 348
f 346 344 237
f 346 348 344
f 346 237 345
f 352 348 346
f 349 346 345
f 350 347 348
f 351 346 349
f 349 345 238
f 352 346 351
f 352 350 348
f 353 349 238
f 354 351 349
f 353 238 239
f 354 349 353
f 354 352 351
f 353 239 240
f 356 350 352
f 355 352 354
f 357 353 240
f 359 354 353
f 359 353 357
f 355 354 359
f 355 356 352
f 364 350 356
f 361 355 359
f 356 355 358
f 360 357 241
f 358 355 361
f 360 359 357
f 360 361 359
f 364 356 358
f 365 361 360
f 362 360 241
f 365 360 362
f 363 358 361
f 366 364 358
f 363 361 365
f 368 363 365
f 365 362 242
f 366 358 363
f 369 365 242
f 368 366 363
f 369 368 365
f 367 369 242
f 372 368 369
f 371 366 368
f 371 364 366
f 373 369 367
f 374 371 368
f 372 369 373
f 373 367 370
f 374 368 372
f 375 373 370
f 371 377 364
f 375 244 245
f 376 372 373
f 375 245 246
f 376 374 372
f 246 373 375
f 377 371 374
f 246 376 373
f 376 246 248
f 374 376 248
f 374 248 251
f 377 374 251
f 378 377 254
f 378 254 267
f 378 267 278
f 379 278 288
f 379 288 305
f 379 378 278
f 380 377 378
f 380 364 377
f 381 379 305
f 313 381 305
f 382 350 364
f 382 364 380
f 320 381 313
f 320 383 381
f 347 350 382
f 323 383 320
f 338 383 323
f 338 347 382
f 338 382 383
f 378 379 384
f 384 379 385
f 380 378 386
f 386 378 384
f 382 380 387
f 387 380 386
f 383 382 388
f 388 382 387
f 381 383 389
f 389 383 388
f 379 381 385
f 385 381 389
f 384 385 389
f 386 389 388
f 386 388 387
f 386 384 389
f 638 555 390
f 391 638 390
f 391 390 558
f 393 391 558
f 393 558 392
f 639 393 392
f 639 392 394
f 395 639 394
f 395 394 396
f 640 395 396
f 398 396 397
f 398 640 396
f 641 398 397
f 641 397 399
f 400 641 399
f 400 399 563
f 643 400 563
f 565 643 563
f 402 643 565
f 401 402 565
f 644 402 401
f 645 644 401
f 590 645 401
f 404 645 590
f 403 404 590
f 405 404 403
f 406 404 405
f 407 406 405
f 646 406 407
f 409 646 407
f 408 409 407
f 410 409 408
f 609 409 410
f 411 609 410
f 412 609 411
f 413 412 411
f 614 412 413
f 415 614 413
f 414 415 413
f 416 415 414
f 418 417 416
f 418 417 418
f 419 418 418
f 419 418 419
f 420 419 419
f 17 21 421
f 421 21 423
f 423 21 424
f 25 424 21
f 27 425 25
f 25 425 424
f 425 27 426
f 426 27 427
f 33 427 31
f 31 427 27
f 33 36 427
f 427 36 428
f 428 36 430
f 36 38 430
f 431 429 38
f 38 429 430
f 433 431 432
f 433 432 435
f 432 434 435
f 4 436 2
f 2 436 434
f 434 436 435
f 437 436 4
f 4 6 437
f 437 6 439
f 7 438 6
f 6 438 439
f 7 9 438
f 438 9 440
f 9 441 440
f 11 441 9
f 11 12 441
f 441 12 443
f 12 442 443
f 443 442 15
f 19 444 15
f 445 444 19
f 15 444 443
f 19 22 445
f 445 22 446
f 446 26 447
f 22 26 446
f 447 448 449
f 26 448 447
f 448 32 449
f 449 32 450
f 451 450 32
f 450 451 452
f 452 451 496
f 496 41 454
f 451 41 496
f 41 43 454
f 46 453 43
f 43 453 454
f 47 455 46
f 46 455 453
f 47 457 455
f 49 457 47
f 51 456 49
f 458 456 51
f 49 456 457
f 53 459 51
f 51 459 458
f 53 460 459
f 462 460 54
f 461 460 462
f 459 460 461
f 462 54 463
f 57 463 56
f 56 463 54
f 463 57 465
f 57 59 465
f 465 464 466
f 59 464 465
f 466 464 62
f 466 62 467
f 65 467 62
f 67 502 65
f 468 502 67
f 65 502 467
f 69 470 67
f 469 470 69
f 67 470 468
f 69 71 469
f 469 71 471
f 73 471 71
f 472 471 73
f 75 472 73
f 75 473 472
f 472 473 475
f 473 77 475
f 474 77 78
f 475 77 474
f 474 78 476
f 80 82 78
f 78 82 476
f 476 82 477
f 84 477 82
f 485 477 84
f 84 86 485
f 478 479 480
f 478 480 481
f 89 482 88
f 480 482 481
f 88 482 480
f 91 508 89
f 89 508 482
f 484 508 91
f 91 483 484
f 484 483 422
f 422 483 93
f 429 431 433
f 479 485 86
f 478 485 479
f 421 16 17
f 421 423 16
f 486 423 424
f 16 423 20
f 20 423 486
f 425 486 424
f 426 29 425
f 425 29 486
f 486 29 24
f 427 487 426
f 426 487 29
f 428 488 427
f 427 488 487
f 430 35 428
f 428 35 488
f 39 489 430
f 430 489 35
f 430 429 39
f 39 429 490
f 433 490 429
f 435 491 433
f 433 491 490
f 491 435 45
f 435 436 45
f 45 436 48
f 48 436 492
f 492 436 437
f 437 50 492
f 439 50 437
f 52 50 439
f 52 438 493
f 439 438 52
f 440 493 438
f 494 493 440
f 441 494 440
f 443 55 441
f 441 55 494
f 58 495 443
f 443 495 55
f 60 58 445
f 444 58 443
f 445 58 444
f 60 445 61
f 445 446 61
f 61 446 63
f 446 447 63
f 63 447 64
f 64 449 66
f 68 66 450
f 450 66 449
f 450 452 68
f 68 452 70
f 70 452 72
f 452 496 72
f 72 496 74
f 74 496 454
f 74 453 76
f 454 453 74
f 453 497 76
f 455 497 453
f 79 497 455
f 457 79 455
f 83 456 458
f 81 456 83
f 85 83 458
f 458 459 85
f 461 498 459
f 459 498 85
f 462 498 461
f 463 87 462
f 462 87 498
f 463 499 87
f 500 499 463
f 465 500 463
f 500 465 90
f 465 92 90
f 466 92 465
f 467 501 466
f 466 501 92
f 467 94 501
f 467 502 94
f 94 502 96
f 96 502 468
f 98 470 469
f 511 470 98
f 471 503 469
f 469 503 98
f 472 503 471
f 472 504 503
f 475 505 472
f 472 505 504
f 100 505 475
f 474 100 475
f 476 103 474
f 474 103 100
f 476 104 103
f 477 104 476
f 477 506 104
f 485 506 477
f 106 506 485
f 485 108 106
f 478 108 485
f 478 481 108
f 108 481 109
f 482 507 481
f 481 507 109
f 111 507 482
f 482 508 111
f 508 509 111
f 484 509 508
f 422 510 484
f 484 510 509
f 114 510 422
f 64 447 449
f 79 457 81
f 81 457 456
f 470 511 468
f 468 511 96
f 512 114 422
f 512 513 114
f 512 514 513
f 513 514 116
f 514 515 116
f 116 515 118
f 516 118 515
f 120 118 516
f 516 517 120
f 120 517 122
f 517 124 122
f 518 124 517
f 518 519 124
f 124 519 125
f 519 520 125
f 653 520 519
f 128 520 653
f 653 654 128
f 128 654 129
f 521 129 654
f 522 131 521
f 521 131 129
f 522 656 131
f 131 656 133
f 656 523 133
f 136 523 524
f 133 523 135
f 135 523 136
f 525 139 524
f 524 139 136
f 525 526 139
f 139 526 140
f 526 527 140
f 140 527 142
f 528 529 527
f 527 529 142
f 144 529 528
f 660 144 528
f 530 146 660
f 660 146 144
f 530 531 146
f 530 662 531
f 531 662 149
f 662 532 149
f 149 532 151
f 151 532 533
f 153 151 534
f 534 151 533
f 534 664 153
f 153 664 155
f 664 535 155
f 156 535 536
f 155 535 156
f 536 537 156
f 536 666 537
f 537 666 158
f 666 539 158
f 162 539 538
f 158 539 160
f 160 539 162
f 538 540 162
f 164 540 668
f 162 540 164
f 668 541 164
f 541 669 166
f 670 166 669
f 168 166 542
f 542 166 670
f 168 542 169
f 543 169 542
f 545 544 543
f 171 544 545
f 543 544 169
f 545 672 171
f 171 672 173
f 672 546 173
f 173 546 174
f 546 547 174
f 174 547 177
f 566 177 547
f 548 549 566
f 566 549 179
f 548 550 549
f 549 550 181
f 550 674 181
f 181 674 183
f 183 551 185
f 674 551 183
f 553 185 552
f 552 185 551
f 185 553 187
f 187 553 189
f 553 554 189
f 556 555 554
f 554 555 189
f 557 558 556
f 556 558 390
f 558 557 392
f 392 557 394
f 557 559 394
f 394 559 396
f 559 679 396
f 396 679 397
f 679 560 397
f 560 561 397
f 397 561 399
f 561 563 399
f 562 563 561
f 401 562 564
f 562 565 563
f 401 565 562
f 669 541 668
f 177 566 179
f 555 556 390
f 567 401 564
f 571 622 572
f 576 578 619
f 577 578 576
f 579 578 577
f 579 616 578
f 579 581 616
f 580 581 579
f 580 583 581
f 580 582 583
f 582 584 583
f 582 585 584
f 585 585 584
f 585 586 585
f 586 587 585
f 586 588 587
f 588 588 587
f 588 589 588
f 591 590 567
f 567 590 401
f 591 403 590
f 592 403 591
f 403 592 405
f 405 593 407
f 592 593 405
f 634 408 593
f 593 408 407
f 634 594 408
f 410 594 411
f 408 594 410
f 594 595 411
f 635 413 595
f 596 413 635
f 595 413 411
f 413 596 414
f 596 597 414
f 419 597 420
f 418 597 419
f 416 597 418
f 414 597 416
f 420 597 599
f 597 598 599
f 602 601 600
f 598 601 599
f 600 601 598
f 629 600 568
f 602 600 629
f 628 568 569
f 628 629 568
f 628 569 626
f 625 569 570
f 625 626 569
f 572 570 571
f 625 570 572
f 642 622 571
f 642 603 622
f 573 603 642
f 575 603 573
f 574 575 573
f 574 619 575
f 576 619 574
f 588 589 613
f 588 613 604
f 587 604 605
f 587 588 604
f 585 605 606
f 585 587 605
f 584 606 607
f 584 585 606
f 583 607 608
f 583 584 607
f 581 583 608
f 581 608 610
f 599 631 611
f 611 418 419
f 611 419 420
f 611 420 599
f 416 611 612
f 611 416 417
f 611 417 418
f 612 415 416
f 415 612 613
f 614 589 615
f 614 415 613
f 614 613 589
f 615 412 614
f 615 609 412
f 616 581 610
f 616 610 617
f 578 616 617
f 578 617 618
f 619 578 618
f 619 618 620
f 575 619 620
f 620 603 575
f 603 620 621
f 622 603 621
f 622 621 623
f 623 572 622
f 625 572 623
f 625 623 624
f 626 624 627
f 626 625 624
f 628 626 627
f 629 627 630
f 629 628 627
f 630 602 629
f 602 630 631
f 601 631 599
f 601 602 631
f 613 631 630
f 613 630 627
f 613 612 611
f 613 611 631
f 606 605 604
f 607 604 613
f 607 606 604
f 608 613 627
f 608 627 624
f 608 624 623
f 608 607 613
f 610 608 623
f 610 620 618
f 610 623 621
f 610 618 617
f 610 621 620
f 176 564 175
f 176 567 564
f 615 585 582
f 615 586 585
f 615 588 586
f 615 589 588
f 176 178 567
f 567 178 591
f 178 632 591
f 591 632 592
f 632 633 592
f 592 633 593
f 633 180 593
f 593 180 634
f 182 634 180
f 182 184 634
f 634 184 594
f 184 186 594
f 594 186 595
f 188 635 186
f 186 635 595
f 636 596 188
f 188 596 635
f 597 636 598
f 596 636 597
f 636 637 598
f 637 638 598
f 598 638 600
f 391 600 638
f 391 568 600
f 393 568 391
f 393 639 568
f 568 639 569
f 569 395 570
f 639 395 569
f 395 640 570
f 570 640 571
f 398 571 640
f 641 571 398
f 571 641 642
f 643 642 400
f 400 642 641
f 642 643 573
f 643 402 573
f 573 402 574
f 402 644 574
f 574 644 576
f 644 645 576
f 406 577 404
f 404 577 645
f 645 577 576
f 577 406 579
f 579 646 580
f 406 646 579
f 580 409 582
f 646 409 580
f 409 609 582
f 582 609 615
f 93 512 422
f 93 647 512
f 647 648 512
f 512 648 514
f 514 648 515
f 649 515 95
f 95 515 648
f 515 649 516
f 516 649 97
f 650 516 97
f 517 650 518
f 516 650 517
f 650 651 518
f 518 651 652
f 518 652 519
f 101 653 99
f 652 653 519
f 99 653 652
f 102 654 101
f 101 654 653
f 655 521 102
f 102 521 654
f 522 655 105
f 521 655 522
f 107 656 105
f 105 656 522
f 657 523 107
f 107 523 656
f 523 657 524
f 657 110 524
f 524 110 525
f 110 658 525
f 525 658 526
f 527 112 659
f 526 112 527
f 658 112 526
f 528 659 113
f 527 659 528
f 660 113 115
f 528 113 660
f 530 660 115
f 115 661 530
f 530 661 117
f 119 662 117
f 117 662 530
f 533 532 119
f 119 532 662
f 119 121 533
f 533 121 534
f 121 663 534
f 534 663 123
f 126 664 123
f 123 664 534
f 535 126 536
f 664 126 535
f 126 665 536
f 665 666 536
f 127 666 665
f 130 666 127
f 130 539 666
f 538 539 130
f 130 667 538
f 668 132 134
f 538 132 540
f 540 132 668
f 667 132 538
f 137 668 134
f 137 669 668
f 138 669 137
f 671 670 138
f 542 670 671
f 138 670 669
f 671 141 542
f 543 141 143
f 542 141 543
f 143 545 543
f 145 672 143
f 143 672 545
f 145 673 672
f 672 673 546
f 546 673 147
f 546 147 547
f 547 148 566
f 147 148 547
f 150 566 148
f 150 152 566
f 566 152 548
f 548 154 550
f 152 154 548
f 681 674 154
f 154 674 550
f 551 157 552
f 157 675 552
f 552 675 553
f 675 159 553
f 159 161 553
f 553 161 554
f 161 163 554
f 554 163 556
f 556 676 677
f 557 677 165
f 556 677 557
f 678 559 167
f 680 679 678
f 678 679 559
f 560 680 170
f 679 680 560
f 560 170 561
f 561 172 562
f 170 172 561
f 172 175 562
f 562 175 564
f 674 681 551
f 551 681 157
f 676 556 163
f 165 559 557
f 167 559 165
