# Render LOD; unchanged CAD body-local coordinates in mm
v 158.8268665 -85.2244199 134.9999404
v 158.7524085 -85.4454695 136.1673006
v 158.8555713 -84.6705772 134.9999403
v 158.8683938 -84.9476357 136.2008030
v 158.6283988 -84.0522491 134.9999404
v 158.7883940 -84.3982221 136.2418015
v 158.5761616 -83.9969714 136.2761777
v 158.2307723 -83.6581303 134.9999405
v 158.2666519 -83.6791962 136.3050247
v 157.7258380 -83.4188642 134.9999405
v 157.8225895 -83.4556998 136.3422057
v 157.4447149 -83.3909553 136.3680593
v 156.9944405 -83.4269527 134.9999404
v 156.3783792 -83.7614592 134.9999402
v 156.7671133 -83.5176055 136.4179511
v 156.3230923 -83.8266493 136.3227307
v 156.3250673 -83.8272498 135.7968023
v 155.9898776 -84.3129720 134.9999406
v 156.3230287 -83.8170109 136.4551055
v 156.1182831 -84.0853157 136.3486064
v 156.0360965 -84.2096738 135.8268441
v 156.0074958 -84.2865583 136.4953901
v 155.8835085 -84.9746606 134.9999405
v 155.8960722 -84.7303778 136.3983092
v 155.8873454 -84.7976509 135.8712778
v 155.8857090 -84.7943941 136.5316664
v 155.9507520 -85.3065453 135.9079610
v 156.0417370 -85.5417042 134.9999404
v 155.8985452 -85.0464011 136.4209001
v 156.3737044 -85.9833499 134.9999403
v 156.0961943 -85.6412482 135.9339943
v 156.1153192 -85.6752117 136.5974176
v 156.3525391 -85.9537362 135.9626175
v 156.7787154 -86.2387260 134.9999404
v 156.6126500 -86.1527098 136.5173497
v 156.6245437 -86.1618634 135.9867426
v 157.1678193 -86.3510598 134.9999404
v 157.1393291 -86.3536134 136.0266480
v 157.2852762 -86.3625986 136.5678162
v 157.6100034 -86.3472806 134.9999405
v 157.1324425 -86.3492949 136.6856545
v 158.0652353 -86.1990470 134.9999405
v 157.7248756 -86.3309384 136.7284392
v 158.5561166 -85.8018757 134.9999407
v 158.5616772 -85.7845459 136.6681808
v 158.2577377 -86.0791193 136.7717426
v 158.5856756 -85.7453697 136.8052528
v 158.7654057 -85.4050012 136.7011369
v 158.8108478 -85.2910885 136.8413796
v 158.8326708 -84.5569800 136.7648394
v 158.8602851 -84.6887214 136.8861134
v 158.6704073 -84.1393021 136.7937155
v 158.6834512 -84.1626125 136.9239067
v 158.2190180 -83.6520293 136.9731979
v 157.6031979 -83.4006021 136.8919016
v 157.8980412 -83.4794224 136.9984469
v 157.3531724 -83.3833996 137.0362866
v 156.7159406 -83.5396457 136.9549802
v 156.8802386 -83.4744083 137.0710098
v 156.3740888 -83.7771681 136.9832650
v 156.0931214 -84.1169729 137.0154171
v 156.1283205 -84.0567244 137.1393154
v 155.9216475 -84.5579600 137.0479713
v 155.8917421 -84.9909594 137.0786845
v 155.8909644 -84.6775641 137.1871676
v 156.0057369 -85.4614696 137.1135190
v 155.9535793 -85.3308307 137.2318200
v 156.2831556 -85.8930974 137.1516850
v 156.2264641 -85.8255393 137.2749291
v 156.6213458 -86.1564820 137.1795263
v 156.5904623 -86.1437137 137.3094401
v 156.9819997 -86.3142328 137.2089538
v 157.0190052 -86.3203928 137.3420277
v 157.5571309 -86.3606883 137.2518813
v 157.3830542 -86.3639307 137.3695733
v 158.0708422 -86.1935495 137.2867678
v 158.1493832 -86.1470605 137.4248471
v 158.4568568 -85.8997258 137.4524160
v 158.6390353 -85.6732363 137.3457144
v 158.6161672 -85.7012011 137.4714543
v 158.8193035 -85.2380692 137.3758185
v 158.7863603 -85.3567861 137.4998951
v 158.8655033 -84.8049397 137.4089867
v 158.8632100 -84.9168321 137.5309623
v 158.7322174 -84.2426771 137.4465873
v 158.8294575 -84.5586384 137.5549175
v 158.1418306 -83.5920558 137.5138001
v 158.1605046 -83.6084816 137.6400663
v 157.6986489 -83.4207401 137.6763515
v 156.8241032 -83.4924010 137.6063027
v 157.1551078 -83.4000320 137.7121621
v 156.3799067 -83.7642382 137.6478006
v 156.4059150 -83.7458571 137.7756416
v 155.9184396 -84.5555675 137.7098049
v 155.8867253 -84.7652951 137.8565816
v 155.9102207 -85.1675179 137.7530956
v 156.0476077 -85.5486205 137.9136484
v 156.4644985 -86.0557416 137.8265703
v 157.5534969 -86.3550298 138.0426296
v 158.1855974 -86.1308209 137.9612235
v 157.9729746 -86.2409174 138.0731183
v 158.3673553 -85.9900364 138.1066158
v 158.5039363 -85.8437501 137.9913417
v 158.7479355 -85.4661686 138.0233288
v 158.8312149 -85.1884668 138.1737934
v 158.8476376 -84.6458544 138.0797766
v 158.8615761 -84.7452872 138.2047000
v 158.6869041 -84.1558420 138.1216700
v 158.3162259 -83.7189123 138.1575572
v 158.3935044 -83.7868264 138.2812122
v 157.5689196 -83.3957636 138.2143411
v 157.6526108 -83.4144326 138.3392116
v 156.7912170 -83.5056685 138.4023191
v 156.4020158 -83.7481506 138.3045593
v 156.3469150 -83.7952329 138.4441284
v 155.8951446 -84.7238804 138.3849443
v 155.9397557 -84.4800487 138.5002696
v 155.9229385 -85.2106074 138.4208395
v 155.8911323 -85.0490482 138.5405792
v 156.1336917 -85.7033674 138.4553900
v 156.0502219 -85.5540691 138.5760500
v 156.5882209 -86.1506245 138.5033368
v 156.5382998 -86.1093464 138.6307390
v 156.9441007 -86.3014346 138.5297239
v 157.3689209 -86.3638053 138.5601009
v 157.0138071 -86.3229927 138.6647531
v 157.8078279 -86.3034987 138.7239875
v 158.0324871 -86.2153600 138.6104244
v 158.4909250 -85.8722151 138.6536818
v 158.3171641 -86.0385853 138.7665694
v 158.7665649 -85.4090955 138.6894972
v 158.7980133 -85.3131064 138.8250294
v 158.8655217 -84.9498265 138.7211173
v 158.8585030 -85.0023730 138.8494195
v 158.8275927 -84.5557095 138.7499499
v 158.6651023 -84.1157053 138.7835684
v 158.8363914 -84.5772214 138.8803200
v 158.6774526 -84.1522268 138.9115534
v 158.3436051 -83.7461608 138.8181093
v 157.9673777 -83.5095705 138.8482664
v 157.8771377 -83.4759905 138.9854151
v 157.5133463 -83.3916890 138.8827272
v 157.3843554 -83.3780923 139.0250427
v 156.7450384 -83.5260945 138.9406114
v 156.8157562 -83.4968305 139.0647100
v 156.3209860 -83.8235991 138.9764320
v 156.1932111 -83.9658142 139.1189584
v 155.9783665 -84.3689882 139.1516046
v 155.8855562 -84.8566493 139.0577562
v 155.8864210 -84.8222871 139.1864541
v 155.9702890 -85.3719823 139.0949582
v 155.9513750 -85.3147270 139.2200161
v 156.2430132 -85.8518016 139.1366946
v 156.1904221 -85.7836971 139.2580073
v 156.6748277 -86.1897258 139.1710755
v 157.1114574 -86.3434691 139.2050001
v 156.8808528 -86.2807433 139.3183666
v 157.9367113 -86.2576638 139.2629069
v 157.6755175 -86.3373352 139.3745246
v 158.2903302 -86.0495984 139.2932955
v 158.1723269 -86.1395111 139.4132187
v 158.6047218 -85.7253259 139.3239515
v 158.4770598 -85.8748793 139.4429178
v 158.8247855 -85.2301181 139.3634673
v 158.8668110 -84.7516948 139.5259065
v 158.6428696 -84.0895466 139.4496698
v 158.7343217 -84.2692559 139.5651574
v 158.3786495 -83.7772996 139.4773226
v 157.9406592 -83.4916031 139.5179533
v 157.6774141 -83.4141602 139.6630153
v 157.0909689 -83.4128627 139.5758733
v 157.1484405 -83.4030148 139.7003734
v 156.6798848 -83.5620066 139.6065268
v 156.3495054 -83.7973146 139.6365781
v 156.6570268 -83.5688742 139.7395593
v 156.2883442 -83.8620850 139.7739267
v 156.0196274 -84.2466203 139.6785479
v 156.0845752 -84.1392495 139.7963551
v 155.8868166 -84.8121116 139.7191456
v 155.9410974 -85.2965745 139.8775472
v 156.2542551 -85.8555089 139.7972586
v 156.1930278 -85.7805512 139.9213418
v 156.5877622 -86.1397360 139.8276676
v 156.4111565 -86.0068017 139.9426187
v 157.0660420 -86.3352257 139.8628634
v 156.8410210 -86.2731127 139.9773011
v 157.4965072 -86.3607820 139.8955637
v 157.4020022 -86.3653742 140.0200291
v 158.0317440 -86.2210181 139.9330439
v 154.6629503 -85.0246666 134.9999407
v 154.8406082 -85.8153727 134.9999405
v 154.7521753 -84.2239854 134.9999405
v 155.1449874 -86.4136636 134.9999405
v 154.9334627 -83.7169489 134.9999405
v 155.2112307 -83.2564522 134.9999405
v 155.4672542 -86.7855605 134.9999405
v 155.7052824 -87.0023606 134.9999405
v 155.5750619 -82.8596215 134.9999404
v 156.1595091 -87.2912680 134.9999405
v 156.0105978 -82.5425395 134.9999405
v 156.6619907 -87.4844971 134.9999405
v 156.5003476 -82.3181212 134.9999405
v 157.1932417 -87.5743491 134.9999406
v 157.0241485 -82.1953415 134.9999405
v 157.7310935 -87.5571682 134.9999405
v 157.5620189 -82.1786316 134.9999405
v 158.2548340 -87.4338806 134.9999405
v 158.0928006 -82.2688795 134.9999405
v 158.7445552 -87.2088974 134.9999405
v 158.7183250 -82.5223153 134.9999406
v 159.1797394 -86.8914170 134.9999405
v 159.2523725 -82.9288565 134.9999405
v 159.5430198 -86.4944632 134.9999405
v 159.6009239 -83.3389431 134.9999405
v 159.8207247 -86.0329507 134.9999405
v 159.8612074 -83.8095996 134.9999405
v 160.0014530 -85.5255956 134.9999405
v 160.0233639 -84.3233820 134.9999405
v 160.0825658 -84.9269940 134.9999405
v 155.0260378 -86.2096455 132.7409289
v 154.8626135 -85.8521785 132.7159023
v 154.7673696 -85.5557464 132.7079005
v 154.6925796 -85.1788469 132.7274655
v 155.3609443 -83.0752819 132.7590819
v 155.9281922 -82.5994034 132.7222405
v 158.3217888 -82.3445357 132.7503487
v 158.8139995 -82.5888357 132.7387147
v 159.2213720 -82.9015367 132.7499334
v 159.4622580 -83.1664265 132.7159093
v 159.6802191 -83.4793846 132.6910054
v 159.8175790 -83.7371844 132.6826148
v 159.9539578 -84.0860019 132.6996432
v 160.0356312 -84.4222347 132.7285799
v 160.0701844 -84.8035772 132.6850876
v 159.8582427 -85.9389055 132.7362005
v 159.6710110 -86.2957025 132.7180731
v 159.2564367 -86.8058213 132.6838897
v 158.6701692 -87.2465173 132.7206469
v 158.2732665 -87.4208546 132.7302335
v 157.9449326 -87.5140751 132.7194106
v 157.2874543 -87.5747931 132.7386077
v 156.6481080 -87.4714737 132.7016422
v 155.4800253 -86.7983313 132.7999496
v 155.4808492 -86.7975074 132.7658320
v 155.3399856 -86.6501044 132.7264746
v 155.4755213 -86.6921717 132.5306014
v 155.2747417 -86.5217703 132.6213269
v 155.4717652 -86.5044218 132.3967675
v 155.0517992 -86.1928564 132.6181327
v 155.1742147 -86.2823037 132.5097500
v 155.6149867 -86.4128819 132.3158387
v 155.2072706 -86.0807021 132.3794709
v 154.9384227 -85.8577740 132.5305425
v 155.3462691 -85.9463013 132.3044425
v 154.8563228 -85.5945579 132.5201070
v 154.7656885 -85.2688181 132.5527316
v 154.9396988 -85.5678774 132.4173744
v 155.0241031 -85.4397829 132.3443428
v 154.7176419 -84.8947435 132.5881989
v 154.8388232 -85.0232523 132.4283940
v 154.6848820 -84.6462453 132.7317016
v 154.8444568 -84.6616896 132.4264643
v 154.7347598 -84.5556974 132.6002714
v 154.8259765 -84.3830780 132.4907347
v 154.9853646 -84.7977073 132.3343875
v 154.7511603 -84.2686362 132.6996539
v 155.1151591 -85.1881221 132.3024044
v 154.8504147 -84.0990191 132.5576122
v 154.9400658 -83.8103366 132.5945397
v 154.8875389 -83.8183806 132.7425469
v 154.9646583 -84.1692630 132.4060495
v 155.0727527 -84.3608837 132.3207857
v 155.0503473 -83.8406799 132.4318667
v 155.1006577 -83.4360703 132.6867304
v 155.1469111 -83.5483606 132.4854591
v 155.3331989 -83.2874759 132.4731973
v 155.2317234 -83.7332002 132.3488760
v 155.2951964 -83.9884823 132.3017225
v 155.3849637 -83.0826476 132.6396675
v 155.5013668 -83.3522889 132.3459466
v 155.4621096 -83.0993059 132.5120677
v 155.6550161 -82.7979121 132.7416172
v 155.7186699 -82.8000168 132.5862707
v 155.7806590 -82.8540495 132.4628514
v 155.7356446 -83.0135417 132.3816277
v 156.2363744 -82.4349635 132.6980747
v 156.1223363 -82.5654051 132.5320283
v 155.7929728 -83.1926532 132.3057398
v 156.5247263 -82.3194396 132.6977883
v 156.2471503 -82.6686410 132.3771019
v 156.5489943 -82.3652929 132.5628952
v 156.5671921 -82.4515093 132.4435224
v 156.5555677 -82.6587598 132.3203197
v 156.8661945 -82.2246817 132.7220789
v 157.0030892 -82.2554402 132.5619995
v 156.8222661 -82.4399169 132.3926826
v 157.3724717 -82.1802274 132.6965634
v 157.3079042 -82.2817210 132.4831484
v 157.3102012 -82.3854539 132.3879713
v 157.7577313 -82.2442431 132.5895152
v 157.7944709 -82.2066974 132.7432795
v 157.4171333 -82.4865856 132.3329042
v 157.7616987 -82.4138247 132.3876106
v 157.9063359 -82.3288346 132.4971399
v 156.7834233 -82.6904772 132.3005779
v 158.1964192 -82.3474398 132.5825047
v 158.6062601 -82.5024656 132.6296384
v 158.2602469 -82.6134643 132.3519637
v 157.6367160 -82.5638616 132.3095683
v 158.6302508 -82.5991746 132.4896674
v 158.1851416 -82.4916144 132.4070797
v 158.9734914 -82.7594362 132.5690923
v 158.3920109 -82.8291854 132.3031779
v 158.6300768 -82.7783761 132.3588633
v 159.1671537 -82.9060906 132.6009249
v 158.9189732 -82.8826368 132.4124052
v 159.0254360 -83.1379866 132.3342817
v 159.2069156 -83.0928112 132.4428346
v 159.4694844 -83.2305693 132.5930680
v 159.0472378 -83.3366212 132.3021955
v 159.4775614 -83.3948442 132.4588622
v 159.3765758 -83.4918502 132.3511586
v 159.5016853 -83.9508203 132.3078502
v 159.6226863 -83.7828432 132.3923859
v 159.9756458 -84.3699116 132.5653708
v 159.7658545 -83.7861116 132.5241756
v 159.8361867 -84.2164577 132.4343264
v 159.7415625 -84.4185256 132.3385511
v 159.9504147 -84.6269037 132.4760404
v 160.0057912 -85.0292947 132.5429595
v 160.0598853 -85.1464529 132.7134654
v 159.8873921 -84.9182201 132.4014821
v 160.0003616 -85.5193531 132.7395150
v 159.9560620 -85.4533501 132.5525177
v 159.7622453 -85.3116738 132.3460015
v 159.8523455 -85.4554808 132.4306997
v 159.8327439 -85.8322650 132.5420086
v 159.6415053 -85.1268124 132.3012149
v 159.6442491 -85.8758641 132.3790987
v 159.6836015 -86.2142551 132.6062606
v 159.5921072 -86.1582992 132.4467596
v 159.4710322 -86.5703571 132.6934582
v 159.4959627 -85.8958036 132.3201626
v 159.4489312 -86.4645813 132.5088659
v 158.9890330 -87.0342172 132.6933455
v 159.1496942 -86.7701768 132.4805880
v 159.1786653 -86.3064816 132.3046827
v 159.2602605 -86.4547393 132.3639448
v 158.7216285 -87.1497562 132.5547600
v 158.6786080 -86.7760685 132.3047006
v 158.8143287 -86.9930472 132.4459813
v 158.6847106 -86.9532660 132.3614083
v 158.2726818 -87.3859654 132.5978774
v 158.3600783 -87.2361172 132.4416884
v 158.0613691 -87.2706142 132.3882910
v 158.0521074 -87.1398136 132.3238076
v 157.7453090 -87.5452140 132.6765304
v 157.6065035 -87.3261267 132.3678510
v 157.8905329 -87.4316795 132.5018845
v 157.4630028 -87.5368352 132.5964111
v 157.5436510 -87.4337493 132.4484489
v 157.0208468 -87.5472802 132.6928782
v 157.2209458 -87.3741624 132.3992316
v 157.5333197 -87.1628339 132.3024517
v 156.9955955 -87.4851859 132.5405548
v 157.0569099 -87.2281356 132.3259894
v 156.2970818 -87.3482821 132.6947944
v 156.7330145 -87.3102648 132.4038493
v 156.4773547 -87.3463326 132.5341640
v 155.9703994 -87.1752485 132.7002644
v 156.5156845 -87.0249212 132.3093019
v 156.2240530 -87.1373196 132.4239031
v 155.9555107 -87.0772827 132.5164398
v 156.0924277 -86.9361379 132.3472560
v 155.6867109 -86.9749040 132.6863476
v 155.7829375 -86.8318398 132.4129977
v 155.9314429 -86.6404629 132.3025425
v 155.9429979 -85.2604732 132.3000000
v 156.3270370 -83.8270889 132.3000000
v 156.9922873 -86.3098255 132.3000000
v 157.7605303 -83.4429745 132.3000000
v 158.4257806 -85.9257111 132.3000000
v 158.8098197 -84.4923268 132.3000000
v 155.9429979 -85.2604732 134.0224765
v 156.3270370 -83.8270889 134.0224765
v 156.9922873 -86.3098255 134.0224765
v 158.4257806 -85.9257111 134.0224765
v 158.8098197 -84.4923268 134.0224765
v 157.7605303 -83.4429745 134.0224765
v 158.7272174 -85.5074348 140.0083627
v 158.7748639 -85.3935829 140.1474542
v 158.8503708 -84.6861944 140.0650663
v 158.8647129 -84.9271014 140.1801148
v 158.7638064 -84.3352284 140.0915288
v 158.7129287 -84.2206059 140.2292567
v 158.5461438 -83.9547520 140.1222361
v 158.1279050 -83.5830285 140.1599810
v 158.2465337 -83.6678790 140.2836273
v 157.6094969 -83.4055797 140.1995644
v 157.5020096 -83.3925213 140.3404382
v 156.3816488 -83.7633100 140.2928639
v 156.5848059 -83.6109827 140.4043947
v 155.9420773 -84.4930371 140.3565738
v 155.9434520 -84.4709679 140.4859388
v 155.8808709 -84.9060912 140.3846476
v 155.8870632 -85.0121180 140.5196455
v 155.9977275 -85.4394439 140.4240889
v 156.1343943 -85.6906290 140.4451683
v 156.1650740 -85.7419924 140.5781709
v 156.3688524 -85.9728942 140.4699877
v 156.7310688 -86.2183488 140.5000881
v 156.7871516 -86.2422024 140.6013707
v 157.1144819 -86.3402718 140.5322816
v 157.5118341 -86.3592724 140.5569182
v 157.3656913 -86.3655935 140.6018129
v 157.8070024 -86.3028464 140.5945164
v 157.9076862 -86.2620378 140.6025360
v 157.9715417 -86.2358369 140.5923140
v 158.0376218 -86.2049397 140.5973587
v 158.1020540 -86.1709116 140.6025360
v 156.5485919 -84.0494632 136.0601666
v 156.7052831 -83.9163362 138.0296054
v 156.3885841 -84.2485254 136.0847804
v 156.2535043 -84.5415931 136.1110402
v 156.2024423 -84.8430874 136.1387668
v 156.2413337 -85.1706624 136.1696853
v 156.4209296 -85.5567611 136.2061833
v 156.5973191 -85.7550145 136.2319548
v 157.4420661 -86.0440502 136.3141490
v 157.0291488 -86.0037273 136.2769003
v 157.7228159 -86.3246554 136.0687241
v 158.1860543 -86.1309630 136.1002052
v 157.8499880 -85.9510542 136.3523854
v 158.5466339 -85.7947656 136.1372652
v 158.2907630 -85.6200032 136.4052119
v 158.4803292 -85.2552246 136.4387403
v 158.5527680 -84.9196041 136.4698226
v 158.3279698 -84.1970253 136.5392977
v 158.4695962 -84.4484364 136.5137246
v 158.0278462 -83.8996502 136.5775552
v 157.7361707 -83.7611740 136.6050654
v 157.0739256 -83.4212304 136.3953987
v 157.1861605 -83.7116591 136.6577209
v 156.8011644 -83.8583693 136.6927933
v 156.5083171 -84.0845883 136.7300248
v 156.2637561 -84.4953897 136.7715477
v 156.2067218 -84.8152826 136.8000954
v 155.9319428 -85.2312521 136.5654700
v 156.2565173 -85.2409254 136.8384631
v 156.5485171 -85.7095219 136.8862698
v 156.5648655 -86.1324935 136.6441434
v 156.8543635 -85.9243437 136.9241230
v 157.9168880 -85.9130535 137.0214075
v 157.5317106 -86.0462262 136.9849139
v 158.2401393 -85.6705998 137.0572689
v 158.5140932 -85.1404694 137.1126457
v 158.4254762 -85.3926996 137.0866248
v 158.5475844 -84.7937841 137.1417107
v 158.4560399 -84.4302802 137.1773038
v 158.4877712 -83.8899023 136.9469797
v 158.3216328 -84.1838790 137.2032379
v 158.0699112 -83.9302804 137.2353151
v 157.6303617 -83.7267762 137.2765952
v 156.4893344 -83.6783246 137.1004995
v 157.0105823 -83.7572292 137.3385148
v 156.5615773 -84.0306446 137.3831333
v 156.2674252 -84.4815360 137.4303279
v 156.2527007 -85.2131074 137.5006979
v 156.6243767 -85.7752588 137.5614067
v 156.4120678 -85.5344672 137.5304222
v 156.9284260 -85.9582997 137.5909970
v 157.3463304 -86.0531874 137.6278796
v 157.7757953 -86.3104718 137.3941210
v 158.1188818 -85.7834189 137.7058459
v 157.8136459 -85.9626086 137.6739099
v 158.3780557 -85.4860834 137.7414352
v 158.5347187 -85.0677321 137.7806058
v 158.3306331 -84.1926085 137.8648732
v 158.6866705 -84.1668608 137.5837085
v 158.4362674 -83.8347191 137.6151381
v 158.0878287 -83.9431887 137.8969943
v 157.8089480 -83.7884898 137.9231895
v 156.7225487 -83.5416204 137.7454792
v 157.1280805 -83.7240730 137.9866416
v 158.5247716 -84.6116137 137.8234218
v 155.9611004 -84.4177534 136.3749335
v 156.0062019 -85.4583689 136.4520225
v 156.2660451 -85.8738134 136.4891218
v 156.9500436 -86.2999856 136.5441169
v 157.8247987 -86.3029156 136.6090299
v 158.2417748 -86.0840318 136.6403961
v 158.8587616 -85.0186505 136.7288208
v 158.3839100 -83.7799697 136.8281741
v 158.0271271 -83.5381443 136.8567001
v 157.1152313 -83.4117925 136.9227251
v 157.1535067 -86.0245694 136.9523900
v 158.3728389 -85.9785707 137.3148739
v 158.4955399 -83.9001931 137.4786825
v 157.7118055 -83.4290664 137.5455203
v 157.3174998 -83.3869202 137.5728522
v 156.1064068 -84.1016266 137.6764612
v 156.2082460 -84.8840041 137.4684172
v 156.9396084 -86.3036736 137.8707591
v 157.4231576 -86.3647433 137.9028184
v 157.7779544 -86.3070589 137.9298467
v 158.8536256 -85.0397213 138.0540720
v 157.9828252 -83.5199460 138.1871407
v 157.5231093 -83.7178008 137.9516646
v 157.0511566 -83.4222365 138.2553327
v 156.7069280 -83.5512177 138.2794533
v 156.1192289 -85.6777170 137.7930539
v 156.4162679 -84.1968871 138.0656507
v 156.0510288 -84.1832656 138.3454477
v 156.2634094 -84.5176410 138.0987895
v 156.2028456 -84.8898060 138.1313631
v 156.3570502 -85.4627711 138.1857334
v 156.6298079 -85.7766392 138.2249716
v 156.9523402 -85.9771238 138.2571523
v 157.3619173 -86.0474776 138.2959973
v 157.7101139 -86.3245687 138.5860905
v 158.2864574 -85.6142720 138.3876858
v 158.4946833 -85.2350704 138.4288361
v 158.5183565 -84.6341374 138.4833189
v 158.4038544 -84.3043946 138.5160064
v 158.0955650 -83.9484679 138.5579735
v 157.8153098 -83.7893980 138.5881840
v 157.4251278 -83.7010206 138.6227666
v 156.9502167 -83.7839171 138.6662948
v 157.1301301 -83.4109282 138.9110760
v 156.3648296 -84.2684230 138.7362577
v 156.0013293 -84.2883979 139.0186512
v 156.2131937 -84.9776232 138.8026879
v 156.2680819 -85.2608050 138.8277599
v 156.4975622 -85.6609734 138.8696714
v 157.0685902 -86.0047028 138.9320189
v 157.4497877 -86.0538470 138.9650162
v 157.5102777 -86.3570291 139.2338669
v 158.3545991 -85.5254961 139.0646882
v 158.1063173 -85.7876543 139.0298761
v 158.5023074 -85.1945096 139.0962752
v 158.8571495 -84.6654015 139.4064239
v 158.0491249 -83.9114021 139.2283077
v 157.6017866 -83.7260180 139.2693886
v 157.4497416 -83.3917480 139.5501021
v 157.3087920 -83.7075159 139.2951674
v 156.6998549 -83.9181828 139.3562696
v 156.3901677 -84.2360109 139.3952475
v 156.2603224 -85.2428848 139.4888467
v 155.9686165 -85.3819761 139.7596420
v 156.4076641 -85.5338152 139.5190635
v 156.8676464 -85.9293444 139.5762088
v 157.1481729 -86.0283523 139.6002877
v 157.6292061 -86.0246935 139.6461829
v 158.0250709 -85.8533631 139.6831586
v 158.4600932 -85.8973687 139.9749319
v 158.4082521 -85.4484087 139.7325931
v 158.5550148 -84.8515014 139.7893447
v 158.8549366 -85.0526281 140.0415137
v 158.4339379 -84.3701809 139.8345218
v 157.9341015 -83.8428922 139.9026521
v 157.4726778 -83.7032977 139.9437252
v 156.9723544 -83.7753395 139.9888308
v 157.1761001 -83.4002583 140.2345603
v 156.6790653 -83.9351933 140.0196962
v 156.7737626 -83.5167000 140.2603698
v 156.2044535 -84.7778980 139.4429937
v 156.4302792 -84.1829705 140.0508538
v 158.5385924 -85.0116856 140.4360203
v 158.5156639 -84.5596487 140.4778112
v 158.2848210 -84.1370173 140.5214220
v 157.9510984 -83.8501510 140.5575711
v 158.1488051 -83.7443519 140.7186904
v 157.0579937 -83.7407015 140.6429482
v 156.6471761 -83.9578235 140.6854123
v 156.6612306 -83.7774967 140.7864204
v 156.3462901 -84.3052631 140.7269183
v 156.2267186 -84.6663290 140.7599382
v 156.1598313 -84.5174299 140.8268165
v 156.2051924 -84.9734794 140.7893311
v 156.3437898 -85.4423574 140.8330360
v 156.2584164 -85.3903910 140.8680831
v 156.6665197 -85.8134998 140.8780129
v 156.6016089 -85.7938403 140.8929739
v 156.8297237 -85.9229098 140.9058778
v 156.8883059 -85.9374109 140.9004349
v 156.9488656 -85.9631998 140.9064088
v 156.9507607 -85.9708623 140.9122499
v 157.0108260 -85.9856106 140.9123827
v 157.0738575 -86.0046433 140.9182238
v 156.0756664 -84.1516593 140.3316563
v 156.2641838 -84.5083411 140.0840370
v 156.2063713 -84.8497102 140.1176436
v 156.2440418 -85.1725726 140.1466923
v 156.6027949 -85.7539503 140.2097293
v 156.8729183 -85.9340645 140.2387827
v 157.4840205 -86.0400017 140.2928572
v 157.7922930 -85.9695462 140.3241496
v 158.1333768 -85.7795721 140.3598149
v 158.3084382 -86.0297385 140.6111941
v 158.4488559 -85.3450994 140.4054604
v 158.5356830 -85.7651686 140.6261877
v 158.6724378 -85.5390569 140.6361714
v 157.1843183 -83.5580494 140.7600614
v 156.9921225 -85.8926717 141.0000000
v 156.9419445 -85.8722383 141.0000000
v 156.8928376 -85.8493332 141.0000000
v 156.8449666 -85.8240387 141.0000000
v 156.6228525 -85.6712589 141.0000253
v 156.4451527 -86.0373633 140.6054868
v 156.3198607 -85.1913897 141.0000824
v 157.8374177 -85.8640120 140.9999772
v 157.4858648 -85.9606511 141.0000161
v 157.1280879 -85.9372201 140.9999944
v 157.0682974 -86.3292358 140.6017805
v 156.8783608 -86.0420174 140.8233590
v 156.1346756 -84.9451408 140.8466534
v 156.3084613 -84.6412372 141.0000244
v 156.4670538 -84.2726243 141.0000128
v 156.3444050 -84.1123784 140.8066540
v 156.8296391 -83.9222484 141.0000695
v 157.4339943 -83.7757452 141.0001253
v 157.6797000 -83.5546259 140.7426564
v 157.9955945 -83.9697693 141.0000544
v 158.2767418 -84.2594099 141.0000211
v 158.4741975 -84.0189824 140.7012124
v 158.6808182 -84.3582302 140.6845282
v 158.4581824 -84.6883801 141.0000717
v 158.7863098 -84.6971405 140.6699339
v 158.7948243 -85.0979326 140.6540868
v 158.4168676 -85.2139222 141.0000765
v 158.1580512 -85.6407257 141.0000270
v 155.9438576 -84.4817187 139.8225400
v 155.8889867 -84.8348352 139.8471637
v 156.3875600 -85.5086666 140.1751935
v 157.1752613 -86.0280776 140.2635514
v 157.8614382 -86.2843113 140.0508242
v 158.2395987 -86.0895221 140.0807916
v 158.5473394 -85.7957164 140.1111063
v 158.8349096 -84.5923922 140.2027975
v 158.4940238 -83.8971025 140.2582912
v 157.8452097 -83.4640962 140.3138826
v 157.4298373 -83.7062660 140.6077118
v 157.0265941 -83.4285576 140.3716333
v 156.2820295 -83.8732778 140.4362643
v 156.0764121 -84.1520503 140.4596447
v 155.9921825 -85.4134034 140.5533282
v 156.1334646 -84.0600226 137.8032478
v 155.9801699 -84.3683292 137.8266882
v 155.9314993 -85.2234774 137.8901401
v 156.3628886 -85.9726412 137.9499422
v 156.8128291 -86.2564182 137.9872974
v 157.2110585 -86.3530086 138.0187604
v 157.7524187 -85.9882131 138.3289642
v 158.0362590 -85.8412517 138.3587932
v 158.6893281 -85.5829342 138.1419975
v 158.5433977 -84.9457985 138.4548140
v 158.7162991 -84.2181501 138.2411167
v 158.0419608 -83.5465740 138.3112788
v 157.2662765 -83.3898479 138.3686157
v 156.6214422 -83.9808994 138.7005155
v 156.0807566 -84.1486724 138.4718695
v 156.2273994 -84.6631668 138.7729253
v 156.2604120 -85.8568152 138.6027938
v 156.7937231 -85.8888009 138.9036773
v 157.4591427 -86.3603802 138.6987497
v 157.8374384 -85.9506292 139.0007868
v 158.6277739 -85.6796685 138.7965521
v 158.5489595 -84.8729891 139.1223075
v 158.4829073 -84.5022058 139.1576536
v 158.3457803 -84.2174955 139.1852055
v 158.3347831 -83.7287457 138.9483397
v 157.0335957 -83.7605237 139.3202661
v 156.5237373 -83.6594513 139.0879571
v 156.6094917 -85.7565399 139.5460270
v 157.2276451 -86.3549483 139.3443692
v 158.6997982 -85.5586616 139.4690697
v 158.8273171 -85.1981655 139.4982634
v 158.5321683 -83.9396743 139.5943354
v 158.2244106 -84.0713744 139.8691277
v 158.2021269 -83.6329393 139.6221807
v 156.5547628 -86.1163521 139.2929272
f 2 434 44
f 2 44 1
f 4 2 1
f 4 1 3
f 6 4 3
f 6 3 5
f 7 6 5
f 9 7 5
f 9 5 8
f 9 8 10
f 11 9 10
f 12 11 10
f 12 10 13
f 442 12 13
f 15 442 13
f 15 13 14
f 19 15 14
f 17 19 14
f 16 19 17
f 21 17 14
f 21 14 18
f 22 19 20
f 25 21 18
f 26 22 486
f 25 18 23
f 27 25 23
f 448 26 29
f 27 23 28
f 31 27 28
f 32 448 487
f 31 28 30
f 33 31 30
f 451 32 488
f 36 33 30
f 36 30 34
f 38 36 34
f 41 451 489
f 38 34 37
f 38 37 40
f 43 41 39
f 431 38 40
f 431 40 42
f 432 431 42
f 46 43 490
f 432 42 44
f 46 491 45
f 434 432 44
f 16 20 19
f 20 486 22
f 486 24 26
f 24 29 26
f 29 487 448
f 487 488 32
f 488 35 451
f 35 489 451
f 489 39 41
f 39 490 43
f 490 491 46
f 47 46 45
f 49 45 48
f 49 47 45
f 49 48 492
f 51 49 492
f 51 492 50
f 53 50 52
f 53 51 50
f 460 52 493
f 460 53 52
f 54 460 493
f 54 493 494
f 56 54 494
f 56 494 55
f 57 56 55
f 57 55 495
f 59 57 495
f 59 495 58
f 464 59 58
f 464 58 60
f 62 464 60
f 62 60 61
f 65 61 63
f 65 62 61
f 65 63 64
f 67 65 64
f 67 64 66
f 69 67 66
f 68 69 66
f 71 69 68
f 70 71 68
f 72 71 70
f 73 71 72
f 75 73 72
f 74 75 72
f 473 75 74
f 473 74 76
f 77 473 76
f 77 76 497
f 78 77 497
f 78 497 79
f 80 78 79
f 82 80 79
f 81 82 79
f 84 82 81
f 83 84 81
f 86 84 83
f 85 86 83
f 479 86 85
f 480 479 85
f 480 85 498
f 480 498 87
f 88 480 87
f 89 88 87
f 499 89 87
f 500 89 499
f 91 89 500
f 91 500 90
f 483 91 90
f 92 483 90
f 93 483 92
f 647 93 92
f 647 92 501
f 648 647 501
f 648 501 94
f 95 648 94
f 95 94 96
f 649 95 96
f 97 649 96
f 511 97 96
f 650 97 511
f 98 650 511
f 651 650 98
f 503 651 98
f 652 651 503
f 504 652 503
f 99 652 504
f 99 504 505
f 101 99 505
f 101 505 100
f 102 101 100
f 102 100 103
f 655 102 103
f 655 103 104
f 105 655 104
f 506 105 104
f 107 105 506
f 107 506 106
f 657 106 108
f 657 107 106
f 110 657 108
f 110 108 109
f 658 110 109
f 507 658 109
f 112 658 507
f 111 112 507
f 659 112 111
f 509 659 111
f 113 659 509
f 113 509 510
f 113 510 114
f 115 113 114
f 513 115 114
f 661 115 513
f 117 661 513
f 116 117 513
f 119 117 116
f 118 119 116
f 121 119 118
f 121 118 120
f 663 121 120
f 663 120 122
f 123 663 122
f 126 123 122
f 126 122 124
f 125 126 124
f 665 126 125
f 520 665 125
f 127 665 520
f 127 520 128
f 130 127 128
f 130 128 129
f 667 130 129
f 131 667 129
f 132 667 131
f 133 132 131
f 134 132 133
f 137 134 133
f 135 137 133
f 136 137 135
f 138 137 136
f 671 138 136
f 671 136 139
f 140 671 139
f 141 671 140
f 142 141 140
f 143 141 142
f 529 143 142
f 145 143 529
f 144 145 529
f 673 145 144
f 146 673 144
f 147 673 146
f 531 147 146
f 148 147 531
f 150 148 531
f 149 150 531
f 152 150 149
f 151 152 149
f 154 152 151
f 153 154 151
f 681 154 153
f 155 681 153
f 157 681 155
f 157 155 156
f 675 157 156
f 675 156 537
f 159 675 537
f 158 159 537
f 161 159 158
f 160 161 158
f 163 160 162
f 163 161 160
f 676 163 162
f 676 162 164
f 677 676 164
f 165 677 164
f 165 164 541
f 167 165 541
f 166 167 541
f 678 167 166
f 168 678 166
f 680 678 168
f 169 680 168
f 170 680 169
f 544 170 169
f 172 170 544
f 171 172 544
f 175 172 171
f 173 175 171
f 174 175 173
f 176 175 174
f 176 174 177
f 178 176 177
f 632 178 177
f 632 177 179
f 633 632 179
f 180 633 179
f 180 179 549
f 182 180 549
f 182 549 181
f 184 182 181
f 184 181 183
f 186 184 183
f 186 183 185
f 188 186 185
f 188 185 187
f 636 188 187
f 636 187 189
f 637 636 189
f 637 189 555
f 638 637 555
f 190 23 192
f 23 18 192
f 191 23 190
f 191 28 23
f 192 18 194
f 193 28 191
f 194 18 195
f 18 14 195
f 193 30 28
f 195 14 198
f 196 30 193
f 197 30 196
f 198 14 200
f 199 30 197
f 199 34 30
f 14 13 200
f 200 13 202
f 201 34 199
f 201 37 34
f 202 13 204
f 203 37 201
f 13 206 204
f 13 10 206
f 203 40 37
f 203 205 40
f 10 208 206
f 205 207 40
f 40 207 42
f 10 210 208
f 207 209 42
f 8 210 10
f 42 211 44
f 209 211 42
f 8 212 210
f 5 212 8
f 211 213 44
f 5 214 212
f 213 215 44
f 5 216 214
f 44 215 1
f 3 216 5
f 215 217 1
f 3 218 216
f 217 219 1
f 3 219 218
f 1 219 3
f 245 196 193
f 220 245 193
f 220 193 191
f 221 220 191
f 222 221 191
f 222 191 190
f 223 222 190
f 261 223 190
f 261 190 192
f 266 261 192
f 270 266 192
f 270 192 194
f 274 194 195
f 274 270 194
f 224 274 195
f 224 195 198
f 282 224 198
f 225 198 200
f 225 282 198
f 286 225 200
f 286 200 202
f 289 286 202
f 294 289 202
f 294 202 204
f 297 294 204
f 297 204 206
f 301 297 206
f 301 206 208
f 226 301 208
f 226 208 210
f 227 226 210
f 228 227 210
f 228 210 212
f 229 228 212
f 229 212 214
f 230 229 214
f 231 230 214
f 231 214 216
f 232 231 216
f 232 216 218
f 233 232 218
f 234 218 219
f 234 233 218
f 331 234 219
f 333 219 217
f 333 331 219
f 235 217 215
f 235 333 217
f 236 235 215
f 236 215 213
f 342 236 213
f 237 213 211
f 237 342 213
f 345 237 211
f 345 211 209
f 238 345 209
f 238 209 207
f 239 238 207
f 240 239 207
f 240 207 205
f 357 240 205
f 241 205 203
f 241 357 205
f 362 241 203
f 362 203 201
f 242 362 201
f 367 242 201
f 367 201 199
f 370 367 199
f 370 199 197
f 375 370 197
f 243 197 196
f 243 375 197
f 243 243 196
f 245 243 196
f 244 243 243
f 244 243 245
f 244 375 243
f 247 246 245
f 249 247 245
f 249 245 220
f 250 246 247
f 250 247 249
f 248 246 250
f 252 248 250
f 252 251 248
f 254 251 252
f 221 249 220
f 253 250 249
f 253 249 221
f 253 252 250
f 254 377 251
f 257 252 253
f 222 253 221
f 255 253 222
f 257 253 255
f 258 254 252
f 258 252 257
f 256 255 222
f 256 222 223
f 267 254 258
f 259 256 223
f 256 257 255
f 258 257 260
f 260 257 256
f 259 223 261
f 260 256 259
f 267 258 265
f 263 259 261
f 265 258 260
f 262 260 259
f 265 260 262
f 262 259 263
f 266 263 261
f 264 262 263
f 264 263 266
f 268 264 266
f 268 266 270
f 272 265 262
f 272 267 265
f 271 262 264
f 272 262 271
f 269 268 270
f 271 264 268
f 273 271 268
f 278 267 272
f 273 268 269
f 277 272 271
f 274 269 270
f 275 269 274
f 273 277 271
f 275 273 269
f 278 272 277
f 277 273 275
f 279 274 224
f 276 275 274
f 276 274 279
f 277 275 276
f 281 276 279
f 288 278 277
f 280 277 276
f 288 277 280
f 282 279 224
f 283 279 282
f 284 276 281
f 285 280 276
f 283 281 279
f 285 276 284
f 284 281 283
f 225 283 282
f 288 280 285
f 287 283 225
f 287 284 283
f 286 287 225
f 290 285 284
f 288 285 290
f 290 284 287
f 293 288 290
f 291 286 289
f 291 287 286
f 292 287 291
f 292 290 287
f 305 288 293
f 295 289 294
f 295 291 289
f 295 292 291
f 293 290 296
f 296 292 295
f 296 290 292
f 295 294 297
f 298 296 295
f 299 296 298
f 298 295 297
f 302 293 296
f 302 296 299
f 309 293 302
f 309 305 293
f 300 298 297
f 300 297 301
f 303 299 298
f 304 298 300
f 303 298 304
f 306 300 301
f 306 301 226
f 303 302 299
f 306 304 300
f 311 303 304
f 309 302 303
f 311 304 306
f 309 313 305
f 307 306 226
f 308 303 311
f 308 309 303
f 307 226 227
f 310 306 307
f 310 311 306
f 312 307 227
f 313 309 308
f 314 311 310
f 314 308 311
f 312 310 307
f 313 308 314
f 312 227 228
f 316 314 310
f 316 310 312
f 315 312 228
f 318 316 312
f 229 315 228
f 317 314 316
f 317 313 314
f 319 315 229
f 318 312 315
f 319 318 315
f 320 313 317
f 317 316 318
f 321 318 319
f 230 319 229
f 322 317 318
f 321 322 318
f 326 319 230
f 326 321 319
f 320 317 322
f 231 326 230
f 324 321 326
f 324 322 321
f 323 320 322
f 323 322 324
f 326 231 232
f 325 326 232
f 327 324 326
f 325 232 233
f 328 323 324
f 325 327 326
f 328 324 327
f 234 325 233
f 329 327 325
f 329 328 327
f 329 325 234
f 332 328 329
f 330 329 234
f 338 323 328
f 332 329 330
f 331 330 234
f 334 330 331
f 335 328 332
f 335 338 328
f 334 331 333
f 334 332 330
f 336 332 334
f 336 335 332
f 337 333 235
f 337 334 333
f 337 336 334
f 339 336 337
f 340 337 235
f 339 335 336
f 236 340 235
f 343 338 335
f 343 335 339
f 341 339 337
f 341 337 340
f 342 340 236
f 344 341 340
f 347 338 343
f 344 340 342
f 348 339 341
f 343 339 348
f 348 341 344
f 237 344 342
f 347 343 348
f 346 344 237
f 346 348 344
f 346 237 345
f 352 348 346
f 349 346 345
f 350 347 348
f 351 346 349
f 349 345 238
f 352 346 351
f 352 350 348
f 353 349 238
f 354 351 349
f 353 238 239
f 354 349 353
f 354 352 351
f 353 239 240
f 356 350 352
f 355 352 354
f 357 353 240
f 359 354 353
f 359 353 357
f 355 354 359
f 355 356 352
f 364 350 356
f 361 355 359
f 356 355 358
f 360 357 241
f 358 355 361
f 360 359 357
f 360 361 359
f 364 356 358
f 365 361 360
f 362 360 241
f 365 360 362
f 363 358 361
f 366 364 358
f 363 361 365
f 368 363 365
f 365 362 242
f 366 358 363
f 369 365 242
f 368 366 363
f 369 368 365
f 367 369 242
f 372 368 369
f 371 366 368
f 371 364 366
f 373 369 367
f 374 371 368
f 372 369 373
f 373 367 370
f 374 368 372
f 375 373 370
f 371 377 364
f 375 244 245
f 376 372 373
f 375 245 246
f 376 374 372
f 246 373 375
f 377 371 374
f 246 376 373
f 376 246 248
f 374 376 248
f 374 248 251
f 377 374 251
f 378 377 254
f 378 254 267
f 378 267 278
f 379 278 288
f 379 288 305
f 379 378 278
f 380 377 378
f 380 364 377
f 381 379 305
f 313 381 305
f 382 350 364
f 382 364 380
f 320 381 313
f 320 383 381
f 347 350 382
f 323 383 320
f 338 383 323
f 338 347 382
f 338 382 383
f 378 379 384
f 384 379 385
f 380 378 386
f 386 378 384
f 382 380 387
f 387 380 386
f 383 382 388
f 388 382 387
f 381 383 389
f 389 383 388
f 379 381 385
f 385 381 389
f 384 385 389
f 386 389 388
f 386 388 387
f 386 384 389
f 638 555 390
f 391 638 390
f 391 390 558
f 393 391 558
f 393 558 392
f 639 393 392
f 639 392 394
f 395 639 394
f 395 394 396
f 640 395 396
f 398 396 397
f 398 640 396
f 641 398 397
f 641 397 399
f 400 641 399
f 400 399 563
f 643 400 563
f 565 643 563
f 402 643 565
f 401 402 565
f 644 402 401
f 645 644 401
f 590 645 401
f 404 645 590
f 403 404 590
f 405 404 403
f 406 404 405
f 407 406 405
f 646 406 407
f 409 646 407
f 408 409 407
f 410 409 408
f 609 409 410
f 411 609 410
f 412 609 411
f 413 412 411
f 614 412 413
f 415 614 413
f 414 415 413
f 416 415 414
f 418 417 416
f 418 417 418
f 419 418 418
f 419 418 419
f 420 419 419
f 17 21 421
f 421 21 423
f 423 21 424
f 25 424 21
f 27 425 25
f 25 425 424
f 425 27 426
f 426 27 427
f 33 427 31
f 31 427 27
f 33 36 427
f 427 36 428
f 428 36 430
f 36 38 430
f 431 429 38
f 38 429 430
f 433 431 432
f 433 432 435
f 432 434 435
f 4 436 2
f 2 436 434
f 434 436 435
f 437 436 4
f 4 6 437
f 437 6 439
f 7 438 6
f 6 438 439
f 7 9 438
f 438 9 440
f 9 441 440
f 11 441 9
f 11 12 441
f 441 12 443
f 12 442 443
f 443 442 15
f 19 444 15
f 445 444 19
f 15 444 443
f 19 22 445
f 445 22 446
f 446 26 447
f 22 26 446
f 447 448 449
f 26 448 447
f 448 32 449
f 449 32 450
f 451 450 32
f 450 451 452
f 452 451 496
f 496 41 454
f 451 41 496
f 41 43 454
f 46 453 43
f 43 453 454
f 47 455 46
f 46 455 453
f 47 457 455
f 49 457 47
f 51 456 49
f 458 456 51
f 49 456 457
f 53 459 51
f 51 459 458
f 53 460 459
f 462 460 54
f 461 460 462
f 459 460 461
f 462 54 463
f 57 463 56
f 56 463 54
f 463 57 465
f 57 59 465
f 465 464 466
f 59 464 465
f 466 464 62
f 466 62 467
f 65 467 62
f 67 502 65
f 468 502 67
f 65 502 467
f 69 470 67
f 469 470 69
f 67 470 468
f 69 71 469
f 469 71 471
f 73 471 71
f 472 471 73
f 75 472 73
f 75 473 472
f 472 473 475
f 473 77 475
f 474 77 78
f 475 77 474
f 474 78 476
f 80 82 78
f 78 82 476
f 476 82 477
f 84 477 82
f 485 477 84
f 84 86 485
f 478 479 480
f 478 480 481
f 89 482 88
f 480 482 481
f 88 482 480
f 91 508 89
f 89 508 482
f 484 508 91
f 91 483 484
f 484 483 422
f 422 483 93
f 429 431 433
f 479 485 86
f 478 485 479
f 421 16 17
f 421 423 16
f 486 423 424
f 16 423 20
f 20 423 486
f 425 486 424
f 426 29 425
f 425 29 486
f 486 29 24
f 427 487 426
f 426 487 29
f 428 488 427
f 427 488 487
f 430 35 428
f 428 35 488
f 39 489 430
f 430 489 35
f 430 429 39
f 39 429 490
f 433 490 429
f 435 491 433
f 433 491 490
f 491 435 45
f 435 436 45
f 45 436 48
f 48 436 492
f 492 436 437
f 437 50 492
f 439 50 437
f 52 50 439
f 52 438 493
f 439 438 52
f 440 493 438
f 494 493 440
f 441 494 440
f 443 55 441
f 441 55 494
f 58 495 443
f 443 495 55
f 60 58 445
f 444 58 443
f 445 58 444
f 60 445 61
f 445 446 61
f 61 446 63
f 446 447 63
f 63 447 64
f 64 449 66
f 68 66 450
f 450 66 449
f 450 452 68
f 68 452 70
f 70 452 72
f 452 496 72
f 72 496 74
f 74 496 454
f 74 453 76
f 454 453 74
f 453 497 76
f 455 497 453
f 79 497 455
f 457 79 455
f 83 456 458
f 81 456 83
f 85 83 458
f 458 459 85
f 461 498 459
f 459 498 85
f 462 498 461
f 463 87 462
f 462 87 498
f 463 499 87
f 500 499 463
f 465 500 463
f 500 465 90
f 465 92 90
f 466 92 465
f 467 501 466
f 466 501 92
f 467 94 501
f 467 502 94
f 94 502 96
f 96 502 468
f 98 470 469
f 511 470 98
f 471 503 469
f 469 503 98
f 472 503 471
f 472 504 503
f 475 505 472
f 472 505 504
f 100 505 475
f 474 100 475
f 476 103 474
f 474 103 100
f 476 104 103
f 477 104 476
f 477 506 104
f 485 506 477
f 106 506 485
f 485 108 106
f 478 108 485
f 478 481 108
f 108 481 109
f 482 507 481
f 481 507 109
f 111 507 482
f 482 508 111
f 508 509 111
f 484 509 508
f 422 510 484
f 484 510 509
f 114 510 422
f 64 447 449
f 79 457 81
f 81 457 456
f 470 511 468
f 468 511 96
f 512 114 422
f 512 513 114
f 512 514 513
f 513 514 116
f 514 515 116
f 116 515 118
f 516 118 515
f 120 118 516
f 516 517 120
f 120 517 122
f 517 124 122
f 518 124 517
f 518 519 124
f 124 519 125
f 519 520 125
f 653 520 519
f 128 520 653
f 653 654 128
f 128 654 129
f 521 129 654
f 522 131 521
f 521 131 129
f 522 656 131
f 131 656 133
f 656 523 133
f 136 523 524
f 133 523 135
f 135 523 136
f 525 139 524
f 524 139 136
f 525 526 139
f 139 526 140
f 526 527 140
f 140 527 142
f 528 529 527
f 527 529 142
f 144 529 528
f 660 144 528
f 530 146 660
f 660 146 144
f 530 531 146
f 530 662 531
f 531 662 149
f 662 532 149
f 149 532 151
f 151 532 533
f 153 151 534
f 534 151 533
f 534 664 153
f 153 664 155
f 664 535 155
f 156 535 536
f 155 535 156
f 536 537 156
f 536 666 537
f 537 666 158
f 666 539 158
f 162 539 538
f 158 539 160
f 160 539 162
f 538 540 162
f 164 540 668
f 162 540 164
f 668 541 164
f 541 669 166
f 670 166 669
f 168 166 542
f 542 166 670
f 168 542 169
f 543 169 542
f 545 544 543
f 171 544 545
f 543 544 169
f 545 672 171
f 171 672 173
f 672 546 173
f 173 546 174
f 546 547 174
f 174 547 177
f 566 177 547
f 548 549 566
f 566 549 179
f 548 550 549
f 549 550 181
f 550 674 181
f 181 674 183
f 183 551 185
f 674 551 183
f 553 185 552
f 552 185 551
f 185 553 187
f 187 553 189
f 553 554 189
f 556 555 554
f 554 555 189
f 557 558 556
f 556 558 390
f 558 557 392
f 392 557 394
f 557 559 394
f 394 559 396
f 559 679 396
f 396 679 397
f 679 560 397
f 560 561 397
f 397 561 399
f 561 563 399
f 562 563 561
f 401 562 564
f 562 565 563
f 401 565 562
f 669 541 668
f 177 566 179
f 555 556 390
f 567 401 564
f 571 622 572
f 576 578 619
f 577 578 576
f 579 578 577
f 579 616 578
f 579 581 616
f 580 581 579
f 580 583 581
f 580 582 583
f 582 584 583
f 582 585 584
f 585 585 584
f 585 586 585
f 586 587 585
f 586 588 587
f 588 588 587
f 588 589 588
f 591 590 567
f 567 590 401
f 591 403 590
f 592 403 591
f 403 592 405
f 405 593 407
f 592 593 405
f 634 408 593
f 593 408 407
f 634 594 408
f 410 594 411
f 408 594 410
f 594 595 411
f 635 413 595
f 596 413 635
f 595 413 411
f 413 596 414
f 596 597 414
f 419 597 420
f 418 597 419
f 416 597 418
f 414 597 416
f 420 597 599
f 597 598 599
f 602 601 600
f 598 601 599
f 600 601 598
f 629 600 568
f 602 600 629
f 628 568 569
f 628 629 568
f 628 569 626
f 625 569 570
f 625 626 569
f 572 570 571
f 625 570 572
f 642 622 571
f 642 603 622
f 573 603 642
f 575 603 573
f 574 575 573
f 574 619 575
f 576 619 574
f 588 589 613
f 588 613 604
f 587 604 605
f 587 588 604
f 585 605 606
f 585 587 605
f 584 606 607
f 584 585 606
f 583 607 608
f 583 584 607
f 581 583 608
f 581 608 610
f 599 631 611
f 611 418 419
f 611 419 420
f 611 420 599
f 416 611 612
f 611 416 417
f 611 417 418
f 612 415 416
f 415 612 613
f 614 589 615
f 614 415 613
f 614 613 589
f 615 412 614
f 615 609 412
f 616 581 610
f 616 610 617
f 578 616 617
f 578 617 618
f 619 578 618
f 619 618 620
f 575 619 620
f 620 603 575
f 603 620 621
f 622 603 621
f 622 621 623
f 623 572 622
f 625 572 623
f 625 623 624
f 626 624 627
f 626 625 624
f 628 626 627
f 629 627 630
f 629 628 627
f 630 602 629
f 602 630 631
f 601 631 599
f 601 602 631
f 613 631 630
f 613 630 627
f 613 612 611
f 613 611 631
f 606 605 604
f 607 604 613
f 607 606 604
f 608 613 627
f 608 627 624
f 608 624 623
f 608 607 613
f 610 608 623
f 610 620 618
f 610 623 621
f 610 618 617
f 610 621 620
f 176 564 175
f 176 567 564
f 615 585 582
f 615 586 585
f 615 588 586
f 615 589 588
f 176 178 567
f 567 178 591
f 178 632 591
f 591 632 592
f 632 633 592
f 592 633 593
f 633 180 593
f 593 180 634
f 182 634 180
f 182 184 634
f 634 184 594
f 184 186 594
f 594 186 595
f 188 635 186
f 186 635 595
f 636 596 188
f 188 596 635
f 597 636 598
f 596 636 597
f 636 637 598
f 637 638 598
f 598 638 600
f 391 600 638
f 391 568 600
f 393 568 391
f 393 639 568
f 568 639 569
f 569 395 570
f 639 395 569
f 395 640 570
f 570 640 571
f 398 571 640
f 641 571 398
f 571 641 642
f 643 642 400
f 400 642 641
f 642 643 573
f 643 402 573
f 573 402 574
f 402 644 574
f 574 644 576
f 644 645 576
f 406 577 404
f 404 577 645
f 645 577 576
f 577 406 579
f 579 646 580
f 406 646 579
f 580 409 582
f 646 409 580
f 409 609 582
f 582 609 615
f 93 512 422
f 93 647 512
f 647 648 512
f 512 648 514
f 514 648 515
f 649 515 95
f 95 515 648
f 515 649 516
f 516 649 97
f 650 516 97
f 517 650 518
f 516 650 517
f 650 651 518
f 518 651 652
f 518 652 519
f 101 653 99
f 652 653 519
f 99 653 652
f 102 654 101
f 101 654 653
f 655 521 102
f 102 521 654
f 522 655 105
f 521 655 522
f 107 656 105
f 105 656 522
f 657 523 107
f 107 523 656
f 523 657 524
f 657 110 524
f 524 110 525
f 110 658 525
f 525 658 526
f 527 112 659
f 526 112 527
f 658 112 526
f 528 659 113
f 527 659 528
f 660 113 115
f 528 113 660
f 530 660 115
f 115 661 530
f 530 661 117
f 119 662 117
f 117 662 530
f 533 532 119
f 119 532 662
f 119 121 533
f 533 121 534
f 121 663 534
f 534 663 123
f 126 664 123
f 123 664 534
f 535 126 536
f 664 126 535
f 126 665 536
f 665 666 536
f 127 666 665
f 130 666 127
f 130 539 666
f 538 539 130
f 130 667 538
f 668 132 134
f 538 132 540
f 540 132 668
f 667 132 538
f 137 668 134
f 137 669 668
f 138 669 137
f 671 670 138
f 542 670 671
f 138 670 669
f 671 141 542
f 543 141 143
f 542 141 543
f 143 545 543
f 145 672 143
f 143 672 545
f 145 673 672
f 672 673 546
f 546 673 147
f 546 147 547
f 547 148 566
f 147 148 547
f 150 566 148
f 150 152 566
f 566 152 548
f 548 154 550
f 152 154 548
f 681 674 154
f 154 674 550
f 551 157 552
f 157 675 552
f 552 675 553
f 675 159 553
f 159 161 553
f 553 161 554
f 161 163 554
f 554 163 556
f 556 676 677
f 557 677 165
f 556 677 557
f 678 559 167
f 680 679 678
f 678 679 559
f 560 680 170
f 679 680 560
f 560 170 561
f 561 172 562
f 170 172 561
f 172 175 562
f 562 175 564
f 674 681 551
f 551 681 157
f 676 556 163
f 165 559 557
f 167 559 165
