# Render LOD; unchanged CAD body-local coordinates in mm
v 148.4448502 -50.7892213 136.0737422
v 147.6787516 -51.2298749 136.9999465
v 147.9057770 -51.1761677 136.0309324
v 147.2791476 -51.2248688 136.9999467
v 147.3397795 -51.2378039 135.9882206
v 146.8996481 -51.1039981 136.9999463
v 146.8739360 -51.0904090 135.9544359
v 146.4542679 -50.7196050 136.9999473
v 146.5063622 -50.7767013 135.9175246
v 146.2495168 -50.1787848 136.9999468
v 146.2677740 -50.2986061 135.8792632
v 146.2785439 -49.6869534 136.9999464
v 146.2691465 -49.7227831 135.8392083
v 146.4692904 -49.2899573 136.9999468
v 146.7456903 -49.0075618 136.9999463
v 146.6095877 -49.1199008 135.8994364
v 146.6148201 -49.1150002 136.3385720
v 147.0982849 -48.8298919 136.9999472
v 146.9773989 -48.8777274 136.3089966
v 147.5247301 -48.7671031 136.9999462
v 147.6475427 -48.7793126 135.8191775
v 147.3975777 -48.7660598 136.2806934
v 148.0619171 -48.9083982 136.9999468
v 148.0846102 -48.9268734 135.7856268
v 147.9175590 -48.8482432 136.2404862
v 148.4730816 -49.2689378 136.9999471
v 148.1565178 -48.9653027 135.6749672
v 148.4772102 -49.2678114 135.7467944
v 148.3378914 -49.1131381 136.2053929
v 148.6825134 -49.7155333 136.9999463
v 148.5298891 -49.3537953 135.6357700
v 148.6613121 -49.6603022 135.7171148
v 148.6967167 -49.7910840 135.6008851
v 148.7156800 -50.0211358 135.6920574
v 148.7121596 -49.9792361 136.1367402
v 148.7048569 -50.1455329 136.9999469
v 148.5866869 -50.5598699 136.9999461
v 148.6086782 -50.5150966 135.6547445
v 148.6750291 -50.3139859 136.1109606
v 148.6871262 -50.2807769 135.5676078
v 148.2164554 -51.0093538 136.9999466
v 148.3160877 -50.9186554 135.6193115
v 148.4906584 -50.7172410 135.5304523
v 148.1855935 -51.0203547 135.5009376
v 147.8440466 -51.1939394 135.5832284
v 147.7722003 -51.2106355 135.4697023
v 147.2938777 -51.2315505 135.4349499
v 146.8384252 -51.0623242 135.5087328
v 146.9200373 -51.1089144 135.4071765
v 146.5526376 -50.8346796 135.3732186
v 146.2985291 -50.3880665 135.4446359
v 146.2422453 -49.8354997 135.4064626
v 146.2453926 -50.1197450 135.3187923
v 146.4610206 -49.3003576 135.3668117
v 146.3015913 -49.5915695 135.2778187
v 146.7917130 -48.9685579 135.3306618
v 146.6038335 -49.1276219 135.2422169
v 147.2372876 -48.7944453 135.2988603
v 146.9679367 -48.8791729 135.2089455
v 147.6231723 -48.7777138 135.2721585
v 147.3940457 -48.7704493 135.1800192
v 147.9479454 -48.8644004 135.2464747
v 147.8553125 -48.8268843 135.1459764
v 148.2808963 -49.0640259 135.2190646
v 148.2035504 -49.0075424 135.1188916
v 148.4821250 -49.2823013 135.0881916
v 148.6585644 -49.6462769 135.0608042
v 148.7153174 -50.0423630 135.1414135
v 148.6463461 -50.4038913 135.1146262
v 148.3677058 -50.8615555 134.9669595
v 147.6886266 -51.2350002 135.0200683
v 147.0786029 -51.1817504 134.9768284
v 146.6871288 -50.9583700 134.9453968
v 146.6525578 -50.9336382 134.8361900
v 146.3953689 -50.6106449 134.9141892
v 146.3137120 -50.4535777 134.7942689
v 146.2779721 -49.6862985 134.8443588
v 146.4567350 -49.3096271 134.8162977
v 146.3319614 -49.5274732 134.7257405
v 146.7661378 -48.9913588 134.7861947
v 146.6253752 -49.1036092 134.6888503
v 147.0050001 -48.8628621 134.6567387
v 147.5245909 -48.7733240 134.7279462
v 147.4722029 -48.7652705 134.6227210
v 147.9264994 -48.8556783 134.5897569
v 148.2843057 -49.0640156 134.5618479
v 148.6589736 -49.6203788 134.6189532
v 148.5844246 -49.4511686 134.5252713
v 148.7089415 -50.1164266 134.5857966
v 148.5937963 -50.5405250 134.5543757
v 148.6237608 -50.4690327 134.4511284
v 148.2982994 -50.9373963 134.5214861
v 148.4791437 -50.7300991 134.4285119
v 147.9093679 -51.1634758 134.4862377
v 148.1307873 -51.0633605 134.3970949
v 147.4849315 -51.2471784 134.4555651
v 147.7710918 -51.2054259 134.3683663
v 147.3859591 -51.2398107 134.3408562
v 146.9039659 -51.1133743 134.4166545
v 146.4962959 -50.7602127 134.3766493
v 146.3330756 -50.4729247 134.2440465
v 146.2365844 -50.0520152 134.2140555
v 146.3224151 -49.5624881 134.2856655
v 146.3020266 -49.6247703 134.1824688
v 146.5042287 -49.2449348 134.2604835
v 146.4599164 -49.3025684 134.1579212
v 146.8008244 -48.9682823 134.2324175
v 146.7720983 -48.9877265 134.1264256
v 147.2569590 -48.7850321 134.1947632
v 147.1252026 -48.8235106 134.0997832
v 147.7981810 -48.8075564 134.1591010
v 147.5208431 -48.7638665 134.0724428
v 148.1002488 -48.9302372 134.0284876
v 148.4244880 -49.2108299 134.1062560
v 148.4453646 -49.2395263 133.9940874
v 148.6442651 -49.5902079 134.0755837
v 148.6463547 -49.5973889 133.9638907
v 148.7183453 -50.0749943 134.0379025
v 148.7145217 -50.0552581 133.9323116
v 148.5359298 -50.6620074 133.9987670
v 148.6112758 -50.5036900 133.9006685
v 148.1584853 -51.0390808 133.9576301
v 148.3414388 -50.8941008 133.8659634
v 147.9494144 -51.1502078 133.8312407
v 147.5093933 -51.2444550 133.9096324
v 146.7319516 -51.0020765 133.7365651
v 146.3831407 -50.5880622 133.7031019
v 146.6478064 -49.0859838 133.6949802
v 146.4044446 -49.3768303 133.6089254
v 146.9705023 -48.8795546 133.6683350
v 146.7464020 -49.0084645 133.5806437
v 147.4085365 -48.7688733 133.6376806
v 147.1969374 -48.7948560 133.5453360
v 147.8995932 -48.8369390 133.5985320
v 147.7131051 -48.7902299 133.5060642
v 148.3642194 -49.1389743 133.5600828
v 148.1414832 -48.9607771 133.4721796
v 148.4355428 -49.2273934 133.4462210
v 148.7109219 -49.8985455 133.5003088
v 148.6561688 -49.6201151 133.4150779
v 148.6528349 -50.4096539 133.4656333
v 148.7116169 -50.0755290 133.3814013
v 148.4141757 -50.8094886 133.4311143
v 148.4844708 -50.7239197 133.3284634
v 148.1367043 -51.0551142 133.4049200
v 148.1525341 -51.0501852 133.3000511
v 147.7161617 -51.2196173 133.3754317
v 147.2983883 -51.2324100 133.3442248
v 147.5822321 -51.2468322 133.2585059
v 146.7751544 -51.0363946 133.3059680
v 147.0613519 -51.1711907 133.2172676
v 146.6786621 -50.9534950 133.1883365
v 146.3720038 -50.5712662 133.1530459
v 146.2415318 -50.0994019 133.1164693
v 146.3118283 -49.5713412 133.0774553
v 147.0005354 -48.8603047 133.1158957
v 147.4175394 -48.7724600 133.0858316
v 147.0560231 -48.8361460 133.0032610
v 147.8714049 -48.8295370 133.0541048
v 147.9404251 -48.8551161 132.9390999
v 148.2830664 -49.0656471 133.0188927
v 148.3304909 -49.1114869 132.9057951
v 148.6088949 -49.4918673 132.9790579
v 148.7107799 -49.9469602 132.9470722
v 148.6393149 -49.5566944 132.8662752
v 148.7115374 -50.0440600 132.8327984
v 148.6688199 -50.3416034 132.9200339
v 148.4800242 -50.7338870 132.8886904
v 148.6258778 -50.4768682 132.8000552
v 148.1360767 -51.0549588 132.8563930
v 148.3198101 -50.9164741 132.7640636
v 147.6513293 -51.2377847 132.8152759
v 147.9089094 -51.1651772 132.7289892
v 147.1164563 -51.1914072 132.7782075
v 147.4926795 -51.2458919 132.6996935
v 146.2601079 -50.2755927 132.6856903
v 146.3482405 -49.5041946 132.5230720
v 147.0444966 -48.8455949 132.5616463
v 147.5693979 -48.7662684 132.5288832
v 147.0962307 -48.8254274 132.4525403
v 148.0394302 -48.9047654 132.4894943
v 147.6999853 -48.7800376 132.4076964
v 148.3358766 -49.1186349 132.4638423
v 148.2178438 -49.0104714 132.3620944
v 148.5813832 -49.4453606 132.4349651
v 148.7105812 -49.8953782 132.4016508
v 148.7061513 -49.8541795 132.2986273
v 148.6669728 -50.3491893 132.3688147
v 148.4645153 -50.7529772 132.3378941
v 148.4097624 -50.8138357 132.2226281
v 148.1173551 -51.0697737 132.3011788
v 147.6910611 -51.2242602 132.2732412
v 147.7106314 -51.2200969 132.1653535
v 147.2426452 -51.2227883 132.2397269
v 147.2767404 -51.2288088 132.1346172
v 146.8123532 -51.0517639 132.2066172
v 146.8406909 -51.0690805 132.1029207
v 146.4143014 -50.6576899 132.1678473
v 146.2467849 -50.1365302 132.1304874
v 146.2592105 -50.2142170 132.0255954
v 146.2459369 -49.9031977 132.0030397
v 146.3487493 -49.4944922 131.9729893
v 146.9089347 -48.8999805 132.0219294
v 146.6342234 -49.0955131 131.9401270
v 147.5189772 -48.7609927 131.9750652
v 147.1109520 -48.8179146 131.8993945
v 147.5703839 -48.7758452 131.8660148
v 147.9842709 -48.8814756 131.9454473
v 147.9156873 -48.8480788 131.8431679
v 148.3038462 -49.0814396 131.9181731
v 148.2764364 -49.0629828 131.8130124
v 148.5849690 -49.4567339 131.8856741
v 148.5770231 -49.4320609 131.7800064
v 148.7077200 -49.8681564 131.8544512
v 148.7080945 -49.8875863 131.7423034
v 148.6721321 -50.3317531 131.8230081
v 148.6670195 -50.3666254 131.7114522
v 148.4207558 -50.8180146 131.7810644
v 148.4800242 -50.7255192 131.6813608
v 148.0467189 -51.1008318 131.7495204
v 147.8730985 -51.1807726 131.6275857
v 147.0294482 -51.1595264 131.6738885
v 147.3226117 -51.2429801 131.5855567
v 146.6585765 -50.9365299 131.6436276
v 146.8011342 -51.0445631 131.5475470
v 146.3690559 -50.5608283 131.6103094
v 146.4454741 -50.6967278 131.5123418
v 146.2383541 -50.0821871 131.5729668
v 146.2720164 -50.2880792 131.4785680
v 146.2879275 -49.6709020 131.5454833
v 146.2494731 -49.8380538 131.4487863
v 146.3932732 -49.4099330 131.4165007
v 146.4448290 -49.3245234 131.5178327
v 146.7891322 -48.9730254 131.4857541
v 146.6531496 -49.0812642 131.3880854
v 147.1934235 -48.8022901 131.4518479
v 147.0515494 -48.8429303 131.3538289
v 147.6558141 -48.7781668 131.4183097
v 147.5811113 -48.7670966 131.3157105
v 148.0920616 -48.9332209 131.3860251
v 148.4465352 -49.2348105 131.3548583
v 148.6293510 -49.5615945 131.3264259
v 148.7114098 -49.9274449 131.3014954
v 148.5710904 -50.5924639 131.1449556
v 148.4428411 -50.7780260 131.2367166
v 148.0164832 -51.1165283 131.0875835
v 147.6796871 -51.2276768 131.0634561
v 147.2310372 -51.2204344 131.0313065
v 146.8761002 -51.0856567 131.1128315
v 146.5619714 -50.8416441 131.0835313
v 146.7440661 -51.0110586 130.9932190
v 146.3467179 -50.5049487 131.0558890
v 146.2491817 -50.1571129 131.0296440
v 146.2924774 -49.6185740 130.9890585
v 146.3010768 -49.5928330 130.8820125
v 146.5467764 -49.1934821 130.9553206
v 146.8489320 -48.9405285 130.9300649
v 146.6358623 -49.0937809 130.8390075
v 147.1627381 -48.8116495 130.9045608
v 147.0551148 -48.8416412 130.8042499
v 147.6470154 -48.7742624 130.8716658
v 147.5409482 -48.7669419 130.7687256
v 148.0911639 -48.9326828 130.8359088
v 147.9881931 -48.8817276 130.7358088
v 148.3694348 -49.1541112 130.8119401
v 148.3344120 -49.1093240 130.7078627
v 148.7110295 -49.9235899 130.6411589
v 148.6870134 -50.2496974 130.7280974
v 148.5243023 -50.6775457 130.6950176
v 148.6697919 -50.3342686 130.6140645
v 148.4747938 -50.7402134 130.5812386
v 148.1567847 -51.0402890 130.5512351
v 147.6135618 -51.2450583 130.6154191
v 147.6811785 -51.2327018 130.5153923
v 147.0867563 -51.1801592 130.5785275
v 147.1960501 -51.2094558 130.4780158
v 146.7037779 -50.9744076 130.5475678
v 146.8303172 -51.0628603 130.4513925
v 146.3493943 -50.5376874 130.5067638
v 146.4502545 -50.7080612 130.4155016
v 146.2427615 -50.0530233 130.4726273
v 146.2707296 -50.2732315 130.3800571
v 146.2890672 -49.6602433 130.4459404
v 146.4779348 -49.2695297 130.4134042
v 146.4419043 -49.3169910 130.3120701
v 146.8496749 -48.9380284 130.3777211
v 146.8287434 -48.9508895 130.2726069
v 147.2234453 -48.7973253 130.3500940
v 147.6562073 -48.7782551 130.3187848
v 147.2631703 -48.7862185 130.2402090
v 147.6834258 -48.7869490 130.2106173
v 148.0934172 -48.9339545 130.2864402
v 148.0362297 -48.9049744 130.1832094
v 148.6885761 -49.7144191 130.2121264
v 148.6579342 -49.6249491 130.1135664
v 148.7099430 -50.1242405 130.0788104
v 148.5788757 -50.5712842 130.0455574
v 148.2806465 -50.9474888 130.1190126
v 148.2856296 -50.9467668 130.0116737
v 147.8929593 -51.1728774 130.0877611
v 147.4534253 -51.2449834 130.0551986
v 147.7888085 -51.2124562 129.9704827
v 146.9943758 -51.1473708 130.0221793
v 146.6636151 -50.9357683 129.9937214
v 146.3711828 -50.5756271 129.9615638
v 146.2439009 -50.1023390 129.9279357
v 146.2765501 -50.2992464 129.8310546
v 146.2859153 -49.6654833 129.8967997
v 146.2456087 -49.8525493 129.8018785
v 146.4991451 -49.2456385 129.8630752
v 146.4384351 -49.3228097 129.7612864
v 146.8259939 -48.9523954 129.7233720
v 147.3191530 -48.7795012 129.7942983
v 147.2610455 -48.7865643 129.6895811
v 147.9884385 -48.8780591 129.7443726
v 147.6803529 -48.7864064 129.6613866
v 148.0907966 -48.9303501 129.6284587
v 148.4243878 -49.2009750 129.7102946
v 148.6558055 -49.6322747 129.6708387
v 148.7138086 -50.1087266 129.6394845
v 148.7163810 -50.1064377 129.5285186
v 148.5871021 -50.5481827 129.4974631
v 148.0967753 -51.0774642 129.5538948
v 148.3580695 -50.8751187 129.4687570
v 147.7150976 -51.2220186 129.5237509
v 147.9393410 -51.1603413 129.4351008
v 147.3138167 -51.2308678 129.4957044
v 147.4286295 -51.2441577 129.3964625
v 146.9311693 -51.1185465 129.4672537
v 146.9984496 -51.1467922 129.3634017
v 146.5231137 -50.8045799 129.4325305
v 146.5836690 -50.8714052 129.3311706
v 146.2892941 -50.3522550 129.3943486
v 146.3287839 -50.4623786 129.2937017
v 146.2428459 -50.0012891 129.3704317
v 146.2370661 -50.0585357 129.2670767
v 147.4407665 -48.7632218 129.2371114
v 147.4852758 -48.7694413 129.1228329
v 147.9616723 -48.8662352 129.1979799
v 147.9758917 -48.8672630 129.0882555
v 148.3066025 -49.0889557 129.1674406
v 148.5922069 -49.4661696 129.1361068
v 148.6974967 -49.8160659 129.1085952
v 148.6512213 -49.6179979 129.0158715
v 148.6943937 -50.2441426 129.0774483
v 148.7149535 -50.0900537 128.9785252
v 148.4936269 -50.7166202 129.0464818
v 148.5795646 -50.5710124 128.9464336
v 148.1032386 -51.0782285 129.0035537
v 148.0613743 -51.0996859 128.8933185
v 147.6511767 -51.2322172 128.9694609
v 147.6576669 -51.2289810 128.8608451
v 147.1562511 -51.2050062 128.9333387
v 147.1952879 -51.2147593 128.8311905
v 146.7742599 -51.0223339 128.9041059
v 146.4739831 -50.7316234 128.8765347
v 146.2984108 -50.3883833 128.8465591
v 146.4165793 -50.6508638 128.7621837
v 146.2427997 -50.0042720 128.8203937
v 146.2498063 -50.1749455 128.7258554
v 146.6328216 -49.0995029 128.7473784
v 146.4083859 -49.3651034 128.6678002
v 147.0539481 -48.8416670 128.7145488
v 146.8601221 -48.9266886 128.6222444
v 147.4848044 -48.7675105 128.6814002
v 147.3748659 -48.7717346 128.5808791
v 147.8461283 -48.8289774 128.6561878
v 147.8167654 -48.8148967 128.5490339
v 148.1686230 -48.9828494 128.5206779
v 148.4556687 -49.2501632 128.4950590
v 148.6567521 -49.6296337 128.4661788
v 148.7051162 -50.1948675 128.5293850
v 148.7105249 -50.1590981 128.4281222
v 148.4713953 -50.7525637 128.4897795
v 148.5220454 -50.6773458 128.3849061
v 148.0966407 -51.0795984 128.4523599
v 148.1406176 -51.0550697 128.3460271
v 147.6334959 -51.2350751 128.4182291
v 147.6779514 -51.2284609 128.3155182
v 147.1893763 -51.2114220 128.3864391
v 147.2123836 -51.2164578 128.2809789
v 146.7343683 -51.0007868 128.3515220
v 146.7843178 -51.0333303 128.2485898
v 146.4300797 -50.6622095 128.3175795
v 146.4813441 -50.7401179 128.2186012
v 146.2890743 -50.3516253 128.2948297
v 146.3097699 -50.4110389 128.1916193
v 146.2447313 -49.8188101 128.2533295
v 146.2359493 -49.9891692 128.1592310
v 146.4279677 -49.3539357 128.2211358
v 146.3620748 -49.4609034 128.1218266
v 146.6947196 -49.0457342 128.1921441
v 146.6648333 -49.0711710 128.0883304
v 147.1051908 -48.8246774 128.1595010
v 147.0724309 -48.8354804 128.0545365
v 147.5578913 -48.7702146 128.1258412
v 147.5314202 -48.7688217 128.0207147
v 147.9988001 -48.8827775 128.0956332
v 147.9822127 -48.8753547 127.9883728
v 148.4344114 -49.2128998 128.0589870
v 148.6597477 -49.6460286 128.0184830
v 148.7119607 -50.0248957 127.9921913
v 148.7116465 -49.8817850 127.8928917
v 148.6465598 -50.4145831 127.9658026
v 148.3701956 -50.8711933 127.9284298
v 148.4124614 -50.8225544 127.8247547
v 147.8762966 -51.1818052 127.8847263
v 147.9993188 -51.1314230 127.7862917
v 147.4824764 -51.2402490 127.8583253
v 147.5561575 -51.2394214 127.7542994
v 147.0877040 -51.1848926 127.8292972
v 147.1612090 -51.2042414 127.7269795
v 146.6138449 -50.8984729 127.7917770
v 146.3369821 -50.4913947 127.7548361
v 146.2404674 -50.0515635 127.7249663
v 146.2986565 -50.3962894 127.6371258
v 146.2956451 -49.6255312 127.6918017
v 146.3295674 -49.5332192 127.5762664
v 146.5215042 -49.2206784 127.6602859
v 146.5832406 -49.1535972 127.5468464
v 146.8686620 -48.9270462 127.6291710
v 147.2083884 -48.8018288 127.6022239
v 147.7179470 -48.7947981 127.4568471
v 148.0351725 -48.9021714 127.4311252
v 148.3945267 -49.1740919 127.4014787
v 148.6058063 -49.5048656 127.3735965
v 148.7217733 -50.0265584 127.4414712
v 148.7161623 -49.9452179 127.3410531
v 148.5853432 -50.5576925 127.4045069
v 148.6484744 -50.4040178 127.3077450
v 148.2778057 -50.9549307 127.3690522
v 148.4659774 -50.7477720 127.2828433
v 148.1985840 -51.0086523 127.2546950
v 147.8787516 -51.1761537 127.3366119
v 147.8589110 -51.1846728 127.2271980
v 147.4209898 -51.2440862 127.3054751
v 147.0249649 -51.1577830 127.2747299
v 147.3058015 -51.2408414 127.1829991
v 146.6567496 -50.9348806 127.2440758
v 146.7829936 -51.0324793 127.1485208
v 146.3464508 -50.5188373 127.2083406
v 146.4533955 -50.7040954 127.1147250
v 146.2428165 -50.0905127 127.1758218
v 146.2434703 -50.1860544 127.0760810
v 146.2724142 -49.7378000 127.1515522
v 146.2829862 -49.6892106 127.0390314
v 146.4446724 -49.3213123 127.0105812
v 146.7825160 -48.9776089 126.9751367
v 147.0793687 -48.8368278 127.0605600
v 147.1163505 -48.8256337 126.9484359
v 147.4948683 -48.7676103 127.0311903
v 147.5280778 -48.7687749 126.9216320
v 148.3875551 -49.1664392 126.9607508
v 148.0346005 -48.8949845 126.8860008
v 148.4275268 -49.2148799 126.8472907
v 148.7119047 -49.9787691 126.7886133
v 148.5455456 -50.6308067 126.8500754
v 148.6574618 -50.3831817 126.7599060
v 148.3342226 -50.8942199 126.8251478
v 148.4230710 -50.8069300 126.7234388
v 148.0399386 -51.1118291 126.6927526
v 147.4544057 -51.2449297 126.7558415
v 147.6522480 -51.2291317 126.6628618
v 146.9731620 -51.1384163 126.7229070
v 147.1702481 -51.2112424 126.6304263
v 146.6610001 -50.9338064 126.6947341
v 146.4239597 -50.6553554 126.6689666
v 146.6123993 -50.9040882 126.5833942
v 146.2656153 -50.2649119 126.6373611
v 146.2375900 -49.9042753 126.5016417
v 146.4976239 -49.2475283 126.5624142
v 146.3818616 -49.4317747 126.4717252
v 146.8746032 -48.9234727 126.5284770
v 146.6461531 -49.0874885 126.4418821
v 147.2841771 -48.7826584 126.4961531
v 147.0481063 -48.8443049 126.4076344
v 147.6842910 -48.7886025 126.4684118
v 147.5428369 -48.7670955 126.3716897
v 148.5047816 -49.3147437 126.3971516
v 148.4933693 -49.2983409 126.2911558
v 148.6912596 -49.7611677 126.3632498
v 148.6796550 -49.7102871 126.2597451
v 148.6965295 -50.2299715 126.3289542
v 148.5272229 -50.6580514 126.2984167
v 148.6509006 -50.3973147 126.2061487
v 148.2350139 -50.9902552 126.2634002
v 148.4562283 -50.7618038 126.1807764
v 147.7116209 -51.2270710 126.2294937
v 147.9213502 -51.1583526 126.1324443
v 147.5510472 -51.2427818 126.1041400
v 147.0923744 -51.1838363 126.0739174
v 146.5789363 -50.8630430 126.1360895
v 146.2906206 -50.3793698 126.1016956
v 146.3391436 -50.5015654 125.9995164
v 146.2458580 -49.8861016 126.0612221
v 146.2342039 -49.9608039 125.9602294
v 146.3361444 -49.5324995 126.0362905
v 146.6106491 -49.1104919 126.0023810
v 146.6999116 -49.0355803 125.8852581
v 147.4983182 -48.7713560 125.9317705
v 147.8429768 -48.8264658 125.9071496
v 147.6903536 -48.7839075 125.8113732
v 148.2182482 -49.0112571 125.8751250
v 148.0996979 -48.9396256 125.7782760
v 148.4045781 -49.1855090 125.7516039
v 148.6562169 -49.6270162 125.8247412
v 148.6533243 -49.6114739 125.7126487
v 148.5586723 -50.6142352 125.7512217
v 148.7083481 -50.1746845 125.6731210
v 148.2511254 -50.9726940 125.7154784
v 147.6004303 -47.7542524 136.9999467
v 148.2563390 -47.9016639 136.9999466
v 148.7529327 -48.1543885 136.9999466
v 146.7163180 -47.8829434 136.9999466
v 146.0862284 -48.2420513 136.9999466
v 149.0614791 -48.4217501 136.9999466
v 149.3810794 -48.7973987 136.9999467
v 145.5888002 -48.7725041 136.9999466
v 149.7010775 -49.6314519 136.9999466
v 145.2579480 -49.6019338 136.9999467
v 149.6720706 -50.5245868 136.9999466
v 145.2750069 -50.4953617 136.9999467
v 149.3286081 -51.2881310 136.9999467
v 145.6674837 -51.3595480 136.9999465
v 148.7344206 -51.8787965 136.9999466
v 147.8545538 -52.2340288 136.9999467
v 146.3856619 -51.9803295 136.9999467
v 147.0713407 -52.2159413 136.9999466
v 149.0614791 -48.4217501 138.8259499
v 148.9929063 -48.3674083 138.9431497
v 148.6690578 -48.1071667 138.8760326
v 147.7367549 -47.7784212 138.8671944
v 146.3741491 -48.0559626 138.9083128
v 145.4975909 -51.0443485 138.9411305
v 145.7658202 -51.4544029 138.8879492
v 146.0827188 -51.7624060 138.8819555
v 146.4629863 -52.0014239 138.9199012
v 146.8736525 -52.1651733 138.8884927
v 147.1573725 -52.2168558 138.9335525
v 147.5969294 -52.2437827 138.9163728
v 148.1888228 -52.1372440 138.8807217
v 148.7413187 -51.8582321 138.9035343
v 149.4293111 -51.1141464 138.8678759
v 149.6167904 -50.6728270 138.8915882
v 149.6949605 -50.2939426 138.9110695
v 149.7144044 -49.9158429 138.9211037
v 149.0785754 -48.4389839 138.8259499
v 149.0775496 -48.4399413 138.8602839
v 148.6958901 -48.1792827 139.0269440
v 148.8294019 -48.3498462 139.1099162
v 148.8380651 -48.5132402 139.1975016
v 148.3562240 -48.0417929 139.0927311
v 148.4097582 -48.2323830 139.2069753
v 148.7908886 -48.6324269 139.2397935
v 148.2363440 -47.8980780 138.9138848
v 147.9593057 -47.8545070 139.0119551
v 147.9163129 -48.1381934 139.2355906
v 147.5044119 -47.7719824 138.9331663
v 147.8493920 -47.9563274 139.1647187
v 147.0804069 -47.7994952 138.8813613
v 147.6029231 -47.8694190 139.1083272
v 147.3698574 -48.0938417 139.2371060
v 147.0908841 -47.8438412 139.0304068
v 147.1090943 -48.0100030 139.1967881
v 146.6867853 -47.9125000 138.9115806
v 146.8138118 -47.9986326 139.1287554
v 146.5195554 -48.0343158 139.0352115
v 146.6282971 -48.1816260 139.2023600
v 146.1322701 -48.2954471 139.0575877
v 146.3970009 -48.2328217 139.1654582
v 145.9952340 -48.3247440 138.8937117
v 146.4021404 -48.4372351 139.2374543
v 145.8921087 -48.4625952 138.9926471
v 145.7172809 -48.6203562 138.8884608
v 145.9844284 -48.4837761 139.1195613
v 145.6337741 -48.8360969 139.0512629
v 145.9190375 -48.7098038 139.1983334
v 145.4796327 -48.9843497 138.8845013
v 145.6450545 -49.0862116 139.1803344
v 145.4305618 -49.2318718 139.0441757
v 145.3032378 -49.4631800 138.9130403
v 145.8172377 -49.0851444 139.2394460
v 145.5663838 -49.4363504 139.2100456
v 145.2455667 -49.8816597 138.9411580
v 145.3797018 -49.6002944 139.1126059
v 145.3252242 -50.0843536 139.0905411
v 145.2606029 -50.3396229 138.8927665
v 145.4692356 -49.9547413 139.2063365
v 145.5851670 -50.1293105 139.2386471
v 145.4129770 -50.3922518 139.1427562
v 145.3305249 -50.4873816 139.0227306
v 145.3730101 -50.7810389 138.8835075
v 145.5333777 -50.5944855 139.1954857
v 145.5176491 -50.8359630 139.1191677
v 145.6964401 -51.2679125 139.0561267
v 145.7740585 -51.1310519 139.1853945
v 145.8244052 -50.9478945 139.2379367
v 145.9821200 -51.6328925 138.9950300
v 146.0412345 -51.5668262 139.1293419
v 146.2761306 -51.8280912 139.0514114
v 146.6285240 -51.8703061 139.1870686
v 146.1600155 -51.4719993 139.2208132
v 146.7339906 -52.0695083 139.0320761
v 146.3761725 -51.5625082 139.2385239
v 146.9979782 -52.0559207 139.1452371
v 147.3425371 -52.2077475 139.0126082
v 147.1998987 -51.9035614 139.2360674
v 147.6246286 -52.1192142 139.1290761
v 147.5346640 -52.0213021 139.1990174
v 147.9653097 -52.1434541 139.0369619
v 147.8920643 -51.8740056 139.2365171
v 148.4180634 -52.0011473 139.0062359
v 148.1041113 -51.9720566 139.1735549
v 148.3834984 -51.9331453 139.1159739
v 148.5051933 -51.6346510 139.2345879
v 148.7523020 -51.7936444 139.0274162
v 148.6156458 -51.7521973 139.1570952
v 149.1240580 -51.4692969 139.0151205
v 149.1542650 -51.4918445 138.9107850
v 149.0061531 -51.2970807 139.2106049
v 149.0761799 -51.4052323 139.1263930
v 149.4288328 -51.0299102 139.0131067
v 149.3518868 -50.9642809 139.1405299
v 149.5537982 -50.7002950 139.0351954
v 149.3608362 -50.6125596 139.2176357
v 149.0032247 -51.1192994 139.2394104
v 149.5333136 -50.4635724 139.1387589
v 149.6567935 -50.2913486 139.0240725
v 149.3759127 -50.2231646 139.2365418
v 149.6118837 -49.8841478 139.1114793
v 149.5117679 -49.8198750 139.1894945
v 149.6006795 -49.5173473 139.0567831
v 149.6409197 -49.4125845 138.8784639
v 149.5155042 -49.1768902 139.0144860
v 149.4508953 -48.9629128 138.9500646
v 149.3075250 -49.4256561 139.2358128
v 149.3922525 -49.1454422 139.1467965
v 149.2599354 -48.6508857 138.9041215
v 149.1805722 -48.7079480 139.1035622
v 149.1138138 -48.8497202 139.2060318
v 147.7956759 -48.8166218 139.2410000
v 146.6059850 -49.1353777 139.2410000
v 148.6666251 -49.6875415 139.2410000
v 146.2871749 -50.3251217 139.2410000
v 148.3478150 -50.8772855 139.2410000
v 147.1581241 -51.1961098 139.2410000
v 147.7956759 -48.8166218 137.8113588
v 146.6059850 -49.1353777 137.8113588
v 148.6666251 -49.6875415 137.8113588
v 148.3478150 -50.8772855 137.8113588
v 147.1581241 -51.1961098 137.8113588
v 146.2871749 -50.3251217 137.8113588
v 148.1135123 -51.0638208 125.5984720
v 147.5907266 -51.2378811 125.6662246
v 147.8221635 -51.1935305 125.5747334
v 147.1605028 -51.2039701 125.6374680
v 147.4002811 -51.2439465 125.5453056
v 146.8246588 -51.0535377 125.6090087
v 146.9408516 -51.1231278 125.5114912
v 146.2655050 -50.2865805 125.5416830
v 146.3908021 -50.6065702 125.4583854
v 146.2552124 -50.1892354 125.4248603
v 146.2566617 -49.8038654 125.5066155
v 146.4045945 -49.3859930 125.4776675
v 146.6333145 -49.1061257 125.4484689
v 146.4735562 -49.2832028 125.3587488
v 146.9342280 -48.8925639 125.4247078
v 146.8207790 -48.9529288 125.3298064
v 147.3407486 -48.7718409 125.3343717
v 147.8280664 -48.8157775 125.3402019
v 148.0775126 -48.9271288 125.3354416
v 146.7908936 -49.3200139 136.1198093
v 148.4277675 -49.8106526 135.9298134
v 147.6821730 -50.9605086 135.7952875
v 147.2069866 -50.9479820 135.7512109
v 146.9961544 -49.1574493 135.5463702
v 148.2457850 -49.4033376 135.4217043
v 148.4523745 -50.0752252 135.3581962
v 147.1037271 -50.9167030 135.1925311
v 146.5591599 -50.3580252 135.1213823
v 148.0319385 -49.1968072 134.8992001
v 148.0865750 -50.7665980 134.7363500
v 147.1642610 -50.9327477 134.6469296
v 147.0727222 -49.1152580 136.0905084
v 147.8888593 -49.1140184 136.0136780
v 148.3000638 -49.4765779 135.9658912
v 148.6375594 -49.5661699 136.1675871
v 148.4293988 -50.2357982 135.8923125
v 148.1057211 -50.7612630 135.8397774
v 146.7458678 -50.6686905 135.7044806
v 146.5121488 -50.1528535 135.6524653
v 146.5356940 -49.7546186 135.6155578
v 146.4776753 -49.2736225 135.8056681
v 146.6978227 -49.4191960 135.5826790
v 146.7956266 -48.9740363 135.7720548
v 147.2016508 -48.7986219 135.7417901
v 147.6636670 -48.7818132 135.7096005
v 147.4890956 -49.0227954 135.5002658
v 147.9387202 -49.1494757 135.4583124
v 148.4141445 -49.7531853 135.3864800
v 148.2929375 -50.5490994 135.3127803
v 147.8830624 -50.8953230 135.2632028
v 147.5179870 -50.9776354 135.2302737
v 146.7835366 -50.6837050 135.1568413
v 146.3353760 -50.4778058 135.3452752
v 146.5219665 -49.7929416 135.0706396
v 146.7573486 -49.3387770 135.0203942
v 147.1581859 -49.0863469 134.9805862
v 147.5737378 -49.0342122 134.9429604
v 148.2756757 -49.4567903 134.8664821
v 148.7145499 -50.0593467 135.0311007
v 148.4427530 -49.8154439 134.8343991
v 148.6026205 -50.5281157 134.9989316
v 148.3783030 -50.3884615 134.7790136
v 147.9871540 -51.1409327 134.9369176
v 147.5029019 -51.2422577 134.8988173
v 147.6682826 -50.9654445 134.6928971
v 147.0805249 -51.1799768 134.8694490
v 146.8080054 -50.7142940 134.6094307
v 146.2419931 -49.9745352 134.7581403
v 146.5643157 -50.3720789 134.5732588
v 146.5185524 -49.8070598 134.5205819
v 146.7071273 -49.4101512 134.4803343
v 146.9577632 -49.1824781 134.4511704
v 147.3570664 -49.0308199 134.4130026
v 147.7364948 -49.0729231 134.3787192
v 148.0784121 -49.2285070 134.3441976
v 148.3640756 -49.6068492 134.3013887
v 148.7203795 -49.9828884 134.4850565
v 148.4578942 -50.0072908 134.2625737
v 148.3524929 -50.4308513 134.2239032
v 148.0682916 -50.7895366 134.1806039
v 147.5522695 -50.9819747 134.1334412
v 146.6433670 -50.5234228 134.0377609
v 148.2429637 -49.4055171 133.7727766
v 147.5572717 -50.9869875 133.5840060
v 146.5063561 -50.0929107 133.4470773
v 147.6465002 -49.0481203 133.2865291
v 146.5154418 -50.2042054 132.9075658
v 146.5299525 -49.7705053 132.8681331
v 147.5691212 -49.0332079 132.7417113
v 146.6659968 -50.5652682 132.3899575
v 146.5035964 -50.0862011 132.3460404
v 146.6133080 -49.5390473 132.2988081
v 147.8963303 -49.1218274 132.1626131
v 148.3119719 -49.4920141 132.1109795
v 146.8860552 -51.1009605 134.3052204
v 147.0742462 -50.9024540 134.0907492
v 146.5031774 -50.7690068 134.2672431
v 146.4938477 -50.0037376 133.9893179
v 146.5980675 -49.5901167 133.9504759
v 146.8633192 -49.2375466 133.9112167
v 147.2887202 -49.0490804 133.8680258
v 147.6771475 -49.0533567 133.8336640
v 147.9931781 -49.1784151 133.8029582
v 148.4142015 -49.7367138 133.7398347
v 148.4310040 -50.2273211 133.6935614
v 148.2681777 -50.5732675 133.6602636
v 147.9957826 -50.8318294 133.6266947
v 147.6258108 -51.2308850 133.8091961
v 147.2480185 -51.2260064 133.7833667
v 146.9894788 -50.8536829 133.5315550
v 146.2614458 -50.2250081 133.6776391
v 146.6511064 -50.5412943 133.4914010
v 146.2485320 -49.8615548 133.6507464
v 146.5609304 -49.6528235 133.4079600
v 146.8764824 -49.2256076 133.3595485
v 147.3080863 -49.0454073 133.3170734
v 147.9738164 -49.1666756 133.2552139
v 148.2614284 -49.4243440 133.2198387
v 148.4461040 -49.8800572 133.1750694
v 148.6391928 -50.4202150 133.3562346
v 148.1167672 -50.7418564 133.0895504
v 148.3819937 -50.3899148 133.1297422
v 147.7770574 -50.9327156 133.0544024
v 147.4073554 -50.9776647 133.0208024
v 147.0677283 -50.8898473 132.9890194
v 146.7324020 -50.6388936 132.9512803
v 146.6226214 -49.1092110 133.0393731
v 146.7065396 -49.4057033 132.8327001
v 147.1030760 -49.1019862 132.7875837
v 147.5482203 -48.7731514 132.9694604
v 148.0002599 -49.1822781 132.7034394
v 148.4406096 -49.8267574 132.6292906
v 148.4192422 -50.2543813 132.5927928
v 148.2082576 -50.6643415 132.5504218
v 147.7318000 -50.9553259 132.4996528
v 147.0511806 -51.1675279 132.6676737
v 146.7282969 -50.9886352 132.6422768
v 147.1655553 -50.9392891 132.4491881
v 146.4590528 -50.7122329 132.6150012
v 146.2790701 -50.3141417 132.5827914
v 146.2444210 -49.8817440 132.5524504
v 146.6215357 -49.1039427 132.4924579
v 147.0205106 -49.1369314 132.2454986
v 147.4830429 -49.0324767 132.2025501
v 147.0577257 -51.1717993 133.8747297
v 146.6720741 -50.9453174 133.8437555
v 146.3811269 -50.5884889 133.8097129
v 146.2432738 -50.1177831 133.7758276
v 146.3109285 -49.5658022 133.7373686
v 148.6118487 -49.5189226 133.5274467
v 146.3979790 -50.6148749 133.2626530
v 146.2495365 -50.1732588 133.2302408
v 146.2736948 -49.7114530 133.1982334
v 146.4652709 -49.2916109 133.1641218
v 146.7286881 -49.0257131 133.1367277
v 146.7012340 -50.9720041 132.7444291
v 146.4536534 -50.6955216 132.7209231
v 146.2745435 -49.7087411 132.6469654
v 146.4681121 -49.2876835 132.6133259
v 146.7219052 -49.0306616 132.5885391
v 148.2514798 -49.4176536 132.6713796
v 146.2744831 -49.7086813 132.0968925
v 146.4776459 -49.2708170 132.0615118
v 147.0753116 -48.8293245 135.8607509
v 147.4377654 -49.0342708 136.0544087
v 147.2563669 -51.2302738 135.5386420
v 146.5375963 -50.8170779 135.4786951
v 148.6052664 -49.4834333 135.1817479
v 148.4796035 -50.7326923 135.0884137
v 148.1735880 -51.0281052 135.0582859
v 146.2494222 -50.1738860 134.8803831
v 147.1785086 -48.8038225 134.7528923
v 147.8524805 -48.8281420 134.7042949
v 148.3146023 -49.0836252 134.6638577
v 146.3069865 -50.4072109 134.3472064
v 146.2386229 -49.9786147 134.3157547
v 148.1605607 -48.9793053 134.1296570
v 147.8536270 -51.1810583 133.9327747
v 146.7647322 -49.3331767 131.7210889
v 147.9036761 -50.8884081 131.4169457
v 146.5511360 -49.7051308 131.2129824
v 148.1334400 -50.7253689 130.8928680
v 147.4368160 -50.9779375 130.8232542
v 146.7382565 -50.6423398 130.7524921
v 147.7189095 -50.9583759 130.2998368
v 146.7912102 -50.6959622 130.2085473
v 146.5765851 -50.3831587 130.1765527
v 146.5044011 -50.0176271 130.1415819
v 148.4481188 -49.9228889 132.0711214
v 148.4116371 -50.2844559 132.0385349
v 148.2373998 -50.6154205 132.0053580
v 147.9606188 -50.8532294 131.9725530
v 147.7505667 -51.2126467 131.7236962
v 147.5624002 -50.9760732 131.9350508
v 147.3685461 -51.2367752 131.6979057
v 147.0863812 -50.9081498 131.8888789
v 146.6625048 -50.5529143 131.8426384
v 146.5203806 -50.1795228 131.8056181
v 146.5292251 -49.7629021 131.7673830
v 147.1684138 -49.0804648 131.6804387
v 147.4788923 -49.0338544 131.6529561
v 147.8544659 -49.1074175 131.6167862
v 148.1591832 -49.3098985 131.5844261
v 148.3619172 -49.6067359 131.5518626
v 148.6623069 -50.3720152 131.2664347
v 148.2575001 -50.5908169 131.4574982
v 148.1368674 -51.0550608 131.2044887
v 147.3784200 -50.9818094 131.3714620
v 147.7060188 -51.2232839 131.1725192
v 147.2462654 -51.2233956 131.1384829
v 146.9586226 -50.8328005 131.3276029
v 146.6462225 -50.5261378 131.2892911
v 146.5081493 -50.1513578 131.2549510
v 146.7806836 -49.3111895 131.1679148
v 147.2900598 -49.0465111 131.1183889
v 147.7740220 -49.0704410 131.0788606
v 148.1761347 -49.3267421 131.0327753
v 148.3848289 -49.6544527 130.9974032
v 148.5790049 -49.4411055 130.7850936
v 148.7093238 -49.8834408 130.7513684
v 148.4499700 -50.0888104 130.9572183
v 148.3362187 -50.4669535 130.9219383
v 147.8023961 -50.9256723 130.8559025
v 148.1413033 -51.0519830 130.6554460
v 147.1231650 -50.9179253 130.7942283
v 146.5386148 -50.2689853 130.7128278
v 146.5082491 -49.9009554 130.6795830
v 146.9627783 -49.1789247 130.6010817
v 147.4084560 -49.0273387 130.5567346
v 147.8472236 -49.1055541 130.5193926
v 148.1679167 -49.3176092 130.4834686
v 148.3895096 -49.6668546 130.4464490
v 148.4498903 -49.2387292 130.2551607
v 148.4506371 -50.0105365 130.4149439
v 148.3626163 -50.4184070 130.3772492
v 148.6738401 -50.3441008 130.1667389
v 148.5009028 -50.6937773 130.1429873
v 148.1106624 -50.7470065 130.3396759
v 147.0720999 -50.8928346 130.2391489
v 147.6740780 -49.0490594 129.9847516
v 148.1849101 -50.6763956 129.7991901
v 147.8427202 -50.9126276 129.7615355
v 146.8493893 -50.7600400 129.6667255
v 146.6136548 -49.5567301 129.5486037
v 147.5783532 -50.9735563 128.6384004
v 146.9006042 -50.7926281 128.5717554
v 146.6055001 -50.4621852 128.5337930
v 148.4581961 -50.0866661 128.2086567
v 146.5440325 -49.7209172 130.1131057
v 146.7642469 -49.3310750 130.0738436
v 146.8615649 -48.9288884 129.8258721
v 147.2114891 -49.0660764 130.0244726
v 147.6398058 -48.7834916 129.7699996
v 148.2696919 -49.4388311 129.9188561
v 148.4204039 -50.2730855 129.8411206
v 148.5751944 -50.5762888 129.6019511
v 148.3595970 -50.8686670 129.5758785
v 147.2483071 -50.9547681 129.7061795
v 146.5813637 -50.3919379 129.6251533
v 146.4971455 -49.9771304 129.5895849
v 146.2921409 -49.6443515 129.3445027
v 146.5044374 -49.2392714 129.3102469
v 146.9041133 -49.2080259 129.5064072
v 146.8790286 -48.9188118 129.2753956
v 147.4325322 -49.0217637 129.4570376
v 147.9897893 -49.1759069 129.4062215
v 148.2939735 -49.4717192 129.3657916
v 148.4487816 -49.9234459 129.3227634
v 148.3834363 -50.3893362 129.2806377
v 147.7484813 -50.9395827 129.2025787
v 147.4239601 -50.9828466 129.1718116
v 146.9544237 -50.8324141 129.1284536
v 146.5017850 -50.0101638 129.0412162
v 146.6395585 -49.4820356 128.9912195
v 146.2899185 -49.6525588 128.7938022
v 146.4403101 -49.3388980 128.7695837
v 147.0122910 -49.1475919 128.9453766
v 147.5012433 -49.0308697 128.9006078
v 147.8807295 -49.1180854 128.8668621
v 148.1522679 -48.9703752 128.6313961
v 148.4710518 -49.2675834 128.5999667
v 148.2389965 -49.3894599 128.8253845
v 148.4043329 -49.7172788 128.7922922
v 148.6725155 -49.6829992 128.5660987
v 148.3183740 -50.5051939 128.7178786
v 147.9557169 -50.8586334 128.6714395
v 147.2546575 -50.9561010 128.6068294
v 146.5014578 -50.0231232 128.4919527
v 146.5728561 -49.6496816 128.4577439
v 146.7322495 -49.3745630 128.4278815
v 147.0640870 -49.1254555 128.3914487
v 147.3771004 -49.0362617 128.3624294
v 147.9272441 -49.1317895 128.3088207
v 148.3139081 -49.4997689 128.2640929
v 148.2530100 -50.6023711 128.1574430
v 147.3062327 -50.9692766 128.0608266
v 146.5083891 -49.8898397 127.9312595
v 148.1590880 -49.2936089 127.7362533
v 147.7246743 -50.9481461 127.5506984
v 148.3313847 -49.5319198 127.1608686
v 148.4502319 -49.9651700 127.1207694
v 147.1087828 -49.0959749 126.7365178
v 148.1358953 -49.2836886 126.6416317
v 148.1886153 -50.6725276 126.5007981
v 146.7564105 -49.3521289 126.2254843
v 147.7640370 -50.9382226 128.1031503
v 146.9027789 -50.7952455 128.0225330
v 146.5815084 -50.4088027 127.9789126
v 147.1006393 -49.0965612 127.8364769
v 146.7513162 -49.3578938 127.8762697
v 147.5556099 -48.7701685 127.5759096
v 147.6678184 -49.0449651 127.7859354
v 148.0025436 -48.8847653 127.5432786
v 148.3595757 -49.1401708 127.5135692
v 148.6076023 -49.5006188 127.4802230
v 148.4494141 -49.8693227 127.6801987
v 148.3897510 -50.3486599 127.6336143
v 148.1543268 -50.7152628 127.5968364
v 147.3018895 -50.9710578 127.5129529
v 146.9163848 -50.8047837 127.4740498
v 146.6034660 -50.4566138 127.4322535
v 146.5013729 -50.0019015 127.3885605
v 146.3948178 -49.4035994 127.1247962
v 146.7133848 -49.0281324 127.0888768
v 147.0779053 -49.1085824 127.2901601
v 147.5532346 -49.0313551 127.2453890
v 147.9780950 -48.8711573 126.9937071
v 148.0309671 -49.2010318 127.1993736
v 148.6266626 -49.5455472 126.9283908
v 148.7194492 -50.0875356 126.8886011
v 148.3932278 -50.3441640 127.0839917
v 148.1549503 -50.7055049 127.0458627
v 147.8621291 -50.9005661 127.0141329
v 148.0612981 -51.0960494 126.8012621
v 147.4176841 -50.9807836 126.9730762
v 147.7592871 -51.2064422 126.7777885
v 146.9771022 -50.8516702 126.9320348
v 146.6036573 -50.4639335 126.8829273
v 146.2537783 -49.8241574 126.6075484
v 146.3502654 -49.5050760 126.5829348
v 147.6562278 -49.0397709 126.6878397
v 148.1448466 -48.9572629 126.4341322
v 148.3815248 -49.6410941 126.5985948
v 148.4460603 -49.9455201 126.5721756
v 147.8684891 -50.8966706 126.4648567
v 147.5621676 -50.9782289 126.4357940
v 147.1628161 -50.9270870 126.3998671
v 147.1804328 -51.2089484 126.1850343
v 146.8752267 -50.7736070 126.3708908
v 146.8551734 -51.0708817 126.1618622
v 146.5458595 -50.3235278 126.3171121
v 146.5125480 -49.9143325 126.2828930
v 146.5750501 -49.6412966 126.2564185
v 147.1060975 -48.8230624 125.9578331
v 147.0982265 -49.1020455 126.1886760
v 147.3772032 -49.0333424 125.6132628
v 147.4089547 -48.7672140 125.3858205
v 147.7502255 -49.0716242 125.5786194
v 148.1839406 -49.3233574 125.5335416
v 148.3416867 -49.1314623 125.3224806
v 148.4306303 -49.7944599 125.4843224
v 148.5862775 -49.5231436 125.3032117
v 148.4347154 -50.1716356 125.4521345
v 148.0329327 -50.8138450 125.3824048
v 147.4635529 -51.1220338 125.2087979
v 147.1368676 -50.9252561 125.2970402
v 146.7196068 -50.6277961 125.2523749
v 147.5960231 -50.9745339 125.3396871
v 146.6871366 -50.7476951 125.1711009
v 146.5283249 -50.2283592 125.2130948
v 146.5203443 -49.7901042 125.1717517
v 146.7738372 -49.3184709 125.1237150
v 146.5818628 -49.5150803 125.1113577
v 146.8568890 -49.2239855 125.0919508
v 147.1404254 -49.0900431 125.0819001
v 147.2165931 -49.0668531 125.0732314
v 147.2518797 -49.0632969 125.0745352
v 147.2879185 -49.0554323 125.0710583
v 147.4219862 -49.0952691 125.0056136
v 147.6303519 -49.0375962 126.1367004
v 148.1048137 -49.2491575 126.0932929
v 148.4954482 -49.3099113 125.8480044
v 148.4087746 -49.7106534 126.0406120
v 148.4481040 -50.0644720 126.0108929
v 148.7129045 -50.1039392 125.7869711
v 148.0772014 -50.7853101 125.9361470
v 147.9181708 -51.1589116 125.6891037
v 147.5207448 -50.9876784 125.8836996
v 147.1263925 -50.9146465 125.8463185
v 146.7218222 -50.6372225 125.8021851
v 146.5255456 -50.8029691 125.5794361
v 146.5320641 -50.2370604 125.7621998
v 146.5141269 -49.8535614 125.7273125
v 146.6543814 -49.4787631 125.6902420
v 147.0001915 -49.1564842 125.6482942
v 146.9657521 -49.2443364 124.9998774
v 146.6202579 -49.6856082 124.9999292
v 148.2804357 -50.4311007 124.9999761
v 148.5623520 -50.4528071 125.2669822
v 148.3807886 -50.0732889 124.9999739
v 148.6749184 -49.9788417 125.2863120
v 148.3264315 -49.6850263 124.9999667
v 148.1636070 -49.4156820 124.9999934
v 147.8924510 -49.2019908 124.9999871
v 147.6179499 -49.1121652 124.9999821
v 147.2087020 -49.0104621 125.1271537
v 146.4405321 -49.9258799 125.1314684
v 146.5961748 -50.2684504 124.9998526
v 146.4676036 -50.3213542 125.1498947
v 146.8763036 -50.6850275 124.9999790
v 147.0700635 -51.0272235 125.1921770
v 147.2790959 -50.8981857 124.9998759
v 147.7213743 -50.8789041 124.9999679
v 148.0223882 -50.7317868 124.9999475
v 147.9132634 -51.0617872 125.2296079
v 148.3300035 -50.7884992 125.2485949
v 148.7093445 -50.0639960 126.2325458
v 148.3792541 -50.3722855 125.9826948
v 148.1993614 -51.0074510 126.1549261
v 146.6566115 -50.9373931 126.0336320
v 146.3749342 -49.4408448 125.9221030
v 147.2053723 -48.7975155 125.8443788
v 148.3214903 -50.4921783 125.4213675
v 148.4762673 -50.7494842 125.6341998
v 146.6451032 -50.9175799 125.4843980
v 146.2627523 -49.7379395 125.3920649
v 148.1026255 -48.9317166 126.3288308
v 148.0114356 -50.8154176 128.1292168
v 146.5956267 -49.5999007 127.9015272
v 148.2979384 -49.0853802 127.9610228
v 148.5427573 -49.3708084 127.9367738
v 148.6580012 -50.3796953 127.8615462
v 146.8246989 -51.0536308 127.7007593
v 146.5470897 -50.8248485 127.6757230
v 146.2440622 -49.9294480 127.6084479
v 146.6356694 -49.5020425 127.3456742
v 146.8946121 -48.9129406 127.5175483
v 147.3347037 -48.7759281 127.4856122
v 146.5028240 -49.9169038 126.8351148
v 146.6962062 -49.4099269 126.7830047
v 148.6371551 -49.5720168 126.8177643
v 148.4012152 -50.3190781 126.5376306
v 146.3162518 -50.4390936 126.5437046
v 146.2476314 -49.8411580 130.3508716
v 148.0092760 -49.1930524 129.9529063
v 148.3834458 -49.1590082 130.1546007
v 148.4426969 -49.8409372 129.8818045
v 147.5394288 -50.9734639 129.7335147
v 147.2091296 -51.2158525 129.9300341
v 146.7789334 -51.0296588 129.8966174
v 146.4400804 -50.6878891 129.8641721
v 148.4094940 -49.1971536 129.6009600
v 148.6206119 -49.5185431 129.5745237
v 148.0831642 -50.7711900 129.2376178
v 146.6133358 -50.4737845 129.0872034
v 146.2806276 -49.7084925 129.2405559
v 146.4059155 -49.3838764 129.2166964
v 146.6935307 -49.0492849 129.1832173
v 147.0716846 -48.8356780 129.1532059
v 148.4205219 -49.2005607 129.0497257
v 148.4531474 -50.0574938 128.7630455
v 148.3618290 -50.8660868 128.9194233
v 146.7495681 -51.0090138 128.7951470
v 146.2639879 -49.7794715 128.6956596
v 148.5641018 -49.4131076 132.3308280
v 148.6910357 -50.2250095 132.2707210
v 148.5871722 -50.5517516 132.2449846
v 148.1384201 -51.0570339 132.1982639
v 146.5522850 -50.8231423 132.0751511
v 146.3622537 -50.5425627 132.0501219
v 148.4486709 -49.9227774 131.5225325
v 148.4014801 -50.3080406 131.4864718
v 148.2373750 -50.9803681 131.6576566
v 148.1160343 -48.9449945 131.2749599
v 148.4775771 -49.2725409 131.2421082
v 148.6805024 -49.7135279 131.2086268
v 148.7050211 -50.1520245 131.1749216
v 148.2773574 -50.9472475 131.1091166
v 146.3524183 -50.5368713 130.9523045
v 146.2432028 -50.0668615 130.9142363
v 146.6620401 -49.4607861 130.6379623
v 148.6114031 -49.5087361 130.6724937
v 147.3592057 -50.9678385 130.2670672
f 3 1 41
f 3 41 2
f 5 3 2
f 5 2 4
f 5 4 6
f 7 5 6
f 7 6 8
f 9 7 8
f 11 9 8
f 11 8 10
f 13 11 10
f 13 10 12
f 693 12 14
f 693 13 12
f 17 693 14
f 17 14 15
f 16 693 17
f 695 693 16
f 19 17 15
f 19 15 18
f 696 695 816
f 22 19 18
f 22 18 20
f 697 696 21
f 25 22 20
f 25 20 23
f 27 697 24
f 29 25 23
f 29 23 26
f 31 27 28
f 687 29 26
f 687 26 30
f 33 31 32
f 35 687 30
f 35 30 36
f 40 33 34
f 39 35 36
f 39 36 37
f 1 39 37
f 43 40 38
f 1 37 41
f 16 816 695
f 816 21 696
f 21 24 697
f 24 28 27
f 28 32 31
f 32 34 33
f 34 38 40
f 38 42 43
f 44 43 42
f 44 42 45
f 46 44 45
f 818 46 45
f 47 46 818
f 49 47 818
f 48 49 818
f 50 49 48
f 819 50 48
f 705 50 819
f 51 705 819
f 53 705 51
f 52 53 51
f 55 53 52
f 54 55 52
f 57 55 54
f 56 57 54
f 59 57 56
f 58 59 56
f 61 59 58
f 60 61 58
f 63 61 60
f 62 63 60
f 65 63 62
f 64 65 62
f 66 65 64
f 820 66 64
f 67 66 820
f 68 67 820
f 711 67 68
f 69 711 68
f 713 711 69
f 821 713 69
f 70 713 821
f 822 70 821
f 715 70 822
f 71 715 822
f 716 715 71
f 72 716 71
f 718 716 72
f 74 718 72
f 73 74 72
f 75 74 73
f 76 74 75
f 823 76 75
f 720 76 823
f 77 720 823
f 79 720 77
f 78 79 77
f 81 79 78
f 80 81 78
f 82 81 80
f 824 82 80
f 84 82 824
f 83 84 824
f 825 84 83
f 85 84 825
f 826 85 825
f 86 85 826
f 88 86 826
f 87 88 826
f 729 88 87
f 89 729 87
f 91 729 89
f 90 91 89
f 93 91 90
f 92 93 90
f 95 93 92
f 94 95 92
f 97 95 94
f 96 97 94
f 98 97 96
f 99 98 96
f 747 98 99
f 749 747 99
f 100 749 99
f 101 749 100
f 827 101 100
f 102 101 827
f 828 102 827
f 104 102 828
f 103 104 828
f 106 104 103
f 105 106 103
f 108 106 105
f 107 108 105
f 110 108 107
f 109 110 107
f 112 110 109
f 111 112 109
f 113 112 111
f 829 113 111
f 114 113 829
f 115 113 114
f 116 115 114
f 117 115 116
f 118 117 116
f 119 117 118
f 121 119 118
f 120 121 118
f 123 121 120
f 122 123 120
f 124 123 122
f 124 122 830
f 760 830 125
f 760 124 830
f 761 760 125
f 797 761 125
f 126 761 797
f 798 126 797
f 799 126 798
f 127 126 799
f 763 127 799
f 800 763 799
f 765 763 800
f 801 765 800
f 129 765 801
f 128 129 801
f 131 129 128
f 130 131 128
f 133 131 130
f 132 133 130
f 135 133 132
f 134 135 132
f 137 135 134
f 136 137 134
f 138 137 136
f 802 138 136
f 140 138 802
f 139 140 802
f 142 140 139
f 141 142 139
f 772 142 141
f 144 772 141
f 143 144 141
f 146 144 143
f 145 146 143
f 146 145 147
f 149 146 147
f 148 149 147
f 151 149 148
f 150 151 148
f 152 151 150
f 803 152 150
f 153 152 803
f 804 153 803
f 154 153 804
f 805 154 804
f 155 154 805
f 806 155 805
f 779 155 806
f 807 779 806
f 156 779 807
f 158 779 156
f 157 158 156
f 782 158 157
f 159 782 157
f 160 782 159
f 161 160 159
f 162 160 161
f 163 162 161
f 165 162 163
f 164 165 163
f 166 165 164
f 167 166 164
f 169 166 167
f 169 167 168
f 171 169 168
f 170 171 168
f 173 171 170
f 172 173 170
f 175 173 172
f 174 175 172
f 788 175 174
f 788 174 808
f 789 788 808
f 791 789 808
f 791 808 809
f 791 809 176
f 792 791 176
f 793 792 176
f 793 176 810
f 177 793 810
f 177 810 811
f 794 177 811
f 794 811 812
f 794 812 178
f 180 794 178
f 180 178 179
f 182 180 179
f 181 182 179
f 184 182 181
f 184 181 183
f 1117 184 183
f 185 1117 183
f 187 1117 185
f 186 187 185
f 1118 187 186
f 188 1118 186
f 1119 1118 188
f 189 1119 188
f 190 1119 189
f 1120 190 189
f 191 1120 189
f 193 191 192
f 193 1120 191
f 195 193 192
f 194 195 192
f 197 195 194
f 196 197 194
f 1121 197 196
f 198 1121 196
f 1122 1121 198
f 200 1122 198
f 199 200 198
f 201 200 199
f 814 201 199
f 202 201 814
f 815 202 814
f 204 202 815
f 203 204 815
f 206 204 203
f 205 206 203
f 207 206 205
f 209 207 205
f 208 209 205
f 209 208 210
f 211 209 210
f 213 211 210
f 213 210 212
f 213 212 214
f 215 213 214
f 217 214 216
f 217 215 214
f 217 216 218
f 219 217 218
f 1125 219 218
f 220 1125 218
f 221 1125 220
f 845 221 220
f 223 221 845
f 847 223 845
f 222 223 847
f 225 223 222
f 224 225 222
f 227 225 224
f 226 227 224
f 229 227 226
f 228 229 226
f 231 229 228
f 230 231 228
f 232 231 230
f 233 232 230
f 235 232 233
f 234 235 233
f 237 235 234
f 236 237 234
f 239 237 236
f 238 239 236
f 1126 239 238
f 240 1126 238
f 241 1126 240
f 1127 1126 241
f 242 1127 241
f 1128 1127 242
f 243 1128 242
f 1129 1128 243
f 857 1129 243
f 244 1129 857
f 244 857 245
f 1130 244 245
f 859 1130 245
f 246 1130 859
f 246 859 861
f 247 246 861
f 862 247 861
f 248 247 862
f 249 248 862
f 251 248 249
f 250 251 249
f 1131 251 250
f 252 1131 250
f 253 1131 252
f 1132 1131 253
f 254 1132 253
f 255 1132 254
f 256 255 254
f 258 255 256
f 257 258 256
f 260 258 257
f 259 260 257
f 262 260 259
f 261 262 259
f 264 262 261
f 263 264 261
f 266 264 263
f 265 266 263
f 871 266 265
f 1134 266 871
f 872 1134 871
f 267 1134 872
f 268 267 872
f 270 267 268
f 269 270 268
f 271 270 269
f 876 271 269
f 272 271 876
f 274 272 876
f 273 274 876
f 276 274 273
f 275 276 273
f 278 276 275
f 277 278 275
f 280 278 277
f 279 280 277
f 282 280 279
f 281 282 279
f 1096 282 281
f 283 1096 281
f 285 1096 283
f 284 285 283
f 287 285 284
f 286 287 284
f 290 287 286
f 288 290 286
f 289 290 288
f 291 290 289
f 293 291 289
f 292 293 289
f 1098 293 292
f 885 1098 292
f 295 1098 885
f 294 295 885
f 296 295 294
f 888 296 294
f 297 296 888
f 889 297 888
f 299 297 889
f 298 299 889
f 299 298 300
f 302 299 300
f 301 302 300
f 1101 302 301
f 303 1101 301
f 1102 1101 303
f 304 1102 303
f 1103 1102 304
f 1103 304 305
f 307 1103 305
f 307 305 306
f 309 307 306
f 309 306 308
f 311 309 308
f 311 308 310
f 312 310 903
f 312 311 310
f 314 312 903
f 314 903 313
f 316 313 905
f 316 314 313
f 316 905 315
f 317 316 315
f 317 315 318
f 1104 317 318
f 1105 1104 318
f 1105 318 319
f 321 1105 319
f 321 319 320
f 321 320 908
f 322 321 908
f 324 322 908
f 909 324 908
f 323 324 909
f 326 324 323
f 325 326 323
f 328 326 325
f 327 328 325
f 330 328 327
f 329 330 327
f 332 330 329
f 331 332 329
f 334 332 331
f 333 334 331
f 336 334 333
f 335 336 333
f 913 336 335
f 1108 336 913
f 1109 1108 913
f 914 1109 913
f 1110 1109 914
f 916 1110 914
f 1111 1110 916
f 337 1111 916
f 338 1111 337
f 340 338 337
f 339 340 337
f 341 340 339
f 1112 340 341
f 342 1112 341
f 344 1112 342
f 343 344 342
f 346 344 343
f 345 346 343
f 348 346 345
f 347 348 345
f 1114 348 347
f 349 1114 347
f 350 1114 349
f 350 349 351
f 352 350 351
f 354 352 351
f 353 354 351
f 1115 354 353
f 355 1115 353
f 356 1115 355
f 358 1115 356
f 357 358 356
f 360 358 357
f 359 360 357
f 1116 360 359
f 927 1116 359
f 362 1116 927
f 928 362 927
f 361 362 928
f 364 362 361
f 363 364 361
f 366 364 363
f 365 366 363
f 368 366 365
f 367 368 365
f 932 368 367
f 369 368 932
f 933 369 932
f 370 369 933
f 371 370 933
f 936 371 933
f 373 371 936
f 372 373 936
f 375 373 372
f 374 375 372
f 377 375 374
f 376 377 374
f 379 377 376
f 378 379 376
f 381 379 378
f 380 381 378
f 383 381 380
f 382 383 380
f 385 383 382
f 384 385 382
f 387 385 384
f 386 387 384
f 389 387 386
f 388 389 386
f 391 389 388
f 390 391 388
f 393 391 390
f 392 393 390
f 395 393 392
f 394 395 392
f 397 395 394
f 396 397 394
f 399 397 396
f 398 399 396
f 1082 399 398
f 400 1082 398
f 1083 1082 400
f 401 1083 400
f 403 1083 401
f 402 403 401
f 1084 403 402
f 404 1084 402
f 406 1084 404
f 405 406 404
f 408 406 405
f 407 408 405
f 410 408 407
f 409 410 407
f 412 410 409
f 411 412 409
f 1085 412 411
f 413 1085 411
f 1086 1085 413
f 414 1086 413
f 416 1086 414
f 415 416 414
f 1087 416 415
f 417 1087 415
f 418 1087 417
f 419 418 417
f 420 418 419
f 421 420 419
f 1089 420 421
f 422 1089 421
f 1090 1089 422
f 963 1090 422
f 423 1090 963
f 965 423 963
f 424 423 965
f 966 424 965
f 425 424 966
f 967 425 966
f 426 425 967
f 428 426 967
f 427 428 967
f 430 428 427
f 430 427 429
f 432 430 429
f 431 432 429
f 433 432 431
f 435 433 431
f 434 435 431
f 436 435 434
f 438 435 436
f 437 438 436
f 440 438 437
f 439 440 437
f 442 440 439
f 441 442 439
f 444 442 441
f 443 444 441
f 445 444 443
f 446 444 445
f 975 446 445
f 447 446 975
f 976 447 975
f 448 447 976
f 449 448 976
f 450 448 449
f 451 450 449
f 452 450 451
f 979 452 451
f 454 452 979
f 453 454 979
f 455 454 453
f 981 455 453
f 1093 455 981
f 982 1093 981
f 456 1093 982
f 458 456 982
f 458 982 457
f 460 458 457
f 459 460 457
f 461 460 459
f 986 461 459
f 988 461 986
f 463 461 988
f 462 463 988
f 465 463 462
f 464 465 462
f 468 465 464
f 466 468 464
f 467 468 466
f 1095 468 467
f 469 1095 467
f 470 1095 469
f 991 470 469
f 992 470 991
f 472 470 992
f 471 472 992
f 474 472 471
f 473 474 471
f 476 474 473
f 475 476 473
f 478 476 475
f 477 478 475
f 1079 478 477
f 994 1079 477
f 480 1079 994
f 479 480 994
f 482 480 479
f 481 482 479
f 1069 482 481
f 483 1069 481
f 485 1069 483
f 485 483 484
f 487 485 484
f 486 487 484
f 1071 487 486
f 489 1071 486
f 488 489 486
f 490 489 488
f 1000 490 488
f 491 490 1000
f 1002 491 1000
f 1072 491 1002
f 492 1072 1002
f 494 1072 492
f 493 494 492
f 496 494 493
f 495 496 493
f 497 496 495
f 1073 496 497
f 498 1073 497
f 499 1073 498
f 1006 499 498
f 1074 499 1006
f 500 1074 1006
f 502 1074 500
f 501 502 500
f 504 502 501
f 503 504 501
f 505 504 503
f 1034 505 503
f 507 505 1034
f 506 507 1034
f 1037 507 506
f 509 507 1037
f 509 1037 508
f 1076 509 508
f 1076 508 510
f 511 20 514
f 20 18 514
f 512 23 511
f 511 23 20
f 513 23 512
f 18 15 514
f 514 15 515
f 516 26 513
f 513 26 23
f 515 15 518
f 517 26 516
f 15 14 518
f 14 12 518
f 517 30 26
f 518 12 520
f 519 30 517
f 12 10 520
f 519 36 30
f 10 522 520
f 519 521 36
f 36 521 37
f 8 522 10
f 8 524 522
f 521 523 37
f 37 523 41
f 523 525 41
f 6 527 8
f 8 527 524
f 525 526 41
f 41 526 2
f 6 528 527
f 4 528 6
f 2 526 4
f 4 526 528
f 530 529 516
f 530 516 513
f 531 530 513
f 555 513 512
f 555 531 513
f 555 512 511
f 532 555 511
f 558 532 511
f 560 558 511
f 560 511 514
f 565 560 514
f 533 565 514
f 533 514 515
f 571 533 515
f 571 515 518
f 574 571 518
f 578 574 518
f 578 518 520
f 581 578 520
f 584 581 520
f 584 520 522
f 587 584 522
f 592 587 522
f 592 522 524
f 534 592 524
f 535 534 524
f 536 535 524
f 536 524 527
f 537 536 527
f 538 537 527
f 538 527 528
f 539 538 528
f 540 528 526
f 540 539 528
f 541 540 526
f 541 526 525
f 542 541 525
f 619 542 525
f 619 525 523
f 543 619 523
f 543 523 521
f 544 543 521
f 545 544 521
f 546 545 521
f 546 521 519
f 633 546 519
f 633 519 517
f 635 633 517
f 638 635 517
f 547 517 516
f 547 638 517
f 547 547 516
f 529 547 516
f 529 529 516
f 548 547 547
f 548 547 529
f 548 529 529
f 548 638 547
f 530 548 529
f 549 550 530
f 549 530 531
f 553 551 550
f 555 549 531
f 552 549 555
f 552 550 549
f 554 551 553
f 552 553 550
f 556 552 555
f 556 555 532
f 559 552 556
f 559 553 552
f 557 554 553
f 557 553 559
f 561 559 556
f 558 556 532
f 561 556 558
f 562 557 559
f 563 558 560
f 561 558 563
f 564 559 561
f 562 559 564
f 564 561 563
f 565 563 560
f 566 564 563
f 567 563 565
f 567 566 563
f 567 565 533
f 564 566 568
f 570 566 567
f 570 568 566
f 568 562 564
f 572 562 568
f 569 567 533
f 569 533 571
f 569 570 567
f 573 569 571
f 572 568 570
f 575 570 569
f 573 571 574
f 575 569 573
f 577 570 575
f 577 572 570
f 576 573 574
f 576 574 578
f 576 575 573
f 582 572 577
f 576 577 575
f 580 576 578
f 579 577 576
f 582 577 579
f 580 578 581
f 579 576 580
f 583 582 579
f 585 579 580
f 585 580 581
f 583 579 585
f 584 585 581
f 588 583 585
f 586 585 584
f 589 583 588
f 589 582 583
f 586 584 587
f 586 588 585
f 591 586 587
f 590 586 591
f 590 588 586
f 591 587 592
f 593 588 590
f 593 590 591
f 534 591 592
f 589 588 593
f 594 593 591
f 594 591 534
f 597 589 593
f 595 594 534
f 535 595 534
f 596 593 594
f 596 594 595
f 597 593 596
f 598 595 535
f 598 535 536
f 598 599 595
f 599 596 595
f 602 597 596
f 602 596 599
f 600 598 536
f 604 597 602
f 600 599 598
f 537 600 536
f 601 602 599
f 601 599 600
f 603 600 537
f 601 600 603
f 603 537 538
f 604 602 601
f 605 601 603
f 539 603 538
f 605 603 539
f 607 604 601
f 606 605 539
f 606 539 540
f 607 601 605
f 608 605 606
f 607 605 609
f 608 606 540
f 609 605 608
f 610 608 540
f 610 540 541
f 611 607 609
f 609 608 613
f 612 610 541
f 613 608 610
f 611 609 613
f 614 613 610
f 614 610 612
f 542 612 541
f 616 612 542
f 615 611 613
f 616 614 612
f 617 614 616
f 617 613 614
f 617 615 613
f 618 542 619
f 618 616 542
f 621 617 616
f 621 616 618
f 620 617 621
f 615 617 620
f 626 615 620
f 622 619 543
f 622 618 619
f 622 621 618
f 623 621 622
f 623 620 621
f 544 622 543
f 624 622 544
f 624 623 622
f 625 620 623
f 627 623 624
f 628 624 544
f 625 626 620
f 545 628 544
f 625 623 627
f 627 624 628
f 629 626 625
f 546 628 545
f 630 627 628
f 631 625 627
f 629 625 631
f 631 627 630
f 630 628 546
f 632 546 633
f 630 546 632
f 636 629 631
f 634 632 633
f 631 630 632
f 634 633 635
f 637 631 632
f 637 632 634
f 636 631 637
f 637 634 635
f 639 637 635
f 640 636 637
f 638 548 530
f 639 635 638
f 640 637 639
f 554 636 640
f 530 639 638
f 639 530 550
f 639 550 551
f 640 639 551
f 554 640 551
f 641 554 557
f 641 557 562
f 642 562 572
f 642 572 582
f 642 641 562
f 643 554 641
f 643 636 554
f 629 636 643
f 644 642 582
f 644 582 589
f 597 644 589
f 645 626 629
f 645 629 643
f 604 646 644
f 604 644 597
f 615 626 645
f 607 646 604
f 611 615 645
f 611 645 646
f 611 646 607
f 641 642 647
f 647 642 648
f 643 641 649
f 649 641 647
f 645 643 650
f 650 643 649
f 646 645 651
f 651 645 650
f 644 646 652
f 652 646 651
f 642 644 648
f 648 644 652
f 647 648 652
f 649 652 651
f 649 651 650
f 649 647 652
f 653 1076 510
f 1039 653 510
f 655 653 1039
f 655 1039 654
f 657 655 654
f 657 654 656
f 659 657 656
f 659 656 658
f 1077 658 1043
f 1077 659 658
f 661 1077 1043
f 661 1043 660
f 662 661 660
f 1078 660 663
f 1078 662 660
f 1078 663 664
f 666 1078 664
f 666 664 665
f 668 666 665
f 668 665 667
f 669 668 667
f 669 667 1009
f 670 669 1009
f 17 684 672
f 22 684 19
f 35 688 673
f 696 698 676
f 31 677 27
f 31 700 677
f 40 701 678
f 50 679 49
f 67 712 66
f 79 722 720
f 98 733 97
f 19 684 17
f 684 22 817
f 25 685 22
f 22 685 817
f 29 685 25
f 686 685 29
f 687 686 29
f 673 687 35
f 686 687 673
f 35 39 688
f 39 1 688
f 688 1 689
f 3 689 1
f 689 3 674
f 3 5 674
f 674 5 675
f 675 7 690
f 5 7 675
f 7 9 690
f 9 11 690
f 690 11 691
f 13 691 11
f 692 691 13
f 693 692 13
f 694 692 693
f 676 693 695
f 694 693 676
f 696 676 695
f 698 696 697
f 699 697 27
f 698 697 699
f 699 27 677
f 31 33 700
f 700 33 678
f 33 40 678
f 40 43 701
f 43 44 701
f 701 44 702
f 702 46 703
f 44 46 702
f 703 47 679
f 46 47 703
f 47 49 679
f 50 704 679
f 680 704 50
f 680 705 53
f 50 705 680
f 706 53 55
f 680 53 706
f 707 706 55
f 55 57 707
f 57 59 707
f 707 59 708
f 708 61 709
f 59 61 708
f 61 63 709
f 709 63 681
f 681 65 66
f 63 65 681
f 66 710 681
f 712 710 66
f 711 712 67
f 714 711 713
f 712 711 714
f 682 713 70
f 714 713 682
f 715 682 70
f 682 715 717
f 717 715 716
f 717 716 683
f 683 716 718
f 683 718 719
f 719 718 74
f 721 74 76
f 719 74 721
f 76 720 721
f 721 720 722
f 723 722 79
f 79 81 723
f 723 81 724
f 724 82 725
f 81 82 724
f 82 84 725
f 85 726 84
f 84 726 725
f 727 726 85
f 85 86 727
f 86 88 727
f 727 88 728
f 88 730 728
f 729 730 88
f 731 729 91
f 730 729 731
f 91 93 731
f 731 93 732
f 93 95 732
f 732 97 733
f 95 97 732
f 672 16 17
f 113 754 112
f 117 735 115
f 133 767 131
f 140 770 138
f 782 741 158
f 169 785 166
f 182 796 180
f 184 746 745
f 747 748 98
f 98 748 733
f 734 747 749
f 748 747 734
f 734 749 101
f 102 750 101
f 101 750 734
f 751 750 104
f 104 750 102
f 104 106 751
f 751 106 752
f 106 108 752
f 108 110 752
f 752 110 753
f 753 110 112
f 753 112 754
f 113 755 754
f 115 735 113
f 113 735 755
f 117 756 735
f 117 119 756
f 756 119 757
f 119 121 757
f 757 121 758
f 121 123 758
f 758 123 759
f 124 759 123
f 736 759 124
f 124 760 736
f 736 760 761
f 736 761 762
f 762 761 126
f 764 762 126
f 127 764 126
f 737 763 765
f 764 763 737
f 127 763 764
f 737 765 766
f 766 765 129
f 767 766 129
f 129 131 767
f 767 133 768
f 133 135 768
f 768 135 738
f 135 137 738
f 738 137 769
f 769 138 770
f 137 138 769
f 770 140 771
f 140 142 771
f 771 142 774
f 142 772 774
f 774 772 144
f 773 144 146
f 144 773 774
f 773 146 775
f 775 146 149
f 775 149 776
f 149 151 776
f 776 151 777
f 151 152 777
f 777 152 778
f 152 153 778
f 778 153 739
f 153 154 739
f 155 740 154
f 154 740 739
f 155 780 740
f 779 780 155
f 781 779 158
f 780 779 781
f 741 781 158
f 741 782 160
f 162 783 160
f 160 783 741
f 813 162 165
f 783 162 813
f 165 784 813
f 166 784 165
f 785 784 166
f 786 785 169
f 169 171 786
f 173 787 171
f 171 787 786
f 173 175 787
f 787 175 790
f 175 788 790
f 788 789 790
f 790 789 742
f 742 789 791
f 742 791 792
f 743 792 793
f 742 792 743
f 744 793 177
f 743 793 744
f 794 744 177
f 795 794 180
f 744 794 795
f 795 180 796
f 745 796 182
f 182 184 745
f 735 802 136
f 758 143 141
f 771 164 163
f 776 174 172
f 777 808 174
f 783 183 181
f 745 208 205
f 746 210 745
f 748 797 733
f 733 797 125
f 734 798 748
f 748 798 797
f 734 799 798
f 750 800 734
f 734 800 799
f 751 801 750
f 750 801 800
f 128 751 752
f 801 751 128
f 130 128 752
f 752 753 130
f 130 753 132
f 754 132 753
f 134 132 754
f 136 134 755
f 755 134 754
f 735 136 755
f 756 802 735
f 139 802 756
f 757 139 756
f 141 139 757
f 141 757 758
f 145 143 759
f 759 143 758
f 736 145 759
f 147 145 736
f 148 147 736
f 762 148 736
f 150 148 762
f 150 762 764
f 764 803 150
f 737 804 764
f 764 804 803
f 737 766 804
f 766 805 804
f 766 806 805
f 767 806 766
f 767 807 806
f 156 807 767
f 156 768 157
f 767 768 156
f 768 738 157
f 157 738 159
f 161 159 769
f 769 159 738
f 769 770 161
f 161 770 163
f 771 163 770
f 167 771 774
f 164 771 167
f 168 167 774
f 774 773 168
f 168 773 170
f 775 170 773
f 172 170 775
f 776 172 775
f 777 174 776
f 778 808 777
f 176 809 739
f 739 809 778
f 778 809 808
f 740 810 739
f 739 810 176
f 740 811 810
f 780 811 740
f 780 812 811
f 781 812 780
f 178 812 781
f 179 178 741
f 741 178 781
f 741 783 179
f 179 783 181
f 783 813 183
f 183 813 185
f 186 185 784
f 784 185 813
f 785 186 784
f 188 186 785
f 786 188 785
f 189 188 786
f 191 189 786
f 192 191 787
f 787 191 786
f 194 787 790
f 192 787 194
f 196 194 790
f 742 196 790
f 198 196 742
f 198 743 199
f 742 743 198
f 743 814 199
f 744 814 743
f 744 815 814
f 744 795 815
f 815 795 203
f 205 795 796
f 203 795 205
f 745 205 796
f 210 208 745
f 684 16 672
f 686 32 28
f 688 34 673
f 676 58 56
f 700 820 677
f 701 69 678
f 682 94 92
f 723 105 103
f 725 111 109
f 684 816 16
f 816 817 21
f 684 817 816
f 685 21 817
f 24 21 685
f 686 24 685
f 28 24 686
f 686 673 32
f 32 673 34
f 34 688 38
f 689 38 688
f 42 38 689
f 45 42 689
f 689 674 45
f 675 818 674
f 674 818 45
f 48 675 690
f 818 675 48
f 690 819 48
f 691 51 690
f 690 51 819
f 691 52 51
f 692 52 691
f 54 692 694
f 52 692 54
f 676 54 694
f 56 54 676
f 676 698 58
f 60 58 698
f 699 60 698
f 62 60 699
f 677 64 699
f 699 64 62
f 677 820 64
f 68 700 678
f 820 700 68
f 69 68 678
f 701 821 69
f 701 822 821
f 702 822 701
f 71 702 703
f 822 702 71
f 71 703 72
f 72 703 679
f 73 72 679
f 75 704 680
f 73 704 75
f 679 704 73
f 823 75 680
f 706 823 680
f 77 823 706
f 707 77 706
f 78 77 707
f 78 707 80
f 708 80 707
f 824 80 708
f 83 824 709
f 709 824 708
f 681 825 709
f 709 825 83
f 681 826 825
f 681 710 826
f 87 710 712
f 826 710 87
f 89 87 712
f 90 89 714
f 714 89 712
f 92 90 682
f 682 90 714
f 682 717 94
f 94 717 96
f 99 96 683
f 683 96 717
f 99 683 719
f 99 719 100
f 100 719 721
f 721 827 100
f 722 828 721
f 721 828 827
f 103 722 723
f 828 722 103
f 107 723 724
f 105 723 107
f 109 107 725
f 725 107 724
f 111 726 727
f 725 726 111
f 114 829 727
f 727 829 111
f 116 114 728
f 728 114 727
f 730 116 728
f 118 116 730
f 120 730 731
f 118 730 120
f 120 731 732
f 120 732 122
f 732 830 122
f 125 830 733
f 733 830 732
f 846 847 845
f 1123 242 856
f 863 250 249
f 864 252 250
f 866 256 254
f 878 281 279
f 886 888 294
f 840 306 839
f 210 746 212
f 212 841 214
f 746 841 212
f 841 842 214
f 214 842 216
f 842 843 216
f 216 843 218
f 843 844 218
f 218 844 220
f 846 845 844
f 844 845 220
f 848 847 846
f 222 847 848
f 222 848 224
f 848 849 224
f 224 849 226
f 228 849 850
f 228 226 849
f 230 228 851
f 851 228 850
f 233 851 831
f 230 851 233
f 233 831 234
f 852 234 831
f 236 234 852
f 236 853 238
f 852 853 236
f 238 854 240
f 853 854 238
f 854 855 240
f 240 855 241
f 856 241 855
f 242 241 856
f 242 1123 243
f 1124 857 1123
f 1123 857 243
f 1124 858 857
f 857 858 245
f 832 859 858
f 858 859 245
f 832 861 859
f 860 861 832
f 860 862 861
f 862 863 249
f 860 863 862
f 863 864 250
f 864 865 252
f 252 865 253
f 254 865 833
f 253 865 254
f 866 254 833
f 256 866 257
f 867 257 866
f 259 257 867
f 261 867 868
f 259 867 261
f 263 261 868
f 868 869 263
f 263 869 265
f 870 871 869
f 869 871 265
f 873 872 870
f 870 872 871
f 269 873 874
f 872 873 268
f 268 873 269
f 834 269 874
f 875 876 834
f 834 876 269
f 273 875 835
f 876 875 273
f 275 835 877
f 273 835 275
f 277 877 836
f 275 877 277
f 277 836 279
f 836 878 279
f 878 879 281
f 281 879 283
f 284 283 1133
f 1133 283 879
f 284 1133 286
f 286 1133 880
f 288 880 881
f 286 880 288
f 288 881 289
f 289 882 292
f 881 882 289
f 292 883 885
f 882 883 292
f 884 885 883
f 294 885 884
f 886 294 884
f 887 888 886
f 298 889 890
f 890 889 887
f 887 889 888
f 300 890 837
f 300 298 890
f 301 300 837
f 837 1135 301
f 301 1135 303
f 303 1135 891
f 303 891 304
f 304 891 838
f 305 838 839
f 304 838 305
f 306 305 839
f 892 313 904
f 1099 320 319
f 893 908 907
f 894 323 893
f 918 339 917
f 899 384 382
f 941 390 388
f 900 402 401
f 306 901 308
f 840 901 306
f 308 902 310
f 901 902 308
f 904 903 902
f 902 903 310
f 903 904 313
f 892 905 313
f 315 905 892
f 892 1097 315
f 315 1097 318
f 1097 906 318
f 906 1099 318
f 318 1099 319
f 320 1099 907
f 907 908 320
f 893 909 908
f 323 909 893
f 325 323 894
f 894 1100 325
f 325 1100 327
f 327 1100 910
f 329 910 895
f 327 910 329
f 895 331 329
f 331 911 333
f 895 911 331
f 911 912 333
f 333 912 335
f 913 912 896
f 912 913 335
f 915 914 896
f 896 914 913
f 915 916 914
f 916 917 337
f 915 917 916
f 339 337 917
f 341 339 918
f 918 919 341
f 341 919 342
f 920 342 919
f 343 342 920
f 345 920 921
f 343 920 345
f 921 347 345
f 1106 347 921
f 349 347 1106
f 922 349 1106
f 351 349 922
f 922 923 351
f 351 923 353
f 924 353 923
f 355 353 924
f 355 924 356
f 356 924 1107
f 357 356 1107
f 1107 925 357
f 357 925 359
f 926 927 925
f 925 927 359
f 361 928 926
f 926 928 927
f 926 929 361
f 361 929 363
f 930 363 929
f 365 363 930
f 367 930 931
f 365 930 367
f 934 932 931
f 931 932 367
f 934 933 932
f 934 936 933
f 935 936 934
f 1113 936 935
f 1113 372 936
f 1113 937 372
f 372 937 374
f 376 374 938
f 938 374 937
f 378 938 897
f 376 938 378
f 939 378 897
f 380 378 939
f 382 939 898
f 380 939 382
f 382 898 899
f 386 384 899
f 386 940 388
f 899 940 386
f 941 388 940
f 941 942 390
f 390 942 392
f 943 392 942
f 394 392 943
f 396 394 944
f 944 394 943
f 398 396 945
f 945 396 944
f 398 945 400
f 945 946 400
f 900 401 946
f 946 401 400
f 404 402 900
f 405 404 947
f 947 404 900
f 949 415 960
f 1088 445 974
f 977 451 449
f 978 979 451
f 953 981 952
f 1094 483 996
f 1005 497 495
f 1032 1006 1007
f 1032 500 1006
f 947 1080 405
f 407 1080 958
f 405 1080 407
f 409 958 948
f 407 958 409
f 409 948 411
f 411 959 413
f 948 959 411
f 960 413 959
f 414 413 960
f 415 414 960
f 417 415 949
f 949 1081 417
f 419 1081 962
f 417 1081 419
f 419 962 421
f 421 962 961
f 422 421 961
f 961 963 422
f 964 963 961
f 950 965 964
f 964 965 963
f 950 966 965
f 968 967 950
f 950 967 966
f 968 427 967
f 968 969 427
f 427 969 429
f 969 970 429
f 429 970 431
f 434 970 951
f 434 431 970
f 436 951 971
f 434 951 436
f 437 436 971
f 437 972 439
f 971 972 437
f 972 973 439
f 439 973 441
f 974 441 973
f 443 441 974
f 443 974 445
f 1088 975 445
f 1088 976 975
f 977 976 1088
f 977 449 976
f 977 978 451
f 980 979 978
f 453 980 952
f 979 980 453
f 952 981 453
f 953 982 981
f 953 983 982
f 982 983 457
f 984 457 983
f 459 457 984
f 985 986 984
f 984 986 459
f 462 988 987
f 987 988 985
f 985 988 986
f 464 987 989
f 462 987 464
f 466 464 989
f 989 990 466
f 466 990 467
f 1091 469 990
f 990 469 467
f 1091 991 469
f 1091 992 991
f 471 992 1092
f 1092 992 1091
f 473 1092 954
f 471 1092 473
f 475 473 954
f 954 993 475
f 475 993 477
f 994 993 955
f 477 993 994
f 479 994 955
f 479 995 481
f 955 995 479
f 996 481 995
f 483 481 996
f 483 1094 484
f 486 484 956
f 956 484 1094
f 488 486 997
f 997 486 956
f 997 998 488
f 999 1000 998
f 998 1000 488
f 492 1002 1001
f 1001 1002 999
f 999 1002 1000
f 493 492 1003
f 1003 492 1001
f 1003 1004 493
f 495 1004 1005
f 493 1004 495
f 498 1005 957
f 497 1005 498
f 498 957 1007
f 1007 1006 498
f 667 1047 1008
f 1008 1009 667
f 1008 1010 1009
f 1009 1010 670
f 1011 671 1010
f 1012 671 1011
f 1010 671 670
f 1011 1014 1012
f 1013 1014 1011
f 1014 1013 1053
f 1051 1053 1015
f 1015 1075 1051
f 1075 1016 1068
f 1017 1067 1020
f 1018 1017 1020
f 1038 1039 510
f 1015 1053 1013
f 1075 1068 1051
f 1016 1067 1068
f 1020 1067 1016
f 1018 1063 1017
f 1018 1021 1063
f 1019 1021 1018
f 1019 1061 1021
f 1022 1061 1019
f 1022 1059 1061
f 1023 1059 1022
f 1023 1025 1059
f 1024 1025 1023
f 1024 1026 1025
f 1024 1027 1026
f 1027 1029 1028
f 1029 1029 1028
f 1029 1030 1029
f 1030 1031 1029
f 500 1032 501
f 1033 501 1032
f 503 501 1033
f 1035 1034 1033
f 506 1034 1035
f 1033 1034 503
f 1036 1037 1035
f 1035 1037 506
f 1036 1070 1037
f 1037 1070 508
f 1038 508 1070
f 510 508 1038
f 1040 1039 1038
f 654 1039 1040
f 656 654 1040
f 1040 1041 656
f 1043 658 1042
f 1042 658 1041
f 1041 658 656
f 1044 660 1042
f 1042 660 1043
f 663 660 1045
f 1045 660 1044
f 664 1045 1046
f 663 1045 664
f 1046 665 664
f 1047 665 1046
f 667 665 1047
f 1028 1031 1048
f 1028 1029 1031
f 1027 1028 1048
f 1026 1027 1048
f 1025 1026 1048
f 1025 1048 1049
f 1068 1066 1050
f 1051 1068 1050
f 1051 1050 1052
f 1053 1051 1052
f 1053 1052 1054
f 1014 1053 1054
f 1055 1012 1014
f 1055 1014 1054
f 1012 1055 1056
f 1056 671 1012
f 670 1056 1057
f 670 671 1056
f 669 1057 1031
f 1057 669 670
f 1058 669 1031
f 1058 668 669
f 1059 1025 1049
f 1059 1049 1060
f 1061 1059 1060
f 1021 1061 1060
f 1021 1060 1062
f 1063 1021 1062
f 1063 1062 1064
f 1064 1017 1063
f 1017 1064 1065
f 1065 1067 1017
f 1066 1067 1065
f 1068 1067 1066
f 1054 1050 1066
f 1054 1052 1050
f 1055 1066 1065
f 1055 1065 1064
f 1055 1054 1066
f 1056 1055 1064
f 1056 1062 1060
f 1056 1064 1062
f 1057 1056 1060
f 1057 1049 1048
f 1057 1048 1031
f 1057 1060 1049
f 1036 1069 485
f 485 1070 1036
f 485 487 1070
f 1070 487 1038
f 487 1071 1038
f 1038 1071 489
f 1038 489 1040
f 1040 489 490
f 490 491 1040
f 1040 491 1041
f 491 1072 1041
f 1041 1072 1042
f 1042 1072 494
f 1042 494 1044
f 494 496 1044
f 1044 496 1045
f 1073 1045 496
f 1046 1045 1073
f 1046 1073 499
f 1046 499 1047
f 1074 1047 499
f 1008 1047 1074
f 1008 1074 502
f 1008 502 1010
f 502 504 1010
f 1010 504 1011
f 504 505 1011
f 505 507 1011
f 1011 507 1013
f 1013 507 509
f 509 1015 1013
f 509 1075 1015
f 1076 1075 509
f 1075 1076 1016
f 1016 653 655
f 1020 655 657
f 1016 655 1020
f 1020 657 1018
f 657 659 1018
f 1018 1077 1019
f 659 1077 1018
f 1077 661 1019
f 1019 661 1022
f 662 1022 661
f 662 1078 1022
f 1078 1023 1022
f 1024 1078 666
f 1023 1078 1024
f 653 1016 1076
f 668 1024 666
f 668 1027 1024
f 1058 1027 668
f 1058 1029 1027
f 1058 1030 1029
f 1058 1031 1030
f 1079 1032 478
f 1033 1032 1079
f 1033 1079 480
f 1033 480 1035
f 480 482 1035
f 482 1069 1035
f 1035 1069 1036
f 377 947 375
f 387 960 385
f 389 949 960
f 391 949 389
f 403 968 1083
f 1087 974 416
f 418 1088 974
f 420 1088 418
f 428 953 426
f 426 953 952
f 433 984 432
f 456 1094 996
f 458 1094 456
f 465 998 463
f 474 957 472
f 476 1007 474
f 478 1007 476
f 478 1032 1007
f 377 1080 947
f 958 1080 377
f 377 379 958
f 958 379 948
f 379 381 948
f 948 383 959
f 381 383 948
f 959 385 960
f 383 385 959
f 389 960 387
f 962 1081 391
f 391 1081 949
f 962 393 961
f 391 393 962
f 393 395 961
f 395 397 961
f 961 397 964
f 397 399 964
f 964 399 950
f 950 1082 1083
f 399 1082 950
f 950 1083 968
f 403 1084 968
f 968 1084 969
f 969 406 970
f 1084 406 969
f 406 408 970
f 970 408 951
f 410 951 408
f 971 951 410
f 410 412 971
f 972 1085 1086
f 971 1085 972
f 412 1085 971
f 972 1086 973
f 973 1086 416
f 974 973 416
f 974 1087 418
f 977 420 1089
f 1088 420 977
f 977 1089 1090
f 977 1090 978
f 978 1090 423
f 423 424 978
f 978 424 980
f 424 425 980
f 980 425 952
f 425 426 952
f 428 430 953
f 953 430 983
f 983 432 984
f 430 432 983
f 985 433 435
f 984 433 985
f 987 435 438
f 985 435 987
f 989 987 438
f 438 440 989
f 989 442 990
f 440 442 989
f 444 990 442
f 1091 990 444
f 446 1091 444
f 447 1092 446
f 446 1092 1091
f 954 1092 448
f 448 1092 447
f 448 450 954
f 954 452 993
f 450 452 954
f 452 454 993
f 993 454 955
f 455 955 454
f 955 1093 995
f 455 1093 955
f 456 996 1093
f 1093 996 995
f 460 956 458
f 458 956 1094
f 460 461 956
f 956 461 997
f 461 463 997
f 997 463 998
f 998 465 999
f 468 1001 465
f 465 1001 999
f 1003 468 1095
f 1001 468 1003
f 1003 1095 470
f 470 1004 1003
f 1005 1004 470
f 470 472 1005
f 1005 472 957
f 957 474 1007
f 290 892 904
f 293 892 291
f 295 906 1098
f 297 893 907
f 299 894 893
f 316 918 917
f 317 918 316
f 1104 918 317
f 321 920 1105
f 324 921 322
f 326 1106 324
f 344 934 1112
f 346 1113 344
f 360 899 358
f 1116 940 360
f 364 942 362
f 371 946 370
f 373 900 371
f 901 1096 285
f 840 1096 901
f 901 285 902
f 902 287 904
f 285 287 902
f 287 290 904
f 290 291 892
f 1098 1097 293
f 293 1097 892
f 1097 1098 906
f 295 1099 906
f 1099 296 907
f 295 296 1099
f 296 297 907
f 297 299 893
f 299 302 894
f 1101 1100 302
f 910 1100 1101
f 302 1100 894
f 895 1101 1102
f 910 1101 895
f 895 1102 1103
f 895 1103 911
f 911 1103 307
f 309 912 307
f 307 912 911
f 912 309 896
f 896 309 311
f 896 311 915
f 311 312 915
f 915 314 917
f 312 314 915
f 314 316 917
f 919 1104 1105
f 918 1104 919
f 919 1105 920
f 921 920 321
f 321 322 921
f 324 1106 921
f 1106 326 922
f 326 328 922
f 922 328 923
f 328 330 923
f 923 330 924
f 924 332 1107
f 330 332 924
f 334 1107 332
f 1107 336 925
f 334 336 1107
f 336 1108 925
f 926 1108 1109
f 925 1108 926
f 926 1109 1110
f 929 1110 1111
f 926 1110 929
f 929 1111 930
f 930 1111 338
f 340 930 338
f 931 930 340
f 1112 931 340
f 934 931 1112
f 344 935 934
f 1113 935 344
f 346 348 1113
f 1113 348 937
f 938 1114 350
f 348 1114 937
f 937 1114 938
f 897 350 352
f 938 350 897
f 354 897 352
f 939 897 354
f 898 354 1115
f 939 354 898
f 898 1115 899
f 899 1115 358
f 899 360 940
f 941 1116 362
f 940 1116 941
f 941 362 942
f 942 364 943
f 366 944 364
f 364 944 943
f 366 368 944
f 944 368 945
f 368 369 945
f 370 946 369
f 369 946 945
f 946 371 900
f 373 375 900
f 900 375 947
f 202 851 201
f 213 855 211
f 1125 858 219
f 258 1133 255
f 274 837 272
f 282 840 839
f 1096 840 282
f 184 1117 746
f 1117 187 746
f 746 187 841
f 187 1118 841
f 841 1118 842
f 842 1118 1119
f 842 1119 843
f 843 1119 190
f 843 1120 844
f 190 1120 843
f 844 193 846
f 1120 193 844
f 193 195 846
f 846 195 848
f 195 197 848
f 849 1121 1122
f 848 1121 849
f 197 1121 848
f 850 1122 200
f 849 1122 850
f 200 201 850
f 850 201 851
f 831 851 202
f 202 204 831
f 204 206 831
f 831 206 852
f 207 853 206
f 206 853 852
f 853 209 854
f 207 209 853
f 854 211 855
f 209 211 854
f 855 213 856
f 215 1123 213
f 213 1123 856
f 217 1124 215
f 215 1124 1123
f 217 219 1124
f 1124 219 858
f 858 1125 832
f 832 1125 221
f 832 221 860
f 860 221 223
f 223 225 860
f 860 225 863
f 225 227 863
f 863 227 864
f 227 229 864
f 864 229 865
f 229 231 865
f 865 231 833
f 232 833 231
f 866 833 232
f 232 235 866
f 235 237 866
f 866 237 867
f 868 867 239
f 239 867 237
f 1126 868 239
f 869 1126 1127
f 868 1126 869
f 870 1127 1128
f 869 1127 870
f 873 1128 1129
f 870 1128 873
f 874 1129 244
f 873 1129 874
f 874 244 834
f 834 244 1130
f 875 1130 246
f 834 1130 875
f 246 247 875
f 875 247 835
f 247 248 835
f 835 248 877
f 248 251 877
f 877 251 836
f 1131 836 251
f 878 1131 1132
f 836 1131 878
f 879 1132 255
f 878 1132 879
f 255 1133 879
f 880 1133 258
f 258 260 880
f 880 260 881
f 260 262 881
f 264 882 262
f 262 882 881
f 882 266 883
f 264 266 882
f 266 1134 883
f 883 1134 884
f 1134 267 884
f 884 267 886
f 267 270 886
f 886 270 887
f 270 271 887
f 887 271 890
f 271 272 890
f 890 272 837
f 276 1135 274
f 891 1135 276
f 274 1135 837
f 891 278 838
f 276 278 891
f 278 280 838
f 838 280 839
f 282 839 280
