# Render LOD; unchanged CAD body-local coordinates in mm
v -18.3379384 212.2508648 -86.3349700
v -18.8858737 212.3815959 -86.7474014
v -18.3407388 213.3987578 -85.9882715
v -18.9048210 213.5700425 -86.3690421
v -19.4630229 212.4168193 -86.8582718
v -20.0085960 212.3934773 -86.7847368
v -19.5711305 213.6530352 -86.4797223
v -20.5350832 212.2918678 -86.4639781
v -20.2052285 213.6444032 -86.2872125
v -20.8446612 212.1626536 -86.0568125
v -20.6006726 213.5857063 -85.9828224
v -20.8702637 213.4911401 -85.5723608
v -20.9853440 212.0082629 -85.5699862
v -21.0007502 213.2198995 -84.9914766
v -20.9846172 212.7241126 -85.2002314
v -20.9427236 211.8532724 -85.0809628
v -20.9954970 213.3589673 -85.0068611
v -20.8119518 213.0672018 -84.3484057
v -20.8855358 213.2255027 -84.4638430
v -20.7086025 211.7021268 -84.6041514
v -20.9164405 212.6095490 -84.7131524
v -20.4655162 212.9710453 -83.9234177
v -20.5944823 213.1228996 -84.0083591
v -20.3642801 211.6012817 -84.2864209
v -20.5387781 212.4802897 -84.1525338
v -19.9373819 211.5356560 -84.0794041
v -19.9251113 212.9280554 -83.6365566
v -20.0793191 212.4270469 -83.8537567
v -19.4261248 211.5177483 -84.0227369
v -19.3201480 212.9523142 -83.5687877
v -19.6632879 213.0501102 -83.5367918
v -19.5053168 212.4260089 -83.7261009
v -18.8876493 211.5546794 -84.1394326
v -19.0266453 213.1156060 -83.5909983
v -18.7262318 213.0586322 -83.7552247
v -18.4112202 211.6592896 -84.4692563
v -18.5865795 213.2236367 -83.8086328
v -18.2863328 213.2210943 -84.1270637
v -18.4679320 212.6295159 -84.0987239
v -18.0972887 211.8101028 -84.9446192
v -18.0768661 213.3870592 -84.5388826
v -18.1757049 213.4097900 -84.2389586
v -18.0869196 212.8500308 -84.6272417
v -18.0161089 212.0465371 -85.6904968
v -18.0118603 213.6406807 -84.8319318
v -18.1104888 213.7514178 -85.4479713
v -18.0586165 213.8113961 -85.2485092
v -18.4278239 213.9413541 -85.9047180
v -18.9180255 214.0770109 -86.2144302
v -18.6314192 214.1319327 -86.0233652
v -19.0575993 214.2322584 -86.2189402
v -19.5250276 214.2785852 -86.2681338
v -20.0538887 214.1604668 -86.1931311
v -20.3178856 214.2640644 -86.0204028
v -20.7416807 214.1786723 -85.6159163
v -20.9077033 214.1027755 -85.2721636
v -20.8838815 213.7278288 -84.2802704
v -20.9945127 213.9593729 -84.6973349
v -20.8126727 213.8229286 -84.1054001
v -19.6933214 213.5610106 -83.3830789
v -20.0297609 213.6880542 -83.4369275
v -19.1181737 213.6095465 -83.4059113
v -19.4576812 213.6939022 -83.3208358
v -18.6003165 213.7259142 -83.6331845
v -18.8600823 213.7825899 -83.4522800
v -18.1627464 213.9224460 -84.1049857
v -18.4735373 213.8944964 -83.6978665
v -18.1169286 214.0910491 -84.1541274
v -18.0728147 214.3384416 -85.1407789
v -18.0105272 214.3448920 -84.8148671
v -18.3084224 214.5123806 -85.5737737
v -18.7419561 214.6739723 -85.9376961
v -18.7780403 214.8058915 -85.9174145
v -19.3375737 214.7745415 -86.1073837
v -19.8970679 214.7954384 -86.0512775
v -20.2689733 214.7756119 -85.8858499
v -20.0653703 214.9185981 -85.9632626
v -20.6588695 214.8331656 -85.5274468
v -20.9252997 214.5982617 -85.0805589
v -20.9458463 214.7060203 -84.9626312
v -20.9215091 214.3893455 -84.2082549
v -20.9837034 214.5882468 -84.4780960
v -20.8726576 214.4815404 -84.0339215
v -20.6964104 214.2871589 -83.7680888
v -20.3069746 214.2151942 -83.4112089
v -19.7538779 214.1906073 -83.1898656
v -20.1867115 214.3262479 -83.2949308
v -19.0792164 214.2464251 -83.2098757
v -19.5352279 214.3239169 -83.1251847
v -18.5578980 214.3713076 -83.4687847
v -18.2177610 214.5215801 -83.8276726
v -18.2121476 214.6540789 -83.8009026
v -18.0126729 214.7415386 -84.3628003
v -18.0720420 214.7782627 -84.1074441
v -18.0719735 214.9671549 -84.9397675
v -18.0132598 215.0005534 -84.6682933
v -18.2659814 215.1199606 -85.3124397
v -18.2204614 215.2228569 -85.2157324
v -18.5707611 215.2517955 -85.6226413
v -18.5254920 215.3582936 -85.5443630
v -19.7918751 215.4298434 -85.8767769
v -20.3285860 215.4036533 -85.6573928
v -20.0018023 215.5515682 -85.7921491
v -20.7064783 215.3253847 -85.2897676
v -20.5424091 215.4931888 -85.4373339
v -20.8458649 215.4001898 -85.0356329
v -20.9986753 215.2470854 -84.3914011
v -20.8117002 215.0842755 -83.6974367
v -20.4174289 214.8612424 -83.2925986
v -20.5039674 215.0015869 -83.3269755
v -20.1552884 214.9572388 -83.0878524
v -19.6157092 214.9472201 -82.9342077
v -18.6876547 214.9627486 -83.1762843
v -18.8985505 215.0313142 -83.0215975
v -18.2573058 215.2523166 -83.5145865
v -18.0077239 215.5210812 -84.1823602
v -18.1727146 215.7002669 -84.9926842
v -18.0957449 215.7536657 -84.7716402
v -18.4495962 215.9676615 -85.2971943
v -19.1222586 216.0068373 -85.6729261
v -18.8816841 216.0905452 -85.5535942
v -19.3515590 216.1611784 -85.6670974
v -19.9838775 216.0570564 -85.6233669
v -19.9209211 216.1877177 -85.6078420
v -20.3997131 216.0237789 -85.4013717
v -20.8310309 215.9166061 -84.9172410
v -20.9656749 215.8040389 -83.8854758
v -20.6194743 215.5292806 -83.2712516
v -20.1296386 215.4597454 -82.9131273
v -20.6009315 215.6487369 -83.2028663
v -20.0469503 215.5833684 -82.8368312
v -19.4486958 215.5895170 -82.7240689
v -18.4914672 215.6532718 -83.1070700
v -18.1676778 215.9418399 -83.4630885
v -18.0205793 216.1771703 -84.3924706
v -18.0079218 216.1791931 -84.0607731
v -18.0998683 216.3870670 -84.5828420
v -18.3255825 216.4199479 -84.9964348
v -18.3603236 216.5566117 -84.9909909
v -18.7458342 216.5682872 -85.3309113
v -19.2171286 216.6539003 -85.4904184
v -19.6505702 216.6877266 -85.4963365
v -19.3187573 216.7942110 -85.4737716
v -20.0665560 216.6856528 -85.3910610
v -19.9342520 216.8159521 -85.3974422
v -20.4634727 216.6456692 -85.1483433
v -20.7647885 216.5699029 -84.8059118
v -20.6680636 216.7242458 -84.8984413
v -20.9558779 216.4650209 -84.3620043
v -20.8815802 216.6440667 -84.5453081
v -20.9731580 216.3294183 -83.8058726
v -20.8282338 216.2320680 -83.3821576
v -20.7165635 216.3111419 -83.1456784
v -20.1774694 216.2238365 -82.6888856
v -19.5575983 216.0943831 -82.5711735
v -19.0264247 216.1535992 -82.6255255
v -19.4804576 216.2210201 -82.5230381
v -18.9629749 216.2887178 -82.6134290
v -18.5538076 216.2693876 -82.8703999
v -18.5272885 216.3988048 -82.8469238
v -18.2255240 216.4143148 -83.2154178
v -18.1868584 216.5665709 -83.2415562
v -18.0051045 216.6584307 -83.8122394
v -18.1057502 217.0406106 -84.4169386
v -18.4915740 217.2441165 -84.9196091
v -19.4015751 217.4320123 -85.2737437
v -20.4284269 217.2880820 -84.9876081
v -20.0623843 217.4469130 -85.1573118
v -20.5176388 217.3904573 -84.8616402
v -20.8406840 217.1754580 -84.4791075
v -20.9776947 217.0613916 -84.0064957
v -20.9597979 216.9421439 -83.5135198
v -20.9971823 217.1595923 -83.8613978
v -20.7031785 216.8180812 -82.9792879
v -20.8794168 217.0099696 -83.2464595
v -20.4045256 216.7552729 -82.6837484
v -20.6268420 216.9211200 -82.8487177
v -20.2396508 216.8593296 -82.5288547
v -19.5103659 216.7288248 -82.3689245
v -19.6939040 216.8427384 -82.3416095
v -19.0173388 216.7871681 -82.4304204
v -19.0429088 216.9042158 -82.3783041
v -18.4411433 216.9355790 -82.7508043
v -18.4456058 217.0591246 -82.7121007
v -18.1053468 217.2631230 -83.2018328
v -18.0083970 217.3841613 -83.8567393
v -18.0070239 217.4994861 -83.8046797
v -18.1753765 217.5886532 -84.3765246
v -18.5049166 217.7561637 -84.7696709
v -19.0023340 217.8842825 -85.0441247
v -19.5304503 217.9474562 -85.1062779
v -19.2868087 218.0510670 -85.0623261
v -19.9849630 217.9522796 -85.0216869
v -19.8675581 218.0784107 -85.0206090
v -20.4414004 217.9121817 -84.7697452
v -20.7926233 217.8214255 -84.3640005
v -20.6934819 217.9832275 -84.4737475
v -20.9754140 217.7040919 -83.8625948
v -20.9413919 217.5554074 -83.2287332
v -20.6181603 217.4294403 -82.6749558
v -20.1918616 217.3625227 -82.3406235
v -19.5149463 217.3579638 -82.1569117
v -19.9579866 217.4732071 -82.2040051
v -19.4514917 217.4877254 -82.1289333
v -18.9771357 217.5484614 -82.2037225
v -18.5450204 217.5329537 -82.4720952
v -18.1772679 217.7100083 -82.8936167
v -18.4128078 217.7028101 -82.5401375
v -18.0238969 217.8912444 -83.3452686
v -18.1100090 217.8942841 -83.0011105
v -18.0327534 218.0594068 -83.7710298
v -18.0122233 218.0591047 -83.4161781
v -18.0924374 218.2817136 -83.9799593
v -18.4388909 218.4898320 -84.4750600
v -18.8635856 218.6152469 -84.7451703
v -19.5962024 218.5825326 -84.9041803
v -20.0924038 218.5805112 -84.7793513
v -20.9851859 218.3239490 -83.6128534
v -20.9917766 218.4453187 -83.5664482
v -20.7899730 218.1096396 -82.7083372
v -20.9011786 218.2871811 -82.8951053
v -20.3685538 218.0118128 -82.2391641
v -20.5962964 218.1743557 -82.4090773
v -20.1255629 218.1116204 -82.0700802
v -19.3330181 218.0021013 -81.9705509
v -19.2316375 218.1431173 -81.9438689
v -18.8317452 218.0847649 -82.1012594
v -18.3051926 218.2614788 -82.4920223
v -18.3690584 218.3594892 -82.3975562
v -18.0216360 218.5110696 -83.1155569
v -18.1277759 218.5089136 -82.7545634
v -18.0160143 218.6781821 -83.1877414
v -18.0550957 218.7356498 -83.6809551
v -18.2816605 218.9259951 -84.1400411
v -18.2990722 219.0605896 -84.1321227
v -19.0029148 219.1480986 -84.6386873
v -18.7506927 219.2177513 -84.4918287
v -19.2245053 219.3043624 -84.6537470
v -19.4854230 219.2047469 -84.7079268
v -19.6929487 219.3412883 -84.6504115
v -20.0997323 219.3383157 -84.5358239
v -20.4787922 219.2903386 -84.2937142
v -20.7933056 219.0922447 -83.9689194
v -20.9878954 218.9468184 -83.3745729
v -20.8521223 219.1893570 -83.8352362
v -20.9914900 219.0415045 -83.2056453
v -20.8833784 218.9066172 -82.6445703
v -20.3918594 218.6446208 -82.0607833
v -20.4726364 218.7814658 -82.0800584
v -19.6854559 218.6055928 -81.7711535
v -19.0210314 218.6774951 -81.8319916
v -18.7989443 218.8499851 -81.8820767
v -18.1975223 218.9607750 -82.4664764
v -18.4305023 218.9614536 -82.1301406
v -18.0204483 219.1480548 -82.9302490
v -18.1219584 219.1444151 -82.5664156
v -18.0892329 219.4188096 -83.6170819
v -18.0085088 219.3445241 -83.0733108
v -18.0982881 219.5433001 -83.5771077
v -18.4769697 219.6414014 -84.1484211
v -18.4469901 219.7568156 -84.0887563
v -18.9443201 219.8928067 -84.3788540
v -19.5049147 219.8387632 -84.5053984
v -19.9398889 219.8516628 -84.4358953
v -19.4827681 219.9600432 -84.4722959
v -20.4272532 219.8139181 -84.1804553
v -20.0374837 219.9695730 -84.3636271
v -20.8621438 219.6915332 -83.6544851
v -20.9368044 219.7614470 -83.3732818
v -20.9924402 219.5351313 -82.9887506
v -20.9915202 219.6546608 -82.9329685
v -20.8369580 219.3894855 -82.3770879
v -20.8672970 219.5327532 -82.4188116
v -20.4367025 219.2857225 -81.9022220
v -19.8120923 219.2392700 -81.5903659
v -19.0843563 219.2989614 -81.6113159
v -18.6607903 219.3946423 -81.7970824
v -18.2841072 219.5345372 -82.1308199
v -18.1891271 219.7170589 -82.2277669
v -18.0249279 219.7624155 -82.6780769
v -18.0091261 219.9454375 -82.8058476
v -18.0548677 219.9967742 -83.2804183
v -18.2774110 220.1809733 -83.7319483
v -18.1028111 220.1857051 -83.3960940
v -18.5580359 220.2991426 -84.0065640
v -19.4762370 220.4697823 -84.3117537
v -19.7248161 220.6125230 -84.2553832
v -20.4590226 220.4347207 -83.9487451
v -20.8051526 220.3459307 -83.5562590
v -20.3997983 220.5682669 -83.9699131
v -20.7761022 220.4802063 -83.5465274
v -20.9908274 220.2019428 -82.9310865
v -20.8699550 220.0325792 -82.2300246
v -20.9779286 220.2518724 -82.5804893
v -20.4100850 219.9124986 -81.6795291
v -20.5700345 220.0655149 -81.7837408
v -19.8915401 219.8738254 -81.4220639
v -20.2255198 220.0159693 -81.5263486
v -19.4173526 219.8930344 -81.3695287
v -19.7933608 219.9935316 -81.3601409
v -18.9823537 219.9480434 -81.4425383
v -19.1239125 220.0450800 -81.3560653
v -18.5690695 220.0538764 -81.6572463
v -18.2306719 220.1997635 -82.0050129
v -18.5513178 220.1828276 -81.6258193
v -18.1848588 220.3567812 -82.0433103
v -18.0132029 220.4285541 -82.5704540
v -18.0335205 220.5209837 -82.4566815
v -18.0494847 220.6147173 -83.0400165
v -18.0316806 220.7220437 -82.9644955
v -18.2121092 220.7753467 -83.4419867
v -18.5517811 220.9292574 -83.8037558
v -18.3275224 220.9677826 -83.5712639
v -19.0339569 221.0519752 -84.0511003
v -18.8022315 221.1252404 -83.9152563
v -19.5597348 221.1047834 -84.1043988
v -19.2702819 221.2051399 -84.0619646
v -19.9926200 221.1095309 -84.0160440
v -19.8453108 221.2391845 -84.0222198
v -20.4138505 221.0724814 -83.7895699
v -20.3151007 221.2081366 -83.8202315
v -20.7804106 221.1161735 -83.3626284
v -20.9945541 220.9512604 -82.6761170
v -20.8976142 220.6830890 -82.1022288
v -20.5547370 220.5698967 -81.6102983
v -20.8586235 220.7805146 -81.9762765
v -20.1712293 220.5176441 -81.3328640
v -20.4258178 220.6709709 -81.4518305
v -19.7652578 220.5081231 -81.1971430
v -19.9090866 220.6290757 -81.1877863
v -19.2998214 220.5334625 -81.1723089
v -19.4390051 220.6477231 -81.1292015
v -18.7659655 220.6272053 -81.3318516
v -19.0075504 220.7001887 -81.1953639
v -18.3851018 220.7543970 -81.6190196
v -18.6079304 220.7957718 -81.3920669
v -18.0852390 220.9463585 -82.0773153
v -18.3028210 220.9147581 -81.6718212
v -18.0118377 221.1539678 -82.6130443
v -18.0465175 221.1167739 -82.1706825
v -18.1011010 221.3120792 -83.0080726
v -18.3260332 221.4705100 -83.3945996
v -18.0992355 221.4409352 -82.9790104
v -18.4628411 221.6589235 -83.5049745
v -19.5593825 221.7386550 -83.9123963
v -20.1416412 221.7337842 -83.7545860
v -20.6158039 221.6713611 -83.4115279
v -20.1988931 221.8529774 -83.7001787
v -20.8784634 221.5716049 -82.9817173
v -20.9895237 221.4648067 -82.5333485
v -20.8836768 221.6975098 -82.9435263
v -20.8922401 221.3117394 -81.8900766
v -20.9266897 221.4649430 -81.9491196
v -20.4175632 221.1760431 -81.2753935
v -20.7431240 221.3757222 -81.5904704
v -20.0587318 221.2674223 -81.0420052
v -19.3267082 221.1626071 -80.9743115
v -19.5436589 221.2686645 -80.9249000
v -18.8335880 221.2403948 -81.0960558
v -19.0948850 221.3291185 -80.9721458
v -18.3530408 221.3979920 -81.4478819
v -18.5716117 221.4337781 -81.2051115
v -18.1168026 221.5520275 -81.8246833
v -18.1597295 221.6393593 -81.6811684
v -18.0109708 221.7275069 -82.2617740
v -18.0236237 221.8190257 -82.1300270
v -18.0744512 221.9216800 -82.7615243
v -18.0131994 221.9199885 -82.3854948
v -18.0709859 222.0299426 -82.6752641
v -18.3920709 222.1323956 -83.2643876
v -18.2851390 222.2080073 -83.1137378
v -18.7994113 222.2642050 -83.5572892
v -18.7295031 222.3740710 -83.4797083
v -18.9561729 222.4230845 -83.5806327
v -19.3671339 222.4818208 -83.6763826
v -20.0759165 222.3746169 -83.5954018
v -19.9235983 222.4970603 -83.5996968
v -20.3982109 222.4650638 -83.3617313
v -20.5670783 222.3070422 -83.2519720
v -20.4596763 222.4521858 -83.3036877
v -20.8835529 222.2071550 -82.7923116
v -20.7783870 222.3793031 -82.9640954
v -20.9723390 222.2506415 -82.4195705
v -20.9828832 222.0959390 -82.3335736
v -20.9763125 222.2324684 -82.3446893
v -20.9318707 221.9713914 -81.8012591
v -20.9869330 222.2129228 -82.2549443
v -20.9467049 222.1171364 -81.8621750
v -20.9253986 222.1007646 -81.7944294
v -20.7898598 221.9003699 -81.5105918
v -20.9040979 222.0833261 -81.7213285
v -20.7168901 221.9996103 -81.3589112
v -20.6668745 221.9867901 -81.3018433
v -20.3861033 221.7993519 -81.0523260
v -20.6212922 221.9750538 -81.2463548
v -20.2869111 221.9214717 -80.9535878
v -20.0867831 221.9001423 -80.8492473
v -19.7019816 221.8968769 -80.7499095
v -19.6312129 221.8994097 -80.7407791
v -19.0726852 221.8218047 -80.8065158
v -19.1895274 221.9383160 -80.7431078
v -18.9334325 221.9732897 -80.8183137
v -18.5010421 221.9663819 -81.1021901
v -18.6234797 222.0561246 -80.9854743
v -18.5669636 222.0744871 -81.0253438
v -18.4102183 222.1348657 -81.1525916
v -18.1721106 222.1355024 -81.5149210
v -18.1941493 222.2430216 -81.4421565
v -18.0953311 222.3266999 -81.6410123
v -18.0126600 222.4134497 -82.2080717
v -18.0133500 222.4840052 -82.0227772
v -18.0702290 222.5493092 -82.5407176
v -18.0668045 222.6735017 -82.4963754
v -18.3335504 222.7412062 -83.0065519
v -18.3450811 222.8644613 -82.9717139
v -18.8232385 222.9059521 -83.3791428
v -18.6425412 222.9750019 -83.2274449
v -19.3083134 222.9828038 -83.4970435
v -19.8540631 223.0109708 -83.4617829
v -19.2267843 223.0982846 -83.4601738
v -19.7883707 223.1323291 -83.4314845
v -20.3316734 222.9762522 -83.2466726
v -20.2133904 223.1158478 -83.2793131
v -20.4232621 222.9644377 -83.1725140
v -20.5076708 222.9500586 -83.1066945
v -20.8396632 222.8641660 -82.6936316
v -20.6555059 223.0443848 -82.9243492
v -20.9710937 222.7506609 -82.2312574
v -20.9786193 222.7333228 -82.1601027
v -20.9515946 222.9121919 -82.3478173
v -20.9836268 222.6748408 -81.9215992
v -20.9401455 222.6196650 -81.6872992
v -20.9007551 222.5892276 -81.5551346
v -20.7386976 222.5098188 -81.2311429
v -20.9604338 222.7462303 -81.6682675
v -20.6246110 222.4822624 -81.0907785
v -20.3184705 222.4200226 -80.8141495
v -20.6947681 222.6237653 -81.1265467
v -20.0565564 222.4013298 -80.6795523
v -20.2897373 222.5470921 -80.7567489
v -19.7000867 222.4037467 -80.5889098
v -19.6315424 222.4059629 -80.5802359
v -19.1941190 222.4353308 -80.5848574
v -19.7441831 222.5229116 -80.5485664
v -18.9037424 222.4902955 -80.6704114
v -19.1586301 222.5693686 -80.5534302
v -18.6264456 222.5626777 -80.8226485
v -18.5677051 222.5810403 -80.8640398
v -18.5154730 222.5987696 -80.9048223
v -18.6266447 222.6819831 -80.7729981
v -18.2102300 222.7457801 -81.2426606
v -18.1483729 222.7993484 -81.3573970
v -18.0489379 222.8985160 -81.6349771
v -18.0888418 222.9657193 -81.4474646
v -18.0139827 223.0611990 -82.0403292
v -18.0086589 223.1674938 -81.9510314
v -18.0997642 223.2053872 -82.4034156
v -18.0999005 223.3319696 -82.3676377
v -18.3108641 223.3578069 -82.7753617
v -18.6759277 223.4935062 -83.0869149
v -18.3421376 223.4980370 -82.7765747
v -18.7085765 223.6258571 -83.0652769
v -19.1270058 223.5905148 -83.2715307
v -19.1568435 223.7140191 -83.2400667
v -19.5851287 223.6317890 -83.2999743
v -20.1028301 223.6350275 -83.1798050
v -19.8091351 223.7641210 -83.2379561
v -20.5565034 223.5733483 -82.8613587
v -20.3834552 223.7262304 -82.9742492
v -20.8981522 223.4637609 -82.3668376
v -20.9885696 223.3259018 -81.8018348
v -20.9447601 223.5463703 -82.1704661
v -20.9126192 223.2249063 -81.3776253
v -20.9628679 223.3826583 -81.4685920
v -20.6441724 223.1153820 -80.8918776
v -20.6665226 223.2446852 -80.8881692
v -20.0127611 223.0324893 -80.4490417
v -20.2652423 223.1750877 -80.5451255
v -19.3147152 223.0575561 -80.3709974
v -19.6811196 223.1559287 -80.3329000
v -18.7837505 223.1501997 -80.5209166
v -19.0313451 223.2217765 -80.3841095
v -18.3270418 223.3047836 -80.8728711
v -18.4516912 223.3727931 -80.6966247
v -18.0548531 223.5159397 -81.3863564
v -18.0268006 223.7579855 -82.0021013
v -18.0132652 223.7709665 -81.6825918
v -18.0579626 223.9143899 -82.0497697
v -18.3169511 224.1166487 -82.5482481
v -19.1764937 224.2292071 -83.0828970
v -19.8739548 224.2730863 -83.0644750
v -19.5613949 224.3874347 -83.0654498
v -19.9895656 224.3913334 -82.9749071
v -20.4255495 224.2298258 -82.7764304
v -20.4015645 224.3539708 -82.7617329
v -20.7900796 224.1409306 -82.3747843
v -20.7646942 224.2740818 -82.3669827
v -20.9911192 224.1330049 -81.7679024
v -20.8520440 223.8188564 -81.0116643
v -20.9190906 223.9849033 -81.1510238
v -20.5516615 223.7273509 -80.6083570
v -20.2002739 223.6753207 -80.3475136
v -20.0498337 223.7936356 -80.2409048
v -19.6012965 223.7918119 -80.1288398
v -18.8305455 223.7666290 -80.2901294
v -19.1109249 223.8399661 -80.1684984
v -18.3207514 223.9377928 -80.6843956
v -18.6478645 223.9388553 -80.3585173
v -18.0612013 224.1368538 -81.1673380
v -18.2425106 224.1038602 -80.7482124
v -18.0576324 224.2706417 -81.1562466
v -18.0130510 224.3041875 -81.5903108
v -18.0113552 224.4315843 -81.5573088
v -18.1505496 224.5280229 -82.1493151
v -18.1056814 224.6063819 -81.9879416
v -18.5774165 224.7264308 -82.6238915
v -18.3823730 224.7784858 -82.4138939
v -19.0783020 224.8465457 -82.8640288
v -18.8202437 224.9191434 -82.7293653
v -19.6304479 224.8965913 -82.8973372
v -19.3899107 225.0059949 -82.8684204
v -20.1634666 224.8928977 -82.7486562
v -19.8925805 225.0244253 -82.8071836
v -20.6802836 224.8099148 -82.3318843
v -20.4413881 224.9832363 -82.5404426
v -20.9393217 224.6892660 -81.8154996
v -20.8367109 224.8759495 -82.0403096
v -20.9852417 224.5597173 -81.2849396
v -20.9878443 224.7488105 -81.5175763
v -20.8687253 224.4621679 -80.8677423
v -20.9147792 224.6081418 -80.9239293
v -20.6525734 224.3843183 -80.5116340
v -20.6478742 224.5036702 -80.4708785
v -20.3031618 224.3213034 -80.2089781
v -20.2475948 224.4343021 -80.1308477
v -19.8804522 224.2939215 -80.0199238
v -19.4548457 224.3094607 -79.9675153
v -19.6910106 224.4196015 -79.9387652
v -19.2198139 224.4585201 -79.9474935
v -18.6176378 224.4609226 -80.2214989
v -18.7269418 224.5502588 -80.1074620
v -18.2884372 224.5881568 -80.5278046
v -18.3094631 224.7010633 -80.4619093
v -18.0429513 224.7871134 -81.0164587
v -18.0734905 224.8734291 -80.8911373
v -18.0247656 224.9926997 -81.5372422
v -18.0142218 225.1108916 -81.4689590
v -18.1575033 225.1521430 -81.9322290
v -18.4281453 225.3059090 -82.3021539
v -18.2324050 225.3307884 -82.0312332
v -19.2144557 225.4963789 -82.6863211
v -19.6451522 225.5289706 -82.6938142
v -20.2009231 225.5204360 -82.5330680
v -19.9220426 225.6567357 -82.5965564
v -20.3148109 225.6311523 -82.4180501
v -20.6823948 225.4399376 -82.1259399
v -20.9168857 225.3371892 -81.6824751
v -20.9891889 225.2330983 -81.2497393
v -20.9873420 225.3631355 -81.2270564
v -20.6142013 225.1274491 -80.2282123
v -20.2562008 225.0724524 -79.9412418
v -19.8387406 225.0464974 -79.7679671
v -19.2362740 224.9609915 -79.7810245
v -18.6957984 225.0619967 -79.9643763
v -19.1465623 225.0927642 -79.7477824
v -18.4981470 225.2485590 -80.0632051
v -18.0107519 225.5011071 -81.0198305
v -18.0155031 225.6294995 -80.9920546
v -18.1020033 225.7473839 -81.6380745
v -18.0519993 225.8063733 -81.4354397
v -18.4163379 225.9296727 -82.0853204
v -18.3032240 226.0046241 -81.9266746
v -18.8021537 226.0531649 -82.3568635
v -18.7353613 226.1629314 -82.2852396
v -19.3266723 226.1407290 -82.5026943
v -19.2864196 226.2596541 -82.4592678
v -19.8482171 226.1633679 -82.4585190
v -19.7492996 226.2868554 -82.4386272
v -20.3192726 226.1377398 -82.2574004
v -20.1509259 226.2773910 -82.3084560
v -20.6590988 226.0760345 -81.9446593
v -20.8953485 225.9867119 -81.5537596
v -20.8387306 226.1376823 -81.6281242
v -20.9788947 226.0335544 -81.1970737
v -20.8751971 225.7281341 -80.4726497
v -20.9503844 225.9059644 -80.6586120
v -20.5741293 225.6257351 -80.0215395
v -20.7227074 225.7859395 -80.1599885
v -20.2035945 225.5731380 -79.7530892
v -20.2529660 225.6979774 -79.7277960
v -19.6762171 225.6856001 -79.5395704
v -19.1134749 225.7313181 -79.5576136
v -18.6011055 225.8512508 -79.7931207
v -18.2378302 226.0021397 -80.1524724
v -18.0295807 226.0762940 -80.6716125
v -18.0165146 226.2260794 -80.7109465
v -18.0582581 226.4435534 -81.2485448
v -18.2389344 226.4793049 -81.6779902
v -18.2947980 226.6297917 -81.7160717
v -18.7356167 226.7934634 -82.0868709
v -19.5801445 226.7897663 -82.2990935
v -20.1117416 226.7920829 -82.1752928
v -19.6873013 226.9230272 -82.2551254
v -20.2098630 226.9043516 -82.0778247
v -20.6283087 226.7152685 -81.7906582
v -20.9433977 226.5867712 -81.2272041
v -20.8838348 226.3646337 -80.2938494
v -20.6228416 226.2693801 -79.8775102
v -20.7840215 226.4328711 -80.0382241
v -20.2071390 226.2031754 -79.5475873
v -20.2119162 226.3246783 -79.5022242
v -19.6859111 226.1897527 -79.3790761
v -18.3716099 226.4403547 -79.8322469
v -18.1047510 226.6108963 -80.2336344
v -18.3183620 226.5858381 -79.8390103
v -18.0157792 226.7815064 -80.6686758
v -18.0156044 226.8482538 -80.4894857
v -18.0701378 227.0909640 -81.0885473
v -18.6388333 227.2701282 -81.8620748
v -19.0323360 227.3621799 -82.0445261
v -18.9955337 227.4792828 -81.9902540
v -19.6263795 227.4255013 -82.1023716
v -19.3986909 227.5349826 -82.0652319
v -20.1901200 227.4145677 -81.9291654
v -19.9506341 227.5516697 -81.9924658
v -20.6194599 227.3483653 -81.6005940
v -20.4357336 227.5083594 -81.7304055
v -20.9070613 227.2424826 -81.1262845
v -20.7985654 227.4189277 -81.3142853
v -20.9904888 227.1038976 -80.5493863
v -20.9747396 227.2977352 -80.8134955
v -20.8163159 226.9613869 -79.9361228
v -20.9367299 227.1478854 -80.1695273
v -20.3397085 226.8461269 -79.4213367
v -20.6109443 227.0221536 -79.6239457
v -19.8006292 226.8224320 -79.2007365
v -20.1016160 226.9508224 -79.2488301
v -19.3147804 226.8454183 -79.1691857
v -18.7833387 226.9368927 -79.3230802
v -18.9221040 227.0311217 -79.2249657
v -18.1079954 227.2427046 -80.0375915
v -18.1914202 227.2944869 -79.8277619
v -18.0076476 227.4360022 -80.5217757
v -18.0166377 227.4964438 -80.3216111
v -18.0805114 227.7396616 -80.9338134
v -18.4159151 227.8231180 -81.4818917
v -18.3542735 227.9229494 -81.3796042
v -18.6140038 228.0207245 -81.6053300
v -19.0341627 228.1214252 -81.8077745
v -19.9180023 228.0582157 -81.8425453
v -19.6831549 228.1841035 -81.8559694
v -20.4368599 228.0175875 -81.5714295
v -20.6687198 228.0909837 -81.2961573
v -20.7985387 227.5848717 -79.7197816
v -20.8217546 227.7183457 -79.7227243
v -20.3842585 227.4854965 -79.2470873
v -20.6136877 227.6555524 -79.4332309
v -20.3264102 227.6044355 -79.1828848
v -19.7368881 227.4525027 -78.9852046
v -19.8510965 227.5737824 -78.9715126
v -19.2695686 227.4836768 -78.9775824
v -18.3635297 227.7119940 -79.4395396
v -18.2682445 227.8810796 -79.5138534
v -18.0518005 228.0614270 -79.9526474
v -18.0180799 228.2451247 -80.4205472
v -18.1619806 228.3163783 -80.9422574
v -18.4512461 228.4712886 -81.3197716
v -18.4265303 228.5845745 -81.2604793
v -18.8586118 228.5944924 -81.5813915
v -18.6944554 228.6736904 -81.4537898
v -19.4379178 228.6763072 -81.7105667
v -19.0821471 228.7587759 -81.6196397
v -20.2821904 228.6706376 -81.4816927
v -20.3365036 228.7855987 -81.4055642
v -20.7198789 228.5881500 -81.0740375
v -20.9583775 228.4652320 -80.5458918
v -20.9043025 228.2675422 -79.7326248
v -20.8591793 228.3671866 -79.5860231
v -20.5451727 228.1428635 -79.1893813
v -20.5453813 228.2698117 -79.1592750
v -20.0987643 228.0910946 -78.8979541
v -18.5705654 228.2620675 -79.0479895
v -18.0245890 228.6116972 -79.8905065
v -18.0530227 228.6364941 -79.7813037
v -21.3131276 211.3555856 -83.5111319
v -20.6278344 211.2245394 -83.0979419
v -19.9911668 211.1620619 -82.9005006
v -21.9569459 211.6163276 -84.3338358
v -19.4999736 211.1513019 -82.8669493
v -18.9055054 211.1659058 -82.9129294
v -22.2150409 211.9320817 -85.3296649
v -17.9232176 211.2983946 -83.3308848
v -22.0475009 212.2532269 -86.3425439
v -17.1876298 211.5357794 -84.0797944
v -21.4801948 212.5298395 -87.2147227
v -16.8147548 211.8409482 -85.0421549
v -20.6023027 212.7180175 -87.8084382
v -16.8630167 212.1658285 -86.0667357
v -19.5515118 212.7884554 -88.0306423
v -17.2534912 212.4252589 -86.8849760
v -18.4928488 212.7302083 -87.8466553
v -17.7490613 212.5911971 -87.4081284
v -20.0065470 208.9744952 -83.6095190
v -20.9350669 209.0846005 -83.9582591
v -21.4099388 209.2011090 -84.3147896
v -22.0334197 209.5037381 -85.2465634
v -22.1355620 209.5770221 -85.6255843
v -22.1844851 209.6943272 -85.9503502
v -22.1943948 209.8513424 -86.2756867
v -21.3029788 210.4236331 -88.0414682
v -20.8315449 210.4585805 -88.3770200
v -20.4496403 210.5623857 -88.5361533
v -20.0398899 210.5738277 -88.6562296
v -18.8496662 210.5738053 -88.6330412
v -18.3111254 210.5265800 -88.4408431
v -17.8282404 210.4424384 -88.1494895
v -17.5132854 210.3312573 -87.8726470
v -17.1291685 210.2050141 -87.3701087
v -16.9095404 209.9859499 -86.8461113
v -16.8176518 209.8287704 -86.3929630
v -16.8108636 209.7265449 -85.8867978
v -17.1114674 209.4471212 -84.9124652
v -17.3682459 209.2783902 -84.5590636
v -18.4834254 209.0424371 -83.7371491
v -19.4771529 209.0541719 -83.5319481
v -19.4657838 209.0218791 -83.5435133
v -19.5796798 208.9313121 -83.5839794
v -19.6221596 208.7683744 -83.7557650
v -20.0685348 208.8115634 -83.7667877
v -19.7892153 208.7134047 -83.9303803
v -20.4907103 208.8500778 -83.9086558
v -20.4873959 209.0023396 -83.7498104
v -20.3812381 208.7617167 -84.0617393
v -19.9628736 208.7148317 -84.0987752
v -20.9193028 208.9414740 -84.0810001
v -21.2654128 209.0149338 -84.3495413
v -20.6819420 208.7981034 -84.3564748
v -20.8871504 208.8505891 -84.2471639
v -21.2399867 208.9254139 -84.6436827
v -21.5836143 209.1474433 -84.6213540
v -21.6074447 209.0773809 -84.8941880
v -21.7996134 209.3724000 -84.7784282
v -21.8836970 209.2715338 -85.1335656
v -21.5032509 209.0324084 -85.0230110
v -21.8425572 209.2289490 -85.5033880
v -22.0318710 209.4036504 -85.8131648
v -21.5459770 209.0878338 -85.2880821
v -22.1228030 209.5998074 -86.1726954
v -21.7839180 209.2795308 -85.8753087
v -22.1278569 209.8098426 -86.5890156
v -22.0460877 209.6017835 -86.4432112
v -22.1138068 210.0022158 -86.7856226
v -21.9637570 209.7711555 -86.9215010
v -21.9122708 209.5299307 -86.5302507
v -21.9744176 209.9957773 -87.1173731
v -21.6719143 209.6215951 -86.9652208
v -21.8832472 210.1642342 -87.3410873
v -21.8087703 209.9592478 -87.3629973
v -21.5880243 210.2534297 -87.7652978
v -21.6975696 209.7877059 -87.2887655
v -21.4703310 210.0384670 -87.7821941
v -21.3872061 209.9052300 -87.7033166
v -21.2517913 209.8357790 -87.6447309
v -21.1964927 210.2940007 -88.1239647
v -21.0830385 210.1016140 -88.1055874
v -20.8117561 209.9895725 -88.0934677
v -20.8378174 210.2257362 -88.3121011
v -20.3516362 210.2988915 -88.5388100
v -20.3915948 210.1321281 -88.4073072
v -19.8213362 210.4291620 -88.6802370
v -19.7874905 210.2614661 -88.6176745
v -19.4763825 210.6004513 -88.7056330
v -19.2700566 210.2775063 -88.6335846
v -19.1974143 210.4598086 -88.6884912
v -19.7327148 210.0963383 -88.4554033
v -18.9616059 210.1566813 -88.4969674
v -18.6810773 210.3337326 -88.5593127
v -18.6119746 210.0429898 -88.2898382
v -18.1890458 210.3734705 -88.3804097
v -18.2769076 210.1550800 -88.3237364
v -17.8347181 210.2411794 -88.1309653
v -17.7216705 210.0784380 -87.9605031
v -17.8547159 209.9487077 -87.9027906
v -17.3974666 210.1486347 -87.7208623
v -17.4209630 209.9159276 -87.5687890
v -17.1827296 209.9868033 -87.3713696
v -17.0402856 209.8884911 -87.0655911
v -17.5083979 209.7553858 -87.3822496
v -17.1636547 209.7514880 -87.0737014
v -16.9495633 209.7010423 -86.6336766
v -17.0862698 209.5531942 -86.5882316
v -16.8878479 209.5661657 -86.1352654
v -17.0214796 209.3665516 -85.8377661
v -16.9244266 209.4588023 -85.6140608
v -16.9295492 209.5110504 -85.3651468
v -17.1827407 209.4101751 -86.2909287
v -17.1767649 209.1969013 -85.2662370
v -17.1643192 209.2567776 -85.0021687
v -17.2938025 209.1795081 -85.5513201
v -17.3811979 209.1109215 -84.7959578
v -17.5790058 209.0685666 -84.4772421
v -17.5682026 209.0181981 -85.0542746
v -17.6928565 209.2146961 -84.2053443
v -17.5787722 208.9969646 -84.7036077
v -17.8933684 208.8933169 -84.6510648
v -17.8867784 209.0727932 -84.1023143
v -18.2268461 208.9510324 -83.9566680
v -18.0891378 208.8625501 -84.2348524
v -18.4272106 208.7786796 -84.2392898
v -18.5656088 208.7962615 -83.9668770
v -18.6397960 208.8838613 -83.7969518
v -19.1053843 208.9690203 -83.5894819
v -19.1920211 208.8144765 -83.7060798
v -19.1011901 208.7311052 -83.8966157
v -19.0203616 208.7138186 -84.0915022
v -20.2420151 209.0050995 -85.0316194
v -20.9840567 209.3935625 -86.2567695
v -18.7580144 209.0050995 -85.0316194
v -20.2420151 209.7820254 -87.4817673
v -18.0159728 209.3935625 -86.2567695
v -18.7580144 209.7820254 -87.4817673
v -20.2420151 210.6469649 -84.5110334
v -20.9840567 211.0354278 -85.7360313
v -18.7580144 210.6469649 -84.5110334
v -18.0159728 211.0354278 -85.7360313
v -18.7580144 211.4238908 -86.9611813
v -20.2420151 211.4238908 -86.9611813
v -18.0103367 228.7657755 -80.2576111
v -18.1557802 228.9363826 -80.7196270
v -20.6746352 212.9767690 -85.1150744
v -20.4362504 212.8261787 -84.4135012
v -19.9764732 212.7705769 -84.0575744
v -19.4942331 212.7827461 -83.9500759
v -18.3729883 213.4349144 -85.3579805
v -18.6731171 213.6226995 -85.7892429
v -20.6798896 213.6309309 -85.0320166
v -20.5950904 213.5229323 -84.5157256
v -19.7930203 213.3983045 -83.7946574
v -19.3293824 213.4306989 -83.7581075
v -18.3172870 213.9117757 -84.7847149
v -19.9140570 214.4543496 -85.8178616
v -20.3591846 214.4046440 -85.5055764
v -20.6541181 214.1940932 -84.5088842
v -20.4336393 214.0885033 -84.0103310
v -19.4407636 214.0505328 -83.5536413
v -18.5984337 214.2591721 -83.9270461
v -18.3826455 214.4125188 -84.2808459
v -18.3298652 214.5979458 -84.7151765
v -19.6264741 215.0784642 -85.6781193
v -20.0467197 215.0781171 -85.5436894
v -20.3999305 215.0324497 -85.2605234
v -20.6227908 214.9461715 -84.8613621
v -20.3574907 214.7026542 -83.7214556
v -19.8619687 214.6589059 -83.4148120
v -19.4023973 214.6838330 -83.3529634
v -18.3897556 215.0221594 -84.0236298
v -18.3350223 215.2428580 -84.5541420
v -18.4573891 215.4004662 -84.9167129
v -20.6115743 212.9009671 -84.7700751
v -18.9412550 212.5024888 -83.8207894
v -18.9404720 212.8684397 -84.0596488
v -18.5074194 213.0483527 -84.4404669
v -18.3407874 213.2183318 -84.8450155
v -18.0272958 213.1411537 -85.3569212
v -19.1294457 213.7596524 -86.0505674
v -19.7739681 213.8194630 -86.0542576
v -20.3331704 213.7860075 -85.7552294
v -20.1763261 213.0640844 -83.7012364
v -20.3107503 213.4284635 -84.0746591
v -18.8085386 213.5403059 -83.9392500
v -18.4606978 213.7122933 -84.3173429
v -18.4132653 214.0920662 -85.2163841
v -18.2848590 213.9975115 -85.7077880
v -18.6610968 214.2583633 -85.5977428
v -19.2942594 214.4161352 -85.8802956
v -19.9581779 214.2881738 -86.1897461
v -20.6269942 214.3178193 -85.0635423
v -20.4361723 213.7257642 -83.6627078
v -19.9245384 214.0315944 -83.6314697
v -18.9820852 214.1256174 -83.6500356
v -18.1251830 214.5117859 -85.2246934
v -18.3336783 214.6518132 -85.5636697
v -18.5046195 214.8085962 -85.2156887
v -19.0560709 215.0080218 -85.6306447
v -19.3863247 214.9011917 -86.0719049
v -20.6604071 214.8224287 -84.2954111
v -20.6253977 214.3968892 -83.6477941
v -18.9851441 214.3912706 -83.2064450
v -18.5404209 214.5008033 -83.4378084
v -18.8750398 214.7834717 -83.4935410
v -18.8928917 215.4613987 -85.7592544
v -18.7805752 215.5623763 -85.2793255
v -19.3657313 215.5335980 -85.8682266
v -19.2469837 215.6718621 -85.4718037
v -19.8409829 215.7167627 -85.4372017
v -20.2986039 215.6816821 -85.1675140
v -18.3546538 215.9383683 -84.5036809
v -19.9231419 216.3441934 -85.2036634
v -20.2385895 215.9488626 -83.2208273
v -18.9624438 216.8806554 -84.9914760
v -19.4976679 216.9619408 -85.0873612
v -20.0033298 216.9735480 -84.9726242
v -20.6611930 216.7298161 -83.7507467
v -20.4439386 216.6153429 -83.2225055
v -18.4040458 216.9009014 -83.3964884
v -18.5886609 217.3802699 -84.5164824
v -19.0871989 217.5385912 -84.8275100
v -19.5527858 217.5982680 -84.8832866
v -20.5604125 217.5103082 -84.2269718
v -19.5102781 218.2307563 -84.6995886
v -20.5859427 215.6030006 -84.7691079
v -20.6668216 215.4669042 -84.1554793
v -20.4868412 215.3702476 -83.6966039
v -20.0529190 215.2990234 -83.2827811
v -19.3321019 215.3226154 -83.1528755
v -18.8541158 215.4255034 -83.3184743
v -18.5201974 215.5654128 -83.6209249
v -18.3507581 215.7265381 -84.0011613
v -18.6778180 216.1563563 -84.9997511
v -19.3004937 216.3102323 -85.2861741
v -20.4111575 216.1440065 -85.3515121
v -20.7417908 216.0731560 -85.0045467
v -20.4106865 216.2938800 -84.8637263
v -20.9554279 215.9606198 -84.5241838
v -20.6884171 216.1475734 -84.1729198
v -20.5057666 216.0066828 -83.5203097
v -19.7552101 215.9248080 -82.9803665
v -19.0131010 215.6483258 -82.8002527
v -19.2605744 215.9657849 -82.9662479
v -18.5863029 215.7452669 -83.0033552
v -18.8267966 216.0650372 -83.1333012
v -18.5156194 216.1986182 -83.4259342
v -18.3152369 216.4251438 -83.9568840
v -18.4905767 216.6919925 -84.5854175
v -18.7186347 216.6842668 -85.2769009
v -20.3710943 216.7836507 -85.1828621
v -20.4402859 216.9147443 -84.6091167
v -20.9824451 216.5398687 -84.1176276
v -20.6373694 216.8297624 -84.2040608
v -20.9549831 216.4381947 -83.6785392
v -19.9439728 216.5535350 -82.8410516
v -19.3285760 216.5854842 -82.7465556
v -18.7833351 216.7108399 -82.9630489
v -18.0136301 216.7663768 -83.7474823
v -18.3501662 217.1816673 -84.0554087
v -18.8821890 217.3543636 -85.1539081
v -19.9056720 217.6066105 -84.8014363
v -20.2291663 217.5847191 -84.6243673
v -20.8253398 217.3041082 -84.4699172
v -20.6754603 217.3734613 -83.6087329
v -20.3953253 217.2330512 -82.9582389
v -19.7694249 217.1851642 -82.5744993
v -19.1496476 217.2447803 -82.5877526
v -18.7417762 217.3555959 -82.7939482
v -18.4638941 217.4960968 -83.1064552
v -18.1334448 217.6773099 -84.2425266
v -18.3459248 217.8146315 -84.5766821
v -18.4164964 217.9065434 -84.0769414
v -18.7645134 217.9603464 -84.9036201
v -18.8731044 218.1167082 -84.5362613
v -20.9888421 215.7761696 -84.3120828
v -20.9239052 215.6551143 -83.8019942
v -19.5783078 215.4615474 -82.7686681
v -19.0582297 215.5175545 -82.8213852
v -18.0735771 215.8990430 -83.7148011
v -20.5527100 216.1487519 -83.0072714
v -20.0843359 216.0920712 -82.6888840
v -18.1099142 216.9082329 -84.4452632
v -18.4264360 217.0984652 -84.9021290
v -18.9054962 217.2369023 -85.2065200
v -19.4858184 217.3149146 -85.3112601
v -19.9602920 217.3222877 -85.2263500
v -20.0144504 216.7199860 -82.4635486
v -18.0969189 217.1483257 -83.2635453
v -18.9524355 217.4310547 -82.2577267
v -18.3323141 217.6703212 -83.5110850
v -18.1817308 218.2281809 -84.1904776
v -18.5479058 218.4048806 -84.6056317
v -19.0473066 218.5251561 -84.8538987
v -18.0085214 213.5449328 -84.9283669
v -19.5813032 214.1669386 -86.3161073
v -20.5429231 214.1098498 -85.8883797
v -20.8897849 213.9900292 -85.3712725
v -20.9904399 213.8735644 -84.8706503
v -20.5151888 213.6160568 -83.7696230
v -20.1254173 213.5701373 -83.5168146
v -18.0111957 214.1585471 -84.6774673
v -20.6249275 214.7197390 -85.5970584
v -20.9872232 214.4921410 -84.6223822
v -19.1295057 215.3839176 -85.8837449
v -20.9208472 215.2344154 -84.8856445
v -20.9880837 215.1005572 -84.3201706
v -20.7996600 214.9540857 -83.7109810
v -19.9485908 214.8229080 -83.0412622
v -19.3032587 214.8510789 -82.9679998
v -18.3258811 215.0979262 -83.4874373
v -18.0776358 215.2751316 -83.9163053
v -18.0113490 215.4697246 -84.4002065
v -18.6191064 215.8991492 -85.4584669
v -19.5393671 216.0533307 -85.7047625
v -20.1401019 218.2294663 -84.4960348
v -20.5347248 218.1503372 -84.0712869
v -20.6656586 218.6354843 -83.2020004
v -20.1707679 218.4661065 -82.3690018
v -18.6514886 218.6551236 -82.4682668
v -19.5176425 219.4941892 -84.2912113
v -20.6042570 219.2061764 -82.7130060
v -20.3326328 219.1223666 -82.3059153
v -20.3547969 220.0939671 -83.7158033
v -18.4261635 220.4239639 -83.2538023
v -18.7326332 220.5970261 -83.6395802
v -20.4827129 218.5344280 -84.5320638
v -20.7846519 218.4614015 -84.1753931
v -20.6832643 218.0290275 -83.5136542
v -20.9523515 218.2090262 -83.1255885
v -20.5253982 217.9078659 -82.9578898
v -20.2252605 217.8410701 -82.6086962
v -19.7977773 217.8177093 -82.3941242
v -19.7974424 217.9823925 -82.0043222
v -19.2359189 217.8611804 -82.3590880
v -18.5041727 218.0921923 -82.8290361
v -18.3275381 218.3150803 -83.3409149
v -18.4034763 218.5144652 -83.8192559
v -18.8571279 218.7493753 -84.3422408
v -18.6535646 219.0651533 -84.4739900
v -19.4967783 218.8599065 -84.4912801
v -20.0127302 218.8681623 -84.3605083
v -19.9849377 219.2184323 -84.6242509
v -20.3820597 218.8232135 -84.0799234
v -20.4355324 219.1773802 -84.3695049
v -20.6346122 218.7294983 -83.6237754
v -20.8898753 218.7833063 -82.6764833
v -20.5097622 218.5331126 -82.7203374
v -19.6388873 218.4567799 -82.1527947
v -19.0773401 218.5247916 -82.2119750
v -18.5265226 218.8051641 -82.0821509
v -18.3957598 219.1353031 -83.5894071
v -18.9788445 219.7759254 -84.4354435
v -19.0069506 219.4116748 -84.1950340
v -20.0568504 219.4970489 -84.1371430
v -20.5163415 219.4263518 -83.7156687
v -20.6685262 219.3121529 -83.1972459
v -19.9682769 219.0838539 -82.0556821
v -19.5001999 219.0974497 -81.9478024
v -19.0096134 219.1707809 -82.0309798
v -18.6116483 219.3030359 -82.3056736
v -18.3668565 219.4886278 -82.7316656
v -18.3421747 219.6921158 -83.2184535
v -18.5360438 219.8720840 -83.6383587
v -18.8532922 220.0044680 -83.9211820
v -18.9214833 220.3956640 -84.2094437
v -19.3136522 220.1020451 -84.0764917
v -19.8368707 220.1378378 -84.0381163
v -20.0464036 220.4791536 -84.1992954
v -20.6420938 219.9870919 -83.2135368
v -20.6223026 219.8461274 -82.5456466
v -20.3048456 219.7490524 -82.0746894
v -19.9024516 219.7145052 -81.8257731
v -19.4568623 219.7322839 -81.7476812
v -18.9928612 219.8070879 -81.8400062
v -18.6077054 219.9381789 -82.1120440
v -18.3744810 220.1061615 -82.4989286
v -18.3305631 220.2568832 -82.8554665
v -19.2164120 220.7205453 -83.8698972
v -20.0178748 220.7626909 -83.7556085
v -20.6478343 220.6179192 -82.9978215
v -18.7902895 221.2474763 -83.4885341
v -19.5775565 221.6167858 -81.1507957
v -18.3541886 222.0440809 -82.0011122
v -18.4216365 221.9605127 -81.8040164
v -18.3323953 222.1622161 -82.2820908
v -18.3985687 222.2853399 -82.5744716
v -18.3785492 222.2612786 -82.5175586
v -18.7271200 222.4844786 -83.0249056
v -18.6796663 222.4654828 -82.9842752
v -18.9956951 222.5658437 -83.1845357
v -18.9379432 222.5512803 -83.1582097
v -19.3111472 222.6244139 -83.2699051
v -19.3778790 222.6329620 -83.2770573
v -20.2407794 222.6342284 -83.0052752
v -20.1865700 222.6408769 -83.0466664
v -20.2914461 222.6269467 -82.9617535
v -20.6679697 222.4602284 -82.1617786
v -20.3150906 222.2777416 -81.2937781
v -20.2678016 222.2701433 -81.2502565
v -20.2185354 222.2634948 -81.2097783
v -20.1674567 222.2574795 -81.1723436
v -20.1159833 222.2521404 -81.1369510
v -19.0198491 222.3336522 -81.0347805
v -18.6742513 222.4356568 -81.2444251
v -18.3539408 222.6533378 -81.7460457
v -20.3923551 220.7147495 -83.4723623
v -20.7695334 220.9919724 -83.4030657
v -20.9848452 220.8571668 -82.8237719
v -20.4520657 220.4121814 -82.0425327
v -19.8919006 220.3457871 -81.6244676
v -19.3360746 220.3770800 -81.5457786
v -18.8230344 220.4874386 -81.7330560
v -18.3418580 220.8008522 -82.4506439
v -18.3795798 221.0234636 -82.9803062
v -18.8186660 221.6405238 -83.7764177
v -19.4194462 221.3786222 -83.6962167
v -20.0840157 221.3932254 -83.5327095
v -20.5680476 221.0842300 -82.0406742
v -20.3007669 221.0088906 -81.6706486
v -19.8083570 220.9707873 -81.3887853
v -19.8177579 221.1402443 -81.0022320
v -18.4539661 221.2855704 -81.9031227
v -18.3206797 221.5527666 -82.5346718
v -19.3323314 222.3516510 -83.7073604
v -19.6161511 222.0304764 -83.4838471
v -20.1353947 222.0190351 -83.2885613
v -20.4891351 221.9560117 -82.9469038
v -20.6625727 221.7742619 -82.1049145
v -20.4681414 221.6797915 -81.6614388
v -20.2051715 221.6298725 -81.3846351
v -19.7767439 221.7689128 -80.7938513
v -19.2128970 221.6615683 -81.1683516
v -18.9230973 221.7194990 -81.2764332
v -18.5115364 221.9093406 -81.4481431
v -18.2800167 222.0811356 -81.8546902
v -18.0268764 222.2940727 -81.9117873
v -18.5675820 221.8740152 -81.6048404
v -18.2356023 222.2688658 -82.3092625
v -18.3806584 222.4496111 -82.7458291
v -18.6931335 222.6048898 -83.0982476
v -19.1291228 222.7142034 -83.3069847
v -19.6208128 222.7689734 -83.3430064
v -20.0740524 222.7929050 -83.2227645
v -18.5560002 222.3752450 -82.7661066
v -20.4762793 222.7104857 -82.8860423
v -20.7113952 222.6184179 -82.4591614
v -18.8129707 222.5155230 -83.0889994
v -20.7649347 222.5095113 -81.9781324
v -19.1203314 222.5936025 -83.2317810
v -20.6505254 222.4230006 -81.5180942
v -19.7940210 222.6556713 -83.2091647
v -20.3172875 222.3287423 -81.1356842
v -19.9083646 222.3064081 -80.8843090
v -20.6510241 222.5092919 -82.3693678
v -19.3866443 222.3222209 -80.8264790
v -20.4445097 222.2901576 -81.3652977
v -18.9106465 222.4035968 -80.9487973
v -18.5285722 222.5310182 -81.2266696
v -19.4471499 222.2540648 -80.9327346
v -18.3168482 222.6648090 -81.1055242
v -20.0472138 223.9189829 -82.7401518
v -20.6606661 223.7617788 -81.9362590
v -20.0669798 223.5112424 -80.7023716
v -18.5444336 224.2963763 -82.2423542
v -18.8900539 224.4375438 -82.5467029
v -20.1807010 224.1492512 -80.5681503
v -19.5415207 224.1410010 -80.3357709
v -20.4188862 224.8182832 -80.5766169
v -18.9828535 224.8562465 -80.2324592
v -18.3658209 222.8913107 -82.3134492
v -18.5659909 223.0446122 -82.6698182
v -18.8751988 223.1710840 -82.9324449
v -20.5069883 223.2102103 -82.5075028
v -20.6463250 223.0281396 -81.6628566
v -20.4491096 222.9376505 -81.2359100
v -20.1114283 222.8830868 -80.9289919
v -19.6817231 222.8747511 -80.7642500
v -19.1593559 222.9289062 -80.7815716
v -18.6823515 223.0625877 -81.0385855
v -18.4254297 223.2134545 -81.3791810
v -18.3257966 223.3903498 -81.7986671
v -18.4056029 223.5629998 -82.2091014
v -18.6548950 223.7210582 -82.5689901
v -18.3017011 223.9844256 -82.5608306
v -18.6673066 224.1246802 -82.8830979
v -19.0250619 223.8382036 -82.8027101
v -19.4990668 223.9104543 -82.8935631
v -20.4233880 223.8678478 -82.4311873
v -20.9996022 223.9870259 -81.7075516
v -20.3940041 223.5550723 -80.9678145
v -19.6023264 223.6691814 -80.1593204
v -19.1867433 223.5566720 -80.5801177
v -18.7801191 223.6589460 -80.7611780
v -18.3287422 224.0978751 -81.7706875
v -19.3623447 224.5290412 -82.6807065
v -20.3652051 224.5137678 -82.3117999
v -20.6345286 224.4098379 -81.8143451
v -20.6662134 224.3139420 -81.3754899
v -20.5180598 224.2205851 -80.9412198
v -18.9082963 224.2483766 -80.4817450
v -19.0337510 224.3598477 -80.0258528
v -18.4865007 224.4186052 -80.8439906
v -18.6782979 224.9974732 -82.1991724
v -19.2921302 225.1555276 -82.4792972
v -18.7840804 225.4168177 -82.5441443
v -19.9060091 225.1901318 -82.4092489
v -20.3420293 225.1456648 -82.1167849
v -20.5669981 225.0829069 -81.7984451
v -20.6820275 224.9661402 -81.2663693
v -20.9099792 225.1154111 -80.7562824
v -20.6181898 225.0058986 -80.2683973
v -20.1472274 224.9361649 -79.9170321
v -19.7680577 224.7603396 -80.1732643
v -19.6968796 224.9309157 -79.7836300
v -18.3544353 225.1924943 -80.9725198
v -19.9037113 225.3973718 -80.0252120
v -19.3873353 225.4197491 -79.9412161
v -18.4925330 225.6814390 -80.4481402
v -20.6680977 226.8481561 -80.6093015
v -18.3295598 227.2221857 -80.6996569
v -18.5492906 225.0218285 -80.5798906
v -18.2180177 225.2573991 -80.4132150
v -18.4229362 225.4748951 -81.6458601
v -18.6854746 225.6299550 -81.9962915
v -19.0789558 225.7455280 -82.2209002
v -19.6151464 225.8186587 -82.2830996
v -20.1775010 225.8039820 -82.0634725
v -20.5071234 225.7353746 -81.7030716
v -20.6521731 225.6598200 -81.3405283
v -20.6506159 225.5582648 -80.8957669
v -20.9918782 225.8475947 -80.9746110
v -20.4874990 225.4761204 -80.4924088
v -19.7990124 225.5561714 -79.5972051
v -19.2202296 225.5952085 -79.5810052
v -18.6830667 225.7021069 -79.7746655
v -18.2826681 225.8555420 -80.1320191
v -18.3281194 225.8970139 -80.9514362
v -18.3885787 226.0707157 -81.3645022
v -18.0368073 226.2841600 -81.2009553
v -18.6219915 226.2322532 -81.7351703
v -18.6447148 226.6468340 -82.0710552
v -19.1534758 226.3961237 -82.0598574
v -19.1414435 226.7525698 -82.2708115
v -19.7608246 226.4517069 -82.0497170
v -20.6644665 226.2716925 -81.0592380
v -20.9771081 226.4522131 -80.6626843
v -20.6316521 226.1732475 -80.6122378
v -20.4501068 226.0955865 -80.2374696
v -20.1245098 226.0417254 -79.9341895
v -19.1026741 226.0975857 -79.7994901
v -19.1305038 226.2388448 -79.3964760
v -18.6873578 226.2182889 -80.0333783
v -18.6952538 226.3322768 -79.5738175
v -18.4256015 226.3708698 -80.3773784
v -18.3266113 226.5232033 -80.7404065
v -18.0471168 226.9365528 -81.0550889
v -18.4647488 226.7831944 -81.3540726
v -18.2937400 227.1397164 -81.5529032
v -18.9038836 226.9687976 -81.7492443
v -19.3681185 227.0551009 -81.8807419
v -20.6223006 226.9458537 -81.0506207
v -20.5483898 226.7561494 -80.1902382
v -20.1622705 226.6765283 -79.7504483
v -19.6040893 226.6665949 -79.5501994
v -19.0590052 226.7344090 -79.6081443
v -18.6130157 226.8832097 -79.9063279
v -18.3770839 227.0527222 -80.2933891
v -18.3593636 227.0764939 -79.6394249
v -18.4615650 227.4019136 -81.1211110
v -18.1082746 227.6422730 -81.0468230
v -18.8642170 227.5928478 -81.5440700
v -18.7810814 227.9438205 -81.7476365
v -19.3383914 228.0379746 -81.9020886
v -19.5918673 227.7083305 -81.6820847
v -20.0851865 227.7055385 -81.5167215
v -20.5215005 227.6329148 -81.1137782
v -20.8081284 227.9238941 -81.1363104
v -20.9841084 227.7966157 -80.5929215
v -20.6744437 227.5058941 -80.5293966
v -20.9544997 227.6833931 -80.1314636
v -20.2823072 227.3216740 -79.6499707
v -19.7332957 227.2893340 -79.3671062
v -20.6973570 229.0604881 -80.6910183
v -20.6846128 228.7618128 -80.1002819
v -20.6038035 228.7166861 -79.4050355
v -20.4366909 228.6691758 -79.2208687
v -20.3350278 228.6482805 -79.1342819
v -20.0169662 228.5582536 -79.0728758
v -19.4704100 228.5688229 -78.9353392
v -19.5983463 228.5989747 -78.8591951
v -18.5294065 228.8166785 -79.3788973
v -18.9829381 228.6646079 -78.9667440
v -19.2278998 227.3399083 -79.3680845
v -18.6767236 227.4786820 -79.6245816
v -18.7650400 227.5722270 -79.1268435
v -18.3638592 227.6983066 -80.1290848
v -18.1105012 227.8684137 -79.8286318
v -18.0057822 228.1123704 -80.4333607
v -18.3536215 227.9352332 -80.6938450
v -19.3581734 228.3237021 -81.4893156
v -19.9891947 228.3423580 -81.3702065
v -19.8387364 228.6901631 -81.6552985
v -20.4945451 228.2755247 -80.9541617
v -20.6783885 228.1295236 -80.2939379
v -20.9845199 228.3766142 -80.1878958
v -20.5222505 228.0070474 -79.7362484
v -20.0862851 227.9271379 -79.2999843
v -19.5861604 228.0875084 -78.7628554
v -19.4399954 227.9448386 -79.1436612
v -19.0456465 228.1495082 -78.8220198
v -18.8207453 228.0612385 -79.3168516
v -18.2504307 228.4017520 -79.3802256
v -18.4133538 228.2774753 -79.7992592
v -18.3284945 228.5150478 -80.3671754
v -18.0702075 228.8681877 -80.5283036
v -18.5308003 228.7112704 -80.8296404
v -18.3044027 228.8781290 -80.7989094
v -18.9130198 228.8634961 -81.1525136
v -19.3896316 228.9484495 -81.2855188
v -19.3833820 229.2349444 -81.4580741
v -19.8632910 228.9775745 -81.2217939
v -20.6656387 229.0766345 -80.7509747
v -20.6307075 229.0918311 -80.8094094
v -20.8100348 228.9794766 -80.3930507
v -20.8024029 228.8254011 -79.8228496
v -20.3838821 228.6533460 -79.1881514
v -18.4219859 229.0628254 -79.8022695
v -18.6713452 228.9079280 -79.3142921
v -18.3943982 228.4540618 -79.1725203
v -19.2192450 228.8017751 -78.9781867
v -18.4021245 228.9243521 -79.6401557
v -18.3803616 228.7954975 -79.5130421
v -18.2157154 228.5189992 -79.4053730
v -18.3810207 228.7499077 -79.4631292
v -18.3848928 228.7055843 -79.4135205
v -20.0805790 228.6112749 -78.9727787
v -19.9012554 228.8162949 -79.0245847
v -20.3921242 228.9288822 -79.3801917
v -20.5909412 229.1093418 -79.9493139
v -20.5098399 229.2524139 -80.4005501
v -20.1678379 229.3956718 -80.8514034
v -20.3919543 229.1683624 -81.1090497
v -19.5426385 229.4555374 -81.0424445
v -19.8561514 229.2358881 -81.4001333
v -19.0562555 229.4290386 -80.9578361
v -18.9186499 229.1863755 -81.3775058
v -18.3619415 229.0502039 -81.0186707
v -18.6716685 229.3411026 -80.6802128
v -18.4390027 229.2097207 -80.2664351
v -18.2546421 229.0313613 -80.5808446
v -19.4163306 226.9599088 -79.1209710
v -18.5214127 227.1416927 -79.4500379
v -18.6728116 228.1552989 -81.1960097
v -20.2832893 228.1630128 -81.6389719
v -20.9229753 227.9883469 -80.8438332
v -20.9829852 227.8404094 -80.2256218
v -19.2810959 227.6060404 -78.9302081
v -18.6658895 227.7226482 -79.1431564
v -18.1269525 228.4143288 -80.8346544
v -19.7567089 228.8161432 -81.6468276
v -20.3033478 228.9408059 -80.9548134
v -20.5402209 228.8797809 -80.6455068
v -20.8204275 228.6782974 -80.8918196
v -20.9952888 228.5164184 -80.2153386
v -20.4861653 228.6271291 -79.4607073
v -20.1129599 228.2151841 -78.8579251
v -19.4660802 228.2200483 -78.7189208
v -18.9871369 228.6498293 -79.0438590
v -18.7956838 228.3190349 -78.8685927
v -18.3383759 225.3379697 -81.3257352
v -18.5492825 225.4715638 -82.3585928
v -18.9479621 225.5785137 -82.5804511
v -19.5104738 225.6487809 -82.6668062
v -20.6670128 225.5651298 -82.0990798
v -20.9099956 225.4668921 -81.6753103
v -20.9028936 225.2333595 -80.6893799
v -20.2256104 225.4220027 -80.2146117
v -18.8877070 225.5174026 -80.0962654
v -18.1242669 225.4558767 -80.5544421
v -20.1782809 226.4323393 -81.8568415
v -20.5761963 226.2236403 -82.0064933
v -20.5038944 226.3702819 -81.5153479
v -19.6600515 226.0313593 -79.7608237
v -19.2016833 226.8768587 -82.2418574
v -19.8123869 227.0814308 -81.8348995
v -20.3092193 227.0489613 -81.5634698
v -20.6620956 226.8325361 -81.7189164
v -20.9445077 226.7038240 -81.1636659
v -20.9812545 226.5792642 -80.6314524
v -19.7297995 226.3142325 -79.3511015
v -19.2821538 226.3421565 -79.3356079
v -18.7970350 226.4265791 -79.4760686
v -18.2809683 227.2500452 -81.4916469
v -18.6156444 227.3891010 -81.8105561
v -20.5966001 227.4103772 -80.0962575
v -19.3103434 223.2573814 -83.0747693
v -19.7536589 223.2936465 -83.0522464
v -20.2120337 223.2715650 -82.8376633
v -20.6543565 223.1252745 -82.1143673
v -18.2981974 222.8156700 -81.0817056
v -20.7247989 223.6534896 -82.6229252
v -20.6263965 223.6412578 -81.3905313
v -19.6365543 223.5054521 -80.5590311
v -18.4496368 223.8201825 -81.1220273
v -18.0792225 223.6051482 -81.2688607
v -18.6948424 224.2535642 -82.8568260
v -19.0966118 224.3386906 -83.0228860
v -19.8415713 224.5563292 -82.6286492
v -20.7138406 223.8917637 -80.7581863
v -20.4097005 223.8280631 -80.4409165
v -18.3282257 224.6368958 -81.3584265
v -18.3910604 224.8123662 -81.7740178
v -18.4957274 220.4052844 -83.9308485
v -19.0562119 220.5422729 -84.2169363
v -19.6899581 220.7625813 -83.8614744
v -20.9527387 220.3764973 -83.1249707
v -20.6448570 220.5021438 -82.4737298
v -20.7979122 220.1312830 -82.0891270
v -20.1956993 220.3656211 -81.7936867
v -18.5040568 220.6282131 -82.0429834
v -20.4813401 221.3225142 -83.1507164
v -20.6522961 221.2335970 -82.7277859
v -20.6595587 221.1565253 -82.3767957
v -19.2691534 221.0175848 -81.3642359
v -18.8502107 221.1097193 -81.5189756
v -18.0209199 221.3038845 -82.6370522
v -18.5178687 221.7542131 -83.0071990
v -18.9095020 221.9173482 -83.3593499
v -19.0260543 221.7993925 -83.8057504
v -19.5509406 221.8610336 -83.8684895
v -20.6721360 221.7741034 -83.2919252
v -20.6518780 221.8678796 -82.5336116
v -20.9828736 221.5953205 -82.4878405
v -20.4682882 221.3098016 -81.2940016
v -18.5107254 221.7388710 -81.5026201
v -18.2800167 221.9117569 -81.9082553
v -18.2357619 222.0978694 -82.3597373
v -18.3810679 222.2804083 -82.8000714
v -18.6930437 222.4358856 -83.1522449
v -19.1297645 222.5453230 -83.3612317
v -19.6199359 222.5993934 -83.3960533
v -20.0938714 222.5958262 -83.2476589
v -20.4785962 222.5408814 -82.9391489
v -20.7276848 222.4374250 -82.5047311
v -20.7665702 222.3401114 -82.0313880
v -20.6257598 222.2361221 -81.5674637
v -20.3182212 222.1587016 -81.1849740
v -19.8838281 222.1270164 -80.9503547
v -19.3797356 222.1431462 -80.8809874
v -18.9055111 222.2277972 -81.0058682
v -18.4479997 222.2565297 -81.2418869
v -18.5285722 222.3619560 -81.2802347
v -20.3323729 218.0477427 -84.8083984
v -20.9458677 217.8617900 -83.9611170
v -20.9782845 217.7272607 -83.3958119
v -20.7894176 217.6007862 -82.8653582
v -20.4147675 217.5125556 -82.4466891
v -18.8237936 217.9623828 -82.5418853
v -19.2791568 218.6776062 -84.8560221
v -19.7266262 218.7122777 -84.8480700
v -20.2330315 218.6958256 -84.6700893
v -20.7027089 218.6125800 -84.2768269
v -19.6651016 218.1051852 -81.9439374
v -18.7184833 218.2384035 -82.1194118
v -18.4294475 218.7905645 -82.7718893
v -18.3290147 218.9582477 -83.1737772
v -18.0508586 218.8511668 -83.6254829
v -18.6587925 219.3022310 -83.9756371
v -19.7867110 218.7315881 -81.7553012
v -19.1868169 218.7791777 -81.7517908
v -20.4678260 219.9229602 -84.1051513
v -20.7699568 219.8526089 -83.7596390
v -20.6069925 219.4405076 -82.0267877
v -20.2329012 219.3841790 -81.7256523
v -19.6961804 219.3663220 -81.5420096
v -19.1121139 219.4188241 -81.5654221
v -18.5941052 219.5342745 -81.7960932
f 3 864 44
f 3 44 1
f 3 1 2
f 4 3 2
f 7 4 2
f 7 2 5
f 7 5 6
f 9 7 6
f 9 6 8
f 11 9 8
f 11 8 10
f 12 11 10
f 12 10 13
f 17 12 13
f 15 17 13
f 17 15 14
f 21 15 13
f 21 13 16
f 19 17 14
f 19 14 18
f 21 16 20
f 23 19 18
f 25 21 20
f 23 18 22
f 25 20 24
f 868 23 22
f 28 25 24
f 28 24 26
f 868 22 27
f 31 868 27
f 32 28 26
f 32 26 29
f 31 27 30
f 34 31 30
f 32 29 33
f 860 32 33
f 37 34 35
f 39 860 33
f 39 33 36
f 42 37 38
f 43 36 40
f 43 39 36
f 45 42 41
f 43 40 44
f 864 43 44
f 30 35 34
f 35 38 37
f 38 41 42
f 41 980 45
f 47 45 980
f 47 980 46
f 873 47 46
f 873 46 48
f 50 873 48
f 50 48 49
f 51 50 49
f 51 49 981
f 52 51 981
f 876 52 981
f 876 981 53
f 54 876 53
f 54 53 982
f 55 54 982
f 983 55 982
f 56 55 983
f 984 56 983
f 58 56 984
f 57 58 984
f 59 58 57
f 985 59 57
f 878 59 985
f 878 985 986
f 61 878 986
f 61 986 60
f 63 61 60
f 62 63 60
f 65 63 62
f 64 65 62
f 67 65 64
f 66 67 64
f 68 67 66
f 68 66 987
f 70 68 987
f 69 70 987
f 881 70 69
f 881 69 71
f 882 881 71
f 882 71 72
f 73 882 72
f 73 72 74
f 885 73 74
f 885 74 75
f 77 885 75
f 77 75 76
f 78 77 76
f 78 76 988
f 78 988 79
f 80 78 79
f 80 79 989
f 82 80 989
f 82 989 81
f 83 82 81
f 83 81 84
f 887 83 84
f 887 84 85
f 87 887 85
f 86 87 85
f 89 87 86
f 88 89 86
f 888 89 88
f 889 888 88
f 90 889 88
f 91 889 90
f 92 889 91
f 93 92 91
f 94 92 93
f 96 94 93
f 96 93 95
f 98 96 95
f 98 95 97
f 98 97 99
f 100 98 99
f 891 100 99
f 990 891 99
f 893 891 990
f 101 893 990
f 103 893 101
f 102 103 101
f 105 103 102
f 104 105 102
f 106 105 104
f 106 104 991
f 107 106 991
f 107 991 992
f 108 992 993
f 108 107 992
f 110 108 993
f 110 993 109
f 111 110 109
f 111 109 994
f 112 111 994
f 112 994 995
f 114 112 995
f 114 995 113
f 115 114 113
f 115 113 996
f 115 996 997
f 116 115 997
f 116 997 998
f 118 116 998
f 117 118 998
f 119 118 117
f 999 119 117
f 121 119 999
f 120 121 999
f 122 121 120
f 1000 122 120
f 124 122 1000
f 123 124 1000
f 124 123 125
f 921 124 125
f 922 921 125
f 126 922 125
f 924 922 126
f 961 924 126
f 127 924 961
f 962 127 961
f 130 962 128
f 130 127 962
f 130 128 129
f 131 130 129
f 131 129 963
f 132 131 963
f 132 963 964
f 928 132 964
f 930 964 133
f 930 928 964
f 134 930 133
f 965 134 133
f 136 134 965
f 136 965 135
f 137 136 135
f 137 135 138
f 139 137 138
f 935 139 138
f 935 138 140
f 143 935 140
f 141 143 140
f 142 143 141
f 145 143 142
f 144 145 142
f 936 145 144
f 146 936 144
f 148 936 146
f 147 148 146
f 150 148 147
f 150 147 149
f 938 150 149
f 938 149 151
f 940 938 151
f 152 940 151
f 153 940 152
f 966 153 152
f 154 153 966
f 967 154 966
f 157 154 967
f 155 157 967
f 156 157 155
f 158 157 156
f 160 158 156
f 159 160 156
f 161 160 159
f 162 160 161
f 162 161 163
f 944 162 163
f 164 944 163
f 164 163 968
f 164 968 969
f 165 164 969
f 165 969 970
f 946 165 970
f 166 946 970
f 166 970 971
f 168 166 971
f 168 971 972
f 168 972 167
f 169 168 167
f 949 169 167
f 949 167 170
f 173 170 171
f 173 949 170
f 173 171 172
f 175 173 172
f 174 175 172
f 177 175 174
f 176 177 174
f 178 177 176
f 973 178 176
f 180 178 973
f 179 180 973
f 182 180 179
f 182 179 181
f 182 181 183
f 184 182 183
f 185 184 183
f 974 185 183
f 187 185 974
f 186 187 974
f 956 186 188
f 956 187 186
f 957 956 188
f 957 188 189
f 959 957 189
f 190 959 189
f 192 959 190
f 191 192 190
f 194 192 191
f 194 191 193
f 1439 194 193
f 1439 193 195
f 197 1439 195
f 196 197 195
f 1440 197 196
f 198 1440 196
f 1441 1440 198
f 199 1441 198
f 1442 1441 199
f 200 1442 199
f 1443 1442 200
f 1443 200 201
f 203 1443 201
f 202 203 201
f 204 203 202
f 205 204 202
f 975 205 202
f 206 205 975
f 208 205 206
f 207 208 206
f 210 208 207
f 209 210 207
f 212 210 209
f 212 209 211
f 213 212 211
f 977 213 211
f 214 213 977
f 978 214 977
f 215 214 978
f 979 215 978
f 1445 215 979
f 216 1445 979
f 1446 1445 216
f 217 1446 216
f 1447 1446 217
f 1012 1447 217
f 1448 1447 1012
f 1013 1448 1012
f 219 1448 1013
f 218 219 1013
f 1015 219 218
f 221 219 1015
f 220 221 1015
f 223 221 220
f 222 223 220
f 224 223 222
f 1019 224 222
f 1449 224 1019
f 225 1449 1019
f 226 1449 225
f 226 225 227
f 1450 226 227
f 228 1450 227
f 229 1450 228
f 231 229 228
f 230 231 228
f 232 231 230
f 1453 230 233
f 1453 232 230
f 235 233 234
f 235 1453 233
f 235 234 1025
f 237 235 1025
f 237 1025 236
f 238 237 236
f 238 236 239
f 240 238 239
f 240 239 1028
f 241 240 1028
f 1030 241 1028
f 242 241 1030
f 243 242 1030
f 245 242 243
f 245 243 244
f 246 245 244
f 1032 246 244
f 247 246 1032
f 249 247 1032
f 248 249 1032
f 1455 249 248
f 1455 248 250
f 1456 1455 250
f 251 1456 250
f 252 1456 251
f 1036 252 251
f 254 252 1036
f 254 1036 253
f 256 254 253
f 256 253 255
f 258 256 255
f 258 255 257
f 259 258 257
f 261 259 257
f 260 261 257
f 1038 261 260
f 262 261 1038
f 265 262 1038
f 263 265 1038
f 264 265 263
f 267 265 264
f 267 264 266
f 1457 267 266
f 1458 1457 266
f 1458 266 268
f 269 1458 268
f 270 269 268
f 271 269 270
f 272 271 270
f 273 271 272
f 1459 273 272
f 274 1459 272
f 1460 1459 274
f 1460 274 275
f 1461 1460 275
f 1462 275 276
f 1462 1461 275
f 1463 276 277
f 1463 1462 276
f 1463 277 278
f 279 1463 278
f 279 278 280
f 281 279 280
f 282 281 280
f 284 281 282
f 283 284 282
f 1399 284 283
f 285 1399 283
f 1051 1399 285
f 1400 1399 1051
f 286 1400 1051
f 287 1400 286
f 287 286 1054
f 290 287 1054
f 288 290 1054
f 289 290 288
f 291 290 289
f 1402 291 289
f 292 1402 289
f 294 1402 292
f 294 292 293
f 1404 294 293
f 296 1404 293
f 295 296 293
f 298 296 295
f 297 298 295
f 300 298 297
f 299 300 297
f 302 300 299
f 301 302 299
f 305 301 303
f 305 302 301
f 305 303 304
f 306 305 304
f 306 304 307
f 308 306 307
f 310 308 307
f 309 310 307
f 310 309 311
f 313 310 311
f 312 313 311
f 315 313 312
f 314 315 312
f 317 315 314
f 316 317 314
f 319 317 316
f 318 319 316
f 321 319 318
f 320 321 318
f 322 321 320
f 322 320 1093
f 322 1093 1094
f 323 322 1094
f 324 323 1094
f 326 323 324
f 325 326 324
f 328 326 325
f 327 328 325
f 330 328 327
f 329 330 327
f 332 330 329
f 332 329 331
f 334 332 331
f 334 331 333
f 336 334 333
f 335 336 333
f 338 336 335
f 337 338 335
f 340 338 337
f 339 340 337
f 1412 340 339
f 343 1412 339
f 343 339 341
f 343 341 342
f 344 343 342
f 1101 344 342
f 1415 344 1101
f 1415 1101 345
f 1416 1415 345
f 348 1416 345
f 348 345 346
f 347 348 346
f 1417 348 347
f 351 1417 347
f 349 351 347
f 350 351 349
f 1419 351 350
f 353 1419 350
f 352 353 350
f 355 353 352
f 354 355 352
f 1420 355 354
f 356 1420 354
f 356 354 1107
f 358 356 1107
f 358 1107 357
f 360 358 357
f 359 360 357
f 362 360 359
f 361 362 359
f 364 362 361
f 364 361 363
f 366 364 363
f 365 366 363
f 368 366 365
f 367 368 365
f 369 368 367
f 371 369 367
f 370 371 367
f 373 371 370
f 372 373 370
f 374 373 372
f 374 372 1110
f 375 374 1110
f 376 375 1110
f 377 375 376
f 378 377 376
f 379 378 376
f 380 378 379
f 382 380 379
f 381 382 379
f 383 382 381
f 383 381 384
f 385 383 384
f 387 385 384
f 387 384 386
f 388 387 386
f 389 388 386
f 391 389 386
f 390 391 386
f 392 391 390
f 393 392 390
f 394 393 390
f 395 393 394
f 396 395 394
f 397 396 394
f 1117 397 394
f 398 397 1117
f 399 398 1117
f 401 399 1117
f 400 401 1117
f 402 401 400
f 403 402 400
f 404 402 403
f 405 404 403
f 406 405 403
f 407 406 403
f 408 406 407
f 1122 408 407
f 409 408 1122
f 411 409 1122
f 410 411 1122
f 413 411 410
f 412 413 410
f 414 413 412
f 415 413 414
f 417 415 414
f 416 417 414
f 420 417 416
f 418 420 416
f 419 420 418
f 421 420 419
f 423 421 419
f 422 423 419
f 424 423 422
f 427 423 424
f 425 427 424
f 426 427 425
f 430 427 426
f 430 426 428
f 430 428 429
f 430 429 431
f 435 430 431
f 432 435 431
f 433 435 432
f 434 435 433
f 438 435 434
f 436 438 434
f 438 436 437
f 440 438 437
f 440 437 439
f 444 440 439
f 444 439 441
f 444 441 442
f 444 442 443
f 446 444 443
f 445 446 443
f 450 446 445
f 447 450 445
f 448 450 447
f 449 450 448
f 1146 450 449
f 1386 450 1146
f 451 1386 1146
f 454 1386 451
f 452 454 451
f 453 454 452
f 456 454 453
f 455 456 453
f 458 455 457
f 458 456 455
f 459 458 457
f 461 458 459
f 460 461 459
f 462 461 460
f 463 462 460
f 464 462 463
f 465 464 463
f 467 464 465
f 466 467 465
f 469 467 466
f 468 469 466
f 1387 469 468
f 470 1387 468
f 472 1387 470
f 471 472 470
f 474 472 471
f 473 474 471
f 475 474 473
f 476 474 475
f 478 476 475
f 478 475 477
f 480 478 477
f 480 477 479
f 482 480 479
f 481 482 479
f 484 482 481
f 483 484 481
f 1391 484 483
f 485 1391 483
f 487 1391 485
f 487 485 486
f 488 487 486
f 489 488 486
f 1170 489 486
f 1171 489 1170
f 1392 489 1171
f 1393 1392 1171
f 490 1393 1171
f 492 1393 490
f 492 490 491
f 493 492 491
f 495 493 491
f 495 491 494
f 496 495 494
f 497 495 496
f 498 497 496
f 1175 498 496
f 500 498 1175
f 499 500 1175
f 1395 500 499
f 501 1395 499
f 1396 1395 501
f 502 1396 501
f 503 1396 502
f 1177 503 502
f 504 503 1177
f 506 504 1177
f 505 506 1177
f 508 506 505
f 508 505 507
f 510 508 507
f 510 507 509
f 511 510 509
f 513 511 509
f 512 513 509
f 513 512 514
f 515 513 514
f 517 515 514
f 517 514 516
f 519 517 516
f 519 516 518
f 521 519 518
f 520 521 518
f 523 521 520
f 522 523 520
f 525 523 522
f 524 525 522
f 527 525 524
f 526 527 524
f 529 527 526
f 528 529 526
f 531 529 528
f 531 528 530
f 531 530 532
f 533 531 532
f 535 533 532
f 535 532 534
f 536 535 534
f 538 535 536
f 537 538 536
f 539 538 537
f 1187 539 537
f 541 539 1187
f 540 541 1187
f 543 541 540
f 543 540 542
f 545 542 544
f 545 543 542
f 547 545 544
f 547 544 546
f 547 546 548
f 550 547 548
f 550 548 549
f 1357 550 549
f 1357 549 1191
f 1358 1357 1191
f 1358 1191 551
f 1359 1358 551
f 1359 551 552
f 554 1359 552
f 554 552 553
f 555 554 553
f 555 553 556
f 1360 555 556
f 1361 1360 556
f 1361 556 557
f 1361 557 558
f 559 1361 558
f 1362 558 1196
f 1362 559 558
f 1362 1196 1197
f 560 1362 1197
f 561 1197 1198
f 561 560 1197
f 562 561 1198
f 562 1198 1200
f 565 562 1200
f 565 1200 563
f 565 563 564
f 566 565 564
f 1208 566 564
f 1365 566 1208
f 567 1365 1208
f 568 1365 567
f 570 568 567
f 570 567 569
f 572 570 569
f 572 569 571
f 574 572 571
f 574 571 573
f 576 573 575
f 576 574 573
f 578 575 577
f 578 576 575
f 580 578 577
f 580 577 579
f 1367 580 579
f 1367 579 581
f 583 1367 581
f 583 581 582
f 584 583 582
f 584 582 1217
f 586 584 1217
f 586 1217 585
f 588 586 585
f 588 585 587
f 590 588 587
f 590 587 589
f 590 589 1219
f 591 590 1219
f 591 1219 1220
f 592 591 1220
f 592 1220 1221
f 593 592 1221
f 593 1221 1222
f 594 593 1222
f 595 594 1222
f 596 594 595
f 1225 596 595
f 597 596 1225
f 598 597 1225
f 599 597 598
f 1227 599 598
f 600 599 1227
f 600 1227 1229
f 1370 600 1229
f 603 1229 601
f 603 1370 1229
f 603 601 602
f 604 603 602
f 1373 604 602
f 605 1373 602
f 606 1373 605
f 1374 1373 606
f 1375 1374 606
f 1232 1375 606
f 607 1375 1232
f 609 1375 607
f 608 609 607
f 611 609 608
f 611 608 610
f 611 610 612
f 1376 611 612
f 1377 1376 612
f 1377 612 1237
f 1378 1377 1237
f 1239 1378 1237
f 615 1378 1239
f 613 615 1239
f 614 615 613
f 617 615 614
f 616 617 614
f 617 616 1242
f 618 617 1242
f 618 1242 1244
f 1379 618 1244
f 1380 1379 1244
f 1380 1244 619
f 620 1380 619
f 621 1380 620
f 623 621 620
f 622 623 620
f 625 623 622
f 624 625 622
f 627 625 624
f 626 627 624
f 629 627 626
f 629 626 628
f 631 629 628
f 630 631 628
f 633 631 630
f 632 633 630
f 635 633 632
f 634 635 632
f 637 635 634
f 636 637 634
f 1337 637 636
f 1337 636 638
f 640 1337 638
f 640 638 639
f 1338 640 639
f 1338 639 1254
f 642 1338 1254
f 642 1254 641
f 644 642 641
f 644 641 643
f 645 644 643
f 645 643 1256
f 647 645 1256
f 647 1256 646
f 648 647 646
f 648 646 1258
f 649 648 1258
f 649 1258 1259
f 651 649 1259
f 651 1259 650
f 1340 651 650
f 1340 650 652
f 653 1340 652
f 653 652 1263
f 1341 653 1263
f 1341 1263 1264
f 1342 1341 1264
f 1342 1264 1266
f 655 1266 654
f 655 1342 1266
f 657 654 656
f 657 655 654
f 658 657 656
f 660 658 656
f 660 656 659
f 1343 660 659
f 661 1343 659
f 1281 1343 661
f 1344 1343 1281
f 662 1344 1281
f 663 1344 662
f 663 662 1283
f 664 663 1283
f 1284 664 1283
f 665 664 1284
f 1345 665 1284
f 666 1345 1284
f 668 1345 666
f 667 668 666
f 669 668 667
f 670 668 669
f 672 670 669
f 672 669 671
f 1346 672 671
f 1346 671 1288
f 1346 1288 673
f 674 1346 673
f 674 673 675
f 1349 674 675
f 1349 675 676
f 1350 1349 676
f 1350 676 1291
f 677 1350 1291
f 678 1350 677
f 679 678 677
f 680 678 679
f 1352 680 679
f 681 1352 679
f 1294 1352 681
f 1353 1352 1294
f 1296 1353 1294
f 1355 1353 1296
f 682 1355 1296
f 1315 1355 682
f 1298 1315 682
f 1319 1315 1298
f 683 1319 1298
f 684 1319 683
f 828 684 683
f 685 24 20
f 685 20 688
f 686 24 685
f 686 26 24
f 20 16 688
f 687 26 686
f 688 16 691
f 687 29 26
f 16 13 691
f 689 29 687
f 690 29 689
f 691 13 693
f 690 33 29
f 13 10 693
f 692 33 690
f 693 10 695
f 10 8 695
f 692 36 33
f 692 694 36
f 8 697 695
f 6 697 8
f 36 694 40
f 694 696 40
f 6 699 697
f 40 696 44
f 5 699 6
f 696 698 44
f 2 699 5
f 2 701 699
f 698 700 44
f 44 700 1
f 2 702 701
f 1 702 2
f 700 702 1
f 727 689 687
f 703 727 687
f 732 703 687
f 732 687 686
f 704 732 686
f 704 686 685
f 705 704 685
f 742 705 685
f 742 685 688
f 706 742 688
f 707 688 691
f 707 706 688
f 708 707 691
f 709 708 691
f 752 691 693
f 752 709 691
f 757 752 693
f 757 693 695
f 759 757 695
f 710 759 695
f 711 710 695
f 711 695 697
f 712 711 697
f 713 712 697
f 713 697 699
f 772 713 699
f 714 772 699
f 714 699 701
f 715 714 701
f 716 701 702
f 716 715 701
f 717 716 702
f 717 702 700
f 718 717 700
f 718 700 698
f 719 718 698
f 720 719 698
f 720 698 696
f 721 720 696
f 795 721 696
f 795 696 694
f 722 795 694
f 723 722 694
f 803 694 692
f 803 723 694
f 806 803 692
f 724 806 692
f 724 692 690
f 812 724 690
f 812 690 689
f 725 812 689
f 725 725 689
f 727 725 689
f 726 812 725
f 726 725 725
f 726 725 727
f 729 727 703
f 729 728 727
f 730 728 729
f 732 729 703
f 731 729 732
f 733 730 729
f 734 730 733
f 733 729 731
f 735 732 704
f 735 731 732
f 738 733 731
f 737 734 733
f 738 731 735
f 737 733 738
f 705 735 704
f 736 735 705
f 738 735 736
f 740 736 705
f 739 737 738
f 739 738 736
f 740 705 742
f 741 739 736
f 741 736 740
f 747 737 739
f 743 740 742
f 743 741 740
f 747 739 744
f 743 742 706
f 744 739 741
f 745 744 741
f 745 741 743
f 707 743 706
f 746 743 707
f 747 744 745
f 745 743 746
f 749 747 745
f 746 707 708
f 748 746 708
f 748 708 709
f 749 745 746
f 750 748 709
f 754 749 746
f 751 746 748
f 752 750 709
f 754 746 751
f 751 748 750
f 753 751 750
f 756 749 754
f 755 750 752
f 754 751 753
f 753 750 755
f 757 755 752
f 758 753 755
f 756 754 760
f 760 754 753
f 760 753 758
f 758 755 757
f 759 758 757
f 761 758 759
f 761 760 758
f 762 760 761
f 763 756 760
f 763 760 762
f 764 759 710
f 764 761 759
f 765 761 764
f 765 762 761
f 764 710 711
f 767 765 764
f 766 762 765
f 767 764 711
f 766 763 762
f 768 767 711
f 769 765 767
f 769 766 765
f 768 711 712
f 768 769 767
f 768 712 713
f 766 775 763
f 775 766 769
f 770 768 713
f 771 768 770
f 772 770 713
f 771 769 768
f 775 769 771
f 773 771 770
f 774 770 772
f 774 773 770
f 714 774 772
f 775 771 773
f 777 774 714
f 776 775 773
f 777 773 774
f 778 775 776
f 779 777 714
f 779 714 715
f 776 773 777
f 780 776 777
f 778 776 780
f 780 777 779
f 779 715 716
f 781 780 779
f 781 779 716
f 783 778 780
f 782 780 781
f 717 781 716
f 783 780 782
f 784 781 717
f 782 781 784
f 718 784 717
f 788 778 783
f 785 782 784
f 785 783 782
f 786 784 718
f 785 784 786
f 788 783 785
f 787 786 718
f 719 787 718
f 789 785 786
f 789 788 785
f 789 786 787
f 790 787 719
f 791 788 789
f 790 719 720
f 790 789 787
f 791 789 790
f 796 788 791
f 792 790 720
f 792 720 721
f 792 791 790
f 794 792 721
f 793 791 792
f 795 794 721
f 796 791 793
f 793 792 794
f 797 793 794
f 799 796 793
f 798 794 795
f 797 794 798
f 798 795 722
f 797 799 793
f 723 798 722
f 800 797 798
f 801 798 723
f 802 799 797
f 801 800 798
f 802 797 804
f 804 797 800
f 806 723 803
f 804 800 801
f 806 801 723
f 805 802 804
f 808 804 801
f 808 801 806
f 808 805 804
f 807 806 724
f 807 808 806
f 809 805 808
f 810 808 807
f 811 807 724
f 810 807 811
f 810 809 808
f 811 724 812
f 815 805 809
f 813 811 812
f 815 809 810
f 813 810 811
f 814 810 813
f 815 810 814
f 812 726 727
f 813 812 727
f 813 727 728
f 814 813 728
f 814 728 730
f 815 814 730
f 815 730 734
f 816 734 737
f 816 737 747
f 817 747 749
f 817 749 756
f 817 816 747
f 763 817 756
f 818 734 816
f 818 805 815
f 818 815 734
f 802 805 818
f 819 817 763
f 775 819 763
f 820 799 802
f 820 802 818
f 796 799 820
f 775 821 819
f 778 821 775
f 788 796 820
f 788 820 821
f 788 821 778
f 816 817 822
f 822 817 823
f 818 816 824
f 824 816 822
f 820 818 825
f 825 818 824
f 821 820 826
f 826 820 825
f 819 821 827
f 827 821 826
f 817 819 823
f 823 819 827
f 822 823 827
f 824 827 826
f 824 826 825
f 824 822 827
f 21 830 15
f 25 832 831
f 17 836 12
f 23 869 19
f 19 869 837
f 868 869 23
f 34 839 31
f 37 870 34
f 45 840 42
f 876 841 52
f 878 879 844
f 63 879 61
f 67 880 65
f 83 886 82
f 87 854 853
f 888 855 89
f 96 856 94
f 98 892 858
f 891 892 100
f 105 896 103
f 21 859 830
f 831 859 21
f 21 25 831
f 25 28 832
f 832 32 833
f 28 32 832
f 32 860 833
f 833 860 861
f 860 39 861
f 861 39 862
f 39 43 862
f 862 43 863
f 864 863 43
f 834 863 864
f 834 864 3
f 3 835 834
f 3 4 835
f 835 4 865
f 4 7 865
f 865 7 866
f 9 866 7
f 867 866 9
f 9 11 867
f 867 12 836
f 11 12 867
f 836 19 837
f 17 19 836
f 838 868 31
f 869 868 838
f 838 31 839
f 839 34 870
f 42 870 37
f 871 870 42
f 840 871 42
f 840 45 47
f 47 872 840
f 873 872 47
f 874 872 873
f 874 873 50
f 50 51 874
f 874 51 875
f 51 52 875
f 875 52 841
f 841 876 54
f 54 842 841
f 55 842 54
f 842 56 877
f 55 56 842
f 56 58 877
f 877 58 843
f 58 59 843
f 843 59 844
f 59 878 844
f 878 61 879
f 63 845 879
f 65 880 63
f 63 880 845
f 68 846 67
f 67 846 880
f 68 847 846
f 68 70 847
f 847 70 848
f 70 881 848
f 848 881 883
f 883 881 882
f 884 882 73
f 883 882 884
f 884 73 885
f 849 885 77
f 884 885 849
f 849 77 850
f 77 78 850
f 850 78 851
f 80 852 78
f 78 852 851
f 82 886 80
f 80 886 852
f 853 83 887
f 886 83 853
f 853 887 87
f 89 854 87
f 89 855 854
f 890 888 889
f 888 890 855
f 856 889 92
f 890 889 856
f 92 94 856
f 96 857 856
f 96 98 857
f 857 98 858
f 98 100 892
f 894 891 893
f 892 891 894
f 894 893 895
f 895 893 103
f 895 103 896
f 830 14 15
f 116 918 115
f 122 920 121
f 124 920 122
f 124 898 920
f 921 898 124
f 130 926 127
f 139 934 137
f 145 901 143
f 154 941 904
f 157 941 154
f 160 943 158
f 162 905 160
f 165 907 906
f 168 908 166
f 173 950 909
f 175 950 173
f 177 951 175
f 184 954 182
f 185 955 184
f 187 976 185
f 896 106 911
f 105 106 896
f 106 107 911
f 911 107 912
f 108 912 107
f 913 912 108
f 913 108 914
f 914 108 110
f 110 111 914
f 111 112 914
f 914 112 915
f 114 915 112
f 916 915 114
f 115 916 114
f 917 916 115
f 918 917 115
f 897 918 116
f 116 118 897
f 897 119 919
f 118 119 897
f 119 121 919
f 919 121 920
f 923 921 922
f 898 921 923
f 923 922 925
f 925 922 924
f 925 924 127
f 925 127 926
f 899 926 130
f 130 131 899
f 899 131 927
f 927 132 929
f 131 132 927
f 132 928 929
f 931 928 930
f 929 928 931
f 931 930 932
f 932 930 134
f 932 134 933
f 134 136 933
f 136 137 933
f 933 137 934
f 935 934 139
f 900 934 935
f 900 935 143
f 143 901 900
f 936 902 145
f 145 902 901
f 937 936 148
f 902 936 937
f 148 150 937
f 937 150 939
f 150 938 939
f 939 938 903
f 903 938 940
f 904 940 153
f 903 940 904
f 154 904 153
f 157 942 941
f 158 942 157
f 943 942 158
f 905 943 160
f 944 905 162
f 945 944 164
f 905 944 945
f 906 945 164
f 164 165 906
f 907 946 166
f 946 907 165
f 166 908 907
f 168 947 908
f 948 947 168
f 949 948 169
f 169 948 168
f 909 948 949
f 909 949 173
f 950 175 951
f 178 951 177
f 180 952 178
f 178 952 951
f 182 952 180
f 953 952 182
f 954 953 182
f 955 954 184
f 976 955 185
f 976 187 958
f 958 956 957
f 187 956 958
f 960 957 959
f 958 957 960
f 960 959 910
f 910 959 192
f 896 126 125
f 913 128 962
f 916 133 964
f 897 138 135
f 919 140 138
f 898 142 920
f 923 147 146
f 929 156 155
f 931 159 156
f 937 170 167
f 939 171 170
f 941 176 904
f 942 181 179
f 943 183 181
f 907 189 906
f 908 193 191
f 950 198 909
f 951 200 199
f 910 216 979
f 896 911 126
f 912 961 911
f 911 961 126
f 913 962 912
f 912 962 961
f 128 913 914
f 128 914 129
f 914 963 129
f 915 963 914
f 915 964 963
f 916 964 915
f 133 916 917
f 965 917 918
f 133 917 965
f 135 965 897
f 897 965 918
f 897 919 138
f 141 140 920
f 920 140 919
f 142 141 920
f 898 144 142
f 898 923 144
f 144 923 146
f 925 147 923
f 149 147 925
f 151 149 925
f 152 151 926
f 926 151 925
f 926 966 152
f 899 966 926
f 927 967 899
f 899 967 966
f 155 927 929
f 967 927 155
f 931 156 929
f 161 931 932
f 159 931 161
f 933 161 932
f 163 161 933
f 934 968 933
f 933 968 163
f 900 969 934
f 934 969 968
f 900 970 969
f 901 971 900
f 900 971 970
f 902 972 901
f 901 972 971
f 167 972 902
f 937 167 902
f 939 170 937
f 903 171 939
f 172 171 903
f 904 172 903
f 174 172 904
f 176 174 904
f 941 973 176
f 973 942 179
f 941 942 973
f 943 181 942
f 183 943 905
f 905 974 183
f 945 186 905
f 905 186 974
f 945 188 186
f 906 188 945
f 906 189 188
f 189 907 190
f 907 908 190
f 190 908 191
f 195 947 948
f 193 947 195
f 908 947 193
f 909 195 948
f 196 195 909
f 198 196 909
f 199 198 950
f 951 199 950
f 201 200 951
f 202 201 952
f 952 201 951
f 953 202 952
f 206 975 954
f 953 975 202
f 954 975 953
f 955 206 954
f 207 206 955
f 209 207 976
f 976 207 955
f 211 976 958
f 209 976 211
f 958 977 211
f 960 978 958
f 958 978 977
f 910 979 960
f 960 979 978
f 832 22 831
f 867 982 53
f 836 57 984
f 869 57 837
f 840 987 66
f 840 69 987
f 879 85 844
f 854 109 853
f 857 117 998
f 892 117 858
f 18 859 831
f 830 859 14
f 14 859 18
f 831 22 18
f 22 832 27
f 832 833 27
f 27 833 30
f 30 861 35
f 833 861 30
f 38 861 862
f 35 861 38
f 41 862 863
f 38 862 41
f 834 980 863
f 863 980 41
f 834 46 980
f 835 48 834
f 834 48 46
f 48 865 49
f 835 865 48
f 866 981 865
f 865 981 49
f 866 53 981
f 867 53 866
f 836 983 867
f 867 983 982
f 836 984 983
f 836 837 57
f 869 985 57
f 60 986 838
f 838 986 869
f 869 986 985
f 62 60 839
f 839 60 838
f 870 62 839
f 64 62 870
f 66 64 871
f 871 64 870
f 66 871 840
f 71 872 874
f 840 872 69
f 69 872 71
f 72 71 874
f 875 72 874
f 74 72 875
f 75 875 841
f 74 875 75
f 76 75 841
f 842 988 841
f 841 988 76
f 842 877 988
f 988 877 79
f 843 989 877
f 877 989 79
f 81 989 843
f 844 81 843
f 84 81 844
f 85 84 844
f 85 879 86
f 879 845 86
f 86 845 88
f 845 880 88
f 88 880 90
f 846 90 880
f 91 90 846
f 93 91 847
f 847 91 846
f 847 848 93
f 93 848 95
f 95 883 97
f 848 883 95
f 99 883 884
f 97 883 99
f 884 990 99
f 884 849 990
f 990 849 101
f 849 850 101
f 101 850 102
f 850 851 102
f 102 851 104
f 851 991 104
f 852 991 851
f 886 992 852
f 852 992 991
f 853 993 886
f 886 993 992
f 853 109 993
f 854 994 109
f 855 995 854
f 854 995 994
f 855 890 995
f 995 890 113
f 856 996 890
f 890 996 113
f 856 997 996
f 857 998 856
f 856 998 997
f 857 858 117
f 892 999 117
f 892 894 999
f 999 894 120
f 895 1000 894
f 894 1000 120
f 123 1000 895
f 125 123 896
f 896 123 895
f 1002 1012 1001
f 1002 218 1013
f 1018 1019 222
f 1022 233 230
f 1023 234 233
f 1024 1025 234
f 1029 243 1030
f 1031 244 243
f 1035 1036 251
f 1452 257 255
f 1006 1038 1039
f 1006 264 263
f 1040 266 264
f 1041 268 266
f 1007 270 1042
f 1044 276 275
f 1045 277 276
f 1009 1054 1053
f 1009 288 1054
f 1055 292 289
f 1056 293 292
f 1059 301 299
f 1060 303 301
f 1063 309 307
f 1010 309 1063
f 1011 311 1010
f 217 910 1001
f 216 910 217
f 1001 1012 217
f 1002 1013 1012
f 1002 1014 218
f 1016 1015 1014
f 220 1015 1016
f 1014 1015 218
f 222 220 1017
f 1017 220 1016
f 1018 222 1017
f 1020 1019 1018
f 225 1019 1020
f 227 225 1020
f 1020 1444 227
f 227 1444 228
f 228 1444 1021
f 230 228 1021
f 1021 1022 230
f 1022 1023 233
f 1024 234 1023
f 236 1025 1024
f 1024 1026 236
f 236 1026 239
f 1027 1028 1026
f 1026 1028 239
f 1029 1030 1027
f 1027 1030 1028
f 1031 243 1029
f 244 1031 1003
f 1033 1032 1003
f 1003 1032 244
f 248 1033 1004
f 1032 1033 248
f 250 248 1034
f 1034 248 1004
f 1034 1035 250
f 250 1035 251
f 1005 1036 1035
f 1005 1451 1036
f 1036 1451 253
f 253 1451 255
f 1451 1452 255
f 1452 1037 257
f 1037 1454 257
f 257 1454 260
f 1039 1038 1454
f 1454 1038 260
f 1038 1006 263
f 1040 264 1006
f 1041 266 1040
f 1041 1042 268
f 268 1042 270
f 270 1007 272
f 1007 1008 272
f 272 1008 274
f 1008 1043 274
f 274 1043 275
f 1043 1044 275
f 1044 1045 276
f 1045 1046 277
f 277 1046 278
f 1047 278 1046
f 280 278 1047
f 1048 280 1047
f 282 280 1048
f 283 282 1049
f 1049 282 1048
f 1050 283 1049
f 285 283 1050
f 1052 1051 1050
f 1050 1051 285
f 286 1052 1053
f 1051 1052 286
f 1053 1054 286
f 289 288 1009
f 1009 1055 289
f 292 1055 1056
f 1056 1057 293
f 293 1057 295
f 1057 1058 295
f 295 1058 297
f 297 1059 299
f 1058 1059 297
f 1059 1060 301
f 1060 1061 303
f 303 1061 304
f 1061 1062 304
f 304 1062 307
f 1062 1063 307
f 309 1010 311
f 1011 312 311
f 1097 331 329
f 1097 333 331
f 1098 335 333
f 1106 357 1107
f 1411 361 359
f 1116 394 390
f 1119 410 1122
f 1069 416 1070
f 1072 424 1073
f 1073 424 422
f 1072 425 424
f 1074 429 1075
f 1075 429 428
f 1076 432 1077
f 1076 433 432
f 1078 436 434
f 1079 436 1078
f 1137 439 437
f 1080 441 1081
f 1080 442 441
f 1082 442 1080
f 1140 445 443
f 1083 445 1140
f 1084 447 1142
f 1084 448 447
f 1085 448 1084
f 1086 448 1085
f 1087 448 1086
f 1088 449 1087
f 1087 449 448
f 1090 452 1089
f 1089 452 451
f 1091 452 1090
f 1091 453 452
f 312 1011 314
f 314 1011 1064
f 316 314 1064
f 1064 1401 316
f 316 1401 318
f 318 1401 1065
f 318 1065 320
f 320 1065 1092
f 1066 1093 1092
f 1092 1093 320
f 1066 1094 1093
f 1066 1403 1094
f 1094 1403 324
f 1403 1095 324
f 324 1095 325
f 327 1405 1096
f 1095 1405 325
f 325 1405 327
f 329 1096 1097
f 327 1096 329
f 1097 1098 333
f 1098 1406 335
f 335 1406 337
f 339 337 1099
f 1099 337 1406
f 1099 1100 339
f 339 1100 341
f 342 1100 1067
f 341 1100 342
f 1067 1101 342
f 1067 1102 1101
f 1101 1102 345
f 346 1102 1103
f 345 1102 346
f 347 346 1103
f 1407 347 1103
f 349 347 1407
f 1407 1408 349
f 349 1408 350
f 352 1409 1104
f 1408 1409 350
f 350 1409 352
f 354 1104 1105
f 352 1104 354
f 1106 354 1105
f 1106 1107 354
f 357 1410 359
f 1106 1410 357
f 1410 1411 359
f 1411 1108 361
f 361 1108 363
f 365 1108 1109
f 363 1108 365
f 1109 367 365
f 1109 1413 367
f 367 1413 370
f 1413 1414 370
f 370 1414 372
f 1111 1110 1414
f 1414 1110 372
f 1110 1111 376
f 1111 1112 376
f 376 1112 379
f 1112 1113 379
f 379 1113 381
f 1113 1418 381
f 381 1418 384
f 384 1418 1114
f 386 1114 1115
f 384 1114 386
f 390 1115 1116
f 386 1115 390
f 1116 1117 394
f 1068 1117 1116
f 1117 1068 400
f 1068 1118 400
f 403 400 1118
f 1119 1120 1118
f 1118 1120 403
f 407 1120 1119
f 403 1120 407
f 1122 1121 1119
f 1119 1121 407
f 1121 1122 407
f 1119 1124 410
f 1123 1124 1119
f 412 1124 1123
f 410 1124 412
f 1123 1125 412
f 414 1125 1123
f 412 1125 414
f 1070 1126 1123
f 1123 1126 414
f 416 1126 1070
f 414 1126 416
f 1069 1127 416
f 418 1127 1069
f 416 1127 418
f 419 1128 1071
f 1071 1128 1069
f 1069 1128 418
f 418 1128 419
f 1071 1129 419
f 1073 1129 1071
f 419 1129 422
f 422 1129 1073
f 1130 1131 1072
f 1072 1131 425
f 426 1131 1130
f 425 1131 426
f 1075 1132 1130
f 1130 1132 426
f 428 1132 1075
f 426 1132 428
f 432 1134 1077
f 1133 1134 1074
f 1077 1134 1133
f 1074 1134 429
f 429 1134 431
f 431 1134 432
f 1076 1136 433
f 1135 1136 1076
f 1078 1136 1135
f 433 1136 434
f 434 1136 1078
f 1137 1138 1079
f 1079 1138 436
f 437 1138 1137
f 436 1138 437
f 1081 1139 1137
f 1137 1139 439
f 441 1139 1081
f 439 1139 441
f 1140 1141 1082
f 443 1141 1140
f 1082 1141 442
f 442 1141 443
f 447 1143 1142
f 1142 1143 1083
f 1083 1143 445
f 445 1143 447
f 1145 1144 1088
f 1089 1144 1145
f 1089 1146 1144
f 1088 1146 449
f 1144 1146 1088
f 451 1146 1089
f 1091 455 453
f 1158 463 460
f 1382 465 463
f 1163 479 477
f 1166 485 483
f 1172 490 1171
f 1173 491 490
f 1174 496 494
f 1150 514 1180
f 1151 516 1150
f 1152 534 532
f 1153 536 1152
f 1190 551 1191
f 1155 563 1199
f 1156 455 1091
f 457 455 1156
f 1157 459 1156
f 1156 459 457
f 1157 1158 459
f 459 1158 460
f 1158 1382 463
f 465 1383 466
f 1382 1383 465
f 1383 1384 466
f 466 1384 468
f 1384 1159 468
f 468 1159 470
f 1159 1385 470
f 470 1385 471
f 1385 1160 471
f 471 1160 473
f 1160 1161 473
f 473 1161 475
f 1161 1162 475
f 475 1162 477
f 1162 1163 477
f 1163 1164 479
f 479 1164 481
f 483 481 1165
f 1165 481 1164
f 1166 483 1165
f 1167 485 1166
f 486 485 1167
f 1168 486 1167
f 1169 1170 1168
f 1168 1170 486
f 1172 1171 1169
f 1169 1171 1170
f 1172 1173 490
f 491 1173 1147
f 494 1147 1174
f 491 1147 494
f 496 1174 1148
f 1148 1175 496
f 1148 1388 1175
f 1175 1388 499
f 1388 1176 499
f 499 1176 501
f 1176 1149 501
f 501 1149 502
f 1149 1177 502
f 1389 1177 1149
f 1389 1178 1177
f 1177 1178 505
f 1178 1179 505
f 505 1179 507
f 1179 1390 507
f 507 1390 509
f 512 509 1180
f 1180 509 1390
f 512 1180 514
f 516 514 1150
f 518 516 1151
f 1151 1181 518
f 518 1181 520
f 1181 1394 520
f 520 1394 522
f 1394 1182 522
f 522 1182 524
f 1183 524 1182
f 526 524 1183
f 528 526 1184
f 1184 526 1183
f 1185 528 1184
f 530 528 1185
f 1152 532 1185
f 1185 532 530
f 536 534 1152
f 537 536 1153
f 1186 1187 1153
f 1153 1187 537
f 1186 540 1187
f 1188 540 1186
f 542 540 1188
f 544 542 1188
f 544 1397 546
f 1188 1397 544
f 1397 1398 546
f 546 1398 548
f 1398 1189 548
f 548 1189 549
f 1190 1191 1189
f 1189 1191 549
f 551 1190 552
f 1190 1192 552
f 552 1192 553
f 1193 553 1192
f 556 553 1193
f 1193 1194 556
f 556 1194 557
f 1194 1195 557
f 557 1195 558
f 1154 1196 1195
f 1195 1196 558
f 1154 1197 1196
f 1199 1198 1154
f 1154 1198 1197
f 1199 1200 1198
f 563 1200 1199
f 564 563 1155
f 1201 1208 1207
f 1364 1220 1203
f 1204 1221 1364
f 1204 595 1222
f 1224 598 1225
f 1226 1227 598
f 1228 1229 1227
f 1228 601 1229
f 1231 1232 606
f 1249 636 634
f 1268 659 656
f 1207 1208 1155
f 1155 1208 564
f 1208 1201 567
f 1201 1356 567
f 569 1356 1209
f 567 1356 569
f 571 1209 1210
f 569 1209 571
f 573 1210 1211
f 571 1210 573
f 575 1211 1212
f 573 1211 575
f 575 1212 577
f 1212 1213 577
f 577 1213 579
f 1214 581 1213
f 1213 581 579
f 582 581 1214
f 1214 1215 582
f 582 1215 1217
f 1216 1217 1215
f 585 1217 1216
f 1216 1218 585
f 585 1218 587
f 1218 1363 587
f 589 1363 1202
f 587 1363 589
f 1219 1202 1203
f 1202 1219 589
f 1203 1220 1219
f 1364 1221 1220
f 1204 1222 1221
f 1223 595 1204
f 1224 1225 1223
f 1223 1225 595
f 1226 598 1224
f 1228 1227 1226
f 1228 1230 601
f 601 1230 602
f 1230 1366 602
f 602 1366 605
f 1366 1368 605
f 605 1368 606
f 1368 1231 606
f 1233 1232 1231
f 607 1232 1233
f 1233 1234 607
f 607 1234 608
f 608 1235 610
f 1234 1235 608
f 1235 1369 610
f 610 1369 612
f 1236 1237 1369
f 1369 1237 612
f 613 1239 1238
f 1238 1239 1236
f 1236 1239 1237
f 1240 613 1238
f 614 613 1240
f 1240 1241 614
f 614 1241 616
f 1243 1242 1241
f 1241 1242 616
f 1243 1244 1242
f 1243 1245 1244
f 1244 1245 619
f 619 1245 620
f 1245 1246 620
f 620 1246 622
f 1371 622 1246
f 624 622 1371
f 626 624 1372
f 1372 624 1371
f 628 626 1247
f 1247 626 1372
f 630 1247 1205
f 628 1247 630
f 632 1205 1248
f 630 1205 632
f 1249 632 1248
f 634 632 1249
f 1249 1250 636
f 636 1250 638
f 1250 1251 638
f 638 1251 639
f 1252 639 1251
f 1254 639 1252
f 641 1254 1253
f 1253 1254 1252
f 643 1253 1206
f 641 1253 643
f 1206 1256 643
f 1255 1256 1206
f 646 1255 1257
f 1256 1255 646
f 1257 1258 646
f 1257 1259 1258
f 1260 1259 1257
f 650 1260 1261
f 1259 1260 650
f 652 1261 1262
f 650 1261 652
f 1262 1263 652
f 1265 1264 1262
f 1262 1264 1263
f 1381 1266 1265
f 654 1266 1381
f 1265 1266 1264
f 1267 654 1381
f 656 654 1267
f 1268 656 1267
f 1348 1310 1269
f 1351 1272 1271
f 1274 1322 1351
f 1351 1322 1273
f 1275 1276 1274
f 1274 1276 1322
f 1275 1278 1276
f 1354 1278 1275
f 1277 1278 1354
f 1268 1279 659
f 659 1279 661
f 1280 1281 1279
f 1279 1281 661
f 1280 662 1281
f 1282 1283 1280
f 1280 1283 662
f 1285 1284 1282
f 1282 1284 1283
f 1285 666 1284
f 1285 1339 666
f 666 1339 667
f 1286 669 1339
f 1339 669 667
f 669 1286 671
f 1287 1288 1286
f 1286 1288 671
f 1287 673 1288
f 1289 673 1287
f 1289 675 673
f 675 1289 676
f 1290 676 1289
f 1290 1291 676
f 1290 677 1291
f 1292 677 1290
f 1292 679 677
f 1293 679 1292
f 1293 681 679
f 1295 1294 1293
f 1293 1294 681
f 1297 1296 1295
f 1295 1296 1294
f 1296 1297 682
f 1299 1298 1297
f 1297 1298 682
f 1298 1299 683
f 1300 683 1299
f 1300 828 683
f 1300 1301 828
f 1300 1302 1301
f 1302 1303 1301
f 1301 1303 829
f 829 1303 829
f 829 1303 1333
f 1302 1333 1303
f 1304 1333 1302
f 1333 1304 1332
f 1305 1306 1304
f 1304 1306 1332
f 1305 1330 1306
f 1307 1330 1305
f 1307 1328 1330
f 1347 1328 1307
f 1347 1348 1328
f 1308 1348 1269
f 1309 1348 1308
f 1328 1348 1309
f 1270 1310 1348
f 1311 1310 1270
f 1351 1311 1270
f 1271 1311 1351
f 1351 1312 1272
f 1273 1312 1351
f 1312 1312 1273
f 1272 1312 1312
f 1277 1317 1313
f 1277 1313 1314
f 1278 1277 1314
f 1278 1314 1316
f 1313 684 828
f 1317 684 1313
f 1317 1319 684
f 1319 1318 1320
f 1319 1320 1321
f 1319 1317 1318
f 1315 1319 1321
f 1276 1278 1316
f 1276 1316 1323
f 1322 1276 1323
f 1322 1323 1324
f 1324 1273 1322
f 1324 1312 1273
f 1324 1272 1312
f 1324 1271 1272
f 1311 1271 1324
f 1311 1324 1325
f 1325 1310 1311
f 1310 1325 1326
f 1326 1269 1310
f 1327 1309 1326
f 1308 1326 1309
f 1308 1308 1269
f 1308 1309 1308
f 1308 1269 1326
f 1328 1309 1327
f 1330 1328 1327
f 1330 1327 1329
f 1306 1330 1329
f 1306 1329 1331
f 1332 1306 1331
f 1333 1331 1334
f 1333 1332 1331
f 1333 1334 1335
f 1336 1333 1335
f 1336 1301 829
f 1336 829 829
f 1336 829 1333
f 1301 1336 1335
f 1335 1313 828
f 1335 828 1301
f 1314 1335 1334
f 1314 1313 1335
f 1316 1334 1331
f 1316 1331 1329
f 1316 1314 1334
f 1325 1327 1326
f 1323 1316 1329
f 1324 1329 1327
f 1324 1323 1329
f 1324 1327 1325
f 1321 1277 1315
f 1317 1277 1318
f 1337 1268 637
f 1268 1337 1279
f 1279 640 1280
f 1337 640 1279
f 640 1338 1280
f 1280 642 1282
f 1338 642 1280
f 642 644 1282
f 1282 644 1285
f 644 645 1285
f 645 1339 1285
f 647 1339 645
f 647 648 1339
f 1339 649 1286
f 648 649 1339
f 649 651 1286
f 1286 651 1287
f 651 1340 1287
f 1287 1340 1289
f 1340 653 1289
f 653 1341 1289
f 1289 1341 1290
f 1341 1342 1290
f 1290 1342 1292
f 1342 655 1292
f 655 657 1292
f 1292 657 1293
f 657 658 1293
f 660 1293 658
f 1293 660 1295
f 660 1343 1295
f 1295 1343 1297
f 1343 1344 1297
f 1297 663 1299
f 1344 663 1297
f 663 664 1299
f 1299 664 1300
f 664 665 1300
f 665 1345 1300
f 1300 1345 1302
f 1345 668 1302
f 1302 668 1304
f 668 670 1304
f 1304 672 1305
f 670 672 1304
f 1346 1305 672
f 1305 1346 1307
f 1346 674 1307
f 1307 674 1347
f 1349 1347 674
f 1349 1348 1347
f 1348 1349 1270
f 1349 1350 1270
f 1350 1351 1270
f 678 1351 1350
f 678 680 1351
f 1351 1352 1274
f 680 1352 1351
f 1274 1352 1275
f 1352 1353 1275
f 1353 1354 1275
f 1355 1354 1353
f 1354 1355 1277
f 1315 1277 1355
f 1318 1320 1320
f 1320 1320 1321
f 1321 1320 1277
f 1277 1320 1318
f 545 1207 543
f 545 1201 1207
f 547 1201 545
f 565 1203 562
f 565 1364 1203
f 566 1204 1364
f 580 1230 578
f 604 1371 603
f 611 1249 609
f 1377 1250 1376
f 617 1253 615
f 633 1265 631
f 1155 543 1207
f 541 543 1155
f 1209 1356 547
f 547 1356 1201
f 547 550 1209
f 1209 550 1210
f 1210 1357 1211
f 550 1357 1210
f 1211 1357 1358
f 1212 1211 1359
f 1359 1211 1358
f 1212 1359 554
f 1212 555 1213
f 554 555 1212
f 1214 1360 1361
f 555 1360 1213
f 1213 1360 1214
f 1215 1361 559
f 1214 1361 1215
f 1362 1216 559
f 559 1216 1215
f 1218 1362 560
f 1216 1362 1218
f 561 1363 560
f 560 1363 1218
f 1202 1363 561
f 561 562 1202
f 1202 562 1203
f 566 1364 565
f 1365 1204 566
f 1204 1365 1223
f 1223 1365 568
f 1223 570 1224
f 568 570 1223
f 570 572 1224
f 1224 572 1226
f 572 574 1226
f 1226 574 1228
f 574 576 1228
f 576 578 1228
f 1228 578 1230
f 1367 1366 580
f 580 1366 1230
f 583 1368 1367
f 1367 1368 1366
f 583 584 1368
f 1368 584 1231
f 584 586 1231
f 1231 586 1233
f 586 588 1233
f 1233 588 1234
f 588 590 1234
f 1234 590 1235
f 591 1369 590
f 590 1369 1235
f 1369 592 1236
f 591 592 1369
f 1236 593 1238
f 592 593 1236
f 593 594 1238
f 1238 594 1240
f 594 596 1240
f 1240 596 1241
f 1241 597 1243
f 596 597 1241
f 597 599 1243
f 599 600 1243
f 1243 600 1245
f 600 1370 1245
f 1245 1370 1246
f 1246 1370 603
f 603 1371 1246
f 1373 1372 604
f 604 1372 1371
f 1247 1373 1374
f 1372 1373 1247
f 1205 1374 1375
f 1247 1374 1205
f 1248 1375 609
f 1205 1375 1248
f 1248 609 1249
f 1249 1376 1250
f 611 1376 1249
f 1250 1377 1251
f 1251 1377 1378
f 1251 1378 1252
f 1252 1378 615
f 1252 615 1253
f 1253 617 1206
f 617 618 1206
f 1206 618 1255
f 1257 1379 1380
f 1255 1379 1257
f 618 1379 1255
f 1257 1380 621
f 621 623 1257
f 1257 623 1260
f 623 625 1260
f 1260 625 1261
f 625 627 1261
f 1261 627 1262
f 627 629 1262
f 629 631 1262
f 1262 631 1265
f 633 1381 1265
f 633 635 1381
f 1381 635 1267
f 1267 637 1268
f 635 637 1267
f 420 1158 417
f 423 1383 421
f 430 1159 427
f 435 1385 430
f 464 1172 462
f 467 1173 464
f 474 1148 472
f 480 1149 478
f 489 1180 488
f 489 1150 1180
f 489 1151 1150
f 495 1394 493
f 497 1182 495
f 498 1183 497
f 503 1153 1152
f 508 1186 506
f 510 1188 508
f 511 1188 510
f 535 1154 533
f 538 1199 535
f 539 1199 538
f 539 1155 1199
f 1091 413 1156
f 411 413 1091
f 415 1157 413
f 413 1157 1156
f 415 417 1157
f 1157 417 1158
f 420 1382 1158
f 420 421 1382
f 421 1383 1382
f 427 1384 423
f 423 1384 1383
f 1384 427 1159
f 430 1385 1159
f 1385 435 1160
f 435 438 1160
f 1160 438 1161
f 438 440 1161
f 1161 440 1162
f 440 444 1162
f 1162 444 1163
f 444 446 1163
f 1163 446 1164
f 446 450 1164
f 1164 450 1165
f 1165 1386 1166
f 450 1386 1165
f 1166 1386 454
f 1166 454 1167
f 1167 454 456
f 1167 456 1168
f 1168 456 458
f 1168 461 1169
f 458 461 1168
f 461 462 1169
f 1169 462 1172
f 1172 464 1173
f 1173 467 1147
f 1147 469 1174
f 467 469 1147
f 469 1387 1174
f 1148 1387 472
f 1174 1387 1148
f 474 1388 1148
f 474 476 1388
f 1388 476 1176
f 476 478 1176
f 1176 478 1149
f 480 1389 1149
f 482 1178 480
f 480 1178 1389
f 1178 484 1179
f 482 484 1178
f 1391 1390 484
f 484 1390 1179
f 1180 1391 487
f 1390 1391 1180
f 487 488 1180
f 1151 1392 1393
f 489 1392 1151
f 1181 1393 492
f 1151 1393 1181
f 493 1394 492
f 492 1394 1181
f 1394 495 1182
f 1183 1182 497
f 1184 1183 498
f 498 500 1184
f 1184 500 1185
f 1152 1395 1396
f 1185 1395 1152
f 500 1395 1185
f 1152 1396 503
f 503 504 1153
f 1153 506 1186
f 504 506 1153
f 1188 1186 508
f 513 1397 511
f 511 1397 1188
f 513 515 1397
f 515 1398 1397
f 515 517 1398
f 1398 517 1189
f 517 519 1189
f 1189 519 1190
f 519 521 1190
f 1192 523 525
f 521 523 1190
f 1190 523 1192
f 1192 525 1193
f 525 527 1193
f 1193 527 1194
f 527 529 1194
f 1194 529 1195
f 529 531 1195
f 1195 531 1154
f 531 533 1154
f 1154 535 1199
f 541 1155 539
f 1402 1066 291
f 294 1066 1402
f 1404 1403 294
f 300 1096 298
f 302 1097 300
f 310 1099 308
f 322 1103 321
f 328 1105 326
f 330 1106 328
f 332 1106 330
f 340 1108 338
f 1415 1414 344
f 368 1119 366
f 373 1069 1070
f 374 1069 373
f 380 1073 378
f 380 1072 1073
f 385 1075 383
f 385 1074 1075
f 387 1074 385
f 389 1077 388
f 389 1076 1077
f 391 1076 389
f 393 1078 392
f 393 1079 1078
f 395 1079 393
f 397 1137 396
f 398 1080 1081
f 399 1080 398
f 399 1082 1080
f 402 1140 401
f 402 1083 1140
f 404 1084 1142
f 404 1085 1084
f 405 1085 404
f 405 1086 1085
f 406 1087 405
f 405 1087 1086
f 408 1090 1089
f 409 1090 408
f 409 1091 1090
f 411 1091 409
f 1064 1399 1400
f 1011 1399 1064
f 1064 1400 287
f 1065 1401 287
f 287 1401 1064
f 287 290 1065
f 1065 290 1092
f 1066 1092 291
f 291 1092 290
f 294 1403 1066
f 1095 1404 296
f 1403 1404 1095
f 298 1405 296
f 1096 1405 298
f 296 1405 1095
f 1096 300 1097
f 302 305 1097
f 1097 305 1098
f 306 1406 305
f 305 1406 1098
f 308 1099 306
f 306 1099 1406
f 1099 310 1100
f 1100 313 1067
f 310 313 1100
f 315 1067 313
f 1067 317 1102
f 315 317 1067
f 317 319 1102
f 1102 319 1103
f 319 321 1103
f 322 1407 1103
f 323 1408 322
f 322 1408 1407
f 326 1409 323
f 323 1409 1408
f 1104 1409 326
f 1104 326 1105
f 1106 1105 328
f 334 1410 332
f 332 1410 1106
f 336 1411 334
f 334 1411 1410
f 336 338 1411
f 1411 338 1108
f 1108 340 1109
f 340 1412 1109
f 1109 1412 343
f 344 1413 343
f 343 1413 1109
f 344 1414 1413
f 1111 1415 1416
f 1414 1415 1111
f 1111 1416 348
f 1111 348 1112
f 348 1417 1112
f 1113 1417 351
f 1112 1417 1113
f 1419 1418 351
f 351 1418 1113
f 1114 1418 1419
f 1114 1419 1115
f 1115 1419 353
f 1116 353 355
f 1115 353 1116
f 1116 1420 356
f 355 1420 1116
f 1068 356 358
f 1116 356 1068
f 358 360 1068
f 362 1118 360
f 360 1118 1068
f 364 1421 362
f 362 1421 1118
f 1119 1421 364
f 1118 1421 1119
f 1119 1422 366
f 366 1422 364
f 364 1422 1119
f 369 1423 368
f 1119 1423 1123
f 368 1423 1119
f 1123 1423 369
f 371 1424 369
f 369 1424 1123
f 1123 1424 371
f 373 1425 371
f 371 1425 1123
f 1123 1425 1070
f 1070 1425 373
f 375 1426 374
f 374 1426 1069
f 1069 1426 375
f 377 1427 375
f 1071 1427 377
f 1069 1427 1071
f 375 1427 1069
f 378 1428 377
f 1073 1428 378
f 377 1428 1071
f 1071 1428 1073
f 382 1429 380
f 1072 1429 1130
f 380 1429 1072
f 1130 1429 382
f 383 1430 382
f 382 1430 1130
f 1130 1430 1075
f 1075 1430 383
f 388 1431 387
f 1077 1431 388
f 1074 1431 1133
f 1133 1431 1077
f 387 1431 1074
f 392 1432 391
f 391 1432 1076
f 1076 1432 1135
f 1135 1432 1078
f 1078 1432 392
f 1079 1433 1137
f 395 1433 1079
f 396 1433 395
f 1137 1433 396
f 398 1434 397
f 1081 1434 398
f 1137 1434 1081
f 397 1434 1137
f 399 1435 1082
f 401 1435 399
f 1140 1435 401
f 1082 1435 1140
f 404 1436 402
f 402 1436 1083
f 1083 1436 1142
f 1142 1436 404
f 406 1437 1087
f 408 1437 406
f 1087 1437 1088
f 1145 1438 1089
f 408 1438 1437
f 1437 1438 1088
f 1089 1438 408
f 1088 1438 1145
f 194 910 192
f 1439 1001 194
f 197 1002 1001
f 1453 1452 232
f 237 1454 235
f 238 1006 1039
f 245 1041 242
f 246 1007 1042
f 261 1049 259
f 267 1009 1053
f 1457 1009 267
f 281 1062 279
f 284 1063 281
f 284 1010 1063
f 1399 1010 284
f 1399 1011 1010
f 910 194 1001
f 1001 1439 197
f 1002 197 1440
f 1002 1440 1014
f 1014 1440 1441
f 1016 1441 1442
f 1014 1441 1016
f 1017 1442 1443
f 1016 1442 1017
f 1018 1443 203
f 1017 1443 1018
f 204 1018 203
f 1020 1018 204
f 204 205 1020
f 208 1444 205
f 205 1444 1020
f 1021 1444 208
f 210 1021 208
f 210 212 1021
f 1021 212 1022
f 212 213 1022
f 1022 213 1023
f 213 214 1023
f 1023 214 1024
f 214 215 1024
f 215 1445 1024
f 1024 1445 1026
f 1026 1445 1446
f 1026 1446 1027
f 1027 1446 1447
f 1027 1447 1029
f 1029 1447 1448
f 1031 1448 219
f 1029 1448 1031
f 1031 219 1003
f 219 221 1003
f 1003 221 1033
f 221 223 1033
f 1033 223 1004
f 223 224 1004
f 1004 224 1034
f 224 1449 1034
f 1034 1449 226
f 1450 1035 226
f 226 1035 1034
f 1005 1450 229
f 1035 1450 1005
f 229 231 1005
f 231 1451 1005
f 232 1452 231
f 231 1452 1451
f 1037 1453 235
f 1452 1453 1037
f 235 1454 1037
f 238 1039 237
f 237 1039 1454
f 1006 238 240
f 240 241 1006
f 1006 241 1040
f 241 242 1040
f 1040 242 1041
f 245 246 1041
f 1041 246 1042
f 246 247 1007
f 247 249 1007
f 1007 249 1008
f 1455 1043 249
f 249 1043 1008
f 1044 1455 1456
f 1043 1455 1044
f 1045 1456 252
f 1044 1456 1045
f 252 254 1045
f 1045 254 1046
f 254 256 1046
f 1046 256 1047
f 1047 258 1048
f 256 258 1047
f 1048 259 1049
f 258 259 1048
f 1050 1049 261
f 1050 262 1052
f 261 262 1050
f 262 265 1052
f 1052 265 1053
f 265 267 1053
f 1009 1457 1458
f 1055 1458 269
f 1009 1458 1055
f 1055 271 1056
f 269 271 1055
f 271 273 1056
f 273 1459 1056
f 1057 1459 1460
f 1056 1459 1057
f 1057 1460 1058
f 1058 1460 1461
f 1059 1461 1462
f 1058 1461 1059
f 1060 1462 1463
f 1059 1462 1060
f 1061 1463 279
f 1060 1463 1061
f 1061 279 1062
f 1062 281 1063
