# Render LOD; unchanged CAD body-local coordinates in mm
v -60.6406000 94.4002925 140.7500000
v -60.8406127 94.4002925 140.7500000
v -60.6406000 95.0003142 140.7500000
v -60.8406127 95.0003142 140.7500000
v -60.8406127 95.0003142 141.0500220
v -60.8406127 94.4002925 141.6000151
v -60.8406127 95.2003000 141.6000151
v -60.8406127 95.2003000 141.2999931
v -60.6406000 95.0003142 141.0500220
v -60.6406000 95.2003000 141.6000151
v -60.6406000 94.4002925 141.6000151
v -60.6406000 95.2003000 141.2999931
v -62.2235764 94.4011845 141.9145087
v -62.1693867 94.4002927 141.8461472
v -62.0900591 94.4002920 141.8034759
v -61.0405998 94.4002925 141.7999826
v -61.0405998 94.4002925 141.9999972
v -62.0406122 94.4002925 141.9999972
v -61.0057397 94.4002925 141.9984877
v -61.0058671 94.4002925 141.7969635
v -60.6421290 94.4002925 141.6348761
v -60.8436451 94.4002925 141.6347346
v -60.9711344 94.4002925 141.9939119
v -60.6466649 94.4002925 141.6694541
v -60.9370642 94.4002925 141.9863641
v -60.9722046 94.4002925 141.7879534
v -60.6542332 94.4002925 141.7035132
v -60.8526659 94.4002925 141.6684163
v -60.9037839 94.4002925 141.9758917
v -60.6647320 94.4002925 141.7368176
v -60.8715485 94.4002925 141.9624945
v -60.9406063 94.4002925 141.7731881
v -60.6780849 94.4002925 141.7690369
v -60.8673948 94.4002925 141.6999752
v -60.8406127 94.4002925 141.9464084
v -60.6941898 94.4002925 141.7999826
v -60.8111803 94.4002925 141.9276334
v -60.9120403 94.4002925 141.7531867
v -60.7129450 94.4002925 141.8294187
v -60.8873987 94.4002925 141.7285622
v -60.7834808 94.4002925 141.9064054
v -60.7341720 94.4002925 141.8571094
v -60.7577688 94.4002925 141.8828188
v -60.8436451 95.2003000 141.6347346
v -60.8526659 95.2003000 141.6684163
v -60.8673948 95.2003000 141.6999752
v -60.8873987 95.2003000 141.7285622
v -60.9120403 95.2003000 141.7531867
v -60.9406063 95.2003000 141.7731881
v -60.9722046 95.2003000 141.7879534
v -61.0058671 95.2003000 141.7969635
v -61.2382024 95.2005002 141.8042524
v -61.2393893 95.2003000 141.9999972
v -61.0405998 95.2003000 141.9999972
v -61.0057397 95.2003000 141.9984877
v -60.6421290 95.2003000 141.6348761
v -60.9711344 95.2003000 141.9939119
v -60.6466649 95.2003000 141.6694541
v -60.9370642 95.2003000 141.9863641
v -60.6542332 95.2003000 141.7035132
v -60.9037839 95.2003000 141.9758917
v -60.6647320 95.2003000 141.7368176
v -60.8715485 95.2003000 141.9624945
v -60.6780849 95.2003000 141.7690369
v -60.8406127 95.2003000 141.9464084
v -60.6941898 95.2003000 141.7999826
v -60.8111803 95.2003000 141.9276334
v -60.7129450 95.2003000 141.8294187
v -60.7834808 95.2003000 141.9064054
v -60.7341720 95.2003000 141.8571094
v -60.7577688 95.2003000 141.8828188
v -61.5990503 94.8003285 141.9999972
v -62.0406122 94.8003285 141.9999972
v -62.0406122 93.2291138 140.8218370
v -62.0406122 91.2767569 142.7804870
v -62.0406122 93.3469825 141.1963944
v -62.0406122 91.3942497 143.1506950
v -62.0406122 93.2820690 141.2970600
v -62.0406122 92.9894783 141.0628994
v -62.0406122 91.3985338 142.7332862
v -62.0406122 92.9389135 141.1645096
v -62.0406122 91.3361488 143.2550992
v -62.0406122 90.9927649 143.0911347
v -62.0406122 91.0449178 143.0079401
v -62.0406122 93.3104621 140.7763391
v -62.0406122 93.4260327 140.7571322
v -62.0406122 91.5336368 142.7435866
v -62.0406122 92.9341092 141.2994635
v -62.0406122 90.9727648 143.2417047
v -62.0406122 93.4336054 141.1415707
v -62.0406122 93.5676174 140.7974987
v -62.0406122 91.4905200 143.0874322
v -62.0406122 91.6553793 142.8155645
v -62.0406122 91.0251785 143.3729755
v -62.0406122 93.2773560 141.4455303
v -62.0406122 93.0023530 141.4435370
v -62.0406122 91.3341536 143.3913632
v -62.0406122 91.7678911 142.9755426
v -62.0406122 93.5348087 141.1259406
v -62.0406122 91.5917971 143.0717903
v -62.0406122 93.6189120 141.1460634
v -62.0406122 91.6947468 143.0994200
v -62.0406122 93.1685089 141.5621446
v -62.0406122 93.3585069 141.5699860
v -62.0406122 91.4153195 143.5158763
v -62.0406122 91.9096559 143.1196719
v -62.0406122 93.4873063 141.6280354
v -62.0406122 91.7880609 143.1812295
v -62.0406122 93.3091570 141.6964912
v -62.0406122 92.0703644 143.2289038
v -62.0406122 91.5440864 143.5738797
v -62.0406122 91.8312663 143.3106396
v -62.0406122 94.0478350 141.2713100
v -62.0406122 93.7683995 141.3209082
v -62.0406122 93.7034271 141.2010862
v -62.0406122 91.4613847 143.8119751
v -62.0406122 93.6101028 141.6125663
v -62.0406122 91.5166748 143.8385135
v -62.0406122 91.6670407 143.5584036
v -62.0406122 91.7389981 143.5154656
v -62.0406122 94.0692377 141.3314519
v -62.0406122 93.7652012 141.4406352
v -62.0406122 93.4336040 141.8762344
v -62.0406122 92.2495719 143.3052085
v -62.0406122 91.8027533 143.4390593
v -62.0406122 92.4408139 143.3454580
v -62.0406120 94.0770254 141.9919727
v -62.0406122 93.7101105 141.5458817
v -62.0406122 93.5213535 142.1016041
v -62.0406122 92.8168598 143.3891773
v -62.0406122 92.7493298 143.3300003
v -62.0406121 94.1354979 142.0673926
v -62.0406122 93.3710672 142.9237405
v -62.0406120 93.3023173 143.0123200
v -62.0406027 94.3994217 141.9717303
v -62.0406122 93.5516997 142.3254148
v -62.0406122 94.0740462 142.6641703
v -62.0406120 94.1979542 142.0965716
v -62.0406122 92.6359788 143.3477843
v -62.0406121 92.9445936 143.4356497
v -62.0406121 94.3566972 142.0479953
v -62.0406122 94.1582788 142.6043573
v -62.0406119 94.2830324 142.0953529
v -62.0406122 94.0005911 142.8993706
v -62.0406122 93.5325818 142.5493786
v -62.0406122 92.9721894 143.8404614
v -62.0406122 93.0799720 143.4261836
v -62.0406122 93.4657157 142.7559805
v -62.0406122 93.8695023 143.1661036
v -62.0406122 93.1836467 143.7665224
v -62.0406123 93.1998718 143.3626346
v -62.0406122 93.3824781 143.6572469
v -62.0406121 93.2747851 143.2706673
v -62.0406122 93.7302824 143.3542128
v -62.0406124 93.3138568 143.1582081
v -62.0406122 93.5717856 143.5177053
v -62.0406122 94.8003285 142.5999940
v -62.1105873 93.7683973 141.4332291
v -62.1105873 93.7247926 141.5240528
v -62.1105873 93.6666368 141.5822920
v -62.1105873 93.5731167 141.6236654
v -62.1105873 93.4708190 141.6229813
v -62.1105873 93.3661925 141.5762357
v -62.1105873 93.2909333 141.4774715
v -62.1105873 93.2707390 141.3770272
v -62.1105873 93.4664100 141.1317784
v -62.1105873 93.5689269 141.1300240
v -62.1105873 93.6495070 141.1614537
v -62.1105873 93.7257138 141.2274303
v -62.1105873 93.3627183 141.1812573
v -62.1105873 93.7674301 141.3262361
v -62.1105873 93.2909613 141.2765746
v -62.1105873 91.8036077 143.4395416
v -62.1105873 91.7233686 143.5282598
v -62.1105873 91.6299313 143.5695170
v -62.1105873 91.5275297 143.5688120
v -62.1105873 91.4229877 143.5221144
v -62.1105873 91.3476305 143.4230875
v -62.1105873 91.3275817 143.3229243
v -62.1105873 91.5233963 143.0776040
v -62.1105873 91.6255617 143.0758463
v -62.1105873 91.7061923 143.1072675
v -62.1105873 91.7823320 143.1731174
v -62.1105873 91.4193254 143.1272792
v -62.1105873 91.8305920 143.3008278
v -62.1105873 91.3476054 143.2228323
v -62.2405994 92.6223625 143.3488511
v -62.2405994 92.4025985 143.3413991
v -62.2405994 92.1908560 143.2847099
v -62.2405994 92.0158565 143.1969198
v -62.2405994 91.8622411 143.0775893
v -62.2405994 91.7495750 142.9502117
v -62.2405994 94.0626639 141.2937749
v -62.2405994 93.5985948 140.8215641
v -62.2405994 93.7584063 141.2877255
v -62.2405994 93.6775023 141.1778106
v -62.2405994 93.5865870 141.1350242
v -62.2405994 93.7715860 141.4070274
v -62.2405994 93.5018937 140.7699401
v -62.2399944 94.8003289 141.9782735
v -62.2410953 94.3834491 142.0098181
v -62.2405994 93.5003495 141.1265301
v -62.2405994 93.3677404 140.7604430
v -62.2405994 93.2468157 140.8076541
v -62.2405995 94.3365857 142.0663160
v -62.2405994 93.7389233 141.5041350
v -62.2405994 94.8003285 142.5999940
v -62.2405994 93.3866095 141.1634807
v -62.2405994 93.6703316 141.5800409
v -62.2405994 93.3048799 141.2499348
v -62.2405994 92.9833831 141.0697287
v -62.2405994 92.9335620 141.1883557
v -62.2405994 92.9396862 141.3232576
v -62.2405994 93.3373434 141.5491871
v -62.2405994 93.2859034 141.6704306
v -62.2405994 93.4376623 141.6144176
v -62.2405994 93.2753957 141.4332291
v -62.2405994 93.2759764 141.3292621
v -62.2405995 94.2741619 142.0962017
v -62.2405995 94.2049893 142.0980002
v -62.2405994 93.4033775 141.8254770
v -62.2405994 93.1592502 141.5558293
v -62.2405994 93.0124622 141.4532142
v -62.2405994 93.5063300 142.0453000
v -62.2405994 93.5612605 141.6268140
v -62.2405994 94.1645462 142.6028204
v -62.2405995 94.1410831 142.0714612
v -62.2405994 94.0716246 141.9600776
v -62.2405994 94.0934803 142.0208777
v -62.2405994 93.5488516 142.2768763
v -62.2405994 93.5452642 142.4636910
v -62.2405994 94.0778092 142.6582831
v -62.2405994 93.5050687 142.6520522
v -62.2405994 94.0245734 142.8268713
v -62.2405994 93.4071133 142.8721496
v -62.2405994 93.9344751 143.0502338
v -62.2405994 93.3029621 143.0108929
v -62.2405995 93.3138196 143.1508601
v -62.2405994 93.7688430 143.3101114
v -62.2405993 93.2791401 143.2647777
v -62.2405994 93.5843997 143.5050517
v -62.2405994 93.3683957 143.6683495
v -62.2405995 93.1922148 143.3688945
v -62.2405994 93.0704353 143.4287650
v -62.2405994 92.7468653 143.3315914
v -62.2405994 93.1286099 143.7887016
v -62.2405993 92.9348133 143.4341123
v -62.2405994 92.9718231 143.8403178
v -62.2405994 92.8405910 143.4006956
v -62.2405994 91.8152786 143.2337318
v -62.2405994 91.7343717 143.1237057
v -62.2405994 91.8272183 143.3695351
v -62.2405994 91.6083421 143.0718450
v -62.2405994 91.6470462 142.8079444
v -62.2405994 91.5242498 142.7408355
v -62.2405994 91.3889452 142.7348907
v -62.2405994 91.2706541 142.7848105
v -62.2405994 91.7667878 143.4918644
v -62.2405994 91.4736677 143.0929874
v -62.2405994 91.0346110 143.0200852
v -62.2405994 91.3936604 143.1540335
v -62.2405994 90.9847317 143.1141644
v -62.2405994 91.3462424 143.2270134
v -62.2405994 90.9751601 143.2485247
v -62.2405994 91.6517045 143.5650011
v -62.2405994 91.5316960 143.5699745
v -62.2405994 91.5301522 143.8404445
v -62.2405994 91.0238707 143.3721458
v -62.2405994 91.4723360 143.8201643
v -62.2405994 91.4229877 143.5221144
v -62.2405994 91.3578640 143.4411845
v -62.2405994 91.3268886 143.3454280
v -62.3106000 93.2700340 141.3549976
v -62.3106000 93.3180792 141.2274303
v -62.3106000 93.4256545 141.1432441
v -62.3106000 93.5434435 141.1265301
v -62.3106000 93.6528289 141.1613193
v -62.3106000 93.7466989 141.2602063
v -62.3106000 93.7733474 141.3813676
v -62.3106000 93.7439926 141.4978855
v -62.3106000 93.2895847 141.4733365
v -62.3106000 93.3585069 141.5699860
v -62.3106000 93.4825325 141.6268140
v -62.3106000 93.5863532 141.6191669
v -62.3106000 93.6632739 141.5850217
v -62.3106000 91.3268886 143.3004205
v -62.3106000 91.3662066 143.1884828
v -62.3106000 91.4227422 143.1268853
v -62.3106000 91.5153034 143.0781838
v -62.3106000 91.6466696 143.0798987
v -62.3106000 91.7637405 143.1499257
v -62.3106000 91.8157190 143.2417269
v -62.3106000 91.8301800 143.3272745
v -62.3106000 91.3462598 143.4188831
v -62.3106000 91.8008534 143.4436386
v -62.3106000 91.4153195 143.5158763
v -62.3106000 91.5392933 143.5726559
v -62.3106000 91.6432327 143.5650106
v -62.3106000 91.7200189 143.5309817
v -62.1003463 94.8003280 141.8058971
v -62.2064050 94.8003286 141.8820574
v -61.5990503 94.8003285 141.7999826
f 1 2 3
f 3 2 4
f 2 5 4
f 6 7 8
f 6 8 5
f 6 5 2
f 5 9 3
f 5 3 4
f 9 1 3
f 10 11 12
f 12 11 9
f 9 11 1
f 135 13 14
f 135 14 15
f 16 135 15
f 17 18 135
f 17 135 16
f 11 6 2
f 11 2 1
f 19 16 20
f 19 17 16
f 21 22 6
f 21 6 11
f 23 19 20
f 24 22 21
f 25 20 26
f 25 23 20
f 27 22 24
f 27 28 22
f 29 25 26
f 30 28 27
f 31 26 32
f 31 29 26
f 33 28 30
f 33 34 28
f 35 31 32
f 36 34 33
f 37 35 32
f 37 32 38
f 39 34 36
f 39 40 34
f 41 37 38
f 42 40 39
f 43 41 38
f 43 40 42
f 43 38 40
f 6 22 7
f 7 22 44
f 44 28 45
f 22 28 44
f 45 34 46
f 28 34 45
f 46 40 47
f 34 40 46
f 47 38 48
f 40 38 47
f 48 32 49
f 38 32 48
f 49 26 50
f 32 26 49
f 50 20 51
f 26 20 50
f 51 16 52
f 20 16 51
f 53 54 52
f 7 10 8
f 8 10 12
f 52 55 51
f 54 55 52
f 44 56 7
f 7 56 10
f 55 57 51
f 44 58 56
f 51 59 50
f 57 59 51
f 45 60 44
f 44 60 58
f 59 61 50
f 45 62 60
f 50 63 49
f 61 63 50
f 46 64 45
f 45 64 62
f 63 65 49
f 46 66 64
f 49 67 48
f 65 67 49
f 47 68 46
f 46 68 66
f 67 69 48
f 47 70 68
f 48 71 47
f 47 71 70
f 69 71 48
f 18 72 73
f 72 17 53
f 53 17 54
f 18 17 72
f 76 79 74
f 77 84 75
f 78 79 76
f 90 76 74
f 92 77 75
f 92 75 80
f 78 81 79
f 82 84 77
f 82 83 84
f 90 74 85
f 90 85 86
f 92 80 87
f 78 88 81
f 82 89 83
f 90 86 91
f 92 87 93
f 78 96 88
f 82 94 89
f 99 90 91
f 100 92 93
f 95 96 78
f 97 94 82
f 100 93 98
f 95 103 96
f 101 99 91
f 102 100 98
f 115 101 91
f 104 103 95
f 105 94 97
f 108 102 98
f 109 103 104
f 106 108 98
f 107 109 104
f 106 112 108
f 123 109 107
f 110 112 106
f 116 94 105
f 116 105 111
f 113 115 91
f 113 114 115
f 123 107 117
f 110 125 112
f 118 116 111
f 118 111 119
f 118 119 120
f 121 114 113
f 121 128 122
f 121 122 114
f 124 125 110
f 124 120 125
f 126 118 120
f 126 120 124
f 127 129 123
f 127 128 121
f 127 123 117
f 127 117 128
f 130 139 131
f 127 136 129
f 132 136 127
f 141 135 18
f 155 134 133
f 137 145 136
f 137 136 132
f 142 137 132
f 142 132 138
f 146 126 139
f 146 130 140
f 146 139 130
f 146 118 126
f 73 141 18
f 142 138 143
f 144 145 137
f 144 148 145
f 150 146 140
f 150 140 147
f 149 133 148
f 149 148 144
f 150 147 151
f 152 150 151
f 149 155 133
f 156 151 153
f 156 152 151
f 154 155 149
f 156 153 155
f 156 155 154
f 157 143 141
f 157 141 73
f 157 142 143
f 114 122 158
f 158 128 159
f 122 128 158
f 159 128 160
f 160 117 161
f 128 117 160
f 117 107 161
f 161 107 162
f 162 107 163
f 107 104 163
f 163 104 164
f 104 95 164
f 164 95 165
f 169 166 167
f 169 167 168
f 169 170 166
f 171 172 170
f 171 170 169
f 158 165 172
f 158 172 171
f 158 164 165
f 160 158 159
f 160 161 162
f 160 162 163
f 160 163 164
f 160 164 158
f 165 78 172
f 95 78 165
f 172 76 170
f 78 76 172
f 170 90 166
f 76 90 170
f 166 99 167
f 90 99 166
f 99 101 167
f 167 101 168
f 101 115 168
f 168 115 169
f 169 114 171
f 115 114 169
f 171 114 158
f 185 112 173
f 112 125 173
f 173 120 174
f 125 120 173
f 174 119 175
f 120 119 174
f 119 111 175
f 175 111 176
f 176 111 177
f 111 105 177
f 177 105 178
f 105 97 178
f 178 97 179
f 183 180 181
f 183 181 182
f 183 184 180
f 185 186 184
f 185 184 183
f 185 179 186
f 173 179 185
f 173 178 179
f 174 175 176
f 174 176 177
f 174 177 178
f 174 178 173
f 179 82 186
f 97 82 179
f 82 77 186
f 186 77 184
f 184 92 180
f 77 92 184
f 180 100 181
f 92 100 180
f 100 102 181
f 181 102 182
f 182 102 183
f 102 108 183
f 183 108 185
f 108 112 185
f 245 139 187
f 131 139 245
f 187 126 188
f 139 126 187
f 126 124 188
f 188 124 189
f 124 110 189
f 189 110 190
f 110 106 190
f 190 106 191
f 106 98 191
f 191 98 192
f 98 93 192
f 196 193 194
f 195 193 196
f 197 196 194
f 202 197 194
f 198 193 195
f 202 194 199
f 202 199 203
f 208 202 203
f 208 203 204
f 205 200 201
f 206 193 198
f 207 200 205
f 228 193 206
f 209 228 206
f 211 210 208
f 211 208 204
f 212 210 211
f 212 218 210
f 213 218 212
f 215 216 214
f 222 214 217
f 222 215 214
f 226 205 219
f 226 219 220
f 226 207 205
f 221 216 215
f 221 225 216
f 223 222 217
f 223 218 213
f 223 217 218
f 224 225 221
f 226 220 227
f 224 228 209
f 224 209 225
f 232 226 227
f 224 229 228
f 230 229 224
f 230 227 229
f 230 232 227
f 231 232 230
f 233 234 232
f 233 232 231
f 233 236 234
f 235 236 233
f 235 239 236
f 238 239 235
f 238 235 237
f 240 239 238
f 240 241 239
f 242 241 240
f 242 240 243
f 242 243 244
f 246 242 244
f 187 249 245
f 246 244 247
f 248 246 247
f 248 249 187
f 248 247 249
f 248 187 188
f 251 191 192
f 250 191 251
f 250 190 191
f 253 251 192
f 252 190 250
f 253 192 254
f 259 253 254
f 259 254 255
f 252 189 190
f 259 255 256
f 259 256 257
f 258 189 252
f 258 188 189
f 261 259 257
f 260 263 261
f 260 261 257
f 262 263 260
f 264 263 262
f 267 188 258
f 267 258 265
f 267 265 266
f 267 248 188
f 264 272 263
f 268 272 264
f 269 267 266
f 269 266 270
f 268 269 270
f 268 270 271
f 268 271 272
f 218 217 273
f 210 273 274
f 210 218 273
f 208 210 274
f 208 274 275
f 202 208 275
f 202 275 276
f 197 202 276
f 197 276 277
f 196 197 277
f 196 277 278
f 195 196 278
f 195 278 279
f 198 195 279
f 276 278 277
f 275 278 276
f 274 278 275
f 273 279 274
f 274 279 278
f 273 280 279
f 281 280 273
f 282 285 281
f 283 285 282
f 284 285 283
f 281 285 280
f 198 279 280
f 206 198 280
f 209 280 285
f 209 206 280
f 225 285 284
f 225 209 285
f 225 284 283
f 216 225 283
f 216 283 282
f 214 216 282
f 214 282 281
f 217 214 281
f 217 281 273
f 263 272 286
f 263 286 287
f 261 263 287
f 261 287 288
f 259 261 288
f 259 288 289
f 253 259 289
f 253 289 290
f 251 253 290
f 251 290 291
f 250 251 291
f 250 291 292
f 250 292 293
f 252 250 293
f 289 291 290
f 288 291 289
f 287 292 288
f 288 292 291
f 286 293 287
f 287 293 292
f 286 295 293
f 294 295 286
f 296 299 294
f 297 299 296
f 298 299 297
f 294 299 295
f 252 293 295
f 258 252 295
f 258 295 299
f 265 258 299
f 265 299 298
f 265 298 297
f 266 265 297
f 270 266 297
f 270 297 296
f 271 270 296
f 271 296 294
f 272 271 294
f 272 294 286
f 96 103 223
f 223 103 222
f 222 103 215
f 103 109 215
f 215 109 221
f 109 123 221
f 221 123 224
f 123 129 224
f 224 129 230
f 129 136 230
f 230 136 231
f 136 145 231
f 231 145 233
f 145 148 233
f 233 148 235
f 148 133 235
f 235 133 237
f 133 134 237
f 96 223 213
f 88 96 213
f 88 213 212
f 81 88 212
f 81 212 211
f 79 81 211
f 211 204 74
f 211 74 79
f 85 74 204
f 85 204 203
f 86 85 203
f 86 203 199
f 91 86 199
f 91 199 194
f 194 193 113
f 194 113 91
f 121 113 193
f 228 121 193
f 228 127 121
f 13 135 201
f 201 141 205
f 135 141 201
f 205 143 219
f 141 143 205
f 219 143 220
f 143 138 220
f 220 138 227
f 138 132 227
f 227 132 229
f 132 127 229
f 229 127 228
f 300 15 14
f 301 300 14
f 301 14 13
f 200 13 201
f 200 301 13
f 302 15 300
f 16 302 52
f 16 15 302
f 72 53 52
f 72 52 302
f 73 300 301
f 73 72 302
f 73 302 300
f 200 73 301
f 157 73 200
f 207 157 200
f 226 157 207
f 226 142 157
f 232 142 226
f 137 142 232
f 137 232 234
f 144 137 234
f 144 234 236
f 149 144 236
f 149 236 239
f 154 149 239
f 156 239 241
f 156 154 239
f 156 241 242
f 152 156 242
f 150 152 242
f 150 242 246
f 146 246 248
f 146 150 246
f 267 146 248
f 267 118 146
f 118 267 269
f 116 118 269
f 116 268 94
f 269 268 116
f 89 268 264
f 89 94 268
f 89 264 262
f 83 89 262
f 83 262 260
f 84 83 260
f 84 257 75
f 260 257 84
f 75 257 256
f 80 75 256
f 80 256 255
f 87 80 255
f 87 255 254
f 93 87 254
f 93 254 192
f 237 155 238
f 134 155 237
f 238 155 240
f 155 153 240
f 240 151 243
f 153 151 240
f 243 147 244
f 151 147 243
f 244 140 247
f 147 140 244
f 247 130 249
f 140 130 247
f 249 130 245
f 130 131 245
f 54 17 19
f 55 54 19
f 57 19 23
f 57 55 19
f 59 23 25
f 59 57 23
f 61 25 29
f 61 59 25
f 63 29 31
f 63 61 29
f 65 31 35
f 65 63 31
f 67 35 37
f 67 65 35
f 69 37 41
f 69 67 37
f 71 41 43
f 71 69 41
f 70 43 42
f 70 71 43
f 68 42 39
f 68 70 42
f 66 39 36
f 66 68 39
f 64 36 33
f 64 66 36
f 62 33 30
f 62 64 33
f 60 62 30
f 60 30 27
f 58 60 27
f 58 27 24
f 56 58 24
f 56 24 21
f 10 56 21
f 10 21 11
f 9 8 12
f 5 8 9
