# Render LOD; unchanged CAD body-local coordinates in mm
v -7.5120240 -13.0007650 -73.4092947
v -6.9874650 -13.1005418 -73.3930533
v -7.1915404 -12.8747410 -73.3104472
v -7.1315541 -12.8696165 -73.2943349
v -6.0058663 -13.2090390 -72.8378154
v -7.0724743 -12.8636579 -73.2754379
v -6.4239174 -13.1286532 -73.1367324
v -6.8546900 -12.8493110 -73.1906875
v -5.7897948 -13.0327485 -72.2579734
v -6.2765391 -12.7126178 -72.6032343
v -6.1563385 -12.5905198 -72.1324615
v -5.8203435 -12.8307171 -71.6208365
v -6.2132508 -12.4759683 -71.6863555
v -6.1596247 -12.6214731 -70.9610535
v -6.4303957 -12.3688914 -71.2611869
v -8.4977926 -11.4086539 -71.7049383
v -7.9138236 -11.1370429 -71.3376956
v -8.1210456 -11.2635571 -71.3993648
v -7.3640035 -11.0739842 -71.3014402
v -7.6558236 -11.1770813 -71.2716391
v -6.8968887 -11.0780999 -71.4465276
v -7.1674300 -11.1462527 -71.3106703
v -6.6432875 -11.1824083 -71.6042841
v -6.2666517 -11.2475470 -72.3110466
v -6.2501765 -11.3473847 -72.4023034
v -6.4762341 -11.4521065 -73.2525900
v -6.2952595 -11.4558177 -72.8836143
v -6.8567212 -11.5882474 -73.5783233
v -7.5136269 -11.5087123 -73.7894497
v -7.3196981 -11.5998469 -73.7541659
v -7.9726050 -11.4387623 -73.7185589
v -7.8358993 -11.5415554 -73.7315160
v -8.3297082 -11.4239401 -73.5047009
v -8.5939650 -11.2047027 -73.2188655
v -8.7393155 -11.0883758 -72.7844214
v -8.6423311 -11.2403723 -73.1019724
v -8.7496178 -11.0098033 -72.5984252
v -8.7468162 -11.0034275 -72.5396453
v -8.7407187 -10.9788183 -72.4810644
v -8.7309957 -10.9536132 -72.4210910
v -7.2624414 -12.8693544 -73.3284001
v -7.4865332 -12.8662005 -73.3513280
v -8.0564922 -12.7662761 -73.2693783
v -7.9461813 -12.8664949 -73.2813415
v -8.5564121 -12.5738604 -72.8587152
v -8.3500022 -12.7470425 -73.0468437
v -8.7638387 -12.3313397 -72.2862790
v -8.7383745 -12.4614021 -72.3961932
v -8.6636320 -12.1201297 -71.7839218
v -8.7233181 -12.2563303 -71.9099316
v -8.9044913 -10.6730327 -72.2598959
v -8.6630684 -10.8421334 -72.1294374
v -8.7040016 -10.4069712 -71.7542798
v -8.3988206 -10.6943219 -71.7476422
v -8.4063122 -10.2192208 -71.4305338
v -8.0006329 -10.0739948 -71.1951067
v -7.3039162 -10.0532249 -71.1322938
v -7.5154756 -10.5166125 -71.3657322
v -6.6002930 -10.1256408 -71.3604332
v -6.9689334 -10.5091244 -71.4445494
v -7.5480024 -12.4309600 -70.3602047
v -8.3675420 -12.2350055 -69.7417986
v -8.9182879 -12.3267241 -70.0312074
v -9.3805431 -12.4427711 -70.3970487
v -8.2908638 -12.4912167 -70.5500751
v -8.7950347 -12.6102474 -70.9255624
v -7.1682864 -12.1946658 -69.6143607
v -6.7592143 -12.4832158 -70.5248786
v -9.9741946 -12.7653206 -71.4140002
v -9.1057137 -12.7661129 -71.4170919
v -9.9528329 -13.1485518 -72.6230551
v -9.2354739 -12.9684811 -72.0553855
v -5.1270967 -12.6804854 -71.1464468
v -4.9893523 -12.8985756 -71.8347843
v -9.3992033 -13.4786467 -73.6631245
v -9.0328166 -13.1977855 -72.7785432
v -5.9488853 -13.2261224 -72.8677583
v -5.0285543 -13.1501012 -72.6274117
v -6.0031037 -13.2474544 -72.9349921
v -8.5924010 -13.6410231 -74.1763312
v -8.5372540 -13.3762333 -73.3414607
v -6.2033626 -13.3128683 -73.1412857
v -7.8920898 -13.7147084 -74.4081966
v -7.9219451 -13.4608216 -73.6080033
v -6.4285283 -13.3615625 -73.2950311
v -6.4967544 -13.3772338 -73.3443625
v -6.6479174 -13.4070812 -73.4384239
v -5.7257536 -13.5051426 -73.7475553
v -6.7457613 -13.4087741 -73.4797441
v -7.3363765 -13.4758515 -73.6555205
v -6.6904287 -13.6814448 -74.3036813
v -9.1395285 -12.2025459 -69.9752124
v -4.8000000 -12.7576535 -71.7260764
v -8.5604303 -13.6159968 -74.4330331
v -10.1992075 -12.2107326 -70.6142567
v -9.3665370 -12.2209581 -70.1068952
v -8.3907851 -12.0686483 -69.5643822
v -7.5008959 -11.7291123 -69.1325634
v -6.9312074 -11.9585414 -69.4040524
v -5.8551421 -12.2205796 -69.9729091
v -5.8352196 -12.3670685 -70.1576976
v -4.7982859 -12.2143366 -70.6188081
v -4.8000000 -12.6572503 -71.4829008
v -4.8001909 -13.0155614 -72.5506418
v -4.8001699 -13.1428602 -73.5902029
v -6.0879729 -13.5920167 -74.2273162
v -7.5007903 -13.6240542 -75.0722847
v -8.3334218 -13.6344090 -74.5647159
v -9.3084960 -13.4821711 -74.0221738
v -10.2000241 -13.1428807 -73.5898656
v -10.1996913 -12.9178877 -72.1012182
v -9.2537069 -10.0346298 -70.7317769
v -8.3265864 -9.8870575 -70.2170351
v -10.2000626 -11.3254589 -74.1659138
v -10.1996773 -10.5490532 -72.4428314
v -8.0687964 -11.5692453 -75.3797331
v -9.1448656 -11.3072295 -74.8108987
v -5.6334630 -11.3068419 -74.6769048
v -5.8604715 -11.3252541 -74.8085876
v -4.8000128 -10.4534293 -71.8601672
v -4.8001806 -10.7548859 -73.0689916
v -6.6665782 -9.8933910 -70.2190841
v -6.4395697 -9.9118032 -70.3507669
v -6.4075990 -9.8867769 -70.6074688
v -8.9426176 -9.9439746 -70.7879388
v -6.0817121 -11.2010759 -74.7525926
v -4.9799996 -10.6638207 -73.0583557
v -5.0679364 -10.3617615 -72.1055629
v -4.8104434 -10.3760996 -71.1887332
v -5.6581768 -10.0347022 -71.0747441
v -5.8351822 -10.0113796 -70.6852656
v -6.9708545 -9.8237456 -70.4089085
v -7.4929075 -9.9044709 -69.7123817
v -7.9623497 -9.8173451 -70.3888844
v -9.5902845 -10.1411670 -71.4098884
v -10.1997632 -10.3846252 -71.1935750
v -10.0162566 -10.4455870 -72.3704491
v -9.8293012 -10.8847166 -73.7557707
v -10.1999909 -10.9344831 -73.4455065
v -9.0220460 -11.1862184 -74.7058817
v -8.1131935 -11.3141826 -75.1093834
v -7.4882944 -11.7902227 -75.6486749
v -6.8809132 -11.3229730 -75.1377663
v -6.4653745 -11.4249733 -75.1432928
v -5.4474372 -11.0296800 -74.2129507
v -4.8048151 -11.3191436 -74.1740130
v -8.7949632 -10.1972128 -71.5707804
v -9.1642659 -10.4548599 -72.3621412
v -6.0427602 -10.2906195 -71.8810424
v -9.2205108 -10.5996094 -72.8555964
v -5.7944513 -10.4864816 -72.4987766
v -9.0503176 -10.8139879 -73.5312770
v -5.8024640 -10.6649905 -73.0618015
v -8.3012515 -11.0418453 -74.2496926
v -6.0103330 -10.8382255 -73.6081180
v -6.6292126 -11.0289119 -74.2090028
v -7.4214056 -11.0946863 -74.4170087
v -6.3684594 -11.0786637 -73.6875456
v -6.8212733 -11.1614578 -74.0365286
v -6.4628754 -11.3433303 -74.0708506
v -7.2929370 -11.1914091 -74.2062203
v -7.7693600 -11.1744612 -74.2202168
v -7.9985534 -11.1485802 -74.1758339
v -8.0710643 -11.1386293 -74.1556438
v -8.1425040 -11.1276654 -74.1322711
v -8.4191281 -11.0755431 -74.0121860
v -8.2844413 -11.2786255 -74.2597519
v -8.8922652 -10.9163231 -73.6029190
v -9.1531927 -10.7062499 -73.0336968
v -9.0783377 -10.9966145 -73.5915781
v -9.1453330 -10.3907429 -72.0350501
v -8.3584483 -11.9310600 -74.0086511
v -8.9474730 -11.7258550 -73.5198901
v -9.1901597 -11.5579007 -73.0956949
v -9.2938659 -11.3665555 -72.6040510
v -9.2262454 -11.1576522 -72.0692668
v -8.9288077 -10.9275445 -71.4892594
v -7.9966217 -10.5770570 -71.4737272
v -8.3202523 -10.7348487 -71.0391612
v -6.7471419 -10.6242858 -71.0333930
v -6.1642310 -10.7160392 -71.4632996
v -6.1807434 -10.6760191 -72.1470890
v -5.7832779 -10.8646919 -72.0958993
v -5.7078456 -11.0128062 -72.6858178
v -6.0727029 -10.9275675 -73.1026771
v -5.7893941 -11.1352212 -73.1723207
v -6.0188178 -11.2414849 -73.6211844
v -7.1432086 -11.3865552 -74.3615035
v -7.7055850 -11.3591027 -74.3926090
v -6.4244370 -10.5867735 -71.7940074
v -6.0422103 -10.7872737 -72.5724386
v -8.7062550 -11.4934665 -72.0981951
v -8.4396891 -11.2992839 -71.6561520
v -7.6156494 -10.6299481 -70.8639610
v -6.6343294 -11.1076162 -71.6484426
v -6.4113210 -11.1615902 -71.9266751
v -6.2686371 -11.3538891 -72.8119461
v -6.7405052 -11.4994118 -73.5246562
v -7.0768256 -11.5230537 -73.7089217
v -8.3303217 -11.3343758 -73.5142214
v -8.8526498 -10.9725208 -72.8176209
v -9.2985891 -10.6709658 -72.7567299
v -8.4268895 -11.9676542 -73.2166480
v -8.1318135 -12.0747470 -73.4361210
v -8.5966197 -11.8688850 -72.9970791
v -8.7475947 -11.6989048 -72.5926840
v -8.4108365 -11.9560194 -71.4187372
v -8.5250412 -12.0956208 -71.5313521
v -8.1123725 -11.8586703 -71.2151488
v -8.2249769 -11.9657348 -71.2465661
v -7.7637540 -11.7877970 -71.0969651
v -7.2584973 -11.7411421 -71.0996851
v -6.7175614 -11.7644850 -71.3530015
v -6.9913309 -11.8197062 -71.1626192
v -6.3488853 -11.8556517 -71.8202389
v -6.2453120 -11.9582605 -72.2888474
v -6.3272941 -12.0690447 -72.7840576
v -6.2466856 -12.0578550 -72.3710093
v -6.6076645 -12.1522384 -73.1947776
v -6.3632337 -12.1627840 -72.8403457
v -6.9402495 -12.1883999 -73.4375309
v -6.7661634 -12.2561004 -73.3162118
v -7.5226073 -12.1830216 -73.5904051
v -7.4441035 -12.2637918 -73.5627023
v -8.0859804 -12.1613169 -73.4380165
v -8.4400162 -12.0381915 -73.1756368
v -8.6666213 -11.8921657 -72.8423259
v -8.7465728 -11.7565339 -72.5200738
v -8.7238621 -11.5911618 -72.1241307
v -6.0453742 -13.2607422 -73.0137631
v -6.3386933 -13.3360802 -73.3428864
v -6.9841731 -13.3964219 -73.6836035
v -8.3734528 -13.2639844 -73.5604255
v -7.7902548 -13.3686386 -73.7641566
v -8.5958853 -12.6180338 -72.7637337
v -8.9374388 -13.0791642 -73.1312551
v -9.2978270 -12.7501546 -72.2900715
v -9.1882022 -12.4476974 -71.5143088
v -8.8623616 -12.2480228 -71.0120612
v -8.3923451 -12.0904063 -70.6487430
v -7.6296622 -11.8399943 -71.0451731
v -7.7963558 -11.9913379 -70.4622143
v -7.1662791 -11.9546770 -70.4748123
v -6.5153574 -11.8781496 -71.5275974
v -6.6019466 -11.9834416 -70.6888278
v -6.0780868 -12.0788013 -71.1309676
v -6.2830816 -11.9767161 -72.0003210
v -5.7519326 -12.2360282 -71.7842723
v -5.9894438 -12.5765841 -73.1597345
v -6.3967160 -12.6722523 -73.5901274
v -6.8627681 -12.7191335 -73.8490237
v -8.2184955 -12.6297811 -73.8541018
v -8.7575866 -12.4778165 -73.5134040
v -9.1142822 -12.2963204 -73.0606063
v -9.2884110 -12.0725497 -72.4916911
v -9.2359045 -11.8356037 -71.8729826
v -8.9214136 -11.6000583 -71.2849847
v -8.2611946 -11.3900108 -70.7868312
v -7.4577534 -11.2913489 -70.6510448
v -6.9059744 -11.2914903 -70.7650019
v -6.3440333 -11.3453194 -71.0734224
v -6.3456248 -11.2670609 -72.0319780
v -5.8995753 -11.4715482 -71.6226238
v -5.8332688 -11.8317024 -73.0695410
v -6.5621150 -11.5479101 -73.3360154
v -6.6250994 -12.0334891 -73.9539881
v -7.2424775 -12.0577922 -74.1659915
v -7.8010008 -12.0193605 -74.1653661
v -6.5693477 -13.3829541 -73.3856377
v -7.3096796 -13.4264205 -73.6319409
v -7.9626921 -13.3717129 -73.5515001
v -8.4852799 -13.2611128 -73.2884609
v -8.8535153 -13.1029092 -72.8716285
v -9.0392256 -12.7233207 -71.8417170
v -8.5939666 -12.4397001 -71.0921291
v -8.6445594 -12.4583506 -71.1397697
v -8.6925978 -12.4777162 -71.1896977
v -6.9140624 -12.2735171 -70.8623000
v -5.7226709 -12.4209191 -72.5246987
v -6.4955896 -12.7929072 -72.9237311
v -7.4650959 -12.7198028 -73.9775478
v -5.6918483 -11.6733193 -72.4205135
v -6.1630012 -11.9574984 -73.5949721
v -7.3818932 -12.2569423 -70.7244477
v -7.7655677 -12.2743063 -70.7166045
v -8.2980787 -12.3507186 -70.8707085
v -8.8388175 -12.5465938 -71.3704626
v -9.0446304 -12.9301740 -72.4042629
f 44 1 42
f 42 1 41
f 1 2 41
f 41 2 3
f 3 2 4
f 4 2 6
f 6 2 8
f 2 7 8
f 8 7 280
f 280 7 10
f 5 10 7
f 9 10 5
f 9 11 10
f 12 11 9
f 12 13 11
f 14 13 12
f 13 14 15
f 14 278 15
f 68 278 14
f 16 193 18
f 193 17 18
f 17 20 18
f 17 19 20
f 19 22 20
f 19 21 22
f 21 23 22
f 21 195 23
f 195 196 23
f 196 262 23
f 196 24 262
f 24 25 262
f 24 197 25
f 197 27 25
f 197 26 27
f 26 265 27
f 26 198 265
f 198 28 265
f 198 199 28
f 199 30 28
f 199 29 30
f 29 32 30
f 29 31 32
f 31 33 32
f 31 200 33
f 200 34 33
f 34 36 33
f 34 35 36
f 37 38 35
f 37 38 38
f 38 39 38
f 38 39 39
f 39 40 39
f 6 4 4
f 4 3 4
f 4 41 3
f 42 43 44
f 43 46 44
f 43 45 46
f 46 45 235
f 45 48 235
f 45 47 48
f 47 50 48
f 47 49 50
f 49 208 50
f 34 201 35
f 35 201 37
f 37 201 38
f 38 201 39
f 39 51 40
f 40 51 52
f 201 51 39
f 53 52 51
f 52 53 54
f 55 178 54
f 53 55 54
f 56 178 55
f 178 56 58
f 57 58 56
f 58 57 60
f 59 60 57
f 62 65 61
f 62 61 67
f 63 65 62
f 64 65 63
f 64 66 65
f 61 68 67
f 67 68 101
f 69 66 64
f 69 70 66
f 68 14 101
f 69 72 70
f 101 14 73
f 71 72 69
f 14 12 73
f 71 76 72
f 12 74 73
f 71 75 76
f 12 78 74
f 9 78 12
f 76 75 81
f 5 78 9
f 77 78 5
f 79 88 77
f 77 88 78
f 75 80 81
f 82 88 79
f 80 83 81
f 81 83 84
f 85 88 82
f 86 88 85
f 84 83 90
f 87 88 86
f 87 91 88
f 89 91 87
f 83 91 90
f 90 91 89
f 95 69 64
f 97 92 63
f 97 63 62
f 100 67 101
f 100 99 67
f 104 93 74
f 104 74 78
f 106 88 91
f 109 80 75
f 109 94 80
f 111 71 69
f 64 96 95
f 92 96 64
f 92 63 92
f 92 92 96
f 92 64 63
f 97 62 67
f 98 97 67
f 67 99 98
f 102 100 101
f 73 102 101
f 73 103 102
f 93 93 103
f 93 74 93
f 93 103 73
f 93 73 74
f 105 104 78
f 105 78 88
f 88 106 105
f 107 106 91
f 107 91 83
f 83 108 107
f 94 108 83
f 94 83 80
f 94 80 94
f 94 94 108
f 110 109 75
f 71 110 75
f 71 111 110
f 95 111 69
f 112 136 95
f 112 95 96
f 112 96 92
f 112 92 97
f 113 112 97
f 113 97 98
f 133 113 98
f 139 110 111
f 139 114 110
f 115 139 111
f 115 111 95
f 136 115 95
f 116 142 107
f 116 107 108
f 117 108 94
f 117 116 108
f 117 94 109
f 117 109 110
f 114 117 110
f 146 105 106
f 118 146 106
f 119 118 106
f 144 119 106
f 144 106 107
f 142 144 107
f 120 129 102
f 120 102 103
f 121 103 93
f 121 120 103
f 121 93 104
f 121 104 105
f 146 121 105
f 133 98 99
f 122 133 99
f 123 99 100
f 123 122 99
f 131 123 100
f 129 100 102
f 129 131 100
f 121 127 128
f 120 121 128
f 131 130 124
f 123 131 124
f 113 134 125
f 112 113 125
f 117 140 141
f 116 117 141
f 144 143 126
f 119 144 126
f 146 145 121
f 121 145 127
f 129 128 130
f 129 120 128
f 131 129 130
f 123 123 124
f 123 122 123
f 123 124 132
f 132 133 122
f 132 122 123
f 133 132 134
f 133 134 113
f 112 125 135
f 135 136 112
f 115 135 137
f 115 136 135
f 115 137 138
f 139 115 138
f 114 139 138
f 114 138 117
f 117 138 140
f 142 116 141
f 142 141 143
f 144 142 143
f 119 118 119
f 119 119 126
f 119 126 145
f 145 146 118
f 145 118 119
f 56 125 134
f 57 56 134
f 147 125 56
f 57 134 132
f 147 135 125
f 59 57 132
f 59 132 124
f 59 124 130
f 148 137 135
f 148 135 147
f 149 59 130
f 150 137 148
f 149 130 128
f 150 138 137
f 151 149 128
f 152 138 150
f 127 151 128
f 127 153 151
f 140 138 152
f 140 152 154
f 127 155 153
f 145 155 127
f 141 140 154
f 145 156 155
f 141 154 157
f 126 156 145
f 143 141 157
f 143 156 126
f 143 157 156
f 33 172 32
f 158 160 187
f 162 189 161
f 163 167 162
f 164 167 163
f 165 167 164
f 166 167 165
f 166 170 167
f 168 170 166
f 169 170 168
f 169 202 170
f 148 202 169
f 148 171 202
f 147 171 148
f 172 33 173
f 36 173 33
f 35 174 36
f 36 174 173
f 35 175 174
f 39 175 38
f 38 175 35
f 52 176 40
f 40 176 39
f 39 176 175
f 52 177 176
f 52 54 177
f 177 178 179
f 54 178 177
f 179 178 194
f 60 194 58
f 58 194 178
f 60 180 194
f 190 180 60
f 190 181 180
f 181 182 183
f 190 182 181
f 191 183 182
f 184 183 191
f 185 184 191
f 186 184 185
f 187 186 158
f 158 186 185
f 160 158 159
f 160 159 188
f 188 159 161
f 188 161 189
f 189 162 167
f 165 154 166
f 166 154 168
f 154 152 168
f 168 152 169
f 152 150 169
f 169 150 148
f 60 59 190
f 149 190 59
f 149 182 190
f 151 182 149
f 182 151 191
f 153 191 151
f 153 185 191
f 155 185 153
f 155 158 185
f 156 158 155
f 156 159 158
f 159 156 161
f 157 161 156
f 157 162 161
f 154 162 157
f 163 162 154
f 154 164 163
f 165 164 154
f 163 164 164
f 164 164 165
f 206 176 192
f 177 193 176
f 176 193 192
f 179 193 177
f 194 17 179
f 179 17 193
f 17 194 19
f 180 19 194
f 19 180 21
f 181 195 180
f 180 195 21
f 181 196 195
f 183 196 181
f 196 183 24
f 24 184 197
f 183 184 24
f 186 197 184
f 186 187 197
f 197 187 26
f 160 198 187
f 187 198 26
f 160 199 198
f 188 199 160
f 199 188 29
f 188 189 29
f 29 189 31
f 167 31 189
f 170 200 167
f 167 200 31
f 170 34 200
f 202 201 170
f 170 201 34
f 201 202 51
f 202 171 51
f 171 53 51
f 147 53 171
f 147 55 53
f 56 55 147
f 173 203 172
f 172 203 204
f 174 205 173
f 173 205 203
f 175 206 174
f 174 206 205
f 176 206 175
f 49 207 208
f 207 210 208
f 207 209 210
f 209 241 210
f 209 211 241
f 211 212 241
f 212 214 241
f 212 213 214
f 213 244 214
f 213 215 244
f 215 247 244
f 215 216 247
f 216 218 247
f 216 217 218
f 217 220 218
f 217 219 220
f 219 222 220
f 219 221 222
f 221 224 222
f 221 223 224
f 223 225 224
f 223 204 225
f 204 226 225
f 204 203 226
f 203 227 226
f 203 205 227
f 205 206 227
f 206 228 227
f 206 229 228
f 206 192 229
f 192 16 229
f 192 193 16
f 5 79 77
f 5 230 79
f 230 7 231
f 5 7 230
f 7 2 231
f 231 2 232
f 1 232 2
f 1 234 232
f 1 44 234
f 44 233 234
f 44 46 233
f 233 46 236
f 46 235 236
f 236 235 237
f 48 237 235
f 48 50 237
f 50 238 237
f 208 238 50
f 210 239 208
f 208 239 238
f 210 240 239
f 241 240 210
f 241 242 240
f 242 241 243
f 243 214 245
f 241 214 243
f 214 244 245
f 245 244 246
f 244 247 246
f 246 247 248
f 248 247 279
f 218 279 247
f 218 220 279
f 279 220 249
f 220 222 249
f 249 222 250
f 250 222 251
f 224 251 222
f 224 281 251
f 281 224 252
f 225 252 224
f 225 226 252
f 252 226 253
f 227 254 226
f 226 254 253
f 254 227 255
f 227 228 255
f 255 229 256
f 228 229 255
f 229 16 256
f 16 257 256
f 18 257 16
f 18 258 257
f 20 258 18
f 20 259 258
f 20 22 259
f 259 22 260
f 22 23 260
f 260 23 261
f 23 262 261
f 261 262 263
f 263 262 282
f 25 282 262
f 25 27 282
f 282 27 264
f 27 265 264
f 264 265 283
f 283 265 266
f 28 266 265
f 28 30 266
f 266 30 267
f 30 268 267
f 172 268 32
f 32 268 30
f 79 79 77
f 79 230 79
f 230 82 79
f 231 82 230
f 231 85 82
f 231 86 85
f 231 269 86
f 231 89 269
f 232 89 231
f 232 270 89
f 234 270 232
f 234 271 270
f 233 272 234
f 234 272 271
f 236 272 233
f 236 273 272
f 238 274 237
f 237 288 236
f 236 288 273
f 237 274 288
f 287 274 238
f 239 287 238
f 275 239 286
f 276 239 275
f 277 239 276
f 287 239 277
f 239 240 286
f 242 286 240
f 286 242 285
f 242 243 285
f 285 243 284
f 284 243 278
f 245 278 243
f 245 246 278
f 278 246 15
f 15 248 13
f 246 248 15
f 248 11 13
f 279 11 248
f 11 279 10
f 249 280 279
f 279 280 10
f 250 280 249
f 251 8 250
f 250 8 280
f 6 251 4
f 4 251 41
f 8 251 6
f 251 281 41
f 41 281 42
f 42 281 43
f 281 252 43
f 43 253 45
f 252 253 43
f 253 254 45
f 45 254 47
f 254 255 47
f 47 256 49
f 255 256 47
f 256 257 49
f 49 257 207
f 258 207 257
f 258 209 207
f 258 211 209
f 259 211 258
f 211 259 212
f 261 212 260
f 260 212 259
f 212 261 213
f 263 213 261
f 213 263 215
f 282 215 263
f 282 216 215
f 216 282 217
f 282 264 217
f 217 283 219
f 264 283 217
f 219 283 221
f 266 221 283
f 266 267 221
f 221 267 223
f 267 268 223
f 223 268 204
f 204 268 172
f 76 81 273
f 273 81 272
f 272 81 271
f 81 84 271
f 271 84 270
f 84 90 270
f 90 89 270
f 89 87 269
f 269 86 86
f 87 86 269
f 86 85 86
f 61 278 68
f 61 284 278
f 61 285 284
f 65 285 61
f 65 286 285
f 66 286 65
f 275 276 276
f 276 276 277
f 275 66 276
f 286 66 275
f 276 66 277
f 66 287 277
f 70 287 66
f 287 70 274
f 72 274 70
f 72 288 274
f 76 288 72
f 76 273 288
