# Render LOD; unchanged CAD body-local coordinates in mm
v -35.3853384 88.5487766 141.1872000
v -34.7452224 88.5487766 141.1872000
v -32.0900000 81.6552000 141.1872000
v -35.5930137 88.5487766 141.1872000
v -35.3853384 88.6282262 141.1872000
v -35.6833471 88.5487766 141.1872000
v -35.6833471 89.0698932 141.1872000
v -36.5845449 88.5487766 141.1872000
v -35.9960735 89.0727861 141.1872089
v -36.1418980 89.1162121 141.1873131
v -36.2233639 89.1736128 141.1872000
v -42.0900000 81.6552000 141.1872000
v -36.2793890 89.2378388 141.1872000
v -37.8304440 88.5487766 141.1872000
v -37.3122272 88.6539642 141.1872000
v -37.4242058 88.7613082 141.1872701
v -37.0196393 88.5510831 141.1872058
v -37.1706403 88.5840828 141.1872655
v -37.4888044 88.8662589 141.1872000
v -36.5845449 89.8211163 141.1872000
v -36.2233639 89.7235787 141.1872000
v -36.1536514 89.7710425 141.1872000
v -36.0388853 89.8097350 141.1871999
v -36.3374430 89.4676246 141.1872000
v -36.3254616 89.5578342 141.1872183
v -36.2867105 89.6521820 141.1873404
v -37.5284683 88.9687584 141.1872142
v -39.0764958 88.5487766 141.1872000
v -38.5582789 88.6539642 141.1872000
v -38.6702576 88.7613082 141.1872701
v -38.2656911 88.5510831 141.1872064
v -38.4166921 88.5840828 141.1872655
v -37.8304440 89.8211163 141.1872000
v -37.3583215 89.6849403 141.1872000
v -37.2586885 89.7464748 141.1872000
v -37.1717693 89.7826323 141.1872000
v -37.0845830 89.8037152 141.1872000
v -37.5535968 89.3065155 141.1871855
v -37.5207508 89.4529022 141.1871750
v -37.4568031 89.5785336 141.1872000
v -39.1668292 88.5487766 141.1872000
v -39.7654406 88.5487766 141.1872000
v -39.8756107 88.5487766 141.1872000
v -39.4042596 89.1067560 141.1872000
v -39.1668292 89.1067560 141.1872000
v -32.0900000 96.6602000 141.1872000
v -34.7452224 89.8211163 141.1872000
v -34.8355558 89.8211163 141.1872000
v -35.5930137 89.8211163 141.1872000
v -35.9416845 89.8205135 141.1872000
v -36.9803956 89.8185916 141.1872000
v -39.6778977 89.1741285 141.1872806
v -39.0764958 89.8211163 141.1872000
v -38.6043732 89.6849403 141.1872000
v -38.5047402 89.7464748 141.1872000
v -38.4178210 89.7826323 141.1872000
v -38.3306348 89.8037152 141.1872000
v -38.7668026 89.4529022 141.1871750
v -38.7028548 89.5785336 141.1872000
v -39.7456039 89.2297084 141.1872000
v -39.7908857 89.2863809 141.1872000
v -39.8286930 89.3762251 141.1872840
v -39.8386839 89.4698892 141.1872000
v -42.0900000 96.6602000 141.1872000
v -38.2264473 89.8185916 141.1872000
v -39.4419613 89.8205449 141.1872000
v -39.7246990 89.7267841 141.1872000
v -39.6562350 89.7721971 141.1872000
v -39.5404352 89.8101592 141.1872044
v -39.8303019 89.5571034 141.1872000
v -39.7890678 89.6571273 141.1873380
v -34.8355558 88.6282262 141.1872000
v -36.3251314 89.3415515 141.1873241
v -37.5569957 89.1195518 141.1872105
v -39.5000862 89.1177462 141.1872000
v -39.5824054 89.1328724 141.1872000
v -38.8044167 89.1591991 141.1871970
v -38.7996485 89.3065155 141.1871855
v -38.7900605 89.0344707 141.1871922
v -38.7521992 88.9008174 141.1872087
v -36.2030694 89.2809958 141.1872000
v -36.1705884 89.2383239 141.1872041
v -36.2268472 89.3292477 141.1872039
v -36.1010524 89.1870887 141.1872021
v -36.2455257 89.4263272 141.1871979
v -35.6833471 89.7434983 141.1872000
v -35.6833471 89.1465954 141.1872000
v -35.9935933 89.1513319 141.1872396
v -35.9545740 89.7419886 141.1871801
v -36.0497162 89.7233497 141.1872000
v -36.2329179 89.5473898 141.1872582
v -36.1339003 89.6849544 141.1871503
v -36.1965080 89.6207749 141.1872000
v -37.3600284 88.8255247 141.1871993
v -37.2694926 88.7310022 141.1872518
v -37.4280830 88.9520632 141.1872219
v -37.1411156 88.6635666 141.1872021
v -37.4620319 89.1064225 141.1872035
v -37.0166192 88.6330325 141.1872206
v -36.6747257 89.7407508 141.1872000
v -36.6747257 88.6291421 141.1872000
v -37.4664968 89.2413991 141.1871898
v -36.9521281 89.7394003 141.1871968
v -37.4432699 89.3967018 141.1872090
v -37.0802739 89.7218115 141.1871979
v -37.3953646 89.5074016 141.1872262
v -37.2201860 89.6746665 141.1872113
v -37.3345601 89.5882088 141.1871974
v -38.6060802 88.8255247 141.1871993
v -38.5155443 88.7310022 141.1872518
v -38.6606555 88.9217859 141.1871910
v -38.3871673 88.6635666 141.1872021
v -38.6895270 89.0085315 141.1872000
v -38.7080326 89.1059439 141.1872034
v -38.2626709 88.6330325 141.1872206
v -37.9207774 89.7407508 141.1872000
v -37.9207774 88.6291421 141.1872000
v -38.7125485 89.2413991 141.1871898
v -38.1981798 89.7394003 141.1871968
v -38.6893216 89.3967018 141.1872090
v -38.3263256 89.7218115 141.1871979
v -38.4346970 89.6876009 141.1872082
v -38.6414164 89.5074016 141.1872262
v -38.5154215 89.6425262 141.1872000
v -38.5806119 89.5882088 141.1871974
v -39.7225628 89.3455630 141.1872000
v -39.6807663 89.2800504 141.1871141
v -39.7405684 89.4030324 141.1872000
v -39.6152918 89.2294795 141.1872000
v -39.1668292 89.7434983 141.1872000
v -39.1668292 89.1836871 141.1872000
v -39.4608116 89.1852256 141.1872051
v -39.4511793 89.7423537 141.1872156
v -39.7468996 89.4971336 141.1871467
v -39.5570295 89.2032345 141.1872047
v -39.5383451 89.7284779 141.1871949
v -39.6119527 89.7011282 141.1872312
v -39.7257671 89.5800197 141.1872000
v -39.6861394 89.6448216 141.1872019
v -32.0900000 96.6602000 142.0000000
v -42.0900000 96.6602000 142.0000000
v -32.0900000 81.6552000 142.0000000
v -42.0900000 81.6552000 142.0000000
v -34.7452224 88.5487766 141.2072053
v -35.3853384 88.5487766 141.2072053
v -34.7452224 89.8211163 141.2072053
v -34.8355558 89.8211163 141.2072053
v -34.8355558 88.6282262 141.2072053
v -35.3853384 88.6282262 141.2072053
v -35.6833471 89.0698932 141.2072053
v -35.5930137 88.5487766 141.2072053
v -35.6833471 88.5487766 141.2072053
v -35.9552080 89.0708146 141.2072053
v -35.6833471 89.1465954 141.2072053
v -35.9547052 89.1480517 141.2072250
v -36.0395886 89.0820190 141.2071811
v -36.0242813 89.1592972 141.2071201
v -36.1520579 89.1220648 141.2070612
v -36.0971427 89.1852217 141.2072044
v -36.2233639 89.1736128 141.2072053
v -35.6833471 89.7434983 141.2072053
v -35.5930137 89.8211163 141.2072053
v -36.1659617 89.2337194 141.2072067
v -36.2836422 89.2444644 141.2072053
v -36.2018486 89.2793931 141.2072053
v -36.2190913 89.3114477 141.2072053
v -36.3273618 89.3528402 141.2070363
v -36.2370386 89.3660393 141.2072030
v -36.2450317 89.4490537 141.2072053
v -36.3371783 89.4753236 141.2072053
v -35.9709021 89.7406832 141.2071940
v -35.9812475 89.8190762 141.2072051
v -36.0552094 89.7217470 141.2072053
v -36.0620760 89.8039442 141.2072053
v -36.3235249 89.5643592 141.2071759
v -36.2233639 89.5710902 141.2072053
v -36.2807373 89.6605227 141.2069429
v -36.1998737 89.6162418 141.2070579
v -36.1463537 89.7747019 141.2072053
v -36.1569871 89.6651934 141.2072053
v -36.2233639 89.7235787 141.2072053
v -37.0310691 88.5520791 141.2071933
v -36.6747257 88.6291421 141.2072053
v -36.5845449 88.5487766 141.2072053
v -36.9751185 88.6303340 141.2072218
v -37.0524581 88.6400505 141.2071545
v -37.1809044 88.5880255 141.2071145
v -37.1374159 88.6623567 141.2072035
v -37.2649447 88.6270814 141.2072053
v -37.2368876 88.7099392 141.2072545
v -37.3465939 88.6818123 141.2072053
v -37.2991782 88.7582751 141.2071331
v -37.4311158 88.7709030 141.2071109
v -37.3549225 88.8184921 141.2072075
v -37.5002628 88.8897082 141.2072191
v -37.4121356 88.9156029 141.2072310
v -36.6747257 89.7407508 141.2072053
v -36.5845449 89.8211163 141.2072053
v -37.5354950 88.9957118 141.2072135
v -37.5537205 89.0982108 141.2071881
v -37.4534791 89.0419068 141.2072052
v -36.9326199 89.7397834 141.2072044
v -37.4671898 89.1933521 141.2072036
v -37.0476211 89.7284539 141.2072005
v -37.5585017 89.2346781 141.2072053
v -36.9672859 89.8194602 141.2072053
v -37.0845830 89.8037152 141.2072053
v -37.1198314 89.7959305 141.2072053
v -37.1592983 89.6990674 141.2072100
v -37.5442733 89.3650104 141.2071565
v -37.1604204 89.7849404 141.2072053
v -37.4328588 89.4251416 141.2072165
v -37.2066552 89.7691420 141.2072053
v -37.5088069 89.4817991 141.2072053
v -37.2586885 89.7464748 141.2072053
v -37.2589183 89.6506187 141.2072038
v -37.4498354 89.5883196 141.2072053
v -37.3983089 89.5019106 141.2071619
v -37.3406030 89.5817516 141.2072082
v -37.3485999 89.6924777 141.2072053
v -38.2771208 88.5520791 141.2071933
v -37.9207774 88.6291421 141.2072053
v -37.8304440 88.5487766 141.2072053
v -38.2211702 88.6303340 141.2072218
v -38.2985098 88.6400505 141.2071545
v -38.4269561 88.5880255 141.2071145
v -38.3834676 88.6623567 141.2072035
v -38.5109964 88.6270814 141.2072053
v -38.4829393 88.7099392 141.2072545
v -38.5926457 88.6818123 141.2072053
v -38.5452299 88.7582751 141.2071331
v -38.6771675 88.7709030 141.2071109
v -38.6009742 88.8184921 141.2072075
v -38.7463145 88.8897082 141.2072191
v -38.6581874 88.9156029 141.2072310
v -37.9207774 89.7407508 141.2072053
v -37.8304440 89.8211163 141.2072053
v -38.7815468 88.9957118 141.2072135
v -38.7997723 89.0982108 141.2071881
v -38.6995648 89.0421757 141.2072104
v -38.1786717 89.7397834 141.2072044
v -38.7132416 89.1933521 141.2072036
v -38.2936728 89.7284539 141.2072005
v -38.8045535 89.2346781 141.2072053
v -38.2133377 89.8194602 141.2072053
v -38.3306348 89.8037152 141.2072053
v -38.3658831 89.7959305 141.2072053
v -38.4053500 89.6990674 141.2072100
v -38.7903251 89.3650104 141.2071565
v -38.4064721 89.7849404 141.2072053
v -38.6789105 89.4251416 141.2072165
v -38.4527070 89.7691420 141.2072053
v -38.7548587 89.4817991 141.2072053
v -38.5047402 89.7464748 141.2072053
v -38.5049700 89.6506187 141.2072038
v -38.6958871 89.5883196 141.2072053
v -38.6443607 89.5019106 141.2071619
v -38.5866548 89.5817516 141.2072082
v -38.5946516 89.6924777 141.2072053
v -39.1668292 89.1067560 141.2072053
v -39.0764958 88.5487766 141.2072053
v -39.1668292 88.5487766 141.2072053
v -39.4042596 89.1067560 141.2072053
v -39.1668292 89.1836871 141.2072053
v -39.5000862 89.1177462 141.2072053
v -39.7654406 88.5487766 141.2072053
v -39.5895266 89.1349991 141.2072053
v -39.5522721 89.2026910 141.2072053
v -39.6096460 89.2262740 141.2072053
v -39.6859649 89.1797032 141.2070539
v -39.1668292 89.7434983 141.2072053
v -39.0764958 89.8211163 141.2072053
v -39.6580171 89.2594734 141.2072053
v -39.7456039 89.2297084 141.2072053
v -39.7943523 89.2921634 141.2072053
v -39.7145203 89.3270186 141.2069850
v -39.8305333 89.3858452 141.2070700
v -39.4697254 89.7412622 141.2072285
v -39.7457842 89.4327171 141.2072095
v -39.8386839 89.4698892 141.2072053
v -39.4800986 89.8192902 141.2072105
v -39.5826946 89.7154421 141.2072307
v -39.5637163 89.8044021 141.2072053
v -39.8284842 89.5646107 141.2072053
v -39.7248516 89.5823093 141.2072053
v -39.6490768 89.7756840 141.2072053
v -39.6775871 89.6540158 141.2072343
v -39.7969610 89.6421749 141.2070497
v -39.7476656 89.7083147 141.2073251
v -39.8756107 88.5487766 141.2072053
v -36.2385403 89.5204829 141.2071027
v -36.1056864 89.7011973 141.2069828
v -37.4582919 89.3258522 141.2072133
v -38.7043437 89.3258522 141.2072133
v -39.7401977 89.5349287 141.2070688
v -39.4710487 89.1852938 141.2072186
f 1 2 3
f 4 5 1
f 4 1 3
f 6 4 3
f 9 7 6
f 8 6 3
f 9 6 8
f 10 9 8
f 11 10 8
f 13 11 8
f 17 3 12
f 17 8 3
f 14 16 15
f 14 19 16
f 14 18 17
f 14 15 18
f 14 17 12
f 20 22 21
f 20 23 22
f 20 50 23
f 20 25 24
f 20 26 25
f 20 21 26
f 27 19 14
f 74 27 14
f 31 14 12
f 28 31 12
f 28 30 29
f 28 80 30
f 28 32 31
f 28 29 32
f 33 35 34
f 33 36 35
f 33 37 36
f 33 51 37
f 33 39 38
f 33 40 39
f 33 34 40
f 41 28 12
f 42 41 12
f 43 42 12
f 44 41 42
f 44 45 41
f 46 2 47
f 46 47 48
f 46 50 20
f 46 49 50
f 46 3 2
f 46 20 51
f 46 48 49
f 53 55 54
f 53 56 55
f 53 57 56
f 53 65 57
f 53 59 58
f 53 54 59
f 60 52 43
f 61 60 43
f 62 61 43
f 63 62 43
f 64 51 33
f 64 63 43
f 64 53 66
f 64 68 67
f 64 69 68
f 64 66 69
f 64 70 63
f 64 71 70
f 64 67 71
f 64 46 51
f 64 65 53
f 64 43 12
f 64 33 65
f 4 49 5
f 5 49 72
f 72 49 48
f 8 20 24
f 8 24 73
f 8 73 13
f 14 33 74
f 74 33 38
f 75 43 76
f 76 43 52
f 28 53 77
f 77 53 78
f 78 53 58
f 28 77 79
f 28 79 80
f 83 82 81
f 83 84 82
f 85 88 84
f 85 84 83
f 89 86 87
f 89 87 88
f 89 88 85
f 90 85 91
f 90 89 85
f 92 90 91
f 92 91 93
f 96 97 95
f 96 95 94
f 96 99 97
f 98 99 96
f 103 100 101
f 103 101 99
f 103 98 102
f 103 99 98
f 105 103 102
f 104 105 102
f 107 105 104
f 106 107 104
f 108 107 106
f 111 112 110
f 111 110 109
f 111 115 112
f 113 115 111
f 114 115 113
f 119 116 117
f 119 117 115
f 119 114 118
f 119 115 114
f 121 119 118
f 120 121 118
f 122 121 120
f 123 122 120
f 124 122 123
f 125 124 123
f 128 129 127
f 128 135 129
f 128 127 126
f 133 130 131
f 133 131 132
f 134 135 128
f 136 132 135
f 136 133 132
f 136 135 134
f 137 136 134
f 139 134 138
f 139 137 134
f 64 140 46
f 141 140 64
f 140 142 3
f 140 3 46
f 143 3 142
f 12 3 143
f 141 12 143
f 64 12 141
f 143 142 140
f 143 140 141
f 2 1 144
f 144 1 145
f 47 2 146
f 146 2 144
f 48 47 147
f 147 47 146
f 72 48 148
f 148 48 147
f 5 72 149
f 149 72 148
f 1 5 145
f 145 5 149
f 145 148 144
f 149 148 145
f 146 144 148
f 147 146 148
f 150 151 152
f 155 150 153
f 155 154 150
f 155 153 156
f 157 155 156
f 158 157 156
f 159 157 158
f 163 159 158
f 160 163 158
f 161 162 154
f 164 165 163
f 164 163 160
f 164 166 165
f 167 168 166
f 167 166 164
f 167 169 168
f 172 161 171
f 172 162 161
f 170 169 167
f 170 291 169
f 172 171 173
f 174 172 173
f 175 291 170
f 175 176 291
f 179 174 173
f 179 173 292
f 177 178 176
f 177 176 175
f 179 292 180
f 181 180 178
f 181 179 180
f 181 178 177
f 162 151 150
f 162 150 154
f 182 183 184
f 185 183 182
f 186 185 182
f 187 186 182
f 188 186 187
f 190 188 187
f 190 187 189
f 190 189 191
f 192 190 191
f 193 192 191
f 194 192 193
f 196 194 193
f 195 196 193
f 197 198 184
f 197 184 183
f 195 201 196
f 199 201 195
f 200 201 199
f 200 203 201
f 206 197 202
f 206 198 197
f 205 203 200
f 206 202 204
f 205 293 203
f 210 293 205
f 207 206 204
f 208 204 209
f 208 207 204
f 210 212 293
f 211 208 209
f 214 212 210
f 213 211 209
f 214 218 212
f 215 213 209
f 215 209 216
f 217 218 214
f 220 215 216
f 220 216 219
f 217 219 218
f 220 219 217
f 221 222 223
f 224 222 221
f 225 224 221
f 226 225 221
f 227 225 226
f 229 227 226
f 229 226 228
f 229 228 230
f 231 229 230
f 232 231 230
f 233 231 232
f 235 233 232
f 234 235 232
f 236 237 223
f 236 223 222
f 234 240 235
f 238 240 234
f 239 240 238
f 239 242 240
f 245 236 241
f 245 237 236
f 244 242 239
f 245 241 243
f 244 294 242
f 249 294 244
f 246 245 243
f 247 243 248
f 247 246 243
f 249 251 294
f 250 247 248
f 253 251 249
f 252 250 248
f 253 257 251
f 254 252 248
f 254 248 255
f 256 257 253
f 259 254 255
f 259 255 258
f 256 258 257
f 259 258 256
f 260 261 262
f 263 264 260
f 296 264 263
f 265 263 266
f 296 263 265
f 267 296 265
f 268 296 267
f 269 267 270
f 269 268 267
f 271 272 264
f 273 269 270
f 274 273 270
f 276 273 274
f 275 276 274
f 277 276 275
f 277 279 276
f 281 271 278
f 281 272 271
f 280 279 277
f 281 278 282
f 283 281 282
f 284 279 280
f 284 295 279
f 284 285 295
f 286 283 282
f 286 282 287
f 288 287 285
f 288 285 284
f 289 286 287
f 289 287 288
f 272 261 260
f 272 260 264
f 290 265 266
f 169 85 168
f 85 83 168
f 83 166 168
f 165 82 163
f 81 82 165
f 81 165 83
f 166 165 165
f 83 165 166
f 165 165 81
f 92 93 180
f 180 93 178
f 291 85 169
f 91 85 291
f 91 178 93
f 176 178 91
f 91 291 176
f 292 92 180
f 90 171 89
f 173 171 90
f 92 292 90
f 90 292 173
f 86 89 161
f 161 89 171
f 87 86 154
f 154 86 161
f 88 87 155
f 155 87 154
f 82 84 163
f 163 84 159
f 159 88 157
f 84 88 159
f 155 157 88
f 170 25 175
f 24 25 170
f 175 26 177
f 25 26 175
f 177 21 181
f 26 21 177
f 11 13 160
f 160 13 164
f 164 73 167
f 13 73 164
f 167 24 170
f 73 24 167
f 153 9 156
f 156 10 158
f 9 10 156
f 158 11 160
f 10 11 158
f 7 9 150
f 150 9 153
f 6 7 152
f 152 7 150
f 4 6 151
f 151 6 152
f 49 4 162
f 162 4 151
f 50 49 172
f 172 49 162
f 21 22 181
f 181 22 179
f 179 23 174
f 22 23 179
f 23 50 172
f 174 23 172
f 102 98 203
f 98 201 203
f 98 96 201
f 196 201 96
f 219 106 218
f 108 106 219
f 218 104 212
f 106 104 218
f 104 102 293
f 293 102 203
f 104 293 212
f 202 103 204
f 103 105 204
f 105 209 204
f 105 107 209
f 107 216 209
f 216 108 219
f 107 108 216
f 100 103 197
f 197 103 202
f 101 100 183
f 183 100 197
f 99 101 185
f 185 101 183
f 95 97 190
f 190 97 188
f 188 99 186
f 97 99 188
f 185 186 99
f 96 94 196
f 196 94 194
f 194 95 192
f 94 95 194
f 190 192 95
f 74 38 205
f 205 38 210
f 210 39 214
f 214 40 217
f 39 40 214
f 217 34 220
f 40 34 217
f 39 210 38
f 19 27 195
f 199 74 200
f 27 74 199
f 200 74 205
f 195 27 199
f 189 15 191
f 191 16 193
f 15 16 191
f 193 19 195
f 16 19 193
f 182 18 187
f 17 18 182
f 187 15 189
f 18 15 187
f 8 17 184
f 184 17 182
f 20 8 198
f 198 8 184
f 51 20 206
f 206 20 198
f 220 35 215
f 34 35 220
f 213 36 211
f 211 36 208
f 207 51 206
f 37 51 207
f 36 215 35
f 215 215 213
f 35 215 215
f 213 215 36
f 37 207 36
f 208 207 207
f 36 207 208
f 207 207 37
f 118 114 242
f 114 240 242
f 114 113 240
f 111 240 113
f 235 240 111
f 258 123 257
f 125 123 258
f 257 120 251
f 123 120 257
f 120 118 294
f 294 118 242
f 120 294 251
f 241 119 243
f 119 121 243
f 121 248 243
f 121 122 248
f 122 255 248
f 122 124 255
f 255 125 258
f 124 125 255
f 116 119 236
f 236 119 241
f 117 116 222
f 222 116 236
f 115 117 224
f 224 117 222
f 110 112 229
f 229 112 227
f 227 115 225
f 112 115 227
f 224 225 115
f 111 109 235
f 235 109 233
f 233 110 231
f 109 110 233
f 229 231 110
f 77 78 244
f 244 78 249
f 249 58 253
f 253 59 256
f 58 59 253
f 256 54 259
f 59 54 256
f 58 249 78
f 80 79 238
f 238 79 239
f 239 77 244
f 234 80 238
f 77 239 79
f 228 29 230
f 230 30 232
f 29 30 230
f 232 80 234
f 30 80 232
f 221 32 226
f 31 32 221
f 226 29 228
f 32 29 226
f 14 31 223
f 223 31 221
f 33 14 237
f 237 14 223
f 65 33 245
f 245 33 237
f 259 55 254
f 54 55 259
f 252 56 250
f 250 56 247
f 246 65 245
f 57 65 246
f 56 254 55
f 254 254 252
f 55 254 254
f 252 254 56
f 57 246 56
f 247 246 246
f 56 246 247
f 246 246 57
f 134 128 279
f 128 276 279
f 128 126 276
f 127 273 276
f 127 276 126
f 139 285 287
f 139 138 285
f 295 134 279
f 134 295 138
f 138 295 285
f 136 137 282
f 137 287 282
f 137 139 287
f 136 278 133
f 282 278 136
f 130 133 271
f 271 133 278
f 131 130 264
f 264 130 271
f 132 131 296
f 296 131 264
f 127 129 273
f 273 129 269
f 135 269 129
f 269 269 268
f 129 269 269
f 268 269 135
f 132 296 135
f 135 296 268
f 63 70 280
f 280 70 284
f 284 71 288
f 70 71 284
f 71 67 289
f 289 288 71
f 60 61 274
f 274 61 275
f 275 62 277
f 61 62 275
f 277 63 280
f 62 63 277
f 75 76 265
f 265 76 267
f 267 52 270
f 76 52 267
f 270 60 274
f 52 60 270
f 43 75 290
f 290 75 265
f 42 43 266
f 266 43 290
f 44 42 263
f 263 42 266
f 45 44 260
f 260 44 263
f 41 45 262
f 262 45 260
f 28 41 261
f 261 41 262
f 53 28 272
f 272 28 261
f 66 53 281
f 281 53 272
f 67 68 289
f 289 68 286
f 286 69 283
f 68 69 286
f 69 66 281
f 283 69 281
