# Render LOD; unchanged CAD body-local coordinates in mm
v -187.2597890 -50.9743216 136.0737421
v -187.7004522 -50.2082061 136.9999465
v -187.6467438 -50.4352366 136.0309324
v -187.6954460 -49.8085932 136.9999467
v -187.7083814 -49.8692265 135.9882206
v -187.5745726 -49.4290853 136.9999463
v -187.5609832 -49.4033725 135.9544359
v -187.1901709 -48.9836951 136.9999473
v -187.2472683 -49.0357904 135.9175246
v -186.6493387 -48.7789394 136.9999468
v -186.7691623 -48.7971969 135.8792631
v -186.1574962 -48.8079671 136.9999464
v -186.1933267 -48.7985695 135.8392083
v -185.7604913 -48.9987179 136.9999468
v -185.4780895 -49.2751239 136.9999463
v -185.5904311 -49.1390183 135.8994364
v -185.5855304 -49.1442507 136.3385720
v -185.3004156 -49.6277264 136.9999472
v -185.3482522 -49.5068378 136.3089966
v -185.2376255 -50.0541812 136.9999462
v -185.2498352 -50.1769963 135.8191775
v -185.2365822 -49.9270259 136.2806934
v -185.3789237 -50.5913801 136.9999468
v -185.3973992 -50.6140736 135.7856268
v -185.3187673 -50.4470188 136.2404862
v -185.7394713 -51.0025538 136.9999471
v -185.4358294 -50.6859830 135.6749672
v -185.7383449 -51.0066825 135.7467944
v -185.5836681 -50.8673606 136.2053929
v -186.1860768 -51.2119903 136.9999463
v -185.8243306 -51.0593626 135.6357700
v -186.1308445 -51.1907886 135.7171148
v -186.2616291 -51.2261939 135.6008852
v -186.4916861 -51.2451577 135.6920574
v -186.4497855 -51.2416372 136.1367402
v -186.6160860 -51.2343343 136.9999469
v -187.0304323 -51.1161617 136.9999461
v -186.9856578 -51.1381535 135.6547445
v -186.7845431 -51.2045058 136.1109606
v -186.7513330 -51.2166032 135.5676078
v -187.4799262 -50.7459219 136.9999466
v -187.3892258 -50.8455564 135.6193115
v -187.1878070 -51.0201309 135.5304523
v -187.4909273 -50.7150593 135.5009376
v -187.6645159 -50.3735047 135.5832284
v -187.6812124 -50.3016569 135.4697023
v -187.7021278 -49.8233235 135.4349499
v -187.5328978 -49.3678611 135.5087328
v -187.5794889 -49.4494747 135.4071765
v -187.3052482 -49.0820671 135.3732186
v -186.8586249 -48.8279527 135.4446359
v -186.3060456 -48.7716678 135.4064626
v -186.5902976 -48.7748151 135.3187924
v -185.7708921 -48.9904478 135.3668117
v -186.0621102 -48.8310151 135.2778187
v -185.4390847 -49.3211477 135.3306618
v -185.5981521 -49.1332641 135.2422168
v -185.2649683 -49.7667320 135.2988603
v -185.3496977 -49.4973753 135.2089455
v -185.2482363 -50.1526251 135.2721585
v -185.2409718 -49.9234938 135.1800192
v -185.3349249 -50.4774058 135.2464747
v -185.2974080 -50.3847709 135.1459764
v -185.5345549 -50.8103643 135.2190646
v -185.4780702 -50.7330166 135.1188916
v -185.7528353 -51.0115975 135.0881915
v -186.1168189 -51.1880408 135.0608042
v -186.5129134 -51.2447951 135.1414136
v -186.8744501 -51.1758222 135.1146262
v -187.3321248 -50.8971755 134.9669595
v -187.7055776 -50.2180813 135.0200683
v -187.6523267 -49.6080442 134.9768284
v -187.4289412 -49.2165611 134.9453968
v -187.4042089 -49.1819894 134.8361900
v -187.0812086 -48.9247949 134.9141893
v -186.9241376 -48.8431360 134.7942689
v -186.1568414 -48.8073954 134.8443588
v -185.7801613 -48.9861624 134.8162977
v -185.9980125 -48.8613859 134.7257406
v -185.4618864 -49.2955716 134.7861947
v -185.5741389 -49.1548063 134.6888503
v -185.3333864 -49.5344400 134.6567387
v -185.2438465 -50.0540420 134.7279462
v -185.2357928 -50.0016531 134.6227210
v -185.3262025 -50.4559592 134.5897569
v -185.5345446 -50.8137737 134.5618479
v -186.0909201 -51.1884500 134.6189532
v -185.9217064 -51.1138994 134.5252713
v -186.5869791 -51.2384190 134.5857966
v -187.0110869 -51.1232712 134.5543757
v -186.9395930 -51.1532364 134.4511284
v -187.4079671 -50.8277677 134.5214861
v -187.2006656 -51.0086158 134.4285118
v -187.6340516 -50.4388275 134.4862377
v -187.5339341 -50.6602518 134.3970949
v -187.7177561 -50.0143816 134.4555651
v -187.6760028 -50.3005480 134.3683662
v -187.7103882 -49.9154071 134.3408562
v -187.5839489 -49.4334030 134.4166545
v -187.2307796 -49.0257240 134.3766493
v -186.9434851 -48.8625001 134.2440465
v -186.5225662 -48.7660067 134.2140555
v -186.0330282 -48.8518394 134.2856655
v -186.0953118 -48.8314504 134.1824688
v -185.7154678 -49.0336570 134.2604835
v -185.7731026 -48.9893437 134.1579212
v -185.4388092 -49.3302592 134.2324175
v -185.4582538 -49.3015325 134.1264256
v -185.2555548 -49.7864041 134.1947632
v -185.2940343 -49.6546445 134.0997832
v -185.2780796 -50.3276380 134.1591010
v -185.2343887 -50.0502941 134.0724428
v -185.4007632 -50.6297126 134.0284876
v -185.6813618 -50.9539589 134.1062560
v -185.7100591 -50.9748362 133.9940874
v -186.0607481 -51.1737410 134.0755838
v -186.0679296 -51.1758307 133.9638907
v -186.5455459 -51.2478230 134.0379025
v -186.5258090 -51.2439993 133.9323116
v -187.1325722 -51.0654034 133.9987670
v -186.9742510 -51.1407511 133.9006685
v -187.5096537 -50.6879506 133.9576301
v -187.3646705 -50.8709082 133.8659635
v -187.6207832 -50.4788751 133.8312407
v -187.7150326 -50.0388440 133.9096324
v -187.4726487 -49.2613849 133.7365651
v -187.0586252 -48.9125663 133.7031019
v -185.5565133 -49.1772379 133.6949802
v -185.8473662 -48.9338706 133.6089254
v -185.3500794 -49.4999412 133.6683349
v -185.4789922 -49.2758357 133.5806437
v -185.2393958 -49.9379844 133.6376806
v -185.2653790 -49.7263811 133.5453360
v -185.3074629 -50.4290526 133.5985320
v -185.2607528 -50.2425605 133.5060642
v -185.6095050 -50.8936892 133.5600828
v -185.4313039 -50.6709483 133.4721795
v -185.6979262 -50.9650144 133.4462210
v -186.3690929 -51.2403994 133.5003088
v -186.0906565 -51.1856452 133.4150779
v -186.8802129 -51.1823111 133.4656333
v -186.5460806 -51.2410944 133.3814013
v -187.2800564 -50.9436467 133.4311143
v -187.1944854 -51.0139435 133.3284634
v -187.5256875 -50.6661691 133.4049200
v -187.5207584 -50.6819993 133.3000511
v -187.6901943 -50.2456174 133.3754318
v -187.7029874 -49.8278346 133.3442248
v -187.7174099 -50.1116843 133.2585059
v -187.5069677 -49.3045889 133.3059680
v -187.6417667 -49.5907925 133.2172676
v -187.4240662 -49.2080944 133.1883365
v -187.0418288 -48.9014291 133.1530459
v -186.5699538 -48.7709543 133.1164693
v -186.0418813 -48.8412524 133.0774553
v -185.3308292 -49.5299748 133.1158957
v -185.2429825 -49.9469881 133.0858316
v -185.3066699 -49.5854638 133.0032610
v -185.3000606 -50.4008634 133.0541048
v -185.3256404 -50.4698856 132.9390999
v -185.5361762 -50.8125345 133.0188927
v -185.5820170 -50.8599600 132.9057951
v -185.9624058 -51.1383702 132.9790579
v -186.4175088 -51.2402574 132.9470722
v -186.0272342 -51.1687908 132.8662753
v -186.5146109 -51.2410149 132.8327984
v -186.8121608 -51.1982966 132.9200339
v -187.2044534 -51.0094965 132.8886904
v -186.9474286 -51.1553535 132.8000552
v -187.5255321 -50.6655416 132.8563930
v -187.3870445 -50.8492789 132.7640636
v -187.7083622 -50.1807832 132.8152759
v -187.6357530 -50.4383692 132.7289892
v -187.6619836 -49.6458982 132.7782075
v -187.7164696 -50.0221298 132.6996935
v -186.7461488 -48.7895308 132.6856903
v -185.9747332 -48.8776654 132.5230720
v -185.3161191 -49.5739368 132.5616463
v -185.2367908 -50.0988499 132.5288832
v -185.2959510 -49.6256724 132.4525403
v -185.3752909 -50.5688928 132.4894942
v -185.2505603 -50.2294403 132.4076963
v -185.5891651 -50.8653458 132.4638423
v -185.4809994 -50.7473106 132.3620944
v -185.9158980 -51.1108578 132.4349651
v -186.3659255 -51.2400587 132.4016508
v -186.3247260 -51.2356288 132.2986274
v -186.8197468 -51.1964494 132.3688147
v -187.2235438 -50.9939874 132.3378941
v -187.1212443 -51.0724517 132.2404280
v -187.5403474 -50.6468194 132.3011788
v -187.6948374 -50.2205156 132.2732412
v -187.6906740 -50.2400866 132.1653535
v -187.6933655 -49.7720901 132.2397269
v -187.6993861 -49.8061860 132.1346172
v -187.5223373 -49.3417884 132.2066172
v -187.5396543 -49.3701268 132.1029207
v -187.1282544 -48.9437277 132.1678473
v -186.6070834 -48.7762075 132.1304874
v -186.5238268 -48.7610267 132.0179699
v -185.9650309 -48.8781741 131.9729893
v -185.3705058 -49.4383720 132.0219294
v -185.5660427 -49.1636547 131.9401270
v -185.2315149 -50.0484282 131.9750652
v -185.2884380 -49.6403941 131.8993944
v -185.2463677 -50.0998358 131.8660148
v -185.3520004 -50.5137319 131.9454473
v -185.3186029 -50.4451470 131.8431679
v -185.5519689 -50.8333146 131.9181731
v -185.5335118 -50.8059043 131.8130124
v -185.9272715 -51.1144436 131.8856741
v -185.9025980 -51.1064976 131.7800064
v -186.3387032 -51.2371974 131.8544512
v -186.3581333 -51.2375719 131.7423034
v -186.8023102 -51.2016088 131.8230081
v -186.8371834 -51.1964960 131.7114522
v -187.2885827 -50.9502268 131.7810644
v -187.1960855 -51.0094964 131.6813608
v -187.6575868 -50.4058753 131.7314627
v -187.6513488 -50.4025574 131.6275857
v -187.6301021 -49.5588881 131.6738885
v -187.7135576 -49.8520581 131.5855567
v -187.4071007 -49.1880082 131.6436276
v -187.5151362 -49.3305690 131.5475469
v -187.0313908 -48.8984813 131.6103094
v -187.1672930 -48.9749009 131.5123418
v -186.5527389 -48.7677764 131.5729668
v -186.7586351 -48.8014394 131.4785679
v -186.1414443 -48.8173511 131.5454833
v -186.3085998 -48.7788958 131.4487863
v -185.8804697 -48.9226990 131.4165007
v -185.7950582 -48.9742560 131.5178327
v -185.4435526 -49.3185665 131.4857541
v -185.5517935 -49.1825814 131.3880854
v -185.2728133 -49.7228671 131.4518479
v -185.3134543 -49.5809901 131.3538289
v -185.2486894 -50.1852681 131.4183097
v -185.2376189 -50.1105638 131.3157105
v -185.4037469 -50.6215254 131.3860251
v -185.7053430 -50.9760066 131.3548584
v -186.0321344 -51.1588266 131.3264259
v -186.3979929 -51.2408874 131.3014954
v -187.0630270 -51.1005648 131.1449556
v -187.2485931 -50.9723128 131.2367166
v -187.5009326 -50.7144827 131.1025024
v -187.6982541 -50.2091415 131.0634561
v -187.6910114 -49.7604815 131.0313065
v -187.5562307 -49.4055368 131.1128315
v -187.3122128 -49.0914010 131.0835313
v -187.4816309 -49.2734995 130.9932190
v -186.9755099 -48.8761427 131.0558890
v -186.6276661 -48.7786043 131.0296440
v -186.0891154 -48.8219009 130.9890585
v -186.0633737 -48.8305006 130.8820125
v -185.6640139 -49.0762057 130.9553206
v -185.4110549 -49.3783677 130.9300649
v -185.5643105 -49.1652935 130.8390075
v -185.2821729 -49.6921811 130.9045608
v -185.3121651 -49.5845555 130.8042499
v -185.2447848 -50.1764688 130.8716658
v -185.2374642 -50.0703999 130.7687256
v -185.4032089 -50.6206276 130.8359088
v -185.3522524 -50.5176543 130.7358088
v -185.6246420 -50.8989045 130.8119402
v -185.5798540 -50.8638812 130.7078627
v -186.3941383 -51.2405070 130.6411588
v -186.7202529 -51.2164904 130.7280974
v -187.1481106 -51.0537757 130.6950176
v -186.8048260 -51.1992685 130.6140645
v -187.2107797 -51.0042661 130.5812387
v -187.5108621 -50.6862498 130.5512351
v -187.7156359 -50.1430149 130.6154191
v -187.7032792 -50.2106330 130.5153923
v -187.6507354 -49.6161975 130.5785275
v -187.6800327 -49.7254941 130.4780158
v -187.4449793 -49.2332107 130.5475678
v -187.5334340 -49.3597529 130.4513925
v -187.0082492 -48.8788192 130.5067638
v -187.1786268 -48.9796816 130.4155016
v -186.5235744 -48.7721839 130.4726273
v -186.7437875 -48.8001527 130.3800571
v -186.1307860 -48.8184906 130.4459404
v -185.7400633 -49.0073625 130.4134042
v -185.7875257 -48.9713311 130.3120702
v -185.4085545 -49.3791109 130.3777211
v -185.4214159 -49.3581788 130.2726069
v -185.2678483 -49.7528897 130.3500940
v -185.2487777 -50.1856613 130.3187848
v -185.2567413 -49.7926154 130.2402090
v -185.2574718 -50.2128805 130.2106173
v -185.4044806 -50.6228810 130.2864402
v -185.3754998 -50.5656922 130.1832094
v -186.1849625 -51.2180531 130.2121264
v -186.0954905 -51.1874105 130.1135664
v -186.5947930 -51.2394205 130.0788104
v -187.0418467 -51.1083503 130.0455575
v -187.4180597 -50.8101144 130.1190126
v -187.4173377 -50.8150977 130.0116737
v -187.6434534 -50.4224188 130.0877611
v -187.7155610 -49.9828747 130.0551986
v -187.6830332 -50.3182652 129.9704827
v -187.6179462 -49.5238150 130.0221793
v -187.4063390 -49.1930469 129.9937214
v -187.0461900 -48.9006082 129.9615638
v -186.5728911 -48.7733234 129.9279357
v -186.7698027 -48.8059733 129.8310546
v -186.1360258 -48.8153387 129.8967997
v -186.3230960 -48.7750312 129.8018785
v -185.7161717 -49.0285731 129.8630752
v -185.7933446 -48.9678618 129.7612864
v -185.4229220 -49.3554292 129.7233720
v -185.2500239 -49.8485993 129.7942983
v -185.2570871 -49.7904905 129.6895812
v -185.3485840 -50.5179000 129.7443726
v -185.2569292 -50.2098075 129.6613866
v -185.4008761 -50.6202603 129.6284587
v -185.6715069 -50.9538589 129.7102946
v -186.1028164 -51.1852818 129.6708387
v -186.5792787 -51.2432863 129.6394845
v -186.5769899 -51.2458587 129.5285186
v -187.0187450 -51.1165768 129.4974631
v -187.5480379 -50.6262395 129.5538949
v -187.3456881 -50.8875391 129.4687570
v -187.6925957 -50.2445529 129.5237509
v -187.6309170 -50.4688014 129.4351009
v -187.7014451 -49.8432631 129.4957044
v -187.7147353 -49.9580783 129.3964625
v -187.5891213 -49.4606071 129.4672537
v -187.6173676 -49.5278889 129.3634017
v -187.2751475 -49.0525422 129.4325305
v -187.3419745 -49.1130990 129.3311706
v -186.8228126 -48.8187175 129.3943486
v -186.9329390 -48.8582084 129.2937017
v -186.4718392 -48.7722684 129.3704317
v -186.5290868 -48.7664885 129.2670767
v -185.2337441 -49.9702154 129.2371114
v -185.2399637 -50.0147261 129.1228329
v -185.3367597 -50.4911329 129.1979799
v -185.3377876 -50.5053529 129.0882555
v -185.5594853 -50.8360711 129.1674406
v -185.9367071 -51.1216815 129.1361068
v -186.2866116 -51.2269739 129.1085952
v -186.0885392 -51.1806975 129.0158715
v -186.7146978 -51.2238709 129.0774483
v -186.5606054 -51.2444311 128.9785252
v -187.1871861 -51.0230996 129.0464817
v -187.0415749 -51.1090392 128.9464336
v -187.5488023 -50.6327028 129.0035537
v -187.5702603 -50.5908374 128.8933185
v -187.7027946 -50.1806305 128.9694609
v -187.6995583 -50.1871207 128.8608451
v -187.6755830 -49.6856939 128.9333386
v -187.6853363 -49.7247317 128.8311905
v -187.4929065 -49.3036941 128.9041059
v -187.2021900 -49.0034111 128.8765347
v -186.8589419 -48.8278345 128.8465591
v -187.1214280 -48.9460056 128.7621837
v -186.4748222 -48.7722222 128.8203937
v -186.6454992 -48.7792289 128.7258554
v -185.5700327 -49.1622528 128.7473784
v -185.8356390 -48.9378121 128.6678003
v -185.3121912 -49.5833883 128.7145488
v -185.3972144 -49.3895584 128.6222444
v -185.2380328 -50.0142545 128.6814002
v -185.2422570 -49.9043136 128.5808791
v -185.2995011 -50.3755865 128.6561878
v -185.2854202 -50.3462232 128.5490339
v -185.4533767 -50.6980887 128.5206779
v -185.7206963 -50.9851406 128.4950590
v -186.1001754 -51.1862285 128.4661789
v -186.6654217 -51.2345936 128.5293849
v -186.6296516 -51.2400025 128.4281222
v -187.2231301 -51.0008677 128.4897795
v -187.1479110 -51.0515186 128.3849061
v -187.5501724 -50.6261045 128.4523599
v -187.5256430 -50.6700825 128.3460271
v -187.7056525 -50.1629496 128.4182291
v -187.6990381 -50.2074059 128.3155182
v -187.6819988 -49.7188198 128.3864391
v -187.6870349 -49.7418278 128.2809790
v -187.4713589 -49.2638017 128.3515220
v -187.5039032 -49.3137525 128.2485898
v -187.1327744 -48.9595065 128.3175796
v -187.2106842 -49.0107719 128.2186012
v -186.8221829 -48.8184978 128.2948297
v -186.8815979 -48.8391939 128.1916193
v -186.2893559 -48.7741538 128.2533295
v -186.4597188 -48.7653717 128.1592310
v -185.8244712 -48.9573943 128.2211358
v -185.9314413 -48.8914999 128.1218266
v -185.5162628 -49.2241521 128.1921441
v -185.5417002 -49.1942652 128.0883305
v -185.2952010 -49.6346324 128.1595010
v -185.3060043 -49.6018717 128.0545365
v -185.2407370 -50.0873431 128.1258412
v -185.2393441 -50.0608713 128.0207147
v -185.3533025 -50.5282619 128.0956332
v -185.3458794 -50.5116739 127.9883728
v -185.6834320 -50.9638827 128.0589870
v -186.1165707 -51.1892241 128.0184830
v -186.4954459 -51.2414382 127.9921913
v -186.3523321 -51.2411240 127.8928917
v -186.8851421 -51.1760360 127.9658026
v -187.3417627 -50.8996655 127.9284298
v -187.2931226 -50.9419322 127.8247547
v -187.6523814 -50.4057554 127.8847263
v -187.6019983 -50.5287801 127.7862917
v -187.7108265 -50.0119265 127.8583253
v -187.7099989 -50.0856093 127.7542994
v -187.6554689 -49.6171453 127.8292972
v -187.6748181 -49.6906518 127.7269795
v -187.3690431 -49.1432759 127.7917771
v -186.9619558 -48.8664067 127.7548361
v -186.5221149 -48.7698898 127.7249664
v -186.8668478 -48.8280802 127.6371257
v -186.0960727 -48.8250688 127.6918017
v -186.0037586 -48.8589919 127.5762664
v -185.6912108 -49.0509329 127.6602859
v -185.6241284 -49.1126705 127.5468464
v -185.3975723 -49.3980982 127.6291710
v -185.2723519 -49.7378322 127.6022239
v -185.2653211 -50.2474024 127.4568471
v -185.3726970 -50.5646353 127.4311252
v -185.6446235 -50.9239973 127.4014786
v -185.9754046 -51.1352816 127.3735964
v -186.4971090 -51.2512511 127.4414712
v -186.4157665 -51.2456400 127.3410531
v -187.0282548 -51.1148179 127.4045069
v -186.8745766 -51.1779506 127.3077450
v -187.4255017 -50.8072737 127.3690522
v -187.2183387 -50.9954494 127.2828433
v -187.4792246 -50.7280503 127.2546950
v -187.6467298 -50.4082105 127.3366119
v -187.6552490 -50.3883697 127.2271980
v -187.7146639 -49.9504390 127.3054752
v -187.6283587 -49.5544048 127.2747299
v -187.7114189 -49.8352479 127.1829991
v -187.4054513 -49.1861813 127.2440758
v -187.5030522 -49.3124282 127.1485208
v -186.9893990 -48.8758757 127.2083406
v -187.1746611 -48.9828227 127.1147250
v -186.5610645 -48.7722390 127.1758218
v -186.6566085 -48.7728927 127.0760810
v -186.2083443 -48.8018373 127.1515523
v -186.1597535 -48.8124095 127.0390314
v -185.7918471 -48.9740993 127.0105812
v -185.4481358 -49.3119507 126.9751366
v -185.3073516 -49.6088100 127.0605599
v -185.2961572 -49.6457927 126.9484359
v -185.2381326 -50.0243187 127.0311903
v -185.2392972 -50.0575289 126.9216320
v -185.6369704 -50.9170253 126.9607508
v -185.3655098 -50.5640630 126.8860008
v -185.6854122 -50.9569980 126.8472907
v -186.4493185 -51.2413823 126.7886133
v -187.1013705 -51.0750196 126.8500754
v -186.8537400 -51.1869382 126.7599061
v -187.3647897 -50.8636918 126.8251478
v -187.2774978 -50.9525422 126.7234388
v -187.5824038 -50.5694011 126.6927526
v -187.7155074 -49.9838552 126.7558415
v -187.6997091 -50.1817016 126.6628618
v -187.6089917 -49.5026011 126.7229070
v -187.6818193 -49.6996911 126.6304263
v -187.4043771 -49.1904320 126.6947341
v -187.1259199 -48.9533862 126.6689666
v -187.3746582 -49.1418300 126.5833942
v -186.7354676 -48.7950382 126.6373611
v -186.3748229 -48.7670124 126.5016417
v -185.7180614 -49.0270520 126.5624142
v -185.9023117 -48.9112872 126.4717252
v -185.3939987 -49.4040394 126.5284771
v -185.5580179 -49.1755846 126.4418821
v -185.2531811 -49.8136228 126.4961531
v -185.3148290 -49.5775468 126.4076344
v -185.2591253 -50.2137456 126.4684118
v -185.2376179 -50.0722884 126.3716897
v -185.7852783 -51.0342546 126.3971516
v -185.7688749 -51.0228418 126.2911558
v -186.2317121 -51.2207366 126.3632499
v -186.1808305 -51.2091318 126.2597451
v -186.7005266 -51.2260067 126.3289542
v -187.1286158 -51.0566964 126.2984168
v -186.8678735 -51.1803768 126.2061487
v -187.4608271 -50.7644808 126.2634002
v -187.2323707 -50.9857001 126.1807764
v -187.6976482 -50.2410762 126.2294937
v -187.6289283 -50.4508102 126.1324444
v -187.7133594 -50.0804988 126.1041400
v -187.6544125 -49.6218157 126.0739174
v -187.3336122 -49.1083664 126.1360896
v -186.8499282 -48.8200442 126.1016956
v -186.9721265 -48.8685682 125.9995164
v -186.3566489 -48.7752806 126.0612221
v -186.4313527 -48.7636262 125.9602294
v -186.0030389 -48.8655689 126.0362905
v -185.5810220 -49.1400796 126.0023811
v -185.5061085 -49.2293445 125.8852581
v -185.2418784 -50.0277686 125.9317705
v -185.2969894 -50.3724347 125.9071496
v -185.2544302 -50.2198084 125.8113732
v -185.4817848 -50.7477147 125.8751250
v -185.4101518 -50.6291617 125.7782760
v -185.6560408 -50.9340489 125.7516039
v -186.0975576 -51.1856932 125.8247412
v -186.0820152 -51.1828006 125.7126487
v -187.0847985 -51.0881466 125.7512218
v -186.6452383 -51.2378255 125.6731210
v -187.0845810 -51.0818346 125.6417969
v -187.4432656 -50.7805926 125.7154784
v -184.2247522 -50.1298831 136.9999467
v -184.3721669 -50.7858064 136.9999466
v -184.6248972 -51.2824112 136.9999466
v -184.3534460 -49.2457510 136.9999466
v -184.7125619 -48.6156474 136.9999466
v -184.8922648 -51.5909645 136.9999466
v -185.2664797 -51.9097601 136.9999471
v -185.2430266 -48.1182080 136.9999466
v -186.1019936 -52.2305771 136.9999466
v -186.0724748 -47.7873485 136.9999467
v -186.9951484 -52.2015696 136.9999466
v -186.9659226 -47.8044078 136.9999467
v -187.7587096 -51.8580994 136.9999467
v -187.8301282 -48.1968933 136.9999465
v -188.3493882 -51.2638987 136.9999466
v -188.7046285 -50.3840123 136.9999467
v -188.4509236 -48.9150876 136.9999467
v -188.6865406 -49.6007816 136.9999466
v -184.8922648 -51.5909645 138.8259499
v -184.7311302 -51.4124441 138.8879725
v -184.4765316 -51.0202285 138.9041374
v -184.2489215 -50.2662107 138.8671944
v -184.5264691 -48.9035745 138.9083127
v -187.5149218 -48.0269968 138.9411305
v -187.9249852 -48.2952320 138.8879492
v -188.2329952 -48.6121377 138.8819555
v -188.4720184 -48.9924136 138.9199011
v -188.6357714 -49.4030891 138.8884926
v -188.6874551 -49.6868154 138.9335524
v -188.7143827 -50.1263821 138.9163727
v -188.6078416 -50.7182887 138.8807217
v -188.3288234 -51.2707969 138.9035343
v -187.5847211 -51.9588047 138.8678759
v -187.1433919 -52.1462882 138.8915882
v -186.7644991 -52.2244600 138.9110695
v -186.3863910 -52.2439044 138.9211036
v -184.9104564 -51.6070353 138.8602839
v -184.8254436 -51.4613378 139.0231678
v -184.8309258 -51.3011737 139.1520759
v -185.1026292 -51.4615271 139.2073406
v -184.5406076 -50.9664193 139.0849368
v -184.6876086 -50.9159338 139.2034522
v -185.0186347 -51.2223671 139.2384523
v -184.3337137 -50.6424142 138.9197536
v -184.3250089 -50.4887665 139.0119549
v -184.6266778 -50.5368646 139.2351675
v -184.2424826 -50.0338624 138.9331662
v -184.4268315 -50.3788505 139.1647186
v -184.2699960 -49.6098480 138.8813613
v -184.3399213 -50.1323759 139.1083271
v -184.5643490 -49.8993052 139.2371059
v -184.3143429 -49.6203255 139.0304067
v -184.4805082 -49.6385362 139.1967880
v -184.3830032 -49.2162178 138.9115806
v -184.4691377 -49.3432470 139.1287554
v -184.5048218 -49.0489840 139.0352114
v -184.6521352 -49.1577280 139.2023599
v -184.7659588 -48.6616902 139.0575876
v -184.7033320 -48.9264268 139.1654581
v -184.7952565 -48.5246510 138.8937117
v -184.9077501 -48.9315664 139.2374543
v -184.9331107 -48.4215234 138.9926471
v -185.0908753 -48.2466917 138.8884608
v -184.9542921 -48.5138449 139.1195611
v -185.3066206 -48.1631829 139.0512628
v -185.1803250 -48.4484525 139.1983334
v -185.4548769 -48.0090381 138.8845013
v -185.5567411 -48.1744636 139.1803344
v -185.7024045 -47.9599660 139.0441755
v -185.9337179 -47.8326393 138.9130402
v -185.5556738 -48.3466507 139.2394460
v -185.9068877 -48.0957911 139.2100456
v -186.3522070 -47.7749668 138.9411579
v -186.0708353 -47.9091049 139.1126057
v -186.5549056 -47.8546261 139.0905409
v -186.8101804 -47.7900034 138.8927665
v -186.4252902 -47.9986406 139.2063365
v -186.5998633 -48.1145748 139.2386471
v -186.8628103 -47.9423808 139.1427561
v -186.9579424 -47.8599269 139.0227305
v -187.2516062 -47.9024131 138.8835075
v -187.0650485 -48.0627840 139.1954856
v -187.3065314 -48.0470553 139.1191675
v -187.7384908 -48.2258503 139.0561265
v -187.6016270 -48.3034705 139.1853944
v -187.4184656 -48.3538184 139.2379367
v -188.1034789 -48.5115366 138.9950299
v -188.0374110 -48.5706523 139.1293418
v -188.2986819 -48.8055536 139.0514112
v -188.3408977 -49.1579548 139.1870685
v -187.9425820 -48.6894361 139.2208131
v -188.5401044 -49.2634241 139.0320761
v -188.0330929 -48.9055980 139.2385239
v -188.5265166 -49.5274174 139.1452370
v -188.6783467 -49.8719842 139.0126080
v -188.3741537 -49.7293426 139.2360674
v -188.5898114 -50.1540819 139.1290761
v -188.4918971 -50.0641152 139.1990174
v -188.6140518 -50.4947706 139.0369618
v -188.3445973 -50.4215236 139.2365171
v -188.4717419 -50.9475343 139.0062358
v -188.4426505 -50.6335752 139.1735548
v -188.4037384 -50.9129685 139.1159738
v -188.1052374 -51.0346663 139.2345879
v -188.2642344 -51.2817804 139.0274160
v -188.2227863 -51.1451213 139.1570951
v -187.9398796 -51.6535448 139.0151205
v -187.9624277 -51.6837524 138.9107850
v -187.7676597 -51.5356372 139.2106049
v -187.8758136 -51.6056656 139.1263930
v -187.5004830 -51.9583264 139.0131066
v -187.4348523 -51.8813787 139.1405298
v -187.1708604 -52.0832947 139.0351953
v -187.0831232 -51.8903283 139.2176357
v -187.5898742 -51.5327088 139.2394104
v -186.9341327 -52.0628095 139.1387589
v -186.7619051 -52.1862922 139.0240724
v -186.6937194 -51.9054052 139.2365418
v -186.3546949 -52.1413814 139.1114792
v -186.4490351 -52.0118696 139.2050595
v -185.9878865 -52.1301770 139.0567829
v -185.8831212 -52.1704180 138.8784638
v -185.6474217 -52.0449997 139.0144859
v -185.4334396 -51.9803894 138.9500645
v -185.8961930 -51.8370159 139.2358128
v -185.8406485 -51.9777249 139.1706518
v -185.2797313 -51.7613187 139.1269871
v -185.0867650 -51.7631207 138.9091664
v -185.5620716 -51.6901705 139.2361593
v -185.2871452 -50.3251330 139.2410000
v -185.6059083 -49.1354155 139.2410000
v -186.1580844 -51.1961017 139.2410000
v -186.7956788 -48.8165983 139.2410000
v -187.3478549 -50.8772845 139.2410000
v -187.6666864 -49.6875670 139.2410000
v -185.2871452 -50.3251330 137.8113588
v -185.6059083 -49.1354155 137.8113588
v -186.1580844 -51.1961017 137.8113588
v -187.3478549 -50.8772845 137.8113588
v -187.6666864 -49.6875670 137.8113588
v -186.7956788 -48.8165983 137.8113588
v -187.4436601 -50.7885188 125.6092118
v -187.7084585 -50.1201793 125.6662246
v -187.6641070 -50.3516214 125.5747334
v -187.6745468 -49.6899458 125.6374680
v -187.7147954 -49.9314509 125.5417480
v -187.5241111 -49.3540943 125.6090087
v -187.5937028 -49.4702896 125.5114912
v -186.7571368 -48.7949280 125.5416830
v -187.0771335 -48.9202279 125.4583854
v -186.6597896 -48.7846351 125.4248603
v -186.2744107 -48.7860845 125.5066155
v -185.8565292 -48.9340205 125.4776675
v -185.5766557 -49.1627457 125.4484689
v -185.7537365 -49.0029839 125.3587488
v -185.3630891 -49.4636658 125.4247078
v -185.4234553 -49.3502144 125.3298065
v -185.2613472 -49.7811360 125.3311420
v -185.2486190 -50.1415681 125.3300556
v -185.3338085 -50.4934085 125.3424486
v -185.7905486 -49.3203283 136.1198093
v -186.2811983 -50.9572387 135.9298134
v -187.4310798 -50.2116276 135.7952875
v -187.4185530 -49.7364305 135.7512109
v -185.6279804 -49.5255937 135.5463702
v -185.8738742 -50.7752521 135.4217043
v -186.5457767 -50.9818462 135.3581962
v -187.3872733 -49.6331687 135.1925311
v -186.8285831 -49.0885894 135.1213823
v -185.6673392 -50.5614009 134.8992001
v -187.2371650 -50.6160386 134.7363500
v -187.4033184 -49.6937040 134.6469296
v -185.5857881 -49.6021631 136.0905084
v -185.5845485 -50.4183185 136.0136780
v -185.9471161 -50.8295322 135.9658912
v -186.0367098 -51.1670352 136.1675871
v -186.7063533 -50.9588701 135.8923125
v -187.2318299 -50.6351851 135.8397774
v -187.1392553 -49.2753015 135.7044806
v -186.6234068 -49.0415773 135.6524653
v -186.2251629 -49.0651230 135.6155578
v -185.7441561 -49.0071030 135.8056681
v -185.8897329 -49.2272553 135.5826790
v -185.4445632 -49.3250614 135.7720548
v -185.2691450 -49.7310945 135.7417901
v -185.2523358 -50.1931211 135.7096005
v -185.4933235 -50.0185459 135.5002658
v -185.6200066 -50.4681805 135.4583124
v -186.2237296 -50.9436154 135.3864800
v -187.0196615 -50.8224057 135.3127803
v -187.3658928 -50.4125215 135.2632028
v -187.4482071 -50.0474379 135.2302737
v -187.1542701 -49.3129712 135.1568413
v -186.9483663 -48.8648005 135.3452752
v -186.2634868 -49.0513952 135.0706396
v -185.8093121 -49.2867825 135.0203942
v -185.5568764 -49.6876288 134.9805862
v -185.5047405 -50.1031900 134.9429604
v -185.9273280 -50.8051435 134.8664821
v -186.5298977 -51.2440275 135.0311007
v -186.2859896 -50.9722245 134.8343991
v -186.9986773 -51.1320956 134.9989316
v -186.8590200 -50.9077731 134.7790136
v -187.6115080 -50.5166155 134.9369176
v -187.7128353 -50.0323525 134.8988173
v -187.4360159 -50.1977369 134.6928971
v -187.6505530 -49.6099662 134.8694490
v -187.1848598 -49.3374405 134.6094307
v -186.4450842 -48.7714156 134.7581402
v -186.8426371 -49.0937454 134.5732588
v -186.2776053 -49.0479810 134.5205819
v -185.8806879 -49.2365601 134.4803343
v -185.6530097 -49.4872016 134.4511704
v -185.5013481 -49.8865137 134.4130026
v -185.5434523 -50.2659506 134.3787191
v -185.6990396 -50.6078755 134.3441976
v -186.0773903 -50.8935454 134.3013887
v -186.4534379 -51.2498572 134.4850565
v -186.4778409 -50.9873660 134.2625737
v -186.9014108 -50.8819625 134.2239032
v -187.2601040 -50.5977548 134.1806039
v -187.4525465 -50.0817211 134.1334412
v -186.9939844 -49.1727984 134.0377609
v -185.8760536 -50.7724308 133.7727766
v -187.4575593 -50.0867235 133.5840060
v -186.5634627 -49.0357844 133.4470773
v -185.5186489 -50.1759540 133.2865291
v -186.6747599 -49.0448704 132.9075658
v -186.2410500 -49.0593813 132.8681331
v -185.5037362 -50.0985732 132.7417114
v -187.0358307 -49.1954287 132.3899575
v -186.5567529 -49.0330247 132.3460404
v -186.0095869 -49.1427388 132.2988081
v -185.5923576 -50.4257897 132.1626131
v -185.9625526 -50.8414405 132.1109795
v -187.5715350 -49.4154922 134.3052204
v -187.3730240 -49.6036872 134.0907492
v -187.2395741 -49.0326059 134.2672431
v -186.4742875 -49.0232758 133.9893179
v -186.0606574 -49.1274979 133.9504759
v -185.7080795 -49.3927555 133.9112167
v -185.5196090 -49.8181660 133.8680258
v -185.5238854 -50.2066020 133.8336640
v -185.6489467 -50.5226396 133.8029582
v -186.2072578 -50.9436724 133.7398347
v -186.6978761 -50.9604753 133.6935614
v -187.0438301 -50.7976453 133.6602636
v -187.3023978 -50.5252442 133.6266947
v -187.7014623 -50.1552643 133.8091961
v -187.6965837 -49.7774634 133.7833667
v -187.3242518 -49.5189179 133.5315550
v -186.6955629 -48.7908686 133.6776391
v -187.0118562 -49.1805380 133.4914010
v -186.3321014 -48.7779546 133.6507464
v -186.1233656 -49.0903599 133.4079600
v -185.6961402 -49.4059190 133.3595485
v -185.5159359 -49.8375325 133.3170734
v -185.6372069 -50.5032775 133.2552139
v -185.8948810 -50.7908959 133.2198387
v -186.3506044 -50.9755756 133.1750694
v -186.8907741 -51.1686688 133.3562346
v -187.2124228 -50.6462315 133.0895504
v -186.8604734 -50.9114639 133.1297422
v -187.4032863 -50.3065141 133.0544024
v -187.4482364 -49.9368039 133.0208024
v -187.3604170 -49.5971692 132.9890194
v -187.1094577 -49.2618354 132.9512803
v -185.5797411 -49.1520522 133.0393731
v -185.8762399 -49.2359724 132.8327001
v -185.5725160 -49.6325177 132.7875837
v -185.2436739 -50.0776716 132.9694604
v -185.6528097 -50.5297215 132.7034394
v -186.2973034 -50.9700811 132.6292906
v -186.7249369 -50.9487132 132.5927928
v -187.1349061 -50.7377239 132.5504218
v -187.4258970 -50.2612557 132.4996528
v -187.6381038 -49.5806210 132.6676737
v -187.4592071 -49.2577302 132.6422768
v -187.4098599 -49.6949984 132.4491881
v -187.1827986 -48.9884800 132.6150012
v -186.7846985 -48.8084934 132.5827914
v -186.3522912 -48.7738435 132.5524504
v -185.5744726 -49.1509665 132.4924579
v -185.6074620 -49.5499504 132.2454986
v -185.5030050 -50.0124930 132.2025501
v -187.6423753 -49.5871662 133.8747297
v -187.4158884 -49.2015062 133.8437555
v -187.0590519 -48.9105524 133.8097128
v -186.5883355 -48.7726962 133.7758276
v -186.0363421 -48.8403526 133.7373686
v -185.9894615 -51.1413239 133.5274467
v -187.0854387 -48.9274050 133.2626530
v -186.6438127 -48.7789591 133.2302408
v -186.1819966 -48.8031180 133.1982334
v -185.7621450 -48.9946982 133.1641218
v -185.4962414 -49.2581212 133.1367277
v -187.4425757 -49.2306668 132.7444291
v -187.1660871 -48.9830806 132.7209231
v -186.1792845 -48.8039667 132.6469654
v -185.7582175 -48.9975395 132.6133259
v -185.5011898 -49.2513383 132.5885390
v -185.8881905 -50.7809471 132.6713796
v -186.1792248 -48.8039062 132.0968926
v -185.7413506 -49.0070737 132.0615117
v -185.2998481 -49.6047530 135.8607509
v -185.5047991 -49.9672146 136.0544087
v -187.7008511 -49.7858119 135.5386420
v -187.2876459 -49.0670253 135.4786950
v -185.9539718 -51.1347417 135.1817479
v -187.2032586 -51.0090757 135.0884137
v -187.4986780 -50.7030535 135.0582859
v -186.6444399 -48.7788449 134.8803831
v -185.2743457 -49.7079517 134.7528923
v -185.2986657 -50.3819389 134.7042949
v -185.5541547 -50.8440711 134.6638577
v -186.8777699 -48.8364104 134.3472063
v -186.4491641 -48.7680453 134.3157547
v -185.4498324 -50.6900259 134.1296570
v -187.6516345 -50.3830855 133.9327747
v -185.8037117 -49.2941663 131.7210889
v -187.3589777 -50.4331356 131.4169457
v -186.1756741 -49.0805654 131.2129824
v -187.1959350 -50.6629047 130.8928680
v -187.4485091 -49.9662651 130.8232542
v -187.1129040 -49.2676900 130.7524921
v -187.4289471 -50.2483649 130.2998368
v -187.1665276 -49.3206449 130.2085473
v -186.8537171 -49.1060150 130.1765527
v -186.4881774 -49.0338294 130.1415819
v -186.3934370 -50.9775905 132.0711214
v -186.7550121 -50.9411079 132.0385349
v -187.0859841 -50.7668668 132.0053580
v -187.3237983 -50.4900796 131.9725530
v -187.4466449 -50.0918521 131.9350508
v -187.7073527 -49.8979939 131.6979057
v -187.3787199 -49.6158224 131.8888789
v -187.0234766 -49.1919366 131.8426384
v -186.6500767 -49.0498092 131.8056181
v -186.2334467 -49.0586539 131.7673830
v -185.5509942 -49.6978569 131.6804387
v -185.5043827 -50.0083423 131.6529561
v -185.5779474 -50.3839243 131.6167862
v -185.7804330 -50.6886484 131.5844261
v -186.0772770 -50.8913869 131.5518626
v -186.8425733 -51.1917833 131.2664347
v -187.0613800 -50.7869675 131.4574982
v -187.5256341 -50.6663322 131.2044887
v -187.4523812 -49.9078678 131.3714620
v -187.6938611 -50.2354740 131.1725192
v -187.6939728 -49.7757103 131.1384829
v -187.3033689 -49.4880610 131.3276029
v -186.9966994 -49.1756539 131.2892911
v -186.6219110 -49.0375777 131.2549510
v -185.7817240 -49.3101180 131.1679148
v -185.5170397 -49.8195057 131.1183889
v -185.5409701 -50.3034786 131.0788606
v -185.7972769 -50.7056003 131.0327753
v -186.1249948 -50.9142991 130.9974032
v -185.9116428 -51.1084795 130.7850936
v -186.3539880 -51.2388013 130.7513684
v -186.5593623 -50.9794417 130.9572183
v -186.9375138 -50.8656878 130.9219383
v -187.3962428 -50.3318533 130.8559025
v -187.5225563 -50.6707682 130.6554460
v -187.3884957 -49.6526071 130.7942283
v -186.7395412 -49.0680438 130.7128278
v -186.3715031 -49.0376775 130.6795830
v -185.6494562 -49.4922168 130.6010817
v -185.4978669 -49.9379044 130.5567346
v -185.5760840 -50.3766818 130.5193926
v -185.7881438 -50.6973821 130.4834686
v -186.1373970 -50.9189799 130.4464490
v -185.7092617 -50.9793617 130.2551608
v -186.4810866 -50.9801088 130.4149439
v -186.8889662 -50.8920860 130.3772492
v -186.8146584 -51.2033168 130.1667389
v -187.1643428 -51.0303755 130.1429873
v -187.2175730 -50.6401266 130.3396759
v -187.3634043 -49.6015408 130.2391489
v -185.5195881 -50.2035324 129.9847516
v -187.1469605 -50.7143759 129.7991901
v -187.3831978 -50.3721784 129.7615355
v -187.2306068 -49.3788253 129.6667255
v -186.0272700 -49.1430855 129.5486037
v -187.4441278 -50.1078055 128.6384004
v -187.2631956 -49.4300413 128.5717554
v -186.9327454 -49.1349306 128.5337930
v -186.5572178 -50.9876680 128.2086567
v -186.1914609 -49.0734617 130.1131057
v -185.8016100 -49.2936810 130.0738436
v -185.3994143 -49.3910013 129.8258721
v -185.5366054 -49.7409332 130.0244726
v -185.2540143 -50.1692594 129.7699996
v -185.9093684 -50.7991596 129.9188561
v -186.7436414 -50.9498749 129.8411206
v -187.0468514 -51.1046690 129.6019511
v -187.3392361 -50.8890669 129.5758785
v -187.4253393 -49.7777520 129.7061795
v -186.8624966 -49.1107937 129.6251533
v -186.4476798 -49.0265736 129.5895849
v -186.1148936 -48.8215644 129.3445027
v -185.7098043 -49.0338656 129.3102469
v -185.6785581 -49.4335505 129.5064072
v -185.3893375 -49.4084653 129.2753956
v -185.4922917 -49.9619812 129.4570376
v -185.6464383 -50.5192508 129.4062215
v -185.9422572 -50.8234417 129.3657916
v -186.3939940 -50.9782533 129.3227634
v -186.8598948 -50.9129065 129.2806377
v -187.4101535 -50.2779374 129.2025787
v -187.4534184 -49.9534090 129.1718116
v -187.3029825 -49.4838620 129.1284536
v -186.4807139 -49.0312133 129.0412162
v -185.9525739 -49.1689899 128.9912195
v -186.1231011 -48.8193420 128.7938022
v -185.8094333 -48.9697369 128.7695838
v -185.6181227 -49.5417306 128.9453766
v -185.5013980 -50.0306938 128.9006078
v -185.5886156 -50.4101886 128.8668621
v -185.4409020 -50.6817329 128.6313961
v -185.7381168 -51.0005239 128.5999667
v -185.8599961 -50.7684635 128.8253845
v -186.1878224 -50.9338036 128.7922922
v -186.1535418 -51.2019921 128.5660987
v -186.9757550 -50.8478428 128.7178786
v -187.3292025 -50.4851775 128.6714395
v -187.4266722 -49.7841025 128.6068294
v -186.4936736 -49.0308860 128.4919527
v -186.1202237 -49.1022859 128.4577439
v -185.8450989 -49.2616829 128.4278815
v -185.5959859 -49.5935278 128.3914487
v -185.5067901 -49.9065482 128.3624294
v -185.6023200 -50.4567042 128.3088207
v -185.9703076 -50.8433767 128.2640929
v -187.0729344 -50.7824773 128.1574430
v -187.4398481 -49.8356789 128.0608266
v -186.3603871 -49.0378175 127.9312595
v -185.7641430 -50.6885532 127.7362533
v -187.4187171 -50.2541298 127.5506984
v -186.0024592 -50.8608537 127.1608686
v -186.4357191 -50.9797036 127.1207694
v -185.5665046 -49.6382246 126.7365178
v -185.7542224 -50.6653600 126.6416317
v -187.1430925 -50.7180812 126.5007981
v -185.8226643 -49.2858444 126.2254843
v -187.4087934 -50.2934934 128.1031503
v -187.2658131 -49.4322161 128.0225330
v -186.8793616 -49.1109384 127.9789126
v -185.5670909 -49.6300810 127.8364769
v -185.8284293 -49.2807500 127.8762697
v -185.2406909 -50.0850617 127.5759095
v -185.5154936 -50.1972727 127.7859354
v -185.3552903 -50.5320054 127.5432785
v -185.6107014 -50.8890454 127.5135692
v -185.9711574 -51.1370775 127.4802230
v -186.3398697 -50.9788858 127.6801987
v -186.8192176 -50.9192213 127.6336143
v -187.1858286 -50.6837919 127.5968364
v -187.4416293 -49.8313356 127.5129529
v -187.2753516 -49.4458223 127.4740498
v -186.9271739 -49.1328965 127.4322535
v -186.4724514 -49.0308011 127.3885605
v -185.8741361 -48.9242436 127.1247962
v -185.4986606 -49.2428177 127.0888768
v -185.5791123 -49.6073464 127.2901601
v -185.5018833 -50.0826862 127.2453891
v -185.3416819 -50.5075561 126.9937070
v -185.6715639 -50.5604295 127.1993736
v -186.0160870 -51.1561383 126.9283908
v -186.5580876 -51.2489269 126.8886011
v -186.8147215 -50.9226982 127.0839917
v -187.1760705 -50.6844154 127.0458627
v -187.3711361 -50.3915877 127.0141329
v -187.5666237 -50.5907612 126.8012621
v -187.4513553 -49.9471328 126.9730762
v -187.6770189 -50.2887436 126.7777885
v -187.3222391 -49.5065410 126.9320348
v -186.9344937 -49.1330878 126.8829273
v -186.2947034 -48.7832010 126.6075484
v -185.9756150 -48.8796901 126.5829348
v -185.5102993 -50.1856818 126.6878397
v -185.4277893 -50.6743112 126.4341322
v -186.1116359 -50.9109950 126.5985948
v -186.4160687 -50.9755319 126.5721756
v -187.3672404 -50.3979478 126.4648567
v -187.4488006 -50.0916195 126.4357940
v -187.3976575 -49.6922591 126.3998671
v -187.6795253 -49.7098762 126.1850343
v -187.2441742 -49.4046633 126.3708908
v -187.5414555 -49.3846097 126.1618622
v -186.7940848 -49.0752887 126.3171121
v -186.3848804 -49.0419765 126.2828930
v -186.1118384 -49.1044800 126.2564185
v -185.2935860 -49.6355393 125.9578331
v -185.5725753 -49.6276680 126.1886760
v -185.5038707 -49.9066509 125.6132628
v -185.2377364 -49.9384033 125.3858205
v -185.5421533 -50.2796816 125.5786194
v -185.7938921 -50.7134064 125.5335416
v -185.6019926 -50.8711559 125.3224806
v -186.2650052 -50.9601016 125.4843224
v -185.9936828 -51.1157523 125.3032117
v -186.6421893 -50.9641867 125.4521345
v -187.5063132 -50.4772243 125.2301247
v -187.4230515 -50.2434300 125.3495847
v -187.5469365 -50.3592578 125.2249094
v -187.5996206 -50.0782066 125.2119099
v -187.5268300 -50.4227887 125.2277343
v -187.1574133 -49.2922697 125.2585083
v -187.2182617 -49.2165690 125.1711009
v -186.6989141 -49.0577537 125.2130948
v -186.2606494 -49.0497729 125.1717517
v -185.7890056 -49.3032715 125.1237150
v -185.9856194 -49.1112928 125.1113577
v -185.6945180 -49.3863252 125.0919508
v -185.5535220 -49.7105448 125.0810543
v -185.5429900 -49.7457638 125.0777947
v -185.5338258 -49.7813247 125.0745352
v -185.5287650 -49.7887788 125.0710583
v -185.5081246 -50.1598053 126.1367004
v -185.7196906 -50.6342777 126.0932929
v -185.7804456 -51.0249208 125.8480044
v -186.1811968 -50.9382454 126.0406120
v -186.5350232 -50.9775757 126.0108929
v -186.5744915 -51.2423821 125.7869711
v -187.2558774 -50.6066648 125.9361470
v -187.6294872 -50.4476308 125.6891038
v -187.4582503 -50.0501957 125.8836996
v -187.3852167 -49.6558347 125.8463185
v -187.1077866 -49.2512553 125.8021851
v -187.2735369 -49.0549743 125.5794360
v -186.7076156 -49.0614930 125.7621998
v -186.3241079 -49.0435555 125.7273125
v -185.9493013 -49.1838131 125.6902420
v -185.6270152 -49.5296309 125.6482942
v -185.6969777 -49.5186595 124.9999262
v -186.1561510 -49.1496888 124.9999292
v -186.9016602 -50.8099036 124.9999761
v -187.1743539 -50.9291570 125.2533609
v -186.9233670 -51.0918262 125.2669822
v -186.5438404 -50.9102588 124.9999739
v -186.4493911 -51.2043951 125.2863120
v -186.1555692 -50.8559005 124.9999667
v -185.8862189 -50.6930723 124.9999934
v -185.6725229 -50.4219102 124.9999871
v -185.5702387 -50.0763529 124.9998870
v -185.5193341 -49.8516739 125.0678845
v -185.5399043 -49.7208060 125.0788405
v -186.3964281 -48.9699590 125.1314684
v -186.7390062 -49.1256051 124.9998526
v -186.7919112 -48.9970310 125.1498947
v -187.1555926 -49.4057402 124.9999790
v -187.4977963 -49.5995044 125.1921770
v -187.3687556 -49.8085415 124.9998759
v -187.3512093 -50.2498640 124.9999744
v -187.2023530 -50.5518504 124.9999475
v -187.3969772 -50.6931224 125.2399355
v -186.5345474 -51.2388220 126.2325457
v -186.8428436 -50.9087243 125.9826948
v -187.4780234 -50.7288275 126.1549261
v -187.4079639 -49.1860432 126.0336320
v -185.9113822 -48.9043596 125.9221030
v -185.2680386 -49.7348161 125.8443788
v -187.0235403 -50.8193344 125.4151145
v -187.2913657 -50.5361225 125.3794146
v -187.4336176 -49.7988051 125.3119016
v -187.3881502 -49.1745346 125.4843980
v -186.2084833 -48.7921753 125.3920649
v -185.4022425 -50.6320893 126.3288308
v -187.2859856 -50.5408975 128.1292168
v -186.0704416 -49.1250570 127.9015272
v -185.5559095 -50.8274065 127.9610229
v -185.8413443 -51.0722311 127.9367738
v -186.8502535 -51.1874776 127.8615463
v -187.5242041 -49.3541343 127.7007593
v -187.2954166 -49.0765189 127.6757230
v -186.3999965 -48.7734847 127.6084479
v -185.9725813 -49.1651006 127.3456742
v -185.3834663 -49.4240489 127.5175483
v -185.2464507 -49.8641504 127.4856122
v -186.3874518 -49.0322523 126.8351148
v -185.8804636 -49.2256387 126.7830047
v -186.0425573 -51.1666311 126.8177643
v -186.7896351 -50.9306858 126.5376306
v -186.9096531 -48.8456758 126.5437046
v -186.3117046 -48.7770540 130.3508716
v -185.6635843 -50.5387378 129.9529063
v -185.6295393 -50.9129161 130.1546007
v -186.3114834 -50.9721684 129.8818046
v -187.4440355 -50.0688802 129.7335147
v -187.6864295 -49.7385738 129.9300341
v -187.5002317 -49.3083679 129.8966174
v -187.1584543 -48.9695073 129.8641721
v -185.6676851 -50.9389644 129.6009601
v -185.9890822 -51.1500874 129.5745237
v -187.2417570 -50.6126278 129.2376178
v -186.9443450 -49.1427665 129.0872034
v -186.1790357 -48.8100509 129.2405559
v -185.8544124 -48.9353416 129.2166964
v -185.5198136 -49.2229631 129.1832173
v -185.3062020 -49.6011254 129.1532059
v -185.6710929 -50.9499931 129.0497257
v -186.5280449 -50.9826191 128.7630455
v -187.3366560 -50.8912987 128.9194233
v -187.4795862 -49.2790019 128.7951470
v -186.2500167 -48.7934107 128.6956596
v -185.8836443 -51.0935761 132.3308280
v -186.6955642 -51.2205128 132.2707210
v -187.5276073 -50.6678848 132.1982639
v -187.2937106 -49.0817145 132.0751512
v -187.0131250 -48.8916790 132.0501219
v -186.3933255 -50.9781426 131.5225325
v -186.7785973 -50.9309507 131.4864718
v -187.4509398 -50.7668421 131.6576567
v -185.4155206 -50.6454982 131.2749599
v -185.7430743 -51.0070493 131.2421082
v -186.1840714 -51.2099792 131.2086268
v -186.6225777 -51.2344986 131.1749216
v -187.0074332 -48.8818433 130.9523045
v -186.5374130 -48.7726253 130.9142363
v -185.9313239 -49.1914719 130.6379623
v -185.9792753 -51.1408785 130.6724937
v -187.4384100 -49.8886531 130.2670672
f 3 1 41
f 3 41 2
f 5 3 2
f 5 2 4
f 5 4 6
f 7 5 6
f 7 6 8
f 9 7 8
f 11 9 8
f 11 8 10
f 13 11 10
f 13 10 12
f 692 12 14
f 692 13 12
f 17 692 14
f 17 14 15
f 16 692 17
f 694 692 16
f 19 17 15
f 19 15 18
f 695 694 815
f 22 19 18
f 22 18 20
f 696 695 21
f 25 22 20
f 25 20 23
f 27 696 24
f 29 25 23
f 29 23 26
f 31 27 28
f 686 29 26
f 686 26 30
f 33 31 32
f 35 686 30
f 35 30 36
f 40 33 34
f 39 35 36
f 39 36 37
f 1 39 37
f 43 40 38
f 1 37 41
f 16 815 694
f 815 21 695
f 21 24 696
f 24 28 27
f 28 32 31
f 32 34 33
f 34 38 40
f 38 42 43
f 44 43 42
f 44 42 45
f 46 44 45
f 817 46 45
f 47 46 817
f 49 47 817
f 48 49 817
f 50 49 48
f 818 50 48
f 704 50 818
f 51 704 818
f 53 704 51
f 52 53 51
f 55 53 52
f 54 55 52
f 57 55 54
f 56 57 54
f 59 57 56
f 58 59 56
f 61 59 58
f 60 61 58
f 63 61 60
f 62 63 60
f 65 63 62
f 64 65 62
f 66 65 64
f 819 66 64
f 67 66 819
f 68 67 819
f 710 67 68
f 69 710 68
f 712 710 69
f 820 712 69
f 70 712 820
f 821 70 820
f 714 70 821
f 71 714 821
f 715 714 71
f 72 715 71
f 717 715 72
f 74 717 72
f 73 74 72
f 75 74 73
f 76 74 75
f 822 76 75
f 719 76 822
f 77 719 822
f 79 719 77
f 78 79 77
f 81 79 78
f 80 81 78
f 82 81 80
f 823 82 80
f 84 82 823
f 83 84 823
f 824 84 83
f 85 84 824
f 825 85 824
f 86 85 825
f 88 86 825
f 87 88 825
f 728 88 87
f 89 728 87
f 91 728 89
f 90 91 89
f 93 91 90
f 92 93 90
f 95 93 92
f 94 95 92
f 97 95 94
f 96 97 94
f 98 97 96
f 99 98 96
f 746 98 99
f 748 746 99
f 100 748 99
f 101 748 100
f 826 101 100
f 102 101 826
f 827 102 826
f 104 102 827
f 103 104 827
f 106 104 103
f 105 106 103
f 108 106 105
f 107 108 105
f 110 108 107
f 109 110 107
f 112 110 109
f 111 112 109
f 113 112 111
f 828 113 111
f 114 113 828
f 115 113 114
f 116 115 114
f 117 115 116
f 118 117 116
f 119 117 118
f 121 119 118
f 120 121 118
f 123 121 120
f 122 123 120
f 124 123 122
f 124 122 829
f 759 829 125
f 759 124 829
f 760 759 125
f 796 760 125
f 126 760 796
f 797 126 796
f 798 126 797
f 127 126 798
f 762 127 798
f 799 762 798
f 764 762 799
f 800 764 799
f 129 764 800
f 128 129 800
f 131 129 128
f 130 131 128
f 133 131 130
f 132 133 130
f 135 133 132
f 134 135 132
f 137 135 134
f 136 137 134
f 138 137 136
f 801 138 136
f 140 138 801
f 139 140 801
f 142 140 139
f 141 142 139
f 771 142 141
f 144 771 141
f 143 144 141
f 146 144 143
f 145 146 143
f 146 145 147
f 149 146 147
f 148 149 147
f 151 149 148
f 150 151 148
f 152 151 150
f 802 152 150
f 153 152 802
f 803 153 802
f 154 153 803
f 804 154 803
f 155 154 804
f 805 155 804
f 778 155 805
f 806 778 805
f 156 778 806
f 158 778 156
f 157 158 156
f 781 158 157
f 159 781 157
f 160 781 159
f 161 160 159
f 162 160 161
f 163 162 161
f 165 162 163
f 164 165 163
f 166 165 164
f 167 166 164
f 169 166 167
f 169 167 168
f 171 169 168
f 170 171 168
f 173 171 170
f 172 173 170
f 175 173 172
f 174 175 172
f 787 175 174
f 787 174 807
f 788 787 807
f 790 788 807
f 790 807 808
f 790 808 176
f 791 790 176
f 792 791 176
f 792 176 809
f 177 792 809
f 177 809 810
f 793 177 810
f 793 810 811
f 793 811 178
f 180 793 178
f 180 178 179
f 182 180 179
f 181 182 179
f 184 182 181
f 184 181 183
f 1117 184 183
f 185 1117 183
f 187 1117 185
f 186 187 185
f 1118 187 186
f 188 1118 186
f 190 1118 188
f 189 190 188
f 1119 190 189
f 191 1119 189
f 193 191 192
f 193 1119 191
f 195 193 192
f 194 195 192
f 197 195 194
f 196 197 194
f 1120 197 196
f 198 1120 196
f 1121 1120 198
f 200 1121 198
f 199 200 198
f 813 200 199
f 201 200 813
f 814 201 813
f 203 201 814
f 202 203 814
f 205 203 202
f 204 205 202
f 206 205 204
f 208 206 204
f 207 208 204
f 208 207 209
f 210 208 209
f 212 210 209
f 212 209 211
f 212 211 213
f 214 212 213
f 216 213 215
f 216 214 213
f 216 215 217
f 218 216 217
f 1124 218 217
f 219 1124 217
f 220 1124 219
f 222 220 219
f 845 222 219
f 221 222 845
f 224 222 221
f 223 224 221
f 226 224 223
f 225 226 223
f 228 226 225
f 227 228 225
f 230 228 227
f 229 230 227
f 231 230 229
f 232 231 229
f 234 231 232
f 233 234 232
f 236 234 233
f 235 236 233
f 238 236 235
f 237 238 235
f 1125 238 237
f 239 1125 237
f 240 1125 239
f 1126 1125 240
f 241 1126 240
f 1127 1126 241
f 242 1127 241
f 1128 1127 242
f 855 1128 242
f 243 1128 855
f 243 855 244
f 245 243 244
f 857 245 244
f 245 857 859
f 246 245 859
f 860 246 859
f 247 246 860
f 248 247 860
f 250 247 248
f 249 250 248
f 1129 250 249
f 251 1129 249
f 252 1129 251
f 1130 1129 252
f 253 1130 252
f 254 1130 253
f 255 254 253
f 257 254 255
f 256 257 255
f 259 257 256
f 258 259 256
f 261 259 258
f 260 261 258
f 263 261 260
f 262 263 260
f 265 263 262
f 264 265 262
f 869 265 264
f 1132 265 869
f 870 1132 869
f 266 1132 870
f 267 266 870
f 269 266 267
f 268 269 267
f 270 269 268
f 874 270 268
f 271 270 874
f 273 271 874
f 272 273 874
f 275 273 272
f 274 275 272
f 277 275 274
f 276 277 274
f 279 277 276
f 278 279 276
f 281 279 278
f 280 281 278
f 1096 281 280
f 282 1096 280
f 284 1096 282
f 283 284 282
f 286 284 283
f 285 286 283
f 289 286 285
f 287 289 285
f 288 289 287
f 290 289 288
f 292 290 288
f 291 292 288
f 1098 292 291
f 883 1098 291
f 294 1098 883
f 293 294 883
f 295 294 293
f 886 295 293
f 296 295 886
f 887 296 886
f 298 296 887
f 297 298 887
f 298 297 299
f 301 298 299
f 300 301 299
f 1101 301 300
f 302 1101 300
f 1102 1101 302
f 303 1102 302
f 1103 1102 303
f 1103 303 304
f 306 1103 304
f 306 304 305
f 308 306 305
f 308 305 307
f 310 308 307
f 310 307 309
f 311 309 901
f 311 310 309
f 313 311 901
f 313 901 312
f 315 312 903
f 315 313 312
f 315 903 314
f 316 315 314
f 316 314 317
f 1104 316 317
f 1105 1104 317
f 1105 317 318
f 320 1105 318
f 320 318 319
f 320 319 906
f 321 320 906
f 323 321 906
f 907 323 906
f 322 323 907
f 325 323 322
f 324 325 322
f 327 325 324
f 326 327 324
f 329 327 326
f 328 329 326
f 331 329 328
f 330 331 328
f 333 331 330
f 332 333 330
f 335 333 332
f 334 335 332
f 911 335 334
f 1108 335 911
f 1109 1108 911
f 912 1109 911
f 1110 1109 912
f 914 1110 912
f 1111 1110 914
f 336 1111 914
f 337 1111 336
f 339 337 336
f 338 339 336
f 340 339 338
f 1112 339 340
f 341 1112 340
f 343 1112 341
f 342 343 341
f 345 343 342
f 344 345 342
f 347 345 344
f 346 347 344
f 1114 347 346
f 348 1114 346
f 349 1114 348
f 349 348 350
f 351 349 350
f 353 351 350
f 352 353 350
f 1115 353 352
f 354 1115 352
f 355 1115 354
f 357 1115 355
f 356 357 355
f 359 357 356
f 358 359 356
f 1116 359 358
f 925 1116 358
f 361 1116 925
f 926 361 925
f 360 361 926
f 363 361 360
f 362 363 360
f 365 363 362
f 364 365 362
f 367 365 364
f 366 367 364
f 930 367 366
f 368 367 930
f 931 368 930
f 369 368 931
f 370 369 931
f 934 370 931
f 372 370 934
f 371 372 934
f 374 372 371
f 373 374 371
f 376 374 373
f 375 376 373
f 378 376 375
f 377 378 375
f 380 378 377
f 379 380 377
f 382 380 379
f 381 382 379
f 384 382 381
f 383 384 381
f 386 384 383
f 385 386 383
f 388 386 385
f 387 388 385
f 390 388 387
f 389 390 387
f 392 390 389
f 391 392 389
f 394 392 391
f 393 394 391
f 396 394 393
f 395 396 393
f 398 396 395
f 397 398 395
f 1082 398 397
f 399 1082 397
f 1083 1082 399
f 400 1083 399
f 402 1083 400
f 401 402 400
f 1084 402 401
f 403 1084 401
f 405 1084 403
f 404 405 403
f 407 405 404
f 406 407 404
f 409 407 406
f 408 409 406
f 411 409 408
f 410 411 408
f 1085 411 410
f 412 1085 410
f 1086 1085 412
f 413 1086 412
f 415 1086 413
f 414 415 413
f 1087 415 414
f 416 1087 414
f 417 1087 416
f 418 417 416
f 419 417 418
f 420 419 418
f 1089 419 420
f 421 1089 420
f 1090 1089 421
f 961 1090 421
f 422 1090 961
f 963 422 961
f 423 422 963
f 964 423 963
f 424 423 964
f 965 424 964
f 425 424 965
f 427 425 965
f 426 427 965
f 429 427 426
f 429 426 428
f 431 429 428
f 430 431 428
f 432 431 430
f 434 432 430
f 433 434 430
f 435 434 433
f 437 434 435
f 436 437 435
f 439 437 436
f 438 439 436
f 441 439 438
f 440 441 438
f 443 441 440
f 442 443 440
f 444 443 442
f 445 443 444
f 973 445 444
f 446 445 973
f 974 446 973
f 447 446 974
f 448 447 974
f 449 447 448
f 450 449 448
f 451 449 450
f 977 451 450
f 453 451 977
f 452 453 977
f 454 453 452
f 979 454 452
f 1093 454 979
f 980 1093 979
f 455 1093 980
f 457 455 980
f 457 980 456
f 459 457 456
f 458 459 456
f 460 459 458
f 984 460 458
f 986 460 984
f 462 460 986
f 461 462 986
f 464 462 461
f 463 464 461
f 467 464 463
f 465 467 463
f 466 467 465
f 1095 467 466
f 468 1095 466
f 469 1095 468
f 989 469 468
f 990 469 989
f 471 469 990
f 470 471 990
f 473 471 470
f 472 473 470
f 475 473 472
f 474 475 472
f 477 475 474
f 476 477 474
f 1079 477 476
f 992 1079 476
f 479 1079 992
f 478 479 992
f 481 479 478
f 480 481 478
f 1068 481 480
f 482 1068 480
f 484 1068 482
f 484 482 483
f 486 484 483
f 485 486 483
f 1070 486 485
f 488 1070 485
f 487 488 485
f 489 488 487
f 998 489 487
f 490 489 998
f 1000 490 998
f 1071 490 1000
f 491 1071 1000
f 493 1071 491
f 492 493 491
f 495 493 492
f 494 495 492
f 496 495 494
f 1072 495 496
f 497 1072 496
f 498 1072 497
f 1004 498 497
f 1073 498 1004
f 499 1073 1004
f 501 1073 499
f 500 501 499
f 503 501 500
f 502 503 500
f 504 503 502
f 1032 504 502
f 506 504 1032
f 505 506 1032
f 1035 506 505
f 508 506 1035
f 508 1035 507
f 509 508 507
f 652 509 507
f 652 507 510
f 511 20 514
f 20 18 514
f 512 23 511
f 511 23 20
f 513 23 512
f 18 15 514
f 514 15 515
f 516 26 513
f 513 26 23
f 515 15 518
f 517 26 516
f 15 14 518
f 14 12 518
f 517 30 26
f 518 12 520
f 519 30 517
f 12 10 520
f 519 36 30
f 10 522 520
f 519 521 36
f 36 521 37
f 8 522 10
f 8 524 522
f 521 523 37
f 37 523 41
f 523 525 41
f 6 527 8
f 8 527 524
f 525 526 41
f 41 526 2
f 6 528 527
f 4 528 6
f 2 526 4
f 4 526 528
f 530 529 516
f 530 516 513
f 531 530 513
f 531 513 512
f 554 531 512
f 554 512 511
f 532 554 511
f 557 532 511
f 559 557 511
f 559 511 514
f 564 559 514
f 533 564 514
f 533 514 515
f 570 533 515
f 570 515 518
f 573 570 518
f 577 573 518
f 577 518 520
f 580 577 520
f 583 580 520
f 583 520 522
f 586 583 522
f 591 586 522
f 591 522 524
f 534 591 524
f 535 534 524
f 536 535 524
f 536 524 527
f 537 536 527
f 538 537 527
f 538 527 528
f 539 538 528
f 540 528 526
f 540 539 528
f 541 540 526
f 541 526 525
f 542 541 525
f 618 542 525
f 618 525 523
f 543 618 523
f 543 523 521
f 544 543 521
f 545 544 521
f 546 545 521
f 546 521 519
f 632 546 519
f 632 519 517
f 634 632 517
f 638 634 517
f 529 517 516
f 529 638 517
f 529 529 516
f 529 529 516
f 529 529 516
f 547 529 529
f 547 529 529
f 547 529 529
f 547 638 529
f 530 547 529
f 530 638 547
f 548 638 530
f 548 530 531
f 551 549 548
f 551 548 531
f 552 550 549
f 553 550 552
f 552 549 551
f 554 551 531
f 556 553 552
f 555 551 554
f 555 554 532
f 558 551 555
f 558 552 551
f 556 552 558
f 560 558 555
f 557 555 532
f 560 555 557
f 561 556 558
f 562 557 559
f 560 557 562
f 563 558 560
f 561 558 563
f 563 560 562
f 564 562 559
f 565 563 562
f 566 562 564
f 566 565 562
f 566 564 533
f 563 565 567
f 569 565 566
f 569 567 565
f 567 561 563
f 571 561 567
f 568 566 533
f 568 533 570
f 568 569 566
f 572 568 570
f 571 567 569
f 574 569 568
f 572 570 573
f 574 568 572
f 576 569 574
f 576 571 569
f 575 572 573
f 575 573 577
f 575 574 572
f 581 571 576
f 575 576 574
f 579 575 577
f 578 576 575
f 581 576 578
f 579 577 580
f 578 575 579
f 582 581 578
f 584 578 579
f 584 579 580
f 582 578 584
f 583 584 580
f 587 582 584
f 585 584 583
f 588 582 587
f 588 581 582
f 585 583 586
f 585 587 584
f 590 585 586
f 589 585 590
f 589 587 585
f 590 586 591
f 592 587 589
f 592 589 590
f 534 590 591
f 588 587 592
f 593 592 590
f 593 590 534
f 596 588 592
f 594 593 534
f 535 594 534
f 595 592 593
f 595 593 594
f 596 592 595
f 597 594 535
f 597 535 536
f 597 598 594
f 598 595 594
f 601 596 595
f 601 595 598
f 599 597 536
f 603 596 601
f 599 598 597
f 537 599 536
f 600 601 598
f 600 598 599
f 602 599 537
f 600 599 602
f 602 537 538
f 603 601 600
f 604 600 602
f 539 602 538
f 604 602 539
f 606 603 600
f 605 604 539
f 605 539 540
f 606 600 604
f 607 604 605
f 606 604 608
f 607 605 540
f 608 604 607
f 609 607 540
f 609 540 541
f 610 606 608
f 608 607 612
f 611 609 541
f 612 607 609
f 610 608 612
f 613 612 609
f 613 609 611
f 542 611 541
f 615 611 542
f 614 610 612
f 615 613 611
f 616 613 615
f 616 612 613
f 616 614 612
f 617 542 618
f 617 615 542
f 620 616 615
f 620 615 617
f 619 616 620
f 614 616 619
f 625 614 619
f 621 618 543
f 621 617 618
f 621 620 617
f 622 620 621
f 622 619 620
f 544 621 543
f 623 621 544
f 623 622 621
f 624 619 622
f 626 622 623
f 627 623 544
f 624 625 619
f 545 627 544
f 624 622 626
f 626 623 627
f 628 625 624
f 546 627 545
f 629 626 627
f 630 624 626
f 628 624 630
f 630 626 629
f 629 627 546
f 631 546 632
f 629 546 631
f 630 629 636
f 635 628 630
f 633 631 632
f 636 629 631
f 633 632 634
f 635 630 636
f 636 631 633
f 637 633 634
f 637 636 633
f 639 635 636
f 637 639 636
f 637 634 638
f 548 637 638
f 550 639 637
f 637 548 549
f 550 637 549
f 553 639 550
f 640 553 556
f 640 556 561
f 641 561 571
f 641 571 581
f 641 640 561
f 642 553 640
f 642 635 639
f 642 639 553
f 628 635 642
f 643 641 581
f 643 581 588
f 596 643 588
f 644 625 628
f 644 628 642
f 603 645 643
f 603 643 596
f 614 625 644
f 606 645 603
f 610 614 644
f 610 644 645
f 610 645 606
f 640 641 646
f 646 641 647
f 642 640 648
f 648 640 646
f 644 642 649
f 649 642 648
f 645 644 650
f 650 644 649
f 643 645 651
f 651 645 650
f 641 643 647
f 647 643 651
f 646 647 651
f 648 651 650
f 648 650 649
f 648 646 651
f 1037 652 510
f 654 652 1037
f 654 1037 653
f 656 654 653
f 656 653 655
f 658 656 655
f 658 655 657
f 1077 657 1041
f 1077 658 657
f 660 1077 1041
f 660 1041 659
f 661 660 659
f 1078 659 662
f 1078 661 659
f 1078 662 663
f 665 1078 663
f 665 663 664
f 667 665 664
f 667 664 666
f 668 667 666
f 668 666 1007
f 669 668 1007
f 669 1007 670
f 17 683 671
f 22 683 19
f 35 687 672
f 695 697 675
f 31 676 27
f 31 699 676
f 40 700 677
f 50 678 49
f 67 711 66
f 79 721 719
f 98 732 97
f 19 683 17
f 683 22 816
f 25 684 22
f 22 684 816
f 29 684 25
f 685 684 29
f 686 685 29
f 672 686 35
f 685 686 672
f 35 39 687
f 39 1 687
f 687 1 688
f 3 688 1
f 688 3 673
f 3 5 673
f 673 5 674
f 674 7 689
f 5 7 674
f 7 9 689
f 9 11 689
f 689 11 690
f 13 690 11
f 691 690 13
f 692 691 13
f 693 691 692
f 675 692 694
f 693 692 675
f 695 675 694
f 697 695 696
f 698 696 27
f 697 696 698
f 698 27 676
f 31 33 699
f 699 33 677
f 33 40 677
f 40 43 700
f 43 44 700
f 700 44 701
f 701 46 702
f 44 46 701
f 702 47 678
f 46 47 702
f 47 49 678
f 50 703 678
f 679 703 50
f 679 704 53
f 50 704 679
f 705 53 55
f 679 53 705
f 706 705 55
f 55 57 706
f 57 59 706
f 706 59 707
f 707 61 708
f 59 61 707
f 61 63 708
f 708 63 680
f 680 65 66
f 63 65 680
f 66 709 680
f 711 709 66
f 710 711 67
f 713 710 712
f 711 710 713
f 681 712 70
f 713 712 681
f 714 681 70
f 681 714 716
f 716 714 715
f 716 715 682
f 682 715 717
f 682 717 718
f 718 717 74
f 720 74 76
f 718 74 720
f 76 719 720
f 720 719 721
f 722 721 79
f 79 81 722
f 722 81 723
f 723 82 724
f 81 82 723
f 82 84 724
f 85 725 84
f 84 725 724
f 726 725 85
f 85 86 726
f 86 88 726
f 726 88 727
f 88 729 727
f 728 729 88
f 730 728 91
f 729 728 730
f 91 93 730
f 730 93 731
f 93 95 731
f 731 97 732
f 95 97 731
f 671 16 17
f 113 753 112
f 117 734 115
f 133 766 131
f 140 769 138
f 781 740 158
f 169 784 166
f 182 795 180
f 184 745 744
f 746 747 98
f 98 747 732
f 733 746 748
f 747 746 733
f 733 748 101
f 102 749 101
f 101 749 733
f 750 749 104
f 104 749 102
f 104 106 750
f 750 106 751
f 106 108 751
f 108 110 751
f 751 110 752
f 752 110 112
f 752 112 753
f 113 754 753
f 115 734 113
f 113 734 754
f 117 755 734
f 117 119 755
f 755 119 756
f 119 121 756
f 756 121 757
f 121 123 757
f 757 123 758
f 124 758 123
f 735 758 124
f 124 759 735
f 735 759 760
f 735 760 761
f 761 760 126
f 763 761 126
f 127 763 126
f 736 762 764
f 763 762 736
f 127 762 763
f 736 764 765
f 765 764 129
f 766 765 129
f 129 131 766
f 766 133 767
f 133 135 767
f 767 135 737
f 135 137 737
f 737 137 768
f 768 138 769
f 137 138 768
f 769 140 770
f 140 142 770
f 770 142 773
f 142 771 773
f 773 771 144
f 772 144 146
f 144 772 773
f 772 146 774
f 774 146 149
f 774 149 775
f 149 151 775
f 775 151 776
f 151 152 776
f 776 152 777
f 152 153 777
f 777 153 738
f 153 154 738
f 155 739 154
f 154 739 738
f 155 779 739
f 778 779 155
f 780 778 158
f 779 778 780
f 740 780 158
f 740 781 160
f 162 782 160
f 160 782 740
f 812 162 165
f 782 162 812
f 165 783 812
f 166 783 165
f 784 783 166
f 785 784 169
f 169 171 785
f 173 786 171
f 171 786 785
f 173 175 786
f 786 175 789
f 175 787 789
f 787 788 789
f 789 788 741
f 741 788 790
f 741 790 791
f 742 791 792
f 741 791 742
f 743 792 177
f 742 792 743
f 793 743 177
f 794 793 180
f 743 793 794
f 794 180 795
f 744 795 182
f 182 184 744
f 734 801 136
f 757 143 141
f 770 164 163
f 775 174 172
f 776 807 174
f 782 183 181
f 744 207 204
f 745 209 744
f 747 796 732
f 732 796 125
f 733 797 747
f 747 797 796
f 733 798 797
f 749 799 733
f 733 799 798
f 750 800 749
f 749 800 799
f 128 750 751
f 800 750 128
f 130 128 751
f 751 752 130
f 130 752 132
f 753 132 752
f 134 132 753
f 136 134 754
f 754 134 753
f 734 136 754
f 755 801 734
f 139 801 755
f 756 139 755
f 141 139 756
f 141 756 757
f 145 143 758
f 758 143 757
f 735 145 758
f 147 145 735
f 148 147 735
f 761 148 735
f 150 148 761
f 150 761 763
f 763 802 150
f 736 803 763
f 763 803 802
f 736 765 803
f 765 804 803
f 765 805 804
f 766 805 765
f 766 806 805
f 156 806 766
f 156 767 157
f 766 767 156
f 767 737 157
f 157 737 159
f 161 159 768
f 768 159 737
f 768 769 161
f 161 769 163
f 770 163 769
f 167 770 773
f 164 770 167
f 168 167 773
f 773 772 168
f 168 772 170
f 774 170 772
f 172 170 774
f 775 172 774
f 776 174 775
f 777 807 776
f 176 808 738
f 738 808 777
f 777 808 807
f 739 809 738
f 738 809 176
f 739 810 809
f 779 810 739
f 779 811 810
f 780 811 779
f 178 811 780
f 179 178 740
f 740 178 780
f 740 782 179
f 179 782 181
f 782 812 183
f 183 812 185
f 186 185 783
f 783 185 812
f 784 186 783
f 188 186 784
f 785 188 784
f 189 188 785
f 191 189 785
f 192 191 786
f 786 191 785
f 194 786 789
f 192 786 194
f 196 194 789
f 741 196 789
f 198 196 741
f 198 742 199
f 741 742 198
f 742 813 199
f 743 813 742
f 743 814 813
f 743 794 814
f 814 794 202
f 204 794 795
f 202 794 204
f 744 204 795
f 209 207 744
f 683 16 671
f 685 32 28
f 687 34 672
f 675 58 56
f 699 819 676
f 700 69 677
f 681 94 92
f 722 105 103
f 724 111 109
f 683 815 16
f 815 816 21
f 683 816 815
f 684 21 816
f 24 21 684
f 685 24 684
f 28 24 685
f 685 672 32
f 32 672 34
f 34 687 38
f 688 38 687
f 42 38 688
f 45 42 688
f 688 673 45
f 674 817 673
f 673 817 45
f 48 674 689
f 817 674 48
f 689 818 48
f 690 51 689
f 689 51 818
f 690 52 51
f 691 52 690
f 54 691 693
f 52 691 54
f 675 54 693
f 56 54 675
f 675 697 58
f 60 58 697
f 698 60 697
f 62 60 698
f 676 64 698
f 698 64 62
f 676 819 64
f 68 699 677
f 819 699 68
f 69 68 677
f 700 820 69
f 700 821 820
f 701 821 700
f 71 701 702
f 821 701 71
f 71 702 72
f 72 702 678
f 73 72 678
f 75 703 679
f 73 703 75
f 678 703 73
f 822 75 679
f 705 822 679
f 77 822 705
f 706 77 705
f 78 77 706
f 78 706 80
f 707 80 706
f 823 80 707
f 83 823 708
f 708 823 707
f 680 824 708
f 708 824 83
f 680 825 824
f 680 709 825
f 87 709 711
f 825 709 87
f 89 87 711
f 90 89 713
f 713 89 711
f 92 90 681
f 681 90 713
f 681 716 94
f 94 716 96
f 99 96 682
f 682 96 716
f 99 682 718
f 99 718 100
f 100 718 720
f 720 826 100
f 721 827 720
f 720 827 826
f 103 721 722
f 827 721 103
f 107 722 723
f 105 722 107
f 109 107 724
f 724 107 723
f 111 725 726
f 724 725 111
f 114 828 726
f 726 828 111
f 116 114 727
f 727 114 726
f 729 116 727
f 118 116 729
f 120 729 730
f 118 729 120
f 120 730 731
f 120 731 122
f 731 829 122
f 125 829 732
f 732 829 731
f 844 845 219
f 1122 241 854
f 861 249 248
f 862 251 249
f 864 255 253
f 876 280 278
f 884 886 293
f 839 305 838
f 209 745 211
f 211 840 213
f 745 840 211
f 840 841 213
f 213 841 215
f 841 842 215
f 215 842 217
f 842 843 217
f 217 843 219
f 844 219 843
f 846 845 844
f 221 845 846
f 221 846 223
f 846 847 223
f 223 847 225
f 227 847 848
f 227 225 847
f 229 227 849
f 849 227 848
f 232 849 830
f 229 849 232
f 232 830 233
f 850 233 830
f 235 233 850
f 235 851 237
f 850 851 235
f 237 852 239
f 851 852 237
f 852 853 239
f 239 853 240
f 854 240 853
f 241 240 854
f 241 1122 242
f 1123 855 1122
f 1122 855 242
f 1123 856 855
f 855 856 244
f 831 857 856
f 856 857 244
f 831 859 857
f 858 859 831
f 858 860 859
f 860 861 248
f 858 861 860
f 861 862 249
f 862 863 251
f 251 863 252
f 253 863 832
f 252 863 253
f 864 253 832
f 255 864 256
f 865 256 864
f 258 256 865
f 260 865 866
f 258 865 260
f 262 260 866
f 866 867 262
f 262 867 264
f 868 869 867
f 867 869 264
f 871 870 868
f 868 870 869
f 268 871 872
f 870 871 267
f 267 871 268
f 833 268 872
f 873 874 833
f 833 874 268
f 272 873 834
f 874 873 272
f 274 834 875
f 272 834 274
f 276 875 835
f 274 875 276
f 276 835 278
f 835 876 278
f 876 877 280
f 280 877 282
f 283 282 1131
f 1131 282 877
f 283 1131 285
f 285 1131 878
f 287 878 879
f 285 878 287
f 287 879 288
f 288 880 291
f 879 880 288
f 291 881 883
f 880 881 291
f 882 883 881
f 293 883 882
f 884 293 882
f 885 886 884
f 297 887 888
f 888 887 885
f 885 887 886
f 299 888 836
f 299 297 888
f 300 299 836
f 836 1133 300
f 300 1133 302
f 302 1133 889
f 302 889 303
f 303 889 837
f 304 837 838
f 303 837 304
f 305 304 838
f 890 312 902
f 1099 319 318
f 891 906 905
f 892 322 891
f 916 338 915
f 897 383 381
f 939 389 387
f 898 401 400
f 305 899 307
f 839 899 305
f 307 900 309
f 899 900 307
f 902 901 900
f 900 901 309
f 901 902 312
f 890 903 312
f 314 903 890
f 890 1097 314
f 314 1097 317
f 1097 904 317
f 904 1099 317
f 317 1099 318
f 319 1099 905
f 905 906 319
f 891 907 906
f 322 907 891
f 324 322 892
f 892 1100 324
f 324 1100 326
f 326 1100 908
f 328 908 893
f 326 908 328
f 893 330 328
f 330 909 332
f 893 909 330
f 909 910 332
f 332 910 334
f 911 910 894
f 910 911 334
f 913 912 894
f 894 912 911
f 913 914 912
f 914 915 336
f 913 915 914
f 338 336 915
f 340 338 916
f 916 917 340
f 340 917 341
f 918 341 917
f 342 341 918
f 344 918 919
f 342 918 344
f 919 346 344
f 1106 346 919
f 348 346 1106
f 920 348 1106
f 350 348 920
f 920 921 350
f 350 921 352
f 922 352 921
f 354 352 922
f 354 922 355
f 355 922 1107
f 356 355 1107
f 1107 923 356
f 356 923 358
f 924 925 923
f 923 925 358
f 360 926 924
f 924 926 925
f 924 927 360
f 360 927 362
f 928 362 927
f 364 362 928
f 366 928 929
f 364 928 366
f 932 930 929
f 929 930 366
f 932 931 930
f 932 934 931
f 933 934 932
f 1113 934 933
f 1113 371 934
f 1113 935 371
f 371 935 373
f 375 373 936
f 936 373 935
f 377 936 895
f 375 936 377
f 937 377 895
f 379 377 937
f 381 937 896
f 379 937 381
f 381 896 897
f 385 383 897
f 385 938 387
f 897 938 385
f 939 387 938
f 939 940 389
f 389 940 391
f 941 391 940
f 393 391 941
f 395 393 942
f 942 393 941
f 397 395 943
f 943 395 942
f 397 943 399
f 943 944 399
f 898 400 944
f 944 400 399
f 403 401 898
f 404 403 945
f 945 403 898
f 947 414 958
f 1088 444 972
f 975 450 448
f 976 977 450
f 951 979 950
f 1094 482 994
f 1003 496 494
f 1030 1004 1005
f 1030 499 1004
f 945 1080 404
f 406 1080 956
f 404 1080 406
f 408 956 946
f 406 956 408
f 408 946 410
f 410 957 412
f 946 957 410
f 958 412 957
f 413 412 958
f 414 413 958
f 416 414 947
f 947 1081 416
f 418 1081 960
f 416 1081 418
f 418 960 420
f 420 960 959
f 421 420 959
f 959 961 421
f 962 961 959
f 948 963 962
f 962 963 961
f 948 964 963
f 966 965 948
f 948 965 964
f 966 426 965
f 966 967 426
f 426 967 428
f 967 968 428
f 428 968 430
f 433 968 949
f 433 430 968
f 435 949 969
f 433 949 435
f 436 435 969
f 436 970 438
f 969 970 436
f 970 971 438
f 438 971 440
f 972 440 971
f 442 440 972
f 442 972 444
f 1088 973 444
f 1088 974 973
f 975 974 1088
f 975 448 974
f 975 976 450
f 978 977 976
f 452 978 950
f 977 978 452
f 950 979 452
f 951 980 979
f 951 981 980
f 980 981 456
f 982 456 981
f 458 456 982
f 983 984 982
f 982 984 458
f 461 986 985
f 985 986 983
f 983 986 984
f 463 985 987
f 461 985 463
f 465 463 987
f 987 988 465
f 465 988 466
f 1091 468 988
f 988 468 466
f 1091 989 468
f 1091 990 989
f 470 990 1092
f 1092 990 1091
f 472 1092 952
f 470 1092 472
f 474 472 952
f 952 991 474
f 474 991 476
f 992 991 953
f 476 991 992
f 478 992 953
f 478 993 480
f 953 993 478
f 994 480 993
f 482 480 994
f 482 1094 483
f 485 483 954
f 954 483 1094
f 487 485 995
f 995 485 954
f 995 996 487
f 997 998 996
f 996 998 487
f 491 1000 999
f 999 1000 997
f 997 1000 998
f 492 491 1001
f 1001 491 999
f 1001 1002 492
f 494 1002 1003
f 492 1002 494
f 497 1003 955
f 496 1003 497
f 497 955 1005
f 1005 1004 497
f 666 1045 1006
f 1006 1007 666
f 1006 1008 1007
f 1007 1008 670
f 1009 670 1008
f 1010 670 1009
f 1009 1012 1010
f 1011 1012 1009
f 1012 1011 1052
f 1050 1052 1013
f 1013 1074 1050
f 1049 1074 1067
f 1014 1075 1015
f 1067 1075 1014
f 1016 1015 1017
f 1036 1037 510
f 1013 1052 1011
f 1074 1049 1050
f 1075 1067 1074
f 1015 1018 1014
f 1015 1016 1018
f 1076 1017 1015
f 1076 1063 1017
f 1019 1063 1076
f 1019 1020 1063
f 1019 1061 1020
f 1021 1061 1019
f 1021 1059 1061
f 1022 1059 1021
f 1022 1024 1059
f 1023 1024 1022
f 1023 1025 1024
f 1023 1058 1025
f 1027 1027 1026
f 1026 1027 1058
f 1027 1028 1027
f 1028 1029 1027
f 1028 1057 1029
f 499 1030 500
f 1031 500 1030
f 502 500 1031
f 1033 1032 1031
f 505 1032 1033
f 1031 1032 502
f 1034 1035 1033
f 1033 1035 505
f 1034 1069 1035
f 1035 1069 507
f 1036 507 1069
f 510 507 1036
f 1038 1037 1036
f 653 1037 1038
f 655 653 1038
f 1038 1039 655
f 1041 657 1040
f 1040 657 1039
f 1039 657 655
f 1042 659 1040
f 1040 659 1041
f 662 659 1043
f 1043 659 1042
f 663 1043 1044
f 662 1043 663
f 1044 664 663
f 1045 664 1044
f 666 664 1045
f 1029 1056 1046
f 1029 1057 1056
f 1027 1029 1046
f 1058 1027 1046
f 1025 1058 1046
f 1024 1025 1046
f 1024 1046 1047
f 1049 1067 1066
f 1049 1066 1048
f 1050 1049 1048
f 1050 1048 1051
f 1052 1050 1051
f 1052 1051 1053
f 1012 1052 1053
f 1054 1010 1012
f 1054 1012 1053
f 1010 1054 1055
f 1055 670 1010
f 670 1055 1056
f 1056 669 670
f 1056 668 669
f 668 1056 1057
f 668 1057 1058
f 1058 667 668
f 1059 1024 1047
f 1059 1047 1060
f 1061 1059 1060
f 1020 1061 1060
f 1020 1060 1062
f 1063 1020 1062
f 1063 1062 1064
f 1064 1017 1063
f 1017 1064 1065
f 1065 1016 1017
f 1066 1014 1065
f 1018 1018 1016
f 1018 1014 1018
f 1018 1065 1014
f 1018 1016 1065
f 1067 1014 1066
f 1053 1048 1066
f 1053 1051 1048
f 1054 1066 1065
f 1054 1065 1064
f 1054 1053 1066
f 1055 1054 1064
f 1055 1062 1060
f 1055 1064 1062
f 1056 1055 1060
f 1056 1047 1046
f 1056 1060 1047
f 1034 1068 484
f 484 1069 1034
f 484 486 1069
f 1069 486 1036
f 486 1070 1036
f 1036 1070 488
f 1036 488 1038
f 1038 488 489
f 489 490 1038
f 1038 490 1039
f 490 1071 1039
f 1039 1071 1040
f 1040 1071 493
f 1040 493 1042
f 493 495 1042
f 1042 495 1043
f 1072 1043 495
f 1044 1043 1072
f 1044 1072 498
f 1044 498 1045
f 1073 1045 498
f 1006 1045 1073
f 1006 1073 501
f 1006 501 1008
f 501 503 1008
f 1008 503 1009
f 503 504 1009
f 504 506 1009
f 1009 506 1011
f 1011 506 508
f 508 1013 1011
f 508 1074 1013
f 509 1074 508
f 1075 1074 652
f 652 1074 509
f 654 1075 652
f 1015 1075 654
f 1015 654 656
f 656 1076 1015
f 1076 658 1019
f 656 658 1076
f 658 1077 1019
f 1077 660 1019
f 1019 660 1021
f 661 1021 660
f 661 1078 1021
f 1078 1022 1021
f 1023 1078 665
f 1022 1078 1023
f 667 1023 665
f 667 1058 1023
f 1058 1027 1026
f 1058 1028 1027
f 1058 1057 1028
f 1079 1030 477
f 1031 1030 1079
f 1031 1079 479
f 1031 479 1033
f 479 481 1033
f 481 1068 1033
f 1033 1068 1034
f 376 945 374
f 386 958 384
f 388 947 958
f 390 947 388
f 402 966 1083
f 1087 972 415
f 417 1088 972
f 419 1088 417
f 427 951 425
f 425 951 950
f 432 982 431
f 455 1094 994
f 457 1094 455
f 464 996 462
f 473 955 471
f 475 1005 473
f 477 1005 475
f 477 1030 1005
f 376 1080 945
f 956 1080 376
f 376 378 956
f 956 378 946
f 378 380 946
f 946 382 957
f 380 382 946
f 957 384 958
f 382 384 957
f 388 958 386
f 960 1081 390
f 390 1081 947
f 960 392 959
f 390 392 960
f 392 394 959
f 394 396 959
f 959 396 962
f 396 398 962
f 962 398 948
f 948 1082 1083
f 398 1082 948
f 948 1083 966
f 402 1084 966
f 966 1084 967
f 967 405 968
f 1084 405 967
f 405 407 968
f 968 407 949
f 409 949 407
f 969 949 409
f 409 411 969
f 970 1085 1086
f 969 1085 970
f 411 1085 969
f 970 1086 971
f 971 1086 415
f 972 971 415
f 972 1087 417
f 975 419 1089
f 1088 419 975
f 975 1089 1090
f 975 1090 976
f 976 1090 422
f 422 423 976
f 976 423 978
f 423 424 978
f 978 424 950
f 424 425 950
f 427 429 951
f 951 429 981
f 981 431 982
f 429 431 981
f 983 432 434
f 982 432 983
f 985 434 437
f 983 434 985
f 987 985 437
f 437 439 987
f 987 441 988
f 439 441 987
f 443 988 441
f 1091 988 443
f 445 1091 443
f 446 1092 445
f 445 1092 1091
f 952 1092 447
f 447 1092 446
f 447 449 952
f 952 451 991
f 449 451 952
f 451 453 991
f 991 453 953
f 454 953 453
f 953 1093 993
f 454 1093 953
f 455 994 1093
f 1093 994 993
f 459 954 457
f 457 954 1094
f 459 460 954
f 954 460 995
f 460 462 995
f 995 462 996
f 996 464 997
f 467 999 464
f 464 999 997
f 1001 467 1095
f 999 467 1001
f 1001 1095 469
f 469 1002 1001
f 1003 1002 469
f 469 471 1003
f 1003 471 955
f 955 473 1005
f 289 890 902
f 292 890 290
f 294 904 1098
f 296 891 905
f 298 892 891
f 315 916 915
f 316 916 315
f 1104 916 316
f 320 918 1105
f 323 919 321
f 325 1106 323
f 343 932 1112
f 345 1113 343
f 359 897 357
f 1116 938 359
f 363 940 361
f 370 944 369
f 372 898 370
f 899 1096 284
f 839 1096 899
f 899 284 900
f 900 286 902
f 284 286 900
f 286 289 902
f 289 290 890
f 1098 1097 292
f 292 1097 890
f 1097 1098 904
f 294 1099 904
f 1099 295 905
f 294 295 1099
f 295 296 905
f 296 298 891
f 298 301 892
f 1101 1100 301
f 908 1100 1101
f 301 1100 892
f 893 1101 1102
f 908 1101 893
f 893 1102 1103
f 893 1103 909
f 909 1103 306
f 308 910 306
f 306 910 909
f 910 308 894
f 894 308 310
f 894 310 913
f 310 311 913
f 913 313 915
f 311 313 913
f 313 315 915
f 917 1104 1105
f 916 1104 917
f 917 1105 918
f 919 918 320
f 320 321 919
f 323 1106 919
f 1106 325 920
f 325 327 920
f 920 327 921
f 327 329 921
f 921 329 922
f 922 331 1107
f 329 331 922
f 333 1107 331
f 1107 335 923
f 333 335 1107
f 335 1108 923
f 924 1108 1109
f 923 1108 924
f 924 1109 1110
f 927 1110 1111
f 924 1110 927
f 927 1111 928
f 928 1111 337
f 339 928 337
f 929 928 339
f 1112 929 339
f 932 929 1112
f 343 933 932
f 1113 933 343
f 345 347 1113
f 1113 347 935
f 936 1114 349
f 347 1114 935
f 935 1114 936
f 895 349 351
f 936 349 895
f 353 895 351
f 937 895 353
f 896 353 1115
f 937 353 896
f 896 1115 897
f 897 1115 357
f 897 359 938
f 939 1116 361
f 938 1116 939
f 939 361 940
f 940 363 941
f 365 942 363
f 363 942 941
f 365 367 942
f 942 367 943
f 367 368 943
f 369 944 368
f 368 944 943
f 944 370 898
f 372 374 898
f 898 374 945
f 201 849 200
f 212 853 210
f 1124 856 218
f 257 1131 254
f 273 836 271
f 281 839 838
f 1096 839 281
f 184 1117 745
f 1117 187 745
f 745 187 840
f 187 1118 840
f 840 1118 841
f 841 1118 190
f 841 190 842
f 842 1119 843
f 190 1119 842
f 843 193 844
f 1119 193 843
f 193 195 844
f 844 195 846
f 195 197 846
f 847 1120 1121
f 846 1120 847
f 197 1120 846
f 848 1121 200
f 847 1121 848
f 848 200 849
f 830 849 201
f 201 203 830
f 203 205 830
f 830 205 850
f 206 851 205
f 205 851 850
f 851 208 852
f 206 208 851
f 852 210 853
f 208 210 852
f 853 212 854
f 214 1122 212
f 212 1122 854
f 216 1123 214
f 214 1123 1122
f 216 218 1123
f 1123 218 856
f 856 1124 831
f 831 1124 220
f 831 220 858
f 858 220 222
f 222 224 858
f 858 224 861
f 224 226 861
f 861 226 862
f 226 228 862
f 862 228 863
f 228 230 863
f 863 230 832
f 231 832 230
f 864 832 231
f 231 234 864
f 234 236 864
f 864 236 865
f 866 865 238
f 238 865 236
f 1125 866 238
f 867 1125 1126
f 866 1125 867
f 868 1126 1127
f 867 1126 868
f 871 1127 1128
f 868 1127 871
f 872 1128 243
f 871 1128 872
f 872 243 833
f 833 243 245
f 833 245 873
f 245 246 873
f 873 246 834
f 246 247 834
f 834 247 875
f 247 250 875
f 875 250 835
f 1129 835 250
f 876 1129 1130
f 835 1129 876
f 877 1130 254
f 876 1130 877
f 254 1131 877
f 878 1131 257
f 257 259 878
f 878 259 879
f 259 261 879
f 263 880 261
f 261 880 879
f 880 265 881
f 263 265 880
f 265 1132 881
f 881 1132 882
f 1132 266 882
f 882 266 884
f 266 269 884
f 884 269 885
f 269 270 885
f 885 270 888
f 270 271 888
f 888 271 836
f 275 1133 273
f 889 1133 275
f 273 1133 836
f 889 277 837
f 275 277 889
f 277 279 837
f 837 279 838
f 281 838 279
