# Render LOD; unchanged CAD body-local coordinates in mm
v -4.6111255 83.3742034 115.4348706
v -3.9403843 83.3691375 114.9999968
v -3.9399397 83.3773489 115.4817661
v -3.2264592 83.7595827 114.9999965
v -3.3943070 83.6259473 115.5271111
v -2.8824794 84.4094105 114.9999969
v -3.0174238 84.0711128 115.5678311
v -2.8658244 85.0409172 114.9999977
v -2.8506291 84.9352726 115.6288860
v -3.2366067 85.7504662 114.9999976
v -3.0934892 85.5641871 115.6797488
v -3.4714047 85.9181798 115.7148088
v -3.9712690 86.1393334 114.9999940
v -4.2497077 86.1572406 115.7636598
v -4.6620508 86.1006269 114.9999984
v -4.4784467 86.1355996 115.6673200
v -4.2516585 86.1518224 115.1493026
v -4.9061830 85.9953136 115.6997704
v -4.6421994 86.1005886 115.1752145
v -5.1528879 85.8285811 114.9999973
v -4.7107530 86.0846577 115.8064719
v -5.0644755 85.8944582 115.2090873
v -5.5219092 85.3686606 114.9999969
v -5.6637225 84.6497257 114.9999971
v -5.5928188 85.1674222 115.2747834
v -5.6130930 85.1083760 115.9001754
v -5.6559023 84.7629753 115.3073468
v -5.6150504 84.4207828 115.8304545
v -5.4846911 84.0790217 114.9999968
v -5.4437644 84.0042514 115.8631068
v -5.6371165 84.4740084 115.9474196
v -5.5639840 84.2400587 115.3429744
v -5.4551846 84.0317638 115.9819040
v -5.1033414 83.6183740 114.9999958
v -5.0460185 83.5838601 115.9047847
v -5.2545258 83.7601570 115.3833316
v -5.1155658 83.6344502 116.0240841
v -4.5320469 83.3720120 114.9999970
v -4.5683654 83.3767268 116.0620042
v -3.7148557 83.4479145 116.0020787
v -3.9644468 83.3657778 116.1060759
v -3.4047160 83.6239028 116.1501125
v -2.9113910 84.3081559 116.0864700
v -2.8463628 84.9244356 116.1310581
v -2.8406975 84.7571654 116.2417369
v -3.0539800 85.4921626 116.1769618
v -3.1821611 85.6620959 116.3149510
v -3.9111573 86.1159832 116.2549885
v -3.6145471 86.0135152 116.3495919
v -4.1913723 86.1544437 116.3939352
v -4.4992500 86.1397593 116.2901949
v -4.7045037 86.0865768 116.4288099
v -5.4636947 85.4564158 116.3780306
v -5.3221325 85.6812753 116.4805311
v -5.6247261 85.0523289 116.4112377
v -5.6374715 84.5009461 116.4468796
v -5.2245326 83.7206646 116.6371941
v -3.8665017 83.3974409 116.6159146
v -3.2996892 83.6986072 116.7889482
v -2.8508790 84.9047835 116.7527705
v -2.8622115 84.9853044 116.8848487
v -3.0857212 85.5527989 116.9253656
v -3.9031703 86.1185013 116.8771930
v -3.6702363 86.0461863 116.9781588
v -4.2773265 86.1539689 117.0263424
v -4.4387998 86.1415625 116.9128309
v -4.7131981 86.0790567 117.0573412
v -5.3621473 85.6161512 116.9905444
v -5.4572692 85.4917567 117.1226008
v -5.6577468 84.8316407 117.0517937
v -5.6515131 84.8821012 117.1705359
v -5.5940217 84.3431919 117.0875713
v -5.6040212 84.3658096 117.2063934
v -5.3944297 83.9323087 117.1163554
v -4.9877278 83.5415278 117.1620215
v -5.3467369 83.8606680 117.2465316
v -4.9088489 83.5067375 117.2884298
v -4.3540569 83.3424844 117.2028499
v -4.3853652 83.3458356 117.3272485
v -3.8401895 83.4068880 117.2440444
v -3.4069628 83.6201484 117.2782791
v -2.9754335 84.1304226 117.3217241
v -2.9288115 84.2585044 117.4572894
v -2.8477962 84.7012405 117.4895052
v -3.0602265 85.5059314 117.4254590
v -2.9016390 85.1633504 117.5206642
v -3.4723166 85.9289811 117.4682153
v -5.4275251 85.5335898 117.6236363
v -5.1330848 85.8546696 117.7124366
v -5.4884694 85.4114721 117.7556817
v -5.6331942 85.0106708 117.7866844
v -5.6015549 84.3243986 117.7163931
v -5.6214908 84.4048885 117.8274990
v -5.2175004 83.7195744 117.7649100
v -4.5813328 83.3722735 117.8187764
v -4.0851476 83.3543708 117.9743632
v -3.9912113 83.3681787 117.8577051
v -3.4650854 83.5755455 117.8935448
v -3.0723341 83.9602609 118.0613400
v -2.8430405 84.8373827 117.9991157
v -2.8547914 84.5632140 118.1013057
v -3.0372105 85.4827861 118.0457509
v -3.0610073 85.5157196 118.1706201
v -3.5601587 85.9847629 118.0993394
v -4.0980927 86.1459334 118.1413581
v -3.6317321 86.0285076 118.2281132
v -4.5740308 86.1216993 118.1742828
v -4.7604183 86.0567043 118.3119752
v -5.1640871 85.8329279 118.2191179
v -5.1143663 85.8607873 118.3390279
v -5.4759785 85.4471917 118.3787721
v -5.6518804 84.8983910 118.4213712
v -5.5342750 84.1820462 118.3473821
v -5.6062367 84.3857094 118.4574367
v -5.2737716 83.7806934 118.3845191
v -5.4005182 83.9315212 118.4898844
v -4.8139595 83.4597892 118.4210000
v -4.0765756 83.3422265 118.5968856
v -3.5122261 83.5430704 118.5186973
v -3.5503405 83.5341099 118.6372431
v -3.1741462 83.8356281 118.6714488
v -2.8997976 84.3525082 118.7107118
v -2.8548102 84.5648749 118.6095839
v -2.9073873 85.2041405 118.6520942
v -2.8468477 84.8627905 118.7509119
v -3.3400902 85.8365431 118.7061693
v -3.0325588 85.4751708 118.7926135
v -3.9417480 86.1255166 118.7552155
v -3.4782322 85.9299981 118.8438161
v -3.8382772 86.0906855 118.8681243
v -4.4846086 86.1378640 118.7919017
v -4.3022275 86.1585330 118.9001355
v -4.9344787 85.9778815 118.8277237
v -5.3725589 85.6102550 118.8695967
v -4.9191150 85.9959115 118.9436951
v -5.3151055 85.6651227 118.9849024
v -5.6246037 85.0527850 118.9117384
v -5.5615915 85.2602540 119.0143147
v -5.6623483 84.6346802 119.0612982
v -5.6282066 84.4208653 118.9586975
v -5.3297690 83.8466972 119.0018218
v -4.9042684 83.5008473 119.0410673
v -4.9646687 83.5371801 119.1588168
v -4.3552992 83.3473255 119.0706285
v -3.8592772 83.3956829 119.1168934
v -3.9979732 83.3675399 119.2295119
v -3.2732142 83.7243521 119.1653859
v -3.5147829 83.5460608 119.2651115
v -3.1605228 83.8658362 119.3012405
v -2.9546193 84.2078359 119.2038707
v -2.9348575 84.2431111 119.3289293
v -2.8391656 84.6972054 119.2396080
v -2.9789797 85.3768390 119.2890885
v -2.8435552 84.9517402 119.3804966
v -3.7253023 86.0561203 119.3638223
v -3.8965746 86.1076941 119.4999953
v -4.2488474 86.1595225 119.4020481
v -4.7263005 86.0709897 119.4363475
v -5.1444539 85.8371081 119.4678207
v -4.9065211 85.9930918 119.5724895
v -5.4386228 85.5006226 119.5011681
v -5.6409226 84.9938852 119.5407810
v -5.6376858 84.9977709 119.6617107
v -5.6270549 84.4571317 119.5694877
v -5.6369015 84.5389375 119.6945516
v -5.4257941 83.9793177 119.6149386
v -5.0213606 83.5670114 119.6541793
v -5.0552933 83.5932141 119.7737579
v -4.4616482 83.3567852 119.6965727
v -4.6055263 83.3915061 119.8114906
v -3.8655148 83.3893128 119.7443577
v -4.1080861 83.3468086 119.8463631
v -3.5787369 83.5126992 119.8859715
v -3.1651593 83.8527885 119.9232510
v -2.8962798 84.3492694 119.9624063
v -2.8818360 85.1326432 119.8937508
v -2.8504167 84.8840608 120.0032888
v -3.2603671 85.7569730 119.9483845
v -3.6884287 86.0370739 119.9856560
v -3.6778146 86.0495108 120.1054739
v -4.3758219 86.1542326 120.1566651
v -4.8373431 86.0255114 120.1924873
v -5.3607083 85.6257357 120.1153402
v -5.2829116 85.7161298 120.2270143
v -5.6420603 85.0004614 120.1628471
v -5.5617937 85.2510732 120.2691252
v -5.6207065 84.4455995 120.2056949
v -5.4558126 84.0237214 120.2357394
v -5.5514365 84.2219538 120.3441389
v -5.1187753 83.6437006 120.2715068
v -5.2764917 83.7846032 120.3806097
v -4.6632987 83.4041586 120.3061256
v -4.8252266 83.4630604 120.4181073
v -4.2702430 83.3465416 120.3371759
v -3.8236688 83.4088661 120.3666440
v -4.1365181 83.3343432 120.4707544
v -3.3995602 83.6279518 120.4037330
v -2.9810681 84.1189017 120.4513796
v -2.8426063 84.7403487 120.4973326
v -2.8733124 84.4254547 120.5949519
v -2.9139262 85.1822403 120.5255105
v -3.1303009 85.6032653 120.5583777
v -2.8879297 85.1307026 120.6417440
v -3.1507495 85.6260243 120.6823723
v -3.5275048 85.9603942 120.5961054
v -3.9291459 86.1156995 120.6273094
v -3.9274949 86.1243433 120.7481172
v -4.4133457 86.1530992 120.6632695
v -5.0727862 85.9039262 120.7132681
v -4.5801360 86.1227540 120.7960593
v -5.0963151 85.8745805 120.8363574
v -5.4880161 85.4197405 120.7574516
v -5.4337253 85.5114216 120.8711966
v -5.6617709 84.8359526 120.7968070
v -5.5506388 84.2063171 120.8476673
v -5.6509127 84.6314410 120.9408812
v -5.2863444 83.8022941 120.8818178
v -4.9286333 83.5165082 120.9153580
v -4.3237553 83.3365425 120.9574721
v -4.5363073 83.3605054 121.0640827
v -3.8958331 83.3870538 121.1140428
v -3.1891104 83.8180883 121.0487647
v -3.3883058 83.6342403 121.1523889
v -3.1148813 83.9270742 121.1805973
v -2.9222383 84.2881777 121.0863839
v -2.8403071 84.7646934 121.1203916
v -2.9637036 85.3216993 121.1613701
v -2.8434549 84.8969451 121.2528446
v -3.2534038 85.7440575 121.1981400
v -3.0570856 85.5006748 121.2963499
v -3.6727480 86.0337681 121.2336276
v -3.4688505 85.9260338 121.3411070
v -4.7425609 86.0758707 121.4341087
v -5.3418845 85.6413412 121.3633708
v -5.6247882 85.0825048 121.4084557
v -5.6616229 84.7649924 121.5529633
v -4.7628801 83.4378805 121.5506163
v -4.0986631 83.3380691 121.5945318
v -4.2379208 83.3336980 121.7107073
v -3.6354096 83.4855513 121.7565396
v -3.2432868 83.7651326 121.7884578
v -2.9039346 85.1854386 121.7708686
v -2.8840688 85.1165366 121.8902130
v -3.2521468 85.7426315 121.8220530
v -3.2159753 85.7110052 121.9406234
v -3.6022544 85.9958769 121.8529861
v -4.1219517 86.1565802 121.8894060
v -3.6455152 86.0189706 121.9769088
v -4.6336145 86.1024314 121.9289871
v -5.0638008 85.9012835 121.9596733
v -5.5256400 85.3674804 122.0135941
v -5.2178226 85.7892894 122.1010746
v -5.5809974 85.2151514 122.1490539
v -5.6540872 84.6784267 122.1849141
v -5.4137233 83.9500420 122.1179075
v -4.9342565 83.5138277 122.1641099
v -5.2523675 83.7512076 122.2545490
v -4.2925304 83.3371352 122.2083608
v -4.6006121 83.3761488 122.3129777
v -3.7541169 83.4364017 122.2516015
v -3.6301931 83.4840640 122.3788550
v -3.0233439 84.0571543 122.3186797
v -3.1973763 83.8142633 122.4170793
v -2.8699880 84.4904390 122.3509774
v -2.9135445 84.3023268 122.4588448
v -2.8647808 85.0361244 122.3908580
v -2.8460111 84.8731091 122.4994016
v -3.1580173 85.6466120 122.4407869
v -2.9947585 85.3864874 122.5389022
v -3.7185541 86.0606128 122.4885960
v -4.2492458 86.1542092 122.5255198
v -4.0300934 86.1368913 122.6334997
v -4.5907113 86.1225743 122.6726898
v -5.0851970 85.8788072 122.5889452
v -5.0904016 85.8769147 122.7126131
v -5.4009465 85.5581543 122.6193037
v -5.6396910 85.0274903 122.6625647
v -5.4622491 85.4742221 122.7522589
v -5.6568974 84.8659070 122.7937593
v -5.5705290 84.2266561 122.7218646
v -5.5808448 84.2924374 122.8353168
v -5.1806224 83.6959494 122.7695085
v -5.2793726 83.7814418 122.8805802
v -4.8042475 83.4594143 122.7956529
v -4.8465286 83.4785656 122.9183368
v -4.3987445 83.3515475 122.8279157
v -3.7631202 83.4180793 122.8762089
v -4.3766709 83.3457664 122.9479307
v -3.7828446 83.4193577 122.9939720
v -3.2554548 83.7564527 122.9190312
v -3.3423517 83.6770607 123.0280055
v -2.9825933 84.1415353 122.9488788
v -2.8537479 84.5712153 122.9828566
v -2.9764316 84.1345052 123.0708697
v -2.8944403 85.1449036 123.0231233
v -3.2267730 85.7262985 123.0747042
v -2.9236863 85.2341186 123.1537892
v -3.2212444 85.7106227 123.1921432
v -3.8533028 86.1105647 123.1226400
v -3.5652696 85.9758591 123.2223709
v -4.1021643 86.1565543 123.2597870
v -4.4923972 86.1365719 123.1684416
v -5.0380367 85.9195524 123.2060467
v -4.6231077 86.1034476 123.2995356
v -5.4572082 85.4875075 123.2531904
v -5.4698954 85.4568750 123.3770910
v -5.6417071 84.9407824 123.2918175
v -5.6341903 84.4712070 123.3275858
v -5.6695079 84.7961912 123.4252869
v -5.3128843 83.8077273 123.3771223
v -5.4812958 84.0539257 123.4779370
v -5.0409399 83.5835433 123.5251008
v -4.5667421 83.3802269 123.5630038
v -3.6267722 83.4761711 123.6309858
v -3.1144927 83.9180171 123.5569547
v -2.9024949 84.3494518 123.5910147
v -3.0672647 83.9741921 123.6832948
v -2.8529427 84.5623893 123.7289359
v -2.8806631 85.0678956 123.7676767
v -3.0502794 85.4828981 123.6729117
v -3.0430341 85.4676606 123.7951724
v -3.3228569 85.8067267 123.7043378
v -3.8132718 86.0928679 123.7425252
v -3.3835711 85.8646889 123.8316800
v -3.8878167 86.1099887 123.8696328
v -4.3569363 86.1535190 123.7834706
v -4.3369089 86.1504058 123.9048277
v -4.9073735 85.9976024 123.8229043
v -4.8026869 86.0519392 123.9345752
v -5.3841658 85.5948988 123.8707311
v -5.3461761 85.6397541 123.9861694
v -5.6529073 84.9362279 123.9181865
v -5.6017425 85.1418289 124.0237830
v -5.6522887 84.6276898 124.0616877
v -5.4951415 84.0891773 124.1016440
v -5.1710373 83.6865741 124.1391356
v -4.4452314 83.3562460 124.0731594
v -3.9592464 83.3728565 124.1109393
v -3.4265080 83.6038439 124.1506910
v -3.8187413 83.4028524 124.2391286
v -2.9099870 84.3051761 124.2129381
v -3.1831904 83.8146287 124.2919371
v -2.8736919 84.4338976 124.3476066
v -2.8668423 85.0014019 124.3858214
v -3.0452131 85.4709463 124.3009187
v -2.9939846 85.3779431 124.4148150
v -3.2912360 85.7830649 124.4489139
v -3.9995119 86.1478974 124.3845728
v -3.7537754 86.0671414 124.4871773
v -4.6689200 86.0940263 124.4315502
v -4.5783494 86.1191170 124.5489648
v -5.1208542 85.8553923 124.4676874
v -5.0049922 85.9345995 124.5787029
v -5.4578022 85.4733972 124.5037503
v -5.6249013 85.0360207 124.5357966
v -5.6390611 84.4552953 124.5799911
v -5.3029977 83.8124531 124.6291413
v -5.4987976 84.0916054 124.7266403
v -4.8744473 83.4880757 124.6679605
v -4.3612391 83.3475653 124.7038465
v -4.6331773 83.3975256 124.8074825
v -3.8927441 83.3882173 124.7394121
v -4.0836649 83.3488117 124.8456579
v -3.3670316 83.6492652 124.7800236
v -3.5419961 83.5328618 124.8875325
v -2.9646700 84.1586644 124.8269946
v -3.1212153 83.9051061 124.9267913
v -2.8394906 84.8873529 124.8804583
v -2.8775602 84.4257512 124.9693330
v -2.8540987 84.9028996 125.0028586
v -3.0542873 85.4927197 124.9252677
v -3.0079716 85.4211702 125.0403064
v -3.3790443 85.8538999 124.9584411
v -3.3215592 85.8032553 125.0744956
v -4.2860804 86.1595733 125.0300277
v -4.7534593 86.0609188 125.0623962
v -5.1675826 85.8201510 125.0970586
v -4.8028386 86.0527301 125.1939307
v -5.4528120 85.4720258 125.1291541
v -5.3398018 85.6474367 125.2341132
v -5.6281877 85.0689647 125.2865258
v -5.3494901 83.8693796 125.2499241
v -5.3514923 83.8578987 125.3721882
v -5.0046710 83.5666632 125.2815534
v -4.5891414 83.3825553 125.3118159
v -4.8221312 83.4622509 125.4179636
v -4.3561389 83.3498951 125.4534728
v -3.9178803 83.3832774 125.4868335
v -3.2408952 83.7621966 125.4205387
v -3.3495151 83.6551086 125.5265221
v -2.9452982 84.2263076 125.4563396
v -2.8452832 84.6915124 125.4890225
v -2.9352358 85.2786261 125.5359963
v -2.8503817 84.8635622 125.6261571
v -2.9458766 85.2793009 125.6559261
v -3.2848003 85.7719971 125.5767917
v -3.6439493 86.0167619 125.6044916
v -3.3302733 85.8320176 125.7057672
v -4.0907005 86.1489560 125.6363636
v -4.6414408 86.1065446 125.6789198
v -4.0307157 86.1471609 125.7547772
v -5.0744376 85.8867205 125.7136080
v -5.4547752 85.4910840 125.7530848
v -5.2884215 85.6952623 125.8569759
v -5.5771768 85.2392239 125.8941536
v -5.6488804 84.9053652 125.7968583
v -5.5847584 84.2742797 125.8419759
v -5.6533726 84.7007172 125.9335744
v -5.5787182 84.2852863 125.9660649
v -5.3331921 83.8548916 125.9987285
v -4.9405831 83.5205640 126.0346203
v -4.4747463 83.3569639 125.9473252
v -3.9153414 83.3844839 125.9849942
v -4.3830959 83.3458013 126.0757752
v -3.9319098 83.3835497 126.1090871
v -3.4733244 83.5757043 126.0203936
v -3.5207175 83.5455943 126.1401301
v -3.0127327 84.0536150 126.0645149
v -3.1196025 83.9093131 126.1762480
v -2.8534302 84.5101341 126.2207544
v -2.9054831 85.1603720 126.1487862
v -2.8787961 85.0538139 126.2646890
v -3.1189412 85.5877737 126.1845344
v -3.4752709 85.9230660 126.2175899
v -3.9269466 86.1200519 126.2515031
v -4.3264972 86.1508176 126.2811025
v -4.7915225 86.0539419 126.3150606
v -4.4146629 86.1547582 126.4155700
v -5.3294599 85.6609045 126.3604109
v -4.9840396 85.9508754 126.4509406
v -5.3685395 85.6052478 126.4880148
v -5.5899206 85.1811602 126.4015584
v -5.6530709 84.6134691 126.4400349
v -5.6328912 85.0467652 126.5308563
v -5.4687420 84.0317996 126.4857148
v -5.6193087 84.4055245 126.5819567
v -5.3656858 83.8945413 126.6202418
v -4.9594115 83.5258908 126.5335809
v -5.0521448 83.5973379 126.6525752
v -4.4368836 83.3576841 126.5772615
v -4.6687768 83.4060879 126.6782199
v -4.0758483 83.3479567 126.7249146
v -3.5440638 83.5332843 126.7635906
v -3.0310405 84.0341659 126.6910669
v -3.1362311 83.8852878 126.8021658
v -2.8833821 84.4043683 126.8430179
v -2.8518506 84.8973660 126.8788529
v -3.1087040 85.5741534 126.8056962
v -3.0162859 85.4363015 126.9154945
v -3.8508837 86.1062388 126.8719907
v -3.9796978 86.1275720 127.0032635
v -4.4185024 86.1455822 126.9128067
v -4.8762960 86.0105419 126.9480725
v -4.5287052 86.1391874 127.0399637
v -5.2818912 85.7073020 126.9826235
v -5.5747750 85.2345896 127.0218102
v -5.2318276 85.7744193 127.0957484
v -5.5945931 85.1731917 127.1513696
v -5.5102039 84.1232522 127.1066178
v -5.4433597 83.9997028 127.2371524
v -4.9964170 83.5488852 127.2814338
v -4.1960603 83.3476043 127.2153974
v -3.7695911 83.4267805 127.2486719
v -3.2830814 83.7210900 127.2870179
v -3.2780835 83.7295609 127.4093157
v -2.9367656 84.2367418 127.3327288
v -3.0113045 84.0881241 127.4429937
v -2.8412528 84.8763589 127.3782727
v -2.8695343 84.4834821 127.4722286
v -3.0139475 85.4197714 127.4182441
v -2.8799914 85.1012023 127.5144983
v -3.3793953 85.8647593 127.4590356
v -3.9624497 86.1299614 127.5041892
v -3.6917597 86.0440365 127.6056043
v -4.8923148 86.0098396 127.5771345
v -4.3203222 86.1621826 127.6548598
v -4.8958769 86.0002118 127.6938819
v -5.3394606 85.6384664 127.6135853
v -5.5143011 85.3778126 127.7556544
v -5.6229498 84.3984556 127.7060044
v -5.6578047 84.8155672 127.8043582
v -5.5709483 84.2700684 127.8379422
v -4.9315537 83.5179490 127.7879811
v -5.0198359 83.5721090 127.9025075
v -4.5541128 83.3788757 127.8160234
v -4.1161456 83.3513232 127.8462995
v -3.6791418 83.4607590 127.8786598
v -3.5594115 83.5183879 128.0084856
v -2.8465526 84.6995977 127.9902914
v -2.9104759 85.1906260 128.0250375
v -2.8540637 84.9972852 128.1300257
v -3.1412608 85.6191777 128.1814898
v -3.8093113 86.0859641 128.1184096
v -3.8663423 86.1019877 128.2487607
v -4.3747820 86.1566915 128.1593399
v -4.3613613 86.1552483 128.2798458
v -5.2126550 85.7766307 128.2273832
v -4.8850178 86.0090973 128.3238599
v -5.3107926 85.6695628 128.3578939
v -5.6319625 85.0168545 128.2865837
v -5.5440926 85.3027136 128.3877604
v -5.4983240 84.0959713 128.4751849
v -4.9465397 83.5190042 128.4146592
v -4.3571568 83.3487420 128.4571448
v -4.6373146 83.4003826 128.5595633
v -6.1989936 86.7795152 114.9999969
v -6.6690190 86.1685483 114.9999969
v -6.9736612 85.4564871 114.9995122
v -5.3239542 87.3554450 114.9999969
v -7.0591011 84.9122422 114.9999969
v -4.1571356 87.5715452 114.9999969
v -6.9296690 83.8809553 114.9998006
v -3.2442866 87.3707057 114.9996525
v -6.5107324 83.0751007 114.9998778
v -2.5324071 86.9826362 114.9999101
v -6.1558747 82.6862548 114.9995800
v -1.8650401 86.2371201 114.9996492
v -5.3655127 82.1653161 114.9999577
v -1.6050654 85.6895405 114.9999969
v -4.3728321 81.9265795 114.9997403
v -1.4386934 84.8681592 114.9999969
v -3.2427826 82.1226934 114.9999969
v -1.5086615 84.1334877 114.9993900
v -1.7305382 83.5127246 114.9999969
v -2.2949866 82.7134155 114.9999969
v -7.0518511 84.6796295 114.4935749
v -5.9855105 86.9470390 114.5107477
v -4.2028291 87.5592149 114.5452494
v -1.4643398 85.0466096 114.5748705
v -2.4869066 82.5718260 114.5336174
v -6.1348260 84.6573531 113.2602359
v -6.9097591 84.6703081 113.9036363
v -6.6061109 84.6378685 113.4985511
v -5.6313507 83.5961318 113.2407253
v -4.4338439 82.9684390 113.2407166
v -3.8019402 83.0497822 113.2417090
v -1.4648535 84.5408737 114.4009175
v -2.4251125 84.3794912 113.2619240
v -6.9462636 84.0373189 114.3607818
v -6.7437465 83.5131450 114.3163591
v -6.7238099 84.3540541 113.6482076
v -6.8451742 83.9725640 114.0128887
v -6.4542254 83.1679979 114.0365385
v -6.6227827 83.6825659 113.7912657
v -6.3350721 82.9164651 114.2446034
v -5.7657907 82.3958677 114.4140434
v -6.2855369 83.2833220 113.6564276
v -6.2790584 83.6732201 113.4477455
v -5.1166797 82.1006055 114.3491221
v -5.8004603 82.5857144 113.8884460
v -5.9371826 82.8913633 113.6577071
v -6.1242089 83.9840886 113.3090111
v -4.5564932 81.9762994 114.3590958
v -4.9501407 82.1402349 113.9912390
v -4.8484556 82.3343912 113.6291018
v -5.2471177 82.3701800 113.7545068
v -3.9459349 81.9668457 114.5094540
v -3.6085491 82.0333106 114.3728150
v -4.2140228 82.0153554 114.1183870
v -5.4372513 82.7219652 113.4979509
v -5.6244473 83.1440367 113.3413365
v -4.5515234 82.4150357 113.4896456
v -4.1055088 82.1593394 113.7780981
v -3.4184904 82.1837660 113.9826755
v -4.7799382 82.7890964 113.3145467
v -3.5626789 82.4414812 113.5336529
v -2.7610730 82.6260239 113.7800392
v -2.8232502 82.7768867 113.5778376
v -2.7700350 83.0954722 113.4035363
v -2.3287637 83.2596677 113.5730187
v -3.2202271 82.7155188 113.4448203
v -2.3858266 82.9542680 113.7695382
v -1.5808947 84.0142910 114.2450416
v -3.4700003 82.8945961 113.3103888
v -2.1191970 83.2948841 113.7610443
v -1.9114301 83.7622030 113.6943571
v -2.2046470 83.7609839 113.4255244
v -1.5766139 84.4473803 113.9878443
v -1.5502592 84.7810940 113.9916171
v -1.7792067 84.2302140 113.6722089
v -2.9790808 83.5005108 113.2411108
v -2.0860518 84.5741154 113.3808189
v -2.7313677 84.5560229 113.2054592
v -3.0481041 82.2243223 114.4220526
v -2.7228080 82.4765483 114.1284220
v -4.0597299 82.7589258 113.3043763
v -3.4603944 82.5503990 113.4963027
v -2.0464498 83.0228815 114.4920231
v -3.5860922 82.6378722 113.4109560
v -3.6679924 82.7565340 113.3400904
v -3.6344572 82.7666902 113.3400748
v -3.7064065 82.7457615 113.3400748
v -2.3190444 82.8175942 114.1066950
v -3.7416121 82.8936289 113.2836591
v -2.0373743 83.1415669 114.1228303
v -1.9231395 83.3682394 114.0438239
v -1.8000053 83.6771291 113.9579950
v -1.7231138 83.5593737 114.3465427
v -1.7012245 83.9961842 113.9186969
v -2.9201456 83.2942406 113.2928398
v -2.4276227 83.7424514 113.3356537
v -1.7738709 84.9400281 113.6173203
v -5.2242641 85.3124681 113.2000000
v -5.0205908 85.8565706 113.1987034
v -4.2020843 85.9034665 113.1901164
v -5.2415739 84.1825175 113.1919566
v -3.2583475 85.3127591 113.1927304
v -4.2800186 83.5990323 113.1910675
v -3.2742869 84.1348561 113.1901260
v -5.2242641 85.3124681 114.2000519
v -4.2499573 85.8749789 114.2000519
v -5.2242641 84.1875319 114.2000519
v -4.2499573 83.6250211 114.2000519
v -3.2757359 84.1875319 114.2000519
v -3.2757359 85.3124681 114.2000519
v -1.6155588 85.5009862 114.0955877
v -1.9943247 85.4002097 113.4821906
v -2.3757911 85.5159114 113.3090111
v -2.3859902 84.9357909 113.2613518
v -2.8686493 85.9038682 113.2407253
v -3.9713612 86.5651795 113.2479670
v -4.6980598 86.4502178 113.2417090
v -7.0115283 85.0795972 114.3509734
v -1.5839260 85.6087942 114.5433431
v -1.8052968 86.0684882 114.3114456
v -2.2772167 86.7466935 114.4784833
v -2.0457746 86.3320021 114.0365385
v -1.8772173 85.8174341 113.7912657
v -2.3107679 86.6866474 114.1414378
v -2.2144631 86.2166780 113.6564276
v -2.6508860 86.8238931 113.8047252
v -2.9022294 87.1758871 114.2439084
v -2.5261343 86.1808166 113.4132761
v -2.5628174 86.6086367 113.6577071
v -3.6161856 87.4644583 114.3467529
v -3.3389811 87.3269690 114.1078619
v -3.1872599 86.7713108 113.4376275
v -3.6515444 87.1656088 113.6291018
v -3.7926643 87.3967553 113.9772047
v -3.2588213 87.1570127 113.7930030
v -4.8878762 87.4681020 114.3805050
v -4.2859772 87.4846446 114.1183870
v -3.0210701 86.2929775 113.2943424
v -4.0832900 87.0440630 113.4507974
v -4.3944912 87.3406606 113.7780981
v -5.0815096 87.3162340 113.9826755
v -4.4402701 86.7410742 113.3043763
v -5.7389270 86.8739761 113.7800392
v -5.6767498 86.7231133 113.5778376
v -5.7299650 86.4045278 113.4035363
v -6.1643126 86.1700266 113.5237379
v -5.2797729 86.7844812 113.4448203
v -6.1141734 86.5457320 113.7695382
v -6.9191053 85.4857090 114.2450416
v -5.0299997 86.6054039 113.3103888
v -6.3808030 86.2051159 113.7610443
v -6.5885699 85.7377970 113.6943571
v -6.9233877 85.0526129 113.9878462
v -5.5009801 86.1354716 113.2586249
v -5.9886491 85.2641847 113.2449059
v -6.7207964 85.2697755 113.6722094
v -5.8242065 84.9625616 113.2095916
v -5.4518959 87.2756777 114.4220526
v -5.7771920 87.0234517 114.1284220
v -5.0396056 86.9496010 113.4963027
v -6.3629524 86.5870900 114.5315584
v -4.9139078 86.8621278 113.4109560
v -4.8320076 86.7434660 113.3400904
v -4.8655428 86.7333098 113.3400748
v -6.7333105 86.0567283 114.5286028
v -4.7935935 86.7542385 113.3400748
v -6.1809556 86.6824058 114.1066950
v -4.7583879 86.6063711 113.2836591
v -6.4626257 86.3584331 114.1228303
v -6.5768605 86.1317606 114.0438239
v -6.6999947 85.8228709 113.9579950
v -6.7225949 85.9561804 114.1712285
v -6.7987755 85.5038158 113.9186969
v -6.0723773 85.7575486 113.3356537
v -6.4177138 85.2208053 113.4023359
v -4.9373211 87.0585188 113.5336529
v -4.1396185 83.3438017 128.5911552
v -3.5889046 83.5054181 128.5137560
v -3.1610243 83.8541921 128.5548653
v -2.9084733 84.2995358 128.6132193
v -2.8613008 84.5727044 128.6065370
v -2.8548066 84.6345507 128.6251011
v -2.8508759 84.6998140 128.6154574
v -2.8501068 84.7672982 128.6200381
v -2.8527558 84.8372597 128.6251011
v -4.2507776 85.8540815 115.4003683
v -4.6452889 85.7866352 115.4382564
v -4.9898003 85.5724116 115.4731591
v -5.2670293 85.2013385 115.5151239
v -5.3529453 84.5724735 115.5752092
v -5.0832474 84.0163560 115.6283028
v -4.7674911 83.7714095 115.6618744
v -4.3447781 83.6464957 115.7018626
v -3.7796446 83.7335896 115.7541418
v -3.1394676 84.8874383 115.8846559
v -5.1772295 85.3535533 116.1255629
v -5.3383447 84.9580068 116.1638162
v -4.5745804 83.6821584 116.3086000
v -5.0827097 84.0088815 116.8756014
v -3.1438298 84.7737516 117.1212142
v -4.0969916 85.8544260 117.2572694
v -5.0164408 85.5473998 117.3513544
v -4.6186939 83.6850942 117.5531509
v -3.6071521 83.8514549 117.6508954
v -3.1314025 84.6990269 117.7386644
v -5.3894845 85.5764416 115.2445388
v -2.8766885 84.4636707 115.5955805
v -3.2847808 84.1943979 115.8196311
v -3.3138625 85.3322954 115.9226255
v -3.8734305 86.1046097 115.7447731
v -3.6189548 85.6775265 115.9654620
v -4.2848081 85.8625926 116.0286294
v -5.3010805 85.7002636 115.8544668
v -4.8455799 85.6902954 116.0781896
v -5.3221917 84.4415995 116.2095011
v -5.0159017 83.9476347 116.2600991
v -3.9297289 83.6813209 116.3669590
v -3.4692311 83.9614997 116.4135574
v -2.9826081 84.1160553 116.1940710
v -3.1915587 84.3967785 116.4615775
v -2.9549282 85.3010850 116.2798202
v -3.1627965 85.0024906 116.5158770
v -3.5205386 85.5991220 116.5751601
v -4.1263784 85.8526673 116.6398123
v -4.7424533 85.7595796 116.6950708
v -5.2148717 85.2950275 116.7543049
v -5.6467958 84.9719227 116.5392363
v -5.3429002 84.9236296 116.7904694
v -5.5955993 84.3233475 116.5822948
v -5.3223328 84.4729923 116.8321117
v -4.5155073 83.3560557 116.6903030
v -4.5055724 83.6591764 116.9405964
v -3.8776949 83.3925360 116.7362847
v -3.4571212 83.9791858 117.0410257
v -3.8358444 83.7191083 117.0031629
v -2.8898105 84.3528135 116.8424571
v -3.2211895 85.1637338 117.1552796
v -5.0794719 85.8811136 117.0866682
v -4.6461874 85.7873235 117.3115570
v -5.2531282 85.2248324 117.3883512
v -5.3560075 84.5359831 117.4502299
v -3.7059439 83.4410108 117.3795921
v -3.9363902 83.6849772 117.6172297
v -3.1851322 83.8322155 117.4223723
v -3.2984032 84.1787315 117.6898772
v -5.2431215 85.7427936 115.7266957
v -5.5181632 85.3602269 115.7636096
v -5.6522323 84.8706342 115.8017427
v -4.3648860 83.3365915 115.9614278
v -3.2513388 83.7512896 116.0402203
v -3.4195382 85.8888424 116.2160827
v -5.1006239 85.8797646 116.3429811
v -5.4398476 83.9983556 116.4900614
v -5.0466516 83.5839691 116.5306994
v -4.4035814 83.3456610 116.5717322
v -3.4950721 83.5661136 116.6436483
v -3.1566957 83.8636422 116.6787873
v -2.8942639 84.3642320 116.7191372
v -2.9895558 85.3761612 116.7934650
v -3.3494612 85.8371987 116.8337966
v -4.9111506 85.9973102 116.9517923
v -5.5533261 85.2661638 117.0214453
v -3.2237773 84.3285332 117.0814217
v -2.8405804 84.8838018 117.3745031
v -3.5637908 85.6250270 117.2088849
v -4.1380338 86.1616844 117.5215672
v -4.8806061 86.0188615 117.5668590
v -5.6403298 84.9683564 117.6688594
v -5.1033431 84.0439900 117.5007201
v -2.9738095 84.1249288 117.9516421
v -4.4833278 85.8336376 117.9207424
v -5.0074449 85.5715835 117.9776846
v -4.5315198 85.8211655 118.5523410
v -3.6540802 83.8149723 118.8957726
v -3.1407939 84.8383079 118.9996513
v -5.0607747 83.9852988 119.3852789
v -3.2166905 84.3344925 119.5806814
v -3.2023357 85.1310982 119.6564607
v -5.3197456 85.0721397 119.9042732
v -3.3936802 85.4807405 117.8140880
v -3.9576848 85.8262510 117.8739313
v -5.5246495 85.3429786 118.2654181
v -5.6669379 84.7505385 118.3121494
v -5.2759488 84.3284179 118.0960778
v -5.0336237 83.9707109 118.1344512
v -4.7165218 83.7416464 118.1716095
v -4.0465283 83.6494884 118.2275196
v -4.3276675 83.3460337 118.4586956
v -3.9226397 83.3866802 118.4869642
v -3.4387983 83.9787183 118.2948866
v -3.0361974 84.0290279 118.5688513
v -3.1483443 84.5592848 118.3517054
v -3.1958352 85.0959986 118.4016068
v -3.4083667 85.4680755 118.4395378
v -3.6975444 85.7100203 118.4744481
v -4.9276451 85.6279522 118.5920203
v -5.2767509 85.1753803 118.6426736
v -5.0871511 84.0074600 118.7535854
v -4.5792796 83.6846795 118.8068547
v -4.0875327 83.6536364 118.8526043
v -3.2627091 84.2301759 118.9453012
v -3.3115829 85.3384569 119.0502563
v -3.5815752 85.6331640 119.0857197
v -3.3378275 85.8175055 119.3297112
v -3.9590762 85.8202681 119.1255603
v -4.4118118 85.8447787 119.1648441
v -4.7903794 85.7187638 119.2027287
v -5.1285706 85.4225929 119.2415438
v -5.3115321 85.0719933 119.2783788
v -5.3329954 84.4921462 119.3298517
v -4.1583027 83.6474822 119.4709930
v -3.2733565 83.7302928 119.7911728
v -2.9026204 84.3113126 119.8414604
v -3.5027175 85.5702362 119.7016221
v -3.9398803 85.8224804 119.7463528
v -4.2185024 86.1645960 120.0264111
v -4.4241916 85.8463377 119.7905996
v -4.8292065 86.0351598 120.0675329
v -4.9637942 83.8967312 120.0181457
v -3.7446245 83.7484761 120.1337678
v -3.5396418 85.6066282 120.3313040
v -5.0008731 85.5717147 120.4769293
v -5.3673625 84.7401802 120.5602653
v -4.4230163 83.6560236 120.6989850
v -3.5999806 83.8393435 121.3990999
v -3.7775000 83.7330140 122.0052196
v -3.3444528 84.1077832 120.1813622
v -3.1617447 84.5502844 120.2257205
v -3.1890819 85.0915738 120.2776708
v -4.0798059 85.8465599 120.3853705
v -4.5585282 85.8121848 120.4282939
v -5.1597901 84.1183191 120.6182949
v -4.8515738 83.8172105 120.6554118
v -3.8864676 83.6973928 120.7418057
v -3.6986237 83.4524653 121.0042773
v -3.4820988 83.9541682 120.7890491
v -3.2530030 84.2650316 120.8259297
v -3.1995835 85.1030856 120.9028159
v -3.4161754 85.4811567 120.9420181
v -3.7851893 85.7577900 120.9822590
v -4.2716814 85.8578439 121.0269526
v -4.1930017 86.1588722 121.2717429
v -4.8702908 85.6861991 121.0836896
v -4.8226511 86.0431600 121.3130242
v -5.2926692 85.1338510 121.1472000
v -5.6141756 84.3773427 121.4613579
v -5.1353919 84.0857603 121.2457699
v -5.2972623 83.8017119 121.5034848
v -4.8034481 83.7837853 121.2873171
v -4.2042703 83.6389885 121.3431228
v -3.4746874 83.5754001 121.6480578
v -3.0743890 83.9697120 121.6869555
v -3.2370796 84.3011163 121.4521173
v -2.8530282 84.5459298 121.7315592
v -3.1361806 84.8470469 121.5022236
v -3.3151619 85.3464310 121.5521391
v -3.6347408 85.6696234 121.5915826
v -4.4451918 85.8391342 121.6680322
v -4.8178519 85.7022349 121.7020601
v -5.1251298 85.4268213 121.7421545
v -5.3211237 85.0379970 121.7815034
v -5.3441557 84.5879376 121.8213849
v -5.6604293 84.6117239 122.0704774
v -5.2182020 84.2082315 121.8582680
v -4.8558637 83.8140064 121.9035084
v -4.3370811 83.6450532 121.9560254
v -3.2840934 84.1989150 122.0666342
v -3.3695538 83.6519599 122.2799110
v -3.1379311 84.7609060 122.1224066
v -3.2446009 85.2149394 122.1628124
v -3.5056537 85.5709949 122.2019461
v -3.8559033 85.7860891 122.2390266
v -4.3092285 85.8602525 122.2803632
v -4.7318096 85.7440453 122.3197800
v -4.6897029 86.0869598 122.5607667
v -5.3312990 84.9953353 122.4095236
v -5.3389785 84.5328978 122.4507669
v -5.3658415 84.7981524 123.0520706
v -4.4606826 83.6630301 123.1935677
v -3.6398154 83.8268978 123.2706789
v -3.1384070 84.6398571 123.3603099
v -4.9157572 85.6448350 123.5885153
v -4.9572240 83.8974672 123.7682812
v -4.4218535 83.6482074 123.8218261
v -4.5303573 83.6762757 124.4383356
v -3.1487243 84.9438864 124.6353334
v -3.4202173 85.4897609 124.6934256
v -3.8577848 85.7879332 124.7398961
v -5.0492929 83.9664855 122.5088228
v -4.0705815 83.6585980 122.6043962
v -3.5917804 83.8519743 122.6504805
v -3.2090688 84.3379516 122.7067393
v -3.1478615 84.8619471 122.7554850
v -3.2830155 85.2929765 122.7959810
v -3.6780598 85.7041580 122.8464592
v -4.2484508 85.8599263 122.9000083
v -4.8434128 85.6991291 122.9565190
v -5.2222853 85.2829814 123.0050461
v -5.2114609 84.1794302 123.1092812
v -4.8328629 83.8064584 123.1558956
v -4.7812627 83.4483710 123.4241023
v -3.9978682 83.6712640 123.2370052
v -4.2327450 83.3377625 123.4681257
v -3.5448471 83.5233927 123.5127635
v -3.3165280 84.1527192 123.3140905
v -2.8443423 84.9069583 123.6252087
v -3.7875657 85.7617048 123.4842865
v -4.3945488 85.8527763 123.5396969
v -5.2446243 85.2389131 123.6360462
v -5.3532455 84.8475633 123.6735048
v -5.5950855 84.3356893 123.9614229
v -5.3701071 83.8994595 123.9985021
v -4.9675310 83.5362046 124.0360053
v -3.7635280 83.7547873 123.8819327
v -3.3619393 84.0708644 123.9287595
v -3.1215253 83.9186941 124.1814271
v -3.1433413 84.6191669 123.9829512
v -2.8551822 84.9835728 124.2639425
v -3.2347622 85.1942741 124.0343449
v -3.3663681 85.8480498 124.3359649
v -3.5382823 85.6118646 124.0815604
v -4.0323858 85.8379185 124.1317590
v -4.4482953 85.8388808 124.1686290
v -4.8476632 85.6844323 124.2082836
v -5.1508257 85.3924498 124.2451316
v -5.3296756 85.0041934 124.2849953
v -5.3378111 84.5497086 124.3246248
v -5.2009821 84.1786504 124.3616467
v -4.8891410 83.8472859 124.4014894
v -3.8574892 83.7015683 124.5020153
v -3.3837942 84.0588349 124.5520257
v -3.1922529 84.4212321 124.5898952
v -3.7786989 86.0743952 124.9908404
v -4.4363242 85.8506395 124.7927595
v -3.7709055 85.7514239 125.3552900
v -5.3592764 84.7131347 125.5566598
v -3.4494332 83.9779439 125.7931922
v -4.4693715 85.8365042 126.0468298
v -5.1518271 85.3934419 126.1178989
v -5.3245777 85.0077589 126.1578712
v -5.3405727 84.4810587 126.2043398
v -4.5817762 83.6939479 126.3067612
v -3.2058684 84.3823799 126.4601477
v -3.4592566 83.9685702 127.0434100
v -3.1914033 84.4226908 127.0912551
v -3.2519929 85.2387464 127.1656962
v -4.9352061 85.6243282 124.8421639
v -5.2287881 85.2740144 124.8814664
v -5.3658077 84.6385302 124.9414195
v -5.6248371 85.0602513 125.1617460
v -5.6265061 84.4254594 125.2080897
v -5.1855253 84.1598455 124.9885220
v -4.8777285 83.8370948 125.0292092
v -4.4035082 83.6442419 125.0741120
v -4.0433357 83.3564994 125.3547699
v -3.6774617 83.7793085 125.1400836
v -3.6278348 83.4928108 125.3843287
v -3.2411011 84.2904954 125.2022263
v -3.1333773 84.8743443 125.2540302
v -3.4149746 85.4782779 125.3160728
v -4.2650793 85.8643786 125.4021749
v -5.0534247 85.5229765 125.4839772
v -5.2780576 85.1513413 125.5211369
v -5.2424903 84.2562540 125.6029097
v -5.1332750 83.6389640 125.9006119
v -4.5159327 83.6642858 125.6891710
v -3.9311642 83.6822577 125.7410479
v -3.2184518 84.3483506 125.8334870
v -2.8441655 84.6830379 126.1180729
v -3.1411721 84.7870993 125.8719712
v -3.2252290 85.1714504 125.9084443
v -3.4563685 85.5217597 125.9466067
v -3.8989151 85.8094210 125.9932517
v -4.8746728 85.6608020 126.0862006
v -5.0165473 83.9397534 126.2601402
v -4.0546589 83.6496190 126.3551799
v -3.9624869 83.3720852 126.6109888
v -3.4615811 83.5820227 126.6517560
v -3.4785569 83.9407480 126.4128728
v -2.8575264 84.5589567 126.7317197
v -3.1442317 84.9149926 126.5083474
v -2.8783223 85.0728375 126.7680760
v -3.3549540 85.4055747 126.5578164
v -3.8051524 85.7691439 126.6097902
v -3.3981403 85.8644987 126.8363088
v -4.3725768 85.8539684 126.6606755
v -4.8816008 85.6622844 126.7116297
v -5.1942328 85.3264510 126.7518332
v -5.3398136 84.9604875 126.7882097
v -5.2729979 84.2938316 126.8445567
v -5.6558605 84.6490974 127.0668251
v -5.1463368 83.6594251 127.1469099
v -4.9084001 83.8600188 126.8975505
v -4.6271373 83.3939232 127.1879611
v -4.5004113 83.6702551 126.9399697
v -3.1463381 84.8041929 127.1252874
v -5.0166612 85.5768142 128.5995822
v -5.0796818 85.7249761 128.7449241
v -5.1885003 85.6144837 128.7512070
v -5.4224140 85.2241559 128.7712093
v -5.3462010 84.5521672 128.6985904
v -5.3567979 84.2588601 128.8141176
v -5.2929664 84.1462725 128.8199039
v -5.1418182 83.9455218 128.8314825
v -4.6535451 83.7096639 128.7995058
v -4.7386635 83.6753490 128.8531816
v -4.4359831 83.6079364 128.8678813
v -4.3658282 83.6019568 128.8710155
v -4.1636837 83.6443903 128.8456797
v -4.3201122 83.6004192 128.8731853
v -4.1016523 83.6132146 128.8834777
v -3.6796988 83.7845529 128.8987665
v -3.4322946 84.0066619 128.9206526
v -3.6007698 85.6517966 127.2135226
v -4.0190213 85.8306914 127.2561502
v -4.5412156 85.8343153 127.2988619
v -4.4151425 86.1426924 127.5387569
v -5.1128478 85.4549955 127.3629784
v -5.6110376 85.1336762 127.6595968
v -5.3567101 84.8645759 127.4237446
v -5.3012872 84.4103981 127.4651912
v -5.3536419 83.8783009 127.7467544
v -4.6984230 83.7329208 127.5462017
v -4.2020322 83.6389966 127.5902999
v -3.7819804 83.7494724 127.6333174
v -3.4583656 83.9693693 127.6662823
v -3.2871183 83.7284504 127.9153320
v -2.9672980 84.1544239 127.9544032
v -3.1821073 84.4489016 127.7198051
v -3.1598601 84.9781759 127.7645425
v -3.2527677 85.7572175 128.0716922
v -3.4870825 85.5561220 127.8263296
v -3.9796747 85.8334271 127.8781207
v -4.4688902 85.8321950 127.9222081
v -4.9589759 85.6296546 127.9673815
v -4.8834094 86.0021268 128.1983469
v -5.4830856 85.4211305 128.2593681
v -5.3188904 85.0397560 128.0324089
v -5.3514038 84.5964361 128.0699645
v -5.0956736 84.0156204 128.1273747
v -5.6225720 84.4107516 128.3302993
v -5.3628996 83.8916936 128.3744139
v -4.6003905 83.6997514 128.1833602
v -3.9365532 83.6669247 128.2405068
v -3.9557455 83.3769455 128.4855489
v -3.3038059 84.1510796 128.3164275
v -3.1509243 84.6081960 128.3590300
v -3.1909014 85.0900382 128.3981154
v -3.5532723 85.6225206 128.4591628
v -3.1705024 85.5940950 128.6570210
v -3.4907000 85.8778187 128.6745744
v -4.3489481 85.8593014 128.5347368
v -5.0294369 85.7689689 128.7420310
v -4.9768849 85.8105700 128.7391379
v -5.3184092 85.0388096 128.6552314
v -5.1206207 84.0601077 128.7478701
v -5.3217632 84.2069229 128.8112245
v -4.6493858 83.7913615 129.0000676
v -3.6488992 83.9118401 129.0000290
v -4.0916029 83.7247767 129.0000968
v -5.1846426 84.2704991 129.0002120
v -5.4799949 84.5854940 128.7978295
v -5.2520368 85.0323048 129.0001357
v -4.9508539 85.5158063 129.0000847
v -4.6057205 86.0216594 128.7217341
v -4.4584372 85.7657998 129.0000609
v -3.9955078 86.0621100 128.6971240
v -3.9802025 85.7456264 129.0000226
v -3.5855549 85.5419778 129.0000280
v -3.2945790 85.1420814 129.0000838
v -2.9070280 85.1415647 128.6384721
v -3.2220456 84.6857138 129.0000112
v -3.3230367 84.2802174 129.0001087
v -3.1715315 83.8472342 128.6270116
v -3.5982288 83.5023681 128.6358927
v -3.4539638 85.9179100 126.9652067
v -5.6489790 84.5634597 127.1956793
v -5.0947639 84.0316899 127.4993370
v -4.4009015 83.3497798 127.3235080
v -3.7797901 83.4179981 127.3685718
v -3.2043911 85.6984865 127.5697221
v -5.2350966 85.7482979 127.7262487
v -5.3613518 83.8895558 127.8687612
v -4.4931922 83.3603420 127.9470791
v -3.9575807 83.3769379 127.9808596
v -3.0850774 83.9528679 128.0603407
v -2.8748221 84.4645767 128.0955869
v -3.4894240 85.9303928 128.2152299
v -3.9482712 85.8102587 128.4960677
v -5.6631881 84.7065879 128.4342552
v -5.1150028 83.6348034 128.5225650
v -5.3447393 85.6323559 124.6100783
v -5.5624668 85.2497830 124.6468750
v -5.6640606 84.7271154 124.6792039
v -5.0940698 83.6208584 124.7699601
v -3.6918477 86.0401373 125.1075317
v -4.1764875 86.1570925 125.1415582
v -4.6666357 85.7725386 125.4372865
v -5.6157526 84.4089669 125.3308626
v -5.0033933 83.9394197 125.6359041
v -2.9043186 84.3047234 125.5891237
v -4.5892225 86.1114463 125.7976894
v -4.9568294 85.9672543 125.8270660
v -3.0331978 85.4503455 126.2921525
v -3.3114837 85.7989224 126.3266159
v -3.7779513 86.0780945 126.3625436
v -3.9965682 83.6605528 126.9840514
v -5.5517530 84.2192642 122.2198898
v -4.5081116 83.6699971 122.5619374
v -4.0908573 83.3562866 122.3475974
v -3.2474876 85.7307510 122.5682982
v -3.5900278 85.9952080 122.6003625
v -2.8459407 84.6814290 123.1114537
v -3.2719976 85.3034366 123.4206493
v -5.0700276 85.8963928 123.3321704
v -5.2822696 84.3236336 123.7205782
v -4.1351977 83.3514974 123.5970508
v -4.7854628 83.4529877 124.1708811
v -4.3930192 83.3496445 124.2029702
v -4.1766203 86.1507653 124.5177618
v -2.9552685 85.2898170 120.0317129
v -3.1538012 85.6326931 120.0597425
v -5.2459581 85.2210986 120.5122125
v -5.6640020 84.7185056 120.3045613
v -3.5017095 83.5596375 120.5179748
v -3.1255030 83.9024148 120.5543848
v -3.1446819 84.6766560 120.8603928
v -3.4757918 85.9213118 120.7150829
v -5.6205874 85.0618997 120.9056424
v -5.3476815 84.5585007 121.1948413
v -5.5170541 84.1366293 120.9745162
v -5.1698587 83.6789399 121.0142650
v -2.9161237 84.3012018 121.2070607
v -3.9874497 85.8250723 121.6254686
v -4.1074234 86.1551430 121.3903710
v -5.2380909 85.7498093 121.4757020
v -5.5259775 85.3485703 121.5092031
v -5.5515869 84.2195293 121.5903252
v -5.3034276 83.8163293 121.6278493
v -4.8786118 83.4892394 121.6636219
v -2.9913708 84.1304445 121.8218765
v -2.8591520 84.5337310 121.8541277
v -4.0948512 86.1473633 122.0115359
v -4.5910940 86.1175981 122.0467592
v -5.0485879 85.5214742 122.3543916
v -3.1519571 85.6270089 117.5587172
v -3.4986787 85.9387129 117.5958289
v -3.9876589 86.1360887 117.6291557
v -4.5772321 86.1207969 117.6715907
v -5.3586435 84.9032189 118.0387849
v -5.3600965 83.8885220 117.8684269
v -5.0387904 83.5865492 117.9023806
v -4.5682898 83.3767922 117.9380308
v -3.5725768 83.5131519 118.0117494
v -2.8740566 85.0288403 118.1362482
v -4.1063956 85.8463792 118.5117391
v -4.3404664 86.1566373 118.2803964
v -5.3542679 84.5945048 118.6911046
v -4.8639771 83.4722614 118.5441153
v -5.4015305 83.9284042 119.1165862
v -4.6025937 83.6984357 119.4285422
v -4.4502658 83.3562813 119.1985585
v -3.6415622 83.8069102 119.5192744
v -3.1500328 84.7007213 119.6136963
v -3.1167703 85.5880196 119.4309352
v -3.5198317 85.9531394 119.4681870
v -4.4117098 86.1527517 119.5367659
v -4.9418862 85.6191068 119.8423547
v -5.3776683 85.6081329 119.6129946
v -5.3090345 84.4087245 119.9593800
v -5.4762186 84.0453254 119.7299197
v -4.4089126 83.6445355 120.0700122
f 3 1 2
f 5 3 2
f 5 2 4
f 7 5 4
f 7 4 6
f 712 7 6
f 9 712 6
f 9 6 8
f 11 9 8
f 11 8 10
f 12 11 10
f 12 10 13
f 715 12 13
f 14 715 13
f 14 13 17
f 15 17 13
f 19 17 15
f 21 14 16
f 21 16 18
f 22 19 15
f 22 15 20
f 718 21 18
f 718 18 751
f 711 22 20
f 23 711 20
f 718 751 752
f 25 711 23
f 26 718 752
f 24 25 23
f 26 752 753
f 27 25 24
f 31 26 753
f 31 753 28
f 32 27 24
f 29 32 24
f 31 28 30
f 33 31 30
f 36 32 29
f 36 29 34
f 37 33 30
f 35 37 30
f 1 36 34
f 1 34 38
f 39 37 35
f 2 1 38
f 41 39 754
f 35 754 39
f 40 41 754
f 42 41 40
f 755 42 40
f 724 42 755
f 724 755 43
f 45 724 43
f 45 43 44
f 726 45 44
f 726 44 46
f 47 726 46
f 47 46 756
f 49 47 756
f 49 756 48
f 50 49 48
f 50 48 51
f 52 50 51
f 52 51 757
f 54 52 757
f 54 757 53
f 732 53 55
f 732 54 53
f 732 55 56
f 734 732 56
f 734 56 758
f 57 734 758
f 57 758 759
f 736 57 759
f 760 736 759
f 738 736 760
f 58 738 760
f 761 738 58
f 59 738 761
f 59 761 762
f 741 59 762
f 741 762 763
f 741 763 60
f 61 741 60
f 61 60 764
f 62 61 764
f 62 764 765
f 64 62 765
f 64 765 63
f 65 64 63
f 65 63 66
f 67 65 66
f 67 66 766
f 743 67 766
f 743 766 68
f 69 743 68
f 69 68 767
f 71 767 70
f 71 69 767
f 73 71 70
f 72 73 70
f 74 73 72
f 76 73 74
f 75 76 74
f 77 76 75
f 79 75 78
f 79 77 75
f 747 79 78
f 80 747 78
f 81 747 80
f 749 747 81
f 82 749 81
f 83 749 82
f 769 83 82
f 84 83 769
f 86 84 769
f 85 86 769
f 1151 86 85
f 87 1151 85
f 1152 1151 87
f 1153 1152 87
f 1153 87 771
f 1154 1153 771
f 772 1154 771
f 89 1154 772
f 88 89 772
f 90 89 88
f 91 90 88
f 773 91 88
f 93 91 773
f 92 93 773
f 1156 93 92
f 94 1156 92
f 1157 1156 94
f 95 1157 94
f 1158 1157 95
f 96 1158 95
f 97 96 95
f 1159 96 97
f 98 1159 97
f 99 1159 98
f 775 99 98
f 101 99 775
f 100 101 775
f 1160 101 100
f 102 1160 100
f 103 1160 102
f 104 103 102
f 106 103 104
f 105 106 104
f 1162 106 105
f 107 1162 105
f 108 1162 107
f 109 108 107
f 110 108 109
f 111 110 109
f 787 111 109
f 112 111 787
f 788 112 787
f 114 112 788
f 113 114 788
f 116 114 113
f 115 116 113
f 1164 116 115
f 117 1164 115
f 793 1164 117
f 118 1164 793
f 794 118 793
f 119 118 794
f 120 118 119
f 121 120 119
f 796 121 119
f 122 121 796
f 122 796 123
f 125 122 123
f 125 123 124
f 127 125 124
f 127 124 126
f 129 127 126
f 129 126 128
f 130 129 128
f 132 130 128
f 132 128 131
f 135 132 131
f 135 131 133
f 135 133 134
f 136 135 134
f 138 136 134
f 138 134 137
f 139 138 137
f 139 137 140
f 1165 139 140
f 1165 140 141
f 143 1165 141
f 142 143 141
f 1167 143 142
f 144 1167 142
f 146 1167 144
f 146 144 145
f 148 146 145
f 148 145 147
f 149 148 147
f 151 149 147
f 150 151 147
f 152 151 150
f 154 151 152
f 153 154 152
f 1170 154 153
f 809 1170 153
f 1171 1170 809
f 155 1171 809
f 156 1171 155
f 157 156 155
f 1172 156 157
f 158 1172 157
f 160 1172 158
f 159 160 158
f 1174 160 159
f 161 1174 159
f 162 1174 161
f 163 1174 162
f 165 162 164
f 165 163 162
f 1176 165 164
f 1176 164 166
f 1176 166 167
f 168 1176 167
f 170 168 167
f 169 170 167
f 172 170 169
f 172 169 171
f 173 172 171
f 817 173 171
f 174 173 817
f 174 817 818
f 175 174 818
f 177 175 818
f 177 818 176
f 1126 177 176
f 1127 1126 176
f 178 1127 176
f 180 1127 178
f 179 180 178
f 821 180 179
f 181 180 821
f 823 181 821
f 182 181 823
f 184 182 823
f 183 184 823
f 186 184 183
f 185 186 183
f 1129 186 185
f 187 1129 185
f 189 1129 187
f 188 189 187
f 191 189 188
f 190 191 188
f 193 191 190
f 193 190 192
f 196 193 192
f 194 196 192
f 196 194 195
f 1130 196 195
f 197 1130 195
f 1131 1130 197
f 198 1131 197
f 200 1131 198
f 200 198 199
f 203 200 199
f 203 199 201
f 203 201 202
f 204 203 202
f 204 202 205
f 1133 204 205
f 207 1133 205
f 207 205 206
f 207 206 208
f 210 207 208
f 209 210 208
f 211 210 209
f 213 211 209
f 212 213 209
f 1134 213 212
f 214 1134 212
f 216 1134 214
f 215 216 214
f 1136 216 215
f 1136 215 217
f 1137 1136 217
f 218 1137 217
f 220 1137 218
f 219 220 218
f 221 220 219
f 840 221 219
f 223 221 840
f 223 840 222
f 224 223 222
f 1138 222 225
f 1138 224 222
f 1138 225 226
f 228 1138 226
f 228 226 227
f 230 228 227
f 230 227 229
f 232 230 229
f 232 229 231
f 1140 232 231
f 1140 231 847
f 233 1140 847
f 849 233 847
f 1141 233 849
f 234 1141 849
f 1142 1141 234
f 235 1142 234
f 236 1142 235
f 851 236 235
f 1143 236 851
f 853 1143 851
f 1144 1143 853
f 1145 1144 853
f 237 1145 853
f 239 1145 237
f 239 237 238
f 240 239 238
f 240 238 856
f 241 240 856
f 241 856 857
f 1146 241 857
f 859 1146 857
f 1147 1146 859
f 243 1147 859
f 242 243 859
f 245 243 242
f 244 245 242
f 246 245 244
f 248 245 246
f 247 248 246
f 1148 248 247
f 1149 1148 247
f 249 1149 247
f 250 1149 249
f 252 1149 250
f 251 252 250
f 253 252 251
f 868 253 251
f 254 253 868
f 1113 254 868
f 255 1113 868
f 257 1113 255
f 256 257 255
f 259 257 256
f 258 259 256
f 1115 259 258
f 1115 258 260
f 261 1115 260
f 261 260 873
f 263 261 873
f 263 873 262
f 265 263 262
f 264 265 262
f 267 265 264
f 266 267 264
f 269 267 266
f 268 269 266
f 1116 269 268
f 1117 1116 268
f 1117 268 270
f 272 1117 270
f 272 270 271
f 273 272 271
f 273 271 880
f 275 880 274
f 275 273 880
f 275 274 276
f 278 275 276
f 277 278 276
f 279 278 277
f 280 279 277
f 281 279 280
f 283 281 280
f 282 283 280
f 285 282 284
f 285 283 282
f 288 285 284
f 286 288 284
f 287 288 286
f 289 288 287
f 291 289 287
f 290 291 287
f 294 291 290
f 292 294 290
f 293 294 292
f 1118 294 293
f 295 1118 293
f 297 1118 295
f 296 297 295
f 298 297 296
f 300 298 296
f 299 300 296
f 301 300 299
f 302 301 299
f 304 301 302
f 303 304 302
f 1120 304 303
f 305 1120 303
f 306 1120 305
f 309 306 305
f 307 309 305
f 308 309 307
f 311 309 308
f 310 311 308
f 312 311 310
f 906 312 310
f 313 312 906
f 908 313 906
f 1122 313 908
f 314 1122 908
f 909 314 908
f 317 314 909
f 317 909 315
f 317 315 316
f 318 317 316
f 318 316 911
f 319 318 911
f 319 911 320
f 321 319 320
f 324 321 320
f 324 320 322
f 324 322 323
f 325 324 323
f 325 323 326
f 327 325 326
f 329 327 326
f 329 326 328
f 331 329 328
f 330 331 328
f 333 331 330
f 332 333 330
f 334 333 332
f 916 334 332
f 335 334 916
f 917 335 916
f 336 335 917
f 336 917 918
f 1123 336 918
f 337 1123 918
f 1124 1123 337
f 1124 337 338
f 340 1124 338
f 340 338 339
f 342 340 339
f 921 342 339
f 341 342 921
f 343 342 341
f 923 343 341
f 344 343 923
f 346 344 923
f 345 346 923
f 347 346 345
f 925 347 345
f 349 347 925
f 348 349 925
f 1125 349 348
f 351 1125 348
f 350 351 348
f 353 351 350
f 353 350 352
f 1097 353 352
f 354 1097 352
f 1098 1097 354
f 1098 354 355
f 1099 1098 355
f 1099 355 356
f 358 1099 356
f 358 356 357
f 1100 358 357
f 359 1100 357
f 361 1100 359
f 360 361 359
f 363 361 360
f 363 360 362
f 365 363 362
f 365 362 364
f 367 365 364
f 366 367 364
f 369 367 366
f 369 366 368
f 370 369 368
f 372 370 368
f 372 368 371
f 374 371 373
f 374 372 371
f 1101 374 373
f 938 1101 373
f 1102 1101 938
f 375 1102 938
f 378 1102 375
f 376 378 375
f 377 378 376
f 380 378 377
f 379 380 377
f 381 380 379
f 955 381 379
f 956 381 955
f 1104 381 956
f 383 1104 956
f 382 383 956
f 383 382 384
f 386 383 384
f 385 386 384
f 387 386 385
f 387 385 960
f 388 387 960
f 962 388 960
f 390 388 962
f 389 390 962
f 1106 390 389
f 391 1106 389
f 392 1106 391
f 394 1106 392
f 393 394 392
f 395 394 393
f 398 395 393
f 396 398 393
f 397 398 396
f 401 398 397
f 399 401 397
f 400 401 399
f 1107 401 400
f 1108 1107 400
f 402 1108 400
f 404 1108 402
f 403 404 402
f 405 404 403
f 406 405 403
f 408 405 406
f 407 408 406
f 409 408 407
f 410 409 407
f 970 410 407
f 411 410 970
f 411 970 412
f 414 411 412
f 413 414 412
f 415 414 413
f 417 415 413
f 416 417 413
f 419 417 416
f 418 419 416
f 420 419 418
f 974 420 418
f 422 420 974
f 421 422 974
f 1109 422 421
f 423 1109 421
f 1110 1109 423
f 424 1110 423
f 1111 1110 424
f 425 1111 424
f 428 1111 425
f 426 428 425
f 427 428 426
f 430 428 427
f 429 430 427
f 431 430 429
f 431 429 432
f 434 431 432
f 434 432 433
f 436 434 433
f 436 433 435
f 437 436 435
f 437 435 438
f 439 437 438
f 441 439 438
f 440 441 438
f 442 441 440
f 982 442 440
f 443 442 982
f 983 443 982
f 445 443 983
f 444 445 983
f 446 445 444
f 446 444 985
f 447 446 985
f 447 985 987
f 449 447 987
f 448 449 987
f 1081 449 448
f 1081 448 990
f 1081 990 450
f 451 1081 450
f 454 451 450
f 452 454 450
f 453 454 452
f 457 454 453
f 455 457 453
f 456 457 455
f 458 457 456
f 458 456 996
f 1082 458 996
f 1082 996 459
f 460 1082 459
f 460 459 997
f 461 460 997
f 999 461 997
f 1084 461 999
f 462 1084 999
f 1085 1084 462
f 463 1085 462
f 1085 463 464
f 465 1085 464
f 467 464 466
f 467 465 464
f 469 467 466
f 468 469 466
f 471 469 468
f 470 471 468
f 1086 471 470
f 472 1086 470
f 474 1086 472
f 473 474 472
f 476 474 473
f 1022 476 473
f 475 476 1022
f 477 476 475
f 1087 477 475
f 478 1087 475
f 479 1087 478
f 1024 479 478
f 481 479 1024
f 480 481 1024
f 482 481 480
f 1088 482 480
f 1027 1088 480
f 484 1088 1027
f 483 484 1027
f 1089 484 483
f 485 1089 483
f 486 1089 485
f 1090 1089 486
f 487 1090 486
f 488 1090 487
f 488 487 1032
f 1091 488 1032
f 1091 1032 1033
f 1092 1091 1033
f 1092 1033 489
f 491 1092 489
f 490 491 489
f 492 491 490
f 1036 492 490
f 1093 492 1036
f 493 1093 1036
f 494 1093 493
f 494 493 495
f 496 494 495
f 498 496 495
f 1041 498 495
f 497 498 1041
f 499 498 497
f 1042 499 497
f 501 499 1042
f 500 501 1042
f 1095 501 500
f 1046 1095 500
f 502 1095 1046
f 1047 502 1046
f 1096 502 1047
f 503 1096 1047
f 505 1096 503
f 504 505 503
f 682 505 504
f 506 23 20
f 507 23 506
f 506 20 509
f 20 15 509
f 508 23 507
f 510 23 508
f 509 15 511
f 510 24 23
f 15 13 511
f 512 24 510
f 511 13 513
f 512 29 24
f 513 13 515
f 514 29 512
f 13 10 515
f 514 34 29
f 514 516 34
f 10 517 515
f 516 518 34
f 8 519 10
f 10 519 517
f 34 518 38
f 8 521 519
f 518 520 38
f 38 520 2
f 6 521 8
f 6 523 521
f 520 522 2
f 6 524 523
f 4 524 6
f 2 522 4
f 522 525 4
f 4 525 524
f 508 526 510
f 670 508 507
f 666 670 507
f 666 507 506
f 527 666 506
f 527 506 509
f 663 527 509
f 641 663 509
f 641 509 511
f 528 641 511
f 635 528 511
f 635 511 513
f 632 513 515
f 626 515 517
f 624 517 519
f 529 519 521
f 529 624 519
f 537 529 521
f 523 537 521
f 598 523 524
f 588 524 525
f 588 598 524
f 530 588 525
f 584 525 522
f 584 530 525
f 558 584 522
f 557 558 522
f 557 522 520
f 553 557 520
f 549 520 518
f 546 518 516
f 545 516 514
f 512 540 514
f 526 539 512
f 526 512 510
f 532 539 526
f 541 542 532
f 541 532 533
f 531 552 533
f 531 662 606
f 534 531 606
f 534 606 608
f 535 534 608
f 536 608 609
f 536 535 608
f 542 539 532
f 540 512 539
f 542 540 539
f 545 540 543
f 545 514 540
f 543 540 542
f 544 542 541
f 544 541 548
f 546 516 545
f 548 541 533
f 548 533 552
f 547 544 548
f 550 546 545
f 552 531 534
f 550 549 546
f 549 518 546
f 561 547 548
f 561 551 547
f 550 551 560
f 554 549 550
f 556 550 560
f 554 553 549
f 553 520 549
f 561 552 534
f 561 548 552
f 560 551 561
f 556 560 555
f 557 553 559
f 557 559 558
f 559 553 554
f 559 554 563
f 560 561 565
f 562 560 565
f 562 555 560
f 561 534 535
f 563 554 555
f 563 555 562
f 565 561 535
f 564 558 559
f 563 564 559
f 562 565 586
f 586 565 535
f 567 566 568
f 567 564 566
f 572 567 568
f 572 568 570
f 569 568 571
f 575 572 570
f 573 523 598
f 569 570 568
f 573 537 523
f 581 574 536
f 581 536 609
f 577 570 569
f 577 569 601
f 576 575 570
f 578 579 537
f 578 537 573
f 577 576 570
f 581 609 583
f 556 555 554
f 584 558 564
f 584 564 585
f 566 563 562
f 530 584 585
f 566 564 563
f 530 585 593
f 585 564 567
f 588 530 593
f 586 566 562
f 588 593 595
f 593 585 567
f 593 567 572
f 589 590 591
f 589 587 589
f 589 589 591
f 571 587 589
f 571 589 591
f 588 595 598
f 571 568 566
f 571 566 587
f 586 535 536
f 594 586 536
f 594 592 586
f 594 592 594
f 594 590 592
f 594 594 536
f 574 594 536
f 574 590 594
f 574 591 590
f 595 593 572
f 595 572 575
f 574 571 591
f 574 569 571
f 596 598 595
f 596 595 575
f 596 597 597
f 598 596 597
f 600 569 574
f 600 574 581
f 576 580 597
f 576 596 575
f 576 597 596
f 599 597 580
f 599 597 597
f 599 578 573
f 599 573 598
f 599 598 597
f 600 601 569
f 601 600 581
f 577 580 576
f 580 579 578
f 580 602 579
f 577 538 582
f 577 601 538
f 582 580 577
f 582 602 580
f 538 619 582
f 538 583 619
f 544 543 542
f 544 547 543
f 543 550 545
f 543 547 551
f 543 551 550
f 550 556 554
f 566 589 587
f 580 578 599
f 538 581 583
f 538 601 581
f 566 590 589
f 566 586 592
f 566 592 590
f 662 604 603
f 605 603 604
f 606 662 603
f 609 607 583
f 603 605 610
f 610 605 611
f 606 603 612
f 612 603 610
f 608 606 613
f 613 606 612
f 609 608 614
f 614 608 613
f 607 609 615
f 615 609 614
f 605 607 611
f 611 607 615
f 613 611 615
f 613 615 614
f 612 610 611
f 612 611 613
f 529 537 579
f 616 529 579
f 602 616 579
f 617 602 582
f 619 617 582
f 619 618 617
f 619 583 607
f 620 619 607
f 620 607 605
f 621 620 605
f 621 605 604
f 622 621 604
f 623 526 508
f 624 529 616
f 625 624 616
f 625 517 624
f 626 627 629
f 626 517 625
f 626 625 627
f 627 625 616
f 628 602 617
f 628 616 602
f 626 629 632
f 630 628 617
f 631 632 629
f 632 515 626
f 633 630 617
f 633 617 618
f 618 619 620
f 635 513 632
f 635 632 636
f 633 634 630
f 631 634 637
f 528 635 642
f 643 618 620
f 643 633 618
f 637 634 633
f 640 637 638
f 640 631 637
f 639 635 636
f 643 637 633
f 528 642 641
f 642 635 639
f 642 639 645
f 643 620 621
f 644 638 637
f 645 639 638
f 645 638 644
f 621 637 643
f 646 641 642
f 645 646 642
f 621 644 637
f 647 644 621
f 648 681 649
f 648 646 681
f 653 648 649
f 653 649 651
f 650 649 652
f 656 653 651
f 654 508 670
f 650 651 649
f 654 623 508
f 659 655 622
f 659 622 604
f 651 650 679
f 657 656 651
f 658 526 623
f 658 532 526
f 658 623 654
f 660 659 604
f 662 660 604
f 680 531 533
f 640 638 639
f 663 641 646
f 663 646 664
f 681 645 644
f 527 663 664
f 681 646 645
f 527 664 672
f 664 646 648
f 666 527 672
f 647 681 644
f 666 672 674
f 672 664 648
f 672 648 653
f 667 668 669
f 667 665 667
f 667 667 669
f 652 665 667
f 652 667 669
f 670 666 674
f 670 674 677
f 652 649 681
f 652 681 665
f 647 621 622
f 673 647 622
f 673 671 647
f 673 671 673
f 673 668 671
f 673 673 622
f 655 673 622
f 655 668 673
f 655 669 668
f 674 672 653
f 670 677 654
f 674 653 656
f 655 652 669
f 655 650 652
f 675 677 674
f 675 674 656
f 675 676 676
f 677 675 676
f 659 650 655
f 657 661 676
f 657 675 656
f 657 676 675
f 678 676 661
f 678 676 676
f 678 658 654
f 678 654 677
f 678 677 676
f 659 679 650
f 679 659 660
f 680 657 651
f 680 661 657
f 661 532 658
f 661 533 532
f 680 679 660
f 680 533 661
f 660 531 680
f 660 662 531
f 628 627 616
f 628 630 627
f 627 631 629
f 627 630 634
f 627 634 631
f 640 632 631
f 640 636 632
f 636 640 639
f 681 667 665
f 661 658 678
f 679 680 651
f 681 668 667
f 681 647 671
f 681 671 668
f 682 504 1050
f 682 1050 683
f 1080 682 683
f 1080 683 684
f 1079 1080 684
f 685 1079 684
f 687 686 687
f 687 685 686
f 688 687 687
f 688 687 688
f 689 688 688
f 689 688 689
f 690 689 689
f 19 691 17
f 19 692 691
f 22 692 19
f 711 694 693
f 32 696 695
f 3 698 1
f 5 699 3
f 5 713 699
f 11 700 9
f 715 716 12
f 26 701 718
f 31 702 26
f 37 721 33
f 726 727 45
f 50 729 49
f 54 730 52
f 57 704 734
f 738 740 737
f 64 770 62
f 79 748 708
f 749 750 709
f 692 22 693
f 693 22 711
f 694 711 25
f 25 27 694
f 694 27 695
f 27 32 695
f 32 36 696
f 36 697 696
f 1 697 36
f 1 698 697
f 698 3 699
f 5 7 713
f 700 712 9
f 7 712 713
f 713 712 700
f 11 714 700
f 716 714 11
f 11 12 716
f 717 715 14
f 716 715 717
f 21 717 14
f 719 717 21
f 718 719 21
f 719 718 701
f 701 26 702
f 702 31 720
f 720 33 721
f 31 33 720
f 703 721 37
f 37 39 703
f 39 41 703
f 703 41 722
f 42 722 41
f 723 722 42
f 724 723 42
f 725 723 724
f 725 724 45
f 725 45 727
f 727 726 728
f 728 726 47
f 49 728 47
f 728 49 729
f 730 50 52
f 729 50 730
f 730 54 731
f 732 731 54
f 733 731 732
f 735 732 734
f 733 732 735
f 735 734 704
f 736 737 57
f 57 737 704
f 737 736 738
f 740 738 59
f 59 739 740
f 59 741 739
f 739 741 768
f 705 741 61
f 768 741 705
f 62 742 61
f 61 742 705
f 742 62 770
f 770 64 706
f 65 706 64
f 706 67 744
f 65 67 706
f 67 743 744
f 744 743 707
f 707 743 69
f 707 69 745
f 745 71 746
f 69 71 745
f 71 73 746
f 73 76 746
f 746 76 774
f 76 77 774
f 774 77 708
f 77 79 708
f 79 747 748
f 709 747 749
f 748 747 709
f 750 749 83
f 84 710 83
f 83 710 750
f 691 14 17
f 691 16 14
f 692 16 691
f 694 751 693
f 695 28 753
f 696 30 695
f 697 754 35
f 713 755 699
f 700 46 44
f 716 756 46
f 716 48 756
f 717 51 48
f 702 56 55
f 725 763 762
f 728 765 764
f 735 72 70
f 740 78 737
f 740 80 78
f 706 771 87
f 745 773 88
f 746 92 773
f 708 97 95
f 748 97 708
f 748 98 97
f 750 98 709
f 16 692 18
f 693 751 692
f 692 751 18
f 694 752 751
f 695 753 694
f 694 753 752
f 28 695 30
f 35 30 696
f 697 35 696
f 698 754 697
f 698 699 754
f 754 699 40
f 699 755 40
f 755 713 43
f 700 43 713
f 44 43 700
f 700 714 46
f 46 714 716
f 717 48 716
f 51 717 719
f 719 757 51
f 719 701 757
f 757 701 53
f 701 702 53
f 53 702 55
f 702 720 56
f 721 758 720
f 720 758 56
f 703 759 721
f 721 759 758
f 703 760 759
f 722 760 703
f 58 760 722
f 722 761 58
f 723 761 722
f 725 762 723
f 723 762 761
f 725 727 763
f 763 727 60
f 727 764 60
f 728 764 727
f 729 63 728
f 728 63 765
f 66 729 730
f 63 729 66
f 730 766 66
f 731 68 730
f 730 68 766
f 733 767 731
f 731 767 68
f 70 767 733
f 735 70 733
f 74 735 704
f 72 735 74
f 75 74 704
f 78 75 737
f 737 75 704
f 80 740 81
f 739 81 740
f 82 81 739
f 739 768 82
f 768 769 82
f 705 769 768
f 85 769 742
f 742 769 705
f 87 85 770
f 770 85 742
f 87 770 706
f 744 772 706
f 706 772 771
f 88 772 707
f 707 772 744
f 707 745 88
f 746 773 745
f 746 774 92
f 92 774 94
f 774 708 94
f 94 708 95
f 748 709 98
f 750 775 98
f 775 710 100
f 750 710 775
f 786 105 104
f 1155 788 787
f 795 796 119
f 797 124 123
f 800 128 126
f 1161 131 128
f 778 133 131
f 802 137 134
f 1163 140 137
f 779 145 805
f 808 155 809
f 811 158 157
f 1168 817 171
f 782 817 1168
f 820 821 179
f 1175 185 784
f 1175 187 185
f 1177 195 194
f 785 102 710
f 710 102 100
f 104 102 785
f 785 786 104
f 776 105 786
f 107 105 776
f 777 107 776
f 109 107 777
f 1155 787 777
f 777 787 109
f 1155 789 788
f 788 789 113
f 790 115 789
f 789 115 113
f 790 791 115
f 115 791 117
f 791 793 117
f 792 793 791
f 119 794 792
f 792 794 793
f 792 795 119
f 797 796 795
f 797 123 796
f 797 798 124
f 798 799 124
f 124 799 126
f 799 800 126
f 800 1161 128
f 1161 778 131
f 778 801 133
f 133 801 134
f 802 134 801
f 137 802 1163
f 140 803 141
f 1163 803 140
f 142 803 804
f 141 803 142
f 804 144 142
f 805 144 804
f 145 144 805
f 145 779 147
f 150 147 806
f 806 147 779
f 780 150 806
f 152 150 780
f 153 152 780
f 780 807 153
f 807 809 153
f 808 809 807
f 808 810 155
f 155 810 157
f 811 157 810
f 811 812 158
f 158 812 159
f 813 159 812
f 161 159 813
f 813 814 161
f 161 814 162
f 814 164 162
f 815 164 814
f 166 164 781
f 781 164 815
f 166 781 167
f 169 167 1166
f 1166 167 781
f 171 169 816
f 816 169 1166
f 1168 171 816
f 782 818 817
f 782 1169 818
f 176 1169 783
f 818 1169 176
f 783 819 176
f 176 819 178
f 178 820 179
f 819 820 178
f 822 821 820
f 1173 823 822
f 822 823 821
f 823 1173 183
f 784 183 1173
f 185 183 784
f 188 187 1175
f 190 188 824
f 824 188 1175
f 1177 190 824
f 192 190 1177
f 194 192 1177
f 825 195 1177
f 833 199 198
f 834 201 199
f 826 202 834
f 827 212 209
f 838 218 217
f 829 219 218
f 839 219 829
f 1135 851 235
f 830 238 855
f 866 868 251
f 831 260 258
f 874 264 872
f 876 270 268
f 878 880 271
f 879 274 880
f 882 280 277
f 197 195 825
f 197 832 198
f 825 832 197
f 833 198 832
f 834 199 833
f 201 834 202
f 205 202 826
f 835 205 826
f 206 205 835
f 208 835 836
f 206 835 208
f 209 836 827
f 208 836 209
f 827 1128 212
f 214 1128 828
f 212 1128 214
f 828 215 214
f 837 215 828
f 217 837 838
f 215 837 217
f 829 218 838
f 839 840 219
f 839 841 840
f 840 841 222
f 222 842 225
f 841 842 222
f 1132 226 842
f 842 226 225
f 1132 843 226
f 226 843 227
f 843 844 227
f 227 844 229
f 844 845 229
f 229 845 231
f 846 847 845
f 845 847 231
f 846 849 847
f 848 849 846
f 234 849 848
f 235 234 850
f 850 234 848
f 235 850 1135
f 1135 853 851
f 852 853 1135
f 852 854 853
f 853 854 237
f 855 237 854
f 238 237 855
f 830 856 238
f 858 857 830
f 830 857 856
f 860 859 858
f 858 859 857
f 860 242 859
f 860 861 242
f 242 861 244
f 246 244 862
f 862 244 861
f 862 1139 246
f 246 1139 247
f 249 247 863
f 863 247 1139
f 863 250 249
f 864 250 863
f 864 865 250
f 250 865 251
f 865 866 251
f 867 868 866
f 867 869 868
f 868 869 255
f 869 870 255
f 255 870 256
f 258 870 871
f 256 870 258
f 258 871 831
f 873 260 831
f 262 873 872
f 872 873 831
f 264 262 872
f 264 874 266
f 874 875 266
f 266 875 268
f 876 268 875
f 876 877 270
f 877 878 270
f 270 878 271
f 879 880 878
f 879 1150 274
f 274 1150 276
f 881 276 1150
f 277 276 881
f 277 881 882
f 894 282 280
f 1114 284 894
f 896 290 287
f 900 299 296
f 912 322 1119
f 914 332 330
f 919 339 338
f 922 923 341
f 926 925 345
f 926 348 925
f 937 368 366
f 893 373 892
f 939 376 375
f 894 280 882
f 284 282 894
f 286 284 1114
f 1114 895 286
f 286 895 287
f 896 287 895
f 897 290 896
f 292 290 897
f 293 292 897
f 897 898 293
f 293 898 295
f 898 899 295
f 295 899 296
f 900 296 899
f 299 900 901
f 299 901 302
f 302 902 303
f 901 902 302
f 305 303 903
f 903 303 902
f 883 305 903
f 307 305 883
f 308 307 883
f 883 904 308
f 308 904 310
f 310 904 905
f 884 906 905
f 905 906 310
f 907 908 884
f 884 908 906
f 909 907 885
f 908 907 909
f 910 909 885
f 315 909 910
f 316 910 886
f 315 910 316
f 886 911 316
f 1119 911 886
f 320 911 1119
f 322 320 1119
f 322 912 323
f 326 323 913
f 913 323 912
f 328 913 887
f 326 913 328
f 330 328 887
f 914 330 887
f 914 915 332
f 1121 916 915
f 915 916 332
f 888 917 1121
f 1121 917 916
f 889 918 888
f 888 918 917
f 918 889 337
f 919 338 889
f 889 338 337
f 339 919 920
f 341 921 920
f 920 921 339
f 920 922 341
f 924 923 922
f 924 345 923
f 926 345 924
f 926 927 348
f 927 928 348
f 348 928 350
f 928 929 350
f 350 929 352
f 929 930 352
f 352 930 354
f 930 931 354
f 354 931 355
f 932 356 931
f 931 356 355
f 932 933 356
f 356 933 357
f 359 357 934
f 934 357 933
f 934 890 359
f 359 890 360
f 935 360 890
f 362 360 935
f 362 935 364
f 366 364 936
f 936 364 935
f 936 937 366
f 937 891 368
f 371 891 892
f 368 891 371
f 371 892 373
f 893 938 373
f 939 375 893
f 893 375 938
f 953 955 379
f 958 382 957
f 963 391 389
f 965 396 393
f 941 406 968
f 942 416 972
f 975 421 974
f 976 423 421
f 979 427 943
f 980 438 435
f 981 982 440
f 981 983 982
f 984 444 983
f 991 452 450
f 991 453 452
f 994 996 456
f 995 459 996
f 995 997 459
f 949 466 464
f 950 466 949
f 950 468 466
f 951 468 1001
f 939 952 376
f 376 952 377
f 377 953 379
f 952 953 377
f 954 955 953
f 954 956 955
f 954 957 956
f 956 957 382
f 382 958 384
f 958 959 384
f 384 959 385
f 959 960 385
f 961 960 959
f 961 962 960
f 389 962 961
f 963 389 961
f 392 963 964
f 391 963 392
f 393 392 964
f 965 393 964
f 397 965 940
f 396 965 397
f 399 397 966
f 966 397 940
f 400 399 966
f 1103 400 966
f 967 400 1103
f 402 400 967
f 402 967 403
f 967 968 403
f 403 968 406
f 407 406 941
f 969 407 941
f 1105 970 969
f 969 970 407
f 1105 971 970
f 970 971 412
f 413 971 972
f 412 971 413
f 416 413 972
f 418 416 942
f 942 973 418
f 973 974 418
f 975 974 973
f 975 976 421
f 976 977 423
f 423 977 424
f 425 424 978
f 978 424 977
f 943 425 978
f 426 425 943
f 426 943 427
f 427 979 429
f 429 979 944
f 945 429 944
f 432 429 945
f 433 945 946
f 432 945 433
f 435 433 946
f 946 980 435
f 438 980 947
f 981 440 947
f 947 440 438
f 984 983 981
f 444 984 948
f 986 985 948
f 948 985 444
f 986 987 985
f 986 988 987
f 987 988 448
f 988 990 448
f 989 990 988
f 450 990 989
f 450 989 991
f 991 992 453
f 453 992 455
f 456 455 993
f 993 455 992
f 993 994 456
f 995 996 994
f 998 997 995
f 998 999 997
f 1000 999 998
f 1000 1112 999
f 463 462 1112
f 1112 462 999
f 464 463 949
f 949 463 1112
f 950 1001 468
f 951 470 468
f 1002 1004 1003
f 1006 1007 1067
f 1061 1009 1008
f 1010 1009 1061
f 1010 1011 1009
f 1010 1012 1011
f 1010 1013 1012
f 1014 1013 1010
f 1014 1015 1013
f 1014 1016 1015
f 1014 1017 1016
f 470 951 472
f 951 1019 472
f 472 1019 473
f 1019 1020 473
f 1021 1022 1020
f 1020 1022 473
f 1021 475 1022
f 1021 1023 475
f 475 1023 478
f 478 1023 1024
f 1025 1024 1023
f 1024 1025 480
f 1025 1026 480
f 1026 1027 480
f 1083 1027 1026
f 1027 1083 483
f 1028 483 1083
f 1028 1029 483
f 483 1029 485
f 485 1029 486
f 486 1030 487
f 1029 1030 486
f 1031 1032 1030
f 1030 1032 487
f 1031 1033 1032
f 1034 1033 1031
f 1033 1034 489
f 1034 1035 489
f 489 1035 490
f 1037 1036 1035
f 1035 1036 490
f 1037 1038 1036
f 1036 1038 493
f 493 1038 495
f 1038 1039 495
f 495 1039 1041
f 1040 1041 1039
f 1040 497 1041
f 1043 1042 1040
f 1040 1042 497
f 1042 1043 500
f 1044 1046 1043
f 1043 1046 500
f 1045 1046 1044
f 1045 1047 1046
f 1048 503 1045
f 1045 503 1047
f 503 1048 504
f 1049 504 1048
f 1049 1050 504
f 1049 683 1050
f 1051 683 1049
f 1051 684 683
f 684 1051 685
f 1051 1052 685
f 688 1052 689
f 687 1052 688
f 686 1052 687
f 685 1052 686
f 689 1053 690
f 690 1053 1076
f 1052 1053 689
f 1076 1053 1055
f 1054 1055 1053
f 1056 1055 1054
f 1054 1094 1056
f 1056 1094 1072
f 1072 1094 1057
f 1057 1070 1072
f 1002 1070 1057
f 1058 1002 1003
f 1059 1002 1058
f 1070 1002 1059
f 1005 1004 1002
f 1060 1005 1002
f 1060 1067 1005
f 1006 1067 1060
f 1061 1062 1006
f 1006 1062 1007
f 1062 1062 1008
f 1007 1062 1062
f 1008 1062 1061
f 1015 1016 1065
f 1011 1012 1063
f 1018 1078 1064
f 1017 1018 1064
f 1017 1064 1065
f 1016 1017 1065
f 1013 1013 1015
f 1013 1012 1013
f 1013 1065 1063
f 1013 1015 1065
f 1013 1063 1012
f 1009 1011 1063
f 1009 1063 1066
f 1066 1062 1008
f 1066 1007 1062
f 1066 1008 1009
f 1067 1007 1066
f 1067 1066 1068
f 1068 1005 1067
f 1069 1005 1068
f 1069 1004 1005
f 1069 1003 1004
f 1058 1058 1003
f 1058 1059 1058
f 1058 1069 1059
f 1058 1003 1069
f 1070 1069 1071
f 1070 1059 1069
f 1072 1070 1071
f 1072 1071 1073
f 1056 1072 1073
f 1056 1073 1074
f 1055 1056 1074
f 1055 1074 1075
f 1075 1076 1055
f 1076 1075 1077
f 1077 690 1076
f 1077 688 689
f 1077 689 690
f 1077 685 687
f 1077 687 688
f 1078 685 1077
f 1079 685 1078
f 1018 1079 1078
f 1080 1079 1018
f 1080 1018 1017
f 449 1081 951
f 951 1081 1019
f 1019 1081 1020
f 1081 451 1020
f 1020 451 1021
f 451 454 1021
f 457 1021 454
f 1021 457 1023
f 458 1023 457
f 458 1025 1023
f 458 1082 1025
f 1025 1082 1026
f 460 1083 1082
f 1082 1083 1026
f 460 461 1083
f 1083 461 1028
f 1028 1084 1029
f 461 1084 1028
f 1085 1029 1084
f 1030 1085 1031
f 1029 1085 1030
f 1085 465 1031
f 1031 467 1034
f 465 467 1031
f 467 469 1034
f 471 1035 469
f 469 1035 1034
f 471 1086 1035
f 1035 1086 1037
f 1037 474 1038
f 1086 474 1037
f 1038 476 1039
f 474 476 1038
f 1039 476 1040
f 476 477 1040
f 477 1087 1040
f 1040 479 1043
f 1087 479 1040
f 1043 481 1044
f 479 481 1043
f 1044 482 1045
f 481 482 1044
f 482 1088 1045
f 1045 484 1048
f 1088 484 1045
f 484 1089 1048
f 1048 1089 1049
f 1089 1090 1049
f 1049 488 1051
f 1090 488 1049
f 488 1091 1051
f 1091 1092 1051
f 1051 1092 1052
f 1092 491 1052
f 1052 491 1053
f 492 1053 491
f 1053 492 1054
f 492 1093 1054
f 494 1094 1093
f 1093 1094 1054
f 494 496 1094
f 1094 496 1057
f 1057 498 1002
f 496 498 1057
f 498 499 1002
f 1002 501 1060
f 499 501 1002
f 501 1095 1060
f 1060 1095 1006
f 1006 502 1061
f 1095 502 1006
f 1061 1096 1010
f 502 1096 1061
f 505 1010 1096
f 682 1010 505
f 1010 682 1014
f 1014 1080 1017
f 682 1080 1014
f 1097 952 353
f 1100 957 358
f 1100 958 957
f 363 959 361
f 372 964 370
f 1101 940 374
f 381 941 968
f 386 1105 383
f 387 971 386
f 390 942 972
f 1107 943 401
f 1108 979 943
f 417 981 415
f 419 984 417
f 420 948 419
f 1109 986 422
f 431 992 430
f 434 993 431
f 442 1000 441
f 445 950 949
f 447 951 1001
f 449 951 447
f 351 353 939
f 939 353 952
f 952 1097 953
f 953 1097 1098
f 954 1098 1099
f 953 1098 954
f 954 1099 358
f 954 358 957
f 1100 361 958
f 958 361 959
f 959 363 961
f 363 365 961
f 365 367 961
f 961 367 963
f 367 369 963
f 963 369 964
f 369 370 964
f 964 372 965
f 372 374 965
f 965 374 940
f 966 1101 1102
f 940 1101 966
f 966 1102 378
f 967 1103 378
f 378 1103 966
f 378 380 967
f 380 381 967
f 967 381 968
f 1104 941 381
f 969 1104 383
f 941 1104 969
f 383 1105 969
f 1105 386 971
f 388 971 387
f 972 971 388
f 972 388 390
f 942 1106 973
f 390 1106 942
f 975 1106 394
f 973 1106 975
f 394 395 975
f 975 395 976
f 395 398 976
f 976 398 977
f 401 978 398
f 398 978 977
f 978 401 943
f 943 1107 1108
f 979 1108 944
f 944 1108 404
f 405 944 404
f 945 944 405
f 408 945 405
f 946 945 408
f 408 409 946
f 409 410 946
f 946 410 980
f 410 411 980
f 980 411 947
f 947 414 981
f 411 414 947
f 414 415 981
f 417 984 981
f 984 419 948
f 948 420 986
f 420 422 986
f 988 1109 1110
f 986 1109 988
f 989 1110 1111
f 988 1110 989
f 989 1111 991
f 991 1111 428
f 991 430 992
f 428 430 991
f 992 431 993
f 993 434 994
f 434 436 994
f 994 436 995
f 437 995 436
f 439 998 437
f 437 998 995
f 439 441 998
f 998 441 1000
f 442 1112 1000
f 442 443 1112
f 1112 443 949
f 443 445 949
f 445 446 950
f 446 447 950
f 950 447 1001
f 1113 882 254
f 259 894 257
f 259 1114 894
f 261 895 1115
f 263 896 261
f 265 897 263
f 281 883 279
f 283 904 281
f 288 884 285
f 289 907 288
f 294 910 291
f 297 886 1118
f 298 912 1119
f 301 912 300
f 1120 887 304
f 306 887 1120
f 312 888 311
f 313 889 312
f 317 920 314
f 324 926 321
f 327 927 325
f 331 929 329
f 334 931 333
f 335 932 334
f 1123 934 336
f 342 935 340
f 347 893 892
f 882 1113 894
f 894 1113 257
f 1114 1115 895
f 259 1115 1114
f 895 261 896
f 896 263 897
f 265 267 897
f 897 267 898
f 898 269 899
f 267 269 898
f 269 1116 899
f 900 1116 1117
f 899 1116 900
f 901 1117 272
f 900 1117 901
f 273 901 272
f 902 273 275
f 901 273 902
f 278 902 275
f 903 902 278
f 883 903 279
f 279 903 278
f 883 281 904
f 905 904 283
f 285 905 283
f 884 905 285
f 884 288 907
f 907 289 885
f 289 291 885
f 885 291 910
f 910 294 886
f 294 1118 886
f 297 1119 886
f 297 298 1119
f 298 300 912
f 912 301 913
f 301 304 913
f 913 304 887
f 887 306 914
f 914 309 915
f 306 309 914
f 311 1121 309
f 309 1121 915
f 1121 311 888
f 888 312 889
f 1122 889 313
f 919 1122 314
f 889 1122 919
f 920 919 314
f 920 318 922
f 317 318 920
f 318 319 922
f 922 319 924
f 321 924 319
f 926 924 321
f 926 325 927
f 324 325 926
f 928 327 329
f 927 327 928
f 928 329 929
f 929 331 930
f 930 333 931
f 331 333 930
f 931 334 932
f 932 335 933
f 335 336 933
f 933 336 934
f 934 1123 890
f 890 1123 1124
f 890 1124 935
f 935 1124 340
f 935 342 936
f 342 343 936
f 936 343 937
f 344 891 343
f 343 891 937
f 344 346 891
f 891 346 892
f 346 347 892
f 347 349 893
f 939 1125 351
f 349 1125 893
f 893 1125 939
f 172 825 1177
f 1127 826 834
f 184 827 182
f 1129 828 186
f 191 837 189
f 196 839 829
f 203 1132 200
f 1133 844 204
f 210 846 207
f 1134 850 213
f 221 830 855
f 1138 858 224
f 1141 864 233
f 1143 867 236
f 1146 872 241
f 1147 874 872
f 245 875 243
f 1148 877 248
f 172 173 825
f 173 174 825
f 825 174 832
f 174 175 832
f 832 175 833
f 175 177 833
f 833 177 834
f 834 1126 1127
f 177 1126 834
f 826 1127 180
f 826 180 835
f 181 835 180
f 836 835 181
f 182 836 181
f 827 836 182
f 186 1128 184
f 184 1128 827
f 828 1128 186
f 1129 189 828
f 828 189 837
f 838 837 191
f 191 193 838
f 838 193 829
f 193 196 829
f 1130 839 196
f 841 1130 1131
f 839 1130 841
f 841 1131 842
f 842 1131 200
f 200 1132 842
f 1132 203 843
f 203 204 843
f 843 204 844
f 845 1133 207
f 844 1133 845
f 845 207 846
f 846 210 848
f 210 211 848
f 211 213 848
f 848 213 850
f 1135 1134 216
f 850 1134 1135
f 1136 1135 216
f 852 1136 1137
f 1135 1136 852
f 854 1137 220
f 852 1137 854
f 854 220 855
f 220 221 855
f 221 223 830
f 830 224 858
f 223 224 830
f 858 1138 860
f 860 1138 228
f 228 230 860
f 860 230 861
f 230 232 861
f 861 232 862
f 1140 1139 232
f 232 1139 862
f 863 1140 233
f 1139 1140 863
f 233 864 863
f 864 1141 865
f 865 1141 1142
f 866 1142 236
f 865 1142 866
f 866 236 867
f 869 1143 1144
f 867 1143 869
f 870 1144 1145
f 869 1144 870
f 870 1145 871
f 871 1145 239
f 871 239 831
f 239 240 831
f 831 241 872
f 240 241 831
f 1147 872 1146
f 874 1147 243
f 874 243 875
f 875 245 876
f 876 248 877
f 245 248 876
f 878 1148 1149
f 877 1148 878
f 879 1149 252
f 878 1149 879
f 252 1150 879
f 252 253 1150
f 1150 253 881
f 254 881 253
f 882 881 254
f 86 710 84
f 90 777 89
f 1156 789 93
f 1160 797 101
f 106 799 103
f 118 805 804
f 118 779 805
f 122 806 121
f 125 780 122
f 127 780 125
f 132 810 130
f 135 811 132
f 138 813 136
f 139 814 138
f 149 782 1168
f 163 1175 784
f 165 1175 163
f 170 1177 168
f 785 86 1151
f 710 86 785
f 785 1151 1152
f 1153 786 1152
f 1152 786 785
f 776 1153 1154
f 786 1153 776
f 776 1154 777
f 777 1154 89
f 1155 90 91
f 777 90 1155
f 93 1155 91
f 1155 93 789
f 790 1156 1157
f 789 1156 790
f 791 1157 1158
f 790 1157 791
f 792 1158 96
f 791 1158 792
f 1159 792 96
f 795 1159 99
f 792 1159 795
f 797 795 99
f 99 101 797
f 797 1160 798
f 798 1160 103
f 798 103 799
f 799 106 800
f 1162 1161 106
f 106 1161 800
f 1161 1162 778
f 778 1162 108
f 778 110 801
f 108 110 778
f 801 111 802
f 110 111 801
f 111 112 802
f 802 112 1163
f 114 1163 112
f 114 116 1163
f 1163 116 803
f 1164 803 116
f 804 803 1164
f 804 1164 118
f 779 120 121
f 118 120 779
f 779 121 806
f 806 122 780
f 780 127 807
f 807 129 808
f 127 129 807
f 808 130 810
f 129 130 808
f 810 132 811
f 811 135 812
f 135 136 812
f 812 136 813
f 813 138 814
f 814 139 815
f 1165 815 139
f 781 815 1165
f 781 1165 143
f 1167 1166 143
f 143 1166 781
f 816 1167 146
f 1166 1167 816
f 148 1168 146
f 146 1168 816
f 149 1168 148
f 149 151 782
f 154 1169 151
f 151 1169 782
f 783 1169 154
f 783 154 1170
f 783 1170 819
f 819 1170 1171
f 819 1171 820
f 820 1171 156
f 1172 820 156
f 822 820 1172
f 1173 1172 160
f 822 1172 1173
f 1174 1173 160
f 1173 1174 784
f 784 1174 163
f 1176 1175 165
f 824 1176 168
f 1175 1176 824
f 824 168 1177
f 172 1177 170
f 1066 1065 1064
f 1066 1064 1078
f 1066 1063 1065
f 1073 1075 1074
f 1066 1078 1077
f 1066 1077 1075
f 1069 1073 1071
f 1069 1068 1066
f 1069 1066 1075
f 1069 1075 1073
