# Render LOD; unchanged CAD body-local coordinates in mm
v 177.8817401 277.8950613 123.4999837
v 177.8969198 277.8836583 124.4459047
v 177.3404454 278.1122173 123.4999836
v 177.2724941 278.1059909 124.4954806
v 177.0127522 278.1028376 124.5146149
v 176.7939640 278.0536021 123.4999834
v 176.5724515 277.9605759 124.5485705
v 176.3696218 277.8210524 123.4999837
v 176.2886650 277.7350785 124.5722704
v 176.0844360 277.4582014 123.4999837
v 175.9480432 277.0489523 123.4999834
v 175.9582865 277.1203389 124.6238446
v 175.9770524 276.5569989 123.4999838
v 176.1677729 276.1599841 123.4999834
v 176.4671550 275.8593097 123.4999835
v 176.3049447 275.9976974 124.5986361
v 176.1723854 276.1488453 124.6929434
v 176.3042195 276.0044603 124.1596271
v 176.5318854 275.8204886 124.1811228
v 177.0059682 275.6408853 123.4999840
v 176.5840047 275.7938035 124.6261954
v 176.5646472 275.7961399 124.7303548
v 176.9241491 275.6682974 124.7608590
v 176.9124115 275.6669990 124.2072473
v 177.5847446 275.7064912 123.4999830
v 177.3245667 275.6442836 124.7892881
v 177.9070017 275.8829653 123.4999837
v 177.6729088 275.7470600 124.8129563
v 177.8251152 275.8259741 124.2755602
v 178.1716018 276.1389649 123.4999832
v 178.1483937 276.1171586 124.8566333
v 178.0906633 276.0378352 124.3001530
v 178.2609138 276.2832729 124.7624743
v 178.3386938 276.4654808 123.4999837
v 178.4138170 276.8261762 123.4999835
v 178.3322665 276.4270986 124.8837457
v 178.4120442 276.7497282 124.7970812
v 178.4098892 276.7482524 124.3535770
v 178.3361251 277.3131022 123.4999840
v 178.3878867 277.1048299 124.9309072
v 178.3918489 277.0902361 124.3800415
v 178.2935726 277.4050423 124.9547338
v 178.1453220 277.6387198 123.4999836
v 178.1442872 277.6399908 124.4233983
v 178.0492835 277.7538076 124.9823367
v 177.8727878 277.8941800 124.8929328
v 177.5389861 278.0607410 124.9168727
v 177.0340692 278.1093305 124.9530434
v 177.1950912 278.1107379 125.0504797
v 176.7891128 278.0584225 125.0789920
v 176.2795174 277.7388908 125.1239264
v 176.0546600 276.3373324 125.1205926
v 175.9476042 276.7296884 125.1984745
v 176.3629790 275.9437149 125.1549475
v 176.1705930 276.1555087 125.2421715
v 176.5093722 275.8263661 125.2756802
v 177.0027590 275.6508459 125.3124529
v 177.5853061 275.7022559 125.2474801
v 177.2906778 275.6380868 125.3369123
v 178.0851130 276.0283936 125.2906286
v 177.7523175 275.7825220 125.3684171
v 178.2037715 276.1890968 125.4143547
v 178.4125255 276.8486885 125.3563478
v 178.3258585 277.3424757 125.3911657
v 178.3714512 277.1846203 125.4859155
v 178.0367725 277.7694672 125.4259076
v 178.2210621 277.5401989 125.5123549
v 177.9726109 277.8206287 125.5403716
v 177.4979095 278.0668856 125.4719576
v 177.4319825 278.0843524 125.5829790
v 177.1025338 278.1093308 125.6087313
v 176.8515874 278.0701497 125.5164527
v 176.6692732 278.0120656 125.6364634
v 176.4078178 277.8454952 125.6598012
v 175.9653443 276.5893538 125.6515568
v 175.9438889 276.9914297 125.7333463
v 176.2384918 276.0585336 125.6933958
v 176.0329634 276.4023087 125.7751673
v 176.2254721 276.0884325 125.7990947
v 176.6401898 275.7611850 125.7293545
v 176.4627785 275.8571622 125.8249261
v 177.1177319 275.6343135 125.7691947
v 177.8994923 275.8653327 125.8238224
v 177.5104504 275.6860054 125.8999294
v 177.9621158 275.9131707 125.9377280
v 178.3834119 276.6023425 125.8892474
v 178.3160576 276.3814292 125.9767455
v 178.4141495 276.9814910 126.0234715
v 178.3193663 277.3428046 126.0481892
v 177.9196229 277.8639915 125.9868331
v 177.5737920 278.0473460 126.0147688
v 177.6055850 278.0399452 126.1195638
v 177.1827251 278.1131319 126.0427600
v 177.1564112 278.1128691 126.1541891
v 176.7220277 278.0322196 126.0760452
v 176.2480506 277.7044619 126.1198752
v 176.6611724 278.0091646 126.1856265
v 176.3525231 277.7940639 126.2155294
v 176.0068417 277.2818673 126.1513839
v 176.1390904 277.5515162 126.2408345
v 175.9532148 276.6864488 126.1934050
v 175.9419037 276.9675892 126.2816775
v 176.1153209 276.2262027 126.2292656
v 175.9901662 276.5005924 126.3138247
v 176.1328194 276.2134869 126.3381240
v 177.3233400 275.6415213 126.3289548
v 177.0188288 275.6426255 126.4175131
v 177.7955319 275.8061529 126.3633054
v 177.9552804 275.9079940 126.4836200
v 178.1623510 276.1311082 126.5060977
v 178.3870961 276.6184948 126.4367521
v 178.3498027 276.4879996 126.5373133
v 178.4057064 276.7751949 126.5589041
v 178.3916108 277.0906388 126.5786441
v 178.2483380 277.5000255 126.6098340
v 177.8504838 277.9163229 126.5442657
v 177.8908705 277.8882424 126.6454303
v 177.4457118 278.0817380 126.5738845
v 177.0919896 278.1104112 126.5993600
v 177.2644231 278.1077919 126.6944465
v 176.6841992 278.0114398 126.6311261
v 176.9420936 278.0958909 126.7152001
v 176.2874819 277.7470322 126.6622939
v 176.5107986 277.9195253 126.7526578
v 176.1469571 277.5754829 126.7887578
v 175.9417567 276.9393934 126.7278745
v 175.9649018 277.1293268 126.8201709
v 175.9694082 276.6017208 126.7500724
v 175.9465706 276.7342959 126.8502437
v 176.1637042 276.1535718 126.7880300
v 176.1092300 276.2367302 126.8838108
v 176.5423586 275.8137346 126.8210303
v 176.4335419 275.8865881 126.9213730
v 176.8880456 275.6759836 126.8486155
v 177.1787285 275.6394533 126.8682842
v 176.9024606 275.6631291 126.9579258
v 177.6670350 275.7340991 126.9032798
v 177.3944600 275.6590396 126.9935408
v 178.0736389 276.0259933 126.9393498
v 178.2068414 276.1937770 127.0650824
v 178.4086616 276.9802904 127.0143747
v 178.4061129 276.7542706 127.1069933
v 178.3854839 277.1213229 127.1313932
v 178.2035014 277.5641758 127.0572787
v 177.8738224 277.9023757 127.0954479
v 178.0666056 277.7339651 127.1832899
v 177.7724494 277.9581924 127.2090874
v 177.4494538 278.0805616 127.2312606
v 177.0306689 278.1087881 127.2610543
v 176.5663876 277.9477534 127.1895987
v 176.3233376 277.7729447 127.2097477
v 176.5747456 277.9576935 127.2971574
v 176.0380906 277.3794420 127.2435506
v 176.1925378 277.6383035 127.3328782
v 175.9385307 276.8891994 127.2795711
v 175.9781321 277.1872254 127.3678717
v 176.1222673 276.2153727 127.3337048
v 175.9455016 276.6938983 127.3986556
v 176.0450842 276.3797121 127.4248396
v 176.5621910 275.7945863 127.3748398
v 177.0220443 275.6490085 127.4062215
v 176.7316644 275.7218111 127.4964880
v 177.4215988 275.6573342 127.5453551
v 178.0372010 275.9797615 127.4845748
v 177.9677574 275.9180834 127.5845470
v 178.3148297 276.3949910 127.5205663
v 178.2718988 276.3039694 127.6230665
v 178.4053642 276.7693172 127.5486037
v 178.3822885 276.6114499 127.6449913
v 178.3940791 277.1079180 127.5714946
v 178.4085238 276.9203341 127.6694045
v 178.2372795 277.5081870 127.6019766
v 178.3497672 277.2652223 127.6908089
v 178.1941226 277.5746540 127.7166291
v 177.7952829 277.9489661 127.6464883
v 177.9432544 277.8447186 127.7438414
v 177.1174162 278.1116958 127.6959933
v 177.3965127 278.0914971 127.7847850
v 177.0766040 278.1056699 127.8087084
v 176.5324015 277.9328893 127.7427565
v 176.7342107 278.0387507 127.8294301
v 176.2600565 277.7049530 127.7680663
v 176.0669244 277.4395244 127.7935592
v 176.2432464 277.6995468 127.8772935
v 175.9413436 276.9608083 127.8244872
v 176.0067469 277.2808352 127.9083934
v 176.0451889 276.3739339 127.8665961
v 175.9348420 276.7895818 127.9481479
v 176.0630456 276.3441134 127.9784027
v 176.2508363 276.0446645 128.0043898
v 176.7541408 275.7065764 128.0429947
v 177.2246422 275.6404105 128.0810766
v 177.7347125 275.7729617 128.0081766
v 178.0313286 275.9857225 128.0341830
v 178.2459160 276.2467210 128.1659124
v 178.4155151 276.8110219 128.1030067
v 178.3866774 276.6352846 128.1977976
v 178.4058917 276.9828277 128.2215048
v 178.1944912 277.5834548 128.1617612
v 178.3211942 277.3424112 128.2469470
v 178.1556465 277.6251170 128.2709143
v 177.8443033 277.9192202 128.1931816
v 177.9062965 277.8761357 128.2958080
v 177.5096367 278.0641025 128.2187052
v 177.5182945 278.0650253 128.3267972
v 177.1170251 278.1164951 128.2466586
v 177.0806456 278.1134385 128.3571206
v 176.7524234 278.0345502 128.3837984
v 176.3812418 277.8246303 128.3036665
v 176.4527126 277.8800119 128.4055239
v 176.1211523 277.5233671 128.3322630
v 176.1391033 277.5591865 128.4372199
v 175.9796625 277.1865073 128.3581881
v 175.9395971 276.8228263 128.3842310
v 176.0111422 276.4633680 128.4102140
v 175.9548030 276.6517328 128.5068628
v 176.1814195 276.1400774 128.4362471
v 176.1283916 276.2181432 128.5374307
v 176.4675210 275.8620280 128.4644533
v 176.4310185 275.8834044 128.5690932
v 176.8681723 275.6755282 128.4951186
v 177.6565633 275.7295570 128.5522464
v 177.3035084 275.6477894 128.6362302
v 177.6616882 275.7387889 128.6611647
v 178.0295577 275.9841942 128.5855617
v 178.2482413 276.2528048 128.7157510
v 178.3975433 276.6872074 128.7499981
v 178.4050820 276.9795416 128.6634545
v 178.3398238 277.2878831 128.6866546
v 178.3979241 277.0529109 128.7765467
v 178.1773145 277.6005536 128.7111404
v 178.2909606 277.4100497 128.8025564
v 177.2986628 274.6241890 123.4999836
v 177.9545546 274.7715430 123.4999836
v 178.4515250 275.0244263 123.4999835
v 176.4143581 274.7530820 123.4999837
v 178.7599791 275.2917501 123.4999836
v 179.0781691 275.6652108 123.4999836
v 175.6497282 275.2151131 123.4999837
v 179.3991844 276.4991935 123.4999837
v 175.1243353 275.9380097 123.4999836
v 179.3710583 277.3924973 123.4999836
v 174.9209118 276.8083195 123.4999837
v 178.9984802 278.2044503 123.4999836
v 175.0712829 277.6888445 123.4999836
v 178.3396296 278.8082102 123.4999836
v 175.5519872 278.4421930 123.4999837
v 176.0895253 278.8406316 123.4999836
v 177.6067880 279.0836699 123.4999837
v 176.5538141 279.0351597 123.4999837
v 177.0492350 279.1172179 123.4999837
v 178.7599791 275.2917501 121.6739737
v 178.5836792 275.1351480 121.5840571
v 178.1286492 274.8444769 121.6179796
v 177.6651068 274.6946059 121.5593941
v 177.4292388 274.6522397 121.5914113
v 176.6588643 274.6927488 121.6485965
v 176.2251911 274.8451292 121.6257304
v 175.9014586 275.0371837 121.5849492
v 175.6853768 275.2080203 121.5882799
v 175.0097868 277.4583051 121.6255708
v 175.1138377 277.7479665 121.6059499
v 175.2787067 278.0701309 121.6075829
v 175.4936473 278.3536244 121.5960229
v 175.7844714 278.6347308 121.6163991
v 176.0650169 278.8207802 121.6149938
v 176.3604000 278.9649291 121.6170004
v 176.8463867 279.0966236 121.6226477
v 177.7640242 279.0377327 121.5918143
v 178.4761668 278.6962421 121.5936441
v 179.0561129 278.0914638 121.6030751
v 179.2425208 277.7425545 121.6094369
v 179.4080286 277.0766732 121.6149549
v 179.4050254 276.6617925 121.5964060
v 178.9742644 275.5312062 121.6345831
v 178.7704420 275.3042651 121.6397698
v 178.6058418 275.4082266 121.3171080
v 178.5518370 275.1953371 121.4311798
v 178.3350503 275.2487314 121.2892347
v 178.1389334 274.8835609 121.5049160
v 178.1829453 275.0011416 121.3829566
v 178.2161979 275.3022295 121.2599566
v 177.8312237 274.9026465 121.3361899
v 177.7942558 275.0635699 121.2656730
v 177.6343756 274.8229499 121.3607844
v 177.2759719 274.8800243 121.2899878
v 177.3797250 274.7329467 121.4080509
v 177.0975151 274.6414263 121.5748273
v 176.7891431 274.6884648 121.5297518
v 176.9707558 274.7467551 121.3927984
v 176.5638278 274.8530560 121.3679401
v 176.4956027 274.7665742 121.5185346
v 176.7950747 274.9031670 121.2981918
v 176.2206229 274.9119638 121.4508556
v 176.8646954 275.0055060 121.2603067
v 176.3662969 275.0312557 121.3008431
v 176.0711004 275.1360264 121.3244052
v 175.8056655 275.1832775 121.4445241
v 176.1517827 275.2722423 121.2620306
v 175.5137178 275.3849935 121.5606975
v 175.6754909 275.3614659 121.3840345
v 175.2894866 275.6721565 121.5757709
v 175.3913433 275.6811664 121.4034474
v 175.7450545 275.5465708 121.2742163
v 175.6065031 275.5550094 121.3193631
v 175.1332682 275.9644287 121.5853947
v 175.2278236 275.9711742 121.4043082
v 175.0286303 276.2298299 121.6165673
v 175.2645601 276.1497352 121.3140013
v 175.0441348 276.3091864 121.4903013
v 175.4818174 275.9833957 121.2632548
v 174.9431176 276.7150128 121.5777306
v 175.0214246 276.6060175 121.4376649
v 175.1259912 276.4531207 121.3461023
v 175.2942532 276.5351330 121.2639128
v 174.9463048 277.0965407 121.6059143
v 175.0405195 276.9344251 121.3911497
v 174.9936147 277.1244493 121.4760611
v 175.1661384 276.9910678 121.2964708
v 175.0787301 277.5334794 121.4774054
v 175.1245162 277.4029118 121.3699770
v 175.2994554 277.3430174 121.2660300
v 175.2772043 277.7967665 121.3659235
v 175.2730511 277.9770138 121.4732011
v 175.4303995 277.8071866 121.2829766
v 175.5144573 278.1557738 121.3522667
v 175.5755153 278.3898825 121.4880908
v 175.8895085 278.6690292 121.4966773
v 175.7415403 278.3303564 121.3126225
v 175.8099707 278.5271687 121.3976582
v 175.8252021 278.2222023 121.2612892
v 176.1480328 278.5463718 121.2777754
v 176.2860650 278.8675130 121.4422207
v 176.1261285 278.6876155 121.3528382
v 176.4487808 278.7647128 121.3036031
v 176.6027968 279.0065287 121.4875102
v 176.8378966 278.9269520 121.3344774
v 176.7483895 278.7225773 121.2607995
v 177.0920832 279.0708581 121.4704670
v 177.3498243 279.1112244 121.6131097
v 177.4483332 279.0159190 121.4071054
v 177.4282787 278.8449858 121.2830479
v 177.8397018 278.9616494 121.4659902
v 177.6104004 278.9323757 121.3571009
v 178.2104048 278.8629408 121.5963492
v 178.0418659 278.7578563 121.3325447
v 177.8926695 278.6468178 121.2624190
v 178.2104994 278.8042118 121.4582388
v 178.5543023 278.5060263 121.3840898
v 178.6703623 278.5183860 121.5293051
v 178.7923110 278.4314598 121.6012315
v 178.4360997 278.4414426 121.2963669
v 178.8961124 278.2021974 121.4354868
v 178.7500458 278.1350325 121.2972101
v 179.1006338 277.9365393 121.4809453
v 179.0240347 277.8936076 121.3659115
v 179.0362187 277.6309471 121.2978855
v 179.2183128 277.6409268 121.4484839
v 179.3450944 277.4110778 121.5730012
v 179.1918480 277.4140995 121.3411374
v 178.6168175 278.1198989 121.2601820
v 179.0086730 277.3617380 121.2612874
v 179.3770204 276.8205886 121.4837633
v 179.3248397 277.2036319 121.4411357
v 179.2779513 276.8177784 121.3564074
v 179.1204967 276.9697978 121.2728285
v 179.2735999 276.4570388 121.3951876
v 179.1686763 276.5878434 121.3011619
v 179.3136262 276.3189406 121.4981280
v 179.3117629 276.1926715 121.6354608
v 179.0011229 276.3561472 121.2616078
v 179.1775134 275.8825889 121.5765138
v 179.1417174 275.9382242 121.4472862
v 179.1135921 276.1502812 121.3306559
v 178.9412688 275.5551777 121.4916288
v 178.9584014 275.8148635 121.3364626
v 178.8655038 275.5729913 121.3903093
v 178.8102153 275.8458043 121.2688501
v 177.4941759 275.6866218 121.2590000
v 176.3044850 276.0053777 121.2590000
v 178.3651251 276.5575415 121.2590000
v 175.9856749 277.1951217 121.2590000
v 178.0463150 277.7473539 121.2590000
v 176.8566241 278.0661098 121.2590000
v 177.4941759 275.6866218 122.6886472
v 176.3044850 276.0053777 122.6886472
v 178.3651251 276.5575415 122.6886472
v 178.0463150 277.7473539 122.6886472
v 176.8566241 278.0661098 122.6886472
v 175.9856749 277.1951217 122.6886472
v 178.0360343 277.7670776 128.8351991
v 177.4937456 278.0709934 128.7708431
v 177.7112798 277.9883736 128.8627393
v 177.4102503 278.0894980 128.8854388
v 177.0722281 278.1125567 128.8022686
v 176.7057040 278.0163831 128.8266443
v 176.4280007 277.8640641 128.8517470
v 176.1466483 277.5705606 128.9890940
v 175.9582718 277.1078330 128.9105070
v 175.9422183 277.0367022 129.0269913
v 175.9649906 276.6125772 128.9476528
v 176.1311534 276.2139102 128.9812946
v 175.9901755 276.5166657 129.0641772
v 176.3450932 275.9638857 129.0042919
v 176.1895037 276.1295174 129.0954640
v 176.6479915 275.7554217 129.0280483
v 176.4687602 275.8614211 129.1226029
v 176.8427130 275.6850057 129.1530091
v 177.3689162 275.6526466 129.0808686
v 177.2264488 275.6383703 129.1742246
v 177.8283496 275.8210080 129.1185380
v 177.7838965 275.7918383 129.1710841
v 178.2674915 276.2970655 129.1663848
v 176.4880070 276.1849272 124.3802867
v 177.2441761 275.6449207 124.2318926
v 176.8449260 275.9504613 124.4169715
v 177.5440848 275.6987320 124.2535187
v 177.3400438 275.9147763 124.4634107
v 177.7092219 276.0586739 124.4991059
v 178.3016613 276.3734240 124.3278707
v 178.3006776 277.3815471 124.4015090
v 178.1460406 277.0150325 124.5984121
v 177.8924954 277.5559907 124.6524135
v 177.5680474 278.0461656 124.4735572
v 176.9853288 277.8294790 124.7392039
v 176.6797197 277.7189057 124.7669340
v 176.1095179 277.4970712 124.5929167
v 176.3271618 277.3597189 124.8183191
v 176.2034446 276.9640953 124.8530992
v 175.9720810 276.5756014 124.6587624
v 176.2497755 276.5713667 124.8908685
v 176.5395056 276.1448599 124.9358220
v 176.7679988 275.9887814 124.9607396
v 177.0335834 275.9175067 124.9854227
v 177.9322094 275.9022161 124.8346834
v 177.9572042 276.2997680 125.0820999
v 178.4067314 276.8006263 124.9091077
v 178.1215420 276.6267750 125.1101842
v 178.1068388 277.1813326 125.1652029
v 177.8988526 277.5244736 125.2017361
v 177.6985374 277.6950437 125.2217444
v 177.6044789 278.0409523 125.0201935
v 177.4080178 277.8293811 125.2523918
v 176.9342584 277.8177794 125.2972855
v 176.6700641 277.7069014 125.3192792
v 176.4644563 277.5361134 125.3454788
v 175.9770484 277.2081978 125.1639809
v 176.2806629 277.2688872 125.3717137
v 176.2039147 276.7989476 125.4199241
v 176.0276774 276.4263571 125.2248604
v 176.2731525 276.5188130 125.4455595
v 176.4113805 276.2713059 125.4715464
v 176.6091592 276.0876413 125.4958204
v 176.8254849 275.9726044 125.5159551
v 177.0963195 275.9030166 125.5411801
v 177.3758905 275.9266962 125.5651992
v 178.0058039 275.9657563 125.3915462
v 177.6490921 276.0243466 125.5946401
v 178.0035177 276.3569860 125.6336781
v 178.3670503 276.5459683 125.4398056
v 178.4088869 276.8730278 125.4641538
v 178.1475373 276.7952131 125.6784450
v 178.0833611 277.2464831 125.7205463
v 177.7229944 277.9810314 125.5619696
v 177.6325316 277.7334172 125.7824266
v 176.9768380 277.8322585 125.8414856
v 176.4342971 277.5065202 125.8972780
v 176.0751545 277.4557265 125.6952295
v 176.2920706 277.2830331 125.9251241
v 176.2139865 277.0264111 125.9455589
v 175.9594970 276.6750633 125.7534797
v 176.2134344 276.7208992 125.9769152
v 176.3017434 276.4540135 125.9985933
v 176.4568062 276.2179425 126.0277152
v 176.7799013 275.9840779 126.0616430
v 177.0349810 275.6409049 125.8644576
v 177.1695686 275.9017687 126.0997094
v 177.6656662 276.0401794 126.1446054
v 177.8604090 276.1864785 126.1646788
v 178.0191447 276.3934823 126.1924060
v 178.1478162 276.9054407 126.2361414
v 178.1060883 277.1575230 126.2632100
v 178.1708540 277.6049200 126.0693893
v 177.9857783 277.4223159 126.2874983
v 177.9575100 277.8315030 126.0915322
v 177.7407578 277.6681728 126.3188924
v 177.4432600 277.8168646 126.3492749
v 177.5429331 275.9711991 128.3318432
v 177.0177354 277.8348121 126.3878340
v 176.3460932 277.3814681 126.4611324
v 176.5823949 277.6580084 126.4327639
v 176.0017092 277.2534975 126.2623220
v 176.2192033 277.0692800 126.4931447
v 176.2341118 276.6130468 126.5377985
v 176.4763645 275.8480013 126.3727124
v 176.5036891 276.1710480 126.5814105
v 177.0150551 275.9177956 126.6314383
v 176.7597035 275.9958725 126.6116049
v 177.2493945 275.9103083 126.6546398
v 177.5360039 275.6933086 126.4516062
v 177.4887959 275.9571551 126.6786526
v 177.7233028 276.0740537 126.7023096
v 178.0678049 276.4863249 126.7467164
v 178.1474417 276.8120335 126.7813044
v 178.0757658 277.2545184 126.8203317
v 177.9149649 277.5021555 126.8470155
v 177.5634852 278.0472924 126.6733845
v 177.6893439 277.7085649 126.8745273
v 177.2838564 277.8461891 126.9131918
v 176.6709427 277.7067851 126.9691127
v 176.9033214 277.8143740 126.9476546
v 176.4801767 277.5533694 126.9913386
v 176.2359211 277.1251886 127.0397083
v 176.2435933 276.5981392 127.0840414
v 176.3590177 276.3404854 127.1112981
v 176.5537301 276.1321739 127.1393303
v 176.7594389 275.9952871 127.1569743
v 177.0429247 275.9142433 127.1876374
v 177.3039430 275.9144461 127.2078695
v 177.5475999 275.9753425 127.2295636
v 177.8705172 275.8454304 127.0267781
v 177.8012267 276.1333362 127.2610699
v 177.9738064 276.3265367 127.2825814
v 178.3398437 276.4730409 127.0848611
v 178.0950738 276.5641053 127.3084208
v 178.1475457 276.8368023 127.3295793
v 178.1191689 277.1063864 127.3581987
v 178.2740723 277.4413250 127.1546821
v 177.8531575 277.5721472 127.4036948
v 178.0104305 277.3759752 127.3846493
v 177.3949035 277.8279894 127.4530004
v 177.0014671 277.8379043 127.4881296
v 176.6335199 277.6859293 127.5219731
v 176.3509112 277.3988005 127.5610891
v 176.2118848 277.0141966 127.5977903
v 176.5257190 276.1488151 127.6858153
v 176.2704384 276.5074434 127.6476214
v 176.3175123 275.9759542 127.4620368
v 177.0702340 275.6475513 127.5193658
v 176.9375332 275.9257073 127.7230982
v 177.3555791 275.9232539 127.7642426
v 177.8242332 276.1526718 127.8138446
v 177.9943014 276.3517379 127.8334568
v 178.1105082 276.6035777 127.8629306
v 178.1478172 276.9560875 127.8923938
v 177.8169358 277.6026845 127.9597151
v 178.0111125 277.3847201 127.9330541
v 177.7028588 277.9913448 127.7627558
v 177.6172468 277.7407313 127.9829639
v 177.3557590 277.8341114 128.0086006
v 177.0751951 277.8414427 128.0331810
v 176.5712044 277.6351035 128.0814570
v 176.7855761 277.7718347 128.0586163
v 176.3958286 277.4513959 128.1045862
v 176.2575799 277.2041554 128.1325839
v 176.2210908 276.7078520 128.1752446
v 176.2978999 276.4598298 128.2008768
v 176.4483587 276.2349054 128.2235881
v 176.9071663 275.9408457 128.2754488
v 177.5234403 275.6940415 128.1020812
v 177.2076303 275.9035402 128.3006028
v 176.1086119 277.5003416 126.6866059
v 175.9950043 277.2307171 126.7058256
v 177.9164808 276.2474959 126.7260920
v 178.3393933 276.4396802 126.9784089
v 178.3187899 277.3434704 127.0407545
v 177.5308851 278.0576544 127.1185648
v 177.2167186 278.1107421 127.1425353
v 176.8584567 278.0716653 127.1680814
v 176.3315189 277.3540716 127.0153766
v 176.2039101 276.8516321 127.0644821
v 175.9944815 276.5150440 127.3081915
v 177.3488172 275.6558867 127.4315729
v 177.6308089 275.7265230 127.4534093
v 178.0537653 277.7415098 127.6253339
v 177.6599394 277.7169084 127.4290517
v 177.4547518 278.0780538 127.6751327
v 176.8035018 278.0514974 127.7212715
v 175.9529513 276.7132210 127.8430174
v 176.3144420 275.9791070 127.9027797
v 176.7600825 275.7115988 127.9399892
v 177.2400283 275.6344067 127.9718070
v 177.6150602 276.0121746 127.7890487
v 178.2683372 276.2927575 128.0655123
v 178.3591854 277.2268157 128.1321927
v 176.6984137 278.0154808 128.2793908
v 176.2088159 276.9607056 128.1544848
v 176.6504092 276.0612455 128.2476806
v 177.2072903 275.6430136 128.5211344
v 176.8738953 275.6795545 124.6483716
v 177.2329546 275.6369206 124.6770780
v 177.5970393 275.7168799 124.7003658
v 177.9566146 275.9121807 124.7310556
v 177.9908620 276.3388310 124.5356524
v 178.1288191 276.6857994 124.5706078
v 178.3895596 277.0965645 124.8226000
v 178.2810109 277.4303558 124.8493915
v 178.1004892 277.6935112 124.8707240
v 177.3882271 277.8323776 124.7054512
v 176.5976885 277.9697489 124.9881296
v 176.2210349 277.6734418 125.0230622
v 175.9576700 277.1274904 125.0681208
v 175.9440934 276.7910152 125.0887210
v 176.3745206 276.3270959 124.9151898
v 176.7786002 275.6979140 125.1927721
v 177.2850809 275.6451601 125.2282184
v 177.3884563 275.9229300 125.0151863
v 177.7406407 276.0831272 125.0546893
v 178.3389118 276.4575464 125.3278599
v 177.7723712 277.9557114 125.4503602
v 177.1943229 278.1117224 125.4939173
v 176.4131737 277.8587346 125.5548312
v 176.0390435 277.3810902 125.5989298
v 175.9539266 277.0516357 125.6196602
v 177.4425913 275.6709758 125.7900662
v 178.2227811 276.2189735 125.8588930
v 178.4014447 277.0674869 125.9182543
v 178.2068146 277.5625868 125.9574824
v 177.8483620 277.5768904 125.7579712
v 177.3560999 277.8326693 125.8089809
v 176.6322800 277.6825432 125.8770883
v 175.9487702 276.9960968 126.1733561
v 176.5443961 275.8050112 126.2764774
v 176.8595664 275.6833195 126.2971432
v 177.4392828 275.9417217 126.1238350
v 178.1623196 276.1199360 126.4011878
v 178.1175543 276.6464581 126.2153047
v 178.3969475 277.0916715 126.4728926
v 178.1904250 277.5891610 126.5132455
v 176.9913107 275.6565101 129.0553207
v 177.4345392 275.9376586 128.8707332
v 177.8564660 276.1658678 128.9144451
v 178.1469783 276.7117596 128.9702243
v 178.3840861 276.6604358 129.1818237
v 178.0987299 277.1811729 129.0124193
v 177.9547028 277.4606207 129.0411453
v 178.3631193 277.1010438 129.1984163
v 178.1529544 277.5625796 129.2164489
v 177.3397676 277.8370824 129.1074337
v 176.9127336 277.8231886 129.1455306
v 176.9422708 277.9909087 129.2737268
v 176.5386287 277.6129753 129.1848717
v 176.2060434 276.9803102 129.2500691
v 177.7656082 277.8846917 129.2394203
v 176.2538443 276.5413300 129.2904928
v 176.1844643 276.5254866 129.3545483
v 176.4965107 276.1775290 129.3295727
v 176.6677217 275.9938566 129.3891089
v 177.0472243 275.9096888 129.3857691
v 177.4577463 275.9414177 129.4245018
v 177.0932027 275.8760273 129.4090455
v 177.8848668 276.2057000 128.3689650
v 178.1333074 276.6532215 128.4148666
v 178.2251213 276.2279171 128.6078962
v 178.3818653 276.5863688 128.6367157
v 178.0921586 277.2273537 128.4672829
v 177.8519933 277.5750161 128.5052641
v 177.8907473 277.8883412 128.7404435
v 177.4944940 277.8050678 128.5436948
v 176.9286006 277.8260780 128.5973145
v 176.4228400 277.5106655 128.6488553
v 176.1255052 277.5340972 128.8822103
v 176.1954687 276.9622334 128.7024322
v 176.4142585 276.2709112 128.7689097
v 176.7024256 276.0238264 128.8034180
v 177.0857840 275.9024341 128.8394482
v 177.8876552 277.4362419 129.5000262
v 177.1635136 275.9613970 129.5000679
v 176.7304712 276.0852686 129.5000146
v 178.0485876 277.1222725 129.5000248
v 178.0722483 276.7324090 129.5000220
v 177.9036755 276.3321459 129.5000594
v 178.1380741 276.0925870 129.1563806
v 177.6313526 276.0926926 129.5000484
v 176.3784004 276.2132914 129.3716601
v 176.4150643 276.3717999 129.5000497
v 176.2774438 276.7521064 129.5000102
v 176.1060482 276.8789936 129.3380064
v 176.1893915 277.3550749 129.3163127
v 176.3067527 277.1489990 129.5000571
v 176.5478276 277.5359299 129.5000350
v 176.5053583 277.7671808 129.2955373
v 176.8854994 277.7347804 129.5000216
v 177.2663224 277.7842403 129.5001281
v 177.3807433 278.0089967 129.2552638
v 177.6515264 277.6499269 129.5000412
v 175.9675552 277.1423842 128.4757871
v 176.2505989 276.5742391 128.7374552
v 176.9035044 275.6675573 128.6068982
v 177.9805357 275.9394530 128.6892029
v 177.7006766 277.6981861 129.0721435
v 177.0945862 278.1073450 128.9068847
v 176.7395195 278.0357425 128.9316591
v 176.4258824 277.8563817 128.9576870
v 176.2999772 277.3104982 129.2203346
v 176.7718812 275.9910716 129.3594355
v 177.8760167 275.8528592 128.1296510
f 424 2 1
f 424 1 3
f 4 424 3
f 5 4 3
f 5 3 6
f 7 5 6
f 7 6 8
f 9 7 8
f 9 8 10
f 427 9 10
f 12 427 10
f 12 10 11
f 430 12 11
f 430 11 13
f 17 13 14
f 17 430 13
f 18 17 14
f 18 14 15
f 16 17 18
f 22 17 16
f 19 18 15
f 19 15 20
f 24 19 20
f 23 22 590
f 26 23 591
f 415 24 20
f 415 20 25
f 417 415 25
f 28 26 592
f 29 417 25
f 29 25 27
f 435 28 593
f 32 29 27
f 32 27 30
f 31 435 593
f 36 31 33
f 420 32 30
f 420 30 34
f 38 420 34
f 38 34 35
f 437 36 37
f 40 437 37
f 41 38 35
f 41 35 39
f 42 40 596
f 421 41 39
f 44 39 43
f 44 421 39
f 45 42 597
f 2 44 43
f 2 43 1
f 16 21 22
f 21 590 22
f 590 591 23
f 591 592 26
f 592 593 28
f 593 33 31
f 33 37 36
f 37 596 40
f 596 597 42
f 597 598 45
f 46 45 598
f 442 45 46
f 442 46 47
f 49 442 47
f 49 47 48
f 50 49 48
f 600 50 48
f 51 50 600
f 601 51 600
f 447 51 601
f 602 447 601
f 53 447 602
f 603 53 602
f 52 53 603
f 450 53 52
f 55 450 52
f 54 55 52
f 56 55 54
f 605 56 54
f 57 56 605
f 59 57 605
f 606 59 605
f 58 59 606
f 61 59 58
f 60 61 58
f 457 61 60
f 62 457 60
f 609 62 60
f 460 62 609
f 63 460 609
f 461 460 63
f 65 461 63
f 64 65 63
f 67 65 64
f 66 67 64
f 68 67 66
f 610 68 66
f 464 68 610
f 69 464 610
f 70 464 69
f 611 70 69
f 71 70 611
f 72 71 611
f 73 71 72
f 612 73 72
f 74 73 612
f 468 74 612
f 613 468 612
f 76 468 613
f 614 76 613
f 75 76 614
f 471 76 75
f 78 471 75
f 77 78 75
f 79 78 77
f 81 79 77
f 80 81 77
f 476 81 80
f 82 476 80
f 84 476 82
f 615 84 82
f 83 84 615
f 85 84 83
f 616 85 83
f 87 85 616
f 86 87 616
f 88 87 86
f 617 88 86
f 89 88 617
f 618 89 617
f 483 89 618
f 485 483 618
f 485 618 90
f 92 485 90
f 91 92 90
f 93 92 91
f 94 92 93
f 95 94 93
f 97 94 95
f 97 95 96
f 98 97 96
f 100 98 96
f 99 100 96
f 492 100 99
f 102 492 99
f 622 102 99
f 101 102 622
f 104 102 101
f 103 104 101
f 105 104 103
f 495 105 103
f 623 495 103
f 107 495 623
f 624 107 623
f 106 107 624
f 500 107 106
f 108 500 106
f 109 500 108
f 626 109 108
f 110 109 626
f 112 110 626
f 111 112 626
f 113 112 111
f 628 113 111
f 114 113 628
f 115 114 628
f 629 115 628
f 117 115 629
f 117 629 116
f 507 117 116
f 118 507 116
f 120 507 118
f 119 120 118
f 122 120 119
f 121 122 119
f 124 122 121
f 123 124 121
f 125 124 123
f 562 125 123
f 563 125 562
f 127 125 563
f 126 127 563
f 129 127 126
f 128 129 126
f 131 129 128
f 130 131 128
f 133 131 130
f 132 133 130
f 136 133 132
f 134 136 132
f 135 136 134
f 138 136 135
f 137 138 135
f 521 138 137
f 139 521 137
f 140 521 139
f 565 140 139
f 524 140 565
f 142 524 565
f 141 142 565
f 143 142 141
f 143 141 566
f 528 143 566
f 144 528 566
f 146 528 144
f 145 146 144
f 147 146 145
f 567 147 145
f 148 147 567
f 568 148 567
f 149 148 568
f 569 149 568
f 152 149 569
f 150 152 569
f 151 152 150
f 154 152 151
f 153 154 151
f 156 154 153
f 155 156 153
f 158 156 155
f 572 158 155
f 157 158 572
f 159 158 157
f 538 159 157
f 160 538 157
f 162 538 160
f 161 162 160
f 539 162 161
f 163 539 161
f 573 163 161
f 574 163 573
f 165 163 574
f 164 165 574
f 167 165 164
f 166 167 164
f 169 167 166
f 168 169 166
f 171 169 168
f 170 171 168
f 173 171 170
f 173 170 172
f 174 173 172
f 575 174 172
f 176 174 575
f 175 176 575
f 548 176 175
f 577 548 175
f 178 548 577
f 177 178 577
f 179 178 177
f 181 179 177
f 578 181 177
f 180 181 578
f 184 181 180
f 182 184 180
f 183 184 182
f 186 184 183
f 185 186 183
f 188 186 185
f 579 188 185
f 187 188 579
f 189 188 187
f 190 189 187
f 580 190 187
f 191 190 580
f 581 191 580
f 582 191 581
f 192 191 582
f 560 192 582
f 193 560 582
f 697 560 193
f 194 697 193
f 195 697 194
f 584 195 194
f 197 195 584
f 196 197 584
f 198 197 196
f 585 198 196
f 200 198 585
f 199 200 585
f 201 200 199
f 203 201 199
f 202 203 199
f 205 203 202
f 204 205 202
f 206 205 204
f 207 205 206
f 586 207 206
f 208 207 586
f 210 208 586
f 209 210 586
f 212 210 209
f 211 212 209
f 213 212 211
f 687 212 213
f 214 687 213
f 216 687 214
f 215 216 214
f 218 216 215
f 217 218 215
f 220 218 217
f 219 220 217
f 221 220 219
f 689 220 221
f 589 689 221
f 223 689 589
f 222 223 589
f 224 223 222
f 690 224 222
f 225 690 222
f 226 690 225
f 654 226 225
f 655 226 654
f 227 226 655
f 228 227 655
f 230 227 228
f 229 230 228
f 232 230 229
f 231 232 229
f 391 232 231
f 391 231 658
f 233 20 236
f 233 25 20
f 234 25 233
f 20 15 236
f 235 25 234
f 236 15 239
f 235 27 25
f 237 30 235
f 235 30 27
f 238 30 237
f 15 14 239
f 239 14 241
f 14 13 241
f 238 34 30
f 240 34 238
f 241 13 243
f 240 35 34
f 13 11 243
f 240 242 35
f 35 242 39
f 11 245 243
f 10 245 11
f 242 244 39
f 39 244 43
f 10 247 245
f 8 247 10
f 43 244 1
f 244 246 1
f 8 248 247
f 6 248 8
f 1 246 3
f 6 250 248
f 246 249 3
f 6 251 250
f 3 251 6
f 249 251 3
f 253 252 237
f 253 237 235
f 254 253 235
f 254 235 234
f 255 254 234
f 255 234 233
f 256 255 233
f 288 256 233
f 257 288 233
f 257 233 236
f 258 257 236
f 259 236 239
f 259 258 236
f 260 259 239
f 300 260 239
f 302 300 239
f 302 239 241
f 306 302 241
f 308 306 241
f 308 241 243
f 312 308 243
f 316 312 243
f 261 316 243
f 261 243 245
f 262 261 245
f 263 262 245
f 263 245 247
f 264 263 247
f 265 264 247
f 265 247 248
f 266 265 248
f 267 266 248
f 267 248 250
f 268 267 250
f 268 250 251
f 340 268 251
f 340 251 249
f 269 340 249
f 269 249 246
f 345 269 246
f 270 345 246
f 351 270 246
f 351 246 244
f 271 351 244
f 272 271 244
f 272 244 242
f 359 272 242
f 273 359 242
f 273 242 240
f 274 273 240
f 370 274 240
f 370 240 238
f 372 370 238
f 275 372 238
f 275 238 237
f 252 275 237
f 252 252 237
f 252 252 237
f 276 275 252
f 276 252 252
f 276 252 252
f 253 276 252
f 280 253 254
f 280 278 253
f 281 277 278
f 279 277 281
f 281 278 280
f 283 279 281
f 255 280 254
f 283 281 280
f 282 279 284
f 283 280 255
f 284 279 283
f 285 283 255
f 287 285 255
f 287 255 256
f 286 283 285
f 288 287 256
f 286 284 283
f 286 285 287
f 295 282 284
f 290 287 288
f 289 288 257
f 295 284 286
f 289 290 288
f 290 286 287
f 293 286 290
f 292 289 257
f 291 290 289
f 292 291 289
f 292 257 258
f 295 286 293
f 293 290 291
f 294 291 292
f 294 292 258
f 296 293 291
f 259 294 258
f 297 291 294
f 295 293 296
f 296 291 297
f 298 294 259
f 299 295 296
f 298 297 294
f 260 298 259
f 297 299 296
f 301 297 298
f 300 298 260
f 301 298 300
f 305 297 301
f 304 299 297
f 304 297 305
f 303 301 300
f 303 300 302
f 311 299 304
f 305 301 303
f 307 303 302
f 311 304 305
f 307 302 306
f 309 305 303
f 309 303 307
f 311 305 309
f 310 307 306
f 310 306 308
f 314 307 310
f 309 307 314
f 310 308 312
f 312 313 310
f 313 314 310
f 315 311 309
f 315 309 314
f 317 314 313
f 317 313 312
f 318 317 312
f 318 312 316
f 319 314 317
f 319 315 314
f 320 318 316
f 320 316 261
f 321 317 318
f 322 315 319
f 321 318 320
f 321 319 317
f 262 320 261
f 321 322 319
f 324 320 262
f 324 262 263
f 323 321 320
f 323 320 324
f 325 322 321
f 325 321 323
f 326 323 324
f 325 323 326
f 264 324 263
f 327 324 264
f 326 324 327
f 331 322 325
f 329 325 326
f 265 327 264
f 330 326 327
f 328 327 265
f 331 325 329
f 328 330 327
f 329 326 330
f 266 328 265
f 333 328 266
f 333 330 328
f 334 329 330
f 332 331 329
f 334 330 333
f 333 266 267
f 332 329 334
f 336 333 267
f 335 332 334
f 338 331 332
f 333 335 334
f 268 336 267
f 337 335 333
f 337 333 336
f 338 332 335
f 339 336 268
f 337 336 339
f 340 339 268
f 338 335 337
f 341 337 339
f 342 338 337
f 341 339 340
f 341 340 269
f 342 337 341
f 344 342 341
f 343 341 269
f 347 338 342
f 344 341 343
f 348 269 345
f 348 343 269
f 346 344 343
f 348 346 343
f 346 342 344
f 347 342 346
f 270 348 345
f 349 346 348
f 350 348 270
f 350 270 351
f 349 348 350
f 352 347 346
f 352 346 349
f 361 347 352
f 353 350 351
f 353 349 350
f 354 352 349
f 271 353 351
f 353 354 349
f 354 361 352
f 355 353 271
f 356 353 355
f 272 355 271
f 356 354 353
f 356 355 358
f 358 355 272
f 357 354 356
f 359 358 272
f 360 356 358
f 361 354 357
f 357 356 360
f 362 361 357
f 364 358 359
f 360 358 364
f 364 359 273
f 362 357 360
f 363 364 273
f 366 362 360
f 274 363 273
f 365 360 364
f 365 364 363
f 366 360 365
f 369 274 370
f 369 363 274
f 367 363 369
f 367 365 363
f 366 365 368
f 368 365 367
f 371 362 366
f 371 366 368
f 372 369 370
f 374 368 367
f 373 369 372
f 374 367 369
f 374 369 373
f 371 368 374
f 375 373 372
f 375 372 275
f 376 374 373
f 378 371 374
f 377 373 375
f 378 374 376
f 377 376 373
f 275 276 253
f 375 275 253
f 375 253 278
f 377 375 278
f 277 376 377
f 377 278 277
f 277 378 376
f 378 282 371
f 378 277 279
f 378 279 282
f 379 282 295
f 380 379 295
f 380 295 299
f 380 299 311
f 381 282 379
f 381 371 282
f 362 371 381
f 382 311 315
f 382 380 311
f 382 315 322
f 331 382 322
f 383 361 362
f 383 362 381
f 331 384 382
f 338 384 331
f 347 361 383
f 347 383 384
f 338 347 384
f 379 380 385
f 385 380 386
f 381 379 387
f 387 379 385
f 383 381 388
f 388 381 387
f 384 383 389
f 389 383 388
f 382 384 390
f 390 384 389
f 380 382 386
f 386 382 390
f 385 386 390
f 387 390 389
f 387 389 388
f 387 385 390
f 393 391 658
f 393 658 392
f 394 393 392
f 394 392 395
f 692 394 395
f 693 692 395
f 693 395 396
f 693 396 397
f 694 693 397
f 398 694 397
f 398 397 662
f 400 398 662
f 400 662 399
f 400 399 401
f 403 400 401
f 403 401 402
f 405 403 402
f 405 402 404
f 407 405 404
f 407 404 406
f 408 407 406
f 408 406 630
f 410 408 630
f 410 630 409
f 412 410 409
f 412 409 411
f 673 412 411
f 19 414 18
f 94 487 92
f 24 416 19
f 19 416 414
f 24 415 416
f 416 415 418
f 415 417 418
f 418 417 419
f 417 29 419
f 32 594 29
f 29 594 419
f 594 420 595
f 32 420 594
f 595 38 422
f 420 38 595
f 38 41 422
f 422 421 423
f 41 421 422
f 421 44 423
f 44 2 423
f 423 2 599
f 2 424 599
f 424 4 599
f 599 4 425
f 5 425 4
f 7 425 5
f 7 426 425
f 7 9 426
f 426 9 428
f 9 427 428
f 12 429 427
f 427 429 428
f 430 429 12
f 429 430 431
f 430 17 431
f 431 17 604
f 22 432 17
f 17 432 604
f 432 22 433
f 23 434 22
f 26 434 23
f 22 434 433
f 26 607 434
f 26 28 607
f 607 28 608
f 28 435 608
f 608 435 436
f 436 31 438
f 435 31 436
f 36 438 31
f 36 437 438
f 438 437 439
f 437 40 439
f 45 439 42
f 42 439 40
f 439 45 440
f 440 45 441
f 442 441 45
f 441 442 443
f 442 49 443
f 443 49 444
f 50 444 49
f 51 445 50
f 50 445 444
f 51 446 445
f 447 448 51
f 51 448 446
f 448 447 449
f 447 53 449
f 53 451 449
f 450 451 53
f 450 55 451
f 451 55 452
f 452 56 453
f 55 56 452
f 57 454 56
f 56 454 453
f 454 57 455
f 59 456 57
f 57 456 455
f 59 61 456
f 456 61 458
f 61 457 458
f 458 457 459
f 460 459 62
f 62 459 457
f 459 460 462
f 460 461 462
f 462 461 463
f 461 65 463
f 65 67 463
f 463 67 619
f 619 68 465
f 67 68 619
f 68 464 465
f 465 464 620
f 464 70 620
f 70 466 620
f 71 466 70
f 466 73 621
f 71 73 466
f 621 74 467
f 73 74 621
f 468 467 74
f 469 468 470
f 467 468 469
f 76 470 468
f 76 471 470
f 470 471 472
f 78 473 471
f 79 473 78
f 471 473 472
f 473 79 474
f 81 475 79
f 79 475 474
f 476 475 81
f 475 476 477
f 477 84 625
f 476 84 477
f 85 478 84
f 84 478 625
f 85 479 478
f 87 479 85
f 479 87 480
f 480 87 627
f 88 627 87
f 88 481 627
f 88 89 481
f 481 89 482
f 482 89 484
f 89 483 484
f 483 485 484
f 484 485 486
f 486 92 487
f 485 92 486
f 414 16 18
f 94 489 487
f 97 489 94
f 489 97 491
f 97 98 491
f 100 490 98
f 98 490 491
f 100 492 490
f 490 492 493
f 493 102 494
f 492 102 493
f 102 104 494
f 494 105 496
f 104 105 494
f 495 496 105
f 496 495 498
f 107 497 495
f 495 497 498
f 500 499 107
f 107 499 497
f 501 500 502
f 499 500 501
f 502 109 564
f 500 109 502
f 109 110 564
f 564 110 503
f 112 503 110
f 112 113 503
f 113 504 503
f 504 114 505
f 113 114 504
f 114 115 505
f 117 506 115
f 115 506 505
f 506 117 508
f 508 507 509
f 117 507 508
f 509 120 511
f 507 120 509
f 120 122 511
f 124 510 122
f 122 510 511
f 124 512 510
f 125 512 124
f 125 570 512
f 125 127 570
f 570 127 513
f 513 127 571
f 129 571 127
f 131 514 129
f 129 514 571
f 514 131 515
f 131 516 515
f 133 516 131
f 136 517 133
f 133 517 516
f 136 518 517
f 138 519 136
f 136 519 518
f 138 520 519
f 521 520 138
f 520 521 522
f 140 523 521
f 521 523 522
f 140 524 523
f 523 524 525
f 525 524 526
f 142 526 524
f 143 526 142
f 526 143 527
f 143 528 527
f 527 528 530
f 146 529 528
f 528 529 530
f 146 147 529
f 147 576 529
f 147 148 576
f 576 148 531
f 531 149 532
f 148 149 531
f 152 532 149
f 152 533 532
f 154 533 152
f 154 534 533
f 156 534 154
f 156 535 534
f 158 535 156
f 535 158 537
f 158 159 537
f 538 536 159
f 159 536 537
f 162 540 538
f 538 540 536
f 162 539 540
f 540 539 541
f 163 541 539
f 163 583 541
f 165 583 163
f 542 165 543
f 583 165 542
f 167 543 165
f 167 169 543
f 543 169 544
f 171 545 169
f 169 545 544
f 171 173 545
f 545 173 547
f 173 174 547
f 176 546 174
f 174 546 547
f 176 548 546
f 549 548 550
f 546 548 549
f 548 178 550
f 178 179 550
f 550 179 551
f 551 179 553
f 179 181 553
f 184 552 181
f 181 552 553
f 184 554 552
f 184 186 554
f 554 186 555
f 188 587 186
f 186 587 555
f 189 556 188
f 188 556 587
f 556 189 557
f 557 189 558
f 190 558 189
f 191 588 190
f 190 588 558
f 588 191 559
f 191 561 559
f 192 561 191
f 488 560 697
f 192 560 561
f 561 560 488
f 487 119 118
f 489 119 487
f 119 489 121
f 491 121 489
f 121 491 123
f 490 562 491
f 491 562 123
f 490 563 562
f 493 563 490
f 493 126 563
f 494 126 493
f 128 494 130
f 126 494 128
f 496 130 494
f 130 496 132
f 496 498 132
f 132 498 134
f 497 134 498
f 497 499 134
f 135 499 137
f 134 499 135
f 499 501 137
f 137 502 139
f 501 502 137
f 502 564 139
f 139 564 565
f 503 565 564
f 503 504 565
f 565 504 141
f 505 141 504
f 505 566 141
f 505 506 566
f 144 506 145
f 566 506 144
f 508 145 506
f 509 567 508
f 508 567 145
f 511 568 509
f 509 568 567
f 511 569 568
f 510 150 511
f 511 150 569
f 510 512 150
f 512 151 150
f 151 570 153
f 512 570 151
f 570 513 153
f 153 513 155
f 513 571 155
f 155 571 572
f 514 572 571
f 515 572 514
f 515 157 572
f 515 516 157
f 157 516 160
f 517 160 516
f 517 518 160
f 160 518 161
f 519 573 518
f 520 573 519
f 518 573 161
f 520 574 573
f 520 522 574
f 574 522 164
f 522 523 164
f 164 523 166
f 166 525 168
f 523 525 166
f 526 168 525
f 526 527 168
f 168 527 170
f 170 530 172
f 527 530 170
f 529 575 530
f 530 575 172
f 529 576 575
f 575 576 175
f 531 577 576
f 576 577 175
f 531 532 577
f 577 532 177
f 533 578 532
f 532 578 177
f 533 180 578
f 534 182 533
f 533 182 180
f 534 183 182
f 535 183 534
f 183 535 185
f 537 579 535
f 535 579 185
f 579 537 187
f 536 580 537
f 537 580 187
f 580 536 581
f 540 581 536
f 540 582 581
f 540 541 582
f 582 541 193
f 541 583 193
f 193 542 194
f 583 542 193
f 544 584 543
f 543 584 542
f 542 584 194
f 584 544 196
f 545 196 544
f 547 585 545
f 545 585 196
f 547 199 585
f 547 546 199
f 199 546 202
f 546 549 202
f 202 549 204
f 204 550 206
f 549 550 204
f 550 551 206
f 553 586 551
f 551 586 206
f 553 552 586
f 586 552 209
f 552 554 209
f 209 554 211
f 554 555 211
f 211 555 213
f 213 587 214
f 555 587 213
f 587 556 214
f 214 556 215
f 556 557 215
f 215 557 217
f 557 558 217
f 217 558 219
f 219 588 221
f 558 588 219
f 588 559 221
f 561 589 559
f 559 589 221
f 561 488 589
f 589 488 222
f 416 21 414
f 414 21 16
f 416 590 21
f 416 591 590
f 418 591 416
f 419 592 418
f 418 592 591
f 419 593 592
f 419 594 593
f 593 594 33
f 33 594 37
f 594 595 37
f 422 596 595
f 595 596 37
f 423 597 422
f 422 597 596
f 423 598 597
f 423 46 598
f 599 46 423
f 46 599 47
f 47 599 48
f 425 48 599
f 426 600 425
f 425 600 48
f 426 601 600
f 428 601 426
f 601 428 602
f 429 602 428
f 429 603 602
f 431 603 429
f 603 431 52
f 431 604 52
f 52 604 54
f 604 432 54
f 433 605 432
f 432 605 54
f 433 434 605
f 605 434 606
f 607 606 434
f 606 607 58
f 607 608 58
f 58 608 60
f 60 436 609
f 608 436 60
f 438 609 436
f 439 63 438
f 438 63 609
f 63 439 64
f 440 64 439
f 64 440 66
f 443 610 441
f 441 610 440
f 440 610 66
f 443 69 610
f 443 611 69
f 444 611 443
f 72 444 612
f 611 444 72
f 445 612 444
f 446 612 445
f 612 446 613
f 448 613 446
f 448 614 613
f 449 614 448
f 614 449 75
f 75 451 77
f 449 451 75
f 451 452 77
f 452 453 77
f 77 453 80
f 80 454 82
f 453 454 80
f 455 82 454
f 456 615 455
f 458 615 456
f 455 615 82
f 615 458 83
f 459 83 458
f 459 616 83
f 462 86 459
f 459 86 616
f 462 617 86
f 463 617 462
f 617 463 618
f 618 619 90
f 463 619 618
f 90 465 91
f 619 465 90
f 465 620 91
f 91 620 93
f 620 466 93
f 93 466 95
f 95 621 96
f 466 621 95
f 467 96 621
f 469 96 467
f 96 469 99
f 472 622 470
f 470 622 469
f 469 622 99
f 622 472 101
f 472 103 101
f 473 103 472
f 473 474 103
f 103 474 623
f 475 623 474
f 477 624 475
f 475 624 623
f 624 477 106
f 477 625 106
f 106 625 108
f 625 478 108
f 480 626 479
f 479 626 478
f 478 626 108
f 626 480 111
f 480 627 111
f 482 628 481
f 481 628 627
f 627 628 111
f 628 482 629
f 484 629 482
f 486 116 484
f 484 116 629
f 486 487 116
f 116 487 118
f 666 631 409
f 631 411 409
f 632 411 631
f 632 673 411
f 413 673 632
f 633 413 632
f 634 413 633
f 635 637 633
f 633 637 634
f 638 635 636
f 635 638 637
f 638 636 691
f 685 640 641
f 639 640 685
f 682 641 640
f 643 679 695
f 691 644 638
f 691 685 644
f 639 685 691
f 642 682 640
f 642 679 682
f 695 679 642
f 643 678 679
f 645 678 643
f 645 646 678
f 645 675 646
f 647 675 645
f 647 648 675
f 696 648 647
f 649 651 696
f 696 651 648
f 650 651 649
f 652 225 488
f 488 225 222
f 653 654 652
f 655 654 653
f 652 654 225
f 653 228 655
f 656 228 653
f 231 229 656
f 656 229 228
f 658 231 657
f 657 231 656
f 659 658 657
f 659 392 658
f 659 395 392
f 660 395 659
f 395 660 396
f 660 397 396
f 661 397 660
f 661 662 397
f 663 399 661
f 661 399 662
f 401 399 663
f 663 688 401
f 664 402 688
f 688 402 401
f 665 404 664
f 664 404 402
f 406 404 665
f 406 665 666
f 409 630 666
f 666 630 406
f 650 674 668
f 651 650 668
f 651 668 669
f 648 651 669
f 638 667 670
f 670 637 638
f 637 670 671
f 634 637 671
f 413 671 672
f 634 671 413
f 673 413 672
f 672 412 673
f 674 412 672
f 412 674 650
f 650 410 412
f 675 648 669
f 675 669 676
f 646 675 676
f 646 676 677
f 678 646 677
f 678 677 680
f 679 678 680
f 679 680 681
f 682 679 681
f 682 681 683
f 683 641 682
f 684 641 683
f 685 641 684
f 644 684 686
f 644 685 684
f 686 667 638
f 644 686 638
f 671 667 686
f 671 686 684
f 671 670 667
f 676 680 677
f 672 684 683
f 672 671 684
f 674 672 683
f 668 674 683
f 668 683 681
f 668 676 669
f 668 681 680
f 668 680 676
f 657 201 203
f 656 201 657
f 200 201 656
f 657 203 659
f 203 205 659
f 205 207 659
f 659 207 660
f 207 208 660
f 660 210 661
f 208 210 660
f 210 212 661
f 212 687 661
f 661 687 663
f 663 687 216
f 216 688 663
f 216 218 688
f 688 218 664
f 218 220 664
f 664 220 665
f 689 665 220
f 666 665 689
f 666 689 223
f 631 223 224
f 666 223 631
f 632 224 690
f 631 224 632
f 632 690 226
f 632 226 633
f 226 227 633
f 633 230 635
f 227 230 633
f 230 232 635
f 635 232 636
f 391 636 232
f 393 691 391
f 391 691 636
f 393 394 691
f 691 394 639
f 640 692 693
f 394 692 639
f 639 692 640
f 693 694 640
f 642 694 398
f 640 694 642
f 398 695 642
f 643 695 400
f 400 695 398
f 643 400 645
f 645 400 403
f 403 405 645
f 645 405 647
f 647 407 696
f 405 407 647
f 408 696 407
f 649 696 408
f 408 410 649
f 410 650 649
f 652 697 195
f 488 697 652
f 652 195 653
f 195 197 653
f 197 198 653
f 653 198 656
f 198 200 656
