# Render LOD; unchanged CAD body-local coordinates in mm
v -47.8709259 87.3680171 141.3650000
v -47.1719388 87.3680171 141.3650000
v -43.7628000 81.4185000 141.3650000
v -48.1020269 87.3680171 141.3650000
v -47.8709259 87.4691294 141.3650000
v -48.2166004 87.3680171 141.3650000
v -47.7787342 87.9720729 141.3650000
v -47.2929071 87.9720729 141.3650000
v -47.2929071 87.4691294 141.3650000
v -47.1719388 88.6401800 141.3650000
v -47.7787342 88.0721782 141.3650000
v -47.2929071 88.5390676 141.3650000
v -47.2929071 88.0721782 141.3650000
v -48.6825326 87.3680171 141.3650000
v -48.7946192 87.3680171 141.3650000
v -47.8338006 88.5390676 141.3650000
v -48.7385284 87.5011874 141.3649840
v -48.8271261 87.7273487 141.3650000
v -48.6750114 87.6756530 141.3650115
v -49.2523803 87.3680171 141.3650000
v -48.2508836 88.4099580 141.3650000
v -48.2166004 88.3078385 141.3650000
v -48.2888971 88.3169024 141.3650000
v -48.2122524 88.5144120 141.3649944
v -49.3678420 87.3680171 141.3650000
v -48.1020269 88.6401800 141.3650000
v -47.8338006 88.6401800 141.3650000
v -49.7019702 87.3680171 141.3650000
v -55.4040000 81.4185000 141.3650000
v -49.8167214 87.3680171 141.3650000
v -50.2826536 87.3680171 141.3650000
v -49.2307789 88.4431828 141.3650050
v -49.1683597 88.2870924 141.3650000
v -49.2523803 88.3485252 141.3650000
v -50.3945626 87.3680171 141.3650000
v -49.2577093 88.5146959 141.3650000
v -50.3384857 87.5011275 141.3649861
v -50.4270695 87.7273487 141.3650000
v -50.2698341 87.6889631 141.3650066
v -50.8523237 87.3680171 141.3650000
v -49.8167214 88.3078385 141.3650000
v -49.8549689 88.3997473 141.3650001
v -49.8125871 88.5131354 141.3650181
v -50.9679630 87.3680171 141.3650000
v -43.7628000 94.6185000 141.3650000
v -48.2727325 88.6401800 141.3650000
v -49.1990903 88.6401800 141.3650000
v -49.3678420 88.6401800 141.3650000
v -49.7019702 88.6401800 141.3650000
v -51.3843355 87.5261310 141.3650000
v -51.4223490 87.4836316 141.3650000
v -51.4639152 87.4469733 141.3650000
v -51.3470325 87.5795071 141.3650000
v -51.5217782 87.4082953 141.3649876
v -51.3155914 87.6385229 141.3650000
v -51.5788440 87.3825192 141.3650000
v -51.2828239 87.7232798 141.3650000
v -51.6383511 87.3643915 141.3650000
v -51.7022991 87.3535149 141.3650000
v -51.2581618 87.8309563 141.3650242
v -51.6453652 87.4720578 141.3650746
v -51.5793769 87.5035721 141.3650000
v -51.7706880 87.3498893 141.3650000
v -51.6820489 87.4618783 141.3650000
v -51.5166305 87.5527348 141.3649803
v -51.7277007 87.4544258 141.3650000
v -51.4763495 87.6008575 141.3650000
v -51.8302715 87.3520696 141.3650000
v -51.7760170 87.4520088 141.3650000
v -51.4500598 87.6413428 141.3650000
v -50.7683031 88.2870924 141.3650000
v -50.8523237 88.3485252 141.3650000
v -51.9193695 87.3663653 141.3649773
v -50.8576206 88.5111130 141.3650327
v -52.0001902 87.3950072 141.3650000
v -52.0495723 87.4213931 141.3650000
v -51.9973481 87.5168658 141.3650000
v -51.8943208 87.4669138 141.3650000
v -51.9490318 87.4876600 141.3650000
v -52.0874082 87.4481818 141.3650000
v -52.0378485 87.5523155 141.3650000
v -51.8380110 87.4556344 141.3650000
v -52.1165400 87.4735607 141.3650000
v -52.0726646 87.5936064 141.3650000
v -52.1607707 87.5227069 141.3650000
v -51.3230520 88.3900175 141.3650000
v -50.9679630 88.6401800 141.3650000
v -52.1021517 87.6405371 141.3650000
v -51.3528944 88.4411780 141.3650000
v -52.1263099 87.6939131 141.3650000
v -51.4275004 87.6856550 141.3650000
v -51.4095594 87.7311757 141.3650000
v -51.3925194 87.7876469 141.3649902
v -51.3775854 87.8703563 141.3650000
v -51.3688602 87.9692511 141.3649970
v -52.2036240 87.5865972 141.3650000
v -51.3875329 88.4879072 141.3650000
v -52.2320017 87.6451697 141.3650000
v -51.4305201 88.5330251 141.3650000
v -51.4781259 88.5714961 141.3650000
v -51.5442769 88.6105868 141.3649844
v -51.5385212 88.4762249 141.3650000
v -51.5060143 88.4458106 141.3650000
v -51.5724492 88.5005966 141.3650000
v -51.6458883 88.5358026 141.3649767
v -51.4765272 88.4107637 141.3650000
v -51.6056666 88.6339360 141.3650000
v -51.7198418 88.5524335 141.3649985
v -51.4465071 88.3646387 141.3650000
v -51.6594895 88.6474311 141.3650000
v -51.7195296 88.6562935 141.3650000
v -52.1165400 88.3394613 141.3650000
v -51.8406755 88.5529656 141.3650000
v -51.7832999 88.5561883 141.3650000
v -51.3723991 88.1033480 141.3649996
v -51.3866283 88.2016042 141.3649935
v -51.4013883 88.2578866 141.3650000
v -51.4214608 88.3136797 141.3650000
v -52.0911385 88.3930388 141.3650000
v -51.8936102 88.5434989 141.3650000
v -51.9383071 88.5294167 141.3650661
v -52.0609408 88.4383581 141.3650000
v -51.9861572 88.5052292 141.3650000
v -52.0259470 88.4758220 141.3650000
v -52.2284490 88.3863920 141.3650000
v -55.4040000 94.6185000 141.3650000
v -51.9897697 88.6257494 141.3650000
v -51.9095972 88.6476325 141.3650000
v -51.8486690 88.6562935 141.3650000
v -51.7832999 88.6591134 141.3650000
v -52.1891234 88.4619711 141.3650000
v -52.1396324 88.5257740 141.3650000
v -52.0994872 88.5634393 141.3650000
v -52.0550789 88.5940550 141.3650000
v -49.8726759 88.6401800 141.3650000
v -50.7990337 88.6401800 141.3650000
v -51.2452954 88.0509660 141.3650000
v -51.2475127 87.9283299 141.3650000
v -51.2530644 88.1481132 141.3650000
v -51.2667806 88.2301645 141.3649960
v -51.2911974 88.3164760 141.3649858
v -43.7628000 94.6185000 142.0000000
v -43.7628000 81.4185000 142.0000000
v -55.4040000 81.4185000 142.0000000
v -55.4040000 94.6185000 142.0000000
v -47.1719388 87.3680171 141.3849991
v -47.8709259 87.3680171 141.3849991
v -47.1719388 88.6401800 141.3849991
v -47.8338006 88.6401800 141.3849991
v -47.8338006 88.5390676 141.3849991
v -47.2929071 88.5390676 141.3849991
v -47.2929071 88.0721782 141.3849991
v -47.7787342 88.0721782 141.3849991
v -47.7787342 87.9720729 141.3849991
v -47.2929071 87.9720729 141.3849991
v -47.2929071 87.4691294 141.3849991
v -47.8709259 87.4691294 141.3849991
v -48.7390426 87.5018440 141.3850146
v -48.6825326 87.3680171 141.3849991
v -48.7946192 87.3680171 141.3849991
v -48.1020269 87.3680171 141.3849991
v -48.2166004 87.3680171 141.3849991
v -48.1020269 88.6401800 141.3849991
v -48.2121595 88.5146959 141.3849991
v -48.2727325 88.6401800 141.3849991
v -48.2888971 88.3169024 141.3849991
v -49.1990903 88.6401800 141.3849991
v -49.1683597 88.2870924 141.3849991
v -49.2575915 88.5131571 141.3849845
v -49.3678420 88.6401800 141.3849991
v -49.2523803 88.3485252 141.3849991
v -49.3678420 87.3680171 141.3849991
v -48.6537560 87.7291615 141.3849991
v -49.2523803 87.3680171 141.3849991
v -50.3386081 87.5007522 141.3849991
v -50.2826536 87.3680171 141.3849991
v -50.3945626 87.3680171 141.3849991
v -49.8161777 88.3646034 141.3849920
v -49.7019702 87.3680171 141.3849991
v -49.8167214 87.3680171 141.3849991
v -49.7019702 88.6401800 141.3849991
v -49.8121029 88.5146959 141.3849991
v -49.8726759 88.6401800 141.3849991
v -49.8888405 88.3169024 141.3849991
v -50.7990337 88.6401800 141.3849991
v -50.7683031 88.2870924 141.3849991
v -50.9679630 88.6401800 141.3849991
v -50.8523237 88.3485252 141.3849991
v -50.9679630 87.3680171 141.3849991
v -50.4270695 87.7273487 141.3849991
v -50.2536994 87.7291615 141.3849991
v -50.8523237 87.3680171 141.3849991
v -51.5133828 87.5559152 141.3850400
v -51.4223490 87.4836316 141.3849991
v -51.4699877 87.4421367 141.3849545
v -51.3843355 87.5261310 141.3849991
v -51.4602587 87.6236672 141.3850013
v -51.3470325 87.5795071 141.3849991
v -51.5790216 87.5035721 141.3849991
v -51.5251416 87.4062489 141.3850293
v -51.5788440 87.3825192 141.3849991
v -51.4301649 87.6800152 141.3849991
v -51.3155914 87.6385229 141.3849991
v -51.6395946 87.4743663 141.3849991
v -51.4120463 87.7237232 141.3849991
v -51.6800950 87.4624826 141.3849991
v -51.7022991 87.3535149 141.3849991
v -51.3934100 87.7842777 141.3850032
v -51.2850364 87.7162515 141.3849991
v -51.7268125 87.4546273 141.3849991
v -51.7706880 87.3498893 141.3849991
v -51.2632539 87.8042609 141.3849665
v -51.7760170 87.4520088 141.3849991
v -51.8374622 87.3527510 141.3849991
v -51.8973405 87.3619745 141.3849991
v -51.3713682 87.9331990 141.3849991
v -51.2498968 87.8937609 141.3850116
v -51.8982287 87.4681223 141.3849991
v -51.9353540 87.3712398 141.3849991
v -51.3688493 87.9902885 141.3849987
v -51.2449541 88.0211019 141.3849991
v -51.9449993 87.4854079 141.3849157
v -52.0001902 87.3950072 141.3849991
v -51.3711292 88.0871725 141.3850008
v -51.2472025 88.0810406 141.3849991
v -52.0495723 87.4213931 141.3849991
v -51.2530644 88.1481132 141.3849991
v -51.9973481 87.5168658 141.3849991
v -52.0874082 87.4481818 141.3849991
v -51.3809324 88.1690584 141.3849938
v -51.2621699 88.2065264 141.3849892
v -52.0367827 87.5513084 141.3849991
v -52.1165400 87.4735607 141.3849991
v -51.3909079 88.2190127 141.3849991
v -51.2769436 88.2713278 141.3849991
v -51.4010330 88.2568795 141.3849991
v -51.2992491 88.3368429 141.3849991
v -52.0712435 87.5915922 141.3849991
v -52.1607707 87.5227069 141.3849991
v -51.3183406 88.3810095 141.3849412
v -52.2061815 87.5911228 141.3849991
v -52.0996464 87.6356543 141.3849545
v -51.4470400 88.3656458 141.3849991
v -51.3528944 88.4411780 141.3849991
v -52.1263099 87.6939131 141.3849991
v -52.2320017 87.6451697 141.3849991
v -51.4765272 88.4107637 141.3849991
v -51.3875329 88.4879072 141.3849991
v -51.5056590 88.4454078 141.3849991
v -51.4305201 88.5330251 141.3849991
v -51.5381659 88.4758220 141.3849991
v -51.5299948 88.6029175 141.3849991
v -51.5633899 88.6184268 141.3849991
v -51.6317787 88.5304066 141.3849991
v -51.6056666 88.6339360 141.3849991
v -51.6658843 88.5414847 141.3849991
v -51.6492705 88.6454658 141.3849493
v -51.7022991 88.5493400 141.3849991
v -51.7195296 88.6562935 141.3849991
v -51.7419114 88.5545769 141.3849991
v -51.7832999 88.6591134 141.3849991
v -51.7832999 88.5561883 141.3849991
v -51.8486690 88.6562935 141.3849991
v -51.8470873 88.5523669 141.3849481
v -51.9026942 88.6491029 141.3849528
v -51.8966300 88.5426932 141.3849991
v -51.9660846 88.6333318 141.3849991
v -51.9435252 88.5269825 141.3849991
v -52.0032100 88.6198367 141.3849991
v -51.9861572 88.5052292 141.3849991
v -52.1982514 88.4458106 141.3849991
v -52.1165400 88.3394613 141.3849991
v -52.2284490 88.3863920 141.3849991
v -52.0550789 88.5940550 141.3849991
v -52.0247036 88.4768291 141.3849991
v -52.1755143 88.4812604 141.3849991
v -52.0588092 88.4411780 141.3849991
v -52.0994872 88.5634393 141.3849991
v -52.1347357 88.5312556 141.3849206
v -49.2532354 88.3964498 141.3780016
v -48.2472516 88.4187413 141.3849558
v -48.2162644 88.3490973 141.3849594
v -48.7974341 87.6544730 141.3849138
v -50.8535507 88.4021925 141.3780042
v -50.8577241 88.5132625 141.3849799
v -49.8434685 88.4288828 141.3849392
v -50.2852361 87.6481332 141.3849742
v -50.3958668 87.6501463 141.3849323
v -51.9705254 87.3827206 141.3783327
v -51.6327149 87.3655162 141.3849332
v -51.4830342 88.5752208 141.3849168
v -52.0382037 88.4643412 141.3783327
v -52.0879889 88.3986993 141.3849387
v -51.5694091 88.4989864 141.3849917
v -51.6026468 88.5175158 141.3749995
v -51.4195953 88.3095502 141.3849628
v -51.3787671 87.8600005 141.3849902
v -51.5575280 87.5180743 141.3783327
v -51.8458482 87.4564686 141.3849460
f 1 2 3
f 4 5 1
f 4 1 3
f 6 4 3
f 7 8 9
f 7 9 5
f 7 5 4
f 10 3 2
f 11 12 13
f 14 6 3
f 15 14 3
f 16 12 11
f 18 19 17
f 20 15 3
f 21 22 23
f 21 24 22
f 25 20 3
f 26 27 16
f 28 3 29
f 28 25 3
f 30 28 29
f 31 30 29
f 32 33 34
f 35 31 29
f 36 32 34
f 38 39 37
f 40 35 29
f 42 43 41
f 44 40 29
f 45 10 27
f 45 27 26
f 45 26 46
f 45 47 48
f 45 46 47
f 45 3 10
f 45 48 49
f 50 44 51
f 52 51 44
f 54 52 44
f 53 44 50
f 55 44 53
f 56 54 44
f 57 44 55
f 58 56 44
f 59 58 44
f 59 44 29
f 60 44 57
f 61 65 62
f 63 59 29
f 64 65 61
f 68 63 29
f 66 67 65
f 66 65 64
f 69 70 67
f 69 67 66
f 73 68 29
f 74 71 72
f 75 73 29
f 76 75 29
f 77 78 79
f 80 76 29
f 81 78 77
f 81 82 78
f 83 80 29
f 84 82 81
f 85 83 29
f 86 87 141
f 88 82 84
f 88 69 82
f 96 85 29
f 89 87 86
f 90 69 88
f 90 70 69
f 90 91 70
f 90 92 91
f 90 93 92
f 90 94 93
f 90 95 94
f 97 87 89
f 98 96 29
f 99 87 97
f 100 87 99
f 101 87 100
f 105 102 103
f 105 104 102
f 105 103 106
f 107 87 101
f 108 105 106
f 108 106 109
f 110 87 107
f 111 87 110
f 112 113 114
f 112 114 108
f 112 115 95
f 112 116 115
f 112 117 116
f 112 118 117
f 112 109 118
f 112 108 109
f 112 95 90
f 119 120 113
f 119 121 120
f 119 113 112
f 122 121 119
f 122 123 121
f 124 123 122
f 125 90 98
f 125 112 90
f 126 128 127
f 126 129 128
f 126 130 129
f 126 131 125
f 126 132 131
f 126 133 132
f 126 134 133
f 126 125 98
f 126 49 135
f 126 98 29
f 126 136 87
f 126 87 111
f 126 111 130
f 126 135 136
f 126 45 49
f 126 127 134
f 20 34 33
f 33 15 20
f 14 23 22
f 14 22 6
f 4 26 16
f 4 16 11
f 4 11 7
f 18 47 19
f 19 47 46
f 40 72 71
f 40 71 35
f 31 42 41
f 31 41 30
f 28 49 48
f 28 48 25
f 38 136 39
f 39 136 135
f 87 44 137
f 137 44 138
f 138 44 60
f 87 137 139
f 87 139 140
f 87 140 141
f 142 143 3
f 142 3 45
f 144 3 143
f 29 3 144
f 126 29 144
f 126 144 145
f 126 142 45
f 145 142 126
f 144 142 145
f 144 143 142
f 2 1 146
f 146 1 147
f 10 2 148
f 148 2 146
f 27 10 149
f 149 10 148
f 16 27 150
f 150 27 149
f 12 16 151
f 151 16 150
f 13 12 152
f 152 12 151
f 11 13 153
f 153 13 152
f 7 11 154
f 154 11 153
f 8 7 155
f 155 7 154
f 9 8 156
f 156 8 155
f 5 9 157
f 157 9 156
f 1 5 147
f 147 5 157
f 147 156 146
f 155 146 156
f 157 156 147
f 151 148 152
f 153 155 154
f 153 152 155
f 149 151 150
f 149 148 151
f 148 146 155
f 148 155 152
f 158 159 160
f 283 158 160
f 282 161 162
f 163 282 164
f 163 161 282
f 165 164 281
f 165 281 166
f 165 163 164
f 167 168 169
f 170 169 171
f 170 171 172
f 170 167 169
f 167 283 168
f 173 165 166
f 166 159 158
f 166 158 173
f 160 168 283
f 171 174 172
f 175 176 177
f 287 176 175
f 288 175 177
f 178 179 180
f 181 178 182
f 181 179 178
f 183 182 286
f 183 286 184
f 183 181 182
f 185 186 285
f 187 285 188
f 187 188 189
f 187 185 285
f 185 190 186
f 191 183 184
f 184 176 287
f 184 287 191
f 177 186 288
f 288 186 190
f 188 192 189
f 193 194 195
f 193 196 194
f 197 196 193
f 197 198 196
f 199 193 195
f 199 195 200
f 199 200 201
f 202 198 197
f 202 203 198
f 204 199 201
f 204 201 290
f 205 203 202
f 205 209 203
f 206 204 290
f 206 290 207
f 208 209 205
f 210 206 207
f 210 207 211
f 208 212 209
f 213 210 211
f 213 211 214
f 297 212 208
f 297 217 212
f 299 213 214
f 299 214 215
f 216 217 297
f 220 221 217
f 220 217 216
f 218 299 215
f 218 215 219
f 222 218 219
f 222 219 223
f 224 225 221
f 224 221 220
f 226 222 223
f 224 227 225
f 228 222 226
f 229 228 226
f 230 227 224
f 230 231 227
f 232 228 229
f 233 232 229
f 234 231 230
f 234 235 231
f 236 235 234
f 236 237 235
f 238 232 233
f 239 238 233
f 296 237 236
f 296 240 237
f 241 242 238
f 241 238 239
f 243 240 296
f 243 244 240
f 241 245 242
f 246 245 241
f 247 244 243
f 247 248 244
f 249 248 247
f 250 248 249
f 251 250 249
f 291 250 251
f 294 291 251
f 252 291 294
f 253 294 254
f 253 252 294
f 255 254 256
f 255 253 254
f 257 256 258
f 257 255 256
f 259 258 260
f 259 257 258
f 261 260 262
f 261 259 260
f 263 262 264
f 263 261 262
f 265 264 266
f 265 263 264
f 267 266 268
f 267 265 266
f 269 267 268
f 269 268 270
f 271 293 272
f 271 272 273
f 274 269 270
f 274 270 275
f 276 293 271
f 276 277 293
f 278 274 275
f 279 277 276
f 279 275 277
f 279 278 275
f 20 25 174
f 174 25 172
f 34 20 171
f 171 20 174
f 36 280 169
f 34 280 36
f 169 280 171
f 171 280 34
f 36 169 32
f 33 32 168
f 168 32 169
f 15 33 160
f 160 33 168
f 14 15 159
f 159 15 160
f 23 159 166
f 23 14 159
f 21 281 24
f 24 281 164
f 23 281 21
f 166 281 23
f 164 282 24
f 24 282 22
f 6 22 162
f 162 22 282
f 4 6 161
f 161 6 162
f 26 4 163
f 163 4 161
f 46 26 165
f 165 26 163
f 19 46 173
f 173 46 165
f 17 19 158
f 158 19 173
f 158 283 17
f 17 283 18
f 47 18 167
f 167 18 283
f 48 47 170
f 170 47 167
f 25 48 172
f 172 48 170
f 40 44 192
f 192 44 189
f 72 40 188
f 188 40 192
f 74 284 285
f 72 284 74
f 285 284 188
f 188 284 72
f 71 74 186
f 186 74 285
f 35 71 177
f 177 71 186
f 31 35 176
f 176 35 177
f 42 31 184
f 184 31 176
f 42 286 43
f 43 286 182
f 286 42 184
f 182 178 43
f 41 43 178
f 30 41 180
f 180 41 178
f 28 30 179
f 179 30 180
f 49 28 181
f 181 28 179
f 135 49 183
f 183 49 181
f 39 135 191
f 191 135 183
f 39 287 37
f 37 287 175
f 191 287 39
f 175 288 37
f 38 288 190
f 37 288 38
f 136 190 185
f 136 38 190
f 87 136 187
f 187 136 185
f 44 87 189
f 189 87 187
f 63 68 211
f 211 68 214
f 214 73 215
f 68 73 214
f 215 73 219
f 223 76 226
f 75 76 223
f 226 80 229
f 76 80 226
f 229 83 233
f 80 83 229
f 239 96 241
f 85 96 239
f 241 98 246
f 96 98 241
f 75 289 73
f 219 289 223
f 73 289 219
f 223 289 75
f 85 233 83
f 233 233 239
f 83 233 233
f 239 233 85
f 50 51 196
f 196 51 194
f 194 52 195
f 51 52 194
f 200 56 201
f 54 56 200
f 290 59 207
f 58 59 290
f 207 63 211
f 59 63 207
f 54 195 52
f 200 195 54
f 58 290 56
f 56 290 201
f 137 138 221
f 221 138 217
f 138 60 217
f 212 57 209
f 60 57 212
f 209 55 203
f 57 55 209
f 203 53 198
f 55 53 203
f 198 50 196
f 53 50 198
f 60 212 217
f 97 89 248
f 248 89 244
f 244 86 240
f 89 86 244
f 237 141 235
f 141 140 235
f 235 140 231
f 227 137 225
f 139 137 227
f 225 137 221
f 141 240 86
f 237 240 141
f 139 231 140
f 227 231 139
f 130 111 261
f 261 111 259
f 259 110 257
f 111 110 259
f 255 101 253
f 107 101 255
f 253 101 252
f 291 99 250
f 100 99 291
f 250 97 248
f 99 97 250
f 107 257 110
f 255 257 107
f 100 291 101
f 101 291 252
f 134 127 274
f 274 127 269
f 269 127 267
f 267 128 265
f 127 128 267
f 263 130 261
f 129 130 263
f 129 265 128
f 263 265 129
f 125 131 273
f 273 131 271
f 271 131 276
f 276 132 279
f 131 132 276
f 278 134 274
f 133 134 278
f 133 279 132
f 278 279 133
f 112 125 272
f 272 125 273
f 123 124 270
f 270 124 275
f 293 112 272
f 119 112 293
f 122 292 124
f 275 292 277
f 124 292 275
f 277 292 122
f 119 293 122
f 122 293 277
f 114 264 262
f 114 113 264
f 121 270 268
f 121 123 270
f 120 264 113
f 266 264 120
f 266 121 268
f 120 121 266
f 106 249 247
f 106 103 249
f 103 251 249
f 103 102 251
f 254 105 256
f 256 108 258
f 105 108 256
f 258 108 260
f 260 114 262
f 108 114 260
f 104 294 102
f 102 294 251
f 105 295 104
f 294 295 254
f 104 295 294
f 254 295 105
f 95 224 220
f 95 115 224
f 115 230 224
f 116 236 234
f 116 117 236
f 118 243 296
f 118 109 243
f 109 247 243
f 109 106 247
f 116 230 115
f 234 230 116
f 118 296 117
f 117 296 236
f 67 70 197
f 197 91 202
f 70 91 197
f 205 93 208
f 92 93 205
f 297 95 216
f 94 95 297
f 216 95 220
f 92 205 91
f 202 205 205
f 91 205 202
f 205 205 92
f 94 297 93
f 93 297 208
f 69 210 213
f 69 66 210
f 66 206 210
f 66 64 206
f 204 62 199
f 61 62 204
f 193 67 197
f 65 67 193
f 206 61 204
f 64 61 206
f 65 298 62
f 199 298 193
f 62 298 199
f 193 298 65
f 77 79 228
f 228 79 222
f 299 69 213
f 82 69 299
f 78 222 79
f 218 222 78
f 82 299 78
f 78 299 218
f 90 242 245
f 90 88 242
f 81 228 232
f 81 77 228
f 84 242 88
f 238 242 84
f 81 232 84
f 238 232 232
f 84 232 238
f 232 232 81
f 98 90 246
f 246 90 245
