# Full FreeCAD instance transform baked; body-local coordinates in mm
v -35.385372099 88.548836936 141.187200000
v -34.745191481 88.548836936 141.187200000
v -32.090000000 81.655223800 141.187200000
v -35.593047032 88.548836936 141.187200000
v -35.385372099 88.628295175 141.187200000
v -35.683340487 88.548836936 141.187200000
v -35.913588747 89.069830158 141.187200000
v -35.683340487 89.069830158 141.187200000
v -35.962877041 89.071565289 141.187200000
v -36.009405838 89.076764679 141.187200000
v -36.584469160 88.548836936 141.187200000
v -36.051266586 89.084957766 141.187200000
v -36.115562606 89.105660997 141.187200000
v -36.172936967 89.135215236 141.187200000
v -36.223295289 89.173667680 141.187200000
v -36.268241360 89.223486369 141.187200000
v -36.942934164 88.548836936 141.187200000
v -42.090000000 81.655223800 141.187200000
v -36.989303622 88.550156167 141.187200000
v -36.291962902 89.260533877 141.187200000
v -37.830518898 88.548836936 141.187200000
v -37.324063639 88.665019863 141.187200000
v -37.264982075 88.627025099 141.187200000
v -37.359987656 88.694197868 141.187200000
v -37.406142210 88.740862468 141.187200000
v -37.446748444 88.793842956 141.187200000
v -37.481813395 88.853214710 141.187200000
v -37.034303641 88.554110662 141.187200000
v -37.075884036 88.560322474 141.187200000
v -37.142407300 88.575966258 141.187200000
v -37.205445213 88.598206863 141.187200000
v -37.500320470 88.892363668 141.187200000
v -36.584469160 89.821071699 141.187200000
v -36.168450373 89.762079962 141.187200000
v -36.223295292 89.723554749 141.187200000
v -36.127130904 89.782412714 141.187200000
v -36.062081642 89.803889928 141.187200000
v -36.026693381 89.811406953 141.187200000
v -35.989396030 89.816776256 141.187200000
v -35.950189588 89.819997839 141.187200000
v -36.335153291 89.495750647 141.187200000
v -36.337065062 89.451771501 141.187200000
v -36.329417981 89.537101534 141.187200000
v -36.320401016 89.574050621 141.187200000
v -36.297665938 89.630386329 141.187200000
v -36.265297362 89.680205307 141.187200000
v -37.516296293 88.933170160 141.187200000
v -37.529187005 88.973685853 141.187200000
v -37.538171248 89.008651258 141.187200000
v -37.549562880 89.069354212 141.187200000
v -38.188983902 88.548836936 141.187200000
v -38.235353395 88.550156167 141.187200000
v -38.280353417 88.554110661 141.187200000
v -39.076568493 88.548836936 141.187200000
v -38.570113400 88.665019835 141.187200000
v -38.511031704 88.627025039 141.187200000
v -38.606037468 88.694197856 141.187200000
v -38.652192050 88.740862475 141.187200000
v -38.692798266 88.793842985 141.187200000
v -38.727863162 88.853214768 141.187200000
v -38.321933791 88.560322471 141.187200000
v -38.388456997 88.575966246 141.187200000
v -38.451494856 88.598206832 141.187200000
v -38.746370179 88.892363706 141.187200000
v -37.830518898 89.821071699 141.187200000
v -37.345006303 89.693288521 141.187200000
v -37.385372051 89.659446433 141.187200000
v -37.316048457 89.713653932 141.187200000
v -37.258696878 89.746419497 141.187200000
v -37.206682230 89.769197177 141.187200000
v -37.160398914 89.785028793 141.187200000
v -37.119785850 89.796030948 141.187200000
v -37.084520408 89.803675948 141.187200000
v -37.022869160 89.813335558 141.187200000
v -36.957617412 89.819136490 141.187200000
v -37.534020656 89.405504754 141.187200000
v -37.547631051 89.341986294 141.187200000
v -37.518574202 89.455206425 141.187200000
v -37.502851839 89.494376496 141.187200000
v -37.470889683 89.555108527 141.187200000
v -37.431729753 89.610137241 141.187200000
v -38.762345958 88.933170183 141.187200000
v -39.166861805 88.548836936 141.187200000
v -39.765507683 88.548836936 141.187200000
v -39.875665650 88.548836936 141.187200000
v -39.404333862 89.106850472 141.187200000
v -39.166861805 89.106850472 141.187200000
v -32.090000000 96.660212600 141.187200000
v -34.745191481 89.821071699 141.187200000
v -34.835484937 89.821071699 141.187200000
v -35.593047032 89.821071699 141.187200000
v -35.909074053 89.821071699 141.187200000
v -36.888758120 89.821071699 141.187200000
v -39.704247887 89.193211222 141.187200000
v -39.657414426 89.163554740 141.187200000
v -39.076568493 89.821071699 141.187200000
v -38.591055898 89.693288521 141.187200000
v -38.631421646 89.659446433 141.187200000
v -38.562098053 89.713653932 141.187200000
v -38.504746477 89.746419497 141.187200000
v -38.452731837 89.769197177 141.187200000
v -38.406448530 89.785028793 141.187200000
v -38.365835476 89.796030948 141.187200000
v -38.330570047 89.803675948 141.187200000
v -38.268918823 89.813335558 141.187200000
v -38.764623797 89.455206425 141.187200000
v -38.780070251 89.405504754 141.187200000
v -38.748901434 89.494376496 141.187200000
v -38.716939278 89.555108527 141.187200000
v -38.677779348 89.610137241 141.187200000
v -39.745642872 89.229649699 141.187200000
v -39.782141694 89.274214217 141.187200000
v -39.801510725 89.306657994 141.187200000
v -39.822074171 89.356442937 141.187200000
v -39.834485712 89.410800265 141.187200000
v -39.838645157 89.469830135 141.187200000
v -42.090000000 96.660212600 141.187200000
v -38.203667108 89.819136490 141.187200000
v -38.134807858 89.821071699 141.187200000
v -39.410654434 89.821071699 141.187200000
v -39.669926534 89.764017178 141.187200000
v -39.724654168 89.726898092 141.187200000
v -39.628655996 89.783644961 141.187200000
v -39.563645642 89.804414129 141.187200000
v -39.528266851 89.811695217 141.187200000
v -39.490974363 89.816901441 141.187200000
v -39.451769713 89.820028401 141.187200000
v -39.833024449 89.538717756 141.187200000
v -39.823027594 89.580918327 141.187200000
v -39.800297122 89.635590259 141.187200000
v -39.767510060 89.684255142 141.187200000
v -34.835484937 88.628295175 141.187200000
v -36.332053709 89.381992940 141.187200000
v -36.317019654 89.318230373 141.187200000
v -37.558735451 89.199852744 141.187200000
v -37.556595162 89.264394599 141.187200000
v -37.552790204 89.305560943 141.187200000
v -37.556434077 89.133088937 141.187200000
v -39.500044808 89.117685703 141.187200000
v -39.565113003 89.128902395 141.187200000
v -39.605192552 89.140780414 141.187200000
v -38.804785046 89.199852744 141.187200000
v -38.802644757 89.264394599 141.187200000
v -38.798839799 89.305560943 141.187200000
v -38.793680646 89.341986294 141.187200000
v -38.802483672 89.133088937 141.187200000
v -38.795612481 89.069354215 141.187200000
v -38.784220866 89.008651266 141.187200000
v -38.775236640 88.973685867 141.187200000
v -36.202998788 89.281095148 141.187200000
v -36.155575230 89.225134904 141.187200000
v -36.181501845 89.251483105 141.187200000
v -36.220066058 89.314013291 141.187200000
v -36.232703656 89.350279795 141.187200000
v -36.112348318 89.194100704 141.187200000
v -36.079607249 89.177721546 141.187200000
v -36.240551383 89.387509532 141.187200000
v -36.027772820 89.160420464 141.187200000
v -35.896433052 89.743419317 141.187200000
v -35.683340487 89.743419317 141.187200000
v -35.683340487 89.146579602 141.187200000
v -35.904559359 89.146579602 141.187200000
v -35.939923572 89.742100221 141.187200000
v -35.969456916 89.150039817 141.187200000
v -36.244965729 89.449062684 141.187200000
v -35.980507153 89.738146669 141.187200000
v -36.049789781 89.723348213 141.187200000
v -36.239804254 89.512118433 141.187200000
v -36.108591372 89.699050707 141.187200000
v -36.224396835 89.568226854 141.187200000
v -36.156954995 89.665292880 141.187200000
v -36.196511975 89.620787745 141.187200000
v -37.344482585 88.806271031 141.187200000
v -37.261674884 88.727985602 141.187200000
v -37.305565270 88.764403156 141.187200000
v -37.368905065 88.839160730 141.187200000
v -37.212911593 88.696918200 141.187200000
v -37.400722012 88.893757925 141.187200000
v -37.156605099 88.670164585 141.187200000
v -37.116718719 88.656044621 141.187200000
v -37.424822123 88.949214794 141.187200000
v -37.057035924 88.641129893 141.187200000
v -37.443552386 89.008570937 141.187200000
v -36.993673420 88.632181056 141.187200000
v -37.456818394 89.071826357 141.187200000
v -36.926681265 88.629198110 141.187200000
v -37.462115883 89.111651263 141.187200000
v -37.465505237 89.155036748 141.187200000
v -36.883340487 89.740710500 141.187200000
v -36.674762615 89.740710500 141.187200000
v -36.674762615 88.629198110 141.187200000
v -36.945709542 89.739004648 141.187200000
v -37.466636261 89.199852744 141.187200000
v -36.985355851 89.735971452 141.187200000
v -37.465876372 89.237121561 141.187200000
v -37.054022338 89.726469145 141.187200000
v -37.463599029 89.273066470 141.187200000
v -37.454505930 89.340998394 141.187200000
v -37.107270025 89.714652144 141.187200000
v -37.148881680 89.702095903 141.187200000
v -37.439384858 89.403676192 141.187200000
v -37.212652758 89.675693387 141.187200000
v -37.427430392 89.438772401 141.187200000
v -37.410242280 89.478412657 141.187200000
v -37.269442442 89.642442021 141.187200000
v -37.385536878 89.522430470 141.187200000
v -37.319245785 89.602336564 141.187200000
v -37.354858062 89.564459080 141.187200000
v -38.590532181 88.806271028 141.187200000
v -38.507724495 88.727985572 141.187200000
v -38.551614872 88.764403144 141.187200000
v -38.614954661 88.839160729 141.187200000
v -38.458961222 88.696918140 141.187200000
v -38.646771607 88.893757925 141.187200000
v -38.402654827 88.670164556 141.187200000
v -38.362768455 88.656044606 141.187200000
v -38.670871718 88.949214794 141.187200000
v -38.303085637 88.641129889 141.187200000
v -38.689601980 89.008570937 141.187200000
v -38.239723115 88.632181056 141.187200000
v -38.702867989 89.071826357 141.187200000
v -38.172731003 88.629198110 141.187200000
v -38.708165478 89.111651263 141.187200000
v -38.711554832 89.155036748 141.187200000
v -38.129390225 89.740710500 141.187200000
v -37.920812210 89.740710500 141.187200000
v -37.920812210 88.629198110 141.187200000
v -38.191759237 89.739004648 141.187200000
v -38.712685856 89.199852744 141.187200000
v -38.231405524 89.735971452 141.187200000
v -38.711925967 89.237121561 141.187200000
v -38.300071978 89.726469145 141.187200000
v -38.709648624 89.273066470 141.187200000
v -38.700555524 89.340998394 141.187200000
v -38.353319646 89.714652144 141.187200000
v -38.394931290 89.702095903 141.187200000
v -38.685434453 89.403676192 141.187200000
v -38.458702357 89.675693387 141.187200000
v -38.673479987 89.438772401 141.187200000
v -38.656291875 89.478412657 141.187200000
v -38.515492038 89.642442021 141.187200000
v -38.631586473 89.522430470 141.187200000
v -38.565295380 89.602336564 141.187200000
v -38.600907657 89.564459080 141.187200000
v -39.722638126 89.345671101 141.187200000
v -39.658058393 89.259446548 141.187200000
v -39.695409756 89.299261980 141.187200000
v -39.740565228 89.403085338 141.187200000
v -39.615329349 89.229482434 141.187200000
v -39.582859675 89.213668046 141.187200000
v -39.402527985 89.743419317 141.187200000
v -39.166861805 89.743419317 141.187200000
v -39.166861805 89.183599916 141.187200000
v -39.409751495 89.183599916 141.187200000
v -39.472218680 89.739814505 141.187200000
v -39.473725525 89.186940818 141.187200000
v -39.746545967 89.468024328 141.187200000
v -39.514510263 89.733418769 141.187200000
v -39.531444939 89.196963526 141.187200000
v -39.555785177 89.723139611 141.187200000
v -39.593284221 89.709285670 141.187200000
v -39.741362133 89.527327154 141.187200000
v -39.627002223 89.691871707 141.187200000
v -39.656934011 89.670912482 141.187200000
v -39.725798294 89.580013550 141.187200000
v -39.697407609 89.629327187 141.187200000
v -32.090000000 96.660212600 142.000000000
v -42.090000000 96.660212600 142.000000000
v -32.090000000 81.655223800 142.000000000
v -42.090000000 81.655223800 142.000000000
v -34.745191481 88.548836936 141.207200000
v -35.385372099 88.548836936 141.207200000
v -34.745191481 89.821071699 141.207200000
v -34.835484937 89.821071699 141.207200000
v -34.835484937 88.628295175 141.207200000
v -35.385372099 88.628295175 141.207200000
v -35.683340487 89.069830158 141.207200000
v -35.593047032 88.548836936 141.207200000
v -35.683340487 88.548836936 141.207200000
v -35.904559359 89.146579602 141.207200000
v -35.913588747 89.069830158 141.207200000
v -35.962877041 89.071565289 141.207200000
v -35.683340487 89.146579602 141.207200000
v -35.973137273 89.150485065 141.207200000
v -36.009405838 89.076764679 141.207200000
v -36.032761973 89.161694196 141.207200000
v -36.051266586 89.084957766 141.207200000
v -36.115562606 89.105660997 141.207200000
v -36.083730819 89.179510674 141.207200000
v -36.115097883 89.195729287 141.207200000
v -36.172936967 89.135215236 141.207200000
v -36.155575230 89.225134904 141.207200000
v -36.223295289 89.173667680 141.207200000
v -35.683340487 89.743419317 141.207200000
v -35.593047032 89.821071699 141.207200000
v -36.180768436 89.250667373 141.207200000
v -36.268241360 89.223486369 141.207200000
v -36.201912777 89.279368793 141.207200000
v -36.291962902 89.260533877 141.207200000
v -36.219082099 89.311577859 141.207200000
v -36.317019654 89.318230373 141.207200000
v -36.240047486 89.384560983 141.207200000
v -36.231745290 89.346783794 141.207200000
v -36.332053709 89.381992940 141.207200000
v -36.244965729 89.449062684 141.207200000
v -35.909074053 89.821071699 141.207200000
v -35.896433052 89.743419317 141.207200000
v -35.942305302 89.741933451 141.207200000
v -35.950189588 89.819997839 141.207200000
v -36.337065062 89.451771501 141.207200000
v -35.989396030 89.816776256 141.207200000
v -35.985187154 89.737482308 141.207200000
v -36.335153291 89.495750647 141.207200000
v -36.239253531 89.515024014 141.207200000
v -36.026693381 89.811406953 141.207200000
v -36.055149390 89.721684189 141.207200000
v -36.062081642 89.803889928 141.207200000
v -36.329417981 89.537101534 141.207200000
v -36.320401016 89.574050621 141.207200000
v -36.223317643 89.571123804 141.207200000
v -36.127130904 89.782412714 141.207200000
v -36.111904374 89.697217654 141.207200000
v -36.297665938 89.630386329 141.207200000
v -36.195668566 89.621952892 141.207200000
v -36.168450373 89.762079962 141.207200000
v -36.156954995 89.665292880 141.207200000
v -36.265297362 89.680205307 141.207200000
v -36.223295292 89.723554749 141.207200000
v -36.942934164 88.548836936 141.207200000
v -36.674762615 88.629198110 141.207200000
v -36.584469160 88.548836936 141.207200000
v -36.926681265 88.629198110 141.207200000
v -36.996842706 88.632483735 141.207200000
v -36.989303622 88.550156167 141.207200000
v -37.034303641 88.554110662 141.207200000
v -37.061441039 88.641996341 141.207200000
v -37.075884036 88.560322474 141.207200000
v -37.142407300 88.575966258 141.207200000
v -37.120595831 88.657258794 141.207200000
v -37.159315664 88.671262231 141.207200000
v -37.205445213 88.598206863 141.207200000
v -37.212911593 88.696918200 141.207200000
v -37.264982075 88.627025099 141.207200000
v -37.262398973 88.728541432 141.207200000
v -37.324063639 88.665019863 141.207200000
v -37.306067679 88.764833785 141.207200000
v -37.359987656 88.694197868 141.207200000
v -37.406142210 88.740862468 141.207200000
v -37.344294939 88.806018318 141.207200000
v -37.446748444 88.793842956 141.207200000
v -37.368590390 88.838736254 141.207200000
v -37.400722012 88.893757925 141.207200000
v -37.481813395 88.853214710 141.207200000
v -37.500320470 88.892363668 141.207200000
v -37.423835609 88.946599783 141.207200000
v -36.674762615 89.740710500 141.207200000
v -36.584469160 89.821071699 141.207200000
v -37.516296293 88.933170160 141.207200000
v -37.442447395 89.004381163 141.207200000
v -37.529187005 88.973685853 141.207200000
v -37.538171248 89.008651258 141.207200000
v -37.456094894 89.067401910 141.207200000
v -37.549562880 89.069354212 141.207200000
v -37.461709587 89.107940580 141.207200000
v -37.556434077 89.133088937 141.207200000
v -37.465404517 89.153196530 141.207200000
v -36.888758120 89.821071699 141.207200000
v -36.883340487 89.740710500 141.207200000
v -36.950492960 89.738703142 141.207200000
v -37.558735451 89.199852744 141.207200000
v -37.465764000 89.239301547 141.207200000
v -37.466636261 89.199852744 141.207200000
v -36.957617412 89.819136490 141.207200000
v -36.992579026 89.735205872 141.207200000
v -37.556595162 89.264394599 141.207200000
v -37.463111057 89.277977637 141.207200000
v -37.022869160 89.813335558 141.207200000
v -37.029241691 89.730551266 141.207200000
v -37.552790204 89.305560943 141.207200000
v -37.458885430 89.313923327 141.207200000
v -37.084520408 89.803675948 141.207200000
v -37.091618957 89.718597695 141.207200000
v -37.547631051 89.341986294 141.207200000
v -37.452980308 89.348770441 141.207200000
v -37.119785850 89.796030948 141.207200000
v -37.138882925 89.705444775 141.207200000
v -37.534020656 89.405504754 141.207200000
v -37.436889286 89.411946709 141.207200000
v -37.160398914 89.785028793 141.207200000
v -37.518574202 89.455206425 141.207200000
v -37.424546242 89.446387750 141.207200000
v -37.206682230 89.769197177 141.207200000
v -37.175179612 89.692400648 141.207200000
v -37.502851839 89.494376496 141.207200000
v -37.407156366 89.484678684 141.207200000
v -37.258696878 89.746419497 141.207200000
v -37.229861897 89.666735494 141.207200000
v -37.470889683 89.555108527 141.207200000
v -37.382687983 89.526766231 141.207200000
v -37.316048457 89.713653932 141.207200000
v -37.277759758 89.636561486 141.207200000
v -37.345006303 89.693288521 141.207200000
v -37.319245785 89.602336564 141.207200000
v -37.431729753 89.610137241 141.207200000
v -37.353103923 89.566519434 141.207200000
v -37.385372051 89.659446433 141.207200000
v -38.188983902 88.548836936 141.207200000
v -37.920812210 88.629198110 141.207200000
v -37.830518898 88.548836936 141.207200000
v -38.172731003 88.629198110 141.207200000
v -38.242892486 88.632483740 141.207200000
v -38.235353395 88.550156167 141.207200000
v -38.280353417 88.554110661 141.207200000
v -38.307490902 88.641996369 141.207200000
v -38.321933791 88.560322471 141.207200000
v -38.388456997 88.575966246 141.207200000
v -38.366645766 88.657258842 141.207200000
v -38.405365546 88.671262262 141.207200000
v -38.451494856 88.598206832 141.207200000
v -38.458961222 88.696918140 141.207200000
v -38.511031704 88.627025039 141.207200000
v -38.508448605 88.728541418 141.207200000
v -38.570113400 88.665019835 141.207200000
v -38.552117310 88.764833803 141.207200000
v -38.606037468 88.694197856 141.207200000
v -38.652192050 88.740862475 141.207200000
v -38.590344566 88.806018352 141.207200000
v -38.692798266 88.793842985 141.207200000
v -38.614640006 88.838736284 141.207200000
v -38.646771607 88.893757925 141.207200000
v -38.727863162 88.853214768 141.207200000
v -38.746370179 88.892363706 141.207200000
v -38.669885204 88.946599783 141.207200000
v -37.920812210 89.740710500 141.207200000
v -37.830518898 89.821071699 141.207200000
v -38.762345958 88.933170183 141.207200000
v -38.688496990 89.004381163 141.207200000
v -38.775236640 88.973685867 141.207200000
v -38.784220866 89.008651266 141.207200000
v -38.702144489 89.067401910 141.207200000
v -38.795612481 89.069354215 141.207200000
v -38.707759182 89.107940580 141.207200000
v -38.802483672 89.133088937 141.207200000
v -38.711454112 89.153196530 141.207200000
v -38.134807858 89.821071699 141.207200000
v -38.129390225 89.740710500 141.207200000
v -38.196542656 89.738703142 141.207200000
v -38.804785046 89.199852744 141.207200000
v -38.711813595 89.239301547 141.207200000
v -38.712685856 89.199852744 141.207200000
v -38.203667108 89.819136490 141.207200000
v -38.238628696 89.735205872 141.207200000
v -38.802644757 89.264394599 141.207200000
v -38.709160652 89.277977637 141.207200000
v -38.268918823 89.813335558 141.207200000
v -38.275291343 89.730551266 141.207200000
v -38.798839799 89.305560943 141.207200000
v -38.704935025 89.313923327 141.207200000
v -38.330570047 89.803675948 141.207200000
v -38.337668582 89.718597695 141.207200000
v -38.793680646 89.341986294 141.207200000
v -38.699029903 89.348770441 141.207200000
v -38.365835476 89.796030948 141.207200000
v -38.384932537 89.705444775 141.207200000
v -38.780070251 89.405504754 141.207200000
v -38.682938881 89.411946709 141.207200000
v -38.406448530 89.785028793 141.207200000
v -38.764623797 89.455206425 141.207200000
v -38.670595837 89.446387750 141.207200000
v -38.452731837 89.769197177 141.207200000
v -38.421229217 89.692400648 141.207200000
v -38.748901434 89.494376496 141.207200000
v -38.653205961 89.484678684 141.207200000
v -38.504746477 89.746419497 141.207200000
v -38.475911495 89.666735495 141.207200000
v -38.716939278 89.555108527 141.207200000
v -38.628737578 89.526766231 141.207200000
v -38.562098053 89.713653932 141.207200000
v -38.523809353 89.636561487 141.207200000
v -38.591055898 89.693288521 141.207200000
v -38.565295380 89.602336564 141.207200000
v -38.677779348 89.610137241 141.207200000
v -38.599153518 89.566519434 141.207200000
v -38.631421646 89.659446433 141.207200000
v -39.166861805 89.106850472 141.207200000
v -39.076568493 88.548836936 141.207200000
v -39.166861805 88.548836936 141.207200000
v -39.404333862 89.106850472 141.207200000
v -39.166861805 89.183599916 141.207200000
v -39.409751495 89.183599916 141.207200000
v -39.500044808 89.117685703 141.207200000
v -39.765507683 88.548836936 141.207200000
v -39.449338793 89.184840047 141.207200000
v -39.486678961 89.188543912 141.207200000
v -39.565113003 89.128902395 141.207200000
v -39.552226438 89.202664988 141.207200000
v -39.605192552 89.140780414 141.207200000
v -39.609683741 89.226374790 141.207200000
v -39.657414426 89.163554740 141.207200000
v -39.166861805 89.743419317 141.207200000
v -39.076568493 89.821071699 141.207200000
v -39.658058393 89.259446548 141.207200000
v -39.704247887 89.193211222 141.207200000
v -39.745642872 89.229649699 141.207200000
v -39.695919063 89.299997091 141.207200000
v -39.782141694 89.274214217 141.207200000
v -39.723406098 89.347220888 141.207200000
v -39.801510725 89.306657994 141.207200000
v -39.822074171 89.356442937 141.207200000
v -39.740685126 89.403907808 141.207200000
v -39.410654434 89.821071699 141.207200000
v -39.402527985 89.743419317 141.207200000
v -39.446264985 89.742045830 141.207200000
v -39.834485712 89.410800265 141.207200000
v -39.746545967 89.468024328 141.207200000
v -39.451769713 89.820028401 141.207200000
v -39.490974363 89.816901441 141.207200000
v -39.487392564 89.737930109 141.207200000
v -39.838645157 89.469830135 141.207200000
v -39.528266851 89.811695217 141.207200000
v -39.555302124 89.723300713 141.207200000
v -39.563645642 89.804414129 141.207200000
v -39.833024449 89.538717756 141.207200000
v -39.740828502 89.529905697 141.207200000
v -39.823027594 89.580918327 141.207200000
v -39.724886455 89.582360330 141.207200000
v -39.628655996 89.783644961 141.207200000
v -39.611415044 89.700602405 141.207200000
v -39.669926534 89.764017178 141.207200000
v -39.656934011 89.670912482 141.207200000
v -39.800297122 89.635590259 141.207200000
v -39.696665290 89.630247511 141.207200000
v -39.724654168 89.726898092 141.207200000
v -39.767510060 89.684255142 141.207200000
v -39.875665650 88.548836936 141.207200000
v -36.205236616 89.284795456 141.200533333
v -36.205645435 89.606634779 141.200533333
v -36.235084552 89.534522932 141.200533333
v -36.002395013 89.734706837 141.200533333
v -36.089200339 89.708632928 141.200533333
v -36.004551052 89.155307966 141.200533333
v -36.324423969 89.559555118 141.200533333
v -36.286500705 89.650082654 141.200533333
v -36.324423969 89.343753756 141.200533333
v -36.034816084 89.081300778 141.200533333
v -36.138185349 89.115846402 141.200533333
v -36.033077091 89.810236482 141.200533333
v -37.459178666 89.087587870 141.200533333
v -37.437073459 88.985556268 141.200533333
v -37.400893298 89.496483694 141.200533333
v -37.450141499 89.362439525 141.200533333
v -37.031388268 88.636722565 141.200533333
v -37.288089325 88.748753328 141.200533333
v -37.539472851 89.383415983 141.200533333
v -37.524305979 88.957290652 141.200533333
v -37.550067610 89.072843246 141.200533333
v -37.423533964 88.761908767 141.200533333
v -37.059401577 88.557551705 141.200533333
v -37.166773132 88.583641622 141.200533333
v -37.253209221 89.749104490 141.200533333
v -37.087738139 89.803046457 141.200533333
v -38.705228261 89.087587870 141.200533333
v -38.683123054 88.985556268 141.200533333
v -38.646942892 89.496483694 141.200533333
v -38.696191094 89.362439525 141.200533333
v -38.277437970 88.636722563 141.200533333
v -38.534138929 88.748753310 141.200533333
v -38.785522446 89.383415983 141.200533333
v -38.770355625 88.957290669 141.200533333
v -38.796117211 89.072843248 141.200533333
v -38.669583802 88.761908782 141.200533333
v -38.305451343 88.557551703 141.200533333
v -38.412822806 88.583641604 141.200533333
v -38.499258821 89.749104490 141.200533333
v -38.333787776 89.803046457 141.200533333
v -39.707084324 89.316331324 141.200533333
v -39.736605454 89.548375406 141.200533333
v -39.504250337 89.735316277 141.200533333
v -39.591274629 89.217309517 141.200533333
v -39.508438811 89.192027313 141.200533333
v -39.788015191 89.656357086 141.200533333
v -39.828177770 89.378265909 141.200533333
v -39.677354221 89.174938462 141.200533333
v -39.534649268 89.810560962 141.200533333
f 1 2 3
f 4 5 1
f 4 1 3
f 6 4 3
f 7 8 6
f 9 7 6
f 10 9 6
f 11 6 3
f 12 10 6
f 12 6 11
f 13 12 11
f 14 13 11
f 15 14 11
f 16 15 11
f 17 3 18
f 17 11 3
f 19 17 18
f 20 16 11
f 21 22 23
f 21 24 22
f 21 25 24
f 21 26 25
f 21 27 26
f 21 28 19
f 21 29 28
f 21 30 29
f 21 31 30
f 21 23 31
f 21 19 18
f 32 27 21
f 33 34 35
f 33 36 34
f 33 37 36
f 33 38 37
f 33 39 38
f 33 40 39
f 33 41 42
f 33 43 41
f 33 44 43
f 33 45 44
f 33 46 45
f 33 35 46
f 47 32 21
f 48 47 21
f 49 48 21
f 50 49 21
f 51 21 18
f 52 51 18
f 53 52 18
f 54 53 18
f 54 55 56
f 54 57 55
f 54 58 57
f 54 59 58
f 54 60 59
f 54 61 53
f 54 62 61
f 54 63 62
f 54 56 63
f 64 60 54
f 65 66 67
f 65 68 66
f 65 69 68
f 65 70 69
f 65 71 70
f 65 72 71
f 65 73 72
f 65 74 73
f 65 75 74
f 65 76 77
f 65 78 76
f 65 79 78
f 65 80 79
f 65 81 80
f 65 67 81
f 82 64 54
f 83 54 18
f 84 83 18
f 85 84 18
f 86 83 84
f 86 87 83
f 88 2 89
f 88 89 90
f 88 40 33
f 88 91 92
f 88 92 40
f 88 3 2
f 88 33 93
f 88 93 75
f 88 90 91
f 94 95 85
f 96 97 98
f 96 99 97
f 96 100 99
f 96 101 100
f 96 102 101
f 96 103 102
f 96 104 103
f 96 105 104
f 96 106 107
f 96 108 106
f 96 109 108
f 96 110 109
f 96 98 110
f 111 94 85
f 112 111 85
f 113 112 85
f 114 113 85
f 115 114 85
f 116 115 85
f 117 75 65
f 117 118 105
f 117 119 118
f 117 116 85
f 117 96 120
f 117 121 122
f 117 123 121
f 117 124 123
f 117 125 124
f 117 126 125
f 117 127 126
f 117 120 127
f 117 128 116
f 117 129 128
f 117 130 129
f 117 131 130
f 117 122 131
f 117 88 75
f 117 105 96
f 117 85 18
f 117 65 119
f 4 91 5
f 5 91 132
f 132 91 90
f 11 33 42
f 11 42 133
f 11 133 134
f 11 134 20
f 21 65 135
f 135 65 136
f 136 65 137
f 137 65 77
f 21 135 138
f 21 138 50
f 139 85 140
f 140 85 141
f 141 85 95
f 54 96 142
f 142 96 143
f 143 96 144
f 144 96 145
f 145 96 107
f 54 142 146
f 54 146 147
f 54 147 148
f 54 148 149
f 54 149 82
f 150 151 152
f 153 151 150
f 154 155 151
f 154 156 155
f 154 151 153
f 157 158 156
f 157 156 154
f 159 160 161
f 159 161 162
f 163 162 164
f 163 159 162
f 165 158 157
f 166 164 158
f 166 163 164
f 166 158 165
f 167 165 168
f 167 166 165
f 169 168 170
f 169 167 168
f 171 170 172
f 171 169 170
f 173 174 175
f 176 177 174
f 176 174 173
f 178 179 177
f 178 180 179
f 178 177 176
f 181 182 180
f 181 180 178
f 183 184 182
f 183 182 181
f 185 186 184
f 185 184 183
f 187 186 185
f 188 186 187
f 189 190 191
f 189 191 186
f 192 188 193
f 192 189 186
f 192 186 188
f 194 193 195
f 194 192 193
f 196 195 197
f 196 194 195
f 198 196 197
f 199 196 198
f 200 198 201
f 200 199 198
f 202 201 203
f 202 200 201
f 204 202 203
f 205 204 206
f 205 202 204
f 207 206 208
f 207 205 206
f 209 210 211
f 212 213 210
f 212 210 209
f 214 215 213
f 214 216 215
f 214 213 212
f 217 218 216
f 217 216 214
f 219 220 218
f 219 218 217
f 221 222 220
f 221 220 219
f 223 222 221
f 224 222 223
f 225 226 227
f 225 227 222
f 228 224 229
f 228 225 222
f 228 222 224
f 230 229 231
f 230 228 229
f 232 231 233
f 232 230 231
f 234 232 233
f 235 232 234
f 236 234 237
f 236 235 234
f 238 237 239
f 238 236 237
f 240 238 239
f 241 240 242
f 241 238 240
f 243 242 244
f 243 241 242
f 245 246 247
f 248 249 246
f 248 250 249
f 248 246 245
f 251 252 253
f 251 253 254
f 255 254 256
f 255 251 254
f 257 250 248
f 258 256 259
f 258 255 256
f 260 259 250
f 260 250 257
f 260 258 259
f 261 257 262
f 261 260 257
f 263 261 262
f 264 265 266
f 264 262 265
f 264 263 262
f 117 267 88
f 268 267 117
f 267 269 3
f 267 3 88
f 270 3 269
f 18 3 270
f 268 18 270
f 117 18 268
f 270 269 267
f 270 267 268
f 2 1 271
f 271 1 272
f 89 2 273
f 273 2 271
f 90 89 274
f 274 89 273
f 132 90 275
f 275 90 274
f 5 132 276
f 276 132 275
f 1 5 272
f 272 5 276
f 272 275 271
f 276 275 272
f 273 271 275
f 274 273 275
f 277 278 279
f 280 277 281
f 280 281 282
f 280 283 277
f 284 282 285
f 284 280 282
f 286 285 287
f 286 284 285
f 288 286 287
f 289 286 288
f 290 288 291
f 290 289 288
f 292 290 291
f 293 292 291
f 294 295 283
f 296 292 293
f 297 298 296
f 297 296 293
f 299 300 298
f 299 298 297
f 301 302 303
f 301 303 300
f 301 300 299
f 304 305 302
f 304 302 301
f 306 294 307
f 306 307 308
f 306 295 294
f 309 306 308
f 310 305 304
f 311 309 308
f 311 308 312
f 313 305 310
f 313 314 305
f 315 311 312
f 315 312 316
f 317 315 316
f 318 314 313
f 319 314 318
f 319 320 314
f 321 317 316
f 321 316 322
f 323 324 320
f 323 320 319
f 325 322 326
f 325 321 322
f 327 324 323
f 328 326 324
f 328 325 326
f 328 324 327
f 295 278 277
f 295 277 283
f 329 330 331
f 332 330 329
f 333 329 334
f 333 334 335
f 333 332 329
f 336 335 337
f 336 333 335
f 338 336 337
f 339 336 338
f 340 338 341
f 340 339 338
f 342 340 341
f 342 341 343
f 344 342 343
f 344 343 345
f 346 344 345
f 346 345 347
f 348 346 347
f 349 346 348
f 350 349 348
f 350 351 349
f 352 351 350
f 353 352 350
f 354 352 353
f 354 355 352
f 356 357 331
f 356 331 330
f 358 355 354
f 358 359 355
f 360 359 358
f 361 359 360
f 361 362 359
f 363 362 361
f 363 364 362
f 365 364 363
f 365 366 364
f 367 356 368
f 367 368 369
f 367 357 356
f 370 366 365
f 370 371 372
f 370 372 366
f 373 369 374
f 373 367 369
f 375 371 370
f 375 376 371
f 377 373 374
f 377 374 378
f 379 380 376
f 379 376 375
f 381 378 382
f 381 377 378
f 383 384 380
f 383 380 379
f 385 382 386
f 385 381 382
f 387 388 384
f 387 384 383
f 389 385 386
f 390 388 387
f 390 391 388
f 392 389 386
f 392 386 393
f 394 391 390
f 394 395 391
f 396 392 393
f 396 393 397
f 398 395 394
f 398 399 395
f 400 396 397
f 400 397 401
f 402 400 401
f 402 401 403
f 404 399 398
f 404 405 399
f 406 402 403
f 406 405 404
f 406 403 405
f 407 408 409
f 410 408 407
f 411 407 412
f 411 412 413
f 411 410 407
f 414 413 415
f 414 411 413
f 416 414 415
f 417 414 416
f 418 416 419
f 418 417 416
f 420 418 419
f 420 419 421
f 422 420 421
f 422 421 423
f 424 422 423
f 424 423 425
f 426 424 425
f 427 424 426
f 428 427 426
f 428 429 427
f 430 429 428
f 431 430 428
f 432 430 431
f 432 433 430
f 434 435 409
f 434 409 408
f 436 433 432
f 436 437 433
f 438 437 436
f 439 437 438
f 439 440 437
f 441 440 439
f 441 442 440
f 443 442 441
f 443 444 442
f 445 434 446
f 445 446 447
f 445 435 434
f 448 444 443
f 448 449 450
f 448 450 444
f 451 447 452
f 451 445 447
f 453 449 448
f 453 454 449
f 455 451 452
f 455 452 456
f 457 458 454
f 457 454 453
f 459 456 460
f 459 455 456
f 461 462 458
f 461 458 457
f 463 460 464
f 463 459 460
f 465 466 462
f 465 462 461
f 467 463 464
f 468 466 465
f 468 469 466
f 470 467 464
f 470 464 471
f 472 469 468
f 472 473 469
f 474 470 471
f 474 471 475
f 476 473 472
f 476 477 473
f 478 474 475
f 478 475 479
f 480 478 479
f 480 479 481
f 482 477 476
f 482 483 477
f 484 480 481
f 484 483 482
f 484 481 483
f 485 486 487
f 488 489 485
f 490 489 488
f 491 488 492
f 493 490 488
f 493 488 491
f 494 493 491
f 495 494 491
f 496 495 497
f 496 494 495
f 498 497 499
f 498 496 497
f 500 501 489
f 502 499 503
f 502 498 499
f 504 502 503
f 505 502 504
f 506 505 504
f 507 505 506
f 508 507 506
f 509 507 508
f 509 510 507
f 511 500 512
f 511 512 513
f 511 501 500
f 514 510 509
f 514 515 510
f 516 511 513
f 517 516 513
f 517 513 518
f 519 515 514
f 520 517 518
f 520 518 521
f 522 520 521
f 523 515 519
f 523 524 515
f 525 524 523
f 525 526 524
f 527 522 521
f 527 521 528
f 529 528 530
f 529 527 528
f 531 532 526
f 531 526 525
f 533 530 532
f 533 529 530
f 534 532 531
f 534 533 532
f 501 486 485
f 501 485 489
f 535 491 492
f 165 157 305
f 305 157 302
f 302 154 303
f 157 154 302
f 154 300 303
f 154 153 300
f 298 152 296
f 150 152 298
f 296 151 292
f 152 151 296
f 150 536 153
f 300 536 298
f 153 536 300
f 298 536 150
f 171 172 326
f 326 172 324
f 314 165 305
f 168 165 314
f 170 537 172
f 324 537 320
f 172 537 324
f 320 537 170
f 168 538 170
f 320 538 314
f 170 538 320
f 314 538 168
f 159 308 307
f 159 163 308
f 163 312 308
f 163 166 312
f 322 171 326
f 169 171 322
f 167 539 166
f 312 539 316
f 166 539 312
f 316 539 167
f 169 540 167
f 316 540 322
f 167 540 316
f 322 540 169
f 160 159 294
f 294 159 307
f 161 160 283
f 283 160 294
f 162 161 280
f 280 161 283
f 151 155 292
f 292 155 290
f 290 156 289
f 155 156 290
f 289 158 286
f 156 158 289
f 284 162 280
f 164 162 284
f 164 541 158
f 286 541 284
f 158 541 286
f 284 541 164
f 42 41 310
f 310 41 313
f 313 43 318
f 41 43 313
f 319 45 323
f 44 45 319
f 327 35 328
f 46 35 327
f 44 542 43
f 318 542 319
f 43 542 318
f 319 542 44
f 46 543 45
f 323 543 327
f 45 543 323
f 327 543 46
f 15 16 293
f 293 16 297
f 297 20 299
f 16 20 297
f 299 134 301
f 20 134 299
f 304 42 310
f 133 42 304
f 133 544 134
f 301 544 304
f 134 544 301
f 304 544 133
f 7 9 281
f 281 9 282
f 282 10 285
f 9 10 282
f 287 13 288
f 12 13 287
f 291 15 293
f 14 15 291
f 12 545 10
f 285 545 287
f 10 545 285
f 287 545 12
f 14 546 13
f 288 546 291
f 13 546 288
f 291 546 14
f 8 7 277
f 277 7 281
f 6 8 279
f 279 8 277
f 4 6 278
f 278 6 279
f 91 4 295
f 295 4 278
f 92 91 306
f 306 91 295
f 35 34 328
f 328 34 325
f 325 36 321
f 34 36 325
f 321 37 317
f 36 37 321
f 315 39 311
f 38 39 315
f 311 40 309
f 39 40 311
f 309 92 306
f 40 92 309
f 38 547 37
f 317 547 315
f 37 547 317
f 315 547 38
f 193 366 372
f 193 188 366
f 188 364 366
f 188 187 364
f 362 183 359
f 185 183 362
f 355 178 352
f 181 178 355
f 185 548 187
f 364 548 362
f 187 548 364
f 362 548 185
f 181 549 183
f 359 549 355
f 183 549 359
f 355 549 181
f 207 208 403
f 403 208 405
f 405 206 399
f 208 206 405
f 395 203 391
f 204 203 395
f 391 201 388
f 203 201 391
f 198 380 384
f 380 197 376
f 198 197 380
f 376 195 371
f 197 195 376
f 371 193 372
f 195 193 371
f 204 550 206
f 399 550 395
f 206 550 399
f 395 550 204
f 198 551 201
f 388 551 384
f 201 551 388
f 384 551 198
f 189 192 368
f 368 192 369
f 369 194 374
f 192 194 369
f 194 378 374
f 194 196 378
f 196 382 378
f 196 199 382
f 199 386 382
f 199 200 386
f 200 393 386
f 200 202 393
f 202 397 393
f 397 205 401
f 202 205 397
f 401 207 403
f 205 207 401
f 190 189 356
f 356 189 368
f 191 190 330
f 330 190 356
f 186 191 332
f 332 191 330
f 177 179 342
f 342 179 340
f 340 180 339
f 179 180 340
f 339 182 336
f 180 182 339
f 333 186 332
f 184 186 333
f 184 552 182
f 336 552 333
f 182 552 336
f 333 552 184
f 178 176 352
f 352 176 351
f 351 173 349
f 176 173 351
f 349 175 346
f 173 175 349
f 344 177 342
f 174 177 344
f 174 553 175
f 346 553 344
f 175 553 346
f 344 553 174
f 135 136 370
f 370 136 375
f 375 137 379
f 136 137 375
f 379 77 383
f 137 77 379
f 387 78 390
f 76 78 387
f 390 79 394
f 78 79 390
f 394 80 398
f 79 80 394
f 398 81 404
f 80 81 398
f 404 67 406
f 81 67 404
f 76 554 77
f 383 554 387
f 77 554 383
f 387 554 76
f 27 32 353
f 353 32 354
f 354 47 358
f 32 47 354
f 360 49 361
f 48 49 360
f 361 50 363
f 49 50 361
f 365 135 370
f 138 135 365
f 48 555 47
f 358 555 360
f 47 555 358
f 360 555 48
f 138 556 50
f 363 556 365
f 50 556 363
f 365 556 138
f 23 22 343
f 343 22 345
f 345 24 347
f 22 24 345
f 347 25 348
f 24 25 347
f 350 27 353
f 26 27 350
f 26 557 25
f 348 557 350
f 25 557 348
f 350 557 26
f 17 19 329
f 329 19 334
f 334 28 335
f 19 28 334
f 337 30 338
f 29 30 337
f 341 23 343
f 31 23 341
f 29 558 28
f 335 558 337
f 28 558 335
f 337 558 29
f 31 559 30
f 338 559 341
f 30 559 338
f 341 559 31
f 11 17 331
f 331 17 329
f 33 11 357
f 357 11 331
f 93 33 367
f 367 33 357
f 67 66 406
f 406 66 402
f 402 68 400
f 66 68 402
f 400 69 396
f 68 69 400
f 392 71 389
f 70 71 392
f 389 72 385
f 71 72 389
f 381 74 377
f 73 74 381
f 377 75 373
f 74 75 377
f 373 93 367
f 75 93 373
f 70 560 69
f 396 560 392
f 69 560 396
f 392 560 70
f 73 561 72
f 385 561 381
f 72 561 385
f 381 561 73
f 229 444 450
f 229 224 444
f 224 442 444
f 224 223 442
f 440 219 437
f 221 219 440
f 433 214 430
f 217 214 433
f 221 562 223
f 442 562 440
f 223 562 442
f 440 562 221
f 217 563 219
f 437 563 433
f 219 563 437
f 433 563 217
f 243 244 481
f 481 244 483
f 483 242 477
f 244 242 483
f 473 239 469
f 240 239 473
f 469 237 466
f 239 237 469
f 234 458 462
f 458 233 454
f 234 233 458
f 454 231 449
f 233 231 454
f 449 229 450
f 231 229 449
f 240 564 242
f 477 564 473
f 242 564 477
f 473 564 240
f 234 565 237
f 466 565 462
f 237 565 466
f 462 565 234
f 225 228 446
f 446 228 447
f 447 230 452
f 228 230 447
f 230 456 452
f 230 232 456
f 232 460 456
f 232 235 460
f 235 464 460
f 235 236 464
f 236 471 464
f 236 238 471
f 238 475 471
f 475 241 479
f 238 241 475
f 479 243 481
f 241 243 479
f 226 225 434
f 434 225 446
f 227 226 408
f 408 226 434
f 222 227 410
f 410 227 408
f 213 215 420
f 420 215 418
f 418 216 417
f 215 216 418
f 417 218 414
f 216 218 417
f 411 222 410
f 220 222 411
f 220 566 218
f 414 566 411
f 218 566 414
f 411 566 220
f 214 212 430
f 430 212 429
f 429 209 427
f 212 209 429
f 427 211 424
f 209 211 427
f 422 213 420
f 210 213 422
f 210 567 211
f 424 567 422
f 211 567 424
f 422 567 210
f 142 143 448
f 448 143 453
f 453 144 457
f 143 144 453
f 457 145 461
f 144 145 457
f 465 106 468
f 107 106 465
f 468 108 472
f 106 108 468
f 472 109 476
f 108 109 472
f 476 110 482
f 109 110 476
f 482 98 484
f 110 98 482
f 107 568 145
f 461 568 465
f 145 568 461
f 465 568 107
f 60 64 431
f 431 64 432
f 432 82 436
f 64 82 432
f 438 148 439
f 149 148 438
f 439 147 441
f 148 147 439
f 443 142 448
f 146 142 443
f 149 569 82
f 436 569 438
f 82 569 436
f 438 569 149
f 146 570 147
f 441 570 443
f 147 570 441
f 443 570 146
f 56 55 421
f 421 55 423
f 423 57 425
f 55 57 423
f 425 58 426
f 57 58 425
f 428 60 431
f 59 60 428
f 59 571 58
f 426 571 428
f 58 571 426
f 428 571 59
f 51 52 407
f 407 52 412
f 412 53 413
f 52 53 412
f 415 62 416
f 61 62 415
f 419 56 421
f 63 56 419
f 61 572 53
f 413 572 415
f 53 572 413
f 415 572 61
f 63 573 62
f 416 573 419
f 62 573 416
f 419 573 63
f 21 51 409
f 409 51 407
f 65 21 435
f 435 21 409
f 119 65 445
f 445 65 435
f 98 97 484
f 484 97 480
f 480 99 478
f 97 99 480
f 478 100 474
f 99 100 478
f 470 102 467
f 101 102 470
f 467 103 463
f 102 103 467
f 459 105 455
f 104 105 459
f 455 118 451
f 105 118 455
f 451 119 445
f 118 119 451
f 101 574 100
f 474 574 470
f 100 574 474
f 470 574 101
f 104 575 103
f 463 575 459
f 103 575 463
f 459 575 104
f 257 510 515
f 257 248 510
f 248 507 510
f 248 245 507
f 247 502 505
f 247 246 502
f 247 576 245
f 507 576 505
f 245 576 507
f 505 576 247
f 264 532 530
f 264 266 532
f 266 526 532
f 266 265 526
f 524 257 515
f 262 257 524
f 262 577 265
f 526 577 524
f 265 577 526
f 524 577 262
f 251 513 512
f 513 255 518
f 251 255 513
f 258 260 521
f 521 261 528
f 260 261 521
f 261 263 528
f 263 530 528
f 263 264 530
f 258 578 255
f 518 578 521
f 255 578 518
f 521 578 258
f 252 251 500
f 500 251 512
f 253 252 489
f 489 252 500
f 254 253 490
f 490 253 489
f 246 249 502
f 502 249 498
f 250 259 496
f 256 493 494
f 493 254 490
f 256 254 493
f 250 579 249
f 498 579 496
f 249 579 498
f 496 579 250
f 256 580 259
f 496 580 494
f 259 580 496
f 494 580 256
f 116 128 519
f 519 128 523
f 523 129 525
f 128 129 523
f 525 130 531
f 129 130 525
f 534 122 533
f 131 122 534
f 131 581 130
f 531 581 534
f 130 581 531
f 534 581 131
f 111 112 504
f 504 112 506
f 506 113 508
f 112 113 506
f 508 114 509
f 113 114 508
f 514 116 519
f 115 116 514
f 115 582 114
f 509 582 514
f 114 582 509
f 514 582 115
f 139 140 491
f 491 140 495
f 495 141 497
f 140 141 495
f 497 95 499
f 141 95 497
f 503 111 504
f 94 111 503
f 94 583 95
f 499 583 503
f 95 583 499
f 503 583 94
f 85 139 535
f 535 139 491
f 84 85 492
f 492 85 535
f 86 84 488
f 488 84 492
f 87 86 485
f 485 86 488
f 83 87 487
f 487 87 485
f 54 83 486
f 486 83 487
f 96 54 501
f 501 54 486
f 120 96 511
f 511 96 501
f 122 121 533
f 533 121 529
f 529 123 527
f 121 123 529
f 527 124 522
f 123 124 527
f 520 126 517
f 125 126 520
f 517 127 516
f 126 127 517
f 516 120 511
f 127 120 516
f 125 584 124
f 522 584 520
f 124 584 522
f 520 584 125
