# Full FreeCAD instance transform baked; body-local coordinates in mm
v -145.500000000 213.661252496 -90.464055835
v -145.844126446 215.212275782 -90.776433489
v -145.500000000 213.653503302 -90.776433489
v -145.500000000 214.258370755 -93.470030578
v -145.500000000 214.397399336 -93.746232931
v -145.500000000 214.133062247 -93.187339113
v -145.500000000 214.021775691 -92.898839566
v -145.500000000 213.924779186 -92.605226956
v -145.500000000 213.842306406 -92.307208623
v -145.500000000 213.774556035 -92.005502518
v -145.500000000 213.721691289 -91.700835478
v -145.500000000 213.683839523 -91.393941473
v -145.500000000 213.661091927 -91.085559838
v -145.500000000 221.900310366 -84.784777437
v -146.125784277 221.120350927 -87.829036413
v -145.500000000 221.600826930 -84.695617355
v -145.500000000 222.195004537 -84.888677362
v -145.500000000 222.484184477 -85.007061531
v -145.500000000 222.767138785 -85.139638712
v -146.125784277 220.530319947 -87.659389142
v -146.125784277 221.688139482 -88.123186379
v -145.500000000 223.043171376 -85.286082755
v -145.500000000 223.311603192 -85.446033399
v -145.500000000 223.571773876 -85.619097157
v -145.500000000 223.823043391 -85.804848280
v -145.500000000 224.064793599 -86.002829810
v -146.125784277 222.195007585 -88.534929206
v -145.500000000 224.296429779 -86.212554699
v -145.500000000 224.517382092 -86.433507012
v -145.500000000 224.727106981 -86.665143192
v -145.500000000 224.925088511 -86.906893399
v -146.125784277 222.606750412 -89.041797309
v -145.500000000 225.110839634 -87.158162914
v -145.500000000 225.283903392 -87.418333598
v -145.500000000 225.443854036 -87.686765415
v -145.500000000 225.590298079 -87.962798006
v -146.125784277 222.900900378 -89.609585864
v -145.500000000 225.722875259 -88.245752314
v -145.500000000 225.841259428 -88.534932254
v -145.500000000 225.945159354 -88.829626425
v -145.500000000 226.034319436 -89.129109861
v -146.125784277 223.070547649 -90.199616844
v -145.500000000 226.108520335 -89.432645816
v -145.500000000 226.167579513 -89.739487571
v -145.500000000 226.211351680 -90.048880276
v -145.500000000 226.239729153 -90.360062808
v -145.500000000 226.250058823 -90.984732716
v -146.125784277 223.123469060 -90.776433489
v -145.500000000 226.252642123 -90.672269637
v -145.500000000 226.231985607 -91.296683366
v -145.500000000 226.198466938 -91.607354169
v -146.125784277 223.070547649 -91.353250135
v -145.500000000 226.149585273 -91.915980856
v -145.500000000 226.085460864 -92.221804186
v -145.500000000 226.006251461 -92.524071815
v -146.125784277 222.900900378 -91.943281115
v -145.500000000 225.912151924 -92.822040145
v -145.500000000 225.803393744 -93.114976158
v -145.500000000 225.680244472 -93.402159211
v -145.500000000 225.543007064 -93.682882816
v -145.500000000 225.392019132 -93.956456377
v -146.125784277 222.606750412 -92.511069670
v -145.500000000 225.227652115 -94.222206886
v -145.500000000 225.050310366 -94.479480579
v -145.500000000 224.860430158 -94.727644548
v -145.500000000 224.658478607 -94.966088294
v -146.125784277 222.195007585 -93.017937773
v -145.500000000 224.444952526 -95.194225230
v -145.500000000 224.220377203 -95.411494127
v -145.500000000 223.985305107 -95.617360488
v -145.500000000 223.740314529 -95.811317870
v -146.125784277 221.688139482 -93.429680600
v -145.500000000 223.486008163 -95.992889126
v -145.500000000 223.223011616 -96.161627579
v -145.500000000 222.951971878 -96.317118122
v -145.500000000 222.673555721 -96.458978239
v -146.125784277 221.120350927 -93.723830566
v -145.500000000 222.388448068 -96.586858946
v -145.500000000 222.097350300 -96.700445647
v -145.500000000 221.800978537 -96.799458913
v -145.500000000 221.500061870 -96.883655165
v -146.125784277 220.530319947 -93.893477837
v -145.500000000 221.195340574 -96.952827274
v -145.500000000 220.887564282 -97.006805074
v -145.500000000 220.577490142 -97.045455775
v -145.500000000 219.644376953 -97.068844863
v -146.125784277 219.953503301 -93.946399248
v -145.500000000 219.953503302 -97.076433489
v -145.500000000 219.335995317 -97.046097267
v -145.500000000 220.265880956 -97.068684295
v -145.500000000 219.029101312 -97.008245502
v -146.125784277 219.376686656 -93.893477837
v -145.500000000 218.724434273 -96.955380756
v -145.500000000 218.422728168 -96.887630385
v -145.500000000 218.124709835 -96.805157605
v -145.500000000 217.831097225 -96.708161100
v -146.125784277 218.786655676 -93.723830566
v -145.500000000 217.542597678 -96.596874544
v -145.500000000 217.259906213 -96.471566036
v -145.500000000 216.983703859 -96.332537455
v -146.125784277 218.218867121 -93.429680600
v -145.500000000 216.714656013 -96.180123732
v -145.500000000 216.453410833 -96.014692047
v -145.500000000 216.200597683 -95.836640938
v -145.500000000 215.956825611 -95.646399346
v -146.125784277 217.711999018 -93.017937773
v -145.500000000 215.722681886 -95.444425579
v -145.500000000 215.498730580 -95.231206211
v -145.500000000 215.285511212 -95.007254905
v -145.500000000 215.083537445 -94.773111180
v -145.500000000 214.893295853 -94.529339108
v -146.125784277 217.300256191 -92.511069670
v -145.500000000 214.715244744 -94.276525957
v -145.500000000 214.549813058 -94.015280778
v -146.125784277 217.006106225 -91.943281115
v -146.125784277 216.836458954 -91.353250135
v -146.344524919 218.364786160 -90.776433489
v -146.125784277 216.783537543 -90.776433489
v -145.500000000 213.684481015 -90.152446649
v -145.679719940 214.693966231 -89.091380109
v -145.500000000 213.723131717 -89.842372509
v -145.500000000 213.777109516 -89.534596216
v -145.500000000 213.846281626 -89.229874920
v -145.500000000 213.930477878 -88.928958254
v -145.500000000 214.029491144 -88.632586490
v -145.679719940 214.735145706 -88.967876306
v -145.500000000 214.143077845 -88.341488723
v -145.500000000 214.270958552 -88.056381070
v -145.500000000 214.412818669 -87.777964913
v -145.500000000 214.568309212 -87.506925175
v -145.500000000 214.737047665 -87.243928628
v -145.500000000 214.918618921 -86.989622262
v -145.844001762 215.473243782 -89.223234590
v -145.844001762 215.511223341 -89.117728893
v -145.844001762 215.551859469 -89.012720428
v -145.500000000 216.773480414 -85.337917659
v -145.844001762 218.225533460 -86.360635440
v -145.500000000 216.507729905 -85.502284676
v -145.500000000 217.047053975 -85.186929727
v -145.500000000 217.327777580 -85.049692319
v -145.500000000 217.614960633 -84.926543047
v -145.844001762 218.330708829 -86.320909919
v -146.125784277 219.953503301 -87.606467731
v -145.500000000 217.907896646 -84.817784867
v -145.844001762 218.436394479 -86.283824781
v -145.844001762 218.542623857 -86.249340451
v -145.500000000 218.205864976 -84.723685330
v -145.844001762 218.649430921 -86.217426206
v -146.125784277 217.712421085 -88.534507217
v -145.844001762 218.756850122 -86.188059774
v -145.500000000 218.508132605 -84.644475927
v -145.844001762 218.864915981 -86.161227120
v -145.844001762 218.973677975 -86.136919019
v -145.500000000 218.813955935 -84.580351518
v -145.500000000 219.122582622 -84.531469853
v -145.500000000 219.433253425 -84.497951183
v -145.500000000 219.745204075 -84.479877968
v -145.500000000 220.057667154 -84.477294668
v -145.500000000 220.369873983 -84.490207638
v -145.500000000 220.681056514 -84.518585111
v -145.500000000 220.990449220 -84.562357278
v -145.500000000 221.297290975 -84.621416455
v -146.243097849 218.271036987 -89.093016588
v -146.344599471 218.952999032 -89.543142372
v -146.344599471 218.830980161 -89.653064640
v -146.344599471 219.084982658 -89.446889333
v -146.344599471 219.224622906 -89.365494390
v -146.344599471 219.369470574 -89.299639141
v -146.344599471 219.517067325 -89.249495569
v -146.344599471 219.665066660 -89.214761284
v -146.344599471 219.811333176 -89.194724468
v -146.344599471 219.954013765 -89.188348003
v -146.344599471 219.952992837 -92.364518976
v -146.344599471 219.810280307 -92.358047522
v -146.344599471 219.663994125 -92.337907219
v -146.344599471 219.515989703 -92.303062987
v -146.344599471 219.368404273 -92.252805699
v -146.344599471 219.223585536 -92.186836208
v -146.344599471 219.083992222 -92.105330120
v -146.344599471 218.952072987 -92.008972778
v -146.344599471 218.830134452 -91.898956630
v -146.344599471 218.720212185 -91.776937759
v -146.243097849 217.740333780 -91.651913949
v -146.344599471 218.623959145 -91.644954133
v -146.344599471 218.542564202 -91.505313885
v -146.344599471 218.476708954 -91.360466217
v -145.844001762 216.614712806 -87.409293722
v -145.500000000 215.112576303 -86.744631684
v -145.500000000 215.318442664 -86.509559588
v -145.500000000 215.535711561 -86.284984265
v -145.500000000 215.763848497 -86.071458184
v -145.500000000 216.002292243 -85.869506633
v -145.500000000 216.250456212 -85.679626425
v -146.430242675 219.230397767 -90.447075509
v -146.500000000 219.953503302 -90.776433489
v -146.430242675 219.247891478 -90.411097689
v -146.430242675 219.267332504 -90.375774121
v -146.430242675 219.288686023 -90.341259640
v -146.430242675 219.311900997 -90.307706730
v -146.430242675 219.336910367 -90.275263413
v -146.430242675 219.363631579 -90.244071165
v -146.430242675 219.391967433 -90.214262910
v -146.243097849 220.829982550 -88.563659327
v -146.243097849 221.047030978 -88.662483967
v -146.243097849 221.256254893 -88.784594225
v -146.243097849 221.453984325 -88.928964393
v -146.243097849 221.636761809 -89.093808706
v -146.403459073 220.471963757 -89.852768546
v -146.430242675 220.515673881 -90.214897621
v -146.344599471 221.541588788 -90.776943953
v -146.243097849 221.636128085 -92.459691997
v -146.243097849 221.453290400 -92.624465963
v -146.243097849 221.255512717 -92.768757973
v -146.243097849 221.046253634 -92.890784945
v -146.243097849 220.829183526 -92.989523978
v -146.430242675 219.391332722 -91.337969358
v -146.430242675 219.363030963 -91.308129558
v -146.430242675 219.336346114 -91.276908561
v -146.430242675 219.311375068 -91.244439498
v -146.430242675 219.288200050 -91.210864009
v -146.430242675 219.266887772 -91.176330236
v -146.430242675 219.247488920 -91.140990736
v -146.430242675 219.230037963 -91.105000373
v -146.467108045 219.807457803 -90.406847948
v -146.389405537 221.061145468 -91.215517326
v -146.344599471 221.076026442 -91.899802338
v -146.430242675 220.515039170 -91.338604069
v -146.467108045 220.099548800 -91.146019031
v -146.455261022 219.953219454 -91.306249786
v -146.467108045 220.323088843 -90.630387991
v -135.000000000 219.953503302 -96.813933489
v -133.500000000 219.953503302 -96.776433489
v -133.500000000 219.654427988 -96.768975017
v -144.000000000 219.953503302 -97.038933489
v -133.500000000 220.252578615 -96.768975017
v -135.000000000 219.352362428 -96.783931796
v -136.500000000 219.953503302 -96.851433489
v -133.500000000 219.356096222 -96.746618142
v -133.500000000 219.059249704 -96.709418447
v -135.000000000 218.757195962 -96.694224885
v -133.500000000 218.764626442 -96.657468416
v -133.500000000 218.472958915 -96.590897207
v -135.000000000 218.173918936 -96.545704304
v -133.500000000 218.184972255 -96.509870324
v -133.500000000 217.901382442 -96.414589214
v -136.500000000 219.348628633 -96.821245450
v -138.000000000 219.953503302 -96.888933489
v -135.000000000 217.608328219 -96.339846119
v -133.500000000 217.622894524 -96.305290761
v -133.500000000 217.350200867 -96.182246697
v -136.500000000 218.749765482 -96.730981353
v -135.000000000 217.066044906 -96.078696239
v -133.500000000 217.083979430 -96.045762930
v -133.500000000 216.824892081 -95.896178779
v -136.500000000 218.162865617 -96.581538285
v -138.000000000 219.344894839 -96.858559104
v -139.500000000 219.953503302 -96.926433489
v -135.000000000 216.552458451 -95.764850089
v -133.500000000 216.573582953 -95.733866135
v -133.500000000 216.330676840 -95.559228533
v -136.500000000 217.593761914 -96.374401477
v -138.000000000 218.742335001 -96.767737821
v -135.000000000 216.072673108 -95.401426815
v -133.500000000 216.096777643 -95.372700148
v -133.500000000 215.872466875 -95.174744720
v -136.500000000 217.048110381 -96.111629548
v -138.000000000 218.151812298 -96.617372265
v -135.000000000 215.631457199 -94.992038279
v -133.500000000 215.658302206 -94.965854398
v -133.500000000 215.454816084 -94.746548515
v -139.500000000 219.341161045 -96.895872758
v -141.000000000 219.953503302 -96.963933489
v -136.500000000 216.531333949 -95.795834043
v -138.000000000 217.579195609 -96.408956834
v -135.000000000 215.233195726 -94.540753168
v -133.500000000 215.262514407 -94.517372301
v -133.500000000 215.081875267 -94.278895523
v -139.500000000 218.734904521 -96.804494290
v -136.500000000 216.048568573 -95.430153481
v -138.000000000 217.030175857 -96.144562857
v -135.000000000 214.881846790 -94.052056557
v -133.500000000 214.913347763 -94.031711073
v -133.500000000 214.757350879 -93.776433489
v -139.500000000 218.140758979 -96.653206245
v -136.500000000 215.604612192 -95.018222159
v -141.000000000 219.337427251 -96.933186412
v -142.500000000 219.953503302 -97.001433489
v -138.000000000 216.510209447 -95.826817997
v -135.000000000 214.580902256 -93.530805333
v -133.500000000 214.614272449 -93.513697434
v -133.500000000 214.484468188 -93.244156108
v -139.500000000 217.564629304 -96.443512192
v -136.500000000 215.203877046 -94.564134036
v -141.000000000 218.727474040 -96.841250758
v -138.000000000 216.024464037 -95.458880148
v -135.000000000 214.333353044 -92.982179924
v -133.500000000 214.368260810 -92.968479636
v -133.500000000 214.265939224 -92.687353391
v -139.500000000 217.012241333 -96.177496166
v -136.500000000 214.850345818 -94.072402042
v -141.000000000 218.129705660 -96.689040225
v -138.000000000 215.577767185 -95.044406040
v -135.000000000 214.141659411 -92.411632816
v -133.500000000 214.177757820 -92.401476298
v -133.500000000 214.103935828 -92.111559093
v -142.500000000 219.333693456 -96.970500066
v -139.500000000 216.489084944 -95.857801951
v -136.500000000 214.547532063 -93.547913233
v -141.000000000 217.550063000 -96.478067550
v -138.000000000 215.174558365 -94.587514903
v -135.000000000 214.007726493 -91.824834362
v -133.500000000 214.044656783 -91.818322555
v -133.500000000 214.000068062 -91.522495717
v -142.500000000 218.720043560 -96.878007226
v -139.500000000 216.000359502 -95.487606815
v -136.500000000 214.298445278 -92.995880212
v -141.000000000 216.994306809 -96.210429475
v -138.000000000 214.818844846 -94.092747527
v -135.000000000 213.932885376 -91.227616429
v -133.500000000 213.970280518 -91.224814051
v -133.500000000 213.955368209 -90.926017640
v -142.500000000 218.118652341 -96.724874205
v -139.500000000 215.550922179 -95.070589921
v -136.500000000 214.105561001 -92.421789333
v -144.000000000 219.329959662 -97.007813720
v -141.000000000 216.467960442 -95.888785905
v -138.000000000 214.514161870 -93.565021132
v -135.000000000 213.917879865 -90.625914438
v -133.500000000 213.955368209 -90.626849339
v -133.500000000 213.970280518 -90.328052928
v -142.500000000 217.535496695 -96.512622908
v -139.500000000 215.145239684 -94.610895771
v -136.500000000 213.970796202 -91.831346169
v -144.000000000 218.712613080 -96.914763695
v -141.000000000 215.976254967 -95.516333481
v -138.000000000 214.263537513 -93.009580501
v -135.000000000 213.962859092 -90.025708373
v -133.500000000 214.000068062 -90.030371262
v -133.500000000 214.044656783 -89.734544423
v -142.500000000 216.976372285 -96.243362784
v -139.500000000 214.787343874 -94.113093012
v -136.500000000 213.895490234 -91.230418808
v -144.000000000 218.107599022 -96.760708186
v -141.000000000 215.524077172 -95.096773801
v -138.000000000 214.069462592 -92.431945851
v -135.000000000 214.067376032 -89.432963351
v -133.500000000 214.103935828 -89.441307886
v -133.500000000 214.177757820 -89.151390681
v -142.500000000 216.446835940 -95.919769860
v -139.500000000 214.480791677 -93.582129032
v -136.500000000 213.880391521 -90.624979537
v -144.000000000 217.520930390 -96.547178266
v -141.000000000 215.115921004 -94.634276638
v -138.000000000 213.933865911 -91.837857975
v -135.000000000 214.230391949 -88.853570339
v -133.500000000 214.265939224 -88.865513588
v -133.500000000 214.368260810 -88.584387343
v -142.500000000 215.952150431 -95.545060148
v -139.500000000 214.228629747 -93.023280789
v -136.500000000 213.925650121 -90.021045484
v -144.000000000 216.958437760 -96.276296093
v -141.000000000 214.755842902 -94.133438497
v -138.000000000 213.858095091 -91.233221186
v -135.000000000 214.450286718 -88.293287604
v -133.500000000 214.484468188 -88.308710871
v -133.500000000 214.614272449 -88.039169545
v -142.500000000 215.497232165 -95.122957682
v -139.500000000 214.033364183 -92.442102368
v -136.500000000 214.030816235 -89.424618816
v -144.000000000 216.425711438 -95.950753814
v -141.000000000 214.447421484 -93.599236932
v -138.000000000 213.842903177 -90.624044636
v -135.000000000 214.724874926 -87.757683489
v -133.500000000 214.757350879 -87.776433489
v -133.500000000 214.913347763 -87.521155906
v -142.500000000 215.086602323 -94.657657506
v -139.500000000 213.896935620 -91.844369782
v -136.500000000 214.194844674 -88.841627089
v -144.000000000 215.928045896 -95.573786814
v -141.000000000 214.193721982 -93.036981078
v -138.000000000 213.888441151 -90.016382595
v -135.000000000 215.051427592 -87.252081068
v -133.500000000 215.081875267 -87.273971456
v -133.500000000 215.262514407 -87.035494678
v -142.500000000 214.724341930 -94.153783982
v -139.500000000 213.820699949 -91.236023565
v -136.500000000 214.416105249 -88.277864338
v -144.000000000 215.470387158 -95.149141563
v -141.000000000 213.997265773 -92.452258886
v -138.000000000 213.994256438 -89.416274281
v -135.000000000 215.426699289 -86.781505245
v -133.500000000 215.454816084 -86.806318464
v -133.500000000 215.658302206 -86.587012581
v -142.500000000 214.414051292 -93.616344831
v -139.500000000 213.805414832 -90.623109735
v -136.500000000 214.692398974 -87.738933489
v -144.000000000 215.057283643 -94.681038374
v -141.000000000 213.860005330 -91.850881589
v -138.000000000 214.159297398 -88.829683840
v -135.000000000 215.846960397 -86.350632813
v -133.500000000 215.872466875 -86.378122258
v -133.500000000 216.096777643 -86.180166831
v -142.500000000 214.158814216 -93.050681366
v -139.500000000 213.851232181 -90.011719706
v -136.500000000 215.020979917 -87.230190681
v -144.000000000 214.692840958 -94.174129467
v -141.000000000 213.783304806 -91.238825943
v -138.000000000 214.381923779 -88.262441072
v -135.000000000 216.308034174 -85.963745977
v -133.500000000 216.330676840 -85.993638446
v -133.500000000 216.573582953 -85.819000844
v -142.500000000 213.961167364 -92.462415404
v -139.500000000 213.957696642 -89.407929746
v -136.500000000 215.398582493 -86.756692026
v -144.000000000 214.380681099 -93.633452731
v -141.000000000 213.767926488 -90.622174834
v -138.000000000 214.659923021 -87.720183489
v -135.000000000 216.805338261 -85.624689792
v -133.500000000 216.824892081 -85.656688200
v -133.500000000 217.083979430 -85.507104049
v -142.500000000 213.823075039 -91.857393395
v -139.500000000 214.123750123 -88.817740590
v -136.500000000 215.821453920 -86.323143368
v -144.000000000 214.123906451 -93.064381654
v -141.000000000 213.814023211 -90.007056817
v -138.000000000 214.990532242 -87.208300293
v -135.000000000 217.333930227 -85.336833949
v -133.500000000 217.350200867 -85.370620282
v -133.500000000 217.622894524 -85.247576218
v -142.500000000 213.745909664 -91.241628322
v -139.500000000 214.347742310 -88.247017805
v -136.500000000 216.285391509 -85.933853508
v -144.000000000 213.925068955 -92.472571921
v -141.000000000 213.921136845 -89.399585211
v -138.000000000 215.370465698 -86.731878807
v -135.000000000 217.888556686 -85.103039291
v -133.500000000 217.901382442 -85.138277765
v -133.500000000 218.184972255 -85.042996655
v -142.500000000 213.730438144 -90.621239933
v -139.500000000 214.627447068 -87.701433489
v -136.500000000 216.785784441 -85.592691383
v -144.000000000 213.786144748 -91.863905202
v -141.000000000 214.088202847 -88.805797341
v -138.000000000 215.795947442 -86.295653923
v -135.000000000 218.463705513 -84.925629374
v -133.500000000 218.472958915 -84.961969772
v -133.500000000 218.764626442 -84.895398562
v -142.500000000 213.776814240 -90.002393928
v -139.500000000 214.960084566 -87.186409905
v -136.500000000 217.317659586 -85.303047617
v -144.000000000 213.708514522 -91.244430700
v -141.000000000 214.313560840 -88.231594539
v -138.000000000 216.262748843 -85.903961039
v -135.000000000 219.053660619 -84.806367376
v -133.500000000 219.059249704 -84.843448532
v -133.500000000 219.356096222 -84.806248837
v -142.500000000 213.884577048 -89.391240676
v -139.500000000 215.342348903 -86.707065588
v -136.500000000 217.875730931 -85.067800818
v -144.000000000 213.692949799 -90.620305032
v -141.000000000 214.594971116 -87.682683489
v -138.000000000 216.766230621 -85.560692975
v -135.000000000 219.652558767 -84.746438578
v -133.500000000 219.654427988 -84.783891962
v -133.500000000 219.953503302 -84.776433489
v -142.500000000 214.052655572 -88.793854092
v -139.500000000 215.770440964 -86.268164478
v -136.500000000 218.454452111 -84.889288976
v -144.000000000 213.739605270 -89.997731039
v -141.000000000 214.929636891 -87.164519517
v -138.000000000 217.301388946 -85.269261284
v -135.000000000 220.254447836 -84.746438578
v -133.500000000 220.252578615 -84.783891962
v -133.500000000 220.550910381 -84.806248837
v -142.500000000 214.279379371 -88.216171272
v -139.500000000 216.240106178 -85.874068570
v -136.500000000 219.048071534 -84.769286220
v -144.000000000 213.848017251 -89.382896140
v -141.000000000 215.314232108 -86.682252369
v -138.000000000 217.862905175 -85.032562345
v -135.000000000 220.853345984 -84.806367376
v -133.500000000 220.847756899 -84.843448532
v -133.500000000 221.142380161 -84.895398562
v -142.500000000 214.562495163 -87.663933489
v -139.500000000 216.746676801 -85.528694567
v -136.500000000 219.650689546 -84.708985193
v -144.000000000 214.017108296 -88.781910842
v -141.000000000 215.744934487 -86.240675032
v -138.000000000 218.445198708 -84.852948577
v -135.000000000 221.443301090 -84.925629374
v -133.500000000 221.434047688 -84.961969772
v -133.500000000 221.722034348 -85.042996655
v -142.500000000 214.899189216 -87.142629130
v -139.500000000 217.285118306 -85.235474952
v -136.500000000 220.256317057 -84.708985193
v -144.000000000 214.245197901 -88.200748006
v -141.000000000 216.217463513 -85.844176101
v -138.000000000 219.042482449 -84.732205064
v -135.000000000 222.018449917 -85.103039291
v -133.500000000 222.005624161 -85.138277765
v -133.500000000 222.284112079 -85.247576218
v -142.500000000 215.286115313 -86.657439150
v -139.500000000 217.850079420 -84.997323872
v -136.500000000 220.858935069 -84.769286220
v -144.000000000 214.530019210 -87.645183489
v -141.000000000 216.727122981 -85.496696159
v -138.000000000 219.648820325 -84.671531808
v -135.000000000 222.573076376 -85.336833949
v -133.500000000 222.556805736 -85.370620282
v -133.500000000 222.823027173 -85.507104049
v -142.500000000 215.719428009 -86.213185587
v -139.500000000 218.435945306 -84.816608179
v -136.500000000 221.452554492 -84.889288976
v -144.000000000 214.868741541 -87.120738742
v -141.000000000 217.268847666 -85.201688619
v -138.000000000 220.258186278 -84.671531808
v -135.000000000 223.101668342 -85.624689792
v -133.500000000 223.082114522 -85.656688200
v -133.500000000 223.333423650 -85.819000844
v -142.500000000 216.194820847 -85.814283632
v -139.500000000 219.036893365 -84.695123908
v -136.500000000 222.031275672 -85.067800818
v -144.000000000 215.257998518 -86.632625931
v -141.000000000 217.837253665 -84.962085398
v -138.000000000 220.864524154 -84.732205064
v -135.000000000 223.598972429 -85.963745977
v -133.500000000 223.576329763 -85.993638446
v -133.500000000 223.810228960 -86.180166831
v -142.500000000 216.707569160 -85.464697751
v -139.500000000 219.646951105 -84.634078424
v -136.500000000 222.589347017 -85.303047617
v -144.000000000 215.693921531 -86.185696142
v -141.000000000 218.426691903 -84.780267781
v -138.000000000 221.461807895 -84.852948577
v -135.000000000 224.060046206 -86.350632813
v -133.500000000 224.034539728 -86.378122258
v -133.500000000 224.248704397 -86.587012581
v -142.500000000 217.252577025 -85.167902287
v -139.500000000 220.260055498 -84.634078424
v -136.500000000 223.121222162 -85.592691383
v -144.000000000 216.172178182 -85.784391163
v -141.000000000 219.031304280 -84.658042752
v -138.000000000 222.044101428 -85.032562345
v -135.000000000 224.480307314 -86.781505245
v -133.500000000 224.452190519 -86.806318464
v -133.500000000 224.644492196 -87.035494678
v -142.500000000 217.824427909 -84.926846925
v -139.500000000 220.870113238 -84.695123908
v -136.500000000 223.621615094 -85.933853508
v -144.000000000 216.688015340 -85.432699343
v -141.000000000 219.645081884 -84.596625039
v -138.000000000 222.605617657 -85.269261284
v -135.000000000 224.855579011 -87.252081068
v -133.500000000 224.825131336 -87.273971456
v -133.500000000 224.993658840 -87.521155906
v -142.500000000 218.417438501 -84.743927383
v -139.500000000 221.471061297 -84.816608179
v -136.500000000 224.085552683 -86.323143368
v -144.000000000 217.236306385 -85.134115954
v -141.000000000 220.261924719 -84.596625039
v -138.000000000 223.140775982 -85.560692975
v -135.000000000 225.182131677 -87.757683489
v -133.500000000 225.149655724 -87.776433489
v -133.500000000 225.292734154 -88.039169545
v -142.500000000 219.025715195 -84.620961596
v -139.500000000 222.056927183 -84.997323872
v -136.500000000 224.508424110 -86.756692026
v -144.000000000 217.811602154 -84.891608452
v -141.000000000 220.875702323 -84.658042752
v -138.000000000 223.644257760 -85.903961039
v -135.000000000 225.456719885 -88.293287604
v -133.500000000 225.422538415 -88.308710871
v -133.500000000 225.538745793 -88.584387343
v -142.500000000 219.643212663 -84.559171655
v -139.500000000 222.621888297 -85.235474952
v -136.500000000 224.886026686 -87.230190681
v -144.000000000 218.408185098 -84.707586984
v -141.000000000 221.480314700 -84.780267781
v -138.000000000 224.111059161 -86.295653923
v -135.000000000 225.676614654 -88.853570339
v -133.500000000 225.641067379 -88.865513588
v -133.500000000 225.729248783 -89.151390681
v -142.500000000 220.263793940 -84.559171655
v -139.500000000 223.160329802 -85.528694567
v -136.500000000 225.214607629 -87.738933489
v -144.000000000 219.020126110 -84.583880440
v -141.000000000 222.069752938 -84.962085398
v -138.000000000 224.536540905 -86.731878807
v -135.000000000 225.839630571 -89.432963351
v -133.500000000 225.803070775 -89.441307886
v -133.500000000 225.862349820 -89.734544423
v -142.500000000 220.881291408 -84.620961596
v -139.500000000 223.666900425 -85.874068570
v -136.500000000 225.490901354 -88.277864338
v -144.000000000 219.641343443 -84.521718270
v -141.000000000 222.638158937 -85.201688619
v -138.000000000 224.916474361 -87.208300293
v -135.000000000 225.944147511 -90.025708373
v -133.500000000 225.906938541 -90.030371262
v -133.500000000 225.936726085 -90.328052928
v -142.500000000 221.489568102 -84.743927383
v -139.500000000 224.136565639 -86.268164478
v -136.500000000 225.712161929 -88.841627089
v -144.000000000 220.265663160 -84.521718270
v -141.000000000 223.179883622 -85.496696159
v -138.000000000 225.247083582 -87.720183489
v -135.000000000 225.989126738 -90.625914438
v -133.500000000 225.951638394 -90.626849339
v -133.500000000 225.951638394 -90.926017640
v -142.500000000 222.082578694 -84.926846925
v -139.500000000 224.564657700 -86.707065588
v -136.500000000 225.876190368 -89.424618816
v -144.000000000 220.886880493 -84.583880440
v -141.000000000 223.689543090 -85.844176101
v -138.000000000 225.525082824 -88.262441072
v -135.000000000 225.974121227 -91.227616429
v -133.500000000 225.936726085 -91.224814051
v -133.500000000 225.906938541 -91.522495717
v -142.500000000 222.654429578 -85.167902287
v -139.500000000 224.946922037 -87.186409905
v -136.500000000 225.981356482 -90.021045484
v -144.000000000 221.498821505 -84.707586984
v -141.000000000 224.162072116 -86.240675032
v -138.000000000 225.747709205 -88.829683840
v -135.000000000 225.899280110 -91.824834362
v -133.500000000 225.862349820 -91.818322555
v -133.500000000 225.803070775 -92.111559093
v -142.500000000 223.199437443 -85.464697751
v -139.500000000 225.279559535 -87.701433489
v -136.500000000 226.026615082 -90.624979537
v -144.000000000 222.095404449 -84.891608452
v -141.000000000 224.592774495 -86.682252369
v -138.000000000 225.912750165 -89.416274281
v -135.000000000 225.765347192 -92.411632816
v -133.500000000 225.729248783 -92.401476298
v -133.500000000 225.641067379 -92.687353391
v -142.500000000 223.712185756 -85.814283632
v -139.500000000 225.559264293 -88.247017805
v -136.500000000 226.011516369 -91.230418808
v -144.000000000 222.670700218 -85.134115954
v -141.000000000 224.977369712 -87.164519517
v -138.000000000 226.018565452 -90.016382595
v -135.000000000 225.573653559 -92.982179924
v -133.500000000 225.538745793 -92.968479636
v -133.500000000 225.422538415 -93.244156108
v -142.500000000 224.187578594 -86.213185587
v -139.500000000 225.783256480 -88.817740590
v -136.500000000 225.936210401 -91.831346169
v -144.000000000 223.218991263 -85.432699343
v -141.000000000 225.312035487 -87.682683489
v -138.000000000 226.064103426 -90.624044636
v -135.000000000 225.326104347 -93.530805333
v -133.500000000 225.292734154 -93.513697434
v -133.500000000 225.149655724 -93.776433489
v -142.500000000 224.620891290 -86.657439150
v -139.500000000 225.949309961 -89.407929746
v -136.500000000 225.801445602 -92.421789333
v -144.000000000 223.734828421 -85.784391163
v -141.000000000 225.593445763 -88.231594539
v -138.000000000 226.048911512 -91.233221186
v -135.000000000 225.025159813 -94.052056557
v -133.500000000 224.993658840 -94.031711073
v -133.500000000 224.825131336 -94.278895523
v -142.500000000 225.007817387 -87.142629130
v -139.500000000 226.055774422 -90.011719706
v -136.500000000 225.608561325 -92.995880212
v -144.000000000 224.213085072 -86.185696142
v -141.000000000 225.818803756 -88.805797341
v -138.000000000 225.973140692 -91.837857975
v -135.000000000 224.673810877 -94.540753168
v -133.500000000 224.644492196 -94.517372301
v -133.500000000 224.452190519 -94.746548515
v -142.500000000 225.344511440 -87.663933489
v -139.500000000 226.101591771 -90.623109735
v -136.500000000 225.359474540 -93.547913233
v -144.000000000 224.649008085 -86.632625931
v -141.000000000 225.985869758 -89.399585211
v -138.000000000 225.837544011 -92.431945851
v -135.000000000 224.275549404 -94.992038279
v -133.500000000 224.248704397 -94.965854398
v -133.500000000 224.034539728 -95.174744720
v -142.500000000 225.627627232 -88.216171272
v -139.500000000 226.086306654 -91.236023565
v -136.500000000 225.056660785 -94.072402042
v -144.000000000 225.038265062 -87.120738742
v -141.000000000 226.092983392 -90.007056817
v -138.000000000 225.643469090 -93.009580501
v -135.000000000 223.834333495 -95.401426815
v -133.500000000 223.810228960 -95.372700148
v -133.500000000 223.576329763 -95.559228533
v -142.500000000 225.854351031 -88.793854092
v -139.500000000 226.010070983 -91.844369782
v -136.500000000 224.703129557 -94.564134036
v -144.000000000 225.376987393 -87.645183489
v -141.000000000 226.139080115 -90.622174834
v -138.000000000 225.392844733 -93.565021132
v -135.000000000 223.354548152 -95.764850089
v -133.500000000 223.333423650 -95.733866135
v -133.500000000 223.082114522 -95.896178779
v -142.500000000 226.022429555 -89.391240676
v -139.500000000 225.873642420 -92.442102368
v -136.500000000 224.302394411 -95.018222159
v -144.000000000 225.661808702 -88.200748006
v -141.000000000 226.123701797 -91.238825943
v -138.000000000 225.088161757 -94.092747527
v -135.000000000 222.840961697 -96.078696239
v -133.500000000 222.823027173 -96.045762930
v -133.500000000 222.556805736 -96.182246697
v -142.500000000 226.130192363 -90.002393928
v -139.500000000 225.678376856 -93.023280789
v -136.500000000 223.858438030 -95.430153481
v -144.000000000 225.889898307 -88.781910842
v -141.000000000 226.047001273 -91.850881589
v -138.000000000 224.732448238 -94.587514903
v -135.000000000 222.298678384 -96.339846119
v -133.500000000 222.284112079 -96.305290761
v -133.500000000 222.005624161 -96.414589214
v -142.500000000 226.176568459 -90.621239933
v -139.500000000 225.426214926 -93.582129032
v -136.500000000 223.375672654 -95.795834043
v -144.000000000 226.058989352 -89.382896140
v -141.000000000 225.909740830 -92.452258886
v -138.000000000 224.329239418 -95.044406040
v -135.000000000 221.733087667 -96.545704304
v -133.500000000 221.722034348 -96.509870324
v -133.500000000 221.434047688 -96.590897207
v -142.500000000 226.161096939 -91.241628322
v -139.500000000 225.119662729 -94.113093012
v -136.500000000 222.858896222 -96.111629548
v -144.000000000 226.167401333 -89.997731039
v -141.000000000 225.713284621 -93.036981078
v -138.000000000 223.882542566 -95.458880148
v -135.000000000 221.149810641 -96.694224885
v -133.500000000 221.142380161 -96.657468416
v -133.500000000 220.847756899 -96.709418447
v -142.500000000 226.083931564 -91.857393395
v -139.500000000 224.761766919 -94.610895771
v -136.500000000 222.313244689 -96.374401477
v -144.000000000 226.214056804 -90.620305032
v -141.000000000 225.459585119 -93.599236932
v -138.000000000 223.396797156 -95.826817997
v -135.000000000 220.554644175 -96.783931796
v -133.500000000 220.550910381 -96.746618142
v -142.500000000 225.945839239 -92.462415404
v -139.500000000 224.356084424 -95.070589921
v -136.500000000 221.744140986 -96.581538285
v -144.000000000 226.198492081 -91.244430700
v -141.000000000 225.151163701 -94.133438497
v -138.000000000 222.876830746 -96.144562857
v -142.500000000 225.748192387 -93.050681366
v -139.500000000 223.906647101 -95.487606815
v -136.500000000 221.157241121 -96.730981353
v -144.000000000 226.120861855 -91.863905202
v -141.000000000 224.791085599 -94.634276638
v -138.000000000 222.327810994 -96.408956834
v -142.500000000 225.492955311 -93.616344831
v -139.500000000 223.417921659 -95.857801951
v -136.500000000 220.558377970 -96.821245450
v -144.000000000 225.981937648 -92.472571921
v -141.000000000 224.382929431 -95.096773801
v -138.000000000 221.755194305 -96.617372265
v -142.500000000 225.182664673 -94.153783982
v -139.500000000 222.894765270 -96.177496166
v -144.000000000 225.783100152 -93.064381654
v -141.000000000 223.930751636 -95.516333481
v -138.000000000 221.164671602 -96.767737821
v -142.500000000 224.820404280 -94.657657506
v -139.500000000 222.342377299 -96.443512192
v -144.000000000 225.526325504 -93.633452731
v -141.000000000 223.439046161 -95.888785905
v -138.000000000 220.562111764 -96.858559104
v -142.500000000 224.409774438 -95.122957682
v -139.500000000 221.766247624 -96.653206245
v -144.000000000 225.214165645 -94.174129467
v -141.000000000 222.912699794 -96.210429475
v -142.500000000 223.954856172 -95.545060148
v -139.500000000 221.172102082 -96.804494290
v -144.000000000 224.849722960 -94.681038374
v -141.000000000 222.356943603 -96.478067550
v -142.500000000 223.460170663 -95.919769860
v -139.500000000 220.565845558 -96.895872758
v -144.000000000 224.436619445 -95.149141563
v -141.000000000 221.777300943 -96.689040225
v -142.500000000 222.930634318 -96.243362784
v -144.000000000 223.978960707 -95.573786814
v -141.000000000 221.179532563 -96.841250758
v -142.500000000 222.371509908 -96.512622908
v -144.000000000 223.481295165 -95.950753814
v -141.000000000 220.569579352 -96.933186412
v -142.500000000 221.788354262 -96.724874205
v -144.000000000 222.948568843 -96.276296093
v -142.500000000 221.186963043 -96.878007226
v -144.000000000 222.386076213 -96.547178266
v -142.500000000 220.573313147 -96.970500066
v -144.000000000 221.799407581 -96.760708186
v -144.000000000 221.194393523 -96.914763695
v -144.000000000 220.577046941 -97.007813720
v -133.500000000 216.302582370 -87.215425717
v -133.500000000 216.484622339 -87.037868943
v -133.500000000 216.129619166 -87.401835718
v -133.500000000 216.675286492 -86.869606829
v -133.500000000 215.966162741 -87.596635500
v -133.500000000 216.874100809 -86.711057703
v -133.500000000 215.812619472 -87.799340761
v -133.500000000 217.080571005 -86.562615740
v -133.500000000 215.669371093 -88.009447544
v -133.500000000 217.294183764 -86.424649993
v -133.500000000 215.536773742 -88.226433489
v -133.500000000 217.514408011 -86.297503465
v -133.500000000 215.415157077 -88.449759137
v -133.500000000 217.740696232 -86.181492263
v -133.500000000 215.304823455 -88.678869263
v -133.500000000 217.972485840 -86.076904809
v -133.500000000 215.206047183 -88.913194265
v -133.500000000 218.209200571 -85.984001123
v -133.500000000 215.119073836 -89.152151573
v -133.500000000 218.450251912 -85.903012180
v -133.500000000 215.044119642 -89.395147102
v -133.500000000 218.695040573 -85.834139330
v -133.500000000 214.981370949 -89.641576726
v -133.500000000 218.942957971 -85.777553801
v -133.500000000 214.930983761 -89.890827783
v -133.500000000 219.193387744 -85.733396276
v -133.500000000 214.893083348 -90.142280596
v -133.500000000 219.445707284 -85.701776535
v -133.500000000 214.867763936 -90.395310012
v -133.500000000 219.699289285 -85.682773191
v -133.500000000 214.855088473 -90.649286962
v -133.500000000 219.953503302 -85.676433489
v -133.500000000 214.855088473 -90.903580017
v -133.500000000 220.207717318 -85.682773191
v -133.500000000 214.867763936 -91.157556967
v -133.500000000 220.461299319 -85.701776535
v -133.500000000 214.893083348 -91.410586383
v -133.500000000 220.713618859 -85.733396276
v -133.500000000 214.930983761 -91.662039196
v -133.500000000 220.964048632 -85.777553801
v -133.500000000 214.981370949 -91.911290253
v -133.500000000 221.211966030 -85.834139330
v -133.500000000 215.044119642 -92.157719877
v -133.500000000 221.456754691 -85.903012180
v -133.500000000 215.119073836 -92.400715406
v -133.500000000 221.697806032 -85.984001123
v -133.500000000 215.206047183 -92.639672714
v -133.500000000 221.934520763 -86.076904809
v -133.500000000 215.304823455 -92.873997715
v -133.500000000 222.166310371 -86.181492263
v -133.500000000 215.415157077 -93.103107842
v -133.500000000 222.392598592 -86.297503465
v -133.500000000 215.536773742 -93.326433489
v -133.500000000 222.612822839 -86.424649993
v -133.500000000 215.669371093 -93.543419435
v -133.500000000 222.826435598 -86.562615740
v -133.500000000 215.812619472 -93.753526218
v -133.500000000 223.032905794 -86.711057703
v -133.500000000 215.966162741 -93.956231479
v -133.500000000 223.231720111 -86.869606829
v -133.500000000 216.129619166 -94.151031261
v -133.500000000 223.422384264 -87.037868943
v -133.500000000 216.302582370 -94.337441262
v -133.500000000 223.604424233 -87.215425717
v -133.500000000 216.484622339 -94.514998036
v -133.500000000 223.777387437 -87.401835718
v -133.500000000 216.675286492 -94.683260149
v -133.500000000 223.940843862 -87.596635500
v -133.500000000 216.874100809 -94.841809276
v -133.500000000 224.094387131 -87.799340761
v -133.500000000 224.237635510 -88.009447544
v -133.500000000 217.080571005 -94.990251238
v -133.500000000 224.370232861 -88.226433489
v -133.500000000 217.294183764 -95.128216986
v -133.500000000 224.491849526 -88.449759137
v -133.500000000 217.514408011 -95.255363514
v -133.500000000 224.602183148 -88.678869263
v -133.500000000 217.740696232 -95.371374716
v -133.500000000 224.700959420 -88.913194265
v -133.500000000 217.972485840 -95.475962170
v -133.500000000 224.787932767 -89.152151573
v -133.500000000 218.209200571 -95.568865855
v -133.500000000 224.862886961 -89.395147102
v -133.500000000 218.450251912 -95.649854799
v -133.500000000 218.695040573 -95.718727649
v -133.500000000 224.925635654 -89.641576726
v -133.500000000 224.976022842 -89.890827783
v -133.500000000 218.942957971 -95.775313177
v -133.500000000 225.013923255 -90.142280596
v -133.500000000 219.193387744 -95.819470703
v -133.500000000 219.445707284 -95.851090444
v -133.500000000 225.039242667 -90.395310012
v -133.500000000 219.699289285 -95.870093788
v -133.500000000 225.051918130 -90.649286962
v -133.500000000 225.051918130 -90.903580017
v -133.500000000 219.953503302 -95.876433489
v -133.500000000 225.039242667 -91.157556967
v -133.500000000 220.207717318 -95.870093788
v -133.500000000 225.013923255 -91.410586383
v -133.500000000 220.461299319 -95.851090444
v -133.500000000 224.976022842 -91.662039196
v -133.500000000 220.713618859 -95.819470703
v -133.500000000 224.925635654 -91.911290253
v -133.500000000 220.964048632 -95.775313177
v -133.500000000 221.211966030 -95.718727649
v -133.500000000 224.862886961 -92.157719877
v -133.500000000 224.787932767 -92.400715406
v -133.500000000 221.456754691 -95.649854799
v -133.500000000 224.700959420 -92.639672714
v -133.500000000 221.697806032 -95.568865855
v -133.500000000 224.602183148 -92.873997715
v -133.500000000 221.934520763 -95.475962170
v -133.500000000 222.166310371 -95.371374716
v -133.500000000 224.491849526 -93.103107842
v -133.500000000 224.370232861 -93.326433489
v -133.500000000 222.392598592 -95.255363514
v -133.500000000 224.237635510 -93.543419435
v -133.500000000 222.612822839 -95.128216986
v -133.500000000 224.094387131 -93.753526218
v -133.500000000 222.826435598 -94.990251238
v -133.500000000 223.940843862 -93.956231479
v -133.500000000 223.032905794 -94.841809276
v -133.500000000 223.231720111 -94.683260149
v -133.500000000 223.777387437 -94.151031261
v -133.500000000 223.604424233 -94.337441262
v -133.500000000 223.422384264 -94.514998036
v -144.748409625 219.953503302 -85.676433489
v -144.748409625 219.703258162 -85.682576663
v -144.748409625 219.453615886 -85.700991383
v -144.748409625 219.205177882 -85.731633289
v -144.748409625 218.958542659 -85.774428559
v -144.748409625 218.714304384 -85.829274098
v -144.748409625 218.473051448 -85.896037777
v -144.748409625 218.235365049 -85.974558757
v -144.748409625 218.001817796 -86.064647874
v -144.748409625 217.772972325 -86.166088094
v -144.748409625 217.549379944 -86.278635041
v -144.748409625 217.331579306 -86.402017578
v -144.748409625 217.120095113 -86.535938467
v -144.748409625 216.915436849 -86.680075079
v -144.748409625 216.718097552 -86.834080177
v -144.748409625 216.528552632 -86.997582750
v -144.748409625 216.347258717 -87.170188905
v -144.748409625 216.174652562 -87.351482820
v -144.748409625 216.011149989 -87.541027740
v -144.748409625 215.857144891 -87.738367036
v -144.748409625 215.713008279 -87.943025301
v -144.748409625 215.579087390 -88.154509494
v -144.748409625 215.455704853 -88.372310132
v -144.748409625 215.343157907 -88.595902513
v -144.748409625 215.241717686 -88.824747984
v -144.748409625 215.151628569 -89.058295237
v -144.748409625 215.073107589 -89.295981635
v -144.748409625 215.006343910 -89.537234572
v -144.748409625 214.951498371 -89.781472847
v -144.748409625 214.908703101 -90.028108070
v -144.748409625 214.878061195 -90.276546074
v -144.748409625 214.859646475 -90.526188350
v -144.748409625 214.853503302 -90.776433489
v -144.748409625 214.859776459 -91.029310638
v -144.748409625 214.878580499 -91.281565694
v -144.748409625 214.909869161 -91.532578093
v -144.748409625 214.953565476 -91.781730329
v -144.748409625 215.009561945 -92.028409474
v -144.748409625 215.077720816 -92.272008680
v -144.748409625 215.157874412 -92.511928679
v -144.748409625 215.249825551 -92.747579253
v -144.748409625 215.353348028 -92.978380686
v -144.748409625 215.468187170 -93.203765194
v -144.748409625 215.594060467 -93.423178316
v -144.748409625 215.730658263 -93.636080282
v -144.748409625 215.877644517 -93.841947341
v -144.748409625 216.034657636 -94.040273046
v -144.748409625 216.201311357 -94.230569505
v -144.748409625 216.377195702 -94.412368576
v -144.748409625 216.561877984 -94.585223022
v -144.748409625 216.754903873 -94.748707611
v -144.748409625 216.955798515 -94.902420161
v -144.748409625 217.164067695 -95.045982529
v -144.748409625 217.379199059 -95.179041542
v -144.748409625 217.600663370 -95.301269869
v -144.748409625 217.827915813 -95.412366818
v -144.748409625 218.060397332 -95.512059086
v -144.748409625 218.297536009 -95.600101422
v -144.748409625 218.538748467 -95.676277238
v -144.748409625 218.783441309 -95.740399135
v -144.748409625 219.031012576 -95.792309371
v -144.748409625 219.280853228 -95.831880243
v -144.748409625 219.532348640 -95.859014404
v -144.748409625 219.784880118 -95.873645102
v -144.748409625 220.037826420 -95.875736345
v -144.748409625 220.290565282 -95.865282988
v -144.748409625 220.542474950 -95.842310748
v -144.748409625 220.792935712 -95.806876137
v -144.748409625 221.041331418 -95.759066326
v -144.748409625 221.287051000 -95.698998932
v -144.748409625 221.529489973 -95.626821723
v -144.748409625 221.768051921 -95.542712259
v -144.748409625 222.002149967 -95.446877455
v -144.748409625 222.231208216 -95.339553071
v -144.748409625 222.454663171 -95.221003132
v -144.748409625 222.671965118 -95.091519277
v -144.748409625 222.882579481 -94.951420044
v -144.748409625 223.085988136 -94.801050087
v -144.748409625 223.281690685 -94.640779325
v -144.748409625 223.469205688 -94.471002034
v -144.748409625 223.648071846 -94.292135876
v -144.748409625 223.817849137 -94.104620873
v -144.748409625 223.978119899 -93.908918324
v -144.748409625 224.128489856 -93.705509669
v -144.748409625 224.268589089 -93.494895306
v -144.748409625 224.398072944 -93.277593359
v -144.748409625 224.516622884 -93.054138404
v -144.748409625 224.623947267 -92.825080155
v -144.748409625 224.719782071 -92.590982109
v -144.748409625 224.803891535 -92.352420161
v -144.748409625 224.876068744 -92.109981188
v -144.748409625 224.936136138 -91.864261606
v -144.748409625 224.983945949 -91.615865900
v -144.748409625 225.019380560 -91.365405138
v -144.748409625 225.042352800 -91.113495469
v -144.748409625 225.052806157 -90.860756608
v -144.748409625 225.050714914 -90.607810306
v -144.748409625 225.036084216 -90.355278827
v -144.748409625 225.008950055 -90.103783416
v -144.748409625 224.969379183 -89.853942764
v -144.748409625 224.917468947 -89.606371497
v -144.748409625 224.853347050 -89.361678655
v -144.748409625 224.777171234 -89.120466196
v -144.748409625 224.689128898 -88.883327520
v -144.748409625 224.589436630 -88.650846001
v -144.748409625 224.478339681 -88.423593558
v -144.748409625 224.356111354 -88.202129247
v -144.748409625 224.223052341 -87.986997883
v -144.748409625 224.079489973 -87.778728703
v -144.748409625 223.925777423 -87.577834061
v -144.748409625 223.762292834 -87.384808172
v -144.748409625 223.589438388 -87.200125890
v -144.748409625 223.407639317 -87.024241545
v -144.748409625 223.217342858 -86.857587824
v -144.748409625 223.019017153 -86.700574705
v -144.748409625 222.813150094 -86.553588451
v -144.748409625 222.600248128 -86.416990655
v -144.748409625 222.380835006 -86.291117358
v -144.748409625 222.155450498 -86.176278216
v -144.748409625 221.924649065 -86.072755739
v -144.748409625 221.688998491 -85.980804600
v -144.748409625 221.449078492 -85.900651004
v -144.748409625 221.205479286 -85.832492133
v -144.748409625 220.958800142 -85.776495663
v -144.748409625 220.709647905 -85.732799349
v -144.748409625 220.458635506 -85.701510686
v -144.748409625 220.206380450 -85.682706647
v -145.440357263 219.434894927 -91.154859827
v -145.373179660 218.879440428 -91.478632811
v -145.373179660 218.957258848 -91.585254813
v -145.440357263 219.455086285 -91.181083482
v -145.496904088 219.953503302 -90.776433489
v -145.440357263 219.416154049 -91.127740932
v -145.373179660 218.813625178 -91.365816902
v -145.373179660 218.760365368 -91.248785917
v -145.373179660 218.719801431 -91.129526450
v -145.408096473 220.848636882 -91.130808711
v -145.207007480 222.335973879 -91.719631865
v -145.207007480 222.473104921 -91.242691903
v -145.373179660 221.236739423 -90.776433489
v -145.295387937 221.313588670 -92.136518858
v -145.440357263 220.407464279 -90.322472512
v -145.373179660 220.860888265 -91.683818453
v -145.295387937 221.165850973 -92.269710940
v -145.295387937 221.006034544 -92.386353488
v -145.295387937 220.836934026 -92.485004405
v -145.440357263 220.407464279 -91.230394467
v -145.440357263 219.499542324 -91.230394467
v -145.373179660 219.953503301 -92.059669611
v -145.072802205 216.541948638 -90.776433489
v -145.207007480 217.433901682 -90.310175075
v -145.322462098 218.243050674 -90.776433489
v -145.207007480 217.571032724 -89.833235114
v -145.207007480 217.808803076 -89.374274379
v -145.207007480 218.141627308 -88.964557496
v -145.207007480 218.551344191 -88.631733264
v -145.207007480 219.010304926 -88.393962912
v -145.207007480 219.487244888 -88.256831870
v -145.207007480 219.953503301 -88.214053887
v -145.207007480 220.419761715 -88.256831870
v -145.207007480 220.896701677 -88.393962912
v -145.207007480 221.355662412 -88.631733264
v -145.207007480 221.765379295 -88.964557496
v -145.207007480 222.098203527 -89.374274379
v -145.207007480 222.335973879 -89.833235114
v -145.207007480 222.473104921 -90.310175075
v -145.207007480 222.515882904 -90.776433489
v -145.207007480 222.098203527 -92.178592600
v -145.207007480 221.765379295 -92.588309483
v -145.207007480 221.355662412 -92.921133715
v -145.207007480 220.896701677 -93.158904067
v -145.207007480 220.419761715 -93.296035109
v -145.207007480 219.953503301 -93.338813092
v -145.207007480 219.487244888 -93.296035109
v -145.207007480 219.010304926 -93.158904067
v -145.207007480 218.551344191 -92.921133715
v -145.207007480 218.141627308 -92.588309483
v -145.207007480 217.808803076 -92.178592600
v -145.207007480 217.571032724 -91.719631865
v -145.207007480 217.433901682 -91.242691903
v -145.373179660 218.719801431 -90.423340529
v -145.373179660 218.760365368 -90.304081062
v -145.373179660 218.813625178 -90.187050077
v -145.373179660 218.879440428 -90.074234168
v -145.373179660 218.957258848 -89.967612166
v -145.373179660 219.046118338 -89.869048526
v -145.373179660 219.144681978 -89.780189036
v -145.373179660 219.251303980 -89.702370616
v -145.373179660 219.364119889 -89.636555366
v -145.373179660 219.481150874 -89.583295556
v -145.373179660 219.600410341 -89.542731619
v -145.373179660 219.720001740 -89.514620522
v -145.373179660 219.838198841 -89.498388175
v -145.373179660 219.953503301 -89.493197368
v -145.373179660 219.838198841 -92.054478804
v -145.373179660 219.720001740 -92.038246457
v -145.373179660 219.600410341 -92.010135360
v -145.373179660 219.481150874 -91.969571423
v -145.373179660 219.364119889 -91.916311613
v -145.373179660 219.251303980 -91.850496363
v -145.373179660 219.144681978 -91.772677943
v -145.373179660 219.046118338 -91.683818453
v -145.440357263 219.416154049 -90.425126047
v -145.440357263 219.434894927 -90.398007152
v -145.440357263 219.455086285 -90.371783497
v -145.440357263 219.476661555 -90.346569456
v -145.440357263 219.499542324 -90.322472512
v -145.295387937 220.836934026 -89.067862574
v -145.295387937 221.006034544 -89.166513491
v -145.295387937 221.165850973 -89.283156039
v -145.295387937 221.313588670 -89.416348121
v -145.419145284 220.372045369 -90.029916993
v -145.440357263 219.476661555 -91.206297522
f 1 2 3
f 4 2 5
f 6 2 4
f 7 2 6
f 8 2 7
f 9 2 8
f 10 2 9
f 11 2 10
f 12 2 11
f 13 2 12
f 3 2 13
f 14 15 16
f 17 15 14
f 18 15 17
f 19 15 18
f 16 15 20
f 19 21 15
f 22 21 19
f 23 21 22
f 24 21 23
f 25 21 24
f 26 27 25
f 28 27 26
f 29 27 28
f 30 27 29
f 31 27 30
f 25 27 21
f 31 32 27
f 33 32 31
f 34 32 33
f 35 32 34
f 36 32 35
f 36 37 32
f 38 37 36
f 39 37 38
f 40 37 39
f 41 37 40
f 41 42 37
f 43 42 41
f 44 42 43
f 45 42 44
f 46 42 45
f 47 48 49
f 50 48 47
f 46 48 42
f 49 48 46
f 51 52 50
f 53 52 51
f 54 52 53
f 55 52 54
f 50 52 48
f 55 56 52
f 57 56 55
f 58 56 57
f 59 56 58
f 60 56 59
f 61 62 60
f 63 62 61
f 64 62 63
f 65 62 64
f 60 62 56
f 66 67 65
f 68 67 66
f 69 67 68
f 70 67 69
f 65 67 62
f 71 72 70
f 73 72 71
f 74 72 73
f 75 72 74
f 70 72 67
f 76 77 75
f 78 77 76
f 79 77 78
f 80 77 79
f 75 77 72
f 81 82 80
f 83 82 81
f 84 82 83
f 85 82 84
f 80 82 77
f 86 87 88
f 89 87 86
f 90 87 85
f 88 87 90
f 85 87 82
f 91 92 89
f 93 92 91
f 94 92 93
f 95 92 94
f 89 92 87
f 96 97 95
f 98 97 96
f 99 97 98
f 100 97 99
f 95 97 92
f 100 101 97
f 102 101 100
f 103 101 102
f 104 101 103
f 105 101 104
f 105 106 101
f 107 106 105
f 108 106 107
f 109 106 108
f 110 106 109
f 111 112 110
f 113 112 111
f 114 112 113
f 5 112 114
f 2 112 5
f 110 112 106
f 2 115 112
f 2 116 115
f 117 118 118
f 118 118 2
f 2 118 116
f 116 118 117
f 119 120 1
f 121 120 119
f 122 120 121
f 123 120 122
f 124 120 123
f 1 120 2
f 125 126 124
f 127 126 125
f 128 126 127
f 129 126 128
f 130 126 129
f 131 126 130
f 132 126 131
f 124 126 120
f 120 133 2
f 126 133 120
f 2 133 118
f 133 134 118
f 126 134 133
f 126 135 134
f 134 135 118
f 136 137 138
f 139 137 136
f 140 137 139
f 141 137 140
f 141 142 137
f 137 142 143
f 144 142 141
f 144 145 142
f 142 145 143
f 145 146 143
f 147 146 144
f 144 146 145
f 147 148 146
f 146 148 143
f 143 149 137
f 135 149 118
f 148 150 143
f 151 150 147
f 147 150 148
f 150 152 143
f 151 152 150
f 143 153 20
f 151 153 152
f 152 153 143
f 154 153 151
f 155 153 154
f 156 153 155
f 157 153 156
f 158 153 157
f 159 153 158
f 160 153 159
f 161 153 160
f 162 153 161
f 16 153 162
f 20 153 16
f 118 163 117
f 149 163 118
f 163 164 165
f 163 166 164
f 163 167 166
f 143 168 149
f 163 168 167
f 149 168 163
f 143 169 168
f 143 170 169
f 143 171 170
f 20 172 143
f 143 172 171
f 87 173 82
f 87 174 173
f 92 174 87
f 92 175 174
f 92 176 175
f 97 176 92
f 97 177 176
f 101 178 97
f 97 178 177
f 101 179 178
f 101 180 179
f 106 180 101
f 106 181 180
f 106 182 181
f 112 182 106
f 112 183 182
f 115 183 112
f 117 183 116
f 116 183 115
f 183 184 182
f 183 185 184
f 117 186 183
f 183 186 185
f 132 187 126
f 135 187 149
f 188 187 132
f 189 187 188
f 126 187 135
f 190 187 189
f 191 187 190
f 137 187 138
f 192 187 191
f 193 187 192
f 138 187 193
f 149 187 137
f 163 194 117
f 117 194 195
f 165 194 163
f 165 196 194
f 194 196 195
f 196 197 195
f 165 197 196
f 165 198 197
f 197 198 195
f 165 199 198
f 198 199 195
f 165 200 199
f 199 200 195
f 165 201 200
f 164 202 165
f 166 202 164
f 165 202 201
f 20 203 172
f 15 203 20
f 21 204 15
f 15 204 203
f 21 205 204
f 27 206 21
f 21 206 205
f 37 207 32
f 27 207 206
f 32 207 27
f 203 208 172
f 204 208 203
f 205 208 204
f 206 208 205
f 207 209 206
f 206 209 208
f 52 210 48
f 48 210 42
f 42 210 37
f 37 210 207
f 67 211 62
f 62 211 56
f 67 212 211
f 72 212 67
f 72 213 212
f 72 214 213
f 77 214 72
f 77 215 214
f 82 215 77
f 173 215 82
f 178 216 177
f 180 216 179
f 181 216 180
f 179 216 178
f 216 217 195
f 181 217 216
f 182 217 181
f 217 218 195
f 182 218 217
f 182 219 218
f 218 219 195
f 184 219 182
f 219 220 195
f 184 220 219
f 220 221 195
f 184 221 220
f 185 221 184
f 221 222 195
f 185 222 221
f 195 223 117
f 222 223 195
f 185 223 222
f 117 223 186
f 186 223 185
f 172 224 171
f 170 224 169
f 168 224 167
f 169 224 168
f 167 224 166
f 171 224 170
f 200 224 195
f 201 224 200
f 166 224 202
f 202 224 201
f 208 224 172
f 209 224 208
f 211 225 56
f 56 225 52
f 52 225 210
f 212 226 211
f 214 226 213
f 211 226 225
f 213 226 212
f 226 227 225
f 214 228 226
f 215 228 214
f 173 228 215
f 226 228 227
f 176 229 175
f 174 229 173
f 195 229 216
f 173 229 228
f 177 229 176
f 216 229 177
f 228 229 195
f 175 229 174
f 207 230 209
f 209 230 224
f 225 230 210
f 195 230 228
f 227 230 225
f 228 230 227
f 210 230 207
f 224 230 195
f 231 232 233
f 86 88 234
f 231 235 232
f 88 90 234
f 236 237 231
f 236 233 238
f 236 238 239
f 236 231 233
f 240 239 241
f 240 241 242
f 240 236 239
f 243 240 242
f 243 242 244
f 243 244 245
f 246 247 237
f 246 237 236
f 248 245 249
f 248 249 250
f 248 243 245
f 251 246 236
f 251 236 240
f 252 248 250
f 252 250 253
f 252 253 254
f 255 240 243
f 255 243 248
f 255 251 240
f 256 247 246
f 256 257 247
f 258 252 254
f 258 254 259
f 258 259 260
f 261 248 252
f 261 255 248
f 262 246 251
f 262 256 246
f 263 258 260
f 263 260 264
f 263 264 265
f 266 261 252
f 267 262 251
f 267 251 255
f 268 265 269
f 268 269 270
f 268 263 265
f 271 272 257
f 271 256 262
f 271 257 256
f 273 266 252
f 273 252 258
f 273 258 263
f 274 267 255
f 274 255 261
f 275 270 276
f 275 276 277
f 275 268 270
f 278 271 262
f 279 273 263
f 280 261 266
f 280 274 261
f 281 275 277
f 281 277 282
f 281 282 283
f 284 262 267
f 284 278 262
f 285 263 268
f 285 279 263
f 286 287 272
f 286 272 271
f 288 273 279
f 288 266 273
f 288 280 266
f 289 281 283
f 289 283 290
f 289 290 291
f 292 267 274
f 292 284 267
f 293 285 268
f 293 268 275
f 294 278 284
f 294 271 278
f 294 286 271
f 295 288 279
f 296 289 291
f 296 291 297
f 296 297 298
f 299 292 274
f 299 274 280
f 300 293 275
f 300 281 289
f 300 275 281
f 301 294 284
f 301 284 292
f 302 279 285
f 302 295 279
f 303 296 298
f 303 298 304
f 303 304 305
f 306 234 287
f 306 287 286
f 307 299 280
f 307 280 288
f 307 288 295
f 308 300 289
f 309 301 292
f 310 302 285
f 310 285 293
f 311 305 312
f 311 312 313
f 311 303 305
f 314 306 286
f 314 286 294
f 315 307 295
f 316 289 296
f 316 296 303
f 316 308 289
f 317 299 307
f 317 309 292
f 317 292 299
f 318 310 293
f 318 293 300
f 318 300 308
f 319 313 320
f 319 320 321
f 319 311 313
f 322 294 301
f 322 314 294
f 323 295 302
f 323 315 295
f 324 316 303
f 325 89 86
f 325 91 89
f 325 86 234
f 325 234 306
f 326 317 307
f 327 318 308
f 328 319 321
f 328 321 329
f 328 329 330
f 331 322 301
f 331 301 309
f 331 309 317
f 332 302 310
f 332 323 302
f 333 311 319
f 333 324 303
f 333 303 311
f 334 306 314
f 334 93 91
f 334 94 93
f 334 325 306
f 334 91 325
f 335 326 307
f 335 307 315
f 336 308 316
f 336 316 324
f 336 327 308
f 337 328 330
f 337 330 338
f 337 338 339
f 340 331 317
f 341 332 310
f 341 318 327
f 341 310 318
f 342 333 319
f 343 95 94
f 343 96 95
f 343 314 322
f 343 94 334
f 343 334 314
f 344 315 323
f 344 335 315
f 345 336 324
f 346 337 339
f 346 339 347
f 346 347 348
f 349 340 317
f 349 317 326
f 350 341 327
f 351 342 319
f 351 319 328
f 352 98 96
f 352 99 98
f 352 343 322
f 352 322 331
f 352 96 343
f 353 323 332
f 353 344 323
f 354 345 324
f 354 324 333
f 355 346 348
f 355 348 356
f 355 356 357
f 358 326 335
f 358 349 326
f 358 335 344
f 359 350 327
f 359 336 345
f 359 327 336
f 360 328 337
f 360 337 346
f 360 351 328
f 361 100 99
f 361 102 100
f 361 99 352
f 361 331 340
f 361 352 331
f 362 353 332
f 362 332 341
f 363 333 342
f 363 354 333
f 364 357 365
f 364 365 366
f 364 355 357
f 367 358 344
f 368 359 345
f 369 360 346
f 370 361 340
f 370 103 102
f 370 340 349
f 370 104 103
f 370 102 361
f 371 341 350
f 371 362 341
f 371 350 359
f 372 363 342
f 372 342 351
f 373 364 366
f 373 366 374
f 373 374 375
f 376 344 353
f 376 367 344
f 377 368 345
f 377 345 354
f 377 354 363
f 378 346 355
f 378 369 346
f 379 105 104
f 379 107 105
f 379 358 367
f 379 370 349
f 379 349 358
f 379 104 370
f 380 371 359
f 381 372 351
f 381 351 360
f 382 373 375
f 382 375 383
f 382 383 384
f 385 376 353
f 385 353 362
f 386 377 363
f 387 355 364
f 387 364 373
f 387 378 355
f 388 108 107
f 388 109 108
f 388 107 379
f 388 379 367
f 389 380 359
f 389 359 368
f 390 369 378
f 390 360 369
f 390 381 360
f 391 382 384
f 391 384 392
f 391 392 393
f 394 362 371
f 394 385 362
f 394 371 380
f 395 386 363
f 395 363 372
f 396 387 373
f 397 367 376
f 397 110 109
f 397 111 110
f 397 388 367
f 397 109 388
f 398 389 368
f 398 368 377
f 399 390 378
f 400 391 393
f 400 393 401
f 400 401 402
f 403 394 380
f 404 372 381
f 404 395 372
f 405 373 382
f 405 396 373
f 406 113 111
f 406 114 113
f 406 111 397
f 406 376 385
f 406 397 376
f 407 377 386
f 407 398 377
f 408 387 396
f 408 399 378
f 408 378 387
f 409 400 402
f 409 402 410
f 409 410 411
f 412 403 380
f 412 380 389
f 413 404 381
f 413 381 390
f 414 382 391
f 414 405 382
f 415 114 406
f 415 5 114
f 415 4 5
f 415 385 394
f 415 406 385
f 416 386 395
f 416 407 386
f 417 408 396
f 418 411 419
f 418 419 420
f 418 409 411
f 421 389 398
f 421 412 389
f 421 398 407
f 422 390 399
f 422 413 390
f 423 414 391
f 423 391 400
f 424 415 394
f 424 4 415
f 424 6 4
f 424 7 6
f 424 394 403
f 424 403 412
f 425 416 395
f 425 395 404
f 425 404 413
f 426 417 396
f 426 396 405
f 427 418 420
f 427 420 428
f 427 428 429
f 430 421 407
f 431 399 408
f 431 422 399
f 431 408 417
f 432 423 400
f 432 400 409
f 433 7 424
f 433 424 412
f 433 8 7
f 433 9 8
f 434 425 413
f 434 413 422
f 435 426 405
f 435 405 414
f 436 427 429
f 436 429 437
f 436 437 438
f 439 416 425
f 439 407 416
f 439 430 407
f 440 431 417
f 441 409 418
f 441 432 409
f 442 10 9
f 442 11 10
f 442 9 433
f 442 412 421
f 442 433 412
f 443 434 422
f 444 435 414
f 444 414 423
f 445 436 438
f 445 438 446
f 445 446 447
f 448 439 425
f 449 440 417
f 449 417 426
f 450 418 427
f 450 441 418
f 451 12 11
f 451 13 12
f 451 11 442
f 451 442 421
f 451 421 430
f 452 422 431
f 452 431 440
f 452 443 422
f 453 444 423
f 453 423 432
f 454 455 456
f 454 445 447
f 454 447 455
f 457 425 434
f 457 448 425
f 458 426 435
f 458 449 426
f 459 427 436
f 459 450 427
f 459 436 445
f 460 13 451
f 460 3 13
f 460 451 430
f 460 430 439
f 460 1 3
f 460 119 1
f 461 452 440
f 462 432 441
f 462 453 432
f 462 441 450
f 463 456 464
f 463 464 465
f 463 454 456
f 466 434 443
f 466 457 434
f 467 435 444
f 467 458 435
f 467 444 453
f 468 459 445
f 469 460 439
f 469 439 448
f 469 119 460
f 469 448 457
f 469 121 119
f 469 122 121
f 470 440 449
f 470 461 440
f 471 462 450
f 472 465 473
f 472 473 474
f 472 463 465
f 475 443 452
f 475 466 443
f 476 467 453
f 477 468 445
f 477 445 454
f 478 469 457
f 478 122 469
f 478 457 466
f 478 123 122
f 478 124 123
f 479 470 449
f 479 449 458
f 479 458 467
f 480 471 450
f 480 450 459
f 481 474 482
f 481 482 483
f 481 472 474
f 484 475 452
f 484 452 461
f 485 462 471
f 485 476 453
f 485 453 462
f 486 454 463
f 486 477 454
f 487 124 478
f 487 125 124
f 487 127 125
f 487 478 466
f 488 479 467
f 489 480 459
f 489 459 468
f 490 483 491
f 490 491 492
f 490 481 483
f 493 461 470
f 493 484 461
f 494 485 471
f 495 463 472
f 495 486 463
f 496 475 484
f 496 466 475
f 496 127 487
f 496 487 466
f 496 128 127
f 496 129 128
f 497 488 467
f 497 467 476
f 498 468 477
f 498 489 468
f 499 492 500
f 499 500 501
f 499 490 492
f 502 470 479
f 502 493 470
f 502 479 488
f 503 480 489
f 503 471 480
f 503 494 471
f 504 472 481
f 504 495 472
f 505 129 496
f 505 130 129
f 505 131 130
f 505 496 484
f 506 476 485
f 506 497 476
f 506 485 494
f 507 477 486
f 507 498 477
f 508 501 509
f 508 509 510
f 508 499 501
f 511 502 488
f 512 503 489
f 512 489 498
f 513 504 481
f 513 481 490
f 514 484 493
f 514 131 505
f 514 132 131
f 514 188 132
f 514 505 484
f 515 506 494
f 516 507 486
f 516 486 495
f 517 510 518
f 517 518 519
f 517 508 510
f 520 511 488
f 520 488 497
f 520 497 506
f 521 512 498
f 522 490 499
f 522 513 490
f 523 514 493
f 523 188 514
f 523 493 502
f 523 189 188
f 523 190 189
f 524 494 503
f 524 515 494
f 525 495 504
f 525 516 495
f 526 519 527
f 526 527 528
f 526 517 519
f 529 520 506
f 529 506 515
f 530 498 507
f 530 521 498
f 530 507 516
f 531 522 499
f 531 499 508
f 531 508 517
f 532 523 502
f 532 502 511
f 532 190 523
f 532 191 190
f 532 192 191
f 533 524 503
f 533 503 512
f 533 512 521
f 534 504 513
f 534 525 504
f 535 528 536
f 535 536 537
f 535 526 528
f 538 529 515
f 539 530 516
f 540 517 526
f 540 531 517
f 541 511 520
f 541 532 511
f 541 192 532
f 541 193 192
f 541 138 193
f 542 533 521
f 543 534 513
f 543 513 522
f 544 537 545
f 544 545 546
f 544 535 537
f 547 524 533
f 547 515 524
f 547 538 515
f 548 516 525
f 548 525 534
f 548 539 516
f 549 540 526
f 550 520 529
f 550 138 541
f 550 541 520
f 550 529 538
f 550 136 138
f 550 139 136
f 551 530 539
f 551 521 530
f 551 542 521
f 552 522 531
f 552 543 522
f 553 544 546
f 553 546 554
f 553 554 555
f 556 547 533
f 556 533 542
f 557 548 534
f 558 549 526
f 558 526 535
f 559 139 550
f 559 550 538
f 559 140 139
f 559 141 140
f 560 551 539
f 561 552 531
f 561 531 540
f 562 555 563
f 562 563 564
f 562 553 555
f 565 556 542
f 566 557 534
f 566 534 543
f 567 535 544
f 567 558 535
f 568 559 538
f 568 141 559
f 568 538 547
f 568 144 141
f 568 147 144
f 569 539 548
f 569 560 539
f 570 540 549
f 570 549 558
f 570 561 540
f 571 562 564
f 571 564 572
f 571 572 573
f 574 542 551
f 574 565 542
f 575 552 561
f 575 543 552
f 575 566 543
f 576 567 544
f 576 544 553
f 577 154 151
f 577 547 556
f 577 568 547
f 577 147 568
f 577 151 147
f 578 548 557
f 578 569 548
f 579 570 558
f 580 571 573
f 580 573 581
f 580 581 582
f 583 574 551
f 583 551 560
f 584 575 561
f 584 561 570
f 585 553 562
f 585 576 553
f 586 155 154
f 586 156 155
f 586 556 565
f 586 154 577
f 586 577 556
f 587 578 557
f 587 557 566
f 588 558 567
f 588 579 558
f 589 582 590
f 589 590 591
f 589 580 582
f 592 560 569
f 592 569 578
f 592 583 560
f 593 584 570
f 594 562 571
f 594 585 562
f 595 157 156
f 595 158 157
f 595 565 574
f 595 586 565
f 595 156 586
f 596 566 575
f 596 587 566
f 597 567 576
f 597 588 567
f 597 576 585
f 598 591 599
f 598 599 600
f 598 589 591
f 601 592 578
f 602 593 570
f 602 570 579
f 603 594 571
f 603 571 580
f 604 159 158
f 604 160 159
f 604 595 574
f 604 574 583
f 604 158 595
f 605 575 584
f 605 596 575
f 606 597 585
f 607 598 600
f 607 600 608
f 607 608 609
f 610 601 578
f 610 578 587
f 611 579 588
f 611 602 579
f 612 580 589
f 612 603 580
f 613 161 160
f 613 162 161
f 613 583 592
f 613 604 583
f 613 160 604
f 614 605 584
f 614 584 593
f 615 606 585
f 615 585 594
f 616 607 609
f 616 609 617
f 616 617 618
f 619 596 605
f 619 610 587
f 619 587 596
f 620 588 597
f 620 611 588
f 621 589 598
f 621 612 589
f 622 16 162
f 622 14 16
f 622 162 613
f 622 592 601
f 622 613 592
f 623 593 602
f 623 602 611
f 623 614 593
f 624 615 594
f 624 594 603
f 624 603 612
f 625 618 626
f 625 626 627
f 625 616 618
f 628 605 614
f 628 619 605
f 629 620 597
f 629 597 606
f 630 598 607
f 630 621 598
f 631 17 14
f 631 18 17
f 631 601 610
f 631 14 622
f 631 622 601
f 632 623 611
f 633 624 612
f 634 625 627
f 634 627 635
f 634 635 636
f 637 614 623
f 637 628 614
f 638 606 615
f 638 629 606
f 639 630 607
f 639 607 616
f 640 19 18
f 640 22 19
f 640 610 619
f 640 631 610
f 640 18 631
f 641 632 611
f 641 611 620
f 642 633 612
f 642 612 621
f 642 621 630
f 643 634 636
f 643 636 644
f 643 644 645
f 646 637 623
f 647 638 615
f 647 615 624
f 648 639 616
f 648 616 625
f 649 23 22
f 649 24 23
f 649 640 619
f 649 22 640
f 649 628 637
f 649 619 628
f 650 629 638
f 650 641 620
f 650 620 629
f 651 642 630
f 651 630 639
f 652 643 645
f 652 645 653
f 652 653 654
f 655 623 632
f 655 646 623
f 656 647 624
f 656 624 633
f 657 648 625
f 657 625 634
f 658 24 649
f 658 25 24
f 658 26 25
f 658 649 637
f 658 637 646
f 659 638 647
f 659 650 638
f 660 639 648
f 660 651 639
f 661 652 654
f 661 654 662
f 661 662 663
f 664 632 641
f 664 641 650
f 664 655 632
f 665 633 642
f 665 656 633
f 666 634 643
f 666 657 634
f 667 28 26
f 667 29 28
f 667 26 658
f 667 658 646
f 668 659 647
f 669 660 648
f 670 661 663
f 670 663 671
f 670 671 672
f 673 664 650
f 674 642 651
f 674 651 660
f 674 665 642
f 675 666 643
f 675 643 652
f 676 30 29
f 676 31 30
f 676 29 667
f 676 646 655
f 676 667 646
f 677 668 647
f 677 647 656
f 678 648 657
f 678 669 648
f 679 672 680
f 679 680 681
f 679 670 672
f 682 650 659
f 682 673 650
f 683 674 660
f 684 652 661
f 684 675 652
f 685 676 655
f 685 33 31
f 685 34 33
f 685 655 664
f 685 31 676
f 686 677 656
f 686 656 665
f 686 665 674
f 687 657 666
f 687 678 657
f 688 681 689
f 688 689 690
f 688 679 681
f 691 659 668
f 691 682 659
f 692 683 660
f 692 660 669
f 693 661 670
f 693 684 661
f 694 34 685
f 694 35 34
f 694 685 664
f 694 36 35
f 694 664 673
f 695 686 674
f 696 687 666
f 696 666 675
f 697 690 698
f 697 698 699
f 697 688 690
f 700 691 668
f 700 668 677
f 700 677 686
f 701 692 669
f 701 669 678
f 702 670 679
f 702 693 670
f 702 679 688
f 703 38 36
f 703 39 38
f 703 673 682
f 703 694 673
f 703 36 694
f 704 695 674
f 704 674 683
f 705 696 675
f 705 675 684
f 705 684 693
f 706 697 699
f 706 699 707
f 706 707 708
f 709 700 686
f 710 678 687
f 710 701 678
f 711 688 697
f 711 702 688
f 712 40 39
f 712 41 40
f 712 39 703
f 712 682 691
f 712 703 682
f 713 692 701
f 713 704 683
f 713 683 692
f 714 705 693
f 715 706 708
f 715 708 716
f 715 716 717
f 718 686 695
f 718 709 686
f 719 687 696
f 719 710 687
f 720 711 697
f 721 41 712
f 721 43 41
f 721 44 43
f 721 691 700
f 721 712 691
f 722 701 710
f 722 713 701
f 723 693 702
f 723 714 693
f 724 715 717
f 724 717 725
f 724 725 726
f 727 695 704
f 727 718 695
f 728 719 696
f 728 696 705
f 729 697 706
f 729 706 715
f 729 720 697
f 730 45 44
f 730 46 45
f 730 700 709
f 730 721 700
f 730 44 721
f 731 722 710
f 732 711 720
f 732 702 711
f 732 723 702
f 733 724 726
f 733 726 734
f 733 734 735
f 736 727 704
f 736 704 713
f 737 705 714
f 737 728 705
f 738 729 715
f 738 715 724
f 739 46 730
f 739 730 709
f 739 49 46
f 739 47 49
f 739 718 727
f 739 709 718
f 740 710 719
f 740 731 710
f 741 732 720
f 742 235 231
f 742 733 735
f 742 735 743
f 742 743 235
f 742 231 237
f 744 713 722
f 744 736 713
f 745 737 714
f 745 714 723
f 746 738 724
f 747 47 739
f 747 50 47
f 747 51 50
f 747 739 727
f 748 740 719
f 748 728 737
f 748 719 728
f 749 729 738
f 749 720 729
f 749 741 720
f 750 731 740
f 750 722 731
f 750 744 722
f 751 745 723
f 751 723 732
f 752 746 724
f 752 724 733
f 753 53 51
f 753 54 53
f 753 51 747
f 753 727 736
f 753 747 727
f 754 737 745
f 754 748 737
f 755 749 738
f 756 750 740
f 757 732 741
f 757 751 732
f 758 742 237
f 758 733 742
f 758 752 733
f 759 55 54
f 759 736 744
f 759 57 55
f 759 753 736
f 759 54 753
f 760 754 745
f 761 738 746
f 761 755 738
f 762 740 748
f 762 756 740
f 763 741 749
f 763 757 741
f 764 58 57
f 764 59 58
f 764 57 759
f 764 744 750
f 764 759 744
f 765 760 745
f 765 745 751
f 765 751 757
f 766 746 752
f 766 761 746
f 767 748 754
f 767 762 748
f 768 763 749
f 768 749 755
f 769 59 764
f 769 764 750
f 769 60 59
f 769 61 60
f 769 750 756
f 770 765 757
f 771 752 758
f 771 758 237
f 771 247 257
f 771 237 247
f 771 766 752
f 772 754 760
f 772 767 754
f 773 755 761
f 773 768 755
f 774 769 756
f 774 61 769
f 774 63 61
f 774 64 63
f 774 756 762
f 775 770 757
f 775 757 763
f 776 760 765
f 776 772 760
f 777 761 766
f 777 773 761
f 778 64 774
f 778 762 767
f 778 774 762
f 778 65 64
f 778 66 65
f 779 775 763
f 779 763 768
f 779 768 773
f 780 765 770
f 780 776 765
f 781 771 257
f 781 766 771
f 781 777 766
f 782 778 767
f 782 767 772
f 782 66 778
f 782 68 66
f 782 69 68
f 782 772 776
f 783 773 777
f 783 779 773
f 784 770 775
f 784 780 770
f 785 782 776
f 785 776 780
f 785 70 69
f 785 71 70
f 785 69 782
f 786 783 777
f 787 775 779
f 787 784 775
f 788 73 71
f 788 74 73
f 788 71 785
f 788 785 780
f 789 781 257
f 789 257 272
f 789 777 781
f 789 786 777
f 790 779 783
f 790 787 779
f 791 75 74
f 791 76 75
f 791 780 784
f 791 74 788
f 791 784 787
f 791 788 780
f 792 790 783
f 792 783 786
f 793 791 787
f 793 78 76
f 793 79 78
f 793 787 790
f 793 76 791
f 794 792 786
f 794 272 287
f 794 789 272
f 794 786 789
f 795 793 790
f 795 79 793
f 795 80 79
f 795 81 80
f 796 795 790
f 796 83 81
f 796 84 83
f 796 81 795
f 796 790 792
f 796 792 794
f 797 234 90
f 797 796 794
f 797 84 796
f 797 85 84
f 797 90 85
f 797 287 234
f 797 794 287
f 798 393 392
f 799 401 393
f 799 393 798
f 800 392 384
f 800 798 392
f 801 402 401
f 801 401 799
f 802 384 383
f 802 800 384
f 803 402 801
f 803 410 402
f 804 383 375
f 804 802 383
f 805 411 410
f 805 410 803
f 806 804 375
f 806 375 374
f 807 411 805
f 807 419 411
f 808 806 374
f 808 374 366
f 809 420 419
f 809 419 807
f 810 808 366
f 810 366 365
f 811 420 809
f 811 428 420
f 812 810 365
f 812 365 357
f 813 429 428
f 813 428 811
f 814 812 357
f 814 357 356
f 815 437 429
f 815 429 813
f 816 356 348
f 816 814 356
f 817 437 815
f 817 438 437
f 818 348 347
f 818 816 348
f 819 446 438
f 819 438 817
f 820 818 347
f 820 347 339
f 821 446 819
f 821 447 446
f 822 820 339
f 822 339 338
f 823 447 821
f 823 455 447
f 824 338 330
f 824 822 338
f 825 456 455
f 825 455 823
f 826 824 330
f 826 330 329
f 827 464 456
f 827 456 825
f 828 329 321
f 828 826 329
f 829 465 464
f 829 464 827
f 830 321 320
f 830 828 321
f 831 465 829
f 831 473 465
f 832 320 313
f 832 830 320
f 833 474 473
f 833 473 831
f 834 832 313
f 835 482 474
f 835 474 833
f 836 834 313
f 836 312 305
f 836 313 312
f 837 482 835
f 837 483 482
f 838 836 305
f 838 305 304
f 839 483 837
f 839 491 483
f 840 304 298
f 840 838 304
f 841 491 839
f 841 492 491
f 842 840 298
f 842 298 297
f 843 492 841
f 843 500 492
f 844 297 291
f 844 842 297
f 845 500 843
f 845 501 500
f 846 844 291
f 847 501 845
f 847 509 501
f 848 291 290
f 848 846 291
f 283 848 290
f 849 509 847
f 849 510 509
f 850 848 283
f 282 850 283
f 851 510 849
f 851 518 510
f 852 850 282
f 853 518 851
f 853 519 518
f 854 282 277
f 854 852 282
f 855 527 519
f 855 519 853
f 276 854 277
f 856 854 276
f 857 527 855
f 857 528 527
f 858 276 270
f 858 856 276
f 859 536 528
f 859 528 857
f 269 858 270
f 860 858 269
f 861 536 859
f 537 536 861
f 265 860 269
f 265 862 860
f 863 537 861
f 545 537 863
f 264 862 265
f 264 864 862
f 865 545 863
f 546 545 865
f 260 864 264
f 260 866 864
f 867 546 865
f 554 546 867
f 868 554 867
f 259 866 260
f 259 869 866
f 555 554 868
f 870 555 868
f 254 869 259
f 254 871 869
f 563 555 870
f 872 563 870
f 253 871 254
f 253 873 871
f 564 872 874
f 564 563 872
f 250 873 253
f 250 875 873
f 572 874 876
f 572 564 874
f 249 875 250
f 249 877 875
f 573 876 878
f 573 572 876
f 245 877 249
f 245 879 877
f 581 878 880
f 581 573 878
f 244 879 245
f 244 881 879
f 244 882 881
f 582 880 883
f 582 581 880
f 242 882 244
f 590 883 884
f 590 582 883
f 241 885 882
f 241 882 242
f 591 590 884
f 591 884 886
f 239 887 885
f 239 888 887
f 239 885 241
f 599 591 886
f 599 886 889
f 238 888 239
f 238 890 888
f 600 889 891
f 600 599 889
f 233 890 238
f 608 600 891
f 608 891 892
f 232 890 233
f 232 893 890
f 609 892 894
f 609 608 892
f 235 893 232
f 235 895 893
f 617 609 894
f 617 894 896
f 743 895 235
f 743 897 895
f 618 896 898
f 618 617 896
f 735 897 743
f 735 899 897
f 626 898 900
f 626 618 898
f 734 899 735
f 734 901 899
f 627 626 900
f 726 901 734
f 726 902 901
f 635 627 900
f 635 903 904
f 635 900 903
f 725 902 726
f 725 905 902
f 636 635 904
f 636 904 906
f 717 905 725
f 717 907 905
f 644 906 908
f 644 636 906
f 716 907 717
f 716 909 907
f 645 644 908
f 708 909 716
f 708 910 909
f 653 911 912
f 653 908 911
f 653 645 908
f 707 910 708
f 707 913 910
f 654 912 914
f 654 653 912
f 699 913 707
f 699 915 913
f 662 914 916
f 662 654 914
f 698 915 699
f 698 917 915
f 663 916 918
f 663 662 916
f 690 919 917
f 690 917 698
f 671 663 918
f 689 920 919
f 689 919 690
f 672 921 922
f 672 918 921
f 672 671 918
f 681 923 920
f 681 920 689
f 680 922 923
f 680 672 922
f 680 923 681
f 924 829 925
f 925 827 926
f 829 827 925
f 926 825 927
f 827 825 926
f 927 823 928
f 825 823 927
f 928 821 929
f 823 821 928
f 929 819 930
f 821 819 929
f 930 817 931
f 819 817 930
f 931 815 932
f 817 815 931
f 932 813 933
f 815 813 932
f 933 811 934
f 813 811 933
f 934 809 935
f 811 809 934
f 935 807 936
f 809 807 935
f 807 805 936
f 936 805 937
f 805 803 937
f 937 803 938
f 803 801 938
f 938 801 939
f 801 799 939
f 939 799 940
f 799 798 940
f 940 798 941
f 798 800 941
f 941 800 942
f 800 802 942
f 942 802 943
f 802 804 943
f 943 804 944
f 944 806 945
f 804 806 944
f 806 808 945
f 945 808 946
f 946 810 947
f 808 810 946
f 947 812 948
f 810 812 947
f 948 814 949
f 812 814 948
f 949 816 950
f 814 816 949
f 950 818 951
f 816 818 950
f 951 820 952
f 818 820 951
f 952 822 953
f 820 822 952
f 953 824 954
f 822 824 953
f 954 826 955
f 824 826 954
f 955 828 956
f 826 828 955
f 828 830 956
f 956 830 957
f 957 832 958
f 830 832 957
f 958 834 959
f 832 834 958
f 959 836 960
f 834 836 959
f 836 838 960
f 960 838 961
f 838 840 961
f 961 840 962
f 840 842 962
f 962 842 963
f 842 844 963
f 963 844 964
f 844 846 964
f 964 846 965
f 846 848 965
f 965 848 966
f 848 850 966
f 966 850 967
f 850 852 967
f 967 852 968
f 852 854 968
f 968 854 969
f 854 856 969
f 969 856 970
f 970 858 971
f 856 858 970
f 858 860 971
f 971 860 972
f 972 862 973
f 860 862 972
f 973 864 974
f 862 864 973
f 974 866 975
f 864 866 974
f 975 869 976
f 866 869 975
f 976 871 977
f 869 871 976
f 977 873 978
f 871 873 977
f 978 875 979
f 873 875 978
f 979 877 980
f 875 877 979
f 980 879 981
f 877 879 980
f 981 881 982
f 879 881 981
f 982 882 983
f 881 882 982
f 983 885 984
f 882 885 983
f 984 887 985
f 885 887 984
f 887 888 985
f 985 888 986
f 888 890 986
f 986 890 987
f 890 893 987
f 987 893 988
f 893 895 988
f 988 895 989
f 895 897 989
f 989 897 990
f 990 899 991
f 897 899 990
f 991 901 992
f 899 901 991
f 992 902 993
f 901 902 992
f 993 905 994
f 902 905 993
f 994 907 995
f 905 907 994
f 995 909 996
f 907 909 995
f 996 910 997
f 909 910 996
f 997 913 998
f 910 913 997
f 998 915 999
f 913 915 998
f 999 917 1000
f 915 917 999
f 1000 919 1001
f 917 919 1000
f 1001 920 1002
f 919 920 1001
f 1002 923 1003
f 920 923 1002
f 1003 922 1004
f 923 922 1003
f 1004 921 1005
f 922 921 1004
f 1005 918 1006
f 921 918 1005
f 1006 916 1007
f 918 916 1006
f 1007 914 1008
f 916 914 1007
f 1008 912 1009
f 914 912 1008
f 1009 911 1010
f 912 911 1009
f 911 908 1010
f 1010 908 1011
f 908 906 1011
f 1011 906 1012
f 906 904 1012
f 1012 904 1013
f 904 903 1013
f 1013 903 1014
f 903 900 1014
f 1014 900 1015
f 900 898 1015
f 1015 898 1016
f 898 896 1016
f 1016 896 1017
f 896 894 1017
f 1017 894 1018
f 894 892 1018
f 1018 892 1019
f 892 891 1019
f 1019 891 1020
f 891 889 1020
f 1020 889 1021
f 889 886 1021
f 1021 886 1022
f 886 884 1022
f 1022 884 1023
f 884 883 1023
f 1023 883 1024
f 883 880 1024
f 1024 880 1025
f 880 878 1025
f 1025 878 1026
f 878 876 1026
f 1026 876 1027
f 876 874 1027
f 1027 874 1028
f 874 872 1028
f 1028 872 1029
f 872 870 1029
f 1029 870 1030
f 1030 868 1031
f 870 868 1030
f 1031 867 1032
f 868 867 1031
f 1032 865 1033
f 867 865 1032
f 1033 863 1034
f 865 863 1033
f 1034 861 1035
f 863 861 1034
f 1035 859 1036
f 861 859 1035
f 859 857 1036
f 1036 857 1037
f 857 855 1037
f 1037 855 1038
f 855 853 1038
f 1038 853 1039
f 853 851 1039
f 1039 851 1040
f 851 849 1040
f 1040 849 1041
f 849 847 1041
f 1041 847 1042
f 847 845 1042
f 1042 845 1043
f 845 843 1043
f 1043 843 1044
f 843 841 1044
f 1044 841 1045
f 841 839 1045
f 1045 839 1046
f 839 837 1046
f 1046 837 1047
f 837 835 1047
f 1047 835 1048
f 835 833 1048
f 1048 833 1049
f 833 831 1049
f 1049 831 1050
f 1050 829 924
f 831 829 1050
f 1051 1052 1053
f 1051 1053 1054
f 1051 1054 1055
f 1056 1057 1052
f 1056 1058 1057
f 1056 1059 1058
f 1056 1055 1059
f 1056 1052 1051
f 1056 1051 1055
f 1060 1061 1062
f 1060 1062 1063
f 1060 1064 1061
f 1060 1063 1065
f 1066 1064 1060
f 1066 1067 1064
f 1066 1068 1067
f 1066 1069 1068
f 1070 1069 1066
f 1070 1060 1065
f 1070 1055 1071
f 1070 1072 1069
f 1070 1066 1060
f 1070 1071 1072
f 1070 1065 1055
f 1073 950 951
f 1073 949 950
f 1073 948 949
f 1073 947 948
f 1073 946 947
f 1073 955 956
f 1073 954 955
f 1073 953 954
f 1073 952 953
f 1073 951 952
f 1073 964 965
f 1073 963 964
f 1073 962 963
f 1073 961 962
f 1073 960 961
f 1073 959 960
f 1073 958 959
f 1073 957 958
f 1073 956 957
f 1074 1073 1075
f 1076 1073 1074
f 1076 946 1073
f 1077 945 946
f 1077 944 945
f 1077 943 944
f 1077 942 943
f 1077 946 1076
f 1078 941 942
f 1078 940 941
f 1078 939 940
f 1078 942 1077
f 1078 938 939
f 1079 937 938
f 1079 936 937
f 1079 935 936
f 1079 934 935
f 1079 938 1078
f 1080 933 934
f 1080 932 933
f 1080 931 932
f 1080 930 931
f 1080 934 1079
f 1081 929 930
f 1081 928 929
f 1081 927 928
f 1081 926 927
f 1081 930 1080
f 1082 1050 924
f 1082 1049 1050
f 1082 925 926
f 1082 924 925
f 1082 926 1081
f 1083 1048 1049
f 1083 1047 1048
f 1083 1046 1047
f 1083 1045 1046
f 1083 1049 1082
f 1084 1044 1045
f 1084 1043 1044
f 1084 1042 1043
f 1084 1041 1042
f 1084 1045 1083
f 1085 1040 1041
f 1085 1039 1040
f 1085 1038 1039
f 1085 1037 1038
f 1085 1041 1084
f 1086 1036 1037
f 1086 1035 1036
f 1086 1034 1035
f 1086 1033 1034
f 1086 1037 1085
f 1087 1032 1033
f 1087 1031 1032
f 1087 1030 1031
f 1087 1029 1030
f 1087 1033 1086
f 1088 1028 1029
f 1088 1027 1028
f 1088 1026 1027
f 1088 1025 1026
f 1088 1029 1087
f 1089 1024 1025
f 1089 1023 1024
f 1089 1022 1023
f 1089 1021 1022
f 1089 1025 1088
f 1090 1020 1021
f 1090 1019 1020
f 1090 1018 1019
f 1090 1021 1089
f 1062 1017 1018
f 1062 1016 1017
f 1062 1015 1016
f 1062 1014 1015
f 1062 1018 1090
f 1061 1014 1062
f 1061 1013 1014
f 1061 1012 1013
f 1061 1011 1012
f 1061 1010 1011
f 1091 1009 1010
f 1091 1008 1009
f 1091 1007 1008
f 1091 1006 1007
f 1091 1010 1061
f 1092 1005 1006
f 1092 1004 1005
f 1092 1003 1004
f 1092 1002 1003
f 1092 1001 1002
f 1092 1006 1091
f 1093 1001 1092
f 1093 1000 1001
f 1093 999 1000
f 1093 998 999
f 1093 997 998
f 1094 996 997
f 1094 995 996
f 1094 994 995
f 1094 993 994
f 1094 997 1093
f 1095 992 993
f 1095 991 992
f 1095 990 991
f 1095 989 990
f 1095 993 1094
f 1096 989 1095
f 1096 988 989
f 1096 987 988
f 1096 986 987
f 1097 986 1096
f 1097 985 986
f 1097 984 985
f 1097 983 984
f 1097 982 983
f 1098 981 982
f 1098 980 981
f 1098 979 980
f 1098 978 979
f 1098 982 1097
f 1099 978 1098
f 1099 977 978
f 1099 976 977
f 1099 975 976
f 1099 974 975
f 1100 974 1099
f 1100 973 974
f 1100 972 973
f 1100 971 972
f 1100 970 971
f 1101 970 1100
f 1101 969 970
f 1101 968 969
f 1101 967 968
f 1101 966 967
f 1102 1073 965
f 1102 966 1101
f 1102 965 966
f 1103 1075 1073
f 1103 1073 1102
f 1104 1074 1075
f 1104 1075 1055
f 1104 1076 1074
f 1105 1076 1104
f 1106 1077 1076
f 1106 1076 1105
f 1107 1077 1106
f 1108 1078 1077
f 1108 1077 1107
f 1109 1078 1108
f 1110 1079 1078
f 1110 1078 1109
f 1111 1079 1110
f 1112 1080 1079
f 1112 1079 1111
f 1113 1080 1112
f 1114 1081 1080
f 1114 1080 1113
f 1115 1081 1114
f 1116 1081 1115
f 1116 1082 1081
f 1117 1083 1082
f 1117 1082 1116
f 1072 1096 1095
f 1118 1097 1096
f 1118 1096 1072
f 1119 1097 1118
f 1120 1097 1119
f 1120 1098 1097
f 1121 1098 1120
f 1122 1098 1121
f 1122 1099 1098
f 1123 1099 1122
f 1124 1099 1123
f 1124 1100 1099
f 1125 1100 1124
f 1053 1101 1100
f 1053 1100 1125
f 1052 1101 1053
f 1057 1101 1052
f 1057 1102 1101
f 1058 1102 1057
f 1059 1102 1058
f 1059 1055 1075
f 1059 1075 1103
f 1059 1103 1102
f 1126 1105 1104
f 1126 1106 1105
f 1126 1104 1055
f 1126 1107 1106
f 1127 1126 1055
f 1127 1107 1126
f 1127 1108 1107
f 1128 1127 1055
f 1128 1108 1127
f 1129 1128 1055
f 1129 1109 1108
f 1129 1108 1128
f 1130 1112 1111
f 1130 1111 1110
f 1130 1114 1113
f 1130 1116 1115
f 1130 1113 1112
f 1130 1109 1129
f 1130 1129 1055
f 1130 1115 1114
f 1130 1110 1109
f 1131 1085 1084
f 1131 1084 1083
f 1131 1083 1117
f 1132 1085 1131
f 1133 1085 1132
f 1133 1086 1085
f 1134 1088 1087
f 1134 1086 1133
f 1134 1087 1086
f 1135 1131 1117
f 1135 1116 1130
f 1135 1132 1131
f 1135 1133 1132
f 1135 1117 1116
f 1065 1135 1130
f 1065 1133 1135
f 1065 1130 1055
f 1065 1134 1133
f 1063 1062 1090
f 1063 1089 1088
f 1063 1090 1089
f 1063 1134 1065
f 1063 1088 1134
f 1064 1091 1061
f 1064 1092 1091
f 1067 1093 1092
f 1067 1092 1064
f 1068 1093 1067
f 1069 1072 1095
f 1069 1095 1094
f 1069 1094 1093
f 1069 1093 1068
f 1071 1120 1119
f 1071 1121 1120
f 1071 1124 1123
f 1071 1122 1121
f 1071 1123 1122
f 1071 1125 1124
f 1071 1118 1072
f 1071 1119 1118
f 1136 1053 1125
f 1136 1071 1055
f 1136 1125 1071
f 1054 1136 1055
f 1054 1053 1136
