# Full FreeCAD instance transform baked; body-local coordinates in mm
v -60.640600000 100.135299000 140.750000000
v -60.840600000 100.135299000 140.750000000
v -60.640600000 100.735299000 140.750000000
v -60.840600000 100.735299000 140.750000000
v -60.840600000 100.135299000 141.050000000
v -60.840600000 100.735299000 141.600000000
v -60.840600000 99.935299000 141.300000000
v -60.840600000 99.935299000 141.600000000
v -60.642122121 100.735299000 141.634862297
v -60.640600000 100.735299000 141.600000000
v -60.843638449 100.735299000 141.634729636
v -60.654229669 100.735299000 141.703527618
v -60.646676899 100.735299000 141.669459271
v -60.852661476 100.735299000 141.668404029
v -60.678076885 100.735299000 141.769047305
v -60.664722952 100.735299000 141.736808057
v -60.867394919 100.735299000 141.700000000
v -60.712939182 100.735299000 141.829430575
v -60.694189838 100.735299000 141.800000000
v -60.887391111 100.735299000 141.728557522
v -60.734182223 100.735299000 141.857115044
v -60.757757288 100.735299000 141.882842713
v -60.912042478 100.735299000 141.753208889
v -60.783484956 100.735299000 141.906417777
v -60.811169425 100.735299000 141.927660818
v -60.940600000 100.735299000 141.773205081
v -60.840600000 100.735299000 141.946410162
v -60.871552695 100.735299000 141.962523115
v -60.972195971 100.735299000 141.787938524
v -60.903791943 100.735299000 141.975877048
v -60.937072382 100.735299000 141.986370331
v -61.005870364 100.735299000 141.796961551
v -60.971140729 100.735299000 141.993923101
v -61.005737703 100.735299000 141.998477879
v -61.040600000 100.735299000 141.800000000
v -61.040600000 100.735299000 142.000000000
v -62.040600000 100.735299000 141.800000000
v -62.040600000 100.735299000 142.000000000
v -62.075329636 100.735299000 141.803038449
v -62.109004029 100.735299000 141.812061476
v -62.140600000 100.735299000 141.826794919
v -62.169157522 100.735299000 141.846791111
v -62.193808889 100.735299000 141.871442478
v -62.213805081 100.735299000 141.900000000
v -62.228538524 100.735299000 141.931595971
v -62.237561551 100.735299000 141.965270365
v -62.240600000 100.735299000 142.000000000
v -62.040629614 100.735550920 142.100000000
v -62.240600000 100.735299000 142.100000000
v -60.640600000 100.135299000 141.050000000
v -60.640600000 99.935299000 141.300000000
v -60.640600000 99.935299000 141.600000000
v -61.239396289 99.935299000 142.000000000
v -61.239396289 99.935299000 141.800000000
v -61.040600000 99.935299000 141.800000000
v -61.040600000 99.935299000 142.000000000
v -61.005737703 99.935299000 141.998477879
v -61.005870364 99.935299000 141.796961551
v -60.642122121 99.935299000 141.634862297
v -60.843638449 99.935299000 141.634729636
v -60.971140729 99.935299000 141.993923101
v -60.646676899 99.935299000 141.669459271
v -60.937072382 99.935299000 141.986370331
v -60.972195971 99.935299000 141.787938524
v -60.654229669 99.935299000 141.703527618
v -60.852661476 99.935299000 141.668404029
v -60.903791943 99.935299000 141.975877048
v -60.664722952 99.935299000 141.736808057
v -60.871552695 99.935299000 141.962523115
v -60.940600000 99.935299000 141.773205081
v -60.678076885 99.935299000 141.769047305
v -60.867394919 99.935299000 141.700000000
v -60.840600000 99.935299000 141.946410162
v -60.694189838 99.935299000 141.800000000
v -60.811169425 99.935299000 141.927660818
v -60.912042478 99.935299000 141.753208889
v -60.712939182 99.935299000 141.829430575
v -60.887391111 99.935299000 141.728557522
v -60.783484956 99.935299000 141.906417777
v -60.734182223 99.935299000 141.857115044
v -60.757757288 99.935299000 141.882842713
v -61.599037644 100.335299000 141.800000000
v -62.040600000 100.335299000 141.800000000
v -62.040600000 100.335299000 142.000000000
v -62.169157522 100.335299000 141.846791111
v -62.140600000 100.335299000 141.826794919
v -62.109004029 100.335299000 141.812061476
v -62.075329636 100.335299000 141.803038449
v -61.599037644 100.335299000 142.000000000
v -62.193808889 100.335299000 141.871442478
v -62.213805081 100.335299000 141.900000000
v -62.228538524 100.335299000 141.931595971
v -62.237561551 100.335299000 141.965270365
v -62.240600000 100.335299000 142.000000000
v -62.240600000 100.335299000 142.600000000
v -62.040600000 100.335299000 142.600000000
v -62.240600000 100.846285420 142.600000000
v -62.240600000 100.846285420 142.100000000
v -61.938513296 100.855515358 142.600000000
v -61.903382587 100.892321902 142.600000000
v -61.890600000 100.940892140 142.600000000
v -62.102760982 101.003411996 142.600000000
v -61.890600000 101.003411996 142.600000000
v -61.992686704 100.821347569 142.600000000
v -62.138765830 100.965670716 142.600000000
v -62.027817413 100.784541025 142.600000000
v -62.192686704 100.931662202 142.600000000
v -62.227817413 100.894855658 142.600000000
v -62.040600000 100.735970787 142.600000000
v -61.890600000 101.086728880 142.574732902
v -61.890600000 101.060800696 142.588587652
v -61.890600000 101.032668211 142.597119251
v -61.890600000 101.117916071 142.555006799
v -61.890600000 100.940892140 142.100000000
v -61.890600000 101.150047278 142.536858919
v -61.890600000 101.183042703 142.520334332
v -61.890600000 101.216820400 142.505474076
v -61.890600000 101.251296483 142.492315058
v -61.890600000 101.286385329 142.480889958
v -61.890600000 101.321999795 142.471227150
v -61.890600000 101.358051431 142.463350633
v -61.890600000 101.394450704 142.457279968
v -61.890600000 101.431107214 142.453030231
v -61.890600000 101.892478677 142.100000000
v -61.890600000 101.504827388 142.450031210
v -61.890600000 101.467929926 142.450611976
v -61.890600000 101.541707966 142.451289374
v -61.890600000 101.578480067 142.454383345
v -61.890600000 101.615052365 142.459305438
v -61.890600000 101.651334034 142.466043428
v -61.890600000 101.687234968 142.474580583
v -61.890600000 101.722666005 142.484895700
v -61.890600000 101.757539152 142.496963161
v -61.890600000 101.791767802 142.510752996
v -61.890600000 101.825266947 142.526230959
v -61.890600000 101.857953391 142.543358609
v -61.890600000 101.954504529 142.086482288
v -61.890600000 101.889745957 142.562093410
v -61.890600000 101.920565688 142.582388834
v -61.890600000 101.950336042 142.604194476
v -61.890600000 101.978983085 142.627456182
v -61.890600000 102.005249928 142.048710999
v -61.890600000 101.988380443 142.634662013
v -61.890600000 101.997180080 142.642586704
v -61.890600000 102.005327151 142.651180862
v -62.090599706 101.086728880 142.574732902
v -62.090599706 101.116778160 142.555688827
v -62.090599706 101.147707445 142.538109997
v -62.090599706 101.179445346 142.522036987
v -62.090599706 101.211918603 142.507506897
v -62.090599706 101.245052263 142.494553264
v -62.090599706 101.278769845 142.483205990
v -62.090599706 101.312993522 142.473491266
v -62.090599706 101.347644300 142.465431515
v -62.090599706 101.382642196 142.459045340
v -62.090599706 101.417906429 142.454347484
v -62.090599706 101.453355601 142.451348789
v -62.090599706 101.488907888 142.450056176
v -62.090599706 101.524481229 142.450472630
v -62.090599706 101.559993511 142.452597189
v -62.090599706 101.595362767 142.456424949
v -62.090599706 101.630507355 142.461947076
v -62.090599706 101.665346156 142.469150822
v -62.090599706 101.699798753 142.478019560
v -62.090599706 101.733785623 142.488532819
v -62.090599706 101.767228318 142.500666333
v -62.090599706 101.800049644 142.514392094
v -62.090599706 101.832173843 142.529678422
v -62.090599706 101.863526766 142.546490030
v -62.090599706 101.894036044 142.564788116
v -62.103807409 101.943669285 142.599124257
v -62.139550668 101.979841424 142.628102879
v -62.090599706 101.051206959 142.592181720
v -62.090599706 101.051206959 142.100000000
v -62.090599706 101.063545901 142.587418752
v -62.090599706 101.075417308 142.581587367
v -62.090535071 101.893257361 142.099998996
v -62.138513002 100.965830177 142.100000000
v -62.103382293 101.002636721 142.100000000
v -62.192686704 100.931662202 142.100000000
v -62.227817413 100.894855658 142.100000000
v -61.992686704 100.821347569 142.100000000
v -62.027917069 100.784367061 142.100000000
v -61.938513296 100.855515358 142.100000000
v -61.903382587 100.892321902 142.100000000
v -61.892078554 102.022382488 142.025000000
v -62.179912430 102.022382488 142.025000000
v -62.165479876 102.001068606 142.053469935
v -62.140599853 101.980702708 142.071438756
v -62.103173412 101.942729133 142.091347345
v -62.187881934 102.044208475 142.710144919
v -62.190600000 102.067363481 142.742737569
v -62.190600000 102.067363481 141.957262431
v -62.187876625 102.044186180 141.989888586
v -62.179912430 102.022382488 142.675000000
v -62.165305675 102.000834011 142.646247337
v -61.905242644 102.057380084 141.970781064
v -61.940600000 102.091912202 141.926746193
v -62.190600000 102.088906013 141.930364441
v -62.190600000 102.111843829 141.904645982
v -61.977897201 102.129722982 141.886387237
v -62.190600000 102.136112455 141.880179345
v -62.190600000 102.161643675 141.857033301
v -61.990600000 102.178577182 141.842972030
v -62.190600000 102.188365726 141.835272911
v -61.990600000 102.206201290 141.821999123
v -62.190600000 102.216203494 141.814959340
v -61.990600000 102.234904776 141.802529555
v -62.190600000 102.245078734 141.796149686
v -61.990600000 102.264605915 141.784618761
v -62.190600000 102.274910280 141.778896820
v -61.990600000 102.295220140 141.768317737
v -62.190600000 102.305614281 141.763249237
v -61.990600000 102.326660286 141.753672895
v -62.190600000 102.337104433 141.749250920
v -61.990600000 102.358836836 141.740725933
v -62.190600000 102.369292222 141.736941217
v -61.990600000 102.391658176 141.729513714
v -62.190600000 102.402087172 141.726354727
v -61.990600000 102.425030855 141.720068161
v -62.190600000 102.435397103 141.717521209
v -61.990600000 102.458859854 141.712416168
v -62.190600000 102.469128385 141.710465491
v -61.990600000 102.493048854 141.706579523
v -62.190600000 102.503186205 141.705207406
v -61.990600000 102.527500512 141.702574842
v -62.190600000 102.537474831 141.701761735
v -61.990600000 102.562116735 141.700413530
v -62.190600000 102.571897884 141.700138161
v -61.990600000 102.596798963 141.700101738
v -62.190600000 102.606358605 141.700341249
v -61.990600000 102.631448449 141.701640356
v -62.190600000 102.640760131 141.702370428
v -61.990600000 102.665966536 141.705025002
v -62.190600000 102.675005764 141.706219994
v -61.990600000 102.700254944 141.710246039
v -62.190600000 102.708999245 141.711879126
v -61.990600000 102.734216047 141.717288602
v -62.190600000 102.742645024 141.719331919
v -61.990600000 102.767753149 141.726132639
v -62.190600000 102.775848527 141.728557422
v -61.990600000 102.800770761 141.736752970
v -62.190600000 102.808516425 141.739529705
v -61.990600000 102.833174877 141.749119355
v -62.190600000 102.840556893 141.752217926
v -61.990600000 102.864873233 141.763196585
v -62.190600000 102.871879870 141.766586420
v -61.990600000 102.895775577 141.778944578
v -62.190600000 102.902397313 141.782594801
v -61.990600000 102.925793924 141.796318497
v -62.190600000 102.932023440 141.800198070
v -61.990600000 102.954842803 141.815268874
v -62.190600000 102.960674979 141.819346748
v -61.990600000 102.982839507 141.835741752
v -62.190600000 102.988271394 141.839987010
v -61.990600000 103.009704322 141.857678842
v -62.190600000 103.014735115 141.862060841
v -61.990600000 103.035360758 141.881017683
v -62.190600000 103.039991758 141.885506194
v -61.990600000 103.059735765 141.905691823
v -62.190600000 103.063970328 141.910257167
v -61.990600000 103.082759942 141.931631011
v -62.190600000 103.086603428 141.936244190
v -61.990600000 103.104367734 141.958761391
v -62.190600000 103.107827438 141.963394217
v -61.990600000 103.124497618 141.987005716
v -62.190600000 103.127582700 141.991630933
v -61.990600000 103.143092281 142.016283570
v -62.190600000 103.145813687 142.020874969
v -61.990600000 103.160098778 142.046511590
v -62.190600000 103.162469153 142.051044126
v -61.990600000 103.175468689 142.077603712
v -62.190600000 103.177502282 142.082053601
v -61.990600000 103.189158252 142.109471408
v -62.190600000 103.190870819 142.113816233
v -61.990600000 103.201128489 142.142023944
v -62.190600000 103.202537187 142.146242740
v -61.990600000 103.211345319 142.175168635
v -62.190600000 103.212468593 142.179241978
v -61.990600000 103.219779652 142.208811111
v -62.190600000 103.220637121 142.212721191
v -61.990600000 103.226407473 142.242855585
v -62.190600000 103.227019812 142.246586273
v -61.990600000 103.231209912 142.277205123
v -62.190600000 103.231598725 142.280742036
v -61.990600000 103.234173294 142.311761924
v -62.190600000 103.234360988 142.315092472
v -61.990600000 103.235289183 142.346427599
v -62.190600000 103.235298838 142.349541027
v -61.990600000 103.234554401 142.381103444
v -62.190600000 103.234409638 142.383990873
v -61.990600000 103.231971040 142.415690731
v -62.190600000 103.231695888 142.418345175
v -61.990600000 103.227546456 142.450090982
v -62.190600000 103.227165216 142.452507370
v -61.990600000 103.221293247 142.484206251
v -62.190600000 103.220830356 142.486381432
v -61.990600000 103.213229216 142.517939403
v -62.190600000 103.212709116 142.519872147
v -61.990600000 103.203377325 142.551194394
v -62.190600000 103.202824322 142.552885378
v -61.990600000 103.191765623 142.583876538
v -62.190600000 103.191203759 142.585328329
v -61.990600000 103.178427172 142.615892783
v -62.190600000 103.177880092 142.617109808
v -61.990600000 103.163399949 142.647151969
v -62.190600000 103.162890770 142.648140483
v -61.990600000 103.146726740 142.677565096
v -62.190600000 103.146277926 142.678333130
v -61.990600000 103.128455018 142.707045571
v -62.190600000 103.128088257 142.707602884
v -61.990600000 103.108636807 142.735509454
v -62.190600000 103.108372891 142.735867471
v -61.990600000 103.087328533 142.762875705
v -62.190600000 103.087187244 142.763047444
v -61.990600000 103.064590867 142.789066403
v -62.190600000 103.064590867 142.789066403
v -62.190600000 102.343776932 142.132532553
v -62.190600000 102.367831553 142.108477932
v -62.190600000 102.394268793 142.087069477
v -62.190600000 102.322368477 142.158969793
v -62.190600000 102.422799000 142.068541744
v -62.190600000 102.303840744 142.187500000
v -62.190600000 102.453109591 142.053097726
v -62.190600000 102.288396726 142.217810591
v -62.190600000 102.484868477 142.040906632
v -62.190600000 102.276205632 142.249569477
v -62.190600000 102.517727700 142.032102030
v -62.190600000 102.267401030 142.282428701
v -62.190600000 102.551327249 142.026780384
v -62.190600000 102.262079384 142.316028250
v -62.190600000 102.585299000 142.025000000
v -62.190600000 102.260299000 142.350000000
v -62.190600000 102.619270750 142.026780384
v -62.190600000 102.652870299 142.032102030
v -62.190600000 102.685729523 142.040906632
v -62.190600000 102.717488409 142.053097726
v -62.190600000 102.276205632 142.450430523
v -62.190600000 102.288396726 142.482189409
v -62.190600000 102.267401030 142.417571300
v -62.190600000 102.262079384 142.383971751
v -62.190600000 102.747799000 142.068541744
v -62.190600000 102.303840744 142.512500000
v -62.190600000 102.776329207 142.087069477
v -62.190600000 102.088401404 142.769037921
v -62.190600000 102.322368477 142.541030207
v -62.190600000 102.802766447 142.108477932
v -62.190600000 102.110773368 142.794213265
v -62.190600000 102.343776932 142.567467447
v -62.190600000 102.134419310 142.818196012
v -62.190600000 102.826821068 142.132532553
v -62.190600000 102.367831553 142.591522068
v -62.190600000 102.159275747 142.840921774
v -62.190600000 102.848229523 142.158969793
v -62.190600000 102.185275946 142.862329539
v -62.190600000 102.394268793 142.612930523
v -62.190600000 102.212350102 142.882361832
v -62.190600000 102.866757256 142.187500000
v -62.190600000 102.240425530 142.900964872
v -62.190600000 102.422799000 142.631458256
v -62.190600000 102.269426853 142.918088714
v -62.190600000 102.882201274 142.217810591
v -62.190600000 102.299276211 142.933687386
v -62.190600000 102.453109591 142.646902274
v -62.190600000 102.329893465 142.947719008
v -62.190600000 102.894392368 142.249569477
v -62.190600000 102.361196417 142.960145911
v -62.190600000 102.484868477 142.659093368
v -62.190600000 102.393101027 142.970934730
v -62.190600000 102.903196970 142.282428701
v -62.190600000 102.425521638 142.980056501
v -62.190600000 102.517727700 142.667897970
v -62.190600000 102.458371209 142.987486734
v -62.190600000 102.908518616 142.316028250
v -62.190600000 102.491561549 142.993205481
v -62.190600000 102.551327249 142.673219616
v -62.190600000 102.525003550 142.997197388
v -62.190600000 102.910299000 142.350000000
v -62.190600000 102.558607428 142.999451738
v -62.190600000 102.585299000 142.675000000
v -62.190600000 102.592282966 142.999962479
v -62.190600000 102.908518616 142.383971751
v -62.190600000 102.625939754 142.998728240
v -62.190600000 102.619270750 142.673219616
v -62.190600000 102.652870299 142.667897970
v -62.190600000 102.806182944 142.871385412
v -62.190600000 102.685729523 142.659093368
v -62.190600000 102.781645906 142.896278419
v -62.190600000 102.903196970 142.417571300
v -62.190600000 102.833251406 142.849271471
v -62.190600000 102.717488409 142.646902274
v -62.190600000 102.759924102 142.923662562
v -62.190600000 102.659487432 142.995752334
v -62.190600000 102.862538199 142.830192379
v -62.190600000 102.747799000 142.631458256
v -62.190600000 102.776329207 142.612930523
v -62.190600000 102.741268782 142.953221098
v -62.190600000 102.692835933 142.991042751
v -62.190600000 102.893704574 142.814368817
v -62.190600000 102.802766447 142.591522068
v -62.190600000 102.725895726 142.984612134
v -62.190600000 102.926390040 142.801983813
v -62.190600000 102.826821068 142.567467447
v -62.190600000 102.894392368 142.450430523
v -62.190600000 102.960216535 142.793180618
v -62.190600000 102.848229523 142.541030207
v -62.190600000 102.882201274 142.482189409
v -62.190600000 102.994792801 142.788061056
v -62.190600000 102.866757256 142.512500000
v -62.190600000 103.029718904 142.786684343
v -62.260600000 102.260299000 142.350000000
v -62.260600000 102.262079384 142.316028250
v -62.260600000 102.267401030 142.282428701
v -62.260600000 102.276205632 142.249569477
v -62.260600000 102.288396726 142.217810591
v -62.260600000 102.303840744 142.187500000
v -62.260600000 102.322368477 142.158969793
v -62.260600000 102.343776932 142.132532553
v -62.260600000 102.367831553 142.108477932
v -62.260600000 102.394268793 142.087069477
v -62.260600000 102.422799000 142.068541744
v -62.260600000 102.453109591 142.053097726
v -62.260600000 102.484868477 142.040906632
v -62.260600000 102.517727700 142.032102030
v -62.260600000 102.551327249 142.026780384
v -62.260600000 102.585299000 142.025000000
v -62.260600000 102.619270750 142.026780384
v -62.260600000 102.652870299 142.032102030
v -62.260600000 102.685729523 142.040906632
v -62.260600000 102.717488409 142.053097726
v -62.260600000 102.747799000 142.068541744
v -62.260600000 102.776329207 142.087069477
v -62.260600000 102.802766447 142.108477932
v -62.260600000 102.826821068 142.132532553
v -62.260600000 102.848229523 142.158969793
v -62.260600000 102.866757256 142.187500000
v -62.260600000 102.882201274 142.217810591
v -62.260600000 102.894392368 142.249569477
v -62.260600000 102.903196970 142.282428701
v -62.260600000 102.908518616 142.316028250
v -62.260600000 102.910299000 142.350000000
v -62.260600000 102.908518616 142.383971751
v -62.260600000 102.903196970 142.417571300
v -62.260600000 102.894392368 142.450430523
v -62.260600000 102.882201274 142.482189409
v -62.260600000 102.866757256 142.512500000
v -62.260600000 102.848229523 142.541030207
v -62.260600000 102.826821068 142.567467447
v -62.260600000 102.802766447 142.591522068
v -62.260600000 102.776329207 142.612930523
v -62.260600000 102.747799000 142.631458256
v -62.260600000 102.717488409 142.646902274
v -62.260600000 102.685729523 142.659093368
v -62.260600000 102.652870299 142.667897970
v -62.260600000 102.619270750 142.673219616
v -62.260600000 102.585299000 142.675000000
v -62.260600000 102.551327249 142.673219616
v -62.260600000 102.517727700 142.667897970
v -62.260600000 102.484868477 142.659093368
v -62.260600000 102.453109591 142.646902274
v -62.260600000 102.422799000 142.631458256
v -62.260600000 102.394268793 142.612930523
v -62.260600000 102.367831553 142.591522068
v -62.260600000 102.343776932 142.567467447
v -62.260600000 102.322368477 142.541030207
v -62.260600000 102.303840744 142.512500000
v -62.260600000 102.288396726 142.482189409
v -62.260600000 102.276205632 142.450430523
v -62.260600000 102.267401030 142.417571300
v -62.260600000 102.262079384 142.383971751
v -62.260600000 102.496910652 142.261611652
v -62.260600000 102.477045824 142.287500000
v -62.260600000 102.522799000 142.241746825
v -62.260600000 102.464558272 142.317647619
v -62.260600000 102.552946619 142.229259272
v -62.260600000 102.585299000 142.225000000
v -62.260600000 102.460299000 142.350000000
v -62.260600000 102.464558272 142.382352381
v -62.260600000 102.617651381 142.229259272
v -62.260600000 102.647799000 142.241746825
v -62.260600000 102.477045824 142.412500000
v -62.260600000 102.673687348 142.261611652
v -62.260600000 102.496910652 142.438388348
v -62.260600000 102.693552175 142.287500000
v -62.260600000 102.522799000 142.458253176
v -62.260600000 102.706039728 142.317647619
v -62.260600000 102.552946619 142.470740728
v -62.260600000 102.585299000 142.475000000
v -62.260600000 102.710299000 142.350000000
v -62.260600000 102.706039728 142.382352381
v -62.260600000 102.617651381 142.470740728
v -62.260600000 102.647799000 142.458253176
v -62.260600000 102.693552175 142.412500000
v -62.260600000 102.673687348 142.438388348
v -62.190600000 102.460299000 142.350000000
v -62.190600000 102.464558272 142.317647619
v -62.190600000 102.477045824 142.287500000
v -62.190600000 102.496910652 142.261611652
v -62.190600000 102.522799000 142.241746825
v -62.190600000 102.552946619 142.229259272
v -62.190600000 102.585299000 142.225000000
v -62.190600000 102.617651381 142.229259272
v -62.190600000 102.647799000 142.241746825
v -62.190600000 102.673687348 142.261611652
v -62.190600000 102.693552175 142.287500000
v -62.190600000 102.706039728 142.317647619
v -62.190600000 102.710299000 142.350000000
v -62.190600000 102.496910652 142.438388348
v -62.190600000 102.464558272 142.382352381
v -62.190600000 102.477045824 142.412500000
v -62.190600000 102.522799000 142.458253176
v -62.190600000 102.552946619 142.470740728
v -62.190600000 102.585299000 142.475000000
v -62.190600000 102.617651381 142.470740728
v -62.190600000 102.647799000 142.458253176
v -62.190600000 102.673687348 142.438388348
v -62.190600000 102.693552175 142.412500000
v -62.190600000 102.706039728 142.382352381
v -61.990600000 102.725895726 142.984612134
v -61.990600000 102.741268782 142.953221098
v -61.990600000 102.759924102 142.923662562
v -61.990600000 102.781645906 142.896278419
v -61.990600000 102.806182944 142.871385412
v -61.990600000 102.833251405 142.849271471
v -61.990600000 102.862538199 142.830192379
v -61.990600000 102.893704574 142.814368818
v -61.990600000 102.926390040 142.801983813
v -61.990600000 102.960216535 142.793180618
v -61.990600000 102.994792800 142.788061056
v -61.990600000 103.029718903 142.786684343
v -61.990600000 102.367831553 142.108477932
v -61.990600000 102.343776932 142.132532553
v -61.990600000 102.322368477 142.158969793
v -61.990600000 102.394268793 142.087069477
v -61.990600000 102.303840744 142.187500000
v -61.990600000 102.422799000 142.068541744
v -61.990600000 102.288396726 142.217810591
v -61.990600000 102.453109591 142.053097726
v -61.990600000 102.276205632 142.249569477
v -61.990600000 102.484868477 142.040906632
v -61.990600000 102.267401030 142.282428701
v -61.990600000 102.517727700 142.032102030
v -61.990600000 102.262079384 142.316028250
v -61.990600000 102.551327249 142.026780384
v -61.990600000 102.260299000 142.350000000
v -61.990600000 102.585299000 142.025000000
v -61.990600000 102.619270750 142.026780384
v -61.990600000 102.652870299 142.032102030
v -61.990600000 102.685729523 142.040906632
v -61.990600000 102.717488409 142.053097726
v -61.990600000 102.747799000 142.068541744
v -61.990600000 102.776329207 142.087069477
v -61.990600000 102.802766447 142.108477932
v -61.990600000 102.826821068 142.132532553
v -61.990600000 102.848229523 142.158969793
v -61.990600000 102.178577182 142.857027970
v -61.990600000 102.262079384 142.383971751
v -61.990600000 102.267401030 142.417571300
v -61.990600000 102.276205632 142.450430523
v -61.990600000 102.288396726 142.482189409
v -61.990600000 102.303840744 142.512500000
v -61.990600000 102.322368477 142.541030207
v -61.990600000 102.343776932 142.567467447
v -61.990600000 102.367831553 142.591522068
v -61.990600000 102.394268793 142.612930523
v -61.990600000 102.205793589 142.877707915
v -61.990600000 102.866757256 142.187500000
v -61.990600000 102.234059491 142.896928522
v -61.990600000 102.422799000 142.631458256
v -61.990600000 102.263296720 142.914636637
v -61.990600000 102.882201274 142.217810591
v -61.990600000 102.293424423 142.930783291
v -61.990600000 102.453109591 142.646902274
v -61.990600000 102.324359284 142.945323832
v -61.990600000 102.894392368 142.249569477
v -61.990600000 102.356015755 142.958218048
v -61.990600000 102.484868477 142.659093368
v -61.990600000 102.388306291 142.969430281
v -61.990600000 102.903196970 142.282428701
v -61.990600000 102.421141597 142.978929525
v -61.990600000 102.517727700 142.667897970
v -61.990600000 102.454430868 142.986689510
v -61.990600000 102.908518616 142.316028250
v -61.990600000 102.488082045 142.992688777
v -61.990600000 102.551327249 142.673219616
v -61.990600000 102.522002069 142.996910735
v -61.990600000 102.910299000 142.350000000
v -61.990600000 102.556097136 142.999343708
v -61.990600000 102.585299000 142.675000000
v -61.990600000 102.590272958 142.999980969
v -61.990600000 102.908518616 142.383971751
v -61.990600000 102.624435025 142.998820755
v -61.990600000 102.619270750 142.673219616
v -61.990600000 102.652870299 142.667897970
v -61.990600000 102.685729523 142.659093368
v -61.990600000 102.903196970 142.417571300
v -61.990600000 102.717488409 142.646902274
v -61.990600000 102.658488864 142.995866274
v -61.990600000 102.747799000 142.631458256
v -61.990600000 102.776329207 142.612930523
v -61.990600000 102.692340303 142.991125697
v -61.990600000 102.802766447 142.591522068
v -61.990600000 102.826821068 142.567467447
v -61.990600000 102.894392368 142.450430523
v -61.990600000 102.848229523 142.541030207
v -61.990600000 102.882201274 142.482189409
v -61.990600000 102.866757256 142.512500000
v -62.060600000 102.910299000 142.350000000
v -62.060600000 102.908518616 142.383971751
v -62.060600000 102.903196970 142.417571300
v -62.060600000 102.894392368 142.450430523
v -62.060600000 102.882201274 142.482189409
v -62.060600000 102.866757256 142.512500000
v -62.060600000 102.848229523 142.541030207
v -62.060600000 102.826821068 142.567467447
v -62.060600000 102.802766447 142.591522068
v -62.060600000 102.776329207 142.612930523
v -62.060600000 102.747799000 142.631458256
v -62.060600000 102.717488409 142.646902274
v -62.060600000 102.685729523 142.659093368
v -62.060600000 102.652870299 142.667897970
v -62.060600000 102.619270750 142.673219616
v -62.060600000 102.585299000 142.675000000
v -62.060600000 102.551327249 142.673219616
v -62.060600000 102.517727700 142.667897970
v -62.060600000 102.484868477 142.659093368
v -62.060600000 102.453109591 142.646902274
v -62.060600000 102.422799000 142.631458256
v -62.060600000 102.394268793 142.612930523
v -62.060600000 102.367831553 142.591522068
v -62.060600000 102.343776932 142.567467447
v -62.060600000 102.322368477 142.541030207
v -62.060600000 102.303840744 142.512500000
v -62.060600000 102.288396726 142.482189409
v -62.060600000 102.276205632 142.450430523
v -62.060600000 102.267401030 142.417571300
v -62.060600000 102.262079384 142.383971751
v -62.060600000 102.260299000 142.350000000
v -62.060600000 102.496910652 142.261611652
v -62.060600000 102.322368477 142.158969793
v -62.060600000 102.343776932 142.132532553
v -62.060600000 102.367831553 142.108477932
v -62.060600000 102.394268793 142.087069477
v -62.060600000 102.477045824 142.287500000
v -62.060600000 102.288396726 142.217810591
v -62.060600000 102.303840744 142.187500000
v -62.060600000 102.522799000 142.241746825
v -62.060600000 102.422799000 142.068541744
v -62.060600000 102.453109591 142.053097726
v -62.060600000 102.464558272 142.317647619
v -62.060600000 102.262079384 142.316028250
v -62.060600000 102.267401030 142.282428701
v -62.060600000 102.276205632 142.249569477
v -62.060600000 102.552946619 142.229259272
v -62.060600000 102.484868477 142.040906632
v -62.060600000 102.517727700 142.032102030
v -62.060600000 102.551327249 142.026780384
v -62.060600000 102.460299000 142.350000000
v -62.060600000 102.585299000 142.225000000
v -62.060600000 102.585299000 142.025000000
v -62.060600000 102.619270750 142.026780384
v -62.060600000 102.617651381 142.229259272
v -62.060600000 102.652870299 142.032102030
v -62.060600000 102.685729523 142.040906632
v -62.060600000 102.717488409 142.053097726
v -62.060600000 102.464558272 142.382352381
v -62.060600000 102.477045824 142.412500000
v -62.060600000 102.647799000 142.241746825
v -62.060600000 102.747799000 142.068541744
v -62.060600000 102.776329207 142.087069477
v -62.060600000 102.673687348 142.261611652
v -62.060600000 102.802766447 142.108477932
v -62.060600000 102.496910652 142.438388348
v -62.060600000 102.826821068 142.132532553
v -62.060600000 102.848229523 142.158969793
v -62.060600000 102.693552175 142.287500000
v -62.060600000 102.522799000 142.458253176
v -62.060600000 102.866757256 142.187500000
v -62.060600000 102.882201274 142.217810591
v -62.060600000 102.706039728 142.317647619
v -62.060600000 102.552946619 142.470740728
v -62.060600000 102.894392368 142.249569477
v -62.060600000 102.903196970 142.282428701
v -62.060600000 102.585299000 142.475000000
v -62.060600000 102.908518616 142.316028250
v -62.060600000 102.710299000 142.350000000
v -62.060600000 102.706039728 142.382352381
v -62.060600000 102.617651381 142.470740728
v -62.060600000 102.693552175 142.412500000
v -62.060600000 102.647799000 142.458253176
v -62.060600000 102.673687348 142.438388348
v -61.990600000 102.710299000 142.350000000
v -61.990600000 102.706039728 142.382352381
v -61.990600000 102.693552175 142.412500000
v -61.990600000 102.673687348 142.438388348
v -61.990600000 102.647799000 142.458253176
v -61.990600000 102.617651381 142.470740728
v -61.990600000 102.585299000 142.475000000
v -61.990600000 102.552946619 142.470740728
v -61.990600000 102.522799000 142.458253176
v -61.990600000 102.496910652 142.438388348
v -61.990600000 102.477045824 142.412500000
v -61.990600000 102.464558272 142.382352381
v -61.990600000 102.460299000 142.350000000
v -61.990600000 102.464558272 142.317647619
v -61.990600000 102.477045824 142.287500000
v -61.990600000 102.496910652 142.261611652
v -61.990600000 102.522799000 142.241746825
v -61.990600000 102.552946619 142.229259272
v -61.990600000 102.585299000 142.225000000
v -61.990600000 102.617651381 142.229259272
v -61.990600000 102.647799000 142.241746825
v -61.990600000 102.673687348 142.261611652
v -61.990600000 102.693552175 142.287500000
v -61.990600000 102.706039728 142.317647619
v -61.977891428 102.129715536 142.813606962
v -61.940600000 102.091912202 142.773253295
v -61.905259232 102.057405190 142.729250522
v -61.892078554 102.022382488 142.675000000
f 1 2 3
f 3 2 4
f 5 6 4
f 5 4 2
f 7 6 5
f 8 6 7
f 6 9 10
f 6 10 3
f 6 3 4
f 11 12 13
f 11 13 9
f 11 9 6
f 14 15 16
f 14 16 12
f 14 12 11
f 17 18 19
f 17 19 15
f 17 15 14
f 20 21 18
f 20 18 17
f 22 21 20
f 23 22 20
f 24 22 23
f 25 23 26
f 25 24 23
f 27 25 26
f 28 26 29
f 28 27 26
f 30 28 29
f 31 29 32
f 31 30 29
f 33 31 32
f 34 33 32
f 34 32 35
f 36 34 35
f 37 36 35
f 38 36 37
f 38 37 39
f 38 39 40
f 38 40 41
f 38 41 42
f 43 38 42
f 44 38 43
f 45 38 44
f 46 38 45
f 47 38 46
f 47 48 38
f 49 48 47
f 10 50 3
f 3 50 1
f 10 51 50
f 10 52 51
f 50 5 2
f 50 2 1
f 51 5 50
f 7 5 51
f 53 54 55
f 56 53 55
f 52 8 7
f 52 7 51
f 57 55 58
f 57 56 55
f 59 60 8
f 59 8 52
f 61 57 58
f 62 60 59
f 63 58 64
f 63 61 58
f 65 66 60
f 65 60 62
f 67 63 64
f 68 66 65
f 69 64 70
f 69 67 64
f 71 72 66
f 71 66 68
f 73 69 70
f 74 72 71
f 75 70 76
f 75 73 70
f 77 78 72
f 77 72 74
f 79 75 76
f 80 78 77
f 81 76 78
f 81 78 80
f 81 79 76
f 55 32 58
f 35 32 55
f 58 29 64
f 32 29 58
f 64 26 70
f 29 26 64
f 70 23 76
f 26 23 70
f 76 20 78
f 23 20 76
f 78 17 72
f 20 17 78
f 72 14 66
f 17 14 72
f 66 11 60
f 60 11 8
f 14 11 66
f 11 6 8
f 82 83 37
f 35 82 37
f 54 82 35
f 55 54 35
f 84 85 86
f 84 86 87
f 84 87 88
f 84 88 83
f 84 83 82
f 84 82 89
f 90 85 84
f 91 90 84
f 92 91 84
f 93 92 84
f 94 93 84
f 95 84 96
f 95 94 84
f 94 49 47
f 94 95 49
f 49 97 98
f 95 97 49
f 99 100 101
f 102 101 103
f 102 99 101
f 104 99 102
f 105 104 102
f 106 104 105
f 107 106 105
f 97 107 108
f 97 109 106
f 97 106 107
f 95 96 109
f 95 109 97
f 110 111 112
f 110 112 103
f 113 103 101
f 113 101 114
f 113 110 103
f 115 113 114
f 116 115 114
f 117 116 114
f 118 117 114
f 119 118 114
f 120 119 114
f 121 120 114
f 122 121 114
f 123 122 114
f 124 125 126
f 124 126 123
f 124 123 114
f 127 125 124
f 128 127 124
f 129 128 124
f 130 129 124
f 131 130 124
f 132 131 124
f 133 132 124
f 134 133 124
f 135 134 124
f 136 124 137
f 136 135 124
f 138 136 137
f 139 138 137
f 140 139 137
f 141 140 137
f 141 137 142
f 143 141 142
f 144 143 142
f 145 144 142
f 146 110 147
f 147 113 148
f 110 113 147
f 148 115 149
f 113 115 148
f 149 116 150
f 115 116 149
f 150 117 151
f 116 117 150
f 151 118 152
f 117 118 151
f 152 119 153
f 118 119 152
f 153 120 154
f 119 120 153
f 154 121 155
f 120 121 154
f 155 122 156
f 121 122 155
f 156 123 157
f 122 123 156
f 123 126 157
f 157 126 158
f 126 125 158
f 158 125 159
f 125 127 159
f 159 127 160
f 160 128 161
f 127 128 160
f 161 129 162
f 128 129 161
f 162 130 163
f 129 130 162
f 163 131 164
f 130 131 163
f 164 132 165
f 131 132 164
f 165 133 166
f 132 133 165
f 166 134 167
f 133 134 166
f 167 135 168
f 134 135 167
f 168 136 169
f 135 136 168
f 169 138 170
f 136 138 169
f 170 139 171
f 138 139 170
f 139 140 171
f 171 141 172
f 140 141 171
f 173 146 174
f 175 146 173
f 176 146 175
f 146 147 174
f 147 148 174
f 148 149 174
f 149 150 174
f 150 151 174
f 151 152 174
f 152 153 174
f 153 154 174
f 154 155 174
f 155 156 174
f 156 157 174
f 157 158 174
f 159 177 158
f 158 177 174
f 159 160 177
f 160 161 177
f 161 162 177
f 162 163 177
f 163 164 177
f 164 165 177
f 165 166 177
f 166 167 177
f 167 168 177
f 168 169 177
f 169 170 177
f 105 102 178
f 178 102 179
f 179 173 174
f 102 173 179
f 107 105 180
f 180 105 178
f 181 107 180
f 108 107 181
f 98 108 181
f 97 108 98
f 174 177 124
f 98 181 180
f 114 179 174
f 114 174 124
f 182 178 179
f 183 49 98
f 183 180 178
f 183 178 182
f 183 98 180
f 184 114 185
f 184 179 114
f 184 182 179
f 48 49 183
f 186 142 187
f 187 142 188
f 142 189 188
f 189 137 190
f 142 137 189
f 190 124 177
f 137 124 190
f 172 190 171
f 189 190 172
f 190 170 171
f 190 177 170
f 191 192 193
f 191 193 194
f 195 194 187
f 195 191 194
f 188 195 187
f 196 195 188
f 189 196 188
f 172 196 189
f 186 187 194
f 197 186 194
f 197 194 193
f 198 199 200
f 198 193 199
f 198 197 193
f 201 202 203
f 201 200 202
f 201 198 200
f 204 203 205
f 204 201 203
f 206 205 207
f 206 204 205
f 208 207 209
f 208 206 207
f 210 209 211
f 210 208 209
f 212 211 213
f 212 210 211
f 214 213 215
f 214 212 213
f 216 215 217
f 216 214 215
f 218 217 219
f 218 216 217
f 220 219 221
f 220 218 219
f 222 221 223
f 222 220 221
f 224 223 225
f 224 222 223
f 226 225 227
f 226 224 225
f 228 227 229
f 228 226 227
f 230 229 231
f 230 228 229
f 232 230 231
f 232 231 233
f 234 232 233
f 234 233 235
f 236 235 237
f 236 234 235
f 238 237 239
f 238 236 237
f 240 239 241
f 240 238 239
f 242 241 243
f 242 240 241
f 244 243 245
f 244 242 243
f 246 244 245
f 246 245 247
f 248 246 247
f 248 247 249
f 250 248 249
f 250 249 251
f 252 250 251
f 252 251 253
f 254 252 253
f 254 253 255
f 256 254 255
f 256 255 257
f 258 256 257
f 258 257 259
f 260 258 259
f 260 259 261
f 262 260 261
f 262 261 263
f 264 262 263
f 264 263 265
f 266 264 265
f 266 265 267
f 268 266 267
f 268 267 269
f 270 268 269
f 270 269 271
f 272 271 273
f 272 270 271
f 274 273 275
f 274 272 273
f 276 275 277
f 276 274 275
f 278 277 279
f 278 276 277
f 280 279 281
f 280 278 279
f 282 280 281
f 282 281 283
f 284 282 283
f 284 283 285
f 286 284 285
f 286 285 287
f 288 286 287
f 288 287 289
f 290 288 289
f 290 289 291
f 292 290 291
f 292 291 293
f 294 292 293
f 294 293 295
f 296 294 295
f 296 295 297
f 298 296 297
f 298 297 299
f 300 298 299
f 300 299 301
f 302 300 301
f 302 301 303
f 304 302 303
f 304 303 305
f 306 304 305
f 306 305 307
f 308 306 307
f 308 307 309
f 310 308 309
f 310 309 311
f 312 310 311
f 312 311 313
f 314 313 315
f 314 312 313
f 316 314 315
f 316 315 317
f 200 318 202
f 199 318 200
f 318 319 202
f 203 319 205
f 202 319 203
f 319 320 205
f 207 320 209
f 205 320 207
f 199 321 318
f 193 321 199
f 320 322 209
f 211 322 213
f 209 322 211
f 193 323 321
f 322 324 213
f 213 324 215
f 193 325 323
f 324 326 215
f 217 326 219
f 215 326 217
f 193 327 325
f 326 328 219
f 221 328 223
f 219 328 221
f 193 329 327
f 328 330 223
f 225 330 227
f 223 330 225
f 193 331 329
f 330 332 227
f 229 332 231
f 227 332 229
f 193 333 331
f 332 334 231
f 233 334 235
f 231 334 233
f 334 335 235
f 237 335 239
f 235 335 237
f 335 336 239
f 241 336 243
f 239 336 241
f 336 337 243
f 245 337 247
f 243 337 245
f 193 192 333
f 338 192 339
f 340 192 338
f 341 192 340
f 333 192 341
f 337 342 247
f 249 342 251
f 247 342 249
f 192 343 339
f 253 344 255
f 251 344 253
f 342 344 251
f 345 346 192
f 192 346 343
f 255 347 257
f 344 347 255
f 348 349 345
f 345 349 346
f 347 259 257
f 348 350 349
f 347 351 259
f 350 352 349
f 351 261 259
f 350 353 352
f 354 263 351
f 351 263 261
f 353 355 352
f 352 355 356
f 354 265 263
f 355 357 356
f 358 267 354
f 354 267 265
f 357 359 356
f 356 359 360
f 358 269 267
f 359 361 360
f 358 271 269
f 362 271 358
f 361 363 360
f 360 363 364
f 362 273 271
f 363 365 364
f 366 275 362
f 362 275 273
f 364 367 368
f 365 367 364
f 366 277 275
f 367 369 368
f 370 279 366
f 366 279 277
f 368 371 372
f 369 371 368
f 370 281 279
f 371 373 372
f 374 283 370
f 370 283 281
f 372 375 376
f 373 375 372
f 374 285 283
f 375 377 376
f 378 287 374
f 374 287 285
f 377 379 376
f 376 379 380
f 378 289 287
f 379 381 380
f 382 291 378
f 378 291 289
f 380 383 384
f 381 383 380
f 382 293 291
f 385 386 387
f 385 388 386
f 384 388 385
f 389 295 382
f 382 295 293
f 386 390 387
f 387 390 391
f 383 392 384
f 384 392 388
f 393 392 383
f 390 394 391
f 395 394 396
f 391 394 395
f 393 397 392
f 398 397 393
f 389 297 295
f 394 399 396
f 396 399 400
f 398 401 397
f 400 402 403
f 399 402 400
f 404 299 389
f 389 299 297
f 403 405 406
f 402 405 403
f 404 301 299
f 404 303 301
f 407 303 404
f 405 408 406
f 407 305 303
f 407 307 305
f 409 307 407
f 409 309 307
f 406 311 409
f 408 311 406
f 409 311 309
f 410 313 408
f 408 313 311
f 410 315 313
f 410 317 315
f 331 333 411
f 331 411 412
f 329 412 413
f 329 331 412
f 327 413 414
f 327 329 413
f 325 414 415
f 325 327 414
f 323 415 416
f 323 325 415
f 321 416 417
f 321 323 416
f 318 417 418
f 318 321 417
f 319 418 419
f 319 318 418
f 320 319 419
f 320 419 420
f 322 320 420
f 322 420 421
f 324 322 421
f 324 421 422
f 326 324 422
f 326 422 423
f 328 423 424
f 328 326 423
f 330 424 425
f 330 328 424
f 332 330 425
f 332 425 426
f 334 332 426
f 334 426 427
f 335 427 428
f 335 334 427
f 336 428 429
f 336 335 428
f 337 429 430
f 337 336 429
f 342 430 431
f 342 337 430
f 344 431 432
f 344 342 431
f 347 432 433
f 347 344 432
f 351 433 434
f 351 347 433
f 354 434 435
f 354 351 434
f 358 435 436
f 358 354 435
f 362 436 437
f 362 358 436
f 366 437 438
f 366 362 437
f 370 438 439
f 370 366 438
f 374 439 440
f 374 370 439
f 378 440 441
f 378 374 440
f 382 378 441
f 382 442 443
f 382 441 442
f 389 382 443
f 404 443 444
f 404 389 443
f 407 444 445
f 407 404 444
f 409 445 446
f 409 407 445
f 406 446 447
f 406 409 446
f 403 447 448
f 403 406 447
f 400 448 449
f 400 403 448
f 396 400 449
f 396 449 450
f 395 396 450
f 395 450 451
f 391 395 451
f 391 451 452
f 387 391 452
f 387 452 453
f 385 453 454
f 385 387 453
f 384 455 456
f 384 454 455
f 384 385 454
f 380 384 456
f 376 456 457
f 376 380 456
f 372 457 458
f 372 376 457
f 368 458 459
f 368 372 458
f 364 459 460
f 364 368 459
f 360 460 461
f 360 364 460
f 356 462 463
f 356 461 462
f 356 360 461
f 352 356 463
f 349 463 464
f 349 352 463
f 346 464 465
f 346 349 464
f 343 465 466
f 343 346 465
f 339 467 468
f 339 466 467
f 339 343 466
f 338 339 468
f 340 468 469
f 340 338 468
f 341 470 411
f 341 469 470
f 341 340 469
f 333 341 411
f 419 471 420
f 418 471 419
f 417 471 418
f 417 472 471
f 416 472 417
f 415 472 416
f 471 473 420
f 421 473 422
f 420 473 421
f 415 474 472
f 414 474 415
f 413 474 414
f 412 474 413
f 473 475 422
f 424 475 425
f 423 475 424
f 422 475 423
f 426 476 427
f 425 476 426
f 475 476 425
f 470 477 411
f 412 477 474
f 411 477 412
f 469 478 470
f 468 478 469
f 467 478 468
f 470 478 477
f 476 479 427
f 429 479 430
f 428 479 429
f 427 479 428
f 431 480 432
f 430 480 431
f 479 480 430
f 466 481 467
f 465 481 466
f 467 481 478
f 432 482 433
f 480 482 432
f 464 483 465
f 465 483 481
f 482 434 433
f 464 463 483
f 484 435 482
f 482 435 434
f 463 462 483
f 483 462 485
f 484 436 435
f 462 461 485
f 486 437 484
f 484 437 436
f 485 460 487
f 461 460 485
f 486 438 437
f 460 459 487
f 459 458 487
f 486 439 438
f 458 457 487
f 487 457 488
f 486 440 439
f 489 440 486
f 457 456 488
f 489 441 440
f 489 442 441
f 490 442 489
f 456 455 488
f 488 455 491
f 455 454 491
f 490 443 442
f 454 453 491
f 490 444 443
f 453 452 491
f 491 452 492
f 490 445 444
f 493 445 490
f 452 451 492
f 493 446 445
f 451 450 492
f 492 450 494
f 493 447 446
f 494 447 493
f 450 449 494
f 494 448 447
f 449 448 494
f 495 496 477
f 477 496 474
f 474 497 472
f 496 497 474
f 472 498 471
f 497 498 472
f 471 499 473
f 498 499 471
f 473 500 475
f 499 500 473
f 475 501 476
f 500 501 475
f 476 502 479
f 501 502 476
f 479 503 480
f 502 503 479
f 480 504 482
f 503 504 480
f 482 505 484
f 504 505 482
f 484 506 486
f 505 506 484
f 486 507 489
f 506 507 486
f 508 507 506
f 508 506 505
f 508 505 504
f 508 504 503
f 508 503 502
f 508 502 501
f 508 501 500
f 508 500 499
f 508 499 498
f 508 498 497
f 508 497 496
f 508 496 495
f 508 495 509
f 508 509 510
f 508 511 512
f 508 512 513
f 508 513 514
f 508 514 515
f 508 515 516
f 508 516 517
f 508 517 518
f 508 518 507
f 507 518 489
f 489 518 490
f 490 517 493
f 518 517 490
f 493 516 494
f 517 516 493
f 494 515 492
f 516 515 494
f 492 514 491
f 515 514 492
f 491 513 488
f 514 513 491
f 488 512 487
f 513 512 488
f 487 511 485
f 512 511 487
f 485 508 483
f 511 508 485
f 483 510 481
f 508 510 483
f 481 509 478
f 510 509 481
f 478 495 477
f 509 495 478
f 401 519 397
f 519 520 397
f 397 521 392
f 520 521 397
f 392 522 388
f 521 522 392
f 388 523 386
f 522 523 388
f 386 524 390
f 523 524 386
f 390 525 394
f 524 525 390
f 394 526 399
f 525 526 394
f 399 527 402
f 526 527 399
f 402 528 405
f 527 528 402
f 405 529 408
f 528 529 405
f 408 530 410
f 529 530 408
f 410 316 317
f 530 316 410
f 531 532 204
f 533 204 532
f 534 204 206
f 534 206 208
f 534 531 204
f 535 204 533
f 536 208 210
f 536 210 212
f 536 534 208
f 537 204 535
f 538 212 214
f 538 214 216
f 538 536 212
f 539 204 537
f 540 216 218
f 540 218 220
f 540 538 216
f 541 204 539
f 542 220 222
f 542 222 224
f 542 540 220
f 543 204 541
f 544 224 226
f 544 226 228
f 544 542 224
f 545 204 543
f 546 228 230
f 546 230 232
f 546 544 228
f 547 232 234
f 547 234 236
f 547 546 232
f 548 236 238
f 548 238 240
f 548 547 236
f 549 240 242
f 549 242 244
f 549 548 240
f 550 549 244
f 550 244 246
f 551 550 246
f 551 246 248
f 551 248 250
f 552 551 250
f 552 250 252
f 552 252 254
f 553 552 254
f 553 254 256
f 258 553 256
f 554 553 258
f 260 554 258
f 262 554 260
f 262 555 554
f 556 545 557
f 556 557 558
f 556 558 559
f 556 559 560
f 556 560 561
f 556 561 562
f 556 562 563
f 556 563 564
f 556 564 565
f 556 204 545
f 264 555 262
f 566 556 565
f 266 555 264
f 266 567 555
f 568 565 569
f 568 566 565
f 268 567 266
f 570 568 569
f 270 567 268
f 270 571 567
f 572 569 573
f 572 570 569
f 272 571 270
f 574 572 573
f 274 571 272
f 274 575 571
f 576 574 573
f 576 573 577
f 276 575 274
f 578 576 577
f 278 575 276
f 278 579 575
f 580 577 581
f 580 578 577
f 280 579 278
f 582 580 581
f 282 579 280
f 282 583 579
f 584 582 581
f 584 581 585
f 284 583 282
f 586 584 585
f 286 583 284
f 286 587 583
f 588 585 589
f 588 586 585
f 288 587 286
f 590 588 589
f 290 587 288
f 290 591 587
f 592 589 593
f 592 590 589
f 292 591 290
f 523 594 595
f 294 591 292
f 294 596 591
f 522 594 523
f 522 593 594
f 524 523 595
f 524 595 597
f 521 598 592
f 521 592 593
f 521 593 522
f 525 597 599
f 525 599 600
f 525 524 597
f 520 601 598
f 520 598 521
f 296 596 294
f 526 525 600
f 526 600 602
f 519 601 520
f 527 602 603
f 527 526 602
f 298 604 596
f 298 596 296
f 528 603 605
f 528 527 603
f 300 604 298
f 302 606 604
f 302 604 300
f 529 528 605
f 304 606 302
f 306 606 304
f 306 607 606
f 308 607 306
f 310 529 605
f 310 607 308
f 310 605 607
f 312 530 529
f 312 529 310
f 314 530 312
f 316 530 314
f 608 587 609
f 587 591 609
f 609 596 610
f 591 596 609
f 610 604 611
f 596 604 610
f 611 606 612
f 604 606 611
f 612 607 613
f 606 607 612
f 613 605 614
f 607 605 613
f 614 603 615
f 605 603 614
f 615 602 616
f 603 602 615
f 602 600 616
f 616 600 617
f 600 599 617
f 617 599 618
f 618 597 619
f 599 597 618
f 619 595 620
f 597 595 619
f 620 594 621
f 595 594 620
f 621 593 622
f 594 593 621
f 622 589 623
f 593 589 622
f 623 585 624
f 589 585 623
f 624 581 625
f 585 581 624
f 625 577 626
f 581 577 625
f 626 573 627
f 577 573 626
f 627 569 628
f 573 569 627
f 628 565 629
f 569 565 628
f 629 564 630
f 565 564 629
f 630 563 631
f 564 563 630
f 631 562 632
f 563 562 631
f 632 561 633
f 562 561 632
f 633 560 634
f 561 560 633
f 634 559 635
f 560 559 634
f 635 558 636
f 559 558 635
f 636 557 637
f 558 557 636
f 637 545 638
f 557 545 637
f 639 640 641
f 639 641 642
f 639 642 643
f 644 645 646
f 644 646 640
f 644 640 639
f 647 639 643
f 647 643 648
f 647 648 649
f 650 651 652
f 650 652 653
f 650 653 645
f 650 645 644
f 654 647 649
f 654 649 655
f 654 655 656
f 654 656 657
f 658 651 650
f 658 637 638
f 658 638 651
f 659 654 657
f 659 657 660
f 659 660 661
f 662 659 661
f 662 661 663
f 662 663 664
f 662 664 665
f 666 637 658
f 666 634 635
f 666 635 636
f 666 636 637
f 667 634 666
f 667 632 633
f 667 633 634
f 668 665 669
f 668 662 665
f 668 669 670
f 671 670 672
f 671 668 670
f 673 631 632
f 673 632 667
f 674 671 672
f 630 631 673
f 675 671 674
f 675 676 671
f 629 673 677
f 629 630 673
f 678 676 675
f 628 629 677
f 679 676 678
f 679 680 676
f 627 677 681
f 627 628 677
f 626 627 681
f 682 680 679
f 625 626 681
f 683 680 682
f 624 625 681
f 624 681 684
f 685 686 680
f 685 680 683
f 608 686 685
f 623 624 684
f 609 686 608
f 609 687 686
f 622 623 684
f 622 684 688
f 621 622 688
f 610 687 609
f 611 687 610
f 620 621 688
f 612 687 611
f 612 689 687
f 619 620 688
f 619 688 690
f 618 619 690
f 613 689 612
f 617 618 690
f 617 690 691
f 614 689 613
f 614 691 689
f 615 691 614
f 616 617 691
f 616 691 615
f 638 545 651
f 545 543 651
f 651 541 652
f 543 541 651
f 652 539 653
f 541 539 652
f 653 537 645
f 539 537 653
f 645 535 646
f 537 535 645
f 646 533 640
f 535 533 646
f 640 532 641
f 533 532 640
f 641 531 642
f 532 531 641
f 531 534 642
f 642 534 643
f 534 536 643
f 643 536 648
f 648 538 649
f 536 538 648
f 649 540 655
f 538 540 649
f 655 542 656
f 540 542 655
f 656 544 657
f 542 544 656
f 657 546 660
f 660 546 661
f 544 546 657
f 661 547 663
f 546 547 661
f 547 548 663
f 663 549 664
f 548 549 663
f 664 550 665
f 549 550 664
f 665 551 669
f 550 551 665
f 669 552 670
f 670 552 672
f 551 552 669
f 552 553 672
f 672 554 674
f 553 554 672
f 674 555 675
f 554 555 674
f 675 567 678
f 555 567 675
f 678 571 679
f 567 571 678
f 679 575 682
f 571 575 679
f 682 579 683
f 575 579 682
f 683 583 685
f 579 583 683
f 685 587 608
f 583 587 685
f 692 686 687
f 693 692 687
f 694 687 689
f 694 693 687
f 695 689 691
f 695 694 689
f 696 691 690
f 696 695 691
f 697 690 688
f 697 696 690
f 698 688 684
f 698 697 688
f 699 684 681
f 699 698 684
f 700 681 677
f 700 699 681
f 701 677 673
f 701 700 677
f 702 673 667
f 702 701 673
f 703 667 666
f 703 702 667
f 704 666 658
f 704 703 666
f 704 658 650
f 705 704 650
f 706 650 644
f 706 705 650
f 707 644 639
f 707 706 644
f 708 639 647
f 708 707 639
f 709 647 654
f 709 708 647
f 710 654 659
f 710 709 654
f 711 659 662
f 711 710 659
f 712 662 668
f 712 711 662
f 713 668 671
f 713 712 668
f 714 671 676
f 714 713 671
f 715 676 680
f 715 714 676
f 692 680 686
f 692 715 680
f 706 707 708
f 710 708 709
f 711 708 710
f 713 711 712
f 713 708 711
f 714 705 706
f 714 706 708
f 714 708 713
f 700 701 702
f 715 705 714
f 692 703 704
f 692 704 705
f 692 705 715
f 698 699 700
f 693 703 692
f 697 698 700
f 694 702 703
f 694 700 702
f 694 703 693
f 695 696 697
f 695 697 700
f 695 700 694
f 556 716 204
f 204 716 201
f 201 717 198
f 716 717 201
f 519 401 398
f 601 398 393
f 601 519 398
f 598 393 383
f 598 601 393
f 592 383 381
f 592 598 383
f 590 381 379
f 590 592 381
f 588 379 377
f 588 590 379
f 586 377 375
f 586 588 377
f 584 375 373
f 584 586 375
f 582 373 371
f 582 584 373
f 580 371 369
f 580 582 371
f 578 369 367
f 578 580 369
f 576 367 365
f 576 578 367
f 574 365 363
f 574 576 365
f 572 363 361
f 572 574 363
f 570 572 361
f 570 361 359
f 568 359 357
f 568 570 359
f 566 357 355
f 566 568 357
f 556 355 353
f 556 566 355
f 716 350 348
f 716 353 350
f 716 556 353
f 717 345 192
f 717 348 345
f 717 716 348
f 718 192 191
f 718 717 192
f 719 191 195
f 719 718 191
f 197 198 717
f 197 717 718
f 186 718 719
f 186 719 145
f 186 197 718
f 142 186 145
f 141 143 172
f 172 143 196
f 143 144 196
f 196 145 195
f 144 145 196
f 145 719 195
f 104 106 182
f 182 106 183
f 183 109 48
f 106 109 183
f 104 182 184
f 99 104 184
f 100 114 101
f 185 114 100
f 99 185 100
f 184 185 99
f 48 84 38
f 96 84 48
f 109 96 48
f 53 56 36
f 53 36 89
f 38 89 36
f 84 89 38
f 54 89 82
f 53 89 54
f 59 52 10
f 59 10 9
f 62 9 13
f 62 59 9
f 65 13 12
f 65 62 13
f 68 12 16
f 68 65 12
f 71 16 15
f 71 68 16
f 74 15 19
f 74 71 15
f 77 19 18
f 77 74 19
f 80 18 21
f 80 77 18
f 81 21 22
f 81 80 21
f 79 22 24
f 79 81 22
f 75 24 25
f 75 79 24
f 73 25 27
f 73 75 25
f 69 27 28
f 69 73 27
f 67 28 30
f 67 69 28
f 63 67 30
f 63 30 31
f 61 63 31
f 61 31 33
f 57 61 33
f 57 33 34
f 56 57 34
f 56 34 36
f 110 146 176
f 111 175 173
f 111 176 175
f 111 110 176
f 112 173 102
f 112 111 173
f 103 112 102
f 39 37 83
f 39 83 88
f 40 88 87
f 40 39 88
f 41 87 86
f 41 40 87
f 42 86 85
f 42 41 86
f 43 85 90
f 43 42 85
f 44 90 91
f 44 43 90
f 45 91 92
f 45 44 91
f 46 92 93
f 46 45 92
f 47 93 94
f 47 46 93
