# smartdrone2 body-local mesh, millimetres
v 127.819203 -34.912374 -44.025434
v 127.591365 -34.874674 -43.998790
v 127.587590 -34.912376 -43.956096
v 127.442094 -34.849679 -43.952597
v 127.378211 -34.912376 -43.835212
v 127.224467 -34.811497 -43.838652
v 127.202359 -34.912391 -43.669296
v 127.097105 -34.786998 -43.738785
v 127.056172 -34.901055 -43.465931
v 126.923577 -34.748366 -43.542464
v 126.835824 -34.723880 -43.396228
v 126.962156 -34.889842 -43.233482
v 126.766383 -34.698707 -43.231154
v 126.925255 -34.878794 -42.986511
v 126.712345 -34.665970 -43.000000
v 126.946397 -34.867838 -42.737632
v 126.646374 -34.600000 -43.000000
v 126.680312 -34.600000 -42.698790
v 126.780425 -34.600000 -42.412684
v 127.023625 -34.857034 -42.500795
v 126.941693 -34.600000 -42.156028
v 127.152163 -34.846345 -42.287813
v 127.156028 -34.600000 -41.941693
v 127.324777 -34.835766 -42.109116
v 127.412684 -34.600000 -41.780425
v 127.532039 -34.825329 -41.973338
v 127.698790 -34.600000 -41.680312
v 127.759576 -34.815172 -41.887224
v 128.000000 -34.805114 -41.851488
v 128.000000 -34.600000 -41.646374
v 129.041250 -36.500289 -43.000000
v 129.036354 -36.455451 -42.899148
v 129.041250 -36.448208 -43.000000
v 129.011089 -36.518295 -42.751201
v 129.021726 -36.462668 -42.799307
v 128.978474 -36.474239 -42.643865
v 128.922197 -36.536303 -42.516518
v 128.870356 -36.491495 -42.428438
v 128.779731 -36.554310 -42.309912
v 128.715814 -36.508777 -42.243818
v 128.591943 -36.572349 -42.143376
v 128.515182 -36.526679 -42.095130
v 128.369840 -36.590355 -42.026645
v 128.285265 -36.544615 -41.998589
v 128.127034 -36.608306 -41.966528
v 128.039065 -36.562466 -41.959483
v 127.876160 -36.626326 -41.966141
v 127.790142 -36.580477 -41.980117
v 127.632362 -36.644354 -42.025811
v 127.553483 -36.598324 -42.059349
v 127.409942 -36.662354 -42.142076
v 127.342892 -36.616284 -42.192281
v 127.221818 -36.680375 -42.308166
v 127.169426 -36.634112 -42.372029
v 127.078868 -36.698411 -42.514492
v 127.044061 -36.652064 -42.587226
v 126.989479 -36.716411 -42.748903
v 126.973325 -36.669924 -42.826397
v 126.966460 -36.725498 -42.873519
v 126.958750 -36.734564 -43.000000
v 126.961462 -36.687883 -43.075107
v 126.988655 -36.752496 -43.247757
v 127.009230 -36.705712 -43.320275
v 127.076676 -36.770418 -43.481326
v 127.113653 -36.723670 -43.546434
v 127.217860 -36.788331 -43.687356
v 127.269097 -36.741521 -43.741608
v 127.403695 -36.806240 -43.853593
v 127.466727 -36.759510 -43.894328
v 127.623749 -36.824153 -43.970895
v 127.694636 -36.777395 -43.995466
v 127.790646 -36.836610 -44.019987
v 127.939985 -36.795285 -44.039519
v 127.963633 -36.849106 -44.040604
v 128.189237 -36.813215 -44.023910
v 128.204618 -36.849100 -44.020947
v 128.427456 -36.831112 -43.949465
v 128.434570 -36.849100 -43.946229
v 128.641069 -36.849080 -43.820464
v 129.041250 -36.031729 -43.000000
v 129.032112 -35.989533 -42.862358
v 129.041250 -35.979628 -43.000000
v 129.028736 -36.043299 -42.839057
v 129.004865 -35.999415 -42.727150
v 129.008351 -36.050535 -42.740327
v 128.978465 -36.057750 -42.643868
v 128.911078 -36.017337 -42.495880
v 128.865401 -36.075711 -42.420964
v 128.764624 -36.035272 -42.293211
v 128.702649 -36.093622 -42.231569
v 128.574133 -36.053240 -42.131339
v 128.499361 -36.111573 -42.086304
v 128.350880 -36.071160 -42.019651
v 128.267380 -36.129512 -41.993665
v 128.106795 -36.089108 -41.964241
v 128.019991 -36.147431 -41.958942
v 127.856568 -36.107092 -41.968676
v 127.771435 -36.165374 -41.984146
v 127.614629 -36.125065 -42.032689
v 127.536732 -36.183257 -42.067485
v 127.394931 -36.143011 -42.152597
v 127.328113 -36.201174 -42.204532
v 127.210184 -36.160999 -42.321478
v 127.157986 -36.219101 -42.387452
v 127.071092 -36.178967 -42.529541
v 127.036312 -36.237056 -42.605657
v 126.985716 -36.196913 -42.764565
v 126.970120 -36.254983 -42.846546
v 126.958827 -36.214834 -43.012671
v 126.963196 -36.272904 -43.096117
v 126.991784 -36.232756 -43.260193
v 127.015665 -36.290786 -43.339538
v 127.082829 -36.250689 -43.492948
v 127.124861 -36.308725 -43.564210
v 127.226941 -36.268671 -43.697554
v 127.284447 -36.326642 -43.756429
v 127.415721 -36.286643 -43.861870
v 127.485199 -36.344585 -43.905087
v 127.638283 -36.304593 -43.976403
v 127.715577 -36.362529 -44.001651
v 127.881725 -36.322582 -44.034511
v 127.962346 -36.380451 -44.040569
v 128.131982 -36.340548 -44.032852
v 128.211304 -36.398386 -44.019584
v 128.374623 -36.358497 -43.971524
v 128.448068 -36.416335 -43.939913
v 128.595648 -36.376487 -43.854052
v 128.659033 -36.434261 -43.806149
v 128.781781 -36.394410 -43.687764
v 128.832075 -36.452183 -43.625982
v 128.923135 -36.412332 -43.481688
v 128.957237 -36.470138 -43.409755
v 129.011216 -36.430253 -43.248283
v 129.020091 -36.485233 -43.208842
v 129.041250 -35.563184 -43.000000
v 129.031865 -35.521087 -42.860513
v 129.041250 -35.511083 -43.000000
v 129.011220 -35.581121 -42.751736
v 129.003889 -35.531130 -42.723579
v 128.922860 -35.599072 -42.517786
v 128.909031 -35.549058 -42.492196
v 128.781247 -35.617048 -42.311629
v 128.761753 -35.567022 -42.290117
v 128.594576 -35.634981 -42.145201
v 128.570560 -35.584981 -42.128988
v 128.373622 -35.652937 -42.028091
v 128.346459 -35.602913 -42.018080
v 128.131114 -35.670909 -41.967038
v 128.102846 -35.620838 -41.963842
v 127.881010 -35.688844 -41.965571
v 127.853332 -35.638768 -41.969131
v 127.638431 -35.706747 -42.023543
v 127.612547 -35.656651 -42.033521
v 127.416359 -35.724692 -42.137698
v 127.393424 -35.674594 -42.153675
v 127.228139 -35.742576 -42.301121
v 127.209136 -35.692557 -42.322699
v 127.083775 -35.760529 -42.505294
v 127.070457 -35.710488 -42.530796
v 126.992237 -35.778500 -42.738053
v 126.985401 -35.728455 -42.765926
v 126.958846 -35.796433 -42.985893
v 126.958852 -35.746412 -43.014547
v 126.985507 -35.814391 -43.234535
v 126.992342 -35.764342 -43.262348
v 127.070689 -35.832362 -43.469663
v 127.083953 -35.782312 -43.495035
v 127.209495 -35.850294 -43.677719
v 127.227878 -35.800218 -43.698591
v 127.393890 -35.868259 -43.846660
v 127.416381 -35.818124 -43.862317
v 127.613235 -35.886223 -43.966754
v 127.638067 -35.836029 -43.976323
v 127.854902 -35.904157 -44.031091
v 127.881279 -35.853987 -44.034460
v 128.104417 -35.922081 -44.036001
v 128.131334 -35.871920 -44.032934
v 128.348044 -35.940019 -43.981360
v 128.373791 -35.889887 -43.971845
v 128.571876 -35.957939 -43.870149
v 128.594697 -35.907842 -43.854715
v 128.762311 -35.975846 -43.709283
v 128.781328 -35.925773 -43.688279
v 128.909441 -35.993815 -43.507068
v 128.922896 -35.943746 -43.482146
v 129.004115 -36.011742 -43.275599
v 129.011228 -35.961696 -43.248231
v 129.031920 -36.021742 -43.139078
v 127.384656 -34.930309 -43.839972
v 127.602357 -34.948244 -43.962331
v 127.842341 -34.966132 -44.029245
v 127.974954 -34.923569 -44.040949
v 128.091762 -34.984041 -44.037199
v 128.131260 -34.934812 -44.032944
v 128.336157 -35.001980 -43.985495
v 128.373707 -34.952739 -43.971877
v 128.561225 -35.019931 -43.877057
v 128.594832 -34.970723 -43.854621
v 128.753989 -35.037843 -43.718124
v 128.781553 -34.988693 -43.688024
v 128.903330 -35.055787 -43.517877
v 128.923137 -35.006640 -43.481685
v 129.000678 -35.073733 -43.287829
v 129.011298 -35.024583 -43.247947
v 129.031059 -35.084163 -43.145325
v 129.041250 -35.042526 -43.000000
v 129.041250 -35.094605 -43.000000
v 129.595614 -34.600000 -41.840719
v 128.895656 -34.600000 -41.985060
v 129.319718 -34.600000 -41.534305
v 128.986143 -34.600000 -41.291949
v 129.801774 -34.600000 -42.197799
v 129.112023 -34.600000 -42.228179
v 128.627513 -34.600000 -41.800613
v 128.609470 -34.600000 -41.124244
v 129.929188 -34.600000 -42.589938
v 129.264106 -34.600000 -42.515916
v 128.323095 -34.600000 -41.685499
v 128.206160 -34.600000 -41.038517
v 129.972287 -34.600000 -43.000000
v 129.343114 -34.600000 -42.831636
v 127.793840 -34.600000 -41.038517
v 129.929188 -34.600000 -43.410062
v 129.344480 -34.600000 -43.157089
v 127.390530 -34.600000 -41.124244
v 129.801774 -34.600000 -43.802201
v 129.268124 -34.600000 -43.473461
v 127.013857 -34.600000 -41.291949
v 129.118460 -34.600000 -43.762463
v 129.595614 -34.600000 -44.159281
v 126.680282 -34.600000 -41.534305
v 128.904141 -34.600000 -44.007389
v 129.319718 -34.600000 -44.465695
v 126.404386 -34.600000 -41.840719
v 128.986143 -34.600000 -44.708051
v 128.637555 -34.600000 -44.194080
v 126.198226 -34.600000 -42.197799
v 128.609470 -34.600000 -44.875756
v 128.334114 -34.600000 -44.311743
v 126.598085 -34.600000 -43.000000
v 126.070812 -34.600000 -42.589938
v 128.206160 -34.600000 -44.961483
v 128.011358 -34.600000 -44.353578
v 126.638116 -34.600000 -43.226590
v 126.027713 -34.600000 -43.000000
v 127.793840 -34.600000 -44.961483
v 127.687946 -34.600000 -44.317165
v 126.681982 -34.600000 -43.363392
v 126.070812 -34.600000 -43.410062
v 127.390530 -34.600000 -44.875756
v 127.382572 -34.600000 -44.204610
v 126.740017 -34.600000 -43.494668
v 126.198226 -34.600000 -43.802201
v 126.894492 -34.600000 -43.781124
v 127.013857 -34.600000 -44.708051
v 127.112891 -34.600000 -44.022419
v 126.404386 -34.600000 -44.159281
v 126.680282 -34.600000 -44.465695
v 130.284662 -34.756187 -43.000000
v 130.423460 -34.834875 -42.699356
v 130.597037 -34.912375 -43.000000
v 129.964320 -34.738528 -41.904102
v 130.111707 -34.750292 -42.159383
v 129.819204 -34.745733 -41.652754
v 128.033084 -34.738528 -40.750900
v 128.327858 -34.750292 -40.750900
v 127.742853 -34.745733 -40.750900
v 126.068764 -34.738528 -41.846798
v 126.216151 -34.750292 -41.591517
v 125.923649 -34.745733 -42.098146
v 126.035680 -34.738528 -44.095898
v 125.888293 -34.750292 -43.840617
v 126.180796 -34.745733 -44.347246
v 127.966916 -34.738528 -45.249100
v 127.672142 -34.750292 -45.249100
v 128.257147 -34.745733 -45.249100
v 129.931236 -34.738528 -44.153202
v 129.783849 -34.750292 -44.408483
v 130.076351 -34.745733 -43.901854
v 130.402762 -34.826961 -43.336494
v 130.206814 -34.756188 -42.408686
v 130.263350 -34.781846 -42.422037
v 129.615500 -34.756188 -41.384500
v 129.492793 -34.826961 -41.087394
v 129.670849 -34.772003 -41.395795
v 129.142331 -34.756188 -41.021425
v 128.951365 -34.834875 -40.750900
v 129.298518 -34.912375 -40.750900
v 128.591314 -34.756188 -40.793186
v 128.631145 -34.781846 -40.750900
v 127.408686 -34.756188 -40.793186
v 127.446142 -34.772003 -40.750900
v 127.090031 -34.826961 -40.750900
v 126.857669 -34.756188 -41.021425
v 126.527905 -34.834875 -41.051544
v 126.701482 -34.912375 -40.750900
v 126.384500 -34.756188 -41.384500
v 126.367795 -34.781846 -41.328863
v 125.793186 -34.756188 -42.408686
v 125.775293 -34.772003 -42.355105
v 125.597238 -34.826961 -42.663506
v 125.715338 -34.756188 -43.000000
v 125.402963 -34.912375 -43.000000
v 125.576540 -34.834875 -43.300644
v 125.793186 -34.756188 -43.591314
v 125.736650 -34.781846 -43.577963
v 126.384500 -34.756188 -44.615500
v 126.329151 -34.772003 -44.604205
v 126.507207 -34.826961 -44.912606
v 126.857669 -34.756188 -44.978575
v 127.048635 -34.834875 -45.249100
v 126.701482 -34.912375 -45.249100
v 127.408686 -34.756188 -45.206814
v 127.368855 -34.781846 -45.249100
v 128.591314 -34.756188 -45.206814
v 128.909969 -34.826961 -45.249100
v 128.553858 -34.772003 -45.249100
v 129.142331 -34.756188 -44.978575
v 129.472095 -34.834875 -44.948456
v 129.298518 -34.912375 -45.249100
v 129.615500 -34.756188 -44.615500
v 129.632205 -34.781846 -44.671137
v 130.206814 -34.756188 -43.591314
v 130.224707 -34.772003 -43.644895
v 130.423460 -36.697525 -42.699356
v 130.597037 -36.620025 -43.000000
v 130.263350 -36.750554 -42.422037
v 130.111707 -36.782108 -42.159383
v 129.964320 -36.793872 -41.904102
v 129.819204 -36.786667 -41.652754
v 129.670849 -36.760397 -41.395795
v 129.492793 -36.705439 -41.087394
v 129.298518 -36.620025 -40.750900
v 129.472095 -36.697525 -44.948456
v 129.298518 -36.620025 -45.249100
v 129.632205 -36.750554 -44.671137
v 129.783849 -36.782108 -44.408483
v 129.931236 -36.793872 -44.153202
v 130.076351 -36.786667 -43.901854
v 130.224707 -36.760397 -43.644895
v 130.402762 -36.705439 -43.336494
v 127.048635 -36.697525 -45.249100
v 126.701482 -36.620025 -45.249100
v 127.368855 -36.750554 -45.249100
v 127.672142 -36.782108 -45.249100
v 127.966916 -36.793872 -45.249100
v 128.257147 -36.786667 -45.249100
v 128.553858 -36.760397 -45.249100
v 128.909969 -36.705439 -45.249100
v 125.576540 -36.697525 -43.300644
v 125.402963 -36.620025 -43.000000
v 125.736650 -36.750554 -43.577963
v 125.888293 -36.782108 -43.840617
v 126.035680 -36.793872 -44.095898
v 126.180796 -36.786667 -44.347246
v 126.329151 -36.760397 -44.604205
v 126.507207 -36.705439 -44.912606
v 126.527905 -36.697525 -41.051544
v 126.701482 -36.620025 -40.750900
v 126.367795 -36.750554 -41.328863
v 126.216151 -36.782108 -41.591517
v 126.068764 -36.793872 -41.846798
v 125.923649 -36.786667 -42.098146
v 125.775293 -36.760397 -42.355105
v 125.597238 -36.705439 -42.663506
v 128.951365 -36.697525 -40.750900
v 128.631145 -36.750554 -40.750900
v 128.327858 -36.782108 -40.750900
v 128.033084 -36.793872 -40.750900
v 127.742853 -36.786667 -40.750900
v 127.446142 -36.760397 -40.750900
v 127.090031 -36.705439 -40.750900
v 125.834966 -36.814818 -42.569348
v 125.960582 -36.814818 -42.155245
v 126.164572 -36.814818 -41.773606
v 126.439097 -36.814818 -41.439097
v 126.773606 -36.814818 -41.164572
v 127.155245 -36.814818 -40.960582
v 127.569348 -36.814818 -40.834966
v 128.000000 -36.814818 -40.792550
v 128.430652 -36.814818 -40.834966
v 128.844755 -36.814818 -40.960582
v 129.560903 -36.814818 -41.439097
v 129.226394 -36.814818 -41.164572
v 129.835428 -36.814818 -41.773606
v 130.039418 -36.814818 -42.155245
v 130.165034 -36.814818 -42.569348
v 130.039418 -36.814818 -43.844755
v 130.165034 -36.814818 -43.430652
v 129.835428 -36.814818 -44.226394
v 129.560903 -36.814818 -44.560903
v 129.226394 -36.814818 -44.835428
v 128.844755 -36.814818 -45.039418
v 128.430652 -36.814818 -45.165034
v 128.000000 -36.814818 -45.207450
v 127.569348 -36.814818 -45.165034
v 127.155245 -36.814818 -45.039418
v 126.439097 -36.814818 -44.560903
v 126.164572 -36.814818 -44.226394
v 125.960582 -36.814818 -43.844755
v 125.834966 -36.814818 -43.430652
v 125.609694 -36.717422 -42.760814
v 125.597757 -36.717422 -43.000000
v 125.792550 -36.814818 -43.000000
v 126.696672 -36.717422 -40.982053
v 126.904071 -36.717422 -40.862311
v 128.988012 -36.717422 -40.810341
v 129.201122 -36.717422 -40.919596
v 129.402294 -36.717422 -41.049527
v 130.399257 -36.717422 -42.880258
v 130.207450 -36.814818 -43.000000
v 130.399257 -36.717422 -43.119742
v 130.375412 -36.717422 -43.358036
v 129.402294 -36.717422 -44.950473
v 129.201122 -36.717422 -45.080404
v 128.988012 -36.717422 -45.189659
v 126.904071 -36.717422 -45.137689
v 126.773606 -36.814818 -44.835428
v 126.696672 -36.717422 -45.017947
v 126.502226 -36.717422 -44.878150
v 125.609694 -36.717422 -43.239186
v 128.000000 -37.598800 -45.207450
v 128.443959 -37.598800 -45.162345
v 128.869775 -37.598800 -45.028873
v 129.260047 -37.598800 -44.812489
v 129.598825 -37.598800 -44.522036
v 129.872266 -37.598800 -44.169383
v 130.069194 -37.598800 -43.768942
v 130.181562 -37.598800 -43.337077
v 130.204779 -37.598800 -42.891437
v 130.137894 -37.598800 -42.450234
v 129.983643 -37.598800 -42.031497
v 129.748327 -37.598800 -41.652339
v 129.441564 -37.598800 -41.328256
v 129.075890 -37.598800 -41.072489
v 128.666248 -37.598800 -40.895493
v 128.229379 -37.598800 -40.804500
v 127.783137 -37.598800 -40.803228
v 127.345757 -37.598800 -40.891730
v 126.935113 -37.598800 -41.066389
v 126.567987 -37.598800 -41.320067
v 126.259382 -37.598800 -41.642397
v 126.021909 -37.598800 -42.020208
v 125.865273 -37.598800 -42.438059
v 125.795876 -37.598800 -42.878874
v 125.816552 -37.598800 -43.324639
v 125.926457 -37.598800 -43.757137
v 126.121100 -37.598800 -44.158694
v 126.392527 -37.598800 -44.512900
v 126.729644 -37.598800 -44.805279
v 127.118676 -37.598800 -45.023883
v 127.543725 -37.598800 -45.159780
v 127.987420 -37.598800 -45.207414
v 127.991613 -37.598800 -45.207434
v 127.995806 -37.598800 -45.207446
v 127.987443 -37.635872 -45.203237
v 127.987514 -37.671085 -45.190916
v 128.443119 -37.635872 -45.158253
v 128.440641 -37.671085 -45.146184
v 128.436649 -37.702673 -45.126741
v 127.987627 -37.702673 -45.171068
v 128.431343 -37.729053 -45.100900
v 127.987777 -37.729053 -45.144689
v 128.424990 -37.748901 -45.069957
v 127.987957 -37.748901 -45.113101
v 128.417908 -37.761223 -45.035464
v 128.412933 -37.765400 -44.998638
v 127.988369 -37.765400 -45.040817
v 127.988158 -37.761223 -45.077888
v 128.868129 -37.635872 -45.025034
v 128.863274 -37.671085 -45.013709
v 128.855454 -37.702673 -44.995467
v 128.845059 -37.729053 -44.971221
v 128.832613 -37.748901 -44.942188
v 128.818739 -37.761223 -44.909824
v 128.819450 -37.765400 -44.869110
v 129.257662 -37.635872 -44.809060
v 129.250629 -37.671085 -44.798943
v 129.239299 -37.702673 -44.782646
v 129.224241 -37.729053 -44.760986
v 129.206210 -37.748901 -44.735050
v 129.190152 -37.765400 -44.657892
v 129.186110 -37.761223 -44.706137
v 129.595800 -37.635872 -44.519156
v 129.586875 -37.671085 -44.510660
v 129.572499 -37.702673 -44.496975
v 129.553393 -37.729053 -44.478786
v 129.508840 -37.765400 -44.374217
v 129.530514 -37.748901 -44.457006
v 129.505010 -37.761223 -44.432727
v 129.868723 -37.635872 -44.167170
v 129.858272 -37.671085 -44.160643
v 129.841438 -37.702673 -44.150129
v 129.819064 -37.729053 -44.136154
v 129.761584 -37.765400 -44.030481
v 129.792272 -37.748901 -44.119420
v 129.762405 -37.761223 -44.100766
v 130.065279 -37.635872 -43.767487
v 130.053729 -37.671085 -43.763195
v 130.035124 -37.702673 -43.756281
v 130.010396 -37.729053 -43.747092
v 129.937338 -37.765400 -43.641709
v 129.980786 -37.748901 -43.736088
v 129.947779 -37.761223 -43.723822
v 130.177434 -37.635872 -43.336439
v 130.165257 -37.671085 -43.334558
v 130.145642 -37.702673 -43.331527
v 130.028421 -37.765400 -43.224891
v 130.119571 -37.729053 -43.327499
v 130.088354 -37.748901 -43.322675
v 130.053553 -37.761223 -43.317298
v 130.200607 -37.635872 -42.891642
v 130.188300 -37.671085 -42.892248
v 130.168476 -37.702673 -42.893225
v 130.030853 -37.765400 -42.798244
v 130.142128 -37.729053 -42.894522
v 130.110578 -37.748901 -42.896075
v 130.075408 -37.761223 -42.897807
v 130.133849 -37.635872 -42.451274
v 130.121916 -37.671085 -42.454343
v 130.102693 -37.702673 -42.459286
v 130.077144 -37.729053 -42.465856
v 130.099283 -37.635872 -42.331104
v 130.046551 -37.748901 -42.473723
v 130.087543 -37.671085 -42.334845
v 130.012448 -37.761223 -42.482493
v 129.944526 -37.765400 -42.380415
v 130.068632 -37.702673 -42.340871
v 130.043497 -37.729053 -42.348880
v 130.013400 -37.748901 -42.358470
v 129.979849 -37.761223 -42.369160
v 129.979889 -37.635872 -42.033330
v 129.968817 -37.671085 -42.038736
v 129.950981 -37.702673 -42.047444
v 129.927276 -37.729053 -42.059018
v 129.914338 -37.635872 -41.909256
v 129.898890 -37.748901 -42.072877
v 129.903632 -37.671085 -41.915356
v 129.867247 -37.761223 -42.088327
v 129.773215 -37.765400 -41.989664
v 129.886387 -37.702673 -41.925182
v 129.863466 -37.729053 -41.938241
v 129.836020 -37.748901 -41.953879
v 129.805425 -37.761223 -41.971312
v 129.745019 -37.635872 -41.654890
v 129.735260 -37.671085 -41.662412
v 129.719540 -37.702673 -41.674529
v 129.698647 -37.729053 -41.690634
v 129.673628 -37.748901 -41.709919
v 129.645726 -37.635872 -41.535078
v 129.645739 -37.761223 -41.731417
v 129.524405 -37.765400 -41.643071
v 129.636523 -37.671085 -41.543270
v 129.621697 -37.702673 -41.556467
v 129.601993 -37.729053 -41.574007
v 129.578398 -37.748901 -41.595009
v 129.552096 -37.761223 -41.618422
v 129.438836 -37.635872 -41.331419
v 129.430789 -37.671085 -41.340750
v 129.417828 -37.702673 -41.355782
v 129.400600 -37.729053 -41.375760
v 129.379972 -37.748901 -41.399682
v 129.305189 -37.635872 -41.224924
v 129.356976 -37.761223 -41.426350
v 129.208972 -37.765400 -41.355781
v 129.297890 -37.671085 -41.234851
v 129.286132 -37.702673 -41.250842
v 129.270505 -37.729053 -41.272095
v 129.251792 -37.748901 -41.297544
v 129.230933 -37.761223 -41.325914
v 129.073854 -37.635872 -41.076137
v 129.067848 -37.671085 -41.086896
v 129.058174 -37.702673 -41.104227
v 129.045317 -37.729053 -41.127261
v 129.029921 -37.748901 -41.154844
v 128.907608 -37.635872 -40.992350
v 129.012759 -37.761223 -41.185591
v 128.840700 -37.765400 -41.140352
v 128.902533 -37.671085 -41.003577
v 128.894356 -37.702673 -41.021664
v 128.883490 -37.729053 -41.045701
v 128.870477 -37.748901 -41.074485
v 128.855972 -37.761223 -41.106571
v 128.664987 -37.635872 -40.899475
v 128.661268 -37.671085 -40.911222
v 128.655278 -37.702673 -40.930145
v 128.647316 -37.729053 -40.955294
v 128.637782 -37.748901 -40.985410
v 128.627154 -37.761223 -41.018981
v 128.435687 -37.765400 -41.006198
v 128.470361 -37.635872 -40.847519
v 128.467731 -37.671085 -40.859557
v 128.463493 -37.702673 -40.878948
v 128.457862 -37.729053 -40.904719
v 128.451118 -37.748901 -40.935579
v 128.443601 -37.761223 -40.969981
v 128.228945 -37.635872 -40.808654
v 128.227665 -37.671085 -40.820909
v 128.225602 -37.702673 -40.840650
v 128.222861 -37.729053 -40.866887
v 128.219579 -37.748901 -40.898304
v 128.215920 -37.761223 -40.933327
v 128.011631 -37.765400 -40.959183
v 128.012557 -37.635872 -40.796763
v 128.012486 -37.671085 -40.809084
v 128.012373 -37.702673 -40.828932
v 128.012223 -37.729053 -40.855311
v 128.012043 -37.748901 -40.886899
v 128.011842 -37.761223 -40.922112
v 127.783547 -37.635872 -40.807385
v 127.784758 -37.671085 -40.819647
v 127.786708 -37.702673 -40.839399
v 127.789299 -37.729053 -40.865651
v 127.792402 -37.748901 -40.897087
v 127.795862 -37.761223 -40.932130
v 127.587067 -37.765400 -41.001362
v 127.554204 -37.635872 -40.842298
v 127.556697 -37.671085 -40.854365
v 127.560713 -37.702673 -40.873803
v 127.566050 -37.729053 -40.899637
v 127.572441 -37.748901 -40.930572
v 127.579566 -37.761223 -40.965056
v 127.346995 -37.635872 -40.895720
v 127.350647 -37.671085 -40.907488
v 127.356529 -37.702673 -40.926444
v 127.364348 -37.729053 -40.951639
v 127.373710 -37.748901 -40.981808
v 127.384146 -37.761223 -41.015439
v 127.180550 -37.765400 -41.130890
v 127.115334 -37.635872 -40.982135
v 127.120281 -37.671085 -40.993420
v 127.128251 -37.702673 -41.011598
v 127.138843 -37.729053 -41.035758
v 127.151526 -37.748901 -41.064688
v 127.165665 -37.761223 -41.096938
v 126.937128 -37.635872 -41.070048
v 126.943072 -37.671085 -41.080841
v 126.952647 -37.702673 -41.098227
v 126.965373 -37.729053 -41.121334
v 126.980611 -37.748901 -41.149004
v 126.997598 -37.761223 -41.179849
v 126.809848 -37.765400 -41.342108
v 126.715128 -37.635872 -41.210163
v 126.722314 -37.671085 -41.220173
v 126.733889 -37.702673 -41.236296
v 126.749272 -37.729053 -41.257726
v 126.767694 -37.748901 -41.283387
v 126.570697 -37.635872 -41.323246
v 126.788229 -37.761223 -41.311992
v 126.578690 -37.671085 -41.332623
v 126.591566 -37.702673 -41.347728
v 126.608679 -37.729053 -41.367804
v 126.629171 -37.748901 -41.391844
v 126.652014 -37.761223 -41.418642
v 126.491160 -37.765400 -41.625783
v 126.371078 -37.635872 -41.516415
v 126.380187 -37.671085 -41.524712
v 126.394862 -37.702673 -41.538077
v 126.414365 -37.729053 -41.555840
v 126.437718 -37.748901 -41.577110
v 126.262676 -37.635872 -41.644966
v 126.463752 -37.761223 -41.600821
v 126.272391 -37.671085 -41.652544
v 126.288042 -37.702673 -41.664751
v 126.308843 -37.729053 -41.680975
v 126.333751 -37.748901 -41.700402
v 126.361517 -37.761223 -41.722058
v 126.238416 -37.765400 -41.969519
v 126.098219 -37.635872 -41.887507
v 126.108854 -37.671085 -41.893729
v 126.125987 -37.702673 -41.903750
v 126.148757 -37.729053 -41.917070
v 126.025652 -37.635872 -42.022062
v 126.176023 -37.748901 -41.933020
v 126.036694 -37.671085 -42.027531
v 126.206417 -37.761223 -41.950800
v 126.054480 -37.702673 -42.036341
v 126.078118 -37.729053 -42.048049
v 126.106425 -37.748901 -42.062070
v 126.137979 -37.761223 -42.077700
v 126.062662 -37.765400 -42.358291
v 125.908477 -37.635872 -42.307220
v 125.920174 -37.671085 -42.311094
v 125.939015 -37.702673 -42.317335
v 125.964057 -37.729053 -42.325630
v 125.869313 -37.635872 -42.439122
v 125.994043 -37.748901 -42.335562
v 125.881229 -37.671085 -42.442258
v 126.027470 -37.761223 -42.346635
v 125.900423 -37.702673 -42.447311
v 125.925934 -37.729053 -42.454027
v 125.956481 -37.748901 -42.462068
v 125.990534 -37.761223 -42.471032
v 125.971579 -37.765400 -42.775109
v 125.810145 -37.635872 -42.757211
v 125.822391 -37.671085 -42.758569
v 125.842119 -37.702673 -42.760756
v 125.868338 -37.729053 -42.763663
v 125.800046 -37.635872 -42.879103
v 125.899734 -37.748901 -42.767144
v 125.812349 -37.671085 -42.879779
v 125.934733 -37.761223 -42.771024
v 125.832168 -37.702673 -42.880868
v 125.858508 -37.729053 -42.882315
v 125.890049 -37.748901 -42.884049
v 125.925209 -37.761223 -42.885981
v 125.969147 -37.765400 -43.201756
v 125.807520 -37.635872 -43.217813
v 125.819781 -37.671085 -43.216595
v 125.839532 -37.702673 -43.214633
v 125.865783 -37.729053 -43.212025
v 125.897216 -37.748901 -43.208902
v 125.932257 -37.761223 -43.205421
v 125.912457 -37.671085 -43.665155
v 125.931368 -37.702673 -43.659129
v 125.956503 -37.729053 -43.651120
v 125.986600 -37.748901 -43.641530
v 126.020151 -37.761223 -43.630840
v 126.055474 -37.765400 -43.619585
v 126.096368 -37.671085 -44.084644
v 126.113613 -37.702673 -44.074818
v 126.136534 -37.729053 -44.061759
v 126.163980 -37.748901 -44.046121
v 126.194575 -37.761223 -44.028688
v 126.226785 -37.765400 -44.010336
v 126.475595 -37.765400 -44.356929
v 126.363477 -37.671085 -44.456730
v 126.378303 -37.702673 -44.443533
v 126.398007 -37.729053 -44.425993
v 126.421602 -37.748901 -44.404991
v 126.447904 -37.761223 -44.381578
v 126.702110 -37.671085 -44.765149
v 126.713868 -37.702673 -44.749158
v 126.729495 -37.729053 -44.727905
v 126.748208 -37.748901 -44.702456
v 126.769067 -37.761223 -44.674086
v 126.791028 -37.765400 -44.644219
v 127.092392 -37.635872 -45.007650
v 127.097467 -37.671085 -44.996423
v 127.105644 -37.702673 -44.978336
v 127.116510 -37.729053 -44.954299
v 127.129523 -37.748901 -44.925515
v 127.144028 -37.761223 -44.893429
v 127.159300 -37.765400 -44.859648
v 127.564313 -37.765400 -44.993802
v 127.529639 -37.635872 -45.152481
v 127.532269 -37.671085 -45.140443
v 127.536507 -37.702673 -45.121052
v 127.542138 -37.729053 -45.095281
v 127.548882 -37.748901 -45.064421
v 127.556399 -37.761223 -45.030019
v 129.213364 -37.765400 -44.428482
v 129.492077 -37.765400 -44.134248
v 128.877915 -37.765400 -44.655922
v 129.701023 -37.765400 -43.786977
v 128.501415 -37.765400 -44.805934
v 129.830431 -37.765400 -43.402908
v 128.101470 -37.765400 -44.871501
v 129.874250 -37.765400 -43.000000
v 127.696780 -37.765400 -44.849560
v 129.830431 -37.765400 -42.597092
v 127.306269 -37.765400 -44.741135
v 129.701023 -37.765400 -42.213023
v 126.948195 -37.765400 -44.551296
v 129.492077 -37.765400 -41.865752
v 126.639303 -37.765400 -44.288921
v 129.213364 -37.765400 -41.571518
v 126.394035 -37.765400 -43.966277
v 128.877915 -37.765400 -41.344078
v 126.223861 -37.765400 -43.598451
v 128.501415 -37.765400 -41.194066
v 126.136737 -37.765400 -43.202642
v 128.101470 -37.765400 -41.128499
v 126.136737 -37.765400 -42.797358
v 127.696780 -37.765400 -41.150440
v 127.306269 -37.765400 -41.258865
v 126.223861 -37.765400 -42.401549
v 126.948195 -37.765400 -41.448704
v 126.394035 -37.765400 -42.033723
v 126.639303 -37.765400 -41.711079
v 129.874250 -37.682100 -43.000000
v 129.830431 -37.682100 -42.597092
v 129.701023 -37.682100 -42.213023
v 129.492077 -37.682100 -41.865752
v 129.213364 -37.682100 -41.571518
v 128.877915 -37.682100 -41.344078
v 128.501415 -37.682100 -41.194066
v 128.101470 -37.682100 -41.128499
v 127.696780 -37.682100 -41.150440
v 127.306269 -37.682100 -41.258865
v 126.948195 -37.682100 -41.448704
v 126.639303 -37.682100 -41.711079
v 126.394035 -37.682100 -42.033723
v 126.223861 -37.682100 -42.401549
v 126.136737 -37.682100 -42.797358
v 126.136737 -37.682100 -43.202642
v 126.223861 -37.682100 -43.598451
v 126.394035 -37.682100 -43.966277
v 126.639303 -37.682100 -44.288921
v 126.948195 -37.682100 -44.551296
v 127.306269 -37.682100 -44.741135
v 127.696780 -37.682100 -44.849560
v 128.101470 -37.682100 -44.871501
v 128.501415 -37.682100 -44.805934
v 128.877915 -37.682100 -44.655922
v 129.213364 -37.682100 -44.428482
v 129.492077 -37.682100 -44.134248
v 129.701023 -37.682100 -43.786977
v 129.830431 -37.682100 -43.402908
v 128.748211 -37.682100 -42.337143
v 128.567838 -37.682100 -42.177345
v 128.885102 -37.682100 -42.535463
v 128.354463 -37.682100 -42.065358
v 128.970553 -37.682100 -42.760780
v 128.120488 -37.682100 -42.007688
v 128.999600 -37.682100 -43.000000
v 127.879512 -37.682100 -42.007688
v 128.970553 -37.682100 -43.239220
v 127.645537 -37.682100 -42.065358
v 128.885102 -37.682100 -43.464537
v 127.432162 -37.682100 -42.177345
v 128.748211 -37.682100 -43.662857
v 127.251789 -37.682100 -42.337143
v 128.567838 -37.682100 -43.822655
v 127.114898 -37.682100 -42.535463
v 128.354463 -37.682100 -43.934642
v 127.029447 -37.682100 -42.760780
v 128.120488 -37.682100 -43.992312
v 127.000400 -37.682100 -43.000000
v 127.879512 -37.682100 -43.992312
v 127.029447 -37.682100 -43.239220
v 127.645537 -37.682100 -43.934642
v 127.114898 -37.682100 -43.464537
v 127.432162 -37.682100 -43.822655
v 127.251789 -37.682100 -43.662857
v 127.000400 -36.849100 -43.000000
v 127.029447 -36.849100 -43.239220
v 127.114898 -36.849100 -43.464537
v 127.251789 -36.849100 -43.662857
v 127.432162 -36.849100 -43.822655
v 127.645537 -36.849100 -43.934642
v 127.879512 -36.849100 -43.992312
v 128.120488 -36.849100 -43.992312
v 128.354463 -36.849100 -43.934642
v 128.567838 -36.849100 -43.822655
v 128.748211 -36.849100 -43.662857
v 128.885102 -36.849100 -43.464537
v 128.970553 -36.849100 -43.239220
v 128.999600 -36.849100 -43.000000
v 128.970553 -36.849100 -42.760780
v 128.885102 -36.849100 -42.535463
v 128.748211 -36.849100 -42.337143
v 128.567838 -36.849100 -42.177345
v 128.354463 -36.849100 -42.065358
v 128.120488 -36.849100 -42.007688
v 127.879512 -36.849100 -42.007688
v 127.645537 -36.849100 -42.065358
v 127.432162 -36.849100 -42.177345
v 127.251789 -36.849100 -42.337143
v 127.114898 -36.849100 -42.535463
v 127.029447 -36.849100 -42.760780
v 127.045358 -36.849100 -43.661357
v 127.241261 -36.849100 -43.839607
v 127.472483 -36.849100 -43.966698
v 126.888402 -36.849100 -43.430202
v 127.714082 -36.849100 -44.032751
v 126.820972 -36.849100 -43.272967
v 126.762271 -36.849100 -43.017164
v 126.754011 -36.849100 -42.845773
v 126.777907 -36.849100 -42.626312
v 126.839641 -36.849100 -42.413839
v 126.936987 -36.849100 -42.214400
v 127.066136 -36.849100 -42.034589
v 128.795669 -36.849100 -43.707076
v 127.222202 -36.849100 -41.879322
v 128.927541 -36.849100 -43.567744
v 129.012261 -36.849100 -43.443399
v 127.391508 -36.849100 -41.757296
v 127.478825 -36.849100 -41.708228
v 127.566706 -36.849100 -41.666803
v 129.114554 -36.849100 -43.210242
v 129.154095 -36.849100 -43.034472
v 127.887642 -36.849100 -41.632765
v 129.160884 -36.849100 -42.768582
v 128.205972 -36.849100 -41.674585
v 129.124466 -36.849100 -42.563267
v 129.052109 -36.849100 -42.365545
v 128.506019 -36.849100 -41.791700
v 128.921056 -36.849100 -42.148016
v 128.744060 -36.849100 -41.956895
v 129.031957 -35.052499 -42.861198
v 129.011400 -35.112499 -42.752469
v 129.004270 -35.062450 -42.724968
v 128.923316 -35.130456 -42.518659
v 128.909760 -35.080396 -42.493503
v 128.782132 -35.148371 -42.312635
v 128.762715 -35.098372 -42.291151
v 128.596196 -35.166278 -42.146331
v 128.571670 -35.116306 -42.129716
v 128.375450 -35.184252 -42.028795
v 128.347662 -35.134270 -42.018505
v 128.133071 -35.202187 -41.967288
v 128.103595 -35.152238 -41.963916
v 127.883018 -35.220138 -41.965342
v 127.853522 -35.170171 -41.969104
v 127.639688 -35.238113 -42.023078
v 127.611925 -35.188141 -42.033771
v 127.417142 -35.256046 -42.137169
v 127.393363 -35.206050 -42.153718
v 127.228237 -35.274002 -42.301013
v 127.209152 -35.223972 -42.322681
v 127.083844 -35.291970 -42.505167
v 127.070636 -35.241913 -42.530444
v 126.992281 -35.309906 -42.737884
v 126.985592 -35.259838 -42.765099
v 126.958848 -35.327865 -42.985726
v 126.958841 -35.277774 -43.013775
v 126.985298 -35.345772 -43.233624
v 126.992158 -35.295740 -43.261641
v 127.070096 -35.363679 -43.468486
v 127.083625 -35.313707 -43.494428
v 127.208121 -35.381587 -43.676114
v 127.227980 -35.331641 -43.698704
v 127.392180 -35.399559 -43.845433
v 127.416866 -35.349613 -43.862645
v 127.611288 -35.417490 -43.965973
v 127.639381 -35.367574 -43.976809
v 127.852797 -35.435448 -44.030792
v 127.882714 -35.385508 -44.034623
v 128.102803 -35.453417 -44.036163
v 128.132845 -35.403481 -44.032741
v 128.346909 -35.471350 -43.981761
v 128.375255 -35.421437 -43.971280
v 128.570993 -35.489314 -43.870729
v 128.595368 -35.439323 -43.854247
v 128.762033 -35.507260 -43.709582
v 128.781639 -35.457269 -43.687925
v 128.908844 -35.525144 -43.508138
v 128.922823 -35.475174 -43.482286
v 129.003659 -35.543076 -43.277253
v 129.011214 -35.493111 -43.248291
v 129.031781 -35.553104 -43.140106
v 126.636059 -34.617401 -43.324281
v 126.754693 -34.635583 -43.643811
v 127.165162 -34.669568 -44.126281
v 126.927303 -34.652164 -43.902635
v 127.118640 -35.939228 -41.909780
v 127.279707 -35.928786 -41.797292
v 129.362498 -36.257704 -42.669892
v 129.317357 -36.266026 -42.520521
v 126.767903 -34.690222 -43.353298
v 126.973662 -34.717295 -43.767799
v 127.377636 -34.813792 -43.980689
v 127.313204 -34.744367 -44.082218
v 127.440111 -34.686491 -44.285251
v 127.956867 -34.714831 -44.401241
v 127.766448 -34.840865 -44.137779
v 127.742268 -34.771440 -44.255571
v 127.748924 -34.703712 -44.379281
v 128.472791 -34.742781 -44.319766
v 128.185702 -34.867937 -44.146561
v 128.204928 -34.798512 -44.265262
v 128.267239 -34.731441 -44.376237
v 128.580751 -34.895010 -44.005890
v 128.640875 -34.825585 -44.110028
v 128.747931 -34.759100 -44.185761
v 128.915696 -34.770215 -44.061515
v 128.900100 -34.922082 -43.734103
v 129.219074 -34.795770 -43.692204
v 128.993285 -34.852657 -43.810104
v 129.109930 -34.785264 -43.856445
v 129.102122 -34.949155 -43.366627
v 129.216222 -34.879730 -43.404583
v 129.316977 -34.808187 -43.480599
v 129.378458 -34.820627 -43.255250
v 129.160483 -34.976227 -42.951361
v 129.385888 -34.845561 -42.788759
v 129.280626 -34.906802 -42.946326
v 129.401732 -34.833112 -43.021980
v 129.067578 -35.003300 -42.542436
v 129.178102 -34.933875 -42.495065
v 129.331274 -34.858054 -42.560620
v 129.239990 -34.870478 -42.345943
v 129.114208 -34.882915 -42.149197
v 128.803480 -34.905910 -41.851211
v 128.835515 -35.030372 -42.193153
v 128.922014 -34.960947 -42.109621
v 128.964836 -34.894831 -41.982884
v 128.494544 -35.057445 -41.949041
v 128.545743 -34.988020 -41.840238
v 128.637858 -34.916203 -41.751573
v 128.420612 -34.928715 -41.662678
v 128.089109 -35.084517 -41.841921
v 128.098335 -35.015092 -41.722027
v 128.193199 -34.941113 -41.611447
v 127.985563 -34.952208 -41.598132
v 127.739101 -34.965385 -41.622580
v 127.672060 -35.111590 -41.885755
v 127.638109 -35.042165 -41.770399
v 127.504988 -34.978344 -41.688336
v 127.303147 -34.990225 -41.783541
v 126.990533 -35.011379 -42.027159
v 127.297757 -35.138662 -42.074829
v 127.225055 -35.069237 -41.979048
v 127.133612 -35.001103 -41.897795
v 127.014990 -35.165735 -42.384498
v 126.913014 -35.096310 -42.320776
v 126.837332 -35.024348 -42.216642
v 126.711558 -35.038352 -42.447483
v 126.860618 -35.192807 -42.774396
v 126.598483 -35.066788 -42.966844
v 126.742661 -35.123382 -42.751040
v 126.631069 -35.052346 -42.697534
v 126.854763 -35.219880 -43.193702
v 126.736199 -35.150455 -43.213756
v 126.674636 -35.093310 -43.456954
v 126.622479 -35.082503 -43.260560
v 126.998188 -35.246952 -43.587759
v 126.894473 -35.177527 -43.648609
v 126.784513 -35.107460 -43.698634
v 126.898653 -35.118304 -43.867385
v 127.272198 -35.274025 -43.905203
v 127.196850 -35.204600 -43.998917
v 127.070406 -35.131628 -44.049439
v 127.229101 -35.142284 -44.170926
v 127.434363 -35.154714 -44.282740
v 127.641076 -35.301097 -44.104654
v 127.891404 -35.179912 -44.397679
v 127.603917 -35.231672 -44.219017
v 127.683535 -35.168721 -44.365729
v 128.056739 -35.328170 -44.160116
v 128.062613 -35.258745 -44.280220
v 128.123276 -35.192262 -44.396492
v 128.316174 -35.202668 -44.365766
v 128.800336 -35.231014 -44.150975
v 128.465006 -35.355242 -44.064357
v 128.513147 -35.285817 -44.174548
v 128.553853 -35.215991 -44.287876
v 128.812661 -35.382315 -43.829862
v 128.896794 -35.312890 -43.915776
v 129.014294 -35.246024 -43.967765
v 129.187273 -35.261033 -43.745451
v 129.054386 -35.409387 -43.487195
v 129.377620 -35.288944 -43.259782
v 129.163544 -35.339962 -43.537633
v 129.308317 -35.275446 -43.503718
v 129.158673 -35.436460 -43.081022
v 129.278628 -35.367035 -43.089410
v 129.388957 -35.312988 -42.809971
v 129.401717 -35.301485 -43.025804
v 129.263779 -35.336244 -42.393200
v 129.111929 -35.463532 -42.664289
v 129.227044 -35.394107 -42.629533
v 129.348428 -35.323523 -42.616338
v 128.920246 -35.490605 -42.291315
v 129.015517 -35.421180 -42.217946
v 129.144819 -35.348731 -42.190785
v 129.010694 -35.359959 -42.028404
v 128.866828 -35.370279 -41.898190
v 128.608611 -35.517677 -42.010717
v 128.671619 -35.448252 -41.908299
v 128.448053 -35.395734 -41.671619
v 128.670974 -35.382775 -41.769039
v 128.217644 -35.544750 -41.859071
v 128.240176 -35.475325 -41.740953
v 128.231132 -35.407634 -41.617234
v 128.014483 -35.419214 -41.598150
v 127.798307 -35.571822 -41.856144
v 127.777426 -35.502397 -41.737722
v 127.797873 -35.430774 -41.612700
v 127.586100 -35.442334 -41.660564
v 127.405261 -35.598895 -42.002316
v 127.014512 -35.478105 -42.002892
v 127.343689 -35.529470 -41.899028
v 127.384118 -35.453902 -41.740585
v 127.195374 -35.465570 -41.851971
v 127.089738 -35.625967 -42.278535
v 126.995501 -35.556542 -42.203844
v 126.849766 -35.491741 -42.198520
v 126.710732 -35.507004 -42.449272
v 126.892867 -35.653040 -42.648797
v 126.778248 -35.583615 -42.612437
v 126.647569 -35.517246 -42.630718
v 126.607402 -35.528513 -42.838759
v 126.840309 -35.680112 -43.064837
v 126.623131 -35.551236 -43.263720
v 126.720248 -35.610687 -43.071549
v 126.599410 -35.540400 -43.061766
v 126.938915 -35.707185 -43.472426
v 126.829063 -35.637760 -43.521335
v 126.871131 -35.584453 -43.831253
v 126.675259 -35.561974 -43.458811
v 126.762812 -35.573638 -43.659367
v 127.175832 -35.734257 -43.818434
v 127.272429 -35.613573 -44.198311
v 127.090508 -35.664832 -43.903165
v 127.035861 -35.597707 -44.017780
v 127.520178 -35.761330 -44.057761
v 127.470503 -35.691905 -44.167269
v 127.544350 -35.629579 -44.325786
v 128.138427 -35.661641 -44.395036
v 127.927069 -35.788402 -44.159210
v 127.919518 -35.718977 -44.279221
v 127.838263 -35.645643 -44.392552
v 128.343466 -35.815475 -44.109558
v 128.675551 -35.691764 -44.228379
v 128.379024 -35.746050 -44.224428
v 128.426479 -35.677328 -44.335479
v 128.715092 -35.842547 -43.915276
v 129.043700 -35.716902 -43.935941
v 128.789124 -35.773122 -44.010033
v 128.881240 -35.704970 -44.090346
v 128.993508 -35.869620 -43.601690
v 129.282512 -35.740424 -43.566168
v 129.096363 -35.800195 -43.663981
v 129.166702 -35.727580 -43.777327
v 129.142420 -35.896692 -43.209673
v 129.260693 -35.827267 -43.231380
v 129.400445 -35.774837 -42.935703
v 129.359899 -35.753100 -43.340697
v 129.395746 -35.764393 -43.131900
v 129.142420 -35.923765 -42.790327
v 129.294709 -35.800768 -42.462343
v 129.260693 -35.854340 -42.768620
v 129.369356 -35.787523 -42.699445
v 128.993508 -35.950837 -42.398310
v 129.054579 -35.825050 -42.076303
v 129.096363 -35.881412 -42.336019
v 129.188683 -35.813080 -42.256701
v 128.715092 -35.977910 -42.084724
v 128.705569 -35.849210 -41.788563
v 128.789124 -35.908485 -41.989967
v 128.893477 -35.837016 -41.919650
v 128.343466 -36.004982 -41.890442
v 128.301512 -35.872379 -41.630883
v 128.379024 -35.935557 -41.775572
v 128.094755 -35.883488 -41.601258
v 128.485965 -35.862145 -41.684960
v 127.927069 -36.032055 -41.840790
v 127.919518 -35.962630 -41.720779
v 127.868305 -35.895562 -41.604255
v 127.661377 -35.906724 -41.639606
v 127.520178 -36.059127 -41.942239
v 127.470503 -35.989702 -41.832731
v 127.460222 -35.918008 -41.706123
v 127.175832 -36.086200 -42.181566
v 127.090508 -36.016775 -42.096835
v 126.960262 -35.950850 -42.059594
v 126.832523 -35.961930 -42.223916
v 126.938915 -36.113272 -42.527574
v 126.829063 -36.043847 -42.478665
v 126.735945 -35.972323 -42.393694
v 126.660011 -35.983442 -42.587994
v 126.840309 -36.140345 -42.935163
v 126.720248 -36.070920 -42.928451
v 126.615086 -35.994064 -42.782372
v 126.598325 -36.007059 -43.025770
v 126.630524 -36.021757 -43.299755
v 126.892867 -36.167417 -43.351203
v 126.778248 -36.097992 -43.387563
v 126.715396 -36.036410 -43.561341
v 127.089738 -36.194490 -43.721465
v 126.995501 -36.125065 -43.796156
v 126.850124 -36.051103 -43.801970
v 127.028238 -36.065713 -44.010447
v 127.405261 -36.221562 -43.997684
v 127.343689 -36.152137 -44.100972
v 127.241424 -36.080199 -44.178982
v 127.464465 -36.093607 -44.295585
v 127.798307 -36.248635 -44.143856
v 127.777426 -36.179210 -44.262278
v 127.683728 -36.105862 -44.365791
v 127.890904 -36.117038 -44.397675
v 128.217644 -36.275707 -44.140929
v 128.240176 -36.206282 -44.259047
v 128.139291 -36.130250 -44.394977
v 128.379435 -36.143284 -44.349621
v 128.585414 -36.154961 -44.273824
v 128.608611 -36.302780 -43.989283
v 128.671619 -36.233355 -44.091701
v 128.756672 -36.165348 -44.180223
v 128.946491 -36.178112 -44.034170
v 128.920246 -36.329852 -43.708685
v 129.235994 -36.203325 -43.661605
v 129.015517 -36.260427 -43.782054
v 129.112119 -36.191150 -43.853616
v 129.111929 -36.356925 -43.335711
v 129.227044 -36.287500 -43.370467
v 129.323819 -36.214957 -43.461460
v 129.378097 -36.226206 -43.257262
v 129.158673 -36.383997 -42.918978
v 129.278628 -36.314572 -42.910590
v 129.401097 -36.237435 -43.047622
v 129.392871 -36.248471 -42.840616
v 129.172328 -36.283221 -42.231318
v 129.067371 -36.761103 -42.091229
v 128.727807 -36.784954 -41.801837
v 128.909065 -36.773011 -41.932885
v 128.528909 -36.796774 -41.701783
v 128.316058 -36.808659 -41.634284
v 128.094853 -36.820627 -41.601294
v 127.870281 -36.832563 -41.604148
v 127.716929 -36.840780 -41.627049
v 128.887697 -36.431044 -42.250900
v 128.979615 -36.361605 -42.173332
v 128.965375 -36.300440 -41.983477
v 128.670747 -36.449995 -42.051981
v 128.740201 -36.380555 -41.953816
v 128.707696 -36.317597 -41.789931
v 128.410952 -36.468946 -41.913595
v 128.453505 -36.399506 -41.801101
v 128.417302 -36.334567 -41.661593
v 128.124615 -36.487897 -41.845386
v 128.137518 -36.418457 -41.725829
v 128.132516 -36.349982 -41.604450
v 127.864083 -36.364356 -41.604697
v 127.830320 -36.506847 -41.850928
v 127.812750 -36.437408 -41.731945
v 127.601777 -36.378545 -41.655883
v 127.546984 -36.525798 -41.930686
v 127.500075 -36.456358 -41.819962
v 127.353406 -36.392814 -41.756214
v 127.292582 -36.544749 -42.078741
v 127.219331 -36.475309 -41.983348
v 127.135266 -36.406686 -41.896463
v 126.972131 -36.418467 -42.046696
v 127.083872 -36.563700 -42.286300
v 126.989010 -36.494260 -42.212399
v 126.828823 -36.430801 -42.229604
v 126.933677 -36.582650 -42.539444
v 126.823262 -36.513211 -42.491755
v 126.714354 -36.443680 -42.440987
v 126.638055 -36.456402 -42.668006
v 126.852353 -36.601601 -42.822335
v 126.733518 -36.532161 -42.803938
v 126.601455 -36.469109 -42.904244
v 126.844332 -36.620552 -43.116573
v 126.724666 -36.551112 -43.128644
v 126.604634 -36.481469 -43.135570
v 126.641301 -36.492767 -43.345123
v 126.910954 -36.639503 -43.403283
v 126.798187 -36.570063 -43.445041
v 126.702615 -36.503150 -43.530922
v 126.819699 -36.516731 -43.756457
v 127.047135 -36.658453 -43.664233
v 126.948469 -36.589014 -43.733013
v 126.998183 -36.531969 -43.980586
v 127.244860 -36.677404 -43.882282
v 127.166668 -36.607964 -43.973640
v 127.218399 -36.547260 -44.163760
v 127.490818 -36.696355 -44.043978
v 127.438093 -36.626915 -44.152079
v 127.470895 -36.562521 -44.298243
v 127.769662 -36.715306 -44.138245
v 127.745812 -36.645866 -44.256107
v 127.745382 -36.577707 -44.378499
v 128.030550 -36.593017 -44.401589
v 128.063219 -36.734256 -44.159811
v 128.069765 -36.664817 -44.279906
v 128.314920 -36.608234 -44.366015
v 128.352693 -36.753207 -44.106465
v 128.389213 -36.683767 -44.221036
v 128.586868 -36.623573 -44.273090
v 128.619639 -36.772158 -43.982448
v 128.683801 -36.702718 -44.084178
v 128.829553 -36.638619 -44.130192
v 128.846564 -36.791109 -43.794976
v 128.934223 -36.721669 -43.877294
v 129.018519 -36.651999 -43.963191
v 129.158155 -36.663865 -43.789930
v 129.019417 -36.810059 -43.556728
v 129.124975 -36.740620 -43.614375
v 129.266283 -36.675463 -43.601551
v 129.243066 -36.759570 -43.311775
v 129.344022 -36.686971 -43.398403
v 129.391857 -36.699534 -43.167530
v 129.281761 -36.778521 -42.989262
v 129.397903 -36.714162 -42.893886
v 129.299002 -36.737238 -42.472906
v 129.237667 -36.797472 -42.667442
v 129.366366 -36.725278 -42.686814
v 129.114523 -36.816423 -42.366863
v 129.198434 -36.749228 -42.272578
v 128.919396 -36.835373 -42.107176
v 129.135882 -36.206488 -42.406175
v 129.029322 -36.137066 -42.461884
v 128.868237 -36.232207 -42.057122
v 128.786785 -36.162785 -42.145575
v 128.498343 -36.257926 -41.819107
v 128.451592 -36.188504 -41.929889
v 128.069762 -36.283645 -41.720161
v 128.063217 -36.214222 -41.840226
v 127.632965 -36.309364 -41.771937
v 127.667397 -36.239941 -41.887144
v 127.239392 -36.335083 -41.968336
v 127.310747 -36.265660 -42.065119
v 126.935393 -36.360801 -42.286231
v 127.035266 -36.291379 -42.353191
v 126.756768 -36.386520 -42.688183
v 126.873399 -36.317098 -42.717435
v 126.724554 -36.412239 -43.126857
v 126.844207 -36.342817 -43.114956
v 126.842544 -36.437958 -43.550591
v 126.951128 -36.368536 -43.498939
v 127.096843 -36.463677 -43.909484
v 127.181570 -36.394255 -43.824163
v 127.457503 -36.489396 -44.161271
v 127.508396 -36.419973 -44.052330
v 127.882051 -36.515115 -44.276300
v 127.893116 -36.445692 -44.156567
v 128.320489 -36.540834 -44.241024
v 128.290423 -36.471411 -44.124601
v 128.721184 -36.566552 -44.059598
v 128.653528 -36.497130 -43.960195
v 129.036949 -36.592271 -43.753387
v 128.939670 -36.522849 -43.682710
v 129.230596 -36.617990 -43.358453
v 129.115151 -36.548568 -43.324826
v 129.279321 -36.643709 -42.921305
v 129.159304 -36.574287 -42.928688
v 129.177385 -36.669428 -42.493425
v 129.066932 -36.600006 -42.540948
v 128.936794 -36.695147 -42.125202
v 128.848911 -36.625724 -42.207269
v 128.585880 -36.720866 -41.860000
v 128.530917 -36.651443 -41.966947
v 128.165970 -36.746585 -41.729052
v 128.150400 -36.677162 -41.848283
v 127.726514 -36.772303 -41.747778
v 127.752170 -36.702881 -41.865252
v 127.319265 -36.798022 -41.913973
v 127.383126 -36.728600 -42.015856
v 126.992184 -36.823741 -42.208065
v 127.086729 -36.754319 -42.282359
v 126.897885 -36.780038 -42.633375
v 126.838831 -36.805757 -43.027567
v 126.916524 -36.831475 -43.418513
v 126.827284 -34.606640 -43.662637
v 126.937280 -34.613293 -43.816773
v 127.128253 -34.622824 -44.005523
v 127.352907 -34.632380 -44.151947
v 127.601306 -34.641984 -44.249582
v 127.864449 -34.651642 -44.294908
v 128.130394 -34.661358 -44.285672
v 128.389090 -34.671170 -44.222007
v 128.629002 -34.681019 -44.106294
v 128.839578 -34.690988 -43.943060
v 129.011323 -34.701008 -43.739105
v 129.136018 -34.711141 -43.503226
v 129.207212 -34.721297 -43.247610
v 129.221985 -34.731523 -42.982562
v 129.179446 -34.741811 -42.721748
v 128.932550 -34.762591 -42.259109
v 129.081305 -34.752168 -42.476262
v 128.261860 -34.794350 -41.870687
v 128.640878 -34.686794 -44.110034
v 129.216228 -34.740939 -43.404585
v 129.280632 -34.768012 -42.946326
v 129.178108 -34.795084 -42.495062
v 128.922019 -34.822157 -42.109617
v 128.739759 -34.773086 -42.079981
v 128.512684 -34.783660 -41.948346
v 128.545745 -34.849229 -41.840232
v 128.098335 -34.876302 -41.722021
v 127.638107 -34.903374 -41.770393
v 127.225051 -34.930447 -41.979043
v 127.297751 -34.861024 -42.074821
v 126.913009 -34.957519 -42.320772
v 127.014982 -34.888096 -42.384492
v 126.742654 -34.984592 -42.751039
v 126.860608 -34.915169 -42.774394
v 126.736193 -35.011664 -43.213757
v 126.854753 -34.942241 -43.193704
v 126.894467 -35.038737 -43.648612
v 126.998180 -34.969314 -43.587765
v 127.196846 -35.065809 -43.998922
v 127.272192 -34.996386 -43.905211
v 127.603915 -35.092882 -44.219023
v 127.641073 -35.023459 -44.104664
v 128.062614 -35.119954 -44.280226
v 128.056740 -35.050531 -44.160126
v 128.513150 -35.147027 -44.174554
v 128.465010 -35.077604 -44.064367
v 128.896798 -35.174099 -43.915780
v 128.812668 -35.104676 -43.829869
v 129.163550 -35.201172 -43.537635
v 129.054395 -35.131749 -43.487199
v 129.278634 -35.228244 -43.089411
v 129.158683 -35.158821 -43.081023
v 129.227051 -35.255317 -42.629532
v 129.111939 -35.185894 -42.664286
v 129.015522 -35.282389 -42.217942
v 128.920254 -35.212966 -42.291309
v 128.671622 -35.309462 -41.908293
v 128.608616 -35.240039 -42.010708
v 128.240177 -35.336534 -41.740947
v 128.217646 -35.267111 -41.859061
v 127.777425 -35.363607 -41.737716
v 127.798305 -35.294184 -41.856133
v 127.343686 -35.390679 -41.899022
v 127.405256 -35.321256 -42.002307
v 126.995496 -35.417752 -42.203840
v 127.089730 -35.348329 -42.278529
v 126.778242 -35.444824 -42.612435
v 126.892857 -35.375401 -42.648794
v 126.720242 -35.471897 -43.071550
v 126.840299 -35.402474 -43.064837
v 126.829057 -35.498969 -43.521337
v 126.938906 -35.429546 -43.472430
v 127.090503 -35.526042 -43.903170
v 127.175825 -35.456619 -43.818441
v 127.470501 -35.553114 -44.167275
v 127.520174 -35.483691 -44.057770
v 127.919518 -35.580187 -44.279227
v 127.927068 -35.510764 -44.159221
v 128.379026 -35.607259 -44.224434
v 128.343469 -35.537836 -44.109568
v 128.789128 -35.634332 -44.010038
v 128.715099 -35.564909 -43.915284
v 129.096369 -35.661404 -43.663985
v 128.993516 -35.591981 -43.601695
v 129.260699 -35.688477 -43.231382
v 129.142431 -35.619054 -43.209675
v 129.260699 -35.715549 -42.768618
v 129.142431 -35.646126 -42.790325
v 129.096369 -35.742622 -42.336015
v 128.993516 -35.673199 -42.398305
v 128.789128 -35.769694 -41.989962
v 128.715099 -35.700271 -42.084716
v 128.379026 -35.796767 -41.775566
v 128.343469 -35.727344 -41.890432
v 127.919518 -35.823839 -41.720773
v 127.927068 -35.754416 -41.840779
v 127.470501 -35.850912 -41.832725
v 127.520174 -35.781489 -41.942230
v 127.090503 -35.877984 -42.096830
v 127.175825 -35.808561 -42.181559
v 126.829057 -35.905057 -42.478663
v 126.938906 -35.835634 -42.527570
v 126.720242 -35.932129 -42.928450
v 126.840299 -35.862706 -42.935163
v 126.778242 -35.959202 -43.387565
v 126.892857 -35.889779 -43.351206
v 126.995496 -35.986274 -43.796160
v 127.089730 -35.916851 -43.721471
v 127.343686 -36.013347 -44.100978
v 127.405256 -35.943924 -43.997693
v 127.777425 -36.040419 -44.262284
v 127.798305 -35.970996 -44.143867
v 128.240177 -36.067492 -44.259053
v 128.217646 -35.998069 -44.140939
v 128.671622 -36.094564 -44.091707
v 128.608616 -36.025141 -43.989292
v 129.015522 -36.121637 -43.782058
v 128.920254 -36.052214 -43.708691
v 129.227051 -36.148709 -43.370468
v 129.111939 -36.079286 -43.335714
v 129.278634 -36.175782 -42.910589
v 129.158683 -36.106359 -42.918977
f 1 2 3
f 2 4 3
f 4 5 3
f 4 6 5
f 6 7 5
f 6 8 7
f 8 9 7
f 8 10 9
f 9 11 12
f 10 11 9
f 12 13 14
f 11 13 12
f 13 15 14
f 15 16 14
f 17 18 15
f 15 18 16
f 16 19 20
f 18 19 16
f 20 21 22
f 19 21 20
f 22 23 24
f 21 23 22
f 24 25 26
f 23 25 24
f 26 27 28
f 28 27 29
f 25 27 26
f 27 30 29
f 31 32 33
f 32 34 35
f 31 34 32
f 34 36 35
f 34 37 36
f 37 38 36
f 37 39 38
f 39 40 38
f 39 41 40
f 41 42 40
f 41 43 42
f 43 44 42
f 43 45 44
f 45 46 44
f 45 47 46
f 47 48 46
f 47 49 48
f 49 50 48
f 49 51 50
f 51 52 50
f 51 53 52
f 53 54 52
f 53 55 54
f 55 56 54
f 55 57 56
f 57 58 56
f 57 59 58
f 59 60 58
f 60 61 58
f 60 62 61
f 62 63 61
f 62 64 63
f 64 65 63
f 64 66 65
f 66 67 65
f 66 68 67
f 68 69 67
f 68 70 69
f 70 71 69
f 70 72 71
f 72 73 71
f 72 74 73
f 74 75 73
f 74 76 75
f 76 77 75
f 76 78 77
f 78 79 77
f 80 81 82
f 80 83 81
f 83 84 81
f 83 85 84
f 85 86 84
f 86 87 84
f 86 88 87
f 88 89 87
f 88 90 89
f 90 91 89
f 90 92 91
f 92 93 91
f 92 94 93
f 94 95 93
f 94 96 95
f 96 97 95
f 96 98 97
f 98 99 97
f 98 100 99
f 100 101 99
f 100 102 101
f 102 103 101
f 102 104 103
f 104 105 103
f 104 106 105
f 106 107 105
f 106 108 107
f 108 109 107
f 108 110 109
f 110 111 109
f 110 112 111
f 112 113 111
f 112 114 113
f 114 115 113
f 114 116 115
f 116 117 115
f 116 118 117
f 118 119 117
f 118 120 119
f 120 121 119
f 120 122 121
f 122 123 121
f 122 124 123
f 124 125 123
f 124 126 125
f 126 127 125
f 126 128 127
f 128 129 127
f 128 130 129
f 130 131 129
f 130 132 131
f 132 133 131
f 132 134 133
f 134 33 133
f 134 31 33
f 135 136 137
f 136 138 139
f 135 138 136
f 139 140 141
f 138 140 139
f 141 142 143
f 140 142 141
f 143 144 145
f 142 144 143
f 145 146 147
f 144 146 145
f 147 148 149
f 146 148 147
f 149 150 151
f 148 150 149
f 151 152 153
f 150 152 151
f 153 154 155
f 152 154 153
f 154 156 155
f 155 156 157
f 156 158 157
f 157 158 159
f 158 160 159
f 159 160 161
f 160 162 161
f 161 162 163
f 163 164 165
f 162 164 163
f 165 166 167
f 164 166 165
f 167 168 169
f 166 168 167
f 169 170 171
f 168 170 169
f 171 172 173
f 170 172 171
f 173 174 175
f 172 174 173
f 175 176 177
f 174 176 175
f 177 178 179
f 176 178 177
f 179 180 181
f 178 180 179
f 181 182 183
f 180 182 181
f 183 184 185
f 182 184 183
f 185 186 187
f 184 186 185
f 186 188 187
f 188 82 187
f 188 80 82
f 7 189 5
f 189 3 5
f 189 190 3
f 190 1 3
f 190 191 1
f 191 192 1
f 192 193 194
f 191 193 192
f 194 195 196
f 193 195 194
f 196 197 198
f 195 197 196
f 198 199 200
f 197 199 198
f 200 201 202
f 199 201 200
f 202 203 204
f 201 203 202
f 203 205 204
f 205 206 204
f 205 207 206
f 208 209 210
f 210 209 211
f 212 213 208
f 208 213 209
f 211 214 215
f 209 214 211
f 216 217 212
f 212 217 213
f 215 218 219
f 214 218 215
f 220 221 216
f 216 221 217
f 219 30 222
f 218 30 219
f 223 224 220
f 220 224 221
f 222 27 225
f 30 27 222
f 226 227 223
f 223 227 224
f 27 25 225
f 225 25 228
f 226 229 227
f 230 229 226
f 25 23 228
f 23 231 228
f 230 232 229
f 230 233 232
f 23 21 231
f 21 234 231
f 21 19 234
f 233 235 232
f 232 235 236
f 19 237 234
f 19 18 237
f 235 238 236
f 236 238 239
f 17 240 18
f 18 241 237
f 240 241 18
f 238 242 239
f 239 242 243
f 244 245 240
f 240 245 241
f 243 246 247
f 242 246 243
f 248 249 244
f 244 249 245
f 246 250 247
f 247 250 251
f 252 253 248
f 254 253 252
f 248 253 249
f 251 255 256
f 250 255 251
f 254 257 253
f 256 258 254
f 254 258 257
f 255 258 256
f 216 259 220
f 260 261 259
f 260 259 216
f 262 212 208
f 262 263 212
f 264 262 208
f 265 266 219
f 265 219 222
f 267 265 222
f 268 234 237
f 268 269 234
f 270 268 237
f 271 253 257
f 271 272 253
f 273 271 257
f 274 275 246
f 274 246 242
f 276 274 242
f 277 278 230
f 277 230 226
f 279 277 226
f 259 280 223
f 259 223 220
f 261 280 259
f 281 282 260
f 281 263 282
f 281 216 212
f 281 260 216
f 281 212 263
f 283 264 208
f 283 210 284
f 283 285 264
f 283 284 285
f 283 208 210
f 286 284 210
f 286 287 288
f 286 215 287
f 286 288 284
f 286 210 211
f 286 211 215
f 289 290 287
f 289 266 290
f 289 287 215
f 289 219 266
f 289 215 219
f 291 292 267
f 291 293 292
f 291 267 222
f 291 222 225
f 291 225 293
f 294 295 296
f 294 296 293
f 294 225 228
f 294 228 231
f 294 293 225
f 294 231 295
f 297 298 295
f 297 269 298
f 297 231 234
f 297 295 231
f 297 234 269
f 299 300 270
f 299 301 300
f 299 237 241
f 299 241 301
f 299 270 237
f 302 303 301
f 302 241 245
f 302 245 249
f 302 301 241
f 302 249 304
f 302 304 303
f 305 249 253
f 305 304 249
f 305 253 272
f 305 306 304
f 305 272 306
f 307 257 258
f 307 308 273
f 307 309 308
f 307 273 257
f 307 258 309
f 310 258 255
f 310 255 250
f 310 311 312
f 310 312 309
f 310 309 258
f 310 250 311
f 313 246 275
f 313 250 246
f 313 314 311
f 313 275 314
f 313 311 250
f 315 276 242
f 315 238 316
f 315 242 238
f 315 317 276
f 315 316 317
f 318 316 238
f 318 233 319
f 318 238 235
f 318 235 233
f 318 319 320
f 318 320 316
f 321 319 233
f 321 230 278
f 321 233 230
f 321 322 319
f 321 278 322
f 323 279 226
f 323 223 280
f 323 226 223
f 323 324 279
f 323 280 324
f 325 261 260
f 325 326 261
f 327 260 282
f 327 325 260
f 328 282 263
f 328 327 282
f 329 263 262
f 329 328 263
f 330 262 264
f 330 329 262
f 331 264 285
f 331 330 264
f 332 285 284
f 332 284 288
f 332 331 285
f 333 332 288
f 334 320 319
f 334 335 320
f 336 319 322
f 336 334 319
f 337 322 278
f 337 336 322
f 338 278 277
f 338 337 278
f 339 277 279
f 339 338 277
f 340 279 324
f 340 339 279
f 341 324 280
f 341 280 261
f 341 340 324
f 326 341 261
f 342 312 311
f 342 343 312
f 344 311 314
f 344 342 311
f 345 314 275
f 345 344 314
f 346 275 274
f 346 345 275
f 347 274 276
f 347 346 274
f 348 276 317
f 348 347 276
f 349 317 316
f 349 316 320
f 349 348 317
f 335 349 320
f 350 303 304
f 350 351 303
f 352 304 306
f 352 350 304
f 353 306 272
f 353 352 306
f 354 272 271
f 354 353 272
f 355 271 273
f 355 354 271
f 356 273 308
f 356 355 273
f 357 308 309
f 357 309 312
f 357 356 308
f 343 357 312
f 358 296 295
f 358 359 296
f 360 295 298
f 360 358 295
f 361 298 269
f 361 360 298
f 362 269 268
f 362 361 269
f 363 268 270
f 363 362 268
f 364 270 300
f 364 363 270
f 365 300 301
f 365 301 303
f 365 364 300
f 351 365 303
f 366 288 287
f 366 333 288
f 367 287 290
f 367 366 287
f 368 290 266
f 368 367 290
f 369 266 265
f 369 368 266
f 370 265 267
f 370 369 265
f 371 267 292
f 371 370 267
f 372 292 293
f 372 293 296
f 372 371 292
f 359 372 296
f 364 365 373
f 374 364 373
f 363 364 374
f 362 363 374
f 375 362 374
f 361 362 375
f 376 361 375
f 360 361 376
f 377 360 376
f 358 360 377
f 371 372 378
f 371 378 379
f 370 371 379
f 380 370 379
f 369 370 380
f 368 369 380
f 381 368 380
f 367 368 381
f 382 367 381
f 366 367 382
f 383 332 384
f 331 332 383
f 330 331 383
f 385 330 383
f 329 330 385
f 386 329 385
f 328 329 386
f 327 386 387
f 327 328 386
f 325 327 387
f 388 340 389
f 339 340 388
f 338 339 388
f 390 338 388
f 337 338 390
f 391 337 390
f 336 337 391
f 392 336 391
f 348 393 394
f 348 349 393
f 347 348 394
f 395 347 394
f 346 347 395
f 345 346 395
f 396 345 395
f 344 345 396
f 397 344 396
f 342 344 397
f 355 356 398
f 399 355 398
f 354 355 399
f 400 354 399
f 353 354 400
f 352 353 400
f 352 400 401
f 350 352 401
f 402 365 351
f 402 351 403
f 402 403 404
f 402 404 373
f 402 373 365
f 405 358 377
f 405 359 358
f 406 359 405
f 406 372 359
f 406 378 372
f 406 405 377
f 406 377 378
f 407 333 366
f 407 366 382
f 408 382 384
f 408 407 382
f 408 333 407
f 409 332 333
f 409 384 332
f 409 408 384
f 409 333 408
f 410 326 325
f 410 387 411
f 410 325 387
f 412 410 411
f 412 326 410
f 412 411 389
f 412 341 326
f 413 341 412
f 413 412 389
f 413 389 340
f 413 340 341
f 414 335 334
f 414 334 336
f 414 336 392
f 415 335 414
f 415 392 393
f 415 414 392
f 416 415 393
f 416 335 415
f 416 349 335
f 416 393 349
f 417 342 397
f 417 397 418
f 417 343 342
f 419 343 417
f 419 357 343
f 419 417 418
f 420 419 418
f 420 357 419
f 420 398 356
f 420 418 398
f 420 356 357
f 421 350 401
f 421 401 404
f 421 403 351
f 421 404 403
f 421 351 350
f 422 395 394
f 423 394 393
f 423 422 394
f 424 393 392
f 424 423 393
f 425 392 391
f 425 424 392
f 426 391 390
f 426 425 391
f 427 390 388
f 427 426 390
f 428 388 389
f 428 427 388
f 429 428 389
f 429 389 411
f 430 429 411
f 430 411 387
f 431 430 387
f 431 387 386
f 432 431 386
f 432 386 385
f 433 432 385
f 433 385 383
f 434 433 383
f 434 383 384
f 435 434 384
f 435 384 382
f 436 435 382
f 436 382 381
f 437 436 381
f 437 381 380
f 438 437 380
f 438 380 379
f 439 438 379
f 439 379 378
f 440 439 378
f 440 378 377
f 441 440 377
f 441 377 376
f 442 376 375
f 442 441 376
f 443 375 374
f 443 442 375
f 444 374 373
f 444 443 374
f 445 373 404
f 445 444 373
f 446 404 401
f 446 445 404
f 447 401 400
f 447 446 401
f 448 400 399
f 448 447 400
f 449 399 398
f 449 448 399
f 450 398 418
f 450 449 398
f 451 418 397
f 451 450 418
f 452 397 396
f 452 451 397
f 453 396 395
f 453 452 396
f 454 453 395
f 455 454 395
f 422 455 395
f 456 453 454
f 456 454 455
f 456 455 422
f 457 456 422
f 456 452 453
f 457 452 456
f 458 422 423
f 459 422 458
f 459 457 422
f 460 461 457
f 460 457 459
f 462 463 461
f 462 461 460
f 464 465 463
f 464 463 462
f 466 467 468
f 466 468 469
f 466 469 465
f 466 465 464
f 470 458 423
f 470 423 424
f 471 458 470
f 471 459 458
f 472 459 471
f 472 460 459
f 473 460 472
f 473 462 460
f 474 462 473
f 474 464 462
f 475 476 467
f 475 467 466
f 475 466 464
f 475 474 476
f 475 464 474
f 477 424 425
f 477 470 424
f 478 470 477
f 478 471 470
f 479 472 471
f 479 471 478
f 480 473 472
f 480 472 479
f 481 480 482
f 481 476 474
f 481 473 480
f 481 474 473
f 483 482 476
f 483 476 481
f 483 481 482
f 484 477 425
f 484 425 426
f 485 477 484
f 485 478 477
f 486 478 485
f 486 479 478
f 487 486 488
f 487 482 480
f 487 479 486
f 487 480 479
f 489 487 488
f 489 482 487
f 490 488 482
f 490 482 489
f 490 489 488
f 491 426 427
f 491 484 426
f 492 485 484
f 492 484 491
f 493 485 492
f 493 488 486
f 493 486 485
f 494 493 495
f 494 488 493
f 496 488 494
f 496 494 495
f 497 495 488
f 497 496 495
f 497 488 496
f 498 427 428
f 498 491 427
f 499 493 492
f 499 491 498
f 499 492 491
f 500 495 493
f 500 493 499
f 501 500 502
f 501 495 500
f 503 501 502
f 503 495 501
f 504 502 495
f 504 503 502
f 504 495 503
f 505 498 428
f 505 428 429
f 506 498 505
f 506 499 498
f 507 506 508
f 507 502 500
f 507 500 499
f 507 499 506
f 509 507 508
f 509 502 507
f 510 509 508
f 510 502 509
f 511 508 502
f 511 510 508
f 511 502 510
f 512 429 430
f 512 505 429
f 513 506 505
f 513 505 512
f 513 508 506
f 514 513 515
f 514 508 513
f 516 514 515
f 516 508 514
f 517 516 515
f 517 508 516
f 518 515 508
f 518 517 515
f 518 508 517
f 519 430 431
f 519 512 430
f 519 513 512
f 520 515 513
f 520 513 519
f 521 515 520
f 522 515 521
f 523 431 432
f 523 519 431
f 524 515 522
f 525 520 519
f 525 519 523
f 526 527 515
f 526 515 524
f 528 521 520
f 528 520 525
f 529 522 521
f 529 521 528
f 530 524 522
f 530 522 529
f 531 524 530
f 531 527 526
f 531 526 524
f 532 523 432
f 533 525 523
f 533 523 532
f 534 528 525
f 534 525 533
f 535 529 528
f 535 528 534
f 536 532 432
f 536 432 433
f 537 530 529
f 537 529 535
f 538 533 532
f 538 532 536
f 539 540 527
f 539 531 530
f 539 527 531
f 539 530 537
f 541 534 533
f 541 533 538
f 542 534 541
f 542 535 534
f 542 537 535
f 543 539 537
f 543 537 542
f 544 540 539
f 544 539 543
f 545 536 433
f 546 538 536
f 546 536 545
f 547 542 541
f 547 541 538
f 547 538 546
f 548 543 542
f 548 542 547
f 549 543 548
f 550 545 433
f 550 433 434
f 551 552 540
f 551 540 544
f 551 544 543
f 551 543 549
f 553 547 546
f 553 545 550
f 553 546 545
f 554 547 553
f 555 548 547
f 555 549 548
f 555 547 554
f 556 551 549
f 556 549 555
f 557 552 551
f 557 551 556
f 558 550 434
f 559 553 550
f 559 550 558
f 559 554 553
f 560 554 559
f 561 554 560
f 561 555 554
f 562 555 561
f 562 556 555
f 563 434 435
f 563 558 434
f 564 565 552
f 564 556 562
f 564 552 557
f 564 557 556
f 566 558 563
f 566 559 558
f 567 559 566
f 567 560 559
f 568 561 560
f 568 560 567
f 569 561 568
f 569 562 561
f 570 564 562
f 570 565 564
f 570 562 569
f 571 563 435
f 572 566 563
f 572 563 571
f 573 567 566
f 573 566 572
f 574 569 568
f 574 568 567
f 574 567 573
f 575 570 569
f 575 569 574
f 576 571 435
f 576 435 436
f 577 578 565
f 577 565 570
f 577 570 575
f 579 571 576
f 579 572 571
f 580 573 572
f 580 572 579
f 581 574 573
f 581 575 574
f 581 573 580
f 582 575 581
f 583 578 577
f 583 577 575
f 583 575 582
f 584 576 436
f 585 579 576
f 585 576 584
f 586 580 579
f 586 579 585
f 587 581 580
f 587 580 586
f 588 582 581
f 588 583 582
f 588 581 587
f 589 590 578
f 589 578 583
f 589 583 588
f 591 436 437
f 591 584 436
f 592 584 591
f 592 585 584
f 593 586 585
f 593 587 586
f 593 585 592
f 594 587 593
f 595 587 594
f 595 588 587
f 595 589 588
f 596 589 595
f 596 590 589
f 597 591 437
f 598 591 597
f 598 592 591
f 599 592 598
f 599 593 592
f 600 594 593
f 600 593 599
f 601 595 594
f 601 594 600
f 602 590 596
f 602 603 590
f 602 596 595
f 602 595 601
f 604 437 438
f 604 597 437
f 605 598 597
f 605 597 604
f 606 598 605
f 606 599 598
f 606 600 599
f 607 600 606
f 608 601 600
f 608 602 601
f 608 600 607
f 609 603 602
f 609 602 608
f 610 604 438
f 611 605 604
f 611 604 610
f 611 606 605
f 612 606 611
f 613 607 606
f 613 606 612
f 614 608 607
f 614 607 613
f 615 616 603
f 615 609 608
f 615 608 614
f 615 603 609
f 617 610 438
f 617 438 439
f 618 611 610
f 618 610 617
f 618 612 611
f 619 613 612
f 619 612 618
f 620 613 619
f 621 613 620
f 621 614 613
f 621 615 614
f 622 616 615
f 622 615 621
f 623 617 439
f 624 618 617
f 624 617 623
f 625 620 619
f 625 619 618
f 625 618 624
f 626 620 625
f 627 621 620
f 627 620 626
f 628 629 616
f 628 616 622
f 628 622 621
f 628 621 627
f 630 439 440
f 630 623 439
f 631 623 630
f 631 624 623
f 631 625 624
f 632 625 631
f 633 626 625
f 633 627 626
f 633 625 632
f 634 627 633
f 634 628 627
f 635 628 634
f 635 629 628
f 636 630 440
f 637 632 631
f 637 630 636
f 637 631 630
f 638 632 637
f 639 632 638
f 639 633 632
f 640 633 639
f 640 634 633
f 641 635 634
f 641 629 635
f 641 642 629
f 641 634 640
f 643 636 440
f 643 440 441
f 644 637 636
f 644 636 643
f 644 638 637
f 645 638 644
f 646 640 639
f 646 639 638
f 646 638 645
f 647 640 646
f 648 643 441
f 649 642 641
f 649 641 640
f 649 640 647
f 650 644 643
f 650 643 648
f 651 645 644
f 651 644 650
f 652 646 645
f 652 645 651
f 653 647 646
f 653 646 652
f 654 655 642
f 654 642 649
f 654 649 647
f 654 647 653
f 656 648 441
f 656 441 442
f 657 648 656
f 657 650 648
f 658 651 650
f 658 650 657
f 659 652 651
f 659 651 658
f 660 653 652
f 660 652 659
f 661 657 656
f 661 656 442
f 662 655 654
f 662 654 653
f 662 653 660
f 663 657 661
f 664 658 657
f 664 657 663
f 665 659 658
f 665 660 659
f 665 658 664
f 666 660 665
f 667 660 666
f 667 668 655
f 667 655 662
f 667 662 660
f 669 442 443
f 669 661 442
f 670 661 669
f 670 663 661
f 671 663 670
f 671 664 663
f 672 664 671
f 672 665 664
f 673 669 443
f 674 666 665
f 674 665 672
f 675 669 673
f 675 670 669
f 676 668 667
f 676 666 674
f 676 667 666
f 677 671 670
f 677 670 675
f 678 672 671
f 678 671 677
f 679 674 672
f 679 672 678
f 680 668 676
f 680 681 668
f 680 676 674
f 680 674 679
f 682 673 443
f 682 675 673
f 682 443 444
f 683 675 682
f 684 677 675
f 684 678 677
f 684 675 683
f 685 678 684
f 686 683 682
f 686 682 444
f 687 678 685
f 687 679 678
f 687 680 679
f 688 683 686
f 689 681 680
f 689 680 687
f 690 684 683
f 690 683 688
f 691 685 684
f 691 684 690
f 692 687 685
f 692 685 691
f 693 694 681
f 693 681 689
f 693 689 687
f 693 687 692
f 695 688 686
f 695 444 445
f 695 686 444
f 696 688 695
f 697 690 688
f 697 688 696
f 698 691 690
f 698 692 691
f 698 690 697
f 699 695 445
f 700 692 698
f 701 696 695
f 701 695 699
f 702 694 693
f 702 693 692
f 702 692 700
f 703 697 696
f 703 698 697
f 703 696 701
f 704 698 703
f 705 700 698
f 705 702 700
f 705 698 704
f 706 702 705
f 706 707 694
f 706 694 702
f 708 445 446
f 708 699 445
f 709 699 708
f 709 701 699
f 709 708 446
f 710 709 446
f 710 701 709
f 710 703 701
f 711 710 446
f 711 703 710
f 711 704 703
f 712 705 704
f 712 704 711
f 712 711 446
f 713 706 705
f 713 707 706
f 713 705 712
f 714 446 447
f 715 446 714
f 715 714 447
f 716 446 715
f 716 715 447
f 717 712 446
f 717 716 447
f 717 446 716
f 718 719 707
f 718 712 717
f 718 707 713
f 718 713 712
f 720 447 448
f 721 720 448
f 721 447 720
f 722 721 448
f 722 447 721
f 723 717 447
f 723 447 722
f 724 725 719
f 724 726 725
f 724 719 718
f 724 718 717
f 724 717 723
f 727 448 449
f 728 727 449
f 728 448 727
f 729 722 448
f 729 728 449
f 729 448 728
f 730 722 729
f 730 723 722
f 731 726 724
f 731 724 723
f 731 723 730
f 732 449 450
f 733 732 450
f 733 449 732
f 734 733 450
f 734 729 449
f 734 449 733
f 735 729 734
f 735 730 729
f 736 737 726
f 736 731 730
f 736 730 735
f 736 726 731
f 738 450 451
f 739 450 738
f 739 738 451
f 740 450 739
f 740 739 451
f 741 734 450
f 741 735 734
f 741 450 740
f 742 735 741
f 743 744 737
f 743 745 744
f 743 737 736
f 743 736 735
f 743 735 742
f 746 451 452
f 747 451 746
f 747 746 452
f 747 452 457
f 748 451 747
f 748 747 457
f 748 457 461
f 748 740 451
f 749 748 461
f 749 740 748
f 749 461 463
f 749 741 740
f 750 749 463
f 750 741 749
f 750 463 465
f 750 742 741
f 751 745 743
f 751 743 742
f 751 742 750
f 751 750 465
f 751 468 745
f 751 469 468
f 751 465 469
f 752 482 488
f 753 488 495
f 753 752 488
f 754 476 482
f 754 482 752
f 755 495 502
f 755 753 495
f 756 467 476
f 756 476 754
f 757 502 508
f 757 755 502
f 758 468 467
f 758 467 756
f 759 757 508
f 515 759 508
f 760 745 468
f 760 468 758
f 761 759 515
f 527 761 515
f 762 745 760
f 744 745 762
f 763 761 527
f 540 763 527
f 764 744 762
f 737 744 764
f 765 763 540
f 552 765 540
f 766 737 764
f 726 737 766
f 767 765 552
f 565 767 552
f 768 726 766
f 725 726 768
f 769 767 565
f 578 769 565
f 770 725 768
f 771 769 578
f 719 725 770
f 590 771 578
f 772 719 770
f 773 771 590
f 707 719 772
f 603 773 590
f 774 707 772
f 775 773 603
f 694 707 774
f 616 775 603
f 776 775 616
f 681 774 777
f 681 694 774
f 629 778 776
f 629 776 616
f 668 777 779
f 668 681 777
f 642 780 778
f 642 778 629
f 655 779 780
f 655 668 779
f 655 780 642
f 759 761 781
f 781 761 782
f 782 763 783
f 761 763 782
f 783 765 784
f 763 765 783
f 784 767 785
f 765 767 784
f 785 769 786
f 767 769 785
f 786 771 787
f 769 771 786
f 787 773 788
f 771 773 787
f 788 775 789
f 773 775 788
f 789 776 790
f 775 776 789
f 776 778 790
f 790 778 791
f 778 780 791
f 791 780 792
f 792 780 793
f 780 779 793
f 779 777 793
f 793 777 794
f 777 774 794
f 794 774 795
f 774 772 795
f 795 772 796
f 772 770 796
f 796 770 797
f 770 768 797
f 797 768 798
f 768 766 798
f 798 766 799
f 766 764 799
f 799 764 800
f 764 762 800
f 800 762 801
f 762 760 801
f 801 760 802
f 802 758 803
f 760 758 802
f 758 756 803
f 803 756 804
f 804 754 805
f 756 754 804
f 805 752 806
f 806 752 807
f 754 752 805
f 807 753 808
f 752 753 807
f 753 755 808
f 808 757 809
f 755 757 808
f 809 759 781
f 757 759 809
f 810 784 785
f 811 785 786
f 811 810 785
f 812 783 784
f 812 784 810
f 813 786 787
f 813 811 786
f 814 782 783
f 814 783 812
f 815 787 788
f 815 813 787
f 816 781 782
f 816 809 781
f 816 782 814
f 817 788 789
f 817 815 788
f 818 808 809
f 818 809 816
f 819 789 790
f 819 817 789
f 820 808 818
f 807 808 820
f 821 819 790
f 821 790 791
f 822 807 820
f 792 821 791
f 823 821 792
f 806 807 822
f 824 806 822
f 793 823 792
f 793 825 823
f 805 806 824
f 805 824 826
f 794 825 793
f 794 827 825
f 804 805 826
f 804 826 828
f 795 829 827
f 795 827 794
f 803 804 828
f 803 828 830
f 796 829 795
f 796 831 829
f 802 803 830
f 802 830 832
f 797 833 831
f 797 831 796
f 801 832 834
f 801 802 832
f 798 835 833
f 798 833 797
f 800 801 834
f 799 834 835
f 799 835 798
f 799 800 834
f 829 831 836
f 836 831 837
f 837 833 838
f 831 833 837
f 838 835 839
f 833 835 838
f 839 834 840
f 835 834 839
f 840 832 841
f 834 832 840
f 841 830 842
f 832 830 841
f 842 828 843
f 830 828 842
f 843 826 844
f 828 826 843
f 844 824 845
f 826 824 844
f 846 822 847
f 845 822 846
f 824 822 845
f 822 820 847
f 820 818 847
f 847 818 848
f 818 816 848
f 848 816 849
f 816 814 849
f 849 814 850
f 814 812 850
f 850 812 851
f 812 810 851
f 852 810 853
f 851 810 852
f 810 811 853
f 811 813 853
f 854 813 855
f 853 813 854
f 813 815 855
f 855 817 856
f 815 817 855
f 857 819 858
f 856 819 857
f 817 819 856
f 819 821 858
f 858 823 859
f 821 823 858
f 859 825 860
f 823 825 859
f 860 827 861
f 825 827 860
f 861 829 836
f 827 829 861
f 862 839 863
f 863 840 864
f 839 840 863
f 865 838 862
f 862 838 839
f 864 841 866
f 840 841 864
f 867 837 865
f 865 837 838
f 841 842 866
f 842 74 866
f 868 836 867
f 869 836 868
f 867 836 837
f 842 843 74
f 843 76 74
f 870 861 869
f 869 861 836
f 843 844 76
f 844 78 76
f 871 860 870
f 870 860 861
f 871 872 860
f 844 845 78
f 845 79 78
f 872 859 860
f 872 873 859
f 845 846 79
f 846 874 79
f 873 858 859
f 873 875 858
f 846 876 874
f 846 847 876
f 847 877 876
f 875 878 858
f 858 878 857
f 847 848 877
f 878 879 857
f 857 880 856
f 879 880 857
f 848 881 877
f 848 849 881
f 849 882 881
f 880 883 856
f 856 883 855
f 850 884 849
f 849 884 882
f 855 885 854
f 883 885 855
f 851 886 850
f 850 886 884
f 852 887 851
f 851 887 886
f 854 888 853
f 885 888 854
f 853 889 852
f 852 889 887
f 888 890 853
f 853 890 889
f 207 891 206
f 891 892 893
f 207 892 891
f 893 894 895
f 892 894 893
f 895 896 897
f 894 896 895
f 897 898 899
f 896 898 897
f 899 900 901
f 898 900 899
f 901 902 903
f 900 902 901
f 903 904 905
f 902 904 903
f 905 906 907
f 904 906 905
f 907 908 909
f 906 908 907
f 908 910 909
f 909 910 911
f 910 912 911
f 911 912 913
f 912 914 913
f 913 914 915
f 914 916 915
f 915 916 917
f 917 918 919
f 916 918 917
f 919 920 921
f 918 920 919
f 921 922 923
f 920 922 921
f 923 924 925
f 922 924 923
f 925 926 927
f 924 926 925
f 927 928 929
f 926 928 927
f 929 930 931
f 928 930 929
f 931 932 933
f 930 932 931
f 933 934 935
f 932 934 933
f 935 936 937
f 934 936 935
f 937 938 939
f 936 938 937
f 939 940 941
f 938 940 939
f 940 942 941
f 942 137 941
f 942 135 137
f 15 13 240
f 13 943 240
f 10 944 11
f 6 945 946
f 101 947 948
f 36 949 35
f 36 950 949
f 943 951 944
f 13 951 943
f 944 951 11
f 11 951 13
f 944 952 946
f 946 952 6
f 10 952 944
f 6 952 8
f 8 952 10
f 2 953 4
f 4 953 6
f 945 954 955
f 2 954 953
f 953 954 6
f 6 954 945
f 955 954 2
f 956 957 192
f 192 957 1
f 1 957 2
f 955 958 959
f 959 958 956
f 2 958 955
f 957 958 2
f 956 958 957
f 960 961 196
f 196 961 194
f 194 961 192
f 956 962 963
f 963 962 960
f 961 962 192
f 960 962 961
f 192 962 956
f 196 964 960
f 198 964 196
f 960 965 966
f 966 965 967
f 967 965 964
f 964 965 960
f 198 968 964
f 964 968 967
f 202 968 200
f 200 968 198
f 969 968 202
f 967 970 971
f 971 970 969
f 969 970 968
f 968 970 967
f 204 972 202
f 969 973 974
f 974 973 975
f 972 973 202
f 975 973 972
f 202 973 969
f 893 976 891
f 891 976 206
f 206 976 204
f 972 976 975
f 204 976 972
f 977 978 893
f 975 978 979
f 979 978 977
f 976 978 975
f 893 978 976
f 895 980 893
f 893 981 977
f 977 981 982
f 982 981 983
f 983 981 984
f 984 981 980
f 980 981 893
f 985 986 899
f 895 986 980
f 980 986 984
f 899 986 897
f 897 986 895
f 984 987 988
f 988 987 985
f 986 987 984
f 985 987 986
f 899 989 985
f 901 989 899
f 985 990 991
f 991 990 992
f 989 990 985
f 992 990 989
f 905 993 903
f 903 993 901
f 989 993 992
f 901 993 989
f 905 994 993
f 992 994 995
f 995 994 996
f 996 994 997
f 993 994 992
f 907 998 905
f 997 999 1000
f 1000 999 1001
f 905 999 994
f 994 999 997
f 1001 999 998
f 998 999 905
f 1002 1003 911
f 998 1003 1001
f 907 1003 998
f 911 1003 909
f 909 1003 907
f 1001 1004 1005
f 1005 1004 1002
f 1003 1004 1001
f 1002 1004 1003
f 913 1006 911
f 1002 1007 1008
f 1009 1007 1006
f 1008 1007 1009
f 1006 1007 911
f 911 1007 1002
f 1006 1010 1009
f 913 1010 1006
f 1011 1010 917
f 917 1010 915
f 915 1010 913
f 1009 1012 1013
f 1013 1012 1011
f 1010 1012 1009
f 1011 1012 1010
f 919 1014 917
f 1014 1015 917
f 1016 1015 1014
f 1011 1015 1017
f 1017 1015 1016
f 917 1015 1011
f 919 1018 1014
f 1014 1018 1016
f 923 1018 921
f 921 1018 919
f 1016 1019 1020
f 1020 1019 1021
f 1018 1019 1016
f 923 1019 1018
f 1021 1019 923
f 925 1022 923
f 1021 1023 1024
f 1024 1023 1025
f 1025 1023 1026
f 923 1023 1021
f 1022 1023 923
f 1022 1027 1023
f 929 1027 927
f 927 1027 925
f 925 1027 1022
f 1028 1029 929
f 1023 1029 1026
f 929 1029 1027
f 1027 1029 1023
f 1026 1029 1030
f 1030 1029 1028
f 931 1031 929
f 929 1032 1028
f 1028 1032 1033
f 1033 1032 1034
f 1031 1032 929
f 1034 1032 1031
f 1035 1036 935
f 935 1036 933
f 933 1036 931
f 1031 1036 1034
f 931 1036 1031
f 1035 1037 1036
f 1036 1037 1034
f 1034 1037 1038
f 1038 1037 1035
f 935 1039 1035
f 937 1039 935
f 1035 1040 1041
f 1041 1040 1042
f 1042 1040 1039
f 1039 1040 1035
f 941 1043 939
f 939 1043 937
f 1039 1043 1042
f 937 1043 1039
f 1044 1045 941
f 1042 1045 1046
f 1046 1045 1044
f 1043 1045 1042
f 941 1045 1043
f 136 1047 137
f 137 1047 941
f 941 1048 1044
f 1049 1048 136
f 1047 1048 941
f 1044 1048 1050
f 1050 1048 1049
f 136 1048 1047
f 1051 1052 141
f 141 1052 139
f 139 1052 136
f 1052 1053 136
f 1051 1053 1052
f 136 1053 1049
f 1049 1053 1054
f 1054 1053 1051
f 143 1055 141
f 1055 1056 141
f 141 1056 1051
f 1051 1056 1057
f 1057 1056 1058
f 1058 1056 1059
f 1055 1060 1056
f 143 1060 1055
f 147 1060 145
f 145 1060 143
f 1056 1061 1059
f 1060 1061 1056
f 147 1061 1060
f 1062 1061 147
f 1059 1061 1063
f 1063 1061 1062
f 149 1064 147
f 147 1065 1062
f 1064 1065 147
f 1062 1065 1066
f 1066 1065 1067
f 1067 1065 1064
f 153 1068 151
f 151 1068 149
f 149 1068 1064
f 1064 1068 1067
f 1068 1069 1067
f 1067 1069 1070
f 1070 1069 1071
f 1071 1069 153
f 153 1069 1068
f 155 1072 153
f 1073 1074 1072
f 1071 1074 1075
f 1075 1074 1076
f 1076 1074 1073
f 153 1074 1071
f 1072 1074 153
f 1072 1077 1073
f 159 1077 157
f 157 1077 155
f 155 1077 1072
f 1077 1078 1073
f 159 1078 1077
f 1073 1078 1079
f 1079 1078 1080
f 161 1081 159
f 159 1082 1078
f 1081 1082 159
f 1078 1082 1080
f 1080 1082 1083
f 1083 1082 1084
f 1084 1082 1081
f 165 1085 163
f 163 1085 161
f 161 1085 1081
f 1081 1085 1084
f 1086 1087 165
f 1085 1087 1084
f 165 1087 1085
f 1084 1087 1088
f 1088 1087 1086
f 167 1089 165
f 165 1090 1086
f 1091 1090 1089
f 1089 1090 165
f 1086 1090 1092
f 1092 1090 1093
f 1093 1090 1091
f 171 1094 169
f 1089 1094 1091
f 169 1094 167
f 167 1094 1089
f 1095 1096 171
f 1094 1096 1091
f 171 1096 1094
f 1091 1096 1097
f 1097 1096 1095
f 173 1098 171
f 171 1099 1095
f 1098 1099 171
f 1095 1099 1100
f 1101 1102 177
f 173 1102 1098
f 177 1102 175
f 175 1102 173
f 1102 1103 1098
f 1100 1103 1104
f 1104 1103 1101
f 1099 1103 1100
f 1101 1103 1102
f 1098 1103 1099
f 179 1105 177
f 1106 1107 1105
f 177 1107 1101
f 1101 1107 1108
f 1108 1107 1106
f 1105 1107 177
f 1105 1109 1106
f 183 1109 181
f 181 1109 179
f 1110 1109 183
f 179 1109 1105
f 1110 1111 1109
f 1109 1111 1106
f 1106 1111 1112
f 1112 1111 1110
f 185 1113 183
f 1114 1115 1113
f 183 1115 1110
f 1113 1115 183
f 1110 1115 1116
f 1116 1115 1114
f 1113 1117 1114
f 82 1117 187
f 187 1117 185
f 185 1117 1113
f 1117 1118 1114
f 82 1118 1117
f 1119 1118 82
f 1114 1118 1120
f 1120 1118 1121
f 1121 1118 1119
f 84 1122 81
f 81 1122 82
f 1123 1124 1122
f 82 1124 1119
f 1122 1124 82
f 1119 1124 1125
f 1125 1124 1123
f 1122 1126 1123
f 89 1126 87
f 87 1126 84
f 84 1126 1122
f 1127 1126 89
f 1127 1128 1126
f 1126 1128 1123
f 1123 1128 1129
f 1129 1128 1127
f 91 1130 89
f 1131 1132 1130
f 1130 1132 89
f 89 1132 1127
f 1127 1132 1133
f 1133 1132 1131
f 1130 1134 1131
f 95 1134 93
f 93 1134 91
f 91 1134 1130
f 1135 1136 1137
f 95 1136 1134
f 1134 1136 1131
f 1137 1136 95
f 1131 1136 1138
f 1138 1136 1135
f 97 1139 95
f 1137 1140 1141
f 1141 1140 1142
f 1142 1140 1139
f 1139 1140 95
f 95 1140 1137
f 101 1143 99
f 99 1143 97
f 1139 1143 1142
f 97 1143 1139
f 1143 1144 1142
f 1142 1144 1145
f 1145 1144 948
f 948 1144 101
f 101 1144 1143
f 103 1146 101
f 947 1147 1148
f 1148 1147 1149
f 101 1147 947
f 1149 1147 1146
f 1146 1147 101
f 1146 1150 1149
f 107 1150 105
f 105 1150 103
f 103 1150 1146
f 1149 1151 1152
f 1152 1151 1153
f 1150 1151 1149
f 1153 1151 107
f 107 1151 1150
f 109 1154 107
f 1153 1155 1156
f 1156 1155 1157
f 1157 1155 1158
f 107 1155 1153
f 1154 1155 107
f 113 1159 111
f 111 1159 109
f 109 1159 1154
f 1158 1160 1161
f 113 1160 1159
f 1161 1160 113
f 1155 1160 1158
f 1154 1160 1155
f 1159 1160 1154
f 115 1162 113
f 1161 1163 1164
f 1164 1163 1165
f 113 1163 1161
f 1165 1163 1162
f 1162 1163 113
f 119 1166 117
f 117 1166 115
f 115 1166 1162
f 1162 1166 1165
f 1165 1167 1168
f 1168 1167 1169
f 1166 1167 1165
f 119 1167 1166
f 1169 1167 119
f 123 1170 121
f 121 1170 119
f 1169 1171 1172
f 1172 1171 1173
f 119 1171 1169
f 1170 1171 119
f 125 1174 123
f 123 1174 1170
f 1173 1175 1176
f 1176 1175 1177
f 1177 1175 1178
f 1171 1175 1173
f 1178 1175 125
f 125 1175 1174
f 1170 1175 1171
f 1174 1175 1170
f 129 1179 127
f 127 1179 125
f 1178 1180 1181
f 1181 1180 1182
f 125 1180 1178
f 1179 1180 125
f 1182 1180 1179
f 131 1183 129
f 129 1183 1179
f 1184 1183 131
f 1179 1183 1182
f 1184 1185 1183
f 1182 1185 1186
f 1186 1185 1184
f 1183 1185 1182
f 33 1187 133
f 133 1187 131
f 1184 1188 1189
f 1189 1188 1190
f 131 1188 1184
f 1187 1188 131
f 35 1191 32
f 32 1191 33
f 1187 1191 1188
f 33 1191 1187
f 949 1191 35
f 1188 1192 1190
f 949 1192 1191
f 1190 1192 1193
f 1193 1192 1194
f 1194 1192 949
f 1191 1192 1188
f 38 1195 36
f 36 1195 950
f 889 1196 887
f 890 1197 1198
f 890 888 1197
f 888 1199 1197
f 888 1200 1199
f 888 885 1200
f 885 1201 1200
f 885 883 1201
f 883 1202 1201
f 883 1203 1202
f 883 880 1203
f 40 1204 38
f 38 1204 1195
f 1195 1205 1206
f 1204 1205 1195
f 42 1207 40
f 40 1207 1204
f 1207 1208 1204
f 1206 1208 1209
f 1204 1208 1205
f 1205 1208 1206
f 44 1210 42
f 42 1210 1207
f 1207 1211 1208
f 1209 1211 1212
f 1210 1211 1207
f 1208 1211 1209
f 44 1213 1210
f 46 1213 44
f 1211 1214 1212
f 1212 1214 1215
f 1215 1214 1216
f 1210 1214 1211
f 1213 1214 1210
f 48 1217 46
f 46 1217 1213
f 1216 1218 1219
f 1214 1218 1216
f 1213 1218 1214
f 1217 1218 1213
f 50 1220 48
f 48 1220 1217
f 1218 1221 1219
f 1217 1221 1218
f 1219 1221 1222
f 1220 1221 1217
f 52 1223 50
f 50 1223 1220
f 1220 1224 1221
f 1221 1224 1222
f 1222 1224 1225
f 1225 1224 1226
f 1223 1224 1220
f 54 1227 52
f 52 1227 1223
f 1227 1228 1223
f 1226 1228 1229
f 1224 1228 1226
f 1223 1228 1224
f 1227 1230 1228
f 58 1230 56
f 56 1230 54
f 54 1230 1227
f 1230 1231 1228
f 1229 1231 1232
f 1232 1231 1233
f 1228 1231 1229
f 1230 1234 1231
f 61 1234 58
f 58 1234 1230
f 1234 1235 1231
f 1233 1235 1236
f 1231 1235 1233
f 63 1237 61
f 61 1237 1234
f 1235 1238 1236
f 1237 1238 1234
f 1234 1238 1235
f 1236 1238 1239
f 1239 1238 1240
f 65 1241 63
f 1237 1241 1238
f 63 1241 1237
f 1238 1242 1240
f 1240 1242 1243
f 1243 1242 1244
f 1241 1242 1238
f 67 1245 65
f 65 1245 1241
f 1242 1246 1244
f 1241 1246 1242
f 1245 1246 1241
f 1244 1246 1247
f 69 1248 67
f 67 1248 1245
f 1245 1248 1246
f 1247 1249 1250
f 1246 1249 1247
f 1248 1249 1246
f 71 1251 69
f 69 1251 1248
f 1249 1252 1250
f 1251 1252 1248
f 1250 1252 1253
f 1248 1252 1249
f 73 1254 71
f 71 1254 1251
f 1251 1254 1252
f 1252 1255 1253
f 1253 1255 1256
f 1256 1255 1257
f 1254 1255 1252
f 75 1258 73
f 73 1258 1254
f 1257 1259 1260
f 1255 1259 1257
f 1254 1259 1255
f 1258 1259 1254
f 77 1261 75
f 75 1261 1258
f 1260 1262 1263
f 1259 1262 1260
f 1258 1262 1259
f 1261 1262 1258
f 79 1264 77
f 77 1264 1261
f 1263 1265 1266
f 1262 1265 1263
f 1261 1265 1262
f 1264 1265 1261
f 876 1267 874
f 79 1267 1264
f 874 1267 79
f 1266 1268 1269
f 1269 1268 1270
f 1265 1268 1266
f 1264 1268 1265
f 1267 1268 1264
f 876 1271 1267
f 877 1271 876
f 1270 1272 1273
f 1268 1272 1270
f 1267 1272 1268
f 1271 1272 1267
f 877 1272 1271
f 1273 1274 1275
f 1275 1274 1276
f 882 1274 881
f 881 1274 877
f 877 1274 1272
f 1272 1274 1273
f 1276 1277 1278
f 884 1277 882
f 1278 1277 884
f 1274 1277 1276
f 882 1277 1274
f 1279 1280 886
f 1278 1280 1281
f 1281 1280 1279
f 886 1280 884
f 884 1280 1278
f 886 1282 1279
f 1196 1282 887
f 1279 1282 1283
f 1283 1282 1196
f 887 1282 886
f 889 1284 1196
f 1198 1284 890
f 1196 1284 1198
f 890 1284 889
f 869 59 57
f 862 66 64
f 862 863 66
f 863 68 66
f 863 864 68
f 864 70 68
f 864 866 70
f 866 72 70
f 866 74 72
f 1195 1285 950
f 86 1286 88
f 950 1286 86
f 1285 1286 950
f 1195 1287 1285
f 1206 1287 1195
f 1209 1287 1206
f 88 1288 90
f 90 1288 92
f 1286 1288 88
f 1285 1288 1286
f 1209 1288 1287
f 1287 1288 1285
f 1212 1289 1209
f 1209 1290 1288
f 92 1290 94
f 94 1290 1289
f 1289 1290 1209
f 1288 1290 92
f 1289 1291 94
f 1212 1291 1289
f 1215 1291 1212
f 1216 1291 1215
f 94 1292 96
f 96 1292 98
f 1291 1292 94
f 1216 1292 1291
f 100 1293 1222
f 1219 1293 1216
f 1222 1293 1219
f 98 1294 100
f 1292 1294 98
f 1293 1294 1216
f 1216 1294 1292
f 100 1294 1293
f 1225 1295 1222
f 1226 1295 1225
f 100 1296 102
f 1222 1296 100
f 1226 1296 1295
f 1295 1296 1222
f 1229 1297 1226
f 1232 1297 1229
f 102 1298 104
f 104 1298 106
f 1296 1298 102
f 1226 1298 1296
f 1297 1298 1226
f 1232 1298 1297
f 106 1298 1232
f 1233 1299 1232
f 1236 1299 1233
f 106 1300 108
f 1232 1300 106
f 1299 1300 1232
f 1236 1300 1299
f 1239 1301 1236
f 1240 1301 1239
f 1300 1302 108
f 108 1302 110
f 1236 1302 1300
f 110 1302 112
f 1301 1302 1236
f 1240 1302 1301
f 112 1302 1240
f 1243 1303 1240
f 1244 1303 1243
f 114 1303 1244
f 114 1304 1303
f 112 1304 114
f 1303 1304 1240
f 1240 1304 112
f 1244 1305 114
f 1247 1305 1244
f 1250 1305 1247
f 114 1306 116
f 116 1306 118
f 1250 1306 1305
f 1305 1306 114
f 1253 1307 1250
f 1256 1307 1253
f 118 1308 120
f 120 1308 1307
f 1307 1308 1250
f 1306 1308 118
f 1250 1308 1306
f 1307 1309 120
f 1256 1309 1307
f 1257 1309 1256
f 1309 1310 120
f 120 1310 122
f 1257 1311 1309
f 1309 1311 1310
f 1260 1311 1257
f 1263 1311 1260
f 126 1312 1263
f 1263 1312 1311
f 122 1312 124
f 124 1312 126
f 1311 1312 1310
f 1310 1312 122
f 1266 1313 1263
f 1269 1313 1266
f 1263 1314 126
f 126 1314 128
f 1313 1314 1263
f 1269 1314 1313
f 1270 1315 1269
f 1273 1315 1270
f 1273 1316 1315
f 132 1316 1273
f 128 1316 130
f 130 1316 132
f 1315 1316 1269
f 1314 1316 128
f 1269 1316 1314
f 1275 1317 1273
f 1276 1317 1275
f 1317 1318 1273
f 1273 1318 132
f 132 1318 134
f 1276 1318 1317
f 1278 1319 1276
f 1281 1319 1278
f 1319 1320 1276
f 1281 1320 1319
f 1276 1320 1318
f 1318 1320 134
f 134 1320 31
f 31 1320 34
f 34 1320 1281
f 1281 1321 34
f 1279 1321 1281
f 1283 1321 1279
f 1321 1322 34
f 34 1322 37
f 1283 1322 1321
f 41 1323 1198
f 1196 1323 1283
f 1198 1323 1196
f 1283 1324 1322
f 41 1324 1323
f 37 1324 39
f 39 1324 41
f 1323 1324 1283
f 1322 1324 37
f 1199 1325 1197
f 1200 1325 1199
f 1198 1325 41
f 1197 1325 1198
f 1325 1326 41
f 41 1326 43
f 1201 1327 1200
f 1202 1327 1201
f 1200 1327 1325
f 43 1328 45
f 1325 1328 1326
f 45 1328 47
f 1326 1328 43
f 1327 1328 1325
f 1202 1328 1327
f 1203 1329 1202
f 880 1329 1203
f 879 1329 880
f 47 1330 49
f 1328 1330 47
f 1202 1330 1328
f 879 1330 1329
f 1329 1330 1202
f 49 1330 879
f 873 1331 875
f 875 1331 878
f 49 1332 51
f 51 1332 53
f 873 1332 1331
f 1331 1332 878
f 878 1332 879
f 879 1332 49
f 53 1332 873
f 871 1333 872
f 872 1333 873
f 53 1334 55
f 871 1334 1333
f 1333 1334 873
f 873 1334 53
f 55 1334 871
f 55 1335 57
f 869 1335 870
f 870 1335 871
f 871 1335 55
f 57 1335 869
f 62 1336 867
f 59 1336 60
f 60 1336 62
f 867 1336 868
f 868 1336 869
f 869 1336 59
f 867 1337 62
f 64 1337 862
f 62 1337 64
f 862 1337 865
f 865 1337 867
f 240 943 244
f 943 248 244
f 943 252 248
f 943 944 252
f 944 1338 252
f 944 946 1338
f 946 1339 1338
f 946 1340 1339
f 946 945 1340
f 945 1341 1340
f 945 955 1341
f 955 1342 1341
f 955 959 1342
f 956 1343 959
f 959 1343 1342
f 963 1344 956
f 956 1344 1343
f 960 1345 963
f 963 1345 1344
f 960 1346 1345
f 967 1347 966
f 967 971 1347
f 969 1348 971
f 971 1348 1347
f 974 1349 969
f 969 1349 1348
f 975 979 1350
f 979 1351 1350
f 982 1352 977
f 983 1353 1354
f 984 1353 983
f 995 1355 992
f 997 29 996
f 997 28 29
f 1001 26 1000
f 947 154 948
f 950 85 949
f 950 86 85
f 966 1356 960
f 1346 1356 1347
f 960 1356 1346
f 1347 1356 966
f 1349 1357 1350
f 975 1357 974
f 974 1357 1349
f 1350 1357 975
f 979 1358 1351
f 1352 1358 977
f 1351 1358 1352
f 977 1358 979
f 1352 1359 1354
f 982 1359 1352
f 1354 1359 983
f 983 1359 982
f 1353 1360 1361
f 984 1360 1353
f 988 1360 984
f 985 1360 988
f 1361 1360 985
f 1362 1363 1355
f 1361 1363 1362
f 991 1363 985
f 992 1363 991
f 985 1363 1361
f 1355 1363 992
f 1355 1364 29
f 996 1364 995
f 995 1364 1355
f 29 1364 996
f 1000 1365 997
f 28 1365 26
f 997 1365 28
f 26 1365 1000
f 1005 1366 1001
f 1002 1366 1005
f 1001 1366 26
f 22 1366 1002
f 22 1367 1366
f 1366 1367 26
f 24 1367 22
f 26 1367 24
f 1008 1368 1002
f 1009 1368 1008
f 1002 1368 22
f 20 1368 1009
f 22 1369 20
f 1368 1369 22
f 20 1369 1368
f 1013 1370 1009
f 1011 1370 1013
f 1009 1370 20
f 14 1370 1011
f 14 1371 1370
f 16 1371 14
f 20 1371 16
f 1370 1371 20
f 1017 1372 1011
f 1016 1372 1017
f 1011 1372 14
f 12 1373 9
f 14 1373 12
f 1372 1373 14
f 1016 1373 1372
f 1020 1374 1016
f 1021 1374 1020
f 7 1374 1021
f 1374 1375 1016
f 9 1375 7
f 1373 1375 9
f 1016 1375 1373
f 7 1375 1374
f 1024 1376 1021
f 1025 1376 1024
f 1026 1376 1025
f 1021 1376 7
f 7 1377 189
f 189 1377 190
f 1376 1377 7
f 191 1378 1028
f 1030 1378 1026
f 1028 1378 1030
f 1026 1378 1376
f 190 1379 191
f 1378 1379 1376
f 1377 1379 190
f 1376 1379 1377
f 191 1379 1378
f 1028 1380 191
f 1033 1380 1028
f 1034 1380 1033
f 191 1381 193
f 193 1381 195
f 1380 1381 191
f 1034 1381 1380
f 197 1382 1035
f 1038 1382 1034
f 1035 1382 1038
f 1381 1383 195
f 197 1383 1382
f 1382 1383 1034
f 195 1383 197
f 1034 1383 1381
f 1041 1384 1035
f 1042 1384 1041
f 1035 1385 197
f 197 1385 199
f 199 1385 201
f 1384 1385 1035
f 1042 1385 1384
f 203 1386 1044
f 1046 1386 1042
f 1044 1386 1046
f 1386 1387 1042
f 201 1387 203
f 1385 1387 201
f 1042 1387 1385
f 203 1387 1386
f 1044 1388 203
f 1050 1388 1044
f 1049 1388 1050
f 1388 1389 203
f 203 1389 205
f 205 1389 207
f 1049 1389 1388
f 1054 1390 1049
f 1051 1390 1054
f 207 1391 892
f 892 1391 894
f 894 1391 1051
f 1049 1391 1389
f 1389 1391 207
f 1051 1391 1390
f 1390 1391 1049
f 1051 1392 894
f 1057 1392 1051
f 1058 1392 1057
f 1059 1392 1058
f 1392 1393 894
f 894 1393 896
f 1059 1394 1392
f 1063 1394 1059
f 1062 1394 1063
f 900 1394 1062
f 1392 1395 1393
f 896 1395 898
f 898 1395 900
f 1393 1395 896
f 1394 1395 1392
f 900 1395 1394
f 1066 1396 1062
f 1062 1396 900
f 1067 1396 1066
f 1067 1397 1396
f 1396 1397 900
f 900 1397 902
f 902 1397 904
f 1070 1398 1067
f 1071 1398 1070
f 906 1398 1071
f 1067 1399 1397
f 1397 1399 904
f 1398 1399 1067
f 906 1399 1398
f 904 1399 906
f 1075 1400 1071
f 1076 1400 1075
f 1073 1400 1076
f 1071 1400 906
f 1073 1401 1400
f 906 1401 908
f 908 1401 910
f 1400 1401 906
f 1079 1402 1073
f 1080 1402 1079
f 1401 1403 910
f 1402 1403 1073
f 1073 1403 1401
f 910 1403 912
f 912 1403 1402
f 1083 1404 1080
f 1084 1404 1083
f 1080 1404 1402
f 1402 1404 912
f 1084 1405 1404
f 1404 1405 912
f 912 1405 914
f 914 1405 916
f 918 1406 1086
f 1088 1406 1084
f 1086 1406 1088
f 1084 1407 1405
f 1405 1407 916
f 916 1407 918
f 918 1407 1406
f 1406 1407 1084
f 1086 1408 918
f 1092 1408 1086
f 1093 1408 1092
f 1091 1408 1093
f 918 1409 920
f 920 1409 922
f 1091 1409 1408
f 1408 1409 918
f 924 1410 1095
f 1097 1410 1091
f 1095 1410 1097
f 924 1411 1410
f 922 1411 924
f 1410 1411 1091
f 1409 1411 922
f 1091 1411 1409
f 1095 1412 924
f 1100 1412 1095
f 1412 1413 924
f 924 1413 926
f 926 1413 928
f 1100 1414 1412
f 1104 1414 1100
f 1101 1414 1104
f 1413 1415 928
f 1412 1415 1413
f 1414 1415 1412
f 930 1415 1101
f 1101 1415 1414
f 928 1415 930
f 1108 1416 1101
f 1106 1416 1108
f 1101 1417 930
f 1106 1417 1416
f 1416 1417 1101
f 930 1417 932
f 932 1417 934
f 1112 1418 1106
f 1110 1418 1112
f 936 1419 1110
f 1417 1419 934
f 1110 1419 1418
f 1106 1419 1417
f 934 1419 936
f 1418 1419 1106
f 1116 1420 1110
f 1114 1420 1116
f 1110 1421 936
f 936 1421 938
f 938 1421 940
f 1420 1421 1110
f 1114 1421 1420
f 135 1422 1119
f 1120 1422 1114
f 1121 1422 1120
f 1119 1422 1121
f 1422 1423 1114
f 940 1423 942
f 942 1423 135
f 1114 1423 1421
f 1421 1423 940
f 135 1423 1422
f 1119 1424 135
f 1125 1424 1119
f 1123 1424 1125
f 1123 1425 1424
f 135 1425 138
f 138 1425 140
f 1424 1425 135
f 1129 1426 1123
f 1127 1426 1129
f 1426 1427 1123
f 1425 1427 140
f 1127 1427 1426
f 140 1427 142
f 142 1427 1127
f 1123 1427 1425
f 1127 1428 142
f 1133 1428 1127
f 1131 1428 1133
f 1428 1429 142
f 1131 1429 1428
f 142 1429 144
f 144 1429 146
f 148 1430 1137
f 1138 1430 1131
f 1135 1430 1138
f 1137 1430 1135
f 1131 1431 1429
f 148 1431 1430
f 146 1431 148
f 1429 1431 146
f 1430 1431 1131
f 1142 1432 1141
f 1137 1432 148
f 1141 1432 1137
f 1142 1433 1432
f 1432 1433 148
f 148 1433 150
f 150 1433 152
f 1145 1434 1142
f 948 1434 1145
f 154 1434 948
f 1433 1435 152
f 1142 1435 1433
f 1434 1435 1142
f 152 1435 154
f 154 1435 1434
f 947 1436 154
f 1148 1436 947
f 1149 1436 1148
f 1436 1437 154
f 154 1437 156
f 156 1437 158
f 1149 1437 1436
f 1152 1438 1149
f 1153 1438 1152
f 160 1438 1153
f 160 1439 1438
f 1149 1439 1437
f 1438 1439 1149
f 158 1439 160
f 1437 1439 158
f 1156 1440 1153
f 1157 1440 1156
f 1158 1440 1157
f 1153 1440 160
f 1440 1441 160
f 160 1441 162
f 162 1441 164
f 1161 1442 1158
f 166 1442 1161
f 1158 1442 1440
f 1440 1443 1441
f 1441 1443 164
f 166 1443 1442
f 1442 1443 1440
f 164 1443 166
f 1164 1444 1161
f 1165 1444 1164
f 1161 1444 166
f 1444 1445 166
f 1165 1445 1444
f 166 1445 168
f 168 1445 170
f 1168 1446 1165
f 1169 1446 1168
f 172 1446 1169
f 1165 1447 1445
f 1445 1447 170
f 172 1447 1446
f 1446 1447 1165
f 170 1447 172
f 1172 1448 1169
f 1173 1448 1172
f 1169 1448 172
f 1448 1449 172
f 172 1449 174
f 174 1449 176
f 1176 1450 1173
f 1177 1450 1176
f 1178 1450 1177
f 1173 1450 1448
f 178 1450 1178
f 1448 1451 1449
f 1449 1451 176
f 178 1451 1450
f 1450 1451 1448
f 176 1451 178
f 1181 1452 1178
f 1182 1452 1181
f 1178 1452 178
f 1452 1453 178
f 1182 1453 1452
f 178 1453 180
f 180 1453 182
f 1186 1454 1182
f 1184 1454 1186
f 1182 1455 1453
f 1453 1455 182
f 1184 1455 1454
f 1454 1455 1182
f 184 1455 1184
f 182 1455 184
f 1189 1456 1184
f 1190 1456 1189
f 188 1456 1190
f 188 1457 1456
f 1184 1457 184
f 1456 1457 1184
f 184 1457 186
f 186 1457 188
f 1193 1458 1190
f 1194 1458 1193
f 949 1458 1194
f 1190 1458 188
f 1458 1459 188
f 85 1459 949
f 949 1459 1458
f 188 1459 80
f 80 1459 83
f 83 1459 85
f 30 1355 29
f 30 218 1355
f 218 1362 1355
f 1362 214 1361
f 218 214 1362
f 1361 209 1353
f 214 209 1361
f 1353 213 1354
f 209 213 1353
f 1354 217 1352
f 213 217 1354
f 1352 221 1351
f 217 221 1352
f 1351 224 1350
f 221 224 1351
f 1350 227 1349
f 224 227 1350
f 1349 229 1348
f 227 229 1349
f 1348 232 1347
f 229 232 1348
f 232 1346 1347
f 232 236 1346
f 236 1345 1346
f 236 239 1345
f 239 1344 1345
f 239 243 1344
f 243 1343 1344
f 243 247 1343
f 247 1342 1343
f 247 251 1342
f 251 1341 1342
f 251 256 1341
f 1341 256 1340
f 256 1339 1340
f 256 254 1339
f 254 1338 1339
f 254 252 1338
f 15 240 17
