# smartdrone2 body-local mesh, millimetres
v -7.672235 -16.888875 67.192822
v -5.988086 -17.339830 65.770577
v -5.822664 -16.393625 68.754764
v -4.544518 -16.953294 66.989654
v -3.634700 -16.046549 69.849389
v -9.075924 -17.503516 65.254337
v -7.083648 -17.819551 64.257614
v -2.836839 -16.682405 67.843996
v -1.235501 -15.867817 70.413082
v -9.952154 -18.201829 63.051968
v -7.767535 -18.364575 62.538691
v -0.964293 -16.542907 68.283951
v 1.235501 -15.867817 70.413082
v -10.250000 -18.943229 60.713707
v -8.000000 -18.943229 60.713707
v 0.964293 -16.542907 68.283951
v 3.634700 -16.046549 69.849389
v -9.952154 -19.684628 58.375446
v -7.767535 -19.521882 58.888722
v 2.836839 -16.682405 67.843996
v -9.075924 -20.382941 56.173076
v -7.083648 -20.066906 57.169800
v 5.822664 -16.393625 68.754764
v 4.544518 -16.953294 66.989654
v -7.672235 -20.997582 54.234591
v -5.988086 -20.546627 55.656836
v 7.672235 -16.888875 67.192822
v 5.988086 -17.339830 65.770577
v -4.544518 -20.933163 54.437759
v -5.822664 -21.492832 52.672649
v 9.075924 -17.503516 65.254337
v 7.083648 -17.819551 64.257614
v -2.836839 -21.204052 53.583418
v -3.634700 -21.839908 51.578024
v -0.964293 -21.343550 53.143462
v 9.952154 -18.201829 63.051968
v 7.767535 -18.364575 62.538691
v -1.235501 -22.018640 51.014331
v 0.964293 -21.343550 53.143462
v 10.250000 -18.943229 60.713707
v 8.000000 -18.943229 60.713707
v 1.235501 -22.018640 51.014331
v 2.836839 -21.204052 53.583418
v 7.767535 -19.521882 58.888722
v 9.952154 -19.684628 58.375446
v 3.634700 -21.839908 51.578024
v 4.544518 -20.933163 54.437759
v 7.083648 -20.066906 57.169800
v 9.075924 -20.382941 56.173076
v 5.822664 -21.492832 52.672649
v 5.988086 -20.546627 55.656836
v 7.672235 -20.997582 54.234591
v -8.000000 -14.224737 59.217599
v -7.992265 -14.081041 59.537932
v -7.970328 -13.862996 59.824842
v -7.938858 -13.587914 60.051055
v -7.905315 -13.278622 60.204836
v -7.874481 -12.930866 60.288168
v -7.861203 -12.724767 60.298723
v -7.850681 -12.458118 60.271605
v -7.848794 -12.207789 60.202134
v -7.996530 -11.216122 58.508912
v -8.000000 -2.500000 55.500000
v -7.986271 -11.197229 58.749122
v -8.000000 -11.269722 58.280644
v -7.966456 -11.223757 59.033437
v -7.942697 -11.295422 59.291150
v -7.977268 -11.203828 58.891972
v -7.855800 -11.968343 60.088742
v -7.752755 -2.500000 57.570351
v -7.870960 -11.747134 59.933313
v -7.892701 -11.557088 59.741505
v -7.917580 -11.405648 59.525282
v -7.026303 -2.500000 59.512730
v -5.865547 -2.500000 61.207078
v -4.508348 -2.500000 62.432940
v -3.091498 -2.500000 63.240546
v -1.549052 -2.500000 63.733679
v 0.056328 -2.500000 63.892304
v 1.659419 -2.500000 63.709979
v 3.195094 -2.500000 63.194109
v 4.600962 -2.500000 62.365653
v 5.819909 -2.500000 61.258269
v 6.802412 -2.500000 59.916945
v 7.849407 -12.395973 60.258613
v 7.862112 -12.741400 60.298909
v 7.875728 -12.947392 60.286082
v 7.897991 -13.204252 60.229785
v 7.922486 -13.441771 60.134794
v 7.851537 -12.076333 60.146003
v 7.508556 -2.500000 58.396175
v 7.868118 -11.779553 59.959917
v 7.946965 -13.658600 60.002413
v 7.969659 -13.857007 59.830995
v 7.983965 -13.990939 59.673970
v 7.995945 -14.129166 59.450201
v 7.999913 -14.235102 59.183481
v 7.993319 -14.289580 58.898700
v 7.976951 -14.290205 58.601755
v 7.909652 -2.500000 56.757744
v 7.896267 -11.532135 59.710771
v 7.986271 -11.197229 58.749122
v 7.996530 -11.216122 58.508912
v 7.960883 -11.237555 59.098861
v 7.928870 -11.351520 59.423211
v 7.952836 -14.233581 58.310965
v 7.925435 -14.127314 58.043528
v 7.897890 -13.973262 57.801452
v 7.873191 -13.771022 57.585379
v 7.860276 -13.607224 57.459908
v 7.851439 -13.414919 57.350699
v 7.848408 -13.214811 57.271330
v 7.946963 -11.835878 57.495816
v 7.989405 -2.500000 55.068214
v 7.920509 -12.070845 57.354519
v 7.971307 -11.622662 57.682569
v 7.985206 -11.490955 57.841487
v 7.995010 -11.378431 58.022761
v 7.998733 -11.317660 58.150656
v 8.000000 -11.269722 58.280644
v 7.851493 -13.005400 57.221138
v 7.744575 -2.500000 53.396227
v 7.860379 -12.785240 57.199854
v 7.873335 -12.579076 57.208288
v 7.894162 -12.330620 57.256583
v 7.185109 -2.500000 51.809709
v 6.333736 -2.500000 50.373115
v 5.225045 -2.500000 49.144809
v 3.904077 -2.500000 48.174694
v 2.424499 -2.500000 47.502181
v 0.846422 -2.500000 47.154594
v -0.766042 -2.500000 47.146052
v -2.347385 -2.500000 47.476903
v -3.833361 -2.500000 48.133707
v -5.163600 -2.500000 49.089778
v -6.284059 -2.500000 50.306275
v -7.149218 -2.500000 51.733776
v -7.848794 -13.286670 57.296109
v -7.855800 -13.526116 57.409501
v -7.870960 -13.747325 57.564930
v -7.850681 -13.036341 57.226638
v -7.892701 -13.937370 57.756738
v -7.917580 -14.088810 57.972961
v -7.942697 -14.199037 58.207093
v -7.966456 -14.270702 58.464806
v -7.977268 -14.290631 58.606271
v -7.986271 -14.297229 58.749122
v -7.996530 -14.278336 58.989331
v -7.861203 -12.769692 57.199520
v -7.723928 -2.500000 53.314286
v -7.874481 -12.563593 57.210075
v -7.970328 -11.631463 57.673401
v -7.930682 -2.500000 54.397591
v -7.992265 -11.413418 57.960311
v -7.938858 -11.906545 57.447188
v -7.905315 -12.215837 57.293407
v 9.250000 -11.197229 58.749122
v 9.250000 -11.242270 59.120061
v 9.250000 -11.374773 59.469442
v 9.250000 -11.587038 59.776962
v 9.250000 -11.866729 60.024746
v 9.250000 -12.197592 60.198397
v 9.250000 -12.560398 60.287820
v 9.250000 -12.934061 60.287820
v 9.250000 -13.296867 60.198397
v 9.250000 -13.627730 60.024746
v 9.250000 -13.907421 59.776962
v 9.250000 -14.119686 59.469442
v 9.250000 -14.252189 59.120061
v 9.250000 -14.297229 58.749122
v 9.250000 -14.252189 58.378182
v 9.250000 -14.119686 58.028801
v 9.250000 -13.907421 57.721281
v 9.250000 -13.627730 57.473497
v 9.250000 -13.296867 57.299846
v 9.250000 -12.934061 57.210423
v 9.250000 -12.560398 57.210423
v 9.250000 -12.197592 57.299846
v 9.250000 -11.866729 57.473497
v 9.250000 -11.587038 57.721281
v 9.250000 -11.374773 58.028801
v 9.250000 -11.242270 58.378182
v -9.250000 -11.197229 58.749122
v -9.250000 -11.242270 59.120061
v -9.250000 -11.374773 59.469442
v -9.250000 -11.587038 59.776962
v -9.250000 -11.866729 60.024746
v -9.250000 -12.197592 60.198397
v -9.250000 -12.560398 60.287820
v -9.250000 -12.934061 60.287820
v -9.250000 -13.296867 60.198397
v -9.250000 -13.627730 60.024746
v -9.250000 -13.907421 59.776962
v -9.250000 -14.119686 59.469442
v -9.250000 -14.252189 59.120061
v -9.250000 -14.297229 58.749122
v -9.250000 -14.252189 58.378182
v -9.250000 -14.119686 58.028801
v -9.250000 -13.907421 57.721281
v -9.250000 -13.627730 57.473497
v -9.250000 -13.296867 57.299846
v -9.250000 -12.934061 57.210423
v -9.250000 -12.560398 57.210423
v -9.250000 -12.197592 57.299846
v -9.250000 -11.866729 57.473497
v -9.250000 -11.587038 57.721281
v -9.250000 -11.374773 58.028801
v -9.250000 -11.242270 58.378182
v 9.250000 -10.423917 60.871161
v 9.250000 -13.423313 61.822189
v 9.250000 -9.747833 57.798093
v 9.250000 -15.746626 59.700150
v 9.250000 -12.071146 55.676054
v 9.250000 -15.070542 56.627082
v 9.881137 -12.071146 55.676054
v 10.041966 -11.499577 56.198107
v 10.157366 -10.920084 56.727397
v 10.226815 -10.335287 57.261532
v 10.250000 -9.747833 57.798093
v -10.246153 -15.512052 59.912383
v -10.250000 -15.606921 59.655853
v -10.234851 -15.391502 60.164376
v -10.197927 -15.120805 60.583633
v -10.141777 -14.782805 60.952074
v -10.073982 -14.395273 61.255312
v -10.250000 -2.500000 55.500000
v -10.250000 -9.887537 57.842390
v -10.241962 -9.792112 58.233941
v -10.228907 -9.758696 58.489416
v -10.209816 -9.747229 58.749122
v -10.003158 -13.977961 61.484832
v -9.932813 -13.518391 61.647533
v -9.870763 -13.027829 61.735966
v -9.833479 -12.628644 61.746172
v -9.802307 -11.979968 61.649182
v -9.944702 -2.500000 58.104851
v -10.137262 -9.821802 59.411010
v -10.045359 -10.032781 60.026280
v -9.950874 -10.365811 60.572368
v -9.866940 -10.823875 61.051445
v -9.814218 -11.378376 61.417742
v -9.162164 -2.500000 60.320817
v -8.078002 -2.500000 62.118952
v -6.677576 -2.500000 63.657947
v -5.015714 -2.500000 64.877548
v -3.157480 -2.500000 65.730006
v -1.894063 -2.500000 66.067727
v -0.600000 -10.433600 68.750000
v -0.066704 -10.376167 68.750000
v 0.266789 -10.386938 68.750000
v 0.600000 -10.433600 68.750000
v -0.600000 -2.500000 66.234468
v 2.769440 -2.500000 65.852976
v 0.600000 -2.500000 66.234468
v 4.811332 -2.500000 64.994672
v 6.631636 -2.500000 63.699085
v 8.146516 -2.500000 62.025885
v 9.881137 -13.423313 61.822189
v 9.286203 -2.500000 60.052132
v 9.881137 -10.423917 60.871161
v 10.041966 -13.994882 61.300136
v 10.157366 -14.574375 60.770846
v 10.226815 -15.159172 60.236711
v 10.250000 -15.746626 59.700150
v 9.998209 -2.500000 57.868727
v 10.041966 -10.257590 60.115142
v 10.157366 -10.088958 59.348640
v 10.226815 -15.575677 58.923119
v 10.186858 -2.500000 56.691705
v 10.226815 -9.918782 58.575124
v 10.157366 -15.405501 58.149603
v 10.041966 -15.236869 57.383101
v 10.250000 -2.500000 55.500000
v 9.881137 -15.070542 56.627082
v 9.944702 -2.500000 52.895149
v 9.162164 -2.500000 50.679183
v 8.078002 -2.500000 48.881048
v 6.677576 -2.500000 47.342053
v 5.015714 -2.500000 46.122452
v 3.157480 -2.500000 45.269994
v 1.175627 -2.500000 44.818055
v -0.852254 -2.500000 44.784327
v -2.846767 -2.500000 45.170132
v -4.729826 -2.500000 45.960365
v -6.427707 -2.500000 47.124087
v -7.873934 -2.500000 48.615736
v -9.814218 -14.116083 56.080501
v -9.802307 -13.514490 55.849061
v -9.866940 -14.670584 56.446798
v -9.011886 -2.500000 50.376914
v -9.950874 -15.128648 56.925875
v -10.045359 -15.461677 57.471963
v -10.137262 -15.672657 58.087233
v -10.209816 -15.747229 58.749122
v -10.228907 -15.735762 59.008827
v -9.797012 -2.500000 52.338667
v -9.833479 -12.865815 55.752071
v -9.870763 -12.466630 55.762277
v -9.932813 -11.976068 55.850710
v -10.003158 -11.516498 56.013411
v -10.241962 -15.702347 59.264302
v -10.136120 -2.500000 53.901574
v -10.073982 -11.099186 56.242931
v -10.141777 -10.711654 56.546169
v -10.197927 -10.373654 56.914610
v -10.234851 -10.102956 57.333867
v -10.246153 -9.982407 57.585860
v -9.250000 -15.747229 58.749122
v -9.250000 -15.660055 59.467068
v -9.250000 -15.403597 60.143291
v -9.250000 -14.992762 60.738489
v -9.250000 -14.451424 61.218073
v -9.250000 -13.811044 61.554170
v -9.250000 -13.108839 61.727248
v -9.250000 -12.385619 61.727248
v -9.250000 -11.683415 61.554170
v -9.250000 -11.043035 61.218073
v -9.250000 -10.501697 60.738489
v -9.250000 -10.090861 60.143291
v -9.250000 -9.834404 59.467068
v -9.250000 -9.747229 58.749122
v -9.250000 -9.834404 58.031175
v -9.250000 -10.090861 57.354952
v -9.250000 -10.501697 56.759754
v -9.250000 -11.043035 56.280170
v -9.250000 -11.683415 55.944073
v -9.250000 -12.385619 55.770995
v -9.250000 -13.108839 55.770995
v -9.250000 -13.811044 55.944073
v -9.250000 -14.451424 56.280170
v -9.250000 -14.992762 56.759754
v -9.250000 -15.403597 57.354952
v -9.250000 -15.660055 58.031175
v 10.250000 -2.500000 56.442516
v 10.546137 -2.500000 58.858098
v 11.417008 -2.500000 61.130612
v 14.435638 -2.500000 67.171097
v 14.210081 -2.500000 66.971270
v 16.020870 -2.500000 65.655100
v 14.645650 -2.500000 64.724500
v 14.606820 -2.500000 67.419096
v 16.387793 -2.500000 65.974907
v 16.666598 -2.500000 66.373878
v 16.840773 -2.500000 66.828380
v 13.943256 -2.500000 66.831230
v 14.713677 -2.500000 67.700855
v 16.900000 -2.500000 67.311497
v 13.650671 -2.500000 66.759114
v 14.750000 -2.500000 68.000000
v 13.349329 -2.500000 66.759114
v 12.811034 -2.500000 63.125463
v 16.900000 -2.500000 69.750000
v 14.713677 -2.500000 68.299145
v 13.056744 -2.500000 66.831230
v 14.606820 -2.500000 68.580904
v 12.789919 -2.500000 66.971270
v 16.849856 -2.500000 70.195042
v 14.435638 -2.500000 68.828903
v 16.701938 -2.500000 70.617767
v 16.463663 -2.500000 70.996980
v 12.564362 -2.500000 67.171097
v 14.210081 -2.500000 69.028730
v 16.146980 -2.500000 71.313663
v 15.767767 -2.500000 71.551938
v 15.345042 -2.500000 71.699856
v 14.900000 -2.500000 71.750000
v 13.943256 -2.500000 69.168770
v 13.650671 -2.500000 69.240886
v 13.349329 -2.500000 69.240886
v 13.056744 -2.500000 69.168770
v 12.789919 -2.500000 69.028730
v 12.250000 -2.500000 68.000000
v 12.286323 -2.500000 67.700855
v 12.393180 -2.500000 67.419096
v 12.393180 -2.500000 68.580904
v 12.286323 -2.500000 68.299145
v -10.250000 -2.500000 56.442516
v 0.600000 -2.500000 68.750000
v 12.564362 -2.500000 68.828903
v -0.600000 -2.500000 68.750000
v -10.546137 -2.500000 58.858098
v -11.417008 -2.500000 61.130612
v -12.811034 -2.500000 63.125463
v -12.564362 -2.500000 67.171097
v -12.789919 -2.500000 66.971270
v -12.393180 -2.500000 67.419096
v -13.056744 -2.500000 66.831230
v -12.286323 -2.500000 67.700855
v -13.349329 -2.500000 66.759114
v -14.645650 -2.500000 64.724500
v -12.250000 -2.500000 68.000000
v -13.650671 -2.500000 66.759114
v -12.286323 -2.500000 68.299145
v -13.943256 -2.500000 66.831230
v -12.393180 -2.500000 68.580904
v -14.210081 -2.500000 66.971270
v -12.564362 -2.500000 68.828903
v -16.020870 -2.500000 65.655100
v -14.435638 -2.500000 67.171097
v -12.789919 -2.500000 69.028730
v -14.606820 -2.500000 67.419096
v -16.387793 -2.500000 65.974907
v -16.666598 -2.500000 66.373878
v -16.840773 -2.500000 66.828380
v -14.713677 -2.500000 67.700855
v -16.900000 -2.500000 67.311497
v -14.713677 -2.500000 68.299145
v -14.750000 -2.500000 68.000000
v -14.900000 -2.500000 71.750000
v -13.056744 -2.500000 69.168770
v -13.349329 -2.500000 69.240886
v -13.650671 -2.500000 69.240886
v -13.943256 -2.500000 69.168770
v -14.210081 -2.500000 69.028730
v -16.900000 -2.500000 69.750000
v -14.435638 -2.500000 68.828903
v -14.606820 -2.500000 68.580904
v -15.345042 -2.500000 71.699856
v -16.849856 -2.500000 70.195042
v -15.767767 -2.500000 71.551938
v -16.701938 -2.500000 70.617767
v -16.146980 -2.500000 71.313663
v -16.463663 -2.500000 70.996980
v 16.701938 -2.500000 40.382233
v 14.435638 -2.500000 42.171097
v 16.463663 -2.500000 40.003020
v 16.849856 -2.500000 40.804958
v 16.900000 -2.500000 41.250000
v 14.210081 -2.500000 41.971270
v 15.345042 -2.500000 39.300144
v 14.900000 -2.500000 39.250000
v 15.767767 -2.500000 39.448062
v 16.146980 -2.500000 39.686337
v 14.606820 -2.500000 42.419096
v 13.943256 -2.500000 41.831230
v 14.713677 -2.500000 42.700855
v 16.900000 -2.500000 43.688503
v 13.650671 -2.500000 41.759114
v 14.750000 -2.500000 43.000000
v 13.349329 -2.500000 41.759114
v 16.840773 -2.500000 44.171620
v 14.713677 -2.500000 43.299145
v 13.056744 -2.500000 41.831230
v 16.666598 -2.500000 44.626122
v 14.606820 -2.500000 43.580904
v 16.387793 -2.500000 45.025093
v 12.789919 -2.500000 41.971270
v 16.020870 -2.500000 45.344900
v 14.435638 -2.500000 43.828903
v 12.564362 -2.500000 42.171097
v 14.210081 -2.500000 44.028730
v 14.645650 -2.500000 46.275500
v 13.943256 -2.500000 44.168770
v 13.650671 -2.500000 44.240886
v 13.349329 -2.500000 44.240886
v 12.811034 -2.500000 47.874537
v 13.056744 -2.500000 44.168770
v 12.789919 -2.500000 44.028730
v 12.564362 -2.500000 43.828903
v 12.393180 -2.500000 43.580904
v 12.286323 -2.500000 43.299145
v 12.250000 -2.500000 43.000000
v 11.417008 -2.500000 49.869388
v 12.286323 -2.500000 42.700855
v 12.393180 -2.500000 42.419096
v 10.546137 -2.500000 52.141902
v 10.250000 -2.500000 54.557484
v -14.900000 -2.500000 39.250000
v -12.564362 -2.500000 42.171097
v -12.789919 -2.500000 41.971270
v -12.393180 -2.500000 42.419096
v -13.056744 -2.500000 41.831230
v -12.286323 -2.500000 42.700855
v -13.349329 -2.500000 41.759114
v -12.250000 -2.500000 43.000000
v -13.650671 -2.500000 41.759114
v -12.286323 -2.500000 43.299145
v -13.943256 -2.500000 41.831230
v -12.393180 -2.500000 43.580904
v -14.210081 -2.500000 41.971270
v -15.767767 -2.500000 39.448062
v -16.146980 -2.500000 39.686337
v -15.345042 -2.500000 39.300144
v -16.463663 -2.500000 40.003020
v -12.564362 -2.500000 43.828903
v -14.435638 -2.500000 42.171097
v -16.701938 -2.500000 40.382233
v -16.849856 -2.500000 40.804958
v -16.900000 -2.500000 41.250000
v -14.713677 -2.500000 42.700855
v -14.606820 -2.500000 42.419096
v -16.900000 -2.500000 43.688503
v -14.713677 -2.500000 43.299145
v -14.750000 -2.500000 43.000000
v -12.811034 -2.500000 47.874537
v -12.789919 -2.500000 44.028730
v -13.056744 -2.500000 44.168770
v -13.349329 -2.500000 44.240886
v -14.645650 -2.500000 46.275500
v -13.650671 -2.500000 44.240886
v -13.943256 -2.500000 44.168770
v -14.210081 -2.500000 44.028730
v -14.606820 -2.500000 43.580904
v -16.840773 -2.500000 44.171620
v -11.417008 -2.500000 49.869388
v -16.666598 -2.500000 44.626122
v -16.020870 -2.500000 45.344900
v -14.435638 -2.500000 43.828903
v -16.387793 -2.500000 45.025093
v -10.546137 -2.500000 52.141902
v -10.250000 -2.500000 54.557484
v 14.750000 0.000000 43.000000
v 14.713677 0.000000 42.700855
v 14.606820 0.000000 42.419096
v 14.435638 0.000000 42.171097
v 14.210081 0.000000 41.971270
v 13.943256 0.000000 41.831230
v 13.650671 0.000000 41.759114
v 13.349329 0.000000 41.759114
v 13.056744 0.000000 41.831230
v 12.789919 0.000000 41.971270
v 12.564362 0.000000 42.171097
v 12.393180 0.000000 42.419096
v 12.286323 0.000000 42.700855
v 12.250000 0.000000 43.000000
v 12.286323 0.000000 43.299145
v 12.393180 0.000000 43.580904
v 12.564362 0.000000 43.828903
v 12.789919 0.000000 44.028730
v 13.056744 0.000000 44.168770
v 13.349329 0.000000 44.240886
v 13.650671 0.000000 44.240886
v 13.943256 0.000000 44.168770
v 14.210081 0.000000 44.028730
v 14.435638 0.000000 43.828903
v 14.606820 0.000000 43.580904
v 14.713677 0.000000 43.299145
v 16.900000 0.000000 41.250000
v 16.849856 0.000000 40.804958
v 16.701938 0.000000 40.382233
v 16.463663 0.000000 40.003020
v 16.146980 0.000000 39.686337
v 15.767767 0.000000 39.448062
v 15.345042 0.000000 39.300144
v 14.900000 -0.000000 39.250000
v 16.900000 0.000000 43.688503
v 16.840773 0.000000 44.171620
v 16.387793 0.000000 45.025093
v 16.666598 0.000000 44.626122
v 16.020870 0.000000 45.344900
v 14.645650 0.000000 46.275500
v 12.811034 0.000000 47.874537
v 11.417008 0.000000 49.869388
v 14.210081 0.000000 66.971270
v 16.020870 0.000000 65.655100
v 14.645650 0.000000 64.724500
v 14.435638 0.000000 67.171097
v 14.606820 0.000000 67.419096
v 16.840773 0.000000 66.828380
v 16.666598 0.000000 66.373878
v 16.387793 0.000000 65.974907
v 13.943256 0.000000 66.831230
v 14.713677 0.000000 67.700855
v 16.900000 0.000000 67.311497
v 13.650671 0.000000 66.759114
v 14.750000 0.000000 68.000000
v 13.349329 0.000000 66.759114
v 12.811034 0.000000 63.125463
v 14.713677 0.000000 68.299145
v 16.900000 0.000000 69.750000
v 13.056744 0.000000 66.831230
v 14.606820 0.000000 68.580904
v -14.900000 -0.000000 39.250000
v 12.789919 0.000000 66.971270
v 14.435638 0.000000 68.828903
v 16.701938 0.000000 70.617767
v 16.849856 0.000000 70.195042
v 16.463663 0.000000 70.996980
v 12.564362 0.000000 67.171097
v -12.564362 0.000000 42.171097
v -12.789919 0.000000 41.971270
v -12.393180 0.000000 42.419096
v 14.210081 0.000000 69.028730
v -13.056744 0.000000 41.831230
v -12.286323 0.000000 42.700855
v 12.393180 0.000000 67.419096
v 11.417008 0.000000 61.130612
v -13.349329 0.000000 41.759114
v 16.146980 0.000000 71.313663
v -12.250000 0.000000 43.000000
v -13.650671 0.000000 41.759114
v 12.286323 0.000000 67.700855
v -12.286323 0.000000 43.299145
v -13.943256 0.000000 41.831230
v 15.767767 0.000000 71.551938
v -14.210081 0.000000 41.971270
v -15.345042 0.000000 39.300144
v -15.767767 0.000000 39.448062
v -16.146980 0.000000 39.686337
v 15.345042 0.000000 71.699856
v -16.463663 0.000000 40.003020
v -14.435638 0.000000 42.171097
v 14.900000 0.000000 71.750000
v 13.943256 0.000000 69.168770
v 13.650671 0.000000 69.240886
v 13.349329 0.000000 69.240886
v 13.056744 0.000000 69.168770
v 12.789919 0.000000 69.028730
v 12.564362 0.000000 68.828903
v -16.701938 0.000000 40.382233
v -16.849856 0.000000 40.804958
v -16.900000 0.000000 41.250000
v -14.713677 0.000000 42.700855
v -14.606820 0.000000 42.419096
v -16.900000 0.000000 43.688503
v -14.713677 0.000000 43.299145
v -14.750000 0.000000 43.000000
v -12.811034 0.000000 47.874537
v -12.393180 0.000000 43.580904
v -12.564362 0.000000 43.828903
v -12.789919 0.000000 44.028730
v -13.056744 0.000000 44.168770
v -13.349329 0.000000 44.240886
v -14.645650 0.000000 46.275500
v -13.650671 0.000000 44.240886
v -13.943256 0.000000 44.168770
v -14.210081 0.000000 44.028730
v -16.840773 0.000000 44.171620
v -14.606820 0.000000 43.580904
v -11.417008 0.000000 49.869388
v 10.546137 0.000000 52.141902
v -16.666598 0.000000 44.626122
v -16.020870 0.000000 45.344900
v -14.435638 0.000000 43.828903
v -16.387793 0.000000 45.025093
v -10.546137 0.000000 52.141902
v 10.250000 0.000000 54.557484
v -10.250000 0.000000 54.557484
v 10.250000 0.000000 56.442516
v -10.250000 0.000000 56.442516
v 10.546137 0.000000 58.858098
v -10.546137 0.000000 58.858098
v -11.417008 0.000000 61.130612
v -12.789919 0.000000 66.971270
v -12.564362 0.000000 67.171097
v -12.811034 0.000000 63.125463
v -12.393180 0.000000 67.419096
v -13.056744 0.000000 66.831230
v -12.286323 0.000000 67.700855
v -13.349329 0.000000 66.759114
v -14.645650 0.000000 64.724500
v -12.250000 0.000000 68.000000
v 12.250000 0.000000 68.000000
v -13.650671 0.000000 66.759114
v -12.286323 0.000000 68.299145
v 12.286323 0.000000 68.299145
v -13.943256 0.000000 66.831230
v -12.393180 0.000000 68.580904
v 12.393180 0.000000 68.580904
v -14.210081 0.000000 66.971270
v -12.564362 0.000000 68.828903
v -16.020870 0.000000 65.655100
v -14.435638 0.000000 67.171097
v -14.606820 0.000000 67.419096
v -16.387793 0.000000 65.974907
v -16.666598 0.000000 66.373878
v -16.840773 0.000000 66.828380
v -14.713677 0.000000 67.700855
v -16.900000 0.000000 67.311497
v -14.713677 0.000000 68.299145
v -14.750000 0.000000 68.000000
v -16.900000 0.000000 69.750000
v -14.435638 0.000000 68.828903
v -14.606820 0.000000 68.580904
v -14.900000 0.000000 71.750000
v -12.789919 0.000000 69.028730
v -13.056744 0.000000 69.168770
v -13.349329 0.000000 69.240886
v -13.650671 0.000000 69.240886
v -13.943256 0.000000 69.168770
v -14.210081 0.000000 69.028730
v -15.345042 0.000000 71.699856
v -16.849856 0.000000 70.195042
v -15.767767 0.000000 71.551938
v -16.701938 0.000000 70.617767
v -16.146980 0.000000 71.313663
v -16.463663 0.000000 70.996980
f 1 2 3
f 3 4 5
f 2 4 3
f 6 7 1
f 1 7 2
f 5 8 9
f 4 8 5
f 10 11 6
f 6 11 7
f 9 12 13
f 8 12 9
f 14 15 10
f 10 15 11
f 12 16 13
f 16 17 13
f 18 19 14
f 14 19 15
f 16 20 17
f 21 22 18
f 18 22 19
f 20 23 17
f 20 24 23
f 25 26 21
f 21 26 22
f 24 27 23
f 28 27 24
f 25 29 26
f 25 30 29
f 28 31 27
f 32 31 28
f 30 33 29
f 30 34 33
f 34 35 33
f 32 36 31
f 37 36 32
f 34 38 35
f 35 38 39
f 37 40 36
f 41 40 37
f 39 42 43
f 38 42 39
f 44 45 41
f 41 45 40
f 43 46 47
f 42 46 43
f 48 49 44
f 44 49 45
f 47 50 51
f 46 50 47
f 51 52 48
f 50 52 51
f 48 52 49
f 53 54 15
f 54 55 15
f 55 56 15
f 56 11 15
f 56 57 11
f 57 58 11
f 58 59 11
f 59 60 11
f 60 61 11
f 62 63 64
f 65 63 62
f 66 63 67
f 68 63 66
f 64 63 68
f 61 7 11
f 69 70 61
f 71 70 69
f 72 70 71
f 73 70 72
f 67 70 73
f 63 70 67
f 70 74 61
f 61 74 7
f 7 74 2
f 74 75 2
f 2 75 4
f 75 76 4
f 4 77 8
f 76 77 4
f 8 78 12
f 77 78 8
f 78 79 12
f 12 79 16
f 79 80 16
f 16 80 20
f 80 81 20
f 20 81 24
f 81 82 24
f 82 83 24
f 24 83 28
f 83 84 28
f 28 84 32
f 32 85 37
f 85 86 37
f 86 87 37
f 87 88 37
f 88 89 37
f 90 91 92
f 85 91 90
f 84 91 32
f 32 91 85
f 89 93 37
f 93 41 37
f 93 94 41
f 94 95 41
f 95 96 41
f 96 97 41
f 97 98 41
f 98 99 41
f 92 100 101
f 102 100 103
f 91 100 92
f 104 100 102
f 105 100 104
f 101 100 105
f 99 106 41
f 106 44 41
f 106 107 44
f 107 108 44
f 108 109 44
f 109 110 44
f 110 111 44
f 111 112 44
f 113 114 115
f 116 114 113
f 117 114 116
f 118 114 117
f 119 114 118
f 120 114 119
f 103 114 120
f 100 114 103
f 112 48 44
f 121 122 112
f 123 122 121
f 124 122 123
f 125 122 124
f 115 122 125
f 114 122 115
f 122 126 112
f 112 126 48
f 126 127 48
f 48 127 51
f 127 128 51
f 51 128 47
f 128 129 47
f 47 129 43
f 129 130 43
f 43 130 39
f 130 131 39
f 131 132 39
f 39 132 35
f 132 133 35
f 35 133 33
f 133 134 33
f 33 134 29
f 134 135 29
f 29 135 26
f 135 136 26
f 26 136 22
f 136 137 22
f 19 138 139
f 22 138 19
f 139 140 19
f 137 141 22
f 22 141 138
f 140 142 19
f 142 143 19
f 143 144 19
f 144 15 19
f 144 145 15
f 145 146 15
f 146 147 15
f 147 148 15
f 149 150 151
f 141 150 149
f 137 150 141
f 148 53 15
f 152 153 154
f 155 153 152
f 156 153 155
f 151 153 156
f 150 153 151
f 154 63 65
f 153 63 154
f 157 158 102
f 102 158 104
f 104 158 105
f 105 159 101
f 158 159 105
f 101 160 92
f 159 160 101
f 92 161 90
f 160 161 92
f 90 162 85
f 161 162 90
f 85 163 86
f 162 163 85
f 86 164 87
f 87 164 88
f 163 164 86
f 164 165 88
f 88 165 89
f 165 166 89
f 89 166 93
f 93 166 94
f 166 167 94
f 94 167 95
f 167 168 95
f 95 168 96
f 96 168 97
f 168 169 97
f 97 169 98
f 169 170 98
f 98 170 99
f 170 171 99
f 99 171 106
f 171 172 106
f 106 172 107
f 107 172 108
f 172 173 108
f 108 173 109
f 173 174 109
f 109 174 110
f 110 174 111
f 111 175 112
f 174 175 111
f 112 176 121
f 121 176 123
f 175 176 112
f 123 177 124
f 124 177 125
f 176 177 123
f 125 178 115
f 177 178 125
f 115 179 113
f 113 179 116
f 178 179 115
f 179 180 116
f 116 180 117
f 117 181 118
f 118 181 119
f 180 181 117
f 119 182 120
f 120 182 103
f 181 182 119
f 103 157 102
f 182 157 103
f 64 68 183
f 183 68 184
f 68 66 184
f 184 67 185
f 66 67 184
f 185 73 186
f 67 73 185
f 73 72 186
f 186 71 187
f 72 71 186
f 187 69 188
f 71 69 187
f 69 61 188
f 188 60 189
f 61 60 188
f 60 59 189
f 189 59 190
f 59 58 190
f 58 57 190
f 190 57 191
f 57 56 191
f 191 56 192
f 56 55 192
f 192 55 193
f 55 54 193
f 193 54 194
f 54 53 194
f 194 53 195
f 53 148 195
f 195 148 196
f 148 147 196
f 147 146 196
f 196 146 197
f 146 145 197
f 145 144 197
f 197 144 198
f 144 143 198
f 198 143 199
f 143 142 199
f 142 140 199
f 199 140 200
f 140 139 200
f 200 139 201
f 139 138 201
f 201 141 202
f 138 141 201
f 202 149 203
f 141 149 202
f 149 151 203
f 203 156 204
f 151 156 203
f 204 155 205
f 156 155 204
f 205 152 206
f 155 152 205
f 206 154 207
f 152 154 206
f 207 65 208
f 154 65 207
f 208 62 183
f 65 62 208
f 62 64 183
f 161 160 209
f 159 209 160
f 162 209 210
f 162 161 209
f 158 211 209
f 158 209 159
f 163 162 210
f 157 211 158
f 164 163 210
f 182 211 157
f 165 164 210
f 181 211 182
f 166 165 210
f 180 211 181
f 167 166 210
f 212 168 167
f 212 169 168
f 212 170 169
f 212 171 170
f 212 167 210
f 213 176 175
f 213 177 176
f 213 178 177
f 213 179 178
f 213 180 179
f 213 211 180
f 214 172 171
f 214 173 172
f 214 174 173
f 214 175 174
f 214 213 175
f 214 171 212
f 215 216 213
f 216 217 213
f 217 211 213
f 217 218 211
f 218 219 211
f 220 221 14
f 222 220 14
f 223 222 14
f 10 223 14
f 10 224 223
f 225 224 10
f 226 227 228
f 226 228 229
f 226 229 230
f 231 225 10
f 232 231 10
f 233 232 10
f 234 233 10
f 6 235 234
f 6 234 10
f 236 230 237
f 236 237 238
f 236 238 239
f 236 239 240
f 236 240 241
f 236 226 230
f 242 241 235
f 242 236 241
f 242 235 6
f 243 242 6
f 243 6 1
f 244 1 3
f 244 243 1
f 245 3 5
f 245 244 3
f 246 245 5
f 247 5 9
f 247 246 5
f 247 9 248
f 249 248 9
f 13 249 9
f 250 249 13
f 251 250 13
f 252 247 248
f 253 251 13
f 253 254 251
f 253 13 17
f 255 253 17
f 255 17 23
f 256 255 23
f 256 23 27
f 257 256 27
f 257 27 31
f 258 31 36
f 259 257 31
f 260 31 258
f 260 259 31
f 261 258 36
f 262 261 36
f 40 263 262
f 40 262 36
f 264 263 40
f 265 260 266
f 265 266 267
f 265 259 260
f 268 264 40
f 269 267 270
f 269 265 267
f 271 268 40
f 45 271 40
f 272 271 45
f 273 270 219
f 273 219 218
f 273 218 217
f 273 269 270
f 274 272 45
f 49 215 274
f 49 274 45
f 275 217 216
f 275 216 215
f 275 273 217
f 276 215 49
f 276 275 215
f 277 49 52
f 277 276 49
f 278 52 50
f 278 277 52
f 279 50 46
f 279 278 50
f 280 46 42
f 280 279 46
f 281 280 42
f 282 42 38
f 282 281 42
f 283 282 38
f 283 38 34
f 284 283 34
f 284 34 30
f 285 284 30
f 285 30 25
f 286 285 25
f 286 25 21
f 287 21 18
f 288 21 287
f 289 287 18
f 290 286 21
f 290 21 288
f 291 289 18
f 292 291 18
f 293 292 18
f 294 293 18
f 14 294 18
f 14 295 294
f 296 290 288
f 296 288 297
f 296 297 298
f 296 298 299
f 296 299 300
f 301 295 14
f 221 301 14
f 302 296 300
f 302 300 303
f 302 303 304
f 302 304 305
f 302 305 306
f 226 302 306
f 226 306 307
f 226 307 227
f 294 295 308
f 308 295 309
f 295 301 309
f 301 221 309
f 309 220 310
f 221 220 309
f 220 222 310
f 310 223 311
f 222 223 310
f 311 224 312
f 223 224 311
f 224 225 312
f 312 231 313
f 225 231 312
f 231 232 313
f 313 232 314
f 232 233 314
f 233 234 314
f 314 234 315
f 315 235 316
f 234 235 315
f 235 241 316
f 316 241 317
f 241 240 317
f 317 240 318
f 240 239 318
f 318 239 319
f 239 238 319
f 319 238 320
f 238 237 320
f 320 237 321
f 237 230 321
f 230 229 321
f 321 229 322
f 229 228 322
f 228 227 322
f 227 307 322
f 322 307 323
f 307 306 323
f 306 305 323
f 323 305 324
f 324 304 325
f 305 304 324
f 304 303 325
f 325 300 326
f 303 300 325
f 326 299 327
f 300 299 326
f 299 298 327
f 327 297 328
f 298 297 327
f 328 288 329
f 297 288 328
f 329 287 330
f 288 287 329
f 330 289 331
f 287 289 330
f 331 291 332
f 289 291 331
f 332 292 333
f 291 292 332
f 333 293 308
f 292 293 333
f 293 294 308
f 130 133 131
f 131 133 132
f 129 134 130
f 130 134 133
f 128 135 129
f 129 135 134
f 127 136 128
f 128 136 135
f 126 137 127
f 127 137 136
f 122 150 126
f 126 150 137
f 114 153 122
f 122 153 150
f 100 63 114
f 114 63 153
f 79 78 80
f 91 70 100
f 100 70 63
f 80 77 81
f 78 77 80
f 84 74 91
f 91 74 70
f 81 76 82
f 77 76 81
f 82 75 83
f 83 75 84
f 76 75 82
f 84 75 74
f 334 269 273
f 269 335 265
f 334 335 269
f 336 259 335
f 335 259 265
f 337 338 339
f 339 338 340
f 339 341 337
f 342 341 339
f 343 341 342
f 344 341 343
f 338 345 340
f 344 346 341
f 347 346 344
f 345 348 340
f 347 349 346
f 340 350 351
f 348 350 340
f 352 353 347
f 347 353 349
f 350 354 351
f 351 257 336
f 336 257 259
f 352 355 353
f 354 356 351
f 357 358 352
f 359 358 357
f 352 358 355
f 359 360 358
f 351 361 257
f 356 361 351
f 360 362 358
f 360 363 362
f 363 364 362
f 364 365 362
f 362 366 367
f 367 366 368
f 368 366 369
f 369 366 370
f 370 366 371
f 365 366 362
f 361 256 257
f 372 256 373
f 373 256 374
f 374 256 361
f 372 255 256
f 375 255 376
f 376 255 372
f 226 236 377
f 366 378 371
f 253 378 254
f 255 378 253
f 375 378 255
f 371 378 379
f 379 378 375
f 247 380 246
f 252 380 247
f 236 381 377
f 236 242 381
f 243 382 242
f 242 382 381
f 243 383 382
f 244 384 243
f 243 384 383
f 384 385 383
f 244 386 384
f 385 387 383
f 244 388 386
f 383 389 390
f 387 389 383
f 245 391 244
f 244 391 388
f 389 392 390
f 245 393 391
f 392 394 390
f 246 395 245
f 380 395 246
f 245 395 393
f 394 396 390
f 380 397 395
f 396 398 390
f 399 398 396
f 380 400 397
f 399 401 398
f 401 402 398
f 401 403 402
f 401 404 403
f 405 404 401
f 405 406 404
f 407 406 408
f 408 406 405
f 380 409 400
f 400 409 410
f 410 409 411
f 411 409 412
f 412 409 413
f 413 409 414
f 407 415 406
f 416 415 417
f 417 415 407
f 409 418 414
f 416 419 415
f 418 420 414
f 416 421 419
f 420 422 414
f 416 423 421
f 422 423 414
f 414 423 416
f 366 409 380
f 366 380 378
f 424 425 426
f 427 425 424
f 428 425 427
f 425 429 426
f 430 429 431
f 432 429 430
f 433 429 432
f 426 429 433
f 428 434 425
f 429 435 431
f 428 436 434
f 437 436 428
f 435 438 431
f 437 439 436
f 438 440 431
f 441 442 437
f 437 442 439
f 440 443 431
f 444 445 441
f 446 445 444
f 441 445 442
f 443 447 431
f 446 448 445
f 448 449 445
f 447 450 431
f 448 451 449
f 451 452 453
f 453 452 454
f 454 452 455
f 448 452 451
f 455 456 457
f 457 456 458
f 458 456 459
f 452 456 455
f 459 278 460
f 460 278 461
f 461 278 462
f 463 277 456
f 459 277 278
f 456 277 459
f 462 279 464
f 464 279 465
f 278 279 462
f 463 276 277
f 463 466 276
f 465 280 450
f 279 280 465
f 466 275 276
f 280 281 450
f 450 281 431
f 466 467 275
f 467 273 275
f 281 282 431
f 283 468 282
f 282 468 431
f 283 469 468
f 469 470 468
f 284 471 283
f 283 471 469
f 470 472 468
f 284 473 471
f 472 474 468
f 285 475 284
f 284 475 473
f 474 476 468
f 285 477 475
f 476 478 468
f 285 479 477
f 478 480 468
f 481 480 482
f 483 480 481
f 468 480 483
f 480 484 482
f 285 286 479
f 479 286 485
f 480 486 484
f 486 487 484
f 486 488 487
f 486 489 488
f 490 489 491
f 491 489 486
f 490 492 489
f 493 492 494
f 494 492 490
f 286 495 485
f 485 495 496
f 496 495 497
f 497 495 498
f 498 499 500
f 500 499 501
f 501 499 502
f 495 499 498
f 503 504 493
f 493 504 492
f 290 505 286
f 286 505 495
f 503 506 504
f 502 507 508
f 508 507 503
f 499 507 502
f 507 509 503
f 503 509 506
f 290 510 505
f 296 510 290
f 296 302 510
f 302 511 510
f 302 226 511
f 193 311 312
f 192 312 313
f 192 193 312
f 194 310 311
f 194 311 193
f 191 313 314
f 191 192 313
f 195 309 310
f 195 310 194
f 190 314 315
f 190 191 314
f 196 308 309
f 196 309 195
f 189 315 316
f 189 190 315
f 197 333 308
f 197 308 196
f 188 189 316
f 198 332 333
f 198 333 197
f 187 316 317
f 187 188 316
f 199 331 332
f 199 332 198
f 318 187 317
f 318 186 187
f 200 331 199
f 330 331 200
f 201 330 200
f 319 185 186
f 319 186 318
f 329 330 201
f 329 201 202
f 320 185 319
f 320 184 185
f 328 329 202
f 328 202 203
f 321 183 184
f 321 184 320
f 327 328 203
f 327 203 204
f 322 208 183
f 322 183 321
f 326 204 205
f 326 327 204
f 323 208 322
f 323 207 208
f 325 205 206
f 325 326 205
f 324 206 207
f 324 207 323
f 324 325 206
f 439 512 436
f 436 513 434
f 512 513 436
f 434 514 425
f 513 514 434
f 425 515 429
f 514 515 425
f 429 516 435
f 515 516 429
f 435 517 438
f 516 517 435
f 438 518 440
f 517 518 438
f 440 519 443
f 518 519 440
f 443 520 447
f 519 520 443
f 447 521 450
f 520 521 447
f 450 522 465
f 521 522 450
f 465 523 464
f 522 523 465
f 523 524 464
f 464 524 462
f 524 525 462
f 462 525 461
f 525 526 461
f 461 526 460
f 526 527 460
f 460 527 459
f 527 528 459
f 459 528 458
f 528 529 458
f 458 529 457
f 529 530 457
f 457 530 455
f 455 531 454
f 530 531 455
f 454 532 453
f 531 532 454
f 453 533 451
f 532 533 453
f 451 534 449
f 533 534 451
f 449 535 445
f 534 535 449
f 445 536 442
f 535 536 445
f 442 537 439
f 536 537 442
f 537 512 439
f 515 538 539
f 515 539 540
f 515 540 541
f 516 541 542
f 516 542 543
f 516 543 544
f 516 544 545
f 516 515 541
f 514 538 515
f 517 516 545
f 513 538 514
f 513 546 538
f 518 517 545
f 512 546 513
f 519 518 545
f 537 546 512
f 537 547 546
f 520 519 545
f 536 547 537
f 536 548 549
f 536 549 547
f 521 520 545
f 550 548 536
f 535 550 536
f 522 521 545
f 534 550 535
f 551 534 533
f 551 533 532
f 551 532 531
f 551 550 534
f 552 531 530
f 552 530 529
f 552 529 528
f 552 528 527
f 552 551 531
f 553 527 526
f 553 552 527
f 554 555 556
f 554 557 555
f 558 559 560
f 558 560 561
f 558 561 555
f 558 555 557
f 562 554 556
f 563 564 559
f 563 559 558
f 565 562 556
f 566 564 563
f 567 556 568
f 567 565 556
f 569 564 566
f 569 570 564
f 571 567 568
f 572 570 569
f 573 522 545
f 574 571 568
f 575 576 577
f 575 577 570
f 575 570 572
f 578 576 575
f 579 574 568
f 580 523 522
f 580 522 573
f 581 580 573
f 582 524 523
f 582 523 580
f 583 578 575
f 584 581 573
f 585 525 524
f 585 524 582
f 586 579 568
f 586 568 587
f 588 584 573
f 589 578 583
f 590 526 525
f 590 525 585
f 591 588 573
f 592 586 587
f 593 526 590
f 594 591 573
f 595 589 583
f 596 573 597
f 596 597 598
f 596 598 599
f 596 594 573
f 600 595 583
f 601 596 599
f 602 596 601
f 603 583 604
f 603 604 605
f 603 605 606
f 603 606 607
f 603 607 608
f 603 608 609
f 603 600 583
f 610 602 601
f 611 602 610
f 612 602 611
f 612 613 614
f 612 614 602
f 615 613 612
f 615 616 617
f 615 617 613
f 618 619 620
f 618 620 621
f 618 621 622
f 618 622 623
f 624 623 625
f 624 625 626
f 624 626 627
f 624 618 623
f 628 616 615
f 628 629 616
f 630 619 618
f 630 593 619
f 630 631 553
f 630 526 593
f 630 553 526
f 632 629 628
f 633 624 627
f 633 627 634
f 633 634 629
f 635 629 632
f 635 633 629
f 636 637 631
f 636 631 630
f 638 639 637
f 638 637 636
f 640 641 639
f 640 639 638
f 642 587 641
f 642 641 640
f 643 587 642
f 643 592 587
f 644 645 646
f 647 643 646
f 647 646 645
f 648 644 646
f 649 592 643
f 649 643 647
f 650 646 651
f 650 648 646
f 652 592 649
f 652 653 592
f 654 650 651
f 655 653 652
f 655 656 653
f 657 654 651
f 658 656 655
f 658 659 656
f 660 657 651
f 661 609 659
f 661 659 658
f 662 660 651
f 662 663 660
f 664 663 662
f 665 664 662
f 666 664 665
f 667 664 666
f 667 668 664
f 669 668 667
f 669 670 671
f 669 671 668
f 672 670 669
f 672 673 674
f 672 674 670
f 675 609 661
f 675 661 676
f 675 676 677
f 675 677 678
f 675 678 679
f 675 679 680
f 675 680 681
f 675 603 609
f 682 675 681
f 683 673 672
f 684 682 681
f 685 673 683
f 686 684 681
f 687 686 681
f 687 673 685
f 687 681 673
f 566 563 349
f 349 563 346
f 346 558 341
f 563 558 346
f 341 557 337
f 558 557 341
f 337 554 338
f 557 554 337
f 338 562 345
f 554 562 338
f 345 565 348
f 562 565 345
f 348 567 350
f 565 567 348
f 350 571 354
f 567 571 350
f 354 574 356
f 571 574 354
f 356 579 361
f 574 579 356
f 579 586 361
f 361 586 374
f 586 592 374
f 374 592 373
f 592 653 373
f 373 653 372
f 653 656 372
f 372 656 376
f 656 659 376
f 376 659 375
f 659 609 375
f 375 609 379
f 609 608 379
f 379 608 371
f 608 607 371
f 371 607 370
f 370 606 369
f 607 606 370
f 606 605 369
f 369 605 368
f 368 604 367
f 605 604 368
f 367 583 362
f 604 583 367
f 362 575 358
f 583 575 362
f 358 572 355
f 575 572 358
f 355 569 353
f 572 569 355
f 353 566 349
f 569 566 353
f 652 649 391
f 391 649 388
f 388 647 386
f 649 647 388
f 386 645 384
f 647 645 386
f 384 644 385
f 645 644 384
f 385 648 387
f 644 648 385
f 387 650 389
f 648 650 387
f 389 654 392
f 650 654 389
f 392 657 394
f 654 657 392
f 394 660 396
f 657 660 394
f 396 663 399
f 660 663 396
f 663 664 399
f 399 664 401
f 664 668 401
f 401 668 405
f 668 671 405
f 405 671 408
f 671 670 408
f 408 670 407
f 670 674 407
f 407 674 417
f 674 673 417
f 417 673 416
f 673 681 416
f 416 681 414
f 681 680 414
f 414 680 413
f 413 679 412
f 680 679 413
f 679 678 412
f 412 678 411
f 411 677 410
f 678 677 411
f 410 676 400
f 677 676 410
f 400 661 397
f 676 661 400
f 397 658 395
f 661 658 397
f 395 655 393
f 658 655 395
f 393 652 391
f 655 652 393
f 475 590 473
f 473 585 471
f 590 585 473
f 471 582 469
f 585 582 471
f 469 580 470
f 582 580 469
f 470 581 472
f 580 581 470
f 472 584 474
f 581 584 472
f 474 588 476
f 584 588 474
f 476 591 478
f 588 591 476
f 478 594 480
f 591 594 478
f 480 596 486
f 594 596 480
f 486 602 491
f 596 602 486
f 491 614 490
f 602 614 491
f 614 613 490
f 490 613 494
f 613 617 494
f 494 617 493
f 617 616 493
f 493 616 503
f 616 629 503
f 503 629 508
f 629 634 508
f 508 634 502
f 634 627 502
f 502 627 501
f 627 626 501
f 501 626 500
f 500 625 498
f 626 625 500
f 498 623 497
f 625 623 498
f 497 622 496
f 623 622 497
f 496 621 485
f 622 621 496
f 485 620 479
f 621 620 485
f 479 619 477
f 620 619 479
f 477 593 475
f 619 593 477
f 593 590 475
f 638 511 226
f 640 226 377
f 640 638 226
f 390 651 383
f 383 646 382
f 651 646 383
f 382 643 381
f 646 643 382
f 381 642 377
f 643 642 381
f 642 640 377
f 662 651 390
f 662 390 398
f 406 669 667
f 404 667 666
f 404 406 667
f 403 666 665
f 403 404 666
f 402 665 662
f 402 403 665
f 398 402 662
f 669 406 415
f 672 669 415
f 418 409 675
f 418 675 682
f 420 682 684
f 420 418 682
f 422 684 686
f 422 420 684
f 423 686 687
f 423 422 686
f 421 687 685
f 421 423 687
f 419 685 683
f 419 421 685
f 415 683 672
f 415 419 683
f 603 675 409
f 603 409 366
f 352 570 577
f 357 577 576
f 357 352 577
f 359 576 578
f 359 357 576
f 360 578 589
f 360 359 578
f 363 360 589
f 364 595 600
f 364 589 595
f 364 363 589
f 365 600 603
f 365 364 600
f 366 365 603
f 570 352 347
f 564 570 347
f 339 555 561
f 342 561 560
f 342 339 561
f 343 560 559
f 343 342 560
f 344 343 559
f 347 559 564
f 347 344 559
f 555 339 340
f 556 555 340
f 334 641 335
f 639 641 334
f 335 587 336
f 641 587 335
f 336 568 351
f 587 568 336
f 351 556 340
f 568 556 351
f 639 334 273
f 637 273 467
f 637 639 273
f 452 552 456
f 551 552 452
f 456 553 463
f 552 553 456
f 463 631 466
f 553 631 463
f 466 637 467
f 631 637 466
f 551 452 448
f 550 551 448
f 437 546 547
f 441 547 549
f 441 437 547
f 444 549 548
f 444 441 549
f 446 548 550
f 446 444 548
f 448 446 550
f 546 437 428
f 538 546 428
f 431 545 544
f 430 544 543
f 430 431 544
f 432 543 542
f 432 430 543
f 433 542 541
f 433 432 542
f 426 541 540
f 426 433 541
f 424 540 539
f 424 426 540
f 427 539 538
f 427 424 539
f 428 427 538
f 573 545 431
f 573 431 468
f 488 489 612
f 488 612 611
f 487 611 610
f 487 488 611
f 484 610 601
f 484 487 610
f 482 601 599
f 482 484 601
f 481 599 598
f 481 482 599
f 483 597 573
f 483 598 597
f 483 481 598
f 468 483 573
f 612 489 492
f 615 612 492
f 509 507 633
f 509 633 635
f 506 635 632
f 506 509 635
f 504 632 628
f 504 506 632
f 492 628 615
f 492 504 628
f 624 633 507
f 624 507 499
f 511 638 510
f 510 636 505
f 638 636 510
f 636 630 505
f 505 618 495
f 495 618 499
f 630 618 505
f 618 624 499
f 251 254 378
f 249 378 380
f 249 380 248
f 250 378 249
f 251 378 250
f 252 248 380
f 219 270 211
f 270 267 211
f 267 209 211
f 267 266 209
f 266 260 209
f 260 258 209
f 209 258 210
f 258 261 210
f 261 262 210
f 262 212 210
f 262 263 212
f 263 264 212
f 264 268 212
f 268 271 212
f 271 214 212
f 271 272 214
f 272 274 214
f 274 215 214
f 214 215 213
