# smartdrone2 body-local mesh, millimetres
v 15.467043 8.574999 -16.481013
v 15.740561 8.529741 -16.449027
v 15.745090 8.575001 -16.397774
v 15.919758 8.499734 -16.393573
v 15.996446 8.575001 -16.252656
v 16.181014 8.453897 -16.256784
v 16.207552 8.575019 -16.053476
v 16.333909 8.424488 -16.136896
v 16.383047 8.561411 -15.809341
v 16.542225 8.378110 -15.901217
v 16.647571 8.348716 -15.725663
v 16.495911 8.547949 -15.530291
v 16.730933 8.318496 -15.527495
v 16.540211 8.534686 -15.233807
v 16.795805 8.279196 -15.250000
v 16.514830 8.521534 -14.935032
v 16.875001 8.200000 -15.250000
v 16.834259 8.200000 -14.888403
v 16.714075 8.200000 -14.544939
v 16.422119 8.508564 -14.650715
v 16.520477 8.200000 -14.236828
v 16.267812 8.495732 -14.395033
v 16.263172 8.200000 -13.979523
v 16.060591 8.483033 -14.180511
v 15.955061 8.200000 -13.785925
v 15.811779 8.470503 -14.017513
v 15.611597 8.200000 -13.665741
v 15.538625 8.458310 -13.914135
v 15.250000 8.446235 -13.871234
v 15.250000 8.200000 -13.624999
v 14.000000 10.481259 -15.250000
v 14.005877 10.427433 -15.128930
v 14.000000 10.418737 -15.250000
v 14.036208 10.502875 -14.951321
v 14.023438 10.436096 -15.009072
v 14.075362 10.449986 -14.822467
v 14.142921 10.524493 -14.669590
v 14.204883 10.470666 -14.564267
v 14.313948 10.546111 -14.421564
v 14.389959 10.491378 -14.342900
v 14.539382 10.567766 -14.221641
v 14.630698 10.512871 -14.164198
v 14.806011 10.589381 -14.081508
v 14.906652 10.534405 -14.048080
v 15.097493 10.610931 -14.009338
v 15.202202 10.555837 -14.000914
v 15.398663 10.632564 -14.008872
v 15.501076 10.577461 -14.025475
v 15.691336 10.654206 -14.080503
v 15.785276 10.598888 -14.120408
v 15.958347 10.675815 -14.220075
v 16.038215 10.620451 -14.279837
v 16.184187 10.697448 -14.419461
v 16.246616 10.641855 -14.495509
v 16.355796 10.719100 -14.667149
v 16.397288 10.663408 -14.753785
v 16.463107 10.740709 -14.948553
v 16.482383 10.684851 -15.040883
v 16.490743 10.751618 -15.098157
v 16.500000 10.762502 -15.250000
v 16.496793 10.706413 -15.339476
v 16.464099 10.784029 -15.547427
v 16.439604 10.727818 -15.633853
v 16.358432 10.805543 -15.827822
v 16.314372 10.749378 -15.905448
v 16.188944 10.827049 -16.075157
v 16.127863 10.770811 -16.139863
v 15.965852 10.848547 -16.274722
v 15.890674 10.792407 -16.323330
v 15.701682 10.870052 -16.415540
v 15.617099 10.813881 -16.444880
v 15.501325 10.885006 -16.474474
v 15.322557 10.835359 -16.497892
v 15.293658 10.900007 -16.499225
v 15.023297 10.856887 -16.479270
v 15.004361 10.900000 -16.475627
v 14.737242 10.878378 -16.389991
v 14.728308 10.900000 -16.385930
v 14.480410 10.899976 -16.234951
v 14.000000 9.918762 -15.250000
v 14.010892 9.868065 -15.085343
v 14.000000 9.856216 -15.250000
v 14.015022 9.932652 -15.056792
v 14.043373 9.879887 -14.923579
v 14.039495 9.941338 -14.938268
v 14.075373 9.950000 -14.822470
v 14.155705 9.901401 -14.645833
v 14.211103 9.971562 -14.554879
v 14.331291 9.922931 -14.402372
v 14.406484 9.993063 -14.327514
v 14.560085 9.944515 -14.207638
v 14.650527 10.014613 -14.153126
v 14.828771 9.966098 -14.073112
v 14.929016 10.036149 -14.041915
v 15.121791 9.987645 -14.006592
v 15.226002 10.057661 -14.000230
v 15.422184 10.009234 -14.011916
v 15.524388 10.079200 -14.030487
v 15.712627 10.030810 -14.088761
v 15.806142 10.100669 -14.130534
v 15.976371 10.052354 -14.232707
v 16.056587 10.122178 -14.295057
v 16.198156 10.073948 -14.435445
v 16.260821 10.143698 -14.514649
v 16.365134 10.095519 -14.685220
v 16.406889 10.165253 -14.776600
v 16.467627 10.117063 -14.967363
v 16.486351 10.186774 -15.065781
v 16.499907 10.138577 -15.265209
v 16.494663 10.208288 -15.365384
v 16.460344 10.160090 -15.562355
v 16.431675 10.229755 -15.657608
v 16.351047 10.181619 -15.841773
v 16.300587 10.251290 -15.927323
v 16.178043 10.203207 -16.087398
v 16.109008 10.272799 -16.158078
v 15.951417 10.224781 -16.284657
v 15.868009 10.294340 -16.336538
v 15.684237 10.246329 -16.422151
v 15.591445 10.315881 -16.452462
v 15.391989 10.267926 -16.491909
v 15.295204 10.337396 -16.499182
v 15.091560 10.289493 -16.489918
v 14.996335 10.358927 -16.473991
v 14.800274 10.311040 -16.416296
v 14.712104 10.380474 -16.378347
v 14.534938 10.332637 -16.275274
v 14.458844 10.401994 -16.217767
v 14.311488 10.354153 -16.075647
v 14.251112 10.423509 -16.001480
v 14.141795 10.375668 -15.828257
v 14.100856 10.445063 -15.741904
v 14.036056 10.397182 -15.548059
v 14.025400 10.463185 -15.500711
v 14.000000 9.356284 -15.250000
v 14.011264 9.305745 -15.082571
v 14.000000 9.293737 -15.250000
v 14.036050 9.377816 -14.951964
v 14.044840 9.317800 -14.918205
v 14.142124 9.399366 -14.671112
v 14.158706 9.339323 -14.640429
v 14.312128 9.420946 -14.423625
v 14.335503 9.360888 -14.397829
v 14.536223 9.442474 -14.223832
v 14.565022 9.382448 -14.204388
v 14.801472 9.464030 -14.083243
v 14.834048 9.403975 -14.071236
v 15.092598 9.485604 -14.009950
v 15.126504 9.425494 -14.006116
v 15.392842 9.507136 -14.008188
v 15.426041 9.447018 -14.012458
v 15.684840 9.528698 -14.078073
v 15.715103 9.468487 -14.089751
v 15.951605 9.550253 -14.215471
v 15.978159 9.490027 -14.233986
v 16.177380 9.571722 -14.411868
v 16.199397 9.511592 -14.436892
v 16.350462 9.593275 -14.657139
v 16.365886 9.533117 -14.686707
v 16.460091 9.614849 -14.936663
v 16.468000 9.554686 -14.968975
v 16.499900 9.636378 -15.234226
v 16.499878 9.576244 -15.267441
v 16.467616 9.657936 -15.532686
v 16.459679 9.597768 -15.564923
v 16.365093 9.679509 -15.814860
v 16.349705 9.619341 -15.844263
v 16.198228 9.701037 -16.064472
v 16.176927 9.640836 -16.088634
v 15.976677 9.722603 -16.267074
v 15.950634 9.662332 -16.285187
v 15.713224 9.744169 -16.411001
v 15.684506 9.683827 -16.422051
v 15.423034 9.765699 -16.487966
v 15.392534 9.705386 -16.491847
v 15.123501 9.787215 -16.493582
v 15.092347 9.726915 -16.490018
v 14.831084 9.808750 -16.427714
v 14.801280 9.748484 -16.416683
v 14.562508 9.830262 -16.293961
v 14.536084 9.770038 -16.276072
v 14.334069 9.851760 -16.100629
v 14.312035 9.791564 -16.076270
v 14.157666 9.873331 -15.857706
v 14.142084 9.813141 -15.828810
v 14.044273 9.894851 -15.579729
v 14.036041 9.834688 -15.547998
v 14.011124 9.906814 -15.416387
v 15.988711 8.596529 -16.258368
v 15.727368 8.618060 -16.405257
v 15.439266 8.639534 -16.485588
v 15.280002 8.588442 -16.499640
v 15.139845 8.661033 -16.495137
v 15.092295 8.601944 -16.490012
v 14.846455 8.682569 -16.433069
v 14.801273 8.623464 -16.416681
v 14.576267 8.704118 -16.302893
v 14.535846 8.645051 -16.275907
v 14.344855 8.725621 -16.112098
v 14.311719 8.666623 -16.075911
v 14.165573 8.747163 -15.871706
v 14.141773 8.688167 -15.828216
v 14.048708 8.768706 -15.595538
v 14.035950 8.709706 -15.547628
v 14.012235 8.781228 -15.424463
v 14.000000 8.731244 -15.250000
v 14.000000 8.793763 -15.250000
v 13.334497 8.200000 -13.858306
v 14.174782 8.200000 -14.031585
v 13.665705 8.200000 -13.490462
v 14.066154 8.200000 -13.199519
v 13.087006 8.200000 -14.286973
v 13.915038 8.200000 -14.323445
v 14.496682 8.200000 -13.810159
v 14.518343 8.200000 -12.998192
v 12.934048 8.200000 -14.757729
v 13.732465 8.200000 -14.668866
v 14.862130 8.200000 -13.671968
v 15.002509 8.200000 -12.895279
v 12.882309 8.200000 -15.250000
v 13.637618 8.200000 -15.047882
v 15.497491 8.200000 -12.895279
v 12.934048 8.200000 -15.742271
v 13.635979 8.200000 -15.438582
v 15.981657 8.200000 -12.998192
v 13.087006 8.200000 -16.213027
v 13.727643 8.200000 -15.818380
v 16.433846 8.200000 -13.199519
v 13.334497 8.200000 -16.641694
v 13.907311 8.200000 -16.165321
v 16.834295 8.200000 -13.490462
v 14.164597 8.200000 -16.459350
v 13.665705 8.200000 -17.009538
v 17.165503 8.200000 -13.858306
v 14.066154 8.200000 -17.300481
v 14.484628 8.200000 -16.683469
v 17.412994 8.200000 -14.286973
v 14.518343 8.200000 -17.501808
v 14.848903 8.200000 -16.824722
v 16.932972 8.200000 -15.250000
v 17.565952 8.200000 -14.757729
v 15.002509 8.200000 -17.604721
v 15.236365 8.200000 -16.874944
v 16.884915 8.200000 -15.522017
v 17.617691 8.200000 -15.250000
v 15.497491 8.200000 -17.604721
v 15.624615 8.200000 -16.831231
v 16.832255 8.200000 -15.686245
v 17.565952 8.200000 -15.742271
v 15.981657 8.200000 -17.501808
v 15.991210 8.200000 -16.696111
v 16.762585 8.200000 -15.843839
v 17.412994 8.200000 -16.213027
v 16.577140 8.200000 -16.187724
v 16.433846 8.200000 -17.300481
v 16.314956 8.200000 -16.477394
v 17.165503 8.200000 -16.641694
v 16.834295 8.200000 -17.009538
v 12.507309 8.387500 -15.250000
v 12.340684 8.481963 -14.889083
v 12.132309 8.575000 -15.250000
v 12.891873 8.366300 -13.934396
v 12.714938 8.380422 -14.240856
v 13.066081 8.374949 -13.632658
v 15.210283 8.366300 -12.550000
v 14.856414 8.380422 -12.550000
v 15.558700 8.374949 -12.550000
v 17.568410 8.366300 -13.865604
v 17.391475 8.380422 -13.559144
v 17.742618 8.374949 -14.167342
v 17.608127 8.366300 -16.565604
v 17.785062 8.380422 -16.259144
v 17.433919 8.374949 -16.867342
v 15.289717 8.366300 -17.950000
v 15.643586 8.380422 -17.950000
v 14.941300 8.374949 -17.950000
v 12.931590 8.366300 -16.634396
v 13.108525 8.380422 -16.940856
v 12.757382 8.374949 -16.332658
v 12.365531 8.472463 -15.653954
v 12.600763 8.387500 -14.540139
v 12.532893 8.418302 -14.556167
v 13.310624 8.387500 -13.310624
v 13.457931 8.472463 -12.953954
v 13.244179 8.406486 -13.324184
v 13.878654 8.387500 -12.874760
v 14.107905 8.481963 -12.550000
v 13.691154 8.575000 -12.550000
v 14.540139 8.387500 -12.600763
v 14.492323 8.418302 -12.550000
v 15.959861 8.387500 -12.600763
v 15.914895 8.406486 -12.550000
v 16.342400 8.472463 -12.550000
v 16.621346 8.387500 -12.874760
v 17.017221 8.481963 -12.910917
v 16.808846 8.575000 -12.550000
v 17.189376 8.387500 -13.310624
v 17.209430 8.418302 -13.243833
v 17.899237 8.387500 -14.540139
v 17.920716 8.406486 -14.475816
v 18.134469 8.472463 -14.846046
v 17.992691 8.387500 -15.250000
v 18.367691 8.575000 -15.250000
v 18.159316 8.481963 -15.610917
v 17.899237 8.387500 -15.959861
v 17.967107 8.418302 -15.943833
v 17.189376 8.387500 -17.189376
v 17.255821 8.406486 -17.175816
v 17.042069 8.472463 -17.546046
v 16.621346 8.387500 -17.625240
v 16.392095 8.481963 -17.950000
v 16.808846 8.575000 -17.950000
v 15.959861 8.387500 -17.899237
v 16.007677 8.418302 -17.950000
v 14.540139 8.387500 -17.899237
v 14.157600 8.472463 -17.950000
v 14.585105 8.406486 -17.950000
v 13.878654 8.387500 -17.625240
v 13.482779 8.481963 -17.589083
v 13.691154 8.575000 -17.950000
v 13.310624 8.387500 -17.189376
v 13.290570 8.418302 -17.256167
v 12.600763 8.387500 -15.959861
v 12.579284 8.406486 -16.024184
v 12.340684 10.718037 -14.889083
v 12.132309 10.625000 -15.250000
v 12.532893 10.781698 -14.556167
v 12.714938 10.819578 -14.240856
v 12.891873 10.833700 -13.934396
v 13.066081 10.825051 -13.632658
v 13.244179 10.793514 -13.324184
v 13.457931 10.727537 -12.953954
v 13.691154 10.625000 -12.550000
v 13.482779 10.718037 -17.589083
v 13.691154 10.625000 -17.950000
v 13.290570 10.781698 -17.256167
v 13.108525 10.819578 -16.940856
v 12.931590 10.833700 -16.634396
v 12.757382 10.825051 -16.332658
v 12.579284 10.793514 -16.024184
v 12.365531 10.727537 -15.653954
v 16.392095 10.718037 -17.950000
v 16.808846 10.625000 -17.950000
v 16.007677 10.781698 -17.950000
v 15.643586 10.819578 -17.950000
v 15.289717 10.833700 -17.950000
v 14.941300 10.825051 -17.950000
v 14.585105 10.793514 -17.950000
v 14.157600 10.727537 -17.950000
v 18.159316 10.718037 -15.610917
v 18.367691 10.625000 -15.250000
v 17.967107 10.781698 -15.943833
v 17.785062 10.819578 -16.259144
v 17.608127 10.833700 -16.565604
v 17.433919 10.825051 -16.867342
v 17.255821 10.793514 -17.175816
v 17.042069 10.727537 -17.546046
v 17.017221 10.718037 -12.910917
v 16.808846 10.625000 -12.550000
v 17.209430 10.781698 -13.243833
v 17.391475 10.819578 -13.559144
v 17.568410 10.833700 -13.865604
v 17.742618 10.825051 -14.167342
v 17.920716 10.793514 -14.475816
v 18.134469 10.727537 -14.846046
v 14.107905 10.718037 -12.550000
v 14.492323 10.781698 -12.550000
v 14.856414 10.819578 -12.550000
v 15.210283 10.833700 -12.550000
v 15.558700 10.825051 -12.550000
v 15.914895 10.793514 -12.550000
v 16.342400 10.727537 -12.550000
v 17.849081 10.858846 -14.733011
v 17.698281 10.858846 -14.235889
v 17.453394 10.858846 -13.777739
v 17.123833 10.858846 -13.376167
v 16.722261 10.858846 -13.046606
v 16.264111 10.858846 -12.801719
v 15.766989 10.858846 -12.650919
v 15.250000 10.858846 -12.600000
v 14.733011 10.858846 -12.650919
v 14.235889 10.858846 -12.801719
v 13.376167 10.858846 -13.376167
v 13.777739 10.858846 -13.046606
v 13.046606 10.858846 -13.777739
v 12.801719 10.858846 -14.235889
v 12.650919 10.858846 -14.733011
v 12.801719 10.858846 -16.264111
v 12.650919 10.858846 -15.766989
v 13.046606 10.858846 -16.722261
v 13.376167 10.858846 -17.123833
v 13.777739 10.858846 -17.453394
v 14.235889 10.858846 -17.698281
v 14.733011 10.858846 -17.849081
v 15.250000 10.858846 -17.900000
v 15.766989 10.858846 -17.849081
v 16.264111 10.858846 -17.698281
v 17.123833 10.858846 -17.123833
v 17.453394 10.858846 -16.722261
v 17.698281 10.858846 -16.264111
v 17.849081 10.858846 -15.766989
v 18.119515 10.741923 -14.962862
v 18.133846 10.741923 -15.250000
v 17.900000 10.858846 -15.250000
v 16.814620 10.741923 -12.827495
v 16.565641 10.741923 -12.683747
v 14.063911 10.741923 -12.621358
v 13.808077 10.741923 -12.752516
v 13.566573 10.741923 -12.908496
v 12.369739 10.741923 -15.106252
v 12.600000 10.858846 -15.250000
v 12.369739 10.741923 -15.393748
v 12.398364 10.741923 -15.679815
v 13.566573 10.741923 -17.591504
v 13.808077 10.741923 -17.747484
v 14.063911 10.741923 -17.878642
v 16.565641 10.741923 -17.816253
v 16.722261 10.858846 -17.453394
v 16.814620 10.741923 -17.672505
v 17.048048 10.741923 -17.504681
v 18.119515 10.741923 -15.537138
v 15.250000 11.800000 -17.900000
v 14.717036 11.800000 -17.845852
v 14.205852 11.800000 -17.685622
v 13.737339 11.800000 -17.425858
v 13.330642 11.800000 -17.077174
v 13.002382 11.800000 -16.653821
v 12.765974 11.800000 -16.173100
v 12.631078 11.800000 -15.654654
v 12.603207 11.800000 -15.119672
v 12.683500 11.800000 -14.590016
v 12.868676 11.800000 -14.087331
v 13.151168 11.800000 -13.632160
v 13.519431 11.800000 -13.243104
v 13.958416 11.800000 -12.936062
v 14.450183 11.800000 -12.723581
v 14.974635 11.800000 -12.614346
v 15.510340 11.800000 -12.612819
v 16.035406 11.800000 -12.719064
v 16.528376 11.800000 -12.928738
v 16.969103 11.800000 -13.233274
v 17.339577 11.800000 -13.620225
v 17.624659 11.800000 -14.073779
v 17.812697 11.800000 -14.575400
v 17.896008 11.800000 -15.104590
v 17.871186 11.800000 -15.639722
v 17.739247 11.800000 -16.158928
v 17.505582 11.800000 -16.640989
v 17.179740 11.800000 -17.066206
v 16.775037 11.800000 -17.417202
v 16.308011 11.800000 -17.679632
v 15.797749 11.800000 -17.842773
v 15.265103 11.800000 -17.899957
v 15.260068 11.800000 -17.899981
v 15.255034 11.800000 -17.899995
v 15.265074 11.844504 -17.894943
v 15.264990 11.886777 -17.880151
v 15.263963 12.000000 -17.699960
v 15.773033 12.000000 -17.643520
v 15.264216 11.994986 -17.744464
v 14.718045 11.844504 -17.840940
v 14.721020 11.886777 -17.826451
v 14.725812 11.924698 -17.803110
v 15.264854 11.924698 -17.856324
v 14.732181 11.956366 -17.772089
v 15.264673 11.956366 -17.824656
v 14.739807 11.980194 -17.734943
v 15.264457 11.980194 -17.786736
v 14.748309 11.994986 -17.693534
v 14.754282 12.000000 -17.649326
v 14.207828 11.844504 -17.681014
v 14.213656 11.886777 -17.667418
v 14.223045 11.924698 -17.645518
v 14.235523 11.956366 -17.616412
v 14.250464 11.980194 -17.581558
v 14.267121 11.994986 -17.542706
v 14.266267 12.000000 -17.493829
v 13.740201 11.844504 -17.421740
v 13.748645 11.886777 -17.409595
v 13.762246 11.924698 -17.390031
v 13.780323 11.956366 -17.364029
v 13.801969 11.980194 -17.332893
v 13.821246 12.000000 -17.240267
v 13.826098 11.994986 -17.298183
v 13.334274 11.844504 -17.073717
v 13.344988 11.886777 -17.063518
v 13.362246 11.924698 -17.047089
v 13.385182 11.956366 -17.025254
v 13.438668 12.000000 -16.899720
v 13.412648 11.980194 -16.999107
v 13.443266 11.994986 -16.969960
v 13.006635 11.844504 -16.651165
v 13.019181 11.886777 -16.643329
v 13.039390 11.924698 -16.630707
v 13.066250 11.956366 -16.613930
v 13.135254 12.000000 -16.487072
v 13.098413 11.980194 -16.593842
v 13.134267 11.994986 -16.571448
v 12.770674 11.844504 -16.171353
v 12.784539 11.886777 -16.166200
v 12.806874 11.924698 -16.157900
v 12.836559 11.956366 -16.146869
v 12.924264 12.000000 -16.020359
v 12.872105 11.980194 -16.133659
v 12.911730 11.994986 -16.118934
v 12.636033 11.844504 -15.653889
v 12.650651 11.886777 -15.651630
v 12.674200 11.924698 -15.647991
v 12.814920 12.000000 -15.519977
v 12.705496 11.956366 -15.643156
v 12.742973 11.980194 -15.637365
v 12.784750 11.994986 -15.630910
v 12.608215 11.844504 -15.119919
v 12.622989 11.886777 -15.120646
v 12.646788 11.924698 -15.121818
v 12.812001 12.000000 -15.007796
v 12.678418 11.956366 -15.123376
v 12.716293 11.980194 -15.125241
v 12.758514 11.994986 -15.127320
v 12.688357 11.844504 -14.591265
v 12.702682 11.886777 -14.594949
v 12.725759 11.924698 -14.600883
v 12.756429 11.956366 -14.608770
v 12.729852 11.844504 -14.447004
v 12.793156 11.980194 -14.618215
v 12.743946 11.886777 -14.451495
v 12.834096 11.994986 -14.628743
v 12.915635 12.000000 -14.506200
v 12.766648 11.924698 -14.458729
v 12.796822 11.956366 -14.468343
v 12.832954 11.980194 -14.479855
v 12.873231 11.994986 -14.492689
v 12.873182 11.844504 -14.089531
v 12.886475 11.886777 -14.096021
v 12.907886 11.924698 -14.106475
v 12.936344 11.956366 -14.120370
v 12.951875 11.844504 -13.940583
v 12.970420 11.980194 -14.137007
v 12.964728 11.886777 -13.947906
v 13.008407 11.994986 -14.155554
v 13.121291 12.000000 -14.037112
v 12.985430 11.924698 -13.959702
v 13.012946 11.956366 -13.975380
v 13.045894 11.980194 -13.994153
v 13.082623 11.994986 -14.015080
v 13.155140 11.844504 -13.635222
v 13.166855 11.886777 -13.644252
v 13.185727 11.924698 -13.658799
v 13.210808 11.956366 -13.678133
v 13.240842 11.980194 -13.701284
v 13.274338 11.844504 -13.491390
v 13.274323 11.994986 -13.727091
v 13.419982 12.000000 -13.621033
v 13.285387 11.886777 -13.501225
v 13.303185 11.924698 -13.517067
v 13.326839 11.956366 -13.538123
v 13.355164 11.980194 -13.563337
v 13.386740 11.994986 -13.591443
v 13.522706 11.844504 -13.246901
v 13.532366 11.886777 -13.258104
v 13.547926 11.924698 -13.276149
v 13.568607 11.956366 -13.300132
v 13.593371 11.980194 -13.328850
v 13.683147 11.844504 -13.119057
v 13.620977 11.994986 -13.360864
v 13.798653 12.000000 -13.276148
v 13.691909 11.886777 -13.130974
v 13.706024 11.924698 -13.150171
v 13.724784 11.956366 -13.175684
v 13.747248 11.980194 -13.206236
v 13.772290 11.994986 -13.240293
v 13.960860 11.844504 -12.940440
v 13.968069 11.886777 -12.953356
v 13.979683 11.924698 -12.974162
v 13.995117 11.956366 -13.001814
v 14.013600 11.980194 -13.034926
v 14.160434 11.844504 -12.839856
v 14.034203 11.994986 -13.071838
v 14.240756 12.000000 -13.017529
v 14.166527 11.886777 -12.853334
v 14.176343 11.924698 -12.875046
v 14.189388 11.956366 -12.903903
v 14.205009 11.980194 -12.938457
v 14.222423 11.994986 -12.976976
v 14.451696 11.844504 -12.728362
v 14.456160 11.886777 -12.742464
v 14.463352 11.924698 -12.765180
v 14.472910 11.956366 -12.795372
v 14.484355 11.980194 -12.831524
v 14.497114 11.994986 -12.871826
v 14.726967 12.000000 -12.856480
v 14.685341 11.844504 -12.665990
v 14.688499 11.886777 -12.680441
v 14.693585 11.924698 -12.703719
v 14.700346 11.956366 -12.734657
v 14.708442 11.980194 -12.771704
v 14.717466 11.994986 -12.813002
v 14.975156 11.844504 -12.619333
v 14.976693 11.886777 -12.634045
v 14.979169 11.924698 -12.657743
v 14.982459 11.956366 -12.689240
v 14.986400 11.980194 -12.726956
v 14.990793 11.994986 -12.769000
v 15.236037 12.000000 -12.800040
v 15.234926 11.844504 -12.605057
v 15.235010 11.886777 -12.619849
v 15.235146 11.924698 -12.643676
v 15.235327 11.956366 -12.675344
v 15.235543 11.980194 -12.713264
v 15.235784 11.994986 -12.755536
v 15.509847 11.844504 -12.617809
v 15.508394 11.886777 -12.632530
v 15.506053 11.924698 -12.656242
v 15.502942 11.956366 -12.687757
v 15.499217 11.980194 -12.725495
v 15.495064 11.994986 -12.767563
v 15.745718 12.000000 -12.850674
v 15.785170 11.844504 -12.659722
v 15.782177 11.886777 -12.674208
v 15.777356 11.924698 -12.697542
v 15.770948 11.956366 -12.728555
v 15.763276 11.980194 -12.765692
v 15.754722 11.994986 -12.807091
v 16.033920 11.844504 -12.723853
v 16.029536 11.886777 -12.737980
v 16.022474 11.924698 -12.760737
v 16.013088 11.956366 -12.790983
v 16.001849 11.980194 -12.827200
v 15.989320 11.994986 -12.867573
v 16.233733 12.000000 -13.006171
v 16.312024 11.844504 -12.827594
v 16.306085 11.886777 -12.841141
v 16.296518 11.924698 -12.862963
v 16.283802 11.956366 -12.891966
v 16.268576 11.980194 -12.926696
v 16.251602 11.994986 -12.965412
v 16.525957 11.844504 -12.933131
v 16.518821 11.886777 -12.946088
v 16.507327 11.924698 -12.966959
v 16.492050 11.956366 -12.994699
v 16.473756 11.980194 -13.027916
v 16.453364 11.994986 -13.064945
v 16.678754 12.000000 -13.259733
v 16.792463 11.844504 -13.101336
v 16.783837 11.886777 -13.113352
v 16.769942 11.924698 -13.132709
v 16.751474 11.956366 -13.158435
v 16.729360 11.980194 -13.189240
v 16.965850 11.844504 -13.237090
v 16.704708 11.994986 -13.223580
v 16.956254 11.886777 -13.248347
v 16.940797 11.924698 -13.266480
v 16.920253 11.956366 -13.290581
v 16.895653 11.980194 -13.319440
v 16.868230 11.994986 -13.351611
v 17.061332 12.000000 -13.600280
v 17.205489 11.844504 -13.468986
v 17.194553 11.886777 -13.478946
v 17.176937 11.924698 -13.494990
v 17.153524 11.956366 -13.516314
v 17.125488 11.980194 -13.541849
v 17.335623 11.844504 -13.623309
v 17.094235 11.994986 -13.570313
v 17.323960 11.886777 -13.632406
v 17.305171 11.924698 -13.647060
v 17.280200 11.956366 -13.666537
v 17.250299 11.980194 -13.689858
v 17.216966 11.994986 -13.715856
v 17.364746 12.000000 -14.012928
v 17.533050 11.844504 -13.914474
v 17.520283 11.886777 -13.921943
v 17.499716 11.924698 -13.933974
v 17.472381 11.956366 -13.949964
v 17.620165 11.844504 -14.076005
v 17.439649 11.980194 -13.969112
v 17.606910 11.886777 -14.082570
v 17.403161 11.994986 -13.990456
v 17.585559 11.924698 -14.093146
v 17.557181 11.956366 -14.107202
v 17.523200 11.980194 -14.124034
v 17.485319 11.994986 -14.142797
v 17.575736 12.000000 -14.479641
v 17.760832 11.844504 -14.418332
v 17.746790 11.886777 -14.422983
v 17.724171 11.924698 -14.430475
v 17.694109 11.956366 -14.440432
v 17.807848 11.844504 -14.576677
v 17.658111 11.980194 -14.452356
v 17.793543 11.886777 -14.580442
v 17.617983 11.994986 -14.465648
v 17.770501 11.924698 -14.586508
v 17.739876 11.956366 -14.594570
v 17.703204 11.980194 -14.604223
v 17.662324 11.994986 -14.614984
v 17.685080 12.000000 -14.980023
v 17.878878 11.844504 -14.958537
v 17.864176 11.886777 -14.960167
v 17.840494 11.924698 -14.962792
v 17.809018 11.956366 -14.966282
v 17.891001 11.844504 -15.104865
v 17.771328 11.980194 -14.970461
v 17.876231 11.886777 -15.105677
v 17.729313 11.994986 -14.975119
v 17.852440 11.924698 -15.106984
v 17.820819 11.956366 -15.108722
v 17.782955 11.980194 -15.110803
v 17.740746 11.994986 -15.113122
v 17.687999 12.000000 -15.492204
v 17.882029 11.844504 -15.511480
v 17.867310 11.886777 -15.510018
v 17.843599 11.924698 -15.507662
v 17.812086 11.956366 -15.504532
v 17.774350 11.980194 -15.500783
v 17.732285 11.994986 -15.496604
v 17.756054 11.886777 -16.048505
v 17.733352 11.924698 -16.041271
v 17.703178 11.956366 -16.031657
v 17.667046 11.980194 -16.020145
v 17.626769 11.994986 -16.007311
v 17.584365 12.000000 -15.993800
v 17.535272 11.886777 -16.552094
v 17.514570 11.924698 -16.540298
v 17.487054 11.956366 -16.524620
v 17.454106 11.980194 -16.505847
v 17.417377 11.994986 -16.484920
v 17.378709 12.000000 -16.462888
v 17.214613 11.886777 -16.998775
v 17.196815 11.924698 -16.982933
v 17.173161 11.956366 -16.961877
v 17.144836 11.980194 -16.936663
v 17.113260 11.994986 -16.908557
v 17.080018 12.000000 -16.878967
v 16.808091 11.886777 -17.369026
v 16.793976 11.924698 -17.349829
v 16.775216 11.956366 -17.324316
v 16.752752 11.980194 -17.293764
v 16.727710 11.994986 -17.259707
v 16.701347 12.000000 -17.223852
v 16.339566 11.844504 -17.660144
v 16.333473 11.886777 -17.646666
v 16.323657 11.924698 -17.624954
v 16.310612 11.956366 -17.596097
v 16.294991 11.980194 -17.561543
v 16.277577 11.994986 -17.523024
v 16.259244 12.000000 -17.482471
v 15.814659 11.844504 -17.834010
v 15.811501 11.886777 -17.819559
v 15.806415 11.924698 -17.796281
v 15.799654 11.956366 -17.765343
v 15.791558 11.980194 -17.728296
v 15.782534 11.994986 -17.686998
v 13.793381 12.000000 -16.964865
v 13.458791 12.000000 -16.611642
v 14.196081 12.000000 -17.237902
v 13.207955 12.000000 -16.194750
v 14.648061 12.000000 -17.417987
v 13.052604 12.000000 -15.733683
v 15.128187 12.000000 -17.496700
v 13.000000 12.000000 -15.250000
v 15.614009 12.000000 -17.470360
v 13.052604 12.000000 -14.766317
v 16.082811 12.000000 -17.340198
v 13.207955 12.000000 -14.305250
v 16.512671 12.000000 -17.112300
v 13.458791 12.000000 -13.888358
v 16.883490 12.000000 -16.797324
v 13.793381 12.000000 -13.535135
v 17.177929 12.000000 -16.409996
v 14.196081 12.000000 -13.262098
v 17.382220 12.000000 -15.968428
v 14.648061 12.000000 -13.082013
v 17.486810 12.000000 -15.493268
v 15.128187 12.000000 -13.003300
v 17.486810 12.000000 -15.006732
v 15.614009 12.000000 -13.029640
v 16.082811 12.000000 -13.159802
v 17.382220 12.000000 -14.531572
v 16.512671 12.000000 -13.387700
v 17.177929 12.000000 -14.090004
v 16.883490 12.000000 -13.702676
v 13.000000 11.900000 -15.250000
v 13.052604 11.900000 -14.766317
v 13.207955 11.900000 -14.305250
v 13.458791 11.900000 -13.888358
v 13.793381 11.900000 -13.535135
v 14.196081 11.900000 -13.262098
v 14.648061 11.900000 -13.082013
v 15.128187 11.900000 -13.003300
v 15.614009 11.900000 -13.029640
v 16.082811 11.900000 -13.159802
v 16.512671 11.900000 -13.387700
v 16.883490 11.900000 -13.702676
v 17.177929 11.900000 -14.090004
v 17.382220 11.900000 -14.531572
v 17.486810 11.900000 -15.006732
v 17.486810 11.900000 -15.493268
v 17.382220 11.900000 -15.968428
v 17.177929 11.900000 -16.409996
v 16.883490 11.900000 -16.797324
v 16.512671 11.900000 -17.112300
v 16.082811 11.900000 -17.340198
v 15.614009 11.900000 -17.470360
v 15.128187 11.900000 -17.496700
v 14.648061 11.900000 -17.417987
v 14.196081 11.900000 -17.237902
v 13.793381 11.900000 -16.964865
v 13.458791 11.900000 -16.611642
v 13.207955 11.900000 -16.194750
v 13.052604 11.900000 -15.733683
v 14.351787 11.900000 -14.454253
v 14.568322 11.900000 -14.262419
v 14.187453 11.900000 -14.692332
v 14.824474 11.900000 -14.127981
v 14.084870 11.900000 -14.962821
v 15.105356 11.900000 -14.058749
v 14.050000 11.900000 -15.250000
v 15.394644 11.900000 -14.058749
v 14.084870 11.900000 -15.537179
v 15.675526 11.900000 -14.127981
v 14.187453 11.900000 -15.807668
v 15.931678 11.900000 -14.262419
v 14.351787 11.900000 -16.045747
v 16.148213 11.900000 -14.454253
v 14.568322 11.900000 -16.237581
v 16.312547 11.900000 -14.692332
v 14.824474 11.900000 -16.372019
v 16.415130 11.900000 -14.962821
v 15.105356 11.900000 -16.441251
v 16.450000 11.900000 -15.250000
v 15.394644 11.900000 -16.441251
v 16.415130 11.900000 -15.537179
v 15.675526 11.900000 -16.372019
v 16.312547 11.900000 -15.807668
v 15.931678 11.900000 -16.237581
v 16.148213 11.900000 -16.045747
v 16.450000 10.900000 -15.250000
v 16.415130 10.900000 -15.537179
v 16.312547 10.900000 -15.807668
v 16.148213 10.900000 -16.045747
v 15.931678 10.900000 -16.237581
v 15.675526 10.900000 -16.372019
v 15.394644 10.900000 -16.441251
v 15.105356 10.900000 -16.441251
v 14.824474 10.900000 -16.372019
v 14.568322 10.900000 -16.237581
v 14.351787 10.900000 -16.045747
v 14.187453 10.900000 -15.807668
v 14.084870 10.900000 -15.537179
v 14.050000 10.900000 -15.250000
v 14.084870 10.900000 -14.962821
v 14.187453 10.900000 -14.692332
v 14.351787 10.900000 -14.454253
v 14.568322 10.900000 -14.262419
v 14.824474 10.900000 -14.127981
v 15.105356 10.900000 -14.058749
v 15.394644 10.900000 -14.058749
v 15.675526 10.900000 -14.127981
v 15.931678 10.900000 -14.262419
v 16.148213 10.900000 -14.454253
v 16.312547 10.900000 -14.692332
v 16.415130 10.900000 -14.962821
v 16.396028 10.900000 -16.043946
v 16.160850 10.900000 -16.257931
v 15.883273 10.900000 -16.410502
v 16.584451 10.900000 -15.766449
v 15.593239 10.900000 -16.489797
v 16.665399 10.900000 -15.577692
v 16.735869 10.900000 -15.270606
v 16.745786 10.900000 -15.064854
v 16.717099 10.900000 -14.801396
v 16.642988 10.900000 -14.546326
v 16.526126 10.900000 -14.306904
v 16.371086 10.900000 -14.091044
v 14.294816 10.900000 -16.098831
v 16.183732 10.900000 -13.904649
v 14.136505 10.900000 -15.931565
v 14.034801 10.900000 -15.782292
v 15.980483 10.900000 -13.758159
v 15.875661 10.900000 -13.699253
v 15.770161 10.900000 -13.649523
v 13.912000 10.900000 -15.502392
v 13.864532 10.900000 -15.291383
v 15.384884 10.900000 -13.608661
v 13.856381 10.900000 -14.972187
v 15.002735 10.900000 -13.658865
v 13.900101 10.900000 -14.725710
v 13.986964 10.900000 -14.488349
v 14.642535 10.900000 -13.799460
v 14.144290 10.900000 -14.227210
v 14.356771 10.900000 -13.997773
v 14.011080 8.743176 -15.083940
v 14.035832 8.815244 -14.952855
v 14.044087 8.755080 -14.920949
v 14.141562 8.836800 -14.672189
v 14.157284 8.776623 -14.642982
v 14.311037 8.858305 -14.424866
v 14.333579 8.798201 -14.399898
v 14.534221 8.879801 -14.225226
v 14.562745 8.819731 -14.205883
v 14.799200 8.901377 -14.084119
v 14.831539 8.841297 -14.072125
v 15.090150 8.922907 -14.010263
v 15.124474 8.862867 -14.006319
v 15.390315 8.944454 -14.007900
v 15.424686 8.884396 -14.012266
v 15.682418 8.966032 -14.077177
v 15.714798 8.905968 -14.089628
v 15.949582 8.987559 -14.214102
v 15.977316 8.927467 -14.233383
v 16.176372 9.009114 -14.410754
v 16.198639 8.948983 -14.436008
v 16.349738 9.030683 -14.655798
v 16.365163 8.970522 -14.685279
v 16.459694 9.052213 -14.935136
v 16.467513 8.992039 -14.966871
v 16.499879 9.073772 -15.232644
v 16.499905 9.013571 -15.265373
v 16.468182 9.095267 -15.530235
v 16.460186 9.035139 -15.562969
v 16.366344 9.116789 -15.812384
v 16.350643 9.056708 -15.842525
v 16.200072 9.138343 -16.062320
v 16.177576 9.078237 -16.087916
v 15.978976 9.159916 -16.265428
v 15.951004 9.099812 -16.284936
v 15.715859 9.181441 -16.409946
v 15.684006 9.121373 -16.422237
v 15.425897 9.202998 -16.487562
v 15.391956 9.142904 -16.491913
v 15.125783 9.224568 -16.493813
v 15.091678 9.164480 -16.489933
v 14.832797 9.246095 -16.428321
v 14.800593 9.186037 -16.416419
v 14.563888 9.267660 -16.294869
v 14.536218 9.207508 -16.276165
v 14.334681 9.289201 -16.101288
v 14.312208 9.229063 -16.076467
v 14.158591 9.310670 -15.859366
v 14.142170 9.250629 -15.828975
v 14.044936 9.332196 -15.582145
v 14.036058 9.272162 -15.548069
v 14.011319 9.344209 -15.417838
v 16.887384 8.220889 -15.639294
v 16.744965 8.242716 -16.022886
v 16.252201 8.283515 -16.602082
v 16.537749 8.262622 -16.333599
v 16.308199 9.807726 -13.941329
v 16.114841 9.795190 -13.806259
v 13.614356 10.190043 -14.853683
v 13.668539 10.200031 -14.674395
v 16.729108 8.308310 -15.674128
v 16.482098 8.340810 -16.171727
v 15.997136 8.456653 -16.427297
v 16.074485 8.373310 -16.549181
v 15.922126 8.303832 -16.792923
v 15.301765 8.337853 -16.932162
v 15.530375 8.489153 -16.615881
v 15.559402 8.405810 -16.757288
v 15.551398 8.324505 -16.905802
v 14.682402 8.371407 -16.834344
v 15.027068 8.521653 -16.626424
v 15.003988 8.438310 -16.768922
v 14.929164 8.357793 -16.902142
v 14.552820 8.554153 -16.457552
v 14.480642 8.470810 -16.582567
v 14.352099 8.390999 -16.673467
v 14.150701 8.404341 -16.524306
v 14.169448 8.586653 -16.131277
v 13.786506 8.435020 -16.080943
v 14.057581 8.503310 -16.222513
v 13.917528 8.422407 -16.278115
v 13.926925 8.619153 -15.690129
v 13.789950 8.535810 -15.735694
v 13.668982 8.449926 -15.826911
v 13.595181 8.464861 -15.556381
v 13.856863 8.651653 -15.191610
v 13.586276 8.494794 -14.996365
v 13.712634 8.568310 -15.185565
v 13.567248 8.479848 -15.276343
v 13.968394 8.684153 -14.700703
v 13.835712 8.600810 -14.643835
v 13.651846 8.509792 -14.722489
v 13.761438 8.524706 -14.464775
v 13.912445 8.539636 -14.228588
v 14.285474 8.567242 -13.870876
v 14.246981 8.716653 -14.281396
v 14.143141 8.633310 -14.181118
v 14.091767 8.553941 -14.028940
v 14.656310 8.749153 -13.988345
v 14.594847 8.665810 -13.857728
v 14.484302 8.579598 -13.751269
v 14.745102 8.594618 -13.644560
v 15.143026 8.781653 -13.859749
v 15.131951 8.698310 -13.715819
v 15.018104 8.609501 -13.583065
v 15.267366 8.622821 -13.567086
v 15.563234 8.638639 -13.596441
v 15.643686 8.814153 -13.912371
v 15.684443 8.730810 -13.773888
v 15.844280 8.654196 -13.675383
v 16.086583 8.668459 -13.789679
v 16.461864 8.693854 -14.082143
v 16.093029 8.846653 -14.139350
v 16.180306 8.763310 -14.024367
v 16.290104 8.681518 -13.926842
v 16.432485 8.879153 -14.511102
v 16.554905 8.795810 -14.434605
v 16.645775 8.709423 -14.309617
v 16.796761 8.726235 -14.586741
v 16.617805 8.911653 -14.979167
v 16.932494 8.760372 -15.210231
v 16.759411 8.828310 -14.951129
v 16.893382 8.743034 -14.886925
v 16.624834 8.944153 -15.482536
v 16.767168 8.860810 -15.506610
v 16.841060 8.792211 -15.798605
v 16.903680 8.779238 -15.562835
v 16.452655 8.976653 -15.955593
v 16.577163 8.893310 -16.028642
v 16.709144 8.809199 -16.088739
v 16.572111 8.822216 -16.291322
v 16.123712 9.009153 -16.336678
v 16.214165 8.925810 -16.449180
v 16.365911 8.838212 -16.509874
v 16.175390 8.851005 -16.655712
v 15.928961 8.865928 -16.789937
v 15.680881 9.041653 -16.576116
v 15.380267 8.896178 -16.927893
v 15.725489 8.958310 -16.713406
v 15.629819 8.882744 -16.889551
v 15.181886 9.074153 -16.642696
v 15.174834 8.990810 -16.786879
v 15.101901 8.911005 -16.926452
v 14.870328 8.923497 -16.889549
v 14.289115 8.957527 -16.631655
v 14.691769 9.106653 -16.527740
v 14.633977 9.023310 -16.660022
v 14.585005 8.939491 -16.796025
v 14.274417 9.139153 -16.246232
v 13.824639 8.993564 -16.144797
v 14.173417 9.055810 -16.349370
v 14.032278 8.975545 -16.411697
v 13.984231 9.171653 -15.834867
v 13.596174 9.027070 -15.561756
v 13.853189 9.088310 -15.895418
v 13.679351 9.010865 -15.854597
v 13.859036 9.204153 -15.347266
v 13.715032 9.120810 -15.357335
v 13.582597 9.055933 -15.021781
v 13.567265 9.042125 -15.280876
v 13.732893 9.083850 -14.521477
v 13.915152 9.236653 -14.846986
v 13.776957 9.153310 -14.805262
v 13.631262 9.068580 -14.789337
v 14.145263 9.269153 -14.399238
v 14.030891 9.185810 -14.311160
v 13.875708 9.098840 -14.278496
v 14.036727 9.112319 -14.083571
v 14.209438 9.124708 -13.927261
v 14.519375 9.301653 -14.062386
v 14.443735 9.218310 -13.939434
v 14.712173 9.155266 -13.655288
v 14.444560 9.139709 -13.772229
v 14.988723 9.334153 -13.880338
v 14.961673 9.250810 -13.738539
v 14.972582 9.169551 -13.590008
v 15.232667 9.183453 -13.567106
v 15.492128 9.366653 -13.876823
v 15.517195 9.283310 -13.734661
v 15.492704 9.197330 -13.584582
v 15.746932 9.211209 -13.642050
v 15.963972 9.399153 -14.052300
v 16.433107 9.254152 -14.053039
v 16.037888 9.315810 -13.928305
v 15.989406 9.225096 -13.738122
v 16.215988 9.239103 -13.871850
v 16.342751 9.431653 -14.383896
v 16.455881 9.348310 -14.294230
v 16.630876 9.270522 -14.287902
v 16.797775 9.288846 -14.588944
v 16.579091 9.464153 -14.828387
v 16.716689 9.380810 -14.784739
v 16.873592 9.301141 -14.806776
v 16.921799 9.314667 -15.056541
v 16.642186 9.496653 -15.327835
v 16.902878 9.341947 -15.566723
v 16.786317 9.413310 -15.335893
v 16.931375 9.328938 -15.324272
v 16.523812 9.529153 -15.817137
v 16.655687 9.445810 -15.875852
v 16.605083 9.381826 -16.248041
v 16.840277 9.354839 -15.800933
v 16.735143 9.368842 -16.041699
v 16.239397 9.561653 -16.232514
v 16.123270 9.416784 -16.688649
v 16.341828 9.478310 -16.334232
v 16.407296 9.397737 -16.471951
v 15.826016 9.594153 -16.519821
v 15.885650 9.510810 -16.651283
v 15.796814 9.436000 -16.841643
v 15.337553 9.626653 -16.641609
v 15.083623 9.474490 -16.924694
v 15.346617 9.543310 -16.785679
v 15.443967 9.455284 -16.921754
v 14.837676 9.659153 -16.582002
v 14.438861 9.510650 -16.724560
v 14.794989 9.575810 -16.719902
v 14.737840 9.493321 -16.853159
v 14.391546 9.691653 -16.348771
v 13.996961 9.540826 -16.373470
v 14.302672 9.608310 -16.462525
v 14.191964 9.526503 -16.558837
v 14.057314 9.724153 -15.972316
v 13.710321 9.569063 -15.929564
v 13.933838 9.640810 -16.047096
v 13.849324 9.553645 -16.183056
v 13.878547 9.756653 -15.501709
v 13.736563 9.673310 -15.527768
v 13.568797 9.610373 -15.172721
v 13.617442 9.584279 -15.658899
v 13.574425 9.597836 -15.408246
v 13.878547 9.789153 -14.998291
v 13.695759 9.641503 -14.604479
v 13.736563 9.705810 -14.972232
v 13.606133 9.625602 -14.889107
v 14.057314 9.821653 -14.527684
v 13.984050 9.670652 -14.141061
v 13.933838 9.738310 -14.452904
v 13.823050 9.656283 -14.357619
v 14.391546 9.854153 -14.151229
v 14.403052 9.699656 -13.795651
v 14.302672 9.770810 -14.037475
v 14.177460 9.685017 -13.953011
v 14.837676 9.886653 -13.917998
v 14.888136 9.727471 -13.606381
v 14.794989 9.803310 -13.780098
v 15.136356 9.740808 -13.570831
v 14.666695 9.715185 -13.671289
v 15.337553 9.919153 -13.858391
v 15.346617 9.835810 -13.714321
v 15.408216 9.755303 -13.574447
v 15.656642 9.768704 -13.616907
v 15.826016 9.951653 -13.980179
v 15.885650 9.868310 -13.848717
v 15.898133 9.782251 -13.696785
v 16.239397 9.984153 -14.267486
v 16.341828 9.900810 -14.165768
v 16.498321 9.821680 -14.121211
v 16.651655 9.834982 -14.318511
v 16.523812 10.016653 -14.682863
v 16.655687 9.933310 -14.624148
v 16.767575 9.847459 -14.522355
v 16.858705 9.860809 -14.755639
v 16.642186 10.049153 -15.172165
v 16.786317 9.965810 -15.164107
v 16.912602 9.873559 -14.988994
v 16.932678 9.889159 -15.281191
v 16.893975 9.906805 -15.610098
v 16.579091 10.081653 -15.671613
v 16.716689 9.998310 -15.715261
v 16.792040 9.924395 -15.924109
v 16.342751 10.114153 -16.116104
v 16.455881 10.030810 -16.205770
v 16.630261 9.942034 -16.212954
v 16.416403 9.959573 -16.463193
v 15.963972 10.146653 -16.447700
v 16.037888 10.063310 -16.571695
v 16.160457 9.976962 -16.665472
v 15.892702 9.993057 -16.805405
v 15.492128 10.179153 -16.623177
v 15.517195 10.095810 -16.765339
v 15.629489 10.007768 -16.889649
v 15.380794 10.021184 -16.927895
v 14.988723 10.211653 -16.619662
v 14.961673 10.128310 -16.761461
v 15.082635 10.037042 -16.924627
v 14.794368 10.052689 -16.870157
v 14.547116 10.066706 -16.779152
v 14.519375 10.244153 -16.437614
v 14.443735 10.160810 -16.560566
v 14.341542 10.079175 -16.666778
v 14.113686 10.094498 -16.491437
v 14.145263 10.276653 -16.100762
v 13.766177 10.124764 -16.044174
v 14.030891 10.193310 -16.188840
v 13.914872 10.110148 -16.274682
v 13.915152 10.309153 -15.653014
v 13.776957 10.225810 -15.694738
v 13.660757 10.138727 -15.803904
v 13.595609 10.152232 -15.558768
v 13.859036 10.341653 -15.152734
v 13.715032 10.258310 -15.142665
v 13.568008 10.165712 -15.307098
v 13.577893 10.178961 -15.058598
v 13.842644 10.220674 -14.327212
v 13.968642 10.794361 -14.159038
v 14.376283 10.822994 -13.811628
v 14.158685 10.808657 -13.968950
v 14.615055 10.837184 -13.691516
v 14.870580 10.851451 -13.610485
v 15.136131 10.865819 -13.570881
v 15.405726 10.880148 -13.574308
v 15.589821 10.890012 -13.601800
v 14.184337 10.398133 -14.350720
v 14.073991 10.314772 -14.257602
v 14.091086 10.241344 -14.029684
v 14.444782 10.420883 -14.111922
v 14.361404 10.337522 -13.994077
v 14.400425 10.261942 -13.797336
v 14.756661 10.443633 -13.945792
v 14.705577 10.360272 -13.810745
v 14.749038 10.282313 -13.643269
v 15.100402 10.466383 -13.863908
v 15.084912 10.383022 -13.720383
v 15.090917 10.300818 -13.574670
v 15.413166 10.318074 -13.574967
v 15.453698 10.489133 -13.870562
v 15.474790 10.405772 -13.727726
v 15.728059 10.335108 -13.636414
v 15.793837 10.511883 -13.966310
v 15.850150 10.428522 -13.833388
v 16.026223 10.352237 -13.756860
v 16.099241 10.534633 -14.144047
v 16.187177 10.451272 -14.029529
v 16.288096 10.368891 -13.925226
v 16.483937 10.383034 -14.105578
v 16.349793 10.557383 -14.393217
v 16.463674 10.474022 -14.304500
v 16.655975 10.397840 -14.325155
v 16.530100 10.580133 -14.697112
v 16.662651 10.496772 -14.639862
v 16.793392 10.413301 -14.578916
v 16.884988 10.428574 -14.851447
v 16.627727 10.602883 -15.036717
v 16.770386 10.519522 -15.014632
v 16.928926 10.443828 -15.135047
v 16.637356 10.625633 -15.389944
v 16.781013 10.542272 -15.404435
v 16.925109 10.458666 -15.412749
v 16.881092 10.472230 -15.664314
v 16.557378 10.648383 -15.734133
v 16.692753 10.565022 -15.784263
v 16.807485 10.484694 -15.887361
v 16.666928 10.500998 -16.158111
v 16.393895 10.671133 -16.047399
v 16.512342 10.587772 -16.129967
v 16.452662 10.519290 -16.427174
v 16.156530 10.693883 -16.309162
v 16.250398 10.610522 -16.418835
v 16.188296 10.537647 -16.647071
v 15.861263 10.716633 -16.503275
v 15.924558 10.633272 -16.633048
v 15.885180 10.555967 -16.808516
v 15.526516 10.739383 -16.616441
v 15.555148 10.656022 -16.757932
v 15.555664 10.574198 -16.904861
v 15.213325 10.592577 -16.932580
v 15.174107 10.762133 -16.642330
v 15.166248 10.678772 -16.786501
v 14.871944 10.610845 -16.889874
v 14.826600 10.784883 -16.578290
v 14.782758 10.701522 -16.715830
v 14.545477 10.629260 -16.778319
v 14.506136 10.807633 -16.429410
v 14.429111 10.724272 -16.551534
v 14.254138 10.647322 -16.606773
v 14.233717 10.830383 -16.204353
v 14.128484 10.747022 -16.303174
v 14.027288 10.663384 -16.406291
v 13.859657 10.677629 -16.198295
v 14.026210 10.853133 -15.918341
v 13.899490 10.769772 -15.987545
v 13.729852 10.691552 -15.972150
v 13.757724 10.792522 -15.624280
v 13.636528 10.705367 -15.728275
v 13.579103 10.720449 -15.451116
v 13.711272 10.815272 -15.237109
v 13.571845 10.738010 -15.122612
v 13.690574 10.765712 -14.617233
v 13.764205 10.838022 -14.850771
v 13.609705 10.751354 -14.874026
v 13.912037 10.860772 -14.489931
v 13.811304 10.780106 -14.376744
v 14.146284 10.883522 -14.178182
v 13.886397 10.128557 -14.537125
v 14.014320 10.045217 -14.604002
v 14.207699 10.159432 -14.118093
v 14.305480 10.076092 -14.224280
v 14.651749 10.190307 -13.832361
v 14.707872 10.106967 -13.965353
v 15.166252 10.221182 -13.713579
v 15.174109 10.137842 -13.857714
v 15.690619 10.252057 -13.775734
v 15.649283 10.168717 -13.914039
v 16.163095 10.282932 -14.011508
v 16.077435 10.199592 -14.127694
v 16.528040 10.313807 -14.393134
v 16.408144 10.230467 -14.473519
v 16.742475 10.344682 -14.875670
v 16.602462 10.261342 -14.910787
v 16.781147 10.375557 -15.402289
v 16.637507 10.292217 -15.388002
v 16.639503 10.406432 -15.910974
v 16.509150 10.323092 -15.848966
v 16.334222 10.437307 -16.341818
v 16.232509 10.353967 -16.239392
v 15.901257 10.468182 -16.644083
v 15.840161 10.384842 -16.513301
v 15.391596 10.499057 -16.782173
v 15.378313 10.415717 -16.638436
v 14.865260 10.529932 -16.739825
v 14.901353 10.446592 -16.600061
v 14.384233 10.560807 -16.522027
v 14.465453 10.477467 -16.402695
v 14.005164 10.591682 -16.154426
v 14.121945 10.508342 -16.069580
v 13.772694 10.622557 -15.680316
v 13.911284 10.539217 -15.639947
v 13.714201 10.653432 -15.155528
v 13.858278 10.570092 -15.164391
v 13.836572 10.684307 -14.641867
v 13.969169 10.600967 -14.698917
v 14.125397 10.715182 -14.199822
v 14.230899 10.631842 -14.298342
v 14.546662 10.746057 -13.881453
v 14.612644 10.662717 -14.009840
v 15.050757 10.776932 -13.724252
v 15.069448 10.693592 -13.867386
v 15.578315 10.807807 -13.746732
v 15.547515 10.724467 -13.887758
v 16.067209 10.838682 -13.946246
v 15.990545 10.755342 -14.068555
v 16.459864 10.869557 -14.299298
v 16.346363 10.786217 -14.388486
v 16.573068 10.817092 -14.809874
v 16.643960 10.847967 -15.283094
v 16.550691 10.878842 -15.752417
v 16.657823 8.207971 -16.045482
v 16.525774 8.215958 -16.230520
v 16.296515 8.227400 -16.457111
v 16.026822 8.238872 -16.632890
v 15.728625 8.250401 -16.750098
v 15.412726 8.261995 -16.804511
v 15.093465 8.273659 -16.793424
v 14.782905 8.285438 -16.716995
v 14.494896 8.297261 -16.578084
v 14.242103 8.309229 -16.382125
v 14.035926 8.321258 -16.137281
v 13.886232 8.333423 -15.854113
v 13.800766 8.345615 -15.547251
v 13.783031 8.357891 -15.229066
v 13.834098 8.370241 -14.915964
v 14.130492 8.395187 -14.360575
v 13.951915 8.382674 -14.621262
v 14.935642 8.433314 -13.894283
v 14.480638 8.304195 -16.582574
v 13.789942 8.369195 -15.735697
v 13.712626 8.401695 -15.185565
v 13.835705 8.434195 -14.643832
v 14.143135 8.466695 -14.181113
v 14.361933 8.407786 -14.145536
v 14.634533 8.420480 -13.987511
v 14.594843 8.499195 -13.857721
v 15.131951 8.531695 -13.715812
v 15.684445 8.564195 -13.773881
v 16.180311 8.596695 -14.024361
v 16.093037 8.513354 -14.139340
v 16.554911 8.629195 -14.434601
v 16.432495 8.545854 -14.511095
v 16.759419 8.661695 -14.951127
v 16.617817 8.578354 -14.979165
v 16.767175 8.694195 -15.506611
v 16.624846 8.610854 -15.482538
v 16.577170 8.726695 -16.028646
v 16.452666 8.643354 -15.955600
v 16.214170 8.759195 -16.449186
v 16.123719 8.675854 -16.336688
v 15.725492 8.791695 -16.713413
v 15.680885 8.708354 -16.576127
v 15.174834 8.824195 -16.786886
v 15.181885 8.740854 -16.642708
v 14.633974 8.856695 -16.660029
v 14.691764 8.773354 -16.527751
v 14.173412 8.889195 -16.349376
v 14.274408 8.805854 -16.246241
v 13.853182 8.921695 -15.895421
v 13.984220 8.838354 -15.834873
v 13.715025 8.954195 -15.357336
v 13.859024 8.870854 -15.347267
v 13.776950 8.986695 -14.805260
v 13.915140 8.903354 -14.846982
v 14.030885 9.019195 -14.311155
v 14.145253 8.935854 -14.399230
v 14.443731 9.051695 -13.939428
v 14.519368 8.968354 -14.062375
v 14.961672 9.084195 -13.738532
v 14.988721 9.000854 -13.880325
v 15.517197 9.116695 -13.734653
v 15.492130 9.033354 -13.876811
v 16.037892 9.149195 -13.928298
v 15.963979 9.065854 -14.052290
v 16.455887 9.181695 -14.294225
v 16.342761 9.098354 -14.383888
v 16.716697 9.214195 -14.784736
v 16.579103 9.130854 -14.828384
v 16.786324 9.246695 -15.335894
v 16.642199 9.163354 -15.327836
v 16.655694 9.279195 -15.875855
v 16.523823 9.195854 -15.817143
v 16.341833 9.311695 -16.334237
v 16.239406 9.228354 -16.232523
v 15.885653 9.344195 -16.651290
v 15.826022 9.260854 -16.519833
v 15.346617 9.376695 -16.785687
v 15.337553 9.293354 -16.641621
v 14.794987 9.409195 -16.719909
v 14.837673 9.325854 -16.582014
v 14.302667 9.441695 -16.462531
v 14.391538 9.358354 -16.348781
v 13.933831 9.474195 -16.047100
v 14.057303 9.390854 -15.972323
v 13.736556 9.506695 -15.527769
v 13.878535 9.423354 -15.501711
v 13.736556 9.539195 -14.972231
v 13.878535 9.455854 -14.998289
v 13.933831 9.571695 -14.452900
v 14.057303 9.488354 -14.527677
v 14.302667 9.604195 -14.037469
v 14.391538 9.520854 -14.151219
v 14.794987 9.636695 -13.780091
v 14.837673 9.553354 -13.917986
v 15.346617 9.669195 -13.714313
v 15.337553 9.585854 -13.858379
v 15.885653 9.701695 -13.848710
v 15.826022 9.618354 -13.980167
v 16.341833 9.734195 -14.165763
v 16.239406 9.650854 -14.267477
v 16.655694 9.766695 -14.624145
v 16.523823 9.683354 -14.682857
v 16.786324 9.799195 -15.164106
v 16.642199 9.715854 -15.172164
v 16.716697 9.831695 -15.715264
v 16.579103 9.748354 -15.671616
v 16.455887 9.864195 -16.205775
v 16.342761 9.780854 -16.116112
v 16.037892 9.896695 -16.571702
v 15.963979 9.813354 -16.447710
v 15.517197 9.929195 -16.765347
v 15.492130 9.845854 -16.623189
v 14.961672 9.961695 -16.761468
v 14.988721 9.878354 -16.619675
v 14.443731 9.994195 -16.560572
v 14.519368 9.910854 -16.437625
v 14.030885 10.026695 -16.188845
v 14.145253 9.943354 -16.100770
v 13.776950 10.059195 -15.694740
v 13.915140 9.975854 -15.653018
v 13.715025 10.091695 -15.142664
v 13.859024 10.008354 -15.152733
f 1 2 3
f 2 4 3
f 4 5 3
f 4 6 5
f 6 7 5
f 6 8 7
f 8 9 7
f 8 10 9
f 9 11 12
f 10 11 9
f 12 13 14
f 11 13 12
f 13 15 14
f 15 16 14
f 17 18 15
f 15 18 16
f 16 19 20
f 18 19 16
f 20 21 22
f 19 21 20
f 22 23 24
f 21 23 22
f 24 25 26
f 23 25 24
f 26 27 28
f 28 27 29
f 25 27 26
f 27 30 29
f 31 32 33
f 32 34 35
f 31 34 32
f 34 36 35
f 34 37 36
f 37 38 36
f 37 39 38
f 39 40 38
f 39 41 40
f 41 42 40
f 41 43 42
f 43 44 42
f 43 45 44
f 45 46 44
f 45 47 46
f 47 48 46
f 47 49 48
f 49 50 48
f 49 51 50
f 51 52 50
f 51 53 52
f 53 54 52
f 53 55 54
f 55 56 54
f 55 57 56
f 57 58 56
f 57 59 58
f 59 60 58
f 60 61 58
f 60 62 61
f 62 63 61
f 62 64 63
f 64 65 63
f 64 66 65
f 66 67 65
f 66 68 67
f 68 69 67
f 68 70 69
f 70 71 69
f 70 72 71
f 72 73 71
f 72 74 73
f 74 75 73
f 74 76 75
f 76 77 75
f 76 78 77
f 78 79 77
f 80 81 82
f 80 83 81
f 83 84 81
f 83 85 84
f 85 86 84
f 86 87 84
f 86 88 87
f 88 89 87
f 88 90 89
f 90 91 89
f 90 92 91
f 92 93 91
f 92 94 93
f 94 95 93
f 94 96 95
f 96 97 95
f 96 98 97
f 98 99 97
f 98 100 99
f 100 101 99
f 100 102 101
f 102 103 101
f 102 104 103
f 104 105 103
f 104 106 105
f 106 107 105
f 106 108 107
f 108 109 107
f 108 110 109
f 110 111 109
f 110 112 111
f 112 113 111
f 112 114 113
f 114 115 113
f 114 116 115
f 116 117 115
f 116 118 117
f 118 119 117
f 118 120 119
f 120 121 119
f 120 122 121
f 122 123 121
f 122 124 123
f 124 125 123
f 124 126 125
f 126 127 125
f 126 128 127
f 128 129 127
f 128 130 129
f 130 131 129
f 130 132 131
f 132 133 131
f 132 134 133
f 134 33 133
f 134 31 33
f 135 136 137
f 136 138 139
f 135 138 136
f 139 140 141
f 138 140 139
f 141 142 143
f 140 142 141
f 143 144 145
f 142 144 143
f 145 146 147
f 144 146 145
f 147 148 149
f 146 148 147
f 149 150 151
f 148 150 149
f 151 152 153
f 150 152 151
f 153 154 155
f 152 154 153
f 154 156 155
f 155 156 157
f 156 158 157
f 157 158 159
f 158 160 159
f 159 160 161
f 160 162 161
f 161 162 163
f 163 164 165
f 162 164 163
f 165 166 167
f 164 166 165
f 167 168 169
f 166 168 167
f 169 170 171
f 168 170 169
f 171 172 173
f 170 172 171
f 173 174 175
f 172 174 173
f 175 176 177
f 174 176 175
f 177 178 179
f 176 178 177
f 179 180 181
f 178 180 179
f 181 182 183
f 180 182 181
f 183 184 185
f 182 184 183
f 185 186 187
f 184 186 185
f 186 188 187
f 188 82 187
f 188 80 82
f 7 189 5
f 189 3 5
f 189 190 3
f 190 1 3
f 190 191 1
f 191 192 1
f 192 193 194
f 191 193 192
f 194 195 196
f 193 195 194
f 196 197 198
f 195 197 196
f 198 199 200
f 197 199 198
f 200 201 202
f 199 201 200
f 202 203 204
f 201 203 202
f 203 205 204
f 205 206 204
f 205 207 206
f 208 209 210
f 210 209 211
f 212 213 208
f 208 213 209
f 211 214 215
f 209 214 211
f 216 217 212
f 212 217 213
f 215 218 219
f 214 218 215
f 220 221 216
f 216 221 217
f 219 30 222
f 218 30 219
f 223 224 220
f 220 224 221
f 222 27 225
f 30 27 222
f 226 227 223
f 223 227 224
f 225 25 228
f 27 25 225
f 229 230 226
f 226 230 227
f 25 23 228
f 23 231 228
f 229 232 230
f 229 233 232
f 23 21 231
f 21 234 231
f 21 19 234
f 233 235 232
f 232 235 236
f 19 237 234
f 19 18 237
f 235 238 236
f 236 238 239
f 17 240 18
f 240 241 18
f 18 241 237
f 238 242 239
f 239 242 243
f 244 245 240
f 240 245 241
f 243 246 247
f 242 246 243
f 248 249 244
f 244 249 245
f 247 250 251
f 246 250 247
f 252 253 248
f 254 253 252
f 248 253 249
f 250 255 251
f 251 255 256
f 254 257 253
f 256 258 254
f 254 258 257
f 255 258 256
f 216 259 220
f 260 261 259
f 260 259 216
f 262 212 208
f 262 263 212
f 264 262 208
f 265 266 219
f 265 219 222
f 267 265 222
f 268 234 237
f 268 269 234
f 270 268 237
f 271 253 257
f 271 272 253
f 273 271 257
f 274 275 246
f 274 246 242
f 276 274 242
f 277 278 229
f 277 229 226
f 279 277 226
f 259 280 223
f 259 223 220
f 261 280 259
f 281 282 260
f 281 263 282
f 281 216 212
f 281 260 216
f 281 212 263
f 283 264 208
f 283 210 284
f 283 285 264
f 283 284 285
f 283 208 210
f 286 284 210
f 286 287 288
f 286 215 287
f 286 288 284
f 286 210 211
f 286 211 215
f 289 290 287
f 289 266 290
f 289 287 215
f 289 219 266
f 289 215 219
f 291 292 267
f 291 293 292
f 291 267 222
f 291 222 225
f 291 225 293
f 294 295 296
f 294 296 293
f 294 225 228
f 294 228 231
f 294 293 225
f 294 231 295
f 297 298 295
f 297 269 298
f 297 231 234
f 297 295 231
f 297 234 269
f 299 300 270
f 299 301 300
f 299 237 241
f 299 241 301
f 299 270 237
f 302 303 301
f 302 241 245
f 302 245 249
f 302 301 241
f 302 249 304
f 302 304 303
f 305 249 253
f 305 304 249
f 305 253 272
f 305 306 304
f 305 272 306
f 307 257 258
f 307 308 273
f 307 309 308
f 307 273 257
f 307 258 309
f 310 258 255
f 310 255 250
f 310 311 312
f 310 312 309
f 310 309 258
f 310 250 311
f 313 246 275
f 313 250 246
f 313 314 311
f 313 275 314
f 313 311 250
f 315 276 242
f 315 238 316
f 315 242 238
f 315 317 276
f 315 316 317
f 318 316 238
f 318 233 319
f 318 238 235
f 318 235 233
f 318 319 320
f 318 320 316
f 321 319 233
f 321 229 278
f 321 233 229
f 321 322 319
f 321 278 322
f 323 279 226
f 323 223 280
f 323 226 223
f 323 324 279
f 323 280 324
f 325 261 260
f 325 326 261
f 327 260 282
f 327 325 260
f 328 282 263
f 328 327 282
f 329 263 262
f 329 328 263
f 330 262 264
f 330 329 262
f 331 264 285
f 331 330 264
f 332 285 284
f 332 284 288
f 332 331 285
f 333 332 288
f 334 320 319
f 334 335 320
f 336 319 322
f 336 334 319
f 337 322 278
f 337 336 322
f 338 278 277
f 338 337 278
f 339 277 279
f 339 338 277
f 340 279 324
f 340 339 279
f 341 324 280
f 341 280 261
f 341 340 324
f 326 341 261
f 342 312 311
f 342 343 312
f 344 311 314
f 344 342 311
f 345 314 275
f 345 344 314
f 346 275 274
f 346 345 275
f 347 274 276
f 347 346 274
f 348 276 317
f 348 347 276
f 349 317 316
f 349 316 320
f 349 348 317
f 335 349 320
f 350 303 304
f 350 351 303
f 352 304 306
f 352 350 304
f 353 306 272
f 353 352 306
f 354 272 271
f 354 353 272
f 355 271 273
f 355 354 271
f 356 273 308
f 356 355 273
f 357 308 309
f 357 309 312
f 357 356 308
f 343 357 312
f 358 296 295
f 358 359 296
f 360 295 298
f 360 358 295
f 361 298 269
f 361 360 298
f 362 269 268
f 362 361 269
f 363 268 270
f 363 362 268
f 364 270 300
f 364 363 270
f 365 300 301
f 365 301 303
f 365 364 300
f 351 365 303
f 366 288 287
f 366 333 288
f 367 287 290
f 367 366 287
f 368 290 266
f 368 367 290
f 369 266 265
f 369 368 266
f 370 265 267
f 370 369 265
f 371 267 292
f 371 370 267
f 372 292 293
f 372 293 296
f 372 371 292
f 359 372 296
f 364 365 373
f 374 364 373
f 363 364 374
f 362 363 374
f 375 362 374
f 361 362 375
f 376 361 375
f 360 361 376
f 377 360 376
f 358 360 377
f 371 372 378
f 371 378 379
f 370 371 379
f 380 370 379
f 369 370 380
f 368 369 380
f 381 368 380
f 367 368 381
f 382 367 381
f 366 367 382
f 383 332 384
f 331 332 383
f 330 331 383
f 385 330 383
f 329 330 385
f 386 329 385
f 328 329 386
f 327 386 387
f 327 328 386
f 325 327 387
f 388 340 389
f 339 340 388
f 338 339 388
f 390 338 388
f 337 338 390
f 391 337 390
f 336 337 391
f 392 336 391
f 348 393 394
f 348 349 393
f 347 348 394
f 395 347 394
f 346 347 395
f 345 346 395
f 396 345 395
f 344 345 396
f 397 344 396
f 342 344 397
f 355 356 398
f 399 355 398
f 354 355 399
f 400 354 399
f 353 354 400
f 352 353 400
f 352 400 401
f 350 352 401
f 402 365 351
f 402 351 403
f 402 403 404
f 402 404 373
f 402 373 365
f 405 358 377
f 405 359 358
f 406 359 405
f 406 372 359
f 406 378 372
f 406 405 377
f 406 377 378
f 407 333 366
f 407 366 382
f 408 382 384
f 408 407 382
f 408 333 407
f 409 332 333
f 409 384 332
f 409 408 384
f 409 333 408
f 410 326 325
f 410 387 411
f 410 325 387
f 412 410 411
f 412 326 410
f 412 411 389
f 412 341 326
f 413 341 412
f 413 412 389
f 413 389 340
f 413 340 341
f 414 335 334
f 414 334 336
f 414 336 392
f 415 335 414
f 415 392 393
f 415 414 392
f 416 415 393
f 416 335 415
f 416 349 335
f 416 393 349
f 417 342 397
f 417 397 418
f 417 343 342
f 419 343 417
f 419 357 343
f 419 417 418
f 420 419 418
f 420 357 419
f 420 398 356
f 420 418 398
f 420 356 357
f 421 350 401
f 421 401 404
f 421 403 351
f 421 404 403
f 421 351 350
f 422 395 394
f 423 394 393
f 423 422 394
f 424 393 392
f 424 423 393
f 425 392 391
f 425 424 392
f 426 391 390
f 426 425 391
f 427 390 388
f 427 426 390
f 428 388 389
f 428 427 388
f 429 428 389
f 429 389 411
f 430 429 411
f 430 411 387
f 431 430 387
f 431 387 386
f 432 431 386
f 432 386 385
f 433 432 385
f 433 385 383
f 434 433 383
f 434 383 384
f 435 434 384
f 435 384 382
f 436 435 382
f 436 382 381
f 437 436 381
f 437 381 380
f 438 437 380
f 438 380 379
f 439 438 379
f 439 379 378
f 440 439 378
f 440 378 377
f 441 440 377
f 441 377 376
f 442 376 375
f 442 441 376
f 443 375 374
f 443 442 375
f 444 374 373
f 444 443 374
f 445 373 404
f 445 444 373
f 446 404 401
f 446 445 404
f 447 401 400
f 447 446 401
f 448 400 399
f 448 447 400
f 449 399 398
f 449 448 399
f 450 398 418
f 450 449 398
f 451 418 397
f 451 450 418
f 452 397 396
f 452 451 397
f 453 396 395
f 453 452 396
f 454 453 395
f 455 454 395
f 422 455 395
f 456 453 454
f 456 454 455
f 456 455 422
f 457 456 422
f 456 452 453
f 457 452 456
f 458 459 460
f 461 422 423
f 462 422 461
f 462 457 422
f 463 464 457
f 463 457 462
f 465 466 464
f 465 464 463
f 467 468 466
f 467 466 465
f 469 470 458
f 469 458 460
f 469 460 468
f 469 468 467
f 471 461 423
f 471 423 424
f 472 461 471
f 472 462 461
f 473 462 472
f 473 463 462
f 474 463 473
f 474 465 463
f 475 465 474
f 475 467 465
f 476 477 470
f 476 470 469
f 476 469 467
f 476 475 477
f 476 467 475
f 478 424 425
f 478 471 424
f 479 471 478
f 479 472 471
f 480 473 472
f 480 472 479
f 481 474 473
f 481 473 480
f 482 481 483
f 482 477 475
f 482 474 481
f 482 475 474
f 484 483 477
f 484 477 482
f 484 482 483
f 485 478 425
f 485 425 426
f 486 478 485
f 486 479 478
f 487 479 486
f 487 480 479
f 488 487 489
f 488 483 481
f 488 480 487
f 488 481 480
f 490 488 489
f 490 483 488
f 491 489 483
f 491 483 490
f 491 490 489
f 492 426 427
f 492 485 426
f 493 486 485
f 493 485 492
f 494 486 493
f 494 489 487
f 494 487 486
f 495 494 496
f 495 489 494
f 497 489 495
f 497 495 496
f 498 496 489
f 498 497 496
f 498 489 497
f 499 427 428
f 499 492 427
f 500 492 499
f 500 493 492
f 501 496 494
f 501 494 493
f 501 493 500
f 502 501 503
f 502 496 501
f 504 502 503
f 504 496 502
f 505 503 496
f 505 504 503
f 505 496 504
f 506 499 428
f 506 428 429
f 507 499 506
f 507 500 499
f 508 507 509
f 508 503 501
f 508 501 500
f 508 500 507
f 510 508 509
f 510 503 508
f 511 510 509
f 511 503 510
f 512 509 503
f 512 511 509
f 512 503 511
f 513 429 430
f 513 506 429
f 514 507 506
f 514 506 513
f 514 509 507
f 515 514 516
f 515 509 514
f 517 515 516
f 517 509 515
f 518 517 516
f 518 509 517
f 519 516 509
f 519 518 516
f 519 509 518
f 520 430 431
f 520 513 430
f 521 516 514
f 521 514 513
f 521 513 520
f 522 516 521
f 523 516 522
f 524 431 432
f 524 520 431
f 525 516 523
f 526 522 521
f 526 520 524
f 526 521 520
f 527 528 516
f 527 516 525
f 529 523 522
f 529 522 526
f 530 523 529
f 531 523 530
f 531 525 523
f 532 528 527
f 532 527 525
f 532 525 531
f 533 524 432
f 534 524 533
f 534 526 524
f 535 529 526
f 535 526 534
f 536 531 530
f 536 530 529
f 536 529 535
f 537 533 432
f 537 432 433
f 538 531 536
f 539 534 533
f 539 533 537
f 539 535 534
f 540 541 528
f 540 532 531
f 540 528 532
f 540 531 538
f 542 535 539
f 543 536 535
f 543 535 542
f 544 536 543
f 544 538 536
f 545 541 540
f 545 540 538
f 545 538 544
f 546 537 433
f 546 539 537
f 547 539 546
f 548 542 539
f 548 543 542
f 548 539 547
f 549 544 543
f 549 543 548
f 550 545 544
f 550 544 549
f 551 433 434
f 551 546 433
f 552 553 541
f 552 541 545
f 552 545 550
f 554 547 546
f 554 546 551
f 555 548 547
f 555 547 554
f 556 549 548
f 556 548 555
f 557 549 556
f 557 550 549
f 558 553 552
f 558 552 550
f 558 550 557
f 559 551 434
f 560 551 559
f 560 554 551
f 560 555 554
f 561 555 560
f 562 555 561
f 562 556 555
f 563 556 562
f 563 557 556
f 564 559 434
f 564 434 435
f 565 558 557
f 565 557 563
f 565 566 553
f 565 553 558
f 567 559 564
f 567 560 559
f 568 560 567
f 568 562 561
f 568 561 560
f 569 562 568
f 570 562 569
f 570 563 562
f 571 565 563
f 571 566 565
f 571 563 570
f 572 564 435
f 573 568 567
f 573 564 572
f 573 567 564
f 574 568 573
f 575 569 568
f 575 568 574
f 576 570 569
f 576 571 570
f 576 569 575
f 577 572 435
f 577 435 436
f 578 579 566
f 578 571 576
f 578 566 571
f 580 573 572
f 580 572 577
f 581 573 580
f 581 574 573
f 582 576 575
f 582 575 574
f 582 574 581
f 583 576 582
f 584 579 578
f 584 578 576
f 584 576 583
f 585 577 436
f 586 580 577
f 586 581 580
f 586 577 585
f 587 581 586
f 588 582 581
f 588 581 587
f 589 583 582
f 589 582 588
f 590 591 579
f 590 579 584
f 590 584 583
f 590 583 589
f 592 436 437
f 592 585 436
f 593 585 592
f 593 586 585
f 593 587 586
f 594 588 587
f 594 587 593
f 595 589 588
f 595 588 594
f 596 589 595
f 596 590 589
f 597 590 596
f 597 591 590
f 598 592 437
f 599 592 598
f 599 593 592
f 600 593 599
f 600 594 593
f 601 595 594
f 601 594 600
f 602 595 601
f 602 596 595
f 603 597 596
f 603 591 597
f 603 604 591
f 603 596 602
f 605 437 438
f 605 598 437
f 606 599 598
f 606 598 605
f 607 599 606
f 607 600 599
f 608 600 607
f 608 601 600
f 609 601 608
f 609 602 601
f 610 604 603
f 610 603 602
f 610 602 609
f 611 605 438
f 612 606 605
f 612 605 611
f 612 607 606
f 613 607 612
f 614 608 607
f 614 609 608
f 614 607 613
f 615 610 609
f 615 609 614
f 616 617 604
f 616 604 610
f 616 610 615
f 618 611 438
f 618 438 439
f 619 612 611
f 619 611 618
f 620 612 619
f 620 613 612
f 621 614 613
f 621 613 620
f 622 615 614
f 622 614 621
f 623 617 616
f 623 616 615
f 623 615 622
f 624 618 439
f 625 620 619
f 625 619 618
f 625 618 624
f 626 620 625
f 627 621 620
f 627 620 626
f 628 622 621
f 628 621 627
f 629 630 617
f 629 617 623
f 629 623 622
f 629 622 628
f 631 439 440
f 631 624 439
f 632 624 631
f 632 625 624
f 633 625 632
f 633 626 625
f 634 626 633
f 634 627 626
f 635 627 634
f 635 628 627
f 636 628 635
f 636 630 629
f 636 629 628
f 637 631 440
f 638 631 637
f 638 632 631
f 639 633 632
f 639 632 638
f 640 634 633
f 640 635 634
f 640 633 639
f 641 635 640
f 642 636 635
f 642 630 636
f 642 643 630
f 642 635 641
f 644 637 440
f 644 638 637
f 644 440 441
f 645 639 638
f 645 638 644
f 646 639 645
f 647 640 639
f 647 639 646
f 648 641 640
f 648 642 641
f 648 640 647
f 649 644 441
f 650 643 642
f 650 642 648
f 651 645 644
f 651 646 645
f 651 644 649
f 652 646 651
f 653 647 646
f 653 648 647
f 653 646 652
f 654 648 653
f 655 656 643
f 655 643 650
f 655 650 648
f 655 648 654
f 657 649 441
f 657 651 649
f 657 441 442
f 658 651 657
f 659 652 651
f 659 651 658
f 660 653 652
f 660 652 659
f 661 653 660
f 661 654 653
f 661 655 654
f 662 657 442
f 663 656 655
f 663 655 661
f 664 658 657
f 664 657 662
f 665 659 658
f 665 658 664
f 666 661 660
f 666 660 659
f 666 659 665
f 667 661 666
f 668 661 667
f 668 669 656
f 668 656 663
f 668 663 661
f 670 442 443
f 670 662 442
f 670 664 662
f 671 664 670
f 672 664 671
f 672 665 664
f 673 665 672
f 673 666 665
f 674 670 443
f 675 667 666
f 675 666 673
f 676 672 671
f 676 670 674
f 676 671 670
f 677 669 668
f 677 667 675
f 677 668 667
f 678 672 676
f 679 673 672
f 679 672 678
f 680 675 673
f 680 673 679
f 681 669 677
f 681 682 669
f 681 677 675
f 681 675 680
f 683 674 443
f 683 676 674
f 683 443 444
f 684 676 683
f 685 678 676
f 685 676 684
f 686 679 678
f 686 680 679
f 686 678 685
f 687 683 444
f 688 680 686
f 689 684 683
f 689 685 684
f 689 683 687
f 690 680 688
f 690 682 681
f 690 681 680
f 691 685 689
f 692 686 685
f 692 685 691
f 693 688 686
f 693 686 692
f 694 695 682
f 694 688 693
f 694 690 688
f 694 682 690
f 696 687 444
f 696 689 687
f 696 444 445
f 697 689 696
f 698 691 689
f 698 692 691
f 698 689 697
f 699 692 698
f 700 696 445
f 700 697 696
f 701 693 692
f 701 694 693
f 701 692 699
f 702 697 700
f 703 694 701
f 703 695 694
f 704 698 697
f 704 697 702
f 705 699 698
f 705 701 699
f 705 698 704
f 706 701 705
f 706 703 701
f 707 703 706
f 707 708 695
f 707 695 703
f 709 445 446
f 709 700 445
f 709 702 700
f 710 702 709
f 710 709 446
f 711 702 710
f 711 710 446
f 711 704 702
f 712 705 704
f 712 706 705
f 712 711 446
f 712 704 711
f 713 707 706
f 713 712 446
f 713 706 712
f 714 708 707
f 714 707 713
f 715 446 447
f 716 446 715
f 716 715 447
f 717 446 716
f 717 716 447
f 718 713 446
f 718 717 447
f 718 446 717
f 719 708 714
f 719 720 708
f 719 714 713
f 719 713 718
f 721 447 448
f 722 721 448
f 722 447 721
f 723 722 448
f 723 447 722
f 724 718 447
f 724 447 723
f 725 718 724
f 725 726 720
f 725 720 719
f 725 719 718
f 727 448 449
f 728 727 449
f 728 448 727
f 729 723 448
f 729 728 449
f 729 448 728
f 730 724 723
f 730 723 729
f 731 725 724
f 731 732 726
f 731 726 725
f 731 724 730
f 733 449 450
f 734 733 450
f 734 449 733
f 735 734 450
f 735 729 449
f 735 449 734
f 736 730 729
f 736 729 735
f 737 738 732
f 737 732 731
f 737 731 730
f 737 730 736
f 739 450 451
f 740 450 739
f 740 739 451
f 741 450 740
f 741 740 451
f 742 735 450
f 742 450 741
f 743 736 735
f 743 737 736
f 743 735 742
f 744 745 738
f 744 737 743
f 744 738 737
f 746 451 452
f 747 746 452
f 747 451 746
f 747 452 457
f 747 457 464
f 748 747 464
f 748 741 451
f 748 451 747
f 749 742 741
f 749 743 742
f 749 741 748
f 749 748 464
f 749 464 466
f 750 743 749
f 750 749 466
f 750 466 468
f 751 744 743
f 751 743 750
f 751 750 468
f 751 459 745
f 751 460 459
f 751 468 460
f 751 745 744
f 752 483 489
f 753 489 496
f 753 752 489
f 754 477 483
f 754 483 752
f 755 496 503
f 755 753 496
f 756 470 477
f 756 477 754
f 757 503 509
f 757 755 503
f 758 458 470
f 758 470 756
f 759 757 509
f 516 759 509
f 760 459 458
f 760 458 758
f 761 759 516
f 528 761 516
f 762 459 760
f 745 459 762
f 763 761 528
f 541 763 528
f 764 745 762
f 738 745 764
f 765 763 541
f 553 765 541
f 766 738 764
f 732 738 766
f 767 765 553
f 566 767 553
f 768 732 766
f 726 732 768
f 769 767 566
f 579 769 566
f 770 726 768
f 771 769 579
f 720 726 770
f 591 771 579
f 772 720 770
f 773 771 591
f 708 720 772
f 604 773 591
f 774 708 772
f 775 773 604
f 695 708 774
f 617 775 604
f 776 775 617
f 682 774 777
f 682 695 774
f 630 778 776
f 630 776 617
f 669 777 779
f 669 682 777
f 643 780 778
f 643 778 630
f 656 779 780
f 656 669 779
f 656 780 643
f 759 761 781
f 781 761 782
f 782 763 783
f 761 763 782
f 783 765 784
f 763 765 783
f 784 767 785
f 765 767 784
f 785 769 786
f 767 769 785
f 786 771 787
f 769 771 786
f 787 773 788
f 771 773 787
f 788 775 789
f 773 775 788
f 789 776 790
f 775 776 789
f 776 778 790
f 790 778 791
f 778 780 791
f 791 780 792
f 780 779 792
f 792 779 793
f 779 777 793
f 793 777 794
f 794 777 795
f 777 774 795
f 774 772 795
f 795 772 796
f 772 770 796
f 796 770 797
f 770 768 797
f 797 768 798
f 768 766 798
f 798 766 799
f 766 764 799
f 799 764 800
f 800 764 801
f 764 762 801
f 801 762 802
f 762 760 802
f 760 758 802
f 802 758 803
f 758 756 803
f 803 756 804
f 804 754 805
f 756 754 804
f 805 752 806
f 754 752 805
f 806 753 807
f 752 753 806
f 807 755 808
f 753 755 807
f 808 757 809
f 755 757 808
f 809 759 781
f 757 759 809
f 810 784 785
f 811 785 786
f 811 810 785
f 812 783 784
f 812 784 810
f 813 786 787
f 813 811 786
f 814 782 783
f 814 783 812
f 815 787 788
f 815 813 787
f 816 781 782
f 816 809 781
f 816 782 814
f 817 788 789
f 817 815 788
f 818 808 809
f 818 809 816
f 819 789 790
f 819 817 789
f 820 808 818
f 807 808 820
f 821 819 790
f 821 790 791
f 822 807 820
f 792 821 791
f 823 821 792
f 806 807 822
f 824 806 822
f 793 823 792
f 793 825 823
f 805 806 824
f 805 824 826
f 794 825 793
f 794 827 825
f 804 805 826
f 804 826 828
f 795 829 827
f 795 827 794
f 803 804 828
f 803 828 830
f 796 829 795
f 796 831 829
f 802 803 830
f 802 830 832
f 797 833 831
f 797 831 796
f 801 832 834
f 801 802 832
f 798 835 833
f 798 833 797
f 800 801 834
f 799 834 835
f 799 835 798
f 799 800 834
f 829 831 836
f 836 831 837
f 837 833 838
f 831 833 837
f 838 835 839
f 833 835 838
f 839 834 840
f 835 834 839
f 840 832 841
f 834 832 840
f 841 830 842
f 832 830 841
f 842 828 843
f 830 828 842
f 843 826 844
f 828 826 843
f 844 824 845
f 826 824 844
f 846 822 847
f 845 822 846
f 824 822 845
f 822 820 847
f 820 818 847
f 848 818 849
f 847 818 848
f 818 816 849
f 816 814 849
f 849 814 850
f 814 812 850
f 850 812 851
f 812 810 851
f 851 810 852
f 810 811 852
f 853 811 854
f 852 811 853
f 811 813 854
f 813 815 854
f 854 815 855
f 815 817 855
f 855 817 856
f 856 819 857
f 817 819 856
f 857 821 858
f 819 821 857
f 858 823 859
f 821 823 858
f 859 825 860
f 823 825 859
f 860 827 861
f 825 827 860
f 861 829 836
f 827 829 861
f 862 839 863
f 863 840 864
f 839 840 863
f 865 838 862
f 862 838 839
f 864 841 866
f 840 841 864
f 867 837 865
f 865 837 838
f 841 842 866
f 842 74 866
f 868 836 867
f 869 836 868
f 867 836 837
f 842 843 74
f 843 76 74
f 870 861 869
f 869 861 836
f 843 844 76
f 844 78 76
f 871 860 870
f 870 860 861
f 871 872 860
f 844 845 78
f 845 79 78
f 872 859 860
f 872 873 859
f 845 846 79
f 846 874 79
f 873 858 859
f 873 875 858
f 846 876 874
f 846 847 876
f 847 877 876
f 875 878 858
f 858 878 857
f 847 848 877
f 878 879 857
f 857 880 856
f 879 880 857
f 848 881 877
f 848 849 881
f 849 882 881
f 856 883 855
f 880 883 856
f 850 884 849
f 849 884 882
f 855 885 854
f 883 885 855
f 851 886 850
f 850 886 884
f 852 887 851
f 851 887 886
f 854 888 853
f 885 888 854
f 852 889 887
f 853 889 852
f 888 890 853
f 853 890 889
f 207 891 206
f 891 892 893
f 207 892 891
f 893 894 895
f 892 894 893
f 895 896 897
f 894 896 895
f 897 898 899
f 896 898 897
f 899 900 901
f 898 900 899
f 901 902 903
f 900 902 901
f 903 904 905
f 902 904 903
f 905 906 907
f 904 906 905
f 907 908 909
f 906 908 907
f 908 910 909
f 909 910 911
f 910 912 911
f 911 912 913
f 912 914 913
f 913 914 915
f 914 916 915
f 915 916 917
f 917 918 919
f 916 918 917
f 919 920 921
f 918 920 919
f 921 922 923
f 920 922 921
f 923 924 925
f 922 924 923
f 925 926 927
f 924 926 925
f 927 928 929
f 926 928 927
f 929 930 931
f 928 930 929
f 931 932 933
f 930 932 931
f 933 934 935
f 932 934 933
f 935 936 937
f 934 936 935
f 937 938 939
f 936 938 937
f 939 940 941
f 938 940 939
f 940 942 941
f 942 137 941
f 942 135 137
f 15 13 240
f 13 943 240
f 10 944 11
f 6 945 946
f 101 947 948
f 36 949 35
f 36 950 949
f 943 951 944
f 13 951 943
f 944 951 11
f 11 951 13
f 944 952 946
f 946 952 6
f 10 952 944
f 6 952 8
f 8 952 10
f 2 953 4
f 4 953 6
f 945 954 955
f 2 954 953
f 953 954 6
f 6 954 945
f 955 954 2
f 956 957 192
f 192 957 1
f 1 957 2
f 955 958 959
f 959 958 956
f 2 958 955
f 957 958 2
f 956 958 957
f 960 961 196
f 196 961 194
f 194 961 192
f 956 962 963
f 963 962 960
f 961 962 192
f 960 962 961
f 192 962 956
f 196 964 960
f 198 964 196
f 960 965 966
f 966 965 967
f 967 965 964
f 964 965 960
f 198 968 964
f 964 968 967
f 202 968 200
f 200 968 198
f 969 968 202
f 967 970 971
f 971 970 969
f 969 970 968
f 968 970 967
f 204 972 202
f 969 973 974
f 974 973 975
f 972 973 202
f 975 973 972
f 202 973 969
f 893 976 891
f 891 976 206
f 206 976 204
f 972 976 975
f 204 976 972
f 977 978 893
f 975 978 979
f 979 978 977
f 976 978 975
f 893 978 976
f 895 980 893
f 893 981 977
f 977 981 982
f 982 981 983
f 983 981 984
f 984 981 980
f 980 981 893
f 985 986 899
f 895 986 980
f 980 986 984
f 899 986 897
f 897 986 895
f 984 987 988
f 988 987 985
f 986 987 984
f 985 987 986
f 899 989 985
f 901 989 899
f 985 990 991
f 991 990 992
f 989 990 985
f 992 990 989
f 905 993 903
f 903 993 901
f 989 993 992
f 901 993 989
f 905 994 993
f 992 994 995
f 995 994 996
f 996 994 997
f 993 994 992
f 907 998 905
f 997 999 1000
f 1000 999 1001
f 905 999 994
f 994 999 997
f 1001 999 998
f 998 999 905
f 1002 1003 911
f 998 1003 1001
f 907 1003 998
f 911 1003 909
f 909 1003 907
f 1001 1004 1005
f 1005 1004 1002
f 1003 1004 1001
f 1002 1004 1003
f 913 1006 911
f 1002 1007 1008
f 1009 1007 1006
f 1008 1007 1009
f 1006 1007 911
f 911 1007 1002
f 1006 1010 1009
f 913 1010 1006
f 1011 1010 917
f 917 1010 915
f 915 1010 913
f 1009 1012 1013
f 1013 1012 1011
f 1010 1012 1009
f 1011 1012 1010
f 919 1014 917
f 1014 1015 917
f 1016 1015 1014
f 1011 1015 1017
f 1017 1015 1016
f 917 1015 1011
f 919 1018 1014
f 1014 1018 1016
f 923 1018 921
f 921 1018 919
f 1016 1019 1020
f 1020 1019 1021
f 1018 1019 1016
f 923 1019 1018
f 1021 1019 923
f 925 1022 923
f 1021 1023 1024
f 1024 1023 1025
f 1025 1023 1026
f 923 1023 1021
f 1022 1023 923
f 929 1027 927
f 927 1027 925
f 925 1027 1022
f 1028 1029 929
f 1023 1029 1026
f 1022 1029 1023
f 929 1029 1027
f 1027 1029 1022
f 1026 1029 1030
f 1030 1029 1028
f 931 1031 929
f 929 1032 1028
f 1028 1032 1033
f 1033 1032 1034
f 1031 1032 929
f 1034 1032 1031
f 1035 1036 935
f 935 1036 933
f 933 1036 931
f 1031 1036 1034
f 931 1036 1031
f 1035 1037 1036
f 1036 1037 1034
f 1034 1037 1038
f 1038 1037 1035
f 935 1039 1035
f 937 1039 935
f 1040 1041 1039
f 1035 1041 1042
f 1042 1041 1040
f 1039 1041 1035
f 1039 1043 1040
f 941 1043 939
f 939 1043 937
f 937 1043 1039
f 1044 1045 941
f 1043 1045 1040
f 1040 1045 1046
f 1046 1045 1044
f 941 1045 1043
f 136 1047 137
f 137 1047 941
f 941 1048 1044
f 1049 1048 136
f 1044 1048 1050
f 1050 1048 1049
f 136 1048 1047
f 1047 1048 941
f 1051 1052 141
f 141 1052 139
f 139 1052 136
f 1052 1053 136
f 136 1053 1049
f 1049 1053 1054
f 1054 1053 1051
f 1051 1053 1052
f 143 1055 141
f 1055 1056 141
f 141 1056 1051
f 1051 1056 1057
f 1057 1056 1058
f 1058 1056 1059
f 143 1060 1055
f 147 1060 145
f 145 1060 143
f 1056 1061 1059
f 1055 1061 1056
f 1060 1061 1055
f 147 1061 1060
f 1062 1061 147
f 1059 1061 1063
f 1063 1061 1062
f 149 1064 147
f 147 1065 1062
f 1062 1065 1066
f 1066 1065 1067
f 1064 1065 147
f 1067 1065 1064
f 153 1068 151
f 151 1068 149
f 149 1068 1064
f 1064 1068 1067
f 153 1069 1068
f 1067 1069 1070
f 1070 1069 1071
f 1071 1069 153
f 1068 1069 1067
f 155 1072 153
f 1073 1074 1072
f 1072 1074 153
f 1071 1074 1075
f 1075 1074 1076
f 1076 1074 1073
f 153 1074 1071
f 1072 1077 1073
f 159 1077 157
f 157 1077 155
f 155 1077 1072
f 159 1078 1077
f 1077 1078 1073
f 1073 1078 1079
f 1079 1078 1080
f 161 1081 159
f 159 1082 1078
f 1081 1082 159
f 1080 1082 1083
f 1083 1082 1084
f 1078 1082 1080
f 1084 1082 1081
f 161 1085 1081
f 165 1085 163
f 163 1085 161
f 1081 1085 1084
f 1086 1087 165
f 165 1087 1085
f 1084 1087 1088
f 1088 1087 1086
f 1085 1087 1084
f 167 1089 165
f 165 1090 1086
f 1089 1090 165
f 1091 1090 1089
f 1086 1090 1092
f 1092 1090 1093
f 1093 1090 1091
f 171 1094 169
f 169 1094 167
f 1089 1094 1091
f 167 1094 1089
f 1095 1096 171
f 1094 1096 1091
f 171 1096 1094
f 1091 1096 1097
f 1097 1096 1095
f 173 1098 171
f 171 1099 1095
f 1098 1099 171
f 1095 1099 1100
f 173 1101 1098
f 1102 1101 177
f 177 1101 175
f 175 1101 173
f 1102 1103 1101
f 1101 1103 1098
f 1100 1103 1104
f 1104 1103 1102
f 1099 1103 1100
f 1098 1103 1099
f 179 1105 177
f 1106 1107 1105
f 177 1107 1102
f 1102 1107 1108
f 1108 1107 1106
f 1105 1107 177
f 1105 1109 1106
f 183 1109 181
f 181 1109 179
f 1110 1109 183
f 179 1109 1105
f 1110 1111 1109
f 1109 1111 1106
f 1106 1111 1112
f 1112 1111 1110
f 185 1113 183
f 1114 1115 1113
f 183 1115 1110
f 1113 1115 183
f 1110 1115 1116
f 1116 1115 1114
f 1113 1117 1114
f 82 1117 187
f 187 1117 185
f 185 1117 1113
f 1117 1118 1114
f 82 1118 1117
f 1119 1118 82
f 1114 1118 1120
f 1120 1118 1121
f 1121 1118 1119
f 84 1122 81
f 81 1122 82
f 1123 1124 1122
f 1122 1124 82
f 82 1124 1119
f 1119 1124 1125
f 1125 1124 1123
f 1122 1126 1123
f 89 1126 87
f 87 1126 84
f 84 1126 1122
f 1127 1126 89
f 1127 1128 1126
f 1126 1128 1123
f 1123 1128 1129
f 1129 1128 1127
f 91 1130 89
f 1131 1132 1130
f 1130 1132 89
f 89 1132 1127
f 1127 1132 1133
f 1133 1132 1131
f 1130 1134 1131
f 95 1134 93
f 93 1134 91
f 91 1134 1130
f 1135 1136 1137
f 95 1136 1134
f 1134 1136 1131
f 1137 1136 95
f 1131 1136 1138
f 1138 1136 1135
f 97 1139 95
f 1137 1140 1141
f 1141 1140 1142
f 1139 1140 95
f 95 1140 1137
f 1142 1140 1139
f 101 1143 99
f 99 1143 97
f 97 1143 1139
f 1139 1143 1142
f 1143 1144 1142
f 1142 1144 1145
f 1145 1144 948
f 948 1144 101
f 101 1144 1143
f 103 1146 101
f 947 1147 1148
f 1148 1147 1149
f 101 1147 947
f 1149 1147 1146
f 1146 1147 101
f 1146 1150 1149
f 107 1150 105
f 105 1150 103
f 103 1150 1146
f 1149 1151 1152
f 1152 1151 1153
f 1150 1151 1149
f 1153 1151 107
f 107 1151 1150
f 109 1154 107
f 1153 1155 1156
f 1156 1155 1157
f 1157 1155 1158
f 107 1155 1153
f 1154 1155 107
f 113 1159 111
f 111 1159 109
f 109 1159 1154
f 1158 1160 1161
f 113 1160 1159
f 1161 1160 113
f 1155 1160 1158
f 1154 1160 1155
f 1159 1160 1154
f 115 1162 113
f 1161 1163 1164
f 1164 1163 1165
f 113 1163 1161
f 1165 1163 1162
f 1162 1163 113
f 119 1166 117
f 117 1166 115
f 115 1166 1162
f 1162 1166 1165
f 1165 1167 1168
f 1168 1167 1169
f 1166 1167 1165
f 119 1167 1166
f 1169 1167 119
f 123 1170 121
f 121 1170 119
f 1169 1171 1172
f 1172 1171 1173
f 119 1171 1169
f 1170 1171 119
f 125 1174 123
f 123 1174 1170
f 1173 1175 1176
f 1176 1175 1177
f 1177 1175 1178
f 1171 1175 1173
f 1178 1175 125
f 125 1175 1174
f 1170 1175 1171
f 1174 1175 1170
f 129 1179 127
f 127 1179 125
f 1178 1180 1181
f 1181 1180 1182
f 125 1180 1178
f 1179 1180 125
f 1182 1180 1179
f 131 1183 129
f 129 1183 1179
f 1184 1183 131
f 1179 1183 1182
f 1184 1185 1183
f 1182 1185 1186
f 1186 1185 1184
f 1183 1185 1182
f 33 1187 133
f 133 1187 131
f 1184 1188 1189
f 1189 1188 1190
f 131 1188 1184
f 1187 1188 131
f 35 1191 32
f 32 1191 33
f 33 1191 1187
f 949 1191 35
f 1187 1192 1188
f 1191 1192 1187
f 1188 1192 1190
f 949 1192 1191
f 1190 1192 1193
f 1193 1192 1194
f 1194 1192 949
f 38 1195 36
f 36 1195 950
f 889 1196 887
f 890 1197 1198
f 890 888 1197
f 888 1199 1197
f 888 1200 1199
f 888 885 1200
f 885 1201 1200
f 885 883 1201
f 883 1202 1201
f 883 1203 1202
f 883 880 1203
f 40 1204 38
f 1195 1205 1206
f 1204 1205 38
f 38 1205 1195
f 42 1207 40
f 40 1207 1204
f 1206 1208 1209
f 1204 1208 1205
f 1205 1208 1206
f 1207 1208 1204
f 44 1210 42
f 42 1210 1207
f 1210 1211 1207
f 1209 1211 1212
f 1207 1211 1208
f 1208 1211 1209
f 46 1213 44
f 44 1213 1210
f 1210 1214 1211
f 1212 1214 1215
f 1215 1214 1216
f 1211 1214 1212
f 1213 1214 1210
f 48 1217 46
f 46 1217 1213
f 1217 1218 1213
f 1216 1218 1219
f 1214 1218 1216
f 1213 1218 1214
f 50 1220 48
f 48 1220 1217
f 1217 1221 1218
f 1218 1221 1219
f 1220 1221 1217
f 1219 1221 1222
f 52 1223 50
f 50 1223 1220
f 1222 1224 1225
f 1225 1224 1226
f 1223 1224 1220
f 1221 1224 1222
f 1220 1224 1221
f 54 1227 52
f 52 1227 1223
f 1227 1228 1223
f 1226 1228 1229
f 1224 1228 1226
f 1223 1228 1224
f 54 1230 1227
f 58 1230 56
f 56 1230 54
f 1227 1231 1228
f 1228 1231 1229
f 1229 1231 1232
f 1232 1231 1233
f 1230 1231 1227
f 1230 1234 1231
f 58 1234 1230
f 61 1234 58
f 1231 1235 1233
f 1233 1235 1236
f 1234 1235 1231
f 63 1237 61
f 61 1237 1234
f 1234 1237 1235
f 1237 1238 1235
f 1235 1238 1236
f 1236 1238 1239
f 1239 1238 1240
f 65 1241 63
f 63 1241 1237
f 1238 1242 1240
f 1237 1242 1238
f 1240 1242 1243
f 1243 1242 1244
f 1241 1242 1237
f 67 1245 65
f 65 1245 1241
f 1245 1246 1241
f 1241 1246 1242
f 1244 1246 1247
f 1242 1246 1244
f 69 1248 67
f 67 1248 1245
f 1247 1249 1250
f 1245 1249 1246
f 1248 1249 1245
f 1246 1249 1247
f 71 1251 69
f 69 1251 1248
f 1248 1252 1249
f 1250 1252 1253
f 1249 1252 1250
f 1251 1252 1248
f 73 1254 71
f 71 1254 1251
f 1252 1255 1253
f 1253 1255 1256
f 1256 1255 1257
f 1254 1255 1251
f 1251 1255 1252
f 75 1258 73
f 73 1258 1254
f 1257 1259 1260
f 1255 1259 1257
f 1254 1259 1255
f 1258 1259 1254
f 77 1261 75
f 75 1261 1258
f 1260 1262 1263
f 1259 1262 1260
f 1258 1262 1259
f 1261 1262 1258
f 79 1264 77
f 77 1264 1261
f 1263 1265 1266
f 1262 1265 1263
f 1261 1265 1262
f 1264 1265 1261
f 1264 1267 1265
f 876 1267 874
f 79 1267 1264
f 874 1267 79
f 1266 1268 1269
f 1269 1268 1270
f 1265 1268 1266
f 1267 1268 1265
f 876 1271 1267
f 877 1271 876
f 1270 1272 1273
f 1268 1272 1270
f 1267 1272 1268
f 1271 1272 1267
f 877 1272 1271
f 1273 1274 1275
f 1275 1274 1276
f 882 1274 881
f 881 1274 877
f 877 1274 1272
f 1272 1274 1273
f 1276 1277 1278
f 884 1277 882
f 1278 1277 884
f 1274 1277 1276
f 882 1277 1274
f 1279 1280 886
f 1278 1280 1281
f 1281 1280 1279
f 886 1280 884
f 884 1280 1278
f 886 1282 1279
f 1196 1282 887
f 1279 1282 1283
f 1283 1282 1196
f 887 1282 886
f 889 1284 1196
f 1198 1284 890
f 1196 1284 1198
f 890 1284 889
f 869 59 57
f 862 66 64
f 862 863 66
f 863 68 66
f 863 864 68
f 864 70 68
f 864 866 70
f 866 72 70
f 866 74 72
f 1195 1285 950
f 86 1286 88
f 950 1286 86
f 1285 1286 950
f 1195 1287 1285
f 1206 1287 1195
f 1209 1287 1206
f 88 1288 90
f 90 1288 92
f 1286 1288 88
f 1285 1288 1286
f 1209 1288 1287
f 1287 1288 1285
f 1212 1289 1209
f 1209 1290 1288
f 92 1290 94
f 94 1290 1289
f 1289 1290 1209
f 1288 1290 92
f 1289 1291 94
f 1212 1291 1289
f 1215 1291 1212
f 1216 1291 1215
f 94 1292 96
f 96 1292 98
f 1291 1292 94
f 1216 1292 1291
f 100 1293 1222
f 1219 1293 1216
f 1222 1293 1219
f 98 1294 100
f 1292 1294 98
f 1293 1294 1216
f 1216 1294 1292
f 100 1294 1293
f 1225 1295 1222
f 1226 1295 1225
f 100 1296 102
f 1222 1296 100
f 1226 1296 1295
f 1295 1296 1222
f 1229 1297 1226
f 1232 1297 1229
f 102 1298 104
f 104 1298 106
f 1296 1298 102
f 1226 1298 1296
f 1297 1298 1226
f 1232 1298 1297
f 106 1298 1232
f 1233 1299 1232
f 1236 1299 1233
f 106 1300 108
f 1232 1300 106
f 1299 1300 1232
f 1236 1300 1299
f 1239 1301 1236
f 1240 1301 1239
f 1300 1302 108
f 108 1302 110
f 1236 1302 1300
f 110 1302 112
f 1301 1302 1236
f 1240 1302 1301
f 112 1302 1240
f 1243 1303 1240
f 1244 1303 1243
f 114 1303 1244
f 114 1304 1303
f 112 1304 114
f 1303 1304 1240
f 1240 1304 112
f 1244 1305 114
f 1247 1305 1244
f 1250 1305 1247
f 114 1306 116
f 116 1306 118
f 1250 1306 1305
f 1305 1306 114
f 1253 1307 1250
f 1256 1307 1253
f 118 1308 120
f 120 1308 1307
f 1307 1308 1250
f 1306 1308 118
f 1250 1308 1306
f 1307 1309 120
f 1256 1309 1307
f 1257 1309 1256
f 1309 1310 120
f 120 1310 122
f 1257 1311 1309
f 1309 1311 1310
f 1260 1311 1257
f 1263 1311 1260
f 126 1312 1263
f 1263 1312 1311
f 122 1312 124
f 124 1312 126
f 1311 1312 1310
f 1310 1312 122
f 1266 1313 1263
f 1269 1313 1266
f 1263 1314 126
f 126 1314 128
f 1313 1314 1263
f 1269 1314 1313
f 1270 1315 1269
f 1273 1315 1270
f 1273 1316 1315
f 132 1316 1273
f 128 1316 130
f 130 1316 132
f 1315 1316 1269
f 1314 1316 128
f 1269 1316 1314
f 1275 1317 1273
f 1276 1317 1275
f 1317 1318 1273
f 1273 1318 132
f 132 1318 134
f 1276 1318 1317
f 1278 1319 1276
f 1281 1319 1278
f 1319 1320 1276
f 1281 1320 1319
f 1276 1320 1318
f 1318 1320 134
f 134 1320 31
f 31 1320 34
f 34 1320 1281
f 1281 1321 34
f 1279 1321 1281
f 1283 1321 1279
f 1321 1322 34
f 34 1322 37
f 1283 1322 1321
f 41 1323 1198
f 1196 1323 1283
f 1198 1323 1196
f 1283 1324 1322
f 41 1324 1323
f 37 1324 39
f 39 1324 41
f 1323 1324 1283
f 1322 1324 37
f 1199 1325 1197
f 1200 1325 1199
f 1198 1325 41
f 1197 1325 1198
f 1325 1326 41
f 41 1326 43
f 1201 1327 1200
f 1202 1327 1201
f 1200 1327 1325
f 43 1328 45
f 1325 1328 1326
f 45 1328 47
f 1326 1328 43
f 1327 1328 1325
f 1202 1328 1327
f 1203 1329 1202
f 880 1329 1203
f 879 1329 880
f 47 1330 49
f 1328 1330 47
f 1202 1330 1328
f 879 1330 1329
f 1329 1330 1202
f 49 1330 879
f 873 1331 875
f 875 1331 878
f 49 1332 51
f 51 1332 53
f 873 1332 1331
f 1331 1332 878
f 878 1332 879
f 879 1332 49
f 53 1332 873
f 871 1333 872
f 872 1333 873
f 53 1334 55
f 871 1334 1333
f 1333 1334 873
f 873 1334 53
f 55 1334 871
f 55 1335 57
f 869 1335 870
f 870 1335 871
f 871 1335 55
f 57 1335 869
f 62 1336 867
f 59 1336 60
f 60 1336 62
f 867 1336 868
f 868 1336 869
f 869 1336 59
f 867 1337 62
f 64 1337 862
f 62 1337 64
f 862 1337 865
f 865 1337 867
f 240 943 244
f 943 248 244
f 943 252 248
f 943 944 252
f 944 1338 252
f 944 946 1338
f 946 1339 1338
f 946 1340 1339
f 946 945 1340
f 945 1341 1340
f 945 955 1341
f 955 1342 1341
f 955 959 1342
f 956 1343 959
f 959 1343 1342
f 963 1344 956
f 956 1344 1343
f 960 1345 963
f 963 1345 1344
f 960 1346 1345
f 967 1347 966
f 967 971 1347
f 969 1348 971
f 971 1348 1347
f 974 1349 969
f 969 1349 1348
f 975 979 1350
f 979 1351 1350
f 982 1352 977
f 983 1353 1354
f 984 1353 983
f 995 1355 992
f 997 29 996
f 997 28 29
f 1001 26 1000
f 947 154 948
f 950 85 949
f 950 86 85
f 966 1356 960
f 1346 1356 1347
f 960 1356 1346
f 1347 1356 966
f 1349 1357 1350
f 975 1357 974
f 974 1357 1349
f 1350 1357 975
f 979 1358 1351
f 1352 1358 977
f 1351 1358 1352
f 977 1358 979
f 1352 1359 1354
f 982 1359 1352
f 1354 1359 983
f 983 1359 982
f 1353 1360 1361
f 984 1360 1353
f 988 1360 984
f 985 1360 988
f 1361 1360 985
f 1362 1363 1355
f 1361 1363 1362
f 991 1363 985
f 992 1363 991
f 985 1363 1361
f 1355 1363 992
f 1355 1364 29
f 996 1364 995
f 995 1364 1355
f 29 1364 996
f 1000 1365 997
f 28 1365 26
f 997 1365 28
f 26 1365 1000
f 1005 1366 1001
f 1002 1366 1005
f 1001 1366 26
f 22 1366 1002
f 22 1367 1366
f 1366 1367 26
f 24 1367 22
f 26 1367 24
f 1008 1368 1002
f 1009 1368 1008
f 1002 1368 22
f 20 1368 1009
f 22 1369 20
f 1368 1369 22
f 20 1369 1368
f 1013 1370 1009
f 1011 1370 1013
f 1009 1370 20
f 14 1370 1011
f 14 1371 1370
f 16 1371 14
f 20 1371 16
f 1370 1371 20
f 1017 1372 1011
f 1016 1372 1017
f 1011 1372 14
f 12 1373 9
f 14 1373 12
f 1372 1373 14
f 1016 1373 1372
f 1020 1374 1016
f 1021 1374 1020
f 7 1374 1021
f 1374 1375 1016
f 9 1375 7
f 1373 1375 9
f 1016 1375 1373
f 7 1375 1374
f 1024 1376 1021
f 1025 1376 1024
f 1026 1376 1025
f 1021 1376 7
f 7 1377 189
f 189 1377 190
f 1376 1377 7
f 191 1378 1028
f 1030 1378 1026
f 1028 1378 1030
f 1026 1378 1376
f 190 1379 191
f 1378 1379 1376
f 1377 1379 190
f 1376 1379 1377
f 191 1379 1378
f 1028 1380 191
f 1033 1380 1028
f 1034 1380 1033
f 191 1381 193
f 193 1381 195
f 1380 1381 191
f 1034 1381 1380
f 197 1382 1035
f 1038 1382 1034
f 1035 1382 1038
f 1381 1383 195
f 197 1383 1382
f 1382 1383 1034
f 195 1383 197
f 1034 1383 1381
f 1042 1384 1035
f 1040 1384 1042
f 1035 1385 197
f 197 1385 199
f 199 1385 201
f 1384 1385 1035
f 1040 1385 1384
f 203 1386 1044
f 1046 1386 1040
f 1044 1386 1046
f 1386 1387 1040
f 201 1387 203
f 1385 1387 201
f 1040 1387 1385
f 203 1387 1386
f 1044 1388 203
f 1050 1388 1044
f 1049 1388 1050
f 1388 1389 203
f 203 1389 205
f 205 1389 207
f 1049 1389 1388
f 1054 1390 1049
f 1051 1390 1054
f 207 1391 892
f 892 1391 894
f 894 1391 1051
f 1049 1391 1389
f 1389 1391 207
f 1051 1391 1390
f 1390 1391 1049
f 1051 1392 894
f 1057 1392 1051
f 1058 1392 1057
f 1059 1392 1058
f 1392 1393 894
f 894 1393 896
f 1059 1394 1392
f 1063 1394 1059
f 1062 1394 1063
f 900 1394 1062
f 1392 1395 1393
f 896 1395 898
f 898 1395 900
f 1393 1395 896
f 1394 1395 1392
f 900 1395 1394
f 1066 1396 1062
f 1062 1396 900
f 1067 1396 1066
f 1067 1397 1396
f 1396 1397 900
f 900 1397 902
f 902 1397 904
f 1070 1398 1067
f 1071 1398 1070
f 906 1398 1071
f 1067 1399 1397
f 1397 1399 904
f 1398 1399 1067
f 906 1399 1398
f 904 1399 906
f 1075 1400 1071
f 1076 1400 1075
f 1073 1400 1076
f 1071 1400 906
f 1073 1401 1400
f 906 1401 908
f 908 1401 910
f 1400 1401 906
f 1079 1402 1073
f 1080 1402 1079
f 1401 1403 910
f 1402 1403 1073
f 1073 1403 1401
f 910 1403 912
f 912 1403 1402
f 1083 1404 1080
f 1084 1404 1083
f 1080 1404 1402
f 1402 1404 912
f 1084 1405 1404
f 1404 1405 912
f 912 1405 914
f 914 1405 916
f 918 1406 1086
f 1088 1406 1084
f 1086 1406 1088
f 1084 1407 1405
f 1405 1407 916
f 916 1407 918
f 918 1407 1406
f 1406 1407 1084
f 1086 1408 918
f 1092 1408 1086
f 1093 1408 1092
f 1091 1408 1093
f 918 1409 920
f 920 1409 922
f 1091 1409 1408
f 1408 1409 918
f 924 1410 1095
f 1097 1410 1091
f 1095 1410 1097
f 924 1411 1410
f 922 1411 924
f 1410 1411 1091
f 1409 1411 922
f 1091 1411 1409
f 1095 1412 924
f 1100 1412 1095
f 1412 1413 924
f 924 1413 926
f 926 1413 928
f 1100 1414 1412
f 1104 1414 1100
f 1102 1414 1104
f 1413 1415 928
f 1412 1415 1413
f 1414 1415 1412
f 930 1415 1102
f 1102 1415 1414
f 928 1415 930
f 1108 1416 1102
f 1106 1416 1108
f 1102 1417 930
f 1106 1417 1416
f 1416 1417 1102
f 930 1417 932
f 932 1417 934
f 1112 1418 1106
f 1110 1418 1112
f 936 1419 1110
f 1417 1419 934
f 1110 1419 1418
f 1106 1419 1417
f 934 1419 936
f 1418 1419 1106
f 1116 1420 1110
f 1114 1420 1116
f 1110 1421 936
f 936 1421 938
f 938 1421 940
f 1420 1421 1110
f 1114 1421 1420
f 135 1422 1119
f 1120 1422 1114
f 1121 1422 1120
f 1119 1422 1121
f 1422 1423 1114
f 940 1423 942
f 942 1423 135
f 1114 1423 1421
f 1421 1423 940
f 135 1423 1422
f 1119 1424 135
f 1125 1424 1119
f 1123 1424 1125
f 1123 1425 1424
f 135 1425 138
f 138 1425 140
f 1424 1425 135
f 1129 1426 1123
f 1127 1426 1129
f 1426 1427 1123
f 1425 1427 140
f 1127 1427 1426
f 140 1427 142
f 142 1427 1127
f 1123 1427 1425
f 1127 1428 142
f 1133 1428 1127
f 1131 1428 1133
f 1428 1429 142
f 1131 1429 1428
f 142 1429 144
f 144 1429 146
f 148 1430 1137
f 1138 1430 1131
f 1135 1430 1138
f 1137 1430 1135
f 1131 1431 1429
f 148 1431 1430
f 146 1431 148
f 1429 1431 146
f 1430 1431 1131
f 1142 1432 1141
f 1137 1432 148
f 1141 1432 1137
f 1142 1433 1432
f 1432 1433 148
f 148 1433 150
f 150 1433 152
f 1145 1434 1142
f 948 1434 1145
f 154 1434 948
f 1433 1435 152
f 1142 1435 1433
f 1434 1435 1142
f 152 1435 154
f 154 1435 1434
f 947 1436 154
f 1148 1436 947
f 1149 1436 1148
f 1436 1437 154
f 154 1437 156
f 156 1437 158
f 1149 1437 1436
f 1152 1438 1149
f 1153 1438 1152
f 160 1438 1153
f 160 1439 1438
f 1149 1439 1437
f 1438 1439 1149
f 158 1439 160
f 1437 1439 158
f 1156 1440 1153
f 1157 1440 1156
f 1158 1440 1157
f 1153 1440 160
f 1440 1441 160
f 160 1441 162
f 162 1441 164
f 1161 1442 1158
f 166 1442 1161
f 1158 1442 1440
f 1440 1443 1441
f 1441 1443 164
f 166 1443 1442
f 1442 1443 1440
f 164 1443 166
f 1164 1444 1161
f 1165 1444 1164
f 1161 1444 166
f 1444 1445 166
f 1165 1445 1444
f 166 1445 168
f 168 1445 170
f 1168 1446 1165
f 1169 1446 1168
f 172 1446 1169
f 1165 1447 1445
f 1445 1447 170
f 172 1447 1446
f 1446 1447 1165
f 170 1447 172
f 1172 1448 1169
f 1173 1448 1172
f 1169 1448 172
f 1448 1449 172
f 172 1449 174
f 174 1449 176
f 1176 1450 1173
f 1177 1450 1176
f 1178 1450 1177
f 1173 1450 1448
f 178 1450 1178
f 1448 1451 1449
f 1449 1451 176
f 178 1451 1450
f 1450 1451 1448
f 176 1451 178
f 1181 1452 1178
f 1182 1452 1181
f 1178 1452 178
f 1452 1453 178
f 1182 1453 1452
f 178 1453 180
f 180 1453 182
f 1186 1454 1182
f 1184 1454 1186
f 1182 1455 1453
f 1453 1455 182
f 1184 1455 1454
f 1454 1455 1182
f 184 1455 1184
f 182 1455 184
f 1189 1456 1184
f 1190 1456 1189
f 188 1456 1190
f 188 1457 1456
f 1184 1457 184
f 1456 1457 1184
f 184 1457 186
f 186 1457 188
f 1193 1458 1190
f 1194 1458 1193
f 949 1458 1194
f 1190 1458 188
f 1458 1459 188
f 85 1459 949
f 949 1459 1458
f 188 1459 80
f 80 1459 83
f 83 1459 85
f 30 1355 29
f 30 218 1355
f 218 1362 1355
f 1362 214 1361
f 218 214 1362
f 1361 209 1353
f 214 209 1361
f 1353 213 1354
f 209 213 1353
f 1354 217 1352
f 213 217 1354
f 1352 221 1351
f 217 221 1352
f 1351 224 1350
f 221 224 1351
f 1350 227 1349
f 224 227 1350
f 1349 230 1348
f 227 230 1349
f 1348 232 1347
f 230 232 1348
f 232 1346 1347
f 232 236 1346
f 236 1345 1346
f 236 239 1345
f 239 1344 1345
f 239 243 1344
f 243 1343 1344
f 243 247 1343
f 247 1342 1343
f 247 251 1342
f 251 1341 1342
f 251 256 1341
f 1341 256 1340
f 256 1339 1340
f 256 254 1339
f 254 1338 1339
f 254 252 1338
f 15 240 17
