# Full FreeCAD instance transform baked; body-local coordinates in mm
v -24.941381902 37.625323566 110.221253213
v -24.511067945 38.556398500 109.926034331
v -25.226934794 37.890817773 110.137072123
v -24.642300877 37.373727328 110.301027630
v -24.261209164 38.324091069 109.999692785
v -24.748468421 38.800289101 109.848703165
v -25.498249624 38.169549888 110.048693647
v -24.330435283 37.136654566 110.376197042
v -23.999513268 38.103944361 110.069495400
v -24.972820377 39.055156522 109.767891544
v -25.754651860 38.460826940 109.956337509
v -24.006560465 36.914694682 110.446574566
v -23.726630872 37.896505695 110.135268635
v -25.183566040 39.320367121 109.683800378
v -25.995504046 38.763924768 109.860233319
v -23.671481627 36.708399502 110.511985233
v -23.443240406 37.702290796 110.196848969
v -25.380181462 39.595261544 109.596638732
v -26.220207385 39.078089823 109.760620009
v -23.326031829 36.518281908 110.572266421
v -23.150046424 37.521782513 110.254083303
v -25.562177826 39.879156360 109.506623302
v -26.428203230 39.402541041 109.657745233
v -22.971069913 36.344814564 110.627268262
v -22.847777850 37.355429619 110.306829342
v -25.729102662 40.171345761 109.413977882
v -26.618974470 39.736471785 109.551864753
v -22.607478370 36.188428735 110.676854013
v -22.537186174 37.203645692 110.354955953
v -25.880540966 40.471103319 109.318932803
v -26.792046818 40.079051851 109.443241805
v -22.236161147 36.049513223 110.720900395
v -22.219043574 37.066808092 110.398343485
v -26.016116241 40.777683788 109.221724362
v -26.946989989 40.429429531 109.332146443
v -21.894141003 36.945257019 110.436884069
v -21.858041395 35.928413392 110.759297902
v -26.135491423 41.090324963 109.122594233
v -27.083418769 40.786733730 109.218854868
v -21.474059182 35.825430316 110.791951072
v -21.563286221 36.839294667 110.470481888
v -26.238369729 41.408249567 109.021788871
v -27.200993976 41.150076135 109.103648740
v -21.085169146 35.740820027 110.818778725
v -21.227301784 36.749184475 110.499053412
v -26.324495385 41.730667189 108.919558893
v -27.299423297 41.518553418 108.986814479
v -20.692338129 35.674792879 110.839714162
v -20.887023002 36.675150472 110.522527608
v -26.393654271 42.056776250 108.816158459
v -27.378462024 41.891249487 108.868642555
v -20.296542773 35.627513028 110.854705335
v -20.543295863 36.617376718 110.540846115
v -26.445674446 42.385765990 108.711844639
v -27.437913653 42.267237761 108.749426761
v -19.898767085 35.599098017 110.863714972
v -20.196974926 36.576006848 110.553963391
v -26.480426580 42.716818489 108.606876774
v -27.477630377 42.645583474 108.629463486
v -19.848921200 36.551143713 110.561846824
v -19.500000000 35.589618490 110.866720676
v -26.497824274 43.049110698 108.501515829
v -27.497513456 43.025345998 108.509050978
v -19.101232915 35.599098017 110.863714972
v -19.500000000 36.542849128 110.564476815
v -26.497824274 43.381816486 108.396023750
v -27.497513456 43.405581185 108.388488602
v -18.703457227 35.627513028 110.854705335
v -19.151078800 36.551143713 110.561846824
v -26.480426580 43.714108695 108.290662806
v -27.477630377 43.785343710 108.268076094
v -18.307661871 35.674792879 110.839714162
v -18.803025074 36.576006848 110.553963391
v -26.445674446 44.045161194 108.185694940
v -27.437913653 44.163689423 108.148112819
v -18.456704137 36.617376718 110.540846115
v -17.914830854 35.740820027 110.818778725
v -26.393654271 44.374150934 108.081381120
v -27.378462024 44.539677697 108.028897025
v -17.525940818 35.825430316 110.791951072
v -18.112976998 36.675150472 110.522527608
v -26.324495385 44.700259994 107.977980687
v -27.299423297 44.912373766 107.910725100
v -17.772698216 36.749184475 110.499053412
v -17.141958605 35.928413392 110.759297902
v -26.238369729 45.022677617 107.875750709
v -27.200993976 45.280851049 107.793890840
v -16.763838853 36.049513223 110.720900395
v -17.436713779 36.839294667 110.470481888
v -26.135491423 45.340602221 107.774945346
v -27.083418769 45.644193454 107.678684712
v -16.392521630 36.188428735 110.676854013
v -17.105858997 36.945257019 110.436884069
v -26.016116241 45.653243395 107.675815218
v -26.946989989 46.001497653 107.565393136
v -16.780956426 37.066808092 110.398343485
v -16.028930087 36.344814564 110.627268262
v -25.880540966 45.959823865 107.578606776
v -26.792046818 46.351875333 107.454297774
v -16.462813826 37.203645692 110.354955953
v -15.673968171 36.518281908 110.572266421
v -25.729102662 46.259581423 107.483561697
v -26.618974470 46.694455399 107.345674827
v -16.152222150 37.355429619 110.306829342
v -15.328518373 36.708399502 110.511985233
v -25.562177826 46.551770824 107.390916277
v -26.428203230 47.028386143 107.239794347
v -15.849953576 37.521782513 110.254083303
v -14.993439535 36.914694682 110.446574566
v -25.380181462 46.835665639 107.300900848
v -26.220207385 47.352837361 107.136919570
v -15.556759594 37.702290796 110.196848969
v -25.183566040 47.110560062 107.213739202
v -25.995504046 47.667002415 107.037306260
v -14.669564717 37.136654566 110.376197042
v -15.273369128 37.896505695 110.135268635
v -24.972820377 47.375770662 107.129648036
v -25.754651860 47.970100243 106.941202071
v -14.357699123 37.373727328 110.301027630
v -15.000486732 38.103944361 110.069495400
v -24.748468421 47.630638082 107.048836415
v -25.498249624 48.261377295 106.848845933
v -14.058618098 37.625323566 110.221253213
v -14.738790836 38.324091069 109.999692785
v -24.511067945 47.874528683 106.971505249
v -25.226934794 48.540109411 106.760467457
v -13.773065206 37.890817773 110.137072123
v -14.488932055 38.556398500 109.926034331
v -24.261209164 48.106836115 106.897846795
v -24.941381902 48.805603618 106.676286367
v -13.501750376 38.169549888 110.048693647
v -14.251531579 38.800289101 109.848703165
v -23.999513268 48.326982823 106.828044180
v -24.642300877 49.057199856 106.596511950
v -13.245348140 38.460826940 109.956337509
v -14.027179623 39.055156522 109.767891544
v -23.726630872 48.534421489 106.762270944
v -24.330435283 49.294272617 106.521342538
v -13.004495954 38.763924768 109.860233319
v -13.816433960 39.320367121 109.683800378
v -23.443240406 48.728636388 106.700690611
v -24.006560465 49.516232502 106.450965013
v -23.150046424 48.909144671 106.643456277
v -12.779792615 39.078089823 109.760620009
v -13.619818538 39.595261544 109.596638732
v -23.671481627 49.722527682 106.385554347
v -22.847777850 49.075497565 106.590710237
v -12.571796770 39.402541041 109.657745233
v -13.437822174 39.879156360 109.506623302
v -23.326031829 49.912645275 106.325273158
v -22.537186174 49.227281491 106.542583627
v -12.381025530 39.736471785 109.551864753
v -13.270897338 40.171345761 109.413977882
v -22.971069913 50.086112620 106.270271317
v -22.219043574 49.364119091 106.499196095
v -12.207953182 40.079051851 109.443241805
v -13.119459034 40.471103319 109.318932803
v -22.607478370 50.242498448 106.220685567
v -21.894141003 49.485670165 106.460655511
v -12.053010011 40.429429531 109.332146443
v -12.983883759 40.777683788 109.221724362
v -22.236161147 50.381413961 106.176639185
v -21.563286221 49.591632517 106.427057692
v -11.916581231 40.786733730 109.218854868
v -12.864508577 41.090324963 109.122594233
v -21.858041395 50.502513792 106.138241678
v -21.227301784 49.681742709 106.398486167
v -11.799006024 41.150076135 109.103648740
v -12.761630271 41.408249567 109.021788871
v -21.474059182 50.605496868 106.105588507
v -20.887023002 49.755776711 106.375011971
v -11.700576703 41.518553418 108.986814479
v -12.675504615 41.730667189 108.919558893
v -21.085169146 50.690107157 106.078760854
v -11.621537976 41.891249487 108.868642555
v -12.606345729 42.056776250 108.816158459
v -20.692338129 50.756134304 106.057825418
v -20.196974926 49.854920336 106.343576188
v -20.543295863 49.813550465 106.356693464
v -11.562086347 42.267237761 108.749426761
v -12.554325554 42.385765990 108.711844639
v -20.296542773 50.803414156 106.042834245
v -19.848921200 49.879783470 106.335692755
v -11.522369623 42.645583474 108.629463486
v -12.519573420 42.716818489 108.606876774
v -19.898767085 50.831829167 106.033824607
v -19.500000000 49.888078056 106.333062765
v -11.502486544 43.025345998 108.509050978
v -12.502175726 43.049110698 108.501515829
v -19.500000000 50.841308693 106.030818904
v -19.151078800 49.879783470 106.335692755
v -11.502486544 43.405581185 108.388488602
v -12.502175726 43.381816486 108.396023750
v -19.101232915 50.831829167 106.033824607
v -18.803025074 49.854920336 106.343576188
v -11.522369623 43.785343710 108.268076094
v -12.519573420 43.714108695 108.290662806
v -18.703457227 50.803414156 106.042834245
v -18.456704137 49.813550465 106.356693464
v -11.562086347 44.163689423 108.148112819
v -12.554325554 44.045161194 108.185694940
v -18.307661871 50.756134304 106.057825418
v -18.112976998 49.755776711 106.375011971
v -11.621537976 44.539677697 108.028897025
v -12.606345729 44.374150934 108.081381120
v -17.914830854 50.690107157 106.078760854
v -17.772698216 49.681742709 106.398486167
v -11.700576703 44.912373766 107.910725100
v -12.675504615 44.700259994 107.977980687
v -17.436713779 49.591632517 106.427057692
v -17.525940818 50.605496868 106.105588507
v -11.799006024 45.280851049 107.793890840
v -12.761630271 45.022677617 107.875750709
v -17.105858997 49.485670165 106.460655511
v -17.141958605 50.502513792 106.138241678
v -11.916581231 45.644193454 107.678684712
v -12.864508577 45.340602221 107.774945346
v -16.763838853 50.381413961 106.176639185
v -16.780956426 49.364119091 106.499196095
v -12.053010011 46.001497653 107.565393136
v -12.983883759 45.653243395 107.675815218
v -16.392521630 50.242498448 106.220685567
v -16.462813826 49.227281491 106.542583627
v -12.207953182 46.351875333 107.454297774
v -13.119459034 45.959823865 107.578606776
v -16.028930087 50.086112620 106.270271317
v -16.152222150 49.075497565 106.590710237
v -12.381025530 46.694455399 107.345674827
v -13.270897338 46.259581423 107.483561697
v -15.673968171 49.912645275 106.325273158
v -15.849953576 48.909144671 106.643456277
v -12.571796770 47.028386143 107.239794347
v -13.437822174 46.551770824 107.390916277
v -15.328518373 49.722527682 106.385554347
v -15.556759594 48.728636388 106.700690611
v -12.779792615 47.352837361 107.136919570
v -13.619818538 46.835665639 107.300900848
v -14.993439535 49.516232502 106.450965013
v -15.273369128 48.534421489 106.762270944
v -13.004495954 47.667002415 107.037306260
v -13.816433960 47.110560062 107.213739202
v -14.669564717 49.294272617 106.521342538
v -15.000486732 48.326982823 106.828044180
v -13.245348140 47.970100243 106.941202071
v -14.027179623 47.375770662 107.129648036
v -14.357699123 49.057199856 106.596511950
v -14.738790836 48.106836115 106.897846795
v -13.501750376 48.261377295 106.848845933
v -14.251531579 47.630638082 107.048836415
v -14.058618098 48.805603618 106.676286367
v -14.488932055 47.874528683 106.971505249
v -13.773065206 48.540109411 106.760467457
v -19.500000000 -23.301435297 -78.175189450
v -19.848921200 -23.293140712 -78.177819440
v -20.196974926 -23.268277577 -78.185702873
v -20.543295863 -23.226907707 -78.198820149
v -20.887023002 -23.169133953 -78.217138656
v -21.227301784 -23.095099950 -78.240612852
v -21.563286221 -23.004989759 -78.269184376
v -21.894141003 -22.899027407 -78.302782195
v -22.219043574 -22.777476333 -78.341322780
v -22.537186174 -22.640638733 -78.384710311
v -22.847777850 -22.488854806 -78.432836922
v -23.150046424 -22.322501912 -78.485582962
v -23.443240406 -22.141993630 -78.542817295
v -23.726630872 -21.947778731 -78.604397629
v -23.999513268 -21.740340065 -78.670170865
v -24.261209164 -21.520193356 -78.739973480
v -24.511067945 -21.287885925 -78.813631933
v -24.748468421 -21.043995324 -78.890963100
v -24.972820377 -20.789127903 -78.971774721
v -25.183566040 -20.523917304 -79.055865886
v -25.380181462 -20.249022881 -79.143027533
v -25.562177826 -19.965128065 -79.233042962
v -25.729102662 -19.672938664 -79.325688382
v -25.880540966 -19.373181107 -79.420733461
v -26.016116241 -19.066600637 -79.517941903
v -26.135491423 -18.753959462 -79.617072031
v -26.326236152 39.773371009 102.721248629
v -26.326645119 39.796778439 102.789290334
v -26.327857795 39.823764441 102.857034437
v -26.329852840 39.854240602 102.924171496
v -26.332608913 39.888118511 102.990392071
v -26.336104675 39.925309758 103.055386720
v -26.340318785 39.965725931 103.118846002
v -26.345229904 40.009278618 103.180460477
v -26.350228217 40.051084685 103.234080440
v -26.356132145 40.098315284 103.289105647
v -26.362794324 40.150032943 103.343696669
v -26.369907914 40.204193593 103.395567586
v -26.377383166 40.260508726 103.444588460
v -26.385130331 40.318689834 103.490629354
v -26.238369729 -18.436034859 -79.717877394
v -26.401081401 40.439495941 103.573251451
v -26.409333252 40.503320959 103.610555530
v -26.417520258 40.568132778 103.644278929
v -26.425850753 40.636113736 103.675478144
v -26.434400747 40.708530638 103.704460639
v -26.442823410 40.783128170 103.730087089
v -26.355030828 39.710240027 102.082853164
v -26.324495385 -18.113617236 -79.820107371
v -26.360976482 39.719324011 102.015188935
v -26.349691191 39.704367038 102.149043621
v -26.344355928 39.701298595 102.222702590
v -26.339736830 39.701733911 102.295151982
v -26.335658590 39.705659276 102.369359627
v -26.332284238 39.713010155 102.442943382
v -26.329605912 39.723838242 102.516511341
v -26.327691664 39.737966903 102.588834824
v -26.326603050 39.754283250 102.655864430
v -26.451011169 40.859571005 103.752159301
v -26.458090403 40.929670144 103.768821609
v -26.464631102 40.998746606 103.781967188
v -26.470598097 41.066561911 103.791735728
v -26.476460753 41.139380044 103.798747340
v -26.408046196 39.852541111 101.584169796
v -26.393654271 -17.787508175 -79.923507805
v -26.416206891 39.885460922 101.519213399
v -26.399716690 39.822067923 101.652411938
v -26.391168352 39.793848398 101.725010561
v -26.382749507 39.768998626 101.799705695
v -26.374569258 39.747714229 101.876166154
v -26.367501203 39.731768351 101.946216199
v -26.424397172 39.921826762 101.455438531
v -26.486164274 41.282256891 103.802198404
v -26.490289138 41.357177788 103.798742835
v -26.493711369 41.431504465 103.791787409
v -26.496412242 41.504935841 103.781437330
v -26.445674446 -17.458518436 -80.027821625
v -26.455485087 40.096664850 101.218729707
v -26.462597713 40.147899871 101.164051193
v -26.448021251 40.048310045 101.275496521
v -26.440293674 40.002965440 101.334062811
v -26.432389825 39.960761018 101.394139755
v -26.498373030 41.577170831 103.767797804
v -26.499575010 41.647908353 103.750974037
v -26.499999456 41.716847325 103.731071235
v -26.499678783 41.780469503 103.709422414
v -26.498581394 41.848036583 103.682890126
v -26.480426580 -17.127465937 -80.132789491
v -26.485008959 40.367967710 100.979075428
v -26.489309005 40.430754571 100.937930830
v -26.480193975 40.308949856 101.021897486
v -26.475181841 40.256150130 101.064068043
v -26.469271662 40.201885125 101.111749800
v -26.496722651 41.915034417 103.652880606
v -26.494121279 41.981156310 103.619481359
v -26.490796003 42.046095566 103.582779890
v -26.486765548 42.109545491 103.542863703
v -26.482048640 42.171199388 103.499820303
v -26.497824274 -16.795173728 -80.238150435
v -26.499343080 40.694922913 100.806033842
v -26.499966447 40.762686747 100.781667469
v -26.497946928 40.627541083 100.833930869
v -26.495796714 40.560847952 100.865271046
v -26.492911165 40.495150216 100.899966868
v -26.477305769 42.224131858 103.459097764
v -26.471569802 42.279610588 103.412141086
v -26.465076819 42.334562472 103.360774487
v -26.458113393 42.386811328 103.306925874
v -26.450766991 42.436227173 103.250884070
v -26.497824274 -16.462467939 -80.343642514
v -26.494777185 41.043450941 100.717127598
v -26.491821541 41.113092526 100.709315674
v -26.497244686 40.969244679 100.728899679
v -26.498903748 40.898410589 100.743559297
v -26.499800531 40.831060948 100.760750763
v -26.443125083 42.482680025 103.192937898
v -26.435275136 42.526039900 103.133376180
v -26.427304619 42.566176815 103.072487738
v -26.419055703 42.604035606 103.008646946
v -26.410851488 42.638256712 102.943890813
v -26.402488892 42.669881244 102.876088075
v -26.473864418 41.395537758 100.709537831
v -26.480426580 -16.130175730 -80.449003459
v -26.467956829 41.465872722 100.717839457
v -26.479242401 41.324846246 100.704586636
v -26.484038549 41.254041009 100.702957547
v -26.488236796 41.183372826 100.704563108
v -26.385350292 42.725394327 102.729297087
v -26.377036045 42.747931425 102.652897171
v -26.369822030 42.765018419 102.582799400
v -26.363133806 42.778581843 102.513691706
v -26.357010037 42.788760711 102.445816409
v -26.350966429 42.796213969 102.372891650
v -26.345900515 42.799908885 102.305100753
v -26.340917693 42.800472070 102.229875042
v -26.336624627 42.797418501 102.154907743
v -26.333042452 42.790853200 102.080499770
v -26.330192301 42.780881188 102.006952036
v -26.445674446 -15.799123231 -80.553971324
v -26.431692595 41.816489762 100.809935741
v -26.423952165 41.881341135 100.836910777
v -26.439964468 41.744360402 100.783826736
v -26.447824812 41.672459175 100.761628963
v -26.454864157 41.604560582 100.744019281
v -26.461599119 41.535622714 100.729378027
v -26.328095308 42.767607488 101.934565453
v -26.326772607 42.751137121 101.863640934
v -26.326245331 42.731575109 101.794479392
v -26.393654271 -15.470133492 -80.658285144
v -26.368097249 42.311277803 101.122642844
v -26.361087791 42.364856442 101.175204007
v -26.375490741 42.255472759 101.072899332
v -26.383178519 42.197729819 101.026103408
v -26.391070833 42.138337491 100.982385011
v -26.399077936 42.077584283 100.941874077
v -26.407370530 42.013734594 100.903549839
v -26.415598587 41.948998098 100.868894883
v -26.326488076 42.710337644 101.730925162
v -26.324495385 -15.144024431 -80.761685578
v -26.327524411 42.684207143 101.663309157
v -26.329342711 42.654589759 101.596228914
v -26.331921842 42.621573049 101.529990882
v -26.335240672 42.585244570 101.464901514
v -26.339278065 42.545691878 101.401267258
v -26.344012889 42.503002531 101.339394566
v -26.348772925 42.462635533 101.286301068
v -26.354552119 42.415920169 101.230452883
v -26.238369729 -14.821606808 -80.863915556
v -26.135491423 -14.503682204 -80.964720918
v -26.016116241 -14.191041030 -81.063851047
v -25.880540966 -13.884460560 -81.161059488
v -25.729102662 -13.584703003 -81.256104567
v -25.562177826 -13.292513601 -81.348749987
v -25.380181462 -13.008618786 -81.438765417
v -25.183566040 -12.733724363 -81.525927063
v -24.972820377 -12.468513763 -81.610018229
v -24.748468421 -12.213646343 -81.690829850
v -24.511067945 -11.969755742 -81.768161016
v -24.261209164 -11.737448311 -81.841819470
v -23.999513268 -11.517301602 -81.911622085
v -23.726630872 -11.309862936 -81.977395320
v -23.443240406 -11.115648037 -82.038975654
v -23.150046424 -10.935139755 -82.096209987
v -22.847777850 -10.768786860 -82.148956027
v -22.537186174 -10.617002934 -82.197082638
v -22.219043574 -10.480165334 -82.240470170
v -21.894141003 -10.358614260 -82.279010754
v -21.563286221 -10.252651908 -82.312608573
v -21.227301784 -10.162541717 -82.341180097
v -20.887023002 -10.088507714 -82.364654293
v -20.543295863 -10.030733960 -82.382972800
v -20.196974926 -9.989364090 -82.396090076
v -19.848921200 -9.964500955 -82.403973509
v -19.500000000 -9.956206370 -82.406603500
v -19.151078800 -9.964500955 -82.403973509
v -18.803025074 -9.989364090 -82.396090076
v -18.456704137 -10.030733960 -82.382972800
v -18.112976998 -10.088507714 -82.364654293
v -17.772698216 -10.162541717 -82.341180097
v -17.436713779 -10.252651908 -82.312608573
v -17.105858997 -10.358614260 -82.279010754
v -16.780956426 -10.480165334 -82.240470170
v -16.462813826 -10.617002934 -82.197082638
v -16.152222150 -10.768786860 -82.148956027
v -15.849953576 -10.935139755 -82.096209987
v -15.556759594 -11.115648037 -82.038975654
v -15.273369128 -11.309862936 -81.977395320
v -15.000486732 -11.517301602 -81.911622085
v -14.738790836 -11.737448311 -81.841819470
v -14.488932055 -11.969755742 -81.768161016
v -14.251531579 -12.213646343 -81.690829850
v -14.027179623 -12.468513763 -81.610018229
v -13.816433960 -12.733724363 -81.525927063
v -13.619818538 -13.008618786 -81.438765417
v -13.437822174 -13.292513601 -81.348749987
v -13.270897338 -13.584703003 -81.256104567
v -13.119459034 -13.884460560 -81.161059488
v -12.983883759 -14.191041030 -81.063851047
v -12.864508577 -14.503682204 -80.964720918
v -12.673763848 42.728385986 101.784292661
v -12.673354881 42.748461890 101.853390703
v -12.672142205 42.765441554 101.924307547
v -12.670147160 42.779218932 101.996739342
v -12.667391087 42.789687977 102.070382240
v -12.663895325 42.796742643 102.144932391
v -12.659681215 42.800276882 102.220085944
v -12.654770096 42.800184647 102.295539053
v -12.649771783 42.796913354 102.363451837
v -12.643867855 42.790018329 102.435638827
v -12.637205676 42.779205859 102.510056476
v -12.630092086 42.764829370 102.583658681
v -12.622616834 42.747049786 102.656173002
v -12.614869669 42.726028034 102.727326997
v -12.761630271 -14.821606808 -80.863915556
v -12.606940341 42.701925037 102.796848228
v -12.598918599 42.674901721 102.864464252
v -12.590666748 42.644232921 102.931729786
v -12.582479742 42.610694366 102.996637449
v -12.574149247 42.573111207 103.061308214
v -12.565599253 42.530625252 103.126723322
v -12.557176590 42.484423267 103.190652058
v -12.642989963 42.396549374 101.208842193
v -12.675504615 -15.144024431 -80.761685578
v -12.636866194 42.349119366 101.159233126
v -12.648678196 42.441780719 101.260678033
v -12.653838419 42.484522423 101.314486799
v -12.658722421 42.527281986 101.373796695
v -12.663005262 42.567594645 101.435671573
v -12.666694960 42.605850259 101.500937485
v -12.669595576 42.640225315 101.566455966
v -12.671801234 42.672109142 101.634873273
v -12.673194777 42.700368680 101.703989505
v -12.673620849 42.715007062 101.744111325
v -12.548988831 42.434665111 103.252739218
v -12.541909597 42.386974366 103.306749539
v -12.535368898 42.338093056 103.357296362
v -12.529401903 42.288296582 103.404356442
v -12.523539247 42.232822723 103.452046003
v -12.589148512 41.986544314 100.888490174
v -12.606345729 -15.470133492 -80.658285144
v -12.580944297 41.921261963 100.855283917
v -12.597511108 42.051459996 100.925682601
v -12.606128410 42.117162907 100.967800168
v -12.614649708 42.181414037 101.013666939
v -12.622963955 42.243856417 101.063122143
v -12.630177970 42.298213043 101.110567059
v -12.518644499 42.179424506 103.493732776
v -12.513835726 42.118038421 103.537194504
v -12.509710862 42.054814620 103.577540912
v -12.506288631 41.990059798 103.614684498
v -12.503587758 41.924080650 103.648537756
v -12.554325554 -15.799123231 -80.553971324
v -12.572695381 41.853533976 100.824921860
v -12.541886607 41.571851992 100.736669507
v -12.534923181 41.498120699 100.722765819
v -12.549233009 41.644531625 100.753998110
v -12.556874917 41.715886940 100.774590474
v -12.564724864 41.785645276 100.798285442
v -12.501626970 41.857183872 103.679013182
v -12.500424990 41.789676159 103.706023270
v -12.500000544 41.721864206 103.729480516
v -12.500321217 41.657391570 103.748447124
v -12.501418606 41.586880844 103.765695604
v -12.519573420 -16.130175730 -80.449003459
v -12.513234452 41.209292170 100.703603229
v -12.509203997 41.134434364 100.707540713
v -12.517951360 41.284484038 100.703256507
v -12.522694231 41.351210590 100.706038382
v -12.528430198 41.423610406 100.712448203
v -12.503277349 41.514831723 103.779774143
v -12.505878721 41.441545291 103.790577536
v -12.509203997 41.367322631 103.798000577
v -12.513234452 41.292464824 103.801938061
v -12.517951360 41.217272956 103.802284782
v -12.502175726 -16.462467939 -80.343642514
v -12.500321217 40.844365424 100.757094165
v -12.500000544 40.779892788 100.776060773
v -12.501418606 40.914876150 100.739845685
v -12.503277349 40.986925271 100.725767146
v -12.505878721 41.060211703 100.714963754
v -12.522694231 41.150546404 103.799502908
v -12.528430198 41.078146588 103.793093086
v -12.534923181 41.003636295 103.782775470
v -12.541886607 40.929905003 103.768871782
v -12.549233009 40.857225369 103.751543179
v -12.502175726 -16.795173728 -80.238150435
v -12.506288631 40.511697196 100.890856791
v -12.509710862 40.446942374 100.928000377
v -12.503587758 40.577676344 100.857003533
v -12.501626970 40.644573123 100.826528108
v -12.500424990 40.712080836 100.799518020
v -12.556874917 40.785870055 103.730950815
v -12.564724864 40.716111718 103.707255847
v -12.572695381 40.648223019 103.680619430
v -12.580944297 40.580495031 103.650257372
v -12.589148512 40.515212680 103.617051115
v -12.597511108 40.450296998 103.579858689
v -12.519573420 -17.127465937 -80.132789491
v -12.529401903 40.213460412 101.101184848
v -12.535368898 40.163663938 101.148244927
v -12.523539247 40.268934271 101.053495286
v -12.518644499 40.322332488 101.011808513
v -12.513835726 40.383718573 100.968346786
v -12.614649708 40.320342958 103.491874350
v -12.622963955 40.257900578 103.442419147
v -12.630177970 40.203543952 103.394974231
v -12.636866194 40.152637628 103.346308164
v -12.642989963 40.105207620 103.296699097
v -12.648678196 40.059976276 103.244863257
v -12.653838419 40.017234571 103.191054490
v -12.658722421 39.974475008 103.131744595
v -12.663005262 39.934162349 103.069869717
v -12.666694960 39.895906735 103.004603804
v -12.669595576 39.861531679 102.939085324
v -12.554325554 -17.458518436 -80.027821625
v -12.565599253 39.971131743 101.378817967
v -12.574149247 39.928645787 101.444233075
v -12.557176590 40.017333727 101.314889231
v -12.548988831 40.067091883 101.252802071
v -12.541909597 40.114782628 101.198791751
v -12.671801234 39.829647852 102.870668016
v -12.673194777 39.801388314 102.801551785
v -12.673620849 39.786749932 102.761429964
v -12.673763848 39.773371009 102.721248629
v -12.606345729 -17.787508175 -79.923507805
v -12.630092086 39.736927625 101.921882609
v -12.637205676 39.722551135 101.995484814
v -12.622616834 39.754707208 101.849368288
v -12.614869669 39.775728960 101.778214292
v -12.606940341 39.799831957 101.708693062
v -12.598918599 39.826855273 101.641077037
v -12.590666748 39.857524073 101.573811504
v -12.582479742 39.891062628 101.508903840
v -12.675504615 -18.113617236 -79.820107371
v -12.673354881 39.753295105 102.652150586
v -12.672142205 39.736315440 102.581233742
v -12.670147160 39.722538062 102.508801947
v -12.667391087 39.712069017 102.435159049
v -12.663895325 39.705014351 102.360608899
v -12.659681215 39.701480112 102.285455345
v -12.654770096 39.701572347 102.210002237
v -12.649771783 39.704843640 102.142089452
v -12.643867855 39.711738665 102.069902462
v -12.761630271 -18.436034859 -79.717877394
v -12.864508577 -18.753959462 -79.617072031
v -12.983883759 -19.066600637 -79.517941903
v -13.119459034 -19.373181107 -79.420733461
v -13.270897338 -19.672938664 -79.325688382
v -13.437822174 -19.965128065 -79.233042962
v -13.619818538 -20.249022881 -79.143027533
v -13.816433960 -20.523917304 -79.055865886
v -14.027179623 -20.789127903 -78.971774721
v -14.251531579 -21.043995324 -78.890963100
v -14.488932055 -21.287885925 -78.813631933
v -14.738790836 -21.520193356 -78.739973480
v -15.000486732 -21.740340065 -78.670170865
v -15.273369128 -21.947778731 -78.604397629
v -15.556759594 -22.141993630 -78.542817295
v -15.849953576 -22.322501912 -78.485582962
v -16.152222150 -22.488854806 -78.432836922
v -16.462813826 -22.640638733 -78.384710311
v -16.780956426 -22.777476333 -78.341322780
v -17.105858997 -22.899027407 -78.302782195
v -17.436713779 -23.004989759 -78.269184376
v -17.772698216 -23.095099950 -78.240612852
v -18.112976998 -23.169133953 -78.217138656
v -18.456704137 -23.226907707 -78.198820149
v -18.803025074 -23.268277577 -78.185702873
v -19.151078800 -23.293140712 -78.177819440
v -12.606128410 40.384594088 103.537741121
v -26.393059659 40.378448408 103.533560330
v -26.481355501 41.207042857 103.802048909
v -26.393871590 42.699311230 102.803806418
v -24.941381902 -22.218960859 -78.518413052
v -25.226934794 -21.953466652 -78.602594142
v -24.642300877 -22.470557098 -78.438638635
v -25.498249624 -21.674734537 -78.690972618
v -24.330435283 -22.707629859 -78.363469223
v -25.754651860 -21.383457485 -78.783328756
v -24.006560465 -22.929589743 -78.293091698
v -25.995504046 -21.080359657 -78.879432945
v -23.671481627 -23.135884923 -78.227681032
v -26.220207385 -20.766194602 -78.979046255
v -23.326031829 -23.326002517 -78.167399843
v -26.428203230 -20.441743384 -79.081921032
v -22.971069913 -23.499469861 -78.112398002
v -26.618974470 -20.107812640 -79.187801512
v -22.607478370 -23.655855690 -78.062812252
v -26.792046818 -19.765232574 -79.296424459
v -22.236161147 -23.794771203 -78.018765870
v -26.946989989 -19.414854895 -79.407519821
v -21.858041395 -23.915871034 -77.980368362
v -27.083418769 -19.057550695 -79.520811397
v -21.474059182 -24.018854110 -77.947715192
v -27.200993976 -18.694208291 -79.636017525
v -21.085169146 -24.103464399 -77.920887539
v -27.299423297 -18.325731008 -79.752851785
v -20.692338129 -24.169491546 -77.899952102
v -27.378462024 -17.953034938 -79.871023710
v -20.296542773 -24.216771398 -77.884960930
v -27.437913653 -17.577046664 -79.990239504
v -19.898767085 -24.245186409 -77.875951292
v -27.477630377 -17.198700952 -80.110202779
v -19.500000000 -24.254665935 -77.872945589
v -27.497513456 -16.818938427 -80.230615287
v -19.101232915 -24.245186409 -77.875951292
v -27.497513456 -16.438703240 -80.351177663
v -18.703457227 -24.216771398 -77.884960930
v -27.477630377 -16.058940715 -80.471590171
v -18.307661871 -24.169491546 -77.899952102
v -27.437913653 -15.680595002 -80.591553445
v -17.914830854 -24.103464399 -77.920887539
v -27.378462024 -15.304606728 -80.710769240
v -17.525940818 -24.018854110 -77.947715192
v -27.299423297 -14.931910659 -80.828941164
v -17.141958605 -23.915871034 -77.980368362
v -27.200993976 -14.563433376 -80.945775425
v -16.763838853 -23.794771203 -78.018765870
v -27.083418769 -14.200090972 -81.060981553
v -16.392521630 -23.655855690 -78.062812252
v -26.946989989 -13.842786772 -81.174273128
v -16.028930087 -23.499469861 -78.112398002
v -26.792046818 -13.492409093 -81.285368490
v -15.673968171 -23.326002517 -78.167399843
v -26.618974470 -13.149829027 -81.393991438
v -15.328518373 -23.135884923 -78.227681032
v -26.428203230 -12.815898283 -81.499871918
v -14.993439535 -22.929589743 -78.293091698
v -26.220207385 -12.491447065 -81.602746694
v -25.995504046 -12.177282010 -81.702360004
v -14.669564717 -22.707629859 -78.363469223
v -25.754651860 -11.874184182 -81.798464193
v -14.357699123 -22.470557098 -78.438638635
v -25.498249624 -11.582907130 -81.890820332
v -14.058618098 -22.218960859 -78.518413052
v -25.226934794 -11.304175014 -81.979198808
v -13.773065206 -21.953466652 -78.602594142
v -24.941381902 -11.038680807 -82.063379898
v -13.501750376 -21.674734537 -78.690972618
v -24.642300877 -10.787084569 -82.143154315
v -13.245348140 -21.383457485 -78.783328756
v -24.330435283 -10.550011808 -82.218323727
v -13.004495954 -21.080359657 -78.879432945
v -24.006560465 -10.328051924 -82.288701251
v -12.779792615 -20.766194602 -78.979046255
v -23.671481627 -10.121756744 -82.354111918
v -12.571796770 -20.441743384 -79.081921032
v -23.326031829 -9.931639150 -82.414393106
v -12.381025530 -20.107812640 -79.187801512
v -22.971069913 -9.758171805 -82.469394947
v -12.207953182 -19.765232574 -79.296424459
v -22.607478370 -9.601785977 -82.518980697
v -12.053010011 -19.414854895 -79.407519821
v -22.236161147 -9.462870464 -82.563027080
v -11.916581231 -19.057550695 -79.520811397
v -21.858041395 -9.341770633 -82.601424587
v -11.799006024 -18.694208291 -79.636017525
v -21.474059182 -9.238787557 -82.634077757
v -11.700576703 -18.325731008 -79.752851785
v -21.085169146 -9.154177268 -82.660905410
v -11.621537976 -17.953034938 -79.871023710
v -20.692338129 -9.088150121 -82.681840847
v -11.562086347 -17.577046664 -79.990239504
v -20.296542773 -9.040870269 -82.696832019
v -11.522369623 -17.198700952 -80.110202779
v -19.898767085 -9.012455258 -82.705841657
v -11.502486544 -16.818938427 -80.230615287
v -19.500000000 -9.002975732 -82.708847361
v -11.502486544 -16.438703240 -80.351177663
v -19.101232915 -9.012455258 -82.705841657
v -11.522369623 -16.058940715 -80.471590171
v -18.703457227 -9.040870269 -82.696832019
v -11.562086347 -15.680595002 -80.591553445
v -18.307661871 -9.088150121 -82.681840847
v -11.621537976 -15.304606728 -80.710769240
v -17.914830854 -9.154177268 -82.660905410
v -11.700576703 -14.931910659 -80.828941164
v -17.525940818 -9.238787557 -82.634077757
v -11.799006024 -14.563433376 -80.945775425
v -17.141958605 -9.341770633 -82.601424587
v -11.916581231 -14.200090972 -81.060981553
v -16.763838853 -9.462870464 -82.563027080
v -12.053010011 -13.842786772 -81.174273128
v -16.392521630 -9.601785977 -82.518980697
v -12.207953182 -13.492409093 -81.285368490
v -16.028930087 -9.758171805 -82.469394947
v -12.381025530 -13.149829027 -81.393991438
v -15.673968171 -9.931639150 -82.414393106
v -12.571796770 -12.815898283 -81.499871918
v -15.328518373 -10.121756744 -82.354111918
v -12.779792615 -12.491447065 -81.602746694
v -14.993439535 -10.328051924 -82.288701251
v -13.004495954 -12.177282010 -81.702360004
v -14.669564717 -10.550011808 -82.218323727
v -13.245348140 -11.874184182 -81.798464193
v -14.357699123 -10.787084569 -82.143154315
v -13.501750376 -11.582907130 -81.890820332
v -14.058618098 -11.038680807 -82.063379898
v -13.773065206 -11.304175014 -81.979198808
v -27.348541926 39.787309982 102.763032247
v -27.348407482 39.773371009 102.721248629
v -27.348942459 39.802611547 102.804752420
v -27.369412185 40.052289498 103.235553930
v -27.364878972 40.008746668 103.179746176
v -27.360863380 39.967884848 103.122055905
v -27.357380308 39.929775866 103.062738039
v -27.354444653 39.894491550 103.002047496
v -27.351906185 39.859639984 102.935253881
v -27.350085207 39.829088069 102.869385874
v -27.374436622 40.098431434 103.289233783
v -27.379880470 40.146990529 103.340628761
v -27.386154627 40.201873455 103.393443001
v -27.392953350 40.260670196 103.444719904
v -27.399482700 40.316937781 103.489303987
v -27.406913512 40.381190874 103.535429803
v -27.414435842 40.446922402 103.577806886
v -27.428911603 40.577175468 103.648665643
v -27.421743206 40.511890183 103.615250356
v -27.348765458 39.753234117 102.651919903
v -27.436120693 40.644883919 103.679213311
v -27.449950137 40.782411050 103.729858702
v -27.443085538 40.712707237 103.706004917
v -27.456637875 40.853721793 103.750613995
v -27.463072139 40.926365898 103.768110124
v -27.474873796 41.074559931 103.792682206
v -27.469176317 41.000069800 103.782186418
v -27.349827166 39.736212073 102.580751498
v -27.351574272 39.722413393 102.508050735
v -27.353988441 39.711946597 102.434124935
v -27.357051342 39.704920202 102.359281418
v -27.360744640 39.701442728 102.283827504
v -27.365050002 39.701622693 102.208070514
v -27.369432989 39.705001462 102.139884094
v -27.374594452 39.712015137 102.067619543
v -27.380410501 39.722941890 101.993209795
v -27.386619390 39.737430051 101.919618294
v -27.393142983 39.755319083 101.847118478
v -27.399903139 39.776448449 101.775983787
v -27.406821721 39.800657611 101.706487660
v -27.413820591 39.827786032 101.638903536
v -27.484103374 41.213980029 103.802216924
v -27.479917704 41.147012036 103.799273084
v -27.488253697 41.289169692 103.802030155
v -27.494740211 41.438264041 103.790980492
v -27.491804758 41.364031276 103.798249255
v -27.421028321 39.858599360 101.571602833
v -27.428183073 39.892307332 101.506639202
v -27.435466396 39.930087942 101.441891367
v -27.442939982 39.972781551 101.376417702
v -27.450300091 40.019193991 101.312452775
v -27.457452184 40.069163605 101.250353137
v -27.497043713 41.511567244 103.780330131
v -27.499689478 41.654182001 103.749309691
v -27.498698917 41.583640145 103.766404442
v -27.499999981 41.718849492 103.730438784
v -27.498638985 41.854100600 103.680327701
v -27.499659611 41.786615799 103.707160660
v -27.463633079 40.117044037 101.196352978
v -27.469340603 40.166107862 101.145836422
v -27.474543921 40.216078833 101.098825893
v -27.479647398 40.271689268 101.051247906
v -27.483904078 40.325200057 101.009675783
v -27.488080812 40.386672208 100.966365158
v -27.491659015 40.449960946 100.926177186
v -27.494622341 41.986997753 103.616342983
v -27.496954446 41.920996927 103.650026329
v -27.491659015 42.051796048 103.579364104
v -27.479647398 42.230067726 103.454293383
v -27.483904078 42.176556937 103.495865507
v -27.488080812 42.115084786 103.539176132
v -27.494622341 40.514759242 100.889198306
v -27.496954446 40.580760067 100.855514961
v -27.498638985 40.647656394 100.825213588
v -27.499659611 40.715141195 100.798380629
v -27.499999981 40.782907502 100.775102505
v -27.469340603 42.335649132 103.359704868
v -27.474543921 42.285678162 103.406715396
v -27.463633079 42.384712958 103.309188312
v -27.457452184 42.432593389 103.255188152
v -27.442939982 42.528975443 103.129123587
v -27.450300091 42.482563004 103.193088515
v -27.499689478 40.847574993 100.756231598
v -27.498698917 40.918116849 100.739136847
v -27.497043713 40.990189750 100.725211158
v -27.494740211 41.063492953 100.714560798
v -27.491804758 41.137725718 100.707292034
v -27.488253697 41.212587302 100.703511134
v -27.428183073 42.609449663 102.998902087
v -27.435466396 42.571669053 103.063649922
v -27.421028321 42.643157634 102.933938456
v -27.413820591 42.673970962 102.866637753
v -27.386619390 42.764326943 102.585922996
v -27.393142983 42.746437911 102.658422812
v -27.399903139 42.725308546 102.729557503
v -27.406821721 42.701099383 102.799053630
v -27.484103374 41.287776965 100.703324365
v -27.479917704 41.354744958 100.706268206
v -27.474873796 41.427197063 100.712859083
v -27.469176317 41.501687194 100.723354871
v -27.463072139 41.575391096 100.737431166
v -27.380410501 42.778815104 102.512331494
v -27.374594452 42.789741857 102.437921746
v -27.369432989 42.796755532 102.365657195
v -27.365050002 42.800134301 102.297470775
v -27.360744640 42.800314266 102.221713785
v -27.357051342 42.796836792 102.146259872
v -27.353988441 42.789810398 102.071416355
v -27.351574272 42.779343601 101.997490554
v -27.349827166 42.765544921 101.924789791
v -27.348407482 42.728385986 101.784292661
v -27.348765458 42.748522877 101.853621387
v -27.456637875 41.648035201 100.754927295
v -27.449950137 41.719345944 100.775682587
v -27.443085538 41.789049758 100.799536372
v -27.436120693 41.856873075 100.826327978
v -27.428911603 41.924581526 100.856875647
v -27.421743206 41.989866812 100.890290934
v -27.414435842 42.054834592 100.927734404
v -27.406913512 42.120566121 100.970111487
v -27.399482700 42.184819213 101.016237303
v -27.392953350 42.241086798 101.060821385
v -27.386154627 42.299883539 101.112098289
v -27.379880470 42.354766465 101.164912528
v -27.374436622 42.403325560 101.216307507
v -27.369412185 42.449467496 101.269987359
v -27.364878972 42.493010326 101.325795114
v -27.360863380 42.533872146 101.383485384
v -27.357380308 42.571981128 101.442803251
v -27.354444653 42.607265444 101.503493793
v -27.351906185 42.642117010 101.570287409
v -27.350085207 42.672668925 101.636155416
v -27.348942459 42.699145447 101.700788869
v -27.348541926 42.714447012 101.742509043
v -11.651057541 42.752604011 101.869388956
v -11.651573301 42.733307308 101.800123918
v -11.630587815 42.796777712 102.365350350
v -11.635121028 42.800207817 102.294648738
v -11.639136620 42.800362003 102.223953393
v -11.642619692 42.797328454 102.153514047
v -11.645555347 42.791195355 102.083580436
v -11.648093815 42.781191882 102.008908157
v -11.649914793 42.768207665 101.937469904
v -11.625563378 42.789997234 102.435810480
v -11.613845373 42.765501392 102.580585362
v -11.620119530 42.779924638 102.505795995
v -11.607046650 42.746993558 102.656373472
v -11.600517300 42.726696283 102.725234218
v -11.593086488 42.700760848 102.799956396
v -11.585564158 42.671457010 102.872466644
v -11.571088397 42.605831496 103.005433244
v -11.578256794 42.639934553 102.940504580
v -11.651384367 42.710822219 101.732275748
v -11.550049863 42.484877767 103.190052182
v -11.556914462 42.528101568 103.130392081
v -11.543362125 42.438555226 103.248105833
v -11.536927861 42.389264948 103.304264084
v -11.525126204 42.282305198 103.409738585
v -11.530823683 42.337137937 103.358237984
v -11.650497702 42.684781288 101.664698821
v -11.648931168 42.655252686 101.597642160
v -11.646702699 42.622322882 101.531412651
v -11.643830229 42.586078348 101.466317181
v -11.640331695 42.546605555 101.402662637
v -11.636339433 42.505138794 101.342341873
v -11.632142925 42.464155674 101.288214263
v -11.627116872 42.417422905 101.232165384
v -11.621438498 42.366431358 101.176829629
v -11.615343055 42.312911034 101.124174155
v -11.608908682 42.257150699 101.074329938
v -11.602213517 42.199439119 101.027427957
v -11.595335699 42.140065062 100.983599188
v -11.588353365 42.079317294 100.942974607
v -11.515896626 42.173851588 103.497867405
v -11.520082296 42.226888059 103.456873369
v -11.511746303 42.112291660 103.541040263
v -11.505259789 41.984070256 103.617919984
v -11.508195242 42.048928874 103.581086602
v -11.581101407 42.015318356 100.904450059
v -11.573902383 41.950427485 100.869615850
v -11.566593603 41.882636378 100.837485464
v -11.559818296 41.817647480 100.810388364
v -11.552575178 41.745358098 100.784162585
v -11.545690310 41.673292733 100.761866885
v -11.539523131 41.605237084 100.744180740
v -11.502956287 41.918022836 103.651453968
v -11.500310522 41.783589700 103.708277982
v -11.501301083 41.851093641 103.681602114
v -11.500000019 41.719863412 103.730117298
v -11.501361015 41.580448228 103.767095526
v -11.500340389 41.651064960 103.750140194
v -11.533621617 41.536139579 100.729477168
v -11.528050009 41.466229609 100.717890893
v -11.522872550 41.395736566 100.709556643
v -11.518159348 41.324891237 100.704588303
v -11.513956874 41.253938363 100.702956841
v -11.510279279 41.183130074 100.704573351
v -11.505377659 41.434962712 103.791378484
v -11.503045554 41.508313899 103.780877045
v -11.508340985 41.360695411 103.798493574
v -11.520352602 41.142926673 103.798996644
v -11.516095922 41.210615427 103.802139644
v -11.511919188 41.285812735 103.802116050
v -11.507140268 41.112718550 100.709348724
v -11.504553548 41.042955968 100.717193855
v -11.502396027 40.968632072 100.729011792
v -11.500948019 40.897698192 100.743724225
v -11.500169016 40.830266798 100.760973195
v -11.500031565 40.761962903 100.781908476
v -11.530659397 41.002131838 103.782527424
v -11.525456079 41.070061206 103.792154918
v -11.536366921 40.932923648 103.769511752
v -11.542547816 40.862675333 103.752967048
v -11.557060018 40.711262094 103.705471722
v -11.549699909 40.786052484 103.731006484
v -11.500583810 40.694250823 100.806293901
v -11.501811264 40.626915029 100.834207478
v -11.503697580 40.560262549 100.865562768
v -11.506226414 40.494600412 100.900273329
v -11.509381420 40.430235646 100.938252723
v -11.571816927 40.570454992 103.645412593
v -11.564533604 40.638641735 103.676561023
v -11.578971679 40.505472460 103.611741072
v -11.586179409 40.441509054 103.574491529
v -11.613380610 40.205908959 103.397128698
v -11.606857017 40.262305187 103.446074651
v -11.600096861 40.320563123 103.492037759
v -11.593178279 40.380394001 103.534887044
v -11.513146254 40.367475279 100.979414508
v -11.517376754 40.308273611 101.022412850
v -11.521781239 40.255314516 101.064767518
v -11.526962339 40.201010476 101.112557925
v -11.532802919 40.147058837 101.164909188
v -11.539024839 40.095856289 101.219638108
v -11.630567011 40.052484435 103.235791933
v -11.625405548 40.099856699 103.290812162
v -11.634949998 40.010432855 103.182010258
v -11.639255360 39.966633365 103.120197974
v -11.642948658 39.925997726 103.056525917
v -11.646011559 39.888614331 102.991307790
v -11.648425728 39.854571571 102.924857296
v -11.650172834 39.823957836 102.857488136
v -11.651592518 39.773371009 102.721248629
v -11.651234542 39.796861518 102.789514013
v -11.573353853 39.884788786 101.520463636
v -11.580487757 39.851866116 101.585589047
v -11.587766176 39.821399862 101.654015695
v -11.545551487 40.047533837 101.276455735
v -11.552306249 40.002222484 101.335073118
v -11.559212512 39.960053234 101.395201310
v -11.566193662 39.921157092 101.456551359
v -11.595231051 39.793205368 101.726801818
v -11.602577904 39.768399102 101.801679550
v -11.609711358 39.747177012 101.878315135
v -11.615870185 39.731303553 101.948514279
v -11.621550852 39.718944678 102.017622364
v -11.626722420 39.709958214 102.085407456
v -11.631339539 39.704214211 102.151376842
v -11.635950307 39.701263347 102.224773623
v -11.639940611 39.701786918 102.296950375
v -11.643462347 39.705774647 102.370865696
v -11.646375154 39.713159048 102.444148486
v -11.648686291 39.723991683 102.517406379
v -11.650337513 39.738095310 102.589417925
v -11.651276231 39.754360708 102.656153753
v -11.619589499 40.151663208 103.345330876
v -11.563879307 42.568095624 103.069414478
f 1 2 3
f 4 5 1
f 1 5 2
f 3 6 7
f 2 6 3
f 8 9 4
f 4 9 5
f 7 10 11
f 6 10 7
f 12 13 8
f 8 13 9
f 11 14 15
f 10 14 11
f 16 17 12
f 12 17 13
f 15 18 19
f 14 18 15
f 20 21 16
f 16 21 17
f 18 22 19
f 19 22 23
f 24 25 20
f 20 25 21
f 22 26 23
f 23 26 27
f 28 29 24
f 24 29 25
f 27 30 31
f 26 30 27
f 32 33 28
f 28 33 29
f 31 34 35
f 30 34 31
f 32 36 33
f 37 36 32
f 35 38 39
f 34 38 35
f 40 41 37
f 37 41 36
f 38 42 39
f 39 42 43
f 44 45 40
f 40 45 41
f 43 46 47
f 42 46 43
f 48 49 44
f 44 49 45
f 47 50 51
f 46 50 47
f 52 53 48
f 48 53 49
f 51 54 55
f 50 54 51
f 56 57 52
f 52 57 53
f 54 58 55
f 55 58 59
f 56 60 57
f 61 60 56
f 59 62 63
f 58 62 59
f 64 65 61
f 61 65 60
f 63 66 67
f 62 66 63
f 68 69 64
f 64 69 65
f 67 70 71
f 66 70 67
f 72 73 68
f 68 73 69
f 71 74 75
f 70 74 71
f 72 76 73
f 77 76 72
f 75 78 79
f 74 78 75
f 80 81 77
f 77 81 76
f 78 82 79
f 79 82 83
f 80 84 81
f 85 84 80
f 82 86 83
f 83 86 87
f 88 89 85
f 85 89 84
f 86 90 87
f 87 90 91
f 92 93 88
f 88 93 89
f 91 94 95
f 90 94 91
f 92 96 93
f 97 96 92
f 94 98 95
f 95 98 99
f 97 100 96
f 97 101 100
f 99 102 103
f 98 102 99
f 101 104 100
f 101 105 104
f 102 106 103
f 103 106 107
f 105 108 104
f 105 109 108
f 107 110 111
f 106 110 107
f 109 112 108
f 111 113 114
f 110 113 111
f 109 115 112
f 115 116 112
f 114 117 118
f 113 117 114
f 115 119 116
f 119 120 116
f 118 121 122
f 117 121 118
f 119 123 120
f 123 124 120
f 122 125 126
f 121 125 122
f 123 127 124
f 124 127 128
f 125 129 126
f 129 130 126
f 127 131 128
f 128 131 132
f 133 134 129
f 129 134 130
f 131 135 132
f 132 135 136
f 133 137 134
f 137 138 134
f 135 139 136
f 136 139 140
f 137 141 138
f 141 142 138
f 141 143 142
f 139 144 140
f 140 144 145
f 143 146 142
f 143 147 146
f 144 148 145
f 145 148 149
f 147 150 146
f 147 151 150
f 149 152 153
f 148 152 149
f 151 154 150
f 155 154 151
f 153 156 157
f 152 156 153
f 155 158 154
f 159 158 155
f 157 160 161
f 156 160 157
f 159 162 158
f 163 162 159
f 161 164 165
f 160 164 161
f 163 166 162
f 167 166 163
f 165 168 169
f 164 168 165
f 167 170 166
f 171 170 167
f 169 172 173
f 168 172 169
f 171 174 170
f 173 175 176
f 172 175 173
f 171 177 174
f 178 177 179
f 179 177 171
f 175 180 176
f 176 180 181
f 178 182 177
f 183 182 178
f 180 184 181
f 181 184 185
f 183 186 182
f 187 186 183
f 184 188 185
f 185 188 189
f 187 190 186
f 191 190 187
f 188 192 189
f 189 192 193
f 191 194 190
f 195 194 191
f 192 196 193
f 193 196 197
f 195 198 194
f 199 198 195
f 196 200 197
f 197 200 201
f 199 202 198
f 203 202 199
f 200 204 201
f 201 204 205
f 203 206 202
f 207 206 203
f 205 208 209
f 204 208 205
f 210 211 207
f 207 211 206
f 208 212 209
f 209 212 213
f 214 215 210
f 210 215 211
f 213 216 217
f 212 216 213
f 214 218 215
f 219 218 214
f 216 220 217
f 217 220 221
f 219 222 218
f 223 222 219
f 221 224 225
f 220 224 221
f 223 226 222
f 227 226 223
f 224 228 225
f 225 228 229
f 227 230 226
f 231 230 227
f 229 232 233
f 228 232 229
f 231 234 230
f 235 234 231
f 233 236 237
f 232 236 233
f 235 238 234
f 239 238 235
f 236 240 237
f 237 240 241
f 239 242 238
f 243 242 239
f 240 244 241
f 241 244 245
f 243 246 242
f 247 246 243
f 244 248 245
f 245 248 249
f 247 250 246
f 251 250 247
f 251 252 250
f 248 252 249
f 249 252 251
f 65 253 60
f 253 254 60
f 254 255 60
f 57 255 53
f 60 255 57
f 255 256 53
f 53 256 49
f 256 257 49
f 257 258 49
f 45 258 41
f 49 258 45
f 258 259 41
f 36 260 33
f 41 260 36
f 259 260 41
f 260 261 33
f 33 262 29
f 261 262 33
f 25 263 21
f 29 263 25
f 262 263 29
f 263 264 21
f 17 265 13
f 21 265 17
f 264 265 21
f 265 266 13
f 13 267 9
f 266 267 13
f 5 268 2
f 9 268 5
f 267 268 9
f 2 269 6
f 268 269 2
f 269 270 6
f 6 271 10
f 270 271 6
f 10 272 14
f 271 272 10
f 272 273 14
f 14 273 18
f 273 274 18
f 18 274 22
f 274 275 22
f 22 275 26
f 275 276 26
f 30 276 34
f 26 276 30
f 276 277 34
f 277 278 34
f 34 278 38
f 42 279 46
f 279 280 46
f 280 281 46
f 281 282 46
f 282 283 46
f 283 284 46
f 284 285 46
f 285 286 46
f 286 287 46
f 287 288 46
f 288 289 46
f 289 50 46
f 290 50 289
f 291 50 290
f 292 50 291
f 38 293 42
f 278 293 38
f 42 293 279
f 294 295 50
f 295 296 50
f 296 297 50
f 298 54 297
f 299 54 298
f 297 54 50
f 300 301 302
f 303 301 300
f 304 301 303
f 305 301 304
f 306 301 305
f 307 301 306
f 308 301 307
f 309 301 308
f 310 301 309
f 279 301 310
f 293 301 279
f 311 312 54
f 312 313 54
f 314 58 313
f 315 58 314
f 313 58 54
f 316 317 318
f 319 317 316
f 320 317 319
f 321 317 320
f 322 317 321
f 323 317 322
f 302 317 323
f 301 317 302
f 318 317 324
f 325 326 58
f 327 62 326
f 328 62 327
f 326 62 58
f 317 329 324
f 330 329 331
f 332 329 330
f 333 329 332
f 334 329 333
f 324 329 334
f 335 336 62
f 336 337 62
f 338 66 337
f 339 66 338
f 337 66 62
f 329 340 331
f 341 340 342
f 343 340 341
f 344 340 343
f 345 340 344
f 331 340 345
f 346 347 66
f 347 348 66
f 349 70 348
f 350 70 349
f 348 70 66
f 340 351 342
f 352 351 353
f 354 351 352
f 355 351 354
f 356 351 355
f 342 351 356
f 357 358 70
f 358 359 70
f 360 74 359
f 361 74 360
f 359 74 70
f 351 362 353
f 363 362 364
f 365 362 363
f 366 362 365
f 367 362 366
f 353 362 367
f 368 369 74
f 369 370 74
f 370 371 74
f 372 78 371
f 373 78 372
f 371 78 74
f 374 375 376
f 377 375 374
f 378 375 377
f 379 375 378
f 364 375 379
f 362 375 364
f 380 381 78
f 381 382 78
f 382 383 78
f 384 82 383
f 385 82 384
f 386 82 385
f 387 82 386
f 388 82 387
f 389 82 388
f 390 82 389
f 383 82 78
f 375 391 376
f 392 391 393
f 394 391 392
f 395 391 394
f 396 391 395
f 397 391 396
f 376 391 397
f 390 398 82
f 398 399 82
f 399 400 82
f 400 86 82
f 391 401 393
f 402 401 403
f 404 401 402
f 405 401 404
f 406 401 405
f 407 401 406
f 408 401 407
f 409 401 408
f 393 401 409
f 410 411 400
f 412 411 410
f 413 411 412
f 414 411 413
f 415 411 414
f 416 411 415
f 417 411 416
f 418 411 417
f 419 411 418
f 403 411 419
f 401 411 403
f 86 420 90
f 411 420 400
f 400 420 86
f 420 421 90
f 90 422 94
f 421 422 90
f 98 423 102
f 94 423 98
f 422 423 94
f 423 424 102
f 102 425 106
f 424 425 102
f 110 426 113
f 106 426 110
f 425 426 106
f 426 427 113
f 117 428 121
f 113 428 117
f 427 428 113
f 428 429 121
f 121 430 125
f 429 430 121
f 129 431 133
f 125 431 129
f 430 431 125
f 133 432 137
f 431 432 133
f 432 433 137
f 141 434 143
f 137 434 141
f 433 434 137
f 434 435 143
f 143 436 147
f 435 436 143
f 436 437 147
f 147 437 151
f 437 438 151
f 155 438 159
f 151 438 155
f 438 439 159
f 439 440 159
f 159 440 163
f 440 441 163
f 163 441 167
f 441 442 167
f 171 442 179
f 167 442 171
f 442 443 179
f 179 443 178
f 443 444 178
f 444 445 178
f 183 445 187
f 178 445 183
f 445 446 187
f 446 447 187
f 187 447 191
f 447 448 191
f 191 448 195
f 448 449 195
f 199 449 203
f 195 449 199
f 449 450 203
f 450 451 203
f 203 451 207
f 451 452 207
f 210 452 214
f 207 452 210
f 452 453 214
f 453 454 214
f 219 454 223
f 214 454 219
f 454 455 223
f 223 456 227
f 455 456 223
f 227 457 231
f 456 457 227
f 235 458 239
f 231 458 235
f 457 458 231
f 239 459 243
f 458 459 239
f 459 460 243
f 460 461 243
f 243 461 247
f 461 462 247
f 247 462 251
f 462 463 251
f 251 463 249
f 463 464 249
f 245 464 241
f 249 464 245
f 464 465 241
f 465 466 241
f 241 466 237
f 466 467 237
f 237 467 233
f 467 468 233
f 233 468 229
f 468 469 229
f 225 469 221
f 229 469 225
f 469 470 221
f 470 471 221
f 221 471 217
f 213 472 209
f 472 473 209
f 473 474 209
f 474 475 209
f 475 476 209
f 476 477 209
f 477 478 209
f 478 479 209
f 479 480 209
f 480 481 209
f 481 482 209
f 483 205 482
f 484 205 483
f 485 205 484
f 482 205 209
f 471 486 217
f 213 486 472
f 217 486 213
f 485 487 205
f 488 489 205
f 489 490 205
f 490 491 205
f 491 201 205
f 492 201 491
f 493 201 492
f 494 495 496
f 497 495 494
f 498 495 497
f 499 495 498
f 500 495 499
f 501 495 500
f 502 495 501
f 503 495 502
f 504 495 503
f 505 495 504
f 472 495 505
f 486 495 472
f 506 507 201
f 507 508 201
f 509 197 508
f 510 197 509
f 508 197 201
f 511 512 513
f 514 512 511
f 515 512 514
f 516 512 515
f 517 512 516
f 518 512 517
f 496 512 518
f 495 512 496
f 519 520 197
f 520 521 197
f 522 193 521
f 523 193 522
f 521 193 197
f 513 524 525
f 512 524 513
f 526 524 527
f 528 524 526
f 529 524 528
f 530 524 529
f 525 524 530
f 531 532 193
f 532 533 193
f 533 189 193
f 534 189 533
f 535 189 534
f 524 536 527
f 537 536 538
f 539 536 537
f 540 536 539
f 541 536 540
f 527 536 541
f 542 543 189
f 543 544 189
f 544 185 189
f 545 185 544
f 546 185 545
f 536 547 538
f 548 547 549
f 550 547 548
f 551 547 550
f 552 547 551
f 538 547 552
f 553 554 185
f 554 555 185
f 555 181 185
f 556 181 555
f 557 181 556
f 547 558 549
f 559 558 560
f 561 558 559
f 562 558 561
f 563 558 562
f 549 558 563
f 564 565 181
f 565 566 181
f 566 567 181
f 568 176 567
f 567 176 181
f 569 176 568
f 558 570 560
f 571 570 572
f 573 570 571
f 574 570 573
f 575 570 574
f 560 570 575
f 576 577 176
f 577 578 176
f 578 579 176
f 579 173 176
f 580 173 579
f 581 173 580
f 582 173 581
f 583 173 582
f 584 173 583
f 585 173 584
f 586 173 585
f 570 587 572
f 588 587 589
f 590 587 588
f 591 587 590
f 592 587 591
f 572 587 592
f 586 593 173
f 593 594 173
f 594 595 173
f 595 596 173
f 596 169 173
f 587 597 589
f 598 597 599
f 600 597 598
f 601 597 600
f 602 597 601
f 603 597 602
f 604 597 603
f 605 597 604
f 589 597 605
f 597 606 599
f 607 606 596
f 608 606 607
f 609 606 608
f 610 606 609
f 611 606 610
f 612 606 611
f 613 606 612
f 614 606 613
f 615 606 614
f 599 606 615
f 606 616 596
f 596 616 169
f 169 617 165
f 616 617 169
f 165 618 161
f 617 618 165
f 161 619 157
f 618 619 161
f 153 620 149
f 157 620 153
f 619 620 157
f 620 621 149
f 149 621 145
f 621 622 145
f 145 623 140
f 622 623 145
f 140 624 136
f 623 624 140
f 624 625 136
f 136 625 132
f 625 626 132
f 128 626 124
f 132 626 128
f 626 627 124
f 627 628 124
f 124 628 120
f 628 629 120
f 116 629 112
f 120 629 116
f 629 630 112
f 630 631 112
f 108 631 104
f 112 631 108
f 631 632 104
f 632 633 104
f 104 633 100
f 96 634 93
f 100 634 96
f 633 634 100
f 634 635 93
f 89 636 84
f 93 636 89
f 635 636 93
f 636 637 84
f 84 638 81
f 637 638 84
f 81 639 76
f 638 639 81
f 76 640 73
f 639 640 76
f 73 641 69
f 640 641 73
f 69 253 65
f 641 253 69
f 487 488 205
f 493 506 201
f 510 519 197
f 523 531 193
f 535 542 189
f 546 553 185
f 557 564 181
f 569 642 176
f 642 576 176
f 292 643 50
f 643 294 50
f 299 311 54
f 315 644 58
f 644 325 58
f 328 335 62
f 339 346 66
f 350 357 70
f 361 368 74
f 373 645 78
f 645 380 78
f 269 646 647
f 268 648 646
f 268 646 269
f 270 647 649
f 270 269 647
f 267 650 648
f 267 648 268
f 271 649 651
f 271 270 649
f 266 652 650
f 266 650 267
f 272 651 653
f 272 271 651
f 265 652 266
f 265 654 652
f 273 653 655
f 273 272 653
f 264 656 654
f 264 654 265
f 274 655 657
f 274 273 655
f 263 656 264
f 263 658 656
f 275 274 657
f 275 657 659
f 262 660 658
f 262 658 263
f 276 275 659
f 276 659 661
f 261 662 660
f 261 660 262
f 277 276 661
f 277 661 663
f 260 664 662
f 260 662 261
f 278 277 663
f 278 663 665
f 259 666 664
f 259 664 260
f 293 665 667
f 293 278 665
f 258 668 666
f 258 666 259
f 301 293 667
f 301 667 669
f 257 670 668
f 257 668 258
f 317 669 671
f 317 301 669
f 256 672 670
f 256 670 257
f 329 671 673
f 329 317 671
f 255 674 672
f 255 672 256
f 340 673 675
f 340 329 673
f 254 676 674
f 254 674 255
f 351 675 677
f 351 340 675
f 253 678 676
f 253 676 254
f 362 677 679
f 362 351 677
f 641 680 678
f 641 678 253
f 375 679 681
f 375 362 679
f 640 682 680
f 640 680 641
f 391 681 683
f 391 375 681
f 639 684 682
f 639 682 640
f 401 391 683
f 401 683 685
f 638 684 639
f 638 686 684
f 411 401 685
f 411 685 687
f 637 686 638
f 637 688 686
f 420 687 689
f 420 411 687
f 636 688 637
f 636 690 688
f 421 420 689
f 421 689 691
f 635 692 690
f 635 690 636
f 422 421 691
f 422 691 693
f 634 694 692
f 634 692 635
f 423 422 693
f 423 693 695
f 633 694 634
f 696 694 633
f 424 423 695
f 424 695 697
f 632 696 633
f 698 696 632
f 425 424 697
f 425 697 699
f 631 698 632
f 700 698 631
f 426 699 701
f 426 425 699
f 630 700 631
f 427 701 702
f 427 426 701
f 703 700 630
f 629 703 630
f 428 702 704
f 428 427 702
f 705 703 629
f 628 705 629
f 429 704 706
f 429 428 704
f 707 705 628
f 627 707 628
f 430 706 708
f 430 429 706
f 709 707 627
f 709 627 626
f 431 430 708
f 710 431 708
f 711 709 626
f 711 626 625
f 432 431 710
f 712 432 710
f 713 711 625
f 713 625 624
f 433 432 712
f 714 433 712
f 715 713 624
f 715 624 623
f 434 433 714
f 716 434 714
f 435 434 716
f 717 715 623
f 717 623 622
f 718 435 716
f 436 435 718
f 719 717 622
f 719 622 621
f 720 436 718
f 437 436 720
f 721 719 621
f 721 621 620
f 722 437 720
f 722 438 437
f 723 620 619
f 723 721 620
f 724 438 722
f 725 619 618
f 725 723 619
f 726 438 724
f 726 440 439
f 726 439 438
f 727 618 617
f 727 725 618
f 728 440 726
f 728 441 440
f 729 617 616
f 729 727 617
f 730 441 728
f 730 442 441
f 731 616 606
f 731 729 616
f 732 443 442
f 732 442 730
f 733 606 597
f 733 731 606
f 734 443 732
f 734 444 443
f 735 733 597
f 735 597 587
f 736 444 734
f 737 735 587
f 737 587 570
f 738 444 736
f 738 446 445
f 738 445 444
f 739 737 570
f 739 570 558
f 740 446 738
f 740 447 446
f 741 739 558
f 741 558 547
f 742 447 740
f 742 448 447
f 743 741 547
f 743 547 536
f 744 448 742
f 744 449 448
f 745 743 536
f 745 536 524
f 746 449 744
f 746 450 449
f 747 745 524
f 747 524 512
f 748 450 746
f 748 451 450
f 749 512 495
f 749 747 512
f 750 452 451
f 750 451 748
f 751 749 495
f 751 495 486
f 752 453 452
f 752 452 750
f 753 486 471
f 753 751 486
f 754 453 752
f 754 454 453
f 755 753 471
f 755 471 470
f 756 454 754
f 756 455 454
f 757 470 469
f 757 755 470
f 758 455 756
f 758 456 455
f 759 757 469
f 759 469 468
f 760 456 758
f 760 457 456
f 761 759 468
f 761 468 467
f 762 457 760
f 762 458 457
f 763 467 466
f 763 761 467
f 764 458 762
f 764 459 458
f 765 763 466
f 765 466 465
f 766 459 764
f 766 460 459
f 767 765 465
f 767 465 464
f 768 460 766
f 768 461 460
f 769 767 464
f 769 464 463
f 770 461 768
f 770 462 461
f 771 769 463
f 771 462 770
f 771 463 462
f 676 61 56
f 674 56 52
f 674 676 56
f 672 674 52
f 670 52 48
f 670 672 52
f 668 48 44
f 668 44 40
f 668 670 48
f 666 668 40
f 664 40 37
f 664 666 40
f 662 37 32
f 662 32 28
f 662 664 37
f 660 662 28
f 658 28 24
f 658 24 20
f 658 660 28
f 656 658 20
f 654 20 16
f 654 656 20
f 652 16 12
f 652 654 16
f 650 12 8
f 650 652 12
f 648 8 4
f 648 4 1
f 648 650 8
f 646 648 1
f 647 1 3
f 647 646 1
f 649 3 7
f 649 647 3
f 651 7 11
f 651 11 15
f 651 649 7
f 653 15 19
f 653 651 15
f 655 653 19
f 657 655 19
f 657 19 23
f 659 657 23
f 659 23 27
f 659 27 31
f 661 659 31
f 663 661 31
f 663 31 35
f 665 663 35
f 665 35 39
f 772 773 47
f 774 772 47
f 51 775 776
f 51 776 777
f 51 777 778
f 51 778 779
f 51 779 780
f 51 780 781
f 51 781 774
f 51 774 47
f 782 775 51
f 667 665 39
f 667 39 43
f 667 43 47
f 783 782 51
f 784 783 51
f 785 784 51
f 786 785 51
f 787 786 51
f 788 787 51
f 55 789 790
f 55 790 788
f 55 788 51
f 669 773 791
f 669 667 47
f 669 47 773
f 792 789 55
f 793 794 55
f 795 793 55
f 796 795 55
f 59 796 55
f 59 797 798
f 59 798 796
f 671 791 799
f 671 799 800
f 671 800 801
f 671 801 802
f 671 802 803
f 671 803 804
f 671 804 805
f 671 805 806
f 671 806 807
f 671 807 808
f 671 808 809
f 671 809 810
f 671 810 811
f 671 811 812
f 671 669 791
f 813 814 59
f 815 813 59
f 63 815 59
f 63 816 817
f 63 817 815
f 673 671 812
f 673 812 818
f 673 818 819
f 673 819 820
f 673 820 821
f 673 821 822
f 673 822 823
f 824 816 63
f 825 826 63
f 827 825 63
f 67 827 63
f 67 828 829
f 67 829 827
f 675 823 830
f 675 673 823
f 675 830 831
f 675 831 832
f 675 832 833
f 675 833 834
f 675 834 835
f 675 835 836
f 837 838 67
f 839 837 67
f 71 840 841
f 71 841 842
f 71 842 839
f 71 839 67
f 677 836 843
f 677 843 844
f 677 844 845
f 677 845 846
f 677 846 847
f 677 675 836
f 848 849 71
f 850 848 71
f 851 850 71
f 75 851 71
f 75 852 853
f 75 853 851
f 679 847 854
f 679 854 855
f 679 855 856
f 679 856 857
f 679 857 858
f 679 858 859
f 679 677 847
f 860 861 75
f 862 860 75
f 863 862 75
f 79 864 865
f 79 863 75
f 79 865 866
f 79 866 867
f 79 867 863
f 681 679 859
f 681 859 868
f 681 868 869
f 681 869 870
f 681 870 871
f 681 871 872
f 873 864 79
f 874 873 79
f 875 874 79
f 876 875 79
f 877 876 79
f 878 877 79
f 879 878 79
f 880 879 79
f 881 880 79
f 83 881 79
f 83 882 883
f 83 883 881
f 683 872 884
f 683 681 872
f 683 884 885
f 683 885 886
f 683 886 887
f 683 887 888
f 683 888 889
f 683 889 890
f 685 890 891
f 685 891 892
f 685 892 893
f 685 893 894
f 685 894 895
f 685 895 896
f 685 896 897
f 685 897 898
f 685 898 899
f 685 899 900
f 685 900 901
f 685 901 902
f 685 902 903
f 685 903 904
f 685 904 905
f 685 683 890
f 687 882 83
f 687 685 905
f 687 83 87
f 687 905 882
f 689 687 87
f 691 689 87
f 691 87 91
f 693 691 91
f 693 91 95
f 695 693 95
f 695 95 99
f 697 695 99
f 697 99 103
f 699 697 103
f 699 103 107
f 701 699 107
f 701 107 111
f 702 701 111
f 702 111 114
f 704 702 114
f 704 114 118
f 704 118 122
f 706 704 122
f 708 122 126
f 708 126 130
f 708 706 122
f 710 130 134
f 710 708 130
f 712 710 134
f 714 134 138
f 714 138 142
f 714 712 134
f 716 714 142
f 718 142 146
f 718 146 150
f 718 716 142
f 720 718 150
f 722 720 150
f 722 150 154
f 724 722 154
f 724 154 158
f 726 724 158
f 726 158 162
f 728 726 162
f 728 162 166
f 730 728 166
f 730 166 170
f 732 730 170
f 732 170 174
f 734 732 174
f 734 174 177
f 734 177 182
f 736 734 182
f 738 736 182
f 738 182 186
f 740 738 186
f 740 186 190
f 742 740 190
f 742 190 194
f 744 742 194
f 744 194 198
f 746 744 198
f 746 198 202
f 746 202 206
f 748 746 206
f 750 748 206
f 750 206 211
f 752 750 211
f 752 211 215
f 754 752 215
f 754 215 218
f 756 754 218
f 756 218 222
f 758 756 222
f 758 222 226
f 760 758 226
f 760 226 230
f 762 760 230
f 762 230 234
f 764 234 238
f 764 762 234
f 766 238 242
f 766 764 238
f 768 242 246
f 768 766 242
f 770 246 250
f 770 768 246
f 771 770 250
f 771 250 252
f 769 252 248
f 769 771 252
f 767 248 244
f 767 769 248
f 765 244 240
f 765 767 244
f 763 240 236
f 763 765 240
f 761 236 232
f 761 763 236
f 759 232 228
f 759 761 232
f 757 228 224
f 757 759 228
f 755 224 220
f 755 757 224
f 753 220 216
f 753 755 220
f 906 907 208
f 204 908 909
f 204 909 910
f 204 910 911
f 204 911 912
f 204 912 913
f 204 913 914
f 204 914 906
f 204 906 208
f 915 908 204
f 751 216 212
f 751 753 216
f 916 917 204
f 918 916 204
f 919 918 204
f 920 919 204
f 921 920 204
f 200 921 204
f 200 922 923
f 200 923 921
f 749 212 208
f 749 208 907
f 749 907 924
f 749 751 212
f 925 926 200
f 927 925 200
f 928 927 200
f 196 929 930
f 196 930 928
f 196 928 200
f 747 749 924
f 747 924 931
f 747 931 932
f 747 932 933
f 747 933 934
f 747 934 935
f 747 935 936
f 747 936 937
f 747 937 938
f 747 938 939
f 747 939 940
f 747 940 941
f 747 941 942
f 747 942 943
f 747 943 944
f 945 946 196
f 947 945 196
f 192 948 949
f 192 949 947
f 192 947 196
f 745 747 944
f 745 944 950
f 745 950 951
f 745 951 952
f 745 952 953
f 745 953 954
f 745 954 955
f 745 955 956
f 957 948 192
f 958 959 192
f 960 958 192
f 188 960 192
f 188 961 962
f 188 962 960
f 743 745 956
f 743 956 963
f 743 963 964
f 743 964 965
f 743 965 966
f 743 966 967
f 743 967 968
f 969 970 188
f 971 969 188
f 184 972 973
f 184 973 974
f 184 974 971
f 184 971 188
f 741 968 975
f 741 975 976
f 741 976 977
f 741 977 978
f 741 978 979
f 741 979 980
f 741 743 968
f 981 982 184
f 983 981 184
f 984 983 184
f 180 985 986
f 180 986 984
f 180 984 184
f 739 980 987
f 739 987 988
f 739 988 989
f 739 989 990
f 739 990 991
f 739 741 980
f 992 993 180
f 994 992 180
f 995 994 180
f 175 995 180
f 175 996 997
f 175 997 998
f 175 998 999
f 175 999 995
f 737 739 991
f 737 991 1000
f 737 1000 1001
f 737 1001 1002
f 737 1002 1003
f 737 1003 1004
f 737 1004 1005
f 1006 1007 175
f 1008 1006 175
f 1009 1008 175
f 1010 1009 175
f 1011 1010 175
f 1012 1011 175
f 1013 1012 175
f 172 1013 175
f 172 1014 1015
f 172 1015 1013
f 735 1016 1017
f 735 1017 1018
f 735 737 1005
f 735 1005 1019
f 735 1019 1020
f 735 1020 1021
f 735 1021 1022
f 735 1022 1016
f 733 1018 1023
f 733 1023 1024
f 733 1024 1025
f 733 1025 1026
f 733 1026 1027
f 733 1027 1028
f 733 1028 1029
f 733 1029 1030
f 733 1030 1031
f 733 1031 1032
f 733 1032 1033
f 733 1033 1034
f 733 1034 1035
f 733 1035 1036
f 733 735 1018
f 731 1036 1014
f 731 733 1036
f 731 1014 172
f 729 172 168
f 729 168 164
f 729 731 172
f 727 729 164
f 725 164 160
f 725 727 164
f 723 160 156
f 723 725 160
f 721 156 152
f 721 152 148
f 721 723 156
f 719 148 144
f 719 721 148
f 717 719 144
f 715 144 139
f 715 717 144
f 713 139 135
f 713 715 139
f 711 135 131
f 711 713 135
f 709 711 131
f 709 131 127
f 709 127 123
f 707 709 123
f 705 707 123
f 705 123 119
f 705 119 115
f 703 705 115
f 703 115 109
f 700 703 109
f 698 700 109
f 698 109 105
f 698 105 101
f 696 698 101
f 694 696 101
f 694 101 97
f 694 97 92
f 692 694 92
f 690 692 92
f 690 92 88
f 688 690 88
f 688 88 85
f 688 85 80
f 686 688 80
f 684 80 77
f 684 686 80
f 684 77 72
f 682 684 72
f 680 72 68
f 680 68 64
f 680 682 72
f 678 64 61
f 678 680 64
f 676 678 61
f 861 852 75
f 849 840 71
f 838 828 67
f 826 824 63
f 814 797 59
f 794 792 55
f 1007 1037 175
f 1037 996 175
f 993 985 180
f 982 972 184
f 970 961 188
f 959 957 192
f 946 929 196
f 926 1038 200
f 1038 922 200
f 917 915 204
f 279 310 773
f 773 310 791
f 791 309 799
f 310 309 791
f 799 308 800
f 309 308 799
f 800 307 801
f 308 307 800
f 801 306 802
f 307 306 801
f 802 305 803
f 306 305 802
f 803 304 804
f 305 304 803
f 304 303 804
f 804 303 805
f 303 300 805
f 805 300 806
f 300 302 806
f 806 302 807
f 302 323 807
f 807 323 808
f 323 322 808
f 808 322 809
f 322 321 809
f 809 321 810
f 321 320 810
f 810 320 811
f 320 319 811
f 811 319 812
f 319 316 812
f 812 316 818
f 316 318 818
f 818 318 819
f 318 324 819
f 819 324 820
f 324 334 820
f 820 334 821
f 334 333 821
f 821 333 822
f 822 332 823
f 333 332 822
f 823 330 830
f 332 330 823
f 830 331 831
f 330 331 830
f 831 345 832
f 331 345 831
f 832 344 833
f 345 344 832
f 833 343 834
f 344 343 833
f 834 341 835
f 343 341 834
f 835 342 836
f 341 342 835
f 836 356 843
f 342 356 836
f 843 355 844
f 356 355 843
f 844 354 845
f 355 354 844
f 845 352 846
f 354 352 845
f 352 353 846
f 846 353 847
f 353 367 847
f 847 367 854
f 367 366 854
f 854 366 855
f 366 365 855
f 855 365 856
f 365 363 856
f 856 363 857
f 363 364 857
f 857 364 858
f 364 379 858
f 858 379 859
f 379 378 859
f 859 378 868
f 378 377 868
f 868 377 869
f 377 374 869
f 869 374 870
f 374 376 870
f 870 376 871
f 376 397 871
f 871 397 872
f 397 396 872
f 872 396 884
f 396 395 884
f 884 395 885
f 395 394 885
f 885 394 886
f 394 392 886
f 886 392 887
f 392 393 887
f 887 393 888
f 393 409 888
f 888 409 889
f 409 408 889
f 889 408 890
f 408 407 890
f 890 407 891
f 407 406 891
f 891 406 892
f 406 405 892
f 892 405 893
f 405 404 893
f 893 404 894
f 894 402 895
f 404 402 894
f 895 403 896
f 402 403 895
f 403 419 896
f 896 419 897
f 419 418 897
f 897 418 898
f 418 417 898
f 898 417 899
f 417 416 899
f 899 416 900
f 416 415 900
f 900 415 901
f 415 414 901
f 901 414 902
f 414 413 902
f 902 413 903
f 413 412 903
f 903 412 904
f 412 410 904
f 904 410 905
f 905 400 882
f 882 400 883
f 410 400 905
f 883 399 881
f 400 399 883
f 881 398 880
f 399 398 881
f 880 390 879
f 398 390 880
f 879 389 878
f 390 389 879
f 878 388 877
f 389 388 878
f 877 387 876
f 388 387 877
f 876 386 875
f 387 386 876
f 875 385 874
f 386 385 875
f 874 384 873
f 385 384 874
f 384 383 873
f 873 382 864
f 383 382 873
f 864 381 865
f 382 381 864
f 865 380 866
f 866 380 867
f 381 380 865
f 867 645 863
f 380 645 867
f 863 373 862
f 645 373 863
f 862 372 860
f 373 372 862
f 372 371 860
f 860 371 861
f 371 370 861
f 861 370 852
f 370 369 852
f 852 369 853
f 369 368 853
f 853 361 851
f 368 361 853
f 851 360 850
f 361 360 851
f 360 359 850
f 850 359 848
f 848 359 849
f 359 358 849
f 849 358 840
f 840 357 841
f 358 357 840
f 357 350 841
f 841 350 842
f 350 349 842
f 842 349 839
f 839 348 837
f 349 348 839
f 837 347 838
f 348 347 837
f 838 346 828
f 347 346 838
f 828 339 829
f 346 339 828
f 829 338 827
f 339 338 829
f 827 337 825
f 338 337 827
f 825 336 826
f 337 336 825
f 826 335 824
f 336 335 826
f 824 328 816
f 335 328 824
f 816 327 817
f 328 327 816
f 817 326 815
f 327 326 817
f 815 325 813
f 326 325 815
f 813 644 814
f 325 644 813
f 814 315 797
f 644 315 814
f 315 314 797
f 797 314 798
f 314 313 798
f 798 313 796
f 313 312 796
f 312 311 796
f 796 311 795
f 311 299 795
f 795 299 793
f 793 299 794
f 299 298 794
f 794 298 792
f 298 297 792
f 792 297 789
f 297 296 789
f 789 296 790
f 296 295 790
f 790 295 788
f 295 294 788
f 788 294 787
f 294 643 787
f 787 643 786
f 643 292 786
f 786 292 785
f 292 291 785
f 785 291 784
f 291 290 784
f 784 289 783
f 290 289 784
f 783 288 782
f 782 288 775
f 289 288 783
f 288 287 775
f 775 287 776
f 287 286 776
f 776 286 777
f 777 285 778
f 286 285 777
f 778 284 779
f 285 284 778
f 779 283 780
f 284 283 779
f 780 282 781
f 283 282 780
f 781 281 774
f 282 281 781
f 774 280 772
f 281 280 774
f 280 279 772
f 772 279 773
f 1014 1036 596
f 596 1036 607
f 607 1035 608
f 1036 1035 607
f 608 1034 609
f 1035 1034 608
f 609 1033 610
f 1034 1033 609
f 610 1032 611
f 1033 1032 610
f 611 1031 612
f 1032 1031 611
f 612 1030 613
f 1031 1030 612
f 1030 1029 613
f 613 1029 614
f 1029 1028 614
f 614 1028 615
f 1028 1027 615
f 615 1027 599
f 1027 1026 599
f 599 1026 598
f 1026 1025 598
f 598 1025 600
f 1025 1024 600
f 600 1024 601
f 1024 1023 601
f 601 1023 602
f 1023 1018 602
f 602 1018 603
f 1018 1017 603
f 603 1017 604
f 1017 1016 604
f 604 1016 605
f 1016 1022 605
f 605 1022 589
f 1022 1021 589
f 589 1021 588
f 1021 1020 588
f 588 1020 590
f 590 1019 591
f 1020 1019 590
f 591 1005 592
f 1019 1005 591
f 1005 1004 592
f 592 1004 572
f 572 1003 571
f 1004 1003 572
f 571 1002 573
f 1003 1002 571
f 573 1001 574
f 1002 1001 573
f 574 1000 575
f 1001 1000 574
f 575 991 560
f 1000 991 575
f 560 990 559
f 991 990 560
f 559 989 561
f 990 989 559
f 561 988 562
f 989 988 561
f 562 987 563
f 988 987 562
f 987 980 563
f 563 980 549
f 980 979 549
f 549 979 548
f 979 978 548
f 548 978 550
f 978 977 550
f 550 977 551
f 977 976 551
f 551 976 552
f 976 975 552
f 552 975 538
f 975 968 538
f 538 968 537
f 968 967 537
f 537 967 539
f 967 966 539
f 539 966 540
f 966 965 540
f 540 965 541
f 965 964 541
f 541 964 527
f 964 963 527
f 527 963 526
f 963 956 526
f 526 956 528
f 956 955 528
f 528 955 529
f 955 954 529
f 529 954 530
f 954 953 530
f 530 953 525
f 953 952 525
f 525 952 513
f 952 951 513
f 513 951 511
f 951 950 511
f 511 950 514
f 950 944 514
f 514 944 515
f 944 943 515
f 515 943 516
f 943 942 516
f 516 942 517
f 517 941 518
f 942 941 517
f 518 940 496
f 941 940 518
f 496 939 494
f 940 939 496
f 494 938 497
f 939 938 494
f 938 937 497
f 497 937 498
f 937 936 498
f 498 936 499
f 936 935 499
f 499 935 500
f 935 934 500
f 500 934 501
f 934 933 501
f 501 933 502
f 933 932 502
f 502 932 503
f 932 931 503
f 503 931 504
f 505 924 472
f 931 924 504
f 504 924 505
f 472 907 473
f 924 907 472
f 473 906 474
f 907 906 473
f 474 914 475
f 906 914 474
f 475 913 476
f 914 913 475
f 476 912 477
f 913 912 476
f 477 911 478
f 912 911 477
f 478 910 479
f 911 910 478
f 479 909 480
f 910 909 479
f 480 908 481
f 909 908 480
f 908 915 481
f 481 917 482
f 915 917 481
f 482 916 483
f 483 916 484
f 917 916 482
f 484 918 485
f 916 918 484
f 485 919 487
f 918 919 485
f 487 920 488
f 919 920 487
f 488 921 489
f 920 921 488
f 489 923 490
f 921 923 489
f 923 922 490
f 490 922 491
f 922 1038 491
f 491 1038 492
f 1038 926 492
f 492 926 493
f 926 925 493
f 493 927 506
f 925 927 493
f 506 928 507
f 507 928 508
f 927 928 506
f 508 930 509
f 928 930 508
f 509 929 510
f 930 929 509
f 510 946 519
f 929 946 510
f 519 945 520
f 946 945 519
f 945 947 520
f 520 947 521
f 521 949 522
f 947 949 521
f 949 948 522
f 522 948 523
f 523 957 531
f 948 957 523
f 531 959 532
f 957 959 531
f 532 958 533
f 959 958 532
f 533 960 534
f 958 960 533
f 534 962 535
f 960 962 534
f 535 961 542
f 962 961 535
f 542 970 543
f 961 970 542
f 543 969 544
f 970 969 543
f 544 971 545
f 969 971 544
f 545 974 546
f 971 974 545
f 546 973 553
f 974 973 546
f 553 972 554
f 973 972 553
f 972 982 554
f 554 982 555
f 982 981 555
f 555 983 556
f 981 983 555
f 983 984 556
f 556 984 557
f 984 986 557
f 557 986 564
f 564 986 565
f 986 985 565
f 565 985 566
f 985 993 566
f 566 993 567
f 993 992 567
f 567 992 568
f 992 994 568
f 568 994 569
f 994 995 569
f 569 995 642
f 995 999 642
f 642 999 576
f 999 998 576
f 998 997 576
f 576 997 577
f 577 996 578
f 997 996 577
f 996 1037 578
f 578 1037 579
f 579 1037 580
f 580 1007 581
f 1037 1007 580
f 581 1006 582
f 1007 1006 581
f 582 1008 583
f 1006 1008 582
f 583 1009 584
f 1008 1009 583
f 584 1010 585
f 1009 1010 584
f 585 1011 586
f 1010 1011 585
f 586 1012 593
f 1011 1012 586
f 593 1013 594
f 1012 1013 593
f 594 1015 595
f 1013 1015 594
f 595 1014 596
f 1015 1014 595
