# smartdrone2 body-local mesh, millimetres
v -2.897777 12.000000 -0.776457
v 2.897777 12.000000 0.776457
v 0.776457 12.000000 2.897777
v 2.331438 12.000000 1.887961
v 2.673020 12.000000 1.361971
v 1.887961 12.000000 2.331438
v 1.361971 12.000000 2.673020
v -2.673020 12.000000 -1.361971
v -2.331438 12.000000 -1.887961
v -1.887961 12.000000 -2.331438
v -1.361971 12.000000 -2.673020
v -0.776457 12.000000 -2.897777
v -1.146025 12.462502 -3.267346
v -3.267346 12.462502 -1.146025
v -1.750000 12.500000 -3.031089
v -2.443819 13.000000 -3.166662
v -2.019143 13.000000 -3.452979
v -1.561362 13.000000 -3.682682
v -2.474874 12.500000 -2.474874
v -3.166662 13.000000 -2.443819
v -2.828427 13.000000 -2.828427
v -3.031089 12.500000 -1.750000
v -3.682682 13.000000 -1.561362
v -3.452979 13.000000 -2.019143
v 3.682682 13.000000 1.561362
v 1.788082 15.210081 -0.333238
v 3.682682 21.000000 1.561362
v 1.646783 15.435638 -0.474537
v 1.471421 15.606820 -0.649899
v 1.887106 14.943256 -0.234215
v 1.272187 15.713677 -0.849133
v 1.938099 14.650671 -0.183221
v 1.060660 15.750000 -1.060660
v -1.561362 21.000000 -3.682682
v 1.938099 14.349329 -0.183221
v 0.849133 15.713677 -1.272187
v 3.267346 12.462502 1.146025
v 1.887106 14.056744 -0.234215
v 0.649899 15.606820 -1.471421
v 1.788082 13.789919 -0.333238
v 0.474537 15.435638 -1.646783
v 1.646783 13.564362 -0.474537
v 0.333238 15.210081 -1.788082
v 1.471421 13.393180 -0.649899
v 1.272187 13.286323 -0.849133
v 1.060660 13.250000 -1.060660
v 0.474537 13.564362 -1.646783
v 0.333238 13.789919 -1.788082
v 0.649899 13.393180 -1.471421
v 0.849133 13.286323 -1.272187
v 0.234215 14.056744 -1.887106
v 0.234215 14.943256 -1.887106
v 0.183221 14.650671 -1.938099
v 0.183221 14.349329 -1.938099
v 1.146025 12.462502 3.267346
v 1.750000 12.500000 3.031089
v 2.236068 13.000000 3.316625
v 1.561362 13.000000 3.682682
v 2.474874 12.500000 2.474874
v 3.316625 13.000000 2.236068
v 2.828427 13.000000 2.828427
v 3.031089 12.500000 1.750000
v -2.828427 28.500000 -2.828427
v -3.682682 21.000000 -1.561362
v -3.404467 28.500000 -2.099906
v -3.796971 28.500000 -1.258179
v -3.931530 21.000000 -0.736936
v -3.984779 28.500000 -0.348623
v -3.998150 21.000000 0.121648
v -3.957767 28.500000 0.579727
v -3.879455 21.000000 0.974593
v -3.717390 28.500000 1.476825
v -3.580946 21.000000 1.782365
v -3.308594 25.500000 2.247934
v -3.302797 25.378227 2.256488
v -3.285139 25.256361 2.282087
v -3.116460 21.000000 2.507525
v -3.248637 25.120889 2.333725
v -3.197250 25.002489 2.403654
v -3.132795 24.905217 2.487054
v -3.276608 28.500000 2.294306
v -3.296193 25.678054 2.266120
v -3.263175 25.833673 2.313366
v -3.216535 25.958807 2.377774
v -3.156986 26.062958 2.456294
v -3.052852 24.827116 2.584576
v -3.082188 26.148372 2.549500
v -2.960440 24.774981 2.689868
v -2.993643 26.210183 2.652913
v -2.861142 24.751507 2.795303
v -2.507525 21.000000 3.116460
v -2.759197 24.756422 2.895933
v -2.652913 24.789817 2.993643
v -2.549500 24.851628 3.082188
v -2.456294 24.937042 3.156986
v -2.659183 28.500000 2.988100
v -2.895933 26.243578 2.759197
v -2.795303 26.248493 2.861142
v -2.689868 26.225019 2.960440
v -2.584576 26.172884 3.052852
v -2.487054 26.094783 3.132795
v -2.377774 25.041193 3.216535
v -2.403654 25.997511 3.197250
v -2.313366 25.166327 3.263175
v -2.333725 25.879111 3.248637
v -2.266120 25.321946 3.296193
v -1.782365 21.000000 3.580946
v -2.247934 25.500000 3.308594
v -1.898401 28.500000 3.520806
v -2.282087 25.743639 3.285139
v -2.256488 25.621773 3.302797
v -1.035276 28.500000 3.863703
v -0.974593 21.000000 3.879455
v -0.116339 28.500000 3.998308
v -0.121648 21.000000 3.998150
v 0.736936 21.000000 3.931530
v 0.808870 28.500000 3.917362
v 1.561362 21.000000 3.682682
v 1.690473 28.500000 3.625231
v 2.480942 28.500000 3.137663
v 3.137663 28.500000 2.480942
v 3.625231 28.500000 1.690473
v 3.917362 28.500000 0.808870
v 3.931530 21.000000 0.736936
v 3.998308 28.500000 -0.116339
v 3.998150 21.000000 -0.121648
v 3.879455 21.000000 -0.974593
v 3.863703 28.500000 -1.035276
v 3.580946 21.000000 -1.782365
v 3.520806 28.500000 -1.898401
v 3.307835 25.543801 -2.249063
v 3.304719 25.400533 -2.253666
v 3.285139 25.256361 -2.282087
v 3.116460 21.000000 -2.507525
v 3.294675 25.688554 -2.268324
v 3.248637 25.120889 -2.333725
v 3.264664 25.828537 -2.311264
v 3.197250 25.002489 -2.403654
v 3.218577 25.954364 -2.375008
v 3.132795 24.905217 -2.487054
v 3.052852 24.827116 -2.584576
v 2.960440 24.774981 -2.689868
v 2.861142 24.751507 -2.795303
v 2.988100 28.500000 -2.659183
v 3.159536 26.059319 -2.453016
v 3.085331 26.145482 -2.545694
v 2.997249 26.208331 -2.648844
v 2.899767 26.242825 -2.755163
v 2.507525 21.000000 -3.116460
v 2.759197 24.756422 -2.895933
v 2.799241 26.248826 -2.857293
v 2.652913 24.789817 -2.993643
v 2.693959 26.226446 -2.956714
v 2.549500 24.851628 -3.082188
v 2.456294 24.937042 -3.156986
v 2.377774 25.041193 -3.216535
v 2.313366 25.166327 -3.263175
v 2.266120 25.321946 -3.296193
v 1.782365 21.000000 -3.580946
v 2.247934 25.500000 -3.308594
v 2.294306 28.500000 -3.276608
v 2.588515 26.175404 -3.049514
v 2.490567 26.098169 -3.130001
v 2.406601 26.001615 -3.195034
v 2.336115 25.884012 -3.246918
v 2.283649 25.749058 -3.284052
v 2.256880 25.624557 -3.302530
v 1.476825 28.500000 -3.717390
v 0.974593 21.000000 -3.879455
v 0.579727 28.500000 -3.957767
v 0.121648 21.000000 -3.998150
v -0.348623 28.500000 -3.984779
v -0.736936 21.000000 -3.931530
v -1.258179 28.500000 -3.796971
v -2.099906 28.500000 -3.404467
v -1.788082 15.210081 0.333238
v -1.646783 15.435638 0.474537
v -1.471421 15.606820 0.649899
v -1.887106 14.943256 0.234215
v -1.272187 15.713677 0.849133
v -1.938099 14.650671 0.183221
v -1.060660 15.750000 1.060660
v -1.938099 14.349329 0.183221
v -0.849133 15.713677 1.272187
v -1.887106 14.056744 0.234215
v -0.649899 15.606820 1.471421
v -1.788082 13.789919 0.333238
v -0.474537 15.435638 1.646783
v -1.646783 13.564362 0.474537
v -0.333238 15.210081 1.788082
v -1.471421 13.393180 0.649899
v -1.272187 13.286323 0.849133
v -1.060660 13.250000 1.060660
v -0.849133 13.286323 1.272187
v -0.649899 13.393180 1.471421
v -0.474537 13.564362 1.646783
v -0.333238 13.789919 1.788082
v -0.234215 14.056744 1.887106
v -0.183221 14.349329 1.938099
v -0.183221 14.650671 1.938099
v -0.234215 14.943256 1.887106
v -1.996351 28.500000 -0.120757
v -1.967240 28.500000 0.360510
v -1.909442 28.500000 -0.595006
v -1.823800 28.500000 0.820826
v -1.711563 28.500000 -1.034676
v -1.574367 28.500000 1.233438
v -1.414214 28.500000 -1.414214
v -1.233438 28.500000 1.574367
v -1.034676 28.500000 -1.711563
v -0.820826 28.500000 1.823800
v -0.595006 28.500000 -1.909442
v -0.360510 28.500000 1.967240
v -0.120757 28.500000 -1.996351
v 0.120757 28.500000 1.996351
v 0.360510 28.500000 -1.967240
v 0.595006 28.500000 1.909442
v 0.820826 28.500000 -1.823800
v 1.034676 28.500000 1.711563
v 1.233438 28.500000 -1.574367
v 1.414214 28.500000 1.414214
v 1.574367 28.500000 -1.233438
v 1.711563 28.500000 1.034676
v 1.823800 28.500000 -0.820826
v 1.909442 28.500000 0.595006
v 1.967240 28.500000 -0.360510
v 1.996351 28.500000 0.120757
v 1.414214 23.500000 1.414214
v 1.711563 23.500000 1.034676
v 1.909442 23.500000 0.595006
v 1.996351 23.500000 0.120757
v 1.967240 23.500000 -0.360510
v 1.833813 25.338424 -0.798345
v 1.823800 23.500000 -0.820826
v 1.840559 25.447788 -0.782574
v 1.819778 25.230994 -0.829712
v 1.840790 25.543822 -0.782019
v 1.800813 25.140596 -0.870052
v 1.761377 25.019347 -0.947346
v 1.834042 25.659126 -0.797818
v 1.709374 24.919392 -1.038227
v 1.574367 23.500000 -1.233438
v 1.649486 24.845888 -1.130947
v 1.596306 24.802938 -1.204904
v 1.515754 24.765221 -1.304605
v 1.438132 24.750814 -1.389853
v 1.816748 25.786142 -0.836317
v 1.788594 25.903547 -0.894867
v 1.750320 26.006128 -0.967652
v 1.701696 26.091953 -1.050747
v 1.233438 23.500000 -1.574367
v 1.369740 24.752651 -1.457253
v 1.287815 24.770019 -1.530056
v 1.203585 24.803589 -1.597302
v 1.129668 24.846748 -1.650361
v 1.639898 26.163180 -1.144823
v 1.585423 26.203836 -1.219166
v 1.524747 26.231847 -1.294090
v 1.437614 26.249221 -1.390390
v 1.026269 24.930697 -1.716591
v 0.820826 23.500000 -1.823800
v 0.937085 25.033048 -1.766850
v 0.869325 25.141989 -1.801165
v 0.829159 25.232487 -1.820031
v 0.800697 25.327915 -1.832784
v 1.369192 26.247285 -1.457767
v 1.287110 26.229766 -1.530649
v 1.202746 26.195995 -1.597934
v 1.128856 26.152704 -1.650916
v 1.046238 26.087923 -1.704475
v 0.360510 23.500000 -1.967240
v 0.780681 25.500000 -1.841341
v 0.963938 26.001622 -1.752365
v 0.891862 25.898522 -1.790096
v 0.834243 25.780892 -1.817702
v 0.796734 25.653961 -1.834514
v 0.784722 25.576591 -1.839661
v -0.120757 23.500000 -1.996351
v -0.595006 23.500000 -1.909442
v -1.034676 23.500000 -1.711563
v -1.414214 23.500000 -1.414214
v -1.711563 23.500000 -1.034676
v -1.909442 23.500000 -0.595006
v -1.996351 23.500000 -0.120757
v -1.967240 23.500000 0.360510
v -1.839489 25.419598 0.785129
v -1.823800 23.500000 0.820826
v -1.833813 25.338424 0.798345
v -1.841341 25.500000 0.780681
v -1.819778 25.230994 0.829712
v -1.800813 25.140596 0.870052
v -1.761377 25.019347 0.947346
v -1.832784 25.672085 0.800697
v -1.709374 24.919392 1.038227
v -1.574367 23.500000 1.233438
v -1.649486 24.845888 1.130947
v -1.596306 24.802938 1.204904
v -1.515754 24.765221 1.304605
v -1.438132 24.750814 1.389853
v -1.820031 25.767513 0.829159
v -1.801165 25.858011 0.869325
v -1.766850 25.966952 0.937085
v -1.716591 26.069303 1.026269
v -1.233438 23.500000 1.574367
v -1.369740 24.752651 1.457253
v -1.287815 24.770019 1.530056
v -1.203585 24.803589 1.597302
v -1.129668 24.846748 1.650361
v -1.650361 26.153252 1.129668
v -1.597302 26.196411 1.203585
v -1.530056 26.229981 1.287815
v -1.457253 26.247349 1.369740
v -1.389853 26.249186 1.438132
v -1.026269 24.930697 1.716591
v -0.820826 23.500000 1.823800
v -0.937085 25.033048 1.766850
v -0.869325 25.141989 1.801165
v -0.829159 25.232487 1.820031
v -0.800697 25.327915 1.832784
v -1.304605 26.234779 1.515754
v -1.204904 26.197062 1.596306
v -1.130947 26.154112 1.649486
v -1.038227 26.080608 1.709374
v -0.780681 25.500000 1.841341
v -0.360510 23.500000 1.967240
v -0.947346 25.980653 1.761377
v -0.870052 25.859404 1.800813
v -0.829712 25.769006 1.819778
v -0.798345 25.661576 1.833813
v -0.785129 25.580402 1.839489
v 0.120757 23.500000 1.996351
v 0.595006 23.500000 1.909442
v 1.034676 23.500000 1.711563
f 1 2 3
f 4 2 5
f 6 2 4
f 7 2 6
f 3 2 7
f 8 2 1
f 9 2 8
f 10 2 9
f 11 2 10
f 12 2 11
f 13 12 11
f 14 8 1
f 15 16 17
f 15 17 18
f 15 18 13
f 15 11 10
f 15 13 11
f 19 20 21
f 19 21 16
f 19 10 9
f 19 15 10
f 19 16 15
f 22 23 24
f 22 24 20
f 22 9 8
f 22 14 23
f 22 20 19
f 22 8 14
f 22 19 9
f 25 26 27
f 27 26 28
f 28 29 27
f 25 30 26
f 29 31 27
f 25 32 30
f 27 33 34
f 31 33 27
f 25 35 32
f 33 36 34
f 37 38 25
f 25 38 35
f 36 39 34
f 37 40 38
f 39 41 34
f 37 2 40
f 2 42 40
f 41 43 34
f 2 44 42
f 2 45 44
f 2 46 45
f 47 12 48
f 49 12 47
f 50 12 49
f 46 12 50
f 2 12 46
f 48 13 51
f 12 13 48
f 52 18 43
f 53 18 52
f 54 18 53
f 51 18 54
f 43 18 34
f 13 18 51
f 55 3 7
f 37 5 2
f 56 57 58
f 56 58 55
f 56 7 6
f 56 55 7
f 59 60 61
f 59 61 57
f 59 6 4
f 59 56 6
f 59 57 56
f 62 25 60
f 62 4 5
f 62 37 25
f 62 60 59
f 62 5 37
f 62 59 4
f 63 21 20
f 64 24 23
f 65 20 24
f 65 63 20
f 65 24 64
f 66 64 67
f 66 65 64
f 68 67 69
f 68 66 67
f 70 69 71
f 70 68 69
f 72 71 73
f 72 70 71
f 74 72 73
f 74 73 75
f 76 73 77
f 76 75 73
f 78 76 77
f 79 78 77
f 80 79 77
f 81 74 82
f 81 82 83
f 81 83 84
f 81 84 85
f 81 72 74
f 86 80 77
f 87 81 85
f 88 86 77
f 89 81 87
f 90 88 77
f 91 92 90
f 91 90 77
f 93 92 91
f 94 93 91
f 95 94 91
f 96 89 97
f 96 97 98
f 96 98 99
f 96 99 100
f 96 81 89
f 101 96 100
f 102 95 91
f 103 96 101
f 104 102 91
f 105 96 103
f 106 104 91
f 107 106 91
f 107 108 106
f 109 96 105
f 109 105 110
f 109 110 111
f 109 111 108
f 109 108 107
f 112 109 107
f 112 107 113
f 114 112 113
f 114 113 115
f 116 114 115
f 117 114 116
f 118 117 116
f 57 118 58
f 119 117 118
f 120 57 61
f 120 118 57
f 120 119 118
f 121 61 60
f 121 120 61
f 27 60 25
f 27 121 60
f 122 121 27
f 123 27 124
f 123 122 27
f 125 124 126
f 125 123 124
f 127 125 126
f 128 125 127
f 129 128 127
f 130 128 129
f 131 130 129
f 131 129 132
f 133 129 134
f 133 132 129
f 135 130 131
f 136 133 134
f 137 130 135
f 138 136 134
f 139 130 137
f 140 138 134
f 141 140 134
f 142 141 134
f 143 142 134
f 144 139 145
f 144 145 146
f 144 146 147
f 144 147 148
f 144 130 139
f 149 143 134
f 149 150 143
f 151 144 148
f 152 150 149
f 153 144 151
f 154 152 149
f 155 154 149
f 156 155 149
f 157 156 149
f 158 157 149
f 159 158 149
f 159 160 158
f 161 144 153
f 161 153 162
f 161 162 163
f 161 163 164
f 161 164 165
f 161 165 166
f 161 166 167
f 161 167 160
f 168 161 160
f 168 159 169
f 168 160 159
f 170 169 171
f 170 168 169
f 172 171 173
f 172 170 171
f 34 18 17
f 174 173 34
f 174 172 173
f 175 17 16
f 175 34 17
f 175 174 34
f 63 16 21
f 63 175 16
f 129 127 126
f 149 134 129
f 171 126 124
f 171 159 149
f 171 169 159
f 171 129 126
f 171 149 129
f 34 124 27
f 34 173 171
f 34 171 124
f 107 115 113
f 91 115 107
f 73 91 77
f 67 64 118
f 69 73 71
f 69 116 115
f 69 118 116
f 69 67 118
f 69 115 91
f 69 91 73
f 23 176 64
f 64 176 177
f 177 178 64
f 23 179 176
f 178 180 64
f 23 181 179
f 64 182 118
f 180 182 64
f 23 183 181
f 182 184 118
f 14 185 23
f 23 185 183
f 184 186 118
f 14 187 185
f 186 188 118
f 14 1 187
f 1 189 187
f 188 190 118
f 1 191 189
f 1 192 191
f 1 193 192
f 193 3 194
f 194 3 195
f 195 3 196
f 196 3 197
f 1 3 193
f 197 55 198
f 3 55 197
f 198 58 199
f 199 58 200
f 200 58 201
f 201 58 190
f 190 58 118
f 55 58 198
f 193 194 46
f 46 194 45
f 45 195 44
f 194 195 45
f 44 196 42
f 195 196 44
f 42 197 40
f 196 197 42
f 40 198 38
f 38 198 35
f 197 198 40
f 35 199 32
f 198 199 35
f 199 200 32
f 32 201 30
f 200 201 32
f 30 190 26
f 201 190 30
f 26 188 28
f 28 188 29
f 190 188 26
f 188 186 29
f 186 184 29
f 29 184 31
f 184 182 31
f 31 182 33
f 182 180 33
f 33 180 36
f 180 178 36
f 36 178 39
f 178 177 39
f 39 177 41
f 41 177 43
f 177 176 43
f 176 179 43
f 43 179 52
f 179 181 52
f 52 181 53
f 181 183 53
f 53 183 54
f 54 183 51
f 183 185 51
f 51 185 48
f 185 187 48
f 187 189 48
f 48 189 47
f 47 189 49
f 189 191 49
f 49 192 50
f 50 192 46
f 191 192 49
f 192 193 46
f 202 68 70
f 203 70 72
f 203 202 70
f 204 66 68
f 204 68 202
f 205 72 81
f 205 203 72
f 206 65 66
f 206 66 204
f 207 81 96
f 207 205 81
f 208 63 65
f 208 175 63
f 208 65 206
f 209 96 109
f 209 207 96
f 210 174 175
f 210 175 208
f 211 109 112
f 211 209 109
f 212 174 210
f 213 211 112
f 172 174 212
f 214 172 212
f 114 213 112
f 215 213 114
f 170 214 216
f 170 172 214
f 117 215 114
f 117 217 215
f 168 170 216
f 168 216 218
f 119 217 117
f 119 219 217
f 161 168 218
f 161 218 220
f 120 219 119
f 120 221 219
f 144 220 222
f 144 161 220
f 121 221 120
f 121 223 221
f 130 222 224
f 130 144 222
f 122 223 121
f 122 225 223
f 128 224 226
f 128 130 224
f 123 227 225
f 123 225 122
f 125 226 227
f 125 128 226
f 125 227 123
f 221 223 228
f 228 223 229
f 229 225 230
f 230 225 231
f 223 225 229
f 225 227 231
f 232 233 234
f 232 235 233
f 233 236 234
f 232 237 235
f 236 238 234
f 238 239 234
f 231 226 232
f 227 226 231
f 232 226 237
f 237 226 240
f 234 241 242
f 239 241 234
f 241 243 242
f 243 244 242
f 244 245 242
f 245 246 242
f 240 224 247
f 226 224 240
f 247 224 248
f 248 224 249
f 249 224 250
f 246 251 242
f 246 252 251
f 252 253 251
f 253 254 251
f 254 255 251
f 224 222 250
f 250 222 256
f 256 222 257
f 257 222 258
f 258 222 259
f 251 260 261
f 255 260 251
f 260 262 261
f 262 263 261
f 263 264 261
f 264 265 261
f 222 220 259
f 259 220 266
f 266 220 267
f 267 220 268
f 268 220 269
f 269 220 270
f 265 271 261
f 272 271 265
f 220 218 270
f 270 218 273
f 273 218 274
f 274 218 275
f 275 218 276
f 272 216 271
f 218 216 276
f 276 216 277
f 277 216 272
f 216 214 271
f 271 214 278
f 278 212 279
f 279 212 280
f 214 212 278
f 280 210 281
f 212 210 280
f 210 208 281
f 281 206 282
f 208 206 281
f 282 204 283
f 206 204 282
f 283 202 284
f 284 202 285
f 204 202 283
f 285 286 287
f 287 286 288
f 285 289 286
f 288 290 287
f 290 291 287
f 291 292 287
f 202 203 285
f 285 203 289
f 289 203 293
f 292 294 287
f 287 294 295
f 294 296 295
f 296 297 295
f 297 298 295
f 298 299 295
f 203 205 293
f 293 205 300
f 300 205 301
f 301 205 302
f 302 205 303
f 299 304 295
f 299 305 304
f 305 306 304
f 306 307 304
f 307 308 304
f 309 207 310
f 310 207 311
f 311 207 312
f 312 207 313
f 205 207 303
f 303 207 309
f 308 314 304
f 304 314 315
f 314 316 315
f 316 317 315
f 317 318 315
f 318 319 315
f 313 209 320
f 320 209 321
f 321 209 322
f 322 209 323
f 207 209 313
f 324 325 319
f 319 325 315
f 323 211 326
f 326 211 327
f 327 211 328
f 328 211 329
f 209 211 323
f 329 213 330
f 330 213 324
f 325 213 331
f 211 213 329
f 324 213 325
f 213 215 331
f 331 217 332
f 215 217 331
f 332 219 333
f 217 219 332
f 333 221 228
f 219 221 333
f 261 234 242
f 261 242 251
f 278 232 234
f 278 261 271
f 278 234 261
f 325 331 332
f 325 332 333
f 304 228 229
f 304 315 325
f 304 333 228
f 304 325 333
f 281 278 279
f 281 279 280
f 287 295 304
f 283 281 282
f 284 229 230
f 284 230 231
f 284 231 232
f 284 285 287
f 284 278 281
f 284 232 278
f 284 304 229
f 284 281 283
f 284 287 304
f 289 293 74
f 74 293 82
f 82 300 83
f 293 300 82
f 83 301 84
f 300 301 83
f 84 302 85
f 301 302 84
f 85 303 87
f 302 303 85
f 303 309 87
f 309 310 87
f 87 310 89
f 310 311 89
f 89 311 97
f 311 312 97
f 97 312 98
f 312 313 98
f 313 320 98
f 98 320 99
f 320 321 99
f 99 321 100
f 321 322 100
f 100 322 101
f 322 323 101
f 101 323 103
f 323 326 103
f 103 326 105
f 326 327 105
f 105 327 110
f 327 328 110
f 328 329 110
f 110 329 111
f 329 330 111
f 111 330 108
f 330 324 108
f 324 319 108
f 108 319 106
f 106 318 104
f 319 318 106
f 104 317 102
f 318 317 104
f 102 316 95
f 317 316 102
f 95 314 94
f 316 314 95
f 314 308 94
f 94 307 93
f 308 307 94
f 93 306 92
f 307 306 93
f 92 305 90
f 306 305 92
f 305 299 90
f 90 298 88
f 299 298 90
f 88 297 86
f 298 297 88
f 86 296 80
f 297 296 86
f 296 294 80
f 80 294 79
f 294 292 79
f 79 292 78
f 292 291 78
f 78 291 76
f 291 290 76
f 290 288 76
f 76 288 75
f 288 286 75
f 75 286 74
f 286 289 74
f 272 160 277
f 277 167 276
f 160 167 277
f 276 166 275
f 167 166 276
f 274 165 273
f 275 165 274
f 166 165 275
f 273 164 270
f 165 164 273
f 164 163 270
f 270 163 269
f 163 162 269
f 269 162 268
f 162 153 268
f 267 153 266
f 268 153 267
f 153 151 266
f 266 151 259
f 151 148 259
f 259 148 258
f 148 147 258
f 257 147 256
f 258 147 257
f 147 146 256
f 256 146 250
f 146 145 250
f 250 145 249
f 145 139 249
f 249 139 248
f 139 137 248
f 248 137 247
f 137 135 247
f 247 135 240
f 237 131 235
f 240 131 237
f 135 131 240
f 235 132 233
f 131 132 235
f 236 133 238
f 233 133 236
f 132 133 233
f 238 136 239
f 133 136 238
f 239 138 241
f 136 138 239
f 241 140 243
f 138 140 241
f 243 141 244
f 140 141 243
f 244 142 245
f 141 142 244
f 246 143 252
f 245 143 246
f 142 143 245
f 252 150 253
f 143 150 252
f 253 152 254
f 150 152 253
f 255 154 260
f 254 154 255
f 152 154 254
f 154 155 260
f 260 155 262
f 155 156 262
f 262 156 263
f 156 157 263
f 263 157 264
f 157 158 264
f 264 158 265
f 158 160 265
f 265 160 272
