# smartdrone2 body-local mesh, millimetres
v 1268.357626 445.313006 1.850000
v 1268.357626 444.663006 2.500000
v 1268.357626 444.663006 1.850000
v 1268.357626 445.613006 2.500000
v 1268.357626 445.613006 1.900000
v 1268.357626 445.617529 1.863443
v 1268.357626 445.630825 1.829091
v 1268.357626 445.652092 1.799015
v 1268.357626 445.313006 1.225000
v 1268.357626 445.680048 1.775028
v 1268.357626 445.713006 1.225000
v 1268.357626 445.713006 1.758579
v 1269.034724 446.213006 2.500000
v 1269.034724 446.163006 2.500000
v 1268.532626 446.213006 2.500000
v 1269.044546 446.129408 2.500000
v 1268.532626 445.763006 2.500000
v 1269.061886 446.099002 2.500000
v 1269.085802 446.073442 2.500000
v 1269.114990 446.054121 2.500000
v 1268.528866 445.729628 2.500000
v 1268.382626 445.613006 2.500000
v 1268.416005 445.616767 2.500000
v 1268.415126 444.663006 2.500000
v 1268.432928 444.661000 2.500000
v 1268.447709 445.627861 2.500000
v 1268.449837 444.655084 2.500000
v 1269.182626 446.038006 2.500000
v 1269.289103 445.430281 2.500000
v 1269.147862 446.042090 2.500000
v 1269.265352 445.406530 2.500000
v 1269.317544 445.448151 2.500000
v 1269.247481 445.378089 2.500000
v 1268.517772 445.697924 2.500000
v 1269.327626 446.038006 2.500000
v 1269.349248 445.459245 2.500000
v 1269.236387 445.346384 2.500000
v 1268.499901 445.669483 2.500000
v 1269.345428 446.040012 2.500000
v 1269.382626 445.463006 2.500000
v 1269.362337 446.045929 2.500000
v 1269.377506 446.055460 2.500000
v 1268.493121 444.600808 2.500000
v 1269.232626 445.313006 2.500000
v 1268.495126 444.583006 2.500000
v 1268.487204 444.617717 2.500000
v 1268.477673 444.632885 2.500000
v 1268.465006 444.645553 2.500000
v 1268.476150 445.645731 2.500000
v 1268.329912 444.243334 2.500000
v 1267.782626 443.663006 2.500000
v 1268.282626 444.238006 2.500000
v 1267.707626 444.238006 2.500000
v 1267.707626 443.663006 2.500000
v 1269.390173 446.068127 2.500000
v 1269.959552 445.463006 2.500000
v 1269.399704 446.083295 2.500000
v 1269.405621 446.100204 2.500000
v 1270.017842 445.474795 2.500000
v 1269.989288 445.465983 2.500000
v 1270.044084 445.489093 2.500000
v 1270.256100 445.599184 2.500000
v 1269.407626 446.138006 2.500000
v 1269.407626 446.118006 2.500000
v 1267.782626 443.213006 2.500000
v 1267.802433 443.126229 2.500000
v 1267.787641 443.168502 2.500000
v 1267.857928 443.056640 2.500000
v 1267.826260 443.088308 2.500000
v 1270.488179 445.655847 2.500000
v 1267.938122 443.018021 2.500000
v 1267.895850 443.032812 2.500000
v 1267.982626 443.013006 2.500000
v 1270.727074 445.655847 2.500000
v 1269.232626 443.863006 2.500000
v 1268.495126 444.450506 2.500000
v 1268.415118 444.284367 2.500000
v 1268.374827 444.259050 2.500000
v 1268.448766 444.318015 2.500000
v 1268.474082 444.358306 2.500000
v 1268.489799 444.403220 2.500000
v 1269.236387 443.829628 2.500000
v 1268.715352 443.106530 2.500000
v 1268.739103 443.130281 2.500000
v 1268.697481 443.078089 2.500000
v 1268.767544 443.148151 2.500000
v 1268.686387 443.046384 2.500000
v 1268.799248 443.159245 2.500000
v 1271.807626 446.138006 2.500000
v 1270.959153 445.599184 2.500000
v 1269.247481 443.797924 2.500000
v 1268.832626 443.163006 2.500000
v 1269.265352 443.769483 2.500000
v 1269.289103 443.745731 2.500000
v 1268.682626 443.013006 2.500000
v 1271.807626 446.118006 2.500000
v 1271.809632 446.100204 2.500000
v 1271.171169 445.489093 2.500000
v 1271.225965 445.465983 2.500000
v 1271.197410 445.474795 2.500000
v 1271.815549 446.083295 2.500000
v 1271.255701 445.463006 2.500000
v 1271.825080 446.068127 2.500000
v 1271.837747 446.055460 2.500000
v 1269.317544 443.727861 2.500000
v 1269.327626 443.163006 2.500000
v 1269.349248 443.716767 2.500000
v 1269.382626 443.713006 2.500000
v 1269.345428 443.161000 2.500000
v 1269.362337 443.155084 2.500000
v 1269.377506 443.145553 2.500000
v 1269.390173 443.132885 2.500000
v 1270.007626 443.713006 2.500000
v 1269.399704 443.117717 2.500000
v 1269.405621 443.100808 2.500000
v 1271.852916 446.045929 2.500000
v 1271.832626 445.463006 2.500000
v 1271.869825 446.040012 2.500000
v 1271.887626 446.038006 2.500000
v 1272.032626 446.038006 2.500000
v 1271.866005 445.459245 2.500000
v 1271.897709 445.448151 2.500000
v 1272.180528 446.213006 2.500000
v 1272.682626 446.213006 2.500000
v 1272.180528 446.163006 2.500000
v 1272.170707 446.129408 2.500000
v 1272.067391 446.042090 2.500000
v 1271.926150 445.430281 2.500000
v 1272.100263 446.054121 2.500000
v 1271.949901 445.406530 2.500000
v 1270.191664 443.603624 2.500000
v 1269.407626 443.083006 2.500000
v 1269.407626 443.038006 2.500000
v 1270.394767 443.535923 2.500000
v 1272.129451 446.073442 2.500000
v 1272.682626 445.763006 2.500000
v 1272.153367 446.099002 2.500000
v 1272.686387 445.729628 2.500000
v 1271.967772 445.378089 2.500000
v 1272.697481 445.697924 2.500000
v 1271.978866 445.346384 2.500000
v 1272.715352 445.669483 2.500000
v 1271.982626 445.313006 2.500000
v 1272.739103 445.645731 2.500000
v 1270.607626 443.513006 2.500000
v 1272.767544 445.627861 2.500000
v 1272.750247 444.645553 2.500000
v 1272.737580 444.632885 2.500000
v 1272.728049 444.617717 2.500000
v 1272.765416 444.655084 2.500000
v 1272.722132 444.600808 2.500000
v 1272.782325 444.661000 2.500000
v 1272.799248 445.616767 2.500000
v 1272.800126 444.663006 2.500000
v 1272.832626 445.613006 2.500000
v 1272.720126 444.583006 2.500000
v 1271.982626 443.863006 2.500000
v 1272.857626 445.613006 2.500000
v 1272.857626 444.663006 2.500000
v 1272.720126 444.450506 2.500000
v 1272.725454 444.403220 2.500000
v 1272.741171 444.358306 2.500000
v 1272.766487 444.318015 2.500000
v 1272.800135 444.284367 2.500000
v 1272.840426 444.259050 2.500000
v 1271.978866 443.829628 2.500000
v 1271.837747 443.145553 2.500000
v 1271.825080 443.132885 2.500000
v 1271.832626 443.713006 2.500000
v 1271.207626 443.713006 2.500000
v 1271.852916 443.155084 2.500000
v 1271.815549 443.117717 2.500000
v 1271.869825 443.161000 2.500000
v 1271.809632 443.100808 2.500000
v 1271.023589 443.603624 2.500000
v 1271.807626 443.083006 2.500000
v 1271.887626 443.163006 2.500000
v 1271.866005 443.716767 2.500000
v 1271.897709 443.727861 2.500000
v 1271.926150 443.745731 2.500000
v 1271.807626 443.038006 2.500000
v 1270.820486 443.535923 2.500000
v 1272.382626 443.163006 2.500000
v 1271.949901 443.769483 2.500000
v 1271.967772 443.797924 2.500000
v 1272.416005 443.159245 2.500000
v 1272.447709 443.148151 2.500000
v 1272.885341 444.243334 2.500000
v 1272.476150 443.130281 2.500000
v 1273.432626 443.663006 2.500000
v 1272.499901 443.106530 2.500000
v 1273.507626 444.238006 2.500000
v 1272.932626 444.238006 2.500000
v 1273.507626 443.663006 2.500000
v 1272.528866 443.046384 2.500000
v 1273.232626 443.013006 2.500000
v 1272.532626 443.013006 2.500000
v 1272.517772 443.078089 2.500000
v 1273.432626 443.213006 2.500000
v 1273.427612 443.168502 2.500000
v 1273.277131 443.018021 2.500000
v 1273.412820 443.126229 2.500000
v 1273.319403 443.032812 2.500000
v 1273.388993 443.088308 2.500000
v 1273.357324 443.056640 2.500000
v 1270.007626 443.713006 2.650000
v 1269.382626 443.713006 2.650000
v 1267.982626 443.013006 2.650000
v 1267.782626 443.213006 2.650000
v 1267.787641 443.168502 2.650000
v 1267.802433 443.126229 2.650000
v 1267.826260 443.088308 2.650000
v 1267.857928 443.056640 2.650000
v 1267.895850 443.032812 2.650000
v 1267.938122 443.018021 2.650000
v 1267.782626 443.663006 2.650000
v 1268.686387 443.046384 2.650000
v 1268.682626 443.013006 2.650000
v 1268.697481 443.078089 2.650000
v 1268.715352 443.106530 2.650000
v 1268.739103 443.130281 2.650000
v 1267.707626 444.238006 2.650000
v 1267.707626 443.663006 2.650000
v 1268.282626 444.238006 2.650000
v 1268.329912 444.243334 2.650000
v 1268.767544 443.148151 2.650000
v 1268.374827 444.259050 2.650000
v 1268.799248 443.159245 2.650000
v 1269.289103 443.745731 2.650000
v 1268.832626 443.163006 2.650000
v 1269.327626 443.163006 2.650000
v 1269.265352 443.769483 2.650000
v 1269.247481 443.797924 2.650000
v 1269.317544 443.727861 2.650000
v 1269.236387 443.829628 2.650000
v 1269.349248 443.716767 2.650000
v 1269.232626 443.863006 2.650000
v 1268.495126 444.450506 2.650000
v 1268.489799 444.403220 2.650000
v 1268.474082 444.358306 2.650000
v 1268.448766 444.318015 2.650000
v 1268.415118 444.284367 2.650000
v 1268.495126 444.583006 2.650000
v 1269.345428 443.161000 2.650000
v 1269.362337 443.155084 2.650000
v 1269.377506 443.145553 2.650000
v 1269.390173 443.132885 2.650000
v 1269.399704 443.117717 2.650000
v 1269.405621 443.100808 2.650000
v 1270.191664 443.603624 2.650000
v 1269.407626 443.083006 2.650000
v 1269.407626 443.038006 2.650000
v 1270.394767 443.535923 2.650000
v 1268.382626 445.613006 2.650000
v 1268.357626 445.613006 2.650000
v 1268.357626 444.663006 2.650000
v 1268.415126 444.663006 2.650000
v 1268.416005 445.616767 2.650000
v 1268.432928 444.661000 2.650000
v 1268.447709 445.627861 2.650000
v 1268.449837 444.655084 2.650000
v 1270.607626 443.513006 2.650000
v 1269.232626 445.313006 2.650000
v 1268.499901 445.669483 2.650000
v 1268.476150 445.645731 2.650000
v 1268.465006 444.645553 2.650000
v 1268.477673 444.632885 2.650000
v 1268.487204 444.617717 2.650000
v 1268.493121 444.600808 2.650000
v 1269.236387 445.346384 2.650000
v 1268.517772 445.697924 2.650000
v 1269.247481 445.378089 2.650000
v 1268.528866 445.729628 2.650000
v 1269.265352 445.406530 2.650000
v 1271.807626 443.038006 2.650000
v 1271.023589 443.603624 2.650000
v 1270.820486 443.535923 2.650000
v 1271.807626 443.083006 2.650000
v 1271.809632 443.100808 2.650000
v 1271.207626 443.713006 2.650000
v 1271.815549 443.117717 2.650000
v 1271.825080 443.132885 2.650000
v 1269.061886 446.099002 2.650000
v 1268.532626 445.763006 2.650000
v 1269.085802 446.073442 2.650000
v 1269.114990 446.054121 2.650000
v 1269.044546 446.129408 2.650000
v 1268.532626 446.213006 2.650000
v 1269.147862 446.042090 2.650000
v 1269.289103 445.430281 2.650000
v 1269.034724 446.163006 2.650000
v 1269.182626 446.038006 2.650000
v 1269.317544 445.448151 2.650000
v 1269.349248 445.459245 2.650000
v 1269.034724 446.213006 2.650000
v 1269.327626 446.038006 2.650000
v 1269.382626 445.463006 2.650000
v 1269.345428 446.040012 2.650000
v 1269.362337 446.045929 2.650000
v 1269.377506 446.055460 2.650000
v 1269.959552 445.463006 2.650000
v 1269.390173 446.068127 2.650000
v 1269.399704 446.083295 2.650000
v 1270.017842 445.474795 2.650000
v 1269.989288 445.465983 2.650000
v 1269.405621 446.100204 2.650000
v 1270.044084 445.489093 2.650000
v 1271.832626 443.713006 2.650000
v 1271.837747 443.145553 2.650000
v 1271.852916 443.155084 2.650000
v 1271.869825 443.161000 2.650000
v 1271.887626 443.163006 2.650000
v 1271.866005 443.716767 2.650000
v 1271.897709 443.727861 2.650000
v 1271.926150 443.745731 2.650000
v 1272.382626 443.163006 2.650000
v 1271.949901 443.769483 2.650000
v 1271.967772 443.797924 2.650000
v 1271.978866 443.829628 2.650000
v 1272.416005 443.159245 2.650000
v 1270.256100 445.599184 2.650000
v 1269.407626 446.138006 2.650000
v 1269.407626 446.118006 2.650000
v 1270.488179 445.655847 2.650000
v 1273.232626 443.013006 2.650000
v 1272.499901 443.106530 2.650000
v 1272.517772 443.078089 2.650000
v 1272.528866 443.046384 2.650000
v 1272.532626 443.013006 2.650000
v 1270.727074 445.655847 2.650000
v 1273.412820 443.126229 2.650000
v 1273.277131 443.018021 2.650000
v 1273.319403 443.032812 2.650000
v 1273.357324 443.056640 2.650000
v 1273.388993 443.088308 2.650000
v 1273.432626 443.213006 2.650000
v 1273.427612 443.168502 2.650000
v 1271.225965 445.465983 2.650000
v 1271.171169 445.489093 2.650000
v 1271.197410 445.474795 2.650000
v 1271.255701 445.463006 2.650000
v 1272.800135 444.284367 2.650000
v 1272.766487 444.318015 2.650000
v 1271.982626 443.863006 2.650000
v 1273.432626 443.663006 2.650000
v 1272.476150 443.130281 2.650000
v 1272.741171 444.358306 2.650000
v 1272.840426 444.259050 2.650000
v 1272.447709 443.148151 2.650000
v 1272.725454 444.403220 2.650000
v 1272.885341 444.243334 2.650000
v 1272.720126 444.450506 2.650000
v 1272.932626 444.238006 2.650000
v 1272.720126 444.583006 2.650000
v 1271.982626 445.313006 2.650000
v 1272.722132 444.600808 2.650000
v 1272.728049 444.617717 2.650000
v 1272.737580 444.632885 2.650000
v 1272.750247 444.645553 2.650000
v 1272.765416 444.655084 2.650000
v 1273.507626 444.238006 2.650000
v 1273.507626 443.663006 2.650000
v 1271.837747 446.055460 2.650000
v 1271.825080 446.068127 2.650000
v 1271.832626 445.463006 2.650000
v 1271.815549 446.083295 2.650000
v 1271.852916 446.045929 2.650000
v 1271.809632 446.100204 2.650000
v 1270.959153 445.599184 2.650000
v 1271.869825 446.040012 2.650000
v 1271.807626 446.118006 2.650000
v 1271.887626 446.038006 2.650000
v 1271.866005 445.459245 2.650000
v 1271.807626 446.138006 2.650000
v 1272.032626 446.038006 2.650000
v 1271.897709 445.448151 2.650000
v 1271.926150 445.430281 2.650000
v 1272.067391 446.042090 2.650000
v 1271.949901 445.406530 2.650000
v 1272.100263 446.054121 2.650000
v 1272.715352 445.669483 2.650000
v 1272.739103 445.645731 2.650000
v 1271.978866 445.346384 2.650000
v 1272.697481 445.697924 2.650000
v 1271.967772 445.378089 2.650000
v 1272.767544 445.627861 2.650000
v 1272.782325 444.661000 2.650000
v 1272.686387 445.729628 2.650000
v 1272.799248 445.616767 2.650000
v 1272.800126 444.663006 2.650000
v 1272.682626 445.763006 2.650000
v 1272.170707 446.129408 2.650000
v 1272.153367 446.099002 2.650000
v 1272.129451 446.073442 2.650000
v 1272.832626 445.613006 2.650000
v 1272.857626 444.663006 2.650000
v 1272.857626 445.613006 2.650000
v 1272.682626 446.213006 2.650000
v 1272.180528 446.213006 2.650000
v 1272.180528 446.163006 2.650000
v 1268.211387 444.663006 2.533378
v 1268.207626 444.663006 2.500000
v 1268.222481 444.663006 2.565083
v 1268.240352 444.663006 2.593523
v 1268.264103 444.663006 2.617275
v 1268.292544 444.663006 2.635145
v 1268.324248 444.663006 2.646239
v 1268.207626 444.663006 1.850000
v 1268.207626 445.313006 1.850000
v 1268.207626 445.313006 1.225000
v 1268.207626 445.659888 1.225000
v 1268.211670 445.694481 1.225000
v 1268.223582 445.727208 1.225000
v 1268.241652 445.755024 1.225000
v 1268.584906 446.178907 1.225000
v 1268.700196 446.136044 1.225000
v 1268.207626 445.659888 1.791066
v 1268.207626 445.613006 1.900000
v 1268.207626 445.616092 1.869729
v 1268.207626 445.625224 1.840703
v 1268.207626 445.640026 1.814117
v 1268.207626 445.613006 2.500000
v 1268.217346 445.713006 1.758579
v 1268.211728 445.694728 1.766462
v 1268.208571 445.676698 1.777317
v 1268.222886 445.725824 1.758579
v 1268.229796 445.738326 1.758579
v 1268.241728 445.755118 1.758579
v 1268.700196 446.136044 1.758579
v 1268.584906 446.178907 1.758579
v 1268.211387 445.613006 2.533378
v 1268.324248 445.613006 2.646239
v 1268.292544 445.613006 2.635145
v 1268.222481 445.613006 2.565083
v 1268.240352 445.613006 2.593523
v 1268.264103 445.613006 2.617275
v 1269.407626 446.288006 2.500000
v 1269.407626 446.288006 2.050000
v 1269.407626 446.138006 2.050000
v 1269.407626 446.284245 2.533378
v 1269.407626 446.171384 2.646239
v 1269.407626 446.273151 2.565083
v 1269.407626 446.203089 2.635145
v 1269.407626 446.255281 2.593523
v 1269.407626 446.231530 2.617275
v 1269.492544 446.138006 1.914855
v 1269.524248 446.138006 1.903761
v 1269.464103 446.138006 1.932725
v 1269.422481 446.138006 1.984917
v 1269.411387 446.138006 2.016622
v 1269.440352 446.138006 1.956477
v 1269.557626 446.138006 1.900000
v 1271.657626 446.138006 1.900000
v 1271.751150 446.138006 1.932725
v 1271.774901 446.138006 1.956477
v 1271.722709 446.138006 1.914855
v 1271.792772 446.138006 1.984917
v 1271.691005 446.138006 1.903761
v 1271.803866 446.138006 2.016622
v 1271.807626 446.138006 2.050000
v 1271.807626 446.171384 2.646239
v 1271.807626 446.203089 2.635145
v 1271.807626 446.231530 2.617275
v 1271.807626 446.255281 2.593523
v 1271.807626 446.273151 2.565083
v 1271.807626 446.284245 2.533378
v 1271.807626 446.288006 2.500000
v 1271.807626 446.288006 2.050000
v 1273.007626 445.613006 1.900000
v 1272.857626 445.613006 1.900000
v 1272.974901 445.613006 2.593523
v 1272.992772 445.613006 2.565083
v 1273.003866 445.613006 2.533378
v 1273.007626 445.613006 2.500000
v 1272.951150 445.613006 2.617275
v 1272.922709 445.613006 2.635145
v 1272.891005 445.613006 2.646239
v 1273.007626 444.663006 2.500000
v 1273.007626 444.663006 1.850000
v 1273.007626 445.313006 1.850000
v 1273.007626 445.659888 1.791066
v 1273.007626 445.313006 1.225000
v 1273.007626 445.659888 1.225000
v 1273.007626 445.640026 1.814117
v 1273.007626 445.625224 1.840703
v 1273.007626 445.616092 1.869729
v 1272.857626 445.313006 1.225000
v 1272.857626 445.713006 1.225000
v 1272.974198 445.754286 1.225000
v 1272.992446 445.725644 1.225000
v 1273.003782 445.693631 1.225000
v 1272.630347 446.178907 1.225000
v 1272.515057 446.136044 1.225000
v 1272.974198 445.754286 1.758579
v 1272.630347 446.178907 1.758579
v 1272.991480 445.727589 1.758579
v 1272.857626 445.713006 1.758579
v 1272.997872 445.713006 1.758579
v 1272.983549 445.741397 1.758579
v 1272.515057 446.136044 1.758579
v 1273.003525 445.694724 1.766441
v 1272.857626 445.680048 1.775028
v 1273.006679 445.676725 1.777316
v 1272.857626 445.652092 1.799015
v 1272.857626 445.630825 1.829091
v 1272.857626 445.617529 1.863443
v 1272.857626 445.313006 1.850000
v 1272.857626 444.663006 1.850000
v 1272.891005 444.663006 2.646239
v 1272.922709 444.663006 2.635145
v 1272.951150 444.663006 2.617275
v 1272.974901 444.663006 2.593523
v 1272.992772 444.663006 2.565083
v 1273.003866 444.663006 2.533378
v 1273.657626 444.238006 1.225000
v 1273.507626 444.238006 1.225000
v 1273.624901 444.238006 2.593523
v 1273.642772 444.238006 2.565083
v 1273.653866 444.238006 2.533378
v 1273.657626 444.238006 2.500000
v 1273.601150 444.238006 2.617275
v 1273.572709 444.238006 2.635145
v 1273.541005 444.238006 2.646239
v 1273.657626 443.663006 1.900000
v 1273.657626 443.663006 2.500000
v 1273.657626 443.572093 1.225000
v 1273.657626 443.627776 1.803419
v 1273.657626 443.602352 1.779513
v 1273.657626 443.572093 1.762128
v 1273.657626 443.658946 1.865339
v 1273.657626 443.646987 1.832554
v 1273.507626 443.663006 1.900000
v 1273.507626 443.659245 1.866622
v 1273.507626 443.648151 1.834917
v 1273.507626 443.630281 1.806477
v 1273.507626 443.606530 1.782725
v 1273.507626 443.578089 1.764855
v 1273.656314 443.552295 1.755236
v 1273.507626 443.546384 1.753761
v 1273.652251 443.532298 1.751257
v 1273.507626 443.513006 1.750000
v 1273.645499 443.513006 1.750000
v 1273.617330 443.469793 1.750000
v 1273.273349 443.100919 1.750000
v 1273.182945 443.164828 1.750000
v 1273.628362 443.483081 1.750000
v 1273.637793 443.497550 1.750000
v 1273.273349 443.100919 1.225000
v 1273.617330 443.469793 1.225000
v 1273.507626 443.513006 1.225000
v 1273.654994 443.544114 1.225000
v 1273.647189 443.517118 1.225000
v 1273.634486 443.492051 1.225000
v 1273.182945 443.164828 1.225000
v 1273.601150 443.663006 2.617275
v 1273.572709 443.663006 2.635145
v 1273.541005 443.663006 2.646239
v 1273.624901 443.663006 2.593523
v 1273.642772 443.663006 2.565083
v 1273.653866 443.663006 2.533378
v 1271.807626 442.891767 2.533378
v 1271.807626 442.888006 2.500000
v 1271.807626 442.902861 2.565083
v 1271.807626 442.920731 2.593523
v 1271.807626 442.944483 2.617275
v 1271.807626 442.972924 2.635145
v 1271.807626 443.004628 2.646239
v 1271.807626 442.888006 2.050000
v 1271.807626 443.038006 2.050000
v 1269.440352 443.038006 1.956477
v 1269.492544 443.038006 1.914855
v 1269.464103 443.038006 1.932725
v 1269.422481 443.038006 1.984917
v 1269.524248 443.038006 1.903761
v 1269.557626 443.038006 1.900000
v 1269.407626 443.038006 2.050000
v 1269.411387 443.038006 2.016622
v 1271.657626 443.038006 1.900000
v 1271.803866 443.038006 2.016622
v 1271.792772 443.038006 1.984917
v 1271.691005 443.038006 1.903761
v 1271.751150 443.038006 1.932725
v 1271.722709 443.038006 1.914855
v 1271.774901 443.038006 1.956477
v 1269.407626 442.888006 2.050000
v 1269.407626 442.888006 2.500000
v 1269.407626 442.902861 2.565083
v 1269.407626 442.920731 2.593523
v 1269.407626 442.891767 2.533378
v 1269.407626 442.944483 2.617275
v 1269.407626 442.972924 2.635145
v 1269.407626 443.004628 2.646239
v 1267.674248 443.663006 2.646239
v 1267.642544 443.663006 2.635145
v 1267.614103 443.663006 2.617275
v 1267.590352 443.663006 2.593523
v 1267.572481 443.663006 2.565083
v 1267.561387 443.663006 2.533378
v 1267.557626 443.663006 2.500000
v 1267.557626 443.663006 1.900000
v 1267.707626 443.663006 1.900000
v 1267.557626 443.602352 1.779513
v 1267.557626 443.572093 1.225000
v 1267.557626 443.572093 1.762128
v 1267.557626 443.627776 1.803419
v 1267.557626 444.238006 1.225000
v 1267.557626 443.646987 1.832554
v 1267.557626 443.658946 1.865339
v 1267.557626 444.238006 2.500000
v 1267.597923 443.469793 1.225000
v 1267.707626 443.513006 1.225000
v 1267.941904 443.100919 1.225000
v 1268.032308 443.164828 1.225000
v 1267.580767 443.492051 1.225000
v 1267.568064 443.517118 1.225000
v 1267.560259 443.544114 1.225000
v 1267.707626 444.238006 1.225000
v 1267.597923 443.469793 1.750000
v 1267.941904 443.100919 1.750000
v 1268.032308 443.164828 1.750000
v 1267.707626 443.513006 1.750000
v 1267.586891 443.483081 1.750000
v 1267.577460 443.497550 1.750000
v 1267.569754 443.513006 1.750000
v 1267.562945 443.532503 1.751272
v 1267.707626 443.546384 1.753761
v 1267.558912 443.552496 1.755305
v 1267.707626 443.578089 1.764855
v 1267.707626 443.606530 1.782725
v 1267.707626 443.630281 1.806477
v 1267.707626 443.648151 1.834917
v 1267.707626 443.659245 1.866622
v 1267.674248 444.238006 2.646239
v 1267.561387 444.238006 2.533378
v 1267.642544 444.238006 2.635145
v 1267.572481 444.238006 2.565083
v 1267.614103 444.238006 2.617275
v 1267.590352 444.238006 2.593523
v 1269.557626 442.888006 1.900000
v 1269.411387 442.888006 2.016622
v 1269.422481 442.888006 1.984917
v 1269.440352 442.888006 1.956477
v 1269.464103 442.888006 1.932725
v 1269.492544 442.888006 1.914855
v 1269.524248 442.888006 1.903761
v 1271.657626 442.888006 1.900000
v 1271.691005 442.888006 1.903761
v 1271.722709 442.888006 1.914855
v 1271.751150 442.888006 1.932725
v 1271.774901 442.888006 1.956477
v 1271.792772 442.888006 1.984917
v 1271.803866 442.888006 2.016622
v 1269.557626 446.288006 1.900000
v 1269.524248 446.288006 1.903761
v 1269.492544 446.288006 1.914855
v 1269.464103 446.288006 1.932725
v 1269.440352 446.288006 1.956477
v 1269.422481 446.288006 1.984917
v 1269.411387 446.288006 2.016622
v 1271.657626 446.288006 1.900000
v 1271.792772 446.288006 1.984917
v 1271.774901 446.288006 1.956477
v 1271.751150 446.288006 1.932725
v 1271.722709 446.288006 1.914855
v 1271.691005 446.288006 1.903761
v 1271.803866 446.288006 2.016622
f 1 2 3
f 1 4 2
f 5 4 1
f 6 5 1
f 7 6 1
f 8 7 1
f 9 10 8
f 9 8 1
f 11 12 10
f 11 10 9
f 13 14 15
f 14 16 15
f 15 16 17
f 16 18 17
f 18 19 17
f 19 20 17
f 17 20 21
f 22 2 4
f 23 24 22
f 22 24 2
f 23 25 24
f 26 25 23
f 26 27 25
f 28 29 30
f 20 31 21
f 30 31 20
f 29 31 30
f 28 32 29
f 21 33 34
f 31 33 21
f 35 36 28
f 28 36 32
f 33 37 34
f 34 37 38
f 39 40 35
f 41 40 39
f 42 40 41
f 35 40 36
f 43 44 45
f 46 44 43
f 47 44 46
f 48 44 47
f 27 44 48
f 49 44 26
f 38 44 49
f 26 44 27
f 37 44 38
f 50 51 52
f 52 51 53
f 53 51 54
f 55 56 42
f 57 56 55
f 58 56 57
f 42 56 40
f 56 59 60
f 56 61 59
f 58 61 56
f 58 62 61
f 63 62 64
f 64 62 58
f 65 66 67
f 66 68 69
f 63 70 62
f 68 71 72
f 66 73 68
f 65 73 66
f 51 73 65
f 68 73 71
f 63 74 70
f 45 75 76
f 77 75 78
f 79 75 77
f 80 75 79
f 81 75 80
f 76 75 81
f 44 75 45
f 75 82 78
f 51 83 73
f 51 84 83
f 50 84 51
f 83 85 73
f 78 86 50
f 50 86 84
f 85 87 73
f 78 88 86
f 82 88 78
f 63 89 74
f 74 89 90
f 91 92 82
f 93 92 91
f 94 92 93
f 82 92 88
f 87 95 73
f 89 96 90
f 90 97 98
f 96 97 90
f 98 99 100
f 101 102 97
f 103 102 101
f 104 102 103
f 97 102 98
f 98 102 99
f 105 106 94
f 107 106 105
f 108 106 107
f 94 106 92
f 108 109 106
f 108 110 109
f 108 111 110
f 108 112 111
f 112 113 114
f 108 113 112
f 113 115 114
f 116 117 104
f 118 117 116
f 119 117 118
f 104 117 102
f 120 121 119
f 119 121 117
f 120 122 121
f 123 124 125
f 125 124 126
f 127 128 120
f 120 128 122
f 129 130 127
f 127 130 128
f 113 131 115
f 115 131 132
f 132 131 133
f 131 134 133
f 135 136 129
f 137 136 135
f 126 136 137
f 124 136 126
f 129 138 130
f 136 138 129
f 130 138 139
f 138 140 139
f 139 140 141
f 140 142 141
f 141 142 143
f 142 144 143
f 134 145 133
f 144 146 143
f 143 147 148
f 148 149 143
f 146 150 143
f 143 150 147
f 149 151 143
f 146 152 150
f 153 152 146
f 153 154 152
f 155 154 153
f 143 156 157
f 151 156 143
f 158 159 155
f 155 159 154
f 156 160 157
f 160 161 157
f 161 162 157
f 162 163 157
f 163 164 157
f 164 165 157
f 157 165 166
f 167 168 169
f 169 168 170
f 169 171 167
f 168 172 170
f 169 173 171
f 172 174 170
f 170 174 175
f 174 176 175
f 169 177 173
f 178 177 169
f 179 177 178
f 180 177 179
f 145 181 133
f 176 181 175
f 182 181 145
f 175 181 182
f 180 183 177
f 184 183 180
f 185 183 184
f 166 183 185
f 166 186 183
f 165 186 166
f 165 187 186
f 188 187 165
f 188 189 187
f 188 190 189
f 189 190 191
f 192 190 193
f 193 190 188
f 192 194 190
f 195 196 197
f 198 196 195
f 191 196 198
f 190 196 191
f 199 196 190
f 196 200 201
f 199 200 196
f 201 202 203
f 200 202 201
f 203 204 205
f 202 204 203
f 206 113 108
f 206 108 207
f 208 209 210
f 208 210 211
f 208 211 212
f 208 212 213
f 208 213 214
f 208 214 215
f 216 209 208
f 217 208 218
f 219 208 217
f 220 216 208
f 220 208 219
f 221 216 220
f 222 223 216
f 224 222 216
f 225 216 221
f 225 221 226
f 225 224 216
f 227 225 226
f 227 226 228
f 229 230 231
f 232 230 229
f 233 230 232
f 234 229 231
f 235 228 230
f 235 227 228
f 235 230 233
f 236 234 231
f 237 238 239
f 237 239 240
f 237 240 241
f 237 241 242
f 237 242 227
f 237 243 238
f 237 227 235
f 207 236 231
f 207 231 244
f 207 244 245
f 207 245 246
f 207 246 247
f 206 247 248
f 206 248 249
f 206 207 247
f 250 206 249
f 250 249 251
f 250 251 252
f 253 250 252
f 254 255 256
f 254 256 257
f 258 257 259
f 258 254 257
f 260 259 261
f 260 258 259
f 262 253 252
f 263 264 265
f 263 265 260
f 263 261 266
f 263 266 267
f 263 267 268
f 263 268 269
f 263 269 243
f 263 260 261
f 263 243 237
f 270 264 263
f 270 271 264
f 272 271 270
f 272 273 271
f 274 273 272
f 275 262 252
f 275 276 277
f 275 277 262
f 278 276 275
f 279 276 278
f 280 276 279
f 281 280 279
f 282 280 281
f 283 284 285
f 286 284 273
f 286 273 274
f 286 285 284
f 287 288 284
f 287 284 283
f 289 274 290
f 289 286 274
f 291 288 287
f 292 289 290
f 292 290 293
f 292 293 294
f 295 288 291
f 296 294 297
f 296 292 294
f 298 296 297
f 299 298 297
f 300 297 301
f 300 299 297
f 302 300 301
f 303 302 301
f 304 301 305
f 306 303 301
f 307 306 301
f 307 301 304
f 308 282 309
f 308 309 310
f 308 310 311
f 308 311 312
f 308 280 282
f 313 308 312
f 314 313 312
f 315 314 312
f 315 312 316
f 317 315 316
f 318 317 316
f 319 318 316
f 319 316 320
f 321 322 323
f 321 323 306
f 321 306 307
f 324 322 321
f 325 326 327
f 325 327 328
f 325 328 329
f 330 322 324
f 331 332 333
f 331 333 334
f 331 334 335
f 336 325 332
f 336 332 331
f 336 331 337
f 338 339 340
f 341 339 338
f 342 343 344
f 345 326 325
f 345 325 336
f 345 346 326
f 347 344 343
f 348 319 320
f 348 320 349
f 348 342 344
f 348 344 319
f 350 344 347
f 351 349 346
f 351 348 349
f 351 346 345
f 352 344 350
f 353 351 345
f 354 355 344
f 354 344 352
f 356 355 354
f 357 355 356
f 358 355 357
f 359 355 358
f 360 355 359
f 361 345 362
f 361 353 345
f 363 364 341
f 363 341 365
f 366 341 364
f 367 363 365
f 368 341 366
f 368 369 339
f 368 339 341
f 370 367 365
f 371 369 368
f 372 370 365
f 372 365 373
f 374 369 371
f 374 322 330
f 374 330 369
f 375 372 373
f 375 373 376
f 375 376 377
f 378 375 377
f 378 377 379
f 380 378 379
f 381 355 382
f 381 383 355
f 384 383 381
f 384 385 383
f 386 355 360
f 386 382 355
f 386 360 387
f 388 380 379
f 388 385 384
f 388 379 385
f 389 386 387
f 389 387 390
f 391 380 388
f 391 392 393
f 391 393 394
f 391 394 380
f 395 389 390
f 395 390 396
f 397 395 396
f 398 392 391
f 398 399 400
f 398 400 392
f 308 313 169
f 169 313 178
f 178 314 179
f 313 314 178
f 179 315 180
f 314 315 179
f 180 317 184
f 315 317 180
f 184 318 185
f 317 318 184
f 185 319 166
f 318 319 185
f 166 344 157
f 319 344 166
f 170 308 169
f 280 308 170
f 206 250 113
f 113 250 131
f 131 253 134
f 250 253 131
f 134 262 145
f 253 262 134
f 145 277 182
f 262 277 145
f 182 276 175
f 277 276 182
f 175 280 170
f 276 280 175
f 344 355 143
f 344 143 157
f 355 383 143
f 143 383 141
f 141 385 139
f 383 385 141
f 139 379 130
f 385 379 139
f 130 377 128
f 379 377 130
f 128 376 122
f 377 376 128
f 122 373 121
f 121 373 117
f 376 373 122
f 373 365 117
f 365 341 102
f 365 102 117
f 339 98 100
f 340 100 99
f 340 339 100
f 338 99 102
f 338 340 99
f 341 338 102
f 98 339 90
f 90 369 74
f 339 369 90
f 369 330 74
f 74 324 70
f 330 324 74
f 70 321 62
f 324 321 70
f 62 307 61
f 321 307 62
f 305 301 56
f 305 56 60
f 304 60 59
f 304 305 60
f 307 59 61
f 307 304 59
f 56 297 40
f 301 297 56
f 297 294 40
f 40 294 36
f 36 293 32
f 294 293 36
f 32 290 29
f 293 290 32
f 29 274 31
f 290 274 29
f 31 272 33
f 274 272 31
f 33 270 37
f 272 270 33
f 37 263 44
f 270 263 37
f 44 237 75
f 263 237 44
f 75 237 82
f 82 235 91
f 237 235 82
f 91 233 93
f 235 233 91
f 93 232 94
f 233 232 93
f 94 229 105
f 232 229 94
f 105 234 107
f 229 234 105
f 107 236 108
f 234 236 107
f 236 207 108
f 243 45 238
f 45 76 238
f 45 243 43
f 43 269 46
f 243 269 43
f 46 268 47
f 269 268 46
f 47 267 48
f 268 267 47
f 48 266 27
f 267 266 48
f 27 261 25
f 266 261 27
f 25 259 24
f 261 259 25
f 259 257 24
f 2 257 256
f 2 401 402
f 2 403 401
f 2 404 403
f 2 405 404
f 2 406 405
f 2 407 406
f 2 256 407
f 24 257 2
f 408 2 402
f 3 2 408
f 409 1 408
f 408 1 3
f 9 1 410
f 410 1 409
f 411 11 9
f 411 9 410
f 412 11 411
f 413 11 412
f 414 11 413
f 415 416 11
f 415 11 414
f 417 411 410
f 409 418 419
f 409 419 420
f 409 420 421
f 409 421 417
f 409 417 410
f 422 418 409
f 402 409 408
f 402 422 409
f 423 424 12
f 12 424 10
f 424 425 10
f 10 417 8
f 425 417 10
f 8 421 7
f 417 421 8
f 7 420 6
f 421 420 7
f 6 419 5
f 420 419 6
f 419 418 5
f 12 426 423
f 12 427 426
f 12 428 427
f 429 430 12
f 12 430 428
f 428 430 415
f 428 415 414
f 429 416 415
f 430 429 415
f 416 12 11
f 429 12 416
f 427 428 414
f 427 414 413
f 426 427 413
f 423 413 412
f 423 426 413
f 424 423 412
f 425 412 411
f 425 424 412
f 417 425 411
f 4 5 418
f 255 254 22
f 255 22 4
f 422 4 418
f 431 4 422
f 432 255 4
f 433 432 4
f 434 4 431
f 435 4 434
f 436 433 4
f 436 4 435
f 284 21 273
f 17 21 284
f 273 34 271
f 21 34 273
f 271 38 264
f 34 38 271
f 264 49 265
f 38 49 264
f 265 26 260
f 49 26 265
f 260 23 258
f 26 23 260
f 258 22 254
f 23 22 258
f 288 15 284
f 284 15 17
f 295 13 288
f 288 13 15
f 13 295 14
f 14 295 291
f 28 30 292
f 292 30 289
f 289 20 286
f 30 20 289
f 286 19 285
f 20 19 286
f 285 18 283
f 19 18 285
f 283 16 287
f 18 16 283
f 287 14 291
f 16 14 287
f 296 35 28
f 296 28 292
f 323 64 306
f 306 58 303
f 64 58 306
f 303 57 302
f 58 57 303
f 302 55 300
f 57 55 302
f 300 42 299
f 55 42 300
f 299 41 298
f 42 41 299
f 298 39 296
f 41 39 298
f 39 35 296
f 323 63 64
f 437 438 439
f 437 439 63
f 322 63 323
f 440 437 63
f 441 63 322
f 442 440 63
f 443 63 441
f 444 442 63
f 445 63 443
f 445 444 63
f 446 447 448
f 449 439 450
f 451 439 449
f 448 439 451
f 447 452 448
f 448 452 439
f 452 63 439
f 452 453 63
f 454 455 456
f 456 457 458
f 455 457 456
f 457 459 458
f 458 460 453
f 459 460 458
f 453 89 63
f 460 89 453
f 89 461 374
f 89 462 461
f 89 463 462
f 89 374 371
f 89 371 96
f 464 463 89
f 465 464 89
f 466 465 89
f 467 466 89
f 460 467 89
f 468 467 460
f 372 119 370
f 370 118 367
f 119 118 370
f 367 116 363
f 118 116 367
f 363 104 364
f 116 104 363
f 364 103 366
f 104 103 364
f 366 101 368
f 103 101 366
f 368 97 371
f 101 97 368
f 97 96 371
f 372 120 119
f 375 120 372
f 400 125 392
f 392 126 393
f 125 126 392
f 393 137 394
f 126 137 393
f 394 135 380
f 137 135 394
f 380 129 378
f 135 129 380
f 378 127 375
f 129 127 378
f 127 120 375
f 399 123 400
f 400 123 125
f 399 124 123
f 398 124 399
f 124 398 136
f 136 398 391
f 395 155 389
f 389 153 386
f 155 153 389
f 386 146 382
f 153 146 386
f 382 144 381
f 146 144 382
f 381 142 384
f 144 142 381
f 384 140 388
f 142 140 384
f 388 138 391
f 140 138 388
f 138 136 391
f 158 469 470
f 158 471 472
f 158 472 473
f 158 473 474
f 158 474 469
f 475 471 158
f 476 475 158
f 477 476 158
f 397 158 155
f 397 477 158
f 395 397 155
f 478 479 480
f 481 480 482
f 481 482 483
f 484 480 481
f 485 480 484
f 486 480 485
f 469 480 486
f 474 478 480
f 474 480 469
f 483 482 487
f 488 489 490
f 488 490 491
f 488 491 483
f 488 483 487
f 492 489 488
f 493 492 488
f 492 494 489
f 495 494 492
f 496 497 498
f 499 497 496
f 494 497 499
f 494 495 497
f 495 500 497
f 498 497 501
f 501 502 503
f 503 502 481
f 497 502 501
f 481 504 484
f 502 504 481
f 484 505 485
f 504 505 484
f 485 506 486
f 505 506 485
f 486 470 469
f 506 470 486
f 507 508 159
f 504 487 507
f 502 488 487
f 502 487 504
f 505 504 507
f 497 488 502
f 506 505 507
f 470 506 507
f 158 507 159
f 158 470 507
f 159 509 396
f 159 510 509
f 159 511 510
f 159 396 390
f 159 390 154
f 512 511 159
f 513 512 159
f 514 513 159
f 478 514 159
f 508 478 159
f 479 478 508
f 154 390 152
f 152 387 150
f 390 387 152
f 150 360 147
f 387 360 150
f 147 359 148
f 360 359 147
f 148 358 149
f 359 358 148
f 149 357 151
f 358 357 149
f 151 356 156
f 357 356 151
f 356 354 156
f 160 156 352
f 352 156 354
f 160 352 161
f 161 350 162
f 352 350 161
f 162 347 163
f 350 347 162
f 163 343 164
f 347 343 163
f 164 342 165
f 343 342 164
f 165 348 188
f 342 348 165
f 188 351 193
f 348 351 188
f 351 353 193
f 192 515 516
f 192 517 518
f 192 518 519
f 192 519 520
f 192 520 515
f 521 517 192
f 522 521 192
f 523 522 192
f 361 523 192
f 193 361 192
f 353 361 193
f 524 520 525
f 526 527 528
f 526 528 529
f 515 524 530
f 515 530 531
f 515 531 527
f 515 520 524
f 515 527 526
f 532 533 524
f 524 533 530
f 530 534 531
f 533 534 530
f 531 535 527
f 534 535 531
f 527 536 528
f 535 536 527
f 528 537 529
f 529 537 538
f 536 537 528
f 538 539 540
f 537 539 538
f 540 541 542
f 539 541 540
f 543 541 544
f 544 541 545
f 546 541 543
f 547 541 546
f 542 541 547
f 544 548 549
f 543 544 549
f 550 526 551
f 550 551 552
f 550 552 553
f 550 553 549
f 550 549 548
f 550 548 554
f 516 515 526
f 516 526 550
f 192 532 194
f 539 550 541
f 537 550 539
f 536 550 537
f 535 516 536
f 534 516 535
f 533 516 534
f 532 516 533
f 192 516 532
f 536 516 550
f 541 550 554
f 545 541 554
f 545 554 548
f 544 545 548
f 194 555 556
f 194 556 557
f 194 557 362
f 194 362 345
f 194 345 190
f 558 555 194
f 559 558 194
f 560 559 194
f 525 560 194
f 524 194 532
f 524 525 194
f 190 336 199
f 345 336 190
f 199 336 337
f 200 337 331
f 200 199 337
f 202 331 335
f 202 200 331
f 204 335 334
f 204 202 335
f 205 334 333
f 205 204 334
f 203 333 332
f 203 205 333
f 201 332 325
f 201 203 332
f 196 201 325
f 325 329 197
f 196 325 197
f 183 186 316
f 316 186 320
f 320 187 349
f 186 187 320
f 349 189 346
f 187 189 349
f 346 191 326
f 189 191 346
f 326 198 327
f 191 198 326
f 327 195 328
f 198 195 327
f 328 197 329
f 195 197 328
f 316 177 183
f 316 312 177
f 176 174 278
f 278 174 279
f 279 172 281
f 174 172 279
f 281 168 282
f 172 168 281
f 282 167 309
f 168 167 282
f 309 171 310
f 167 171 309
f 310 173 311
f 171 173 310
f 311 177 312
f 173 177 311
f 181 278 275
f 181 561 562
f 181 563 561
f 181 564 563
f 181 565 564
f 181 566 565
f 181 567 566
f 181 275 567
f 176 278 181
f 568 181 562
f 569 181 568
f 570 571 572
f 573 574 570
f 570 574 571
f 133 575 576
f 577 575 573
f 576 575 577
f 573 575 574
f 181 578 133
f 133 578 575
f 181 569 578
f 579 580 569
f 581 582 583
f 578 584 581
f 569 584 578
f 580 584 569
f 581 584 582
f 133 576 585
f 133 585 586
f 133 587 588
f 133 589 587
f 133 586 589
f 590 133 588
f 591 133 590
f 592 133 591
f 252 133 592
f 251 132 133
f 251 133 252
f 251 249 132
f 132 249 115
f 115 248 114
f 249 248 115
f 114 247 112
f 248 247 114
f 112 246 111
f 247 246 112
f 111 245 110
f 246 245 111
f 110 244 109
f 245 244 110
f 109 231 106
f 244 231 109
f 106 230 92
f 231 230 106
f 218 95 217
f 217 87 219
f 95 87 217
f 219 85 220
f 87 85 219
f 220 83 221
f 85 83 220
f 221 84 226
f 83 84 221
f 226 86 228
f 84 86 226
f 228 88 230
f 86 88 228
f 88 92 230
f 218 208 73
f 95 218 73
f 73 208 215
f 71 215 214
f 71 73 215
f 72 214 213
f 72 71 214
f 68 213 212
f 68 72 213
f 69 212 211
f 69 68 212
f 66 211 210
f 66 69 211
f 67 210 209
f 67 66 210
f 65 67 209
f 209 216 51
f 209 51 65
f 54 223 593
f 54 593 594
f 54 594 595
f 54 595 596
f 54 596 597
f 54 597 598
f 54 598 599
f 51 216 223
f 51 223 54
f 600 54 599
f 601 54 600
f 602 603 604
f 605 603 602
f 606 603 605
f 607 606 605
f 608 606 607
f 600 606 608
f 609 600 599
f 609 606 600
f 610 611 612
f 612 611 613
f 614 611 610
f 615 611 614
f 616 611 615
f 603 611 616
f 606 617 603
f 603 617 611
f 618 610 612
f 619 618 612
f 620 621 619
f 621 618 619
f 621 622 618
f 621 623 622
f 621 624 623
f 624 621 625
f 625 626 627
f 621 626 625
f 604 628 602
f 627 628 604
f 626 628 627
f 602 629 605
f 628 629 602
f 605 630 607
f 629 630 605
f 607 631 608
f 630 631 607
f 608 632 600
f 631 632 608
f 632 601 600
f 611 626 621
f 611 628 626
f 611 629 628
f 629 617 630
f 611 617 629
f 617 631 630
f 617 632 631
f 617 601 632
f 601 53 54
f 617 53 601
f 621 620 613
f 621 613 611
f 620 619 612
f 620 612 613
f 53 617 606
f 222 224 52
f 222 52 53
f 609 53 606
f 633 222 53
f 634 53 609
f 635 633 53
f 636 53 634
f 637 635 53
f 638 53 636
f 638 637 53
f 609 599 598
f 634 598 597
f 634 609 598
f 636 597 596
f 636 634 597
f 638 596 595
f 638 636 596
f 637 595 594
f 637 638 595
f 635 594 593
f 635 637 594
f 633 593 223
f 633 635 593
f 222 633 223
f 224 225 52
f 52 225 50
f 50 227 78
f 225 227 50
f 78 242 77
f 227 242 78
f 77 241 79
f 242 241 77
f 79 240 80
f 241 240 79
f 80 239 81
f 240 239 80
f 81 238 76
f 239 238 81
f 610 618 622
f 614 622 623
f 614 610 622
f 615 623 624
f 615 624 625
f 615 614 623
f 616 625 627
f 616 615 625
f 603 627 604
f 603 616 627
f 589 586 562
f 589 562 561
f 587 561 563
f 587 589 561
f 588 563 564
f 588 587 563
f 590 564 565
f 590 588 564
f 591 565 566
f 591 590 565
f 592 566 567
f 592 591 566
f 252 567 275
f 252 592 567
f 639 585 640
f 639 640 641
f 639 641 642
f 639 642 643
f 639 643 644
f 639 644 645
f 586 585 639
f 646 586 639
f 568 646 647
f 568 647 648
f 568 648 649
f 568 649 650
f 568 650 651
f 568 651 652
f 562 586 646
f 562 646 568
f 575 578 639
f 639 578 646
f 640 585 576
f 640 576 577
f 641 577 573
f 641 640 577
f 642 573 570
f 642 641 573
f 643 570 572
f 643 642 570
f 644 572 571
f 644 643 572
f 645 571 574
f 645 644 571
f 639 574 575
f 639 645 574
f 647 646 578
f 647 578 581
f 648 581 583
f 648 647 581
f 649 583 582
f 649 648 583
f 650 582 584
f 650 649 582
f 651 584 580
f 651 650 584
f 652 580 579
f 652 651 580
f 568 579 569
f 568 652 579
f 525 520 519
f 560 519 518
f 560 525 519
f 559 518 517
f 559 560 518
f 558 517 521
f 558 559 517
f 555 521 522
f 555 558 521
f 556 522 523
f 556 555 522
f 557 523 361
f 557 556 523
f 362 557 361
f 546 543 549
f 546 549 553
f 547 553 552
f 547 546 553
f 542 547 552
f 540 552 551
f 540 542 552
f 538 551 526
f 538 540 551
f 529 538 526
f 478 474 473
f 514 473 472
f 514 478 473
f 513 472 471
f 513 514 472
f 512 471 475
f 512 513 471
f 511 475 476
f 511 512 475
f 510 476 477
f 510 511 476
f 509 477 397
f 509 510 477
f 396 509 397
f 508 507 479
f 507 480 479
f 487 480 507
f 482 480 487
f 497 500 493
f 497 493 488
f 500 495 492
f 500 492 493
f 503 481 483
f 503 483 491
f 501 503 491
f 498 491 490
f 498 501 491
f 496 498 490
f 499 490 489
f 499 496 490
f 494 499 489
f 322 374 461
f 441 461 462
f 441 322 461
f 443 462 463
f 443 441 462
f 445 463 464
f 445 443 463
f 444 464 465
f 444 445 464
f 442 465 466
f 442 444 465
f 440 466 467
f 440 442 466
f 437 440 467
f 438 653 654
f 438 654 655
f 438 655 656
f 438 656 657
f 438 657 658
f 438 658 659
f 437 653 438
f 660 653 437
f 661 662 663
f 661 663 664
f 661 664 665
f 468 666 661
f 468 665 660
f 468 661 665
f 467 660 437
f 467 468 660
f 653 660 453
f 653 453 452
f 458 453 660
f 458 660 665
f 456 665 664
f 456 458 665
f 454 664 663
f 454 456 664
f 455 663 662
f 455 454 663
f 457 662 661
f 457 455 662
f 459 661 666
f 459 457 661
f 460 666 468
f 460 459 666
f 450 439 438
f 450 438 659
f 449 659 658
f 449 450 659
f 451 658 657
f 451 449 658
f 448 657 656
f 448 451 657
f 446 656 655
f 446 448 656
f 447 655 654
f 447 446 655
f 452 654 653
f 452 447 654
f 407 256 255
f 407 255 432
f 406 432 433
f 406 407 432
f 405 433 436
f 405 406 433
f 404 436 435
f 404 405 436
f 403 435 434
f 403 404 435
f 401 434 431
f 401 403 434
f 402 431 422
f 402 401 431
