# smartdrone2 body-local mesh, millimetres
v 4.306459 125.775739 -0.250980
v 4.299038 125.750000 0.000000
v 3.000000 123.500000 0.000000
v 2.912825 123.500000 -0.717947
v 4.330281 125.853576 -0.498003
v 4.376644 125.991592 -0.738447
v 2.656368 123.500000 -1.394170
v 6.271652 129.166667 -0.000000
v 5.742414 128.250000 -0.000000
v 5.723952 128.226738 -0.239993
v 5.669825 128.158040 -0.470540
v 7.694330 132.000000 -1.823590
v 7.907477 132.000000 -0.000000
v 4.386646 126.019490 0.775250
v 2.656368 123.500000 1.394170
v 2.912825 123.500000 0.717947
v 4.336817 125.874007 0.542399
v 4.307973 125.780858 0.274892
v 5.647531 128.129522 0.535426
v 5.699345 128.195600 0.364688
v 5.728506 128.232486 0.208413
v 5.738923 128.245612 0.104337
v 7.694330 132.000000 1.823590
v 4.384644 126.333333 -1.505250
v 4.862632 127.000000 -1.250000
v 4.697716 126.708352 -1.215331
v 4.549615 126.412401 -1.103278
v 4.444161 126.169454 -0.933782
v 3.658318 126.333333 -2.847383
v 4.977921 127.187560 -1.235798
v 2.245532 123.500000 -1.989368
v 5.931836 129.166667 -2.036402
v 7.066380 132.000000 -3.548869
v 5.585306 128.049168 -0.679040
v 5.479406 127.909832 -0.856830
v 5.362253 127.751333 -0.998904
v 5.233394 127.570701 -1.111838
v 5.097470 127.371683 -1.193456
v 2.535556 126.333333 -3.880958
v 1.704194 123.500000 -2.468952
v 1.063815 123.500000 -2.805049
v 4.949214 129.166667 -3.852128
v 6.057479 132.000000 -5.082828
v 4.722018 132.000000 -6.342771
v 1.138028 126.333333 -4.493971
v 0.361610 123.500000 -2.978127
v 3.430268 129.166667 -5.250416
v 3.131992 132.000000 -7.260773
v -0.382823 126.333333 -4.619992
v -0.361610 123.500000 -2.978127
v -1.063815 123.500000 -2.805049
v 1.539599 129.166667 -6.079741
v 1.373119 132.000000 -7.787345
v -1.862190 126.333333 -4.245366
v -1.704194 123.500000 -2.468952
v -0.517909 129.166667 -6.250231
v -0.459779 132.000000 -7.894099
v -2.267890 132.000000 -7.575280
v -3.139759 126.333333 -3.410688
v -2.245532 123.500000 -1.989368
v -2.519294 129.166667 -5.743411
v -3.953739 132.000000 -6.848076
v -4.077087 126.333333 -2.206409
v -2.656368 123.500000 -1.394170
v -2.912825 123.500000 -0.717947
v -4.247674 129.166667 -4.614204
v -5.426440 132.000000 -5.751691
v -6.606601 132.000000 -4.345230
v -4.572599 126.333333 -0.763032
v -3.000000 123.500000 -0.000000
v -5.515753 129.166667 -2.984976
v -7.430598 132.000000 -2.704517
v -4.572599 126.333333 0.763032
v -2.912825 123.500000 0.717947
v -6.186114 129.166667 -1.032280
v -7.854010 132.000000 -0.918002
v -4.077087 126.333333 2.206409
v -2.656368 123.500000 1.394170
v -2.245532 123.500000 1.989368
v -6.186114 129.166667 1.032280
v -7.854010 132.000000 0.918002
v -7.430598 132.000000 2.704517
v -3.139759 126.333333 3.410688
v -1.704194 123.500000 2.468952
v -5.515753 129.166667 2.984976
v -6.606601 132.000000 4.345230
v -1.862190 126.333333 4.245366
v -1.063815 123.500000 2.805049
v -4.247674 129.166667 4.614204
v -5.426440 132.000000 5.751691
v -3.953739 132.000000 6.848076
v -0.382823 126.333333 4.619992
v -0.361610 123.500000 2.978127
v 0.361610 123.500000 2.978127
v -2.519294 129.166667 5.743411
v -2.267890 132.000000 7.575280
v 1.138028 126.333333 4.493971
v 1.063815 123.500000 2.805049
v -0.517909 129.166667 6.250231
v -0.459779 132.000000 7.894099
v 1.373119 132.000000 7.787345
v 2.535556 126.333333 3.880958
v 1.704194 123.500000 2.468952
v 2.245532 123.500000 1.989368
v 1.539599 129.166667 6.079741
v 3.131992 132.000000 7.260773
v 3.658318 126.333333 2.847383
v 4.862632 127.000000 1.250000
v 5.057186 127.310688 1.210765
v 3.430268 129.166667 5.250416
v 4.722018 132.000000 6.342771
v 4.384644 126.333333 1.505250
v 4.458493 126.204583 0.963840
v 4.556370 126.426863 1.110848
v 4.675743 126.666805 1.204536
v 4.766283 126.833607 1.238876
v 4.949214 129.166667 3.852128
v 6.057479 132.000000 5.082828
v 7.066380 132.000000 3.548869
v 5.931836 129.166667 2.036402
v 5.255320 127.601943 1.095230
v 5.436330 127.852143 0.914463
v 5.579109 128.041106 0.691291
v 1.561249 127.000000 1.250000
v 1.579288 127.234848 1.227429
v 1.628576 127.463374 1.160931
v 1.676970 127.612161 1.089644
v 1.755177 127.801991 0.958625
v 1.842241 127.977902 0.778249
v 1.921101 128.119429 0.556034
v 1.958980 128.183315 0.402458
v 1.989110 128.232650 0.205527
v 1.997238 128.245644 0.102400
v 2.000000 128.250000 0.000000
v 1.984423 128.225080 -0.246574
v 1.957872 128.181474 -0.407869
v 1.919624 128.116892 -0.561090
v 1.863349 128.017103 -0.726137
v 1.793321 127.882328 -0.885437
v 1.720593 127.723185 -1.019245
v 1.651284 127.537809 -1.128340
v 1.607897 127.383615 -1.189533
v 1.577684 127.223843 -1.229488
v 1.562550 127.061372 -1.248434
v 1.564692 126.899444 -1.245819
v 1.583682 126.737194 -1.221750
v 1.617174 126.578776 -1.176818
v 1.662473 126.428756 -1.111725
v 1.733153 126.247421 -0.997773
v 1.814338 126.075716 -0.841458
v 1.891187 125.932741 -0.650234
v 1.935410 125.856186 -0.504152
v 1.969400 125.799459 -0.347281
v 1.992159 125.762454 -0.173906
v 2.000000 125.750000 0.000000
v 1.981886 125.779035 0.266232
v 1.953862 125.825201 0.426828
v 1.914346 125.892206 0.578768
v 1.855133 125.998026 0.746911
v 1.782354 126.140179 0.907281
v 1.707023 126.309731 1.041813
v 1.637543 126.505987 1.148237
v 1.597581 126.662848 1.203438
v 1.570946 126.829340 1.238041
v 1.563732 126.914852 1.246996
v 2.000000 131.500000 0.000000
v 1.941884 131.500000 0.478631
v 2.000000 123.500000 0.000000
v 1.770912 131.500000 0.929446
v 1.941884 123.500000 0.478631
v 1.497021 131.500000 1.326245
v 1.136129 131.500000 1.645968
v 1.770912 123.500000 0.929446
v 1.497021 123.500000 1.326245
v 1.136129 123.500000 1.645968
v 0.709210 123.500000 1.870032
v 0.709210 131.500000 1.870032
v 0.241073 123.500000 1.985418
v 0.241073 131.500000 1.985418
v -0.241073 123.500000 1.985418
v -0.241073 131.500000 1.985418
v -0.709210 123.500000 1.870032
v -0.709210 131.500000 1.870032
v -1.136129 123.500000 1.645968
v -1.136129 131.500000 1.645968
v -1.497021 123.500000 1.326245
v -1.497021 131.500000 1.326245
v -1.770912 123.500000 0.929446
v -1.770912 131.500000 0.929446
v -1.941884 131.500000 0.478631
v -1.941884 123.500000 0.478631
v -2.000000 123.500000 0.000000
v -2.000000 131.500000 0.000000
v -1.941884 123.500000 -0.478631
v -1.941884 131.500000 -0.478631
v -1.770912 123.500000 -0.929446
v -1.770912 131.500000 -0.929446
v -1.497021 123.500000 -1.326245
v -1.497021 131.500000 -1.326245
v -1.136129 123.500000 -1.645968
v -1.136129 131.500000 -1.645968
v -0.709210 123.500000 -1.870032
v -0.709210 131.500000 -1.870032
v -0.241073 131.500000 -1.985418
v -0.241073 123.500000 -1.985418
v 0.241073 123.500000 -1.985418
v 0.241073 131.500000 -1.985418
v 0.709210 131.500000 -1.870032
v 0.709210 123.500000 -1.870032
v 1.136129 131.500000 -1.645968
v 1.136129 123.500000 -1.645968
v 1.497021 131.500000 -1.326245
v 1.770912 131.500000 -0.929446
v 1.497021 123.500000 -1.326245
v 1.941884 131.500000 -0.478631
v 1.770912 123.500000 -0.929446
v 1.941884 123.500000 -0.478631
v 12.557368 132.000000 -7.250000
v 11.107644 132.000000 -9.320420
v 9.320420 132.000000 -11.107644
v 7.250000 132.000000 -12.557368
v 13.625543 132.000000 -4.959292
v 4.959292 132.000000 -13.625543
v 14.279712 132.000000 -2.517899
v 2.517899 132.000000 -14.279712
v 0.000000 132.000000 -14.500000
v 14.500000 132.000000 0.000000
v 14.279712 132.000000 2.517899
v -2.517899 132.000000 -14.279712
v 13.625543 132.000000 4.959292
v -4.959292 132.000000 -13.625543
v 12.557368 132.000000 7.250000
v -7.250000 132.000000 -12.557368
v -9.320420 132.000000 -11.107644
v 11.107644 132.000000 9.320420
v -11.107644 132.000000 -9.320420
v 9.320420 132.000000 11.107644
v -12.557368 132.000000 -7.250000
v 7.250000 132.000000 12.557368
v -13.625543 132.000000 -4.959292
v 4.959292 132.000000 13.625543
v -14.279712 132.000000 -2.517899
v 2.517899 132.000000 14.279712
v -14.500000 132.000000 -0.000000
v -0.000000 132.000000 14.500000
v -14.279712 132.000000 2.517899
v -2.517899 132.000000 14.279712
v -13.625543 132.000000 4.959292
v -4.959292 132.000000 13.625543
v -12.557368 132.000000 7.250000
v -7.250000 132.000000 12.557368
v -11.107644 132.000000 9.320420
v -9.320420 132.000000 11.107644
v 14.500000 133.000000 0.000000
v 14.279712 133.000000 -2.517899
v 13.625543 133.000000 -4.959292
v 12.557368 133.000000 -7.250000
v 11.107644 133.000000 -9.320420
v 9.320420 133.000000 -11.107644
v 7.250000 133.000000 -12.557368
v 4.959292 133.000000 -13.625543
v 2.517899 133.000000 -14.279712
v -0.000000 133.000000 -14.500000
v -2.517899 133.000000 -14.279712
v -4.959292 133.000000 -13.625543
v -7.250000 133.000000 -12.557368
v -9.320420 133.000000 -11.107644
v -11.107644 133.000000 -9.320420
v -12.557368 133.000000 -7.250000
v -13.625543 133.000000 -4.959292
v -14.279712 133.000000 -2.517899
v -14.500000 133.000000 0.000000
v -14.279712 133.000000 2.517899
v -13.625543 133.000000 4.959292
v -12.557368 133.000000 7.250000
v -11.107644 133.000000 9.320420
v -9.320420 133.000000 11.107644
v -7.250000 133.000000 12.557368
v -4.959292 133.000000 13.625543
v -2.517899 133.000000 14.279712
v 0.000000 133.000000 14.500000
v 2.517899 133.000000 14.279712
v 4.959292 133.000000 13.625543
v 7.250000 133.000000 12.557368
v 9.320420 133.000000 11.107644
v 11.107644 133.000000 9.320420
v 12.557368 133.000000 7.250000
v 13.625543 133.000000 4.959292
v 14.279712 133.000000 2.517899
f 1 2 3
f 1 3 4
f 5 1 4
f 6 5 4
f 6 4 7
f 8 9 10
f 8 10 11
f 12 13 8
f 14 15 16
f 17 14 16
f 18 17 16
f 18 16 3
f 2 18 3
f 8 19 20
f 8 20 21
f 8 21 22
f 8 22 9
f 13 23 8
f 24 6 7
f 24 25 26
f 24 26 27
f 24 27 28
f 24 28 6
f 29 24 7
f 29 30 25
f 29 7 31
f 29 25 24
f 32 33 12
f 32 11 34
f 32 12 8
f 32 34 35
f 32 35 36
f 32 36 37
f 32 37 38
f 32 8 11
f 39 31 40
f 39 40 41
f 39 29 31
f 42 43 33
f 42 44 43
f 42 32 38
f 42 33 32
f 42 38 30
f 42 30 29
f 45 41 46
f 45 39 41
f 47 48 44
f 47 42 29
f 47 29 39
f 47 44 42
f 49 45 46
f 49 46 50
f 49 50 51
f 52 47 39
f 52 53 48
f 52 39 45
f 52 45 49
f 52 48 47
f 54 51 55
f 54 49 51
f 56 52 49
f 56 57 53
f 56 58 57
f 56 53 52
f 59 54 55
f 59 55 60
f 61 62 58
f 61 49 54
f 61 58 56
f 61 56 49
f 63 59 60
f 63 60 64
f 63 64 65
f 66 67 62
f 66 68 67
f 66 54 59
f 66 61 54
f 66 62 61
f 69 63 65
f 69 65 70
f 71 72 68
f 71 68 66
f 71 59 63
f 71 66 59
f 71 63 69
f 73 70 74
f 73 69 70
f 75 76 72
f 75 72 71
f 75 71 69
f 77 74 78
f 77 78 79
f 77 73 74
f 80 75 69
f 80 81 76
f 80 82 81
f 80 76 75
f 80 69 73
f 83 79 84
f 83 77 79
f 85 80 73
f 85 86 82
f 85 82 80
f 85 73 77
f 87 84 88
f 87 83 84
f 89 85 77
f 89 90 86
f 89 91 90
f 89 86 85
f 89 77 83
f 92 87 88
f 92 88 93
f 92 93 94
f 95 83 87
f 95 96 91
f 95 87 92
f 95 91 89
f 95 89 83
f 97 94 98
f 97 92 94
f 99 92 97
f 99 100 96
f 99 101 100
f 99 95 92
f 99 96 95
f 102 97 98
f 102 98 103
f 102 103 104
f 105 106 101
f 105 99 97
f 105 101 99
f 107 102 104
f 107 104 15
f 107 108 109
f 110 111 106
f 110 105 97
f 110 106 105
f 110 102 107
f 110 97 102
f 112 15 14
f 112 107 15
f 112 108 107
f 112 14 113
f 112 113 114
f 112 114 115
f 112 115 116
f 112 116 108
f 117 118 111
f 117 119 118
f 117 110 107
f 117 107 109
f 117 111 110
f 120 23 119
f 120 19 8
f 120 119 117
f 120 117 109
f 120 8 23
f 120 109 121
f 120 121 122
f 120 122 123
f 120 123 19
f 124 125 108
f 108 125 109
f 109 126 121
f 125 126 109
f 126 127 121
f 121 128 122
f 127 128 121
f 122 129 123
f 128 129 122
f 123 130 19
f 129 130 123
f 130 131 19
f 19 131 20
f 131 132 20
f 20 132 21
f 132 133 21
f 21 133 22
f 133 134 22
f 22 134 9
f 9 134 10
f 134 135 10
f 135 136 10
f 10 136 11
f 136 137 11
f 11 137 34
f 137 138 34
f 34 138 35
f 138 139 35
f 35 139 36
f 139 140 36
f 36 140 37
f 140 141 37
f 37 141 38
f 141 142 38
f 38 142 30
f 142 143 30
f 143 144 30
f 30 144 25
f 144 145 25
f 25 145 26
f 145 146 26
f 146 147 26
f 26 147 27
f 147 148 27
f 27 149 28
f 148 149 27
f 149 150 28
f 28 150 6
f 6 151 5
f 150 151 6
f 151 152 5
f 5 153 1
f 152 153 5
f 1 154 2
f 153 154 1
f 154 155 2
f 2 156 18
f 155 156 2
f 18 157 17
f 156 157 18
f 157 158 17
f 17 158 14
f 158 159 14
f 14 160 113
f 159 160 14
f 113 161 114
f 160 161 113
f 114 162 115
f 161 162 114
f 162 163 115
f 115 164 116
f 163 164 115
f 116 165 108
f 164 165 116
f 165 124 108
f 134 133 166
f 133 132 166
f 166 132 167
f 132 131 167
f 131 130 167
f 155 168 156
f 130 129 167
f 167 129 169
f 129 128 169
f 168 170 156
f 156 170 157
f 157 170 158
f 158 170 159
f 128 127 169
f 169 127 171
f 127 126 171
f 126 125 171
f 125 124 171
f 124 172 171
f 170 173 159
f 159 173 160
f 160 173 161
f 161 173 162
f 173 174 162
f 162 174 163
f 163 174 164
f 164 174 165
f 124 175 172
f 165 175 124
f 174 175 165
f 175 176 172
f 172 176 177
f 176 178 177
f 177 178 179
f 178 180 179
f 179 180 181
f 181 182 183
f 180 182 181
f 183 184 185
f 182 184 183
f 185 186 187
f 184 186 185
f 187 188 189
f 189 188 190
f 186 188 187
f 188 191 190
f 190 192 193
f 191 192 190
f 193 194 195
f 192 194 193
f 194 196 195
f 195 196 197
f 196 198 197
f 197 198 199
f 198 200 199
f 199 200 201
f 200 202 201
f 201 202 203
f 203 202 204
f 202 205 204
f 205 206 204
f 204 206 207
f 207 206 208
f 206 209 208
f 208 209 210
f 209 211 210
f 211 144 210
f 210 144 212
f 144 143 212
f 211 145 144
f 143 142 212
f 142 141 212
f 212 141 213
f 141 140 213
f 140 139 213
f 145 214 146
f 146 214 147
f 147 214 148
f 211 214 145
f 139 138 213
f 213 138 215
f 138 137 215
f 137 136 215
f 148 216 149
f 149 216 150
f 214 216 148
f 216 151 150
f 136 135 215
f 215 135 166
f 135 134 166
f 151 217 152
f 152 217 153
f 216 217 151
f 217 154 153
f 154 168 155
f 217 168 154
f 218 43 219
f 219 43 220
f 220 44 221
f 43 44 220
f 222 33 218
f 218 33 43
f 221 48 223
f 44 48 221
f 224 12 222
f 222 12 33
f 223 53 225
f 225 53 226
f 48 53 223
f 227 13 224
f 228 13 227
f 224 13 12
f 226 57 229
f 53 57 226
f 228 23 13
f 230 23 228
f 57 58 229
f 229 58 231
f 230 119 23
f 232 119 230
f 231 62 233
f 58 62 231
f 62 234 233
f 232 118 119
f 235 118 232
f 62 67 234
f 67 236 234
f 235 237 118
f 118 237 111
f 67 68 236
f 68 238 236
f 72 238 68
f 237 239 111
f 111 239 106
f 72 240 238
f 239 241 106
f 106 241 101
f 76 242 72
f 72 242 240
f 241 243 101
f 81 244 76
f 76 244 242
f 101 245 100
f 243 245 101
f 82 246 81
f 81 246 244
f 100 247 96
f 245 247 100
f 82 248 246
f 96 249 91
f 247 249 96
f 86 250 82
f 82 250 248
f 249 251 91
f 90 252 86
f 86 252 250
f 91 253 90
f 251 253 91
f 90 253 252
f 254 227 224
f 255 224 222
f 255 254 224
f 256 222 218
f 256 255 222
f 257 218 219
f 257 256 218
f 258 219 220
f 258 257 219
f 259 220 221
f 259 258 220
f 260 259 221
f 260 221 223
f 261 260 223
f 261 223 225
f 262 261 225
f 262 225 226
f 263 262 226
f 263 226 229
f 264 263 229
f 264 229 231
f 265 264 231
f 265 231 233
f 266 265 233
f 266 233 234
f 267 266 234
f 267 234 236
f 268 267 236
f 268 236 238
f 269 268 238
f 269 238 240
f 270 269 240
f 270 240 242
f 271 270 242
f 271 242 244
f 272 271 244
f 272 244 246
f 273 272 246
f 273 246 248
f 274 273 248
f 274 248 250
f 275 250 252
f 275 274 250
f 276 252 253
f 276 275 252
f 277 253 251
f 277 276 253
f 278 251 249
f 278 277 251
f 279 278 249
f 280 249 247
f 280 247 245
f 280 279 249
f 281 245 243
f 281 280 245
f 282 281 243
f 283 243 241
f 283 241 239
f 283 282 243
f 284 239 237
f 284 283 239
f 285 237 235
f 285 284 237
f 286 285 235
f 286 235 232
f 287 286 232
f 288 287 232
f 288 232 230
f 289 288 230
f 289 230 228
f 289 228 227
f 254 289 227
f 260 258 259
f 256 257 258
f 261 258 260
f 254 255 256
f 254 256 258
f 288 289 254
f 288 263 264
f 288 262 263
f 288 261 262
f 288 258 261
f 288 254 258
f 266 264 265
f 266 288 264
f 286 287 288
f 267 288 266
f 267 286 288
f 270 268 269
f 270 267 268
f 281 285 286
f 281 284 285
f 281 283 284
f 281 282 283
f 272 270 271
f 273 280 281
f 273 267 270
f 273 286 267
f 273 270 272
f 273 281 286
f 278 279 280
f 275 278 280
f 275 273 274
f 275 280 273
f 276 278 275
f 276 277 278
f 31 214 40
f 40 211 41
f 214 211 40
f 7 216 31
f 31 216 214
f 41 209 46
f 211 209 41
f 4 217 7
f 7 217 216
f 46 206 50
f 209 206 46
f 3 168 4
f 4 168 217
f 206 205 50
f 205 51 50
f 16 170 3
f 3 170 168
f 205 202 51
f 15 173 16
f 16 173 170
f 202 55 51
f 202 200 55
f 104 174 15
f 15 174 173
f 198 60 200
f 200 60 55
f 104 175 174
f 104 103 175
f 103 176 175
f 198 64 60
f 196 64 198
f 103 98 176
f 98 178 176
f 196 65 64
f 194 65 196
f 98 94 178
f 178 94 180
f 194 70 65
f 192 70 194
f 180 93 182
f 94 93 180
f 191 74 192
f 192 74 70
f 182 88 184
f 93 88 182
f 188 78 191
f 191 78 74
f 184 84 186
f 88 84 184
f 188 79 78
f 84 79 186
f 186 79 188
f 213 215 166
f 187 181 183
f 187 183 185
f 210 212 213
f 190 172 177
f 190 177 179
f 190 179 181
f 190 187 189
f 190 181 187
f 193 167 169
f 193 169 171
f 193 171 172
f 193 172 190
f 203 204 207
f 197 193 195
f 199 166 167
f 199 201 203
f 199 207 208
f 199 208 210
f 199 213 166
f 199 210 213
f 199 167 193
f 199 203 207
f 199 193 197
