# smartdrone2 body-local mesh, millimetres
v -126.000000 -204.547364 -113.774556
v -126.236202 -205.269057 -114.715074
v -126.000000 -205.776433 -113.653503
v -126.444978 -205.776433 -115.734765
v -126.236202 -204.779473 -114.785850
v -126.000000 -203.365528 -114.133062
v -126.236202 -204.303696 -114.900819
v -126.538822 -203.163187 -117.340913
v -126.705747 -203.906659 -118.084668
v -126.625784 -204.225507 -117.188850
v -126.823413 -204.913022 -118.414993
v -126.844599 -204.653065 -118.830980
v -126.625784 -202.829036 -121.120351
v -126.778691 -203.695596 -120.339060
v -126.625784 -202.606468 -119.953503
v -126.000000 -203.365528 -125.773944
v -126.344002 -203.565018 -124.148118
v -126.000000 -202.276341 -125.191762
v -126.778691 -203.808951 -120.732960
v -126.000000 -204.547364 -126.132451
v -126.344002 -204.439727 -124.503049
v -126.344002 -205.319113 -124.673250
v -126.000000 -205.776433 -126.253503
v -126.000000 -207.005503 -126.132451
v -126.344002 -206.232916 -124.673331
v -126.344002 -207.112284 -124.503301
v -126.000000 -208.187339 -125.773944
v -126.344002 -207.988045 -124.148015
v -126.000000 -209.276526 -125.191762
v -126.344002 -208.783753 -123.619725
v -126.000000 -210.231206 -124.408276
v -126.000000 -211.014692 -123.453596
v -126.344002 -209.442648 -122.960831
v -126.344002 -209.970966 -122.165075
v -126.000000 -211.596875 -122.364409
v -126.344002 -210.326191 -121.289489
v -126.000000 -211.955381 -121.182572
v -126.344002 -210.496249 -120.410119
v -126.000000 -212.076433 -119.953503
v -126.000000 -211.955381 -118.724434
v -126.344002 -210.496247 -119.496871
v -126.000000 -211.596875 -117.542598
v -126.344002 -210.326186 -118.617501
v -126.000000 -211.014692 -116.453411
v -126.344002 -209.970972 -117.741943
v -126.625784 -208.723831 -121.120351
v -126.778691 -207.857448 -120.338107
v -126.778691 -207.744291 -120.732012
v -126.625784 -208.946399 -119.953503
v -126.000000 -210.231206 -115.498731
v -126.344002 -209.442647 -116.946174
v -126.000000 -209.276526 -114.715245
v -126.344002 -208.783763 -116.287290
v -126.000000 -208.187339 -114.133062
v -126.344002 -207.987993 -115.758965
v -126.000000 -207.005503 -113.774556
v -126.236202 -206.772194 -114.785619
v -126.236202 -206.282663 -114.714963
v -126.625784 -206.943281 -117.006106
v -126.705747 -206.503243 -117.411781
v -126.625784 -207.511070 -117.300256
v -126.705747 -206.256875 -117.353931
v -126.844599 -206.360466 -118.476709
v -126.844599 -206.505314 -118.542564
v -126.844599 -206.212869 -118.426565
v -126.778626 -205.776433 -117.836749
v -126.344002 -205.121509 -115.257098
v -126.000000 -202.276341 -114.715245
v -126.121522 -203.094945 -114.830473
v -126.236202 -203.838585 -115.060313
v -126.344002 -204.912792 -115.290964
v -126.000000 -201.321661 -115.498731
v -126.198738 -202.328519 -115.750529
v -126.308835 -203.086076 -115.839341
v -126.378400 -202.546236 -116.723845
v -126.538822 -204.873770 -116.370225
v -126.444886 -203.964917 -116.142949
v -126.198738 -201.573163 -116.505948
v -126.000000 -200.538175 -116.453411
v -126.000000 -199.955992 -117.542598
v -126.179720 -200.883149 -117.392663
v -126.508284 -203.441393 -116.867277
v -126.705747 -205.130361 -117.390070
v -126.361297 -201.880240 -117.406484
v -126.344002 -201.367516 -118.208052
v -126.444886 -202.244812 -117.644917
v -126.801443 -205.302098 -118.072091
v -126.921511 -205.560516 -119.097505
v -126.344002 -201.120342 -119.055747
v -126.492724 -201.885108 -119.233403
v -126.344002 -201.223864 -118.627130
v -126.930243 -205.483552 -119.214870
v -126.492724 -201.856875 -119.407592
v -126.344002 -201.056606 -119.497020
v -126.492724 -201.836365 -119.583611
v -126.344002 -201.056687 -120.410824
v -126.930243 -205.411098 -119.247891
v -126.778691 -204.066524 -118.706607
v -126.844599 -204.446889 -119.084983
v -126.930243 -205.375774 -119.267333
v -126.844599 -204.365494 -119.224623
v -126.778691 -204.004777 -118.796017
v -126.844599 -204.299639 -119.369471
v -126.930243 -205.341260 -119.288686
v -126.930243 -205.307707 -119.311901
v -126.930243 -205.275263 -119.336910
v -126.930243 -205.214263 -119.391967
v -126.492724 -201.926894 -120.871114
v -126.344002 -201.226888 -121.290210
v -126.666642 -203.073493 -118.883810
v -126.743098 -203.436054 -119.520826
v -126.844599 -204.249496 -119.517067
v -126.844599 -204.214761 -119.665067
v -126.743098 -203.418354 -119.630942
v -126.743098 -203.405986 -119.740041
v -126.844599 -204.188348 -119.954014
v -126.705747 -203.563935 -121.400380
v -126.625784 -203.123186 -121.688139
v -126.705747 -203.724278 -121.620014
v -126.625784 -203.534929 -122.195008
v -126.705747 -203.907363 -121.823043
v -126.625784 -204.041797 -122.606750
v -126.625784 -204.609586 -122.900900
v -126.492724 -204.858823 -123.803042
v -126.625784 -205.776433 -123.123469
v -126.705747 -204.330107 -122.166361
v -126.801443 -204.828040 -121.646209
v -126.492724 -206.693687 -123.803127
v -126.625784 -206.943281 -122.900900
v -126.778691 -205.776887 -122.069759
v -126.844599 -205.776944 -121.541589
v -126.812526 -205.439911 -121.774943
v -126.625784 -208.017938 -122.195008
v -126.705747 -207.223310 -122.166002
v -126.625784 -207.511070 -122.606750
v -126.823413 -206.426362 -121.593652
v -126.705747 -207.645973 -121.822574
v -126.705747 -207.829007 -121.619500
v -126.625784 -208.429681 -121.688139
v -126.492724 -209.626044 -120.870814
v -126.705747 -207.989291 -121.399830
v -126.743098 -208.146809 -119.739252
v -126.844599 -207.364519 -119.952993
v -126.844599 -207.337907 -119.663994
v -126.743098 -208.064485 -119.298212
v -126.844599 -207.303063 -119.515990
v -126.844599 -207.252806 -119.368404
v -126.844599 -207.186836 -119.223586
v -126.444886 -207.149250 -115.963855
v -126.538822 -206.448412 -116.319893
v -126.625784 -208.017938 -117.711999
v -126.743098 -207.623903 -118.453022
v -126.625784 -208.429681 -118.218867
v -126.844599 -207.105330 -119.083992
v -126.844599 -206.898957 -118.830134
v -126.743098 -207.276221 -118.105471
v -126.844599 -206.644954 -118.623959
v -126.583177 -206.084122 -116.534578
v -126.930243 -206.276909 -119.336346
v -126.930243 -206.337969 -119.391333
v -126.930243 -206.244439 -119.311375
v -126.930243 -206.210864 -119.288200
v -126.930243 -206.176330 -119.266888
v -126.930243 -206.140991 -119.247489
v -126.930243 -206.068514 -119.214553
v -126.930243 -205.994664 -119.189479
v -126.930243 -205.957595 -119.179850
v -126.930243 -205.920615 -119.172114
v -127.000000 -205.776433 -119.953503
v -126.930243 -205.883855 -119.166218
v -126.666642 -205.425585 -117.067842
v -126.000000 -199.597486 -118.724434
v -126.091781 -200.196805 -117.999295
v -126.263799 -200.927044 -118.271459
v -126.854899 -205.595171 -118.464509
v -126.561218 -202.793182 -118.003514
v -126.469022 -201.975084 -118.448715
v -126.583177 -202.584634 -118.690121
v -126.646432 -203.232988 -118.291217
v -126.967108 -205.703887 -119.562786
v -126.967108 -205.685391 -119.566678
v -126.967108 -205.676122 -119.568977
v -126.967108 -205.666851 -119.571516
v -126.967108 -205.657586 -119.574296
v -126.967108 -205.648337 -119.577320
v -126.967108 -205.629921 -119.584103
v -126.604699 -202.530142 -119.352865
v -126.889406 -204.778852 -119.301969
v -126.889406 -204.746889 -119.353751
v -126.889406 -204.717794 -119.406742
v -126.889406 -204.668395 -119.515419
v -126.561218 -202.498836 -121.353362
v -126.967108 -205.406848 -119.807458
v -126.917071 -204.856200 -119.842377
v -126.930243 -204.981853 -119.953886
v -126.874911 -204.492860 -120.277087
v -126.844599 -204.281569 -120.489595
v -126.903459 -204.852769 -120.471964
v -126.561218 -204.376575 -123.231101
v -126.812526 -204.243967 -120.993905
v -126.812526 -204.299477 -121.071308
v -126.930243 -205.214898 -120.515674
v -126.420315 -205.491110 -124.294158
v -126.492724 -205.776264 -123.910896
v -126.724642 -205.085633 -122.368492
v -126.869982 -204.951798 -121.044769
v -126.874911 -205.168955 -121.129615
v -126.889406 -205.338350 -121.061541
v -126.561218 -207.176134 -123.231168
v -126.705747 -206.257768 -122.552911
v -126.879792 -205.544099 -121.211894
v -126.767022 -206.983017 -121.798141
v -126.561218 -209.054088 -121.353229
v -126.801443 -207.148824 -121.325090
v -126.743098 -207.768758 -121.255513
v -126.420315 -210.117103 -119.668397
v -126.492724 -209.626042 -119.036186
v -126.492724 -209.733827 -119.953500
v -126.834104 -207.179699 -120.870224
v -126.930243 -206.338604 -120.515039
v -126.625784 -208.723831 -118.786656
v -126.561218 -209.054086 -118.553775
v -126.686414 -208.478237 -119.319101
v -126.879792 -207.034824 -120.185838
v -126.686414 -208.302597 -118.804284
v -126.395310 -207.952029 -116.036403
v -126.955261 -206.306250 -119.953219
v -126.538822 -207.396810 -116.632500
v -126.889406 -206.884076 -119.514419
v -126.889406 -206.834570 -119.405769
v -126.889406 -206.805423 -119.352798
v -126.889406 -206.773408 -119.301040
v -126.967108 -205.922479 -119.583918
v -126.967108 -205.904060 -119.577160
v -126.967108 -205.894809 -119.574149
v -126.967108 -205.885544 -119.571381
v -126.967108 -205.876273 -119.568854
v -126.967108 -205.867004 -119.566567
v -126.967108 -205.848510 -119.562699
v -126.222243 -200.570608 -118.819219
v -126.984051 -205.667576 -119.787252
v -126.457008 -202.222477 -122.103731
v -126.344002 -201.581819 -122.164919
v -126.344002 -202.110238 -122.960854
v -126.457008 -203.626205 -123.507460
v -126.344002 -202.769082 -123.619699
v -126.949172 -205.190427 -120.062284
v -126.978514 -205.519536 -120.018330
v -126.984051 -205.610182 -120.062361
v -126.905758 -205.300520 -120.875046
v -126.457008 -207.926559 -123.507522
v -126.967108 -205.630388 -120.323089
v -126.457008 -209.330442 -122.103646
v -126.930243 -205.776817 -120.748084
v -126.905758 -206.062295 -120.950508
v -126.949172 -205.885214 -120.539510
v -126.889406 -206.215517 -121.061145
v -126.879792 -206.477152 -121.024260
v -126.967108 -206.146019 -120.099549
v -126.905758 -206.697977 -120.429416
v -126.457008 -209.330440 -117.803358
v -126.444886 -208.052296 -116.400706
v -126.923712 -206.622739 -119.796454
v -126.942973 -206.392011 -119.709394
v -126.961240 -206.164310 -119.699565
v -126.984051 -205.942685 -119.844646
v -126.978514 -205.963652 -119.766026
v -126.284213 -200.749258 -119.670012
v -126.401602 -202.865464 -123.316756
v -126.457008 -202.839250 -122.890686
v -126.992150 -205.688137 -119.907928
v -126.401602 -209.139709 -122.864447
v -126.457008 -208.713609 -122.890694
v -126.975704 -205.803395 -120.250345
v -126.967108 -205.922946 -120.322904
v -126.958264 -206.089755 -120.338930
v -126.984051 -205.885291 -120.119755
v -126.395310 -208.752471 -116.603863
v -126.450960 -208.774958 -117.031893
v -126.992150 -205.864730 -119.999078
v -126.989478 -205.907965 -119.969364
v -126.000000 -199.597486 -121.182572
v -126.147194 -200.120577 -120.337772
v -126.000000 -199.476433 -119.953503
v -126.992150 -205.730859 -120.041800
v -126.988131 -205.783171 -120.102395
v -126.074865 -199.803105 -119.583262
v -126.000000 -199.955992 -122.364409
v -126.074865 -199.944450 -121.297268
v -126.214343 -200.744514 -121.813063
v -126.109956 -200.577044 -122.597415
v -126.000000 -200.538175 -123.453596
v -126.280404 -201.387503 -122.458483
v -126.000000 -201.321661 -124.408276
v -126.055672 -200.863432 -123.512599
v -126.145144 -201.261140 -123.396178
v -126.073803 -201.676348 -124.319454
v -117.000000 -211.851433 -119.953503
v -114.000000 -211.776433 -119.953503
v -114.000000 -211.653613 -118.745712
v -123.000000 -212.001433 -119.953503
v -114.000000 -211.653613 -121.161294
v -117.000000 -211.626156 -118.314488
v -120.000000 -211.926433 -119.953503
v -114.000000 -211.290180 -117.587368
v -117.000000 -210.967031 -116.797031
v -114.000000 -210.701014 -116.525894
v -120.000000 -211.698375 -118.294253
v -117.000000 -209.922944 -115.513675
v -114.000000 -209.910235 -115.604747
v -114.000000 -208.950218 -114.861638
v -120.000000 -211.031113 -116.758062
v -117.000000 -208.571329 -114.559601
v -114.000000 -207.860265 -114.326991
v -123.000000 -211.770594 -118.274018
v -120.000000 -209.974135 -115.458862
v -117.000000 -207.012429 -114.005567
v -114.000000 -206.685000 -114.022693
v -123.000000 -211.095194 -116.719093
v -120.000000 -208.605833 -114.493009
v -117.000000 -205.361861 -113.892666
v -114.000000 -205.472538 -113.961204
v -114.000000 -204.272518 -114.145041
v -123.000000 -210.025327 -115.404049
v -120.000000 -207.027688 -113.932136
v -117.000000 -203.742040 -114.229268
v -114.000000 -203.134069 -114.566676
v -123.000000 -208.640338 -114.426418
v -120.000000 -205.356743 -113.817840
v -117.000000 -202.273101 -114.990411
v -114.000000 -202.103798 -115.208849
v -123.000000 -207.042947 -113.858705
v -120.000000 -203.716924 -114.158599
v -117.000000 -201.063987 -116.119644
v -114.000000 -201.223885 -116.045268
v -114.000000 -200.530354 -117.041692
v -123.000000 -205.351624 -113.743015
v -120.000000 -202.229850 -114.929138
v -117.000000 -200.204375 -117.533217
v -114.000000 -200.051598 -118.157325
v -123.000000 -203.691808 -114.087929
v -120.000000 -201.005809 -116.072312
v -117.000000 -199.758016 -119.126291
v -114.000000 -199.807218 -119.346493
v -123.000000 -202.186598 -114.867866
v -120.000000 -200.135584 -117.503337
v -117.000000 -199.758016 -120.780716
v -114.000000 -199.807218 -120.560513
v -114.000000 -200.051598 -121.749682
v -123.000000 -200.947631 -116.024981
v -120.000000 -199.683715 -119.116078
v -117.000000 -200.204375 -122.373790
v -114.000000 -200.530354 -122.865315
v -123.000000 -200.066793 -117.473457
v -120.000000 -199.683715 -120.790928
v -117.000000 -201.063987 -123.787363
v -114.000000 -201.223885 -123.861738
v -114.000000 -202.103798 -124.698158
v -123.000000 -199.609413 -119.105866
v -120.000000 -200.135584 -122.403670
v -117.000000 -202.273101 -124.916595
v -114.000000 -203.134069 -125.340331
v -123.000000 -199.609413 -120.801141
v -120.000000 -201.005809 -123.834694
v -117.000000 -203.742040 -125.677738
v -114.000000 -204.272518 -125.761966
v -123.000000 -200.066793 -122.433550
v -120.000000 -202.229850 -124.977868
v -117.000000 -205.361861 -126.014341
v -114.000000 -205.472538 -125.945802
v -114.000000 -206.685000 -125.884313
v -123.000000 -200.947631 -123.882026
v -120.000000 -203.716924 -125.748408
v -117.000000 -207.012429 -125.901439
v -114.000000 -207.860265 -125.580016
v -123.000000 -202.186598 -125.039141
v -120.000000 -205.356743 -126.089166
v -117.000000 -208.571329 -125.347406
v -114.000000 -208.950218 -125.045369
v -123.000000 -203.691808 -125.819078
v -120.000000 -207.027688 -125.974870
v -117.000000 -209.922944 -124.393332
v -114.000000 -209.910235 -124.302260
v -114.000000 -210.701014 -123.381113
v -123.000000 -205.351624 -126.163991
v -120.000000 -208.605833 -125.413997
v -117.000000 -210.967031 -123.109976
v -114.000000 -211.290180 -122.319638
v -123.000000 -207.042947 -126.048302
v -120.000000 -209.974135 -124.448144
v -117.000000 -211.626156 -121.592519
v -123.000000 -208.640338 -125.480589
v -120.000000 -211.031113 -123.148945
v -123.000000 -210.025327 -124.502957
v -120.000000 -211.698375 -121.612753
v -123.000000 -211.095194 -123.187913
v -123.000000 -211.770594 -121.632988
v -114.000000 -202.474763 -116.066477
v -114.000000 -201.716359 -116.867115
v -114.000000 -203.387550 -115.447592
v -114.000000 -201.147799 -117.812069
v -114.000000 -204.412039 -115.039398
v -114.000000 -200.795669 -118.857154
v -114.000000 -205.500325 -114.860983
v -114.000000 -200.676433 -119.953503
v -114.000000 -206.601522 -114.920688
v -114.000000 -200.795669 -121.049853
v -114.000000 -207.664138 -115.215722
v -114.000000 -201.147799 -122.094938
v -114.000000 -208.638488 -115.732289
v -114.000000 -201.716359 -123.039892
v -114.000000 -209.479010 -116.446236
v -114.000000 -202.474763 -123.840530
v -114.000000 -210.146405 -117.324179
v -114.000000 -203.387550 -124.459415
v -114.000000 -210.609465 -118.325065
v -114.000000 -204.412039 -124.867608
v -114.000000 -210.846537 -119.402096
v -114.000000 -205.500325 -125.046024
v -114.000000 -210.846537 -120.504910
v -114.000000 -206.601522 -124.986319
v -114.000000 -210.609465 -121.581941
v -114.000000 -207.664138 -124.691285
v -114.000000 -210.146405 -122.582828
v -114.000000 -208.638488 -124.174717
v -114.000000 -209.479010 -123.460771
v -125.248410 -200.676433 -119.953503
v -125.248410 -200.774429 -118.958543
v -125.248410 -201.064648 -118.001818
v -125.248410 -201.535938 -117.120095
v -125.248410 -202.170189 -116.347259
v -125.248410 -202.943025 -115.713008
v -125.248410 -203.824748 -115.241718
v -125.248410 -204.781473 -114.951498
v -125.248410 -205.776433 -114.853503
v -125.248410 -206.860516 -114.970054
v -125.248410 -207.895050 -115.314380
v -125.248410 -208.832750 -115.870743
v -125.248410 -209.630756 -116.613714
v -125.248410 -210.252596 -117.509333
v -125.248410 -210.669848 -118.516667
v -125.248410 -210.863439 -119.589673
v -125.248410 -210.824523 -120.679309
v -125.248410 -210.554877 -121.735771
v -125.248410 -210.066827 -122.710771
v -125.248410 -209.382678 -123.559748
v -125.248410 -208.533702 -124.243896
v -125.248410 -207.558701 -124.731947
v -125.248410 -206.502239 -125.001593
v -125.248410 -205.412604 -125.040509
v -125.248410 -204.339597 -124.846917
v -125.248410 -203.332264 -124.429666
v -125.248410 -202.436644 -123.807826
v -125.248410 -201.693673 -123.009819
v -125.248410 -201.137310 -122.072120
v -125.248410 -200.792984 -121.037586
v -125.419872 -205.366418 -115.715521
v -125.572802 -205.776433 -116.541949
v -125.419872 -204.970374 -115.772729
v -125.498625 -203.998064 -116.555394
v -125.498625 -203.344030 -116.988178
v -125.767084 -205.387629 -117.852454
v -125.707007 -204.833235 -117.571033
v -125.642243 -205.232846 -117.016026
v -125.822462 -205.776433 -118.243051
v -125.498625 -202.811108 -117.521100
v -125.767084 -204.989918 -117.966805
v -125.498625 -202.378325 -118.175134
v -125.498625 -202.096479 -118.872911
v -125.873180 -205.304081 -118.760365
v -125.498625 -201.958930 -119.584168
v -125.873180 -205.074234 -118.879440
v -125.498625 -201.962257 -120.355750
v -125.498625 -202.106505 -121.067671
v -125.498625 -202.426464 -121.820974
v -125.498625 -202.877657 -122.464845
v -125.498625 -203.480254 -123.025523
v -125.498625 -204.149592 -123.426705
v -125.498625 -205.243539 -123.751630
v -125.498625 -206.046402 -123.779318
v -125.498625 -206.755124 -123.661860
v -125.498625 -207.524804 -123.367144
v -125.498625 -208.182063 -122.940590
v -125.498625 -208.763520 -122.359133
v -125.498625 -209.190074 -121.701874
v -125.498625 -209.484790 -120.932194
v -125.498625 -209.602248 -120.223472
v -125.498625 -209.574560 -119.420609
v -125.498625 -209.249635 -118.326662
v -125.498625 -208.848453 -117.657324
v -125.498625 -208.287775 -117.054727
v -125.498625 -207.643904 -116.603534
v -125.419872 -206.653227 -115.786989
v -125.419872 -206.222986 -115.719215
v -125.767084 -206.165238 -117.852454
v -125.642243 -206.320021 -117.016026
v -125.707007 -206.719632 -117.571033
v -125.767084 -206.562949 -117.966805
v -125.873180 -206.248786 -118.760365
v -125.873180 -206.478633 -118.879440
v -125.572767 -204.670950 -116.725808
v -125.608072 -203.883834 -117.373479
v -125.737632 -204.490692 -117.986872
v -125.707007 -203.964557 -118.141627
v -125.608072 -203.196409 -118.060904
v -125.707007 -203.393963 -119.010305
v -125.795388 -204.564086 -118.460226
v -125.873180 -204.869049 -119.046118
v -125.940357 -205.659614 -119.322223
v -125.996904 -205.776433 -119.953503
v -125.940357 -205.599783 -119.336287
v -125.608072 -202.663824 -119.211804
v -125.707007 -203.214054 -119.953503
v -125.795388 -204.283156 -118.741156
v -125.873180 -204.702371 -119.251304
v -125.940357 -205.540118 -119.356581
v -125.940357 -205.481567 -119.383227
v -125.940357 -205.425126 -119.416154
v -125.940357 -205.371783 -119.455086
v -125.795388 -203.927230 -119.424250
v -125.873180 -204.583296 -119.481151
v -125.873180 -204.514621 -119.720002
v -125.873180 -204.493197 -119.953503
v -125.940357 -205.322473 -119.499542
v -125.608072 -202.667195 -120.709210
v -125.707007 -203.393963 -120.896702
v -125.767103 -203.675520 -120.342283
v -125.822496 -204.186332 -120.583010
v -125.608072 -203.222027 -121.880538
v -125.707007 -203.964557 -121.765379
v -125.767103 -203.988123 -121.122662
v -125.608072 -204.219438 -122.748896
v -125.707007 -204.833235 -122.335974
v -125.767103 -204.265641 -121.464296
v -125.608072 -204.965382 -123.048766
v -125.707007 -205.776433 -122.515883
v -125.767103 -204.607274 -121.741814
v -125.839915 -205.009656 -121.321136
v -125.608072 -206.179090 -123.127826
v -125.707007 -206.719632 -122.335974
v -125.848427 -205.504077 -121.425283
v -125.608072 -207.382963 -122.720726
v -125.707007 -207.588309 -121.765379
v -125.822496 -205.776433 -121.663679
v -125.873180 -205.776433 -121.236739
v -125.767103 -206.945593 -121.741814
v -125.608072 -208.543656 -121.560033
v -125.707007 -208.158904 -120.896702
v -125.856809 -206.301191 -121.279013
v -125.767103 -207.287226 -121.464296
v -125.767103 -207.564744 -121.122662
v -125.822496 -207.366535 -120.583010
v -125.608072 -208.950756 -120.356159
v -125.707007 -208.338813 -119.953503
v -125.767103 -207.877347 -120.342283
v -125.873180 -207.059670 -119.953503
v -125.608072 -208.871697 -119.142452
v -125.707007 -208.158904 -119.010305
v -125.608072 -208.571827 -118.396508
v -125.707007 -207.588309 -118.141627
v -125.795388 -207.625637 -119.424250
v -125.873180 -207.038246 -119.720002
v -125.873180 -206.969571 -119.481151
v -125.608072 -207.703468 -117.399096
v -125.572767 -206.923193 -116.740241
v -125.795388 -207.269711 -118.741156
v -125.873180 -206.850496 -119.251304
v -125.873180 -206.683818 -119.046118
v -125.737632 -207.062175 -117.986872
v -125.795388 -206.988781 -118.460226
v -125.940357 -206.181083 -119.455086
v -125.940357 -206.230394 -119.499542
v -125.940357 -206.127741 -119.416154
v -125.940357 -206.071300 -119.383227
v -125.940357 -206.012749 -119.356581
v -125.940357 -205.953084 -119.336287
v -125.940357 -205.893253 -119.322223
v -125.969960 -205.703066 -119.640921
v -125.969960 -205.688086 -119.644820
v -125.969960 -205.673127 -119.649499
v -125.969960 -205.658247 -119.654969
v -125.608072 -202.576681 -119.960143
v -125.908096 -204.970634 -119.426689
v -125.908096 -204.921257 -119.511327
v -125.608072 -202.879733 -121.312762
v -125.908096 -204.881300 -119.599128
v -125.969960 -205.477900 -119.835316
v -125.929899 -205.032947 -119.863362
v -125.608072 -203.677201 -122.368391
v -125.940357 -205.134436 -119.953503
v -125.848427 -204.582661 -120.856400
v -125.919145 -205.029917 -120.372045
v -125.940357 -205.322473 -120.407464
v -125.608072 -206.787174 -122.989432
v -125.896753 -205.285176 -120.903604
v -125.908096 -205.422058 -120.848637
v -125.554660 -208.066136 -122.624099
v -125.767103 -206.165213 -122.054417
v -125.900567 -205.588289 -120.970214
v -125.608072 -208.039005 -122.216075
v -125.813591 -206.751169 -121.444429
v -125.608072 -208.812362 -120.964244
v -125.839915 -206.885119 -121.062189
v -125.865060 -206.910082 -120.694659
v -125.940357 -206.230394 -120.407464
v -125.900567 -206.793144 -120.141648
v -125.608072 -208.191321 -117.854271
v -125.969960 -206.074967 -120.071690
v -125.960388 -206.204503 -119.953503
v -125.908096 -206.671567 -119.599128
v -125.908096 -206.631610 -119.511327
v -125.908096 -206.582233 -119.426689
v -125.969960 -205.894620 -119.654969
v -125.969960 -205.879740 -119.649499
v -125.969960 -205.864781 -119.644820
v -125.969960 -205.849801 -119.640921
v -125.983765 -205.688576 -119.819118
v -125.955491 -205.302914 -120.041129
v -125.979237 -205.568839 -120.005747
v -125.983765 -205.642049 -120.041361
v -125.969960 -205.658247 -120.252037
v -125.940357 -205.776433 -120.595501
v -125.920958 -206.007023 -120.759179
v -125.955491 -205.864059 -120.427023
v -125.908096 -206.130809 -120.848637
v -125.900567 -206.342233 -120.818934
v -125.965211 -206.089952 -119.748532
v -125.983765 -205.910818 -119.865645
v -125.979237 -205.927802 -119.802135
v -125.990417 -205.705120 -119.916630
v -125.976946 -205.798072 -120.193351
v -125.969960 -205.894620 -120.252037
v -125.983765 -205.864291 -120.087888
v -125.990417 -205.847747 -119.990376
v -125.988218 -205.882696 -119.966387
v -125.990417 -205.739560 -120.024817
v -125.987112 -205.781802 -120.073804
f 1 2 3
f 3 2 4
f 1 5 2
f 6 7 1
f 1 7 5
f 8 9 10
f 9 11 10
f 9 12 11
f 13 14 15
f 16 17 18
f 13 19 14
f 20 21 16
f 16 21 17
f 20 22 21
f 23 22 20
f 24 25 23
f 23 25 22
f 24 26 25
f 27 26 24
f 27 28 26
f 29 28 27
f 29 30 28
f 31 30 29
f 32 33 31
f 31 33 30
f 32 34 33
f 35 34 32
f 35 36 34
f 37 36 35
f 37 38 36
f 39 38 37
f 40 41 39
f 39 41 38
f 42 43 40
f 40 43 41
f 44 45 42
f 42 45 43
f 46 47 48
f 49 47 46
f 50 51 44
f 44 51 45
f 52 53 50
f 50 53 51
f 54 55 52
f 52 55 53
f 56 57 54
f 54 57 55
f 4 58 3
f 57 58 4
f 3 58 56
f 56 58 57
f 59 60 61
f 59 62 60
f 60 63 64
f 62 65 60
f 60 65 63
f 66 65 62
f 2 67 4
f 5 67 2
f 68 69 6
f 6 69 7
f 7 69 70
f 5 71 67
f 7 71 5
f 67 71 4
f 70 71 7
f 72 73 68
f 68 73 69
f 69 74 70
f 75 74 73
f 73 74 69
f 71 76 4
f 76 77 10
f 70 77 71
f 74 77 70
f 71 77 76
f 72 78 73
f 79 78 72
f 73 78 75
f 80 81 79
f 79 81 78
f 77 82 10
f 74 82 77
f 75 82 74
f 8 82 75
f 10 82 8
f 10 83 76
f 11 83 10
f 78 84 75
f 85 84 81
f 81 84 78
f 84 86 75
f 85 86 84
f 75 86 8
f 83 87 66
f 11 87 83
f 11 88 87
f 89 90 91
f 11 92 88
f 89 93 90
f 94 93 89
f 94 95 93
f 96 95 94
f 11 97 92
f 9 98 12
f 12 98 99
f 11 100 97
f 101 102 103
f 98 102 99
f 99 102 101
f 11 104 100
f 12 105 11
f 11 105 104
f 12 106 105
f 12 107 106
f 15 108 13
f 95 108 15
f 96 108 95
f 109 108 96
f 110 111 102
f 102 111 103
f 112 111 113
f 103 111 112
f 111 114 113
f 113 115 116
f 114 115 113
f 15 115 114
f 14 115 15
f 116 115 14
f 13 117 19
f 118 117 13
f 118 119 117
f 120 119 118
f 120 121 119
f 122 121 120
f 123 124 125
f 122 126 121
f 123 126 122
f 126 127 121
f 125 128 129
f 26 128 25
f 130 131 132
f 133 134 135
f 135 134 129
f 130 136 131
f 133 137 134
f 133 138 137
f 139 138 133
f 38 140 36
f 46 140 49
f 48 141 46
f 139 141 138
f 46 141 139
f 47 142 143
f 143 142 144
f 49 142 47
f 142 145 144
f 144 145 146
f 146 145 147
f 147 145 148
f 4 149 57
f 150 149 4
f 57 149 55
f 151 152 153
f 148 152 154
f 154 152 155
f 155 156 157
f 64 156 60
f 157 156 64
f 61 156 151
f 60 156 61
f 152 156 155
f 151 156 152
f 59 158 62
f 66 158 4
f 4 158 150
f 150 158 59
f 62 158 66
f 157 159 155
f 155 159 160
f 157 161 159
f 157 162 161
f 64 163 157
f 157 163 162
f 63 164 64
f 64 164 163
f 65 165 63
f 63 165 164
f 65 166 165
f 65 167 166
f 65 168 167
f 169 170 66
f 66 170 65
f 65 170 168
f 76 171 4
f 4 171 66
f 83 171 76
f 66 171 83
f 172 173 80
f 80 173 81
f 81 174 85
f 85 174 91
f 173 174 81
f 66 175 169
f 88 175 87
f 87 175 66
f 86 176 8
f 176 177 178
f 86 177 176
f 85 177 86
f 91 177 85
f 178 177 90
f 90 177 91
f 178 179 176
f 176 179 8
f 110 179 178
f 8 179 9
f 9 179 98
f 102 179 110
f 98 179 102
f 175 180 169
f 88 180 175
f 180 181 169
f 88 181 180
f 88 182 181
f 181 182 169
f 88 183 182
f 182 183 169
f 88 184 183
f 183 184 169
f 92 184 88
f 92 185 184
f 184 185 169
f 97 186 92
f 92 186 185
f 114 187 15
f 111 187 114
f 178 187 110
f 90 187 178
f 93 187 90
f 15 187 95
f 95 187 93
f 110 187 111
f 12 188 107
f 99 188 12
f 99 189 188
f 101 189 99
f 103 190 101
f 101 190 189
f 112 191 103
f 103 191 190
f 13 192 118
f 108 192 13
f 190 193 189
f 191 193 190
f 116 194 113
f 112 194 191
f 191 194 193
f 113 194 112
f 116 195 194
f 194 195 193
f 14 196 116
f 116 196 195
f 19 197 14
f 14 197 196
f 196 197 198
f 123 199 124
f 122 199 123
f 117 200 19
f 19 200 197
f 197 200 198
f 119 201 117
f 121 201 119
f 127 201 121
f 117 201 200
f 198 201 202
f 200 201 198
f 25 203 22
f 22 203 21
f 21 203 124
f 203 204 124
f 25 204 203
f 124 204 125
f 125 204 128
f 128 204 25
f 126 205 127
f 123 205 126
f 127 205 132
f 130 205 125
f 125 205 123
f 132 205 130
f 201 206 202
f 127 206 201
f 127 207 206
f 127 208 207
f 132 208 127
f 128 209 129
f 129 209 135
f 125 210 130
f 134 210 129
f 129 210 125
f 130 210 136
f 131 211 132
f 132 211 208
f 134 212 210
f 210 212 136
f 137 212 134
f 46 213 140
f 139 213 46
f 137 214 212
f 138 214 137
f 138 215 214
f 48 215 141
f 141 215 138
f 41 216 38
f 43 216 41
f 217 216 43
f 38 218 140
f 217 218 216
f 216 218 38
f 140 218 49
f 49 218 217
f 215 219 214
f 48 219 215
f 219 220 214
f 221 222 153
f 217 222 221
f 221 223 217
f 49 223 142
f 217 223 49
f 142 223 145
f 47 224 48
f 143 224 47
f 153 225 221
f 221 225 223
f 223 225 145
f 145 225 148
f 148 225 152
f 152 225 153
f 55 226 53
f 149 226 55
f 143 227 224
f 150 228 149
f 61 228 59
f 59 228 150
f 147 229 146
f 148 229 147
f 148 230 229
f 148 231 230
f 154 231 148
f 160 232 155
f 154 232 231
f 155 232 154
f 165 233 164
f 164 233 163
f 163 233 162
f 166 234 165
f 165 234 233
f 233 234 169
f 166 235 234
f 234 235 169
f 166 236 235
f 235 236 169
f 167 237 166
f 236 237 169
f 166 237 236
f 168 238 167
f 237 238 169
f 167 238 237
f 168 239 238
f 169 239 170
f 170 239 168
f 238 239 169
f 173 240 174
f 174 240 91
f 91 240 89
f 185 241 169
f 186 241 185
f 104 241 100
f 97 241 186
f 105 241 104
f 100 241 97
f 107 241 106
f 106 241 105
f 109 242 108
f 108 242 192
f 192 242 118
f 243 242 109
f 244 242 243
f 122 245 199
f 17 245 246
f 199 245 124
f 124 245 21
f 21 245 17
f 198 247 196
f 196 247 195
f 247 248 195
f 198 248 247
f 195 248 193
f 198 249 248
f 202 249 198
f 207 250 206
f 208 250 207
f 206 250 202
f 128 251 209
f 209 251 135
f 30 251 28
f 28 251 26
f 26 251 128
f 208 252 250
f 211 252 208
f 36 253 34
f 34 253 33
f 139 253 213
f 213 253 140
f 140 253 36
f 211 254 252
f 131 254 211
f 131 255 254
f 136 255 131
f 255 256 254
f 136 257 255
f 220 258 214
f 214 258 212
f 136 258 257
f 212 258 136
f 259 260 224
f 219 260 220
f 48 260 219
f 224 260 48
f 222 261 153
f 217 261 222
f 45 261 43
f 51 261 45
f 43 261 217
f 226 262 53
f 149 262 226
f 228 262 149
f 61 262 228
f 144 263 143
f 146 263 144
f 229 263 146
f 143 263 227
f 229 264 263
f 263 264 227
f 230 264 229
f 230 265 264
f 231 265 230
f 232 265 231
f 160 265 232
f 265 266 264
f 264 266 227
f 265 267 266
f 266 267 169
f 160 267 265
f 233 267 162
f 159 267 160
f 161 267 159
f 162 267 161
f 169 267 233
f 240 268 89
f 89 268 94
f 94 268 96
f 245 269 246
f 246 269 244
f 122 270 245
f 244 270 242
f 120 270 122
f 118 270 120
f 269 270 244
f 245 270 269
f 242 270 118
f 193 271 189
f 107 271 241
f 249 271 248
f 241 271 169
f 248 271 193
f 189 271 188
f 188 271 107
f 33 272 30
f 253 272 33
f 139 273 253
f 272 273 30
f 135 273 133
f 30 273 251
f 133 273 139
f 251 273 135
f 253 273 272
f 256 274 254
f 256 275 274
f 255 275 256
f 257 275 255
f 258 275 257
f 258 276 275
f 220 276 258
f 275 276 277
f 53 278 51
f 262 278 53
f 51 279 261
f 262 279 278
f 151 279 61
f 153 279 151
f 261 279 153
f 278 279 51
f 61 279 262
f 276 280 277
f 220 280 276
f 259 280 260
f 260 280 220
f 280 281 169
f 224 281 259
f 227 281 224
f 169 281 266
f 259 281 280
f 266 281 227
f 282 283 284
f 268 283 96
f 169 285 280
f 252 285 250
f 250 285 202
f 202 285 249
f 249 285 271
f 271 285 169
f 280 286 277
f 254 286 252
f 252 286 285
f 274 286 254
f 275 286 274
f 285 286 280
f 277 286 275
f 240 287 268
f 284 287 172
f 283 287 284
f 173 287 240
f 268 287 283
f 172 287 173
f 288 289 282
f 282 289 283
f 283 290 96
f 289 290 283
f 96 290 109
f 109 290 243
f 288 291 289
f 292 291 288
f 289 291 290
f 290 293 243
f 291 293 290
f 243 293 244
f 294 295 292
f 292 295 291
f 291 296 293
f 293 296 244
f 295 296 291
f 244 296 246
f 17 297 18
f 18 297 294
f 295 297 296
f 296 297 246
f 294 297 295
f 246 297 17
f 298 299 300
f 40 39 301
f 298 302 299
f 39 37 301
f 303 304 298
f 303 300 305
f 303 298 300
f 306 305 307
f 306 303 305
f 308 301 304
f 308 304 303
f 309 307 310
f 309 310 311
f 309 306 307
f 312 308 303
f 312 303 306
f 313 311 314
f 313 309 311
f 315 40 301
f 315 42 40
f 315 301 308
f 316 312 306
f 316 306 309
f 317 314 318
f 317 313 314
f 319 42 315
f 319 44 42
f 319 315 308
f 319 308 312
f 320 309 313
f 320 316 309
f 321 318 322
f 321 322 323
f 321 317 318
f 324 319 312
f 324 50 44
f 324 52 50
f 324 44 319
f 324 312 316
f 325 320 313
f 325 313 317
f 326 321 323
f 326 323 327
f 328 320 325
f 328 54 52
f 328 316 320
f 328 324 316
f 328 52 324
f 329 325 317
f 329 317 321
f 329 321 326
f 330 326 327
f 330 327 331
f 332 56 54
f 332 3 56
f 332 54 328
f 332 328 325
f 333 329 326
f 334 331 335
f 334 335 336
f 334 330 331
f 337 325 329
f 337 332 325
f 337 1 3
f 337 3 332
f 338 333 326
f 338 330 334
f 338 326 330
f 339 334 336
f 339 336 340
f 341 337 329
f 341 333 338
f 341 6 1
f 341 1 337
f 341 329 333
f 342 338 334
f 343 339 340
f 343 340 344
f 345 338 342
f 345 68 6
f 345 72 68
f 345 341 338
f 345 6 341
f 346 334 339
f 346 342 334
f 347 344 348
f 347 348 349
f 347 343 344
f 350 72 345
f 350 345 342
f 350 79 72
f 351 346 339
f 351 339 343
f 352 347 349
f 352 349 353
f 354 346 351
f 354 350 342
f 354 79 350
f 354 342 346
f 354 80 79
f 354 172 80
f 355 343 347
f 355 351 343
f 356 353 357
f 356 357 358
f 356 352 353
f 359 172 354
f 359 284 172
f 359 354 351
f 360 347 352
f 360 355 347
f 360 352 356
f 361 356 358
f 361 358 362
f 363 351 355
f 363 359 351
f 363 284 359
f 363 282 284
f 364 360 356
f 365 362 366
f 365 361 362
f 367 363 355
f 367 282 363
f 367 288 282
f 367 292 288
f 367 355 360
f 368 356 361
f 368 364 356
f 369 366 370
f 369 370 371
f 369 365 366
f 372 292 367
f 372 294 292
f 372 367 360
f 372 360 364
f 372 364 368
f 373 365 369
f 373 368 361
f 373 361 365
f 374 371 375
f 374 369 371
f 376 294 372
f 376 18 294
f 376 16 18
f 376 372 368
f 377 373 369
f 378 375 379
f 378 374 375
f 380 20 16
f 380 368 373
f 380 16 376
f 380 376 368
f 380 373 377
f 381 369 374
f 381 377 369
f 382 379 383
f 382 383 384
f 382 378 379
f 385 23 20
f 385 20 380
f 385 380 377
f 385 377 381
f 386 374 378
f 386 381 374
f 387 384 388
f 387 382 384
f 389 385 381
f 389 23 385
f 389 24 23
f 389 27 24
f 390 386 378
f 390 378 382
f 390 382 387
f 391 387 388
f 391 302 298
f 391 388 302
f 391 298 304
f 392 27 389
f 392 29 27
f 392 389 381
f 392 381 386
f 393 390 387
f 393 387 391
f 394 29 392
f 394 392 386
f 394 31 29
f 394 32 31
f 394 386 390
f 395 393 391
f 395 391 304
f 396 390 393
f 396 394 390
f 396 32 394
f 396 35 32
f 397 301 37
f 397 393 395
f 397 395 304
f 397 35 396
f 397 304 301
f 397 37 35
f 397 396 393
f 398 335 331
f 399 336 335
f 399 335 398
f 400 331 327
f 400 398 331
f 401 340 336
f 401 336 399
f 402 327 323
f 402 400 327
f 403 344 340
f 403 340 401
f 404 323 322
f 404 402 323
f 405 348 344
f 405 344 403
f 318 404 322
f 406 404 318
f 407 349 348
f 407 348 405
f 314 406 318
f 408 406 314
f 409 349 407
f 353 349 409
f 311 408 314
f 410 408 311
f 411 353 409
f 357 353 411
f 310 410 311
f 412 410 310
f 413 357 411
f 358 357 413
f 307 412 310
f 414 412 307
f 415 358 413
f 362 358 415
f 305 414 307
f 416 414 305
f 417 362 415
f 366 362 417
f 300 416 305
f 300 418 416
f 419 366 417
f 370 366 419
f 299 420 418
f 299 418 300
f 371 370 419
f 371 419 421
f 302 422 420
f 302 420 299
f 375 421 423
f 375 371 421
f 388 424 422
f 388 422 302
f 379 423 425
f 379 375 423
f 384 426 424
f 384 424 388
f 383 425 426
f 383 379 425
f 383 426 384
f 427 405 428
f 428 403 429
f 405 403 428
f 429 401 430
f 403 401 429
f 430 399 431
f 401 399 430
f 431 398 432
f 399 398 431
f 432 400 433
f 398 400 432
f 433 402 434
f 400 402 433
f 434 404 435
f 402 404 434
f 435 406 436
f 404 406 435
f 436 408 437
f 406 408 436
f 408 410 437
f 437 410 438
f 410 412 438
f 438 412 439
f 412 414 439
f 439 414 440
f 414 416 440
f 440 416 441
f 416 418 441
f 441 418 442
f 418 420 442
f 442 420 443
f 420 422 443
f 443 422 444
f 422 424 444
f 444 424 445
f 424 426 445
f 445 426 446
f 426 425 446
f 446 425 447
f 425 423 447
f 447 423 448
f 423 421 448
f 448 421 449
f 449 419 450
f 421 419 449
f 450 417 451
f 419 417 450
f 451 415 452
f 417 415 451
f 452 413 453
f 415 413 452
f 453 411 454
f 413 411 453
f 454 409 455
f 411 409 454
f 455 407 456
f 409 407 455
f 456 405 427
f 407 405 456
f 457 434 435
f 457 435 458
f 459 457 458
f 459 433 434
f 459 434 457
f 460 432 433
f 460 433 459
f 461 432 460
f 461 431 432
f 462 463 464
f 462 458 465
f 462 464 458
f 466 430 431
f 466 431 461
f 467 463 462
f 468 429 430
f 468 430 466
f 469 428 429
f 469 429 468
f 470 462 465
f 470 467 462
f 471 427 428
f 471 428 469
f 472 467 470
f 473 456 427
f 473 427 471
f 474 455 456
f 474 456 473
f 475 454 455
f 475 455 474
f 476 453 454
f 476 454 475
f 477 452 453
f 477 453 476
f 478 451 452
f 478 452 477
f 479 450 451
f 479 451 478
f 480 449 450
f 480 450 479
f 481 448 449
f 481 449 480
f 482 448 481
f 482 447 448
f 483 446 447
f 483 447 482
f 484 445 446
f 484 446 483
f 485 444 445
f 485 445 484
f 486 443 444
f 486 444 485
f 487 443 486
f 487 442 443
f 488 441 442
f 488 442 487
f 489 441 488
f 489 440 441
f 490 440 489
f 490 439 440
f 491 439 490
f 491 438 439
f 492 437 438
f 492 438 491
f 493 436 437
f 493 437 492
f 494 435 436
f 494 458 435
f 494 436 493
f 494 493 458
f 495 496 497
f 495 465 458
f 495 458 496
f 495 497 498
f 499 465 495
f 499 498 500
f 499 495 498
f 501 459 458
f 501 460 459
f 501 464 463
f 501 458 464
f 502 460 501
f 502 501 463
f 502 461 460
f 503 463 467
f 503 504 502
f 503 502 463
f 505 466 461
f 505 504 506
f 505 461 502
f 505 502 504
f 505 468 466
f 507 472 508
f 507 467 472
f 507 503 467
f 507 504 503
f 509 470 465
f 509 465 510
f 511 470 509
f 512 471 469
f 512 469 468
f 512 505 506
f 512 468 505
f 512 506 513
f 514 506 504
f 514 507 508
f 514 508 515
f 514 504 507
f 516 470 511
f 517 472 470
f 517 470 516
f 518 472 517
f 519 472 518
f 519 508 472
f 520 506 514
f 520 515 521
f 520 521 522
f 520 522 523
f 520 514 515
f 520 513 506
f 524 508 519
f 525 513 526
f 525 474 473
f 527 520 523
f 527 513 520
f 527 528 526
f 527 526 513
f 527 523 528
f 529 526 530
f 529 476 475
f 531 530 526
f 531 526 528
f 532 530 533
f 532 478 477
f 534 530 531
f 535 533 536
f 535 532 533
f 535 478 532
f 535 479 478
f 537 530 534
f 537 533 530
f 538 537 534
f 538 533 537
f 539 536 540
f 539 479 535
f 539 481 480
f 539 535 536
f 539 480 479
f 541 536 533
f 541 533 538
f 542 540 543
f 544 536 541
f 545 544 541
f 546 543 540
f 547 485 484
f 547 543 548
f 549 544 545
f 550 543 546
f 551 548 543
f 551 543 550
f 551 552 548
f 553 487 486
f 553 488 487
f 553 548 554
f 555 554 548
f 555 552 556
f 555 548 552
f 557 553 554
f 557 489 488
f 557 554 558
f 557 488 553
f 559 557 558
f 559 558 560
f 559 489 557
f 559 490 489
f 561 555 556
f 561 556 562
f 561 562 563
f 561 558 554
f 561 554 555
f 564 492 491
f 565 564 497
f 565 497 496
f 565 493 492
f 565 458 493
f 565 496 458
f 565 492 564
f 566 561 563
f 566 563 567
f 566 567 568
f 566 560 558
f 566 558 561
f 569 497 564
f 569 564 560
f 569 498 497
f 570 569 560
f 570 498 569
f 570 566 568
f 570 568 500
f 570 500 498
f 570 560 566
f 571 568 572
f 571 500 568
f 573 500 571
f 574 500 573
f 574 499 500
f 575 499 574
f 576 499 575
f 577 499 576
f 577 510 465
f 577 465 499
f 578 509 510
f 578 511 509
f 579 511 578
f 579 578 510
f 580 511 579
f 580 516 511
f 580 579 510
f 581 516 580
f 581 517 516
f 582 525 473
f 582 471 512
f 582 473 471
f 582 513 525
f 582 512 513
f 583 515 508
f 583 508 524
f 584 515 583
f 584 521 515
f 585 474 525
f 585 525 526
f 585 475 474
f 585 529 475
f 585 526 529
f 586 521 584
f 586 522 521
f 587 584 583
f 587 586 584
f 588 522 586
f 588 586 587
f 588 523 522
f 589 476 529
f 589 529 530
f 589 530 532
f 589 532 477
f 589 477 476
f 590 588 587
f 590 523 588
f 591 531 528
f 591 538 534
f 591 528 592
f 591 592 593
f 591 534 531
f 594 481 539
f 594 540 542
f 594 539 540
f 594 482 481
f 594 542 482
f 595 538 591
f 595 591 593
f 596 541 538
f 596 538 595
f 597 483 482
f 597 484 483
f 597 482 542
f 598 540 536
f 598 536 544
f 598 546 540
f 598 544 549
f 599 545 541
f 599 541 596
f 600 542 543
f 600 597 542
f 600 543 547
f 600 547 484
f 600 484 597
f 601 550 546
f 601 546 598
f 601 598 549
f 602 485 547
f 602 486 485
f 602 553 486
f 602 547 548
f 602 548 553
f 603 551 550
f 603 550 601
f 604 551 603
f 604 552 551
f 605 604 603
f 606 552 604
f 606 556 552
f 607 559 560
f 607 560 564
f 607 490 559
f 607 491 490
f 607 564 491
f 608 604 605
f 608 606 604
f 609 556 606
f 609 562 556
f 610 562 609
f 610 563 562
f 611 563 610
f 611 567 563
f 612 572 568
f 612 567 611
f 612 568 567
f 613 574 573
f 613 575 574
f 614 576 575
f 614 613 510
f 614 575 613
f 615 576 614
f 615 614 510
f 616 577 576
f 616 510 577
f 616 576 615
f 616 615 510
f 617 519 518
f 617 518 517
f 617 517 581
f 617 580 510
f 617 524 519
f 617 581 580
f 618 592 528
f 618 523 590
f 618 528 523
f 619 618 590
f 619 590 587
f 619 592 618
f 620 592 619
f 620 593 592
f 621 599 596
f 621 595 593
f 621 596 595
f 622 599 621
f 622 545 599
f 623 545 622
f 623 549 545
f 624 623 622
f 625 549 623
f 626 605 603
f 626 549 625
f 626 603 601
f 626 601 549
f 627 611 610
f 627 612 611
f 627 572 612
f 628 610 609
f 628 627 610
f 629 571 572
f 629 572 627
f 629 573 571
f 629 613 573
f 629 628 510
f 629 510 613
f 629 627 628
f 630 619 587
f 630 617 510
f 630 524 617
f 630 583 524
f 630 620 619
f 630 587 583
f 631 624 622
f 632 623 624
f 632 625 623
f 632 626 625
f 632 624 631
f 633 626 632
f 633 605 626
f 634 608 605
f 634 605 633
f 635 606 608
f 635 609 606
f 635 510 628
f 635 608 634
f 635 634 510
f 635 628 609
f 636 620 630
f 636 593 620
f 636 510 634
f 636 630 510
f 636 621 593
f 637 636 634
f 637 622 621
f 637 632 631
f 637 631 622
f 637 633 632
f 637 634 633
f 637 621 636
